<?xml version="1.0" encoding="UTF-8" standalone="no"?>
<svg
   xmlns:dc="http://purl.org/dc/elements/1.1/"
   xmlns:cc="http://creativecommons.org/ns#"
   xmlns:rdf="http://www.w3.org/1999/02/22-rdf-syntax-ns#"
   xmlns:svg="http://www.w3.org/2000/svg"
   xmlns="http://www.w3.org/2000/svg"
   viewBox="0 0 172 20"
   height="20"
   width="172"
   xml:space="preserve"
   id="svg2"
   version="1.1"><metadata
     id="metadata8"><rdf:RDF><cc:Work
         rdf:about=""><dc:format>image/svg+xml</dc:format><dc:type
           rdf:resource="http://purl.org/dc/dcmitype/StillImage" /></cc:Work></rdf:RDF></metadata><defs
     id="defs6" /><g
     transform="matrix(1.3333333,0,0,-1.3333333,0,20)"
     id="g10"><g
       transform="scale(0.1)"
       id="g12"><path
         id="path14"
         style="fill:#231f20;fill-opacity:1;fill-rule:evenodd;stroke:none"
         d="m 813.582,45.5039 c 7.512,0 13.598,-6.0859 13.598,-13.5977 0,-7.5078 -6.086,-13.5976 -13.598,-13.5976 -7.508,0 -13.598,6.0898 -13.598,13.5976 0,7.5118 6.09,13.5977 13.598,13.5977" /><path
         id="path16"
         style="fill:none;stroke:#231f20;stroke-width:7.5005002;stroke-linecap:butt;stroke-linejoin:miter;stroke-miterlimit:2.61310005;stroke-dasharray:none;stroke-opacity:1"
         d="m 813.582,45.5039 c 7.512,0 13.598,-6.0859 13.598,-13.5977 0,-7.5078 -6.086,-13.5976 -13.598,-13.5976 -7.508,0 -13.598,6.0898 -13.598,13.5976 0,7.5118 6.09,13.5977 13.598,13.5977 z" /><path
         id="path18"
         style="fill:#231f20;fill-opacity:1;fill-rule:evenodd;stroke:none"
         d="m 305.176,47.6523 c 7.508,0 13.597,-6.0898 13.597,-13.5976 0,-7.5117 -6.089,-13.5977 -13.597,-13.5977 -7.508,0 -13.598,6.086 -13.598,13.5977 0,7.5078 6.09,13.5976 13.598,13.5976" /><path
         id="path20"
         style="fill:none;stroke:#231f20;stroke-width:7.5005002;stroke-linecap:butt;stroke-linejoin:miter;stroke-miterlimit:2.61310005;stroke-dasharray:none;stroke-opacity:1"
         d="m 305.176,47.6523 c 7.508,0 13.597,-6.0898 13.597,-13.5976 0,-7.5117 -6.089,-13.5977 -13.597,-13.5977 -7.508,0 -13.598,6.086 -13.598,13.5977 0,7.5078 6.09,13.5976 13.598,13.5976 z" /><path
         id="path22"
         style="fill:#231f20;fill-opacity:1;fill-rule:nonzero;stroke:none"
         d="m 797.316,125.852 6.118,-53.3325 38.418,53.3325 h 16.164 v -1.817 c -3.516,-0.215 -5.582,-0.449 -6.2,-0.683 -1.082,-0.418 -2.066,-1.266 -2.949,-2.536 -0.898,-1.265 -1.863,-3.714 -2.918,-7.332 L 833.703,71.5 c -0.719,-2.4492 -1.07,-4.3633 -1.07,-5.7656 0,-1.2656 0.433,-2.2305 1.32,-2.8828 1.231,-0.9297 3.184,-1.4141 5.848,-1.4141 h 1.183 l -0.449,-1.8008 h -27.883 l 0.5,1.8008 h 1.313 c 2.469,0 4.351,0.3633 5.672,1.082 0.996,0.5157 1.898,1.5 2.699,2.9493 0.797,1.4492 1.914,4.6679 3.348,9.6484 l 10.933,38.3668 -38.613,-53.8473 h -1.953 L 790.336,113.484 778.52,72.5195 c -1.004,-3.4843 -1.5,-5.8164 -1.5,-7.0156 0,-1.2187 0.433,-2.1367 1.312,-2.7656 0.871,-0.6367 3.004,-1.0703 6.402,-1.3008 l -0.55,-1.8008 h -21.813 l 0.531,1.8008 h 1.317 c 3.215,0 5.551,0.8164 6.984,2.4453 1.031,1.168 2.129,3.7188 3.266,7.6172 l 14.414,49.367 c -1.082,1.102 -2.098,1.852 -3.082,2.254 -0.985,0.383 -2.785,0.699 -5.414,0.914 l 0.48,1.817 h 16.449" /><path
         id="path24"
         style="fill:#231f20;fill-opacity:1;fill-rule:nonzero;stroke:none"
         d="m 1014.78,145.719 h 35.48 v -1.871 L 1028.2,78.1328 h -5.47 l 19.78,59.6172 h -18.21 c -3.69,0 -6.3,-0.434 -7.87,-1.316 -2.73,-1.5 -4.93,-3.801 -6.59,-6.934 l -1.41,0.531 6.35,15.688" /><path
         id="path26"
         style="fill:none;stroke:#231f20;stroke-width:7.5005002;stroke-linecap:butt;stroke-linejoin:miter;stroke-miterlimit:2.61310005;stroke-dasharray:none;stroke-opacity:1"
         d="M 1.26562,35.543 H 1239.32" /><path
         id="path28"
         style="fill:#231f20;fill-opacity:1;fill-rule:evenodd;stroke:none"
         d="m 1235.17,61.8906 47.9,-26.3476 -47.9,-26.34769 V 61.8906" /><path
         id="path30"
         style="fill:#231f20;fill-opacity:1;fill-rule:evenodd;stroke:none"
         d="m 1029.58,45.5039 c 7.51,0 13.6,-6.0859 13.6,-13.5977 0,-7.5078 -6.09,-13.5976 -13.6,-13.5976 -7.51,0 -13.6,6.0898 -13.6,13.5976 0,7.5118 6.09,13.5977 13.6,13.5977" /><path
         id="path32"
         style="fill:none;stroke:#231f20;stroke-width:7.5005002;stroke-linecap:butt;stroke-linejoin:miter;stroke-miterlimit:2.61310005;stroke-dasharray:none;stroke-opacity:1"
         d="m 1029.58,45.5039 c 7.51,0 13.6,-6.0859 13.6,-13.5977 0,-7.5078 -6.09,-13.5976 -13.6,-13.5976 -7.51,0 -13.6,6.0898 -13.6,13.5976 0,7.5118 6.09,13.5977 13.6,13.5977 z" /><path
         id="path34"
         style="fill:#231f20;fill-opacity:1;fill-rule:nonzero;stroke:none"
         d="m 284.234,102.117 c 0,7.551 1.137,14.051 3.418,19.5 2.286,5.449 5.301,9.516 9.082,12.184 2.934,2.117 5.954,3.183 9.082,3.183 5.067,0 9.637,-2.601 13.668,-7.765 5.051,-6.418 7.567,-15.102 7.567,-26.086 0,-7.6799 -1.098,-14.1994 -3.317,-19.5627 -2.214,-5.3828 -5.031,-9.2851 -8.464,-11.7031 -3.434,-2.4336 -6.75,-3.6328 -9.95,-3.6328 -6.3,0 -11.57,3.7187 -15.765,11.1836 -3.555,6.2812 -5.321,13.8515 -5.321,22.699 z m 9.567,-1.215 c 0,-9.1168 1.117,-16.57 3.367,-22.3161 1.852,-4.8515 4.633,-7.2851 8.301,-7.2851 1.765,0 3.582,0.8008 5.465,2.3672 1.898,1.582 3.336,4.2343 4.3,7.9336 1.5,5.5976 2.25,13.5 2.25,23.6834 0,7.547 -0.785,13.848 -2.347,18.899 -1.168,3.75 -2.688,6.398 -4.535,7.968 -1.332,1.063 -2.95,1.598 -4.836,1.598 -2.215,0 -4.18,-0.984 -5.914,-2.965 -2.332,-2.703 -3.934,-6.949 -4.782,-12.75 -0.851,-5.801 -1.269,-11.5 -1.269,-17.133" /></g></g></svg>