<?xml version="1.0" encoding="UTF-8" standalone="no"?>
<svg
   xmlns:dc="http://purl.org/dc/elements/1.1/"
   xmlns:cc="http://creativecommons.org/ns#"
   xmlns:rdf="http://www.w3.org/1999/02/22-rdf-syntax-ns#"
   xmlns:svg="http://www.w3.org/2000/svg"
   xmlns="http://www.w3.org/2000/svg"
   viewBox="0 0 114.66667 16"
   height="16"
   width="114.66667"
   xml:space="preserve"
   id="svg2"
   version="1.1"><metadata
     id="metadata8"><rdf:RDF><cc:Work
         rdf:about=""><dc:format>image/svg+xml</dc:format><dc:type
           rdf:resource="http://purl.org/dc/dcmitype/StillImage" /></cc:Work></rdf:RDF></metadata><defs
     id="defs6" /><g
     transform="matrix(1.3333333,0,0,-1.3333333,0,16)"
     id="g10"><g
       transform="scale(0.1)"
       id="g12"><path
         id="path14"
         style="fill:#231f20;fill-opacity:1;fill-rule:nonzero;stroke:none"
         d="m 252.691,59.5234 -9.992,-34.7539 -1.121,-4.6718 c -0.105,-0.4336 -0.156,-0.8047 -0.156,-1.1172 0,-0.543 0.172,-1.0313 0.508,-1.4375 0.277,-0.3125 0.613,-0.4532 1.031,-0.4532 0.437,0 1.016,0.2618 1.73,0.8047 1.348,0.9961 3.118,3.043 5.34,6.1602 l 1.75,-1.2266 c -2.363,-3.5508 -4.793,-6.2656 -7.281,-8.1367 -2.504,-1.8555 -4.812,-2.7812 -6.93,-2.7812 -1.468,0 -2.57,0.3632 -3.304,1.1015 -0.739,0.7344 -1.106,1.8047 -1.106,3.2031 0,1.6602 0.387,3.8672 1.137,6.6133 l 1.07,3.8321 c -4.48,-5.8438 -8.594,-9.9219 -12.355,-12.2461 -2.696,-1.6641 -5.356,-2.5039 -7.946,-2.5039 -2.5,0 -4.656,1.0312 -6.457,3.0976 -1.82,2.0625 -2.714,4.9141 -2.714,8.5391 0,5.4258 1.632,11.164 4.886,17.2031 3.27,6.0156 7.418,10.8477 12.442,14.4688 3.918,2.871 7.629,4.3046 11.129,4.3046 2.082,0 3.812,-0.539 5.195,-1.625 1.383,-1.1015 2.433,-2.9062 3.152,-5.4414 l 1.856,5.8438 z m -18.253,-2.6562 c -2.184,0 -4.497,-1.0352 -6.965,-3.082 -3.481,-2.9063 -6.578,-7.2071 -9.309,-12.9141 -2.711,-5.707 -4.074,-10.8672 -4.074,-15.4883 0,-2.3281 0.594,-4.164 1.746,-5.5117 1.156,-1.3477 2.504,-2.0117 4.008,-2.0117 3.711,0 7.769,2.7461 12.144,8.2422 5.844,7.3125 8.77,14.8242 8.77,22.5039 0,2.9023 -0.559,5.0039 -1.699,6.3164 -1.121,1.2969 -2.661,1.9453 -4.621,1.9453" /><path
         id="path16"
         style="fill:none;stroke:#231f20;stroke-width:7.5005002;stroke-linecap:butt;stroke-linejoin:miter;stroke-miterlimit:2.61310005;stroke-dasharray:none;stroke-opacity:1"
         d="M 3.92969,87.3125 H 815.906" /><path
         id="path18"
         style="fill:#231f20;fill-opacity:1;fill-rule:evenodd;stroke:none"
         d="M 811.754,113.66 859.652,87.3125 811.754,60.9648 V 113.66" /><path
         id="path20"
         style="fill:#231f20;fill-opacity:1;fill-rule:nonzero;stroke:none"
         d="M 612.492,21.2852 C 608.941,17.0156 605.355,13.8633 601.73,11.8711 598.109,9.875 594.277,8.875 590.25,8.875 c -4.848,0 -8.641,1.3633 -11.355,4.0938 -2.711,2.7343 -4.079,6.4062 -4.079,11.0273 0,5.2344 1.473,10.3789 4.395,15.4336 2.922,5.0586 6.844,9.1719 11.777,12.3203 4.953,3.168 9.782,4.7422 14.543,4.7422 3.727,0 6.508,-0.7695 8.348,-2.3281 1.851,-1.5586 2.777,-3.4649 2.777,-5.7227 0,-2.1172 -0.644,-3.918 -1.957,-5.4258 -0.945,-1.1718 -2.133,-1.75 -3.535,-1.75 -1.051,0 -1.941,0.3516 -2.641,1.0352 -0.699,0.6797 -1.05,1.539 -1.05,2.5547 0,0.6484 0.14,1.2578 0.382,1.8007 0.266,0.543 0.79,1.2071 1.594,1.9766 0.805,0.7734 1.297,1.3125 1.469,1.6641 0.16,0.332 0.246,0.6992 0.246,1.0664 0,0.7187 -0.312,1.332 -0.965,1.8047 -0.996,0.6836 -2.394,1.0312 -4.215,1.0312 -3.343,0 -6.668,-1.1914 -9.941,-3.5508 -3.289,-2.3437 -6.086,-5.707 -8.418,-10.0468 -2.797,-5.2657 -4.195,-10.5157 -4.195,-15.7852 0,-3.4805 0.996,-6.2461 2.972,-8.2734 1.977,-2.0469 4.692,-3.0664 8.102,-3.0664 2.625,0 5.234,0.6679 7.824,1.9804 2.57,1.3125 5.477,3.711 8.68,7.1563 l 1.484,-1.3281" /><path
         id="path22"
         style="fill:#231f20;fill-opacity:1;fill-rule:evenodd;stroke:none"
         d="m 235.957,97.625 c 5.449,0 9.867,-4.4141 9.867,-9.8555 0,-5.4492 -4.418,-9.8593 -9.867,-9.8593 -5.449,0 -9.863,4.4101 -9.863,9.8593 0,5.4414 4.414,9.8555 9.863,9.8555" /><path
         id="path24"
         style="fill:none;stroke:#231f20;stroke-width:7.5005002;stroke-linecap:butt;stroke-linejoin:miter;stroke-miterlimit:2.61310005;stroke-dasharray:none;stroke-opacity:1"
         d="m 235.957,97.625 c 5.449,0 9.867,-4.4141 9.867,-9.8555 0,-5.4492 -4.418,-9.8593 -9.867,-9.8593 -5.449,0 -9.863,4.4101 -9.863,9.8593 0,5.4414 4.414,9.8555 9.863,9.8555 z" /><path
         id="path26"
         style="fill:#231f20;fill-opacity:1;fill-rule:evenodd;stroke:none"
         d="m 595.957,97.625 c 5.449,0 9.867,-4.4141 9.867,-9.8555 0,-5.4492 -4.418,-9.8593 -9.867,-9.8593 -5.449,0 -9.863,4.4101 -9.863,9.8593 0,5.4414 4.414,9.8555 9.863,9.8555" /><path
         id="path28"
         style="fill:none;stroke:#231f20;stroke-width:7.5005002;stroke-linecap:butt;stroke-linejoin:miter;stroke-miterlimit:2.61310005;stroke-dasharray:none;stroke-opacity:1"
         d="m 595.957,97.625 c 5.449,0 9.867,-4.4141 9.867,-9.8555 0,-5.4492 -4.418,-9.8593 -9.867,-9.8593 -5.449,0 -9.863,4.4101 -9.863,9.8593 0,5.4414 4.414,9.8555 9.863,9.8555 z" /></g></g></svg>