<?xml version="1.0" encoding="UTF-8" standalone="no"?>
<svg
   xmlns:dc="http://purl.org/dc/elements/1.1/"
   xmlns:cc="http://creativecommons.org/ns#"
   xmlns:rdf="http://www.w3.org/1999/02/22-rdf-syntax-ns#"
   xmlns:svg="http://www.w3.org/2000/svg"
   xmlns="http://www.w3.org/2000/svg"
   viewBox="0 0 337.33334 32"
   height="32"
   width="337.33334"
   xml:space="preserve"
   id="svg2"
   version="1.1"><metadata
     id="metadata8"><rdf:RDF><cc:Work
         rdf:about=""><dc:format>image/svg+xml</dc:format><dc:type
           rdf:resource="http://purl.org/dc/dcmitype/StillImage" /></cc:Work></rdf:RDF></metadata><defs
     id="defs6" /><g
     transform="matrix(1.3333333,0,0,-1.3333333,0,32)"
     id="g10"><g
       transform="scale(0.1)"
       id="g12"><path
         id="path14"
         style="fill:none;stroke:#231f20;stroke-width:7.5005002;stroke-linecap:butt;stroke-linejoin:miter;stroke-miterlimit:2.61310005;stroke-dasharray:none;stroke-opacity:1"
         d="M 3.75781,126.141 H 2476.76" /><path
         id="path16"
         style="fill:#231f20;fill-opacity:1;fill-rule:evenodd;stroke:none"
         d="m 2472.61,152.488 47.89,-26.347 -47.89,-26.3519 v 52.6989" /><path
         id="path18"
         style="fill:#231f20;fill-opacity:1;fill-rule:evenodd;stroke:none"
         d="m 311.992,139.094 c 6.637,0 12.02,-5.383 12.02,-12.02 0,-6.636 -5.383,-12.019 -12.02,-12.019 -6.637,0 -12.019,5.383 -12.019,12.019 0,6.637 5.382,12.02 12.019,12.02" /><path
         id="path20"
         style="fill:none;stroke:#231f20;stroke-width:7.5005002;stroke-linecap:butt;stroke-linejoin:miter;stroke-miterlimit:2.61310005;stroke-dasharray:none;stroke-opacity:1"
         d="m 311.992,139.094 c 6.637,0 12.02,-5.383 12.02,-12.02 0,-6.636 -5.383,-12.019 -12.02,-12.019 -6.637,0 -12.019,5.383 -12.019,12.019 0,6.637 5.382,12.02 12.019,12.02 z" /><path
         id="path22"
         style="fill:#231f20;fill-opacity:1;fill-rule:evenodd;stroke:none"
         d="m 1403.51,137.32 c 6.63,0 12.02,-5.382 12.02,-12.015 0,-6.637 -5.39,-12.02 -12.02,-12.02 -6.64,0 -12.02,5.383 -12.02,12.02 0,6.633 5.38,12.015 12.02,12.015" /><path
         id="path24"
         style="fill:none;stroke:#231f20;stroke-width:7.5005002;stroke-linecap:butt;stroke-linejoin:miter;stroke-miterlimit:2.61310005;stroke-dasharray:none;stroke-opacity:1"
         d="m 1403.51,137.32 c 6.63,0 12.02,-5.382 12.02,-12.015 0,-6.637 -5.39,-12.02 -12.02,-12.02 -6.64,0 -12.02,5.383 -12.02,12.02 0,6.633 5.38,12.015 12.02,12.015 z" /><path
         id="path26"
         style="fill:#231f20;fill-opacity:1;fill-rule:evenodd;stroke:none"
         d="m 1759.75,136.543 c 6.64,0 12.02,-5.383 12.02,-12.02 0,-6.636 -5.38,-12.019 -12.02,-12.019 -6.63,0 -12.01,5.383 -12.01,12.019 0,6.637 5.38,12.02 12.01,12.02" /><path
         id="path28"
         style="fill:none;stroke:#231f20;stroke-width:7.5005002;stroke-linecap:butt;stroke-linejoin:miter;stroke-miterlimit:2.61310005;stroke-dasharray:none;stroke-opacity:1"
         d="m 1759.75,136.543 c 6.64,0 12.02,-5.383 12.02,-12.02 0,-6.636 -5.38,-12.019 -12.02,-12.019 -6.63,0 -12.01,5.383 -12.01,12.019 0,6.637 5.38,12.02 12.01,12.02 z" /><path
         id="path30"
         style="fill:#231f20;fill-opacity:1;fill-rule:evenodd;stroke:none"
         d="m 2128.82,136.934 c 6.64,0 12.02,-5.383 12.02,-12.02 0,-6.637 -5.38,-12.019 -12.02,-12.019 -6.63,0 -12.02,5.382 -12.02,12.019 0,6.637 5.39,12.02 12.02,12.02" /><path
         id="path32"
         style="fill:none;stroke:#231f20;stroke-width:7.5005002;stroke-linecap:butt;stroke-linejoin:miter;stroke-miterlimit:2.61310005;stroke-dasharray:none;stroke-opacity:1"
         d="m 2128.82,136.934 c 6.64,0 12.02,-5.383 12.02,-12.02 0,-6.637 -5.38,-12.019 -12.02,-12.019 -6.63,0 -12.02,5.382 -12.02,12.019 0,6.637 5.39,12.02 12.02,12.02 z" /><path
         id="path34"
         style="fill:#231f20;fill-opacity:1;fill-rule:nonzero;stroke:none"
         d="m 337.145,235.555 -5.036,-55.067 c -0.265,-2.582 -0.382,-4.265 -0.382,-5.082 0,-1.301 0.234,-2.301 0.734,-2.984 0.617,-0.93 1.449,-1.633 2.5,-2.098 1.066,-0.453 2.851,-0.683 5.351,-0.683 l -0.535,-1.801 h -26.066 l 0.535,1.801 h 1.117 c 2.117,0 3.852,0.464 5.184,1.363 0.93,0.637 1.664,1.652 2.199,3.086 0.348,1.015 0.699,3.383 1.016,7.133 l 0.785,8.402 h -18.949 l -6.739,-9.137 c -1.527,-2.05 -2.48,-3.531 -2.882,-4.414 -0.379,-0.902 -0.582,-1.734 -0.582,-2.515 0,-1.055 0.417,-1.934 1.265,-2.688 0.852,-0.746 2.254,-1.164 4.203,-1.23 l -0.535,-1.801 h -19.582 l 0.531,1.801 c 2.418,0.097 4.535,0.914 6.383,2.418 1.836,1.515 4.567,4.746 8.219,9.699 l 39.547,53.797 z m -9.665,-16.25 -19.203,-26.117 h 16.653 l 2.55,26.117" /><path
         id="path36"
         style="fill:#231f20;fill-opacity:1;fill-rule:nonzero;stroke:none"
         d="m 1200.32,43.6875 c 0,7.5469 1.14,14.0469 3.42,19.5 2.28,5.4492 5.3,9.5156 9.08,12.1797 2.93,2.1211 5.95,3.1836 9.09,3.1836 5.06,0 9.63,-2.5977 13.66,-7.7656 5.05,-6.418 7.57,-15.0977 7.57,-26.0821 0,-7.6836 -1.1,-14.1992 -3.32,-19.5664 -2.21,-5.3828 -5.03,-9.2812 -8.46,-11.6992 -3.43,-2.4336 -6.75,-3.63672 -9.95,-3.63672 -6.3,0 -11.57,3.71872 -15.77,11.18752 -3.55,6.2812 -5.32,13.8476 -5.32,22.6992 z m 9.57,-1.2148 c 0,-9.1211 1.12,-16.5704 3.37,-22.3204 1.85,-4.8476 4.63,-7.2851 8.3,-7.2851 1.76,0 3.58,0.8047 5.46,2.3672 1.9,1.5859 3.34,4.2383 4.3,7.9375 1.5,5.5976 2.25,13.4961 2.25,23.6797 0,7.5507 -0.78,13.8515 -2.35,18.8984 -1.17,3.75 -2.68,6.4023 -4.53,7.9688 -1.33,1.0664 -2.95,1.5976 -4.83,1.5976 -2.22,0 -4.18,-0.9805 -5.92,-2.9648 -2.33,-2.6993 -3.93,-6.9493 -4.78,-12.75 -0.85,-5.7969 -1.27,-11.5 -1.27,-17.1289" /><path
         id="path38"
         style="fill:none;stroke:#231f20;stroke-width:7.5005002;stroke-linecap:butt;stroke-linejoin:miter;stroke-miterlimit:2.61310005;stroke-dasharray:none;stroke-opacity:1"
         d="M 498.66,146.625 V 101.02" /><path
         id="path40"
         style="fill:none;stroke:#231f20;stroke-width:7.5005002;stroke-linecap:butt;stroke-linejoin:miter;stroke-miterlimit:2.61310005;stroke-dasharray:none;stroke-opacity:1"
         d="M 858.66,146.625 V 101.02" /><path
         id="path42"
         style="fill:none;stroke:#231f20;stroke-width:7.5005002;stroke-linecap:butt;stroke-linejoin:miter;stroke-miterlimit:2.61310005;stroke-dasharray:none;stroke-opacity:1"
         d="M 1218.66,146.625 V 101.02" /><path
         id="path44"
         style="fill:none;stroke:#231f20;stroke-width:7.5005002;stroke-linecap:butt;stroke-linejoin:miter;stroke-miterlimit:2.61310005;stroke-dasharray:none;stroke-opacity:1"
         d="M 1578.66,146.625 V 101.02" /><path
         id="path46"
         style="fill:none;stroke:#231f20;stroke-width:7.5005002;stroke-linecap:butt;stroke-linejoin:miter;stroke-miterlimit:2.61310005;stroke-dasharray:none;stroke-opacity:1"
         d="M 1938.66,146.625 V 101.02" /><path
         id="path48"
         style="fill:none;stroke:#231f20;stroke-width:7.5005002;stroke-linecap:butt;stroke-linejoin:miter;stroke-miterlimit:2.61310005;stroke-dasharray:none;stroke-opacity:1"
         d="M 2298.66,146.625 V 101.02" /><path
         id="path50"
         style="fill:#231f20;fill-opacity:1;fill-rule:nonzero;stroke:none"
         d="m 760.047,48.7695 h 52.6484 v 4 H 760.047 Z" /><path
         id="path52"
         style="fill:#231f20;fill-opacity:1;fill-rule:nonzero;stroke:none"
         d="m 868.262,50.2383 c 0,7.5469 1.136,14.0469 3.418,19.5 2.285,5.4492 5.3,9.5156 9.086,12.1836 2.929,2.1172 5.949,3.1797 9.082,3.1797 5.062,0 9.632,-2.5977 13.664,-7.7657 5.05,-6.4179 7.57,-15.0976 7.57,-26.082 0,-7.6836 -1.102,-14.1992 -3.32,-19.5664 -2.215,-5.3828 -5.032,-9.2813 -8.465,-11.6992 -3.434,-2.4336 -6.75,-3.6367 -9.949,-3.6367 -6.301,0 -11.571,3.7187 -15.766,11.1875 -3.551,6.2812 -5.32,13.8476 -5.32,22.6992 z m 9.57,-1.2149 c 0,-9.1211 1.113,-16.5703 3.367,-22.3203 1.848,-4.8476 4.629,-7.2812 8.297,-7.2812 1.766,0 3.586,0.8008 5.465,2.3633 1.902,1.5859 3.336,4.2382 4.301,7.9375 1.5,5.5976 2.25,13.4961 2.25,23.6796 0,7.5508 -0.785,13.8516 -2.348,18.8985 -1.168,3.75 -2.684,6.4023 -4.531,7.9687 -1.336,1.0664 -2.953,1.5977 -4.836,1.5977 -2.219,0 -4.184,-0.9805 -5.918,-2.9649 -2.332,-2.6992 -3.93,-6.9492 -4.781,-12.75 -0.852,-5.7968 -1.266,-11.5 -1.266,-17.1289" /><path
         id="path54"
         style="fill:#231f20;fill-opacity:1;fill-rule:nonzero;stroke:none"
         d="m 826.363,77.2383 16.117,7.8633 h 1.614 V 29.1875 c 0,-3.7031 0.152,-6.0156 0.453,-6.9336 0.316,-0.9023 0.965,-1.6016 1.933,-2.1016 0.985,-0.4843 2.969,-0.7617 5.965,-0.832 v -1.8008 h -24.914 v 1.8008 c 3.133,0.0703 5.149,0.3359 6.067,0.8164 0.898,0.4688 1.531,1.1016 1.898,1.8985 0.352,0.8046 0.535,3.1836 0.535,7.1523 v 35.75 c 0,4.8164 -0.168,7.9023 -0.484,9.2656 -0.235,1.0508 -0.649,1.8164 -1.25,2.3008 -0.602,0.4844 -1.317,0.7344 -2.168,0.7344 -1.199,0 -2.883,-0.5039 -5.031,-1.5156 l -0.735,1.5156" /><path
         id="path56"
         style="fill:#231f20;fill-opacity:1;fill-rule:nonzero;stroke:none"
         d="m 400.047,48.7695 h 52.6484 v 4 H 400.047 Z" /><path
         id="path58"
         style="fill:#231f20;fill-opacity:1;fill-rule:nonzero;stroke:none"
         d="m 508.262,50.2383 c 0,7.5469 1.136,14.0469 3.418,19.5 2.285,5.4492 5.3,9.5156 9.086,12.1836 2.929,2.1172 5.949,3.1797 9.082,3.1797 5.062,0 9.632,-2.5977 13.664,-7.7657 5.05,-6.4179 7.57,-15.0976 7.57,-26.082 0,-7.6836 -1.102,-14.1992 -3.32,-19.5664 -2.215,-5.3828 -5.032,-9.2813 -8.465,-11.6992 -3.434,-2.4336 -6.75,-3.6367 -9.949,-3.6367 -6.301,0 -11.571,3.7187 -15.766,11.1875 -3.551,6.2812 -5.32,13.8476 -5.32,22.6992 z m 9.57,-1.2149 c 0,-9.1211 1.113,-16.5703 3.367,-22.3203 1.848,-4.8476 4.629,-7.2812 8.297,-7.2812 1.766,0 3.586,0.8008 5.465,2.3633 1.902,1.5859 3.336,4.2382 4.301,7.9375 1.5,5.5976 2.25,13.4961 2.25,23.6796 0,7.5508 -0.785,13.8516 -2.348,18.8985 -1.168,3.75 -2.684,6.4023 -4.531,7.9687 -1.336,1.0664 -2.953,1.5977 -4.836,1.5977 -2.219,0 -4.184,-0.9805 -5.918,-2.9649 -2.332,-2.6992 -3.93,-6.9492 -4.781,-12.75 -0.852,-5.7968 -1.266,-11.5 -1.266,-17.1289" /><path
         id="path60"
         style="fill:#231f20;fill-opacity:1;fill-rule:nonzero;stroke:none"
         d="m 500.496,30.2695 -4.633,-12.75 h -39.066 v 1.8008 c 11.484,10.4844 19.582,19.0508 24.265,25.6836 4.684,6.6523 7.032,12.7188 7.032,18.2149 0,4.2031 -1.282,7.6523 -3.864,10.3515 -2.566,2.6992 -5.632,4.0508 -9.218,4.0508 -3.262,0 -6.18,-0.9492 -8.766,-2.8516 -2.582,-1.8984 -4.5,-4.6992 -5.73,-8.3672 h -1.817 c 0.817,6.0196 2.899,10.6329 6.281,13.8672 3.368,3.2188 7.567,4.8321 12.618,4.8321 5.367,0 9.847,-1.7305 13.449,-5.1836 3.598,-3.4492 5.398,-7.5157 5.398,-12.1953 0,-3.3516 -0.781,-6.7188 -2.347,-10.0704 -2.403,-5.2656 -6.317,-10.8476 -11.719,-16.75 -8.098,-8.8476 -13.164,-14.1796 -15.184,-16.0156 h 17.285 c 3.516,0 5.981,0.1328 7.399,0.4024 1.418,0.2461 2.703,0.7812 3.832,1.582 1.133,0.8008 2.137,1.9336 2.984,3.3984 h 1.801" /><path
         id="path62"
         style="fill:#231f20;fill-opacity:1;fill-rule:nonzero;stroke:none"
         d="m 1540,70.4219 16.12,7.8672 h 1.61 V 22.375 c 0,-3.7031 0.15,-6.0195 0.45,-6.9336 0.32,-0.9023 0.97,-1.6016 1.94,-2.1016 0.98,-0.4843 2.97,-0.7656 5.96,-0.832 V 10.707 h -24.91 v 1.8008 c 3.13,0.0664 5.15,0.332 6.06,0.8164 0.9,0.4649 1.54,1.0977 1.9,1.8985 0.35,0.8007 0.54,3.1835 0.54,7.1523 v 35.75 c 0,4.8125 -0.17,7.8984 -0.49,9.2656 -0.23,1.0469 -0.64,1.8164 -1.25,2.2969 -0.6,0.4844 -1.31,0.7344 -2.16,0.7344 -1.2,0 -2.88,-0.5 -5.04,-1.5157 l -0.73,1.5157" /><path
         id="path64"
         style="fill:#231f20;fill-opacity:1;fill-rule:nonzero;stroke:none"
         d="m 1581.9,43.4219 c 0,7.5508 1.14,14.0508 3.42,19.5 2.28,5.4531 5.3,9.5156 9.08,12.1836 2.93,2.1172 5.95,3.1836 9.08,3.1836 5.07,0 9.64,-2.6016 13.67,-7.7657 5.05,-6.4179 7.57,-15.1015 7.57,-26.0859 0,-7.6797 -1.1,-14.1992 -3.32,-19.5625 -2.22,-5.3828 -5.03,-9.2852 -8.47,-11.7031 -3.43,-2.4336 -6.75,-3.63284 -9.95,-3.63284 -6.3,0 -11.56,3.71874 -15.76,11.18364 -3.55,6.2812 -5.32,13.8515 -5.32,22.6992 z m 9.57,-1.2149 c 0,-9.1172 1.12,-16.5664 3.37,-22.3164 1.84,-4.8515 4.62,-7.2851 8.29,-7.2851 1.77,0 3.59,0.8007 5.47,2.3672 1.9,1.5859 3.33,4.2343 4.3,7.9335 1.5,5.5977 2.25,13.5 2.25,23.6836 0,7.5469 -0.79,13.8477 -2.35,18.8985 -1.17,3.75 -2.68,6.3984 -4.53,7.9687 -1.34,1.0664 -2.95,1.5977 -4.84,1.5977 -2.22,0 -4.18,-0.9844 -5.91,-2.9649 -2.34,-2.7031 -3.93,-6.9492 -4.79,-12.75 -0.85,-5.8007 -1.26,-11.5 -1.26,-17.1328" /><path
         id="path66"
         style="fill:#231f20;fill-opacity:1;fill-rule:nonzero;stroke:none"
         d="m 1935.3,25.9062 -4.64,-12.75 h -39.07 v 1.8008 c 11.49,10.4805 19.59,19.0469 24.27,25.6836 4.68,6.6485 7.03,12.7149 7.03,18.2149 0,4.1992 -1.28,7.6484 -3.86,10.3476 -2.57,2.7031 -5.64,4.0508 -9.22,4.0508 -3.26,0 -6.18,-0.9492 -8.76,-2.8477 -2.59,-1.9023 -4.5,-4.6992 -5.74,-8.3671 h -1.81 c 0.81,6.0156 2.9,10.6328 6.28,13.8671 3.36,3.2149 7.57,4.8321 12.61,4.8321 5.38,0 9.86,-1.7305 13.45,-5.1836 3.61,-3.4492 5.41,-7.5156 5.41,-12.1992 0,-3.3516 -0.79,-6.7188 -2.36,-10.0664 -2.39,-5.2696 -6.31,-10.8477 -11.71,-16.75 -8.1,-8.8516 -13.17,-14.1836 -15.18,-16.0157 h 17.28 c 3.52,0 5.98,0.1328 7.4,0.3985 1.42,0.25 2.7,0.7812 3.83,1.582 1.13,0.8008 2.13,1.9375 2.99,3.4023 h 1.8" /><path
         id="path68"
         style="fill:#231f20;fill-opacity:1;fill-rule:nonzero;stroke:none"
         d="m 1943.06,45.8711 c 0,7.5508 1.14,14.0508 3.42,19.5 2.28,5.4531 5.3,9.5156 9.08,12.1836 2.94,2.1172 5.95,3.1836 9.08,3.1836 5.07,0 9.64,-2.5977 13.67,-7.7656 5.05,-6.418 7.57,-15.1016 7.57,-26.086 0,-7.6797 -1.1,-14.1992 -3.32,-19.5625 -2.21,-5.3828 -5.03,-9.2851 -8.46,-11.7031 -3.44,-2.4297 -6.75,-3.6328 -9.95,-3.6328 -6.31,0 -11.57,3.7187 -15.77,11.1836 -3.55,6.2812 -5.32,13.8515 -5.32,22.6992 z m 9.57,-1.2149 c 0,-9.1171 1.12,-16.5664 3.37,-22.3164 1.84,-4.8515 4.63,-7.2851 8.3,-7.2851 1.76,0 3.58,0.8008 5.46,2.3672 1.9,1.5859 3.33,4.2343 4.3,7.9336 1.5,5.5976 2.25,13.5 2.25,23.6836 0,7.5468 -0.78,13.8476 -2.35,18.8984 -1.16,3.75 -2.68,6.3984 -4.53,7.9687 -1.34,1.0665 -2.95,1.5977 -4.84,1.5977 -2.21,0 -4.18,-0.9844 -5.91,-2.9648 -2.33,-2.7032 -3.93,-6.9493 -4.78,-12.75 -0.85,-5.8008 -1.27,-11.5 -1.27,-17.1329" /><path
         id="path70"
         style="fill:#231f20;fill-opacity:1;fill-rule:nonzero;stroke:none"
         d="m 2253.99,70.1797 c 1.89,4.4492 4.27,7.8984 7.15,10.3125 2.89,2.4375 6.47,3.6523 10.77,3.6523 5.3,0 9.37,-1.7304 12.2,-5.1836 2.15,-2.5664 3.23,-5.3164 3.23,-8.25 0,-4.8164 -3.03,-9.7968 -9.08,-14.9336 4.07,-1.6015 7.13,-3.8828 9.22,-6.8476 2.08,-2.9492 3.13,-6.4336 3.13,-10.4492 0,-5.7188 -1.82,-10.6836 -5.47,-14.8867 -4.75,-5.4649 -11.63,-8.1993 -20.65,-8.1993 -4.46,0 -7.49,0.5508 -9.11,1.6524 -1.6,1.1133 -2.42,2.3008 -2.42,3.5664 0,0.9492 0.38,1.7812 1.15,2.5 0.77,0.7187 1.68,1.0664 2.77,1.0664 0.8,0 1.63,-0.1328 2.48,-0.3828 0.55,-0.168 1.8,-0.7696 3.76,-1.7852 1.96,-1.0312 3.31,-1.6328 4.06,-1.832 1.2,-0.3672 2.48,-0.5313 3.85,-0.5313 3.31,0 6.21,1.2813 8.67,3.8477 2.46,2.5664 3.68,5.6133 3.68,9.1328 0,2.5664 -0.57,5.082 -1.7,7.5156 -0.85,1.8203 -1.79,3.2032 -2.79,4.1524 -1.39,1.2969 -3.32,2.4843 -5.77,3.5312 -2.42,1.0703 -4.92,1.6016 -7.46,1.6016 h -1.57 v 1.4648 c 2.57,0.3164 5.15,1.25 7.74,2.7852 2.6,1.5156 4.48,3.3672 5.65,5.5156 1.16,2.1524 1.75,4.5 1.75,7.0664 0,3.3672 -1.05,6.0664 -3.15,8.1328 -2.1,2.0703 -4.7,3.1016 -7.84,3.1016 -5.04,0 -9.25,-2.6992 -12.65,-8.0977 l -1.6,0.7813" /><path
         id="path72"
         style="fill:#231f20;fill-opacity:1;fill-rule:nonzero;stroke:none"
         d="m 2302.53,49.2812 c 0,7.5469 1.13,14.0469 3.41,19.4961 2.29,5.4532 5.3,9.5157 9.09,12.1836 2.93,2.1172 5.95,3.1836 9.08,3.1836 5.07,0 9.64,-2.5976 13.67,-7.7656 5.05,-6.418 7.56,-15.1016 7.56,-26.0859 0,-7.6797 -1.1,-14.1953 -3.31,-19.5625 -2.22,-5.3828 -5.04,-9.2852 -8.47,-11.7032 -3.43,-2.4296 -6.75,-3.6328 -9.95,-3.6328 -6.3,0 -11.57,3.7188 -15.77,11.1836 -3.55,6.2852 -5.31,13.8516 -5.31,22.7031 z m 9.56,-1.2187 c 0,-9.1172 1.12,-16.5664 3.37,-22.3164 1.85,-4.8477 4.63,-7.2852 8.3,-7.2852 1.77,0 3.58,0.8047 5.47,2.3672 1.89,1.586 3.33,4.2344 4.3,7.9336 1.5,5.5977 2.25,13.5 2.25,23.6836 0,7.5508 -0.79,13.8516 -2.35,18.8985 -1.17,3.75 -2.69,6.4023 -4.54,7.9687 -1.33,1.0664 -2.94,1.5977 -4.83,1.5977 -2.22,0 -4.18,-0.9844 -5.92,-2.9649 -2.33,-2.6992 -3.93,-6.9492 -4.78,-12.75 -0.85,-5.8008 -1.27,-11.5 -1.27,-17.1328" /><path
         id="path74"
         style="fill:#231f20;fill-opacity:1;fill-rule:nonzero;stroke:none"
         d="m 1402.88,223.648 0.67,1.817 h 23.64 c 3.97,0 7.5,-0.617 10.62,-1.871 3.1,-1.231 5.43,-2.946 6.98,-5.164 1.55,-2.215 2.32,-4.567 2.32,-7.035 0,-3.813 -1.39,-7.247 -4.14,-10.333 -2.75,-3.066 -7.23,-5.347 -13.45,-6.8 4.02,-1.496 6.96,-3.481 8.86,-5.965 1.88,-2.465 2.83,-5.184 2.83,-8.149 0,-3.285 -0.85,-6.433 -2.55,-9.433 -1.69,-2.985 -3.87,-5.317 -6.52,-6.965 -2.65,-1.668 -5.85,-2.887 -9.6,-3.668 -2.67,-0.551 -6.83,-0.836 -12.5,-0.836 h -24.27 l 0.64,1.801 c 2.55,0.07 4.26,0.316 5.18,0.734 1.3,0.567 2.23,1.297 2.79,2.199 0.78,1.235 1.81,4.067 3.11,8.5 l 11.87,40.082 c 1.02,3.387 1.51,5.766 1.51,7.137 0,1.199 -0.44,2.149 -1.33,2.848 -0.9,0.699 -2.6,1.047 -5.11,1.047 -0.55,0 -1.07,0.019 -1.55,0.054 z m 9.89,-27.484 c 2.12,-0.066 3.65,-0.102 4.6,-0.102 6.77,0 11.8,1.469 15.12,4.418 3.3,2.95 4.95,6.633 4.95,11.067 0,3.348 -1.02,5.965 -3.03,7.832 -2.02,1.867 -5.24,2.801 -9.67,2.801 -1.17,0 -2.67,-0.184 -4.48,-0.582 z m -9.61,-32.617 c 3.52,-0.469 6.27,-0.684 8.25,-0.684 5.08,0 9.58,1.535 13.5,4.586 3.93,3.067 5.88,7.215 5.88,12.449 0,4 -1.2,7.133 -3.63,9.383 -2.42,2.25 -6.34,3.367 -11.73,3.367 -1.05,0 -2.32,-0.05 -3.82,-0.152 l -8.45,-28.949" /><path
         id="path76"
         style="fill:#231f20;fill-opacity:1;fill-rule:nonzero;stroke:none"
         d="m 1798.99,225.137 -4.93,-21.43 h -1.77 l -0.18,5.383 c -0.17,1.949 -0.55,3.68 -1.13,5.215 -0.59,1.531 -1.47,2.851 -2.64,3.984 -1.16,1.113 -2.65,2 -4.45,2.633 -1.78,0.633 -3.77,0.949 -5.95,0.949 -5.83,0 -10.91,-1.601 -15.28,-4.785 -5.57,-4.063 -9.93,-9.816 -13.09,-17.231 -2.59,-6.117 -3.91,-12.316 -3.91,-18.601 0,-6.418 1.88,-11.531 5.61,-15.363 3.75,-3.821 8.62,-5.735 14.61,-5.735 4.53,0 8.56,1.016 12.08,3.032 3.53,2.019 6.82,5.117 9.85,9.316 h 2.28 c -3.57,-5.699 -7.55,-9.883 -11.9,-12.566 -4.37,-2.684 -9.6,-4.032 -15.68,-4.032 -5.4,0 -10.19,1.133 -14.35,3.399 -4.17,2.265 -7.35,5.433 -9.52,9.55 -2.18,4.102 -3.28,8.5 -3.28,13.235 0,7.215 1.95,14.25 5.82,21.082 3.86,6.832 9.18,12.215 15.93,16.113 6.77,3.903 13.57,5.852 20.45,5.852 3.21,0 6.83,-0.746 10.83,-2.282 1.75,-0.652 3.04,-0.984 3.8,-0.984 0.78,0 1.47,0.164 2.07,0.484 0.58,0.333 1.55,1.266 2.92,2.782 h 1.81" /><path
         id="path78"
         style="fill:#231f20;fill-opacity:1;fill-rule:nonzero;stroke:none"
         d="m 2108.98,220.152 0.59,1.817 h 21.14 c 8.96,0 15.59,-1.035 19.89,-3.086 4.32,-2.047 7.77,-5.281 10.33,-9.68 2.57,-4.418 3.87,-9.152 3.87,-14.199 0,-4.316 -0.75,-8.535 -2.23,-12.617 -1.49,-4.086 -3.15,-7.352 -5.03,-9.817 -1.87,-2.453 -4.74,-5.168 -8.62,-8.136 -3.87,-2.946 -8.07,-5.149 -12.58,-6.563 -4.54,-1.418 -10.19,-2.117 -16.96,-2.117 h -28.03 l 0.63,1.797 c 2.59,0.07 4.31,0.301 5.19,0.683 1.3,0.567 2.26,1.321 2.88,2.25 0.93,1.368 2,4.118 3.17,8.25 l 11.71,40.051 c 0.92,3.149 1.37,5.633 1.37,7.418 0,1.266 -0.42,2.246 -1.26,2.93 -0.86,0.683 -2.5,1.019 -4.99,1.019 z m 17.34,-1.851 -14.35,-49.567 c -1.08,-3.699 -1.62,-5.996 -1.62,-6.882 0,-0.516 0.17,-1.016 0.52,-1.516 0.33,-0.484 0.8,-0.801 1.38,-0.969 0.85,-0.297 2.22,-0.449 4.1,-0.449 5.12,0 9.87,0.531 14.23,1.602 4.39,1.05 7.97,2.617 10.77,4.699 3.99,3.035 7.15,7.199 9.54,12.5 2.36,5.316 3.54,11.347 3.54,18.117 0,7.648 -1.81,13.348 -5.46,17.062 -3.63,3.735 -8.97,5.602 -15.97,5.602 -1.71,0 -3.95,-0.066 -6.68,-0.199" /><path
         id="path80"
         style="fill:none;stroke:#231f20;stroke-width:7.5005002;stroke-linecap:butt;stroke-linejoin:miter;stroke-miterlimit:2.61310005;stroke-dasharray:none;stroke-opacity:1"
         d="M 138.66,146.625 V 101.02" /><path
         id="path82"
         style="fill:#231f20;fill-opacity:1;fill-rule:nonzero;stroke:none"
         d="m 40.0469,48.7695 h 52.6484 v 4 H 40.0469 Z" /><path
         id="path84"
         style="fill:#231f20;fill-opacity:1;fill-rule:nonzero;stroke:none"
         d="m 148.262,50.2383 c 0,7.5469 1.136,14.0469 3.418,19.5 2.285,5.4492 5.3,9.5156 9.086,12.1836 2.929,2.1172 5.949,3.1797 9.082,3.1797 5.062,0 9.632,-2.5977 13.664,-7.7657 5.05,-6.4179 7.566,-15.0976 7.566,-26.082 0,-7.6836 -1.098,-14.1992 -3.316,-19.5664 -2.215,-5.3828 -5.032,-9.2813 -8.465,-11.6992 -3.434,-2.4336 -6.75,-3.6367 -9.949,-3.6367 -6.301,0 -11.571,3.7187 -15.766,11.1875 -3.551,6.2812 -5.32,13.8476 -5.32,22.6992 z m 9.57,-1.2149 c 0,-9.1211 1.113,-16.5703 3.367,-22.3203 1.848,-4.8476 4.629,-7.2812 8.297,-7.2812 1.766,0 3.586,0.8008 5.465,2.3633 1.902,1.5859 3.336,4.2382 4.301,7.9375 1.5,5.5976 2.25,13.4961 2.25,23.6796 0,7.5508 -0.785,13.8516 -2.348,18.8985 -1.168,3.75 -2.684,6.4023 -4.531,7.9687 -1.336,1.0664 -2.953,1.5977 -4.836,1.5977 -2.219,0 -4.184,-0.9805 -5.918,-2.9649 -2.332,-2.6992 -3.93,-6.9492 -4.781,-12.75 -0.852,-5.7968 -1.266,-11.5 -1.266,-17.1289" /><path
         id="path86"
         style="fill:#231f20;fill-opacity:1;fill-rule:nonzero;stroke:none"
         d="m 99.7305,71.1367 c 1.8825,4.4492 4.2655,7.9024 7.1525,10.3164 2.883,2.4336 6.465,3.6485 10.765,3.6485 5.301,0 9.364,-1.7305 12.2,-5.1836 2.148,-2.5664 3.234,-5.3125 3.234,-8.2461 0,-4.8164 -3.035,-9.8008 -9.086,-14.9336 4.066,-1.6016 7.137,-3.8828 9.219,-6.8516 2.082,-2.9492 3.133,-6.4336 3.133,-10.4492 0,-5.7187 -1.817,-10.6836 -5.469,-14.8828 -4.75,-5.4649 -11.633,-8.2031 -20.649,-8.2031 -4.464,0 -7.5,0.5507 -9.117,1.6523 -1.5974,1.1172 -2.4138,2.3008 -2.4138,3.5664 0,0.9492 0.3828,1.7852 1.1446,2.5 0.7692,0.7188 1.6872,1.0664 2.7692,1.0664 0.801,0 1.633,-0.1328 2.485,-0.3828 0.55,-0.168 1.8,-0.7656 3.765,-1.7812 1.949,-1.0352 3.301,-1.6368 4.051,-1.836 1.199,-0.3633 2.481,-0.5312 3.848,-0.5312 3.316,0 6.218,1.2812 8.668,3.8476 2.468,2.5664 3.683,5.6172 3.683,9.1328 0,2.5664 -0.566,5.0821 -1.703,7.5196 -0.844,1.8164 -1.781,3.1992 -2.777,4.1484 -1.403,1.2969 -3.321,2.4844 -5.77,3.5313 -2.433,1.0703 -4.933,1.6015 -7.465,1.6015 h -1.57 v 1.4649 c 2.57,0.3203 5.152,1.25 7.738,2.7851 2.598,1.5156 4.481,3.3672 5.649,5.5156 1.164,2.1524 1.75,4.5039 1.75,7.0665 0,3.3671 -1.051,6.0664 -3.153,8.1328 -2.097,2.0703 -4.699,3.1015 -7.832,3.1015 -5.05,0 -9.25,-2.6992 -12.648,-8.0976 l -1.6015,0.7812" /></g></g></svg>