<?xml version="1.0" encoding="UTF-8" standalone="no"?>
<svg
   xmlns:dc="http://purl.org/dc/elements/1.1/"
   xmlns:cc="http://creativecommons.org/ns#"
   xmlns:rdf="http://www.w3.org/1999/02/22-rdf-syntax-ns#"
   xmlns:svg="http://www.w3.org/2000/svg"
   xmlns="http://www.w3.org/2000/svg"
   viewBox="0 0 246.66667 29.333332"
   height="29.333332"
   width="246.66667"
   xml:space="preserve"
   id="svg2"
   version="1.1"><metadata
     id="metadata8"><rdf:RDF><cc:Work
         rdf:about=""><dc:format>image/svg+xml</dc:format><dc:type
           rdf:resource="http://purl.org/dc/dcmitype/StillImage" /></cc:Work></rdf:RDF></metadata><defs
     id="defs6" /><g
     transform="matrix(1.3333333,0,0,-1.3333333,0,29.333333)"
     id="g10"><g
       transform="scale(0.1)"
       id="g12"><path
         id="path14"
         style="fill:#231f20;fill-opacity:1;fill-rule:evenodd;stroke:none"
         d="m 155.359,152.082 c 7.512,0 13.598,-6.09 13.598,-13.598 0,-7.511 -6.086,-13.597 -13.598,-13.597 -7.507,0 -13.597,6.086 -13.597,13.597 0,7.508 6.09,13.598 13.597,13.598" /><path
         id="path16"
         style="fill:none;stroke:#231f20;stroke-width:7.5005002;stroke-linecap:butt;stroke-linejoin:miter;stroke-miterlimit:2.61310005;stroke-dasharray:none;stroke-opacity:1"
         d="m 155.359,152.082 c 7.512,0 13.598,-6.09 13.598,-13.598 0,-7.511 -6.086,-13.597 -13.598,-13.597 -7.507,0 -13.597,6.086 -13.597,13.597 0,7.508 6.09,13.598 13.597,13.598 z" /><path
         id="path18"
         style="fill:#231f20;fill-opacity:1;fill-rule:evenodd;stroke:none"
         d="m 1220.07,151.188 c 7.51,0 13.6,-6.09 13.6,-13.598 0,-7.508 -6.09,-13.598 -13.6,-13.598 -7.51,0 -13.6,6.09 -13.6,13.598 0,7.508 6.09,13.598 13.6,13.598" /><path
         id="path20"
         style="fill:none;stroke:#231f20;stroke-width:7.5005002;stroke-linecap:butt;stroke-linejoin:miter;stroke-miterlimit:2.61310005;stroke-dasharray:none;stroke-opacity:1"
         d="m 1220.07,151.188 c 7.51,0 13.6,-6.09 13.6,-13.598 0,-7.508 -6.09,-13.598 -13.6,-13.598 -7.51,0 -13.6,6.09 -13.6,13.598 0,7.508 6.09,13.598 13.6,13.598 z" /><path
         id="path22"
         style="fill:#231f20;fill-opacity:1;fill-rule:nonzero;stroke:none"
         d="m 150.328,219.641 -6.348,-22.016 c 2.832,5.184 5.235,9.063 7.231,11.664 3.086,4.035 6.101,6.965 9.035,8.801 1.715,1.035 3.516,1.551 5.418,1.551 1.617,0 2.965,-0.516 4.047,-1.551 1.07,-1.051 1.617,-2.383 1.617,-4.016 0,-1.582 -0.379,-3.668 -1.133,-6.25 l -3.465,-12.398 c 5.317,9.929 10.332,16.898 15.082,20.898 2.649,2.215 5.25,3.317 7.817,3.317 1.5,0 2.734,-0.5 3.683,-1.536 0.965,-1.015 1.45,-2.617 1.45,-4.765 0,-1.883 -0.297,-3.883 -0.883,-6 l -5.367,-19 c -1.184,-4.133 -1.766,-6.418 -1.766,-6.883 0,-0.449 0.149,-0.832 0.449,-1.168 0.184,-0.23 0.45,-0.332 0.785,-0.332 0.317,0 0.883,0.301 1.7,0.918 1.851,1.434 3.597,3.316 5.234,5.664 l 1.598,-1.016 c -0.817,-1.316 -2.25,-3.097 -4.317,-5.382 -2.066,-2.266 -3.832,-3.817 -5.3,-4.633 -1.465,-0.817 -2.817,-1.219 -4.047,-1.219 -1.133,0 -2.102,0.387 -2.852,1.168 -0.766,0.781 -1.148,1.731 -1.148,2.883 0,1.566 0.664,4.699 2,9.418 l 4.429,15.683 c 1.02,3.618 1.551,5.614 1.618,6 0.101,0.614 0.152,1.215 0.152,1.801 0,0.817 -0.184,1.449 -0.535,1.914 -0.399,0.453 -0.832,0.684 -1.317,0.684 -1.363,0 -2.816,-0.699 -4.347,-2.102 -4.5,-4.133 -8.703,-9.929 -12.602,-17.379 -2.566,-4.918 -4.984,-11.218 -7.234,-18.902 h -7.364 l 8.348,29.535 c 0.918,3.199 1.367,5.332 1.367,6.399 0,0.882 -0.183,1.531 -0.535,1.949 -0.363,0.433 -0.797,0.652 -1.312,0.652 -1.086,0 -2.219,-0.402 -3.422,-1.187 -1.965,-1.266 -4.465,-3.981 -7.547,-8.149 -3.086,-4.168 -5.469,-8.148 -7.149,-11.965 -0.82,-1.785 -2.753,-7.535 -5.816,-17.234 h -7.219 l 9.032,31.633 1.167,4.117 c 0.235,0.613 0.336,1.066 0.336,1.367 0,0.715 -0.316,1.348 -0.968,1.914 -0.653,0.567 -1.485,0.867 -2.5,0.867 -0.414,0 -1.582,-0.199 -3.516,-0.597 l -0.434,1.816 16.848,3.067" /><path
         id="path24"
         style="fill:none;stroke:#231f20;stroke-width:7.5005002;stroke-linecap:butt;stroke-linejoin:miter;stroke-miterlimit:2.61310005;stroke-dasharray:none;stroke-opacity:1"
         d="M 2.61719,137.543 H 1800.36" /><path
         id="path26"
         style="fill:#231f20;fill-opacity:1;fill-rule:evenodd;stroke:none"
         d="m 1796.21,163.891 47.9,-26.348 -47.9,-26.348 v 52.696" /><path
         id="path28"
         style="fill:#231f20;fill-opacity:1;fill-rule:nonzero;stroke:none"
         d="m 1227.04,216.566 -6.49,-22.214 c 6.09,9.082 10.75,15.066 13.99,17.933 3.23,2.848 6.35,4.281 9.35,4.281 1.63,0 2.97,-0.531 4.03,-1.597 1.05,-1.086 1.58,-2.485 1.58,-4.199 0,-1.954 -0.46,-4.567 -1.41,-7.821 l -5.95,-20.547 c -0.7,-2.382 -1.03,-3.836 -1.03,-4.351 0,-0.449 0.13,-0.832 0.38,-1.153 0.26,-0.312 0.55,-0.464 0.83,-0.464 0.4,0 0.87,0.218 1.42,0.632 1.73,1.368 3.62,3.45 5.67,6.25 l 1.51,-0.914 c -3.03,-4.336 -5.9,-7.433 -8.6,-9.285 -1.88,-1.265 -3.58,-1.902 -5.06,-1.902 -1.22,0 -2.17,0.371 -2.88,1.101 -0.72,0.735 -1.09,1.719 -1.09,2.95 0,1.57 0.55,4.25 1.67,8.05 l 5.66,19.633 c 0.72,2.438 1.07,4.352 1.07,5.719 0,0.648 -0.22,1.18 -0.64,1.586 -0.41,0.398 -0.94,0.613 -1.56,0.613 -0.9,0 -2,-0.398 -3.27,-1.183 -2.42,-1.465 -4.92,-3.883 -7.51,-7.25 -2.6,-3.368 -5.35,-7.668 -8.25,-12.918 -1.54,-2.766 -2.8,-5.782 -3.82,-9.082 l -2.43,-8.051 h -7.34 l 8.88,30.566 c 1.06,3.688 1.57,5.903 1.57,6.633 0,0.719 -0.28,1.352 -0.85,1.887 -0.56,0.531 -1.28,0.816 -2.11,0.816 -0.4,0 -1.09,-0.07 -2.07,-0.203 l -1.85,-0.297 -0.28,1.766 16.88,3.015" /><path
         id="path30"
         style="fill:#231f20;fill-opacity:1;fill-rule:nonzero;stroke:none"
         d="m 818.773,36.3594 c 0,7.5508 1.137,14.0508 3.418,19.5 2.286,5.4531 5.301,9.5156 9.086,12.1836 2.93,2.1172 5.95,3.1836 9.082,3.1836 5.063,0 9.633,-2.5977 13.664,-7.7657 5.051,-6.4179 7.567,-15.1015 7.567,-26.0859 0,-7.6797 -1.098,-14.1992 -3.317,-19.5625 -2.214,-5.3828 -5.031,-9.28516 -8.464,-11.70312 -3.434,-2.42969 -6.75,-3.63282 -9.95,-3.63282 -6.3,0 -11.57,3.71875 -15.765,11.18364 -3.551,6.2812 -5.321,13.8515 -5.321,22.6992 z m 9.571,-1.2149 c 0,-9.1172 1.113,-16.5664 3.367,-22.3164 1.848,-4.85154 4.629,-7.28513 8.297,-7.28513 1.765,0 3.586,0.80078 5.465,2.36719 1.902,1.58593 3.336,4.23434 4.3,7.93364 1.5,5.5976 2.25,13.5 2.25,23.6835 0,7.5469 -0.785,13.8477 -2.347,18.8985 -1.168,3.75 -2.684,6.3984 -4.535,7.9687 -1.332,1.0664 -2.95,1.5977 -4.832,1.5977 -2.219,0 -4.184,-0.9844 -5.918,-2.9649 -2.332,-2.7031 -3.93,-6.9492 -4.782,-12.75 -0.851,-5.8007 -1.265,-11.5 -1.265,-17.1328" /><path
         id="path32"
         style="fill:none;stroke:#231f20;stroke-width:7.5005002;stroke-linecap:butt;stroke-linejoin:miter;stroke-miterlimit:2.61310005;stroke-dasharray:none;stroke-opacity:1"
         d="m 833.688,167.117 v -57.09" /><path
         id="path34"
         style="fill:#231f20;fill-opacity:1;fill-rule:nonzero;stroke:none"
         d="m 1330.88,63.3594 16.11,7.8672 h 1.62 V 15.3125 c 0,-3.7031 0.15,-6.01953 0.45,-6.93359 0.32,-0.90235 0.96,-1.60157 1.93,-2.10157 0.98,-0.48437 2.97,-0.76562 5.97,-0.83203 V 3.64453 h -24.92 v 1.80078 c 3.13,0.06641 5.15,0.33203 6.07,0.81641 0.9,0.46484 1.53,1.09766 1.9,1.89844 0.35,0.80078 0.53,3.18364 0.53,7.15234 v 35.75 c 0,4.8164 -0.16,7.8984 -0.48,9.2656 -0.24,1.0469 -0.65,1.8164 -1.25,2.2969 -0.6,0.4844 -1.32,0.7344 -2.17,0.7344 -1.2,0 -2.88,-0.5 -5.03,-1.5156 l -0.73,1.5156" /><path
         id="path36"
         style="fill:none;stroke:#231f20;stroke-width:7.5005002;stroke-linecap:butt;stroke-linejoin:miter;stroke-miterlimit:2.61310005;stroke-dasharray:none;stroke-opacity:1"
         d="m 1337.69,167.117 v -57.09" /></g></g></svg>