<?xml version="1.0" encoding="UTF-8" standalone="no"?>
<svg
   xmlns:dc="http://purl.org/dc/elements/1.1/"
   xmlns:cc="http://creativecommons.org/ns#"
   xmlns:rdf="http://www.w3.org/1999/02/22-rdf-syntax-ns#"
   xmlns:svg="http://www.w3.org/2000/svg"
   xmlns="http://www.w3.org/2000/svg"
   viewBox="0 0 258.66666 34.666668"
   height="34.666668"
   width="258.66666"
   xml:space="preserve"
   id="svg2"
   version="1.1"><metadata
     id="metadata8"><rdf:RDF><cc:Work
         rdf:about=""><dc:format>image/svg+xml</dc:format><dc:type
           rdf:resource="http://purl.org/dc/dcmitype/StillImage" /></cc:Work></rdf:RDF></metadata><defs
     id="defs6"><clipPath
       id="clipPath20"
       clipPathUnits="userSpaceOnUse"><path
         style="clip-rule:evenodd"
         id="path18"
         d="M 8.69141,159.773 H 1929.58 V 120.715 H 8.69141 Z" /></clipPath></defs><g
     transform="matrix(1.3333333,0,0,-1.3333333,0,34.666667)"
     id="g10"><g
       transform="scale(0.1)"
       id="g12"><g
         id="g14"><g
           clip-path="url(#clipPath20)"
           id="g16"><path
             id="path22"
             style="fill:none;stroke:#231f20;stroke-width:3.5999999;stroke-linecap:butt;stroke-linejoin:miter;stroke-miterlimit:2.61310005;stroke-dasharray:none;stroke-opacity:1"
             d="m 187.949,-820.73 v 1922.1" /><path
             id="path24"
             style="fill:none;stroke:#231f20;stroke-width:3.5999999;stroke-linecap:butt;stroke-linejoin:miter;stroke-miterlimit:2.61310005;stroke-dasharray:none;stroke-opacity:1"
             d="m 367.949,-820.73 v 1922.1" /><path
             id="path26"
             style="fill:none;stroke:#231f20;stroke-width:3.5999999;stroke-linecap:butt;stroke-linejoin:miter;stroke-miterlimit:2.61310005;stroke-dasharray:none;stroke-opacity:1"
             d="m 547.949,-820.73 v 1922.1" /><path
             id="path28"
             style="fill:none;stroke:#231f20;stroke-width:3.5999999;stroke-linecap:butt;stroke-linejoin:miter;stroke-miterlimit:2.61310005;stroke-dasharray:none;stroke-opacity:1"
             d="m 727.949,-820.73 v 1922.1" /><path
             id="path30"
             style="fill:none;stroke:#231f20;stroke-width:3.5999999;stroke-linecap:butt;stroke-linejoin:miter;stroke-miterlimit:2.61310005;stroke-dasharray:none;stroke-opacity:1"
             d="m 907.949,-820.73 v 1922.1" /><path
             id="path32"
             style="fill:none;stroke:#231f20;stroke-width:3.5999999;stroke-linecap:butt;stroke-linejoin:miter;stroke-miterlimit:2.61310005;stroke-dasharray:none;stroke-opacity:1"
             d="m 1087.95,-820.73 v 1922.1" /><path
             id="path34"
             style="fill:none;stroke:#231f20;stroke-width:3.5999999;stroke-linecap:butt;stroke-linejoin:miter;stroke-miterlimit:2.61310005;stroke-dasharray:none;stroke-opacity:1"
             d="m 1267.95,-820.73 v 1922.1" /><path
             id="path36"
             style="fill:none;stroke:#231f20;stroke-width:3.5999999;stroke-linecap:butt;stroke-linejoin:miter;stroke-miterlimit:2.61310005;stroke-dasharray:none;stroke-opacity:1"
             d="m 1447.95,-820.73 v 1922.1" /><path
             id="path38"
             style="fill:none;stroke:#231f20;stroke-width:3.5999999;stroke-linecap:butt;stroke-linejoin:miter;stroke-miterlimit:2.61310005;stroke-dasharray:none;stroke-opacity:1"
             d="m 1627.95,-820.73 v 1922.1" /><path
             id="path40"
             style="fill:none;stroke:#231f20;stroke-width:3.5999999;stroke-linecap:butt;stroke-linejoin:miter;stroke-miterlimit:2.61310005;stroke-dasharray:none;stroke-opacity:1"
             d="m 1807.95,-820.73 v 1922.1" /></g></g><path
         id="path42"
         style="fill:#231f20;fill-opacity:1;fill-rule:nonzero;stroke:none"
         d="m 1060.03,75.4727 16.11,7.8632 h 1.62 v -55.914 c 0,-3.7031 0.15,-6.0196 0.45,-6.9336 0.32,-0.9024 0.97,-1.6016 1.93,-2.1016 0.98,-0.4844 2.97,-0.7656 5.97,-0.832 v -1.8008 h -24.91 v 1.8008 c 3.12,0.0664 5.14,0.3359 6.06,0.8164 0.9,0.4687 1.53,1.0977 1.9,1.8984 0.35,0.8008 0.54,3.1836 0.54,7.1524 v 35.75 c 0,4.8164 -0.17,7.8984 -0.49,9.2656 -0.23,1.0508 -0.65,1.8164 -1.25,2.3008 -0.6,0.4844 -1.32,0.7344 -2.17,0.7344 -1.2,0 -2.88,-0.5039 -5.03,-1.5196 l -0.73,1.5196" /><path
         id="path44"
         style="fill:#231f20;fill-opacity:1;fill-rule:evenodd;stroke:none"
         d="m 221.387,158.574 c 7.511,0 13.597,-6.086 13.597,-13.597 0,-7.508 -6.086,-13.598 -13.597,-13.598 -7.508,0 -13.598,6.09 -13.598,13.598 0,7.511 6.09,13.597 13.598,13.597" /><path
         id="path46"
         style="fill:none;stroke:#231f20;stroke-width:7.5005002;stroke-linecap:butt;stroke-linejoin:miter;stroke-miterlimit:2.61310005;stroke-dasharray:none;stroke-opacity:1"
         d="m 221.387,158.574 c 7.511,0 13.597,-6.086 13.597,-13.597 0,-7.508 -6.086,-13.598 -13.597,-13.598 -7.508,0 -13.598,6.09 -13.598,13.598 0,7.511 6.09,13.597 13.598,13.597 z" /><path
         id="path48"
         style="fill:#231f20;fill-opacity:1;fill-rule:evenodd;stroke:none"
         d="m 1670.07,159.188 c 7.51,0 13.6,-6.09 13.6,-13.598 0,-7.508 -6.09,-13.598 -13.6,-13.598 -7.51,0 -13.6,6.09 -13.6,13.598 0,7.508 6.09,13.598 13.6,13.598" /><path
         id="path50"
         style="fill:none;stroke:#231f20;stroke-width:7.5005002;stroke-linecap:butt;stroke-linejoin:miter;stroke-miterlimit:2.61310005;stroke-dasharray:none;stroke-opacity:1"
         d="m 1670.07,159.188 c 7.51,0 13.6,-6.09 13.6,-13.598 0,-7.508 -6.09,-13.598 -13.6,-13.598 -7.51,0 -13.6,6.09 -13.6,13.598 0,7.508 6.09,13.598 13.6,13.598 z" /><path
         id="path52"
         style="fill:#231f20;fill-opacity:1;fill-rule:nonzero;stroke:none"
         d="m 211.496,252.891 -9.617,-33.735 c 3.137,3.25 5.851,5.485 8.183,6.684 2.333,1.199 4.77,1.801 7.301,1.801 3.582,0 6.516,-1.184 8.782,-3.551 2.285,-2.383 3.417,-5.598 3.417,-9.68 0,-5.238 -1.484,-10.453 -4.48,-15.652 -3.004,-5.184 -6.754,-9.235 -11.285,-12.133 -4.516,-2.883 -8.985,-4.336 -13.383,-4.336 -4.918,0 -9.949,1.836 -15.133,5.52 l 14.848,51.117 c 1.137,3.929 1.699,6.246 1.699,6.929 0,0.852 -0.25,1.485 -0.766,1.903 -0.75,0.597 -1.863,0.883 -3.332,0.883 -0.683,0 -1.718,-0.118 -3.117,-0.332 v 1.847 z m -18.883,-65.618 c 3.25,-1.8 6.117,-2.699 8.582,-2.699 2.867,0 5.836,1.051 8.918,3.149 3.082,2.101 5.75,5.652 8,10.632 2.266,4.969 3.399,10 3.399,15.086 0,3 -0.731,5.332 -2.215,7.036 -1.485,1.683 -3.235,2.531 -5.25,2.531 -3.035,0 -6,-1.219 -8.887,-3.633 -2.898,-2.434 -4.965,-5.801 -6.199,-10.133 l -6.348,-21.969" /><path
         id="path54"
         style="fill:#231f20;fill-opacity:1;fill-rule:nonzero;stroke:none"
         d="M 562.109,20.9648 557.473,8.21484 h -39.067 v 1.80076 c 11.489,10.4805 19.586,19.0469 24.27,25.6836 4.679,6.6485 7.031,12.7149 7.031,18.2149 0,4.1992 -1.281,7.6484 -3.867,10.3476 -2.563,2.7031 -5.633,4.0508 -9.215,4.0508 -3.266,0 -6.184,-0.9492 -8.766,-2.8477 -2.582,-1.9023 -4.5,-4.6992 -5.734,-8.3671 h -1.816 c 0.816,6.0156 2.902,10.6328 6.281,13.8671 3.367,3.2149 7.57,4.8321 12.617,4.8321 5.371,0 9.852,-1.7305 13.449,-5.1836 3.602,-3.4492 5.403,-7.5156 5.403,-12.1992 0,-3.3516 -0.782,-6.7188 -2.352,-10.0664 C 553.309,43.0781 549.391,37.5 543.992,31.5977 535.891,22.7461 530.824,17.4141 528.809,15.582 h 17.285 c 3.515,0 5.98,0.1328 7.398,0.3985 1.418,0.25 2.699,0.7812 3.832,1.582 1.133,0.8008 2.133,1.9375 2.985,3.4023 h 1.8" /><path
         id="path56"
         style="fill:none;stroke:#231f20;stroke-width:7.5005002;stroke-linecap:butt;stroke-linejoin:miter;stroke-miterlimit:2.61310005;stroke-dasharray:none;stroke-opacity:1"
         d="M 92.6172,145.543 H 1890.36" /><path
         id="path58"
         style="fill:#231f20;fill-opacity:1;fill-rule:evenodd;stroke:none"
         d="m 1886.21,171.891 47.9,-26.348 -47.9,-26.348 v 52.696" /><path
         id="path60"
         style="fill:#231f20;fill-opacity:1;fill-rule:nonzero;stroke:none"
         d="m 877.52,49.9883 c 0,7.5469 1.132,14.0469 3.418,19.5 2.281,5.4492 5.3,9.5156 9.082,12.1797 2.933,2.1211 5.949,3.1836 9.082,3.1836 5.066,0 9.636,-2.5977 13.668,-7.7657 5.05,-6.4179 7.566,-15.1015 7.566,-26.082 0,-7.6836 -1.098,-14.1992 -3.316,-19.5664 -2.215,-5.3828 -5.036,-9.2813 -8.465,-11.6992 -3.434,-2.4336 -6.75,-3.6367 -9.95,-3.6367 -6.304,0 -11.57,3.7187 -15.769,11.1875 -3.551,6.2812 -5.316,13.8476 -5.316,22.6992 z m 9.566,-1.2188 c 0,-9.1172 1.117,-16.5664 3.367,-22.3164 1.848,-4.8476 4.633,-7.2851 8.301,-7.2851 1.766,0 3.582,0.8047 5.465,2.3672 1.898,1.5859 3.336,4.2343 4.301,7.9336 1.5,5.6015 2.25,13.5 2.25,23.6835 0,7.5508 -0.786,13.8516 -2.348,18.8985 -1.168,3.75 -2.688,6.4023 -4.535,7.9687 -1.336,1.0664 -2.949,1.5977 -4.836,1.5977 -2.215,0 -4.18,-0.9805 -5.914,-2.9649 -2.332,-2.6992 -3.934,-6.9492 -4.782,-12.75 -0.851,-5.7968 -1.269,-11.5 -1.269,-17.1328" /><path
         id="path62"
         style="fill:#231f20;fill-opacity:1;fill-rule:nonzero;stroke:none"
         d="m 702.609,69.4219 16.121,7.8672 h 1.614 v -55.918 c 0,-3.6992 0.152,-6.0156 0.453,-6.9336 0.316,-0.8984 0.965,-1.6016 1.93,-2.0977 0.984,-0.4843 2.968,-0.7656 5.968,-0.8359 V 9.70703 h -24.918 v 1.79687 c 3.133,0.0703 5.153,0.3359 6.067,0.8164 0.902,0.4688 1.535,1.1016 1.902,1.9024 0.348,0.8007 0.535,3.1796 0.535,7.1484 v 35.75 c 0,4.8164 -0.168,7.9023 -0.484,9.2695 -0.235,1.0469 -0.652,1.8164 -1.25,2.2969 -0.602,0.4844 -1.317,0.7344 -2.168,0.7344 -1.203,0 -2.883,-0.5 -5.035,-1.5157 l -0.735,1.5157" /><path
         id="path64"
         style="fill:#231f20;fill-opacity:1;fill-rule:nonzero;stroke:none"
         d="m 1701.89,224.566 -9.52,-33.097 -1.06,-4.453 c -0.11,-0.414 -0.15,-0.762 -0.15,-1.063 0,-0.515 0.16,-0.984 0.48,-1.367 0.27,-0.301 0.58,-0.434 0.98,-0.434 0.42,0 0.97,0.25 1.65,0.766 1.28,0.949 2.97,2.898 5.09,5.867 l 1.66,-1.168 c -2.25,-3.383 -4.57,-5.969 -6.93,-7.75 -2.38,-1.765 -4.58,-2.652 -6.6,-2.652 -1.4,0 -2.45,0.351 -3.15,1.055 -0.7,0.699 -1.05,1.714 -1.05,3.046 0,1.582 0.37,3.684 1.09,6.301 l 1.01,3.653 c -4.27,-5.571 -8.19,-9.454 -11.77,-11.668 -2.57,-1.582 -5.1,-2.387 -7.57,-2.387 -2.38,0 -4.43,0.984 -6.14,2.953 -1.74,1.965 -2.59,4.684 -2.59,8.133 0,5.168 1.56,10.633 4.65,16.383 3.12,5.734 7.07,10.336 11.85,13.785 3.73,2.73 7.27,4.097 10.6,4.097 1.99,0 3.63,-0.515 4.96,-1.55 1.31,-1.047 2.31,-2.766 2.99,-5.18 l 1.77,5.562 z m -17.38,-2.531 c -2.09,0 -4.29,-0.984 -6.63,-2.937 -3.32,-2.766 -6.27,-6.864 -8.87,-12.297 -2.59,-5.434 -3.89,-10.352 -3.89,-14.75 0,-2.215 0.57,-3.969 1.67,-5.25 1.1,-1.281 2.38,-1.914 3.82,-1.914 3.53,0 7.4,2.617 11.56,7.847 5.57,6.969 8.35,14.118 8.35,21.434 0,2.766 -0.53,4.766 -1.61,6.016 -1.07,1.234 -2.54,1.851 -4.4,1.851" /><path
         id="path66"
         style="fill:none;stroke:#231f20;stroke-width:5.00029993;stroke-linecap:butt;stroke-linejoin:miter;stroke-miterlimit:2.61310005;stroke-dasharray:none;stroke-opacity:1"
         d="m 637.668,44.0508 h 52.16" /><path
         id="path68"
         style="fill:none;stroke:#231f20;stroke-width:5.00029993;stroke-linecap:butt;stroke-linejoin:miter;stroke-miterlimit:2.61310005;stroke-dasharray:none;stroke-opacity:1"
         d="m 460.887,39.4883 h 52.156" /><path
         id="path70"
         style="fill:#231f20;fill-opacity:1;fill-rule:nonzero;stroke:none"
         d="m 202.793,32.6328 v -6.9336 h -8.887 V 8.21484 H 185.84 V 25.6992 h -28.012 v 6.25 l 30.715,43.8477 h 5.363 V 32.6328 Z m -16.953,0 V 65.4961 L 162.609,32.6328 h 23.231" /><path
         id="path72"
         style="fill:none;stroke:#231f20;stroke-width:5.00029993;stroke-linecap:butt;stroke-linejoin:miter;stroke-miterlimit:2.61310005;stroke-dasharray:none;stroke-opacity:1"
         d="m 100.887,39.4883 h 52.156" /><path
         id="path74"
         style="fill:#231f20;fill-opacity:1;fill-rule:nonzero;stroke:none"
         d="m 341.836,62.5859 c 1.883,4.4532 4.266,7.9024 7.148,10.3164 2.883,2.4336 6.469,3.6524 10.77,3.6524 5.301,0 9.363,-1.7344 12.199,-5.1875 2.149,-2.5625 3.235,-5.3125 3.235,-8.2461 0,-4.8164 -3.036,-9.8008 -9.086,-14.9336 4.066,-1.6016 7.132,-3.8828 9.218,-6.8516 2.082,-2.9492 3.133,-6.4297 3.133,-10.4492 0,-5.7148 -1.816,-10.6836 -5.469,-14.8828 -4.75,-5.4648 -11.632,-8.19921 -20.652,-8.19921 -4.461,0 -7.496,0.54687 -9.113,1.65234 -1.602,1.11327 -2.418,2.29687 -2.418,3.56637 0,0.9493 0.383,1.7813 1.148,2.5 0.77,0.7149 1.684,1.0625 2.77,1.0625 0.801,0 1.633,-0.1328 2.484,-0.3828 0.551,-0.164 1.801,-0.7656 3.766,-1.7812 1.949,-1.0352 3.301,-1.6367 4.051,-1.8321 1.199,-0.3671 2.48,-0.5351 3.847,-0.5351 3.317,0 6.215,1.2812 8.668,3.8515 2.465,2.5626 3.684,5.6133 3.684,9.1329 0,2.5625 -0.567,5.082 -1.703,7.5156 -0.848,1.8164 -1.782,3.1992 -2.778,4.1484 -1.402,1.3008 -3.32,2.4844 -5.769,3.5352 -2.434,1.0664 -4.934,1.6015 -7.469,1.6015 h -1.566 v 1.4649 c 2.57,0.3164 5.152,1.25 7.734,2.7812 2.602,1.5196 4.484,3.3672 5.652,5.5157 1.164,2.1523 1.746,4.5039 1.746,7.0703 0,3.3672 -1.046,6.0625 -3.148,8.1289 -2.098,2.0703 -4.699,3.1015 -7.832,3.1015 -5.051,0 -9.25,-2.6992 -12.648,-8.0976 l -1.602,0.7812" /><path
         id="path76"
         style="fill:none;stroke:#231f20;stroke-width:5.00029993;stroke-linecap:butt;stroke-linejoin:miter;stroke-miterlimit:2.61310005;stroke-dasharray:none;stroke-opacity:1"
         d="m 281.379,40.2422 h 52.16" /><path
         id="path78"
         style="fill:#231f20;fill-opacity:1;fill-rule:nonzero;stroke:none"
         d="m 1276.98,28.5039 -4.63,-12.75 h -39.07 v 1.8008 c 11.49,10.4805 19.58,19.0469 24.27,25.6836 4.68,6.6484 7.03,12.7148 7.03,18.2148 0,4.2031 -1.28,7.6524 -3.87,10.3516 -2.56,2.6992 -5.63,4.0508 -9.21,4.0508 -3.27,0 -6.18,-0.9532 -8.77,-2.8516 -2.58,-1.9023 -4.5,-4.6992 -5.73,-8.3672 h -1.82 c 0.82,6.0195 2.9,10.6328 6.28,13.8672 3.37,3.2188 7.57,4.832 12.62,4.832 5.37,0 9.85,-1.7304 13.45,-5.1836 3.6,-3.4492 5.4,-7.5156 5.4,-12.1953 0,-3.3515 -0.78,-6.7187 -2.35,-10.0703 -2.4,-5.2656 -6.31,-10.8476 -11.72,-16.75 -8.1,-8.8476 -13.16,-14.1797 -15.18,-16.0156 h 17.28 c 3.52,0 5.99,0.1328 7.4,0.3984 1.42,0.25 2.71,0.7852 3.84,1.5821 1.13,0.8046 2.13,1.9375 2.98,3.4023 h 1.8" /><path
         id="path80"
         style="fill:#231f20;fill-opacity:1;fill-rule:nonzero;stroke:none"
         d="m 1417.53,69.3711 c 1.88,4.4492 4.26,7.8984 7.15,10.3164 2.88,2.4336 6.46,3.6484 10.77,3.6484 5.29,0 9.36,-1.7304 12.19,-5.1836 2.15,-2.5664 3.24,-5.3164 3.24,-8.25 0,-4.8164 -3.04,-9.7968 -9.09,-14.9296 4.07,-1.6016 7.14,-3.8868 9.22,-6.8516 2.08,-2.9492 3.13,-6.4336 3.13,-10.4492 0,-5.7188 -1.81,-10.6836 -5.46,-14.8867 -4.75,-5.4649 -11.64,-8.1993 -20.66,-8.1993 -4.46,0 -7.49,0.5508 -9.11,1.6524 -1.6,1.1133 -2.42,2.3008 -2.42,3.5664 0,0.9492 0.39,1.7851 1.15,2.5 0.77,0.7187 1.68,1.0664 2.77,1.0664 0.8,0 1.63,-0.1328 2.48,-0.3828 0.56,-0.168 1.81,-0.7695 3.77,-1.7813 1.95,-1.0351 3.3,-1.6367 4.05,-1.8359 1.2,-0.3672 2.48,-0.5313 3.85,-0.5313 3.32,0 6.21,1.2813 8.67,3.8477 2.46,2.5664 3.68,5.6172 3.68,9.1328 0,2.5664 -0.57,5.082 -1.7,7.5195 -0.85,1.8164 -1.78,3.1993 -2.78,4.1485 -1.4,1.2969 -3.32,2.4844 -5.77,3.5312 -2.43,1.0703 -4.93,1.6016 -7.47,1.6016 h -1.57 v 1.4648 c 2.58,0.3203 5.16,1.25 7.74,2.7852 2.6,1.5156 4.48,3.3672 5.65,5.5156 1.17,2.1524 1.75,4.5 1.75,7.0664 0,3.3672 -1.05,6.0664 -3.15,8.1328 -2.1,2.0703 -4.7,3.1016 -7.83,3.1016 -5.05,0 -9.25,-2.6992 -12.65,-8.0977 l -1.6,0.7813" /><path
         id="path82"
         style="fill:#231f20;fill-opacity:1;fill-rule:nonzero;stroke:none"
         d="m 1637.27,38.6602 v -6.9336 h -8.89 V 14.2422 h -8.06 v 17.4844 h -28.02 v 6.25 l 30.72,43.8476 h 5.36 v -43.164 z m -16.95,0 v 32.8632 l -23.24,-32.8632 h 23.24" /><path
         id="path84"
         style="fill:#231f20;fill-opacity:1;fill-rule:nonzero;stroke:none"
         d="m 1815.46,81.9688 -3.82,-8.2969 h -19.91 l -4.35,-8.9024 c 8.63,-1.2656 15.46,-4.4648 20.5,-9.6133 4.33,-4.4218 6.5,-9.6367 6.5,-15.621 0,-3.4805 -0.7,-6.7149 -2.12,-9.6641 -1.42,-2.9688 -3.2,-5.4844 -5.35,-7.5664 -2.15,-2.082 -4.55,-3.7656 -7.18,-5.0352 -3.74,-1.7968 -7.59,-2.6836 -11.52,-2.6836 -3.98,0 -6.87,0.668 -8.67,2.0196 -1.81,1.3476 -2.72,2.8476 -2.72,4.4648 0,0.918 0.39,1.7149 1.12,2.418 0.76,0.6992 1.7,1.0508 2.84,1.0508 0.85,0 1.6,-0.1211 2.23,-0.3868 0.63,-0.2656 1.72,-0.9296 3.25,-1.9961 2.44,-1.7031 4.9,-2.5507 7.42,-2.5507 3.8,0 7.15,1.4492 10.03,4.332 2.88,2.8828 4.32,6.3828 4.32,10.5156 0,4 -1.29,7.7344 -3.85,11.1992 -2.59,3.4688 -6.12,6.1524 -10.65,8.0352 -3.55,1.4687 -8.39,2.3164 -14.5,2.5508 l 12.7,25.7305 h 23.73" /><path
         id="path86"
         style="fill:#231f20;fill-opacity:1;fill-rule:nonzero;stroke:none"
         d="m 912.238,248.102 c 4.403,0 8.282,-0.95 11.668,-2.852 3.383,-1.902 6.047,-4.715 7.969,-8.449 1.914,-3.715 2.883,-7.586 2.883,-11.602 0,-7.082 -2.067,-14.531 -6.188,-22.332 -4.113,-7.801 -9.496,-13.75 -16.129,-17.847 -6.652,-4.102 -13.519,-6.153 -20.617,-6.153 -5.101,0 -9.386,1.133 -12.82,3.399 -3.43,2.269 -5.965,5.25 -7.613,8.953 -1.633,3.715 -2.469,7.316 -2.469,10.801 0,6.179 1.5,12.296 4.469,18.328 2.98,6.035 6.55,11.086 10.683,15.136 4.133,4.051 8.531,7.164 13.231,9.352 4.683,2.18 9.668,3.266 14.933,3.266 z m -1.668,-3.118 c -3.246,0 -6.429,-0.8 -9.531,-2.418 -3.117,-1.613 -6.199,-4.25 -9.25,-7.918 -3.066,-3.644 -5.816,-8.449 -8.266,-14.363 -2.984,-7.301 -4.484,-14.183 -4.484,-20.668 0,-4.617 1.184,-8.715 3.566,-12.281 2.368,-3.551 6.02,-5.336 10.934,-5.336 2.969,0 5.867,0.734 8.715,2.199 2.851,1.453 5.816,3.969 8.918,7.52 3.867,4.449 7.117,10.148 9.766,17.066 2.632,6.914 3.953,13.363 3.953,19.348 0,4.433 -1.184,8.351 -3.567,11.75 -2.386,3.402 -5.949,5.101 -10.754,5.101" /></g></g></svg>