<?xml version="1.0" encoding="UTF-8" standalone="no"?>
<svg
   xmlns:dc="http://purl.org/dc/elements/1.1/"
   xmlns:cc="http://creativecommons.org/ns#"
   xmlns:rdf="http://www.w3.org/1999/02/22-rdf-syntax-ns#"
   xmlns:svg="http://www.w3.org/2000/svg"
   xmlns="http://www.w3.org/2000/svg"
   viewBox="0 0 192 36"
   height="36"
   width="192"
   xml:space="preserve"
   id="svg2"
   version="1.1"><metadata
     id="metadata8"><rdf:RDF><cc:Work
         rdf:about=""><dc:format>image/svg+xml</dc:format><dc:type
           rdf:resource="http://purl.org/dc/dcmitype/StillImage" /></cc:Work></rdf:RDF></metadata><defs
     id="defs6" /><g
     transform="matrix(1.3333333,0,0,-1.3333333,0,36)"
     id="g10"><g
       transform="scale(0.1)"
       id="g12"><path
         id="path14"
         style="fill:#231f20;fill-opacity:1;fill-rule:evenodd;stroke:none"
         d="m 898.727,160.574 c 7.511,0 13.597,-6.086 13.597,-13.597 0,-7.508 -6.086,-13.598 -13.597,-13.598 -7.508,0 -13.598,6.09 -13.598,13.598 0,7.511 6.09,13.597 13.598,13.597" /><path
         id="path16"
         style="fill:none;stroke:#231f20;stroke-width:7.5005002;stroke-linecap:butt;stroke-linejoin:miter;stroke-miterlimit:2.61310005;stroke-dasharray:none;stroke-opacity:1"
         d="m 898.727,160.574 c 7.511,0 13.597,-6.086 13.597,-13.597 0,-7.508 -6.086,-13.598 -13.597,-13.598 -7.508,0 -13.598,6.09 -13.598,13.598 0,7.511 6.09,13.597 13.598,13.597 z" /><path
         id="path18"
         style="fill:none;stroke:#231f20;stroke-width:7.5005002;stroke-linecap:butt;stroke-linejoin:miter;stroke-miterlimit:2.61310005;stroke-dasharray:none;stroke-opacity:1"
         d="M 9.01172,147.543 H 1393.54" /><path
         id="path20"
         style="fill:#231f20;fill-opacity:1;fill-rule:evenodd;stroke:none"
         d="m 1389.38,173.891 47.9,-26.348 -47.9,-26.348 v 52.696" /><path
         id="path22"
         style="fill:#231f20;fill-opacity:1;fill-rule:nonzero;stroke:none"
         d="m 952.898,266.676 -4.929,-21.434 h -1.77 l -0.179,5.383 c -0.168,1.949 -0.551,3.684 -1.137,5.215 -0.582,1.535 -1.469,2.851 -2.633,3.984 -1.168,1.117 -2.648,2 -4.449,2.637 -1.785,0.629 -3.77,0.949 -5.949,0.949 -5.836,0 -10.918,-1.601 -15.286,-4.785 -5.566,-4.066 -9.933,-9.816 -13.082,-17.23 -2.597,-6.118 -3.918,-12.317 -3.918,-18.602 0,-6.418 1.883,-11.535 5.618,-15.367 3.75,-3.817 8.617,-5.735 14.601,-5.735 4.531,0 8.563,1.016 12.082,3.032 3.531,2.019 6.817,5.117 9.852,9.32 H 944 c -3.566,-5.703 -7.551,-9.887 -11.898,-12.566 -4.368,-2.684 -9.602,-4.036 -15.688,-4.036 -5.398,0 -10.18,1.133 -14.348,3.399 -4.168,2.269 -7.347,5.433 -9.515,9.551 -2.184,4.101 -3.285,8.5 -3.285,13.234 0,7.219 1.949,14.25 5.816,21.086 3.867,6.828 9.184,12.211 15.934,16.113 6.765,3.899 13.566,5.852 20.453,5.852 3.215,0 6.832,-0.75 10.828,-2.281 1.754,-0.653 3.039,-0.985 3.805,-0.985 0.781,0 1.464,0.164 2.066,0.481 0.582,0.336 1.547,1.265 2.914,2.785 h 1.816" /><path
         id="path24"
         style="fill:#231f20;fill-opacity:1;fill-rule:nonzero;stroke:none"
         d="m 221.082,37.3477 c 0,7.5468 1.133,14.0468 3.414,19.4961 2.285,5.4531 5.301,9.5195 9.086,12.1835 2.93,2.1172 5.949,3.1836 9.082,3.1836 5.066,0 9.633,-2.5976 13.664,-7.7656 5.051,-6.418 7.57,-15.1015 7.57,-26.0859 0,-7.6797 -1.101,-14.1953 -3.316,-19.5625 -2.219,-5.3828 -5.035,-9.28518 -8.469,-11.70315 -3.433,-2.42969 -6.75,-3.63281 -9.949,-3.63281 -6.301,0 -11.566,3.71875 -15.766,11.18746 -3.55,6.2813 -5.316,13.8477 -5.316,22.6993 z m 9.566,-1.2188 c 0,-9.1172 1.118,-16.5664 3.368,-22.3164 1.847,-4.84766 4.632,-7.28516 8.3,-7.28516 1.766,0 3.582,0.80469 5.465,2.36719 1.899,1.58597 3.332,4.23437 4.297,7.93357 1.5,5.6016 2.254,13.5 2.254,23.6836 0,7.5508 -0.785,13.8516 -2.352,18.8985 -1.168,3.75 -2.683,6.4023 -4.531,7.9687 -1.336,1.0664 -2.953,1.5977 -4.836,1.5977 -2.218,0 -4.183,-0.9805 -5.918,-2.9649 -2.332,-2.6992 -3.929,-6.9492 -4.781,-12.75 -0.852,-5.7969 -1.266,-11.5 -1.266,-17.1328" /><path
         id="path26"
         style="fill:#231f20;fill-opacity:1;fill-rule:nonzero;stroke:none"
         d="m 1095.28,82.375 16.12,7.8672 h 1.62 v -55.918 c 0,-3.6992 0.14,-6.0156 0.44,-6.9336 0.33,-0.8984 0.97,-1.6015 1.94,-2.0976 0.98,-0.4844 2.97,-0.7657 5.97,-0.836 v -1.8008 h -24.92 v 1.8008 c 3.13,0.0703 5.15,0.336 6.07,0.8164 0.9,0.4688 1.53,1.1016 1.89,1.8985 0.36,0.8047 0.54,3.1836 0.54,7.1523 v 35.75 c 0,4.8164 -0.16,7.9024 -0.49,9.2656 -0.23,1.0508 -0.64,1.8204 -1.25,2.3008 -0.59,0.4844 -1.31,0.7344 -2.16,0.7344 -1.2,0 -2.88,-0.5039 -5.03,-1.5156 l -0.74,1.5156" /><path
         id="path28"
         style="fill:#231f20;fill-opacity:1;fill-rule:nonzero;stroke:none"
         d="m 1179.42,35.4062 -4.64,-12.75 h -39.07 v 1.8008 c 11.49,10.4844 19.59,19.0508 24.27,25.6836 4.68,6.6524 7.04,12.7188 7.04,18.2188 0,4.1992 -1.29,7.6484 -3.87,10.3476 -2.57,2.6992 -5.63,4.0508 -9.22,4.0508 -3.26,0 -6.18,-0.9492 -8.77,-2.8476 -2.58,-1.9024 -4.49,-4.7032 -5.73,-8.3711 h -1.81 c 0.81,6.0195 2.9,10.6328 6.28,13.8671 3.37,3.2188 7.57,4.836 12.62,4.836 5.36,0 9.85,-1.7344 13.44,-5.1875 3.61,-3.4492 5.41,-7.5117 5.41,-12.1953 0,-3.3516 -0.79,-6.7188 -2.35,-10.0703 -2.41,-5.2657 -6.32,-10.8477 -11.72,-16.75 -8.1,-8.8477 -13.17,-14.1797 -15.18,-16.0157 h 17.28 c 3.51,0 5.98,0.1368 7.4,0.4024 1.41,0.25 2.7,0.7812 3.83,1.582 1.14,0.8008 2.14,1.9336 2.99,3.3984 h 1.8" /><path
         id="path30"
         style="fill:none;stroke:#231f20;stroke-width:7.5005002;stroke-linecap:butt;stroke-linejoin:miter;stroke-miterlimit:2.61310005;stroke-dasharray:none;stroke-opacity:1"
         d="m 1107.16,175.613 v -57.09" /><path
         id="path32"
         style="fill:none;stroke:#231f20;stroke-width:7.5005002;stroke-linecap:butt;stroke-linejoin:miter;stroke-miterlimit:2.61310005;stroke-dasharray:none;stroke-opacity:1"
         d="m 243.164,175.613 v -57.09" /></g></g></svg>