<?xml version="1.0" encoding="UTF-8" standalone="no"?>
<svg
   xmlns:dc="http://purl.org/dc/elements/1.1/"
   xmlns:cc="http://creativecommons.org/ns#"
   xmlns:rdf="http://www.w3.org/1999/02/22-rdf-syntax-ns#"
   xmlns:svg="http://www.w3.org/2000/svg"
   xmlns="http://www.w3.org/2000/svg"
   viewBox="0 0 192 34.666668"
   height="34.666668"
   width="192"
   xml:space="preserve"
   id="svg2"
   version="1.1"><metadata
     id="metadata8"><rdf:RDF><cc:Work
         rdf:about=""><dc:format>image/svg+xml</dc:format><dc:type
           rdf:resource="http://purl.org/dc/dcmitype/StillImage" /></cc:Work></rdf:RDF></metadata><defs
     id="defs6" /><g
     transform="matrix(1.3333333,0,0,-1.3333333,0,34.666667)"
     id="g10"><g
       transform="scale(0.1)"
       id="g12"><path
         id="path14"
         style="fill:#231f20;fill-opacity:1;fill-rule:evenodd;stroke:none"
         d="m 316.727,150.574 c 7.511,0 13.597,-6.086 13.597,-13.597 0,-7.508 -6.086,-13.598 -13.597,-13.598 -7.508,0 -13.598,6.09 -13.598,13.598 0,7.511 6.09,13.597 13.598,13.597" /><path
         id="path16"
         style="fill:none;stroke:#231f20;stroke-width:7.5005002;stroke-linecap:butt;stroke-linejoin:miter;stroke-miterlimit:2.61310005;stroke-dasharray:none;stroke-opacity:1"
         d="m 316.727,150.574 c 7.511,0 13.597,-6.086 13.597,-13.597 0,-7.508 -6.086,-13.598 -13.597,-13.598 -7.508,0 -13.598,6.09 -13.598,13.598 0,7.511 6.09,13.597 13.598,13.597 z" /><path
         id="path18"
         style="fill:#231f20;fill-opacity:1;fill-rule:evenodd;stroke:none"
         d="m 1027.71,151.941 c 7.51,0 13.6,-6.089 13.6,-13.597 0,-7.508 -6.09,-13.598 -13.6,-13.598 -7.51,0 -13.59,6.09 -13.59,13.598 0,7.508 6.08,13.597 13.59,13.597" /><path
         id="path20"
         style="fill:none;stroke:#231f20;stroke-width:7.5005002;stroke-linecap:butt;stroke-linejoin:miter;stroke-miterlimit:2.61310005;stroke-dasharray:none;stroke-opacity:1"
         d="m 1027.71,151.941 c 7.51,0 13.6,-6.089 13.6,-13.597 0,-7.508 -6.09,-13.598 -13.6,-13.598 -7.51,0 -13.59,6.09 -13.59,13.598 0,7.508 6.08,13.597 13.59,13.597 z" /><path
         id="path22"
         style="fill:#231f20;fill-opacity:1;fill-rule:nonzero;stroke:none"
         d="m 333.918,250.91 -9.617,-33.734 c 3.133,3.254 5.847,5.488 8.183,6.683 2.332,1.2 4.766,1.801 7.297,1.801 3.582,0 6.516,-1.18 8.785,-3.547 2.282,-2.386 3.414,-5.601 3.414,-9.683 0,-5.235 -1.48,-10.453 -4.48,-15.649 -3,-5.187 -6.75,-9.238 -11.285,-12.136 -4.516,-2.883 -8.981,-4.336 -13.383,-4.336 -4.918,0 -9.949,1.836 -15.133,5.519 l 14.852,51.117 c 1.133,3.934 1.699,6.246 1.699,6.93 0,0.852 -0.25,1.488 -0.766,1.902 -0.754,0.598 -1.867,0.883 -3.336,0.883 -0.683,0 -1.718,-0.117 -3.113,-0.332 v 1.848 z m -18.887,-65.617 c 3.254,-1.801 6.117,-2.699 8.586,-2.699 2.863,0 5.832,1.051 8.918,3.152 3.078,2.098 5.746,5.649 7.996,10.629 2.27,4.973 3.403,10.004 3.403,15.086 0,3 -0.735,5.332 -2.219,7.035 -1.481,1.684 -3.231,2.531 -5.25,2.531 -3.031,0 -5.996,-1.215 -8.883,-3.632 -2.898,-2.434 -4.965,-5.797 -6.199,-10.133 l -6.352,-21.969" /><path
         id="path24"
         style="fill:none;stroke:#231f20;stroke-width:7.5005002;stroke-linecap:butt;stroke-linejoin:miter;stroke-miterlimit:2.61310005;stroke-dasharray:none;stroke-opacity:1"
         d="M 3.01172,137.543 H 1387.54" /><path
         id="path26"
         style="fill:#231f20;fill-opacity:1;fill-rule:evenodd;stroke:none"
         d="m 1383.38,163.891 47.9,-26.348 -47.9,-26.348 v 52.696" /><path
         id="path28"
         style="fill:#231f20;fill-opacity:1;fill-rule:nonzero;stroke:none"
         d="m 1077.6,242.156 -9.52,-33.101 -1.06,-4.45 c -0.11,-0.417 -0.15,-0.765 -0.15,-1.066 0,-0.516 0.16,-0.984 0.48,-1.363 0.26,-0.301 0.58,-0.438 0.98,-0.438 0.42,0 0.97,0.25 1.65,0.766 1.29,0.953 2.97,2.902 5.09,5.871 l 1.66,-1.168 c -2.25,-3.383 -4.57,-5.969 -6.93,-7.75 -2.39,-1.766 -4.59,-2.652 -6.6,-2.652 -1.4,0 -2.45,0.351 -3.15,1.05 -0.7,0.704 -1.05,1.715 -1.05,3.051 0,1.582 0.36,3.684 1.08,6.301 l 1.02,3.648 c -4.27,-5.566 -8.19,-9.449 -11.77,-11.667 -2.56,-1.583 -5.1,-2.383 -7.56,-2.383 -2.39,0 -4.44,0.984 -6.16,2.953 -1.73,1.965 -2.58,4.68 -2.58,8.129 0,5.168 1.55,10.636 4.65,16.386 3.12,5.735 7.07,10.332 11.85,13.786 3.74,2.73 7.27,4.097 10.6,4.097 1.98,0 3.64,-0.515 4.95,-1.551 1.32,-1.05 2.32,-2.765 3,-5.183 l 1.77,5.566 z m -17.39,-2.535 c -2.08,0 -4.28,-0.984 -6.63,-2.933 -3.31,-2.766 -6.26,-6.864 -8.87,-12.301 -2.58,-5.43 -3.88,-10.348 -3.88,-14.746 0,-2.219 0.57,-3.969 1.67,-5.25 1.1,-1.286 2.38,-1.918 3.82,-1.918 3.53,0 7.39,2.617 11.56,7.851 5.57,6.965 8.35,14.117 8.35,21.43 0,2.769 -0.53,4.769 -1.62,6.019 -1.06,1.235 -2.53,1.848 -4.4,1.848" /><path
         id="path30"
         style="fill:#231f20;fill-opacity:1;fill-rule:nonzero;stroke:none"
         d="m 512.773,36.3594 c 0,7.5508 1.137,14.0508 3.418,19.5 2.286,5.4531 5.301,9.5156 9.086,12.1836 2.93,2.1172 5.95,3.1836 9.082,3.1836 5.063,0 9.633,-2.5977 13.664,-7.7657 5.051,-6.4179 7.567,-15.1015 7.567,-26.0859 0,-7.6797 -1.098,-14.1992 -3.317,-19.5625 -2.214,-5.3828 -5.031,-9.28516 -8.464,-11.70312 -3.434,-2.42969 -6.75,-3.63282 -9.95,-3.63282 -6.3,0 -11.57,3.71875 -15.765,11.18364 -3.555,6.2812 -5.321,13.8515 -5.321,22.6992 z m 9.567,-1.2149 c 0,-9.1172 1.117,-16.5664 3.371,-22.3164 1.848,-4.85154 4.629,-7.28513 8.297,-7.28513 1.765,0 3.586,0.80078 5.465,2.36719 1.902,1.58593 3.336,4.23434 4.3,7.93364 1.5,5.5976 2.25,13.5 2.25,23.6835 0,7.5469 -0.785,13.8477 -2.347,18.8985 -1.168,3.75 -2.684,6.3984 -4.535,7.9687 -1.332,1.0664 -2.95,1.5977 -4.836,1.5977 -2.215,0 -4.18,-0.9844 -5.914,-2.9649 -2.332,-2.7031 -3.93,-6.9492 -4.782,-12.75 -0.851,-5.8007 -1.269,-11.5 -1.269,-17.1328" /><path
         id="path32"
         style="fill:none;stroke:#231f20;stroke-width:7.5005002;stroke-linecap:butt;stroke-linejoin:miter;stroke-miterlimit:2.61310005;stroke-dasharray:none;stroke-opacity:1"
         d="m 527.688,167.117 v -57.09" /><path
         id="path34"
         style="fill:#231f20;fill-opacity:1;fill-rule:nonzero;stroke:none"
         d="m 653.824,63.3594 16.117,7.8672 h 1.618 V 15.3125 c 0,-3.7031 0.148,-6.01953 0.449,-6.93359 0.316,-0.90235 0.969,-1.60157 1.933,-2.10157 0.985,-0.48437 2.969,-0.76562 5.965,-0.83203 V 3.64453 h -24.914 v 1.80078 c 3.133,0.06641 5.149,0.33203 6.067,0.81641 0.902,0.46484 1.531,1.09766 1.898,1.89844 0.352,0.80078 0.535,3.18364 0.535,7.15234 v 35.75 c 0,4.8164 -0.168,7.8984 -0.484,9.2656 -0.231,1.0469 -0.649,1.8164 -1.25,2.2969 -0.602,0.4844 -1.317,0.7344 -2.164,0.7344 -1.203,0 -2.883,-0.5 -5.035,-1.5156 l -0.735,1.5156" /><path
         id="path36"
         style="fill:none;stroke:#231f20;stroke-width:7.5005002;stroke-linecap:butt;stroke-linejoin:miter;stroke-miterlimit:2.61310005;stroke-dasharray:none;stroke-opacity:1"
         d="m 1247.69,167.117 v -57.09" /><path
         id="path38"
         style="fill:none;stroke:#231f20;stroke-width:7.5005002;stroke-linecap:butt;stroke-linejoin:miter;stroke-miterlimit:2.61310005;stroke-dasharray:none;stroke-opacity:1"
         d="m 381.164,165.613 v -57.09" /><path
         id="path40"
         style="fill:none;stroke:#231f20;stroke-width:7.5005002;stroke-linecap:butt;stroke-linejoin:miter;stroke-miterlimit:2.61310005;stroke-dasharray:none;stroke-opacity:1"
         d="m 669.164,165.613 v -57.09" /><path
         id="path42"
         style="fill:none;stroke:#231f20;stroke-width:7.5005002;stroke-linecap:butt;stroke-linejoin:miter;stroke-miterlimit:2.61310005;stroke-dasharray:none;stroke-opacity:1"
         d="m 813.164,165.613 v -57.09" /><path
         id="path44"
         style="fill:none;stroke:#231f20;stroke-width:7.5005002;stroke-linecap:butt;stroke-linejoin:miter;stroke-miterlimit:2.61310005;stroke-dasharray:none;stroke-opacity:1"
         d="m 957.164,165.613 v -57.09" /><path
         id="path46"
         style="fill:none;stroke:#231f20;stroke-width:7.5005002;stroke-linecap:butt;stroke-linejoin:miter;stroke-miterlimit:2.61310005;stroke-dasharray:none;stroke-opacity:1"
         d="m 1101.16,165.613 v -57.09" /><path
         id="path48"
         style="fill:none;stroke:#231f20;stroke-width:7.5005002;stroke-linecap:butt;stroke-linejoin:miter;stroke-miterlimit:2.61310005;stroke-dasharray:none;stroke-opacity:1"
         d="m 237.164,165.613 v -57.09" /><path
         id="path50"
         style="fill:none;stroke:#231f20;stroke-width:7.5005002;stroke-linecap:butt;stroke-linejoin:miter;stroke-miterlimit:2.61310005;stroke-dasharray:none;stroke-opacity:1"
         d="m 93.1641,165.613 v -57.09" /></g></g></svg>