<?xml version="1.0" encoding="UTF-8" standalone="no"?>
<svg
   xmlns:dc="http://purl.org/dc/elements/1.1/"
   xmlns:cc="http://creativecommons.org/ns#"
   xmlns:rdf="http://www.w3.org/1999/02/22-rdf-syntax-ns#"
   xmlns:svg="http://www.w3.org/2000/svg"
   xmlns="http://www.w3.org/2000/svg"
   viewBox="0 0 192 36"
   height="36"
   width="192"
   xml:space="preserve"
   id="svg2"
   version="1.1"><metadata
     id="metadata8"><rdf:RDF><cc:Work
         rdf:about=""><dc:format>image/svg+xml</dc:format><dc:type
           rdf:resource="http://purl.org/dc/dcmitype/StillImage" /></cc:Work></rdf:RDF></metadata><defs
     id="defs6" /><g
     transform="matrix(1.3333333,0,0,-1.3333333,0,36)"
     id="g10"><g
       transform="scale(0.1)"
       id="g12"><path
         id="path14"
         style="fill:#231f20;fill-opacity:1;fill-rule:evenodd;stroke:none"
         d="m 466.727,160.574 c 7.511,0 13.597,-6.086 13.597,-13.597 0,-7.508 -6.086,-13.598 -13.597,-13.598 -7.508,0 -13.598,6.09 -13.598,13.598 0,7.511 6.09,13.597 13.598,13.597" /><path
         id="path16"
         style="fill:none;stroke:#231f20;stroke-width:7.5005002;stroke-linecap:butt;stroke-linejoin:miter;stroke-miterlimit:2.61310005;stroke-dasharray:none;stroke-opacity:1"
         d="m 466.727,160.574 c 7.511,0 13.597,-6.086 13.597,-13.597 0,-7.508 -6.086,-13.598 -13.597,-13.598 -7.508,0 -13.598,6.09 -13.598,13.598 0,7.511 6.09,13.597 13.598,13.597 z" /><path
         id="path18"
         style="fill:none;stroke:#231f20;stroke-width:7.5005002;stroke-linecap:butt;stroke-linejoin:miter;stroke-miterlimit:2.61310005;stroke-dasharray:none;stroke-opacity:1"
         d="M 9.01172,147.543 H 1393.54" /><path
         id="path20"
         style="fill:#231f20;fill-opacity:1;fill-rule:evenodd;stroke:none"
         d="m 1389.38,173.891 47.9,-26.348 -47.9,-26.348 v 52.696" /><path
         id="path22"
         style="fill:#231f20;fill-opacity:1;fill-rule:nonzero;stroke:none"
         d="m 465.332,263.359 0.684,1.817 h 23.636 c 3.965,0 7.496,-0.617 10.614,-1.867 3.101,-1.235 5.433,-2.95 6.984,-5.168 1.551,-2.215 2.316,-4.567 2.316,-7.036 0,-3.812 -1.382,-7.246 -4.132,-10.332 -2.75,-3.066 -7.235,-5.347 -13.45,-6.8 4.016,-1.496 6.95,-3.481 8.848,-5.965 1.883,-2.465 2.832,-5.184 2.832,-8.149 0,-3.285 -0.848,-6.433 -2.547,-9.433 -1.683,-2.985 -3.867,-5.317 -6.515,-6.965 -2.653,-1.668 -5.852,-2.887 -9.602,-3.668 -2.668,-0.551 -6.836,-0.836 -12.5,-0.836 h -24.266 l 0.633,1.801 c 2.551,0.07 4.266,0.32 5.184,0.734 1.301,0.567 2.23,1.301 2.785,2.199 0.781,1.235 1.812,4.067 3.113,8.5 l 11.867,40.082 c 1.016,3.387 1.516,5.766 1.516,7.137 0,1.199 -0.449,2.149 -1.332,2.848 -0.898,0.699 -2.598,1.051 -5.117,1.051 -0.551,0 -1.067,0.015 -1.551,0.05 z m 9.902,-27.484 c 2.114,-0.066 3.649,-0.102 4.598,-0.102 6.77,0 11.801,1.469 15.117,4.418 3.301,2.95 4.953,6.633 4.953,11.067 0,3.351 -1.019,5.965 -3.035,7.836 -2.015,1.863 -5.234,2.797 -9.668,2.797 -1.164,0 -2.664,-0.184 -4.48,-0.582 z m -9.617,-32.617 c 3.516,-0.465 6.266,-0.684 8.25,-0.684 5.082,0 9.582,1.535 13.5,4.586 3.934,3.067 5.883,7.215 5.883,12.449 0,4 -1.199,7.133 -3.633,9.383 -2.418,2.25 -6.332,3.367 -11.73,3.367 -1.055,0 -2.321,-0.05 -3.821,-0.152 l -8.449,-28.949" /><path
         id="path24"
         style="fill:#231f20;fill-opacity:1;fill-rule:nonzero;stroke:none"
         d="m 221.082,37.3477 c 0,7.5468 1.133,14.0468 3.414,19.4961 2.285,5.4531 5.301,9.5195 9.086,12.1835 2.93,2.1172 5.949,3.1836 9.082,3.1836 5.066,0 9.633,-2.5976 13.664,-7.7656 5.051,-6.418 7.57,-15.1015 7.57,-26.0859 0,-7.6797 -1.101,-14.1953 -3.316,-19.5625 -2.219,-5.3828 -5.035,-9.28518 -8.469,-11.70315 -3.433,-2.42969 -6.75,-3.63281 -9.949,-3.63281 -6.301,0 -11.566,3.71875 -15.766,11.18746 -3.55,6.2813 -5.316,13.8477 -5.316,22.6993 z m 9.566,-1.2188 c 0,-9.1172 1.118,-16.5664 3.368,-22.3164 1.847,-4.84766 4.632,-7.28516 8.3,-7.28516 1.766,0 3.582,0.80469 5.465,2.36719 1.899,1.58597 3.332,4.23437 4.297,7.93357 1.5,5.6016 2.254,13.5 2.254,23.6836 0,7.5508 -0.785,13.8516 -2.352,18.8985 -1.168,3.75 -2.683,6.4023 -4.531,7.9687 -1.336,1.0664 -2.953,1.5977 -4.836,1.5977 -2.218,0 -4.183,-0.9805 -5.918,-2.9649 -2.332,-2.6992 -3.929,-6.9492 -4.781,-12.75 -0.852,-5.7969 -1.266,-11.5 -1.266,-17.1328" /><path
         id="path26"
         style="fill:#231f20;fill-opacity:1;fill-rule:nonzero;stroke:none"
         d="m 1095.28,82.375 16.12,7.8672 h 1.62 v -55.918 c 0,-3.6992 0.14,-6.0156 0.44,-6.9336 0.33,-0.8984 0.97,-1.6015 1.94,-2.0976 0.98,-0.4844 2.97,-0.7657 5.97,-0.836 v -1.8008 h -24.92 v 1.8008 c 3.13,0.0703 5.15,0.336 6.07,0.8164 0.9,0.4688 1.53,1.1016 1.89,1.8985 0.36,0.8047 0.54,3.1836 0.54,7.1523 v 35.75 c 0,4.8164 -0.16,7.9024 -0.49,9.2656 -0.23,1.0508 -0.64,1.8204 -1.25,2.3008 -0.59,0.4844 -1.31,0.7344 -2.16,0.7344 -1.2,0 -2.88,-0.5039 -5.03,-1.5156 l -0.74,1.5156" /><path
         id="path28"
         style="fill:#231f20;fill-opacity:1;fill-rule:nonzero;stroke:none"
         d="m 1176.98,88.875 -3.82,-8.3008 h -19.91 l -4.35,-8.8984 c 8.63,-1.2696 15.47,-4.4688 20.5,-9.6172 4.33,-4.418 6.5,-9.6328 6.5,-15.6172 0,-3.4844 -0.7,-6.7148 -2.11,-9.668 -1.42,-2.9687 -3.21,-5.4804 -5.36,-7.5664 -2.14,-2.082 -4.55,-3.7656 -7.18,-5.0312 -3.73,-1.8008 -7.58,-2.6875 -11.52,-2.6875 -3.98,0 -6.86,0.6719 -8.66,2.0195 -1.82,1.3516 -2.72,2.8477 -2.72,4.4688 0,0.914 0.38,1.7148 1.11,2.414 0.75,0.6992 1.71,1.0508 2.84,1.0508 0.85,0 1.6,-0.1172 2.24,-0.3828 0.62,-0.2695 1.71,-0.9336 3.24,-2 2.44,-1.6992 4.9,-2.5508 7.42,-2.5508 3.8,0 7.15,1.4492 10.03,4.332 2.89,2.8829 4.32,6.3868 4.32,10.5196 0,4 -1.28,7.7304 -3.85,11.1992 -2.58,3.4648 -6.12,6.1484 -10.65,8.0312 -3.55,1.4688 -8.39,2.3164 -14.5,2.5508 l 12.7,25.7344 h 23.73" /><path
         id="path30"
         style="fill:none;stroke:#231f20;stroke-width:7.5005002;stroke-linecap:butt;stroke-linejoin:miter;stroke-miterlimit:2.61310005;stroke-dasharray:none;stroke-opacity:1"
         d="m 1107.16,175.613 v -57.09" /><path
         id="path32"
         style="fill:none;stroke:#231f20;stroke-width:7.5005002;stroke-linecap:butt;stroke-linejoin:miter;stroke-miterlimit:2.61310005;stroke-dasharray:none;stroke-opacity:1"
         d="m 243.164,175.613 v -57.09" /></g></g></svg>