<?xml version="1.0" encoding="UTF-8" standalone="no"?>
<svg
   xmlns:dc="http://purl.org/dc/elements/1.1/"
   xmlns:cc="http://creativecommons.org/ns#"
   xmlns:rdf="http://www.w3.org/1999/02/22-rdf-syntax-ns#"
   xmlns:svg="http://www.w3.org/2000/svg"
   xmlns="http://www.w3.org/2000/svg"
   viewBox="0 0 153.57333 30.346666"
   height="30.346666"
   width="153.57333"
   xml:space="preserve"
   id="svg2"
   version="1.1"><metadata
     id="metadata8"><rdf:RDF><cc:Work
         rdf:about=""><dc:format>image/svg+xml</dc:format><dc:type
           rdf:resource="http://purl.org/dc/dcmitype/StillImage" /></cc:Work></rdf:RDF></metadata><defs
     id="defs6" /><g
     transform="matrix(1.3333333,0,0,-1.3333333,0,30.346667)"
     id="g10"><g
       transform="scale(0.1)"
       id="g12"><path
         id="path14"
         style="fill:none;stroke:#000000;stroke-width:8;stroke-linecap:round;stroke-linejoin:miter;stroke-miterlimit:10;stroke-dasharray:none;stroke-opacity:1"
         d="m 4,137.012 c 1137.76,1.136 1137.76,1.136 1137.76,1.136" /><path
         id="path16"
         style="fill:#000000;fill-opacity:1;fill-rule:evenodd;stroke:none"
         d="m 1109.76,138.117 -15.99,-16.015 55.99,16.054 -56.02,15.946 16.02,-15.985" /><path
         id="path18"
         style="fill:none;stroke:#000000;stroke-width:4;stroke-linecap:butt;stroke-linejoin:miter;stroke-miterlimit:10;stroke-dasharray:none;stroke-opacity:1"
         d="m 1109.76,138.117 -15.99,-16.015 55.99,16.054 -56.02,15.946 z" /><path
         id="path20"
         style="fill:#000000;fill-opacity:1;fill-rule:evenodd;stroke:none"
         d="m 276.117,13.8477 -4.64,-12.74614 h -39.063 v 1.8086 c 11.492,10.48044 19.582,19.04294 24.27,25.68364 4.687,6.6406 7.031,12.7109 7.031,18.2109 0,4.1992 -1.285,7.6523 -3.86,10.3515 -2.57,2.7032 -5.648,4.0547 -9.226,4.0547 -3.258,0 -6.176,-0.9531 -8.766,-2.8593 -2.586,-1.9024 -4.5,-4.6954 -5.738,-8.3711 h -1.805 c 0.813,6.0195 2.907,10.6445 6.274,13.8672 3.371,3.2226 7.578,4.832 12.621,4.832 5.371,0 9.855,-1.7227 13.453,-5.1758 3.598,-3.4492 5.394,-7.5195 5.394,-12.207 0,-3.3516 -0.781,-6.7031 -2.343,-10.0586 C 267.312,35.9648 263.406,30.3828 258,24.4922 249.895,15.6367 244.832,10.2969 242.816,8.47656 h 17.286 c 3.515,0 5.98,0.12891 7.398,0.39063 1.414,0.25781 2.691,0.78906 3.832,1.58591 1.137,0.7969 2.133,1.9297 2.977,3.3946 h 1.808" /><path
         id="path22"
         style="fill:none;stroke:#000000;stroke-width:4;stroke-linecap:butt;stroke-linejoin:miter;stroke-miterlimit:10;stroke-dasharray:none;stroke-opacity:1"
         d="m 135.078,175.176 c 1.598,-68.074 1.598,-68.074 1.598,-68.074" /><path
         id="path24"
         style="fill:#000000;fill-opacity:1;fill-rule:evenodd;stroke:none"
         d="m 117.711,55.8867 c 1.887,4.461 4.269,7.9024 7.152,10.3281 2.879,2.4258 6.469,3.6368 10.766,3.6368 5.309,0 9.375,-1.7227 12.207,-5.1758 2.148,-2.5703 3.223,-5.3203 3.223,-8.25 0,-4.8203 -3.028,-9.8008 -9.082,-14.9414 4.07,-1.5977 7.144,-3.875 9.23,-6.836 2.082,-2.9648 3.125,-6.4453 3.125,-10.4492 0,-5.7304 -1.824,-10.6953 -5.469,-14.89451 -4.754,-5.46875 -11.636,-8.20313 -20.656,-8.20313 -4.457,0 -7.496,0.55469 -9.105,1.66016 -1.614,1.10937 -2.418,2.29687 -2.418,3.5664 0,0.94141 0.382,1.77344 1.148,2.48829 0.766,0.71875 1.684,1.07421 2.758,1.07421 0.816,0 1.644,-0.1289 2.492,-0.39062 0.551,-0.16016 1.805,-0.75391 3.758,-1.78125 1.953,-1.02344 3.305,-1.63672 4.055,-1.83203 1.203,-0.35547 2.488,-0.53516 3.855,-0.53516 3.32,0 6.211,1.28516 8.668,3.85547 2.457,2.57417 3.687,5.61717 3.687,9.13277 0,2.5704 -0.57,5.0782 -1.71,7.5196 -0.844,1.8203 -1.774,3.207 -2.782,4.1484 -1.402,1.3047 -3.32,2.4844 -5.761,3.543 -2.442,1.0547 -4.934,1.5859 -7.473,1.5859 h -1.563 v 1.4649 c 2.575,0.3242 5.153,1.2539 7.739,2.7812 2.59,1.5313 4.468,3.3711 5.64,5.5195 1.172,2.1485 1.758,4.5079 1.758,7.0782 0,3.3554 -1.051,6.0625 -3.148,8.1328 -2.102,2.0664 -4.711,3.0976 -7.836,3.0976 -5.047,0 -9.262,-2.6992 -12.649,-8.1054 l -1.609,0.7812" /><path
         id="path26"
         style="fill:none;stroke:#000000;stroke-width:4;stroke-linecap:butt;stroke-linejoin:miter;stroke-miterlimit:10;stroke-dasharray:none;stroke-opacity:1"
         d="m 255.078,175.176 c 1.988,-68.074 1.988,-68.074 1.988,-68.074" /><path
         id="path28"
         style="fill:none;stroke:#000000;stroke-width:4;stroke-linecap:butt;stroke-linejoin:miter;stroke-miterlimit:10;stroke-dasharray:none;stroke-opacity:1"
         d="m 375.078,175.176 c 1.988,-68.074 1.988,-68.074 1.988,-68.074" /><path
         id="path30"
         style="fill:none;stroke:#000000;stroke-width:4;stroke-linecap:butt;stroke-linejoin:miter;stroke-miterlimit:10;stroke-dasharray:none;stroke-opacity:1"
         d="m 495.078,175.176 c 1.988,-68.074 1.988,-68.074 1.988,-68.074" /><path
         id="path32"
         style="fill:none;stroke:#000000;stroke-width:4;stroke-linecap:butt;stroke-linejoin:miter;stroke-miterlimit:10;stroke-dasharray:none;stroke-opacity:1"
         d="m 615.078,175.176 c 1.988,-68.074 1.988,-68.074 1.988,-68.074" /><path
         id="path34"
         style="fill:none;stroke:#000000;stroke-width:4;stroke-linecap:butt;stroke-linejoin:miter;stroke-miterlimit:10;stroke-dasharray:none;stroke-opacity:1"
         d="m 735.078,175.176 c 1.988,-68.074 1.988,-68.074 1.988,-68.074" /><path
         id="path36"
         style="fill:none;stroke:#000000;stroke-width:4;stroke-linecap:butt;stroke-linejoin:miter;stroke-miterlimit:10;stroke-dasharray:none;stroke-opacity:1"
         d="m 855.078,175.176 c 1.988,-68.074 1.988,-68.074 1.988,-68.074" /><path
         id="path38"
         style="fill:#000000;fill-opacity:1;fill-rule:evenodd;stroke:none"
         d="M 759.129,13.8477 754.492,1.10156 H 715.43 v 1.8086 c 11.488,10.48044 19.578,19.04294 24.265,25.68364 4.688,6.6406 7.032,12.7109 7.032,18.2109 0,4.1992 -1.286,7.6523 -3.856,10.3515 -2.574,2.7032 -5.648,4.0547 -9.23,4.0547 -3.254,0 -6.176,-0.9531 -8.766,-2.8593 -2.586,-1.9024 -4.5,-4.6954 -5.734,-8.3711 h -1.809 c 0.816,6.0195 2.906,10.6445 6.273,13.8672 3.372,3.2226 7.579,4.832 12.625,4.832 5.372,0 9.856,-1.7227 13.45,-5.1758 3.597,-3.4492 5.398,-7.5195 5.398,-12.207 0,-3.3516 -0.781,-6.7031 -2.344,-10.0586 -2.41,-5.2735 -6.316,-10.8555 -11.718,-16.7461 C 732.91,15.6367 727.848,10.2969 725.828,8.47656 h 17.285 c 3.516,0 5.981,0.12891 7.399,0.39063 1.414,0.25781 2.695,0.78906 3.832,1.58591 1.14,0.7969 2.133,1.9297 2.98,3.3946 h 1.805" /><path
         id="path40"
         style="fill:#000000;fill-opacity:1;fill-rule:evenodd;stroke:none"
         d="m 606.262,60.8203 16.113,7.8594 h 1.613 V 12.7734 c 0,-3.7109 0.153,-6.0234 0.461,-6.93356 0.313,-0.91406 0.953,-1.61328 1.93,-2.10156 0.976,-0.48828 2.965,-0.76562 5.957,-0.82812 v -1.8086 h -24.902 v 1.8086 c 3.125,0.0625 5.144,0.33203 6.054,0.80468 0.914,0.47266 1.547,1.10547 1.907,1.90625 0.355,0.79688 0.535,3.17969 0.535,7.15231 v 35.7422 c 0,4.8164 -0.16,7.9102 -0.489,9.2774 -0.226,1.039 -0.64,1.8047 -1.246,2.2929 -0.601,0.4883 -1.324,0.7344 -2.172,0.7344 -1.203,0 -2.878,-0.5039 -5.027,-1.5156 l -0.734,1.5156" /><path
         id="path42"
         style="fill:#000000;fill-opacity:1;fill-rule:evenodd;stroke:none"
         d="m 363.793,60.8203 16.113,7.8594 h 1.61 V 12.7734 c 0,-3.7109 0.156,-6.0234 0.464,-6.93356 0.309,-0.91406 0.954,-1.61328 1.93,-2.10156 0.977,-0.48828 2.961,-0.76562 5.957,-0.82812 v -1.8086 h -24.902 v 1.8086 c 3.125,0.0625 5.144,0.33203 6.055,0.80468 0.91,0.47266 1.546,1.10547 1.902,1.90625 0.359,0.79688 0.539,3.17969 0.539,7.15231 v 35.7422 c 0,4.8164 -0.164,7.9102 -0.488,9.2774 -0.227,1.039 -0.645,1.8047 -1.246,2.2929 -0.602,0.4883 -1.325,0.7344 -2.172,0.7344 -1.203,0 -2.883,-0.5039 -5.032,-1.5156 l -0.73,1.5156" /><path
         id="path44"
         style="fill:#000000;fill-opacity:1;fill-rule:evenodd;stroke:none"
         d="m 477.25,34.9883 c 0,7.5547 1.141,14.0547 3.418,19.5078 2.277,5.4531 5.305,9.5117 9.082,12.1836 2.93,2.1133 5.957,3.1719 9.082,3.1719 5.078,0 9.637,-2.586 13.672,-7.7618 5.047,-6.414 7.57,-15.1054 7.57,-26.0742 0,-7.6836 -1.109,-14.2109 -3.32,-19.582 -2.215,-5.3711 -5.039,-9.26954 -8.473,-11.69141 -3.433,-2.42578 -6.746,-3.64063 -9.937,-3.64063 -6.317,0 -11.571,3.72656 -15.77,11.18364 -3.551,6.2812 -5.324,13.8515 -5.324,22.7031 z m 9.57,-1.2188 c 0,-9.1172 1.125,-16.5547 3.371,-22.3164 1.856,-4.84763 4.621,-7.27341 8.301,-7.27341 1.758,0 3.578,0.78906 5.469,2.36719 1.887,1.57812 3.32,4.22262 4.297,7.93362 1.496,5.6015 2.246,13.4922 2.246,23.6836 0,7.5507 -0.781,13.8515 -2.344,18.8945 -1.172,3.7461 -2.687,6.3984 -4.543,7.9609 -1.336,1.0743 -2.945,1.6094 -4.832,1.6094 -2.215,0 -4.183,-0.9922 -5.91,-2.9766 -2.344,-2.7031 -3.937,-6.9492 -4.785,-12.7461 -0.848,-5.7929 -1.27,-11.5078 -1.27,-17.1367 v 0" /><path
         id="path46"
         style="fill:#000000;fill-opacity:1;fill-rule:evenodd;stroke:none"
         d="m 842.75,55.8867 c 1.887,4.461 4.27,7.9024 7.152,10.3281 2.879,2.4258 6.469,3.6368 10.766,3.6368 5.305,0 9.375,-1.7227 12.207,-5.1758 2.148,-2.5703 3.223,-5.3203 3.223,-8.25 0,-4.8203 -3.028,-9.8008 -9.082,-14.9414 4.07,-1.5977 7.144,-3.875 9.23,-6.836 2.082,-2.9648 3.125,-6.4453 3.125,-10.4492 0,-5.7304 -1.824,-10.6953 -5.469,-14.89451 -4.754,-5.46875 -11.64,-8.20313 -20.656,-8.20313 -4.461,0 -7.496,0.55469 -9.105,1.66016 -1.614,1.10937 -2.418,2.29687 -2.418,3.5664 0,0.94141 0.382,1.77344 1.148,2.48829 0.766,0.71875 1.684,1.07421 2.758,1.07421 0.812,0 1.644,-0.1289 2.492,-0.39062 0.551,-0.16016 1.805,-0.75391 3.758,-1.78125 1.953,-1.02344 3.305,-1.63672 4.055,-1.83203 1.203,-0.35547 2.488,-0.53516 3.855,-0.53516 3.32,0 6.211,1.28516 8.668,3.85547 2.457,2.57417 3.688,5.61717 3.688,9.13277 0,2.5704 -0.571,5.0782 -1.711,7.5196 -0.848,1.8203 -1.774,3.207 -2.782,4.1484 -1.402,1.3047 -3.32,2.4844 -5.761,3.543 -2.442,1.0547 -4.934,1.5859 -7.473,1.5859 h -1.563 v 1.4649 c 2.571,0.3242 5.153,1.2539 7.739,2.7812 2.59,1.5313 4.468,3.3711 5.64,5.5195 1.172,2.1485 1.758,4.5079 1.758,7.0782 0,3.3554 -1.051,6.0625 -3.148,8.1328 -2.102,2.0664 -4.711,3.0976 -7.836,3.0976 -5.047,0 -9.262,-2.6992 -12.649,-8.1054 l -1.609,0.7812" /><path
         id="path48"
         style="fill:none;stroke:#000000;stroke-width:4;stroke-linecap:butt;stroke-linejoin:miter;stroke-miterlimit:10;stroke-dasharray:none;stroke-opacity:1"
         d="m 975.078,175.176 c 1.988,-68.074 1.988,-68.074 1.988,-68.074" /><path
         id="path50"
         style="fill:#000000;fill-opacity:1;fill-rule:evenodd;stroke:none"
         d="M 1001.23,25.5156 V 18.582 h -8.882 V 1.10156 h -8.055 V 18.582 h -28.027 v 6.25 l 30.711,43.8477 h 5.371 V 25.5156 Z m -16.937,0 V 58.3789 L 961.051,25.5156 h 23.242" /><path
         id="path52"
         style="fill:none;stroke:#000000;stroke-width:4;stroke-linecap:butt;stroke-linejoin:miter;stroke-miterlimit:10;stroke-dasharray:none;stroke-opacity:1"
         d="m 316.23,33.4297 c 44.872,0 44.872,0 44.872,0" /><path
         id="path54"
         style="fill:none;stroke:#000000;stroke-width:4;stroke-linecap:butt;stroke-linejoin:miter;stroke-miterlimit:10;stroke-dasharray:none;stroke-opacity:1"
         d="m 60.3789,33.4297 c 44.8751,0 44.8751,0 44.8751,0" /><path
         id="path56"
         style="fill:none;stroke:#000000;stroke-width:4;stroke-linecap:butt;stroke-linejoin:miter;stroke-miterlimit:10;stroke-dasharray:none;stroke-opacity:1"
         d="m 184.77,30.6016 c 44.875,0 44.875,0 44.875,0" /><path
         id="path58"
         style="fill:#000000;fill-opacity:1;fill-rule:evenodd;stroke:none"
         d="m 356.324,139.418 c 0,7.066 -5.734,12.801 -12.801,12.801 -7.066,0 -12.8,-5.735 -12.8,-12.801 0,-7.066 5.734,-12.801 12.8,-12.801 7.067,0 12.801,5.735 12.801,12.801" /><g
         transform="scale(1.42857,0.571429)"
         id="g60"><path
           id="path62"
           style="fill:none;stroke:#000000;stroke-width:2.65631008;stroke-linecap:round;stroke-linejoin:round;stroke-miterlimit:10;stroke-dasharray:none;stroke-opacity:1"
           d="m 249.427,243.981 c 0,12.367 -4.014,22.402 -8.961,22.402 -4.946,0 -8.96,-10.035 -8.96,-22.402 0,-12.366 4.014,-22.401 8.96,-22.401 4.947,0 8.961,10.035 8.961,22.401 z" /></g><path
         id="path64"
         style="fill:#000000;fill-opacity:1;fill-rule:evenodd;stroke:none"
         d="m 534.984,139.203 c 0,7.067 -5.734,12.801 -12.8,12.801 -7.067,0 -12.801,-5.734 -12.801,-12.801 0,-7.066 5.734,-12.801 12.801,-12.801 7.066,0 12.8,5.735 12.8,12.801" /><g
         transform="scale(1.42857,0.571429)"
         id="g66"><path
           id="path68"
           style="fill:none;stroke:#000000;stroke-width:2.65631008;stroke-linecap:round;stroke-linejoin:round;stroke-miterlimit:10;stroke-dasharray:none;stroke-opacity:1"
           d="m 374.489,243.605 c 0,12.367 -4.014,22.402 -8.96,22.402 -4.947,0 -8.961,-10.035 -8.961,-22.402 0,-12.366 4.014,-22.401 8.961,-22.401 4.946,0 8.96,10.035 8.96,22.401 z" /></g><path
         id="path70"
         style="fill:#000000;fill-opacity:1;fill-rule:evenodd;stroke:none"
         d="m 359.152,206.973 -9.523,-33.106 -1.074,-4.445 c -0.098,-0.422 -0.145,-0.781 -0.145,-1.074 0,-0.52 0.16,-0.977 0.488,-1.368 0.258,-0.292 0.586,-0.437 0.977,-0.437 0.422,0 0.977,0.258 1.66,0.781 1.27,0.942 2.961,2.895 5.078,5.86 l 1.66,-1.172 c -2.246,-3.387 -4.558,-5.965 -6.933,-7.739 -2.379,-1.777 -4.574,-2.664 -6.594,-2.664 -1.398,0 -2.449,0.352 -3.148,1.051 -0.7,0.699 -1.051,1.719 -1.051,3.051 0,1.598 0.359,3.695 1.074,6.301 l 1.027,3.66 c -4.265,-5.567 -8.187,-9.457 -11.769,-11.668 -2.57,-1.598 -5.094,-2.395 -7.567,-2.395 -2.378,0 -4.429,0.985 -6.152,2.957 -1.726,1.969 -2.59,4.676 -2.59,8.129 0,5.176 1.555,10.637 4.664,16.383 3.11,5.742 7.055,10.34 11.84,13.793 3.742,2.734 7.278,4.102 10.598,4.102 1.984,0 3.637,-0.524 4.953,-1.563 1.32,-1.043 2.32,-2.769 3.004,-5.176 l 1.758,5.567 z m -17.382,-2.539 c -2.086,0 -4.297,-0.977 -6.641,-2.93 -3.32,-2.77 -6.277,-6.871 -8.863,-12.305 -2.59,-5.437 -3.883,-10.351 -3.883,-14.746 0,-2.215 0.555,-3.965 1.66,-5.25 1.105,-1.285 2.375,-1.93 3.809,-1.93 3.546,0 7.406,2.622 11.574,7.864 5.566,6.965 8.347,14.109 8.347,21.433 0,2.77 -0.535,4.77 -1.609,6.008 -1.074,1.234 -2.539,1.856 -4.394,1.856 v 0" /><path
         id="path72"
         style="fill:#000000;fill-opacity:1;fill-rule:evenodd;stroke:none"
         d="m 527.398,228.727 -9.617,-33.743 c 3.125,3.254 5.848,5.485 8.176,6.692 2.328,1.203 4.762,1.804 7.301,1.804 3.582,0 6.512,-1.187 8.789,-3.562 2.277,-2.379 3.418,-5.602 3.418,-9.668 0,-5.242 -1.496,-10.457 -4.492,-15.652 -2.996,-5.192 -6.754,-9.235 -11.278,-12.133 -4.527,-2.899 -8.984,-4.344 -13.379,-4.344 -4.918,0 -9.961,1.84 -15.136,5.516 l 14.843,51.125 c 1.137,3.937 1.707,6.25 1.707,6.933 0,0.844 -0.261,1.481 -0.781,1.903 -0.75,0.586 -1.855,0.879 -3.32,0.879 -0.684,0 -1.727,-0.114 -3.125,-0.34 v 1.855 z m -18.894,-65.625 c 3.254,-1.793 6.117,-2.688 8.594,-2.688 2.863,0 5.832,1.051 8.91,3.148 3.074,2.102 5.746,5.641 8.008,10.622 2.261,4.98 3.394,10.011 3.394,15.089 0,2.993 -0.742,5.336 -2.222,7.032 -1.481,1.691 -3.231,2.539 -5.25,2.539 -3.028,0 -5.989,-1.215 -8.887,-3.641 -2.899,-2.422 -4.965,-5.801 -6.199,-10.129 l -6.348,-21.972" /></g></g></svg>