<?xml version="1.0" encoding="UTF-8" standalone="no"?>
<svg
   xmlns:dc="http://purl.org/dc/elements/1.1/"
   xmlns:cc="http://creativecommons.org/ns#"
   xmlns:rdf="http://www.w3.org/1999/02/22-rdf-syntax-ns#"
   xmlns:svg="http://www.w3.org/2000/svg"
   xmlns="http://www.w3.org/2000/svg"
   viewBox="0 0 246.66667 33.333332"
   height="33.333332"
   width="246.66667"
   xml:space="preserve"
   id="svg2"
   version="1.1"><metadata
     id="metadata8"><rdf:RDF><cc:Work
         rdf:about=""><dc:format>image/svg+xml</dc:format><dc:type
           rdf:resource="http://purl.org/dc/dcmitype/StillImage" /></cc:Work></rdf:RDF></metadata><defs
     id="defs6" /><g
     transform="matrix(1.3333333,0,0,-1.3333333,0,33.333333)"
     id="g10"><g
       transform="scale(0.1)"
       id="g12"><path
         id="path14"
         style="fill:#231f20;fill-opacity:1;fill-rule:evenodd;stroke:none"
         d="m 155.359,152.082 c 7.512,0 13.598,-6.09 13.598,-13.598 0,-7.511 -6.086,-13.597 -13.598,-13.597 -7.507,0 -13.597,6.086 -13.597,13.597 0,7.508 6.09,13.598 13.597,13.598" /><path
         id="path16"
         style="fill:none;stroke:#231f20;stroke-width:7.5005002;stroke-linecap:butt;stroke-linejoin:miter;stroke-miterlimit:2.61310005;stroke-dasharray:none;stroke-opacity:1"
         d="m 155.359,152.082 c 7.512,0 13.598,-6.09 13.598,-13.598 0,-7.511 -6.086,-13.597 -13.598,-13.597 -7.507,0 -13.597,6.086 -13.597,13.597 0,7.508 6.09,13.598 13.597,13.598 z" /><path
         id="path18"
         style="fill:#231f20;fill-opacity:1;fill-rule:evenodd;stroke:none"
         d="m 1220.07,151.188 c 7.51,0 13.6,-6.09 13.6,-13.598 0,-7.508 -6.09,-13.598 -13.6,-13.598 -7.51,0 -13.6,6.09 -13.6,13.598 0,7.508 6.09,13.598 13.6,13.598" /><path
         id="path20"
         style="fill:none;stroke:#231f20;stroke-width:7.5005002;stroke-linecap:butt;stroke-linejoin:miter;stroke-miterlimit:2.61310005;stroke-dasharray:none;stroke-opacity:1"
         d="m 1220.07,151.188 c 7.51,0 13.6,-6.09 13.6,-13.598 0,-7.508 -6.09,-13.598 -13.6,-13.598 -7.51,0 -13.6,6.09 -13.6,13.598 0,7.508 6.09,13.598 13.6,13.598 z" /><path
         id="path22"
         style="fill:#231f20;fill-opacity:1;fill-rule:nonzero;stroke:none"
         d="m 175.562,219.641 -9.515,-33.102 -1.067,-4.449 c -0.101,-0.418 -0.148,-0.766 -0.148,-1.067 0,-0.515 0.164,-0.984 0.48,-1.367 0.266,-0.297 0.583,-0.433 0.985,-0.433 0.414,0 0.965,0.25 1.648,0.765 1.285,0.95 2.969,2.903 5.086,5.867 l 1.668,-1.164 c -2.254,-3.382 -4.57,-5.968 -6.933,-7.75 -2.387,-1.769 -4.586,-2.652 -6.602,-2.652 -1.402,0 -2.449,0.352 -3.152,1.051 -0.7,0.703 -1.047,1.715 -1.047,3.051 0,1.582 0.363,3.683 1.082,6.3 l 1.015,3.649 c -4.265,-5.567 -8.183,-9.449 -11.765,-11.668 -2.567,-1.582 -5.102,-2.383 -7.567,-2.383 -2.382,0 -4.433,0.984 -6.152,2.949 -1.73,1.969 -2.582,4.684 -2.582,8.133 0,5.168 1.551,10.637 4.649,16.387 3.117,5.734 7.066,10.332 11.851,13.785 3.734,2.73 7.266,4.098 10.598,4.098 1.984,0 3.636,-0.516 4.953,-1.551 1.316,-1.051 2.316,-2.766 3,-5.184 l 1.765,5.567 z m -17.382,-2.536 c -2.082,0 -4.282,-0.984 -6.633,-2.933 -3.317,-2.766 -6.266,-6.863 -8.867,-12.301 -2.586,-5.43 -3.883,-10.348 -3.883,-14.746 0,-2.219 0.566,-3.969 1.668,-5.25 1.097,-1.285 2.379,-1.918 3.816,-1.918 3.531,0 7.399,2.617 11.567,7.852 5.562,6.964 8.347,14.113 8.347,21.429 0,2.77 -0.531,4.77 -1.617,6.02 -1.062,1.234 -2.531,1.847 -4.398,1.847" /><path
         id="path24"
         style="fill:none;stroke:#231f20;stroke-width:7.5005002;stroke-linecap:butt;stroke-linejoin:miter;stroke-miterlimit:2.61310005;stroke-dasharray:none;stroke-opacity:1"
         d="M 2.61719,137.543 H 1800.36" /><path
         id="path26"
         style="fill:#231f20;fill-opacity:1;fill-rule:evenodd;stroke:none"
         d="m 1796.21,163.891 47.9,-26.348 -47.9,-26.348 v 52.696" /><path
         id="path28"
         style="fill:#231f20;fill-opacity:1;fill-rule:nonzero;stroke:none"
         d="m 1233.82,241.816 -9.61,-33.734 c 3.13,3.254 5.84,5.488 8.18,6.688 2.33,1.195 4.77,1.796 7.3,1.796 3.58,0 6.51,-1.179 8.78,-3.546 2.28,-2.387 3.42,-5.602 3.42,-9.684 0,-5.234 -1.48,-10.453 -4.48,-15.648 -3,-5.188 -6.75,-9.239 -11.29,-12.137 -4.51,-2.883 -8.98,-4.336 -13.38,-4.336 -4.92,0 -9.95,1.836 -15.13,5.519 l 14.85,51.118 c 1.13,3.933 1.7,6.246 1.7,6.929 0,0.852 -0.25,1.489 -0.77,1.903 -0.75,0.597 -1.87,0.882 -3.34,0.882 -0.68,0 -1.71,-0.117 -3.11,-0.332 v 1.848 z m -18.88,-65.617 c 3.25,-1.801 6.11,-2.699 8.58,-2.699 2.87,0 5.84,1.051 8.92,3.152 3.08,2.098 5.75,5.649 8,10.633 2.27,4.969 3.4,10 3.4,15.082 0,3 -0.73,5.332 -2.22,7.035 -1.48,1.684 -3.23,2.532 -5.25,2.532 -3.03,0 -5.99,-1.215 -8.88,-3.633 -2.9,-2.434 -4.97,-5.797 -6.2,-10.133 l -6.35,-21.969" /><path
         id="path30"
         style="fill:#231f20;fill-opacity:1;fill-rule:nonzero;stroke:none"
         d="m 602.773,36.3594 c 0,7.5508 1.137,14.0508 3.418,19.5 2.286,5.4531 5.301,9.5156 9.086,12.1836 2.93,2.1172 5.95,3.1836 9.082,3.1836 5.063,0 9.633,-2.5977 13.664,-7.7657 5.051,-6.4179 7.567,-15.1015 7.567,-26.0859 0,-7.6797 -1.098,-14.1992 -3.317,-19.5625 -2.214,-5.3828 -5.031,-9.28516 -8.464,-11.70312 -3.434,-2.42969 -6.75,-3.63282 -9.95,-3.63282 -6.3,0 -11.57,3.71875 -15.765,11.18364 -3.555,6.2812 -5.321,13.8515 -5.321,22.6992 z m 9.567,-1.2149 c 0,-9.1172 1.117,-16.5664 3.371,-22.3164 1.848,-4.85154 4.629,-7.28513 8.297,-7.28513 1.765,0 3.586,0.80078 5.465,2.36719 1.902,1.58593 3.336,4.23434 4.3,7.93364 1.5,5.5976 2.25,13.5 2.25,23.6835 0,7.5469 -0.785,13.8477 -2.347,18.8985 -1.168,3.75 -2.684,6.3984 -4.535,7.9687 -1.332,1.0664 -2.95,1.5977 -4.836,1.5977 -2.215,0 -4.18,-0.9844 -5.914,-2.9649 -2.332,-2.7031 -3.93,-6.9492 -4.782,-12.75 -0.851,-5.8007 -1.269,-11.5 -1.269,-17.1328" /><path
         id="path32"
         style="fill:none;stroke:#231f20;stroke-width:7.5005002;stroke-linecap:butt;stroke-linejoin:miter;stroke-miterlimit:2.61310005;stroke-dasharray:none;stroke-opacity:1"
         d="m 617.688,167.117 v -57.09" /><path
         id="path34"
         style="fill:#231f20;fill-opacity:1;fill-rule:nonzero;stroke:none"
         d="m 1330.88,63.3594 16.11,7.8672 h 1.62 V 15.3125 c 0,-3.7031 0.15,-6.01953 0.45,-6.93359 0.32,-0.90235 0.96,-1.60157 1.93,-2.10157 0.98,-0.48437 2.97,-0.76562 5.97,-0.83203 V 3.64453 h -24.92 v 1.80078 c 3.13,0.06641 5.15,0.33203 6.07,0.81641 0.9,0.46484 1.53,1.09766 1.9,1.89844 0.35,0.80078 0.53,3.18364 0.53,7.15234 v 35.75 c 0,4.8164 -0.16,7.8984 -0.48,9.2656 -0.24,1.0469 -0.65,1.8164 -1.25,2.2969 -0.6,0.4844 -1.32,0.7344 -2.17,0.7344 -1.2,0 -2.88,-0.5 -5.03,-1.5156 l -0.73,1.5156" /><path
         id="path36"
         style="fill:none;stroke:#231f20;stroke-width:7.5005002;stroke-linecap:butt;stroke-linejoin:miter;stroke-miterlimit:2.61310005;stroke-dasharray:none;stroke-opacity:1"
         d="m 1337.69,167.117 v -57.09" /></g></g></svg>