<?xml version="1.0" encoding="UTF-8" standalone="no"?>
<svg
   xmlns:dc="http://purl.org/dc/elements/1.1/"
   xmlns:cc="http://creativecommons.org/ns#"
   xmlns:rdf="http://www.w3.org/1999/02/22-rdf-syntax-ns#"
   xmlns:svg="http://www.w3.org/2000/svg"
   xmlns="http://www.w3.org/2000/svg"
   viewBox="0 0 129.01334 29.879999"
   height="29.879999"
   width="129.01334"
   xml:space="preserve"
   id="svg2"
   version="1.1"><metadata
     id="metadata8"><rdf:RDF><cc:Work
         rdf:about=""><dc:format>image/svg+xml</dc:format><dc:type
           rdf:resource="http://purl.org/dc/dcmitype/StillImage" /></cc:Work></rdf:RDF></metadata><defs
     id="defs6" /><g
     transform="matrix(1.3333333,0,0,-1.3333333,0,29.88)"
     id="g10"><g
       transform="scale(0.1)"
       id="g12"><path
         id="path14"
         style="fill:none;stroke:#000000;stroke-width:8;stroke-linecap:round;stroke-linejoin:miter;stroke-miterlimit:10;stroke-dasharray:none;stroke-opacity:1"
         d="m 4,137.012 c 953.598,1.136 953.598,1.136 953.598,1.136" /><path
         id="path16"
         style="fill:#000000;fill-opacity:1;fill-rule:evenodd;stroke:none"
         d="m 925.598,138.109 -15.981,-16.019 55.981,16.07 -56.02,15.93 16.02,-15.981" /><path
         id="path18"
         style="fill:none;stroke:#000000;stroke-width:4;stroke-linecap:butt;stroke-linejoin:miter;stroke-miterlimit:10;stroke-dasharray:none;stroke-opacity:1"
         d="m 925.598,138.109 -15.981,-16.019 55.981,16.07 -56.02,15.93 z" /><path
         id="path20"
         style="fill:#000000;fill-opacity:1;fill-rule:evenodd;stroke:none"
         d="M 181.41,13.8477 176.77,1.10156 h -39.063 v 1.8086 c 11.492,10.48044 19.582,19.04294 24.27,25.68364 4.687,6.6406 7.031,12.7109 7.031,18.2109 0,4.1992 -1.285,7.6523 -3.86,10.3515 -2.57,2.7032 -5.644,4.0547 -9.226,4.0547 -3.254,0 -6.176,-0.9531 -8.766,-2.8593 -2.586,-1.9024 -4.5,-4.6954 -5.738,-8.3711 h -1.805 c 0.813,6.0195 2.907,10.6445 6.274,13.8672 3.371,3.2226 7.578,4.832 12.625,4.832 5.367,0 9.851,-1.7227 13.449,-5.1758 3.598,-3.4492 5.394,-7.5195 5.394,-12.207 0,-3.3516 -0.781,-6.7031 -2.343,-10.0586 -2.407,-5.2735 -6.313,-10.8555 -11.719,-16.7461 -8.105,-8.8555 -13.164,-14.1953 -15.184,-16.01564 h 17.286 c 3.515,0 5.98,0.12891 7.398,0.39063 1.414,0.25781 2.691,0.78906 3.832,1.58591 1.141,0.7969 2.133,1.9297 2.98,3.3946 h 1.805" /><path
         id="path22"
         style="fill:none;stroke:#000000;stroke-width:4;stroke-linecap:butt;stroke-linejoin:miter;stroke-miterlimit:10;stroke-dasharray:none;stroke-opacity:1"
         d="m 160.371,175.176 c 1.992,-68.074 1.992,-68.074 1.992,-68.074" /><path
         id="path24"
         style="fill:none;stroke:#000000;stroke-width:4;stroke-linecap:butt;stroke-linejoin:miter;stroke-miterlimit:10;stroke-dasharray:none;stroke-opacity:1"
         d="m 280.371,175.176 c 1.992,-68.074 1.992,-68.074 1.992,-68.074" /><path
         id="path26"
         style="fill:none;stroke:#000000;stroke-width:4;stroke-linecap:butt;stroke-linejoin:miter;stroke-miterlimit:10;stroke-dasharray:none;stroke-opacity:1"
         d="m 400.371,175.176 c 1.992,-68.074 1.992,-68.074 1.992,-68.074" /><path
         id="path28"
         style="fill:none;stroke:#000000;stroke-width:4;stroke-linecap:butt;stroke-linejoin:miter;stroke-miterlimit:10;stroke-dasharray:none;stroke-opacity:1"
         d="m 520.371,175.176 c 1.992,-68.074 1.992,-68.074 1.992,-68.074" /><path
         id="path30"
         style="fill:none;stroke:#000000;stroke-width:4;stroke-linecap:butt;stroke-linejoin:miter;stroke-miterlimit:10;stroke-dasharray:none;stroke-opacity:1"
         d="m 640.371,175.176 c 1.992,-68.074 1.992,-68.074 1.992,-68.074" /><path
         id="path32"
         style="fill:none;stroke:#000000;stroke-width:4;stroke-linecap:butt;stroke-linejoin:miter;stroke-miterlimit:10;stroke-dasharray:none;stroke-opacity:1"
         d="m 760.371,175.176 c 1.992,-68.074 1.992,-68.074 1.992,-68.074" /><path
         id="path34"
         style="fill:#000000;fill-opacity:1;fill-rule:evenodd;stroke:none"
         d="M 664.422,13.8477 659.785,1.10156 h -39.062 v 1.8086 c 11.492,10.48044 19.578,19.04294 24.265,25.68364 4.688,6.6406 7.032,12.7109 7.032,18.2109 0,4.1992 -1.286,7.6523 -3.856,10.3515 -2.57,2.7032 -5.648,4.0547 -9.23,4.0547 -3.254,0 -6.176,-0.9531 -8.762,-2.8593 -2.59,-1.9024 -4.5,-4.6954 -5.738,-8.3711 h -1.809 c 0.816,6.0195 2.906,10.6445 6.277,13.8672 3.368,3.2226 7.575,4.832 12.621,4.832 5.372,0 9.856,-1.7227 13.454,-5.1758 3.597,-3.4492 5.394,-7.5195 5.394,-12.207 0,-3.3516 -0.781,-6.7031 -2.344,-10.0586 -2.41,-5.2735 -6.316,-10.8555 -11.718,-16.7461 -8.106,-8.8555 -13.168,-14.1953 -15.188,-16.01564 h 17.285 c 3.516,0 5.985,0.12891 7.399,0.39063 1.418,0.25781 2.695,0.78906 3.832,1.58591 1.14,0.7969 2.133,1.9297 2.98,3.3946 h 1.805" /><path
         id="path36"
         style="fill:#000000;fill-opacity:1;fill-rule:evenodd;stroke:none"
         d="m 511.555,60.8203 16.113,7.8594 h 1.613 V 12.7734 c 0,-3.7109 0.157,-6.0234 0.465,-6.93356 0.309,-0.91406 0.949,-1.61328 1.926,-2.10156 0.976,-0.48828 2.965,-0.76562 5.957,-0.82812 v -1.8086 h -24.902 v 1.8086 c 3.125,0.0625 5.144,0.33203 6.054,0.80468 0.914,0.47266 1.547,1.10547 1.907,1.90625 0.359,0.79688 0.535,3.17969 0.535,7.15231 v 35.7422 c 0,4.8164 -0.161,7.9102 -0.489,9.2774 -0.226,1.039 -0.64,1.8047 -1.242,2.2929 -0.601,0.4883 -1.328,0.7344 -2.176,0.7344 -1.203,0 -2.878,-0.5039 -5.027,-1.5156 l -0.734,1.5156" /><path
         id="path38"
         style="fill:#000000;fill-opacity:1;fill-rule:evenodd;stroke:none"
         d="m 269.086,60.8203 16.113,7.8594 h 1.613 V 12.7734 c 0,-3.7109 0.153,-6.0234 0.461,-6.93356 0.313,-0.91406 0.954,-1.61328 1.93,-2.10156 0.977,-0.48828 2.965,-0.76562 5.957,-0.82812 v -1.8086 h -24.902 v 1.8086 c 3.125,0.0625 5.144,0.33203 6.054,0.80468 0.915,0.47266 1.547,1.10547 1.907,1.90625 0.355,0.79688 0.535,3.17969 0.535,7.15231 v 35.7422 c 0,4.8164 -0.16,7.9102 -0.488,9.2774 -0.227,1.039 -0.641,1.8047 -1.246,2.2929 -0.602,0.4883 -1.325,0.7344 -2.172,0.7344 -1.203,0 -2.879,-0.5039 -5.028,-1.5156 l -0.734,1.5156" /><path
         id="path40"
         style="fill:#000000;fill-opacity:1;fill-rule:evenodd;stroke:none"
         d="m 382.543,34.9883 c 0,7.5547 1.141,14.0547 3.418,19.5078 2.281,5.4531 5.309,9.5117 9.082,12.1836 2.93,2.1133 5.957,3.1719 9.082,3.1719 5.078,0 9.637,-2.586 13.672,-7.7618 5.047,-6.414 7.57,-15.1054 7.57,-26.0742 0,-7.6836 -1.105,-14.2109 -3.32,-19.582 -2.215,-5.3711 -5.039,-9.26954 -8.473,-11.69141 -3.433,-2.42578 -6.746,-3.64063 -9.937,-3.64063 -6.313,0 -11.571,3.72656 -15.77,11.18364 -3.547,6.2812 -5.324,13.8515 -5.324,22.7031 z m 9.57,-1.2188 c 0,-9.1172 1.125,-16.5547 3.371,-22.3164 1.856,-4.84763 4.621,-7.27341 8.301,-7.27341 1.758,0 3.582,0.78906 5.469,2.36719 1.887,1.57812 3.32,4.22262 4.297,7.93362 1.496,5.6015 2.246,13.4922 2.246,23.6836 0,7.5507 -0.781,13.8515 -2.344,18.8945 -1.172,3.7461 -2.687,6.3984 -4.543,7.9609 -1.332,1.0743 -2.945,1.6094 -4.832,1.6094 -2.215,0 -4.183,-0.9922 -5.91,-2.9766 -2.344,-2.7031 -3.938,-6.9492 -4.785,-12.7461 -0.844,-5.7929 -1.27,-11.5078 -1.27,-17.1367 v 0" /><path
         id="path42"
         style="fill:#000000;fill-opacity:1;fill-rule:evenodd;stroke:none"
         d="m 748.043,55.8867 c 1.887,4.461 4.273,7.9024 7.152,10.3281 2.883,2.4258 6.469,3.6368 10.766,3.6368 5.309,0 9.375,-1.7227 12.207,-5.1758 2.148,-2.5703 3.223,-5.3203 3.223,-8.25 0,-4.8203 -3.028,-9.8008 -9.082,-14.9414 4.07,-1.5977 7.144,-3.875 9.23,-6.836 2.082,-2.9648 3.125,-6.4453 3.125,-10.4492 0,-5.7304 -1.824,-10.6953 -5.469,-14.89451 -4.754,-5.46875 -11.636,-8.20313 -20.656,-8.20313 -4.457,0 -7.492,0.55469 -9.105,1.66016 -1.61,1.10937 -2.418,2.29687 -2.418,3.5664 0,0.94141 0.382,1.77344 1.148,2.48829 0.766,0.71875 1.684,1.07421 2.758,1.07421 0.816,0 1.644,-0.1289 2.492,-0.39062 0.551,-0.16016 1.805,-0.75391 3.758,-1.78125 1.953,-1.02344 3.305,-1.63672 4.055,-1.83203 1.203,-0.35547 2.488,-0.53516 3.855,-0.53516 3.32,0 6.211,1.28516 8.668,3.85547 2.457,2.57417 3.688,5.61717 3.688,9.13277 0,2.5704 -0.571,5.0782 -1.711,7.5196 -0.844,1.8203 -1.774,3.207 -2.782,4.1484 -1.402,1.3047 -3.32,2.4844 -5.761,3.543 -2.442,1.0547 -4.934,1.5859 -7.473,1.5859 h -1.563 v 1.4649 c 2.575,0.3242 5.153,1.2539 7.743,2.7812 2.586,1.5313 4.464,3.3711 5.636,5.5195 1.172,2.1485 1.758,4.5079 1.758,7.0782 0,3.3554 -1.047,6.0625 -3.148,8.1328 -2.098,2.0664 -4.711,3.0976 -7.836,3.0976 -5.047,0 -9.262,-2.6992 -12.649,-8.1054 l -1.609,0.7812" /><path
         id="path44"
         style="fill:none;stroke:#000000;stroke-width:4;stroke-linecap:butt;stroke-linejoin:miter;stroke-miterlimit:10;stroke-dasharray:none;stroke-opacity:1"
         d="m 221.523,33.4297 c 44.872,0 44.872,0 44.872,0" /><path
         id="path46"
         style="fill:none;stroke:#000000;stroke-width:4;stroke-linecap:butt;stroke-linejoin:miter;stroke-miterlimit:10;stroke-dasharray:none;stroke-opacity:1"
         d="m 90.0664,30.6016 c 44.8716,0 44.8716,0 44.8716,0" /><path
         id="path48"
         style="fill:#000000;fill-opacity:1;fill-rule:evenodd;stroke:none"
         d="m 322.398,136.59 c 0,7.066 -5.734,12.801 -12.8,12.801 -7.067,0 -12.801,-5.735 -12.801,-12.801 0,-7.067 5.734,-12.801 12.801,-12.801 7.066,0 12.8,5.734 12.8,12.801" /><g
         transform="scale(1.42857,0.571429)"
         id="g50"><path
           id="path52"
           style="fill:none;stroke:#000000;stroke-width:2.65631008;stroke-linecap:round;stroke-linejoin:round;stroke-miterlimit:10;stroke-dasharray:none;stroke-opacity:1"
           d="m 225.679,239.032 c 0,12.366 -4.014,22.402 -8.961,22.402 -4.946,0 -8.96,-10.036 -8.96,-22.402 0,-12.366 4.014,-22.401 8.96,-22.401 4.947,0 8.961,10.035 8.961,22.401 z" /></g><path
         id="path54"
         style="fill:#000000;fill-opacity:1;fill-rule:evenodd;stroke:none"
         d="m 632.516,136.375 c 0,7.066 -5.735,12.801 -12.801,12.801 -7.067,0 -12.797,-5.735 -12.797,-12.801 0,-7.063 5.73,-12.797 12.797,-12.797 7.066,0 12.801,5.734 12.801,12.797" /><g
         transform="scale(1.42857,0.571429)"
         id="g56"><path
           id="path58"
           style="fill:none;stroke:#000000;stroke-width:2.65631008;stroke-linecap:round;stroke-linejoin:round;stroke-miterlimit:10;stroke-dasharray:none;stroke-opacity:1"
           d="m 442.761,238.656 c 0,12.366 -4.014,22.402 -8.961,22.402 -4.946,0 -8.957,-10.036 -8.957,-22.402 0,-12.359 4.011,-22.394 8.957,-22.394 4.947,0 8.961,10.035 8.961,22.394 z" /></g><path
         id="path60"
         style="fill:#000000;fill-opacity:1;fill-rule:evenodd;stroke:none"
         d="m 334.945,203.262 -9.523,-33.106 -1.074,-4.445 c -0.098,-0.422 -0.145,-0.781 -0.145,-1.074 0,-0.52 0.16,-0.977 0.488,-1.367 0.258,-0.293 0.586,-0.438 0.977,-0.438 0.422,0 0.977,0.262 1.66,0.781 1.27,0.946 2.961,2.899 5.078,5.86 l 1.66,-1.172 c -2.246,-3.387 -4.558,-5.965 -6.933,-7.739 -2.379,-1.777 -4.574,-2.664 -6.594,-2.664 -1.398,0 -2.449,0.352 -3.148,1.051 -0.7,0.699 -1.051,1.719 -1.051,3.051 0,1.598 0.359,3.695 1.074,6.301 l 1.027,3.66 c -4.265,-5.566 -8.187,-9.453 -11.769,-11.668 -2.57,-1.594 -5.094,-2.395 -7.567,-2.395 -2.378,0 -4.429,0.989 -6.152,2.957 -1.726,1.969 -2.59,4.68 -2.59,8.129 0,5.176 1.555,10.637 4.664,16.383 3.11,5.742 7.055,10.344 11.84,13.793 3.746,2.735 7.278,4.102 10.598,4.102 1.984,0 3.637,-0.52 4.953,-1.563 1.32,-1.043 2.32,-2.765 3.004,-5.176 l 1.758,5.567 z m -17.383,-2.539 c -2.085,0 -4.296,-0.977 -6.64,-2.93 -3.32,-2.766 -6.277,-6.867 -8.863,-12.305 -2.59,-5.437 -3.883,-10.351 -3.883,-14.746 0,-2.215 0.554,-3.965 1.66,-5.25 1.109,-1.285 2.375,-1.93 3.809,-1.93 3.55,0 7.406,2.622 11.574,7.864 5.566,6.965 8.347,14.109 8.347,21.433 0,2.77 -0.535,4.77 -1.609,6.008 -1.074,1.238 -2.539,1.856 -4.395,1.856 v 0" /><path
         id="path62"
         style="fill:#000000;fill-opacity:1;fill-rule:evenodd;stroke:none"
         d="m 614.332,225.191 -9.621,-33.738 c 3.125,3.254 5.851,5.485 8.18,6.688 2.328,1.203 4.761,1.808 7.3,1.808 3.579,0 6.508,-1.191 8.789,-3.566 2.278,-2.375 3.418,-5.598 3.418,-9.668 0,-5.242 -1.5,-10.457 -4.492,-15.649 -2.996,-5.191 -6.758,-9.238 -11.281,-12.132 -4.523,-2.899 -8.984,-4.348 -13.379,-4.348 -4.914,0 -9.961,1.84 -15.137,5.516 l 14.844,51.125 c 1.141,3.937 1.711,6.25 1.711,6.933 0,0.848 -0.262,1.481 -0.781,1.902 -0.75,0.586 -1.856,0.879 -3.321,0.879 -0.683,0 -1.726,-0.113 -3.124,-0.339 v 1.855 z m -18.898,-65.625 c 3.254,-1.789 6.121,-2.683 8.593,-2.683 2.864,0 5.836,1.047 8.911,3.148 3.078,2.098 5.746,5.641 8.007,10.617 2.266,4.985 3.395,10.012 3.395,15.09 0,2.996 -0.738,5.34 -2.223,7.032 -1.48,1.691 -3.23,2.539 -5.246,2.539 -3.027,0 -5.992,-1.211 -8.887,-3.637 -2.898,-2.426 -4.964,-5.805 -6.203,-10.133 l -6.347,-21.973" /></g></g></svg>