<?xml version="1.0" encoding="UTF-8" standalone="no"?>
<svg
   xmlns:dc="http://purl.org/dc/elements/1.1/"
   xmlns:cc="http://creativecommons.org/ns#"
   xmlns:rdf="http://www.w3.org/1999/02/22-rdf-syntax-ns#"
   xmlns:svg="http://www.w3.org/2000/svg"
   xmlns="http://www.w3.org/2000/svg"
   viewBox="0 0 373.33334 98.666664"
   height="98.666664"
   width="373.33334"
   xml:space="preserve"
   id="svg2"
   version="1.1"><metadata
     id="metadata8"><rdf:RDF><cc:Work
         rdf:about=""><dc:format>image/svg+xml</dc:format><dc:type
           rdf:resource="http://purl.org/dc/dcmitype/StillImage" /></cc:Work></rdf:RDF></metadata><defs
     id="defs6" /><g
     transform="matrix(1.3333333,0,0,-1.3333333,0,98.666667)"
     id="g10"><g
       transform="scale(0.1)"
       id="g12"><path
         id="path14"
         style="fill:#ffffff;fill-opacity:1;fill-rule:evenodd;stroke:none"
         d="m 2095.51,6.26953 h 700.855 v 725.047 H 2095.51 Z" /><path
         id="path16"
         style="fill:none;stroke:#0b0c0b;stroke-width:2.16000009;stroke-linecap:butt;stroke-linejoin:miter;stroke-miterlimit:2.61310005;stroke-dasharray:none;stroke-opacity:1"
         d="m 2095.51,6.26953 h 700.855 v 725.047 H 2095.51 Z" /><path
         id="path18"
         style="fill:none;stroke:#101211;stroke-width:2.16000009;stroke-linecap:butt;stroke-linejoin:miter;stroke-miterlimit:2.61310005;stroke-dasharray:none;stroke-opacity:1"
         d="M 2183.12,6.26953 V 731.316" /><path
         id="path20"
         style="fill:none;stroke:#101211;stroke-width:2.16000009;stroke-linecap:butt;stroke-linejoin:miter;stroke-miterlimit:2.61310005;stroke-dasharray:none;stroke-opacity:1"
         d="M 2270.73,6.26953 V 731.316" /><path
         id="path22"
         style="fill:none;stroke:#101211;stroke-width:2.16000009;stroke-linecap:butt;stroke-linejoin:miter;stroke-miterlimit:2.61310005;stroke-dasharray:none;stroke-opacity:1"
         d="M 2358.33,6.26953 V 731.316" /><path
         id="path24"
         style="fill:none;stroke:#101211;stroke-width:2.16000009;stroke-linecap:butt;stroke-linejoin:miter;stroke-miterlimit:2.61310005;stroke-dasharray:none;stroke-opacity:1"
         d="M 2445.94,6.26953 V 731.316" /><path
         id="path26"
         style="fill:none;stroke:#101211;stroke-width:2.16000009;stroke-linecap:butt;stroke-linejoin:miter;stroke-miterlimit:2.61310005;stroke-dasharray:none;stroke-opacity:1"
         d="M 2533.55,6.26953 V 731.316" /><path
         id="path28"
         style="fill:none;stroke:#101211;stroke-width:2.16000009;stroke-linecap:butt;stroke-linejoin:miter;stroke-miterlimit:2.61310005;stroke-dasharray:none;stroke-opacity:1"
         d="M 2621.15,6.26953 V 731.316" /><path
         id="path30"
         style="fill:none;stroke:#101211;stroke-width:2.16000009;stroke-linecap:butt;stroke-linejoin:miter;stroke-miterlimit:2.61310005;stroke-dasharray:none;stroke-opacity:1"
         d="M 2708.76,6.26953 V 731.316" /><path
         id="path32"
         style="fill:none;stroke:#101211;stroke-width:2.16000009;stroke-linecap:butt;stroke-linejoin:miter;stroke-miterlimit:2.61310005;stroke-dasharray:none;stroke-opacity:1"
         d="m 2095.51,96.9023 h 700.86" /><path
         id="path34"
         style="fill:none;stroke:#101211;stroke-width:2.16000009;stroke-linecap:butt;stroke-linejoin:miter;stroke-miterlimit:2.61310005;stroke-dasharray:none;stroke-opacity:1"
         d="m 2095.51,187.531 h 700.86" /><path
         id="path36"
         style="fill:none;stroke:#101211;stroke-width:2.16000009;stroke-linecap:butt;stroke-linejoin:miter;stroke-miterlimit:2.61310005;stroke-dasharray:none;stroke-opacity:1"
         d="m 2095.51,278.16 h 700.86" /><path
         id="path38"
         style="fill:none;stroke:#101211;stroke-width:2.16000009;stroke-linecap:butt;stroke-linejoin:miter;stroke-miterlimit:2.61310005;stroke-dasharray:none;stroke-opacity:1"
         d="m 2095.51,368.793 h 700.86" /><path
         id="path40"
         style="fill:none;stroke:#101211;stroke-width:2.16000009;stroke-linecap:butt;stroke-linejoin:miter;stroke-miterlimit:2.61310005;stroke-dasharray:none;stroke-opacity:1"
         d="m 2095.51,459.422 h 700.86" /><path
         id="path42"
         style="fill:none;stroke:#101211;stroke-width:2.16000009;stroke-linecap:butt;stroke-linejoin:miter;stroke-miterlimit:2.61310005;stroke-dasharray:none;stroke-opacity:1"
         d="m 2095.51,550.055 h 700.86" /><path
         id="path44"
         style="fill:none;stroke:#101211;stroke-width:2.16000009;stroke-linecap:butt;stroke-linejoin:miter;stroke-miterlimit:2.61310005;stroke-dasharray:none;stroke-opacity:1"
         d="m 2095.51,640.684 h 700.86" /><path
         id="path46"
         style="fill:none;stroke:#231f20;stroke-width:7.5005002;stroke-linecap:butt;stroke-linejoin:miter;stroke-miterlimit:2.61310005;stroke-dasharray:none;stroke-opacity:1"
         d="m 2095.51,368.793 h 657.11" /><path
         id="path48"
         style="fill:#231f20;fill-opacity:1;fill-rule:evenodd;stroke:none"
         d="m 2748.47,395.141 47.9,-26.348 -47.9,-26.348 v 52.696" /><path
         id="path50"
         style="fill:none;stroke:#231f20;stroke-width:7.5005002;stroke-linecap:butt;stroke-linejoin:miter;stroke-miterlimit:2.61310005;stroke-dasharray:none;stroke-opacity:1"
         d="M 2445.43,6.26953 V 687.57" /><path
         id="path52"
         style="fill:#231f20;fill-opacity:1;fill-rule:evenodd;stroke:none"
         d="m 2419.09,683.418 26.34,47.898 26.35,-47.898 h -52.69" /><path
         id="path54"
         style="fill:none;stroke:#0b0c0b;stroke-width:7.5005002;stroke-linecap:butt;stroke-linejoin:miter;stroke-miterlimit:2.61310005;stroke-dasharray:none;stroke-opacity:1"
         d="m 2621.16,3.91016 -3.51,3.625 -3.51,3.62504 -3.5,3.625 -3.5,3.625 -3.51,3.6289 -3.5,3.625 -3.5,3.625 -3.51,3.6211 -3.5,3.6289 -3.51,3.625 -3.5,3.625 -3.5,3.625 -3.51,3.625 -3.51,3.625 -3.5,3.625 -3.5,3.625 -3.51,3.625 -3.5,3.6289 -3.51,3.6211 -3.5,3.625 -3.5,3.625 -3.51,3.625 -3.51,3.625 -3.5,3.6289 -3.5,3.625 -3.51,3.625 -3.5,3.625 -3.5,3.625 -3.51,3.625 -3.5,3.625 -3.51,3.625 -3.5,3.625 -3.51,3.625 -3.5,3.625 -3.5,3.625 -3.51,3.625 -3.5,3.629 -3.51,3.625 -3.5,3.625 -3.51,3.625 -3.5,3.625 -3.5,3.625 -3.51,3.625 -3.51,3.625 -3.5,3.625 -3.5,3.625 -3.51,3.625 -3.5,3.625 -3.5,3.625 -3.51,3.629 -3.5,3.621 -3.51,3.629 -3.5,3.621 -3.51,3.625 -3.5,3.625 -3.51,3.629 -3.5,3.625 -3.5,3.625 -3.51,3.625 -3.5,3.625 -3.51,3.625 -3.5,3.625 -3.5,3.629 -3.51,3.621 -3.5,3.625 -3.5,3.625 -3.51,3.625 -3.51,3.625 -3.5,3.629 -3.5,3.625 -3.51,3.621 -3.5,3.629 -3.51,3.621 -3.5,3.629 -3.51,3.625 -3.5,3.625 -3.51,3.625 -3.5,3.625 -3.5,3.625 -3.51,3.625 -3.5,3.625 -3.51,3.625 -3.5,3.629 -3.51,3.621 -3.5,3.625 -3.5,3.625 -3.5,3.629 -3.51,3.625 -3.51,3.625 -3.5,3.625 -3.5,3.621 -3.51,3.629 -3.5,3.625 -3.51,3.625 -3.5,3.625 -3.5,3.625 -3.51,3.625 -3.51,3.625 -3.5,3.625 -3.5,3.629 -3.51,3.624 -3.5,3.622 -3.51,3.628 -3.5,3.622 -3.51,3.625 -3.5,3.629 -3.5,3.624 -3.51,3.626 -3.5,3.624 -3.51,3.626 -3.5,3.624 -3.5,3.626 -3.51,3.624 -3.51,3.626 -3.5,3.624 -3.5,3.626 -3.5,3.624 -3.51,3.626 -3.51,3.628 -3.5,3.625 -3.5,3.625 -3.51,3.625 -3.5,3.625 -3.51,3.625 -3.5,3.625 -3.5,3.625 -3.51,3.625 -3.5,3.625 -3.51,3.625 -3.5,3.625 -3.51,3.625 -3.5,3.629 -3.5,3.625 -3.51,3.621 -3.51,3.629 -3.5,3.621 -3.5,3.625 -3.5,3.629 -3.51,3.625 -3.51,3.625 -3.5,3.625 -3.5,3.625 -3.51,3.625 -3.5,3.625 -3.5,3.625 -3.51,3.629 -3.5,3.621 -3.51,3.625 -3.5,3.625 -3.51,3.625 v 0" /><path
         id="path56"
         style="fill:#ffffff;fill-opacity:1;fill-rule:evenodd;stroke:none"
         d="m 136.426,6.26953 h 700.859 v 725.047 H 136.426 Z" /><path
         id="path58"
         style="fill:none;stroke:#0b0c0b;stroke-width:2.16000009;stroke-linecap:butt;stroke-linejoin:miter;stroke-miterlimit:2.61310005;stroke-dasharray:none;stroke-opacity:1"
         d="m 136.426,6.26953 h 700.859 v 725.047 H 136.426 Z" /><path
         id="path60"
         style="fill:none;stroke:#101211;stroke-width:2.16000009;stroke-linecap:butt;stroke-linejoin:miter;stroke-miterlimit:2.61310005;stroke-dasharray:none;stroke-opacity:1"
         d="M 224.035,6.26953 V 731.316" /><path
         id="path62"
         style="fill:none;stroke:#101211;stroke-width:2.16000009;stroke-linecap:butt;stroke-linejoin:miter;stroke-miterlimit:2.61310005;stroke-dasharray:none;stroke-opacity:1"
         d="M 311.641,6.26953 V 731.316" /><path
         id="path64"
         style="fill:none;stroke:#101211;stroke-width:2.16000009;stroke-linecap:butt;stroke-linejoin:miter;stroke-miterlimit:2.61310005;stroke-dasharray:none;stroke-opacity:1"
         d="M 399.25,6.26953 V 731.316" /><path
         id="path66"
         style="fill:none;stroke:#101211;stroke-width:2.16000009;stroke-linecap:butt;stroke-linejoin:miter;stroke-miterlimit:2.61310005;stroke-dasharray:none;stroke-opacity:1"
         d="M 486.855,6.26953 V 731.316" /><path
         id="path68"
         style="fill:none;stroke:#101211;stroke-width:2.16000009;stroke-linecap:butt;stroke-linejoin:miter;stroke-miterlimit:2.61310005;stroke-dasharray:none;stroke-opacity:1"
         d="M 574.461,6.26953 V 731.316" /><path
         id="path70"
         style="fill:none;stroke:#101211;stroke-width:2.16000009;stroke-linecap:butt;stroke-linejoin:miter;stroke-miterlimit:2.61310005;stroke-dasharray:none;stroke-opacity:1"
         d="M 662.07,6.26953 V 731.316" /><path
         id="path72"
         style="fill:none;stroke:#101211;stroke-width:2.16000009;stroke-linecap:butt;stroke-linejoin:miter;stroke-miterlimit:2.61310005;stroke-dasharray:none;stroke-opacity:1"
         d="M 749.676,6.26953 V 731.316" /><path
         id="path74"
         style="fill:none;stroke:#101211;stroke-width:2.16000009;stroke-linecap:butt;stroke-linejoin:miter;stroke-miterlimit:2.61310005;stroke-dasharray:none;stroke-opacity:1"
         d="M 136.426,96.9023 H 837.285" /><path
         id="path76"
         style="fill:none;stroke:#101211;stroke-width:2.16000009;stroke-linecap:butt;stroke-linejoin:miter;stroke-miterlimit:2.61310005;stroke-dasharray:none;stroke-opacity:1"
         d="M 136.426,187.531 H 837.285" /><path
         id="path78"
         style="fill:none;stroke:#101211;stroke-width:2.16000009;stroke-linecap:butt;stroke-linejoin:miter;stroke-miterlimit:2.61310005;stroke-dasharray:none;stroke-opacity:1"
         d="M 136.426,278.16 H 837.285" /><path
         id="path80"
         style="fill:none;stroke:#101211;stroke-width:2.16000009;stroke-linecap:butt;stroke-linejoin:miter;stroke-miterlimit:2.61310005;stroke-dasharray:none;stroke-opacity:1"
         d="M 136.426,368.793 H 837.285" /><path
         id="path82"
         style="fill:none;stroke:#101211;stroke-width:2.16000009;stroke-linecap:butt;stroke-linejoin:miter;stroke-miterlimit:2.61310005;stroke-dasharray:none;stroke-opacity:1"
         d="M 136.426,459.422 H 837.285" /><path
         id="path84"
         style="fill:none;stroke:#101211;stroke-width:2.16000009;stroke-linecap:butt;stroke-linejoin:miter;stroke-miterlimit:2.61310005;stroke-dasharray:none;stroke-opacity:1"
         d="M 136.426,550.055 H 837.285" /><path
         id="path86"
         style="fill:none;stroke:#101211;stroke-width:2.16000009;stroke-linecap:butt;stroke-linejoin:miter;stroke-miterlimit:2.61310005;stroke-dasharray:none;stroke-opacity:1"
         d="M 136.426,640.684 H 837.285" /><path
         id="path88"
         style="fill:none;stroke:#231f20;stroke-width:7.5005002;stroke-linecap:butt;stroke-linejoin:miter;stroke-miterlimit:2.61310005;stroke-dasharray:none;stroke-opacity:1"
         d="M 136.426,368.793 H 793.539" /><path
         id="path90"
         style="fill:#231f20;fill-opacity:1;fill-rule:evenodd;stroke:none"
         d="m 789.383,395.141 47.902,-26.348 -47.902,-26.348 v 52.696" /><path
         id="path92"
         style="fill:none;stroke:#231f20;stroke-width:7.5005002;stroke-linecap:butt;stroke-linejoin:miter;stroke-miterlimit:2.61310005;stroke-dasharray:none;stroke-opacity:1"
         d="M 486.918,5.84766 V 687.148" /><path
         id="path94"
         style="fill:#231f20;fill-opacity:1;fill-rule:evenodd;stroke:none"
         d="m 460.57,682.996 26.348,47.899 26.348,-47.899 H 460.57" /><path
         id="path96"
         style="fill:none;stroke:#0b0c0b;stroke-width:7.5005002;stroke-linecap:butt;stroke-linejoin:miter;stroke-miterlimit:2.61310005;stroke-dasharray:none;stroke-opacity:1"
         d="m 399.93,734.328 v 0 l 3.504,-14.359 3.504,-14.063 3.503,-13.777 3.504,-13.484 3.504,-13.196 3.504,-12.906 3.508,-12.617 3.504,-12.324 3.504,-12.04 3.504,-11.746 3.504,-11.453 3.503,-11.168 3.504,-10.875 3.504,-10.586 3.504,-10.293 3.508,-10.007 3.504,-9.715 3.504,-9.426 3.504,-9.137 3.5,-8.844 3.508,-8.554 3.503,-8.266 3.504,-7.976 3.504,-7.688 3.508,-7.394 3.5,-7.106 3.504,-6.816 3.508,-6.524 3.504,-6.238 3.504,-5.941 3.503,-5.657 3.504,-5.367 3.504,-5.074 3.504,-4.785 3.504,-4.496 3.504,-4.207 3.508,-3.914 3.504,-3.625 3.504,-3.336 3.504,-3.043 3.503,-2.758 3.504,-2.461 3.504,-2.18 3.504,-1.883 3.504,-1.597 3.508,-1.301 3.504,-1.016 3.504,-0.726 3.504,-0.434 3.504,-0.144 3.503,0.144 3.504,0.434 3.504,0.726 3.504,1.016 3.504,1.301 3.504,1.597 3.504,1.883 3.508,2.18 3.504,2.461 3.504,2.758 3.503,3.043 3.504,3.336 3.504,3.625 3.504,3.914 3.504,4.207 3.504,4.496 3.508,4.785 3.504,5.074 3.504,5.367 3.503,5.657 3.5,5.941 3.508,6.238 3.504,6.524 3.504,6.816 3.504,7.106 3.508,7.394 3.5,7.688 3.504,7.976 3.508,8.266 3.503,8.554 3.504,8.844 3.504,9.137 3.504,9.426 3.504,9.715 3.504,10.007 3.504,10.293 3.504,10.586 3.508,10.875 3.503,11.168 3.504,11.453 3.504,11.746 3.504,12.04 3.504,12.324 3.504,12.617 3.504,12.906 3.504,13.196 3.508,13.484 3.504,13.777 3.503,14.063 3.5,14.359 v 0" /><path
         id="path98"
         style="fill:#231f20;fill-opacity:1;fill-rule:nonzero;stroke:none"
         d="m 583.926,347.348 16.117,7.867 h 1.617 v -55.914 c 0,-3.703 0.149,-6.02 0.449,-6.934 0.321,-0.902 0.969,-1.601 1.934,-2.101 0.984,-0.485 2.969,-0.766 5.969,-0.832 v -1.801 h -24.918 v 1.801 c 3.133,0.066 5.152,0.332 6.066,0.816 0.902,0.465 1.535,1.098 1.899,1.898 0.351,0.801 0.535,3.184 0.535,7.153 v 35.75 c 0,4.812 -0.164,7.898 -0.485,9.265 -0.23,1.047 -0.648,1.817 -1.25,2.297 -0.601,0.485 -1.312,0.735 -2.164,0.735 -1.203,0 -2.883,-0.5 -5.035,-1.516 l -0.734,1.516" /><path
         id="path100"
         style="fill:none;stroke:#231f20;stroke-width:7.5005002;stroke-linecap:butt;stroke-linejoin:miter;stroke-miterlimit:2.61310005;stroke-dasharray:none;stroke-opacity:1"
         d="m 574.859,397.621 v -57.09" /><path
         id="path102"
         style="fill:#ffffff;fill-opacity:1;fill-rule:evenodd;stroke:none"
         d="m 1115.97,6.26953 h 700.855 v 725.047 H 1115.97 Z" /><path
         id="path104"
         style="fill:none;stroke:#0b0c0b;stroke-width:2.16000009;stroke-linecap:butt;stroke-linejoin:miter;stroke-miterlimit:2.61310005;stroke-dasharray:none;stroke-opacity:1"
         d="m 1115.97,6.26953 h 700.855 v 725.047 H 1115.97 Z" /><path
         id="path106"
         style="fill:none;stroke:#101211;stroke-width:2.16000009;stroke-linecap:butt;stroke-linejoin:miter;stroke-miterlimit:2.61310005;stroke-dasharray:none;stroke-opacity:1"
         d="M 1203.57,6.26953 V 731.316" /><path
         id="path108"
         style="fill:none;stroke:#101211;stroke-width:2.16000009;stroke-linecap:butt;stroke-linejoin:miter;stroke-miterlimit:2.61310005;stroke-dasharray:none;stroke-opacity:1"
         d="M 1291.18,6.26953 V 731.316" /><path
         id="path110"
         style="fill:none;stroke:#101211;stroke-width:2.16000009;stroke-linecap:butt;stroke-linejoin:miter;stroke-miterlimit:2.61310005;stroke-dasharray:none;stroke-opacity:1"
         d="M 1378.79,6.26953 V 731.316" /><path
         id="path112"
         style="fill:none;stroke:#101211;stroke-width:2.16000009;stroke-linecap:butt;stroke-linejoin:miter;stroke-miterlimit:2.61310005;stroke-dasharray:none;stroke-opacity:1"
         d="M 1466.4,6.26953 V 731.316" /><path
         id="path114"
         style="fill:none;stroke:#101211;stroke-width:2.16000009;stroke-linecap:butt;stroke-linejoin:miter;stroke-miterlimit:2.61310005;stroke-dasharray:none;stroke-opacity:1"
         d="M 1554,6.26953 V 731.316" /><path
         id="path116"
         style="fill:none;stroke:#101211;stroke-width:2.16000009;stroke-linecap:butt;stroke-linejoin:miter;stroke-miterlimit:2.61310005;stroke-dasharray:none;stroke-opacity:1"
         d="M 1641.61,6.26953 V 731.316" /><path
         id="path118"
         style="fill:none;stroke:#101211;stroke-width:2.16000009;stroke-linecap:butt;stroke-linejoin:miter;stroke-miterlimit:2.61310005;stroke-dasharray:none;stroke-opacity:1"
         d="M 1729.22,6.26953 V 731.316" /><path
         id="path120"
         style="fill:none;stroke:#101211;stroke-width:2.16000009;stroke-linecap:butt;stroke-linejoin:miter;stroke-miterlimit:2.61310005;stroke-dasharray:none;stroke-opacity:1"
         d="m 1115.97,96.9023 h 700.85" /><path
         id="path122"
         style="fill:none;stroke:#101211;stroke-width:2.16000009;stroke-linecap:butt;stroke-linejoin:miter;stroke-miterlimit:2.61310005;stroke-dasharray:none;stroke-opacity:1"
         d="m 1115.97,187.531 h 700.85" /><path
         id="path124"
         style="fill:none;stroke:#101211;stroke-width:2.16000009;stroke-linecap:butt;stroke-linejoin:miter;stroke-miterlimit:2.61310005;stroke-dasharray:none;stroke-opacity:1"
         d="m 1115.97,278.16 h 700.85" /><path
         id="path126"
         style="fill:none;stroke:#101211;stroke-width:2.16000009;stroke-linecap:butt;stroke-linejoin:miter;stroke-miterlimit:2.61310005;stroke-dasharray:none;stroke-opacity:1"
         d="m 1115.97,368.793 h 700.85" /><path
         id="path128"
         style="fill:none;stroke:#101211;stroke-width:2.16000009;stroke-linecap:butt;stroke-linejoin:miter;stroke-miterlimit:2.61310005;stroke-dasharray:none;stroke-opacity:1"
         d="m 1115.97,459.422 h 700.85" /><path
         id="path130"
         style="fill:none;stroke:#101211;stroke-width:2.16000009;stroke-linecap:butt;stroke-linejoin:miter;stroke-miterlimit:2.61310005;stroke-dasharray:none;stroke-opacity:1"
         d="m 1115.97,550.055 h 700.85" /><path
         id="path132"
         style="fill:none;stroke:#101211;stroke-width:2.16000009;stroke-linecap:butt;stroke-linejoin:miter;stroke-miterlimit:2.61310005;stroke-dasharray:none;stroke-opacity:1"
         d="m 1115.97,640.684 h 700.85" /><path
         id="path134"
         style="fill:none;stroke:#231f20;stroke-width:7.5005002;stroke-linecap:butt;stroke-linejoin:miter;stroke-miterlimit:2.61310005;stroke-dasharray:none;stroke-opacity:1"
         d="m 1115.97,368.793 h 657.11" /><path
         id="path136"
         style="fill:#231f20;fill-opacity:1;fill-rule:evenodd;stroke:none"
         d="m 1768.93,395.141 47.89,-26.348 -47.89,-26.348 v 52.696" /><path
         id="path138"
         style="fill:none;stroke:#231f20;stroke-width:7.5005002;stroke-linecap:butt;stroke-linejoin:miter;stroke-miterlimit:2.61310005;stroke-dasharray:none;stroke-opacity:1"
         d="M 1466.13,2.91797 V 684.219" /><path
         id="path140"
         style="fill:#231f20;fill-opacity:1;fill-rule:evenodd;stroke:none"
         d="m 1439.79,680.066 26.34,47.899 26.35,-47.899 h -52.69" /><path
         id="path142"
         style="fill:none;stroke:#0b0c0b;stroke-width:7.5005002;stroke-linecap:butt;stroke-linejoin:miter;stroke-miterlimit:2.61310005;stroke-dasharray:none;stroke-opacity:1"
         d="m 1466.71,370.469 -1.75,12.82 -1.75,5.309 -1.75,4.074 -1.75,3.43 -1.75,3.027 -1.76,2.738 -1.75,2.516 -1.75,2.34 -1.75,2.199 -1.75,2.078 -1.76,1.98 -1.75,1.891 -1.75,1.813 -1.75,1.746 -1.76,1.683 -1.75,1.625 -1.75,1.578 -1.75,1.532 -1.75,1.492 -1.76,1.449 -1.75,1.418 -1.75,1.383 -1.75,1.348 -1.76,1.32 -1.75,1.301 -1.75,1.265 -1.75,1.246 -1.75,1.219 -1.76,1.203 -1.75,1.18 -1.75,1.16 -1.75,1.141 -1.76,1.125 -1.75,1.105 -1.75,1.098 -1.75,1.074 -1.75,1.059 -1.76,1.046 -1.75,1.036 -1.75,1.015 -1.75,1.008 -1.76,0.992 -1.74,0.989 -1.76,0.968 -1.75,0.961 -1.75,0.953 -1.75,0.938 -1.76,0.93 -1.75,0.921 -1.75,0.911 -1.75,0.902 -1.75,0.891 -1.76,0.886 -1.75,0.875 -1.75,0.871 -1.75,0.86 -1.76,0.851 -1.75,0.844 -1.75,0.836 -1.75,0.832 -1.75,0.824 -1.76,0.817 -1.75,0.812 -1.75,0.805 -1.75,0.797 -1.76,0.793 -1.75,0.785 -1.75,0.781 -1.75,0.774 -1.75,0.769 -1.76,0.762 -1.75,0.758 -1.75,0.753 -1.75,0.747 -1.76,0.746 -1.75,0.734 -1.75,0.734 -1.75,0.727 -1.75,0.727 -1.76,0.714 -1.75,0.715 -1.75,0.711 -1.75,0.703 -1.75,0.703 -1.75,0.7 -1.76,0.691 -1.75,0.688 -1.75,0.687 -1.76,0.68 -1.75,0.675 -1.75,0.676 -1.75,0.668 -1.75,0.668 -1.75,0.664 -1.76,0.657 -1.75,0.656 -1.75,0.652 -1.75,0.652 -1.76,0.645 -1.75,0.641 -1.75,0.64 -1.75,0.637 -1.76,0.633 -1.75,0.629 -1.75,0.629 -1.75,0.621 -1.75,0.621 -1.76,0.621 -1.75,0.613 -1.75,0.613 -1.75,0.61 -1.75,0.605 -1.76,0.606 -1.75,0.601 -1.75,0.598 -1.75,0.598 -1.76,0.593 -1.75,0.594 -1.75,0.586 -1.75,0.586 -1.75,0.586 -1.76,0.578 -1.75,0.578 -1.75,0.578 -1.75,0.578 -1.75,0.567 -1.75,0.57 -1.76,0.57 -1.75,0.567 -1.75,0.558 -1.76,0.567 -1.75,0.558 -1.75,0.555 -1.75,0.555 -1.75,0.555 -1.75,0.546 -1.76,0.547 -1.75,0.551 -1.75,0.543 -1.76,0.543 -1.75,0.543 -1.75,0.535 -1.75,0.539 -1.75,0.535 -1.75,0.532 -1.76,0.531 -1.75,0.531 -1.75,0.527 -1.75,0.528 -1.76,0.519 -1.75,0.528 -1.75,0.519 -1.75,0.52 -1.75,0.515 -1.76,0.516 -1.75,0.512 -1.75,0.515 -1.75,0.508 -1.76,0.512 -1.74,0.508 -1.76,0.504 -1.75,0.503 -1.75,0.504 -1.76,0.5 -1.75,0.5 -1.75,0.496 -1.75,0.497 -1.75,0.496 -1.75,0.496 -1.76,0.492 -1.75,0.492 -1.75,0.488 -1.76,0.489 -1.75,0.484 -1.75,0.488 -1.75,0.481 -1.75,0.484 -1.75,0.481 -1.76,0.476 -1.75,0.481 -1.75,0.48 -1.76,0.473 -1.75,0.472 -1.75,0.473 -1.75,0.473 -1.75,0.472 -1.75,0.469 -1.76,0.465 -1.75,0.469 -1.75,0.469 -1.76,0.46 -1.75,0.465 -1.75,0.461 -1.75,0.461 -1.75,0.461 -1.75,0.457 -1.76,0.457 -1.75,0.457 -1.75,0.457 -1.75,0.453" /><path
         id="path144"
         style="fill:#231f20;fill-opacity:1;fill-rule:nonzero;stroke:none"
         d="m 1561.12,349.996 16.11,7.867 h 1.62 v -55.918 c 0,-3.699 0.15,-6.015 0.45,-6.933 0.32,-0.899 0.97,-1.602 1.93,-2.098 0.99,-0.484 2.97,-0.766 5.97,-0.836 v -1.797 h -24.91 v 1.797 c 3.13,0.07 5.14,0.336 6.06,0.817 0.9,0.468 1.53,1.101 1.9,1.902 0.35,0.801 0.54,3.18 0.54,7.148 v 35.75 c 0,4.817 -0.17,7.903 -0.49,9.27 -0.23,1.047 -0.65,1.816 -1.25,2.297 -0.6,0.484 -1.32,0.734 -2.16,0.734 -1.21,0 -2.89,-0.5 -5.04,-1.516 l -0.73,1.516" /><path
         id="path146"
         style="fill:none;stroke:#231f20;stroke-width:7.5005002;stroke-linecap:butt;stroke-linejoin:miter;stroke-miterlimit:2.61310005;stroke-dasharray:none;stroke-opacity:1"
         d="m 1552.87,397.621 v -57.09" /><path
         id="path148"
         style="fill:#231f20;fill-opacity:1;fill-rule:nonzero;stroke:none"
         d="m 2545.57,350.344 16.12,7.863 h 1.61 v -55.914 c 0,-3.703 0.16,-6.02 0.46,-6.934 0.31,-0.902 0.96,-1.601 1.93,-2.101 0.98,-0.485 2.97,-0.766 5.97,-0.832 v -1.801 h -24.92 v 1.801 c 3.13,0.066 5.15,0.336 6.06,0.816 0.91,0.469 1.54,1.098 1.9,1.899 0.35,0.8 0.54,3.183 0.54,7.152 v 35.75 c 0,4.816 -0.17,7.898 -0.48,9.266 -0.24,1.05 -0.65,1.816 -1.25,2.3 -0.6,0.485 -1.32,0.735 -2.17,0.735 -1.2,0 -2.88,-0.504 -5.04,-1.52 l -0.73,1.52" /><path
         id="path150"
         style="fill:none;stroke:#231f20;stroke-width:7.5005002;stroke-linecap:butt;stroke-linejoin:miter;stroke-miterlimit:2.61310005;stroke-dasharray:none;stroke-opacity:1"
         d="m 2533.92,397.621 v -57.09" /><path
         id="path152"
         style="fill:#231f20;fill-opacity:1;fill-rule:nonzero;stroke:none"
         d="m 524.922,720.176 c 1.098,-1.883 1.863,-3.653 2.297,-5.285 0.418,-1.649 0.832,-4.883 1.265,-9.7 l 2.153,-24.015 c 1.949,2.336 4.781,6.051 8.5,11.133 1.781,2.464 4,5.832 6.633,10.097 1.601,2.602 2.566,4.434 2.933,5.469 0.184,0.516 0.281,1.066 0.281,1.617 0,0.352 -0.097,0.649 -0.332,0.883 -0.234,0.215 -0.816,0.484 -1.785,0.801 -0.965,0.301 -1.765,0.883 -2.398,1.699 -0.633,0.836 -0.949,1.785 -0.949,2.867 0,1.332 0.402,2.403 1.183,3.219 0.766,0.816 1.75,1.215 2.918,1.215 1.43,0 2.649,-0.586 3.664,-1.785 1.016,-1.184 1.516,-2.817 1.516,-4.899 0,-2.566 -0.883,-5.515 -2.633,-8.816 -1.766,-3.301 -5.148,-8.367 -10.164,-15.199 -5,-6.852 -11.082,-14.301 -18.203,-22.368 -4.914,-5.566 -8.567,-9.082 -10.949,-10.535 -2.368,-1.429 -4.399,-2.164 -6.098,-2.164 -1.016,0 -1.902,0.383 -2.668,1.152 -0.766,0.762 -1.133,1.649 -1.133,2.665 0,1.265 0.516,2.418 1.582,3.464 1.051,1.036 2.199,1.551 3.438,1.551 0.648,0 1.199,-0.133 1.613,-0.433 0.266,-0.168 0.551,-0.633 0.852,-1.399 0.312,-0.75 0.597,-1.269 0.863,-1.535 0.152,-0.164 0.351,-0.234 0.586,-0.234 0.183,0 0.531,0.152 1.015,0.488 1.801,1.098 3.883,2.863 6.25,5.266 3.133,3.195 5.434,5.8 6.934,7.812 l -2.734,30.953 c -0.45,5.117 -1.133,8.231 -2.051,9.332 -0.914,1.098 -2.43,1.664 -4.582,1.664 -0.684,0 -1.918,-0.097 -3.664,-0.297 l -0.434,1.797 14.301,3.52" /><path
         id="path154"
         style="fill:#231f20;fill-opacity:1;fill-rule:nonzero;stroke:none"
         d="m 808.605,331.703 c 1.598,-1.683 2.801,-3.383 3.618,-5.062 0.586,-1.188 1.55,-4.254 2.882,-9.239 l 4.301,6.453 c 1.133,1.547 2.516,3.051 4.149,4.465 1.617,1.418 3.05,2.383 4.285,2.899 0.781,0.336 1.648,0.484 2.598,0.484 1.402,0 2.5,-0.363 3.335,-1.117 0.832,-0.75 1.25,-1.664 1.25,-2.731 0,-1.234 -0.25,-2.085 -0.734,-2.535 -0.918,-0.816 -1.953,-1.234 -3.117,-1.234 -0.684,0 -1.418,0.152 -2.199,0.453 -1.535,0.516 -2.567,0.781 -3.086,0.781 -0.782,0 -1.699,-0.468 -2.782,-1.367 -2.015,-1.699 -4.417,-4.965 -7.218,-9.816 l 4,-16.801 c 0.617,-2.563 1.136,-4.113 1.57,-4.617 0.414,-0.496 0.832,-0.746 1.266,-0.746 0.683,0 1.48,0.363 2.382,1.117 1.801,1.5 3.317,3.449 4.602,5.863 l 1.699,-0.883 c -2.051,-3.847 -4.648,-7.031 -7.816,-9.566 -1.781,-1.434 -3.301,-2.149 -4.535,-2.149 -1.813,0 -3.266,1.016 -4.348,3.067 -0.684,1.266 -2.102,6.75 -4.254,16.418 -5.062,-8.832 -9.133,-14.504 -12.195,-17.051 -1.985,-1.617 -3.903,-2.434 -5.77,-2.434 -1.297,0 -2.484,0.465 -3.566,1.415 -0.766,0.718 -1.168,1.668 -1.168,2.882 0,1.071 0.371,1.969 1.086,2.688 0.699,0.715 1.582,1.062 2.633,1.062 1.031,0 2.148,-0.515 3.316,-1.562 0.848,-0.75 1.5,-1.117 1.953,-1.117 0.399,0 0.899,0.265 1.516,0.781 1.531,1.234 3.613,3.902 6.246,8 2.633,4.101 4.367,7.066 5.184,8.902 -2.032,7.899 -3.114,12.082 -3.282,12.532 -0.75,2.117 -1.718,3.617 -2.933,4.5 -1.2,0.882 -2.969,1.316 -5.317,1.316 -0.75,0 -1.617,-0.031 -2.582,-0.102 v 1.766 l 13.031,2.285" /><path
         id="path156"
         style="fill:#231f20;fill-opacity:1;fill-rule:nonzero;stroke:none"
         d="m 433.609,325.047 c 0,7.547 1.137,14.047 3.418,19.5 2.285,5.449 5.301,9.515 9.086,12.18 2.93,2.121 5.949,3.183 9.082,3.183 5.063,0 9.633,-2.598 13.664,-7.765 5.051,-6.418 7.567,-15.098 7.567,-26.083 0,-7.683 -1.098,-14.199 -3.317,-19.566 -2.214,-5.383 -5.031,-9.281 -8.464,-11.699 -3.434,-2.434 -6.75,-3.637 -9.95,-3.637 -6.3,0 -11.57,3.719 -15.765,11.188 -3.555,6.281 -5.321,13.847 -5.321,22.699 z m 9.571,-1.219 c 0,-9.117 1.113,-16.566 3.367,-22.316 1.848,-4.848 4.629,-7.285 8.297,-7.285 1.765,0 3.586,0.804 5.465,2.367 1.902,1.586 3.336,4.238 4.3,7.933 1.5,5.602 2.25,13.5 2.25,23.684 0,7.551 -0.785,13.851 -2.347,18.898 -1.168,3.75 -2.684,6.403 -4.535,7.969 -1.332,1.067 -2.95,1.598 -4.832,1.598 -2.219,0 -4.184,-0.981 -5.918,-2.965 -2.332,-2.699 -3.93,-6.949 -4.782,-12.75 -0.851,-5.797 -1.265,-11.5 -1.265,-17.133" /><path
         id="path158"
         style="fill:#231f20;fill-opacity:1;fill-rule:nonzero;stroke:none"
         d="m 425.355,485.125 16.118,7.863 h 1.617 v -55.914 c 0,-3.703 0.148,-6.019 0.449,-6.933 0.32,-0.903 0.969,-1.602 1.934,-2.102 0.984,-0.484 2.968,-0.766 5.968,-0.832 v -1.801 h -24.918 v 1.801 c 3.133,0.066 5.153,0.336 6.067,0.816 0.902,0.469 1.535,1.102 1.898,1.899 0.352,0.805 0.535,3.183 0.535,7.152 v 35.75 c 0,4.817 -0.164,7.899 -0.484,9.266 -0.23,1.051 -0.648,1.816 -1.25,2.301 -0.598,0.484 -1.312,0.734 -2.164,0.734 -1.203,0 -2.883,-0.504 -5.035,-1.52 l -0.735,1.52" /><path
         id="path160"
         style="fill:none;stroke:#231f20;stroke-width:7.5005002;stroke-linecap:butt;stroke-linejoin:miter;stroke-miterlimit:2.61310005;stroke-dasharray:none;stroke-opacity:1"
         d="m 464.609,459.227 h 46.953" /><path
         id="path162"
         style="fill:#231f20;fill-opacity:1;fill-rule:nonzero;stroke:none"
         d="m 1408.8,723.336 c 1.1,-1.883 1.86,-3.652 2.3,-5.285 0.42,-1.649 0.83,-4.883 1.27,-9.699 l 2.15,-24.012 c 1.94,2.332 4.78,6.047 8.5,11.129 1.78,2.465 4,5.836 6.63,10.101 1.6,2.598 2.56,4.434 2.93,5.465 0.19,0.52 0.29,1.067 0.29,1.617 0,0.352 -0.1,0.649 -0.34,0.887 -0.23,0.215 -0.82,0.481 -1.78,0.797 -0.97,0.301 -1.77,0.887 -2.4,1.703 -0.64,0.832 -0.95,1.781 -0.95,2.863 0,1.332 0.4,2.403 1.18,3.219 0.77,0.817 1.75,1.215 2.92,1.215 1.43,0 2.65,-0.582 3.66,-1.781 1.02,-1.188 1.52,-2.821 1.52,-4.903 0,-2.566 -0.88,-5.515 -2.63,-8.816 -1.77,-3.297 -5.15,-8.367 -10.17,-15.199 -5,-6.852 -11.08,-14.301 -18.2,-22.367 -4.91,-5.567 -8.56,-9.082 -10.95,-10.532 -2.37,-1.433 -4.4,-2.168 -6.1,-2.168 -1.01,0 -1.9,0.383 -2.66,1.153 -0.77,0.765 -1.14,1.648 -1.14,2.664 0,1.265 0.52,2.418 1.58,3.465 1.05,1.035 2.2,1.55 3.44,1.55 0.65,0 1.2,-0.132 1.61,-0.433 0.27,-0.168 0.56,-0.633 0.86,-1.399 0.31,-0.75 0.59,-1.269 0.86,-1.535 0.15,-0.164 0.35,-0.23 0.59,-0.23 0.18,0 0.53,0.148 1.01,0.484 1.8,1.098 3.88,2.863 6.25,5.266 3.13,3.199 5.43,5.8 6.93,7.816 l -2.73,30.949 c -0.45,5.118 -1.13,8.231 -2.05,9.332 -0.91,1.102 -2.43,1.668 -4.58,1.668 -0.69,0 -1.92,-0.101 -3.67,-0.3 l -0.43,1.8 14.3,3.516" /><path
         id="path164"
         style="fill:#231f20;fill-opacity:1;fill-rule:nonzero;stroke:none"
         d="m 1792.69,331.703 c 1.6,-1.683 2.8,-3.383 3.62,-5.062 0.58,-1.188 1.55,-4.254 2.88,-9.239 l 4.3,6.453 c 1.13,1.547 2.52,3.051 4.15,4.465 1.61,1.418 3.05,2.383 4.28,2.899 0.79,0.336 1.65,0.484 2.6,0.484 1.4,0 2.5,-0.363 3.34,-1.117 0.83,-0.75 1.25,-1.664 1.25,-2.731 0,-1.234 -0.25,-2.085 -0.74,-2.535 -0.91,-0.816 -1.95,-1.234 -3.11,-1.234 -0.69,0 -1.42,0.152 -2.2,0.453 -1.54,0.516 -2.57,0.781 -3.09,0.781 -0.78,0 -1.7,-0.468 -2.78,-1.367 -2.02,-1.699 -4.42,-4.965 -7.22,-9.816 l 4,-16.801 c 0.62,-2.563 1.14,-4.113 1.57,-4.617 0.42,-0.496 0.83,-0.746 1.26,-0.746 0.69,0 1.49,0.363 2.39,1.117 1.8,1.5 3.32,3.449 4.6,5.863 l 1.7,-0.883 c -2.05,-3.847 -4.65,-7.031 -7.82,-9.566 -1.78,-1.434 -3.3,-2.149 -4.53,-2.149 -1.82,0 -3.27,1.016 -4.35,3.067 -0.68,1.266 -2.1,6.75 -4.25,16.418 -5.07,-8.832 -9.13,-14.504 -12.2,-17.051 -1.98,-1.617 -3.9,-2.434 -5.77,-2.434 -1.3,0 -2.48,0.465 -3.56,1.415 -0.77,0.718 -1.17,1.668 -1.17,2.882 0,1.071 0.37,1.969 1.09,2.688 0.69,0.715 1.58,1.062 2.63,1.062 1.03,0 2.15,-0.515 3.32,-1.562 0.84,-0.75 1.5,-1.117 1.94,-1.117 0.4,0 0.9,0.265 1.52,0.781 1.54,1.234 3.61,3.902 6.25,8 2.63,4.101 4.37,7.066 5.18,8.902 -2.03,7.899 -3.11,12.082 -3.28,12.532 -0.75,2.117 -1.72,3.617 -2.94,4.5 -1.19,0.882 -2.96,1.316 -5.31,1.316 -0.75,0 -1.62,-0.031 -2.58,-0.102 v 1.766 l 13.03,2.285" /><path
         id="path166"
         style="fill:#231f20;fill-opacity:1;fill-rule:nonzero;stroke:none"
         d="m 1411.96,323.926 c 0,7.551 1.13,14.047 3.42,19.5 2.28,5.449 5.3,9.515 9.08,12.183 2.93,2.118 5.95,3.184 9.08,3.184 5.07,0 9.64,-2.602 13.67,-7.77 5.05,-6.418 7.57,-15.097 7.57,-26.082 0,-7.683 -1.1,-14.199 -3.32,-19.566 -2.22,-5.383 -5.03,-9.281 -8.47,-11.699 -3.43,-2.434 -6.74,-3.633 -9.95,-3.633 -6.3,0 -11.56,3.719 -15.76,11.184 -3.55,6.281 -5.32,13.851 -5.32,22.699 z m 9.57,-1.215 c 0,-9.121 1.11,-16.57 3.36,-22.316 1.85,-4.852 4.64,-7.286 8.31,-7.286 1.76,0 3.58,0.801 5.46,2.368 1.9,1.582 3.33,4.234 4.3,7.933 1.5,5.598 2.25,13.496 2.25,23.684 0,7.547 -0.78,13.847 -2.35,18.898 -1.17,3.75 -2.68,6.399 -4.53,7.965 -1.34,1.066 -2.95,1.602 -4.84,1.602 -2.21,0 -4.18,-0.985 -5.91,-2.965 -2.34,-2.703 -3.94,-6.953 -4.79,-12.75 -0.84,-5.801 -1.26,-11.5 -1.26,-17.133" /><path
         id="path168"
         style="fill:#231f20;fill-opacity:1;fill-rule:nonzero;stroke:none"
         d="m 1500.99,488.051 16.12,7.863 h 1.62 V 440 c 0,-3.703 0.15,-6.02 0.45,-6.934 0.32,-0.902 0.96,-1.601 1.93,-2.101 0.98,-0.485 2.97,-0.766 5.97,-0.832 v -1.801 h -24.92 v 1.801 c 3.13,0.066 5.15,0.336 6.07,0.816 0.9,0.469 1.53,1.098 1.9,1.899 0.35,0.8 0.53,3.183 0.53,7.152 v 35.75 c 0,4.816 -0.16,7.898 -0.48,9.266 -0.23,1.05 -0.65,1.816 -1.25,2.3 -0.6,0.485 -1.32,0.735 -2.17,0.735 -1.2,0 -2.88,-0.504 -5.03,-1.52 l -0.74,1.52" /><path
         id="path170"
         style="fill:none;stroke:#231f20;stroke-width:7.5005002;stroke-linecap:butt;stroke-linejoin:miter;stroke-miterlimit:2.61310005;stroke-dasharray:none;stroke-opacity:1"
         d="m 1448.69,459.227 h 46.96" /><path
         id="path172"
         style="fill:#231f20;fill-opacity:1;fill-rule:nonzero;stroke:none"
         d="m 2395.05,725.316 c 1.11,-1.882 1.87,-3.648 2.31,-5.281 0.41,-1.652 0.83,-4.887 1.26,-9.703 l 2.15,-24.012 c 1.95,2.332 4.78,6.047 8.5,11.129 1.78,2.469 4,5.836 6.63,10.102 1.6,2.597 2.57,4.433 2.94,5.469 0.18,0.515 0.28,1.066 0.28,1.613 0,0.351 -0.1,0.648 -0.33,0.887 -0.24,0.214 -0.82,0.48 -1.79,0.796 -0.96,0.301 -1.76,0.887 -2.39,1.704 -0.64,0.832 -0.96,1.781 -0.96,2.863 0,1.332 0.4,2.402 1.19,3.219 0.76,0.816 1.75,1.214 2.91,1.214 1.44,0 2.66,-0.582 3.67,-1.781 1.02,-1.183 1.52,-2.816 1.52,-4.902 0,-2.567 -0.89,-5.516 -2.64,-8.817 -1.76,-3.296 -5.14,-8.367 -10.16,-15.199 -5,-6.847 -11.09,-14.301 -18.2,-22.367 -4.92,-5.566 -8.57,-9.082 -10.95,-10.531 -2.37,-1.434 -4.4,-2.168 -6.1,-2.168 -1.02,0 -1.9,0.383 -2.67,1.152 -0.77,0.766 -1.13,1.649 -1.13,2.664 0,1.266 0.52,2.418 1.58,3.469 1.05,1.031 2.2,1.547 3.44,1.547 0.64,0 1.19,-0.133 1.61,-0.434 0.27,-0.164 0.55,-0.629 0.85,-1.398 0.32,-0.75 0.6,-1.266 0.87,-1.535 0.15,-0.164 0.35,-0.231 0.58,-0.231 0.18,0 0.53,0.149 1.02,0.485 1.8,1.101 3.88,2.867 6.25,5.265 3.13,3.199 5.43,5.801 6.93,7.817 l -2.73,30.949 c -0.45,5.117 -1.13,8.234 -2.05,9.332 -0.92,1.101 -2.44,1.668 -4.58,1.668 -0.69,0 -1.92,-0.102 -3.67,-0.301 l -0.44,1.801 14.3,3.515" /><path
         id="path174"
         style="fill:#231f20;fill-opacity:1;fill-rule:nonzero;stroke:none"
         d="m 2764.63,334.738 c 1.6,-1.683 2.8,-3.383 3.62,-5.062 0.58,-1.188 1.55,-4.254 2.88,-9.235 l 4.3,6.45 c 1.13,1.547 2.52,3.05 4.15,4.464 1.62,1.418 3.05,2.383 4.28,2.899 0.78,0.336 1.65,0.484 2.6,0.484 1.4,0 2.5,-0.363 3.34,-1.113 0.83,-0.754 1.25,-1.668 1.25,-2.734 0,-1.235 -0.25,-2.082 -0.74,-2.536 -0.92,-0.816 -1.95,-1.23 -3.11,-1.23 -0.68,0 -1.42,0.148 -2.2,0.449 -1.54,0.516 -2.57,0.781 -3.09,0.781 -0.78,0 -1.7,-0.464 -2.78,-1.363 -2.02,-1.703 -4.42,-4.969 -7.22,-9.816 l 4,-16.801 c 0.62,-2.566 1.14,-4.117 1.57,-4.617 0.42,-0.5 0.83,-0.75 1.27,-0.75 0.68,0 1.48,0.367 2.38,1.117 1.8,1.5 3.32,3.449 4.6,5.863 l 1.7,-0.879 c -2.05,-3.851 -4.65,-7.035 -7.82,-9.57 -1.78,-1.434 -3.3,-2.148 -4.53,-2.148 -1.81,0 -3.27,1.015 -4.35,3.066 -0.68,1.266 -2.1,6.75 -4.25,16.418 -5.07,-8.832 -9.14,-14.504 -12.2,-17.051 -1.98,-1.617 -3.9,-2.433 -5.77,-2.433 -1.3,0 -2.48,0.464 -3.56,1.418 -0.77,0.714 -1.17,1.664 -1.17,2.882 0,1.067 0.37,1.965 1.08,2.684 0.71,0.715 1.59,1.066 2.64,1.066 1.03,0 2.15,-0.519 3.32,-1.566 0.84,-0.75 1.49,-1.117 1.95,-1.117 0.39,0 0.89,0.265 1.51,0.781 1.54,1.234 3.61,3.902 6.25,8 2.63,4.102 4.37,7.066 5.18,8.902 -2.03,7.899 -3.11,12.082 -3.28,12.536 -0.75,2.113 -1.72,3.613 -2.93,4.496 -1.2,0.886 -2.97,1.32 -5.32,1.32 -0.75,0 -1.62,-0.035 -2.58,-0.102 v 1.766 l 13.03,2.281" /><path
         id="path176"
         style="fill:#231f20;fill-opacity:1;fill-rule:nonzero;stroke:none"
         d="m 2391.28,325.285 c 0,7.547 1.14,14.047 3.42,19.5 2.28,5.449 5.3,9.516 9.08,12.18 2.93,2.117 5.95,3.183 9.09,3.183 5.06,0 9.63,-2.597 13.66,-7.765 5.05,-6.418 7.57,-15.102 7.57,-26.082 0,-7.684 -1.1,-14.199 -3.32,-19.567 -2.21,-5.382 -5.03,-9.285 -8.46,-11.699 -3.44,-2.433 -6.75,-3.637 -9.95,-3.637 -6.3,0 -11.57,3.719 -15.77,11.188 -3.55,6.281 -5.32,13.848 -5.32,22.699 z m 9.57,-1.219 c 0,-9.117 1.11,-16.566 3.37,-22.316 1.85,-4.848 4.63,-7.285 8.3,-7.285 1.76,0 3.58,0.805 5.46,2.367 1.9,1.586 3.34,4.234 4.3,7.934 1.5,5.601 2.25,13.5 2.25,23.683 0,7.551 -0.78,13.852 -2.35,18.899 -1.16,3.75 -2.68,6.402 -4.53,7.968 -1.33,1.067 -2.95,1.598 -4.84,1.598 -2.21,0 -4.18,-0.98 -5.91,-2.965 -2.33,-2.699 -3.93,-6.949 -4.78,-12.75 -0.85,-5.797 -1.27,-11.5 -1.27,-17.133" /><path
         id="path178"
         style="fill:#231f20;fill-opacity:1;fill-rule:nonzero;stroke:none"
         d="m 2381.38,488.16 16.12,7.867 h 1.61 v -55.918 c 0,-3.699 0.16,-6.015 0.46,-6.933 0.31,-0.903 0.96,-1.602 1.93,-2.098 0.98,-0.488 2.96,-0.766 5.96,-0.836 v -1.801 h -24.91 v 1.801 c 3.13,0.07 5.15,0.336 6.06,0.817 0.91,0.468 1.54,1.101 1.91,1.898 0.35,0.805 0.53,3.184 0.53,7.152 v 35.75 c 0,4.817 -0.17,7.903 -0.48,9.266 -0.24,1.051 -0.66,1.82 -1.25,2.301 -0.61,0.484 -1.32,0.734 -2.17,0.734 -1.2,0 -2.88,-0.504 -5.04,-1.515 l -0.73,1.515" /><path
         id="path180"
         style="fill:none;stroke:#231f20;stroke-width:7.5005002;stroke-linecap:butt;stroke-linejoin:miter;stroke-miterlimit:2.61310005;stroke-dasharray:none;stroke-opacity:1"
         d="m 2420.63,462.262 h 46.96" /><path
         id="path182"
         style="fill:#231f20;fill-opacity:1;fill-rule:nonzero;stroke:none"
         d="m 62.3203,721.84 -5.0351,-55.067 c -0.2657,-2.585 -0.3829,-4.269 -0.3829,-5.085 0,-1.297 0.2344,-2.297 0.7344,-2.981 0.6172,-0.934 1.4492,-1.633 2.5,-2.102 1.0664,-0.449 2.8477,-0.683 5.3477,-0.683 l -0.5313,-1.797 H 38.8867 l 0.5313,1.797 h 1.1172 c 2.1171,0 3.8515,0.469 5.1836,1.367 0.9335,0.637 1.6679,1.652 2.2031,3.086 0.3476,1.016 0.6992,3.379 1.0156,7.129 l 0.7813,8.402 H 30.7695 l -6.7343,-9.133 c -1.5313,-2.05 -2.4844,-3.535 -2.8829,-4.414 -0.3828,-0.902 -0.582,-1.734 -0.582,-2.519 0,-1.051 0.4141,-1.934 1.2656,-2.684 0.8516,-0.746 2.25,-1.164 4.1993,-1.234 l -0.5313,-1.797 H 5.91797 l 0.53515,1.797 c 2.41797,0.101 4.53518,0.918 6.38278,2.418 1.836,1.519 4.5664,4.75 8.2188,9.703 l 39.5469,53.797 z m -9.668,-16.25 -19.1992,-26.117 h 16.6485 l 2.5507,26.117" /><path
         id="path184"
         style="fill:#231f20;fill-opacity:1;fill-rule:nonzero;stroke:none"
         d="m 86.4375,722.621 1.6641,0.938 c 3.8672,-7.352 6.6328,-13.868 8.3007,-19.536 1.3321,-4.414 2,-8.882 2,-13.382 0,-10.5 -2.4335,-19.903 -7.2812,-28.168 C 85.1367,652.289 75.4883,642.375 62.168,632.738 l -1.1641,1.516 c 6.0156,4.484 10.9336,9.488 14.7305,14.984 4.7695,6.903 8.6523,15.25 11.6875,25.035 3.0156,9.766 4.5312,18.668 4.5312,26.684 0,6.117 -1.8359,13.332 -5.5156,21.664" /><path
         id="path186"
         style="fill:#231f20;fill-opacity:1;fill-rule:nonzero;stroke:none"
         d="m 2005.6,718.523 0.69,1.817 h 23.63 c 3.97,0 7.5,-0.617 10.62,-1.867 3.1,-1.235 5.43,-2.95 6.98,-5.164 1.55,-2.219 2.32,-4.567 2.32,-7.036 0,-3.816 -1.39,-7.25 -4.14,-10.332 -2.75,-3.07 -7.23,-5.351 -13.45,-6.8 4.02,-1.5 6.95,-3.485 8.86,-5.969 1.87,-2.465 2.82,-5.18 2.82,-8.149 0,-3.281 -0.84,-6.433 -2.54,-9.433 -1.69,-2.981 -3.87,-5.317 -6.52,-6.965 -2.65,-1.668 -5.85,-2.887 -9.6,-3.668 -2.67,-0.551 -6.84,-0.832 -12.5,-0.832 h -24.27 l 0.64,1.797 c 2.55,0.07 4.26,0.32 5.18,0.734 1.3,0.571 2.23,1.301 2.79,2.199 0.78,1.235 1.81,4.067 3.11,8.5 l 11.87,40.086 c 1.02,3.383 1.51,5.766 1.51,7.133 0,1.199 -0.44,2.149 -1.33,2.848 -0.9,0.703 -2.6,1.051 -5.12,1.051 -0.54,0 -1.06,0.015 -1.55,0.05 z m 9.9,-27.484 c 2.12,-0.066 3.65,-0.101 4.6,-0.101 6.77,0 11.8,1.468 15.12,4.417 3.3,2.95 4.95,6.633 4.95,11.067 0,3.351 -1.02,5.969 -3.03,7.836 -2.02,1.863 -5.24,2.801 -9.67,2.801 -1.17,0 -2.67,-0.184 -4.48,-0.586 z m -9.61,-32.617 c 3.52,-0.465 6.26,-0.68 8.25,-0.68 5.08,0 9.58,1.531 13.5,4.582 3.93,3.067 5.88,7.215 5.88,12.449 0,4 -1.2,7.133 -3.63,9.383 -2.42,2.25 -6.34,3.367 -11.73,3.367 -1.06,0 -2.32,-0.05 -3.82,-0.148 l -8.45,-28.953" /><path
         id="path188"
         style="fill:#231f20;fill-opacity:1;fill-rule:nonzero;stroke:none"
         d="m 2066.44,722.621 1.66,0.938 c 3.87,-7.352 6.64,-13.868 8.3,-19.536 1.33,-4.414 2.01,-8.882 2.01,-13.382 0,-10.5 -2.44,-19.903 -7.29,-28.168 -5.98,-10.184 -15.63,-20.098 -28.95,-29.735 l -1.17,1.516 c 6.02,4.484 10.94,9.488 14.73,14.984 4.77,6.903 8.66,15.25 11.69,25.035 3.02,9.766 4.53,18.668 4.53,26.684 0,6.117 -1.83,13.332 -5.51,21.664" /><path
         id="path190"
         style="fill:#231f20;fill-opacity:1;fill-rule:nonzero;stroke:none"
         d="m 999.121,720.34 h 46.529 l -5.03,-17.281 h -1.82 c 0.37,2.113 0.56,4.031 0.56,5.746 0,2.25 -0.46,4 -1.34,5.234 -0.86,1.234 -2.07,2.035 -3.58,2.383 -1.52,0.367 -4.49,0.551 -8.92,0.551 h -10.2 l -7.62,-26.133 h 6.65 c 5.65,0 9.9,-0.582 12.74,-1.75 2.83,-1.184 5.16,-3.168 6.98,-5.965 1.84,-2.801 2.73,-5.805 2.73,-9.035 0,-3.867 -1.31,-7.567 -3.98,-11.082 -2.65,-3.52 -5.9,-5.867 -9.73,-7.086 -3.84,-1.199 -8.37,-1.797 -13.57,-1.797 h -29.551 l 0.484,1.797 c 3.551,0.07 5.985,0.668 7.301,1.785 1.316,1.133 2.668,3.981 4.031,8.582 l 11.615,39.5 c 1.29,4.352 1.92,7.301 1.92,8.832 0,1.367 -0.5,2.352 -1.5,2.934 -0.98,0.586 -2.73,0.902 -5.25,0.968 z m -0.836,-61.918 c 2.535,-0.465 5.325,-0.68 8.355,-0.68 6.9,0 11.95,1.699 15.15,5.098 3.21,3.402 4.82,7.199 4.82,11.402 0,2.832 -0.77,5.332 -2.32,7.5 -1.55,2.164 -3.5,3.649 -5.84,4.465 -2.34,0.816 -5.5,1.219 -9.48,1.219 h -2.2 l -8.485,-29.004" /><path
         id="path192"
         style="fill:#231f20;fill-opacity:1;fill-rule:nonzero;stroke:none"
         d="m 1056.34,722.621 1.66,0.938 c 3.87,-7.352 6.64,-13.868 8.3,-19.536 1.34,-4.414 2,-8.882 2,-13.382 0,-10.5 -2.43,-19.903 -7.28,-28.168 -5.98,-10.184 -15.63,-20.098 -28.95,-29.735 l -1.17,1.516 c 6.02,4.484 10.94,9.488 14.74,14.984 4.76,6.903 8.65,15.25 11.68,25.035 3.02,9.766 4.53,18.668 4.53,26.684 0,6.117 -1.83,13.332 -5.51,21.664" /></g></g></svg>