<?xml version="1.0" encoding="UTF-8" standalone="no"?>
<svg
   xmlns:dc="http://purl.org/dc/elements/1.1/"
   xmlns:cc="http://creativecommons.org/ns#"
   xmlns:rdf="http://www.w3.org/1999/02/22-rdf-syntax-ns#"
   xmlns:svg="http://www.w3.org/2000/svg"
   xmlns="http://www.w3.org/2000/svg"
   viewBox="0 0 104 129.33333"
   height="129.33333"
   width="104"
   xml:space="preserve"
   id="svg2"
   version="1.1"><metadata
     id="metadata8"><rdf:RDF><cc:Work
         rdf:about=""><dc:format>image/svg+xml</dc:format><dc:type
           rdf:resource="http://purl.org/dc/dcmitype/StillImage" /></cc:Work></rdf:RDF></metadata><defs
     id="defs6" /><g
     transform="matrix(1.3333333,0,0,-1.3333333,0,129.33333)"
     id="g10"><g
       transform="scale(0.1)"
       id="g12"><path
         id="path14"
         style="fill:#ffffff;fill-opacity:1;fill-rule:evenodd;stroke:none"
         d="m 12.25,11.0508 h 765.367 v 950.398 H 12.25 Z" /><g
         transform="scale(0.895539,1.10446)"
         id="g16"><path
           id="path18"
           style="fill:none;stroke:#0b0c0b;stroke-width:3.18254995;stroke-linecap:butt;stroke-linejoin:miter;stroke-miterlimit:2.61310005;stroke-dasharray:none;stroke-opacity:1"
           d="M 13.6789,10.0056 H 868.323 V 870.514 H 13.6789 Z" /></g><path
         id="path20"
         style="fill:#231f20;fill-opacity:1;fill-rule:evenodd;stroke:none"
         d="m 741.773,459.309 c 1.438,-2.161 2.879,-3.602 3.598,-5.039 0.723,-1.442 1.441,-4.321 2.883,-9.36 l 4.32,6.481 c 0.719,1.437 2.16,2.879 4.317,4.316 1.441,1.441 2.882,2.16 3.601,2.883 1.442,0 2.16,0.719 2.879,0.719 1.441,0 2.883,-0.719 3.602,-1.442 0.718,-0.719 0.718,-1.437 0.718,-2.879 0,-0.718 0,-2.16 -0.718,-2.16 -0.719,-0.719 -1.442,-1.437 -2.879,-1.437 -0.723,0 -1.442,0 -2.16,0.718 -1.442,0 -2.883,0.719 -2.883,0.719 -0.719,0 -2.16,-0.719 -2.879,-1.437 -2.16,-1.442 -4.32,-5.043 -7.199,-10.082 l 3.601,-16.559 c 0.719,-2.883 1.438,-4.32 2.16,-4.32 0,-0.723 0.719,-0.723 0.719,-0.723 0.719,0 1.438,0 2.879,0.723 1.441,1.437 2.879,3.597 4.32,5.758 l 1.442,-0.719 c -1.442,-3.602 -4.321,-7.199 -7.203,-9.36 -2.157,-1.441 -3.598,-2.16 -5.039,-2.16 -1.438,0 -2.879,0.719 -4.321,2.879 -0.719,1.442 -2.16,6.481 -4.32,16.559 -5.039,-8.637 -8.637,-14.399 -12.238,-17.278 -1.442,-1.441 -3.602,-2.16 -5.762,-2.16 -0.719,0 -2.16,0 -3.598,1.438 -0.722,0.722 -0.722,1.441 -0.722,2.883 0,0.718 0,1.437 0.722,2.16 0.719,0.718 2.16,1.437 2.879,1.437 0.719,0 2.16,-0.719 3.602,-1.437 0.718,-0.723 1.437,-1.442 1.437,-1.442 0.723,0 1.442,0.719 1.442,0.719 2.16,1.441 3.601,4.32 6.48,7.922 2.879,4.32 4.32,7.199 5.039,9.359 -2.16,7.922 -2.879,12.242 -2.879,12.242 -0.722,2.161 -2.16,3.598 -2.883,4.321 -1.437,1.437 -2.878,1.437 -5.757,1.437 -0.719,0 -1.442,0 -2.161,0 v 2.16 l 12.961,2.161" /><path
         id="path22"
         style="fill:#231f20;fill-opacity:1;fill-rule:evenodd;stroke:none"
         d="m 442.418,469.777 c 3.602,0 6.48,-0.718 9.363,-2.16 2.16,-1.441 4.321,-3.601 6.477,-6.48 1.441,-2.879 2.16,-6.481 2.16,-9.36 0,-5.761 -2.16,-11.519 -5.039,-18 -3.598,-6.48 -7.918,-10.8 -12.961,-14.398 -5.039,-2.883 -10.797,-5.043 -16.559,-5.043 -4.32,0 -7.199,1.441 -10.078,2.883 -2.883,2.16 -5.043,4.32 -6.48,7.199 -0.723,2.879 -1.442,5.758 -1.442,8.641 0,5.039 0.719,10.078 3.602,14.398 2.16,5.039 5.039,9.359 7.918,12.238 3.601,3.602 7.199,5.762 10.801,7.922 3.601,1.442 7.918,2.16 12.238,2.16 z m -1.438,-2.16 c -2.882,0 -5.039,-0.719 -7.921,-2.16 -2.161,-1.441 -5.039,-3.602 -7.2,-6.48 -2.16,-2.879 -4.32,-6.481 -6.48,-11.52 -2.16,-5.762 -3.598,-10.801 -3.598,-16.559 0,-3.601 0.719,-6.48 2.879,-9.359 1.438,-2.883 5.039,-4.32 8.641,-4.32 2.16,0 5.039,0.719 7.199,1.437 2.16,1.442 4.32,3.602 7.199,6.481 2.879,3.601 5.039,7.922 7.199,13.679 2.161,5.039 3.602,10.082 3.602,15.122 0,3.597 -0.719,6.48 -2.879,9.359 -2.16,2.879 -5.043,4.32 -8.641,4.32" /><path
         id="path24"
         style="fill:#231f20;fill-opacity:1;fill-rule:evenodd;stroke:none"
         d="m 595.781,464.738 16.559,7.918 h 1.441 v -56.16 c 0,-3.598 0,-5.758 0.719,-6.48 0,-0.719 0.719,-1.438 1.441,-2.161 1.438,-0.718 3.598,-0.718 6.477,-0.718 v -2.16 h -25.199 v 2.16 c 2.879,0 5.039,0 6.48,0.718 0.719,0 1.442,0.723 1.442,1.442 0.718,1.441 0.718,3.601 0.718,7.199 v 36 c 0,5.039 0,7.922 -0.718,9.359 0,0.723 -0.723,1.442 -1.442,2.161 0,0.722 -0.719,0.722 -2.16,0.722 -0.719,0 -2.879,-0.722 -5.039,-1.441 l -0.719,1.441" /><path
         id="path26"
         style="fill:#231f20;fill-opacity:1;fill-rule:evenodd;stroke:none"
         d="m 426.578,946.418 c 0.723,-2.16 1.442,-4.32 2.16,-5.762 0,-1.437 0.723,-5.039 1.442,-9.359 l 2.16,-24.481 c 1.441,2.879 4.32,6.481 7.918,11.52 2.16,2.16 4.32,5.762 7.203,10.082 1.437,2.879 2.16,4.32 2.879,5.039 0,0.719 0,1.441 0,2.16 v 0.719 c -0.719,0 -1.442,0.723 -2.16,0.723 -0.719,0 -1.442,0.718 -2.16,1.437 -0.719,1.442 -1.442,2.16 -1.442,2.883 0,1.437 0.723,2.879 1.442,3.598 0.718,0.718 2.16,1.441 2.878,1.441 1.442,0 2.883,-0.723 3.602,-2.16 1.441,-1.442 1.441,-2.879 1.441,-5.039 0,-2.16 -0.722,-5.043 -2.16,-8.641 -2.16,-3.601 -5.043,-8.64 -10.082,-15.121 -5.039,-7.199 -11.519,-14.398 -18.719,-22.32 -5.039,-5.758 -8.64,-9.36 -10.8,-10.801 -2.16,-1.438 -4.321,-2.16 -5.762,-2.16 -1.438,0 -2.16,0.722 -2.879,1.441 -0.719,0.719 -1.441,1.442 -1.441,2.879 0,0.723 0.722,2.16 2.16,2.883 0.722,1.437 2.16,1.437 2.883,1.437 0.718,0 1.437,0 2.16,0 0,0 0,-0.718 0.719,-1.437 0,-0.723 0.718,-1.441 0.718,-1.441 0,0 0,-0.719 0.723,-0.719 0,0 0,0.719 0.719,0.719 2.16,1.441 4.32,2.878 6.48,5.039 2.879,3.601 5.039,6.48 6.481,7.921 l -2.161,30.957 c -0.722,5.043 -1.441,8.641 -2.16,9.364 -0.722,1.437 -2.879,2.16 -5.039,2.16 -0.722,0 -1.441,-0.723 -3.601,-0.723 v 2.16 l 14.398,3.602" /><path
         id="path28"
         style="fill:none;stroke:#231f20;stroke-width:9.99779987;stroke-linecap:butt;stroke-linejoin:miter;stroke-miterlimit:2.61310005;stroke-dasharray:none;stroke-opacity:1"
         d="m 575.621,507.219 v -38.16" /><path
         id="path30"
         style="fill:none;stroke:#231f20;stroke-width:9.99779987;stroke-linecap:butt;stroke-linejoin:miter;stroke-miterlimit:2.61310005;stroke-dasharray:none;stroke-opacity:1"
         d="M 462.578,582.816 H 500.02" /><path
         id="path32"
         style="fill:#231f20;fill-opacity:1;fill-rule:evenodd;stroke:none"
         d="m 510.594,609.793 15.84,7.922 h 2.16 v -56.16 c 0,-3.602 0,-5.762 0,-7.2 0.718,-0.722 1.437,-1.441 2.16,-1.441 0.719,-0.719 2.879,-0.719 5.758,-1.441 v -1.438 h -24.481 v 1.438 c 2.883,0.722 5.043,0.722 5.762,1.441 0.719,0 1.441,0.719 2.16,1.441 0,0.719 0,3.598 0,7.2 v 36 c 0,4.32 0,7.918 0,9.359 -0.719,0.719 -0.719,1.441 -1.441,2.16 -0.719,0.719 -1.438,0.719 -2.16,0.719 -1.438,0 -2.879,-0.719 -5.04,-1.438 l -0.718,1.438" /><g
         transform="scale(0.896388,1.10361)"
         id="g34"><path
           id="path36"
           style="fill:none;stroke:#231f20;stroke-width:6.79631996;stroke-linecap:butt;stroke-linejoin:miter;stroke-miterlimit:2.61310005;stroke-dasharray:none;stroke-opacity:1"
           d="M 10.8203,443.289 H 834.155" /></g><path
         id="path38"
         style="fill:#231f20;fill-opacity:1;fill-rule:evenodd;stroke:none"
         d="m 772.848,489.219 -70.559,30.238 c 10.078,-20.16 10.078,-40.32 0,-60.48 l 70.559,30.242" /><path
         id="path40"
         style="fill:none;stroke:#231f20;stroke-width:7.5005002;stroke-linecap:butt;stroke-linejoin:miter;stroke-miterlimit:2.61310005;stroke-dasharray:none;stroke-opacity:1"
         d="M 481.301,14.0156 V 926.977" /><path
         id="path42"
         style="fill:#231f20;fill-opacity:1;fill-rule:evenodd;stroke:none"
         d="m 481.301,962.258 -30.242,-70.563 c 20.16,10.082 40.32,10.082 60.48,0 l -30.238,70.563" /><path
         id="path44"
         style="fill:none;stroke:#231f20;stroke-width:10.00629997;stroke-linecap:butt;stroke-linejoin:miter;stroke-miterlimit:2.61310005;stroke-dasharray:none;stroke-opacity:1"
         d="M 512.672,896.984 C 372.898,269.645 228.723,186.148 78.1172,897.508" /><g
         transform="scale(0.896203,1.1038)"
         id="g46"><path
           id="path48"
           style="fill:none;stroke:#0b0c0b;stroke-width:3.1716001;stroke-linecap:butt;stroke-linejoin:miter;stroke-miterlimit:2.61310005;stroke-dasharray:none;stroke-opacity:1"
           d="M 13.8257,786.624 H 867.68" /></g><g
         transform="scale(0.896203,1.1038)"
         id="g50"><path
           id="path52"
           style="fill:none;stroke:#0b0c0b;stroke-width:3.1716001;stroke-linecap:butt;stroke-linejoin:miter;stroke-miterlimit:2.61310005;stroke-dasharray:none;stroke-opacity:1"
           d="M 12.5224,700.522 H 867.026" /></g><g
         transform="scale(0.896203,1.1038)"
         id="g54"><path
           id="path56"
           style="fill:none;stroke:#0b0c0b;stroke-width:3.1716001;stroke-linecap:butt;stroke-linejoin:miter;stroke-miterlimit:2.61310005;stroke-dasharray:none;stroke-opacity:1"
           d="M 12.5224,614.42 H 867.026" /></g><g
         transform="scale(0.896203,1.1038)"
         id="g58"><path
           id="path60"
           style="fill:none;stroke:#0b0c0b;stroke-width:3.1716001;stroke-linecap:butt;stroke-linejoin:miter;stroke-miterlimit:2.61310005;stroke-dasharray:none;stroke-opacity:1"
           d="M 12.5224,528.97 H 867.026" /></g><g
         transform="scale(0.896388,1.10361)"
         id="g62"><path
           id="path64"
           style="fill:none;stroke:#0b0c0b;stroke-width:3.18498993;stroke-linecap:butt;stroke-linejoin:miter;stroke-miterlimit:2.61310005;stroke-dasharray:none;stroke-opacity:1"
           d="M 13.5047,358.128 H 867.501" /></g><g
         transform="scale(0.896388,1.10361)"
         id="g66"><path
           id="path68"
           style="fill:none;stroke:#0b0c0b;stroke-width:3.17213011;stroke-linecap:butt;stroke-linejoin:miter;stroke-miterlimit:2.61310005;stroke-dasharray:none;stroke-opacity:1"
           d="M 12.1974,186.546 H 866.847" /></g><g
         transform="scale(0.896388,1.10361)"
         id="g70"><path
           id="path72"
           style="fill:none;stroke:#0b0c0b;stroke-width:3.17213011;stroke-linecap:butt;stroke-linejoin:miter;stroke-miterlimit:2.61310005;stroke-dasharray:none;stroke-opacity:1"
           d="M 12.1974,101.081 H 866.847" /></g><path
         id="path74"
         style="fill:none;stroke:#0b0c0b;stroke-width:3.5150001;stroke-linecap:butt;stroke-linejoin:miter;stroke-miterlimit:2.61310005;stroke-dasharray:none;stroke-opacity:1"
         d="M 104.102,12.9141 V 964.754" /><path
         id="path76"
         style="fill:none;stroke:#0b0c0b;stroke-width:3.5150001;stroke-linecap:butt;stroke-linejoin:miter;stroke-miterlimit:2.61310005;stroke-dasharray:none;stroke-opacity:1"
         d="M 293.461,12.9141 V 964.754" /><path
         id="path78"
         style="fill:none;stroke:#0b0c0b;stroke-width:3.5150001;stroke-linecap:butt;stroke-linejoin:miter;stroke-miterlimit:2.61310005;stroke-dasharray:none;stroke-opacity:1"
         d="M 387.781,12.9141 V 964.754" /><path
         id="path80"
         style="fill:none;stroke:#0b0c0b;stroke-width:3.50079989;stroke-linecap:butt;stroke-linejoin:miter;stroke-miterlimit:2.61310005;stroke-dasharray:none;stroke-opacity:1"
         d="M 576.422,12.9141 V 964.754" /><path
         id="path82"
         style="fill:none;stroke:#0b0c0b;stroke-width:3.50079989;stroke-linecap:butt;stroke-linejoin:miter;stroke-miterlimit:2.61310005;stroke-dasharray:none;stroke-opacity:1"
         d="M 670.742,12.9141 V 964.754" /><path
         id="path84"
         style="fill:none;stroke:#0b0c0b;stroke-width:3.5150001;stroke-linecap:butt;stroke-linejoin:miter;stroke-miterlimit:2.61310005;stroke-dasharray:none;stroke-opacity:1"
         d="M 480.66,12.9141 V 964.754" /><g
         transform="scale(0.89496,1.10504)"
         id="g86"><path
           id="path88"
           style="fill:none;stroke:#0b0c0b;stroke-width:3.16803002;stroke-linecap:butt;stroke-linejoin:miter;stroke-miterlimit:2.61310005;stroke-dasharray:none;stroke-opacity:1"
           d="M 15.9923,442.716 H 868.885" /></g><path
         id="path90"
         style="fill:none;stroke:#0b0c0b;stroke-width:3.5150001;stroke-linecap:butt;stroke-linejoin:miter;stroke-miterlimit:2.61310005;stroke-dasharray:none;stroke-opacity:1"
         d="M 201.156,14.5664 V 966.406" /><g
         transform="scale(0.896388,1.10361)"
         id="g92"><path
           id="path94"
           style="fill:none;stroke:#0b0c0b;stroke-width:3.18498993;stroke-linecap:butt;stroke-linejoin:miter;stroke-miterlimit:2.61310005;stroke-dasharray:none;stroke-opacity:1"
           d="M 11.1472,274.079 H 865.139" /></g></g></g></svg>