<?xml version="1.0" encoding="UTF-8" standalone="no"?>
<svg
   xmlns:dc="http://purl.org/dc/elements/1.1/"
   xmlns:cc="http://creativecommons.org/ns#"
   xmlns:rdf="http://www.w3.org/1999/02/22-rdf-syntax-ns#"
   xmlns:svg="http://www.w3.org/2000/svg"
   xmlns="http://www.w3.org/2000/svg"
   viewBox="0 0 114.66667 132"
   height="132"
   width="114.66667"
   xml:space="preserve"
   id="svg2"
   version="1.1"><metadata
     id="metadata8"><rdf:RDF><cc:Work
         rdf:about=""><dc:format>image/svg+xml</dc:format><dc:type
           rdf:resource="http://purl.org/dc/dcmitype/StillImage" /></cc:Work></rdf:RDF></metadata><defs
     id="defs6" /><g
     transform="matrix(1.3333333,0,0,-1.3333333,0,132)"
     id="g10"><g
       transform="scale(0.1)"
       id="g12"><path
         id="path14"
         style="fill:#ffffff;fill-opacity:1;fill-rule:evenodd;stroke:none"
         d="m 2.25,11.0508 h 847.398 v 950.398 H 2.25 Z" /><g
         transform="scale(0.946117,1.05388)"
         id="g16"><path
           id="path18"
           style="fill:none;stroke:#0b0c0b;stroke-width:3.33528996;stroke-linecap:butt;stroke-linejoin:miter;stroke-miterlimit:2.61310005;stroke-dasharray:none;stroke-opacity:1"
           d="M 2.37814,10.4858 H 898.037 V 912.292 H 2.37814 Z" /></g><g
         transform="scale(0.946117,1.05388)"
         id="g20"><path
           id="path22"
           style="fill:none;stroke:#0b0c0b;stroke-width:3.32181001;stroke-linecap:butt;stroke-linejoin:miter;stroke-miterlimit:2.61310005;stroke-dasharray:none;stroke-opacity:1"
           d="M 3.74475,820.745 H 898.041" /></g><g
         transform="scale(0.946117,1.05388)"
         id="g24"><path
           id="path26"
           style="fill:none;stroke:#0b0c0b;stroke-width:3.32181001;stroke-linecap:butt;stroke-linejoin:miter;stroke-miterlimit:2.61310005;stroke-dasharray:none;stroke-opacity:1"
           d="M 2.37814,730.565 H 897.356" /></g><g
         transform="scale(0.946117,1.05388)"
         id="g28"><path
           id="path30"
           style="fill:none;stroke:#0b0c0b;stroke-width:3.32181001;stroke-linecap:butt;stroke-linejoin:miter;stroke-miterlimit:2.61310005;stroke-dasharray:none;stroke-opacity:1"
           d="M 2.37814,640.385 H 897.356" /></g><g
         transform="scale(0.946117,1.05388)"
         id="g32"><path
           id="path34"
           style="fill:none;stroke:#0b0c0b;stroke-width:3.32181001;stroke-linecap:butt;stroke-linejoin:miter;stroke-miterlimit:2.61310005;stroke-dasharray:none;stroke-opacity:1"
           d="M 2.37814,550.887 H 897.356" /></g><g
         transform="scale(0.946117,1.05388)"
         id="g36"><path
           id="path38"
           style="fill:none;stroke:#0b0c0b;stroke-width:3.32181001;stroke-linecap:butt;stroke-linejoin:miter;stroke-miterlimit:2.61310005;stroke-dasharray:none;stroke-opacity:1"
           d="M 3.74475,371.891 H 898.037" /></g><g
         transform="scale(0.946117,1.05388)"
         id="g40"><path
           id="path42"
           style="fill:none;stroke:#0b0c0b;stroke-width:3.32181001;stroke-linecap:butt;stroke-linejoin:miter;stroke-miterlimit:2.61310005;stroke-dasharray:none;stroke-opacity:1"
           d="M 2.37814,282.393 H 897.356" /></g><g
         transform="scale(0.946117,1.05388)"
         id="g44"><path
           id="path46"
           style="fill:none;stroke:#0b0c0b;stroke-width:3.32181001;stroke-linecap:butt;stroke-linejoin:miter;stroke-miterlimit:2.61310005;stroke-dasharray:none;stroke-opacity:1"
           d="M 2.37814,192.213 H 897.356" /></g><g
         transform="scale(0.946117,1.05388)"
         id="g48"><path
           id="path50"
           style="fill:none;stroke:#0b0c0b;stroke-width:3.32181001;stroke-linecap:butt;stroke-linejoin:miter;stroke-miterlimit:2.61310005;stroke-dasharray:none;stroke-opacity:1"
           d="M 2.37814,102.715 H 897.356" /></g><path
         id="path52"
         style="fill:none;stroke:#0b0c0b;stroke-width:3.5150001;stroke-linecap:butt;stroke-linejoin:miter;stroke-miterlimit:2.61310005;stroke-dasharray:none;stroke-opacity:1"
         d="M 95.1289,9.60938 V 961.449" /><path
         id="path54"
         style="fill:none;stroke:#0b0c0b;stroke-width:3.50079989;stroke-linecap:butt;stroke-linejoin:miter;stroke-miterlimit:2.61310005;stroke-dasharray:none;stroke-opacity:1"
         d="M 189.449,9.60938 V 961.449" /><path
         id="path56"
         style="fill:none;stroke:#0b0c0b;stroke-width:3.50079989;stroke-linecap:butt;stroke-linejoin:miter;stroke-miterlimit:2.61310005;stroke-dasharray:none;stroke-opacity:1"
         d="M 284.492,9.60938 V 961.449" /><path
         id="path58"
         style="fill:none;stroke:#0b0c0b;stroke-width:3.5150001;stroke-linecap:butt;stroke-linejoin:miter;stroke-miterlimit:2.61310005;stroke-dasharray:none;stroke-opacity:1"
         d="M 378.812,9.60938 V 961.449" /><path
         id="path60"
         style="fill:none;stroke:#0b0c0b;stroke-width:3.50079989;stroke-linecap:butt;stroke-linejoin:miter;stroke-miterlimit:2.61310005;stroke-dasharray:none;stroke-opacity:1"
         d="M 567.449,9.60938 V 961.449" /><path
         id="path62"
         style="fill:none;stroke:#0b0c0b;stroke-width:3.50079989;stroke-linecap:butt;stroke-linejoin:miter;stroke-miterlimit:2.61310005;stroke-dasharray:none;stroke-opacity:1"
         d="M 661.77,9.60938 V 961.449" /><path
         id="path64"
         style="fill:none;stroke:#0b0c0b;stroke-width:3.50079989;stroke-linecap:butt;stroke-linejoin:miter;stroke-miterlimit:2.61310005;stroke-dasharray:none;stroke-opacity:1"
         d="M 756.812,10.3281 V 961.449" /><path
         id="path66"
         style="fill:none;stroke:#0b0c0b;stroke-width:3.50079989;stroke-linecap:butt;stroke-linejoin:miter;stroke-miterlimit:2.61310005;stroke-dasharray:none;stroke-opacity:1"
         d="M 851.129,10.3281 V 961.449" /><g
         transform="scale(0.953152,1.04685)"
         id="g68"><path
           id="path70"
           style="fill:none;stroke:#231f20;stroke-width:7.16484022;stroke-linecap:butt;stroke-linejoin:miter;stroke-miterlimit:2.61310005;stroke-dasharray:none;stroke-opacity:1"
           d="M 6.69243,284.291 H 874.668" /></g><path
         id="path72"
         style="fill:#231f20;fill-opacity:1;fill-rule:evenodd;stroke:none"
         d="m 850.578,297.609 -70.558,30.239 c 10.078,-20.16 10.078,-40.321 0,-60.481 l 70.558,30.242" /><g
         transform="scale(0.985237,1.01476)"
         id="g74"><path
           id="path76"
           style="fill:none;stroke:#231f20;stroke-width:7.62436008;stroke-linecap:butt;stroke-linejoin:miter;stroke-miterlimit:2.61310005;stroke-dasharray:none;stroke-opacity:1"
           d="M 192.823,10.89 V 937.53" /></g><path
         id="path78"
         style="fill:#231f20;fill-opacity:1;fill-rule:evenodd;stroke:none"
         d="M 189.977,986.648 159.738,916.09 c 20.16,10.078 40.321,10.078 60.481,0 l -30.242,70.558" /><path
         id="path80"
         style="fill:#231f20;fill-opacity:1;fill-rule:evenodd;stroke:none"
         d="m 802.691,260.281 c 1.442,-1.441 2.161,-2.883 3.602,-5.043 0,-0.718 1.437,-4.32 2.879,-9.359 l 4.32,6.48 c 0.719,2.161 2.16,3.602 3.602,5.039 2.16,1.442 3.597,2.161 4.32,2.883 0.719,0 2.16,0 2.879,0 1.437,0 2.16,0 3.598,-0.722 0.722,-0.719 0.722,-2.161 0.722,-2.879 0,-1.442 0,-2.16 -0.722,-2.879 -0.719,-0.723 -1.438,-0.723 -2.879,-0.723 -0.719,0 -1.438,0 -2.16,0 -1.438,0.723 -2.879,0.723 -2.879,0.723 -0.719,0 -2.161,0 -2.879,-1.442 -2.16,-1.441 -4.321,-4.32 -7.203,-9.359 l 3.601,-16.559 c 0.719,-2.882 1.442,-4.32 1.442,-5.043 0.718,-0.718 1.437,-0.718 1.437,-0.718 0.723,0 1.441,0.718 2.883,1.441 1.437,1.438 2.879,2.879 4.32,5.758 l 1.438,-0.719 c -2.16,-4.32 -4.321,-7.199 -7.918,-10.082 -1.442,-1.437 -2.883,-2.16 -4.321,-2.16 -1.441,0 -2.882,1.441 -4.32,3.602 -0.723,0.718 -2.16,6.48 -4.32,15.839 -5.039,-8.64 -9.36,-14.398 -12.242,-16.558 -2.161,-2.16 -3.598,-2.883 -5.758,-2.883 -1.442,0 -2.16,0.723 -3.602,1.441 -0.719,0.719 -0.719,2.161 -0.719,2.879 0,1.442 0,2.16 0.719,2.883 0.723,0.719 1.442,0.719 2.883,0.719 0.719,0 2.16,0 2.879,-1.442 1.437,-0.718 2.16,-0.718 2.16,-0.718 0.719,0 0.719,0 1.438,0.718 1.441,1.442 3.601,3.602 6.48,7.922 2.883,4.321 4.32,7.2 5.043,8.641 -2.16,7.918 -2.883,12.238 -2.883,12.957 -0.719,2.16 -2.16,3.602 -3.597,4.32 -0.723,0.723 -2.883,1.442 -5.043,1.442 -0.719,0 -1.438,0 -2.161,0 v 1.441 l 12.961,2.16" /><path
         id="path82"
         style="fill:#231f20;fill-opacity:1;fill-rule:evenodd;stroke:none"
         d="m 149.656,277.449 c 3.602,0 6.481,-0.719 9.364,-2.16 2.878,-1.441 5.039,-3.601 6.476,-6.48 1.442,-3.598 2.16,-6.481 2.16,-9.36 0,-5.761 -1.437,-12.238 -5.039,-18 -2.879,-6.48 -7.199,-10.801 -12.961,-14.398 -5.039,-3.602 -10.797,-5.043 -16.558,-5.043 -3.602,0 -7.2,0.722 -10.078,2.883 -2.883,1.437 -4.321,4.32 -5.762,7.199 -1.442,2.879 -2.16,5.758 -2.16,8.64 0,5.04 1.441,10.079 3.601,14.399 2.16,5.039 5.039,9.359 8.641,12.238 2.879,3.602 6.476,5.762 10.797,7.203 3.601,2.16 7.203,2.879 11.519,2.879 z m -1.437,-2.16 c -2.16,0 -5.039,-0.719 -7.199,-2.16 -2.883,-1.441 -5.043,-3.602 -7.922,-6.481 -2.16,-2.878 -4.321,-6.48 -6.481,-11.519 -2.16,-5.758 -3.597,-11.52 -3.597,-16.559 0,-3.601 1.437,-6.48 2.878,-9.359 2.161,-2.883 5.04,-4.32 8.641,-4.32 2.879,0 5.039,0 7.199,1.437 2.16,1.442 4.321,2.883 7.2,5.762 2.878,3.598 5.761,8.64 7.921,13.68 2.161,5.757 2.879,10.8 2.879,15.839 0,3.602 -0.718,6.481 -2.879,9.36 -1.441,2.879 -4.32,4.32 -8.64,4.32" /><path
         id="path84"
         style="fill:#231f20;fill-opacity:1;fill-rule:evenodd;stroke:none"
         d="m 244.699,274.57 16.559,7.918 h 1.441 v -56.16 c 0,-3.598 0,-5.758 0.719,-6.48 0,-1.438 0.719,-2.16 1.441,-2.16 1.438,-0.719 2.879,-0.719 5.758,-1.438 v -1.441 h -24.48 v 1.441 c 2.883,0.719 5.043,0.719 5.761,1.438 1.442,0 1.442,0.722 2.161,1.441 0,0.719 0.718,3.601 0.718,7.199 v 36 c 0,4.32 -0.718,7.922 -0.718,9.36 0,0.722 -0.719,1.441 -1.442,2.16 -0.719,0.722 -1.437,0.722 -2.16,0.722 -0.719,0 -2.879,-0.722 -5.039,-1.441 l -0.719,1.441" /><path
         id="path86"
         style="fill:#231f20;fill-opacity:1;fill-rule:evenodd;stroke:none"
         d="m 127.336,948.492 c 0.719,-2.16 1.437,-3.601 2.16,-5.762 0.719,-1.437 0.719,-4.316 1.438,-9.359 l 2.16,-23.758 c 1.441,2.16 4.32,5.758 8.64,10.801 1.442,2.156 3.602,5.758 6.481,10.078 1.441,2.879 2.16,4.32 2.879,5.762 0,0 0,0.719 0,1.437 v 0.723 c -0.719,0 -0.719,0.719 -2.16,0.719 -0.719,0.719 -1.438,0.719 -2.161,2.16 -0.718,0.719 -0.718,1.437 -0.718,2.879 0,0.719 0,2.16 0.718,2.879 0.723,0.722 2.161,1.441 2.883,1.441 1.438,0 2.879,-0.719 3.598,-2.16 1.441,-0.719 2.16,-2.879 2.16,-5.039 0,-2.16 -1.437,-5.039 -2.879,-8.641 -2.16,-2.879 -5.039,-7.922 -10.078,-15.121 -5.043,-6.48 -11.523,-14.398 -18.723,-22.32 -4.32,-5.758 -7.918,-9.359 -10.8,-10.801 -2.161,-1.437 -4.321,-2.16 -5.758,-2.16 -1.442,0 -2.16,0.723 -2.879,1.441 -0.723,0.719 -0.723,1.442 -0.723,2.879 0,0.723 0,2.16 1.442,2.883 0.718,1.438 2.16,2.16 3.597,2.16 0,0 0.723,-0.722 1.442,-0.722 0,0 0.718,-0.719 0.718,-1.438 0,-0.723 0.723,-1.441 0.723,-1.441 h 0.719 0.719 c 2.16,1.441 4.32,2.879 6.48,5.761 2.883,2.879 5.762,5.758 7.199,7.2 l -2.879,30.961 c -0.718,5.757 -1.437,8.636 -2.16,9.359 -0.719,1.437 -2.16,2.16 -4.32,2.16 -0.719,0 -2.16,0 -3.598,-0.723 l -0.722,2.161 14.402,3.601" /><path
         id="path88"
         style="fill:#231f20;fill-opacity:1;fill-rule:evenodd;stroke:none"
         d="m 140.297,466.09 16.562,7.918 h 1.438 v -56.16 c 0,-3.598 0,-5.758 0,-6.477 0.723,-1.441 1.441,-2.16 2.16,-2.16 0.723,-0.723 2.883,-0.723 5.762,-0.723 v -2.16 h -24.481 v 2.16 c 2.879,0 5.039,0 5.758,0.723 0.723,0 1.442,0.719 2.16,1.437 0,0.723 0.723,3.602 0.723,7.2 v 36 c 0,5.043 -0.723,7.922 -0.723,9.359 0,0.723 -0.718,1.441 -1.437,2.16 -0.723,0.723 -1.442,0.723 -2.16,0.723 -0.719,0 -2.879,-0.723 -5.039,-1.442 l -0.723,1.442" /><path
         id="path90"
         style="fill:none;stroke:#231f20;stroke-width:9.99779987;stroke-linecap:butt;stroke-linejoin:miter;stroke-miterlimit:2.61310005;stroke-dasharray:none;stroke-opacity:1"
         d="m 169.098,391.207 h 38.16" /><path
         id="path92"
         style="fill:none;stroke:#231f20;stroke-width:10.00629997;stroke-linecap:butt;stroke-linejoin:miter;stroke-miterlimit:2.61310005;stroke-dasharray:none;stroke-opacity:1"
         d="M 284.492,316.688 V 278.531" /><path
         id="path94"
         style="fill:none;stroke:#231f20;stroke-width:10.00059986;stroke-linecap:butt;stroke-linejoin:miter;stroke-miterlimit:2.61310005;stroke-dasharray:none;stroke-opacity:1"
         d="M 676.352,915.586 C 545.754,378.863 411.047,307.43 270.324,916.035" /><path
         id="path96"
         style="fill:none;stroke:#0b0c0b;stroke-width:3.5150001;stroke-linecap:butt;stroke-linejoin:miter;stroke-miterlimit:2.61310005;stroke-dasharray:none;stroke-opacity:1"
         d="M 471.688,9.60938 V 961.449" /><g
         transform="scale(0.946117,1.05388)"
         id="g98"><path
           id="path100"
           style="fill:none;stroke:#0b0c0b;stroke-width:3.32181001;stroke-linecap:butt;stroke-linejoin:miter;stroke-miterlimit:2.61310005;stroke-dasharray:none;stroke-opacity:1"
           d="M 5.31366,461.067 H 899.602" /></g></g></g></svg>