<?xml version="1.0" encoding="UTF-8" standalone="no"?>
<svg
   xmlns:dc="http://purl.org/dc/elements/1.1/"
   xmlns:cc="http://creativecommons.org/ns#"
   xmlns:rdf="http://www.w3.org/1999/02/22-rdf-syntax-ns#"
   xmlns:svg="http://www.w3.org/2000/svg"
   xmlns="http://www.w3.org/2000/svg"
   viewBox="0 0 388 137.33333"
   height="137.33333"
   width="388"
   xml:space="preserve"
   id="svg2"
   version="1.1"><metadata
     id="metadata8"><rdf:RDF><cc:Work
         rdf:about=""><dc:format>image/svg+xml</dc:format><dc:type
           rdf:resource="http://purl.org/dc/dcmitype/StillImage" /></cc:Work></rdf:RDF></metadata><defs
     id="defs6" /><g
     transform="matrix(1.3333333,0,0,-1.3333333,0,137.33333)"
     id="g10"><g
       transform="scale(0.1)"
       id="g12"><path
         id="path14"
         style="fill:#ffffff;fill-opacity:1;fill-rule:evenodd;stroke:none"
         d="m 1024.54,2.04297 h 871.938 v 902.031 H 1024.54 Z" /><path
         id="path16"
         style="fill:none;stroke:#0b0c0b;stroke-width:2.16000009;stroke-linecap:butt;stroke-linejoin:miter;stroke-miterlimit:2.61310005;stroke-dasharray:none;stroke-opacity:1"
         d="m 1024.54,2.04297 h 871.938 v 902.031 H 1024.54 Z" /><path
         id="path18"
         style="fill:none;stroke:#101211;stroke-width:2.16000009;stroke-linecap:butt;stroke-linejoin:miter;stroke-miterlimit:2.61310005;stroke-dasharray:none;stroke-opacity:1"
         d="M 1097.2,2.04297 V 904.074" /><path
         id="path20"
         style="fill:none;stroke:#101211;stroke-width:2.16000009;stroke-linecap:butt;stroke-linejoin:miter;stroke-miterlimit:2.61310005;stroke-dasharray:none;stroke-opacity:1"
         d="M 1169.86,2.04297 V 904.074" /><path
         id="path22"
         style="fill:none;stroke:#101211;stroke-width:2.16000009;stroke-linecap:butt;stroke-linejoin:miter;stroke-miterlimit:2.61310005;stroke-dasharray:none;stroke-opacity:1"
         d="M 1242.52,2.04297 V 904.074" /><path
         id="path24"
         style="fill:none;stroke:#101211;stroke-width:2.16000009;stroke-linecap:butt;stroke-linejoin:miter;stroke-miterlimit:2.61310005;stroke-dasharray:none;stroke-opacity:1"
         d="M 1315.18,2.04297 V 904.074" /><path
         id="path26"
         style="fill:none;stroke:#101211;stroke-width:2.16000009;stroke-linecap:butt;stroke-linejoin:miter;stroke-miterlimit:2.61310005;stroke-dasharray:none;stroke-opacity:1"
         d="M 1387.85,2.04297 V 904.074" /><path
         id="path28"
         style="fill:none;stroke:#101211;stroke-width:2.16000009;stroke-linecap:butt;stroke-linejoin:miter;stroke-miterlimit:2.61310005;stroke-dasharray:none;stroke-opacity:1"
         d="M 1460.51,2.04297 V 904.074" /><path
         id="path30"
         style="fill:none;stroke:#101211;stroke-width:2.16000009;stroke-linecap:butt;stroke-linejoin:miter;stroke-miterlimit:2.61310005;stroke-dasharray:none;stroke-opacity:1"
         d="M 1533.17,2.04297 V 904.074" /><path
         id="path32"
         style="fill:none;stroke:#101211;stroke-width:2.16000009;stroke-linecap:butt;stroke-linejoin:miter;stroke-miterlimit:2.61310005;stroke-dasharray:none;stroke-opacity:1"
         d="M 1605.83,2.04297 V 904.074" /><path
         id="path34"
         style="fill:none;stroke:#101211;stroke-width:2.16000009;stroke-linecap:butt;stroke-linejoin:miter;stroke-miterlimit:2.61310005;stroke-dasharray:none;stroke-opacity:1"
         d="M 1678.49,2.04297 V 904.074" /><path
         id="path36"
         style="fill:none;stroke:#101211;stroke-width:2.16000009;stroke-linecap:butt;stroke-linejoin:miter;stroke-miterlimit:2.61310005;stroke-dasharray:none;stroke-opacity:1"
         d="M 1751.15,2.04297 V 904.074" /><path
         id="path38"
         style="fill:none;stroke:#101211;stroke-width:2.16000009;stroke-linecap:butt;stroke-linejoin:miter;stroke-miterlimit:2.61310005;stroke-dasharray:none;stroke-opacity:1"
         d="M 1823.82,2.04297 V 904.074" /><path
         id="path40"
         style="fill:none;stroke:#101211;stroke-width:2.16000009;stroke-linecap:butt;stroke-linejoin:miter;stroke-miterlimit:2.61310005;stroke-dasharray:none;stroke-opacity:1"
         d="m 1024.54,77.2109 h 871.94" /><path
         id="path42"
         style="fill:none;stroke:#101211;stroke-width:2.16000009;stroke-linecap:butt;stroke-linejoin:miter;stroke-miterlimit:2.61310005;stroke-dasharray:none;stroke-opacity:1"
         d="m 1024.54,152.383 h 871.94" /><path
         id="path44"
         style="fill:none;stroke:#101211;stroke-width:2.16000009;stroke-linecap:butt;stroke-linejoin:miter;stroke-miterlimit:2.61310005;stroke-dasharray:none;stroke-opacity:1"
         d="m 1024.54,227.551 h 871.94" /><path
         id="path46"
         style="fill:none;stroke:#101211;stroke-width:2.16000009;stroke-linecap:butt;stroke-linejoin:miter;stroke-miterlimit:2.61310005;stroke-dasharray:none;stroke-opacity:1"
         d="m 1024.54,302.723 h 871.94" /><path
         id="path48"
         style="fill:none;stroke:#101211;stroke-width:2.16000009;stroke-linecap:butt;stroke-linejoin:miter;stroke-miterlimit:2.61310005;stroke-dasharray:none;stroke-opacity:1"
         d="m 1024.54,377.891 h 871.94" /><path
         id="path50"
         style="fill:none;stroke:#101211;stroke-width:2.16000009;stroke-linecap:butt;stroke-linejoin:miter;stroke-miterlimit:2.61310005;stroke-dasharray:none;stroke-opacity:1"
         d="m 1024.54,453.062 h 871.94" /><path
         id="path52"
         style="fill:none;stroke:#101211;stroke-width:2.16000009;stroke-linecap:butt;stroke-linejoin:miter;stroke-miterlimit:2.61310005;stroke-dasharray:none;stroke-opacity:1"
         d="m 1024.54,528.227 h 871.94" /><path
         id="path54"
         style="fill:none;stroke:#101211;stroke-width:2.16000009;stroke-linecap:butt;stroke-linejoin:miter;stroke-miterlimit:2.61310005;stroke-dasharray:none;stroke-opacity:1"
         d="m 1024.54,603.395 h 871.94" /><path
         id="path56"
         style="fill:none;stroke:#101211;stroke-width:2.16000009;stroke-linecap:butt;stroke-linejoin:miter;stroke-miterlimit:2.61310005;stroke-dasharray:none;stroke-opacity:1"
         d="m 1024.54,678.566 h 871.94" /><path
         id="path58"
         style="fill:none;stroke:#101211;stroke-width:2.16000009;stroke-linecap:butt;stroke-linejoin:miter;stroke-miterlimit:2.61310005;stroke-dasharray:none;stroke-opacity:1"
         d="m 1024.54,753.738 h 871.94" /><path
         id="path60"
         style="fill:none;stroke:#101211;stroke-width:2.16000009;stroke-linecap:butt;stroke-linejoin:miter;stroke-miterlimit:2.61310005;stroke-dasharray:none;stroke-opacity:1"
         d="m 1024.54,828.906 h 871.94" /><path
         id="path62"
         style="fill:none;stroke:#231f20;stroke-width:7.5005002;stroke-linecap:butt;stroke-linejoin:miter;stroke-miterlimit:2.61310005;stroke-dasharray:none;stroke-opacity:1"
         d="m 1024.54,453.062 h 828.19" /><path
         id="path64"
         style="fill:#231f20;fill-opacity:1;fill-rule:evenodd;stroke:none"
         d="m 1848.58,479.41 47.9,-26.348 -47.9,-26.351 v 52.699" /><path
         id="path66"
         style="fill:none;stroke:#0b0c0b;stroke-width:7.5005002;stroke-linecap:butt;stroke-linejoin:miter;stroke-miterlimit:2.61310005;stroke-dasharray:none;stroke-opacity:1"
         d="m 1024.54,478.117 4.36,0.25 4.36,0.262 4.36,0.262 4.36,0.269 4.36,0.274 4.36,0.281 4.36,0.285 4.36,0.297 4.36,0.297 4.36,0.304 4.36,0.313 4.36,0.324 4.35,0.324 4.36,0.336 4.36,0.344 4.37,0.348 4.36,0.359 4.36,0.371 4.36,0.379 4.35,0.383 4.36,0.398 4.36,0.407 4.36,0.414 4.36,0.429 4.36,0.442 4.36,0.449 4.36,0.465 4.36,0.476 4.36,0.489 4.36,0.507 4.36,0.516 4.36,0.535 4.36,0.551 4.36,0.566 4.36,0.582 4.36,0.606 4.36,0.621 4.36,0.641 4.36,0.66 4.36,0.687 4.36,0.711 4.36,0.731 4.36,0.754 4.36,0.785 4.36,0.816 4.36,0.844 4.36,0.875 4.35,0.906 4.36,0.946 4.36,0.984 4.36,1.023 4.36,1.067 4.37,1.109 4.35,1.156 4.36,1.211 4.36,1.27 4.36,1.32 4.36,1.391 4.36,1.453 4.36,1.527 4.36,1.606 4.36,1.691 4.36,1.785 4.36,1.879 4.36,1.988 4.36,2.106 4.36,2.234 4.36,2.371 4.36,2.528 4.36,2.695 4.36,2.879 4.36,3.082 4.36,3.32 4.36,3.567 4.36,3.855 4.36,4.18 4.35,4.535 4.37,4.949 4.36,5.426 4.36,5.969 4.36,6.594 4.36,7.324 4.35,8.187 4.36,9.215 4.36,10.438 4.36,11.933 4.36,13.766 4.36,16.062 4.36,18.985 4.36,22.777 4.36,27.836 4.36,34.805 4.36,44.742 4.36,59.66 1.74,33.406" /><path
         id="path68"
         style="fill:none;stroke:#0b0c0b;stroke-width:7.5005002;stroke-linecap:butt;stroke-linejoin:miter;stroke-miterlimit:2.61310005;stroke-dasharray:none;stroke-opacity:1"
         d="M 1464.86,860.328 1464.87,2.04297" /><path
         id="path70"
         style="fill:#0b0c0b;fill-opacity:1;fill-rule:evenodd;stroke:none"
         d="m 1491.21,856.176 -26.35,47.898 -26.34,-47.898 h 52.69" /><path
         id="path72"
         style="fill:none;stroke:#0b0c0b;stroke-width:7.5005002;stroke-linecap:butt;stroke-linejoin:miter;stroke-miterlimit:2.61310005;stroke-dasharray:none;stroke-opacity:1"
         d="m 1484.92,2.04297 1.75,33.41013 4.36,59.6563 4.36,44.7426 4.36,34.804 4.36,27.84 4.35,22.774 4.36,18.984 4.36,16.062 4.36,13.77 4.36,11.93 4.37,10.437 4.35,9.215 4.36,8.187 4.36,7.325 4.36,6.593 4.36,5.969 4.36,5.426 4.36,4.949 4.36,4.539 4.36,4.176 4.36,3.856 4.36,3.57 4.36,3.316 4.36,3.082 4.36,2.883 4.36,2.691 4.36,2.528 4.36,2.375 4.36,2.234 4.36,2.102 4.36,1.988 4.36,1.883 4.36,1.781 4.36,1.691 4.35,1.606 4.36,1.527 4.37,1.453 4.36,1.391 4.36,1.324 4.36,1.266 4.35,1.211 4.36,1.156 4.36,1.113 4.36,1.063 4.36,1.023 4.36,0.985 4.36,0.945 4.36,0.91 4.36,0.871 4.36,0.848 4.36,0.812 4.36,0.786 4.36,0.757 4.36,0.731 4.36,0.707 4.36,0.687 4.36,0.661 4.36,0.644 4.36,0.621 4.36,0.602 4.36,0.586 4.36,0.562 4.36,0.555 4.36,0.531 4.36,0.52 4.36,0.504 4.36,0.488 4.36,0.476 4.35,0.465 4.36,0.453 4.36,0.438 4.36,0.43 4.36,0.414 4.37,0.406 4.36,0.398 4.35,0.387 4.36,0.379 4.36,0.367 4.36,0.359 4.36,0.352 4.36,0.34 4.36,0.336 4.36,0.324 4.36,0.324 4.36,0.313 4.36,0.304 4.36,0.301 4.36,0.293 4.36,0.285 4.36,0.282 4.36,0.277 4.36,0.269 4.36,0.258 4.36,0.262 4.36,0.254" /><path
         id="path74"
         style="fill:#ffffff;fill-opacity:1;fill-rule:evenodd;stroke:none"
         d="m 2032.54,2.04297 h 871.938 v 902.031 H 2032.54 Z" /><path
         id="path76"
         style="fill:none;stroke:#0b0c0b;stroke-width:2.16000009;stroke-linecap:butt;stroke-linejoin:miter;stroke-miterlimit:2.61310005;stroke-dasharray:none;stroke-opacity:1"
         d="m 2032.54,2.04297 h 871.938 v 902.031 H 2032.54 Z" /><path
         id="path78"
         style="fill:none;stroke:#101211;stroke-width:2.16000009;stroke-linecap:butt;stroke-linejoin:miter;stroke-miterlimit:2.61310005;stroke-dasharray:none;stroke-opacity:1"
         d="M 2105.2,2.04297 V 904.074" /><path
         id="path80"
         style="fill:none;stroke:#101211;stroke-width:2.16000009;stroke-linecap:butt;stroke-linejoin:miter;stroke-miterlimit:2.61310005;stroke-dasharray:none;stroke-opacity:1"
         d="M 2177.86,2.04297 V 904.074" /><path
         id="path82"
         style="fill:none;stroke:#101211;stroke-width:2.16000009;stroke-linecap:butt;stroke-linejoin:miter;stroke-miterlimit:2.61310005;stroke-dasharray:none;stroke-opacity:1"
         d="M 2250.52,2.04297 V 904.074" /><path
         id="path84"
         style="fill:none;stroke:#101211;stroke-width:2.16000009;stroke-linecap:butt;stroke-linejoin:miter;stroke-miterlimit:2.61310005;stroke-dasharray:none;stroke-opacity:1"
         d="M 2323.18,2.04297 V 904.074" /><path
         id="path86"
         style="fill:none;stroke:#101211;stroke-width:2.16000009;stroke-linecap:butt;stroke-linejoin:miter;stroke-miterlimit:2.61310005;stroke-dasharray:none;stroke-opacity:1"
         d="M 2395.85,2.04297 V 904.074" /><path
         id="path88"
         style="fill:none;stroke:#101211;stroke-width:2.16000009;stroke-linecap:butt;stroke-linejoin:miter;stroke-miterlimit:2.61310005;stroke-dasharray:none;stroke-opacity:1"
         d="M 2468.51,2.04297 V 904.074" /><path
         id="path90"
         style="fill:none;stroke:#101211;stroke-width:2.16000009;stroke-linecap:butt;stroke-linejoin:miter;stroke-miterlimit:2.61310005;stroke-dasharray:none;stroke-opacity:1"
         d="M 2541.17,2.04297 V 904.074" /><path
         id="path92"
         style="fill:none;stroke:#101211;stroke-width:2.16000009;stroke-linecap:butt;stroke-linejoin:miter;stroke-miterlimit:2.61310005;stroke-dasharray:none;stroke-opacity:1"
         d="M 2613.83,2.04297 V 904.074" /><path
         id="path94"
         style="fill:none;stroke:#101211;stroke-width:2.16000009;stroke-linecap:butt;stroke-linejoin:miter;stroke-miterlimit:2.61310005;stroke-dasharray:none;stroke-opacity:1"
         d="M 2686.49,2.04297 V 904.074" /><path
         id="path96"
         style="fill:none;stroke:#101211;stroke-width:2.16000009;stroke-linecap:butt;stroke-linejoin:miter;stroke-miterlimit:2.61310005;stroke-dasharray:none;stroke-opacity:1"
         d="M 2759.15,2.04297 V 904.074" /><path
         id="path98"
         style="fill:none;stroke:#101211;stroke-width:2.16000009;stroke-linecap:butt;stroke-linejoin:miter;stroke-miterlimit:2.61310005;stroke-dasharray:none;stroke-opacity:1"
         d="M 2831.82,2.04297 V 904.074" /><path
         id="path100"
         style="fill:none;stroke:#101211;stroke-width:2.16000009;stroke-linecap:butt;stroke-linejoin:miter;stroke-miterlimit:2.61310005;stroke-dasharray:none;stroke-opacity:1"
         d="m 2032.54,77.2109 h 871.94" /><path
         id="path102"
         style="fill:none;stroke:#101211;stroke-width:2.16000009;stroke-linecap:butt;stroke-linejoin:miter;stroke-miterlimit:2.61310005;stroke-dasharray:none;stroke-opacity:1"
         d="m 2032.54,152.383 h 871.94" /><path
         id="path104"
         style="fill:none;stroke:#101211;stroke-width:2.16000009;stroke-linecap:butt;stroke-linejoin:miter;stroke-miterlimit:2.61310005;stroke-dasharray:none;stroke-opacity:1"
         d="m 2032.54,227.551 h 871.94" /><path
         id="path106"
         style="fill:none;stroke:#101211;stroke-width:2.16000009;stroke-linecap:butt;stroke-linejoin:miter;stroke-miterlimit:2.61310005;stroke-dasharray:none;stroke-opacity:1"
         d="m 2032.54,302.723 h 871.94" /><path
         id="path108"
         style="fill:none;stroke:#101211;stroke-width:2.16000009;stroke-linecap:butt;stroke-linejoin:miter;stroke-miterlimit:2.61310005;stroke-dasharray:none;stroke-opacity:1"
         d="m 2032.54,377.891 h 871.94" /><path
         id="path110"
         style="fill:none;stroke:#101211;stroke-width:2.16000009;stroke-linecap:butt;stroke-linejoin:miter;stroke-miterlimit:2.61310005;stroke-dasharray:none;stroke-opacity:1"
         d="m 2032.54,453.062 h 871.94" /><path
         id="path112"
         style="fill:none;stroke:#101211;stroke-width:2.16000009;stroke-linecap:butt;stroke-linejoin:miter;stroke-miterlimit:2.61310005;stroke-dasharray:none;stroke-opacity:1"
         d="m 2032.54,528.227 h 871.94" /><path
         id="path114"
         style="fill:none;stroke:#101211;stroke-width:2.16000009;stroke-linecap:butt;stroke-linejoin:miter;stroke-miterlimit:2.61310005;stroke-dasharray:none;stroke-opacity:1"
         d="m 2032.54,603.395 h 871.94" /><path
         id="path116"
         style="fill:none;stroke:#101211;stroke-width:2.16000009;stroke-linecap:butt;stroke-linejoin:miter;stroke-miterlimit:2.61310005;stroke-dasharray:none;stroke-opacity:1"
         d="m 2032.54,678.566 h 871.94" /><path
         id="path118"
         style="fill:none;stroke:#101211;stroke-width:2.16000009;stroke-linecap:butt;stroke-linejoin:miter;stroke-miterlimit:2.61310005;stroke-dasharray:none;stroke-opacity:1"
         d="m 2032.54,753.738 h 871.94" /><path
         id="path120"
         style="fill:none;stroke:#101211;stroke-width:2.16000009;stroke-linecap:butt;stroke-linejoin:miter;stroke-miterlimit:2.61310005;stroke-dasharray:none;stroke-opacity:1"
         d="m 2032.54,828.906 h 871.94" /><path
         id="path122"
         style="fill:none;stroke:#231f20;stroke-width:7.5005002;stroke-linecap:butt;stroke-linejoin:miter;stroke-miterlimit:2.61310005;stroke-dasharray:none;stroke-opacity:1"
         d="m 2032.54,453.062 h 828.19" /><path
         id="path124"
         style="fill:#231f20;fill-opacity:1;fill-rule:evenodd;stroke:none"
         d="m 2856.58,479.41 47.9,-26.348 -47.9,-26.351 v 52.699" /><path
         id="path126"
         style="fill:none;stroke:#231f20;stroke-width:7.5005002;stroke-linecap:butt;stroke-linejoin:miter;stroke-miterlimit:2.61310005;stroke-dasharray:none;stroke-opacity:1"
         d="M 2468.51,2.04297 V 860.328" /><path
         id="path128"
         style="fill:#231f20;fill-opacity:1;fill-rule:evenodd;stroke:none"
         d="m 2442.16,856.176 26.35,47.898 26.35,-47.898 h -52.7" /><path
         id="path130"
         style="fill:none;stroke:#0b0c0b;stroke-width:7.5005002;stroke-linecap:butt;stroke-linejoin:miter;stroke-miterlimit:2.61310005;stroke-dasharray:none;stroke-opacity:1"
         d="m 2112.55,904.074 2.83,-7.148 4.35,-10.891 4.36,-10.758 4.36,-10.621 4.36,-10.484 4.36,-10.352 4.36,-10.215 4.36,-10.082 4.36,-9.945 4.36,-9.808 4.36,-9.676 4.36,-9.539 4.36,-9.403 4.36,-9.269 4.36,-9.133 4.36,-8.996 4.36,-8.863 4.36,-8.727 4.36,-8.59 4.36,-8.461 4.36,-8.32 4.36,-8.184 4.36,-8.05 4.36,-7.914 4.36,-7.782 4.36,-7.644 4.36,-7.512 4.36,-7.371 4.36,-7.242 4.35,-7.102 4.36,-6.969 4.36,-6.832 4.36,-6.699 4.36,-6.562 4.37,-6.426 4.35,-6.293 4.36,-6.156 4.36,-6.02 4.36,-5.883 4.36,-5.754 4.36,-5.617 4.36,-5.48 4.36,-5.344 4.36,-5.207 4.36,-5.074 4.36,-4.942 4.36,-4.8 4.36,-4.668 4.36,-4.532 4.36,-4.402 4.36,-4.258 4.36,-4.129 4.36,-3.992 4.36,-3.855 4.36,-3.719 4.36,-3.586 4.36,-3.449 4.36,-3.317 4.35,-3.179 4.36,-3.043 4.37,-2.914 4.36,-2.77 4.36,-2.641 4.36,-2.503 4.35,-2.368 4.36,-2.23 4.36,-2.098 4.36,-1.961 4.36,-1.828 4.36,-1.691 4.36,-1.555 4.36,-1.422 4.36,-1.285 4.36,-1.148 4.36,-1.016 4.36,-0.883 4.36,-0.742 4.36,-0.609 4.36,-0.473 4.36,-0.34 4.36,-0.203 4.36,-0.063 4.36,0.063 4.36,0.203 4.36,0.34 4.36,0.473 4.36,0.609 4.36,0.742 4.36,0.883 4.36,1.016 4.36,1.148 4.36,1.285 4.35,1.422 4.36,1.555 4.36,1.691 4.36,1.828 4.36,1.961 4.37,2.098 4.35,2.23 4.36,2.368 4.36,2.503 4.36,2.641 4.36,2.77 4.36,2.914 4.36,3.043 4.36,3.179 4.36,3.317 4.36,3.449 4.36,3.586 4.36,3.719 4.36,3.855 4.36,3.992 4.36,4.129 4.36,4.258 4.36,4.402 4.36,4.532 4.36,4.668 4.36,4.8 4.36,4.942 4.36,5.074 4.36,5.207 4.35,5.344 4.36,5.48 4.37,5.617 4.36,5.754 4.36,5.883 4.36,6.02 4.35,6.156 4.36,6.293 4.36,6.426 4.36,6.562 4.36,6.699 4.36,6.832 4.36,6.969 4.36,7.102 4.36,7.242 4.36,7.371 4.36,7.512 4.36,7.644 4.36,7.782 4.36,7.914 4.36,8.05 4.36,8.184 4.36,8.32 4.36,8.461 4.36,8.59 4.36,8.727 4.36,8.863 4.36,8.996 4.36,9.133 4.36,9.269 4.36,9.403 4.36,9.539 4.36,9.676 4.36,9.808 4.35,9.945 4.36,10.082 4.36,10.215 4.36,10.352 4.36,10.484 4.37,10.621 4.36,10.758 4.35,10.891 2.83,7.148" /><path
         id="path132"
         style="fill:#ffffff;fill-opacity:1;fill-rule:evenodd;stroke:none"
         d="m 16.5391,2.04297 h 871.938 v 902.031 H 16.5391 Z" /><path
         id="path134"
         style="fill:none;stroke:#0b0c0b;stroke-width:2.16000009;stroke-linecap:butt;stroke-linejoin:miter;stroke-miterlimit:2.61310005;stroke-dasharray:none;stroke-opacity:1"
         d="m 16.5391,2.04297 h 871.938 v 902.031 H 16.5391 Z" /><path
         id="path136"
         style="fill:none;stroke:#101211;stroke-width:2.16000009;stroke-linecap:butt;stroke-linejoin:miter;stroke-miterlimit:2.61310005;stroke-dasharray:none;stroke-opacity:1"
         d="M 89.1992,2.04297 V 904.074" /><path
         id="path138"
         style="fill:none;stroke:#101211;stroke-width:2.16000009;stroke-linecap:butt;stroke-linejoin:miter;stroke-miterlimit:2.61310005;stroke-dasharray:none;stroke-opacity:1"
         d="M 161.863,2.04297 V 904.074" /><path
         id="path140"
         style="fill:none;stroke:#101211;stroke-width:2.16000009;stroke-linecap:butt;stroke-linejoin:miter;stroke-miterlimit:2.61310005;stroke-dasharray:none;stroke-opacity:1"
         d="M 234.523,2.04297 V 904.074" /><path
         id="path142"
         style="fill:none;stroke:#101211;stroke-width:2.16000009;stroke-linecap:butt;stroke-linejoin:miter;stroke-miterlimit:2.61310005;stroke-dasharray:none;stroke-opacity:1"
         d="M 307.184,2.04297 V 904.074" /><path
         id="path144"
         style="fill:none;stroke:#101211;stroke-width:2.16000009;stroke-linecap:butt;stroke-linejoin:miter;stroke-miterlimit:2.61310005;stroke-dasharray:none;stroke-opacity:1"
         d="M 379.848,2.04297 V 904.074" /><path
         id="path146"
         style="fill:none;stroke:#101211;stroke-width:2.16000009;stroke-linecap:butt;stroke-linejoin:miter;stroke-miterlimit:2.61310005;stroke-dasharray:none;stroke-opacity:1"
         d="M 452.508,2.04297 V 904.074" /><path
         id="path148"
         style="fill:none;stroke:#101211;stroke-width:2.16000009;stroke-linecap:butt;stroke-linejoin:miter;stroke-miterlimit:2.61310005;stroke-dasharray:none;stroke-opacity:1"
         d="M 525.168,2.04297 V 904.074" /><path
         id="path150"
         style="fill:none;stroke:#101211;stroke-width:2.16000009;stroke-linecap:butt;stroke-linejoin:miter;stroke-miterlimit:2.61310005;stroke-dasharray:none;stroke-opacity:1"
         d="M 597.832,2.04297 V 904.074" /><path
         id="path152"
         style="fill:none;stroke:#101211;stroke-width:2.16000009;stroke-linecap:butt;stroke-linejoin:miter;stroke-miterlimit:2.61310005;stroke-dasharray:none;stroke-opacity:1"
         d="M 670.492,2.04297 V 904.074" /><path
         id="path154"
         style="fill:none;stroke:#101211;stroke-width:2.16000009;stroke-linecap:butt;stroke-linejoin:miter;stroke-miterlimit:2.61310005;stroke-dasharray:none;stroke-opacity:1"
         d="M 743.152,2.04297 V 904.074" /><path
         id="path156"
         style="fill:none;stroke:#101211;stroke-width:2.16000009;stroke-linecap:butt;stroke-linejoin:miter;stroke-miterlimit:2.61310005;stroke-dasharray:none;stroke-opacity:1"
         d="M 815.816,2.04297 V 904.074" /><path
         id="path158"
         style="fill:none;stroke:#101211;stroke-width:2.16000009;stroke-linecap:butt;stroke-linejoin:miter;stroke-miterlimit:2.61310005;stroke-dasharray:none;stroke-opacity:1"
         d="M 16.5391,77.2109 H 888.477" /><path
         id="path160"
         style="fill:none;stroke:#101211;stroke-width:2.16000009;stroke-linecap:butt;stroke-linejoin:miter;stroke-miterlimit:2.61310005;stroke-dasharray:none;stroke-opacity:1"
         d="M 16.5391,152.383 H 888.477" /><path
         id="path162"
         style="fill:none;stroke:#101211;stroke-width:2.16000009;stroke-linecap:butt;stroke-linejoin:miter;stroke-miterlimit:2.61310005;stroke-dasharray:none;stroke-opacity:1"
         d="M 16.5391,227.551 H 888.477" /><path
         id="path164"
         style="fill:none;stroke:#101211;stroke-width:2.16000009;stroke-linecap:butt;stroke-linejoin:miter;stroke-miterlimit:2.61310005;stroke-dasharray:none;stroke-opacity:1"
         d="M 16.5391,302.723 H 888.477" /><path
         id="path166"
         style="fill:none;stroke:#101211;stroke-width:2.16000009;stroke-linecap:butt;stroke-linejoin:miter;stroke-miterlimit:2.61310005;stroke-dasharray:none;stroke-opacity:1"
         d="M 16.5391,377.891 H 888.477" /><path
         id="path168"
         style="fill:none;stroke:#101211;stroke-width:2.16000009;stroke-linecap:butt;stroke-linejoin:miter;stroke-miterlimit:2.61310005;stroke-dasharray:none;stroke-opacity:1"
         d="M 16.5391,453.062 H 888.477" /><path
         id="path170"
         style="fill:none;stroke:#101211;stroke-width:2.16000009;stroke-linecap:butt;stroke-linejoin:miter;stroke-miterlimit:2.61310005;stroke-dasharray:none;stroke-opacity:1"
         d="M 16.5391,528.227 H 888.477" /><path
         id="path172"
         style="fill:none;stroke:#101211;stroke-width:2.16000009;stroke-linecap:butt;stroke-linejoin:miter;stroke-miterlimit:2.61310005;stroke-dasharray:none;stroke-opacity:1"
         d="M 16.5391,603.395 H 888.477" /><path
         id="path174"
         style="fill:none;stroke:#101211;stroke-width:2.16000009;stroke-linecap:butt;stroke-linejoin:miter;stroke-miterlimit:2.61310005;stroke-dasharray:none;stroke-opacity:1"
         d="M 16.5391,678.566 H 888.477" /><path
         id="path176"
         style="fill:none;stroke:#101211;stroke-width:2.16000009;stroke-linecap:butt;stroke-linejoin:miter;stroke-miterlimit:2.61310005;stroke-dasharray:none;stroke-opacity:1"
         d="M 16.5391,753.738 H 888.477" /><path
         id="path178"
         style="fill:none;stroke:#101211;stroke-width:2.16000009;stroke-linecap:butt;stroke-linejoin:miter;stroke-miterlimit:2.61310005;stroke-dasharray:none;stroke-opacity:1"
         d="M 16.5391,828.906 H 888.477" /><path
         id="path180"
         style="fill:none;stroke:#231f20;stroke-width:7.5005002;stroke-linecap:butt;stroke-linejoin:miter;stroke-miterlimit:2.61310005;stroke-dasharray:none;stroke-opacity:1"
         d="M 16.5391,453.062 H 844.73" /><path
         id="path182"
         style="fill:#231f20;fill-opacity:1;fill-rule:evenodd;stroke:none"
         d="m 840.578,479.41 47.899,-26.348 -47.899,-26.351 v 52.699" /><path
         id="path184"
         style="fill:none;stroke:#231f20;stroke-width:7.5005002;stroke-linecap:butt;stroke-linejoin:miter;stroke-miterlimit:2.61310005;stroke-dasharray:none;stroke-opacity:1"
         d="M 452.508,2.04297 V 860.328" /><path
         id="path186"
         style="fill:#231f20;fill-opacity:1;fill-rule:evenodd;stroke:none"
         d="m 426.16,856.176 26.348,47.898 26.347,-47.898 H 426.16" /><path
         id="path188"
         style="fill:none;stroke:#0b0c0b;stroke-width:7.5005002;stroke-linecap:butt;stroke-linejoin:miter;stroke-miterlimit:2.61310005;stroke-dasharray:none;stroke-opacity:1"
         d="m 343.516,2.04297 v 0 l 4.359,18.03903 4.359,18.043 4.36,18.0391 4.363,18.0429 4.359,18.0391 4.36,18.0389 4.359,18.043 4.36,18.039 4.359,18.043 4.359,18.039 4.36,18.039 4.359,18.043 4.359,18.039 4.36,18.043 4.359,18.039 4.363,18.039 4.36,18.043 4.359,18.039 4.36,18.043 4.359,18.039 4.359,18.04 4.36,18.043 4.359,18.039 4.359,18.043 4.36,18.042 4.359,18.04 4.36,18.039 4.359,18.039 4.363,18.043 4.36,18.039 4.359,18.039 4.359,18.043 4.36,18.039 4.359,18.043 4.359,18.039 4.36,18.039 4.359,18.043 4.36,18.039 4.359,18.043 4.359,18.043 4.36,18.039 4.363,18.039 4.359,18.039 4.36,18.043 4.359,18.039 4.359,18.039 4.36,18.043 4.359,18.039 4.36,18.043 4.359,18.039 v 0" /><path
         id="path190"
         style="fill:#231f20;fill-opacity:1;fill-rule:nonzero;stroke:none"
         d="m 401.32,902.438 c 1.102,-1.883 1.864,-3.653 2.301,-5.286 0.414,-1.648 0.832,-4.882 1.266,-9.699 l 2.148,-24.015 c 1.949,2.332 4.785,6.05 8.5,11.132 1.785,2.465 4,5.832 6.633,10.098 1.602,2.602 2.57,4.434 2.934,5.469 0.183,0.515 0.285,1.066 0.285,1.617 0,0.351 -0.102,0.648 -0.336,0.883 -0.231,0.215 -0.817,0.48 -1.781,0.801 -0.969,0.3 -1.766,0.882 -2.399,1.699 -0.637,0.832 -0.953,1.785 -0.953,2.867 0,1.332 0.402,2.398 1.184,3.215 0.765,0.816 1.75,1.219 2.918,1.219 1.433,0 2.652,-0.586 3.664,-1.786 1.019,-1.183 1.519,-2.816 1.519,-4.898 0,-2.566 -0.883,-5.52 -2.637,-8.816 -1.765,-3.301 -5.144,-8.368 -10.164,-15.2 -5,-6.851 -11.082,-14.3 -18.199,-22.367 -4.918,-5.57 -8.566,-9.082 -10.949,-10.535 -2.367,-1.43 -4.402,-2.164 -6.102,-2.164 -1.015,0 -1.898,0.383 -2.664,1.148 -0.769,0.766 -1.133,1.653 -1.133,2.664 0,1.27 0.516,2.418 1.579,3.469 1.054,1.035 2.203,1.551 3.437,1.551 0.649,0 1.199,-0.133 1.617,-0.434 0.266,-0.168 0.547,-0.632 0.848,-1.402 0.316,-0.746 0.598,-1.266 0.867,-1.531 0.149,-0.164 0.352,-0.235 0.582,-0.235 0.184,0 0.535,0.153 1.02,0.485 1.797,1.101 3.883,2.867 6.25,5.269 3.133,3.196 5.433,5.797 6.933,7.813 l -2.738,30.953 c -0.445,5.113 -1.129,8.23 -2.047,9.332 -0.918,1.098 -2.433,1.664 -4.586,1.664 -0.683,0 -1.914,-0.098 -3.664,-0.301 l -0.433,1.801 14.3,3.52" /><path
         id="path192"
         style="fill:#231f20;fill-opacity:1;fill-rule:nonzero;stroke:none"
         d="m 1391.96,893.328 c 1.11,-1.883 1.87,-3.652 2.31,-5.285 0.41,-1.648 0.83,-4.883 1.26,-9.699 l 2.15,-24.016 c 1.95,2.336 4.78,6.051 8.5,11.133 1.78,2.465 4,5.836 6.64,10.101 1.6,2.598 2.56,4.434 2.93,5.465 0.18,0.52 0.28,1.067 0.28,1.618 0,0.351 -0.1,0.648 -0.33,0.882 -0.24,0.219 -0.82,0.485 -1.79,0.801 -0.96,0.301 -1.76,0.887 -2.39,1.703 -0.64,0.832 -0.96,1.781 -0.96,2.864 0,1.332 0.41,2.402 1.19,3.218 0.77,0.817 1.75,1.215 2.92,1.215 1.43,0 2.65,-0.582 3.66,-1.781 1.02,-1.188 1.52,-2.82 1.52,-4.902 0,-2.567 -0.89,-5.516 -2.64,-8.817 -1.76,-3.297 -5.14,-8.367 -10.16,-15.199 -5,-6.852 -11.09,-14.301 -18.2,-22.367 -4.92,-5.567 -8.57,-9.082 -10.95,-10.532 -2.37,-1.433 -4.4,-2.168 -6.1,-2.168 -1.01,0 -1.9,0.383 -2.67,1.153 -0.76,0.765 -1.13,1.648 -1.13,2.664 0,1.266 0.52,2.418 1.58,3.465 1.05,1.035 2.2,1.551 3.44,1.551 0.65,0 1.19,-0.133 1.61,-0.434 0.27,-0.168 0.55,-0.633 0.85,-1.399 0.32,-0.75 0.6,-1.269 0.87,-1.535 0.15,-0.164 0.35,-0.23 0.58,-0.23 0.19,0 0.53,0.148 1.02,0.484 1.8,1.098 3.88,2.864 6.25,5.266 3.13,3.199 5.43,5.801 6.93,7.816 l -2.73,30.949 c -0.45,5.118 -1.13,8.231 -2.05,9.333 -0.92,1.101 -2.43,1.667 -4.58,1.667 -0.69,0 -1.92,-0.101 -3.67,-0.3 l -0.43,1.8 14.29,3.516" /><path
         id="path194"
         style="fill:#231f20;fill-opacity:1;fill-rule:nonzero;stroke:none"
         d="m 2394.76,893.328 c 1.1,-1.883 1.86,-3.652 2.29,-5.285 0.42,-1.648 0.84,-4.883 1.27,-9.699 l 2.15,-24.016 c 1.95,2.336 4.78,6.051 8.5,11.133 1.78,2.465 4,5.836 6.64,10.101 1.6,2.598 2.56,4.434 2.93,5.465 0.18,0.52 0.28,1.067 0.28,1.618 0,0.351 -0.1,0.648 -0.33,0.882 -0.24,0.219 -0.82,0.485 -1.79,0.801 -0.96,0.301 -1.76,0.887 -2.39,1.703 -0.64,0.832 -0.95,1.781 -0.95,2.864 0,1.332 0.4,2.402 1.18,3.218 0.76,0.817 1.75,1.215 2.92,1.215 1.43,0 2.65,-0.582 3.66,-1.781 1.02,-1.188 1.52,-2.82 1.52,-4.902 0,-2.567 -0.88,-5.516 -2.64,-8.817 -1.76,-3.297 -5.14,-8.367 -10.16,-15.199 -5,-6.852 -11.08,-14.301 -18.2,-22.367 -4.92,-5.567 -8.57,-9.082 -10.95,-10.532 -2.37,-1.433 -4.4,-2.168 -6.1,-2.168 -1.02,0 -1.9,0.383 -2.67,1.153 -0.76,0.765 -1.13,1.648 -1.13,2.664 0,1.266 0.51,2.418 1.58,3.465 1.05,1.035 2.2,1.551 3.44,1.551 0.65,0 1.2,-0.133 1.61,-0.434 0.27,-0.168 0.55,-0.633 0.85,-1.399 0.32,-0.75 0.6,-1.269 0.87,-1.535 0.15,-0.164 0.35,-0.23 0.58,-0.23 0.19,0 0.53,0.148 1.02,0.484 1.8,1.098 3.88,2.864 6.25,5.266 3.13,3.199 5.43,5.801 6.93,7.816 l -2.73,30.949 c -0.45,5.118 -1.13,8.231 -2.05,9.333 -0.92,1.101 -2.43,1.667 -4.59,1.667 -0.68,0 -1.91,-0.101 -3.66,-0.3 l -0.43,1.8 14.3,3.516" /><path
         id="path196"
         style="fill:#231f20;fill-opacity:1;fill-rule:nonzero;stroke:none"
         d="m 2856.09,420.863 c 1.6,-1.683 2.8,-3.383 3.62,-5.066 0.58,-1.184 1.55,-4.25 2.88,-9.235 l 4.3,6.454 c 1.13,1.546 2.52,3.05 4.15,4.464 1.62,1.418 3.05,2.383 4.28,2.899 0.79,0.336 1.65,0.484 2.6,0.484 1.4,0 2.5,-0.363 3.33,-1.117 0.84,-0.75 1.25,-1.664 1.25,-2.73 0,-1.235 -0.25,-2.086 -0.73,-2.536 -0.91,-0.816 -1.95,-1.234 -3.11,-1.234 -0.69,0 -1.42,0.152 -2.2,0.453 -1.54,0.516 -2.57,0.781 -3.09,0.781 -0.78,0 -1.7,-0.468 -2.78,-1.367 -2.02,-1.699 -4.42,-4.965 -7.22,-9.816 l 4,-16.801 c 0.62,-2.562 1.13,-4.113 1.57,-4.617 0.42,-0.5 0.83,-0.746 1.27,-0.746 0.68,0 1.48,0.363 2.38,1.117 1.8,1.496 3.32,3.449 4.6,5.863 l 1.7,-0.883 c -2.05,-3.847 -4.65,-7.031 -7.82,-9.566 -1.78,-1.434 -3.3,-2.152 -4.53,-2.152 -1.82,0 -3.27,1.019 -4.35,3.07 -0.68,1.266 -2.1,6.75 -4.25,16.418 -5.07,-8.836 -9.14,-14.504 -12.2,-17.051 -1.98,-1.617 -3.9,-2.437 -5.77,-2.437 -1.3,0 -2.48,0.468 -3.56,1.418 -0.77,0.718 -1.17,1.668 -1.17,2.882 0,1.071 0.37,1.969 1.08,2.684 0.7,0.719 1.59,1.066 2.64,1.066 1.03,0 2.15,-0.515 3.31,-1.562 0.85,-0.754 1.5,-1.117 1.95,-1.117 0.4,0 0.9,0.265 1.52,0.781 1.53,1.234 3.62,3.902 6.25,8 2.63,4.102 4.37,7.066 5.18,8.898 -2.03,7.903 -3.11,12.086 -3.28,12.536 -0.75,2.117 -1.72,3.613 -2.93,4.5 -1.2,0.882 -2.97,1.316 -5.32,1.316 -0.75,0 -1.62,-0.031 -2.59,-0.102 v 1.766 l 13.04,2.285" /><path
         id="path198"
         style="fill:#231f20;fill-opacity:1;fill-rule:nonzero;stroke:none"
         d="m 1866.38,405.684 c 1.6,-1.684 2.8,-3.383 3.62,-5.067 0.59,-1.183 1.55,-4.25 2.88,-9.234 l 4.3,6.453 c 1.14,1.547 2.52,3.051 4.15,4.465 1.62,1.418 3.05,2.383 4.29,2.898 0.78,0.336 1.65,0.485 2.59,0.485 1.41,0 2.5,-0.364 3.34,-1.118 0.83,-0.75 1.25,-1.664 1.25,-2.73 0,-1.234 -0.25,-2.086 -0.73,-2.535 -0.92,-0.817 -1.95,-1.235 -3.12,-1.235 -0.68,0 -1.42,0.153 -2.2,0.454 -1.53,0.515 -2.57,0.781 -3.08,0.781 -0.79,0 -1.71,-0.469 -2.79,-1.367 -2.01,-1.7 -4.41,-4.965 -7.21,-9.817 l 3.99,-16.801 c 0.63,-2.562 1.14,-4.113 1.57,-4.617 0.42,-0.5 0.84,-0.746 1.27,-0.746 0.68,0 1.48,0.363 2.38,1.113 1.8,1.5 3.32,3.454 4.6,5.868 l 1.7,-0.883 c -2.05,-3.848 -4.64,-7.031 -7.81,-9.567 -1.78,-1.433 -3.3,-2.152 -4.54,-2.152 -1.81,0 -3.26,1.02 -4.35,3.066 -0.68,1.27 -2.1,6.754 -4.25,16.422 -5.06,-8.836 -9.13,-14.504 -12.19,-17.05 -1.99,-1.618 -3.91,-2.438 -5.77,-2.438 -1.3,0 -2.48,0.469 -3.57,1.418 -0.77,0.719 -1.17,1.668 -1.17,2.883 0,1.07 0.37,1.969 1.09,2.683 0.7,0.719 1.58,1.067 2.63,1.067 1.04,0 2.15,-0.516 3.32,-1.563 0.84,-0.754 1.5,-1.117 1.95,-1.117 0.4,0 0.9,0.266 1.52,0.781 1.53,1.235 3.61,3.903 6.24,8 2.63,4.102 4.37,7.067 5.19,8.899 -2.04,7.902 -3.12,12.086 -3.29,12.535 -0.75,2.117 -1.72,3.613 -2.93,4.5 -1.2,0.883 -2.97,1.316 -5.32,1.316 -0.75,0 -1.61,-0.031 -2.58,-0.101 v 1.765 l 13.03,2.286" /><path
         id="path200"
         style="fill:#231f20;fill-opacity:1;fill-rule:nonzero;stroke:none"
         d="m 840.25,426.938 c 1.598,-1.688 2.797,-3.387 3.613,-5.067 0.586,-1.187 1.551,-4.254 2.883,-9.234 l 4.301,6.449 c 1.137,1.547 2.519,3.051 4.152,4.465 1.613,1.418 3.047,2.383 4.281,2.898 0.782,0.336 1.649,0.489 2.602,0.489 1.398,0 2.5,-0.368 3.332,-1.118 0.832,-0.754 1.25,-1.668 1.25,-2.734 0,-1.234 -0.25,-2.082 -0.734,-2.535 -0.914,-0.817 -1.95,-1.231 -3.118,-1.231 -0.679,0 -1.414,0.149 -2.199,0.45 -1.531,0.515 -2.566,0.781 -3.082,0.781 -0.781,0 -1.703,-0.465 -2.785,-1.363 -2.016,-1.704 -4.414,-4.969 -7.215,-9.817 l 4,-16.801 c 0.617,-2.566 1.133,-4.117 1.567,-4.617 0.418,-0.5 0.832,-0.75 1.265,-0.75 0.684,0 1.485,0.367 2.387,1.117 1.797,1.5 3.316,3.45 4.598,5.864 l 1.699,-0.879 c -2.051,-3.852 -4.649,-7.035 -7.817,-9.571 -1.781,-1.433 -3.3,-2.148 -4.535,-2.148 -1.812,0 -3.265,1.016 -4.347,3.066 -0.684,1.266 -2.102,6.75 -4.25,16.418 -5.067,-8.832 -9.133,-14.504 -12.2,-17.05 -1.984,-1.618 -3.898,-2.434 -5.769,-2.434 -1.297,0 -2.481,0.465 -3.563,1.418 -0.765,0.715 -1.168,1.664 -1.168,2.883 0,1.066 0.368,1.965 1.086,2.683 0.7,0.715 1.578,1.067 2.633,1.067 1.031,0 2.149,-0.516 3.317,-1.567 0.847,-0.75 1.5,-1.117 1.949,-1.117 0.398,0 0.898,0.266 1.515,0.781 1.536,1.235 3.614,3.903 6.25,8 2.633,4.102 4.368,7.067 5.184,8.903 -2.035,7.898 -3.117,12.082 -3.285,12.535 -0.75,2.113 -1.715,3.613 -2.934,4.496 -1.199,0.887 -2.965,1.32 -5.316,1.32 -0.75,0 -1.617,-0.035 -2.582,-0.101 v 1.765 l 13.035,2.286" /><path
         id="path202"
         style="fill:#231f20;fill-opacity:1;fill-rule:nonzero;stroke:none"
         d="m 518.492,431.227 16.117,7.867 h 1.614 v -55.918 c 0,-3.699 0.152,-6.016 0.453,-6.934 0.316,-0.898 0.965,-1.601 1.933,-2.097 0.981,-0.485 2.965,-0.766 5.965,-0.836 v -1.797 H 519.66 v 1.797 c 3.129,0.07 5.149,0.336 6.063,0.816 0.902,0.469 1.535,1.102 1.902,1.902 0.352,0.801 0.535,3.184 0.535,7.149 v 35.75 c 0,4.816 -0.168,7.902 -0.484,9.269 -0.235,1.047 -0.649,1.817 -1.25,2.297 -0.602,0.485 -1.317,0.735 -2.168,0.735 -1.199,0 -2.883,-0.5 -5.031,-1.516 l -0.735,1.516" /><path
         id="path204"
         style="fill:#231f20;fill-opacity:1;fill-rule:nonzero;stroke:none"
         d="m 407.914,552.543 16.117,7.867 h 1.617 v -55.914 c 0,-3.703 0.149,-6.019 0.45,-6.934 0.316,-0.902 0.964,-1.601 1.933,-2.101 0.985,-0.484 2.969,-0.766 5.965,-0.832 v -1.801 h -24.914 v 1.801 c 3.133,0.066 5.148,0.332 6.066,0.816 0.903,0.465 1.532,1.098 1.899,1.899 0.351,0.801 0.535,3.183 0.535,7.152 v 35.75 c 0,4.816 -0.168,7.899 -0.484,9.266 -0.231,1.047 -0.649,1.816 -1.25,2.297 -0.602,0.484 -1.317,0.734 -2.164,0.734 -1.204,0 -2.883,-0.5 -5.036,-1.516 l -0.734,1.516" /><path
         id="path206"
         style="fill:#231f20;fill-opacity:1;fill-rule:nonzero;stroke:none"
         d="m 380.062,405.734 c 0,7.547 1.133,14.047 3.415,19.496 2.285,5.454 5.3,9.516 9.085,12.184 2.93,2.117 5.95,3.184 9.083,3.184 5.062,0 9.632,-2.598 13.664,-7.766 5.05,-6.418 7.57,-15.102 7.57,-26.086 0,-7.68 -1.102,-14.195 -3.317,-19.562 -2.218,-5.383 -5.035,-9.286 -8.468,-11.704 -3.434,-2.429 -6.75,-3.632 -9.949,-3.632 -6.301,0 -11.567,3.718 -15.766,11.187 -3.551,6.281 -5.317,13.848 -5.317,22.699 z m 9.567,-1.218 c 0,-9.118 1.117,-16.567 3.367,-22.317 1.848,-4.847 4.629,-7.285 8.297,-7.285 1.769,0 3.586,0.805 5.469,2.367 1.898,1.586 3.332,4.235 4.297,7.934 1.5,5.597 2.253,13.5 2.253,23.683 0,7.551 -0.785,13.852 -2.351,18.899 -1.168,3.75 -2.684,6.402 -4.531,7.969 -1.336,1.066 -2.953,1.597 -4.836,1.597 -2.219,0 -4.184,-0.984 -5.918,-2.965 -2.332,-2.699 -3.93,-6.949 -4.781,-12.75 -0.852,-5.8 -1.266,-11.5 -1.266,-17.132" /><path
         id="path208"
         style="fill:#231f20;fill-opacity:1;fill-rule:nonzero;stroke:none"
         d="m 1520.34,422.121 16.12,7.863 h 1.61 V 374.07 c 0,-3.703 0.15,-6.019 0.45,-6.933 0.32,-0.903 0.97,-1.602 1.94,-2.102 0.98,-0.484 2.97,-0.765 5.96,-0.832 v -1.801 h -24.91 v 1.801 c 3.13,0.067 5.15,0.336 6.06,0.817 0.9,0.468 1.54,1.097 1.9,1.898 0.35,0.801 0.54,3.184 0.54,7.152 v 35.75 c 0,4.817 -0.17,7.899 -0.49,9.266 -0.23,1.051 -0.64,1.816 -1.25,2.301 -0.6,0.484 -1.31,0.734 -2.16,0.734 -1.2,0 -2.88,-0.504 -5.04,-1.519 l -0.73,1.519" /><path
         id="path210"
         style="fill:#231f20;fill-opacity:1;fill-rule:nonzero;stroke:none"
         d="m 1409.76,543.438 16.12,7.863 h 1.62 v -55.914 c 0,-3.703 0.14,-6.016 0.45,-6.934 0.32,-0.902 0.96,-1.601 1.93,-2.101 0.98,-0.485 2.97,-0.766 5.97,-0.832 v -1.801 h -24.92 v 1.801 c 3.13,0.066 5.15,0.335 6.07,0.816 0.9,0.469 1.53,1.102 1.89,1.898 0.36,0.805 0.54,3.184 0.54,7.153 v 35.75 c 0,4.816 -0.16,7.898 -0.48,9.265 -0.24,1.051 -0.65,1.817 -1.25,2.301 -0.61,0.485 -1.32,0.735 -2.17,0.735 -1.2,0 -2.88,-0.504 -5.03,-1.52 l -0.74,1.52" /><path
         id="path212"
         style="fill:#231f20;fill-opacity:1;fill-rule:nonzero;stroke:none"
         d="m 1412.27,405.734 c 0,7.547 1.13,14.047 3.41,19.496 2.29,5.454 5.3,9.516 9.09,12.184 2.93,2.117 5.95,3.184 9.08,3.184 5.07,0 9.63,-2.598 13.67,-7.766 5.05,-6.418 7.57,-15.102 7.57,-26.086 0,-7.68 -1.11,-14.195 -3.32,-19.562 -2.22,-5.383 -5.04,-9.286 -8.47,-11.704 -3.43,-2.429 -6.75,-3.632 -9.95,-3.632 -6.3,0 -11.56,3.718 -15.76,11.187 -3.55,6.281 -5.32,13.848 -5.32,22.699 z m 9.57,-1.218 c 0,-9.118 1.11,-16.567 3.36,-22.317 1.85,-4.847 4.64,-7.285 8.3,-7.285 1.77,0 3.59,0.805 5.47,2.367 1.9,1.586 3.33,4.235 4.3,7.934 1.5,5.597 2.25,13.5 2.25,23.683 0,7.551 -0.79,13.852 -2.35,18.899 -1.17,3.75 -2.69,6.402 -4.53,7.969 -1.34,1.066 -2.96,1.597 -4.84,1.597 -2.22,0 -4.18,-0.984 -5.92,-2.965 -2.33,-2.699 -3.93,-6.949 -4.78,-12.75 -0.85,-5.8 -1.26,-11.5 -1.26,-17.132" /><path
         id="path214"
         style="fill:#231f20;fill-opacity:1;fill-rule:nonzero;stroke:none"
         d="m 2522.19,413.012 16.11,7.867 h 1.62 v -55.918 c 0,-3.699 0.15,-6.016 0.45,-6.934 0.32,-0.898 0.97,-1.601 1.93,-2.097 0.99,-0.485 2.97,-0.766 5.97,-0.836 v -1.797 h -24.91 v 1.797 c 3.13,0.07 5.15,0.336 6.06,0.816 0.9,0.469 1.54,1.102 1.9,1.899 0.35,0.804 0.54,3.183 0.54,7.152 v 35.75 c 0,4.816 -0.17,7.902 -0.49,9.266 -0.23,1.05 -0.65,1.82 -1.25,2.3 -0.6,0.485 -1.31,0.735 -2.16,0.735 -1.21,0 -2.89,-0.5 -5.04,-1.516 l -0.73,1.516" /><path
         id="path216"
         style="fill:#231f20;fill-opacity:1;fill-rule:nonzero;stroke:none"
         d="m 2429.81,554.043 16.12,7.867 h 1.61 v -55.914 c 0,-3.703 0.16,-6.019 0.45,-6.934 0.32,-0.902 0.97,-1.601 1.94,-2.101 0.98,-0.484 2.96,-0.766 5.96,-0.832 v -1.801 h -24.91 v 1.801 c 3.13,0.066 5.15,0.332 6.06,0.816 0.91,0.465 1.54,1.098 1.9,1.899 0.35,0.801 0.54,3.183 0.54,7.152 v 35.75 c 0,4.813 -0.17,7.899 -0.49,9.266 -0.23,1.047 -0.65,1.816 -1.25,2.297 -0.6,0.484 -1.31,0.734 -2.16,0.734 -1.2,0 -2.88,-0.5 -5.04,-1.516 l -0.73,1.516" /><path
         id="path218"
         style="fill:#231f20;fill-opacity:1;fill-rule:nonzero;stroke:none"
         d="m 2414.12,396.625 c 0,7.547 1.13,14.047 3.42,19.5 2.28,5.449 5.29,9.516 9.08,12.184 2.93,2.117 5.95,3.183 9.08,3.183 5.07,0 9.64,-2.601 13.67,-7.769 5.05,-6.418 7.56,-15.098 7.56,-26.082 0,-7.684 -1.09,-14.2 -3.31,-19.567 -2.22,-5.383 -5.04,-9.281 -8.47,-11.699 -3.43,-2.434 -6.75,-3.637 -9.95,-3.637 -6.3,0 -11.57,3.719 -15.77,11.188 -3.55,6.281 -5.31,13.847 -5.31,22.699 z m 9.56,-1.215 c 0,-9.121 1.12,-16.57 3.37,-22.316 1.85,-4.852 4.63,-7.285 8.3,-7.285 1.77,0 3.58,0.8 5.47,2.367 1.89,1.582 3.33,4.234 4.3,7.933 1.5,5.598 2.25,13.496 2.25,23.68 0,7.551 -0.79,13.852 -2.35,18.899 -1.17,3.75 -2.69,6.402 -4.54,7.968 -1.33,1.067 -2.94,1.602 -4.83,1.602 -2.22,0 -4.18,-0.985 -5.92,-2.965 -2.33,-2.703 -3.93,-6.953 -4.78,-12.75 -0.85,-5.801 -1.27,-11.5 -1.27,-17.133" /><path
         id="path220"
         style="fill:#231f20;fill-opacity:1;fill-rule:nonzero;stroke:none"
         d="m 2024.75,1022.25 0.69,1.82 h 23.63 c 3.97,0 7.5,-0.62 10.62,-1.87 3.1,-1.24 5.43,-2.95 6.98,-5.16 1.55,-2.22 2.32,-4.57 2.32,-7.04 0,-3.82 -1.38,-7.25 -4.13,-10.332 -2.76,-3.066 -7.24,-5.348 -13.46,-6.801 4.02,-1.5 6.96,-3.484 8.85,-5.969 1.89,-2.464 2.84,-5.179 2.84,-8.148 0,-3.281 -0.85,-6.43 -2.55,-9.434 -1.69,-2.98 -3.87,-5.312 -6.52,-6.964 -2.65,-1.664 -5.85,-2.883 -9.6,-3.668 -2.67,-0.551 -6.83,-0.832 -12.5,-0.832 h -24.26 l 0.63,1.8 c 2.55,0.067 4.26,0.317 5.18,0.735 1.3,0.566 2.23,1.297 2.78,2.199 0.79,1.23 1.82,4.062 3.12,8.496 l 11.86,40.088 c 1.02,3.38 1.52,5.76 1.52,7.13 0,1.2 -0.45,2.15 -1.33,2.85 -0.9,0.7 -2.6,1.05 -5.12,1.05 -0.55,0 -1.06,0.01 -1.55,0.05 z m 9.91,-27.484 c 2.11,-0.067 3.64,-0.098 4.59,-0.098 6.77,0 11.8,1.469 15.12,4.414 3.3,2.958 4.95,6.628 4.95,11.068 0,3.35 -1.02,5.97 -3.03,7.83 -2.02,1.87 -5.24,2.81 -9.67,2.81 -1.17,0 -2.67,-0.19 -4.48,-0.59 z m -9.62,-32.614 c 3.51,-0.468 6.26,-0.683 8.25,-0.683 5.08,0 9.58,1.531 13.5,4.582 3.93,3.066 5.88,7.219 5.88,12.449 0,4 -1.2,7.133 -3.63,9.383 -2.42,2.25 -6.34,3.367 -11.74,3.367 -1.05,0 -2.32,-0.051 -3.81,-0.148 l -8.45,-28.95" /><path
         id="path222"
         style="fill:#231f20;fill-opacity:1;fill-rule:nonzero;stroke:none"
         d="m 2085.59,1026.35 1.66,0.94 c 3.87,-7.36 6.64,-13.87 8.3,-19.54 1.34,-4.41 2,-8.883 2,-13.383 0,-10.5 -2.43,-19.898 -7.28,-28.164 -5.98,-10.187 -15.63,-20.101 -28.95,-29.734 l -1.16,1.515 c 6.01,4.485 10.93,9.485 14.73,14.985 4.76,6.898 8.65,15.25 11.68,25.035 3.02,9.766 4.53,18.664 4.53,26.676 0,6.12 -1.83,13.34 -5.51,21.67" /><path
         id="path224"
         style="fill:#231f20;fill-opacity:1;fill-rule:nonzero;stroke:none"
         d="m 1036.56,1024.07 h 46.54 l -5.03,-17.28 h -1.82 c 0.36,2.11 0.55,4.03 0.55,5.75 0,2.25 -0.45,3.99 -1.34,5.23 -0.86,1.23 -2.06,2.03 -3.58,2.38 -1.52,0.37 -4.48,0.55 -8.92,0.55 h -10.19 l -7.62,-26.134 h 6.65 c 5.65,0 9.9,-0.582 12.73,-1.746 2.83,-1.187 5.17,-3.172 6.99,-5.968 1.83,-2.801 2.73,-5.801 2.73,-9.036 0,-3.863 -1.32,-7.566 -3.98,-11.082 -2.66,-3.515 -5.91,-5.867 -9.74,-7.082 -3.83,-1.199 -8.36,-1.8 -13.57,-1.8 h -29.55 l 0.49,1.8 c 3.55,0.067 5.98,0.664 7.3,1.782 1.32,1.132 2.66,3.984 4.03,8.582 l 11.62,39.504 c 1.28,4.35 1.92,7.3 1.92,8.83 0,1.36 -0.5,2.35 -1.5,2.94 -0.99,0.58 -2.74,0.89 -5.25,0.96 z m -0.83,-61.918 c 2.54,-0.468 5.32,-0.683 8.35,-0.683 6.9,0 11.95,1.699 15.15,5.097 3.22,3.403 4.82,7.2 4.82,11.403 0,2.832 -0.77,5.332 -2.32,7.5 -1.55,2.164 -3.5,3.648 -5.83,4.465 -2.35,0.816 -5.5,1.218 -9.49,1.218 h -2.2 l -8.48,-29" /><path
         id="path226"
         style="fill:#231f20;fill-opacity:1;fill-rule:nonzero;stroke:none"
         d="m 1093.78,1026.35 1.67,0.94 c 3.86,-7.36 6.63,-13.87 8.3,-19.54 1.33,-4.41 2,-8.883 2,-13.383 0,-10.5 -2.44,-19.898 -7.29,-28.164 -5.98,-10.187 -15.63,-20.101 -28.94,-29.734 l -1.17,1.515 c 6.01,4.485 10.93,9.485 14.73,14.985 4.77,6.898 8.65,15.25 11.69,25.035 3.01,9.766 4.53,18.664 4.53,26.676 0,6.12 -1.84,13.34 -5.52,21.67" /><path
         id="path228"
         style="fill:#231f20;fill-opacity:1;fill-rule:nonzero;stroke:none"
         d="m 57.7734,1025.57 -5.0351,-55.066 c -0.2656,-2.586 -0.3828,-4.27 -0.3828,-5.086 0,-1.301 0.2304,-2.301 0.7343,-2.984 0.6133,-0.93 1.4493,-1.633 2.5,-2.098 1.0664,-0.453 2.8477,-0.684 5.3477,-0.684 l -0.5313,-1.8 H 34.3398 l 0.5313,1.8 h 1.1172 c 2.1172,0 3.8515,0.465 5.1836,1.364 0.9336,0.636 1.6679,1.652 2.1992,3.086 0.3516,1.019 0.7031,3.382 1.0195,7.132 l 0.7813,8.403 H 26.2227 l -6.7344,-9.133 c -1.5313,-2.055 -2.4844,-3.535 -2.8828,-4.418 -0.3828,-0.902 -0.586,-1.734 -0.586,-2.516 0,-1.054 0.418,-1.933 1.2696,-2.687 0.8515,-0.746 2.25,-1.164 4.1992,-1.231 l -0.5313,-1.8 H 1.37109 l 0.53516,1.8 c 2.41797,0.098 4.53516,0.914 6.38281,2.418 1.83204,1.516 4.56644,4.746 8.21874,9.7 l 39.5469,53.8 z m -9.6679,-16.25 -19.1993,-26.121 h 16.6485 l 2.5508,26.121" /><path
         id="path230"
         style="fill:#231f20;fill-opacity:1;fill-rule:nonzero;stroke:none"
         d="m 81.8906,1026.35 1.6641,0.94 c 3.8672,-7.36 6.6328,-13.87 8.3008,-19.54 1.332,-4.41 2,-8.883 2,-13.383 0,-10.5 -2.4336,-19.898 -7.2852,-28.164 -5.9844,-10.187 -15.6328,-20.101 -28.9492,-29.734 l -1.1641,1.515 c 6.0157,4.485 10.9336,9.485 14.7305,14.985 4.7695,6.898 8.6523,15.25 11.6836,25.035 3.0156,9.766 4.5351,18.664 4.5351,26.676 0,6.12 -1.8359,13.34 -5.5156,21.67" /></g></g></svg>