<?xml version="1.0" encoding="UTF-8" standalone="no"?>
<svg
   xmlns:dc="http://purl.org/dc/elements/1.1/"
   xmlns:cc="http://creativecommons.org/ns#"
   xmlns:rdf="http://www.w3.org/1999/02/22-rdf-syntax-ns#"
   xmlns:svg="http://www.w3.org/2000/svg"
   xmlns="http://www.w3.org/2000/svg"
   viewBox="0 0 173.33333 144"
   height="144"
   width="173.33333"
   xml:space="preserve"
   id="svg2"
   version="1.1"><metadata
     id="metadata8"><rdf:RDF><cc:Work
         rdf:about=""><dc:format>image/svg+xml</dc:format><dc:type
           rdf:resource="http://purl.org/dc/dcmitype/StillImage" /></cc:Work></rdf:RDF></metadata><defs
     id="defs6" /><g
     transform="matrix(1.3333333,0,0,-1.3333333,0,144)"
     id="g10"><g
       transform="scale(0.1)"
       id="g12"><path
         id="path14"
         style="fill:#231f20;fill-opacity:1;fill-rule:nonzero;stroke:none"
         d="m 515.203,500.359 c 0,7.547 1.137,14.047 3.418,19.496 2.285,5.454 5.301,9.516 9.082,12.184 2.934,2.117 5.953,3.184 9.082,3.184 5.067,0 9.637,-2.598 13.668,-7.766 5.051,-6.418 7.567,-15.102 7.567,-26.086 0,-7.68 -1.098,-14.195 -3.317,-19.562 -2.215,-5.383 -5.031,-9.286 -8.465,-11.704 -3.433,-2.429 -6.75,-3.632 -9.949,-3.632 -6.301,0 -11.57,3.718 -15.766,11.187 -3.554,6.281 -5.32,13.848 -5.32,22.699 z m 9.567,-1.218 c 0,-9.118 1.117,-16.567 3.367,-22.317 1.851,-4.847 4.633,-7.285 8.301,-7.285 1.765,0 3.582,0.805 5.464,2.367 1.899,1.586 3.336,4.235 4.301,7.934 1.5,5.601 2.25,13.5 2.25,23.683 0,7.551 -0.785,13.852 -2.348,18.899 -1.167,3.75 -2.687,6.402 -4.535,7.969 -1.332,1.066 -2.949,1.597 -4.836,1.597 -2.214,0 -4.179,-0.984 -5.914,-2.965 -2.332,-2.699 -3.933,-6.949 -4.781,-12.75 -0.851,-5.796 -1.269,-11.5 -1.269,-17.132" /><path
         id="path16"
         style="fill:none;stroke:#231f20;stroke-width:7.5005002;stroke-linecap:butt;stroke-linejoin:miter;stroke-miterlimit:2.61310005;stroke-dasharray:none;stroke-opacity:1"
         d="M 9.40625,550.746 H 1249.84" /><path
         id="path18"
         style="fill:#231f20;fill-opacity:1;fill-rule:evenodd;stroke:none"
         d="m 1245.69,577.094 47.9,-26.348 -47.9,-26.348 v 52.696" /><path
         id="path20"
         style="fill:none;stroke:#231f20;stroke-width:7.5005002;stroke-linecap:butt;stroke-linejoin:miter;stroke-miterlimit:2.61310005;stroke-dasharray:none;stroke-opacity:1"
         d="M 575.949,3.66797 V 1035.34" /><path
         id="path22"
         style="fill:#231f20;fill-opacity:1;fill-rule:evenodd;stroke:none"
         d="m 549.602,1031.18 26.347,47.9 26.348,-47.9 h -52.695" /><path
         id="path24"
         style="fill:#231f20;fill-opacity:1;fill-rule:nonzero;stroke:none"
         d="m 502.973,753.945 16.117,7.864 h 1.617 v -55.914 c 0,-3.704 0.148,-6.016 0.449,-6.934 0.317,-0.902 0.969,-1.602 1.934,-2.102 0.984,-0.484 2.969,-0.761 5.969,-0.832 v -1.8 h -24.918 v 1.8 c 3.132,0.071 5.152,0.336 6.066,0.817 0.902,0.468 1.531,1.101 1.898,1.898 0.352,0.805 0.536,3.184 0.536,7.153 v 35.75 c 0,4.816 -0.168,7.902 -0.485,9.265 -0.23,1.051 -0.648,1.817 -1.25,2.301 -0.601,0.484 -1.316,0.734 -2.164,0.734 -1.203,0 -2.883,-0.504 -5.035,-1.515 l -0.734,1.515" /><path
         id="path26"
         style="fill:none;stroke:#231f20;stroke-width:7.5005002;stroke-linecap:butt;stroke-linejoin:miter;stroke-miterlimit:2.61310005;stroke-dasharray:none;stroke-opacity:1"
         d="M 487.805,13.4219 1002.11,1026.73" /><path
         id="path28"
         style="fill:#231f20;fill-opacity:1;fill-rule:nonzero;stroke:none"
         d="m 514.324,1078.58 c 1.102,-1.88 1.867,-3.65 2.301,-5.29 0.418,-1.65 0.832,-4.88 1.266,-9.7 l 2.148,-24.01 c 1.953,2.33 4.785,6.05 8.5,11.13 1.785,2.47 4,5.83 6.637,10.1 1.601,2.6 2.566,4.43 2.933,5.47 0.184,0.51 0.282,1.06 0.282,1.61 0,0.36 -0.098,0.65 -0.332,0.89 -0.235,0.21 -0.817,0.48 -1.786,0.8 -0.964,0.3 -1.765,0.88 -2.398,1.7 -0.633,0.83 -0.953,1.78 -0.953,2.86 0,1.34 0.402,2.4 1.187,3.22 0.766,0.82 1.746,1.22 2.914,1.22 1.434,0 2.653,-0.59 3.668,-1.79 1.016,-1.18 1.516,-2.81 1.516,-4.9 0,-2.56 -0.883,-5.51 -2.633,-8.81 -1.765,-3.3 -5.148,-8.37 -10.164,-15.2 -5.004,-6.85 -11.086,-14.3 -18.203,-22.37 -4.914,-5.57 -8.566,-9.08 -10.949,-10.53 -2.367,-1.43 -4.399,-2.17 -6.102,-2.17 -1.015,0 -1.898,0.39 -2.664,1.15 -0.769,0.77 -1.133,1.65 -1.133,2.66 0,1.27 0.516,2.42 1.582,3.47 1.051,1.04 2.2,1.55 3.434,1.55 0.648,0 1.199,-0.13 1.617,-0.43 0.266,-0.17 0.551,-0.63 0.852,-1.4 0.312,-0.75 0.597,-1.27 0.863,-1.53 0.148,-0.17 0.352,-0.24 0.582,-0.24 0.188,0 0.535,0.16 1.02,0.49 1.8,1.1 3.882,2.86 6.25,5.27 3.132,3.19 5.433,5.79 6.933,7.81 l -2.734,30.95 c -0.449,5.12 -1.133,8.23 -2.051,9.33 -0.914,1.1 -2.434,1.67 -4.582,1.67 -0.684,0 -1.918,-0.1 -3.668,-0.3 l -0.434,1.8 14.301,3.52" /><path
         id="path30"
         style="fill:#231f20;fill-opacity:1;fill-rule:nonzero;stroke:none"
         d="m 745.891,497.367 16.117,7.867 h 1.617 v -55.918 c 0,-3.699 0.148,-6.015 0.449,-6.933 0.317,-0.899 0.969,-1.602 1.934,-2.098 0.984,-0.488 2.969,-0.765 5.965,-0.836 v -1.801 h -24.914 v 1.801 c 3.132,0.071 5.148,0.336 6.066,0.817 0.902,0.468 1.531,1.101 1.898,1.898 0.352,0.805 0.536,3.184 0.536,7.152 v 35.75 c 0,4.817 -0.168,7.903 -0.485,9.266 -0.23,1.051 -0.648,1.82 -1.25,2.301 -0.601,0.484 -1.316,0.734 -2.164,0.734 -1.203,0 -2.883,-0.504 -5.035,-1.515 l -0.734,1.515" /><path
         id="path32"
         style="fill:#231f20;fill-opacity:1;fill-rule:nonzero;stroke:none"
         d="m 1248.67,478.027 c 1.6,-1.683 2.8,-3.386 3.62,-5.066 0.58,-1.184 1.55,-4.254 2.88,-9.234 l 4.3,6.449 c 1.13,1.551 2.51,3.051 4.15,4.465 1.61,1.418 3.05,2.386 4.28,2.902 0.78,0.332 1.65,0.484 2.6,0.484 1.4,0 2.5,-0.367 3.34,-1.117 0.83,-0.75 1.25,-1.668 1.25,-2.734 0,-1.231 -0.25,-2.082 -0.74,-2.531 -0.92,-0.817 -1.95,-1.235 -3.12,-1.235 -0.68,0 -1.41,0.149 -2.19,0.449 -1.54,0.516 -2.57,0.786 -3.09,0.786 -0.78,0 -1.7,-0.469 -2.78,-1.368 -2.02,-1.703 -4.42,-4.968 -7.22,-9.816 l 4,-16.801 c 0.62,-2.566 1.14,-4.117 1.57,-4.617 0.41,-0.5 0.83,-0.75 1.27,-0.75 0.68,0 1.48,0.367 2.38,1.117 1.8,1.5 3.31,3.449 4.6,5.863 l 1.7,-0.878 c -2.05,-3.852 -4.65,-7.036 -7.82,-9.567 -1.78,-1.433 -3.3,-2.152 -4.53,-2.152 -1.82,0 -3.27,1.015 -4.35,3.066 -0.68,1.266 -2.1,6.754 -4.25,16.418 -5.07,-8.832 -9.14,-14.5 -12.2,-17.051 -1.98,-1.613 -3.9,-2.433 -5.77,-2.433 -1.3,0 -2.48,0.469 -3.57,1.418 -0.76,0.715 -1.16,1.664 -1.16,2.883 0,1.066 0.37,1.964 1.08,2.683 0.7,0.719 1.58,1.067 2.64,1.067 1.03,0 2.14,-0.516 3.31,-1.567 0.85,-0.75 1.5,-1.117 1.95,-1.117 0.4,0 0.9,0.269 1.52,0.785 1.53,1.231 3.61,3.899 6.25,7.996 2.63,4.102 4.36,7.067 5.18,8.903 -2.03,7.898 -3.11,12.082 -3.28,12.535 -0.75,2.113 -1.72,3.613 -2.93,4.496 -1.2,0.887 -2.97,1.32 -5.32,1.32 -0.75,0 -1.62,-0.035 -2.58,-0.101 v 1.765 l 13.03,2.285" /><path
         id="path34"
         style="fill:#231f20;fill-opacity:1;fill-rule:nonzero;stroke:none"
         d="m 551.027,165.293 -4.632,-12.75 h -39.067 v 1.797 c 11.484,10.484 19.582,19.051 24.266,25.687 4.683,6.649 7.031,12.715 7.031,18.215 0,4.199 -1.281,7.649 -3.863,10.348 -2.567,2.703 -5.633,4.051 -9.219,4.051 -3.262,0 -6.18,-0.95 -8.766,-2.848 -2.582,-1.902 -4.5,-4.699 -5.73,-8.367 h -1.817 c 0.817,6.015 2.899,10.633 6.282,13.867 3.367,3.215 7.566,4.832 12.617,4.832 5.367,0 9.848,-1.734 13.449,-5.184 3.598,-3.453 5.399,-7.515 5.399,-12.199 0,-3.351 -0.782,-6.719 -2.348,-10.07 -2.402,-5.266 -6.317,-10.848 -11.719,-16.746 -8.098,-8.852 -13.164,-14.184 -15.183,-16.016 h 17.285 c 3.515,0 5.98,0.133 7.398,0.399 1.418,0.25 2.703,0.781 3.832,1.582 1.133,0.8 2.137,1.933 2.985,3.402 h 1.8" /><path
         id="path36"
         style="fill:none;stroke:#231f20;stroke-width:5.00029993;stroke-linecap:butt;stroke-linejoin:miter;stroke-miterlimit:2.61310005;stroke-dasharray:none;stroke-opacity:1"
         d="m 443.73,180.902 h 57.629" /><path
         id="path38"
         style="fill:none;stroke:#231f20;stroke-width:7.5005002;stroke-linecap:butt;stroke-linejoin:miter;stroke-miterlimit:2.61310005;stroke-dasharray:none;stroke-opacity:1"
         d="M 35.6914,575.246 V 522.164" /><path
         id="path40"
         style="fill:none;stroke:#231f20;stroke-width:7.5005002;stroke-linecap:butt;stroke-linejoin:miter;stroke-miterlimit:2.61310005;stroke-dasharray:none;stroke-opacity:1"
         d="m 548.281,728.414 h 59.145" /><path
         id="path42"
         style="fill:none;stroke:#231f20;stroke-width:7.5005002;stroke-linecap:butt;stroke-linejoin:miter;stroke-miterlimit:2.61310005;stroke-dasharray:none;stroke-opacity:1"
         d="m 551.316,910.398 h 59.145" /><path
         id="path44"
         style="fill:none;stroke:#231f20;stroke-width:7.5005002;stroke-linecap:butt;stroke-linejoin:miter;stroke-miterlimit:2.61310005;stroke-dasharray:none;stroke-opacity:1"
         d="m 548.281,367.48 h 59.145" /><path
         id="path46"
         style="fill:none;stroke:#231f20;stroke-width:7.5005002;stroke-linecap:butt;stroke-linejoin:miter;stroke-miterlimit:2.61310005;stroke-dasharray:none;stroke-opacity:1"
         d="m 549.797,183.98 h 59.144" /><path
         id="path48"
         style="fill:none;stroke:#231f20;stroke-width:7.5005002;stroke-linecap:butt;stroke-linejoin:miter;stroke-miterlimit:2.61310005;stroke-dasharray:none;stroke-opacity:1"
         d="M 213.129,575.246 V 522.164" /><path
         id="path50"
         style="fill:none;stroke:#231f20;stroke-width:7.5005002;stroke-linecap:butt;stroke-linejoin:miter;stroke-miterlimit:2.61310005;stroke-dasharray:none;stroke-opacity:1"
         d="M 395.113,575.246 V 522.164" /><path
         id="path52"
         style="fill:none;stroke:#231f20;stroke-width:7.5005002;stroke-linecap:butt;stroke-linejoin:miter;stroke-miterlimit:2.61310005;stroke-dasharray:none;stroke-opacity:1"
         d="M 757.562,575.246 V 522.164" /><path
         id="path54"
         style="fill:none;stroke:#231f20;stroke-width:7.5005002;stroke-linecap:butt;stroke-linejoin:miter;stroke-miterlimit:2.61310005;stroke-dasharray:none;stroke-opacity:1"
         d="M 936.516,570.695 V 517.617" /><path
         id="path56"
         style="fill:none;stroke:#231f20;stroke-width:7.5005002;stroke-linecap:butt;stroke-linejoin:miter;stroke-miterlimit:2.61310005;stroke-dasharray:none;stroke-opacity:1"
         d="M 1115.46,573.727 V 520.648" /></g></g></svg>