<?xml version="1.0" encoding="UTF-8" standalone="no"?>
<svg
   xmlns:dc="http://purl.org/dc/elements/1.1/"
   xmlns:cc="http://creativecommons.org/ns#"
   xmlns:rdf="http://www.w3.org/1999/02/22-rdf-syntax-ns#"
   xmlns:svg="http://www.w3.org/2000/svg"
   xmlns="http://www.w3.org/2000/svg"
   viewBox="0 0 404 125.33333"
   height="125.33333"
   width="404"
   xml:space="preserve"
   id="svg2"
   version="1.1"><metadata
     id="metadata8"><rdf:RDF><cc:Work
         rdf:about=""><dc:format>image/svg+xml</dc:format><dc:type
           rdf:resource="http://purl.org/dc/dcmitype/StillImage" /></cc:Work></rdf:RDF></metadata><defs
     id="defs6" /><g
     transform="matrix(1.3333333,0,0,-1.3333333,0,125.33333)"
     id="g10"><g
       transform="scale(0.1)"
       id="g12"><path
         id="path14"
         style="fill:#231f20;fill-opacity:1;fill-rule:nonzero;stroke:none"
         d="m 351.574,365.082 c 0,7.551 1.133,14.051 3.418,19.5 2.285,5.449 5.301,9.516 9.082,12.184 2.934,2.117 5.953,3.183 9.082,3.183 5.067,0 9.637,-2.601 13.668,-7.769 5.051,-6.414 7.567,-15.098 7.567,-26.082 0,-7.684 -1.098,-14.2 -3.317,-19.567 -2.215,-5.383 -5.035,-9.281 -8.465,-11.699 -3.433,-2.434 -6.75,-3.633 -9.949,-3.633 -6.301,0 -11.57,3.719 -15.765,11.184 -3.555,6.281 -5.321,13.851 -5.321,22.699 z m 9.567,-1.215 c 0,-9.121 1.117,-16.57 3.367,-22.316 1.851,-4.852 4.633,-7.285 8.301,-7.285 1.765,0 3.582,0.8 5.464,2.367 1.899,1.582 3.336,4.234 4.301,7.933 1.5,5.598 2.25,13.496 2.25,23.684 0,7.547 -0.785,13.848 -2.347,18.898 -1.168,3.75 -2.688,6.399 -4.536,7.969 -1.336,1.063 -2.949,1.598 -4.836,1.598 -2.214,0 -4.179,-0.985 -5.914,-2.965 -2.332,-2.703 -3.933,-6.953 -4.781,-12.75 -0.851,-5.801 -1.269,-11.5 -1.269,-17.133" /><path
         id="path16"
         style="fill:none;stroke:#231f20;stroke-width:7.5005002;stroke-linecap:butt;stroke-linejoin:miter;stroke-miterlimit:2.61310005;stroke-dasharray:none;stroke-opacity:1"
         d="M 6.46094,412.281 H 601.809" /><path
         id="path18"
         style="fill:#231f20;fill-opacity:1;fill-rule:evenodd;stroke:none"
         d="m 597.656,438.629 47.899,-26.348 -47.899,-26.347 v 52.695" /><path
         id="path20"
         style="fill:none;stroke:#231f20;stroke-width:7.5005002;stroke-linecap:butt;stroke-linejoin:miter;stroke-miterlimit:2.61310005;stroke-dasharray:none;stroke-opacity:1"
         d="M 340.875,3.26562 V 875.57" /><path
         id="path22"
         style="fill:#231f20;fill-opacity:1;fill-rule:evenodd;stroke:none"
         d="m 314.527,871.418 26.348,47.898 26.348,-47.898 h -52.696" /><path
         id="path24"
         style="fill:none;stroke:#231f20;stroke-width:7.5005002;stroke-linecap:butt;stroke-linejoin:miter;stroke-miterlimit:2.61310005;stroke-dasharray:none;stroke-opacity:1"
         d="M 142.422,84.5664 485.848,832.895" /><path
         id="path26"
         style="fill:#231f20;fill-opacity:1;fill-rule:nonzero;stroke:none"
         d="m 289.352,923.035 c 1.101,-1.883 1.863,-3.652 2.3,-5.285 0.414,-1.648 0.832,-4.883 1.266,-9.699 l 2.148,-24.016 c 1.95,2.332 4.786,6.051 8.5,11.133 1.786,2.465 4,5.832 6.633,10.098 1.602,2.601 2.571,4.433 2.934,5.468 0.183,0.516 0.285,1.067 0.285,1.618 0,0.351 -0.102,0.648 -0.336,0.882 -0.23,0.215 -0.816,0.485 -1.781,0.801 -0.969,0.301 -1.766,0.883 -2.399,1.699 -0.636,0.836 -0.953,1.786 -0.953,2.868 0,1.332 0.403,2.398 1.184,3.214 0.765,0.817 1.75,1.219 2.918,1.219 1.433,0 2.652,-0.586 3.664,-1.785 1.019,-1.184 1.519,-2.816 1.519,-4.898 0,-2.567 -0.882,-5.516 -2.636,-8.817 -1.766,-3.301 -5.145,-8.367 -10.164,-15.199 -5,-6.852 -11.082,-14.301 -18.2,-22.367 -4.918,-5.567 -8.566,-9.082 -10.949,-10.535 -2.367,-1.43 -4.402,-2.164 -6.101,-2.164 -1.016,0 -1.899,0.382 -2.664,1.148 -0.77,0.766 -1.133,1.652 -1.133,2.668 0,1.266 0.515,2.418 1.578,3.465 1.055,1.035 2.203,1.551 3.437,1.551 0.649,0 1.2,-0.133 1.618,-0.434 0.265,-0.168 0.546,-0.633 0.847,-1.402 0.317,-0.746 0.598,-1.266 0.867,-1.532 0.149,-0.164 0.352,-0.234 0.582,-0.234 0.184,0 0.536,0.152 1.02,0.484 1.797,1.102 3.883,2.868 6.25,5.27 3.133,3.195 5.434,5.797 6.934,7.812 l -2.739,30.954 c -0.445,5.117 -1.129,8.23 -2.047,9.332 -0.918,1.097 -2.433,1.664 -4.586,1.664 -0.683,0 -1.914,-0.098 -3.664,-0.301 l -0.433,1.801 14.301,3.519" /><path
         id="path28"
         style="fill:#231f20;fill-opacity:1;fill-rule:nonzero;stroke:none"
         d="m 295.672,564.605 16.117,7.864 h 1.613 v -55.914 c 0,-3.703 0.153,-6.02 0.453,-6.934 0.317,-0.902 0.965,-1.601 1.934,-2.101 0.981,-0.485 2.965,-0.766 5.965,-0.832 v -1.801 H 296.84 v 1.801 c 3.129,0.066 5.148,0.335 6.062,0.816 0.903,0.469 1.536,1.101 1.903,1.898 0.351,0.805 0.535,3.184 0.535,7.153 v 35.75 c 0,4.816 -0.168,7.898 -0.485,9.265 -0.234,1.051 -0.652,1.817 -1.25,2.301 -0.601,0.484 -1.316,0.734 -2.167,0.734 -1.2,0 -2.883,-0.503 -5.036,-1.519 l -0.73,1.519" /><path
         id="path30"
         style="fill:#231f20;fill-opacity:1;fill-rule:nonzero;stroke:none"
         d="m 612.219,374.07 c 1.597,-1.683 2.801,-3.382 3.617,-5.066 0.582,-1.184 1.551,-4.25 2.883,-9.234 l 4.297,6.453 c 1.136,1.547 2.519,3.05 4.152,4.465 1.613,1.417 3.051,2.382 4.281,2.898 0.785,0.336 1.653,0.484 2.602,0.484 1.398,0 2.5,-0.363 3.332,-1.117 0.832,-0.75 1.25,-1.664 1.25,-2.73 0,-1.235 -0.25,-2.086 -0.735,-2.535 -0.914,-0.817 -1.949,-1.235 -3.113,-1.235 -0.683,0 -1.418,0.152 -2.199,0.453 -1.535,0.516 -2.57,0.782 -3.086,0.782 -0.781,0 -1.699,-0.469 -2.785,-1.368 -2.012,-1.699 -4.414,-4.965 -7.215,-9.816 l 4,-16.801 c 0.617,-2.562 1.133,-4.113 1.566,-4.617 0.418,-0.496 0.832,-0.746 1.266,-0.746 0.684,0 1.484,0.363 2.387,1.117 1.801,1.496 3.316,3.449 4.601,5.863 l 1.696,-0.882 c -2.047,-3.848 -4.649,-7.032 -7.813,-9.567 -1.785,-1.433 -3.305,-2.152 -4.539,-2.152 -1.812,0 -3.262,1.019 -4.348,3.07 -0.683,1.266 -2.097,6.75 -4.25,16.418 -5.066,-8.836 -9.132,-14.504 -12.199,-17.051 -1.984,-1.617 -3.898,-2.437 -5.765,-2.437 -1.301,0 -2.485,0.469 -3.567,1.418 -0.765,0.718 -1.168,1.668 -1.168,2.883 0,1.07 0.367,1.968 1.086,2.683 0.699,0.719 1.582,1.067 2.633,1.067 1.031,0 2.148,-0.516 3.316,-1.563 0.848,-0.754 1.5,-1.117 1.95,-1.117 0.398,0 0.898,0.265 1.515,0.781 1.535,1.234 3.617,3.902 6.25,8 2.633,4.102 4.367,7.067 5.184,8.899 -2.031,7.902 -3.117,12.085 -3.281,12.535 -0.754,2.117 -1.719,3.617 -2.934,4.5 -1.199,0.883 -2.969,1.316 -5.32,1.316 -0.746,0 -1.614,-0.031 -2.582,-0.101 v 1.765 l 13.035,2.285" /><path
         id="path32"
         style="fill:none;stroke:#231f20;stroke-width:7.5005002;stroke-linecap:butt;stroke-linejoin:miter;stroke-miterlimit:2.61310005;stroke-dasharray:none;stroke-opacity:1"
         d="M 1138.51,4.01172 V 876.316" /><path
         id="path34"
         style="fill:#231f20;fill-opacity:1;fill-rule:evenodd;stroke:none"
         d="m 1112.16,872.164 26.35,47.898 26.35,-47.898 h -52.7" /><path
         id="path36"
         style="fill:#231f20;fill-opacity:1;fill-rule:nonzero;stroke:none"
         d="m 1081.35,923.035 c 1.1,-1.883 1.87,-3.652 2.3,-5.285 0.42,-1.648 0.83,-4.883 1.27,-9.699 l 2.15,-24.016 c 1.95,2.332 4.78,6.051 8.5,11.133 1.78,2.465 4,5.832 6.63,10.098 1.6,2.601 2.57,4.433 2.93,5.468 0.19,0.516 0.29,1.067 0.29,1.618 0,0.351 -0.1,0.648 -0.34,0.882 -0.23,0.215 -0.81,0.485 -1.78,0.801 -0.97,0.301 -1.76,0.883 -2.4,1.699 -0.63,0.836 -0.95,1.786 -0.95,2.868 0,1.332 0.4,2.398 1.18,3.214 0.77,0.817 1.75,1.219 2.92,1.219 1.43,0 2.65,-0.586 3.66,-1.785 1.02,-1.184 1.52,-2.816 1.52,-4.898 0,-2.567 -0.88,-5.516 -2.63,-8.817 -1.77,-3.301 -5.15,-8.367 -10.17,-15.199 -5,-6.852 -11.08,-14.301 -18.2,-22.367 -4.91,-5.567 -8.56,-9.082 -10.94,-10.535 -2.37,-1.43 -4.41,-2.164 -6.11,-2.164 -1.01,0 -1.89,0.382 -2.66,1.148 -0.77,0.766 -1.13,1.652 -1.13,2.668 0,1.266 0.51,2.418 1.58,3.465 1.05,1.035 2.2,1.551 3.43,1.551 0.65,0 1.2,-0.133 1.62,-0.434 0.27,-0.168 0.55,-0.633 0.85,-1.402 0.31,-0.746 0.59,-1.266 0.86,-1.532 0.15,-0.164 0.36,-0.234 0.59,-0.234 0.18,0 0.53,0.152 1.02,0.484 1.79,1.102 3.88,2.868 6.25,5.27 3.13,3.195 5.43,5.797 6.93,7.812 l -2.74,30.954 c -0.44,5.117 -1.13,8.23 -2.05,9.332 -0.91,1.097 -2.43,1.664 -4.58,1.664 -0.69,0 -1.92,-0.098 -3.67,-0.301 l -0.43,1.801 14.3,3.519" /><path
         id="path38"
         style="fill:#231f20;fill-opacity:1;fill-rule:nonzero;stroke:none"
         d="m 1870.09,359.98 c 0,7.547 1.14,14.047 3.42,19.5 2.29,5.45 5.3,9.516 9.08,12.184 2.94,2.117 5.96,3.184 9.09,3.184 5.06,0 9.63,-2.602 13.66,-7.77 5.05,-6.418 7.57,-15.098 7.57,-26.082 0,-7.684 -1.1,-14.199 -3.32,-19.566 -2.21,-5.383 -5.03,-9.282 -8.46,-11.7 -3.43,-2.433 -6.75,-3.636 -9.95,-3.636 -6.3,0 -11.57,3.718 -15.77,11.187 -3.55,6.281 -5.32,13.848 -5.32,22.699 z m 9.57,-1.214 c 0,-9.121 1.12,-16.571 3.37,-22.317 1.85,-4.851 4.63,-7.285 8.3,-7.285 1.76,0 3.58,0.801 5.46,2.363 1.9,1.586 3.34,4.239 4.3,7.938 1.5,5.597 2.25,13.496 2.25,23.68 0,7.55 -0.78,13.851 -2.34,18.898 -1.17,3.75 -2.69,6.402 -4.54,7.969 -1.33,1.066 -2.95,1.601 -4.84,1.601 -2.21,0 -4.17,-0.984 -5.91,-2.968 -2.33,-2.7 -3.93,-6.95 -4.78,-12.75 -0.85,-5.797 -1.27,-11.5 -1.27,-17.129" /><path
         id="path40"
         style="fill:none;stroke:#231f20;stroke-width:7.5005002;stroke-linecap:butt;stroke-linejoin:miter;stroke-miterlimit:2.61310005;stroke-dasharray:none;stroke-opacity:1"
         d="M 1927.29,3.66797 V 875.973" /><path
         id="path42"
         style="fill:#231f20;fill-opacity:1;fill-rule:evenodd;stroke:none"
         d="m 1900.94,871.82 26.35,47.899 26.35,-47.899 h -52.7" /><path
         id="path44"
         style="fill:#231f20;fill-opacity:1;fill-rule:nonzero;stroke:none"
         d="m 1873.35,923.035 c 1.1,-1.883 1.86,-3.652 2.3,-5.285 0.42,-1.648 0.83,-4.883 1.27,-9.699 l 2.15,-24.016 c 1.95,2.332 4.78,6.051 8.5,11.133 1.78,2.465 4,5.832 6.63,10.098 1.6,2.601 2.57,4.433 2.93,5.468 0.19,0.516 0.29,1.067 0.29,1.618 0,0.351 -0.1,0.648 -0.34,0.882 -0.23,0.215 -0.81,0.485 -1.78,0.801 -0.97,0.301 -1.76,0.883 -2.4,1.699 -0.63,0.836 -0.95,1.786 -0.95,2.868 0,1.332 0.4,2.398 1.18,3.214 0.77,0.817 1.75,1.219 2.92,1.219 1.43,0 2.65,-0.586 3.66,-1.785 1.02,-1.184 1.52,-2.816 1.52,-4.898 0,-2.567 -0.88,-5.516 -2.63,-8.817 -1.77,-3.301 -5.15,-8.367 -10.17,-15.199 -5,-6.852 -11.08,-14.301 -18.2,-22.367 -4.91,-5.567 -8.56,-9.082 -10.94,-10.535 -2.37,-1.43 -4.41,-2.164 -6.11,-2.164 -1.01,0 -1.89,0.382 -2.66,1.148 -0.77,0.766 -1.13,1.652 -1.13,2.668 0,1.266 0.51,2.418 1.57,3.465 1.06,1.035 2.21,1.551 3.44,1.551 0.65,0 1.2,-0.133 1.62,-0.434 0.27,-0.168 0.55,-0.633 0.85,-1.402 0.31,-0.746 0.59,-1.266 0.86,-1.532 0.15,-0.164 0.36,-0.234 0.59,-0.234 0.18,0 0.53,0.152 1.02,0.484 1.79,1.102 3.88,2.868 6.25,5.27 3.13,3.195 5.43,5.797 6.93,7.812 l -2.74,30.954 c -0.44,5.117 -1.13,8.23 -2.05,9.332 -0.91,1.097 -2.43,1.664 -4.58,1.664 -0.69,0 -1.92,-0.098 -3.67,-0.301 l -0.43,1.801 14.3,3.519" /><path
         id="path46"
         style="fill:#231f20;fill-opacity:1;fill-rule:nonzero;stroke:none"
         d="m 2201.55,493.32 c 1.59,-1.683 2.8,-3.382 3.61,-5.062 0.59,-1.188 1.55,-4.254 2.89,-9.238 l 4.3,6.453 c 1.13,1.547 2.51,3.05 4.15,4.465 1.61,1.417 3.05,2.382 4.28,2.898 0.78,0.336 1.65,0.484 2.6,0.484 1.4,0 2.5,-0.363 3.33,-1.117 0.84,-0.75 1.25,-1.664 1.25,-2.73 0,-1.235 -0.25,-2.082 -0.73,-2.535 -0.92,-0.817 -1.95,-1.231 -3.12,-1.231 -0.68,0 -1.41,0.148 -2.2,0.449 -1.53,0.516 -2.57,0.782 -3.08,0.782 -0.78,0 -1.7,-0.469 -2.78,-1.368 -2.02,-1.699 -4.42,-4.965 -7.22,-9.816 l 4,-16.801 c 0.62,-2.562 1.13,-4.113 1.56,-4.617 0.42,-0.496 0.84,-0.746 1.27,-0.746 0.69,0 1.48,0.363 2.39,1.117 1.8,1.5 3.31,3.449 4.6,5.863 l 1.69,-0.882 c -2.04,-3.848 -4.64,-7.032 -7.81,-9.567 -1.78,-1.433 -3.3,-2.148 -4.53,-2.148 -1.82,0 -3.27,1.015 -4.35,3.066 -0.69,1.266 -2.1,6.75 -4.26,16.418 -5.06,-8.832 -9.13,-14.504 -12.19,-17.051 -1.99,-1.617 -3.9,-2.433 -5.77,-2.433 -1.3,0 -2.48,0.465 -3.57,1.414 -0.76,0.718 -1.16,1.668 -1.16,2.883 0,1.07 0.36,1.968 1.08,2.687 0.7,0.715 1.58,1.063 2.63,1.063 1.04,0 2.15,-0.516 3.32,-1.563 0.85,-0.75 1.5,-1.117 1.95,-1.117 0.4,0 0.9,0.265 1.52,0.781 1.53,1.234 3.61,3.902 6.25,8 2.63,4.102 4.36,7.067 5.18,8.902 -2.03,7.899 -3.11,12.082 -3.28,12.532 -0.75,2.117 -1.72,3.617 -2.94,4.5 -1.2,0.883 -2.96,1.32 -5.32,1.32 -0.74,0 -1.61,-0.035 -2.58,-0.105 v 1.765 l 13.04,2.285" /><path
         id="path48"
         style="fill:#231f20;fill-opacity:1;fill-rule:nonzero;stroke:none"
         d="m 2729.85,454.695 c 0,7.551 1.13,14.051 3.42,19.5 2.28,5.453 5.3,9.516 9.08,12.184 2.93,2.117 5.95,3.183 9.08,3.183 5.07,0 9.64,-2.597 13.67,-7.765 5.05,-6.418 7.56,-15.102 7.56,-26.086 0,-7.68 -1.09,-14.199 -3.31,-19.563 -2.22,-5.382 -5.04,-9.285 -8.47,-11.703 -3.43,-2.429 -6.75,-3.633 -9.95,-3.633 -6.3,0 -11.57,3.719 -15.76,11.184 -3.56,6.281 -5.32,13.852 -5.32,22.699 z m 9.56,-1.215 c 0,-9.117 1.12,-16.566 3.37,-22.316 1.85,-4.852 4.63,-7.285 8.3,-7.285 1.77,0 3.58,0.801 5.47,2.367 1.9,1.586 3.33,4.234 4.3,7.934 1.5,5.597 2.25,13.5 2.25,23.683 0,7.547 -0.79,13.852 -2.35,18.899 -1.17,3.75 -2.69,6.398 -4.54,7.968 -1.33,1.067 -2.94,1.598 -4.83,1.598 -2.22,0 -4.18,-0.984 -5.92,-2.965 -2.33,-2.703 -3.93,-6.949 -4.78,-12.75 -0.85,-5.801 -1.27,-11.5 -1.27,-17.133" /><path
         id="path50"
         style="fill:none;stroke:#231f20;stroke-width:7.5005002;stroke-linecap:butt;stroke-linejoin:miter;stroke-miterlimit:2.61310005;stroke-dasharray:none;stroke-opacity:1"
         d="M 2719.29,3.66797 V 875.973" /><path
         id="path52"
         style="fill:#231f20;fill-opacity:1;fill-rule:evenodd;stroke:none"
         d="m 2692.94,871.82 26.35,47.899 26.34,-47.899 h -52.69" /><path
         id="path54"
         style="fill:#231f20;fill-opacity:1;fill-rule:nonzero;stroke:none"
         d="m 2665.35,923.035 c 1.1,-1.883 1.87,-3.652 2.3,-5.285 0.42,-1.648 0.83,-4.883 1.27,-9.699 l 2.15,-24.016 c 1.95,2.332 4.78,6.051 8.5,11.133 1.78,2.465 4,5.832 6.63,10.098 1.6,2.601 2.57,4.433 2.93,5.468 0.19,0.516 0.29,1.067 0.29,1.618 0,0.351 -0.1,0.648 -0.34,0.882 -0.23,0.215 -0.81,0.485 -1.78,0.801 -0.97,0.301 -1.76,0.883 -2.4,1.699 -0.63,0.836 -0.95,1.786 -0.95,2.868 0,1.332 0.4,2.398 1.18,3.214 0.77,0.817 1.75,1.219 2.92,1.219 1.43,0 2.65,-0.586 3.66,-1.785 1.02,-1.184 1.52,-2.816 1.52,-4.898 0,-2.567 -0.88,-5.516 -2.63,-8.817 -1.77,-3.301 -5.15,-8.367 -10.17,-15.199 -5,-6.852 -11.08,-14.301 -18.2,-22.367 -4.91,-5.567 -8.56,-9.082 -10.94,-10.535 -2.37,-1.43 -4.41,-2.164 -6.11,-2.164 -1.01,0 -1.89,0.382 -2.66,1.148 -0.77,0.766 -1.13,1.652 -1.13,2.668 0,1.266 0.51,2.418 1.58,3.465 1.05,1.035 2.2,1.551 3.43,1.551 0.65,0 1.2,-0.133 1.62,-0.434 0.27,-0.168 0.55,-0.633 0.85,-1.402 0.31,-0.746 0.59,-1.266 0.86,-1.532 0.15,-0.164 0.36,-0.234 0.59,-0.234 0.18,0 0.53,0.152 1.02,0.484 1.79,1.102 3.88,2.868 6.25,5.27 3.13,3.195 5.43,5.797 6.93,7.812 l -2.74,30.954 c -0.44,5.117 -1.13,8.23 -2.05,9.332 -0.91,1.097 -2.43,1.664 -4.58,1.664 -0.68,0 -1.92,-0.098 -3.67,-0.301 l -0.43,1.801 14.3,3.519" /><path
         id="path56"
         style="fill:#231f20;fill-opacity:1;fill-rule:nonzero;stroke:none"
         d="m 2989.86,487.367 c 1.6,-1.683 2.8,-3.383 3.62,-5.062 0.59,-1.188 1.55,-4.254 2.88,-9.235 l 4.3,6.45 c 1.14,1.546 2.52,3.05 4.15,4.464 1.62,1.418 3.05,2.383 4.29,2.899 0.78,0.336 1.65,0.484 2.6,0.484 1.4,0 2.5,-0.363 3.33,-1.113 0.83,-0.754 1.25,-1.668 1.25,-2.734 0,-1.235 -0.25,-2.082 -0.73,-2.536 -0.92,-0.816 -1.95,-1.23 -3.12,-1.23 -0.68,0 -1.42,0.148 -2.2,0.449 -1.53,0.516 -2.57,0.781 -3.08,0.781 -0.79,0 -1.7,-0.464 -2.79,-1.363 -2.01,-1.703 -4.41,-4.969 -7.21,-9.816 l 3.99,-16.801 c 0.63,-2.566 1.14,-4.117 1.57,-4.621 0.42,-0.496 0.84,-0.746 1.27,-0.746 0.68,0 1.48,0.367 2.38,1.117 1.8,1.5 3.32,3.449 4.6,5.863 l 1.7,-0.879 c -2.05,-3.851 -4.64,-7.035 -7.81,-9.57 -1.78,-1.434 -3.3,-2.148 -4.54,-2.148 -1.81,0 -3.26,1.015 -4.35,3.066 -0.68,1.266 -2.1,6.75 -4.25,16.418 -5.06,-8.832 -9.13,-14.504 -12.19,-17.051 -1.99,-1.617 -3.91,-2.433 -5.77,-2.433 -1.3,0 -2.48,0.464 -3.57,1.414 -0.77,0.718 -1.17,1.668 -1.17,2.882 0,1.071 0.37,1.969 1.09,2.688 0.7,0.715 1.58,1.066 2.63,1.066 1.04,0 2.15,-0.519 3.32,-1.566 0.84,-0.75 1.5,-1.117 1.95,-1.117 0.4,0 0.9,0.265 1.52,0.781 1.53,1.234 3.61,3.902 6.24,8 2.63,4.102 4.37,7.066 5.19,8.902 -2.04,7.899 -3.12,12.082 -3.29,12.535 -0.75,2.114 -1.71,3.614 -2.93,4.497 -1.2,0.886 -2.97,1.32 -5.32,1.32 -0.75,0 -1.61,-0.035 -2.58,-0.106 v 1.77 l 13.03,2.281" /><path
         id="path58"
         style="fill:#231f20;fill-opacity:1;fill-rule:nonzero;stroke:none"
         d="m 20.5,912.312 16.1172,7.868 h 1.6172 v -55.914 c 0,-3.704 0.1484,-6.02 0.4492,-6.934 0.3164,-0.902 0.9648,-1.602 1.9336,-2.102 0.9844,-0.484 2.9687,-0.765 5.9648,-0.832 v -1.8 H 21.668 v 1.8 c 3.1328,0.067 5.1484,0.332 6.0664,0.817 0.9023,0.465 1.5312,1.097 1.8984,1.898 0.3516,0.801 0.5352,3.184 0.5352,7.153 v 35.75 c 0,4.816 -0.168,7.898 -0.4844,9.265 -0.2305,1.047 -0.6484,1.817 -1.25,2.297 -0.6016,0.484 -1.3164,0.734 -2.1641,0.734 -1.2031,0 -2.8828,-0.5 -5.0351,-1.515 L 20.5,912.312" /><path
         id="path60"
         style="fill:#231f20;fill-opacity:1;fill-rule:nonzero;stroke:none"
         d="m 61.0352,919.977 v 2.054 c 4.9492,-2.437 9.0625,-5.316 12.3515,-8.652 4.6485,-4.75 8.2461,-10.317 10.7813,-16.715 2.5468,-6.402 3.8164,-13.066 3.8164,-20 0,-10.082 -2.4844,-19.285 -7.4492,-27.598 -4.9688,-8.316 -11.4688,-14.269 -19.5,-17.855 v 1.801 c 4,2.25 7.2968,5.285 9.8789,9.121 2.5859,3.812 4.5195,8.679 5.7695,14.597 1.25,5.903 1.8828,12.067 1.8828,18.469 0,6.93 -0.5508,13.266 -1.6172,19 -0.8164,4.496 -1.832,8.078 -3.0469,10.797 -1.2343,2.699 -2.8515,5.301 -4.8671,7.801 -2.0157,2.515 -4.6836,4.898 -8,7.18" /><path
         id="path62"
         style="fill:#231f20;fill-opacity:1;fill-rule:nonzero;stroke:none"
         d="m 839.621,877.492 -4.633,-12.75 h -39.066 v 1.797 c 11.484,10.484 19.582,19.051 24.266,25.688 4.683,6.648 7.031,12.714 7.031,18.214 0,4.2 -1.281,7.649 -3.867,10.348 -2.563,2.703 -5.629,4.051 -9.215,4.051 -3.266,0 -6.18,-0.949 -8.766,-2.848 -2.582,-1.902 -4.5,-4.699 -5.73,-8.367 h -1.821 c 0.817,6.016 2.903,10.633 6.282,13.863 3.371,3.219 7.57,4.836 12.617,4.836 5.371,0 9.851,-1.734 13.453,-5.183 3.598,-3.453 5.398,-7.516 5.398,-12.2 0,-3.351 -0.781,-6.718 -2.351,-10.07 -2.399,-5.266 -6.313,-10.848 -11.715,-16.746 -8.102,-8.852 -13.164,-14.184 -15.184,-16.016 h 17.285 c 3.516,0 5.981,0.133 7.399,0.399 1.418,0.25 2.703,0.781 3.832,1.582 1.133,0.801 2.133,1.933 2.984,3.402 h 1.801" /><path
         id="path64"
         style="fill:#231f20;fill-opacity:1;fill-rule:nonzero;stroke:none"
         d="m 846.023,932.121 v 2.055 c 4.95,-2.438 9.063,-5.321 12.348,-8.653 4.649,-4.75 8.25,-10.316 10.785,-16.714 2.547,-6.403 3.813,-13.071 3.813,-20.004 0,-10.082 -2.481,-19.282 -7.449,-27.598 -4.965,-8.316 -11.465,-14.266 -19.497,-17.852 v 1.801 c 3.997,2.25 7.297,5.285 9.879,9.117 2.586,3.817 4.52,8.684 5.77,14.602 1.25,5.898 1.883,12.066 1.883,18.465 0,6.933 -0.551,13.265 -1.617,19 -0.817,4.5 -1.833,8.082 -3.051,10.801 -1.231,2.699 -2.852,5.297 -4.867,7.797 -2.016,2.519 -4.68,4.902 -7.997,7.183" /><path
         id="path66"
         style="fill:#231f20;fill-opacity:1;fill-rule:nonzero;stroke:none"
         d="m 1586.88,906.215 c 1.88,4.449 4.26,7.898 7.15,10.312 2.88,2.438 6.47,3.653 10.76,3.653 5.3,0 9.37,-1.731 12.21,-5.184 2.14,-2.566 3.23,-5.316 3.23,-8.25 0,-4.816 -3.04,-9.801 -9.09,-14.934 4.07,-1.601 7.14,-3.882 9.22,-6.851 2.09,-2.945 3.14,-6.43 3.14,-10.445 0,-5.719 -1.82,-10.684 -5.47,-14.887 -4.75,-5.465 -11.64,-8.199 -20.65,-8.199 -4.47,0 -7.5,0.55 -9.12,1.652 -1.6,1.113 -2.42,2.297 -2.42,3.566 0,0.95 0.39,1.782 1.15,2.5 0.77,0.715 1.69,1.067 2.77,1.067 0.8,0 1.63,-0.133 2.49,-0.383 0.55,-0.168 1.8,-0.77 3.76,-1.785 1.95,-1.035 3.3,-1.633 4.05,-1.832 1.2,-0.367 2.48,-0.535 3.85,-0.535 3.32,0 6.21,1.281 8.67,3.851 2.46,2.567 3.68,5.614 3.68,9.133 0,2.566 -0.57,5.082 -1.7,7.516 -0.85,1.816 -1.78,3.203 -2.78,4.152 -1.4,1.297 -3.32,2.48 -5.77,3.531 -2.43,1.067 -4.93,1.602 -7.47,1.602 h -1.56 v 1.465 c 2.56,0.316 5.15,1.25 7.73,2.785 2.6,1.515 4.49,3.367 5.65,5.515 1.17,2.153 1.75,4.5 1.75,7.067 0,3.367 -1.05,6.066 -3.15,8.133 -2.1,2.066 -4.7,3.101 -7.84,3.101 -5.04,0 -9.24,-2.699 -12.64,-8.101 l -1.6,0.785" /><path
         id="path68"
         style="fill:#231f20;fill-opacity:1;fill-rule:nonzero;stroke:none"
         d="m 1634.04,919.977 v 2.054 c 4.95,-2.437 9.07,-5.316 12.35,-8.652 4.65,-4.75 8.25,-10.317 10.79,-16.715 2.55,-6.402 3.81,-13.066 3.81,-20 0,-10.082 -2.48,-19.285 -7.45,-27.598 -4.96,-8.316 -11.46,-14.269 -19.5,-17.855 v 1.801 c 4,2.25 7.3,5.285 9.89,9.121 2.58,3.812 4.52,8.679 5.77,14.597 1.25,5.903 1.88,12.067 1.88,18.469 0,6.93 -0.55,13.266 -1.62,19 -0.82,4.496 -1.84,8.078 -3.05,10.797 -1.23,2.699 -2.85,5.301 -4.87,7.801 -2.01,2.515 -4.68,4.898 -8,7.18" /><path
         id="path70"
         style="fill:#231f20;fill-opacity:1;fill-rule:nonzero;stroke:none"
         d="m 2413.31,877.016 v -6.934 h -8.88 v -17.484 h -8.07 v 17.484 h -28.01 v 6.25 l 30.72,43.848 h 5.36 v -43.164 z m -16.95,0 v 32.863 l -23.23,-32.863 h 23.23" /><path
         id="path72"
         style="fill:#231f20;fill-opacity:1;fill-rule:nonzero;stroke:none"
         d="m 2419.03,919.977 v 2.054 c 4.95,-2.437 9.07,-5.316 12.35,-8.652 4.65,-4.75 8.25,-10.317 10.78,-16.715 2.55,-6.402 3.82,-13.066 3.82,-20 0,-10.082 -2.48,-19.285 -7.45,-27.598 -4.96,-8.316 -11.46,-14.269 -19.5,-17.855 v 1.801 c 4,2.25 7.3,5.285 9.88,9.121 2.59,3.812 4.52,8.679 5.77,14.597 1.25,5.903 1.88,12.067 1.88,18.469 0,6.93 -0.55,13.266 -1.61,19 -0.82,4.496 -1.84,8.078 -3.05,10.797 -1.24,2.699 -2.85,5.301 -4.87,7.801 -2.01,2.515 -4.68,4.898 -8,7.18" /><path
         id="path74"
         style="fill:none;stroke:#231f20;stroke-width:7.5005002;stroke-linecap:butt;stroke-linejoin:miter;stroke-miterlimit:2.61310005;stroke-dasharray:none;stroke-opacity:1"
         d="M 798.148,411.047 H 1393.5" /><path
         id="path76"
         style="fill:#231f20;fill-opacity:1;fill-rule:evenodd;stroke:none"
         d="m 1389.34,437.395 47.9,-26.348 -47.9,-26.348 v 52.696" /><path
         id="path78"
         style="fill:none;stroke:#231f20;stroke-width:7.5005002;stroke-linecap:butt;stroke-linejoin:miter;stroke-miterlimit:2.61310005;stroke-dasharray:none;stroke-opacity:1"
         d="m 1592.9,416.77 h 595.35" /><path
         id="path80"
         style="fill:#231f20;fill-opacity:1;fill-rule:evenodd;stroke:none"
         d="m 2184.09,443.117 47.9,-26.347 -47.9,-26.348 v 52.695" /><path
         id="path82"
         style="fill:none;stroke:#231f20;stroke-width:7.5005002;stroke-linecap:butt;stroke-linejoin:miter;stroke-miterlimit:2.61310005;stroke-dasharray:none;stroke-opacity:1"
         d="M 2382.25,410.621 H 2977.6" /><path
         id="path84"
         style="fill:#231f20;fill-opacity:1;fill-rule:evenodd;stroke:none"
         d="m 2973.45,436.969 47.9,-26.348 -47.9,-26.348 v 52.696" /><path
         id="path86"
         style="fill:#231f20;fill-opacity:1;fill-rule:nonzero;stroke:none"
         d="m 1386.59,369.523 c 1.6,-1.683 2.8,-3.386 3.62,-5.066 0.59,-1.187 1.55,-4.254 2.88,-9.234 l 4.3,6.449 c 1.14,1.547 2.52,3.051 4.15,4.465 1.62,1.418 3.05,2.383 4.29,2.898 0.78,0.336 1.65,0.488 2.6,0.488 1.4,0 2.5,-0.367 3.33,-1.117 0.83,-0.754 1.25,-1.668 1.25,-2.734 0,-1.234 -0.25,-2.082 -0.73,-2.535 -0.92,-0.817 -1.96,-1.231 -3.12,-1.231 -0.68,0 -1.42,0.149 -2.2,0.449 -1.53,0.516 -2.57,0.782 -3.08,0.782 -0.79,0 -1.7,-0.465 -2.79,-1.364 -2.01,-1.703 -4.41,-4.968 -7.21,-9.816 l 4,-16.801 c 0.62,-2.566 1.13,-4.117 1.57,-4.617 0.41,-0.5 0.83,-0.75 1.26,-0.75 0.68,0 1.49,0.367 2.38,1.117 1.8,1.5 3.32,3.449 4.61,5.864 l 1.69,-0.879 c -2.05,-3.852 -4.64,-7.036 -7.81,-9.567 -1.78,-1.437 -3.3,-2.152 -4.54,-2.152 -1.81,0 -3.26,1.016 -4.34,3.066 -0.69,1.266 -2.11,6.75 -4.26,16.418 -5.06,-8.832 -9.13,-14.504 -12.19,-17.051 -1.99,-1.617 -3.91,-2.433 -5.77,-2.433 -1.3,0 -2.49,0.465 -3.57,1.418 -0.77,0.715 -1.17,1.664 -1.17,2.883 0,1.066 0.37,1.965 1.09,2.683 0.7,0.715 1.58,1.067 2.63,1.067 1.03,0 2.15,-0.516 3.32,-1.567 0.84,-0.75 1.5,-1.117 1.95,-1.117 0.4,0 0.9,0.266 1.52,0.781 1.53,1.235 3.61,3.903 6.24,8 2.63,4.102 4.37,7.067 5.19,8.903 -2.04,7.898 -3.12,12.082 -3.29,12.535 -0.75,2.113 -1.71,3.613 -2.93,4.496 -1.2,0.887 -2.97,1.32 -5.32,1.32 -0.75,0 -1.61,-0.035 -2.58,-0.101 v 1.765 l 13.03,2.285" /><path
         id="path88"
         style="fill:#231f20;fill-opacity:1;fill-rule:nonzero;stroke:none"
         d="m 1089.93,345.199 16.12,7.867 h 1.61 v -55.914 c 0,-3.703 0.16,-6.019 0.46,-6.933 0.31,-0.903 0.96,-1.602 1.93,-2.102 0.98,-0.484 2.97,-0.765 5.97,-0.832 v -1.801 h -24.92 v 1.801 c 3.13,0.067 5.15,0.332 6.07,0.817 0.9,0.464 1.53,1.097 1.9,1.898 0.35,0.801 0.53,3.184 0.53,7.152 v 35.75 c 0,4.813 -0.17,7.899 -0.48,9.266 -0.24,1.047 -0.65,1.816 -1.25,2.297 -0.6,0.484 -1.32,0.734 -2.17,0.734 -1.2,0 -2.88,-0.5 -5.03,-1.515 l -0.74,1.515" /><path
         id="path90"
         style="fill:none;stroke:#231f20;stroke-width:5.00029993;stroke-linecap:butt;stroke-linejoin:miter;stroke-miterlimit:2.61310005;stroke-dasharray:none;stroke-opacity:1"
         d="m 1032.72,323.816 h 51.57" /><path
         id="path92"
         style="fill:none;stroke:#231f20;stroke-width:7.5005002;stroke-linecap:butt;stroke-linejoin:miter;stroke-miterlimit:2.61310005;stroke-dasharray:none;stroke-opacity:1"
         d="M 1030.99,68.6211 1374.42,816.949" /><path
         id="path94"
         style="fill:none;stroke:#231f20;stroke-width:7.5005002;stroke-linecap:butt;stroke-linejoin:miter;stroke-miterlimit:2.61310005;stroke-dasharray:none;stroke-opacity:1"
         d="M 2146.6,51.8945 1803.18,800.223" /><path
         id="path96"
         style="fill:none;stroke:#231f20;stroke-width:7.5005002;stroke-linecap:butt;stroke-linejoin:miter;stroke-miterlimit:2.61310005;stroke-dasharray:none;stroke-opacity:1"
         d="M 2837.5,43.0234 2494.07,791.352" /><path
         id="path98"
         style="fill:#231f20;fill-opacity:1;fill-rule:nonzero;stroke:none"
         d="m 140.312,369.336 c 0,7.551 1.133,14.051 3.415,19.5 2.285,5.453 5.3,9.516 9.085,12.184 2.93,2.117 5.95,3.183 9.083,3.183 5.066,0 9.632,-2.598 13.664,-7.765 5.05,-6.418 7.57,-15.102 7.57,-26.086 0,-7.68 -1.102,-14.2 -3.317,-19.563 -2.218,-5.383 -5.035,-9.285 -8.468,-11.703 -3.43,-2.43 -6.746,-3.633 -9.949,-3.633 -6.301,0 -11.567,3.719 -15.766,11.184 -3.551,6.281 -5.317,13.851 -5.317,22.699 z m 9.567,-1.215 c 0,-9.117 1.117,-16.566 3.367,-22.316 1.848,-4.852 4.633,-7.285 8.301,-7.285 1.765,0 3.582,0.8 5.465,2.367 1.898,1.586 3.332,4.234 4.3,7.933 1.497,5.598 2.25,13.5 2.25,23.684 0,7.547 -0.785,13.851 -2.351,18.898 -1.168,3.75 -2.684,6.399 -4.531,7.969 -1.336,1.067 -2.953,1.598 -4.836,1.598 -2.219,0 -4.18,-0.985 -5.918,-2.965 -2.332,-2.703 -3.93,-6.949 -4.781,-12.75 -0.848,-5.801 -1.266,-11.5 -1.266,-17.133" /><path
         id="path100"
         style="fill:#231f20;fill-opacity:1;fill-rule:nonzero;stroke:none"
         d="m 192.059,319.969 v 2.152 c 3.351,1.102 5.953,2.817 7.8,5.152 1.836,2.332 2.75,4.797 2.75,7.399 0,0.617 -0.148,1.133 -0.433,1.566 -0.231,0.282 -0.465,0.434 -0.684,0.434 -0.363,0 -1.148,-0.336 -2.347,-0.984 -0.586,-0.282 -1.2,-0.434 -1.852,-0.434 -1.598,0 -2.867,0.465 -3.816,1.418 -0.93,0.949 -1.418,2.246 -1.418,3.898 0,1.602 0.621,2.965 1.836,4.102 1.214,1.148 2.714,1.715 4.468,1.715 2.149,0 4.063,-0.934 5.731,-2.817 1.683,-1.867 2.515,-4.351 2.515,-7.433 0,-3.348 -1.164,-6.465 -3.484,-9.348 -2.332,-2.883 -6.012,-5.152 -11.066,-6.82" /><path
         id="path102"
         style="fill:#231f20;fill-opacity:1;fill-rule:nonzero;stroke:none"
         d="m 255.113,402.836 -3.82,-8.301 h -19.914 l -4.352,-8.898 c 8.633,-1.266 15.469,-4.469 20.5,-9.617 4.336,-4.418 6.5,-9.633 6.5,-15.618 0,-3.484 -0.699,-6.714 -2.113,-9.664 -1.418,-2.968 -3.203,-5.484 -5.352,-7.566 -2.148,-2.086 -4.55,-3.77 -7.183,-5.035 -3.734,-1.801 -7.582,-2.684 -11.52,-2.684 -3.98,0 -6.863,0.668 -8.664,2.02 -1.816,1.347 -2.718,2.847 -2.718,4.465 0,0.917 0.386,1.714 1.117,2.414 0.75,0.703 1.703,1.054 2.836,1.054 0.847,0 1.597,-0.121 2.234,-0.386 0.629,-0.266 1.715,-0.934 3.246,-2 2.438,-1.7 4.902,-2.551 7.418,-2.551 3.801,0 7.149,1.453 10.031,4.336 2.887,2.883 4.321,6.383 4.321,10.515 0,4 -1.285,7.735 -3.852,11.2 -2.582,3.468 -6.117,6.152 -10.648,8.035 -3.551,1.465 -8.387,2.312 -14.5,2.55 l 12.699,25.731 h 23.734" /><path
         id="path104"
         style="fill:#231f20;fill-opacity:1;fill-rule:nonzero;stroke:none"
         d="m 1080.73,456.078 c 0,7.547 1.13,14.047 3.41,19.5 2.29,5.449 5.3,9.516 9.09,12.184 2.93,2.117 5.95,3.179 9.08,3.179 5.07,0 9.63,-2.597 13.66,-7.765 5.05,-6.418 7.57,-15.098 7.57,-26.082 0,-7.684 -1.1,-14.199 -3.31,-19.567 -2.22,-5.382 -5.04,-9.281 -8.47,-11.699 -3.44,-2.433 -6.75,-3.637 -9.95,-3.637 -6.3,0 -11.57,3.719 -15.77,11.188 -3.55,6.281 -5.31,13.848 -5.31,22.699 z m 9.56,-1.215 c 0,-9.121 1.12,-16.57 3.37,-22.32 1.85,-4.848 4.63,-7.281 8.3,-7.281 1.77,0 3.58,0.8 5.47,2.363 1.89,1.586 3.33,4.238 4.29,7.937 1.5,5.598 2.26,13.497 2.26,23.68 0,7.551 -0.79,13.852 -2.36,18.899 -1.16,3.75 -2.68,6.402 -4.53,7.968 -1.33,1.067 -2.95,1.598 -4.83,1.598 -2.22,0 -4.19,-0.98 -5.92,-2.965 -2.33,-2.699 -3.93,-6.949 -4.78,-12.75 -0.85,-5.797 -1.27,-11.5 -1.27,-17.129" /><path
         id="path106"
         style="fill:#231f20;fill-opacity:1;fill-rule:nonzero;stroke:none"
         d="m 1187.77,361.855 c 0,7.547 1.13,14.047 3.42,19.497 2.28,5.453 5.3,9.515 9.08,12.183 2.93,2.117 5.95,3.184 9.08,3.184 5.07,0 9.64,-2.598 13.67,-7.766 5.05,-6.418 7.57,-15.101 7.57,-26.086 0,-7.679 -1.1,-14.195 -3.32,-19.562 -2.22,-5.383 -5.04,-9.285 -8.47,-11.703 -3.43,-2.43 -6.75,-3.633 -9.94,-3.633 -6.31,0 -11.57,3.719 -15.77,11.187 -3.55,6.282 -5.32,13.848 -5.32,22.699 z m 9.57,-1.218 c 0,-9.117 1.11,-16.567 3.36,-22.317 1.85,-4.847 4.64,-7.285 8.3,-7.285 1.77,0 3.59,0.805 5.47,2.367 1.9,1.586 3.33,4.235 4.3,7.934 1.5,5.598 2.25,13.5 2.25,23.684 0,7.55 -0.79,13.851 -2.35,18.898 -1.17,3.75 -2.69,6.402 -4.53,7.969 -1.34,1.066 -2.95,1.597 -4.84,1.597 -2.21,0 -4.18,-0.984 -5.91,-2.964 -2.34,-2.7 -3.94,-6.95 -4.78,-12.75 -0.86,-5.801 -1.27,-11.5 -1.27,-17.133" /><path
         id="path108"
         style="fill:#231f20;fill-opacity:1;fill-rule:nonzero;stroke:none"
         d="m 1239.52,312.488 v 2.149 c 3.35,1.101 5.95,2.816 7.8,5.152 1.83,2.332 2.75,4.797 2.75,7.399 0,0.617 -0.15,1.132 -0.43,1.566 -0.24,0.285 -0.47,0.434 -0.69,0.434 -0.36,0 -1.15,-0.333 -2.35,-0.985 -0.58,-0.281 -1.2,-0.433 -1.85,-0.433 -1.6,0 -2.86,0.464 -3.81,1.418 -0.94,0.949 -1.42,2.25 -1.42,3.898 0,1.602 0.62,2.969 1.83,4.102 1.22,1.152 2.72,1.714 4.47,1.714 2.15,0 4.06,-0.933 5.73,-2.816 1.68,-1.867 2.52,-4.352 2.52,-7.434 0,-3.347 -1.17,-6.464 -3.48,-9.347 -2.34,-2.883 -6.02,-5.153 -11.07,-6.817" /><path
         id="path110"
         style="fill:#231f20;fill-opacity:1;fill-rule:nonzero;stroke:none"
         d="m 1302.57,395.352 -3.82,-8.297 h -19.91 l -4.36,-8.903 c 8.64,-1.265 15.47,-4.464 20.5,-9.613 4.34,-4.422 6.5,-9.637 6.5,-15.621 0,-3.48 -0.69,-6.715 -2.11,-9.664 -1.42,-2.969 -3.2,-5.484 -5.35,-7.566 -2.15,-2.083 -4.55,-3.766 -7.18,-5.036 -3.74,-1.797 -7.59,-2.683 -11.52,-2.683 -3.98,0 -6.87,0.668 -8.67,2.019 -1.81,1.348 -2.71,2.848 -2.71,4.465 0,0.918 0.38,1.715 1.11,2.418 0.75,0.699 1.7,1.051 2.84,1.051 0.85,0 1.59,-0.121 2.23,-0.387 0.63,-0.265 1.72,-0.933 3.25,-1.996 2.43,-1.703 4.9,-2.551 7.42,-2.551 3.8,0 7.15,1.45 10.03,4.332 2.88,2.883 4.32,6.383 4.32,10.516 0,4 -1.29,7.734 -3.85,11.199 -2.59,3.469 -6.12,6.153 -10.65,8.035 -3.55,1.469 -8.39,2.317 -14.5,2.551 l 12.7,25.731 h 23.73" /><path
         id="path112"
         style="fill:none;stroke:#231f20;stroke-width:5.00029993;stroke-linecap:butt;stroke-linejoin:miter;stroke-miterlimit:2.61310005;stroke-dasharray:none;stroke-opacity:1"
         d="M 70.1758,369.641 H 121.738" /><path
         id="path114"
         style="fill:#231f20;fill-opacity:1;fill-rule:nonzero;stroke:none"
         d="m 2014.79,368.664 c 0,7.547 1.13,14.047 3.41,19.5 2.29,5.449 5.3,9.516 9.09,12.18 2.93,2.117 5.95,3.183 9.08,3.183 5.07,0 9.64,-2.597 13.67,-7.765 5.05,-6.418 7.57,-15.102 7.57,-26.082 0,-7.684 -1.1,-14.2 -3.32,-19.567 -2.22,-5.383 -5.04,-9.285 -8.47,-11.699 -3.43,-2.434 -6.75,-3.637 -9.95,-3.637 -6.3,0 -11.57,3.719 -15.76,11.188 -3.56,6.281 -5.32,13.847 -5.32,22.699 z m 9.57,-1.219 c 0,-9.117 1.11,-16.566 3.36,-22.316 1.85,-4.848 4.64,-7.285 8.3,-7.285 1.77,0 3.59,0.804 5.47,2.367 1.9,1.586 3.33,4.234 4.3,7.934 1.5,5.601 2.25,13.5 2.25,23.683 0,7.551 -0.79,13.852 -2.35,18.899 -1.17,3.75 -2.69,6.402 -4.53,7.968 -1.34,1.067 -2.95,1.598 -4.84,1.598 -2.21,0 -4.18,-0.981 -5.91,-2.965 -2.34,-2.699 -3.94,-6.949 -4.79,-12.75 -0.85,-5.797 -1.26,-11.5 -1.26,-17.133" /><path
         id="path116"
         style="fill:#231f20;fill-opacity:1;fill-rule:nonzero;stroke:none"
         d="m 2066.54,319.297 v 2.148 c 3.35,1.102 5.95,2.817 7.8,5.153 1.83,2.332 2.75,4.8 2.75,7.398 0,0.617 -0.15,1.133 -0.43,1.566 -0.24,0.286 -0.47,0.434 -0.69,0.434 -0.36,0 -1.15,-0.332 -2.35,-0.984 -0.58,-0.282 -1.2,-0.434 -1.85,-0.434 -1.6,0 -2.86,0.465 -3.82,1.418 -0.93,0.949 -1.41,2.25 -1.41,3.899 0,1.601 0.62,2.968 1.83,4.101 1.22,1.152 2.72,1.715 4.47,1.715 2.15,0 4.06,-0.934 5.73,-2.813 1.68,-1.871 2.52,-4.351 2.52,-7.437 0,-3.348 -1.17,-6.465 -3.48,-9.348 -2.34,-2.883 -6.02,-5.152 -11.07,-6.816" /><path
         id="path118"
         style="fill:#231f20;fill-opacity:1;fill-rule:nonzero;stroke:none"
         d="m 2129.59,402.164 -3.82,-8.301 h -19.91 l -4.36,-8.902 c 8.64,-1.266 15.47,-4.465 20.5,-9.613 4.34,-4.418 6.5,-9.637 6.5,-15.621 0,-3.481 -0.7,-6.715 -2.11,-9.665 -1.42,-2.968 -3.2,-5.48 -5.35,-7.566 -2.15,-2.082 -4.55,-3.766 -7.18,-5.035 -3.74,-1.797 -7.59,-2.684 -11.52,-2.684 -3.98,0 -6.87,0.668 -8.67,2.02 -1.81,1.348 -2.72,2.848 -2.72,4.469 0,0.914 0.39,1.714 1.12,2.414 0.75,0.699 1.7,1.05 2.84,1.05 0.85,0 1.59,-0.117 2.23,-0.386 0.63,-0.266 1.72,-0.93 3.25,-1.996 2.43,-1.703 4.9,-2.551 7.41,-2.551 3.81,0 7.16,1.449 10.04,4.332 2.88,2.883 4.32,6.383 4.32,10.516 0,4 -1.29,7.734 -3.86,11.199 -2.58,3.468 -6.11,6.152 -10.64,8.035 -3.55,1.469 -8.39,2.316 -14.5,2.551 l 12.7,25.734 h 23.73" /><path
         id="path120"
         style="fill:#231f20;fill-opacity:1;fill-rule:nonzero;stroke:none"
         d="m 1882.95,543.156 16.11,7.864 h 1.62 v -55.915 c 0,-3.703 0.15,-6.019 0.45,-6.933 0.32,-0.902 0.97,-1.602 1.93,-2.102 0.99,-0.484 2.97,-0.765 5.97,-0.832 v -1.8 h -24.92 v 1.8 c 3.14,0.067 5.16,0.336 6.07,0.817 0.9,0.468 1.53,1.097 1.9,1.898 0.35,0.801 0.54,3.184 0.54,7.152 v 35.75 c 0,4.817 -0.17,7.899 -0.49,9.266 -0.23,1.051 -0.65,1.817 -1.25,2.301 -0.6,0.484 -1.31,0.734 -2.17,0.734 -1.2,0 -2.88,-0.504 -5.03,-1.519 l -0.73,1.519" /><path
         id="path122"
         style="fill:#231f20;fill-opacity:1;fill-rule:nonzero;stroke:none"
         d="m 2792.47,318.219 16.12,7.867 h 1.62 v -55.914 c 0,-3.703 0.15,-6.02 0.45,-6.934 0.32,-0.902 0.96,-1.601 1.93,-2.101 0.98,-0.485 2.97,-0.766 5.97,-0.832 v -1.801 h -24.92 v 1.801 c 3.13,0.066 5.15,0.332 6.07,0.816 0.9,0.465 1.53,1.098 1.9,1.899 0.35,0.8 0.53,3.183 0.53,7.152 v 35.75 c 0,4.816 -0.16,7.898 -0.48,9.266 -0.23,1.046 -0.65,1.816 -1.25,2.296 -0.6,0.485 -1.32,0.735 -2.17,0.735 -1.2,0 -2.88,-0.5 -5.03,-1.516 l -0.74,1.516" /><path
         id="path124"
         style="fill:none;stroke:#231f20;stroke-width:5.00029993;stroke-linecap:butt;stroke-linejoin:miter;stroke-miterlimit:2.61310005;stroke-dasharray:none;stroke-opacity:1"
         d="m 2735.27,296.836 h 51.56" /><path
         id="path126"
         style="fill:#231f20;fill-opacity:1;fill-rule:nonzero;stroke:none"
         d="m 2547.77,364.457 c 0,7.551 1.14,14.051 3.42,19.5 2.28,5.453 5.3,9.516 9.08,12.184 2.93,2.117 5.95,3.183 9.09,3.183 5.06,0 9.63,-2.597 13.66,-7.765 5.05,-6.418 7.57,-15.102 7.57,-26.086 0,-7.68 -1.1,-14.2 -3.32,-19.563 -2.22,-5.383 -5.03,-9.285 -8.47,-11.703 -3.43,-2.43 -6.75,-3.633 -9.94,-3.633 -6.31,0 -11.57,3.719 -15.77,11.184 -3.55,6.281 -5.32,13.851 -5.32,22.699 z m 9.57,-1.215 c 0,-9.117 1.11,-16.566 3.37,-22.316 1.84,-4.852 4.63,-7.285 8.29,-7.285 1.77,0 3.59,0.8 5.47,2.367 1.9,1.586 3.33,4.234 4.3,7.933 1.5,5.598 2.25,13.5 2.25,23.684 0,7.547 -0.79,13.852 -2.35,18.898 -1.17,3.75 -2.68,6.403 -4.53,7.969 -1.34,1.067 -2.95,1.598 -4.84,1.598 -2.21,0 -4.18,-0.985 -5.91,-2.965 -2.34,-2.699 -3.93,-6.949 -4.78,-12.75 -0.86,-5.801 -1.27,-11.5 -1.27,-17.133" /><path
         id="path128"
         style="fill:#231f20;fill-opacity:1;fill-rule:nonzero;stroke:none"
         d="m 2599.52,315.09 v 2.152 c 3.35,1.102 5.95,2.817 7.8,5.153 1.83,2.332 2.75,4.796 2.75,7.398 0,0.617 -0.15,1.133 -0.43,1.566 -0.24,0.286 -0.47,0.434 -0.69,0.434 -0.36,0 -1.15,-0.336 -2.35,-0.984 -0.58,-0.282 -1.2,-0.434 -1.85,-0.434 -1.6,0 -2.86,0.465 -3.81,1.418 -0.94,0.949 -1.42,2.246 -1.42,3.898 0,1.602 0.62,2.969 1.83,4.102 1.22,1.148 2.72,1.715 4.47,1.715 2.15,0 4.07,-0.934 5.73,-2.817 1.68,-1.867 2.52,-4.351 2.52,-7.433 0,-3.348 -1.16,-6.465 -3.48,-9.348 -2.34,-2.883 -6.02,-5.152 -11.07,-6.82" /><path
         id="path130"
         style="fill:#231f20;fill-opacity:1;fill-rule:nonzero;stroke:none"
         d="m 2662.57,397.957 -3.82,-8.297 h -19.91 l -4.35,-8.902 c 8.63,-1.266 15.47,-4.469 20.5,-9.613 4.33,-4.422 6.5,-9.637 6.5,-15.622 0,-3.484 -0.7,-6.714 -2.12,-9.664 -1.42,-2.968 -3.2,-5.484 -5.35,-7.566 -2.15,-2.082 -4.55,-3.766 -7.18,-5.035 -3.73,-1.801 -7.59,-2.684 -11.52,-2.684 -3.98,0 -6.87,0.668 -8.66,2.02 -1.82,1.347 -2.72,2.847 -2.72,4.465 0,0.918 0.38,1.714 1.11,2.418 0.75,0.699 1.7,1.05 2.84,1.05 0.85,0 1.6,-0.121 2.23,-0.386 0.63,-0.266 1.72,-0.934 3.25,-2 2.43,-1.7 4.9,-2.551 7.42,-2.551 3.8,0 7.15,1.453 10.03,4.336 2.89,2.883 4.32,6.383 4.32,10.515 0,4 -1.29,7.735 -3.85,11.2 -2.58,3.468 -6.12,6.152 -10.65,8.035 -3.55,1.469 -8.39,2.316 -14.5,2.551 l 12.7,25.73 h 23.73" /><path
         id="path132"
         style="fill:none;stroke:#231f20;stroke-width:5.00029993;stroke-linecap:butt;stroke-linejoin:miter;stroke-miterlimit:2.61310005;stroke-dasharray:none;stroke-opacity:1"
         d="m 2477.64,364.762 h 51.56" /></g></g></svg>