<?xml version="1.0" encoding="UTF-8" standalone="no"?>
<svg
   xmlns:dc="http://purl.org/dc/elements/1.1/"
   xmlns:cc="http://creativecommons.org/ns#"
   xmlns:rdf="http://www.w3.org/1999/02/22-rdf-syntax-ns#"
   xmlns:svg="http://www.w3.org/2000/svg"
   xmlns="http://www.w3.org/2000/svg"
   viewBox="0 0 169.33333 89.333336"
   height="89.333336"
   width="169.33333"
   xml:space="preserve"
   id="svg2"
   version="1.1"><metadata
     id="metadata8"><rdf:RDF><cc:Work
         rdf:about=""><dc:format>image/svg+xml</dc:format><dc:type
           rdf:resource="http://purl.org/dc/dcmitype/StillImage" /></cc:Work></rdf:RDF></metadata><defs
     id="defs6" /><g
     transform="matrix(1.3333333,0,0,-1.3333333,0,89.333333)"
     id="g10"><g
       transform="scale(0.1)"
       id="g12"><path
         id="path14"
         style="fill:#231f20;fill-opacity:1;fill-rule:nonzero;stroke:none"
         d="m 576.531,151.316 c 0,7.547 1.133,14.047 3.414,19.496 2.285,5.454 5.301,9.516 9.086,12.184 2.93,2.117 5.949,3.184 9.082,3.184 5.067,0 9.633,-2.598 13.664,-7.766 5.051,-6.418 7.571,-15.102 7.571,-26.086 0,-7.68 -1.102,-14.195 -3.317,-19.562 -2.219,-5.383 -5.035,-9.286 -8.469,-11.704 -3.433,-2.429 -6.75,-3.632 -9.949,-3.632 -6.301,0 -11.566,3.718 -15.765,11.187 -3.551,6.281 -5.317,13.848 -5.317,22.699 z m 9.567,-1.218 c 0,-9.118 1.117,-16.567 3.367,-22.317 1.847,-4.847 4.633,-7.285 8.301,-7.285 1.765,0 3.582,0.805 5.464,2.367 1.899,1.586 3.332,4.235 4.297,7.934 1.5,5.598 2.254,13.5 2.254,23.683 0,7.551 -0.785,13.852 -2.351,18.899 -1.168,3.75 -2.684,6.402 -4.532,7.969 -1.336,1.066 -2.953,1.597 -4.836,1.597 -2.218,0 -4.183,-0.984 -5.917,-2.965 -2.333,-2.699 -3.93,-6.949 -4.782,-12.75 -0.851,-5.796 -1.265,-11.5 -1.265,-17.132" /><path
         id="path16"
         style="fill:#231f20;fill-opacity:1;fill-rule:nonzero;stroke:none"
         d="m 697.758,662.34 c 1.097,-1.883 1.863,-3.652 2.297,-5.285 0.418,-1.649 0.832,-4.883 1.265,-9.7 l 2.153,-24.015 c 1.949,2.332 4.781,6.051 8.5,11.133 1.781,2.465 4,5.832 6.632,10.097 1.602,2.602 2.567,4.434 2.934,5.469 0.184,0.516 0.281,1.066 0.281,1.617 0,0.352 -0.097,0.649 -0.332,0.883 -0.234,0.215 -0.816,0.484 -1.785,0.801 -0.965,0.301 -1.765,0.883 -2.398,1.699 -0.633,0.836 -0.95,1.785 -0.95,2.867 0,1.332 0.403,2.403 1.184,3.215 0.766,0.817 1.75,1.219 2.918,1.219 1.43,0 2.648,-0.586 3.664,-1.785 1.016,-1.184 1.516,-2.817 1.516,-4.899 0,-2.566 -0.883,-5.515 -2.633,-8.816 -1.766,-3.301 -5.149,-8.367 -10.164,-15.199 -5,-6.852 -11.082,-14.301 -18.203,-22.368 -4.914,-5.566 -8.567,-9.082 -10.949,-10.535 -2.368,-1.429 -4.399,-2.164 -6.098,-2.164 -1.016,0 -1.902,0.383 -2.668,1.149 -0.766,0.765 -1.133,1.652 -1.133,2.668 0,1.265 0.516,2.418 1.582,3.464 1.051,1.036 2.199,1.551 3.438,1.551 0.648,0 1.199,-0.133 1.613,-0.433 0.266,-0.168 0.551,-0.633 0.851,-1.403 0.313,-0.746 0.598,-1.265 0.864,-1.531 0.152,-0.164 0.351,-0.234 0.586,-0.234 0.183,0 0.531,0.152 1.015,0.484 1.801,1.102 3.883,2.867 6.25,5.27 3.133,3.195 5.434,5.796 6.934,7.812 l -2.734,30.953 c -0.45,5.117 -1.133,8.231 -2.051,9.332 -0.914,1.098 -2.43,1.664 -4.582,1.664 -0.684,0 -1.918,-0.097 -3.664,-0.3 l -0.434,1.8 14.301,3.52" /><path
         id="path18"
         style="fill:#231f20;fill-opacity:1;fill-rule:nonzero;stroke:none"
         d="m 702.375,168.656 16.117,7.867 h 1.613 v -55.914 c 0,-3.703 0.153,-6.019 0.454,-6.933 0.316,-0.903 0.964,-1.602 1.933,-2.102 0.985,-0.484 2.969,-0.765 5.965,-0.832 v -1.801 h -24.914 v 1.801 c 3.133,0.067 5.148,0.332 6.066,0.817 0.899,0.464 1.532,1.097 1.899,1.898 0.351,0.801 0.535,3.184 0.535,7.152 v 35.75 c 0,4.813 -0.168,7.899 -0.484,9.266 -0.235,1.047 -0.649,1.816 -1.25,2.297 -0.602,0.484 -1.317,0.734 -2.168,0.734 -1.2,0 -2.883,-0.5 -5.032,-1.515 l -0.734,1.515" /><path
         id="path20"
         style="fill:#231f20;fill-opacity:1;fill-rule:nonzero;stroke:none"
         d="m 1225.48,155.559 c 1.6,-1.684 2.8,-3.383 3.62,-5.067 0.58,-1.183 1.55,-4.25 2.88,-9.234 l 4.3,6.453 c 1.13,1.547 2.52,3.047 4.15,4.465 1.61,1.414 3.05,2.383 4.28,2.898 0.79,0.332 1.65,0.485 2.6,0.485 1.4,0 2.5,-0.368 3.33,-1.118 0.84,-0.75 1.25,-1.668 1.25,-2.734 0,-1.23 -0.25,-2.082 -0.73,-2.531 -0.91,-0.817 -1.95,-1.235 -3.11,-1.235 -0.69,0 -1.42,0.153 -2.2,0.45 -1.54,0.519 -2.57,0.785 -3.09,0.785 -0.78,0 -1.7,-0.469 -2.78,-1.367 -2.02,-1.7 -4.42,-4.965 -7.22,-9.817 l 4,-16.801 c 0.62,-2.566 1.13,-4.117 1.57,-4.617 0.42,-0.5 0.83,-0.75 1.26,-0.75 0.69,0 1.49,0.367 2.39,1.117 1.8,1.5 3.32,3.45 4.6,5.868 l 1.7,-0.883 c -2.05,-3.848 -4.65,-7.031 -7.82,-9.567 -1.78,-1.433 -3.3,-2.152 -4.53,-2.152 -1.82,0 -3.27,1.02 -4.35,3.066 -0.69,1.27 -2.1,6.754 -4.25,16.418 -5.07,-8.832 -9.13,-14.5 -12.2,-17.05 -1.99,-1.614 -3.9,-2.434 -5.77,-2.434 -1.3,0 -2.48,0.469 -3.56,1.418 -0.77,0.719 -1.17,1.668 -1.17,2.883 0,1.07 0.37,1.969 1.08,2.683 0.7,0.719 1.59,1.067 2.64,1.067 1.03,0 2.15,-0.516 3.31,-1.567 0.85,-0.75 1.5,-1.113 1.95,-1.113 0.4,0 0.9,0.266 1.52,0.781 1.53,1.231 3.62,3.899 6.25,8 2.63,4.102 4.37,7.067 5.18,8.899 -2.03,7.902 -3.11,12.086 -3.28,12.535 -0.75,2.113 -1.72,3.613 -2.93,4.5 -1.2,0.883 -2.97,1.316 -5.32,1.316 -0.75,0 -1.62,-0.035 -2.58,-0.101 v 1.765 l 13.03,2.286" /><path
         id="path22"
         style="fill:none;stroke:#101211;stroke-width:2.16000009;stroke-linecap:butt;stroke-linejoin:miter;stroke-miterlimit:2.61310005;stroke-dasharray:none;stroke-opacity:1"
         d="M 636.379,6.10547 V 646.305" /><path
         id="path24"
         style="fill:none;stroke:#101211;stroke-width:5.00029993;stroke-linecap:butt;stroke-linejoin:miter;stroke-miterlimit:2.61310005;stroke-dasharray:25.0015, 15.0009;stroke-dashoffset:0;stroke-opacity:1"
         d="M 714.852,203.855 V 371.262" /><path
         id="path26"
         style="fill:none;stroke:#101211;stroke-width:2.16000009;stroke-linecap:butt;stroke-linejoin:miter;stroke-miterlimit:2.61310005;stroke-dasharray:none;stroke-opacity:1"
         d="M 8.53125,204.688 H 1264.22" /><path
         id="path28"
         style="fill:none;stroke:#101211;stroke-width:5.00029993;stroke-linecap:butt;stroke-linejoin:miter;stroke-miterlimit:2.61310005;stroke-dasharray:25.0015, 15.0009;stroke-dashoffset:0;stroke-opacity:1"
         d="m 624.105,367.07 h 82.84" /><path
         id="path30"
         style="fill:none;stroke:#231f20;stroke-width:7.5005002;stroke-linecap:butt;stroke-linejoin:miter;stroke-miterlimit:2.61310005;stroke-dasharray:none;stroke-opacity:1"
         d="M 8.53125,204.688 H 1220.48" /><path
         id="path32"
         style="fill:#231f20;fill-opacity:1;fill-rule:evenodd;stroke:none"
         d="m 1216.32,231.039 47.9,-26.351 -47.9,-26.348 v 52.699" /><path
         id="path34"
         style="fill:none;stroke:#231f20;stroke-width:7.5005002;stroke-linecap:butt;stroke-linejoin:miter;stroke-miterlimit:2.61310005;stroke-dasharray:none;stroke-opacity:1"
         d="M 636.379,4.4375 V 625.711" /><path
         id="path36"
         style="fill:#231f20;fill-opacity:1;fill-rule:evenodd;stroke:none"
         d="m 610.031,621.559 26.348,47.898 26.348,-47.898 h -52.696" /><path
         id="path38"
         style="fill:none;stroke:#0b0c0b;stroke-width:7.5005002;stroke-linecap:butt;stroke-linejoin:miter;stroke-miterlimit:2.61310005;stroke-dasharray:none;stroke-opacity:1"
         d="m 8.53125,458.406 6.28125,0.106 6.2773,0.101 6.2774,0.11 6.2812,0.109 6.2735,0.109 6.2812,0.114 6.2774,0.117 6.2773,0.121 6.2813,0.117 6.2773,0.125 6.2813,0.129 6.2773,0.129 6.2773,0.129 6.2813,0.137 6.2774,0.14 6.277,0.141 6.278,0.148 6.277,0.149 6.281,0.152 6.278,0.156 6.277,0.16 6.281,0.165 6.278,0.171 6.277,0.172 6.277,0.18 6.278,0.18 6.281,0.191 6.277,0.191 6.277,0.2 6.282,0.203 6.277,0.211 6.281,0.215 6.278,0.222 6.277,0.231 6.281,0.234 6.274,0.246 6.281,0.25 6.277,0.262 6.278,0.266 6.281,0.277 6.277,0.289 6.278,0.297 6.281,0.304 6.277,0.321 6.277,0.328 6.278,0.344 6.277,0.351 6.281,0.371 6.278,0.383 6.281,0.399 6.277,0.414 6.278,0.429 6.281,0.45 6.277,0.468 6.278,0.492 6.277,0.512 6.277,0.535 6.282,0.563 6.277,0.59 6.277,0.621 6.282,0.648 6.277,0.688 6.277,0.719 6.281,0.761 6.274,0.805 6.281,0.855 6.278,0.903 6.281,0.961 6.277,1.023 6.277,1.094 6.282,1.164 6.277,1.254 6.277,1.34 6.282,1.445 6.277,1.562 6.277,1.692 6.278,1.836 6.277,2.008 6.281,2.195 6.278,2.418 6.277,2.668 6.281,2.969 6.278,3.316 6.281,3.734 6.273,4.227 6.281,4.832 6.278,5.574 6.277,6.508 6.281,7.688 6.278,9.226 6.277,11.277 6.281,14.094 6.278,18.121 6.277,24.168 6.281,33.828" /><path
         id="path40"
         style="fill:none;stroke:#0b0c0b;stroke-width:7.5005002;stroke-linecap:butt;stroke-linejoin:miter;stroke-miterlimit:2.61310005;stroke-dasharray:none;stroke-opacity:1"
         d="m 651.266,3.63281 3.949,106.33619 6.277,84.574 6.281,50.742 6.274,33.832 6.281,24.16 6.277,18.121 6.278,14.098 6.281,11.277 6.277,9.227 6.278,7.688 6.281,6.503 6.277,5.579 6.278,4.832 6.277,4.23 6.277,3.73 6.282,3.317 6.277,2.969 6.277,2.668 6.282,2.414 6.277,2.199 6.281,2.008 6.277,1.836 6.278,1.691 6.277,1.563 6.278,1.445 6.281,1.344 6.277,1.246 6.277,1.168 6.282,1.093 6.277,1.024 6.277,0.961 6.282,0.902 6.277,0.852 6.277,0.808 6.278,0.762 6.277,0.719 6.281,0.687 6.278,0.653 6.281,0.617 6.277,0.59 6.278,0.558 6.281,0.539 6.273,0.512 6.282,0.488 6.277,0.473 6.277,0.449 6.281,0.434 6.278,0.414 6.277,0.394 6.281,0.383 6.278,0.367 6.277,0.356 6.281,0.344 6.274,0.328 6.281,0.316 6.28,0.309 6.28,0.297 6.28,0.285 6.27,0.277 6.28,0.27 6.28,0.257 6.28,0.254 6.28,0.243 6.27,0.238 6.29,0.226 6.27,0.227 6.28,0.215 6.28,0.211 6.28,0.207 6.28,0.195 6.28,0.195 6.27,0.188 6.28,0.18 6.28,0.179 6.28,0.172 6.28,0.172 6.28,0.164 6.28,0.16 6.27,0.156 6.28,0.153 6.28,0.152 6.28,0.145 6.28,0.14 6.27,0.137 6.28,0.137 6.28,0.133 6.28,0.128 6.28,0.129 6.28,0.125 6.28,0.121 6.28,0.118 6.27,0.113 6.28,0.113 6.28,0.114 6.28,0.109 6.28,0.105 6.28,0.106 6.27,0.101" /><path
         id="path42"
         style="fill:none;stroke:#231f20;stroke-width:7.5005002;stroke-linecap:butt;stroke-linejoin:miter;stroke-miterlimit:2.61310005;stroke-dasharray:none;stroke-opacity:1"
         d="m 617.941,280.555 h 33.801" /><path
         id="path44"
         style="fill:none;stroke:#231f20;stroke-width:7.5005002;stroke-linecap:butt;stroke-linejoin:miter;stroke-miterlimit:2.61310005;stroke-dasharray:none;stroke-opacity:1"
         d="m 715.199,191.09 v 28.871" /><path
         id="path46"
         style="fill:#231f20;fill-opacity:1;fill-rule:nonzero;stroke:none"
         d="m 574.066,298.527 16.118,7.868 h 1.617 V 250.48 c 0,-3.703 0.148,-6.019 0.449,-6.933 0.316,-0.902 0.969,-1.602 1.934,-2.102 0.984,-0.484 2.968,-0.765 5.968,-0.832 v -1.801 h -24.918 v 1.801 c 3.133,0.067 5.153,0.332 6.067,0.817 0.902,0.468 1.531,1.097 1.898,1.898 0.352,0.801 0.535,3.184 0.535,7.152 v 35.75 c 0,4.817 -0.168,7.899 -0.484,9.266 -0.23,1.047 -0.648,1.816 -1.25,2.301 -0.602,0.484 -1.316,0.73 -2.164,0.73 -1.203,0 -2.883,-0.5 -5.035,-1.515 l -0.735,1.515" /><path
         id="path48"
         style="fill:#231f20;fill-opacity:1;fill-rule:nonzero;stroke:none"
         d="m 603.508,339.188 -4.637,-12.75 h -39.066 v 1.8 c 11.488,10.481 19.586,19.047 24.269,25.684 4.68,6.648 7.031,12.715 7.031,18.215 0,4.199 -1.281,7.648 -3.867,10.347 -2.566,2.704 -5.633,4.051 -9.215,4.051 -3.265,0 -6.183,-0.949 -8.765,-2.847 -2.586,-1.903 -4.5,-4.7 -5.735,-8.368 h -1.816 c 0.816,6.016 2.898,10.633 6.281,13.868 3.367,3.214 7.571,4.832 12.617,4.832 5.368,0 9.852,-1.731 13.45,-5.184 3.601,-3.449 5.402,-7.516 5.402,-12.199 0,-3.348 -0.785,-6.719 -2.352,-10.067 -2.398,-5.269 -6.316,-10.847 -11.714,-16.75 -8.102,-8.851 -13.168,-14.183 -15.184,-16.015 h 17.285 c 3.516,0 5.981,0.133 7.399,0.398 1.418,0.25 2.699,0.781 3.832,1.582 1.132,0.801 2.132,1.938 2.984,3.403 h 1.801" /><path
         id="path50"
         style="fill:none;stroke:#231f20;stroke-width:5.00029993;stroke-linecap:butt;stroke-linejoin:miter;stroke-miterlimit:2.61310005;stroke-dasharray:25.0015, 15.0009;stroke-dashoffset:0;stroke-opacity:1"
         d="M 7.77734,450.035 H 1263.47" /><path
         id="path52"
         style="fill:none;stroke:#101211;stroke-width:5.00029993;stroke-linecap:butt;stroke-linejoin:miter;stroke-miterlimit:2.61310005;stroke-dasharray:25.0015, 15.0009;stroke-dashoffset:0;stroke-opacity:1"
         d="m 626.363,455.625 h 28.805" /></g></g></svg>