<?xml version="1.0" encoding="UTF-8" standalone="no"?>
<svg
   xmlns:dc="http://purl.org/dc/elements/1.1/"
   xmlns:cc="http://creativecommons.org/ns#"
   xmlns:rdf="http://www.w3.org/1999/02/22-rdf-syntax-ns#"
   xmlns:svg="http://www.w3.org/2000/svg"
   xmlns="http://www.w3.org/2000/svg"
   viewBox="0 0 340 153.33333"
   height="153.33333"
   width="340"
   xml:space="preserve"
   id="svg2"
   version="1.1"><metadata
     id="metadata8"><rdf:RDF><cc:Work
         rdf:about=""><dc:format>image/svg+xml</dc:format><dc:type
           rdf:resource="http://purl.org/dc/dcmitype/StillImage" /></cc:Work></rdf:RDF></metadata><defs
     id="defs6" /><g
     transform="matrix(1.3333333,0,0,-1.3333333,0,153.33333)"
     id="g10"><g
       transform="scale(0.1)"
       id="g12"><path
         id="path14"
         style="fill:#231f20;fill-opacity:1;fill-rule:nonzero;stroke:none"
         d="m 59.6406,1144.79 -5.0351,-55.06 c -0.2657,-2.59 -0.3789,-4.27 -0.3789,-5.09 0,-1.3 0.2304,-2.3 0.7304,-2.98 0.6172,-0.93 1.4492,-1.64 2.5039,-2.1 1.0625,-0.45 2.8477,-0.68 5.3477,-0.68 l -0.5352,-1.81 H 36.207 l 0.5352,1.81 h 1.1172 c 2.1172,0 3.8515,0.46 5.1836,1.36 0.9336,0.64 1.6679,1.65 2.1992,3.08 0.3476,1.02 0.6992,3.39 1.0156,7.14 l 0.7852,8.4 H 28.0938 l -6.7344,-9.13 c -1.5313,-2.06 -2.4844,-3.54 -2.8828,-4.42 -0.3828,-0.9 -0.586,-1.74 -0.586,-2.52 0,-1.05 0.418,-1.93 1.2656,-2.68 0.8516,-0.75 2.254,-1.17 4.2032,-1.23 l -0.5352,-1.81 H 3.24219 l 0.53125,1.81 c 2.41797,0.09 4.53515,0.91 6.38276,2.41 1.836,1.52 4.5665,4.75 8.2188,9.7 l 39.5508,53.8 z m -9.664,-16.25 -19.2032,-26.11 h 16.6524 l 2.5508,26.11" /><path
         id="path16"
         style="fill:#231f20;fill-opacity:1;fill-rule:nonzero;stroke:none"
         d="m 83.7578,1145.57 1.668,0.94 c 3.8672,-7.35 6.6328,-13.87 8.3008,-19.54 1.332,-4.41 2,-8.88 2,-13.38 0,-10.5 -2.4336,-19.9 -7.2852,-28.16 -5.9844,-10.19 -15.6328,-20.11 -28.9492,-29.74 l -1.1641,1.52 c 6.0117,4.48 10.9297,9.48 14.7305,14.98 4.7656,6.9 8.6523,15.25 11.6836,25.04 3.0156,9.76 4.5312,18.66 4.5312,26.68 0,6.11 -1.832,13.33 -5.5156,21.66" /><path
         id="path18"
         style="fill:none;stroke:#101211;stroke-width:2.16000009;stroke-linecap:butt;stroke-linejoin:miter;stroke-miterlimit:2.61310005;stroke-dasharray:none;stroke-opacity:1"
         d="M 294.961,8.21484 V 1066.57" /><path
         id="path20"
         style="fill:none;stroke:#231f20;stroke-width:7.5005002;stroke-linecap:butt;stroke-linejoin:miter;stroke-miterlimit:2.61310005;stroke-dasharray:none;stroke-opacity:1"
         d="M 111.215,431.555 H 762.73" /><path
         id="path22"
         style="fill:#231f20;fill-opacity:1;fill-rule:evenodd;stroke:none"
         d="m 758.578,457.902 47.899,-26.347 -47.899,-26.348 v 52.695" /><path
         id="path24"
         style="fill:none;stroke:#231f20;stroke-width:7.5005002;stroke-linecap:butt;stroke-linejoin:miter;stroke-miterlimit:2.61310005;stroke-dasharray:none;stroke-opacity:1"
         d="M 294.961,8.21484 V 1022.82" /><path
         id="path26"
         style="fill:#231f20;fill-opacity:1;fill-rule:evenodd;stroke:none"
         d="m 268.613,1018.67 26.348,47.9 26.348,-47.9 h -52.696" /><path
         id="path28"
         style="fill:none;stroke:#0b0c0b;stroke-width:7.5005002;stroke-linecap:butt;stroke-linejoin:miter;stroke-miterlimit:2.61310005;stroke-dasharray:none;stroke-opacity:1"
         d="m 641.078,257.863 v 0 l -5.113,26.196 -5.117,25.664 -5.114,25.136 -5.117,24.606 -5.113,24.078 -5.113,23.547 -5.118,23.019 -5.113,22.493 -5.117,21.96 -5.117,21.434 -5.114,20.902 -5.117,20.372 -5.113,19.843 -5.117,19.313 -5.117,18.789 -5.114,18.254 -5.113,17.73 -5.117,17.196 -5.113,16.667 -5.118,16.141 -5.117,15.613 -5.113,15.082 -5.117,14.551 -5.114,14.024 -5.117,13.496 -5.113,12.965 -5.113,12.433 -5.117,11.906 -5.114,11.375 -5.117,10.852 -5.113,10.316 -5.113,9.793 -5.118,9.262 -5.117,8.727 -5.113,8.203 -5.113,7.676 -5.118,7.14 -5.113,6.617 -5.117,6.086 -5.117,5.555 -5.114,5.027 -5.117,4.496 -5.113,3.969 -5.117,3.442 -5.117,2.914 -5.11,2.379 -5.117,1.851 -5.117,1.32 -5.113,0.793 -5.118,0.27 -5.113,-0.27 -5.117,-0.793 -5.113,-1.32 -5.118,-1.851 -5.113,-2.379 -5.113,-2.914 -5.117,-3.442 -5.114,-3.969 -5.117,-4.496 -5.113,-5.027 -5.117,-5.555 -5.113,-6.086 -5.118,-6.617 -5.117,-7.14 -5.113,-7.676 -5.113,-8.203 -5.118,-8.727 -5.113,-9.262 -5.117,-9.793 -5.113,-10.316 -5.118,-10.852 -5.117,-11.375 -5.113,-11.906 -5.117,-12.433 -5.113,-12.965 -5.114,-13.496 -5.117,-14.024 -5.113,-14.551 -5.117,-15.082 -5.114,-15.613 -5.117,-16.141 -5.113,-16.667 -5.117,-17.196 -5.114,-17.73 -5.117,-18.254 -5.113,-18.789 -5.113,-19.313 -5.118,-19.843 -5.113,-20.372 -5.117,-20.902 -5.117,-21.434 -5.114,-21.96 -5.117,-22.493 -5.113,-23.019 -5.117,-23.547 -5.113,-24.078 -5.114,-24.606 -5.117,-25.136 -5.117,-25.664 -5.113,-26.196 v 0" /><path
         id="path30"
         style="fill:#231f20;fill-opacity:1;fill-rule:nonzero;stroke:none"
         d="m 257.395,1066.26 c 0.937,-1.62 1.597,-3.12 1.968,-4.52 0.356,-1.41 0.711,-4.18 1.082,-8.3 l 1.84,-20.55 c 1.668,2 4.09,5.18 7.27,9.53 1.527,2.11 3.422,4.99 5.675,8.64 1.368,2.23 2.196,3.79 2.508,4.68 0.157,0.44 0.242,0.91 0.242,1.38 0,0.3 -0.085,0.56 -0.285,0.76 -0.199,0.18 -0.699,0.41 -1.527,0.68 -0.824,0.26 -1.508,0.76 -2.051,1.46 -0.543,0.71 -0.812,1.52 -0.812,2.44 0,1.15 0.34,2.06 1.011,2.75 0.657,0.71 1.5,1.05 2.496,1.05 1.227,0 2.27,-0.5 3.137,-1.53 0.867,-1.01 1.297,-2.41 1.297,-4.19 0,-2.2 -0.758,-4.72 -2.254,-7.54 -1.512,-2.82 -4.406,-7.16 -8.695,-13 -4.277,-5.86 -9.481,-12.23 -15.57,-19.14 -4.204,-4.76 -7.325,-7.77 -9.368,-9.01 -2.023,-1.22 -3.761,-1.85 -5.214,-1.85 -0.872,0 -1.629,0.33 -2.282,0.98 -0.66,0.66 -0.968,1.41 -0.968,2.28 0,1.09 0.441,2.07 1.351,2.97 0.899,0.88 1.883,1.32 2.938,1.32 0.554,0 1.027,-0.11 1.382,-0.36 0.227,-0.15 0.473,-0.55 0.727,-1.2 0.273,-0.64 0.512,-1.08 0.742,-1.31 0.129,-0.14 0.297,-0.2 0.5,-0.2 0.156,0 0.457,0.13 0.867,0.41 1.543,0.94 3.325,2.45 5.348,4.5 2.68,2.74 4.648,4.97 5.93,6.69 l -2.336,26.48 c -0.387,4.37 -0.969,7.04 -1.754,7.98 -0.785,0.94 -2.082,1.43 -3.922,1.43 -0.582,0 -1.637,-0.09 -3.137,-0.26 l -0.371,1.54 12.235,3.01" /><path
         id="path32"
         style="fill:#231f20;fill-opacity:1;fill-rule:nonzero;stroke:none"
         d="m 791.84,376.297 c 1.367,-1.442 2.394,-2.895 3.094,-4.336 0.496,-1.012 1.324,-3.637 2.464,-7.899 l 3.68,5.516 c 0.969,1.324 2.152,2.61 3.547,3.824 1.387,1.211 2.613,2.036 3.668,2.481 0.668,0.281 1.41,0.414 2.223,0.414 1.199,0 2.136,-0.317 2.851,-0.957 0.711,-0.645 1.071,-1.426 1.071,-2.34 0,-1.055 -0.215,-1.781 -0.626,-2.168 -0.785,-0.695 -1.671,-1.055 -2.667,-1.055 -0.586,0 -1.211,0.129 -1.883,0.387 -1.313,0.441 -2.196,0.668 -2.637,0.668 -0.672,0 -1.453,-0.398 -2.383,-1.168 -1.722,-1.453 -3.777,-4.25 -6.172,-8.398 l 3.422,-14.371 c 0.528,-2.196 0.969,-3.52 1.34,-3.95 0.356,-0.425 0.711,-0.64 1.082,-0.64 0.586,0 1.27,0.316 2.039,0.957 1.539,1.281 2.836,2.949 3.934,5.015 l 1.457,-0.754 c -1.754,-3.293 -3.981,-6.015 -6.688,-8.183 -1.527,-1.227 -2.82,-1.84 -3.879,-1.84 -1.554,0 -2.793,0.871 -3.718,2.621 -0.586,1.086 -1.797,5.777 -3.637,14.047 -4.336,-7.559 -7.813,-12.402 -10.438,-14.586 -1.695,-1.383 -3.336,-2.082 -4.933,-2.082 -1.11,0 -2.121,0.402 -3.047,1.211 -0.66,0.617 -1,1.426 -1,2.469 0,0.91 0.312,1.679 0.926,2.293 0.601,0.617 1.355,0.914 2.254,0.914 0.882,0 1.839,-0.442 2.836,-1.34 0.726,-0.641 1.285,-0.957 1.668,-0.957 0.339,0 0.769,0.23 1.296,0.672 1.313,1.054 3.094,3.336 5.348,6.843 2.254,3.504 3.734,6.047 4.434,7.614 -1.739,6.758 -2.668,10.336 -2.809,10.719 -0.641,1.812 -1.469,3.097 -2.508,3.851 -1.027,0.758 -2.539,1.129 -4.551,1.129 -0.64,0 -1.382,-0.031 -2.207,-0.09 v 1.516 l 11.149,1.953" /><path
         id="path34"
         style="fill:#231f20;fill-opacity:1;fill-rule:nonzero;stroke:none"
         d="m 888.441,1143.29 h 46.532 l -5.032,-17.28 h -1.816 c 0.367,2.11 0.551,4.03 0.551,5.75 0,2.25 -0.449,4 -1.336,5.23 -0.863,1.23 -2.067,2.03 -3.582,2.38 -1.516,0.37 -4.481,0.55 -8.914,0.55 h -10.203 l -7.618,-26.13 h 6.653 c 5.648,0 9.898,-0.58 12.73,-1.75 2.836,-1.18 5.168,-3.17 6.985,-5.97 1.836,-2.8 2.734,-5.8 2.734,-9.03 0,-3.86 -1.316,-7.57 -3.984,-11.08 -2.649,-3.52 -5.899,-5.87 -9.735,-7.08 -3.832,-1.2 -8.363,-1.81 -13.566,-1.81 h -29.551 l 0.488,1.81 c 3.547,0.06 5.981,0.66 7.297,1.78 1.321,1.13 2.668,3.98 4.035,8.58 l 11.618,39.5 c 1.281,4.35 1.914,7.3 1.914,8.83 0,1.37 -0.5,2.35 -1.5,2.94 -0.985,0.58 -2.731,0.9 -5.25,0.96 z m -0.832,-61.91 c 2.532,-0.47 5.317,-0.69 8.348,-0.69 6.902,0 11.953,1.7 15.152,5.1 3.215,3.4 4.817,7.2 4.817,11.4 0,2.83 -0.77,5.33 -2.321,7.5 -1.546,2.17 -3.496,3.65 -5.828,4.47 -2.351,0.81 -5.504,1.22 -9.484,1.22 h -2.199 l -8.485,-29" /><path
         id="path36"
         style="fill:#231f20;fill-opacity:1;fill-rule:nonzero;stroke:none"
         d="m 945.656,1145.57 1.668,0.94 c 3.867,-7.35 6.633,-13.87 8.301,-19.54 1.332,-4.41 2,-8.88 2,-13.38 0,-10.5 -2.434,-19.9 -7.285,-28.16 -5.985,-10.19 -15.633,-20.11 -28.949,-29.74 l -1.164,1.52 c 6.015,4.48 10.933,9.48 14.73,14.98 4.77,6.9 8.652,15.25 11.684,25.04 3.015,9.76 4.535,18.66 4.535,26.68 0,6.11 -1.836,13.33 -5.52,21.66" /><path
         id="path38"
         style="fill:none;stroke:#101211;stroke-width:2.16000009;stroke-linecap:butt;stroke-linejoin:miter;stroke-miterlimit:2.61310005;stroke-dasharray:none;stroke-opacity:1"
         d="M 1158.96,8.21484 V 1066.57" /><path
         id="path40"
         style="fill:none;stroke:#231f20;stroke-width:7.5005002;stroke-linecap:butt;stroke-linejoin:miter;stroke-miterlimit:2.61310005;stroke-dasharray:none;stroke-opacity:1"
         d="M 975.215,431.555 H 1626.73" /><path
         id="path42"
         style="fill:#231f20;fill-opacity:1;fill-rule:evenodd;stroke:none"
         d="m 1622.58,457.902 47.9,-26.347 -47.9,-26.348 v 52.695" /><path
         id="path44"
         style="fill:none;stroke:#231f20;stroke-width:7.5005002;stroke-linecap:butt;stroke-linejoin:miter;stroke-miterlimit:2.61310005;stroke-dasharray:none;stroke-opacity:1"
         d="M 1158.96,8.21484 V 1022.82" /><path
         id="path46"
         style="fill:#231f20;fill-opacity:1;fill-rule:evenodd;stroke:none"
         d="m 1132.61,1018.67 26.35,47.9 26.35,-47.9 h -52.7" /><path
         id="path48"
         style="fill:none;stroke:#0b0c0b;stroke-width:7.5005002;stroke-linecap:butt;stroke-linejoin:miter;stroke-miterlimit:2.61310005;stroke-dasharray:none;stroke-opacity:1"
         d="m 1092.71,991.449 v 0 l 5.12,-26.195 5.12,-25.664 5.11,-25.137 5.12,-24.605 5.11,-24.078 5.11,-23.547 5.12,-23.02 5.11,-22.492 5.12,-21.961 5.12,-21.434 5.11,-20.902 5.12,-20.371 5.11,-19.848 5.12,-19.312 5.11,-18.785 5.12,-18.258 5.11,-17.727 5.12,-17.199 5.11,-16.664 5.12,-16.141 5.11,-15.613 5.12,-15.082 5.11,-14.551 5.12,-14.023 5.11,-13.496 5.12,-12.965 5.11,-12.434 5.12,-11.906 5.11,-11.375 5.12,-10.852 5.12,-10.32 5.11,-9.789 5.12,-9.262 5.11,-8.726 5.12,-8.203 5.11,-7.676 5.12,-7.141 5.11,-6.617 5.12,-6.086 5.11,-5.554 5.12,-5.028 5.11,-4.5 5.12,-3.969 5.11,-3.437 5.12,-2.914 5.11,-2.379 5.11,-1.852 5.12,-1.32 5.12,-0.797 5.11,-0.265 5.12,0.265 5.11,0.797 5.12,1.32 5.11,1.852 5.12,2.379 5.11,2.914 5.12,3.437 5.11,3.969 5.12,4.5 5.11,5.028 5.12,5.554 5.12,6.086 5.11,6.617 5.12,7.141 5.11,7.676 5.12,8.203 5.11,8.726 5.12,9.262 5.11,9.789 5.12,10.32 5.11,10.852 5.12,11.375 5.11,11.906 5.12,12.434 5.11,12.965 5.12,13.496 5.11,14.023 5.12,14.551 5.11,15.082 5.12,15.613 5.11,16.141 5.12,16.664 5.12,17.199 5.11,17.727 5.12,18.258 5.11,18.785 5.11,19.312 5.12,19.848 5.11,20.371 5.12,20.902 5.12,21.434 5.11,21.961 5.12,22.492 5.11,23.02 5.12,23.547 5.11,24.078 5.12,24.605 5.11,25.137 5.12,25.664 5.11,26.195 v 0" /><path
         id="path50"
         style="fill:#231f20;fill-opacity:1;fill-rule:nonzero;stroke:none"
         d="m 1121.39,1066.26 c 0.94,-1.62 1.6,-3.12 1.97,-4.52 0.36,-1.41 0.71,-4.18 1.09,-8.3 l 1.84,-20.55 c 1.66,2 4.09,5.18 7.26,9.53 1.53,2.11 3.43,4.99 5.68,8.64 1.37,2.23 2.2,3.79 2.51,4.68 0.15,0.44 0.24,0.91 0.24,1.38 0,0.3 -0.09,0.56 -0.28,0.76 -0.2,0.18 -0.7,0.41 -1.53,0.68 -0.83,0.26 -1.51,0.76 -2.05,1.46 -0.55,0.71 -0.82,1.52 -0.82,2.44 0,1.15 0.34,2.06 1.02,2.75 0.65,0.71 1.5,1.05 2.49,1.05 1.23,0 2.27,-0.5 3.14,-1.53 0.87,-1.01 1.3,-2.41 1.3,-4.19 0,-2.2 -0.76,-4.72 -2.26,-7.54 -1.51,-2.82 -4.4,-7.16 -8.69,-13 -4.28,-5.86 -9.48,-12.23 -15.57,-19.14 -4.21,-4.76 -7.33,-7.77 -9.37,-9.01 -2.02,-1.22 -3.76,-1.85 -5.22,-1.85 -0.87,0 -1.62,0.33 -2.28,0.98 -0.66,0.66 -0.97,1.41 -0.97,2.28 0,1.09 0.45,2.07 1.36,2.97 0.89,0.88 1.88,1.32 2.93,1.32 0.56,0 1.03,-0.11 1.39,-0.36 0.22,-0.15 0.47,-0.55 0.72,-1.2 0.28,-0.64 0.52,-1.08 0.75,-1.31 0.12,-0.14 0.29,-0.2 0.5,-0.2 0.15,0 0.45,0.13 0.86,0.41 1.55,0.94 3.33,2.45 5.35,4.5 2.68,2.74 4.65,4.97 5.93,6.69 l -2.34,26.48 c -0.38,4.37 -0.96,7.04 -1.75,7.98 -0.79,0.94 -2.08,1.43 -3.92,1.43 -0.58,0 -1.64,-0.09 -3.14,-0.26 l -0.37,1.54 12.23,3.01" /><path
         id="path52"
         style="fill:#231f20;fill-opacity:1;fill-rule:nonzero;stroke:none"
         d="m 1655.84,376.297 c 1.37,-1.442 2.39,-2.895 3.09,-4.336 0.5,-1.012 1.33,-3.637 2.47,-7.899 l 3.68,5.516 c 0.97,1.324 2.15,2.61 3.54,3.824 1.39,1.211 2.62,2.036 3.67,2.481 0.67,0.281 1.41,0.414 2.23,0.414 1.19,0 2.13,-0.317 2.85,-0.957 0.71,-0.645 1.07,-1.426 1.07,-2.34 0,-1.055 -0.22,-1.781 -0.63,-2.168 -0.78,-0.695 -1.67,-1.055 -2.67,-1.055 -0.58,0 -1.21,0.129 -1.88,0.387 -1.31,0.441 -2.19,0.668 -2.64,0.668 -0.67,0 -1.45,-0.398 -2.38,-1.168 -1.72,-1.453 -3.78,-4.25 -6.17,-8.398 l 3.42,-14.371 c 0.53,-2.196 0.97,-3.52 1.34,-3.95 0.36,-0.425 0.71,-0.64 1.08,-0.64 0.59,0 1.27,0.316 2.04,0.957 1.54,1.281 2.84,2.949 3.94,5.015 l 1.45,-0.754 c -1.75,-3.293 -3.98,-6.015 -6.68,-8.183 -1.53,-1.227 -2.82,-1.84 -3.88,-1.84 -1.56,0 -2.8,0.871 -3.72,2.621 -0.59,1.086 -1.8,5.777 -3.64,14.047 -4.33,-7.559 -7.81,-12.402 -10.44,-14.586 -1.69,-1.383 -3.33,-2.082 -4.93,-2.082 -1.11,0 -2.12,0.402 -3.05,1.211 -0.66,0.617 -1,1.426 -1,2.469 0,0.91 0.32,1.679 0.93,2.293 0.6,0.617 1.36,0.914 2.25,0.914 0.89,0 1.84,-0.442 2.84,-1.34 0.73,-0.641 1.28,-0.957 1.67,-0.957 0.34,0 0.77,0.23 1.29,0.672 1.32,1.054 3.1,3.336 5.35,6.843 2.26,3.504 3.74,6.047 4.44,7.614 -1.74,6.758 -2.67,10.336 -2.81,10.719 -0.64,1.812 -1.47,3.097 -2.51,3.851 -1.03,0.758 -2.54,1.129 -4.55,1.129 -0.64,0 -1.38,-0.031 -2.21,-0.09 v 1.516 l 11.15,1.953" /><path
         id="path54"
         style="fill:#231f20;fill-opacity:1;fill-rule:nonzero;stroke:none"
         d="m 1750.93,1141.47 0.68,1.82 h 23.63 c 3.97,0 7.5,-0.62 10.62,-1.87 3.1,-1.23 5.43,-2.95 6.98,-5.16 1.55,-2.22 2.32,-4.57 2.32,-7.04 0,-3.81 -1.38,-7.25 -4.13,-10.33 -2.76,-3.07 -7.24,-5.35 -13.46,-6.8 4.02,-1.5 6.96,-3.48 8.86,-5.97 1.88,-2.46 2.83,-5.18 2.83,-8.15 0,-3.28 -0.85,-6.43 -2.55,-9.43 -1.69,-2.98 -3.87,-5.31 -6.52,-6.97 -2.65,-1.66 -5.85,-2.88 -9.6,-3.66 -2.66,-0.55 -6.83,-0.84 -12.5,-0.84 h -24.26 l 0.63,1.81 c 2.55,0.06 4.27,0.31 5.18,0.73 1.3,0.57 2.24,1.3 2.79,2.2 0.78,1.23 1.81,4.06 3.11,8.49 l 11.87,40.09 c 1.02,3.38 1.52,5.77 1.52,7.13 0,1.2 -0.45,2.15 -1.34,2.86 -0.89,0.69 -2.6,1.04 -5.11,1.04 -0.55,0 -1.07,0.02 -1.55,0.05 z m 9.9,-27.48 c 2.11,-0.06 3.64,-0.1 4.6,-0.1 6.76,0 11.79,1.47 15.11,4.41 3.3,2.96 4.95,6.64 4.95,11.07 0,3.35 -1.01,5.97 -3.03,7.84 -2.02,1.86 -5.24,2.8 -9.67,2.8 -1.17,0 -2.67,-0.19 -4.48,-0.58 z m -9.62,-32.61 c 3.52,-0.47 6.27,-0.69 8.25,-0.69 5.08,0 9.58,1.53 13.5,4.58 3.93,3.07 5.88,7.22 5.88,12.45 0,4 -1.2,7.14 -3.63,9.39 -2.42,2.25 -6.33,3.36 -11.73,3.36 -1.05,0 -2.32,-0.05 -3.82,-0.15 l -8.45,-28.94" /><path
         id="path56"
         style="fill:#231f20;fill-opacity:1;fill-rule:nonzero;stroke:none"
         d="m 1811.76,1145.57 1.67,0.94 c 3.86,-7.35 6.63,-13.87 8.3,-19.54 1.33,-4.41 2,-8.88 2,-13.38 0,-10.5 -2.44,-19.9 -7.29,-28.16 -5.98,-10.19 -15.63,-20.11 -28.95,-29.74 l -1.16,1.52 c 6.01,4.48 10.93,9.48 14.73,14.98 4.76,6.9 8.65,15.25 11.68,25.04 3.02,9.76 4.53,18.66 4.53,26.68 0,6.11 -1.83,13.33 -5.51,21.66" /><path
         id="path58"
         style="fill:none;stroke:#101211;stroke-width:2.16000009;stroke-linecap:butt;stroke-linejoin:miter;stroke-miterlimit:2.61310005;stroke-dasharray:none;stroke-opacity:1"
         d="M 2022.96,8.21484 V 1066.57" /><path
         id="path60"
         style="fill:none;stroke:#231f20;stroke-width:7.5005002;stroke-linecap:butt;stroke-linejoin:miter;stroke-miterlimit:2.61310005;stroke-dasharray:none;stroke-opacity:1"
         d="m 1839.21,431.555 h 651.52" /><path
         id="path62"
         style="fill:#231f20;fill-opacity:1;fill-rule:evenodd;stroke:none"
         d="m 2486.58,457.902 47.9,-26.347 -47.9,-26.348 v 52.695" /><path
         id="path64"
         style="fill:none;stroke:#231f20;stroke-width:7.5005002;stroke-linecap:butt;stroke-linejoin:miter;stroke-miterlimit:2.61310005;stroke-dasharray:none;stroke-opacity:1"
         d="M 2022.96,8.21484 V 1022.82" /><path
         id="path66"
         style="fill:#231f20;fill-opacity:1;fill-rule:evenodd;stroke:none"
         d="m 1996.61,1018.67 26.35,47.9 26.35,-47.9 h -52.7" /><path
         id="path68"
         style="fill:none;stroke:#0b0c0b;stroke-width:7.5005002;stroke-linecap:butt;stroke-linejoin:miter;stroke-miterlimit:2.61310005;stroke-dasharray:none;stroke-opacity:1"
         d="m 1983.26,26.5625 5.11,18.7891 5.11,18.2539 5.12,17.7265 5.11,17.1992 5.12,16.6678 5.12,16.141 5.11,15.609 5.12,15.086 5.11,14.547 5.12,14.023 5.11,13.497 5.12,12.964 5.11,12.438 5.12,11.906 5.11,11.375 5.12,10.852 5.11,10.316 5.12,9.793 5.12,9.258 5.11,8.73 5.12,8.204 5.11,7.671 5.12,7.145 5.11,6.617 5.12,6.086 5.11,5.555 5.12,5.027 5.11,4.496 5.11,3.969 5.12,3.437 5.12,2.914 5.11,2.383 5.11,1.852 5.12,1.32 5.12,0.793 5.11,0.266 5.12,-0.266 5.11,-0.793 5.12,-1.32 5.11,-1.852 5.12,-2.383 5.11,-2.914 5.12,-3.437 5.11,-3.969 5.12,-4.496 5.11,-5.027 5.12,-5.555 5.12,-6.086 5.11,-6.617 5.12,-7.145 5.11,-7.671 5.12,-8.204 5.11,-8.73 5.12,-9.258 5.11,-9.793 5.12,-10.316 5.11,-10.852 5.12,-11.375 5.11,-11.906 5.12,-12.438 5.11,-12.964 5.11,-13.497 5.12,-14.023 5.11,-14.547 5.12,-15.086 5.12,-15.609 5.11,-16.141 5.12,-16.6678 5.12,-17.1992 5.11,-17.7265 5.12,-18.2539 5.11,-18.7891" /><path
         id="path70"
         style="fill:#231f20;fill-opacity:1;fill-rule:nonzero;stroke:none"
         d="m 1985.39,1066.26 c 0.94,-1.62 1.6,-3.12 1.97,-4.52 0.36,-1.41 0.71,-4.18 1.09,-8.3 l 1.84,-20.55 c 1.66,2 4.09,5.18 7.26,9.53 1.53,2.11 3.43,4.99 5.68,8.64 1.37,2.23 2.2,3.79 2.51,4.68 0.15,0.44 0.24,0.91 0.24,1.38 0,0.3 -0.09,0.56 -0.28,0.76 -0.2,0.18 -0.7,0.41 -1.53,0.68 -0.83,0.26 -1.51,0.76 -2.05,1.46 -0.55,0.71 -0.82,1.52 -0.82,2.44 0,1.15 0.34,2.06 1.02,2.75 0.65,0.71 1.5,1.05 2.49,1.05 1.23,0 2.27,-0.5 3.14,-1.53 0.87,-1.01 1.3,-2.41 1.3,-4.19 0,-2.2 -0.76,-4.72 -2.26,-7.54 -1.51,-2.82 -4.4,-7.16 -8.69,-13 -4.28,-5.86 -9.48,-12.23 -15.57,-19.14 -4.21,-4.76 -7.33,-7.77 -9.37,-9.01 -2.02,-1.22 -3.76,-1.85 -5.22,-1.85 -0.87,0 -1.62,0.33 -2.28,0.98 -0.66,0.66 -0.97,1.41 -0.97,2.28 0,1.09 0.45,2.07 1.36,2.97 0.89,0.88 1.88,1.32 2.93,1.32 0.56,0 1.03,-0.11 1.39,-0.36 0.22,-0.15 0.47,-0.55 0.72,-1.2 0.28,-0.64 0.52,-1.08 0.75,-1.31 0.12,-0.14 0.29,-0.2 0.5,-0.2 0.15,0 0.45,0.13 0.86,0.41 1.55,0.94 3.33,2.45 5.35,4.5 2.68,2.74 4.65,4.97 5.93,6.69 l -2.34,26.48 c -0.38,4.37 -0.96,7.04 -1.75,7.98 -0.79,0.94 -2.08,1.43 -3.92,1.43 -0.58,0 -1.64,-0.09 -3.14,-0.26 l -0.37,1.54 12.23,3.01" /><path
         id="path72"
         style="fill:#231f20;fill-opacity:1;fill-rule:nonzero;stroke:none"
         d="m 2519.84,376.297 c 1.37,-1.442 2.39,-2.895 3.09,-4.336 0.5,-1.012 1.33,-3.637 2.47,-7.899 l 3.68,5.516 c 0.97,1.324 2.15,2.61 3.54,3.824 1.39,1.211 2.62,2.036 3.67,2.481 0.67,0.281 1.41,0.414 2.23,0.414 1.19,0 2.14,-0.317 2.85,-0.957 0.71,-0.645 1.07,-1.426 1.07,-2.34 0,-1.055 -0.22,-1.781 -0.63,-2.168 -0.78,-0.695 -1.67,-1.055 -2.67,-1.055 -0.58,0 -1.21,0.129 -1.88,0.387 -1.31,0.441 -2.19,0.668 -2.64,0.668 -0.67,0 -1.45,-0.398 -2.38,-1.168 -1.72,-1.453 -3.78,-4.25 -6.17,-8.398 l 3.42,-14.371 c 0.53,-2.196 0.97,-3.52 1.34,-3.95 0.36,-0.425 0.71,-0.64 1.08,-0.64 0.59,0 1.27,0.316 2.04,0.957 1.54,1.281 2.84,2.949 3.94,5.015 l 1.45,-0.754 c -1.75,-3.293 -3.98,-6.015 -6.68,-8.183 -1.53,-1.227 -2.82,-1.84 -3.88,-1.84 -1.56,0 -2.8,0.871 -3.72,2.621 -0.59,1.086 -1.8,5.777 -3.64,14.047 -4.33,-7.559 -7.81,-12.402 -10.44,-14.586 -1.69,-1.383 -3.33,-2.082 -4.93,-2.082 -1.11,0 -2.12,0.402 -3.05,1.211 -0.66,0.617 -1,1.426 -1,2.469 0,0.91 0.32,1.679 0.93,2.293 0.6,0.617 1.36,0.914 2.25,0.914 0.89,0 1.84,-0.442 2.84,-1.34 0.73,-0.641 1.28,-0.957 1.67,-0.957 0.34,0 0.77,0.23 1.29,0.672 1.32,1.054 3.1,3.336 5.35,6.843 2.26,3.504 3.74,6.047 4.44,7.614 -1.74,6.758 -2.67,10.336 -2.81,10.719 -0.64,1.812 -1.47,3.097 -2.51,3.851 -1.03,0.758 -2.54,1.129 -4.55,1.129 -0.64,0 -1.38,-0.031 -2.21,-0.09 v 1.516 l 11.15,1.953" /></g></g></svg>