<?xml version="1.0" encoding="UTF-8" standalone="no"?>
<svg
   xmlns:dc="http://purl.org/dc/elements/1.1/"
   xmlns:cc="http://creativecommons.org/ns#"
   xmlns:rdf="http://www.w3.org/1999/02/22-rdf-syntax-ns#"
   xmlns:svg="http://www.w3.org/2000/svg"
   xmlns="http://www.w3.org/2000/svg"
   viewBox="0 0 404 133.33333"
   height="133.33333"
   width="404"
   xml:space="preserve"
   id="svg2"
   version="1.1"><metadata
     id="metadata8"><rdf:RDF><cc:Work
         rdf:about=""><dc:format>image/svg+xml</dc:format><dc:type
           rdf:resource="http://purl.org/dc/dcmitype/StillImage" /></cc:Work></rdf:RDF></metadata><defs
     id="defs6" /><g
     transform="matrix(1.3333333,0,0,-1.3333333,0,133.33333)"
     id="g10"><g
       transform="scale(0.1)"
       id="g12"><path
         id="path14"
         style="fill:#231f20;fill-opacity:1;fill-rule:nonzero;stroke:none"
         d="m 286.094,419.98 c 0,7.547 1.136,14.047 3.418,19.5 2.285,5.45 5.3,9.516 9.082,12.184 2.933,2.117 5.953,3.184 9.082,3.184 5.066,0 9.636,-2.602 13.668,-7.77 5.051,-6.418 7.566,-15.098 7.566,-26.082 0,-7.684 -1.098,-14.199 -3.316,-19.566 -2.215,-5.383 -5.032,-9.282 -8.465,-11.7 -3.434,-2.433 -6.75,-3.636 -9.949,-3.636 -6.301,0 -11.571,3.718 -15.766,11.187 -3.555,6.281 -5.32,13.848 -5.32,22.699 z m 9.566,-1.214 c 0,-9.121 1.117,-16.571 3.367,-22.317 1.852,-4.851 4.633,-7.285 8.301,-7.285 1.766,0 3.582,0.801 5.465,2.363 1.898,1.586 3.336,4.239 4.301,7.938 1.5,5.597 2.25,13.496 2.25,23.68 0,7.55 -0.785,13.851 -2.348,18.898 -1.168,3.75 -2.687,6.402 -4.535,7.969 -1.332,1.066 -2.949,1.601 -4.836,1.601 -2.215,0 -4.18,-0.984 -5.914,-2.968 -2.332,-2.7 -3.934,-6.95 -4.781,-12.75 -0.852,-5.797 -1.27,-11.5 -1.27,-17.129" /><path
         id="path16"
         style="fill:none;stroke:#231f20;stroke-width:7.5005002;stroke-linecap:butt;stroke-linejoin:miter;stroke-miterlimit:2.61310005;stroke-dasharray:none;stroke-opacity:1"
         d="M 6.46094,472.281 H 601.809" /><path
         id="path18"
         style="fill:#231f20;fill-opacity:1;fill-rule:evenodd;stroke:none"
         d="m 597.656,498.629 47.899,-26.348 -47.899,-26.347 v 52.695" /><path
         id="path20"
         style="fill:none;stroke:#231f20;stroke-width:7.5005002;stroke-linecap:butt;stroke-linejoin:miter;stroke-miterlimit:2.61310005;stroke-dasharray:none;stroke-opacity:1"
         d="M 340.875,63.2656 V 935.57" /><path
         id="path22"
         style="fill:#231f20;fill-opacity:1;fill-rule:evenodd;stroke:none"
         d="m 314.527,931.418 26.348,47.898 26.348,-47.898 h -52.696" /><path
         id="path24"
         style="fill:#231f20;fill-opacity:1;fill-rule:nonzero;stroke:none"
         d="m 271.918,814.418 c 1.887,4.449 4.266,7.898 7.152,10.316 2.883,2.434 6.465,3.649 10.766,3.649 5.301,0 9.367,-1.731 12.199,-5.184 2.149,-2.566 3.235,-5.316 3.235,-8.25 0,-4.812 -3.036,-9.797 -9.082,-14.929 4.066,-1.602 7.132,-3.887 9.214,-6.852 2.086,-2.949 3.133,-6.434 3.133,-10.449 0,-5.719 -1.816,-10.684 -5.469,-14.883 -4.746,-5.469 -11.632,-8.203 -20.648,-8.203 -4.465,0 -7.496,0.551 -9.117,1.652 -1.598,1.113 -2.414,2.301 -2.414,3.567 0,0.949 0.383,1.785 1.148,2.5 0.77,0.718 1.684,1.066 2.766,1.066 0.804,0 1.637,-0.133 2.488,-0.383 0.547,-0.168 1.797,-0.769 3.762,-1.781 1.949,-1.035 3.304,-1.637 4.051,-1.836 1.199,-0.367 2.484,-0.531 3.851,-0.531 3.317,0 6.215,1.281 8.668,3.847 2.465,2.567 3.68,5.618 3.68,9.133 0,2.567 -0.567,5.082 -1.699,7.52 -0.848,1.816 -1.782,3.199 -2.782,4.148 -1.398,1.297 -3.32,2.485 -5.769,3.531 -2.43,1.071 -4.93,1.602 -7.465,1.602 h -1.566 v 1.465 c 2.566,0.32 5.148,1.25 7.734,2.785 2.598,1.516 4.48,3.367 5.648,5.516 1.164,2.152 1.75,4.5 1.75,7.066 0,3.367 -1.05,6.066 -3.148,8.133 -2.102,2.07 -4.699,3.101 -7.836,3.101 -5.047,0 -9.25,-2.699 -12.648,-8.097 l -1.602,0.781" /><path
         id="path26"
         style="fill:none;stroke:#231f20;stroke-width:7.5005002;stroke-linecap:butt;stroke-linejoin:miter;stroke-miterlimit:2.61310005;stroke-dasharray:none;stroke-opacity:1"
         d="M 550.984,172.535 303.629,908.141" /><path
         id="path28"
         style="fill:#231f20;fill-opacity:1;fill-rule:nonzero;stroke:none"
         d="m 289.352,983.035 c 1.101,-1.883 1.863,-3.652 2.3,-5.285 0.414,-1.648 0.832,-4.883 1.266,-9.699 l 2.148,-24.016 c 1.95,2.332 4.786,6.051 8.5,11.133 1.786,2.465 4,5.832 6.633,10.098 1.602,2.601 2.571,4.433 2.934,5.468 0.183,0.516 0.285,1.067 0.285,1.618 0,0.351 -0.102,0.648 -0.336,0.882 -0.23,0.215 -0.816,0.485 -1.781,0.801 -0.969,0.301 -1.766,0.883 -2.399,1.699 -0.636,0.836 -0.953,1.786 -0.953,2.868 0,1.332 0.403,2.398 1.184,3.214 0.765,0.817 1.75,1.219 2.918,1.219 1.433,0 2.652,-0.586 3.664,-1.785 1.019,-1.184 1.519,-2.816 1.519,-4.898 0,-2.567 -0.882,-5.516 -2.636,-8.817 -1.766,-3.301 -5.145,-8.367 -10.164,-15.199 -5,-6.852 -11.082,-14.301 -18.2,-22.367 -4.918,-5.567 -8.566,-9.082 -10.949,-10.535 -2.367,-1.43 -4.402,-2.164 -6.101,-2.164 -1.016,0 -1.899,0.382 -2.664,1.148 -0.77,0.766 -1.133,1.652 -1.133,2.668 0,1.266 0.515,2.418 1.578,3.465 1.055,1.035 2.203,1.551 3.437,1.551 0.649,0 1.2,-0.133 1.618,-0.434 0.265,-0.168 0.546,-0.633 0.847,-1.402 0.317,-0.746 0.598,-1.266 0.867,-1.532 0.149,-0.164 0.352,-0.234 0.582,-0.234 0.184,0 0.536,0.152 1.02,0.484 1.797,1.102 3.883,2.868 6.25,5.27 3.133,3.195 5.434,5.797 6.934,7.812 l -2.739,30.954 c -0.445,5.117 -1.129,8.23 -2.047,9.332 -0.918,1.097 -2.433,1.664 -4.586,1.664 -0.683,0 -1.914,-0.098 -3.664,-0.301 l -0.433,1.801 14.301,3.519" /><path
         id="path30"
         style="fill:#231f20;fill-opacity:1;fill-rule:nonzero;stroke:none"
         d="m 431.363,439.762 16.117,7.867 h 1.614 v -55.914 c 0,-3.703 0.152,-6.02 0.453,-6.934 0.316,-0.902 0.965,-1.601 1.933,-2.101 0.981,-0.485 2.965,-0.766 5.965,-0.832 v -1.801 h -24.914 v 1.801 c 3.129,0.066 5.149,0.332 6.063,0.816 0.902,0.465 1.535,1.098 1.902,1.898 0.352,0.801 0.535,3.184 0.535,7.153 v 35.75 c 0,4.816 -0.168,7.898 -0.484,9.265 -0.235,1.047 -0.649,1.817 -1.25,2.297 -0.602,0.485 -1.317,0.735 -2.168,0.735 -1.199,0 -2.883,-0.5 -5.031,-1.516 l -0.735,1.516" /><path
         id="path32"
         style="fill:#231f20;fill-opacity:1;fill-rule:nonzero;stroke:none"
         d="m 612.219,434.07 c 1.597,-1.683 2.801,-3.382 3.617,-5.066 0.582,-1.184 1.551,-4.25 2.883,-9.234 l 4.297,6.453 c 1.136,1.547 2.519,3.05 4.152,4.465 1.613,1.417 3.051,2.382 4.281,2.898 0.785,0.336 1.653,0.484 2.602,0.484 1.398,0 2.5,-0.363 3.332,-1.117 0.832,-0.75 1.25,-1.664 1.25,-2.73 0,-1.235 -0.25,-2.086 -0.735,-2.535 -0.914,-0.817 -1.949,-1.235 -3.113,-1.235 -0.683,0 -1.418,0.152 -2.199,0.453 -1.535,0.516 -2.57,0.782 -3.086,0.782 -0.781,0 -1.699,-0.469 -2.785,-1.368 -2.012,-1.699 -4.414,-4.965 -7.215,-9.816 l 4,-16.801 c 0.617,-2.562 1.133,-4.113 1.566,-4.617 0.418,-0.496 0.832,-0.746 1.266,-0.746 0.684,0 1.484,0.363 2.387,1.117 1.801,1.496 3.316,3.449 4.601,5.863 l 1.696,-0.882 c -2.047,-3.848 -4.649,-7.032 -7.813,-9.567 -1.785,-1.433 -3.305,-2.152 -4.539,-2.152 -1.812,0 -3.262,1.019 -4.348,3.07 -0.683,1.266 -2.097,6.75 -4.25,16.418 -5.066,-8.836 -9.132,-14.504 -12.199,-17.051 -1.984,-1.617 -3.898,-2.437 -5.765,-2.437 -1.301,0 -2.485,0.469 -3.567,1.418 -0.765,0.718 -1.168,1.668 -1.168,2.883 0,1.07 0.367,1.968 1.086,2.683 0.699,0.719 1.582,1.067 2.633,1.067 1.031,0 2.148,-0.516 3.316,-1.563 0.848,-0.754 1.5,-1.117 1.95,-1.117 0.398,0 0.898,0.265 1.515,0.781 1.535,1.234 3.617,3.902 6.25,8 2.633,4.102 4.367,7.067 5.184,8.899 -2.031,7.902 -3.117,12.085 -3.281,12.535 -0.754,2.117 -1.719,3.617 -2.934,4.5 -1.199,0.883 -2.969,1.316 -5.32,1.316 -0.746,0 -1.614,-0.031 -2.582,-0.101 v 1.765 l 13.035,2.285" /><path
         id="path34"
         style="fill:none;stroke:#231f20;stroke-width:7.5005002;stroke-linecap:butt;stroke-linejoin:miter;stroke-miterlimit:2.61310005;stroke-dasharray:none;stroke-opacity:1"
         d="M 1138.51,64.0117 V 936.316" /><path
         id="path36"
         style="fill:#231f20;fill-opacity:1;fill-rule:evenodd;stroke:none"
         d="m 1112.16,932.164 26.35,47.898 26.35,-47.898 h -52.7" /><path
         id="path38"
         style="fill:#231f20;fill-opacity:1;fill-rule:nonzero;stroke:none"
         d="m 1226.19,162.309 c 1.88,4.449 4.26,7.898 7.15,10.312 2.88,2.438 6.46,3.652 10.77,3.652 5.3,0 9.36,-1.73 12.19,-5.183 2.15,-2.567 3.24,-5.317 3.24,-8.25 0,-4.817 -3.04,-9.797 -9.09,-14.934 4.07,-1.601 7.14,-3.883 9.22,-6.847 2.09,-2.95 3.13,-6.434 3.13,-10.45 0,-5.718 -1.81,-10.683 -5.46,-14.886 -4.75,-5.465 -11.64,-8.2 -20.65,-8.2 -4.47,0 -7.5,0.551 -9.12,1.653 -1.6,1.113 -2.41,2.301 -2.41,3.566 0,0.949 0.38,1.781 1.14,2.5 0.77,0.719 1.69,1.067 2.77,1.067 0.8,0 1.64,-0.133 2.49,-0.383 0.55,-0.168 1.8,-0.77 3.76,-1.785 1.95,-1.032 3.3,-1.633 4.05,-1.832 1.2,-0.368 2.49,-0.532 3.85,-0.532 3.32,0 6.22,1.282 8.67,3.848 2.47,2.566 3.68,5.613 3.68,9.133 0,2.566 -0.57,5.082 -1.7,7.515 -0.85,1.821 -1.78,3.204 -2.78,4.153 -1.4,1.297 -3.32,2.484 -5.77,3.531 -2.43,1.07 -4.93,1.602 -7.46,1.602 h -1.57 v 1.464 c 2.57,0.317 5.15,1.25 7.73,2.786 2.6,1.515 4.48,3.367 5.65,5.515 1.17,2.153 1.75,4.5 1.75,7.067 0,3.367 -1.05,6.066 -3.15,8.132 -2.1,2.071 -4.7,3.102 -7.83,3.102 -5.05,0 -9.25,-2.699 -12.65,-8.098 l -1.6,0.782" /><path
         id="path40"
         style="fill:none;stroke:#231f20;stroke-width:7.5005002;stroke-linecap:butt;stroke-linejoin:miter;stroke-miterlimit:2.61310005;stroke-dasharray:none;stroke-opacity:1"
         d="M 1183.55,2.76562 894.871,908.105" /><path
         id="path42"
         style="fill:#231f20;fill-opacity:1;fill-rule:nonzero;stroke:none"
         d="m 1081.35,983.035 c 1.1,-1.883 1.87,-3.652 2.3,-5.285 0.42,-1.648 0.83,-4.883 1.27,-9.699 l 2.15,-24.016 c 1.95,2.332 4.78,6.051 8.5,11.133 1.78,2.465 4,5.832 6.63,10.098 1.6,2.601 2.57,4.433 2.93,5.468 0.19,0.516 0.29,1.067 0.29,1.618 0,0.351 -0.1,0.648 -0.34,0.882 -0.23,0.215 -0.81,0.485 -1.78,0.801 -0.97,0.301 -1.76,0.883 -2.4,1.699 -0.63,0.836 -0.95,1.786 -0.95,2.868 0,1.332 0.4,2.398 1.18,3.214 0.77,0.817 1.75,1.219 2.92,1.219 1.43,0 2.65,-0.586 3.66,-1.785 1.02,-1.184 1.52,-2.816 1.52,-4.898 0,-2.567 -0.88,-5.516 -2.63,-8.817 -1.77,-3.301 -5.15,-8.367 -10.17,-15.199 -5,-6.852 -11.08,-14.301 -18.2,-22.367 -4.91,-5.567 -8.56,-9.082 -10.94,-10.535 -2.37,-1.43 -4.41,-2.164 -6.11,-2.164 -1.01,0 -1.89,0.382 -2.66,1.148 -0.77,0.766 -1.13,1.652 -1.13,2.668 0,1.266 0.51,2.418 1.58,3.465 1.05,1.035 2.2,1.551 3.43,1.551 0.65,0 1.2,-0.133 1.62,-0.434 0.27,-0.168 0.55,-0.633 0.85,-1.402 0.31,-0.746 0.59,-1.266 0.86,-1.532 0.15,-0.164 0.36,-0.234 0.59,-0.234 0.18,0 0.53,0.152 1.02,0.484 1.79,1.102 3.88,2.868 6.25,5.27 3.13,3.195 5.43,5.797 6.93,7.812 l -2.74,30.954 c -0.44,5.117 -1.13,8.23 -2.05,9.332 -0.91,1.097 -2.43,1.664 -4.58,1.664 -0.69,0 -1.92,-0.098 -3.67,-0.301 l -0.43,1.801 14.3,3.519" /><path
         id="path44"
         style="fill:#231f20;fill-opacity:1;fill-rule:nonzero;stroke:none"
         d="m 1870.09,419.98 c 0,7.547 1.14,14.047 3.42,19.5 2.29,5.45 5.3,9.516 9.08,12.184 2.94,2.117 5.96,3.184 9.09,3.184 5.06,0 9.63,-2.602 13.66,-7.77 5.05,-6.418 7.57,-15.098 7.57,-26.082 0,-7.684 -1.1,-14.199 -3.32,-19.566 -2.21,-5.383 -5.03,-9.282 -8.46,-11.7 -3.43,-2.433 -6.75,-3.636 -9.95,-3.636 -6.3,0 -11.57,3.718 -15.77,11.187 -3.55,6.281 -5.32,13.848 -5.32,22.699 z m 9.57,-1.214 c 0,-9.121 1.12,-16.571 3.37,-22.317 1.85,-4.851 4.63,-7.285 8.3,-7.285 1.76,0 3.58,0.801 5.46,2.363 1.9,1.586 3.34,4.239 4.3,7.938 1.5,5.597 2.25,13.496 2.25,23.68 0,7.55 -0.78,13.851 -2.34,18.898 -1.17,3.75 -2.69,6.402 -4.54,7.969 -1.33,1.066 -2.95,1.601 -4.84,1.601 -2.21,0 -4.17,-0.984 -5.91,-2.968 -2.33,-2.7 -3.93,-6.95 -4.78,-12.75 -0.85,-5.797 -1.27,-11.5 -1.27,-17.129" /><path
         id="path46"
         style="fill:none;stroke:#231f20;stroke-width:7.5005002;stroke-linecap:butt;stroke-linejoin:miter;stroke-miterlimit:2.61310005;stroke-dasharray:none;stroke-opacity:1"
         d="M 1927.29,63.668 V 935.973" /><path
         id="path48"
         style="fill:#231f20;fill-opacity:1;fill-rule:evenodd;stroke:none"
         d="m 1900.94,931.82 26.35,47.899 26.35,-47.899 h -52.7" /><path
         id="path50"
         style="fill:none;stroke:#231f20;stroke-width:7.5005002;stroke-linecap:butt;stroke-linejoin:miter;stroke-miterlimit:2.61310005;stroke-dasharray:none;stroke-opacity:1"
         d="M 2170.91,869.801 1900.34,71.0977" /><path
         id="path52"
         style="fill:#231f20;fill-opacity:1;fill-rule:nonzero;stroke:none"
         d="m 1873.35,983.035 c 1.1,-1.883 1.86,-3.652 2.3,-5.285 0.42,-1.648 0.83,-4.883 1.27,-9.699 l 2.15,-24.016 c 1.95,2.332 4.78,6.051 8.5,11.133 1.78,2.465 4,5.832 6.63,10.098 1.6,2.601 2.57,4.433 2.93,5.468 0.19,0.516 0.29,1.067 0.29,1.618 0,0.351 -0.1,0.648 -0.34,0.882 -0.23,0.215 -0.81,0.485 -1.78,0.801 -0.97,0.301 -1.76,0.883 -2.4,1.699 -0.63,0.836 -0.95,1.786 -0.95,2.868 0,1.332 0.4,2.398 1.18,3.214 0.77,0.817 1.75,1.219 2.92,1.219 1.43,0 2.65,-0.586 3.66,-1.785 1.02,-1.184 1.52,-2.816 1.52,-4.898 0,-2.567 -0.88,-5.516 -2.63,-8.817 -1.77,-3.301 -5.15,-8.367 -10.17,-15.199 -5,-6.852 -11.08,-14.301 -18.2,-22.367 -4.91,-5.567 -8.56,-9.082 -10.94,-10.535 -2.37,-1.43 -4.41,-2.164 -6.11,-2.164 -1.01,0 -1.89,0.382 -2.66,1.148 -0.77,0.766 -1.13,1.652 -1.13,2.668 0,1.266 0.51,2.418 1.57,3.465 1.06,1.035 2.21,1.551 3.44,1.551 0.65,0 1.2,-0.133 1.62,-0.434 0.27,-0.168 0.55,-0.633 0.85,-1.402 0.31,-0.746 0.59,-1.266 0.86,-1.532 0.15,-0.164 0.36,-0.234 0.59,-0.234 0.18,0 0.53,0.152 1.02,0.484 1.79,1.102 3.88,2.868 6.25,5.27 3.13,3.195 5.43,5.797 6.93,7.812 l -2.74,30.954 c -0.44,5.117 -1.13,8.23 -2.05,9.332 -0.91,1.097 -2.43,1.664 -4.58,1.664 -0.69,0 -1.92,-0.098 -3.67,-0.301 l -0.43,1.801 14.3,3.519" /><path
         id="path54"
         style="fill:#231f20;fill-opacity:1;fill-rule:nonzero;stroke:none"
         d="m 2044.11,447.398 16.12,7.868 h 1.62 v -55.914 c 0,-3.704 0.15,-6.02 0.45,-6.934 0.31,-0.902 0.97,-1.602 1.93,-2.102 0.98,-0.484 2.97,-0.765 5.97,-0.832 v -1.8 h -24.92 v 1.8 c 3.13,0.067 5.15,0.332 6.07,0.817 0.9,0.465 1.53,1.097 1.9,1.898 0.35,0.801 0.53,3.184 0.53,7.153 v 35.75 c 0,4.816 -0.17,7.898 -0.48,9.265 -0.23,1.047 -0.65,1.817 -1.25,2.297 -0.6,0.484 -1.32,0.734 -2.17,0.734 -1.2,0 -2.88,-0.5 -5.03,-1.515 l -0.74,1.515" /><path
         id="path56"
         style="fill:#231f20;fill-opacity:1;fill-rule:nonzero;stroke:none"
         d="m 2188.44,428.008 c 1.6,-1.684 2.8,-3.383 3.61,-5.067 0.59,-1.183 1.56,-4.25 2.89,-9.234 l 4.3,6.453 c 1.13,1.547 2.51,3.051 4.15,4.465 1.61,1.414 3.05,2.383 4.28,2.898 0.78,0.336 1.65,0.485 2.6,0.485 1.4,0 2.5,-0.367 3.33,-1.117 0.84,-0.75 1.25,-1.668 1.25,-2.731 0,-1.234 -0.25,-2.086 -0.73,-2.535 -0.92,-0.816 -1.95,-1.234 -3.12,-1.234 -0.68,0 -1.41,0.152 -2.2,0.453 -1.53,0.515 -2.57,0.781 -3.08,0.781 -0.78,0 -1.7,-0.469 -2.78,-1.367 -2.02,-1.699 -4.42,-4.965 -7.22,-9.817 l 4,-16.8 c 0.62,-2.567 1.13,-4.114 1.57,-4.618 0.41,-0.5 0.83,-0.746 1.26,-0.746 0.68,0 1.49,0.364 2.39,1.114 1.8,1.5 3.31,3.453 4.6,5.867 l 1.69,-0.883 c -2.04,-3.848 -4.64,-7.031 -7.81,-9.566 -1.78,-1.434 -3.3,-2.153 -4.53,-2.153 -1.82,0 -3.27,1.02 -4.35,3.067 -0.68,1.269 -2.1,6.754 -4.25,16.418 -5.07,-8.832 -9.14,-14.5 -12.2,-17.047 -1.99,-1.617 -3.9,-2.438 -5.77,-2.438 -1.3,0 -2.48,0.469 -3.57,1.418 -0.76,0.719 -1.16,1.668 -1.16,2.883 0,1.07 0.36,1.969 1.08,2.684 0.7,0.718 1.58,1.066 2.63,1.066 1.04,0 2.15,-0.516 3.32,-1.562 0.85,-0.754 1.5,-1.118 1.95,-1.118 0.4,0 0.9,0.266 1.52,0.782 1.53,1.234 3.61,3.898 6.25,8 2.63,4.101 4.36,7.066 5.18,8.898 -2.03,7.902 -3.11,12.086 -3.28,12.535 -0.76,2.113 -1.72,3.613 -2.94,4.5 -1.19,0.883 -2.96,1.317 -5.32,1.317 -0.74,0 -1.61,-0.036 -2.58,-0.102 v 1.766 l 13.04,2.285" /><path
         id="path58"
         style="fill:#231f20;fill-opacity:1;fill-rule:nonzero;stroke:none"
         d="m 2662.09,419.98 c 0,7.547 1.14,14.047 3.42,19.5 2.29,5.45 5.3,9.516 9.08,12.184 2.94,2.117 5.96,3.184 9.09,3.184 5.06,0 9.63,-2.602 13.66,-7.77 5.05,-6.418 7.57,-15.098 7.57,-26.082 0,-7.684 -1.1,-14.199 -3.32,-19.566 -2.21,-5.383 -5.03,-9.282 -8.46,-11.7 -3.43,-2.433 -6.75,-3.636 -9.95,-3.636 -6.3,0 -11.57,3.718 -15.77,11.187 -3.55,6.281 -5.32,13.848 -5.32,22.699 z m 9.57,-1.214 c 0,-9.121 1.12,-16.571 3.37,-22.317 1.85,-4.851 4.63,-7.285 8.3,-7.285 1.76,0 3.58,0.801 5.46,2.363 1.9,1.586 3.34,4.239 4.3,7.938 1.5,5.597 2.25,13.496 2.25,23.68 0,7.55 -0.78,13.851 -2.34,18.898 -1.17,3.75 -2.69,6.402 -4.54,7.969 -1.33,1.066 -2.95,1.601 -4.84,1.601 -2.21,0 -4.17,-0.984 -5.91,-2.968 -2.33,-2.7 -3.93,-6.95 -4.78,-12.75 -0.85,-5.797 -1.27,-11.5 -1.27,-17.129" /><path
         id="path60"
         style="fill:none;stroke:#231f20;stroke-width:7.5005002;stroke-linecap:butt;stroke-linejoin:miter;stroke-miterlimit:2.61310005;stroke-dasharray:none;stroke-opacity:1"
         d="M 2719.29,63.668 V 935.973" /><path
         id="path62"
         style="fill:#231f20;fill-opacity:1;fill-rule:evenodd;stroke:none"
         d="m 2692.94,931.82 26.35,47.899 26.34,-47.899 h -52.69" /><path
         id="path64"
         style="fill:#231f20;fill-opacity:1;fill-rule:nonzero;stroke:none"
         d="m 2665.72,819.512 c 1.89,4.449 4.27,7.898 7.16,10.316 2.88,2.434 6.46,3.649 10.76,3.649 5.3,0 9.37,-1.731 12.2,-5.184 2.15,-2.566 3.23,-5.313 3.23,-8.25 0,-4.813 -3.03,-9.797 -9.08,-14.93 4.07,-1.601 7.13,-3.883 9.22,-6.851 2.08,-2.95 3.13,-6.434 3.13,-10.45 0,-5.718 -1.82,-10.683 -5.47,-14.882 -4.75,-5.465 -11.63,-8.203 -20.65,-8.203 -4.46,0 -7.49,0.55 -9.11,1.652 -1.6,1.113 -2.42,2.301 -2.42,3.566 0,0.95 0.38,1.785 1.15,2.5 0.77,0.719 1.68,1.067 2.77,1.067 0.8,0 1.63,-0.133 2.48,-0.383 0.55,-0.168 1.8,-0.77 3.77,-1.781 1.94,-1.036 3.3,-1.637 4.05,-1.836 1.2,-0.364 2.48,-0.532 3.85,-0.532 3.31,0 6.21,1.282 8.67,3.848 2.46,2.567 3.68,5.617 3.68,9.133 0,2.566 -0.57,5.082 -1.7,7.519 -0.85,1.817 -1.79,3.2 -2.79,4.149 -1.39,1.297 -3.32,2.484 -5.76,3.531 -2.43,1.07 -4.93,1.602 -7.47,1.602 h -1.57 v 1.465 c 2.57,0.32 5.15,1.25 7.74,2.785 2.6,1.515 4.48,3.367 5.65,5.515 1.16,2.153 1.75,4.5 1.75,7.067 0,3.367 -1.05,6.066 -3.15,8.133 -2.1,2.07 -4.7,3.101 -7.84,3.101 -5.04,0 -9.25,-2.699 -12.65,-8.098 l -1.6,0.782" /><path
         id="path66"
         style="fill:none;stroke:#231f20;stroke-width:7.5005002;stroke-linecap:butt;stroke-linejoin:miter;stroke-miterlimit:2.61310005;stroke-dasharray:none;stroke-opacity:1"
         d="m 2529.07,222.035 226.14,681.641" /><path
         id="path68"
         style="fill:#231f20;fill-opacity:1;fill-rule:nonzero;stroke:none"
         d="m 2665.35,983.035 c 1.1,-1.883 1.87,-3.652 2.3,-5.285 0.42,-1.648 0.83,-4.883 1.27,-9.699 l 2.15,-24.016 c 1.95,2.332 4.78,6.051 8.5,11.133 1.78,2.465 4,5.832 6.63,10.098 1.6,2.601 2.57,4.433 2.93,5.468 0.19,0.516 0.29,1.067 0.29,1.618 0,0.351 -0.1,0.648 -0.34,0.882 -0.23,0.215 -0.81,0.485 -1.78,0.801 -0.97,0.301 -1.76,0.883 -2.4,1.699 -0.63,0.836 -0.95,1.786 -0.95,2.868 0,1.332 0.4,2.398 1.18,3.214 0.77,0.817 1.75,1.219 2.92,1.219 1.43,0 2.65,-0.586 3.66,-1.785 1.02,-1.184 1.52,-2.816 1.52,-4.898 0,-2.567 -0.88,-5.516 -2.63,-8.817 -1.77,-3.301 -5.15,-8.367 -10.17,-15.199 -5,-6.852 -11.08,-14.301 -18.2,-22.367 -4.91,-5.567 -8.56,-9.082 -10.94,-10.535 -2.37,-1.43 -4.41,-2.164 -6.11,-2.164 -1.01,0 -1.89,0.382 -2.66,1.148 -0.77,0.766 -1.13,1.652 -1.13,2.668 0,1.266 0.51,2.418 1.58,3.465 1.05,1.035 2.2,1.551 3.43,1.551 0.65,0 1.2,-0.133 1.62,-0.434 0.27,-0.168 0.55,-0.633 0.85,-1.402 0.31,-0.746 0.59,-1.266 0.86,-1.532 0.15,-0.164 0.36,-0.234 0.59,-0.234 0.18,0 0.53,0.152 1.02,0.484 1.79,1.102 3.88,2.868 6.25,5.27 3.13,3.195 5.43,5.797 6.93,7.812 l -2.74,30.954 c -0.44,5.117 -1.13,8.23 -2.05,9.332 -0.91,1.097 -2.43,1.664 -4.58,1.664 -0.68,0 -1.92,-0.098 -3.67,-0.301 l -0.43,1.801 14.3,3.519" /><path
         id="path70"
         style="fill:#231f20;fill-opacity:1;fill-rule:nonzero;stroke:none"
         d="m 2814.92,439.762 16.12,7.867 h 1.61 v -55.914 c 0,-3.703 0.15,-6.02 0.45,-6.934 0.32,-0.902 0.97,-1.601 1.94,-2.101 0.98,-0.485 2.96,-0.766 5.96,-0.832 v -1.801 h -24.91 v 1.801 c 3.13,0.066 5.15,0.332 6.06,0.816 0.9,0.465 1.54,1.098 1.9,1.898 0.35,0.801 0.54,3.184 0.54,7.153 v 35.75 c 0,4.816 -0.17,7.898 -0.49,9.265 -0.23,1.047 -0.65,1.817 -1.25,2.297 -0.6,0.485 -1.31,0.735 -2.16,0.735 -1.21,0 -2.89,-0.5 -5.04,-1.516 l -0.73,1.516" /><path
         id="path72"
         style="fill:#231f20;fill-opacity:1;fill-rule:nonzero;stroke:none"
         d="m 2991.01,421.984 c 1.6,-1.683 2.8,-3.382 3.61,-5.066 0.59,-1.184 1.56,-4.25 2.89,-9.234 l 4.3,6.453 c 1.14,1.547 2.52,3.047 4.15,4.465 1.61,1.414 3.05,2.382 4.28,2.898 0.78,0.336 1.65,0.484 2.6,0.484 1.4,0 2.5,-0.367 3.34,-1.117 0.83,-0.75 1.25,-1.668 1.25,-2.73 0,-1.235 -0.25,-2.086 -0.74,-2.535 -0.91,-0.817 -1.95,-1.235 -3.11,-1.235 -0.69,0 -1.42,0.153 -2.2,0.453 -1.54,0.516 -2.57,0.782 -3.09,0.782 -0.78,0 -1.7,-0.469 -2.78,-1.368 -2.02,-1.699 -4.42,-4.964 -7.22,-9.816 l 4,-16.801 c 0.62,-2.566 1.14,-4.117 1.57,-4.617 0.42,-0.5 0.83,-0.75 1.26,-0.75 0.69,0 1.49,0.367 2.39,1.117 1.8,1.5 3.32,3.453 4.6,5.867 l 1.7,-0.882 c -2.05,-3.848 -4.65,-7.032 -7.82,-9.567 -1.78,-1.433 -3.3,-2.152 -4.53,-2.152 -1.82,0 -3.27,1.019 -4.35,3.066 -0.68,1.27 -2.1,6.754 -4.25,16.418 -5.07,-8.832 -9.13,-14.5 -12.2,-17.047 -1.98,-1.617 -3.9,-2.437 -5.77,-2.437 -1.3,0 -2.48,0.469 -3.56,1.418 -0.77,0.719 -1.17,1.668 -1.17,2.883 0,1.07 0.37,1.968 1.09,2.683 0.7,0.719 1.57,1.067 2.63,1.067 1.03,0 2.15,-0.516 3.32,-1.563 0.84,-0.754 1.5,-1.117 1.94,-1.117 0.4,0 0.9,0.266 1.52,0.781 1.54,1.235 3.61,3.899 6.25,8 2.63,4.102 4.37,7.067 5.18,8.899 -2.03,7.902 -3.11,12.086 -3.28,12.535 -0.75,2.113 -1.72,3.613 -2.93,4.5 -1.2,0.883 -2.97,1.316 -5.32,1.316 -0.75,0 -1.62,-0.035 -2.58,-0.101 v 1.765 l 13.03,2.285" /><path
         id="path74"
         style="fill:none;stroke:#231f20;stroke-width:5.00029993;stroke-linecap:butt;stroke-linejoin:miter;stroke-miterlimit:2.61310005;stroke-dasharray:none;stroke-opacity:1"
         d="m 1161.58,140.855 h 51.56" /><path
         id="path76"
         style="fill:#231f20;fill-opacity:1;fill-rule:nonzero;stroke:none"
         d="m 1874.33,173.832 c 1.88,4.453 4.26,7.902 7.15,10.316 2.88,2.434 6.47,3.653 10.77,3.653 5.3,0 9.36,-1.735 12.2,-5.184 2.14,-2.566 3.23,-5.316 3.23,-8.25 0,-4.816 -3.04,-9.801 -9.09,-14.933 4.07,-1.602 7.14,-3.883 9.22,-6.852 2.08,-2.945 3.14,-6.43 3.14,-10.449 0,-5.715 -1.82,-10.684 -5.47,-14.883 -4.75,-5.465 -11.64,-8.199 -20.65,-8.199 -4.47,0 -7.5,0.547 -9.12,1.652 -1.6,1.113 -2.41,2.297 -2.41,3.567 0,0.949 0.38,1.781 1.14,2.5 0.77,0.714 1.68,1.062 2.77,1.062 0.8,0 1.63,-0.133 2.49,-0.379 0.55,-0.168 1.8,-0.769 3.76,-1.785 1.95,-1.035 3.3,-1.637 4.05,-1.832 1.2,-0.367 2.48,-0.535 3.85,-0.535 3.32,0 6.22,1.281 8.67,3.851 2.47,2.563 3.68,5.614 3.68,9.133 0,2.563 -0.57,5.082 -1.7,7.516 -0.85,1.816 -1.78,3.199 -2.78,4.148 -1.4,1.301 -3.32,2.485 -5.77,3.535 -2.43,1.067 -4.93,1.602 -7.47,1.602 h -1.56 v 1.465 c 2.57,0.316 5.15,1.25 7.73,2.781 2.6,1.52 4.48,3.367 5.65,5.52 1.17,2.148 1.75,4.5 1.75,7.066 0,3.367 -1.05,6.062 -3.15,8.129 -2.1,2.07 -4.7,3.101 -7.83,3.101 -5.05,0 -9.25,-2.695 -12.65,-8.097 l -1.6,0.781" /><path
         id="path78"
         style="fill:none;stroke:#231f20;stroke-width:5.00029993;stroke-linecap:butt;stroke-linejoin:miter;stroke-miterlimit:2.61310005;stroke-dasharray:none;stroke-opacity:1"
         d="m 1809.72,152.379 h 51.56" /><path
         id="path80"
         style="fill:#231f20;fill-opacity:1;fill-rule:nonzero;stroke:none"
         d="m 2582.03,544.621 16.12,7.867 h 1.61 v -55.914 c 0,-3.703 0.15,-6.019 0.45,-6.933 0.32,-0.903 0.97,-1.602 1.94,-2.102 0.98,-0.484 2.96,-0.766 5.96,-0.832 v -1.801 h -24.91 v 1.801 c 3.13,0.066 5.15,0.332 6.07,0.816 0.89,0.465 1.53,1.098 1.89,1.899 0.36,0.801 0.54,3.183 0.54,7.152 v 35.75 c 0,4.813 -0.17,7.899 -0.49,9.266 -0.23,1.047 -0.64,1.816 -1.25,2.297 -0.6,0.484 -1.31,0.734 -2.16,0.734 -1.2,0 -2.89,-0.5 -5.03,-1.516 l -0.74,1.516" /><path
         id="path82"
         style="fill:none;stroke:#231f20;stroke-width:5.00029993;stroke-linecap:butt;stroke-linejoin:miter;stroke-miterlimit:2.61310005;stroke-dasharray:none;stroke-opacity:1"
         d="m 2524.82,523.238 h 51.56" /><path
         id="path84"
         style="fill:#231f20;fill-opacity:1;fill-rule:nonzero;stroke:none"
         d="m 20.5,972.312 16.1172,7.868 h 1.6172 v -55.914 c 0,-3.704 0.1484,-6.02 0.4492,-6.934 0.3164,-0.902 0.9648,-1.602 1.9336,-2.102 0.9844,-0.484 2.9687,-0.765 5.9648,-0.832 v -1.8 H 21.668 v 1.8 c 3.1328,0.067 5.1484,0.332 6.0664,0.817 0.9023,0.465 1.5312,1.097 1.8984,1.898 0.3516,0.801 0.5352,3.184 0.5352,7.153 v 35.75 c 0,4.816 -0.168,7.898 -0.4844,9.265 -0.2305,1.047 -0.6484,1.817 -1.25,2.297 -0.6016,0.484 -1.3164,0.734 -2.1641,0.734 -1.2031,0 -2.8828,-0.5 -5.0351,-1.515 L 20.5,972.312" /><path
         id="path86"
         style="fill:#231f20;fill-opacity:1;fill-rule:nonzero;stroke:none"
         d="m 61.0352,979.977 v 2.054 c 4.9492,-2.437 9.0625,-5.316 12.3515,-8.652 4.6485,-4.75 8.2461,-10.317 10.7813,-16.715 2.5468,-6.402 3.8164,-13.066 3.8164,-20 0,-10.082 -2.4844,-19.285 -7.4492,-27.598 -4.9688,-8.316 -11.4688,-14.269 -19.5,-17.855 v 1.801 c 4,2.25 7.2968,5.285 9.8789,9.121 2.5859,3.812 4.5195,8.679 5.7695,14.597 1.25,5.903 1.8828,12.067 1.8828,18.469 0,6.93 -0.5508,13.266 -1.6172,19 -0.8164,4.496 -1.832,8.078 -3.0469,10.797 -1.2343,2.699 -2.8515,5.301 -4.8671,7.801 -2.0157,2.515 -4.6836,4.898 -8,7.18" /><path
         id="path88"
         style="fill:#231f20;fill-opacity:1;fill-rule:nonzero;stroke:none"
         d="m 839.621,937.492 -4.633,-12.75 h -39.066 v 1.797 c 11.484,10.484 19.582,19.051 24.266,25.688 4.683,6.648 7.031,12.714 7.031,18.214 0,4.2 -1.281,7.649 -3.867,10.348 -2.563,2.703 -5.629,4.051 -9.215,4.051 -3.266,0 -6.18,-0.949 -8.766,-2.848 -2.582,-1.902 -4.5,-4.699 -5.73,-8.367 h -1.821 c 0.817,6.016 2.903,10.633 6.282,13.863 3.371,3.219 7.57,4.836 12.617,4.836 5.371,0 9.851,-1.734 13.453,-5.183 3.598,-3.453 5.398,-7.516 5.398,-12.2 0,-3.351 -0.781,-6.718 -2.351,-10.07 -2.399,-5.266 -6.313,-10.848 -11.715,-16.746 -8.102,-8.852 -13.164,-14.184 -15.184,-16.016 h 17.285 c 3.516,0 5.981,0.133 7.399,0.399 1.418,0.25 2.703,0.781 3.832,1.582 1.133,0.801 2.133,1.933 2.984,3.402 h 1.801" /><path
         id="path90"
         style="fill:#231f20;fill-opacity:1;fill-rule:nonzero;stroke:none"
         d="m 846.023,992.121 v 2.055 c 4.95,-2.438 9.063,-5.321 12.348,-8.653 4.649,-4.75 8.25,-10.316 10.785,-16.714 2.547,-6.403 3.813,-13.071 3.813,-20.004 0,-10.082 -2.481,-19.282 -7.449,-27.598 -4.965,-8.316 -11.465,-14.266 -19.497,-17.852 v 1.801 c 3.997,2.25 7.297,5.285 9.879,9.117 2.586,3.817 4.52,8.684 5.77,14.602 1.25,5.898 1.883,12.066 1.883,18.465 0,6.933 -0.551,13.265 -1.617,19 -0.817,4.5 -1.833,8.082 -3.051,10.801 -1.231,2.699 -2.852,5.297 -4.867,7.797 -2.016,2.519 -4.68,4.902 -7.997,7.183" /><path
         id="path92"
         style="fill:#231f20;fill-opacity:1;fill-rule:nonzero;stroke:none"
         d="m 1586.88,966.215 c 1.88,4.449 4.26,7.898 7.15,10.312 2.88,2.438 6.47,3.653 10.76,3.653 5.3,0 9.37,-1.731 12.21,-5.184 2.14,-2.566 3.23,-5.316 3.23,-8.25 0,-4.816 -3.04,-9.801 -9.09,-14.934 4.07,-1.601 7.14,-3.882 9.22,-6.851 2.09,-2.945 3.14,-6.43 3.14,-10.445 0,-5.719 -1.82,-10.684 -5.47,-14.887 -4.75,-5.465 -11.64,-8.199 -20.65,-8.199 -4.47,0 -7.5,0.55 -9.12,1.652 -1.6,1.113 -2.42,2.297 -2.42,3.566 0,0.95 0.39,1.782 1.15,2.5 0.77,0.715 1.69,1.067 2.77,1.067 0.8,0 1.63,-0.133 2.49,-0.383 0.55,-0.168 1.8,-0.77 3.76,-1.785 1.95,-1.035 3.3,-1.633 4.05,-1.832 1.2,-0.367 2.48,-0.535 3.85,-0.535 3.32,0 6.21,1.281 8.67,3.851 2.46,2.567 3.68,5.614 3.68,9.133 0,2.566 -0.57,5.082 -1.7,7.516 -0.85,1.816 -1.78,3.203 -2.78,4.152 -1.4,1.297 -3.32,2.48 -5.77,3.531 -2.43,1.067 -4.93,1.602 -7.47,1.602 h -1.56 v 1.465 c 2.56,0.316 5.15,1.25 7.73,2.785 2.6,1.515 4.49,3.367 5.65,5.515 1.17,2.153 1.75,4.5 1.75,7.067 0,3.367 -1.05,6.066 -3.15,8.133 -2.1,2.066 -4.7,3.101 -7.84,3.101 -5.04,0 -9.24,-2.699 -12.64,-8.101 l -1.6,0.785" /><path
         id="path94"
         style="fill:#231f20;fill-opacity:1;fill-rule:nonzero;stroke:none"
         d="m 1634.04,979.977 v 2.054 c 4.95,-2.437 9.07,-5.316 12.35,-8.652 4.65,-4.75 8.25,-10.317 10.79,-16.715 2.55,-6.402 3.81,-13.066 3.81,-20 0,-10.082 -2.48,-19.285 -7.45,-27.598 -4.96,-8.316 -11.46,-14.269 -19.5,-17.855 v 1.801 c 4,2.25 7.3,5.285 9.89,9.121 2.58,3.812 4.52,8.679 5.77,14.597 1.25,5.903 1.88,12.067 1.88,18.469 0,6.93 -0.55,13.266 -1.62,19 -0.82,4.496 -1.84,8.078 -3.05,10.797 -1.23,2.699 -2.85,5.301 -4.87,7.801 -2.01,2.515 -4.68,4.898 -8,7.18" /><path
         id="path96"
         style="fill:#231f20;fill-opacity:1;fill-rule:nonzero;stroke:none"
         d="m 2413.31,937.016 v -6.934 h -8.88 v -17.484 h -8.07 v 17.484 h -28.01 v 6.25 l 30.72,43.848 h 5.36 v -43.164 z m -16.95,0 v 32.863 l -23.23,-32.863 h 23.23" /><path
         id="path98"
         style="fill:#231f20;fill-opacity:1;fill-rule:nonzero;stroke:none"
         d="m 2419.03,979.977 v 2.054 c 4.95,-2.437 9.07,-5.316 12.35,-8.652 4.65,-4.75 8.25,-10.317 10.78,-16.715 2.55,-6.402 3.82,-13.066 3.82,-20 0,-10.082 -2.48,-19.285 -7.45,-27.598 -4.96,-8.316 -11.46,-14.269 -19.5,-17.855 v 1.801 c 4,2.25 7.3,5.285 9.88,9.121 2.59,3.812 4.52,8.679 5.77,14.597 1.25,5.903 1.88,12.067 1.88,18.469 0,6.93 -0.55,13.266 -1.61,19 -0.82,4.496 -1.84,8.078 -3.05,10.797 -1.24,2.699 -2.85,5.301 -4.87,7.801 -2.01,2.515 -4.68,4.898 -8,7.18" /><path
         id="path100"
         style="fill:none;stroke:#231f20;stroke-width:7.5005002;stroke-linecap:butt;stroke-linejoin:miter;stroke-miterlimit:2.61310005;stroke-dasharray:none;stroke-opacity:1"
         d="M 798.148,471.047 H 1393.5" /><path
         id="path102"
         style="fill:#231f20;fill-opacity:1;fill-rule:evenodd;stroke:none"
         d="m 1389.34,497.395 47.9,-26.348 -47.9,-26.348 v 52.696" /><path
         id="path104"
         style="fill:none;stroke:#231f20;stroke-width:7.5005002;stroke-linecap:butt;stroke-linejoin:miter;stroke-miterlimit:2.61310005;stroke-dasharray:none;stroke-opacity:1"
         d="m 1592.9,476.77 h 595.35" /><path
         id="path106"
         style="fill:#231f20;fill-opacity:1;fill-rule:evenodd;stroke:none"
         d="m 2184.09,503.117 47.9,-26.347 -47.9,-26.348 v 52.695" /><path
         id="path108"
         style="fill:none;stroke:#231f20;stroke-width:7.5005002;stroke-linecap:butt;stroke-linejoin:miter;stroke-miterlimit:2.61310005;stroke-dasharray:none;stroke-opacity:1"
         d="M 2382.25,470.621 H 2977.6" /><path
         id="path110"
         style="fill:#231f20;fill-opacity:1;fill-rule:evenodd;stroke:none"
         d="m 2973.45,496.969 47.9,-26.348 -47.9,-26.348 v 52.696" /><path
         id="path112"
         style="fill:#231f20;fill-opacity:1;fill-rule:nonzero;stroke:none"
         d="m 1386.59,429.523 c 1.6,-1.683 2.8,-3.386 3.62,-5.066 0.59,-1.187 1.55,-4.254 2.88,-9.234 l 4.3,6.449 c 1.14,1.547 2.52,3.051 4.15,4.465 1.62,1.418 3.05,2.383 4.29,2.898 0.78,0.336 1.65,0.488 2.6,0.488 1.4,0 2.5,-0.367 3.33,-1.117 0.83,-0.754 1.25,-1.668 1.25,-2.734 0,-1.234 -0.25,-2.082 -0.73,-2.535 -0.92,-0.817 -1.96,-1.231 -3.12,-1.231 -0.68,0 -1.42,0.149 -2.2,0.449 -1.53,0.516 -2.57,0.782 -3.08,0.782 -0.79,0 -1.7,-0.465 -2.79,-1.364 -2.01,-1.703 -4.41,-4.968 -7.21,-9.816 l 4,-16.801 c 0.62,-2.566 1.13,-4.117 1.57,-4.617 0.41,-0.5 0.83,-0.75 1.26,-0.75 0.68,0 1.49,0.367 2.38,1.117 1.8,1.5 3.32,3.449 4.61,5.864 l 1.69,-0.879 c -2.05,-3.852 -4.64,-7.036 -7.81,-9.567 -1.78,-1.437 -3.3,-2.152 -4.54,-2.152 -1.81,0 -3.26,1.016 -4.34,3.066 -0.69,1.266 -2.11,6.75 -4.26,16.418 -5.06,-8.832 -9.13,-14.504 -12.19,-17.051 -1.99,-1.617 -3.91,-2.433 -5.77,-2.433 -1.3,0 -2.49,0.465 -3.57,1.418 -0.77,0.715 -1.17,1.664 -1.17,2.883 0,1.066 0.37,1.965 1.09,2.683 0.7,0.715 1.58,1.067 2.63,1.067 1.03,0 2.15,-0.516 3.32,-1.567 0.84,-0.75 1.5,-1.117 1.95,-1.117 0.4,0 0.9,0.266 1.52,0.781 1.53,1.235 3.61,3.903 6.24,8 2.63,4.102 4.37,7.067 5.19,8.903 -2.04,7.898 -3.12,12.082 -3.29,12.535 -0.75,2.113 -1.71,3.613 -2.93,4.496 -1.2,0.887 -2.97,1.32 -5.32,1.32 -0.75,0 -1.61,-0.035 -2.58,-0.101 v 1.765 l 13.03,2.285" /><path
         id="path114"
         style="fill:#231f20;fill-opacity:1;fill-rule:nonzero;stroke:none"
         d="m 1013.58,432.746 16.12,7.863 h 1.62 v -55.914 c 0,-3.703 0.15,-6.019 0.45,-6.933 0.32,-0.903 0.96,-1.602 1.93,-2.102 0.98,-0.484 2.97,-0.765 5.97,-0.832 v -1.801 h -24.92 v 1.801 c 3.13,0.067 5.15,0.336 6.07,0.817 0.9,0.468 1.53,1.097 1.9,1.898 0.35,0.801 0.53,3.184 0.53,7.152 v 35.75 c 0,4.817 -0.16,7.899 -0.48,9.266 -0.23,1.051 -0.65,1.816 -1.25,2.301 -0.6,0.484 -1.32,0.734 -2.17,0.734 -1.2,0 -2.88,-0.504 -5.03,-1.519 l -0.74,1.519" /><path
         id="path116"
         style="fill:none;stroke:#231f20;stroke-width:5.00029993;stroke-linecap:butt;stroke-linejoin:miter;stroke-miterlimit:2.61310005;stroke-dasharray:none;stroke-opacity:1"
         d="m 956.375,411.363 h 51.565" /></g></g></svg>