<?xml version="1.0" encoding="UTF-8" standalone="no"?>
<svg
   xmlns:dc="http://purl.org/dc/elements/1.1/"
   xmlns:cc="http://creativecommons.org/ns#"
   xmlns:rdf="http://www.w3.org/1999/02/22-rdf-syntax-ns#"
   xmlns:svg="http://www.w3.org/2000/svg"
   xmlns="http://www.w3.org/2000/svg"
   viewBox="0 0 172 168"
   height="168"
   width="172"
   xml:space="preserve"
   id="svg2"
   version="1.1"><metadata
     id="metadata8"><rdf:RDF><cc:Work
         rdf:about=""><dc:format>image/svg+xml</dc:format><dc:type
           rdf:resource="http://purl.org/dc/dcmitype/StillImage" /></cc:Work></rdf:RDF></metadata><defs
     id="defs6" /><g
     transform="matrix(1.3333333,0,0,-1.3333333,0,168)"
     id="g10"><g
       transform="scale(0.1)"
       id="g12"><path
         id="path14"
         style="fill:#231f20;fill-opacity:1;fill-rule:nonzero;stroke:none"
         d="m 367.891,226.727 c 0,7.546 1.136,14.046 3.418,19.5 2.285,5.449 5.3,9.515 9.082,12.183 2.933,2.117 5.953,3.184 9.082,3.184 5.066,0 9.636,-2.602 13.668,-7.77 5.05,-6.418 7.566,-15.097 7.566,-26.082 0,-7.683 -1.098,-14.199 -3.316,-19.566 -2.215,-5.383 -5.032,-9.281 -8.465,-11.699 -3.434,-2.434 -6.75,-3.637 -9.949,-3.637 -6.301,0 -11.571,3.722 -15.766,11.187 -3.555,6.282 -5.32,13.848 -5.32,22.7 z m 9.566,-1.215 c 0,-9.121 1.117,-16.571 3.367,-22.317 1.852,-4.851 4.633,-7.285 8.301,-7.285 1.766,0 3.582,0.801 5.465,2.367 1.898,1.582 3.336,4.235 4.301,7.934 1.5,5.598 2.25,13.496 2.25,23.684 0,7.546 -0.786,13.847 -2.348,18.894 -1.168,3.754 -2.688,6.402 -4.535,7.969 -1.332,1.066 -2.949,1.601 -4.836,1.601 -2.215,0 -4.18,-0.984 -5.914,-2.964 -2.332,-2.704 -3.934,-6.954 -4.781,-12.75 -0.852,-5.801 -1.27,-11.5 -1.27,-17.133" /><path
         id="path16"
         style="fill:none;stroke:#231f20;stroke-width:7.5005002;stroke-linecap:butt;stroke-linejoin:miter;stroke-miterlimit:2.61310005;stroke-dasharray:none;stroke-opacity:1"
         d="M 4.91016,277.859 H 1245.35" /><path
         id="path18"
         style="fill:#231f20;fill-opacity:1;fill-rule:evenodd;stroke:none"
         d="m 1241.2,304.207 47.9,-26.348 -47.9,-26.347 v 52.695" /><path
         id="path20"
         style="fill:none;stroke:#231f20;stroke-width:7.5005002;stroke-linecap:butt;stroke-linejoin:miter;stroke-miterlimit:2.61310005;stroke-dasharray:none;stroke-opacity:1"
         d="M 425.949,0.207031 V 1207.38" /><path
         id="path22"
         style="fill:#231f20;fill-opacity:1;fill-rule:evenodd;stroke:none"
         d="m 399.602,1203.23 26.347,47.9 26.348,-47.9 h -52.695" /><path
         id="path24"
         style="fill:#231f20;fill-opacity:1;fill-rule:nonzero;stroke:none"
         d="m 379.629,482.078 16.117,7.863 h 1.617 v -55.914 c 0,-3.703 0.149,-6.019 0.449,-6.933 0.321,-0.903 0.969,-1.602 1.934,-2.102 0.984,-0.484 2.969,-0.765 5.969,-0.832 v -1.801 h -24.918 v 1.801 c 3.133,0.067 5.152,0.336 6.066,0.817 0.903,0.468 1.535,1.101 1.899,1.898 0.351,0.805 0.535,3.184 0.535,7.152 v 35.75 c 0,4.817 -0.164,7.899 -0.485,9.266 -0.23,1.051 -0.648,1.816 -1.25,2.301 -0.601,0.484 -1.312,0.734 -2.164,0.734 -1.203,0 -2.882,-0.504 -5.035,-1.519 l -0.734,1.519" /><path
         id="path26"
         style="fill:none;stroke:#231f20;stroke-width:7.5005002;stroke-linecap:butt;stroke-linejoin:miter;stroke-miterlimit:2.61310005;stroke-dasharray:none;stroke-opacity:1"
         d="M 153.203,89.3438 713.602,1220.77" /><path
         id="path28"
         style="fill:#231f20;fill-opacity:1;fill-rule:nonzero;stroke:none"
         d="m 353.289,1231.27 c 1.098,-1.88 1.863,-3.65 2.297,-5.28 0.418,-1.65 0.832,-4.88 1.266,-9.7 L 359,1192.27 c 1.953,2.34 4.785,6.05 8.504,11.14 1.781,2.46 4,5.83 6.633,10.1 1.601,2.6 2.566,4.43 2.933,5.46 0.184,0.52 0.282,1.07 0.282,1.62 0,0.35 -0.098,0.65 -0.332,0.88 -0.235,0.22 -0.817,0.49 -1.786,0.8 -0.964,0.3 -1.765,0.89 -2.398,1.7 -0.633,0.84 -0.949,1.79 -0.949,2.87 0,1.33 0.402,2.4 1.183,3.22 0.766,0.82 1.75,1.21 2.918,1.21 1.43,0 2.649,-0.58 3.664,-1.78 1.016,-1.19 1.516,-2.82 1.516,-4.9 0,-2.57 -0.883,-5.52 -2.633,-8.82 -1.765,-3.3 -5.148,-8.36 -10.164,-15.2 -5,-6.85 -11.086,-14.3 -18.203,-22.36 -4.914,-5.57 -8.566,-9.09 -10.949,-10.54 -2.367,-1.43 -4.399,-2.16 -6.102,-2.16 -1.012,0 -1.898,0.38 -2.664,1.15 -0.765,0.77 -1.133,1.65 -1.133,2.66 0,1.27 0.516,2.42 1.582,3.47 1.051,1.03 2.2,1.55 3.438,1.55 0.648,0 1.195,-0.13 1.613,-0.43 0.266,-0.17 0.551,-0.64 0.852,-1.4 0.312,-0.75 0.597,-1.27 0.863,-1.54 0.152,-0.16 0.352,-0.23 0.586,-0.23 0.184,0 0.531,0.15 1.016,0.49 1.8,1.09 3.882,2.86 6.25,5.26 3.132,3.2 5.433,5.8 6.933,7.82 l -2.734,30.95 c -0.449,5.12 -1.133,8.23 -2.051,9.33 -0.914,1.1 -2.43,1.67 -4.582,1.67 -0.684,0 -1.918,-0.1 -3.664,-0.3 l -0.434,1.79 14.301,3.52" /><path
         id="path30"
         style="fill:#231f20;fill-opacity:1;fill-rule:nonzero;stroke:none"
         d="m 597.977,232.621 16.117,7.863 h 1.617 V 184.57 c 0,-3.703 0.148,-6.019 0.449,-6.933 0.317,-0.903 0.969,-1.602 1.934,-2.102 0.984,-0.484 2.968,-0.765 5.968,-0.832 v -1.801 h -24.917 v 1.801 c 3.132,0.067 5.152,0.336 6.066,0.817 0.902,0.468 1.535,1.097 1.898,1.898 0.352,0.801 0.536,3.184 0.536,7.152 v 35.75 c 0,4.817 -0.168,7.899 -0.485,9.266 -0.23,1.051 -0.648,1.816 -1.25,2.301 -0.601,0.484 -1.316,0.734 -2.164,0.734 -1.203,0 -2.883,-0.504 -5.035,-1.519 l -0.734,1.519" /><path
         id="path32"
         style="fill:#231f20;fill-opacity:1;fill-rule:nonzero;stroke:none"
         d="m 1244.18,205.137 c 1.59,-1.684 2.79,-3.383 3.61,-5.067 0.59,-1.183 1.55,-4.25 2.88,-9.234 l 4.3,6.453 c 1.14,1.547 2.52,3.051 4.15,4.465 1.62,1.418 3.05,2.383 4.29,2.898 0.78,0.336 1.64,0.485 2.6,0.485 1.4,0 2.5,-0.364 3.33,-1.117 0.83,-0.75 1.25,-1.665 1.25,-2.731 0,-1.234 -0.25,-2.086 -0.73,-2.535 -0.92,-0.816 -1.95,-1.234 -3.12,-1.234 -0.68,0 -1.42,0.152 -2.2,0.453 -1.53,0.515 -2.57,0.781 -3.08,0.781 -0.78,0 -1.71,-0.469 -2.79,-1.367 -2.01,-1.699 -4.41,-4.965 -7.21,-9.817 l 4,-16.8 c 0.61,-2.563 1.13,-4.114 1.56,-4.618 0.42,-0.496 0.84,-0.746 1.27,-0.746 0.68,0 1.48,0.364 2.39,1.117 1.79,1.497 3.31,3.45 4.59,5.864 l 1.7,-0.883 c -2.05,-3.848 -4.65,-7.031 -7.81,-9.566 -1.78,-1.434 -3.3,-2.153 -4.54,-2.153 -1.81,0 -3.26,1.02 -4.35,3.07 -0.68,1.266 -2.1,6.75 -4.25,16.418 -5.06,-8.835 -9.13,-14.503 -12.2,-17.05 -1.98,-1.618 -3.89,-2.438 -5.77,-2.438 -1.29,0 -2.48,0.469 -3.56,1.418 -0.76,0.719 -1.17,1.668 -1.17,2.883 0,1.07 0.37,1.969 1.09,2.684 0.7,0.718 1.58,1.066 2.63,1.066 1.03,0 2.15,-0.516 3.32,-1.563 0.85,-0.753 1.5,-1.117 1.95,-1.117 0.4,0 0.9,0.266 1.51,0.782 1.54,1.234 3.62,3.902 6.25,8 2.64,4.101 4.37,7.066 5.19,8.898 -2.04,7.902 -3.12,12.086 -3.29,12.535 -0.75,2.117 -1.71,3.617 -2.93,4.5 -1.2,0.883 -2.97,1.317 -5.32,1.317 -0.75,0 -1.61,-0.032 -2.58,-0.102 v 1.766 l 13.04,2.285" /><path
         id="path34"
         style="fill:none;stroke:#231f20;stroke-width:5.00029993;stroke-linecap:butt;stroke-linejoin:miter;stroke-miterlimit:2.61310005;stroke-dasharray:none;stroke-opacity:1"
         d="m 607.613,257.762 v 38.586" /><path
         id="path36"
         style="fill:none;stroke:#231f20;stroke-width:5.00029993;stroke-linecap:butt;stroke-linejoin:miter;stroke-miterlimit:2.61310005;stroke-dasharray:none;stroke-opacity:1"
         d="m 409.316,459.156 h 39.063" /><path
         id="path38"
         style="fill:none;stroke:#231f20;stroke-width:5.00029993;stroke-linecap:butt;stroke-linejoin:miter;stroke-miterlimit:2.61310005;stroke-dasharray:none;stroke-opacity:1"
         d="m 408.477,639.055 h 39.058" /></g></g></svg>