<?xml version="1.0" encoding="UTF-8" standalone="no"?>
<svg
   xmlns:dc="http://purl.org/dc/elements/1.1/"
   xmlns:cc="http://creativecommons.org/ns#"
   xmlns:rdf="http://www.w3.org/1999/02/22-rdf-syntax-ns#"
   xmlns:svg="http://www.w3.org/2000/svg"
   xmlns="http://www.w3.org/2000/svg"
   viewBox="0 0 298.66666 114.66667"
   height="114.66667"
   width="298.66666"
   xml:space="preserve"
   id="svg2"
   version="1.1"><metadata
     id="metadata8"><rdf:RDF><cc:Work
         rdf:about=""><dc:format>image/svg+xml</dc:format><dc:type
           rdf:resource="http://purl.org/dc/dcmitype/StillImage" /></cc:Work></rdf:RDF></metadata><defs
     id="defs6" /><g
     transform="matrix(1.3333333,0,0,-1.3333333,0,114.66667)"
     id="g10"><g
       transform="scale(0.1)"
       id="g12"><path
         id="path14"
         style="fill:#ffffff;fill-opacity:1;fill-rule:evenodd;stroke:none"
         d="m 1529.51,6.26953 h 700.855 v 725.047 H 1529.51 Z" /><path
         id="path16"
         style="fill:none;stroke:#0b0c0b;stroke-width:2.16000009;stroke-linecap:butt;stroke-linejoin:miter;stroke-miterlimit:2.61310005;stroke-dasharray:none;stroke-opacity:1"
         d="m 1529.51,6.26953 h 700.855 v 725.047 H 1529.51 Z" /><path
         id="path18"
         style="fill:none;stroke:#101211;stroke-width:2.16000009;stroke-linecap:butt;stroke-linejoin:miter;stroke-miterlimit:2.61310005;stroke-dasharray:none;stroke-opacity:1"
         d="M 1617.12,6.26953 V 731.316" /><path
         id="path20"
         style="fill:none;stroke:#101211;stroke-width:2.16000009;stroke-linecap:butt;stroke-linejoin:miter;stroke-miterlimit:2.61310005;stroke-dasharray:none;stroke-opacity:1"
         d="M 1704.73,6.26953 V 731.316" /><path
         id="path22"
         style="fill:none;stroke:#101211;stroke-width:2.16000009;stroke-linecap:butt;stroke-linejoin:miter;stroke-miterlimit:2.61310005;stroke-dasharray:none;stroke-opacity:1"
         d="M 1792.33,6.26953 V 731.316" /><path
         id="path24"
         style="fill:none;stroke:#101211;stroke-width:2.16000009;stroke-linecap:butt;stroke-linejoin:miter;stroke-miterlimit:2.61310005;stroke-dasharray:none;stroke-opacity:1"
         d="M 1879.94,6.26953 V 731.316" /><path
         id="path26"
         style="fill:none;stroke:#101211;stroke-width:2.16000009;stroke-linecap:butt;stroke-linejoin:miter;stroke-miterlimit:2.61310005;stroke-dasharray:none;stroke-opacity:1"
         d="M 1967.55,6.26953 V 731.316" /><path
         id="path28"
         style="fill:none;stroke:#101211;stroke-width:2.16000009;stroke-linecap:butt;stroke-linejoin:miter;stroke-miterlimit:2.61310005;stroke-dasharray:none;stroke-opacity:1"
         d="M 2055.15,6.26953 V 731.316" /><path
         id="path30"
         style="fill:none;stroke:#101211;stroke-width:2.16000009;stroke-linecap:butt;stroke-linejoin:miter;stroke-miterlimit:2.61310005;stroke-dasharray:none;stroke-opacity:1"
         d="M 2142.76,6.26953 V 731.316" /><path
         id="path32"
         style="fill:none;stroke:#101211;stroke-width:2.16000009;stroke-linecap:butt;stroke-linejoin:miter;stroke-miterlimit:2.61310005;stroke-dasharray:none;stroke-opacity:1"
         d="m 1529.51,96.9023 h 700.86" /><path
         id="path34"
         style="fill:none;stroke:#101211;stroke-width:2.16000009;stroke-linecap:butt;stroke-linejoin:miter;stroke-miterlimit:2.61310005;stroke-dasharray:none;stroke-opacity:1"
         d="m 1529.51,187.531 h 700.86" /><path
         id="path36"
         style="fill:none;stroke:#101211;stroke-width:2.16000009;stroke-linecap:butt;stroke-linejoin:miter;stroke-miterlimit:2.61310005;stroke-dasharray:none;stroke-opacity:1"
         d="m 1529.51,278.16 h 700.86" /><path
         id="path38"
         style="fill:none;stroke:#101211;stroke-width:2.16000009;stroke-linecap:butt;stroke-linejoin:miter;stroke-miterlimit:2.61310005;stroke-dasharray:none;stroke-opacity:1"
         d="m 1529.51,368.793 h 700.86" /><path
         id="path40"
         style="fill:none;stroke:#101211;stroke-width:2.16000009;stroke-linecap:butt;stroke-linejoin:miter;stroke-miterlimit:2.61310005;stroke-dasharray:none;stroke-opacity:1"
         d="m 1529.51,459.422 h 700.86" /><path
         id="path42"
         style="fill:none;stroke:#101211;stroke-width:2.16000009;stroke-linecap:butt;stroke-linejoin:miter;stroke-miterlimit:2.61310005;stroke-dasharray:none;stroke-opacity:1"
         d="m 1529.51,550.055 h 700.86" /><path
         id="path44"
         style="fill:none;stroke:#101211;stroke-width:2.16000009;stroke-linecap:butt;stroke-linejoin:miter;stroke-miterlimit:2.61310005;stroke-dasharray:none;stroke-opacity:1"
         d="m 1529.51,640.684 h 700.86" /><path
         id="path46"
         style="fill:none;stroke:#231f20;stroke-width:7.5005002;stroke-linecap:butt;stroke-linejoin:miter;stroke-miterlimit:2.61310005;stroke-dasharray:none;stroke-opacity:1"
         d="m 1529.51,368.793 h 657.11" /><path
         id="path48"
         style="fill:#231f20;fill-opacity:1;fill-rule:evenodd;stroke:none"
         d="m 2182.47,395.141 47.9,-26.348 -47.9,-26.348 v 52.696" /><path
         id="path50"
         style="fill:none;stroke:#231f20;stroke-width:7.5005002;stroke-linecap:butt;stroke-linejoin:miter;stroke-miterlimit:2.61310005;stroke-dasharray:none;stroke-opacity:1"
         d="M 1879.43,6.26953 V 687.57" /><path
         id="path52"
         style="fill:#231f20;fill-opacity:1;fill-rule:evenodd;stroke:none"
         d="m 1853.09,683.418 26.34,47.898 26.35,-47.898 h -52.69" /><path
         id="path54"
         style="fill:#ffffff;fill-opacity:1;fill-rule:evenodd;stroke:none"
         d="m 2.42578,6.26953 h 700.859 v 725.047 H 2.42578 Z" /><path
         id="path56"
         style="fill:none;stroke:#0b0c0b;stroke-width:2.16000009;stroke-linecap:butt;stroke-linejoin:miter;stroke-miterlimit:2.61310005;stroke-dasharray:none;stroke-opacity:1"
         d="m 2.42578,6.26953 h 700.859 v 725.047 H 2.42578 Z" /><path
         id="path58"
         style="fill:none;stroke:#101211;stroke-width:2.16000009;stroke-linecap:butt;stroke-linejoin:miter;stroke-miterlimit:2.61310005;stroke-dasharray:none;stroke-opacity:1"
         d="M 90.0352,6.26953 V 731.316" /><path
         id="path60"
         style="fill:none;stroke:#101211;stroke-width:2.16000009;stroke-linecap:butt;stroke-linejoin:miter;stroke-miterlimit:2.61310005;stroke-dasharray:none;stroke-opacity:1"
         d="M 177.641,6.26953 V 731.316" /><path
         id="path62"
         style="fill:none;stroke:#101211;stroke-width:2.16000009;stroke-linecap:butt;stroke-linejoin:miter;stroke-miterlimit:2.61310005;stroke-dasharray:none;stroke-opacity:1"
         d="M 265.25,6.26953 V 731.316" /><path
         id="path64"
         style="fill:none;stroke:#101211;stroke-width:2.16000009;stroke-linecap:butt;stroke-linejoin:miter;stroke-miterlimit:2.61310005;stroke-dasharray:none;stroke-opacity:1"
         d="M 352.855,6.26953 V 731.316" /><path
         id="path66"
         style="fill:none;stroke:#101211;stroke-width:2.16000009;stroke-linecap:butt;stroke-linejoin:miter;stroke-miterlimit:2.61310005;stroke-dasharray:none;stroke-opacity:1"
         d="M 440.461,6.26953 V 731.316" /><path
         id="path68"
         style="fill:none;stroke:#101211;stroke-width:2.16000009;stroke-linecap:butt;stroke-linejoin:miter;stroke-miterlimit:2.61310005;stroke-dasharray:none;stroke-opacity:1"
         d="M 528.07,6.26953 V 731.316" /><path
         id="path70"
         style="fill:none;stroke:#0b0c0b;stroke-width:7.5005002;stroke-linecap:butt;stroke-linejoin:miter;stroke-miterlimit:2.61310005;stroke-dasharray:none;stroke-opacity:1"
         d="m 180.391,725.309 3.5,-3.625 3.507,-3.629 3.504,-3.625 3.504,-3.625 3.504,-3.625 3.504,-3.625 3.504,-3.625 3.504,-3.625 3.504,-3.625 3.504,-3.625 3.508,-3.625 3.503,-3.625 3.504,-3.625 3.504,-3.625 3.504,-3.629 3.504,-3.625 3.504,-3.621 3.504,-3.629 3.504,-3.621 3.508,-3.625 3.503,-3.629 3.504,-3.625 3.504,-3.625 3.504,-3.625 3.504,-3.625 3.504,-3.625 3.504,-3.625 3.504,-3.629 3.504,-3.625 3.504,-3.621 3.504,-3.625 3.507,-3.625 3.504,-3.625 3.504,-3.629 3.504,-3.625 3.504,-3.625 3.504,-3.625 3.504,-3.625 3.504,-3.625 3.504,-3.625 3.507,-3.629 3.504,-3.621 3.504,-3.625 3.504,-3.625 3.5,-3.625 3.508,-3.625 3.504,-3.629 3.504,-3.625 3.504,-3.625 3.507,-3.625 3.5,-3.621 3.504,-3.629 3.508,-3.625 3.504,-3.625 3.504,-3.625 3.504,-3.625 3.504,-3.625 3.504,-3.625 3.504,-3.625 3.504,-3.629 3.503,-3.625 3.508,-3.621 3.504,-3.629 3.504,-3.621 3.504,-3.629 3.504,-3.625 3.504,-3.625 3.504,-3.625 3.504,-3.625 3.504,-3.625 3.507,-3.625 3.504,-3.625 3.504,-3.625 3.504,-3.625 3.504,-3.625 3.504,-3.625 3.504,-3.625 3.504,-3.625 3.504,-3.629 3.503,-3.625 3.504,-3.625 3.504,-3.621 3.508,-3.629 3.504,-3.625 3.504,-3.625 3.504,-3.625 3.504,-3.625 3.504,-3.625 3.504,-3.625 3.503,-3.625 3.504,-3.625 3.508,-3.629 3.504,-3.621 3.504,-3.625 3.504,-3.625 3.5,-3.625 3.508,-3.629 3.504,-3.625 3.503,-3.625 3.504,-3.625 3.508,-3.625 3.5,-3.621 3.504,-3.629 3.508,-3.625 3.504,-3.625 3.504,-3.625 3.504,-3.625 3.504,-3.625 3.503,-3.625 3.504,-3.629 3.504,-3.625 3.504,-3.625 3.508,-3.625 3.504,-3.621 3.504,-3.625 3.504,-3.625 3.504,-3.629 3.504,-3.625 3.503,-3.625 3.504,-3.625 3.504,-3.625 3.508,-3.625 3.504,-3.629 3.504,-3.625 3.5,-3.621 3.504,-3.629 3.508,-3.621 3.504,-3.625 3.503,-3.625 3.504,-3.629 3.504,-3.625 3.504,-3.625 3.504,-3.625 3.508,-3.621 3.504,-3.629 3.504,-3.625 3.504,-3.625 3.503,-3.625 3.504,-3.625 3.504,-3.625 3.504,-3.625 3.504,-3.625 3.508,-3.628 3.504,-3.625 3.504,-3.622 3.504,-3.628 3.5,-3.622 3.507,-3.628 3.504,-3.625 3.504,-3.625 v 0" /><path
         id="path72"
         style="fill:none;stroke:#101211;stroke-width:2.16000009;stroke-linecap:butt;stroke-linejoin:miter;stroke-miterlimit:2.61310005;stroke-dasharray:none;stroke-opacity:1"
         d="M 615.676,6.26953 V 731.316" /><path
         id="path74"
         style="fill:none;stroke:#101211;stroke-width:2.16000009;stroke-linecap:butt;stroke-linejoin:miter;stroke-miterlimit:2.61310005;stroke-dasharray:none;stroke-opacity:1"
         d="M 2.42578,96.9023 H 703.285" /><path
         id="path76"
         style="fill:none;stroke:#101211;stroke-width:2.16000009;stroke-linecap:butt;stroke-linejoin:miter;stroke-miterlimit:2.61310005;stroke-dasharray:none;stroke-opacity:1"
         d="M 2.42578,187.531 H 703.285" /><path
         id="path78"
         style="fill:none;stroke:#101211;stroke-width:2.16000009;stroke-linecap:butt;stroke-linejoin:miter;stroke-miterlimit:2.61310005;stroke-dasharray:none;stroke-opacity:1"
         d="M 2.42578,278.16 H 703.285" /><path
         id="path80"
         style="fill:none;stroke:#101211;stroke-width:2.16000009;stroke-linecap:butt;stroke-linejoin:miter;stroke-miterlimit:2.61310005;stroke-dasharray:none;stroke-opacity:1"
         d="M 2.42578,368.793 H 703.285" /><path
         id="path82"
         style="fill:none;stroke:#101211;stroke-width:2.16000009;stroke-linecap:butt;stroke-linejoin:miter;stroke-miterlimit:2.61310005;stroke-dasharray:none;stroke-opacity:1"
         d="M 2.42578,459.422 H 703.285" /><path
         id="path84"
         style="fill:none;stroke:#101211;stroke-width:2.16000009;stroke-linecap:butt;stroke-linejoin:miter;stroke-miterlimit:2.61310005;stroke-dasharray:none;stroke-opacity:1"
         d="M 2.42578,550.055 H 703.285" /><path
         id="path86"
         style="fill:none;stroke:#101211;stroke-width:2.16000009;stroke-linecap:butt;stroke-linejoin:miter;stroke-miterlimit:2.61310005;stroke-dasharray:none;stroke-opacity:1"
         d="M 2.42578,640.684 H 703.285" /><path
         id="path88"
         style="fill:none;stroke:#231f20;stroke-width:7.5005002;stroke-linecap:butt;stroke-linejoin:miter;stroke-miterlimit:2.61310005;stroke-dasharray:none;stroke-opacity:1"
         d="M 2.42578,368.793 H 659.539" /><path
         id="path90"
         style="fill:#231f20;fill-opacity:1;fill-rule:evenodd;stroke:none"
         d="m 655.383,395.141 47.902,-26.348 -47.902,-26.348 v 52.696" /><path
         id="path92"
         style="fill:none;stroke:#231f20;stroke-width:7.5005002;stroke-linecap:butt;stroke-linejoin:miter;stroke-miterlimit:2.61310005;stroke-dasharray:none;stroke-opacity:1"
         d="M 352.918,5.84766 V 687.148" /><path
         id="path94"
         style="fill:#231f20;fill-opacity:1;fill-rule:evenodd;stroke:none"
         d="m 326.57,682.996 26.348,47.899 26.348,-47.899 H 326.57" /><path
         id="path96"
         style="fill:#231f20;fill-opacity:1;fill-rule:nonzero;stroke:none"
         d="m 442.371,312.027 16.117,7.864 h 1.614 v -55.914 c 0,-3.704 0.152,-6.02 0.453,-6.934 0.316,-0.902 0.965,-1.602 1.933,-2.102 0.981,-0.484 2.965,-0.765 5.965,-0.832 v -1.8 h -24.914 v 1.8 c 3.129,0.067 5.149,0.336 6.063,0.817 0.902,0.469 1.535,1.101 1.902,1.898 0.351,0.805 0.535,3.184 0.535,7.153 v 35.75 c 0,4.816 -0.168,7.898 -0.484,9.265 -0.235,1.051 -0.653,1.817 -1.25,2.301 -0.602,0.484 -1.317,0.734 -2.168,0.734 -1.199,0 -2.883,-0.504 -5.035,-1.519 l -0.731,1.519" /><path
         id="path98"
         style="fill:none;stroke:#231f20;stroke-width:7.5005002;stroke-linecap:butt;stroke-linejoin:miter;stroke-miterlimit:2.61310005;stroke-dasharray:none;stroke-opacity:1"
         d="m 440.859,397.621 v -57.09" /><path
         id="path100"
         style="fill:#ffffff;fill-opacity:1;fill-rule:evenodd;stroke:none"
         d="m 765.969,6.26953 h 700.855 v 725.047 H 765.969 Z" /><path
         id="path102"
         style="fill:none;stroke:#0b0c0b;stroke-width:2.16000009;stroke-linecap:butt;stroke-linejoin:miter;stroke-miterlimit:2.61310005;stroke-dasharray:none;stroke-opacity:1"
         d="m 765.969,6.26953 h 700.855 v 725.047 H 765.969 Z" /><path
         id="path104"
         style="fill:none;stroke:#101211;stroke-width:2.16000009;stroke-linecap:butt;stroke-linejoin:miter;stroke-miterlimit:2.61310005;stroke-dasharray:none;stroke-opacity:1"
         d="M 853.574,6.26953 V 731.316" /><path
         id="path106"
         style="fill:none;stroke:#101211;stroke-width:2.16000009;stroke-linecap:butt;stroke-linejoin:miter;stroke-miterlimit:2.61310005;stroke-dasharray:none;stroke-opacity:1"
         d="M 941.184,6.26953 V 731.316" /><path
         id="path108"
         style="fill:none;stroke:#101211;stroke-width:2.16000009;stroke-linecap:butt;stroke-linejoin:miter;stroke-miterlimit:2.61310005;stroke-dasharray:none;stroke-opacity:1"
         d="M 1028.79,6.26953 V 731.316" /><path
         id="path110"
         style="fill:none;stroke:#101211;stroke-width:2.16000009;stroke-linecap:butt;stroke-linejoin:miter;stroke-miterlimit:2.61310005;stroke-dasharray:none;stroke-opacity:1"
         d="M 1116.4,6.26953 V 731.316" /><path
         id="path112"
         style="fill:none;stroke:#101211;stroke-width:2.16000009;stroke-linecap:butt;stroke-linejoin:miter;stroke-miterlimit:2.61310005;stroke-dasharray:none;stroke-opacity:1"
         d="M 1204,6.26953 V 731.316" /><path
         id="path114"
         style="fill:none;stroke:#101211;stroke-width:2.16000009;stroke-linecap:butt;stroke-linejoin:miter;stroke-miterlimit:2.61310005;stroke-dasharray:none;stroke-opacity:1"
         d="M 1291.61,6.26953 V 731.316" /><path
         id="path116"
         style="fill:none;stroke:#101211;stroke-width:2.16000009;stroke-linecap:butt;stroke-linejoin:miter;stroke-miterlimit:2.61310005;stroke-dasharray:none;stroke-opacity:1"
         d="M 1379.22,6.26953 V 731.316" /><path
         id="path118"
         style="fill:none;stroke:#101211;stroke-width:2.16000009;stroke-linecap:butt;stroke-linejoin:miter;stroke-miterlimit:2.61310005;stroke-dasharray:none;stroke-opacity:1"
         d="M 765.969,96.9023 H 1466.82" /><path
         id="path120"
         style="fill:none;stroke:#101211;stroke-width:2.16000009;stroke-linecap:butt;stroke-linejoin:miter;stroke-miterlimit:2.61310005;stroke-dasharray:none;stroke-opacity:1"
         d="M 765.969,187.531 H 1466.82" /><path
         id="path122"
         style="fill:none;stroke:#101211;stroke-width:2.16000009;stroke-linecap:butt;stroke-linejoin:miter;stroke-miterlimit:2.61310005;stroke-dasharray:none;stroke-opacity:1"
         d="M 765.969,278.16 H 1466.82" /><path
         id="path124"
         style="fill:none;stroke:#101211;stroke-width:2.16000009;stroke-linecap:butt;stroke-linejoin:miter;stroke-miterlimit:2.61310005;stroke-dasharray:none;stroke-opacity:1"
         d="M 765.969,368.793 H 1466.82" /><path
         id="path126"
         style="fill:none;stroke:#0b0c0b;stroke-width:7.5005002;stroke-linecap:butt;stroke-linejoin:miter;stroke-miterlimit:2.61310005;stroke-dasharray:none;stroke-opacity:1"
         d="m 1030.51,8.22266 v 0 l 3.51,14.35544 3.5,14.0625 3.5,13.7774 3.51,13.4882 3.51,13.1954 3.5,12.9062 3.5,12.6172 3.51,12.324 3.5,12.035 3.5,11.746 3.51,11.458 3.5,11.164 3.51,10.875 3.5,10.585 3.5,10.297 3.51,10.004 3.51,9.715 3.5,9.426 3.51,9.141 3.5,8.843 3.5,8.555 3.51,8.266 3.5,7.972 3.5,7.688 3.51,7.394 3.5,7.106 3.51,6.816 3.5,6.527 3.51,6.235 3.5,5.945 3.5,5.656 3.51,5.364 3.5,5.074 3.51,4.789 3.5,4.492 3.51,4.207 3.5,3.914 3.51,3.625 3.5,3.336 3.5,3.047 3.51,2.754 3.51,2.465 3.5,2.176 3.5,1.886 3.5,1.594 3.51,1.305 3.5,1.015 3.51,0.723 3.51,0.438 3.5,0.144 3.5,-0.144 3.5,-0.438 3.51,-0.723 3.5,-1.015 3.51,-1.305 3.5,-1.594 3.51,-1.886 3.5,-2.176 3.51,-2.465 3.5,-2.754 3.5,-3.047 3.51,-3.336 3.5,-3.625 3.51,-3.914 3.5,-4.207 3.5,-4.492 3.51,-4.789 3.5,-5.074 3.51,-5.364 3.51,-5.656 3.5,-5.945 3.5,-6.235 3.5,-6.527 3.51,-6.816 3.5,-7.106 3.51,-7.394 3.5,-7.688 3.51,-7.972 3.5,-8.266 3.51,-8.555 3.5,-8.843 3.5,-9.141 3.51,-9.426 3.5,-9.715 3.51,-10.004 3.5,-10.297 3.51,-10.585 3.5,-10.875 3.5,-11.164 3.51,-11.458 3.5,-11.746 3.51,-12.035 3.5,-12.324 3.5,-12.6172 3.51,-12.9062 3.5,-13.1954 3.51,-13.4882 3.5,-13.7774 3.51,-14.0625 3.5,-14.35544 v 0" /><path
         id="path128"
         style="fill:none;stroke:#101211;stroke-width:2.16000009;stroke-linecap:butt;stroke-linejoin:miter;stroke-miterlimit:2.61310005;stroke-dasharray:none;stroke-opacity:1"
         d="M 765.969,459.422 H 1466.82" /><path
         id="path130"
         style="fill:none;stroke:#101211;stroke-width:2.16000009;stroke-linecap:butt;stroke-linejoin:miter;stroke-miterlimit:2.61310005;stroke-dasharray:none;stroke-opacity:1"
         d="M 765.969,550.055 H 1466.82" /><path
         id="path132"
         style="fill:none;stroke:#101211;stroke-width:2.16000009;stroke-linecap:butt;stroke-linejoin:miter;stroke-miterlimit:2.61310005;stroke-dasharray:none;stroke-opacity:1"
         d="M 765.969,640.684 H 1466.82" /><path
         id="path134"
         style="fill:none;stroke:#231f20;stroke-width:7.5005002;stroke-linecap:butt;stroke-linejoin:miter;stroke-miterlimit:2.61310005;stroke-dasharray:none;stroke-opacity:1"
         d="M 765.969,368.793 H 1423.08" /><path
         id="path136"
         style="fill:#231f20;fill-opacity:1;fill-rule:evenodd;stroke:none"
         d="m 1418.93,395.141 47.89,-26.348 -47.89,-26.348 v 52.696" /><path
         id="path138"
         style="fill:none;stroke:#231f20;stroke-width:7.5005002;stroke-linecap:butt;stroke-linejoin:miter;stroke-miterlimit:2.61310005;stroke-dasharray:none;stroke-opacity:1"
         d="M 1116.13,2.91797 V 684.219" /><path
         id="path140"
         style="fill:#231f20;fill-opacity:1;fill-rule:evenodd;stroke:none"
         d="m 1089.79,680.066 26.34,47.899 26.35,-47.899 h -52.69" /><path
         id="path142"
         style="fill:none;stroke:#0b0c0b;stroke-width:7.5005002;stroke-linecap:butt;stroke-linejoin:miter;stroke-miterlimit:2.61310005;stroke-dasharray:none;stroke-opacity:1"
         d="m 1879.7,461.047 1.75,12.82 1.75,5.309 1.75,4.074 1.75,3.43 1.75,3.027 1.76,2.738 1.75,2.516 1.75,2.34 1.75,2.199 1.75,2.078 1.75,1.981 1.76,1.89 1.75,1.813 1.75,1.746 1.76,1.683 1.75,1.625 1.75,1.579 1.75,1.531 1.75,1.492 1.75,1.449 1.76,1.418 1.75,1.383 1.75,1.348 1.76,1.32 1.75,1.301 1.75,1.265 1.75,1.246 1.75,1.223 1.75,1.199 1.76,1.18 1.75,1.16 1.75,1.141 1.76,1.125 1.75,1.105 1.75,1.098 1.75,1.074 1.75,1.059 1.75,1.05 1.76,1.032 1.75,1.015 1.75,1.012 1.76,0.988 1.74,0.989 1.76,0.968 1.75,0.961 1.75,0.953 1.75,0.938 1.76,0.93 1.75,0.922 1.75,0.91 1.75,0.902 1.75,0.891 1.75,0.886 1.76,0.875 1.75,0.871 1.75,0.86 1.76,0.851 1.75,0.844 1.75,0.836 1.75,0.832 1.75,0.824 1.75,0.817 1.76,0.812 1.75,0.805 1.75,0.797 1.76,0.793 1.75,0.785 1.75,0.781 1.75,0.774 1.75,0.769 1.75,0.762 1.76,0.758 1.75,0.754 1.75,0.75 1.76,0.742 1.75,0.734 1.75,0.735 1.75,0.726 1.75,0.727 1.75,0.715 1.76,0.714 1.75,0.711 1.75,0.703 1.76,0.704 1.74,0.699 1.76,0.691 1.75,0.688 1.75,0.687 1.75,0.68 1.76,0.676 1.75,0.675 1.75,0.668 1.75,0.668 1.75,0.664 1.76,0.657 1.75,0.66 1.75,0.648 1.75,0.653 1.75,0.644 1.76,0.641 1.75,0.64 1.75,0.637 1.75,0.633 1.76,0.629 1.75,0.629 1.75,0.621 1.75,0.621 1.76,0.621 1.75,0.613 1.75,0.614 1.75,0.609 1.75,0.605 1.75,0.606 1.76,0.601 1.75,0.598 1.75,0.598 1.76,0.594 1.75,0.593 1.75,0.586 1.75,0.586 1.75,0.582 1.75,0.582 1.76,0.578 1.75,0.578 1.75,0.579 1.75,0.566 1.75,0.57 1.76,0.571 1.75,0.566 1.75,0.559 1.75,0.566 1.76,0.559 1.75,0.554 1.75,0.555 1.75,0.555 1.75,0.547 1.76,0.55 1.75,0.547 1.75,0.543 1.75,0.543 1.76,0.543 1.75,0.535 1.75,0.539 1.75,0.535 1.75,0.532 1.76,0.531 1.75,0.531 1.75,0.528 1.75,0.527 1.75,0.519 1.76,0.528 1.75,0.519 1.75,0.52 1.75,0.515 1.76,0.516 1.75,0.512 1.75,0.515 1.75,0.508 1.76,0.512 1.75,0.508 1.75,0.504 1.75,0.504 1.75,0.504 1.75,0.5 1.76,0.5 1.75,0.5 1.75,0.496 1.75,0.492 1.75,0.496 1.75,0.492 1.76,0.492 1.75,0.489 1.75,0.488 1.76,0.484 1.75,0.488 1.75,0.481 1.75,0.484 1.75,0.481 1.76,0.48 1.75,0.477 1.75,0.48 1.75,0.473 1.76,0.473 1.75,0.472 1.75,0.477 1.75,0.469 1.75,0.472 1.76,0.461 1.75,0.469 1.75,0.469 1.75,0.461 1.76,0.464 1.75,0.465 1.75,0.457 1.75,0.461 1.75,0.457 1.76,0.457 1.75,0.457 1.75,0.457 1.75,0.453" /><path
         id="path144"
         style="fill:#231f20;fill-opacity:1;fill-rule:nonzero;stroke:none"
         d="m 1196.05,293.863 16.12,7.864 h 1.62 v -55.915 c 0,-3.703 0.15,-6.019 0.45,-6.933 0.32,-0.902 0.97,-1.602 1.93,-2.102 0.99,-0.484 2.97,-0.765 5.97,-0.832 v -1.8 h -24.92 v 1.8 c 3.14,0.067 5.16,0.336 6.07,0.817 0.9,0.468 1.53,1.097 1.9,1.898 0.35,0.801 0.54,3.184 0.54,7.152 v 35.75 c 0,4.817 -0.17,7.899 -0.49,9.266 -0.23,1.051 -0.65,1.817 -1.25,2.301 -0.6,0.484 -1.31,0.734 -2.17,0.734 -1.2,0 -2.88,-0.504 -5.03,-1.519 l -0.74,1.519" /><path
         id="path146"
         style="fill:none;stroke:#231f20;stroke-width:7.5005002;stroke-linecap:butt;stroke-linejoin:miter;stroke-miterlimit:2.61310005;stroke-dasharray:none;stroke-opacity:1"
         d="m 1202.87,397.621 v -57.09" /><path
         id="path148"
         style="fill:#231f20;fill-opacity:1;fill-rule:nonzero;stroke:none"
         d="m 1961.11,293.863 16.11,7.864 h 1.62 v -55.915 c 0,-3.703 0.15,-6.019 0.45,-6.933 0.32,-0.902 0.96,-1.602 1.93,-2.102 0.99,-0.484 2.97,-0.765 5.97,-0.832 v -1.8 h -24.92 v 1.8 c 3.14,0.067 5.15,0.336 6.07,0.817 0.9,0.468 1.53,1.097 1.9,1.898 0.35,0.801 0.53,3.184 0.53,7.152 v 35.75 c 0,4.817 -0.16,7.899 -0.48,9.266 -0.24,1.051 -0.65,1.817 -1.25,2.301 -0.6,0.484 -1.32,0.734 -2.17,0.734 -1.2,0 -2.88,-0.504 -5.03,-1.519 l -0.73,1.519" /><path
         id="path150"
         style="fill:none;stroke:#231f20;stroke-width:7.5005002;stroke-linecap:butt;stroke-linejoin:miter;stroke-miterlimit:2.61310005;stroke-dasharray:none;stroke-opacity:1"
         d="m 1967.92,397.621 v -57.09" /><path
         id="path152"
         style="fill:#231f20;fill-opacity:1;fill-rule:nonzero;stroke:none"
         d="m 290.715,723.336 c 1.101,-1.883 1.867,-3.652 2.301,-5.285 0.414,-1.649 0.832,-4.883 1.265,-9.699 l 2.149,-24.012 c 1.949,2.332 4.785,6.047 8.5,11.129 1.785,2.465 4,5.836 6.632,10.101 1.602,2.598 2.571,4.434 2.934,5.465 0.188,0.52 0.285,1.067 0.285,1.617 0,0.352 -0.097,0.649 -0.336,0.887 -0.23,0.215 -0.816,0.481 -1.781,0.797 -0.965,0.301 -1.766,0.887 -2.398,1.703 -0.633,0.832 -0.954,1.781 -0.954,2.863 0,1.332 0.403,2.403 1.188,3.219 0.766,0.817 1.746,1.215 2.914,1.215 1.434,0 2.652,-0.582 3.668,-1.781 1.016,-1.188 1.516,-2.821 1.516,-4.903 0,-2.566 -0.883,-5.515 -2.633,-8.816 -1.766,-3.297 -5.149,-8.367 -10.168,-15.199 -5,-6.852 -11.082,-14.301 -18.199,-22.367 -4.914,-5.567 -8.567,-9.082 -10.95,-10.532 -2.367,-1.433 -4.398,-2.168 -6.101,-2.168 -1.016,0 -1.899,0.383 -2.664,1.153 -0.77,0.765 -1.133,1.648 -1.133,2.664 0,1.265 0.516,2.418 1.582,3.465 1.051,1.035 2.199,1.55 3.434,1.55 0.648,0 1.199,-0.132 1.617,-0.433 0.265,-0.168 0.551,-0.633 0.851,-1.399 0.313,-0.75 0.598,-1.269 0.864,-1.535 0.148,-0.164 0.351,-0.23 0.582,-0.23 0.183,0 0.535,0.148 1.019,0.484 1.801,1.098 3.883,2.863 6.25,5.266 3.133,3.199 5.434,5.8 6.934,7.816 l -2.735,30.949 c -0.449,5.118 -1.132,8.231 -2.05,9.332 -0.914,1.102 -2.434,1.668 -4.582,1.668 -0.684,0 -1.918,-0.101 -3.668,-0.3 l -0.434,1.8 14.301,3.516" /><path
         id="path154"
         style="fill:#231f20;fill-opacity:1;fill-rule:nonzero;stroke:none"
         d="m 674.605,331.703 c 1.598,-1.683 2.801,-3.383 3.618,-5.062 0.586,-1.188 1.55,-4.254 2.882,-9.239 l 4.301,6.453 c 1.133,1.547 2.516,3.051 4.149,4.465 1.617,1.418 3.05,2.383 4.285,2.899 0.781,0.336 1.648,0.484 2.598,0.484 1.402,0 2.5,-0.363 3.335,-1.117 0.832,-0.75 1.25,-1.664 1.25,-2.731 0,-1.234 -0.25,-2.085 -0.734,-2.535 -0.918,-0.816 -1.953,-1.234 -3.117,-1.234 -0.684,0 -1.418,0.152 -2.199,0.453 -1.535,0.516 -2.567,0.781 -3.086,0.781 -0.782,0 -1.699,-0.468 -2.782,-1.367 -2.015,-1.699 -4.417,-4.965 -7.218,-9.816 l 4,-16.801 c 0.617,-2.563 1.136,-4.113 1.57,-4.617 0.414,-0.496 0.832,-0.746 1.266,-0.746 0.683,0 1.48,0.363 2.382,1.117 1.801,1.5 3.317,3.449 4.602,5.863 l 1.699,-0.883 c -2.051,-3.847 -4.648,-7.031 -7.816,-9.566 -1.781,-1.434 -3.301,-2.149 -4.535,-2.149 -1.817,0 -3.266,1.016 -4.348,3.067 -0.684,1.266 -2.102,6.75 -4.254,16.418 -5.062,-8.832 -9.133,-14.504 -12.195,-17.051 -1.985,-1.617 -3.903,-2.434 -5.77,-2.434 -1.297,0 -2.484,0.465 -3.566,1.415 -0.766,0.718 -1.168,1.668 -1.168,2.882 0,1.071 0.371,1.969 1.086,2.688 0.699,0.715 1.582,1.062 2.633,1.062 1.031,0 2.148,-0.515 3.316,-1.562 0.848,-0.75 1.5,-1.117 1.953,-1.117 0.399,0 0.899,0.265 1.516,0.781 1.531,1.234 3.613,3.902 6.246,8 2.633,4.101 4.367,7.066 5.184,8.902 -2.032,7.899 -3.114,12.082 -3.282,12.532 -0.75,2.117 -1.718,3.617 -2.933,4.5 -1.2,0.882 -2.969,1.316 -5.317,1.316 -0.75,0 -1.617,-0.031 -2.582,-0.102 v 1.766 l 13.031,2.285" /><path
         id="path156"
         style="fill:#231f20;fill-opacity:1;fill-rule:nonzero;stroke:none"
         d="m 292.367,315.438 c 0,7.546 1.133,14.046 3.414,19.5 2.285,5.449 5.301,9.515 9.086,12.179 2.93,2.121 5.949,3.184 9.082,3.184 5.063,0 9.633,-2.598 13.664,-7.766 5.051,-6.418 7.571,-15.097 7.571,-26.082 0,-7.683 -1.102,-14.199 -3.317,-19.566 -2.219,-5.383 -5.035,-9.282 -8.469,-11.699 -3.433,-2.434 -6.75,-3.637 -9.949,-3.637 -6.301,0 -11.566,3.719 -15.765,11.187 -3.551,6.282 -5.317,13.848 -5.317,22.7 z m 9.567,-1.219 c 0,-9.117 1.117,-16.567 3.367,-22.317 1.847,-4.847 4.629,-7.285 8.297,-7.285 1.769,0 3.586,0.805 5.468,2.367 1.899,1.586 3.332,4.239 4.297,7.934 1.5,5.602 2.254,13.5 2.254,23.684 0,7.55 -0.785,13.851 -2.351,18.898 -1.168,3.75 -2.684,6.402 -4.532,7.969 -1.336,1.066 -2.953,1.597 -4.836,1.597 -2.218,0 -4.183,-0.98 -5.918,-2.964 -2.332,-2.7 -3.929,-6.95 -4.781,-12.75 -0.851,-5.797 -1.265,-11.5 -1.265,-17.133" /><path
         id="path158"
         style="fill:#231f20;fill-opacity:1;fill-rule:nonzero;stroke:none"
         d="m 291.355,485.125 16.118,7.863 h 1.617 v -55.914 c 0,-3.703 0.148,-6.019 0.449,-6.933 0.32,-0.903 0.969,-1.602 1.934,-2.102 0.984,-0.484 2.968,-0.766 5.968,-0.832 v -1.801 h -24.918 v 1.801 c 3.133,0.066 5.153,0.336 6.067,0.816 0.902,0.469 1.535,1.102 1.898,1.899 0.352,0.805 0.535,3.183 0.535,7.152 v 35.75 c 0,4.817 -0.164,7.899 -0.484,9.266 -0.23,1.051 -0.648,1.816 -1.25,2.301 -0.598,0.484 -1.312,0.734 -2.164,0.734 -1.203,0 -2.883,-0.504 -5.035,-1.52 l -0.735,1.52" /><path
         id="path160"
         style="fill:none;stroke:#231f20;stroke-width:7.5005002;stroke-linecap:butt;stroke-linejoin:miter;stroke-miterlimit:2.61310005;stroke-dasharray:none;stroke-opacity:1"
         d="m 330.609,459.227 h 46.953" /><path
         id="path162"
         style="fill:#231f20;fill-opacity:1;fill-rule:nonzero;stroke:none"
         d="m 1058.8,723.336 c 1.1,-1.883 1.86,-3.652 2.3,-5.285 0.42,-1.649 0.83,-4.883 1.27,-9.699 l 2.15,-24.012 c 1.94,2.332 4.78,6.047 8.5,11.129 1.78,2.465 4,5.836 6.63,10.101 1.6,2.598 2.56,4.434 2.93,5.465 0.19,0.52 0.29,1.067 0.29,1.617 0,0.352 -0.1,0.649 -0.34,0.887 -0.23,0.215 -0.82,0.481 -1.78,0.797 -0.97,0.301 -1.77,0.887 -2.4,1.703 -0.64,0.832 -0.95,1.781 -0.95,2.863 0,1.332 0.4,2.403 1.18,3.219 0.77,0.817 1.75,1.215 2.92,1.215 1.43,0 2.65,-0.582 3.66,-1.781 1.02,-1.188 1.52,-2.821 1.52,-4.903 0,-2.566 -0.88,-5.515 -2.63,-8.816 -1.77,-3.297 -5.15,-8.367 -10.17,-15.199 -5,-6.852 -11.08,-14.301 -18.2,-22.367 -4.91,-5.567 -8.56,-9.082 -10.95,-10.532 -2.37,-1.433 -4.4,-2.168 -6.1,-2.168 -1.01,0 -1.9,0.383 -2.66,1.153 -0.77,0.765 -1.14,1.648 -1.14,2.664 0,1.265 0.52,2.418 1.58,3.465 1.05,1.035 2.2,1.55 3.44,1.55 0.65,0 1.2,-0.132 1.61,-0.433 0.27,-0.168 0.56,-0.633 0.86,-1.399 0.31,-0.75 0.59,-1.269 0.86,-1.535 0.15,-0.164 0.35,-0.23 0.59,-0.23 0.18,0 0.53,0.148 1.01,0.484 1.8,1.098 3.89,2.863 6.25,5.266 3.13,3.199 5.44,5.8 6.93,7.816 l -2.73,30.949 c -0.45,5.118 -1.13,8.231 -2.05,9.332 -0.91,1.102 -2.43,1.668 -4.58,1.668 -0.69,0 -1.92,-0.101 -3.67,-0.3 l -0.43,1.8 14.3,3.516" /><path
         id="path164"
         style="fill:#231f20;fill-opacity:1;fill-rule:nonzero;stroke:none"
         d="m 1442.69,331.703 c 1.6,-1.683 2.8,-3.383 3.62,-5.062 0.58,-1.188 1.55,-4.254 2.88,-9.239 l 4.3,6.453 c 1.13,1.547 2.52,3.051 4.15,4.465 1.61,1.418 3.05,2.383 4.28,2.899 0.79,0.336 1.65,0.484 2.6,0.484 1.4,0 2.5,-0.363 3.34,-1.117 0.83,-0.75 1.25,-1.664 1.25,-2.731 0,-1.234 -0.25,-2.085 -0.74,-2.535 -0.91,-0.816 -1.95,-1.234 -3.11,-1.234 -0.69,0 -1.42,0.152 -2.2,0.453 -1.54,0.516 -2.57,0.781 -3.09,0.781 -0.78,0 -1.7,-0.468 -2.78,-1.367 -2.02,-1.699 -4.42,-4.965 -7.22,-9.816 l 4,-16.801 c 0.62,-2.563 1.14,-4.113 1.57,-4.617 0.42,-0.496 0.83,-0.746 1.26,-0.746 0.69,0 1.49,0.363 2.39,1.117 1.8,1.5 3.32,3.449 4.6,5.863 l 1.7,-0.883 c -2.05,-3.847 -4.65,-7.031 -7.82,-9.566 -1.78,-1.434 -3.3,-2.149 -4.53,-2.149 -1.82,0 -3.27,1.016 -4.35,3.067 -0.68,1.266 -2.1,6.75 -4.25,16.418 -5.07,-8.832 -9.13,-14.504 -12.2,-17.051 -1.98,-1.617 -3.9,-2.434 -5.77,-2.434 -1.3,0 -2.48,0.465 -3.56,1.415 -0.77,0.718 -1.17,1.668 -1.17,2.882 0,1.071 0.37,1.969 1.09,2.688 0.69,0.715 1.58,1.062 2.63,1.062 1.03,0 2.15,-0.515 3.32,-1.562 0.84,-0.75 1.5,-1.117 1.94,-1.117 0.4,0 0.9,0.265 1.52,0.781 1.54,1.234 3.61,3.902 6.25,8 2.63,4.101 4.37,7.066 5.18,8.902 -2.03,7.899 -3.11,12.082 -3.28,12.532 -0.75,2.117 -1.72,3.617 -2.94,4.5 -1.19,0.882 -2.96,1.316 -5.31,1.316 -0.75,0 -1.62,-0.031 -2.58,-0.102 v 1.766 l 13.03,2.285" /><path
         id="path166"
         style="fill:#231f20;fill-opacity:1;fill-rule:nonzero;stroke:none"
         d="m 1060.45,315.438 c 0,7.546 1.13,14.046 3.42,19.5 2.28,5.449 5.3,9.515 9.08,12.179 2.93,2.121 5.95,3.184 9.08,3.184 5.07,0 9.64,-2.598 13.67,-7.766 5.05,-6.418 7.57,-15.097 7.57,-26.082 0,-7.683 -1.1,-14.199 -3.32,-19.566 -2.22,-5.383 -5.04,-9.282 -8.47,-11.699 -3.43,-2.434 -6.75,-3.637 -9.94,-3.637 -6.31,0 -11.58,3.719 -15.77,11.187 -3.56,6.282 -5.32,13.848 -5.32,22.7 z m 9.57,-1.219 c 0,-9.117 1.11,-16.567 3.36,-22.317 1.85,-4.847 4.64,-7.285 8.3,-7.285 1.77,0 3.59,0.805 5.47,2.367 1.9,1.586 3.33,4.239 4.3,7.934 1.5,5.602 2.25,13.5 2.25,23.684 0,7.55 -0.79,13.851 -2.35,18.898 -1.17,3.75 -2.69,6.402 -4.53,7.969 -1.34,1.066 -2.95,1.597 -4.84,1.597 -2.21,0 -4.18,-0.98 -5.91,-2.964 -2.34,-2.7 -3.94,-6.95 -4.78,-12.75 -0.86,-5.797 -1.27,-11.5 -1.27,-17.133" /><path
         id="path168"
         style="fill:#231f20;fill-opacity:1;fill-rule:nonzero;stroke:none"
         d="m 1059.44,485.125 16.12,7.863 h 1.61 v -55.914 c 0,-3.703 0.15,-6.019 0.45,-6.933 0.32,-0.903 0.97,-1.602 1.94,-2.102 0.98,-0.484 2.97,-0.766 5.96,-0.832 v -1.801 h -24.91 v 1.801 c 3.13,0.066 5.15,0.336 6.07,0.816 0.89,0.469 1.53,1.102 1.89,1.899 0.36,0.805 0.54,3.183 0.54,7.152 v 35.75 c 0,4.817 -0.17,7.899 -0.49,9.266 -0.23,1.051 -0.64,1.816 -1.24,2.301 -0.61,0.484 -1.32,0.734 -2.17,0.734 -1.2,0 -2.89,-0.504 -5.03,-1.52 l -0.74,1.52" /><path
         id="path170"
         style="fill:none;stroke:#231f20;stroke-width:7.5005002;stroke-linecap:butt;stroke-linejoin:miter;stroke-miterlimit:2.61310005;stroke-dasharray:none;stroke-opacity:1"
         d="m 1098.69,459.227 h 46.96" /><path
         id="path172"
         style="fill:#231f20;fill-opacity:1;fill-rule:nonzero;stroke:none"
         d="m 1814.74,726.371 c 1.1,-1.883 1.87,-3.648 2.3,-5.281 0.42,-1.652 0.83,-4.887 1.26,-9.703 l 2.15,-24.012 c 1.96,2.332 4.79,6.047 8.51,11.129 1.78,2.469 4,5.836 6.63,10.101 1.6,2.598 2.57,4.434 2.93,5.469 0.19,0.516 0.28,1.067 0.28,1.614 0,0.351 -0.09,0.648 -0.33,0.886 -0.23,0.215 -0.81,0.481 -1.78,0.797 -0.97,0.301 -1.77,0.887 -2.4,1.703 -0.63,0.832 -0.95,1.781 -0.95,2.864 0,1.332 0.4,2.402 1.18,3.218 0.77,0.817 1.75,1.215 2.92,1.215 1.43,0 2.65,-0.582 3.67,-1.781 1.01,-1.184 1.51,-2.817 1.51,-4.902 0,-2.567 -0.88,-5.516 -2.63,-8.817 -1.77,-3.297 -5.15,-8.367 -10.17,-15.199 -5,-6.848 -11.08,-14.301 -18.2,-22.367 -4.91,-5.567 -8.57,-9.082 -10.95,-10.532 -2.37,-1.433 -4.4,-2.168 -6.1,-2.168 -1.01,0 -1.9,0.383 -2.66,1.153 -0.77,0.765 -1.14,1.648 -1.14,2.664 0,1.266 0.52,2.418 1.59,3.469 1.05,1.031 2.19,1.547 3.43,1.547 0.65,0 1.2,-0.133 1.62,-0.434 0.26,-0.164 0.55,-0.629 0.85,-1.399 0.31,-0.75 0.6,-1.265 0.86,-1.535 0.15,-0.164 0.35,-0.23 0.59,-0.23 0.18,0 0.53,0.148 1.01,0.484 1.8,1.102 3.89,2.867 6.25,5.266 3.14,3.199 5.44,5.801 6.94,7.816 l -2.74,30.949 c -0.45,5.118 -1.13,8.235 -2.05,9.333 -0.91,1.101 -2.43,1.667 -4.58,1.667 -0.68,0 -1.92,-0.101 -3.66,-0.3 l -0.44,1.8 14.3,3.516" /><path
         id="path174"
         style="fill:#231f20;fill-opacity:1;fill-rule:nonzero;stroke:none"
         d="m 2198.63,334.738 c 1.6,-1.683 2.8,-3.383 3.62,-5.062 0.58,-1.188 1.55,-4.254 2.88,-9.235 l 4.3,6.45 c 1.13,1.547 2.52,3.05 4.15,4.464 1.62,1.418 3.05,2.383 4.28,2.899 0.78,0.336 1.65,0.484 2.6,0.484 1.4,0 2.5,-0.363 3.34,-1.113 0.83,-0.754 1.25,-1.668 1.25,-2.734 0,-1.235 -0.25,-2.082 -0.74,-2.536 -0.92,-0.816 -1.95,-1.23 -3.11,-1.23 -0.68,0 -1.42,0.148 -2.2,0.449 -1.54,0.516 -2.57,0.781 -3.09,0.781 -0.78,0 -1.7,-0.464 -2.78,-1.363 -2.02,-1.703 -4.42,-4.969 -7.22,-9.816 l 4,-16.801 c 0.62,-2.566 1.14,-4.117 1.57,-4.617 0.42,-0.5 0.83,-0.75 1.27,-0.75 0.68,0 1.48,0.367 2.38,1.117 1.8,1.5 3.32,3.449 4.6,5.863 l 1.7,-0.879 c -2.05,-3.851 -4.65,-7.035 -7.82,-9.57 -1.78,-1.434 -3.3,-2.148 -4.53,-2.148 -1.81,0 -3.27,1.015 -4.35,3.066 -0.68,1.266 -2.1,6.75 -4.25,16.418 -5.07,-8.832 -9.14,-14.504 -12.2,-17.051 -1.98,-1.617 -3.9,-2.433 -5.77,-2.433 -1.3,0 -2.48,0.464 -3.56,1.418 -0.77,0.714 -1.17,1.664 -1.17,2.882 0,1.067 0.37,1.965 1.08,2.684 0.71,0.715 1.59,1.066 2.64,1.066 1.03,0 2.15,-0.519 3.32,-1.566 0.84,-0.75 1.49,-1.117 1.95,-1.117 0.39,0 0.89,0.265 1.51,0.781 1.54,1.234 3.61,3.902 6.25,8 2.63,4.102 4.37,7.066 5.18,8.902 -2.03,7.899 -3.11,12.082 -3.28,12.536 -0.75,2.113 -1.72,3.613 -2.93,4.496 -1.2,0.886 -2.97,1.32 -5.32,1.32 -0.75,0 -1.62,-0.035 -2.58,-0.102 v 1.766 l 13.03,2.281" /><path
         id="path176"
         style="fill:#231f20;fill-opacity:1;fill-rule:nonzero;stroke:none"
         d="m 1816.39,318.473 c 0,7.547 1.13,14.047 3.41,19.5 2.29,5.449 5.31,9.515 9.09,12.183 2.93,2.117 5.95,3.184 9.08,3.184 5.07,0 9.64,-2.602 13.67,-7.77 5.05,-6.418 7.57,-15.097 7.57,-26.082 0,-7.683 -1.1,-14.199 -3.32,-19.566 -2.22,-5.383 -5.03,-9.281 -8.47,-11.699 -3.43,-2.434 -6.74,-3.637 -9.95,-3.637 -6.3,0 -11.56,3.723 -15.76,11.187 -3.55,6.282 -5.32,13.848 -5.32,22.7 z m 9.57,-1.215 c 0,-9.121 1.11,-16.57 3.36,-22.317 1.85,-4.851 4.64,-7.285 8.3,-7.285 1.77,0 3.59,0.801 5.47,2.367 1.9,1.582 3.33,4.235 4.3,7.934 1.5,5.598 2.25,13.496 2.25,23.684 0,7.547 -0.78,13.847 -2.35,18.898 -1.17,3.75 -2.68,6.399 -4.53,7.965 -1.34,1.066 -2.95,1.601 -4.84,1.601 -2.21,0 -4.18,-0.984 -5.91,-2.964 -2.34,-2.703 -3.94,-6.953 -4.79,-12.75 -0.84,-5.801 -1.26,-11.5 -1.26,-17.133" /><path
         id="path178"
         style="fill:#231f20;fill-opacity:1;fill-rule:nonzero;stroke:none"
         d="m 1815.38,488.16 16.12,7.867 h 1.61 v -55.918 c 0,-3.699 0.16,-6.015 0.46,-6.933 0.31,-0.903 0.96,-1.602 1.93,-2.098 0.98,-0.488 2.96,-0.766 5.96,-0.836 v -1.801 h -24.91 v 1.801 c 3.13,0.07 5.15,0.336 6.06,0.817 0.91,0.468 1.54,1.101 1.91,1.898 0.35,0.805 0.53,3.184 0.53,7.152 v 35.75 c 0,4.817 -0.17,7.903 -0.48,9.266 -0.24,1.051 -0.66,1.82 -1.25,2.301 -0.61,0.484 -1.32,0.734 -2.17,0.734 -1.2,0 -2.88,-0.504 -5.04,-1.515 l -0.73,1.515" /><path
         id="path180"
         style="fill:none;stroke:#231f20;stroke-width:7.5005002;stroke-linecap:butt;stroke-linejoin:miter;stroke-miterlimit:2.61310005;stroke-dasharray:none;stroke-opacity:1"
         d="m 1854.63,462.262 h 46.96" /><path
         id="path182"
         style="fill:#231f20;fill-opacity:1;fill-rule:nonzero;stroke:none"
         d="m 100.852,848.805 -5.0317,-55.067 c -0.2695,-2.586 -0.3828,-4.269 -0.3828,-5.086 0,-1.297 0.2305,-2.297 0.7344,-2.98 0.6133,-0.934 1.4453,-1.633 2.5,-2.102 1.0664,-0.449 2.8481,-0.683 5.3481,-0.683 l -0.532,-1.801 h -26.07 l 0.5351,1.801 h 1.1172 c 2.1172,0 3.8516,0.468 5.1836,1.367 0.9336,0.633 1.668,1.648 2.1992,3.082 0.3477,1.019 0.6992,3.383 1.0196,7.133 l 0.7812,8.402 H 69.3047 l -6.7344,-9.133 c -1.5312,-2.05 -2.4844,-3.535 -2.8828,-4.418 -0.3828,-0.898 -0.5859,-1.734 -0.5859,-2.515 0,-1.051 0.4179,-1.934 1.2695,-2.684 0.8477,-0.75 2.25,-1.168 4.1992,-1.234 l -0.5312,-1.801 h -19.586 l 0.5313,1.801 c 2.4179,0.097 4.539,0.914 6.3867,2.418 1.832,1.515 4.5664,4.75 8.2148,9.699 l 39.5508,53.801 z M 91.1875,832.551 71.9844,806.438 h 16.6523 l 2.5508,26.113" /><path
         id="path184"
         style="fill:#231f20;fill-opacity:1;fill-rule:nonzero;stroke:none"
         d="m 124.969,849.586 1.668,0.934 c 3.867,-7.348 6.633,-13.868 8.301,-19.532 1.332,-4.418 2,-8.883 2,-13.386 0,-10.5 -2.434,-19.899 -7.286,-28.164 -5.984,-10.184 -15.632,-20.102 -28.949,-29.735 l -1.1639,1.516 c 6.0159,4.484 10.9339,9.484 14.7309,14.984 4.769,6.899 8.652,15.25 11.683,25.035 3.016,9.766 4.531,18.664 4.531,26.684 0,6.117 -1.832,13.332 -5.515,21.664" /><path
         id="path186"
         style="fill:#231f20;fill-opacity:1;fill-rule:nonzero;stroke:none"
         d="m 1612.14,845.488 0.68,1.817 h 23.63 c 3.97,0 7.5,-0.621 10.62,-1.871 3.1,-1.231 5.43,-2.946 6.98,-5.164 1.55,-2.215 2.32,-4.567 2.32,-7.036 0,-3.816 -1.38,-7.246 -4.13,-10.332 -2.76,-3.066 -7.24,-5.347 -13.45,-6.8 4.01,-1.5 6.95,-3.481 8.85,-5.965 1.88,-2.465 2.83,-5.184 2.83,-8.149 0,-3.285 -0.85,-6.433 -2.55,-9.433 -1.68,-2.985 -3.87,-5.317 -6.52,-6.965 -2.65,-1.668 -5.85,-2.887 -9.6,-3.668 -2.66,-0.551 -6.83,-0.836 -12.5,-0.836 h -24.26 l 0.63,1.801 c 2.55,0.066 4.27,0.316 5.19,0.734 1.29,0.567 2.23,1.297 2.78,2.199 0.78,1.235 1.81,4.067 3.11,8.5 l 11.87,40.082 c 1.02,3.387 1.52,5.766 1.52,7.137 0,1.199 -0.45,2.149 -1.34,2.848 -0.89,0.699 -2.6,1.047 -5.11,1.047 -0.55,0 -1.07,0.019 -1.55,0.054 z m 9.9,-27.484 c 2.11,-0.066 3.65,-0.102 4.6,-0.102 6.77,0 11.8,1.469 15.11,4.418 3.3,2.95 4.95,6.633 4.95,11.067 0,3.347 -1.01,5.965 -3.03,7.832 -2.02,1.867 -5.23,2.801 -9.67,2.801 -1.16,0 -2.66,-0.184 -4.48,-0.582 z m -9.62,-32.617 c 3.52,-0.469 6.27,-0.684 8.25,-0.684 5.08,0 9.58,1.535 13.5,4.586 3.94,3.066 5.88,7.215 5.88,12.449 0,4 -1.2,7.129 -3.63,9.383 -2.42,2.25 -6.33,3.367 -11.73,3.367 -1.05,0 -2.32,-0.05 -3.82,-0.152 l -8.45,-28.949" /><path
         id="path188"
         style="fill:#231f20;fill-opacity:1;fill-rule:nonzero;stroke:none"
         d="m 1672.97,849.586 1.67,0.934 c 3.86,-7.348 6.63,-13.868 8.3,-19.532 1.33,-4.418 2,-8.883 2,-13.386 0,-10.5 -2.44,-19.899 -7.29,-28.164 -5.98,-10.184 -15.63,-20.102 -28.95,-29.735 l -1.16,1.516 c 6.01,4.484 10.93,9.484 14.73,14.984 4.77,6.899 8.65,15.25 11.68,25.035 3.02,9.766 4.53,18.664 4.53,26.684 0,6.117 -1.83,13.332 -5.51,21.664" /><path
         id="path190"
         style="fill:#231f20;fill-opacity:1;fill-rule:nonzero;stroke:none"
         d="m 821.652,847.305 h 46.536 l -5.032,-17.285 h -1.82 c 0.367,2.117 0.551,4.035 0.551,5.75 0,2.25 -0.449,4 -1.336,5.234 -0.863,1.23 -2.067,2.035 -3.582,2.383 -1.516,0.367 -4.481,0.551 -8.914,0.551 h -10.203 l -7.614,-26.133 h 6.649 c 5.648,0 9.902,-0.586 12.734,-1.75 2.832,-1.184 5.164,-3.168 6.984,-5.969 1.833,-2.797 2.731,-5.801 2.731,-9.031 0,-3.867 -1.316,-7.571 -3.981,-11.082 -2.652,-3.52 -5.902,-5.871 -9.734,-7.086 -3.832,-1.199 -8.367,-1.801 -13.566,-1.801 h -29.551 l 0.484,1.801 c 3.547,0.066 5.985,0.668 7.297,1.785 1.32,1.133 2.668,3.98 4.035,8.582 l 11.618,39.5 c 1.281,4.351 1.914,7.297 1.914,8.832 0,1.367 -0.497,2.352 -1.5,2.934 -0.981,0.585 -2.731,0.902 -5.25,0.968 z m -0.832,-61.918 c 2.535,-0.469 5.317,-0.684 8.352,-0.684 6.898,0 11.949,1.703 15.148,5.102 3.215,3.398 4.817,7.199 4.817,11.398 0,2.832 -0.766,5.332 -2.317,7.5 -1.55,2.168 -3.5,3.649 -5.832,4.465 -2.351,0.816 -5.504,1.219 -9.484,1.219 h -2.199 l -8.485,-29" /><path
         id="path192"
         style="fill:#231f20;fill-opacity:1;fill-rule:nonzero;stroke:none"
         d="m 878.871,849.586 1.664,0.934 c 3.867,-7.348 6.633,-13.868 8.301,-19.532 1.332,-4.418 2,-8.883 2,-13.386 0,-10.5 -2.434,-19.899 -7.285,-28.164 -5.981,-10.184 -15.633,-20.102 -28.949,-29.735 l -1.164,1.516 c 6.015,4.484 10.933,9.484 14.73,14.984 4.77,6.899 8.652,15.25 11.684,25.035 3.019,9.766 4.535,18.664 4.535,26.684 0,6.117 -1.836,13.332 -5.516,21.664" /></g></g></svg>