<?xml version="1.0" encoding="UTF-8" standalone="no"?>
<svg
   xmlns:dc="http://purl.org/dc/elements/1.1/"
   xmlns:cc="http://creativecommons.org/ns#"
   xmlns:rdf="http://www.w3.org/1999/02/22-rdf-syntax-ns#"
   xmlns:svg="http://www.w3.org/2000/svg"
   xmlns="http://www.w3.org/2000/svg"
   viewBox="0 0 425.33334 145.33333"
   height="145.33333"
   width="425.33334"
   xml:space="preserve"
   id="svg2"
   version="1.1"><metadata
     id="metadata8"><rdf:RDF><cc:Work
         rdf:about=""><dc:format>image/svg+xml</dc:format><dc:type
           rdf:resource="http://purl.org/dc/dcmitype/StillImage" /></cc:Work></rdf:RDF></metadata><defs
     id="defs6" /><g
     transform="matrix(1.3333333,0,0,-1.3333333,0,145.33333)"
     id="g10"><g
       transform="scale(0.1)"
       id="g12"><path
         id="path14"
         style="fill:#231f20;fill-opacity:1;fill-rule:nonzero;stroke:none"
         d="m 60.9844,1082.58 -5.0352,-55.06 c -0.2656,-2.59 -0.3828,-4.27 -0.3828,-5.09 0,-1.3 0.2305,-2.3 0.7344,-2.98 0.6133,-0.93 1.4492,-1.63 2.5,-2.1 1.0664,-0.45 2.8476,-0.69 5.3476,-0.69 l -0.5312,-1.8 H 37.5508 l 0.5312,1.8 h 1.1172 c 2.1172,0 3.8516,0.47 5.1836,1.37 0.9336,0.64 1.668,1.65 2.1992,3.09 0.3516,1.01 0.6992,3.38 1.0196,7.13 l 0.7812,8.4 H 29.4336 l -6.7344,-9.13 c -1.5312,-2.06 -2.4844,-3.54 -2.8828,-4.42 -0.3828,-0.9 -0.5859,-1.74 -0.5859,-2.52 0,-1.05 0.4179,-1.93 1.2695,-2.68 0.8477,-0.75 2.25,-1.17 4.1992,-1.24 l -0.5312,-1.8 H 4.58203 l 0.53516,1.8 c 2.41797,0.11 4.53515,0.92 6.38281,2.42 1.832,1.52 4.5664,4.75 8.2148,9.7 l 39.5508,53.8 z m -9.668,-16.25 -19.1992,-26.12 h 16.6484 l 2.5508,26.12" /><path
         id="path16"
         style="fill:#231f20;fill-opacity:1;fill-rule:nonzero;stroke:none"
         d="m 85.0977,1083.36 1.6679,0.94 c 3.8672,-7.35 6.6328,-13.87 8.3008,-19.53 1.332,-4.42 2,-8.89 2,-13.39 0,-10.5 -2.4336,-19.9 -7.2852,-28.17 -5.9843,-10.18 -15.6328,-20.09 -28.9492,-29.73 l -1.164,1.516 c 6.0156,4.484 10.9336,9.484 14.7304,14.984 4.7696,6.9 8.6524,15.25 11.6836,25.04 3.0157,9.76 4.5352,18.66 4.5352,26.68 0,6.12 -1.836,13.33 -5.5195,21.66" /><path
         id="path18"
         style="fill:#231f20;fill-opacity:1;fill-rule:nonzero;stroke:none"
         d="m 1153.41,1081.08 h 46.53 l -5.03,-17.28 h -1.82 c 0.37,2.11 0.55,4.03 0.55,5.75 0,2.25 -0.44,4 -1.33,5.23 -0.86,1.23 -2.07,2.04 -3.58,2.38 -1.52,0.37 -4.48,0.55 -8.92,0.55 h -10.2 l -7.62,-26.13 h 6.65 c 5.65,0 9.9,-0.58 12.74,-1.75 2.83,-1.18 5.16,-3.17 6.98,-5.96 1.84,-2.8 2.73,-5.81 2.73,-9.04 0,-3.87 -1.31,-7.56 -3.98,-11.08 -2.65,-3.52 -5.9,-5.87 -9.73,-7.09 -3.84,-1.2 -8.37,-1.8 -13.57,-1.8 h -29.55 l 0.49,1.8 c 3.54,0.07 5.98,0.67 7.29,1.79 1.32,1.13 2.67,3.98 4.04,8.58 l 11.62,39.5 c 1.28,4.35 1.91,7.3 1.91,8.83 0,1.37 -0.5,2.35 -1.5,2.94 -0.99,0.58 -2.73,0.9 -5.25,0.97 z m -0.83,-61.92 c 2.53,-0.46 5.31,-0.68 8.35,-0.68 6.9,0 11.95,1.7 15.15,5.1 3.21,3.4 4.81,7.2 4.81,11.4 0,2.83 -0.77,5.33 -2.32,7.5 -1.54,2.17 -3.49,3.65 -5.82,4.47 -2.36,0.81 -5.51,1.22 -9.49,1.22 h -2.2 l -8.48,-29.01" /><path
         id="path20"
         style="fill:#231f20;fill-opacity:1;fill-rule:nonzero;stroke:none"
         d="m 1210.62,1083.36 1.67,0.94 c 3.87,-7.35 6.64,-13.87 8.3,-19.53 1.34,-4.42 2,-8.89 2,-13.39 0,-10.5 -2.43,-19.9 -7.28,-28.17 -5.99,-10.18 -15.63,-20.09 -28.95,-29.73 l -1.16,1.516 c 6.01,4.484 10.93,9.484 14.73,14.984 4.77,6.9 8.65,15.25 11.68,25.04 3.01,9.76 4.53,18.66 4.53,26.68 0,6.12 -1.83,13.33 -5.52,21.66" /><path
         id="path22"
         style="fill:#231f20;fill-opacity:1;fill-rule:nonzero;stroke:none"
         d="m 2354.54,1079.27 0.69,1.81 h 23.63 c 3.97,0 7.5,-0.62 10.62,-1.87 3.1,-1.23 5.43,-2.94 6.98,-5.16 1.55,-2.22 2.32,-4.57 2.32,-7.04 0,-3.81 -1.39,-7.24 -4.14,-10.33 -2.75,-3.07 -7.23,-5.35 -13.44,-6.8 4.01,-1.5 6.94,-3.48 8.84,-5.97 1.89,-2.46 2.84,-5.18 2.84,-8.14 0,-3.29 -0.85,-6.44 -2.55,-9.44 -1.69,-2.98 -3.87,-5.31 -6.52,-6.96 -2.65,-1.67 -5.85,-2.89 -9.6,-3.67 -2.67,-0.55 -6.83,-0.84 -12.5,-0.84 h -24.26 l 0.63,1.8 c 2.55,0.07 4.26,0.32 5.18,0.74 1.3,0.56 2.23,1.3 2.79,2.2 0.78,1.23 1.81,4.06 3.11,8.5 l 11.87,40.08 c 1.01,3.39 1.51,5.77 1.51,7.14 0,1.2 -0.45,2.14 -1.33,2.84 -0.9,0.7 -2.6,1.05 -5.12,1.05 -0.55,0 -1.06,0.02 -1.55,0.06 z m 9.91,-27.49 c 2.11,-0.07 3.64,-0.1 4.59,-0.1 6.77,0 11.8,1.47 15.12,4.42 3.3,2.95 4.95,6.63 4.95,11.06 0,3.36 -1.02,5.97 -3.04,7.84 -2.01,1.86 -5.23,2.8 -9.66,2.8 -1.16,0 -2.66,-0.19 -4.48,-0.59 z m -9.62,-32.62 c 3.51,-0.46 6.26,-0.68 8.25,-0.68 5.08,0 9.58,1.54 13.5,4.59 3.93,3.06 5.88,7.21 5.88,12.45 0,4 -1.2,7.13 -3.63,9.38 -2.42,2.25 -6.33,3.37 -11.74,3.37 -1.05,0 -2.31,-0.06 -3.81,-0.16 l -8.45,-28.95" /><path
         id="path24"
         style="fill:#231f20;fill-opacity:1;fill-rule:nonzero;stroke:none"
         d="m 2415.38,1083.36 1.66,0.94 c 3.87,-7.35 6.64,-13.87 8.3,-19.53 1.34,-4.42 2,-8.89 2,-13.39 0,-10.5 -2.43,-19.9 -7.28,-28.17 -5.99,-10.18 -15.63,-20.09 -28.95,-29.73 l -1.16,1.516 c 6.01,4.484 10.93,9.484 14.73,14.984 4.77,6.9 8.65,15.25 11.68,25.04 3.02,9.76 4.53,18.66 4.53,26.68 0,6.12 -1.83,13.33 -5.51,21.66" /><path
         id="path26"
         style="fill:#ffffff;fill-opacity:1;fill-rule:evenodd;stroke:none"
         d="m 1103.31,21.2188 h 906.809 v 938.105 H 1103.31 Z" /><path
         id="path28"
         style="fill:none;stroke:#0b0c0b;stroke-width:2.16000009;stroke-linecap:butt;stroke-linejoin:miter;stroke-miterlimit:2.61310005;stroke-dasharray:none;stroke-opacity:1"
         d="m 1103.31,21.2188 h 906.809 v 938.105 H 1103.31 Z" /><path
         id="path30"
         style="fill:none;stroke:#101211;stroke-width:2.16000009;stroke-linecap:butt;stroke-linejoin:miter;stroke-miterlimit:2.61310005;stroke-dasharray:none;stroke-opacity:1"
         d="M 1194,21.2188 V 959.324" /><path
         id="path32"
         style="fill:none;stroke:#101211;stroke-width:2.16000009;stroke-linecap:butt;stroke-linejoin:miter;stroke-miterlimit:2.61310005;stroke-dasharray:none;stroke-opacity:1"
         d="M 1284.68,21.2188 V 959.324" /><path
         id="path34"
         style="fill:none;stroke:#101211;stroke-width:2.16000009;stroke-linecap:butt;stroke-linejoin:miter;stroke-miterlimit:2.61310005;stroke-dasharray:none;stroke-opacity:1"
         d="M 1375.36,21.2188 V 959.324" /><path
         id="path36"
         style="fill:none;stroke:#101211;stroke-width:2.16000009;stroke-linecap:butt;stroke-linejoin:miter;stroke-miterlimit:2.61310005;stroke-dasharray:none;stroke-opacity:1"
         d="M 1466.04,21.2188 V 959.324" /><path
         id="path38"
         style="fill:none;stroke:#101211;stroke-width:2.16000009;stroke-linecap:butt;stroke-linejoin:miter;stroke-miterlimit:2.61310005;stroke-dasharray:none;stroke-opacity:1"
         d="M 1556.72,21.2188 V 959.324" /><path
         id="path40"
         style="fill:none;stroke:#101211;stroke-width:2.16000009;stroke-linecap:butt;stroke-linejoin:miter;stroke-miterlimit:2.61310005;stroke-dasharray:none;stroke-opacity:1"
         d="M 1647.41,21.2188 V 959.324" /><path
         id="path42"
         style="fill:none;stroke:#101211;stroke-width:2.16000009;stroke-linecap:butt;stroke-linejoin:miter;stroke-miterlimit:2.61310005;stroke-dasharray:none;stroke-opacity:1"
         d="M 1738.08,21.2188 V 959.324" /><path
         id="path44"
         style="fill:none;stroke:#101211;stroke-width:2.16000009;stroke-linecap:butt;stroke-linejoin:miter;stroke-miterlimit:2.61310005;stroke-dasharray:none;stroke-opacity:1"
         d="M 1828.75,21.2188 V 959.324" /><path
         id="path46"
         style="fill:none;stroke:#101211;stroke-width:2.16000009;stroke-linecap:butt;stroke-linejoin:miter;stroke-miterlimit:2.61310005;stroke-dasharray:none;stroke-opacity:1"
         d="M 1919.44,21.2188 V 959.324" /><path
         id="path48"
         style="fill:none;stroke:#101211;stroke-width:2.16000009;stroke-linecap:butt;stroke-linejoin:miter;stroke-miterlimit:2.61310005;stroke-dasharray:none;stroke-opacity:1"
         d="m 1103.31,115.031 h 906.81" /><path
         id="path50"
         style="fill:none;stroke:#101211;stroke-width:2.16000009;stroke-linecap:butt;stroke-linejoin:miter;stroke-miterlimit:2.61310005;stroke-dasharray:none;stroke-opacity:1"
         d="m 1103.31,208.84 h 906.81" /><path
         id="path52"
         style="fill:none;stroke:#101211;stroke-width:2.16000009;stroke-linecap:butt;stroke-linejoin:miter;stroke-miterlimit:2.61310005;stroke-dasharray:none;stroke-opacity:1"
         d="m 1103.31,302.656 h 906.81" /><path
         id="path54"
         style="fill:none;stroke:#101211;stroke-width:2.16000009;stroke-linecap:butt;stroke-linejoin:miter;stroke-miterlimit:2.61310005;stroke-dasharray:none;stroke-opacity:1"
         d="m 1103.31,396.457 h 906.81" /><path
         id="path56"
         style="fill:none;stroke:#101211;stroke-width:2.16000009;stroke-linecap:butt;stroke-linejoin:miter;stroke-miterlimit:2.61310005;stroke-dasharray:none;stroke-opacity:1"
         d="m 1103.31,490.266 h 906.81" /><path
         id="path58"
         style="fill:none;stroke:#101211;stroke-width:2.16000009;stroke-linecap:butt;stroke-linejoin:miter;stroke-miterlimit:2.61310005;stroke-dasharray:none;stroke-opacity:1"
         d="m 1103.31,584.09 h 906.81" /><path
         id="path60"
         style="fill:none;stroke:#101211;stroke-width:2.16000009;stroke-linecap:butt;stroke-linejoin:miter;stroke-miterlimit:2.61310005;stroke-dasharray:none;stroke-opacity:1"
         d="m 1103.31,677.891 h 906.81" /><path
         id="path62"
         style="fill:none;stroke:#101211;stroke-width:2.16000009;stroke-linecap:butt;stroke-linejoin:miter;stroke-miterlimit:2.61310005;stroke-dasharray:none;stroke-opacity:1"
         d="m 1103.31,771.707 h 906.81" /><path
         id="path64"
         style="fill:none;stroke:#101211;stroke-width:2.16000009;stroke-linecap:butt;stroke-linejoin:miter;stroke-miterlimit:2.61310005;stroke-dasharray:none;stroke-opacity:1"
         d="m 1103.31,865.523 h 906.81" /><path
         id="path66"
         style="fill:none;stroke:#231f20;stroke-width:7.5005002;stroke-linecap:butt;stroke-linejoin:miter;stroke-miterlimit:2.61310005;stroke-dasharray:none;stroke-opacity:1"
         d="m 1103.31,490.266 h 863.07" /><path
         id="path68"
         style="fill:#231f20;fill-opacity:1;fill-rule:evenodd;stroke:none"
         d="m 1962.22,516.613 47.9,-26.347 -47.9,-26.348 v 52.695" /><path
         id="path70"
         style="fill:none;stroke:#231f20;stroke-width:7.5005002;stroke-linecap:butt;stroke-linejoin:miter;stroke-miterlimit:2.61310005;stroke-dasharray:none;stroke-opacity:1"
         d="M 1553.73,16.6836 V 911.039" /><path
         id="path72"
         style="fill:#231f20;fill-opacity:1;fill-rule:evenodd;stroke:none"
         d="m 1527.38,906.887 26.35,47.898 26.34,-47.898 h -52.69" /><path
         id="path74"
         style="fill:none;stroke:#0b0c0b;stroke-width:7.5005002;stroke-linecap:butt;stroke-linejoin:miter;stroke-miterlimit:2.61310005;stroke-dasharray:none;stroke-opacity:1"
         d="m 1425.27,21.2188 4.5,22.5039 4.54,22.2968 4.51,21.8125 4.54,21.332 4.55,20.875 4.51,20.41 4.55,19.93 4.52,19.465 4.55,18.996 4.53,18.531 4.54,18.059 4.52,17.574 4.55,17.137 4.53,16.656 4.52,16.172 4.54,15.722 4.54,15.247 4.54,14.777 4.53,14.293 4.53,13.84 4.54,13.363 4.52,12.906 4.55,12.438 4.53,11.953 4.53,11.492 4.53,11.02 4.55,10.55 4.51,10.086 4.55,9.61 4.52,9.16 4.55,8.676 4.52,8.195 4.55,7.746 4.52,7.277 4.54,6.789 4.54,6.336 4.53,5.864 4.53,5.398 4.54,4.922 4.53,4.457 4.53,3.984 4.54,3.52 4.54,3.062 4.52,2.578 4.54,2.106 4.54,1.629 4.52,1.168 4.54,0.719 4.55,0.238 4.52,-0.238 4.54,-0.719 4.53,-1.168 4.53,-1.629 4.54,-2.106 4.54,-2.578 4.53,-3.062 4.54,-3.52 4.52,-3.984 4.55,-4.457 4.52,-4.922 4.55,-5.398 4.53,-5.864 4.53,-6.336 4.52,-6.789 4.55,-7.277 4.52,-7.746 4.54,-8.195 4.53,-8.676 4.54,-9.16 4.52,-9.61 4.54,-10.086 4.54,-10.55 4.53,-11.02 4.53,-11.492 4.54,-11.953 4.53,-12.438 4.54,-12.906 4.54,-13.363 4.52,-13.84 4.54,-14.293 4.54,-14.777 4.53,-15.247 4.54,-15.722 4.52,-16.172 4.54,-16.656 4.53,-17.137 4.54,-17.574 4.53,-18.059 4.53,-18.531 4.54,-18.996 4.53,-19.465 4.54,-19.93 4.54,-20.41 4.52,-20.875 4.54,-21.332 4.54,-21.8125 4.53,-22.2968 4.49,-22.5039" /><path
         id="path76"
         style="fill:#ffffff;fill-opacity:1;fill-rule:evenodd;stroke:none"
         d="m 23.3125,21.2188 h 906.809 v 938.105 H 23.3125 Z" /><path
         id="path78"
         style="fill:none;stroke:#0b0c0b;stroke-width:2.16000009;stroke-linecap:butt;stroke-linejoin:miter;stroke-miterlimit:2.61310005;stroke-dasharray:none;stroke-opacity:1"
         d="m 23.3125,21.2188 h 906.809 v 938.105 H 23.3125 Z" /><path
         id="path80"
         style="fill:none;stroke:#101211;stroke-width:2.16000009;stroke-linecap:butt;stroke-linejoin:miter;stroke-miterlimit:2.61310005;stroke-dasharray:none;stroke-opacity:1"
         d="M 114,21.2188 V 959.324" /><path
         id="path82"
         style="fill:none;stroke:#101211;stroke-width:2.16000009;stroke-linecap:butt;stroke-linejoin:miter;stroke-miterlimit:2.61310005;stroke-dasharray:none;stroke-opacity:1"
         d="M 204.68,21.2188 V 959.324" /><path
         id="path84"
         style="fill:none;stroke:#101211;stroke-width:2.16000009;stroke-linecap:butt;stroke-linejoin:miter;stroke-miterlimit:2.61310005;stroke-dasharray:none;stroke-opacity:1"
         d="M 295.359,21.2188 V 959.324" /><path
         id="path86"
         style="fill:none;stroke:#101211;stroke-width:2.16000009;stroke-linecap:butt;stroke-linejoin:miter;stroke-miterlimit:2.61310005;stroke-dasharray:none;stroke-opacity:1"
         d="M 386.039,21.2188 V 959.324" /><path
         id="path88"
         style="fill:none;stroke:#101211;stroke-width:2.16000009;stroke-linecap:butt;stroke-linejoin:miter;stroke-miterlimit:2.61310005;stroke-dasharray:none;stroke-opacity:1"
         d="M 476.723,21.2188 V 959.324" /><path
         id="path90"
         style="fill:none;stroke:#101211;stroke-width:2.16000009;stroke-linecap:butt;stroke-linejoin:miter;stroke-miterlimit:2.61310005;stroke-dasharray:none;stroke-opacity:1"
         d="M 567.406,21.2188 V 959.324" /><path
         id="path92"
         style="fill:none;stroke:#101211;stroke-width:2.16000009;stroke-linecap:butt;stroke-linejoin:miter;stroke-miterlimit:2.61310005;stroke-dasharray:none;stroke-opacity:1"
         d="M 658.078,21.2188 V 959.324" /><path
         id="path94"
         style="fill:none;stroke:#101211;stroke-width:2.16000009;stroke-linecap:butt;stroke-linejoin:miter;stroke-miterlimit:2.61310005;stroke-dasharray:none;stroke-opacity:1"
         d="M 748.754,21.2188 V 959.324" /><path
         id="path96"
         style="fill:none;stroke:#101211;stroke-width:2.16000009;stroke-linecap:butt;stroke-linejoin:miter;stroke-miterlimit:2.61310005;stroke-dasharray:none;stroke-opacity:1"
         d="M 839.438,21.2188 V 959.324" /><path
         id="path98"
         style="fill:none;stroke:#101211;stroke-width:2.16000009;stroke-linecap:butt;stroke-linejoin:miter;stroke-miterlimit:2.61310005;stroke-dasharray:none;stroke-opacity:1"
         d="M 23.3125,115.031 H 930.121" /><path
         id="path100"
         style="fill:none;stroke:#101211;stroke-width:2.16000009;stroke-linecap:butt;stroke-linejoin:miter;stroke-miterlimit:2.61310005;stroke-dasharray:none;stroke-opacity:1"
         d="M 23.3125,208.84 H 930.121" /><path
         id="path102"
         style="fill:none;stroke:#101211;stroke-width:2.16000009;stroke-linecap:butt;stroke-linejoin:miter;stroke-miterlimit:2.61310005;stroke-dasharray:none;stroke-opacity:1"
         d="M 23.3125,302.656 H 930.121" /><path
         id="path104"
         style="fill:none;stroke:#101211;stroke-width:2.16000009;stroke-linecap:butt;stroke-linejoin:miter;stroke-miterlimit:2.61310005;stroke-dasharray:none;stroke-opacity:1"
         d="M 23.3125,396.457 H 930.121" /><path
         id="path106"
         style="fill:none;stroke:#101211;stroke-width:2.16000009;stroke-linecap:butt;stroke-linejoin:miter;stroke-miterlimit:2.61310005;stroke-dasharray:none;stroke-opacity:1"
         d="M 23.3125,490.266 H 930.121" /><path
         id="path108"
         style="fill:none;stroke:#101211;stroke-width:2.16000009;stroke-linecap:butt;stroke-linejoin:miter;stroke-miterlimit:2.61310005;stroke-dasharray:none;stroke-opacity:1"
         d="M 23.3125,584.09 H 930.121" /><path
         id="path110"
         style="fill:none;stroke:#101211;stroke-width:2.16000009;stroke-linecap:butt;stroke-linejoin:miter;stroke-miterlimit:2.61310005;stroke-dasharray:none;stroke-opacity:1"
         d="M 23.3125,677.891 H 930.121" /><path
         id="path112"
         style="fill:#231f20;fill-opacity:1;fill-rule:nonzero;stroke:none"
         d="m 555.895,464.461 16.117,7.867 h 1.613 V 416.41 c 0,-3.699 0.152,-6.015 0.453,-6.933 0.317,-0.899 0.965,-1.602 1.934,-2.098 0.98,-0.484 2.965,-0.766 5.965,-0.836 v -1.797 h -24.918 v 1.797 c 3.132,0.07 5.152,0.336 6.066,0.816 0.902,0.469 1.535,1.102 1.902,1.903 0.352,0.8 0.535,3.179 0.535,7.148 v 35.75 c 0,4.817 -0.167,7.902 -0.484,9.27 -0.234,1.047 -0.652,1.816 -1.25,2.297 -0.601,0.484 -1.316,0.734 -2.168,0.734 -1.199,0 -2.883,-0.5 -5.035,-1.516 l -0.73,1.516" /><path
         id="path114"
         style="fill:none;stroke:#101211;stroke-width:2.16000009;stroke-linecap:butt;stroke-linejoin:miter;stroke-miterlimit:2.61310005;stroke-dasharray:none;stroke-opacity:1"
         d="M 23.3125,771.707 H 930.121" /><path
         id="path116"
         style="fill:#231f20;fill-opacity:1;fill-rule:nonzero;stroke:none"
         d="m 432.738,614.043 16.117,7.867 h 1.618 v -55.918 c 0,-3.699 0.148,-6.015 0.449,-6.933 0.316,-0.899 0.969,-1.602 1.933,-2.098 0.985,-0.488 2.969,-0.766 5.969,-0.836 v -1.801 h -24.918 v 1.801 c 3.133,0.07 5.153,0.336 6.067,0.816 0.902,0.469 1.535,1.102 1.898,1.899 0.352,0.805 0.535,3.183 0.535,7.152 v 35.75 c 0,4.817 -0.164,7.903 -0.484,9.266 -0.231,1.051 -0.649,1.82 -1.25,2.301 -0.602,0.484 -1.313,0.734 -2.164,0.734 -1.203,0 -2.883,-0.504 -5.035,-1.516 l -0.735,1.516" /><path
         id="path118"
         style="fill:#231f20;fill-opacity:1;fill-rule:nonzero;stroke:none"
         d="m 421.512,435.867 c 0,7.551 1.136,14.051 3.418,19.5 2.285,5.453 5.3,9.516 9.086,12.184 2.929,2.117 5.949,3.183 9.082,3.183 5.062,0 9.632,-2.601 13.664,-7.765 5.05,-6.418 7.57,-15.102 7.57,-26.086 0,-7.68 -1.102,-14.199 -3.316,-19.563 -2.219,-5.382 -5.036,-9.285 -8.469,-11.703 -3.434,-2.433 -6.75,-3.633 -9.949,-3.633 -6.301,0 -11.567,3.719 -15.766,11.184 -3.551,6.281 -5.32,13.852 -5.32,22.699 z m 9.57,-1.215 c 0,-9.117 1.113,-16.57 3.367,-22.316 1.848,-4.852 4.629,-7.285 8.297,-7.285 1.766,0 3.586,0.801 5.465,2.367 1.902,1.582 3.336,4.234 4.301,7.934 1.5,5.597 2.25,13.5 2.25,23.683 0,7.547 -0.785,13.848 -2.348,18.899 -1.168,3.75 -2.684,6.398 -4.531,7.968 -1.336,1.063 -2.953,1.598 -4.836,1.598 -2.219,0 -4.184,-0.984 -5.918,-2.965 -2.332,-2.703 -3.93,-6.949 -4.781,-12.75 -0.852,-5.801 -1.266,-11.5 -1.266,-17.133" /><path
         id="path120"
         style="fill:none;stroke:#101211;stroke-width:2.16000009;stroke-linecap:butt;stroke-linejoin:miter;stroke-miterlimit:2.61310005;stroke-dasharray:none;stroke-opacity:1"
         d="M 23.3125,865.523 H 930.121" /><path
         id="path122"
         style="fill:none;stroke:#231f20;stroke-width:7.5005002;stroke-linecap:butt;stroke-linejoin:miter;stroke-miterlimit:2.61310005;stroke-dasharray:none;stroke-opacity:1"
         d="M 23.3125,490.266 H 886.375" /><path
         id="path124"
         style="fill:#231f20;fill-opacity:1;fill-rule:evenodd;stroke:none"
         d="m 882.223,516.613 47.898,-26.347 -47.898,-26.348 v 52.695" /><path
         id="path126"
         style="fill:none;stroke:#231f20;stroke-width:7.5005002;stroke-linecap:butt;stroke-linejoin:miter;stroke-miterlimit:2.61310005;stroke-dasharray:none;stroke-opacity:1"
         d="M 475.699,10.6875 V 905.043" /><path
         id="path128"
         style="fill:#231f20;fill-opacity:1;fill-rule:evenodd;stroke:none"
         d="m 449.352,900.891 26.347,47.898 26.348,-47.898 h -52.695" /><path
         id="path130"
         style="fill:none;stroke:#0b0c0b;stroke-width:7.5005002;stroke-linecap:butt;stroke-linejoin:miter;stroke-miterlimit:2.61310005;stroke-dasharray:none;stroke-opacity:1"
         d="m 23.3125,333.926 4.5391,1.57 4.5351,1.551 4.5274,1.558 4.5312,1.583 4.5352,1.539 4.539,1.574 4.5352,1.562 4.5312,1.571 4.5352,1.558 4.5312,1.563 4.5391,1.558 4.5313,1.555 4.539,1.578 4.5313,1.551 4.539,1.582 4.5274,1.559 4.5426,1.566 4.536,1.574 4.527,1.567 4.535,1.543 4.523,1.562 4.539,1.566 4.536,1.559 4.535,1.563 4.531,1.57 4.535,1.562 4.535,1.567 4.539,1.558 4.528,1.571 4.543,1.574 4.523,1.543 4.535,1.574 4.532,1.559 4.539,1.554 4.527,1.571 4.539,1.578 4.543,1.551 4.531,1.566 4.528,1.555 4.539,1.566 4.535,1.566 4.531,1.567 4.535,1.558 4.535,1.571 4.543,1.562 4.524,1.567 4.527,1.558 4.535,1.559 4.535,1.566 4.543,1.563 4.524,1.57 4.547,1.559 4.523,1.562 4.535,1.567 4.536,1.562 4.531,1.563 4.547,1.554 4.519,1.574 4.539,1.563 4.535,1.566 4.536,1.563 4.535,1.57 4.527,1.555 4.543,1.574 4.535,1.547 4.539,1.578 4.512,1.555 4.547,1.566 4.531,1.559 4.527,1.558 4.543,1.571 4.539,1.574 4.536,1.562 4.515,1.567 4.539,1.555 4.543,1.558 4.516,1.566 4.551,1.555 4.515,1.571 4.551,1.558 4.527,1.578 4.547,1.551 4.516,1.559 4.551,1.574 4.527,1.554 4.52,1.575 4.546,1.566 4.539,1.574 4.54,1.543 4.523,1.571 4.531,1.558 4.547,1.571 4.52,1.57 4.543,1.551 4.531,1.562 4.535,1.567 4.523,1.546 4.551,1.579 4.516,1.566 4.551,1.555 4.519,1.566 4.551,1.57 4.519,1.575 4.551,1.546 4.52,1.567 4.535,1.566 4.543,1.555 4.527,1.566 4.532,1.578 4.539,1.551 4.531,1.567 4.535,1.55 4.535,1.575 4.535,1.562 4.524,1.567 4.543,1.562 4.535,1.57 4.527,1.559 4.531,1.555 4.551,1.574 4.528,1.555 4.535,1.578 4.535,1.55 4.527,1.567 4.543,1.555 4.531,1.566 4.532,1.559 4.535,1.566 4.527,1.578 4.547,1.563 4.52,1.558 4.55,1.551 4.536,1.578 4.523,1.555 4.527,1.574 4.547,1.555 4.52,1.566 4.539,1.555 4.531,1.582 4.539,1.558 4.524,1.563 4.539,1.559 4.539,1.57 4.535,1.562 4.523,1.559 4.543,1.562 4.528,1.571 4.539,1.558 4.543,1.563 4.519,1.566 4.543,1.567 4.539,1.566 4.524,1.555 4.543,1.562 4.523,1.567 4.539,1.558 4.527,1.571 4.54,1.558 4.535,1.567 4.531,1.57 4.539,1.57 4.527,1.551 4.535,1.566 4.543,1.555 4.524,1.574 4.539,1.567 4.535,1.554 4.531,1.563 4.539,1.57 4.539,1.547 4.532,1.57 4.523,1.571 4.539,1.562 4.539,1.563 4.528,1.562 4.535,1.57 4.531,1.563 4.535,1.562 4.539,1.563 4.532,1.562 4.527,1.551 4.555,1.563 4.519,1.57 4.547,1.57 4.523,1.559 4.532,1.582 4.531,1.551 4.543,1.574 4.519,1.559 4.547,1.562 4.535,1.551 4.524,1.562 4.539,1.575 4.539,1.562 4.531,1.57 4.539,1.543 4.532,1.575 4.535,1.554 4.531,1.563 4.535,1.57" /><path
         id="path132"
         style="fill:#231f20;fill-opacity:1;fill-rule:nonzero;stroke:none"
         d="m 407.453,941.766 c 1.102,-1.879 1.867,-3.649 2.301,-5.282 0.414,-1.648 0.832,-4.882 1.266,-9.699 l 2.148,-24.015 c 1.949,2.332 4.785,6.046 8.5,11.132 1.785,2.465 4,5.832 6.633,10.098 1.601,2.598 2.57,4.434 2.933,5.469 0.188,0.515 0.286,1.066 0.286,1.613 0,0.352 -0.098,0.652 -0.336,0.887 -0.231,0.215 -0.817,0.48 -1.782,0.801 -0.968,0.296 -1.765,0.882 -2.398,1.699 -0.637,0.832 -0.953,1.781 -0.953,2.867 0,1.332 0.402,2.398 1.183,3.215 0.766,0.816 1.75,1.215 2.918,1.215 1.434,0 2.653,-0.582 3.664,-1.782 1.02,-1.183 1.52,-2.816 1.52,-4.902 0,-2.562 -0.883,-5.516 -2.633,-8.812 -1.769,-3.301 -5.148,-8.372 -10.168,-15.2 -5,-6.851 -11.082,-14.3 -18.199,-22.371 -4.914,-5.566 -8.566,-9.082 -10.949,-10.531 -2.367,-1.434 -4.403,-2.168 -6.102,-2.168 -1.015,0 -1.898,0.383 -2.664,1.152 -0.769,0.766 -1.133,1.649 -1.133,2.664 0,1.27 0.516,2.418 1.582,3.469 1.051,1.035 2.2,1.551 3.434,1.551 0.648,0 1.199,-0.133 1.617,-0.434 0.266,-0.168 0.547,-0.632 0.848,-1.402 0.316,-0.746 0.601,-1.266 0.867,-1.531 0.148,-0.168 0.352,-0.235 0.582,-0.235 0.184,0 0.535,0.153 1.02,0.485 1.8,1.101 3.882,2.867 6.25,5.265 3.132,3.2 5.433,5.801 6.933,7.817 l -2.734,30.953 c -0.449,5.113 -1.133,8.23 -2.051,9.328 -0.918,1.102 -2.434,1.668 -4.586,1.668 -0.68,0 -1.914,-0.098 -3.664,-0.301 l -0.434,1.801 14.301,3.516" /><path
         id="path134"
         style="fill:#231f20;fill-opacity:1;fill-rule:nonzero;stroke:none"
         d="m 1494.61,931.988 c 1.1,-1.883 1.87,-3.652 2.3,-5.285 0.42,-1.648 0.83,-4.883 1.27,-9.699 l 2.14,-24.016 c 1.96,2.332 4.79,6.051 8.51,11.133 1.78,2.465 4,5.832 6.63,10.098 1.6,2.601 2.57,4.433 2.93,5.469 0.19,0.515 0.29,1.066 0.29,1.617 0,0.351 -0.1,0.648 -0.34,0.883 -0.23,0.214 -0.81,0.484 -1.78,0.8 -0.97,0.301 -1.77,0.883 -2.4,1.7 -0.63,0.835 -0.95,1.785 -0.95,2.867 0,1.332 0.4,2.402 1.18,3.218 0.77,0.817 1.75,1.215 2.92,1.215 1.43,0 2.65,-0.586 3.67,-1.785 1.01,-1.183 1.51,-2.816 1.51,-4.898 0,-2.567 -0.88,-5.516 -2.63,-8.817 -1.77,-3.3 -5.15,-8.367 -10.16,-15.199 -5,-6.851 -11.09,-14.301 -18.21,-22.367 -4.91,-5.567 -8.56,-9.082 -10.95,-10.535 -2.36,-1.43 -4.4,-2.164 -6.1,-2.164 -1.01,0 -1.9,0.382 -2.66,1.152 -0.77,0.762 -1.14,1.648 -1.14,2.664 0,1.266 0.52,2.418 1.59,3.465 1.05,1.035 2.2,1.551 3.43,1.551 0.65,0 1.2,-0.133 1.62,-0.434 0.26,-0.168 0.55,-0.633 0.85,-1.398 0.31,-0.75 0.6,-1.27 0.86,-1.535 0.15,-0.165 0.35,-0.235 0.59,-0.235 0.18,0 0.53,0.152 1.01,0.488 1.8,1.098 3.89,2.864 6.25,5.266 3.14,3.195 5.44,5.801 6.94,7.813 l -2.74,30.953 c -0.45,5.117 -1.13,8.23 -2.05,9.332 -0.91,1.097 -2.43,1.664 -4.58,1.664 -0.68,0 -1.92,-0.098 -3.66,-0.297 l -0.44,1.797 14.3,3.519" /><path
         id="path136"
         style="fill:#231f20;fill-opacity:1;fill-rule:nonzero;stroke:none"
         d="m 1635.66,461.43 16.13,7.863 h 1.61 v -55.914 c 0,-3.703 0.15,-6.02 0.45,-6.934 0.32,-0.902 0.97,-1.601 1.93,-2.101 0.99,-0.485 2.97,-0.766 5.97,-0.832 v -1.801 h -24.92 v 1.801 c 3.13,0.066 5.15,0.336 6.07,0.816 0.9,0.469 1.53,1.098 1.9,1.899 0.35,0.8 0.54,3.183 0.54,7.152 v 35.75 c 0,4.816 -0.17,7.898 -0.49,9.266 -0.23,1.05 -0.65,1.816 -1.25,2.3 -0.6,0.485 -1.31,0.735 -2.17,0.735 -1.2,0 -2.88,-0.504 -5.03,-1.52 l -0.74,1.52" /><path
         id="path138"
         style="fill:#231f20;fill-opacity:1;fill-rule:nonzero;stroke:none"
         d="m 1512.51,611.008 16.12,7.867 h 1.62 v -55.914 c 0,-3.703 0.14,-6.02 0.45,-6.934 0.31,-0.902 0.96,-1.601 1.93,-2.101 0.98,-0.485 2.97,-0.766 5.97,-0.832 v -1.801 h -24.92 v 1.801 c 3.13,0.066 5.15,0.332 6.07,0.816 0.9,0.465 1.53,1.098 1.89,1.899 0.36,0.8 0.54,3.183 0.54,7.152 v 35.75 c 0,4.816 -0.17,7.898 -0.48,9.266 -0.24,1.046 -0.65,1.816 -1.25,2.296 -0.61,0.489 -1.32,0.735 -2.17,0.735 -1.2,0 -2.88,-0.5 -5.03,-1.516 l -0.74,1.516" /><path
         id="path140"
         style="fill:#231f20;fill-opacity:1;fill-rule:nonzero;stroke:none"
         d="m 1483.09,446.484 c 0,7.547 1.13,14.047 3.41,19.5 2.29,5.45 5.3,9.516 9.09,12.184 2.93,2.117 5.95,3.184 9.08,3.184 5.07,0 9.63,-2.602 13.67,-7.77 5.05,-6.418 7.57,-15.098 7.57,-26.082 0,-7.684 -1.11,-14.199 -3.32,-19.566 -2.22,-5.383 -5.04,-9.282 -8.47,-11.7 -3.43,-2.433 -6.75,-3.636 -9.95,-3.636 -6.3,0 -11.56,3.718 -15.76,11.187 -3.55,6.281 -5.32,13.848 -5.32,22.699 z m 9.57,-1.214 c 0,-9.122 1.11,-16.571 3.36,-22.317 1.85,-4.851 4.64,-7.285 8.3,-7.285 1.77,0 3.59,0.801 5.47,2.363 1.9,1.586 3.33,4.239 4.3,7.938 1.5,5.597 2.25,13.496 2.25,23.679 0,7.551 -0.79,13.852 -2.35,18.899 -1.17,3.75 -2.69,6.402 -4.53,7.969 -1.34,1.066 -2.96,1.601 -4.84,1.601 -2.22,0 -4.18,-0.984 -5.92,-2.969 -2.33,-2.699 -3.93,-6.949 -4.78,-12.75 -0.85,-5.796 -1.26,-11.5 -1.26,-17.128" /><path
         id="path142"
         style="fill:#ffffff;fill-opacity:1;fill-rule:evenodd;stroke:none"
         d="m 2267.59,5.26953 h 915.957 v 947.578 H 2267.59 Z" /><path
         id="path144"
         style="fill:none;stroke:#0b0c0b;stroke-width:2.16000009;stroke-linecap:butt;stroke-linejoin:miter;stroke-miterlimit:2.61310005;stroke-dasharray:none;stroke-opacity:1"
         d="m 2267.59,5.26953 h 915.957 v 947.578 H 2267.59 Z" /><path
         id="path146"
         style="fill:none;stroke:#101211;stroke-width:2.16000009;stroke-linecap:butt;stroke-linejoin:miter;stroke-miterlimit:2.61310005;stroke-dasharray:none;stroke-opacity:1"
         d="M 2359.18,5.26953 V 952.848" /><path
         id="path148"
         style="fill:none;stroke:#101211;stroke-width:2.16000009;stroke-linecap:butt;stroke-linejoin:miter;stroke-miterlimit:2.61310005;stroke-dasharray:none;stroke-opacity:1"
         d="M 2450.78,5.26953 V 952.848" /><path
         id="path150"
         style="fill:none;stroke:#101211;stroke-width:2.16000009;stroke-linecap:butt;stroke-linejoin:miter;stroke-miterlimit:2.61310005;stroke-dasharray:none;stroke-opacity:1"
         d="M 2542.38,5.26953 V 952.848" /><path
         id="path152"
         style="fill:none;stroke:#101211;stroke-width:2.16000009;stroke-linecap:butt;stroke-linejoin:miter;stroke-miterlimit:2.61310005;stroke-dasharray:none;stroke-opacity:1"
         d="M 2633.96,5.26953 V 952.848" /><path
         id="path154"
         style="fill:none;stroke:#101211;stroke-width:2.16000009;stroke-linecap:butt;stroke-linejoin:miter;stroke-miterlimit:2.61310005;stroke-dasharray:none;stroke-opacity:1"
         d="M 2725.56,5.26953 V 952.848" /><path
         id="path156"
         style="fill:none;stroke:#101211;stroke-width:2.16000009;stroke-linecap:butt;stroke-linejoin:miter;stroke-miterlimit:2.61310005;stroke-dasharray:none;stroke-opacity:1"
         d="M 2817.17,5.26953 V 952.848" /><path
         id="path158"
         style="fill:none;stroke:#101211;stroke-width:2.16000009;stroke-linecap:butt;stroke-linejoin:miter;stroke-miterlimit:2.61310005;stroke-dasharray:none;stroke-opacity:1"
         d="M 2908.75,5.26953 V 952.848" /><path
         id="path160"
         style="fill:none;stroke:#101211;stroke-width:2.16000009;stroke-linecap:butt;stroke-linejoin:miter;stroke-miterlimit:2.61310005;stroke-dasharray:none;stroke-opacity:1"
         d="M 3000.35,5.26953 V 952.848" /><path
         id="path162"
         style="fill:none;stroke:#101211;stroke-width:2.16000009;stroke-linecap:butt;stroke-linejoin:miter;stroke-miterlimit:2.61310005;stroke-dasharray:none;stroke-opacity:1"
         d="M 3091.96,5.26953 V 952.848" /><path
         id="path164"
         style="fill:none;stroke:#101211;stroke-width:2.16000009;stroke-linecap:butt;stroke-linejoin:miter;stroke-miterlimit:2.61310005;stroke-dasharray:none;stroke-opacity:1"
         d="m 2267.59,100.023 h 915.96" /><path
         id="path166"
         style="fill:none;stroke:#101211;stroke-width:2.16000009;stroke-linecap:butt;stroke-linejoin:miter;stroke-miterlimit:2.61310005;stroke-dasharray:none;stroke-opacity:1"
         d="m 2267.59,194.789 h 915.96" /><path
         id="path168"
         style="fill:none;stroke:#101211;stroke-width:2.16000009;stroke-linecap:butt;stroke-linejoin:miter;stroke-miterlimit:2.61310005;stroke-dasharray:none;stroke-opacity:1"
         d="m 2267.59,289.539 h 915.96" /><path
         id="path170"
         style="fill:none;stroke:#101211;stroke-width:2.16000009;stroke-linecap:butt;stroke-linejoin:miter;stroke-miterlimit:2.61310005;stroke-dasharray:none;stroke-opacity:1"
         d="m 2267.59,384.305 h 915.96" /><path
         id="path172"
         style="fill:none;stroke:#101211;stroke-width:2.16000009;stroke-linecap:butt;stroke-linejoin:miter;stroke-miterlimit:2.61310005;stroke-dasharray:none;stroke-opacity:1"
         d="m 2267.59,479.059 h 915.96" /><path
         id="path174"
         style="fill:none;stroke:#101211;stroke-width:2.16000009;stroke-linecap:butt;stroke-linejoin:miter;stroke-miterlimit:2.61310005;stroke-dasharray:none;stroke-opacity:1"
         d="m 2267.59,573.812 h 915.96" /><path
         id="path176"
         style="fill:none;stroke:#101211;stroke-width:2.16000009;stroke-linecap:butt;stroke-linejoin:miter;stroke-miterlimit:2.61310005;stroke-dasharray:none;stroke-opacity:1"
         d="m 2267.59,668.57 h 915.96" /><path
         id="path178"
         style="fill:none;stroke:#101211;stroke-width:2.16000009;stroke-linecap:butt;stroke-linejoin:miter;stroke-miterlimit:2.61310005;stroke-dasharray:none;stroke-opacity:1"
         d="m 2267.59,763.328 h 915.96" /><path
         id="path180"
         style="fill:none;stroke:#101211;stroke-width:2.16000009;stroke-linecap:butt;stroke-linejoin:miter;stroke-miterlimit:2.61310005;stroke-dasharray:none;stroke-opacity:1"
         d="m 2267.59,858.094 h 915.96" /><path
         id="path182"
         style="fill:none;stroke:#231f20;stroke-width:7.5005002;stroke-linecap:butt;stroke-linejoin:miter;stroke-miterlimit:2.61310005;stroke-dasharray:none;stroke-opacity:1"
         d="M 2267.59,479.059 H 3139.8" /><path
         id="path184"
         style="fill:#231f20;fill-opacity:1;fill-rule:evenodd;stroke:none"
         d="m 3135.65,505.41 47.9,-26.351 -47.9,-26.348 v 52.699" /><path
         id="path186"
         style="fill:none;stroke:#0b0c0b;stroke-width:7.5005002;stroke-linecap:butt;stroke-linejoin:miter;stroke-miterlimit:2.61310005;stroke-dasharray:none;stroke-opacity:1"
         d="m 2267.59,422.203 4.57,-0.578 4.59,-0.582 4.57,-0.605 4.58,-0.606 4.59,-0.621 4.58,-0.633 4.58,-0.656 4.58,-0.656 4.57,-0.68 4.59,-0.695 4.57,-0.715 4.58,-0.731 4.58,-0.742 4.59,-0.754 4.58,-0.785 4.57,-0.785 4.59,-0.82 4.57,-0.844 4.59,-0.856 4.57,-0.879 4.58,-0.89 4.59,-0.922 4.58,-0.953 4.57,-0.957 4.58,-1.004 4.58,-1.02 4.57,-1.058 4.59,-1.082 4.59,-1.114 4.57,-1.156 4.59,-1.168 4.57,-1.211 4.59,-1.25 4.58,-1.281 4.57,-1.324 4.58,-1.375 4.58,-1.399 4.58,-1.464 4.58,-1.504 4.58,-1.543 4.58,-1.617 4.58,-1.661 4.58,-1.715 4.58,-1.773 4.58,-1.855 4.58,-1.911 4.58,-1.992 4.57,-2.062 4.58,-2.141 4.59,-2.238 4.57,-2.32 4.58,-2.411 4.59,-2.527 4.58,-2.625 4.58,-2.754 4.58,-2.855 4.58,-3.008 4.57,-3.152 4.59,-3.297 4.58,-3.469 4.57,-3.649 4.59,-3.832 4.58,-4.046 4.57,-4.262 4.6,-4.52 4.57,-4.781 4.57,-5.051 4.58,-5.394 4.58,-5.735 4.57,-6.113 4.59,-6.527 4.58,-7.004 4.58,-7.528 4.58,-8.093 4.59,-8.742 4.57,-9.485 4.58,-10.293 4.59,-11.234 4.57,-12.317 4.57,-13.527 4.59,-14.965 4.58,-16.625 4.58,-18.574 4.59,-20.902 4.57,-23.7 4.58,-27.0699 4.59,-31.2343 4.56,-36.44927 v 0" /><path
         id="path188"
         style="fill:none;stroke:#0b0c0b;stroke-width:7.5005002;stroke-linecap:butt;stroke-linejoin:miter;stroke-miterlimit:2.61310005;stroke-dasharray:none;stroke-opacity:1"
         d="m 2721,5.26953 0.01,903.82847" /><path
         id="path190"
         style="fill:#0b0c0b;fill-opacity:1;fill-rule:evenodd;stroke:none"
         d="m 2694.66,904.945 26.35,47.903 26.35,-47.903 h -52.7" /><path
         id="path192"
         style="fill:none;stroke:#0b0c0b;stroke-width:7.5005002;stroke-linecap:butt;stroke-linejoin:miter;stroke-miterlimit:2.61310005;stroke-dasharray:none;stroke-opacity:1"
         d="m 2780.53,952.848 v 0 l 4.58,-36.45 4.58,-31.234 4.58,-27.07 4.59,-23.699 4.56,-20.907 4.58,-18.57 4.58,-16.625 4.59,-14.965 4.58,-13.527 4.57,-12.317 4.59,-11.238 4.57,-10.293 4.58,-9.48 4.59,-8.746 4.58,-8.09 4.57,-7.528 4.58,-7.004 4.58,-6.535 4.58,-6.109 4.59,-5.731 4.58,-5.394 4.58,-5.055 4.57,-4.777 4.59,-4.52 4.57,-4.261 4.57,-4.051 4.59,-3.828 4.57,-3.649 4.59,-3.468 4.58,-3.301 4.58,-3.153 4.58,-3.007 4.58,-2.852 4.58,-2.758 4.58,-2.621 4.58,-2.527 4.58,-2.41 4.58,-2.325 4.58,-2.234 4.58,-2.141 4.59,-2.062 4.56,-1.992 4.59,-1.91 4.56,-1.856 4.59,-1.773 4.6,-1.715 4.57,-1.664 4.57,-1.614 4.59,-1.542 4.58,-1.504 4.57,-1.465 4.6,-1.399 4.58,-1.375 4.56,-1.328 4.58,-1.281 4.59,-1.25 4.57,-1.207 4.59,-1.172 4.58,-1.156 4.58,-1.11 4.58,-1.082 4.57,-1.058 4.58,-1.02 4.58,-1.004 4.58,-0.961 4.58,-0.949 4.58,-0.922 4.59,-0.89 4.57,-0.879 4.59,-0.856 4.58,-0.843 4.57,-0.821 4.58,-0.789 4.59,-0.781 4.58,-0.758 4.58,-0.742 4.57,-0.73 4.57,-0.711 4.58,-0.696 4.58,-0.679 4.59,-0.661 4.58,-0.652 4.58,-0.637 4.58,-0.621 4.58,-0.601 4.58,-0.61 4.57,-0.578 4.59,-0.578" /><path
         id="path194"
         style="fill:#231f20;fill-opacity:1;fill-rule:nonzero;stroke:none"
         d="m 2798.68,451.613 16.12,7.864 h 1.61 v -55.915 c 0,-3.703 0.15,-6.019 0.45,-6.933 0.32,-0.902 0.97,-1.602 1.94,-2.102 0.98,-0.484 2.96,-0.765 5.96,-0.832 v -1.8 h -24.91 v 1.8 c 3.13,0.067 5.15,0.336 6.06,0.817 0.9,0.468 1.54,1.097 1.9,1.898 0.35,0.801 0.54,3.184 0.54,7.152 v 35.75 c 0,4.817 -0.17,7.899 -0.49,9.266 -0.23,1.051 -0.65,1.817 -1.25,2.301 -0.6,0.484 -1.31,0.734 -2.16,0.734 -1.2,0 -2.89,-0.504 -5.04,-1.519 l -0.73,1.519" /><path
         id="path196"
         style="fill:#231f20;fill-opacity:1;fill-rule:nonzero;stroke:none"
         d="m 2682.34,598.922 16.11,7.867 h 1.62 v -55.914 c 0,-3.703 0.15,-6.02 0.45,-6.934 0.32,-0.902 0.97,-1.601 1.93,-2.101 0.99,-0.485 2.97,-0.766 5.97,-0.832 v -1.801 h -24.92 v 1.801 c 3.14,0.066 5.16,0.332 6.07,0.816 0.9,0.465 1.54,1.098 1.9,1.899 0.35,0.8 0.53,3.183 0.53,7.152 v 35.75 c 0,4.813 -0.16,7.898 -0.48,9.266 -0.23,1.047 -0.65,1.816 -1.25,2.297 -0.6,0.484 -1.32,0.734 -2.16,0.734 -1.21,0 -2.89,-0.5 -5.04,-1.516 l -0.73,1.516" /><path
         id="path198"
         style="fill:#231f20;fill-opacity:1;fill-rule:nonzero;stroke:none"
         d="m 2658.25,423.777 c 0,7.547 1.13,14.047 3.41,19.496 2.29,5.454 5.3,9.516 9.09,12.184 2.93,2.117 5.95,3.184 9.08,3.184 5.06,0 9.63,-2.598 13.66,-7.766 5.05,-6.418 7.57,-15.102 7.57,-26.086 0,-7.68 -1.1,-14.195 -3.31,-19.562 -2.22,-5.383 -5.04,-9.286 -8.47,-11.704 -3.44,-2.429 -6.75,-3.632 -9.95,-3.632 -6.3,0 -11.57,3.718 -15.77,11.183 -3.55,6.285 -5.31,13.852 -5.31,22.703 z m 9.56,-1.218 c 0,-9.118 1.12,-16.567 3.37,-22.317 1.85,-4.847 4.63,-7.285 8.3,-7.285 1.77,0 3.58,0.805 5.47,2.367 1.89,1.586 3.33,4.235 4.29,7.934 1.5,5.597 2.26,13.5 2.26,23.683 0,7.551 -0.79,13.852 -2.36,18.899 -1.16,3.75 -2.68,6.402 -4.53,7.969 -1.33,1.066 -2.95,1.597 -4.83,1.597 -2.22,0 -4.19,-0.984 -5.92,-2.965 -2.33,-2.699 -3.93,-6.949 -4.78,-12.75 -0.85,-5.8 -1.27,-11.5 -1.27,-17.132" /><path
         id="path200"
         style="fill:#231f20;fill-opacity:1;fill-rule:nonzero;stroke:none"
         d="m 2660.16,928.961 c 1.1,-1.883 1.87,-3.652 2.3,-5.285 0.42,-1.649 0.83,-4.883 1.27,-9.699 l 2.15,-24.016 c 1.94,2.332 4.78,6.051 8.5,11.133 1.78,2.465 4,5.832 6.63,10.097 1.6,2.602 2.57,4.434 2.93,5.469 0.19,0.516 0.29,1.067 0.29,1.617 0,0.352 -0.1,0.649 -0.34,0.883 -0.23,0.215 -0.82,0.485 -1.78,0.801 -0.97,0.301 -1.77,0.883 -2.4,1.699 -0.64,0.836 -0.95,1.785 -0.95,2.867 0,1.332 0.4,2.403 1.18,3.219 0.77,0.816 1.75,1.215 2.92,1.215 1.43,0 2.65,-0.586 3.66,-1.785 1.02,-1.184 1.52,-2.817 1.52,-4.899 0,-2.566 -0.88,-5.515 -2.63,-8.816 -1.77,-3.301 -5.15,-8.367 -10.17,-15.199 -5,-6.852 -11.08,-14.301 -18.2,-22.367 -4.91,-5.567 -8.56,-9.083 -10.95,-10.536 -2.36,-1.429 -4.4,-2.164 -6.1,-2.164 -1.01,0 -1.9,0.383 -2.66,1.153 -0.77,0.761 -1.13,1.648 -1.13,2.664 0,1.265 0.51,2.418 1.58,3.465 1.05,1.035 2.2,1.55 3.43,1.55 0.65,0 1.2,-0.132 1.62,-0.433 0.26,-0.168 0.55,-0.633 0.85,-1.399 0.31,-0.75 0.6,-1.269 0.86,-1.535 0.15,-0.164 0.35,-0.234 0.58,-0.234 0.19,0 0.54,0.152 1.02,0.488 1.81,1.098 3.89,2.863 6.25,5.266 3.14,3.195 5.44,5.8 6.94,7.812 l -2.74,30.953 c -0.45,5.117 -1.13,8.231 -2.05,9.332 -0.92,1.098 -2.43,1.664 -4.58,1.664 -0.68,0 -1.92,-0.097 -3.67,-0.296 l -0.43,1.796 14.3,3.52" /><path
         id="path202"
         style="fill:#231f20;fill-opacity:1;fill-rule:nonzero;stroke:none"
         d="m 864.93,459.547 c 1.597,-1.684 2.8,-3.387 3.617,-5.067 0.582,-1.183 1.551,-4.25 2.883,-9.234 l 4.297,6.449 c 1.136,1.551 2.519,3.051 4.152,4.465 1.613,1.418 3.051,2.387 4.281,2.902 0.785,0.333 1.652,0.485 2.602,0.485 1.398,0 2.5,-0.367 3.332,-1.117 0.832,-0.75 1.25,-1.668 1.25,-2.735 0,-1.23 -0.25,-2.082 -0.735,-2.531 -0.914,-0.816 -1.949,-1.234 -3.113,-1.234 -0.684,0 -1.418,0.148 -2.199,0.449 -1.535,0.516 -2.57,0.785 -3.086,0.785 -0.781,0 -1.699,-0.469 -2.785,-1.367 -2.016,-1.703 -4.414,-4.969 -7.215,-9.817 l 4,-16.8 c 0.617,-2.567 1.133,-4.118 1.566,-4.618 0.418,-0.5 0.832,-0.75 1.266,-0.75 0.684,0 1.484,0.368 2.387,1.118 1.8,1.5 3.316,3.449 4.597,5.867 l 1.7,-0.883 c -2.047,-3.852 -4.649,-7.031 -7.813,-9.566 -1.785,-1.434 -3.305,-2.153 -4.539,-2.153 -1.813,0 -3.262,1.02 -4.348,3.067 -0.683,1.269 -2.097,6.754 -4.25,16.418 -5.066,-8.832 -9.132,-14.5 -12.199,-17.051 -1.984,-1.613 -3.898,-2.434 -5.766,-2.434 -1.3,0 -2.484,0.469 -3.566,1.418 -0.766,0.715 -1.168,1.668 -1.168,2.883 0,1.066 0.367,1.965 1.086,2.684 0.699,0.718 1.582,1.066 2.633,1.066 1.031,0 2.148,-0.516 3.316,-1.566 0.848,-0.75 1.5,-1.118 1.949,-1.118 0.399,0 0.899,0.27 1.516,0.786 1.535,1.23 3.617,3.898 6.25,7.996 2.633,4.105 4.367,7.07 5.184,8.902 -2.032,7.899 -3.117,12.086 -3.282,12.535 -0.753,2.114 -1.718,3.614 -2.933,4.5 -1.199,0.883 -2.969,1.317 -5.32,1.317 -0.747,0 -1.614,-0.036 -2.582,-0.102 v 1.766 l 13.035,2.285" /><path
         id="path204"
         style="fill:#231f20;fill-opacity:1;fill-rule:nonzero;stroke:none"
         d="m 1948.74,450.465 c 1.6,-1.684 2.8,-3.387 3.62,-5.067 0.58,-1.183 1.55,-4.253 2.88,-9.234 l 4.3,6.449 c 1.13,1.551 2.51,3.051 4.15,4.465 1.61,1.418 3.05,2.387 4.28,2.902 0.78,0.332 1.65,0.485 2.6,0.485 1.4,0 2.5,-0.367 3.33,-1.117 0.84,-0.75 1.25,-1.668 1.25,-2.735 0,-1.23 -0.24,-2.082 -0.73,-2.531 -0.92,-0.816 -1.95,-1.234 -3.12,-1.234 -0.68,0 -1.41,0.148 -2.19,0.449 -1.54,0.515 -2.57,0.785 -3.09,0.785 -0.78,0 -1.7,-0.469 -2.78,-1.367 -2.02,-1.703 -4.42,-4.969 -7.22,-9.817 l 4,-16.8 c 0.62,-2.567 1.13,-4.118 1.57,-4.618 0.41,-0.5 0.83,-0.75 1.27,-0.75 0.68,0 1.48,0.368 2.38,1.118 1.8,1.5 3.31,3.449 4.6,5.863 l 1.7,-0.879 c -2.05,-3.852 -4.65,-7.035 -7.82,-9.566 -1.78,-1.434 -3.3,-2.153 -4.53,-2.153 -1.82,0 -3.27,1.016 -4.35,3.067 -0.68,1.265 -2.1,6.754 -4.25,16.418 -5.07,-8.832 -9.14,-14.5 -12.2,-17.051 -1.98,-1.613 -3.9,-2.434 -5.77,-2.434 -1.3,0 -2.48,0.469 -3.57,1.418 -0.76,0.715 -1.16,1.664 -1.16,2.883 0,1.066 0.36,1.965 1.08,2.684 0.7,0.718 1.58,1.066 2.64,1.066 1.03,0 2.14,-0.516 3.31,-1.566 0.85,-0.75 1.5,-1.118 1.95,-1.118 0.4,0 0.9,0.27 1.52,0.786 1.53,1.23 3.61,3.898 6.25,7.996 2.63,4.101 4.36,7.066 5.18,8.902 -2.03,7.898 -3.11,12.082 -3.28,12.535 -0.75,2.113 -1.72,3.613 -2.93,4.496 -1.2,0.887 -2.97,1.321 -5.32,1.321 -0.75,0 -1.62,-0.036 -2.59,-0.102 v 1.766 l 13.04,2.285" /><path
         id="path206"
         style="fill:#231f20;fill-opacity:1;fill-rule:nonzero;stroke:none"
         d="m 3111.26,438.355 c 1.6,-1.683 2.8,-3.386 3.62,-5.066 0.58,-1.184 1.55,-4.254 2.88,-9.234 l 4.3,6.449 c 1.14,1.551 2.52,3.051 4.15,4.465 1.61,1.418 3.05,2.383 4.28,2.902 0.79,0.332 1.65,0.484 2.6,0.484 1.4,0 2.5,-0.367 3.34,-1.117 0.83,-0.754 1.25,-1.668 1.25,-2.734 0,-1.231 -0.25,-2.082 -0.74,-2.535 -0.91,-0.817 -1.95,-1.231 -3.11,-1.231 -0.69,0 -1.42,0.149 -2.2,0.45 -1.54,0.515 -2.57,0.781 -3.09,0.781 -0.78,0 -1.7,-0.465 -2.78,-1.364 -2.02,-1.703 -4.42,-4.968 -7.22,-9.816 l 4,-16.801 c 0.62,-2.566 1.14,-4.117 1.57,-4.617 0.42,-0.5 0.83,-0.75 1.27,-0.75 0.68,0 1.48,0.367 2.38,1.117 1.8,1.5 3.32,3.45 4.6,5.864 l 1.7,-0.879 c -2.05,-3.852 -4.65,-7.035 -7.81,-9.567 -1.79,-1.437 -3.31,-2.152 -4.54,-2.152 -1.82,0 -3.27,1.016 -4.35,3.066 -0.68,1.266 -2.1,6.754 -4.25,16.418 -5.07,-8.832 -9.13,-14.5 -12.2,-17.05 -1.98,-1.614 -3.9,-2.434 -5.77,-2.434 -1.3,0 -2.48,0.469 -3.56,1.418 -0.77,0.715 -1.17,1.664 -1.17,2.883 0,1.066 0.37,1.965 1.09,2.683 0.7,0.715 1.58,1.067 2.63,1.067 1.03,0 2.15,-0.516 3.32,-1.567 0.84,-0.75 1.5,-1.117 1.94,-1.117 0.4,0 0.9,0.266 1.52,0.785 1.54,1.231 3.62,3.899 6.25,7.996 2.63,4.102 4.37,7.067 5.18,8.903 -2.03,7.898 -3.11,12.082 -3.28,12.535 -0.75,2.113 -1.72,3.613 -2.93,4.496 -1.2,0.887 -2.97,1.32 -5.32,1.32 -0.75,0 -1.61,-0.035 -2.58,-0.101 v 1.765 l 13.03,2.285" /></g></g></svg>