<?xml version="1.0" encoding="UTF-8" standalone="no"?>
<svg
   xmlns:dc="http://purl.org/dc/elements/1.1/"
   xmlns:cc="http://creativecommons.org/ns#"
   xmlns:rdf="http://www.w3.org/1999/02/22-rdf-syntax-ns#"
   xmlns:svg="http://www.w3.org/2000/svg"
   xmlns="http://www.w3.org/2000/svg"
   viewBox="0 0 440 125.33333"
   height="125.33333"
   width="440"
   xml:space="preserve"
   id="svg2"
   version="1.1"><metadata
     id="metadata8"><rdf:RDF><cc:Work
         rdf:about=""><dc:format>image/svg+xml</dc:format><dc:type
           rdf:resource="http://purl.org/dc/dcmitype/StillImage" /></cc:Work></rdf:RDF></metadata><defs
     id="defs6" /><g
     transform="matrix(1.3333333,0,0,-1.3333333,0,125.33333)"
     id="g10"><g
       transform="scale(0.1)"
       id="g12"><path
         id="path14"
         style="fill:none;stroke:#0b0c0b;stroke-width:2.16000009;stroke-linecap:butt;stroke-linejoin:miter;stroke-miterlimit:2.61310005;stroke-dasharray:none;stroke-opacity:1"
         d="m 1159.94,1.15234 h 1002.23 v 933.145 H 1159.94 Z" /><path
         id="path16"
         style="fill:none;stroke:#101211;stroke-width:2.16000009;stroke-linecap:butt;stroke-linejoin:miter;stroke-miterlimit:2.61310005;stroke-dasharray:none;stroke-opacity:1"
         d="M 1260.16,1.15234 V 934.297" /><path
         id="path18"
         style="fill:none;stroke:#101211;stroke-width:2.16000009;stroke-linecap:butt;stroke-linejoin:miter;stroke-miterlimit:2.61310005;stroke-dasharray:none;stroke-opacity:1"
         d="M 1360.39,1.15234 V 934.297" /><path
         id="path20"
         style="fill:none;stroke:#101211;stroke-width:2.16000009;stroke-linecap:butt;stroke-linejoin:miter;stroke-miterlimit:2.61310005;stroke-dasharray:none;stroke-opacity:1"
         d="M 1460.61,1.15234 V 934.297" /><path
         id="path22"
         style="fill:none;stroke:#101211;stroke-width:2.16000009;stroke-linecap:butt;stroke-linejoin:miter;stroke-miterlimit:2.61310005;stroke-dasharray:none;stroke-opacity:1"
         d="M 1560.84,1.15234 V 934.297" /><path
         id="path24"
         style="fill:none;stroke:#101211;stroke-width:2.16000009;stroke-linecap:butt;stroke-linejoin:miter;stroke-miterlimit:2.61310005;stroke-dasharray:none;stroke-opacity:1"
         d="M 1661.06,1.15234 V 934.297" /><path
         id="path26"
         style="fill:none;stroke:#101211;stroke-width:2.16000009;stroke-linecap:butt;stroke-linejoin:miter;stroke-miterlimit:2.61310005;stroke-dasharray:none;stroke-opacity:1"
         d="M 1761.28,1.15234 V 934.297" /><path
         id="path28"
         style="fill:none;stroke:#101211;stroke-width:2.16000009;stroke-linecap:butt;stroke-linejoin:miter;stroke-miterlimit:2.61310005;stroke-dasharray:none;stroke-opacity:1"
         d="M 1861.51,1.15234 V 934.297" /><path
         id="path30"
         style="fill:none;stroke:#101211;stroke-width:2.16000009;stroke-linecap:butt;stroke-linejoin:miter;stroke-miterlimit:2.61310005;stroke-dasharray:none;stroke-opacity:1"
         d="M 1961.73,1.15234 V 934.297" /><path
         id="path32"
         style="fill:none;stroke:#101211;stroke-width:2.16000009;stroke-linecap:butt;stroke-linejoin:miter;stroke-miterlimit:2.61310005;stroke-dasharray:none;stroke-opacity:1"
         d="M 2061.95,1.15234 V 934.297" /><path
         id="path34"
         style="fill:none;stroke:#101211;stroke-width:2.16000009;stroke-linecap:butt;stroke-linejoin:miter;stroke-miterlimit:2.61310005;stroke-dasharray:none;stroke-opacity:1"
         d="M 1159.94,104.832 H 2162.18" /><path
         id="path36"
         style="fill:none;stroke:#101211;stroke-width:2.16000009;stroke-linecap:butt;stroke-linejoin:miter;stroke-miterlimit:2.61310005;stroke-dasharray:none;stroke-opacity:1"
         d="M 1159.94,208.516 H 2162.18" /><path
         id="path38"
         style="fill:none;stroke:#101211;stroke-width:2.16000009;stroke-linecap:butt;stroke-linejoin:miter;stroke-miterlimit:2.61310005;stroke-dasharray:none;stroke-opacity:1"
         d="M 1159.94,312.199 H 2162.18" /><path
         id="path40"
         style="fill:none;stroke:#101211;stroke-width:2.16000009;stroke-linecap:butt;stroke-linejoin:miter;stroke-miterlimit:2.61310005;stroke-dasharray:none;stroke-opacity:1"
         d="M 1159.94,415.883 H 2162.18" /><path
         id="path42"
         style="fill:none;stroke:#101211;stroke-width:2.16000009;stroke-linecap:butt;stroke-linejoin:miter;stroke-miterlimit:2.61310005;stroke-dasharray:none;stroke-opacity:1"
         d="M 1159.94,519.566 H 2162.18" /><path
         id="path44"
         style="fill:none;stroke:#101211;stroke-width:2.16000009;stroke-linecap:butt;stroke-linejoin:miter;stroke-miterlimit:2.61310005;stroke-dasharray:none;stroke-opacity:1"
         d="M 1159.94,623.25 H 2162.18" /><path
         id="path46"
         style="fill:none;stroke:#101211;stroke-width:2.16000009;stroke-linecap:butt;stroke-linejoin:miter;stroke-miterlimit:2.61310005;stroke-dasharray:none;stroke-opacity:1"
         d="M 1159.94,726.93 H 2162.18" /><path
         id="path48"
         style="fill:none;stroke:#101211;stroke-width:2.16000009;stroke-linecap:butt;stroke-linejoin:miter;stroke-miterlimit:2.61310005;stroke-dasharray:none;stroke-opacity:1"
         d="M 1159.94,830.613 H 2162.18" /><path
         id="path50"
         style="fill:none;stroke:#231f20;stroke-width:7.5005002;stroke-linecap:butt;stroke-linejoin:miter;stroke-miterlimit:2.61310005;stroke-dasharray:none;stroke-opacity:1"
         d="m 1159.94,415.883 h 958.49" /><path
         id="path52"
         style="fill:#231f20;fill-opacity:1;fill-rule:evenodd;stroke:none"
         d="m 2114.28,442.23 47.9,-26.347 -47.9,-26.348 v 52.695" /><path
         id="path54"
         style="fill:none;stroke:#231f20;stroke-width:7.5005002;stroke-linecap:butt;stroke-linejoin:miter;stroke-miterlimit:2.61310005;stroke-dasharray:none;stroke-opacity:1"
         d="M 1661.15,1.15234 V 880.816" /><path
         id="path56"
         style="fill:#231f20;fill-opacity:1;fill-rule:evenodd;stroke:none"
         d="m 1634.8,876.664 26.35,47.898 26.35,-47.898 h -52.7" /><path
         id="path58"
         style="fill:none;stroke:#0b0c0b;stroke-width:7.5005002;stroke-linecap:butt;stroke-linejoin:miter;stroke-miterlimit:2.61310005;stroke-dasharray:none;stroke-opacity:1"
         d="m 1641.01,1.15234 5.01,25.92186 5.02,25.918 5.01,25.9219 5.01,25.9179 5.01,25.926 5.01,25.918 5.01,25.922 5.02,25.918 5.01,25.925 5,25.918 5.02,25.922 5.01,25.918 5.01,25.922 5.01,25.922 5.01,25.918 5.02,25.922 5.01,25.922 5.01,25.922 5.01,25.918 5.01,25.921 5.01,25.922 5.01,25.918 5.01,25.922 5.01,25.922 5.01,25.922 5.01,25.918 5.02,25.922 5.01,25.918 5.01,25.925 5.01,25.918 5.01,25.922 5.01,25.918 5.01,25.922 5.01,25.922 5.02,25.918 5.01,25.922 v 0" /><path
         id="path60"
         style="fill:none;stroke:#0b0c0b;stroke-width:2.16000009;stroke-linecap:butt;stroke-linejoin:miter;stroke-miterlimit:2.61310005;stroke-dasharray:none;stroke-opacity:1"
         d="M 3.44531,1.15234 H 1005.6853 v 933.145 H 3.44531 Z" /><path
         id="path62"
         style="fill:none;stroke:#101211;stroke-width:2.16000009;stroke-linecap:butt;stroke-linejoin:miter;stroke-miterlimit:2.61310005;stroke-dasharray:none;stroke-opacity:1"
         d="M 103.672,1.15234 V 934.297" /><path
         id="path64"
         style="fill:none;stroke:#101211;stroke-width:2.16000009;stroke-linecap:butt;stroke-linejoin:miter;stroke-miterlimit:2.61310005;stroke-dasharray:none;stroke-opacity:1"
         d="M 203.895,1.15234 V 934.297" /><path
         id="path66"
         style="fill:none;stroke:#101211;stroke-width:2.16000009;stroke-linecap:butt;stroke-linejoin:miter;stroke-miterlimit:2.61310005;stroke-dasharray:none;stroke-opacity:1"
         d="M 304.117,1.15234 V 934.297" /><path
         id="path68"
         style="fill:none;stroke:#101211;stroke-width:2.16000009;stroke-linecap:butt;stroke-linejoin:miter;stroke-miterlimit:2.61310005;stroke-dasharray:none;stroke-opacity:1"
         d="M 404.344,1.15234 V 934.297" /><path
         id="path70"
         style="fill:none;stroke:#101211;stroke-width:2.16000009;stroke-linecap:butt;stroke-linejoin:miter;stroke-miterlimit:2.61310005;stroke-dasharray:none;stroke-opacity:1"
         d="M 504.562,1.15234 V 934.297" /><path
         id="path72"
         style="fill:none;stroke:#101211;stroke-width:2.16000009;stroke-linecap:butt;stroke-linejoin:miter;stroke-miterlimit:2.61310005;stroke-dasharray:none;stroke-opacity:1"
         d="M 604.789,1.15234 V 934.297" /><path
         id="path74"
         style="fill:none;stroke:#101211;stroke-width:2.16000009;stroke-linecap:butt;stroke-linejoin:miter;stroke-miterlimit:2.61310005;stroke-dasharray:none;stroke-opacity:1"
         d="M 705.012,1.15234 V 934.297" /><path
         id="path76"
         style="fill:none;stroke:#101211;stroke-width:2.16000009;stroke-linecap:butt;stroke-linejoin:miter;stroke-miterlimit:2.61310005;stroke-dasharray:none;stroke-opacity:1"
         d="M 805.234,1.15234 V 934.297" /><path
         id="path78"
         style="fill:none;stroke:#101211;stroke-width:2.16000009;stroke-linecap:butt;stroke-linejoin:miter;stroke-miterlimit:2.61310005;stroke-dasharray:none;stroke-opacity:1"
         d="M 905.461,1.15234 V 934.297" /><path
         id="path80"
         style="fill:none;stroke:#101211;stroke-width:2.16000009;stroke-linecap:butt;stroke-linejoin:miter;stroke-miterlimit:2.61310005;stroke-dasharray:none;stroke-opacity:1"
         d="M 3.44531,104.832 H 1005.68" /><path
         id="path82"
         style="fill:none;stroke:#101211;stroke-width:2.16000009;stroke-linecap:butt;stroke-linejoin:miter;stroke-miterlimit:2.61310005;stroke-dasharray:none;stroke-opacity:1"
         d="M 3.44531,208.516 H 1005.68" /><path
         id="path84"
         style="fill:none;stroke:#101211;stroke-width:2.16000009;stroke-linecap:butt;stroke-linejoin:miter;stroke-miterlimit:2.61310005;stroke-dasharray:none;stroke-opacity:1"
         d="M 3.44531,312.199 H 1005.68" /><path
         id="path86"
         style="fill:none;stroke:#101211;stroke-width:2.16000009;stroke-linecap:butt;stroke-linejoin:miter;stroke-miterlimit:2.61310005;stroke-dasharray:none;stroke-opacity:1"
         d="M 3.44531,415.883 H 1005.68" /><path
         id="path88"
         style="fill:none;stroke:#101211;stroke-width:2.16000009;stroke-linecap:butt;stroke-linejoin:miter;stroke-miterlimit:2.61310005;stroke-dasharray:none;stroke-opacity:1"
         d="M 3.44531,519.566 H 1005.68" /><path
         id="path90"
         style="fill:none;stroke:#101211;stroke-width:2.16000009;stroke-linecap:butt;stroke-linejoin:miter;stroke-miterlimit:2.61310005;stroke-dasharray:none;stroke-opacity:1"
         d="M 3.44531,623.25 H 1005.68" /><path
         id="path92"
         style="fill:none;stroke:#101211;stroke-width:2.16000009;stroke-linecap:butt;stroke-linejoin:miter;stroke-miterlimit:2.61310005;stroke-dasharray:none;stroke-opacity:1"
         d="M 3.44531,726.93 H 1005.68" /><path
         id="path94"
         style="fill:none;stroke:#101211;stroke-width:2.16000009;stroke-linecap:butt;stroke-linejoin:miter;stroke-miterlimit:2.61310005;stroke-dasharray:none;stroke-opacity:1"
         d="M 3.44531,830.613 H 1005.68" /><path
         id="path96"
         style="fill:none;stroke:#231f20;stroke-width:7.5005002;stroke-linecap:butt;stroke-linejoin:miter;stroke-miterlimit:2.61310005;stroke-dasharray:none;stroke-opacity:1"
         d="M 3.44531,415.883 H 961.938" /><path
         id="path98"
         style="fill:#231f20;fill-opacity:1;fill-rule:evenodd;stroke:none"
         d="m 957.785,442.23 47.895,-26.347 -47.895,-26.348 v 52.695" /><path
         id="path100"
         style="fill:none;stroke:#0b0c0b;stroke-width:7.5005002;stroke-linecap:butt;stroke-linejoin:miter;stroke-miterlimit:2.61310005;stroke-dasharray:none;stroke-opacity:1"
         d="m 3.44531,478.09 5.01172,0.633 5.01177,0.64 5.0117,0.657 5.0117,0.664 5.0117,0.683 5.0117,0.695 5.0117,0.711 5.0118,0.731 5.0078,0.742 5.0117,0.758 5.0117,0.777 5.0117,0.793 5.0118,0.817 5.0117,0.828 5.0117,0.851 5.0078,0.871 5.0117,0.891 5.0117,0.918 5.0118,0.934 5.0118,0.961 5.012,0.984 5.007,1.012 5.012,1.035 5.012,1.062 5.008,1.09 5.011,1.121 5.012,1.153 5.012,1.183 5.012,1.215 5.011,1.254 5.012,1.289 5.012,1.324 5.011,1.367 5.012,1.407 5.012,1.449 5.008,1.496 5.011,1.543 5.012,1.594 5.012,1.644 5.012,1.699 5.011,1.758 5.012,1.817 5.012,1.882 5.011,1.95 5.008,2.019 5.012,2.094 5.012,2.172 5.011,2.258 5.012,2.347 5.012,2.438 5.012,2.543 5.007,2.644 5.012,2.758 5.012,2.875 5.011,3.008 5.008,3.141 5.012,3.289 5.012,3.441 5.011,3.617 5.012,3.789 5.012,3.989 5.012,4.195 5.011,4.426 5.012,4.672 5.012,4.937 5.008,5.227 5.011,5.546 5.012,5.891 5.012,6.27 5.011,6.691 5.012,7.148 5.012,7.664 5.008,8.227 5.011,8.863 5.012,9.571 5.012,10.367 5.012,11.273 5.011,12.293 5.012,13.465 5.012,14.809 5.011,16.375 5.008,18.187 5.012,20.328 5.012,22.875 5.011,25.918 5.008,29.625 5.012,34.18 5.012,39.879 v 0" /><path
         id="path102"
         style="fill:none;stroke:#0b0c0b;stroke-width:7.5005002;stroke-linecap:butt;stroke-linejoin:miter;stroke-miterlimit:2.61310005;stroke-dasharray:none;stroke-opacity:1"
         d="M 505.133,889.852 505.137,1.15234" /><path
         id="path104"
         style="fill:#0b0c0b;fill-opacity:1;fill-rule:evenodd;stroke:none"
         d="m 531.48,885.699 -26.347,47.899 -26.348,-47.899 h 52.695" /><path
         id="path106"
         style="fill:none;stroke:#0b0c0b;stroke-width:7.5005002;stroke-linecap:butt;stroke-linejoin:miter;stroke-miterlimit:2.61310005;stroke-dasharray:none;stroke-opacity:1"
         d="m 579.734,1.15234 5.008,25.92186 5.012,22.8711 5.012,20.3281 5.011,18.1914 5.012,16.3672 5.012,14.816 5.011,13.461 5.012,12.297 5.012,11.27 5.008,10.367 5.011,9.57 5.008,8.864 5.012,8.23 5.012,7.66 5.011,7.149 5.012,6.691 5.012,6.27 5.012,5.89 5.011,5.547 5.012,5.227 5.008,4.937 5.012,4.672 5.011,4.422 5.012,4.199 5.012,3.988 5.011,3.793 5.012,3.61 5.012,3.445 5.012,3.293 5.011,3.141 5.008,3.004 5.012,2.878 5.012,2.758 5.011,2.645 5.012,2.539 5.012,2.441 5.011,2.344 5.012,2.254 5.012,2.176 5.008,2.093 5.011,2.024 5.008,1.945 5.012,1.883 5.012,1.816 5.011,1.758 5.012,1.699 5.012,1.645 5.012,1.594 5.011,1.543 5.012,1.496 5.008,1.449 5.011,1.41 5.012,1.363 5.012,1.325 5.012,1.289 5.011,1.25 5.012,1.218 5.008,1.184 5.012,1.152 5.011,1.118 5.012,1.093 5.012,1.067 5.012,1.035 5.011,1.008 5.012,0.984 5.012,0.961 5.011,0.938 5.012,0.914 5.012,0.886 5.008,0.879 5.011,0.848 5.008,0.832 5.012,0.809 5.012,0.796 5.011,0.778 5.012,0.758 5.012,0.746 5.011,0.726 5.012,0.711 5.012,0.695 5.008,0.68 5.011,0.672 5.012,0.652 5.01,0.641 5.01,0.629" /><path
         id="path108"
         style="fill:none;stroke:#0b0c0b;stroke-width:2.16000009;stroke-linecap:butt;stroke-linejoin:miter;stroke-miterlimit:2.61310005;stroke-dasharray:none;stroke-opacity:1"
         d="m 2294.03,1.15234 h 1002.23 v 933.145 H 2294.03 Z" /><path
         id="path110"
         style="fill:none;stroke:#101211;stroke-width:2.16000009;stroke-linecap:butt;stroke-linejoin:miter;stroke-miterlimit:2.61310005;stroke-dasharray:none;stroke-opacity:1"
         d="M 2394.25,1.15234 V 934.297" /><path
         id="path112"
         style="fill:none;stroke:#101211;stroke-width:2.16000009;stroke-linecap:butt;stroke-linejoin:miter;stroke-miterlimit:2.61310005;stroke-dasharray:none;stroke-opacity:1"
         d="M 2494.48,1.15234 V 934.297" /><path
         id="path114"
         style="fill:none;stroke:#101211;stroke-width:2.16000009;stroke-linecap:butt;stroke-linejoin:miter;stroke-miterlimit:2.61310005;stroke-dasharray:none;stroke-opacity:1"
         d="M 2594.7,1.15234 V 934.297" /><path
         id="path116"
         style="fill:none;stroke:#101211;stroke-width:2.16000009;stroke-linecap:butt;stroke-linejoin:miter;stroke-miterlimit:2.61310005;stroke-dasharray:none;stroke-opacity:1"
         d="M 2694.93,1.15234 V 934.297" /><path
         id="path118"
         style="fill:none;stroke:#101211;stroke-width:2.16000009;stroke-linecap:butt;stroke-linejoin:miter;stroke-miterlimit:2.61310005;stroke-dasharray:none;stroke-opacity:1"
         d="M 2795.15,1.15234 V 934.297" /><path
         id="path120"
         style="fill:none;stroke:#101211;stroke-width:2.16000009;stroke-linecap:butt;stroke-linejoin:miter;stroke-miterlimit:2.61310005;stroke-dasharray:none;stroke-opacity:1"
         d="M 2895.37,1.15234 V 934.297" /><path
         id="path122"
         style="fill:none;stroke:#101211;stroke-width:2.16000009;stroke-linecap:butt;stroke-linejoin:miter;stroke-miterlimit:2.61310005;stroke-dasharray:none;stroke-opacity:1"
         d="M 2995.6,1.15234 V 934.297" /><path
         id="path124"
         style="fill:none;stroke:#101211;stroke-width:2.16000009;stroke-linecap:butt;stroke-linejoin:miter;stroke-miterlimit:2.61310005;stroke-dasharray:none;stroke-opacity:1"
         d="M 3095.82,1.15234 V 934.297" /><path
         id="path126"
         style="fill:none;stroke:#101211;stroke-width:2.16000009;stroke-linecap:butt;stroke-linejoin:miter;stroke-miterlimit:2.61310005;stroke-dasharray:none;stroke-opacity:1"
         d="M 3196.04,1.15234 V 934.297" /><path
         id="path128"
         style="fill:none;stroke:#101211;stroke-width:2.16000009;stroke-linecap:butt;stroke-linejoin:miter;stroke-miterlimit:2.61310005;stroke-dasharray:none;stroke-opacity:1"
         d="M 2294.03,104.832 H 3296.27" /><path
         id="path130"
         style="fill:none;stroke:#101211;stroke-width:2.16000009;stroke-linecap:butt;stroke-linejoin:miter;stroke-miterlimit:2.61310005;stroke-dasharray:none;stroke-opacity:1"
         d="M 2294.03,208.516 H 3296.27" /><path
         id="path132"
         style="fill:none;stroke:#101211;stroke-width:2.16000009;stroke-linecap:butt;stroke-linejoin:miter;stroke-miterlimit:2.61310005;stroke-dasharray:none;stroke-opacity:1"
         d="M 2294.03,312.199 H 3296.27" /><path
         id="path134"
         style="fill:none;stroke:#101211;stroke-width:2.16000009;stroke-linecap:butt;stroke-linejoin:miter;stroke-miterlimit:2.61310005;stroke-dasharray:none;stroke-opacity:1"
         d="M 2294.03,415.883 H 3296.27" /><path
         id="path136"
         style="fill:none;stroke:#101211;stroke-width:2.16000009;stroke-linecap:butt;stroke-linejoin:miter;stroke-miterlimit:2.61310005;stroke-dasharray:none;stroke-opacity:1"
         d="M 2294.03,519.566 H 3296.27" /><path
         id="path138"
         style="fill:none;stroke:#101211;stroke-width:2.16000009;stroke-linecap:butt;stroke-linejoin:miter;stroke-miterlimit:2.61310005;stroke-dasharray:none;stroke-opacity:1"
         d="M 2294.03,623.25 H 3296.27" /><path
         id="path140"
         style="fill:none;stroke:#101211;stroke-width:2.16000009;stroke-linecap:butt;stroke-linejoin:miter;stroke-miterlimit:2.61310005;stroke-dasharray:none;stroke-opacity:1"
         d="M 2294.03,726.93 H 3296.27" /><path
         id="path142"
         style="fill:none;stroke:#101211;stroke-width:2.16000009;stroke-linecap:butt;stroke-linejoin:miter;stroke-miterlimit:2.61310005;stroke-dasharray:none;stroke-opacity:1"
         d="M 2294.03,830.613 H 3296.27" /><path
         id="path144"
         style="fill:none;stroke:#231f20;stroke-width:7.5005002;stroke-linecap:butt;stroke-linejoin:miter;stroke-miterlimit:2.61310005;stroke-dasharray:none;stroke-opacity:1"
         d="m 2294.03,415.883 h 958.49" /><path
         id="path146"
         style="fill:#231f20;fill-opacity:1;fill-rule:evenodd;stroke:none"
         d="m 3248.36,442.23 47.91,-26.347 -47.91,-26.348 v 52.695" /><path
         id="path148"
         style="fill:none;stroke:#231f20;stroke-width:7.5005002;stroke-linecap:butt;stroke-linejoin:miter;stroke-miterlimit:2.61310005;stroke-dasharray:none;stroke-opacity:1"
         d="M 2798.02,1.15234 V 890.551" /><path
         id="path150"
         style="fill:#231f20;fill-opacity:1;fill-rule:evenodd;stroke:none"
         d="m 2771.67,886.398 26.35,47.899 26.34,-47.899 h -52.69" /><path
         id="path152"
         style="fill:none;stroke:#0b0c0b;stroke-width:7.5005002;stroke-linecap:butt;stroke-linejoin:miter;stroke-miterlimit:2.61310005;stroke-dasharray:none;stroke-opacity:1"
         d="m 2621.57,934.297 3.2,-11.402 5.01,-17.372 5.01,-16.847 5.01,-16.332 5.01,-15.809 5.01,-15.293 5.02,-14.777 5.01,-14.254 5.01,-13.734 5.01,-13.223 5.01,-12.703 5.01,-12.184 5.01,-11.66 5.01,-11.148 5.02,-10.629 5,-10.106 5.02,-9.59 5.01,-9.074 5.01,-8.555 5.01,-8.035 5.01,-7.515 5.01,-7 5.01,-6.481 5.02,-5.961 5.01,-5.441 5.01,-4.926 5.01,-4.41 5.01,-3.887 5.01,-3.371 5.01,-2.851 5.02,-2.332 5,-1.813 5.01,-1.297 5.02,-0.777 5.01,-0.258 5.01,0.258 5.01,0.777 5.01,1.297 5.02,1.813 5.01,2.332 5,2.851 5.02,3.371 5.01,3.887 5.01,4.41 5.01,4.926 5.01,5.441 5.01,5.961 5.01,6.481 5.01,7 5.02,7.515 5,8.035 5.02,8.555 5.01,9.074 5.01,9.59 5.01,10.106 5.01,10.629 5.01,11.148 5.02,11.66 5.01,12.184 5.01,12.703 5.01,13.223 5.01,13.734 5.01,14.254 5.01,14.777 5.01,15.293 5.02,15.809 5.01,16.332 5.01,16.847 5.01,17.372 3.2,11.402" /><path
         id="path154"
         style="fill:#231f20;fill-opacity:1;fill-rule:nonzero;stroke:none"
         d="m 593.797,368.328 16.121,7.867 h 1.613 v -55.914 c 0,-3.703 0.153,-6.019 0.453,-6.933 0.317,-0.903 0.965,-1.602 1.93,-2.102 0.984,-0.484 2.969,-0.766 5.969,-0.832 v -1.801 h -24.918 v 1.801 c 3.133,0.066 5.152,0.332 6.066,0.816 0.903,0.469 1.535,1.098 1.903,1.899 0.347,0.801 0.535,3.183 0.535,7.152 v 35.75 c 0,4.817 -0.168,7.899 -0.485,9.266 -0.234,1.047 -0.652,1.816 -1.25,2.297 -0.601,0.488 -1.316,0.734 -2.168,0.734 -1.203,0 -2.882,-0.5 -5.035,-1.516 l -0.734,1.516" /><path
         id="path156"
         style="fill:#231f20;fill-opacity:1;fill-rule:nonzero;stroke:none"
         d="m 551.125,915.289 c 1.102,-1.883 1.867,-3.652 2.301,-5.285 0.414,-1.649 0.832,-4.883 1.265,-9.699 l 2.149,-24.016 c 1.949,2.336 4.785,6.051 8.5,11.133 1.785,2.465 4,5.832 6.633,10.101 1.601,2.598 2.57,4.434 2.933,5.465 0.188,0.516 0.285,1.067 0.285,1.617 0,0.352 -0.097,0.649 -0.336,0.883 -0.23,0.219 -0.816,0.485 -1.781,0.801 -0.965,0.301 -1.765,0.883 -2.398,1.699 -0.637,0.836 -0.953,1.785 -0.953,2.867 0,1.333 0.402,2.403 1.187,3.219 0.762,0.817 1.746,1.215 2.914,1.215 1.434,0 2.653,-0.582 3.668,-1.781 1.016,-1.188 1.516,-2.82 1.516,-4.903 0,-2.566 -0.883,-5.515 -2.633,-8.816 -1.766,-3.301 -5.148,-8.367 -10.168,-15.199 -5,-6.852 -11.082,-14.301 -18.199,-22.367 -4.914,-5.567 -8.567,-9.082 -10.949,-10.535 -2.368,-1.43 -4.399,-2.165 -6.102,-2.165 -1.016,0 -1.898,0.383 -2.664,1.153 -0.77,0.765 -1.133,1.648 -1.133,2.664 0,1.265 0.516,2.418 1.582,3.465 1.051,1.035 2.199,1.55 3.434,1.55 0.648,0 1.199,-0.132 1.617,-0.433 0.266,-0.168 0.551,-0.633 0.848,-1.399 0.316,-0.75 0.601,-1.269 0.867,-1.535 0.148,-0.164 0.351,-0.23 0.582,-0.23 0.183,0 0.535,0.148 1.019,0.484 1.801,1.098 3.883,2.863 6.25,5.266 3.133,3.199 5.434,5.801 6.934,7.816 l -2.734,30.949 c -0.45,5.118 -1.133,8.231 -2.051,9.332 -0.914,1.098 -2.434,1.668 -4.582,1.668 -0.684,0 -1.918,-0.101 -3.668,-0.3 l -0.434,1.797 14.301,3.519" /><path
         id="path158"
         style="fill:#231f20;fill-opacity:1;fill-rule:nonzero;stroke:none"
         d="m 927.629,396.777 c 1.598,-1.683 2.801,-3.382 3.617,-5.062 0.582,-1.188 1.551,-4.254 2.883,-9.238 l 4.301,6.453 c 1.132,1.547 2.515,3.05 4.148,4.465 1.617,1.417 3.051,2.382 4.285,2.898 0.782,0.336 1.649,0.484 2.598,0.484 1.402,0 2.5,-0.363 3.332,-1.117 0.836,-0.75 1.25,-1.664 1.25,-2.73 0,-1.235 -0.246,-2.082 -0.734,-2.535 -0.914,-0.817 -1.95,-1.231 -3.114,-1.231 -0.683,0 -1.418,0.148 -2.199,0.449 -1.535,0.516 -2.57,0.782 -3.086,0.782 -0.781,0 -1.699,-0.469 -2.781,-1.368 -2.016,-1.699 -4.418,-4.965 -7.219,-9.816 l 4,-16.801 c 0.617,-2.562 1.133,-4.113 1.567,-4.617 0.418,-0.496 0.835,-0.746 1.269,-0.746 0.684,0 1.481,0.363 2.383,1.117 1.801,1.5 3.316,3.449 4.601,5.863 l 1.696,-0.882 c -2.047,-3.848 -4.649,-7.032 -7.813,-9.567 -1.785,-1.433 -3.304,-2.148 -4.535,-2.148 -1.816,0 -3.266,1.015 -4.348,3.066 -0.683,1.266 -2.101,6.75 -4.253,16.418 -5.067,-8.832 -9.133,-14.504 -12.196,-17.051 -1.984,-1.617 -3.902,-2.433 -5.769,-2.433 -1.297,0 -2.485,0.465 -3.567,1.414 -0.765,0.718 -1.168,1.668 -1.168,2.883 0,1.07 0.368,1.968 1.086,2.687 0.699,0.715 1.582,1.063 2.633,1.063 1.031,0 2.149,-0.516 3.316,-1.563 0.848,-0.75 1.5,-1.117 1.95,-1.117 0.402,0 0.898,0.265 1.519,0.781 1.531,1.234 3.614,3.902 6.246,8 2.633,4.102 4.368,7.067 5.184,8.902 -2.031,7.899 -3.113,12.082 -3.281,12.532 -0.75,2.117 -1.719,3.617 -2.934,4.5 -1.199,0.883 -2.969,1.32 -5.316,1.32 -0.75,0 -1.618,-0.035 -2.586,-0.105 v 1.765 l 13.035,2.285" /><path
         id="path160"
         style="fill:#231f20;fill-opacity:1;fill-rule:nonzero;stroke:none"
         d="m 453.25,547.453 16.117,7.867 h 1.617 v -55.914 c 0,-3.703 0.149,-6.019 0.45,-6.933 0.32,-0.903 0.968,-1.602 1.933,-2.102 0.985,-0.484 2.969,-0.766 5.969,-0.832 v -1.801 h -24.918 v 1.801 c 3.133,0.066 5.152,0.332 6.066,0.816 0.903,0.465 1.536,1.098 1.899,1.899 0.351,0.801 0.539,3.184 0.539,7.152 v 35.75 c 0,4.813 -0.168,7.899 -0.488,9.266 -0.231,1.047 -0.649,1.816 -1.25,2.297 -0.598,0.484 -1.313,0.734 -2.164,0.734 -1.204,0 -2.883,-0.5 -5.036,-1.515 l -0.734,1.515" /><path
         id="path162"
         style="fill:#231f20;fill-opacity:1;fill-rule:nonzero;stroke:none"
         d="m 440.641,360.996 c 0,7.551 1.132,14.051 3.414,19.5 2.285,5.449 5.3,9.516 9.086,12.184 2.929,2.117 5.949,3.183 9.082,3.183 5.066,0 9.632,-2.601 13.664,-7.765 5.051,-6.418 7.57,-15.102 7.57,-26.086 0,-7.684 -1.102,-14.2 -3.316,-19.563 -2.219,-5.383 -5.036,-9.285 -8.469,-11.703 -3.43,-2.434 -6.746,-3.633 -9.949,-3.633 -6.301,0 -11.567,3.719 -15.766,11.184 -3.551,6.281 -5.316,13.851 -5.316,22.699 z m 9.566,-1.215 c 0,-9.121 1.117,-16.57 3.367,-22.316 1.848,-4.852 4.633,-7.285 8.301,-7.285 1.766,0 3.582,0.8 5.465,2.367 1.898,1.582 3.332,4.234 4.301,7.933 1.496,5.598 2.25,13.5 2.25,23.684 0,7.547 -0.786,13.848 -2.352,18.898 -1.168,3.75 -2.684,6.399 -4.531,7.969 -1.336,1.063 -2.953,1.598 -4.836,1.598 -2.219,0 -4.18,-0.984 -5.918,-2.965 -2.332,-2.703 -3.93,-6.953 -4.781,-12.75 -0.848,-5.801 -1.266,-11.5 -1.266,-17.133" /><path
         id="path164"
         style="fill:#231f20;fill-opacity:1;fill-rule:nonzero;stroke:none"
         d="m 1743.9,390.227 16.12,7.867 h 1.61 V 342.18 c 0,-3.703 0.15,-6.02 0.45,-6.934 0.32,-0.902 0.97,-1.601 1.94,-2.101 0.98,-0.485 2.96,-0.766 5.96,-0.833 v -1.8 h -24.91 v 1.8 c 3.13,0.067 5.14,0.333 6.06,0.817 0.9,0.465 1.53,1.098 1.9,1.898 0.35,0.801 0.54,3.184 0.54,7.153 v 35.75 c 0,4.816 -0.17,7.898 -0.49,9.265 -0.23,1.047 -0.65,1.817 -1.25,2.297 -0.6,0.485 -1.31,0.735 -2.17,0.735 -1.2,0 -2.88,-0.5 -5.03,-1.516 l -0.73,1.516" /><path
         id="path166"
         style="fill:#231f20;fill-opacity:1;fill-rule:nonzero;stroke:none"
         d="m 1596.06,923.641 c 1.1,-1.883 1.87,-3.653 2.3,-5.286 0.42,-1.648 0.84,-4.882 1.27,-9.699 l 2.15,-24.015 c 1.95,2.332 4.78,6.05 8.5,11.132 1.78,2.465 4,5.832 6.63,10.098 1.61,2.602 2.57,4.434 2.94,5.469 0.18,0.515 0.28,1.066 0.28,1.617 0,0.352 -0.1,0.648 -0.33,0.883 -0.24,0.215 -0.82,0.484 -1.79,0.801 -0.96,0.3 -1.76,0.882 -2.4,1.699 -0.63,0.836 -0.95,1.785 -0.95,2.867 0,1.332 0.4,2.402 1.19,3.219 0.76,0.816 1.74,1.215 2.91,1.215 1.44,0 2.65,-0.586 3.67,-1.786 1.02,-1.183 1.52,-2.816 1.52,-4.898 0,-2.566 -0.89,-5.516 -2.64,-8.816 -1.76,-3.301 -5.15,-8.368 -10.16,-15.2 -5,-6.851 -11.09,-14.3 -18.2,-22.367 -4.92,-5.566 -8.57,-9.082 -10.95,-10.535 -2.37,-1.43 -4.4,-2.164 -6.11,-2.164 -1.01,0 -1.89,0.383 -2.66,1.148 -0.77,0.766 -1.13,1.653 -1.13,2.668 0,1.266 0.51,2.418 1.58,3.465 1.05,1.035 2.2,1.551 3.43,1.551 0.66,0 1.2,-0.133 1.62,-0.434 0.27,-0.168 0.55,-0.632 0.85,-1.398 0.31,-0.75 0.6,-1.27 0.87,-1.535 0.14,-0.164 0.35,-0.235 0.58,-0.235 0.18,0 0.53,0.153 1.02,0.489 1.8,1.097 3.88,2.863 6.25,5.265 3.13,3.196 5.43,5.797 6.93,7.813 l -2.73,30.953 c -0.45,5.117 -1.14,8.23 -2.05,9.332 -0.92,1.098 -2.44,1.664 -4.59,1.664 -0.68,0 -1.91,-0.098 -3.66,-0.297 l -0.44,1.797 14.3,3.52" /><path
         id="path168"
         style="fill:#231f20;fill-opacity:1;fill-rule:nonzero;stroke:none"
         d="m 2107.91,374.172 c 1.61,-1.684 2.8,-3.383 3.62,-5.067 0.59,-1.183 1.55,-4.25 2.88,-9.234 l 4.3,6.453 c 1.14,1.547 2.52,3.051 4.16,4.465 1.61,1.414 3.04,2.383 4.28,2.899 0.78,0.335 1.65,0.484 2.6,0.484 1.4,0 2.5,-0.367 3.33,-1.117 0.83,-0.75 1.25,-1.668 1.25,-2.731 0,-1.234 -0.25,-2.086 -0.73,-2.535 -0.92,-0.816 -1.95,-1.234 -3.12,-1.234 -0.68,0 -1.41,0.152 -2.2,0.453 -1.53,0.515 -2.57,0.781 -3.08,0.781 -0.78,0 -1.7,-0.469 -2.79,-1.367 -2.01,-1.699 -4.41,-4.965 -7.21,-9.817 l 4,-16.8 c 0.62,-2.563 1.13,-4.114 1.57,-4.617 0.41,-0.5 0.83,-0.747 1.26,-0.747 0.68,0 1.49,0.364 2.39,1.114 1.79,1.5 3.31,3.453 4.6,5.867 l 1.69,-0.883 c -2.05,-3.848 -4.64,-7.031 -7.81,-9.566 -1.78,-1.434 -3.3,-2.153 -4.54,-2.153 -1.81,0 -3.26,1.02 -4.34,3.067 -0.69,1.269 -2.11,6.754 -4.25,16.418 -5.07,-8.832 -9.14,-14.5 -12.2,-17.047 -1.99,-1.617 -3.9,-2.438 -5.77,-2.438 -1.3,0 -2.48,0.469 -3.57,1.418 -0.76,0.719 -1.16,1.668 -1.16,2.883 0,1.07 0.36,1.969 1.08,2.684 0.7,0.718 1.58,1.066 2.64,1.066 1.03,0 2.14,-0.516 3.31,-1.562 0.85,-0.754 1.5,-1.118 1.95,-1.118 0.4,0 0.9,0.266 1.52,0.782 1.53,1.234 3.61,3.898 6.24,8 2.64,4.101 4.37,7.066 5.19,8.898 -2.04,7.902 -3.12,12.086 -3.29,12.535 -0.75,2.117 -1.71,3.614 -2.93,4.5 -1.2,0.883 -2.96,1.317 -5.32,1.317 -0.75,0 -1.61,-0.032 -2.58,-0.102 v 1.766 l 13.03,2.285" /><path
         id="path170"
         style="fill:#231f20;fill-opacity:1;fill-rule:nonzero;stroke:none"
         d="m 1628.26,542.957 16.12,7.863 h 1.61 v -55.914 c 0,-3.703 0.15,-6.019 0.46,-6.933 0.31,-0.903 0.96,-1.602 1.93,-2.102 0.98,-0.484 2.96,-0.766 5.96,-0.832 v -1.801 h -24.91 v 1.801 c 3.13,0.066 5.15,0.336 6.06,0.816 0.9,0.469 1.54,1.098 1.9,1.899 0.36,0.801 0.54,3.184 0.54,7.152 v 35.75 c 0,4.817 -0.17,7.899 -0.48,9.266 -0.24,1.051 -0.66,1.816 -1.25,2.301 -0.61,0.484 -1.32,0.734 -2.17,0.734 -1.2,0 -2.89,-0.504 -5.04,-1.519 l -0.73,1.519" /><path
         id="path172"
         style="fill:#231f20;fill-opacity:1;fill-rule:nonzero;stroke:none"
         d="m 1593.75,370.102 c 0,7.55 1.13,14.046 3.41,19.5 2.29,5.449 5.3,9.515 9.09,12.183 2.93,2.117 5.95,3.184 9.08,3.184 5.06,0 9.63,-2.602 13.67,-7.77 5.05,-6.418 7.57,-15.097 7.57,-26.082 0,-7.683 -1.11,-14.199 -3.32,-19.566 -2.22,-5.383 -5.04,-9.281 -8.47,-11.699 -3.43,-2.434 -6.75,-3.633 -9.95,-3.633 -6.3,0 -11.56,3.719 -15.76,11.183 -3.55,6.282 -5.32,13.852 -5.32,22.7 z m 9.57,-1.215 c 0,-9.121 1.11,-16.571 3.36,-22.317 1.85,-4.851 4.63,-7.285 8.3,-7.285 1.77,0 3.59,0.801 5.47,2.367 1.9,1.582 3.33,4.235 4.3,7.934 1.5,5.598 2.25,13.496 2.25,23.684 0,7.546 -0.79,13.847 -2.35,18.898 -1.17,3.75 -2.69,6.398 -4.53,7.965 -1.34,1.066 -2.96,1.601 -4.84,1.601 -2.22,0 -4.18,-0.984 -5.92,-2.964 -2.33,-2.704 -3.93,-6.954 -4.78,-12.75 -0.85,-5.801 -1.26,-11.5 -1.26,-17.133" /><path
         id="path174"
         style="fill:#231f20;fill-opacity:1;fill-rule:nonzero;stroke:none"
         d="m 2894.86,379.645 16.12,7.863 h 1.61 v -55.914 c 0,-3.703 0.16,-6.02 0.46,-6.934 0.31,-0.902 0.96,-1.601 1.93,-2.101 0.98,-0.485 2.97,-0.766 5.97,-0.832 v -1.801 h -24.92 v 1.801 c 3.13,0.066 5.15,0.335 6.07,0.816 0.9,0.469 1.53,1.102 1.9,1.898 0.35,0.805 0.53,3.184 0.53,7.153 v 35.75 c 0,4.816 -0.17,7.898 -0.48,9.265 -0.24,1.051 -0.65,1.817 -1.25,2.301 -0.6,0.485 -1.32,0.735 -2.17,0.735 -1.2,0 -2.88,-0.504 -5.03,-1.52 l -0.74,1.52" /><path
         id="path176"
         style="fill:#231f20;fill-opacity:1;fill-rule:nonzero;stroke:none"
         d="m 2732.69,915.316 c 1.1,-1.882 1.86,-3.652 2.3,-5.285 0.42,-1.648 0.83,-4.883 1.26,-9.699 l 2.15,-24.016 c 1.96,2.332 4.79,6.051 8.51,11.133 1.78,2.465 3.99,5.832 6.63,10.098 1.6,2.601 2.57,4.433 2.93,5.469 0.19,0.515 0.28,1.066 0.28,1.617 0,0.351 -0.09,0.648 -0.33,0.883 -0.23,0.214 -0.81,0.48 -1.78,0.8 -0.97,0.301 -1.77,0.883 -2.4,1.7 -0.63,0.832 -0.95,1.781 -0.95,2.867 0,1.332 0.4,2.398 1.18,3.215 0.77,0.816 1.75,1.218 2.92,1.218 1.43,0 2.65,-0.586 3.66,-1.785 1.02,-1.183 1.52,-2.816 1.52,-4.902 0,-2.563 -0.88,-5.516 -2.63,-8.813 -1.77,-3.3 -5.15,-8.367 -10.17,-15.199 -5,-6.851 -11.08,-14.301 -18.2,-22.367 -4.91,-5.57 -8.57,-9.082 -10.95,-10.535 -2.37,-1.43 -4.4,-2.164 -6.1,-2.164 -1.01,0 -1.9,0.383 -2.66,1.148 -0.77,0.766 -1.14,1.653 -1.14,2.664 0,1.27 0.52,2.418 1.58,3.469 1.06,1.035 2.2,1.551 3.44,1.551 0.65,0 1.2,-0.133 1.62,-0.434 0.26,-0.168 0.55,-0.633 0.85,-1.402 0.31,-0.746 0.59,-1.266 0.86,-1.531 0.15,-0.164 0.35,-0.235 0.58,-0.235 0.19,0 0.54,0.153 1.02,0.485 1.8,1.101 3.88,2.867 6.25,5.269 3.13,3.195 5.44,5.797 6.94,7.813 l -2.74,30.953 c -0.45,5.113 -1.13,8.23 -2.05,9.328 -0.91,1.101 -2.43,1.668 -4.58,1.668 -0.69,0 -1.92,-0.098 -3.67,-0.301 l -0.43,1.801 14.3,3.519" /><path
         id="path178"
         style="fill:#231f20;fill-opacity:1;fill-rule:nonzero;stroke:none"
         d="m 3243.85,363.672 c 1.6,-1.688 2.8,-3.387 3.61,-5.067 0.59,-1.187 1.56,-4.253 2.89,-9.234 l 4.3,6.449 c 1.13,1.547 2.52,3.051 4.15,4.465 1.61,1.418 3.05,2.383 4.28,2.899 0.78,0.336 1.65,0.488 2.6,0.488 1.4,0 2.5,-0.367 3.34,-1.117 0.83,-0.754 1.25,-1.668 1.25,-2.735 0,-1.234 -0.25,-2.082 -0.74,-2.535 -0.92,-0.816 -1.95,-1.23 -3.12,-1.23 -0.68,0 -1.41,0.148 -2.2,0.449 -1.53,0.516 -2.56,0.781 -3.08,0.781 -0.78,0 -1.7,-0.465 -2.78,-1.363 -2.02,-1.703 -4.42,-4.969 -7.22,-9.817 l 4,-16.8 c 0.62,-2.567 1.14,-4.117 1.57,-4.617 0.42,-0.5 0.83,-0.75 1.26,-0.75 0.69,0 1.49,0.367 2.39,1.117 1.8,1.5 3.32,3.449 4.6,5.863 l 1.7,-0.879 c -2.05,-3.851 -4.65,-7.035 -7.82,-9.57 -1.78,-1.434 -3.3,-2.149 -4.53,-2.149 -1.82,0 -3.27,1.016 -4.35,3.067 -0.68,1.265 -2.1,6.75 -4.25,16.418 -5.07,-8.832 -9.14,-14.504 -12.2,-17.051 -1.98,-1.617 -3.9,-2.434 -5.77,-2.434 -1.3,0 -2.48,0.465 -3.57,1.418 -0.76,0.715 -1.16,1.664 -1.16,2.883 0,1.067 0.37,1.965 1.08,2.684 0.71,0.715 1.58,1.066 2.64,1.066 1.03,0 2.15,-0.516 3.32,-1.566 0.84,-0.75 1.49,-1.117 1.94,-1.117 0.4,0 0.9,0.265 1.52,0.781 1.54,1.234 3.61,3.902 6.25,8 2.63,4.101 4.37,7.066 5.18,8.902 -2.03,7.899 -3.11,12.082 -3.28,12.535 -0.75,2.114 -1.72,3.614 -2.94,4.496 -1.19,0.887 -2.96,1.321 -5.31,1.321 -0.75,0 -1.62,-0.035 -2.58,-0.102 v 1.766 l 13.03,2.285" /><path
         id="path180"
         style="fill:#231f20;fill-opacity:1;fill-rule:nonzero;stroke:none"
         d="m 2758.07,547.48 16.12,7.868 h 1.61 v -55.914 c 0,-3.704 0.16,-6.02 0.46,-6.934 0.31,-0.902 0.96,-1.602 1.93,-2.102 0.99,-0.484 2.97,-0.765 5.97,-0.832 v -1.8 h -24.92 v 1.8 c 3.14,0.067 5.15,0.332 6.07,0.817 0.9,0.469 1.53,1.097 1.9,1.898 0.35,0.801 0.53,3.184 0.53,7.153 v 35.75 c 0,4.816 -0.17,7.898 -0.48,9.265 -0.24,1.051 -0.65,1.817 -1.25,2.301 -0.6,0.484 -1.32,0.73 -2.17,0.73 -1.2,0 -2.88,-0.5 -5.03,-1.515 l -0.74,1.515" /><path
         id="path182"
         style="fill:#231f20;fill-opacity:1;fill-rule:nonzero;stroke:none"
         d="m 2740.96,366.293 c 0,7.547 1.13,14.047 3.42,19.5 2.28,5.449 5.3,9.516 9.08,12.18 2.93,2.121 5.95,3.183 9.08,3.183 5.07,0 9.64,-2.597 13.67,-7.765 5.05,-6.418 7.56,-15.102 7.56,-26.082 0,-7.684 -1.09,-14.2 -3.31,-19.567 -2.22,-5.383 -5.04,-9.281 -8.47,-11.699 -3.43,-2.434 -6.75,-3.637 -9.95,-3.637 -6.3,0 -11.57,3.719 -15.76,11.188 -3.56,6.281 -5.32,13.847 -5.32,22.699 z m 9.56,-1.219 c 0,-9.117 1.12,-16.566 3.37,-22.316 1.85,-4.848 4.63,-7.285 8.3,-7.285 1.77,0 3.58,0.804 5.47,2.367 1.89,1.586 3.33,4.234 4.3,7.933 1.5,5.602 2.25,13.5 2.25,23.684 0,7.551 -0.79,13.852 -2.35,18.898 -1.17,3.75 -2.69,6.403 -4.54,7.969 -1.33,1.067 -2.94,1.598 -4.83,1.598 -2.22,0 -4.18,-0.981 -5.92,-2.965 -2.33,-2.699 -3.93,-6.949 -4.78,-12.75 -0.85,-5.797 -1.27,-11.5 -1.27,-17.133" /><path
         id="path184"
         style="fill:#ffffff;fill-opacity:1;fill-rule:evenodd;stroke:none"
         d="M 0.777344,802.953 H 131.47234 V 937.172 H 0.777344 Z" /><path
         id="path186"
         style="fill:#ffffff;fill-opacity:1;fill-rule:evenodd;stroke:none"
         d="m 1156.44,803.93 h 130.695 V 938.149 H 1156.44 Z" /><path
         id="path188"
         style="fill:#ffffff;fill-opacity:1;fill-rule:evenodd;stroke:none"
         d="m 2291.77,802.535 h 130.699 V 936.754 H 2291.77 Z" /><path
         id="path190"
         style="fill:#231f20;fill-opacity:1;fill-rule:nonzero;stroke:none"
         d="M 76.2812,913.754 71.25,858.688 c -0.2695,-2.586 -0.3828,-4.27 -0.3828,-5.086 0,-1.297 0.2305,-2.297 0.7305,-2.981 0.6171,-0.933 1.4492,-1.633 2.5039,-2.101 1.0625,-0.45 2.8476,-0.684 5.3476,-0.684 l -0.5351,-1.801 H 52.8477 l 0.5351,1.801 H 54.5 c 2.1172,0 3.8516,0.469 5.1836,1.367 0.9336,0.637 1.668,1.649 2.1992,3.082 0.3477,1.02 0.6992,3.383 1.0156,7.133 l 0.7852,8.402 H 44.7344 L 38,858.688 c -1.5312,-2.051 -2.4844,-3.536 -2.8828,-4.418 -0.3828,-0.899 -0.586,-1.735 -0.586,-2.516 0,-1.051 0.418,-1.934 1.2657,-2.684 0.8515,-0.75 2.2539,-1.164 4.2031,-1.234 l -0.5352,-1.801 h -19.582 l 0.5313,1.801 c 2.4179,0.102 4.5351,0.918 6.3828,2.418 1.8359,1.516 4.5664,4.75 8.2187,9.699 l 39.5508,53.801 z M 66.6172,897.5 47.4141,871.387 h 16.6523 l 2.5508,26.113" /><path
         id="path192"
         style="fill:#231f20;fill-opacity:1;fill-rule:nonzero;stroke:none"
         d="m 100.398,914.535 1.668,0.934 c 3.868,-7.348 6.633,-13.867 8.301,-19.531 1.332,-4.418 2,-8.883 2,-13.387 0,-10.5 -2.433,-19.899 -7.285,-28.164 -5.9843,-10.184 -15.6328,-20.098 -28.9492,-29.735 l -1.164,1.516 c 6.0117,4.484 10.9296,9.484 14.7304,14.984 4.7656,6.899 8.6524,15.25 11.6838,25.036 3.015,9.765 4.531,18.667 4.531,26.683 0,6.117 -1.832,13.332 -5.516,21.664" /><path
         id="path194"
         style="fill:#231f20;fill-opacity:1;fill-rule:nonzero;stroke:none"
         d="m 1196.77,913.23 h 46.53 l -5.03,-17.281 h -1.82 c 0.37,2.113 0.55,4.031 0.55,5.746 0,2.254 -0.45,4 -1.33,5.235 -0.87,1.234 -2.07,2.035 -3.59,2.382 -1.51,0.372 -4.48,0.551 -8.91,0.551 h -10.2 l -7.62,-26.133 h 6.65 c 5.65,0 9.9,-0.582 12.73,-1.746 2.84,-1.187 5.17,-3.172 6.99,-5.968 1.83,-2.801 2.73,-5.801 2.73,-9.036 0,-3.863 -1.31,-7.566 -3.98,-11.082 -2.65,-3.519 -5.9,-5.867 -9.74,-7.082 -3.83,-1.199 -8.36,-1.8 -13.56,-1.8 h -29.55 l 0.48,1.8 c 3.55,0.067 5.99,0.664 7.3,1.782 1.32,1.132 2.67,3.984 4.03,8.582 l 11.62,39.5 c 1.29,4.351 1.91,7.3 1.91,8.832 0,1.367 -0.49,2.351 -1.49,2.937 -0.99,0.582 -2.74,0.899 -5.25,0.965 z m -0.84,-61.914 c 2.54,-0.468 5.32,-0.683 8.36,-0.683 6.89,0 11.94,1.699 15.15,5.097 3.21,3.403 4.81,7.2 4.81,11.403 0,2.832 -0.77,5.332 -2.32,7.5 -1.54,2.164 -3.5,3.648 -5.83,4.465 -2.35,0.816 -5.5,1.218 -9.48,1.218 h -2.2 l -8.49,-29" /><path
         id="path196"
         style="fill:#231f20;fill-opacity:1;fill-rule:nonzero;stroke:none"
         d="m 1253.98,915.512 1.67,0.937 c 3.87,-7.351 6.64,-13.867 8.3,-19.535 1.33,-4.414 2,-8.883 2,-13.383 0,-10.5 -2.43,-19.898 -7.28,-28.164 -5.99,-10.187 -15.63,-20.101 -28.95,-29.738 l -1.17,1.519 c 6.02,4.485 10.93,9.485 14.74,14.981 4.76,6.902 8.64,15.254 11.68,25.035 3.01,9.766 4.53,18.668 4.53,26.684 0,6.117 -1.84,13.336 -5.52,21.664" /><path
         id="path198"
         style="fill:#231f20;fill-opacity:1;fill-rule:nonzero;stroke:none"
         d="m 2329.27,910.02 0.68,1.816 h 23.64 c 3.96,0 7.49,-0.617 10.61,-1.867 3.1,-1.235 5.44,-2.949 6.99,-5.164 1.54,-2.219 2.31,-4.567 2.31,-7.035 0,-3.817 -1.38,-7.25 -4.13,-10.332 -2.75,-3.071 -7.23,-5.352 -13.45,-6.801 4.01,-1.5 6.95,-3.485 8.85,-5.969 1.88,-2.465 2.83,-5.18 2.83,-8.148 0,-3.282 -0.85,-6.43 -2.55,-9.434 -1.68,-2.981 -3.87,-5.316 -6.51,-6.965 -2.66,-1.668 -5.86,-2.887 -9.61,-3.668 -2.66,-0.551 -6.83,-0.832 -12.5,-0.832 h -24.26 l 0.63,1.801 c 2.55,0.066 4.27,0.316 5.18,0.73 1.31,0.571 2.24,1.301 2.79,2.203 0.78,1.231 1.81,4.063 3.12,8.497 l 11.86,40.086 c 1.02,3.382 1.52,5.765 1.52,7.132 0,1.2 -0.45,2.149 -1.34,2.848 -0.89,0.703 -2.59,1.051 -5.11,1.051 -0.55,0 -1.07,0.015 -1.55,0.051 z m 9.9,-27.485 c 2.12,-0.066 3.65,-0.097 4.6,-0.097 6.77,0 11.8,1.464 15.11,4.414 3.3,2.953 4.96,6.632 4.96,11.066 0,3.352 -1.02,5.969 -3.04,7.836 -2.01,1.863 -5.23,2.801 -9.67,2.801 -1.16,0 -2.66,-0.184 -4.48,-0.586 z m -9.62,-32.613 c 3.52,-0.469 6.27,-0.684 8.25,-0.684 5.09,0 9.58,1.532 13.5,4.582 3.93,3.067 5.89,7.219 5.89,12.45 0,4 -1.21,7.132 -3.64,9.382 -2.42,2.25 -6.33,3.368 -11.73,3.368 -1.05,0 -2.32,-0.051 -3.82,-0.149 l -8.45,-28.949" /><path
         id="path200"
         style="fill:#231f20;fill-opacity:1;fill-rule:nonzero;stroke:none"
         d="m 2390.1,914.117 1.67,0.938 c 3.86,-7.352 6.63,-13.867 8.3,-19.535 1.33,-4.415 2,-8.883 2,-13.383 0,-10.5 -2.44,-19.899 -7.28,-28.164 -5.99,-10.188 -15.64,-20.102 -28.95,-29.739 l -1.17,1.52 c 6.01,4.484 10.93,9.484 14.73,14.98 4.77,6.903 8.65,15.25 11.69,25.036 3.01,9.765 4.53,18.668 4.53,26.683 0,6.117 -1.83,13.336 -5.52,21.664" /></g></g></svg>