<?xml version="1.0" encoding="UTF-8" standalone="no"?>
<svg
   xmlns:dc="http://purl.org/dc/elements/1.1/"
   xmlns:cc="http://creativecommons.org/ns#"
   xmlns:rdf="http://www.w3.org/1999/02/22-rdf-syntax-ns#"
   xmlns:svg="http://www.w3.org/2000/svg"
   xmlns="http://www.w3.org/2000/svg"
   viewBox="0 0 404 137.33333"
   height="137.33333"
   width="404"
   xml:space="preserve"
   id="svg2"
   version="1.1"><metadata
     id="metadata8"><rdf:RDF><cc:Work
         rdf:about=""><dc:format>image/svg+xml</dc:format><dc:type
           rdf:resource="http://purl.org/dc/dcmitype/StillImage" /></cc:Work></rdf:RDF></metadata><defs
     id="defs6" /><g
     transform="matrix(1.3333333,0,0,-1.3333333,0,137.33333)"
     id="g10"><g
       transform="scale(0.1)"
       id="g12"><path
         id="path14"
         style="fill:#231f20;fill-opacity:1;fill-rule:nonzero;stroke:none"
         d="m 82.9453,1023.15 -5.0351,-55.064 c -0.2657,-2.586 -0.3829,-4.27 -0.3829,-5.086 0,-1.297 0.2344,-2.297 0.7344,-2.98 0.6172,-0.934 1.4492,-1.633 2.5,-2.102 1.0664,-0.449 2.8516,-0.684 5.3516,-0.684 l -0.5352,-1.8 H 59.5117 l 0.5352,1.8 h 1.1133 c 2.121,0 3.8554,0.469 5.1875,1.368 0.9296,0.632 1.664,1.648 2.1992,3.082 0.3476,1.019 0.6992,3.382 1.0156,7.132 l 0.7852,8.403 H 51.3984 l -6.7382,-9.133 c -1.5274,-2.055 -2.4805,-3.535 -2.8829,-4.418 -0.3828,-0.898 -0.582,-1.734 -0.582,-2.516 0,-1.05 0.418,-1.933 1.2656,-2.683 0.8516,-0.75 2.25,-1.168 4.2032,-1.235 l -0.5352,-1.8 h -19.582 l 0.5312,1.8 c 2.418,0.098 4.5352,0.914 6.3828,2.418 1.836,1.516 4.5664,4.75 8.2188,9.7 l 39.5469,53.798 z M 73.2812,1006.9 54.0781,980.785 h 16.6524 l 2.5507,26.115" /><path
         id="path16"
         style="fill:#231f20;fill-opacity:1;fill-rule:nonzero;stroke:none"
         d="m 107.062,1023.93 1.668,0.94 c 3.868,-7.35 6.633,-13.87 8.297,-19.53 1.336,-4.42 2.004,-8.887 2.004,-13.391 0,-10.5 -2.437,-19.898 -7.285,-28.164 -5.984,-10.183 -15.6327,-20.101 -28.9491,-29.734 l -1.168,1.515 c 6.0156,4.485 10.9336,9.485 14.7344,14.985 4.7657,6.898 8.6487,15.25 11.6837,25.035 3.015,9.766 4.531,18.664 4.531,26.684 0,6.12 -1.832,13.33 -5.516,21.66" /><path
         id="path18"
         style="fill:#231f20;fill-opacity:1;fill-rule:nonzero;stroke:none"
         d="m 1175.38,1021.65 h 46.53 l -5.03,-17.28 h -1.82 c 0.36,2.11 0.55,4.03 0.55,5.75 0,2.25 -0.45,4 -1.34,5.23 -0.86,1.23 -2.06,2.04 -3.58,2.38 -1.52,0.37 -4.48,0.56 -8.92,0.56 h -10.2 l -7.61,-26.138 h 6.65 c 5.65,0 9.9,-0.586 12.73,-1.75 2.84,-1.183 5.17,-3.168 6.98,-5.968 1.84,-2.797 2.74,-5.801 2.74,-9.032 0,-3.867 -1.32,-7.57 -3.99,-11.086 -2.64,-3.515 -5.9,-5.867 -9.73,-7.082 -3.83,-1.199 -8.36,-1.8 -13.57,-1.8 h -29.55 l 0.49,1.8 c 3.55,0.067 5.98,0.668 7.3,1.782 1.31,1.136 2.67,3.984 4.03,8.586 l 11.62,39.498 c 1.28,4.35 1.91,7.3 1.91,8.83 0,1.37 -0.5,2.36 -1.5,2.94 -0.98,0.58 -2.73,0.9 -5.25,0.96 z m -0.84,-61.916 c 2.53,-0.468 5.32,-0.683 8.35,-0.683 6.9,0 11.95,1.703 15.15,5.101 3.22,3.399 4.82,7.2 4.82,11.399 0,2.832 -0.77,5.332 -2.32,7.5 -1.55,2.168 -3.5,3.648 -5.83,4.465 -2.35,0.816 -5.5,1.218 -9.49,1.218 h -2.2 l -8.48,-29" /><path
         id="path20"
         style="fill:#231f20;fill-opacity:1;fill-rule:nonzero;stroke:none"
         d="m 1232.59,1023.93 1.67,0.94 c 3.86,-7.35 6.63,-13.87 8.29,-19.53 1.34,-4.42 2.01,-8.887 2.01,-13.391 0,-10.5 -2.44,-19.898 -7.29,-28.164 -5.98,-10.183 -15.63,-20.101 -28.95,-29.734 l -1.16,1.515 c 6.01,4.485 10.93,9.485 14.73,14.985 4.77,6.898 8.65,15.25 11.68,25.035 3.02,9.766 4.54,18.664 4.54,26.684 0,6.12 -1.84,13.33 -5.52,21.66" /><path
         id="path22"
         style="fill:#231f20;fill-opacity:1;fill-rule:nonzero;stroke:none"
         d="m 2232.51,1019.83 0.68,1.82 h 23.63 c 3.97,0 7.5,-0.62 10.62,-1.87 3.1,-1.23 5.44,-2.94 6.99,-5.16 1.54,-2.22 2.31,-4.57 2.31,-7.04 0,-3.81 -1.38,-7.24 -4.13,-10.33 -2.75,-3.066 -7.23,-5.348 -13.45,-6.801 4.02,-1.5 6.95,-3.484 8.85,-5.965 1.88,-2.468 2.83,-5.183 2.83,-8.148 0,-3.285 -0.85,-6.434 -2.55,-9.434 -1.68,-2.984 -3.86,-5.316 -6.52,-6.964 -2.65,-1.668 -5.85,-2.887 -9.6,-3.668 -2.67,-0.551 -6.83,-0.836 -12.5,-0.836 h -24.26 l 0.63,1.8 c 2.55,0.067 4.26,0.317 5.19,0.735 1.29,0.566 2.23,1.297 2.78,2.199 0.78,1.234 1.81,4.066 3.11,8.5 l 11.87,40.082 c 1.02,3.39 1.51,5.77 1.51,7.14 0,1.2 -0.44,2.15 -1.33,2.84 -0.9,0.7 -2.6,1.05 -5.11,1.05 -0.55,0 -1.07,0.02 -1.55,0.05 z m 9.9,-27.482 c 2.11,-0.063 3.64,-0.098 4.59,-0.098 6.77,0 11.8,1.469 15.12,4.418 3.3,2.949 4.95,6.632 4.95,11.062 0,3.35 -1.01,5.97 -3.03,7.84 -2.02,1.86 -5.24,2.8 -9.67,2.8 -1.16,0 -2.66,-0.19 -4.48,-0.58 z m -9.62,-32.614 c 3.52,-0.468 6.27,-0.683 8.25,-0.683 5.08,0 9.58,1.535 13.5,4.586 3.93,3.066 5.89,7.215 5.89,12.449 0,4 -1.21,7.129 -3.64,9.383 -2.42,2.25 -6.33,3.367 -11.73,3.367 -1.05,0 -2.32,-0.051 -3.82,-0.152 l -8.45,-28.95" /><path
         id="path24"
         style="fill:#231f20;fill-opacity:1;fill-rule:nonzero;stroke:none"
         d="m 2293.34,1023.93 1.67,0.94 c 3.87,-7.35 6.63,-13.87 8.29,-19.53 1.34,-4.42 2.01,-8.887 2.01,-13.391 0,-10.5 -2.44,-19.898 -7.29,-28.164 -5.98,-10.183 -15.63,-20.101 -28.95,-29.734 l -1.16,1.515 c 6.01,4.485 10.93,9.485 14.73,14.985 4.77,6.898 8.65,15.25 11.68,25.035 3.02,9.766 4.54,18.664 4.54,26.684 0,6.12 -1.84,13.33 -5.52,21.66" /><path
         id="path26"
         style="fill:#ffffff;fill-opacity:1;fill-rule:evenodd;stroke:none"
         d="m 2163.19,5.02344 h 860.309 v 890.008 H 2163.19 Z" /><path
         id="path28"
         style="fill:none;stroke:#0b0c0b;stroke-width:2.16000009;stroke-linecap:butt;stroke-linejoin:miter;stroke-miterlimit:2.61310005;stroke-dasharray:none;stroke-opacity:1"
         d="m 2163.19,5.02344 h 860.309 v 890.008 H 2163.19 Z" /><path
         id="path30"
         style="fill:none;stroke:#101211;stroke-width:2.16000009;stroke-linecap:butt;stroke-linejoin:miter;stroke-miterlimit:2.61310005;stroke-dasharray:none;stroke-opacity:1"
         d="M 2249.23,5.02344 V 895.031" /><path
         id="path32"
         style="fill:none;stroke:#101211;stroke-width:2.16000009;stroke-linecap:butt;stroke-linejoin:miter;stroke-miterlimit:2.61310005;stroke-dasharray:none;stroke-opacity:1"
         d="M 2335.25,5.02344 V 895.031" /><path
         id="path34"
         style="fill:none;stroke:#101211;stroke-width:2.16000009;stroke-linecap:butt;stroke-linejoin:miter;stroke-miterlimit:2.61310005;stroke-dasharray:none;stroke-opacity:1"
         d="M 2421.28,5.02344 V 895.031" /><path
         id="path36"
         style="fill:none;stroke:#101211;stroke-width:2.16000009;stroke-linecap:butt;stroke-linejoin:miter;stroke-miterlimit:2.61310005;stroke-dasharray:none;stroke-opacity:1"
         d="M 2507.32,5.02344 V 895.031" /><path
         id="path38"
         style="fill:none;stroke:#101211;stroke-width:2.16000009;stroke-linecap:butt;stroke-linejoin:miter;stroke-miterlimit:2.61310005;stroke-dasharray:none;stroke-opacity:1"
         d="M 2593.35,5.02344 V 895.031" /><path
         id="path40"
         style="fill:none;stroke:#101211;stroke-width:2.16000009;stroke-linecap:butt;stroke-linejoin:miter;stroke-miterlimit:2.61310005;stroke-dasharray:none;stroke-opacity:1"
         d="M 2679.38,5.02344 V 895.031" /><path
         id="path42"
         style="fill:none;stroke:#101211;stroke-width:2.16000009;stroke-linecap:butt;stroke-linejoin:miter;stroke-miterlimit:2.61310005;stroke-dasharray:none;stroke-opacity:1"
         d="M 2765.41,5.02344 V 895.031" /><path
         id="path44"
         style="fill:none;stroke:#101211;stroke-width:2.16000009;stroke-linecap:butt;stroke-linejoin:miter;stroke-miterlimit:2.61310005;stroke-dasharray:none;stroke-opacity:1"
         d="M 2851.44,5.02344 V 895.031" /><path
         id="path46"
         style="fill:none;stroke:#101211;stroke-width:2.16000009;stroke-linecap:butt;stroke-linejoin:miter;stroke-miterlimit:2.61310005;stroke-dasharray:none;stroke-opacity:1"
         d="M 2937.48,5.02344 V 895.031" /><path
         id="path48"
         style="fill:none;stroke:#101211;stroke-width:2.16000009;stroke-linecap:butt;stroke-linejoin:miter;stroke-miterlimit:2.61310005;stroke-dasharray:none;stroke-opacity:1"
         d="M 2163.19,94.0312 H 3023.5" /><path
         id="path50"
         style="fill:none;stroke:#101211;stroke-width:2.16000009;stroke-linecap:butt;stroke-linejoin:miter;stroke-miterlimit:2.61310005;stroke-dasharray:none;stroke-opacity:1"
         d="M 2163.19,183.02 H 3023.5" /><path
         id="path52"
         style="fill:none;stroke:#101211;stroke-width:2.16000009;stroke-linecap:butt;stroke-linejoin:miter;stroke-miterlimit:2.61310005;stroke-dasharray:none;stroke-opacity:1"
         d="M 2163.19,272.023 H 3023.5" /><path
         id="path54"
         style="fill:none;stroke:#101211;stroke-width:2.16000009;stroke-linecap:butt;stroke-linejoin:miter;stroke-miterlimit:2.61310005;stroke-dasharray:none;stroke-opacity:1"
         d="M 2163.19,361.023 H 3023.5" /><path
         id="path56"
         style="fill:none;stroke:#101211;stroke-width:2.16000009;stroke-linecap:butt;stroke-linejoin:miter;stroke-miterlimit:2.61310005;stroke-dasharray:none;stroke-opacity:1"
         d="M 2163.19,450.02 H 3023.5" /><path
         id="path58"
         style="fill:none;stroke:#101211;stroke-width:2.16000009;stroke-linecap:butt;stroke-linejoin:miter;stroke-miterlimit:2.61310005;stroke-dasharray:none;stroke-opacity:1"
         d="M 2163.19,539.031 H 3023.5" /><path
         id="path60"
         style="fill:none;stroke:#101211;stroke-width:2.16000009;stroke-linecap:butt;stroke-linejoin:miter;stroke-miterlimit:2.61310005;stroke-dasharray:none;stroke-opacity:1"
         d="M 2163.19,628.027 H 3023.5" /><path
         id="path62"
         style="fill:none;stroke:#101211;stroke-width:2.16000009;stroke-linecap:butt;stroke-linejoin:miter;stroke-miterlimit:2.61310005;stroke-dasharray:none;stroke-opacity:1"
         d="M 2163.19,717.035 H 3023.5" /><path
         id="path64"
         style="fill:none;stroke:#101211;stroke-width:2.16000009;stroke-linecap:butt;stroke-linejoin:miter;stroke-miterlimit:2.61310005;stroke-dasharray:none;stroke-opacity:1"
         d="M 2163.19,806.023 H 3023.5" /><path
         id="path66"
         style="fill:none;stroke:#231f20;stroke-width:7.5005002;stroke-linecap:butt;stroke-linejoin:miter;stroke-miterlimit:2.61310005;stroke-dasharray:none;stroke-opacity:1"
         d="m 2163.19,450.02 h 816.56" /><path
         id="path68"
         style="fill:#231f20;fill-opacity:1;fill-rule:evenodd;stroke:none"
         d="m 2975.6,476.367 47.9,-26.347 -47.9,-26.348 v 52.695" /><path
         id="path70"
         style="fill:none;stroke:#0b0c0b;stroke-width:7.5005002;stroke-linecap:butt;stroke-linejoin:miter;stroke-miterlimit:2.61310005;stroke-dasharray:none;stroke-opacity:1"
         d="m 2163.19,396.625 4.31,-0.543 4.3,-0.551 4.31,-0.554 4.29,-0.586 4.29,-0.567 4.32,-0.609 4.3,-0.602 4.3,-0.625 4.3,-0.644 4.3,-0.641 4.31,-0.672 4.3,-0.687 4.3,-0.703 4.3,-0.703 4.29,-0.735 4.31,-0.75 4.3,-0.762 4.3,-0.785 4.3,-0.804 4.31,-0.836 4.3,-0.836 4.3,-0.871 4.29,-0.879 4.32,-0.922 4.29,-0.93 4.3,-0.965 4.3,-0.984 4.31,-1.008 4.3,-1.059 4.3,-1.078 4.3,-1.089 4.3,-1.149 4.3,-1.172 4.31,-1.207 4.29,-1.242 4.32,-1.289 4.3,-1.328 4.28,-1.367 4.31,-1.403 4.3,-1.465 4.31,-1.503 4.3,-1.559 4.3,-1.625 4.29,-1.66 4.3,-1.746 4.3,-1.797 4.31,-1.86 4.31,-1.933 4.3,-2.024 4.3,-2.089 4.3,-2.184 4.31,-2.27 4.3,-2.367 4.29,-2.465 4.31,-2.586 4.3,-2.691 4.3,-2.816 4.31,-2.957 4.29,-3.106 4.3,-3.269 4.31,-3.411 4.3,-3.597 4.3,-3.813 4.31,-4 4.29,-4.246 4.32,-4.472 4.28,-4.762 4.31,-5.067 4.3,-5.382 4.31,-5.743 4.29,-6.132 4.31,-6.579 4.29,-7.058 4.31,-7.609 4.3,-8.227 4.3,-8.891 4.31,-9.675 4.3,-10.555 4.3,-11.551 4.3,-12.726 4.3,-14.043 4.31,-15.629 4.29,-17.442 4.31,-19.625 4.3,-22.2498 4.3,-25.4257 4.3,-29.3594 4.3,-34.22266 v 0" /><path
         id="path72"
         style="fill:none;stroke:#0b0c0b;stroke-width:7.5005002;stroke-linecap:butt;stroke-linejoin:miter;stroke-miterlimit:2.61310005;stroke-dasharray:none;stroke-opacity:1"
         d="M 2589.05,5.02344 V 851.285" /><path
         id="path74"
         style="fill:#0b0c0b;fill-opacity:1;fill-rule:evenodd;stroke:none"
         d="m 2562.7,847.133 26.35,47.898 26.35,-47.898 h -52.7" /><path
         id="path76"
         style="fill:none;stroke:#0b0c0b;stroke-width:7.5005002;stroke-linecap:butt;stroke-linejoin:miter;stroke-miterlimit:2.61310005;stroke-dasharray:none;stroke-opacity:1"
         d="m 2644.96,895.031 v 0 l 4.31,-34.222 4.3,-29.36 4.3,-25.426 4.3,-22.25 4.3,-19.625 4.31,-17.441 4.29,-15.629 4.31,-14.043 4.3,-12.726 4.3,-11.551 4.31,-10.555 4.28,-9.676 4.32,-8.89 4.3,-8.227 4.3,-7.609 4.3,-7.059 4.3,-6.578 4.3,-6.137 4.3,-5.738 4.31,-5.383 4.3,-5.062 4.3,-4.766 4.3,-4.473 4.31,-4.246 4.29,-4 4.31,-3.812 4.29,-3.598 4.31,-3.429 4.3,-3.25 4.3,-3.106 4.3,-2.957 4.31,-2.816 4.31,-2.692 4.29,-2.586 4.3,-2.465 4.3,-2.367 4.3,-2.269 4.31,-2.184 4.3,-2.09 4.3,-2.023 4.29,-1.934 4.31,-1.859 4.3,-1.797 4.31,-1.746 4.3,-1.66 4.3,-1.625 4.29,-1.559 4.31,-1.504 4.31,-1.465 4.29,-1.402 4.32,-1.367 4.28,-1.328 4.31,-1.289 4.3,-1.242 4.3,-1.208 4.3,-1.171 4.3,-1.149 4.32,-1.09 4.29,-1.078 4.29,-1.058 4.31,-1.008 4.31,-0.985 4.3,-0.964 4.29,-0.93 4.31,-0.922 4.3,-0.879 4.3,-0.871 4.31,-0.836 4.3,-0.836 4.3,-0.805 4.29,-0.785 4.32,-0.761 4.29,-0.75 4.31,-0.735 4.3,-0.703 4.29,-0.699 4.3,-0.692 4.31,-0.671 4.3,-0.641 4.3,-0.645 4.3,-0.625 4.31,-0.601 4.3,-0.613 4.3,-0.563 4.29,-0.586 4.31,-0.555 4.3,-0.55 4.3,-0.543" /><path
         id="path78"
         style="fill:#ffffff;fill-opacity:1;fill-rule:evenodd;stroke:none"
         d="m 3.19141,5.02344 h 860.309 v 890.008 H 3.19141 Z" /><path
         id="path80"
         style="fill:none;stroke:#0b0c0b;stroke-width:2.16000009;stroke-linecap:butt;stroke-linejoin:miter;stroke-miterlimit:2.61310005;stroke-dasharray:none;stroke-opacity:1"
         d="m 3.19141,5.02344 h 860.309 v 890.008 H 3.19141 Z" /><path
         id="path82"
         style="fill:none;stroke:#101211;stroke-width:2.16000009;stroke-linecap:butt;stroke-linejoin:miter;stroke-miterlimit:2.61310005;stroke-dasharray:none;stroke-opacity:1"
         d="M 89.2266,5.02344 V 895.031" /><path
         id="path84"
         style="fill:none;stroke:#101211;stroke-width:2.16000009;stroke-linecap:butt;stroke-linejoin:miter;stroke-miterlimit:2.61310005;stroke-dasharray:none;stroke-opacity:1"
         d="M 175.254,5.02344 V 895.031" /><path
         id="path86"
         style="fill:none;stroke:#101211;stroke-width:2.16000009;stroke-linecap:butt;stroke-linejoin:miter;stroke-miterlimit:2.61310005;stroke-dasharray:none;stroke-opacity:1"
         d="M 261.281,5.02344 V 895.031" /><path
         id="path88"
         style="fill:none;stroke:#101211;stroke-width:2.16000009;stroke-linecap:butt;stroke-linejoin:miter;stroke-miterlimit:2.61310005;stroke-dasharray:none;stroke-opacity:1"
         d="M 347.324,5.02344 V 895.031" /><path
         id="path90"
         style="fill:none;stroke:#101211;stroke-width:2.16000009;stroke-linecap:butt;stroke-linejoin:miter;stroke-miterlimit:2.61310005;stroke-dasharray:none;stroke-opacity:1"
         d="M 433.348,5.02344 V 895.031" /><path
         id="path92"
         style="fill:none;stroke:#101211;stroke-width:2.16000009;stroke-linecap:butt;stroke-linejoin:miter;stroke-miterlimit:2.61310005;stroke-dasharray:none;stroke-opacity:1"
         d="M 519.383,5.02344 V 895.031" /><path
         id="path94"
         style="fill:none;stroke:#101211;stroke-width:2.16000009;stroke-linecap:butt;stroke-linejoin:miter;stroke-miterlimit:2.61310005;stroke-dasharray:none;stroke-opacity:1"
         d="M 605.41,5.02344 V 895.031" /><path
         id="path96"
         style="fill:none;stroke:#101211;stroke-width:2.16000009;stroke-linecap:butt;stroke-linejoin:miter;stroke-miterlimit:2.61310005;stroke-dasharray:none;stroke-opacity:1"
         d="M 691.438,5.02344 V 895.031" /><path
         id="path98"
         style="fill:none;stroke:#101211;stroke-width:2.16000009;stroke-linecap:butt;stroke-linejoin:miter;stroke-miterlimit:2.61310005;stroke-dasharray:none;stroke-opacity:1"
         d="M 777.477,5.02344 V 895.031" /><path
         id="path100"
         style="fill:none;stroke:#101211;stroke-width:2.16000009;stroke-linecap:butt;stroke-linejoin:miter;stroke-miterlimit:2.61310005;stroke-dasharray:none;stroke-opacity:1"
         d="M 3.19141,94.0312 H 863.5" /><path
         id="path102"
         style="fill:none;stroke:#101211;stroke-width:2.16000009;stroke-linecap:butt;stroke-linejoin:miter;stroke-miterlimit:2.61310005;stroke-dasharray:none;stroke-opacity:1"
         d="M 3.19141,183.02 H 863.5" /><path
         id="path104"
         style="fill:none;stroke:#101211;stroke-width:2.16000009;stroke-linecap:butt;stroke-linejoin:miter;stroke-miterlimit:2.61310005;stroke-dasharray:none;stroke-opacity:1"
         d="M 3.19141,272.023 H 863.5" /><path
         id="path106"
         style="fill:none;stroke:#101211;stroke-width:2.16000009;stroke-linecap:butt;stroke-linejoin:miter;stroke-miterlimit:2.61310005;stroke-dasharray:none;stroke-opacity:1"
         d="M 3.19141,361.023 H 863.5" /><path
         id="path108"
         style="fill:none;stroke:#101211;stroke-width:2.16000009;stroke-linecap:butt;stroke-linejoin:miter;stroke-miterlimit:2.61310005;stroke-dasharray:none;stroke-opacity:1"
         d="M 3.19141,450.02 H 863.5" /><path
         id="path110"
         style="fill:none;stroke:#101211;stroke-width:2.16000009;stroke-linecap:butt;stroke-linejoin:miter;stroke-miterlimit:2.61310005;stroke-dasharray:none;stroke-opacity:1"
         d="M 3.19141,539.031 H 863.5" /><path
         id="path112"
         style="fill:none;stroke:#101211;stroke-width:2.16000009;stroke-linecap:butt;stroke-linejoin:miter;stroke-miterlimit:2.61310005;stroke-dasharray:none;stroke-opacity:1"
         d="M 3.19141,628.027 H 863.5" /><path
         id="path114"
         style="fill:none;stroke:#101211;stroke-width:2.16000009;stroke-linecap:butt;stroke-linejoin:miter;stroke-miterlimit:2.61310005;stroke-dasharray:none;stroke-opacity:1"
         d="M 3.19141,717.035 H 863.5" /><path
         id="path116"
         style="fill:none;stroke:#101211;stroke-width:2.16000009;stroke-linecap:butt;stroke-linejoin:miter;stroke-miterlimit:2.61310005;stroke-dasharray:none;stroke-opacity:1"
         d="M 3.19141,806.023 H 863.5" /><path
         id="path118"
         style="fill:none;stroke:#231f20;stroke-width:7.5005002;stroke-linecap:butt;stroke-linejoin:miter;stroke-miterlimit:2.61310005;stroke-dasharray:none;stroke-opacity:1"
         d="M 3.19141,450.02 H 819.754" /><path
         id="path120"
         style="fill:#231f20;fill-opacity:1;fill-rule:evenodd;stroke:none"
         d="M 815.602,476.367 863.5,450.02 815.602,423.672 v 52.695" /><path
         id="path122"
         style="fill:none;stroke:#231f20;stroke-width:7.5005002;stroke-linecap:butt;stroke-linejoin:miter;stroke-miterlimit:2.61310005;stroke-dasharray:none;stroke-opacity:1"
         d="M 438.254,11.0312 V 857.293" /><path
         id="path124"
         style="fill:#231f20;fill-opacity:1;fill-rule:evenodd;stroke:none"
         d="m 411.906,853.141 26.348,47.898 26.351,-47.898 h -52.699" /><path
         id="path126"
         style="fill:none;stroke:#0b0c0b;stroke-width:7.5005002;stroke-linecap:butt;stroke-linejoin:miter;stroke-miterlimit:2.61310005;stroke-dasharray:none;stroke-opacity:1"
         d="m 297.332,895.031 2.664,-17.363 4.313,-27.145 4.289,-26.246 4.308,-25.367 4.293,-24.469 4.309,-23.593 4.304,-22.688 4.297,-21.808 4.309,-20.911 4.301,-20.035 4.301,-19.133 4.304,-18.246 4.297,-17.347 4.313,-16.465 4.285,-15.586 4.308,-14.684 4.301,-13.789 4.301,-12.91 4.297,-12.016 4.308,-11.117 4.297,-10.242 4.301,-9.351 4.297,-8.458 4.309,-7.554 4.296,-6.676 4.305,-5.785 4.297,-4.891 4.309,-4.015 4.304,-3.098 4.301,-2.242 4.301,-1.328 4.297,-0.453 4.308,0.453 4.289,1.328 4.309,2.242 4.301,3.098 4.3,4.015 4.297,4.891 4.301,5.785 4.305,6.676 4.304,7.554 4.301,8.469 4.301,9.34 4.293,10.242 4.313,11.117 4.296,12.016 4.301,12.91 4.301,13.789 4.305,14.684 4.308,15.586 4.293,16.465 4.309,17.347 4.293,18.246 4.301,19.133 4.308,20.035 4.285,20.911 4.317,21.808 4.304,22.688 4.297,23.593 4.301,24.469 4.297,25.367 4.309,26.258 4.293,27.133 2.667,17.363" /><path
         id="path128"
         style="fill:#ffffff;fill-opacity:1;fill-rule:evenodd;stroke:none"
         d="m 1083.19,5.02344 h 860.309 v 890.008 H 1083.19 Z" /><path
         id="path130"
         style="fill:none;stroke:#0b0c0b;stroke-width:2.16000009;stroke-linecap:butt;stroke-linejoin:miter;stroke-miterlimit:2.61310005;stroke-dasharray:none;stroke-opacity:1"
         d="m 1083.19,5.02344 h 860.309 v 890.008 H 1083.19 Z" /><path
         id="path132"
         style="fill:none;stroke:#101211;stroke-width:2.16000009;stroke-linecap:butt;stroke-linejoin:miter;stroke-miterlimit:2.61310005;stroke-dasharray:none;stroke-opacity:1"
         d="M 1169.23,5.02344 V 895.031" /><path
         id="path134"
         style="fill:none;stroke:#101211;stroke-width:2.16000009;stroke-linecap:butt;stroke-linejoin:miter;stroke-miterlimit:2.61310005;stroke-dasharray:none;stroke-opacity:1"
         d="M 1255.25,5.02344 V 895.031" /><path
         id="path136"
         style="fill:none;stroke:#101211;stroke-width:2.16000009;stroke-linecap:butt;stroke-linejoin:miter;stroke-miterlimit:2.61310005;stroke-dasharray:none;stroke-opacity:1"
         d="M 1341.28,5.02344 V 895.031" /><path
         id="path138"
         style="fill:none;stroke:#101211;stroke-width:2.16000009;stroke-linecap:butt;stroke-linejoin:miter;stroke-miterlimit:2.61310005;stroke-dasharray:none;stroke-opacity:1"
         d="M 1427.32,5.02344 V 895.031" /><path
         id="path140"
         style="fill:none;stroke:#101211;stroke-width:2.16000009;stroke-linecap:butt;stroke-linejoin:miter;stroke-miterlimit:2.61310005;stroke-dasharray:none;stroke-opacity:1"
         d="M 1513.35,5.02344 V 895.031" /><path
         id="path142"
         style="fill:none;stroke:#101211;stroke-width:2.16000009;stroke-linecap:butt;stroke-linejoin:miter;stroke-miterlimit:2.61310005;stroke-dasharray:none;stroke-opacity:1"
         d="M 1599.38,5.02344 V 895.031" /><path
         id="path144"
         style="fill:none;stroke:#101211;stroke-width:2.16000009;stroke-linecap:butt;stroke-linejoin:miter;stroke-miterlimit:2.61310005;stroke-dasharray:none;stroke-opacity:1"
         d="M 1685.41,5.02344 V 895.031" /><path
         id="path146"
         style="fill:none;stroke:#101211;stroke-width:2.16000009;stroke-linecap:butt;stroke-linejoin:miter;stroke-miterlimit:2.61310005;stroke-dasharray:none;stroke-opacity:1"
         d="M 1771.44,5.02344 V 895.031" /><path
         id="path148"
         style="fill:none;stroke:#101211;stroke-width:2.16000009;stroke-linecap:butt;stroke-linejoin:miter;stroke-miterlimit:2.61310005;stroke-dasharray:none;stroke-opacity:1"
         d="M 1857.48,5.02344 V 895.031" /><path
         id="path150"
         style="fill:none;stroke:#101211;stroke-width:2.16000009;stroke-linecap:butt;stroke-linejoin:miter;stroke-miterlimit:2.61310005;stroke-dasharray:none;stroke-opacity:1"
         d="M 1083.19,94.0312 H 1943.5" /><path
         id="path152"
         style="fill:none;stroke:#101211;stroke-width:2.16000009;stroke-linecap:butt;stroke-linejoin:miter;stroke-miterlimit:2.61310005;stroke-dasharray:none;stroke-opacity:1"
         d="M 1083.19,183.02 H 1943.5" /><path
         id="path154"
         style="fill:none;stroke:#101211;stroke-width:2.16000009;stroke-linecap:butt;stroke-linejoin:miter;stroke-miterlimit:2.61310005;stroke-dasharray:none;stroke-opacity:1"
         d="M 1083.19,272.023 H 1943.5" /><path
         id="path156"
         style="fill:none;stroke:#101211;stroke-width:2.16000009;stroke-linecap:butt;stroke-linejoin:miter;stroke-miterlimit:2.61310005;stroke-dasharray:none;stroke-opacity:1"
         d="M 1083.19,361.023 H 1943.5" /><path
         id="path158"
         style="fill:none;stroke:#101211;stroke-width:2.16000009;stroke-linecap:butt;stroke-linejoin:miter;stroke-miterlimit:2.61310005;stroke-dasharray:none;stroke-opacity:1"
         d="M 1083.19,450.02 H 1943.5" /><path
         id="path160"
         style="fill:none;stroke:#101211;stroke-width:2.16000009;stroke-linecap:butt;stroke-linejoin:miter;stroke-miterlimit:2.61310005;stroke-dasharray:none;stroke-opacity:1"
         d="M 1083.19,539.031 H 1943.5" /><path
         id="path162"
         style="fill:none;stroke:#101211;stroke-width:2.16000009;stroke-linecap:butt;stroke-linejoin:miter;stroke-miterlimit:2.61310005;stroke-dasharray:none;stroke-opacity:1"
         d="M 1083.19,628.027 H 1943.5" /><path
         id="path164"
         style="fill:none;stroke:#101211;stroke-width:2.16000009;stroke-linecap:butt;stroke-linejoin:miter;stroke-miterlimit:2.61310005;stroke-dasharray:none;stroke-opacity:1"
         d="M 1083.19,717.035 H 1943.5" /><path
         id="path166"
         style="fill:none;stroke:#101211;stroke-width:2.16000009;stroke-linecap:butt;stroke-linejoin:miter;stroke-miterlimit:2.61310005;stroke-dasharray:none;stroke-opacity:1"
         d="M 1083.19,806.023 H 1943.5" /><path
         id="path168"
         style="fill:none;stroke:#231f20;stroke-width:7.5005002;stroke-linecap:butt;stroke-linejoin:miter;stroke-miterlimit:2.61310005;stroke-dasharray:none;stroke-opacity:1"
         d="m 1083.19,450.02 h 816.56" /><path
         id="path170"
         style="fill:#231f20;fill-opacity:1;fill-rule:evenodd;stroke:none"
         d="m 1895.6,476.367 47.9,-26.347 -47.9,-26.348 v 52.695" /><path
         id="path172"
         style="fill:none;stroke:#231f20;stroke-width:7.5005002;stroke-linecap:butt;stroke-linejoin:miter;stroke-miterlimit:2.61310005;stroke-dasharray:none;stroke-opacity:1"
         d="M 1512.25,11.0312 V 857.293" /><path
         id="path174"
         style="fill:#231f20;fill-opacity:1;fill-rule:evenodd;stroke:none"
         d="m 1485.9,853.141 26.35,47.898 26.34,-47.898 h -52.69" /><path
         id="path176"
         style="fill:none;stroke:#0b0c0b;stroke-width:7.5005002;stroke-linecap:butt;stroke-linejoin:miter;stroke-miterlimit:2.61310005;stroke-dasharray:none;stroke-opacity:1"
         d="m 1083.19,338.773 4.31,1.118 4.3,1.109 4.31,1.109 4.29,1.118 4.29,1.109 4.32,1.117 4.3,1.109 4.3,1.118 4.3,1.097 4.3,1.121 4.31,1.129 4.3,1.094 4.3,1.117 4.3,1.106 4.29,1.121 4.31,1.121 4.3,1.102 4.3,1.121 4.3,1.101 4.31,1.113 4.3,1.122 4.3,1.105 4.29,1.113 4.32,1.114 4.29,1.109 4.3,1.117 4.3,1.106 4.31,1.117 4.3,1.121 4.3,1.101 4.3,1.129 4.3,1.098 4.3,1.121 4.31,1.106 4.29,1.117 4.32,1.109 4.3,1.11 4.28,1.121 4.31,1.101 4.3,1.106 4.31,1.129 4.3,1.105 4.3,1.113 4.29,1.117 4.3,1.106 4.3,1.125 4.31,1.098 4.31,1.125 4.3,1.101 4.3,1.106 4.3,1.129 4.31,1.105 4.3,1.109 4.29,1.114 4.31,1.109 4.3,1.117 4.3,1.11 4.31,1.117 4.29,1.125 4.3,1.109 4.31,1.106 4.3,1.117 4.3,1.101 4.31,1.118 4.29,1.117 4.32,1.117 4.28,1.101 4.31,1.11 4.3,1.113 4.31,1.113 4.29,1.114 4.31,1.121 4.29,1.094 4.31,1.14 4.3,1.098 4.3,1.113 4.31,1.113 4.3,1.114 4.3,1.109 4.3,1.109 4.3,1.114 4.31,1.117 4.29,1.121 4.31,1.109 4.3,1.102 4.3,1.113 4.3,1.117 4.3,1.11 4.3,1.105 4.3,1.117 4.3,1.122 4.31,1.101 4.29,1.117 4.31,1.121 4.3,1.098 4.3,1.117 4.31,1.125 4.3,1.102 4.3,1.101 4.3,1.118 4.31,1.132 4.29,1.102 4.3,1.101 4.3,1.125 4.31,1.118 4.29,1.097 4.3,1.125 4.31,1.114 4.3,1.101 4.3,1.121 4.3,1.117 4.3,1.106 4.31,1.109 4.3,1.117 4.3,1.114 4.3,1.101 4.3,1.11 4.31,1.121 4.29,1.117 4.31,1.113 4.3,1.11 4.3,1.109 4.31,1.113 4.28,1.114 4.32,1.113 4.3,1.098 4.3,1.14 4.3,1.094 4.3,1.121 4.3,1.113 4.3,1.114 4.31,1.113 4.3,1.105 4.3,1.11 4.3,1.113 4.31,1.117 4.29,1.117 4.31,1.106 4.29,1.113 4.31,1.117 4.3,1.098 4.3,1.125 4.3,1.117 4.31,1.109 4.31,1.118 4.29,1.109 4.3,1.113 4.3,1.11 4.3,1.105 4.31,1.129 4.3,1.106 4.3,1.101 4.29,1.125 4.31,1.098 4.3,1.125 4.31,1.105 4.3,1.117 4.3,1.114 4.29,1.105 4.31,1.129 4.31,1.106 4.29,1.101 4.32,1.121 4.28,1.11 4.31,1.109 4.3,1.117 4.3,1.106 4.3,1.121 4.3,1.097 4.32,1.129 4.29,1.102 4.29,1.121 4.31,1.117 4.31,1.106 4.3,1.117 4.29,1.109 4.31,1.113 4.3,1.114 4.3,1.105 4.31,1.121 4.3,1.114 4.3,1.101 4.29,1.121 4.32,1.102 4.29,1.121 4.31,1.121 4.3,1.105 4.29,1.118 4.3,1.093 4.31,1.129 4.3,1.121 4.3,1.098 4.3,1.117 4.31,1.11 4.3,1.117 4.3,1.109 4.29,1.117 4.31,1.11 4.3,1.105 4.3,1.121" /><path
         id="path178"
         style="fill:#231f20;fill-opacity:1;fill-rule:nonzero;stroke:none"
         d="m 378.227,885.898 c 1.097,-1.878 1.863,-3.648 2.296,-5.281 0.418,-1.652 0.836,-4.887 1.27,-9.699 l 2.148,-24.016 c 1.95,2.332 4.786,6.047 8.5,11.129 1.782,2.469 4,5.836 6.633,10.102 1.602,2.597 2.567,4.433 2.934,5.469 0.183,0.515 0.285,1.066 0.285,1.613 0,0.351 -0.102,0.652 -0.336,0.887 -0.23,0.214 -0.816,0.48 -1.781,0.796 -0.969,0.301 -1.766,0.887 -2.399,1.704 -0.636,0.832 -0.953,1.781 -0.953,2.863 0,1.332 0.403,2.402 1.184,3.219 0.765,0.816 1.75,1.214 2.918,1.214 1.429,0 2.648,-0.582 3.664,-1.781 1.019,-1.183 1.515,-2.816 1.515,-4.902 0,-2.563 -0.878,-5.516 -2.632,-8.817 -1.766,-3.296 -5.149,-8.367 -10.164,-15.199 -5,-6.847 -11.082,-14.297 -18.2,-22.367 -4.918,-5.566 -8.566,-9.082 -10.953,-10.531 -2.367,-1.434 -4.398,-2.168 -6.097,-2.168 -1.016,0 -1.899,0.383 -2.664,1.152 -0.77,0.766 -1.137,1.649 -1.137,2.664 0,1.266 0.515,2.418 1.582,3.469 1.055,1.031 2.199,1.551 3.437,1.551 0.649,0 1.2,-0.137 1.614,-0.434 0.269,-0.168 0.55,-0.633 0.851,-1.402 0.317,-0.75 0.598,-1.266 0.863,-1.535 0.153,-0.164 0.352,-0.231 0.586,-0.231 0.184,0 0.532,0.149 1.016,0.485 1.801,1.101 3.887,2.867 6.254,5.265 3.129,3.199 5.434,5.801 6.93,7.817 l -2.735,30.949 c -0.445,5.117 -1.129,8.234 -2.047,9.332 -0.918,1.101 -2.433,1.668 -4.586,1.668 -0.683,0 -1.914,-0.098 -3.664,-0.301 l -0.433,1.801 14.301,3.515" /><path
         id="path180"
         style="fill:#231f20;fill-opacity:1;fill-rule:nonzero;stroke:none"
         d="m 1453.59,880.641 c 1.1,-1.883 1.87,-3.649 2.3,-5.282 0.42,-1.652 0.83,-4.886 1.27,-9.703 l 2.14,-24.011 c 1.96,2.332 4.79,6.046 8.51,11.128 1.78,2.469 3.99,5.836 6.63,10.102 1.6,2.598 2.57,4.434 2.94,5.469 0.18,0.515 0.28,1.062 0.28,1.613 0,0.352 -0.1,0.648 -0.34,0.887 -0.23,0.215 -0.81,0.48 -1.78,0.797 -0.97,0.3 -1.77,0.886 -2.4,1.703 -0.63,0.832 -0.95,1.781 -0.95,2.863 0,1.332 0.4,2.402 1.19,3.219 0.76,0.816 1.74,1.215 2.91,1.215 1.43,0 2.65,-0.582 3.67,-1.782 1.01,-1.183 1.51,-2.816 1.51,-4.902 0,-2.566 -0.88,-5.516 -2.63,-8.816 -1.77,-3.297 -5.15,-8.368 -10.16,-15.2 -5,-6.851 -11.09,-14.3 -18.21,-22.367 -4.91,-5.566 -8.56,-9.082 -10.95,-10.531 -2.36,-1.434 -4.4,-2.168 -6.1,-2.168 -1.01,0 -1.9,0.383 -2.66,1.152 -0.77,0.766 -1.14,1.649 -1.14,2.664 0,1.266 0.52,2.418 1.59,3.469 1.05,1.031 2.2,1.547 3.43,1.547 0.65,0 1.2,-0.133 1.62,-0.434 0.26,-0.164 0.55,-0.628 0.85,-1.398 0.31,-0.75 0.6,-1.266 0.86,-1.535 0.15,-0.164 0.35,-0.231 0.58,-0.231 0.19,0 0.54,0.149 1.02,0.485 1.81,1.097 3.89,2.867 6.25,5.265 3.14,3.2 5.44,5.801 6.94,7.817 l -2.74,30.949 c -0.45,5.117 -1.13,8.234 -2.05,9.332 -0.91,1.102 -2.43,1.668 -4.58,1.668 -0.68,0 -1.92,-0.102 -3.67,-0.301 l -0.43,1.801 14.3,3.516" /><path
         id="path182"
         style="fill:#231f20;fill-opacity:1;fill-rule:nonzero;stroke:none"
         d="m 2528.41,879.078 c 1.1,-1.879 1.86,-3.648 2.3,-5.281 0.41,-1.652 0.83,-4.887 1.26,-9.699 l 2.15,-24.016 c 1.95,2.332 4.79,6.047 8.5,11.129 1.79,2.469 4,5.836 6.63,10.101 1.61,2.598 2.57,4.434 2.94,5.469 0.19,0.516 0.28,1.067 0.28,1.614 0,0.351 -0.09,0.652 -0.33,0.886 -0.23,0.215 -0.82,0.481 -1.78,0.797 -0.97,0.301 -1.77,0.887 -2.4,1.703 -0.64,0.832 -0.96,1.781 -0.96,2.864 0,1.335 0.41,2.402 1.19,3.218 0.76,0.817 1.75,1.215 2.92,1.215 1.43,0 2.65,-0.582 3.66,-1.781 1.02,-1.184 1.52,-2.817 1.52,-4.902 0,-2.563 -0.88,-5.516 -2.63,-8.813 -1.77,-3.301 -5.15,-8.371 -10.17,-15.199 -5,-6.852 -11.08,-14.301 -18.2,-22.371 -4.91,-5.567 -8.57,-9.082 -10.95,-10.532 -2.37,-1.433 -4.4,-2.168 -6.1,-2.168 -1.02,0 -1.9,0.383 -2.67,1.153 -0.77,0.765 -1.13,1.648 -1.13,2.664 0,1.269 0.52,2.418 1.58,3.469 1.05,1.035 2.2,1.55 3.44,1.55 0.65,0 1.2,-0.136 1.61,-0.433 0.27,-0.168 0.55,-0.633 0.85,-1.403 0.32,-0.746 0.6,-1.265 0.87,-1.531 0.15,-0.168 0.35,-0.234 0.58,-0.234 0.18,0 0.54,0.148 1.02,0.484 1.8,1.102 3.88,2.867 6.25,5.266 3.13,3.199 5.43,5.801 6.93,7.816 l -2.73,30.949 c -0.45,5.118 -1.13,8.235 -2.05,9.333 -0.92,1.101 -2.43,1.667 -4.59,1.667 -0.68,0 -1.91,-0.097 -3.66,-0.3 l -0.43,1.8 14.3,3.516" /><path
         id="path184"
         style="fill:#231f20;fill-opacity:1;fill-rule:nonzero;stroke:none"
         d="m 510.758,420.688 16.117,7.863 h 1.613 v -55.914 c 0,-3.703 0.153,-6.02 0.453,-6.934 0.317,-0.902 0.965,-1.601 1.934,-2.101 0.984,-0.485 2.969,-0.766 5.965,-0.832 v -1.801 h -24.914 v 1.801 c 3.133,0.066 5.148,0.335 6.066,0.816 0.899,0.469 1.531,1.102 1.899,1.898 0.351,0.805 0.535,3.184 0.535,7.153 v 35.75 c 0,4.816 -0.168,7.898 -0.485,9.265 -0.234,1.051 -0.648,1.817 -1.25,2.301 -0.601,0.485 -1.316,0.735 -2.168,0.735 -1.199,0 -2.882,-0.504 -5.031,-1.52 l -0.734,1.52" /><path
         id="path186"
         style="fill:#231f20;fill-opacity:1;fill-rule:nonzero;stroke:none"
         d="m 401.902,567.434 16.118,7.867 h 1.613 v -55.918 c 0,-3.703 0.152,-6.016 0.453,-6.934 0.316,-0.902 0.965,-1.601 1.934,-2.097 0.98,-0.489 2.964,-0.766 5.964,-0.836 v -1.801 H 403.07 v 1.801 c 3.129,0.07 5.149,0.336 6.067,0.816 0.898,0.469 1.531,1.102 1.898,1.898 0.352,0.805 0.535,3.184 0.535,7.153 v 35.75 c 0,4.816 -0.168,7.902 -0.484,9.265 -0.234,1.051 -0.648,1.821 -1.25,2.301 -0.602,0.485 -1.316,0.735 -2.168,0.735 -1.199,0 -2.883,-0.504 -5.031,-1.516 l -0.735,1.516" /><path
         id="path188"
         style="fill:#231f20;fill-opacity:1;fill-rule:nonzero;stroke:none"
         d="m 380.875,407.336 c 0,7.547 1.137,14.047 3.418,19.5 2.285,5.449 5.301,9.516 9.086,12.184 2.93,2.117 5.949,3.179 9.082,3.179 5.062,0 9.633,-2.597 13.664,-7.765 5.051,-6.418 7.566,-15.098 7.566,-26.082 0,-7.684 -1.097,-14.2 -3.316,-19.567 -2.215,-5.383 -5.031,-9.281 -8.465,-11.699 -3.433,-2.434 -6.75,-3.637 -9.949,-3.637 -6.301,0 -11.57,3.719 -15.766,11.188 -3.554,6.281 -5.32,13.847 -5.32,22.699 z m 9.566,-1.215 c 0,-9.121 1.118,-16.57 3.371,-22.32 1.848,-4.848 4.629,-7.281 8.297,-7.281 1.766,0 3.586,0.8 5.465,2.363 1.903,1.586 3.336,4.238 4.301,7.937 1.5,5.598 2.25,13.496 2.25,23.68 0,7.551 -0.785,13.852 -2.348,18.898 -1.168,3.75 -2.683,6.403 -4.535,7.969 -1.332,1.067 -2.949,1.602 -4.836,1.602 -2.215,0 -4.179,-0.985 -5.914,-2.969 -2.332,-2.699 -3.93,-6.949 -4.781,-12.75 -0.852,-5.797 -1.27,-11.5 -1.27,-17.129" /><path
         id="path190"
         style="fill:#231f20;fill-opacity:1;fill-rule:nonzero;stroke:none"
         d="m 806.996,420.461 c 1.598,-1.684 2.801,-3.383 3.613,-5.063 0.586,-1.187 1.551,-4.253 2.883,-9.238 l 4.301,6.453 c 1.137,1.547 2.519,3.051 4.152,4.465 1.614,1.418 3.047,2.383 4.282,2.899 0.781,0.335 1.648,0.484 2.601,0.484 1.399,0 2.5,-0.363 3.332,-1.117 0.832,-0.75 1.25,-1.664 1.25,-2.731 0,-1.234 -0.25,-2.082 -0.734,-2.535 -0.914,-0.816 -1.949,-1.23 -3.114,-1.23 -0.683,0 -1.417,0.148 -2.203,0.449 -1.531,0.515 -2.566,0.781 -3.082,0.781 -0.781,0 -1.699,-0.469 -2.785,-1.367 -2.015,-1.699 -4.414,-4.965 -7.215,-9.813 l 4,-16.8 c 0.618,-2.567 1.133,-4.118 1.567,-4.621 0.418,-0.497 0.832,-0.747 1.265,-0.747 0.684,0 1.485,0.364 2.387,1.118 1.797,1.5 3.316,3.449 4.598,5.863 l 1.699,-0.883 c -2.051,-3.848 -4.648,-7.031 -7.816,-9.566 -1.782,-1.434 -3.301,-2.149 -4.536,-2.149 -1.812,0 -3.265,1.016 -4.347,3.067 -0.684,1.265 -2.102,6.75 -4.25,16.418 -5.067,-8.832 -9.133,-14.504 -12.199,-17.051 -1.985,-1.617 -3.899,-2.434 -5.77,-2.434 -1.297,0 -2.48,0.465 -3.563,1.414 -0.765,0.719 -1.167,1.668 -1.167,2.883 0,1.07 0.367,1.969 1.085,2.688 0.7,0.714 1.579,1.062 2.633,1.062 1.032,0 2.149,-0.515 3.317,-1.562 0.847,-0.75 1.5,-1.118 1.949,-1.118 0.398,0 0.898,0.266 1.516,0.782 1.535,1.234 3.613,3.902 6.25,8 2.632,4.101 4.367,7.066 5.183,8.902 -2.035,7.898 -3.117,12.082 -3.285,12.535 -0.75,2.113 -1.715,3.613 -2.934,4.496 -1.199,0.887 -2.964,1.321 -5.316,1.321 -0.75,0 -1.617,-0.036 -2.582,-0.106 v 1.77 l 13.035,2.281" /><path
         id="path192"
         style="fill:#231f20;fill-opacity:1;fill-rule:nonzero;stroke:none"
         d="m 1589.5,425.199 16.12,7.867 h 1.61 v -55.918 c 0,-3.699 0.15,-6.015 0.45,-6.933 0.32,-0.899 0.97,-1.602 1.94,-2.098 0.98,-0.484 2.96,-0.765 5.96,-0.836 v -1.797 h -24.91 v 1.797 c 3.13,0.071 5.15,0.336 6.06,0.817 0.9,0.468 1.54,1.101 1.9,1.898 0.35,0.805 0.54,3.184 0.54,7.152 v 35.75 c 0,4.817 -0.17,7.903 -0.49,9.266 -0.23,1.051 -0.64,1.82 -1.25,2.301 -0.6,0.484 -1.31,0.734 -2.16,0.734 -1.2,0 -2.89,-0.5 -5.04,-1.515 l -0.73,1.515" /><path
         id="path194"
         style="fill:#231f20;fill-opacity:1;fill-rule:nonzero;stroke:none"
         d="m 1471.61,574.957 16.12,7.863 h 1.61 v -55.914 c 0,-3.703 0.16,-6.015 0.46,-6.933 0.31,-0.903 0.96,-1.602 1.93,-2.102 0.98,-0.484 2.97,-0.762 5.97,-0.832 v -1.801 h -24.92 v 1.801 c 3.13,0.07 5.15,0.336 6.06,0.816 0.91,0.469 1.54,1.102 1.91,1.899 0.34,0.805 0.53,3.184 0.53,7.152 v 35.75 c 0,4.817 -0.17,7.903 -0.48,9.266 -0.24,1.051 -0.66,1.816 -1.25,2.301 -0.6,0.484 -1.32,0.734 -2.17,0.734 -1.2,0 -2.88,-0.504 -5.04,-1.516 l -0.73,1.516" /><path
         id="path196"
         style="fill:#231f20;fill-opacity:1;fill-rule:nonzero;stroke:none"
         d="m 1455.1,395.293 c 0,7.547 1.13,14.047 3.42,19.496 2.28,5.453 5.3,9.516 9.08,12.184 2.94,2.117 5.95,3.183 9.08,3.183 5.07,0 9.64,-2.597 13.67,-7.765 5.05,-6.418 7.57,-15.102 7.57,-26.086 0,-7.68 -1.1,-14.2 -3.32,-19.563 -2.21,-5.383 -5.03,-9.285 -8.46,-11.703 -3.44,-2.43 -6.75,-3.633 -9.95,-3.633 -6.3,0 -11.57,3.719 -15.77,11.184 -3.55,6.285 -5.32,13.851 -5.32,22.703 z m 9.57,-1.219 c 0,-9.117 1.12,-16.566 3.37,-22.316 1.85,-4.848 4.63,-7.285 8.3,-7.285 1.76,0 3.58,0.804 5.46,2.367 1.9,1.586 3.34,4.234 4.3,7.933 1.5,5.598 2.25,13.5 2.25,23.684 0,7.551 -0.78,13.852 -2.35,18.898 -1.16,3.75 -2.68,6.403 -4.53,7.969 -1.34,1.067 -2.95,1.598 -4.84,1.598 -2.21,0 -4.18,-0.984 -5.91,-2.965 -2.33,-2.699 -3.93,-6.949 -4.78,-12.75 -0.85,-5.801 -1.27,-11.5 -1.27,-17.133" /><path
         id="path198"
         style="fill:#231f20;fill-opacity:1;fill-rule:nonzero;stroke:none"
         d="m 1891.76,417.449 c 1.6,-1.683 2.8,-3.383 3.62,-5.066 0.58,-1.184 1.55,-4.25 2.88,-9.235 l 4.29,6.454 c 1.14,1.546 2.52,3.046 4.16,4.464 1.61,1.414 3.05,2.383 4.28,2.899 0.78,0.336 1.65,0.484 2.6,0.484 1.4,0 2.5,-0.367 3.33,-1.117 0.83,-0.75 1.25,-1.668 1.25,-2.73 0,-1.235 -0.25,-2.086 -0.73,-2.536 -0.92,-0.816 -1.95,-1.234 -3.12,-1.234 -0.68,0 -1.41,0.152 -2.2,0.453 -1.53,0.516 -2.57,0.781 -3.08,0.781 -0.78,0 -1.7,-0.468 -2.79,-1.367 -2.01,-1.699 -4.41,-4.965 -7.21,-9.816 l 4,-16.801 c 0.62,-2.566 1.13,-4.117 1.57,-4.617 0.41,-0.5 0.83,-0.75 1.26,-0.75 0.68,0 1.49,0.367 2.39,1.117 1.8,1.5 3.31,3.449 4.6,5.867 l 1.69,-0.883 c -2.05,-3.847 -4.64,-7.031 -7.81,-9.566 -1.78,-1.434 -3.3,-2.152 -4.54,-2.152 -1.81,0 -3.26,1.019 -4.34,3.066 -0.69,1.27 -2.1,6.754 -4.25,16.418 -5.07,-8.832 -9.14,-14.5 -12.2,-17.047 -1.99,-1.617 -3.9,-2.437 -5.77,-2.437 -1.3,0 -2.48,0.468 -3.57,1.418 -0.76,0.718 -1.16,1.668 -1.16,2.882 0,1.071 0.36,1.969 1.08,2.684 0.7,0.719 1.58,1.066 2.63,1.066 1.04,0 2.15,-0.515 3.32,-1.562 0.85,-0.754 1.5,-1.117 1.95,-1.117 0.4,0 0.9,0.265 1.52,0.781 1.53,1.234 3.61,3.898 6.25,8 2.63,4.102 4.36,7.066 5.18,8.898 -2.03,7.903 -3.12,12.086 -3.28,12.536 -0.76,2.113 -1.72,3.613 -2.94,4.5 -1.19,0.882 -2.96,1.316 -5.32,1.316 -0.74,0 -1.61,-0.035 -2.58,-0.102 v 1.766 l 13.04,2.285" /><path
         id="path200"
         style="fill:#231f20;fill-opacity:1;fill-rule:nonzero;stroke:none"
         d="m 2671.23,428.215 16.11,7.867 h 1.62 v -55.918 c 0,-3.699 0.15,-6.016 0.45,-6.934 0.32,-0.898 0.97,-1.601 1.93,-2.097 0.99,-0.485 2.97,-0.766 5.97,-0.836 V 368.5 h -24.92 v 1.797 c 3.14,0.07 5.16,0.336 6.07,0.816 0.9,0.469 1.54,1.102 1.9,1.903 0.35,0.8 0.53,3.183 0.53,7.148 v 35.75 c 0,4.816 -0.16,7.902 -0.48,9.27 -0.23,1.046 -0.65,1.816 -1.25,2.296 -0.6,0.485 -1.31,0.735 -2.16,0.735 -1.21,0 -2.89,-0.5 -5.04,-1.516 l -0.73,1.516" /><path
         id="path202"
         style="fill:#231f20;fill-opacity:1;fill-rule:nonzero;stroke:none"
         d="m 2544.31,567.438 16.12,7.863 h 1.61 v -55.914 c 0,-3.703 0.15,-6.02 0.45,-6.934 0.32,-0.902 0.97,-1.601 1.94,-2.101 0.98,-0.485 2.96,-0.766 5.96,-0.832 v -1.801 h -24.91 v 1.801 c 3.13,0.066 5.15,0.335 6.06,0.816 0.91,0.469 1.54,1.098 1.9,1.898 0.35,0.801 0.54,3.184 0.54,7.153 v 35.75 c 0,4.816 -0.17,7.898 -0.49,9.265 -0.23,1.051 -0.65,1.817 -1.25,2.301 -0.6,0.485 -1.31,0.735 -2.16,0.735 -1.2,0 -2.88,-0.504 -5.04,-1.52 l -0.73,1.52" /><path
         id="path204"
         style="fill:#231f20;fill-opacity:1;fill-rule:nonzero;stroke:none"
         d="m 2530.81,401.316 c 0,7.551 1.14,14.051 3.42,19.5 2.28,5.454 5.3,9.516 9.08,12.184 2.93,2.117 5.95,3.184 9.08,3.184 5.07,0 9.64,-2.602 13.67,-7.766 5.05,-6.418 7.57,-15.102 7.57,-26.086 0,-7.68 -1.1,-14.199 -3.32,-19.562 -2.22,-5.383 -5.03,-9.286 -8.47,-11.704 -3.43,-2.433 -6.75,-3.632 -9.95,-3.632 -6.3,0 -11.56,3.718 -15.76,11.183 -3.55,6.281 -5.32,13.852 -5.32,22.699 z m 9.57,-1.214 c 0,-9.118 1.12,-16.571 3.37,-22.317 1.84,-4.851 4.63,-7.285 8.29,-7.285 1.77,0 3.59,0.801 5.47,2.367 1.9,1.582 3.33,4.235 4.3,7.934 1.5,5.597 2.25,13.5 2.25,23.683 0,7.547 -0.79,13.848 -2.35,18.899 -1.17,3.75 -2.68,6.398 -4.53,7.969 -1.34,1.062 -2.95,1.597 -4.84,1.597 -2.22,0 -4.18,-0.984 -5.91,-2.965 -2.34,-2.703 -3.93,-6.949 -4.79,-12.75 -0.85,-5.8 -1.26,-11.5 -1.26,-17.132" /><path
         id="path206"
         style="fill:#231f20;fill-opacity:1;fill-rule:nonzero;stroke:none"
         d="m 2947.9,414.445 c 1.6,-1.683 2.8,-3.386 3.62,-5.066 0.58,-1.184 1.55,-4.25 2.88,-9.234 l 4.3,6.449 c 1.13,1.551 2.51,3.051 4.15,4.465 1.61,1.418 3.05,2.386 4.28,2.902 0.78,0.332 1.65,0.484 2.6,0.484 1.4,0 2.5,-0.367 3.33,-1.117 0.83,-0.75 1.25,-1.668 1.25,-2.734 0,-1.231 -0.25,-2.082 -0.73,-2.532 -0.92,-0.816 -1.95,-1.234 -3.12,-1.234 -0.68,0 -1.41,0.149 -2.19,0.449 -1.54,0.516 -2.57,0.785 -3.09,0.785 -0.78,0 -1.7,-0.468 -2.79,-1.367 -2.01,-1.703 -4.41,-4.968 -7.21,-9.816 l 4,-16.801 c 0.62,-2.566 1.13,-4.117 1.57,-4.617 0.41,-0.5 0.83,-0.75 1.27,-0.75 0.68,0 1.48,0.367 2.38,1.117 1.8,1.5 3.31,3.449 4.6,5.867 l 1.7,-0.883 c -2.05,-3.851 -4.65,-7.035 -7.82,-9.566 -1.78,-1.434 -3.3,-2.152 -4.53,-2.152 -1.82,0 -3.27,1.015 -4.35,3.066 -0.69,1.27 -2.1,6.754 -4.25,16.418 -5.07,-8.832 -9.14,-14.5 -12.2,-17.051 -1.99,-1.613 -3.9,-2.433 -5.77,-2.433 -1.3,0 -2.48,0.468 -3.57,1.418 -0.76,0.715 -1.16,1.668 -1.16,2.883 0,1.066 0.36,1.964 1.08,2.683 0.7,0.719 1.58,1.067 2.64,1.067 1.03,0 2.14,-0.516 3.31,-1.567 0.85,-0.75 1.5,-1.117 1.95,-1.117 0.4,0 0.9,0.269 1.52,0.785 1.53,1.231 3.61,3.899 6.25,7.996 2.63,4.102 4.36,7.07 5.18,8.903 -2.03,7.898 -3.12,12.085 -3.28,12.535 -0.75,2.113 -1.72,3.613 -2.93,4.5 -1.2,0.882 -2.97,1.316 -5.32,1.316 -0.75,0 -1.62,-0.035 -2.59,-0.101 v 1.765 l 13.04,2.285" /></g></g></svg>