<?xml version="1.0" encoding="UTF-8" standalone="no"?>
<svg
   xmlns:dc="http://purl.org/dc/elements/1.1/"
   xmlns:cc="http://creativecommons.org/ns#"
   xmlns:rdf="http://www.w3.org/1999/02/22-rdf-syntax-ns#"
   xmlns:svg="http://www.w3.org/2000/svg"
   xmlns="http://www.w3.org/2000/svg"
   viewBox="0 0 397.33334 113.33333"
   height="113.33333"
   width="397.33334"
   xml:space="preserve"
   id="svg2"
   version="1.1"><metadata
     id="metadata8"><rdf:RDF><cc:Work
         rdf:about=""><dc:format>image/svg+xml</dc:format><dc:type
           rdf:resource="http://purl.org/dc/dcmitype/StillImage" /></cc:Work></rdf:RDF></metadata><defs
     id="defs6" /><g
     transform="matrix(1.3333333,0,0,-1.3333333,0,113.33333)"
     id="g10"><g
       transform="scale(0.1)"
       id="g12"><path
         id="path14"
         style="fill:#ffffff;fill-opacity:1;fill-rule:evenodd;stroke:none"
         d="m 9.20312,6.97266 h 808.008 v 835.898 H 9.20312 Z" /><path
         id="path16"
         style="fill:none;stroke:#0b0c0b;stroke-width:2.16000009;stroke-linecap:butt;stroke-linejoin:miter;stroke-miterlimit:2.61310005;stroke-dasharray:none;stroke-opacity:1"
         d="m 9.20312,6.97266 h 808.008 v 835.898 H 9.20312 Z" /><path
         id="path18"
         style="fill:none;stroke:#101211;stroke-width:2.16000009;stroke-linecap:butt;stroke-linejoin:miter;stroke-miterlimit:2.61310005;stroke-dasharray:none;stroke-opacity:1"
         d="M 90.0039,6.97266 V 842.871" /><path
         id="path20"
         style="fill:none;stroke:#101211;stroke-width:2.16000009;stroke-linecap:butt;stroke-linejoin:miter;stroke-miterlimit:2.61310005;stroke-dasharray:none;stroke-opacity:1"
         d="M 170.805,6.97266 V 842.871" /><path
         id="path22"
         style="fill:none;stroke:#101211;stroke-width:2.16000009;stroke-linecap:butt;stroke-linejoin:miter;stroke-miterlimit:2.61310005;stroke-dasharray:none;stroke-opacity:1"
         d="M 251.605,6.97266 V 842.871" /><path
         id="path24"
         style="fill:none;stroke:#101211;stroke-width:2.16000009;stroke-linecap:butt;stroke-linejoin:miter;stroke-miterlimit:2.61310005;stroke-dasharray:none;stroke-opacity:1"
         d="M 170.043,3.96484 V 839.859" /><path
         id="path26"
         style="fill:none;stroke:#101211;stroke-width:2.16000009;stroke-linecap:butt;stroke-linejoin:miter;stroke-miterlimit:2.61310005;stroke-dasharray:none;stroke-opacity:1"
         d="M 250.844,3.96484 V 839.859" /><path
         id="path28"
         style="fill:none;stroke:#101211;stroke-width:2.16000009;stroke-linecap:butt;stroke-linejoin:miter;stroke-miterlimit:2.61310005;stroke-dasharray:none;stroke-opacity:1"
         d="M 331.641,3.96484 V 839.859" /><path
         id="path30"
         style="fill:none;stroke:#101211;stroke-width:2.16000009;stroke-linecap:butt;stroke-linejoin:miter;stroke-miterlimit:2.61310005;stroke-dasharray:none;stroke-opacity:1"
         d="M 574.809,6.97266 V 842.871" /><path
         id="path32"
         style="fill:none;stroke:#101211;stroke-width:2.16000009;stroke-linecap:butt;stroke-linejoin:miter;stroke-miterlimit:2.61310005;stroke-dasharray:none;stroke-opacity:1"
         d="M 655.609,6.97266 V 842.871" /><path
         id="path34"
         style="fill:none;stroke:#101211;stroke-width:2.16000009;stroke-linecap:butt;stroke-linejoin:miter;stroke-miterlimit:2.61310005;stroke-dasharray:none;stroke-opacity:1"
         d="M 736.414,6.97266 V 842.871" /><path
         id="path36"
         style="fill:none;stroke:#101211;stroke-width:2.16000009;stroke-linecap:butt;stroke-linejoin:miter;stroke-miterlimit:2.61310005;stroke-dasharray:none;stroke-opacity:1"
         d="M 9.20312,90.5664 H 817.211" /><path
         id="path38"
         style="fill:none;stroke:#101211;stroke-width:2.16000009;stroke-linecap:butt;stroke-linejoin:miter;stroke-miterlimit:2.61310005;stroke-dasharray:none;stroke-opacity:1"
         d="M 9.20312,174.152 H 817.211" /><path
         id="path40"
         style="fill:none;stroke:#101211;stroke-width:2.16000009;stroke-linecap:butt;stroke-linejoin:miter;stroke-miterlimit:2.61310005;stroke-dasharray:none;stroke-opacity:1"
         d="M 9.20312,257.742 H 817.211" /><path
         id="path42"
         style="fill:none;stroke:#101211;stroke-width:2.16000009;stroke-linecap:butt;stroke-linejoin:miter;stroke-miterlimit:2.61310005;stroke-dasharray:none;stroke-opacity:1"
         d="M 9.20312,341.332 H 817.211" /><path
         id="path44"
         style="fill:none;stroke:#101211;stroke-width:2.16000009;stroke-linecap:butt;stroke-linejoin:miter;stroke-miterlimit:2.61310005;stroke-dasharray:none;stroke-opacity:1"
         d="M 6.19922,342.145 H 814.207" /><path
         id="path46"
         style="fill:none;stroke:#101211;stroke-width:2.16000009;stroke-linecap:butt;stroke-linejoin:miter;stroke-miterlimit:2.61310005;stroke-dasharray:none;stroke-opacity:1"
         d="M 9.20312,508.516 H 817.211" /><path
         id="path48"
         style="fill:none;stroke:#101211;stroke-width:2.16000009;stroke-linecap:butt;stroke-linejoin:miter;stroke-miterlimit:2.61310005;stroke-dasharray:none;stroke-opacity:1"
         d="M 9.20312,592.102 H 817.211" /><path
         id="path50"
         style="fill:none;stroke:#101211;stroke-width:2.16000009;stroke-linecap:butt;stroke-linejoin:miter;stroke-miterlimit:2.61310005;stroke-dasharray:none;stroke-opacity:1"
         d="M 9.20312,675.691 H 817.211" /><path
         id="path52"
         style="fill:none;stroke:#101211;stroke-width:2.16000009;stroke-linecap:butt;stroke-linejoin:miter;stroke-miterlimit:2.61310005;stroke-dasharray:none;stroke-opacity:1"
         d="M 9.20312,759.281 H 817.211" /><path
         id="path54"
         style="fill:none;stroke:#231f20;stroke-width:7.5005002;stroke-linecap:butt;stroke-linejoin:miter;stroke-miterlimit:2.61310005;stroke-dasharray:none;stroke-opacity:1"
         d="M 6.19922,257.754 H 770.457" /><path
         id="path56"
         style="fill:#231f20;fill-opacity:1;fill-rule:evenodd;stroke:none"
         d="m 766.305,284.102 47.902,-26.348 -47.902,-26.348 v 52.696" /><path
         id="path58"
         style="fill:none;stroke:#231f20;stroke-width:7.5005002;stroke-linecap:butt;stroke-linejoin:miter;stroke-miterlimit:2.61310005;stroke-dasharray:none;stroke-opacity:1"
         d="M 251.961,5.46484 V 797.617" /><path
         id="path60"
         style="fill:#231f20;fill-opacity:1;fill-rule:evenodd;stroke:none"
         d="m 225.613,793.465 26.348,47.898 26.351,-47.898 h -52.699" /><path
         id="path62"
         style="fill:#ffffff;fill-opacity:1;fill-rule:evenodd;stroke:none"
         d="m 2169.2,6.97266 h 808.008 v 835.898 H 2169.2 Z" /><path
         id="path64"
         style="fill:none;stroke:#0b0c0b;stroke-width:2.16000009;stroke-linecap:butt;stroke-linejoin:miter;stroke-miterlimit:2.61310005;stroke-dasharray:none;stroke-opacity:1"
         d="m 2169.2,6.97266 h 808.008 v 835.898 H 2169.2 Z" /><path
         id="path66"
         style="fill:none;stroke:#101211;stroke-width:2.16000009;stroke-linecap:butt;stroke-linejoin:miter;stroke-miterlimit:2.61310005;stroke-dasharray:none;stroke-opacity:1"
         d="M 2250,6.97266 V 842.871" /><path
         id="path68"
         style="fill:none;stroke:#101211;stroke-width:2.16000009;stroke-linecap:butt;stroke-linejoin:miter;stroke-miterlimit:2.61310005;stroke-dasharray:none;stroke-opacity:1"
         d="M 2330.8,6.97266 V 842.871" /><path
         id="path70"
         style="fill:none;stroke:#101211;stroke-width:2.16000009;stroke-linecap:butt;stroke-linejoin:miter;stroke-miterlimit:2.61310005;stroke-dasharray:none;stroke-opacity:1"
         d="M 2411.61,6.97266 V 842.871" /><path
         id="path72"
         style="fill:none;stroke:#101211;stroke-width:2.16000009;stroke-linecap:butt;stroke-linejoin:miter;stroke-miterlimit:2.61310005;stroke-dasharray:none;stroke-opacity:1"
         d="M 2492.41,6.97266 V 842.871" /><path
         id="path74"
         style="fill:none;stroke:#101211;stroke-width:2.16000009;stroke-linecap:butt;stroke-linejoin:miter;stroke-miterlimit:2.61310005;stroke-dasharray:none;stroke-opacity:1"
         d="M 2573.21,6.97266 V 842.871" /><path
         id="path76"
         style="fill:none;stroke:#101211;stroke-width:2.16000009;stroke-linecap:butt;stroke-linejoin:miter;stroke-miterlimit:2.61310005;stroke-dasharray:none;stroke-opacity:1"
         d="M 2654.01,6.97266 V 842.871" /><path
         id="path78"
         style="fill:none;stroke:#101211;stroke-width:2.16000009;stroke-linecap:butt;stroke-linejoin:miter;stroke-miterlimit:2.61310005;stroke-dasharray:none;stroke-opacity:1"
         d="M 2734.81,6.97266 V 842.871" /><path
         id="path80"
         style="fill:none;stroke:#101211;stroke-width:2.16000009;stroke-linecap:butt;stroke-linejoin:miter;stroke-miterlimit:2.61310005;stroke-dasharray:none;stroke-opacity:1"
         d="M 2815.61,6.97266 V 842.871" /><path
         id="path82"
         style="fill:none;stroke:#101211;stroke-width:2.16000009;stroke-linecap:butt;stroke-linejoin:miter;stroke-miterlimit:2.61310005;stroke-dasharray:none;stroke-opacity:1"
         d="M 2896.41,6.97266 V 842.871" /><path
         id="path84"
         style="fill:none;stroke:#101211;stroke-width:2.16000009;stroke-linecap:butt;stroke-linejoin:miter;stroke-miterlimit:2.61310005;stroke-dasharray:none;stroke-opacity:1"
         d="m 2169.2,90.5664 h 808.01" /><path
         id="path86"
         style="fill:none;stroke:#101211;stroke-width:2.16000009;stroke-linecap:butt;stroke-linejoin:miter;stroke-miterlimit:2.61310005;stroke-dasharray:none;stroke-opacity:1"
         d="m 2169.2,174.152 h 808.01" /><path
         id="path88"
         style="fill:none;stroke:#101211;stroke-width:2.16000009;stroke-linecap:butt;stroke-linejoin:miter;stroke-miterlimit:2.61310005;stroke-dasharray:none;stroke-opacity:1"
         d="m 2169.2,257.742 h 808.01" /><path
         id="path90"
         style="fill:none;stroke:#101211;stroke-width:2.16000009;stroke-linecap:butt;stroke-linejoin:miter;stroke-miterlimit:2.61310005;stroke-dasharray:none;stroke-opacity:1"
         d="m 2169.2,341.332 h 808.01" /><path
         id="path92"
         style="fill:none;stroke:#101211;stroke-width:2.16000009;stroke-linecap:butt;stroke-linejoin:miter;stroke-miterlimit:2.61310005;stroke-dasharray:none;stroke-opacity:1"
         d="m 2169.2,424.922 h 808.01" /><path
         id="path94"
         style="fill:none;stroke:#101211;stroke-width:2.16000009;stroke-linecap:butt;stroke-linejoin:miter;stroke-miterlimit:2.61310005;stroke-dasharray:none;stroke-opacity:1"
         d="m 2169.2,508.516 h 808.01" /><path
         id="path96"
         style="fill:none;stroke:#101211;stroke-width:2.16000009;stroke-linecap:butt;stroke-linejoin:miter;stroke-miterlimit:2.61310005;stroke-dasharray:none;stroke-opacity:1"
         d="m 2169.2,592.102 h 808.01" /><path
         id="path98"
         style="fill:none;stroke:#101211;stroke-width:2.16000009;stroke-linecap:butt;stroke-linejoin:miter;stroke-miterlimit:2.61310005;stroke-dasharray:none;stroke-opacity:1"
         d="m 2169.2,675.691 h 808.01" /><path
         id="path100"
         style="fill:none;stroke:#101211;stroke-width:2.16000009;stroke-linecap:butt;stroke-linejoin:miter;stroke-miterlimit:2.61310005;stroke-dasharray:none;stroke-opacity:1"
         d="m 2169.2,759.281 h 808.01" /><path
         id="path102"
         style="fill:none;stroke:#231f20;stroke-width:7.5005002;stroke-linecap:butt;stroke-linejoin:miter;stroke-miterlimit:2.61310005;stroke-dasharray:none;stroke-opacity:1"
         d="m 2169.2,424.922 h 764.26" /><path
         id="path104"
         style="fill:#231f20;fill-opacity:1;fill-rule:evenodd;stroke:none"
         d="m 2929.31,451.27 47.9,-26.348 -47.9,-26.348 v 52.696" /><path
         id="path106"
         style="fill:none;stroke:#231f20;stroke-width:7.5005002;stroke-linecap:butt;stroke-linejoin:miter;stroke-miterlimit:2.61310005;stroke-dasharray:none;stroke-opacity:1"
         d="M 2574.33,5.47266 V 797.621" /><path
         id="path108"
         style="fill:#231f20;fill-opacity:1;fill-rule:evenodd;stroke:none"
         d="m 2547.98,793.469 26.35,47.902 26.35,-47.902 h -52.7" /><path
         id="path110"
         style="fill:#231f20;fill-opacity:1;fill-rule:nonzero;stroke:none"
         d="m 215.859,836.891 c 1.102,-1.883 1.868,-3.653 2.301,-5.286 0.414,-1.648 0.832,-4.882 1.266,-9.699 l 2.148,-24.015 c 1.949,2.332 4.785,6.05 8.5,11.132 1.785,2.465 4,5.832 6.633,10.098 1.602,2.602 2.57,4.434 2.934,5.469 0.187,0.515 0.285,1.066 0.285,1.617 0,0.352 -0.098,0.648 -0.336,0.883 -0.231,0.215 -0.817,0.48 -1.781,0.801 -0.965,0.3 -1.766,0.882 -2.399,1.699 -0.633,0.832 -0.953,1.785 -0.953,2.867 0,1.332 0.402,2.398 1.188,3.215 0.765,0.816 1.746,1.219 2.914,1.219 1.433,0 2.652,-0.586 3.668,-1.786 1.015,-1.183 1.515,-2.816 1.515,-4.898 0,-2.566 -0.883,-5.519 -2.633,-8.816 -1.765,-3.301 -5.148,-8.368 -10.168,-15.2 -5,-6.851 -11.082,-14.3 -18.199,-22.367 -4.914,-5.57 -8.566,-9.082 -10.949,-10.535 -2.367,-1.43 -4.398,-2.164 -6.102,-2.164 -1.015,0 -1.898,0.383 -2.664,1.148 -0.769,0.766 -1.132,1.653 -1.132,2.665 0,1.269 0.515,2.417 1.582,3.468 1.05,1.035 2.199,1.551 3.433,1.551 0.649,0 1.199,-0.133 1.617,-0.434 0.266,-0.168 0.551,-0.632 0.852,-1.402 0.312,-0.746 0.598,-1.266 0.863,-1.531 0.149,-0.164 0.352,-0.235 0.582,-0.235 0.184,0 0.535,0.153 1.02,0.485 1.801,1.101 3.883,2.867 6.25,5.269 3.133,3.196 5.433,5.797 6.933,7.813 l -2.734,30.953 c -0.449,5.117 -1.133,8.23 -2.051,9.332 -0.914,1.098 -2.433,1.664 -4.582,1.664 -0.683,0 -1.918,-0.098 -3.668,-0.301 l -0.433,1.801 14.3,3.52" /><path
         id="path112"
         style="fill:#231f20;fill-opacity:1;fill-rule:nonzero;stroke:none"
         d="m 2620.38,836.035 c 1.09,-1.883 1.86,-3.652 2.29,-5.285 0.42,-1.648 0.84,-4.883 1.27,-9.699 l 2.15,-24.016 c 1.95,2.332 4.79,6.051 8.5,11.133 1.78,2.465 4,5.832 6.63,10.098 1.6,2.601 2.57,4.433 2.94,5.468 0.18,0.516 0.28,1.067 0.28,1.618 0,0.351 -0.1,0.648 -0.33,0.882 -0.24,0.215 -0.82,0.481 -1.79,0.801 -0.96,0.301 -1.77,0.883 -2.39,1.699 -0.64,0.832 -0.96,1.782 -0.96,2.868 0,1.332 0.41,2.398 1.19,3.214 0.76,0.817 1.75,1.219 2.91,1.219 1.43,0 2.65,-0.586 3.67,-1.785 1.02,-1.184 1.51,-2.816 1.51,-4.902 0,-2.563 -0.87,-5.516 -2.63,-8.813 -1.76,-3.301 -5.15,-8.367 -10.16,-15.199 -5,-6.852 -11.08,-14.301 -18.21,-22.367 -4.91,-5.571 -8.56,-9.082 -10.95,-10.535 -2.36,-1.43 -4.39,-2.164 -6.09,-2.164 -1.02,0 -1.91,0.382 -2.67,1.148 -0.77,0.766 -1.13,1.652 -1.13,2.664 0,1.27 0.51,2.418 1.58,3.469 1.05,1.035 2.2,1.551 3.44,1.551 0.64,0 1.19,-0.133 1.61,-0.434 0.27,-0.168 0.55,-0.633 0.85,-1.402 0.32,-0.746 0.6,-1.266 0.86,-1.532 0.16,-0.164 0.36,-0.234 0.59,-0.234 0.18,0 0.53,0.152 1.02,0.484 1.8,1.102 3.88,2.868 6.25,5.27 3.13,3.195 5.43,5.797 6.93,7.812 l -2.74,30.954 c -0.44,5.113 -1.12,8.23 -2.05,9.328 -0.91,1.101 -2.43,1.668 -4.58,1.668 -0.68,0 -1.91,-0.098 -3.66,-0.301 l -0.44,1.801 14.31,3.519" /><path
         id="path114"
         style="fill:#231f20;fill-opacity:1;fill-rule:nonzero;stroke:none"
         d="m 788.809,315.969 c 1.601,-1.684 2.8,-3.383 3.617,-5.067 0.586,-1.183 1.551,-4.25 2.883,-9.234 l 4.3,6.453 c 1.133,1.547 2.52,3.051 4.149,4.465 1.617,1.418 3.051,2.383 4.285,2.898 0.781,0.336 1.648,0.485 2.598,0.485 1.402,0 2.5,-0.364 3.336,-1.117 0.832,-0.75 1.25,-1.664 1.25,-2.731 0,-1.234 -0.25,-2.086 -0.735,-2.535 -0.918,-0.816 -1.949,-1.234 -3.117,-1.234 -0.684,0 -1.414,0.152 -2.199,0.453 -1.531,0.515 -2.567,0.781 -3.082,0.781 -0.785,0 -1.703,-0.469 -2.785,-1.367 -2.016,-1.699 -4.414,-4.965 -7.215,-9.817 l 3.996,-16.8 c 0.621,-2.563 1.137,-4.114 1.57,-4.618 0.414,-0.496 0.832,-0.746 1.266,-0.746 0.683,0 1.484,0.364 2.383,1.117 1.8,1.497 3.316,3.45 4.601,5.864 l 1.699,-0.883 c -2.05,-3.848 -4.648,-7.031 -7.816,-9.566 -1.781,-1.434 -3.301,-2.153 -4.535,-2.153 -1.813,0 -3.266,1.02 -4.348,3.071 -0.683,1.265 -2.101,6.75 -4.25,16.417 -5.066,-8.835 -9.137,-14.503 -12.199,-17.05 -1.984,-1.617 -3.902,-2.438 -5.77,-2.438 -1.296,0 -2.48,0.469 -3.566,1.418 -0.766,0.719 -1.168,1.668 -1.168,2.883 0,1.07 0.371,1.969 1.086,2.684 0.703,0.718 1.582,1.066 2.633,1.066 1.035,0 2.152,-0.516 3.32,-1.563 0.844,-0.753 1.496,-1.117 1.949,-1.117 0.399,0 0.899,0.266 1.516,0.782 1.535,1.234 3.613,3.902 6.246,8 2.633,4.101 4.371,7.066 5.188,8.898 -2.036,7.902 -3.118,12.086 -3.286,12.535 -0.75,2.117 -1.714,3.617 -2.933,4.5 -1.199,0.883 -2.969,1.317 -5.317,1.317 -0.75,0 -1.617,-0.032 -2.582,-0.102 v 1.766 l 13.032,2.285" /><path
         id="path116"
         style="fill:#231f20;fill-opacity:1;fill-rule:nonzero;stroke:none"
         d="m 2932.72,392.73 c 1.6,-1.683 2.8,-3.382 3.62,-5.062 0.58,-1.188 1.55,-4.254 2.88,-9.238 l 4.3,6.453 c 1.13,1.547 2.52,3.051 4.15,4.465 1.62,1.418 3.05,2.382 4.28,2.898 0.78,0.336 1.65,0.484 2.6,0.484 1.4,0 2.5,-0.363 3.33,-1.117 0.84,-0.75 1.25,-1.664 1.25,-2.73 0,-1.235 -0.25,-2.082 -0.73,-2.535 -0.92,-0.817 -1.95,-1.231 -3.11,-1.231 -0.69,0 -1.42,0.149 -2.2,0.449 -1.54,0.516 -2.57,0.782 -3.09,0.782 -0.78,0 -1.7,-0.469 -2.78,-1.368 -2.02,-1.699 -4.42,-4.964 -7.22,-9.816 l 4,-16.801 c 0.62,-2.562 1.13,-4.113 1.57,-4.617 0.41,-0.496 0.83,-0.746 1.27,-0.746 0.68,0 1.48,0.363 2.38,1.117 1.8,1.5 3.32,3.449 4.6,5.863 l 1.7,-0.882 c -2.05,-3.848 -4.65,-7.032 -7.82,-9.567 -1.78,-1.433 -3.3,-2.148 -4.53,-2.148 -1.82,0 -3.27,1.015 -4.35,3.066 -0.68,1.266 -2.1,6.75 -4.25,16.418 -5.07,-8.832 -9.14,-14.504 -12.2,-17.051 -1.99,-1.617 -3.9,-2.433 -5.77,-2.433 -1.3,0 -2.48,0.465 -3.56,1.414 -0.77,0.719 -1.17,1.668 -1.17,2.883 0,1.07 0.36,1.968 1.08,2.687 0.7,0.715 1.59,1.063 2.64,1.063 1.03,0 2.14,-0.516 3.31,-1.563 0.85,-0.75 1.5,-1.117 1.95,-1.117 0.4,0 0.9,0.266 1.52,0.781 1.53,1.235 3.61,3.903 6.25,8 2.63,4.102 4.36,7.067 5.18,8.903 -2.03,7.898 -3.11,12.082 -3.28,12.531 -0.75,2.117 -1.72,3.617 -2.93,4.5 -1.2,0.883 -2.97,1.32 -5.32,1.32 -0.75,0 -1.62,-0.035 -2.59,-0.105 v 1.765 l 13.04,2.285" /><path
         id="path118"
         style="fill:#231f20;fill-opacity:1;fill-rule:nonzero;stroke:none"
         d="m 314.965,238.633 16.117,7.863 h 1.617 v -55.914 c 0,-3.703 0.149,-6.016 0.449,-6.934 0.317,-0.902 0.969,-1.601 1.934,-2.101 0.984,-0.485 2.969,-0.762 5.969,-0.832 v -1.801 h -24.918 v 1.801 c 3.133,0.07 5.152,0.336 6.066,0.816 0.903,0.469 1.535,1.102 1.899,1.899 0.351,0.804 0.535,3.183 0.535,7.152 v 35.75 c 0,4.816 -0.168,7.902 -0.485,9.266 -0.23,1.05 -0.648,1.816 -1.25,2.3 -0.601,0.485 -1.316,0.735 -2.164,0.735 -1.203,0 -2.882,-0.504 -5.035,-1.516 l -0.734,1.516" /><path
         id="path120"
         style="fill:#231f20;fill-opacity:1;fill-rule:nonzero;stroke:none"
         d="m 203.105,364.305 16.118,7.867 h 1.613 v -55.914 c 0,-3.703 0.152,-6.02 0.453,-6.934 0.316,-0.902 0.965,-1.601 1.934,-2.101 0.984,-0.485 2.965,-0.766 5.965,-0.832 v -1.801 h -24.915 v 1.801 c 3.133,0.066 5.149,0.332 6.067,0.816 0.898,0.465 1.531,1.098 1.898,1.898 0.352,0.801 0.535,3.184 0.535,7.153 v 35.75 c 0,4.816 -0.168,7.898 -0.484,9.265 -0.234,1.047 -0.648,1.817 -1.25,2.297 -0.601,0.485 -1.316,0.735 -2.168,0.735 -1.199,0 -2.883,-0.5 -5.031,-1.516 l -0.735,1.516" /><path
         id="path122"
         style="fill:#231f20;fill-opacity:1;fill-rule:nonzero;stroke:none"
         d="m 179.074,219.262 c 0,7.547 1.137,14.047 3.418,19.496 2.285,5.453 5.301,9.515 9.082,12.183 2.934,2.118 5.953,3.184 9.082,3.184 5.067,0 9.637,-2.598 13.668,-7.766 5.051,-6.418 7.567,-15.101 7.567,-26.086 0,-7.679 -1.098,-14.195 -3.317,-19.562 -2.215,-5.383 -5.031,-9.285 -8.465,-11.703 -3.433,-2.43 -6.75,-3.633 -9.949,-3.633 -6.301,0 -11.57,3.719 -15.765,11.187 -3.555,6.282 -5.321,13.848 -5.321,22.7 z m 9.567,-1.219 c 0,-9.117 1.117,-16.566 3.367,-22.316 1.851,-4.848 4.633,-7.286 8.301,-7.286 1.765,0 3.582,0.805 5.464,2.368 1.899,1.586 3.336,4.234 4.301,7.933 1.5,5.598 2.25,13.5 2.25,23.684 0,7.551 -0.785,13.851 -2.347,18.898 -1.168,3.75 -2.688,6.403 -4.536,7.969 -1.332,1.066 -2.949,1.598 -4.836,1.598 -2.214,0 -4.179,-0.985 -5.914,-2.965 -2.332,-2.699 -3.933,-6.949 -4.781,-12.75 -0.851,-5.801 -1.269,-11.5 -1.269,-17.133" /><path
         id="path124"
         style="fill:#231f20;fill-opacity:1;fill-rule:nonzero;stroke:none"
         d="m 2641.96,387.613 16.12,7.864 h 1.62 v -55.915 c 0,-3.703 0.15,-6.015 0.45,-6.933 0.31,-0.902 0.96,-1.602 1.93,-2.102 0.98,-0.484 2.97,-0.761 5.97,-0.832 v -1.8 h -24.92 v 1.8 c 3.13,0.071 5.15,0.336 6.07,0.817 0.9,0.468 1.53,1.101 1.89,1.898 0.36,0.805 0.54,3.184 0.54,7.152 v 35.75 c 0,4.817 -0.17,7.903 -0.48,9.266 -0.24,1.051 -0.65,1.817 -1.25,2.301 -0.6,0.484 -1.32,0.734 -2.17,0.734 -1.2,0 -2.88,-0.504 -5.03,-1.519 l -0.74,1.519" /><path
         id="path126"
         style="fill:#231f20;fill-opacity:1;fill-rule:nonzero;stroke:none"
         d="m 2533.11,534.359 16.11,7.868 h 1.62 v -55.918 c 0,-3.7 0.15,-6.016 0.45,-6.934 0.32,-0.898 0.97,-1.602 1.93,-2.098 0.99,-0.488 2.97,-0.765 5.97,-0.836 v -1.8 h -24.92 v 1.8 c 3.14,0.071 5.16,0.336 6.07,0.817 0.9,0.469 1.54,1.101 1.9,1.898 0.35,0.805 0.54,3.184 0.54,7.153 v 35.75 c 0,4.816 -0.17,7.902 -0.49,9.265 -0.23,1.051 -0.65,1.821 -1.25,2.301 -0.6,0.484 -1.31,0.734 -2.16,0.734 -1.21,0 -2.89,-0.504 -5.04,-1.515 l -0.73,1.515" /><path
         id="path128"
         style="fill:#231f20;fill-opacity:1;fill-rule:nonzero;stroke:none"
         d="m 2512.08,374.262 c 0,7.547 1.13,14.047 3.42,19.5 2.28,5.449 5.3,9.515 9.08,12.183 2.93,2.117 5.95,3.184 9.08,3.184 5.07,0 9.64,-2.602 13.67,-7.77 5.05,-6.418 7.57,-15.097 7.57,-26.082 0,-7.683 -1.1,-14.199 -3.32,-19.566 -2.21,-5.383 -5.03,-9.281 -8.47,-11.699 -3.43,-2.434 -6.74,-3.637 -9.95,-3.637 -6.3,0 -11.56,3.719 -15.76,11.187 -3.55,6.282 -5.32,13.848 -5.32,22.7 z m 9.57,-1.215 c 0,-9.121 1.12,-16.57 3.37,-22.317 1.84,-4.851 4.63,-7.285 8.3,-7.285 1.76,0 3.58,0.801 5.46,2.367 1.9,1.583 3.33,4.235 4.3,7.934 1.5,5.598 2.25,13.496 2.25,23.68 0,7.551 -0.78,13.851 -2.35,18.898 -1.17,3.75 -2.68,6.403 -4.53,7.969 -1.34,1.066 -2.95,1.602 -4.84,1.602 -2.21,0 -4.18,-0.985 -5.91,-2.965 -2.34,-2.703 -3.93,-6.953 -4.79,-12.75 -0.84,-5.801 -1.26,-11.5 -1.26,-17.133" /><path
         id="path130"
         style="fill:none;stroke:#101211;stroke-width:2.16000009;stroke-linecap:butt;stroke-linejoin:miter;stroke-miterlimit:2.61310005;stroke-dasharray:none;stroke-opacity:1"
         d="M 412.93,2.45703 V 838.355" /><path
         id="path132"
         style="fill:none;stroke:#101211;stroke-width:2.16000009;stroke-linecap:butt;stroke-linejoin:miter;stroke-miterlimit:2.61310005;stroke-dasharray:none;stroke-opacity:1"
         d="M 493.73,2.45703 V 838.355" /><path
         id="path134"
         style="fill:none;stroke:#101211;stroke-width:2.16000009;stroke-linecap:butt;stroke-linejoin:miter;stroke-miterlimit:2.61310005;stroke-dasharray:none;stroke-opacity:1"
         d="M 574.535,2.45703 V 838.355" /><path
         id="path136"
         style="fill:none;stroke:#101211;stroke-width:2.16000009;stroke-linecap:butt;stroke-linejoin:miter;stroke-miterlimit:2.61310005;stroke-dasharray:none;stroke-opacity:1"
         d="M 10.707,425.227 H 818.715" /><path
         id="path138"
         style="fill:none;stroke:#231f20;stroke-width:7.5005002;stroke-linecap:butt;stroke-linejoin:miter;stroke-miterlimit:2.61310005;stroke-dasharray:none;stroke-opacity:1"
         d="M 164.121,768.293 804.777,98.3516" /><path
         id="path140"
         style="fill:#231f20;fill-opacity:1;fill-rule:nonzero;stroke:none"
         d="m 230.289,688.773 -3.816,-8.3 h -19.914 l -4.352,-8.899 c 8.633,-1.269 15.469,-4.469 20.5,-9.617 4.332,-4.418 6.5,-9.633 6.5,-15.617 0,-3.485 -0.703,-6.715 -2.117,-9.668 -1.418,-2.965 -3.199,-5.481 -5.352,-7.563 -2.148,-2.086 -4.55,-3.769 -7.183,-5.035 -3.731,-1.801 -7.582,-2.683 -11.516,-2.683 -3.984,0 -6.867,0.668 -8.664,2.015 -1.816,1.352 -2.719,2.852 -2.719,4.469 0,0.914 0.383,1.715 1.117,2.414 0.75,0.699 1.7,1.051 2.832,1.051 0.852,0 1.602,-0.117 2.235,-0.383 0.633,-0.266 1.715,-0.934 3.25,-2 2.433,-1.699 4.898,-2.551 7.418,-2.551 3.797,0 7.148,1.453 10.031,4.336 2.887,2.883 4.316,6.383 4.316,10.516 0,4 -1.285,7.73 -3.847,11.199 -2.582,3.465 -6.117,6.152 -10.653,8.031 -3.546,1.469 -8.382,2.317 -14.496,2.551 l 12.7,25.734 h 23.73" /><path
         id="path142"
         style="fill:#231f20;fill-opacity:1;fill-rule:nonzero;stroke:none"
         d="m 660.793,242.711 -3.816,-8.301 h -19.918 l -4.348,-8.898 c 8.633,-1.27 15.465,-4.469 20.496,-9.617 4.336,-4.418 6.5,-9.633 6.5,-15.618 0,-3.484 -0.699,-6.715 -2.113,-9.668 -1.418,-2.964 -3.199,-5.48 -5.352,-7.562 -2.148,-2.086 -4.551,-3.77 -7.183,-5.035 -3.731,-1.801 -7.582,-2.684 -11.516,-2.684 -3.984,0 -6.867,0.668 -8.664,2.016 -1.82,1.351 -2.719,2.851 -2.719,4.468 0,0.915 0.383,1.715 1.117,2.415 0.75,0.699 1.7,1.05 2.832,1.05 0.852,0 1.598,-0.117 2.235,-0.382 0.633,-0.27 1.715,-0.934 3.25,-2 2.433,-1.7 4.898,-2.551 7.418,-2.551 3.797,0 7.148,1.453 10.031,4.336 2.883,2.882 4.316,6.382 4.316,10.515 0,4 -1.285,7.731 -3.847,11.2 -2.586,3.464 -6.117,6.148 -10.653,8.031 -3.547,1.469 -8.382,2.316 -14.5,2.551 l 12.7,25.734 h 23.734" /><path
         id="path144"
         style="fill:#ffffff;fill-opacity:1;fill-rule:evenodd;stroke:none"
         d="m 1089.2,6.97266 h 808.008 v 835.898 H 1089.2 Z" /><path
         id="path146"
         style="fill:none;stroke:#0b0c0b;stroke-width:2.16000009;stroke-linecap:butt;stroke-linejoin:miter;stroke-miterlimit:2.61310005;stroke-dasharray:none;stroke-opacity:1"
         d="m 1089.2,6.97266 h 808.008 v 835.898 H 1089.2 Z" /><path
         id="path148"
         style="fill:none;stroke:#101211;stroke-width:2.16000009;stroke-linecap:butt;stroke-linejoin:miter;stroke-miterlimit:2.61310005;stroke-dasharray:none;stroke-opacity:1"
         d="M 1170,6.97266 V 842.871" /><path
         id="path150"
         style="fill:none;stroke:#101211;stroke-width:2.16000009;stroke-linecap:butt;stroke-linejoin:miter;stroke-miterlimit:2.61310005;stroke-dasharray:none;stroke-opacity:1"
         d="M 1250.8,6.97266 V 842.871" /><path
         id="path152"
         style="fill:none;stroke:#101211;stroke-width:2.16000009;stroke-linecap:butt;stroke-linejoin:miter;stroke-miterlimit:2.61310005;stroke-dasharray:none;stroke-opacity:1"
         d="M 1331.61,6.97266 V 842.871" /><path
         id="path154"
         style="fill:none;stroke:#101211;stroke-width:2.16000009;stroke-linecap:butt;stroke-linejoin:miter;stroke-miterlimit:2.61310005;stroke-dasharray:none;stroke-opacity:1"
         d="M 1250.04,3.96484 V 839.859" /><path
         id="path156"
         style="fill:none;stroke:#101211;stroke-width:2.16000009;stroke-linecap:butt;stroke-linejoin:miter;stroke-miterlimit:2.61310005;stroke-dasharray:none;stroke-opacity:1"
         d="M 1330.84,3.96484 V 839.859" /><path
         id="path158"
         style="fill:none;stroke:#101211;stroke-width:2.16000009;stroke-linecap:butt;stroke-linejoin:miter;stroke-miterlimit:2.61310005;stroke-dasharray:none;stroke-opacity:1"
         d="M 1411.64,3.96484 V 839.859" /><path
         id="path160"
         style="fill:none;stroke:#101211;stroke-width:2.16000009;stroke-linecap:butt;stroke-linejoin:miter;stroke-miterlimit:2.61310005;stroke-dasharray:none;stroke-opacity:1"
         d="M 1654.81,6.97266 V 842.871" /><path
         id="path162"
         style="fill:none;stroke:#101211;stroke-width:2.16000009;stroke-linecap:butt;stroke-linejoin:miter;stroke-miterlimit:2.61310005;stroke-dasharray:none;stroke-opacity:1"
         d="M 1735.61,6.97266 V 842.871" /><path
         id="path164"
         style="fill:none;stroke:#101211;stroke-width:2.16000009;stroke-linecap:butt;stroke-linejoin:miter;stroke-miterlimit:2.61310005;stroke-dasharray:none;stroke-opacity:1"
         d="M 1816.41,6.97266 V 842.871" /><path
         id="path166"
         style="fill:none;stroke:#101211;stroke-width:2.16000009;stroke-linecap:butt;stroke-linejoin:miter;stroke-miterlimit:2.61310005;stroke-dasharray:none;stroke-opacity:1"
         d="m 1089.2,90.5664 h 808.01" /><path
         id="path168"
         style="fill:none;stroke:#101211;stroke-width:2.16000009;stroke-linecap:butt;stroke-linejoin:miter;stroke-miterlimit:2.61310005;stroke-dasharray:none;stroke-opacity:1"
         d="m 1089.2,174.152 h 808.01" /><path
         id="path170"
         style="fill:none;stroke:#101211;stroke-width:2.16000009;stroke-linecap:butt;stroke-linejoin:miter;stroke-miterlimit:2.61310005;stroke-dasharray:none;stroke-opacity:1"
         d="m 1089.2,257.742 h 808.01" /><path
         id="path172"
         style="fill:none;stroke:#101211;stroke-width:2.16000009;stroke-linecap:butt;stroke-linejoin:miter;stroke-miterlimit:2.61310005;stroke-dasharray:none;stroke-opacity:1"
         d="m 1089.2,341.332 h 808.01" /><path
         id="path174"
         style="fill:none;stroke:#101211;stroke-width:2.16000009;stroke-linecap:butt;stroke-linejoin:miter;stroke-miterlimit:2.61310005;stroke-dasharray:none;stroke-opacity:1"
         d="m 1086.2,342.145 h 808.01" /><path
         id="path176"
         style="fill:none;stroke:#101211;stroke-width:2.16000009;stroke-linecap:butt;stroke-linejoin:miter;stroke-miterlimit:2.61310005;stroke-dasharray:none;stroke-opacity:1"
         d="m 1089.2,508.516 h 808.01" /><path
         id="path178"
         style="fill:none;stroke:#101211;stroke-width:2.16000009;stroke-linecap:butt;stroke-linejoin:miter;stroke-miterlimit:2.61310005;stroke-dasharray:none;stroke-opacity:1"
         d="m 1089.2,592.102 h 808.01" /><path
         id="path180"
         style="fill:none;stroke:#101211;stroke-width:2.16000009;stroke-linecap:butt;stroke-linejoin:miter;stroke-miterlimit:2.61310005;stroke-dasharray:none;stroke-opacity:1"
         d="m 1089.2,675.691 h 808.01" /><path
         id="path182"
         style="fill:none;stroke:#101211;stroke-width:2.16000009;stroke-linecap:butt;stroke-linejoin:miter;stroke-miterlimit:2.61310005;stroke-dasharray:none;stroke-opacity:1"
         d="m 1089.2,759.281 h 808.01" /><path
         id="path184"
         style="fill:none;stroke:#231f20;stroke-width:7.5005002;stroke-linecap:butt;stroke-linejoin:miter;stroke-miterlimit:2.61310005;stroke-dasharray:none;stroke-opacity:1"
         d="m 1086.2,257.754 h 764.26" /><path
         id="path186"
         style="fill:#231f20;fill-opacity:1;fill-rule:evenodd;stroke:none"
         d="m 1846.3,284.102 47.91,-26.348 -47.91,-26.348 v 52.696" /><path
         id="path188"
         style="fill:none;stroke:#231f20;stroke-width:7.5005002;stroke-linecap:butt;stroke-linejoin:miter;stroke-miterlimit:2.61310005;stroke-dasharray:none;stroke-opacity:1"
         d="M 1331.96,5.46484 V 797.617" /><path
         id="path190"
         style="fill:#231f20;fill-opacity:1;fill-rule:evenodd;stroke:none"
         d="m 1305.61,793.465 26.35,47.898 26.35,-47.898 h -52.7" /><path
         id="path192"
         style="fill:#231f20;fill-opacity:1;fill-rule:nonzero;stroke:none"
         d="m 1386.06,830.867 c 1.1,-1.879 1.87,-3.648 2.3,-5.281 0.42,-1.652 0.84,-4.887 1.27,-9.699 l 2.15,-24.016 c 1.95,2.332 4.78,6.047 8.5,11.129 1.78,2.469 4,5.836 6.63,10.102 1.61,2.597 2.57,4.433 2.94,5.468 0.18,0.516 0.28,1.067 0.28,1.614 0,0.351 -0.1,0.652 -0.33,0.886 -0.24,0.215 -0.82,0.481 -1.79,0.797 -0.96,0.301 -1.76,0.887 -2.4,1.703 -0.63,0.832 -0.95,1.782 -0.95,2.864 0,1.336 0.41,2.402 1.19,3.218 0.76,0.817 1.75,1.215 2.92,1.215 1.43,0 2.64,-0.582 3.66,-1.781 1.02,-1.184 1.52,-2.816 1.52,-4.902 0,-2.563 -0.89,-5.516 -2.64,-8.817 -1.76,-3.297 -5.15,-8.367 -10.16,-15.195 -5,-6.852 -11.09,-14.301 -18.2,-22.371 -4.92,-5.567 -8.57,-9.082 -10.95,-10.531 -2.37,-1.434 -4.4,-2.168 -6.11,-2.168 -1.01,0 -1.89,0.382 -2.66,1.152 -0.77,0.766 -1.13,1.648 -1.13,2.664 0,1.27 0.51,2.418 1.58,3.469 1.05,1.031 2.2,1.551 3.43,1.551 0.66,0 1.2,-0.137 1.62,-0.434 0.27,-0.168 0.55,-0.633 0.85,-1.402 0.31,-0.75 0.6,-1.266 0.87,-1.536 0.15,-0.164 0.35,-0.23 0.58,-0.23 0.18,0 0.53,0.148 1.02,0.484 1.8,1.102 3.88,2.868 6.25,5.266 3.13,3.199 5.43,5.801 6.93,7.816 l -2.73,30.95 c -0.45,5.117 -1.14,8.234 -2.05,9.332 -0.92,1.101 -2.43,1.668 -4.59,1.668 -0.68,0 -1.91,-0.098 -3.66,-0.301 l -0.43,1.801 14.29,3.515" /><path
         id="path194"
         style="fill:#231f20;fill-opacity:1;fill-rule:nonzero;stroke:none"
         d="m 1868.81,315.969 c 1.6,-1.684 2.8,-3.383 3.62,-5.067 0.58,-1.183 1.55,-4.25 2.88,-9.234 l 4.3,6.453 c 1.13,1.547 2.52,3.051 4.15,4.465 1.62,1.418 3.05,2.383 4.28,2.898 0.78,0.336 1.65,0.485 2.6,0.485 1.4,0 2.5,-0.364 3.34,-1.117 0.83,-0.75 1.25,-1.664 1.25,-2.731 0,-1.234 -0.25,-2.086 -0.74,-2.535 -0.92,-0.816 -1.95,-1.234 -3.11,-1.234 -0.69,0 -1.42,0.152 -2.2,0.453 -1.54,0.515 -2.57,0.781 -3.09,0.781 -0.78,0 -1.7,-0.469 -2.78,-1.367 -2.02,-1.699 -4.42,-4.965 -7.22,-9.817 l 4,-16.8 c 0.62,-2.563 1.14,-4.114 1.57,-4.618 0.41,-0.496 0.83,-0.746 1.27,-0.746 0.68,0 1.48,0.364 2.38,1.117 1.8,1.497 3.31,3.45 4.6,5.864 l 1.7,-0.883 c -2.05,-3.848 -4.65,-7.031 -7.82,-9.566 -1.78,-1.434 -3.3,-2.153 -4.53,-2.153 -1.81,0 -3.27,1.02 -4.35,3.071 -0.68,1.265 -2.1,6.75 -4.25,16.417 -5.07,-8.835 -9.14,-14.503 -12.2,-17.05 -1.98,-1.617 -3.9,-2.438 -5.77,-2.438 -1.3,0 -2.48,0.469 -3.57,1.418 -0.76,0.719 -1.16,1.668 -1.16,2.883 0,1.07 0.37,1.969 1.08,2.684 0.71,0.718 1.58,1.066 2.64,1.066 1.03,0 2.15,-0.516 3.32,-1.563 0.84,-0.753 1.49,-1.117 1.95,-1.117 0.39,0 0.89,0.266 1.51,0.782 1.54,1.234 3.61,3.902 6.25,8 2.63,4.101 4.37,7.066 5.18,8.898 -2.03,7.902 -3.11,12.086 -3.28,12.535 -0.75,2.117 -1.72,3.617 -2.93,4.5 -1.2,0.883 -2.97,1.317 -5.32,1.317 -0.75,0 -1.62,-0.032 -2.58,-0.102 v 1.766 l 13.03,2.285" /><path
         id="path196"
         style="fill:#231f20;fill-opacity:1;fill-rule:nonzero;stroke:none"
         d="m 1394.96,238.633 16.12,7.863 h 1.62 v -55.914 c 0,-3.703 0.15,-6.016 0.45,-6.934 0.31,-0.902 0.97,-1.601 1.93,-2.101 0.99,-0.485 2.97,-0.762 5.97,-0.832 v -1.801 h -24.92 v 1.801 c 3.14,0.07 5.16,0.336 6.07,0.816 0.9,0.469 1.53,1.102 1.9,1.899 0.35,0.804 0.53,3.183 0.53,7.152 v 35.75 c 0,4.816 -0.17,7.902 -0.48,9.266 -0.23,1.05 -0.65,1.816 -1.25,2.3 -0.6,0.485 -1.32,0.735 -2.17,0.735 -1.2,0 -2.88,-0.504 -5.03,-1.516 l -0.74,1.516" /><path
         id="path198"
         style="fill:#231f20;fill-opacity:1;fill-rule:nonzero;stroke:none"
         d="m 1283.11,364.305 16.11,7.867 h 1.62 v -55.914 c 0,-3.703 0.15,-6.02 0.45,-6.934 0.32,-0.902 0.96,-1.601 1.93,-2.101 0.99,-0.485 2.97,-0.766 5.97,-0.832 v -1.801 h -24.92 v 1.801 c 3.14,0.066 5.15,0.332 6.07,0.816 0.9,0.465 1.53,1.098 1.9,1.898 0.35,0.801 0.53,3.184 0.53,7.153 v 35.75 c 0,4.816 -0.16,7.898 -0.48,9.265 -0.24,1.047 -0.65,1.817 -1.25,2.297 -0.6,0.485 -1.32,0.735 -2.17,0.735 -1.2,0 -2.88,-0.5 -5.03,-1.516 l -0.73,1.516" /><path
         id="path200"
         style="fill:#231f20;fill-opacity:1;fill-rule:nonzero;stroke:none"
         d="m 1259.07,219.262 c 0,7.547 1.14,14.047 3.42,19.496 2.29,5.453 5.3,9.515 9.08,12.183 2.94,2.118 5.96,3.184 9.09,3.184 5.06,0 9.63,-2.598 13.66,-7.766 5.06,-6.418 7.57,-15.101 7.57,-26.086 0,-7.679 -1.1,-14.195 -3.32,-19.562 -2.21,-5.383 -5.03,-9.285 -8.46,-11.703 -3.43,-2.43 -6.75,-3.633 -9.95,-3.633 -6.3,0 -11.57,3.719 -15.77,11.187 -3.55,6.282 -5.32,13.848 -5.32,22.7 z m 9.57,-1.219 c 0,-9.117 1.12,-16.566 3.37,-22.316 1.85,-4.848 4.63,-7.286 8.3,-7.286 1.76,0 3.58,0.805 5.46,2.368 1.9,1.586 3.34,4.234 4.3,7.933 1.5,5.598 2.25,13.5 2.25,23.684 0,7.551 -0.78,13.851 -2.34,18.898 -1.17,3.75 -2.69,6.403 -4.54,7.969 -1.33,1.066 -2.95,1.598 -4.83,1.598 -2.22,0 -4.18,-0.985 -5.92,-2.965 -2.33,-2.699 -3.93,-6.949 -4.78,-12.75 -0.85,-5.801 -1.27,-11.5 -1.27,-17.133" /><path
         id="path202"
         style="fill:none;stroke:#101211;stroke-width:2.16000009;stroke-linecap:butt;stroke-linejoin:miter;stroke-miterlimit:2.61310005;stroke-dasharray:none;stroke-opacity:1"
         d="M 1492.93,2.45703 V 838.355" /><path
         id="path204"
         style="fill:none;stroke:#101211;stroke-width:2.16000009;stroke-linecap:butt;stroke-linejoin:miter;stroke-miterlimit:2.61310005;stroke-dasharray:none;stroke-opacity:1"
         d="M 1573.73,2.45703 V 838.355" /><path
         id="path206"
         style="fill:none;stroke:#101211;stroke-width:2.16000009;stroke-linecap:butt;stroke-linejoin:miter;stroke-miterlimit:2.61310005;stroke-dasharray:none;stroke-opacity:1"
         d="M 1654.54,2.45703 V 838.355" /><path
         id="path208"
         style="fill:none;stroke:#101211;stroke-width:2.16000009;stroke-linecap:butt;stroke-linejoin:miter;stroke-miterlimit:2.61310005;stroke-dasharray:none;stroke-opacity:1"
         d="m 1090.71,425.227 h 808" /><path
         id="path210"
         style="fill:none;stroke:#231f20;stroke-width:7.5005002;stroke-linecap:butt;stroke-linejoin:miter;stroke-miterlimit:2.61310005;stroke-dasharray:none;stroke-opacity:1"
         d="M 1283.51,821.418 1541.27,18.4219" /><path
         id="path212"
         style="fill:#231f20;fill-opacity:1;fill-rule:nonzero;stroke:none"
         d="m 1310.29,688.773 -3.82,-8.3 h -19.91 l -4.35,-8.899 c 8.63,-1.269 15.47,-4.469 20.5,-9.617 4.33,-4.418 6.5,-9.633 6.5,-15.617 0,-3.485 -0.71,-6.715 -2.12,-9.668 -1.42,-2.965 -3.2,-5.481 -5.35,-7.563 -2.15,-2.086 -4.55,-3.769 -7.19,-5.035 -3.73,-1.801 -7.58,-2.683 -11.51,-2.683 -3.99,0 -6.87,0.668 -8.66,2.015 -1.82,1.352 -2.72,2.852 -2.72,4.469 0,0.914 0.38,1.715 1.11,2.414 0.75,0.699 1.7,1.051 2.84,1.051 0.85,0 1.6,-0.117 2.23,-0.383 0.63,-0.266 1.71,-0.934 3.25,-2 2.43,-1.699 4.9,-2.551 7.42,-2.551 3.79,0 7.15,1.453 10.03,4.336 2.89,2.883 4.32,6.383 4.32,10.516 0,4 -1.29,7.73 -3.85,11.199 -2.58,3.465 -6.12,6.152 -10.65,8.031 -3.55,1.469 -8.39,2.317 -14.5,2.551 l 12.7,25.734 h 23.73" /><path
         id="path214"
         style="fill:#231f20;fill-opacity:1;fill-rule:nonzero;stroke:none"
         d="m 1740.79,242.711 -3.81,-8.301 h -19.92 l -4.35,-8.898 c 8.63,-1.27 15.47,-4.469 20.5,-9.617 4.33,-4.418 6.5,-9.633 6.5,-15.618 0,-3.484 -0.7,-6.715 -2.12,-9.668 -1.41,-2.964 -3.2,-5.48 -5.35,-7.562 -2.15,-2.086 -4.55,-3.77 -7.18,-5.035 -3.73,-1.801 -7.58,-2.684 -11.52,-2.684 -3.98,0 -6.86,0.668 -8.66,2.016 -1.82,1.351 -2.72,2.851 -2.72,4.468 0,0.915 0.38,1.715 1.12,2.415 0.75,0.699 1.7,1.05 2.83,1.05 0.85,0 1.6,-0.117 2.23,-0.382 0.64,-0.27 1.72,-0.934 3.25,-2 2.44,-1.7 4.9,-2.551 7.42,-2.551 3.8,0 7.15,1.453 10.03,4.336 2.89,2.882 4.32,6.382 4.32,10.515 0,4 -1.29,7.731 -3.85,11.2 -2.58,3.464 -6.12,6.148 -10.65,8.031 -3.55,1.469 -8.38,2.316 -14.5,2.551 l 12.7,25.734 h 23.73" /><path
         id="path216"
         style="fill:none;stroke:#0b0c0b;stroke-width:7.5005002;stroke-linecap:butt;stroke-linejoin:miter;stroke-miterlimit:2.61310005;stroke-dasharray:none;stroke-opacity:1"
         d="m 2203.77,458.52 3.94,0.492 3.94,0.504 3.94,0.515 3.93,0.528 3.94,0.535 3.94,0.547 3.94,0.562 3.94,0.567 3.93,0.585 3.95,0.598 3.94,0.609 3.94,0.626 3.93,0.64 3.94,0.652 3.94,0.668 3.94,0.684 3.94,0.703 3.94,0.719 3.94,0.734 3.93,0.754 3.94,0.774 3.94,0.796 3.94,0.813 3.94,0.836 3.94,0.859 3.94,0.879 3.93,0.906 3.94,0.93 3.95,0.957 3.93,0.985 3.94,1.011 3.94,1.043 3.94,1.071 3.94,1.105 3.93,1.141 3.94,1.175 3.94,1.215 3.94,1.25 3.94,1.293 3.94,1.336 3.94,1.379 3.94,1.43 3.94,1.48 3.93,1.532 3.94,1.585 3.94,1.649 3.94,1.707 3.94,1.777 3.94,1.84 3.94,1.918 3.93,2 3.94,2.078 3.94,2.168 3.94,2.258 3.94,2.363 3.94,2.469 3.94,2.586 3.93,2.707 3.95,2.84 3.93,2.984 3.95,3.129 3.93,3.301 3.94,3.48 3.94,3.668 3.94,3.883 3.94,4.106 3.94,4.359 3.94,4.633 3.93,4.926 3.94,5.257 3.94,5.621 3.94,6.024 3.94,6.469 3.94,6.965 3.94,7.523 3.93,8.148 3.94,8.86 3.94,9.66 3.94,10.582 3.94,11.644 3.94,12.868 3.94,14.297 3.94,15.976 3.93,17.981 3.94,20.375 3.94,23.281 3.94,26.867 3.94,31.344 v 0" /><path
         id="path218"
         style="fill:none;stroke:#0b0c0b;stroke-width:7.5005002;stroke-linecap:butt;stroke-linejoin:miter;stroke-miterlimit:2.61310005;stroke-dasharray:none;stroke-opacity:1"
         d="m 2622.26,12.4297 v 0 l 3.94,31.3437 3.94,26.8633 3.93,23.2852 3.94,20.3751 3.94,17.976 3.94,15.977 3.94,14.297 3.94,12.871 3.94,11.641 3.94,10.582 3.93,9.664 3.94,8.859 3.94,8.148 3.94,7.524 3.94,6.965 3.94,6.469 3.93,6.023 3.95,5.617 3.93,5.258 3.95,4.926 3.93,4.633 3.94,4.359 3.94,4.109 3.94,3.879 3.94,3.672 3.94,3.477 3.94,3.3 3.93,3.137 3.94,2.977 3.94,2.84 3.94,2.707 3.94,2.586 3.94,2.468 3.93,2.367 3.94,2.258 3.94,2.168 3.94,2.078 3.94,2 3.94,1.914 3.94,1.844 3.94,1.774 3.94,1.711 3.93,1.644 3.94,1.59 3.94,1.527 3.94,1.481 3.94,1.429 3.94,1.379 3.94,1.336 3.94,1.293 3.93,1.254 3.94,1.211 3.95,1.18 3.93,1.136 3.94,1.106 3.94,1.074 3.94,1.043 3.94,1.012 3.93,0.984 3.94,0.957 3.94,0.93 3.94,0.902 3.94,0.883 3.94,0.859 3.94,0.836 3.93,0.813 3.94,0.793 3.94,0.777 3.94,0.754 3.94,0.731 3.94,0.722 3.94,0.7 3.94,0.687 3.94,0.668 3.93,0.652 3.95,0.641 3.93,0.621 3.94,0.613 3.94,0.598 3.94,0.582 3.94,0.57 3.93,0.563 3.95,0.547 3.93,0.535 3.94,0.523 3.94,0.516 3.94,0.504 3.94,0.496" /><path
         id="path220"
         style="fill:#ffffff;fill-opacity:1;fill-rule:evenodd;stroke:none"
         d="m 5.90234,712.012 h 130.699 V 846.231 H 5.90234 Z" /><path
         id="path222"
         style="fill:#ffffff;fill-opacity:1;fill-rule:evenodd;stroke:none"
         d="m 1086.07,712.574 h 130.695 V 846.793 H 1086.07 Z" /><path
         id="path224"
         style="fill:#ffffff;fill-opacity:1;fill-rule:evenodd;stroke:none"
         d="m 2165.78,711.598 h 130.699 V 845.813 H 2165.78 Z" /><path
         id="path226"
         style="fill:#231f20;fill-opacity:1;fill-rule:nonzero;stroke:none"
         d="M 81.4102,822.812 76.375,767.746 c -0.2656,-2.582 -0.3828,-4.269 -0.3828,-5.086 0,-1.297 0.2344,-2.297 0.7344,-2.98 0.6172,-0.934 1.4492,-1.633 2.5,-2.102 1.0664,-0.449 2.8476,-0.683 5.3476,-0.683 L 84.043,755.098 H 57.9766 l 0.5312,1.797 h 1.1172 c 2.1172,0 3.8516,0.468 5.1836,1.367 0.9336,0.636 1.668,1.652 2.1992,3.086 0.3516,1.015 0.7031,3.379 1.0195,7.132 l 0.7813,8.399 H 49.8594 l -6.7344,-9.133 c -1.5312,-2.051 -2.4844,-3.535 -2.8828,-4.414 -0.3828,-0.902 -0.582,-1.734 -0.582,-2.52 0,-1.05 0.414,-1.933 1.2656,-2.683 0.8515,-0.746 2.25,-1.164 4.1992,-1.234 l -0.5312,-1.797 h -19.586 l 0.5352,1.797 c 2.4179,0.101 4.5351,0.917 6.3828,2.417 1.8359,1.52 4.5664,4.75 8.2187,9.704 l 39.5469,53.796 z m -9.668,-16.25 -19.1992,-26.117 h 16.6484 l 2.5508,26.117" /><path
         id="path228"
         style="fill:#231f20;fill-opacity:1;fill-rule:nonzero;stroke:none"
         d="m 105.527,823.594 1.664,0.937 c 3.868,-7.351 6.633,-13.867 8.301,-19.535 1.332,-4.414 2,-8.883 2,-13.383 0,-10.5 -2.433,-19.898 -7.281,-28.168 -5.984,-10.183 -15.6329,-20.097 -28.9532,-29.734 l -1.164,1.519 c 6.0156,4.485 10.9335,9.485 14.7304,14.981 4.7696,6.902 8.6528,15.25 11.6878,25.035 3.015,9.766 4.531,18.668 4.531,26.684 0,6.117 -1.836,13.336 -5.516,21.664" /><path
         id="path230"
         style="fill:#231f20;fill-opacity:1;fill-rule:nonzero;stroke:none"
         d="m 1126.41,821.875 h 46.53 l -5.03,-17.285 h -1.82 c 0.37,2.117 0.55,4.035 0.55,5.75 0,2.25 -0.45,4 -1.34,5.234 -0.86,1.231 -2.06,2.035 -3.58,2.383 -1.52,0.367 -4.48,0.551 -8.92,0.551 h -10.19 l -7.62,-26.133 h 6.65 c 5.65,0 9.9,-0.586 12.73,-1.75 2.84,-1.184 5.17,-3.168 6.99,-5.965 1.83,-2.801 2.73,-5.805 2.73,-9.035 0,-3.867 -1.32,-7.57 -3.98,-11.082 -2.65,-3.52 -5.91,-5.867 -9.74,-7.086 -3.83,-1.199 -8.36,-1.801 -13.57,-1.801 h -29.55 l 0.49,1.801 c 3.55,0.07 5.98,0.668 7.3,1.785 1.32,1.133 2.67,3.981 4.03,8.582 l 11.62,39.5 c 1.28,4.352 1.92,7.301 1.92,8.832 0,1.367 -0.5,2.352 -1.5,2.934 -0.99,0.586 -2.74,0.902 -5.25,0.969 z m -0.84,-61.918 c 2.54,-0.465 5.32,-0.684 8.35,-0.684 6.9,0 11.96,1.704 15.15,5.102 3.22,3.402 4.82,7.199 4.82,11.398 0,2.832 -0.77,5.332 -2.32,7.504 -1.55,2.164 -3.5,3.645 -5.83,4.461 -2.35,0.817 -5.5,1.219 -9.49,1.219 h -2.2 l -8.48,-29" /><path
         id="path232"
         style="fill:#231f20;fill-opacity:1;fill-rule:nonzero;stroke:none"
         d="m 1183.62,824.156 1.67,0.934 c 3.87,-7.348 6.63,-13.863 8.3,-19.531 1.33,-4.418 2,-8.883 2,-13.387 0,-10.496 -2.44,-19.899 -7.29,-28.164 -5.98,-10.184 -15.63,-20.098 -28.94,-29.735 l -1.17,1.516 c 6.01,4.484 10.93,9.484 14.73,14.984 4.77,6.899 8.65,15.25 11.69,25.036 3.01,9.765 4.53,18.668 4.53,26.683 0,6.117 -1.84,13.332 -5.52,21.664" /><path
         id="path234"
         style="fill:#231f20;fill-opacity:1;fill-rule:nonzero;stroke:none"
         d="m 2203.28,819.078 0.68,1.817 h 23.64 c 3.96,0 7.49,-0.618 10.61,-1.868 3.1,-1.23 5.43,-2.945 6.99,-5.164 1.55,-2.215 2.31,-4.566 2.31,-7.035 0,-3.816 -1.38,-7.25 -4.13,-10.332 -2.75,-3.066 -7.24,-5.348 -13.45,-6.801 4.02,-1.5 6.95,-3.484 8.85,-5.965 1.88,-2.468 2.83,-5.183 2.83,-8.152 0,-3.281 -0.85,-6.43 -2.55,-9.433 -1.68,-2.981 -3.86,-5.313 -6.51,-6.965 -2.66,-1.664 -5.85,-2.883 -9.6,-3.668 -2.67,-0.547 -6.84,-0.832 -12.5,-0.832 h -24.27 l 0.63,1.8 c 2.55,0.067 4.27,0.317 5.19,0.735 1.3,0.566 2.23,1.297 2.78,2.199 0.78,1.234 1.81,4.063 3.11,8.496 l 11.87,40.086 c 1.02,3.383 1.52,5.766 1.52,7.133 0,1.199 -0.45,2.148 -1.33,2.851 -0.9,0.7 -2.6,1.047 -5.12,1.047 -0.55,0 -1.07,0.02 -1.55,0.051 z m 9.9,-27.484 c 2.11,-0.063 3.65,-0.098 4.6,-0.098 6.77,0 11.8,1.469 15.11,4.414 3.31,2.953 4.96,6.637 4.96,11.067 0,3.351 -1.02,5.968 -3.04,7.835 -2.01,1.868 -5.23,2.801 -9.67,2.801 -1.16,0 -2.66,-0.183 -4.48,-0.582 z m -9.62,-32.614 c 3.52,-0.468 6.27,-0.683 8.25,-0.683 5.08,0 9.58,1.535 13.5,4.582 3.94,3.07 5.89,7.219 5.89,12.449 0,4 -1.2,7.133 -3.64,9.383 -2.42,2.254 -6.33,3.367 -11.73,3.367 -1.05,0 -2.32,-0.051 -3.82,-0.148 l -8.45,-28.95" /><path
         id="path236"
         style="fill:#231f20;fill-opacity:1;fill-rule:nonzero;stroke:none"
         d="m 2264.11,823.18 1.67,0.933 c 3.86,-7.351 6.63,-13.867 8.3,-19.531 1.33,-4.418 2,-8.887 2,-13.387 0,-10.5 -2.44,-19.898 -7.29,-28.164 -5.98,-10.183 -15.63,-20.101 -28.95,-29.734 l -1.16,1.515 c 6.02,4.485 10.93,9.485 14.73,14.985 4.77,6.898 8.65,15.25 11.68,25.035 3.02,9.766 4.54,18.664 4.54,26.68 0,6.117 -1.84,13.336 -5.52,21.668" /></g></g></svg>