<?xml version="1.0" encoding="UTF-8" standalone="no"?>
<svg
   xmlns:dc="http://purl.org/dc/elements/1.1/"
   xmlns:cc="http://creativecommons.org/ns#"
   xmlns:rdf="http://www.w3.org/1999/02/22-rdf-syntax-ns#"
   xmlns:svg="http://www.w3.org/2000/svg"
   xmlns="http://www.w3.org/2000/svg"
   viewBox="0 0 398.66666 128"
   height="128"
   width="398.66666"
   xml:space="preserve"
   id="svg2"
   version="1.1"><metadata
     id="metadata8"><rdf:RDF><cc:Work
         rdf:about=""><dc:format>image/svg+xml</dc:format><dc:type
           rdf:resource="http://purl.org/dc/dcmitype/StillImage" /></cc:Work></rdf:RDF></metadata><defs
     id="defs6" /><g
     transform="matrix(1.3333333,0,0,-1.3333333,0,128)"
     id="g10"><g
       transform="scale(0.1)"
       id="g12"><path
         id="path14"
         style="fill:#231f20;fill-opacity:1;fill-rule:nonzero;stroke:none"
         d="m 56.8711,953.301 -5.0313,-55.067 c -0.2695,-2.586 -0.3828,-4.269 -0.3828,-5.086 0,-1.296 0.2305,-2.296 0.7344,-2.98 0.6133,-0.934 1.4453,-1.633 2.5,-2.102 1.0625,-0.449 2.8477,-0.683 5.3477,-0.683 l -0.5352,-1.797 H 33.4375 l 0.5352,1.797 h 1.1171 c 2.1172,0 3.8516,0.469 5.1836,1.367 0.9336,0.637 1.668,1.648 2.1993,3.086 0.3476,1.016 0.6992,3.379 1.0156,7.129 l 0.7851,8.402 H 25.3242 l -6.7344,-9.133 c -1.5312,-2.05 -2.4843,-3.535 -2.8828,-4.414 -0.3828,-0.902 -0.5859,-1.738 -0.5859,-2.519 0,-1.051 0.418,-1.934 1.2656,-2.684 0.8516,-0.75 2.2539,-1.164 4.2031,-1.234 l -0.5351,-1.797 H 0.472656 l 0.531254,1.797 c 2.41797,0.101 4.53515,0.918 6.38281,2.418 1.83594,1.519 4.57028,4.75 8.21878,9.703 l 39.5507,53.797 z M 47.207,937.051 28.0039,910.934 h 16.6523 l 2.5508,26.117" /><path
         id="path16"
         style="fill:#231f20;fill-opacity:1;fill-rule:nonzero;stroke:none"
         d="m 80.9883,954.082 1.6679,0.938 c 3.8672,-7.352 6.6329,-13.868 8.3008,-19.536 1.3321,-4.418 2,-8.882 2,-13.386 0,-10.496 -2.4336,-19.899 -7.2851,-28.164 C 79.6875,883.75 70.0391,873.836 56.7227,864.199 l -1.1641,1.516 c 6.0117,4.484 10.9297,9.484 14.7305,14.984 4.7656,6.899 8.6523,15.25 11.6836,25.035 3.0156,9.766 4.5312,18.668 4.5312,26.684 0,6.117 -1.832,13.332 -5.5156,21.664" /><path
         id="path18"
         style="fill:#231f20;fill-opacity:1;fill-rule:nonzero;stroke:none"
         d="m 1149.3,951.801 h 46.53 l -5.03,-17.281 h -1.82 c 0.37,2.113 0.56,4.031 0.56,5.746 0,2.25 -0.46,4 -1.34,5.234 -0.86,1.23 -2.07,2.035 -3.58,2.383 -1.52,0.367 -4.49,0.551 -8.92,0.551 h -10.2 l -7.62,-26.133 h 6.65 c 5.65,0 9.9,-0.586 12.74,-1.75 2.83,-1.184 5.16,-3.168 6.98,-5.965 1.84,-2.801 2.73,-5.805 2.73,-9.035 0,-3.867 -1.31,-7.567 -3.98,-11.082 -2.65,-3.52 -5.9,-5.867 -9.73,-7.086 -3.84,-1.199 -8.37,-1.797 -13.57,-1.797 h -29.55 l 0.48,1.797 c 3.55,0.07 5.99,0.668 7.3,1.785 1.32,1.133 2.67,3.98 4.03,8.582 l 11.62,39.5 c 1.29,4.352 1.92,7.301 1.92,8.832 0,1.367 -0.5,2.352 -1.5,2.934 -0.98,0.586 -2.73,0.902 -5.25,0.968 z m -0.84,-61.918 c 2.54,-0.465 5.33,-0.684 8.36,-0.684 6.89,0 11.95,1.703 15.15,5.102 3.21,3.402 4.82,7.199 4.82,11.402 0,2.828 -0.77,5.328 -2.33,7.5 -1.54,2.164 -3.49,3.649 -5.83,4.465 -2.34,0.816 -5.5,1.219 -9.48,1.219 h -2.2 l -8.49,-29.004" /><path
         id="path20"
         style="fill:#231f20;fill-opacity:1;fill-rule:nonzero;stroke:none"
         d="m 1206.52,954.082 1.66,0.938 c 3.87,-7.352 6.64,-13.868 8.3,-19.536 1.34,-4.418 2,-8.882 2,-13.386 0,-10.496 -2.43,-19.899 -7.28,-28.164 -5.99,-10.184 -15.63,-20.098 -28.95,-29.735 l -1.16,1.516 c 6.01,4.484 10.93,9.484 14.73,14.984 4.76,6.899 8.65,15.25 11.68,25.035 3.02,9.766 4.53,18.668 4.53,26.684 0,6.117 -1.83,13.332 -5.51,21.664" /><path
         id="path22"
         style="fill:#231f20;fill-opacity:1;fill-rule:nonzero;stroke:none"
         d="m 2206.43,949.984 0.69,1.817 h 23.63 c 3.96,0 7.5,-0.617 10.62,-1.867 3.1,-1.235 5.43,-2.95 6.98,-5.164 1.55,-2.219 2.32,-4.567 2.32,-7.04 0,-3.812 -1.38,-7.246 -4.13,-10.332 -2.76,-3.066 -7.24,-5.347 -13.46,-6.796 4.02,-1.5 6.96,-3.485 8.85,-5.969 1.89,-2.465 2.84,-5.18 2.84,-8.149 0,-3.281 -0.85,-6.433 -2.55,-9.433 -1.69,-2.985 -3.87,-5.317 -6.52,-6.965 -2.65,-1.668 -5.85,-2.887 -9.6,-3.668 -2.67,-0.551 -6.83,-0.832 -12.5,-0.832 h -24.26 l 0.62,1.797 c 2.56,0.07 4.27,0.32 5.19,0.734 1.3,0.567 2.23,1.301 2.78,2.199 0.79,1.235 1.82,4.067 3.12,8.5 l 11.86,40.082 c 1.02,3.387 1.52,5.766 1.52,7.137 0,1.199 -0.45,2.149 -1.33,2.848 -0.9,0.699 -2.6,1.051 -5.12,1.051 -0.55,0 -1.06,0.015 -1.55,0.05 z m 9.91,-27.484 c 2.11,-0.066 3.64,-0.102 4.59,-0.102 6.77,0 11.8,1.469 15.12,4.418 3.3,2.95 4.95,6.633 4.95,11.067 0,3.351 -1.02,5.965 -3.04,7.836 -2.01,1.863 -5.23,2.801 -9.66,2.801 -1.17,0 -2.67,-0.188 -4.48,-0.586 z m -9.63,-32.617 c 3.52,-0.465 6.27,-0.684 8.26,-0.684 5.08,0 9.58,1.535 13.49,4.586 3.94,3.067 5.89,7.215 5.89,12.449 0,4 -1.2,7.133 -3.63,9.383 -2.42,2.25 -6.34,3.367 -11.74,3.367 -1.05,0 -2.32,-0.05 -3.81,-0.148 l -8.46,-28.953" /><path
         id="path24"
         style="fill:#231f20;fill-opacity:1;fill-rule:nonzero;stroke:none"
         d="m 2267.27,954.082 1.66,0.938 c 3.87,-7.352 6.64,-13.868 8.3,-19.536 1.34,-4.418 2,-8.882 2,-13.386 0,-10.496 -2.43,-19.899 -7.28,-28.164 -5.99,-10.184 -15.63,-20.098 -28.95,-29.735 l -1.16,1.516 c 6.01,4.484 10.93,9.484 14.73,14.984 4.76,6.899 8.65,15.25 11.68,25.035 3.02,9.766 4.53,18.668 4.53,26.684 0,6.117 -1.83,13.332 -5.51,21.664" /><path
         id="path26"
         style="fill:#ffffff;fill-opacity:1;fill-rule:evenodd;stroke:none"
         d="m 1099.2,10.9727 h 808.004 v 835.898 H 1099.2 Z" /><path
         id="path28"
         style="fill:none;stroke:#0b0c0b;stroke-width:2.16000009;stroke-linecap:butt;stroke-linejoin:miter;stroke-miterlimit:2.61310005;stroke-dasharray:none;stroke-opacity:1"
         d="m 1099.2,10.9727 h 808.004 v 835.898 H 1099.2 Z" /><path
         id="path30"
         style="fill:none;stroke:#101211;stroke-width:2.16000009;stroke-linecap:butt;stroke-linejoin:miter;stroke-miterlimit:2.61310005;stroke-dasharray:none;stroke-opacity:1"
         d="M 1180,10.9727 V 846.871" /><path
         id="path32"
         style="fill:none;stroke:#101211;stroke-width:2.16000009;stroke-linecap:butt;stroke-linejoin:miter;stroke-miterlimit:2.61310005;stroke-dasharray:none;stroke-opacity:1"
         d="M 1260.82,10.9727 V 846.871" /><path
         id="path34"
         style="fill:none;stroke:#101211;stroke-width:2.16000009;stroke-linecap:butt;stroke-linejoin:miter;stroke-miterlimit:2.61310005;stroke-dasharray:none;stroke-opacity:1"
         d="M 1341.6,10.9727 V 846.871" /><path
         id="path36"
         style="fill:none;stroke:#101211;stroke-width:2.16000009;stroke-linecap:butt;stroke-linejoin:miter;stroke-miterlimit:2.61310005;stroke-dasharray:none;stroke-opacity:1"
         d="M 1422.43,10.9727 V 846.871" /><path
         id="path38"
         style="fill:none;stroke:#101211;stroke-width:2.16000009;stroke-linecap:butt;stroke-linejoin:miter;stroke-miterlimit:2.61310005;stroke-dasharray:none;stroke-opacity:1"
         d="M 1503.22,10.9727 V 846.871" /><path
         id="path40"
         style="fill:none;stroke:#101211;stroke-width:2.16000009;stroke-linecap:butt;stroke-linejoin:miter;stroke-miterlimit:2.61310005;stroke-dasharray:none;stroke-opacity:1"
         d="M 1584.01,10.9727 V 846.871" /><path
         id="path42"
         style="fill:none;stroke:#101211;stroke-width:2.16000009;stroke-linecap:butt;stroke-linejoin:miter;stroke-miterlimit:2.61310005;stroke-dasharray:none;stroke-opacity:1"
         d="M 1664.81,10.9727 V 846.871" /><path
         id="path44"
         style="fill:none;stroke:#101211;stroke-width:2.16000009;stroke-linecap:butt;stroke-linejoin:miter;stroke-miterlimit:2.61310005;stroke-dasharray:none;stroke-opacity:1"
         d="M 1745.61,10.9727 V 846.871" /><path
         id="path46"
         style="fill:none;stroke:#101211;stroke-width:2.16000009;stroke-linecap:butt;stroke-linejoin:miter;stroke-miterlimit:2.61310005;stroke-dasharray:none;stroke-opacity:1"
         d="M 1826.41,10.9727 V 846.871" /><path
         id="path48"
         style="fill:none;stroke:#101211;stroke-width:2.16000009;stroke-linecap:butt;stroke-linejoin:miter;stroke-miterlimit:2.61310005;stroke-dasharray:none;stroke-opacity:1"
         d="m 1099.2,94.5586 h 808.01" /><path
         id="path50"
         style="fill:none;stroke:#101211;stroke-width:2.16000009;stroke-linecap:butt;stroke-linejoin:miter;stroke-miterlimit:2.61310005;stroke-dasharray:none;stroke-opacity:1"
         d="m 1099.2,178.156 h 808.01" /><path
         id="path52"
         style="fill:none;stroke:#101211;stroke-width:2.16000009;stroke-linecap:butt;stroke-linejoin:miter;stroke-miterlimit:2.61310005;stroke-dasharray:none;stroke-opacity:1"
         d="m 1099.2,261.746 h 808.01" /><path
         id="path54"
         style="fill:none;stroke:#101211;stroke-width:2.16000009;stroke-linecap:butt;stroke-linejoin:miter;stroke-miterlimit:2.61310005;stroke-dasharray:none;stroke-opacity:1"
         d="m 1099.2,345.336 h 808.01" /><path
         id="path56"
         style="fill:none;stroke:#101211;stroke-width:2.16000009;stroke-linecap:butt;stroke-linejoin:miter;stroke-miterlimit:2.61310005;stroke-dasharray:none;stroke-opacity:1"
         d="m 1099.2,428.922 h 808.01" /><path
         id="path58"
         style="fill:none;stroke:#101211;stroke-width:2.16000009;stroke-linecap:butt;stroke-linejoin:miter;stroke-miterlimit:2.61310005;stroke-dasharray:none;stroke-opacity:1"
         d="m 1099.2,512.512 h 808.01" /><path
         id="path60"
         style="fill:none;stroke:#101211;stroke-width:2.16000009;stroke-linecap:butt;stroke-linejoin:miter;stroke-miterlimit:2.61310005;stroke-dasharray:none;stroke-opacity:1"
         d="m 1099.2,596.098 h 808.01" /><path
         id="path62"
         style="fill:none;stroke:#101211;stroke-width:2.16000009;stroke-linecap:butt;stroke-linejoin:miter;stroke-miterlimit:2.61310005;stroke-dasharray:none;stroke-opacity:1"
         d="m 1099.2,679.691 h 808.01" /><path
         id="path64"
         style="fill:none;stroke:#101211;stroke-width:2.16000009;stroke-linecap:butt;stroke-linejoin:miter;stroke-miterlimit:2.61310005;stroke-dasharray:none;stroke-opacity:1"
         d="m 1099.2,763.27 h 808.01" /><path
         id="path66"
         style="fill:none;stroke:#231f20;stroke-width:7.5005002;stroke-linecap:butt;stroke-linejoin:miter;stroke-miterlimit:2.61310005;stroke-dasharray:none;stroke-opacity:1"
         d="m 1099.2,428.922 h 764.26" /><path
         id="path68"
         style="fill:#231f20;fill-opacity:1;fill-rule:evenodd;stroke:none"
         d="m 1859.31,455.27 47.9,-26.348 -47.9,-26.352 v 52.7" /><path
         id="path70"
         style="fill:none;stroke:#231f20;stroke-width:7.5005002;stroke-linecap:butt;stroke-linejoin:miter;stroke-miterlimit:2.61310005;stroke-dasharray:none;stroke-opacity:1"
         d="M 1505.84,13.9844 V 806.137" /><path
         id="path72"
         style="fill:#231f20;fill-opacity:1;fill-rule:evenodd;stroke:none"
         d="m 1479.49,801.98 26.35,47.903 26.34,-47.903 h -52.69" /><path
         id="path74"
         style="fill:none;stroke:#0b0c0b;stroke-width:7.5005002;stroke-linecap:butt;stroke-linejoin:miter;stroke-miterlimit:2.61310005;stroke-dasharray:none;stroke-opacity:1"
         d="m 1403.34,846.871 2.91,-13.371 4.02,-18.188 4.06,-17.773 4.03,-17.328 4.07,-16.941 4.02,-16.497 4.03,-16.089 4.05,-15.676 4.04,-15.25 4.04,-14.84 4.04,-14.434 4.04,-13.992 4.03,-13.574 4.05,-13.168 4.03,-12.758 4.05,-12.324 4.06,-11.906 4.02,-11.489 4.03,-11.089 4.04,-10.664 4.05,-10.227 4.04,-9.82 4.03,-9.403 4.03,-9 4.07,-8.558 4.03,-8.153 4.04,-7.726 4.03,-7.328 4.06,-6.891 4.02,-6.48 4.04,-6.047 4.04,-5.657 4.07,-5.218 4.01,-4.805 4.04,-4.371 4.04,-3.988 4.06,-3.551 4.04,-3.129 4.03,-2.727 4.02,-2.281 4.07,-1.89 4.03,-1.458 4.04,-1.066 4.05,-0.613 4.03,-0.211 4.04,0.211 4.04,0.613 4.05,1.066 4.03,1.458 4.04,1.89 4.03,2.281 4.03,2.727 4.06,3.129 4.04,3.551 4.02,3.988 4.06,4.371 4.04,4.805 4.04,5.218 4.05,5.657 4.03,6.047 4.03,6.48 4.04,6.891 4.04,7.328 4.05,7.726 4.04,8.153 4.04,8.558 4.04,9 4.04,9.403 4.05,9.82 4.04,10.227 4.03,10.664 4.05,11.089 4.03,11.489 4.03,11.906 4.04,12.324 4.05,12.758 4.04,13.168 4.03,13.574 4.05,13.992 4.04,14.434 4.05,14.84 4.03,15.25 4.05,15.676 4.03,16.089 4.04,16.497 4.04,16.941 4.05,17.328 4.03,17.773 4.04,18.188 2.9,13.371" /><path
         id="path76"
         style="fill:#ffffff;fill-opacity:1;fill-rule:evenodd;stroke:none"
         d="m 19.2031,10.9727 h 808.004 v 835.898 H 19.2031 Z" /><path
         id="path78"
         style="fill:none;stroke:#0b0c0b;stroke-width:2.16000009;stroke-linecap:butt;stroke-linejoin:miter;stroke-miterlimit:2.61310005;stroke-dasharray:none;stroke-opacity:1"
         d="m 19.2031,10.9727 h 808.004 v 835.898 H 19.2031 Z" /><path
         id="path80"
         style="fill:none;stroke:#101211;stroke-width:2.16000009;stroke-linecap:butt;stroke-linejoin:miter;stroke-miterlimit:2.61310005;stroke-dasharray:none;stroke-opacity:1"
         d="M 100.004,10.9727 V 846.871" /><path
         id="path82"
         style="fill:none;stroke:#101211;stroke-width:2.16000009;stroke-linecap:butt;stroke-linejoin:miter;stroke-miterlimit:2.61310005;stroke-dasharray:none;stroke-opacity:1"
         d="M 180.816,10.9727 V 846.871" /><path
         id="path84"
         style="fill:none;stroke:#101211;stroke-width:2.16000009;stroke-linecap:butt;stroke-linejoin:miter;stroke-miterlimit:2.61310005;stroke-dasharray:none;stroke-opacity:1"
         d="M 261.602,10.9727 V 846.871" /><path
         id="path86"
         style="fill:none;stroke:#101211;stroke-width:2.16000009;stroke-linecap:butt;stroke-linejoin:miter;stroke-miterlimit:2.61310005;stroke-dasharray:none;stroke-opacity:1"
         d="M 342.426,10.9727 V 846.871" /><path
         id="path88"
         style="fill:none;stroke:#101211;stroke-width:2.16000009;stroke-linecap:butt;stroke-linejoin:miter;stroke-miterlimit:2.61310005;stroke-dasharray:none;stroke-opacity:1"
         d="M 423.219,10.9727 V 846.871" /><path
         id="path90"
         style="fill:none;stroke:#101211;stroke-width:2.16000009;stroke-linecap:butt;stroke-linejoin:miter;stroke-miterlimit:2.61310005;stroke-dasharray:none;stroke-opacity:1"
         d="M 504.012,10.9727 V 846.871" /><path
         id="path92"
         style="fill:none;stroke:#101211;stroke-width:2.16000009;stroke-linecap:butt;stroke-linejoin:miter;stroke-miterlimit:2.61310005;stroke-dasharray:none;stroke-opacity:1"
         d="M 584.809,10.9727 V 846.871" /><path
         id="path94"
         style="fill:none;stroke:#101211;stroke-width:2.16000009;stroke-linecap:butt;stroke-linejoin:miter;stroke-miterlimit:2.61310005;stroke-dasharray:none;stroke-opacity:1"
         d="M 665.609,10.9727 V 846.871" /><path
         id="path96"
         style="fill:none;stroke:#101211;stroke-width:2.16000009;stroke-linecap:butt;stroke-linejoin:miter;stroke-miterlimit:2.61310005;stroke-dasharray:none;stroke-opacity:1"
         d="M 746.414,10.9727 V 846.871" /><path
         id="path98"
         style="fill:none;stroke:#101211;stroke-width:2.16000009;stroke-linecap:butt;stroke-linejoin:miter;stroke-miterlimit:2.61310005;stroke-dasharray:none;stroke-opacity:1"
         d="M 19.2031,94.5586 H 827.207" /><path
         id="path100"
         style="fill:none;stroke:#101211;stroke-width:2.16000009;stroke-linecap:butt;stroke-linejoin:miter;stroke-miterlimit:2.61310005;stroke-dasharray:none;stroke-opacity:1"
         d="M 19.2031,178.156 H 827.207" /><path
         id="path102"
         style="fill:none;stroke:#101211;stroke-width:2.16000009;stroke-linecap:butt;stroke-linejoin:miter;stroke-miterlimit:2.61310005;stroke-dasharray:none;stroke-opacity:1"
         d="M 19.2031,261.746 H 827.207" /><path
         id="path104"
         style="fill:none;stroke:#101211;stroke-width:2.16000009;stroke-linecap:butt;stroke-linejoin:miter;stroke-miterlimit:2.61310005;stroke-dasharray:none;stroke-opacity:1"
         d="M 19.2031,345.336 H 827.207" /><path
         id="path106"
         style="fill:none;stroke:#101211;stroke-width:2.16000009;stroke-linecap:butt;stroke-linejoin:miter;stroke-miterlimit:2.61310005;stroke-dasharray:none;stroke-opacity:1"
         d="M 19.2031,428.922 H 827.207" /><path
         id="path108"
         style="fill:none;stroke:#101211;stroke-width:2.16000009;stroke-linecap:butt;stroke-linejoin:miter;stroke-miterlimit:2.61310005;stroke-dasharray:none;stroke-opacity:1"
         d="M 19.2031,512.512 H 827.207" /><path
         id="path110"
         style="fill:none;stroke:#101211;stroke-width:2.16000009;stroke-linecap:butt;stroke-linejoin:miter;stroke-miterlimit:2.61310005;stroke-dasharray:none;stroke-opacity:1"
         d="M 19.2031,596.098 H 827.207" /><path
         id="path112"
         style="fill:none;stroke:#101211;stroke-width:2.16000009;stroke-linecap:butt;stroke-linejoin:miter;stroke-miterlimit:2.61310005;stroke-dasharray:none;stroke-opacity:1"
         d="M 19.2031,679.691 H 827.207" /><path
         id="path114"
         style="fill:none;stroke:#101211;stroke-width:2.16000009;stroke-linecap:butt;stroke-linejoin:miter;stroke-miterlimit:2.61310005;stroke-dasharray:none;stroke-opacity:1"
         d="M 19.2031,763.27 H 827.207" /><path
         id="path116"
         style="fill:none;stroke:#231f20;stroke-width:7.5005002;stroke-linecap:butt;stroke-linejoin:miter;stroke-miterlimit:2.61310005;stroke-dasharray:none;stroke-opacity:1"
         d="M 19.2031,428.922 H 783.461" /><path
         id="path118"
         style="fill:#231f20;fill-opacity:1;fill-rule:evenodd;stroke:none"
         d="m 779.309,455.27 47.898,-26.348 -47.898,-26.352 v 52.7" /><path
         id="path120"
         style="fill:none;stroke:#231f20;stroke-width:7.5005002;stroke-linecap:butt;stroke-linejoin:miter;stroke-miterlimit:2.61310005;stroke-dasharray:none;stroke-opacity:1"
         d="M 424.332,12.4766 V 804.625" /><path
         id="path122"
         style="fill:#231f20;fill-opacity:1;fill-rule:evenodd;stroke:none"
         d="m 397.984,800.473 26.348,47.902 26.352,-47.902 h -52.7" /><path
         id="path124"
         style="fill:none;stroke:#0b0c0b;stroke-width:7.5005002;stroke-linecap:butt;stroke-linejoin:miter;stroke-miterlimit:2.61310005;stroke-dasharray:none;stroke-opacity:1"
         d="m 261.602,846.871 v 0 l 4.039,-8.363 4.039,-8.348 4.039,-8.359 4.047,-8.363 4.039,-8.364 4.047,-8.336 4.019,-8.367 4.059,-8.375 4.043,-8.344 4.039,-8.382 4.031,-8.34 4.047,-8.383 4.027,-8.332 4.055,-8.379 4.039,-8.348 4.035,-8.359 4.027,-8.367 4.055,-8.36 4.031,-8.347 4.067,-8.364 4.023,-8.355 4.035,-8.352 4.043,-8.359 4.035,-8.371 4.051,-8.348 4.035,-8.355 4.036,-8.379 4.039,-8.34 4.05,-8.371 4.032,-8.363 4.043,-8.379 4.058,-8.328 4.02,-8.36 4.035,-8.371 4.043,-8.351 4.051,-8.36 4.031,-8.363 4.035,-8.352 4.031,-8.351 4.067,-8.371 4.027,-8.352 4.043,-8.363 4.027,-8.363 4.059,-8.372 4.023,-8.335 4.04,-8.364 4.039,-8.355 4.07,-8.367 4.015,-8.36 4.036,-8.359 4.047,-8.36 4.05,-8.355 4.043,-8.367 4.035,-8.356 4.02,-8.363 4.062,-8.336 4.032,-8.371 4.039,-8.363 4.051,-8.363 4.035,-8.352 4.039,-8.371 4.035,-8.352 4.051,-8.355 4.035,-8.36 4.039,-8.359 4.031,-8.355 4.031,-8.372 4.059,-8.355 4.039,-8.332 4.024,-8.379 4.058,-8.359 4.035,-8.371 4.039,-8.34 4.055,-8.379 4.027,-8.359 4.036,-8.348 4.039,-8.367 4.039,-8.36 4.047,-8.351 4.039,-8.356 4.039,-8.363 4.039,-8.352 4.047,-8.359 4.043,-8.363 4.039,-8.36 4.039,-8.351 4.043,-8.375 4.035,-8.336 4.027,-8.379 4.039,-8.3594 4.047,-8.3633 4.039,-8.3476 4.039,-8.3711 4.043,-8.3672 4.039,-8.3399 4.051,-8.3593 4.035,-8.3633 4.047,-8.3633 4.027,-8.3477 4.043,-8.3632 v 0" /><path
         id="path126"
         style="fill:#ffffff;fill-opacity:1;fill-rule:evenodd;stroke:none"
         d="m 2179.2,10.9727 h 808.004 v 835.898 H 2179.2 Z" /><path
         id="path128"
         style="fill:none;stroke:#0b0c0b;stroke-width:2.16000009;stroke-linecap:butt;stroke-linejoin:miter;stroke-miterlimit:2.61310005;stroke-dasharray:none;stroke-opacity:1"
         d="m 2179.2,10.9727 h 808.004 v 835.898 H 2179.2 Z" /><path
         id="path130"
         style="fill:none;stroke:#101211;stroke-width:2.16000009;stroke-linecap:butt;stroke-linejoin:miter;stroke-miterlimit:2.61310005;stroke-dasharray:none;stroke-opacity:1"
         d="M 2260,10.9727 V 846.871" /><path
         id="path132"
         style="fill:none;stroke:#101211;stroke-width:2.16000009;stroke-linecap:butt;stroke-linejoin:miter;stroke-miterlimit:2.61310005;stroke-dasharray:none;stroke-opacity:1"
         d="M 2340.82,10.9727 V 846.871" /><path
         id="path134"
         style="fill:none;stroke:#101211;stroke-width:2.16000009;stroke-linecap:butt;stroke-linejoin:miter;stroke-miterlimit:2.61310005;stroke-dasharray:none;stroke-opacity:1"
         d="M 2421.6,10.9727 V 846.871" /><path
         id="path136"
         style="fill:none;stroke:#101211;stroke-width:2.16000009;stroke-linecap:butt;stroke-linejoin:miter;stroke-miterlimit:2.61310005;stroke-dasharray:none;stroke-opacity:1"
         d="M 2502.43,10.9727 V 846.871" /><path
         id="path138"
         style="fill:none;stroke:#101211;stroke-width:2.16000009;stroke-linecap:butt;stroke-linejoin:miter;stroke-miterlimit:2.61310005;stroke-dasharray:none;stroke-opacity:1"
         d="M 2583.22,10.9727 V 846.871" /><path
         id="path140"
         style="fill:none;stroke:#101211;stroke-width:2.16000009;stroke-linecap:butt;stroke-linejoin:miter;stroke-miterlimit:2.61310005;stroke-dasharray:none;stroke-opacity:1"
         d="M 2664.01,10.9727 V 846.871" /><path
         id="path142"
         style="fill:none;stroke:#101211;stroke-width:2.16000009;stroke-linecap:butt;stroke-linejoin:miter;stroke-miterlimit:2.61310005;stroke-dasharray:none;stroke-opacity:1"
         d="M 2744.81,10.9727 V 846.871" /><path
         id="path144"
         style="fill:none;stroke:#101211;stroke-width:2.16000009;stroke-linecap:butt;stroke-linejoin:miter;stroke-miterlimit:2.61310005;stroke-dasharray:none;stroke-opacity:1"
         d="M 2825.61,10.9727 V 846.871" /><path
         id="path146"
         style="fill:none;stroke:#101211;stroke-width:2.16000009;stroke-linecap:butt;stroke-linejoin:miter;stroke-miterlimit:2.61310005;stroke-dasharray:none;stroke-opacity:1"
         d="M 2906.41,10.9727 V 846.871" /><path
         id="path148"
         style="fill:none;stroke:#101211;stroke-width:2.16000009;stroke-linecap:butt;stroke-linejoin:miter;stroke-miterlimit:2.61310005;stroke-dasharray:none;stroke-opacity:1"
         d="m 2179.2,94.5586 h 808.01" /><path
         id="path150"
         style="fill:none;stroke:#101211;stroke-width:2.16000009;stroke-linecap:butt;stroke-linejoin:miter;stroke-miterlimit:2.61310005;stroke-dasharray:none;stroke-opacity:1"
         d="m 2179.2,178.156 h 808.01" /><path
         id="path152"
         style="fill:none;stroke:#101211;stroke-width:2.16000009;stroke-linecap:butt;stroke-linejoin:miter;stroke-miterlimit:2.61310005;stroke-dasharray:none;stroke-opacity:1"
         d="m 2179.2,261.746 h 808.01" /><path
         id="path154"
         style="fill:none;stroke:#101211;stroke-width:2.16000009;stroke-linecap:butt;stroke-linejoin:miter;stroke-miterlimit:2.61310005;stroke-dasharray:none;stroke-opacity:1"
         d="m 2179.2,345.336 h 808.01" /><path
         id="path156"
         style="fill:none;stroke:#101211;stroke-width:2.16000009;stroke-linecap:butt;stroke-linejoin:miter;stroke-miterlimit:2.61310005;stroke-dasharray:none;stroke-opacity:1"
         d="m 2179.2,428.922 h 808.01" /><path
         id="path158"
         style="fill:none;stroke:#101211;stroke-width:2.16000009;stroke-linecap:butt;stroke-linejoin:miter;stroke-miterlimit:2.61310005;stroke-dasharray:none;stroke-opacity:1"
         d="m 2179.2,512.512 h 808.01" /><path
         id="path160"
         style="fill:none;stroke:#101211;stroke-width:2.16000009;stroke-linecap:butt;stroke-linejoin:miter;stroke-miterlimit:2.61310005;stroke-dasharray:none;stroke-opacity:1"
         d="m 2179.2,596.098 h 808.01" /><path
         id="path162"
         style="fill:none;stroke:#101211;stroke-width:2.16000009;stroke-linecap:butt;stroke-linejoin:miter;stroke-miterlimit:2.61310005;stroke-dasharray:none;stroke-opacity:1"
         d="m 2179.2,679.691 h 808.01" /><path
         id="path164"
         style="fill:none;stroke:#101211;stroke-width:2.16000009;stroke-linecap:butt;stroke-linejoin:miter;stroke-miterlimit:2.61310005;stroke-dasharray:none;stroke-opacity:1"
         d="m 2179.2,763.27 h 808.01" /><path
         id="path166"
         style="fill:none;stroke:#231f20;stroke-width:7.5005002;stroke-linecap:butt;stroke-linejoin:miter;stroke-miterlimit:2.61310005;stroke-dasharray:none;stroke-opacity:1"
         d="m 2179.2,428.922 h 764.26" /><path
         id="path168"
         style="fill:#231f20;fill-opacity:1;fill-rule:evenodd;stroke:none"
         d="m 2939.31,455.27 47.9,-26.348 -47.9,-26.352 v 52.7" /><path
         id="path170"
         style="fill:none;stroke:#231f20;stroke-width:7.5005002;stroke-linecap:butt;stroke-linejoin:miter;stroke-miterlimit:2.61310005;stroke-dasharray:none;stroke-opacity:1"
         d="M 2584.33,9.47266 V 801.621" /><path
         id="path172"
         style="fill:#231f20;fill-opacity:1;fill-rule:evenodd;stroke:none"
         d="m 2557.98,797.469 26.35,47.898 26.35,-47.898 h -52.7" /><path
         id="path174"
         style="fill:none;stroke:#0b0c0b;stroke-width:7.5005002;stroke-linecap:butt;stroke-linejoin:miter;stroke-miterlimit:2.61310005;stroke-dasharray:none;stroke-opacity:1"
         d="m 2240.94,10.9727 2.91,13.3711 4.04,18.1874 4.06,17.7735 4.02,17.332 4.03,16.9219 4.05,16.5114 4.05,16.094 4.02,15.676 4.05,15.25 4.04,14.836 4.02,14.433 4.06,13.993 4.03,13.574 4.05,13.172 4.05,12.754 4.03,12.324 4.04,11.91 4.04,11.484 4.04,11.09 4.03,10.668 4.04,10.223 4.06,9.824 4.03,9.398 4.03,9.004 4.06,8.559 4.02,8.152 4.05,7.723 4.04,7.332 4.03,6.891 4.04,6.48 4.05,6.047 4.03,5.652 4.05,5.219 4.03,4.809 4.05,4.371 4.03,3.988 4.05,3.551 4.04,3.129 4.04,2.726 4.03,2.278 4.05,1.894 4.03,1.457 4.05,1.063 4.04,0.617 4.03,0.207 4.04,-0.207 4.04,-0.617 4.04,-1.063 4.05,-1.457 4.03,-1.894 4.05,-2.278 4.02,-2.726 4.06,-3.129 4.04,-3.551 4.04,-3.988 4.03,-4.371 4.05,-4.809 4.03,-5.219 4.05,-5.652 4.04,-6.047 4.04,-6.48 4.02,-6.891 4.06,-7.332 4.03,-7.723 4.07,-8.152 4.02,-8.559 4.03,-9.004 4.05,-9.398 4.04,-9.824 4.04,-10.223 4.04,-10.668 4.04,-11.09 4.03,-11.484 4.05,-11.91 4.03,-12.324 4.05,-12.754 4.06,-13.172 4.02,-13.574 4.03,-13.993 4.04,-14.433 4.05,-14.836 4.04,-15.25 4.03,-15.676 4.03,-16.094 4.07,-16.5114 4.03,-16.9219 4.04,-17.332 4.03,-17.7735 4.06,-18.1874 2.89,-13.3711" /><path
         id="path176"
         style="fill:#231f20;fill-opacity:1;fill-rule:nonzero;stroke:none"
         d="m 388.227,843.898 c 1.097,-1.878 1.863,-3.648 2.296,-5.281 0.418,-1.652 0.836,-4.887 1.27,-9.699 l 2.148,-24.016 c 1.95,2.332 4.786,6.047 8.5,11.129 1.782,2.469 4,5.836 6.633,10.102 1.602,2.597 2.567,4.433 2.934,5.469 0.183,0.515 0.285,1.066 0.285,1.613 0,0.351 -0.102,0.652 -0.336,0.887 -0.23,0.214 -0.816,0.48 -1.781,0.796 -0.969,0.301 -1.766,0.887 -2.399,1.704 -0.636,0.832 -0.953,1.781 -0.953,2.863 0,1.336 0.403,2.402 1.184,3.219 0.765,0.816 1.75,1.214 2.918,1.214 1.429,0 2.648,-0.582 3.664,-1.781 1.019,-1.183 1.515,-2.816 1.515,-4.902 0,-2.563 -0.878,-5.516 -2.632,-8.813 -1.766,-3.3 -5.149,-8.371 -10.164,-15.199 -5,-6.851 -11.082,-14.301 -18.2,-22.371 -4.918,-5.566 -8.566,-9.082 -10.953,-10.531 -2.367,-1.434 -4.398,-2.168 -6.097,-2.168 -1.016,0 -1.899,0.383 -2.664,1.152 -0.77,0.766 -1.137,1.649 -1.137,2.664 0,1.27 0.515,2.418 1.582,3.469 1.055,1.035 2.199,1.551 3.437,1.551 0.649,0 1.2,-0.137 1.614,-0.434 0.269,-0.168 0.55,-0.633 0.851,-1.402 0.317,-0.746 0.598,-1.266 0.863,-1.535 0.153,-0.164 0.352,-0.231 0.586,-0.231 0.184,0 0.532,0.149 1.016,0.485 1.801,1.101 3.887,2.867 6.254,5.265 3.129,3.199 5.434,5.801 6.93,7.817 l -2.735,30.949 c -0.445,5.117 -1.129,8.234 -2.047,9.332 -0.918,1.101 -2.433,1.668 -4.586,1.668 -0.683,0 -1.914,-0.098 -3.664,-0.301 l -0.433,1.801 14.301,3.515" /><path
         id="path178"
         style="fill:#231f20;fill-opacity:1;fill-rule:nonzero;stroke:none"
         d="m 1463.59,838.641 c 1.1,-1.883 1.87,-3.649 2.3,-5.282 0.42,-1.652 0.83,-4.886 1.27,-9.703 l 2.14,-24.011 c 1.96,2.332 4.79,6.046 8.51,11.128 1.78,2.469 3.99,5.836 6.63,10.102 1.6,2.598 2.57,4.434 2.94,5.469 0.18,0.515 0.28,1.062 0.28,1.613 0,0.352 -0.1,0.648 -0.34,0.887 -0.23,0.215 -0.81,0.48 -1.78,0.797 -0.97,0.3 -1.77,0.886 -2.4,1.703 -0.63,0.832 -0.95,1.781 -0.95,2.863 0,1.332 0.4,2.402 1.19,3.219 0.76,0.816 1.74,1.215 2.91,1.215 1.43,0 2.65,-0.582 3.67,-1.782 1.01,-1.187 1.51,-2.82 1.51,-4.902 0,-2.566 -0.88,-5.516 -2.63,-8.816 -1.77,-3.297 -5.15,-8.368 -10.16,-15.2 -5,-6.851 -11.09,-14.3 -18.21,-22.367 -4.91,-5.566 -8.56,-9.082 -10.95,-10.531 -2.36,-1.434 -4.4,-2.168 -6.1,-2.168 -1.01,0 -1.9,0.383 -2.66,1.152 -0.77,0.766 -1.14,1.649 -1.14,2.664 0,1.266 0.52,2.418 1.59,3.465 1.05,1.035 2.2,1.551 3.43,1.551 0.65,0 1.2,-0.133 1.62,-0.434 0.26,-0.164 0.55,-0.628 0.85,-1.398 0.31,-0.75 0.6,-1.266 0.86,-1.535 0.15,-0.164 0.35,-0.231 0.58,-0.231 0.19,0 0.54,0.149 1.02,0.485 1.81,1.097 3.89,2.867 6.25,5.265 3.14,3.2 5.44,5.801 6.94,7.817 l -2.74,30.949 c -0.45,5.117 -1.13,8.234 -2.05,9.332 -0.91,1.102 -2.43,1.668 -4.58,1.668 -0.68,0 -1.92,-0.102 -3.67,-0.301 l -0.43,1.801 14.3,3.516" /><path
         id="path180"
         style="fill:#231f20;fill-opacity:1;fill-rule:nonzero;stroke:none"
         d="m 2538.41,837.078 c 1.1,-1.879 1.86,-3.648 2.3,-5.281 0.41,-1.652 0.83,-4.887 1.26,-9.699 l 2.15,-24.016 c 1.95,2.332 4.79,6.047 8.5,11.129 1.79,2.469 4,5.836 6.63,10.101 1.61,2.598 2.57,4.434 2.94,5.469 0.19,0.516 0.28,1.067 0.28,1.614 0,0.351 -0.09,0.652 -0.33,0.886 -0.23,0.215 -0.82,0.481 -1.78,0.797 -0.97,0.301 -1.77,0.887 -2.4,1.703 -0.64,0.832 -0.96,1.781 -0.96,2.864 0,1.335 0.41,2.402 1.19,3.218 0.76,0.817 1.75,1.215 2.92,1.215 1.43,0 2.65,-0.582 3.66,-1.781 1.02,-1.184 1.52,-2.817 1.52,-4.902 0,-2.563 -0.88,-5.516 -2.63,-8.817 -1.77,-3.297 -5.15,-8.367 -10.17,-15.195 -5,-6.852 -11.08,-14.301 -18.2,-22.371 -4.91,-5.567 -8.57,-9.082 -10.95,-10.532 -2.37,-1.433 -4.4,-2.168 -6.1,-2.168 -1.02,0 -1.9,0.383 -2.67,1.153 -0.77,0.765 -1.13,1.648 -1.13,2.664 0,1.269 0.52,2.418 1.58,3.469 1.05,1.031 2.2,1.55 3.44,1.55 0.65,0 1.2,-0.136 1.61,-0.433 0.27,-0.168 0.55,-0.633 0.85,-1.403 0.32,-0.75 0.6,-1.265 0.87,-1.535 0.15,-0.164 0.35,-0.23 0.58,-0.23 0.18,0 0.54,0.148 1.02,0.484 1.8,1.102 3.88,2.867 6.25,5.266 3.13,3.199 5.43,5.801 6.93,7.816 l -2.73,30.949 c -0.45,5.118 -1.13,8.235 -2.05,9.333 -0.92,1.101 -2.43,1.667 -4.59,1.667 -0.68,0 -1.91,-0.097 -3.66,-0.3 l -0.43,1.8 14.3,3.516" /><path
         id="path182"
         style="fill:#231f20;fill-opacity:1;fill-rule:nonzero;stroke:none"
         d="m 801.816,402.75 c 1.598,-1.684 2.801,-3.383 3.618,-5.066 0.582,-1.184 1.546,-4.25 2.882,-9.235 l 4.297,6.453 c 1.137,1.547 2.52,3.047 4.153,4.465 1.613,1.414 3.05,2.383 4.281,2.899 0.781,0.332 1.652,0.484 2.601,0.484 1.399,0 2.5,-0.367 3.332,-1.117 0.832,-0.75 1.25,-1.668 1.25,-2.731 0,-1.234 -0.25,-2.086 -0.734,-2.535 -0.914,-0.816 -1.949,-1.234 -3.113,-1.234 -0.684,0 -1.418,0.152 -2.203,0.449 -1.532,0.52 -2.567,0.785 -3.082,0.785 -0.782,0 -1.7,-0.469 -2.786,-1.367 -2.015,-1.699 -4.414,-4.965 -7.214,-9.816 l 4,-16.801 c 0.617,-2.567 1.132,-4.117 1.566,-4.617 0.418,-0.5 0.832,-0.75 1.266,-0.75 0.683,0 1.484,0.367 2.386,1.117 1.797,1.5 3.317,3.449 4.598,5.867 l 1.699,-0.883 c -2.051,-3.847 -4.648,-7.031 -7.816,-9.566 -1.781,-1.434 -3.301,-2.153 -4.535,-2.153 -1.813,0 -3.266,1.02 -4.348,3.067 -0.684,1.269 -2.102,6.754 -4.25,16.418 -5.066,-8.832 -9.133,-14.5 -12.199,-17.051 -1.985,-1.613 -3.899,-2.434 -5.766,-2.434 -1.301,0 -2.484,0.469 -3.566,1.418 -0.766,0.719 -1.168,1.668 -1.168,2.883 0,1.071 0.367,1.969 1.086,2.684 0.699,0.719 1.578,1.066 2.633,1.066 1.031,0 2.148,-0.515 3.316,-1.566 0.848,-0.75 1.5,-1.113 1.949,-1.113 0.399,0 0.899,0.265 1.516,0.781 1.535,1.23 3.613,3.898 6.25,8 2.633,4.101 4.367,7.066 5.183,8.898 -2.035,7.903 -3.117,12.086 -3.285,12.535 -0.75,2.114 -1.715,3.614 -2.933,4.5 -1.2,0.883 -2.965,1.317 -5.317,1.317 -0.746,0 -1.617,-0.035 -2.582,-0.102 v 1.766 l 13.035,2.285" /><path
         id="path184"
         style="fill:#231f20;fill-opacity:1;fill-rule:nonzero;stroke:none"
         d="m 1886.58,399.738 c 1.6,-1.683 2.8,-3.386 3.62,-5.066 0.58,-1.188 1.55,-4.254 2.88,-9.234 l 4.3,6.449 c 1.13,1.547 2.51,3.051 4.15,4.465 1.61,1.418 3.05,2.382 4.28,2.898 0.78,0.336 1.65,0.488 2.6,0.488 1.4,0 2.5,-0.367 3.33,-1.117 0.83,-0.754 1.25,-1.668 1.25,-2.734 0,-1.235 -0.25,-2.082 -0.73,-2.535 -0.92,-0.817 -1.95,-1.231 -3.12,-1.231 -0.68,0 -1.41,0.149 -2.19,0.449 -1.54,0.516 -2.57,0.782 -3.09,0.782 -0.78,0 -1.7,-0.465 -2.79,-1.364 -2.01,-1.703 -4.41,-4.968 -7.21,-9.816 l 4,-16.801 c 0.62,-2.566 1.13,-4.117 1.57,-4.617 0.41,-0.5 0.83,-0.75 1.26,-0.75 0.69,0 1.49,0.367 2.39,1.117 1.8,1.5 3.31,3.449 4.6,5.863 l 1.7,-0.879 c -2.05,-3.851 -4.65,-7.035 -7.82,-9.566 -1.78,-1.437 -3.3,-2.152 -4.54,-2.152 -1.81,0 -3.26,1.015 -4.34,3.066 -0.69,1.266 -2.1,6.75 -4.25,16.418 -5.07,-8.832 -9.14,-14.504 -12.2,-17.051 -1.99,-1.617 -3.9,-2.433 -5.77,-2.433 -1.3,0 -2.48,0.465 -3.57,1.418 -0.76,0.715 -1.16,1.664 -1.16,2.883 0,1.066 0.36,1.964 1.08,2.683 0.7,0.715 1.58,1.067 2.64,1.067 1.03,0 2.14,-0.516 3.31,-1.567 0.85,-0.75 1.5,-1.117 1.95,-1.117 0.4,0 0.9,0.266 1.52,0.781 1.53,1.235 3.61,3.903 6.25,8 2.63,4.102 4.36,7.067 5.18,8.903 -2.03,7.898 -3.12,12.082 -3.28,12.535 -0.76,2.113 -1.72,3.613 -2.93,4.496 -1.2,0.886 -2.97,1.32 -5.33,1.32 -0.74,0 -1.61,-0.035 -2.58,-0.101 v 1.765 l 13.04,2.285" /><path
         id="path186"
         style="fill:#231f20;fill-opacity:1;fill-rule:nonzero;stroke:none"
         d="m 2942.72,396.73 c 1.6,-1.683 2.8,-3.382 3.62,-5.062 0.58,-1.188 1.55,-4.254 2.88,-9.238 l 4.3,6.453 c 1.13,1.547 2.52,3.051 4.15,4.465 1.62,1.418 3.05,2.382 4.28,2.898 0.78,0.336 1.65,0.484 2.6,0.484 1.4,0 2.5,-0.363 3.33,-1.117 0.84,-0.75 1.25,-1.664 1.25,-2.73 0,-1.235 -0.25,-2.082 -0.73,-2.535 -0.92,-0.817 -1.95,-1.235 -3.11,-1.235 -0.69,0 -1.42,0.153 -2.2,0.453 -1.54,0.516 -2.57,0.782 -3.09,0.782 -0.78,0 -1.7,-0.469 -2.78,-1.368 -2.02,-1.699 -4.42,-4.964 -7.22,-9.816 l 4,-16.801 c 0.62,-2.562 1.13,-4.113 1.57,-4.617 0.41,-0.496 0.83,-0.746 1.27,-0.746 0.68,0 1.48,0.363 2.38,1.117 1.8,1.5 3.32,3.449 4.6,5.863 l 1.7,-0.882 c -2.05,-3.848 -4.65,-7.032 -7.82,-9.567 -1.78,-1.433 -3.3,-2.148 -4.53,-2.148 -1.82,0 -3.27,1.015 -4.35,3.066 -0.68,1.266 -2.1,6.75 -4.25,16.418 -5.07,-8.832 -9.14,-14.504 -12.2,-17.051 -1.99,-1.617 -3.9,-2.433 -5.77,-2.433 -1.3,0 -2.48,0.465 -3.56,1.414 -0.77,0.719 -1.17,1.668 -1.17,2.883 0,1.07 0.36,1.968 1.08,2.687 0.7,0.715 1.59,1.063 2.64,1.063 1.03,0 2.14,-0.516 3.31,-1.563 0.85,-0.75 1.5,-1.117 1.95,-1.117 0.4,0 0.9,0.266 1.52,0.781 1.53,1.235 3.61,3.903 6.25,8 2.63,4.102 4.36,7.067 5.18,8.903 -2.03,7.898 -3.11,12.082 -3.28,12.531 -0.75,2.117 -1.72,3.617 -2.93,4.5 -1.2,0.883 -2.97,1.316 -5.32,1.316 -0.75,0 -1.62,-0.031 -2.59,-0.101 v 1.765 l 13.04,2.285" /><path
         id="path188"
         style="fill:#231f20;fill-opacity:1;fill-rule:nonzero;stroke:none"
         d="m 484.324,406.793 16.121,7.863 h 1.614 v -55.914 c 0,-3.703 0.152,-6.019 0.453,-6.933 0.316,-0.903 0.965,-1.602 1.929,-2.102 0.985,-0.484 2.969,-0.766 5.969,-0.832 v -1.801 h -24.918 v 1.801 c 3.133,0.066 5.153,0.336 6.067,0.816 0.902,0.469 1.535,1.102 1.902,1.899 0.351,0.805 0.535,3.183 0.535,7.152 v 35.75 c 0,4.817 -0.168,7.899 -0.484,9.266 -0.235,1.051 -0.653,1.816 -1.25,2.301 -0.602,0.484 -1.317,0.734 -2.168,0.734 -1.199,0 -2.883,-0.504 -5.035,-1.52 l -0.735,1.52" /><path
         id="path190"
         style="fill:#231f20;fill-opacity:1;fill-rule:nonzero;stroke:none"
         d="m 375.469,553.539 16.117,7.867 h 1.617 v -55.918 c 0,-3.699 0.149,-6.015 0.449,-6.933 0.321,-0.899 0.969,-1.602 1.934,-2.098 0.984,-0.488 2.969,-0.766 5.969,-0.836 v -1.801 h -24.918 v 1.801 c 3.133,0.07 5.152,0.336 6.066,0.817 0.902,0.468 1.535,1.101 1.899,1.898 0.351,0.805 0.539,3.184 0.539,7.152 v 35.75 c 0,4.817 -0.168,7.903 -0.489,9.266 -0.23,1.051 -0.648,1.82 -1.25,2.301 -0.597,0.484 -1.312,0.734 -2.164,0.734 -1.203,0 -2.883,-0.504 -5.035,-1.516 l -0.734,1.516" /><path
         id="path192"
         style="fill:#231f20;fill-opacity:1;fill-rule:nonzero;stroke:none"
         d="m 354.445,393.441 c 0,7.547 1.133,14.047 3.414,19.5 2.286,5.45 5.301,9.516 9.086,12.184 2.934,2.117 5.95,3.18 9.082,3.18 5.067,0 9.637,-2.598 13.668,-7.766 5.051,-6.418 7.567,-15.098 7.567,-26.082 0,-7.684 -1.098,-14.199 -3.317,-19.566 -2.215,-5.383 -5.035,-9.282 -8.465,-11.7 -3.433,-2.433 -6.75,-3.636 -9.949,-3.636 -6.304,0 -11.57,3.718 -15.769,11.187 -3.551,6.281 -5.317,13.848 -5.317,22.699 z m 9.567,-1.214 c 0,-9.122 1.117,-16.571 3.367,-22.321 1.848,-4.847 4.633,-7.281 8.301,-7.281 1.765,0 3.582,0.801 5.465,2.363 1.898,1.586 3.332,4.239 4.3,7.938 1.5,5.597 2.25,13.496 2.25,23.679 0,7.551 -0.785,13.852 -2.351,18.899 -1.168,3.75 -2.684,6.402 -4.532,7.969 -1.335,1.066 -2.949,1.597 -4.835,1.597 -2.215,0 -4.18,-0.98 -5.915,-2.965 -2.335,-2.699 -3.933,-6.949 -4.781,-12.75 -0.851,-5.796 -1.269,-11.5 -1.269,-17.128" /><path
         id="path194"
         style="fill:#231f20;fill-opacity:1;fill-rule:nonzero;stroke:none"
         d="m 1580.29,394.648 16.12,7.868 h 1.61 v -55.918 c 0,-3.7 0.15,-6.016 0.45,-6.934 0.32,-0.898 0.97,-1.602 1.94,-2.098 0.98,-0.484 2.96,-0.765 5.96,-0.836 v -1.796 h -24.91 v 1.796 c 3.13,0.071 5.15,0.336 6.06,0.817 0.9,0.469 1.53,1.101 1.9,1.898 0.35,0.805 0.54,3.184 0.54,7.153 v 35.75 c 0,4.816 -0.17,7.902 -0.49,9.265 -0.23,1.051 -0.65,1.821 -1.25,2.301 -0.6,0.484 -1.31,0.734 -2.17,0.734 -1.19,0 -2.88,-0.503 -5.03,-1.515 l -0.73,1.515" /><path
         id="path196"
         style="fill:#231f20;fill-opacity:1;fill-rule:nonzero;stroke:none"
         d="m 1471.43,541.395 16.12,7.867 h 1.61 v -55.918 c 0,-3.699 0.16,-6.016 0.46,-6.934 0.31,-0.898 0.96,-1.601 1.93,-2.098 0.98,-0.484 2.97,-0.765 5.97,-0.835 v -1.797 h -24.92 v 1.797 c 3.13,0.07 5.15,0.335 6.06,0.816 0.91,0.469 1.54,1.102 1.91,1.902 0.35,0.801 0.53,3.18 0.53,7.149 v 35.75 c 0,4.816 -0.17,7.902 -0.48,9.269 -0.24,1.047 -0.65,1.817 -1.25,2.297 -0.6,0.485 -1.32,0.735 -2.17,0.735 -1.2,0 -2.88,-0.5 -5.03,-1.516 l -0.74,1.516" /><path
         id="path198"
         style="fill:#231f20;fill-opacity:1;fill-rule:nonzero;stroke:none"
         d="m 1450.41,381.297 c 0,7.551 1.13,14.047 3.41,19.5 2.29,5.449 5.3,9.515 9.09,12.183 2.93,2.118 5.95,3.184 9.08,3.184 5.06,0 9.63,-2.602 13.67,-7.769 5.05,-6.415 7.56,-15.098 7.56,-26.083 0,-7.683 -1.1,-14.199 -3.31,-19.566 -2.22,-5.383 -5.03,-9.281 -8.47,-11.699 -3.43,-2.434 -6.75,-3.633 -9.95,-3.633 -6.3,0 -11.57,3.719 -15.76,11.184 -3.56,6.281 -5.32,13.851 -5.32,22.699 z m 9.56,-1.215 c 0,-9.121 1.12,-16.57 3.37,-22.316 1.85,-4.852 4.63,-7.286 8.3,-7.286 1.77,0 3.58,0.801 5.47,2.368 1.89,1.582 3.33,4.234 4.3,7.933 1.5,5.598 2.25,13.496 2.25,23.684 0,7.547 -0.79,13.847 -2.35,18.898 -1.17,3.75 -2.69,6.399 -4.54,7.965 -1.33,1.067 -2.95,1.602 -4.83,1.602 -2.22,0 -4.18,-0.985 -5.92,-2.965 -2.33,-2.703 -3.93,-6.953 -4.78,-12.75 -0.85,-5.801 -1.27,-11.5 -1.27,-17.133" /><path
         id="path200"
         style="fill:#231f20;fill-opacity:1;fill-rule:nonzero;stroke:none"
         d="m 2651.96,391.613 16.12,7.864 h 1.62 v -55.915 c 0,-3.703 0.15,-6.015 0.45,-6.933 0.31,-0.902 0.96,-1.602 1.93,-2.102 0.98,-0.484 2.97,-0.761 5.97,-0.832 v -1.8 h -24.92 v 1.8 c 3.13,0.071 5.15,0.336 6.07,0.817 0.9,0.468 1.53,1.101 1.89,1.898 0.36,0.805 0.54,3.184 0.54,7.152 v 35.75 c 0,4.817 -0.17,7.903 -0.48,9.266 -0.24,1.051 -0.65,1.817 -1.25,2.301 -0.6,0.484 -1.32,0.734 -2.17,0.734 -1.2,0 -2.88,-0.504 -5.03,-1.515 l -0.74,1.515" /><path
         id="path202"
         style="fill:#231f20;fill-opacity:1;fill-rule:nonzero;stroke:none"
         d="m 2543.11,538.359 16.11,7.868 h 1.62 v -55.918 c 0,-3.7 0.15,-6.016 0.45,-6.934 0.32,-0.898 0.97,-1.602 1.93,-2.098 0.99,-0.488 2.97,-0.765 5.97,-0.836 v -1.8 h -24.92 v 1.8 c 3.14,0.071 5.16,0.336 6.07,0.817 0.9,0.469 1.54,1.101 1.9,1.898 0.35,0.805 0.54,3.184 0.54,7.153 v 35.75 c 0,4.816 -0.17,7.902 -0.49,9.265 -0.23,1.051 -0.65,1.821 -1.25,2.301 -0.6,0.484 -1.31,0.734 -2.16,0.734 -1.21,0 -2.89,-0.504 -5.04,-1.515 l -0.73,1.515" /><path
         id="path204"
         style="fill:#231f20;fill-opacity:1;fill-rule:nonzero;stroke:none"
         d="m 2522.08,378.262 c 0,7.547 1.13,14.047 3.42,19.5 2.28,5.449 5.3,9.515 9.08,12.183 2.93,2.117 5.95,3.184 9.08,3.184 5.07,0 9.64,-2.602 13.67,-7.77 5.05,-6.418 7.57,-15.097 7.57,-26.082 0,-7.683 -1.1,-14.199 -3.32,-19.566 -2.21,-5.383 -5.03,-9.281 -8.47,-11.699 -3.43,-2.434 -6.74,-3.637 -9.95,-3.637 -6.3,0 -11.56,3.719 -15.76,11.187 -3.55,6.282 -5.32,13.848 -5.32,22.7 z m 9.57,-1.215 c 0,-9.121 1.12,-16.57 3.37,-22.317 1.84,-4.851 4.63,-7.285 8.3,-7.285 1.76,0 3.58,0.801 5.46,2.364 1.9,1.586 3.33,4.238 4.3,7.937 1.5,5.598 2.25,13.496 2.25,23.68 0,7.551 -0.78,13.851 -2.35,18.898 -1.17,3.75 -2.68,6.403 -4.53,7.969 -1.34,1.066 -2.95,1.602 -4.84,1.602 -2.21,0 -4.18,-0.985 -5.91,-2.969 -2.34,-2.699 -3.93,-6.949 -4.79,-12.75 -0.84,-5.797 -1.26,-11.5 -1.26,-17.129" /></g></g></svg>