<?xml version="1.0" encoding="UTF-8" standalone="no"?>
<svg
   xmlns:dc="http://purl.org/dc/elements/1.1/"
   xmlns:cc="http://creativecommons.org/ns#"
   xmlns:rdf="http://www.w3.org/1999/02/22-rdf-syntax-ns#"
   xmlns:svg="http://www.w3.org/2000/svg"
   xmlns="http://www.w3.org/2000/svg"
   viewBox="0 0 422.66666 133.33333"
   height="133.33333"
   width="422.66666"
   xml:space="preserve"
   id="svg2"
   version="1.1"><metadata
     id="metadata8"><rdf:RDF><cc:Work
         rdf:about=""><dc:format>image/svg+xml</dc:format><dc:type
           rdf:resource="http://purl.org/dc/dcmitype/StillImage" /></cc:Work></rdf:RDF></metadata><defs
     id="defs6" /><g
     transform="matrix(1.3333333,0,0,-1.3333333,0,133.33333)"
     id="g10"><g
       transform="scale(0.1)"
       id="g12"><path
         id="path14"
         style="fill:#231f20;fill-opacity:1;fill-rule:nonzero;stroke:none"
         d="m 64.8477,996.965 -5.0352,-55.067 c -0.2656,-2.586 -0.3828,-4.269 -0.3828,-5.086 0,-1.296 0.2344,-2.296 0.7344,-2.98 0.6171,-0.934 1.4492,-1.633 2.5,-2.102 1.0664,-0.449 2.8515,-0.683 5.3515,-0.683 L 67.4805,929.25 H 41.4141 l 0.5312,1.797 h 1.1172 c 2.1172,0 3.8516,0.469 5.1875,1.367 0.9297,0.637 1.6641,1.648 2.1992,3.086 0.3477,1.016 0.6992,3.379 1.0156,7.129 l 0.7813,8.402 H 33.2969 l -6.7344,-9.133 c -1.5313,-2.05 -2.4805,-3.535 -2.8828,-4.414 -0.3828,-0.902 -0.582,-1.738 -0.582,-2.519 0,-1.051 0.414,-1.934 1.2656,-2.684 0.8515,-0.75 2.25,-1.164 4.2031,-1.234 L 28.0312,929.25 H 8.44922 l 0.53125,1.797 c 2.41793,0.101 4.53513,0.918 6.38283,2.418 1.8359,1.519 4.5664,4.75 8.2187,9.699 l 39.5469,53.801 z m -9.668,-16.25 -19.1992,-26.117 h 16.6484 l 2.5508,26.117" /><path
         id="path16"
         style="fill:#231f20;fill-opacity:1;fill-rule:nonzero;stroke:none"
         d="m 88.9648,997.746 1.668,0.934 c 3.8633,-7.348 6.6328,-13.864 8.2969,-19.532 1.3323,-4.418 2.0043,-8.882 2.0043,-13.386 0,-10.496 -2.4379,-19.899 -7.2856,-28.164 C 87.6641,927.414 78.0156,917.5 64.6992,907.863 l -1.168,1.516 c 6.0157,4.484 10.9336,9.484 14.7344,14.984 4.7656,6.899 8.6485,15.25 11.6836,25.035 3.0156,9.766 4.5313,18.668 4.5313,26.684 0,6.117 -1.8321,13.332 -5.5157,21.664" /><path
         id="path18"
         style="fill:#231f20;fill-opacity:1;fill-rule:nonzero;stroke:none"
         d="m 1157.27,995.465 h 46.54 l -5.03,-17.281 h -1.82 c 0.36,2.113 0.55,4.031 0.55,5.746 0,2.25 -0.45,4 -1.33,5.234 -0.87,1.231 -2.07,2.035 -3.59,2.383 -1.52,0.367 -4.48,0.551 -8.91,0.551 h -10.2 l -7.62,-26.133 h 6.65 c 5.65,0 9.9,-0.586 12.73,-1.75 2.83,-1.184 5.17,-3.168 6.99,-5.965 1.83,-2.801 2.73,-5.805 2.73,-9.035 0,-3.867 -1.32,-7.567 -3.98,-11.082 -2.66,-3.52 -5.91,-5.867 -9.74,-7.086 -3.83,-1.199 -8.36,-1.797 -13.56,-1.797 h -29.56 l 0.49,1.797 c 3.55,0.07 5.98,0.668 7.3,1.785 1.32,1.133 2.66,3.98 4.03,8.582 l 11.62,39.5 c 1.28,4.352 1.92,7.301 1.92,8.832 0,1.367 -0.5,2.352 -1.5,2.934 -0.99,0.586 -2.74,0.902 -5.25,0.968 z m -0.83,-61.918 c 2.54,-0.465 5.32,-0.684 8.35,-0.684 6.9,0 11.95,1.703 15.16,5.102 3.21,3.402 4.81,7.199 4.81,11.398 0,2.832 -0.77,5.332 -2.32,7.504 -1.55,2.164 -3.5,3.649 -5.83,4.465 -2.35,0.813 -5.5,1.219 -9.49,1.219 h -2.19 l -8.49,-29.004" /><path
         id="path20"
         style="fill:#231f20;fill-opacity:1;fill-rule:nonzero;stroke:none"
         d="m 1214.49,997.746 1.67,0.934 c 3.86,-7.348 6.63,-13.864 8.3,-19.532 1.33,-4.418 2,-8.882 2,-13.386 0,-10.496 -2.44,-19.899 -7.28,-28.164 -5.99,-10.184 -15.64,-20.098 -28.95,-29.735 l -1.17,1.516 c 6.01,4.484 10.93,9.484 14.73,14.984 4.77,6.899 8.65,15.25 11.69,25.035 3.01,9.766 4.53,18.668 4.53,26.684 0,6.117 -1.83,13.332 -5.52,21.664" /><path
         id="path22"
         style="fill:#231f20;fill-opacity:1;fill-rule:nonzero;stroke:none"
         d="m 2358.41,993.648 0.68,1.817 h 23.64 c 3.96,0 7.49,-0.617 10.61,-1.867 3.1,-1.235 5.44,-2.95 6.99,-5.164 1.55,-2.219 2.31,-4.571 2.31,-7.039 0,-3.813 -1.38,-7.247 -4.13,-10.333 -2.75,-3.066 -7.23,-5.347 -13.45,-6.796 4.01,-1.5 6.95,-3.485 8.85,-5.969 1.88,-2.465 2.83,-5.18 2.83,-8.149 0,-3.285 -0.85,-6.433 -2.55,-9.433 -1.68,-2.985 -3.87,-5.317 -6.51,-6.965 -2.66,-1.668 -5.86,-2.887 -9.61,-3.668 -2.66,-0.551 -6.83,-0.832 -12.5,-0.832 h -24.26 l 0.63,1.797 c 2.55,0.07 4.27,0.32 5.18,0.734 1.31,0.567 2.24,1.301 2.79,2.199 0.78,1.235 1.81,4.067 3.11,8.5 l 11.87,40.082 c 1.02,3.387 1.52,5.766 1.52,7.137 0,1.199 -0.45,2.149 -1.34,2.848 -0.89,0.699 -2.59,1.051 -5.11,1.051 -0.55,0 -1.07,0.015 -1.55,0.05 z m 9.9,-27.484 c 2.12,-0.066 3.65,-0.102 4.6,-0.102 6.77,0 11.8,1.469 15.11,4.418 3.3,2.95 4.96,6.633 4.96,11.067 0,3.351 -1.02,5.965 -3.04,7.836 -2.01,1.863 -5.23,2.801 -9.67,2.801 -1.16,0 -2.66,-0.188 -4.48,-0.586 z m -9.62,-32.617 c 3.52,-0.465 6.27,-0.684 8.25,-0.684 5.09,0 9.58,1.535 13.5,4.586 3.94,3.067 5.89,7.215 5.89,12.449 0,4 -1.21,7.133 -3.64,9.383 -2.42,2.25 -6.33,3.367 -11.73,3.367 -1.05,0 -2.32,-0.05 -3.82,-0.152 l -8.45,-28.949" /><path
         id="path24"
         style="fill:#231f20;fill-opacity:1;fill-rule:nonzero;stroke:none"
         d="m 2419.24,997.746 1.67,0.934 c 3.86,-7.348 6.63,-13.864 8.3,-19.532 1.33,-4.418 2,-8.882 2,-13.386 0,-10.496 -2.44,-19.899 -7.28,-28.164 -5.99,-10.184 -15.64,-20.098 -28.96,-29.735 l -1.16,1.516 c 6.01,4.484 10.93,9.484 14.73,14.984 4.77,6.899 8.65,15.25 11.69,25.035 3.01,9.766 4.53,18.668 4.53,26.684 0,6.117 -1.84,13.332 -5.52,21.664" /><path
         id="path26"
         style="fill:#ffffff;fill-opacity:1;fill-rule:evenodd;stroke:none"
         d="m 2301.27,4.65625 h 866.129 v 896.02 H 2301.27 Z" /><path
         id="path28"
         style="fill:none;stroke:#0b0c0b;stroke-width:2.16000009;stroke-linecap:butt;stroke-linejoin:miter;stroke-miterlimit:2.61310005;stroke-dasharray:none;stroke-opacity:1"
         d="m 2301.27,4.65625 h 866.129 v 896.02 H 2301.27 Z" /><path
         id="path30"
         style="fill:none;stroke:#101211;stroke-width:2.16000009;stroke-linecap:butt;stroke-linejoin:miter;stroke-miterlimit:2.61310005;stroke-dasharray:none;stroke-opacity:1"
         d="M 2387.88,4.65625 V 900.676" /><path
         id="path32"
         style="fill:none;stroke:#101211;stroke-width:2.16000009;stroke-linecap:butt;stroke-linejoin:miter;stroke-miterlimit:2.61310005;stroke-dasharray:none;stroke-opacity:1"
         d="M 2474.49,4.65625 V 900.676" /><path
         id="path34"
         style="fill:none;stroke:#101211;stroke-width:2.16000009;stroke-linecap:butt;stroke-linejoin:miter;stroke-miterlimit:2.61310005;stroke-dasharray:none;stroke-opacity:1"
         d="M 2561.1,4.65625 V 900.676" /><path
         id="path36"
         style="fill:none;stroke:#101211;stroke-width:2.16000009;stroke-linecap:butt;stroke-linejoin:miter;stroke-miterlimit:2.61310005;stroke-dasharray:none;stroke-opacity:1"
         d="M 2647.72,4.65625 V 900.676" /><path
         id="path38"
         style="fill:none;stroke:#101211;stroke-width:2.16000009;stroke-linecap:butt;stroke-linejoin:miter;stroke-miterlimit:2.61310005;stroke-dasharray:none;stroke-opacity:1"
         d="M 2734.32,4.65625 V 900.676" /><path
         id="path40"
         style="fill:none;stroke:#101211;stroke-width:2.16000009;stroke-linecap:butt;stroke-linejoin:miter;stroke-miterlimit:2.61310005;stroke-dasharray:none;stroke-opacity:1"
         d="M 2820.93,4.65625 V 900.676" /><path
         id="path42"
         style="fill:none;stroke:#101211;stroke-width:2.16000009;stroke-linecap:butt;stroke-linejoin:miter;stroke-miterlimit:2.61310005;stroke-dasharray:none;stroke-opacity:1"
         d="M 2907.55,4.65625 V 900.676" /><path
         id="path44"
         style="fill:none;stroke:#101211;stroke-width:2.16000009;stroke-linecap:butt;stroke-linejoin:miter;stroke-miterlimit:2.61310005;stroke-dasharray:none;stroke-opacity:1"
         d="M 2994.16,4.65625 V 900.676" /><path
         id="path46"
         style="fill:none;stroke:#101211;stroke-width:2.16000009;stroke-linecap:butt;stroke-linejoin:miter;stroke-miterlimit:2.61310005;stroke-dasharray:none;stroke-opacity:1"
         d="M 3080.78,4.65625 V 900.676" /><path
         id="path48"
         style="fill:none;stroke:#101211;stroke-width:2.16000009;stroke-linecap:butt;stroke-linejoin:miter;stroke-miterlimit:2.61310005;stroke-dasharray:none;stroke-opacity:1"
         d="m 2301.27,94.2539 h 866.12" /><path
         id="path50"
         style="fill:none;stroke:#101211;stroke-width:2.16000009;stroke-linecap:butt;stroke-linejoin:miter;stroke-miterlimit:2.61310005;stroke-dasharray:none;stroke-opacity:1"
         d="m 2301.27,183.863 h 866.12" /><path
         id="path52"
         style="fill:none;stroke:#101211;stroke-width:2.16000009;stroke-linecap:butt;stroke-linejoin:miter;stroke-miterlimit:2.61310005;stroke-dasharray:none;stroke-opacity:1"
         d="m 2301.27,273.457 h 866.12" /><path
         id="path54"
         style="fill:none;stroke:#101211;stroke-width:2.16000009;stroke-linecap:butt;stroke-linejoin:miter;stroke-miterlimit:2.61310005;stroke-dasharray:none;stroke-opacity:1"
         d="m 2301.27,363.059 h 866.12" /><path
         id="path56"
         style="fill:none;stroke:#101211;stroke-width:2.16000009;stroke-linecap:butt;stroke-linejoin:miter;stroke-miterlimit:2.61310005;stroke-dasharray:none;stroke-opacity:1"
         d="m 2301.27,452.664 h 866.12" /><path
         id="path58"
         style="fill:none;stroke:#101211;stroke-width:2.16000009;stroke-linecap:butt;stroke-linejoin:miter;stroke-miterlimit:2.61310005;stroke-dasharray:none;stroke-opacity:1"
         d="m 2301.27,542.27 h 866.12" /><path
         id="path60"
         style="fill:none;stroke:#101211;stroke-width:2.16000009;stroke-linecap:butt;stroke-linejoin:miter;stroke-miterlimit:2.61310005;stroke-dasharray:none;stroke-opacity:1"
         d="m 2301.27,631.879 h 866.12" /><path
         id="path62"
         style="fill:none;stroke:#101211;stroke-width:2.16000009;stroke-linecap:butt;stroke-linejoin:miter;stroke-miterlimit:2.61310005;stroke-dasharray:none;stroke-opacity:1"
         d="m 2301.27,721.465 h 866.12" /><path
         id="path64"
         style="fill:none;stroke:#101211;stroke-width:2.16000009;stroke-linecap:butt;stroke-linejoin:miter;stroke-miterlimit:2.61310005;stroke-dasharray:none;stroke-opacity:1"
         d="m 2301.27,811.07 h 866.12" /><path
         id="path66"
         style="fill:none;stroke:#231f20;stroke-width:7.5005002;stroke-linecap:butt;stroke-linejoin:miter;stroke-miterlimit:2.61310005;stroke-dasharray:none;stroke-opacity:1"
         d="m 2301.27,452.664 h 822.38" /><path
         id="path68"
         style="fill:#231f20;fill-opacity:1;fill-rule:evenodd;stroke:none"
         d="m 3119.5,479.012 47.89,-26.348 -47.89,-26.348 v 52.696" /><path
         id="path70"
         style="fill:none;stroke:#231f20;stroke-width:7.5005002;stroke-linecap:butt;stroke-linejoin:miter;stroke-miterlimit:2.61310005;stroke-dasharray:none;stroke-opacity:1"
         d="M 2733.63,6.16016 V 858.434" /><path
         id="path72"
         style="fill:#231f20;fill-opacity:1;fill-rule:evenodd;stroke:none"
         d="m 2707.29,854.281 26.34,47.899 26.35,-47.899 h -52.69" /><path
         id="path74"
         style="fill:none;stroke:#0b0c0b;stroke-width:7.5005002;stroke-linecap:butt;stroke-linejoin:miter;stroke-miterlimit:2.61310005;stroke-dasharray:none;stroke-opacity:1"
         d="m 2301.27,676.672 4.33,-2.242 4.33,-2.235 4.34,-2.25 4.32,-2.226 4.32,-2.246 4.34,-2.243 4.33,-2.246 4.33,-2.234 4.34,-2.238 4.32,-2.242 4.33,-2.239 4.33,-2.246 4.34,-2.234 4.33,-2.239 4.32,-2.246 4.33,-2.238 4.34,-2.238 4.33,-2.246 4.33,-2.235 4.33,-2.23 4.32,-2.258 4.35,-2.23 4.32,-2.239 4.33,-2.246 4.33,-2.238 4.33,-2.242 4.33,-2.235 4.34,-2.238 4.33,-2.246 4.32,-2.234 4.34,-2.246 4.33,-2.235 4.32,-2.242 4.34,-2.242 4.32,-2.238 4.34,-2.239 4.32,-2.242 4.33,-2.242 4.34,-2.242 4.33,-2.239 4.33,-2.234 4.34,-2.238 4.33,-2.25 4.33,-2.235 4.32,-2.238 4.34,-2.246 4.32,-2.242 4.34,-2.235 4.32,-2.242 4.34,-2.234 4.33,-2.246 4.33,-2.238 4.33,-2.239 4.33,-2.246 4.33,-2.238 4.32,-2.242 4.34,-2.231 4.34,-2.25 4.32,-2.23 4.33,-2.242 4.33,-2.25 4.34,-2.235 4.33,-2.238 4.33,-2.246 4.33,-2.235 4.34,-2.242 4.32,-2.246 4.32,-2.234 4.34,-2.242 4.33,-2.235 4.33,-2.242 4.33,-2.242 4.34,-2.235 4.33,-2.238 4.32,-2.242 4.32,-2.238 4.34,-2.239 4.33,-2.246 4.34,-2.242 4.33,-2.226 4.32,-2.254 4.34,-2.243 4.32,-2.238 4.34,-2.234 4.33,-2.238 4.33,-2.247 4.33,-2.242 4.33,-2.238 4.34,-2.234 4.32,-2.235 4.33,-2.25 4.33,-2.238 4.33,-2.238 4.34,-2.246 4.33,-2.235 4.32,-2.234 4.34,-2.254 4.33,-2.231 4.32,-2.242 4.33,-2.242 4.34,-2.238 4.33,-2.242 4.32,-2.235 4.35,-2.254 4.32,-2.23 4.33,-2.235 4.33,-2.246 4.33,-2.238 4.33,-2.242 4.34,-2.25 4.32,-2.234 4.34,-2.235 4.33,-2.234 4.33,-2.246 4.33,-2.246 4.32,-2.235 4.34,-2.238 4.32,-2.238 4.34,-2.243 4.32,-2.25 4.34,-2.226 4.33,-2.242 4.33,-2.246 4.33,-2.235 4.34,-2.246 4.33,-2.238 4.32,-2.238 4.33,-2.239 4.34,-2.238 4.32,-2.242 4.34,-2.242 4.33,-2.243 4.33,-2.23 4.33,-2.246 4.33,-2.238 4.33,-2.231 4.32,-2.254 4.34,-2.238 4.32,-2.234 4.34,-2.25 4.33,-2.239 4.33,-2.23 4.34,-2.25 4.32,-2.235 4.33,-2.242 4.34,-2.238 4.32,-2.238 4.34,-2.246 4.32,-2.235 4.35,-2.246 4.32,-2.238 4.33,-2.242 4.33,-2.231 4.34,-2.242 4.33,-2.246 4.33,-2.242 4.32,-2.231 4.33,-2.25 4.34,-2.238 4.32,-2.238 4.34,-2.235 4.33,-2.246 4.33,-2.238 4.33,-2.242 4.33,-2.239 4.32,-2.23 4.34,-2.246 4.32,-2.246 4.33,-2.238 4.34,-2.243 4.33,-2.238 4.33,-2.246 4.33,-2.234 4.34,-2.239 4.32,-2.242 4.34,-2.234 4.32,-2.25 4.34,-2.235 4.33,-2.23 4.33,-2.254 4.34,-2.238 4.32,-2.235 4.33,-2.242 4.34,-2.242 4.32,-2.242 4.34,-2.242 4.31,-2.239 4.34,-2.234 4.33,-2.246 4.33,-2.238 4.33,-2.239 4.34,-2.238 4.32,-2.238 4.33,-2.239 4.34,-2.25 4.33,-2.23 4.32,-2.242 4.34,-2.246 4.33,-2.235 4.33,-2.246" /><path
         id="path76"
         style="fill:#ffffff;fill-opacity:1;fill-rule:evenodd;stroke:none"
         d="m 1149.27,4.65625 h 866.129 v 896.02 H 1149.27 Z" /><path
         id="path78"
         style="fill:none;stroke:#0b0c0b;stroke-width:2.16000009;stroke-linecap:butt;stroke-linejoin:miter;stroke-miterlimit:2.61310005;stroke-dasharray:none;stroke-opacity:1"
         d="m 1149.27,4.65625 h 866.129 v 896.02 H 1149.27 Z" /><path
         id="path80"
         style="fill:none;stroke:#101211;stroke-width:2.16000009;stroke-linecap:butt;stroke-linejoin:miter;stroke-miterlimit:2.61310005;stroke-dasharray:none;stroke-opacity:1"
         d="M 1235.88,4.65625 V 900.676" /><path
         id="path82"
         style="fill:none;stroke:#101211;stroke-width:2.16000009;stroke-linecap:butt;stroke-linejoin:miter;stroke-miterlimit:2.61310005;stroke-dasharray:none;stroke-opacity:1"
         d="M 1322.49,4.65625 V 900.676" /><path
         id="path84"
         style="fill:none;stroke:#101211;stroke-width:2.16000009;stroke-linecap:butt;stroke-linejoin:miter;stroke-miterlimit:2.61310005;stroke-dasharray:none;stroke-opacity:1"
         d="M 1409.1,4.65625 V 900.676" /><path
         id="path86"
         style="fill:none;stroke:#101211;stroke-width:2.16000009;stroke-linecap:butt;stroke-linejoin:miter;stroke-miterlimit:2.61310005;stroke-dasharray:none;stroke-opacity:1"
         d="M 1495.72,4.65625 V 900.676" /><path
         id="path88"
         style="fill:none;stroke:#101211;stroke-width:2.16000009;stroke-linecap:butt;stroke-linejoin:miter;stroke-miterlimit:2.61310005;stroke-dasharray:none;stroke-opacity:1"
         d="M 1668.93,4.65625 V 900.676" /><path
         id="path90"
         style="fill:none;stroke:#101211;stroke-width:2.16000009;stroke-linecap:butt;stroke-linejoin:miter;stroke-miterlimit:2.61310005;stroke-dasharray:none;stroke-opacity:1"
         d="M 1755.55,4.65625 V 900.676" /><path
         id="path92"
         style="fill:none;stroke:#101211;stroke-width:2.16000009;stroke-linecap:butt;stroke-linejoin:miter;stroke-miterlimit:2.61310005;stroke-dasharray:none;stroke-opacity:1"
         d="M 1842.16,4.65625 V 900.676" /><path
         id="path94"
         style="fill:none;stroke:#101211;stroke-width:2.16000009;stroke-linecap:butt;stroke-linejoin:miter;stroke-miterlimit:2.61310005;stroke-dasharray:none;stroke-opacity:1"
         d="M 1928.78,4.65625 V 900.676" /><path
         id="path96"
         style="fill:none;stroke:#101211;stroke-width:2.16000009;stroke-linecap:butt;stroke-linejoin:miter;stroke-miterlimit:2.61310005;stroke-dasharray:none;stroke-opacity:1"
         d="m 1149.27,94.2539 h 866.12" /><path
         id="path98"
         style="fill:none;stroke:#101211;stroke-width:2.16000009;stroke-linecap:butt;stroke-linejoin:miter;stroke-miterlimit:2.61310005;stroke-dasharray:none;stroke-opacity:1"
         d="m 1149.27,183.863 h 866.12" /><path
         id="path100"
         style="fill:none;stroke:#101211;stroke-width:2.16000009;stroke-linecap:butt;stroke-linejoin:miter;stroke-miterlimit:2.61310005;stroke-dasharray:none;stroke-opacity:1"
         d="m 1149.27,273.457 h 866.12" /><path
         id="path102"
         style="fill:none;stroke:#101211;stroke-width:2.16000009;stroke-linecap:butt;stroke-linejoin:miter;stroke-miterlimit:2.61310005;stroke-dasharray:none;stroke-opacity:1"
         d="m 1149.27,363.059 h 866.12" /><path
         id="path104"
         style="fill:none;stroke:#101211;stroke-width:2.16000009;stroke-linecap:butt;stroke-linejoin:miter;stroke-miterlimit:2.61310005;stroke-dasharray:none;stroke-opacity:1"
         d="m 1149.27,452.664 h 866.12" /><path
         id="path106"
         style="fill:none;stroke:#101211;stroke-width:2.16000009;stroke-linecap:butt;stroke-linejoin:miter;stroke-miterlimit:2.61310005;stroke-dasharray:none;stroke-opacity:1"
         d="m 1149.27,542.27 h 866.12" /><path
         id="path108"
         style="fill:none;stroke:#101211;stroke-width:2.16000009;stroke-linecap:butt;stroke-linejoin:miter;stroke-miterlimit:2.61310005;stroke-dasharray:none;stroke-opacity:1"
         d="m 1149.27,631.879 h 866.12" /><path
         id="path110"
         style="fill:none;stroke:#101211;stroke-width:2.16000009;stroke-linecap:butt;stroke-linejoin:miter;stroke-miterlimit:2.61310005;stroke-dasharray:none;stroke-opacity:1"
         d="m 1149.27,721.465 h 866.12" /><path
         id="path112"
         style="fill:none;stroke:#101211;stroke-width:2.16000009;stroke-linecap:butt;stroke-linejoin:miter;stroke-miterlimit:2.61310005;stroke-dasharray:none;stroke-opacity:1"
         d="m 1149.27,811.07 h 866.12" /><path
         id="path114"
         style="fill:none;stroke:#231f20;stroke-width:7.5005002;stroke-linecap:butt;stroke-linejoin:miter;stroke-miterlimit:2.61310005;stroke-dasharray:none;stroke-opacity:1"
         d="m 1149.27,452.664 h 822.38" /><path
         id="path116"
         style="fill:#231f20;fill-opacity:1;fill-rule:evenodd;stroke:none"
         d="m 1967.49,479.012 47.9,-26.348 -47.9,-26.348 v 52.696" /><path
         id="path118"
         style="fill:none;stroke:#0b0c0b;stroke-width:7.5005002;stroke-linecap:butt;stroke-linejoin:miter;stroke-miterlimit:2.61310005;stroke-dasharray:none;stroke-opacity:1"
         d="m 1149.27,488.508 4.33,0.367 4.33,0.367 4.34,0.371 4.32,0.391 4.32,0.391 4.34,0.398 4.33,0.414 4.33,0.422 4.34,0.422 4.32,0.437 4.33,0.442 4.33,0.461 4.34,0.468 4.33,0.481 4.32,0.488 4.33,0.496 4.34,0.52 4.33,0.527 4.33,0.547 4.33,0.559 4.32,0.558 4.35,0.578 4.32,0.594 4.33,0.613 4.33,0.633 4.33,0.641 4.32,0.672 4.35,0.679 4.33,0.7 4.32,0.726 4.34,0.731 4.33,0.773 4.32,0.785 4.34,0.813 4.32,0.836 4.34,0.859 4.32,0.887 4.33,0.914 4.34,0.957 4.33,0.972 4.33,1.016 4.34,1.051 4.33,1.078 4.33,1.125 4.32,1.164 4.34,1.215 4.32,1.242 4.34,1.297 4.32,1.359 4.34,1.399 4.33,1.465 4.33,1.523 4.33,1.59 4.33,1.656 4.33,1.734 4.32,1.805 4.34,1.899 4.34,1.984 4.32,2.082 4.33,2.188 4.33,2.3 4.34,2.414 4.33,2.551 4.33,2.692 4.33,2.839 4.34,3.012 4.32,3.192 4.32,3.402 4.34,3.605 4.33,3.856 4.33,4.125 4.33,4.41 4.34,4.746 4.33,5.098 4.32,5.519 4.32,5.969 4.34,6.488 4.33,7.094 4.34,7.758 4.33,8.539 4.32,9.422 4.34,10.48 4.32,11.715 4.34,13.176 4.33,14.937 4.33,17.063 4.33,19.695 4.33,22.977 4.34,27.148 4.32,32.578 4.33,39.828 4.33,49.778 v 0" /><path
         id="path120"
         style="fill:none;stroke:#0b0c0b;stroke-width:7.5005002;stroke-linecap:butt;stroke-linejoin:miter;stroke-miterlimit:2.61310005;stroke-dasharray:none;stroke-opacity:1"
         d="M 1578,856.93 V 4.65625" /><path
         id="path122"
         style="fill:#0b0c0b;fill-opacity:1;fill-rule:evenodd;stroke:none"
         d="m 1604.35,852.773 -26.35,47.903 -26.35,-47.903 h 52.7" /><path
         id="path124"
         style="fill:none;stroke:#0b0c0b;stroke-width:7.5005002;stroke-linecap:butt;stroke-linejoin:miter;stroke-miterlimit:2.61310005;stroke-dasharray:none;stroke-opacity:1"
         d="m 1616.97,4.65625 v 0 l 4.33,49.77345 4.34,39.8242 4.32,32.5941 4.34,27.14 4.33,22.977 4.33,19.699 4.33,17.07 4.32,14.922 4.34,13.176 4.32,11.715 4.34,10.48 4.32,9.43 4.34,8.535 4.33,7.758 4.33,7.086 4.33,6.496 4.34,5.969 4.33,5.519 4.32,5.094 4.33,4.754 4.34,4.402 4.32,4.129 4.34,3.852 4.33,3.609 4.33,3.383 4.33,3.207 4.33,3.012 4.33,2.843 4.32,2.692 4.34,2.547 4.32,2.418 4.34,2.297 4.33,2.187 4.33,2.078 4.34,1.992 4.32,1.899 4.33,1.801 4.34,1.738 4.32,1.652 4.34,1.59 4.32,1.524 4.35,1.46 4.32,1.407 4.33,1.355 4.33,1.301 4.34,1.246 4.33,1.211 4.33,1.16 4.32,1.125 4.33,1.082 4.34,1.059 4.32,1.008 4.34,0.968 4.33,0.946 4.33,0.929 4.33,0.883 4.33,0.863 4.32,0.836 4.34,0.809 4.32,0.785 4.33,0.777 4.34,0.735 4.33,0.719 4.33,0.699 4.33,0.679 4.34,0.68 4.32,0.637 4.34,0.629 4.32,0.613 4.34,0.594 4.33,0.582 4.33,0.558 4.34,0.555 4.32,0.547 4.33,0.52 4.34,0.523 4.32,0.504 4.33,0.488 4.32,0.473 4.34,0.476 4.33,0.457 4.33,0.442 4.33,0.437 4.34,0.422 4.32,0.422 4.33,0.414 4.34,0.403 4.33,0.39 4.32,0.391 4.34,0.371 4.33,0.371 4.33,0.363" /><path
         id="path126"
         style="fill:#ffffff;fill-opacity:1;fill-rule:evenodd;stroke:none"
         d="m 69.2656,4.65625 h 866.129 v 896.02 H 69.2656 Z" /><path
         id="path128"
         style="fill:none;stroke:#0b0c0b;stroke-width:2.16000009;stroke-linecap:butt;stroke-linejoin:miter;stroke-miterlimit:2.61310005;stroke-dasharray:none;stroke-opacity:1"
         d="m 69.2656,4.65625 h 866.129 v 896.02 H 69.2656 Z" /><path
         id="path130"
         style="fill:none;stroke:#101211;stroke-width:2.16000009;stroke-linecap:butt;stroke-linejoin:miter;stroke-miterlimit:2.61310005;stroke-dasharray:none;stroke-opacity:1"
         d="M 155.879,4.65625 V 900.676" /><path
         id="path132"
         style="fill:none;stroke:#101211;stroke-width:2.16000009;stroke-linecap:butt;stroke-linejoin:miter;stroke-miterlimit:2.61310005;stroke-dasharray:none;stroke-opacity:1"
         d="M 242.492,4.65625 V 900.676" /><path
         id="path134"
         style="fill:none;stroke:#101211;stroke-width:2.16000009;stroke-linecap:butt;stroke-linejoin:miter;stroke-miterlimit:2.61310005;stroke-dasharray:none;stroke-opacity:1"
         d="M 329.102,4.65625 V 900.676" /><path
         id="path136"
         style="fill:none;stroke:#101211;stroke-width:2.16000009;stroke-linecap:butt;stroke-linejoin:miter;stroke-miterlimit:2.61310005;stroke-dasharray:none;stroke-opacity:1"
         d="M 415.719,4.65625 V 900.676" /><path
         id="path138"
         style="fill:none;stroke:#101211;stroke-width:2.16000009;stroke-linecap:butt;stroke-linejoin:miter;stroke-miterlimit:2.61310005;stroke-dasharray:none;stroke-opacity:1"
         d="M 502.324,4.65625 V 900.676" /><path
         id="path140"
         style="fill:none;stroke:#101211;stroke-width:2.16000009;stroke-linecap:butt;stroke-linejoin:miter;stroke-miterlimit:2.61310005;stroke-dasharray:none;stroke-opacity:1"
         d="M 588.934,4.65625 V 900.676" /><path
         id="path142"
         style="fill:none;stroke:#101211;stroke-width:2.16000009;stroke-linecap:butt;stroke-linejoin:miter;stroke-miterlimit:2.61310005;stroke-dasharray:none;stroke-opacity:1"
         d="M 675.555,4.65625 V 900.676" /><path
         id="path144"
         style="fill:none;stroke:#101211;stroke-width:2.16000009;stroke-linecap:butt;stroke-linejoin:miter;stroke-miterlimit:2.61310005;stroke-dasharray:none;stroke-opacity:1"
         d="M 762.164,4.65625 V 900.676" /><path
         id="path146"
         style="fill:none;stroke:#101211;stroke-width:2.16000009;stroke-linecap:butt;stroke-linejoin:miter;stroke-miterlimit:2.61310005;stroke-dasharray:none;stroke-opacity:1"
         d="M 848.777,4.65625 V 900.676" /><path
         id="path148"
         style="fill:none;stroke:#101211;stroke-width:2.16000009;stroke-linecap:butt;stroke-linejoin:miter;stroke-miterlimit:2.61310005;stroke-dasharray:none;stroke-opacity:1"
         d="M 69.2656,94.2539 H 935.395" /><path
         id="path150"
         style="fill:none;stroke:#101211;stroke-width:2.16000009;stroke-linecap:butt;stroke-linejoin:miter;stroke-miterlimit:2.61310005;stroke-dasharray:none;stroke-opacity:1"
         d="M 69.2656,183.863 H 935.395" /><path
         id="path152"
         style="fill:none;stroke:#101211;stroke-width:2.16000009;stroke-linecap:butt;stroke-linejoin:miter;stroke-miterlimit:2.61310005;stroke-dasharray:none;stroke-opacity:1"
         d="M 69.2656,273.457 H 935.395" /><path
         id="path154"
         style="fill:none;stroke:#101211;stroke-width:2.16000009;stroke-linecap:butt;stroke-linejoin:miter;stroke-miterlimit:2.61310005;stroke-dasharray:none;stroke-opacity:1"
         d="M 69.2656,363.059 H 935.395" /><path
         id="path156"
         style="fill:none;stroke:#101211;stroke-width:2.16000009;stroke-linecap:butt;stroke-linejoin:miter;stroke-miterlimit:2.61310005;stroke-dasharray:none;stroke-opacity:1"
         d="M 69.2656,452.664 H 935.395" /><path
         id="path158"
         style="fill:none;stroke:#101211;stroke-width:2.16000009;stroke-linecap:butt;stroke-linejoin:miter;stroke-miterlimit:2.61310005;stroke-dasharray:none;stroke-opacity:1"
         d="M 69.2656,542.27 H 935.395" /><path
         id="path160"
         style="fill:none;stroke:#101211;stroke-width:2.16000009;stroke-linecap:butt;stroke-linejoin:miter;stroke-miterlimit:2.61310005;stroke-dasharray:none;stroke-opacity:1"
         d="M 69.2656,631.879 H 935.395" /><path
         id="path162"
         style="fill:none;stroke:#101211;stroke-width:2.16000009;stroke-linecap:butt;stroke-linejoin:miter;stroke-miterlimit:2.61310005;stroke-dasharray:none;stroke-opacity:1"
         d="M 69.2656,721.465 H 935.395" /><path
         id="path164"
         style="fill:none;stroke:#101211;stroke-width:2.16000009;stroke-linecap:butt;stroke-linejoin:miter;stroke-miterlimit:2.61310005;stroke-dasharray:none;stroke-opacity:1"
         d="M 69.2656,811.07 H 935.395" /><path
         id="path166"
         style="fill:none;stroke:#231f20;stroke-width:7.5005002;stroke-linecap:butt;stroke-linejoin:miter;stroke-miterlimit:2.61310005;stroke-dasharray:none;stroke-opacity:1"
         d="M 69.2656,452.664 H 891.648" /><path
         id="path168"
         style="fill:#231f20;fill-opacity:1;fill-rule:evenodd;stroke:none"
         d="m 887.492,479.012 47.903,-26.348 -47.903,-26.348 v 52.696" /><path
         id="path170"
         style="fill:none;stroke:#231f20;stroke-width:7.5005002;stroke-linecap:butt;stroke-linejoin:miter;stroke-miterlimit:2.61310005;stroke-dasharray:none;stroke-opacity:1"
         d="M 503.242,0.140625 V 852.414" /><path
         id="path172"
         style="fill:#231f20;fill-opacity:1;fill-rule:evenodd;stroke:none"
         d="m 476.895,848.258 26.347,47.902 26.348,-47.902 h -52.695" /><path
         id="path174"
         style="fill:none;stroke:#0b0c0b;stroke-width:7.5005002;stroke-linecap:butt;stroke-linejoin:miter;stroke-miterlimit:2.61310005;stroke-dasharray:none;stroke-opacity:1"
         d="m 308.668,4.65625 3.105,14.33985 4.332,19.4805 4.344,19.0507 4.324,18.5821 4.329,18.1445 4.328,17.6991 4.34,17.246 4.328,16.801 4.328,16.352 4.332,15.91 4.34,15.457 4.32,15.004 4.32,14.566 4.344,14.106 4.324,13.664 4.336,13.226 4.328,12.77 4.336,12.304 4.332,11.879 4.324,11.426 4.321,10.981 4.336,10.519 4.336,10.082 4.332,9.637 4.332,9.176 4.324,8.738 4.34,8.289 4.32,7.836 4.336,7.394 4.332,6.954 4.324,6.496 4.332,6.039 4.332,5.597 4.336,5.164 4.328,4.688 4.329,4.266 4.332,3.812 4.328,3.363 4.336,2.907 4.328,2.464 4.328,2.02 4.328,1.57 4.336,1.11 4.32,0.672 4.336,0.226 4.336,-0.226 4.328,-0.672 4.324,-1.11 4.348,-1.57 4.32,-2.02 4.332,-2.464 4.325,-2.907 4.336,-3.363 4.332,-3.812 4.332,-4.266 4.324,-4.688 4.336,-5.164 4.332,-5.597 4.332,-6.039 4.328,-6.496 4.324,-6.954 4.332,-7.394 4.328,-7.836 4.332,-8.289 4.329,-8.738 4.339,-9.176 4.329,-9.637 4.332,-10.082 4.328,-10.519 4.336,-10.981 4.332,-11.426 4.32,-11.879 4.332,-12.304 4.336,-12.77 4.324,-13.226 4.336,-13.664 4.332,-14.106 4.328,-14.566 4.328,-15.004 4.336,-15.457 4.328,-15.91 4.325,-16.352 4.336,-16.801 4.324,-17.246 4.34,-17.6991 4.32,-18.1445 4.34,-18.5821 4.336,-19.0507 4.32,-19.4805 3.113,-14.33985" /><path
         id="path176"
         style="fill:#231f20;fill-opacity:1;fill-rule:nonzero;stroke:none"
         d="m 444.309,889.031 c 1.097,-1.883 1.863,-3.648 2.296,-5.281 0.418,-1.652 0.836,-4.887 1.27,-9.703 l 2.148,-24.012 c 1.95,2.332 4.786,6.047 8.5,11.129 1.782,2.469 4,5.836 6.633,10.102 1.602,2.597 2.571,4.433 2.934,5.468 0.183,0.516 0.285,1.063 0.285,1.614 0,0.351 -0.102,0.648 -0.336,0.886 -0.23,0.215 -0.816,0.481 -1.781,0.797 -0.969,0.301 -1.766,0.887 -2.399,1.703 -0.636,0.832 -0.953,1.782 -0.953,2.864 0,1.332 0.403,2.402 1.184,3.218 0.765,0.817 1.75,1.215 2.918,1.215 1.43,0 2.648,-0.582 3.664,-1.781 1.019,-1.188 1.516,-2.82 1.516,-4.902 0,-2.567 -0.879,-5.516 -2.633,-8.817 -1.766,-3.297 -5.145,-8.367 -10.164,-15.199 -5,-6.852 -11.082,-14.301 -18.2,-22.367 -4.918,-5.567 -8.566,-9.082 -10.953,-10.531 -2.363,-1.434 -4.398,-2.168 -6.097,-2.168 -1.016,0 -1.899,0.382 -2.664,1.152 -0.77,0.766 -1.137,1.648 -1.137,2.664 0,1.266 0.519,2.418 1.582,3.465 1.055,1.035 2.199,1.551 3.437,1.551 0.649,0 1.2,-0.133 1.614,-0.434 0.269,-0.164 0.55,-0.629 0.851,-1.398 0.317,-0.75 0.598,-1.266 0.864,-1.536 0.152,-0.164 0.351,-0.23 0.585,-0.23 0.184,0 0.532,0.148 1.016,0.484 1.801,1.098 3.887,2.868 6.254,5.266 3.129,3.199 5.434,5.801 6.934,7.816 l -2.739,30.95 c -0.445,5.117 -1.129,8.234 -2.047,9.332 -0.918,1.101 -2.433,1.668 -4.586,1.668 -0.683,0 -1.914,-0.102 -3.664,-0.301 l -0.433,1.801 14.301,3.515" /><path
         id="path178"
         style="fill:#231f20;fill-opacity:1;fill-rule:nonzero;stroke:none"
         d="m 1639.94,885.277 c 1.1,-1.879 1.87,-3.648 2.3,-5.281 0.42,-1.652 0.83,-4.883 1.27,-9.699 l 2.15,-24.016 c 1.95,2.332 4.78,6.047 8.5,11.133 1.78,2.465 4,5.832 6.63,10.098 1.6,2.597 2.57,4.433 2.93,5.468 0.19,0.516 0.29,1.067 0.29,1.614 0,0.351 -0.1,0.652 -0.34,0.886 -0.23,0.215 -0.81,0.481 -1.78,0.797 -0.97,0.301 -1.77,0.887 -2.4,1.703 -0.63,0.832 -0.95,1.782 -0.95,2.868 0,1.332 0.4,2.398 1.18,3.214 0.77,0.817 1.75,1.215 2.92,1.215 1.43,0 2.65,-0.582 3.66,-1.781 1.02,-1.184 1.52,-2.816 1.52,-4.902 0,-2.563 -0.88,-5.516 -2.63,-8.813 -1.77,-3.301 -5.15,-8.371 -10.17,-15.199 -5,-6.852 -11.08,-14.301 -18.2,-22.371 -4.91,-5.566 -8.56,-9.082 -10.94,-10.531 -2.37,-1.434 -4.41,-2.168 -6.11,-2.168 -1.01,0 -1.89,0.383 -2.66,1.152 -0.77,0.766 -1.13,1.648 -1.13,2.664 0,1.27 0.51,2.418 1.58,3.469 1.05,1.035 2.2,1.551 3.43,1.551 0.65,0 1.2,-0.133 1.62,-0.434 0.27,-0.168 0.55,-0.633 0.85,-1.402 0.31,-0.746 0.6,-1.266 0.86,-1.532 0.15,-0.168 0.36,-0.234 0.59,-0.234 0.18,0 0.53,0.149 1.02,0.484 1.8,1.102 3.88,2.868 6.25,5.266 3.13,3.199 5.43,5.801 6.93,7.816 l -2.73,30.95 c -0.45,5.117 -1.14,8.234 -2.06,9.332 -0.91,1.101 -2.43,1.668 -4.58,1.668 -0.68,0 -1.92,-0.098 -3.67,-0.301 l -0.43,1.801 14.3,3.515" /><path
         id="path180"
         style="fill:#231f20;fill-opacity:1;fill-rule:nonzero;stroke:none"
         d="m 2675.92,876.227 c 1.1,-1.883 1.87,-3.653 2.3,-5.286 0.42,-1.648 0.83,-4.882 1.27,-9.699 l 2.15,-24.015 c 1.95,2.332 4.78,6.05 8.5,11.132 1.78,2.465 4,5.832 6.63,10.098 1.6,2.602 2.57,4.434 2.93,5.469 0.19,0.515 0.29,1.066 0.29,1.617 0,0.352 -0.1,0.648 -0.34,0.883 -0.23,0.215 -0.81,0.48 -1.78,0.801 -0.97,0.3 -1.76,0.882 -2.4,1.699 -0.63,0.832 -0.95,1.785 -0.95,2.867 0,1.332 0.4,2.398 1.19,3.215 0.76,0.816 1.74,1.219 2.91,1.219 1.43,0 2.65,-0.586 3.67,-1.786 1.01,-1.183 1.51,-2.816 1.51,-4.898 0,-2.566 -0.88,-5.52 -2.63,-8.816 -1.76,-3.301 -5.15,-8.368 -10.17,-15.2 -5,-6.851 -11.08,-14.3 -18.2,-22.367 -4.91,-5.57 -8.56,-9.082 -10.94,-10.535 -2.37,-1.43 -4.4,-2.164 -6.11,-2.164 -1.01,0 -1.89,0.383 -2.66,1.148 -0.77,0.766 -1.13,1.653 -1.13,2.664 0,1.27 0.51,2.418 1.58,3.469 1.05,1.035 2.2,1.551 3.43,1.551 0.65,0 1.2,-0.133 1.62,-0.434 0.27,-0.168 0.55,-0.632 0.85,-1.402 0.31,-0.746 0.6,-1.266 0.86,-1.531 0.15,-0.164 0.36,-0.235 0.59,-0.235 0.18,0 0.53,0.153 1.02,0.485 1.8,1.101 3.88,2.867 6.25,5.269 3.13,3.196 5.43,5.797 6.93,7.813 l -2.73,30.953 c -0.45,5.113 -1.14,8.23 -2.06,9.332 -0.91,1.098 -2.43,1.664 -4.58,1.664 -0.68,0 -1.92,-0.098 -3.67,-0.301 l -0.43,1.801 14.3,3.52" /><path
         id="path182"
         style="fill:#231f20;fill-opacity:1;fill-rule:nonzero;stroke:none"
         d="m 576.93,522.953 16.117,7.863 h 1.617 v -55.914 c 0,-3.703 0.148,-6.019 0.449,-6.933 0.317,-0.903 0.969,-1.602 1.934,-2.102 0.984,-0.484 2.969,-0.765 5.969,-0.832 v -1.801 h -24.918 v 1.801 c 3.132,0.067 5.152,0.336 6.066,0.817 0.902,0.468 1.535,1.101 1.898,1.898 0.352,0.805 0.536,3.184 0.536,7.152 v 35.75 c 0,4.817 -0.168,7.899 -0.485,9.266 -0.23,1.051 -0.648,1.816 -1.25,2.301 -0.601,0.484 -1.316,0.734 -2.164,0.734 -1.203,0 -2.883,-0.504 -5.035,-1.519 l -0.734,1.519" /><path
         id="path184"
         style="fill:#231f20;fill-opacity:1;fill-rule:nonzero;stroke:none"
         d="m 454.527,579.387 16.118,7.867 h 1.617 v -55.918 c 0,-3.699 0.148,-6.016 0.449,-6.934 0.316,-0.898 0.965,-1.601 1.934,-2.097 0.984,-0.485 2.968,-0.766 5.964,-0.836 v -1.797 h -24.914 v 1.797 c 3.133,0.07 5.149,0.336 6.067,0.816 0.902,0.469 1.531,1.102 1.898,1.903 0.352,0.8 0.535,3.179 0.535,7.148 v 35.75 c 0,4.816 -0.168,7.902 -0.484,9.269 -0.231,1.047 -0.649,1.817 -1.25,2.297 -0.602,0.485 -1.316,0.735 -2.164,0.735 -1.203,0 -2.883,-0.5 -5.035,-1.516 l -0.735,1.516" /><path
         id="path186"
         style="fill:#231f20;fill-opacity:1;fill-rule:nonzero;stroke:none"
         d="m 451.566,393.699 c 0,7.551 1.133,14.051 3.414,19.5 2.286,5.453 5.301,9.516 9.086,12.184 2.93,2.117 5.95,3.183 9.082,3.183 5.067,0 9.633,-2.597 13.664,-7.765 5.051,-6.418 7.571,-15.102 7.571,-26.086 0,-7.68 -1.102,-14.199 -3.317,-19.563 -2.218,-5.382 -5.035,-9.285 -8.468,-11.703 -3.434,-2.429 -6.75,-3.633 -9.95,-3.633 -6.3,0 -11.566,3.719 -15.765,11.184 -3.551,6.281 -5.317,13.852 -5.317,22.699 z m 9.567,-1.215 c 0,-9.117 1.117,-16.566 3.367,-22.316 1.848,-4.852 4.633,-7.285 8.301,-7.285 1.765,0 3.582,0.801 5.465,2.367 1.898,1.586 3.332,4.234 4.296,7.934 1.5,5.597 2.254,13.5 2.254,23.683 0,7.547 -0.785,13.852 -2.351,18.899 -1.168,3.75 -2.684,6.398 -4.531,7.968 -1.336,1.067 -2.954,1.598 -4.836,1.598 -2.219,0 -4.184,-0.984 -5.918,-2.965 -2.332,-2.703 -3.93,-6.949 -4.782,-12.75 -0.851,-5.801 -1.265,-11.5 -1.265,-17.133" /><path
         id="path188"
         style="fill:#231f20;fill-opacity:1;fill-rule:nonzero;stroke:none"
         d="m 888.219,415.859 c 1.597,-1.683 2.801,-3.386 3.617,-5.066 0.586,-1.184 1.551,-4.25 2.883,-9.234 l 4.301,6.453 c 1.132,1.547 2.515,3.047 4.148,4.461 1.617,1.418 3.051,2.386 4.285,2.902 0.781,0.332 1.649,0.484 2.598,0.484 1.402,0 2.5,-0.367 3.336,-1.117 0.832,-0.75 1.25,-1.668 1.25,-2.734 0,-1.231 -0.25,-2.082 -0.735,-2.531 -0.918,-0.817 -1.953,-1.235 -3.117,-1.235 -0.683,0 -1.418,0.153 -2.199,0.449 -1.535,0.516 -2.566,0.786 -3.086,0.786 -0.781,0 -1.699,-0.469 -2.781,-1.368 -2.016,-1.699 -4.418,-4.964 -7.219,-9.816 l 4,-16.801 c 0.617,-2.566 1.137,-4.117 1.57,-4.617 0.414,-0.5 0.832,-0.75 1.266,-0.75 0.684,0 1.48,0.367 2.383,1.117 1.801,1.5 3.316,3.449 4.601,5.867 l 1.7,-0.882 c -2.051,-3.848 -4.649,-7.032 -7.817,-9.567 -1.781,-1.433 -3.301,-2.152 -4.535,-2.152 -1.816,0 -3.266,1.019 -4.348,3.066 -0.683,1.27 -2.101,6.754 -4.254,16.418 -5.062,-8.832 -9.132,-14.5 -12.195,-17.051 -1.984,-1.613 -3.902,-2.433 -5.769,-2.433 -1.297,0 -2.485,0.469 -3.567,1.418 -0.765,0.719 -1.168,1.668 -1.168,2.883 0,1.066 0.371,1.968 1.086,2.683 0.699,0.719 1.582,1.067 2.633,1.067 1.031,0 2.148,-0.516 3.316,-1.567 0.848,-0.75 1.5,-1.117 1.953,-1.117 0.399,0 0.899,0.27 1.516,0.785 1.531,1.231 3.613,3.899 6.246,8 2.633,4.102 4.367,7.067 5.184,8.899 -2.031,7.902 -3.113,12.086 -3.281,12.535 -0.75,2.113 -1.719,3.613 -2.934,4.5 -1.199,0.883 -2.969,1.316 -5.316,1.316 -0.75,0 -1.618,-0.035 -2.582,-0.101 v 1.765 l 13.031,2.285" /><path
         id="path190"
         style="fill:#231f20;fill-opacity:1;fill-rule:nonzero;stroke:none"
         d="m 1653.4,426.793 16.12,7.863 h 1.62 v -55.914 c 0,-3.703 0.15,-6.015 0.45,-6.933 0.32,-0.903 0.96,-1.602 1.93,-2.102 0.98,-0.484 2.97,-0.762 5.97,-0.832 v -1.801 h -24.92 v 1.801 c 3.13,0.07 5.15,0.336 6.07,0.816 0.9,0.469 1.53,1.102 1.9,1.899 0.35,0.805 0.53,3.183 0.53,7.152 v 35.75 c 0,4.817 -0.16,7.903 -0.48,9.266 -0.23,1.051 -0.65,1.816 -1.25,2.301 -0.6,0.484 -1.32,0.734 -2.17,0.734 -1.2,0 -2.88,-0.504 -5.03,-1.516 l -0.74,1.516" /><path
         id="path192"
         style="fill:#231f20;fill-opacity:1;fill-rule:nonzero;stroke:none"
         d="m 1530.25,576.375 16.12,7.863 h 1.61 v -55.914 c 0,-3.703 0.15,-6.019 0.45,-6.933 0.32,-0.903 0.97,-1.602 1.94,-2.102 0.98,-0.484 2.97,-0.766 5.96,-0.832 v -1.801 h -24.91 v 1.801 c 3.13,0.066 5.15,0.336 6.06,0.816 0.91,0.469 1.54,1.098 1.9,1.899 0.35,0.801 0.54,3.183 0.54,7.152 v 35.75 c 0,4.817 -0.17,7.899 -0.49,9.266 -0.23,1.051 -0.64,1.816 -1.25,2.301 -0.6,0.484 -1.31,0.734 -2.16,0.734 -1.2,0 -2.88,-0.504 -5.04,-1.52 l -0.73,1.52" /><path
         id="path194"
         style="fill:#231f20;fill-opacity:1;fill-rule:nonzero;stroke:none"
         d="m 1522.03,407.227 c 0,7.55 1.13,14.05 3.42,19.5 2.28,5.453 5.3,9.515 9.08,12.183 2.93,2.117 5.95,3.184 9.08,3.184 5.07,0 9.64,-2.602 13.67,-7.766 5.05,-6.418 7.57,-15.101 7.57,-26.086 0,-7.68 -1.1,-14.199 -3.32,-19.562 -2.21,-5.383 -5.03,-9.285 -8.46,-11.703 -3.44,-2.434 -6.75,-3.633 -9.95,-3.633 -6.3,0 -11.57,3.718 -15.77,11.183 -3.55,6.282 -5.32,13.852 -5.32,22.7 z m 9.57,-1.215 c 0,-9.117 1.11,-16.567 3.36,-22.317 1.86,-4.851 4.64,-7.285 8.31,-7.285 1.76,0 3.58,0.801 5.46,2.367 1.9,1.586 3.34,4.235 4.3,7.934 1.5,5.598 2.25,13.5 2.25,23.684 0,7.546 -0.78,13.847 -2.35,18.898 -1.16,3.75 -2.68,6.398 -4.53,7.969 -1.34,1.062 -2.95,1.597 -4.84,1.597 -2.21,0 -4.18,-0.984 -5.91,-2.964 -2.33,-2.704 -3.94,-6.95 -4.78,-12.75 -0.85,-5.801 -1.27,-11.5 -1.27,-17.133" /><path
         id="path196"
         style="fill:#231f20;fill-opacity:1;fill-rule:nonzero;stroke:none"
         d="m 1977.47,528.742 c 1.6,-1.683 2.8,-3.387 3.62,-5.066 0.59,-1.188 1.55,-4.254 2.88,-9.235 l 4.3,6.45 c 1.14,1.547 2.52,3.05 4.16,4.464 1.61,1.418 3.04,2.383 4.28,2.899 0.78,0.336 1.65,0.488 2.59,0.488 1.41,0 2.5,-0.367 3.34,-1.117 0.83,-0.754 1.25,-1.668 1.25,-2.734 0,-1.235 -0.25,-2.082 -0.73,-2.536 -0.92,-0.816 -1.95,-1.23 -3.12,-1.23 -0.68,0 -1.42,0.148 -2.2,0.449 -1.53,0.516 -2.57,0.781 -3.08,0.781 -0.79,0 -1.71,-0.464 -2.79,-1.363 -2.01,-1.703 -4.41,-4.969 -7.21,-9.816 l 4,-16.801 c 0.62,-2.566 1.13,-4.117 1.56,-4.617 0.42,-0.5 0.84,-0.75 1.27,-0.75 0.68,0 1.48,0.367 2.38,1.117 1.8,1.5 3.32,3.449 4.6,5.863 l 1.7,-0.879 c -2.05,-3.851 -4.65,-7.035 -7.81,-9.566 -1.78,-1.438 -3.3,-2.152 -4.54,-2.152 -1.81,0 -3.26,1.015 -4.35,3.066 -0.68,1.266 -2.1,6.75 -4.25,16.418 -5.06,-8.832 -9.13,-14.504 -12.2,-17.051 -1.98,-1.617 -3.89,-2.433 -5.76,-2.433 -1.3,0 -2.48,0.464 -3.57,1.418 -0.76,0.714 -1.17,1.664 -1.17,2.882 0,1.067 0.37,1.965 1.09,2.684 0.7,0.715 1.58,1.066 2.63,1.066 1.04,0 2.15,-0.515 3.32,-1.566 0.85,-0.75 1.5,-1.117 1.95,-1.117 0.4,0 0.9,0.265 1.51,0.781 1.54,1.234 3.62,3.902 6.25,8 2.64,4.102 4.37,7.066 5.19,8.902 -2.04,7.899 -3.12,12.082 -3.29,12.536 -0.75,2.113 -1.71,3.613 -2.93,4.496 -1.2,0.886 -2.97,1.32 -5.32,1.32 -0.75,0 -1.61,-0.035 -2.58,-0.102 v 1.766 l 13.03,2.285" /><path
         id="path198"
         style="fill:#231f20;fill-opacity:1;fill-rule:nonzero;stroke:none"
         d="m 2804.46,423.777 16.11,7.868 h 1.62 V 375.73 c 0,-3.703 0.15,-6.019 0.45,-6.933 0.32,-0.902 0.97,-1.602 1.93,-2.102 0.99,-0.484 2.97,-0.765 5.97,-0.832 v -1.801 h -24.92 v 1.801 c 3.14,0.067 5.15,0.332 6.07,0.817 0.9,0.465 1.53,1.097 1.9,1.898 0.35,0.801 0.53,3.184 0.53,7.152 v 35.75 c 0,4.817 -0.16,7.899 -0.48,9.266 -0.23,1.047 -0.65,1.816 -1.25,2.297 -0.6,0.484 -1.32,0.734 -2.16,0.734 -1.21,0 -2.89,-0.5 -5.04,-1.515 l -0.73,1.515" /><path
         id="path200"
         style="fill:#231f20;fill-opacity:1;fill-rule:nonzero;stroke:none"
         d="m 2693.33,570.352 16.12,7.863 h 1.61 v -55.914 c 0,-3.703 0.15,-6.02 0.45,-6.934 0.32,-0.902 0.97,-1.601 1.94,-2.101 0.98,-0.485 2.96,-0.766 5.96,-0.832 v -1.801 h -24.91 v 1.801 c 3.13,0.066 5.14,0.336 6.06,0.816 0.9,0.469 1.53,1.098 1.9,1.898 0.35,0.801 0.54,3.184 0.54,7.153 v 35.75 c 0,4.816 -0.17,7.898 -0.49,9.265 -0.23,1.051 -0.65,1.817 -1.25,2.301 -0.6,0.485 -1.31,0.735 -2.16,0.735 -1.21,0 -2.89,-0.504 -5.04,-1.52 l -0.73,1.52" /><path
         id="path202"
         style="fill:#231f20;fill-opacity:1;fill-rule:nonzero;stroke:none"
         d="m 2677.59,407.227 c 0,7.546 1.14,14.046 3.42,19.496 2.28,5.453 5.3,9.515 9.08,12.183 2.93,2.117 5.95,3.184 9.09,3.184 5.06,0 9.63,-2.598 13.66,-7.766 5.05,-6.418 7.57,-15.101 7.57,-26.086 0,-7.679 -1.1,-14.195 -3.32,-19.562 -2.21,-5.383 -5.03,-9.285 -8.47,-11.703 -3.43,-2.43 -6.74,-3.633 -9.94,-3.633 -6.3,0 -11.57,3.719 -15.77,11.187 -3.55,6.282 -5.32,13.848 -5.32,22.7 z m 9.57,-1.219 c 0,-9.117 1.12,-16.567 3.37,-22.317 1.85,-4.847 4.63,-7.285 8.29,-7.285 1.77,0 3.59,0.805 5.47,2.367 1.9,1.586 3.33,4.235 4.3,7.934 1.5,5.598 2.25,13.5 2.25,23.684 0,7.55 -0.78,13.851 -2.35,18.898 -1.17,3.75 -2.68,6.402 -4.53,7.969 -1.34,1.066 -2.95,1.597 -4.84,1.597 -2.21,0 -4.18,-0.984 -5.91,-2.964 -2.33,-2.7 -3.93,-6.95 -4.78,-12.75 -0.86,-5.801 -1.27,-11.5 -1.27,-17.133" /><path
         id="path204"
         style="fill:#231f20;fill-opacity:1;fill-rule:nonzero;stroke:none"
         d="m 3113.49,418.863 c 1.6,-1.683 2.8,-3.383 3.62,-5.066 0.59,-1.184 1.55,-4.25 2.88,-9.235 l 4.3,6.454 c 1.14,1.546 2.52,3.05 4.15,4.464 1.62,1.418 3.05,2.383 4.29,2.899 0.78,0.336 1.65,0.484 2.59,0.484 1.41,0 2.5,-0.363 3.34,-1.117 0.83,-0.75 1.25,-1.664 1.25,-2.73 0,-1.235 -0.25,-2.086 -0.73,-2.536 -0.92,-0.816 -1.96,-1.234 -3.12,-1.234 -0.68,0 -1.42,0.152 -2.2,0.453 -1.54,0.516 -2.57,0.781 -3.08,0.781 -0.79,0 -1.71,-0.468 -2.79,-1.367 -2.01,-1.699 -4.42,-4.965 -7.22,-9.816 l 4,-16.801 c 0.62,-2.562 1.14,-4.113 1.57,-4.617 0.42,-0.5 0.84,-0.746 1.27,-0.746 0.68,0 1.48,0.363 2.38,1.113 1.8,1.5 3.32,3.453 4.6,5.867 l 1.7,-0.883 c -2.05,-3.847 -4.65,-7.031 -7.81,-9.566 -1.78,-1.434 -3.3,-2.152 -4.54,-2.152 -1.81,0 -3.26,1.019 -4.35,3.066 -0.68,1.27 -2.1,6.754 -4.25,16.418 -5.06,-8.832 -9.13,-14.5 -12.2,-17.047 -1.98,-1.617 -3.9,-2.437 -5.76,-2.437 -1.3,0 -2.49,0.468 -3.57,1.418 -0.77,0.718 -1.17,1.668 -1.17,2.882 0,1.071 0.37,1.969 1.09,2.684 0.7,0.719 1.58,1.066 2.63,1.066 1.03,0 2.15,-0.515 3.32,-1.562 0.84,-0.754 1.5,-1.117 1.95,-1.117 0.4,0 0.9,0.265 1.51,0.781 1.54,1.234 3.62,3.898 6.25,8 2.63,4.102 4.37,7.066 5.18,8.898 -2.03,7.903 -3.11,12.086 -3.28,12.536 -0.75,2.117 -1.72,3.613 -2.93,4.5 -1.2,0.882 -2.97,1.316 -5.32,1.316 -0.75,0 -1.61,-0.031 -2.58,-0.102 v 1.766 l 13.03,2.285" /></g></g></svg>