<?xml version="1.0" encoding="UTF-8" standalone="no"?>
<svg
   xmlns:dc="http://purl.org/dc/elements/1.1/"
   xmlns:cc="http://creativecommons.org/ns#"
   xmlns:rdf="http://www.w3.org/1999/02/22-rdf-syntax-ns#"
   xmlns:svg="http://www.w3.org/2000/svg"
   xmlns="http://www.w3.org/2000/svg"
   viewBox="0 0 340 114.66667"
   height="114.66667"
   width="340"
   xml:space="preserve"
   id="svg2"
   version="1.1"><metadata
     id="metadata8"><rdf:RDF><cc:Work
         rdf:about=""><dc:format>image/svg+xml</dc:format><dc:type
           rdf:resource="http://purl.org/dc/dcmitype/StillImage" /></cc:Work></rdf:RDF></metadata><defs
     id="defs6" /><g
     transform="matrix(1.3333333,0,0,-1.3333333,0,114.66667)"
     id="g10"><g
       transform="scale(0.1)"
       id="g12"><path
         id="path14"
         style="fill:#231f20;fill-opacity:1;fill-rule:nonzero;stroke:none"
         d="m 59.6406,854.789 -5.0351,-55.062 c -0.2657,-2.586 -0.3789,-4.27 -0.3789,-5.086 0,-1.301 0.2304,-2.301 0.7304,-2.985 0.6172,-0.929 1.4492,-1.633 2.5039,-2.097 1.0625,-0.454 2.8477,-0.684 5.3477,-0.684 l -0.5352,-1.801 H 36.207 l 0.5352,1.801 h 1.1172 c 2.1172,0 3.8515,0.465 5.1836,1.367 0.9336,0.633 1.6679,1.649 2.1992,3.082 0.3476,1.02 0.6992,3.383 1.0156,7.133 l 0.7852,8.402 H 28.0938 l -6.7344,-9.132 c -1.5313,-2.055 -2.4844,-3.536 -2.8828,-4.418 -0.3828,-0.903 -0.586,-1.735 -0.586,-2.516 0,-1.055 0.418,-1.934 1.2656,-2.688 0.8516,-0.746 2.254,-1.164 4.2032,-1.23 l -0.5352,-1.801 H 3.24219 l 0.53125,1.801 c 2.41797,0.098 4.53515,0.914 6.38276,2.418 1.836,1.516 4.5665,4.746 8.2188,9.699 l 39.5508,53.797 z m -9.664,-16.25 -19.2032,-26.113 h 16.6524 l 2.5508,26.113" /><path
         id="path16"
         style="fill:#231f20;fill-opacity:1;fill-rule:nonzero;stroke:none"
         d="m 83.7578,855.57 1.668,0.938 c 3.8672,-7.352 6.6328,-13.867 8.3008,-19.535 1.332,-4.414 2,-8.883 2,-13.383 0,-10.5 -2.4336,-19.899 -7.2852,-28.164 C 82.457,785.238 72.8086,775.324 59.4922,765.691 l -1.1641,1.516 c 6.0117,4.484 10.9297,9.484 14.7305,14.984 4.7656,6.899 8.6523,15.25 11.6836,25.036 3.0156,9.765 4.5312,18.664 4.5312,26.679 0,6.117 -1.832,13.336 -5.5156,21.664" /><path
         id="path18"
         style="fill:none;stroke:#101211;stroke-width:2.16000009;stroke-linecap:butt;stroke-linejoin:miter;stroke-miterlimit:2.61310005;stroke-dasharray:none;stroke-opacity:1"
         d="M 294.961,6.21484 V 743.945" /><path
         id="path20"
         style="fill:none;stroke:#231f20;stroke-width:7.5005002;stroke-linecap:butt;stroke-linejoin:miter;stroke-miterlimit:2.61310005;stroke-dasharray:none;stroke-opacity:1"
         d="M 111.215,429.555 H 762.73" /><path
         id="path22"
         style="fill:#231f20;fill-opacity:1;fill-rule:evenodd;stroke:none"
         d="m 758.578,455.902 47.899,-26.347 -47.899,-26.348 v 52.695" /><path
         id="path24"
         style="fill:none;stroke:#231f20;stroke-width:7.5005002;stroke-linecap:butt;stroke-linejoin:miter;stroke-miterlimit:2.61310005;stroke-dasharray:none;stroke-opacity:1"
         d="M 294.961,6.21484 V 724.402" /><path
         id="path26"
         style="fill:#231f20;fill-opacity:1;fill-rule:evenodd;stroke:none"
         d="m 268.613,720.25 26.348,47.898 26.348,-47.898 h -52.696" /><path
         id="path28"
         style="fill:none;stroke:#0b0c0b;stroke-width:7.5005002;stroke-linecap:butt;stroke-linejoin:miter;stroke-miterlimit:2.61310005;stroke-dasharray:none;stroke-opacity:1"
         d="m 779.297,66.5664 v 0 l -5.117,26.1953 -5.118,25.6643 -5.113,25.136 -5.117,24.606 -5.113,24.078 -5.114,23.547 -5.117,23.019 -5.113,22.493 -5.117,21.961 -5.113,21.429 -5.118,20.903 -5.113,20.375 -5.117,19.843 -5.113,19.313 -5.118,18.789 -5.113,18.254 -5.113,17.73 -5.117,17.196 -5.114,16.668 -5.117,16.14 -5.117,15.61 -5.113,15.086 -5.117,14.55 -5.114,14.02 -5.117,13.496 -5.113,12.969 -5.113,12.433 -5.118,11.907 -5.117,11.375 -5.113,10.851 -5.117,10.317 -5.114,9.792 -5.117,9.262 -5.113,8.727 -5.117,8.203 -5.114,7.672 -5.117,7.144 -5.113,6.618 -5.113,6.085 -5.117,5.555 -5.114,5.027 -5.117,4.497 -5.113,3.968 -5.117,3.438 -5.118,2.914 -5.109,2.383 -5.117,1.851 -5.117,1.321 -5.114,0.793 -5.117,0.265 -5.113,-0.265 -5.117,-0.793 -5.117,-1.321 -5.114,-1.851 -5.117,-2.383 -5.113,-2.914 -5.114,-3.438 -5.117,-3.968 -5.117,-4.497 -5.113,-5.027 -5.117,-5.555 -5.114,-6.085 -5.113,-6.618 -5.117,-7.144 -5.113,-7.672 -5.118,-8.203 -5.113,-8.727 -5.113,-9.262 -5.117,-9.792 -5.114,-10.317 -5.117,-10.851 -5.117,-11.375 -5.113,-11.907 -5.117,-12.433 -5.114,-12.969 -5.113,-13.496 -5.117,-14.02 -5.114,-14.55 -5.117,-15.086 -5.117,-15.61 -5.113,-16.14 -5.117,-16.668 -5.118,-17.196 -5.113,-17.73 -5.117,-18.254 -5.113,-18.789 -5.114,-19.313 -5.117,-19.843 -5.113,-20.375 -5.117,-20.903 -5.114,-21.429 -5.113,-21.961 -5.117,-22.493 -5.113,-23.019 -5.117,-23.547 -5.114,-24.078 -5.113,-24.606 -5.117,-25.136 -5.117,-25.6643 -5.114,-26.1953 v 0" /><path
         id="path30"
         style="fill:#231f20;fill-opacity:1;fill-rule:nonzero;stroke:none"
         d="m 240.562,767.898 c 0.942,-1.613 1.602,-3.125 1.973,-4.523 0.352,-1.41 0.711,-4.176 1.082,-8.297 l 1.84,-20.543 c 1.664,1.996 4.09,5.176 7.27,9.524 1.523,2.109 3.421,4.988 5.675,8.64 1.368,2.223 2.192,3.793 2.508,4.676 0.156,0.441 0.242,0.914 0.242,1.383 0,0.297 -0.086,0.554 -0.285,0.754 -0.199,0.187 -0.699,0.414 -1.527,0.687 -0.824,0.254 -1.512,0.754 -2.051,1.453 -0.543,0.711 -0.812,1.524 -0.812,2.453 0,1.137 0.339,2.051 1.011,2.75 0.657,0.7 1.496,1.043 2.496,1.043 1.223,0 2.266,-0.5 3.133,-1.527 0.871,-1.016 1.301,-2.41 1.301,-4.191 0,-2.196 -0.758,-4.719 -2.254,-7.543 -1.512,-2.825 -4.406,-7.157 -8.699,-13.004 -4.277,-5.86 -9.477,-12.231 -15.567,-19.133 -4.207,-4.762 -7.328,-7.77 -9.367,-9.012 -2.023,-1.222 -3.761,-1.847 -5.215,-1.847 -0.871,0 -1.628,0.324 -2.285,0.98 -0.656,0.656 -0.969,1.414 -0.969,2.281 0,1.086 0.446,2.067 1.356,2.965 0.894,0.883 1.879,1.324 2.937,1.324 0.555,0 1.028,-0.113 1.383,-0.367 0.227,-0.144 0.473,-0.543 0.727,-1.199 0.273,-0.641 0.512,-1.082 0.742,-1.313 0.129,-0.14 0.297,-0.199 0.5,-0.199 0.156,0 0.457,0.129 0.867,0.414 1.539,0.942 3.321,2.453 5.348,4.504 2.68,2.739 4.644,4.961 5.93,6.688 l -2.34,26.476 c -0.383,4.375 -0.969,7.043 -1.754,7.985 -0.781,0.941 -2.078,1.425 -3.918,1.425 -0.586,0 -1.641,-0.085 -3.137,-0.257 l -0.371,1.539 12.23,3.011" /><path
         id="path32"
         style="fill:#231f20;fill-opacity:1;fill-rule:nonzero;stroke:none"
         d="m 791.84,374.297 c 1.367,-1.442 2.394,-2.895 3.094,-4.336 0.496,-1.012 1.324,-3.637 2.464,-7.899 l 3.68,5.516 c 0.969,1.324 2.152,2.61 3.547,3.824 1.387,1.211 2.613,2.036 3.668,2.481 0.668,0.281 1.41,0.414 2.223,0.414 1.199,0 2.136,-0.317 2.851,-0.957 0.711,-0.645 1.071,-1.426 1.071,-2.34 0,-1.055 -0.215,-1.781 -0.626,-2.168 -0.785,-0.695 -1.671,-1.055 -2.667,-1.055 -0.586,0 -1.211,0.129 -1.883,0.387 -1.313,0.441 -2.196,0.668 -2.637,0.668 -0.672,0 -1.453,-0.398 -2.383,-1.168 -1.722,-1.453 -3.777,-4.25 -6.172,-8.398 l 3.422,-14.371 c 0.528,-2.196 0.969,-3.52 1.34,-3.95 0.356,-0.425 0.711,-0.64 1.082,-0.64 0.586,0 1.27,0.316 2.039,0.957 1.539,1.281 2.836,2.949 3.934,5.015 l 1.457,-0.754 c -1.754,-3.293 -3.981,-6.015 -6.688,-8.183 -1.527,-1.227 -2.82,-1.84 -3.879,-1.84 -1.554,0 -2.793,0.871 -3.718,2.621 -0.586,1.086 -1.797,5.777 -3.637,14.047 -4.336,-7.559 -7.813,-12.402 -10.438,-14.586 -1.695,-1.383 -3.336,-2.082 -4.933,-2.082 -1.11,0 -2.121,0.402 -3.047,1.211 -0.66,0.617 -1,1.426 -1,2.469 0,0.91 0.312,1.679 0.926,2.293 0.601,0.617 1.355,0.914 2.254,0.914 0.882,0 1.839,-0.442 2.836,-1.34 0.726,-0.641 1.285,-0.957 1.668,-0.957 0.339,0 0.769,0.23 1.296,0.672 1.313,1.054 3.094,3.336 5.348,6.843 2.254,3.504 3.734,6.047 4.434,7.614 -1.739,6.758 -2.668,10.336 -2.809,10.719 -0.641,1.812 -1.469,3.097 -2.508,3.851 -1.027,0.758 -2.539,1.129 -4.551,1.129 -0.64,0 -1.382,-0.031 -2.207,-0.09 v 1.516 l 11.149,1.953" /><path
         id="path34"
         style="fill:#231f20;fill-opacity:1;fill-rule:nonzero;stroke:none"
         d="m 888.441,853.289 h 46.532 l -5.032,-17.281 h -1.816 c 0.367,2.113 0.551,4.035 0.551,5.75 0,2.25 -0.449,4 -1.336,5.23 -0.863,1.235 -2.067,2.035 -3.582,2.383 -1.516,0.371 -4.481,0.551 -8.914,0.551 h -10.203 l -7.618,-26.133 h 6.653 c 5.648,0 9.898,-0.582 12.73,-1.746 2.836,-1.188 5.168,-3.172 6.985,-5.969 1.836,-2.801 2.734,-5.801 2.734,-9.035 0,-3.863 -1.316,-7.566 -3.984,-11.082 -2.649,-3.516 -5.899,-5.867 -9.735,-7.082 -3.832,-1.199 -8.363,-1.801 -13.566,-1.801 h -29.551 l 0.488,1.801 c 3.547,0.066 5.981,0.664 7.297,1.781 1.321,1.133 2.668,3.985 4.035,8.582 l 11.618,39.504 c 1.281,4.348 1.914,7.297 1.914,8.832 0,1.364 -0.5,2.348 -1.5,2.934 -0.985,0.582 -2.731,0.898 -5.25,0.965 z m -0.832,-61.914 c 2.532,-0.469 5.317,-0.684 8.348,-0.684 6.902,0 11.953,1.7 15.152,5.098 3.215,3.402 4.817,7.203 4.817,11.402 0,2.832 -0.77,5.332 -2.321,7.5 -1.546,2.164 -3.496,3.649 -5.828,4.465 -2.351,0.817 -5.504,1.219 -9.484,1.219 h -2.199 l -8.485,-29" /><path
         id="path36"
         style="fill:#231f20;fill-opacity:1;fill-rule:nonzero;stroke:none"
         d="m 945.656,855.57 1.668,0.938 c 3.867,-7.352 6.633,-13.867 8.301,-19.535 1.332,-4.414 2,-8.883 2,-13.383 0,-10.5 -2.434,-19.899 -7.285,-28.164 -5.985,-10.188 -15.633,-20.102 -28.949,-29.735 l -1.164,1.516 c 6.015,4.484 10.933,9.484 14.73,14.984 4.77,6.899 8.652,15.25 11.684,25.036 3.015,9.765 4.535,18.664 4.535,26.679 0,6.117 -1.836,13.336 -5.52,21.664" /><path
         id="path38"
         style="fill:none;stroke:#101211;stroke-width:2.16000009;stroke-linecap:butt;stroke-linejoin:miter;stroke-miterlimit:2.61310005;stroke-dasharray:none;stroke-opacity:1"
         d="M 1158.96,45.2969 V 776.566" /><path
         id="path40"
         style="fill:none;stroke:#231f20;stroke-width:7.5005002;stroke-linecap:butt;stroke-linejoin:miter;stroke-miterlimit:2.61310005;stroke-dasharray:none;stroke-opacity:1"
         d="M 975.215,141.555 H 1626.73" /><path
         id="path42"
         style="fill:#231f20;fill-opacity:1;fill-rule:evenodd;stroke:none"
         d="m 1622.58,167.902 47.9,-26.347 -47.9,-26.348 v 52.695" /><path
         id="path44"
         style="fill:none;stroke:#231f20;stroke-width:7.5005002;stroke-linecap:butt;stroke-linejoin:miter;stroke-miterlimit:2.61310005;stroke-dasharray:none;stroke-opacity:1"
         d="M 1158.96,45.2969 V 732.82" /><path
         id="path46"
         style="fill:#231f20;fill-opacity:1;fill-rule:evenodd;stroke:none"
         d="m 1132.61,728.668 26.35,47.898 26.35,-47.898 h -52.7" /><path
         id="path48"
         style="fill:none;stroke:#0b0c0b;stroke-width:7.5005002;stroke-linecap:butt;stroke-linejoin:miter;stroke-miterlimit:2.61310005;stroke-dasharray:none;stroke-opacity:1"
         d="m 1906.99,743.059 v 0 l 5.12,-26.192 5.12,-25.668 5.11,-25.133 5.12,-24.609 5.11,-24.074 5.11,-23.551 5.12,-23.016 5.11,-22.492 5.12,-21.961 5.12,-21.433 5.11,-20.903 5.12,-20.371 5.11,-19.847 5.12,-19.313 5.11,-18.785 5.12,-18.258 5.11,-17.726 5.12,-17.2 5.11,-16.668 5.12,-16.14 5.11,-15.61 5.12,-15.082 5.11,-14.55 5.12,-14.024 5.12,-13.496 5.11,-12.965 5.11,-12.437 5.12,-11.903 5.12,-11.375 5.11,-10.851 5.12,-10.321 5.11,-9.789 5.12,-9.261 5.11,-8.727 5.12,-8.203 5.11,-7.676 5.12,-7.14 5.11,-6.618 5.12,-6.086 5.11,-5.558 5.11,-5.024 5.12,-4.4996 5.12,-3.9687 5.11,-3.4375 5.12,-2.9141 5.11,-2.3789 5.12,-1.8515 5.11,-1.3204 5.12,-0.7968 5.11,-0.2657 5.12,0.2657 5.11,0.7968 5.12,1.3204 5.11,1.8515 5.12,2.3789 5.12,2.9141 5.11,3.4375 5.12,3.9687 5.11,4.4996 5.12,5.024 5.11,5.558 5.12,6.086 5.11,6.618 5.12,7.14 5.11,7.676 5.12,8.203 5.11,8.727 5.12,9.261 5.11,9.789 5.11,10.321 5.12,10.851 5.12,11.375 5.11,11.903 5.12,12.437 5.11,12.965 5.12,13.496 5.11,14.024 5.12,14.55 5.11,15.082 5.12,15.61 5.11,16.14 5.12,16.668 5.12,17.2 5.11,17.726 5.12,18.258 5.11,18.785 5.12,19.313 5.11,19.847 5.12,20.371 5.11,20.903 5.12,21.433 5.11,21.961 5.12,22.492 5.11,23.016 5.12,23.551 5.11,24.074 5.12,24.609 5.11,25.133 5.12,25.668 5.11,26.192 v 0" /><path
         id="path50"
         style="fill:#231f20;fill-opacity:1;fill-rule:nonzero;stroke:none"
         d="m 1121.39,776.258 c 0.94,-1.613 1.6,-3.121 1.97,-4.52 0.36,-1.41 0.71,-4.176 1.09,-8.297 l 1.84,-20.546 c 1.66,1.996 4.09,5.175 7.26,9.527 1.53,2.105 3.43,4.988 5.68,8.637 1.37,2.226 2.2,3.793 2.51,4.679 0.15,0.442 0.24,0.91 0.24,1.383 0,0.297 -0.09,0.555 -0.28,0.754 -0.2,0.187 -0.7,0.414 -1.53,0.684 -0.83,0.257 -1.51,0.757 -2.05,1.457 -0.55,0.711 -0.82,1.523 -0.82,2.449 0,1.14 0.34,2.055 1.02,2.75 0.65,0.703 1.5,1.043 2.49,1.043 1.23,0 2.27,-0.496 3.14,-1.528 0.87,-1.011 1.3,-2.41 1.3,-4.187 0,-2.199 -0.76,-4.723 -2.26,-7.543 -1.51,-2.824 -4.4,-7.16 -8.69,-13.004 -4.28,-5.859 -9.48,-12.23 -15.57,-19.133 -4.21,-4.761 -7.33,-7.769 -9.37,-9.011 -2.02,-1.223 -3.76,-1.852 -5.22,-1.852 -0.87,0 -1.62,0.328 -2.28,0.984 -0.66,0.657 -0.97,1.411 -0.97,2.278 0,1.086 0.45,2.07 1.36,2.968 0.89,0.883 1.88,1.325 2.93,1.325 0.56,0 1.03,-0.114 1.39,-0.367 0.22,-0.145 0.47,-0.547 0.72,-1.2 0.28,-0.64 0.52,-1.082 0.75,-1.312 0.12,-0.141 0.29,-0.199 0.5,-0.199 0.15,0 0.45,0.128 0.86,0.414 1.55,0.941 3.33,2.453 5.35,4.504 2.68,2.738 4.65,4.96 5.93,6.687 l -2.34,26.477 c -0.38,4.375 -0.96,7.043 -1.75,7.984 -0.79,0.941 -2.08,1.426 -3.92,1.426 -0.58,0 -1.64,-0.086 -3.14,-0.258 l -0.37,1.539 12.23,3.008" /><path
         id="path52"
         style="fill:#231f20;fill-opacity:1;fill-rule:nonzero;stroke:none"
         d="m 1655.84,86.2969 c 1.37,-1.4414 2.39,-2.8946 3.09,-4.336 0.5,-1.0117 1.33,-3.6367 2.47,-7.8984 l 3.68,5.5156 c 0.97,1.3242 2.15,2.6094 3.54,3.8242 1.39,1.211 2.62,2.0352 3.67,2.4805 0.67,0.2813 1.41,0.4141 2.23,0.4141 1.19,0 2.13,-0.3164 2.85,-0.9571 0.71,-0.6445 1.07,-1.4257 1.07,-2.3398 0,-1.0547 -0.22,-1.7812 -0.63,-2.168 -0.78,-0.6953 -1.67,-1.0547 -2.67,-1.0547 -0.58,0 -1.21,0.1289 -1.88,0.3868 -1.31,0.4414 -2.19,0.6679 -2.64,0.6679 -0.67,0 -1.45,-0.3984 -2.38,-1.1679 -1.72,-1.4532 -3.78,-4.25 -6.17,-8.3985 l 3.42,-14.3711 c 0.53,-2.1953 0.97,-3.5195 1.34,-3.9492 0.36,-0.4258 0.71,-0.6406 1.08,-0.6406 0.59,0 1.27,0.3164 2.04,0.957 1.54,1.2813 2.84,2.9492 3.94,5.0156 l 1.45,-0.7539 c -1.75,-3.2929 -3.98,-6.0156 -6.68,-8.1836 -1.53,-1.2265 -2.82,-1.8398 -3.88,-1.8398 -1.56,0 -2.8,0.8711 -3.72,2.6211 -0.59,1.0859 -1.8,5.7773 -3.64,14.0469 -4.33,-7.5586 -7.81,-12.4024 -10.44,-14.586 -1.69,-1.3828 -3.33,-2.082 -4.93,-2.082 -1.11,0 -2.12,0.4023 -3.05,1.2109 -0.66,0.6172 -1,1.4258 -1,2.4688 0,0.9101 0.32,1.6797 0.93,2.293 0.6,0.6171 1.36,0.914 2.25,0.914 0.89,0 1.84,-0.4414 2.84,-1.3398 0.73,-0.6407 1.28,-0.9571 1.67,-0.9571 0.34,0 0.77,0.2305 1.29,0.6719 1.32,1.0547 3.1,3.336 5.35,6.8438 2.26,3.5039 3.74,6.0468 4.44,7.6133 -1.74,6.7578 -2.67,10.3359 -2.81,10.7187 -0.64,1.8125 -1.47,3.0977 -2.51,3.8516 -1.03,0.7578 -2.54,1.1289 -4.55,1.1289 -0.64,0 -1.38,-0.0313 -2.21,-0.0899 v 1.5157 l 11.15,1.9531" /><path
         id="path54"
         style="fill:#231f20;fill-opacity:1;fill-rule:nonzero;stroke:none"
         d="m 1750.93,851.473 0.68,1.816 h 23.63 c 3.97,0 7.5,-0.617 10.62,-1.867 3.1,-1.234 5.43,-2.949 6.98,-5.164 1.55,-2.219 2.32,-4.567 2.32,-7.035 0,-3.817 -1.38,-7.25 -4.13,-10.332 -2.76,-3.067 -7.24,-5.348 -13.46,-6.801 4.02,-1.5 6.96,-3.485 8.86,-5.969 1.88,-2.465 2.83,-5.18 2.83,-8.148 0,-3.282 -0.85,-6.43 -2.55,-9.434 -1.69,-2.98 -3.87,-5.312 -6.52,-6.965 -2.65,-1.664 -5.85,-2.883 -9.6,-3.668 -2.66,-0.547 -6.83,-0.832 -12.5,-0.832 h -24.26 l 0.63,1.801 c 2.55,0.066 4.27,0.316 5.18,0.734 1.3,0.567 2.24,1.297 2.79,2.2 0.78,1.23 1.81,4.062 3.11,8.496 l 11.87,40.086 c 1.02,3.382 1.52,5.765 1.52,7.132 0,1.2 -0.45,2.149 -1.34,2.852 -0.89,0.699 -2.6,1.047 -5.11,1.047 -0.55,0 -1.07,0.016 -1.55,0.051 z m 9.9,-27.485 c 2.11,-0.066 3.64,-0.097 4.6,-0.097 6.76,0 11.79,1.468 15.11,4.414 3.3,2.953 4.95,6.633 4.95,11.066 0,3.352 -1.01,5.969 -3.03,7.836 -2.02,1.867 -5.24,2.801 -9.67,2.801 -1.17,0 -2.67,-0.184 -4.48,-0.582 z m -9.62,-32.613 c 3.52,-0.469 6.27,-0.684 8.25,-0.684 5.08,0 9.58,1.532 13.5,4.582 3.93,3.067 5.88,7.219 5.88,12.45 0,4 -1.2,7.132 -3.63,9.382 -2.42,2.25 -6.33,3.368 -11.73,3.368 -1.05,0 -2.32,-0.051 -3.82,-0.149 l -8.45,-28.949" /><path
         id="path56"
         style="fill:#231f20;fill-opacity:1;fill-rule:nonzero;stroke:none"
         d="m 1811.76,855.57 1.67,0.938 c 3.86,-7.352 6.63,-13.867 8.3,-19.535 1.33,-4.414 2,-8.883 2,-13.383 0,-10.5 -2.44,-19.899 -7.29,-28.164 -5.98,-10.188 -15.63,-20.102 -28.95,-29.735 l -1.16,1.516 c 6.01,4.484 10.93,9.484 14.73,14.984 4.76,6.899 8.65,15.25 11.68,25.036 3.02,9.765 4.53,18.664 4.53,26.679 0,6.117 -1.83,13.336 -5.51,21.664" /><path
         id="path58"
         style="fill:none;stroke:#101211;stroke-width:2.16000009;stroke-linecap:butt;stroke-linejoin:miter;stroke-miterlimit:2.61310005;stroke-dasharray:none;stroke-opacity:1"
         d="M 2022.96,6.21484 V 775.676" /><path
         id="path60"
         style="fill:none;stroke:#231f20;stroke-width:7.5005002;stroke-linecap:butt;stroke-linejoin:miter;stroke-miterlimit:2.61310005;stroke-dasharray:none;stroke-opacity:1"
         d="m 1839.21,429.555 h 651.52" /><path
         id="path62"
         style="fill:#231f20;fill-opacity:1;fill-rule:evenodd;stroke:none"
         d="m 2486.58,455.902 47.9,-26.347 -47.9,-26.348 v 52.695" /><path
         id="path64"
         style="fill:none;stroke:#231f20;stroke-width:7.5005002;stroke-linecap:butt;stroke-linejoin:miter;stroke-miterlimit:2.61310005;stroke-dasharray:none;stroke-opacity:1"
         d="M 2022.96,6.21484 V 748.621" /><path
         id="path66"
         style="fill:#231f20;fill-opacity:1;fill-rule:evenodd;stroke:none"
         d="m 1996.61,744.469 26.35,47.902 26.35,-47.902 h -52.7" /><path
         id="path68"
         style="fill:none;stroke:#0b0c0b;stroke-width:7.5005002;stroke-linecap:butt;stroke-linejoin:miter;stroke-miterlimit:2.61310005;stroke-dasharray:none;stroke-opacity:1"
         d="m 1087.85,605.297 5.11,-18.789 5.12,-18.254 5.11,-17.727 5.12,-17.199 5.11,-16.668 5.12,-16.14 5.12,-15.61 5.11,-15.086 5.12,-14.547 5.11,-14.023 5.12,-13.496 5.11,-12.965 5.11,-12.438 5.12,-11.906 5.12,-11.375 5.11,-10.851 5.11,-10.317 5.12,-9.793 5.12,-9.258 5.11,-8.73 5.12,-8.203 5.11,-7.672 5.12,-7.145 5.11,-6.617 5.12,-6.086 5.11,-5.554 5.12,-5.024 5.11,-4.5 5.12,-3.969 5.11,-3.437 5.12,-2.914 5.11,-2.383 5.12,-1.851 5.12,-1.321 5.11,-0.793 5.12,-0.265 5.11,0.265 5.12,0.793 5.11,1.321 5.12,1.851 5.11,2.383 5.12,2.914 5.11,3.437 5.12,3.969 5.11,4.5 5.11,5.024 5.12,5.554 5.12,6.086 5.11,6.617 5.12,7.145 5.11,7.672 5.12,8.203 5.11,8.73 5.12,9.258 5.11,9.793 5.12,10.317 5.11,10.851 5.12,11.375 5.11,11.906 5.12,12.438 5.12,12.965 5.11,13.496 5.12,14.023 5.11,14.547 5.12,15.086 5.11,15.61 5.12,16.14 5.11,16.668 5.12,17.199 5.11,17.727 5.12,18.254 5.11,18.789" /><path
         id="path70"
         style="fill:#231f20;fill-opacity:1;fill-rule:nonzero;stroke:none"
         d="m 2072.87,783.77 c 0.94,-1.614 1.6,-3.122 1.97,-4.52 0.36,-1.41 0.71,-4.176 1.08,-8.297 l 1.84,-20.547 c 1.67,1.996 4.09,5.176 7.28,9.528 1.52,2.105 3.41,4.988 5.67,8.636 1.36,2.227 2.19,3.793 2.51,4.68 0.15,0.441 0.24,0.91 0.24,1.383 0,0.297 -0.09,0.555 -0.28,0.754 -0.21,0.187 -0.71,0.414 -1.53,0.683 -0.83,0.258 -1.51,0.758 -2.06,1.457 -0.54,0.711 -0.8,1.524 -0.8,2.45 0,1.14 0.33,2.054 1.01,2.75 0.65,0.703 1.49,1.043 2.49,1.043 1.23,0 2.27,-0.497 3.14,-1.528 0.87,-1.012 1.29,-2.41 1.29,-4.187 0,-2.2 -0.76,-4.719 -2.25,-7.543 -1.51,-2.824 -4.4,-7.16 -8.7,-13.004 -4.27,-5.86 -9.48,-12.231 -15.56,-19.133 -4.21,-4.762 -7.33,-7.77 -9.37,-9.012 -2.03,-1.222 -3.77,-1.851 -5.22,-1.851 -0.87,0 -1.62,0.328 -2.28,0.984 -0.66,0.656 -0.97,1.41 -0.97,2.277 0,1.086 0.44,2.071 1.36,2.969 0.89,0.883 1.88,1.324 2.93,1.324 0.56,0 1.03,-0.113 1.39,-0.367 0.22,-0.144 0.47,-0.547 0.72,-1.199 0.27,-0.641 0.52,-1.082 0.74,-1.312 0.13,-0.141 0.3,-0.2 0.5,-0.2 0.16,0 0.46,0.129 0.87,0.414 1.54,0.942 3.32,2.453 5.35,4.504 2.68,2.739 4.65,4.961 5.93,6.688 l -2.34,26.476 c -0.39,4.375 -0.97,7.043 -1.75,7.985 -0.79,0.941 -2.09,1.425 -3.93,1.425 -0.58,0 -1.63,-0.085 -3.13,-0.257 l -0.37,1.539 12.23,3.008" /><path
         id="path72"
         style="fill:#231f20;fill-opacity:1;fill-rule:nonzero;stroke:none"
         d="m 2519.84,374.297 c 1.37,-1.442 2.39,-2.895 3.09,-4.336 0.5,-1.012 1.33,-3.637 2.47,-7.899 l 3.68,5.516 c 0.97,1.324 2.15,2.61 3.54,3.824 1.39,1.211 2.62,2.036 3.67,2.481 0.67,0.281 1.41,0.414 2.23,0.414 1.19,0 2.14,-0.317 2.85,-0.957 0.71,-0.645 1.07,-1.426 1.07,-2.34 0,-1.055 -0.22,-1.781 -0.63,-2.168 -0.78,-0.695 -1.67,-1.055 -2.67,-1.055 -0.58,0 -1.21,0.129 -1.88,0.387 -1.31,0.441 -2.19,0.668 -2.64,0.668 -0.67,0 -1.45,-0.398 -2.38,-1.168 -1.72,-1.453 -3.78,-4.25 -6.17,-8.398 l 3.42,-14.371 c 0.53,-2.196 0.97,-3.52 1.34,-3.95 0.36,-0.425 0.71,-0.64 1.08,-0.64 0.59,0 1.27,0.316 2.04,0.957 1.54,1.281 2.84,2.949 3.94,5.015 l 1.45,-0.754 c -1.75,-3.293 -3.98,-6.015 -6.68,-8.183 -1.53,-1.227 -2.82,-1.84 -3.88,-1.84 -1.56,0 -2.8,0.871 -3.72,2.621 -0.59,1.086 -1.8,5.777 -3.64,14.047 -4.33,-7.559 -7.81,-12.402 -10.44,-14.586 -1.69,-1.383 -3.33,-2.082 -4.93,-2.082 -1.11,0 -2.12,0.402 -3.05,1.211 -0.66,0.617 -1,1.426 -1,2.469 0,0.91 0.32,1.679 0.93,2.293 0.6,0.617 1.36,0.914 2.25,0.914 0.89,0 1.84,-0.442 2.84,-1.34 0.73,-0.641 1.28,-0.957 1.67,-0.957 0.34,0 0.77,0.23 1.29,0.672 1.32,1.054 3.1,3.336 5.35,6.843 2.26,3.504 3.74,6.047 4.44,7.614 -1.74,6.758 -2.67,10.336 -2.81,10.719 -0.64,1.812 -1.47,3.097 -2.51,3.851 -1.03,0.758 -2.54,1.129 -4.55,1.129 -0.64,0 -1.38,-0.031 -2.21,-0.09 v 1.516 l 11.15,1.953" /></g></g></svg>