<?xml version="1.0" encoding="UTF-8" standalone="no"?>
<svg
   xmlns:dc="http://purl.org/dc/elements/1.1/"
   xmlns:cc="http://creativecommons.org/ns#"
   xmlns:rdf="http://www.w3.org/1999/02/22-rdf-syntax-ns#"
   xmlns:svg="http://www.w3.org/2000/svg"
   xmlns="http://www.w3.org/2000/svg"
   viewBox="0 0 468 166.66667"
   height="166.66667"
   width="468"
   xml:space="preserve"
   id="svg2"
   version="1.1"><metadata
     id="metadata8"><rdf:RDF><cc:Work
         rdf:about=""><dc:format>image/svg+xml</dc:format><dc:type
           rdf:resource="http://purl.org/dc/dcmitype/StillImage" /></cc:Work></rdf:RDF></metadata><defs
     id="defs6" /><g
     transform="matrix(1.3333333,0,0,-1.3333333,0,166.66667)"
     id="g10"><g
       transform="scale(0.1)"
       id="g12"><path
         id="path14"
         style="fill:#231f20;fill-opacity:1;fill-rule:nonzero;stroke:none"
         d="M 62.3008,1243.06 57.2656,1188 c -0.2656,-2.59 -0.3828,-4.27 -0.3828,-5.09 0,-1.29 0.2344,-2.29 0.7344,-2.98 0.6172,-0.93 1.4492,-1.63 2.5,-2.1 1.0664,-0.45 2.8516,-0.68 5.3516,-0.68 l -0.5352,-1.8 H 38.8672 l 0.5351,1.8 h 1.1172 c 2.1172,0 3.8516,0.47 5.1836,1.37 0.9297,0.63 1.6641,1.64 2.1992,3.08 0.3477,1.02 0.6993,3.38 1.0157,7.13 l 0.7851,8.4 H 30.7539 L 24.0156,1188 c -1.5273,-2.05 -2.4804,-3.54 -2.8828,-4.42 -0.3828,-0.9 -0.582,-1.73 -0.582,-2.51 0,-1.05 0.418,-1.94 1.2656,-2.69 0.8516,-0.75 2.2539,-1.17 4.2031,-1.23 l -0.5351,-1.8 H 5.90234 l 0.53125,1.8 c 2.41797,0.1 4.53521,0.91 6.38281,2.42 1.8359,1.51 4.5664,4.74 8.2188,9.7 l 39.5468,53.79 z m -9.6641,-16.25 -19.2031,-26.11 h 16.6523 l 2.5508,26.11" /><path
         id="path16"
         style="fill:#231f20;fill-opacity:1;fill-rule:nonzero;stroke:none"
         d="m 86.418,1243.85 1.6679,0.93 c 3.8672,-7.35 6.6329,-13.87 8.2969,-19.53 1.336,-4.42 2.0039,-8.88 2.0039,-13.39 0,-10.5 -2.4375,-19.9 -7.2851,-28.16 -5.9844,-10.18 -15.6328,-20.1 -28.9493,-29.74 l -1.1679,1.52 c 6.0156,4.48 10.9336,9.48 14.7344,14.98 4.7656,6.9 8.6484,15.25 11.6835,25.04 3.0157,9.77 4.5313,18.66 4.5313,26.68 0,6.12 -1.832,13.34 -5.5156,21.67" /><path
         id="path18"
         style="fill:#231f20;fill-opacity:1;fill-rule:nonzero;stroke:none"
         d="m 454.188,495.383 c 0,7.551 1.136,14.051 3.417,19.5 2.286,5.453 5.301,9.515 9.086,12.183 2.93,2.118 5.95,3.184 9.082,3.184 5.063,0 9.633,-2.598 13.665,-7.766 5.05,-6.418 7.57,-15.101 7.57,-26.086 0,-7.679 -1.102,-14.199 -3.32,-19.562 -2.215,-5.383 -5.032,-9.285 -8.465,-11.703 -3.434,-2.43 -6.75,-3.633 -9.95,-3.633 -6.3,0 -11.57,3.719 -15.765,11.184 -3.551,6.281 -5.32,13.851 -5.32,22.699 z m 9.57,-1.215 c 0,-9.117 1.113,-16.566 3.367,-22.316 1.848,-4.852 4.629,-7.286 8.297,-7.286 1.766,0 3.586,0.801 5.465,2.368 1.902,1.586 3.336,4.234 4.301,7.933 1.5,5.598 2.25,13.5 2.25,23.684 0,7.547 -0.786,13.851 -2.348,18.898 -1.168,3.75 -2.684,6.399 -4.531,7.969 -1.336,1.066 -2.954,1.598 -4.836,1.598 -2.219,0 -4.184,-0.985 -5.918,-2.965 -2.332,-2.703 -3.93,-6.949 -4.782,-12.75 -0.851,-5.801 -1.265,-11.5 -1.265,-17.133" /><path
         id="path20"
         style="fill:#ffffff;fill-opacity:1;fill-rule:evenodd;stroke:none"
         d="M 2450.54,7.23438 H 3499 V 1091.8744 H 2450.54 Z" /><path
         id="path22"
         style="fill:none;stroke:#0b0c0b;stroke-width:2.16000009;stroke-linecap:butt;stroke-linejoin:miter;stroke-miterlimit:2.61310005;stroke-dasharray:none;stroke-opacity:1"
         d="M 2450.54,7.23438 H 3499 V 1091.8744 H 2450.54 Z" /><path
         id="path24"
         style="fill:none;stroke:#101211;stroke-width:2.16000009;stroke-linecap:butt;stroke-linejoin:miter;stroke-miterlimit:2.61310005;stroke-dasharray:none;stroke-opacity:1"
         d="M 2555.38,7.23438 V 1091.88" /><path
         id="path26"
         style="fill:none;stroke:#101211;stroke-width:2.16000009;stroke-linecap:butt;stroke-linejoin:miter;stroke-miterlimit:2.61310005;stroke-dasharray:none;stroke-opacity:1"
         d="M 2660.23,7.23438 V 1091.88" /><path
         id="path28"
         style="fill:none;stroke:#101211;stroke-width:2.16000009;stroke-linecap:butt;stroke-linejoin:miter;stroke-miterlimit:2.61310005;stroke-dasharray:none;stroke-opacity:1"
         d="M 2765.07,7.23438 V 1091.88" /><path
         id="path30"
         style="fill:none;stroke:#101211;stroke-width:2.16000009;stroke-linecap:butt;stroke-linejoin:miter;stroke-miterlimit:2.61310005;stroke-dasharray:none;stroke-opacity:1"
         d="M 2869.92,7.23438 V 1091.88" /><path
         id="path32"
         style="fill:none;stroke:#101211;stroke-width:2.16000009;stroke-linecap:butt;stroke-linejoin:miter;stroke-miterlimit:2.61310005;stroke-dasharray:none;stroke-opacity:1"
         d="M 2974.77,7.23438 V 1091.88" /><path
         id="path34"
         style="fill:none;stroke:#101211;stroke-width:2.16000009;stroke-linecap:butt;stroke-linejoin:miter;stroke-miterlimit:2.61310005;stroke-dasharray:none;stroke-opacity:1"
         d="M 3079.61,7.23438 V 1091.88" /><path
         id="path36"
         style="fill:none;stroke:#101211;stroke-width:2.16000009;stroke-linecap:butt;stroke-linejoin:miter;stroke-miterlimit:2.61310005;stroke-dasharray:none;stroke-opacity:1"
         d="M 3184.45,7.23438 V 1091.88" /><path
         id="path38"
         style="fill:none;stroke:#101211;stroke-width:2.16000009;stroke-linecap:butt;stroke-linejoin:miter;stroke-miterlimit:2.61310005;stroke-dasharray:none;stroke-opacity:1"
         d="M 3289.3,7.23438 V 1091.88" /><path
         id="path40"
         style="fill:none;stroke:#101211;stroke-width:2.16000009;stroke-linecap:butt;stroke-linejoin:miter;stroke-miterlimit:2.61310005;stroke-dasharray:none;stroke-opacity:1"
         d="M 3394.15,7.23438 V 1091.88" /><path
         id="path42"
         style="fill:none;stroke:#101211;stroke-width:2.16000009;stroke-linecap:butt;stroke-linejoin:miter;stroke-miterlimit:2.61310005;stroke-dasharray:none;stroke-opacity:1"
         d="M 2450.54,115.695 H 3498.99" /><path
         id="path44"
         style="fill:none;stroke:#101211;stroke-width:2.16000009;stroke-linecap:butt;stroke-linejoin:miter;stroke-miterlimit:2.61310005;stroke-dasharray:none;stroke-opacity:1"
         d="M 2450.54,224.16 H 3498.99" /><path
         id="path46"
         style="fill:none;stroke:#101211;stroke-width:2.16000009;stroke-linecap:butt;stroke-linejoin:miter;stroke-miterlimit:2.61310005;stroke-dasharray:none;stroke-opacity:1"
         d="M 2450.54,332.625 H 3498.99" /><path
         id="path48"
         style="fill:none;stroke:#101211;stroke-width:2.16000009;stroke-linecap:butt;stroke-linejoin:miter;stroke-miterlimit:2.61310005;stroke-dasharray:none;stroke-opacity:1"
         d="M 2450.54,441.09 H 3498.99" /><path
         id="path50"
         style="fill:none;stroke:#101211;stroke-width:2.16000009;stroke-linecap:butt;stroke-linejoin:miter;stroke-miterlimit:2.61310005;stroke-dasharray:none;stroke-opacity:1"
         d="M 2450.54,549.555 H 3498.99" /><path
         id="path52"
         style="fill:none;stroke:#101211;stroke-width:2.16000009;stroke-linecap:butt;stroke-linejoin:miter;stroke-miterlimit:2.61310005;stroke-dasharray:none;stroke-opacity:1"
         d="M 2450.54,658.02 H 3498.99" /><path
         id="path54"
         style="fill:none;stroke:#101211;stroke-width:2.16000009;stroke-linecap:butt;stroke-linejoin:miter;stroke-miterlimit:2.61310005;stroke-dasharray:none;stroke-opacity:1"
         d="M 2450.54,766.48 H 3498.99" /><path
         id="path56"
         style="fill:none;stroke:#101211;stroke-width:2.16000009;stroke-linecap:butt;stroke-linejoin:miter;stroke-miterlimit:2.61310005;stroke-dasharray:none;stroke-opacity:1"
         d="M 2450.54,874.945 H 3498.99" /><path
         id="path58"
         style="fill:none;stroke:#101211;stroke-width:2.16000009;stroke-linecap:butt;stroke-linejoin:miter;stroke-miterlimit:2.61310005;stroke-dasharray:none;stroke-opacity:1"
         d="M 2450.54,983.414 H 3498.99" /><path
         id="path60"
         style="fill:none;stroke:#231f20;stroke-width:7.5005002;stroke-linecap:butt;stroke-linejoin:miter;stroke-miterlimit:2.61310005;stroke-dasharray:none;stroke-opacity:1"
         d="M 2450.54,549.555 H 3455.25" /><path
         id="path62"
         style="fill:#231f20;fill-opacity:1;fill-rule:evenodd;stroke:none"
         d="m 3451.09,575.902 47.9,-26.347 -47.9,-26.348 v 52.695" /><path
         id="path64"
         style="fill:none;stroke:#231f20;stroke-width:7.5005002;stroke-linecap:butt;stroke-linejoin:miter;stroke-miterlimit:2.61310005;stroke-dasharray:none;stroke-opacity:1"
         d="M 3079.61,7.23438 V 1048.13" /><path
         id="path66"
         style="fill:#231f20;fill-opacity:1;fill-rule:evenodd;stroke:none"
         d="m 3053.26,1043.98 26.35,47.9 26.35,-47.9 h -52.7" /><path
         id="path68"
         style="fill:none;stroke:#0b0c0b;stroke-width:7.5005002;stroke-linecap:butt;stroke-linejoin:miter;stroke-miterlimit:2.61310005;stroke-dasharray:none;stroke-opacity:1"
         d="m 2697.37,1091.88 4.79,-26.03 5.25,-27.93 5.24,-27.39 5.24,-26.846 5.25,-26.301 5.24,-25.758 5.24,-25.223 5.24,-24.675 5.25,-24.133 5.23,-23.594 5.25,-23.043 5.24,-22.508 5.24,-21.969 5.25,-21.418 5.24,-20.882 5.24,-20.336 5.24,-19.793 5.25,-19.254 5.23,-18.707 5.25,-18.172 5.24,-17.625 5.24,-17.082 5.25,-16.539 5.24,-16 5.24,-15.457 5.24,-14.914 5.24,-14.371 5.25,-13.825 5.24,-13.289 5.24,-12.746 5.24,-12.199 5.25,-11.664 5.24,-11.117 5.24,-10.574 5.25,-10.032 5.24,-9.492 5.24,-8.949 5.24,-8.406 5.25,-7.864 5.23,-7.32 5.25,-6.781 5.24,-6.234 5.24,-5.696 5.25,-5.152 5.24,-4.61 5.24,-4.066 5.24,-3.527 5.24,-2.985 5.24,-2.437 5.25,-1.899 5.24,-1.355 5.24,-0.813 5.25,-0.273 5.24,0.273 5.24,0.813 5.24,1.355 5.24,1.899 5.25,2.437 5.24,2.985 5.24,3.527 5.24,4.066 5.25,4.61 5.24,5.152 5.24,5.696 5.24,6.234 5.24,6.781 5.25,7.32 5.24,7.864 5.24,8.406 5.24,8.949 5.24,9.492 5.25,10.032 5.24,10.574 5.25,11.117 5.23,11.664 5.25,12.199 5.24,12.746 5.24,13.289 5.24,13.825 5.24,14.371 5.25,14.914 5.24,15.457 5.25,16 5.23,16.539 5.25,17.082 5.24,17.625 5.24,18.172 5.25,18.707 5.23,19.254 5.25,19.793 5.24,20.336 5.24,20.882 5.24,21.418 5.25,21.969 5.24,22.508 5.24,23.043 5.25,23.594 5.24,24.133 5.24,24.675 5.24,25.223 5.24,25.758 5.24,26.301 5.25,26.846 5.24,27.39 5.24,27.93 4.8,26.03" /><path
         id="path70"
         style="fill:#ffffff;fill-opacity:1;fill-rule:evenodd;stroke:none"
         d="M 1226.54,7.23438 H 2275 V 1091.8744 H 1226.54 Z" /><path
         id="path72"
         style="fill:none;stroke:#0b0c0b;stroke-width:2.16000009;stroke-linecap:butt;stroke-linejoin:miter;stroke-miterlimit:2.61310005;stroke-dasharray:none;stroke-opacity:1"
         d="M 1226.54,7.23438 H 2275 V 1091.8744 H 1226.54 Z" /><path
         id="path74"
         style="fill:none;stroke:#101211;stroke-width:2.16000009;stroke-linecap:butt;stroke-linejoin:miter;stroke-miterlimit:2.61310005;stroke-dasharray:none;stroke-opacity:1"
         d="M 1331.38,7.23438 V 1091.88" /><path
         id="path76"
         style="fill:none;stroke:#101211;stroke-width:2.16000009;stroke-linecap:butt;stroke-linejoin:miter;stroke-miterlimit:2.61310005;stroke-dasharray:none;stroke-opacity:1"
         d="M 1436.23,7.23438 V 1091.88" /><path
         id="path78"
         style="fill:none;stroke:#101211;stroke-width:2.16000009;stroke-linecap:butt;stroke-linejoin:miter;stroke-miterlimit:2.61310005;stroke-dasharray:none;stroke-opacity:1"
         d="M 1541.07,7.23438 V 1091.88" /><path
         id="path80"
         style="fill:none;stroke:#101211;stroke-width:2.16000009;stroke-linecap:butt;stroke-linejoin:miter;stroke-miterlimit:2.61310005;stroke-dasharray:none;stroke-opacity:1"
         d="M 1645.92,7.23438 V 1091.88" /><path
         id="path82"
         style="fill:none;stroke:#101211;stroke-width:2.16000009;stroke-linecap:butt;stroke-linejoin:miter;stroke-miterlimit:2.61310005;stroke-dasharray:none;stroke-opacity:1"
         d="M 1750.77,7.23438 V 1091.88" /><path
         id="path84"
         style="fill:none;stroke:#101211;stroke-width:2.16000009;stroke-linecap:butt;stroke-linejoin:miter;stroke-miterlimit:2.61310005;stroke-dasharray:none;stroke-opacity:1"
         d="M 1855.61,7.23438 V 1091.88" /><path
         id="path86"
         style="fill:none;stroke:#101211;stroke-width:2.16000009;stroke-linecap:butt;stroke-linejoin:miter;stroke-miterlimit:2.61310005;stroke-dasharray:none;stroke-opacity:1"
         d="M 1960.45,7.23438 V 1091.88" /><path
         id="path88"
         style="fill:none;stroke:#101211;stroke-width:2.16000009;stroke-linecap:butt;stroke-linejoin:miter;stroke-miterlimit:2.61310005;stroke-dasharray:none;stroke-opacity:1"
         d="M 2065.3,7.23438 V 1091.88" /><path
         id="path90"
         style="fill:none;stroke:#101211;stroke-width:2.16000009;stroke-linecap:butt;stroke-linejoin:miter;stroke-miterlimit:2.61310005;stroke-dasharray:none;stroke-opacity:1"
         d="M 2170.15,7.23438 V 1091.88" /><path
         id="path92"
         style="fill:none;stroke:#101211;stroke-width:2.16000009;stroke-linecap:butt;stroke-linejoin:miter;stroke-miterlimit:2.61310005;stroke-dasharray:none;stroke-opacity:1"
         d="M 1226.54,115.695 H 2274.99" /><path
         id="path94"
         style="fill:none;stroke:#101211;stroke-width:2.16000009;stroke-linecap:butt;stroke-linejoin:miter;stroke-miterlimit:2.61310005;stroke-dasharray:none;stroke-opacity:1"
         d="M 1226.54,224.16 H 2274.99" /><path
         id="path96"
         style="fill:none;stroke:#101211;stroke-width:2.16000009;stroke-linecap:butt;stroke-linejoin:miter;stroke-miterlimit:2.61310005;stroke-dasharray:none;stroke-opacity:1"
         d="M 1226.54,332.625 H 2274.99" /><path
         id="path98"
         style="fill:none;stroke:#101211;stroke-width:2.16000009;stroke-linecap:butt;stroke-linejoin:miter;stroke-miterlimit:2.61310005;stroke-dasharray:none;stroke-opacity:1"
         d="M 1226.54,441.09 H 2274.99" /><path
         id="path100"
         style="fill:none;stroke:#101211;stroke-width:2.16000009;stroke-linecap:butt;stroke-linejoin:miter;stroke-miterlimit:2.61310005;stroke-dasharray:none;stroke-opacity:1"
         d="M 1226.54,549.555 H 2274.99" /><path
         id="path102"
         style="fill:none;stroke:#101211;stroke-width:2.16000009;stroke-linecap:butt;stroke-linejoin:miter;stroke-miterlimit:2.61310005;stroke-dasharray:none;stroke-opacity:1"
         d="M 1226.54,658.02 H 2274.99" /><path
         id="path104"
         style="fill:none;stroke:#101211;stroke-width:2.16000009;stroke-linecap:butt;stroke-linejoin:miter;stroke-miterlimit:2.61310005;stroke-dasharray:none;stroke-opacity:1"
         d="M 1226.54,766.48 H 2274.99" /><path
         id="path106"
         style="fill:none;stroke:#101211;stroke-width:2.16000009;stroke-linecap:butt;stroke-linejoin:miter;stroke-miterlimit:2.61310005;stroke-dasharray:none;stroke-opacity:1"
         d="M 1226.54,874.945 H 2274.99" /><path
         id="path108"
         style="fill:none;stroke:#101211;stroke-width:2.16000009;stroke-linecap:butt;stroke-linejoin:miter;stroke-miterlimit:2.61310005;stroke-dasharray:none;stroke-opacity:1"
         d="M 1226.54,983.414 H 2274.99" /><path
         id="path110"
         style="fill:none;stroke:#231f20;stroke-width:7.5005002;stroke-linecap:butt;stroke-linejoin:miter;stroke-miterlimit:2.61310005;stroke-dasharray:none;stroke-opacity:1"
         d="M 1226.54,549.555 H 2231.25" /><path
         id="path112"
         style="fill:#231f20;fill-opacity:1;fill-rule:evenodd;stroke:none"
         d="m 2227.09,575.902 47.9,-26.347 -47.9,-26.348 v 52.695" /><path
         id="path114"
         style="fill:none;stroke:#231f20;stroke-width:7.5005002;stroke-linecap:butt;stroke-linejoin:miter;stroke-miterlimit:2.61310005;stroke-dasharray:none;stroke-opacity:1"
         d="M 1855.61,7.23438 V 1048.13" /><path
         id="path116"
         style="fill:#231f20;fill-opacity:1;fill-rule:evenodd;stroke:none"
         d="m 1829.26,1043.98 26.35,47.9 26.35,-47.9 h -52.7" /><path
         id="path118"
         style="fill:none;stroke:#0b0c0b;stroke-width:7.5005002;stroke-linecap:butt;stroke-linejoin:miter;stroke-miterlimit:2.61310005;stroke-dasharray:none;stroke-opacity:1"
         d="m 1803.58,1.21484 v 0 l 5.24,21.68746 5.24,21.6954 5.24,21.6914 5.25,21.6953 5.24,21.6916 5.24,21.691 5.24,21.695 5.25,21.692 5.24,21.695 5.24,21.692 5.24,21.691 5.25,21.695 5.24,21.692 5.24,21.695 5.24,21.691 5.24,21.692 5.25,21.695 5.24,21.692 5.24,21.695 5.24,21.691 5.25,21.692 5.24,21.695 5.24,21.691 5.24,21.692 5.25,21.695 5.24,21.692 5.24,21.695 5.24,21.691 5.25,21.692 5.24,21.695 5.24,21.691 5.24,21.692 5.24,21.695 5.25,21.692 5.24,21.691 5.24,21.695 5.24,21.692 5.25,21.695 5.24,21.691 5.24,21.692 5.24,21.695 5.24,21.691 5.25,21.692 5.24,21.695 5.24,21.692 5.24,21.695 5.24,21.694 5.25,21.69 5.24,21.69 5.24,21.7 v 0" /><path
         id="path120"
         style="fill:#ffffff;fill-opacity:1;fill-rule:evenodd;stroke:none"
         d="M 2.53516,7.23438 H 1050.9952 V 1091.8744 H 2.53516 Z" /><path
         id="path122"
         style="fill:none;stroke:#0b0c0b;stroke-width:2.16000009;stroke-linecap:butt;stroke-linejoin:miter;stroke-miterlimit:2.61310005;stroke-dasharray:none;stroke-opacity:1"
         d="M 2.53516,7.23438 H 1050.9952 V 1091.8744 H 2.53516 Z" /><path
         id="path124"
         style="fill:none;stroke:#101211;stroke-width:2.16000009;stroke-linecap:butt;stroke-linejoin:miter;stroke-miterlimit:2.61310005;stroke-dasharray:none;stroke-opacity:1"
         d="M 107.383,7.23438 V 1091.88" /><path
         id="path126"
         style="fill:none;stroke:#101211;stroke-width:2.16000009;stroke-linecap:butt;stroke-linejoin:miter;stroke-miterlimit:2.61310005;stroke-dasharray:none;stroke-opacity:1"
         d="M 212.227,7.23438 V 1091.88" /><path
         id="path128"
         style="fill:none;stroke:#101211;stroke-width:2.16000009;stroke-linecap:butt;stroke-linejoin:miter;stroke-miterlimit:2.61310005;stroke-dasharray:none;stroke-opacity:1"
         d="M 317.074,7.23438 V 1091.88" /><path
         id="path130"
         style="fill:none;stroke:#101211;stroke-width:2.16000009;stroke-linecap:butt;stroke-linejoin:miter;stroke-miterlimit:2.61310005;stroke-dasharray:none;stroke-opacity:1"
         d="M 421.918,7.23438 V 1091.88" /><path
         id="path132"
         style="fill:none;stroke:#101211;stroke-width:2.16000009;stroke-linecap:butt;stroke-linejoin:miter;stroke-miterlimit:2.61310005;stroke-dasharray:none;stroke-opacity:1"
         d="M 526.766,7.23438 V 1048.13" /><path
         id="path134"
         style="fill:#101211;fill-opacity:1;fill-rule:evenodd;stroke:none"
         d="m 500.418,1043.98 26.348,47.9 26.347,-47.9 h -52.695" /><path
         id="path136"
         style="fill:none;stroke:#101211;stroke-width:2.16000009;stroke-linecap:butt;stroke-linejoin:miter;stroke-miterlimit:2.61310005;stroke-dasharray:none;stroke-opacity:1"
         d="M 631.609,7.23438 V 1091.88" /><path
         id="path138"
         style="fill:none;stroke:#101211;stroke-width:2.16000009;stroke-linecap:butt;stroke-linejoin:miter;stroke-miterlimit:2.61310005;stroke-dasharray:none;stroke-opacity:1"
         d="M 736.453,7.23438 V 1091.88" /><path
         id="path140"
         style="fill:none;stroke:#101211;stroke-width:2.16000009;stroke-linecap:butt;stroke-linejoin:miter;stroke-miterlimit:2.61310005;stroke-dasharray:none;stroke-opacity:1"
         d="M 841.301,7.23438 V 1091.88" /><path
         id="path142"
         style="fill:none;stroke:#101211;stroke-width:2.16000009;stroke-linecap:butt;stroke-linejoin:miter;stroke-miterlimit:2.61310005;stroke-dasharray:none;stroke-opacity:1"
         d="M 946.148,7.23438 V 1091.88" /><path
         id="path144"
         style="fill:none;stroke:#101211;stroke-width:2.16000009;stroke-linecap:butt;stroke-linejoin:miter;stroke-miterlimit:2.61310005;stroke-dasharray:none;stroke-opacity:1"
         d="M 2.53516,115.695 H 1050.99" /><path
         id="path146"
         style="fill:none;stroke:#101211;stroke-width:2.16000009;stroke-linecap:butt;stroke-linejoin:miter;stroke-miterlimit:2.61310005;stroke-dasharray:none;stroke-opacity:1"
         d="M 2.53516,224.16 H 1050.99" /><path
         id="path148"
         style="fill:none;stroke:#101211;stroke-width:2.16000009;stroke-linecap:butt;stroke-linejoin:miter;stroke-miterlimit:2.61310005;stroke-dasharray:none;stroke-opacity:1"
         d="M 2.53516,332.625 H 1050.99" /><path
         id="path150"
         style="fill:none;stroke:#101211;stroke-width:2.16000009;stroke-linecap:butt;stroke-linejoin:miter;stroke-miterlimit:2.61310005;stroke-dasharray:none;stroke-opacity:1"
         d="M 2.53516,441.09 H 1050.99" /><path
         id="path152"
         style="fill:none;stroke:#101211;stroke-width:2.16000009;stroke-linecap:butt;stroke-linejoin:miter;stroke-miterlimit:2.61310005;stroke-dasharray:none;stroke-opacity:1"
         d="M 2.53516,549.555 H 1050.99" /><path
         id="path154"
         style="fill:none;stroke:#101211;stroke-width:5.00029993;stroke-linecap:butt;stroke-linejoin:miter;stroke-miterlimit:2.61310005;stroke-dasharray:25.0015, 15.0009;stroke-dashoffset:0;stroke-opacity:1"
         d="M 2.53516,658.02 H 1050.99" /><path
         id="path156"
         style="fill:none;stroke:#101211;stroke-width:2.16000009;stroke-linecap:butt;stroke-linejoin:miter;stroke-miterlimit:2.61310005;stroke-dasharray:none;stroke-opacity:1"
         d="M 2.53516,766.48 H 1050.99" /><path
         id="path158"
         style="fill:none;stroke:#101211;stroke-width:2.16000009;stroke-linecap:butt;stroke-linejoin:miter;stroke-miterlimit:2.61310005;stroke-dasharray:none;stroke-opacity:1"
         d="M 2.53516,874.945 H 1050.99" /><path
         id="path160"
         style="fill:#231f20;fill-opacity:1;fill-rule:nonzero;stroke:none"
         d="m 622.434,489.145 16.117,7.867 h 1.617 v -55.918 c 0,-3.699 0.148,-6.016 0.449,-6.93 0.317,-0.902 0.969,-1.602 1.934,-2.102 0.984,-0.484 2.969,-0.765 5.969,-0.835 v -1.797 h -24.918 v 1.797 c 3.132,0.07 5.152,0.335 6.066,0.816 0.902,0.469 1.535,1.102 1.898,1.902 0.352,0.801 0.536,3.184 0.536,7.149 v 35.75 c 0,4.816 -0.168,7.902 -0.485,9.269 -0.23,1.047 -0.648,1.817 -1.25,2.297 -0.601,0.485 -1.316,0.735 -2.164,0.735 -1.203,0 -2.883,-0.5 -5.035,-1.516 l -0.734,1.516" /><path
         id="path162"
         style="fill:none;stroke:#101211;stroke-width:2.16000009;stroke-linecap:butt;stroke-linejoin:miter;stroke-miterlimit:2.61310005;stroke-dasharray:none;stroke-opacity:1"
         d="M 2.53516,983.414 H 1050.99" /><path
         id="path164"
         style="fill:none;stroke:#231f20;stroke-width:7.5005002;stroke-linecap:butt;stroke-linejoin:miter;stroke-miterlimit:2.61310005;stroke-dasharray:none;stroke-opacity:1"
         d="M 2.53516,549.555 H 1007.25" /><path
         id="path166"
         style="fill:#231f20;fill-opacity:1;fill-rule:evenodd;stroke:none"
         d="m 1003.09,575.902 47.9,-26.347 -47.9,-26.348 v 52.695" /><path
         id="path168"
         style="fill:none;stroke:#0b0c0b;stroke-width:7.5005002;stroke-linecap:butt;stroke-linejoin:miter;stroke-miterlimit:2.61310005;stroke-dasharray:none;stroke-opacity:1"
         d="m 2.53516,679.711 5.24218,0.223 5.24606,0.218 5.2383,0.231 5.2461,0.234 5.2383,0.238 5.2422,0.243 5.2422,0.246 5.2461,0.254 5.2382,0.257 5.2461,0.27 5.2422,0.27 5.2383,0.277 5.2461,0.281 5.2422,0.289 5.2422,0.297 5.2383,0.305 5.246,0.312 5.2383,0.317 5.2465,0.328 5.242,0.336 5.242,0.343 5.242,0.352 5.242,0.359 5.243,0.371 5.242,0.383 5.242,0.391 5.242,0.398 5.242,0.414 5.242,0.422 5.243,0.438 5.242,0.449 5.246,0.465 5.238,0.476 5.246,0.489 5.243,0.504 5.238,0.523 5.242,0.539 5.242,0.555 5.242,0.574 5.243,0.594 5.246,0.613 5.238,0.633 5.246,0.656 5.242,0.676 5.239,0.703 5.242,0.734 5.246,0.758 5.238,0.789 5.246,0.817 5.242,0.851 5.239,0.887 5.246,0.922 5.242,0.961 5.242,1 5.242,1.051 5.242,1.093 5.239,1.149 5.246,1.199 5.242,1.262 5.242,1.32 5.242,1.391 5.243,1.464 5.242,1.543 5.242,1.629 5.242,1.723 5.238,1.824 5.247,1.93 5.242,2.058 5.242,2.184 5.242,2.332 5.242,2.496 5.242,2.668 5.243,2.871 5.242,3.094 5.242,3.336 5.242,3.613 5.242,3.93 5.243,4.289 5.242,4.695 5.242,5.16 5.242,5.711 5.246,6.344 5.239,7.09 5.242,7.977 5.246,9.035 5.238,10.332 5.242,11.918 5.242,13.906 5.243,16.434 5.242,19.718 5.246,24.11 5.238,30.129 5.246,38.734 5.242,51.652 5.243,72.31 v 0" /><path
         id="path170"
         style="fill:none;stroke:#0b0c0b;stroke-width:7.5005002;stroke-linecap:butt;stroke-linejoin:miter;stroke-miterlimit:2.61310005;stroke-dasharray:none;stroke-opacity:1"
         d="M 521.527,1091.88 V 7.23438" /><path
         id="path172"
         style="fill:none;stroke:#0b0c0b;stroke-width:7.5005002;stroke-linecap:butt;stroke-linejoin:miter;stroke-miterlimit:2.61310005;stroke-dasharray:none;stroke-opacity:1"
         d="m 544.59,7.23438 3.144,108.46062 5.243,108.465 5.242,72.309 5.242,51.652 5.242,38.738 5.242,30.129 5.243,24.102 5.242,19.722 5.242,16.434 5.242,13.906 5.242,11.918 5.246,10.328 5.239,9.04 5.242,7.976 5.242,7.09 5.242,6.344 5.242,5.707 5.246,5.164 5.239,4.695 5.242,4.285 5.246,3.934 5.238,3.613 5.242,3.34 5.243,3.09 5.242,2.867 5.242,2.676 5.246,2.492 5.238,2.332 5.247,2.187 5.242,2.051 5.238,1.938 5.246,1.82 5.238,1.723 5.243,1.629 5.242,1.543 5.246,1.461 5.238,1.394 5.246,1.32 5.242,1.262 5.243,1.199 5.242,1.149 5.242,1.093 5.238,1.047 5.246,1.004 5.243,0.961 5.238,0.926 5.246,0.883 5.242,0.855 5.242,0.817 5.242,0.785 5.243,0.758 5.242,0.73 5.242,0.703 5.242,0.68 5.242,0.66 5.243,0.633 5.242,0.609 5.242,0.594 5.242,0.574 5.246,0.559 5.239,0.535 5.246,0.52 5.238,0.507 5.242,0.489 5.242,0.476 5.246,0.465 5.239,0.449 5.242,0.434 5.246,0.426 5.238,0.414 5.246,0.398 5.243,0.395 5.238,0.379 5.242,0.371 5.246,0.359 5.238,0.352 5.246,0.343 5.243,0.336 5.238,0.328 5.246,0.317 5.242,0.312 5.242,0.301 5.239,0.297 5.246,0.293 5.238,0.285 5.246,0.274 5.242,0.269 5.24,0.266 5.24,0.261 5.25,0.254 5.24,0.25 5.24,0.239 5.24,0.238 5.24,0.234 5.25,0.227 5.24,0.226 5.24,0.219" /><path
         id="path174"
         style="fill:#231f20;fill-opacity:1;fill-rule:nonzero;stroke:none"
         d="m 446.773,1077.51 c 1.102,-1.88 1.868,-3.65 2.301,-5.28 0.414,-1.65 0.832,-4.89 1.266,-9.7 l 2.148,-24.02 c 1.95,2.33 4.785,6.05 8.5,11.13 1.785,2.47 4,5.84 6.633,10.1 1.602,2.6 2.57,4.44 2.934,5.47 0.183,0.52 0.285,1.07 0.285,1.62 0,0.35 -0.102,0.65 -0.336,0.88 -0.231,0.22 -0.816,0.48 -1.781,0.8 -0.969,0.3 -1.766,0.88 -2.399,1.7 -0.636,0.83 -0.953,1.78 -0.953,2.87 0,1.33 0.402,2.4 1.184,3.21 0.765,0.82 1.75,1.22 2.918,1.22 1.433,0 2.652,-0.58 3.664,-1.78 1.019,-1.19 1.519,-2.82 1.519,-4.91 0,-2.56 -0.883,-5.51 -2.636,-8.81 -1.766,-3.3 -5.145,-8.37 -10.165,-15.2 -5,-6.85 -11.082,-14.3 -18.199,-22.36 -4.914,-5.57 -8.566,-9.09 -10.949,-10.54 -2.367,-1.43 -4.402,-2.16 -6.102,-2.16 -1.015,0 -1.898,0.38 -2.664,1.14 -0.769,0.77 -1.132,1.66 -1.132,2.67 0,1.27 0.515,2.42 1.582,3.47 1.05,1.03 2.199,1.55 3.433,1.55 0.649,0 1.199,-0.13 1.617,-0.44 0.266,-0.16 0.547,-0.63 0.848,-1.4 0.316,-0.74 0.598,-1.26 0.867,-1.53 0.149,-0.16 0.352,-0.23 0.582,-0.23 0.184,0 0.535,0.15 1.02,0.48 1.797,1.1 3.883,2.87 6.25,5.27 3.133,3.2 5.433,5.8 6.933,7.81 l -2.738,30.96 c -0.445,5.11 -1.129,8.23 -2.047,9.32 -0.918,1.11 -2.433,1.67 -4.586,1.67 -0.679,0 -1.914,-0.1 -3.664,-0.3 l -0.433,1.8 14.3,3.52" /><path
         id="path176"
         style="fill:#231f20;fill-opacity:1;fill-rule:nonzero;stroke:none"
         d="m 998.496,507.789 c 1.594,-1.684 2.804,-3.383 3.614,-5.066 0.59,-1.184 1.55,-4.25 2.89,-9.235 l 4.29,6.453 c 1.14,1.547 2.52,3.047 4.16,4.465 1.61,1.414 3.05,2.383 4.28,2.899 0.78,0.332 1.65,0.484 2.6,0.484 1.4,0 2.5,-0.367 3.33,-1.117 0.83,-0.75 1.25,-1.668 1.25,-2.731 0,-1.234 -0.25,-2.086 -0.73,-2.535 -0.92,-0.816 -1.95,-1.234 -3.12,-1.234 -0.68,0 -1.42,0.152 -2.2,0.449 -1.53,0.52 -2.57,0.785 -3.08,0.785 -0.78,0 -1.7,-0.468 -2.79,-1.367 -2.01,-1.699 -4.41,-4.965 -7.21,-9.816 l 4,-16.801 c 0.61,-2.567 1.13,-4.117 1.56,-4.617 0.42,-0.5 0.84,-0.75 1.27,-0.75 0.68,0 1.48,0.367 2.39,1.117 1.8,1.5 3.31,3.449 4.59,5.867 l 1.7,-0.883 c -2.05,-3.847 -4.65,-7.031 -7.81,-9.566 -1.78,-1.434 -3.3,-2.152 -4.54,-2.152 -1.81,0 -3.26,1.019 -4.35,3.066 -0.68,1.269 -2.09,6.754 -4.25,16.418 -5.063,-8.832 -9.129,-14.5 -12.195,-17.051 -1.985,-1.613 -3.899,-2.433 -5.766,-2.433 -1.301,0 -2.484,0.468 -3.567,1.417 -0.765,0.719 -1.167,1.668 -1.167,2.883 0,1.071 0.367,1.969 1.085,2.684 0.7,0.719 1.582,1.066 2.633,1.066 1.032,0 2.149,-0.515 3.317,-1.566 0.847,-0.75 1.5,-1.113 1.949,-1.113 0.398,0 0.898,0.265 1.516,0.781 1.535,1.23 3.617,3.898 6.25,8 2.632,4.101 4.367,7.066 5.183,8.898 -2.031,7.903 -3.117,12.086 -3.281,12.535 -0.754,2.114 -1.719,3.614 -2.934,4.5 -1.199,0.883 -2.968,1.317 -5.32,1.317 -0.746,0 -1.613,-0.035 -2.582,-0.102 v 1.766 l 13.035,2.285" /><path
         id="path178"
         style="fill:#231f20;fill-opacity:1;fill-rule:nonzero;stroke:none"
         d="m 474.367,691.602 16.121,7.867 h 1.614 v -55.918 c 0,-3.699 0.152,-6.016 0.453,-6.934 0.316,-0.898 0.965,-1.601 1.929,-2.097 0.985,-0.489 2.969,-0.766 5.969,-0.836 v -1.801 h -24.918 v 1.801 c 3.133,0.07 5.153,0.336 6.067,0.816 0.902,0.469 1.535,1.102 1.902,1.898 0.348,0.805 0.535,3.184 0.535,7.153 v 35.75 c 0,4.816 -0.168,7.902 -0.484,9.265 -0.235,1.051 -0.653,1.821 -1.25,2.301 -0.602,0.485 -1.317,0.735 -2.168,0.735 -1.203,0 -2.883,-0.504 -5.035,-1.516 l -0.735,1.516" /><path
         id="path180"
         style="fill:#231f20;fill-opacity:1;fill-rule:nonzero;stroke:none"
         d="m 466.27,489.34 c 0,7.551 1.136,14.051 3.418,19.5 2.285,5.453 5.3,9.515 9.082,12.183 2.933,2.118 5.953,3.184 9.082,3.184 5.066,0 9.636,-2.602 13.668,-7.766 5.05,-6.418 7.566,-15.101 7.566,-26.086 0,-7.679 -1.098,-14.199 -3.316,-19.562 -2.215,-5.383 -5.032,-9.285 -8.465,-11.703 -3.434,-2.434 -6.75,-3.633 -9.95,-3.633 -6.3,0 -11.57,3.719 -15.765,11.184 -3.555,6.281 -5.32,13.851 -5.32,22.699 z m 9.566,-1.215 c 0,-9.117 1.117,-16.566 3.367,-22.316 1.852,-4.852 4.633,-7.286 8.301,-7.286 1.766,0 3.582,0.801 5.465,2.368 1.898,1.586 3.336,4.234 4.301,7.933 1.5,5.598 2.25,13.5 2.25,23.684 0,7.547 -0.786,13.847 -2.348,18.898 -1.168,3.75 -2.688,6.399 -4.535,7.969 -1.332,1.066 -2.949,1.598 -4.836,1.598 -2.215,0 -4.18,-0.985 -5.914,-2.965 -2.332,-2.703 -3.934,-6.949 -4.782,-12.75 -0.851,-5.801 -1.269,-11.5 -1.269,-17.133" /><path
         id="path182"
         style="fill:#231f20;fill-opacity:1;fill-rule:nonzero;stroke:none"
         d="m 1951.67,519.363 16.12,7.864 h 1.62 v -55.915 c 0,-3.703 0.14,-6.015 0.45,-6.933 0.32,-0.902 0.96,-1.602 1.93,-2.102 0.98,-0.484 2.97,-0.761 5.97,-0.832 v -1.8 h -24.92 v 1.8 c 3.13,0.071 5.15,0.336 6.07,0.817 0.9,0.468 1.53,1.101 1.89,1.898 0.36,0.805 0.54,3.184 0.54,7.152 v 35.75 c 0,4.817 -0.16,7.903 -0.48,9.266 -0.24,1.051 -0.65,1.817 -1.25,2.301 -0.6,0.484 -1.32,0.734 -2.17,0.734 -1.2,0 -2.88,-0.504 -5.03,-1.515 l -0.74,1.515" /><path
         id="path184"
         style="fill:#231f20;fill-opacity:1;fill-rule:nonzero;stroke:none"
         d="m 1797.16,1074.49 c 1.11,-1.88 1.87,-3.65 2.3,-5.29 0.42,-1.65 0.84,-4.88 1.27,-9.7 l 2.15,-24.01 c 1.95,2.33 4.78,6.05 8.5,11.13 1.78,2.47 4,5.83 6.63,10.1 1.6,2.6 2.57,4.43 2.94,5.47 0.18,0.51 0.28,1.06 0.28,1.61 0,0.36 -0.1,0.65 -0.34,0.89 -0.23,0.22 -0.81,0.48 -1.78,0.8 -0.97,0.3 -1.76,0.88 -2.4,1.7 -0.63,0.83 -0.95,1.78 -0.95,2.86 0,1.34 0.4,2.41 1.19,3.22 0.76,0.82 1.75,1.22 2.91,1.22 1.44,0 2.66,-0.59 3.67,-1.78 1.02,-1.19 1.52,-2.82 1.52,-4.91 0,-2.56 -0.89,-5.51 -2.64,-8.81 -1.76,-3.3 -5.14,-8.37 -10.16,-15.2 -5,-6.85 -11.09,-14.3 -18.2,-22.37 -4.92,-5.56 -8.57,-9.08 -10.95,-10.53 -2.37,-1.43 -4.4,-2.17 -6.1,-2.17 -1.02,0 -1.9,0.39 -2.67,1.16 -0.77,0.76 -1.13,1.64 -1.13,2.66 0,1.26 0.51,2.42 1.58,3.46 1.05,1.04 2.2,1.55 3.43,1.55 0.65,0 1.2,-0.13 1.62,-0.43 0.27,-0.17 0.55,-0.63 0.85,-1.4 0.32,-0.75 0.6,-1.27 0.87,-1.53 0.15,-0.17 0.35,-0.23 0.58,-0.23 0.18,0 0.53,0.15 1.02,0.48 1.8,1.1 3.88,2.86 6.25,5.27 3.13,3.19 5.43,5.8 6.93,7.81 l -2.73,30.95 c -0.45,5.12 -1.14,8.23 -2.05,9.33 -0.92,1.1 -2.44,1.67 -4.59,1.67 -0.68,0 -1.91,-0.1 -3.66,-0.3 l -0.44,1.8 14.3,3.52" /><path
         id="path186"
         style="fill:#231f20;fill-opacity:1;fill-rule:nonzero;stroke:none"
         d="m 2231.04,504.766 c 1.6,-1.684 2.8,-3.383 3.62,-5.063 0.58,-1.187 1.55,-4.254 2.88,-9.238 l 4.3,6.453 c 1.13,1.547 2.52,3.051 4.15,4.465 1.62,1.418 3.05,2.383 4.28,2.898 0.78,0.336 1.65,0.485 2.6,0.485 1.4,0 2.5,-0.364 3.33,-1.118 0.84,-0.75 1.25,-1.664 1.25,-2.73 0,-1.234 -0.25,-2.082 -0.73,-2.535 -0.92,-0.817 -1.95,-1.231 -3.11,-1.231 -0.69,0 -1.42,0.149 -2.2,0.45 -1.54,0.515 -2.57,0.781 -3.09,0.781 -0.78,0 -1.7,-0.469 -2.78,-1.367 -2.02,-1.7 -4.42,-4.965 -7.22,-9.817 l 4,-16.801 c 0.62,-2.562 1.13,-4.113 1.57,-4.617 0.41,-0.496 0.83,-0.746 1.27,-0.746 0.68,0 1.48,0.363 2.38,1.117 1.8,1.5 3.32,3.45 4.6,5.864 l 1.7,-0.883 c -2.05,-3.848 -4.65,-7.031 -7.82,-9.567 -1.78,-1.433 -3.3,-2.148 -4.53,-2.148 -1.82,0 -3.27,1.016 -4.35,3.066 -0.68,1.266 -2.1,6.75 -4.25,16.418 -5.07,-8.832 -9.14,-14.504 -12.2,-17.05 -1.98,-1.618 -3.9,-2.434 -5.77,-2.434 -1.3,0 -2.48,0.465 -3.56,1.414 -0.77,0.719 -1.17,1.668 -1.17,2.883 0,1.07 0.36,1.969 1.08,2.687 0.7,0.715 1.59,1.063 2.64,1.063 1.03,0 2.14,-0.516 3.31,-1.563 0.85,-0.75 1.5,-1.117 1.95,-1.117 0.4,0 0.9,0.266 1.52,0.781 1.53,1.235 3.61,3.903 6.25,8 2.63,4.102 4.36,7.067 5.18,8.903 -2.03,7.898 -3.11,12.082 -3.28,12.531 -0.75,2.117 -1.72,3.617 -2.93,4.5 -1.2,0.883 -2.97,1.32 -5.32,1.32 -0.75,0 -1.62,-0.035 -2.59,-0.105 v 1.765 l 13.04,2.286" /><path
         id="path188"
         style="fill:#231f20;fill-opacity:1;fill-rule:nonzero;stroke:none"
         d="m 1806.63,682.535 16.12,7.867 h 1.61 v -55.914 c 0,-3.703 0.15,-6.019 0.45,-6.933 0.32,-0.903 0.97,-1.602 1.94,-2.102 0.98,-0.484 2.96,-0.765 5.96,-0.832 v -1.801 h -24.91 v 1.801 c 3.13,0.067 5.15,0.332 6.06,0.817 0.91,0.464 1.54,1.097 1.9,1.898 0.35,0.801 0.54,3.184 0.54,7.152 v 35.75 c 0,4.813 -0.17,7.899 -0.49,9.266 -0.23,1.047 -0.65,1.816 -1.25,2.297 -0.6,0.484 -1.31,0.734 -2.16,0.734 -1.2,0 -2.88,-0.5 -5.04,-1.515 l -0.73,1.515" /><path
         id="path190"
         style="fill:#231f20;fill-opacity:1;fill-rule:nonzero;stroke:none"
         d="m 1816.66,489.34 c 0,7.551 1.14,14.051 3.42,19.5 2.28,5.453 5.3,9.515 9.08,12.183 2.93,2.118 5.95,3.184 9.09,3.184 5.06,0 9.63,-2.602 13.66,-7.766 5.05,-6.418 7.57,-15.101 7.57,-26.086 0,-7.679 -1.1,-14.199 -3.32,-19.562 -2.21,-5.383 -5.03,-9.285 -8.46,-11.703 -3.44,-2.434 -6.75,-3.633 -9.95,-3.633 -6.3,0 -11.57,3.719 -15.77,11.184 -3.55,6.281 -5.32,13.851 -5.32,22.699 z m 9.57,-1.215 c 0,-9.117 1.11,-16.566 3.37,-22.316 1.85,-4.852 4.63,-7.286 8.29,-7.286 1.77,0 3.59,0.801 5.47,2.368 1.9,1.586 3.34,4.234 4.3,7.933 1.5,5.598 2.25,13.5 2.25,23.684 0,7.547 -0.79,13.847 -2.35,18.898 -1.17,3.75 -2.68,6.399 -4.53,7.969 -1.33,1.066 -2.95,1.598 -4.84,1.598 -2.21,0 -4.18,-0.985 -5.91,-2.965 -2.33,-2.703 -3.93,-6.949 -4.78,-12.75 -0.86,-5.801 -1.27,-11.5 -1.27,-17.133" /><path
         id="path192"
         style="fill:#231f20;fill-opacity:1;fill-rule:nonzero;stroke:none"
         d="m 3169.63,507.277 16.12,7.864 h 1.61 v -55.914 c 0,-3.704 0.15,-6.02 0.45,-6.934 0.32,-0.902 0.97,-1.602 1.94,-2.102 0.98,-0.484 2.96,-0.765 5.96,-0.832 v -1.8 h -24.91 v 1.8 c 3.13,0.067 5.15,0.336 6.06,0.817 0.91,0.469 1.54,1.097 1.9,1.898 0.35,0.801 0.54,3.184 0.54,7.153 v 35.75 c 0,4.816 -0.17,7.898 -0.49,9.265 -0.23,1.051 -0.65,1.817 -1.25,2.301 -0.6,0.484 -1.31,0.734 -2.16,0.734 -1.2,0 -2.88,-0.504 -5.04,-1.519 l -0.73,1.519" /><path
         id="path194"
         style="fill:#231f20;fill-opacity:1;fill-rule:nonzero;stroke:none"
         d="m 3018.14,1074.49 c 1.1,-1.88 1.87,-3.65 2.3,-5.29 0.42,-1.65 0.83,-4.88 1.27,-9.7 l 2.15,-24.01 c 1.95,2.33 4.78,6.05 8.5,11.13 1.78,2.47 4,5.83 6.63,10.1 1.6,2.6 2.57,4.43 2.94,5.47 0.18,0.51 0.28,1.06 0.28,1.61 0,0.36 -0.1,0.65 -0.33,0.89 -0.24,0.22 -0.82,0.48 -1.79,0.8 -0.97,0.3 -1.77,0.88 -2.4,1.7 -0.63,0.83 -0.95,1.78 -0.95,2.86 0,1.34 0.4,2.41 1.19,3.22 0.76,0.82 1.75,1.22 2.91,1.22 1.43,0 2.65,-0.59 3.67,-1.78 1.01,-1.19 1.51,-2.82 1.51,-4.91 0,-2.56 -0.88,-5.51 -2.63,-8.81 -1.77,-3.3 -5.15,-8.37 -10.16,-15.2 -5,-6.85 -11.09,-14.3 -18.21,-22.37 -4.91,-5.56 -8.56,-9.08 -10.95,-10.53 -2.36,-1.43 -4.39,-2.17 -6.09,-2.17 -1.02,0 -1.91,0.39 -2.67,1.16 -0.77,0.76 -1.13,1.64 -1.13,2.66 0,1.26 0.51,2.42 1.58,3.46 1.05,1.04 2.2,1.55 3.44,1.55 0.64,0 1.19,-0.13 1.61,-0.43 0.26,-0.17 0.55,-0.63 0.85,-1.4 0.31,-0.75 0.6,-1.27 0.86,-1.53 0.16,-0.17 0.36,-0.23 0.59,-0.23 0.18,0 0.53,0.15 1.01,0.48 1.81,1.1 3.89,2.86 6.26,5.27 3.13,3.19 5.43,5.8 6.93,7.81 l -2.74,30.95 c -0.45,5.12 -1.13,8.23 -2.05,9.33 -0.91,1.1 -2.43,1.67 -4.58,1.67 -0.68,0 -1.92,-0.1 -3.66,-0.3 l -0.44,1.8 14.3,3.52" /><path
         id="path196"
         style="fill:#231f20;fill-opacity:1;fill-rule:nonzero;stroke:none"
         d="m 3436.91,516.855 c 1.6,-1.683 2.8,-3.386 3.61,-5.066 0.59,-1.184 1.55,-4.254 2.89,-9.234 l 4.3,6.449 c 1.13,1.547 2.52,3.051 4.15,4.465 1.61,1.418 3.05,2.383 4.28,2.898 0.78,0.336 1.65,0.488 2.6,0.488 1.4,0 2.5,-0.367 3.33,-1.117 0.84,-0.754 1.25,-1.668 1.25,-2.734 0,-1.234 -0.25,-2.082 -0.73,-2.535 -0.92,-0.817 -1.95,-1.231 -3.12,-1.231 -0.68,0 -1.41,0.149 -2.2,0.45 -1.53,0.515 -2.56,0.781 -3.08,0.781 -0.78,0 -1.7,-0.465 -2.78,-1.364 -2.02,-1.703 -4.42,-4.968 -7.22,-9.816 l 4,-16.801 c 0.62,-2.566 1.13,-4.117 1.57,-4.617 0.42,-0.5 0.83,-0.75 1.26,-0.75 0.69,0 1.49,0.367 2.39,1.117 1.8,1.5 3.32,3.45 4.6,5.864 l 1.7,-0.879 c -2.05,-3.852 -4.65,-7.035 -7.82,-9.567 -1.78,-1.437 -3.3,-2.152 -4.53,-2.152 -1.82,0 -3.27,1.016 -4.35,3.066 -0.69,1.266 -2.1,6.75 -4.25,16.418 -5.07,-8.832 -9.14,-14.504 -12.2,-17.05 -1.99,-1.618 -3.9,-2.434 -5.77,-2.434 -1.3,0 -2.48,0.469 -3.57,1.418 -0.76,0.715 -1.17,1.664 -1.17,2.883 0,1.066 0.38,1.965 1.09,2.683 0.7,0.715 1.58,1.067 2.64,1.067 1.03,0 2.15,-0.516 3.31,-1.567 0.85,-0.75 1.5,-1.117 1.95,-1.117 0.4,0 0.9,0.266 1.52,0.781 1.53,1.235 3.61,3.903 6.24,8 2.64,4.102 4.38,7.067 5.19,8.903 -2.03,7.898 -3.11,12.082 -3.28,12.535 -0.75,2.113 -1.72,3.613 -2.94,4.496 -1.2,0.887 -2.97,1.32 -5.31,1.32 -0.75,0 -1.62,-0.035 -2.58,-0.101 v 1.765 l 13.03,2.285" /><path
         id="path198"
         style="fill:#231f20;fill-opacity:1;fill-rule:nonzero;stroke:none"
         d="m 3024.59,682.535 16.11,7.867 h 1.62 v -55.914 c 0,-3.703 0.15,-6.019 0.45,-6.933 0.32,-0.903 0.97,-1.602 1.93,-2.102 0.99,-0.484 2.97,-0.765 5.97,-0.832 v -1.801 h -24.92 v 1.801 c 3.14,0.067 5.16,0.332 6.07,0.817 0.9,0.464 1.54,1.097 1.9,1.898 0.35,0.801 0.53,3.184 0.53,7.152 v 35.75 c 0,4.813 -0.16,7.899 -0.48,9.266 -0.23,1.047 -0.65,1.816 -1.25,2.297 -0.6,0.484 -1.31,0.734 -2.16,0.734 -1.21,0 -2.89,-0.5 -5.04,-1.515 l -0.73,1.515" /><path
         id="path200"
         style="fill:#231f20;fill-opacity:1;fill-rule:nonzero;stroke:none"
         d="m 3007.42,498.406 c 0,7.547 1.13,14.047 3.42,19.5 2.28,5.449 5.3,9.516 9.08,12.184 2.94,2.117 5.96,3.183 9.08,3.183 5.07,0 9.64,-2.601 13.67,-7.769 5.05,-6.418 7.57,-15.098 7.57,-26.082 0,-7.684 -1.1,-14.199 -3.32,-19.567 -2.21,-5.382 -5.03,-9.281 -8.46,-11.699 -3.44,-2.433 -6.75,-3.633 -9.95,-3.633 -6.3,0 -11.57,3.719 -15.77,11.184 -3.55,6.281 -5.32,13.852 -5.32,22.699 z m 9.57,-1.215 c 0,-9.121 1.12,-16.57 3.37,-22.316 1.85,-4.852 4.63,-7.285 8.3,-7.285 1.76,0 3.58,0.801 5.46,2.367 1.9,1.582 3.34,4.234 4.3,7.934 1.5,5.597 2.25,13.496 2.25,23.683 0,7.547 -0.78,13.848 -2.35,18.899 -1.16,3.75 -2.68,6.398 -4.53,7.965 -1.33,1.066 -2.95,1.601 -4.84,1.601 -2.21,0 -4.18,-0.984 -5.91,-2.965 -2.33,-2.703 -3.93,-6.953 -4.78,-12.75 -0.85,-5.801 -1.27,-11.5 -1.27,-17.133" /><path
         id="path202"
         style="fill:#231f20;fill-opacity:1;fill-rule:nonzero;stroke:none"
         d="m 1226.73,1241.57 h 46.53 l -5.03,-17.29 h -1.82 c 0.37,2.12 0.55,4.04 0.55,5.75 0,2.25 -0.45,4 -1.33,5.23 -0.86,1.24 -2.07,2.04 -3.58,2.39 -1.52,0.37 -4.49,0.55 -8.92,0.55 h -10.2 l -7.62,-26.13 h 6.65 c 5.65,0 9.9,-0.59 12.74,-1.75 2.83,-1.19 5.16,-3.17 6.98,-5.97 1.84,-2.8 2.73,-5.8 2.73,-9.03 0,-3.87 -1.31,-7.57 -3.98,-11.09 -2.65,-3.52 -5.9,-5.87 -9.73,-7.08 -3.84,-1.2 -8.37,-1.8 -13.57,-1.8 h -29.55 l 0.48,1.8 c 3.55,0.06 5.99,0.67 7.3,1.78 1.32,1.14 2.67,3.98 4.03,8.59 l 11.62,39.5 c 1.29,4.35 1.92,7.29 1.92,8.83 0,1.36 -0.5,2.35 -1.5,2.93 -0.98,0.58 -2.73,0.9 -5.25,0.97 z m -0.84,-61.92 c 2.54,-0.47 5.32,-0.69 8.36,-0.69 6.89,0 11.95,1.71 15.15,5.11 3.21,3.39 4.81,7.2 4.81,11.39 0,2.84 -0.76,5.34 -2.32,7.5 -1.54,2.17 -3.49,3.65 -5.83,4.47 -2.35,0.82 -5.5,1.22 -9.48,1.22 h -2.2 l -8.49,-29" /><path
         id="path204"
         style="fill:#231f20;fill-opacity:1;fill-rule:nonzero;stroke:none"
         d="m 1283.95,1243.85 1.66,0.93 c 3.87,-7.35 6.64,-13.87 8.3,-19.53 1.34,-4.42 2,-8.88 2,-13.39 0,-10.5 -2.43,-19.9 -7.28,-28.16 -5.99,-10.18 -15.63,-20.1 -28.95,-29.74 l -1.17,1.52 c 6.02,4.48 10.94,9.48 14.74,14.98 4.76,6.9 8.64,15.25 11.68,25.04 3.02,9.77 4.53,18.66 4.53,26.68 0,6.12 -1.83,13.34 -5.51,21.67" /><path
         id="path206"
         style="fill:#231f20;fill-opacity:1;fill-rule:nonzero;stroke:none"
         d="m 2427.86,1239.75 0.69,1.82 h 23.63 c 3.96,0 7.5,-0.62 10.62,-1.87 3.1,-1.24 5.43,-2.95 6.98,-5.17 1.55,-2.21 2.32,-4.57 2.32,-7.03 0,-3.82 -1.39,-7.25 -4.14,-10.34 -2.75,-3.06 -7.23,-5.34 -13.45,-6.8 4.02,-1.5 6.95,-3.48 8.85,-5.96 1.89,-2.47 2.84,-5.19 2.84,-8.15 0,-3.29 -0.85,-6.43 -2.56,-9.43 -1.68,-2.99 -3.86,-5.32 -6.51,-6.97 -2.65,-1.67 -5.85,-2.89 -9.6,-3.67 -2.67,-0.55 -6.83,-0.83 -12.5,-0.83 h -24.26 l 0.62,1.8 c 2.56,0.06 4.27,0.31 5.19,0.73 1.3,0.57 2.23,1.3 2.78,2.2 0.78,1.24 1.82,4.07 3.12,8.5 l 11.86,40.08 c 1.02,3.39 1.52,5.77 1.52,7.14 0,1.2 -0.45,2.15 -1.33,2.85 -0.9,0.7 -2.6,1.05 -5.12,1.05 -0.55,0 -1.06,0.01 -1.55,0.05 z m 9.9,-27.49 c 2.12,-0.06 3.65,-0.1 4.6,-0.1 6.77,0 11.8,1.47 15.12,4.42 3.3,2.95 4.95,6.63 4.95,11.07 0,3.35 -1.02,5.96 -3.04,7.83 -2.01,1.87 -5.23,2.8 -9.66,2.8 -1.17,0 -2.67,-0.18 -4.48,-0.58 z m -9.62,-32.61 c 3.52,-0.47 6.27,-0.69 8.26,-0.69 5.08,0 9.58,1.54 13.49,4.59 3.94,3.07 5.89,7.22 5.89,12.45 0,4 -1.2,7.13 -3.64,9.38 -2.41,2.25 -6.33,3.37 -11.73,3.37 -1.05,0 -2.32,-0.05 -3.82,-0.15 l -8.45,-28.95" /><path
         id="path208"
         style="fill:#231f20;fill-opacity:1;fill-rule:nonzero;stroke:none"
         d="m 2488.7,1243.85 1.66,0.93 c 3.87,-7.35 6.64,-13.87 8.3,-19.53 1.33,-4.42 2,-8.88 2,-13.39 0,-10.5 -2.43,-19.9 -7.28,-28.16 -5.99,-10.18 -15.63,-20.1 -28.95,-29.74 l -1.17,1.52 c 6.02,4.48 10.94,9.48 14.74,14.98 4.76,6.9 8.64,15.25 11.68,25.04 3.02,9.77 4.53,18.66 4.53,26.68 0,6.12 -1.83,13.34 -5.51,21.67" /></g></g></svg>