<?xml version="1.0" encoding="UTF-8" standalone="no"?>
<svg
   xmlns:dc="http://purl.org/dc/elements/1.1/"
   xmlns:cc="http://creativecommons.org/ns#"
   xmlns:rdf="http://www.w3.org/1999/02/22-rdf-syntax-ns#"
   xmlns:svg="http://www.w3.org/2000/svg"
   xmlns="http://www.w3.org/2000/svg"
   viewBox="0 0 437.32001 110.66667"
   height="110.66667"
   width="437.32001"
   xml:space="preserve"
   id="svg2"
   version="1.1"><metadata
     id="metadata8"><rdf:RDF><cc:Work
         rdf:about=""><dc:format>image/svg+xml</dc:format><dc:type
           rdf:resource="http://purl.org/dc/dcmitype/StillImage" /></cc:Work></rdf:RDF></metadata><defs
     id="defs6" /><g
     transform="matrix(1.3333333,0,0,-1.3333333,0,110.66667)"
     id="g10"><g
       transform="scale(0.1)"
       id="g12"><path
         id="path14"
         style="fill:none;stroke:#000000;stroke-width:5.19999981;stroke-linecap:round;stroke-linejoin:miter;stroke-miterlimit:10;stroke-dasharray:none;stroke-opacity:1"
         d="m 138.863,379.715 c 508.457,1.137 508.457,1.137 508.457,1.137" /><path
         id="path16"
         style="fill:#000000;fill-opacity:1;fill-rule:evenodd;stroke:none"
         d="m 626.52,380.805 -10.375,-10.426 36.375,10.48 -36.422,10.321 10.422,-10.375" /><path
         id="path18"
         style="fill:none;stroke:#000000;stroke-width:2.5999999;stroke-linecap:butt;stroke-linejoin:miter;stroke-miterlimit:10;stroke-dasharray:none;stroke-opacity:1"
         d="m 626.52,380.805 -10.375,-10.426 36.375,10.48 -36.422,10.321 z" /><path
         id="path20"
         style="fill:none;stroke:#000000;stroke-width:4;stroke-linecap:butt;stroke-linejoin:miter;stroke-miterlimit:10;stroke-dasharray:none;stroke-opacity:1"
         d="m 427.113,401.254 c 1.992,-49.512 1.992,-49.512 1.992,-49.512" /><path
         id="path22"
         style="fill:none;stroke:#000000;stroke-width:4;stroke-linecap:butt;stroke-linejoin:miter;stroke-miterlimit:10;stroke-dasharray:none;stroke-opacity:1"
         d="m 327.914,451.262 c 56.801,-0.16 56.801,-0.16 56.801,-0.16" /><path
         id="path24"
         style="fill:#000000;fill-opacity:1;fill-rule:evenodd;stroke:none"
         d="m 418.301,300.82 16.113,7.86 h 1.613 v -55.907 c 0,-3.711 0.153,-6.023 0.461,-6.933 0.309,-0.914 0.953,-1.613 1.93,-2.102 0.977,-0.488 2.961,-0.765 5.957,-0.828 v -1.808 h -24.902 v 1.808 c 3.125,0.063 5.144,0.332 6.054,0.805 0.911,0.473 1.547,1.105 1.907,1.906 0.355,0.797 0.535,3.18 0.535,7.152 v 35.743 c 0,4.816 -0.164,7.91 -0.489,9.277 -0.226,1.039 -0.644,1.805 -1.246,2.293 -0.601,0.488 -1.324,0.734 -2.172,0.734 -1.203,0 -2.878,-0.504 -5.027,-1.515 l -0.734,1.515" /><path
         id="path26"
         style="fill:#000000;fill-opacity:1;fill-rule:evenodd;stroke:none"
         d="m 307.852,337.93 c 0,7.55 1.136,14.054 3.418,19.508 2.277,5.453 5.304,9.511 9.082,12.183 2.929,2.113 5.957,3.172 9.082,3.172 5.078,0 9.632,-2.586 13.671,-7.762 5.043,-6.414 7.567,-15.105 7.567,-26.078 0,-7.68 -1.106,-14.207 -3.32,-19.578 -2.215,-5.371 -5.04,-9.27 -8.473,-11.695 -3.434,-2.426 -6.746,-3.637 -9.934,-3.637 -6.316,0 -11.574,3.727 -15.773,11.18 -3.547,6.285 -5.32,13.851 -5.32,22.707 z m 9.57,-1.219 c 0,-9.117 1.121,-16.555 3.367,-22.316 1.856,-4.852 4.621,-7.274 8.301,-7.274 1.758,0 3.582,0.789 5.469,2.367 1.886,1.578 3.32,4.223 4.296,7.934 1.497,5.598 2.247,13.492 2.247,23.683 0,7.551 -0.782,13.848 -2.344,18.895 -1.172,3.742 -2.684,6.395 -4.539,7.957 -1.336,1.074 -2.949,1.613 -4.836,1.613 -2.215,0 -4.184,-0.992 -5.906,-2.976 -2.344,-2.703 -3.942,-6.953 -4.786,-12.746 -0.847,-5.793 -1.269,-11.508 -1.269,-17.137 v 0" /><path
         id="path28"
         style="fill:none;stroke:#000000;stroke-width:5.19999981;stroke-linecap:round;stroke-linejoin:miter;stroke-miterlimit:10;stroke-dasharray:none;stroke-opacity:1"
         d="M 357.645,9.84375 C 356.781,822.098 356.781,822.098 356.781,822.098" /><path
         id="path30"
         style="fill:#000000;fill-opacity:1;fill-rule:evenodd;stroke:none"
         d="m 356.805,801.297 10.41,-10.387 -10.438,36.387 -10.363,-36.41 10.391,10.41" /><path
         id="path32"
         style="fill:none;stroke:#000000;stroke-width:2.5999999;stroke-linecap:butt;stroke-linejoin:miter;stroke-miterlimit:10;stroke-dasharray:none;stroke-opacity:1"
         d="m 356.805,801.297 10.41,-10.387 -10.438,36.387 -10.363,-36.41 z" /><path
         id="path34"
         style="fill:#000000;fill-opacity:1;fill-rule:evenodd;stroke:none"
         d="m 625.539,450.375 c 1.594,-1.691 2.797,-3.383 3.613,-5.078 0.586,-1.172 1.543,-4.246 2.879,-9.227 l 4.297,6.446 c 1.141,1.562 2.524,3.05 4.152,4.464 1.625,1.418 3.059,2.387 4.297,2.907 0.782,0.328 1.641,0.488 2.586,0.488 1.399,0 2.516,-0.375 3.344,-1.121 0.832,-0.75 1.246,-1.66 1.246,-2.734 0,-1.239 -0.242,-2.086 -0.73,-2.54 -0.914,-0.816 -1.953,-1.222 -3.125,-1.222 -0.684,0 -1.418,0.148 -2.2,0.441 -1.531,0.52 -2.554,0.781 -3.074,0.781 -0.781,0 -1.711,-0.457 -2.785,-1.367 -2.019,-1.695 -4.426,-4.965 -7.227,-9.816 L 636.816,416 c 0.618,-2.57 1.141,-4.109 1.563,-4.613 0.422,-0.504 0.848,-0.758 1.269,-0.758 0.684,0 1.481,0.375 2.395,1.125 1.789,1.496 3.32,3.449 4.59,5.859 l 1.707,-0.879 c -2.051,-3.843 -4.656,-7.031 -7.813,-9.57 -1.789,-1.434 -3.304,-2.148 -4.539,-2.148 -1.824,0 -3.273,1.023 -4.347,3.074 -0.684,1.269 -2.098,6.738 -4.246,16.406 -5.079,-8.82 -9.149,-14.5 -12.207,-17.039 -1.989,-1.629 -3.907,-2.441 -5.762,-2.441 -1.305,0 -2.492,0.472 -3.567,1.414 -0.781,0.718 -1.171,1.675 -1.171,2.882 0,1.075 0.359,1.969 1.074,2.684 0.715,0.719 1.593,1.074 2.636,1.074 1.043,0 2.149,-0.519 3.321,-1.562 0.847,-0.746 1.496,-1.121 1.953,-1.121 0.39,0 0.894,0.258 1.516,0.781 1.527,1.234 3.613,3.906 6.25,8.008 2.636,4.101 4.359,7.062 5.175,8.886 -2.019,7.911 -3.109,12.094 -3.273,12.547 -0.75,2.118 -1.727,3.614 -2.93,4.493 -1.203,0.878 -2.976,1.32 -5.32,1.32 -0.75,0 -1.613,-0.035 -2.59,-0.098 v 1.758 l 13.039,2.293" /><path
         id="path36"
         style="fill:#000000;fill-opacity:1;fill-rule:evenodd;stroke:none"
         d="m 301.469,823.969 c 1.105,-1.887 1.871,-3.653 2.293,-5.297 0.426,-1.645 0.847,-4.875 1.269,-9.692 l 2.149,-24.023 c 1.953,2.344 4.785,6.055 8.496,11.133 1.793,2.472 4.004,5.844 6.64,10.105 1.598,2.606 2.575,4.43 2.93,5.469 0.195,0.524 0.293,1.059 0.293,1.613 0,0.36 -0.113,0.653 -0.34,0.879 -0.226,0.227 -0.82,0.496 -1.781,0.805 -0.961,0.309 -1.758,0.879 -2.395,1.711 -0.632,0.828 -0.953,1.781 -0.953,2.855 0,1.336 0.391,2.411 1.172,3.223 0.781,0.812 1.758,1.219 2.93,1.219 1.433,0 2.656,-0.594 3.664,-1.781 1.008,-1.188 1.512,-2.825 1.512,-4.907 0,-2.57 -0.879,-5.508 -2.637,-8.812 -1.758,-3.305 -5.141,-8.375 -10.156,-15.211 -5.012,-6.836 -11.082,-14.289 -18.211,-22.363 -4.914,-5.567 -8.563,-9.075 -10.938,-10.524 -2.375,-1.449 -4.41,-2.172 -6.105,-2.172 -1.008,0 -1.895,0.383 -2.66,1.149 -0.766,0.765 -1.149,1.652 -1.149,2.66 0,1.269 0.531,2.426 1.59,3.465 1.059,1.043 2.203,1.562 3.441,1.562 0.653,0 1.188,-0.144 1.61,-0.437 0.262,-0.164 0.547,-0.625 0.855,-1.391 0.309,-0.766 0.594,-1.277 0.856,-1.539 0.164,-0.164 0.359,-0.246 0.586,-0.246 0.195,0 0.535,0.164 1.023,0.488 1.793,1.11 3.875,2.867 6.25,5.274 3.125,3.191 5.438,5.796 6.934,7.812 l -2.735,30.957 c -0.453,5.113 -1.136,8.223 -2.05,9.328 -0.911,1.106 -2.442,1.66 -4.59,1.66 -0.684,0 -1.903,-0.097 -3.66,-0.293 l -0.442,1.805 14.309,3.516" /><path
         id="path38"
         style="fill:none;stroke:#000000;stroke-width:4;stroke-linecap:butt;stroke-linejoin:miter;stroke-miterlimit:10;stroke-dasharray:none;stroke-opacity:1"
         d="m 275.164,402.234 c 1.992,-49.511 1.992,-49.511 1.992,-49.511" /><path
         id="path40"
         style="fill:none;stroke:#000000;stroke-width:4;stroke-linecap:butt;stroke-linejoin:miter;stroke-miterlimit:10;stroke-dasharray:none;stroke-opacity:1"
         d="m 327.914,291.262 c 56.801,-0.16 56.801,-0.16 56.801,-0.16" /><path
         id="path42"
         style="fill:#000000;fill-opacity:1;fill-rule:evenodd;stroke:none"
         d="m 297.223,473.008 16.113,7.863 h 1.609 v -55.91 c 0,-3.711 0.157,-6.02 0.465,-6.934 0.309,-0.91 0.953,-1.609 1.93,-2.097 0.976,-0.489 2.961,-0.766 5.957,-0.832 v -1.805 h -24.902 v 1.805 c 3.125,0.066 5.14,0.336 6.054,0.808 0.91,0.469 1.547,1.106 1.903,1.903 0.359,0.796 0.539,3.183 0.539,7.152 v 35.742 c 0,4.82 -0.164,7.91 -0.489,9.277 -0.23,1.043 -0.644,1.809 -1.246,2.297 -0.601,0.489 -1.328,0.731 -2.172,0.731 -1.203,0 -2.882,-0.504 -5.031,-1.512 l -0.73,1.512" /><path
         id="path44"
         style="fill:none;stroke:#000000;stroke-width:5.19999981;stroke-linecap:round;stroke-linejoin:miter;stroke-miterlimit:10;stroke-dasharray:none;stroke-opacity:1"
         d="m 818.559,379.715 c 753.381,1.137 753.381,1.137 753.381,1.137" /><path
         id="path46"
         style="fill:#000000;fill-opacity:1;fill-rule:evenodd;stroke:none"
         d="m 1551.14,380.816 -10.38,-10.414 36.38,10.457 -36.41,10.344 10.41,-10.387" /><path
         id="path48"
         style="fill:none;stroke:#000000;stroke-width:2.5999999;stroke-linecap:butt;stroke-linejoin:miter;stroke-miterlimit:10;stroke-dasharray:none;stroke-opacity:1"
         d="m 1551.14,380.816 -10.38,-10.414 36.38,10.457 -36.41,10.344 z" /><path
         id="path50"
         style="fill:none;stroke:#000000;stroke-width:4;stroke-linecap:butt;stroke-linejoin:miter;stroke-miterlimit:10;stroke-dasharray:none;stroke-opacity:1"
         d="m 1260.23,404.34 c 0.23,-49.551 0.23,-49.551 0.23,-49.551" /><path
         id="path52"
         style="fill:none;stroke:#000000;stroke-width:4;stroke-linecap:butt;stroke-linejoin:miter;stroke-miterlimit:10;stroke-dasharray:none;stroke-opacity:1"
         d="m 1161.4,452.582 c 56.8,-0.16 56.8,-0.16 56.8,-0.16" /><path
         id="path54"
         style="fill:#000000;fill-opacity:1;fill-rule:evenodd;stroke:none"
         d="m 1247.28,333.863 16.11,7.86 h 1.61 v -55.907 c 0,-3.711 0.16,-6.023 0.46,-6.933 0.31,-0.91 0.96,-1.613 1.93,-2.102 0.98,-0.488 2.97,-0.761 5.96,-0.828 v -1.808 h -24.9 v 1.808 c 3.12,0.067 5.14,0.332 6.05,0.805 0.91,0.472 1.55,1.105 1.91,1.906 0.36,0.797 0.54,3.18 0.54,7.152 v 35.743 c 0,4.816 -0.17,7.91 -0.49,9.277 -0.23,1.039 -0.65,1.805 -1.25,2.293 -0.6,0.488 -1.32,0.734 -2.17,0.734 -1.2,0 -2.88,-0.504 -5.03,-1.515 l -0.73,1.515" /><path
         id="path56"
         style="fill:#000000;fill-opacity:1;fill-rule:evenodd;stroke:none"
         d="m 1132.71,334.738 c 0,7.555 1.14,14.055 3.41,19.508 2.29,5.453 5.31,9.512 9.09,12.184 2.93,2.113 5.95,3.172 9.08,3.172 5.08,0 9.64,-2.586 13.67,-7.762 5.05,-6.414 7.57,-15.106 7.57,-26.074 0,-7.684 -1.1,-14.211 -3.32,-19.582 -2.21,-5.372 -5.04,-9.27 -8.47,-11.692 -3.44,-2.426 -6.75,-3.64 -9.94,-3.64 -6.31,0 -11.57,3.726 -15.77,11.183 -3.55,6.281 -5.32,13.852 -5.32,22.703 z m 9.57,-1.218 c 0,-9.118 1.12,-16.555 3.37,-22.317 1.85,-4.848 4.62,-7.273 8.3,-7.273 1.76,0 3.58,0.789 5.47,2.367 1.88,1.578 3.32,4.223 4.29,7.933 1.5,5.602 2.25,13.493 2.25,23.684 0,7.551 -0.78,13.852 -2.34,18.895 -1.17,3.746 -2.69,6.398 -4.55,7.961 -1.33,1.074 -2.94,1.609 -4.83,1.609 -2.21,0 -4.18,-0.992 -5.91,-2.977 -2.34,-2.703 -3.94,-6.949 -4.78,-12.746 -0.85,-5.793 -1.27,-11.508 -1.27,-17.136 v 0" /><path
         id="path58"
         style="fill:none;stroke:#000000;stroke-width:5.19999981;stroke-linecap:round;stroke-linejoin:miter;stroke-miterlimit:10;stroke-dasharray:none;stroke-opacity:1"
         d="M 1188.49,3.70312 C 1187.62,815.957 1187.62,815.957 1187.62,815.957" /><path
         id="path60"
         style="fill:#000000;fill-opacity:1;fill-rule:evenodd;stroke:none"
         d="m 1187.65,795.156 10.41,-10.39 -10.44,36.39 -10.36,-36.41 10.39,10.41" /><path
         id="path62"
         style="fill:none;stroke:#000000;stroke-width:2.5999999;stroke-linecap:butt;stroke-linejoin:miter;stroke-miterlimit:10;stroke-dasharray:none;stroke-opacity:1"
         d="m 1187.65,795.156 10.41,-10.39 -10.44,36.39 -10.36,-36.41 z" /><path
         id="path64"
         style="fill:#000000;fill-opacity:1;fill-rule:evenodd;stroke:none"
         d="m 1551.32,447.707 c 1.59,-1.691 2.8,-3.387 3.61,-5.078 0.59,-1.172 1.55,-4.25 2.88,-9.231 l 4.3,6.446 c 1.14,1.562 2.52,3.054 4.15,4.468 1.63,1.418 3.06,2.387 4.3,2.907 0.78,0.324 1.64,0.488 2.58,0.488 1.41,0 2.52,-0.375 3.35,-1.125 0.83,-0.746 1.24,-1.66 1.24,-2.734 0,-1.235 -0.24,-2.082 -0.73,-2.539 -0.91,-0.813 -1.95,-1.219 -3.12,-1.219 -0.68,0 -1.42,0.144 -2.2,0.437 -1.53,0.524 -2.56,0.782 -3.07,0.782 -0.79,0 -1.72,-0.454 -2.79,-1.368 -2.02,-1.691 -4.43,-4.961 -7.23,-9.812 l 4.01,-16.797 c 0.62,-2.57 1.14,-4.109 1.56,-4.613 0.43,-0.508 0.85,-0.758 1.27,-0.758 0.68,0 1.48,0.375 2.39,1.121 1.79,1.5 3.32,3.453 4.59,5.859 l 1.71,-0.879 c -2.05,-3.839 -4.65,-7.031 -7.81,-9.57 -1.79,-1.43 -3.3,-2.148 -4.54,-2.148 -1.82,0 -3.27,1.027 -4.35,3.078 -0.68,1.269 -2.1,6.738 -4.24,16.406 -5.08,-8.82 -9.15,-14.504 -12.21,-17.043 -1.99,-1.625 -3.91,-2.441 -5.76,-2.441 -1.3,0 -2.5,0.472 -3.57,1.418 -0.78,0.715 -1.17,1.676 -1.17,2.879 0,1.074 0.36,1.972 1.07,2.687 0.72,0.715 1.6,1.074 2.64,1.074 1.04,0 2.15,-0.519 3.32,-1.562 0.85,-0.75 1.5,-1.125 1.95,-1.125 0.39,0 0.9,0.262 1.52,0.781 1.53,1.238 3.61,3.906 6.25,8.008 2.64,4.101 4.36,7.066 5.17,8.887 -2.01,7.91 -3.1,12.093 -3.27,12.55 -0.74,2.118 -1.72,3.614 -2.93,4.493 -1.2,0.878 -2.98,1.316 -5.32,1.316 -0.75,0 -1.61,-0.031 -2.59,-0.098 v 1.758 l 13.04,2.297" /><path
         id="path66"
         style="fill:#000000;fill-opacity:1;fill-rule:evenodd;stroke:none"
         d="m 1142.38,819.84 c 1.1,-1.887 1.87,-3.652 2.29,-5.297 0.42,-1.645 0.85,-4.875 1.27,-9.691 l 2.15,-24.024 c 1.95,2.344 4.78,6.055 8.49,11.133 1.8,2.473 4.01,5.84 6.64,10.105 1.6,2.606 2.58,4.426 2.93,5.469 0.2,0.52 0.3,1.059 0.3,1.613 0,0.356 -0.12,0.649 -0.34,0.879 -0.23,0.227 -0.83,0.496 -1.79,0.805 -0.96,0.309 -1.76,0.879 -2.39,1.707 -0.64,0.832 -0.95,1.785 -0.95,2.859 0,1.332 0.39,2.407 1.17,3.223 0.78,0.813 1.76,1.219 2.93,1.219 1.43,0 2.65,-0.594 3.66,-1.781 1.01,-1.188 1.51,-2.825 1.51,-4.907 0,-2.574 -0.87,-5.511 -2.63,-8.816 -1.76,-3.301 -5.14,-8.371 -10.16,-15.207 -5.01,-6.836 -11.08,-14.293 -18.21,-22.363 -4.92,-5.567 -8.56,-9.075 -10.94,-10.524 -2.38,-1.449 -4.41,-2.172 -6.1,-2.172 -1.01,0 -1.9,0.383 -2.66,1.145 -0.77,0.765 -1.15,1.652 -1.15,2.664 0,1.269 0.53,2.422 1.58,3.465 1.06,1.043 2.21,1.562 3.45,1.562 0.65,0 1.19,-0.144 1.61,-0.437 0.26,-0.164 0.55,-0.629 0.85,-1.395 0.31,-0.765 0.6,-1.277 0.86,-1.535 0.16,-0.164 0.36,-0.246 0.59,-0.246 0.19,0 0.53,0.164 1.02,0.488 1.79,1.106 3.87,2.864 6.25,5.274 3.12,3.191 5.44,5.793 6.93,7.812 l -2.73,30.957 c -0.45,5.11 -1.14,8.219 -2.05,9.328 -0.91,1.106 -2.44,1.66 -4.59,1.66 -0.69,0 -1.9,-0.097 -3.66,-0.292 l -0.44,1.804 14.31,3.516" /><path
         id="path68"
         style="fill:#000000;fill-opacity:1;fill-rule:evenodd;stroke:none"
         d="m 1216.23,479.93 16.12,7.859 h 1.61 v -55.906 c 0,-3.711 0.15,-6.024 0.46,-6.934 0.31,-0.914 0.96,-1.613 1.93,-2.101 0.98,-0.489 2.96,-0.766 5.96,-0.828 v -1.809 h -24.9 v 1.809 c 3.12,0.062 5.14,0.332 6.05,0.804 0.91,0.473 1.55,1.106 1.9,1.903 0.36,0.8 0.54,3.183 0.54,7.156 v 35.742 c 0,4.816 -0.16,7.91 -0.49,9.277 -0.23,1.039 -0.64,1.805 -1.24,2.293 -0.6,0.489 -1.33,0.735 -2.17,0.735 -1.21,0 -2.89,-0.508 -5.04,-1.516 l -0.73,1.516" /><path
         id="path70"
         style="fill:#000000;fill-opacity:1;fill-rule:evenodd;stroke:none"
         d="m 0,818.734 16.1133,7.864 h 1.6133 v -55.91 c 0,-3.711 0.1523,-6.02 0.4609,-6.934 0.3086,-0.91 0.9531,-1.609 1.9297,-2.098 0.9766,-0.488 2.9609,-0.765 5.957,-0.832 V 759.02 H 1.17188 v 1.804 c 3.125,0.067 5.14453,0.336 6.05468,0.805 0.91016,0.473 1.54688,1.109 1.90625,1.906 0.35547,0.797 0.53516,3.184 0.53516,7.153 v 35.742 c 0,4.82 -0.16406,7.91 -0.48828,9.277 -0.22657,1.043 -0.64453,1.809 -1.2461,2.297 -0.60156,0.488 -1.32421,0.73 -2.17187,0.73 -1.20313,0 -2.87891,-0.504 -5.027345,-1.511 L 0,818.734" /><path
         id="path72"
         style="fill:#000000;fill-opacity:1;fill-rule:evenodd;stroke:none"
         d="m 40.5273,826.402 v 2.051 c 4.9493,-2.441 9.0665,-5.324 12.3555,-8.644 4.6524,-4.754 8.25,-10.329 10.7891,-16.723 2.539,-6.398 3.8086,-13.063 3.8086,-19.996 C 67.4805,773 65,763.797 60.0352,755.477 55.0703,747.16 48.5664,741.211 40.5273,737.633 v 1.805 c 4.0039,2.246 7.3008,5.281 9.8868,9.105 2.5898,3.828 4.5078,8.691 5.7617,14.602 1.2539,5.906 1.8828,12.07 1.8828,18.48 0,6.934 -0.5391,13.266 -1.6133,18.996 -0.8125,4.492 -1.832,8.086 -3.0508,10.789 -1.2226,2.703 -2.8398,5.309 -4.8593,7.813 -2.0196,2.507 -4.6875,4.898 -8.0079,7.179 v 0" /><path
         id="path74"
         style="fill:#000000;fill-opacity:1;fill-rule:evenodd;stroke:none"
         d="m 856.258,771.762 -4.637,-12.746 h -39.062 v 1.808 c 11.488,10.481 19.578,19.043 24.265,25.684 4.688,6.64 7.031,12.711 7.031,18.211 0,4.199 -1.285,7.652 -3.855,10.351 -2.574,2.703 -5.648,4.055 -9.23,4.055 -3.254,0 -6.176,-0.953 -8.766,-2.855 -2.586,-1.907 -4.5,-4.696 -5.734,-8.375 h -1.809 c 0.812,6.023 2.906,10.644 6.273,13.867 3.371,3.222 7.578,4.832 12.625,4.832 5.371,0 9.852,-1.723 13.45,-5.176 3.597,-3.449 5.398,-7.52 5.398,-12.207 0,-3.352 -0.781,-6.703 -2.344,-10.059 -2.41,-5.273 -6.316,-10.855 -11.718,-16.746 -8.106,-8.855 -13.168,-14.191 -15.188,-16.015 h 17.285 c 3.516,0 5.981,0.129 7.399,0.39 1.414,0.262 2.691,0.789 3.832,1.586 1.14,0.797 2.132,1.93 2.98,3.395 h 1.805" /><path
         id="path76"
         style="fill:#000000;fill-opacity:1;fill-rule:evenodd;stroke:none"
         d="m 862.656,826.398 v 2.051 c 4.946,-2.441 9.063,-5.32 12.352,-8.64 4.656,-4.754 8.254,-10.329 10.793,-16.723 2.539,-6.398 3.808,-13.063 3.808,-19.996 0,-10.09 -2.484,-19.297 -7.449,-27.613 -4.965,-8.317 -11.465,-14.266 -19.504,-17.848 v 1.809 c 4.004,2.246 7.297,5.281 9.887,9.105 2.586,3.824 4.508,8.691 5.762,14.602 1.254,5.906 1.879,12.066 1.879,18.48 0,6.934 -0.536,13.266 -1.61,18.992 -0.816,4.492 -1.832,8.09 -3.054,10.793 -1.219,2.699 -2.84,5.305 -4.856,7.813 -2.019,2.507 -4.687,4.898 -8.008,7.175 v 0" /><path
         id="path78"
         style="fill:none;stroke:#000000;stroke-width:5.19999981;stroke-linecap:round;stroke-linejoin:miter;stroke-miterlimit:10;stroke-dasharray:none;stroke-opacity:1"
         d="m 1831.4,382.23 c 569.66,1.133 569.66,1.133 569.66,1.133" /><path
         id="path80"
         style="fill:#000000;fill-opacity:1;fill-rule:evenodd;stroke:none"
         d="m 2380.26,383.324 -10.38,-10.422 36.38,10.473 -36.42,10.328 10.42,-10.379" /><path
         id="path82"
         style="fill:none;stroke:#000000;stroke-width:2.5999999;stroke-linecap:butt;stroke-linejoin:miter;stroke-miterlimit:10;stroke-dasharray:none;stroke-opacity:1"
         d="m 2380.26,383.324 -10.38,-10.422 36.38,10.473 -36.42,10.328 z" /><path
         id="path84"
         style="fill:none;stroke:#000000;stroke-width:4;stroke-linecap:butt;stroke-linejoin:miter;stroke-miterlimit:10;stroke-dasharray:none;stroke-opacity:1"
         d="m 2170.04,403.77 c 1.98,-49.512 1.98,-49.512 1.98,-49.512" /><path
         id="path86"
         style="fill:none;stroke:#000000;stroke-width:4;stroke-linecap:butt;stroke-linejoin:miter;stroke-miterlimit:10;stroke-dasharray:none;stroke-opacity:1"
         d="m 2070.83,453.777 c 56.8,-0.16 56.8,-0.16 56.8,-0.16" /><path
         id="path88"
         style="fill:#000000;fill-opacity:1;fill-rule:evenodd;stroke:none"
         d="m 2182.21,362.113 16.11,7.864 h 1.62 v -55.911 c 0,-3.711 0.15,-6.023 0.46,-6.933 0.31,-0.91 0.95,-1.61 1.93,-2.098 0.97,-0.488 2.96,-0.765 5.96,-0.832 v -1.805 h -24.91 v 1.805 c 3.13,0.067 5.15,0.336 6.06,0.805 0.91,0.472 1.54,1.109 1.9,1.906 0.36,0.797 0.54,3.18 0.54,7.152 v 35.743 c 0,4.816 -0.17,7.91 -0.49,9.277 -0.23,1.043 -0.64,1.809 -1.25,2.297 -0.6,0.488 -1.32,0.73 -2.17,0.73 -1.2,0 -2.88,-0.504 -5.03,-1.511 l -0.73,1.511" /><path
         id="path90"
         style="fill:#000000;fill-opacity:1;fill-rule:evenodd;stroke:none"
         d="m 2105.58,342.75 c 0,7.555 1.14,14.055 3.42,19.508 2.28,5.453 5.3,9.515 9.08,12.183 2.93,2.114 5.96,3.172 9.08,3.172 5.08,0 9.64,-2.586 13.68,-7.761 5.04,-6.414 7.56,-15.106 7.56,-26.075 0,-7.683 -1.1,-14.211 -3.32,-19.582 -2.21,-5.371 -5.03,-9.269 -8.47,-11.691 -3.43,-2.426 -6.75,-3.641 -9.93,-3.641 -6.32,0 -11.58,3.731 -15.78,11.184 -3.54,6.281 -5.32,13.851 -5.32,22.703 z m 9.57,-1.219 c 0,-9.113 1.12,-16.554 3.37,-22.316 1.86,-4.848 4.62,-7.274 8.3,-7.274 1.76,0 3.58,0.789 5.47,2.368 1.89,1.578 3.32,4.222 4.3,7.933 1.5,5.602 2.24,13.496 2.24,23.684 0,7.551 -0.78,13.851 -2.34,18.894 -1.17,3.746 -2.69,6.399 -4.54,7.961 -1.34,1.074 -2.95,1.61 -4.84,1.61 -2.21,0 -4.18,-0.993 -5.9,-2.977 -2.35,-2.703 -3.94,-6.949 -4.79,-12.746 -0.85,-5.793 -1.27,-11.504 -1.27,-17.137 v 0" /><path
         id="path92"
         style="fill:none;stroke:#000000;stroke-width:5.19999981;stroke-linecap:round;stroke-linejoin:miter;stroke-miterlimit:10;stroke-dasharray:none;stroke-opacity:1"
         d="M 2100.56,12.3594 C 2099.7,824.613 2099.7,824.613 2099.7,824.613" /><path
         id="path94"
         style="fill:#000000;fill-opacity:1;fill-rule:evenodd;stroke:none"
         d="m 2099.72,803.812 10.41,-10.386 -10.43,36.386 -10.37,-36.41 10.39,10.41" /><path
         id="path96"
         style="fill:none;stroke:#000000;stroke-width:2.5999999;stroke-linecap:butt;stroke-linejoin:miter;stroke-miterlimit:10;stroke-dasharray:none;stroke-opacity:1"
         d="m 2099.72,803.812 10.41,-10.386 -10.43,36.386 -10.37,-36.41 z" /><path
         id="path98"
         style="fill:#000000;fill-opacity:1;fill-rule:evenodd;stroke:none"
         d="m 2377.79,357.727 c 1.59,-1.696 2.8,-3.387 3.61,-5.079 0.58,-1.171 1.55,-4.25 2.88,-9.23 l 4.29,6.445 c 1.14,1.563 2.53,3.051 4.16,4.469 1.63,1.414 3.06,2.383 4.29,2.906 0.78,0.324 1.65,0.489 2.59,0.489 1.4,0 2.51,-0.375 3.35,-1.125 0.83,-0.75 1.24,-1.661 1.24,-2.735 0,-1.238 -0.24,-2.082 -0.73,-2.539 -0.91,-0.812 -1.95,-1.219 -3.13,-1.219 -0.68,0 -1.41,0.145 -2.2,0.438 -1.52,0.519 -2.55,0.781 -3.07,0.781 -0.78,0 -1.71,-0.457 -2.78,-1.367 -2.02,-1.691 -4.43,-4.965 -7.23,-9.813 l 4,-16.796 c 0.62,-2.575 1.14,-4.114 1.56,-4.618 0.43,-0.504 0.85,-0.754 1.27,-0.754 0.69,0 1.49,0.372 2.4,1.122 1.79,1.496 3.32,3.449 4.59,5.859 l 1.71,-0.879 c -2.05,-3.84 -4.66,-7.031 -7.82,-9.57 -1.79,-1.434 -3.3,-2.149 -4.54,-2.149 -1.82,0 -3.27,1.028 -4.34,3.078 -0.69,1.27 -2.1,6.739 -4.25,16.407 -5.08,-8.825 -9.15,-14.504 -12.21,-17.043 -1.98,-1.629 -3.9,-2.442 -5.76,-2.442 -1.3,0 -2.49,0.473 -3.56,1.418 -0.79,0.715 -1.18,1.676 -1.18,2.879 0,1.074 0.36,1.969 1.08,2.688 0.72,0.714 1.6,1.074 2.63,1.074 1.05,0 2.15,-0.524 3.32,-1.563 0.85,-0.75 1.5,-1.125 1.96,-1.125 0.39,0 0.9,0.262 1.51,0.782 1.53,1.238 3.62,3.906 6.25,8.007 2.64,4.102 4.37,7.063 5.18,8.887 -2.02,7.91 -3.11,12.094 -3.27,12.551 -0.75,2.113 -1.73,3.613 -2.93,4.492 -1.21,0.879 -2.98,1.317 -5.32,1.317 -0.75,0 -1.62,-0.032 -2.59,-0.098 v 1.758 l 13.04,2.297" /><path
         id="path100"
         style="fill:#000000;fill-opacity:1;fill-rule:evenodd;stroke:none"
         d="m 2044.39,826.484 c 1.1,-1.886 1.87,-3.652 2.29,-5.296 0.43,-1.645 0.85,-4.876 1.27,-9.692 l 2.15,-24.023 c 1.95,2.343 4.78,6.054 8.49,11.132 1.8,2.473 4.01,5.844 6.64,10.106 1.6,2.605 2.58,4.43 2.93,5.469 0.2,0.523 0.3,1.058 0.3,1.613 0,0.359 -0.12,0.652 -0.34,0.879 -0.23,0.226 -0.83,0.496 -1.78,0.805 -0.96,0.308 -1.76,0.878 -2.4,1.711 -0.63,0.828 -0.95,1.781 -0.95,2.855 0,1.336 0.39,2.41 1.17,3.223 0.78,0.812 1.76,1.218 2.93,1.218 1.43,0 2.65,-0.593 3.66,-1.781 1.01,-1.187 1.52,-2.824 1.52,-4.906 0,-2.57 -0.88,-5.512 -2.64,-8.813 -1.76,-3.304 -5.14,-8.375 -10.16,-15.211 -5.01,-6.835 -11.08,-14.289 -18.21,-22.363 -4.92,-5.566 -8.56,-9.074 -10.94,-10.523 -2.37,-1.449 -4.41,-2.172 -6.1,-2.172 -1.01,0 -1.9,0.383 -2.66,1.148 -0.77,0.762 -1.15,1.653 -1.15,2.66 0,1.27 0.53,2.426 1.59,3.465 1.05,1.043 2.2,1.563 3.44,1.563 0.65,0 1.19,-0.145 1.61,-0.438 0.26,-0.164 0.55,-0.629 0.86,-1.39 0.3,-0.766 0.59,-1.278 0.85,-1.539 0.16,-0.164 0.36,-0.246 0.59,-0.246 0.19,0 0.53,0.164 1.02,0.488 1.79,1.109 3.88,2.867 6.25,5.273 3.13,3.192 5.44,5.797 6.93,7.813 l -2.73,30.957 c -0.45,5.113 -1.14,8.222 -2.05,9.328 -0.91,1.105 -2.44,1.66 -4.59,1.66 -0.68,0 -1.9,-0.098 -3.66,-0.293 l -0.44,1.805 14.31,3.515" /><path
         id="path102"
         style="fill:none;stroke:#000000;stroke-width:4;stroke-linecap:butt;stroke-linejoin:miter;stroke-miterlimit:10;stroke-dasharray:none;stroke-opacity:1"
         d="m 2018.08,404.746 c 1.99,-49.508 1.99,-49.508 1.99,-49.508" /><path
         id="path104"
         style="fill:none;stroke:#000000;stroke-width:4;stroke-linecap:butt;stroke-linejoin:miter;stroke-miterlimit:10;stroke-dasharray:none;stroke-opacity:1"
         d="m 2070.83,293.777 c 56.8,-0.16 56.8,-0.16 56.8,-0.16" /><path
         id="path106"
         style="fill:#000000;fill-opacity:1;fill-rule:evenodd;stroke:none"
         d="m 2040.14,475.523 16.11,7.864 h 1.61 v -55.91 c 0,-3.711 0.16,-6.02 0.47,-6.934 0.31,-0.91 0.95,-1.609 1.93,-2.098 0.97,-0.488 2.96,-0.765 5.95,-0.832 v -1.804 h -24.9 v 1.804 c 3.13,0.067 5.14,0.336 6.06,0.809 0.91,0.469 1.54,1.105 1.9,1.902 0.36,0.797 0.54,3.184 0.54,7.153 v 35.742 c 0,4.82 -0.17,7.91 -0.49,9.277 -0.23,1.043 -0.64,1.809 -1.25,2.297 -0.6,0.488 -1.32,0.73 -2.17,0.73 -1.2,0 -2.88,-0.503 -5.03,-1.511 l -0.73,1.511" /><path
         id="path108"
         style="fill:none;stroke:#000000;stroke-width:5.19999981;stroke-linecap:round;stroke-linejoin:miter;stroke-miterlimit:10;stroke-dasharray:none;stroke-opacity:1"
         d="m 2722.95,382.23 c 546.07,1.133 546.07,1.133 546.07,1.133" /><path
         id="path110"
         style="fill:#000000;fill-opacity:1;fill-rule:evenodd;stroke:none"
         d="m 3248.22,383.32 -10.38,-10.422 36.38,10.477 -36.42,10.324 10.42,-10.379" /><path
         id="path112"
         style="fill:none;stroke:#000000;stroke-width:2.5999999;stroke-linecap:butt;stroke-linejoin:miter;stroke-miterlimit:10;stroke-dasharray:none;stroke-opacity:1"
         d="m 3248.22,383.32 -10.38,-10.422 36.38,10.477 -36.42,10.324 z" /><path
         id="path114"
         style="fill:none;stroke:#000000;stroke-width:4;stroke-linecap:butt;stroke-linejoin:miter;stroke-miterlimit:10;stroke-dasharray:none;stroke-opacity:1"
         d="m 3048.88,407.691 c 1.99,-49.511 1.99,-49.511 1.99,-49.511" /><path
         id="path116"
         style="fill:none;stroke:#000000;stroke-width:4;stroke-linecap:butt;stroke-linejoin:miter;stroke-miterlimit:10;stroke-dasharray:none;stroke-opacity:1"
         d="m 2949.68,453.777 c 56.8,-0.16 56.8,-0.16 56.8,-0.16" /><path
         id="path118"
         style="fill:#000000;fill-opacity:1;fill-rule:evenodd;stroke:none"
         d="m 3044.43,344.805 16.12,7.863 h 1.61 v -55.91 c 0,-3.711 0.15,-6.02 0.46,-6.934 0.31,-0.91 0.95,-1.609 1.93,-2.097 0.98,-0.489 2.96,-0.766 5.96,-0.832 v -1.805 h -24.9 v 1.805 c 3.12,0.066 5.14,0.335 6.05,0.808 0.91,0.469 1.55,1.106 1.9,1.902 0.36,0.797 0.54,3.184 0.54,7.153 V 332.5 c 0,4.82 -0.16,7.91 -0.49,9.277 -0.23,1.043 -0.64,1.809 -1.24,2.297 -0.6,0.488 -1.33,0.731 -2.17,0.731 -1.21,0 -2.89,-0.504 -5.04,-1.512 l -0.73,1.512" /><path
         id="path120"
         style="fill:#000000;fill-opacity:1;fill-rule:evenodd;stroke:none"
         d="m 2927.83,341.453 c 0,7.551 1.14,14.055 3.42,19.508 2.27,5.453 5.3,9.512 9.08,12.184 2.93,2.113 5.96,3.171 9.08,3.171 5.08,0 9.64,-2.586 13.67,-7.761 5.05,-6.414 7.57,-15.106 7.57,-26.075 0,-7.683 -1.11,-14.21 -3.32,-19.582 -2.21,-5.371 -5.04,-9.269 -8.47,-11.695 -3.43,-2.426 -6.75,-3.637 -9.94,-3.637 -6.31,0 -11.57,3.727 -15.77,11.184 -3.55,6.281 -5.32,13.848 -5.32,22.703 z m 9.57,-1.219 c 0,-9.117 1.12,-16.554 3.37,-22.316 1.85,-4.852 4.62,-7.273 8.3,-7.273 1.76,0 3.58,0.789 5.47,2.367 1.89,1.578 3.32,4.222 4.3,7.933 1.49,5.598 2.24,13.493 2.24,23.684 0,7.551 -0.78,13.848 -2.34,18.894 -1.17,3.743 -2.69,6.399 -4.54,7.961 -1.34,1.075 -2.95,1.61 -4.84,1.61 -2.21,0 -4.18,-0.992 -5.91,-2.977 -2.34,-2.703 -3.93,-6.953 -4.78,-12.746 -0.85,-5.793 -1.27,-11.508 -1.27,-17.137 v 0" /><path
         id="path122"
         style="fill:none;stroke:#000000;stroke-width:5.19999981;stroke-linecap:round;stroke-linejoin:miter;stroke-miterlimit:10;stroke-dasharray:none;stroke-opacity:1"
         d="M 2979.41,6.21875 C 2978.54,818.473 2978.54,818.473 2978.54,818.473" /><path
         id="path124"
         style="fill:#000000;fill-opacity:1;fill-rule:evenodd;stroke:none"
         d="m 2978.57,797.672 10.41,-10.391 -10.44,36.391 -10.36,-36.41 10.39,10.41" /><path
         id="path126"
         style="fill:none;stroke:#000000;stroke-width:2.5999999;stroke-linecap:butt;stroke-linejoin:miter;stroke-miterlimit:10;stroke-dasharray:none;stroke-opacity:1"
         d="m 2978.57,797.672 10.41,-10.391 -10.44,36.391 -10.36,-36.41 z" /><path
         id="path128"
         style="fill:#000000;fill-opacity:1;fill-rule:evenodd;stroke:none"
         d="m 3240.64,448.902 c 1.6,-1.691 2.8,-3.386 3.62,-5.078 0.58,-1.172 1.54,-4.246 2.88,-9.226 l 4.29,6.445 c 1.14,1.559 2.53,3.051 4.16,4.465 1.62,1.418 3.05,2.387 4.29,2.906 0.78,0.324 1.64,0.488 2.59,0.488 1.4,0 2.51,-0.375 3.34,-1.121 0.83,-0.75 1.25,-1.664 1.25,-2.734 0,-1.238 -0.24,-2.086 -0.73,-2.539 -0.92,-0.817 -1.95,-1.223 -3.13,-1.223 -0.68,0 -1.41,0.149 -2.2,0.442 -1.53,0.519 -2.55,0.781 -3.07,0.781 -0.78,0 -1.71,-0.457 -2.79,-1.367 -2.02,-1.696 -4.42,-4.965 -7.22,-9.817 l 4,-16.797 c 0.62,-2.57 1.14,-4.109 1.56,-4.613 0.43,-0.504 0.85,-0.758 1.27,-0.758 0.69,0 1.48,0.375 2.4,1.125 1.79,1.496 3.32,3.449 4.59,5.86 l 1.71,-0.879 c -2.06,-3.844 -4.66,-7.032 -7.82,-9.571 -1.79,-1.433 -3.3,-2.148 -4.54,-2.148 -1.82,0 -3.27,1.023 -4.34,3.074 -0.69,1.27 -2.1,6.738 -4.25,16.406 -5.08,-8.82 -9.15,-14.5 -12.21,-17.039 -1.99,-1.629 -3.9,-2.441 -5.76,-2.441 -1.3,0 -2.49,0.469 -3.57,1.414 -0.78,0.715 -1.17,1.676 -1.17,2.883 0,1.074 0.36,1.969 1.08,2.683 0.71,0.715 1.59,1.075 2.63,1.075 1.05,0 2.15,-0.52 3.32,-1.563 0.85,-0.75 1.5,-1.121 1.96,-1.121 0.39,0 0.89,0.258 1.51,0.781 1.53,1.235 3.62,3.907 6.25,8.008 2.64,4.102 4.36,7.063 5.18,8.887 -2.02,7.91 -3.11,12.09 -3.27,12.547 -0.75,2.117 -1.73,3.613 -2.93,4.492 -1.21,0.879 -2.98,1.32 -5.33,1.32 -0.74,0 -1.61,-0.035 -2.58,-0.097 v 1.757 l 13.03,2.293" /><path
         id="path130"
         style="fill:#000000;fill-opacity:1;fill-rule:evenodd;stroke:none"
         d="m 2933.3,822.355 c 1.1,-1.886 1.87,-3.652 2.29,-5.296 0.42,-1.645 0.85,-4.875 1.27,-9.692 l 2.15,-24.023 c 1.95,2.344 4.78,6.054 8.49,11.133 1.79,2.472 4.01,5.839 6.64,10.105 1.6,2.606 2.57,4.426 2.93,5.469 0.2,0.519 0.3,1.058 0.3,1.613 0,0.356 -0.12,0.648 -0.34,0.879 -0.23,0.227 -0.83,0.496 -1.79,0.805 -0.95,0.308 -1.76,0.879 -2.39,1.707 -0.64,0.832 -0.95,1.785 -0.95,2.859 0,1.332 0.39,2.406 1.17,3.223 0.78,0.812 1.76,1.218 2.93,1.218 1.43,0 2.65,-0.593 3.66,-1.781 1.01,-1.187 1.52,-2.824 1.52,-4.906 0,-2.574 -0.88,-5.512 -2.64,-8.816 -1.76,-3.305 -5.14,-8.375 -10.16,-15.207 -5.01,-6.836 -11.08,-14.293 -18.21,-22.364 -4.92,-5.566 -8.56,-9.074 -10.94,-10.523 -2.37,-1.449 -4.41,-2.172 -6.1,-2.172 -1.01,0 -1.9,0.379 -2.66,1.144 -0.77,0.766 -1.15,1.653 -1.15,2.665 0,1.269 0.53,2.421 1.59,3.464 1.05,1.043 2.2,1.563 3.44,1.563 0.65,0 1.19,-0.145 1.61,-0.438 0.26,-0.164 0.55,-0.629 0.86,-1.394 0.3,-0.766 0.59,-1.278 0.85,-1.535 0.16,-0.164 0.36,-0.246 0.59,-0.246 0.19,0 0.53,0.164 1.02,0.488 1.79,1.105 3.88,2.863 6.25,5.273 3.13,3.192 5.44,5.793 6.93,7.813 l -2.73,30.957 c -0.45,5.109 -1.14,8.219 -2.05,9.328 -0.91,1.105 -2.44,1.66 -4.59,1.66 -0.68,0 -1.9,-0.098 -3.66,-0.293 l -0.44,1.805 14.31,3.515" /><path
         id="path132"
         style="fill:none;stroke:#000000;stroke-width:4;stroke-linecap:butt;stroke-linejoin:miter;stroke-miterlimit:10;stroke-dasharray:none;stroke-opacity:1"
         d="m 2951.69,303.734 c 56.8,-0.16 56.8,-0.16 56.8,-0.16" /><path
         id="path134"
         style="fill:#000000;fill-opacity:1;fill-rule:evenodd;stroke:none"
         d="m 2918.98,469.383 16.12,7.859 h 1.61 v -55.906 c 0,-3.711 0.16,-6.024 0.47,-6.934 0.3,-0.914 0.94,-1.613 1.93,-2.101 0.97,-0.489 2.96,-0.766 5.95,-0.828 v -1.809 h -24.9 v 1.809 c 3.12,0.062 5.14,0.332 6.05,0.804 0.91,0.473 1.55,1.106 1.91,1.903 0.36,0.8 0.53,3.183 0.53,7.156 v 35.742 c 0,4.817 -0.16,7.91 -0.48,9.277 -0.23,1.04 -0.65,1.805 -1.25,2.293 -0.6,0.489 -1.33,0.735 -2.17,0.735 -1.21,0 -2.88,-0.504 -5.03,-1.516 l -0.74,1.516" /><path
         id="path136"
         style="fill:#000000;fill-opacity:1;fill-rule:evenodd;stroke:none"
         d="m 1736.28,815.148 c 1.88,4.457 4.27,7.903 7.15,10.325 2.88,2.425 6.47,3.64 10.77,3.64 5.3,0 9.37,-1.726 12.2,-5.175 2.15,-2.575 3.22,-5.325 3.22,-8.254 0,-4.817 -3.02,-9.797 -9.08,-14.942 4.07,-1.594 7.15,-3.875 9.23,-6.836 2.09,-2.961 3.13,-6.445 3.13,-10.449 0,-5.73 -1.83,-10.691 -5.47,-14.891 -4.75,-5.468 -11.64,-8.203 -20.66,-8.203 -4.45,0 -7.49,0.551 -9.1,1.66 -1.61,1.106 -2.42,2.293 -2.42,3.563 0,0.945 0.38,1.773 1.15,2.492 0.76,0.715 1.68,1.074 2.76,1.074 0.81,0 1.64,-0.132 2.49,-0.39 0.55,-0.164 1.8,-0.758 3.76,-1.785 1.95,-1.024 3.3,-1.633 4.05,-1.829 1.2,-0.359 2.49,-0.539 3.86,-0.539 3.32,0 6.21,1.286 8.66,3.86 2.46,2.57 3.69,5.613 3.69,9.129 0,2.57 -0.57,5.078 -1.71,7.519 -0.84,1.824 -1.77,3.207 -2.78,4.153 -1.4,1.3 -3.32,2.48 -5.76,3.539 -2.44,1.058 -4.94,1.586 -7.47,1.586 h -1.57 v 1.464 c 2.58,0.325 5.16,1.254 7.74,2.786 2.59,1.527 4.47,3.367 5.64,5.515 1.17,2.149 1.76,4.508 1.76,7.082 0,3.352 -1.05,6.063 -3.15,8.129 -2.1,2.067 -4.71,3.102 -7.83,3.102 -5.05,0 -9.27,-2.703 -12.65,-8.106 l -1.61,0.781" /><path
         id="path138"
         style="fill:#000000;fill-opacity:1;fill-rule:evenodd;stroke:none"
         d="m 1783.45,828.918 v 2.051 c 4.94,-2.442 9.06,-5.324 12.35,-8.645 4.65,-4.754 8.25,-10.328 10.79,-16.722 2.54,-6.399 3.81,-13.063 3.81,-19.997 0,-10.089 -2.49,-19.293 -7.45,-27.613 -4.96,-8.316 -11.47,-14.265 -19.5,-17.844 v 1.805 c 4,2.246 7.3,5.281 9.88,9.106 2.59,3.828 4.51,8.691 5.76,14.601 1.26,5.906 1.88,12.067 1.88,18.481 0,6.933 -0.53,13.265 -1.61,18.996 -0.81,4.492 -1.83,8.086 -3.05,10.789 -1.22,2.703 -2.84,5.304 -4.86,7.812 -2.02,2.508 -4.68,4.899 -8,7.18 v 0" /><path
         id="path140"
         style="fill:#000000;fill-opacity:1;fill-rule:evenodd;stroke:none"
         d="m 2647.86,785.945 v -6.933 h -8.88 v -17.481 h -8.06 v 17.481 h -28.03 v 6.25 l 30.72,43.847 h 5.37 v -43.164 z m -16.94,0 v 32.864 l -23.24,-32.864 h 23.24" /><path
         id="path142"
         style="fill:#000000;fill-opacity:1;fill-rule:evenodd;stroke:none"
         d="m 2653.57,828.914 v 2.051 c 4.95,-2.442 9.07,-5.32 12.36,-8.641 4.65,-4.754 8.25,-10.328 10.79,-16.722 2.54,-6.399 3.81,-13.063 3.81,-19.997 0,-10.093 -2.48,-19.296 -7.45,-27.613 -4.96,-8.316 -11.46,-14.265 -19.51,-17.847 v 1.808 c 4.01,2.246 7.31,5.281 9.89,9.106 2.59,3.824 4.51,8.691 5.76,14.601 1.26,5.906 1.89,12.067 1.89,18.481 0,6.933 -0.54,13.265 -1.62,18.992 -0.81,4.492 -1.83,8.09 -3.05,10.793 -1.22,2.699 -2.84,5.304 -4.86,7.812 -2.01,2.504 -4.69,4.899 -8.01,7.176 v 0" /><path
         id="path144"
         style="fill:none;stroke:#000000;stroke-width:4;stroke-linecap:butt;stroke-linejoin:miter;stroke-miterlimit:10;stroke-dasharray:none;stroke-opacity:1"
         d="m 2072.1,534.676 c 56.8,-0.16 56.8,-0.16 56.8,-0.16" /><path
         id="path146"
         style="fill:none;stroke:#000000;stroke-width:4;stroke-linecap:butt;stroke-linejoin:miter;stroke-miterlimit:10;stroke-dasharray:none;stroke-opacity:1"
         d="m 2074.11,614.676 c 56.8,-0.16 56.8,-0.16 56.8,-0.16" /><path
         id="path148"
         style="fill:none;stroke:#000000;stroke-width:4;stroke-linecap:butt;stroke-linejoin:miter;stroke-miterlimit:10;stroke-dasharray:none;stroke-opacity:1"
         d="m 2952.12,223.738 c 56.8,-0.16 56.8,-0.16 56.8,-0.16" /><path
         id="path150"
         style="fill:none;stroke:#000000;stroke-width:8;stroke-linecap:round;stroke-linejoin:round;stroke-miterlimit:10;stroke-dasharray:none;stroke-opacity:1"
         d="M 2373.11,663.512 C 2097.16,380.863 1945.92,228.855 1863.07,147.102" /><path
         id="path152"
         style="fill:none;stroke:#000000;stroke-width:8;stroke-linecap:round;stroke-linejoin:round;stroke-miterlimit:10;stroke-dasharray:none;stroke-opacity:1"
         d="m 3275.94,151.824 c -555.61,0.645 -558.3,-0.347 -558.3,-0.347" /><path
         id="path154"
         style="fill:none;stroke:#000000;stroke-width:8;stroke-linecap:round;stroke-linejoin:round;stroke-miterlimit:10;stroke-dasharray:none;stroke-opacity:1"
         d="M 638.25,686.461 C 128.906,685.535 126.648,686.113 126.648,686.113" /><path
         id="path156"
         style="fill:none;stroke:#000000;stroke-width:4;stroke-linecap:butt;stroke-linejoin:miter;stroke-miterlimit:10;stroke-dasharray:none;stroke-opacity:1"
         d="m 327.379,528.902 c 56.805,-0.16 56.805,-0.16 56.805,-0.16" /><path
         id="path158"
         style="fill:none;stroke:#000000;stroke-width:4;stroke-linecap:butt;stroke-linejoin:miter;stroke-miterlimit:10;stroke-dasharray:none;stroke-opacity:1"
         d="m 329.211,608.902 c 56.801,-0.16 56.801,-0.16 56.801,-0.16" /><path
         id="path160"
         style="fill:none;stroke:#000000;stroke-width:4;stroke-linecap:butt;stroke-linejoin:miter;stroke-miterlimit:10;stroke-dasharray:none;stroke-opacity:1"
         d="m 331.227,688.902 c 56.8,-0.16 56.8,-0.16 56.8,-0.16" /><path
         id="path162"
         style="fill:none;stroke:#000000;stroke-width:10;stroke-linecap:butt;stroke-linejoin:round;stroke-miterlimit:10;stroke-dasharray:none;stroke-opacity:1"
         d="m 834.84,410.758 c 0.164,0.008 0.328,0.019 0.492,0.027 0.164,0.012 0.328,0.02 0.492,0.031 0.164,0.012 0.328,0.02 0.492,0.032 0.164,0.007 0.329,0.019 0.493,0.031 0.164,0.008 0.328,0.019 0.492,0.027 0.164,0.012 0.328,0.02 0.492,0.032 0.164,0.011 0.328,0.019 0.492,0.031 0.164,0.008 0.328,0.019 0.496,0.031 0.164,0.008 0.328,0.02 0.492,0.027 0.165,0.012 0.329,0.024 0.493,0.032 0.164,0.011 0.328,0.023 0.492,0.031 0.164,0.012 0.328,0.019 0.492,0.031 0.164,0.012 0.328,0.02 0.492,0.031 0.164,0.008 0.328,0.02 0.492,0.032 0.164,0.007 0.328,0.019 0.493,0.031 0.164,0.008 0.328,0.019 0.492,0.031 0.164,0.008 0.332,0.02 0.496,0.027 0.164,0.012 0.328,0.024 0.492,0.032 0.164,0.011 0.328,0.023 0.492,0.031 0.164,0.012 0.328,0.023 0.492,0.031 0.164,0.012 0.329,0.024 0.493,0.031 0.164,0.012 0.328,0.024 0.492,0.032 0.164,0.011 0.328,0.023 0.492,0.031 0.164,0.012 0.328,0.023 0.492,0.035 0.164,0.008 0.328,0.02 0.496,0.031 0.164,0.008 0.328,0.02 0.492,0.032 0.164,0.007 0.329,0.019 0.493,0.031 0.164,0.012 0.328,0.019 0.492,0.031 0.164,0.012 0.328,0.02 0.492,0.031 0.164,0.012 0.328,0.024 0.492,0.032 0.164,0.011 0.328,0.023 0.492,0.031 0.164,0.012 0.329,0.023 0.493,0.035 0.164,0.008 0.328,0.02 0.492,0.031 0.168,0.012 0.332,0.02 0.496,0.031 0.164,0.012 0.328,0.024 0.492,0.032 0.164,0.011 0.328,0.023 0.492,0.031 0.164,0.012 0.328,0.023 0.492,0.035 0.164,0.012 0.329,0.02 0.493,0.031 0.164,0.012 0.328,0.024 0.492,0.032 0.164,0.011 0.328,0.023 0.492,0.035 0.164,0.008 0.328,0.019 0.492,0.031 0.164,0.012 0.328,0.023 0.496,0.031 0.164,0.012 0.328,0.024 0.492,0.035 0.165,0.012 0.329,0.02 0.493,0.032 0.164,0.011 0.328,0.023 0.492,0.035 0.164,0.008 0.328,0.019 0.492,0.031 0.164,0.012 0.328,0.024 0.492,0.031 0.164,0.012 0.328,0.024 0.492,0.036 0.164,0.011 0.328,0.019 0.493,0.031 0.164,0.011 0.328,0.023 0.496,0.035 0.164,0.012 0.328,0.019 0.492,0.031 0.164,0.012 0.328,0.024 0.492,0.035 0.164,0.012 0.328,0.024 0.492,0.032 0.164,0.011 0.328,0.023 0.492,0.035 0.164,0.011 0.329,0.023 0.493,0.035 0.164,0.008 0.328,0.019 0.492,0.031 0.164,0.012 0.328,0.024 0.492,0.035 0.164,0.012 0.328,0.024 0.492,0.032 0.164,0.011 0.332,0.023 0.496,0.035 0.164,0.011 0.328,0.023 0.492,0.035 0.164,0.012 0.329,0.023 0.493,0.031 0.164,0.012 0.328,0.024 0.492,0.035 0.164,0.012 0.328,0.024 0.492,0.035 0.164,0.012 0.328,0.024 0.492,0.036 0.164,0.011 0.328,0.019 0.492,0.031 0.164,0.012 0.329,0.023 0.493,0.035 0.164,0.012 0.328,0.023 0.496,0.035 0.164,0.012 0.328,0.024 0.492,0.035 0.164,0.012 0.328,0.024 0.492,0.035 0.164,0.012 0.328,0.024 0.492,0.036 0.164,0.007 0.328,0.019 0.492,0.031 0.164,0.012 0.329,0.023 0.493,0.035 0.164,0.012 0.328,0.023 0.492,0.035 0.164,0.012 0.328,0.024 0.492,0.035 0.164,0.012 0.328,0.024 0.492,0.036 0.168,0.011 0.332,0.023 0.496,0.035 0.164,0.011 0.328,0.023 0.492,0.035 0.165,0.012 0.329,0.023 0.493,0.035 0.164,0.012 0.328,0.023 0.492,0.035 0.164,0.012 0.328,0.024 0.492,0.035 0.164,0.012 0.328,0.024 0.492,0.035 0.164,0.012 0.328,0.024 0.492,0.036 0.164,0.011 0.328,0.023 0.493,0.035 0.164,0.011 0.332,0.023 0.496,0.039 0.164,0.012 0.328,0.023 0.492,0.035 0.164,0.012 0.328,0.023 0.492,0.035 0.164,0.012 0.328,0.024 0.492,0.035 0.164,0.012 0.328,0.024 0.492,0.035 0.164,0.012 0.329,0.024 0.493,0.036 0.164,0.015 0.328,0.027 0.492,0.039 0.164,0.011 0.328,0.023 0.492,0.035 0.164,0.012 0.328,0.023 0.492,0.035 0.168,0.012 0.332,0.023 0.496,0.039 0.164,0.012 0.328,0.023 0.492,0.035 0.164,0.012 0.329,0.024 0.493,0.035 0.164,0.012 0.328,0.024 0.492,0.039 0.164,0.012 0.328,0.024 0.492,0.036 0.164,0.011 0.328,0.023 0.492,0.035 0.164,0.015 0.328,0.027 0.492,0.039 0.164,0.011 0.329,0.023 0.493,0.035 0.164,0.012 0.332,0.027 0.496,0.039 0.164,0.012 0.328,0.023 0.492,0.035 0.164,0.012 0.328,0.028 0.492,0.039 0.164,0.012 0.328,0.024 0.492,0.035 0.164,0.012 0.328,0.028 0.492,0.039 0.164,0.012 0.329,0.024 0.493,0.036 0.164,0.015 0.328,0.027 0.492,0.039 0.164,0.011 0.328,0.023 0.492,0.039 0.164,0.011 0.332,0.023 0.496,0.035 0.164,0.012 0.328,0.027 0.492,0.039 0.164,0.012 0.328,0.023 0.492,0.039 0.165,0.012 0.329,0.023 0.493,0.035 0.164,0.012 0.328,0.027 0.492,0.039 0.164,0.012 0.328,0.024 0.492,0.039 0.164,0.012 0.328,0.024 0.492,0.039 0.164,0.012 0.328,0.024 0.492,0.036 0.164,0.015 0.328,0.027 0.493,0.039 0.168,0.011 0.332,0.027 0.496,0.039 0.164,0.011 0.328,0.023 0.492,0.039 0.164,0.011 0.328,0.023 0.492,0.039 0.164,0.011 0.328,0.023 0.492,0.039 0.164,0.012 0.328,0.023 0.492,0.035 0.164,0.016 0.329,0.027 0.493,0.039 0.164,0.016 0.328,0.027 0.492,0.039 0.164,0.016 0.328,0.027 0.492,0.039 0.164,0.016 0.328,0.027 0.496,0.039 0.164,0.016 0.328,0.028 0.492,0.039 0.164,0.016 0.328,0.028 0.492,0.043 0.164,0.012 0.329,0.024 0.493,0.039 0.164,0.012 0.328,0.024 0.492,0.039 0.164,0.012 0.328,0.024 0.492,0.039 0.164,0.012 0.328,0.028 0.492,0.039 0.164,0.012 0.328,0.028 0.492,0.04 0.164,0.011 0.329,0.027 0.496,0.039 0.165,0.015 0.329,0.027 0.493,0.043 0.164,0.011 0.328,0.023 0.492,0.039 0.164,0.011 0.328,0.027 0.492,0.039 0.164,0.011 0.328,0.027 0.492,0.039 0.164,0.015 0.328,0.027 0.492,0.043 0.164,0.011 0.329,0.023 0.493,0.039 0.164,0.012 0.328,0.027 0.492,0.039 0.164,0.016 0.328,0.027 0.492,0.043 0.168,0.012 0.332,0.027 0.496,0.039 0.164,0.016 0.328,0.027 0.492,0.039 0.164,0.016 0.328,0.027 0.492,0.043 0.165,0.012 0.329,0.027 0.493,0.039 0.164,0.016 0.328,0.027 0.492,0.043 0.164,0.012 0.328,0.027 0.492,0.039 0.164,0.016 0.328,0.027 0.492,0.043 0.164,0.016 0.328,0.027 0.492,0.043 0.164,0.012 0.328,0.027 0.496,0.039 0.165,0.016 0.329,0.027 0.493,0.043 0.164,0.012 0.328,0.027 0.492,0.043 0.164,0.012 0.328,0.027 0.492,0.039 0.164,0.016 0.328,0.027 0.492,0.043 0.164,0.012 0.328,0.027 0.492,0.043 0.164,0.012 0.329,0.027 0.493,0.039 0.164,0.016 0.328,0.027 0.492,0.043 0.164,0.016 0.328,0.027 0.496,0.043 0.164,0.012 0.328,0.027 0.492,0.043 0.164,0.012 0.328,0.027 0.492,0.043 0.164,0.012 0.328,0.027 0.492,0.039 0.164,0.016 0.329,0.031 0.493,0.043 0.164,0.016 0.328,0.031 0.492,0.043 0.164,0.016 0.328,0.031 0.492,0.043 0.164,0.016 0.328,0.031 0.492,0.043 0.164,0.015 0.328,0.031 0.492,0.043 0.164,0.015 0.332,0.031 0.496,0.043 0.165,0.015 0.329,0.031 0.493,0.043 0.164,0.015 0.328,0.031 0.492,0.043 0.164,0.015 0.328,0.031 0.492,0.043 0.164,0.015 0.328,0.031 0.492,0.047 0.164,0.011 0.328,0.027 0.492,0.043 0.164,0.011 0.329,0.027 0.493,0.042 0.164,0.016 0.328,0.028 0.492,0.043 0.164,0.016 0.328,0.032 0.492,0.043 0.168,0.016 0.332,0.032 0.496,0.047 0.164,0.012 0.328,0.028 0.492,0.043 0.164,0.016 0.328,0.032 0.492,0.043 0.165,0.016 0.329,0.031 0.493,0.047 0.164,0.012 0.328,0.027 0.492,0.043 0.164,0.016 0.328,0.031 0.492,0.043 0.164,0.016 0.328,0.031 0.492,0.047 0.164,0.016 0.328,0.027 0.492,0.043 0.168,0.016 0.332,0.031 0.496,0.047 0.165,0.015 0.329,0.027 0.493,0.043 0.164,0.015 0.328,0.031 0.492,0.047 0.164,0.015 0.328,0.031 0.492,0.043 0.164,0.015 0.328,0.031 0.492,0.046 0.164,0.016 0.328,0.032 0.492,0.047 0.164,0.016 0.329,0.028 0.493,0.043 0.164,0.016 0.328,0.032 0.492,0.047 0.164,0.016 0.332,0.031 0.496,0.047 0.164,0.016 0.328,0.027 0.492,0.043 0.164,0.016 0.328,0.031 0.492,0.047 0.164,0.016 0.328,0.031 0.492,0.047 0.164,0.015 0.329,0.031 0.493,0.047 0.164,0.015 0.328,0.031 0.492,0.047 0.164,0.015 0.328,0.031 0.492,0.046 0.164,0.016 0.328,0.032 0.492,0.043 0.164,0.016 0.328,0.032 0.492,0.047 0.168,0.016 0.332,0.031 0.496,0.047 0.165,0.016 0.329,0.031 0.493,0.047 0.164,0.016 0.328,0.031 0.492,0.047 0.164,0.016 0.328,0.031 0.492,0.047 0.164,0.019 0.328,0.035 0.492,0.051 0.164,0.015 0.328,0.031 0.492,0.046 0.164,0.016 0.329,0.032 0.493,0.047 0.164,0.016 0.328,0.032 0.492,0.047 0.168,0.016 0.332,0.031 0.496,0.047 0.164,0.016 0.328,0.031 0.492,0.047 0.164,0.019 0.328,0.035 0.492,0.051 0.164,0.015 0.328,0.031 0.492,0.047 0.165,0.015 0.329,0.031 0.493,0.046 0.164,0.02 0.328,0.036 0.492,0.051 0.164,0.016 0.328,0.031 0.492,0.047 0.164,0.016 0.328,0.031 0.492,0.051 0.164,0.015 0.328,0.031 0.496,0.047 0.164,0.015 0.328,0.031 0.492,0.051 0.165,0.015 0.329,0.031 0.493,0.046 0.164,0.016 0.328,0.032 0.492,0.051 0.164,0.016 0.328,0.031 0.492,0.047 0.164,0.016 0.328,0.035 0.492,0.051 0.164,0.015 0.328,0.031 0.492,0.047 0.164,0.019 0.329,0.035 0.493,0.051 0.164,0.015 0.328,0.035 0.492,0.05 0.164,0.016 0.332,0.032 0.496,0.051 0.164,0.016 0.328,0.031 0.492,0.047 0.164,0.019 0.328,0.035 0.492,0.051 0.164,0.015 0.328,0.035 0.492,0.051 0.164,0.015 0.329,0.035 0.493,0.05 0.164,0.016 0.328,0.032 0.492,0.051 0.164,0.016 0.328,0.031 0.492,0.051 0.164,0.015 0.328,0.031 0.492,0.051 0.164,0.015 0.332,0.031 0.496,0.05 0.164,0.016 0.328,0.032 0.492,0.051 0.165,0.016 0.329,0.031 0.493,0.051 0.164,0.016 0.328,0.035 0.492,0.051 0.164,0.015 0.328,0.035 0.492,0.051 0.164,0.015 0.328,0.035 0.492,0.05 0.164,0.02 0.328,0.035 0.492,0.051 0.164,0.02 0.329,0.035 0.493,0.055 0.164,0.015 0.328,0.035 0.496,0.051 0.164,0.015 0.328,0.035 0.492,0.05 0.164,0.02 0.328,0.036 0.492,0.055 0.164,0.016 0.328,0.035 0.492,0.051 0.164,0.015 0.328,0.035 0.492,0.051 0.165,0.019 0.329,0.035 0.493,0.054 0.164,0.016 0.328,0.035 0.492,0.051 0.164,0.02 0.328,0.035 0.492,0.055 0.164,0.015 0.328,0.035 0.492,0.051 0.164,0.019 0.332,0.039 0.496,0.054 0.164,0.02 0.328,0.035 0.492,0.055 0.165,0.016 0.329,0.035 0.493,0.051 0.164,0.019 0.328,0.039 0.492,0.054 0.164,0.02 0.328,0.036 0.492,0.055 0.164,0.016 0.328,0.035 0.492,0.055 0.164,0.015 0.328,0.035 0.492,0.051 0.164,0.019 0.329,0.039 0.493,0.054 0.164,0.02 0.328,0.039 0.496,0.055 0.164,0.019 0.328,0.035 0.492,0.055 0.164,0.019 0.328,0.035 0.492,0.054 0.164,0.02 0.328,0.035 0.492,0.055 0.164,0.02 0.328,0.035 0.492,0.055 0.164,0.019 0.329,0.035 0.493,0.054 0.164,0.02 0.328,0.039 0.492,0.055 0.164,0.02 0.328,0.039 0.492,0.055 0.164,0.019 0.328,0.039 0.492,0.058 0.168,0.016 0.332,0.035 0.496,0.055 0.164,0.02 0.328,0.035 0.492,0.055 0.165,0.019 0.329,0.039 0.493,0.054 0.164,0.02 0.328,0.039 0.492,0.059 0.164,0.016 0.328,0.035 0.492,0.055 0.164,0.019 0.328,0.039 0.492,0.054 0.164,0.02 0.328,0.039 0.492,0.059 0.164,0.019 0.329,0.039 0.493,0.055 0.164,0.019 0.328,0.039 0.496,0.058 0.164,0.02 0.328,0.039 0.492,0.059 0.164,0.015 0.328,0.035 0.492,0.054 0.164,0.02 0.328,0.04 0.492,0.059 0.164,0.02 0.328,0.039 0.492,0.055 0.165,0.019 0.329,0.039 0.493,0.058 0.164,0.02 0.328,0.039 0.492,0.059 0.164,0.019 0.328,0.039 0.492,0.059 0.164,0.019 0.328,0.039 0.496,0.058 0.164,0.02 0.328,0.039 0.492,0.059 0.164,0.019 0.328,0.039 0.492,0.054 0.165,0.02 0.329,0.039 0.493,0.059 0.164,0.02 0.328,0.039 0.492,0.059 0.164,0.019 0.328,0.043 0.492,0.058 0.164,0.024 0.328,0.043 0.492,0.063 0.164,0.019 0.328,0.039 0.492,0.058 0.164,0.02 0.329,0.039 0.493,0.059 0.168,0.019 0.332,0.039 0.496,0.059 0.164,0.019 0.328,0.039 0.492,0.058 0.164,0.024 0.328,0.043 0.492,0.063 0.164,0.019 0.328,0.039 0.492,0.058 0.164,0.02 0.328,0.039 0.492,0.063 0.164,0.019 0.329,0.039 0.493,0.058 0.164,0.02 0.328,0.039 0.492,0.059 0.164,0.023 0.328,0.043 0.492,0.062 0.164,0.02 0.328,0.039 0.496,0.063 0.164,0.019 0.328,0.039 0.492,0.058 0.164,0.02 0.328,0.043 0.492,0.063 0.165,0.019 0.329,0.039 0.493,0.062 0.164,0.02 0.328,0.04 0.492,0.059 0.164,0.024 0.328,0.043 0.492,0.063 0.164,0.019 0.328,0.043 0.492,0.062 0.164,0.02 0.328,0.039 0.492,0.063 0.164,0.019 0.329,0.039 0.493,0.062 0.168,0.02 0.332,0.039 0.496,0.063 0.164,0.019 0.328,0.039 0.492,0.062 0.164,0.02 0.328,0.039 0.492,0.063 0.164,0.019 0.328,0.039 0.492,0.062 0.164,0.02 0.328,0.043 0.492,0.063 0.165,0.019 0.329,0.043 0.493,0.062 0.164,0.023 0.328,0.043 0.492,0.063 0.164,0.023 0.328,0.043 0.492,0.066 0.164,0.02 0.332,0.043 0.496,0.062 0.164,0.024 0.328,0.043 0.492,0.063 0.164,0.023 0.328,0.043 0.492,0.066 0.165,0.02 0.329,0.043 0.493,0.063 0.164,0.023 0.328,0.043 0.492,0.066 0.164,0.02 0.328,0.043 0.492,0.067 0.164,0.019 0.328,0.043 0.492,0.062 0.164,0.024 0.328,0.043 0.492,0.067 0.164,0.019 0.329,0.043 0.493,0.066 0.168,0.02 0.332,0.043 0.496,0.062 0.164,0.024 0.328,0.047 0.492,0.067 0.164,0.023 0.328,0.043 0.492,0.066 0.164,0.024 0.328,0.043 0.492,0.067 0.164,0.023 0.328,0.043 0.492,0.066 0.164,0.024 0.329,0.043 0.493,0.067 0.164,0.023 0.328,0.043 0.492,0.066 0.164,0.023 0.328,0.043 0.492,0.066 0.165,0.024 0.335,0.047 0.495,0.067 0.17,0.023 0.33,0.047 0.49,0.07 0.17,0.02 0.33,0.043 0.5,0.066 0.16,0.024 0.32,0.043 0.49,0.067 0.16,0.023 0.33,0.047 0.49,0.07 0.16,0.02 0.33,0.043 0.49,0.067 0.17,0.023 0.33,0.046 0.49,0.066 0.17,0.023 0.33,0.047 0.5,0.07 0.16,0.024 0.33,0.047 0.49,0.071 0.17,0.019 0.33,0.043 0.49,0.066 0.17,0.023 0.33,0.047 0.5,0.07 0.16,0.024 0.32,0.047 0.49,0.071 0.16,0.023 0.33,0.043 0.49,0.066 0.17,0.024 0.33,0.047 0.49,0.07 0.17,0.024 0.33,0.047 0.5,0.071 0.16,0.023 0.32,0.047 0.49,0.07 0.16,0.023 0.33,0.047 0.49,0.07 0.17,0.024 0.33,0.047 0.5,0.071 0.16,0.023 0.32,0.046 0.49,0.07 0.16,0.023 0.33,0.047 0.49,0.07 0.16,0.028 0.33,0.051 0.49,0.074 0.17,0.024 0.33,0.047 0.49,0.071 0.17,0.023 0.33,0.047 0.5,0.07 0.16,0.027 0.33,0.051 0.49,0.074 0.16,0.024 0.33,0.047 0.49,0.071 0.17,0.023 0.33,0.05 0.5,0.074 0.16,0.023 0.33,0.047 0.49,0.07 0.16,0.024 0.33,0.051 0.49,0.074 0.17,0.024 0.33,0.047 0.49,0.075 0.17,0.023 0.33,0.046 0.5,0.07 0.16,0.027 0.32,0.051 0.49,0.074 0.16,0.024 0.33,0.051 0.49,0.074 0.16,0.024 0.33,0.051 0.49,0.075 0.17,0.023 0.33,0.05 0.5,0.074 0.16,0.023 0.33,0.051 0.49,0.074 0.17,0.023 0.33,0.051 0.49,0.074 0.17,0.024 0.33,0.051 0.5,0.074 0.16,0.028 0.32,0.051 0.49,0.075 0.16,0.027 0.33,0.05 0.49,0.078 0.16,0.023 0.33,0.051 0.49,0.074 0.17,0.023 0.33,0.051 0.49,0.074 0.17,0.028 0.33,0.051 0.5,0.078 0.16,0.024 0.33,0.051 0.49,0.075 0.17,0.027 0.33,0.05 0.49,0.078 0.17,0.023 0.33,0.05 0.5,0.078 0.16,0.023 0.33,0.051 0.49,0.074 0.16,0.027 0.33,0.051 0.49,0.078 0.17,0.028 0.33,0.051 0.49,0.078 0.17,0.024 0.33,0.051 0.5,0.078 0.16,0.024 0.32,0.051 0.49,0.079 0.16,0.023 0.33,0.05 0.49,0.078 0.17,0.023 0.33,0.05 0.5,0.078 0.16,0.023 0.32,0.051 0.49,0.078 0.16,0.027 0.33,0.051 0.49,0.078 0.16,0.027 0.33,0.055 0.49,0.078 0.17,0.027 0.33,0.055 0.49,0.082 0.17,0.028 0.33,0.051 0.5,0.078 0.16,0.028 0.33,0.055 0.49,0.082 0.16,0.024 0.33,0.051 0.5,0.078 0.16,0.028 0.32,0.055 0.49,0.083 0.16,0.027 0.33,0.054 0.49,0.078 0.16,0.027 0.33,0.054 0.49,0.082 0.17,0.027 0.33,0.054 0.49,0.082 0.17,0.027 0.33,0.054 0.5,0.082 0.16,0.027 0.32,0.054 0.49,0.082 0.16,0.027 0.33,0.054 0.49,0.082 0.16,0.027 0.33,0.054 0.49,0.082 0.17,0.027 0.33,0.054 0.5,0.082 0.16,0.027 0.33,0.055 0.49,0.082 0.17,0.027 0.33,0.055 0.49,0.082 0.17,0.031 0.33,0.058 0.5,0.086 0.16,0.027 0.32,0.055 0.49,0.082 0.16,0.027 0.33,0.058 0.49,0.086 0.16,0.027 0.33,0.054 0.49,0.082 0.17,0.031 0.33,0.058 0.49,0.086 0.17,0.027 0.33,0.054 0.5,0.086 0.16,0.027 0.33,0.054 0.49,0.082 0.17,0.031 0.33,0.058 0.49,0.086 0.17,0.031 0.33,0.058 0.5,0.086 0.16,0.031 0.32,0.058 0.49,0.086 0.16,0.031 0.33,0.058 0.49,0.086 0.17,0.031 0.33,0.058 0.49,0.085 0.17,0.032 0.33,0.059 0.5,0.09 0.16,0.028 0.32,0.059 0.49,0.086 0.17,0.028 0.33,0.059 0.49,0.086 0.17,0.031 0.33,0.059 0.5,0.09 0.16,0.027 0.32,0.059 0.49,0.086 0.16,0.031 0.33,0.059 0.49,0.09 0.16,0.027 0.33,0.058 0.49,0.09 0.17,0.027 0.33,0.058 0.49,0.086 0.17,0.031 0.33,0.062 0.5,0.089 0.16,0.032 0.33,0.059 0.49,0.09 0.16,0.032 0.33,0.059 0.5,0.09 0.16,0.031 0.32,0.059 0.49,0.09 0.16,0.031 0.33,0.062 0.49,0.09 0.16,0.031 0.33,0.062 0.49,0.094 0.17,0.027 0.33,0.058 0.49,0.089 0.17,0.032 0.33,0.059 0.5,0.09 0.16,0.031 0.32,0.063 0.49,0.094 0.16,0.031 0.33,0.059 0.49,0.09 0.16,0.031 0.33,0.062 0.49,0.094 0.17,0.031 0.33,0.062 0.5,0.093 0.16,0.032 0.33,0.059 0.49,0.09 0.17,0.031 0.33,0.063 0.49,0.094 0.17,0.031 0.33,0.062 0.5,0.094 0.16,0.031 0.32,0.062 0.49,0.093 0.16,0.032 0.33,0.063 0.49,0.094 0.16,0.031 0.33,0.067 0.49,0.098 0.17,0.031 0.33,0.062 0.49,0.094 0.17,0.031 0.34,0.062 0.5,0.093 0.16,0.032 0.33,0.067 0.49,0.098 0.17,0.031 0.33,0.062 0.49,0.094 0.17,0.035 0.33,0.066 0.5,0.097 0.16,0.032 0.33,0.063 0.49,0.098 0.16,0.031 0.33,0.063 0.49,0.094 0.17,0.035 0.33,0.066 0.49,0.097 0.17,0.036 0.33,0.067 0.5,0.098 0.16,0.035 0.32,0.066 0.49,0.098 0.17,0.035 0.33,0.066 0.49,0.101 0.17,0.032 0.33,0.063 0.5,0.098 0.16,0.031 0.32,0.066 0.49,0.098 0.16,0.035 0.33,0.066 0.49,0.101 0.16,0.031 0.33,0.067 0.49,0.098 0.17,0.035 0.33,0.066 0.49,0.101 0.17,0.032 0.33,0.067 0.5,0.102 0.16,0.031 0.33,0.066 0.49,0.098 0.17,0.035 0.33,0.07 0.5,0.101 0.16,0.035 0.32,0.07 0.49,0.102 0.16,0.035 0.33,0.07 0.49,0.101 0.16,0.035 0.33,0.071 0.49,0.106 0.17,0.031 0.33,0.066 0.49,0.101 0.17,0.036 0.33,0.067 0.5,0.102 0.16,0.035 0.32,0.07 0.49,0.105 0.16,0.036 0.33,0.067 0.49,0.102 0.16,0.035 0.33,0.07 0.5,0.105 0.16,0.036 0.32,0.071 0.49,0.106 0.16,0.035 0.33,0.07 0.49,0.105 0.17,0.035 0.33,0.071 0.49,0.106 0.17,0.035 0.33,0.07 0.5,0.105 0.16,0.035 0.32,0.071 0.49,0.106 0.16,0.035 0.33,0.07 0.49,0.105 0.16,0.035 0.33,0.071 0.49,0.106 0.17,0.039 0.33,0.074 0.49,0.109 0.17,0.035 0.34,0.07 0.5,0.109 0.16,0.036 0.33,0.071 0.49,0.106 0.17,0.035 0.33,0.074 0.49,0.109 0.17,0.035 0.33,0.074 0.5,0.11 0.16,0.035 0.32,0.074 0.49,0.109 0.16,0.035 0.33,0.074 0.49,0.109 0.17,0.036 0.33,0.075 0.49,0.11 0.17,0.039 0.33,0.074 0.5,0.113 0.16,0.035 0.33,0.07 0.49,0.109 0.17,0.036 0.33,0.075 0.49,0.11 0.17,0.039 0.33,0.078 0.5,0.113 0.16,0.039 0.32,0.074 0.49,0.113 0.16,0.036 0.33,0.075 0.49,0.114 0.16,0.035 0.33,0.074 0.49,0.113 0.17,0.035 0.33,0.074 0.49,0.113 0.17,0.035 0.33,0.074 0.5,0.114 0.16,0.039 0.33,0.078 0.49,0.113 0.17,0.039 0.33,0.078 0.5,0.117 0.16,0.039 0.32,0.074 0.49,0.113 0.16,0.039 0.33,0.078 0.49,0.117 0.16,0.04 0.33,0.079 0.49,0.118 0.17,0.039 0.33,0.078 0.49,0.117 0.17,0.035 0.33,0.078 0.5,0.117 0.16,0.039 0.32,0.078 0.49,0.117 0.16,0.039 0.33,0.078 0.49,0.117 0.17,0.039 0.33,0.078 0.5,0.118 0.16,0.039 0.32,0.078 0.49,0.121 0.16,0.039 0.33,0.078 0.49,0.117 0.17,0.039 0.33,0.082 0.49,0.121 0.17,0.039 0.33,0.078 0.5,0.121 0.16,0.039 0.32,0.078 0.49,0.121 0.16,0.039 0.33,0.078 0.49,0.121 0.16,0.039 0.33,0.082 0.49,0.121 0.17,0.039 0.33,0.082 0.5,0.121 0.16,0.043 0.33,0.082 0.49,0.125 0.16,0.039 0.33,0.082 0.49,0.121 0.17,0.043 0.33,0.086 0.49,0.126 0.17,0.042 0.33,0.082 0.5,0.124 0.16,0.043 0.33,0.083 0.49,0.126 0.16,0.042 0.33,0.082 0.49,0.124 0.17,0.043 0.33,0.083 0.49,0.126 0.17,0.042 0.33,0.085 0.5,0.128 0.16,0.039 0.33,0.082 0.49,0.125 0.17,0.043 0.33,0.086 0.49,0.129 0.17,0.043 0.33,0.082 0.5,0.125 0.16,0.043 0.32,0.086 0.49,0.129 0.16,0.043 0.33,0.086 0.49,0.129 0.16,0.043 0.33,0.086 0.49,0.129 0.17,0.043 0.33,0.09 0.49,0.133 0.17,0.043 0.33,0.086 0.5,0.129 0.16,0.043 0.33,0.086 0.49,0.133 0.17,0.043 0.33,0.085 0.5,0.128 0.16,0.047 0.32,0.09 0.49,0.133 0.16,0.047 0.33,0.09 0.49,0.133 0.16,0.047 0.33,0.09 0.49,0.133 0.17,0.047 0.33,0.09 0.49,0.137 0.17,0.043 0.33,0.089 0.5,0.132 0.16,0.043 0.32,0.09 0.49,0.137 0.16,0.043 0.33,0.09 0.49,0.133 0.17,0.047 0.33,0.09 0.5,0.137 0.16,0.047 0.32,0.09 0.49,0.136 0.16,0.047 0.33,0.09 0.49,0.137 0.17,0.047 0.33,0.094 0.49,0.137 0.17,0.047 0.33,0.094 0.5,0.14 0.16,0.047 0.32,0.094 0.49,0.137 0.16,0.047 0.33,0.094 0.49,0.141 0.16,0.047 0.33,0.094 0.5,0.14 0.16,0.047 0.32,0.094 0.49,0.141 0.16,0.047 0.33,0.094 0.49,0.141 0.16,0.047 0.33,0.097 0.49,0.144 0.17,0.047 0.33,0.094 0.49,0.141 0.17,0.047 0.33,0.097 0.5,0.144 0.16,0.047 0.32,0.094 0.49,0.145 0.16,0.047 0.33,0.094 0.49,0.144 0.17,0.047 0.33,0.094 0.49,0.145 0.17,0.047 0.34,0.098 0.5,0.145 0.16,0.05 0.33,0.097 0.49,0.148 0.17,0.047 0.33,0.098 0.49,0.144 0.17,0.051 0.33,0.098 0.5,0.149 0.16,0.051 0.32,0.098 0.49,0.148 0.16,0.051 0.33,0.098 0.49,0.149 0.16,0.051 0.33,0.101 0.49,0.148 0.17,0.051 0.33,0.102 0.49,0.153 0.17,0.05 0.33,0.101 0.5,0.152 0.17,0.047 0.33,0.098 0.49,0.148 0.17,0.051 0.33,0.102 0.5,0.153 0.16,0.05 0.32,0.101 0.49,0.152 0.16,0.055 0.33,0.106 0.49,0.156 0.16,0.051 0.33,0.102 0.49,0.153 0.17,0.05 0.33,0.105 0.49,0.156 0.17,0.051 0.33,0.105 0.5,0.156 0.16,0.051 0.32,0.106 0.49,0.156 0.17,0.051 0.33,0.106 0.49,0.157 0.17,0.054 0.33,0.105 0.5,0.16 0.16,0.051 0.32,0.105 0.49,0.156 0.16,0.055 0.33,0.106 0.49,0.16 0.17,0.055 0.33,0.106 0.49,0.16 0.17,0.055 0.33,0.106 0.5,0.16 0.16,0.055 0.32,0.11 0.49,0.161 0.16,0.054 0.33,0.109 0.49,0.164 0.16,0.054 0.33,0.109 0.5,0.164 0.16,0.054 0.32,0.109 0.49,0.16 0.16,0.055 0.33,0.113 0.49,0.168 0.16,0.055 0.33,0.109 0.49,0.164 0.17,0.055 0.33,0.109 0.49,0.164 0.17,0.059 0.33,0.113 0.5,0.168 0.16,0.055 0.33,0.113 0.49,0.168 0.16,0.055 0.33,0.113 0.49,0.168 0.17,0.055 0.33,0.113 0.49,0.168 0.17,0.059 0.34,0.113 0.5,0.172 0.16,0.054 0.33,0.113 0.49,0.172 0.17,0.054 0.33,0.113 0.49,0.172 0.17,0.054 0.33,0.113 0.5,0.171 0.16,0.055 0.32,0.114 0.49,0.172 0.16,0.059 0.33,0.117 0.49,0.172 0.16,0.059 0.33,0.117 0.49,0.176 0.17,0.059 0.33,0.117 0.49,0.176 0.17,0.058 0.34,0.117 0.5,0.176 0.16,0.058 0.33,0.121 0.49,0.179 0.17,0.059 0.33,0.117 0.5,0.176 0.16,0.062 0.32,0.121 0.49,0.18 0.16,0.062 0.33,0.121 0.49,0.179 0.16,0.063 0.33,0.121 0.49,0.184 0.17,0.059 0.33,0.121 0.49,0.18 0.17,0.062 0.33,0.121 0.5,0.183 0.16,0.059 0.32,0.121 0.49,0.184 0.17,0.058 0.33,0.121 0.49,0.183 0.17,0.063 0.33,0.125 0.5,0.184 0.16,0.062 0.32,0.125 0.49,0.188 0.16,0.062 0.33,0.124 0.49,0.187 0.17,0.063 0.33,0.125 0.49,0.187 0.17,0.063 0.33,0.126 0.5,0.188 0.16,0.066 0.32,0.129 0.49,0.191 0.16,0.063 0.33,0.129 0.49,0.192 0.16,0.062 0.33,0.129 0.5,0.191 0.16,0.063 0.32,0.129 0.49,0.192 0.16,0.066 0.33,0.129 0.49,0.195 0.16,0.062 0.33,0.129 0.49,0.195 0.17,0.063 0.33,0.129 0.49,0.196 0.17,0.066 0.33,0.128 0.5,0.195 0.16,0.066 0.32,0.133 0.49,0.199 0.16,0.066 0.33,0.133 0.49,0.199 0.17,0.067 0.33,0.133 0.5,0.2 0.16,0.066 0.33,0.132 0.49,0.199 0.16,0.066 0.33,0.136 0.49,0.203 0.17,0.066 0.33,0.133 0.49,0.203 0.17,0.066 0.33,0.133 0.5,0.203 0.16,0.067 0.32,0.137 0.49,0.203 0.16,0.071 0.33,0.137 0.49,0.207 0.16,0.071 0.33,0.137 0.49,0.207 0.17,0.071 0.33,0.137 0.49,0.207 0.17,0.071 0.34,0.141 0.5,0.211 0.17,0.071 0.33,0.141 0.49,0.211 0.17,0.071 0.33,0.141 0.5,0.211 0.16,0.07 0.32,0.141 0.49,0.211 0.16,0.07 0.33,0.141 0.49,0.215 0.16,0.07 0.33,0.141 0.49,0.215 0.17,0.07 0.33,0.14 0.49,0.215 0.17,0.07 0.33,0.144 0.5,0.214 0.16,0.075 0.32,0.149 0.49,0.219 0.17,0.074 0.33,0.149 0.49,0.219 0.17,0.074 0.33,0.148 0.5,0.223 0.16,0.074 0.32,0.148 0.49,0.222 0.16,0.075 0.33,0.149 0.49,0.223 0.17,0.074 0.33,0.148 0.49,0.223 0.17,0.074 0.33,0.148 0.5,0.226 0.16,0.074 0.32,0.149 0.49,0.227 0.16,0.074 0.33,0.148 0.49,0.226 0.17,0.074 0.33,0.153 0.5,0.231 0.16,0.074 0.32,0.152 0.49,0.226 0.16,0.078 0.33,0.157 0.49,0.235 0.16,0.078 0.33,0.152 0.49,0.23 0.17,0.078 0.33,0.156 0.49,0.235 0.17,0.078 0.33,0.156 0.5,0.234 0.16,0.082 0.33,0.16 0.49,0.238 0.16,0.078 0.33,0.16 0.49,0.238 0.17,0.079 0.33,0.161 0.5,0.239 0.16,0.082 0.33,0.16 0.49,0.242 0.16,0.078 0.33,0.16 0.49,0.242 0.17,0.078 0.33,0.16 0.49,0.242 0.17,0.082 0.33,0.164 0.5,0.246 0.16,0.082 0.32,0.164 0.49,0.246 0.16,0.083 0.33,0.165 0.49,0.247 0.16,0.082 0.33,0.164 0.49,0.25 0.17,0.082 0.33,0.164 0.5,0.25 0.16,0.082 0.33,0.168 0.49,0.25 0.16,0.086 0.33,0.168 0.49,0.253 0.17,0.086 0.33,0.168 0.5,0.254 0.16,0.086 0.32,0.172 0.49,0.258 0.16,0.086 0.33,0.172 0.49,0.258 0.16,0.086 0.33,0.172 0.49,0.258 0.17,0.086 0.33,0.172 0.49,0.262 0.17,0.086 0.33,0.171 0.5,0.261 0.16,0.086 0.33,0.176 0.49,0.262 0.17,0.09 0.33,0.18 0.49,0.266 0.17,0.089 0.33,0.179 0.5,0.269 0.16,0.086 0.32,0.176 0.49,0.266 0.16,0.09 0.33,0.179 0.49,0.269 0.17,0.09 0.33,0.184 0.49,0.274 0.17,0.09 0.33,0.179 0.5,0.273 0.16,0.09 0.32,0.184 0.49,0.274 0.16,0.093 0.33,0.183 0.49,0.277 0.17,0.094 0.33,0.184 0.5,0.277 0.16,0.094 0.32,0.188 0.49,0.282 0.16,0.093 0.33,0.187 0.49,0.281 0.16,0.094 0.33,0.187 0.49,0.281 0.17,0.094 0.33,0.191 0.49,0.285 0.17,0.098 0.33,0.192 0.5,0.289 0.16,0.094 0.32,0.192 0.49,0.285 0.16,0.098 0.33,0.196 0.5,0.293 0.16,0.098 0.32,0.192 0.49,0.289 0.16,0.098 0.33,0.196 0.49,0.297 0.16,0.098 0.33,0.196 0.49,0.293 0.17,0.102 0.33,0.2 0.49,0.297 0.17,0.102 0.33,0.199 0.5,0.301 0.16,0.102 0.32,0.199 0.49,0.301 0.16,0.101 0.33,0.203 0.49,0.304 0.16,0.102 0.33,0.204 0.49,0.305 0.17,0.102 0.33,0.203 0.5,0.305 0.16,0.105 0.33,0.207 0.49,0.308 0.17,0.106 0.33,0.207 0.49,0.313 0.17,0.105 0.33,0.207 0.5,0.312 0.16,0.106 0.32,0.211 0.49,0.317 0.16,0.105 0.33,0.211 0.49,0.316 0.16,0.106 0.33,0.211 0.49,0.317 0.17,0.109 0.33,0.214 0.49,0.32 0.17,0.109 0.33,0.219 0.5,0.324 0.16,0.11 0.33,0.219 0.49,0.324 0.17,0.11 0.33,0.219 0.49,0.329 0.17,0.109 0.33,0.218 0.5,0.328 0.16,0.113 0.32,0.222 0.49,0.332 0.16,0.113 0.33,0.222 0.49,0.336 0.17,0.109 0.33,0.222 0.49,0.336 0.17,0.109 0.33,0.222 0.5,0.335 0.16,0.114 0.32,0.227 0.49,0.34 0.17,0.117 0.33,0.231 0.49,0.344 0.17,0.113 0.33,0.231 0.5,0.344 0.16,0.117 0.32,0.234 0.49,0.347 0.16,0.118 0.33,0.235 0.49,0.352 0.16,0.117 0.33,0.234 0.49,0.352 0.17,0.117 0.33,0.234 0.49,0.355 0.17,0.117 0.33,0.234 0.5,0.356 0.16,0.121 0.33,0.238 0.49,0.359 0.17,0.121 0.33,0.242 0.5,0.359 0.16,0.121 0.32,0.246 0.49,0.367 0.16,0.122 0.33,0.243 0.49,0.368 0.16,0.121 0.33,0.246 0.49,0.367 0.17,0.125 0.33,0.246 0.49,0.371 0.17,0.125 0.33,0.25 0.5,0.375 0.16,0.125 0.32,0.25 0.49,0.379 0.16,0.125 0.33,0.25 0.49,0.379 0.16,0.125 0.33,0.254 0.5,0.383 0.16,0.125 0.32,0.253 0.49,0.382 0.16,0.129 0.33,0.258 0.49,0.391 0.16,0.129 0.33,0.258 0.49,0.391 0.17,0.129 0.33,0.261 0.5,0.39 0.16,0.133 0.32,0.266 0.49,0.399 0.16,0.133 0.33,0.265 0.49,0.398 0.16,0.133 0.33,0.266 0.49,0.402 0.17,0.133 0.33,0.27 0.49,0.403 0.17,0.137 0.34,0.273 0.5,0.41 0.16,0.137 0.33,0.273 0.49,0.41 0.17,0.137 0.33,0.274 0.49,0.414 0.17,0.137 0.33,0.278 0.5,0.418 0.16,0.137 0.32,0.278 0.49,0.418 0.16,0.141 0.33,0.281 0.49,0.422 0.17,0.145 0.33,0.285 0.49,0.426 0.17,0.144 0.33,0.289 0.5,0.429 0.16,0.145 0.33,0.29 0.49,0.434 0.17,0.145 0.33,0.289 0.49,0.438 0.17,0.144 0.33,0.289 0.5,0.437 0.16,0.148 0.32,0.293 0.49,0.441 0.16,0.149 0.33,0.297 0.49,0.446 0.16,0.152 0.33,0.301 0.49,0.449 0.17,0.152 0.33,0.305 0.49,0.453 0.17,0.152 0.33,0.305 0.5,0.457 0.16,0.152 0.32,0.305 0.49,0.461 0.17,0.152 0.33,0.309 0.5,0.461 0.16,0.156 0.32,0.313 0.49,0.469 0.16,0.156 0.33,0.312 0.49,0.469 0.16,0.16 0.33,0.316 0.49,0.476 0.17,0.156 0.33,0.316 0.49,0.477 0.17,0.16 0.33,0.32 0.5,0.484 0.16,0.16 0.32,0.32 0.49,0.484 0.16,0.161 0.33,0.325 0.49,0.489 0.16,0.164 0.33,0.328 0.5,0.496 0.16,0.164 0.32,0.328 0.49,0.496 0.16,0.164 0.33,0.332 0.49,0.5 0.17,0.168 0.33,0.336 0.49,0.508 0.17,0.168 0.33,0.336 0.5,0.508 0.16,0.171 0.32,0.343 0.49,0.515 0.16,0.172 0.33,0.344 0.49,0.516 0.16,0.176 0.33,0.347 0.49,0.523 0.17,0.176 0.33,0.352 0.5,0.528 0.16,0.175 0.33,0.351 0.49,0.531 0.16,0.176 0.33,0.355 0.49,0.535 0.17,0.18 0.33,0.359 0.49,0.539 0.17,0.18 0.33,0.363 0.5,0.543 0.16,0.184 0.32,0.367 0.49,0.551 0.16,0.183 0.33,0.367 0.49,0.554 0.17,0.184 0.33,0.372 0.49,0.559 0.17,0.184 0.33,0.371 0.5,0.563 0.16,0.187 0.33,0.375 0.49,0.566 0.17,0.191 0.33,0.383 0.49,0.574 0.17,0.192 0.33,0.383 0.5,0.578 0.16,0.192 0.32,0.387 0.49,0.582 0.16,0.196 0.33,0.391 0.49,0.59 0.16,0.195 0.33,0.395 0.49,0.59 0.17,0.199 0.33,0.398 0.49,0.602 0.17,0.199 0.33,0.398 0.5,0.601 0.16,0.203 0.33,0.406 0.49,0.61 0.17,0.203 0.33,0.41 0.5,0.613 0.16,0.207 0.32,0.414 0.49,0.621 0.16,0.207 0.33,0.418 0.49,0.625 0.16,0.211 0.33,0.422 0.49,0.633 0.17,0.211 0.33,0.425 0.49,0.636 0.17,0.215 0.33,0.43 0.5,0.645 0.16,0.215 0.32,0.43 0.49,0.648 0.16,0.219 0.33,0.434 0.49,0.657 0.17,0.218 0.33,0.437 0.5,0.66 0.16,0.219 0.32,0.441 0.49,0.668 0.16,0.222 0.33,0.445 0.49,0.672 0.16,0.226 0.33,0.453 0.49,0.679 0.17,0.227 0.33,0.457 0.5,0.688 0.16,0.226 0.32,0.461 0.49,0.691 0.16,0.231 0.33,0.465 0.49,0.699 0.16,0.235 0.33,0.469 0.49,0.707 0.17,0.235 0.33,0.473 0.5,0.711 0.16,0.239 0.33,0.481 0.49,0.723 0.16,0.238 0.33,0.481 0.49,0.727 0.17,0.242 0.33,0.484 0.49,0.73 0.17,0.246 0.33,0.496 0.5,0.742 0.16,0.25 0.32,0.5 0.49,0.75 0.16,0.25 0.33,0.5 0.49,0.754 0.17,0.254 0.33,0.508 0.49,0.766 0.17,0.254 0.33,0.512 0.5,0.769 0.16,0.258 0.33,0.52 0.49,0.778 0.17,0.261 0.33,0.523 0.49,0.789 0.17,0.261 0.33,0.527 0.5,0.793 0.16,0.265 0.32,0.535 0.49,0.804 0.16,0.27 0.33,0.539 0.49,0.809 0.16,0.273 0.33,0.547 0.49,0.82 0.17,0.274 0.33,0.551 0.49,0.828 0.17,0.278 0.33,0.555 0.5,0.836 0.16,0.282 0.33,0.563 0.49,0.848 0.17,0.281 0.33,0.566 0.5,0.852 0.16,0.289 0.32,0.574 0.49,0.863 0.16,0.289 0.33,0.582 0.49,0.875 0.16,0.293 0.33,0.586 0.49,0.883 0.17,0.293 0.33,0.59 0.49,0.89 0.17,0.297 0.33,0.598 0.5,0.899 0.16,0.304 0.32,0.605 0.49,0.914 0.16,0.305 0.33,0.609 0.49,0.918 0.17,0.308 0.33,0.621 0.5,0.933 0.16,0.313 0.32,0.625 0.49,0.942 0.16,0.312 0.33,0.633 0.49,0.949 0.17,0.32 0.33,0.641 0.49,0.965 0.17,0.32 0.33,0.644 0.5,0.972 0.16,0.329 0.32,0.657 0.49,0.985 0.16,0.328 0.33,0.66 0.49,0.996 0.16,0.332 0.33,0.668 0.49,1.008 0.17,0.336 0.33,0.676 0.5,1.015 0.16,0.344 0.33,0.688 0.49,1.032 0.16,0.347 0.33,0.695 0.49,1.043 0.17,0.351 0.33,0.703 0.49,1.054 0.17,0.356 0.33,0.711 0.5,1.067 0.16,0.359 0.32,0.718 0.49,1.082 0.16,0.359 0.33,0.726 0.49,1.094 0.17,0.363 0.33,0.734 0.49,1.105 0.17,0.371 0.34,0.742 0.5,1.117 0.16,0.375 0.33,0.754 0.49,1.133 0.17,0.379 0.33,0.762 0.49,1.148 0.17,0.383 0.33,0.77 0.5,1.161 0.16,0.39 0.32,0.781 0.49,1.175 0.16,0.395 0.33,0.789 0.49,1.188 0.16,0.398 0.33,0.801 0.49,1.207 0.17,0.402 0.33,0.808 0.49,1.219 0.17,0.41 0.33,0.82 0.5,1.234 0.16,0.414 0.33,0.832 0.49,1.254 0.17,0.418 0.33,0.84 0.5,1.266 0.16,0.425 0.32,0.851 0.49,1.285 0.16,0.429 0.33,0.863 0.49,1.3 0.16,0.434 0.33,0.875 0.49,1.317 0.17,0.441 0.33,0.887 0.49,1.336 0.17,0.445 0.33,0.898 0.5,1.351 0.16,0.454 0.32,0.911 0.49,1.371 0.17,0.461 0.33,0.922 0.49,1.391 0.17,0.465 0.33,0.934 0.5,1.406 0.16,0.473 0.32,0.95 0.49,1.426 0.16,0.481 0.33,0.961 0.49,1.449 0.16,0.485 0.33,0.973 0.49,1.465 0.17,0.492 0.33,0.988 0.5,1.488 0.16,0.5 0.32,1.004 0.49,1.508 0.16,0.508 0.33,1.016 0.49,1.532 0.16,0.511 0.33,1.031 0.5,1.55 0.16,0.52 0.32,1.047 0.49,1.575 0.16,0.527 0.33,1.058 0.49,1.597 0.16,0.535 0.33,1.074 0.49,1.617 0.17,0.543 0.33,1.094 0.49,1.645 0.17,0.551 0.33,1.105 0.5,1.668 0.16,0.558 0.32,1.121 0.49,1.691 0.16,0.567 0.33,1.141 0.49,1.719 0.17,0.574 0.33,1.156 0.5,1.742 0.16,0.586 0.33,1.176 0.49,1.77 0.16,0.594 0.33,1.195 0.49,1.797 0.17,0.605 0.33,1.214 0.49,1.828 0.17,0.609 0.33,1.23 0.5,1.851 0.16,0.621 0.32,1.25 0.49,1.883 0.16,0.633 0.33,1.27 0.49,1.914 0.16,0.641 0.33,1.289 0.49,1.942 0.17,0.652 0.33,1.308 0.49,1.972 0.17,0.664 0.34,1.332 0.5,2.008 0.16,0.672 0.33,1.352 0.49,2.039 0.17,0.684 0.33,1.375 0.5,2.07 0.16,0.7 0.32,1.399 0.49,2.11 0.16,0.707 0.33,1.422 0.49,2.14 0.16,0.719 0.33,1.446 0.49,2.18 0.17,0.731 0.33,1.469 0.49,2.215 0.17,0.742 0.33,1.496 0.5,2.25 0.16,0.758 0.33,1.523 0.49,2.293 0.17,0.773 0.33,1.551 0.49,2.332 0.17,0.785 0.33,1.578 0.5,2.375 0.16,0.797 0.32,1.602 0.49,2.414 0.16,0.813 0.33,1.633 0.49,2.461 0.17,0.828 0.33,1.66 0.49,2.504 0.17,0.84 0.33,1.691 0.5,2.547 0.16,0.859 0.32,1.722 0.49,2.597 0.16,0.875 0.33,1.754 0.49,2.645 0.17,0.891 0.33,1.789 0.5,2.695 0.16,0.906 0.32,1.821 0.49,2.746 0.16,0.922 0.33,1.856 0.49,2.797 0.16,0.942 0.33,1.891 0.49,2.852 0.17,0.961 0.33,1.929 0.49,2.906 0.17,0.981 0.33,1.969 0.5,2.965 0.16,1 0.32,2.008 0.49,3.023 0.16,1.02 0.33,2.047 0.49,3.086 0.17,1.039 0.33,2.09 0.5,3.149 0.16,1.058 0.33,2.129 0.49,3.211 0.16,1.082 0.33,2.175 0.49,3.277 0.17,1.105 0.33,2.223 0.49,3.348 0.17,1.129 0.33,2.269 0.5,3.418 0.16,1.152 0.32,2.316 0.49,3.492 0.16,1.176 0.33,2.367 0.49,3.566 0.16,1.203 0.33,2.418 0.49,3.645 0.17,1.23 0.33,2.468 0.5,3.726 0.16,1.254 0.33,2.524 0.49,3.809 0.16,1.281 0.33,2.582 0.49,3.894 0.17,1.313 0.33,2.641 0.5,3.985 0.16,1.34 0.32,2.699 0.49,4.074 0.16,1.375 0.33,2.766 0.49,4.172 0.16,1.406 0.33,2.828 0.49,4.269 0.17,1.442 0.33,2.899 0.49,4.372 0.17,1.476 0.33,2.968 0.5,4.48 0.16,1.508 0.33,3.039 0.49,4.586 0.17,1.551 0.33,3.117 0.49,4.703 0.17,1.586 0.33,3.195 0.5,4.82 0.16,1.629 0.32,3.274 0.49,4.946 0.16,1.668 0.33,3.355 0.49,5.07 0.16,1.711 0.33,3.445 0.49,5.203 0.17,1.758 0.33,3.535 0.5,5.34 0.16,1.805 0.32,3.633 0.49,5.484 0.16,1.856 0.33,3.731 0.49,5.637" /><path
         id="path164"
         style="fill:none;stroke:#000000;stroke-width:10;stroke-linecap:butt;stroke-linejoin:round;stroke-miterlimit:10;stroke-dasharray:none;stroke-opacity:1"
         d="m 1371.21,19.6211 c 0.17,1.4062 0.33,2.7969 0.5,4.1719 0.16,1.3711 0.33,2.7304 0.49,4.0742 0.16,1.3437 0.33,2.6719 0.49,3.9844 0.17,1.3125 0.33,2.6093 0.49,3.8945 0.17,1.2812 0.33,2.5508 0.5,3.8086 0.16,1.2539 0.32,2.4961 0.49,3.7226 0.16,1.2305 0.33,2.4454 0.49,3.6446 0.16,1.2031 0.33,2.3906 0.49,3.5703 0.17,1.1758 0.33,2.3398 0.5,3.4883 0.16,1.1523 0.33,2.2929 0.49,3.4179 0.16,1.1289 0.33,2.2461 0.49,3.3477 0.17,1.1055 0.33,2.1992 0.49,3.2812 0.17,1.0782 0.33,2.1485 0.5,3.211 0.16,1.0586 0.33,2.1094 0.49,3.1445 0.16,1.0391 0.33,2.0703 0.49,3.086 0.17,1.0195 0.33,2.0273 0.49,3.0234 0.17,1 0.34,1.9883 0.5,2.9648 0.16,0.9805 0.33,1.9492 0.49,2.9102 0.17,0.957 0.33,1.9101 0.49,2.8516 0.17,0.9414 0.33,1.875 0.5,2.7968 0.16,0.9258 0.32,1.8399 0.49,2.7461 0.16,0.9063 0.33,1.8047 0.49,2.6953 0.16,0.8868 0.33,1.7696 0.49,2.6446 0.17,0.8711 0.33,1.7382 0.5,2.5937 0.16,0.8594 0.32,1.7067 0.49,2.5507 0.16,0.84 0.33,1.676 0.49,2.504 0.17,0.824 0.33,1.645 0.5,2.457 0.16,0.813 0.32,1.617 0.49,2.418 0.16,0.797 0.33,1.586 0.49,2.371 0.16,0.785 0.33,1.563 0.49,2.332 0.17,0.774 0.33,1.535 0.49,2.293 0.17,0.758 0.33,1.508 0.5,2.254 0.16,0.746 0.32,1.484 0.49,2.215 0.16,0.734 0.33,1.457 0.49,2.18 0.17,0.718 0.33,1.433 0.5,2.14 0.16,0.707 0.33,1.41 0.49,2.106 0.16,0.699 0.33,1.39 0.49,2.074 0.17,0.683 0.33,1.363 0.49,2.039 0.17,0.672 0.33,1.344 0.5,2.004 0.16,0.664 0.32,1.324 0.49,1.976 0.16,0.653 0.33,1.301 0.49,1.942 0.16,0.644 0.33,1.281 0.5,1.914 0.16,0.633 0.32,1.258 0.49,1.883 0.16,0.621 0.33,1.238 0.49,1.851 0.16,0.613 0.33,1.223 0.49,1.824 0.17,0.606 0.33,1.204 0.5,1.797 0.16,0.598 0.32,1.188 0.49,1.774 0.16,0.586 0.33,1.164 0.49,1.742 0.16,0.578 0.33,1.148 0.49,1.719 0.17,0.566 0.33,1.133 0.49,1.691 0.17,0.559 0.34,1.117 0.5,1.668 0.16,0.551 0.33,1.098 0.49,1.645 0.17,0.543 0.33,1.082 0.49,1.617 0.17,0.535 0.33,1.07 0.5,1.597 0.16,0.528 0.32,1.051 0.49,1.575 0.16,0.519 0.33,1.035 0.49,1.55 0.16,0.512 0.33,1.024 0.49,1.528 0.17,0.508 0.33,1.012 0.5,1.512 0.16,0.496 0.32,0.992 0.49,1.484 0.17,0.492 0.33,0.984 0.49,1.469 0.17,0.484 0.33,0.968 0.5,1.445 0.16,0.48 0.32,0.957 0.49,1.43 0.16,0.472 0.33,0.941 0.49,1.406 0.16,0.465 0.33,0.93 0.49,1.39 0.17,0.461 0.33,0.915 0.49,1.372 0.17,0.453 0.33,0.902 0.5,1.351 0.16,0.449 0.32,0.895 0.49,1.336 0.17,0.441 0.33,0.879 0.49,1.317 0.17,0.437 0.33,0.871 0.5,1.3 0.16,0.43 0.33,0.86 0.49,1.285 0.16,0.422 0.33,0.848 0.49,1.266 0.17,0.418 0.33,0.836 0.49,1.25 0.17,0.414 0.33,0.828 0.5,1.238 0.16,0.407 0.32,0.813 0.49,1.219 0.16,0.402 0.33,0.805 0.49,1.203 0.16,0.399 0.33,0.797 0.5,1.192 0.16,0.394 0.32,0.785 0.49,1.175 0.16,0.387 0.33,0.778 0.49,1.161 0.16,0.382 0.33,0.765 0.49,1.144 0.17,0.383 0.33,0.758 0.49,1.133 0.17,0.379 0.33,0.75 0.5,1.121 0.16,0.371 0.33,0.738 0.49,1.105 0.16,0.368 0.33,0.731 0.49,1.094 0.17,0.364 0.33,0.723 0.5,1.078 0.16,0.36 0.33,0.715 0.49,1.067 0.16,0.355 0.33,0.707 0.49,1.054 0.17,0.352 0.33,0.7 0.49,1.043 0.17,0.348 0.33,0.692 0.5,1.032 0.16,0.343 0.32,0.683 0.49,1.019 0.16,0.336 0.33,0.672 0.49,1.008 0.16,0.332 0.33,0.664 0.49,0.996 0.17,0.328 0.33,0.656 0.5,0.984 0.16,0.325 0.33,0.649 0.49,0.973 0.17,0.32 0.33,0.645 0.49,0.961 0.17,0.32 0.33,0.637 0.5,0.953 0.16,0.317 0.32,0.629 0.49,0.942 0.16,0.312 0.33,0.621 0.49,0.929 0.16,0.309 0.33,0.617 0.49,0.922 0.17,0.305 0.33,0.61 0.49,0.91 0.17,0.305 0.33,0.602 0.5,0.903 0.16,0.297 0.32,0.597 0.49,0.89 0.17,0.297 0.33,0.59 0.49,0.883 0.17,0.293 0.33,0.582 0.5,0.871 0.16,0.289 0.33,0.578 0.49,0.863 0.16,0.29 0.33,0.575 0.49,0.856 0.17,0.285 0.33,0.566 0.49,0.844 0.17,0.281 0.33,0.562 0.5,0.84 0.16,0.277 0.32,0.55 0.49,0.828 0.16,0.273 0.33,0.547 0.49,0.816 0.17,0.273 0.33,0.543 0.5,0.813 0.16,0.269 0.32,0.535 0.49,0.804 0.16,0.266 0.33,0.528 0.49,0.793 0.16,0.262 0.33,0.528 0.49,0.785 0.17,0.262 0.33,0.524 0.5,0.782 0.16,0.257 0.32,0.515 0.49,0.769 0.16,0.258 0.33,0.512 0.49,0.762 0.16,0.254 0.33,0.508 0.49,0.758 0.17,0.25 0.33,0.5 0.5,0.75 0.16,0.246 0.33,0.492 0.49,0.738 0.16,0.246 0.33,0.492 0.49,0.734 0.17,0.243 0.33,0.485 0.49,0.727 0.17,0.242 0.33,0.48 0.5,0.719 0.16,0.242 0.32,0.476 0.49,0.715 0.16,0.234 0.33,0.472 0.49,0.707 0.16,0.234 0.33,0.464 0.49,0.699 0.17,0.23 0.33,0.461 0.5,0.691 0.16,0.231 0.33,0.457 0.49,0.688 0.17,0.226 0.33,0.453 0.49,0.679 0.17,0.223 0.33,0.45 0.5,0.672 0.16,0.223 0.32,0.446 0.49,0.668 0.16,0.223 0.33,0.442 0.49,0.66 0.16,0.219 0.33,0.438 0.49,0.657 0.17,0.214 0.33,0.433 0.49,0.648 0.17,0.215 0.33,0.43 0.5,0.641 0.16,0.214 0.33,0.425 0.49,0.64 0.17,0.211 0.33,0.422 0.49,0.629 0.17,0.211 0.33,0.418 0.5,0.625 0.16,0.211 0.33,0.414 0.49,0.621 0.16,0.207 0.33,0.41 0.49,0.617 0.17,0.204 0.33,0.407 0.49,0.606 0.17,0.203 0.33,0.406 0.5,0.605 0.16,0.2 0.32,0.399 0.49,0.598 0.16,0.199 0.33,0.399 0.49,0.594 0.17,0.199 0.33,0.394 0.5,0.59 0.16,0.195 0.32,0.386 0.49,0.582 0.16,0.191 0.33,0.386 0.49,0.578 0.16,0.191 0.33,0.383 0.49,0.574 0.17,0.188 0.33,0.379 0.49,0.566 0.17,0.188 0.33,0.375 0.5,0.563 0.16,0.187 0.33,0.375 0.49,0.559 0.16,0.187 0.33,0.371 0.49,0.554 0.17,0.184 0.33,0.367 0.5,0.547 0.16,0.184 0.33,0.367 0.49,0.547 0.16,0.18 0.33,0.359 0.49,0.539 0.17,0.18 0.33,0.359 0.49,0.535 0.17,0.18 0.33,0.356 0.5,0.531 0.16,0.176 0.32,0.352 0.49,0.528 0.16,0.176 0.33,0.347 0.49,0.519 0.16,0.176 0.33,0.348 0.49,0.52 0.17,0.172 0.34,0.344 0.5,0.515 0.16,0.168 0.33,0.34 0.49,0.508 0.17,0.168 0.33,0.34 0.49,0.504 0.17,0.168 0.33,0.336 0.5,0.504 0.16,0.164 0.32,0.332 0.49,0.496 0.16,0.164 0.33,0.332 0.49,0.492 0.16,0.164 0.33,0.328 0.49,0.493 0.17,0.16 0.33,0.324 0.49,0.484 0.17,0.16 0.34,0.32 0.5,0.48 0.16,0.161 0.33,0.321 0.49,0.481 0.17,0.156 0.33,0.316 0.49,0.473 0.17,0.16 0.33,0.316 0.5,0.472 0.16,0.156 0.33,0.313 0.49,0.465 0.16,0.156 0.33,0.309 0.49,0.465 0.17,0.152 0.33,0.305 0.49,0.457 0.17,0.156 0.33,0.305 0.5,0.457 0.16,0.152 0.32,0.305 0.49,0.453 0.17,0.152 0.33,0.301 0.49,0.449 0.17,0.149 0.33,0.297 0.5,0.446 0.16,0.148 0.32,0.296 0.49,0.445 0.16,0.144 0.33,0.293 0.49,0.437 0.16,0.145 0.33,0.293 0.49,0.438 0.17,0.144 0.33,0.289 0.5,0.43 0.16,0.144 0.32,0.289 0.49,0.429 0.16,0.145 0.33,0.285 0.49,0.426 0.16,0.145 0.33,0.285 0.5,0.426 0.16,0.14 0.32,0.277 0.49,0.418 0.16,0.14 0.33,0.277 0.49,0.418 0.16,0.136 0.33,0.277 0.49,0.414 0.17,0.137 0.33,0.273 0.49,0.41 0.17,0.137 0.33,0.273 0.5,0.406 0.16,0.137 0.32,0.274 0.49,0.406 0.16,0.133 0.33,0.27 0.49,0.403 0.16,0.133 0.33,0.265 0.5,0.398 0.16,0.133 0.32,0.266 0.49,0.395 0.16,0.133 0.33,0.265 0.49,0.394 0.17,0.133 0.33,0.262 0.49,0.391 0.17,0.129 0.33,0.258 0.5,0.387 0.16,0.129 0.32,0.258 0.49,0.386 0.16,0.129 0.33,0.254 0.49,0.383 0.16,0.125 0.33,0.254 0.49,0.379 0.17,0.125 0.33,0.25 0.49,0.379 0.17,0.125 0.34,0.25 0.5,0.371 0.16,0.125 0.33,0.25 0.49,0.375 0.17,0.121 0.33,0.246 0.49,0.367 0.17,0.121 0.33,0.246 0.5,0.368 0.16,0.121 0.33,0.242 0.49,0.363 0.16,0.121 0.33,0.242 0.49,0.363 0.17,0.121 0.33,0.238 0.49,0.359 0.17,0.118 0.33,0.239 0.5,0.356 0.16,0.117 0.32,0.238 0.49,0.355 0.17,0.118 0.33,0.235 0.49,0.352 0.17,0.117 0.33,0.234 0.5,0.348 0.16,0.117 0.32,0.234 0.49,0.347 0.16,0.117 0.33,0.231 0.49,0.348 0.16,0.113 0.33,0.226 0.49,0.34 0.17,0.113 0.33,0.226 0.49,0.34 0.17,0.113 0.33,0.226 0.5,0.339 0.16,0.114 0.33,0.223 0.49,0.336 0.17,0.114 0.33,0.223 0.5,0.332 0.16,0.114 0.32,0.223 0.49,0.332 0.16,0.11 0.33,0.223 0.49,0.332 0.16,0.11 0.33,0.215 0.49,0.325 0.17,0.109 0.33,0.218 0.49,0.324 0.17,0.109 0.33,0.219 0.5,0.324 0.16,0.109 0.32,0.215 0.49,0.32 0.16,0.11 0.33,0.215 0.49,0.321 0.16,0.105 0.33,0.211 0.5,0.316 0.16,0.106 0.33,0.211 0.49,0.317 0.16,0.101 0.33,0.207 0.49,0.312 0.17,0.102 0.33,0.207 0.49,0.309 0.17,0.105 0.33,0.207 0.5,0.308 0.16,0.106 0.32,0.207 0.49,0.309 0.16,0.101 0.33,0.203 0.49,0.305 0.16,0.101 0.33,0.203 0.49,0.304 0.17,0.098 0.33,0.199 0.49,0.301 0.17,0.098 0.34,0.199 0.5,0.297 0.16,0.101 0.33,0.199 0.49,0.297 0.17,0.101 0.33,0.199 0.49,0.297 0.17,0.097 0.33,0.195 0.5,0.293 0.16,0.097 0.33,0.195 0.49,0.293 0.16,0.097 0.33,0.195 0.49,0.289 0.17,0.097 0.33,0.195 0.49,0.289 0.17,0.097 0.33,0.191 0.5,0.285 0.16,0.097 0.33,0.191 0.49,0.285 0.17,0.098 0.33,0.191 0.49,0.285 0.17,0.094 0.33,0.188 0.5,0.281 0.16,0.094 0.32,0.188 0.49,0.282 0.16,0.09 0.33,0.183 0.49,0.277 0.16,0.09 0.33,0.184 0.49,0.277 0.17,0.09 0.33,0.184 0.5,0.274 0.16,0.09 0.32,0.183 0.49,0.273 0.16,0.09 0.33,0.18 0.49,0.27 0.17,0.09 0.33,0.179 0.5,0.269 0.16,0.09 0.32,0.18 0.49,0.27 0.16,0.09 0.33,0.18 0.49,0.265 0.16,0.09 0.33,0.18 0.49,0.266 0.17,0.09 0.33,0.176 0.49,0.266 0.17,0.086 0.33,0.175 0.5,0.261 0.16,0.086 0.32,0.172 0.49,0.262 0.16,0.086 0.33,0.172 0.49,0.258 0.17,0.086 0.33,0.172 0.5,0.258 0.16,0.086 0.32,0.172 0.49,0.254 0.16,0.086 0.33,0.172 0.49,0.257 0.17,0.083 0.33,0.168 0.49,0.25 0.17,0.086 0.33,0.168 0.5,0.254 0.16,0.082 0.32,0.168 0.49,0.25 0.16,0.082 0.33,0.164 0.49,0.25 0.16,0.082 0.33,0.164 0.49,0.246 0.17,0.083 0.33,0.165 0.5,0.247 0.16,0.082 0.33,0.164 0.49,0.246 0.16,0.078 0.33,0.16 0.49,0.242 0.17,0.082 0.33,0.16 0.49,0.242 0.17,0.078 0.33,0.16 0.5,0.238 0.16,0.082 0.33,0.16 0.49,0.242 0.16,0.079 0.33,0.157 0.49,0.239 0.17,0.078 0.33,0.156 0.49,0.234 0.17,0.078 0.33,0.156 0.5,0.235 0.16,0.078 0.33,0.156 0.49,0.234 0.17,0.078 0.33,0.156 0.49,0.234 0.17,0.078 0.33,0.153 0.5,0.231 0.16,0.078 0.32,0.156 0.49,0.23 0.16,0.078 0.33,0.153 0.49,0.231 0.16,0.074 0.33,0.152 0.49,0.226 0.17,0.074 0.33,0.153 0.49,0.227 0.17,0.074 0.33,0.148 0.5,0.226 0.16,0.075 0.33,0.149 0.49,0.223 0.17,0.074 0.33,0.148 0.5,0.223 0.16,0.074 0.32,0.148 0.49,0.222 0.16,0.075 0.33,0.145 0.49,0.219 0.16,0.074 0.33,0.149 0.49,0.219 0.17,0.074 0.33,0.148 0.49,0.219 0.17,0.074 0.33,0.144 0.5,0.218 0.16,0.071 0.32,0.145 0.49,0.215 0.16,0.071 0.33,0.145 0.49,0.215 0.17,0.07 0.33,0.141 0.5,0.215 0.16,0.07 0.33,0.141 0.49,0.211 0.16,0.07 0.33,0.14 0.49,0.211 0.17,0.07 0.33,0.14 0.49,0.211 0.17,0.07 0.33,0.14 0.5,0.207 0.16,0.07 0.32,0.14 0.49,0.211 0.16,0.066 0.33,0.136 0.49,0.207 0.16,0.066 0.33,0.136 0.49,0.203 0.17,0.07 0.33,0.137 0.5,0.207 0.16,0.066 0.33,0.137 0.49,0.203 0.16,0.066 0.33,0.137 0.49,0.203 0.17,0.067 0.33,0.133 0.49,0.203" /></g></g></svg>