<?xml version="1.0" encoding="UTF-8" standalone="no"?>
<svg
   xmlns:dc="http://purl.org/dc/elements/1.1/"
   xmlns:cc="http://creativecommons.org/ns#"
   xmlns:rdf="http://www.w3.org/1999/02/22-rdf-syntax-ns#"
   xmlns:svg="http://www.w3.org/2000/svg"
   xmlns="http://www.w3.org/2000/svg"
   viewBox="0 0 429.33334 166.66667"
   height="166.66667"
   width="429.33334"
   xml:space="preserve"
   id="svg2"
   version="1.1"><metadata
     id="metadata8"><rdf:RDF><cc:Work
         rdf:about=""><dc:format>image/svg+xml</dc:format><dc:type
           rdf:resource="http://purl.org/dc/dcmitype/StillImage" /></cc:Work></rdf:RDF></metadata><defs
     id="defs6" /><g
     transform="matrix(1.3333333,0,0,-1.3333333,0,166.66667)"
     id="g10"><g
       transform="scale(0.1)"
       id="g12"><path
         id="path14"
         style="fill:#231f20;fill-opacity:1;fill-rule:nonzero;stroke:none"
         d="m 454.188,495.383 c 0,7.551 1.136,14.051 3.417,19.5 2.286,5.453 5.301,9.515 9.086,12.183 2.93,2.118 5.95,3.184 9.082,3.184 5.063,0 9.633,-2.598 13.665,-7.766 5.05,-6.418 7.57,-15.101 7.57,-26.086 0,-7.679 -1.102,-14.199 -3.32,-19.562 -2.215,-5.383 -5.032,-9.285 -8.465,-11.703 -3.434,-2.43 -6.75,-3.633 -9.95,-3.633 -6.3,0 -11.57,3.719 -15.765,11.184 -3.551,6.281 -5.32,13.851 -5.32,22.699 z m 9.57,-1.215 c 0,-9.117 1.113,-16.566 3.367,-22.316 1.848,-4.852 4.629,-7.286 8.297,-7.286 1.766,0 3.586,0.801 5.465,2.368 1.902,1.586 3.336,4.234 4.301,7.933 1.5,5.598 2.25,13.5 2.25,23.684 0,7.547 -0.786,13.847 -2.348,18.898 -1.168,3.75 -2.684,6.399 -4.531,7.969 -1.336,1.066 -2.954,1.598 -4.836,1.598 -2.219,0 -4.184,-0.985 -5.918,-2.965 -2.332,-2.703 -3.93,-6.949 -4.782,-12.75 -0.851,-5.801 -1.265,-11.5 -1.265,-17.133" /><path
         id="path16"
         style="fill:#ffffff;fill-opacity:1;fill-rule:evenodd;stroke:none"
         d="M 1082.54,7.23438 H 2131 V 1091.8744 H 1082.54 Z" /><path
         id="path18"
         style="fill:none;stroke:#0b0c0b;stroke-width:2.16000009;stroke-linecap:butt;stroke-linejoin:miter;stroke-miterlimit:2.61310005;stroke-dasharray:none;stroke-opacity:1"
         d="M 1082.54,7.23438 H 2131 V 1091.8744 H 1082.54 Z" /><path
         id="path20"
         style="fill:none;stroke:#101211;stroke-width:2.16000009;stroke-linecap:butt;stroke-linejoin:miter;stroke-miterlimit:2.61310005;stroke-dasharray:none;stroke-opacity:1"
         d="M 1187.38,7.23438 V 1091.88" /><path
         id="path22"
         style="fill:none;stroke:#101211;stroke-width:2.16000009;stroke-linecap:butt;stroke-linejoin:miter;stroke-miterlimit:2.61310005;stroke-dasharray:none;stroke-opacity:1"
         d="M 1292.23,7.23438 V 1091.88" /><path
         id="path24"
         style="fill:none;stroke:#101211;stroke-width:2.16000009;stroke-linecap:butt;stroke-linejoin:miter;stroke-miterlimit:2.61310005;stroke-dasharray:none;stroke-opacity:1"
         d="M 1397.07,7.23438 V 1091.88" /><path
         id="path26"
         style="fill:none;stroke:#101211;stroke-width:2.16000009;stroke-linecap:butt;stroke-linejoin:miter;stroke-miterlimit:2.61310005;stroke-dasharray:none;stroke-opacity:1"
         d="M 1501.92,7.23438 V 1091.88" /><path
         id="path28"
         style="fill:none;stroke:#101211;stroke-width:2.16000009;stroke-linecap:butt;stroke-linejoin:miter;stroke-miterlimit:2.61310005;stroke-dasharray:none;stroke-opacity:1"
         d="M 1606.77,7.23438 V 1091.88" /><path
         id="path30"
         style="fill:none;stroke:#101211;stroke-width:2.16000009;stroke-linecap:butt;stroke-linejoin:miter;stroke-miterlimit:2.61310005;stroke-dasharray:none;stroke-opacity:1"
         d="M 1711.61,7.23438 V 1091.88" /><path
         id="path32"
         style="fill:none;stroke:#101211;stroke-width:2.16000009;stroke-linecap:butt;stroke-linejoin:miter;stroke-miterlimit:2.61310005;stroke-dasharray:none;stroke-opacity:1"
         d="M 1816.45,7.23438 V 1091.88" /><path
         id="path34"
         style="fill:none;stroke:#101211;stroke-width:2.16000009;stroke-linecap:butt;stroke-linejoin:miter;stroke-miterlimit:2.61310005;stroke-dasharray:none;stroke-opacity:1"
         d="M 1921.3,7.23438 V 1091.88" /><path
         id="path36"
         style="fill:none;stroke:#101211;stroke-width:2.16000009;stroke-linecap:butt;stroke-linejoin:miter;stroke-miterlimit:2.61310005;stroke-dasharray:none;stroke-opacity:1"
         d="M 2026.15,7.23438 V 1091.88" /><path
         id="path38"
         style="fill:none;stroke:#101211;stroke-width:2.16000009;stroke-linecap:butt;stroke-linejoin:miter;stroke-miterlimit:2.61310005;stroke-dasharray:none;stroke-opacity:1"
         d="M 1082.54,115.695 H 2130.99" /><path
         id="path40"
         style="fill:none;stroke:#101211;stroke-width:2.16000009;stroke-linecap:butt;stroke-linejoin:miter;stroke-miterlimit:2.61310005;stroke-dasharray:none;stroke-opacity:1"
         d="M 1082.54,224.16 H 2130.99" /><path
         id="path42"
         style="fill:none;stroke:#0b0c0b;stroke-width:7.5005002;stroke-linecap:butt;stroke-linejoin:miter;stroke-miterlimit:2.61310005;stroke-dasharray:none;stroke-opacity:1"
         d="m 1441.06,13.9141 43.14,232.1879 4.39,19.796 4.38,19.411 4.39,19.027 4.38,18.644 4.38,18.262 4.39,17.875 4.38,17.488 4.39,17.106 4.38,16.723 4.39,16.336 4.38,15.949 4.39,15.574 4.38,15.18 4.39,14.8 4.38,14.415 4.39,14.031 4.38,13.648 4.38,13.262 4.39,12.875 4.38,12.496 4.39,12.109 4.39,11.719 4.38,11.344 4.39,10.953 4.38,10.57 4.39,10.188 4.38,9.801 4.38,9.418 4.39,9.035 4.39,8.648 4.38,8.266 4.39,7.879 4.38,7.496 4.39,7.109 4.38,6.731 4.38,6.339 4.39,5.961 4.38,5.571 4.39,5.191 4.38,4.805 4.39,4.418 4.38,4.039 4.39,3.652 4.39,3.27 4.38,2.879 4.39,2.5 4.38,2.117 4.38,1.726 4.39,1.348 4.38,0.961 4.39,0.574 4.38,0.195 4.39,-0.195 4.38,-0.574 4.39,-0.961 4.38,-1.348 4.39,-1.726 4.38,-2.117 4.39,-2.5 4.38,-2.879 4.39,-3.27 4.38,-3.652 4.39,-4.039 4.38,-4.418 4.38,-4.805 4.39,-5.191 4.38,-5.571 4.39,-5.961 4.39,-6.339 4.38,-6.731 4.38,-7.109 4.39,-7.496 4.38,-7.879 4.39,-8.266 4.39,-8.648 4.38,-9.035 4.39,-9.418 4.38,-9.801 4.38,-10.188 4.39,-10.57 4.38,-10.953 4.39,-11.344 4.38,-11.719 4.39,-12.109 4.38,-12.496 4.39,-12.875 4.38,-13.262 4.39,-13.648 4.38,-14.031 4.39,-14.415 4.38,-14.8 4.39,-15.18 4.38,-15.574 4.39,-15.949 4.38,-16.336 4.39,-16.723 4.39,-17.106 4.37,-17.488 4.39,-17.875 4.39,-18.262 4.38,-18.644 4.39,-19.027 4.38,-19.411 4.39,-19.796 61.2,-239.71528" /><path
         id="path44"
         style="fill:none;stroke:#101211;stroke-width:2.16000009;stroke-linecap:butt;stroke-linejoin:miter;stroke-miterlimit:2.61310005;stroke-dasharray:none;stroke-opacity:1"
         d="M 1082.54,332.625 H 2130.99" /><path
         id="path46"
         style="fill:none;stroke:#101211;stroke-width:2.16000009;stroke-linecap:butt;stroke-linejoin:miter;stroke-miterlimit:2.61310005;stroke-dasharray:none;stroke-opacity:1"
         d="M 1082.54,441.09 H 2130.99" /><path
         id="path48"
         style="fill:none;stroke:#101211;stroke-width:2.16000009;stroke-linecap:butt;stroke-linejoin:miter;stroke-miterlimit:2.61310005;stroke-dasharray:none;stroke-opacity:1"
         d="M 1082.54,549.555 H 2130.99" /><path
         id="path50"
         style="fill:none;stroke:#101211;stroke-width:2.16000009;stroke-linecap:butt;stroke-linejoin:miter;stroke-miterlimit:2.61310005;stroke-dasharray:none;stroke-opacity:1"
         d="M 1082.54,658.02 H 2130.99" /><path
         id="path52"
         style="fill:none;stroke:#101211;stroke-width:2.16000009;stroke-linecap:butt;stroke-linejoin:miter;stroke-miterlimit:2.61310005;stroke-dasharray:none;stroke-opacity:1"
         d="M 1082.54,766.48 H 2130.99" /><path
         id="path54"
         style="fill:none;stroke:#101211;stroke-width:2.16000009;stroke-linecap:butt;stroke-linejoin:miter;stroke-miterlimit:2.61310005;stroke-dasharray:none;stroke-opacity:1"
         d="M 1082.54,874.945 H 2130.99" /><path
         id="path56"
         style="fill:none;stroke:#101211;stroke-width:2.16000009;stroke-linecap:butt;stroke-linejoin:miter;stroke-miterlimit:2.61310005;stroke-dasharray:none;stroke-opacity:1"
         d="M 1082.54,983.414 H 2130.99" /><path
         id="path58"
         style="fill:none;stroke:#231f20;stroke-width:7.5005002;stroke-linecap:butt;stroke-linejoin:miter;stroke-miterlimit:2.61310005;stroke-dasharray:none;stroke-opacity:1"
         d="M 1082.54,549.555 H 2087.25" /><path
         id="path60"
         style="fill:#231f20;fill-opacity:1;fill-rule:evenodd;stroke:none"
         d="m 2083.09,575.902 47.9,-26.347 -47.9,-26.348 v 52.695" /><path
         id="path62"
         style="fill:none;stroke:#231f20;stroke-width:7.5005002;stroke-linecap:butt;stroke-linejoin:miter;stroke-miterlimit:2.61310005;stroke-dasharray:none;stroke-opacity:1"
         d="M 1711.61,7.23438 V 1048.13" /><path
         id="path64"
         style="fill:#231f20;fill-opacity:1;fill-rule:evenodd;stroke:none"
         d="m 1685.26,1043.98 26.35,47.9 26.35,-47.9 h -52.7" /><path
         id="path66"
         style="fill:#ffffff;fill-opacity:1;fill-rule:evenodd;stroke:none"
         d="M 2.53516,7.23438 H 1050.9952 V 1091.8744 H 2.53516 Z" /><path
         id="path68"
         style="fill:none;stroke:#0b0c0b;stroke-width:2.16000009;stroke-linecap:butt;stroke-linejoin:miter;stroke-miterlimit:2.61310005;stroke-dasharray:none;stroke-opacity:1"
         d="M 2.53516,7.23438 H 1050.9952 V 1091.8744 H 2.53516 Z" /><path
         id="path70"
         style="fill:none;stroke:#101211;stroke-width:2.16000009;stroke-linecap:butt;stroke-linejoin:miter;stroke-miterlimit:2.61310005;stroke-dasharray:none;stroke-opacity:1"
         d="M 107.383,7.23438 V 1091.88" /><path
         id="path72"
         style="fill:none;stroke:#101211;stroke-width:2.16000009;stroke-linecap:butt;stroke-linejoin:miter;stroke-miterlimit:2.61310005;stroke-dasharray:none;stroke-opacity:1"
         d="M 212.227,7.23438 V 1091.88" /><path
         id="path74"
         style="fill:none;stroke:#101211;stroke-width:2.16000009;stroke-linecap:butt;stroke-linejoin:miter;stroke-miterlimit:2.61310005;stroke-dasharray:none;stroke-opacity:1"
         d="M 317.074,7.23438 V 1091.88" /><path
         id="path76"
         style="fill:none;stroke:#101211;stroke-width:2.16000009;stroke-linecap:butt;stroke-linejoin:miter;stroke-miterlimit:2.61310005;stroke-dasharray:none;stroke-opacity:1"
         d="M 421.918,7.23438 V 1091.88" /><path
         id="path78"
         style="fill:none;stroke:#101211;stroke-width:2.16000009;stroke-linecap:butt;stroke-linejoin:miter;stroke-miterlimit:2.61310005;stroke-dasharray:none;stroke-opacity:1"
         d="M 526.766,7.23438 V 1048.13" /><path
         id="path80"
         style="fill:#101211;fill-opacity:1;fill-rule:evenodd;stroke:none"
         d="m 500.418,1043.98 26.348,47.9 26.347,-47.9 h -52.695" /><path
         id="path82"
         style="fill:none;stroke:#101211;stroke-width:2.16000009;stroke-linecap:butt;stroke-linejoin:miter;stroke-miterlimit:2.61310005;stroke-dasharray:none;stroke-opacity:1"
         d="M 631.609,7.23438 V 1091.88" /><path
         id="path84"
         style="fill:none;stroke:#101211;stroke-width:2.16000009;stroke-linecap:butt;stroke-linejoin:miter;stroke-miterlimit:2.61310005;stroke-dasharray:none;stroke-opacity:1"
         d="M 736.453,7.23438 V 1091.88" /><path
         id="path86"
         style="fill:none;stroke:#101211;stroke-width:2.16000009;stroke-linecap:butt;stroke-linejoin:miter;stroke-miterlimit:2.61310005;stroke-dasharray:none;stroke-opacity:1"
         d="M 841.301,7.23438 V 1091.88" /><path
         id="path88"
         style="fill:none;stroke:#101211;stroke-width:2.16000009;stroke-linecap:butt;stroke-linejoin:miter;stroke-miterlimit:2.61310005;stroke-dasharray:none;stroke-opacity:1"
         d="M 946.148,7.23438 V 1091.88" /><path
         id="path90"
         style="fill:none;stroke:#101211;stroke-width:2.16000009;stroke-linecap:butt;stroke-linejoin:miter;stroke-miterlimit:2.61310005;stroke-dasharray:none;stroke-opacity:1"
         d="M 2.53516,115.695 H 1050.99" /><path
         id="path92"
         style="fill:none;stroke:#101211;stroke-width:2.16000009;stroke-linecap:butt;stroke-linejoin:miter;stroke-miterlimit:2.61310005;stroke-dasharray:none;stroke-opacity:1"
         d="M 2.53516,224.16 H 1050.99" /><path
         id="path94"
         style="fill:none;stroke:#101211;stroke-width:2.16000009;stroke-linecap:butt;stroke-linejoin:miter;stroke-miterlimit:2.61310005;stroke-dasharray:none;stroke-opacity:1"
         d="M 2.53516,332.625 H 1050.99" /><path
         id="path96"
         style="fill:none;stroke:#101211;stroke-width:2.16000009;stroke-linecap:butt;stroke-linejoin:miter;stroke-miterlimit:2.61310005;stroke-dasharray:none;stroke-opacity:1"
         d="M 2.53516,441.09 H 1050.99" /><path
         id="path98"
         style="fill:none;stroke:#101211;stroke-width:2.16000009;stroke-linecap:butt;stroke-linejoin:miter;stroke-miterlimit:2.61310005;stroke-dasharray:none;stroke-opacity:1"
         d="M 2.53516,549.555 H 1050.99" /><path
         id="path100"
         style="fill:none;stroke:#101211;stroke-width:2.16000009;stroke-linecap:butt;stroke-linejoin:miter;stroke-miterlimit:2.61310005;stroke-dasharray:none;stroke-opacity:1"
         d="M 2.53516,658.02 H 1050.99" /><path
         id="path102"
         style="fill:none;stroke:#101211;stroke-width:2.16000009;stroke-linecap:butt;stroke-linejoin:miter;stroke-miterlimit:2.61310005;stroke-dasharray:none;stroke-opacity:1"
         d="M 2.53516,766.48 H 1050.99" /><path
         id="path104"
         style="fill:none;stroke:#101211;stroke-width:2.16000009;stroke-linecap:butt;stroke-linejoin:miter;stroke-miterlimit:2.61310005;stroke-dasharray:none;stroke-opacity:1"
         d="M 2.53516,874.945 H 1050.99" /><path
         id="path106"
         style="fill:#231f20;fill-opacity:1;fill-rule:nonzero;stroke:none"
         d="m 622.434,489.145 16.117,7.867 h 1.617 v -55.914 c 0,-3.703 0.148,-6.02 0.449,-6.934 0.317,-0.902 0.969,-1.602 1.934,-2.102 0.984,-0.484 2.969,-0.765 5.969,-0.832 v -1.8 h -24.918 v 1.8 c 3.132,0.067 5.152,0.332 6.066,0.817 0.902,0.465 1.535,1.098 1.898,1.898 0.352,0.801 0.536,3.184 0.536,7.153 v 35.75 c 0,4.812 -0.168,7.898 -0.485,9.265 -0.23,1.047 -0.648,1.817 -1.25,2.297 -0.601,0.485 -1.316,0.735 -2.164,0.735 -1.203,0 -2.883,-0.5 -5.035,-1.516 l -0.734,1.516" /><path
         id="path108"
         style="fill:none;stroke:#101211;stroke-width:2.16000009;stroke-linecap:butt;stroke-linejoin:miter;stroke-miterlimit:2.61310005;stroke-dasharray:none;stroke-opacity:1"
         d="M 2.53516,983.414 H 1050.99" /><path
         id="path110"
         style="fill:none;stroke:#231f20;stroke-width:7.5005002;stroke-linecap:butt;stroke-linejoin:miter;stroke-miterlimit:2.61310005;stroke-dasharray:none;stroke-opacity:1"
         d="M 2.53516,549.555 H 1007.25" /><path
         id="path112"
         style="fill:#231f20;fill-opacity:1;fill-rule:evenodd;stroke:none"
         d="m 1003.09,575.902 47.9,-26.347 -47.9,-26.348 v 52.695" /><path
         id="path114"
         style="fill:none;stroke:#0b0c0b;stroke-width:7.5005002;stroke-linecap:butt;stroke-linejoin:miter;stroke-miterlimit:2.61310005;stroke-dasharray:none;stroke-opacity:1"
         d="M 521.527,1091.88 V 7.23438" /><path
         id="path116"
         style="fill:#231f20;fill-opacity:1;fill-rule:nonzero;stroke:none"
         d="m 446.773,1077.51 c 1.102,-1.88 1.868,-3.65 2.301,-5.28 0.414,-1.65 0.832,-4.89 1.266,-9.7 l 2.148,-24.02 c 1.95,2.33 4.785,6.05 8.5,11.13 1.785,2.47 4,5.84 6.633,10.1 1.602,2.6 2.57,4.44 2.934,5.47 0.183,0.52 0.285,1.07 0.285,1.62 0,0.35 -0.102,0.65 -0.336,0.88 -0.231,0.22 -0.816,0.48 -1.781,0.8 -0.969,0.3 -1.766,0.88 -2.399,1.7 -0.636,0.83 -0.953,1.78 -0.953,2.87 0,1.33 0.402,2.4 1.184,3.21 0.765,0.82 1.75,1.22 2.918,1.22 1.433,0 2.652,-0.58 3.664,-1.78 1.019,-1.19 1.519,-2.82 1.519,-4.91 0,-2.56 -0.883,-5.51 -2.636,-8.81 -1.766,-3.3 -5.145,-8.37 -10.165,-15.2 -5,-6.85 -11.082,-14.3 -18.199,-22.36 -4.914,-5.57 -8.566,-9.09 -10.949,-10.54 -2.367,-1.43 -4.402,-2.16 -6.102,-2.16 -1.015,0 -1.898,0.38 -2.664,1.14 -0.769,0.77 -1.132,1.66 -1.132,2.67 0,1.27 0.515,2.42 1.582,3.47 1.05,1.03 2.199,1.55 3.433,1.55 0.649,0 1.199,-0.13 1.617,-0.44 0.266,-0.16 0.547,-0.63 0.848,-1.4 0.316,-0.74 0.598,-1.26 0.867,-1.53 0.149,-0.16 0.352,-0.23 0.582,-0.23 0.184,0 0.535,0.15 1.02,0.48 1.797,1.1 3.883,2.87 6.25,5.27 3.133,3.2 5.433,5.8 6.933,7.81 l -2.738,30.96 c -0.445,5.11 -1.129,8.23 -2.047,9.32 -0.918,1.11 -2.433,1.67 -4.586,1.67 -0.679,0 -1.914,-0.1 -3.664,-0.3 l -0.433,1.8 14.3,3.52" /><path
         id="path118"
         style="fill:#231f20;fill-opacity:1;fill-rule:nonzero;stroke:none"
         d="m 998.496,507.789 c 1.594,-1.684 2.804,-3.383 3.614,-5.066 0.59,-1.184 1.55,-4.25 2.89,-9.235 l 4.29,6.453 c 1.14,1.547 2.52,3.047 4.16,4.465 1.61,1.414 3.05,2.383 4.28,2.899 0.78,0.332 1.65,0.484 2.6,0.484 1.4,0 2.5,-0.367 3.33,-1.117 0.83,-0.75 1.25,-1.668 1.25,-2.731 0,-1.234 -0.25,-2.086 -0.73,-2.535 -0.92,-0.816 -1.95,-1.234 -3.12,-1.234 -0.68,0 -1.42,0.152 -2.2,0.449 -1.53,0.52 -2.57,0.785 -3.08,0.785 -0.78,0 -1.7,-0.468 -2.79,-1.367 -2.01,-1.699 -4.41,-4.965 -7.21,-9.816 l 4,-16.801 c 0.61,-2.567 1.13,-4.117 1.56,-4.617 0.42,-0.5 0.84,-0.75 1.27,-0.75 0.68,0 1.48,0.367 2.39,1.117 1.8,1.5 3.31,3.449 4.59,5.867 l 1.7,-0.883 c -2.05,-3.847 -4.65,-7.031 -7.81,-9.566 -1.78,-1.434 -3.3,-2.152 -4.54,-2.152 -1.81,0 -3.26,1.019 -4.35,3.066 -0.68,1.269 -2.09,6.754 -4.25,16.418 -5.063,-8.832 -9.129,-14.5 -12.195,-17.051 -1.985,-1.613 -3.899,-2.433 -5.766,-2.433 -1.301,0 -2.484,0.468 -3.567,1.417 -0.765,0.719 -1.167,1.668 -1.167,2.883 0,1.071 0.367,1.969 1.085,2.684 0.7,0.719 1.582,1.066 2.633,1.066 1.032,0 2.149,-0.515 3.317,-1.566 0.847,-0.75 1.5,-1.113 1.949,-1.113 0.398,0 0.898,0.265 1.516,0.781 1.535,1.23 3.617,3.898 6.25,8 2.632,4.101 4.367,7.066 5.183,8.898 -2.031,7.903 -3.117,12.086 -3.281,12.535 -0.754,2.114 -1.719,3.614 -2.934,4.5 -1.199,0.883 -2.968,1.317 -5.32,1.317 -0.746,0 -1.613,-0.035 -2.582,-0.102 v 1.766 l 13.035,2.285" /><path
         id="path120"
         style="fill:#231f20;fill-opacity:1;fill-rule:nonzero;stroke:none"
         d="m 474.367,691.602 16.121,7.867 h 1.614 v -55.918 c 0,-3.699 0.152,-6.016 0.453,-6.934 0.316,-0.898 0.965,-1.601 1.929,-2.097 0.985,-0.485 2.969,-0.766 5.969,-0.836 v -1.797 h -24.918 v 1.797 c 3.133,0.07 5.153,0.336 6.067,0.816 0.902,0.469 1.535,1.102 1.902,1.898 0.348,0.805 0.535,3.184 0.535,7.153 v 35.75 c 0,4.816 -0.168,7.902 -0.484,9.265 -0.235,1.051 -0.653,1.821 -1.25,2.301 -0.602,0.485 -1.317,0.735 -2.168,0.735 -1.203,0 -2.883,-0.504 -5.035,-1.516 l -0.735,1.516" /><path
         id="path122"
         style="fill:#231f20;fill-opacity:1;fill-rule:nonzero;stroke:none"
         d="m 466.27,489.34 c 0,7.551 1.136,14.051 3.418,19.5 2.285,5.453 5.3,9.515 9.082,12.183 2.933,2.118 5.953,3.184 9.082,3.184 5.066,0 9.636,-2.602 13.668,-7.766 5.05,-6.418 7.566,-15.101 7.566,-26.086 0,-7.679 -1.098,-14.199 -3.316,-19.562 -2.215,-5.383 -5.032,-9.285 -8.465,-11.703 -3.434,-2.434 -6.75,-3.633 -9.95,-3.633 -6.3,0 -11.57,3.719 -15.765,11.184 -3.555,6.281 -5.32,13.851 -5.32,22.699 z m 9.566,-1.215 c 0,-9.117 1.117,-16.566 3.367,-22.316 1.852,-4.852 4.633,-7.286 8.301,-7.286 1.766,0 3.582,0.801 5.465,2.368 1.898,1.586 3.336,4.234 4.301,7.933 1.5,5.598 2.25,13.5 2.25,23.684 0,7.547 -0.786,13.847 -2.348,18.898 -1.168,3.75 -2.688,6.399 -4.535,7.969 -1.332,1.066 -2.949,1.598 -4.836,1.598 -2.215,0 -4.18,-0.985 -5.914,-2.965 -2.332,-2.703 -3.934,-6.949 -4.782,-12.75 -0.851,-5.801 -1.269,-11.5 -1.269,-17.133" /><path
         id="path124"
         style="fill:#231f20;fill-opacity:1;fill-rule:nonzero;stroke:none"
         d="m 1807.67,519.363 16.12,7.867 h 1.62 v -55.918 c 0,-3.703 0.14,-6.015 0.45,-6.933 0.32,-0.902 0.96,-1.602 1.93,-2.098 0.98,-0.488 2.97,-0.765 5.97,-0.836 v -1.8 h -24.92 v 1.8 c 3.13,0.071 5.15,0.336 6.07,0.817 0.9,0.468 1.53,1.101 1.89,1.898 0.36,0.805 0.54,3.184 0.54,7.152 v 35.75 c 0,4.817 -0.16,7.903 -0.48,9.266 -0.24,1.051 -0.65,1.82 -1.25,2.301 -0.61,0.484 -1.32,0.734 -2.17,0.734 -1.2,0 -2.88,-0.504 -5.03,-1.515 l -0.74,1.515" /><path
         id="path126"
         style="fill:#231f20;fill-opacity:1;fill-rule:nonzero;stroke:none"
         d="m 1653.16,1074.49 c 1.11,-1.88 1.87,-3.65 2.3,-5.29 0.42,-1.65 0.84,-4.88 1.27,-9.7 l 2.15,-24.01 c 1.95,2.33 4.78,6.05 8.5,11.13 1.78,2.47 4,5.83 6.63,10.1 1.6,2.6 2.57,4.43 2.94,5.47 0.18,0.51 0.28,1.06 0.28,1.61 0,0.36 -0.1,0.65 -0.34,0.89 -0.23,0.22 -0.81,0.48 -1.78,0.8 -0.97,0.3 -1.76,0.88 -2.4,1.7 -0.63,0.83 -0.95,1.78 -0.95,2.86 0,1.34 0.4,2.41 1.19,3.22 0.76,0.82 1.75,1.22 2.91,1.22 1.44,0 2.66,-0.59 3.67,-1.78 1.02,-1.19 1.52,-2.82 1.52,-4.91 0,-2.56 -0.89,-5.51 -2.64,-8.81 -1.76,-3.3 -5.14,-8.37 -10.16,-15.2 -5,-6.85 -11.09,-14.3 -18.2,-22.37 -4.92,-5.56 -8.57,-9.08 -10.95,-10.53 -2.37,-1.43 -4.4,-2.17 -6.1,-2.17 -1.02,0 -1.9,0.39 -2.67,1.16 -0.77,0.76 -1.13,1.64 -1.13,2.66 0,1.26 0.51,2.42 1.58,3.46 1.05,1.04 2.2,1.55 3.43,1.55 0.65,0 1.2,-0.13 1.62,-0.43 0.27,-0.17 0.55,-0.63 0.85,-1.4 0.32,-0.75 0.6,-1.27 0.87,-1.53 0.15,-0.17 0.35,-0.23 0.58,-0.23 0.18,0 0.53,0.15 1.02,0.48 1.8,1.1 3.88,2.86 6.25,5.27 3.13,3.19 5.43,5.8 6.93,7.81 l -2.73,30.95 c -0.45,5.12 -1.14,8.23 -2.05,9.33 -0.92,1.1 -2.44,1.67 -4.59,1.67 -0.68,0 -1.91,-0.1 -3.66,-0.3 l -0.44,1.8 14.3,3.52" /><path
         id="path128"
         style="fill:#231f20;fill-opacity:1;fill-rule:nonzero;stroke:none"
         d="m 2087.04,504.766 c 1.6,-1.684 2.8,-3.383 3.62,-5.063 0.58,-1.187 1.55,-4.254 2.88,-9.238 l 4.3,6.453 c 1.13,1.547 2.52,3.051 4.15,4.465 1.62,1.418 3.05,2.383 4.28,2.898 0.78,0.336 1.65,0.485 2.6,0.485 1.4,0 2.5,-0.364 3.33,-1.118 0.84,-0.75 1.25,-1.664 1.25,-2.73 0,-1.234 -0.25,-2.082 -0.73,-2.535 -0.92,-0.817 -1.95,-1.231 -3.11,-1.231 -0.69,0 -1.42,0.149 -2.2,0.45 -1.54,0.515 -2.57,0.781 -3.09,0.781 -0.78,0 -1.7,-0.469 -2.78,-1.367 -2.02,-1.7 -4.42,-4.965 -7.22,-9.817 l 4,-16.801 c 0.62,-2.562 1.13,-4.113 1.57,-4.617 0.41,-0.496 0.83,-0.746 1.27,-0.746 0.68,0 1.48,0.363 2.38,1.117 1.8,1.5 3.32,3.45 4.6,5.864 l 1.7,-0.883 c -2.05,-3.848 -4.65,-7.031 -7.82,-9.567 -1.78,-1.433 -3.3,-2.148 -4.53,-2.148 -1.82,0 -3.27,1.016 -4.35,3.066 -0.68,1.266 -2.1,6.75 -4.25,16.418 -5.07,-8.832 -9.14,-14.504 -12.2,-17.05 -1.98,-1.618 -3.9,-2.434 -5.77,-2.434 -1.3,0 -2.48,0.465 -3.56,1.414 -0.77,0.719 -1.17,1.668 -1.17,2.883 0,1.07 0.36,1.969 1.08,2.687 0.7,0.715 1.59,1.063 2.64,1.063 1.03,0 2.14,-0.516 3.31,-1.563 0.85,-0.75 1.5,-1.117 1.95,-1.117 0.4,0 0.9,0.266 1.52,0.781 1.53,1.235 3.61,3.903 6.25,8 2.63,4.102 4.36,7.067 5.18,8.903 -2.03,7.898 -3.11,12.082 -3.28,12.531 -0.75,2.117 -1.72,3.617 -2.93,4.5 -1.2,0.883 -2.97,1.32 -5.32,1.32 -0.75,0 -1.62,-0.035 -2.59,-0.105 v 1.765 l 13.04,2.286" /><path
         id="path130"
         style="fill:#231f20;fill-opacity:1;fill-rule:nonzero;stroke:none"
         d="m 1662.63,682.535 16.12,7.867 h 1.61 v -55.914 c 0,-3.703 0.15,-6.019 0.45,-6.933 0.32,-0.903 0.97,-1.602 1.94,-2.102 0.98,-0.484 2.96,-0.765 5.96,-0.832 v -1.801 h -24.91 v 1.801 c 3.13,0.067 5.15,0.332 6.06,0.817 0.91,0.464 1.54,1.097 1.9,1.898 0.35,0.801 0.54,3.184 0.54,7.152 v 35.75 c 0,4.813 -0.17,7.899 -0.49,9.266 -0.23,1.047 -0.65,1.816 -1.25,2.297 -0.6,0.484 -1.31,0.734 -2.16,0.734 -1.2,0 -2.88,-0.5 -5.04,-1.515 l -0.73,1.515" /><path
         id="path132"
         style="fill:#231f20;fill-opacity:1;fill-rule:nonzero;stroke:none"
         d="m 1672.66,489.34 c 0,7.551 1.14,14.051 3.42,19.5 2.28,5.453 5.3,9.515 9.08,12.183 2.93,2.118 5.95,3.184 9.09,3.184 5.06,0 9.63,-2.602 13.66,-7.766 5.05,-6.418 7.57,-15.101 7.57,-26.086 0,-7.679 -1.1,-14.199 -3.32,-19.562 -2.21,-5.383 -5.03,-9.285 -8.46,-11.703 -3.44,-2.434 -6.75,-3.633 -9.95,-3.633 -6.3,0 -11.57,3.719 -15.77,11.184 -3.55,6.281 -5.32,13.851 -5.32,22.699 z m 9.57,-1.215 c 0,-9.117 1.11,-16.566 3.37,-22.316 1.85,-4.852 4.63,-7.286 8.29,-7.286 1.77,0 3.59,0.801 5.47,2.368 1.9,1.586 3.34,4.234 4.3,7.933 1.5,5.598 2.25,13.5 2.25,23.684 0,7.547 -0.79,13.847 -2.35,18.898 -1.17,3.75 -2.68,6.399 -4.53,7.969 -1.33,1.066 -2.95,1.598 -4.84,1.598 -2.21,0 -4.18,-0.985 -5.91,-2.965 -2.33,-2.703 -3.93,-6.949 -4.78,-12.75 -0.86,-5.801 -1.27,-11.5 -1.27,-17.133" /><path
         id="path134"
         style="fill:#231f20;fill-opacity:1;fill-rule:nonzero;stroke:none"
         d="m 1082.73,1241.57 h 46.53 l -5.03,-17.29 h -1.82 c 0.37,2.12 0.55,4.04 0.55,5.75 0,2.25 -0.45,4 -1.33,5.23 -0.86,1.24 -2.07,2.04 -3.58,2.39 -1.52,0.37 -4.49,0.55 -8.92,0.55 h -10.2 l -7.62,-26.13 h 6.65 c 5.65,0 9.9,-0.59 12.74,-1.75 2.83,-1.19 5.16,-3.17 6.98,-5.97 1.84,-2.8 2.73,-5.8 2.73,-9.03 0,-3.87 -1.31,-7.57 -3.98,-11.09 -2.65,-3.52 -5.9,-5.87 -9.73,-7.08 -3.84,-1.2 -8.37,-1.8 -13.57,-1.8 h -29.55 l 0.48,1.8 c 3.55,0.06 5.99,0.67 7.3,1.78 1.32,1.14 2.67,3.98 4.03,8.59 l 11.62,39.5 c 1.29,4.35 1.92,7.29 1.92,8.83 0,1.36 -0.5,2.35 -1.5,2.93 -0.98,0.58 -2.73,0.9 -5.25,0.97 z m -0.84,-61.92 c 2.54,-0.47 5.32,-0.69 8.36,-0.69 6.89,0 11.95,1.71 15.15,5.11 3.21,3.39 4.81,7.2 4.81,11.39 0,2.84 -0.76,5.34 -2.32,7.5 -1.54,2.17 -3.49,3.65 -5.83,4.47 -2.35,0.82 -5.5,1.22 -9.48,1.22 h -2.2 l -8.49,-29" /><path
         id="path136"
         style="fill:#231f20;fill-opacity:1;fill-rule:nonzero;stroke:none"
         d="m 1139.95,1243.85 1.66,0.93 c 3.87,-7.35 6.64,-13.87 8.3,-19.53 1.34,-4.42 2,-8.88 2,-13.39 0,-10.5 -2.43,-19.9 -7.28,-28.16 -5.99,-10.18 -15.63,-20.1 -28.95,-29.74 l -1.17,1.52 c 6.02,4.48 10.94,9.48 14.74,14.98 4.76,6.9 8.64,15.25 11.68,25.04 3.02,9.77 4.53,18.66 4.53,26.68 0,6.12 -1.83,13.34 -5.51,21.67" /><path
         id="path138"
         style="fill:#231f20;fill-opacity:1;fill-rule:nonzero;stroke:none"
         d="m 2139.86,1239.75 0.69,1.82 h 23.63 c 3.96,0 7.5,-0.62 10.62,-1.87 3.1,-1.24 5.43,-2.95 6.98,-5.17 1.55,-2.21 2.32,-4.57 2.32,-7.03 0,-3.82 -1.39,-7.25 -4.14,-10.34 -2.75,-3.06 -7.23,-5.34 -13.45,-6.8 4.02,-1.5 6.95,-3.48 8.85,-5.96 1.89,-2.47 2.84,-5.19 2.84,-8.15 0,-3.29 -0.85,-6.43 -2.56,-9.43 -1.68,-2.99 -3.86,-5.32 -6.51,-6.97 -2.65,-1.67 -5.85,-2.89 -9.6,-3.67 -2.67,-0.55 -6.83,-0.83 -12.5,-0.83 h -24.26 l 0.62,1.8 c 2.56,0.06 4.27,0.31 5.19,0.73 1.3,0.57 2.23,1.3 2.78,2.2 0.78,1.24 1.82,4.07 3.12,8.5 l 11.86,40.08 c 1.02,3.39 1.52,5.77 1.52,7.14 0,1.2 -0.45,2.15 -1.33,2.85 -0.9,0.7 -2.6,1.05 -5.12,1.05 -0.55,0 -1.06,0.01 -1.55,0.05 z m 9.9,-27.49 c 2.12,-0.06 3.65,-0.1 4.6,-0.1 6.77,0 11.8,1.47 15.12,4.42 3.3,2.95 4.95,6.63 4.95,11.07 0,3.35 -1.02,5.96 -3.04,7.83 -2.01,1.87 -5.23,2.8 -9.66,2.8 -1.17,0 -2.67,-0.18 -4.48,-0.58 z m -9.62,-32.61 c 3.52,-0.47 6.27,-0.69 8.26,-0.69 5.08,0 9.58,1.54 13.49,4.59 3.94,3.07 5.89,7.22 5.89,12.45 0,4 -1.2,7.13 -3.64,9.38 -2.41,2.25 -6.33,3.37 -11.73,3.37 -1.05,0 -2.32,-0.05 -3.82,-0.15 l -8.45,-28.95" /><path
         id="path140"
         style="fill:#231f20;fill-opacity:1;fill-rule:nonzero;stroke:none"
         d="m 2200.7,1243.85 1.66,0.93 c 3.87,-7.35 6.64,-13.87 8.3,-19.53 1.33,-4.42 2,-8.88 2,-13.39 0,-10.5 -2.43,-19.9 -7.28,-28.16 -5.99,-10.18 -15.63,-20.1 -28.95,-29.74 l -1.17,1.52 c 6.02,4.48 10.94,9.48 14.74,14.98 4.76,6.9 8.64,15.25 11.68,25.04 3.02,9.77 4.53,18.66 4.53,26.68 0,6.12 -1.83,13.34 -5.51,21.67" /><path
         id="path142"
         style="fill:#ffffff;fill-opacity:1;fill-rule:evenodd;stroke:none"
         d="M 2162.54,7.23438 H 3211 V 1091.8744 H 2162.54 Z" /><path
         id="path144"
         style="fill:none;stroke:#0b0c0b;stroke-width:2.16000009;stroke-linecap:butt;stroke-linejoin:miter;stroke-miterlimit:2.61310005;stroke-dasharray:none;stroke-opacity:1"
         d="M 2162.54,7.23438 H 3211 V 1091.8744 H 2162.54 Z" /><path
         id="path146"
         style="fill:none;stroke:#101211;stroke-width:2.16000009;stroke-linecap:butt;stroke-linejoin:miter;stroke-miterlimit:2.61310005;stroke-dasharray:none;stroke-opacity:1"
         d="M 2267.38,7.23438 V 1091.88" /><path
         id="path148"
         style="fill:none;stroke:#101211;stroke-width:2.16000009;stroke-linecap:butt;stroke-linejoin:miter;stroke-miterlimit:2.61310005;stroke-dasharray:none;stroke-opacity:1"
         d="M 2372.23,7.23438 V 1091.88" /><path
         id="path150"
         style="fill:none;stroke:#101211;stroke-width:2.16000009;stroke-linecap:butt;stroke-linejoin:miter;stroke-miterlimit:2.61310005;stroke-dasharray:none;stroke-opacity:1"
         d="M 2477.07,7.23438 V 1091.88" /><path
         id="path152"
         style="fill:none;stroke:#101211;stroke-width:2.16000009;stroke-linecap:butt;stroke-linejoin:miter;stroke-miterlimit:2.61310005;stroke-dasharray:none;stroke-opacity:1"
         d="M 2581.92,7.23438 V 1091.88" /><path
         id="path154"
         style="fill:none;stroke:#101211;stroke-width:2.16000009;stroke-linecap:butt;stroke-linejoin:miter;stroke-miterlimit:2.61310005;stroke-dasharray:none;stroke-opacity:1"
         d="M 2686.77,7.23438 V 1091.88" /><path
         id="path156"
         style="fill:none;stroke:#101211;stroke-width:2.16000009;stroke-linecap:butt;stroke-linejoin:miter;stroke-miterlimit:2.61310005;stroke-dasharray:none;stroke-opacity:1"
         d="M 2791.61,7.23438 V 1091.88" /><path
         id="path158"
         style="fill:none;stroke:#101211;stroke-width:2.16000009;stroke-linecap:butt;stroke-linejoin:miter;stroke-miterlimit:2.61310005;stroke-dasharray:none;stroke-opacity:1"
         d="M 2896.45,7.23438 V 1091.88" /><path
         id="path160"
         style="fill:none;stroke:#101211;stroke-width:2.16000009;stroke-linecap:butt;stroke-linejoin:miter;stroke-miterlimit:2.61310005;stroke-dasharray:none;stroke-opacity:1"
         d="M 3001.3,7.23438 V 1091.88" /><path
         id="path162"
         style="fill:none;stroke:#101211;stroke-width:2.16000009;stroke-linecap:butt;stroke-linejoin:miter;stroke-miterlimit:2.61310005;stroke-dasharray:none;stroke-opacity:1"
         d="M 3106.15,7.23438 V 1091.88" /><path
         id="path164"
         style="fill:none;stroke:#101211;stroke-width:2.16000009;stroke-linecap:butt;stroke-linejoin:miter;stroke-miterlimit:2.61310005;stroke-dasharray:none;stroke-opacity:1"
         d="M 2162.54,115.695 H 3210.99" /><path
         id="path166"
         style="fill:none;stroke:#101211;stroke-width:2.16000009;stroke-linecap:butt;stroke-linejoin:miter;stroke-miterlimit:2.61310005;stroke-dasharray:none;stroke-opacity:1"
         d="M 2162.54,224.16 H 3210.99" /><path
         id="path168"
         style="fill:none;stroke:#101211;stroke-width:2.16000009;stroke-linecap:butt;stroke-linejoin:miter;stroke-miterlimit:2.61310005;stroke-dasharray:none;stroke-opacity:1"
         d="M 2162.54,332.625 H 3210.99" /><path
         id="path170"
         style="fill:none;stroke:#101211;stroke-width:2.16000009;stroke-linecap:butt;stroke-linejoin:miter;stroke-miterlimit:2.61310005;stroke-dasharray:none;stroke-opacity:1"
         d="M 2162.54,441.09 H 3210.99" /><path
         id="path172"
         style="fill:none;stroke:#101211;stroke-width:2.16000009;stroke-linecap:butt;stroke-linejoin:miter;stroke-miterlimit:2.61310005;stroke-dasharray:none;stroke-opacity:1"
         d="M 2162.54,549.555 H 3210.99" /><path
         id="path174"
         style="fill:none;stroke:#101211;stroke-width:2.16000009;stroke-linecap:butt;stroke-linejoin:miter;stroke-miterlimit:2.61310005;stroke-dasharray:none;stroke-opacity:1"
         d="M 2162.54,658.02 H 3210.99" /><path
         id="path176"
         style="fill:none;stroke:#101211;stroke-width:2.16000009;stroke-linecap:butt;stroke-linejoin:miter;stroke-miterlimit:2.61310005;stroke-dasharray:none;stroke-opacity:1"
         d="M 2162.54,766.48 H 3210.99" /><path
         id="path178"
         style="fill:none;stroke:#101211;stroke-width:2.16000009;stroke-linecap:butt;stroke-linejoin:miter;stroke-miterlimit:2.61310005;stroke-dasharray:none;stroke-opacity:1"
         d="M 2162.54,874.945 H 3210.99" /><path
         id="path180"
         style="fill:none;stroke:#101211;stroke-width:2.16000009;stroke-linecap:butt;stroke-linejoin:miter;stroke-miterlimit:2.61310005;stroke-dasharray:none;stroke-opacity:1"
         d="M 2162.54,983.414 H 3210.99" /><path
         id="path182"
         style="fill:none;stroke:#231f20;stroke-width:7.5005002;stroke-linecap:butt;stroke-linejoin:miter;stroke-miterlimit:2.61310005;stroke-dasharray:none;stroke-opacity:1"
         d="M 2162.54,549.555 H 3167.25" /><path
         id="path184"
         style="fill:#231f20;fill-opacity:1;fill-rule:evenodd;stroke:none"
         d="m 3163.09,575.902 47.9,-26.347 -47.9,-26.348 v 52.695" /><path
         id="path186"
         style="fill:none;stroke:#231f20;stroke-width:7.5005002;stroke-linecap:butt;stroke-linejoin:miter;stroke-miterlimit:2.61310005;stroke-dasharray:none;stroke-opacity:1"
         d="M 2791.61,7.23438 V 1048.13" /><path
         id="path188"
         style="fill:#231f20;fill-opacity:1;fill-rule:evenodd;stroke:none"
         d="m 2765.26,1043.98 26.35,47.9 26.35,-47.9 h -52.7" /><path
         id="path190"
         style="fill:#231f20;fill-opacity:1;fill-rule:nonzero;stroke:none"
         d="m 2887.67,519.363 16.12,7.867 h 1.62 v -55.918 c 0,-3.703 0.14,-6.015 0.45,-6.933 0.32,-0.902 0.96,-1.602 1.93,-2.098 0.98,-0.488 2.97,-0.765 5.97,-0.836 v -1.8 h -24.92 v 1.8 c 3.13,0.071 5.15,0.336 6.07,0.817 0.9,0.468 1.53,1.101 1.89,1.898 0.36,0.805 0.54,3.184 0.54,7.152 v 35.75 c 0,4.817 -0.16,7.903 -0.48,9.266 -0.24,1.051 -0.65,1.82 -1.25,2.301 -0.6,0.484 -1.32,0.734 -2.17,0.734 -1.2,0 -2.88,-0.504 -5.03,-1.515 l -0.74,1.515" /><path
         id="path192"
         style="fill:#231f20;fill-opacity:1;fill-rule:nonzero;stroke:none"
         d="m 2733.16,1074.49 c 1.11,-1.88 1.87,-3.65 2.3,-5.29 0.42,-1.65 0.84,-4.88 1.27,-9.7 l 2.15,-24.01 c 1.95,2.33 4.78,6.05 8.5,11.13 1.78,2.47 4,5.83 6.63,10.1 1.6,2.6 2.57,4.43 2.94,5.47 0.18,0.51 0.28,1.06 0.28,1.61 0,0.36 -0.1,0.65 -0.34,0.89 -0.23,0.22 -0.81,0.48 -1.78,0.8 -0.97,0.3 -1.76,0.88 -2.4,1.7 -0.63,0.83 -0.95,1.78 -0.95,2.86 0,1.34 0.4,2.41 1.19,3.22 0.76,0.82 1.75,1.22 2.91,1.22 1.44,0 2.66,-0.59 3.67,-1.78 1.02,-1.19 1.52,-2.82 1.52,-4.91 0,-2.56 -0.89,-5.51 -2.64,-8.81 -1.76,-3.3 -5.14,-8.37 -10.16,-15.2 -5,-6.85 -11.09,-14.3 -18.2,-22.37 -4.92,-5.56 -8.57,-9.08 -10.95,-10.53 -2.37,-1.43 -4.4,-2.17 -6.1,-2.17 -1.02,0 -1.9,0.39 -2.67,1.16 -0.77,0.76 -1.13,1.64 -1.13,2.66 0,1.26 0.51,2.42 1.58,3.46 1.05,1.04 2.2,1.55 3.43,1.55 0.65,0 1.2,-0.13 1.62,-0.43 0.27,-0.17 0.55,-0.63 0.85,-1.4 0.32,-0.75 0.6,-1.27 0.87,-1.53 0.15,-0.17 0.35,-0.23 0.58,-0.23 0.18,0 0.53,0.15 1.02,0.48 1.8,1.1 3.88,2.86 6.25,5.27 3.13,3.19 5.43,5.8 6.93,7.81 l -2.73,30.95 c -0.45,5.12 -1.14,8.23 -2.05,9.33 -0.92,1.1 -2.44,1.67 -4.59,1.67 -0.68,0 -1.91,-0.1 -3.66,-0.3 l -0.44,1.8 14.3,3.52" /><path
         id="path194"
         style="fill:#231f20;fill-opacity:1;fill-rule:nonzero;stroke:none"
         d="m 3167.04,504.766 c 1.6,-1.684 2.8,-3.383 3.62,-5.063 0.58,-1.187 1.55,-4.254 2.88,-9.238 l 4.3,6.453 c 1.13,1.547 2.52,3.051 4.15,4.465 1.62,1.418 3.05,2.383 4.28,2.898 0.78,0.336 1.65,0.485 2.6,0.485 1.4,0 2.5,-0.364 3.33,-1.118 0.84,-0.75 1.25,-1.664 1.25,-2.73 0,-1.234 -0.25,-2.082 -0.73,-2.535 -0.92,-0.817 -1.95,-1.231 -3.11,-1.231 -0.69,0 -1.42,0.149 -2.2,0.45 -1.54,0.515 -2.57,0.781 -3.09,0.781 -0.78,0 -1.7,-0.469 -2.78,-1.367 -2.02,-1.7 -4.42,-4.965 -7.22,-9.817 l 4,-16.801 c 0.62,-2.562 1.13,-4.113 1.57,-4.617 0.41,-0.496 0.83,-0.746 1.27,-0.746 0.68,0 1.48,0.363 2.38,1.117 1.8,1.5 3.32,3.45 4.6,5.864 l 1.7,-0.883 c -2.05,-3.848 -4.65,-7.031 -7.82,-9.567 -1.78,-1.433 -3.3,-2.148 -4.53,-2.148 -1.82,0 -3.27,1.016 -4.35,3.066 -0.68,1.266 -2.1,6.75 -4.25,16.418 -5.07,-8.832 -9.14,-14.504 -12.2,-17.05 -1.98,-1.618 -3.9,-2.434 -5.77,-2.434 -1.3,0 -2.48,0.465 -3.56,1.414 -0.77,0.719 -1.17,1.668 -1.17,2.883 0,1.07 0.36,1.969 1.08,2.687 0.7,0.715 1.59,1.063 2.64,1.063 1.03,0 2.14,-0.516 3.31,-1.563 0.85,-0.75 1.5,-1.117 1.95,-1.117 0.4,0 0.9,0.266 1.52,0.781 1.53,1.235 3.61,3.903 6.25,8 2.63,4.102 4.36,7.067 5.18,8.903 -2.03,7.898 -3.11,12.082 -3.28,12.531 -0.75,2.117 -1.72,3.617 -2.93,4.5 -1.2,0.883 -2.97,1.32 -5.32,1.32 -0.75,0 -1.62,-0.035 -2.59,-0.105 v 1.765 l 13.04,2.286" /><path
         id="path196"
         style="fill:#231f20;fill-opacity:1;fill-rule:nonzero;stroke:none"
         d="m 2742.63,682.535 16.12,7.867 h 1.61 v -55.914 c 0,-3.703 0.15,-6.019 0.45,-6.933 0.32,-0.903 0.97,-1.602 1.94,-2.102 0.98,-0.484 2.96,-0.765 5.96,-0.832 v -1.801 h -24.91 v 1.801 c 3.13,0.067 5.15,0.332 6.06,0.817 0.91,0.464 1.54,1.097 1.9,1.898 0.35,0.801 0.54,3.184 0.54,7.152 v 35.75 c 0,4.813 -0.17,7.899 -0.49,9.266 -0.23,1.047 -0.65,1.816 -1.25,2.297 -0.6,0.484 -1.31,0.734 -2.16,0.734 -1.2,0 -2.88,-0.5 -5.04,-1.515 l -0.73,1.515" /><path
         id="path198"
         style="fill:#231f20;fill-opacity:1;fill-rule:nonzero;stroke:none"
         d="m 2752.66,489.34 c 0,7.551 1.14,14.051 3.42,19.5 2.28,5.453 5.3,9.515 9.08,12.183 2.93,2.118 5.95,3.184 9.09,3.184 5.06,0 9.63,-2.602 13.66,-7.766 5.05,-6.418 7.57,-15.101 7.57,-26.086 0,-7.679 -1.1,-14.199 -3.32,-19.562 -2.21,-5.383 -5.03,-9.285 -8.46,-11.703 -3.44,-2.434 -6.75,-3.633 -9.95,-3.633 -6.3,0 -11.57,3.719 -15.77,11.184 -3.55,6.281 -5.32,13.851 -5.32,22.699 z m 9.57,-1.215 c 0,-9.117 1.11,-16.566 3.37,-22.316 1.85,-4.852 4.63,-7.286 8.29,-7.286 1.77,0 3.59,0.801 5.47,2.368 1.9,1.586 3.34,4.234 4.3,7.933 1.5,5.598 2.25,13.5 2.25,23.684 0,7.547 -0.79,13.847 -2.35,18.898 -1.17,3.75 -2.68,6.399 -4.53,7.969 -1.33,1.066 -2.95,1.598 -4.84,1.598 -2.21,0 -4.18,-0.985 -5.91,-2.965 -2.33,-2.703 -3.93,-6.949 -4.78,-12.75 -0.86,-5.801 -1.27,-11.5 -1.27,-17.133" /><path
         id="path200"
         style="fill:none;stroke:#231f20;stroke-width:7.5005002;stroke-linecap:butt;stroke-linejoin:miter;stroke-miterlimit:2.61310005;stroke-dasharray:none;stroke-opacity:1"
         d="M 2992.86,5.66797 2478.61,1087.37" /><path
         id="path202"
         style="fill:none;stroke:#231f20;stroke-width:7.5005002;stroke-linecap:butt;stroke-linejoin:miter;stroke-miterlimit:2.61310005;stroke-dasharray:none;stroke-opacity:1"
         d="M 6.41406,339.191 731.594,1093.38" /><path
         id="path204"
         style="fill:#231f20;fill-opacity:1;fill-rule:nonzero;stroke:none"
         d="M 109.93,1243.06 104.895,1188 c -0.266,-2.59 -0.383,-4.27 -0.383,-5.09 0,-1.29 0.234,-2.29 0.734,-2.98 0.617,-0.93 1.449,-1.63 2.5,-2.1 1.066,-0.45 2.848,-0.68 5.348,-0.68 l -0.532,-1.8 H 86.4961 l 0.5312,1.8 h 1.1172 c 2.1172,0 3.8516,0.47 5.1836,1.37 0.9336,0.63 1.668,1.64 2.2031,3.08 0.3477,1.02 0.6993,3.38 1.0157,7.13 l 0.7812,8.4 H 78.3789 L 71.6445,1188 c -1.5312,-2.05 -2.4843,-3.54 -2.8828,-4.42 -0.3828,-0.9 -0.582,-1.73 -0.582,-2.51 0,-1.05 0.4141,-1.94 1.2656,-2.69 0.8516,-0.75 2.25,-1.17 4.1992,-1.23 l -0.5312,-1.8 h -19.586 l 0.5352,1.8 c 2.418,0.1 4.5352,0.91 6.3828,2.42 1.8359,1.51 4.5664,4.74 8.2188,9.7 l 39.5469,53.79 z m -9.668,-16.25 -19.1995,-26.11 h 16.6484 l 2.5511,26.11" /><path
         id="path206"
         style="fill:#231f20;fill-opacity:1;fill-rule:nonzero;stroke:none"
         d="m 134.047,1243.85 1.664,0.93 c 3.867,-7.35 6.637,-13.87 8.301,-19.53 1.332,-4.42 2.004,-8.88 2.004,-13.39 0,-10.5 -2.438,-19.9 -7.286,-28.16 -5.984,-10.18 -15.632,-20.1 -28.953,-29.74 l -1.164,1.52 c 6.016,4.48 10.934,9.48 14.731,14.98 4.769,6.9 8.652,15.25 11.687,25.04 3.016,9.77 4.531,18.66 4.531,26.68 0,6.12 -1.835,13.34 -5.515,21.67" /></g></g></svg>