<?xml version="1.0" encoding="UTF-8" standalone="no"?>
<svg
   xmlns:dc="http://purl.org/dc/elements/1.1/"
   xmlns:cc="http://creativecommons.org/ns#"
   xmlns:rdf="http://www.w3.org/1999/02/22-rdf-syntax-ns#"
   xmlns:svg="http://www.w3.org/2000/svg"
   xmlns="http://www.w3.org/2000/svg"
   viewBox="0 0 413.13333 120.34667"
   height="120.34667"
   width="413.13333"
   xml:space="preserve"
   id="svg2"
   version="1.1"><metadata
     id="metadata8"><rdf:RDF><cc:Work
         rdf:about=""><dc:format>image/svg+xml</dc:format><dc:type
           rdf:resource="http://purl.org/dc/dcmitype/StillImage" /></cc:Work></rdf:RDF></metadata><defs
     id="defs6" /><g
     transform="matrix(1.3333333,0,0,-1.3333333,0,120.34667)"
     id="g10"><g
       transform="scale(0.1)"
       id="g12"><path
         id="path14"
         style="fill:none;stroke:#000000;stroke-width:5.19999981;stroke-linecap:round;stroke-linejoin:miter;stroke-miterlimit:10;stroke-dasharray:none;stroke-opacity:1"
         d="m 164.59,380.281 c 462.922,1.137 462.922,1.137 462.922,1.137" /><path
         id="path16"
         style="fill:#000000;fill-opacity:1;fill-rule:evenodd;stroke:none"
         d="m 606.711,381.363 -10.375,-10.422 36.375,10.489 -36.426,10.308 10.426,-10.375" /><path
         id="path18"
         style="fill:none;stroke:#000000;stroke-width:2.5999999;stroke-linecap:butt;stroke-linejoin:miter;stroke-miterlimit:10;stroke-dasharray:none;stroke-opacity:1"
         d="m 606.711,381.363 -10.375,-10.422 36.375,10.489 -36.426,10.308 z" /><path
         id="path20"
         style="fill:none;stroke:#000000;stroke-width:4;stroke-linecap:butt;stroke-linejoin:miter;stroke-miterlimit:10;stroke-dasharray:none;stroke-opacity:1"
         d="m 442.043,401.82 c 1.992,-49.511 1.992,-49.511 1.992,-49.511" /><path
         id="path22"
         style="fill:none;stroke:#000000;stroke-width:4;stroke-linecap:butt;stroke-linejoin:miter;stroke-miterlimit:10;stroke-dasharray:none;stroke-opacity:1"
         d="m 342.844,451.828 c 56.801,-0.16 56.801,-0.16 56.801,-0.16" /><path
         id="path24"
         style="fill:#000000;fill-opacity:1;fill-rule:evenodd;stroke:none"
         d="m 433.23,301.387 16.114,7.859 h 1.609 V 253.34 c 0,-3.711 0.156,-6.024 0.465,-6.934 0.309,-0.914 0.953,-1.613 1.93,-2.101 0.976,-0.489 2.961,-0.766 5.957,-0.828 v -1.809 h -24.903 v 1.809 c 3.125,0.062 5.141,0.332 6.055,0.804 0.91,0.473 1.543,1.106 1.902,1.907 0.36,0.796 0.539,3.179 0.539,7.152 v 35.742 c 0,4.816 -0.164,7.91 -0.488,9.277 -0.23,1.039 -0.644,1.805 -1.246,2.293 -0.602,0.489 -1.328,0.735 -2.172,0.735 -1.207,0 -2.883,-0.504 -5.031,-1.516 l -0.731,1.516" /><path
         id="path26"
         style="fill:#000000;fill-opacity:1;fill-rule:evenodd;stroke:none"
         d="m 322.777,331.238 c 0,7.555 1.141,14.055 3.418,19.508 2.278,5.453 5.305,9.512 9.082,12.184 2.93,2.113 5.957,3.172 9.082,3.172 5.079,0 9.637,-2.586 13.672,-7.762 5.047,-6.414 7.571,-15.106 7.571,-26.074 0,-7.684 -1.11,-14.211 -3.321,-19.582 -2.215,-5.372 -5.039,-9.27 -8.472,-11.696 -3.434,-2.422 -6.747,-3.636 -9.938,-3.636 -6.316,0 -11.57,3.726 -15.769,11.183 -3.551,6.281 -5.325,13.852 -5.325,22.703 z m 9.571,-1.218 c 0,-9.118 1.125,-16.555 3.371,-22.317 1.855,-4.848 4.621,-7.273 8.301,-7.273 1.757,0 3.578,0.789 5.468,2.367 1.887,1.578 3.321,4.223 4.297,7.933 1.496,5.602 2.246,13.493 2.246,23.684 0,7.551 -0.781,13.852 -2.343,18.895 -1.172,3.746 -2.688,6.398 -4.543,7.961 -1.336,1.074 -2.946,1.609 -4.833,1.609 -2.214,0 -4.183,-0.992 -5.91,-2.977 -2.343,-2.703 -3.937,-6.949 -4.785,-12.746 -0.847,-5.793 -1.269,-11.508 -1.269,-17.136 v 0" /><path
         id="path28"
         style="fill:none;stroke:#000000;stroke-width:5.19999981;stroke-linecap:round;stroke-linejoin:miter;stroke-miterlimit:10;stroke-dasharray:none;stroke-opacity:1"
         d="m 372.574,101.395 c -0.863,721.707 -0.863,721.707 -0.863,721.707" /><path
         id="path30"
         style="fill:#000000;fill-opacity:1;fill-rule:evenodd;stroke:none"
         d="m 371.734,802.301 10.414,-10.387 -10.445,36.387 -10.355,-36.414 10.386,10.414" /><path
         id="path32"
         style="fill:none;stroke:#000000;stroke-width:2.5999999;stroke-linecap:butt;stroke-linejoin:miter;stroke-miterlimit:10;stroke-dasharray:none;stroke-opacity:1"
         d="m 371.734,802.301 10.414,-10.387 -10.445,36.387 -10.355,-36.414 z" /><path
         id="path34"
         style="fill:#000000;fill-opacity:1;fill-rule:evenodd;stroke:none"
         d="m 609.164,354.883 c 1.594,-1.692 2.801,-3.383 3.613,-5.078 0.586,-1.172 1.547,-4.246 2.879,-9.227 l 4.297,6.445 c 1.141,1.563 2.524,3.051 4.152,4.469 1.629,1.414 3.059,2.383 4.297,2.903 0.782,0.328 1.645,0.488 2.586,0.488 1.403,0 2.516,-0.375 3.348,-1.121 0.828,-0.75 1.242,-1.66 1.242,-2.735 0,-1.238 -0.242,-2.086 -0.73,-2.539 -0.91,-0.816 -1.953,-1.222 -3.125,-1.222 -0.684,0 -1.418,0.148 -2.2,0.441 -1.527,0.52 -2.554,0.781 -3.074,0.781 -0.781,0 -1.711,-0.457 -2.785,-1.367 -2.016,-1.695 -4.426,-4.965 -7.226,-9.816 l 4.003,-16.797 c 0.621,-2.57 1.141,-4.11 1.563,-4.613 0.426,-0.504 0.848,-0.758 1.269,-0.758 0.684,0 1.485,0.375 2.395,1.125 1.789,1.496 3.32,3.449 4.59,5.859 l 1.707,-0.879 c -2.051,-3.844 -4.653,-7.031 -7.813,-9.57 -1.789,-1.434 -3.3,-2.149 -4.539,-2.149 -1.824,0 -3.273,1.024 -4.347,3.075 -0.684,1.269 -2.098,6.738 -4.246,16.406 -5.079,-8.82 -9.149,-14.5 -12.208,-17.039 -1.984,-1.629 -3.906,-2.442 -5.761,-2.442 -1.301,0 -2.492,0.473 -3.567,1.415 -0.781,0.718 -1.172,1.675 -1.172,2.882 0,1.075 0.36,1.969 1.075,2.684 0.718,0.719 1.597,1.074 2.636,1.074 1.043,0 2.149,-0.519 3.321,-1.562 0.847,-0.746 1.5,-1.121 1.953,-1.121 0.391,0 0.898,0.257 1.515,0.781 1.532,1.234 3.614,3.906 6.25,8.008 2.637,4.101 4.364,7.062 5.176,8.886 -2.019,7.91 -3.109,12.094 -3.273,12.547 -0.746,2.117 -1.723,3.613 -2.93,4.492 -1.203,0.879 -2.976,1.321 -5.32,1.321 -0.75,0 -1.613,-0.035 -2.59,-0.098 v 1.758 l 13.039,2.293" /><path
         id="path36"
         style="fill:#000000;fill-opacity:1;fill-rule:evenodd;stroke:none"
         d="m 316.395,824.535 c 1.109,-1.887 1.875,-3.652 2.296,-5.297 0.422,-1.644 0.848,-4.875 1.27,-9.691 l 2.148,-24.024 c 1.953,2.344 4.786,6.055 8.496,11.133 1.79,2.473 4.004,5.844 6.641,10.106 1.594,2.605 2.57,4.429 2.93,5.468 0.195,0.524 0.293,1.059 0.293,1.614 0,0.359 -0.114,0.652 -0.344,0.879 -0.227,0.226 -0.82,0.496 -1.781,0.804 -0.961,0.309 -1.758,0.879 -2.391,1.711 -0.637,0.828 -0.953,1.782 -0.953,2.856 0,1.336 0.391,2.41 1.172,3.222 0.781,0.813 1.758,1.219 2.93,1.219 1.433,0 2.652,-0.594 3.664,-1.781 1.007,-1.188 1.511,-2.824 1.511,-4.906 0,-2.571 -0.879,-5.508 -2.636,-8.813 -1.758,-3.305 -5.145,-8.375 -10.157,-15.211 -5.011,-6.836 -11.086,-14.289 -18.214,-22.363 -4.915,-5.566 -8.559,-9.074 -10.938,-10.523 -2.375,-1.45 -4.41,-2.172 -6.102,-2.172 -1.007,0 -1.894,0.382 -2.66,1.148 -0.765,0.766 -1.148,1.652 -1.148,2.66 0,1.27 0.527,2.426 1.586,3.465 1.058,1.043 2.207,1.563 3.441,1.563 0.653,0 1.192,-0.145 1.613,-0.438 0.262,-0.164 0.547,-0.625 0.856,-1.391 0.309,-0.765 0.594,-1.277 0.852,-1.539 0.164,-0.164 0.359,-0.246 0.585,-0.246 0.196,0 0.54,0.164 1.028,0.489 1.789,1.109 3.875,2.867 6.25,5.273 3.125,3.191 5.437,5.797 6.933,7.812 l -2.734,30.958 c -0.457,5.113 -1.141,8.222 -2.051,9.328 -0.91,1.105 -2.441,1.66 -4.59,1.66 -0.683,0 -1.906,-0.098 -3.664,-0.293 l -0.437,1.805 14.305,3.515" /><path
         id="path38"
         style="fill:none;stroke:#000000;stroke-width:4;stroke-linecap:butt;stroke-linejoin:miter;stroke-miterlimit:10;stroke-dasharray:none;stroke-opacity:1"
         d="m 290.094,402.801 c 1.992,-49.512 1.992,-49.512 1.992,-49.512" /><path
         id="path40"
         style="fill:none;stroke:#000000;stroke-width:4;stroke-linecap:butt;stroke-linejoin:miter;stroke-miterlimit:10;stroke-dasharray:none;stroke-opacity:1"
         d="m 342.844,291.828 c 56.801,-0.16 56.801,-0.16 56.801,-0.16" /><path
         id="path42"
         style="fill:#000000;fill-opacity:1;fill-rule:evenodd;stroke:none"
         d="m 312.148,473.574 16.114,7.864 h 1.613 v -55.911 c 0,-3.711 0.152,-6.019 0.465,-6.933 0.308,-0.91 0.949,-1.61 1.926,-2.098 0.976,-0.488 2.964,-0.766 5.957,-0.832 v -1.805 H 313.32 v 1.805 c 3.125,0.066 5.145,0.336 6.055,0.809 0.914,0.468 1.547,1.105 1.906,1.902 0.36,0.797 0.535,3.184 0.535,7.152 v 35.743 c 0,4.82 -0.16,7.91 -0.488,9.277 -0.226,1.043 -0.64,1.808 -1.242,2.297 -0.606,0.488 -1.328,0.73 -2.176,0.73 -1.203,0 -2.879,-0.504 -5.027,-1.512 l -0.735,1.512" /><path
         id="path44"
         style="fill:none;stroke:#000000;stroke-width:8;stroke-linecap:round;stroke-linejoin:round;stroke-miterlimit:10;stroke-dasharray:none;stroke-opacity:1"
         d="M 193.711,727.613 C 220.008,408.98 370.043,385.777 370.043,385.777" /><path
         id="path46"
         style="fill:none;stroke:#000000;stroke-width:8;stroke-linecap:round;stroke-linejoin:round;stroke-miterlimit:10;stroke-dasharray:none;stroke-opacity:1"
         d="M 532.453,736.117 C 512.398,512.348 446.965,431.914 407.426,403.398 c -18.403,-13.273 -31.196,-15.3 -31.196,-15.3" /><path
         id="path48"
         style="fill:none;stroke:#000000;stroke-width:5.19999981;stroke-linecap:round;stroke-linejoin:miter;stroke-miterlimit:10;stroke-dasharray:none;stroke-opacity:1"
         d="m 916.316,380.281 c 483.544,1.137 483.544,1.137 483.544,1.137" /><path
         id="path50"
         style="fill:#000000;fill-opacity:1;fill-rule:evenodd;stroke:none"
         d="m 1379.06,381.367 -10.38,-10.426 36.38,10.489 -36.42,10.312 10.42,-10.375" /><path
         id="path52"
         style="fill:none;stroke:#000000;stroke-width:2.5999999;stroke-linecap:butt;stroke-linejoin:miter;stroke-miterlimit:10;stroke-dasharray:none;stroke-opacity:1"
         d="m 1379.06,381.367 -10.38,-10.426 36.38,10.489 -36.42,10.312 z" /><path
         id="path54"
         style="fill:none;stroke:#000000;stroke-width:4;stroke-linecap:butt;stroke-linejoin:miter;stroke-miterlimit:10;stroke-dasharray:none;stroke-opacity:1"
         d="m 1176.89,405.742 c 1.99,-49.512 1.99,-49.512 1.99,-49.512" /><path
         id="path56"
         style="fill:none;stroke:#000000;stroke-width:4;stroke-linecap:butt;stroke-linejoin:miter;stroke-miterlimit:10;stroke-dasharray:none;stroke-opacity:1"
         d="m 1077.69,451.828 c 56.8,-0.16 56.8,-0.16 56.8,-0.16" /><path
         id="path58"
         style="fill:none;stroke:#000000;stroke-width:4;stroke-linecap:butt;stroke-linejoin:miter;stroke-miterlimit:10;stroke-dasharray:none;stroke-opacity:1"
         d="m 1254.87,403.562 c 1.99,-49.96 1.99,-49.96 1.99,-49.96" /><path
         id="path60"
         style="fill:#000000;fill-opacity:1;fill-rule:evenodd;stroke:none"
         d="m 1168.07,295.242 16.11,7.863 h 1.62 v -55.91 c 0,-3.711 0.15,-6.019 0.46,-6.933 0.31,-0.91 0.95,-1.61 1.93,-2.098 0.97,-0.488 2.96,-0.766 5.95,-0.832 v -1.805 h -24.9 v 1.805 c 3.13,0.066 5.15,0.336 6.06,0.805 0.91,0.472 1.54,1.109 1.9,1.906 0.36,0.797 0.54,3.184 0.54,7.152 v 35.743 c 0,4.82 -0.16,7.91 -0.49,9.277 -0.23,1.043 -0.64,1.808 -1.25,2.297 -0.6,0.488 -1.32,0.73 -2.17,0.73 -1.2,0 -2.88,-0.504 -5.03,-1.512 l -0.73,1.512" /><path
         id="path62"
         style="fill:#000000;fill-opacity:1;fill-rule:evenodd;stroke:none"
         d="m 1039.51,337.172 c 0,7.551 1.13,14.055 3.42,19.508 2.27,5.453 5.3,9.511 9.08,12.179 2.93,2.118 5.95,3.176 9.08,3.176 5.08,0 9.63,-2.59 13.67,-7.765 5.04,-6.411 7.57,-15.102 7.57,-26.075 0,-7.679 -1.11,-14.207 -3.32,-19.578 -2.21,-5.371 -5.04,-9.269 -8.47,-11.695 -3.44,-2.426 -6.75,-3.637 -9.94,-3.637 -6.31,0 -11.57,3.727 -15.77,11.18 -3.55,6.285 -5.32,13.851 -5.32,22.707 z m 9.57,-1.223 c 0,-9.113 1.12,-16.551 3.37,-22.312 1.85,-4.852 4.62,-7.278 8.3,-7.278 1.75,0 3.58,0.793 5.46,2.371 1.9,1.579 3.33,4.223 4.3,7.934 1.5,5.598 2.25,13.492 2.25,23.68 0,7.554 -0.78,13.851 -2.35,18.898 -1.17,3.742 -2.68,6.395 -4.53,7.957 -1.34,1.074 -2.95,1.613 -4.84,1.613 -2.21,0 -4.18,-0.992 -5.91,-2.98 -2.34,-2.699 -3.94,-6.949 -4.78,-12.742 -0.85,-5.793 -1.27,-11.508 -1.27,-17.141 v 0" /><path
         id="path64"
         style="fill:none;stroke:#000000;stroke-width:5.19999981;stroke-linecap:round;stroke-linejoin:miter;stroke-miterlimit:10;stroke-dasharray:none;stroke-opacity:1"
         d="M 1107.42,4.26953 C 1106.55,816.523 1106.55,816.523 1106.55,816.523" /><path
         id="path66"
         style="fill:#000000;fill-opacity:1;fill-rule:evenodd;stroke:none"
         d="m 1106.57,795.723 10.41,-10.391 -10.43,36.391 -10.36,-36.411 10.38,10.411" /><path
         id="path68"
         style="fill:none;stroke:#000000;stroke-width:2.5999999;stroke-linecap:butt;stroke-linejoin:miter;stroke-miterlimit:10;stroke-dasharray:none;stroke-opacity:1"
         d="m 1106.57,795.723 10.41,-10.391 -10.43,36.391 -10.36,-36.411 z" /><path
         id="path70"
         style="fill:#000000;fill-opacity:1;fill-rule:evenodd;stroke:none"
         d="m 1380.09,447.566 c 1.59,-1.691 2.8,-3.382 3.61,-5.078 0.59,-1.172 1.55,-4.246 2.88,-9.226 l 4.3,6.445 c 1.14,1.563 2.52,3.051 4.15,4.469 1.63,1.414 3.06,2.383 4.29,2.902 0.79,0.328 1.65,0.488 2.59,0.488 1.4,0 2.52,-0.375 3.35,-1.121 0.83,-0.75 1.24,-1.66 1.24,-2.734 0,-1.238 -0.24,-2.086 -0.73,-2.539 -0.91,-0.817 -1.95,-1.223 -3.13,-1.223 -0.68,0 -1.41,0.149 -2.19,0.442 -1.53,0.519 -2.56,0.781 -3.08,0.781 -0.78,0 -1.71,-0.457 -2.78,-1.367 -2.02,-1.696 -4.43,-4.965 -7.23,-9.817 l 4,-16.797 c 0.62,-2.57 1.14,-4.109 1.57,-4.613 0.42,-0.504 0.84,-0.758 1.27,-0.758 0.68,0 1.48,0.375 2.39,1.125 1.79,1.496 3.32,3.45 4.59,5.86 l 1.71,-0.879 c -2.05,-3.844 -4.66,-7.031 -7.82,-9.571 -1.78,-1.433 -3.3,-2.148 -4.53,-2.148 -1.83,0 -3.28,1.023 -4.35,3.074 -0.69,1.27 -2.1,6.739 -4.25,16.407 -5.08,-8.821 -9.15,-14.5 -12.21,-17.04 -1.98,-1.628 -3.9,-2.441 -5.76,-2.441 -1.3,0 -2.49,0.473 -3.56,1.414 -0.79,0.719 -1.18,1.68 -1.18,2.883 0,1.074 0.36,1.969 1.08,2.684 0.72,0.718 1.6,1.074 2.64,1.074 1.04,0 2.14,-0.52 3.32,-1.563 0.84,-0.746 1.5,-1.121 1.95,-1.121 0.39,0 0.9,0.258 1.51,0.781 1.54,1.235 3.62,3.907 6.25,8.008 2.64,4.102 4.37,7.063 5.18,8.887 -2.02,7.91 -3.11,12.094 -3.27,12.547 -0.75,2.117 -1.73,3.613 -2.93,4.492 -1.21,0.879 -2.98,1.32 -5.32,1.32 -0.75,0 -1.62,-0.035 -2.59,-0.097 v 1.757 l 13.04,2.293" /><path
         id="path72"
         style="fill:#000000;fill-opacity:1;fill-rule:evenodd;stroke:none"
         d="m 1061.3,820.406 c 1.11,-1.886 1.87,-3.652 2.3,-5.297 0.42,-1.644 0.84,-4.875 1.27,-9.691 l 2.15,-24.023 c 1.95,2.343 4.78,6.054 8.49,11.132 1.79,2.473 4.01,5.84 6.64,10.106 1.6,2.605 2.57,4.426 2.93,5.469 0.2,0.519 0.3,1.058 0.3,1.613 0,0.355 -0.12,0.648 -0.35,0.879 -0.23,0.226 -0.82,0.496 -1.78,0.804 -0.96,0.309 -1.76,0.879 -2.39,1.707 -0.64,0.833 -0.95,1.786 -0.95,2.86 0,1.332 0.39,2.406 1.17,3.223 0.78,0.812 1.76,1.218 2.93,1.218 1.43,0 2.65,-0.594 3.66,-1.781 1.01,-1.187 1.51,-2.824 1.51,-4.906 0,-2.574 -0.88,-5.512 -2.63,-8.817 -1.76,-3.3 -5.15,-8.371 -10.16,-15.207 -5.01,-6.836 -11.09,-14.293 -18.21,-22.363 -4.92,-5.566 -8.56,-9.074 -10.94,-10.523 -2.38,-1.45 -4.41,-2.172 -6.1,-2.172 -1.02,0 -1.9,0.383 -2.66,1.144 -0.77,0.766 -1.15,1.653 -1.15,2.664 0,1.27 0.53,2.422 1.58,3.465 1.06,1.043 2.21,1.563 3.45,1.563 0.65,0 1.18,-0.145 1.61,-0.438 0.26,-0.164 0.54,-0.629 0.85,-1.394 0.31,-0.766 0.6,-1.278 0.86,-1.536 0.16,-0.164 0.36,-0.246 0.58,-0.246 0.2,0 0.54,0.164 1.03,0.489 1.79,1.105 3.87,2.863 6.25,5.273 3.12,3.191 5.43,5.793 6.93,7.813 l -2.73,30.957 c -0.46,5.109 -1.14,8.218 -2.05,9.328 -0.92,1.105 -2.44,1.66 -4.59,1.66 -0.69,0 -1.91,-0.098 -3.67,-0.293 l -0.43,1.805 14.3,3.515" /><path
         id="path74"
         style="fill:none;stroke:#000000;stroke-width:4;stroke-linecap:butt;stroke-linejoin:miter;stroke-miterlimit:10;stroke-dasharray:none;stroke-opacity:1"
         d="m 1035,404.707 c 1.99,-49.512 1.99,-49.512 1.99,-49.512" /><path
         id="path76"
         style="fill:none;stroke:#000000;stroke-width:4;stroke-linecap:butt;stroke-linejoin:miter;stroke-miterlimit:10;stroke-dasharray:none;stroke-opacity:1"
         d="m 1079.7,301.785 c 56.8,-0.156 56.8,-0.156 56.8,-0.156" /><path
         id="path78"
         style="fill:#000000;fill-opacity:1;fill-rule:evenodd;stroke:none"
         d="m 1046.99,467.434 16.12,7.859 h 1.61 v -55.906 c 0,-3.711 0.15,-6.024 0.46,-6.934 0.31,-0.914 0.95,-1.613 1.93,-2.101 0.98,-0.489 2.96,-0.766 5.96,-0.829 v -1.808 h -24.91 v 1.808 c 3.13,0.063 5.15,0.332 6.06,0.805 0.91,0.473 1.55,1.106 1.9,1.902 0.36,0.801 0.54,3.184 0.54,7.157 v 35.742 c 0,4.816 -0.16,7.91 -0.49,9.277 -0.22,1.039 -0.64,1.805 -1.24,2.293 -0.61,0.489 -1.33,0.735 -2.18,0.735 -1.2,0 -2.87,-0.504 -5.02,-1.516 l -0.74,1.516" /><path
         id="path80"
         style="fill:none;stroke:#000000;stroke-width:4;stroke-linecap:butt;stroke-linejoin:miter;stroke-miterlimit:10;stroke-dasharray:none;stroke-opacity:1"
         d="m 1079.52,531.828 c 56.8,-0.16 56.8,-0.16 56.8,-0.16" /><path
         id="path82"
         style="fill:none;stroke:#000000;stroke-width:4;stroke-linecap:butt;stroke-linejoin:miter;stroke-miterlimit:10;stroke-dasharray:none;stroke-opacity:1"
         d="m 1081.53,611.828 c 56.8,-0.16 56.8,-0.16 56.8,-0.16" /><path
         id="path84"
         style="fill:none;stroke:#000000;stroke-width:8;stroke-linecap:round;stroke-linejoin:round;stroke-miterlimit:10;stroke-dasharray:none;stroke-opacity:1"
         d="M 1019.36,802.023 C 1349.43,51.332 1349.43,51.332 1349.43,51.332" /><path
         id="path86"
         style="fill:#000000;fill-opacity:1;fill-rule:evenodd;stroke:none"
         d="m 0,893.941 16.1133,7.864 h 1.6133 v -55.91 c -0.0039,-3.711 0.1523,-6.024 0.4609,-6.934 0.3086,-0.91 0.9531,-1.609 1.9297,-2.098 0.9766,-0.488 2.9609,-0.765 5.957,-0.832 v -1.804 H 1.17188 v 1.804 c 3.125,0.067 5.14453,0.336 6.05468,0.805 0.91016,0.473 1.54688,1.109 1.90625,1.906 0.35547,0.797 0.53516,3.18 0.53516,7.153 v 35.742 c 0,4.816 -0.16406,7.91 -0.48828,9.277 -0.22657,1.043 -0.64453,1.809 -1.2461,2.297 -0.60156,0.488 -1.32421,0.73 -2.17187,0.73 -1.20313,0 -2.87891,-0.503 -5.027345,-1.511 L 0,893.941" /><path
         id="path88"
         style="fill:#000000;fill-opacity:1;fill-rule:evenodd;stroke:none"
         d="m 40.5273,901.609 v 2.051 c 4.9493,-2.441 9.0665,-5.324 12.3555,-8.644 4.6524,-4.754 8.25,-10.328 10.7891,-16.723 2.539,-6.398 3.8086,-13.063 3.8086,-19.996 0,-10.09 -2.4805,-19.293 -7.4453,-27.613 -4.9649,-8.317 -11.4688,-14.266 -19.5079,-17.844 v 1.805 c 4.0039,2.246 7.3008,5.281 9.8868,9.105 2.5898,3.828 4.5078,8.691 5.7617,14.602 1.2539,5.906 1.8828,12.066 1.8828,18.48 0,6.934 -0.5391,13.266 -1.6133,18.996 -0.8125,4.492 -1.832,8.086 -3.0508,10.789 -1.2226,2.703 -2.8398,5.305 -4.8593,7.813 -2.0196,2.508 -4.6875,4.898 -8.0079,7.179 v 0" /><path
         id="path90"
         style="fill:#000000;fill-opacity:1;fill-rule:evenodd;stroke:none"
         d="m 872.258,846.969 -4.641,-12.746 h -39.062 v 1.808 c 11.492,10.481 19.582,19.043 24.269,25.684 4.688,6.64 7.031,12.711 7.031,18.211 0,4.199 -1.285,7.652 -3.859,10.351 -2.57,2.703 -5.644,4.055 -9.226,4.055 -3.254,0 -6.176,-0.953 -8.766,-2.859 -2.586,-1.903 -4.5,-4.696 -5.738,-8.371 h -1.805 c 0.812,6.019 2.906,10.644 6.273,13.867 3.371,3.222 7.578,4.832 12.625,4.832 5.371,0 9.852,-1.723 13.45,-5.176 3.597,-3.449 5.394,-7.52 5.394,-12.207 0,-3.352 -0.781,-6.703 -2.34,-10.059 -2.41,-5.273 -6.316,-10.855 -11.722,-16.746 -8.106,-8.855 -13.164,-14.195 -15.184,-16.015 h 17.285 c 3.516,0 5.981,0.129 7.399,0.39 1.414,0.258 2.691,0.789 3.832,1.586 1.14,0.797 2.132,1.93 2.98,3.395 h 1.805" /><path
         id="path92"
         style="fill:#000000;fill-opacity:1;fill-rule:evenodd;stroke:none"
         d="m 878.652,901.605 v 2.051 c 4.95,-2.441 9.067,-5.32 12.356,-8.64 4.656,-4.754 8.25,-10.328 10.793,-16.727 2.535,-6.394 3.804,-13.059 3.804,-19.992 0,-10.094 -2.48,-19.297 -7.445,-27.613 -4.965,-8.317 -11.465,-14.266 -19.508,-17.848 v 1.809 c 4.008,2.246 7.301,5.281 9.891,9.105 2.586,3.824 4.508,8.691 5.762,14.598 1.254,5.91 1.879,12.07 1.879,18.484 0,6.934 -0.536,13.266 -1.61,18.992 -0.816,4.492 -1.832,8.09 -3.054,10.793 -1.219,2.699 -2.84,5.305 -4.86,7.813 -2.015,2.504 -4.683,4.898 -8.008,7.175 v 0" /><path
         id="path94"
         style="fill:none;stroke:#000000;stroke-width:5.19999981;stroke-linecap:round;stroke-linejoin:miter;stroke-miterlimit:10;stroke-dasharray:none;stroke-opacity:1"
         d="m 1646.07,379.715 c 475.12,1.133 475.12,1.133 475.12,1.133" /><path
         id="path96"
         style="fill:#000000;fill-opacity:1;fill-rule:evenodd;stroke:none"
         d="m 2100.39,380.801 -10.37,-10.426 36.37,10.488 -36.43,10.313 10.43,-10.375" /><path
         id="path98"
         style="fill:none;stroke:#000000;stroke-width:2.5999999;stroke-linecap:butt;stroke-linejoin:miter;stroke-miterlimit:10;stroke-dasharray:none;stroke-opacity:1"
         d="m 2100.39,380.801 -10.37,-10.426 36.37,10.488 -36.43,10.313 z" /><path
         id="path100"
         style="fill:none;stroke:#000000;stroke-width:4;stroke-linecap:butt;stroke-linejoin:miter;stroke-miterlimit:10;stroke-dasharray:none;stroke-opacity:1"
         d="m 1927.96,401.254 c 1.99,-49.512 1.99,-49.512 1.99,-49.512" /><path
         id="path102"
         style="fill:none;stroke:#000000;stroke-width:4;stroke-linecap:butt;stroke-linejoin:miter;stroke-miterlimit:10;stroke-dasharray:none;stroke-opacity:1"
         d="m 1828.76,451.262 c 56.8,-0.16 56.8,-0.16 56.8,-0.16" /><path
         id="path104"
         style="fill:#000000;fill-opacity:1;fill-rule:evenodd;stroke:none"
         d="m 1919.14,300.82 16.11,7.86 h 1.62 v -55.907 c 0,-3.711 0.15,-6.023 0.46,-6.933 0.31,-0.914 0.95,-1.613 1.93,-2.102 0.97,-0.488 2.96,-0.765 5.95,-0.828 v -1.808 h -24.9 v 1.808 c 3.13,0.063 5.15,0.332 6.06,0.805 0.91,0.473 1.54,1.105 1.9,1.902 0.36,0.801 0.54,3.184 0.54,7.156 v 35.743 c 0,4.816 -0.17,7.91 -0.49,9.277 -0.23,1.039 -0.64,1.805 -1.25,2.293 -0.6,0.488 -1.32,0.734 -2.17,0.734 -1.2,0 -2.88,-0.508 -5.02,-1.515 l -0.74,1.515" /><path
         id="path106"
         style="fill:#000000;fill-opacity:1;fill-rule:evenodd;stroke:none"
         d="m 1808.69,330.672 c 0,7.551 1.14,14.055 3.42,19.508 2.28,5.453 5.3,9.511 9.08,12.183 2.93,2.114 5.96,3.172 9.08,3.172 5.08,0 9.64,-2.586 13.68,-7.762 5.04,-6.414 7.56,-15.105 7.56,-26.074 0,-7.683 -1.1,-14.211 -3.32,-19.582 -2.21,-5.371 -5.04,-9.269 -8.47,-11.695 -3.43,-2.422 -6.75,-3.637 -9.93,-3.637 -6.32,0 -11.58,3.727 -15.78,11.184 -3.55,6.281 -5.32,13.847 -5.32,22.703 z m 9.57,-1.219 c 0,-9.117 1.12,-16.555 3.37,-22.316 1.85,-4.848 4.62,-7.274 8.3,-7.274 1.76,0 3.58,0.789 5.47,2.367 1.89,1.579 3.32,4.223 4.3,7.934 1.49,5.602 2.24,13.492 2.24,23.684 0,7.55 -0.78,13.847 -2.34,18.894 -1.17,3.742 -2.69,6.399 -4.54,7.961 -1.34,1.074 -2.95,1.609 -4.84,1.609 -2.21,0 -4.18,-0.992 -5.9,-2.976 -2.35,-2.703 -3.94,-6.949 -4.79,-12.746 -0.85,-5.793 -1.27,-11.508 -1.27,-17.137 v 0" /><path
         id="path108"
         style="fill:none;stroke:#000000;stroke-width:5.19999981;stroke-linecap:round;stroke-linejoin:miter;stroke-miterlimit:10;stroke-dasharray:none;stroke-opacity:1"
         d="M 1858.49,9.84375 C 1857.62,822.098 1857.62,822.098 1857.62,822.098" /><path
         id="path110"
         style="fill:#000000;fill-opacity:1;fill-rule:evenodd;stroke:none"
         d="m 1857.64,801.297 10.42,-10.387 -10.44,36.387 -10.36,-36.41 10.38,10.41" /><path
         id="path112"
         style="fill:none;stroke:#000000;stroke-width:2.5999999;stroke-linecap:butt;stroke-linejoin:miter;stroke-miterlimit:10;stroke-dasharray:none;stroke-opacity:1"
         d="m 1857.64,801.297 10.42,-10.387 -10.44,36.387 -10.36,-36.41 z" /><path
         id="path114"
         style="fill:#000000;fill-opacity:1;fill-rule:evenodd;stroke:none"
         d="m 2087.23,450.008 c 1.6,-1.696 2.8,-3.387 3.61,-5.078 0.59,-1.172 1.55,-4.25 2.89,-9.231 l 4.29,6.446 c 1.14,1.562 2.53,3.05 4.15,4.468 1.63,1.414 3.06,2.383 4.3,2.907 0.78,0.324 1.64,0.488 2.59,0.488 1.4,0 2.51,-0.375 3.34,-1.125 0.83,-0.75 1.25,-1.66 1.25,-2.735 0,-1.234 -0.25,-2.082 -0.74,-2.539 -0.91,-0.812 -1.95,-1.218 -3.12,-1.218 -0.68,0 -1.41,0.144 -2.2,0.437 -1.53,0.524 -2.55,0.781 -3.07,0.781 -0.79,0 -1.71,-0.453 -2.79,-1.367 -2.02,-1.691 -4.42,-4.965 -7.22,-9.812 l 4,-16.797 c 0.62,-2.574 1.14,-4.11 1.56,-4.617 0.43,-0.504 0.85,-0.754 1.27,-0.754 0.69,0 1.48,0.375 2.39,1.121 1.8,1.496 3.32,3.453 4.6,5.859 l 1.71,-0.879 c -2.06,-3.84 -4.66,-7.031 -7.82,-9.57 -1.79,-1.43 -3.3,-2.148 -4.54,-2.148 -1.82,0 -3.27,1.027 -4.34,3.078 -0.69,1.269 -2.11,6.738 -4.25,16.406 -5.08,-8.824 -9.15,-14.504 -12.21,-17.043 -1.99,-1.629 -3.91,-2.441 -5.76,-2.441 -1.3,0 -2.49,0.472 -3.57,1.417 -0.78,0.715 -1.17,1.676 -1.17,2.879 0,1.075 0.36,1.969 1.08,2.688 0.71,0.715 1.59,1.074 2.63,1.074 1.05,0 2.15,-0.523 3.32,-1.562 0.85,-0.75 1.5,-1.125 1.96,-1.125 0.39,0 0.89,0.261 1.51,0.781 1.53,1.238 3.61,3.906 6.25,8.008 2.64,4.101 4.36,7.062 5.17,8.886 -2.01,7.911 -3.1,12.094 -3.26,12.551 -0.75,2.113 -1.73,3.613 -2.93,4.492 -1.21,0.879 -2.99,1.317 -5.33,1.317 -0.74,0 -1.61,-0.031 -2.58,-0.098 v 1.758 l 13.03,2.297" /><path
         id="path116"
         style="fill:#000000;fill-opacity:1;fill-rule:evenodd;stroke:none"
         d="m 1802.31,823.969 c 1.1,-1.887 1.87,-3.653 2.29,-5.297 0.43,-1.645 0.85,-4.875 1.27,-9.692 l 2.15,-24.023 c 1.95,2.344 4.78,6.055 8.5,11.133 1.79,2.472 4,5.844 6.64,10.105 1.59,2.606 2.57,4.43 2.93,5.469 0.19,0.524 0.29,1.059 0.29,1.613 0,0.36 -0.11,0.653 -0.34,0.879 -0.23,0.227 -0.83,0.496 -1.78,0.805 -0.96,0.309 -1.76,0.879 -2.4,1.711 -0.63,0.828 -0.95,1.781 -0.95,2.855 0,1.336 0.39,2.411 1.17,3.223 0.78,0.812 1.76,1.219 2.93,1.219 1.44,0 2.65,-0.594 3.67,-1.781 1,-1.188 1.51,-2.825 1.51,-4.907 0,-2.57 -0.88,-5.511 -2.64,-8.812 -1.76,-3.305 -5.14,-8.375 -10.16,-15.211 -5.01,-6.836 -11.08,-14.289 -18.21,-22.363 -4.91,-5.567 -8.56,-9.075 -10.93,-10.524 -2.38,-1.449 -4.41,-2.172 -6.11,-2.172 -1.01,0 -1.89,0.383 -2.66,1.149 -0.77,0.761 -1.15,1.652 -1.15,2.66 0,1.269 0.53,2.426 1.59,3.465 1.06,1.043 2.2,1.562 3.44,1.562 0.66,0 1.19,-0.144 1.61,-0.437 0.26,-0.164 0.55,-0.629 0.86,-1.391 0.31,-0.766 0.59,-1.277 0.85,-1.539 0.17,-0.164 0.36,-0.246 0.59,-0.246 0.19,0 0.53,0.164 1.02,0.488 1.8,1.11 3.88,2.867 6.25,5.274 3.13,3.191 5.44,5.796 6.94,7.812 l -2.74,30.957 c -0.45,5.113 -1.13,8.223 -2.05,9.328 -0.91,1.106 -2.44,1.66 -4.59,1.66 -0.68,0 -1.9,-0.097 -3.66,-0.293 l -0.44,1.805 14.31,3.516" /><path
         id="path118"
         style="fill:none;stroke:#000000;stroke-width:4;stroke-linecap:butt;stroke-linejoin:miter;stroke-miterlimit:10;stroke-dasharray:none;stroke-opacity:1"
         d="M 1776.01,402.23 C 1778,352.723 1778,352.723 1778,352.723" /><path
         id="path120"
         style="fill:none;stroke:#000000;stroke-width:4;stroke-linecap:butt;stroke-linejoin:miter;stroke-miterlimit:10;stroke-dasharray:none;stroke-opacity:1"
         d="m 1828.76,291.262 c 56.8,-0.16 56.8,-0.16 56.8,-0.16" /><path
         id="path122"
         style="fill:#000000;fill-opacity:1;fill-rule:evenodd;stroke:none"
         d="m 1798.06,473.008 16.12,7.863 h 1.61 v -55.91 c 0,-3.711 0.15,-6.02 0.46,-6.934 0.31,-0.91 0.95,-1.609 1.93,-2.097 0.98,-0.489 2.96,-0.766 5.96,-0.832 v -1.805 h -24.91 v 1.805 c 3.13,0.066 5.15,0.336 6.06,0.808 0.91,0.469 1.55,1.106 1.9,1.903 0.36,0.796 0.54,3.183 0.54,7.152 v 35.742 c 0,4.82 -0.16,7.91 -0.49,9.277 -0.23,1.043 -0.64,1.809 -1.24,2.297 -0.61,0.489 -1.33,0.731 -2.18,0.731 -1.2,0 -2.88,-0.504 -5.03,-1.512 l -0.73,1.512" /><path
         id="path124"
         style="fill:none;stroke:#000000;stroke-width:5.19999981;stroke-linecap:round;stroke-linejoin:miter;stroke-miterlimit:10;stroke-dasharray:none;stroke-opacity:1"
         d="m 2335.4,379.715 c 753.39,1.133 753.39,1.133 753.39,1.133" /><path
         id="path126"
         style="fill:#000000;fill-opacity:1;fill-rule:evenodd;stroke:none"
         d="m 3067.98,380.816 -10.38,-10.414 36.38,10.453 -36.41,10.348 10.41,-10.387" /><path
         id="path128"
         style="fill:none;stroke:#000000;stroke-width:2.5999999;stroke-linecap:butt;stroke-linejoin:miter;stroke-miterlimit:10;stroke-dasharray:none;stroke-opacity:1"
         d="m 3067.98,380.816 -10.38,-10.414 36.38,10.453 -36.41,10.348 z" /><path
         id="path130"
         style="fill:none;stroke:#000000;stroke-width:4;stroke-linecap:butt;stroke-linejoin:miter;stroke-miterlimit:10;stroke-dasharray:none;stroke-opacity:1"
         d="m 2774.8,405.176 c 1.99,-49.512 1.99,-49.512 1.99,-49.512" /><path
         id="path132"
         style="fill:none;stroke:#000000;stroke-width:4;stroke-linecap:butt;stroke-linejoin:miter;stroke-miterlimit:10;stroke-dasharray:none;stroke-opacity:1"
         d="m 2675.6,451.262 c 56.8,-0.16 56.8,-0.16 56.8,-0.16" /><path
         id="path134"
         style="fill:none;stroke:#000000;stroke-width:4;stroke-linecap:butt;stroke-linejoin:miter;stroke-miterlimit:10;stroke-dasharray:none;stroke-opacity:1"
         d="m 2852.79,402.996 c 1.99,-49.961 1.99,-49.961 1.99,-49.961" /><path
         id="path136"
         style="fill:#000000;fill-opacity:1;fill-rule:evenodd;stroke:none"
         d="m 2765.99,294.676 16.11,7.863 h 1.61 v -55.91 c 0,-3.711 0.16,-6.024 0.47,-6.934 0.3,-0.91 0.95,-1.609 1.93,-2.097 0.97,-0.489 2.96,-0.766 5.95,-0.832 v -1.805 h -24.9 v 1.805 c 3.13,0.066 5.14,0.336 6.05,0.804 0.91,0.473 1.55,1.11 1.91,1.907 0.36,0.796 0.54,3.179 0.54,7.152 v 35.742 c 0,4.817 -0.17,7.91 -0.49,9.277 -0.23,1.043 -0.65,1.809 -1.25,2.297 -0.6,0.489 -1.32,0.731 -2.17,0.731 -1.2,0 -2.88,-0.504 -5.03,-1.512 l -0.73,1.512" /><path
         id="path138"
         style="fill:#000000;fill-opacity:1;fill-rule:evenodd;stroke:none"
         d="m 2637.43,336.605 c 0,7.551 1.13,14.055 3.41,19.508 2.28,5.449 5.31,9.512 9.08,12.18 2.93,2.117 5.96,3.176 9.08,3.176 5.08,0 9.64,-2.59 13.68,-7.766 5.04,-6.41 7.57,-15.101 7.57,-26.074 0,-7.68 -1.11,-14.207 -3.32,-19.578 -2.22,-5.371 -5.04,-9.27 -8.48,-11.696 -3.43,-2.425 -6.74,-3.636 -9.93,-3.636 -6.32,0 -11.57,3.726 -15.77,11.179 -3.55,6.286 -5.32,13.852 -5.32,22.707 z m 9.57,-1.222 c 0,-9.113 1.12,-16.551 3.36,-22.313 1.86,-4.851 4.62,-7.277 8.3,-7.277 1.76,0 3.59,0.789 5.47,2.371 1.89,1.578 3.32,4.223 4.3,7.934 1.5,5.597 2.25,13.492 2.25,23.679 0,7.555 -0.79,13.852 -2.35,18.899 -1.17,3.742 -2.69,6.394 -4.54,7.957 -1.33,1.074 -2.95,1.613 -4.83,1.613 -2.22,0 -4.19,-0.992 -5.91,-2.98 -2.35,-2.7 -3.94,-6.95 -4.79,-12.743 -0.84,-5.793 -1.26,-11.507 -1.26,-17.14 v 0" /><path
         id="path140"
         style="fill:none;stroke:#000000;stroke-width:5.19999981;stroke-linecap:round;stroke-linejoin:miter;stroke-miterlimit:10;stroke-dasharray:none;stroke-opacity:1"
         d="M 2705.33,3.70312 C 2704.47,815.957 2704.47,815.957 2704.47,815.957" /><path
         id="path142"
         style="fill:#000000;fill-opacity:1;fill-rule:evenodd;stroke:none"
         d="m 2704.49,795.156 10.41,-10.39 -10.44,36.39 -10.36,-36.41 10.39,10.41" /><path
         id="path144"
         style="fill:none;stroke:#000000;stroke-width:2.5999999;stroke-linecap:butt;stroke-linejoin:miter;stroke-miterlimit:10;stroke-dasharray:none;stroke-opacity:1"
         d="m 2704.49,795.156 10.41,-10.39 -10.44,36.39 -10.36,-36.41 z" /><path
         id="path146"
         style="fill:#000000;fill-opacity:1;fill-rule:evenodd;stroke:none"
         d="m 3072.12,343.469 c 1.6,-1.692 2.8,-3.387 3.62,-5.078 0.58,-1.172 1.54,-4.25 2.88,-9.231 l 4.29,6.445 c 1.14,1.563 2.53,3.055 4.16,4.469 1.62,1.418 3.05,2.387 4.29,2.906 0.78,0.325 1.64,0.489 2.59,0.489 1.4,0 2.51,-0.375 3.34,-1.125 0.83,-0.746 1.25,-1.66 1.25,-2.735 0,-1.234 -0.24,-2.082 -0.73,-2.539 -0.92,-0.812 -1.95,-1.218 -3.13,-1.218 -0.68,0 -1.41,0.144 -2.2,0.437 -1.53,0.523 -2.55,0.781 -3.07,0.781 -0.78,0 -1.71,-0.453 -2.79,-1.367 -2.01,-1.691 -4.42,-4.961 -7.22,-9.812 l 4,-16.797 c 0.62,-2.571 1.14,-4.11 1.56,-4.614 0.43,-0.503 0.85,-0.757 1.27,-0.757 0.69,0 1.48,0.375 2.4,1.121 1.79,1.5 3.32,3.453 4.59,5.859 l 1.71,-0.879 c -2.05,-3.84 -4.66,-7.031 -7.82,-9.57 -1.79,-1.43 -3.3,-2.149 -4.54,-2.149 -1.82,0 -3.27,1.028 -4.34,3.079 -0.69,1.269 -2.1,6.738 -4.25,16.406 -5.08,-8.82 -9.15,-14.504 -12.21,-17.043 -1.98,-1.625 -3.9,-2.442 -5.76,-2.442 -1.3,0 -2.49,0.473 -3.56,1.418 -0.79,0.715 -1.18,1.676 -1.18,2.879 0,1.075 0.36,1.973 1.08,2.688 0.71,0.715 1.59,1.074 2.63,1.074 1.05,0 2.15,-0.519 3.32,-1.562 0.85,-0.75 1.5,-1.125 1.96,-1.125 0.39,0 0.89,0.261 1.51,0.781 1.53,1.238 3.62,3.906 6.25,8.008 2.64,4.101 4.36,7.066 5.18,8.886 -2.02,7.91 -3.11,12.094 -3.27,12.551 -0.75,2.117 -1.73,3.613 -2.93,4.492 -1.21,0.879 -2.98,1.317 -5.32,1.317 -0.75,0 -1.62,-0.032 -2.59,-0.098 v 1.758 l 13.03,2.297" /><path
         id="path148"
         style="fill:#000000;fill-opacity:1;fill-rule:evenodd;stroke:none"
         d="m 2659.22,819.84 c 1.1,-1.887 1.87,-3.652 2.29,-5.297 0.43,-1.645 0.85,-4.875 1.27,-9.691 l 2.15,-24.024 c 1.95,2.344 4.78,6.055 8.5,11.133 1.79,2.473 4,5.84 6.64,10.105 1.59,2.606 2.57,4.426 2.93,5.469 0.19,0.52 0.29,1.059 0.29,1.613 0,0.356 -0.11,0.649 -0.34,0.879 -0.23,0.227 -0.82,0.496 -1.78,0.805 -0.96,0.309 -1.76,0.879 -2.4,1.707 -0.63,0.832 -0.95,1.785 -0.95,2.859 0,1.332 0.39,2.407 1.17,3.223 0.78,0.813 1.76,1.219 2.93,1.219 1.44,0 2.66,-0.594 3.67,-1.781 1,-1.188 1.51,-2.825 1.51,-4.907 0,-2.574 -0.88,-5.511 -2.64,-8.816 -1.76,-3.305 -5.14,-8.371 -10.16,-15.207 -5.01,-6.836 -11.08,-14.293 -18.21,-22.363 -4.91,-5.567 -8.56,-9.075 -10.93,-10.524 -2.38,-1.449 -4.41,-2.172 -6.11,-2.172 -1.01,0 -1.89,0.379 -2.66,1.145 -0.77,0.765 -1.15,1.652 -1.15,2.664 0,1.269 0.53,2.422 1.59,3.465 1.06,1.043 2.21,1.562 3.44,1.562 0.66,0 1.19,-0.144 1.61,-0.437 0.26,-0.164 0.55,-0.629 0.86,-1.395 0.31,-0.765 0.59,-1.277 0.85,-1.535 0.17,-0.164 0.36,-0.246 0.59,-0.246 0.2,0 0.53,0.164 1.02,0.488 1.8,1.106 3.88,2.864 6.25,5.274 3.13,3.191 5.44,5.793 6.94,7.812 l -2.74,30.957 c -0.45,5.11 -1.13,8.219 -2.05,9.328 -0.91,1.106 -2.44,1.66 -4.59,1.66 -0.68,0 -1.9,-0.097 -3.66,-0.292 l -0.44,1.804 14.31,3.516" /><path
         id="path150"
         style="fill:none;stroke:#000000;stroke-width:4;stroke-linecap:butt;stroke-linejoin:miter;stroke-miterlimit:10;stroke-dasharray:none;stroke-opacity:1"
         d="m 2632.91,404.141 c 2,-49.512 2,-49.512 2,-49.512" /><path
         id="path152"
         style="fill:none;stroke:#000000;stroke-width:4;stroke-linecap:butt;stroke-linejoin:miter;stroke-miterlimit:10;stroke-dasharray:none;stroke-opacity:1"
         d="m 2677.61,301.219 c 56.8,-0.157 56.8,-0.157 56.8,-0.157" /><path
         id="path154"
         style="fill:#000000;fill-opacity:1;fill-rule:evenodd;stroke:none"
         d="m 2644.91,466.867 16.11,7.86 h 1.61 V 418.82 c 0,-3.711 0.16,-6.023 0.47,-6.933 0.31,-0.914 0.95,-1.614 1.93,-2.102 0.97,-0.488 2.96,-0.765 5.95,-0.828 v -1.809 h -24.9 v 1.809 c 3.13,0.063 5.14,0.332 6.06,0.805 0.91,0.472 1.54,1.105 1.9,1.902 0.36,0.801 0.54,3.184 0.54,7.156 v 35.742 c 0,4.817 -0.17,7.911 -0.49,9.278 -0.23,1.039 -0.64,1.805 -1.25,2.293 -0.6,0.488 -1.32,0.734 -2.17,0.734 -1.21,0 -2.88,-0.504 -5.03,-1.515 l -0.73,1.515" /><path
         id="path156"
         style="fill:none;stroke:#000000;stroke-width:4;stroke-linecap:butt;stroke-linejoin:miter;stroke-miterlimit:10;stroke-dasharray:none;stroke-opacity:1"
         d="m 2677.43,531.262 c 56.8,-0.16 56.8,-0.16 56.8,-0.16" /><path
         id="path158"
         style="fill:none;stroke:#000000;stroke-width:4;stroke-linecap:butt;stroke-linejoin:miter;stroke-miterlimit:10;stroke-dasharray:none;stroke-opacity:1"
         d="m 2679.45,611.262 c 56.8,-0.16 56.8,-0.16 56.8,-0.16" /><path
         id="path160"
         style="fill:#000000;fill-opacity:1;fill-rule:evenodd;stroke:none"
         d="m 1591.27,887.273 c 1.89,4.457 4.27,7.899 7.16,10.325 2.87,2.425 6.46,3.64 10.76,3.64 5.31,0 9.38,-1.726 12.21,-5.176 2.15,-2.574 3.22,-5.324 3.22,-8.253 0,-4.817 -3.03,-9.797 -9.08,-14.942 4.07,-1.594 7.14,-3.875 9.23,-6.836 2.08,-2.961 3.12,-6.445 3.12,-10.449 0,-5.73 -1.82,-10.691 -5.47,-14.891 -4.75,-5.468 -11.63,-8.203 -20.65,-8.203 -4.46,0 -7.5,0.551 -9.11,1.66 -1.61,1.106 -2.41,2.293 -2.41,3.563 0,0.945 0.38,1.773 1.14,2.492 0.77,0.715 1.69,1.074 2.76,1.074 0.81,0 1.65,-0.132 2.49,-0.39 0.56,-0.164 1.81,-0.758 3.76,-1.785 1.96,-1.024 3.31,-1.633 4.05,-1.829 1.21,-0.359 2.5,-0.539 3.86,-0.539 3.32,0 6.21,1.286 8.67,3.86 2.46,2.57 3.68,5.613 3.68,9.129 0,2.57 -0.57,5.078 -1.7,7.519 -0.85,1.824 -1.78,3.207 -2.79,4.153 -1.4,1.3 -3.32,2.48 -5.76,3.539 -2.44,1.058 -4.93,1.586 -7.47,1.586 h -1.56 v 1.464 c 2.57,0.325 5.15,1.254 7.74,2.786 2.59,1.527 4.47,3.367 5.64,5.515 1.17,2.149 1.76,4.508 1.76,7.082 0,3.352 -1.06,6.063 -3.15,8.129 -2.1,2.066 -4.72,3.098 -7.84,3.102 -5.05,-0.004 -9.26,-2.703 -12.65,-8.106 l -1.61,0.781" /><path
         id="path162"
         style="fill:#000000;fill-opacity:1;fill-rule:evenodd;stroke:none"
         d="m 1638.44,901.043 v 2.051 c 4.95,-2.442 9.06,-5.324 12.35,-8.645 4.66,-4.754 8.25,-10.328 10.79,-16.722 2.54,-6.399 3.81,-13.063 3.81,-19.997 0,-10.089 -2.48,-19.296 -7.44,-27.613 -4.97,-8.316 -11.47,-14.265 -19.51,-17.844 v 1.805 c 4,2.246 7.3,5.281 9.89,9.106 2.58,3.824 4.51,8.691 5.76,14.601 1.25,5.906 1.88,12.067 1.88,18.481 0,6.933 -0.54,13.265 -1.61,18.996 -0.82,4.492 -1.83,8.086 -3.06,10.789 -1.21,2.703 -2.84,5.304 -4.85,7.812 -2.02,2.508 -4.69,4.899 -8.01,7.18 v 0" /><path
         id="path164"
         style="fill:#000000;fill-opacity:1;fill-rule:evenodd;stroke:none"
         d="m 2358.86,858.07 v -6.933 h -8.89 v -17.481 h -8.06 v 17.481 h -28.03 v 6.25 l 30.72,43.847 h 5.37 V 858.07 Z m -16.95,0 v 32.864 l -23.24,-32.864 h 23.24" /><path
         id="path166"
         style="fill:#000000;fill-opacity:1;fill-rule:evenodd;stroke:none"
         d="m 2364.57,901.039 v 2.051 c 4.95,-2.442 9.06,-5.32 12.35,-8.641 4.65,-4.754 8.25,-10.328 10.79,-16.726 2.54,-6.395 3.81,-13.059 3.81,-19.993 0,-10.093 -2.48,-19.296 -7.45,-27.613 -4.96,-8.316 -11.46,-14.265 -19.5,-17.847 v 1.808 c 4,2.246 7.3,5.281 9.88,9.106 2.59,3.824 4.51,8.691 5.76,14.597 1.26,5.91 1.89,12.071 1.89,18.485 0,6.933 -0.54,13.265 -1.62,18.992 -0.81,4.492 -1.83,8.09 -3.05,10.793 -1.22,2.699 -2.84,5.304 -4.86,7.812 -2.01,2.504 -4.68,4.899 -8,7.176 v 0" /><path
         id="path168"
         style="fill:none;stroke:#000000;stroke-width:4;stroke-linecap:butt;stroke-linejoin:miter;stroke-miterlimit:10;stroke-dasharray:none;stroke-opacity:1"
         d="m 1830.03,532.16 c 56.8,-0.16 56.8,-0.16 56.8,-0.16" /><path
         id="path170"
         style="fill:none;stroke:#000000;stroke-width:4;stroke-linecap:butt;stroke-linejoin:miter;stroke-miterlimit:10;stroke-dasharray:none;stroke-opacity:1"
         d="m 1832.04,612.16 c 56.8,-0.16 56.8,-0.16 56.8,-0.16" /><path
         id="path172"
         style="fill:none;stroke:#000000;stroke-width:8;stroke-linecap:round;stroke-linejoin:round;stroke-miterlimit:10;stroke-dasharray:none;stroke-opacity:1"
         d="m 1754.11,112.711 c 0,0 8.99,312.664 5.74,283.398 0,0 15.92,199.899 90.71,209.653" /><path
         id="path174"
         style="fill:none;stroke:#000000;stroke-width:8;stroke-linecap:round;stroke-linejoin:round;stroke-miterlimit:10;stroke-dasharray:none;stroke-opacity:1"
         d="m 1853.81,611.809 c 68.29,6.503 84.55,-156.09 84.55,-156.09 2.19,-8.332 4.33,-20.657 6.38,-35.746 13.18,-96.785 12.02,-307.262 12.02,-307.262" /><path
         id="path176"
         style="fill:none;stroke:#000000;stroke-width:8;stroke-linecap:round;stroke-linejoin:round;stroke-miterlimit:10;stroke-dasharray:none;stroke-opacity:1"
         d="m 2738.16,811.777 c 5.32,-128.062 33.2,-289.578 33.2,-289.578 12.1,-91.105 65.78,-81.402 65.78,-81.402 225.24,-13.75 235.53,-16.887 235.53,-16.887" /><path
         id="path178"
         style="fill:none;stroke:#000000;stroke-width:8;stroke-linecap:round;stroke-linejoin:round;stroke-miterlimit:10;stroke-dasharray:none;stroke-opacity:1"
         d="m 2630,228.602 c -10.5,39.55 -49.53,77.359 -70.48,83.496 -12.59,3.691 -9.36,2.441 -9.36,2.441 -216.82,39.156 -214.07,30.363 -214.07,30.363" /><path
         id="path180"
         style="fill:none;stroke:#000000;stroke-width:4;stroke-linecap:butt;stroke-linejoin:miter;stroke-miterlimit:10;stroke-dasharray:none;stroke-opacity:1"
         d="m 2552.92,402.68 c 1.99,-49.512 1.99,-49.512 1.99,-49.512" /><path
         id="path182"
         style="fill:none;stroke:#000000;stroke-width:4;stroke-linecap:butt;stroke-linejoin:miter;stroke-miterlimit:10;stroke-dasharray:none;stroke-opacity:1"
         d="m 2678.04,221.223 c 56.8,-0.161 56.8,-0.161 56.8,-0.161" /><path
         id="path184"
         style="fill:none;stroke:#000000;stroke-width:8;stroke-linecap:round;stroke-linejoin:round;stroke-miterlimit:10;stroke-dasharray:none;stroke-opacity:1"
         d="M 2630.91,226.867 C 2671.76,41.1289 2667.87,15.7383 2667.87,15.7383" /></g></g></svg>