<?xml version="1.0" encoding="UTF-8" standalone="no"?>
<svg
   xmlns:dc="http://purl.org/dc/elements/1.1/"
   xmlns:cc="http://creativecommons.org/ns#"
   xmlns:rdf="http://www.w3.org/1999/02/22-rdf-syntax-ns#"
   xmlns:svg="http://www.w3.org/2000/svg"
   xmlns="http://www.w3.org/2000/svg"
   viewBox="0 0 314.66666 216"
   height="216"
   width="314.66666"
   xml:space="preserve"
   id="svg2"
   version="1.1"><metadata
     id="metadata8"><rdf:RDF><cc:Work
         rdf:about=""><dc:format>image/svg+xml</dc:format><dc:type
           rdf:resource="http://purl.org/dc/dcmitype/StillImage" /></cc:Work></rdf:RDF></metadata><defs
     id="defs6" /><g
     transform="matrix(1.3333333,0,0,-1.3333333,0,216)"
     id="g10"><g
       transform="scale(0.1)"
       id="g12"><path
         id="path14"
         style="fill:#231f20;fill-opacity:1;fill-rule:nonzero;stroke:none"
         d="m 1074.3,1117.61 c 1.59,-1.68 2.8,-3.38 3.61,-5.06 0.59,-1.19 1.55,-4.25 2.89,-9.24 l 4.3,6.46 c 1.13,1.54 2.51,3.05 4.15,4.46 1.61,1.42 3.05,2.38 4.28,2.9 0.78,0.33 1.65,0.48 2.6,0.48 1.4,0 2.5,-0.36 3.33,-1.11 0.84,-0.75 1.25,-1.67 1.25,-2.73 0,-1.24 -0.25,-2.09 -0.73,-2.54 -0.92,-0.82 -1.95,-1.23 -3.12,-1.23 -0.68,0 -1.41,0.15 -2.2,0.45 -1.53,0.51 -2.57,0.78 -3.08,0.78 -0.78,0 -1.7,-0.47 -2.78,-1.37 -2.02,-1.7 -4.42,-4.96 -7.22,-9.81 l 4,-16.8 c 0.62,-2.57 1.13,-4.12 1.56,-4.62 0.42,-0.5 0.84,-0.75 1.27,-0.75 0.69,0 1.48,0.37 2.39,1.12 1.8,1.5 3.31,3.45 4.6,5.86 l 1.69,-0.88 c -2.04,-3.85 -4.64,-7.03 -7.81,-9.57 -1.78,-1.43 -3.3,-2.15 -4.53,-2.15 -1.82,0 -3.27,1.02 -4.35,3.07 -0.69,1.27 -2.1,6.75 -4.26,16.42 -5.06,-8.84 -9.13,-14.5 -12.19,-17.05 -1.99,-1.62 -3.9,-2.44 -5.77,-2.44 -1.3,0 -2.48,0.47 -3.57,1.42 -0.76,0.72 -1.16,1.67 -1.16,2.88 0,1.07 0.36,1.97 1.08,2.69 0.7,0.71 1.58,1.06 2.63,1.06 1.04,0 2.15,-0.51 3.32,-1.56 0.85,-0.75 1.5,-1.12 1.95,-1.12 0.4,0 0.9,0.27 1.52,0.78 1.53,1.24 3.61,3.91 6.25,8 2.63,4.11 4.36,7.07 5.18,8.9 -2.03,7.9 -3.11,12.09 -3.28,12.54 -0.75,2.11 -1.72,3.61 -2.94,4.5 -1.2,0.88 -2.96,1.31 -5.32,1.31 -0.74,0 -1.61,-0.03 -2.58,-0.1 v 1.77 l 13.04,2.28" /><path
         id="path16"
         style="fill:none;stroke:#231f20;stroke-width:6.49980021;stroke-linecap:butt;stroke-linejoin:miter;stroke-miterlimit:2.61310005;stroke-dasharray:none;stroke-opacity:1"
         d="M 561.652,907.281 V 1565.11" /><path
         id="path18"
         style="fill:#231f20;fill-opacity:1;fill-rule:evenodd;stroke:none"
         d="m 535.305,1560.95 26.347,47.9 26.348,-47.9 h -52.695" /><path
         id="path20"
         style="fill:none;stroke:#231f20;stroke-width:6.49980021;stroke-linecap:butt;stroke-linejoin:miter;stroke-miterlimit:2.61310005;stroke-dasharray:none;stroke-opacity:1"
         d="M 153.109,1145.25 H 1020.81" /><path
         id="path22"
         style="fill:#231f20;fill-opacity:1;fill-rule:evenodd;stroke:none"
         d="m 1016.66,1171.6 47.9,-26.35 -47.9,-26.35 v 52.7" /><path
         id="path24"
         style="fill:#231f20;fill-opacity:1;fill-rule:nonzero;stroke:none"
         d="m 508.41,1607.52 c 1.102,-1.89 1.867,-3.66 2.301,-5.29 0.414,-1.65 0.832,-4.88 1.266,-9.7 l 2.148,-24.01 c 1.949,2.33 4.785,6.05 8.5,11.13 1.785,2.46 4,5.83 6.633,10.1 1.601,2.6 2.57,4.43 2.933,5.46 0.188,0.52 0.286,1.07 0.286,1.62 0,0.35 -0.098,0.65 -0.336,0.88 -0.231,0.22 -0.817,0.49 -1.782,0.81 -0.968,0.3 -1.765,0.88 -2.398,1.69 -0.637,0.84 -0.953,1.79 -0.953,2.87 0,1.33 0.402,2.4 1.187,3.22 0.762,0.81 1.746,1.22 2.914,1.22 1.434,0 2.653,-0.59 3.664,-1.79 1.02,-1.18 1.52,-2.82 1.52,-4.9 0,-2.56 -0.883,-5.52 -2.633,-8.81 -1.769,-3.31 -5.148,-8.37 -10.168,-15.2 -5,-6.86 -11.082,-14.3 -18.199,-22.37 -4.914,-5.57 -8.566,-9.08 -10.949,-10.54 -2.367,-1.43 -4.403,-2.16 -6.102,-2.16 -1.015,0 -1.898,0.38 -2.664,1.15 -0.769,0.76 -1.133,1.65 -1.133,2.66 0,1.27 0.516,2.42 1.582,3.47 1.051,1.04 2.2,1.55 3.434,1.55 0.648,0 1.199,-0.13 1.617,-0.43 0.266,-0.17 0.551,-0.63 0.848,-1.4 0.316,-0.75 0.601,-1.27 0.867,-1.54 0.148,-0.16 0.352,-0.23 0.582,-0.23 0.184,0 0.535,0.15 1.02,0.48 1.8,1.11 3.882,2.87 6.25,5.27 3.132,3.2 5.433,5.8 6.933,7.82 l -2.734,30.95 c -0.449,5.11 -1.133,8.23 -2.051,9.33 -0.914,1.1 -2.434,1.67 -4.586,1.67 -0.68,0 -1.914,-0.1 -3.664,-0.3 l -0.434,1.8 14.301,3.52" /><path
         id="path26"
         style="fill:none;stroke:#231f20;stroke-width:10.00059986;stroke-linecap:butt;stroke-linejoin:miter;stroke-miterlimit:2.61310005;stroke-dasharray:none;stroke-opacity:1"
         d="m 543.234,1237.12 h 38.653" /><path
         id="path28"
         style="fill:none;stroke:#231f20;stroke-width:10.00059986;stroke-linecap:butt;stroke-linejoin:miter;stroke-miterlimit:2.61310005;stroke-dasharray:none;stroke-opacity:1"
         d="M 656.43,1122.35 V 1161" /><path
         id="path30"
         style="fill:#231f20;fill-opacity:1;fill-rule:nonzero;stroke:none"
         d="m 605.051,1257.93 16.117,7.87 h 1.617 v -55.92 c 0,-3.7 0.153,-6.02 0.449,-6.93 0.321,-0.9 0.969,-1.6 1.934,-2.1 0.984,-0.49 2.969,-0.77 5.969,-0.83 v -1.81 h -24.918 v 1.81 c 3.133,0.06 5.152,0.33 6.066,0.81 0.903,0.47 1.535,1.1 1.899,1.9 0.351,0.8 0.539,3.18 0.539,7.15 v 35.75 c 0,4.82 -0.168,7.9 -0.485,9.27 -0.234,1.05 -0.652,1.81 -1.25,2.3 -0.601,0.48 -1.316,0.73 -2.168,0.73 -1.203,0 -2.882,-0.5 -5.035,-1.52 l -0.734,1.52" /><path
         id="path32"
         style="fill:#231f20;fill-opacity:1;fill-rule:nonzero;stroke:none"
         d="m 669.371,1110.04 16.117,7.86 h 1.617 v -55.91 c 0,-3.7 0.149,-6.02 0.45,-6.94 0.316,-0.9 0.965,-1.6 1.933,-2.1 0.985,-0.48 2.969,-0.76 5.965,-0.83 v -1.8 h -24.914 v 1.8 c 3.133,0.07 5.149,0.33 6.066,0.82 0.899,0.46 1.532,1.1 1.899,1.9 0.351,0.8 0.535,3.18 0.535,7.15 v 35.75 c 0,4.81 -0.168,7.9 -0.484,9.26 -0.235,1.05 -0.649,1.82 -1.25,2.3 -0.602,0.49 -1.317,0.74 -2.164,0.74 -1.203,0 -2.883,-0.5 -5.036,-1.52 l -0.734,1.52" /><path
         id="path34"
         style="fill:#231f20;fill-opacity:1;fill-rule:nonzero;stroke:none"
         d="m 12.7461,1580.77 16.1172,7.87 h 1.6133 v -55.92 c 0,-3.7 0.1523,-6.02 0.4531,-6.93 0.3164,-0.9 0.9648,-1.6 1.9336,-2.1 0.9805,-0.49 2.9648,-0.77 5.9648,-0.83 v -1.81 h -24.914 v 1.81 c 3.1289,0.06 5.1484,0.33 6.0625,0.81 0.9023,0.47 1.5351,1.1 1.9023,1.9 0.3516,0.81 0.5352,3.18 0.5352,7.15 v 35.75 c 0,4.82 -0.168,7.9 -0.4844,9.27 -0.2344,1.05 -0.6485,1.81 -1.25,2.3 -0.6016,0.48 -1.3164,0.73 -2.168,0.73 -1.1992,0 -2.8828,-0.5 -5.0312,-1.52 l -0.7344,1.52" /><path
         id="path36"
         style="fill:#231f20;fill-opacity:1;fill-rule:nonzero;stroke:none"
         d="m 53.2812,1588.44 v 2.05 c 4.9493,-2.44 9.0626,-5.32 12.3477,-8.65 4.6484,-4.75 8.25,-10.32 10.7852,-16.72 2.5468,-6.4 3.8125,-13.07 3.8125,-20 0,-10.08 -2.4805,-19.28 -7.4493,-27.6 -4.9648,-8.31 -11.4648,-14.26 -19.4961,-17.85 v 1.8 c 3.9961,2.25 7.2969,5.28 9.879,9.12 2.5859,3.82 4.5195,8.68 5.7695,14.6 1.25,5.9 1.8828,12.06 1.8828,18.47 0,6.93 -0.5508,13.26 -1.6172,19 -0.8164,4.5 -1.832,8.08 -3.0508,10.8 -1.2304,2.7 -2.8515,5.29 -4.8672,7.79 -2.0156,2.52 -4.6796,4.91 -7.9961,7.19" /><path
         id="path38"
         style="fill:#231f20;fill-opacity:1;fill-rule:nonzero;stroke:none"
         d="m 1342.88,1533.8 -4.63,-12.75 h -39.07 v 1.81 c 11.48,10.48 19.58,19.04 24.27,25.68 4.68,6.65 7.03,12.71 7.03,18.21 0,4.21 -1.28,7.66 -3.87,10.36 -2.56,2.69 -5.63,4.05 -9.22,4.05 -3.26,0 -6.18,-0.96 -8.76,-2.86 -2.58,-1.9 -4.5,-4.69 -5.73,-8.36 h -1.82 c 0.81,6.02 2.9,10.63 6.28,13.86 3.37,3.22 7.57,4.84 12.62,4.84 5.37,0 9.85,-1.73 13.45,-5.19 3.6,-3.45 5.4,-7.51 5.4,-12.19 0,-3.35 -0.78,-6.72 -2.35,-10.07 -2.4,-5.27 -6.32,-10.85 -11.72,-16.75 -8.1,-8.85 -13.16,-14.18 -15.18,-16.02 h 17.28 c 3.52,0 5.98,0.13 7.4,0.4 1.42,0.25 2.7,0.79 3.83,1.58 1.14,0.81 2.14,1.94 2.99,3.4 h 1.8" /><path
         id="path40"
         style="fill:#231f20;fill-opacity:1;fill-rule:nonzero;stroke:none"
         d="m 1349.28,1588.44 v 2.05 c 4.95,-2.44 9.06,-5.32 12.35,-8.65 4.65,-4.75 8.25,-10.32 10.78,-16.72 2.55,-6.4 3.82,-13.07 3.82,-20 0,-10.08 -2.48,-19.28 -7.45,-27.6 -4.97,-8.31 -11.47,-14.26 -19.5,-17.85 v 1.8 c 4,2.25 7.3,5.28 9.88,9.12 2.59,3.82 4.52,8.68 5.77,14.6 1.25,5.9 1.88,12.06 1.88,18.47 0,6.93 -0.55,13.26 -1.61,19 -0.82,4.5 -1.84,8.08 -3.06,10.8 -1.23,2.7 -2.85,5.29 -4.86,7.79 -2.02,2.52 -4.68,4.91 -8,7.19" /><path
         id="path42"
         style="fill:#231f20;fill-opacity:1;fill-rule:nonzero;stroke:none"
         d="m 2213.36,1021.88 c 1.6,-1.69 2.8,-3.39 3.62,-5.07 0.58,-1.19 1.55,-4.25 2.88,-9.24 l 4.3,6.45 c 1.14,1.55 2.52,3.05 4.15,4.47 1.62,1.42 3.05,2.39 4.28,2.9 0.79,0.33 1.66,0.49 2.61,0.49 1.39,0 2.5,-0.37 3.33,-1.12 0.83,-0.75 1.25,-1.67 1.25,-2.74 0,-1.23 -0.25,-2.08 -0.74,-2.53 -0.91,-0.81 -1.95,-1.23 -3.11,-1.23 -0.68,0 -1.42,0.15 -2.2,0.45 -1.53,0.51 -2.57,0.78 -3.09,0.78 -0.78,0 -1.69,-0.47 -2.78,-1.37 -2.02,-1.7 -4.41,-4.96 -7.22,-9.81 l 4,-16.802 c 0.62,-2.567 1.14,-4.117 1.57,-4.617 0.42,-0.5 0.83,-0.75 1.27,-0.75 0.68,0 1.48,0.367 2.38,1.117 1.8,1.5 3.32,3.449 4.6,5.863 l 1.7,-0.879 c -2.05,-3.851 -4.65,-7.035 -7.81,-9.566 -1.79,-1.434 -3.31,-2.153 -4.54,-2.153 -1.81,0 -3.27,1.016 -4.35,3.067 -0.68,1.265 -2.1,6.754 -4.25,16.418 -5.07,-8.832 -9.13,-14.5 -12.2,-17.051 -1.98,-1.613 -3.9,-2.434 -5.76,-2.434 -1.3,0 -2.49,0.469 -3.57,1.418 -0.77,0.715 -1.17,1.664 -1.17,2.883 0,1.067 0.37,1.965 1.09,2.684 0.7,0.719 1.58,1.066 2.63,1.066 1.03,0 2.15,-0.515 3.32,-1.566 0.84,-0.75 1.5,-1.117 1.95,-1.117 0.39,0 0.89,0.269 1.51,0.785 1.54,1.23 3.62,3.898 6.25,7.996 2.63,4.101 4.37,7.066 5.19,8.902 -2.04,7.896 -3.12,12.086 -3.29,12.536 -0.75,2.11 -1.71,3.61 -2.93,4.5 -1.2,0.88 -2.97,1.32 -5.32,1.32 -0.75,0 -1.61,-0.04 -2.58,-0.11 v 1.77 l 13.03,2.29" /><path
         id="path44"
         style="fill:none;stroke:#231f20;stroke-width:6.49980021;stroke-linecap:butt;stroke-linejoin:miter;stroke-miterlimit:2.61310005;stroke-dasharray:none;stroke-opacity:1"
         d="M 1728,905.234 V 1567.21" /><path
         id="path46"
         style="fill:#231f20;fill-opacity:1;fill-rule:evenodd;stroke:none"
         d="m 1701.65,1563.05 26.35,47.9 26.34,-47.9 h -52.69" /><path
         id="path48"
         style="fill:none;stroke:#231f20;stroke-width:6.49980021;stroke-linecap:butt;stroke-linejoin:miter;stroke-miterlimit:2.61310005;stroke-dasharray:none;stroke-opacity:1"
         d="m 1390.36,1049.51 h 769.52" /><path
         id="path50"
         style="fill:#231f20;fill-opacity:1;fill-rule:evenodd;stroke:none"
         d="m 2155.73,1075.86 47.89,-26.35 -47.89,-26.35 v 52.7" /><path
         id="path52"
         style="fill:#231f20;fill-opacity:1;fill-rule:nonzero;stroke:none"
         d="m 1782.04,1602.07 c 1.1,-1.89 1.87,-3.66 2.3,-5.29 0.41,-1.65 0.83,-4.88 1.27,-9.7 l 2.14,-24.01 c 1.95,2.33 4.79,6.05 8.5,11.13 1.79,2.46 4,5.83 6.64,10.1 1.6,2.6 2.57,4.43 2.93,5.47 0.19,0.51 0.29,1.06 0.29,1.61 0,0.35 -0.1,0.65 -0.34,0.89 -0.23,0.21 -0.82,0.48 -1.78,0.8 -0.97,0.3 -1.77,0.88 -2.4,1.7 -0.64,0.83 -0.95,1.78 -0.95,2.86 0,1.33 0.4,2.41 1.18,3.22 0.77,0.82 1.75,1.22 2.92,1.22 1.43,0 2.65,-0.59 3.67,-1.78 1.01,-1.19 1.51,-2.83 1.51,-4.91 0,-2.56 -0.88,-5.51 -2.63,-8.81 -1.77,-3.3 -5.15,-8.37 -10.17,-15.2 -5,-6.85 -11.08,-14.3 -18.2,-22.37 -4.91,-5.57 -8.56,-9.08 -10.95,-10.54 -2.36,-1.42 -4.4,-2.16 -6.1,-2.16 -1.01,0 -1.9,0.38 -2.66,1.15 -0.77,0.77 -1.14,1.65 -1.14,2.67 0,1.26 0.52,2.42 1.59,3.46 1.05,1.04 2.2,1.55 3.43,1.55 0.65,0 1.2,-0.13 1.62,-0.43 0.26,-0.17 0.55,-0.63 0.84,-1.4 0.32,-0.75 0.61,-1.27 0.87,-1.53 0.15,-0.17 0.35,-0.23 0.58,-0.23 0.19,0 0.54,0.14 1.02,0.48 1.8,1.1 3.89,2.86 6.25,5.27 3.14,3.19 5.44,5.8 6.94,7.81 l -2.74,30.95 c -0.45,5.12 -1.13,8.23 -2.05,9.33 -0.91,1.1 -2.43,1.67 -4.58,1.67 -0.68,0 -1.92,-0.1 -3.67,-0.3 l -0.43,1.8 14.3,3.52" /><path
         id="path54"
         style="fill:none;stroke:#231f20;stroke-width:10.00059986;stroke-linecap:butt;stroke-linejoin:miter;stroke-miterlimit:2.61310005;stroke-dasharray:none;stroke-opacity:1"
         d="m 1709.23,1145.49 h 38.65" /><path
         id="path56"
         style="fill:none;stroke:#231f20;stroke-width:10.00059986;stroke-linecap:butt;stroke-linejoin:miter;stroke-miterlimit:2.61310005;stroke-dasharray:none;stroke-opacity:1"
         d="m 1821.45,1030.47 v 38.65" /><path
         id="path58"
         style="fill:#231f20;fill-opacity:1;fill-rule:nonzero;stroke:none"
         d="m 1662.82,1151.18 16.11,7.86 h 1.62 v -55.92 c 0,-3.69 0.15,-6.01 0.45,-6.93 0.32,-0.9 0.96,-1.6 1.93,-2.1 0.98,-0.48 2.97,-0.76 5.97,-0.83 v -1.8 h -24.92 v 1.8 c 3.13,0.07 5.15,0.33 6.07,0.81 0.9,0.47 1.53,1.11 1.9,1.91 0.35,0.8 0.53,3.18 0.53,7.14 v 35.76 c 0,4.81 -0.16,7.9 -0.48,9.26 -0.23,1.05 -0.65,1.82 -1.25,2.3 -0.6,0.49 -1.32,0.74 -2.17,0.74 -1.2,0 -2.88,-0.5 -5.03,-1.52 l -0.73,1.52" /><path
         id="path60"
         style="fill:#231f20;fill-opacity:1;fill-rule:nonzero;stroke:none"
         d="m 1830.31,1027.22 16.12,7.87 h 1.62 v -55.918 c 0,-3.703 0.15,-6.02 0.45,-6.934 0.32,-0.902 0.96,-1.601 1.93,-2.101 0.98,-0.485 2.97,-0.766 5.97,-0.832 v -1.801 h -24.92 v 1.801 c 3.13,0.066 5.15,0.332 6.07,0.816 0.9,0.465 1.53,1.098 1.9,1.899 0.35,0.8 0.53,3.183 0.53,7.152 v 35.748 c 0,4.81 -0.16,7.9 -0.48,9.27 -0.23,1.04 -0.65,1.81 -1.25,2.29 -0.6,0.49 -1.32,0.74 -2.17,0.74 -1.2,0 -2.88,-0.5 -5.03,-1.52 l -0.74,1.52" /><path
         id="path62"
         style="fill:#231f20;fill-opacity:1;fill-rule:nonzero;stroke:none"
         d="m 8.87109,782.672 c 1.88671,4.449 4.26561,7.902 7.15231,10.316 2.8828,2.434 6.4649,3.649 10.7657,3.649 5.3007,0 9.3671,-1.731 12.1992,-5.184 2.1523,-2.566 3.2344,-5.312 3.2344,-8.246 0,-4.816 -3.0352,-9.801 -9.0821,-14.934 4.0664,-1.601 7.1328,-3.882 9.2188,-6.851 2.082,-2.949 3.1289,-6.434 3.1289,-10.449 0,-5.719 -1.8164,-10.684 -5.4649,-14.883 -4.75,-5.465 -11.6328,-8.203 -20.6523,-8.203 -4.4649,0 -7.4961,0.551 -9.1172,1.652 -1.59765,1.117 -2.41406,2.301 -2.41406,3.566 0,0.95 0.38282,1.786 1.14844,2.5 0.76953,0.719 1.68362,1.067 2.76562,1.067 0.8047,0 1.6367,-0.133 2.4883,-0.383 0.5508,-0.168 1.8008,-0.766 3.7617,-1.781 1.9531,-1.035 3.3047,-1.637 4.0508,-1.836 1.1992,-0.363 2.4844,-0.531 3.8515,-0.531 3.3165,0 6.2149,1.281 8.668,3.847 2.4649,2.567 3.6836,5.617 3.6836,9.133 0,2.567 -0.5703,5.082 -1.7031,7.52 -0.8477,1.816 -1.7813,3.199 -2.7813,4.148 -1.3984,1.297 -3.3164,2.484 -5.7656,3.531 -2.4336,1.071 -4.9336,1.602 -7.4687,1.602 h -1.5664 v 1.465 c 2.5664,0.32 5.1484,1.25 7.7343,2.785 2.6016,1.516 4.4805,3.367 5.6485,5.516 1.1679,2.152 1.75,4.503 1.75,7.066 0,3.367 -1.0469,6.066 -3.1485,8.133 -2.1015,2.07 -4.6992,3.101 -7.8359,3.101 -5.0469,0 -9.25,-2.699 -12.6484,-8.097 l -1.60161,0.781" /><path
         id="path64"
         style="fill:#231f20;fill-opacity:1;fill-rule:nonzero;stroke:none"
         d="m 56.0391,796.438 v 2.05 c 4.9492,-2.433 9.0664,-5.316 12.3515,-8.648 4.6485,-4.754 8.25,-10.317 10.7813,-16.719 2.5508,-6.398 3.8164,-13.066 3.8164,-20 0,-10.082 -2.4844,-19.285 -7.4492,-27.598 -4.9649,-8.316 -11.4649,-14.265 -19.5,-17.851 v 1.801 c 4,2.25 7.3007,5.281 9.8828,9.117 2.5859,3.816 4.5195,8.683 5.7695,14.598 1.25,5.902 1.8828,12.066 1.8828,18.468 0,6.934 -0.5508,13.266 -1.6172,19 -0.8164,4.5 -1.8359,8.082 -3.0508,10.801 -1.2343,2.699 -2.8515,5.297 -4.8671,7.797 -2.0157,2.516 -4.6836,4.902 -8,7.184" /><path
         id="path66"
         style="fill:none;stroke:#231f20;stroke-width:2.99909997;stroke-linecap:butt;stroke-linejoin:miter;stroke-miterlimit:2.61310005;stroke-dasharray:none;stroke-opacity:1"
         d="M 187.18,1332.79 H 942.926" /><path
         id="path68"
         style="fill:none;stroke:#231f20;stroke-width:2.99909997;stroke-linecap:butt;stroke-linejoin:miter;stroke-miterlimit:2.61310005;stroke-dasharray:none;stroke-opacity:1"
         d="M 189.305,1237.37 H 945.047" /><path
         id="path70"
         style="fill:none;stroke:#231f20;stroke-width:2.99909997;stroke-linecap:butt;stroke-linejoin:miter;stroke-miterlimit:2.61310005;stroke-dasharray:none;stroke-opacity:1"
         d="M 185.059,1428.2 H 940.801" /><path
         id="path72"
         style="fill:none;stroke:#231f20;stroke-width:2.99909997;stroke-linecap:butt;stroke-linejoin:miter;stroke-miterlimit:2.61310005;stroke-dasharray:none;stroke-opacity:1"
         d="M 191.426,1048.41 H 947.172" /><path
         id="path74"
         style="fill:none;stroke:#231f20;stroke-width:2.99909997;stroke-linecap:butt;stroke-linejoin:miter;stroke-miterlimit:2.61310005;stroke-dasharray:none;stroke-opacity:1"
         d="M 189.305,956.742 H 945.047" /><path
         id="path76"
         style="fill:none;stroke:#231f20;stroke-width:2.99909997;stroke-linecap:butt;stroke-linejoin:miter;stroke-miterlimit:2.61310005;stroke-dasharray:none;stroke-opacity:1"
         d="M 376.559,959.656 V 1521.37" /><path
         id="path78"
         style="fill:none;stroke:#231f20;stroke-width:2.99909997;stroke-linecap:butt;stroke-linejoin:miter;stroke-miterlimit:2.61310005;stroke-dasharray:none;stroke-opacity:1"
         d="M 467.992,956.238 V 1427.7" /><path
         id="path80"
         style="fill:none;stroke:#231f20;stroke-width:2.99909997;stroke-linecap:butt;stroke-linejoin:miter;stroke-miterlimit:2.61310005;stroke-dasharray:none;stroke-opacity:1"
         d="M 561.652,953.707 V 1525.63" /><path
         id="path82"
         style="fill:none;stroke:#231f20;stroke-width:2.99909997;stroke-linecap:butt;stroke-linejoin:miter;stroke-miterlimit:2.61310005;stroke-dasharray:none;stroke-opacity:1"
         d="M 275.609,962.922 V 1523.61" /><path
         id="path84"
         style="fill:none;stroke:#231f20;stroke-width:2.99909997;stroke-linecap:butt;stroke-linejoin:miter;stroke-miterlimit:2.61310005;stroke-dasharray:none;stroke-opacity:1"
         d="M 467.992,956.777 V 1528.7" /><path
         id="path86"
         style="fill:none;stroke:#231f20;stroke-width:2.99909997;stroke-linecap:butt;stroke-linejoin:miter;stroke-miterlimit:2.61310005;stroke-dasharray:none;stroke-opacity:1"
         d="M 754.184,958.406 V 1522.73" /><path
         id="path88"
         style="fill:none;stroke:#231f20;stroke-width:2.99909997;stroke-linecap:butt;stroke-linejoin:miter;stroke-miterlimit:2.61310005;stroke-dasharray:none;stroke-opacity:1"
         d="M 846.895,960.035 V 1522.73" /><path
         id="path90"
         style="fill:none;stroke:#231f20;stroke-width:2.99909997;stroke-linecap:butt;stroke-linejoin:miter;stroke-miterlimit:2.61310005;stroke-dasharray:none;stroke-opacity:1"
         d="M 940.945,960.035 V 1524.33" /><path
         id="path92"
         style="fill:none;stroke:#231f20;stroke-width:2.99909997;stroke-linecap:butt;stroke-linejoin:miter;stroke-miterlimit:2.61310005;stroke-dasharray:none;stroke-opacity:1"
         d="M 185.184,1521.68 H 940.93" /><path
         id="path94"
         style="fill:#231f20;fill-opacity:1;fill-rule:nonzero;stroke:none"
         d="m 535.199,1130.05 c 4.164,0 7.684,-1.75 10.531,-5.23 2.836,-3.48 4.27,-8.98 4.27,-16.5 0,-6.45 -1.07,-13.02 -3.184,-19.73 -2.101,-6.7 -5.086,-12.52 -8.933,-17.44 -3.051,-3.86 -6.27,-6.67 -9.617,-8.38 -1.95,-0.98 -4.215,-1.47 -6.786,-1.47 -4.23,0 -7.761,1.74 -10.613,5.22 -2.851,3.48 -4.285,9 -4.285,16.55 0,7.47 1.434,14.95 4.301,22.47 3.351,8.78 7.633,15.46 12.847,20.01 3.418,3 7.235,4.5 11.469,4.5 z m 0.051,-2.55 c -1.883,0 -3.801,-0.73 -5.734,-2.21 -1.934,-1.49 -3.934,-4.57 -6,-9.25 -2.067,-4.69 -4.051,-10.74 -5.934,-18.12 -2.449,-9.67 -3.668,-17.9 -3.668,-24.7 0,-3.4 0.734,-5.92 2.203,-7.6 1.465,-1.69 3.231,-2.52 5.317,-2.52 1.984,0 3.679,0.65 5.082,1.95 3.734,3.52 6.949,9.54 9.617,18.02 4.332,13.9 6.5,25.2 6.5,33.9 0,3.6 -0.735,6.26 -2.199,7.98 -1.469,1.7 -3.2,2.55 -5.184,2.55" /><path
         id="path96"
         style="fill:none;stroke:#231f20;stroke-width:2.99909997;stroke-linecap:butt;stroke-linejoin:miter;stroke-miterlimit:2.61310005;stroke-dasharray:none;stroke-opacity:1"
         d="m 1439.11,1333.32 h 666.03" /><path
         id="path98"
         style="fill:none;stroke:#231f20;stroke-width:2.99909997;stroke-linecap:butt;stroke-linejoin:miter;stroke-miterlimit:2.61310005;stroke-dasharray:none;stroke-opacity:1"
         d="m 1440.98,1237.91 h 666.03" /><path
         id="path100"
         style="fill:none;stroke:#231f20;stroke-width:2.99909997;stroke-linecap:butt;stroke-linejoin:miter;stroke-miterlimit:2.61310005;stroke-dasharray:none;stroke-opacity:1"
         d="m 1437.24,1428.74 h 666.03" /><path
         id="path102"
         style="fill:none;stroke:#231f20;stroke-width:2.99909997;stroke-linecap:butt;stroke-linejoin:miter;stroke-miterlimit:2.61310005;stroke-dasharray:none;stroke-opacity:1"
         d="m 1440.98,957.281 h 666.03" /><path
         id="path104"
         style="fill:none;stroke:#231f20;stroke-width:2.99909997;stroke-linecap:butt;stroke-linejoin:miter;stroke-miterlimit:2.61310005;stroke-dasharray:none;stroke-opacity:1"
         d="M 1538.26,960.199 V 1521.91" /><path
         id="path106"
         style="fill:none;stroke:#231f20;stroke-width:2.99909997;stroke-linecap:butt;stroke-linejoin:miter;stroke-miterlimit:2.61310005;stroke-dasharray:none;stroke-opacity:1"
         d="M 1629.7,956.781 V 1522.21" /><path
         id="path108"
         style="fill:none;stroke:#231f20;stroke-width:2.99909997;stroke-linecap:butt;stroke-linejoin:miter;stroke-miterlimit:2.61310005;stroke-dasharray:none;stroke-opacity:1"
         d="M 1442.14,958.105 V 1518.8" /><path
         id="path110"
         style="fill:none;stroke:#231f20;stroke-width:2.99909997;stroke-linecap:butt;stroke-linejoin:miter;stroke-miterlimit:2.61310005;stroke-dasharray:none;stroke-opacity:1"
         d="M 1915.89,958.949 V 1523.28" /><path
         id="path112"
         style="fill:none;stroke:#231f20;stroke-width:2.99909997;stroke-linecap:butt;stroke-linejoin:miter;stroke-miterlimit:2.61310005;stroke-dasharray:none;stroke-opacity:1"
         d="M 2008.6,960.578 V 1523.28" /><path
         id="path114"
         style="fill:none;stroke:#231f20;stroke-width:2.99909997;stroke-linecap:butt;stroke-linejoin:miter;stroke-miterlimit:2.61310005;stroke-dasharray:none;stroke-opacity:1"
         d="M 2102.65,960.578 V 1524.87" /><path
         id="path116"
         style="fill:none;stroke:#231f20;stroke-width:2.99909997;stroke-linecap:butt;stroke-linejoin:miter;stroke-miterlimit:2.61310005;stroke-dasharray:none;stroke-opacity:1"
         d="m 1437.35,1522.21 h 666.03" /><path
         id="path118"
         style="fill:none;stroke:#231f20;stroke-width:2.99909997;stroke-linecap:butt;stroke-linejoin:miter;stroke-miterlimit:2.61310005;stroke-dasharray:none;stroke-opacity:1"
         d="M 1819.05,958.949 V 1523.28" /><path
         id="path120"
         style="fill:none;stroke:#231f20;stroke-width:2.99909997;stroke-linecap:butt;stroke-linejoin:miter;stroke-miterlimit:2.61310005;stroke-dasharray:none;stroke-opacity:1"
         d="m 1442.93,1145.98 h 666.03" /><path
         id="path122"
         style="fill:none;stroke:#231f20;stroke-width:10.00059986;stroke-linecap:butt;stroke-linejoin:miter;stroke-miterlimit:2.61310005;stroke-dasharray:none;stroke-opacity:1"
         d="m 2103.27,1428.74 c -123.53,-505.638 -248.62,-505.638 -375.27,0 l -22.98,93.47" /><path
         id="path124"
         style="fill:none;stroke:#231f20;stroke-width:2.99909997;stroke-linecap:butt;stroke-linejoin:miter;stroke-miterlimit:2.61310005;stroke-dasharray:none;stroke-opacity:1"
         d="M 657.816,958.406 V 1522.73" /><path
         id="path126"
         style="fill:none;stroke:#231f20;stroke-width:10.00059986;stroke-linecap:butt;stroke-linejoin:miter;stroke-miterlimit:2.61310005;stroke-dasharray:none;stroke-opacity:1"
         d="m 185.059,1523.61 376.593,-378.36 379.293,376.43" /><path
         id="path128"
         style="fill:#231f20;fill-opacity:1;fill-rule:nonzero;stroke:none"
         d="m 1074.3,365.016 c 1.59,-1.684 2.8,-3.383 3.61,-5.067 0.59,-1.183 1.55,-4.25 2.89,-9.234 l 4.3,6.453 c 1.13,1.547 2.51,3.047 4.15,4.465 1.61,1.414 3.05,2.383 4.28,2.898 0.78,0.332 1.65,0.485 2.6,0.485 1.4,0 2.5,-0.368 3.33,-1.118 0.84,-0.75 1.25,-1.668 1.25,-2.73 0,-1.234 -0.25,-2.086 -0.73,-2.535 -0.92,-0.817 -1.95,-1.235 -3.12,-1.235 -0.68,0 -1.41,0.153 -2.2,0.45 -1.53,0.519 -2.57,0.785 -3.08,0.785 -0.78,0 -1.7,-0.469 -2.78,-1.367 -2.02,-1.7 -4.42,-4.965 -7.22,-9.817 l 4,-16.801 c 0.62,-2.566 1.13,-4.117 1.56,-4.617 0.42,-0.5 0.84,-0.75 1.27,-0.75 0.69,0 1.48,0.367 2.39,1.117 1.8,1.5 3.31,3.45 4.6,5.868 l 1.69,-0.883 c -2.04,-3.848 -4.64,-7.031 -7.81,-9.567 -1.78,-1.433 -3.3,-2.152 -4.53,-2.152 -1.82,0 -3.27,1.02 -4.35,3.066 -0.69,1.27 -2.1,6.754 -4.26,16.418 -5.06,-8.832 -9.13,-14.5 -12.19,-17.05 -1.99,-1.614 -3.9,-2.434 -5.77,-2.434 -1.3,0 -2.48,0.469 -3.57,1.418 -0.76,0.719 -1.16,1.668 -1.16,2.883 0,1.07 0.36,1.969 1.08,2.683 0.7,0.719 1.58,1.067 2.63,1.067 1.04,0 2.15,-0.516 3.32,-1.567 0.85,-0.75 1.5,-1.113 1.95,-1.113 0.4,0 0.9,0.266 1.52,0.781 1.53,1.231 3.61,3.899 6.25,8 2.63,4.102 4.36,7.067 5.18,8.899 -2.03,7.902 -3.11,12.086 -3.28,12.535 -0.75,2.113 -1.72,3.613 -2.94,4.5 -1.2,0.883 -2.96,1.316 -5.32,1.316 -0.74,0 -1.61,-0.035 -2.58,-0.101 v 1.765 l 13.04,2.286" /><path
         id="path130"
         style="fill:none;stroke:#231f20;stroke-width:6.49980021;stroke-linecap:butt;stroke-linejoin:miter;stroke-miterlimit:2.61310005;stroke-dasharray:none;stroke-opacity:1"
         d="M 561.652,8.26953 V 812.508" /><path
         id="path132"
         style="fill:#231f20;fill-opacity:1;fill-rule:evenodd;stroke:none"
         d="M 535.305,808.355 561.652,856.254 588,808.355 h -52.695" /><path
         id="path134"
         style="fill:none;stroke:#231f20;stroke-width:6.49980021;stroke-linecap:butt;stroke-linejoin:miter;stroke-miterlimit:2.61310005;stroke-dasharray:none;stroke-opacity:1"
         d="M 188.762,392.652 H 1020.81" /><path
         id="path136"
         style="fill:#231f20;fill-opacity:1;fill-rule:evenodd;stroke:none"
         d="m 1016.66,419 47.9,-26.348 -47.9,-26.347 V 419" /><path
         id="path138"
         style="fill:#231f20;fill-opacity:1;fill-rule:nonzero;stroke:none"
         d="m 508.41,854.914 c 1.102,-1.879 1.867,-3.648 2.301,-5.281 0.414,-1.649 0.832,-4.883 1.266,-9.699 l 2.148,-24.016 c 1.949,2.332 4.785,6.047 8.5,11.133 1.785,2.465 4,5.832 6.633,10.097 1.601,2.598 2.57,4.434 2.933,5.469 0.188,0.516 0.286,1.067 0.286,1.613 0,0.352 -0.098,0.653 -0.336,0.887 -0.231,0.215 -0.817,0.481 -1.782,0.801 -0.968,0.297 -1.765,0.883 -2.398,1.699 -0.637,0.832 -0.953,1.781 -0.953,2.867 0,1.332 0.402,2.399 1.187,3.215 0.762,0.817 1.746,1.215 2.914,1.215 1.434,0 2.653,-0.582 3.664,-1.781 1.02,-1.184 1.52,-2.817 1.52,-4.903 0,-2.562 -0.883,-5.515 -2.633,-8.812 -1.769,-3.301 -5.148,-8.371 -10.168,-15.199 -5,-6.852 -11.082,-14.301 -18.199,-22.371 -4.914,-5.567 -8.566,-9.082 -10.949,-10.532 -2.367,-1.433 -4.403,-2.164 -6.102,-2.164 -1.015,0 -1.898,0.379 -2.664,1.149 -0.769,0.765 -1.133,1.648 -1.133,2.664 0,1.269 0.516,2.418 1.582,3.469 1.051,1.035 2.2,1.55 3.434,1.55 0.648,0 1.199,-0.132 1.617,-0.433 0.266,-0.168 0.551,-0.633 0.848,-1.403 0.316,-0.746 0.601,-1.265 0.867,-1.531 0.148,-0.168 0.352,-0.234 0.582,-0.234 0.184,0 0.535,0.152 1.02,0.484 1.8,1.102 3.882,2.867 6.25,5.266 3.132,3.199 5.433,5.801 6.933,7.816 l -2.734,30.953 c -0.449,5.114 -1.133,8.231 -2.051,9.328 -0.914,1.102 -2.434,1.668 -4.586,1.668 -0.68,0 -1.914,-0.097 -3.664,-0.3 l -0.434,1.8 14.301,3.516" /><path
         id="path140"
         style="fill:none;stroke:#231f20;stroke-width:10.00059986;stroke-linecap:butt;stroke-linejoin:miter;stroke-miterlimit:2.61310005;stroke-dasharray:none;stroke-opacity:1"
         d="m 543.234,484.527 h 38.653" /><path
         id="path142"
         style="fill:none;stroke:#231f20;stroke-width:10.00059986;stroke-linecap:butt;stroke-linejoin:miter;stroke-miterlimit:2.61310005;stroke-dasharray:none;stroke-opacity:1"
         d="m 656.43,369.746 v 38.652" /><path
         id="path144"
         style="fill:#231f20;fill-opacity:1;fill-rule:nonzero;stroke:none"
         d="m 605.051,505.332 16.117,7.867 h 1.617 v -55.914 c 0,-3.703 0.153,-6.019 0.449,-6.933 0.321,-0.903 0.969,-1.602 1.934,-2.102 0.984,-0.484 2.969,-0.766 5.969,-0.832 v -1.801 h -24.918 v 1.801 c 3.133,0.066 5.152,0.332 6.066,0.816 0.903,0.465 1.535,1.098 1.899,1.899 0.351,0.801 0.539,3.183 0.539,7.152 v 35.75 c 0,4.817 -0.168,7.899 -0.485,9.266 -0.234,1.047 -0.652,1.816 -1.25,2.297 -0.601,0.484 -1.316,0.734 -2.168,0.734 -1.203,0 -2.882,-0.5 -5.035,-1.516 l -0.734,1.516" /><path
         id="path146"
         style="fill:#231f20;fill-opacity:1;fill-rule:nonzero;stroke:none"
         d="m 669.371,357.438 16.117,7.867 h 1.617 v -55.914 c 0,-3.703 0.149,-6.02 0.45,-6.934 0.316,-0.902 0.965,-1.602 1.933,-2.102 0.985,-0.484 2.969,-0.765 5.965,-0.832 v -1.8 h -24.914 v 1.8 c 3.133,0.067 5.149,0.332 6.066,0.817 0.899,0.465 1.532,1.098 1.899,1.898 0.351,0.801 0.535,3.184 0.535,7.153 v 35.75 c 0,4.812 -0.168,7.898 -0.484,9.265 -0.235,1.047 -0.649,1.817 -1.25,2.297 -0.602,0.485 -1.317,0.735 -2.164,0.735 -1.203,0 -2.883,-0.5 -5.036,-1.516 l -0.734,1.516" /><path
         id="path148"
         style="fill:none;stroke:#231f20;stroke-width:2.99909997;stroke-linecap:butt;stroke-linejoin:miter;stroke-miterlimit:2.61310005;stroke-dasharray:none;stroke-opacity:1"
         d="M 186.184,580.188 H 942.918" /><path
         id="path150"
         style="fill:none;stroke:#231f20;stroke-width:2.99909997;stroke-linecap:butt;stroke-linejoin:miter;stroke-miterlimit:2.61310005;stroke-dasharray:none;stroke-opacity:1"
         d="M 188.312,484.773 H 945.047" /><path
         id="path152"
         style="fill:none;stroke:#231f20;stroke-width:2.99909997;stroke-linecap:butt;stroke-linejoin:miter;stroke-miterlimit:2.61310005;stroke-dasharray:none;stroke-opacity:1"
         d="M 184.059,675.602 H 940.793" /><path
         id="path154"
         style="fill:none;stroke:#231f20;stroke-width:2.99909997;stroke-linecap:butt;stroke-linejoin:miter;stroke-miterlimit:2.61310005;stroke-dasharray:none;stroke-opacity:1"
         d="M 190.438,295.816 H 947.172" /><path
         id="path156"
         style="fill:none;stroke:#231f20;stroke-width:2.99909997;stroke-linecap:butt;stroke-linejoin:miter;stroke-miterlimit:2.61310005;stroke-dasharray:none;stroke-opacity:1"
         d="M 188.312,204.141 H 945.047" /><path
         id="path158"
         style="fill:none;stroke:#231f20;stroke-width:2.99909997;stroke-linecap:butt;stroke-linejoin:miter;stroke-miterlimit:2.61310005;stroke-dasharray:none;stroke-opacity:1"
         d="M 376.559,12.1328 V 766.258" /><path
         id="path160"
         style="fill:none;stroke:#231f20;stroke-width:2.99909997;stroke-linecap:butt;stroke-linejoin:miter;stroke-miterlimit:2.61310005;stroke-dasharray:none;stroke-opacity:1"
         d="M 467.992,203.641 V 675.098" /><path
         id="path162"
         style="fill:none;stroke:#231f20;stroke-width:2.99909997;stroke-linecap:butt;stroke-linejoin:miter;stroke-miterlimit:2.61310005;stroke-dasharray:none;stroke-opacity:1"
         d="M 561.652,201.109 V 773.031" /><path
         id="path164"
         style="fill:none;stroke:#231f20;stroke-width:2.99909997;stroke-linecap:butt;stroke-linejoin:miter;stroke-miterlimit:2.61310005;stroke-dasharray:none;stroke-opacity:1"
         d="M 275.609,16.5156 V 769.27" /><path
         id="path166"
         style="fill:none;stroke:#231f20;stroke-width:2.99909997;stroke-linecap:butt;stroke-linejoin:miter;stroke-miterlimit:2.61310005;stroke-dasharray:none;stroke-opacity:1"
         d="M 467.992,8.26953 V 776.105" /><path
         id="path168"
         style="fill:none;stroke:#231f20;stroke-width:2.99909997;stroke-linecap:butt;stroke-linejoin:miter;stroke-miterlimit:2.61310005;stroke-dasharray:none;stroke-opacity:1"
         d="M 754.184,10.457 V 768.09" /><path
         id="path170"
         style="fill:none;stroke:#231f20;stroke-width:2.99909997;stroke-linecap:butt;stroke-linejoin:miter;stroke-miterlimit:2.61310005;stroke-dasharray:none;stroke-opacity:1"
         d="M 846.895,12.6445 V 768.09" /><path
         id="path172"
         style="fill:none;stroke:#231f20;stroke-width:2.99909997;stroke-linecap:butt;stroke-linejoin:miter;stroke-miterlimit:2.61310005;stroke-dasharray:none;stroke-opacity:1"
         d="M 940.945,12.6445 V 770.23" /><path
         id="path174"
         style="fill:none;stroke:#231f20;stroke-width:2.99909997;stroke-linecap:butt;stroke-linejoin:miter;stroke-miterlimit:2.61310005;stroke-dasharray:none;stroke-opacity:1"
         d="M 184.184,769.074 H 940.922" /><path
         id="path176"
         style="fill:#231f20;fill-opacity:1;fill-rule:nonzero;stroke:none"
         d="m 535.199,377.453 c 4.164,0 7.684,-1.75 10.531,-5.23 2.836,-3.485 4.27,-8.985 4.27,-16.5 0,-6.45 -1.07,-13.02 -3.184,-19.735 -2.101,-6.699 -5.086,-12.515 -8.933,-17.433 -3.051,-3.867 -6.27,-6.668 -9.617,-8.383 -1.95,-0.984 -4.215,-1.469 -6.786,-1.469 -4.23,0 -7.761,1.735 -10.613,5.219 -2.851,3.484 -4.285,9 -4.285,16.547 0,7.469 1.434,14.953 4.301,22.469 3.351,8.785 7.633,15.464 12.847,20.019 3.418,2.996 7.235,4.496 11.469,4.496 z m 0.051,-2.551 c -1.883,0 -3.801,-0.73 -5.734,-2.214 -1.934,-1.485 -3.934,-4.567 -6,-9.25 -2.067,-4.684 -4.051,-10.735 -5.934,-18.118 -2.449,-9.664 -3.668,-17.898 -3.668,-24.699 0,-3.398 0.734,-5.918 2.203,-7.601 1.465,-1.684 3.231,-2.516 5.317,-2.516 1.984,0 3.679,0.652 5.082,1.949 3.734,3.52 6.949,9.535 9.617,18.016 4.332,13.902 6.5,25.199 6.5,33.902 0,3.602 -0.735,6.266 -2.199,7.984 -1.469,1.7 -3.2,2.547 -5.184,2.547" /><path
         id="path178"
         style="fill:none;stroke:#231f20;stroke-width:2.99909997;stroke-linecap:butt;stroke-linejoin:miter;stroke-miterlimit:2.61310005;stroke-dasharray:none;stroke-opacity:1"
         d="M 657.816,10.457 V 768.09" /><path
         id="path180"
         style="fill:none;stroke:#231f20;stroke-width:2.99909997;stroke-linecap:butt;stroke-linejoin:miter;stroke-miterlimit:2.61310005;stroke-dasharray:none;stroke-opacity:1"
         d="M 188.312,106.887 H 945.047" /><path
         id="path182"
         style="fill:none;stroke:#231f20;stroke-width:2.99909997;stroke-linecap:butt;stroke-linejoin:miter;stroke-miterlimit:2.61310005;stroke-dasharray:none;stroke-opacity:1"
         d="M 188.312,8.26953 H 945.047" /><path
         id="path184"
         style="fill:none;stroke:#231f20;stroke-width:2.99909997;stroke-linecap:butt;stroke-linejoin:miter;stroke-miterlimit:2.61310005;stroke-dasharray:none;stroke-opacity:1"
         d="M 186.238,19.0352 V 771.793" /><path
         id="path186"
         style="fill:none;stroke:#231f20;stroke-width:2.99909997;stroke-linecap:butt;stroke-linejoin:miter;stroke-miterlimit:2.61310005;stroke-dasharray:none;stroke-opacity:1"
         d="M 185.059,962.922 V 1523.61" /><path
         id="path188"
         style="fill:#231f20;fill-opacity:1;fill-rule:nonzero;stroke:none"
         d="m 1299.82,753.473 v -6.934 h -8.89 v -17.484 h -8.07 v 17.484 h -28.01 v 6.25 l 30.72,43.848 h 5.36 v -43.164 z m -16.96,0 v 32.863 l -23.23,-32.863 h 23.23" /><path
         id="path190"
         style="fill:#231f20;fill-opacity:1;fill-rule:nonzero;stroke:none"
         d="m 1305.53,796.438 v 2.05 c 4.95,-2.433 9.07,-5.316 12.35,-8.648 4.65,-4.754 8.25,-10.317 10.78,-16.719 2.55,-6.398 3.82,-13.066 3.82,-20 0,-10.082 -2.48,-19.285 -7.45,-27.598 -4.96,-8.316 -11.46,-14.265 -19.5,-17.851 v 1.801 c 4,2.25 7.3,5.281 9.88,9.117 2.59,3.816 4.52,8.683 5.77,14.598 1.25,5.902 1.89,12.066 1.89,18.468 0,6.934 -0.55,13.266 -1.62,19 -0.82,4.5 -1.84,8.082 -3.05,10.801 -1.24,2.699 -2.85,5.297 -4.87,7.797 -2.01,2.516 -4.68,4.902 -8,7.184" /><path
         id="path192"
         style="fill:#231f20;fill-opacity:1;fill-rule:nonzero;stroke:none"
         d="m 2323.79,365.016 c 1.6,-1.684 2.8,-3.383 3.62,-5.067 0.58,-1.183 1.55,-4.25 2.88,-9.234 l 4.3,6.453 c 1.13,1.547 2.52,3.047 4.15,4.465 1.62,1.414 3.05,2.383 4.28,2.898 0.78,0.332 1.65,0.485 2.6,0.485 1.4,0 2.5,-0.368 3.33,-1.118 0.84,-0.75 1.25,-1.668 1.25,-2.73 0,-1.234 -0.25,-2.086 -0.73,-2.535 -0.92,-0.817 -1.95,-1.235 -3.11,-1.235 -0.69,0 -1.42,0.153 -2.2,0.45 -1.54,0.519 -2.57,0.785 -3.09,0.785 -0.78,0 -1.7,-0.469 -2.78,-1.367 -2.02,-1.7 -4.42,-4.965 -7.22,-9.817 l 4,-16.801 c 0.62,-2.566 1.13,-4.117 1.57,-4.617 0.41,-0.5 0.83,-0.75 1.27,-0.75 0.68,0 1.48,0.367 2.38,1.117 1.8,1.5 3.32,3.45 4.6,5.868 l 1.7,-0.883 c -2.05,-3.848 -4.65,-7.031 -7.82,-9.567 -1.78,-1.433 -3.3,-2.152 -4.53,-2.152 -1.82,0 -3.27,1.02 -4.35,3.066 -0.68,1.27 -2.1,6.754 -4.25,16.418 -5.07,-8.832 -9.14,-14.5 -12.2,-17.05 -1.98,-1.614 -3.9,-2.434 -5.77,-2.434 -1.3,0 -2.48,0.469 -3.56,1.418 -0.77,0.719 -1.17,1.668 -1.17,2.883 0,1.07 0.36,1.969 1.08,2.683 0.7,0.719 1.59,1.067 2.64,1.067 1.03,0 2.14,-0.516 3.31,-1.567 0.85,-0.75 1.5,-1.113 1.95,-1.113 0.4,0 0.9,0.266 1.52,0.781 1.53,1.231 3.61,3.899 6.25,8 2.63,4.102 4.36,7.067 5.18,8.899 -2.03,7.902 -3.11,12.086 -3.28,12.535 -0.75,2.113 -1.72,3.613 -2.93,4.5 -1.2,0.883 -2.97,1.316 -5.32,1.316 -0.75,0 -1.62,-0.035 -2.59,-0.101 v 1.765 l 13.04,2.286" /><path
         id="path194"
         style="fill:none;stroke:#231f20;stroke-width:6.49980021;stroke-linecap:butt;stroke-linejoin:miter;stroke-miterlimit:2.61310005;stroke-dasharray:none;stroke-opacity:1"
         d="M 1811.14,8.26953 V 812.508" /><path
         id="path196"
         style="fill:#231f20;fill-opacity:1;fill-rule:evenodd;stroke:none"
         d="m 1784.8,808.355 26.34,47.899 26.35,-47.899 h -52.69" /><path
         id="path198"
         style="fill:none;stroke:#231f20;stroke-width:6.49980021;stroke-linecap:butt;stroke-linejoin:miter;stroke-miterlimit:2.61310005;stroke-dasharray:none;stroke-opacity:1"
         d="M 1438.25,392.652 H 2270.3" /><path
         id="path200"
         style="fill:#231f20;fill-opacity:1;fill-rule:evenodd;stroke:none"
         d="m 2266.15,419 47.9,-26.348 -47.9,-26.347 V 419" /><path
         id="path202"
         style="fill:#231f20;fill-opacity:1;fill-rule:nonzero;stroke:none"
         d="m 1757.9,854.914 c 1.1,-1.879 1.87,-3.648 2.3,-5.281 0.42,-1.649 0.84,-4.883 1.27,-9.699 l 2.15,-24.016 c 1.95,2.332 4.78,6.047 8.5,11.133 1.78,2.465 4,5.832 6.63,10.097 1.6,2.598 2.57,4.434 2.93,5.469 0.19,0.516 0.29,1.067 0.29,1.613 0,0.352 -0.1,0.653 -0.34,0.887 -0.23,0.215 -0.81,0.481 -1.78,0.801 -0.97,0.297 -1.76,0.883 -2.4,1.699 -0.63,0.832 -0.95,1.781 -0.95,2.867 0,1.332 0.4,2.399 1.18,3.215 0.77,0.817 1.75,1.215 2.92,1.215 1.44,0 2.65,-0.582 3.67,-1.781 1.02,-1.184 1.52,-2.817 1.52,-4.903 0,-2.562 -0.89,-5.515 -2.64,-8.812 -1.77,-3.301 -5.15,-8.371 -10.17,-15.199 -5,-6.852 -11.08,-14.301 -18.19,-22.371 -4.92,-5.567 -8.57,-9.082 -10.95,-10.532 -2.37,-1.433 -4.41,-2.164 -6.11,-2.164 -1.01,0 -1.89,0.379 -2.66,1.149 -0.77,0.765 -1.13,1.648 -1.13,2.664 0,1.269 0.51,2.418 1.58,3.469 1.05,1.035 2.2,1.55 3.43,1.55 0.65,0 1.2,-0.132 1.62,-0.433 0.27,-0.168 0.55,-0.633 0.85,-1.403 0.31,-0.746 0.6,-1.265 0.87,-1.531 0.14,-0.168 0.35,-0.234 0.58,-0.234 0.18,0 0.53,0.152 1.02,0.484 1.8,1.102 3.88,2.867 6.25,5.266 3.13,3.199 5.43,5.801 6.93,7.816 l -2.73,30.953 c -0.45,5.114 -1.14,8.231 -2.05,9.328 -0.92,1.102 -2.44,1.668 -4.59,1.668 -0.68,0 -1.91,-0.097 -3.66,-0.3 l -0.44,1.8 14.3,3.516" /><path
         id="path204"
         style="fill:none;stroke:#231f20;stroke-width:10.00059986;stroke-linecap:butt;stroke-linejoin:miter;stroke-miterlimit:2.61310005;stroke-dasharray:none;stroke-opacity:1"
         d="m 1792.73,484.527 h 38.65" /><path
         id="path206"
         style="fill:none;stroke:#231f20;stroke-width:10.00059986;stroke-linecap:butt;stroke-linejoin:miter;stroke-miterlimit:2.61310005;stroke-dasharray:none;stroke-opacity:1"
         d="m 1905.92,369.746 v 38.652" /><path
         id="path208"
         style="fill:#231f20;fill-opacity:1;fill-rule:nonzero;stroke:none"
         d="m 1758.18,527.172 16.12,7.867 h 1.61 v -55.918 c 0,-3.699 0.15,-6.016 0.45,-6.933 0.32,-0.899 0.97,-1.602 1.94,-2.098 0.98,-0.488 2.97,-0.766 5.97,-0.836 v -1.801 h -24.92 v 1.801 c 3.13,0.07 5.15,0.336 6.06,0.816 0.91,0.469 1.54,1.102 1.9,1.899 0.35,0.804 0.54,3.183 0.54,7.152 v 35.75 c 0,4.817 -0.17,7.902 -0.49,9.266 -0.23,1.051 -0.65,1.82 -1.25,2.301 -0.6,0.484 -1.31,0.734 -2.16,0.734 -1.2,0 -2.88,-0.504 -5.04,-1.516 l -0.73,1.516" /><path
         id="path210"
         style="fill:#231f20;fill-opacity:1;fill-rule:nonzero;stroke:none"
         d="m 1918.86,357.438 16.12,7.867 h 1.61 v -55.914 c 0,-3.703 0.16,-6.02 0.46,-6.934 0.31,-0.902 0.96,-1.602 1.93,-2.102 0.98,-0.484 2.97,-0.765 5.97,-0.832 v -1.8 h -24.92 v 1.8 c 3.13,0.067 5.15,0.332 6.07,0.817 0.9,0.465 1.53,1.098 1.9,1.898 0.35,0.801 0.53,3.184 0.53,7.153 v 35.75 c 0,4.812 -0.17,7.898 -0.48,9.265 -0.24,1.047 -0.65,1.817 -1.25,2.297 -0.6,0.485 -1.32,0.735 -2.17,0.735 -1.2,0 -2.88,-0.5 -5.03,-1.516 l -0.74,1.516" /><path
         id="path212"
         style="fill:none;stroke:#231f20;stroke-width:2.99909997;stroke-linecap:butt;stroke-linejoin:miter;stroke-miterlimit:2.61310005;stroke-dasharray:none;stroke-opacity:1"
         d="m 1435.68,580.188 h 756.73" /><path
         id="path214"
         style="fill:none;stroke:#231f20;stroke-width:2.99909997;stroke-linecap:butt;stroke-linejoin:miter;stroke-miterlimit:2.61310005;stroke-dasharray:none;stroke-opacity:1"
         d="m 1437.8,484.773 h 756.74" /><path
         id="path216"
         style="fill:none;stroke:#231f20;stroke-width:2.99909997;stroke-linecap:butt;stroke-linejoin:miter;stroke-miterlimit:2.61310005;stroke-dasharray:none;stroke-opacity:1"
         d="m 1433.55,675.602 h 756.74" /><path
         id="path218"
         style="fill:none;stroke:#231f20;stroke-width:2.99909997;stroke-linecap:butt;stroke-linejoin:miter;stroke-miterlimit:2.61310005;stroke-dasharray:none;stroke-opacity:1"
         d="m 1439.93,295.816 h 756.73" /><path
         id="path220"
         style="fill:none;stroke:#231f20;stroke-width:2.99909997;stroke-linecap:butt;stroke-linejoin:miter;stroke-miterlimit:2.61310005;stroke-dasharray:none;stroke-opacity:1"
         d="m 1437.8,204.141 h 756.74" /><path
         id="path222"
         style="fill:none;stroke:#231f20;stroke-width:2.99909997;stroke-linecap:butt;stroke-linejoin:miter;stroke-miterlimit:2.61310005;stroke-dasharray:none;stroke-opacity:1"
         d="M 1626.05,12.1328 V 766.258" /><path
         id="path224"
         style="fill:none;stroke:#231f20;stroke-width:2.99909997;stroke-linecap:butt;stroke-linejoin:miter;stroke-miterlimit:2.61310005;stroke-dasharray:none;stroke-opacity:1"
         d="M 1717.48,203.641 V 675.098" /><path
         id="path226"
         style="fill:none;stroke:#231f20;stroke-width:2.99909997;stroke-linecap:butt;stroke-linejoin:miter;stroke-miterlimit:2.61310005;stroke-dasharray:none;stroke-opacity:1"
         d="M 1811.14,201.109 V 773.031" /><path
         id="path228"
         style="fill:none;stroke:#231f20;stroke-width:2.99909997;stroke-linecap:butt;stroke-linejoin:miter;stroke-miterlimit:2.61310005;stroke-dasharray:none;stroke-opacity:1"
         d="M 1525.1,16.5156 V 769.27" /><path
         id="path230"
         style="fill:none;stroke:#231f20;stroke-width:2.99909997;stroke-linecap:butt;stroke-linejoin:miter;stroke-miterlimit:2.61310005;stroke-dasharray:none;stroke-opacity:1"
         d="M 1717.48,8.26953 V 776.105" /><path
         id="path232"
         style="fill:none;stroke:#231f20;stroke-width:2.99909997;stroke-linecap:butt;stroke-linejoin:miter;stroke-miterlimit:2.61310005;stroke-dasharray:none;stroke-opacity:1"
         d="M 2003.68,10.457 V 768.09" /><path
         id="path234"
         style="fill:none;stroke:#231f20;stroke-width:2.99909997;stroke-linecap:butt;stroke-linejoin:miter;stroke-miterlimit:2.61310005;stroke-dasharray:none;stroke-opacity:1"
         d="M 2096.39,12.6445 V 768.09" /><path
         id="path236"
         style="fill:none;stroke:#231f20;stroke-width:2.99909997;stroke-linecap:butt;stroke-linejoin:miter;stroke-miterlimit:2.61310005;stroke-dasharray:none;stroke-opacity:1"
         d="M 2190.44,12.6445 V 770.23" /><path
         id="path238"
         style="fill:none;stroke:#231f20;stroke-width:2.99909997;stroke-linecap:butt;stroke-linejoin:miter;stroke-miterlimit:2.61310005;stroke-dasharray:none;stroke-opacity:1"
         d="m 1433.68,769.074 h 756.73" /><path
         id="path240"
         style="fill:#231f20;fill-opacity:1;fill-rule:nonzero;stroke:none"
         d="m 1784.69,377.453 c 4.17,0 7.69,-1.75 10.53,-5.23 2.84,-3.485 4.27,-8.985 4.27,-16.5 0,-6.45 -1.07,-13.02 -3.18,-19.735 -2.1,-6.699 -5.09,-12.515 -8.93,-17.433 -3.06,-3.867 -6.27,-6.668 -9.62,-8.383 -1.95,-0.984 -4.22,-1.469 -6.79,-1.469 -4.23,0 -7.76,1.735 -10.61,5.219 -2.85,3.484 -4.29,9 -4.29,16.547 0,7.469 1.44,14.953 4.31,22.469 3.35,8.785 7.63,15.464 12.84,20.019 3.42,2.996 7.24,4.496 11.47,4.496 z m 0.05,-2.551 c -1.88,0 -3.8,-0.73 -5.73,-2.214 -1.94,-1.485 -3.94,-4.567 -6,-9.25 -2.07,-4.684 -4.05,-10.735 -5.94,-18.118 -2.45,-9.664 -3.66,-17.898 -3.66,-24.699 0,-3.398 0.73,-5.918 2.2,-7.601 1.46,-1.684 3.23,-2.516 5.32,-2.516 1.98,0 3.68,0.652 5.08,1.949 3.73,3.52 6.95,9.535 9.61,18.016 4.34,13.902 6.5,25.199 6.5,33.902 0,3.602 -0.73,6.266 -2.19,7.984 -1.47,1.7 -3.2,2.547 -5.19,2.547" /><path
         id="path242"
         style="fill:none;stroke:#231f20;stroke-width:2.99909997;stroke-linecap:butt;stroke-linejoin:miter;stroke-miterlimit:2.61310005;stroke-dasharray:none;stroke-opacity:1"
         d="M 1907.31,10.457 V 768.09" /><path
         id="path244"
         style="fill:none;stroke:#231f20;stroke-width:2.99909997;stroke-linecap:butt;stroke-linejoin:miter;stroke-miterlimit:2.61310005;stroke-dasharray:none;stroke-opacity:1"
         d="m 1437.8,106.887 h 756.74" /><path
         id="path246"
         style="fill:none;stroke:#231f20;stroke-width:2.99909997;stroke-linecap:butt;stroke-linejoin:miter;stroke-miterlimit:2.61310005;stroke-dasharray:none;stroke-opacity:1"
         d="m 1437.8,8.26953 h 756.74" /><path
         id="path248"
         style="fill:none;stroke:#231f20;stroke-width:2.99909997;stroke-linecap:butt;stroke-linejoin:miter;stroke-miterlimit:2.61310005;stroke-dasharray:none;stroke-opacity:1"
         d="M 1435.73,19.0352 V 771.793" /><path
         id="path250"
         style="fill:none;stroke:#231f20;stroke-width:10.00059986;stroke-linecap:butt;stroke-linejoin:miter;stroke-miterlimit:2.61310005;stroke-dasharray:none;stroke-opacity:1"
         d="M 1614.02,8.26953 2003.68,768.09" /><path
         id="path252"
         style="fill:none;stroke:#231f20;stroke-width:10.00059986;stroke-linecap:butt;stroke-linejoin:miter;stroke-miterlimit:2.61310005;stroke-dasharray:none;stroke-opacity:1"
         d="M 593.277,8.26953 C 609.461,204.141 561.652,349.07 940.945,352.238" /><path
         id="path254"
         style="fill:none;stroke:#231f20;stroke-width:10.00059986;stroke-linecap:butt;stroke-linejoin:miter;stroke-miterlimit:2.61310005;stroke-dasharray:none;stroke-opacity:1"
         d="M 527.414,752.172 C 511.23,556.297 559.039,411.367 179.746,408.203" /></g></g></svg>