<?xml version="1.0" encoding="UTF-8" standalone="no"?>
<svg
   xmlns:dc="http://purl.org/dc/elements/1.1/"
   xmlns:cc="http://creativecommons.org/ns#"
   xmlns:rdf="http://www.w3.org/1999/02/22-rdf-syntax-ns#"
   xmlns:svg="http://www.w3.org/2000/svg"
   xmlns="http://www.w3.org/2000/svg"
   viewBox="0 0 313.33334 218.66667"
   height="218.66667"
   width="313.33334"
   xml:space="preserve"
   id="svg2"
   version="1.1"><metadata
     id="metadata8"><rdf:RDF><cc:Work
         rdf:about=""><dc:format>image/svg+xml</dc:format><dc:type
           rdf:resource="http://purl.org/dc/dcmitype/StillImage" /></cc:Work></rdf:RDF></metadata><defs
     id="defs6" /><g
     transform="matrix(1.3333333,0,0,-1.3333333,0,218.66667)"
     id="g10"><g
       transform="scale(0.1)"
       id="g12"><path
         id="path14"
         style="fill:#231f20;fill-opacity:1;fill-rule:nonzero;stroke:none"
         d="m 17.7422,1622.34 16.1172,7.87 h 1.6172 v -55.92 c 0,-3.7 0.1484,-6.01 0.4492,-6.93 0.3164,-0.9 0.9648,-1.6 1.9336,-2.1 0.9844,-0.48 2.9687,-0.76 5.9648,-0.83 v -1.8 h -24.914 v 1.8 c 3.1328,0.07 5.1484,0.33 6.0664,0.81 0.8984,0.47 1.5312,1.1 1.8984,1.9 0.3516,0.81 0.5352,3.19 0.5352,7.15 v 35.75 c 0,4.82 -0.168,7.91 -0.4844,9.27 -0.2344,1.05 -0.6485,1.82 -1.25,2.3 -0.6016,0.48 -1.3164,0.73 -2.1641,0.73 -1.2031,0 -2.8828,-0.5 -5.0351,-1.51 l -0.7344,1.51" /><path
         id="path16"
         style="fill:#231f20;fill-opacity:1;fill-rule:nonzero;stroke:none"
         d="m 58.2773,1630.01 v 2.05 c 4.9493,-2.44 9.0625,-5.32 12.3477,-8.65 4.6523,-4.75 8.25,-10.32 10.7852,-16.71 2.5468,-6.41 3.8164,-13.08 3.8164,-20 0,-10.09 -2.4844,-19.29 -7.4493,-27.6 -4.9687,-8.32 -11.4687,-14.27 -19.5,-17.86 v 1.8 c 4,2.25 7.2969,5.29 9.8789,9.12 2.586,3.82 4.5196,8.68 5.7696,14.6 1.25,5.9 1.8828,12.07 1.8828,18.47 0,6.93 -0.5508,13.26 -1.6172,19 -0.8164,4.5 -1.832,8.08 -3.0469,10.8 -1.2343,2.7 -2.8554,5.29 -4.8672,7.79 -2.0156,2.52 -4.6835,4.91 -8,7.19" /><path
         id="path18"
         style="fill:#231f20;fill-opacity:1;fill-rule:nonzero;stroke:none"
         d="m 1347.88,1575.38 -4.64,-12.75 h -39.06 v 1.8 c 11.48,10.48 19.58,19.05 24.26,25.68 4.68,6.65 7.03,12.72 7.03,18.22 0,4.2 -1.28,7.65 -3.86,10.35 -2.57,2.7 -5.63,4.05 -9.22,4.05 -3.26,0 -6.18,-0.95 -8.77,-2.85 -2.58,-1.9 -4.5,-4.7 -5.73,-8.37 h -1.81 c 0.81,6.02 2.9,10.63 6.28,13.87 3.37,3.21 7.57,4.83 12.62,4.83 5.36,0 9.84,-1.73 13.45,-5.18 3.59,-3.46 5.39,-7.52 5.39,-12.2 0,-3.35 -0.78,-6.72 -2.34,-10.07 -2.41,-5.27 -6.32,-10.85 -11.72,-16.75 -8.1,-8.85 -13.17,-14.18 -15.19,-16.01 h 17.29 c 3.52,0 5.98,0.13 7.4,0.39 1.42,0.25 2.7,0.79 3.83,1.59 1.14,0.8 2.14,1.93 2.98,3.4 h 1.81" /><path
         id="path20"
         style="fill:#231f20;fill-opacity:1;fill-rule:nonzero;stroke:none"
         d="m 1354.28,1630.01 v 2.05 c 4.95,-2.44 9.06,-5.32 12.34,-8.65 4.66,-4.75 8.26,-10.32 10.79,-16.71 2.55,-6.41 3.82,-13.08 3.82,-20 0,-10.09 -2.49,-19.29 -7.45,-27.6 -4.97,-8.32 -11.47,-14.27 -19.5,-17.86 v 1.8 c 4,2.25 7.29,5.29 9.88,9.12 2.58,3.82 4.52,8.68 5.77,14.6 1.25,5.9 1.88,12.07 1.88,18.47 0,6.93 -0.55,13.26 -1.62,19 -0.81,4.5 -1.83,8.08 -3.05,10.8 -1.23,2.7 -2.85,5.29 -4.86,7.79 -2.02,2.52 -4.69,4.91 -8,7.19" /><path
         id="path22"
         style="fill:#231f20;fill-opacity:1;fill-rule:nonzero;stroke:none"
         d="m 16.4688,750.516 c 1.8867,4.449 4.2656,7.898 7.1523,10.316 2.8828,2.434 6.4648,3.648 10.7656,3.648 5.3008,0 9.3633,-1.73 12.1992,-5.183 2.1485,-2.567 3.2344,-5.317 3.2344,-8.25 0,-4.817 -3.0351,-9.797 -9.0859,-14.93 4.0703,-1.601 7.1367,-3.887 9.2187,-6.851 2.086,-2.95 3.1328,-6.434 3.1328,-10.45 0,-5.718 -1.8164,-10.683 -5.4687,-14.886 -4.7461,-5.465 -11.6328,-8.2 -20.6484,-8.2 -4.4649,0 -7.5,0.551 -9.1172,1.653 -1.5977,1.113 -2.4141,2.301 -2.4141,3.566 0,0.949 0.3828,1.785 1.1484,2.5 0.7657,0.719 1.6836,1.067 2.7657,1.067 0.8007,0 1.6367,-0.133 2.4843,-0.383 0.5508,-0.168 1.8008,-0.77 3.7657,-1.781 1.9492,-1.036 3.3007,-1.637 4.0507,-1.836 1.1993,-0.368 2.4844,-0.532 3.8516,-0.532 3.3164,0 6.2149,1.282 8.668,3.848 2.4648,2.566 3.6797,5.617 3.6797,9.133 0,2.566 -0.5664,5.082 -1.6993,7.519 -0.8476,1.817 -1.7851,3.2 -2.7812,4.149 -1.4023,1.297 -3.3203,2.484 -5.7695,3.531 -2.4297,1.07 -4.9297,1.602 -7.4649,1.602 h -1.5664 v 1.464 c 2.5664,0.321 5.1485,1.25 7.7344,2.786 2.5976,1.515 4.4805,3.367 5.6484,5.515 1.1641,2.153 1.75,4.5 1.75,7.067 0,3.367 -1.0508,6.066 -3.1484,8.132 -2.1016,2.071 -4.7031,3.102 -7.8359,3.102 -5.0469,0 -9.25,-2.699 -12.6485,-8.098 l -1.6015,0.782" /><path
         id="path24"
         style="fill:#231f20;fill-opacity:1;fill-rule:nonzero;stroke:none"
         d="m 63.6367,764.281 v 2.051 c 4.9492,-2.434 9.0664,-5.316 12.3516,-8.652 4.6484,-4.75 8.2461,-10.313 10.7812,-16.715 2.5469,-6.399 3.8164,-13.067 3.8164,-20 0,-10.082 -2.4843,-19.285 -7.4492,-27.598 -4.9687,-8.316 -11.4687,-14.265 -19.5,-17.851 v 1.8 c 4,2.25 7.3008,5.282 9.8828,9.118 2.5821,3.816 4.5157,8.683 5.7657,14.597 1.25,5.903 1.8828,12.067 1.8828,18.469 0,6.934 -0.5508,13.266 -1.6133,19 -0.8164,4.496 -1.8359,8.082 -3.0508,10.801 -1.2344,2.695 -2.8516,5.297 -4.8672,7.797 -2.0156,2.515 -4.6836,4.902 -8,7.183" /><path
         id="path26"
         style="fill:#231f20;fill-opacity:1;fill-rule:nonzero;stroke:none"
         d="m 1084.3,1223.2 c 1.59,-1.68 2.8,-3.39 3.61,-5.07 0.59,-1.18 1.55,-4.25 2.89,-9.23 l 4.3,6.45 c 1.13,1.55 2.51,3.05 4.15,4.46 1.61,1.42 3.05,2.39 4.28,2.9 0.78,0.34 1.65,0.49 2.6,0.49 1.4,0 2.5,-0.37 3.33,-1.12 0.84,-0.75 1.25,-1.67 1.25,-2.73 0,-1.23 -0.25,-2.08 -0.73,-2.54 -0.92,-0.81 -1.95,-1.23 -3.12,-1.23 -0.68,0 -1.41,0.15 -2.2,0.45 -1.53,0.52 -2.57,0.78 -3.08,0.78 -0.78,0 -1.7,-0.46 -2.78,-1.36 -2.02,-1.7 -4.42,-4.97 -7.22,-9.82 l 4,-16.8 c 0.62,-2.56 1.13,-4.12 1.56,-4.62 0.42,-0.5 0.84,-0.75 1.27,-0.75 0.69,0 1.48,0.37 2.39,1.12 1.8,1.5 3.31,3.45 4.6,5.87 l 1.69,-0.88 c -2.04,-3.86 -4.64,-7.04 -7.81,-9.57 -1.78,-1.44 -3.3,-2.15 -4.53,-2.15 -1.82,0 -3.27,1.01 -4.35,3.06 -0.69,1.27 -2.1,6.76 -4.26,16.42 -5.06,-8.83 -9.13,-14.5 -12.19,-17.05 -1.99,-1.61 -3.9,-2.43 -5.77,-2.43 -1.3,0 -2.48,0.47 -3.57,1.42 -0.76,0.71 -1.16,1.66 -1.16,2.88 0,1.06 0.36,1.96 1.08,2.68 0.7,0.72 1.58,1.07 2.63,1.07 1.04,0 2.15,-0.52 3.32,-1.57 0.85,-0.75 1.5,-1.12 1.95,-1.12 0.4,0 0.9,0.27 1.52,0.79 1.53,1.23 3.61,3.9 6.25,8 2.63,4.1 4.36,7.06 5.18,8.9 -2.03,7.9 -3.11,12.08 -3.28,12.53 -0.75,2.12 -1.72,3.62 -2.94,4.5 -1.2,0.89 -2.96,1.32 -5.32,1.32 -0.74,0 -1.61,-0.04 -2.58,-0.1 v 1.76 l 13.04,2.29" /><path
         id="path28"
         style="fill:none;stroke:#231f20;stroke-width:6.49980021;stroke-linecap:butt;stroke-linejoin:miter;stroke-miterlimit:2.61310005;stroke-dasharray:none;stroke-opacity:1"
         d="M 571.652,866.449 V 1587.47" /><path
         id="path30"
         style="fill:#231f20;fill-opacity:1;fill-rule:evenodd;stroke:none"
         d="m 545.305,1583.32 26.347,47.89 26.348,-47.89 h -52.695" /><path
         id="path32"
         style="fill:none;stroke:#231f20;stroke-width:6.49980021;stroke-linecap:butt;stroke-linejoin:miter;stroke-miterlimit:2.61310005;stroke-dasharray:none;stroke-opacity:1"
         d="M 198.762,1250.84 H 1030.81" /><path
         id="path34"
         style="fill:#231f20;fill-opacity:1;fill-rule:evenodd;stroke:none"
         d="m 1026.66,1277.18 47.9,-26.34 -47.9,-26.35 v 52.69" /><path
         id="path36"
         style="fill:#231f20;fill-opacity:1;fill-rule:nonzero;stroke:none"
         d="m 521.746,1622.95 c 1.098,-1.88 1.863,-3.65 2.297,-5.28 0.418,-1.65 0.832,-4.88 1.266,-9.7 l 2.148,-24.01 c 1.953,2.33 4.785,6.04 8.504,11.13 1.781,2.46 4,5.83 6.633,10.1 1.601,2.6 2.566,4.43 2.933,5.47 0.184,0.51 0.282,1.06 0.282,1.61 0,0.35 -0.098,0.65 -0.332,0.89 -0.235,0.21 -0.817,0.48 -1.786,0.79 -0.964,0.3 -1.765,0.89 -2.398,1.71 -0.633,0.83 -0.949,1.78 -0.949,2.86 0,1.33 0.402,2.4 1.183,3.22 0.766,0.81 1.75,1.21 2.918,1.21 1.43,0 2.649,-0.58 3.664,-1.78 1.016,-1.18 1.516,-2.81 1.516,-4.9 0,-2.57 -0.883,-5.52 -2.633,-8.82 -1.765,-3.29 -5.148,-8.36 -10.164,-15.2 -5,-6.84 -11.086,-14.3 -18.203,-22.36 -4.914,-5.57 -8.566,-9.09 -10.949,-10.53 -2.367,-1.44 -4.399,-2.17 -6.102,-2.17 -1.012,0 -1.898,0.38 -2.664,1.15 -0.765,0.77 -1.133,1.65 -1.133,2.66 0,1.27 0.516,2.42 1.582,3.47 1.051,1.03 2.2,1.55 3.438,1.55 0.648,0 1.195,-0.13 1.613,-0.43 0.266,-0.17 0.551,-0.63 0.852,-1.4 0.312,-0.75 0.597,-1.27 0.863,-1.54 0.152,-0.16 0.352,-0.23 0.586,-0.23 0.184,0 0.531,0.15 1.016,0.49 1.8,1.1 3.882,2.86 6.25,5.26 3.132,3.2 5.433,5.8 6.933,7.82 l -2.734,30.95 c -0.449,5.11 -1.133,8.23 -2.051,9.33 -0.914,1.1 -2.43,1.67 -4.582,1.67 -0.684,0 -1.918,-0.1 -3.664,-0.3 l -0.434,1.8 14.301,3.51" /><path
         id="path38"
         style="fill:none;stroke:#231f20;stroke-width:10.00059986;stroke-linecap:butt;stroke-linejoin:miter;stroke-miterlimit:2.61310005;stroke-dasharray:none;stroke-opacity:1"
         d="m 553.234,1342.71 h 38.653" /><path
         id="path40"
         style="fill:none;stroke:#231f20;stroke-width:10.00059986;stroke-linecap:butt;stroke-linejoin:miter;stroke-miterlimit:2.61310005;stroke-dasharray:none;stroke-opacity:1"
         d="m 666.43,1227.93 v 38.65" /><path
         id="path42"
         style="fill:#231f20;fill-opacity:1;fill-rule:nonzero;stroke:none"
         d="m 523.727,1367.71 16.121,7.87 h 1.613 v -55.92 c 0,-3.7 0.152,-6.02 0.453,-6.93 0.316,-0.9 0.965,-1.61 1.93,-2.1 0.984,-0.49 2.968,-0.77 5.968,-0.84 V 1308 h -24.917 v 1.79 c 3.132,0.07 5.152,0.34 6.066,0.82 0.902,0.47 1.535,1.1 1.902,1.9 0.352,0.8 0.535,3.18 0.535,7.15 v 35.75 c 0,4.82 -0.168,7.9 -0.484,9.27 -0.234,1.05 -0.652,1.82 -1.25,2.3 -0.602,0.48 -1.316,0.73 -2.168,0.73 -1.199,0 -2.883,-0.5 -5.035,-1.51 l -0.734,1.51" /><path
         id="path44"
         style="fill:#231f20;fill-opacity:1;fill-rule:nonzero;stroke:none"
         d="m 684.184,1229.42 16.117,7.86 h 1.617 v -55.91 c 0,-3.71 0.148,-6.02 0.449,-6.94 0.317,-0.9 0.969,-1.6 1.934,-2.1 0.984,-0.48 2.969,-0.76 5.969,-0.83 v -1.8 h -24.918 v 1.8 c 3.132,0.07 5.152,0.34 6.066,0.82 0.902,0.47 1.531,1.1 1.898,1.89 0.352,0.81 0.536,3.19 0.536,7.16 v 35.75 c 0,4.81 -0.168,7.9 -0.485,9.26 -0.23,1.05 -0.648,1.82 -1.25,2.3 -0.601,0.49 -1.316,0.74 -2.164,0.74 -1.203,0 -2.883,-0.51 -5.035,-1.52 l -0.734,1.52" /><path
         id="path46"
         style="fill:none;stroke:#231f20;stroke-width:2.99909997;stroke-linecap:butt;stroke-linejoin:miter;stroke-miterlimit:2.61310005;stroke-dasharray:none;stroke-opacity:1"
         d="M 196.184,1438.37 H 952.918" /><path
         id="path48"
         style="fill:none;stroke:#231f20;stroke-width:2.99909997;stroke-linecap:butt;stroke-linejoin:miter;stroke-miterlimit:2.61310005;stroke-dasharray:none;stroke-opacity:1"
         d="M 198.312,1342.95 H 955.047" /><path
         id="path50"
         style="fill:none;stroke:#231f20;stroke-width:2.99909997;stroke-linecap:butt;stroke-linejoin:miter;stroke-miterlimit:2.61310005;stroke-dasharray:none;stroke-opacity:1"
         d="M 194.059,1533.79 H 950.793" /><path
         id="path52"
         style="fill:none;stroke:#231f20;stroke-width:2.99909997;stroke-linecap:butt;stroke-linejoin:miter;stroke-miterlimit:2.61310005;stroke-dasharray:none;stroke-opacity:1"
         d="M 200.438,1154 H 957.172" /><path
         id="path54"
         style="fill:none;stroke:#231f20;stroke-width:2.99909997;stroke-linecap:butt;stroke-linejoin:miter;stroke-miterlimit:2.61310005;stroke-dasharray:none;stroke-opacity:1"
         d="M 198.312,1062.32 H 955.047" /><path
         id="path56"
         style="fill:none;stroke:#231f20;stroke-width:2.99909997;stroke-linecap:butt;stroke-linejoin:miter;stroke-miterlimit:2.61310005;stroke-dasharray:none;stroke-opacity:1"
         d="M 386.559,870.316 V 1624.44" /><path
         id="path58"
         style="fill:none;stroke:#231f20;stroke-width:2.99909997;stroke-linecap:butt;stroke-linejoin:miter;stroke-miterlimit:2.61310005;stroke-dasharray:none;stroke-opacity:1"
         d="m 477.992,1061.82 v 471.46" /><path
         id="path60"
         style="fill:none;stroke:#231f20;stroke-width:2.99909997;stroke-linecap:butt;stroke-linejoin:miter;stroke-miterlimit:2.61310005;stroke-dasharray:none;stroke-opacity:1"
         d="m 571.652,1059.29 v 571.92" /><path
         id="path62"
         style="fill:none;stroke:#231f20;stroke-width:2.99909997;stroke-linecap:butt;stroke-linejoin:miter;stroke-miterlimit:2.61310005;stroke-dasharray:none;stroke-opacity:1"
         d="M 285.609,874.695 V 1627.45" /><path
         id="path64"
         style="fill:none;stroke:#231f20;stroke-width:2.99909997;stroke-linecap:butt;stroke-linejoin:miter;stroke-miterlimit:2.61310005;stroke-dasharray:none;stroke-opacity:1"
         d="M 477.992,866.449 V 1634.29" /><path
         id="path66"
         style="fill:none;stroke:#231f20;stroke-width:2.99909997;stroke-linecap:butt;stroke-linejoin:miter;stroke-miterlimit:2.61310005;stroke-dasharray:none;stroke-opacity:1"
         d="M 764.184,868.641 V 1626.27" /><path
         id="path68"
         style="fill:none;stroke:#231f20;stroke-width:2.99909997;stroke-linecap:butt;stroke-linejoin:miter;stroke-miterlimit:2.61310005;stroke-dasharray:none;stroke-opacity:1"
         d="M 856.895,870.828 V 1626.27" /><path
         id="path70"
         style="fill:none;stroke:#231f20;stroke-width:2.99909997;stroke-linecap:butt;stroke-linejoin:miter;stroke-miterlimit:2.61310005;stroke-dasharray:none;stroke-opacity:1"
         d="M 950.945,870.828 V 1628.41" /><path
         id="path72"
         style="fill:none;stroke:#231f20;stroke-width:2.99909997;stroke-linecap:butt;stroke-linejoin:miter;stroke-miterlimit:2.61310005;stroke-dasharray:none;stroke-opacity:1"
         d="M 195.848,1627.13 H 952.586" /><path
         id="path74"
         style="fill:#231f20;fill-opacity:1;fill-rule:nonzero;stroke:none"
         d="m 545.199,1235.64 c 4.164,0 7.684,-1.75 10.531,-5.24 2.836,-3.48 4.27,-8.98 4.27,-16.5 0,-6.45 -1.07,-13.01 -3.184,-19.73 -2.101,-6.7 -5.086,-12.52 -8.933,-17.44 -3.051,-3.86 -6.27,-6.66 -9.617,-8.37 -1.95,-0.99 -4.215,-1.47 -6.786,-1.47 -4.23,0 -7.761,1.73 -10.613,5.22 -2.851,3.48 -4.285,9 -4.285,16.54 0,7.47 1.434,14.95 4.301,22.47 3.351,8.78 7.633,15.47 12.847,20.02 3.418,3 7.235,4.5 11.469,4.5 z m 0.051,-2.55 c -1.883,0 -3.801,-0.73 -5.734,-2.22 -1.934,-1.48 -3.934,-4.57 -6,-9.25 -2.067,-4.68 -4.051,-10.73 -5.934,-18.12 -2.449,-9.66 -3.668,-17.9 -3.668,-24.7 0,-3.4 0.734,-5.91 2.203,-7.6 1.465,-1.68 3.231,-2.51 5.317,-2.51 1.984,0 3.679,0.65 5.082,1.95 3.734,3.51 6.949,9.53 9.617,18.01 4.332,13.9 6.5,25.2 6.5,33.9 0,3.61 -0.735,6.27 -2.199,7.99 -1.469,1.7 -3.2,2.55 -5.184,2.55" /><path
         id="path76"
         style="fill:none;stroke:#231f20;stroke-width:2.99909997;stroke-linecap:butt;stroke-linejoin:miter;stroke-miterlimit:2.61310005;stroke-dasharray:none;stroke-opacity:1"
         d="M 667.816,868.641 V 1626.27" /><path
         id="path78"
         style="fill:none;stroke:#231f20;stroke-width:2.99909997;stroke-linecap:butt;stroke-linejoin:miter;stroke-miterlimit:2.61310005;stroke-dasharray:none;stroke-opacity:1"
         d="M 198.312,965.066 H 955.047" /><path
         id="path80"
         style="fill:none;stroke:#231f20;stroke-width:2.99909997;stroke-linecap:butt;stroke-linejoin:miter;stroke-miterlimit:2.61310005;stroke-dasharray:none;stroke-opacity:1"
         d="M 198.312,866.449 H 955.047" /><path
         id="path82"
         style="fill:none;stroke:#231f20;stroke-width:2.99909997;stroke-linecap:butt;stroke-linejoin:miter;stroke-miterlimit:2.61310005;stroke-dasharray:none;stroke-opacity:1"
         d="M 196.238,866.449 V 1629.98" /><path
         id="path84"
         style="fill:#231f20;fill-opacity:1;fill-rule:nonzero;stroke:none"
         d="m 1307.41,721.316 v -6.933 h -8.88 v -17.485 h -8.07 v 17.485 h -28.01 v 6.25 l 30.71,43.847 h 5.37 v -43.164 z m -16.95,0 v 32.864 l -23.23,-32.864 h 23.23" /><path
         id="path86"
         style="fill:#231f20;fill-opacity:1;fill-rule:nonzero;stroke:none"
         d="m 1313.13,764.281 v 2.051 c 4.95,-2.434 9.07,-5.316 12.35,-8.652 4.65,-4.75 8.25,-10.313 10.78,-16.715 2.55,-6.399 3.82,-13.067 3.82,-20 0,-10.082 -2.49,-19.285 -7.45,-27.598 -4.97,-8.316 -11.47,-14.265 -19.5,-17.851 v 1.8 c 4,2.25 7.3,5.282 9.88,9.118 2.58,3.816 4.52,8.683 5.77,14.597 1.25,5.903 1.88,12.067 1.88,18.469 0,6.934 -0.55,13.266 -1.62,19 -0.81,4.496 -1.83,8.082 -3.04,10.801 -1.24,2.695 -2.86,5.297 -4.87,7.797 -2.02,2.515 -4.68,4.902 -8,7.183" /><path
         id="path88"
         style="fill:#231f20;fill-opacity:1;fill-rule:nonzero;stroke:none"
         d="m 2314.17,552.91 c 1.6,-1.683 2.8,-3.387 3.62,-5.066 0.58,-1.184 1.55,-4.25 2.88,-9.235 l 4.3,6.45 c 1.13,1.55 2.51,3.05 4.15,4.464 1.61,1.418 3.05,2.387 4.28,2.903 0.78,0.332 1.65,0.484 2.6,0.484 1.4,0 2.5,-0.367 3.33,-1.117 0.84,-0.75 1.25,-1.668 1.25,-2.734 0,-1.231 -0.25,-2.082 -0.73,-2.532 -0.92,-0.816 -1.95,-1.234 -3.12,-1.234 -0.68,0 -1.41,0.148 -2.19,0.449 -1.54,0.516 -2.58,0.785 -3.09,0.785 -0.78,0 -1.7,-0.468 -2.78,-1.367 -2.02,-1.703 -4.42,-4.969 -7.22,-9.816 l 4,-16.801 c 0.62,-2.566 1.13,-4.117 1.57,-4.617 0.41,-0.5 0.83,-0.75 1.27,-0.75 0.67,0 1.48,0.367 2.38,1.117 1.8,1.5 3.31,3.449 4.6,5.863 l 1.69,-0.879 c -2.04,-3.851 -4.64,-7.035 -7.81,-9.566 -1.78,-1.434 -3.3,-2.152 -4.53,-2.152 -1.82,0 -3.27,1.015 -4.35,3.066 -0.68,1.266 -2.1,6.754 -4.25,16.418 -5.07,-8.832 -9.14,-14.5 -12.2,-17.051 -1.99,-1.613 -3.9,-2.433 -5.77,-2.433 -1.3,0 -2.48,0.468 -3.57,1.418 -0.76,0.714 -1.16,1.664 -1.16,2.882 0,1.067 0.36,1.965 1.08,2.684 0.7,0.719 1.58,1.066 2.64,1.066 1.03,0 2.14,-0.515 3.31,-1.566 0.85,-0.75 1.5,-1.117 1.95,-1.117 0.4,0 0.9,0.269 1.52,0.785 1.53,1.23 3.61,3.898 6.25,7.996 2.63,4.102 4.36,7.066 5.18,8.902 -2.03,7.899 -3.11,12.082 -3.28,12.536 -0.76,2.113 -1.72,3.613 -2.93,4.496 -1.2,0.886 -2.97,1.32 -5.33,1.32 -0.74,0 -1.61,-0.035 -2.58,-0.102 v 1.766 l 13.04,2.285" /><path
         id="path90"
         style="fill:none;stroke:#231f20;stroke-width:6.49980021;stroke-linecap:butt;stroke-linejoin:miter;stroke-miterlimit:2.61310005;stroke-dasharray:none;stroke-opacity:1"
         d="M 1991.47,11.6367 V 725.152" /><path
         id="path92"
         style="fill:#231f20;fill-opacity:1;fill-rule:evenodd;stroke:none"
         d="m 1965.12,721 26.35,47.898 26.35,-47.898 h -52.7" /><path
         id="path94"
         style="fill:none;stroke:#231f20;stroke-width:6.49980021;stroke-linecap:butt;stroke-linejoin:miter;stroke-miterlimit:2.61310005;stroke-dasharray:none;stroke-opacity:1"
         d="m 1428.63,580.547 h 832.05" /><path
         id="path96"
         style="fill:#231f20;fill-opacity:1;fill-rule:evenodd;stroke:none"
         d="m 2256.53,606.895 47.9,-26.348 -47.9,-26.348 v 52.696" /><path
         id="path98"
         style="fill:#231f20;fill-opacity:1;fill-rule:nonzero;stroke:none"
         d="m 2029.07,763.277 c 1.1,-1.882 1.87,-3.652 2.3,-5.285 0.42,-1.648 0.83,-4.883 1.27,-9.699 l 2.15,-24.016 c 1.95,2.336 4.78,6.051 8.5,11.133 1.78,2.465 4,5.832 6.63,10.102 1.6,2.597 2.57,4.429 2.94,5.465 0.18,0.515 0.28,1.066 0.28,1.617 0,0.351 -0.1,0.648 -0.34,0.883 -0.23,0.218 -0.81,0.484 -1.78,0.8 -0.97,0.301 -1.77,0.883 -2.4,1.7 -0.63,0.835 -0.95,1.785 -0.95,2.867 0,1.332 0.4,2.402 1.19,3.218 0.76,0.817 1.75,1.215 2.91,1.215 1.43,0 2.65,-0.586 3.67,-1.781 1.02,-1.187 1.51,-2.82 1.51,-4.902 0,-2.567 -0.88,-5.516 -2.63,-8.817 -1.77,-3.3 -5.15,-8.367 -10.16,-15.199 -5,-6.851 -11.09,-14.301 -18.21,-22.367 -4.91,-5.566 -8.56,-9.082 -10.95,-10.535 -2.36,-1.43 -4.39,-2.164 -6.09,-2.164 -1.02,0 -1.91,0.383 -2.67,1.152 -0.77,0.766 -1.13,1.648 -1.13,2.664 0,1.266 0.51,2.418 1.58,3.465 1.05,1.035 2.2,1.551 3.43,1.551 0.65,0 1.2,-0.133 1.62,-0.434 0.26,-0.168 0.55,-0.633 0.85,-1.398 0.31,-0.75 0.6,-1.27 0.86,-1.535 0.16,-0.165 0.35,-0.231 0.59,-0.231 0.18,0 0.53,0.149 1.01,0.484 1.81,1.098 3.89,2.864 6.25,5.266 3.14,3.195 5.44,5.801 6.94,7.816 l -2.74,30.95 c -0.45,5.117 -1.12,8.23 -2.05,9.332 -0.91,1.097 -2.43,1.668 -4.58,1.668 -0.68,0 -1.92,-0.102 -3.66,-0.301 l -0.44,1.797 14.3,3.519" /><path
         id="path100"
         style="fill:none;stroke:#231f20;stroke-width:10.00059986;stroke-linecap:butt;stroke-linejoin:miter;stroke-miterlimit:2.61310005;stroke-dasharray:none;stroke-opacity:1"
         d="m 1974.45,675.965 h 38.64" /><path
         id="path102"
         style="fill:none;stroke:#231f20;stroke-width:10.00059986;stroke-linecap:butt;stroke-linejoin:miter;stroke-miterlimit:2.61310005;stroke-dasharray:none;stroke-opacity:1"
         d="m 2087.64,561.184 v 38.652" /><path
         id="path104"
         style="fill:#231f20;fill-opacity:1;fill-rule:nonzero;stroke:none"
         d="m 1939.9,718.609 16.12,7.864 h 1.61 v -55.914 c 0,-3.704 0.15,-6.02 0.45,-6.934 0.32,-0.902 0.97,-1.602 1.94,-2.102 0.98,-0.484 2.96,-0.765 5.96,-0.832 v -1.8 h -24.91 v 1.8 c 3.13,0.067 5.14,0.336 6.06,0.817 0.9,0.469 1.53,1.101 1.9,1.898 0.35,0.805 0.54,3.184 0.54,7.153 v 35.75 c 0,4.816 -0.17,7.898 -0.49,9.265 -0.23,1.051 -0.65,1.817 -1.25,2.301 -0.6,0.484 -1.31,0.734 -2.16,0.734 -1.21,0 -2.88,-0.504 -5.04,-1.519 l -0.73,1.519" /><path
         id="path106"
         style="fill:#231f20;fill-opacity:1;fill-rule:nonzero;stroke:none"
         d="m 2098.9,558.941 16.12,7.868 h 1.62 v -55.918 c 0,-3.7 0.15,-6.016 0.45,-6.934 0.31,-0.898 0.96,-1.602 1.93,-2.098 0.98,-0.484 2.97,-0.765 5.96,-0.836 v -1.796 h -24.91 v 1.796 c 3.13,0.071 5.15,0.336 6.07,0.817 0.9,0.469 1.53,1.101 1.9,1.902 0.35,0.801 0.53,3.18 0.53,7.149 v 35.75 c 0,4.816 -0.17,7.902 -0.48,9.269 -0.24,1.047 -0.65,1.817 -1.25,2.297 -0.61,0.484 -1.32,0.734 -2.17,0.734 -1.2,0 -2.88,-0.5 -5.03,-1.515 l -0.74,1.515" /><path
         id="path108"
         style="fill:none;stroke:#231f20;stroke-width:2.99909997;stroke-linecap:butt;stroke-linejoin:miter;stroke-miterlimit:2.61310005;stroke-dasharray:none;stroke-opacity:1"
         d="M 1424.67,580.008 H 2181.4" /><path
         id="path110"
         style="fill:none;stroke:#231f20;stroke-width:2.99909997;stroke-linecap:butt;stroke-linejoin:miter;stroke-miterlimit:2.61310005;stroke-dasharray:none;stroke-opacity:1"
         d="m 1426.8,484.594 h 756.73" /><path
         id="path112"
         style="fill:none;stroke:#231f20;stroke-width:2.99909997;stroke-linecap:butt;stroke-linejoin:miter;stroke-miterlimit:2.61310005;stroke-dasharray:none;stroke-opacity:1"
         d="m 1422.54,675.426 h 756.74" /><path
         id="path114"
         style="fill:none;stroke:#231f20;stroke-width:2.99909997;stroke-linecap:butt;stroke-linejoin:miter;stroke-miterlimit:2.61310005;stroke-dasharray:none;stroke-opacity:1"
         d="m 1428.92,295.637 h 756.74" /><path
         id="path116"
         style="fill:none;stroke:#231f20;stroke-width:2.99909997;stroke-linecap:butt;stroke-linejoin:miter;stroke-miterlimit:2.61310005;stroke-dasharray:none;stroke-opacity:1"
         d="m 1426.8,203.965 h 756.73" /><path
         id="path118"
         style="fill:none;stroke:#231f20;stroke-width:2.99909997;stroke-linecap:butt;stroke-linejoin:miter;stroke-miterlimit:2.61310005;stroke-dasharray:none;stroke-opacity:1"
         d="M 1615.04,11.957 V 766.082" /><path
         id="path120"
         style="fill:none;stroke:#231f20;stroke-width:2.99909997;stroke-linecap:butt;stroke-linejoin:miter;stroke-miterlimit:2.61310005;stroke-dasharray:none;stroke-opacity:1"
         d="M 1706.48,203.465 V 674.922" /><path
         id="path122"
         style="fill:none;stroke:#231f20;stroke-width:2.99909997;stroke-linecap:butt;stroke-linejoin:miter;stroke-miterlimit:2.61310005;stroke-dasharray:none;stroke-opacity:1"
         d="M 1991.47,204.477 V 767.914" /><path
         id="path124"
         style="fill:none;stroke:#231f20;stroke-width:2.99909997;stroke-linecap:butt;stroke-linejoin:miter;stroke-miterlimit:2.61310005;stroke-dasharray:none;stroke-opacity:1"
         d="M 1514.09,16.3359 V 769.094" /><path
         id="path126"
         style="fill:none;stroke:#231f20;stroke-width:2.99909997;stroke-linecap:butt;stroke-linejoin:miter;stroke-miterlimit:2.61310005;stroke-dasharray:none;stroke-opacity:1"
         d="M 1706.48,8.08984 V 775.93" /><path
         id="path128"
         style="fill:none;stroke:#231f20;stroke-width:2.99909997;stroke-linecap:butt;stroke-linejoin:miter;stroke-miterlimit:2.61310005;stroke-dasharray:none;stroke-opacity:1"
         d="M 1992.67,10.2812 V 767.914" /><path
         id="path130"
         style="fill:none;stroke:#231f20;stroke-width:2.99909997;stroke-linecap:butt;stroke-linejoin:miter;stroke-miterlimit:2.61310005;stroke-dasharray:none;stroke-opacity:1"
         d="M 2085.38,12.4688 V 767.914" /><path
         id="path132"
         style="fill:none;stroke:#231f20;stroke-width:2.99909997;stroke-linecap:butt;stroke-linejoin:miter;stroke-miterlimit:2.61310005;stroke-dasharray:none;stroke-opacity:1"
         d="M 2179.43,12.4688 V 770.055" /><path
         id="path134"
         style="fill:none;stroke:#231f20;stroke-width:2.99909997;stroke-linecap:butt;stroke-linejoin:miter;stroke-miterlimit:2.61310005;stroke-dasharray:none;stroke-opacity:1"
         d="m 1422.67,768.898 h 756.74" /><path
         id="path136"
         style="fill:#231f20;fill-opacity:1;fill-rule:nonzero;stroke:none"
         d="m 1966.41,568.891 c 4.16,0 7.68,-1.75 10.53,-5.235 2.83,-3.48 4.27,-8.98 4.27,-16.5 0,-6.449 -1.07,-13.015 -3.18,-19.734 -2.1,-6.695 -5.09,-12.512 -8.94,-17.43 -3.05,-3.867 -6.27,-6.668 -9.62,-8.383 -1.94,-0.984 -4.21,-1.468 -6.78,-1.468 -4.23,0 -7.76,1.734 -10.62,5.218 -2.84,3.485 -4.28,9 -4.28,16.547 0,7.469 1.44,14.949 4.3,22.469 3.35,8.785 7.64,15.465 12.85,20.016 3.42,3 7.24,4.5 11.47,4.5 z m 0.05,-2.551 c -1.89,0 -3.8,-0.731 -5.74,-2.219 -1.93,-1.48 -3.93,-4.566 -5.99,-9.246 -2.07,-4.684 -4.05,-10.734 -5.94,-18.117 -2.45,-9.668 -3.67,-17.903 -3.67,-24.699 0,-3.403 0.74,-5.918 2.2,-7.602 1.47,-1.684 3.24,-2.516 5.32,-2.516 1.98,0 3.68,0.653 5.08,1.95 3.74,3.515 6.96,9.535 9.62,18.015 4.33,13.903 6.5,25.199 6.5,33.903 0,3.601 -0.73,6.265 -2.2,7.984 -1.46,1.699 -3.2,2.547 -5.18,2.547" /><path
         id="path138"
         style="fill:none;stroke:#231f20;stroke-width:2.99909997;stroke-linecap:butt;stroke-linejoin:miter;stroke-miterlimit:2.61310005;stroke-dasharray:none;stroke-opacity:1"
         d="M 1896.3,10.2812 V 767.914" /><path
         id="path140"
         style="fill:none;stroke:#231f20;stroke-width:2.99909997;stroke-linecap:butt;stroke-linejoin:miter;stroke-miterlimit:2.61310005;stroke-dasharray:none;stroke-opacity:1"
         d="m 1426.8,106.711 h 756.73" /><path
         id="path142"
         style="fill:none;stroke:#231f20;stroke-width:2.99909997;stroke-linecap:butt;stroke-linejoin:miter;stroke-miterlimit:2.61310005;stroke-dasharray:none;stroke-opacity:1"
         d="m 1426.8,8.08984 h 756.73" /><path
         id="path144"
         style="fill:none;stroke:#231f20;stroke-width:2.99909997;stroke-linecap:butt;stroke-linejoin:miter;stroke-miterlimit:2.61310005;stroke-dasharray:none;stroke-opacity:1"
         d="M 1424.72,18.8594 V 771.617" /><path
         id="path146"
         style="fill:none;stroke:#231f20;stroke-width:10.00059986;stroke-linecap:butt;stroke-linejoin:miter;stroke-miterlimit:2.61310005;stroke-dasharray:none;stroke-opacity:1"
         d="M 537.418,866.449 C 521.234,1062.32 569.043,1207.25 189.746,1210.42" /><path
         id="path148"
         style="fill:none;stroke:#231f20;stroke-width:10.00059986;stroke-linecap:butt;stroke-linejoin:miter;stroke-miterlimit:2.61310005;stroke-dasharray:none;stroke-opacity:1"
         d="m 603.281,1610.36 c 16.184,-195.88 -31.625,-340.81 347.668,-343.97" /><path
         id="path150"
         style="fill:#231f20;fill-opacity:1;fill-rule:nonzero;stroke:none"
         d="m 2308.3,1223.2 c 1.59,-1.68 2.8,-3.39 3.61,-5.07 0.59,-1.18 1.55,-4.25 2.89,-9.23 l 4.3,6.45 c 1.13,1.55 2.51,3.05 4.15,4.46 1.61,1.42 3.05,2.39 4.28,2.9 0.78,0.34 1.65,0.49 2.6,0.49 1.4,0 2.5,-0.37 3.33,-1.12 0.84,-0.75 1.25,-1.67 1.25,-2.73 0,-1.23 -0.25,-2.08 -0.73,-2.54 -0.92,-0.81 -1.95,-1.23 -3.12,-1.23 -0.68,0 -1.41,0.15 -2.2,0.45 -1.53,0.52 -2.57,0.78 -3.08,0.78 -0.78,0 -1.7,-0.46 -2.78,-1.36 -2.02,-1.7 -4.42,-4.97 -7.22,-9.82 l 4,-16.8 c 0.62,-2.56 1.13,-4.12 1.56,-4.62 0.42,-0.5 0.84,-0.75 1.27,-0.75 0.69,0 1.48,0.37 2.39,1.12 1.8,1.5 3.31,3.45 4.6,5.87 l 1.69,-0.88 c -2.04,-3.86 -4.64,-7.04 -7.81,-9.57 -1.78,-1.44 -3.3,-2.15 -4.53,-2.15 -1.82,0 -3.27,1.01 -4.35,3.06 -0.69,1.27 -2.1,6.76 -4.26,16.42 -5.06,-8.83 -9.13,-14.5 -12.19,-17.05 -1.99,-1.61 -3.9,-2.43 -5.77,-2.43 -1.3,0 -2.48,0.47 -3.57,1.42 -0.76,0.71 -1.16,1.66 -1.16,2.88 0,1.06 0.36,1.96 1.08,2.68 0.7,0.72 1.58,1.07 2.63,1.07 1.04,0 2.15,-0.52 3.32,-1.57 0.85,-0.75 1.5,-1.12 1.95,-1.12 0.4,0 0.9,0.27 1.52,0.79 1.53,1.23 3.61,3.9 6.25,8 2.63,4.1 4.36,7.06 5.18,8.9 -2.03,7.9 -3.11,12.08 -3.28,12.53 -0.75,2.12 -1.72,3.62 -2.94,4.5 -1.2,0.89 -2.96,1.32 -5.32,1.32 -0.74,0 -1.61,-0.04 -2.58,-0.1 v 1.76 l 13.04,2.29" /><path
         id="path152"
         style="fill:none;stroke:#231f20;stroke-width:6.49980021;stroke-linecap:butt;stroke-linejoin:miter;stroke-miterlimit:2.61310005;stroke-dasharray:none;stroke-opacity:1"
         d="M 1607.37,865.895 V 1586.91" /><path
         id="path154"
         style="fill:#231f20;fill-opacity:1;fill-rule:evenodd;stroke:none"
         d="m 1581.02,1582.76 26.35,47.9 26.34,-47.9 h -52.69" /><path
         id="path156"
         style="fill:none;stroke:#231f20;stroke-width:6.49980021;stroke-linecap:butt;stroke-linejoin:miter;stroke-miterlimit:2.61310005;stroke-dasharray:none;stroke-opacity:1"
         d="m 1422.76,1250.84 h 832.05" /><path
         id="path158"
         style="fill:#231f20;fill-opacity:1;fill-rule:evenodd;stroke:none"
         d="m 2250.66,1277.18 47.9,-26.34 -47.9,-26.35 v 52.69" /><path
         id="path160"
         style="fill:#231f20;fill-opacity:1;fill-rule:nonzero;stroke:none"
         d="m 1557.46,1621.56 c 1.1,-1.88 1.86,-3.65 2.3,-5.28 0.42,-1.65 0.83,-4.89 1.26,-9.7 l 2.15,-24.02 c 1.95,2.34 4.79,6.05 8.51,11.14 1.78,2.46 3.99,5.83 6.63,10.09 1.6,2.6 2.57,4.44 2.93,5.47 0.19,0.52 0.28,1.07 0.28,1.62 0,0.35 -0.09,0.65 -0.33,0.88 -0.23,0.22 -0.81,0.49 -1.78,0.8 -0.97,0.3 -1.77,0.89 -2.4,1.7 -0.63,0.84 -0.96,1.79 -0.96,2.87 0,1.33 0.41,2.4 1.19,3.22 0.77,0.81 1.75,1.21 2.92,1.21 1.43,0 2.65,-0.58 3.66,-1.78 1.02,-1.19 1.52,-2.82 1.52,-4.9 0,-2.57 -0.88,-5.52 -2.63,-8.82 -1.77,-3.3 -5.15,-8.36 -10.17,-15.2 -5,-6.85 -11.08,-14.3 -18.2,-22.36 -4.91,-5.57 -8.57,-9.09 -10.95,-10.54 -2.37,-1.43 -4.4,-2.16 -6.1,-2.16 -1.01,0 -1.9,0.38 -2.67,1.15 -0.76,0.76 -1.13,1.65 -1.13,2.66 0,1.27 0.52,2.42 1.58,3.47 1.05,1.03 2.2,1.55 3.44,1.55 0.65,0 1.2,-0.13 1.61,-0.43 0.27,-0.17 0.56,-0.64 0.86,-1.4 0.31,-0.75 0.59,-1.27 0.86,-1.54 0.15,-0.16 0.35,-0.23 0.58,-0.23 0.19,0 0.54,0.15 1.02,0.49 1.8,1.09 3.88,2.86 6.25,5.26 3.13,3.2 5.43,5.8 6.93,7.81 l -2.73,30.96 c -0.45,5.11 -1.13,8.23 -2.05,9.33 -0.91,1.1 -2.43,1.66 -4.58,1.66 -0.69,0 -1.92,-0.09 -3.67,-0.29 l -0.43,1.79 14.3,3.52" /><path
         id="path162"
         style="fill:none;stroke:#231f20;stroke-width:10.00059986;stroke-linecap:butt;stroke-linejoin:miter;stroke-miterlimit:2.61310005;stroke-dasharray:none;stroke-opacity:1"
         d="m 1588.95,1342.16 h 38.65" /><path
         id="path164"
         style="fill:none;stroke:#231f20;stroke-width:10.00059986;stroke-linecap:butt;stroke-linejoin:miter;stroke-miterlimit:2.61310005;stroke-dasharray:none;stroke-opacity:1"
         d="m 1702.14,1227.38 v 38.64" /><path
         id="path166"
         style="fill:#231f20;fill-opacity:1;fill-rule:nonzero;stroke:none"
         d="m 1560.09,1373 16.12,7.87 h 1.61 v -55.92 c 0,-3.7 0.16,-6.02 0.46,-6.93 0.31,-0.9 0.96,-1.61 1.93,-2.1 0.98,-0.49 2.97,-0.77 5.97,-0.84 v -1.79 h -24.92 v 1.79 c 3.13,0.07 5.15,0.34 6.06,0.82 0.91,0.47 1.54,1.1 1.91,1.9 0.35,0.8 0.53,3.18 0.53,7.15 v 35.75 c 0,4.82 -0.17,7.9 -0.48,9.27 -0.24,1.05 -0.66,1.82 -1.25,2.3 -0.6,0.48 -1.32,0.73 -2.17,0.73 -1.2,0 -2.88,-0.5 -5.04,-1.52 l -0.73,1.52" /><path
         id="path168"
         style="fill:#231f20;fill-opacity:1;fill-rule:nonzero;stroke:none"
         d="m 1715.09,1229.29 16.11,7.87 h 1.62 v -55.92 c 0,-3.7 0.15,-6.02 0.45,-6.94 0.32,-0.89 0.96,-1.6 1.93,-2.09 0.99,-0.49 2.97,-0.77 5.97,-0.84 v -1.8 h -24.92 v 1.8 c 3.14,0.07 5.15,0.34 6.07,0.82 0.9,0.47 1.53,1.1 1.9,1.9 0.35,0.8 0.53,3.18 0.53,7.15 v 35.75 c 0,4.81 -0.16,7.9 -0.48,9.27 -0.23,1.04 -0.65,1.81 -1.25,2.29 -0.6,0.49 -1.32,0.74 -2.17,0.74 -1.2,0 -2.88,-0.5 -5.03,-1.52 l -0.73,1.52" /><path
         id="path170"
         style="fill:none;stroke:#231f20;stroke-width:2.99909997;stroke-linecap:butt;stroke-linejoin:miter;stroke-miterlimit:2.61310005;stroke-dasharray:none;stroke-opacity:1"
         d="m 1420.19,1438.37 h 756.73" /><path
         id="path172"
         style="fill:none;stroke:#231f20;stroke-width:2.99909997;stroke-linecap:butt;stroke-linejoin:miter;stroke-miterlimit:2.61310005;stroke-dasharray:none;stroke-opacity:1"
         d="m 1422.31,1342.95 h 756.74" /><path
         id="path174"
         style="fill:none;stroke:#231f20;stroke-width:2.99909997;stroke-linecap:butt;stroke-linejoin:miter;stroke-miterlimit:2.61310005;stroke-dasharray:none;stroke-opacity:1"
         d="m 1418.06,1533.79 h 756.73" /><path
         id="path176"
         style="fill:none;stroke:#231f20;stroke-width:2.99909997;stroke-linecap:butt;stroke-linejoin:miter;stroke-miterlimit:2.61310005;stroke-dasharray:none;stroke-opacity:1"
         d="m 1424.44,1154 h 756.73" /><path
         id="path178"
         style="fill:none;stroke:#231f20;stroke-width:2.99909997;stroke-linecap:butt;stroke-linejoin:miter;stroke-miterlimit:2.61310005;stroke-dasharray:none;stroke-opacity:1"
         d="m 1422.31,1062.32 h 756.74" /><path
         id="path180"
         style="fill:none;stroke:#231f20;stroke-width:2.99909997;stroke-linecap:butt;stroke-linejoin:miter;stroke-miterlimit:2.61310005;stroke-dasharray:none;stroke-opacity:1"
         d="M 1610.56,870.316 V 1624.44" /><path
         id="path182"
         style="fill:none;stroke:#231f20;stroke-width:2.99909997;stroke-linecap:butt;stroke-linejoin:miter;stroke-miterlimit:2.61310005;stroke-dasharray:none;stroke-opacity:1"
         d="m 1701.99,1061.82 v 471.46" /><path
         id="path184"
         style="fill:none;stroke:#231f20;stroke-width:2.99909997;stroke-linecap:butt;stroke-linejoin:miter;stroke-miterlimit:2.61310005;stroke-dasharray:none;stroke-opacity:1"
         d="m 1607.37,1058.73 v 571.93" /><path
         id="path186"
         style="fill:none;stroke:#231f20;stroke-width:2.99909997;stroke-linecap:butt;stroke-linejoin:miter;stroke-miterlimit:2.61310005;stroke-dasharray:none;stroke-opacity:1"
         d="M 1509.61,874.695 V 1627.45" /><path
         id="path188"
         style="fill:none;stroke:#231f20;stroke-width:2.99909997;stroke-linecap:butt;stroke-linejoin:miter;stroke-miterlimit:2.61310005;stroke-dasharray:none;stroke-opacity:1"
         d="M 1701.99,866.449 V 1634.29" /><path
         id="path190"
         style="fill:none;stroke:#231f20;stroke-width:2.99909997;stroke-linecap:butt;stroke-linejoin:miter;stroke-miterlimit:2.61310005;stroke-dasharray:none;stroke-opacity:1"
         d="M 1988.18,868.641 V 1626.27" /><path
         id="path192"
         style="fill:none;stroke:#231f20;stroke-width:2.99909997;stroke-linecap:butt;stroke-linejoin:miter;stroke-miterlimit:2.61310005;stroke-dasharray:none;stroke-opacity:1"
         d="M 2080.89,870.828 V 1626.27" /><path
         id="path194"
         style="fill:none;stroke:#231f20;stroke-width:2.99909997;stroke-linecap:butt;stroke-linejoin:miter;stroke-miterlimit:2.61310005;stroke-dasharray:none;stroke-opacity:1"
         d="M 2174.95,870.828 V 1628.41" /><path
         id="path196"
         style="fill:none;stroke:#231f20;stroke-width:2.99909997;stroke-linecap:butt;stroke-linejoin:miter;stroke-miterlimit:2.61310005;stroke-dasharray:none;stroke-opacity:1"
         d="m 1418.18,1627.26 h 756.74" /><path
         id="path198"
         style="fill:#231f20;fill-opacity:1;fill-rule:nonzero;stroke:none"
         d="m 1580.91,1235.08 c 4.17,0 7.69,-1.75 10.54,-5.23 2.83,-3.49 4.26,-8.98 4.26,-16.5 0,-6.45 -1.07,-13.02 -3.18,-19.74 -2.1,-6.7 -5.08,-12.51 -8.93,-17.43 -3.05,-3.87 -6.27,-6.67 -9.62,-8.38 -1.95,-0.98 -4.21,-1.47 -6.78,-1.47 -4.24,0 -7.77,1.74 -10.62,5.22 -2.85,3.48 -4.28,9 -4.28,16.55 0,7.46 1.43,14.95 4.3,22.46 3.35,8.79 7.63,15.47 12.85,20.02 3.41,3 7.23,4.5 11.46,4.5 z m 0.05,-2.55 c -1.88,0 -3.8,-0.73 -5.73,-2.22 -1.93,-1.48 -3.93,-4.56 -6,-9.25 -2.07,-4.68 -4.05,-10.73 -5.93,-18.11 -2.45,-9.67 -3.67,-17.9 -3.67,-24.7 0,-3.4 0.73,-5.92 2.2,-7.6 1.47,-1.69 3.23,-2.52 5.32,-2.52 1.98,0 3.68,0.65 5.08,1.95 3.73,3.52 6.95,9.54 9.62,18.02 4.33,13.9 6.5,25.2 6.5,33.9 0,3.6 -0.74,6.26 -2.2,7.98 -1.47,1.7 -3.2,2.55 -5.19,2.55" /><path
         id="path200"
         style="fill:none;stroke:#231f20;stroke-width:2.99909997;stroke-linecap:butt;stroke-linejoin:miter;stroke-miterlimit:2.61310005;stroke-dasharray:none;stroke-opacity:1"
         d="M 1891.82,868.641 V 1626.27" /><path
         id="path202"
         style="fill:none;stroke:#231f20;stroke-width:2.99909997;stroke-linecap:butt;stroke-linejoin:miter;stroke-miterlimit:2.61310005;stroke-dasharray:none;stroke-opacity:1"
         d="m 1422.31,965.066 h 756.74" /><path
         id="path204"
         style="fill:none;stroke:#231f20;stroke-width:2.99909997;stroke-linecap:butt;stroke-linejoin:miter;stroke-miterlimit:2.61310005;stroke-dasharray:none;stroke-opacity:1"
         d="m 1422.31,866.449 h 756.74" /><path
         id="path206"
         style="fill:none;stroke:#231f20;stroke-width:2.99909997;stroke-linecap:butt;stroke-linejoin:miter;stroke-miterlimit:2.61310005;stroke-dasharray:none;stroke-opacity:1"
         d="M 1420.24,866.449 V 1629.98" /><path
         id="path208"
         style="fill:none;stroke:#231f20;stroke-width:2.99909997;stroke-linecap:butt;stroke-linejoin:miter;stroke-miterlimit:2.61310005;stroke-dasharray:none;stroke-opacity:1"
         d="M 1800.52,868.641 V 1626.27" /><path
         id="path210"
         style="fill:none;stroke:#231f20;stroke-width:10.00059986;stroke-linecap:butt;stroke-linejoin:miter;stroke-miterlimit:2.61310005;stroke-dasharray:none;stroke-opacity:1"
         d="m 1610.56,1250.84 c 11.01,35.89 42.65,66.54 91.87,92.71 97.29,51.75 261.32,101.9 472.52,124.65" /><path
         id="path212"
         style="fill:#231f20;fill-opacity:1;fill-rule:nonzero;stroke:none"
         d="m 1088.78,364.84 c 1.6,-1.684 2.8,-3.387 3.62,-5.067 0.58,-1.183 1.55,-4.25 2.88,-9.234 l 4.3,6.449 c 1.13,1.551 2.52,3.051 4.15,4.465 1.62,1.418 3.05,2.387 4.29,2.902 0.78,0.333 1.64,0.485 2.59,0.485 1.4,0 2.5,-0.367 3.34,-1.117 0.83,-0.75 1.25,-1.668 1.25,-2.735 0,-1.23 -0.25,-2.082 -0.74,-2.531 -0.91,-0.816 -1.95,-1.234 -3.11,-1.234 -0.69,0 -1.42,0.148 -2.2,0.449 -1.54,0.516 -2.57,0.785 -3.09,0.785 -0.78,0 -1.7,-0.469 -2.78,-1.367 -2.01,-1.703 -4.42,-4.969 -7.22,-9.817 l 4,-16.8 c 0.62,-2.567 1.14,-4.118 1.57,-4.618 0.42,-0.5 0.83,-0.75 1.27,-0.75 0.68,0 1.48,0.368 2.38,1.118 1.8,1.5 3.32,3.449 4.6,5.867 l 1.7,-0.883 c -2.05,-3.852 -4.65,-7.031 -7.81,-9.566 -1.79,-1.434 -3.31,-2.153 -4.54,-2.153 -1.82,0 -3.27,1.02 -4.35,3.067 -0.68,1.269 -2.1,6.754 -4.25,16.418 -5.07,-8.832 -9.13,-14.5 -12.2,-17.051 -1.98,-1.613 -3.9,-2.434 -5.77,-2.434 -1.29,0 -2.48,0.469 -3.56,1.418 -0.77,0.715 -1.17,1.668 -1.17,2.883 0,1.066 0.37,1.965 1.09,2.684 0.69,0.718 1.58,1.066 2.63,1.066 1.03,0 2.15,-0.516 3.31,-1.566 0.85,-0.75 1.5,-1.118 1.95,-1.118 0.41,0 0.9,0.27 1.52,0.786 1.53,1.23 3.62,3.898 6.25,7.996 2.63,4.105 4.37,7.07 5.18,8.902 -2.03,7.899 -3.11,12.086 -3.28,12.535 -0.75,2.114 -1.72,3.614 -2.93,4.5 -1.2,0.883 -2.97,1.317 -5.32,1.317 -0.75,0 -1.62,-0.036 -2.58,-0.102 v 1.766 l 13.03,2.285" /><path
         id="path214"
         style="fill:none;stroke:#231f20;stroke-width:6.49980021;stroke-linecap:butt;stroke-linejoin:miter;stroke-miterlimit:2.61310005;stroke-dasharray:none;stroke-opacity:1"
         d="M 576.137,8.08984 V 725.152" /><path
         id="path216"
         style="fill:#231f20;fill-opacity:1;fill-rule:evenodd;stroke:none"
         d="M 549.789,721 576.137,768.898 602.484,721 h -52.695" /><path
         id="path218"
         style="fill:none;stroke:#231f20;stroke-width:6.49980021;stroke-linecap:butt;stroke-linejoin:miter;stroke-miterlimit:2.61310005;stroke-dasharray:none;stroke-opacity:1"
         d="M 203.246,392.477 H 1035.3" /><path
         id="path220"
         style="fill:#231f20;fill-opacity:1;fill-rule:evenodd;stroke:none"
         d="m 1031.14,418.824 47.9,-26.347 -47.9,-26.348 v 52.695" /><path
         id="path222"
         style="fill:#231f20;fill-opacity:1;fill-rule:nonzero;stroke:none"
         d="m 529.148,767.504 c 1.102,-1.883 1.864,-3.652 2.297,-5.285 0.418,-1.649 0.836,-4.883 1.27,-9.699 l 2.148,-24.016 c 1.949,2.332 4.785,6.051 8.5,11.133 1.785,2.465 4,5.832 6.633,10.097 1.602,2.602 2.57,4.434 2.934,5.469 0.183,0.516 0.285,1.067 0.285,1.617 0,0.352 -0.102,0.649 -0.336,0.883 -0.231,0.215 -0.817,0.485 -1.781,0.801 -0.969,0.301 -1.766,0.883 -2.399,1.699 -0.637,0.836 -0.953,1.785 -0.953,2.867 0,1.332 0.402,2.403 1.184,3.219 0.765,0.816 1.75,1.215 2.918,1.215 1.433,0 2.652,-0.586 3.664,-1.785 1.019,-1.184 1.519,-2.817 1.519,-4.899 0,-2.566 -0.883,-5.515 -2.636,-8.816 -1.766,-3.301 -5.145,-8.367 -10.165,-15.199 -5,-6.852 -11.082,-14.301 -18.199,-22.367 -4.918,-5.567 -8.566,-9.083 -10.949,-10.536 -2.367,-1.429 -4.402,-2.164 -6.102,-2.164 -1.015,0 -1.898,0.383 -2.664,1.149 -0.769,0.765 -1.132,1.652 -1.132,2.668 0,1.265 0.515,2.418 1.578,3.465 1.054,1.035 2.203,1.55 3.437,1.55 0.649,0 1.199,-0.132 1.617,-0.433 0.266,-0.168 0.547,-0.633 0.848,-1.403 0.316,-0.746 0.598,-1.265 0.867,-1.531 0.149,-0.164 0.352,-0.234 0.582,-0.234 0.184,0 0.535,0.152 1.02,0.488 1.797,1.098 3.883,2.863 6.25,5.266 3.133,3.195 5.433,5.797 6.933,7.812 l -2.738,30.953 c -0.445,5.117 -1.129,8.231 -2.047,9.332 -0.918,1.098 -2.433,1.664 -4.586,1.664 -0.683,0 -1.914,-0.097 -3.664,-0.3 l -0.433,1.8 14.3,3.52" /><path
         id="path224"
         style="fill:none;stroke:#231f20;stroke-width:10.00059986;stroke-linecap:butt;stroke-linejoin:miter;stroke-miterlimit:2.61310005;stroke-dasharray:none;stroke-opacity:1"
         d="m 557.719,484.352 h 38.652" /><path
         id="path226"
         style="fill:none;stroke:#231f20;stroke-width:10.00059986;stroke-linecap:butt;stroke-linejoin:miter;stroke-miterlimit:2.61310005;stroke-dasharray:none;stroke-opacity:1"
         d="m 670.914,369.57 v 38.653" /><path
         id="path228"
         style="fill:#231f20;fill-opacity:1;fill-rule:nonzero;stroke:none"
         d="m 609.402,510.52 16.118,7.867 h 1.617 v -55.918 c 0,-3.699 0.148,-6.016 0.449,-6.934 0.32,-0.898 0.969,-1.601 1.934,-2.097 0.984,-0.485 2.968,-0.766 5.968,-0.836 v -1.797 H 610.57 v 1.797 c 3.133,0.07 5.153,0.336 6.067,0.816 0.902,0.469 1.535,1.102 1.898,1.902 0.352,0.801 0.535,3.184 0.535,7.149 v 35.75 c 0,4.816 -0.164,7.902 -0.484,9.269 -0.231,1.047 -0.648,1.817 -1.25,2.297 -0.602,0.485 -1.313,0.735 -2.164,0.735 -1.203,0 -2.883,-0.5 -5.035,-1.516 l -0.735,1.516" /><path
         id="path230"
         style="fill:#231f20;fill-opacity:1;fill-rule:nonzero;stroke:none"
         d="m 683.855,357.262 16.118,7.867 h 1.617 v -55.918 c 0,-3.699 0.148,-6.016 0.449,-6.934 0.316,-0.898 0.965,-1.601 1.934,-2.097 0.984,-0.485 2.968,-0.766 5.965,-0.836 v -1.797 h -24.915 v 1.797 c 3.133,0.07 5.149,0.336 6.067,0.816 0.898,0.469 1.531,1.102 1.898,1.902 0.352,0.801 0.535,3.18 0.535,7.149 v 35.75 c 0,4.816 -0.168,7.902 -0.484,9.269 -0.234,1.047 -0.648,1.817 -1.25,2.297 -0.601,0.485 -1.316,0.735 -2.164,0.735 -1.203,0 -2.883,-0.5 -5.035,-1.516 l -0.735,1.516" /><path
         id="path232"
         style="fill:none;stroke:#231f20;stroke-width:2.99909997;stroke-linecap:butt;stroke-linejoin:miter;stroke-miterlimit:2.61310005;stroke-dasharray:none;stroke-opacity:1"
         d="M 200.672,580.008 H 957.406" /><path
         id="path234"
         style="fill:none;stroke:#231f20;stroke-width:2.99909997;stroke-linecap:butt;stroke-linejoin:miter;stroke-miterlimit:2.61310005;stroke-dasharray:none;stroke-opacity:1"
         d="M 202.797,484.594 H 959.531" /><path
         id="path236"
         style="fill:none;stroke:#231f20;stroke-width:2.99909997;stroke-linecap:butt;stroke-linejoin:miter;stroke-miterlimit:2.61310005;stroke-dasharray:none;stroke-opacity:1"
         d="M 198.543,675.426 H 955.277" /><path
         id="path238"
         style="fill:none;stroke:#231f20;stroke-width:2.99909997;stroke-linecap:butt;stroke-linejoin:miter;stroke-miterlimit:2.61310005;stroke-dasharray:none;stroke-opacity:1"
         d="M 204.922,295.637 H 961.656" /><path
         id="path240"
         style="fill:none;stroke:#231f20;stroke-width:2.99909997;stroke-linecap:butt;stroke-linejoin:miter;stroke-miterlimit:2.61310005;stroke-dasharray:none;stroke-opacity:1"
         d="M 202.797,203.965 H 959.531" /><path
         id="path242"
         style="fill:none;stroke:#231f20;stroke-width:2.99909997;stroke-linecap:butt;stroke-linejoin:miter;stroke-miterlimit:2.61310005;stroke-dasharray:none;stroke-opacity:1"
         d="M 391.043,11.957 V 766.082" /><path
         id="path244"
         style="fill:none;stroke:#231f20;stroke-width:2.99909997;stroke-linecap:butt;stroke-linejoin:miter;stroke-miterlimit:2.61310005;stroke-dasharray:none;stroke-opacity:1"
         d="M 482.477,203.465 V 674.922" /><path
         id="path246"
         style="fill:none;stroke:#231f20;stroke-width:2.99909997;stroke-linecap:butt;stroke-linejoin:miter;stroke-miterlimit:2.61310005;stroke-dasharray:none;stroke-opacity:1"
         d="M 576.137,200.934 V 772.855" /><path
         id="path248"
         style="fill:none;stroke:#231f20;stroke-width:2.99909997;stroke-linecap:butt;stroke-linejoin:miter;stroke-miterlimit:2.61310005;stroke-dasharray:none;stroke-opacity:1"
         d="M 290.094,16.3359 V 769.094" /><path
         id="path250"
         style="fill:none;stroke:#231f20;stroke-width:2.99909997;stroke-linecap:butt;stroke-linejoin:miter;stroke-miterlimit:2.61310005;stroke-dasharray:none;stroke-opacity:1"
         d="M 482.477,8.08984 V 775.93" /><path
         id="path252"
         style="fill:none;stroke:#231f20;stroke-width:2.99909997;stroke-linecap:butt;stroke-linejoin:miter;stroke-miterlimit:2.61310005;stroke-dasharray:none;stroke-opacity:1"
         d="M 768.668,10.2812 V 767.914" /><path
         id="path254"
         style="fill:none;stroke:#231f20;stroke-width:2.99909997;stroke-linecap:butt;stroke-linejoin:miter;stroke-miterlimit:2.61310005;stroke-dasharray:none;stroke-opacity:1"
         d="M 861.379,12.4688 V 767.914" /><path
         id="path256"
         style="fill:none;stroke:#231f20;stroke-width:2.99909997;stroke-linecap:butt;stroke-linejoin:miter;stroke-miterlimit:2.61310005;stroke-dasharray:none;stroke-opacity:1"
         d="M 955.43,12.4688 V 770.055" /><path
         id="path258"
         style="fill:none;stroke:#231f20;stroke-width:2.99909997;stroke-linecap:butt;stroke-linejoin:miter;stroke-miterlimit:2.61310005;stroke-dasharray:none;stroke-opacity:1"
         d="M 198.668,768.898 H 955.406" /><path
         id="path260"
         style="fill:#231f20;fill-opacity:1;fill-rule:nonzero;stroke:none"
         d="m 549.684,377.277 c 4.164,0 7.683,-1.75 10.531,-5.234 2.836,-3.481 4.269,-8.981 4.269,-16.5 0,-6.445 -1.07,-13.016 -3.183,-19.734 -2.102,-6.696 -5.086,-12.512 -8.934,-17.43 -3.051,-3.867 -6.269,-6.668 -9.617,-8.383 -1.949,-0.984 -4.215,-1.469 -6.785,-1.469 -4.231,0 -7.762,1.735 -10.613,5.219 -2.852,3.484 -4.286,9 -4.286,16.547 0,7.469 1.434,14.949 4.301,22.469 3.352,8.785 7.633,15.465 12.848,20.015 3.422,3 7.234,4.5 11.469,4.5 z m 0.05,-2.55 c -1.882,0 -3.8,-0.731 -5.734,-2.219 -1.934,-1.481 -3.934,-4.567 -6,-9.246 -2.066,-4.684 -4.051,-10.735 -5.934,-18.117 -2.449,-9.668 -3.668,-17.903 -3.668,-24.7 0,-3.398 0.735,-5.918 2.204,-7.601 1.464,-1.684 3.23,-2.516 5.316,-2.516 1.984,0 3.68,0.652 5.082,1.949 3.734,3.516 6.949,9.535 9.617,18.016 4.332,13.902 6.5,25.199 6.5,33.902 0,3.602 -0.734,6.266 -2.199,7.985 -1.469,1.699 -3.199,2.547 -5.184,2.547" /><path
         id="path262"
         style="fill:none;stroke:#231f20;stroke-width:2.99909997;stroke-linecap:butt;stroke-linejoin:miter;stroke-miterlimit:2.61310005;stroke-dasharray:none;stroke-opacity:1"
         d="M 672.301,10.2812 V 767.914" /><path
         id="path264"
         style="fill:none;stroke:#231f20;stroke-width:2.99909997;stroke-linecap:butt;stroke-linejoin:miter;stroke-miterlimit:2.61310005;stroke-dasharray:none;stroke-opacity:1"
         d="M 202.797,106.711 H 959.531" /><path
         id="path266"
         style="fill:none;stroke:#231f20;stroke-width:2.99909997;stroke-linecap:butt;stroke-linejoin:miter;stroke-miterlimit:2.61310005;stroke-dasharray:none;stroke-opacity:1"
         d="M 202.797,8.08984 H 959.531" /><path
         id="path268"
         style="fill:none;stroke:#231f20;stroke-width:2.99909997;stroke-linecap:butt;stroke-linejoin:miter;stroke-miterlimit:2.61310005;stroke-dasharray:none;stroke-opacity:1"
         d="M 200.723,18.8594 V 771.617" /><path
         id="path270"
         style="fill:none;stroke:#231f20;stroke-width:10.00059986;stroke-linecap:butt;stroke-linejoin:miter;stroke-miterlimit:2.61310005;stroke-dasharray:none;stroke-opacity:1"
         d="M 202.793,203.969 768.668,767.914" /><path
         id="path272"
         style="fill:none;stroke:#231f20;stroke-width:2.99909997;stroke-linecap:butt;stroke-linejoin:miter;stroke-miterlimit:2.61310005;stroke-dasharray:none;stroke-opacity:1"
         d="M 1421.77,389.336 H 2178.5" /><path
         id="path274"
         style="fill:none;stroke:#231f20;stroke-width:2.99909997;stroke-linecap:butt;stroke-linejoin:miter;stroke-miterlimit:2.61310005;stroke-dasharray:none;stroke-opacity:1"
         d="M 1801.81,10.2812 V 767.914" /><path
         id="path276"
         style="fill:none;stroke:#231f20;stroke-width:10.00059986;stroke-linecap:butt;stroke-linejoin:miter;stroke-miterlimit:2.61310005;stroke-dasharray:none;stroke-opacity:1"
         d="m 2141.01,8.08984 c -235.55,761.65216 -459.45,761.65216 -671.7,0" /></g></g></svg>