<?xml version="1.0" encoding="UTF-8" standalone="no"?>
<svg
   xmlns:dc="http://purl.org/dc/elements/1.1/"
   xmlns:cc="http://creativecommons.org/ns#"
   xmlns:rdf="http://www.w3.org/1999/02/22-rdf-syntax-ns#"
   xmlns:svg="http://www.w3.org/2000/svg"
   xmlns="http://www.w3.org/2000/svg"
   viewBox="0 0 385.33334 121.33333"
   height="121.33333"
   width="385.33334"
   xml:space="preserve"
   id="svg2"
   version="1.1"><metadata
     id="metadata8"><rdf:RDF><cc:Work
         rdf:about=""><dc:format>image/svg+xml</dc:format><dc:type
           rdf:resource="http://purl.org/dc/dcmitype/StillImage" /></cc:Work></rdf:RDF></metadata><defs
     id="defs6" /><g
     transform="matrix(1.3333333,0,0,-1.3333333,0,121.33333)"
     id="g10"><g
       transform="scale(0.1)"
       id="g12"><g
         transform="scale(10)"
         id="g14"><text
           id="text18"
           style="font-style:italic;font-variant:normal;font-weight:normal;font-size:9.99989986px;font-family:TimesNewRomanPSMT;-inkscape-font-specification:TimesNewRomanPSMT-NormalItalic;writing-mode:lr-tb;fill:#231f20;fill-opacity:1;fill-rule:nonzero;stroke:none"
           transform="matrix(1,0,0,-1,126.149,7.86094)"><tspan
             id="tspan16"
             y="0"
             x="0">x</tspan></text>
</g><path
         id="path20"
         style="fill:none;stroke:#231f20;stroke-width:10.00059986;stroke-linecap:butt;stroke-linejoin:miter;stroke-miterlimit:22.92560005;stroke-dasharray:none;stroke-opacity:1"
         d="M 142.277,150.77 H 1208.7" /><path
         id="path22"
         style="fill:#231f20;fill-opacity:1;fill-rule:evenodd;stroke:none"
         d="m 1204.55,177.117 47.9,-26.347 -47.9,-26.348 v 52.695" /><path
         id="path24"
         style="fill:none;stroke:#231f20;stroke-width:10.00059986;stroke-linecap:butt;stroke-linejoin:miter;stroke-miterlimit:22.92560005;stroke-dasharray:none;stroke-opacity:1"
         d="M 425.832,161.906 V 138.617" /><path
         id="path26"
         style="fill:none;stroke:#231f20;stroke-width:10.00059986;stroke-linecap:butt;stroke-linejoin:miter;stroke-miterlimit:22.92560005;stroke-dasharray:none;stroke-opacity:1"
         d="M 857.832,161.906 V 138.617" /><g
         transform="scale(10)"
         id="g28"><text
           id="text34"
           style="font-variant:normal;font-weight:normal;font-size:9.99989986px;font-family:TimesNewRomanPSMT;-inkscape-font-specification:TimesNewRomanPSMT;writing-mode:lr-tb;fill:#231f20;fill-opacity:1;fill-rule:nonzero;stroke:none"
           transform="matrix(1,0,0,-1,83.3859,56.0242)"><tspan
             id="tspan30"
             y="0"
             x="0">7</tspan><tspan
             id="tspan32"
             y="51.9785"
             x="-0.107422 4.8925281 7.3925028">3,2</tspan></text>
</g><path
         id="path36"
         style="fill:none;stroke:#231f20;stroke-width:10.00059986;stroke-linecap:butt;stroke-linejoin:miter;stroke-miterlimit:22.92560005;stroke-dasharray:none;stroke-opacity:1"
         d="m 425.832,149.363 c -0.289,66.891 16.41,100.926 77.77,100.325 h 304.16" /><path
         id="path38"
         style="fill:none;stroke:#231f20;stroke-width:10.00059986;stroke-linecap:butt;stroke-linejoin:miter;stroke-miterlimit:22.92560005;stroke-dasharray:none;stroke-opacity:1"
         d="m 859.246,149.363 c 0.293,66.891 -16.519,100.926 -78.289,100.325 H 474.75" /><path
         id="path40"
         style="fill:none;stroke:#231f20;stroke-width:10.00059986;stroke-linecap:butt;stroke-linejoin:miter;stroke-miterlimit:22.92560005;stroke-dasharray:none;stroke-opacity:1"
         d="m 436.156,147.559 22.055,31.976" /><path
         id="path42"
         style="fill:none;stroke:#231f20;stroke-width:10.00059986;stroke-linecap:butt;stroke-linejoin:miter;stroke-miterlimit:22.92560005;stroke-dasharray:none;stroke-opacity:1"
         d="m 508.156,147.559 22.055,31.976" /><path
         id="path44"
         style="fill:none;stroke:#231f20;stroke-width:10.00059986;stroke-linecap:butt;stroke-linejoin:miter;stroke-miterlimit:22.92560005;stroke-dasharray:none;stroke-opacity:1"
         d="m 580.156,147.559 22.055,31.976" /><path
         id="path46"
         style="fill:none;stroke:#231f20;stroke-width:10.00059986;stroke-linecap:butt;stroke-linejoin:miter;stroke-miterlimit:22.92560005;stroke-dasharray:none;stroke-opacity:1"
         d="m 652.156,147.559 22.055,31.976" /><path
         id="path48"
         style="fill:none;stroke:#231f20;stroke-width:10.00059986;stroke-linecap:butt;stroke-linejoin:miter;stroke-miterlimit:22.92560005;stroke-dasharray:none;stroke-opacity:1"
         d="m 724.156,147.559 22.055,31.976" /><path
         id="path50"
         style="fill:none;stroke:#231f20;stroke-width:10.00059986;stroke-linecap:butt;stroke-linejoin:miter;stroke-miterlimit:22.92560005;stroke-dasharray:none;stroke-opacity:1"
         d="m 796.156,147.559 22.055,31.976" /><g
         transform="scale(10)"
         id="g52"><text
           id="text56"
           style="font-variant:normal;font-weight:normal;font-size:9.99989986px;font-family:TimesNewRomanPSMT;-inkscape-font-specification:TimesNewRomanPSMT;writing-mode:lr-tb;fill:#231f20;fill-opacity:1;fill-rule:nonzero;stroke:none"
           transform="matrix(1,0,0,-1,0.872266,83.1598)"><tspan
             id="tspan54"
             y="0"
             x="0 4.9999499">1)</tspan></text>
<text
           id="text60"
           style="font-style:italic;font-variant:normal;font-weight:normal;font-size:9.99989986px;font-family:TimesNewRomanPSMT;-inkscape-font-specification:TimesNewRomanPSMT-NormalItalic;writing-mode:lr-tb;fill:#231f20;fill-opacity:1;fill-rule:nonzero;stroke:none"
           transform="matrix(1,0,0,-1,284.54927,58.261)"><tspan
             id="tspan58"
             y="0"
             x="0">x</tspan></text>
</g><path
         id="path62"
         style="fill:none;stroke:#231f20;stroke-width:10.00059986;stroke-linecap:butt;stroke-linejoin:miter;stroke-miterlimit:22.92560005;stroke-dasharray:none;stroke-opacity:1"
         d="m 1616.88,654.77 h 1156.1" /><path
         id="path64"
         style="fill:#231f20;fill-opacity:1;fill-rule:evenodd;stroke:none"
         d="m 2768.83,681.117 47.9,-26.347 -47.9,-26.348 v 52.695" /><path
         id="path66"
         style="fill:none;stroke:#231f20;stroke-width:10.00059986;stroke-linecap:butt;stroke-linejoin:miter;stroke-miterlimit:22.92560005;stroke-dasharray:none;stroke-opacity:1"
         d="M 1937.83,665.906 V 642.617" /><path
         id="path68"
         style="fill:none;stroke:#231f20;stroke-width:10.00059986;stroke-linecap:butt;stroke-linejoin:miter;stroke-miterlimit:22.92560005;stroke-dasharray:none;stroke-opacity:1"
         d="M 2369.83,665.906 V 642.617" /><path
         id="path70"
         style="fill:none;stroke:#231f20;stroke-width:10.00059986;stroke-linecap:butt;stroke-linejoin:miter;stroke-miterlimit:22.92560005;stroke-dasharray:none;stroke-opacity:1"
         d="m 1936.18,653.363 c 0.3,66.891 -16.4,100.926 -77.77,100.325 h -205.43" /><path
         id="path72"
         style="fill:none;stroke:#231f20;stroke-width:10.00059986;stroke-linecap:butt;stroke-linejoin:miter;stroke-miterlimit:22.92560005;stroke-dasharray:none;stroke-opacity:1"
         d="m 2369.44,653.363 c -0.3,66.891 16.51,100.926 78.29,100.325 h 306.2" /><path
         id="path74"
         style="fill:none;stroke:#231f20;stroke-width:10.00059986;stroke-linecap:butt;stroke-linejoin:miter;stroke-miterlimit:22.92560005;stroke-dasharray:none;stroke-opacity:1"
         d="m 1660.16,651.559 22.05,31.976" /><path
         id="path76"
         style="fill:none;stroke:#231f20;stroke-width:10.00059986;stroke-linecap:butt;stroke-linejoin:miter;stroke-miterlimit:22.92560005;stroke-dasharray:none;stroke-opacity:1"
         d="m 1732.16,651.559 22.05,31.976" /><path
         id="path78"
         style="fill:none;stroke:#231f20;stroke-width:10.00059986;stroke-linecap:butt;stroke-linejoin:miter;stroke-miterlimit:22.92560005;stroke-dasharray:none;stroke-opacity:1"
         d="m 1804.16,651.559 22.05,31.976" /><path
         id="path80"
         style="fill:none;stroke:#231f20;stroke-width:10.00059986;stroke-linecap:butt;stroke-linejoin:miter;stroke-miterlimit:22.92560005;stroke-dasharray:none;stroke-opacity:1"
         d="m 1876.16,651.559 22.05,31.976" /><g
         transform="scale(10)"
         id="g82"><text
           id="text86"
           style="font-variant:normal;font-weight:normal;font-size:9.99989986px;font-family:TimesNewRomanPSMT;-inkscape-font-specification:TimesNewRomanPSMT;writing-mode:lr-tb;fill:#231f20;fill-opacity:1;fill-rule:nonzero;stroke:none"
           transform="matrix(1,0,0,-1,152.072,83.1598)"><tspan
             id="tspan84"
             y="0"
             x="0 4.9999499">2)</tspan></text>
</g><path
         id="path88"
         style="fill:#231f20;fill-opacity:1;fill-rule:evenodd;stroke:none"
         d="m 425.941,158.012 c 4.727,0 8.551,-3.828 8.551,-8.555 0,-4.723 -3.824,-8.551 -8.551,-8.551 -4.726,0 -8.554,3.828 -8.554,8.551 0,4.727 3.828,8.555 8.554,8.555" /><path
         id="path90"
         style="fill:none;stroke:#231f20;stroke-width:10.00059986;stroke-linecap:butt;stroke-linejoin:miter;stroke-miterlimit:22.92560005;stroke-dasharray:none;stroke-opacity:1"
         d="m 425.941,158.012 c 4.727,0 8.551,-3.828 8.551,-8.555 0,-4.723 -3.824,-8.551 -8.551,-8.551 -4.726,0 -8.554,3.828 -8.554,8.551 0,4.727 3.828,8.555 8.554,8.555 z" /><path
         id="path92"
         style="fill:#ffffff;fill-opacity:1;fill-rule:evenodd;stroke:none"
         d="m 858.039,163.035 c 6.488,0 11.75,-5.262 11.75,-11.75 0,-6.488 -5.262,-11.75 -11.75,-11.75 -6.488,0 -11.75,5.262 -11.75,11.75 0,6.488 5.262,11.75 11.75,11.75" /><path
         id="path94"
         style="fill:none;stroke:#231f20;stroke-width:10.00059986;stroke-linecap:butt;stroke-linejoin:miter;stroke-miterlimit:22.92560005;stroke-dasharray:none;stroke-opacity:1"
         d="m 858.039,163.035 c 6.488,0 11.75,-5.262 11.75,-11.75 0,-6.488 -5.262,-11.75 -11.75,-11.75 -6.488,0 -11.75,5.262 -11.75,11.75 0,6.488 5.262,11.75 11.75,11.75 z" /><path
         id="path96"
         style="fill:#ffffff;fill-opacity:1;fill-rule:evenodd;stroke:none"
         d="m 2369.96,667.031 c 6.89,0 12.47,-5.582 12.47,-12.469 0,-6.882 -5.58,-12.464 -12.47,-12.464 -6.88,0 -12.46,5.582 -12.46,12.464 0,6.887 5.58,12.469 12.46,12.469" /><path
         id="path98"
         style="fill:none;stroke:#231f20;stroke-width:10.00059986;stroke-linecap:butt;stroke-linejoin:miter;stroke-miterlimit:22.92560005;stroke-dasharray:none;stroke-opacity:1"
         d="m 2369.96,667.031 c 6.89,0 12.47,-5.582 12.47,-12.469 0,-6.882 -5.58,-12.464 -12.47,-12.464 -6.88,0 -12.46,5.582 -12.46,12.464 0,6.887 5.58,12.469 12.46,12.469 z" /><path
         id="path100"
         style="fill:#231f20;fill-opacity:1;fill-rule:evenodd;stroke:none"
         d="m 1937.76,664.699 c 5.1,0 9.24,-4.133 9.24,-9.238 0,-5.102 -4.14,-9.238 -9.24,-9.238 -5.1,0 -9.24,4.136 -9.24,9.238 0,5.105 4.14,9.238 9.24,9.238" /><path
         id="path102"
         style="fill:none;stroke:#231f20;stroke-width:10.00059986;stroke-linecap:butt;stroke-linejoin:miter;stroke-miterlimit:22.92560005;stroke-dasharray:none;stroke-opacity:1"
         d="m 1937.76,664.699 c 5.1,0 9.24,-4.133 9.24,-9.238 0,-5.102 -4.14,-9.238 -9.24,-9.238 -5.1,0 -9.24,4.136 -9.24,9.238 0,5.105 4.14,9.238 9.24,9.238 z" /><path
         id="path104"
         style="fill:none;stroke:#231f20;stroke-width:10.00059986;stroke-linecap:butt;stroke-linejoin:miter;stroke-miterlimit:22.92560005;stroke-dasharray:none;stroke-opacity:1"
         d="m 2380.16,651.559 22.05,31.976" /><path
         id="path106"
         style="fill:none;stroke:#231f20;stroke-width:10.00059986;stroke-linecap:butt;stroke-linejoin:miter;stroke-miterlimit:22.92560005;stroke-dasharray:none;stroke-opacity:1"
         d="m 2452.16,651.559 22.05,31.976" /><path
         id="path108"
         style="fill:none;stroke:#231f20;stroke-width:10.00059986;stroke-linecap:butt;stroke-linejoin:miter;stroke-miterlimit:22.92560005;stroke-dasharray:none;stroke-opacity:1"
         d="m 2524.16,651.559 22.05,31.976" /><path
         id="path110"
         style="fill:none;stroke:#231f20;stroke-width:10.00059986;stroke-linecap:butt;stroke-linejoin:miter;stroke-miterlimit:22.92560005;stroke-dasharray:none;stroke-opacity:1"
         d="m 2596.16,651.559 22.05,31.976" /><path
         id="path112"
         style="fill:none;stroke:#231f20;stroke-width:10.00059986;stroke-linecap:butt;stroke-linejoin:miter;stroke-miterlimit:22.92560005;stroke-dasharray:none;stroke-opacity:1"
         d="m 2668.16,651.559 22.05,31.976" /><path
         id="path114"
         style="fill:none;stroke:#231f20;stroke-width:10.00059986;stroke-linecap:butt;stroke-linejoin:miter;stroke-miterlimit:22.92560005;stroke-dasharray:none;stroke-opacity:1"
         d="m 2740.16,651.559 22.05,31.976" /><g
         transform="scale(10)"
         id="g116"><text
           id="text120"
           style="font-style:italic;font-variant:normal;font-weight:normal;font-size:9.99989986px;font-family:TimesNewRomanPSMT;-inkscape-font-specification:TimesNewRomanPSMT-NormalItalic;writing-mode:lr-tb;fill:#231f20;fill-opacity:1;fill-rule:nonzero;stroke:none"
           transform="matrix(1,0,0,-1,126.321,58.2344)"><tspan
             id="tspan118"
             y="0"
             x="0">x</tspan></text>
</g><path
         id="path122"
         style="fill:none;stroke:#231f20;stroke-width:10.00059986;stroke-linecap:butt;stroke-linejoin:miter;stroke-miterlimit:22.92560005;stroke-dasharray:none;stroke-opacity:1"
         d="M 142.277,654.77 H 1208.7" /><path
         id="path124"
         style="fill:#231f20;fill-opacity:1;fill-rule:evenodd;stroke:none"
         d="m 1204.55,681.117 47.9,-26.347 -47.9,-26.348 v 52.695" /><path
         id="path126"
         style="fill:none;stroke:#231f20;stroke-width:10.00059986;stroke-linecap:butt;stroke-linejoin:miter;stroke-miterlimit:22.92560005;stroke-dasharray:none;stroke-opacity:1"
         d="M 857.832,665.906 V 642.617" /><path
         id="path128"
         style="fill:none;stroke:#231f20;stroke-width:10.00059986;stroke-linecap:butt;stroke-linejoin:miter;stroke-miterlimit:22.92560005;stroke-dasharray:none;stroke-opacity:1"
         d="m 859.246,653.363 c 0.293,66.891 -16.519,100.926 -78.289,100.325 L 162.703,751" /><path
         id="path130"
         style="fill:none;stroke:#231f20;stroke-width:10.00059986;stroke-linecap:butt;stroke-linejoin:miter;stroke-miterlimit:22.92560005;stroke-dasharray:none;stroke-opacity:1"
         d="m 436.156,651.559 22.055,31.976" /><path
         id="path132"
         style="fill:none;stroke:#231f20;stroke-width:10.00059986;stroke-linecap:butt;stroke-linejoin:miter;stroke-miterlimit:22.92560005;stroke-dasharray:none;stroke-opacity:1"
         d="m 508.156,651.559 22.055,31.976" /><path
         id="path134"
         style="fill:none;stroke:#231f20;stroke-width:10.00059986;stroke-linecap:butt;stroke-linejoin:miter;stroke-miterlimit:22.92560005;stroke-dasharray:none;stroke-opacity:1"
         d="m 580.156,651.559 22.055,31.976" /><path
         id="path136"
         style="fill:none;stroke:#231f20;stroke-width:10.00059986;stroke-linecap:butt;stroke-linejoin:miter;stroke-miterlimit:22.92560005;stroke-dasharray:none;stroke-opacity:1"
         d="m 652.156,651.559 22.055,31.976" /><path
         id="path138"
         style="fill:none;stroke:#231f20;stroke-width:10.00059986;stroke-linecap:butt;stroke-linejoin:miter;stroke-miterlimit:22.92560005;stroke-dasharray:none;stroke-opacity:1"
         d="m 724.156,651.559 22.055,31.976" /><path
         id="path140"
         style="fill:none;stroke:#231f20;stroke-width:10.00059986;stroke-linecap:butt;stroke-linejoin:miter;stroke-miterlimit:22.92560005;stroke-dasharray:none;stroke-opacity:1"
         d="m 796.156,651.559 22.055,31.976" /><g
         transform="scale(10)"
         id="g142"><text
           id="text146"
           style="font-variant:normal;font-weight:normal;font-size:9.99989986px;font-family:TimesNewRomanPSMT;-inkscape-font-specification:TimesNewRomanPSMT;writing-mode:lr-tb;fill:#231f20;fill-opacity:1;fill-rule:nonzero;stroke:none"
           transform="matrix(1,0,0,-1,0.872266,32.7598)"><tspan
             id="tspan144"
             y="0"
             x="0 4.9999499">3)</tspan></text>
<text
           id="text150"
           style="font-style:italic;font-variant:normal;font-weight:normal;font-size:9.99989986px;font-family:TimesNewRomanPSMT;-inkscape-font-specification:TimesNewRomanPSMT-NormalItalic;writing-mode:lr-tb;fill:#231f20;fill-opacity:1;fill-rule:nonzero;stroke:none"
           transform="matrix(1,0,0,-1,284.54927,7.861)"><tspan
             id="tspan148"
             y="0"
             x="0">x</tspan></text>
</g><path
         id="path152"
         style="fill:none;stroke:#231f20;stroke-width:10.00059986;stroke-linecap:butt;stroke-linejoin:miter;stroke-miterlimit:22.92560005;stroke-dasharray:none;stroke-opacity:1"
         d="m 1616.88,150.77 h 1156.1" /><path
         id="path154"
         style="fill:#231f20;fill-opacity:1;fill-rule:evenodd;stroke:none"
         d="m 2768.83,177.117 47.9,-26.347 -47.9,-26.348 v 52.695" /><path
         id="path156"
         style="fill:none;stroke:#231f20;stroke-width:10.00059986;stroke-linecap:butt;stroke-linejoin:miter;stroke-miterlimit:22.92560005;stroke-dasharray:none;stroke-opacity:1"
         d="M 1909.64,154.773 V 131.484" /><path
         id="path158"
         style="fill:none;stroke:#231f20;stroke-width:10.00059986;stroke-linecap:butt;stroke-linejoin:miter;stroke-miterlimit:22.92560005;stroke-dasharray:none;stroke-opacity:1"
         d="m 1899.85,159.344 c -0.16,66.886 9,100.926 42.65,100.324 h 371.94" /><g
         transform="scale(10)"
         id="g160"><text
           id="text164"
           style="font-variant:normal;font-weight:normal;font-size:9.99989986px;font-family:TimesNewRomanPSMT;-inkscape-font-specification:TimesNewRomanPSMT;writing-mode:lr-tb;fill:#231f20;fill-opacity:1;fill-rule:nonzero;stroke:none"
           transform="matrix(1,0,0,-1,152.072,32.7598)"><tspan
             id="tspan162"
             y="0"
             x="0 4.9999499">4)</tspan></text>
</g><path
         id="path166"
         style="fill:#ffffff;fill-opacity:1;fill-rule:evenodd;stroke:none"
         d="m 858.273,667.512 c 6.887,0 12.465,-5.582 12.465,-12.465 0,-6.887 -5.578,-12.469 -12.465,-12.469 -6.886,0 -12.468,5.582 -12.468,12.469 0,6.883 5.582,12.465 12.468,12.465" /><path
         id="path168"
         style="fill:none;stroke:#231f20;stroke-width:10.00059986;stroke-linecap:butt;stroke-linejoin:miter;stroke-miterlimit:22.92560005;stroke-dasharray:none;stroke-opacity:1"
         d="m 858.273,667.512 c 6.887,0 12.465,-5.582 12.465,-12.465 0,-6.887 -5.578,-12.469 -12.465,-12.469 -6.886,0 -12.468,5.582 -12.468,12.469 0,6.883 5.582,12.465 12.468,12.465 z" /><path
         id="path170"
         style="fill:#ffffff;fill-opacity:1;fill-rule:evenodd;stroke:none"
         d="m 1909.64,155.594 c 6.88,0 12.47,-5.578 12.47,-12.465 0,-6.887 -5.59,-12.469 -12.47,-12.469 -6.89,0 -12.47,5.582 -12.47,12.469 0,6.887 5.58,12.465 12.47,12.465" /><path
         id="path172"
         style="fill:none;stroke:#231f20;stroke-width:10.00059986;stroke-linecap:butt;stroke-linejoin:miter;stroke-miterlimit:22.92560005;stroke-dasharray:none;stroke-opacity:1"
         d="m 1909.64,155.594 c 6.88,0 12.47,-5.578 12.47,-12.465 0,-6.887 -5.59,-12.469 -12.47,-12.469 -6.89,0 -12.47,5.582 -12.47,12.469 0,6.887 5.58,12.465 12.47,12.465 z" /><path
         id="path174"
         style="fill:none;stroke:#231f20;stroke-width:10.00059986;stroke-linecap:butt;stroke-linejoin:miter;stroke-miterlimit:22.92560005;stroke-dasharray:none;stroke-opacity:1"
         d="m 2380.16,147.559 22.05,31.976" /><path
         id="path176"
         style="fill:none;stroke:#231f20;stroke-width:10.00059986;stroke-linecap:butt;stroke-linejoin:miter;stroke-miterlimit:22.92560005;stroke-dasharray:none;stroke-opacity:1"
         d="m 2452.16,147.559 22.05,31.976" /><path
         id="path178"
         style="fill:none;stroke:#231f20;stroke-width:10.00059986;stroke-linecap:butt;stroke-linejoin:miter;stroke-miterlimit:22.92560005;stroke-dasharray:none;stroke-opacity:1"
         d="m 2524.16,147.559 22.05,31.976" /><path
         id="path180"
         style="fill:none;stroke:#231f20;stroke-width:10.00059986;stroke-linecap:butt;stroke-linejoin:miter;stroke-miterlimit:22.92560005;stroke-dasharray:none;stroke-opacity:1"
         d="m 2596.16,147.559 22.05,31.976" /><path
         id="path182"
         style="fill:none;stroke:#231f20;stroke-width:10.00059986;stroke-linecap:butt;stroke-linejoin:miter;stroke-miterlimit:22.92560005;stroke-dasharray:none;stroke-opacity:1"
         d="m 2668.16,147.559 22.05,31.976" /><path
         id="path184"
         style="fill:none;stroke:#231f20;stroke-width:10.00059986;stroke-linecap:butt;stroke-linejoin:miter;stroke-miterlimit:22.92560005;stroke-dasharray:none;stroke-opacity:1"
         d="m 2740.16,147.559 22.05,31.976" /><path
         id="path186"
         style="fill:none;stroke:#231f20;stroke-width:10.00059986;stroke-linecap:butt;stroke-linejoin:miter;stroke-miterlimit:22.92560005;stroke-dasharray:none;stroke-opacity:1"
         d="m 148.156,651.559 22.055,31.976" /><path
         id="path188"
         style="fill:none;stroke:#231f20;stroke-width:10.00059986;stroke-linecap:butt;stroke-linejoin:miter;stroke-miterlimit:22.92560005;stroke-dasharray:none;stroke-opacity:1"
         d="m 220.156,651.559 22.055,31.976" /><path
         id="path190"
         style="fill:none;stroke:#231f20;stroke-width:10.00059986;stroke-linecap:butt;stroke-linejoin:miter;stroke-miterlimit:22.92560005;stroke-dasharray:none;stroke-opacity:1"
         d="m 292.156,651.559 22.055,31.976" /><path
         id="path192"
         style="fill:none;stroke:#231f20;stroke-width:10.00059986;stroke-linecap:butt;stroke-linejoin:miter;stroke-miterlimit:22.92560005;stroke-dasharray:none;stroke-opacity:1"
         d="m 364.156,651.559 22.055,31.976" /><path
         id="path194"
         style="fill:none;stroke:#231f20;stroke-width:10.00059986;stroke-linecap:butt;stroke-linejoin:miter;stroke-miterlimit:22.92560005;stroke-dasharray:none;stroke-opacity:1"
         d="m 436.156,651.559 22.055,31.976" /><path
         id="path196"
         style="fill:none;stroke:#231f20;stroke-width:7.5005002;stroke-linecap:butt;stroke-linejoin:miter;stroke-miterlimit:22.92560005;stroke-dasharray:none;stroke-opacity:1"
         d="M 380.883,76.6641 H 324.391" /><path
         id="path198"
         style="fill:none;stroke:#231f20;stroke-width:10.00059986;stroke-linecap:butt;stroke-linejoin:miter;stroke-miterlimit:22.92560005;stroke-dasharray:none;stroke-opacity:1"
         d="m 731.773,598.668 h 63.723" /><path
         id="path200"
         style="fill:none;stroke:#231f20;stroke-width:7.5005002;stroke-linecap:butt;stroke-linejoin:miter;stroke-miterlimit:22.92560005;stroke-dasharray:none;stroke-opacity:1"
         d="m 1913.95,554.004 h -56.5" /><g
         transform="scale(10)"
         id="g202"><text
           id="text206"
           style="font-variant:normal;font-weight:normal;font-size:11.93169975px;font-family:TimesNewRomanPSMT;-inkscape-font-specification:TimesNewRomanPSMT;writing-mode:lr-tb;fill:#231f20;fill-opacity:1;fill-rule:nonzero;stroke:none"
           transform="matrix(0.838108,0,0,-1,194.386,50.5977)"><tspan
             id="tspan204"
             y="0"
             x="0">7</tspan></text>
<text
           id="text210"
           style="font-variant:normal;font-weight:normal;font-size:9.99989986px;font-family:TimesNewRomanPSMT;-inkscape-font-specification:TimesNewRomanPSMT;writing-mode:lr-tb;fill:#231f20;fill-opacity:1;fill-rule:nonzero;stroke:none"
           transform="matrix(1,0,0,-1,231.421,51.3199)"><tspan
             id="tspan208"
             y="0"
             x="0 4.9999499 7.4999251">3,2</tspan></text>
</g><path
         id="path212"
         style="fill:none;stroke:#231f20;stroke-width:10.00059986;stroke-linecap:butt;stroke-linejoin:miter;stroke-miterlimit:22.92560005;stroke-dasharray:none;stroke-opacity:1"
         d="m 2317.54,148.336 22.05,31.976" /><path
         id="path214"
         style="fill:none;stroke:#231f20;stroke-width:10.00059986;stroke-linecap:butt;stroke-linejoin:miter;stroke-miterlimit:22.92560005;stroke-dasharray:none;stroke-opacity:1"
         d="m 2238.36,152.184 22.05,31.976" /><path
         id="path216"
         style="fill:none;stroke:#231f20;stroke-width:10.00059986;stroke-linecap:butt;stroke-linejoin:miter;stroke-miterlimit:22.92560005;stroke-dasharray:none;stroke-opacity:1"
         d="m 2176.11,152.93 22.05,31.98" /><path
         id="path218"
         style="fill:none;stroke:#231f20;stroke-width:10.00059986;stroke-linecap:butt;stroke-linejoin:miter;stroke-miterlimit:22.92560005;stroke-dasharray:none;stroke-opacity:1"
         d="m 2119.86,152.184 22.05,31.976" /><path
         id="path220"
         style="fill:none;stroke:#231f20;stroke-width:10.00059986;stroke-linecap:butt;stroke-linejoin:miter;stroke-miterlimit:22.92560005;stroke-dasharray:none;stroke-opacity:1"
         d="m 2062.3,151.867 22.06,31.977" /><path
         id="path222"
         style="fill:none;stroke:#231f20;stroke-width:10.00059986;stroke-linecap:butt;stroke-linejoin:miter;stroke-miterlimit:22.92560005;stroke-dasharray:none;stroke-opacity:1"
         d="m 2001.24,153.246 22.05,31.977" /><path
         id="path224"
         style="fill:none;stroke:#231f20;stroke-width:10.00059986;stroke-linecap:butt;stroke-linejoin:miter;stroke-miterlimit:22.92560005;stroke-dasharray:none;stroke-opacity:1"
         d="m 1958.61,154.43 22.05,31.976" /><path
         id="path226"
         style="fill:none;stroke:#231f20;stroke-width:10.00059986;stroke-linecap:butt;stroke-linejoin:miter;stroke-miterlimit:22.92560005;stroke-dasharray:none;stroke-opacity:1"
         d="m 2298.14,259.668 456.75,3.75" /><g
         transform="scale(10)"
         id="g228"><text
           id="text234"
           style="font-variant:normal;font-weight:normal;font-size:9.99989986px;font-family:TimesNewRomanPSMT;-inkscape-font-specification:TimesNewRomanPSMT;writing-mode:lr-tb;fill:#231f20;fill-opacity:1;fill-rule:nonzero;stroke:none"
           transform="matrix(1,0,0,-1,184.322,2.49453)"><tspan
             id="tspan230"
             y="0"
             x="0 4.9999499 7.4999251">3,2</tspan><tspan
             id="tspan232"
             y="0.28398401"
             x="-144.397">7</tspan></text>
</g></g></g></svg>