<?xml version="1.0" encoding="UTF-8" standalone="no"?>
<svg
   xmlns:dc="http://purl.org/dc/elements/1.1/"
   xmlns:cc="http://creativecommons.org/ns#"
   xmlns:rdf="http://www.w3.org/1999/02/22-rdf-syntax-ns#"
   xmlns:svg="http://www.w3.org/2000/svg"
   xmlns="http://www.w3.org/2000/svg"
   viewBox="0 0 385.33334 105.33333"
   height="105.33333"
   width="385.33334"
   xml:space="preserve"
   id="svg2"
   version="1.1"><metadata
     id="metadata8"><rdf:RDF><cc:Work
         rdf:about=""><dc:format>image/svg+xml</dc:format><dc:type
           rdf:resource="http://purl.org/dc/dcmitype/StillImage" /></cc:Work></rdf:RDF></metadata><defs
     id="defs6" /><g
     transform="matrix(1.3333333,0,0,-1.3333333,0,105.33333)"
     id="g10"><g
       transform="scale(0.1)"
       id="g12"><path
         id="path14"
         style="fill:#231f20;fill-opacity:1;fill-rule:evenodd;stroke:none"
         d="m 1269.58,586.891 c 1.44,-1.442 2.88,-2.883 3.6,-5.043 0.72,-0.719 1.44,-4.321 2.88,-9.36 l 4.32,6.481 c 0.72,2.16 2.16,3.601 4.32,5.039 1.44,1.441 2.88,2.16 4.32,2.883 0.72,0 1.44,0 2.16,0 1.44,0 2.88,0 3.6,-0.723 0.72,-0.719 1.44,-2.16 1.44,-2.879 0,-1.441 -0.72,-2.16 -1.44,-2.879 -0.72,-0.722 -1.44,-0.722 -2.88,-0.722 -0.72,0 -1.44,0 -2.16,0 -1.44,0.722 -2.88,0.722 -2.88,0.722 -0.72,0 -2.16,0 -2.88,-0.722 -2.16,-2.161 -4.32,-5.04 -7.2,-10.079 l 3.6,-16.558 c 0.72,-2.883 1.44,-4.321 2.16,-5.043 0,-0.719 0.72,-0.719 0.72,-0.719 0.72,0 1.44,0.719 2.88,1.441 1.44,1.438 2.88,2.879 4.32,5.758 l 1.44,-0.718 c -1.44,-4.321 -4.32,-7.2 -7.2,-10.082 -2.16,-1.438 -3.6,-2.161 -5.04,-2.161 -1.44,0 -2.88,1.442 -4.32,3.602 -0.72,0.719 -2.16,6.48 -4.32,15.84 -5.04,-8.641 -8.64,-14.399 -12.24,-16.559 -1.44,-2.16 -3.6,-2.883 -5.76,-2.883 -0.72,0 -2.16,0.723 -3.6,1.442 -0.72,0.719 -0.72,2.16 -0.72,2.879 0,1.441 0,2.16 0.72,2.882 0.72,0.719 1.44,1.438 2.88,1.438 0.72,0 2.16,-0.719 3.6,-2.16 0.72,-0.719 1.44,-0.719 1.44,-0.719 0.72,0 1.44,0 1.44,0.719 2.16,1.441 3.6,3.601 6.48,7.922 2.88,4.32 4.32,7.199 5.04,8.64 -1.44,7.918 -2.88,12.239 -2.88,12.957 -0.72,2.161 -2.16,3.602 -2.88,4.321 -1.44,0.722 -2.88,1.441 -5.76,1.441 -0.72,0 -1.44,0 -2.16,0 v 1.441 l 12.96,2.161" /><path
         id="path16"
         style="fill:none;stroke:#231f20;stroke-width:9.99779987;stroke-linecap:butt;stroke-linejoin:miter;stroke-miterlimit:2.61310005;stroke-dasharray:none;stroke-opacity:1"
         d="M 132.699,614.969 H 1199.02" /><path
         id="path18"
         style="fill:#231f20;fill-opacity:1;fill-rule:evenodd;stroke:none"
         d="m 1195.42,641.609 47.52,-26.64 -47.52,-25.918 v 52.558" /><path
         id="path20"
         style="fill:none;stroke:#231f20;stroke-width:9.99779987;stroke-linecap:butt;stroke-linejoin:miter;stroke-miterlimit:2.61310005;stroke-dasharray:none;stroke-opacity:1"
         d="M 416.379,626.488 V 602.73" /><path
         id="path22"
         style="fill:none;stroke:#231f20;stroke-width:9.99779987;stroke-linecap:butt;stroke-linejoin:miter;stroke-miterlimit:2.61310005;stroke-dasharray:none;stroke-opacity:1"
         d="M 848.379,626.488 V 602.73" /><path
         id="path24"
         style="fill:none;stroke:#231f20;stroke-width:9.99779987;stroke-linecap:butt;stroke-linejoin:miter;stroke-miterlimit:2.61310005;stroke-dasharray:none;stroke-opacity:1"
         d="m 416.379,613.531 c 0,66.957 16.559,100.797 77.758,100.797 h 304.562" /><path
         id="path26"
         style="fill:none;stroke:#231f20;stroke-width:9.99779987;stroke-linecap:butt;stroke-linejoin:miter;stroke-miterlimit:2.61310005;stroke-dasharray:none;stroke-opacity:1"
         d="m 849.816,613.531 c 0,66.957 -16.558,100.797 -78.476,100.797 h -306" /><path
         id="path28"
         style="fill:none;stroke:#231f20;stroke-width:9.99779987;stroke-linecap:butt;stroke-linejoin:miter;stroke-miterlimit:2.61310005;stroke-dasharray:none;stroke-opacity:1"
         d="m 426.457,612.09 22.32,31.68" /><path
         id="path30"
         style="fill:none;stroke:#231f20;stroke-width:9.99779987;stroke-linecap:butt;stroke-linejoin:miter;stroke-miterlimit:2.61310005;stroke-dasharray:none;stroke-opacity:1"
         d="m 498.457,612.09 22.32,31.68" /><path
         id="path32"
         style="fill:none;stroke:#231f20;stroke-width:9.99779987;stroke-linecap:butt;stroke-linejoin:miter;stroke-miterlimit:2.61310005;stroke-dasharray:none;stroke-opacity:1"
         d="m 570.457,612.09 22.32,31.68" /><path
         id="path34"
         style="fill:none;stroke:#231f20;stroke-width:9.99779987;stroke-linecap:butt;stroke-linejoin:miter;stroke-miterlimit:2.61310005;stroke-dasharray:none;stroke-opacity:1"
         d="m 642.457,612.09 22.32,31.68" /><path
         id="path36"
         style="fill:none;stroke:#231f20;stroke-width:9.99779987;stroke-linecap:butt;stroke-linejoin:miter;stroke-miterlimit:2.61310005;stroke-dasharray:none;stroke-opacity:1"
         d="m 714.457,612.09 22.32,31.68" /><path
         id="path38"
         style="fill:none;stroke:#231f20;stroke-width:9.99779987;stroke-linecap:butt;stroke-linejoin:miter;stroke-miterlimit:2.61310005;stroke-dasharray:none;stroke-opacity:1"
         d="m 786.457,612.09 22.32,31.68" /><path
         id="path40"
         style="fill:#231f20;fill-opacity:1;fill-rule:evenodd;stroke:none"
         d="m 11.0195,779.848 15.8399,7.922 h 2.1601 v -56.161 c 0,-3.601 0,-5.761 0,-7.199 0.7188,-0.722 1.4375,-1.441 2.1602,-2.16 0.7187,0 2.8789,-0.723 5.7578,-0.723 V 720.09 H 12.457 v 1.437 c 2.8828,0 5.0391,0.723 5.7618,0.723 0.7187,0.719 1.4374,1.438 2.1601,2.16 0,0.719 0.7188,2.879 0.7188,7.199 v 36 c 0,4.321 -0.7188,7.918 -0.7188,9.36 0,0.719 -0.7227,1.441 -1.4414,2.16 -0.7187,0 -1.4414,0.719 -2.1602,0.719 -1.4375,0 -2.8789,-0.719 -5.039,-1.438 l -0.7188,1.438" /><path
         id="path42"
         style="fill:#231f20;fill-opacity:1;fill-rule:evenodd;stroke:none"
         d="m 51.3398,787.051 v 2.16 c 5.0391,-2.16 9.3594,-5.043 12.9571,-8.641 4.3203,-4.32 7.9219,-10.082 10.8008,-16.562 2.1601,-6.481 3.6015,-12.957 3.6015,-20.16 0,-10.078 -2.8828,-19.438 -7.2031,-27.36 -5.0391,-8.64 -11.5195,-14.398 -20.1563,-18 v 2.16 c 4.3164,2.161 7.918,5.04 10.0782,8.641 2.8789,3.602 4.3203,8.641 5.7617,14.399 1.4375,6.48 2.1601,12.242 2.1601,18.722 0,7.199 -0.7226,13.68 -1.4414,19.438 -1.4414,4.32 -2.1601,7.922 -3.6015,10.8 -0.7188,2.161 -2.8789,5.04 -4.3203,7.2 -2.1602,2.882 -5.0391,5.043 -8.6368,7.203 v 0" /><path
         id="path44"
         style="fill:#231f20;fill-opacity:1;fill-rule:evenodd;stroke:none"
         d="m 2853.58,586.891 c 1.44,-1.442 2.88,-2.883 3.6,-5.043 0.72,-0.719 1.44,-4.321 2.88,-9.36 l 4.32,6.481 c 0.72,2.16 2.16,3.601 4.32,5.039 1.44,1.441 2.88,2.16 4.32,2.883 0.72,0 1.44,0 2.16,0 1.44,0 2.88,0 3.6,-0.723 0.72,-0.719 1.44,-2.16 1.44,-2.879 0,-1.441 -0.72,-2.16 -1.44,-2.879 -0.72,-0.722 -1.44,-0.722 -2.88,-0.722 -0.72,0 -1.44,0 -2.16,0 -1.44,0.722 -2.88,0.722 -2.88,0.722 -0.72,0 -2.16,0 -2.88,-0.722 -2.16,-2.161 -4.32,-5.04 -7.2,-10.079 l 3.6,-16.558 c 0.72,-2.883 1.44,-4.321 2.16,-5.043 0,-0.719 0.72,-0.719 0.72,-0.719 0.72,0 1.44,0.719 2.88,1.441 1.44,1.438 2.88,2.879 4.32,5.758 l 1.44,-0.718 c -1.44,-4.321 -4.32,-7.2 -7.2,-10.082 -2.16,-1.438 -3.6,-2.161 -5.04,-2.161 -1.44,0 -2.88,1.442 -4.32,3.602 -0.72,0.719 -2.16,6.48 -4.32,15.84 -5.04,-8.641 -8.64,-14.399 -12.24,-16.559 -1.44,-2.16 -3.6,-2.883 -5.76,-2.883 -0.72,0 -2.16,0.723 -3.6,1.442 -0.72,0.719 -0.72,2.16 -0.72,2.879 0,1.441 0,2.16 0.72,2.882 0.72,0.719 1.44,1.438 2.88,1.438 0.72,0 2.16,-0.719 3.6,-2.16 0.72,-0.719 1.44,-0.719 1.44,-0.719 0.72,0 1.44,0 1.44,0.719 2.16,1.441 3.6,3.601 6.48,7.922 2.88,4.32 4.32,7.199 5.04,8.64 -1.44,7.918 -2.88,12.239 -2.88,12.957 -0.72,2.161 -2.16,3.602 -2.88,4.321 -1.44,0.722 -2.88,1.441 -5.76,1.441 -0.72,0 -1.44,0 -2.16,0 v 1.441 l 12.96,2.161" /><path
         id="path46"
         style="fill:none;stroke:#231f20;stroke-width:9.99779987;stroke-linecap:butt;stroke-linejoin:miter;stroke-miterlimit:2.61310005;stroke-dasharray:none;stroke-opacity:1"
         d="M 1607.26,614.969 H 2763.58" /><path
         id="path48"
         style="fill:#231f20;fill-opacity:1;fill-rule:evenodd;stroke:none"
         d="m 2759.26,641.609 48.24,-26.64 -48.24,-25.918 v 52.558" /><path
         id="path50"
         style="fill:none;stroke:#231f20;stroke-width:9.99779987;stroke-linecap:butt;stroke-linejoin:miter;stroke-miterlimit:2.61310005;stroke-dasharray:none;stroke-opacity:1"
         d="M 2360.38,626.488 V 602.73" /><path
         id="path52"
         style="fill:none;stroke:#231f20;stroke-width:9.99779987;stroke-linecap:butt;stroke-linejoin:miter;stroke-miterlimit:2.61310005;stroke-dasharray:none;stroke-opacity:1"
         d="m 2365.42,627.93 c 0.72,66.961 -15.84,100.8 -77.76,100.078 h -205.2" /><path
         id="path54"
         style="fill:none;stroke:#231f20;stroke-width:9.99779987;stroke-linecap:butt;stroke-linejoin:miter;stroke-miterlimit:2.61310005;stroke-dasharray:none;stroke-opacity:1"
         d="m 1650.46,612.09 22.32,31.68" /><path
         id="path56"
         style="fill:none;stroke:#231f20;stroke-width:9.99779987;stroke-linecap:butt;stroke-linejoin:miter;stroke-miterlimit:2.61310005;stroke-dasharray:none;stroke-opacity:1"
         d="m 1722.46,612.09 22.32,31.68" /><path
         id="path58"
         style="fill:none;stroke:#231f20;stroke-width:9.99779987;stroke-linecap:butt;stroke-linejoin:miter;stroke-miterlimit:2.61310005;stroke-dasharray:none;stroke-opacity:1"
         d="m 1794.46,612.09 22.32,31.68" /><path
         id="path60"
         style="fill:none;stroke:#231f20;stroke-width:9.99779987;stroke-linecap:butt;stroke-linejoin:miter;stroke-miterlimit:2.61310005;stroke-dasharray:none;stroke-opacity:1"
         d="m 1866.46,612.09 22.32,31.68" /><path
         id="path62"
         style="fill:#231f20;fill-opacity:1;fill-rule:evenodd;stroke:none"
         d="m 1557.58,733.051 -5.04,-12.961 h -38.88 v 1.437 c 11.52,10.801 19.44,19.442 23.76,25.922 5.04,6.481 7.2,12.961 7.2,18 0,4.321 -0.72,7.918 -3.6,10.801 -2.88,2.16 -5.76,3.598 -9.36,3.598 -2.88,0 -5.76,-0.719 -8.64,-2.879 -2.88,-1.442 -4.32,-4.321 -5.76,-7.918 h -2.16 c 1.44,5.758 3.6,10.078 6.48,13.679 3.6,2.879 7.92,5.04 12.96,5.04 5.04,0 9.36,-2.161 12.96,-5.762 3.6,-2.879 5.76,-7.199 5.76,-12.238 0,-2.879 -0.72,-6.481 -2.16,-10.082 -2.88,-5.04 -6.48,-10.797 -12.24,-16.559 -7.92,-8.641 -12.96,-13.68 -15.12,-15.84 h 17.28 c 3.6,0 6.48,0 7.2,0.719 2.16,0 2.88,0.722 4.32,1.441 0.72,0.719 2.16,1.442 2.88,3.602 h 2.16" /><path
         id="path64"
         style="fill:#231f20;fill-opacity:1;fill-rule:evenodd;stroke:none"
         d="m 1563.34,787.051 v 2.16 c 5.04,-2.16 9.36,-5.043 12.96,-8.641 4.32,-4.32 7.92,-10.082 10.8,-16.562 2.16,-6.481 3.6,-12.957 3.6,-20.16 0,-10.078 -2.88,-19.438 -7.2,-27.36 -5.04,-8.64 -11.52,-14.398 -20.16,-18 v 2.16 c 4.32,2.161 7.92,5.04 10.08,8.641 2.88,3.602 4.32,8.641 5.76,14.399 1.44,6.48 2.16,12.242 2.16,18.722 0,7.199 -0.72,13.68 -1.44,19.438 -1.44,4.32 -2.16,7.922 -3.6,10.8 -0.72,2.161 -2.88,5.04 -4.32,7.2 -2.16,2.882 -5.04,5.043 -8.64,7.203 v 0" /><path
         id="path66"
         style="fill:#ffffff;fill-opacity:1;fill-rule:evenodd;stroke:none"
         d="m 416.277,630.898 c 10.114,0 17.469,-7.359 17.469,-17.468 0,-9.192 -7.355,-16.547 -17.469,-16.547 -9.191,0 -16.547,7.355 -16.547,16.547 0,10.109 7.356,17.468 16.547,17.468" /><path
         id="path68"
         style="fill:none;stroke:#231f20;stroke-width:6.38471985;stroke-linecap:butt;stroke-linejoin:miter;stroke-miterlimit:2.61310005;stroke-dasharray:none;stroke-opacity:1"
         d="m 416.277,630.898 c 10.114,0 17.469,-7.359 17.469,-17.468 0,-9.192 -7.355,-16.547 -17.469,-16.547 -9.191,0 -16.547,7.355 -16.547,16.547 0,10.109 7.356,17.468 16.547,17.468 z" /><path
         id="path70"
         style="fill:#231f20;fill-opacity:1;fill-rule:evenodd;stroke:none"
         d="m 2360.38,627.211 c 7.2,0 12.96,-5.762 12.96,-12.242 0,-7.199 -5.76,-12.239 -12.96,-12.239 -6.48,0 -12.24,5.04 -12.24,12.239 0,6.48 5.76,12.242 12.24,12.242" /><path
         id="path72"
         style="fill:none;stroke:#231f20;stroke-width:9.99779987;stroke-linecap:butt;stroke-linejoin:miter;stroke-miterlimit:2.61310005;stroke-dasharray:none;stroke-opacity:1"
         d="m 2360.38,627.211 c 7.2,0 12.96,-5.762 12.96,-12.242 0,-7.199 -5.76,-12.239 -12.96,-12.239 -6.48,0 -12.24,5.04 -12.24,12.239 0,6.48 5.76,12.242 12.24,12.242 z" /><path
         id="path74"
         style="fill:none;stroke:#231f20;stroke-width:9.99779987;stroke-linecap:butt;stroke-linejoin:miter;stroke-miterlimit:2.61310005;stroke-dasharray:none;stroke-opacity:1"
         d="m 2018.38,614.969 22.32,32.398" /><path
         id="path76"
         style="fill:none;stroke:#231f20;stroke-width:9.99779987;stroke-linecap:butt;stroke-linejoin:miter;stroke-miterlimit:2.61310005;stroke-dasharray:none;stroke-opacity:1"
         d="m 1944.22,614.25 22.32,32.398" /><path
         id="path78"
         style="fill:none;stroke:#231f20;stroke-width:9.99779987;stroke-linecap:butt;stroke-linejoin:miter;stroke-miterlimit:2.61310005;stroke-dasharray:none;stroke-opacity:1"
         d="m 2089.66,616.41 22.32,31.68" /><path
         id="path80"
         style="fill:none;stroke:#231f20;stroke-width:9.99779987;stroke-linecap:butt;stroke-linejoin:miter;stroke-miterlimit:2.61310005;stroke-dasharray:none;stroke-opacity:1"
         d="m 2158.06,616.41 21.6,31.68" /><path
         id="path82"
         style="fill:none;stroke:#231f20;stroke-width:9.99779987;stroke-linecap:butt;stroke-linejoin:miter;stroke-miterlimit:2.61310005;stroke-dasharray:none;stroke-opacity:1"
         d="m 2222.14,614.969 22.32,32.398" /><path
         id="path84"
         style="fill:none;stroke:#231f20;stroke-width:9.99779987;stroke-linecap:butt;stroke-linejoin:miter;stroke-miterlimit:2.61310005;stroke-dasharray:none;stroke-opacity:1"
         d="m 2283.34,616.41 22.32,32.399" /><path
         id="path86"
         style="fill:#231f20;fill-opacity:1;fill-rule:evenodd;stroke:none"
         d="m 4.53906,269.371 c 2.16016,4.317 4.32032,7.918 7.19924,10.797 2.8789,2.16 6.4805,3.602 10.8008,3.602 5.039,0 9.3593,-2.161 12.2382,-5.762 2.1602,-2.16 2.8789,-5.039 2.8789,-7.918 0,-5.039 -2.8789,-10.082 -8.6367,-15.121 3.5977,-1.438 6.4766,-3.598 8.6367,-6.481 2.1602,-2.879 3.6016,-6.48 3.6016,-10.8 0,-5.758 -2.1601,-10.797 -5.7617,-15.118 -4.3164,-5.043 -11.5195,-7.922 -20.8789,-7.922 -4.3203,0 -7.19923,0.719 -8.64064,1.442 -1.4375,1.437 -2.8789,2.879 -2.8789,3.598 0,1.441 0.71875,2.16 1.4414,2.882 0.71875,0.719 1.4375,0.719 2.87891,0.719 0.71875,0 1.44141,0 2.16015,0 0.71878,0 2.16018,-0.719 4.32028,-2.16 1.4414,-0.719 2.8789,-1.441 3.5977,-1.441 1.4414,-0.719 2.8828,-0.719 3.6016,-0.719 3.6015,0 6.4804,1.441 9.3593,3.601 2.1602,2.879 3.6016,5.758 3.6016,9.36 0,2.879 -0.7188,5.039 -2.1602,7.918 -0.7187,1.441 -1.4414,2.882 -2.8789,3.601 -0.7226,1.442 -2.8828,2.879 -5.7617,3.602 -2.1601,1.437 -4.3203,1.437 -7.1992,1.437 h -1.4414 v 1.442 c 2.8789,0.718 5.039,1.441 7.9219,2.879 2.1601,1.441 4.3203,3.601 5.7578,5.761 0.7226,2.16 1.4414,4.321 1.4414,7.2 0,3.601 -1.4414,5.757 -2.8789,7.918 -2.1602,2.16 -5.043,2.882 -7.9219,2.882 -5.0391,0 -9.35938,-2.16 -12.96094,-7.922 l -1.4375,0.723" /><path
         id="path88"
         style="fill:#231f20;fill-opacity:1;fill-rule:evenodd;stroke:none"
         d="m 51.3398,283.051 v 2.16 c 5.0391,-2.16 9.3594,-5.043 12.9571,-8.641 4.3203,-4.32 7.9219,-10.082 10.8008,-16.562 2.1601,-6.477 3.6015,-12.957 3.6015,-20.16 0,-10.078 -2.8828,-19.438 -7.2031,-27.36 -5.0391,-8.64 -11.5195,-14.398 -20.1563,-18 v 2.16 c 4.3164,2.161 7.918,5.04 10.0782,8.641 2.8789,3.602 4.3203,8.641 5.7617,14.399 1.4375,6.48 2.1601,12.242 2.1601,18.722 0,7.199 -0.7226,13.68 -1.4414,19.438 -1.4414,4.32 -2.1601,7.922 -3.6015,10.8 -0.7188,2.161 -2.8789,5.04 -4.3203,7.2 -2.1602,2.882 -5.0391,5.043 -8.6368,7.203 v 0" /><path
         id="path90"
         style="fill:#231f20;fill-opacity:1;fill-rule:evenodd;stroke:none"
         d="m 2853.58,82.8906 c 1.44,-1.4414 2.88,-2.8828 3.6,-5.0429 0.72,-0.7188 1.44,-4.3204 2.88,-9.3594 l 4.32,6.4805 c 0.72,2.1601 2.16,3.6015 4.32,5.039 1.44,1.4414 2.88,2.1602 4.32,2.8828 0.72,0 1.44,0 2.16,0 1.44,0 2.88,0 3.6,-0.7226 0.72,-0.7188 1.44,-2.1602 1.44,-2.8789 0,-1.4414 -0.72,-2.1602 -1.44,-2.8789 -0.72,-0.7227 -1.44,-0.7227 -2.88,-0.7227 -0.72,0 -1.44,0 -2.16,0 -1.44,0.7227 -2.88,0.7227 -2.88,0.7227 -0.72,0 -2.16,0 -2.88,-0.7227 -2.16,-2.1602 -4.32,-5.0391 -7.2,-10.0781 l 3.6,-16.5586 c 0.72,-2.8828 1.44,-4.3203 2.16,-5.043 0,-0.7187 0.72,-0.7187 0.72,-0.7187 0.72,0 1.44,0.7187 2.88,1.4414 1.44,1.4375 2.88,2.8789 4.32,5.7578 l 1.44,-0.7188 c -1.44,-4.3203 -4.32,-7.1992 -7.2,-10.082 -2.16,-1.4375 -3.6,-2.1602 -5.04,-2.1602 -1.44,0 -2.88,1.4415 -4.32,3.6016 -0.72,0.7188 -2.16,6.4805 -4.32,15.8399 -5.04,-8.6407 -8.64,-14.3985 -12.24,-16.5586 -1.44,-2.1602 -3.6,-2.8829 -5.76,-2.8829 -0.72,0 -2.16,0.7227 -3.6,1.4415 -0.72,0.7187 -0.72,2.1601 -0.72,2.8789 0,1.4414 0,2.1601 0.72,2.8828 0.72,0.7187 1.44,1.4375 2.88,1.4375 0.72,0 2.16,-0.7188 3.6,-2.1602 0.72,-0.7187 1.44,-0.7187 1.44,-0.7187 0.72,0 1.44,0 1.44,0.7187 2.16,1.4414 3.6,3.6016 6.48,7.9219 2.88,4.3203 4.32,7.1992 5.04,8.6406 -1.44,7.918 -2.88,12.2383 -2.88,12.957 -0.72,2.1602 -2.16,3.6016 -2.88,4.3204 -1.44,0.7226 -2.88,1.4414 -5.76,1.4414 -0.72,0 -1.44,0 -2.16,0 v 1.4414 l 12.96,2.1601" /><path
         id="path92"
         style="fill:none;stroke:#231f20;stroke-width:9.99779987;stroke-linecap:butt;stroke-linejoin:miter;stroke-miterlimit:2.61310005;stroke-dasharray:none;stroke-opacity:1"
         d="M 1569.1,110.969 H 2763.58" /><path
         id="path94"
         style="fill:#231f20;fill-opacity:1;fill-rule:evenodd;stroke:none"
         d="m 2759.26,137.609 48.24,-26.64 -48.24,-25.9182 v 52.5582" /><path
         id="path96"
         style="fill:none;stroke:#231f20;stroke-width:9.99779987;stroke-linecap:butt;stroke-linejoin:miter;stroke-miterlimit:2.61310005;stroke-dasharray:none;stroke-opacity:1"
         d="m 1929.82,121.77 c -0.72,66.96 28.08,100.8 133.92,100.078 h 718.56" /><path
         id="path98"
         style="fill:#231f20;fill-opacity:1;fill-rule:evenodd;stroke:none"
         d="m 1557.58,240.57 v -7.203 h -8.64 V 216.09 h -7.92 v 17.277 h -28.08 v 6.481 l 30.96,43.922 h 5.04 v -43.2 z m -16.56,0 v 32.399 l -23.04,-32.399 h 23.04" /><path
         id="path100"
         style="fill:#231f20;fill-opacity:1;fill-rule:evenodd;stroke:none"
         d="m 1563.34,283.051 v 2.16 c 5.04,-2.16 9.36,-5.043 12.96,-8.641 4.32,-4.32 7.92,-10.082 10.8,-16.562 2.16,-6.477 3.6,-12.957 3.6,-20.16 0,-10.078 -2.88,-19.438 -7.2,-27.36 -5.04,-8.64 -11.52,-14.398 -20.16,-18 v 2.16 c 4.32,2.161 7.92,5.04 10.08,8.641 2.88,3.602 4.32,8.641 5.76,14.399 1.44,6.48 2.16,12.242 2.16,18.722 0,7.199 -0.72,13.68 -1.44,19.438 -1.44,4.32 -2.16,7.922 -3.6,10.8 -0.72,2.161 -2.88,5.04 -4.32,7.2 -2.16,2.882 -5.04,5.043 -8.64,7.203 v 0" /><path
         id="path102"
         style="fill:none;stroke:#231f20;stroke-width:9.99779987;stroke-linecap:butt;stroke-linejoin:miter;stroke-miterlimit:2.61310005;stroke-dasharray:none;stroke-opacity:1"
         d="m 1973.02,116.73 22.32,32.399" /><path
         id="path104"
         style="fill:none;stroke:#231f20;stroke-width:9.99779987;stroke-linecap:butt;stroke-linejoin:miter;stroke-miterlimit:2.61310005;stroke-dasharray:none;stroke-opacity:1"
         d="m 2045.02,116.73 22.32,32.399" /><path
         id="path106"
         style="fill:none;stroke:#231f20;stroke-width:9.99779987;stroke-linecap:butt;stroke-linejoin:miter;stroke-miterlimit:2.61310005;stroke-dasharray:none;stroke-opacity:1"
         d="m 2117.02,116.73 22.32,32.399" /><path
         id="path108"
         style="fill:none;stroke:#231f20;stroke-width:9.99779987;stroke-linecap:butt;stroke-linejoin:miter;stroke-miterlimit:2.61310005;stroke-dasharray:none;stroke-opacity:1"
         d="m 2189.02,116.73 22.32,32.399" /><path
         id="path110"
         style="fill:#231f20;fill-opacity:1;fill-rule:evenodd;stroke:none"
         d="m 1269.58,82.8906 c 1.44,-1.4414 2.88,-2.8828 3.6,-5.0429 0.72,-0.7188 1.44,-4.3204 2.88,-9.3594 l 4.32,6.4805 c 0.72,2.1601 2.16,3.6015 4.32,5.039 1.44,1.4414 2.88,2.1602 4.32,2.8828 0.72,0 1.44,0 2.16,0 1.44,0 2.88,0 3.6,-0.7226 0.72,-0.7188 1.44,-2.1602 1.44,-2.8789 0,-1.4414 -0.72,-2.1602 -1.44,-2.8789 -0.72,-0.7227 -1.44,-0.7227 -2.88,-0.7227 -0.72,0 -1.44,0 -2.16,0 -1.44,0.7227 -2.88,0.7227 -2.88,0.7227 -0.72,0 -2.16,0 -2.88,-0.7227 -2.16,-2.1602 -4.32,-5.0391 -7.2,-10.0781 l 3.6,-16.5586 c 0.72,-2.8828 1.44,-4.3203 2.16,-5.043 0,-0.7187 0.72,-0.7187 0.72,-0.7187 0.72,0 1.44,0.7187 2.88,1.4414 1.44,1.4375 2.88,2.8789 4.32,5.7578 l 1.44,-0.7188 c -1.44,-4.3203 -4.32,-7.1992 -7.2,-10.082 -2.16,-1.4375 -3.6,-2.1602 -5.04,-2.1602 -1.44,0 -2.88,1.4415 -4.32,3.6016 -0.72,0.7188 -2.16,6.4805 -4.32,15.8399 -5.04,-8.6407 -8.64,-14.3985 -12.24,-16.5586 -1.44,-2.1602 -3.6,-2.8829 -5.76,-2.8829 -0.72,0 -2.16,0.7227 -3.6,1.4415 -0.72,0.7187 -0.72,2.1601 -0.72,2.8789 0,1.4414 0,2.1601 0.72,2.8828 0.72,0.7187 1.44,1.4375 2.88,1.4375 0.72,0 2.16,-0.7188 3.6,-2.1602 0.72,-0.7187 1.44,-0.7187 1.44,-0.7187 0.72,0 1.44,0 1.44,0.7187 2.16,1.4414 3.6,3.6016 6.48,7.9219 2.88,4.3203 4.32,7.1992 5.04,8.6406 -1.44,7.918 -2.88,12.2383 -2.88,12.957 -0.72,2.1602 -2.16,3.6016 -2.88,4.3204 -1.44,0.7226 -2.88,1.4414 -5.76,1.4414 -0.72,0 -1.44,0 -2.16,0 v 1.4414 l 12.96,2.1601" /><path
         id="path112"
         style="fill:none;stroke:#231f20;stroke-width:9.99779987;stroke-linecap:butt;stroke-linejoin:miter;stroke-miterlimit:2.61310005;stroke-dasharray:none;stroke-opacity:1"
         d="M 132.699,110.969 H 1199.02" /><path
         id="path114"
         style="fill:#231f20;fill-opacity:1;fill-rule:evenodd;stroke:none"
         d="m 1195.42,137.609 47.52,-26.64 -47.52,-25.9182 v 52.5582" /><path
         id="path116"
         style="fill:none;stroke:#231f20;stroke-width:9.99779987;stroke-linecap:butt;stroke-linejoin:miter;stroke-miterlimit:2.61310005;stroke-dasharray:none;stroke-opacity:1"
         d="M 848.379,122.488 V 98.7305" /><path
         id="path118"
         style="fill:none;stroke:#231f20;stroke-width:9.99779987;stroke-linecap:butt;stroke-linejoin:miter;stroke-miterlimit:2.61310005;stroke-dasharray:none;stroke-opacity:1"
         d="m 847.656,125.367 c 0.723,66.961 -16.558,100.801 -77.758,100.082 H 463.18" /><path
         id="path120"
         style="fill:none;stroke:#231f20;stroke-width:9.99779987;stroke-linecap:butt;stroke-linejoin:miter;stroke-miterlimit:2.61310005;stroke-dasharray:none;stroke-opacity:1"
         d="m 426.457,108.09 22.32,31.68" /><path
         id="path122"
         style="fill:none;stroke:#231f20;stroke-width:9.99779987;stroke-linecap:butt;stroke-linejoin:miter;stroke-miterlimit:2.61310005;stroke-dasharray:none;stroke-opacity:1"
         d="m 498.457,108.09 22.32,31.68" /><path
         id="path124"
         style="fill:none;stroke:#231f20;stroke-width:9.99779987;stroke-linecap:butt;stroke-linejoin:miter;stroke-miterlimit:2.61310005;stroke-dasharray:none;stroke-opacity:1"
         d="m 858.457,108.09 22.32,31.68" /><path
         id="path126"
         style="fill:none;stroke:#231f20;stroke-width:9.99779987;stroke-linecap:butt;stroke-linejoin:miter;stroke-miterlimit:2.61310005;stroke-dasharray:none;stroke-opacity:1"
         d="m 930.457,108.09 22.32,31.68" /><path
         id="path128"
         style="fill:none;stroke:#231f20;stroke-width:9.99779987;stroke-linecap:butt;stroke-linejoin:miter;stroke-miterlimit:2.61310005;stroke-dasharray:none;stroke-opacity:1"
         d="m 1002.46,108.09 22.32,31.68" /><path
         id="path130"
         style="fill:none;stroke:#231f20;stroke-width:9.99779987;stroke-linecap:butt;stroke-linejoin:miter;stroke-miterlimit:2.61310005;stroke-dasharray:none;stroke-opacity:1"
         d="M 2082.46,728.008 H 1646.14" /><path
         id="path132"
         style="fill:none;stroke:#231f20;stroke-width:9.99779987;stroke-linecap:butt;stroke-linejoin:miter;stroke-miterlimit:2.61310005;stroke-dasharray:none;stroke-opacity:1"
         d="m 374.617,112.41 21.602,31.68" /><path
         id="path134"
         style="fill:none;stroke:#231f20;stroke-width:9.99779987;stroke-linecap:butt;stroke-linejoin:miter;stroke-miterlimit:2.61310005;stroke-dasharray:none;stroke-opacity:1"
         d="m 300.457,108.809 21.602,32.402" /><path
         id="path136"
         style="fill:none;stroke:#231f20;stroke-width:9.99779987;stroke-linecap:butt;stroke-linejoin:miter;stroke-miterlimit:2.61310005;stroke-dasharray:none;stroke-opacity:1"
         d="m 232.059,110.25 22.32,31.68" /><path
         id="path138"
         style="fill:none;stroke:#231f20;stroke-width:9.99779987;stroke-linecap:butt;stroke-linejoin:miter;stroke-miterlimit:2.61310005;stroke-dasharray:none;stroke-opacity:1"
         d="m 155.02,108.809 22.32,31.679" /><path
         id="path140"
         style="fill:none;stroke:#231f20;stroke-width:9.99779987;stroke-linecap:butt;stroke-linejoin:miter;stroke-miterlimit:2.61310005;stroke-dasharray:none;stroke-opacity:1"
         d="m 478.297,225.449 -337.68,1.442" /><path
         id="path142"
         style="fill:none;stroke:#231f20;stroke-width:9.99779987;stroke-linecap:butt;stroke-linejoin:miter;stroke-miterlimit:2.61310005;stroke-dasharray:none;stroke-opacity:1"
         d="m 2253.82,116.73 22.32,32.399" /><path
         id="path144"
         style="fill:none;stroke:#231f20;stroke-width:9.99779987;stroke-linecap:butt;stroke-linejoin:miter;stroke-miterlimit:2.61310005;stroke-dasharray:none;stroke-opacity:1"
         d="m 2325.82,116.73 22.32,32.399" /><path
         id="path146"
         style="fill:none;stroke:#231f20;stroke-width:9.99779987;stroke-linecap:butt;stroke-linejoin:miter;stroke-miterlimit:2.61310005;stroke-dasharray:none;stroke-opacity:1"
         d="m 2397.82,116.73 22.32,32.399" /><path
         id="path148"
         style="fill:none;stroke:#231f20;stroke-width:9.99779987;stroke-linecap:butt;stroke-linejoin:miter;stroke-miterlimit:2.61310005;stroke-dasharray:none;stroke-opacity:1"
         d="m 2469.82,116.73 22.32,32.399" /><path
         id="path150"
         style="fill:none;stroke:#231f20;stroke-width:9.99779987;stroke-linecap:butt;stroke-linejoin:miter;stroke-miterlimit:2.61310005;stroke-dasharray:none;stroke-opacity:1"
         d="m 2541.82,116.73 22.32,32.399" /><path
         id="path152"
         style="fill:#231f20;fill-opacity:1;fill-rule:evenodd;stroke:none"
         d="m 1086.42,124.293 c 6.48,0 11.52,-5.039 11.52,-11.52 0,-6.48 -5.04,-11.519 -11.52,-11.519 -6.48,0 -12.24,5.039 -12.24,11.519 0,6.481 5.76,11.52 12.24,11.52" /><path
         id="path154"
         style="fill:none;stroke:#231f20;stroke-width:9.99779987;stroke-linecap:butt;stroke-linejoin:miter;stroke-miterlimit:2.61310005;stroke-dasharray:none;stroke-opacity:1"
         d="m 1086.42,124.293 c 6.48,0 11.52,-5.039 11.52,-11.52 0,-6.48 -5.04,-11.519 -11.52,-11.519 -6.48,0 -12.24,5.039 -12.24,11.519 0,6.481 5.76,11.52 12.24,11.52 z" /><path
         id="path156"
         style="fill:none;stroke:#231f20;stroke-width:9.99779987;stroke-linecap:butt;stroke-linejoin:miter;stroke-miterlimit:2.61310005;stroke-dasharray:none;stroke-opacity:1"
         d="m 1085.98,123.211 c 0,63.359 -7.92,95.039 -37.44,95.039 H 901.656" /><path
         id="path158"
         style="fill:none;stroke:#231f20;stroke-width:9.99779987;stroke-linecap:butt;stroke-linejoin:miter;stroke-miterlimit:2.61310005;stroke-dasharray:none;stroke-opacity:1"
         d="m 847.656,117.449 c 0,66.961 7.922,100.801 38.883,100.801 h 151.921" /><path
         id="path160"
         style="fill:none;stroke:#231f20;stroke-width:9.99779987;stroke-linecap:butt;stroke-linejoin:miter;stroke-miterlimit:2.61310005;stroke-dasharray:none;stroke-opacity:1"
         d="m 570.457,108.09 22.32,31.68" /><path
         id="path162"
         style="fill:none;stroke:#231f20;stroke-width:9.99779987;stroke-linecap:butt;stroke-linejoin:miter;stroke-miterlimit:2.61310005;stroke-dasharray:none;stroke-opacity:1"
         d="m 642.457,108.09 22.32,31.68" /><path
         id="path164"
         style="fill:none;stroke:#231f20;stroke-width:9.99779987;stroke-linecap:butt;stroke-linejoin:miter;stroke-miterlimit:2.61310005;stroke-dasharray:none;stroke-opacity:1"
         d="m 714.457,108.09 22.32,31.68" /><path
         id="path166"
         style="fill:none;stroke:#231f20;stroke-width:9.99779987;stroke-linecap:butt;stroke-linejoin:miter;stroke-miterlimit:2.61310005;stroke-dasharray:none;stroke-opacity:1"
         d="m 786.457,108.09 22.32,31.68" /><path
         id="path168"
         style="fill:#ffffff;fill-opacity:1;fill-rule:evenodd;stroke:none"
         d="m 847.375,126.832 c 10.109,0 17.465,-7.355 17.465,-17.469 0,-9.191 -7.356,-16.5466 -17.465,-16.5466 -9.191,0 -16.551,7.3556 -16.551,16.5466 0,10.114 7.36,17.469 16.551,17.469" /><path
         id="path170"
         style="fill:none;stroke:#231f20;stroke-width:6.38471985;stroke-linecap:butt;stroke-linejoin:miter;stroke-miterlimit:2.61310005;stroke-dasharray:none;stroke-opacity:1"
         d="m 847.375,126.832 c 10.109,0 17.465,-7.355 17.465,-17.469 0,-9.191 -7.356,-16.5466 -17.465,-16.5466 -9.191,0 -16.551,7.3556 -16.551,16.5466 0,10.114 7.36,17.469 16.551,17.469 z" /><path
         id="path172"
         style="fill:#ffffff;fill-opacity:1;fill-rule:evenodd;stroke:none"
         d="m 1930.55,128.438 c 10.12,0 17.47,-7.356 17.47,-17.469 0,-9.192 -7.35,-16.5471 -17.47,-16.5471 -9.19,0 -16.54,7.3551 -16.54,16.5471 0,10.113 7.35,17.469 16.54,17.469" /><path
         id="path174"
         style="fill:none;stroke:#231f20;stroke-width:6.38471985;stroke-linecap:butt;stroke-linejoin:miter;stroke-miterlimit:2.61310005;stroke-dasharray:none;stroke-opacity:1"
         d="m 1930.55,128.438 c 10.12,0 17.47,-7.356 17.47,-17.469 0,-9.192 -7.35,-16.5471 -17.47,-16.5471 -9.19,0 -16.54,7.3551 -16.54,16.5471 0,10.113 7.35,17.469 16.54,17.469 z" /><path
         id="path176"
         style="fill:#231f20;fill-opacity:1;fill-rule:nonzero;stroke:none"
         d="m 2306.01,545.977 h 52.6523 v 4 H 2306.01 Z" /><path
         id="path178"
         style="fill:#231f20;fill-opacity:1;fill-rule:nonzero;stroke:none"
         d="m 2406.46,527.48 -4.64,-12.75 h -39.06 v 1.801 c 11.48,10.481 19.58,19.047 24.26,25.684 4.69,6.648 7.04,12.715 7.04,18.215 0,4.199 -1.28,7.648 -3.87,10.347 -2.57,2.703 -5.63,4.051 -9.21,4.051 -3.27,0 -6.19,-0.949 -8.77,-2.848 -2.59,-1.902 -4.5,-4.699 -5.73,-8.367 h -1.82 c 0.82,6.016 2.9,10.633 6.28,13.867 3.37,3.215 7.57,4.832 12.62,4.832 5.37,0 9.85,-1.73 13.45,-5.183 3.6,-3.449 5.4,-7.516 5.4,-12.199 0,-3.352 -0.79,-6.719 -2.35,-10.067 -2.4,-5.269 -6.32,-10.847 -11.72,-16.75 -8.1,-8.851 -13.16,-14.183 -15.18,-16.015 h 17.29 c 3.51,0 5.98,0.132 7.39,0.398 1.42,0.25 2.7,0.781 3.84,1.582 1.13,0.801 2.13,1.938 2.98,3.402 h 1.8" /><path
         id="path180"
         style="fill:#231f20;fill-opacity:1;fill-rule:nonzero;stroke:none"
         d="m 345.938,539.277 h 52.6484 v 4 H 345.938 Z" /><path
         id="path182"
         style="fill:#231f20;fill-opacity:1;fill-rule:nonzero;stroke:none"
         d="m 446.387,520.777 -4.633,-12.75 h -39.066 v 1.801 c 11.484,10.484 19.582,19.051 24.265,25.684 4.684,6.652 7.031,12.718 7.031,18.215 0,4.203 -1.281,7.652 -3.867,10.351 -2.562,2.699 -5.629,4.051 -9.215,4.051 -3.265,0 -6.179,-0.949 -8.765,-2.852 -2.582,-1.898 -4.5,-4.699 -5.731,-8.367 h -1.82 c 0.816,6.02 2.902,10.633 6.281,13.867 3.371,3.219 7.571,4.832 12.617,4.832 5.371,0 9.852,-1.73 13.454,-5.183 3.597,-3.449 5.398,-7.512 5.398,-12.196 0,-3.351 -0.781,-6.718 -2.352,-10.07 -2.398,-5.265 -6.312,-10.848 -11.714,-16.75 -8.102,-8.848 -13.165,-14.18 -15.184,-16.015 h 17.285 c 3.516,0 5.981,0.132 7.399,0.402 1.418,0.246 2.703,0.781 3.832,1.582 1.132,0.801 2.132,1.933 2.984,3.398 h 1.801" /><path
         id="path184"
         style="fill:#231f20;fill-opacity:1;fill-rule:nonzero;stroke:none"
         d="m 839.27,566.07 16.117,7.868 h 1.617 V 518.02 c 0,-3.7 0.148,-6.016 0.449,-6.934 0.32,-0.898 0.969,-1.602 1.934,-2.098 0.984,-0.484 2.968,-0.765 5.968,-0.836 v -1.797 h -24.917 v 1.797 c 3.132,0.071 5.152,0.336 6.066,0.817 0.902,0.469 1.535,1.101 1.898,1.902 0.352,0.801 0.536,3.18 0.536,7.149 v 35.75 c 0,4.816 -0.165,7.902 -0.485,9.269 -0.23,1.047 -0.648,1.816 -1.25,2.297 -0.601,0.484 -1.312,0.734 -2.164,0.734 -1.203,0 -2.883,-0.5 -5.035,-1.515 l -0.734,1.515" /><path
         id="path186"
         style="fill:#231f20;fill-opacity:1;fill-rule:nonzero;stroke:none"
         d="m 779.922,32.6016 h 52.6484 v 4 H 779.922 Z" /><path
         id="path188"
         style="fill:#231f20;fill-opacity:1;fill-rule:nonzero;stroke:none"
         d="M 880.371,14.1016 875.738,1.35156 h -39.07 v 1.80078 c 11.488,10.48436 19.586,19.05076 24.27,25.68356 4.683,6.6524 7.031,12.7188 7.031,18.2149 0,4.2031 -1.281,7.6523 -3.867,10.3515 -2.563,2.6993 -5.629,4.0508 -9.215,4.0508 -3.266,0 -6.18,-0.9492 -8.766,-2.8515 -2.582,-1.8985 -4.5,-4.6993 -5.73,-8.3672 h -1.821 c 0.817,6.0195 2.903,10.6328 6.282,13.8672 3.371,3.2187 7.57,4.832 12.617,4.832 5.371,0 9.851,-1.7305 13.453,-5.1836 3.598,-3.4492 5.398,-7.5117 5.398,-12.1953 0,-3.3516 -0.781,-6.7188 -2.351,-10.0703 -2.399,-5.2656 -6.313,-10.8477 -11.715,-16.75 C 854.152,15.8867 849.09,10.5547 847.07,8.71875 h 17.285 c 3.516,0 5.981,0.13281 7.399,0.40234 1.418,0.2461 2.703,0.78125 3.832,1.58201 1.133,0.8008 2.133,1.9336 2.984,3.3985 h 1.801" /><path
         id="path190"
         style="fill:#231f20;fill-opacity:1;fill-rule:nonzero;stroke:none"
         d="m 1070.09,61.0664 16.12,7.8672 h 1.61 v -55.918 c 0,-3.69919 0.15,-6.0156 0.45,-6.93357 0.32,-0.89844 0.97,-1.60156 1.94,-2.09765 0.98,-0.48438 2.97,-0.76563 5.96,-0.83594 V 1.35156 h -24.91 v 1.79688 c 3.13,0.07031 5.15,0.33594 6.06,0.8164 0.91,0.46875 1.54,1.10157 1.9,1.90235 0.35,0.80078 0.54,3.18359 0.54,7.14841 v 35.75 c 0,4.8164 -0.17,7.9024 -0.49,9.2696 -0.23,1.0468 -0.65,1.8164 -1.25,2.2968 -0.6,0.4844 -1.31,0.7344 -2.16,0.7344 -1.2,0 -2.88,-0.5 -5.04,-1.5156 l -0.73,1.5156" /><path
         id="path192"
         style="fill:#231f20;fill-opacity:1;fill-rule:nonzero;stroke:none"
         d="m 1921.78,64.25 16.11,7.8672 h 1.62 v -55.918 c 0,-3.6992 0.15,-6.0156 0.45,-6.93358 0.32,-0.89843 0.97,-1.60156 1.93,-2.09765 0.99,-0.48438 2.97,-0.76563 5.97,-0.83594 V 4.53516 h -24.91 v 1.79687 c 3.12,0.07031 5.14,0.33594 6.06,0.81641 0.9,0.46875 1.53,1.10156 1.9,1.90234 0.35,0.80078 0.54,3.17972 0.54,7.14842 v 35.75 c 0,4.8164 -0.17,7.9024 -0.49,9.2696 -0.23,1.0468 -0.65,1.8164 -1.25,2.2968 -0.6,0.4844 -1.32,0.7344 -2.17,0.7344 -1.2,0 -2.88,-0.5 -5.03,-1.5156 l -0.73,1.5156" /><path
         id="path194"
         style="fill:#ffffff;fill-opacity:1;fill-rule:evenodd;stroke:none"
         d="m 848.355,634.305 c 10.11,0 17.469,-7.356 17.469,-17.469 0,-9.191 -7.359,-16.547 -17.469,-16.547 -9.191,0 -16.55,7.356 -16.55,16.547 0,10.113 7.359,17.469 16.55,17.469" /><path
         id="path196"
         style="fill:none;stroke:#231f20;stroke-width:6.38471985;stroke-linecap:butt;stroke-linejoin:miter;stroke-miterlimit:2.61310005;stroke-dasharray:none;stroke-opacity:1"
         d="m 848.355,634.305 c 10.11,0 17.469,-7.356 17.469,-17.469 0,-9.191 -7.359,-16.547 -17.469,-16.547 -9.191,0 -16.55,7.356 -16.55,16.547 0,10.113 7.359,17.469 16.55,17.469 z" /></g></g></svg>