<?xml version="1.0" encoding="UTF-8" standalone="no"?>
<svg
   xmlns:dc="http://purl.org/dc/elements/1.1/"
   xmlns:cc="http://creativecommons.org/ns#"
   xmlns:rdf="http://www.w3.org/1999/02/22-rdf-syntax-ns#"
   xmlns:svg="http://www.w3.org/2000/svg"
   xmlns="http://www.w3.org/2000/svg"
   viewBox="0 0 348 74.666664"
   height="74.666664"
   width="348"
   xml:space="preserve"
   id="svg2"
   version="1.1"><metadata
     id="metadata8"><rdf:RDF><cc:Work
         rdf:about=""><dc:format>image/svg+xml</dc:format><dc:type
           rdf:resource="http://purl.org/dc/dcmitype/StillImage" /></cc:Work></rdf:RDF></metadata><defs
     id="defs6"><clipPath
       id="clipPath58"
       clipPathUnits="userSpaceOnUse"><path
         style="clip-rule:evenodd"
         id="path56"
         d="M 152.688,463.195 H 828.52 V 404.492 H 152.688 Z" /></clipPath><clipPath
       id="clipPath136"
       clipPathUnits="userSpaceOnUse"><path
         style="clip-rule:evenodd"
         id="path134"
         d="M 1126.55,175.195 H 828.52 v -58.703 h 298.03 z" /></clipPath><clipPath
       id="clipPath186"
       clipPathUnits="userSpaceOnUse"><path
         style="clip-rule:evenodd"
         id="path184"
         d="m 1918.54,463.195 h 349.98 v -58.703 h -349.98 z" /></clipPath><clipPath
       id="clipPath240"
       clipPathUnits="userSpaceOnUse"><path
         style="clip-rule:evenodd"
         id="path238"
         d="m 1592.69,175.195 h 675.83 v -58.703 h -675.83 z" /></clipPath></defs><g
     transform="matrix(1.3333333,0,0,-1.3333333,0,74.666667)"
     id="g10"><g
       transform="scale(0.1)"
       id="g12"><path
         id="path14"
         style="fill:#231f20;fill-opacity:1;fill-rule:nonzero;stroke:none"
         d="m 18.9102,454.066 16.1171,7.868 h 1.6172 v -55.918 c 0,-3.7 0.1485,-6.016 0.4493,-6.934 0.3203,-0.898 0.9687,-1.602 1.9335,-2.098 0.9844,-0.488 2.9688,-0.765 5.9688,-0.836 v -1.8 h -24.918 v 1.8 c 3.1328,0.071 5.1524,0.336 6.0664,0.817 0.9024,0.469 1.5352,1.101 1.8985,1.898 0.3515,0.805 0.5351,3.184 0.5351,7.153 v 35.75 c 0,4.816 -0.164,7.902 -0.4843,9.265 -0.2305,1.051 -0.6485,1.821 -1.25,2.301 -0.6016,0.484 -1.3126,0.734 -2.1641,0.734 -1.2031,0 -2.8828,-0.504 -5.0352,-1.515 l -0.7343,1.515" /><path
         id="path16"
         style="fill:#231f20;fill-opacity:1;fill-rule:nonzero;stroke:none"
         d="m 59.4453,461.73 v 2.051 c 4.9492,-2.433 9.0664,-5.316 12.3516,-8.648 4.6484,-4.75 8.2461,-10.317 10.7812,-16.715 2.5469,-6.402 3.8164,-13.07 3.8164,-20.004 0,-10.082 -2.4843,-19.281 -7.4492,-27.598 -4.9687,-8.316 -11.4648,-14.265 -19.5,-17.851 v 1.801 c 4,2.25 7.3008,5.281 9.8828,9.117 2.5821,3.816 4.5157,8.683 5.7657,14.597 1.25,5.903 1.8828,12.071 1.8828,18.469 0,6.934 -0.5508,13.266 -1.6133,19 -0.8164,4.5 -1.836,8.082 -3.0508,10.801 -1.2344,2.699 -2.8516,5.297 -4.8672,7.797 -2.0156,2.519 -4.6836,4.902 -8,7.183" /><path
         id="path18"
         style="fill:none;stroke:#231f20;stroke-width:7.5005002;stroke-linecap:butt;stroke-linejoin:miter;stroke-miterlimit:2.61310005;stroke-dasharray:none;stroke-opacity:1"
         d="M 144.949,402.141 H 1125.2" /><path
         id="path20"
         style="fill:#231f20;fill-opacity:1;fill-rule:evenodd;stroke:none"
         d="m 1121.04,428.488 47.9,-26.347 -47.9,-26.348 v 52.695" /><path
         id="path22"
         style="fill:#231f20;fill-opacity:1;fill-rule:evenodd;stroke:none"
         d="m 468.266,416.543 c 6.636,0 12.019,-5.383 12.019,-12.02 0,-6.636 -5.383,-12.019 -12.019,-12.019 -6.637,0 -12.02,5.383 -12.02,12.019 0,6.637 5.383,12.02 12.02,12.02" /><path
         id="path24"
         style="fill:none;stroke:#231f20;stroke-width:7.5005002;stroke-linecap:butt;stroke-linejoin:miter;stroke-miterlimit:2.61310005;stroke-dasharray:none;stroke-opacity:1"
         d="m 468.266,416.543 c 6.636,0 12.019,-5.383 12.019,-12.02 0,-6.636 -5.383,-12.019 -12.019,-12.019 -6.637,0 -12.02,5.383 -12.02,12.019 0,6.637 5.383,12.02 12.02,12.02 z" /><path
         id="path26"
         style="fill:#231f20;fill-opacity:1;fill-rule:nonzero;stroke:none"
         d="m 840.102,369.062 v -1.816 c -4.286,-0.418 -7.797,-1.266 -10.516,-2.566 -2.715,-1.282 -5.402,-3.235 -8.051,-5.883 -2.648,-2.633 -4.851,-5.567 -6.597,-8.801 -1.735,-3.25 -3.204,-7.098 -4.368,-11.551 4.684,3.219 9.383,4.836 14.118,4.836 4.515,0 8.449,-1.836 11.765,-5.465 3.317,-3.652 4.985,-8.336 4.985,-14.07 0,-5.531 -1.684,-10.582 -5.036,-15.133 -4.035,-5.535 -9.382,-8.301 -16.015,-8.301 -4.532,0 -8.367,1.504 -11.535,4.485 -6.18,5.832 -9.266,13.383 -9.266,22.664 0,5.922 1.184,11.551 3.566,16.887 2.368,5.351 5.77,10.082 10.184,14.214 4.398,4.133 8.633,6.918 12.668,8.352 4.031,1.434 7.801,2.148 11.281,2.148 z m -30.364,-34.183 c -0.586,-4.399 -0.886,-7.949 -0.886,-10.649 0,-3.117 0.586,-6.515 1.734,-10.183 1.168,-3.649 2.883,-6.567 5.168,-8.715 1.648,-1.52 3.668,-2.285 6.051,-2.285 2.832,0 5.363,1.332 7.582,4 2.234,2.668 3.351,6.484 3.351,11.433 0,5.567 -1.101,10.383 -3.316,14.45 -2.219,4.07 -5.352,6.101 -9.434,6.101 -1.234,0 -2.55,-0.265 -3.968,-0.781 -1.415,-0.52 -3.516,-1.652 -6.282,-3.371" /><path
         id="path28"
         style="fill:#231f20;fill-opacity:1;fill-rule:nonzero;stroke:none"
         d="m 478.375,364.688 -3.816,-8.301 h -19.918 l -4.352,-8.903 c 8.637,-1.265 15.469,-4.464 20.5,-9.613 4.336,-4.418 6.5,-9.637 6.5,-15.617 0,-3.484 -0.699,-6.719 -2.113,-9.668 -1.418,-2.969 -3.203,-5.481 -5.352,-7.566 -2.148,-2.082 -4.551,-3.766 -7.183,-5.032 -3.735,-1.8 -7.582,-2.687 -11.516,-2.687 -3.984,0 -6.867,0.672 -8.668,2.019 -1.816,1.348 -2.719,2.848 -2.719,4.469 0,0.914 0.387,1.715 1.117,2.414 0.75,0.699 1.704,1.051 2.836,1.051 0.852,0 1.598,-0.117 2.235,-0.387 0.629,-0.265 1.715,-0.929 3.246,-1.996 2.437,-1.703 4.902,-2.551 7.418,-2.551 3.801,0 7.148,1.45 10.031,4.332 2.887,2.883 4.32,6.383 4.32,10.516 0,4 -1.285,7.734 -3.851,11.203 -2.582,3.465 -6.117,6.149 -10.649,8.031 -3.55,1.469 -8.386,2.317 -14.5,2.551 l 12.7,25.735 h 23.734" /><path
         id="path30"
         style="fill:#231f20;fill-opacity:1;fill-rule:nonzero;stroke:none"
         d="m 1135.79,363.359 c 1.6,-1.683 2.8,-3.382 3.62,-5.066 0.58,-1.184 1.55,-4.25 2.88,-9.234 l 4.3,6.453 c 1.14,1.547 2.52,3.05 4.15,4.465 1.62,1.418 3.05,2.382 4.28,2.898 0.79,0.336 1.66,0.484 2.6,0.484 1.4,0 2.5,-0.363 3.34,-1.117 0.83,-0.75 1.25,-1.664 1.25,-2.73 0,-1.235 -0.25,-2.086 -0.74,-2.535 -0.91,-0.817 -1.95,-1.235 -3.11,-1.235 -0.68,0 -1.42,0.153 -2.2,0.453 -1.54,0.516 -2.57,0.782 -3.09,0.782 -0.78,0 -1.69,-0.469 -2.78,-1.368 -2.01,-1.699 -4.41,-4.964 -7.22,-9.816 l 4,-16.801 c 0.62,-2.562 1.14,-4.113 1.57,-4.617 0.42,-0.496 0.84,-0.746 1.27,-0.746 0.68,0 1.48,0.363 2.38,1.117 1.8,1.496 3.32,3.449 4.6,5.863 l 1.7,-0.882 c -2.05,-3.848 -4.65,-7.032 -7.81,-9.567 -1.79,-1.433 -3.31,-2.152 -4.54,-2.152 -1.81,0 -3.26,1.019 -4.35,3.07 -0.68,1.266 -2.1,6.75 -4.25,16.418 -5.07,-8.836 -9.13,-14.504 -12.2,-17.051 -1.98,-1.617 -3.9,-2.437 -5.76,-2.437 -1.3,0 -2.49,0.469 -3.57,1.418 -0.77,0.719 -1.17,1.668 -1.17,2.883 0,1.07 0.37,1.968 1.09,2.683 0.7,0.719 1.58,1.067 2.63,1.067 1.03,0 2.15,-0.516 3.32,-1.563 0.84,-0.754 1.5,-1.117 1.95,-1.117 0.4,0 0.89,0.266 1.51,0.781 1.54,1.235 3.62,3.902 6.25,8 2.63,4.102 4.37,7.067 5.19,8.899 -2.04,7.902 -3.12,12.086 -3.29,12.535 -0.75,2.117 -1.71,3.617 -2.93,4.5 -1.2,0.883 -2.97,1.316 -5.32,1.316 -0.75,0 -1.61,-0.031 -2.58,-0.101 v 1.765 l 13.03,2.285" /><path
         id="path32"
         style="fill:#231f20;fill-opacity:1;fill-rule:nonzero;stroke:none"
         d="m 18.3477,135.266 c 1.8867,4.453 4.2695,7.902 7.1523,10.316 2.8828,2.434 6.4688,3.652 10.7656,3.652 5.3008,0 9.3672,-1.734 12.2032,-5.183 2.1484,-2.567 3.2343,-5.317 3.2343,-8.25 0,-4.817 -3.039,-9.801 -9.0859,-14.934 4.0664,-1.601 7.1328,-3.883 9.2187,-6.851 2.0821,-2.946 3.1329,-6.43 3.1329,-10.45 0,-5.7144 -1.8204,-10.6832 -5.4688,-14.8824 -4.75,-5.4648 -11.6328,-8.1992 -20.6523,-8.1992 -4.4649,0 -7.4961,0.5468 -9.1133,1.6523 -1.6016,1.1133 -2.418,2.2969 -2.418,3.5664 0,0.9492 0.3828,1.7813 1.1484,2.5 0.7696,0.7149 1.6836,1.0625 2.7657,1.0625 0.8047,0 1.6367,-0.1328 2.4883,-0.3789 0.5507,-0.1679 1.8007,-0.7695 3.7656,-1.7851 1.9492,-1.0352 3.3008,-1.6368 4.0508,-1.8321 1.1953,-0.3672 2.4804,-0.5351 3.8476,-0.5351 3.3164,0 6.2149,1.2812 8.668,3.8515 2.4648,2.5625 3.6836,5.6133 3.6836,9.1329 0,2.5622 -0.5664,5.0822 -1.7032,7.5152 -0.8476,1.817 -1.7812,3.2 -2.7812,4.149 -1.3984,1.301 -3.3164,2.484 -5.7656,3.535 -2.4336,1.066 -4.9336,1.602 -7.4688,1.602 h -1.5664 v 1.464 c 2.5664,0.317 5.1524,1.25 7.7344,2.782 2.6016,1.519 4.4844,3.367 5.6523,5.519 1.1641,2.149 1.7461,4.5 1.7461,7.067 0,3.367 -1.0468,6.066 -3.1484,8.132 -2.1016,2.067 -4.6992,3.098 -7.8359,3.098 -5.0469,0 -9.2461,-2.695 -12.6485,-8.098 l -1.6015,0.782" /><path
         id="path34"
         style="fill:#231f20;fill-opacity:1;fill-rule:nonzero;stroke:none"
         d="m 65.5156,149.031 v 2.055 c 4.9492,-2.438 9.0664,-5.32 12.3516,-8.652 4.6484,-4.75 8.25,-10.317 10.7851,-16.715 2.5469,-6.403 3.8125,-13.071 3.8125,-20.004 0,-10.0822 -2.4804,-19.2814 -7.4492,-27.5978 -4.9648,-8.3164 -11.4648,-14.2656 -19.5,-17.8516 v 1.8008 c 4,2.25 7.3008,5.2852 9.8828,9.1211 2.586,3.8125 4.5196,8.6797 5.7696,14.5977 1.25,5.8984 1.8828,12.0664 1.8828,18.4648 0,6.934 -0.5508,13.266 -1.6172,19 -0.8164,4.5 -1.8359,8.082 -3.0508,10.801 -1.2305,2.699 -2.8516,5.297 -4.8672,7.797 -2.0156,2.519 -4.6836,4.902 -8,7.183" /><path
         id="path36"
         style="fill:#231f20;fill-opacity:1;fill-rule:nonzero;stroke:none"
         d="m 1469.09,382.812 -4.64,-12.75 h -39.06 v 1.801 c 11.49,10.481 19.58,19.047 24.27,25.684 4.68,6.648 7.03,12.715 7.03,18.215 0,4.199 -1.28,7.648 -3.87,10.347 -2.56,2.703 -5.63,4.051 -9.21,4.051 -3.27,0 -6.18,-0.949 -8.77,-2.848 -2.58,-1.902 -4.5,-4.699 -5.73,-8.367 h -1.82 c 0.82,6.016 2.9,10.633 6.28,13.867 3.37,3.215 7.57,4.833 12.62,4.833 5.37,0 9.85,-1.731 13.45,-5.184 3.6,-3.449 5.4,-7.516 5.4,-12.199 0,-3.352 -0.78,-6.719 -2.35,-10.067 -2.4,-5.269 -6.31,-10.847 -11.72,-16.75 -8.1,-8.851 -13.17,-14.183 -15.18,-16.015 h 17.28 c 3.52,0 5.98,0.132 7.4,0.398 1.42,0.25 2.7,0.781 3.83,1.582 1.14,0.801 2.14,1.938 2.99,3.402 h 1.8" /><path
         id="path38"
         style="fill:#231f20;fill-opacity:1;fill-rule:nonzero;stroke:none"
         d="m 1475.49,437.441 v 2.055 c 4.95,-2.437 9.06,-5.32 12.35,-8.652 4.65,-4.75 8.25,-10.317 10.78,-16.715 2.55,-6.402 3.82,-13.067 3.82,-20 0,-10.086 -2.48,-19.285 -7.45,-27.598 -4.97,-8.316 -11.47,-14.269 -19.5,-17.855 v 1.801 c 4,2.25 7.3,5.285 9.88,9.121 2.59,3.812 4.52,8.679 5.77,14.597 1.25,5.903 1.88,12.067 1.88,18.465 0,6.934 -0.55,13.27 -1.61,19.004 -0.82,4.496 -1.84,8.078 -3.05,10.797 -1.24,2.699 -2.86,5.301 -4.87,7.801 -2.02,2.515 -4.69,4.898 -8,7.179" /><path
         id="path40"
         style="fill:#231f20;fill-opacity:1;fill-rule:nonzero;stroke:none"
         d="m 1475.84,99.9961 v -6.9336 h -8.88 V 75.5781 h -8.07 v 17.4844 h -28.01 v 6.25 l 30.71,43.8475 h 5.37 V 99.9961 Z m -16.95,0 v 32.8629 l -23.23,-32.8629 h 23.23" /><path
         id="path42"
         style="fill:#231f20;fill-opacity:1;fill-rule:nonzero;stroke:none"
         d="m 1481.56,142.961 v 2.051 c 4.95,-2.434 9.06,-5.317 12.35,-8.649 4.65,-4.754 8.25,-10.316 10.79,-16.718 2.54,-6.399 3.81,-13.067 3.81,-20.0005 0,-10.082 -2.48,-19.2851 -7.45,-27.5976 -4.97,-8.3164 -11.47,-14.2657 -19.5,-17.8516 v 1.8008 c 4,2.25 7.3,5.2812 9.88,9.1172 2.59,3.8164 4.52,8.6836 5.77,14.5976 1.25,5.9024 1.88,12.0664 1.88,18.4688 0,6.9333 -0.55,13.2653 -1.61,19.0003 -0.82,4.5 -1.84,8.082 -3.05,10.8 -1.23,2.7 -2.85,5.297 -4.87,7.797 -2.01,2.516 -4.68,4.903 -8,7.184" /><path
         id="path44"
         style="fill:none;stroke:#231f20;stroke-width:7.5005002;stroke-linecap:butt;stroke-linejoin:miter;stroke-miterlimit:2.61310005;stroke-dasharray:none;stroke-opacity:1"
         d="M 151.18,554.355 H 701.855" /><path
         id="path46"
         style="fill:none;stroke:#231f20;stroke-width:7.5005002;stroke-linecap:butt;stroke-linejoin:miter;stroke-miterlimit:2.61310005;stroke-dasharray:none;stroke-opacity:1"
         d="m 691.789,553.832 c 95.023,1.504 141.406,-46.187 139.152,-143.074" /><path
         id="path48"
         style="fill:#ffffff;fill-opacity:1;fill-rule:evenodd;stroke:none"
         d="m 828.266,416.543 c 6.636,0 12.019,-5.383 12.019,-12.02 0,-6.636 -5.383,-12.019 -12.019,-12.019 -6.637,0 -12.02,5.383 -12.02,12.019 0,6.637 5.383,12.02 12.02,12.02" /><path
         id="path50"
         style="fill:none;stroke:#231f20;stroke-width:7.5005002;stroke-linecap:butt;stroke-linejoin:miter;stroke-miterlimit:2.61310005;stroke-dasharray:none;stroke-opacity:1"
         d="m 828.266,416.543 c 6.636,0 12.019,-5.383 12.019,-12.02 0,-6.636 -5.383,-12.019 -12.019,-12.019 -6.637,0 -12.02,5.383 -12.02,12.019 0,6.637 5.383,12.02 12.02,12.02 z" /><g
         id="g52"><g
           clip-path="url(#clipPath58)"
           id="g54"><path
             id="path60"
             style="fill:none;stroke:#231f20;stroke-width:3.5999999;stroke-linecap:butt;stroke-linejoin:miter;stroke-miterlimit:2.61310005;stroke-dasharray:none;stroke-opacity:1"
             d="M 30.7773,413.316 511.164,893.703" /><path
             id="path62"
             style="fill:none;stroke:#231f20;stroke-width:3.5999999;stroke-linecap:butt;stroke-linejoin:miter;stroke-miterlimit:2.61310005;stroke-dasharray:none;stroke-opacity:1"
             d="M 51.1406,392.949 531.527,873.336" /><path
             id="path64"
             style="fill:none;stroke:#231f20;stroke-width:3.5999999;stroke-linecap:butt;stroke-linejoin:miter;stroke-miterlimit:2.61310005;stroke-dasharray:none;stroke-opacity:1"
             d="M 71.5078,372.586 551.895,852.973" /><path
             id="path66"
             style="fill:none;stroke:#231f20;stroke-width:3.5999999;stroke-linecap:butt;stroke-linejoin:miter;stroke-miterlimit:2.61310005;stroke-dasharray:none;stroke-opacity:1"
             d="M 91.8711,352.223 572.258,832.609" /><path
             id="path68"
             style="fill:none;stroke:#231f20;stroke-width:3.5999999;stroke-linecap:butt;stroke-linejoin:miter;stroke-miterlimit:2.61310005;stroke-dasharray:none;stroke-opacity:1"
             d="M 112.234,331.855 592.625,812.242" /><path
             id="path70"
             style="fill:none;stroke:#231f20;stroke-width:3.5999999;stroke-linecap:butt;stroke-linejoin:miter;stroke-miterlimit:2.61310005;stroke-dasharray:none;stroke-opacity:1"
             d="M 132.602,311.492 612.988,791.879" /><path
             id="path72"
             style="fill:none;stroke:#231f20;stroke-width:3.5999999;stroke-linecap:butt;stroke-linejoin:miter;stroke-miterlimit:2.61310005;stroke-dasharray:none;stroke-opacity:1"
             d="M 152.965,291.125 633.352,771.516" /><path
             id="path74"
             style="fill:none;stroke:#231f20;stroke-width:3.5999999;stroke-linecap:butt;stroke-linejoin:miter;stroke-miterlimit:2.61310005;stroke-dasharray:none;stroke-opacity:1"
             d="M 173.328,270.762 653.719,751.148" /><path
             id="path76"
             style="fill:none;stroke:#231f20;stroke-width:3.5999999;stroke-linecap:butt;stroke-linejoin:miter;stroke-miterlimit:2.61310005;stroke-dasharray:none;stroke-opacity:1"
             d="M 193.695,250.398 674.082,730.785" /><path
             id="path78"
             style="fill:none;stroke:#231f20;stroke-width:3.5999999;stroke-linecap:butt;stroke-linejoin:miter;stroke-miterlimit:2.61310005;stroke-dasharray:none;stroke-opacity:1"
             d="M 214.059,230.031 694.445,710.422" /><path
             id="path80"
             style="fill:none;stroke:#231f20;stroke-width:3.5999999;stroke-linecap:butt;stroke-linejoin:miter;stroke-miterlimit:2.61310005;stroke-dasharray:none;stroke-opacity:1"
             d="M 234.426,209.668 714.812,690.055" /><path
             id="path82"
             style="fill:none;stroke:#231f20;stroke-width:3.5999999;stroke-linecap:butt;stroke-linejoin:miter;stroke-miterlimit:2.61310005;stroke-dasharray:none;stroke-opacity:1"
             d="M 254.789,189.305 735.176,669.691" /><path
             id="path84"
             style="fill:none;stroke:#231f20;stroke-width:3.5999999;stroke-linecap:butt;stroke-linejoin:miter;stroke-miterlimit:2.61310005;stroke-dasharray:none;stroke-opacity:1"
             d="m 275.152,168.938 480.387,480.39" /><path
             id="path86"
             style="fill:none;stroke:#231f20;stroke-width:3.5999999;stroke-linecap:butt;stroke-linejoin:miter;stroke-miterlimit:2.61310005;stroke-dasharray:none;stroke-opacity:1"
             d="M 295.52,148.574 775.906,628.961" /><path
             id="path88"
             style="fill:none;stroke:#231f20;stroke-width:3.5999999;stroke-linecap:butt;stroke-linejoin:miter;stroke-miterlimit:2.61310005;stroke-dasharray:none;stroke-opacity:1"
             d="M 315.883,128.211 796.27,608.598" /><path
             id="path90"
             style="fill:none;stroke:#231f20;stroke-width:3.5999999;stroke-linecap:butt;stroke-linejoin:miter;stroke-miterlimit:2.61310005;stroke-dasharray:none;stroke-opacity:1"
             d="M 336.246,107.844 816.633,588.23" /><path
             id="path92"
             style="fill:none;stroke:#231f20;stroke-width:3.5999999;stroke-linecap:butt;stroke-linejoin:miter;stroke-miterlimit:2.61310005;stroke-dasharray:none;stroke-opacity:1"
             d="M 356.613,87.4805 837,567.867" /><path
             id="path94"
             style="fill:none;stroke:#231f20;stroke-width:3.5999999;stroke-linecap:butt;stroke-linejoin:miter;stroke-miterlimit:2.61310005;stroke-dasharray:none;stroke-opacity:1"
             d="M 376.977,67.1172 857.363,547.504" /><path
             id="path96"
             style="fill:none;stroke:#231f20;stroke-width:3.5999999;stroke-linecap:butt;stroke-linejoin:miter;stroke-miterlimit:2.61310005;stroke-dasharray:none;stroke-opacity:1"
             d="M 397.34,46.75 877.73,527.137" /><path
             id="path98"
             style="fill:none;stroke:#231f20;stroke-width:3.5999999;stroke-linecap:butt;stroke-linejoin:miter;stroke-miterlimit:2.61310005;stroke-dasharray:none;stroke-opacity:1"
             d="M 417.707,26.3867 898.094,506.773" /><path
             id="path100"
             style="fill:none;stroke:#231f20;stroke-width:3.5999999;stroke-linecap:butt;stroke-linejoin:miter;stroke-miterlimit:2.61310005;stroke-dasharray:none;stroke-opacity:1"
             d="M 438.07,6.01953 918.457,486.41" /><path
             id="path102"
             style="fill:none;stroke:#231f20;stroke-width:3.5999999;stroke-linecap:butt;stroke-linejoin:miter;stroke-miterlimit:2.61310005;stroke-dasharray:none;stroke-opacity:1"
             d="M 458.434,-14.3438 938.824,466.043" /><path
             id="path104"
             style="fill:none;stroke:#231f20;stroke-width:3.5999999;stroke-linecap:butt;stroke-linejoin:miter;stroke-miterlimit:2.61310005;stroke-dasharray:none;stroke-opacity:1"
             d="M 478.801,-34.707 959.188,445.68" /><path
             id="path106"
             style="fill:none;stroke:#231f20;stroke-width:3.5999999;stroke-linecap:butt;stroke-linejoin:miter;stroke-miterlimit:2.61310005;stroke-dasharray:none;stroke-opacity:1"
             d="M 499.164,-55.0742 979.551,425.316" /></g></g><path
         id="path108"
         style="fill:none;stroke:#231f20;stroke-width:7.5005002;stroke-linecap:butt;stroke-linejoin:miter;stroke-miterlimit:2.61310005;stroke-dasharray:none;stroke-opacity:1"
         d="M 144.949,114.141 H 1125.2" /><path
         id="path110"
         style="fill:#231f20;fill-opacity:1;fill-rule:evenodd;stroke:none"
         d="m 1121.04,140.488 47.9,-26.347 -47.9,-26.348 v 52.695" /><path
         id="path112"
         style="fill:#231f20;fill-opacity:1;fill-rule:evenodd;stroke:none"
         d="m 468.266,128.543 c 6.636,0 12.019,-5.383 12.019,-12.02 0,-6.636 -5.383,-12.019 -12.019,-12.019 -6.637,0 -12.02,5.383 -12.02,12.019 0,6.637 5.383,12.02 12.02,12.02" /><path
         id="path114"
         style="fill:none;stroke:#231f20;stroke-width:7.5005002;stroke-linecap:butt;stroke-linejoin:miter;stroke-miterlimit:2.61310005;stroke-dasharray:none;stroke-opacity:1"
         d="m 468.266,128.543 c 6.636,0 12.019,-5.383 12.019,-12.02 0,-6.636 -5.383,-12.019 -12.019,-12.019 -6.637,0 -12.02,5.383 -12.02,12.019 0,6.637 5.383,12.02 12.02,12.02 z" /><path
         id="path116"
         style="fill:#231f20;fill-opacity:1;fill-rule:nonzero;stroke:none"
         d="m 840.102,81.0625 v -1.8164 c -4.286,-0.418 -7.797,-1.2656 -10.516,-2.5664 -2.715,-1.2852 -5.402,-3.2344 -8.051,-5.8828 -2.648,-2.6328 -4.851,-5.5664 -6.597,-8.8008 -1.735,-3.25 -3.204,-7.0977 -4.368,-11.5508 4.684,3.2188 9.383,4.832 14.118,4.832 4.515,0 8.449,-1.832 11.765,-5.4648 3.317,-3.6484 4.985,-8.332 4.985,-14.0664 0,-5.5352 -1.684,-10.582 -5.036,-15.1328 -4.035,-5.5352 -9.382,-8.3008 -16.015,-8.3008 -4.532,0 -8.367,1.5039 -11.535,4.4844 -6.18,5.832 -9.266,13.3828 -9.266,22.664 0,5.918 1.184,11.5508 3.566,16.8868 2.368,5.3476 5.77,10.082 10.184,14.2148 4.398,4.1328 8.633,6.918 12.668,8.3516 4.031,1.4297 7.801,2.1484 11.281,2.1484 z M 809.738,46.8789 c -0.586,-4.3984 -0.886,-7.9492 -0.886,-10.6484 0,-3.1172 0.586,-6.5157 1.734,-10.1836 1.168,-3.6485 2.883,-6.5664 5.168,-8.7188 1.648,-1.5156 3.668,-2.2812 6.051,-2.2812 2.832,0 5.363,1.332 7.582,4 2.234,2.6679 3.351,6.4843 3.351,11.4336 0,5.5664 -1.101,10.3828 -3.316,14.4492 -2.219,4.0664 -5.352,6.1015 -9.434,6.1015 -1.234,0 -2.55,-0.2656 -3.968,-0.7851 -1.415,-0.5156 -3.516,-1.6523 -6.282,-3.3672" /><path
         id="path118"
         style="fill:#231f20;fill-opacity:1;fill-rule:nonzero;stroke:none"
         d="m 478.375,76.6875 -3.816,-8.3008 h -19.918 l -4.352,-8.9023 c 8.637,-1.2656 15.469,-4.4649 20.5,-9.6133 4.336,-4.418 6.5,-9.6367 6.5,-15.6172 0,-3.4844 -0.699,-6.7187 -2.113,-9.668 -1.418,-2.9687 -3.203,-5.4804 -5.352,-7.5664 -2.148,-2.082 -4.551,-3.7656 -7.183,-5.0312 -3.735,-1.8008 -7.582,-2.68752 -11.516,-2.68752 -3.984,0 -6.867,0.67188 -8.668,2.01952 -1.816,1.3477 -2.719,2.8477 -2.719,4.4688 0,0.914 0.387,1.7148 1.117,2.414 0.75,0.6992 1.704,1.0508 2.836,1.0508 0.852,0 1.598,-0.1172 2.235,-0.3867 0.629,-0.2656 1.715,-0.9297 3.246,-1.9961 2.437,-1.7031 4.902,-2.5508 7.418,-2.5508 3.801,0 7.148,1.4492 10.031,4.332 2.887,2.8829 4.32,6.3829 4.32,10.5157 0,4 -1.285,7.7343 -3.851,11.2031 -2.582,3.4648 -6.117,6.1484 -10.649,8.0312 -3.55,1.4688 -8.386,2.3165 -14.5,2.5508 l 12.7,25.7344 h 23.734" /><path
         id="path120"
         style="fill:#231f20;fill-opacity:1;fill-rule:nonzero;stroke:none"
         d="m 1135.79,75.3594 c 1.6,-1.6836 2.8,-3.3828 3.62,-5.0664 0.58,-1.1836 1.55,-4.25 2.88,-9.2344 l 4.3,6.4531 c 1.14,1.5469 2.52,3.0508 4.15,4.4649 1.62,1.4179 3.05,2.3828 4.28,2.8984 0.79,0.3359 1.66,0.4844 2.6,0.4844 1.4,0 2.5,-0.3633 3.34,-1.1172 0.83,-0.75 1.25,-1.6641 1.25,-2.7305 0,-1.2344 -0.25,-2.0859 -0.74,-2.5351 -0.91,-0.8164 -1.95,-1.2344 -3.11,-1.2344 -0.68,0 -1.42,0.1523 -2.2,0.4531 -1.54,0.5156 -2.57,0.7813 -3.09,0.7813 -0.78,0 -1.69,-0.4688 -2.78,-1.3672 -2.01,-1.6992 -4.41,-4.9649 -7.22,-9.8164 l 4,-16.8008 c 0.62,-2.5625 1.14,-4.1133 1.57,-4.6172 0.42,-0.4961 0.84,-0.7461 1.27,-0.7461 0.68,0 1.48,0.3633 2.38,1.1172 1.8,1.4961 3.32,3.4492 4.6,5.8633 l 1.7,-0.8828 c -2.05,-3.8477 -4.65,-7.0313 -7.81,-9.5664 -1.79,-1.4336 -3.31,-2.1524 -4.54,-2.1524 -1.81,0 -3.26,1.0195 -4.35,3.0703 -0.68,1.2657 -2.1,6.75 -4.25,16.418 -5.07,-8.8359 -9.13,-14.5039 -12.2,-17.0508 -1.98,-1.6172 -3.9,-2.4375 -5.76,-2.4375 -1.3,0 -2.49,0.4688 -3.57,1.418 -0.77,0.7187 -1.17,1.668 -1.17,2.8828 0,1.0703 0.37,1.9687 1.09,2.6836 0.7,0.7187 1.58,1.0664 2.63,1.0664 1.03,0 2.15,-0.5156 3.32,-1.5625 0.84,-0.7539 1.5,-1.1172 1.95,-1.1172 0.4,0 0.89,0.2656 1.51,0.7813 1.54,1.2343 3.62,3.9023 6.25,8 2.63,4.1015 4.37,7.0664 5.19,8.8984 -2.04,7.9023 -3.12,12.0859 -3.29,12.5352 -0.75,2.1171 -1.71,3.6171 -2.93,4.5 -1.2,0.8828 -2.97,1.3164 -5.32,1.3164 -0.75,0 -1.61,-0.0313 -2.58,-0.1016 v 1.7656 l 13.03,2.2852" /><path
         id="path122"
         style="fill:none;stroke:#231f20;stroke-width:7.5005002;stroke-linecap:butt;stroke-linejoin:miter;stroke-miterlimit:2.61310005;stroke-dasharray:none;stroke-opacity:1"
         d="M 1195.79,269.367 H 956.809" /><path
         id="path124"
         style="fill:none;stroke:#231f20;stroke-width:7.5005002;stroke-linecap:butt;stroke-linejoin:miter;stroke-miterlimit:2.61310005;stroke-dasharray:none;stroke-opacity:1"
         d="M 966.875,268.844 C 871.852,270.344 825.469,222.656 827.723,125.77" /><path
         id="path126"
         style="fill:#ffffff;fill-opacity:1;fill-rule:evenodd;stroke:none"
         d="m 828.266,128.543 c 6.636,0 12.019,-5.383 12.019,-12.02 0,-6.636 -5.383,-12.019 -12.019,-12.019 -6.637,0 -12.02,5.383 -12.02,12.019 0,6.637 5.383,12.02 12.02,12.02" /><path
         id="path128"
         style="fill:none;stroke:#231f20;stroke-width:7.5005002;stroke-linecap:butt;stroke-linejoin:miter;stroke-miterlimit:2.61310005;stroke-dasharray:none;stroke-opacity:1"
         d="m 828.266,128.543 c 6.636,0 12.019,-5.383 12.019,-12.02 0,-6.636 -5.383,-12.019 -12.019,-12.019 -6.637,0 -12.02,5.383 -12.02,12.019 0,6.637 5.383,12.02 12.02,12.02 z" /><g
         id="g130"><g
           clip-path="url(#clipPath136)"
           id="g132"><path
             id="path138"
             style="fill:none;stroke:#231f20;stroke-width:3.5999999;stroke-linecap:butt;stroke-linejoin:miter;stroke-miterlimit:2.61310005;stroke-dasharray:none;stroke-opacity:1"
             d="M 783.016,125.316 997.883,340.184" /><path
             id="path140"
             style="fill:none;stroke:#231f20;stroke-width:3.5999999;stroke-linecap:butt;stroke-linejoin:miter;stroke-miterlimit:2.61310005;stroke-dasharray:none;stroke-opacity:1"
             d="M 803.379,104.949 1018.25,319.82" /><path
             id="path142"
             style="fill:none;stroke:#231f20;stroke-width:3.5999999;stroke-linecap:butt;stroke-linejoin:miter;stroke-miterlimit:2.61310005;stroke-dasharray:none;stroke-opacity:1"
             d="M 823.746,84.5859 1038.61,299.453" /><path
             id="path144"
             style="fill:none;stroke:#231f20;stroke-width:3.5999999;stroke-linecap:butt;stroke-linejoin:miter;stroke-miterlimit:2.61310005;stroke-dasharray:none;stroke-opacity:1"
             d="M 844.109,64.2227 1058.98,279.09" /><path
             id="path146"
             style="fill:none;stroke:#231f20;stroke-width:3.5999999;stroke-linecap:butt;stroke-linejoin:miter;stroke-miterlimit:2.61310005;stroke-dasharray:none;stroke-opacity:1"
             d="M 864.473,43.8555 1079.34,258.727" /><path
             id="path148"
             style="fill:none;stroke:#231f20;stroke-width:3.5999999;stroke-linecap:butt;stroke-linejoin:miter;stroke-miterlimit:2.61310005;stroke-dasharray:none;stroke-opacity:1"
             d="M 884.84,23.4922 1099.71,238.359" /><path
             id="path150"
             style="fill:none;stroke:#231f20;stroke-width:3.5999999;stroke-linecap:butt;stroke-linejoin:miter;stroke-miterlimit:2.61310005;stroke-dasharray:none;stroke-opacity:1"
             d="M 905.203,3.125 1120.07,217.996" /><path
             id="path152"
             style="fill:none;stroke:#231f20;stroke-width:3.5999999;stroke-linecap:butt;stroke-linejoin:miter;stroke-miterlimit:2.61310005;stroke-dasharray:none;stroke-opacity:1"
             d="M 925.566,-17.2383 1140.44,197.633" /><path
             id="path154"
             style="fill:none;stroke:#231f20;stroke-width:3.5999999;stroke-linecap:butt;stroke-linejoin:miter;stroke-miterlimit:2.61310005;stroke-dasharray:none;stroke-opacity:1"
             d="M 945.934,-37.6016 1160.8,177.266" /><path
             id="path156"
             style="fill:none;stroke:#231f20;stroke-width:3.5999999;stroke-linecap:butt;stroke-linejoin:miter;stroke-miterlimit:2.61310005;stroke-dasharray:none;stroke-opacity:1"
             d="M 966.297,-57.9688 1181.17,156.902" /><path
             id="path158"
             style="fill:none;stroke:#231f20;stroke-width:3.5999999;stroke-linecap:butt;stroke-linejoin:miter;stroke-miterlimit:2.61310005;stroke-dasharray:none;stroke-opacity:1"
             d="M 986.664,-78.332 1201.53,136.539" /></g></g><path
         id="path160"
         style="fill:none;stroke:#231f20;stroke-width:7.5005002;stroke-linecap:butt;stroke-linejoin:miter;stroke-miterlimit:2.61310005;stroke-dasharray:none;stroke-opacity:1"
         d="M 1584.95,402.141 H 2565.2" /><path
         id="path162"
         style="fill:#231f20;fill-opacity:1;fill-rule:evenodd;stroke:none"
         d="m 2561.04,428.488 47.9,-26.347 -47.9,-26.348 v 52.695" /><path
         id="path164"
         style="fill:#ffffff;fill-opacity:1;fill-rule:evenodd;stroke:none"
         d="m 1908.27,416.543 c 6.63,0 12.02,-5.383 12.02,-12.02 0,-6.636 -5.39,-12.019 -12.02,-12.019 -6.64,0 -12.02,5.383 -12.02,12.019 0,6.637 5.38,12.02 12.02,12.02" /><path
         id="path166"
         style="fill:none;stroke:#231f20;stroke-width:7.5005002;stroke-linecap:butt;stroke-linejoin:miter;stroke-miterlimit:2.61310005;stroke-dasharray:none;stroke-opacity:1"
         d="m 1908.27,416.543 c 6.63,0 12.02,-5.383 12.02,-12.02 0,-6.636 -5.39,-12.019 -12.02,-12.019 -6.64,0 -12.02,5.383 -12.02,12.019 0,6.637 5.38,12.02 12.02,12.02 z" /><path
         id="path168"
         style="fill:#231f20;fill-opacity:1;fill-rule:nonzero;stroke:none"
         d="m 2280.1,369.062 v -1.816 c -4.28,-0.418 -7.8,-1.266 -10.51,-2.566 -2.72,-1.282 -5.41,-3.235 -8.05,-5.883 -2.65,-2.633 -4.86,-5.567 -6.6,-8.801 -1.74,-3.25 -3.21,-7.098 -4.37,-11.551 4.68,3.219 9.38,4.836 14.12,4.836 4.51,0 8.45,-1.836 11.76,-5.465 3.32,-3.652 4.99,-8.336 4.99,-14.07 0,-5.531 -1.69,-10.582 -5.04,-15.133 -4.03,-5.535 -9.38,-8.301 -16.01,-8.301 -4.53,0 -8.37,1.504 -11.54,4.485 -6.18,5.832 -9.26,13.383 -9.26,22.664 0,5.922 1.18,11.551 3.56,16.887 2.37,5.351 5.77,10.082 10.19,14.214 4.39,4.133 8.63,6.918 12.66,8.352 4.04,1.434 7.8,2.148 11.29,2.148 z m -30.36,-34.183 c -0.59,-4.399 -0.89,-7.949 -0.89,-10.649 0,-3.117 0.59,-6.515 1.74,-10.183 1.16,-3.649 2.88,-6.567 5.16,-8.715 1.65,-1.52 3.67,-2.285 6.05,-2.285 2.84,0 5.37,1.332 7.59,4 2.23,2.668 3.35,6.484 3.35,11.433 0,5.567 -1.1,10.383 -3.32,14.45 -2.22,4.07 -5.35,6.101 -9.43,6.101 -1.24,0 -2.55,-0.265 -3.97,-0.781 -1.41,-0.52 -3.52,-1.652 -6.28,-3.371" /><path
         id="path170"
         style="fill:#231f20;fill-opacity:1;fill-rule:nonzero;stroke:none"
         d="m 2575.79,363.359 c 1.6,-1.683 2.8,-3.382 3.62,-5.066 0.58,-1.184 1.55,-4.25 2.88,-9.234 l 4.3,6.453 c 1.14,1.547 2.52,3.05 4.15,4.465 1.62,1.418 3.05,2.382 4.28,2.898 0.79,0.336 1.66,0.484 2.6,0.484 1.4,0 2.5,-0.363 3.34,-1.117 0.83,-0.75 1.25,-1.664 1.25,-2.73 0,-1.235 -0.25,-2.086 -0.74,-2.535 -0.91,-0.817 -1.95,-1.235 -3.11,-1.235 -0.68,0 -1.42,0.153 -2.2,0.453 -1.54,0.516 -2.57,0.782 -3.09,0.782 -0.78,0 -1.69,-0.469 -2.78,-1.368 -2.01,-1.699 -4.41,-4.964 -7.22,-9.816 l 4,-16.801 c 0.62,-2.562 1.14,-4.113 1.57,-4.617 0.42,-0.496 0.84,-0.746 1.27,-0.746 0.68,0 1.48,0.363 2.38,1.117 1.8,1.496 3.32,3.449 4.6,5.863 l 1.7,-0.882 c -2.05,-3.848 -4.65,-7.032 -7.81,-9.567 -1.79,-1.433 -3.31,-2.152 -4.54,-2.152 -1.81,0 -3.26,1.019 -4.35,3.07 -0.68,1.266 -2.1,6.75 -4.25,16.418 -5.07,-8.836 -9.13,-14.504 -12.2,-17.051 -1.98,-1.617 -3.9,-2.437 -5.76,-2.437 -1.3,0 -2.49,0.469 -3.57,1.418 -0.77,0.719 -1.17,1.668 -1.17,2.883 0,1.07 0.37,1.968 1.09,2.683 0.7,0.719 1.58,1.067 2.63,1.067 1.03,0 2.15,-0.516 3.32,-1.563 0.84,-0.754 1.5,-1.117 1.95,-1.117 0.4,0 0.89,0.266 1.51,0.781 1.54,1.235 3.62,3.902 6.25,8 2.63,4.102 4.37,7.067 5.19,8.899 -2.04,7.902 -3.12,12.086 -3.29,12.535 -0.75,2.117 -1.71,3.617 -2.93,4.5 -1.2,0.883 -2.97,1.316 -5.32,1.316 -0.75,0 -1.61,-0.031 -2.58,-0.101 v 1.765 l 13.03,2.285" /><path
         id="path172"
         style="fill:none;stroke:#231f20;stroke-width:7.5005002;stroke-linecap:butt;stroke-linejoin:miter;stroke-miterlimit:2.61310005;stroke-dasharray:none;stroke-opacity:1"
         d="m 2020.98,554.355 h 120.88" /><path
         id="path174"
         style="fill:none;stroke:#231f20;stroke-width:7.5005002;stroke-linecap:butt;stroke-linejoin:miter;stroke-miterlimit:2.61310005;stroke-dasharray:none;stroke-opacity:1"
         d="m 2131.79,553.832 c 95.02,1.504 141.41,-46.187 139.15,-143.074" /><path
         id="path176"
         style="fill:#ffffff;fill-opacity:1;fill-rule:evenodd;stroke:none"
         d="m 2268.27,416.543 c 6.63,0 12.02,-5.383 12.02,-12.02 0,-6.636 -5.39,-12.019 -12.02,-12.019 -6.64,0 -12.02,5.383 -12.02,12.019 0,6.637 5.38,12.02 12.02,12.02" /><path
         id="path178"
         style="fill:none;stroke:#231f20;stroke-width:7.5005002;stroke-linecap:butt;stroke-linejoin:miter;stroke-miterlimit:2.61310005;stroke-dasharray:none;stroke-opacity:1"
         d="m 2268.27,416.543 c 6.63,0 12.02,-5.383 12.02,-12.02 0,-6.636 -5.39,-12.019 -12.02,-12.019 -6.64,0 -12.02,5.383 -12.02,12.019 0,6.637 5.38,12.02 12.02,12.02 z" /><g
         id="g180"><g
           clip-path="url(#clipPath186)"
           id="g182"><path
             id="path188"
             style="fill:none;stroke:#231f20;stroke-width:3.5999999;stroke-linecap:butt;stroke-linejoin:miter;stroke-miterlimit:2.61310005;stroke-dasharray:none;stroke-opacity:1"
             d="m 1861.95,413.316 251.93,251.93" /><path
             id="path190"
             style="fill:none;stroke:#231f20;stroke-width:3.5999999;stroke-linecap:butt;stroke-linejoin:miter;stroke-miterlimit:2.61310005;stroke-dasharray:none;stroke-opacity:1"
             d="m 1882.32,392.949 251.93,251.934" /><path
             id="path192"
             style="fill:none;stroke:#231f20;stroke-width:3.5999999;stroke-linecap:butt;stroke-linejoin:miter;stroke-miterlimit:2.61310005;stroke-dasharray:none;stroke-opacity:1"
             d="M 1902.68,372.586 2154.61,624.52" /><path
             id="path194"
             style="fill:none;stroke:#231f20;stroke-width:3.5999999;stroke-linecap:butt;stroke-linejoin:miter;stroke-miterlimit:2.61310005;stroke-dasharray:none;stroke-opacity:1"
             d="m 1923.05,352.223 251.93,251.929" /><path
             id="path196"
             style="fill:none;stroke:#231f20;stroke-width:3.5999999;stroke-linecap:butt;stroke-linejoin:miter;stroke-miterlimit:2.61310005;stroke-dasharray:none;stroke-opacity:1"
             d="m 1943.41,331.855 251.93,251.934" /><path
             id="path198"
             style="fill:none;stroke:#231f20;stroke-width:3.5999999;stroke-linecap:butt;stroke-linejoin:miter;stroke-miterlimit:2.61310005;stroke-dasharray:none;stroke-opacity:1"
             d="m 1963.78,311.492 251.93,251.93" /><path
             id="path200"
             style="fill:none;stroke:#231f20;stroke-width:3.5999999;stroke-linecap:butt;stroke-linejoin:miter;stroke-miterlimit:2.61310005;stroke-dasharray:none;stroke-opacity:1"
             d="m 1984.14,291.125 251.93,251.934" /><path
             id="path202"
             style="fill:none;stroke:#231f20;stroke-width:3.5999999;stroke-linecap:butt;stroke-linejoin:miter;stroke-miterlimit:2.61310005;stroke-dasharray:none;stroke-opacity:1"
             d="m 2004.5,270.762 251.94,251.933" /><path
             id="path204"
             style="fill:none;stroke:#231f20;stroke-width:3.5999999;stroke-linecap:butt;stroke-linejoin:miter;stroke-miterlimit:2.61310005;stroke-dasharray:none;stroke-opacity:1"
             d="m 2024.87,250.398 251.93,251.93" /><path
             id="path206"
             style="fill:none;stroke:#231f20;stroke-width:3.5999999;stroke-linecap:butt;stroke-linejoin:miter;stroke-miterlimit:2.61310005;stroke-dasharray:none;stroke-opacity:1"
             d="m 2045.23,230.031 251.94,251.934" /><path
             id="path208"
             style="fill:none;stroke:#231f20;stroke-width:3.5999999;stroke-linecap:butt;stroke-linejoin:miter;stroke-miterlimit:2.61310005;stroke-dasharray:none;stroke-opacity:1"
             d="m 2065.6,209.668 251.93,251.934" /><path
             id="path210"
             style="fill:none;stroke:#231f20;stroke-width:3.5999999;stroke-linecap:butt;stroke-linejoin:miter;stroke-miterlimit:2.61310005;stroke-dasharray:none;stroke-opacity:1"
             d="m 2085.96,189.305 251.93,251.929" /><path
             id="path212"
             style="fill:none;stroke:#231f20;stroke-width:3.5999999;stroke-linecap:butt;stroke-linejoin:miter;stroke-miterlimit:2.61310005;stroke-dasharray:none;stroke-opacity:1"
             d="m 2106.33,168.938 251.93,251.933" /></g></g><path
         id="path214"
         style="fill:none;stroke:#231f20;stroke-width:7.5005002;stroke-linecap:butt;stroke-linejoin:miter;stroke-miterlimit:2.61310005;stroke-dasharray:none;stroke-opacity:1"
         d="M 1584.95,114.141 H 2565.2" /><path
         id="path216"
         style="fill:#231f20;fill-opacity:1;fill-rule:evenodd;stroke:none"
         d="m 2561.04,140.488 47.9,-26.347 -47.9,-26.348 v 52.695" /><path
         id="path218"
         style="fill:#ffffff;fill-opacity:1;fill-rule:evenodd;stroke:none"
         d="m 1908.27,128.543 c 6.63,0 12.02,-5.383 12.02,-12.02 0,-6.636 -5.39,-12.019 -12.02,-12.019 -6.64,0 -12.02,5.383 -12.02,12.019 0,6.637 5.38,12.02 12.02,12.02" /><path
         id="path220"
         style="fill:none;stroke:#231f20;stroke-width:7.5005002;stroke-linecap:butt;stroke-linejoin:miter;stroke-miterlimit:2.61310005;stroke-dasharray:none;stroke-opacity:1"
         d="m 1908.27,128.543 c 6.63,0 12.02,-5.383 12.02,-12.02 0,-6.636 -5.39,-12.019 -12.02,-12.019 -6.64,0 -12.02,5.383 -12.02,12.019 0,6.637 5.38,12.02 12.02,12.02 z" /><path
         id="path222"
         style="fill:#231f20;fill-opacity:1;fill-rule:nonzero;stroke:none"
         d="m 2280.1,81.0625 v -1.8164 c -4.28,-0.418 -7.8,-1.2656 -10.51,-2.5664 -2.72,-1.2852 -5.41,-3.2344 -8.05,-5.8828 -2.65,-2.6328 -4.86,-5.5664 -6.6,-8.8008 -1.74,-3.25 -3.21,-7.0977 -4.37,-11.5508 4.68,3.2188 9.38,4.832 14.12,4.832 4.51,0 8.45,-1.832 11.76,-5.4648 3.32,-3.6484 4.99,-8.332 4.99,-14.0664 0,-5.5352 -1.69,-10.582 -5.04,-15.1328 -4.03,-5.5352 -9.38,-8.3008 -16.01,-8.3008 -4.53,0 -8.37,1.5039 -11.54,4.4844 -6.18,5.832 -9.26,13.3828 -9.26,22.664 0,5.918 1.18,11.5508 3.56,16.8868 2.37,5.3476 5.77,10.082 10.19,14.2148 4.39,4.1328 8.63,6.918 12.66,8.3516 4.04,1.4297 7.8,2.1484 11.29,2.1484 z m -30.36,-34.1836 c -0.59,-4.3984 -0.89,-7.9492 -0.89,-10.6484 0,-3.1172 0.59,-6.5157 1.74,-10.1836 1.16,-3.6485 2.88,-6.5664 5.16,-8.7188 1.65,-1.5156 3.67,-2.2812 6.05,-2.2812 2.84,0 5.37,1.332 7.59,4 2.23,2.6679 3.35,6.4843 3.35,11.4336 0,5.5664 -1.1,10.3828 -3.32,14.4492 -2.22,4.0664 -5.35,6.1015 -9.43,6.1015 -1.24,0 -2.55,-0.2656 -3.97,-0.7851 -1.41,-0.5156 -3.52,-1.6523 -6.28,-3.3672" /><path
         id="path224"
         style="fill:#231f20;fill-opacity:1;fill-rule:nonzero;stroke:none"
         d="m 2575.79,75.3594 c 1.6,-1.6836 2.8,-3.3828 3.62,-5.0664 0.58,-1.1836 1.55,-4.25 2.88,-9.2344 l 4.3,6.4531 c 1.14,1.5469 2.52,3.0508 4.15,4.4649 1.62,1.4179 3.05,2.3828 4.28,2.8984 0.79,0.3359 1.66,0.4844 2.6,0.4844 1.4,0 2.5,-0.3633 3.34,-1.1172 0.83,-0.75 1.25,-1.6641 1.25,-2.7305 0,-1.2344 -0.25,-2.0859 -0.74,-2.5351 -0.91,-0.8164 -1.95,-1.2344 -3.11,-1.2344 -0.68,0 -1.42,0.1523 -2.2,0.4531 -1.54,0.5156 -2.57,0.7813 -3.09,0.7813 -0.78,0 -1.69,-0.4688 -2.78,-1.3672 -2.01,-1.6992 -4.41,-4.9649 -7.22,-9.8164 l 4,-16.8008 c 0.62,-2.5625 1.14,-4.1133 1.57,-4.6172 0.42,-0.4961 0.84,-0.7461 1.27,-0.7461 0.68,0 1.48,0.3633 2.38,1.1172 1.8,1.4961 3.32,3.4492 4.6,5.8633 l 1.7,-0.8828 c -2.05,-3.8477 -4.65,-7.0313 -7.81,-9.5664 -1.79,-1.4336 -3.31,-2.1524 -4.54,-2.1524 -1.81,0 -3.26,1.0195 -4.35,3.0703 -0.68,1.2657 -2.1,6.75 -4.25,16.418 -5.07,-8.8359 -9.13,-14.5039 -12.2,-17.0508 -1.98,-1.6172 -3.9,-2.4375 -5.76,-2.4375 -1.3,0 -2.49,0.4688 -3.57,1.418 -0.77,0.7187 -1.17,1.668 -1.17,2.8828 0,1.0703 0.37,1.9687 1.09,2.6836 0.7,0.7187 1.58,1.0664 2.63,1.0664 1.03,0 2.15,-0.5156 3.32,-1.5625 0.84,-0.7539 1.5,-1.1172 1.95,-1.1172 0.4,0 0.89,0.2656 1.51,0.7813 1.54,1.2343 3.62,3.9023 6.25,8 2.63,4.1015 4.37,7.0664 5.19,8.8984 -2.04,7.9023 -3.12,12.0859 -3.29,12.5352 -0.75,2.1171 -1.71,3.6171 -2.93,4.5 -1.2,0.8828 -2.97,1.3164 -5.32,1.3164 -0.75,0 -1.61,-0.0313 -2.58,-0.1016 v 1.7656 l 13.03,2.2852" /><path
         id="path226"
         style="fill:none;stroke:#231f20;stroke-width:7.5005002;stroke-linecap:butt;stroke-linejoin:miter;stroke-miterlimit:2.61310005;stroke-dasharray:none;stroke-opacity:1"
         d="m 1591.18,266.355 h 550.68" /><path
         id="path228"
         style="fill:none;stroke:#231f20;stroke-width:7.5005002;stroke-linecap:butt;stroke-linejoin:miter;stroke-miterlimit:2.61310005;stroke-dasharray:none;stroke-opacity:1"
         d="m 2131.79,265.832 c 95.02,1.504 141.41,-46.187 139.15,-143.074" /><path
         id="path230"
         style="fill:#231f20;fill-opacity:1;fill-rule:evenodd;stroke:none"
         d="m 2268.27,128.543 c 6.63,0 12.02,-5.383 12.02,-12.02 0,-6.636 -5.39,-12.019 -12.02,-12.019 -6.64,0 -12.02,5.383 -12.02,12.019 0,6.637 5.38,12.02 12.02,12.02" /><path
         id="path232"
         style="fill:none;stroke:#231f20;stroke-width:7.5005002;stroke-linecap:butt;stroke-linejoin:miter;stroke-miterlimit:2.61310005;stroke-dasharray:none;stroke-opacity:1"
         d="m 2268.27,128.543 c 6.63,0 12.02,-5.383 12.02,-12.02 0,-6.636 -5.39,-12.019 -12.02,-12.019 -6.64,0 -12.02,5.383 -12.02,12.019 0,6.637 5.38,12.02 12.02,12.02 z" /><g
         id="g234"><g
           clip-path="url(#clipPath240)"
           id="g236"><path
             id="path242"
             style="fill:none;stroke:#231f20;stroke-width:3.5999999;stroke-linecap:butt;stroke-linejoin:miter;stroke-miterlimit:2.61310005;stroke-dasharray:none;stroke-opacity:1"
             d="m 1470.78,125.316 480.38,480.387" /><path
             id="path244"
             style="fill:none;stroke:#231f20;stroke-width:3.5999999;stroke-linecap:butt;stroke-linejoin:miter;stroke-miterlimit:2.61310005;stroke-dasharray:none;stroke-opacity:1"
             d="m 1491.14,104.949 480.39,480.387" /><path
             id="path246"
             style="fill:none;stroke:#231f20;stroke-width:3.5999999;stroke-linecap:butt;stroke-linejoin:miter;stroke-miterlimit:2.61310005;stroke-dasharray:none;stroke-opacity:1"
             d="M 1511.51,84.5859 1991.89,564.973" /><path
             id="path248"
             style="fill:none;stroke:#231f20;stroke-width:3.5999999;stroke-linecap:butt;stroke-linejoin:miter;stroke-miterlimit:2.61310005;stroke-dasharray:none;stroke-opacity:1"
             d="M 1531.87,64.2227 2012.26,544.609" /><path
             id="path250"
             style="fill:none;stroke:#231f20;stroke-width:3.5999999;stroke-linecap:butt;stroke-linejoin:miter;stroke-miterlimit:2.61310005;stroke-dasharray:none;stroke-opacity:1"
             d="M 1552.23,43.8555 2032.62,524.242" /><path
             id="path252"
             style="fill:none;stroke:#231f20;stroke-width:3.5999999;stroke-linecap:butt;stroke-linejoin:miter;stroke-miterlimit:2.61310005;stroke-dasharray:none;stroke-opacity:1"
             d="M 1572.6,23.4922 2052.99,503.879" /><path
             id="path254"
             style="fill:none;stroke:#231f20;stroke-width:3.5999999;stroke-linecap:butt;stroke-linejoin:miter;stroke-miterlimit:2.61310005;stroke-dasharray:none;stroke-opacity:1"
             d="m 1592.96,3.125 480.39,480.391" /><path
             id="path256"
             style="fill:none;stroke:#231f20;stroke-width:3.5999999;stroke-linecap:butt;stroke-linejoin:miter;stroke-miterlimit:2.61310005;stroke-dasharray:none;stroke-opacity:1"
             d="M 1613.33,-17.2383 2093.72,463.148" /><path
             id="path258"
             style="fill:none;stroke:#231f20;stroke-width:3.5999999;stroke-linecap:butt;stroke-linejoin:miter;stroke-miterlimit:2.61310005;stroke-dasharray:none;stroke-opacity:1"
             d="M 1633.7,-37.6016 2114.08,442.785" /><path
             id="path260"
             style="fill:none;stroke:#231f20;stroke-width:3.5999999;stroke-linecap:butt;stroke-linejoin:miter;stroke-miterlimit:2.61310005;stroke-dasharray:none;stroke-opacity:1"
             d="M 1654.06,-57.9688 2134.45,422.422" /><path
             id="path262"
             style="fill:none;stroke:#231f20;stroke-width:3.5999999;stroke-linecap:butt;stroke-linejoin:miter;stroke-miterlimit:2.61310005;stroke-dasharray:none;stroke-opacity:1"
             d="m 1674.43,-78.332 480.38,480.387" /><path
             id="path264"
             style="fill:none;stroke:#231f20;stroke-width:3.5999999;stroke-linecap:butt;stroke-linejoin:miter;stroke-miterlimit:2.61310005;stroke-dasharray:none;stroke-opacity:1"
             d="M 1694.79,-98.6953 2175.18,381.691" /><path
             id="path266"
             style="fill:none;stroke:#231f20;stroke-width:3.5999999;stroke-linecap:butt;stroke-linejoin:miter;stroke-miterlimit:2.61310005;stroke-dasharray:none;stroke-opacity:1"
             d="m 1715.15,-119.062 480.39,480.39" /><path
             id="path268"
             style="fill:none;stroke:#231f20;stroke-width:3.5999999;stroke-linecap:butt;stroke-linejoin:miter;stroke-miterlimit:2.61310005;stroke-dasharray:none;stroke-opacity:1"
             d="m 1735.52,-139.426 480.39,480.387" /><path
             id="path270"
             style="fill:none;stroke:#231f20;stroke-width:3.5999999;stroke-linecap:butt;stroke-linejoin:miter;stroke-miterlimit:2.61310005;stroke-dasharray:none;stroke-opacity:1"
             d="m 1755.88,-159.789 480.39,480.387" /><path
             id="path272"
             style="fill:none;stroke:#231f20;stroke-width:3.5999999;stroke-linecap:butt;stroke-linejoin:miter;stroke-miterlimit:2.61310005;stroke-dasharray:none;stroke-opacity:1"
             d="M 1776.25,-180.156 2256.63,300.23" /><path
             id="path274"
             style="fill:none;stroke:#231f20;stroke-width:3.5999999;stroke-linecap:butt;stroke-linejoin:miter;stroke-miterlimit:2.61310005;stroke-dasharray:none;stroke-opacity:1"
             d="M 1796.61,-200.52 2277,279.867" /><path
             id="path276"
             style="fill:none;stroke:#231f20;stroke-width:3.5999999;stroke-linecap:butt;stroke-linejoin:miter;stroke-miterlimit:2.61310005;stroke-dasharray:none;stroke-opacity:1"
             d="m 1816.98,-220.883 480.38,480.387" /><path
             id="path278"
             style="fill:none;stroke:#231f20;stroke-width:3.5999999;stroke-linecap:butt;stroke-linejoin:miter;stroke-miterlimit:2.61310005;stroke-dasharray:none;stroke-opacity:1"
             d="m 1837.34,-241.25 480.39,480.387" /><path
             id="path280"
             style="fill:none;stroke:#231f20;stroke-width:3.5999999;stroke-linecap:butt;stroke-linejoin:miter;stroke-miterlimit:2.61310005;stroke-dasharray:none;stroke-opacity:1"
             d="m 1857.71,-261.613 480.38,480.386" /><path
             id="path282"
             style="fill:none;stroke:#231f20;stroke-width:3.5999999;stroke-linecap:butt;stroke-linejoin:miter;stroke-miterlimit:2.61310005;stroke-dasharray:none;stroke-opacity:1"
             d="M 1878.07,-281.977 2358.46,198.41" /><path
             id="path284"
             style="fill:none;stroke:#231f20;stroke-width:3.5999999;stroke-linecap:butt;stroke-linejoin:miter;stroke-miterlimit:2.61310005;stroke-dasharray:none;stroke-opacity:1"
             d="m 1898.43,-302.344 480.39,480.387" /><path
             id="path286"
             style="fill:none;stroke:#231f20;stroke-width:3.5999999;stroke-linecap:butt;stroke-linejoin:miter;stroke-miterlimit:2.61310005;stroke-dasharray:none;stroke-opacity:1"
             d="M 1918.8,-322.707 2399.19,157.68" /><path
             id="path288"
             style="fill:none;stroke:#231f20;stroke-width:3.5999999;stroke-linecap:butt;stroke-linejoin:miter;stroke-miterlimit:2.61310005;stroke-dasharray:none;stroke-opacity:1"
             d="m 1939.16,-343.074 480.39,480.39" /></g></g><path
         id="path290"
         style="fill:#231f20;fill-opacity:1;fill-rule:nonzero;stroke:none"
         d="m 1927.74,364.688 -3.82,-8.301 H 1904 l -4.35,-8.903 c 8.64,-1.265 15.47,-4.464 20.5,-9.613 4.34,-4.418 6.5,-9.637 6.5,-15.617 0,-3.484 -0.7,-6.719 -2.11,-9.668 -1.42,-2.969 -3.2,-5.481 -5.35,-7.566 -2.15,-2.082 -4.55,-3.766 -7.19,-5.032 -3.73,-1.8 -7.58,-2.687 -11.52,-2.687 -3.98,0 -6.86,0.672 -8.66,2.019 -1.82,1.348 -2.72,2.848 -2.72,4.469 0,0.914 0.39,1.715 1.12,2.414 0.75,0.699 1.7,1.051 2.83,1.051 0.85,0 1.6,-0.117 2.24,-0.387 0.63,-0.265 1.71,-0.929 3.25,-1.996 2.43,-1.703 4.9,-2.551 7.41,-2.551 3.8,0 7.15,1.45 10.03,4.332 2.89,2.883 4.32,6.383 4.32,10.516 0,4 -1.28,7.734 -3.85,11.203 -2.58,3.465 -6.11,6.149 -10.65,8.031 -3.55,1.469 -8.38,2.317 -14.5,2.551 l 12.7,25.735 h 23.74" /><path
         id="path292"
         style="fill:#231f20;fill-opacity:1;fill-rule:nonzero;stroke:none"
         d="m 1921.71,72.4023 -3.82,-8.2968 h -19.91 l -4.36,-8.9024 c 8.64,-1.2656 15.47,-4.4687 20.5,-9.6133 4.34,-4.4218 6.5,-9.6367 6.5,-15.621 0,-3.4844 -0.69,-6.7149 -2.11,-9.6641 -1.42,-2.9688 -3.2,-5.4844 -5.35,-7.5664 -2.15,-2.0821 -4.55,-3.76564 -7.18,-5.03518 -3.74,-1.80078 -7.59,-2.68359 -11.52,-2.68359 -3.98,0 -6.87,0.66797 -8.67,2.01953 -1.81,1.34766 -2.72,2.84766 -2.72,4.46484 0,0.918 0.39,1.7149 1.12,2.418 0.76,0.6992 1.7,1.0508 2.84,1.0508 0.85,0 1.59,-0.1211 2.23,-0.3868 0.63,-0.2656 1.72,-0.9336 3.25,-2 2.44,-1.6992 4.9,-2.5507 7.42,-2.5507 3.8,0 7.15,1.4531 10.03,4.3359 2.88,2.8828 4.32,6.3828 4.32,10.5156 0,4 -1.29,7.7344 -3.85,11.1992 -2.59,3.4688 -6.12,6.1524 -10.65,8.0352 -3.55,1.4687 -8.39,2.3164 -14.5,2.5508 l 12.7,25.7304 h 23.73" /><path
         id="path294"
         style="fill:none;stroke:#231f20;stroke-width:7.5005002;stroke-linecap:butt;stroke-linejoin:miter;stroke-miterlimit:2.61310005;stroke-dasharray:none;stroke-opacity:1"
         d="m 2049.75,553.832 c -95.02,1.504 -141.41,-46.187 -139.15,-143.074" /></g></g></svg>