<?xml version="1.0" encoding="UTF-8" standalone="no"?>
<svg
   xmlns:dc="http://purl.org/dc/elements/1.1/"
   xmlns:cc="http://creativecommons.org/ns#"
   xmlns:rdf="http://www.w3.org/1999/02/22-rdf-syntax-ns#"
   xmlns:svg="http://www.w3.org/2000/svg"
   xmlns="http://www.w3.org/2000/svg"
   viewBox="0 0 385.33334 106.66667"
   height="106.66667"
   width="385.33334"
   xml:space="preserve"
   id="svg2"
   version="1.1"><metadata
     id="metadata8"><rdf:RDF><cc:Work
         rdf:about=""><dc:format>image/svg+xml</dc:format><dc:type
           rdf:resource="http://purl.org/dc/dcmitype/StillImage" /></cc:Work></rdf:RDF></metadata><defs
     id="defs6" /><g
     transform="matrix(1.3333333,0,0,-1.3333333,0,106.66667)"
     id="g10"><g
       transform="scale(0.1)"
       id="g12"><path
         id="path14"
         style="fill:#231f20;fill-opacity:1;fill-rule:nonzero;stroke:none"
         d="m 20.4375,787.316 16.1172,7.864 h 1.6133 v -55.914 c 0,-3.704 0.1523,-6.02 0.4531,-6.934 0.3164,-0.902 0.9648,-1.602 1.9336,-2.102 0.9844,-0.484 2.9687,-0.765 5.9648,-0.832 v -1.8 h -24.914 v 1.8 c 3.1328,0.067 5.1484,0.336 6.0664,0.817 0.8984,0.469 1.5312,1.101 1.8984,1.898 0.3516,0.801 0.5352,3.184 0.5352,7.153 v 35.75 c 0,4.816 -0.168,7.898 -0.4844,9.265 -0.2344,1.051 -0.6484,1.817 -1.25,2.301 -0.6016,0.484 -1.3164,0.734 -2.168,0.734 -1.1992,0 -2.8828,-0.504 -5.0312,-1.519 l -0.7344,1.519" /><path
         id="path16"
         style="fill:#231f20;fill-opacity:1;fill-rule:nonzero;stroke:none"
         d="m 60.9727,794.98 v 2.051 c 4.9492,-2.433 9.0625,-5.316 12.3476,-8.652 4.6485,-4.75 8.25,-10.313 10.7852,-16.715 2.5468,-6.398 3.8164,-13.066 3.8164,-20 0,-10.082 -2.4844,-19.285 -7.4531,-27.598 -4.9649,-8.316 -11.4649,-14.265 -19.4961,-17.851 v 1.801 c 4,2.25 7.2968,5.281 9.8789,9.117 2.5859,3.816 4.5195,8.683 5.7695,14.597 1.25,5.903 1.8828,12.067 1.8828,18.469 0,6.934 -0.5508,13.266 -1.6172,19 -0.8164,4.5 -1.832,8.082 -3.0508,10.801 -1.2304,2.695 -2.8515,5.297 -4.8671,7.797 -2.0118,2.515 -4.6797,4.902 -7.9961,7.183" /><path
         id="path18"
         style="fill:#231f20;fill-opacity:1;fill-rule:nonzero;stroke:none"
         d="m 2862.82,594.793 c 1.6,-1.684 2.8,-3.387 3.62,-5.066 0.58,-1.184 1.55,-4.254 2.88,-9.235 l 4.3,6.449 c 1.13,1.547 2.52,3.051 4.15,4.465 1.62,1.418 3.05,2.383 4.28,2.903 0.79,0.332 1.65,0.484 2.6,0.484 1.4,0 2.5,-0.367 3.34,-1.117 0.83,-0.754 1.25,-1.668 1.25,-2.735 0,-1.23 -0.25,-2.082 -0.74,-2.535 -0.91,-0.816 -1.95,-1.23 -3.11,-1.23 -0.69,0 -1.42,0.148 -2.2,0.449 -1.54,0.516 -2.57,0.781 -3.09,0.781 -0.78,0 -1.7,-0.465 -2.78,-1.363 -2.02,-1.703 -4.42,-4.969 -7.22,-9.816 l 4,-16.801 c 0.62,-2.567 1.13,-4.117 1.57,-4.617 0.42,-0.5 0.83,-0.75 1.27,-0.75 0.68,0 1.48,0.367 2.38,1.117 1.8,1.5 3.32,3.449 4.6,5.863 l 1.7,-0.879 c -2.05,-3.851 -4.65,-7.035 -7.82,-9.566 -1.78,-1.438 -3.3,-2.153 -4.53,-2.153 -1.82,0 -3.27,1.016 -4.35,3.067 -0.68,1.265 -2.1,6.75 -4.25,16.418 -5.07,-8.832 -9.13,-14.5 -12.2,-17.051 -1.98,-1.613 -3.9,-2.434 -5.77,-2.434 -1.29,0 -2.48,0.469 -3.56,1.418 -0.77,0.715 -1.17,1.664 -1.17,2.883 0,1.067 0.37,1.965 1.08,2.684 0.7,0.715 1.59,1.066 2.64,1.066 1.03,0 2.15,-0.515 3.31,-1.566 0.85,-0.75 1.5,-1.117 1.96,-1.117 0.4,0 0.9,0.265 1.51,0.781 1.53,1.234 3.62,3.902 6.25,8 2.63,4.101 4.37,7.066 5.18,8.902 -2.03,7.899 -3.11,12.082 -3.28,12.535 -0.75,2.114 -1.72,3.614 -2.93,4.496 -1.2,0.887 -2.97,1.321 -5.32,1.321 -0.75,0 -1.62,-0.035 -2.58,-0.102 v 1.766 l 13.03,2.285" /><path
         id="path20"
         style="fill:none;stroke:#231f20;stroke-width:10.00059986;stroke-linecap:butt;stroke-linejoin:miter;stroke-miterlimit:2.61310005;stroke-dasharray:none;stroke-opacity:1"
         d="m 1616.88,622.77 h 1156.1" /><path
         id="path22"
         style="fill:#231f20;fill-opacity:1;fill-rule:evenodd;stroke:none"
         d="m 2768.83,649.117 47.9,-26.347 -47.9,-26.348 v 52.695" /><path
         id="path24"
         style="fill:none;stroke:#231f20;stroke-width:10.00059986;stroke-linecap:butt;stroke-linejoin:miter;stroke-miterlimit:2.61310005;stroke-dasharray:none;stroke-opacity:1"
         d="M 1937.83,633.906 V 610.617" /><path
         id="path26"
         style="fill:none;stroke:#231f20;stroke-width:10.00059986;stroke-linecap:butt;stroke-linejoin:miter;stroke-miterlimit:2.61310005;stroke-dasharray:none;stroke-opacity:1"
         d="M 2369.83,633.906 V 610.617" /><path
         id="path28"
         style="fill:none;stroke:#231f20;stroke-width:10.00059986;stroke-linecap:butt;stroke-linejoin:miter;stroke-miterlimit:2.61310005;stroke-dasharray:none;stroke-opacity:1"
         d="m 1936.18,621.363 c 0.3,66.891 -16.4,100.926 -77.77,100.325 h -205.43" /><path
         id="path30"
         style="fill:none;stroke:#231f20;stroke-width:10.00059986;stroke-linecap:butt;stroke-linejoin:miter;stroke-miterlimit:2.61310005;stroke-dasharray:none;stroke-opacity:1"
         d="m 2369.44,621.363 c -0.3,66.891 16.51,100.926 78.29,100.325 h 306.2" /><path
         id="path32"
         style="fill:none;stroke:#231f20;stroke-width:10.00059986;stroke-linecap:butt;stroke-linejoin:miter;stroke-miterlimit:2.61310005;stroke-dasharray:none;stroke-opacity:1"
         d="m 1660.16,619.559 22.05,31.976" /><path
         id="path34"
         style="fill:none;stroke:#231f20;stroke-width:10.00059986;stroke-linecap:butt;stroke-linejoin:miter;stroke-miterlimit:2.61310005;stroke-dasharray:none;stroke-opacity:1"
         d="m 1732.16,619.559 22.05,31.976" /><path
         id="path36"
         style="fill:none;stroke:#231f20;stroke-width:10.00059986;stroke-linecap:butt;stroke-linejoin:miter;stroke-miterlimit:2.61310005;stroke-dasharray:none;stroke-opacity:1"
         d="m 1804.16,619.559 22.05,31.976" /><path
         id="path38"
         style="fill:none;stroke:#231f20;stroke-width:10.00059986;stroke-linecap:butt;stroke-linejoin:miter;stroke-miterlimit:2.61310005;stroke-dasharray:none;stroke-opacity:1"
         d="m 1876.16,619.559 22.05,31.976" /><path
         id="path40"
         style="fill:#231f20;fill-opacity:1;fill-rule:nonzero;stroke:none"
         d="m 1566.57,740.348 -4.63,-12.75 h -39.07 v 1.8 c 11.49,10.481 19.58,19.047 24.27,25.684 4.68,6.652 7.03,12.715 7.03,18.215 0,4.203 -1.28,7.652 -3.87,10.351 -2.56,2.7 -5.63,4.051 -9.21,4.051 -3.27,0 -6.18,-0.953 -8.77,-2.851 -2.58,-1.903 -4.5,-4.7 -5.73,-8.368 h -1.82 c 0.82,6.02 2.9,10.633 6.28,13.868 3.37,3.218 7.57,4.832 12.62,4.832 5.37,0 9.85,-1.731 13.45,-5.184 3.6,-3.449 5.4,-7.516 5.4,-12.195 0,-3.352 -0.78,-6.719 -2.35,-10.071 -2.4,-5.265 -6.31,-10.847 -11.72,-16.75 -8.09,-8.847 -13.16,-14.179 -15.18,-16.015 h 17.28 c 3.52,0 5.99,0.133 7.4,0.398 1.42,0.25 2.71,0.785 3.84,1.582 1.13,0.805 2.13,1.938 2.98,3.403 h 1.8" /><path
         id="path42"
         style="fill:#231f20;fill-opacity:1;fill-rule:nonzero;stroke:none"
         d="m 1572.97,794.98 v 2.051 c 4.95,-2.433 9.07,-5.316 12.35,-8.652 4.65,-4.75 8.25,-10.313 10.79,-16.715 2.54,-6.398 3.81,-13.066 3.81,-20 0,-10.082 -2.48,-19.285 -7.45,-27.598 -4.97,-8.316 -11.47,-14.265 -19.5,-17.851 v 1.801 c 4,2.25 7.3,5.281 9.88,9.117 2.59,3.816 4.52,8.683 5.77,14.597 1.25,5.903 1.88,12.067 1.88,18.469 0,6.934 -0.55,13.266 -1.61,19 -0.82,4.5 -1.84,8.082 -3.05,10.801 -1.23,2.695 -2.86,5.297 -4.87,7.797 -2.01,2.515 -4.68,4.902 -8,7.183" /><path
         id="path44"
         style="fill:#231f20;fill-opacity:1;fill-rule:evenodd;stroke:none"
         d="m 2369.96,635.031 c 6.89,0 12.47,-5.582 12.47,-12.469 0,-6.882 -5.58,-12.468 -12.47,-12.468 -6.88,0 -12.46,5.586 -12.46,12.468 0,6.887 5.58,12.469 12.46,12.469" /><path
         id="path46"
         style="fill:none;stroke:#231f20;stroke-width:10.00059986;stroke-linecap:butt;stroke-linejoin:miter;stroke-miterlimit:2.61310005;stroke-dasharray:none;stroke-opacity:1"
         d="m 2369.96,635.031 c 6.89,0 12.47,-5.582 12.47,-12.469 0,-6.882 -5.58,-12.468 -12.47,-12.468 -6.88,0 -12.46,5.586 -12.46,12.468 0,6.887 5.58,12.469 12.46,12.469 z" /><path
         id="path48"
         style="fill:#231f20;fill-opacity:1;fill-rule:evenodd;stroke:none"
         d="m 1937.76,635.93 c 6.88,0 12.47,-5.582 12.47,-12.469 0,-6.883 -5.59,-12.469 -12.47,-12.469 -6.89,0 -12.47,5.586 -12.47,12.469 0,6.887 5.58,12.469 12.47,12.469" /><path
         id="path50"
         style="fill:none;stroke:#231f20;stroke-width:10.00059986;stroke-linecap:butt;stroke-linejoin:miter;stroke-miterlimit:2.61310005;stroke-dasharray:none;stroke-opacity:1"
         d="m 1937.76,635.93 c 6.88,0 12.47,-5.582 12.47,-12.469 0,-6.883 -5.59,-12.469 -12.47,-12.469 -6.89,0 -12.47,5.586 -12.47,12.469 0,6.887 5.58,12.469 12.47,12.469 z" /><path
         id="path52"
         style="fill:none;stroke:#231f20;stroke-width:10.00059986;stroke-linecap:butt;stroke-linejoin:miter;stroke-miterlimit:2.61310005;stroke-dasharray:none;stroke-opacity:1"
         d="m 2380.16,619.559 22.05,31.976" /><path
         id="path54"
         style="fill:none;stroke:#231f20;stroke-width:10.00059986;stroke-linecap:butt;stroke-linejoin:miter;stroke-miterlimit:2.61310005;stroke-dasharray:none;stroke-opacity:1"
         d="m 2452.16,619.559 22.05,31.976" /><path
         id="path56"
         style="fill:none;stroke:#231f20;stroke-width:10.00059986;stroke-linecap:butt;stroke-linejoin:miter;stroke-miterlimit:2.61310005;stroke-dasharray:none;stroke-opacity:1"
         d="m 2524.16,619.559 22.05,31.976" /><path
         id="path58"
         style="fill:none;stroke:#231f20;stroke-width:10.00059986;stroke-linecap:butt;stroke-linejoin:miter;stroke-miterlimit:2.61310005;stroke-dasharray:none;stroke-opacity:1"
         d="m 2596.16,619.559 22.05,31.976" /><path
         id="path60"
         style="fill:none;stroke:#231f20;stroke-width:10.00059986;stroke-linecap:butt;stroke-linejoin:miter;stroke-miterlimit:2.61310005;stroke-dasharray:none;stroke-opacity:1"
         d="m 2668.16,619.559 22.05,31.976" /><path
         id="path62"
         style="fill:none;stroke:#231f20;stroke-width:10.00059986;stroke-linecap:butt;stroke-linejoin:miter;stroke-miterlimit:2.61310005;stroke-dasharray:none;stroke-opacity:1"
         d="m 2740.16,619.559 22.05,31.976" /><path
         id="path64"
         style="fill:#231f20;fill-opacity:1;fill-rule:nonzero;stroke:none"
         d="m 1278.82,594.793 c 1.6,-1.684 2.8,-3.387 3.62,-5.066 0.58,-1.184 1.55,-4.254 2.88,-9.235 l 4.3,6.449 c 1.13,1.547 2.52,3.051 4.15,4.465 1.62,1.418 3.05,2.383 4.28,2.903 0.79,0.332 1.65,0.484 2.6,0.484 1.4,0 2.5,-0.367 3.33,-1.117 0.84,-0.754 1.26,-1.668 1.26,-2.735 0,-1.23 -0.25,-2.082 -0.74,-2.535 -0.91,-0.816 -1.95,-1.23 -3.11,-1.23 -0.69,0 -1.42,0.148 -2.2,0.449 -1.54,0.516 -2.57,0.781 -3.09,0.781 -0.78,0 -1.7,-0.465 -2.78,-1.363 -2.02,-1.703 -4.42,-4.969 -7.22,-9.816 l 4,-16.801 c 0.62,-2.567 1.13,-4.117 1.57,-4.617 0.42,-0.5 0.83,-0.75 1.27,-0.75 0.68,0 1.48,0.367 2.38,1.117 1.8,1.5 3.32,3.449 4.6,5.863 l 1.7,-0.879 c -2.05,-3.851 -4.65,-7.035 -7.82,-9.566 -1.78,-1.438 -3.3,-2.153 -4.53,-2.153 -1.82,0 -3.27,1.016 -4.35,3.067 -0.68,1.265 -2.1,6.75 -4.25,16.418 -5.07,-8.832 -9.13,-14.5 -12.2,-17.051 -1.98,-1.613 -3.9,-2.434 -5.77,-2.434 -1.29,0 -2.48,0.469 -3.56,1.418 -0.77,0.715 -1.17,1.664 -1.17,2.883 0,1.067 0.37,1.965 1.08,2.684 0.7,0.715 1.59,1.066 2.64,1.066 1.03,0 2.15,-0.515 3.31,-1.566 0.85,-0.75 1.5,-1.117 1.95,-1.117 0.41,0 0.91,0.265 1.52,0.781 1.53,1.234 3.62,3.902 6.25,8 2.63,4.101 4.37,7.066 5.18,8.902 -2.03,7.899 -3.11,12.082 -3.28,12.535 -0.75,2.114 -1.72,3.614 -2.93,4.496 -1.2,0.887 -2.97,1.321 -5.32,1.321 -0.75,0 -1.62,-0.035 -2.58,-0.102 v 1.766 l 13.03,2.285" /><path
         id="path66"
         style="fill:none;stroke:#231f20;stroke-width:10.00059986;stroke-linecap:butt;stroke-linejoin:miter;stroke-miterlimit:2.61310005;stroke-dasharray:none;stroke-opacity:1"
         d="M 86.7305,622.77 H 1208.7" /><path
         id="path68"
         style="fill:#231f20;fill-opacity:1;fill-rule:evenodd;stroke:none"
         d="m 1204.55,649.117 47.9,-26.347 -47.9,-26.348 v 52.695" /><path
         id="path70"
         style="fill:none;stroke:#231f20;stroke-width:10.00059986;stroke-linecap:butt;stroke-linejoin:miter;stroke-miterlimit:2.61310005;stroke-dasharray:none;stroke-opacity:1"
         d="M 425.832,633.906 V 610.617" /><path
         id="path72"
         style="fill:none;stroke:#231f20;stroke-width:10.00059986;stroke-linecap:butt;stroke-linejoin:miter;stroke-miterlimit:2.61310005;stroke-dasharray:none;stroke-opacity:1"
         d="m 427.246,621.363 c 0.293,66.891 -16.519,100.926 -78.289,100.325 l -227.773,-0.993" /><path
         id="path74"
         style="fill:#231f20;fill-opacity:1;fill-rule:nonzero;stroke:none"
         d="m 13.8047,349.215 c 1.8828,4.449 4.2656,7.898 7.1523,10.316 2.8828,2.434 6.4649,3.649 10.7657,3.649 5.3007,0 9.3632,-1.731 12.1992,-5.184 2.1484,-2.566 3.2343,-5.316 3.2343,-8.25 0,-4.816 -3.0351,-9.797 -9.0859,-14.93 4.0664,-1.601 7.1367,-3.886 9.2188,-6.851 2.082,-2.949 3.1328,-6.434 3.1328,-10.449 0,-5.719 -1.8164,-10.684 -5.4688,-14.887 -4.7461,-5.465 -11.6328,-8.199 -20.6484,-8.199 -4.4649,0 -7.5,0.55 -9.1172,1.652 -1.5977,1.113 -2.4141,2.301 -2.4141,3.566 0,0.95 0.3828,1.786 1.1446,2.5 0.7695,0.719 1.6875,1.067 2.7695,1.067 0.8008,0 1.6328,-0.133 2.4844,-0.383 0.5508,-0.168 1.8008,-0.77 3.7656,-1.781 1.9492,-1.035 3.3008,-1.637 4.0508,-1.836 1.1992,-0.367 2.4805,-0.531 3.8476,-0.531 3.3164,0 6.2188,1.281 8.668,3.847 2.4688,2.567 3.6836,5.617 3.6836,9.133 0,2.566 -0.5664,5.082 -1.6992,7.52 -0.8477,1.816 -1.7852,3.199 -2.7813,4.148 -1.4023,1.297 -3.3203,2.484 -5.7695,3.531 -2.4336,1.071 -4.9336,1.602 -7.4648,1.602 h -1.5704 v 1.465 c 2.5704,0.32 5.1524,1.25 7.7383,2.785 2.5977,1.515 4.4805,3.367 5.6485,5.515 1.164,2.153 1.75,4.5 1.75,7.067 0,3.367 -1.0508,6.066 -3.1524,8.133 -2.0976,2.07 -4.6992,3.101 -7.832,3.101 -5.0508,0 -9.25,-2.699 -12.6485,-8.097 l -1.6015,0.781" /><path
         id="path76"
         style="fill:#231f20;fill-opacity:1;fill-rule:nonzero;stroke:none"
         d="m 60.9727,362.98 v 2.051 c 4.9492,-2.433 9.0625,-5.316 12.3476,-8.652 4.6485,-4.75 8.25,-10.313 10.7852,-16.715 2.5468,-6.398 3.8164,-13.066 3.8164,-20 0,-10.082 -2.4844,-19.285 -7.4531,-27.598 -4.9649,-8.316 -11.4649,-14.265 -19.4961,-17.851 v 1.801 c 4,2.25 7.2968,5.281 9.8789,9.117 2.5859,3.816 4.5195,8.683 5.7695,14.597 1.25,5.903 1.8828,12.067 1.8828,18.469 0,6.934 -0.5508,13.266 -1.6172,19 -0.8164,4.496 -1.832,8.082 -3.0508,10.801 -1.2304,2.695 -2.8515,5.297 -4.8671,7.797 -2.0118,2.515 -4.6797,4.902 -7.9961,7.183" /><path
         id="path78"
         style="fill:#231f20;fill-opacity:1;fill-rule:nonzero;stroke:none"
         d="m 2862.82,162.793 c 1.6,-1.684 2.8,-3.387 3.62,-5.066 0.58,-1.184 1.55,-4.254 2.88,-9.235 l 4.3,6.449 c 1.13,1.551 2.52,3.051 4.15,4.465 1.62,1.418 3.05,2.383 4.28,2.903 0.79,0.332 1.65,0.484 2.6,0.484 1.4,0 2.5,-0.367 3.34,-1.117 0.83,-0.754 1.25,-1.668 1.25,-2.735 0,-1.23 -0.25,-2.082 -0.74,-2.535 -0.91,-0.816 -1.95,-1.23 -3.11,-1.23 -0.69,0 -1.42,0.148 -2.2,0.449 -1.54,0.516 -2.57,0.781 -3.09,0.781 -0.78,0 -1.7,-0.465 -2.78,-1.363 -2.02,-1.703 -4.42,-4.969 -7.22,-9.816 l 4,-16.801 c 0.62,-2.567 1.13,-4.117 1.57,-4.617 0.42,-0.5 0.83,-0.75 1.27,-0.75 0.68,0 1.48,0.367 2.38,1.117 1.8,1.5 3.32,3.449 4.6,5.863 l 1.7,-0.879 c -2.05,-3.851 -4.65,-7.035 -7.82,-9.566 -1.78,-1.438 -3.3,-2.153 -4.53,-2.153 -1.82,0 -3.27,1.016 -4.35,3.067 -0.68,1.265 -2.1,6.754 -4.25,16.418 -5.07,-8.832 -9.13,-14.5 -12.2,-17.051 -1.98,-1.613 -3.9,-2.434 -5.77,-2.434 -1.29,0 -2.48,0.469 -3.56,1.418 -0.77,0.715 -1.17,1.664 -1.17,2.883 0,1.067 0.37,1.965 1.08,2.684 0.7,0.715 1.59,1.066 2.64,1.066 1.03,0 2.15,-0.515 3.31,-1.566 0.85,-0.75 1.5,-1.117 1.96,-1.117 0.4,0 0.9,0.265 1.51,0.785 1.53,1.23 3.62,3.898 6.25,7.996 2.63,4.101 4.37,7.066 5.18,8.902 -2.03,7.899 -3.11,12.082 -3.28,12.535 -0.75,2.114 -1.72,3.614 -2.93,4.496 -1.2,0.887 -2.97,1.321 -5.32,1.321 -0.75,0 -1.62,-0.035 -2.58,-0.102 v 1.766 l 13.03,2.285" /><path
         id="path80"
         style="fill:none;stroke:#231f20;stroke-width:10.00059986;stroke-linecap:butt;stroke-linejoin:miter;stroke-miterlimit:2.61310005;stroke-dasharray:none;stroke-opacity:1"
         d="m 1616.88,190.77 h 1156.1" /><path
         id="path82"
         style="fill:#231f20;fill-opacity:1;fill-rule:evenodd;stroke:none"
         d="m 2768.83,217.117 47.9,-26.347 -47.9,-26.348 v 52.695" /><path
         id="path84"
         style="fill:none;stroke:#231f20;stroke-width:10.00059986;stroke-linecap:butt;stroke-linejoin:miter;stroke-miterlimit:2.61310005;stroke-dasharray:none;stroke-opacity:1"
         d="M 1937.83,201.906 V 178.617" /><path
         id="path86"
         style="fill:none;stroke:#231f20;stroke-width:10.00059986;stroke-linecap:butt;stroke-linejoin:miter;stroke-miterlimit:2.61310005;stroke-dasharray:none;stroke-opacity:1"
         d="M 2369.83,201.906 V 178.617" /><path
         id="path88"
         style="fill:none;stroke:#231f20;stroke-width:10.00059986;stroke-linecap:butt;stroke-linejoin:miter;stroke-miterlimit:2.61310005;stroke-dasharray:none;stroke-opacity:1"
         d="m 1937.44,189.363 c -0.3,66.891 16.51,100.926 78.29,100.325 h 682.72" /><path
         id="path90"
         style="fill:none;stroke:#231f20;stroke-width:10.00059986;stroke-linecap:butt;stroke-linejoin:miter;stroke-miterlimit:2.61310005;stroke-dasharray:none;stroke-opacity:1"
         d="m 1948.16,187.559 22.05,31.976" /><path
         id="path92"
         style="fill:none;stroke:#231f20;stroke-width:10.00059986;stroke-linecap:butt;stroke-linejoin:miter;stroke-miterlimit:2.61310005;stroke-dasharray:none;stroke-opacity:1"
         d="m 2020.16,187.559 22.05,31.976" /><path
         id="path94"
         style="fill:none;stroke:#231f20;stroke-width:10.00059986;stroke-linecap:butt;stroke-linejoin:miter;stroke-miterlimit:2.61310005;stroke-dasharray:none;stroke-opacity:1"
         d="m 2092.16,187.559 22.05,31.976" /><path
         id="path96"
         style="fill:none;stroke:#231f20;stroke-width:10.00059986;stroke-linecap:butt;stroke-linejoin:miter;stroke-miterlimit:2.61310005;stroke-dasharray:none;stroke-opacity:1"
         d="m 2164.16,187.559 22.05,31.976" /><path
         id="path98"
         style="fill:#231f20;fill-opacity:1;fill-rule:nonzero;stroke:none"
         d="m 1567.25,320.016 v -6.934 h -8.88 v -17.484 h -8.07 v 17.484 h -28.01 v 6.25 L 1553,363.18 h 5.37 v -43.164 z m -16.95,0 v 32.863 l -23.23,-32.863 h 23.23" /><path
         id="path100"
         style="fill:#231f20;fill-opacity:1;fill-rule:nonzero;stroke:none"
         d="m 1572.97,362.98 v 2.051 c 4.95,-2.433 9.07,-5.316 12.35,-8.652 4.65,-4.75 8.25,-10.313 10.79,-16.715 2.54,-6.398 3.81,-13.066 3.81,-20 0,-10.082 -2.48,-19.285 -7.45,-27.598 -4.97,-8.316 -11.47,-14.265 -19.5,-17.851 v 1.801 c 4,2.25 7.3,5.281 9.88,9.117 2.59,3.816 4.52,8.683 5.77,14.597 1.25,5.903 1.88,12.067 1.88,18.469 0,6.934 -0.55,13.266 -1.61,19 -0.82,4.496 -1.84,8.082 -3.05,10.801 -1.23,2.695 -2.86,5.297 -4.87,7.797 -2.01,2.515 -4.68,4.902 -8,7.183" /><path
         id="path102"
         style="fill:#231f20;fill-opacity:1;fill-rule:evenodd;stroke:none"
         d="m 425.941,630.012 c 4.727,0 8.555,-3.828 8.555,-8.555 0,-4.723 -3.828,-8.555 -8.555,-8.555 -4.726,0 -8.554,3.832 -8.554,8.555 0,4.727 3.828,8.555 8.554,8.555" /><path
         id="path104"
         style="fill:none;stroke:#231f20;stroke-width:10.00059986;stroke-linecap:butt;stroke-linejoin:miter;stroke-miterlimit:2.61310005;stroke-dasharray:none;stroke-opacity:1"
         d="m 425.941,630.012 c 4.727,0 8.555,-3.828 8.555,-8.555 0,-4.723 -3.828,-8.555 -8.555,-8.555 -4.726,0 -8.554,3.832 -8.554,8.555 0,4.727 3.828,8.555 8.554,8.555 z" /><path
         id="path106"
         style="fill:#231f20;fill-opacity:1;fill-rule:evenodd;stroke:none"
         d="m 2369.96,199.801 c 5.11,0 9.25,-4.137 9.25,-9.239 0,-5.101 -4.14,-9.238 -9.25,-9.238 -5.1,0 -9.23,4.137 -9.23,9.238 0,5.102 4.13,9.239 9.23,9.239" /><path
         id="path108"
         style="fill:none;stroke:#231f20;stroke-width:10.00059986;stroke-linecap:butt;stroke-linejoin:miter;stroke-miterlimit:2.61310005;stroke-dasharray:none;stroke-opacity:1"
         d="m 2369.96,199.801 c 5.11,0 9.25,-4.137 9.25,-9.239 0,-5.101 -4.14,-9.238 -9.25,-9.238 -5.1,0 -9.23,4.137 -9.23,9.238 0,5.102 4.13,9.239 9.23,9.239 z" /><path
         id="path110"
         style="fill:#231f20;fill-opacity:1;fill-rule:evenodd;stroke:none"
         d="m 1937.76,200.699 c 5.1,0 9.24,-4.137 9.24,-9.238 0,-5.102 -4.14,-9.238 -9.24,-9.238 -5.1,0 -9.24,4.136 -9.24,9.238 0,5.101 4.14,9.238 9.24,9.238" /><path
         id="path112"
         style="fill:none;stroke:#231f20;stroke-width:10.00059986;stroke-linecap:butt;stroke-linejoin:miter;stroke-miterlimit:2.61310005;stroke-dasharray:none;stroke-opacity:1"
         d="m 1937.76,200.699 c 5.1,0 9.24,-4.137 9.24,-9.238 0,-5.102 -4.14,-9.238 -9.24,-9.238 -5.1,0 -9.24,4.136 -9.24,9.238 0,5.101 4.14,9.238 9.24,9.238 z" /><path
         id="path114"
         style="fill:none;stroke:#231f20;stroke-width:10.00059986;stroke-linecap:butt;stroke-linejoin:miter;stroke-miterlimit:2.61310005;stroke-dasharray:none;stroke-opacity:1"
         d="m 2380.16,187.559 22.05,31.976" /><path
         id="path116"
         style="fill:none;stroke:#231f20;stroke-width:10.00059986;stroke-linecap:butt;stroke-linejoin:miter;stroke-miterlimit:2.61310005;stroke-dasharray:none;stroke-opacity:1"
         d="m 2452.16,187.559 22.05,31.976" /><path
         id="path118"
         style="fill:none;stroke:#231f20;stroke-width:10.00059986;stroke-linecap:butt;stroke-linejoin:miter;stroke-miterlimit:2.61310005;stroke-dasharray:none;stroke-opacity:1"
         d="m 2524.16,187.559 22.05,31.976" /><path
         id="path120"
         style="fill:none;stroke:#231f20;stroke-width:10.00059986;stroke-linecap:butt;stroke-linejoin:miter;stroke-miterlimit:2.61310005;stroke-dasharray:none;stroke-opacity:1"
         d="m 2596.16,187.559 22.05,31.976" /><path
         id="path122"
         style="fill:none;stroke:#231f20;stroke-width:10.00059986;stroke-linecap:butt;stroke-linejoin:miter;stroke-miterlimit:2.61310005;stroke-dasharray:none;stroke-opacity:1"
         d="m 2668.16,187.559 22.05,31.976" /><path
         id="path124"
         style="fill:none;stroke:#231f20;stroke-width:10.00059986;stroke-linecap:butt;stroke-linejoin:miter;stroke-miterlimit:2.61310005;stroke-dasharray:none;stroke-opacity:1"
         d="m 2740.16,187.559 22.05,31.976" /><path
         id="path126"
         style="fill:none;stroke:#231f20;stroke-width:10.00059986;stroke-linecap:butt;stroke-linejoin:miter;stroke-miterlimit:2.61310005;stroke-dasharray:none;stroke-opacity:1"
         d="m 148.156,619.559 22.055,31.976" /><path
         id="path128"
         style="fill:none;stroke:#231f20;stroke-width:10.00059986;stroke-linecap:butt;stroke-linejoin:miter;stroke-miterlimit:2.61310005;stroke-dasharray:none;stroke-opacity:1"
         d="m 220.156,619.559 22.055,31.976" /><path
         id="path130"
         style="fill:none;stroke:#231f20;stroke-width:10.00059986;stroke-linecap:butt;stroke-linejoin:miter;stroke-miterlimit:2.61310005;stroke-dasharray:none;stroke-opacity:1"
         d="m 292.156,619.559 22.055,31.976" /><path
         id="path132"
         style="fill:none;stroke:#231f20;stroke-width:10.00059986;stroke-linecap:butt;stroke-linejoin:miter;stroke-miterlimit:2.61310005;stroke-dasharray:none;stroke-opacity:1"
         d="m 364.156,619.559 22.055,31.976" /><path
         id="path134"
         style="fill:none;stroke:#231f20;stroke-width:10.00059986;stroke-linecap:butt;stroke-linejoin:miter;stroke-miterlimit:2.61310005;stroke-dasharray:none;stroke-opacity:1"
         d="m 2164.16,187.559 22.05,31.976" /><path
         id="path136"
         style="fill:none;stroke:#231f20;stroke-width:10.00059986;stroke-linecap:butt;stroke-linejoin:miter;stroke-miterlimit:2.61310005;stroke-dasharray:none;stroke-opacity:1"
         d="m 2236.16,187.559 22.05,31.976" /><path
         id="path138"
         style="fill:none;stroke:#231f20;stroke-width:10.00059986;stroke-linecap:butt;stroke-linejoin:miter;stroke-miterlimit:2.61310005;stroke-dasharray:none;stroke-opacity:1"
         d="m 2308.16,187.559 22.05,31.976" /><path
         id="path140"
         style="fill:#231f20;fill-opacity:1;fill-rule:nonzero;stroke:none"
         d="m 1925.5,587.621 16.11,7.867 h 1.62 v -55.914 c 0,-3.703 0.15,-6.019 0.45,-6.933 0.32,-0.903 0.96,-1.602 1.93,-2.102 0.98,-0.484 2.97,-0.766 5.97,-0.832 v -1.801 h -24.92 v 1.801 c 3.13,0.066 5.15,0.332 6.07,0.816 0.9,0.465 1.53,1.098 1.9,1.899 0.35,0.801 0.53,3.183 0.53,7.152 v 35.75 c 0,4.817 -0.16,7.899 -0.48,9.266 -0.23,1.047 -0.65,1.816 -1.25,2.297 -0.6,0.484 -1.32,0.734 -2.17,0.734 -1.2,0 -2.88,-0.5 -5.03,-1.516 l -0.73,1.516" /><path
         id="path142"
         style="fill:#231f20;fill-opacity:1;fill-rule:nonzero;stroke:none"
         d="m 2390.34,600.625 v -1.816 c -4.29,-0.418 -7.8,-1.266 -10.52,-2.567 -2.71,-1.285 -5.4,-3.234 -8.05,-5.883 -2.65,-2.632 -4.85,-5.566 -6.6,-8.8 -1.73,-3.25 -3.2,-7.102 -4.37,-11.551 4.69,3.219 9.39,4.832 14.12,4.832 4.52,0 8.45,-1.832 11.77,-5.465 3.31,-3.648 4.98,-8.332 4.98,-14.066 0,-5.536 -1.68,-10.582 -5.03,-15.133 -4.04,-5.535 -9.39,-8.301 -16.02,-8.301 -4.53,0 -8.37,1.504 -11.53,4.484 -6.18,5.832 -9.27,13.383 -9.27,22.664 0,5.918 1.18,11.551 3.57,16.887 2.36,5.348 5.77,10.082 10.18,14.215 4.4,4.133 8.63,6.918 12.67,8.352 4.03,1.429 7.8,2.148 11.28,2.148 z m -30.37,-34.184 c -0.58,-4.398 -0.88,-7.949 -0.88,-10.648 0,-3.117 0.58,-6.516 1.73,-10.184 1.17,-3.648 2.88,-6.566 5.17,-8.718 1.65,-1.516 3.67,-2.282 6.05,-2.282 2.83,0 5.37,1.332 7.58,4 2.24,2.668 3.35,6.485 3.35,11.434 0,5.566 -1.1,10.383 -3.31,14.449 -2.22,4.067 -5.36,6.102 -9.44,6.102 -1.23,0 -2.55,-0.27 -3.97,-0.785 -1.41,-0.516 -3.51,-1.653 -6.28,-3.368" /><path
         id="path144"
         style="fill:none;stroke:#231f20;stroke-width:10.00059986;stroke-linecap:butt;stroke-linejoin:miter;stroke-miterlimit:2.61310005;stroke-dasharray:none;stroke-opacity:1"
         d="m 2340.23,524.258 h 63.72" /><path
         id="path146"
         style="fill:#231f20;fill-opacity:1;fill-rule:nonzero;stroke:none"
         d="m 2390.4,509.832 -3.82,-8.297 h -19.92 l -4.35,-8.902 c 8.64,-1.266 15.47,-4.465 20.5,-9.613 4.34,-4.422 6.5,-9.637 6.5,-15.622 0,-3.48 -0.7,-6.714 -2.11,-9.664 -1.42,-2.968 -3.2,-5.484 -5.35,-7.566 -2.15,-2.082 -4.55,-3.766 -7.19,-5.035 -3.73,-1.797 -7.58,-2.684 -11.52,-2.684 -3.98,0 -6.86,0.668 -8.66,2.02 -1.82,1.347 -2.72,2.847 -2.72,4.465 0,0.918 0.39,1.714 1.12,2.418 0.75,0.699 1.7,1.05 2.83,1.05 0.85,0 1.6,-0.121 2.24,-0.386 0.63,-0.266 1.71,-0.934 3.25,-1.996 2.43,-1.704 4.9,-2.551 7.41,-2.551 3.8,0 7.15,1.449 10.03,4.332 2.89,2.883 4.32,6.383 4.32,10.515 0,4 -1.28,7.735 -3.85,11.2 -2.58,3.468 -6.11,6.152 -10.65,8.035 -3.55,1.469 -8.38,2.316 -14.5,2.551 l 12.7,25.73 h 23.74" /><path
         id="path148"
         style="fill:#231f20;fill-opacity:1;fill-rule:nonzero;stroke:none"
         d="m 419.148,584.727 16.118,7.863 h 1.617 v -55.914 c 0,-3.703 0.148,-6.016 0.449,-6.934 0.32,-0.902 0.969,-1.601 1.934,-2.101 0.984,-0.485 2.968,-0.762 5.968,-0.832 v -1.801 h -24.918 v 1.801 c 3.133,0.07 5.153,0.336 6.067,0.816 0.902,0.469 1.535,1.102 1.898,1.898 0.352,0.805 0.535,3.184 0.535,7.153 v 35.75 c 0,4.816 -0.164,7.902 -0.484,9.265 -0.23,1.051 -0.648,1.817 -1.25,2.301 -0.598,0.485 -1.312,0.735 -2.164,0.735 -1.203,0 -2.883,-0.504 -5.035,-1.516 l -0.735,1.516" /><path
         id="path150"
         style="fill:#231f20;fill-opacity:1;fill-rule:nonzero;stroke:none"
         d="m 1925.5,152.727 16.11,7.863 h 1.62 v -55.914 c 0,-3.703 0.15,-6.0158 0.45,-6.9338 0.32,-0.9024 0.96,-1.6016 1.93,-2.1016 0.98,-0.4844 2.97,-0.7617 5.97,-0.832 v -1.8008 h -24.92 v 1.8008 c 3.13,0.0703 5.15,0.3359 6.07,0.8164 0.9,0.4688 1.53,1.1016 1.9,1.8984 0.35,0.8047 0.53,3.1836 0.53,7.1526 v 35.75 c 0,4.816 -0.16,7.902 -0.48,9.265 -0.23,1.051 -0.65,1.817 -1.25,2.301 -0.6,0.485 -1.32,0.735 -2.17,0.735 -1.2,0 -2.88,-0.504 -5.03,-1.516 l -0.73,1.516" /><path
         id="path152"
         style="fill:#231f20;fill-opacity:1;fill-rule:nonzero;stroke:none"
         d="m 2390.34,165.727 v -1.817 c -4.29,-0.414 -7.8,-1.265 -10.52,-2.566 -2.71,-1.282 -5.4,-3.231 -8.05,-5.883 -2.65,-2.633 -4.85,-5.566 -6.6,-8.797 -1.73,-3.254 -3.2,-7.102 -4.37,-11.551 4.69,3.215 9.39,4.832 14.12,4.832 4.52,0 8.45,-1.836 11.77,-5.465 3.31,-3.652 4.98,-8.335 4.98,-14.07 0,-5.531 -1.68,-10.582 -5.03,-15.133 -4.04,-5.5309 -9.39,-8.3004 -16.02,-8.3004 -4.53,0 -8.37,1.5039 -11.53,4.4844 -6.18,5.836 -9.27,13.383 -9.27,22.668 0,5.918 1.18,11.551 3.57,16.883 2.36,5.351 5.77,10.086 10.18,14.218 4.4,4.133 8.63,6.915 12.67,8.348 4.03,1.434 7.8,2.149 11.28,2.149 z m -30.37,-34.18 c -0.58,-4.402 -0.88,-7.953 -0.88,-10.652 0,-3.118 0.58,-6.516 1.73,-10.184 1.17,-3.649 2.88,-6.566 5.17,-8.715 1.65,-1.519 3.67,-2.2812 6.05,-2.2812 2.83,0 5.37,1.3322 7.58,3.9962 2.24,2.668 3.35,6.484 3.35,11.434 0,5.566 -1.1,10.382 -3.31,14.449 -2.22,4.07 -5.36,6.101 -9.44,6.101 -1.23,0 -2.55,-0.265 -3.97,-0.781 -1.41,-0.519 -3.51,-1.652 -6.28,-3.367" /><path
         id="path154"
         style="fill:none;stroke:#231f20;stroke-width:10.00059986;stroke-linecap:butt;stroke-linejoin:miter;stroke-miterlimit:2.61310005;stroke-dasharray:none;stroke-opacity:1"
         d="m 2340.23,89.3594 h 63.72" /><path
         id="path156"
         style="fill:#231f20;fill-opacity:1;fill-rule:nonzero;stroke:none"
         d="m 2390.4,74.9375 -3.82,-8.3008 h -19.92 l -4.35,-8.8984 c 8.64,-1.2695 15.47,-4.4688 20.5,-9.6172 4.34,-4.418 6.5,-9.6328 6.5,-15.6172 0,-3.4844 -0.7,-6.7148 -2.11,-9.668 -1.42,-2.9648 -3.2,-5.4804 -5.35,-7.5664 -2.15,-2.082 -4.55,-3.7656 -7.19,-5.0312 -3.73,-1.8008 -7.58,-2.68361 -11.52,-2.68361 -3.98,0 -6.86,0.66797 -8.66,2.01562 -1.82,1.35159 -2.72,2.84769 -2.72,4.46879 0,0.914 0.39,1.7148 1.12,2.414 0.75,0.6992 1.7,1.0508 2.83,1.0508 0.85,0 1.6,-0.1172 2.24,-0.3828 0.63,-0.2695 1.71,-0.9336 3.25,-2 2.43,-1.6992 4.9,-2.5508 7.41,-2.5508 3.8,0 7.15,1.4492 10.03,4.332 2.89,2.8829 4.32,6.3868 4.32,10.5196 0,4 -1.28,7.7304 -3.85,11.1992 -2.58,3.4648 -6.11,6.1484 -10.65,8.0312 -3.55,1.4688 -8.38,2.3165 -14.5,2.5508 l 12.7,25.7344 h 23.74" /><path
         id="path158"
         style="fill:#231f20;fill-opacity:1;fill-rule:nonzero;stroke:none"
         d="m 1278.82,162.793 c 1.6,-1.684 2.8,-3.387 3.62,-5.066 0.58,-1.184 1.55,-4.254 2.88,-9.235 l 4.3,6.449 c 1.13,1.551 2.52,3.051 4.15,4.465 1.62,1.418 3.05,2.383 4.28,2.903 0.79,0.332 1.65,0.484 2.6,0.484 1.4,0 2.5,-0.367 3.33,-1.117 0.84,-0.754 1.26,-1.668 1.26,-2.735 0,-1.23 -0.25,-2.082 -0.74,-2.535 -0.91,-0.816 -1.95,-1.23 -3.11,-1.23 -0.69,0 -1.42,0.148 -2.2,0.449 -1.54,0.516 -2.57,0.781 -3.09,0.781 -0.78,0 -1.7,-0.465 -2.78,-1.363 -2.02,-1.703 -4.42,-4.969 -7.22,-9.816 l 4,-16.801 c 0.62,-2.567 1.13,-4.117 1.57,-4.617 0.42,-0.5 0.83,-0.75 1.27,-0.75 0.68,0 1.48,0.367 2.38,1.117 1.8,1.5 3.32,3.449 4.6,5.863 l 1.7,-0.879 c -2.05,-3.851 -4.65,-7.035 -7.82,-9.566 -1.78,-1.438 -3.3,-2.153 -4.53,-2.153 -1.82,0 -3.27,1.016 -4.35,3.067 -0.68,1.265 -2.1,6.754 -4.25,16.418 -5.07,-8.832 -9.13,-14.5 -12.2,-17.051 -1.98,-1.613 -3.9,-2.434 -5.77,-2.434 -1.29,0 -2.48,0.469 -3.56,1.418 -0.77,0.715 -1.17,1.664 -1.17,2.883 0,1.067 0.37,1.965 1.08,2.684 0.7,0.715 1.59,1.066 2.64,1.066 1.03,0 2.15,-0.515 3.31,-1.566 0.85,-0.75 1.5,-1.117 1.95,-1.117 0.41,0 0.91,0.265 1.52,0.785 1.53,1.23 3.62,3.898 6.25,7.996 2.63,4.101 4.37,7.066 5.18,8.902 -2.03,7.899 -3.11,12.082 -3.28,12.535 -0.75,2.114 -1.72,3.614 -2.93,4.496 -1.2,0.887 -2.97,1.321 -5.32,1.321 -0.75,0 -1.62,-0.035 -2.58,-0.102 v 1.766 l 13.03,2.285" /><path
         id="path160"
         style="fill:none;stroke:#231f20;stroke-width:10.00059986;stroke-linecap:butt;stroke-linejoin:miter;stroke-miterlimit:2.61310005;stroke-dasharray:none;stroke-opacity:1"
         d="M 142.277,190.77 H 1208.7" /><path
         id="path162"
         style="fill:#231f20;fill-opacity:1;fill-rule:evenodd;stroke:none"
         d="m 1204.55,217.117 47.9,-26.347 -47.9,-26.348 v 52.695" /><path
         id="path164"
         style="fill:none;stroke:#231f20;stroke-width:10.00059986;stroke-linecap:butt;stroke-linejoin:miter;stroke-miterlimit:2.61310005;stroke-dasharray:none;stroke-opacity:1"
         d="M 425.832,201.906 V 178.617" /><path
         id="path166"
         style="fill:none;stroke:#231f20;stroke-width:10.00059986;stroke-linecap:butt;stroke-linejoin:miter;stroke-miterlimit:2.61310005;stroke-dasharray:none;stroke-opacity:1"
         d="M 857.832,201.906 V 178.617" /><path
         id="path168"
         style="fill:#231f20;fill-opacity:1;fill-rule:nonzero;stroke:none"
         d="m 419.148,155.621 16.118,7.867 h 1.617 v -55.914 c 0,-3.703 0.148,-6.019 0.449,-6.933 0.32,-0.9027 0.969,-1.6019 1.934,-2.1019 0.984,-0.4844 2.968,-0.7657 5.968,-0.8321 v -1.8008 h -24.918 v 1.8008 c 3.133,0.0664 5.153,0.3321 6.067,0.8164 0.902,0.4649 1.535,1.0977 1.898,1.8986 0.352,0.801 0.535,3.183 0.535,7.152 v 35.75 c 0,4.817 -0.164,7.899 -0.484,9.266 -0.23,1.047 -0.648,1.816 -1.25,2.297 -0.598,0.488 -1.312,0.734 -2.164,0.734 -1.203,0 -2.883,-0.5 -5.035,-1.516 l -0.735,1.516" /><path
         id="path170"
         style="fill:none;stroke:#231f20;stroke-width:10.00059986;stroke-linecap:butt;stroke-linejoin:miter;stroke-miterlimit:2.61310005;stroke-dasharray:none;stroke-opacity:1"
         d="m 425.832,189.363 c -0.289,66.891 16.41,100.926 77.77,100.325 h 304.16" /><path
         id="path172"
         style="fill:none;stroke:#231f20;stroke-width:10.00059986;stroke-linecap:butt;stroke-linejoin:miter;stroke-miterlimit:2.61310005;stroke-dasharray:none;stroke-opacity:1"
         d="m 859.246,189.363 c 0.293,66.891 -16.519,100.926 -78.289,100.325 H 474.75" /><path
         id="path174"
         style="fill:none;stroke:#231f20;stroke-width:10.00059986;stroke-linecap:butt;stroke-linejoin:miter;stroke-miterlimit:2.61310005;stroke-dasharray:none;stroke-opacity:1"
         d="m 436.156,187.559 22.055,31.976" /><path
         id="path176"
         style="fill:none;stroke:#231f20;stroke-width:10.00059986;stroke-linecap:butt;stroke-linejoin:miter;stroke-miterlimit:2.61310005;stroke-dasharray:none;stroke-opacity:1"
         d="m 508.156,187.559 22.055,31.976" /><path
         id="path178"
         style="fill:none;stroke:#231f20;stroke-width:10.00059986;stroke-linecap:butt;stroke-linejoin:miter;stroke-miterlimit:2.61310005;stroke-dasharray:none;stroke-opacity:1"
         d="m 580.156,187.559 22.055,31.976" /><path
         id="path180"
         style="fill:none;stroke:#231f20;stroke-width:10.00059986;stroke-linecap:butt;stroke-linejoin:miter;stroke-miterlimit:2.61310005;stroke-dasharray:none;stroke-opacity:1"
         d="m 652.156,187.559 22.055,31.976" /><path
         id="path182"
         style="fill:none;stroke:#231f20;stroke-width:10.00059986;stroke-linecap:butt;stroke-linejoin:miter;stroke-miterlimit:2.61310005;stroke-dasharray:none;stroke-opacity:1"
         d="m 724.156,187.559 22.055,31.976" /><path
         id="path184"
         style="fill:none;stroke:#231f20;stroke-width:10.00059986;stroke-linecap:butt;stroke-linejoin:miter;stroke-miterlimit:2.61310005;stroke-dasharray:none;stroke-opacity:1"
         d="m 796.156,187.559 22.055,31.976" /><path
         id="path186"
         style="fill:#231f20;fill-opacity:1;fill-rule:evenodd;stroke:none"
         d="m 425.941,201.242 c 6.504,0 11.786,-5.277 11.786,-11.785 0,-6.504 -5.282,-11.781 -11.786,-11.781 -6.503,0 -11.785,5.277 -11.785,11.781 0,6.508 5.282,11.785 11.785,11.785" /><path
         id="path188"
         style="fill:none;stroke:#231f20;stroke-width:10.00059986;stroke-linecap:butt;stroke-linejoin:miter;stroke-miterlimit:2.61310005;stroke-dasharray:none;stroke-opacity:1"
         d="m 425.941,201.242 c 6.504,0 11.786,-5.277 11.786,-11.785 0,-6.504 -5.282,-11.781 -11.786,-11.781 -6.503,0 -11.785,5.277 -11.785,11.781 0,6.508 5.282,11.785 11.785,11.785 z" /><path
         id="path190"
         style="fill:#ffffff;fill-opacity:1;fill-rule:evenodd;stroke:none"
         d="m 858.273,205.125 c 7.774,0 14.082,-6.305 14.082,-14.078 0,-7.777 -6.308,-14.082 -14.082,-14.082 -7.777,0 -14.078,6.305 -14.078,14.082 0,7.773 6.301,14.078 14.078,14.078" /><path
         id="path192"
         style="fill:none;stroke:#231f20;stroke-width:10.00059986;stroke-linecap:butt;stroke-linejoin:miter;stroke-miterlimit:2.61310005;stroke-dasharray:none;stroke-opacity:1"
         d="m 858.273,205.125 c 7.774,0 14.082,-6.305 14.082,-14.078 0,-7.777 -6.308,-14.082 -14.082,-14.082 -7.777,0 -14.078,6.305 -14.078,14.082 0,7.773 6.301,14.078 14.078,14.078 z" /><path
         id="path194"
         style="fill:#231f20;fill-opacity:1;fill-rule:nonzero;stroke:none"
         d="m 883.992,168.625 v -1.816 c -4.285,-0.418 -7.801,-1.27 -10.515,-2.567 -2.719,-1.285 -5.403,-3.234 -8.051,-5.883 -2.649,-2.632 -4.852,-5.57 -6.602,-8.8 -1.73,-3.25 -3.199,-7.102 -4.363,-11.551 4.684,3.219 9.383,4.832 14.117,4.832 4.516,0 8.449,-1.832 11.766,-5.465 3.316,-3.648 4.984,-8.332 4.984,-14.066 0,-5.536 -1.687,-10.582 -5.035,-15.133 -4.035,-5.535 -9.383,-8.301 -16.016,-8.301 -4.535,0 -8.367,1.504 -11.535,4.484 -6.183,5.832 -9.265,13.383 -9.265,22.664 0,5.918 1.179,11.551 3.566,16.887 2.367,5.348 5.766,10.082 10.184,14.215 4.398,4.133 8.632,6.918 12.664,8.352 4.035,1.429 7.8,2.148 11.285,2.148 z m -30.367,-34.184 c -0.582,-4.398 -0.883,-7.949 -0.883,-10.648 0,-3.117 0.586,-6.516 1.735,-10.184 1.164,-3.648 2.882,-6.566 5.164,-8.718 1.652,-1.516 3.668,-2.282 6.054,-2.282 2.832,0 5.364,1.332 7.582,4 2.235,2.668 3.348,6.485 3.348,11.434 0,5.566 -1.098,10.383 -3.316,14.449 -2.215,4.067 -5.352,6.102 -9.434,6.102 -1.23,0 -2.551,-0.27 -3.965,-0.785 -1.418,-0.516 -3.515,-1.653 -6.285,-3.368" /><path
         id="path196"
         style="fill:none;stroke:#231f20;stroke-width:10.00059986;stroke-linecap:butt;stroke-linejoin:miter;stroke-miterlimit:2.61310005;stroke-dasharray:none;stroke-opacity:1"
         d="m 833.887,92.2578 h 63.722" /><path
         id="path198"
         style="fill:#231f20;fill-opacity:1;fill-rule:nonzero;stroke:none"
         d="m 884.055,77.8359 -3.821,-8.3007 H 860.32 l -4.351,-8.9024 c 8.633,-1.2656 15.469,-4.4648 20.5,-9.6133 4.332,-4.4218 6.5,-9.6367 6.5,-15.6211 0,-3.4804 -0.699,-6.7148 -2.117,-9.664 -1.414,-2.9688 -3.2,-5.4844 -5.352,-7.5664 -2.148,-2.0821 -4.547,-3.7657 -7.18,-5.0352 -3.734,-1.7969 -7.586,-2.6836 -11.519,-2.6836 -3.981,0 -6.863,0.668 -8.664,2.0196 -1.817,1.3476 -2.719,2.8476 -2.719,4.4648 0,0.918 0.387,1.7148 1.117,2.418 0.75,0.6992 1.699,1.0507 2.836,1.0507 0.848,0 1.598,-0.1211 2.231,-0.3867 0.632,-0.2656 1.714,-0.9297 3.25,-1.9961 2.433,-1.7031 4.902,-2.5507 7.418,-2.5507 3.796,0 7.148,1.4492 10.031,4.332 2.887,2.8828 4.316,6.3828 4.316,10.5156 0,4 -1.281,7.7344 -3.847,11.1992 -2.582,3.4688 -6.118,6.1524 -10.649,8.0352 -3.551,1.4687 -8.387,2.3164 -14.5,2.5508 l 12.699,25.7343 h 23.735" /></g></g></svg>