<?xml version="1.0" encoding="UTF-8" standalone="no"?>
<svg
   xmlns:dc="http://purl.org/dc/elements/1.1/"
   xmlns:cc="http://creativecommons.org/ns#"
   xmlns:rdf="http://www.w3.org/1999/02/22-rdf-syntax-ns#"
   xmlns:svg="http://www.w3.org/2000/svg"
   xmlns="http://www.w3.org/2000/svg"
   viewBox="0 0 348 74.666664"
   height="74.666664"
   width="348"
   xml:space="preserve"
   id="svg2"
   version="1.1"><metadata
     id="metadata8"><rdf:RDF><cc:Work
         rdf:about=""><dc:format>image/svg+xml</dc:format><dc:type
           rdf:resource="http://purl.org/dc/dcmitype/StillImage" /></cc:Work></rdf:RDF></metadata><defs
     id="defs6"><clipPath
       id="clipPath52"
       clipPathUnits="userSpaceOnUse"><path
         style="clip-rule:evenodd"
         id="path50"
         d="M 612.234,466.199 H 135.988 v -58.703 h 476.246 z" /></clipPath><clipPath
       id="clipPath110"
       clipPathUnits="userSpaceOnUse"><path
         style="clip-rule:evenodd"
         id="path108"
         d="M 610.781,175.199 H 1100.96 V 116.496 H 610.781 Z" /></clipPath><clipPath
       id="clipPath168"
       clipPathUnits="userSpaceOnUse"><path
         style="clip-rule:evenodd"
         id="path166"
         d="m 1577.81,463.195 h 479.33 v -58.703 h -479.33 z" /></clipPath><clipPath
       id="clipPath224"
       clipPathUnits="userSpaceOnUse"><path
         style="clip-rule:evenodd"
         id="path222"
         d="m 2054.12,172.168 h 519.56 v -58.703 h -519.56 z" /></clipPath></defs><g
     transform="matrix(1.3333333,0,0,-1.3333333,0,74.666667)"
     id="g10"><g
       transform="scale(0.1)"
       id="g12"><path
         id="path14"
         style="fill:none;stroke:#231f20;stroke-width:7.5005002;stroke-linecap:butt;stroke-linejoin:miter;stroke-miterlimit:2.61310005;stroke-dasharray:none;stroke-opacity:1"
         d="M 292.754,548.336 H 483.473" /><path
         id="path16"
         style="fill:none;stroke:#231f20;stroke-width:7.5005002;stroke-linecap:butt;stroke-linejoin:miter;stroke-miterlimit:2.61310005;stroke-dasharray:none;stroke-opacity:1"
         d="m 473.41,547.812 c 95.02,1.5 141.406,-46.187 139.149,-143.074" /><path
         id="path18"
         style="fill:#231f20;fill-opacity:1;fill-rule:nonzero;stroke:none"
         d="m 18.9102,454.066 16.1171,7.868 h 1.6172 v -55.918 c 0,-3.7 0.1485,-6.016 0.4493,-6.934 0.3203,-0.898 0.9687,-1.602 1.9335,-2.098 0.9844,-0.488 2.9688,-0.765 5.9688,-0.836 v -1.8 h -24.918 v 1.8 c 3.1328,0.071 5.1524,0.336 6.0664,0.817 0.9024,0.469 1.5352,1.101 1.8985,1.898 0.3515,0.805 0.5351,3.184 0.5351,7.153 v 35.75 c 0,4.816 -0.164,7.902 -0.4843,9.265 -0.2305,1.051 -0.6485,1.821 -1.25,2.301 -0.6016,0.484 -1.3126,0.734 -2.1641,0.734 -1.2031,0 -2.8828,-0.504 -5.0352,-1.515 l -0.7343,1.515" /><path
         id="path20"
         style="fill:#231f20;fill-opacity:1;fill-rule:nonzero;stroke:none"
         d="m 59.4453,461.73 v 2.051 c 4.9492,-2.433 9.0664,-5.316 12.3516,-8.648 4.6484,-4.75 8.2461,-10.317 10.7812,-16.715 2.5469,-6.402 3.8164,-13.07 3.8164,-20.004 0,-10.082 -2.4843,-19.281 -7.4492,-27.598 -4.9687,-8.316 -11.4648,-14.265 -19.5,-17.851 v 1.801 c 4,2.25 7.3008,5.281 9.8828,9.117 2.5821,3.816 4.5157,8.683 5.7657,14.597 1.25,5.903 1.8828,12.071 1.8828,18.469 0,6.934 -0.5508,13.266 -1.6133,19 -0.8164,4.5 -1.836,8.082 -3.0508,10.801 -1.2344,2.699 -2.8516,5.297 -4.8672,7.797 -2.0156,2.519 -4.6836,4.902 -8,7.183" /><path
         id="path22"
         style="fill:none;stroke:#231f20;stroke-width:7.5005002;stroke-linecap:butt;stroke-linejoin:miter;stroke-miterlimit:2.61310005;stroke-dasharray:none;stroke-opacity:1"
         d="M 144.949,402.141 H 1125.2" /><path
         id="path24"
         style="fill:#231f20;fill-opacity:1;fill-rule:evenodd;stroke:none"
         d="m 1121.04,428.488 47.9,-26.347 -47.9,-26.348 v 52.695" /><path
         id="path26"
         style="fill:#231f20;fill-opacity:1;fill-rule:evenodd;stroke:none"
         d="m 612.266,416.543 c 6.636,0 12.019,-5.383 12.019,-12.02 0,-6.636 -5.383,-12.019 -12.019,-12.019 -6.637,0 -12.02,5.383 -12.02,12.019 0,6.637 5.383,12.02 12.02,12.02" /><path
         id="path28"
         style="fill:none;stroke:#231f20;stroke-width:7.5005002;stroke-linecap:butt;stroke-linejoin:miter;stroke-miterlimit:2.61310005;stroke-dasharray:none;stroke-opacity:1"
         d="m 612.266,416.543 c 6.636,0 12.019,-5.383 12.019,-12.02 0,-6.636 -5.383,-12.019 -12.019,-12.019 -6.637,0 -12.02,5.383 -12.02,12.019 0,6.637 5.383,12.02 12.02,12.02 z" /><path
         id="path30"
         style="fill:#231f20;fill-opacity:1;fill-rule:nonzero;stroke:none"
         d="m 590.672,358.188 16.117,7.863 h 1.617 v -55.914 c 0,-3.703 0.149,-6.016 0.449,-6.934 0.321,-0.902 0.969,-1.601 1.934,-2.101 0.984,-0.485 2.969,-0.766 5.969,-0.832 v -1.801 H 591.84 v 1.801 c 3.133,0.066 5.152,0.335 6.066,0.816 0.903,0.469 1.535,1.102 1.899,1.898 0.351,0.805 0.535,3.184 0.535,7.153 v 35.75 c 0,4.816 -0.164,7.898 -0.485,9.265 -0.23,1.051 -0.648,1.817 -1.25,2.301 -0.597,0.485 -1.312,0.735 -2.164,0.735 -1.203,0 -2.882,-0.504 -5.035,-1.52 l -0.734,1.52" /><path
         id="path32"
         style="fill:#231f20;fill-opacity:1;fill-rule:nonzero;stroke:none"
         d="m 1135.79,363.359 c 1.6,-1.683 2.8,-3.382 3.62,-5.066 0.58,-1.184 1.55,-4.25 2.88,-9.234 l 4.3,6.453 c 1.14,1.547 2.52,3.05 4.15,4.465 1.62,1.418 3.05,2.382 4.28,2.898 0.79,0.336 1.66,0.484 2.6,0.484 1.4,0 2.5,-0.363 3.34,-1.117 0.83,-0.75 1.25,-1.664 1.25,-2.73 0,-1.235 -0.25,-2.086 -0.74,-2.535 -0.91,-0.817 -1.95,-1.235 -3.11,-1.235 -0.68,0 -1.42,0.153 -2.2,0.453 -1.54,0.516 -2.57,0.782 -3.09,0.782 -0.78,0 -1.69,-0.469 -2.78,-1.368 -2.01,-1.699 -4.41,-4.964 -7.22,-9.816 l 4,-16.801 c 0.62,-2.562 1.14,-4.113 1.57,-4.617 0.42,-0.496 0.84,-0.746 1.27,-0.746 0.68,0 1.48,0.363 2.38,1.117 1.8,1.496 3.32,3.449 4.6,5.863 l 1.7,-0.882 c -2.05,-3.848 -4.65,-7.032 -7.81,-9.567 -1.79,-1.433 -3.31,-2.152 -4.54,-2.152 -1.81,0 -3.26,1.019 -4.35,3.07 -0.68,1.266 -2.1,6.75 -4.25,16.418 -5.07,-8.836 -9.13,-14.504 -12.2,-17.051 -1.98,-1.617 -3.9,-2.437 -5.76,-2.437 -1.3,0 -2.49,0.469 -3.57,1.418 -0.77,0.719 -1.17,1.668 -1.17,2.883 0,1.07 0.37,1.968 1.09,2.683 0.7,0.719 1.58,1.067 2.63,1.067 1.03,0 2.15,-0.516 3.32,-1.563 0.84,-0.754 1.5,-1.117 1.95,-1.117 0.4,0 0.89,0.266 1.51,0.781 1.54,1.235 3.62,3.902 6.25,8 2.63,4.102 4.37,7.067 5.19,8.899 -2.04,7.902 -3.12,12.086 -3.29,12.535 -0.75,2.117 -1.71,3.617 -2.93,4.5 -1.2,0.883 -2.97,1.316 -5.32,1.316 -0.75,0 -1.61,-0.031 -2.58,-0.101 v 1.765 l 13.03,2.285" /><path
         id="path34"
         style="fill:#231f20;fill-opacity:1;fill-rule:nonzero;stroke:none"
         d="m 18.3477,135.266 c 1.8867,4.453 4.2695,7.902 7.1523,10.316 2.8828,2.434 6.4688,3.652 10.7656,3.652 5.3008,0 9.3672,-1.734 12.2032,-5.183 2.1484,-2.567 3.2343,-5.317 3.2343,-8.25 0,-4.817 -3.039,-9.801 -9.0859,-14.934 4.0664,-1.601 7.1328,-3.883 9.2187,-6.851 2.0821,-2.946 3.1329,-6.43 3.1329,-10.45 0,-5.7144 -1.8204,-10.6832 -5.4688,-14.8824 -4.75,-5.4648 -11.6328,-8.1992 -20.6523,-8.1992 -4.4649,0 -7.4961,0.5468 -9.1133,1.6523 -1.6016,1.1133 -2.418,2.2969 -2.418,3.5664 0,0.9492 0.3828,1.7813 1.1484,2.5 0.7696,0.7149 1.6836,1.0625 2.7657,1.0625 0.8047,0 1.6367,-0.1328 2.4883,-0.3789 0.5507,-0.1679 1.8007,-0.7695 3.7656,-1.7851 1.9492,-1.0352 3.3008,-1.6368 4.0508,-1.8321 1.1953,-0.3672 2.4804,-0.5351 3.8476,-0.5351 3.3164,0 6.2149,1.2812 8.668,3.8515 2.4648,2.5625 3.6836,5.6133 3.6836,9.1329 0,2.5622 -0.5664,5.0822 -1.7032,7.5152 -0.8476,1.817 -1.7812,3.2 -2.7812,4.149 -1.3984,1.301 -3.3164,2.484 -5.7656,3.535 -2.4336,1.066 -4.9336,1.602 -7.4688,1.602 h -1.5664 v 1.464 c 2.5664,0.317 5.1524,1.25 7.7344,2.782 2.6016,1.519 4.4844,3.367 5.6523,5.519 1.1641,2.149 1.7461,4.5 1.7461,7.067 0,3.367 -1.0468,6.066 -3.1484,8.132 -2.1016,2.067 -4.6992,3.098 -7.8359,3.098 -5.0469,0 -9.2461,-2.695 -12.6485,-8.098 l -1.6015,0.782" /><path
         id="path36"
         style="fill:#231f20;fill-opacity:1;fill-rule:nonzero;stroke:none"
         d="m 65.5156,149.031 v 2.055 c 4.9492,-2.438 9.0664,-5.32 12.3516,-8.652 4.6484,-4.75 8.25,-10.317 10.7851,-16.715 2.5469,-6.403 3.8125,-13.071 3.8125,-20.004 0,-10.0822 -2.4804,-19.2814 -7.4492,-27.5978 -4.9648,-8.3164 -11.4648,-14.2656 -19.5,-17.8516 v 1.8008 c 4,2.25 7.3008,5.2852 9.8828,9.1211 2.586,3.8125 4.5196,8.6797 5.7696,14.5977 1.25,5.8984 1.8828,12.0664 1.8828,18.4648 0,6.934 -0.5508,13.266 -1.6172,19 -0.8164,4.5 -1.8359,8.082 -3.0508,10.801 -1.2305,2.699 -2.8516,5.297 -4.8672,7.797 -2.0156,2.519 -4.6836,4.902 -8,7.183" /><path
         id="path38"
         style="fill:#231f20;fill-opacity:1;fill-rule:nonzero;stroke:none"
         d="m 1469.09,382.812 -4.64,-12.75 h -39.06 v 1.801 c 11.49,10.481 19.58,19.047 24.27,25.684 4.68,6.648 7.03,12.715 7.03,18.215 0,4.199 -1.28,7.648 -3.87,10.347 -2.56,2.703 -5.63,4.051 -9.21,4.051 -3.27,0 -6.18,-0.949 -8.77,-2.848 -2.58,-1.902 -4.5,-4.699 -5.73,-8.367 h -1.82 c 0.82,6.016 2.9,10.633 6.28,13.867 3.37,3.215 7.57,4.833 12.62,4.833 5.37,0 9.85,-1.731 13.45,-5.184 3.6,-3.449 5.4,-7.516 5.4,-12.199 0,-3.352 -0.78,-6.719 -2.35,-10.067 -2.4,-5.269 -6.31,-10.847 -11.72,-16.75 -8.1,-8.851 -13.17,-14.183 -15.18,-16.015 h 17.28 c 3.52,0 5.98,0.132 7.4,0.398 1.42,0.25 2.7,0.781 3.83,1.582 1.14,0.801 2.14,1.938 2.99,3.402 h 1.8" /><path
         id="path40"
         style="fill:#231f20;fill-opacity:1;fill-rule:nonzero;stroke:none"
         d="m 1475.49,437.441 v 2.055 c 4.95,-2.437 9.06,-5.32 12.35,-8.652 4.65,-4.75 8.25,-10.317 10.78,-16.715 2.55,-6.402 3.82,-13.067 3.82,-20 0,-10.086 -2.48,-19.285 -7.45,-27.598 -4.97,-8.316 -11.47,-14.269 -19.5,-17.855 v 1.801 c 4,2.25 7.3,5.285 9.88,9.121 2.59,3.812 4.52,8.679 5.77,14.597 1.25,5.903 1.88,12.067 1.88,18.465 0,6.934 -0.55,13.27 -1.61,19.004 -0.82,4.496 -1.84,8.078 -3.05,10.797 -1.24,2.699 -2.86,5.301 -4.87,7.801 -2.02,2.515 -4.69,4.898 -8,7.179" /><path
         id="path42"
         style="fill:#231f20;fill-opacity:1;fill-rule:nonzero;stroke:none"
         d="m 1475.84,99.9961 v -6.9336 h -8.88 V 75.5781 h -8.07 v 17.4844 h -28.01 v 6.25 l 30.71,43.8475 h 5.37 V 99.9961 Z m -16.95,0 v 32.8629 l -23.23,-32.8629 h 23.23" /><path
         id="path44"
         style="fill:#231f20;fill-opacity:1;fill-rule:nonzero;stroke:none"
         d="m 1481.56,142.961 v 2.051 c 4.95,-2.434 9.06,-5.317 12.35,-8.649 4.65,-4.754 8.25,-10.316 10.79,-16.718 2.54,-6.399 3.81,-13.067 3.81,-20.0005 0,-10.082 -2.48,-19.2851 -7.45,-27.5976 -4.97,-8.3164 -11.47,-14.2657 -19.5,-17.8516 v 1.8008 c 4,2.25 7.3,5.2812 9.88,9.1172 2.59,3.8164 4.52,8.6836 5.77,14.5976 1.25,5.9024 1.88,12.0664 1.88,18.4688 0,6.9333 -0.55,13.2653 -1.61,19.0003 -0.82,4.5 -1.84,8.082 -3.05,10.8 -1.23,2.7 -2.85,5.297 -4.87,7.797 -2.01,2.516 -4.68,4.903 -8,7.184" /><g
         id="g46"><g
           clip-path="url(#clipPath52)"
           id="g48"><path
             id="path54"
             style="fill:none;stroke:#231f20;stroke-width:3.5999999;stroke-linecap:butt;stroke-linejoin:miter;stroke-miterlimit:2.61310005;stroke-dasharray:none;stroke-opacity:1"
             d="M 54.8516,416.555 394.523,756.23" /><path
             id="path56"
             style="fill:none;stroke:#231f20;stroke-width:3.5999999;stroke-linecap:butt;stroke-linejoin:miter;stroke-miterlimit:2.61310005;stroke-dasharray:none;stroke-opacity:1"
             d="M 75.2148,396.191 414.891,735.863" /><path
             id="path58"
             style="fill:none;stroke:#231f20;stroke-width:3.5999999;stroke-linecap:butt;stroke-linejoin:miter;stroke-miterlimit:2.61310005;stroke-dasharray:none;stroke-opacity:1"
             d="M 95.5781,375.824 435.254,715.5" /><path
             id="path60"
             style="fill:none;stroke:#231f20;stroke-width:3.5999999;stroke-linecap:butt;stroke-linejoin:miter;stroke-miterlimit:2.61310005;stroke-dasharray:none;stroke-opacity:1"
             d="M 115.945,355.461 455.617,695.137" /><path
             id="path62"
             style="fill:none;stroke:#231f20;stroke-width:3.5999999;stroke-linecap:butt;stroke-linejoin:miter;stroke-miterlimit:2.61310005;stroke-dasharray:none;stroke-opacity:1"
             d="M 136.309,335.098 475.984,674.77" /><path
             id="path64"
             style="fill:none;stroke:#231f20;stroke-width:3.5999999;stroke-linecap:butt;stroke-linejoin:miter;stroke-miterlimit:2.61310005;stroke-dasharray:none;stroke-opacity:1"
             d="M 156.676,314.73 496.348,654.406" /><path
             id="path66"
             style="fill:none;stroke:#231f20;stroke-width:3.5999999;stroke-linecap:butt;stroke-linejoin:miter;stroke-miterlimit:2.61310005;stroke-dasharray:none;stroke-opacity:1"
             d="M 177.039,294.367 516.711,634.039" /><path
             id="path68"
             style="fill:none;stroke:#231f20;stroke-width:3.5999999;stroke-linecap:butt;stroke-linejoin:miter;stroke-miterlimit:2.61310005;stroke-dasharray:none;stroke-opacity:1"
             d="M 197.402,274.004 537.078,613.676" /><path
             id="path70"
             style="fill:none;stroke:#231f20;stroke-width:3.5999999;stroke-linecap:butt;stroke-linejoin:miter;stroke-miterlimit:2.61310005;stroke-dasharray:none;stroke-opacity:1"
             d="M 217.77,253.637 557.441,593.312" /><path
             id="path72"
             style="fill:none;stroke:#231f20;stroke-width:3.5999999;stroke-linecap:butt;stroke-linejoin:miter;stroke-miterlimit:2.61310005;stroke-dasharray:none;stroke-opacity:1"
             d="M 238.133,233.273 577.809,572.945" /><path
             id="path74"
             style="fill:none;stroke:#231f20;stroke-width:3.5999999;stroke-linecap:butt;stroke-linejoin:miter;stroke-miterlimit:2.61310005;stroke-dasharray:none;stroke-opacity:1"
             d="M 258.496,212.906 598.172,552.582" /><path
             id="path76"
             style="fill:none;stroke:#231f20;stroke-width:3.5999999;stroke-linecap:butt;stroke-linejoin:miter;stroke-miterlimit:2.61310005;stroke-dasharray:none;stroke-opacity:1"
             d="M 278.863,192.543 618.535,532.219" /><path
             id="path78"
             style="fill:none;stroke:#231f20;stroke-width:3.5999999;stroke-linecap:butt;stroke-linejoin:miter;stroke-miterlimit:2.61310005;stroke-dasharray:none;stroke-opacity:1"
             d="M 299.227,172.18 638.902,511.852" /><path
             id="path80"
             style="fill:none;stroke:#231f20;stroke-width:3.5999999;stroke-linecap:butt;stroke-linejoin:miter;stroke-miterlimit:2.61310005;stroke-dasharray:none;stroke-opacity:1"
             d="M 319.59,151.812 659.266,491.488" /><path
             id="path82"
             style="fill:none;stroke:#231f20;stroke-width:3.5999999;stroke-linecap:butt;stroke-linejoin:miter;stroke-miterlimit:2.61310005;stroke-dasharray:none;stroke-opacity:1"
             d="M 339.957,131.449 679.629,471.125" /><path
             id="path84"
             style="fill:none;stroke:#231f20;stroke-width:3.5999999;stroke-linecap:butt;stroke-linejoin:miter;stroke-miterlimit:2.61310005;stroke-dasharray:none;stroke-opacity:1"
             d="M 360.32,111.086 699.996,450.758" /><path
             id="path86"
             style="fill:none;stroke:#231f20;stroke-width:3.5999999;stroke-linecap:butt;stroke-linejoin:miter;stroke-miterlimit:2.61310005;stroke-dasharray:none;stroke-opacity:1"
             d="M 380.684,90.7188 720.359,430.395" /></g></g><path
         id="path88"
         style="fill:none;stroke:#231f20;stroke-width:7.5005002;stroke-linecap:butt;stroke-linejoin:miter;stroke-miterlimit:2.61310005;stroke-dasharray:none;stroke-opacity:1"
         d="M 144.949,114.141 H 1125.2" /><path
         id="path90"
         style="fill:#231f20;fill-opacity:1;fill-rule:evenodd;stroke:none"
         d="m 1121.04,140.488 47.9,-26.347 -47.9,-26.348 v 52.695" /><path
         id="path92"
         style="fill:#231f20;fill-opacity:1;fill-rule:evenodd;stroke:none"
         d="m 612.266,128.543 c 6.636,0 12.019,-5.383 12.019,-12.02 0,-6.636 -5.383,-12.019 -12.019,-12.019 -6.637,0 -12.02,5.383 -12.02,12.019 0,6.637 5.383,12.02 12.02,12.02" /><path
         id="path94"
         style="fill:none;stroke:#231f20;stroke-width:7.5005002;stroke-linecap:butt;stroke-linejoin:miter;stroke-miterlimit:2.61310005;stroke-dasharray:none;stroke-opacity:1"
         d="m 612.266,128.543 c 6.636,0 12.019,-5.383 12.019,-12.02 0,-6.636 -5.383,-12.019 -12.019,-12.019 -6.637,0 -12.02,5.383 -12.02,12.019 0,6.637 5.383,12.02 12.02,12.02 z" /><path
         id="path96"
         style="fill:#231f20;fill-opacity:1;fill-rule:nonzero;stroke:none"
         d="m 590.672,70.1875 16.117,7.8633 h 1.617 V 22.1367 c 0,-3.7031 0.149,-6.0156 0.449,-6.9336 0.321,-0.9023 0.969,-1.6015 1.934,-2.1015 0.984,-0.4844 2.969,-0.7618 5.969,-0.8321 V 10.4688 H 591.84 v 1.8007 c 3.133,0.0703 5.152,0.336 6.066,0.8164 0.903,0.4688 1.535,1.1016 1.899,1.8985 0.351,0.8047 0.535,3.1836 0.535,7.1523 v 35.75 c 0,4.8164 -0.164,7.9024 -0.485,9.2656 -0.23,1.0508 -0.648,1.8165 -1.25,2.3008 -0.597,0.4844 -1.312,0.7344 -2.164,0.7344 -1.203,0 -2.882,-0.5039 -5.035,-1.5156 l -0.734,1.5156" /><path
         id="path98"
         style="fill:#231f20;fill-opacity:1;fill-rule:nonzero;stroke:none"
         d="m 1135.79,75.3594 c 1.6,-1.6836 2.8,-3.3828 3.62,-5.0664 0.58,-1.1836 1.55,-4.25 2.88,-9.2344 l 4.3,6.4531 c 1.14,1.5469 2.52,3.0508 4.15,4.4649 1.62,1.4179 3.05,2.3828 4.28,2.8984 0.79,0.3359 1.66,0.4844 2.6,0.4844 1.4,0 2.5,-0.3633 3.34,-1.1172 0.83,-0.75 1.25,-1.6641 1.25,-2.7305 0,-1.2344 -0.25,-2.0859 -0.74,-2.5351 -0.91,-0.8164 -1.95,-1.2344 -3.11,-1.2344 -0.68,0 -1.42,0.1523 -2.2,0.4531 -1.54,0.5156 -2.57,0.7813 -3.09,0.7813 -0.78,0 -1.69,-0.4688 -2.78,-1.3672 -2.01,-1.6992 -4.41,-4.9649 -7.22,-9.8164 l 4,-16.8008 c 0.62,-2.5625 1.14,-4.1133 1.57,-4.6172 0.42,-0.4961 0.84,-0.7461 1.27,-0.7461 0.68,0 1.48,0.3633 2.38,1.1172 1.8,1.4961 3.32,3.4492 4.6,5.8633 l 1.7,-0.8828 c -2.05,-3.8477 -4.65,-7.0313 -7.81,-9.5664 -1.79,-1.4336 -3.31,-2.1524 -4.54,-2.1524 -1.81,0 -3.26,1.0195 -4.35,3.0703 -0.68,1.2657 -2.1,6.75 -4.25,16.418 -5.07,-8.8359 -9.13,-14.5039 -12.2,-17.0508 -1.98,-1.6172 -3.9,-2.4375 -5.76,-2.4375 -1.3,0 -2.49,0.4688 -3.57,1.418 -0.77,0.7187 -1.17,1.668 -1.17,2.8828 0,1.0703 0.37,1.9687 1.09,2.6836 0.7,0.7187 1.58,1.0664 2.63,1.0664 1.03,0 2.15,-0.5156 3.32,-1.5625 0.84,-0.7539 1.5,-1.1172 1.95,-1.1172 0.4,0 0.89,0.2656 1.51,0.7813 1.54,1.2343 3.62,3.9023 6.25,8 2.63,4.1015 4.37,7.0664 5.19,8.8984 -2.04,7.9023 -3.12,12.0859 -3.29,12.5352 -0.75,2.1171 -1.71,3.6171 -2.93,4.5 -1.2,0.8828 -2.97,1.3164 -5.32,1.3164 -0.75,0 -1.61,-0.0313 -2.58,-0.1016 v 1.7656 l 13.03,2.2852" /><path
         id="path100"
         style="fill:none;stroke:#231f20;stroke-width:7.5005002;stroke-linecap:butt;stroke-linejoin:miter;stroke-miterlimit:2.61310005;stroke-dasharray:none;stroke-opacity:1"
         d="M 1143.11,255.82 H 742.258" /><path
         id="path102"
         style="fill:none;stroke:#231f20;stroke-width:7.5005002;stroke-linecap:butt;stroke-linejoin:miter;stroke-miterlimit:2.61310005;stroke-dasharray:none;stroke-opacity:1"
         d="m 752.32,255.297 c -95.019,1.5 -141.406,-46.188 -139.148,-143.074" /><g
         id="g104"><g
           clip-path="url(#clipPath110)"
           id="g106"><path
             id="path112"
             style="fill:none;stroke:#231f20;stroke-width:3.5999999;stroke-linecap:butt;stroke-linejoin:miter;stroke-miterlimit:2.61310005;stroke-dasharray:none;stroke-opacity:1"
             d="M 526.426,125.676 876.203,475.453" /><path
             id="path114"
             style="fill:none;stroke:#231f20;stroke-width:3.5999999;stroke-linecap:butt;stroke-linejoin:miter;stroke-miterlimit:2.61310005;stroke-dasharray:none;stroke-opacity:1"
             d="M 546.789,105.309 896.57,455.09" /><path
             id="path116"
             style="fill:none;stroke:#231f20;stroke-width:3.5999999;stroke-linecap:butt;stroke-linejoin:miter;stroke-miterlimit:2.61310005;stroke-dasharray:none;stroke-opacity:1"
             d="M 567.156,84.9453 916.934,434.727" /><path
             id="path118"
             style="fill:none;stroke:#231f20;stroke-width:3.5999999;stroke-linecap:butt;stroke-linejoin:miter;stroke-miterlimit:2.61310005;stroke-dasharray:none;stroke-opacity:1"
             d="M 587.52,64.582 937.297,414.359" /><path
             id="path120"
             style="fill:none;stroke:#231f20;stroke-width:3.5999999;stroke-linecap:butt;stroke-linejoin:miter;stroke-miterlimit:2.61310005;stroke-dasharray:none;stroke-opacity:1"
             d="M 607.883,44.2148 957.664,393.996" /><path
             id="path122"
             style="fill:none;stroke:#231f20;stroke-width:3.5999999;stroke-linecap:butt;stroke-linejoin:miter;stroke-miterlimit:2.61310005;stroke-dasharray:none;stroke-opacity:1"
             d="M 628.25,23.8516 978.027,373.633" /><path
             id="path124"
             style="fill:none;stroke:#231f20;stroke-width:3.5999999;stroke-linecap:butt;stroke-linejoin:miter;stroke-miterlimit:2.61310005;stroke-dasharray:none;stroke-opacity:1"
             d="M 648.613,3.48828 998.395,353.266" /><path
             id="path126"
             style="fill:none;stroke:#231f20;stroke-width:3.5999999;stroke-linecap:butt;stroke-linejoin:miter;stroke-miterlimit:2.61310005;stroke-dasharray:none;stroke-opacity:1"
             d="M 668.977,-16.8789 1018.76,332.902" /><path
             id="path128"
             style="fill:none;stroke:#231f20;stroke-width:3.5999999;stroke-linecap:butt;stroke-linejoin:miter;stroke-miterlimit:2.61310005;stroke-dasharray:none;stroke-opacity:1"
             d="M 689.344,-37.2422 1039.12,312.539" /><path
             id="path130"
             style="fill:none;stroke:#231f20;stroke-width:3.5999999;stroke-linecap:butt;stroke-linejoin:miter;stroke-miterlimit:2.61310005;stroke-dasharray:none;stroke-opacity:1"
             d="M 709.707,-57.6055 1059.49,292.172" /><path
             id="path132"
             style="fill:none;stroke:#231f20;stroke-width:3.5999999;stroke-linecap:butt;stroke-linejoin:miter;stroke-miterlimit:2.61310005;stroke-dasharray:none;stroke-opacity:1"
             d="M 730.07,-77.9727 1079.85,271.809" /><path
             id="path134"
             style="fill:none;stroke:#231f20;stroke-width:3.5999999;stroke-linecap:butt;stroke-linejoin:miter;stroke-miterlimit:2.61310005;stroke-dasharray:none;stroke-opacity:1"
             d="M 750.438,-98.3359 1100.21,251.441" /><path
             id="path136"
             style="fill:none;stroke:#231f20;stroke-width:3.5999999;stroke-linecap:butt;stroke-linejoin:miter;stroke-miterlimit:2.61310005;stroke-dasharray:none;stroke-opacity:1"
             d="M 770.801,-118.699 1120.58,231.078" /><path
             id="path138"
             style="fill:none;stroke:#231f20;stroke-width:3.5999999;stroke-linecap:butt;stroke-linejoin:miter;stroke-miterlimit:2.61310005;stroke-dasharray:none;stroke-opacity:1"
             d="M 791.164,-139.066 1140.95,210.715" /><path
             id="path140"
             style="fill:none;stroke:#231f20;stroke-width:3.5999999;stroke-linecap:butt;stroke-linejoin:miter;stroke-miterlimit:2.61310005;stroke-dasharray:none;stroke-opacity:1"
             d="M 811.531,-159.43 1161.31,190.348" /><path
             id="path142"
             style="fill:none;stroke:#231f20;stroke-width:3.5999999;stroke-linecap:butt;stroke-linejoin:miter;stroke-miterlimit:2.61310005;stroke-dasharray:none;stroke-opacity:1"
             d="M 831.895,-179.797 1181.68,169.984" /><path
             id="path144"
             style="fill:none;stroke:#231f20;stroke-width:3.5999999;stroke-linecap:butt;stroke-linejoin:miter;stroke-miterlimit:2.61310005;stroke-dasharray:none;stroke-opacity:1"
             d="M 852.262,-200.16 1202.04,149.621" /><path
             id="path146"
             style="fill:none;stroke:#231f20;stroke-width:3.5999999;stroke-linecap:butt;stroke-linejoin:miter;stroke-miterlimit:2.61310005;stroke-dasharray:none;stroke-opacity:1"
             d="M 872.625,-220.523 1222.4,129.254" /></g></g><path
         id="path148"
         style="fill:none;stroke:#231f20;stroke-width:7.5005002;stroke-linecap:butt;stroke-linejoin:miter;stroke-miterlimit:2.61310005;stroke-dasharray:none;stroke-opacity:1"
         d="M 1584.95,402.141 H 2565.2" /><path
         id="path150"
         style="fill:#231f20;fill-opacity:1;fill-rule:evenodd;stroke:none"
         d="m 2561.04,428.488 47.9,-26.347 -47.9,-26.348 v 52.695" /><path
         id="path152"
         style="fill:#ffffff;fill-opacity:1;fill-rule:evenodd;stroke:none"
         d="m 2052.27,416.543 c 6.63,0 12.02,-5.383 12.02,-12.02 0,-6.636 -5.39,-12.019 -12.02,-12.019 -6.64,0 -12.02,5.383 -12.02,12.019 0,6.637 5.38,12.02 12.02,12.02" /><path
         id="path154"
         style="fill:none;stroke:#231f20;stroke-width:7.5005002;stroke-linecap:butt;stroke-linejoin:miter;stroke-miterlimit:2.61310005;stroke-dasharray:none;stroke-opacity:1"
         d="m 2052.27,416.543 c 6.63,0 12.02,-5.383 12.02,-12.02 0,-6.636 -5.39,-12.019 -12.02,-12.019 -6.64,0 -12.02,5.383 -12.02,12.019 0,6.637 5.38,12.02 12.02,12.02 z" /><path
         id="path156"
         style="fill:#231f20;fill-opacity:1;fill-rule:nonzero;stroke:none"
         d="m 2575.79,363.359 c 1.6,-1.683 2.8,-3.382 3.62,-5.066 0.58,-1.184 1.55,-4.25 2.88,-9.234 l 4.3,6.453 c 1.14,1.547 2.52,3.05 4.15,4.465 1.62,1.418 3.05,2.382 4.28,2.898 0.79,0.336 1.66,0.484 2.6,0.484 1.4,0 2.5,-0.363 3.34,-1.117 0.83,-0.75 1.25,-1.664 1.25,-2.73 0,-1.235 -0.25,-2.086 -0.74,-2.535 -0.91,-0.817 -1.95,-1.235 -3.11,-1.235 -0.68,0 -1.42,0.153 -2.2,0.453 -1.54,0.516 -2.57,0.782 -3.09,0.782 -0.78,0 -1.69,-0.469 -2.78,-1.368 -2.01,-1.699 -4.41,-4.964 -7.22,-9.816 l 4,-16.801 c 0.62,-2.562 1.14,-4.113 1.57,-4.617 0.42,-0.496 0.84,-0.746 1.27,-0.746 0.68,0 1.48,0.363 2.38,1.117 1.8,1.496 3.32,3.449 4.6,5.863 l 1.7,-0.882 c -2.05,-3.848 -4.65,-7.032 -7.81,-9.567 -1.79,-1.433 -3.31,-2.152 -4.54,-2.152 -1.81,0 -3.26,1.019 -4.35,3.07 -0.68,1.266 -2.1,6.75 -4.25,16.418 -5.07,-8.836 -9.13,-14.504 -12.2,-17.051 -1.98,-1.617 -3.9,-2.437 -5.76,-2.437 -1.3,0 -2.49,0.469 -3.57,1.418 -0.77,0.719 -1.17,1.668 -1.17,2.883 0,1.07 0.37,1.968 1.09,2.683 0.7,0.719 1.58,1.067 2.63,1.067 1.03,0 2.15,-0.516 3.32,-1.563 0.84,-0.754 1.5,-1.117 1.95,-1.117 0.4,0 0.89,0.266 1.51,0.781 1.54,1.235 3.62,3.902 6.25,8 2.63,4.102 4.37,7.067 5.19,8.899 -2.04,7.902 -3.12,12.086 -3.29,12.535 -0.75,2.117 -1.71,3.617 -2.93,4.5 -1.2,0.883 -2.97,1.316 -5.32,1.316 -0.75,0 -1.61,-0.031 -2.58,-0.101 v 1.765 l 13.03,2.285" /><path
         id="path158"
         style="fill:none;stroke:#231f20;stroke-width:7.5005002;stroke-linecap:butt;stroke-linejoin:miter;stroke-miterlimit:2.61310005;stroke-dasharray:none;stroke-opacity:1"
         d="m 1572.01,554.348 h 353.85" /><path
         id="path160"
         style="fill:none;stroke:#231f20;stroke-width:7.5005002;stroke-linecap:butt;stroke-linejoin:miter;stroke-miterlimit:2.61310005;stroke-dasharray:none;stroke-opacity:1"
         d="m 1915.79,553.832 c 95.02,1.504 141.41,-46.187 139.15,-143.074" /><g
         id="g162"><g
           clip-path="url(#clipPath168)"
           id="g164"><path
             id="path170"
             style="fill:none;stroke:#231f20;stroke-width:3.5999999;stroke-linecap:butt;stroke-linejoin:miter;stroke-miterlimit:2.61310005;stroke-dasharray:none;stroke-opacity:1"
             d="m 1495.62,413.316 342.15,342.137" /><path
             id="path172"
             style="fill:none;stroke:#231f20;stroke-width:3.5999999;stroke-linecap:butt;stroke-linejoin:miter;stroke-miterlimit:2.61310005;stroke-dasharray:none;stroke-opacity:1"
             d="m 1515.99,392.949 342.14,342.137" /><path
             id="path174"
             style="fill:none;stroke:#231f20;stroke-width:3.5999999;stroke-linecap:butt;stroke-linejoin:miter;stroke-miterlimit:2.61310005;stroke-dasharray:none;stroke-opacity:1"
             d="m 1536.36,372.586 342.13,342.137" /><path
             id="path176"
             style="fill:none;stroke:#231f20;stroke-width:3.5999999;stroke-linecap:butt;stroke-linejoin:miter;stroke-miterlimit:2.61310005;stroke-dasharray:none;stroke-opacity:1"
             d="m 1556.72,352.223 342.14,342.136" /><path
             id="path178"
             style="fill:none;stroke:#231f20;stroke-width:3.5999999;stroke-linecap:butt;stroke-linejoin:miter;stroke-miterlimit:2.61310005;stroke-dasharray:none;stroke-opacity:1"
             d="m 1577.09,331.855 342.13,342.137" /><path
             id="path180"
             style="fill:none;stroke:#231f20;stroke-width:3.5999999;stroke-linecap:butt;stroke-linejoin:miter;stroke-miterlimit:2.61310005;stroke-dasharray:none;stroke-opacity:1"
             d="m 1597.45,311.492 342.14,342.137" /><path
             id="path182"
             style="fill:none;stroke:#231f20;stroke-width:3.5999999;stroke-linecap:butt;stroke-linejoin:miter;stroke-miterlimit:2.61310005;stroke-dasharray:none;stroke-opacity:1"
             d="m 1617.82,291.125 342.13,342.141" /><path
             id="path184"
             style="fill:none;stroke:#231f20;stroke-width:3.5999999;stroke-linecap:butt;stroke-linejoin:miter;stroke-miterlimit:2.61310005;stroke-dasharray:none;stroke-opacity:1"
             d="m 1638.18,270.762 342.14,342.136" /><path
             id="path186"
             style="fill:none;stroke:#231f20;stroke-width:3.5999999;stroke-linecap:butt;stroke-linejoin:miter;stroke-miterlimit:2.61310005;stroke-dasharray:none;stroke-opacity:1"
             d="m 1658.54,250.398 342.14,342.137" /><path
             id="path188"
             style="fill:none;stroke:#231f20;stroke-width:3.5999999;stroke-linecap:butt;stroke-linejoin:miter;stroke-miterlimit:2.61310005;stroke-dasharray:none;stroke-opacity:1"
             d="m 1678.91,230.031 342.14,342.141" /><path
             id="path190"
             style="fill:none;stroke:#231f20;stroke-width:3.5999999;stroke-linecap:butt;stroke-linejoin:miter;stroke-miterlimit:2.61310005;stroke-dasharray:none;stroke-opacity:1"
             d="m 1699.27,209.668 342.14,342.137" /><path
             id="path192"
             style="fill:none;stroke:#231f20;stroke-width:3.5999999;stroke-linecap:butt;stroke-linejoin:miter;stroke-miterlimit:2.61310005;stroke-dasharray:none;stroke-opacity:1"
             d="m 1719.64,189.305 342.14,342.136" /><path
             id="path194"
             style="fill:none;stroke:#231f20;stroke-width:3.5999999;stroke-linecap:butt;stroke-linejoin:miter;stroke-miterlimit:2.61310005;stroke-dasharray:none;stroke-opacity:1"
             d="m 1740,168.938 342.14,342.14" /><path
             id="path196"
             style="fill:none;stroke:#231f20;stroke-width:3.5999999;stroke-linecap:butt;stroke-linejoin:miter;stroke-miterlimit:2.61310005;stroke-dasharray:none;stroke-opacity:1"
             d="M 1760.37,148.574 2102.5,490.711" /><path
             id="path198"
             style="fill:none;stroke:#231f20;stroke-width:3.5999999;stroke-linecap:butt;stroke-linejoin:miter;stroke-miterlimit:2.61310005;stroke-dasharray:none;stroke-opacity:1"
             d="m 1780.73,128.211 342.14,342.137" /><path
             id="path200"
             style="fill:none;stroke:#231f20;stroke-width:3.5999999;stroke-linecap:butt;stroke-linejoin:miter;stroke-miterlimit:2.61310005;stroke-dasharray:none;stroke-opacity:1"
             d="M 1801.1,107.844 2143.23,449.98" /><path
             id="path202"
             style="fill:none;stroke:#231f20;stroke-width:3.5999999;stroke-linecap:butt;stroke-linejoin:miter;stroke-miterlimit:2.61310005;stroke-dasharray:none;stroke-opacity:1"
             d="M 1821.46,87.4805 2163.6,429.617" /></g></g><path
         id="path204"
         style="fill:none;stroke:#231f20;stroke-width:7.5005002;stroke-linecap:butt;stroke-linejoin:miter;stroke-miterlimit:2.61310005;stroke-dasharray:none;stroke-opacity:1"
         d="M 1584.95,114.141 H 2565.2" /><path
         id="path206"
         style="fill:#231f20;fill-opacity:1;fill-rule:evenodd;stroke:none"
         d="m 2561.04,140.488 47.9,-26.347 -47.9,-26.348 v 52.695" /><path
         id="path208"
         style="fill:#231f20;fill-opacity:1;fill-rule:evenodd;stroke:none"
         d="m 2052.27,128.543 c 6.63,0 12.02,-5.383 12.02,-12.02 0,-6.636 -5.39,-12.019 -12.02,-12.019 -6.64,0 -12.02,5.383 -12.02,12.019 0,6.637 5.38,12.02 12.02,12.02" /><path
         id="path210"
         style="fill:none;stroke:#231f20;stroke-width:7.5005002;stroke-linecap:butt;stroke-linejoin:miter;stroke-miterlimit:2.61310005;stroke-dasharray:none;stroke-opacity:1"
         d="m 2052.27,128.543 c 6.63,0 12.02,-5.383 12.02,-12.02 0,-6.636 -5.39,-12.019 -12.02,-12.019 -6.64,0 -12.02,5.383 -12.02,12.019 0,6.637 5.38,12.02 12.02,12.02 z" /><path
         id="path212"
         style="fill:#231f20;fill-opacity:1;fill-rule:nonzero;stroke:none"
         d="m 2575.79,75.3594 c 1.6,-1.6836 2.8,-3.3828 3.62,-5.0664 0.58,-1.1836 1.55,-4.25 2.88,-9.2344 l 4.3,6.4531 c 1.14,1.5469 2.52,3.0508 4.15,4.4649 1.62,1.4179 3.05,2.3828 4.28,2.8984 0.79,0.3359 1.66,0.4844 2.6,0.4844 1.4,0 2.5,-0.3633 3.34,-1.1172 0.83,-0.75 1.25,-1.6641 1.25,-2.7305 0,-1.2344 -0.25,-2.0859 -0.74,-2.5351 -0.91,-0.8164 -1.95,-1.2344 -3.11,-1.2344 -0.68,0 -1.42,0.1523 -2.2,0.4531 -1.54,0.5156 -2.57,0.7813 -3.09,0.7813 -0.78,0 -1.69,-0.4688 -2.78,-1.3672 -2.01,-1.6992 -4.41,-4.9649 -7.22,-9.8164 l 4,-16.8008 c 0.62,-2.5625 1.14,-4.1133 1.57,-4.6172 0.42,-0.4961 0.84,-0.7461 1.27,-0.7461 0.68,0 1.48,0.3633 2.38,1.1172 1.8,1.4961 3.32,3.4492 4.6,5.8633 l 1.7,-0.8828 c -2.05,-3.8477 -4.65,-7.0313 -7.81,-9.5664 -1.79,-1.4336 -3.31,-2.1524 -4.54,-2.1524 -1.81,0 -3.26,1.0195 -4.35,3.0703 -0.68,1.2657 -2.1,6.75 -4.25,16.418 -5.07,-8.8359 -9.13,-14.5039 -12.2,-17.0508 -1.98,-1.6172 -3.9,-2.4375 -5.76,-2.4375 -1.3,0 -2.49,0.4688 -3.57,1.418 -0.77,0.7187 -1.17,1.668 -1.17,2.8828 0,1.0703 0.37,1.9687 1.09,2.6836 0.7,0.7187 1.58,1.0664 2.63,1.0664 1.03,0 2.15,-0.5156 3.32,-1.5625 0.84,-0.7539 1.5,-1.1172 1.95,-1.1172 0.4,0 0.89,0.2656 1.51,0.7813 1.54,1.2343 3.62,3.9023 6.25,8 2.63,4.1015 4.37,7.0664 5.19,8.8984 -2.04,7.9023 -3.12,12.0859 -3.29,12.5352 -0.75,2.1171 -1.71,3.6171 -2.93,4.5 -1.2,0.8828 -2.97,1.3164 -5.32,1.3164 -0.75,0 -1.61,-0.0313 -2.58,-0.1016 v 1.7656 l 13.03,2.2852" /><path
         id="path214"
         style="fill:none;stroke:#231f20;stroke-width:7.5005002;stroke-linecap:butt;stroke-linejoin:miter;stroke-miterlimit:2.61310005;stroke-dasharray:none;stroke-opacity:1"
         d="M 2597.9,261.82 H 2174.65" /><path
         id="path216"
         style="fill:none;stroke:#231f20;stroke-width:7.5005002;stroke-linecap:butt;stroke-linejoin:miter;stroke-miterlimit:2.61310005;stroke-dasharray:none;stroke-opacity:1"
         d="m 2189.07,261.293 c -95.02,1.504 -141.41,-46.188 -139.15,-143.07" /><g
         id="g218"><g
           clip-path="url(#clipPath224)"
           id="g220"><path
             id="path226"
             style="fill:none;stroke:#231f20;stroke-width:3.5999999;stroke-linecap:butt;stroke-linejoin:miter;stroke-miterlimit:2.61310005;stroke-dasharray:none;stroke-opacity:1"
             d="M 1964.26,122.434 2334.2,492.379" /><path
             id="path228"
             style="fill:none;stroke:#231f20;stroke-width:3.5999999;stroke-linecap:butt;stroke-linejoin:miter;stroke-miterlimit:2.61310005;stroke-dasharray:none;stroke-opacity:1"
             d="m 1984.62,102.07 369.95,369.946" /><path
             id="path230"
             style="fill:none;stroke:#231f20;stroke-width:3.5999999;stroke-linecap:butt;stroke-linejoin:miter;stroke-miterlimit:2.61310005;stroke-dasharray:none;stroke-opacity:1"
             d="m 2004.99,81.707 369.94,369.945" /><path
             id="path232"
             style="fill:none;stroke:#231f20;stroke-width:3.5999999;stroke-linecap:butt;stroke-linejoin:miter;stroke-miterlimit:2.61310005;stroke-dasharray:none;stroke-opacity:1"
             d="M 2025.35,61.3398 2395.3,431.285" /><path
             id="path234"
             style="fill:none;stroke:#231f20;stroke-width:3.5999999;stroke-linecap:butt;stroke-linejoin:miter;stroke-miterlimit:2.61310005;stroke-dasharray:none;stroke-opacity:1"
             d="M 2045.72,40.9766 2415.66,410.922" /><path
             id="path236"
             style="fill:none;stroke:#231f20;stroke-width:3.5999999;stroke-linecap:butt;stroke-linejoin:miter;stroke-miterlimit:2.61310005;stroke-dasharray:none;stroke-opacity:1"
             d="M 2066.08,20.6133 2436.03,390.559" /><path
             id="path238"
             style="fill:none;stroke:#231f20;stroke-width:3.5999999;stroke-linecap:butt;stroke-linejoin:miter;stroke-miterlimit:2.61310005;stroke-dasharray:none;stroke-opacity:1"
             d="M 2086.45,0.246094 2456.39,370.191" /><path
             id="path240"
             style="fill:none;stroke:#231f20;stroke-width:3.5999999;stroke-linecap:butt;stroke-linejoin:miter;stroke-miterlimit:2.61310005;stroke-dasharray:none;stroke-opacity:1"
             d="M 2106.81,-20.1172 2476.76,349.828" /><path
             id="path242"
             style="fill:none;stroke:#231f20;stroke-width:3.5999999;stroke-linecap:butt;stroke-linejoin:miter;stroke-miterlimit:2.61310005;stroke-dasharray:none;stroke-opacity:1"
             d="M 2127.18,-40.4805 2497.12,329.465" /><path
             id="path244"
             style="fill:none;stroke:#231f20;stroke-width:3.5999999;stroke-linecap:butt;stroke-linejoin:miter;stroke-miterlimit:2.61310005;stroke-dasharray:none;stroke-opacity:1"
             d="M 2147.54,-60.8477 2517.49,309.098" /><path
             id="path246"
             style="fill:none;stroke:#231f20;stroke-width:3.5999999;stroke-linecap:butt;stroke-linejoin:miter;stroke-miterlimit:2.61310005;stroke-dasharray:none;stroke-opacity:1"
             d="M 2167.91,-81.2109 2537.85,288.734" /><path
             id="path248"
             style="fill:none;stroke:#231f20;stroke-width:3.5999999;stroke-linecap:butt;stroke-linejoin:miter;stroke-miterlimit:2.61310005;stroke-dasharray:none;stroke-opacity:1"
             d="m 2188.27,-101.578 369.94,369.949" /><path
             id="path250"
             style="fill:none;stroke:#231f20;stroke-width:3.5999999;stroke-linecap:butt;stroke-linejoin:miter;stroke-miterlimit:2.61310005;stroke-dasharray:none;stroke-opacity:1"
             d="m 2208.64,-121.941 369.94,369.945" /><path
             id="path252"
             style="fill:none;stroke:#231f20;stroke-width:3.5999999;stroke-linecap:butt;stroke-linejoin:miter;stroke-miterlimit:2.61310005;stroke-dasharray:none;stroke-opacity:1"
             d="m 2229,-142.305 369.95,369.946" /><path
             id="path254"
             style="fill:none;stroke:#231f20;stroke-width:3.5999999;stroke-linecap:butt;stroke-linejoin:miter;stroke-miterlimit:2.61310005;stroke-dasharray:none;stroke-opacity:1"
             d="m 2249.36,-162.672 369.95,369.945" /><path
             id="path256"
             style="fill:none;stroke:#231f20;stroke-width:3.5999999;stroke-linecap:butt;stroke-linejoin:miter;stroke-miterlimit:2.61310005;stroke-dasharray:none;stroke-opacity:1"
             d="M 2269.73,-183.035 2639.68,186.91" /><path
             id="path258"
             style="fill:none;stroke:#231f20;stroke-width:3.5999999;stroke-linecap:butt;stroke-linejoin:miter;stroke-miterlimit:2.61310005;stroke-dasharray:none;stroke-opacity:1"
             d="m 2290.09,-203.398 369.95,369.945" /><path
             id="path260"
             style="fill:none;stroke:#231f20;stroke-width:3.5999999;stroke-linecap:butt;stroke-linejoin:miter;stroke-miterlimit:2.61310005;stroke-dasharray:none;stroke-opacity:1"
             d="M 2310.46,-223.766 2680.4,146.18" /><path
             id="path262"
             style="fill:none;stroke:#231f20;stroke-width:3.5999999;stroke-linecap:butt;stroke-linejoin:miter;stroke-miterlimit:2.61310005;stroke-dasharray:none;stroke-opacity:1"
             d="m 2330.82,-244.129 369.95,369.945" /></g></g><path
         id="path264"
         style="fill:#231f20;fill-opacity:1;fill-rule:nonzero;stroke:none"
         d="m 2040.04,358.188 16.11,7.863 h 1.62 v -55.914 c 0,-3.703 0.15,-6.016 0.45,-6.934 0.32,-0.902 0.97,-1.601 1.93,-2.101 0.99,-0.485 2.97,-0.766 5.97,-0.832 v -1.801 h -24.92 v 1.801 c 3.14,0.066 5.16,0.335 6.07,0.816 0.9,0.469 1.53,1.102 1.9,1.898 0.35,0.805 0.53,3.184 0.53,7.153 v 35.75 c 0,4.816 -0.16,7.898 -0.48,9.265 -0.23,1.051 -0.65,1.817 -1.25,2.301 -0.6,0.485 -1.31,0.735 -2.17,0.735 -1.2,0 -2.88,-0.504 -5.03,-1.52 l -0.73,1.52" /><path
         id="path266"
         style="fill:#231f20;fill-opacity:1;fill-rule:nonzero;stroke:none"
         d="m 2034.01,65.9023 16.11,7.8672 h 1.62 v -55.914 c 0,-3.7032 0.15,-6.0196 0.45,-6.9336 0.32,-0.9024 0.97,-1.60159 1.93,-2.10159 0.99,-0.48437 2.97,-0.76562 5.97,-0.83203 V 6.1875 h -24.91 v 1.80078 c 3.13,0.06641 5.15,0.33203 6.06,0.81641 0.9,0.46484 1.54,1.09765 1.9,1.89841 0.35,0.8008 0.54,3.1836 0.54,7.1524 v 35.75 c 0,4.8164 -0.17,7.8984 -0.49,9.2656 -0.23,1.0469 -0.65,1.8164 -1.25,2.2969 -0.6,0.4843 -1.31,0.7343 -2.16,0.7343 -1.21,0 -2.89,-0.5 -5.04,-1.5156 l -0.73,1.5156" /><path
         id="path268"
         style="fill:none;stroke:#231f20;stroke-width:5.00029993;stroke-linecap:butt;stroke-linejoin:miter;stroke-miterlimit:2.61310005;stroke-dasharray:none;stroke-opacity:1"
         d="m 510.91,45.9141 h 60.199" /><path
         id="path270"
         style="fill:none;stroke:#231f20;stroke-width:5.00029993;stroke-linecap:butt;stroke-linejoin:miter;stroke-miterlimit:2.61310005;stroke-dasharray:none;stroke-opacity:1"
         d="m 1963.27,330.539 h 60.2" /></g></g></svg>