<?xml version="1.0" encoding="UTF-8" standalone="no"?>
<svg
   xmlns:dc="http://purl.org/dc/elements/1.1/"
   xmlns:cc="http://creativecommons.org/ns#"
   xmlns:rdf="http://www.w3.org/1999/02/22-rdf-syntax-ns#"
   xmlns:svg="http://www.w3.org/2000/svg"
   xmlns="http://www.w3.org/2000/svg"
   viewBox="0 0 382.66666 84"
   height="84"
   width="382.66666"
   xml:space="preserve"
   id="svg2"
   version="1.1"><metadata
     id="metadata8"><rdf:RDF><cc:Work
         rdf:about=""><dc:format>image/svg+xml</dc:format><dc:type
           rdf:resource="http://purl.org/dc/dcmitype/StillImage" /></cc:Work></rdf:RDF></metadata><defs
     id="defs6"><clipPath
       id="clipPath68"
       clipPathUnits="userSpaceOnUse"><path
         style="clip-rule:evenodd"
         id="path66"
         d="M 469.168,533.199 H 1128.69 V 474.496 H 469.168 Z" /></clipPath><clipPath
       id="clipPath124"
       clipPathUnits="userSpaceOnUse"><path
         style="clip-rule:evenodd"
         id="path122"
         d="m 1612.87,536.227 h 287.58 v -58.704 h -287.58 z" /></clipPath><clipPath
       id="clipPath166"
       clipPathUnits="userSpaceOnUse"><path
         style="clip-rule:evenodd"
         id="path164"
         d="M 903.188,173.199 H 1160.97 V 114.496 H 903.188 Z" /></clipPath></defs><g
     transform="matrix(1.3333333,0,0,-1.3333333,0,84)"
     id="g10"><g
       transform="scale(0.1)"
       id="g12"><path
         id="path14"
         style="fill:#231f20;fill-opacity:1;fill-rule:nonzero;stroke:none"
         d="m 18.9102,524.066 16.1171,7.868 h 1.6172 v -55.918 c 0,-3.7 0.1485,-6.016 0.4493,-6.934 0.3203,-0.898 0.9687,-1.602 1.9335,-2.098 0.9844,-0.488 2.9688,-0.765 5.9688,-0.836 v -1.8 h -24.918 v 1.8 c 3.1328,0.071 5.1524,0.336 6.0664,0.817 0.9024,0.469 1.5352,1.101 1.8985,1.898 0.3515,0.805 0.5351,3.184 0.5351,7.153 v 35.75 c 0,4.816 -0.164,7.902 -0.4843,9.265 -0.2305,1.051 -0.6485,1.821 -1.25,2.301 -0.6016,0.484 -1.3126,0.734 -2.1641,0.734 -1.2031,0 -2.8828,-0.504 -5.0352,-1.515 l -0.7343,1.515" /><path
         id="path16"
         style="fill:#231f20;fill-opacity:1;fill-rule:nonzero;stroke:none"
         d="m 59.4453,531.73 v 2.051 c 4.9492,-2.433 9.0664,-5.316 12.3516,-8.648 4.6484,-4.75 8.2461,-10.317 10.7812,-16.715 2.5469,-6.402 3.8164,-13.07 3.8164,-20.004 0,-10.082 -2.4843,-19.281 -7.4492,-27.598 -4.9687,-8.316 -11.4648,-14.265 -19.5,-17.851 v 1.801 c 4,2.25 7.3008,5.281 9.8828,9.117 2.5821,3.816 4.5157,8.683 5.7657,14.597 1.25,5.903 1.8828,12.071 1.8828,18.469 0,6.934 -0.5508,13.266 -1.6133,19 -0.8164,4.5 -1.836,8.082 -3.0508,10.801 -1.2344,2.699 -2.8516,5.297 -4.8672,7.797 -2.0156,2.519 -4.6836,4.902 -8,7.183" /><path
         id="path18"
         style="fill:none;stroke:#231f20;stroke-width:7.5005002;stroke-linecap:butt;stroke-linejoin:miter;stroke-miterlimit:2.61310005;stroke-dasharray:none;stroke-opacity:1"
         d="M 144.949,472.141 H 1125.2" /><path
         id="path20"
         style="fill:#231f20;fill-opacity:1;fill-rule:evenodd;stroke:none"
         d="m 1121.04,498.488 47.9,-26.347 -47.9,-26.348 v 52.695" /><path
         id="path22"
         style="fill:#231f20;fill-opacity:1;fill-rule:nonzero;stroke:none"
         d="m 1135.79,433.359 c 1.6,-1.683 2.8,-3.382 3.62,-5.066 0.58,-1.184 1.55,-4.25 2.88,-9.234 l 4.3,6.453 c 1.14,1.547 2.52,3.05 4.15,4.465 1.62,1.418 3.05,2.382 4.28,2.898 0.79,0.336 1.66,0.484 2.6,0.484 1.4,0 2.5,-0.363 3.34,-1.117 0.83,-0.75 1.25,-1.664 1.25,-2.73 0,-1.235 -0.25,-2.086 -0.74,-2.535 -0.91,-0.817 -1.95,-1.235 -3.11,-1.235 -0.68,0 -1.42,0.153 -2.2,0.453 -1.54,0.516 -2.57,0.782 -3.09,0.782 -0.78,0 -1.69,-0.469 -2.78,-1.368 -2.01,-1.699 -4.41,-4.964 -7.22,-9.816 l 4,-16.801 c 0.62,-2.562 1.14,-4.113 1.57,-4.617 0.42,-0.496 0.84,-0.746 1.27,-0.746 0.68,0 1.48,0.363 2.38,1.117 1.8,1.496 3.32,3.449 4.6,5.863 l 1.7,-0.882 c -2.05,-3.848 -4.65,-7.032 -7.81,-9.567 -1.79,-1.433 -3.31,-2.152 -4.54,-2.152 -1.81,0 -3.26,1.019 -4.35,3.07 -0.68,1.266 -2.1,6.75 -4.25,16.418 -5.07,-8.836 -9.13,-14.504 -12.2,-17.051 -1.98,-1.617 -3.9,-2.437 -5.76,-2.437 -1.3,0 -2.49,0.469 -3.57,1.418 -0.77,0.719 -1.17,1.668 -1.17,2.883 0,1.07 0.37,1.968 1.09,2.683 0.7,0.719 1.58,1.067 2.63,1.067 1.03,0 2.15,-0.516 3.32,-1.563 0.84,-0.754 1.5,-1.117 1.95,-1.117 0.4,0 0.89,0.266 1.51,0.781 1.54,1.235 3.62,3.902 6.25,8 2.63,4.102 4.37,7.067 5.19,8.899 -2.04,7.902 -3.12,12.086 -3.29,12.535 -0.75,2.117 -1.71,3.617 -2.93,4.5 -1.2,0.883 -2.97,1.316 -5.32,1.316 -0.75,0 -1.61,-0.031 -2.58,-0.101 v 1.765 l 13.03,2.285" /><path
         id="path24"
         style="fill:#231f20;fill-opacity:1;fill-rule:nonzero;stroke:none"
         d="m 18.3477,133.266 c 1.8867,4.453 4.2695,7.902 7.1523,10.316 2.8828,2.434 6.4688,3.652 10.7656,3.652 5.3008,0 9.3672,-1.734 12.2032,-5.183 2.1484,-2.567 3.2343,-5.317 3.2343,-8.25 0,-4.817 -3.039,-9.801 -9.0859,-14.934 4.0664,-1.601 7.1328,-3.883 9.2187,-6.851 2.0821,-2.946 3.1329,-6.43 3.1329,-10.45 0,-5.7144 -1.8204,-10.6832 -5.4688,-14.8824 -4.75,-5.4648 -11.6328,-8.1992 -20.6523,-8.1992 -4.4649,0 -7.4961,0.5468 -9.1133,1.6523 -1.6016,1.1133 -2.418,2.2969 -2.418,3.5664 0,0.9492 0.3828,1.7813 1.1484,2.5 0.7696,0.7149 1.6836,1.0625 2.7657,1.0625 0.8047,0 1.6367,-0.1328 2.4883,-0.3789 0.5507,-0.1679 1.8007,-0.7695 3.7656,-1.7851 1.9492,-1.0352 3.3008,-1.6368 4.0508,-1.8321 1.1953,-0.3672 2.4804,-0.5351 3.8476,-0.5351 3.3164,0 6.2149,1.2812 8.668,3.8515 2.4648,2.5625 3.6836,5.6133 3.6836,9.1329 0,2.5624 -0.5664,5.0822 -1.7032,7.5152 -0.8476,1.817 -1.7812,3.2 -2.7812,4.149 -1.3984,1.301 -3.3164,2.484 -5.7656,3.535 -2.4336,1.066 -4.9336,1.602 -7.4688,1.602 h -1.5664 v 1.464 c 2.5664,0.317 5.1524,1.25 7.7344,2.782 2.6016,1.519 4.4844,3.367 5.6523,5.519 1.1641,2.149 1.7461,4.5 1.7461,7.067 0,3.367 -1.0468,6.062 -3.1484,8.128 -2.1016,2.071 -4.6992,3.102 -7.8359,3.102 -5.0469,0 -9.2461,-2.695 -12.6485,-8.098 l -1.6015,0.782" /><path
         id="path26"
         style="fill:#231f20;fill-opacity:1;fill-rule:nonzero;stroke:none"
         d="m 65.5156,147.031 v 2.055 c 4.9492,-2.438 9.0664,-5.32 12.3516,-8.652 4.6484,-4.75 8.25,-10.317 10.7851,-16.715 2.5469,-6.403 3.8125,-13.071 3.8125,-20.004 0,-10.0822 -2.4804,-19.2814 -7.4492,-27.5978 -4.9648,-8.3164 -11.4648,-14.2656 -19.5,-17.8516 v 1.8008 c 4,2.25 7.3008,5.2852 9.8828,9.1172 2.586,3.8164 4.5196,8.6836 5.7696,14.6016 1.25,5.8984 1.8828,12.0664 1.8828,18.4648 0,6.934 -0.5508,13.266 -1.6172,19 -0.8164,4.5 -1.8359,8.082 -3.0508,10.801 -1.2305,2.699 -2.8516,5.297 -4.8672,7.797 -2.0156,2.519 -4.6836,4.902 -8,7.183" /><path
         id="path28"
         style="fill:#231f20;fill-opacity:1;fill-rule:nonzero;stroke:none"
         d="m 1469.09,452.812 -4.64,-12.75 h -39.06 v 1.801 c 11.49,10.481 19.58,19.047 24.27,25.684 4.68,6.648 7.03,12.715 7.03,18.215 0,4.199 -1.28,7.648 -3.87,10.347 -2.56,2.703 -5.63,4.051 -9.21,4.051 -3.27,0 -6.18,-0.949 -8.77,-2.848 -2.58,-1.902 -4.5,-4.699 -5.73,-8.367 h -1.82 c 0.82,6.016 2.9,10.633 6.28,13.867 3.37,3.215 7.57,4.833 12.62,4.833 5.37,0 9.85,-1.731 13.45,-5.184 3.6,-3.449 5.4,-7.516 5.4,-12.199 0,-3.352 -0.78,-6.719 -2.35,-10.067 -2.4,-5.269 -6.31,-10.847 -11.72,-16.75 -8.1,-8.851 -13.17,-14.183 -15.18,-16.015 h 17.28 c 3.52,0 5.98,0.132 7.4,0.398 1.42,0.25 2.7,0.781 3.83,1.582 1.14,0.801 2.14,1.938 2.99,3.402 h 1.8" /><path
         id="path30"
         style="fill:#231f20;fill-opacity:1;fill-rule:nonzero;stroke:none"
         d="m 1475.49,507.441 v 2.055 c 4.95,-2.437 9.06,-5.32 12.35,-8.652 4.65,-4.75 8.25,-10.317 10.78,-16.715 2.55,-6.402 3.82,-13.067 3.82,-20 0,-10.086 -2.48,-19.285 -7.45,-27.598 -4.97,-8.316 -11.47,-14.269 -19.5,-17.855 v 1.801 c 4,2.25 7.3,5.285 9.88,9.121 2.59,3.812 4.52,8.679 5.77,14.597 1.25,5.903 1.88,12.067 1.88,18.465 0,6.934 -0.55,13.27 -1.61,19.004 -0.82,4.496 -1.84,8.078 -3.05,10.797 -1.24,2.699 -2.86,5.301 -4.87,7.801 -2.02,2.515 -4.69,4.898 -8,7.179" /><path
         id="path32"
         style="fill:#231f20;fill-opacity:1;fill-rule:nonzero;stroke:none"
         d="m 1475.84,97.9961 v -6.9336 h -8.88 V 73.5781 h -8.07 v 17.4844 h -28.01 v 6.25 l 30.71,43.8475 h 5.37 V 97.9961 Z m -16.95,0 v 32.8629 l -23.23,-32.8629 h 23.23" /><path
         id="path34"
         style="fill:#231f20;fill-opacity:1;fill-rule:nonzero;stroke:none"
         d="m 1481.56,140.961 v 2.051 c 4.95,-2.434 9.06,-5.317 12.35,-8.649 4.65,-4.754 8.25,-10.316 10.79,-16.718 2.54,-6.399 3.81,-13.067 3.81,-20.0005 0,-10.082 -2.48,-19.2851 -7.45,-27.5976 -4.97,-8.3164 -11.47,-14.2657 -19.5,-17.8516 v 1.8008 c 4,2.25 7.3,5.2812 9.88,9.1172 2.59,3.8164 4.52,8.6836 5.77,14.5976 1.25,5.9024 1.88,12.0664 1.88,18.4688 0,6.9333 -0.55,13.2653 -1.61,19.0003 -0.82,4.5 -1.84,8.082 -3.05,10.8 -1.23,2.7 -2.85,5.297 -4.87,7.797 -2.01,2.516 -4.68,4.903 -8,7.184" /><path
         id="path36"
         style="fill:none;stroke:#231f20;stroke-width:7.5005002;stroke-linecap:butt;stroke-linejoin:miter;stroke-miterlimit:2.61310005;stroke-dasharray:none;stroke-opacity:1"
         d="M 144.949,112.141 H 1125.2" /><path
         id="path38"
         style="fill:#231f20;fill-opacity:1;fill-rule:evenodd;stroke:none"
         d="m 1121.04,138.488 47.9,-26.347 -47.9,-26.348 v 52.695" /><path
         id="path40"
         style="fill:#231f20;fill-opacity:1;fill-rule:nonzero;stroke:none"
         d="m 1135.79,73.3594 c 1.6,-1.6836 2.8,-3.3828 3.62,-5.0664 0.58,-1.1836 1.55,-4.25 2.88,-9.2344 l 4.3,6.4531 c 1.14,1.5469 2.52,3.0508 4.15,4.4649 1.62,1.4179 3.05,2.3828 4.28,2.8984 0.79,0.3359 1.66,0.4844 2.6,0.4844 1.4,0 2.5,-0.3633 3.34,-1.1172 0.83,-0.75 1.25,-1.6641 1.25,-2.7305 0,-1.2344 -0.25,-2.0859 -0.74,-2.5351 -0.91,-0.8164 -1.95,-1.2344 -3.11,-1.2344 -0.68,0 -1.42,0.1523 -2.2,0.4531 -1.54,0.5156 -2.57,0.7813 -3.09,0.7813 -0.78,0 -1.69,-0.4688 -2.78,-1.3672 -2.01,-1.6992 -4.41,-4.9649 -7.22,-9.8164 l 4,-16.8008 c 0.62,-2.5625 1.14,-4.1133 1.57,-4.6172 0.42,-0.4961 0.84,-0.7461 1.27,-0.7461 0.68,0 1.48,0.3633 2.38,1.1172 1.8,1.4961 3.32,3.4492 4.6,5.8633 l 1.7,-0.8828 c -2.05,-3.8477 -4.65,-7.0313 -7.81,-9.5664 -1.79,-1.4336 -3.31,-2.1524 -4.54,-2.1524 -1.81,0 -3.26,1.0195 -4.35,3.0703 -0.68,1.2657 -2.1,6.75 -4.25,16.418 -5.07,-8.8359 -9.13,-14.5039 -12.2,-17.0508 -1.98,-1.6172 -3.9,-2.4375 -5.76,-2.4375 -1.3,0 -2.49,0.4688 -3.57,1.418 -0.77,0.7187 -1.17,1.668 -1.17,2.8828 0,1.0703 0.37,1.9687 1.09,2.6836 0.7,0.7187 1.58,1.0664 2.63,1.0664 1.03,0 2.15,-0.5156 3.32,-1.5625 0.84,-0.7539 1.5,-1.1172 1.95,-1.1172 0.4,0 0.89,0.2656 1.51,0.7813 1.54,1.2343 3.62,3.9023 6.25,8 2.63,4.1015 4.37,7.0664 5.19,8.8984 -2.04,7.9023 -3.12,12.0859 -3.29,12.5352 -0.75,2.1171 -1.71,3.6171 -2.93,4.5 -1.2,0.8828 -2.97,1.3164 -5.32,1.3164 -0.75,0 -1.61,-0.0313 -2.58,-0.1016 v 1.7656 l 13.03,2.2852" /><path
         id="path42"
         style="fill:none;stroke:#231f20;stroke-width:7.5005002;stroke-linecap:butt;stroke-linejoin:miter;stroke-miterlimit:2.61310005;stroke-dasharray:none;stroke-opacity:1"
         d="M 1119.67,613.82 H 598.258" /><path
         id="path44"
         style="fill:none;stroke:#231f20;stroke-width:7.5005002;stroke-linecap:butt;stroke-linejoin:miter;stroke-miterlimit:2.61310005;stroke-dasharray:none;stroke-opacity:1"
         d="m 608.32,613.297 c -95.019,1.5 -141.406,-46.188 -139.148,-143.074" /><path
         id="path46"
         style="fill:none;stroke:#231f20;stroke-width:7.5005002;stroke-linecap:butt;stroke-linejoin:miter;stroke-miterlimit:2.61310005;stroke-dasharray:none;stroke-opacity:1"
         d="M 1584.95,472.141 H 2565.2" /><path
         id="path48"
         style="fill:#231f20;fill-opacity:1;fill-rule:evenodd;stroke:none"
         d="m 2561.04,498.488 47.9,-26.347 -47.9,-26.348 v 52.695" /><path
         id="path50"
         style="fill:#231f20;fill-opacity:1;fill-rule:nonzero;stroke:none"
         d="m 2575.79,433.359 c 1.6,-1.683 2.8,-3.382 3.62,-5.066 0.58,-1.184 1.55,-4.25 2.88,-9.234 l 4.3,6.453 c 1.14,1.547 2.52,3.05 4.15,4.465 1.62,1.418 3.05,2.382 4.28,2.898 0.79,0.336 1.66,0.484 2.6,0.484 1.4,0 2.5,-0.363 3.34,-1.117 0.83,-0.75 1.25,-1.664 1.25,-2.73 0,-1.235 -0.25,-2.086 -0.74,-2.535 -0.91,-0.817 -1.95,-1.235 -3.11,-1.235 -0.68,0 -1.42,0.153 -2.2,0.453 -1.54,0.516 -2.57,0.782 -3.09,0.782 -0.78,0 -1.69,-0.469 -2.78,-1.368 -2.01,-1.699 -4.41,-4.964 -7.22,-9.816 l 4,-16.801 c 0.62,-2.562 1.14,-4.113 1.57,-4.617 0.42,-0.496 0.84,-0.746 1.27,-0.746 0.68,0 1.48,0.363 2.38,1.117 1.8,1.496 3.32,3.449 4.6,5.863 l 1.7,-0.882 c -2.05,-3.848 -4.65,-7.032 -7.81,-9.567 -1.79,-1.433 -3.31,-2.152 -4.54,-2.152 -1.81,0 -3.26,1.019 -4.35,3.07 -0.68,1.266 -2.1,6.75 -4.25,16.418 -5.07,-8.836 -9.13,-14.504 -12.2,-17.051 -1.98,-1.617 -3.9,-2.437 -5.76,-2.437 -1.3,0 -2.49,0.469 -3.57,1.418 -0.77,0.719 -1.17,1.668 -1.17,2.883 0,1.07 0.37,1.968 1.09,2.683 0.7,0.719 1.58,1.067 2.63,1.067 1.03,0 2.15,-0.516 3.32,-1.563 0.84,-0.754 1.5,-1.117 1.95,-1.117 0.4,0 0.89,0.266 1.51,0.781 1.54,1.235 3.62,3.902 6.25,8 2.63,4.102 4.37,7.067 5.19,8.899 -2.04,7.902 -3.12,12.086 -3.29,12.535 -0.75,2.117 -1.71,3.617 -2.93,4.5 -1.2,0.883 -2.97,1.316 -5.32,1.316 -0.75,0 -1.61,-0.031 -2.58,-0.101 v 1.765 l 13.03,2.285" /><path
         id="path52"
         style="fill:none;stroke:#231f20;stroke-width:7.5005002;stroke-linecap:butt;stroke-linejoin:miter;stroke-miterlimit:2.61310005;stroke-dasharray:none;stroke-opacity:1"
         d="m 1614.44,624.348 h 167.42" /><path
         id="path54"
         style="fill:none;stroke:#231f20;stroke-width:7.5005002;stroke-linecap:butt;stroke-linejoin:miter;stroke-miterlimit:2.61310005;stroke-dasharray:none;stroke-opacity:1"
         d="m 1771.79,623.832 c 95.02,1.504 141.41,-46.187 139.15,-143.074" /><path
         id="path56"
         style="fill:#231f20;fill-opacity:1;fill-rule:evenodd;stroke:none"
         d="m 1908.27,486.543 c 6.63,0 12.02,-5.383 12.02,-12.02 0,-6.636 -5.39,-12.019 -12.02,-12.019 -6.64,0 -12.02,5.383 -12.02,12.019 0,6.637 5.38,12.02 12.02,12.02" /><path
         id="path58"
         style="fill:none;stroke:#231f20;stroke-width:7.5005002;stroke-linecap:butt;stroke-linejoin:miter;stroke-miterlimit:2.61310005;stroke-dasharray:none;stroke-opacity:1"
         d="m 1908.27,486.543 c 6.63,0 12.02,-5.383 12.02,-12.02 0,-6.636 -5.39,-12.019 -12.02,-12.019 -6.64,0 -12.02,5.383 -12.02,12.019 0,6.637 5.38,12.02 12.02,12.02 z" /><path
         id="path60"
         style="fill:#231f20;fill-opacity:1;fill-rule:nonzero;stroke:none"
         d="m 927.801,74.6562 -3.817,-8.2968 h -19.918 l -4.347,-8.9024 c 8.633,-1.2656 15.469,-4.4648 20.5,-9.6132 4.332,-4.4219 6.496,-9.6368 6.496,-15.6211 0,-3.4805 -0.699,-6.7149 -2.113,-9.6641 -1.418,-2.9688 -3.2,-5.4844 -5.352,-7.5664 -2.148,-2.082 -4.551,-3.7656 -7.184,-5.03517 -3.73,-1.79687 -7.582,-2.68359 -11.515,-2.68359 -3.985,0 -6.867,0.66797 -8.664,2.01953 -1.821,1.34763 -2.719,2.84763 -2.719,4.46483 0,0.918 0.383,1.7149 1.117,2.418 0.75,0.6992 1.699,1.0508 2.832,1.0508 0.852,0 1.602,-0.1211 2.235,-0.3868 0.632,-0.2656 1.714,-0.9336 3.25,-1.996 2.433,-1.7032 4.898,-2.5508 7.418,-2.5508 3.796,0 7.148,1.4492 10.031,4.332 2.887,2.8828 4.316,6.3828 4.316,10.5156 0,4 -1.285,7.7344 -3.847,11.1992 -2.586,3.4688 -6.118,6.1524 -10.653,8.0352 -3.547,1.4688 -8.383,2.3164 -14.496,2.5508 l 12.695,25.7304 h 23.735" /><g
         id="g62"><g
           clip-path="url(#clipPath68)"
           id="g64"><path
             id="path70"
             style="fill:none;stroke:#231f20;stroke-width:3.5999999;stroke-linecap:butt;stroke-linejoin:miter;stroke-miterlimit:2.61310005;stroke-dasharray:none;stroke-opacity:1"
             d="M 350.242,483.316 818.965,952.039" /><path
             id="path72"
             style="fill:none;stroke:#231f20;stroke-width:3.5999999;stroke-linecap:butt;stroke-linejoin:miter;stroke-miterlimit:2.61310005;stroke-dasharray:none;stroke-opacity:1"
             d="M 370.605,462.949 839.328,931.672" /><path
             id="path74"
             style="fill:none;stroke:#231f20;stroke-width:3.5999999;stroke-linecap:butt;stroke-linejoin:miter;stroke-miterlimit:2.61310005;stroke-dasharray:none;stroke-opacity:1"
             d="M 390.973,442.586 859.695,911.309" /><path
             id="path76"
             style="fill:none;stroke:#231f20;stroke-width:3.5999999;stroke-linecap:butt;stroke-linejoin:miter;stroke-miterlimit:2.61310005;stroke-dasharray:none;stroke-opacity:1"
             d="M 411.336,422.223 880.059,890.945" /><path
             id="path78"
             style="fill:none;stroke:#231f20;stroke-width:3.5999999;stroke-linecap:butt;stroke-linejoin:miter;stroke-miterlimit:2.61310005;stroke-dasharray:none;stroke-opacity:1"
             d="M 431.699,401.855 900.422,870.578" /><path
             id="path80"
             style="fill:none;stroke:#231f20;stroke-width:3.5999999;stroke-linecap:butt;stroke-linejoin:miter;stroke-miterlimit:2.61310005;stroke-dasharray:none;stroke-opacity:1"
             d="M 452.066,381.492 920.789,850.215" /><path
             id="path82"
             style="fill:none;stroke:#231f20;stroke-width:3.5999999;stroke-linecap:butt;stroke-linejoin:miter;stroke-miterlimit:2.61310005;stroke-dasharray:none;stroke-opacity:1"
             d="M 472.43,361.125 941.152,829.852" /><path
             id="path84"
             style="fill:none;stroke:#231f20;stroke-width:3.5999999;stroke-linecap:butt;stroke-linejoin:miter;stroke-miterlimit:2.61310005;stroke-dasharray:none;stroke-opacity:1"
             d="M 492.793,340.762 961.516,809.484" /><path
             id="path86"
             style="fill:none;stroke:#231f20;stroke-width:3.5999999;stroke-linecap:butt;stroke-linejoin:miter;stroke-miterlimit:2.61310005;stroke-dasharray:none;stroke-opacity:1"
             d="M 513.16,320.398 981.883,789.121" /><path
             id="path88"
             style="fill:none;stroke:#231f20;stroke-width:3.5999999;stroke-linecap:butt;stroke-linejoin:miter;stroke-miterlimit:2.61310005;stroke-dasharray:none;stroke-opacity:1"
             d="M 533.523,300.031 1002.25,768.758" /><path
             id="path90"
             style="fill:none;stroke:#231f20;stroke-width:3.5999999;stroke-linecap:butt;stroke-linejoin:miter;stroke-miterlimit:2.61310005;stroke-dasharray:none;stroke-opacity:1"
             d="M 553.887,279.668 1022.61,748.391" /><path
             id="path92"
             style="fill:none;stroke:#231f20;stroke-width:3.5999999;stroke-linecap:butt;stroke-linejoin:miter;stroke-miterlimit:2.61310005;stroke-dasharray:none;stroke-opacity:1"
             d="M 574.254,259.305 1042.98,728.027" /><path
             id="path94"
             style="fill:none;stroke:#231f20;stroke-width:3.5999999;stroke-linecap:butt;stroke-linejoin:miter;stroke-miterlimit:2.61310005;stroke-dasharray:none;stroke-opacity:1"
             d="M 594.617,238.938 1063.34,707.66" /><path
             id="path96"
             style="fill:none;stroke:#231f20;stroke-width:3.5999999;stroke-linecap:butt;stroke-linejoin:miter;stroke-miterlimit:2.61310005;stroke-dasharray:none;stroke-opacity:1"
             d="m 614.98,218.574 468.73,468.723" /><path
             id="path98"
             style="fill:none;stroke:#231f20;stroke-width:3.5999999;stroke-linecap:butt;stroke-linejoin:miter;stroke-miterlimit:2.61310005;stroke-dasharray:none;stroke-opacity:1"
             d="M 635.348,198.211 1104.07,666.934" /><path
             id="path100"
             style="fill:none;stroke:#231f20;stroke-width:3.5999999;stroke-linecap:butt;stroke-linejoin:miter;stroke-miterlimit:2.61310005;stroke-dasharray:none;stroke-opacity:1"
             d="M 655.711,177.844 1124.43,646.566" /><path
             id="path102"
             style="fill:none;stroke:#231f20;stroke-width:3.5999999;stroke-linecap:butt;stroke-linejoin:miter;stroke-miterlimit:2.61310005;stroke-dasharray:none;stroke-opacity:1"
             d="M 676.078,157.48 1144.8,626.203" /><path
             id="path104"
             style="fill:none;stroke:#231f20;stroke-width:3.5999999;stroke-linecap:butt;stroke-linejoin:miter;stroke-miterlimit:2.61310005;stroke-dasharray:none;stroke-opacity:1"
             d="M 696.441,137.117 1165.16,605.84" /><path
             id="path106"
             style="fill:none;stroke:#231f20;stroke-width:3.5999999;stroke-linecap:butt;stroke-linejoin:miter;stroke-miterlimit:2.61310005;stroke-dasharray:none;stroke-opacity:1"
             d="M 716.805,116.75 1185.53,585.473" /><path
             id="path108"
             style="fill:none;stroke:#231f20;stroke-width:3.5999999;stroke-linecap:butt;stroke-linejoin:miter;stroke-miterlimit:2.61310005;stroke-dasharray:none;stroke-opacity:1"
             d="M 737.172,96.3867 1205.89,565.109" /><path
             id="path110"
             style="fill:none;stroke:#231f20;stroke-width:3.5999999;stroke-linecap:butt;stroke-linejoin:miter;stroke-miterlimit:2.61310005;stroke-dasharray:none;stroke-opacity:1"
             d="M 757.535,76.0195 1226.26,544.746" /><path
             id="path112"
             style="fill:none;stroke:#231f20;stroke-width:3.5999999;stroke-linecap:butt;stroke-linejoin:miter;stroke-miterlimit:2.61310005;stroke-dasharray:none;stroke-opacity:1"
             d="M 777.898,55.6562 1246.62,524.379" /><path
             id="path114"
             style="fill:none;stroke:#231f20;stroke-width:3.5999999;stroke-linecap:butt;stroke-linejoin:miter;stroke-miterlimit:2.61310005;stroke-dasharray:none;stroke-opacity:1"
             d="M 798.266,35.293 1266.99,504.016" /><path
             id="path116"
             style="fill:none;stroke:#231f20;stroke-width:3.5999999;stroke-linecap:butt;stroke-linejoin:miter;stroke-miterlimit:2.61310005;stroke-dasharray:none;stroke-opacity:1"
             d="M 818.629,14.9258 1287.35,483.652" /></g></g><g
         id="g118"><g
           clip-path="url(#clipPath124)"
           id="g120"><path
             id="path126"
             style="fill:none;stroke:#231f20;stroke-width:3.5999999;stroke-linecap:butt;stroke-linejoin:miter;stroke-miterlimit:2.61310005;stroke-dasharray:none;stroke-opacity:1"
             d="m 1568.94,486.555 207.99,207.984" /><path
             id="path128"
             style="fill:none;stroke:#231f20;stroke-width:3.5999999;stroke-linecap:butt;stroke-linejoin:miter;stroke-miterlimit:2.61310005;stroke-dasharray:none;stroke-opacity:1"
             d="m 1589.3,466.191 207.99,207.985" /><path
             id="path130"
             style="fill:none;stroke:#231f20;stroke-width:3.5999999;stroke-linecap:butt;stroke-linejoin:miter;stroke-miterlimit:2.61310005;stroke-dasharray:none;stroke-opacity:1"
             d="m 1609.67,445.824 207.98,207.985" /><path
             id="path132"
             style="fill:none;stroke:#231f20;stroke-width:3.5999999;stroke-linecap:butt;stroke-linejoin:miter;stroke-miterlimit:2.61310005;stroke-dasharray:none;stroke-opacity:1"
             d="m 1630.04,425.461 207.98,207.984" /><path
             id="path134"
             style="fill:none;stroke:#231f20;stroke-width:3.5999999;stroke-linecap:butt;stroke-linejoin:miter;stroke-miterlimit:2.61310005;stroke-dasharray:none;stroke-opacity:1"
             d="m 1650.4,405.098 207.98,207.984" /><path
             id="path136"
             style="fill:none;stroke:#231f20;stroke-width:3.5999999;stroke-linecap:butt;stroke-linejoin:miter;stroke-miterlimit:2.61310005;stroke-dasharray:none;stroke-opacity:1"
             d="m 1670.76,384.73 207.99,207.985" /><path
             id="path138"
             style="fill:none;stroke:#231f20;stroke-width:3.5999999;stroke-linecap:butt;stroke-linejoin:miter;stroke-miterlimit:2.61310005;stroke-dasharray:none;stroke-opacity:1"
             d="m 1691.13,364.367 207.98,207.985" /><path
             id="path140"
             style="fill:none;stroke:#231f20;stroke-width:3.5999999;stroke-linecap:butt;stroke-linejoin:miter;stroke-miterlimit:2.61310005;stroke-dasharray:none;stroke-opacity:1"
             d="m 1711.49,344.004 207.99,207.984" /><path
             id="path142"
             style="fill:none;stroke:#231f20;stroke-width:3.5999999;stroke-linecap:butt;stroke-linejoin:miter;stroke-miterlimit:2.61310005;stroke-dasharray:none;stroke-opacity:1"
             d="m 1731.86,323.637 207.98,207.984" /><path
             id="path144"
             style="fill:none;stroke:#231f20;stroke-width:3.5999999;stroke-linecap:butt;stroke-linejoin:miter;stroke-miterlimit:2.61310005;stroke-dasharray:none;stroke-opacity:1"
             d="m 1752.22,303.273 207.99,207.985" /><path
             id="path146"
             style="fill:none;stroke:#231f20;stroke-width:3.5999999;stroke-linecap:butt;stroke-linejoin:miter;stroke-miterlimit:2.61310005;stroke-dasharray:none;stroke-opacity:1"
             d="m 1772.59,282.906 207.98,207.989" /></g></g><path
         id="path148"
         style="fill:#ffffff;fill-opacity:1;fill-rule:evenodd;stroke:none"
         d="m 468.266,486.543 c 6.636,0 12.019,-5.383 12.019,-12.02 0,-6.636 -5.383,-12.019 -12.019,-12.019 -6.637,0 -12.02,5.383 -12.02,12.019 0,6.637 5.383,12.02 12.02,12.02" /><path
         id="path150"
         style="fill:none;stroke:#231f20;stroke-width:7.5005002;stroke-linecap:butt;stroke-linejoin:miter;stroke-miterlimit:2.61310005;stroke-dasharray:none;stroke-opacity:1"
         d="m 468.266,486.543 c 6.636,0 12.019,-5.383 12.019,-12.02 0,-6.636 -5.383,-12.019 -12.019,-12.019 -6.637,0 -12.02,5.383 -12.02,12.019 0,6.637 5.383,12.02 12.02,12.02 z" /><path
         id="path152"
         style="fill:none;stroke:#231f20;stroke-width:5.00029993;stroke-linecap:butt;stroke-linejoin:miter;stroke-miterlimit:2.61310005;stroke-dasharray:none;stroke-opacity:1"
         d="m 435.887,364.762 h 60.199" /><path
         id="path154"
         style="fill:#231f20;fill-opacity:1;fill-rule:nonzero;stroke:none"
         d="m 461.094,435.684 16.121,7.867 h 1.613 v -55.918 c 0,-3.699 0.152,-6.016 0.453,-6.93 0.317,-0.902 0.965,-1.601 1.93,-2.101 0.984,-0.485 2.969,-0.766 5.969,-0.836 v -1.797 h -24.918 v 1.797 c 3.133,0.07 5.152,0.336 6.066,0.816 0.902,0.469 1.535,1.102 1.902,1.902 0.348,0.801 0.536,3.184 0.536,7.149 v 35.75 c 0,4.816 -0.168,7.902 -0.485,9.269 -0.234,1.047 -0.652,1.817 -1.25,2.297 -0.601,0.485 -1.316,0.735 -2.168,0.735 -1.203,0 -2.883,-0.5 -5.035,-1.516 l -0.734,1.516" /><path
         id="path156"
         style="fill:none;stroke:#231f20;stroke-width:7.5005002;stroke-linecap:butt;stroke-linejoin:miter;stroke-miterlimit:2.61310005;stroke-dasharray:none;stroke-opacity:1"
         d="M 1201.82,253.82 H 1030.26" /><path
         id="path158"
         style="fill:none;stroke:#231f20;stroke-width:7.5005002;stroke-linecap:butt;stroke-linejoin:miter;stroke-miterlimit:2.61310005;stroke-dasharray:none;stroke-opacity:1"
         d="m 1040.32,253.297 c -95.019,1.5 -141.406,-46.188 -139.148,-143.074" /><g
         id="g160"><g
           clip-path="url(#clipPath166)"
           id="g162"><path
             id="path168"
             style="fill:none;stroke:#231f20;stroke-width:3.5999999;stroke-linecap:butt;stroke-linejoin:miter;stroke-miterlimit:2.61310005;stroke-dasharray:none;stroke-opacity:1"
             d="M 864.648,123.676 1052.25,311.27" /><path
             id="path170"
             style="fill:none;stroke:#231f20;stroke-width:3.5999999;stroke-linecap:butt;stroke-linejoin:miter;stroke-miterlimit:2.61310005;stroke-dasharray:none;stroke-opacity:1"
             d="M 885.016,103.309 1072.61,290.906" /><path
             id="path172"
             style="fill:none;stroke:#231f20;stroke-width:3.5999999;stroke-linecap:butt;stroke-linejoin:miter;stroke-miterlimit:2.61310005;stroke-dasharray:none;stroke-opacity:1"
             d="M 905.379,82.9453 1092.97,270.539" /><path
             id="path174"
             style="fill:none;stroke:#231f20;stroke-width:3.5999999;stroke-linecap:butt;stroke-linejoin:miter;stroke-miterlimit:2.61310005;stroke-dasharray:none;stroke-opacity:1"
             d="M 925.746,62.582 1113.34,250.176" /><path
             id="path176"
             style="fill:none;stroke:#231f20;stroke-width:3.5999999;stroke-linecap:butt;stroke-linejoin:miter;stroke-miterlimit:2.61310005;stroke-dasharray:none;stroke-opacity:1"
             d="M 946.109,42.2148 1133.7,229.809" /><path
             id="path178"
             style="fill:none;stroke:#231f20;stroke-width:3.5999999;stroke-linecap:butt;stroke-linejoin:miter;stroke-miterlimit:2.61310005;stroke-dasharray:none;stroke-opacity:1"
             d="M 966.473,21.8516 1154.07,209.445" /><path
             id="path180"
             style="fill:none;stroke:#231f20;stroke-width:3.5999999;stroke-linecap:butt;stroke-linejoin:miter;stroke-miterlimit:2.61310005;stroke-dasharray:none;stroke-opacity:1"
             d="M 986.84,1.48828 1174.43,189.082" /><path
             id="path182"
             style="fill:none;stroke:#231f20;stroke-width:3.5999999;stroke-linecap:butt;stroke-linejoin:miter;stroke-miterlimit:2.61310005;stroke-dasharray:none;stroke-opacity:1"
             d="M 1007.2,-18.8789 1194.8,168.715" /><path
             id="path184"
             style="fill:none;stroke:#231f20;stroke-width:3.5999999;stroke-linecap:butt;stroke-linejoin:miter;stroke-miterlimit:2.61310005;stroke-dasharray:none;stroke-opacity:1"
             d="M 1027.57,-39.2422 1215.16,148.352" /><path
             id="path186"
             style="fill:none;stroke:#231f20;stroke-width:3.5999999;stroke-linecap:butt;stroke-linejoin:miter;stroke-miterlimit:2.61310005;stroke-dasharray:none;stroke-opacity:1"
             d="m 1047.93,-59.6055 187.6,187.5935" /></g></g><path
         id="path188"
         style="fill:#231f20;fill-opacity:1;fill-rule:nonzero;stroke:none"
         d="m 492.227,295.57 -4.637,-12.75 h -39.067 v 1.801 c 11.489,10.481 19.586,19.047 24.27,25.684 4.68,6.652 7.031,12.715 7.031,18.215 0,4.203 -1.281,7.652 -3.867,10.351 -2.566,2.699 -5.633,4.051 -9.215,4.051 -3.265,0 -6.183,-0.953 -8.765,-2.852 -2.586,-1.902 -4.5,-4.699 -5.735,-8.367 h -1.816 c 0.816,6.02 2.898,10.633 6.281,13.867 3.367,3.219 7.57,4.832 12.617,4.832 5.367,0 9.852,-1.73 13.449,-5.183 3.602,-3.449 5.403,-7.516 5.403,-12.196 0,-3.351 -0.785,-6.718 -2.352,-10.07 -2.402,-5.265 -6.316,-10.848 -11.715,-16.75 -8.101,-8.848 -13.168,-14.18 -15.183,-16.015 h 17.285 c 3.512,0 5.98,0.132 7.398,0.398 1.414,0.25 2.7,0.785 3.832,1.582 1.133,0.805 2.133,1.937 2.985,3.402 h 1.801" /><path
         id="path190"
         style="fill:#ffffff;fill-opacity:1;fill-rule:evenodd;stroke:none"
         d="m 900.266,126.543 c 6.636,0 12.019,-5.383 12.019,-12.02 0,-6.636 -5.383,-12.019 -12.019,-12.019 -6.637,0 -12.02,5.383 -12.02,12.019 0,6.637 5.383,12.02 12.02,12.02" /><path
         id="path192"
         style="fill:none;stroke:#231f20;stroke-width:7.5005002;stroke-linecap:butt;stroke-linejoin:miter;stroke-miterlimit:2.61310005;stroke-dasharray:none;stroke-opacity:1"
         d="m 900.266,126.543 c 6.636,0 12.019,-5.383 12.019,-12.02 0,-6.636 -5.383,-12.019 -12.019,-12.019 -6.637,0 -12.02,5.383 -12.02,12.019 0,6.637 5.383,12.02 12.02,12.02 z" /><path
         id="path194"
         style="fill:#231f20;fill-opacity:1;fill-rule:nonzero;stroke:none"
         d="m 1666.66,155.629 -4.93,-21.434 h -1.77 l -0.18,5.387 c -0.17,1.949 -0.55,3.68 -1.13,5.215 -0.59,1.531 -1.47,2.851 -2.63,3.984 -1.17,1.114 -2.66,2 -4.46,2.633 -1.78,0.633 -3.76,0.949 -5.95,0.949 -5.83,0 -10.91,-1.601 -15.28,-4.785 -5.57,-4.062 -9.93,-9.816 -13.08,-17.23 -2.6,-6.118 -3.92,-12.317 -3.92,-18.602 0,-6.418 1.88,-11.531 5.62,-15.3671 3.75,-3.8164 8.61,-5.7344 14.6,-5.7344 4.53,0 8.56,1.0196 12.08,3.0352 3.53,2.0195 6.82,5.1172 9.85,9.3163 h 2.28 c -3.56,-5.6991 -7.55,-9.8827 -11.9,-12.5663 -4.36,-2.6836 -9.6,-4.0313 -15.68,-4.0313 -5.4,0 -10.18,1.1328 -14.35,3.3985 -4.17,2.2656 -7.35,5.4336 -9.51,9.5508 -2.19,4.1013 -3.29,8.5003 -3.29,13.2343 0,7.215 1.95,14.246 5.82,21.082 3.86,6.832 9.18,12.215 15.93,16.113 6.77,3.903 13.57,5.852 20.45,5.852 3.22,0 6.83,-0.746 10.83,-2.281 1.75,-0.653 3.04,-0.985 3.8,-0.985 0.78,0 1.47,0.164 2.07,0.485 0.59,0.332 1.55,1.265 2.92,2.781 h 1.81" /><path
         id="path196"
         style="fill:#231f20;fill-opacity:1;fill-rule:nonzero;stroke:none"
         d="m 1710.06,130.93 -8.5,-29.098 c -1.26,-4.3359 -1.9,-7.0664 -1.9,-8.1992 0,-0.5859 0.12,-1.0195 0.32,-1.3008 0.22,-0.2695 0.5,-0.4179 0.87,-0.4179 0.54,0 1.15,0.25 1.81,0.7656 0.67,0.5 2.35,2.5156 5.07,6.0156 l 1.45,-1.1172 c -2.57,-4.0625 -5.2,-7.0664 -7.9,-8.9804 -1.8,-1.2344 -3.52,-1.8516 -5.19,-1.8516 -1.26,0 -2.25,0.3516 -2.96,1.0703 -0.72,0.7148 -1.09,1.6484 -1.09,2.7813 0,1.1171 0.22,2.5664 0.64,4.3984 0.53,2.4023 2,7.6519 4.45,15.7149 -5.53,-9.082 -10.17,-15.3477 -13.9,-18.7969 -3.72,-3.4493 -7.18,-5.168 -10.37,-5.168 -1.5,0 -2.76,0.5195 -3.82,1.5508 -1.03,1.0508 -1.54,2.3672 -1.54,3.9687 0,2.4297 0.71,6.1797 2.13,11.2304 l 4.25,15.086 c 1.05,3.613 1.57,5.848 1.57,6.73 0,0.403 -0.14,0.735 -0.42,1 -0.27,0.286 -0.57,0.418 -0.9,0.418 -0.68,0 -1.37,-0.25 -2.05,-0.734 -0.69,-0.48 -2.23,-2.297 -4.63,-5.418 l -1.52,1.067 c 2.43,3.785 5.03,6.57 7.77,8.351 2.08,1.402 4,2.102 5.75,2.102 1.21,0 2.19,-0.383 2.96,-1.133 0.75,-0.766 1.14,-1.75 1.14,-2.969 0,-1.75 -0.66,-4.898 -1.95,-9.414 l -4.59,-15.77 c -1.26,-4.3003 -1.9,-7.0151 -1.9,-8.1675 0,-0.6133 0.2,-1.1172 0.6,-1.4804 0.42,-0.3829 0.95,-0.5664 1.63,-0.5664 1.09,0 2.49,0.5312 4.21,1.6171 1.73,1.0664 4.03,3.4493 6.91,7.1482 2.88,3.699 5.25,7.168 7.14,10.403 1.86,3.23 3.86,8.398 5.96,15.445 l 1.08,3.719 h 7.42" /><path
         id="path198"
         style="fill:#231f20;fill-opacity:1;fill-rule:nonzero;stroke:none"
         d="m 1751.61,98.5625 c -3.38,-4.0664 -6.8,-7.0664 -10.25,-8.9648 -3.45,-1.8985 -7.1,-2.8516 -10.93,-2.8516 -4.62,0 -8.23,1.3008 -10.82,3.8984 -2.58,2.6016 -3.88,6.1016 -3.88,10.5005 0,4.984 1.4,9.886 4.18,14.703 2.79,4.816 6.52,8.73 11.22,11.734 4.71,3.016 9.32,4.516 13.85,4.516 3.55,0 6.2,-0.735 7.95,-2.219 1.77,-1.481 2.65,-3.297 2.65,-5.449 0,-2.016 -0.62,-3.735 -1.87,-5.164 -0.9,-1.118 -2.03,-1.668 -3.37,-1.668 -0.99,0 -1.84,0.332 -2.51,0.984 -0.67,0.648 -1,1.465 -1,2.43 0,0.621 0.13,1.199 0.37,1.718 0.25,0.516 0.75,1.149 1.51,1.883 0.77,0.735 1.24,1.25 1.4,1.586 0.15,0.313 0.23,0.664 0.23,1.012 0,0.684 -0.3,1.269 -0.91,1.719 -0.95,0.648 -2.29,0.984 -4.02,0.984 -3.18,0 -6.35,-1.133 -9.46,-3.383 -3.14,-2.234 -5.81,-5.437 -8.02,-9.57 -2.67,-5.016 -4,-10.012 -4,-15.031 0,-3.3167 0.95,-5.9495 2.83,-7.8831 1.88,-1.9492 4.47,-2.9141 7.72,-2.9141 2.5,0 4.98,0.6289 7.45,1.8789 2.45,1.25 5.21,3.5352 8.27,6.8203 l 1.41,-1.2695" /><path
         id="path200"
         style="fill:#231f20;fill-opacity:1;fill-rule:nonzero;stroke:none"
         d="m 1779.06,132.098 -6.35,-22.016 c 2.84,5.184 5.24,9.063 7.24,11.664 3.08,4.035 6.1,6.965 9.03,8.801 1.72,1.035 3.52,1.551 5.42,1.551 1.61,0 2.96,-0.516 4.05,-1.551 1.06,-1.051 1.61,-2.383 1.61,-4.016 0,-1.582 -0.38,-3.668 -1.13,-6.254 l -3.47,-12.398 c 5.32,9.933 10.33,16.902 15.09,20.902 2.65,2.215 5.24,3.317 7.81,3.317 1.5,0 2.73,-0.5 3.69,-1.536 0.96,-1.015 1.45,-2.617 1.45,-4.765 0,-1.883 -0.3,-3.883 -0.89,-6 l -5.36,-19 c -1.19,-4.1329 -1.77,-6.4181 -1.77,-6.8829 0,-0.4493 0.15,-0.8321 0.45,-1.168 0.18,-0.2305 0.45,-0.332 0.78,-0.332 0.32,0 0.88,0.2968 1.7,0.9179 1.85,1.4336 3.6,3.3164 5.24,5.6641 l 1.6,-1.0156 c -0.82,-1.3164 -2.25,-3.0977 -4.32,-5.3828 -2.07,-2.2657 -3.83,-3.8165 -5.3,-4.6329 -1.47,-0.8164 -2.82,-1.2187 -4.05,-1.2187 -1.13,0 -2.1,0.3867 -2.85,1.168 -0.77,0.7812 -1.15,1.7304 -1.15,2.8828 0,1.5664 0.67,4.6992 2,9.4181 l 4.43,15.683 c 1.02,3.618 1.55,5.614 1.62,6 0.1,0.614 0.15,1.215 0.15,1.801 0,0.817 -0.18,1.446 -0.53,1.914 -0.41,0.453 -0.84,0.684 -1.32,0.684 -1.37,0 -2.82,-0.699 -4.35,-2.102 -4.5,-4.133 -8.7,-9.929 -12.6,-17.379 -2.57,-4.918 -4.98,-11.2183 -7.23,-18.9019 h -7.37 l 8.35,29.5349 c 0.92,3.199 1.36,5.332 1.36,6.399 0,0.882 -0.18,1.531 -0.53,1.949 -0.36,0.433 -0.8,0.652 -1.31,0.652 -1.09,0 -2.22,-0.402 -3.42,-1.187 -1.97,-1.266 -4.47,-3.981 -7.55,-8.149 -3.08,-4.168 -5.47,-8.148 -7.15,-11.965 -0.82,-1.785 -2.75,-7.5347 -5.82,-17.2339 h -7.21 l 9.03,31.6329 1.17,4.117 c 0.23,0.613 0.33,1.066 0.33,1.367 0,0.715 -0.32,1.348 -0.97,1.914 -0.65,0.567 -1.48,0.867 -2.5,0.867 -0.41,0 -1.58,-0.199 -3.52,-0.601 l -0.43,1.82 16.85,3.067" /><path
         id="path202"
         style="fill:#231f20;fill-opacity:1;fill-rule:nonzero;stroke:none"
         d="m 1841.51,106.332 c -0.23,-1.633 -0.35,-2.984 -0.35,-4.07 0,-2.8831 1.04,-5.3479 3.09,-7.3987 2.05,-2.0313 4.53,-3.0508 7.46,-3.0508 2.35,0 4.6,0.4844 6.77,1.4492 2.17,0.9531 5.38,3.086 9.65,6.3672 l 1.01,-1.4141 c -7.71,-7.6523 -15.06,-11.4687 -22.06,-11.4687 -4.75,0 -8.33,1.5039 -10.75,4.4844 -2.4,3 -3.6,6.3007 -3.6,9.9145 0,4.851 1.48,9.82 4.48,14.902 3,5.066 6.75,9.015 11.29,11.832 4.51,2.816 9.18,4.219 13.96,4.219 3.45,0 6,-0.7 7.67,-2.102 1.65,-1.398 2.48,-3.051 2.48,-4.965 0,-2.715 -1.06,-5.301 -3.21,-7.769 -2.84,-3.235 -7.01,-5.832 -12.5,-7.813 -3.65,-1.336 -8.79,-2.387 -15.39,-3.117 z m 0.34,2.383 c 4.81,0.551 8.74,1.5 11.76,2.832 4.02,1.781 7.02,3.933 9.02,6.418 2,2.5 3,4.867 3,7.117 0,1.367 -0.43,2.465 -1.3,3.316 -0.85,0.848 -2.08,1.266 -3.68,1.266 -3.32,0 -6.84,-1.769 -10.57,-5.301 -3.73,-3.535 -6.47,-8.75 -8.23,-15.648" /><path
         id="path204"
         style="fill:#231f20;fill-opacity:1;fill-rule:nonzero;stroke:none"
         d="m 1882.38,129.082 15,3.016 h 2.05 l 1.95,-35.6839 22.8,34.5159 h 7.97 l -9.04,-31.9847 c -0.95,-3.2812 -1.41,-5.1172 -1.41,-5.5156 0,-1.0313 0.46,-1.5664 1.41,-1.5664 1.55,0 3.85,2.1679 6.89,6.5 l 1.41,-0.9805 c -1.86,-2.9844 -4.15,-5.5195 -6.86,-7.5703 -2.72,-2.0508 -4.91,-3.0664 -6.57,-3.0664 -2.7,0 -4.05,1.5156 -4.05,4.582 0,1.3672 0.52,3.9024 1.57,7.6172 l 7.61,26.7697 -25.73,-38.9689 h -2.2 l -2.78,40.7659 c -5.99,-20.383 -10.24,-32.2659 -12.75,-35.6643 -2.5,-3.4024 -5.24,-5.1016 -8.2,-5.1016 -2.97,0 -4.45,1.2187 -4.45,3.6523 0,1.0821 0.38,2 1.15,2.7657 0.76,0.7695 1.66,1.1484 2.72,1.1484 0.91,0 2.03,-0.4648 3.36,-1.3633 0.62,-0.4687 1.15,-0.6836 1.62,-0.6836 0.78,0 1.85,1.0313 3.2,3.1133 1.35,2.0859 3.4,7.3871 6.15,15.9021 2.75,8.516 4.11,13.383 4.11,14.617 0,1.5 -1.04,2.25 -3.16,2.25 -1.14,0 -2.64,-0.218 -4.5,-0.636 l 0.73,1.57" /><path
         id="path206"
         style="fill:#231f20;fill-opacity:1;fill-rule:nonzero;stroke:none"
         d="m 1982.23,132.098 -9.52,-33.1019 -1.06,-4.4492 c -0.11,-0.418 -0.15,-0.7657 -0.15,-1.0664 0,-0.5157 0.16,-0.9844 0.48,-1.3672 0.27,-0.3008 0.58,-0.4336 0.98,-0.4336 0.42,0 0.97,0.25 1.65,0.7656 1.28,0.9492 2.97,2.9024 5.09,5.8672 l 1.66,-1.168 c -2.25,-3.3789 -4.57,-5.9648 -6.93,-7.75 -2.38,-1.7656 -4.58,-2.6484 -6.6,-2.6484 -1.4,0 -2.45,0.3516 -3.15,1.0508 -0.7,0.6992 -1.05,1.7148 -1.05,3.0508 0,1.582 0.37,3.6835 1.08,6.2968 l 1.02,3.6525 c -4.27,-5.5665 -8.19,-9.4493 -11.77,-11.6681 -2.56,-1.582 -5.1,-2.3828 -7.57,-2.3828 -2.38,0 -4.43,0.9844 -6.14,2.9492 -1.74,1.9688 -2.59,4.6836 -2.59,8.1328 0,5.1679 1.55,10.6369 4.65,16.3869 3.12,5.734 7.07,10.332 11.85,13.781 3.73,2.734 7.27,4.102 10.6,4.102 1.99,0 3.63,-0.516 4.95,-1.551 1.32,-1.051 2.32,-2.766 3,-5.184 l 1.77,5.567 z m -17.38,-2.536 c -2.09,0 -4.29,-0.984 -6.64,-2.933 -3.31,-2.766 -6.26,-6.867 -8.86,-12.301 -2.59,-5.43 -3.89,-10.348 -3.89,-14.746 0,-2.2187 0.57,-3.9687 1.67,-5.25 1.1,-1.2851 2.38,-1.9179 3.82,-1.9179 3.53,0 7.4,2.6171 11.57,7.8519 5.56,6.964 8.34,14.113 8.34,21.429 0,2.77 -0.53,4.77 -1.61,6.02 -1.07,1.234 -2.54,1.847 -4.4,1.847" /><path
         id="path208"
         style="fill:#231f20;fill-opacity:1;fill-rule:nonzero;stroke:none"
         d="m 2057.43,132.098 -3.36,-11.219 c 3.54,4.168 6.71,7.066 9.5,8.734 2.78,1.668 5.61,2.485 8.51,2.485 2.9,0 5.37,-1.133 7.42,-3.434 2.05,-2.301 3.08,-5.285 3.08,-8.965 0,-7.152 -2.92,-14.433 -8.73,-21.8513 -5.83,-7.3985 -12.62,-11.1016 -20.37,-11.1016 -1.63,0 -3.07,0.168 -4.32,0.5351 -1.26,0.3477 -2.66,0.9805 -4.23,1.8985 l -3.57,-12.5977 c -0.71,-2.4687 -1.06,-4.0859 -1.06,-4.832 0,-0.7188 0.18,-1.3203 0.56,-1.8359 0.37,-0.5 0.99,-0.8829 1.82,-1.168 0.85,-0.2852 2.53,-0.418 5.03,-0.418 l -0.43,-1.7969 h -23 l 0.49,1.7969 c 3.03,0.1328 5.06,0.6524 6.13,1.5703 1.05,0.9141 2.16,3.4297 3.35,7.5625 l 12.35,42.7691 c 0.75,2.715 1.11,4.383 1.11,5.032 0,0.886 -0.25,1.566 -0.75,2.054 -0.51,0.496 -1.28,0.731 -2.31,0.731 -0.95,0 -2.27,-0.117 -3.97,-0.332 v 1.898 z m -11.37,-39.0511 c 2.02,-2.418 4.74,-3.6172 8.15,-3.6172 1.69,0 3.42,0.4687 5.17,1.418 1.77,0.9335 3.48,2.332 5.15,4.1992 1.68,1.8515 3.18,3.9843 4.52,6.4181 1.33,2.418 2.53,5.281 3.6,8.566 1.05,3.285 1.58,6.551 1.58,9.766 0,2.601 -0.6,4.601 -1.78,5.984 -1.19,1.383 -2.58,2.067 -4.17,2.067 -3.52,0 -7,-2.02 -10.43,-6.051 -3.44,-4.035 -5.95,-8.75 -7.55,-14.149 l -4.24,-14.6011" /><path
         id="path210"
         style="fill:#231f20;fill-opacity:1;fill-rule:nonzero;stroke:none"
         d="m 2097.23,106.332 c -0.23,-1.633 -0.35,-2.984 -0.35,-4.07 0,-2.8831 1.03,-5.3479 3.08,-7.3987 2.05,-2.0313 4.54,-3.0508 7.47,-3.0508 2.35,0 4.6,0.4844 6.77,1.4492 2.16,0.9531 5.38,3.086 9.65,6.3672 l 1.01,-1.4141 c -7.71,-7.6523 -15.06,-11.4687 -22.06,-11.4687 -4.75,0 -8.34,1.5039 -10.75,4.4844 -2.4,3 -3.6,6.3007 -3.6,9.9145 0,4.851 1.48,9.82 4.48,14.902 3,5.066 6.75,9.015 11.28,11.832 4.52,2.816 9.19,4.219 13.97,4.219 3.45,0 6,-0.7 7.67,-2.102 1.65,-1.398 2.48,-3.051 2.48,-4.965 0,-2.715 -1.06,-5.301 -3.22,-7.769 -2.83,-3.235 -7,-5.832 -12.5,-7.813 -3.65,-1.336 -8.78,-2.387 -15.38,-3.117 z m 0.34,2.383 c 4.81,0.551 8.74,1.5 11.76,2.832 4.02,1.781 7.02,3.933 9.02,6.418 2,2.5 3,4.867 3,7.117 0,1.367 -0.44,2.465 -1.3,3.316 -0.85,0.848 -2.09,1.266 -3.69,1.266 -3.31,0 -6.83,-1.769 -10.56,-5.301 -3.74,-3.535 -6.47,-8.75 -8.23,-15.648" /><path
         id="path212"
         style="fill:#231f20;fill-opacity:1;fill-rule:nonzero;stroke:none"
         d="m 2201.43,97.5312 c -4.53,-7.1835 -8.98,-10.7851 -13.38,-10.7851 -2.53,0 -3.82,1.4531 -3.82,4.332 0,2.3867 1.67,8.9024 4.98,19.5349 -9.15,-15.9177 -17.25,-23.8669 -24.31,-23.8669 -1.52,0 -2.77,0.5351 -3.74,1.6367 -0.95,1.082 -1.43,2.5625 -1.43,4.4141 0,3.0351 1.47,8.9691 4.39,17.8161 -9.02,-15.9177 -17.1,-23.8669 -24.27,-23.8669 -1.82,0 -3.15,0.6172 -4,1.8516 -0.85,1.2304 -1.27,2.6171 -1.27,4.1484 0,2.7656 1.57,9.3829 4.69,19.8359 2.05,6.98 3.08,11.117 3.08,12.398 0,1.133 -0.44,1.7 -1.27,1.7 -1.37,0 -3.58,-2.082 -6.65,-6.25 l -1.6,1.082 c 3.45,4.617 6.13,7.535 8.07,8.769 1.95,1.215 3.75,1.817 5.45,1.817 2.77,0 4.15,-1.536 4.15,-4.637 0,-1.297 -0.25,-2.832 -0.73,-4.613 -0.49,-1.766 -2.54,-8.985 -6.15,-21.653 -0.89,-3.1638 -1.32,-5.2653 -1.32,-6.2966 0,-1.6367 0.78,-2.4531 2.33,-2.4531 2.48,0 6.33,3.1836 11.58,9.5507 5.24,6.367 9.25,14.367 12.02,24 l 1.4,4.934 h 7.44 l -8.84,-30.715 c -0.78,-2.6369 -1.18,-4.3673 -1.18,-5.2189 0,-1.6016 0.77,-2.3984 2.3,-2.3984 1.36,0 3,0.6484 4.88,1.9335 1.88,1.2813 4.52,4.2149 7.9,8.7808 3.4,4.586 5.94,8.786 7.65,12.637 1.72,3.832 3.38,8.832 5,14.981 h 7.43 l -9.33,-32.0316 c -0.72,-2.4336 -1.06,-4.1679 -1.06,-5.1679 0,-1.2149 0.46,-1.8164 1.41,-1.8164 0.62,0 1.59,0.6836 2.92,2.0312 1.33,1.3516 2.56,2.918 3.67,4.7188 l 1.61,-1.1329" /><path
         id="path214"
         style="fill:#231f20;fill-opacity:1;fill-rule:nonzero;stroke:none"
         d="m 2217.1,106.332 c -0.23,-1.633 -0.35,-2.984 -0.35,-4.07 0,-2.8831 1.03,-5.3479 3.08,-7.3987 2.05,-2.0313 4.53,-3.0508 7.47,-3.0508 2.35,0 4.6,0.4844 6.76,1.4492 2.17,0.9531 5.39,3.086 9.65,6.3672 l 1.02,-1.4141 c -7.71,-7.6523 -15.07,-11.4687 -22.07,-11.4687 -4.75,0 -8.33,1.5039 -10.75,4.4844 -2.39,3 -3.6,6.3007 -3.6,9.9145 0,4.851 1.49,9.82 4.49,14.902 3,5.066 6.75,9.015 11.28,11.832 4.52,2.816 9.18,4.219 13.97,4.219 3.45,0 6,-0.7 7.66,-2.102 1.65,-1.398 2.49,-3.051 2.49,-4.965 0,-2.715 -1.07,-5.301 -3.22,-7.769 -2.83,-3.235 -7,-5.832 -12.5,-7.813 -3.65,-1.336 -8.78,-2.387 -15.38,-3.117 z m 0.33,2.383 c 4.82,0.551 8.75,1.5 11.77,2.832 4.01,1.781 7.01,3.933 9.01,6.418 2,2.5 3,4.867 3,7.117 0,1.367 -0.43,2.465 -1.3,3.316 -0.85,0.848 -2.08,1.266 -3.68,1.266 -3.32,0 -6.83,-1.769 -10.57,-5.301 -3.73,-3.535 -6.46,-8.75 -8.23,-15.648" /><path
         id="path216"
         style="fill:#231f20;fill-opacity:1;fill-rule:nonzero;stroke:none"
         d="m 2254.93,129.082 15,3.016 h 1.75 l -5.8,-20.45 h 16.83 l 5.57,19.282 h 7.52 L 2286,97.25 c -0.54,-1.8711 -0.79,-3.0508 -0.79,-3.5703 0,-0.8164 0.36,-1.2344 1.07,-1.2344 1.43,0 3.83,2.1524 7.18,6.4531 l 1.65,-0.8867 c -5.16,-7.5156 -9.78,-11.2656 -13.81,-11.2656 -2.53,0 -3.8,1.5156 -3.8,4.5351 0,1.5 0.62,4.3985 1.85,8.6993 l 2.68,9.2145 h -16.88 l -6.2,-21.2809 h -7.38 l 9.46,32.5159 c 0.72,2.484 1.08,4.05 1.08,4.734 0,1.766 -1.08,2.648 -3.26,2.648 -0.53,0 -1.83,-0.113 -3.92,-0.351 v 1.621" /><path
         id="path218"
         style="fill:#231f20;fill-opacity:1;fill-rule:nonzero;stroke:none"
         d="m 2346.25,130.93 -8.5,-29.098 c -1.27,-4.3359 -1.9,-7.0664 -1.9,-8.1992 0,-0.5859 0.11,-1.0195 0.31,-1.3008 0.22,-0.2695 0.5,-0.4179 0.87,-0.4179 0.55,0 1.15,0.25 1.82,0.7656 0.67,0.5 2.35,2.5156 5.06,6.0156 l 1.46,-1.1172 c -2.57,-4.0625 -5.21,-7.0664 -7.91,-8.9804 -1.79,-1.2344 -3.51,-1.8516 -5.18,-1.8516 -1.26,0 -2.25,0.3516 -2.97,1.0703 -0.71,0.7148 -1.08,1.6484 -1.08,2.7813 0,1.1171 0.22,2.5664 0.64,4.3984 0.53,2.4023 1.99,7.6519 4.45,15.7149 -5.53,-9.082 -10.17,-15.3477 -13.91,-18.7969 -3.71,-3.4493 -7.18,-5.168 -10.36,-5.168 -1.5,0 -2.77,0.5195 -3.82,1.5508 -1.03,1.0508 -1.55,2.3672 -1.55,3.9687 0,2.4297 0.72,6.1797 2.14,11.2304 l 4.24,15.086 c 1.06,3.613 1.57,5.848 1.57,6.73 0,0.403 -0.13,0.735 -0.42,1 -0.26,0.286 -0.56,0.418 -0.89,0.418 -0.69,0 -1.37,-0.25 -2.05,-0.734 -0.69,-0.48 -2.23,-2.297 -4.64,-5.418 l -1.51,1.067 c 2.43,3.785 5.03,6.57 7.76,8.351 2.08,1.402 4,2.102 5.75,2.102 1.22,0 2.2,-0.383 2.97,-1.133 0.75,-0.766 1.13,-1.75 1.13,-2.969 0,-1.75 -0.65,-4.898 -1.95,-9.414 l -4.58,-15.77 c -1.27,-4.3003 -1.9,-7.0151 -1.9,-8.1675 0,-0.6133 0.2,-1.1172 0.6,-1.4804 0.42,-0.3829 0.95,-0.5664 1.63,-0.5664 1.09,0 2.49,0.5312 4.2,1.6171 1.73,1.0664 4.04,3.4493 6.92,7.1482 2.88,3.699 5.25,7.168 7.13,10.403 1.87,3.23 3.87,8.398 5.97,15.445 l 1.08,3.719 h 7.42" /><path
         id="path220"
         style="fill:#231f20;fill-opacity:1;fill-rule:nonzero;stroke:none"
         d="m 2395.18,155.348 h 2.28 c -3.76,-8.403 -9.11,-12.602 -16.05,-12.602 -3.2,0 -5.84,0.781 -7.93,2.352 -2.1,1.55 -3.15,3.464 -3.15,5.699 0,1.285 0.37,2.348 1.08,3.234 0.74,0.883 1.74,1.317 2.97,1.317 1.14,0 2.07,-0.332 2.8,-0.985 0.73,-0.648 1.52,-1.836 2.37,-3.566 1.23,-2.567 3.05,-3.852 5.41,-3.852 2.19,0 4.24,0.918 6.17,2.77 1.92,1.832 3.27,3.715 4.05,5.633 z m 1.07,-24.418 -8.5,-29.098 c -1.27,-4.3672 -1.9,-7.1523 -1.9,-8.3515 0,-1.0508 0.4,-1.5664 1.18,-1.5664 0.52,0 1.15,0.2812 1.92,0.832 0.76,0.5508 2.41,2.5351 4.96,5.9492 l 1.46,-1.1172 c -4.62,-7.2304 -9.05,-10.832 -13.32,-10.832 -1.05,0 -1.93,0.3359 -2.67,1.0156 -0.73,0.6836 -1.1,1.6524 -1.1,2.8828 0,2.1875 1.68,8.8672 5.04,20.0665 -9.39,-15.9805 -17.39,-23.9649 -24.04,-23.9649 -1.78,0 -3.17,0.5508 -4.15,1.6523 -0.97,1.1133 -1.45,2.4961 -1.45,4.1485 0,2.25 0.72,5.8984 2.14,10.9491 l 4.24,15.086 c 1.06,3.648 1.57,5.801 1.57,6.5 0,1.098 -0.48,1.648 -1.47,1.648 -1.23,0 -3.41,-2.05 -6.53,-6.152 l -1.51,1.067 c 4.51,6.968 9.03,10.453 13.51,10.453 1.22,0 2.2,-0.383 2.97,-1.133 0.75,-0.766 1.13,-1.77 1.13,-3.02 0,-1.715 -0.65,-4.847 -1.95,-9.363 l -4.58,-15.77 c -1.27,-4.3003 -1.9,-7.0151 -1.9,-8.1675 0,-1.3633 0.75,-2.0468 2.28,-2.0468 1.18,0 2.7,0.6328 4.6,1.914 1.88,1.2695 4.52,4.168 7.89,8.7343 3.36,4.551 5.74,8.332 7.14,11.332 1.4,2.984 2.92,7.199 4.54,12.633 l 1.08,3.719 h 7.42" /><path
         id="path222"
         style="fill:#231f20;fill-opacity:1;fill-rule:nonzero;stroke:none"
         d="m 2454.55,129.082 15,3.016 h 1.75 l -5.8,-20.45 h 16.84 l 5.56,19.282 h 7.51 l -9.79,-33.68 c -0.54,-1.8711 -0.78,-3.0508 -0.78,-3.5703 0,-0.8164 0.34,-1.2344 1.06,-1.2344 1.44,0 3.83,2.1524 7.18,6.4531 l 1.65,-0.8867 c -5.16,-7.5156 -9.78,-11.2656 -13.81,-11.2656 -2.54,0 -3.8,1.5156 -3.8,4.5351 0,1.5 0.61,4.3985 1.84,8.6993 l 2.69,9.2145 h -16.88 l -6.2,-21.2809 h -7.39 l 9.47,32.5159 c 0.72,2.484 1.08,4.05 1.08,4.734 0,1.766 -1.08,2.648 -3.26,2.648 -0.54,0 -1.84,-0.113 -3.92,-0.351 v 1.621" /><path
         id="path224"
         style="fill:#231f20;fill-opacity:1;fill-rule:nonzero;stroke:none"
         d="m 2510.72,106.332 c -0.24,-1.633 -0.35,-2.984 -0.35,-4.07 0,-2.8831 1.03,-5.3479 3.08,-7.3987 2.05,-2.0313 4.53,-3.0508 7.46,-3.0508 2.36,0 4.61,0.4844 6.77,1.4492 2.17,0.9531 5.39,3.086 9.65,6.3672 l 1.02,-1.4141 c -7.72,-7.6523 -15.07,-11.4687 -22.06,-11.4687 -4.75,0 -8.34,1.5039 -10.76,4.4844 -2.4,3 -3.6,6.3007 -3.6,9.9145 0,4.851 1.49,9.82 4.49,14.902 2.99,5.066 6.75,9.015 11.28,11.832 4.52,2.816 9.18,4.219 13.97,4.219 3.45,0 5.99,-0.7 7.66,-2.102 1.65,-1.398 2.49,-3.051 2.49,-4.965 0,-2.715 -1.07,-5.301 -3.22,-7.769 -2.83,-3.235 -7,-5.832 -12.5,-7.813 -3.65,-1.336 -8.78,-2.387 -15.38,-3.117 z m 0.33,2.383 c 4.82,0.551 8.75,1.5 11.77,2.832 4.02,1.781 7.01,3.933 9.01,6.418 2,2.5 3,4.867 3,7.117 0,1.367 -0.43,2.465 -1.3,3.316 -0.85,0.848 -2.08,1.266 -3.68,1.266 -3.31,0 -6.83,-1.769 -10.57,-5.301 -3.73,-3.535 -6.46,-8.75 -8.23,-15.648" /><path
         id="path226"
         style="fill:#231f20;fill-opacity:1;fill-rule:nonzero;stroke:none"
         d="m 2640.25,130.93 -8.5,-29.098 c -1.26,-4.3359 -1.9,-7.0664 -1.9,-8.1992 0,-0.5859 0.12,-1.0195 0.32,-1.3008 0.22,-0.2695 0.5,-0.4179 0.87,-0.4179 0.55,0 1.14,0.25 1.82,0.7656 0.66,0.5 2.34,2.5156 5.06,6.0156 l 1.45,-1.1172 c -2.57,-4.0625 -5.2,-7.0664 -7.9,-8.9804 -1.8,-1.2344 -3.52,-1.8516 -5.18,-1.8516 -1.27,0 -2.25,0.3516 -2.97,1.0703 -0.71,0.7148 -1.09,1.6484 -1.09,2.7813 0,1.1171 0.22,2.5664 0.64,4.3984 0.53,2.4023 2,7.6519 4.45,15.7149 -5.53,-9.082 -10.17,-15.3477 -13.9,-18.7969 -3.72,-3.4493 -7.18,-5.168 -10.37,-5.168 -1.5,0 -2.76,0.5195 -3.82,1.5508 -1.03,1.0508 -1.54,2.3672 -1.54,3.9687 0,2.4297 0.71,6.1797 2.13,11.2304 l 4.25,15.086 c 1.05,3.613 1.57,5.848 1.57,6.73 0,0.403 -0.14,0.735 -0.42,1 -0.27,0.286 -0.57,0.418 -0.9,0.418 -0.68,0 -1.37,-0.25 -2.05,-0.734 -0.68,-0.48 -2.23,-2.297 -4.63,-5.418 l -1.52,1.067 c 2.43,3.785 5.03,6.57 7.77,8.351 2.08,1.402 4,2.102 5.75,2.102 1.21,0 2.2,-0.383 2.97,-1.133 0.74,-0.766 1.13,-1.75 1.13,-2.969 0,-1.75 -0.65,-4.898 -1.95,-9.414 l -4.59,-15.77 c -1.26,-4.3003 -1.9,-7.0151 -1.9,-8.1675 0,-0.6133 0.2,-1.1172 0.6,-1.4804 0.42,-0.3829 0.95,-0.5664 1.64,-0.5664 1.08,0 2.48,0.5312 4.2,1.6171 1.73,1.0664 4.03,3.4493 6.91,7.1482 2.89,3.699 5.25,7.168 7.14,10.403 1.86,3.23 3.86,8.398 5.96,15.445 l 1.09,3.719 h 7.41" /><path
         id="path228"
         style="fill:#231f20;fill-opacity:1;fill-rule:nonzero;stroke:none"
         d="m 2654.07,129.082 15,3.016 h 2.05 l 1.95,-35.6839 22.8,34.5159 h 7.97 l -9.04,-31.9847 c -0.95,-3.2812 -1.41,-5.1172 -1.41,-5.5156 0,-1.0313 0.46,-1.5664 1.41,-1.5664 1.55,0 3.85,2.1679 6.89,6.5 l 1.41,-0.9805 c -1.87,-2.9844 -4.15,-5.5195 -6.87,-7.5703 -2.71,-2.0508 -4.89,-3.0664 -6.56,-3.0664 -2.7,0 -4.05,1.5156 -4.05,4.582 0,1.3672 0.52,3.9024 1.56,7.6172 l 7.62,26.7697 -25.73,-38.9689 h -2.2 l -2.78,40.7659 c -5.99,-20.383 -10.24,-32.2659 -12.75,-35.6643 -2.5,-3.4024 -5.24,-5.1016 -8.2,-5.1016 -2.97,0 -4.46,1.2187 -4.46,3.6523 0,1.0821 0.39,2 1.16,2.7657 0.77,0.7695 1.66,1.1484 2.71,1.1484 0.92,0 2.04,-0.4648 3.37,-1.3633 0.62,-0.4687 1.15,-0.6836 1.62,-0.6836 0.78,0 1.85,1.0313 3.19,3.1133 1.36,2.0859 3.41,7.3871 6.16,15.9021 2.75,8.516 4.11,13.383 4.11,14.617 0,1.5 -1.05,2.25 -3.16,2.25 -1.14,0 -2.64,-0.218 -4.5,-0.636 l 0.73,1.57" /><path
         id="path230"
         style="fill:#231f20;fill-opacity:1;fill-rule:nonzero;stroke:none"
         d="m 2718.92,106.332 c -0.23,-1.633 -0.35,-2.984 -0.35,-4.07 0,-2.8831 1.03,-5.3479 3.08,-7.3987 2.05,-2.0313 4.53,-3.0508 7.47,-3.0508 2.35,0 4.6,0.4844 6.76,1.4492 2.17,0.9531 5.39,3.086 9.66,6.3672 l 1.01,-1.4141 c -7.71,-7.6523 -15.07,-11.4687 -22.07,-11.4687 -4.75,0 -8.33,1.5039 -10.75,4.4844 -2.39,3 -3.6,6.3007 -3.6,9.9145 0,4.851 1.49,9.82 4.49,14.902 3,5.066 6.75,9.015 11.28,11.832 4.52,2.816 9.19,4.219 13.97,4.219 3.45,0 6,-0.7 7.67,-2.102 1.64,-1.398 2.48,-3.051 2.48,-4.965 0,-2.715 -1.07,-5.301 -3.22,-7.769 -2.83,-3.235 -7,-5.832 -12.5,-7.813 -3.65,-1.336 -8.78,-2.387 -15.38,-3.117 z m 0.33,2.383 c 4.82,0.551 8.75,1.5 11.77,2.832 4.02,1.781 7.02,3.933 9.02,6.418 2,2.5 3,4.867 3,7.117 0,1.367 -0.44,2.465 -1.31,3.316 -0.85,0.848 -2.08,1.266 -3.68,1.266 -3.32,0 -6.83,-1.769 -10.57,-5.301 -3.73,-3.535 -6.46,-8.75 -8.23,-15.648" /><path
         id="path232"
         style="fill:#231f20;fill-opacity:1;fill-rule:nonzero;stroke:none"
         d="m 2763.3,106.332 c -0.23,-1.633 -0.35,-2.984 -0.35,-4.07 0,-2.8831 1.03,-5.3479 3.09,-7.3987 2.05,-2.0313 4.53,-3.0508 7.46,-3.0508 2.35,0 4.6,0.4844 6.77,1.4492 2.17,0.9531 5.38,3.086 9.65,6.3672 l 1.01,-1.4141 c -7.71,-7.6523 -15.06,-11.4687 -22.06,-11.4687 -4.75,0 -8.33,1.5039 -10.75,4.4844 -2.4,3 -3.6,6.3007 -3.6,9.9145 0,4.851 1.48,9.82 4.48,14.902 3,5.066 6.75,9.015 11.29,11.832 4.51,2.816 9.18,4.219 13.96,4.219 3.45,0 6,-0.7 7.67,-2.102 1.65,-1.398 2.48,-3.051 2.48,-4.965 0,-2.715 -1.06,-5.301 -3.21,-7.769 -2.84,-3.235 -7.01,-5.832 -12.5,-7.813 -3.65,-1.336 -8.79,-2.387 -15.39,-3.117 z m 0.34,2.383 c 4.81,0.551 8.74,1.5 11.76,2.832 4.02,1.781 7.02,3.933 9.02,6.418 2,2.5 3,4.867 3,7.117 0,1.367 -0.44,2.465 -1.3,3.316 -0.85,0.848 -2.08,1.266 -3.68,1.266 -3.32,0 -6.84,-1.769 -10.57,-5.301 -3.73,-3.535 -6.47,-8.75 -8.23,-15.648" /><path
         id="path234"
         style="fill:#231f20;fill-opacity:1;fill-rule:nonzero;stroke:none"
         d="m 2816.14,132.098 -6.35,-22.016 c 2.83,5.184 5.23,9.063 7.23,11.664 3.09,4.035 6.1,6.965 9.03,8.801 1.72,1.035 3.52,1.551 5.42,1.551 1.62,0 2.97,-0.516 4.05,-1.551 1.07,-1.051 1.62,-2.383 1.62,-4.016 0,-1.582 -0.39,-3.668 -1.14,-6.254 l -3.46,-12.398 c 5.32,9.933 10.33,16.902 15.08,20.902 2.65,2.215 5.25,3.317 7.82,3.317 1.5,0 2.73,-0.5 3.68,-1.536 0.97,-1.015 1.45,-2.617 1.45,-4.765 0,-1.883 -0.3,-3.883 -0.88,-6 l -5.37,-19 c -1.18,-4.1329 -1.77,-6.4181 -1.77,-6.8829 0,-0.4493 0.15,-0.8321 0.45,-1.168 0.19,-0.2305 0.45,-0.332 0.79,-0.332 0.31,0 0.88,0.2968 1.7,0.9179 1.85,1.4336 3.6,3.3164 5.23,5.6641 l 1.6,-1.0156 c -0.82,-1.3164 -2.25,-3.0977 -4.32,-5.3828 -2.06,-2.2657 -3.83,-3.8165 -5.3,-4.6329 -1.46,-0.8164 -2.81,-1.2187 -4.04,-1.2187 -1.14,0 -2.11,0.3867 -2.86,1.168 -0.76,0.7812 -1.14,1.7304 -1.14,2.8828 0,1.5664 0.66,4.6992 1.99,9.4181 l 4.44,15.683 c 1.02,3.618 1.55,5.614 1.61,6 0.1,0.614 0.15,1.215 0.15,1.801 0,0.817 -0.18,1.446 -0.53,1.914 -0.4,0.453 -0.83,0.684 -1.32,0.684 -1.36,0 -2.81,-0.699 -4.35,-2.102 -4.49,-4.133 -8.7,-9.929 -12.6,-17.379 -2.56,-4.918 -4.98,-11.2183 -7.23,-18.9019 h -7.36 l 8.34,29.5349 c 0.92,3.199 1.37,5.332 1.37,6.399 0,0.882 -0.18,1.531 -0.53,1.949 -0.37,0.433 -0.8,0.652 -1.32,0.652 -1.08,0 -2.21,-0.402 -3.42,-1.187 -1.96,-1.266 -4.46,-3.981 -7.54,-8.149 -3.09,-4.168 -5.47,-8.148 -7.15,-11.965 -0.82,-1.785 -2.76,-7.5347 -5.82,-17.2339 h -7.22 l 9.03,31.6329 1.17,4.117 c 0.24,0.613 0.34,1.066 0.34,1.367 0,0.715 -0.32,1.348 -0.97,1.914 -0.65,0.567 -1.49,0.867 -2.5,0.867 -0.42,0 -1.58,-0.199 -3.52,-0.601 l -0.43,1.82 16.85,3.067" /><path
         id="path236"
         style="fill:none;stroke:#231f20;stroke-width:5.00029993;stroke-linecap:butt;stroke-linejoin:miter;stroke-miterlimit:2.61310005;stroke-dasharray:none;stroke-opacity:1"
         d="m 1875.89,364.762 h 60.2" /><path
         id="path238"
         style="fill:#231f20;fill-opacity:1;fill-rule:nonzero;stroke:none"
         d="m 1901.09,435.684 16.12,7.867 h 1.62 v -55.918 c 0,-3.699 0.15,-6.016 0.45,-6.93 0.32,-0.902 0.97,-1.601 1.93,-2.101 0.99,-0.485 2.97,-0.766 5.97,-0.836 v -1.797 h -24.92 v 1.797 c 3.13,0.07 5.15,0.336 6.07,0.816 0.9,0.469 1.53,1.102 1.9,1.902 0.35,0.801 0.54,3.184 0.54,7.149 v 35.75 c 0,4.816 -0.17,7.902 -0.49,9.269 -0.23,1.047 -0.65,1.817 -1.25,2.297 -0.6,0.485 -1.32,0.735 -2.17,0.735 -1.2,0 -2.88,-0.5 -5.03,-1.516 l -0.74,1.516" /><path
         id="path240"
         style="fill:#231f20;fill-opacity:1;fill-rule:nonzero;stroke:none"
         d="m 1932.23,295.57 -4.64,-12.75 h -39.07 v 1.801 c 11.49,10.481 19.59,19.047 24.27,25.684 4.68,6.652 7.03,12.715 7.03,18.215 0,4.203 -1.28,7.652 -3.86,10.351 -2.57,2.699 -5.64,4.051 -9.22,4.051 -3.26,0 -6.18,-0.953 -8.76,-2.852 -2.59,-1.902 -4.5,-4.699 -5.74,-8.367 h -1.81 c 0.81,6.02 2.89,10.633 6.28,13.867 3.36,3.219 7.57,4.832 12.61,4.832 5.37,0 9.86,-1.73 13.45,-5.183 3.61,-3.449 5.41,-7.516 5.41,-12.196 0,-3.351 -0.79,-6.718 -2.36,-10.07 -2.4,-5.265 -6.31,-10.848 -11.71,-16.75 -8.1,-8.848 -13.17,-14.18 -15.18,-16.015 h 17.28 c 3.52,0 5.98,0.132 7.4,0.398 1.41,0.25 2.7,0.785 3.83,1.582 1.13,0.805 2.13,1.937 2.99,3.402 h 1.8" /></g></g></svg>