<?xml version="1.0" encoding="UTF-8" standalone="no"?>
<svg
   xmlns:dc="http://purl.org/dc/elements/1.1/"
   xmlns:cc="http://creativecommons.org/ns#"
   xmlns:rdf="http://www.w3.org/1999/02/22-rdf-syntax-ns#"
   xmlns:svg="http://www.w3.org/2000/svg"
   xmlns="http://www.w3.org/2000/svg"
   viewBox="0 0 348 80"
   height="80"
   width="348"
   xml:space="preserve"
   id="svg2"
   version="1.1"><metadata
     id="metadata8"><rdf:RDF><cc:Work
         rdf:about=""><dc:format>image/svg+xml</dc:format><dc:type
           rdf:resource="http://purl.org/dc/dcmitype/StillImage" /></cc:Work></rdf:RDF></metadata><defs
     id="defs6"><clipPath
       id="clipPath38"
       clipPathUnits="userSpaceOnUse"><path
         style="clip-rule:evenodd"
         id="path36"
         d="m 2501.39,214.75 h -237.21 v -58.703 h 237.21 z" /></clipPath><clipPath
       id="clipPath84"
       clipPathUnits="userSpaceOnUse"><path
         style="clip-rule:evenodd"
         id="path82"
         d="m 2279.45,506.227 h 277.88 v -58.704 h -277.88 z" /></clipPath><clipPath
       id="clipPath142"
       clipPathUnits="userSpaceOnUse"><path
         style="clip-rule:evenodd"
         id="path140"
         d="m 1612.87,506.227 h 287.58 v -58.704 h -287.58 z" /></clipPath><clipPath
       id="clipPath222"
       clipPathUnits="userSpaceOnUse"><path
         style="clip-rule:evenodd"
         id="path220"
         d="M 469.168,215.199 H 900.887 V 156.496 H 469.168 Z" /></clipPath><clipPath
       id="clipPath278"
       clipPathUnits="userSpaceOnUse"><path
         style="clip-rule:evenodd"
         id="path276"
         d="M 208.871,506.227 H 496.449 V 447.523 H 208.871 Z" /></clipPath></defs><g
     transform="matrix(1.3333333,0,0,-1.3333333,0,80)"
     id="g10"><g
       transform="scale(0.1)"
       id="g12"><path
         id="path14"
         style="fill:none;stroke:#231f20;stroke-width:7.5005002;stroke-linecap:butt;stroke-linejoin:miter;stroke-miterlimit:2.61310005;stroke-dasharray:none;stroke-opacity:1"
         d="m 2398.69,296.879 h 190.72" /><path
         id="path16"
         style="fill:#231f20;fill-opacity:1;fill-rule:nonzero;stroke:none"
         d="m 18.9102,494.066 16.1171,7.868 h 1.6172 v -55.918 c 0,-3.7 0.1485,-6.016 0.4493,-6.934 0.3203,-0.898 0.9687,-1.602 1.9335,-2.098 0.9844,-0.488 2.9688,-0.765 5.9688,-0.836 v -1.8 h -24.918 v 1.8 c 3.1328,0.071 5.1524,0.336 6.0664,0.817 0.9024,0.469 1.5352,1.101 1.8985,1.898 0.3515,0.805 0.5351,3.184 0.5351,7.153 v 35.75 c 0,4.816 -0.164,7.902 -0.4843,9.265 -0.2305,1.051 -0.6485,1.821 -1.25,2.301 -0.6016,0.484 -1.3126,0.734 -2.1641,0.734 -1.2031,0 -2.8828,-0.504 -5.0352,-1.515 l -0.7343,1.515" /><path
         id="path18"
         style="fill:#231f20;fill-opacity:1;fill-rule:nonzero;stroke:none"
         d="m 59.4453,501.73 v 2.051 c 4.9492,-2.433 9.0664,-5.316 12.3516,-8.648 4.6484,-4.75 8.2461,-10.317 10.7812,-16.715 2.5469,-6.402 3.8164,-13.07 3.8164,-20.004 0,-10.082 -2.4843,-19.281 -7.4492,-27.598 -4.9687,-8.316 -11.4648,-14.265 -19.5,-17.851 v 1.801 c 4,2.25 7.3008,5.281 9.8828,9.117 2.5821,3.816 4.5157,8.683 5.7657,14.597 1.25,5.903 1.8828,12.071 1.8828,18.469 0,6.934 -0.5508,13.266 -1.6133,19 -0.8164,4.5 -1.836,8.082 -3.0508,10.801 -1.2344,2.699 -2.8516,5.297 -4.8672,7.797 -2.0156,2.519 -4.6836,4.902 -8,7.183" /><path
         id="path20"
         style="fill:#231f20;fill-opacity:1;fill-rule:nonzero;stroke:none"
         d="m 18.3477,175.266 c 1.8867,4.453 4.2695,7.902 7.1523,10.316 2.8828,2.434 6.4688,3.652 10.7656,3.652 5.3008,0 9.3672,-1.734 12.2032,-5.183 2.1484,-2.567 3.2343,-5.317 3.2343,-8.25 0,-4.817 -3.039,-9.801 -9.0859,-14.934 4.0664,-1.601 7.1328,-3.883 9.2187,-6.851 2.0821,-2.946 3.1329,-6.43 3.1329,-10.45 0,-5.714 -1.8204,-10.683 -5.4688,-14.882 -4.75,-5.465 -11.6328,-8.2 -20.6523,-8.2 -4.4649,0 -7.4961,0.547 -9.1133,1.653 -1.6016,1.113 -2.418,2.297 -2.418,3.566 0,0.949 0.3828,1.781 1.1484,2.5 0.7696,0.715 1.6836,1.067 2.7657,1.067 0.8047,0 1.6367,-0.137 2.4883,-0.383 0.5507,-0.168 1.8007,-0.77 3.7656,-1.785 1.9492,-1.036 3.3008,-1.637 4.0508,-1.832 1.1953,-0.368 2.4804,-0.536 3.8476,-0.536 3.3164,0 6.2149,1.282 8.668,3.852 2.4648,2.562 3.6836,5.613 3.6836,9.133 0,2.562 -0.5664,5.082 -1.7032,7.515 -0.8476,1.817 -1.7812,3.2 -2.7812,4.149 -1.3984,1.301 -3.3164,2.484 -5.7656,3.535 -2.4336,1.066 -4.9336,1.602 -7.4688,1.602 h -1.5664 v 1.464 c 2.5664,0.317 5.1524,1.25 7.7344,2.782 2.6016,1.519 4.4844,3.371 5.6523,5.519 1.1641,2.149 1.7461,4.5 1.7461,7.067 0,3.367 -1.0468,6.066 -3.1484,8.132 -2.1016,2.067 -4.6992,3.098 -7.8359,3.098 -5.0469,0 -9.2461,-2.695 -12.6485,-8.098 l -1.6015,0.782" /><path
         id="path22"
         style="fill:#231f20;fill-opacity:1;fill-rule:nonzero;stroke:none"
         d="m 65.5156,189.031 v 2.055 c 4.9492,-2.438 9.0664,-5.32 12.3516,-8.652 4.6484,-4.75 8.25,-10.317 10.7851,-16.715 2.5469,-6.403 3.8125,-13.071 3.8125,-20.004 0,-10.082 -2.4804,-19.281 -7.4492,-27.598 -4.9648,-8.316 -11.4648,-14.265 -19.5,-17.851 v 1.8 c 4,2.25 7.3008,5.286 9.8828,9.122 2.586,3.812 4.5196,8.679 5.7696,14.597 1.25,5.899 1.8828,12.067 1.8828,18.465 0,6.934 -0.5508,13.266 -1.6172,19 -0.8164,4.5 -1.8359,8.082 -3.0508,10.801 -1.2305,2.699 -2.8516,5.297 -4.8672,7.797 -2.0156,2.519 -4.6836,4.902 -8,7.183" /><path
         id="path24"
         style="fill:#231f20;fill-opacity:1;fill-rule:nonzero;stroke:none"
         d="m 1469.09,422.812 -4.64,-12.75 h -39.06 v 1.801 c 11.49,10.481 19.58,19.047 24.27,25.684 4.68,6.648 7.03,12.715 7.03,18.215 0,4.199 -1.28,7.648 -3.87,10.347 -2.56,2.703 -5.63,4.051 -9.21,4.051 -3.27,0 -6.18,-0.949 -8.77,-2.848 -2.58,-1.902 -4.5,-4.699 -5.73,-8.367 h -1.82 c 0.82,6.016 2.9,10.633 6.28,13.867 3.37,3.215 7.57,4.833 12.62,4.833 5.37,0 9.85,-1.731 13.45,-5.184 3.6,-3.449 5.4,-7.516 5.4,-12.199 0,-3.352 -0.78,-6.719 -2.35,-10.067 -2.4,-5.269 -6.31,-10.847 -11.72,-16.75 -8.1,-8.851 -13.17,-14.183 -15.18,-16.015 h 17.28 c 3.52,0 5.98,0.132 7.4,0.398 1.42,0.25 2.7,0.781 3.83,1.582 1.14,0.801 2.14,1.938 2.99,3.402 h 1.8" /><path
         id="path26"
         style="fill:#231f20;fill-opacity:1;fill-rule:nonzero;stroke:none"
         d="m 1475.49,477.441 v 2.055 c 4.95,-2.437 9.06,-5.32 12.35,-8.652 4.65,-4.75 8.25,-10.317 10.78,-16.715 2.55,-6.402 3.82,-13.067 3.82,-20 0,-10.086 -2.48,-19.285 -7.45,-27.598 -4.97,-8.316 -11.47,-14.269 -19.5,-17.855 v 1.801 c 4,2.25 7.3,5.285 9.88,9.121 2.59,3.812 4.52,8.679 5.77,14.597 1.25,5.903 1.88,12.067 1.88,18.465 0,6.934 -0.55,13.27 -1.61,19.004 -0.82,4.496 -1.84,8.078 -3.05,10.797 -1.24,2.699 -2.86,5.301 -4.87,7.801 -2.02,2.515 -4.69,4.898 -8,7.179" /><path
         id="path28"
         style="fill:#231f20;fill-opacity:1;fill-rule:nonzero;stroke:none"
         d="m 1475.84,139.996 v -6.934 h -8.88 v -17.484 h -8.07 v 17.484 h -28.01 v 6.25 l 30.71,43.848 h 5.37 v -43.164 z m -16.95,0 v 32.863 l -23.23,-32.863 h 23.23" /><path
         id="path30"
         style="fill:#231f20;fill-opacity:1;fill-rule:nonzero;stroke:none"
         d="m 1481.56,182.961 v 2.051 c 4.95,-2.434 9.06,-5.317 12.35,-8.649 4.65,-4.754 8.25,-10.316 10.79,-16.718 2.54,-6.399 3.81,-13.067 3.81,-20 0,-10.083 -2.48,-19.286 -7.45,-27.598 -4.97,-8.317 -11.47,-14.2658 -19.5,-17.8517 v 1.8008 c 4,2.25 7.3,5.2809 9.88,9.1169 2.59,3.817 4.52,8.684 5.77,14.598 1.25,5.902 1.88,12.066 1.88,18.469 0,6.933 -0.55,13.265 -1.61,19 -0.82,4.5 -1.84,8.082 -3.05,10.8 -1.23,2.7 -2.85,5.297 -4.87,7.797 -2.01,2.516 -4.68,4.903 -8,7.184" /><g
         id="g32"><g
           clip-path="url(#clipPath38)"
           id="g34"><path
             id="path40"
             style="fill:none;stroke:#231f20;stroke-width:3.5999999;stroke-linecap:butt;stroke-linejoin:miter;stroke-miterlimit:2.61310005;stroke-dasharray:none;stroke-opacity:1"
             d="m 2230.08,164.957 173.24,173.238" /><path
             id="path42"
             style="fill:none;stroke:#231f20;stroke-width:3.5999999;stroke-linecap:butt;stroke-linejoin:miter;stroke-miterlimit:2.61310005;stroke-dasharray:none;stroke-opacity:1"
             d="m 2250.45,144.59 173.24,173.242" /><path
             id="path44"
             style="fill:none;stroke:#231f20;stroke-width:3.5999999;stroke-linecap:butt;stroke-linejoin:miter;stroke-miterlimit:2.61310005;stroke-dasharray:none;stroke-opacity:1"
             d="m 2270.81,124.227 173.24,173.242" /><path
             id="path46"
             style="fill:none;stroke:#231f20;stroke-width:3.5999999;stroke-linecap:butt;stroke-linejoin:miter;stroke-miterlimit:2.61310005;stroke-dasharray:none;stroke-opacity:1"
             d="m 2291.18,103.859 173.24,173.243" /><path
             id="path48"
             style="fill:none;stroke:#231f20;stroke-width:3.5999999;stroke-linecap:butt;stroke-linejoin:miter;stroke-miterlimit:2.61310005;stroke-dasharray:none;stroke-opacity:1"
             d="M 2311.54,83.4961 2484.79,256.738" /><path
             id="path50"
             style="fill:none;stroke:#231f20;stroke-width:3.5999999;stroke-linecap:butt;stroke-linejoin:miter;stroke-miterlimit:2.61310005;stroke-dasharray:none;stroke-opacity:1"
             d="M 2331.91,63.1328 2505.15,236.375" /><path
             id="path52"
             style="fill:none;stroke:#231f20;stroke-width:3.5999999;stroke-linecap:butt;stroke-linejoin:miter;stroke-miterlimit:2.61310005;stroke-dasharray:none;stroke-opacity:1"
             d="M 2352.27,42.7656 2525.51,216.008" /><path
             id="path54"
             style="fill:none;stroke:#231f20;stroke-width:3.5999999;stroke-linecap:butt;stroke-linejoin:miter;stroke-miterlimit:2.61310005;stroke-dasharray:none;stroke-opacity:1"
             d="M 2372.64,22.4023 2545.88,195.645" /><path
             id="path56"
             style="fill:none;stroke:#231f20;stroke-width:3.5999999;stroke-linecap:butt;stroke-linejoin:miter;stroke-miterlimit:2.61310005;stroke-dasharray:none;stroke-opacity:1"
             d="M 2393,2.03906 2566.24,175.277" /></g></g><path
         id="path58"
         style="fill:none;stroke:#231f20;stroke-width:7.5005002;stroke-linecap:butt;stroke-linejoin:miter;stroke-miterlimit:2.61310005;stroke-dasharray:none;stroke-opacity:1"
         d="M 144.949,154.141 H 1125.2" /><path
         id="path60"
         style="fill:#231f20;fill-opacity:1;fill-rule:evenodd;stroke:none"
         d="m 1121.04,180.488 47.9,-26.347 -47.9,-26.348 v 52.695" /><path
         id="path62"
         style="fill:#231f20;fill-opacity:1;fill-rule:evenodd;stroke:none"
         d="m 468.266,168.543 c 6.636,0 12.019,-5.383 12.019,-12.02 0,-6.636 -5.383,-12.019 -12.019,-12.019 -6.637,0 -12.02,5.383 -12.02,12.019 0,6.637 5.383,12.02 12.02,12.02" /><path
         id="path64"
         style="fill:none;stroke:#231f20;stroke-width:7.5005002;stroke-linecap:butt;stroke-linejoin:miter;stroke-miterlimit:2.61310005;stroke-dasharray:none;stroke-opacity:1"
         d="m 468.266,168.543 c 6.636,0 12.019,-5.383 12.019,-12.02 0,-6.636 -5.383,-12.019 -12.019,-12.019 -6.637,0 -12.02,5.383 -12.02,12.019 0,6.637 5.383,12.02 12.02,12.02 z" /><path
         id="path66"
         style="fill:#231f20;fill-opacity:1;fill-rule:nonzero;stroke:none"
         d="m 1135.79,115.359 c 1.6,-1.683 2.8,-3.382 3.62,-5.066 0.58,-1.184 1.55,-4.25 2.88,-9.234 l 4.3,6.453 c 1.14,1.547 2.52,3.05 4.15,4.465 1.62,1.418 3.05,2.382 4.28,2.898 0.79,0.336 1.66,0.484 2.6,0.484 1.4,0 2.5,-0.363 3.34,-1.117 0.83,-0.75 1.25,-1.664 1.25,-2.73 0,-1.235 -0.25,-2.086 -0.74,-2.535 -0.91,-0.817 -1.95,-1.235 -3.11,-1.235 -0.68,0 -1.42,0.153 -2.2,0.453 -1.54,0.516 -2.57,0.782 -3.09,0.782 -0.78,0 -1.69,-0.469 -2.78,-1.368 -2.01,-1.699 -4.41,-4.964 -7.22,-9.816 l 4,-16.8008 c 0.62,-2.5625 1.14,-4.1133 1.57,-4.6172 0.42,-0.4961 0.84,-0.7461 1.27,-0.7461 0.68,0 1.48,0.3633 2.38,1.1172 1.8,1.4961 3.32,3.4492 4.6,5.8633 l 1.7,-0.8828 c -2.05,-3.8477 -4.65,-7.0313 -7.81,-9.5664 -1.79,-1.4336 -3.31,-2.1524 -4.54,-2.1524 -1.81,0 -3.26,1.0195 -4.35,3.0703 -0.68,1.2657 -2.1,6.75 -4.25,16.418 -5.07,-8.8359 -9.13,-14.5039 -12.2,-17.0508 -1.98,-1.6172 -3.9,-2.4375 -5.76,-2.4375 -1.3,0 -2.49,0.4688 -3.57,1.418 -0.77,0.7187 -1.17,1.668 -1.17,2.8828 0,1.0703 0.37,1.9687 1.09,2.6836 0.7,0.7187 1.58,1.0664 2.63,1.0664 1.03,0 2.15,-0.5156 3.32,-1.5625 0.84,-0.7539 1.5,-1.1172 1.95,-1.1172 0.4,0 0.89,0.2656 1.51,0.7813 1.54,1.2343 3.62,3.9023 6.25,8 2.63,4.1015 4.37,7.0664 5.19,8.8984 -2.04,7.9024 -3.12,12.0864 -3.29,12.5354 -0.75,2.117 -1.71,3.617 -2.93,4.5 -1.2,0.883 -2.97,1.316 -5.32,1.316 -0.75,0 -1.61,-0.031 -2.58,-0.101 v 1.765 l 13.03,2.285" /><path
         id="path68"
         style="fill:none;stroke:#231f20;stroke-width:7.5005002;stroke-linecap:butt;stroke-linejoin:miter;stroke-miterlimit:2.61310005;stroke-dasharray:none;stroke-opacity:1"
         d="M 1584.95,442.141 H 2565.2" /><path
         id="path70"
         style="fill:#231f20;fill-opacity:1;fill-rule:evenodd;stroke:none"
         d="m 2561.04,468.488 47.9,-26.347 -47.9,-26.348 v 52.695" /><path
         id="path72"
         style="fill:#231f20;fill-opacity:1;fill-rule:nonzero;stroke:none"
         d="m 2575.79,403.359 c 1.6,-1.683 2.8,-3.382 3.62,-5.066 0.58,-1.184 1.55,-4.25 2.88,-9.234 l 4.3,6.453 c 1.14,1.547 2.52,3.05 4.15,4.465 1.62,1.418 3.05,2.382 4.28,2.898 0.79,0.336 1.66,0.484 2.6,0.484 1.4,0 2.5,-0.363 3.34,-1.117 0.83,-0.75 1.25,-1.664 1.25,-2.73 0,-1.235 -0.25,-2.086 -0.74,-2.535 -0.91,-0.817 -1.95,-1.235 -3.11,-1.235 -0.68,0 -1.42,0.153 -2.2,0.453 -1.54,0.516 -2.57,0.782 -3.09,0.782 -0.78,0 -1.69,-0.469 -2.78,-1.368 -2.01,-1.699 -4.41,-4.964 -7.22,-9.816 l 4,-16.801 c 0.62,-2.562 1.14,-4.113 1.57,-4.617 0.42,-0.496 0.84,-0.746 1.27,-0.746 0.68,0 1.48,0.363 2.38,1.117 1.8,1.496 3.32,3.449 4.6,5.863 l 1.7,-0.882 c -2.05,-3.848 -4.65,-7.032 -7.81,-9.567 -1.79,-1.433 -3.31,-2.152 -4.54,-2.152 -1.81,0 -3.26,1.019 -4.35,3.07 -0.68,1.266 -2.1,6.75 -4.25,16.418 -5.07,-8.836 -9.13,-14.504 -12.2,-17.051 -1.98,-1.617 -3.9,-2.437 -5.76,-2.437 -1.3,0 -2.49,0.469 -3.57,1.418 -0.77,0.719 -1.17,1.668 -1.17,2.883 0,1.07 0.37,1.968 1.09,2.683 0.7,0.719 1.58,1.067 2.63,1.067 1.03,0 2.15,-0.516 3.32,-1.563 0.84,-0.754 1.5,-1.117 1.95,-1.117 0.4,0 0.89,0.266 1.51,0.781 1.54,1.235 3.62,3.902 6.25,8 2.63,4.102 4.37,7.067 5.19,8.899 -2.04,7.902 -3.12,12.086 -3.29,12.535 -0.75,2.117 -1.71,3.617 -2.93,4.5 -1.2,0.883 -2.97,1.316 -5.32,1.316 -0.75,0 -1.61,-0.031 -2.58,-0.101 v 1.765 l 13.03,2.285" /><path
         id="path74"
         style="fill:none;stroke:#231f20;stroke-width:7.5005002;stroke-linecap:butt;stroke-linejoin:miter;stroke-miterlimit:2.61310005;stroke-dasharray:none;stroke-opacity:1"
         d="m 1614.44,594.348 h 167.42" /><path
         id="path76"
         style="fill:none;stroke:#231f20;stroke-width:7.5005002;stroke-linecap:butt;stroke-linejoin:miter;stroke-miterlimit:2.61310005;stroke-dasharray:none;stroke-opacity:1"
         d="m 1771.79,593.832 c 95.02,1.504 141.41,-46.187 139.15,-143.074" /><g
         id="g78"><g
           clip-path="url(#clipPath84)"
           id="g80"><path
             id="path86"
             style="fill:none;stroke:#231f20;stroke-width:3.5999999;stroke-linecap:butt;stroke-linejoin:miter;stroke-miterlimit:2.61310005;stroke-dasharray:none;stroke-opacity:1"
             d="m 2237.46,456.555 201.5,201.507" /><path
             id="path88"
             style="fill:none;stroke:#231f20;stroke-width:3.5999999;stroke-linecap:butt;stroke-linejoin:miter;stroke-miterlimit:2.61310005;stroke-dasharray:none;stroke-opacity:1"
             d="m 2257.82,436.191 201.51,201.508" /><path
             id="path90"
             style="fill:none;stroke:#231f20;stroke-width:3.5999999;stroke-linecap:butt;stroke-linejoin:miter;stroke-miterlimit:2.61310005;stroke-dasharray:none;stroke-opacity:1"
             d="M 2278.18,415.824 2479.7,617.336" /><path
             id="path92"
             style="fill:none;stroke:#231f20;stroke-width:3.5999999;stroke-linecap:butt;stroke-linejoin:miter;stroke-miterlimit:2.61310005;stroke-dasharray:none;stroke-opacity:1"
             d="m 2298.55,395.461 201.51,201.508" /><path
             id="path94"
             style="fill:none;stroke:#231f20;stroke-width:3.5999999;stroke-linecap:butt;stroke-linejoin:miter;stroke-miterlimit:2.61310005;stroke-dasharray:none;stroke-opacity:1"
             d="m 2318.91,375.098 201.51,201.507" /><path
             id="path96"
             style="fill:none;stroke:#231f20;stroke-width:3.5999999;stroke-linecap:butt;stroke-linejoin:miter;stroke-miterlimit:2.61310005;stroke-dasharray:none;stroke-opacity:1"
             d="m 2339.28,354.73 201.51,201.508" /><path
             id="path98"
             style="fill:none;stroke:#231f20;stroke-width:3.5999999;stroke-linecap:butt;stroke-linejoin:miter;stroke-miterlimit:2.61310005;stroke-dasharray:none;stroke-opacity:1"
             d="m 2359.64,334.367 201.51,201.508" /><path
             id="path100"
             style="fill:none;stroke:#231f20;stroke-width:3.5999999;stroke-linecap:butt;stroke-linejoin:miter;stroke-miterlimit:2.61310005;stroke-dasharray:none;stroke-opacity:1"
             d="m 2380.01,314.004 201.51,201.508" /><path
             id="path102"
             style="fill:none;stroke:#231f20;stroke-width:3.5999999;stroke-linecap:butt;stroke-linejoin:miter;stroke-miterlimit:2.61310005;stroke-dasharray:none;stroke-opacity:1"
             d="m 2400.38,293.637 201.5,201.508" /><path
             id="path104"
             style="fill:none;stroke:#231f20;stroke-width:3.5999999;stroke-linecap:butt;stroke-linejoin:miter;stroke-miterlimit:2.61310005;stroke-dasharray:none;stroke-opacity:1"
             d="m 2420.74,273.273 201.51,201.508" /></g></g><path
         id="path106"
         style="fill:none;stroke:#231f20;stroke-width:7.5005002;stroke-linecap:butt;stroke-linejoin:miter;stroke-miterlimit:2.61310005;stroke-dasharray:none;stroke-opacity:1"
         d="M 1584.95,154.141 H 2565.2" /><path
         id="path108"
         style="fill:#231f20;fill-opacity:1;fill-rule:evenodd;stroke:none"
         d="m 2561.04,180.488 47.9,-26.347 -47.9,-26.348 v 52.695" /><path
         id="path110"
         style="fill:#231f20;fill-opacity:1;fill-rule:nonzero;stroke:none"
         d="m 2575.79,115.359 c 1.6,-1.683 2.8,-3.382 3.62,-5.066 0.58,-1.184 1.55,-4.25 2.88,-9.234 l 4.3,6.453 c 1.14,1.547 2.52,3.05 4.15,4.465 1.62,1.418 3.05,2.382 4.28,2.898 0.79,0.336 1.66,0.484 2.6,0.484 1.4,0 2.5,-0.363 3.34,-1.117 0.83,-0.75 1.25,-1.664 1.25,-2.73 0,-1.235 -0.25,-2.086 -0.74,-2.535 -0.91,-0.817 -1.95,-1.235 -3.11,-1.235 -0.68,0 -1.42,0.153 -2.2,0.453 -1.54,0.516 -2.57,0.782 -3.09,0.782 -0.78,0 -1.69,-0.469 -2.78,-1.368 -2.01,-1.699 -4.41,-4.964 -7.22,-9.816 l 4,-16.8008 c 0.62,-2.5625 1.14,-4.1133 1.57,-4.6172 0.42,-0.4961 0.84,-0.7461 1.27,-0.7461 0.68,0 1.48,0.3633 2.38,1.1172 1.8,1.4961 3.32,3.4492 4.6,5.8633 l 1.7,-0.8828 c -2.05,-3.8477 -4.65,-7.0313 -7.81,-9.5664 -1.79,-1.4336 -3.31,-2.1524 -4.54,-2.1524 -1.81,0 -3.26,1.0195 -4.35,3.0703 -0.68,1.2657 -2.1,6.75 -4.25,16.418 -5.07,-8.8359 -9.13,-14.5039 -12.2,-17.0508 -1.98,-1.6172 -3.9,-2.4375 -5.76,-2.4375 -1.3,0 -2.49,0.4688 -3.57,1.418 -0.77,0.7187 -1.17,1.668 -1.17,2.8828 0,1.0703 0.37,1.9687 1.09,2.6836 0.7,0.7187 1.58,1.0664 2.63,1.0664 1.03,0 2.15,-0.5156 3.32,-1.5625 0.84,-0.7539 1.5,-1.1172 1.95,-1.1172 0.4,0 0.89,0.2656 1.51,0.7813 1.54,1.2343 3.62,3.9023 6.25,8 2.63,4.1015 4.37,7.0664 5.19,8.8984 -2.04,7.9024 -3.12,12.0864 -3.29,12.5354 -0.75,2.117 -1.71,3.617 -2.93,4.5 -1.2,0.883 -2.97,1.316 -5.32,1.316 -0.75,0 -1.61,-0.031 -2.58,-0.101 v 1.765 l 13.03,2.285" /><path
         id="path112"
         style="fill:none;stroke:#231f20;stroke-width:7.5005002;stroke-linecap:butt;stroke-linejoin:miter;stroke-miterlimit:2.61310005;stroke-dasharray:none;stroke-opacity:1"
         d="m 2407.54,297.551 c -95.02,1.5 -141.41,-46.188 -139.15,-143.074" /><path
         id="path114"
         style="fill:none;stroke:#231f20;stroke-width:5.00029993;stroke-linecap:butt;stroke-linejoin:miter;stroke-miterlimit:2.61310005;stroke-dasharray:none;stroke-opacity:1"
         d="m 354.949,73.9805 h 60.199" /><path
         id="path116"
         style="fill:#231f20;fill-opacity:1;fill-rule:evenodd;stroke:none"
         d="m 2268.27,168.543 c 6.63,0 12.02,-5.383 12.02,-12.02 0,-6.636 -5.39,-12.019 -12.02,-12.019 -6.64,0 -12.02,5.383 -12.02,12.019 0,6.637 5.38,12.02 12.02,12.02" /><path
         id="path118"
         style="fill:none;stroke:#231f20;stroke-width:7.5005002;stroke-linecap:butt;stroke-linejoin:miter;stroke-miterlimit:2.61310005;stroke-dasharray:none;stroke-opacity:1"
         d="m 2268.27,168.543 c 6.63,0 12.02,-5.383 12.02,-12.02 0,-6.636 -5.39,-12.019 -12.02,-12.019 -6.64,0 -12.02,5.383 -12.02,12.019 0,6.637 5.38,12.02 12.02,12.02 z" /><path
         id="path120"
         style="fill:#231f20;fill-opacity:1;fill-rule:evenodd;stroke:none"
         d="m 1908.27,456.543 c 6.63,0 12.02,-5.383 12.02,-12.02 0,-6.636 -5.39,-12.019 -12.02,-12.019 -6.64,0 -12.02,5.383 -12.02,12.019 0,6.637 5.38,12.02 12.02,12.02" /><path
         id="path122"
         style="fill:none;stroke:#231f20;stroke-width:7.5005002;stroke-linecap:butt;stroke-linejoin:miter;stroke-miterlimit:2.61310005;stroke-dasharray:none;stroke-opacity:1"
         d="m 1908.27,456.543 c 6.63,0 12.02,-5.383 12.02,-12.02 0,-6.636 -5.39,-12.019 -12.02,-12.019 -6.64,0 -12.02,5.383 -12.02,12.019 0,6.637 5.38,12.02 12.02,12.02 z" /><path
         id="path124"
         style="fill:#231f20;fill-opacity:1;fill-rule:nonzero;stroke:none"
         d="m 875.977,60.375 v -6.9336 h -8.883 V 35.957 h -8.067 v 17.4844 h -28.015 v 6.25 l 30.715,43.8476 h 5.367 V 60.375 Z m -16.95,0 V 93.2383 L 835.793,60.375 h 23.234" /><path
         id="path126"
         style="fill:#231f20;fill-opacity:1;fill-rule:nonzero;stroke:none"
         d="m 884.809,19.3047 v 2.1523 c 3.351,1.1016 5.949,2.8164 7.8,5.1524 1.836,2.332 2.75,4.7968 2.75,7.3984 0,0.6172 -0.148,1.1328 -0.433,1.5664 -0.235,0.2813 -0.465,0.4336 -0.684,0.4336 -0.363,0 -1.148,-0.3359 -2.347,-0.9844 -0.586,-0.2812 -1.2,-0.4336 -1.852,-0.4336 -1.602,0 -2.867,0.4649 -3.816,1.418 -0.934,0.9492 -1.418,2.2461 -1.418,3.8984 0,1.6016 0.617,2.9649 1.836,4.1016 1.214,1.1484 2.714,1.7149 4.464,1.7149 2.149,0 4.067,-0.9336 5.735,-2.8165 1.683,-1.8671 2.515,-4.3515 2.515,-7.4335 0,-3.3477 -1.164,-6.4649 -3.484,-9.3477 -2.332,-2.8828 -6.016,-5.1523 -11.066,-6.8203" /><path
         id="path128"
         style="fill:#231f20;fill-opacity:1;fill-rule:nonzero;stroke:none"
         d="m 909.527,89.5742 c 1.883,4.4492 4.266,7.8985 7.153,10.3125 2.882,2.4373 6.465,3.6523 10.765,3.6523 5.301,0 9.364,-1.73 12.2,-5.1835 2.148,-2.5664 3.234,-5.3164 3.234,-8.25 0,-4.8164 -3.035,-9.8008 -9.086,-14.9336 4.07,-1.6016 7.137,-3.8828 9.219,-6.8516 2.082,-2.9453 3.133,-6.4297 3.133,-10.4453 0,-5.7188 -1.817,-10.6836 -5.469,-14.8867 -4.746,-5.4649 -11.633,-8.1992 -20.649,-8.1992 -4.465,0 -7.5,0.5507 -9.117,1.6523 -1.598,1.1133 -2.414,2.2969 -2.414,3.5664 0,0.9492 0.383,1.7813 1.149,2.5 0.765,0.7149 1.683,1.0664 2.765,1.0664 0.801,0 1.637,-0.1328 2.485,-0.3828 0.55,-0.168 1.8,-0.7695 3.765,-1.7852 1.949,-1.0351 3.301,-1.6328 4.051,-1.832 1.199,-0.3672 2.484,-0.5351 3.848,-0.5351 3.316,0 6.218,1.2812 8.668,3.8515 2.468,2.5664 3.683,5.6133 3.683,9.1328 0,2.5664 -0.566,5.0821 -1.699,7.5157 -0.848,1.8164 -1.785,3.2031 -2.781,4.1523 -1.403,1.2969 -3.321,2.4805 -5.77,3.5313 -2.433,1.0664 -4.933,1.6015 -7.465,1.6015 h -1.57 v 1.4649 c 2.57,0.3164 5.152,1.25 7.738,2.7851 2.598,1.5156 4.481,3.3672 5.649,5.5156 1.164,2.1524 1.75,4.5 1.75,7.0664 0,3.3672 -1.051,6.0665 -3.153,8.1329 -2.097,2.0664 -4.699,3.1015 -7.832,3.1015 -5.05,0 -9.25,-2.6992 -12.648,-8.1015 l -1.602,0.7851" /><path
         id="path130"
         style="fill:none;stroke:#231f20;stroke-width:7.5005002;stroke-linecap:butt;stroke-linejoin:miter;stroke-miterlimit:2.61310005;stroke-dasharray:none;stroke-opacity:1"
         d="m 2411.74,594.266 c -95.02,1.504 -141.4,-46.188 -139.15,-143.075" /><path
         id="path132"
         style="fill:#231f20;fill-opacity:1;fill-rule:evenodd;stroke:none"
         d="m 1908.27,168.543 c 6.63,0 12.02,-5.383 12.02,-12.02 0,-6.636 -5.39,-12.019 -12.02,-12.019 -6.64,0 -12.02,5.383 -12.02,12.019 0,6.637 5.38,12.02 12.02,12.02" /><path
         id="path134"
         style="fill:none;stroke:#231f20;stroke-width:7.5005002;stroke-linecap:butt;stroke-linejoin:miter;stroke-miterlimit:2.61310005;stroke-dasharray:none;stroke-opacity:1"
         d="m 1908.27,168.543 c 6.63,0 12.02,-5.383 12.02,-12.02 0,-6.636 -5.39,-12.019 -12.02,-12.019 -6.64,0 -12.02,5.383 -12.02,12.019 0,6.637 5.38,12.02 12.02,12.02 z" /><g
         id="g136"><g
           clip-path="url(#clipPath142)"
           id="g138"><path
             id="path144"
             style="fill:none;stroke:#231f20;stroke-width:3.5999999;stroke-linecap:butt;stroke-linejoin:miter;stroke-miterlimit:2.61310005;stroke-dasharray:none;stroke-opacity:1"
             d="m 1568.94,456.555 207.99,207.984" /><path
             id="path146"
             style="fill:none;stroke:#231f20;stroke-width:3.5999999;stroke-linecap:butt;stroke-linejoin:miter;stroke-miterlimit:2.61310005;stroke-dasharray:none;stroke-opacity:1"
             d="m 1589.3,436.191 207.99,207.985" /><path
             id="path148"
             style="fill:none;stroke:#231f20;stroke-width:3.5999999;stroke-linecap:butt;stroke-linejoin:miter;stroke-miterlimit:2.61310005;stroke-dasharray:none;stroke-opacity:1"
             d="m 1609.67,415.824 207.98,207.985" /><path
             id="path150"
             style="fill:none;stroke:#231f20;stroke-width:3.5999999;stroke-linecap:butt;stroke-linejoin:miter;stroke-miterlimit:2.61310005;stroke-dasharray:none;stroke-opacity:1"
             d="m 1630.04,395.461 207.98,207.984" /><path
             id="path152"
             style="fill:none;stroke:#231f20;stroke-width:3.5999999;stroke-linecap:butt;stroke-linejoin:miter;stroke-miterlimit:2.61310005;stroke-dasharray:none;stroke-opacity:1"
             d="m 1650.4,375.098 207.98,207.984" /><path
             id="path154"
             style="fill:none;stroke:#231f20;stroke-width:3.5999999;stroke-linecap:butt;stroke-linejoin:miter;stroke-miterlimit:2.61310005;stroke-dasharray:none;stroke-opacity:1"
             d="m 1670.76,354.73 207.99,207.985" /><path
             id="path156"
             style="fill:none;stroke:#231f20;stroke-width:3.5999999;stroke-linecap:butt;stroke-linejoin:miter;stroke-miterlimit:2.61310005;stroke-dasharray:none;stroke-opacity:1"
             d="m 1691.13,334.367 207.98,207.985" /><path
             id="path158"
             style="fill:none;stroke:#231f20;stroke-width:3.5999999;stroke-linecap:butt;stroke-linejoin:miter;stroke-miterlimit:2.61310005;stroke-dasharray:none;stroke-opacity:1"
             d="m 1711.49,314.004 207.99,207.984" /><path
             id="path160"
             style="fill:none;stroke:#231f20;stroke-width:3.5999999;stroke-linecap:butt;stroke-linejoin:miter;stroke-miterlimit:2.61310005;stroke-dasharray:none;stroke-opacity:1"
             d="m 1731.86,293.637 207.98,207.984" /><path
             id="path162"
             style="fill:none;stroke:#231f20;stroke-width:3.5999999;stroke-linecap:butt;stroke-linejoin:miter;stroke-miterlimit:2.61310005;stroke-dasharray:none;stroke-opacity:1"
             d="m 1752.22,273.273 207.99,207.985" /><path
             id="path164"
             style="fill:none;stroke:#231f20;stroke-width:3.5999999;stroke-linecap:butt;stroke-linejoin:miter;stroke-miterlimit:2.61310005;stroke-dasharray:none;stroke-opacity:1"
             d="m 1772.59,252.906 207.98,207.989" /></g></g><path
         id="path166"
         style="fill:none;stroke:#231f20;stroke-width:7.5005002;stroke-linecap:butt;stroke-linejoin:miter;stroke-miterlimit:2.61310005;stroke-dasharray:none;stroke-opacity:1"
         d="m 2406.44,594.348 h 167.42" /><path
         id="path168"
         style="fill:#231f20;fill-opacity:1;fill-rule:nonzero;stroke:none"
         d="m 493.957,109.125 v -1.816 c -4.281,-0.418 -7.797,-1.27 -10.516,-2.567 -2.714,-1.285 -5.402,-3.234 -8.05,-5.8865 -2.649,-2.6328 -4.852,-5.5664 -6.598,-8.7969 -1.734,-3.25 -3.203,-7.1016 -4.367,-11.5508 4.683,3.2149 9.383,4.832 14.117,4.832 4.516,0 8.449,-1.832 11.766,-5.4648 3.316,-3.6523 4.984,-8.332 4.984,-14.0664 0,-5.5352 -1.684,-10.582 -5.035,-15.1367 -4.035,-5.5313 -9.383,-8.2969 -16.016,-8.2969 -4.531,0 -8.367,1.5 -11.535,4.4844 -6.18,5.832 -9.266,13.3789 -9.266,22.664 0,5.918 1.184,11.5508 3.567,16.8868 2.367,5.3476 5.769,10.082 10.183,14.2148 4.403,4.133 8.633,6.914 12.668,8.352 4.032,1.429 7.801,2.148 11.282,2.148 z M 463.594,74.9414 c -0.586,-4.3984 -0.887,-7.9531 -0.887,-10.6484 0,-3.1211 0.586,-6.5196 1.734,-10.1875 1.168,-3.6485 2.883,-6.5625 5.168,-8.7149 1.649,-1.5156 3.668,-2.2812 6.051,-2.2812 2.832,0 5.367,1.332 7.582,4 2.235,2.6679 3.352,6.4804 3.352,11.4297 0,5.5664 -1.102,10.3828 -3.317,14.4531 -2.218,4.0664 -5.351,6.0976 -9.433,6.0976 -1.235,0 -2.551,-0.2656 -3.969,-0.7812 -1.414,-0.5195 -3.516,-1.6524 -6.281,-3.3672" /><path
         id="path170"
         style="fill:#231f20;fill-opacity:1;fill-rule:nonzero;stroke:none"
         d="m 504.508,24.8906 v 2.1524 c 3.351,1.0976 5.949,2.8125 7.801,5.1484 1.832,2.3359 2.75,4.8008 2.75,7.3984 0,0.6172 -0.153,1.1368 -0.434,1.5704 -0.234,0.2812 -0.465,0.4336 -0.684,0.4336 -0.367,0 -1.152,-0.336 -2.351,-0.9844 -0.582,-0.2852 -1.199,-0.4336 -1.852,-0.4336 -1.597,0 -2.863,0.4648 -3.812,1.418 -0.934,0.9492 -1.418,2.246 -1.418,3.8945 0,1.6015 0.617,2.9687 1.832,4.1015 1.219,1.1524 2.719,1.7149 4.469,1.7149 2.148,0 4.066,-0.9297 5.73,-2.8125 1.684,-1.8672 2.52,-4.3516 2.52,-7.4375 0,-3.3477 -1.168,-6.4649 -3.485,-9.3477 -2.332,-2.8828 -6.015,-5.1484 -11.066,-6.8164" /><path
         id="path172"
         style="fill:#231f20;fill-opacity:1;fill-rule:nonzero;stroke:none"
         d="m 567.559,107.758 -3.817,-8.301 h -19.914 l -4.351,-8.8984 c 8.632,-1.2695 15.468,-4.4688 20.5,-9.6172 4.332,-4.418 6.5,-9.6328 6.5,-15.6172 0,-3.4844 -0.704,-6.7148 -2.118,-9.668 -1.418,-2.9648 -3.199,-5.4804 -5.351,-7.5624 -2.149,-2.086 -4.551,-3.7696 -7.184,-5.0352 -3.73,-1.8008 -7.582,-2.6836 -11.515,-2.6836 -3.985,0 -6.868,0.668 -8.664,2.0156 -1.821,1.3516 -2.719,2.8516 -2.719,4.4688 0,0.914 0.383,1.7148 1.117,2.414 0.75,0.6993 1.699,1.0508 2.832,1.0508 0.852,0 1.602,-0.1172 2.234,-0.3828 0.633,-0.2695 1.715,-0.9336 3.25,-2 2.434,-1.6992 4.899,-2.5508 7.418,-2.5508 3.797,0 7.149,1.4532 10.032,4.336 2.886,2.8789 4.316,6.3828 4.316,10.5156 0,4 -1.285,7.7305 -3.848,11.1992 -2.582,3.4648 -6.117,6.1484 -10.652,8.0313 -3.547,1.4687 -8.383,2.3164 -14.496,2.5507 l 12.699,25.7346 h 23.731" /><path
         id="path174"
         style="fill:none;stroke:#231f20;stroke-width:5.00029993;stroke-linecap:butt;stroke-linejoin:miter;stroke-miterlimit:2.61310005;stroke-dasharray:none;stroke-opacity:1"
         d="m 750.297,75.2773 h 60.199" /><path
         id="path176"
         style="fill:none;stroke:#231f20;stroke-width:5.00029993;stroke-linecap:butt;stroke-linejoin:miter;stroke-miterlimit:2.61310005;stroke-dasharray:none;stroke-opacity:1"
         d="m 1773.7,352.871 h 60.2" /><path
         id="path178"
         style="fill:#231f20;fill-opacity:1;fill-rule:nonzero;stroke:none"
         d="m 2327.32,335.77 v -6.934 h -8.88 v -17.484 h -8.07 v 17.484 h -28.01 v 6.25 l 30.71,43.848 h 5.37 V 335.77 Z m -16.95,0 v 32.863 l -23.23,-32.863 h 23.23" /><path
         id="path180"
         style="fill:#231f20;fill-opacity:1;fill-rule:nonzero;stroke:none"
         d="m 2336.15,294.699 v 2.153 c 3.35,1.101 5.95,2.816 7.8,5.152 1.84,2.332 2.75,4.797 2.75,7.398 0,0.618 -0.15,1.133 -0.43,1.567 -0.23,0.281 -0.47,0.433 -0.68,0.433 -0.37,0 -1.15,-0.336 -2.35,-0.984 -0.59,-0.285 -1.2,-0.434 -1.85,-0.434 -1.6,0 -2.87,0.465 -3.82,1.418 -0.93,0.95 -1.42,2.246 -1.42,3.899 0,1.601 0.62,2.965 1.84,4.101 1.21,1.149 2.71,1.715 4.46,1.715 2.16,0 4.07,-0.933 5.74,-2.816 1.68,-1.867 2.51,-4.352 2.51,-7.434 0,-3.347 -1.16,-6.469 -3.48,-9.351 -2.33,-2.883 -6.02,-5.149 -11.07,-6.817" /><path
         id="path182"
         style="fill:#231f20;fill-opacity:1;fill-rule:nonzero;stroke:none"
         d="m 2360.87,364.969 c 1.89,4.449 4.27,7.898 7.15,10.312 2.89,2.438 6.47,3.653 10.77,3.653 5.3,0 9.37,-1.731 12.2,-5.184 2.15,-2.566 3.23,-5.316 3.23,-8.25 0,-4.816 -3.03,-9.801 -9.08,-14.934 4.07,-1.601 7.13,-3.882 9.22,-6.851 2.08,-2.945 3.13,-6.43 3.13,-10.445 0,-5.719 -1.82,-10.684 -5.47,-14.887 -4.75,-5.465 -11.63,-8.199 -20.65,-8.199 -4.46,0 -7.49,0.55 -9.12,1.652 -1.59,1.113 -2.41,2.297 -2.41,3.566 0,0.95 0.38,1.782 1.15,2.5 0.76,0.715 1.68,1.067 2.76,1.067 0.8,0 1.64,-0.133 2.49,-0.383 0.55,-0.168 1.8,-0.77 3.76,-1.785 1.95,-1.035 3.31,-1.633 4.05,-1.832 1.2,-0.367 2.49,-0.535 3.86,-0.535 3.31,0 6.21,1.281 8.66,3.851 2.47,2.563 3.68,5.613 3.68,9.133 0,2.566 -0.56,5.082 -1.7,7.516 -0.84,1.816 -1.78,3.203 -2.78,4.152 -1.4,1.297 -3.32,2.48 -5.77,3.531 -2.43,1.067 -4.93,1.602 -7.46,1.602 h -1.57 v 1.465 c 2.57,0.316 5.15,1.25 7.74,2.785 2.59,1.515 4.48,3.367 5.65,5.515 1.16,2.149 1.75,4.5 1.75,7.067 0,3.367 -1.06,6.066 -3.15,8.133 -2.1,2.066 -4.7,3.101 -7.84,3.101 -5.05,0 -9.25,-2.699 -12.65,-8.101 l -1.6,0.785" /><path
         id="path184"
         style="fill:#231f20;fill-opacity:1;fill-rule:nonzero;stroke:none"
         d="m 1912.71,388.016 v -1.817 c -4.29,-0.418 -7.8,-1.265 -10.52,-2.566 -2.72,-1.285 -5.4,-3.235 -8.05,-5.883 -2.65,-2.633 -4.85,-5.566 -6.6,-8.801 -1.73,-3.25 -3.2,-7.097 -4.36,-11.551 4.68,3.219 9.38,4.832 14.11,4.832 4.52,0 8.45,-1.832 11.77,-5.464 3.32,-3.649 4.98,-8.332 4.98,-14.067 0,-5.535 -1.68,-10.582 -5.03,-15.133 -4.04,-5.535 -9.39,-8.3 -16.02,-8.3 -4.53,0 -8.37,1.504 -11.53,4.484 -6.19,5.832 -9.27,13.383 -9.27,22.664 0,5.918 1.18,11.551 3.57,16.887 2.36,5.347 5.76,10.082 10.18,14.215 4.4,4.132 8.63,6.918 12.67,8.351 4.03,1.43 7.8,2.149 11.28,2.149 z m -30.37,-34.184 c -0.58,-4.398 -0.88,-7.949 -0.88,-10.648 0,-3.118 0.58,-6.516 1.73,-10.184 1.17,-3.648 2.88,-6.566 5.17,-8.719 1.65,-1.515 3.66,-2.281 6.05,-2.281 2.83,0 5.36,1.332 7.58,4 2.23,2.668 3.35,6.484 3.35,11.434 0,5.566 -1.1,10.382 -3.32,14.449 -2.21,4.066 -5.35,6.101 -9.43,6.101 -1.23,0 -2.55,-0.265 -3.97,-0.785 -1.41,-0.515 -3.51,-1.652 -6.28,-3.367" /><path
         id="path186"
         style="fill:#231f20;fill-opacity:1;fill-rule:nonzero;stroke:none"
         d="m 1923.26,303.781 v 2.153 c 3.35,1.101 5.95,2.816 7.8,5.152 1.83,2.332 2.74,4.797 2.74,7.398 0,0.618 -0.14,1.133 -0.43,1.567 -0.23,0.285 -0.46,0.433 -0.68,0.433 -0.37,0 -1.15,-0.336 -2.35,-0.984 -0.59,-0.281 -1.2,-0.434 -1.85,-0.434 -1.6,0 -2.87,0.465 -3.82,1.418 -0.93,0.95 -1.41,2.246 -1.41,3.899 0,1.601 0.62,2.969 1.83,4.101 1.21,1.149 2.71,1.715 4.47,1.715 2.15,0 4.06,-0.933 5.73,-2.816 1.68,-1.867 2.51,-4.352 2.51,-7.434 0,-3.347 -1.16,-6.465 -3.48,-9.347 -2.33,-2.883 -6.01,-5.153 -11.06,-6.821" /><path
         id="path188"
         style="fill:#231f20;fill-opacity:1;fill-rule:nonzero;stroke:none"
         d="m 1986.31,386.648 -3.82,-8.296 h -19.92 l -4.35,-8.903 c 8.64,-1.265 15.47,-4.469 20.5,-9.613 4.34,-4.422 6.5,-9.637 6.5,-15.621 0,-3.485 -0.7,-6.715 -2.11,-9.664 -1.42,-2.969 -3.2,-5.485 -5.35,-7.567 -2.15,-2.082 -4.55,-3.765 -7.19,-5.035 -3.73,-1.801 -7.58,-2.683 -11.51,-2.683 -3.99,0 -6.87,0.668 -8.67,2.019 -1.82,1.348 -2.72,2.848 -2.72,4.465 0,0.918 0.39,1.715 1.12,2.418 0.75,0.699 1.7,1.051 2.83,1.051 0.86,0 1.6,-0.121 2.24,-0.387 0.63,-0.266 1.71,-0.934 3.25,-2 2.43,-1.699 4.9,-2.551 7.41,-2.551 3.8,0 7.16,1.453 10.04,4.336 2.88,2.883 4.32,6.383 4.32,10.516 0,4 -1.29,7.734 -3.86,11.199 -2.58,3.469 -6.11,6.152 -10.64,8.035 -3.56,1.469 -8.39,2.317 -14.5,2.551 l 12.69,25.73 h 23.74" /><path
         id="path190"
         style="fill:none;stroke:#231f20;stroke-width:5.00029993;stroke-linecap:butt;stroke-linejoin:miter;stroke-miterlimit:2.61310005;stroke-dasharray:none;stroke-opacity:1"
         d="m 2205.7,352.871 h 60.2" /><path
         id="path192"
         style="fill:none;stroke:#231f20;stroke-width:5.00029993;stroke-linecap:butt;stroke-linejoin:miter;stroke-miterlimit:2.61310005;stroke-dasharray:none;stroke-opacity:1"
         d="m 1773.7,64.8711 h 60.2" /><path
         id="path194"
         style="fill:#231f20;fill-opacity:1;fill-rule:nonzero;stroke:none"
         d="m 2327.32,47.7695 v -6.9336 h -8.88 V 23.3516 h -8.07 v 17.4843 h -28.01 v 6.25 l 30.71,43.8477 h 5.37 V 47.7695 Z m -16.95,0 v 32.8633 l -23.23,-32.8633 h 23.23" /><path
         id="path196"
         style="fill:#231f20;fill-opacity:1;fill-rule:nonzero;stroke:none"
         d="m 2336.15,6.69922 v 2.15234 c 3.35,1.10156 5.95,2.81644 7.8,5.15234 1.84,2.332 2.75,4.7969 2.75,7.3984 0,0.6172 -0.15,1.1329 -0.43,1.5665 -0.23,0.2812 -0.47,0.4335 -0.68,0.4335 -0.37,0 -1.15,-0.3359 -2.35,-0.9843 -0.59,-0.2813 -1.2,-0.4336 -1.85,-0.4336 -1.6,0 -2.87,0.4648 -3.82,1.4179 -0.93,0.9493 -1.42,2.2461 -1.42,3.8985 0,1.6015 0.62,2.9648 1.84,4.1015 1.21,1.1485 2.71,1.7149 4.46,1.7149 2.16,0 4.07,-0.9336 5.74,-2.8164 1.68,-1.8672 2.51,-4.3516 2.51,-7.4336 0,-3.3477 -1.16,-6.4649 -3.48,-9.3477 -2.33,-2.8828 -6.02,-5.15231 -11.07,-6.82028" /><path
         id="path198"
         style="fill:#231f20;fill-opacity:1;fill-rule:nonzero;stroke:none"
         d="m 2360.87,76.9688 c 1.89,4.4492 4.27,7.8984 7.15,10.3124 2.89,2.4376 6.47,3.6524 10.77,3.6524 5.3,0 9.37,-1.7305 12.2,-5.1836 2.15,-2.5664 3.23,-5.3164 3.23,-8.25 0,-4.8164 -3.03,-9.8008 -9.08,-14.9336 4.07,-1.6016 7.13,-3.8828 9.22,-6.8516 2.08,-2.9453 3.13,-6.4296 3.13,-10.4453 0,-5.7187 -1.82,-10.6836 -5.47,-14.8867 -4.75,-5.4648 -11.63,-8.1992 -20.65,-8.1992 -4.46,0 -7.49,0.5508 -9.12,1.6523 -1.59,1.1133 -2.41,2.2969 -2.41,3.5664 0,0.9493 0.38,1.7813 1.15,2.5 0.76,0.7149 1.68,1.0665 2.76,1.0665 0.8,0 1.64,-0.1329 2.49,-0.3829 0.55,-0.1679 1.8,-0.7695 3.76,-1.7851 1.95,-1.0352 3.31,-1.6328 4.05,-1.832 1.2,-0.3672 2.49,-0.5352 3.86,-0.5352 3.31,0 6.21,1.2812 8.66,3.8516 2.47,2.5625 3.68,5.6132 3.68,9.1328 0,2.5664 -0.56,5.082 -1.7,7.5156 -0.84,1.8164 -1.78,3.2031 -2.78,4.1523 -1.4,1.2969 -3.32,2.4805 -5.77,3.5313 -2.43,1.0664 -4.93,1.6016 -7.46,1.6016 h -1.57 v 1.4648 c 2.57,0.3164 5.15,1.25 7.74,2.7852 2.59,1.5156 4.48,3.3671 5.65,5.5156 1.16,2.1484 1.75,4.5 1.75,7.0664 0,3.3672 -1.06,6.0664 -3.15,8.1328 -2.1,2.0664 -4.7,3.1016 -7.84,3.1016 -5.05,0 -9.25,-2.6993 -12.65,-8.1016 l -1.6,0.7852" /><path
         id="path200"
         style="fill:#231f20;fill-opacity:1;fill-rule:nonzero;stroke:none"
         d="m 1912.71,100.016 v -1.8168 c -4.29,-0.418 -7.8,-1.2656 -10.52,-2.5664 -2.72,-1.2812 -5.4,-3.2344 -8.05,-5.8828 -2.65,-2.6328 -4.85,-5.5664 -6.6,-8.8008 -1.73,-3.25 -3.2,-7.0976 -4.36,-11.5508 4.68,3.2188 9.38,4.836 14.11,4.836 4.52,0 8.45,-1.836 11.77,-5.4688 3.32,-3.6484 4.98,-8.332 4.98,-14.0664 0,-5.5312 -1.68,-10.582 -5.03,-15.1328 -4.04,-5.5352 -9.39,-8.3008 -16.02,-8.3008 -4.53,0 -8.37,1.5039 -11.53,4.4844 -6.19,5.832 -9.27,13.3828 -9.27,22.6641 0,5.9218 1.18,11.5507 3.57,16.8867 2.36,5.3476 5.76,10.082 10.18,14.2148 4.4,4.1328 8.63,6.918 12.67,8.3516 4.03,1.4336 7.8,2.1488 11.28,2.1488 z m -30.37,-34.184 c -0.58,-4.3984 -0.88,-7.9492 -0.88,-10.6484 0,-3.1172 0.58,-6.5156 1.73,-10.1836 1.17,-3.6484 2.88,-6.5664 5.17,-8.7188 1.65,-1.5156 3.66,-2.2812 6.05,-2.2812 2.83,0 5.36,1.332 7.58,4 2.23,2.668 3.35,6.4844 3.35,11.4336 0,5.5664 -1.1,10.3828 -3.32,14.4492 -2.21,4.0664 -5.35,6.1016 -9.43,6.1016 -1.23,0 -2.55,-0.2656 -3.97,-0.7852 -1.41,-0.5156 -3.51,-1.6523 -6.28,-3.3672" /><path
         id="path202"
         style="fill:#231f20;fill-opacity:1;fill-rule:nonzero;stroke:none"
         d="m 1923.26,15.7812 v 2.1524 c 3.35,1.1016 5.95,2.8164 7.8,5.1523 1.83,2.3321 2.74,4.7969 2.74,7.3985 0,0.6172 -0.14,1.1328 -0.43,1.5664 -0.23,0.2851 -0.46,0.4336 -0.68,0.4336 -0.37,0 -1.15,-0.336 -2.35,-0.9844 -0.59,-0.2812 -1.2,-0.4336 -1.85,-0.4336 -1.6,0 -2.87,0.4648 -3.82,1.418 -0.93,0.9492 -1.41,2.2461 -1.41,3.8984 0,1.6016 0.62,2.9688 1.83,4.1016 1.21,1.1484 2.71,1.7148 4.47,1.7148 2.15,0 4.06,-0.9336 5.73,-2.8164 1.68,-1.8672 2.51,-4.3516 2.51,-7.4336 0,-3.3476 -1.16,-6.4648 -3.48,-9.3476 -2.33,-2.8828 -6.01,-5.1524 -11.06,-6.8204" /><path
         id="path204"
         style="fill:#231f20;fill-opacity:1;fill-rule:nonzero;stroke:none"
         d="m 1986.31,98.6484 -3.82,-8.2968 h -19.92 l -4.35,-8.9024 c 8.64,-1.2656 15.47,-4.4687 20.5,-9.6133 4.34,-4.4218 6.5,-9.6367 6.5,-15.6211 0,-3.4843 -0.7,-6.7148 -2.11,-9.664 -1.42,-2.9688 -3.2,-5.4844 -5.35,-7.5664 -2.15,-2.0821 -4.55,-3.7656 -7.19,-5.0352 -3.73,-1.8008 -7.58,-2.6836 -11.51,-2.6836 -3.99,0 -6.87,0.668 -8.67,2.0196 -1.82,1.3476 -2.72,2.8476 -2.72,4.4648 0,0.918 0.39,1.7148 1.12,2.418 0.75,0.6992 1.7,1.0508 2.83,1.0508 0.86,0 1.6,-0.1211 2.24,-0.3868 0.63,-0.2656 1.71,-0.9336 3.25,-1.9961 2.43,-1.7031 4.9,-2.5547 7.41,-2.5547 3.8,0 7.16,1.4532 10.04,4.336 2.88,2.8828 4.32,6.3828 4.32,10.5156 0,4 -1.29,7.7344 -3.86,11.1992 -2.58,3.4688 -6.11,6.1524 -10.64,8.0352 -3.56,1.4687 -8.39,2.3164 -14.5,2.5508 l 12.69,25.7304 h 23.74" /><path
         id="path206"
         style="fill:none;stroke:#231f20;stroke-width:5.00029993;stroke-linecap:butt;stroke-linejoin:miter;stroke-miterlimit:2.61310005;stroke-dasharray:none;stroke-opacity:1"
         d="m 2205.7,64.8711 h 60.2" /><path
         id="path208"
         style="fill:#231f20;fill-opacity:1;fill-rule:evenodd;stroke:none"
         d="m 900.266,168.543 c 6.636,0 12.019,-5.383 12.019,-12.02 0,-6.636 -5.383,-12.019 -12.019,-12.019 -6.637,0 -12.02,5.383 -12.02,12.019 0,6.637 5.383,12.02 12.02,12.02" /><path
         id="path210"
         style="fill:none;stroke:#231f20;stroke-width:7.5005002;stroke-linecap:butt;stroke-linejoin:miter;stroke-miterlimit:2.61310005;stroke-dasharray:none;stroke-opacity:1"
         d="m 900.266,168.543 c 6.636,0 12.019,-5.383 12.019,-12.02 0,-6.636 -5.383,-12.019 -12.019,-12.019 -6.637,0 -12.02,5.383 -12.02,12.019 0,6.637 5.383,12.02 12.02,12.02 z" /><path
         id="path212"
         style="fill:none;stroke:#231f20;stroke-width:7.5005002;stroke-linecap:butt;stroke-linejoin:miter;stroke-miterlimit:2.61310005;stroke-dasharray:none;stroke-opacity:1"
         d="M 765.848,294.977 H 594.289" /><path
         id="path214"
         style="fill:none;stroke:#231f20;stroke-width:7.5005002;stroke-linecap:butt;stroke-linejoin:miter;stroke-miterlimit:2.61310005;stroke-dasharray:none;stroke-opacity:1"
         d="m 608.32,295.297 c -95.019,1.5 -141.406,-46.188 -139.148,-143.074" /><g
         id="g216"><g
           clip-path="url(#clipPath222)"
           id="g218"><path
             id="path224"
             style="fill:none;stroke:#231f20;stroke-width:3.5999999;stroke-linecap:butt;stroke-linejoin:miter;stroke-miterlimit:2.61310005;stroke-dasharray:none;stroke-opacity:1"
             d="M 396.32,165.676 705.203,474.559" /><path
             id="path226"
             style="fill:none;stroke:#231f20;stroke-width:3.5999999;stroke-linecap:butt;stroke-linejoin:miter;stroke-miterlimit:2.61310005;stroke-dasharray:none;stroke-opacity:1"
             d="M 416.688,145.309 725.57,454.195" /><path
             id="path228"
             style="fill:none;stroke:#231f20;stroke-width:3.5999999;stroke-linecap:butt;stroke-linejoin:miter;stroke-miterlimit:2.61310005;stroke-dasharray:none;stroke-opacity:1"
             d="M 437.051,124.945 745.934,433.828" /><path
             id="path230"
             style="fill:none;stroke:#231f20;stroke-width:3.5999999;stroke-linecap:butt;stroke-linejoin:miter;stroke-miterlimit:2.61310005;stroke-dasharray:none;stroke-opacity:1"
             d="M 457.414,104.582 766.297,413.465" /><path
             id="path232"
             style="fill:none;stroke:#231f20;stroke-width:3.5999999;stroke-linecap:butt;stroke-linejoin:miter;stroke-miterlimit:2.61310005;stroke-dasharray:none;stroke-opacity:1"
             d="M 477.781,84.2148 786.664,393.102" /><path
             id="path234"
             style="fill:none;stroke:#231f20;stroke-width:3.5999999;stroke-linecap:butt;stroke-linejoin:miter;stroke-miterlimit:2.61310005;stroke-dasharray:none;stroke-opacity:1"
             d="M 498.145,63.8516 807.027,372.734" /><path
             id="path236"
             style="fill:none;stroke:#231f20;stroke-width:3.5999999;stroke-linecap:butt;stroke-linejoin:miter;stroke-miterlimit:2.61310005;stroke-dasharray:none;stroke-opacity:1"
             d="M 518.508,43.4883 827.395,352.371" /><path
             id="path238"
             style="fill:none;stroke:#231f20;stroke-width:3.5999999;stroke-linecap:butt;stroke-linejoin:miter;stroke-miterlimit:2.61310005;stroke-dasharray:none;stroke-opacity:1"
             d="M 538.875,23.1211 847.758,332.004" /><path
             id="path240"
             style="fill:none;stroke:#231f20;stroke-width:3.5999999;stroke-linecap:butt;stroke-linejoin:miter;stroke-miterlimit:2.61310005;stroke-dasharray:none;stroke-opacity:1"
             d="M 559.238,2.75781 868.121,311.641" /><path
             id="path242"
             style="fill:none;stroke:#231f20;stroke-width:3.5999999;stroke-linecap:butt;stroke-linejoin:miter;stroke-miterlimit:2.61310005;stroke-dasharray:none;stroke-opacity:1"
             d="M 579.602,-17.6055 888.488,291.277" /><path
             id="path244"
             style="fill:none;stroke:#231f20;stroke-width:3.5999999;stroke-linecap:butt;stroke-linejoin:miter;stroke-miterlimit:2.61310005;stroke-dasharray:none;stroke-opacity:1"
             d="M 599.969,-37.9727 908.852,270.91" /><path
             id="path246"
             style="fill:none;stroke:#231f20;stroke-width:3.5999999;stroke-linecap:butt;stroke-linejoin:miter;stroke-miterlimit:2.61310005;stroke-dasharray:none;stroke-opacity:1"
             d="M 620.332,-58.3359 929.215,250.547" /><path
             id="path248"
             style="fill:none;stroke:#231f20;stroke-width:3.5999999;stroke-linecap:butt;stroke-linejoin:miter;stroke-miterlimit:2.61310005;stroke-dasharray:none;stroke-opacity:1"
             d="M 640.699,-78.6992 949.582,230.184" /><path
             id="path250"
             style="fill:none;stroke:#231f20;stroke-width:3.5999999;stroke-linecap:butt;stroke-linejoin:miter;stroke-miterlimit:2.61310005;stroke-dasharray:none;stroke-opacity:1"
             d="M 661.062,-99.0664 969.945,209.816" /><path
             id="path252"
             style="fill:none;stroke:#231f20;stroke-width:3.5999999;stroke-linecap:butt;stroke-linejoin:miter;stroke-miterlimit:2.61310005;stroke-dasharray:none;stroke-opacity:1"
             d="M 681.426,-119.43 990.309,189.453" /><path
             id="path254"
             style="fill:none;stroke:#231f20;stroke-width:3.5999999;stroke-linecap:butt;stroke-linejoin:miter;stroke-miterlimit:2.61310005;stroke-dasharray:none;stroke-opacity:1"
             d="M 701.793,-139.797 1010.68,169.09" /></g></g><path
         id="path256"
         style="fill:none;stroke:#231f20;stroke-width:7.5005002;stroke-linecap:butt;stroke-linejoin:miter;stroke-miterlimit:2.61310005;stroke-dasharray:none;stroke-opacity:1"
         d="M 761.184,293.348 C 856.203,294.852 902.59,247.16 900.332,150.277" /><path
         id="path258"
         style="fill:none;stroke:#231f20;stroke-width:7.5005002;stroke-linecap:butt;stroke-linejoin:miter;stroke-miterlimit:2.61310005;stroke-dasharray:none;stroke-opacity:1"
         d="M 180.949,442.141 H 1161.2" /><path
         id="path260"
         style="fill:#231f20;fill-opacity:1;fill-rule:evenodd;stroke:none"
         d="m 1157.04,468.488 47.9,-26.347 -47.9,-26.348 v 52.695" /><path
         id="path262"
         style="fill:#231f20;fill-opacity:1;fill-rule:nonzero;stroke:none"
         d="m 1171.79,403.359 c 1.6,-1.683 2.8,-3.382 3.62,-5.066 0.58,-1.184 1.55,-4.25 2.88,-9.234 l 4.3,6.453 c 1.14,1.547 2.52,3.05 4.15,4.465 1.62,1.418 3.05,2.382 4.28,2.898 0.79,0.336 1.66,0.484 2.6,0.484 1.4,0 2.5,-0.363 3.34,-1.117 0.83,-0.75 1.25,-1.664 1.25,-2.73 0,-1.235 -0.25,-2.086 -0.74,-2.535 -0.91,-0.817 -1.95,-1.235 -3.11,-1.235 -0.68,0 -1.42,0.153 -2.2,0.453 -1.54,0.516 -2.57,0.782 -3.09,0.782 -0.78,0 -1.69,-0.469 -2.78,-1.368 -2.01,-1.699 -4.41,-4.964 -7.22,-9.816 l 4,-16.801 c 0.62,-2.562 1.14,-4.113 1.57,-4.617 0.42,-0.496 0.84,-0.746 1.27,-0.746 0.68,0 1.48,0.363 2.38,1.117 1.8,1.496 3.32,3.449 4.6,5.863 l 1.7,-0.882 c -2.05,-3.848 -4.65,-7.032 -7.81,-9.567 -1.79,-1.433 -3.31,-2.152 -4.54,-2.152 -1.81,0 -3.26,1.019 -4.35,3.07 -0.68,1.266 -2.1,6.75 -4.25,16.418 -5.07,-8.836 -9.13,-14.504 -12.2,-17.051 -1.98,-1.617 -3.9,-2.437 -5.76,-2.437 -1.3,0 -2.49,0.469 -3.57,1.418 -0.77,0.719 -1.17,1.668 -1.17,2.883 0,1.07 0.37,1.968 1.09,2.683 0.7,0.719 1.58,1.067 2.63,1.067 1.03,0 2.15,-0.516 3.32,-1.563 0.84,-0.754 1.5,-1.117 1.95,-1.117 0.4,0 0.89,0.266 1.51,0.781 1.54,1.235 3.62,3.902 6.25,8 2.63,4.102 4.37,7.067 5.19,8.899 -2.04,7.902 -3.12,12.086 -3.29,12.535 -0.75,2.117 -1.71,3.617 -2.93,4.5 -1.2,0.883 -2.97,1.316 -5.32,1.316 -0.75,0 -1.61,-0.031 -2.58,-0.101 v 1.765 l 13.03,2.285" /><path
         id="path264"
         style="fill:none;stroke:#231f20;stroke-width:7.5005002;stroke-linecap:butt;stroke-linejoin:miter;stroke-miterlimit:2.61310005;stroke-dasharray:none;stroke-opacity:1"
         d="M 210.441,594.348 H 377.855" /><path
         id="path266"
         style="fill:none;stroke:#231f20;stroke-width:7.5005002;stroke-linecap:butt;stroke-linejoin:miter;stroke-miterlimit:2.61310005;stroke-dasharray:none;stroke-opacity:1"
         d="m 367.789,593.832 c 95.023,1.504 141.406,-46.187 139.152,-143.074" /><path
         id="path268"
         style="fill:#231f20;fill-opacity:1;fill-rule:evenodd;stroke:none"
         d="m 504.266,456.543 c 6.636,0 12.019,-5.383 12.019,-12.02 0,-6.636 -5.383,-12.019 -12.019,-12.019 -6.637,0 -12.02,5.383 -12.02,12.019 0,6.637 5.383,12.02 12.02,12.02" /><path
         id="path270"
         style="fill:none;stroke:#231f20;stroke-width:7.5005002;stroke-linecap:butt;stroke-linejoin:miter;stroke-miterlimit:2.61310005;stroke-dasharray:none;stroke-opacity:1"
         d="m 504.266,456.543 c 6.636,0 12.019,-5.383 12.019,-12.02 0,-6.636 -5.383,-12.019 -12.019,-12.019 -6.637,0 -12.02,5.383 -12.02,12.019 0,6.637 5.383,12.02 12.02,12.02 z" /><g
         id="g272"><g
           clip-path="url(#clipPath278)"
           id="g274"><path
             id="path280"
             style="fill:none;stroke:#231f20;stroke-width:3.5999999;stroke-linecap:butt;stroke-linejoin:miter;stroke-miterlimit:2.61310005;stroke-dasharray:none;stroke-opacity:1"
             d="M 164.941,456.555 372.926,664.539" /><path
             id="path282"
             style="fill:none;stroke:#231f20;stroke-width:3.5999999;stroke-linecap:butt;stroke-linejoin:miter;stroke-miterlimit:2.61310005;stroke-dasharray:none;stroke-opacity:1"
             d="M 185.305,436.191 393.289,644.176" /><path
             id="path284"
             style="fill:none;stroke:#231f20;stroke-width:3.5999999;stroke-linecap:butt;stroke-linejoin:miter;stroke-miterlimit:2.61310005;stroke-dasharray:none;stroke-opacity:1"
             d="M 205.668,415.824 413.652,623.809" /><path
             id="path286"
             style="fill:none;stroke:#231f20;stroke-width:3.5999999;stroke-linecap:butt;stroke-linejoin:miter;stroke-miterlimit:2.61310005;stroke-dasharray:none;stroke-opacity:1"
             d="M 226.035,395.461 434.02,603.445" /><path
             id="path288"
             style="fill:none;stroke:#231f20;stroke-width:3.5999999;stroke-linecap:butt;stroke-linejoin:miter;stroke-miterlimit:2.61310005;stroke-dasharray:none;stroke-opacity:1"
             d="M 246.398,375.098 454.383,583.082" /><path
             id="path290"
             style="fill:none;stroke:#231f20;stroke-width:3.5999999;stroke-linecap:butt;stroke-linejoin:miter;stroke-miterlimit:2.61310005;stroke-dasharray:none;stroke-opacity:1"
             d="M 266.762,354.73 474.746,562.715" /><path
             id="path292"
             style="fill:none;stroke:#231f20;stroke-width:3.5999999;stroke-linecap:butt;stroke-linejoin:miter;stroke-miterlimit:2.61310005;stroke-dasharray:none;stroke-opacity:1"
             d="M 287.129,334.367 495.113,542.352" /><path
             id="path294"
             style="fill:none;stroke:#231f20;stroke-width:3.5999999;stroke-linecap:butt;stroke-linejoin:miter;stroke-miterlimit:2.61310005;stroke-dasharray:none;stroke-opacity:1"
             d="M 307.492,314.004 515.477,521.988" /><path
             id="path296"
             style="fill:none;stroke:#231f20;stroke-width:3.5999999;stroke-linecap:butt;stroke-linejoin:miter;stroke-miterlimit:2.61310005;stroke-dasharray:none;stroke-opacity:1"
             d="M 327.855,293.637 535.844,501.621" /><path
             id="path298"
             style="fill:none;stroke:#231f20;stroke-width:3.5999999;stroke-linecap:butt;stroke-linejoin:miter;stroke-miterlimit:2.61310005;stroke-dasharray:none;stroke-opacity:1"
             d="M 348.223,273.273 556.207,481.258" /><path
             id="path300"
             style="fill:none;stroke:#231f20;stroke-width:3.5999999;stroke-linecap:butt;stroke-linejoin:miter;stroke-miterlimit:2.61310005;stroke-dasharray:none;stroke-opacity:1"
             d="M 368.586,252.906 576.57,460.895" /></g></g><path
         id="path302"
         style="fill:none;stroke:#231f20;stroke-width:5.00029993;stroke-linecap:butt;stroke-linejoin:miter;stroke-miterlimit:2.61310005;stroke-dasharray:none;stroke-opacity:1"
         d="m 339.023,368.207 h 60.2" /><path
         id="path304"
         style="fill:#231f20;fill-opacity:1;fill-rule:nonzero;stroke:none"
         d="m 478.027,403.355 v -1.82 c -4.281,-0.414 -7.797,-1.265 -10.515,-2.562 -2.715,-1.285 -5.399,-3.235 -8.051,-5.887 -2.645,-2.633 -4.848,-5.566 -6.598,-8.797 -1.73,-3.25 -3.199,-7.101 -4.363,-11.551 4.68,3.215 9.379,4.832 14.113,4.832 4.516,0 8.453,-1.832 11.77,-5.465 3.316,-3.652 4.98,-8.332 4.98,-14.066 0,-5.535 -1.683,-10.582 -5.035,-15.137 -4.031,-5.531 -9.379,-8.297 -16.012,-8.297 -4.535,0 -8.371,1.5 -11.535,4.485 -6.183,5.832 -9.265,13.379 -9.265,22.664 0,5.918 1.179,11.551 3.566,16.887 2.363,5.347 5.766,10.082 10.184,14.214 4.398,4.133 8.629,6.915 12.664,8.352 4.035,1.43 7.8,2.148 11.285,2.148 z m -30.363,-34.183 c -0.582,-4.399 -0.883,-7.953 -0.883,-10.649 0,-3.121 0.582,-6.519 1.735,-10.187 1.164,-3.648 2.882,-6.563 5.164,-8.715 1.648,-1.516 3.668,-2.281 6.05,-2.281 2.832,0 5.368,1.332 7.582,4 2.235,2.668 3.352,6.48 3.352,11.43 0,5.566 -1.098,10.382 -3.316,14.453 -2.215,4.066 -5.352,6.097 -9.434,6.097 -1.23,0 -2.551,-0.265 -3.969,-0.781 -1.414,-0.519 -3.515,-1.652 -6.281,-3.367" /><path
         id="path306"
         style="fill:#231f20;fill-opacity:1;fill-rule:nonzero;stroke:none"
         d="m 488.578,319.121 v 2.152 c 3.352,1.098 5.953,2.813 7.801,5.149 1.836,2.336 2.75,4.801 2.75,7.398 0,0.618 -0.149,1.137 -0.434,1.571 -0.23,0.281 -0.465,0.433 -0.683,0.433 -0.364,0 -1.149,-0.336 -2.348,-0.984 -0.586,-0.285 -1.199,-0.434 -1.852,-0.434 -1.597,0 -2.867,0.465 -3.816,1.418 -0.934,0.949 -1.418,2.246 -1.418,3.895 0,1.601 0.621,2.969 1.836,4.101 1.215,1.153 2.715,1.715 4.465,1.715 2.152,0 4.066,-0.93 5.734,-2.812 1.684,-1.868 2.516,-4.352 2.516,-7.438 0,-3.347 -1.164,-6.465 -3.484,-9.347 -2.333,-2.883 -6.016,-5.149 -11.067,-6.817" /><path
         id="path308"
         style="fill:#231f20;fill-opacity:1;fill-rule:nonzero;stroke:none"
         d="m 551.633,401.988 -3.821,-8.3 h -19.914 l -4.351,-8.899 c 8.633,-1.269 15.469,-4.469 20.5,-9.617 4.336,-4.418 6.5,-9.633 6.5,-15.617 0,-3.485 -0.699,-6.715 -2.113,-9.668 -1.418,-2.965 -3.204,-5.481 -5.352,-7.567 -2.148,-2.082 -4.551,-3.765 -7.184,-5.031 -3.734,-1.801 -7.582,-2.684 -11.519,-2.684 -3.981,0 -6.863,0.668 -8.664,2.016 -1.817,1.352 -2.719,2.848 -2.719,4.469 0,0.914 0.387,1.715 1.117,2.414 0.75,0.699 1.699,1.051 2.836,1.051 0.848,0 1.598,-0.117 2.235,-0.383 0.628,-0.27 1.714,-0.934 3.246,-2 2.437,-1.699 4.902,-2.551 7.418,-2.551 3.8,0 7.148,1.449 10.031,4.332 2.887,2.883 4.316,6.387 4.316,10.52 0,4 -1.281,7.73 -3.847,11.199 -2.582,3.465 -6.118,6.148 -10.649,8.031 -3.551,1.469 -8.387,2.317 -14.5,2.551 l 12.699,25.734 h 23.735" /><path
         id="path310"
         style="fill:none;stroke:#231f20;stroke-width:5.00029993;stroke-linecap:butt;stroke-linejoin:miter;stroke-miterlimit:2.61310005;stroke-dasharray:none;stroke-opacity:1"
         d="m 771.023,368.207 h 60.2" /><path
         id="path312"
         style="fill:#231f20;fill-opacity:1;fill-rule:nonzero;stroke:none"
         d="m 892.645,351.105 v -6.933 h -8.883 v -17.481 h -8.067 v 17.481 H 847.68 v 6.25 l 30.715,43.851 h 5.367 v -43.168 z m -16.95,0 v 32.868 l -23.234,-32.868 h 23.234" /><path
         id="path314"
         style="fill:#231f20;fill-opacity:1;fill-rule:nonzero;stroke:none"
         d="m 901.477,310.039 v 2.152 c 3.351,1.098 5.949,2.813 7.8,5.149 1.836,2.336 2.75,4.801 2.75,7.398 0,0.617 -0.148,1.137 -0.433,1.571 -0.235,0.281 -0.465,0.433 -0.684,0.433 -0.367,0 -1.152,-0.336 -2.348,-0.984 -0.585,-0.285 -1.199,-0.434 -1.851,-0.434 -1.602,0 -2.867,0.465 -3.816,1.418 -0.934,0.949 -1.418,2.246 -1.418,3.895 0,1.601 0.617,2.968 1.835,4.101 1.215,1.153 2.715,1.715 4.465,1.715 2.149,0 4.067,-0.93 5.735,-2.812 1.683,-1.868 2.515,-4.352 2.515,-7.438 0,-3.348 -1.164,-6.465 -3.484,-9.348 -2.332,-2.882 -6.016,-5.148 -11.066,-6.816" /><path
         id="path316"
         style="fill:#231f20;fill-opacity:1;fill-rule:nonzero;stroke:none"
         d="m 926.195,380.305 c 1.883,4.453 4.266,7.902 7.153,10.316 2.882,2.434 6.464,3.652 10.765,3.652 5.301,0 9.364,-1.734 12.199,-5.187 2.149,-2.563 3.235,-5.313 3.235,-8.246 0,-4.817 -3.035,-9.801 -9.086,-14.934 4.066,-1.601 7.137,-3.883 9.219,-6.851 2.082,-2.95 3.132,-6.43 3.132,-10.45 0,-5.714 -1.816,-10.683 -5.468,-14.882 -4.746,-5.465 -11.633,-8.2 -20.649,-8.2 -4.465,0 -7.5,0.547 -9.117,1.653 -1.598,1.113 -2.414,2.297 -2.414,3.562 0,0.953 0.383,1.785 1.148,2.5 0.766,0.719 1.684,1.067 2.766,1.067 0.801,0 1.637,-0.133 2.484,-0.383 0.551,-0.164 1.801,-0.766 3.766,-1.781 1.949,-1.036 3.301,-1.637 4.051,-1.836 1.199,-0.364 2.484,-0.532 3.848,-0.532 3.316,0 6.218,1.282 8.668,3.848 2.468,2.567 3.683,5.617 3.683,9.137 0,2.562 -0.566,5.082 -1.699,7.515 -0.848,1.817 -1.785,3.2 -2.781,4.149 -1.403,1.301 -3.321,2.484 -5.77,3.535 -2.433,1.066 -4.933,1.602 -7.465,1.602 h -1.57 v 1.464 c 2.57,0.317 5.152,1.25 7.738,2.782 2.598,1.515 4.481,3.367 5.649,5.515 1.164,2.153 1.75,4.504 1.75,7.067 0,3.371 -1.051,6.066 -3.153,8.133 -2.097,2.07 -4.699,3.101 -7.832,3.101 -5.05,0 -9.25,-2.699 -12.648,-8.098 l -1.602,0.782" /><path
         id="path318"
         style="fill:#231f20;fill-opacity:1;fill-rule:evenodd;stroke:none"
         d="m 863.426,459.543 c 6.636,0 12.019,-5.387 12.019,-12.02 0,-6.636 -5.383,-12.019 -12.019,-12.019 -6.637,0 -12.02,5.383 -12.02,12.019 0,6.633 5.383,12.02 12.02,12.02" /><path
         id="path320"
         style="fill:none;stroke:#231f20;stroke-width:7.5005002;stroke-linecap:butt;stroke-linejoin:miter;stroke-miterlimit:2.61310005;stroke-dasharray:none;stroke-opacity:1"
         d="m 863.426,459.543 c 6.636,0 12.019,-5.387 12.019,-12.02 0,-6.636 -5.383,-12.019 -12.019,-12.019 -6.637,0 -12.02,5.383 -12.02,12.019 0,6.633 5.383,12.02 12.02,12.02 z" /><path
         id="path322"
         style="fill:#231f20;fill-opacity:1;fill-rule:evenodd;stroke:none"
         d="m 2271.54,454.66 c 6.64,0 12.02,-5.383 12.02,-12.019 0,-6.637 -5.38,-12.02 -12.02,-12.02 -6.63,0 -12.01,5.383 -12.01,12.02 0,6.636 5.38,12.019 12.01,12.019" /><path
         id="path324"
         style="fill:none;stroke:#231f20;stroke-width:7.5005002;stroke-linecap:butt;stroke-linejoin:miter;stroke-miterlimit:2.61310005;stroke-dasharray:none;stroke-opacity:1"
         d="m 2271.54,454.66 c 6.64,0 12.02,-5.383 12.02,-12.019 0,-6.637 -5.38,-12.02 -12.02,-12.02 -6.63,0 -12.01,5.383 -12.01,12.02 0,6.636 5.38,12.019 12.01,12.019 z" /></g></g></svg>