<?xml version="1.0" encoding="UTF-8" standalone="no"?>
<svg
   xmlns:dc="http://purl.org/dc/elements/1.1/"
   xmlns:cc="http://creativecommons.org/ns#"
   xmlns:rdf="http://www.w3.org/1999/02/22-rdf-syntax-ns#"
   xmlns:svg="http://www.w3.org/2000/svg"
   xmlns="http://www.w3.org/2000/svg"
   viewBox="0 0 350.66666 76"
   height="76"
   width="350.66666"
   xml:space="preserve"
   id="svg2"
   version="1.1"><metadata
     id="metadata8"><rdf:RDF><cc:Work
         rdf:about=""><dc:format>image/svg+xml</dc:format><dc:type
           rdf:resource="http://purl.org/dc/dcmitype/StillImage" /></cc:Work></rdf:RDF></metadata><defs
     id="defs6"><clipPath
       id="clipPath50"
       clipPathUnits="userSpaceOnUse"><path
         style="clip-rule:evenodd"
         id="path48"
         d="M 900.234,476.199 H 153.605 v -58.703 h 746.629 z" /></clipPath><clipPath
       id="clipPath122"
       clipPathUnits="userSpaceOnUse"><path
         style="clip-rule:evenodd"
         id="path120"
         d="M 250.781,185.199 H 898.613 V 126.496 H 250.781 Z" /></clipPath><clipPath
       id="clipPath186"
       clipPathUnits="userSpaceOnUse"><path
         style="clip-rule:evenodd"
         id="path184"
         d="m 1598.25,473.195 h 242.89 v -58.703 h -242.89 z" /></clipPath><clipPath
       id="clipPath222"
       clipPathUnits="userSpaceOnUse"><path
         style="clip-rule:evenodd"
         id="path220"
         d="m 2356.46,179.898 h 220.25 v -58.703 h -220.25 z" /></clipPath></defs><g
     transform="matrix(1.3333333,0,0,-1.3333333,0,76)"
     id="g10"><g
       transform="scale(0.1)"
       id="g12"><path
         id="path14"
         style="fill:none;stroke:#231f20;stroke-width:7.5005002;stroke-linecap:butt;stroke-linejoin:miter;stroke-miterlimit:2.61310005;stroke-dasharray:none;stroke-opacity:1"
         d="M 171.82,558.336 H 771.473" /><path
         id="path16"
         style="fill:none;stroke:#231f20;stroke-width:7.5005002;stroke-linecap:butt;stroke-linejoin:miter;stroke-miterlimit:2.61310005;stroke-dasharray:none;stroke-opacity:1"
         d="m 761.41,557.812 c 95.02,1.5 141.406,-46.187 139.149,-143.074" /><path
         id="path18"
         style="fill:#231f20;fill-opacity:1;fill-rule:nonzero;stroke:none"
         d="m 18.9102,464.066 16.1171,7.868 h 1.6172 v -55.918 c 0,-3.7 0.1485,-6.016 0.4493,-6.934 0.3203,-0.898 0.9687,-1.602 1.9335,-2.098 0.9844,-0.488 2.9688,-0.765 5.9688,-0.836 v -1.8 h -24.918 v 1.8 c 3.1328,0.071 5.1524,0.336 6.0664,0.817 0.9024,0.469 1.5352,1.101 1.8985,1.898 0.3515,0.805 0.5351,3.184 0.5351,7.153 v 35.75 c 0,4.816 -0.164,7.902 -0.4843,9.265 -0.2305,1.051 -0.6485,1.821 -1.25,2.301 -0.6016,0.484 -1.3126,0.734 -2.1641,0.734 -1.2031,0 -2.8828,-0.504 -5.0352,-1.515 l -0.7343,1.515" /><path
         id="path20"
         style="fill:#231f20;fill-opacity:1;fill-rule:nonzero;stroke:none"
         d="m 59.4453,471.73 v 2.051 c 4.9492,-2.433 9.0664,-5.316 12.3516,-8.648 4.6484,-4.75 8.2461,-10.317 10.7812,-16.715 2.5469,-6.402 3.8164,-13.07 3.8164,-20.004 0,-10.082 -2.4843,-19.281 -7.4492,-27.598 -4.9687,-8.316 -11.4648,-14.265 -19.5,-17.851 v 1.801 c 4,2.25 7.3008,5.281 9.8828,9.117 2.5821,3.816 4.5157,8.683 5.7657,14.597 1.25,5.903 1.8828,12.071 1.8828,18.469 0,6.934 -0.5508,13.266 -1.6133,19 -0.8164,4.5 -1.836,8.082 -3.0508,10.801 -1.2344,2.699 -2.8516,5.297 -4.8672,7.797 -2.0156,2.519 -4.6836,4.902 -8,7.183" /><path
         id="path22"
         style="fill:none;stroke:#231f20;stroke-width:7.5005002;stroke-linecap:butt;stroke-linejoin:miter;stroke-miterlimit:2.61310005;stroke-dasharray:none;stroke-opacity:1"
         d="M 144.949,412.141 H 1125.2" /><path
         id="path24"
         style="fill:#231f20;fill-opacity:1;fill-rule:evenodd;stroke:none"
         d="m 1121.04,438.488 47.9,-26.347 -47.9,-26.348 v 52.695" /><path
         id="path26"
         style="fill:#231f20;fill-opacity:1;fill-rule:nonzero;stroke:none"
         d="m 878.672,368.188 16.117,7.863 h 1.617 v -55.914 c 0,-3.703 0.149,-6.016 0.449,-6.934 0.321,-0.902 0.969,-1.601 1.934,-2.101 0.984,-0.485 2.969,-0.766 5.969,-0.832 v -1.801 H 879.84 v 1.801 c 3.133,0.066 5.152,0.335 6.066,0.816 0.903,0.469 1.535,1.102 1.899,1.898 0.351,0.805 0.535,3.184 0.535,7.153 v 35.75 c 0,4.816 -0.164,7.898 -0.485,9.265 -0.23,1.051 -0.648,1.817 -1.25,2.301 -0.597,0.485 -1.312,0.735 -2.164,0.735 -1.203,0 -2.882,-0.504 -5.035,-1.52 l -0.734,1.52" /><path
         id="path28"
         style="fill:#231f20;fill-opacity:1;fill-rule:nonzero;stroke:none"
         d="m 924.957,368.188 16.117,7.863 h 1.614 v -55.914 c 0,-3.703 0.152,-6.016 0.453,-6.934 0.316,-0.902 0.964,-1.601 1.933,-2.101 0.985,-0.485 2.969,-0.766 5.965,-0.832 v -1.801 h -24.914 v 1.801 c 3.133,0.066 5.148,0.335 6.066,0.816 0.899,0.469 1.532,1.102 1.899,1.898 0.351,0.805 0.535,3.184 0.535,7.153 v 35.75 c 0,4.816 -0.168,7.898 -0.484,9.265 -0.235,1.051 -0.649,1.817 -1.25,2.301 -0.602,0.485 -1.317,0.735 -2.168,0.735 -1.2,0 -2.879,-0.504 -5.032,-1.52 l -0.734,1.52" /><path
         id="path30"
         style="fill:#231f20;fill-opacity:1;fill-rule:nonzero;stroke:none"
         d="m 1135.79,373.359 c 1.6,-1.683 2.8,-3.382 3.62,-5.066 0.58,-1.184 1.55,-4.25 2.88,-9.234 l 4.3,6.453 c 1.14,1.547 2.52,3.05 4.15,4.465 1.62,1.418 3.05,2.382 4.28,2.898 0.79,0.336 1.66,0.484 2.6,0.484 1.4,0 2.5,-0.363 3.34,-1.117 0.83,-0.75 1.25,-1.664 1.25,-2.73 0,-1.235 -0.25,-2.086 -0.74,-2.535 -0.91,-0.817 -1.95,-1.235 -3.11,-1.235 -0.68,0 -1.42,0.153 -2.2,0.453 -1.54,0.516 -2.57,0.782 -3.09,0.782 -0.78,0 -1.69,-0.469 -2.78,-1.368 -2.01,-1.699 -4.41,-4.964 -7.22,-9.816 l 4,-16.801 c 0.62,-2.562 1.14,-4.113 1.57,-4.617 0.42,-0.496 0.84,-0.746 1.27,-0.746 0.68,0 1.48,0.363 2.38,1.117 1.8,1.496 3.32,3.449 4.6,5.863 l 1.7,-0.882 c -2.05,-3.848 -4.65,-7.032 -7.81,-9.567 -1.79,-1.433 -3.31,-2.152 -4.54,-2.152 -1.81,0 -3.26,1.019 -4.35,3.07 -0.68,1.266 -2.1,6.75 -4.25,16.418 -5.07,-8.836 -9.13,-14.504 -12.2,-17.051 -1.98,-1.617 -3.9,-2.437 -5.76,-2.437 -1.3,0 -2.49,0.469 -3.57,1.418 -0.77,0.719 -1.17,1.668 -1.17,2.883 0,1.07 0.37,1.968 1.09,2.683 0.7,0.719 1.58,1.067 2.63,1.067 1.03,0 2.15,-0.516 3.32,-1.563 0.84,-0.754 1.5,-1.117 1.95,-1.117 0.4,0 0.89,0.266 1.51,0.781 1.54,1.235 3.62,3.902 6.25,8 2.63,4.102 4.37,7.067 5.19,8.899 -2.04,7.902 -3.12,12.086 -3.29,12.535 -0.75,2.117 -1.71,3.617 -2.93,4.5 -1.2,0.883 -2.97,1.316 -5.32,1.316 -0.75,0 -1.61,-0.031 -2.58,-0.101 v 1.765 l 13.03,2.285" /><path
         id="path32"
         style="fill:#231f20;fill-opacity:1;fill-rule:nonzero;stroke:none"
         d="m 18.3477,145.266 c 1.8867,4.453 4.2695,7.902 7.1523,10.316 2.8828,2.434 6.4688,3.652 10.7656,3.652 5.3008,0 9.3672,-1.734 12.2032,-5.183 2.1484,-2.567 3.2343,-5.317 3.2343,-8.25 0,-4.817 -3.039,-9.801 -9.0859,-14.934 4.0664,-1.601 7.1328,-3.883 9.2187,-6.851 2.0821,-2.946 3.1329,-6.43 3.1329,-10.45 0,-5.714 -1.8204,-10.683 -5.4688,-14.8824 -4.75,-5.4648 -11.6328,-8.1992 -20.6523,-8.1992 -4.4649,0 -7.4961,0.5468 -9.1133,1.6523 -1.6016,1.1133 -2.418,2.2969 -2.418,3.5664 0,0.9492 0.3828,1.7813 1.1484,2.5 0.7696,0.7149 1.6836,1.0625 2.7657,1.0625 0.8047,0 1.6367,-0.1328 2.4883,-0.3789 0.5507,-0.1679 1.8007,-0.7695 3.7656,-1.7851 1.9492,-1.0352 3.3008,-1.6368 4.0508,-1.8321 1.1953,-0.3672 2.4804,-0.5351 3.8476,-0.5351 3.3164,0 6.2149,1.2812 8.668,3.8515 2.4648,2.5621 3.6836,5.6131 3.6836,9.1331 0,2.562 -0.5664,5.082 -1.7032,7.515 -0.8476,1.817 -1.7812,3.2 -2.7812,4.149 -1.3984,1.301 -3.3164,2.484 -5.7656,3.535 -2.4336,1.066 -4.9336,1.602 -7.4688,1.602 h -1.5664 v 1.464 c 2.5664,0.317 5.1524,1.25 7.7344,2.782 2.6016,1.519 4.4844,3.371 5.6523,5.519 1.1641,2.149 1.7461,4.5 1.7461,7.067 0,3.367 -1.0468,6.066 -3.1484,8.132 -2.1016,2.067 -4.6992,3.098 -7.8359,3.098 -5.0469,0 -9.2461,-2.695 -12.6485,-8.098 l -1.6015,0.782" /><path
         id="path34"
         style="fill:#231f20;fill-opacity:1;fill-rule:nonzero;stroke:none"
         d="m 65.5156,159.031 v 2.055 c 4.9492,-2.438 9.0664,-5.32 12.3516,-8.652 4.6484,-4.75 8.25,-10.317 10.7851,-16.715 2.5469,-6.403 3.8125,-13.071 3.8125,-20.004 0,-10.082 -2.4804,-19.2814 -7.4492,-27.5978 -4.9648,-8.3164 -11.4648,-14.2656 -19.5,-17.8516 v 1.8008 c 4,2.25 7.3008,5.2852 9.8828,9.1211 2.586,3.8125 4.5196,8.6797 5.7696,14.5977 1.25,5.8988 1.8828,12.0668 1.8828,18.4648 0,6.934 -0.5508,13.266 -1.6172,19 -0.8164,4.5 -1.8359,8.082 -3.0508,10.801 -1.2305,2.699 -2.8516,5.297 -4.8672,7.797 -2.0156,2.519 -4.6836,4.902 -8,7.183" /><path
         id="path36"
         style="fill:#231f20;fill-opacity:1;fill-rule:nonzero;stroke:none"
         d="m 1469.09,392.812 -4.64,-12.75 h -39.06 v 1.801 c 11.49,10.481 19.58,19.047 24.27,25.684 4.68,6.648 7.03,12.715 7.03,18.215 0,4.199 -1.28,7.648 -3.87,10.347 -2.56,2.703 -5.63,4.051 -9.21,4.051 -3.27,0 -6.18,-0.949 -8.77,-2.848 -2.58,-1.902 -4.5,-4.699 -5.73,-8.367 h -1.82 c 0.82,6.016 2.9,10.633 6.28,13.867 3.37,3.215 7.57,4.833 12.62,4.833 5.37,0 9.85,-1.731 13.45,-5.184 3.6,-3.449 5.4,-7.516 5.4,-12.199 0,-3.352 -0.78,-6.719 -2.35,-10.067 -2.4,-5.269 -6.31,-10.847 -11.72,-16.75 -8.1,-8.851 -13.17,-14.183 -15.18,-16.015 h 17.28 c 3.52,0 5.98,0.132 7.4,0.398 1.42,0.25 2.7,0.781 3.83,1.582 1.14,0.801 2.14,1.938 2.99,3.402 h 1.8" /><path
         id="path38"
         style="fill:#231f20;fill-opacity:1;fill-rule:nonzero;stroke:none"
         d="m 1475.49,447.441 v 2.055 c 4.95,-2.437 9.06,-5.32 12.35,-8.652 4.65,-4.75 8.25,-10.317 10.78,-16.715 2.55,-6.402 3.82,-13.067 3.82,-20 0,-10.086 -2.48,-19.285 -7.45,-27.598 -4.97,-8.316 -11.47,-14.269 -19.5,-17.855 v 1.801 c 4,2.25 7.3,5.285 9.88,9.121 2.59,3.812 4.52,8.679 5.77,14.597 1.25,5.903 1.88,12.067 1.88,18.465 0,6.934 -0.55,13.27 -1.61,19.004 -0.82,4.496 -1.84,8.078 -3.05,10.797 -1.24,2.699 -2.86,5.301 -4.87,7.801 -2.02,2.515 -4.69,4.898 -8,7.179" /><path
         id="path40"
         style="fill:#231f20;fill-opacity:1;fill-rule:nonzero;stroke:none"
         d="m 1475.84,109.996 v -6.934 h -8.88 V 85.5781 h -8.07 v 17.4839 h -28.01 v 6.25 l 30.71,43.848 h 5.37 v -43.164 z m -16.95,0 v 32.863 l -23.23,-32.863 h 23.23" /><path
         id="path42"
         style="fill:#231f20;fill-opacity:1;fill-rule:nonzero;stroke:none"
         d="m 1481.56,152.961 v 2.051 c 4.95,-2.434 9.06,-5.317 12.35,-8.649 4.65,-4.754 8.25,-10.316 10.79,-16.718 2.54,-6.399 3.81,-13.067 3.81,-20 0,-10.0825 -2.48,-19.2856 -7.45,-27.5981 -4.97,-8.3164 -11.47,-14.2657 -19.5,-17.8516 v 1.8008 c 4,2.25 7.3,5.2812 9.88,9.1172 2.59,3.8164 4.52,8.6836 5.77,14.5976 1.25,5.9024 1.88,12.0661 1.88,18.4691 0,6.933 -0.55,13.265 -1.61,19 -0.82,4.5 -1.84,8.082 -3.05,10.8 -1.23,2.7 -2.85,5.297 -4.87,7.797 -2.01,2.516 -4.68,4.903 -8,7.184" /><g
         id="g44"><g
           clip-path="url(#clipPath50)"
           id="g46"><path
             id="path52"
             style="fill:none;stroke:#231f20;stroke-width:3.5999999;stroke-linecap:butt;stroke-linejoin:miter;stroke-miterlimit:2.61310005;stroke-dasharray:none;stroke-opacity:1"
             d="M 17.0156,426.555 547.164,956.703" /><path
             id="path54"
             style="fill:none;stroke:#231f20;stroke-width:3.5999999;stroke-linecap:butt;stroke-linejoin:miter;stroke-miterlimit:2.61310005;stroke-dasharray:none;stroke-opacity:1"
             d="M 37.3789,406.191 567.531,936.34" /><path
             id="path56"
             style="fill:none;stroke:#231f20;stroke-width:3.5999999;stroke-linecap:butt;stroke-linejoin:miter;stroke-miterlimit:2.61310005;stroke-dasharray:none;stroke-opacity:1"
             d="M 57.7422,385.824 587.895,915.977" /><path
             id="path58"
             style="fill:none;stroke:#231f20;stroke-width:3.5999999;stroke-linecap:butt;stroke-linejoin:miter;stroke-miterlimit:2.61310005;stroke-dasharray:none;stroke-opacity:1"
             d="M 78.1094,365.461 608.258,895.609" /><path
             id="path60"
             style="fill:none;stroke:#231f20;stroke-width:3.5999999;stroke-linecap:butt;stroke-linejoin:miter;stroke-miterlimit:2.61310005;stroke-dasharray:none;stroke-opacity:1"
             d="M 98.4727,345.098 628.625,875.246" /><path
             id="path62"
             style="fill:none;stroke:#231f20;stroke-width:3.5999999;stroke-linecap:butt;stroke-linejoin:miter;stroke-miterlimit:2.61310005;stroke-dasharray:none;stroke-opacity:1"
             d="M 118.84,324.73 648.988,854.883" /><path
             id="path64"
             style="fill:none;stroke:#231f20;stroke-width:3.5999999;stroke-linecap:butt;stroke-linejoin:miter;stroke-miterlimit:2.61310005;stroke-dasharray:none;stroke-opacity:1"
             d="M 139.203,304.367 669.352,834.516" /><path
             id="path66"
             style="fill:none;stroke:#231f20;stroke-width:3.5999999;stroke-linecap:butt;stroke-linejoin:miter;stroke-miterlimit:2.61310005;stroke-dasharray:none;stroke-opacity:1"
             d="M 159.566,284.004 689.719,814.152" /><path
             id="path68"
             style="fill:none;stroke:#231f20;stroke-width:3.5999999;stroke-linecap:butt;stroke-linejoin:miter;stroke-miterlimit:2.61310005;stroke-dasharray:none;stroke-opacity:1"
             d="M 179.934,263.637 710.082,793.789" /><path
             id="path70"
             style="fill:none;stroke:#231f20;stroke-width:3.5999999;stroke-linecap:butt;stroke-linejoin:miter;stroke-miterlimit:2.61310005;stroke-dasharray:none;stroke-opacity:1"
             d="M 200.297,243.273 730.445,773.422" /><path
             id="path72"
             style="fill:none;stroke:#231f20;stroke-width:3.5999999;stroke-linecap:butt;stroke-linejoin:miter;stroke-miterlimit:2.61310005;stroke-dasharray:none;stroke-opacity:1"
             d="M 220.66,222.906 750.812,753.059" /><path
             id="path74"
             style="fill:none;stroke:#231f20;stroke-width:3.5999999;stroke-linecap:butt;stroke-linejoin:miter;stroke-miterlimit:2.61310005;stroke-dasharray:none;stroke-opacity:1"
             d="M 241.027,202.543 771.176,732.695" /><path
             id="path76"
             style="fill:none;stroke:#231f20;stroke-width:3.5999999;stroke-linecap:butt;stroke-linejoin:miter;stroke-miterlimit:2.61310005;stroke-dasharray:none;stroke-opacity:1"
             d="M 261.391,182.18 791.539,712.328" /><path
             id="path78"
             style="fill:none;stroke:#231f20;stroke-width:3.5999999;stroke-linecap:butt;stroke-linejoin:miter;stroke-miterlimit:2.61310005;stroke-dasharray:none;stroke-opacity:1"
             d="M 281.754,161.812 811.906,691.965" /><path
             id="path80"
             style="fill:none;stroke:#231f20;stroke-width:3.5999999;stroke-linecap:butt;stroke-linejoin:miter;stroke-miterlimit:2.61310005;stroke-dasharray:none;stroke-opacity:1"
             d="M 302.121,141.449 832.27,671.598" /><path
             id="path82"
             style="fill:none;stroke:#231f20;stroke-width:3.5999999;stroke-linecap:butt;stroke-linejoin:miter;stroke-miterlimit:2.61310005;stroke-dasharray:none;stroke-opacity:1"
             d="M 322.484,121.086 852.637,651.234" /><path
             id="path84"
             style="fill:none;stroke:#231f20;stroke-width:3.5999999;stroke-linecap:butt;stroke-linejoin:miter;stroke-miterlimit:2.61310005;stroke-dasharray:none;stroke-opacity:1"
             d="M 342.848,100.719 873,630.871" /><path
             id="path86"
             style="fill:none;stroke:#231f20;stroke-width:3.5999999;stroke-linecap:butt;stroke-linejoin:miter;stroke-miterlimit:2.61310005;stroke-dasharray:none;stroke-opacity:1"
             d="M 363.215,80.3555 893.363,610.504" /><path
             id="path88"
             style="fill:none;stroke:#231f20;stroke-width:3.5999999;stroke-linecap:butt;stroke-linejoin:miter;stroke-miterlimit:2.61310005;stroke-dasharray:none;stroke-opacity:1"
             d="M 383.578,59.9922 913.73,590.141" /><path
             id="path90"
             style="fill:none;stroke:#231f20;stroke-width:3.5999999;stroke-linecap:butt;stroke-linejoin:miter;stroke-miterlimit:2.61310005;stroke-dasharray:none;stroke-opacity:1"
             d="M 403.945,39.625 934.094,569.777" /><path
             id="path92"
             style="fill:none;stroke:#231f20;stroke-width:3.5999999;stroke-linecap:butt;stroke-linejoin:miter;stroke-miterlimit:2.61310005;stroke-dasharray:none;stroke-opacity:1"
             d="M 424.309,19.2617 954.457,549.41" /><path
             id="path94"
             style="fill:none;stroke:#231f20;stroke-width:3.5999999;stroke-linecap:butt;stroke-linejoin:miter;stroke-miterlimit:2.61310005;stroke-dasharray:none;stroke-opacity:1"
             d="M 444.672,-1.10156 974.824,529.047" /><path
             id="path96"
             style="fill:none;stroke:#231f20;stroke-width:3.5999999;stroke-linecap:butt;stroke-linejoin:miter;stroke-miterlimit:2.61310005;stroke-dasharray:none;stroke-opacity:1"
             d="M 465.039,-21.4688 995.188,508.684" /><path
             id="path98"
             style="fill:none;stroke:#231f20;stroke-width:3.5999999;stroke-linecap:butt;stroke-linejoin:miter;stroke-miterlimit:2.61310005;stroke-dasharray:none;stroke-opacity:1"
             d="M 485.402,-41.832 1015.55,488.316" /><path
             id="path100"
             style="fill:none;stroke:#231f20;stroke-width:3.5999999;stroke-linecap:butt;stroke-linejoin:miter;stroke-miterlimit:2.61310005;stroke-dasharray:none;stroke-opacity:1"
             d="M 505.766,-62.1992 1035.92,467.953" /><path
             id="path102"
             style="fill:none;stroke:#231f20;stroke-width:3.5999999;stroke-linecap:butt;stroke-linejoin:miter;stroke-miterlimit:2.61310005;stroke-dasharray:none;stroke-opacity:1"
             d="M 526.133,-82.5625 1056.28,447.59" /><path
             id="path104"
             style="fill:none;stroke:#231f20;stroke-width:3.5999999;stroke-linecap:butt;stroke-linejoin:miter;stroke-miterlimit:2.61310005;stroke-dasharray:none;stroke-opacity:1"
             d="M 546.496,-102.926 1076.64,427.223" /></g></g><path
         id="path106"
         style="fill:none;stroke:#231f20;stroke-width:7.5005002;stroke-linecap:butt;stroke-linejoin:miter;stroke-miterlimit:2.61310005;stroke-dasharray:none;stroke-opacity:1"
         d="M 144.949,124.141 H 1125.2" /><path
         id="path108"
         style="fill:#231f20;fill-opacity:1;fill-rule:evenodd;stroke:none"
         d="m 1121.04,150.488 47.9,-26.347 -47.9,-26.348 v 52.695" /><path
         id="path110"
         style="fill:#231f20;fill-opacity:1;fill-rule:nonzero;stroke:none"
         d="m 1135.79,85.3594 c 1.6,-1.6836 2.8,-3.3828 3.62,-5.0664 0.58,-1.1836 1.55,-4.25 2.88,-9.2344 l 4.3,6.4531 c 1.14,1.5469 2.52,3.0508 4.15,4.4649 1.62,1.4179 3.05,2.3828 4.28,2.8984 0.79,0.3359 1.66,0.4844 2.6,0.4844 1.4,0 2.5,-0.3633 3.34,-1.1172 0.83,-0.75 1.25,-1.6641 1.25,-2.7305 0,-1.2344 -0.25,-2.0859 -0.74,-2.5351 -0.91,-0.8164 -1.95,-1.2344 -3.11,-1.2344 -0.68,0 -1.42,0.1523 -2.2,0.4531 -1.54,0.5156 -2.57,0.7813 -3.09,0.7813 -0.78,0 -1.69,-0.4688 -2.78,-1.3672 -2.01,-1.6992 -4.41,-4.9649 -7.22,-9.8164 l 4,-16.8008 c 0.62,-2.5625 1.14,-4.1133 1.57,-4.6172 0.42,-0.4961 0.84,-0.7461 1.27,-0.7461 0.68,0 1.48,0.3633 2.38,1.1172 1.8,1.4961 3.32,3.4492 4.6,5.8633 l 1.7,-0.8828 c -2.05,-3.8477 -4.65,-7.0313 -7.81,-9.5664 -1.79,-1.4336 -3.31,-2.1524 -4.54,-2.1524 -1.81,0 -3.26,1.0195 -4.35,3.0703 -0.68,1.2657 -2.1,6.75 -4.25,16.418 -5.07,-8.8359 -9.13,-14.5039 -12.2,-17.0508 -1.98,-1.6172 -3.9,-2.4375 -5.76,-2.4375 -1.3,0 -2.49,0.4688 -3.57,1.418 -0.77,0.7187 -1.17,1.668 -1.17,2.8828 0,1.0703 0.37,1.9687 1.09,2.6836 0.7,0.7187 1.58,1.0664 2.63,1.0664 1.03,0 2.15,-0.5156 3.32,-1.5625 0.84,-0.7539 1.5,-1.1172 1.95,-1.1172 0.4,0 0.89,0.2656 1.51,0.7813 1.54,1.2343 3.62,3.9023 6.25,8 2.63,4.1015 4.37,7.0664 5.19,8.8984 -2.04,7.9023 -3.12,12.0859 -3.29,12.5352 -0.75,2.1171 -1.71,3.6171 -2.93,4.5 -1.2,0.8828 -2.97,1.3164 -5.32,1.3164 -0.75,0 -1.61,-0.0313 -2.58,-0.1016 v 1.7656 l 13.03,2.2852" /><path
         id="path112"
         style="fill:none;stroke:#231f20;stroke-width:7.5005002;stroke-linecap:butt;stroke-linejoin:miter;stroke-miterlimit:2.61310005;stroke-dasharray:none;stroke-opacity:1"
         d="M 783.105,265.82 H 382.258" /><path
         id="path114"
         style="fill:none;stroke:#231f20;stroke-width:7.5005002;stroke-linecap:butt;stroke-linejoin:miter;stroke-miterlimit:2.61310005;stroke-dasharray:none;stroke-opacity:1"
         d="m 392.32,265.297 c -95.019,1.5 -141.406,-46.188 -139.148,-143.074" /><g
         id="g116"><g
           clip-path="url(#clipPath122)"
           id="g118"><path
             id="path124"
             style="fill:none;stroke:#231f20;stroke-width:3.5999999;stroke-linecap:butt;stroke-linejoin:miter;stroke-miterlimit:2.61310005;stroke-dasharray:none;stroke-opacity:1"
             d="M 134.387,135.676 595.043,596.332" /><path
             id="path126"
             style="fill:none;stroke:#231f20;stroke-width:3.5999999;stroke-linecap:butt;stroke-linejoin:miter;stroke-miterlimit:2.61310005;stroke-dasharray:none;stroke-opacity:1"
             d="M 154.754,115.309 615.41,575.969" /><path
             id="path128"
             style="fill:none;stroke:#231f20;stroke-width:3.5999999;stroke-linecap:butt;stroke-linejoin:miter;stroke-miterlimit:2.61310005;stroke-dasharray:none;stroke-opacity:1"
             d="M 175.117,94.9453 635.773,555.602" /><path
             id="path130"
             style="fill:none;stroke:#231f20;stroke-width:3.5999999;stroke-linecap:butt;stroke-linejoin:miter;stroke-miterlimit:2.61310005;stroke-dasharray:none;stroke-opacity:1"
             d="M 195.48,74.582 656.137,535.238" /><path
             id="path132"
             style="fill:none;stroke:#231f20;stroke-width:3.5999999;stroke-linecap:butt;stroke-linejoin:miter;stroke-miterlimit:2.61310005;stroke-dasharray:none;stroke-opacity:1"
             d="M 215.848,54.2148 676.504,514.871" /><path
             id="path134"
             style="fill:none;stroke:#231f20;stroke-width:3.5999999;stroke-linecap:butt;stroke-linejoin:miter;stroke-miterlimit:2.61310005;stroke-dasharray:none;stroke-opacity:1"
             d="M 236.211,33.8516 696.867,494.508" /><path
             id="path136"
             style="fill:none;stroke:#231f20;stroke-width:3.5999999;stroke-linecap:butt;stroke-linejoin:miter;stroke-miterlimit:2.61310005;stroke-dasharray:none;stroke-opacity:1"
             d="M 256.574,13.4883 717.234,474.145" /><path
             id="path138"
             style="fill:none;stroke:#231f20;stroke-width:3.5999999;stroke-linecap:butt;stroke-linejoin:miter;stroke-miterlimit:2.61310005;stroke-dasharray:none;stroke-opacity:1"
             d="M 276.941,-6.87891 737.598,453.777" /><path
             id="path140"
             style="fill:none;stroke:#231f20;stroke-width:3.5999999;stroke-linecap:butt;stroke-linejoin:miter;stroke-miterlimit:2.61310005;stroke-dasharray:none;stroke-opacity:1"
             d="M 297.305,-27.2422 757.961,433.414" /><path
             id="path142"
             style="fill:none;stroke:#231f20;stroke-width:3.5999999;stroke-linecap:butt;stroke-linejoin:miter;stroke-miterlimit:2.61310005;stroke-dasharray:none;stroke-opacity:1"
             d="M 317.672,-47.6055 778.328,413.051" /><path
             id="path144"
             style="fill:none;stroke:#231f20;stroke-width:3.5999999;stroke-linecap:butt;stroke-linejoin:miter;stroke-miterlimit:2.61310005;stroke-dasharray:none;stroke-opacity:1"
             d="M 338.035,-67.9727 798.691,392.684" /><path
             id="path146"
             style="fill:none;stroke:#231f20;stroke-width:3.5999999;stroke-linecap:butt;stroke-linejoin:miter;stroke-miterlimit:2.61310005;stroke-dasharray:none;stroke-opacity:1"
             d="M 358.398,-88.3359 819.055,372.32" /><path
             id="path148"
             style="fill:none;stroke:#231f20;stroke-width:3.5999999;stroke-linecap:butt;stroke-linejoin:miter;stroke-miterlimit:2.61310005;stroke-dasharray:none;stroke-opacity:1"
             d="M 378.766,-108.699 839.422,351.957" /><path
             id="path150"
             style="fill:none;stroke:#231f20;stroke-width:3.5999999;stroke-linecap:butt;stroke-linejoin:miter;stroke-miterlimit:2.61310005;stroke-dasharray:none;stroke-opacity:1"
             d="M 399.129,-129.066 859.785,331.59" /><path
             id="path152"
             style="fill:none;stroke:#231f20;stroke-width:3.5999999;stroke-linecap:butt;stroke-linejoin:miter;stroke-miterlimit:2.61310005;stroke-dasharray:none;stroke-opacity:1"
             d="M 419.492,-149.43 880.148,311.227" /><path
             id="path154"
             style="fill:none;stroke:#231f20;stroke-width:3.5999999;stroke-linecap:butt;stroke-linejoin:miter;stroke-miterlimit:2.61310005;stroke-dasharray:none;stroke-opacity:1"
             d="m 439.859,-169.797 460.657,460.66" /><path
             id="path156"
             style="fill:none;stroke:#231f20;stroke-width:3.5999999;stroke-linecap:butt;stroke-linejoin:miter;stroke-miterlimit:2.61310005;stroke-dasharray:none;stroke-opacity:1"
             d="M 460.223,-190.16 920.879,270.496" /><path
             id="path158"
             style="fill:none;stroke:#231f20;stroke-width:3.5999999;stroke-linecap:butt;stroke-linejoin:miter;stroke-miterlimit:2.61310005;stroke-dasharray:none;stroke-opacity:1"
             d="M 480.586,-210.523 941.242,250.133" /><path
             id="path160"
             style="fill:none;stroke:#231f20;stroke-width:3.5999999;stroke-linecap:butt;stroke-linejoin:miter;stroke-miterlimit:2.61310005;stroke-dasharray:none;stroke-opacity:1"
             d="M 500.953,-230.891 961.609,229.766" /><path
             id="path162"
             style="fill:none;stroke:#231f20;stroke-width:3.5999999;stroke-linecap:butt;stroke-linejoin:miter;stroke-miterlimit:2.61310005;stroke-dasharray:none;stroke-opacity:1"
             d="M 521.316,-251.254 981.973,209.402" /><path
             id="path164"
             style="fill:none;stroke:#231f20;stroke-width:3.5999999;stroke-linecap:butt;stroke-linejoin:miter;stroke-miterlimit:2.61310005;stroke-dasharray:none;stroke-opacity:1"
             d="m 541.68,-271.617 460.66,460.656" /><path
             id="path166"
             style="fill:none;stroke:#231f20;stroke-width:3.5999999;stroke-linecap:butt;stroke-linejoin:miter;stroke-miterlimit:2.61310005;stroke-dasharray:none;stroke-opacity:1"
             d="M 562.047,-291.984 1022.7,168.672" /><path
             id="path168"
             style="fill:none;stroke:#231f20;stroke-width:3.5999999;stroke-linecap:butt;stroke-linejoin:miter;stroke-miterlimit:2.61310005;stroke-dasharray:none;stroke-opacity:1"
             d="m 582.41,-312.348 460.66,460.657" /></g></g><path
         id="path170"
         style="fill:none;stroke:#231f20;stroke-width:7.5005002;stroke-linecap:butt;stroke-linejoin:miter;stroke-miterlimit:2.61310005;stroke-dasharray:none;stroke-opacity:1"
         d="M 1584.95,412.141 H 2565.2" /><path
         id="path172"
         style="fill:#231f20;fill-opacity:1;fill-rule:evenodd;stroke:none"
         d="m 2561.04,438.488 47.9,-26.347 -47.9,-26.348 v 52.695" /><path
         id="path174"
         style="fill:#231f20;fill-opacity:1;fill-rule:nonzero;stroke:none"
         d="m 2575.79,373.359 c 1.6,-1.683 2.8,-3.382 3.62,-5.066 0.58,-1.184 1.55,-4.25 2.88,-9.234 l 4.3,6.453 c 1.14,1.547 2.52,3.05 4.15,4.465 1.62,1.418 3.05,2.382 4.28,2.898 0.79,0.336 1.66,0.484 2.6,0.484 1.4,0 2.5,-0.363 3.34,-1.117 0.83,-0.75 1.25,-1.664 1.25,-2.73 0,-1.235 -0.25,-2.086 -0.74,-2.535 -0.91,-0.817 -1.95,-1.235 -3.11,-1.235 -0.68,0 -1.42,0.153 -2.2,0.453 -1.54,0.516 -2.57,0.782 -3.09,0.782 -0.78,0 -1.69,-0.469 -2.78,-1.368 -2.01,-1.699 -4.41,-4.964 -7.22,-9.816 l 4,-16.801 c 0.62,-2.562 1.14,-4.113 1.57,-4.617 0.42,-0.496 0.84,-0.746 1.27,-0.746 0.68,0 1.48,0.363 2.38,1.117 1.8,1.496 3.32,3.449 4.6,5.863 l 1.7,-0.882 c -2.05,-3.848 -4.65,-7.032 -7.81,-9.567 -1.79,-1.433 -3.31,-2.152 -4.54,-2.152 -1.81,0 -3.26,1.019 -4.35,3.07 -0.68,1.266 -2.1,6.75 -4.25,16.418 -5.07,-8.836 -9.13,-14.504 -12.2,-17.051 -1.98,-1.617 -3.9,-2.437 -5.76,-2.437 -1.3,0 -2.49,0.469 -3.57,1.418 -0.77,0.719 -1.17,1.668 -1.17,2.883 0,1.07 0.37,1.968 1.09,2.683 0.7,0.719 1.58,1.067 2.63,1.067 1.03,0 2.15,-0.516 3.32,-1.563 0.84,-0.754 1.5,-1.117 1.95,-1.117 0.4,0 0.89,0.266 1.51,0.781 1.54,1.235 3.62,3.902 6.25,8 2.63,4.102 4.37,7.067 5.19,8.899 -2.04,7.902 -3.12,12.086 -3.29,12.535 -0.75,2.117 -1.71,3.617 -2.93,4.5 -1.2,0.883 -2.97,1.316 -5.32,1.316 -0.75,0 -1.61,-0.031 -2.58,-0.101 v 1.765 l 13.03,2.285" /><path
         id="path176"
         style="fill:none;stroke:#231f20;stroke-width:7.5005002;stroke-linecap:butt;stroke-linejoin:miter;stroke-miterlimit:2.61310005;stroke-dasharray:none;stroke-opacity:1"
         d="m 1613.43,564.348 h 96.43" /><path
         id="path178"
         style="fill:none;stroke:#231f20;stroke-width:7.5005002;stroke-linecap:butt;stroke-linejoin:miter;stroke-miterlimit:2.61310005;stroke-dasharray:none;stroke-opacity:1"
         d="m 1699.79,563.832 c 95.02,1.504 141.41,-46.187 139.15,-143.074" /><g
         id="g180"><g
           clip-path="url(#clipPath186)"
           id="g182"><path
             id="path188"
             style="fill:none;stroke:#231f20;stroke-width:3.5999999;stroke-linecap:butt;stroke-linejoin:miter;stroke-miterlimit:2.61310005;stroke-dasharray:none;stroke-opacity:1"
             d="M 1563.13,423.316 1740.2,600.387" /><path
             id="path190"
             style="fill:none;stroke:#231f20;stroke-width:3.5999999;stroke-linecap:butt;stroke-linejoin:miter;stroke-miterlimit:2.61310005;stroke-dasharray:none;stroke-opacity:1"
             d="m 1583.5,402.949 177.07,177.074" /><path
             id="path192"
             style="fill:none;stroke:#231f20;stroke-width:3.5999999;stroke-linecap:butt;stroke-linejoin:miter;stroke-miterlimit:2.61310005;stroke-dasharray:none;stroke-opacity:1"
             d="M 1603.86,382.586 1780.93,559.66" /><path
             id="path194"
             style="fill:none;stroke:#231f20;stroke-width:3.5999999;stroke-linecap:butt;stroke-linejoin:miter;stroke-miterlimit:2.61310005;stroke-dasharray:none;stroke-opacity:1"
             d="m 1624.23,362.223 177.07,177.07" /><path
             id="path196"
             style="fill:none;stroke:#231f20;stroke-width:3.5999999;stroke-linecap:butt;stroke-linejoin:miter;stroke-miterlimit:2.61310005;stroke-dasharray:none;stroke-opacity:1"
             d="M 1644.59,341.855 1821.66,518.93" /><path
             id="path198"
             style="fill:none;stroke:#231f20;stroke-width:3.5999999;stroke-linecap:butt;stroke-linejoin:miter;stroke-miterlimit:2.61310005;stroke-dasharray:none;stroke-opacity:1"
             d="m 1664.95,321.492 177.08,177.074" /><path
             id="path200"
             style="fill:none;stroke:#231f20;stroke-width:3.5999999;stroke-linecap:butt;stroke-linejoin:miter;stroke-miterlimit:2.61310005;stroke-dasharray:none;stroke-opacity:1"
             d="m 1685.32,301.125 177.07,177.074" /><path
             id="path202"
             style="fill:none;stroke:#231f20;stroke-width:3.5999999;stroke-linecap:butt;stroke-linejoin:miter;stroke-miterlimit:2.61310005;stroke-dasharray:none;stroke-opacity:1"
             d="m 1705.68,280.762 177.08,177.074" /><path
             id="path204"
             style="fill:none;stroke:#231f20;stroke-width:3.5999999;stroke-linecap:butt;stroke-linejoin:miter;stroke-miterlimit:2.61310005;stroke-dasharray:none;stroke-opacity:1"
             d="m 1726.05,260.398 177.07,177.075" /></g></g><path
         id="path206"
         style="fill:none;stroke:#231f20;stroke-width:7.5005002;stroke-linecap:butt;stroke-linejoin:miter;stroke-miterlimit:2.61310005;stroke-dasharray:none;stroke-opacity:1"
         d="M 1584.95,124.141 H 2565.2" /><path
         id="path208"
         style="fill:#231f20;fill-opacity:1;fill-rule:evenodd;stroke:none"
         d="m 2561.04,150.488 47.9,-26.347 -47.9,-26.348 v 52.695" /><path
         id="path210"
         style="fill:#231f20;fill-opacity:1;fill-rule:nonzero;stroke:none"
         d="m 2575.79,85.3594 c 1.6,-1.6836 2.8,-3.3828 3.62,-5.0664 0.58,-1.1836 1.55,-4.25 2.88,-9.2344 l 4.3,6.4531 c 1.14,1.5469 2.52,3.0508 4.15,4.4649 1.62,1.4179 3.05,2.3828 4.28,2.8984 0.79,0.3359 1.66,0.4844 2.6,0.4844 1.4,0 2.5,-0.3633 3.34,-1.1172 0.83,-0.75 1.25,-1.6641 1.25,-2.7305 0,-1.2344 -0.25,-2.0859 -0.74,-2.5351 -0.91,-0.8164 -1.95,-1.2344 -3.11,-1.2344 -0.68,0 -1.42,0.1523 -2.2,0.4531 -1.54,0.5156 -2.57,0.7813 -3.09,0.7813 -0.78,0 -1.69,-0.4688 -2.78,-1.3672 -2.01,-1.6992 -4.41,-4.9649 -7.22,-9.8164 l 4,-16.8008 c 0.62,-2.5625 1.14,-4.1133 1.57,-4.6172 0.42,-0.4961 0.84,-0.7461 1.27,-0.7461 0.68,0 1.48,0.3633 2.38,1.1172 1.8,1.4961 3.32,3.4492 4.6,5.8633 l 1.7,-0.8828 c -2.05,-3.8477 -4.65,-7.0313 -7.81,-9.5664 -1.79,-1.4336 -3.31,-2.1524 -4.54,-2.1524 -1.81,0 -3.26,1.0195 -4.35,3.0703 -0.68,1.2657 -2.1,6.75 -4.25,16.418 -5.07,-8.8359 -9.13,-14.5039 -12.2,-17.0508 -1.98,-1.6172 -3.9,-2.4375 -5.76,-2.4375 -1.3,0 -2.49,0.4688 -3.57,1.418 -0.77,0.7187 -1.17,1.668 -1.17,2.8828 0,1.0703 0.37,1.9687 1.09,2.6836 0.7,0.7187 1.58,1.0664 2.63,1.0664 1.03,0 2.15,-0.5156 3.32,-1.5625 0.84,-0.7539 1.5,-1.1172 1.95,-1.1172 0.4,0 0.89,0.2656 1.51,0.7813 1.54,1.2343 3.62,3.9023 6.25,8 2.63,4.1015 4.37,7.0664 5.19,8.8984 -2.04,7.9023 -3.12,12.0859 -3.29,12.5352 -0.75,2.1171 -1.71,3.6171 -2.93,4.5 -1.2,0.8828 -2.97,1.3164 -5.32,1.3164 -0.75,0 -1.61,-0.0313 -2.58,-0.1016 v 1.7656 l 13.03,2.2852" /><path
         id="path212"
         style="fill:none;stroke:#231f20;stroke-width:7.5005002;stroke-linecap:butt;stroke-linejoin:miter;stroke-miterlimit:2.61310005;stroke-dasharray:none;stroke-opacity:1"
         d="M 2624.9,264.617 H 2479.36" /><path
         id="path214"
         style="fill:none;stroke:#231f20;stroke-width:7.5005002;stroke-linecap:butt;stroke-linejoin:miter;stroke-miterlimit:2.61310005;stroke-dasharray:none;stroke-opacity:1"
         d="M 2494.15,264.484 C 2399.13,265.984 2352.74,218.297 2355,121.41" /><g
         id="g216"><g
           clip-path="url(#clipPath222)"
           id="g218"><path
             id="path224"
             style="fill:none;stroke:#231f20;stroke-width:3.5999999;stroke-linecap:butt;stroke-linejoin:miter;stroke-miterlimit:2.61310005;stroke-dasharray:none;stroke-opacity:1"
             d="M 2325.43,130.273 2487.2,292.055" /><path
             id="path226"
             style="fill:none;stroke:#231f20;stroke-width:3.5999999;stroke-linecap:butt;stroke-linejoin:miter;stroke-miterlimit:2.61310005;stroke-dasharray:none;stroke-opacity:1"
             d="m 2345.79,109.91 161.78,161.778" /><path
             id="path228"
             style="fill:none;stroke:#231f20;stroke-width:3.5999999;stroke-linecap:butt;stroke-linejoin:miter;stroke-miterlimit:2.61310005;stroke-dasharray:none;stroke-opacity:1"
             d="M 2366.16,89.5469 2527.93,251.324" /><path
             id="path230"
             style="fill:none;stroke:#231f20;stroke-width:3.5999999;stroke-linecap:butt;stroke-linejoin:miter;stroke-miterlimit:2.61310005;stroke-dasharray:none;stroke-opacity:1"
             d="M 2386.52,69.1797 2548.3,230.961" /><path
             id="path232"
             style="fill:none;stroke:#231f20;stroke-width:3.5999999;stroke-linecap:butt;stroke-linejoin:miter;stroke-miterlimit:2.61310005;stroke-dasharray:none;stroke-opacity:1"
             d="M 2406.89,48.8164 2568.66,210.594" /><path
             id="path234"
             style="fill:none;stroke:#231f20;stroke-width:3.5999999;stroke-linecap:butt;stroke-linejoin:miter;stroke-miterlimit:2.61310005;stroke-dasharray:none;stroke-opacity:1"
             d="M 2427.25,28.4531 2589.03,190.23" /><path
             id="path236"
             style="fill:none;stroke:#231f20;stroke-width:3.5999999;stroke-linecap:butt;stroke-linejoin:miter;stroke-miterlimit:2.61310005;stroke-dasharray:none;stroke-opacity:1"
             d="M 2447.61,8.08594 2609.39,169.863" /><path
             id="path238"
             style="fill:none;stroke:#231f20;stroke-width:3.5999999;stroke-linecap:butt;stroke-linejoin:miter;stroke-miterlimit:2.61310005;stroke-dasharray:none;stroke-opacity:1"
             d="M 2467.98,-12.2773 2629.76,149.5" /></g></g><path
         id="path240"
         style="fill:#231f20;fill-opacity:1;fill-rule:nonzero;stroke:none"
         d="m 1834.11,327.238 -4.63,-12.75 h -39.07 v 1.801 c 11.49,10.481 19.59,19.047 24.27,25.684 4.68,6.648 7.03,12.715 7.03,18.215 0,4.199 -1.28,7.652 -3.86,10.347 -2.57,2.703 -5.64,4.051 -9.22,4.051 -3.26,0 -6.18,-0.949 -8.77,-2.848 -2.58,-1.902 -4.49,-4.699 -5.73,-8.367 h -1.81 c 0.81,6.016 2.89,10.633 6.28,13.867 3.36,3.215 7.56,4.832 12.61,4.832 5.37,0 9.86,-1.73 13.45,-5.183 3.61,-3.449 5.41,-7.516 5.41,-12.199 0,-3.348 -0.79,-6.719 -2.36,-10.067 -2.4,-5.269 -6.31,-10.848 -11.71,-16.75 -8.1,-8.851 -13.17,-14.183 -15.19,-16.016 h 17.29 c 3.51,0 5.98,0.133 7.4,0.399 1.41,0.25 2.7,0.781 3.83,1.582 1.13,0.801 2.13,1.937 2.99,3.402 h 1.79" /><path
         id="path242"
         style="fill:#231f20;fill-opacity:1;fill-rule:nonzero;stroke:none"
         d="m 1843.63,297.836 v 2.152 c 3.35,1.102 5.95,2.817 7.8,5.153 1.84,2.332 2.75,4.797 2.75,7.398 0,0.617 -0.15,1.133 -0.43,1.566 -0.23,0.286 -0.47,0.434 -0.69,0.434 -0.36,0 -1.15,-0.336 -2.35,-0.984 -0.58,-0.282 -1.19,-0.434 -1.85,-0.434 -1.59,0 -2.86,0.465 -3.81,1.418 -0.93,0.949 -1.42,2.246 -1.42,3.899 0,1.601 0.62,2.968 1.83,4.101 1.22,1.149 2.72,1.715 4.47,1.715 2.15,0 4.07,-0.934 5.73,-2.816 1.69,-1.868 2.52,-4.352 2.52,-7.434 0,-3.348 -1.16,-6.465 -3.48,-9.348 -2.34,-2.883 -6.02,-5.152 -11.07,-6.82" /><path
         id="path244"
         style="fill:#231f20;fill-opacity:1;fill-rule:nonzero;stroke:none"
         d="m 1906.68,380.703 -3.81,-8.297 h -19.92 l -4.35,-8.902 c 8.63,-1.266 15.47,-4.469 20.5,-9.613 4.33,-4.422 6.5,-9.637 6.5,-15.621 0,-3.485 -0.7,-6.715 -2.12,-9.665 -1.41,-2.968 -3.2,-5.484 -5.35,-7.566 -2.15,-2.082 -4.55,-3.766 -7.18,-5.035 -3.74,-1.801 -7.58,-2.684 -11.52,-2.684 -3.98,0 -6.86,0.668 -8.66,2.02 -1.82,1.348 -2.72,2.848 -2.72,4.465 0,0.918 0.38,1.715 1.11,2.418 0.76,0.699 1.71,1.05 2.84,1.05 0.85,0 1.6,-0.121 2.23,-0.386 0.64,-0.266 1.72,-0.934 3.25,-2 2.44,-1.699 4.9,-2.551 7.42,-2.551 3.8,0 7.15,1.453 10.03,4.336 2.89,2.883 4.32,6.383 4.32,10.516 0,4 -1.29,7.734 -3.85,11.199 -2.58,3.468 -6.12,6.152 -10.65,8.035 -3.55,1.469 -8.39,2.316 -14.5,2.551 l 12.7,25.73 h 23.73" /><path
         id="path246"
         style="fill:none;stroke:#231f20;stroke-width:5.00029993;stroke-linecap:butt;stroke-linejoin:miter;stroke-miterlimit:2.61310005;stroke-dasharray:none;stroke-opacity:1"
         d="m 1718.61,346.98 h 60.2" /><path
         id="path248"
         style="fill:#231f20;fill-opacity:1;fill-rule:nonzero;stroke:none"
         d="m 254.793,31.1094 -4.637,-12.75 H 211.09 v 1.7968 c 11.488,10.4844 19.586,19.0508 24.269,25.6876 4.68,6.6484 7.032,12.7148 7.032,18.2148 0,4.1992 -1.282,7.6484 -3.868,10.3476 -2.562,2.7032 -5.632,4.0508 -9.214,4.0508 -3.266,0 -6.184,-0.9492 -8.766,-2.8476 -2.582,-1.9024 -4.5,-4.6992 -5.734,-8.3672 h -1.817 c 0.817,6.0156 2.903,10.6328 6.281,13.8672 3.368,3.2148 7.571,4.832 12.618,4.832 5.371,0 9.851,-1.7344 13.449,-5.1836 3.601,-3.4531 5.402,-7.5156 5.402,-12.1992 0,-3.3516 -0.781,-6.7188 -2.351,-10.0664 -2.399,-5.2695 -6.313,-10.8516 -11.715,-16.75 -8.102,-8.8516 -13.168,-14.1836 -15.184,-16.0156 h 17.285 c 3.516,0 5.981,0.1328 7.399,0.3984 1.418,0.25 2.699,0.7812 3.832,1.582 1.133,0.8008 2.133,1.9375 2.984,3.4024 h 1.801" /><path
         id="path250"
         style="fill:#231f20;fill-opacity:1;fill-rule:nonzero;stroke:none"
         d="m 264.309,1.70703 v 2.15235 c 3.351,1.10156 5.949,2.8164 7.8,5.14843 1.832,2.33599 2.75,4.80079 2.75,7.39839 0,0.6211 -0.152,1.1368 -0.433,1.5704 -0.235,0.2812 -0.465,0.4336 -0.684,0.4336 -0.367,0 -1.152,-0.336 -2.351,-0.9844 -0.582,-0.2852 -1.2,-0.4336 -1.852,-0.4336 -1.598,0 -2.863,0.4648 -3.812,1.418 -0.934,0.9492 -1.418,2.246 -1.418,3.8984 0,1.6016 0.617,2.9648 1.832,4.1016 1.218,1.1484 2.718,1.7148 4.468,1.7148 2.149,0 4.067,-0.9336 5.731,-2.8164 1.683,-1.8672 2.519,-4.3516 2.519,-7.4336 0,-3.3477 -1.168,-6.4688 -3.484,-9.35156 C 273.043,5.64062 269.359,3.375 264.309,1.70703" /><path
         id="path252"
         style="fill:#231f20;fill-opacity:1;fill-rule:nonzero;stroke:none"
         d="m 327.359,84.5742 -3.816,-8.3008 h -19.918 l -4.348,-8.8984 c 8.633,-1.2695 15.465,-4.4688 20.5,-9.6172 4.332,-4.418 6.496,-9.6328 6.496,-15.6172 0,-3.4844 -0.699,-6.7148 -2.113,-9.6679 -1.418,-2.9649 -3.199,-5.4805 -5.351,-7.5625 -2.149,-2.086 -4.551,-3.7696 -7.184,-5.0352 -3.73,-1.8008 -7.582,-2.6836 -11.516,-2.6836 -3.984,0 -6.867,0.668 -8.664,2.0156 -1.82,1.3516 -2.718,2.8516 -2.718,4.4688 0,0.914 0.382,1.7148 1.117,2.414 0.75,0.7032 1.699,1.0547 2.832,1.0547 0.851,0 1.597,-0.1211 2.234,-0.3867 0.633,-0.2656 1.715,-0.9336 3.25,-2 2.434,-1.6992 4.899,-2.5508 7.418,-2.5508 3.797,0 7.149,1.4532 10.031,4.336 2.887,2.8828 4.317,6.3828 4.317,10.5156 0,4 -1.285,7.7305 -3.848,11.1992 -2.586,3.4649 -6.117,6.1524 -10.652,8.0313 -3.547,1.4687 -8.383,2.3164 -14.5,2.5547 l 12.699,25.7304 h 23.734" /><path
         id="path254"
         style="fill:none;stroke:#231f20;stroke-width:5.00029993;stroke-linecap:butt;stroke-linejoin:miter;stroke-miterlimit:2.61310005;stroke-dasharray:none;stroke-opacity:1"
         d="m 143.457,49.8359 h 60.199" /><path
         id="path256"
         style="fill:none;stroke:#231f20;stroke-width:7.5005002;stroke-linecap:butt;stroke-linejoin:miter;stroke-miterlimit:2.61310005;stroke-dasharray:none;stroke-opacity:1"
         d="m 767.531,266.941 c 95.02,1.504 141.407,-46.187 139.153,-143.07" /><path
         id="path258"
         style="fill:#231f20;fill-opacity:1;fill-rule:nonzero;stroke:none"
         d="m 882.816,73.7734 16.118,7.8633 h 1.617 v -55.914 c 0,-3.7032 0.148,-6.0196 0.449,-6.9336 0.32,-0.9024 0.969,-1.6016 1.934,-2.1016 0.984,-0.4844 2.968,-0.7656 5.968,-0.832 v -1.8008 h -24.918 v 1.8008 c 3.133,0.0664 5.153,0.3359 6.067,0.8164 0.902,0.4687 1.535,1.0976 1.898,1.8984 0.352,0.8008 0.535,3.1836 0.535,7.1524 v 35.75 c 0,4.8164 -0.164,7.8984 -0.484,9.2656 -0.23,1.0508 -0.648,1.8164 -1.25,2.3008 -0.602,0.4843 -1.312,0.7343 -2.164,0.7343 -1.203,0 -2.883,-0.5039 -5.035,-1.5195 l -0.735,1.5195" /><path
         id="path260"
         style="fill:#231f20;fill-opacity:1;fill-rule:nonzero;stroke:none"
         d="m 929.102,73.7734 16.117,7.8633 h 1.613 v -55.914 c 0,-3.7032 0.152,-6.0196 0.453,-6.9336 0.317,-0.9024 0.965,-1.6016 1.934,-2.1016 0.984,-0.4844 2.965,-0.7656 5.965,-0.832 V 14.0547 H 930.27 v 1.8008 c 3.132,0.0664 5.148,0.3359 6.066,0.8164 0.898,0.4687 1.531,1.0976 1.898,1.8984 0.352,0.8008 0.536,3.1836 0.536,7.1524 v 35.75 c 0,4.8164 -0.168,7.8984 -0.485,9.2656 -0.234,1.0508 -0.648,1.8164 -1.25,2.3008 -0.601,0.4843 -1.316,0.7343 -2.168,0.7343 -1.199,0 -2.883,-0.5039 -5.031,-1.5195 l -0.734,1.5195" /><path
         id="path262"
         style="fill:#231f20;fill-opacity:1;fill-rule:nonzero;stroke:none"
         d="m 2336.25,79.0625 16.12,7.8633 h 1.61 V 31.0117 c 0,-3.7031 0.15,-6.0195 0.45,-6.9336 0.32,-0.9023 0.97,-1.6015 1.94,-2.1015 0.98,-0.4844 2.97,-0.7657 5.97,-0.8321 v -1.8007 h -24.92 v 1.8007 c 3.13,0.0664 5.15,0.336 6.06,0.8164 0.91,0.4688 1.54,1.1016 1.9,1.8985 0.35,0.8047 0.54,3.1836 0.54,7.1523 v 35.75 c 0,4.8164 -0.17,7.8985 -0.49,9.2656 -0.23,1.0508 -0.64,1.8165 -1.25,2.3008 -0.6,0.4844 -1.31,0.7344 -2.16,0.7344 -1.2,0 -2.88,-0.5039 -5.04,-1.5195 l -0.73,1.5195" /><path
         id="path264"
         style="fill:#231f20;fill-opacity:1;fill-rule:nonzero;stroke:none"
         d="m 2382.54,79.0625 16.11,7.8633 h 1.62 V 31.0117 c 0,-3.7031 0.15,-6.0195 0.45,-6.9336 0.32,-0.9023 0.96,-1.6015 1.93,-2.1015 0.98,-0.4844 2.97,-0.7657 5.97,-0.8321 v -1.8007 h -24.92 v 1.8007 c 3.13,0.0664 5.15,0.336 6.07,0.8164 0.9,0.4688 1.53,1.1016 1.9,1.8985 0.35,0.8047 0.53,3.1836 0.53,7.1523 v 35.75 c 0,4.8164 -0.16,7.8985 -0.48,9.2656 -0.24,1.0508 -0.65,1.8165 -1.25,2.3008 -0.6,0.4844 -1.32,0.7344 -2.17,0.7344 -1.2,0 -2.88,-0.5039 -5.03,-1.5195 l -0.73,1.5195" /><path
         id="path266"
         style="fill:#ffffff;fill-opacity:1;fill-rule:evenodd;stroke:none"
         d="m 901.723,428.191 c 9.394,0 17.011,-7.617 17.011,-17.007 0,-9.391 -7.617,-17.008 -17.011,-17.008 -9.391,0 -17.008,7.617 -17.008,17.008 0,9.39 7.617,17.007 17.008,17.007" /><path
         id="path268"
         style="fill:none;stroke:#231f20;stroke-width:5.00029993;stroke-linecap:butt;stroke-linejoin:miter;stroke-miterlimit:2.61310005;stroke-dasharray:none;stroke-opacity:1"
         d="m 901.723,428.191 c 9.394,0 17.011,-7.617 17.011,-17.007 0,-9.391 -7.617,-17.008 -17.011,-17.008 -9.391,0 -17.008,7.617 -17.008,17.008 0,9.39 7.617,17.007 17.008,17.007 z" /><path
         id="path270"
         style="fill:#ffffff;fill-opacity:1;fill-rule:evenodd;stroke:none"
         d="m 906.684,140.879 c 9.39,0 17.007,-7.617 17.007,-17.008 0,-9.394 -7.617,-17.008 -17.007,-17.008 -9.391,0 -17.008,7.614 -17.008,17.008 0,9.391 7.617,17.008 17.008,17.008" /><path
         id="path272"
         style="fill:none;stroke:#231f20;stroke-width:5.00029993;stroke-linecap:butt;stroke-linejoin:miter;stroke-miterlimit:2.61310005;stroke-dasharray:none;stroke-opacity:1"
         d="m 906.684,140.879 c 9.39,0 17.007,-7.617 17.007,-17.008 0,-9.394 -7.617,-17.008 -17.007,-17.008 -9.391,0 -17.008,7.614 -17.008,17.008 0,9.391 7.617,17.008 17.008,17.008 z" /><path
         id="path274"
         style="fill:#ffffff;fill-opacity:1;fill-rule:evenodd;stroke:none"
         d="m 253.105,143.504 c 9.391,0 17.008,-7.613 17.008,-17.008 0,-9.391 -7.617,-17.008 -17.008,-17.008 -9.394,0 -17.007,7.617 -17.007,17.008 0,9.395 7.613,17.008 17.007,17.008" /><path
         id="path276"
         style="fill:none;stroke:#231f20;stroke-width:5.00029993;stroke-linecap:butt;stroke-linejoin:miter;stroke-miterlimit:2.61310005;stroke-dasharray:none;stroke-opacity:1"
         d="m 253.105,143.504 c 9.391,0 17.008,-7.613 17.008,-17.008 0,-9.391 -7.617,-17.008 -17.008,-17.008 -9.394,0 -17.007,7.617 -17.007,17.008 0,9.395 7.613,17.008 17.007,17.008 z" /><path
         id="path278"
         style="fill:#ffffff;fill-opacity:1;fill-rule:evenodd;stroke:none"
         d="m 1840.27,429.148 c 9.39,0 17.01,-7.617 17.01,-17.007 0,-9.391 -7.62,-17.008 -17.01,-17.008 -9.39,0 -17,7.617 -17,17.008 0,9.39 7.61,17.007 17,17.007" /><path
         id="path280"
         style="fill:none;stroke:#231f20;stroke-width:5.00029993;stroke-linecap:butt;stroke-linejoin:miter;stroke-miterlimit:2.61310005;stroke-dasharray:none;stroke-opacity:1"
         d="m 1840.27,429.148 c 9.39,0 17.01,-7.617 17.01,-17.007 0,-9.391 -7.62,-17.008 -17.01,-17.008 -9.39,0 -17,7.617 -17,17.008 0,9.39 7.61,17.007 17,17.007 z" /><path
         id="path282"
         style="fill:#ffffff;fill-opacity:1;fill-rule:evenodd;stroke:none"
         d="m 2354.85,142.535 c 9.39,0 17.01,-7.617 17.01,-17.008 0,-9.39 -7.62,-17.007 -17.01,-17.007 -9.39,0 -17.01,7.617 -17.01,17.007 0,9.391 7.62,17.008 17.01,17.008" /><path
         id="path284"
         style="fill:none;stroke:#231f20;stroke-width:5.00029993;stroke-linecap:butt;stroke-linejoin:miter;stroke-miterlimit:2.61310005;stroke-dasharray:none;stroke-opacity:1"
         d="m 2354.85,142.535 c 9.39,0 17.01,-7.617 17.01,-17.008 0,-9.39 -7.62,-17.007 -17.01,-17.007 -9.39,0 -17.01,7.617 -17.01,17.007 0,9.391 7.62,17.008 17.01,17.008 z" /></g></g></svg>