<?xml version="1.0" encoding="UTF-8" standalone="no"?>
<svg
   xmlns:dc="http://purl.org/dc/elements/1.1/"
   xmlns:cc="http://creativecommons.org/ns#"
   xmlns:rdf="http://www.w3.org/1999/02/22-rdf-syntax-ns#"
   xmlns:svg="http://www.w3.org/2000/svg"
   xmlns="http://www.w3.org/2000/svg"
   viewBox="0 0 350.66666 74.666664"
   height="74.666664"
   width="350.66666"
   xml:space="preserve"
   id="svg2"
   version="1.1"><metadata
     id="metadata8"><rdf:RDF><cc:Work
         rdf:about=""><dc:format>image/svg+xml</dc:format><dc:type
           rdf:resource="http://purl.org/dc/dcmitype/StillImage" /></cc:Work></rdf:RDF></metadata><defs
     id="defs6"><clipPath
       id="clipPath58"
       clipPathUnits="userSpaceOnUse"><path
         style="clip-rule:evenodd"
         id="path56"
         d="M 152.688,463.195 H 828.52 V 404.492 H 152.688 Z" /></clipPath><clipPath
       id="clipPath136"
       clipPathUnits="userSpaceOnUse"><path
         style="clip-rule:evenodd"
         id="path134"
         d="M 151.5,175.195 H 828.52 V 116.492 H 151.5 Z" /></clipPath><clipPath
       id="clipPath210"
       clipPathUnits="userSpaceOnUse"><path
         style="clip-rule:evenodd"
         id="path208"
         d="m 2278.54,463.195 h 349.98 v -58.703 h -349.98 z" /></clipPath><clipPath
       id="clipPath260"
       clipPathUnits="userSpaceOnUse"><path
         style="clip-rule:evenodd"
         id="path258"
         d="m 2579.45,175.195 h -310.93 v -58.703 h 310.93 z" /></clipPath></defs><g
     transform="matrix(1.3333333,0,0,-1.3333333,0,74.666667)"
     id="g10"><g
       transform="scale(0.1)"
       id="g12"><path
         id="path14"
         style="fill:#231f20;fill-opacity:1;fill-rule:nonzero;stroke:none"
         d="m 18.9102,454.066 16.1171,7.868 h 1.6172 v -55.918 c 0,-3.7 0.1485,-6.016 0.4493,-6.934 0.3203,-0.898 0.9687,-1.602 1.9335,-2.098 0.9844,-0.488 2.9688,-0.765 5.9688,-0.836 v -1.8 h -24.918 v 1.8 c 3.1328,0.071 5.1524,0.336 6.0664,0.817 0.9024,0.469 1.5352,1.101 1.8985,1.898 0.3515,0.805 0.5351,3.184 0.5351,7.153 v 35.75 c 0,4.816 -0.164,7.902 -0.4843,9.265 -0.2305,1.051 -0.6485,1.821 -1.25,2.301 -0.6016,0.484 -1.3126,0.734 -2.1641,0.734 -1.2031,0 -2.8828,-0.504 -5.0352,-1.515 l -0.7343,1.515" /><path
         id="path16"
         style="fill:#231f20;fill-opacity:1;fill-rule:nonzero;stroke:none"
         d="m 59.4453,461.73 v 2.051 c 4.9492,-2.433 9.0664,-5.316 12.3516,-8.648 4.6484,-4.75 8.2461,-10.317 10.7812,-16.715 2.5469,-6.402 3.8164,-13.07 3.8164,-20.004 0,-10.082 -2.4843,-19.281 -7.4492,-27.598 -4.9687,-8.316 -11.4648,-14.265 -19.5,-17.851 v 1.801 c 4,2.25 7.3008,5.281 9.8828,9.117 2.5821,3.816 4.5157,8.683 5.7657,14.597 1.25,5.903 1.8828,12.071 1.8828,18.469 0,6.934 -0.5508,13.266 -1.6133,19 -0.8164,4.5 -1.836,8.082 -3.0508,10.801 -1.2344,2.699 -2.8516,5.297 -4.8672,7.797 -2.0156,2.519 -4.6836,4.902 -8,7.183" /><path
         id="path18"
         style="fill:none;stroke:#231f20;stroke-width:7.5005002;stroke-linecap:butt;stroke-linejoin:miter;stroke-miterlimit:2.61310005;stroke-dasharray:none;stroke-opacity:1"
         d="M 144.949,402.141 H 1125.2" /><path
         id="path20"
         style="fill:#231f20;fill-opacity:1;fill-rule:evenodd;stroke:none"
         d="m 1121.04,428.488 47.9,-26.347 -47.9,-26.348 v 52.695" /><path
         id="path22"
         style="fill:#231f20;fill-opacity:1;fill-rule:evenodd;stroke:none"
         d="m 468.266,416.543 c 6.636,0 12.019,-5.383 12.019,-12.02 0,-6.636 -5.383,-12.019 -12.019,-12.019 -6.637,0 -12.02,5.383 -12.02,12.019 0,6.637 5.383,12.02 12.02,12.02" /><path
         id="path24"
         style="fill:none;stroke:#231f20;stroke-width:7.5005002;stroke-linecap:butt;stroke-linejoin:miter;stroke-miterlimit:2.61310005;stroke-dasharray:none;stroke-opacity:1"
         d="m 468.266,416.543 c 6.636,0 12.019,-5.383 12.019,-12.02 0,-6.636 -5.383,-12.019 -12.019,-12.019 -6.637,0 -12.02,5.383 -12.02,12.019 0,6.637 5.383,12.02 12.02,12.02 z" /><path
         id="path26"
         style="fill:#231f20;fill-opacity:1;fill-rule:nonzero;stroke:none"
         d="m 840.102,369.062 v -1.816 c -4.286,-0.418 -7.797,-1.266 -10.516,-2.566 -2.715,-1.282 -5.402,-3.235 -8.051,-5.883 -2.648,-2.633 -4.851,-5.567 -6.597,-8.801 -1.735,-3.25 -3.204,-7.098 -4.368,-11.551 4.684,3.219 9.383,4.836 14.118,4.836 4.515,0 8.449,-1.836 11.765,-5.465 3.317,-3.652 4.985,-8.336 4.985,-14.07 0,-5.531 -1.684,-10.582 -5.036,-15.133 -4.035,-5.535 -9.382,-8.301 -16.015,-8.301 -4.532,0 -8.367,1.504 -11.535,4.485 -6.18,5.832 -9.266,13.383 -9.266,22.664 0,5.922 1.184,11.551 3.566,16.887 2.368,5.351 5.77,10.082 10.184,14.214 4.398,4.133 8.633,6.918 12.668,8.352 4.031,1.434 7.801,2.148 11.281,2.148 z m -30.364,-34.183 c -0.586,-4.399 -0.886,-7.949 -0.886,-10.649 0,-3.117 0.586,-6.515 1.734,-10.183 1.168,-3.649 2.883,-6.567 5.168,-8.715 1.648,-1.52 3.668,-2.285 6.051,-2.285 2.832,0 5.363,1.332 7.582,4 2.234,2.668 3.351,6.484 3.351,11.433 0,5.567 -1.101,10.383 -3.316,14.45 -2.219,4.07 -5.352,6.101 -9.434,6.101 -1.234,0 -2.55,-0.265 -3.968,-0.781 -1.415,-0.52 -3.516,-1.652 -6.282,-3.371" /><path
         id="path28"
         style="fill:#231f20;fill-opacity:1;fill-rule:nonzero;stroke:none"
         d="m 440.039,352.086 c 1.887,4.449 4.266,7.902 7.152,10.316 2.883,2.434 6.465,3.649 10.766,3.649 5.301,0 9.367,-1.731 12.199,-5.184 2.149,-2.566 3.235,-5.312 3.235,-8.246 0,-4.816 -3.036,-9.801 -9.082,-14.933 4.066,-1.602 7.132,-3.883 9.214,-6.852 2.086,-2.949 3.133,-6.434 3.133,-10.449 0,-5.719 -1.816,-10.684 -5.468,-14.883 -4.747,-5.465 -11.633,-8.203 -20.649,-8.203 -4.465,0 -7.496,0.551 -9.117,1.652 -1.598,1.117 -2.414,2.301 -2.414,3.567 0,0.949 0.383,1.785 1.148,2.5 0.77,0.718 1.684,1.066 2.766,1.066 0.805,0 1.637,-0.133 2.488,-0.383 0.547,-0.168 1.797,-0.765 3.762,-1.781 1.953,-1.035 3.305,-1.637 4.051,-1.836 1.199,-0.363 2.484,-0.531 3.851,-0.531 3.317,0 6.215,1.281 8.668,3.847 2.465,2.567 3.68,5.618 3.68,9.133 0,2.567 -0.567,5.082 -1.699,7.52 -0.848,1.816 -1.782,3.199 -2.782,4.148 -1.398,1.297 -3.32,2.485 -5.769,3.531 -2.43,1.071 -4.93,1.602 -7.465,1.602 h -1.566 v 1.465 c 2.566,0.32 5.148,1.25 7.734,2.785 2.598,1.516 4.48,3.367 5.648,5.516 1.168,2.152 1.75,4.503 1.75,7.066 0,3.367 -1.046,6.066 -3.148,8.133 -2.102,2.07 -4.699,3.101 -7.836,3.101 -5.047,0 -9.25,-2.699 -12.648,-8.097 l -1.602,0.781" /><path
         id="path30"
         style="fill:#231f20;fill-opacity:1;fill-rule:nonzero;stroke:none"
         d="m 1135.79,363.359 c 1.6,-1.683 2.8,-3.382 3.62,-5.066 0.58,-1.184 1.55,-4.25 2.88,-9.234 l 4.3,6.453 c 1.14,1.547 2.52,3.05 4.15,4.465 1.62,1.418 3.05,2.382 4.28,2.898 0.79,0.336 1.66,0.484 2.6,0.484 1.4,0 2.5,-0.363 3.34,-1.117 0.83,-0.75 1.25,-1.664 1.25,-2.73 0,-1.235 -0.25,-2.086 -0.74,-2.535 -0.91,-0.817 -1.95,-1.235 -3.11,-1.235 -0.68,0 -1.42,0.153 -2.2,0.453 -1.54,0.516 -2.57,0.782 -3.09,0.782 -0.78,0 -1.69,-0.469 -2.78,-1.368 -2.01,-1.699 -4.41,-4.964 -7.22,-9.816 l 4,-16.801 c 0.62,-2.562 1.14,-4.113 1.57,-4.617 0.42,-0.496 0.84,-0.746 1.27,-0.746 0.68,0 1.48,0.363 2.38,1.117 1.8,1.496 3.32,3.449 4.6,5.863 l 1.7,-0.882 c -2.05,-3.848 -4.65,-7.032 -7.81,-9.567 -1.79,-1.433 -3.31,-2.152 -4.54,-2.152 -1.81,0 -3.26,1.019 -4.35,3.07 -0.68,1.266 -2.1,6.75 -4.25,16.418 -5.07,-8.836 -9.13,-14.504 -12.2,-17.051 -1.98,-1.617 -3.9,-2.437 -5.76,-2.437 -1.3,0 -2.49,0.469 -3.57,1.418 -0.77,0.719 -1.17,1.668 -1.17,2.883 0,1.07 0.37,1.968 1.09,2.683 0.7,0.719 1.58,1.067 2.63,1.067 1.03,0 2.15,-0.516 3.32,-1.563 0.84,-0.754 1.5,-1.117 1.95,-1.117 0.4,0 0.89,0.266 1.51,0.781 1.54,1.235 3.62,3.902 6.25,8 2.63,4.102 4.37,7.067 5.19,8.899 -2.04,7.902 -3.12,12.086 -3.29,12.535 -0.75,2.117 -1.71,3.617 -2.93,4.5 -1.2,0.883 -2.97,1.316 -5.32,1.316 -0.75,0 -1.61,-0.031 -2.58,-0.101 v 1.765 l 13.03,2.285" /><path
         id="path32"
         style="fill:#231f20;fill-opacity:1;fill-rule:nonzero;stroke:none"
         d="m 18.3477,135.266 c 1.8867,4.453 4.2695,7.902 7.1523,10.316 2.8828,2.434 6.4688,3.652 10.7656,3.652 5.3008,0 9.3672,-1.734 12.2032,-5.183 2.1484,-2.567 3.2343,-5.317 3.2343,-8.25 0,-4.817 -3.039,-9.801 -9.0859,-14.934 4.0664,-1.601 7.1328,-3.883 9.2187,-6.851 2.0821,-2.946 3.1329,-6.43 3.1329,-10.45 0,-5.7144 -1.8204,-10.6832 -5.4688,-14.8824 -4.75,-5.4648 -11.6328,-8.1992 -20.6523,-8.1992 -4.4649,0 -7.4961,0.5468 -9.1133,1.6523 -1.6016,1.1133 -2.418,2.2969 -2.418,3.5664 0,0.9492 0.3828,1.7813 1.1484,2.5 0.7696,0.7149 1.6836,1.0625 2.7657,1.0625 0.8047,0 1.6367,-0.1328 2.4883,-0.3789 0.5507,-0.1679 1.8007,-0.7695 3.7656,-1.7851 1.9492,-1.0352 3.3008,-1.6368 4.0508,-1.8321 1.1953,-0.3672 2.4804,-0.5351 3.8476,-0.5351 3.3164,0 6.2149,1.2812 8.668,3.8515 2.4648,2.5625 3.6836,5.6133 3.6836,9.1329 0,2.5622 -0.5664,5.0822 -1.7032,7.5152 -0.8476,1.817 -1.7812,3.2 -2.7812,4.149 -1.3984,1.301 -3.3164,2.484 -5.7656,3.535 -2.4336,1.066 -4.9336,1.602 -7.4688,1.602 h -1.5664 v 1.464 c 2.5664,0.317 5.1524,1.25 7.7344,2.782 2.6016,1.519 4.4844,3.367 5.6523,5.519 1.1641,2.149 1.7461,4.5 1.7461,7.067 0,3.367 -1.0468,6.066 -3.1484,8.132 -2.1016,2.067 -4.6992,3.098 -7.8359,3.098 -5.0469,0 -9.2461,-2.695 -12.6485,-8.098 l -1.6015,0.782" /><path
         id="path34"
         style="fill:#231f20;fill-opacity:1;fill-rule:nonzero;stroke:none"
         d="m 65.5156,149.031 v 2.055 c 4.9492,-2.438 9.0664,-5.32 12.3516,-8.652 4.6484,-4.75 8.25,-10.317 10.7851,-16.715 2.5469,-6.403 3.8125,-13.071 3.8125,-20.004 0,-10.0822 -2.4804,-19.2814 -7.4492,-27.5978 -4.9648,-8.3164 -11.4648,-14.2656 -19.5,-17.8516 v 1.8008 c 4,2.25 7.3008,5.2852 9.8828,9.1211 2.586,3.8125 4.5196,8.6797 5.7696,14.5977 1.25,5.8984 1.8828,12.0664 1.8828,18.4648 0,6.934 -0.5508,13.266 -1.6172,19 -0.8164,4.5 -1.8359,8.082 -3.0508,10.801 -1.2305,2.699 -2.8516,5.297 -4.8672,7.797 -2.0156,2.519 -4.6836,4.902 -8,7.183" /><path
         id="path36"
         style="fill:#231f20;fill-opacity:1;fill-rule:nonzero;stroke:none"
         d="m 1469.09,382.812 -4.64,-12.75 h -39.06 v 1.801 c 11.49,10.481 19.58,19.047 24.27,25.684 4.68,6.648 7.03,12.715 7.03,18.215 0,4.199 -1.28,7.648 -3.87,10.347 -2.56,2.703 -5.63,4.051 -9.21,4.051 -3.27,0 -6.18,-0.949 -8.77,-2.848 -2.58,-1.902 -4.5,-4.699 -5.73,-8.367 h -1.82 c 0.82,6.016 2.9,10.633 6.28,13.867 3.37,3.215 7.57,4.833 12.62,4.833 5.37,0 9.85,-1.731 13.45,-5.184 3.6,-3.449 5.4,-7.516 5.4,-12.199 0,-3.352 -0.78,-6.719 -2.35,-10.067 -2.4,-5.269 -6.31,-10.847 -11.72,-16.75 -8.1,-8.851 -13.17,-14.183 -15.18,-16.015 h 17.28 c 3.52,0 5.98,0.132 7.4,0.398 1.42,0.25 2.7,0.781 3.83,1.582 1.14,0.801 2.14,1.938 2.99,3.402 h 1.8" /><path
         id="path38"
         style="fill:#231f20;fill-opacity:1;fill-rule:nonzero;stroke:none"
         d="m 1475.49,437.441 v 2.055 c 4.95,-2.437 9.06,-5.32 12.35,-8.652 4.65,-4.75 8.25,-10.317 10.78,-16.715 2.55,-6.402 3.82,-13.067 3.82,-20 0,-10.086 -2.48,-19.285 -7.45,-27.598 -4.97,-8.316 -11.47,-14.269 -19.5,-17.855 v 1.801 c 4,2.25 7.3,5.285 9.88,9.121 2.59,3.812 4.52,8.679 5.77,14.597 1.25,5.903 1.88,12.067 1.88,18.465 0,6.934 -0.55,13.27 -1.61,19.004 -0.82,4.496 -1.84,8.078 -3.05,10.797 -1.24,2.699 -2.86,5.301 -4.87,7.801 -2.02,2.515 -4.69,4.898 -8,7.179" /><path
         id="path40"
         style="fill:#231f20;fill-opacity:1;fill-rule:nonzero;stroke:none"
         d="m 1475.84,99.9961 v -6.9336 h -8.88 V 75.5781 h -8.07 v 17.4844 h -28.01 v 6.25 l 30.71,43.8475 h 5.37 V 99.9961 Z m -16.95,0 v 32.8629 l -23.23,-32.8629 h 23.23" /><path
         id="path42"
         style="fill:#231f20;fill-opacity:1;fill-rule:nonzero;stroke:none"
         d="m 1481.56,142.961 v 2.051 c 4.95,-2.434 9.06,-5.317 12.35,-8.649 4.65,-4.754 8.25,-10.316 10.79,-16.718 2.54,-6.399 3.81,-13.067 3.81,-20.0005 0,-10.082 -2.48,-19.2851 -7.45,-27.5976 -4.97,-8.3164 -11.47,-14.2657 -19.5,-17.8516 v 1.8008 c 4,2.25 7.3,5.2812 9.88,9.1172 2.59,3.8164 4.52,8.6836 5.77,14.5976 1.25,5.9024 1.88,12.0664 1.88,18.4688 0,6.9333 -0.55,13.2653 -1.61,19.0003 -0.82,4.5 -1.84,8.082 -3.05,10.8 -1.23,2.7 -2.85,5.297 -4.87,7.797 -2.01,2.516 -4.68,4.903 -8,7.184" /><path
         id="path44"
         style="fill:none;stroke:#231f20;stroke-width:7.5005002;stroke-linecap:butt;stroke-linejoin:miter;stroke-miterlimit:2.61310005;stroke-dasharray:none;stroke-opacity:1"
         d="M 151.18,554.355 H 701.855" /><path
         id="path46"
         style="fill:none;stroke:#231f20;stroke-width:7.5005002;stroke-linecap:butt;stroke-linejoin:miter;stroke-miterlimit:2.61310005;stroke-dasharray:none;stroke-opacity:1"
         d="m 691.789,553.832 c 95.023,1.504 141.406,-46.187 139.152,-143.074" /><path
         id="path48"
         style="fill:#ffffff;fill-opacity:1;fill-rule:evenodd;stroke:none"
         d="m 828.266,416.543 c 6.636,0 12.019,-5.383 12.019,-12.02 0,-6.636 -5.383,-12.019 -12.019,-12.019 -6.637,0 -12.02,5.383 -12.02,12.019 0,6.637 5.383,12.02 12.02,12.02" /><path
         id="path50"
         style="fill:none;stroke:#231f20;stroke-width:7.5005002;stroke-linecap:butt;stroke-linejoin:miter;stroke-miterlimit:2.61310005;stroke-dasharray:none;stroke-opacity:1"
         d="m 828.266,416.543 c 6.636,0 12.019,-5.383 12.019,-12.02 0,-6.636 -5.383,-12.019 -12.019,-12.019 -6.637,0 -12.02,5.383 -12.02,12.019 0,6.637 5.383,12.02 12.02,12.02 z" /><g
         id="g52"><g
           clip-path="url(#clipPath58)"
           id="g54"><path
             id="path60"
             style="fill:none;stroke:#231f20;stroke-width:3.5999999;stroke-linecap:butt;stroke-linejoin:miter;stroke-miterlimit:2.61310005;stroke-dasharray:none;stroke-opacity:1"
             d="M 30.7773,413.316 511.164,893.703" /><path
             id="path62"
             style="fill:none;stroke:#231f20;stroke-width:3.5999999;stroke-linecap:butt;stroke-linejoin:miter;stroke-miterlimit:2.61310005;stroke-dasharray:none;stroke-opacity:1"
             d="M 51.1406,392.949 531.527,873.336" /><path
             id="path64"
             style="fill:none;stroke:#231f20;stroke-width:3.5999999;stroke-linecap:butt;stroke-linejoin:miter;stroke-miterlimit:2.61310005;stroke-dasharray:none;stroke-opacity:1"
             d="M 71.5078,372.586 551.895,852.973" /><path
             id="path66"
             style="fill:none;stroke:#231f20;stroke-width:3.5999999;stroke-linecap:butt;stroke-linejoin:miter;stroke-miterlimit:2.61310005;stroke-dasharray:none;stroke-opacity:1"
             d="M 91.8711,352.223 572.258,832.609" /><path
             id="path68"
             style="fill:none;stroke:#231f20;stroke-width:3.5999999;stroke-linecap:butt;stroke-linejoin:miter;stroke-miterlimit:2.61310005;stroke-dasharray:none;stroke-opacity:1"
             d="M 112.234,331.855 592.625,812.242" /><path
             id="path70"
             style="fill:none;stroke:#231f20;stroke-width:3.5999999;stroke-linecap:butt;stroke-linejoin:miter;stroke-miterlimit:2.61310005;stroke-dasharray:none;stroke-opacity:1"
             d="M 132.602,311.492 612.988,791.879" /><path
             id="path72"
             style="fill:none;stroke:#231f20;stroke-width:3.5999999;stroke-linecap:butt;stroke-linejoin:miter;stroke-miterlimit:2.61310005;stroke-dasharray:none;stroke-opacity:1"
             d="M 152.965,291.125 633.352,771.516" /><path
             id="path74"
             style="fill:none;stroke:#231f20;stroke-width:3.5999999;stroke-linecap:butt;stroke-linejoin:miter;stroke-miterlimit:2.61310005;stroke-dasharray:none;stroke-opacity:1"
             d="M 173.328,270.762 653.719,751.148" /><path
             id="path76"
             style="fill:none;stroke:#231f20;stroke-width:3.5999999;stroke-linecap:butt;stroke-linejoin:miter;stroke-miterlimit:2.61310005;stroke-dasharray:none;stroke-opacity:1"
             d="M 193.695,250.398 674.082,730.785" /><path
             id="path78"
             style="fill:none;stroke:#231f20;stroke-width:3.5999999;stroke-linecap:butt;stroke-linejoin:miter;stroke-miterlimit:2.61310005;stroke-dasharray:none;stroke-opacity:1"
             d="M 214.059,230.031 694.445,710.422" /><path
             id="path80"
             style="fill:none;stroke:#231f20;stroke-width:3.5999999;stroke-linecap:butt;stroke-linejoin:miter;stroke-miterlimit:2.61310005;stroke-dasharray:none;stroke-opacity:1"
             d="M 234.426,209.668 714.812,690.055" /><path
             id="path82"
             style="fill:none;stroke:#231f20;stroke-width:3.5999999;stroke-linecap:butt;stroke-linejoin:miter;stroke-miterlimit:2.61310005;stroke-dasharray:none;stroke-opacity:1"
             d="M 254.789,189.305 735.176,669.691" /><path
             id="path84"
             style="fill:none;stroke:#231f20;stroke-width:3.5999999;stroke-linecap:butt;stroke-linejoin:miter;stroke-miterlimit:2.61310005;stroke-dasharray:none;stroke-opacity:1"
             d="m 275.152,168.938 480.387,480.39" /><path
             id="path86"
             style="fill:none;stroke:#231f20;stroke-width:3.5999999;stroke-linecap:butt;stroke-linejoin:miter;stroke-miterlimit:2.61310005;stroke-dasharray:none;stroke-opacity:1"
             d="M 295.52,148.574 775.906,628.961" /><path
             id="path88"
             style="fill:none;stroke:#231f20;stroke-width:3.5999999;stroke-linecap:butt;stroke-linejoin:miter;stroke-miterlimit:2.61310005;stroke-dasharray:none;stroke-opacity:1"
             d="M 315.883,128.211 796.27,608.598" /><path
             id="path90"
             style="fill:none;stroke:#231f20;stroke-width:3.5999999;stroke-linecap:butt;stroke-linejoin:miter;stroke-miterlimit:2.61310005;stroke-dasharray:none;stroke-opacity:1"
             d="M 336.246,107.844 816.633,588.23" /><path
             id="path92"
             style="fill:none;stroke:#231f20;stroke-width:3.5999999;stroke-linecap:butt;stroke-linejoin:miter;stroke-miterlimit:2.61310005;stroke-dasharray:none;stroke-opacity:1"
             d="M 356.613,87.4805 837,567.867" /><path
             id="path94"
             style="fill:none;stroke:#231f20;stroke-width:3.5999999;stroke-linecap:butt;stroke-linejoin:miter;stroke-miterlimit:2.61310005;stroke-dasharray:none;stroke-opacity:1"
             d="M 376.977,67.1172 857.363,547.504" /><path
             id="path96"
             style="fill:none;stroke:#231f20;stroke-width:3.5999999;stroke-linecap:butt;stroke-linejoin:miter;stroke-miterlimit:2.61310005;stroke-dasharray:none;stroke-opacity:1"
             d="M 397.34,46.75 877.73,527.137" /><path
             id="path98"
             style="fill:none;stroke:#231f20;stroke-width:3.5999999;stroke-linecap:butt;stroke-linejoin:miter;stroke-miterlimit:2.61310005;stroke-dasharray:none;stroke-opacity:1"
             d="M 417.707,26.3867 898.094,506.773" /><path
             id="path100"
             style="fill:none;stroke:#231f20;stroke-width:3.5999999;stroke-linecap:butt;stroke-linejoin:miter;stroke-miterlimit:2.61310005;stroke-dasharray:none;stroke-opacity:1"
             d="M 438.07,6.01953 918.457,486.41" /><path
             id="path102"
             style="fill:none;stroke:#231f20;stroke-width:3.5999999;stroke-linecap:butt;stroke-linejoin:miter;stroke-miterlimit:2.61310005;stroke-dasharray:none;stroke-opacity:1"
             d="M 458.434,-14.3438 938.824,466.043" /><path
             id="path104"
             style="fill:none;stroke:#231f20;stroke-width:3.5999999;stroke-linecap:butt;stroke-linejoin:miter;stroke-miterlimit:2.61310005;stroke-dasharray:none;stroke-opacity:1"
             d="M 478.801,-34.707 959.188,445.68" /><path
             id="path106"
             style="fill:none;stroke:#231f20;stroke-width:3.5999999;stroke-linecap:butt;stroke-linejoin:miter;stroke-miterlimit:2.61310005;stroke-dasharray:none;stroke-opacity:1"
             d="M 499.164,-55.0742 979.551,425.316" /></g></g><path
         id="path108"
         style="fill:none;stroke:#231f20;stroke-width:7.5005002;stroke-linecap:butt;stroke-linejoin:miter;stroke-miterlimit:2.61310005;stroke-dasharray:none;stroke-opacity:1"
         d="M 144.949,114.141 H 1125.2" /><path
         id="path110"
         style="fill:#231f20;fill-opacity:1;fill-rule:evenodd;stroke:none"
         d="m 1121.04,140.488 47.9,-26.347 -47.9,-26.348 v 52.695" /><path
         id="path112"
         style="fill:#ffffff;fill-opacity:1;fill-rule:evenodd;stroke:none"
         d="m 468.266,128.543 c 6.636,0 12.019,-5.383 12.019,-12.02 0,-6.636 -5.383,-12.019 -12.019,-12.019 -6.637,0 -12.02,5.383 -12.02,12.019 0,6.637 5.383,12.02 12.02,12.02" /><path
         id="path114"
         style="fill:none;stroke:#231f20;stroke-width:7.5005002;stroke-linecap:butt;stroke-linejoin:miter;stroke-miterlimit:2.61310005;stroke-dasharray:none;stroke-opacity:1"
         d="m 468.266,128.543 c 6.636,0 12.019,-5.383 12.019,-12.02 0,-6.636 -5.383,-12.019 -12.019,-12.019 -6.637,0 -12.02,5.383 -12.02,12.019 0,6.637 5.383,12.02 12.02,12.02 z" /><path
         id="path116"
         style="fill:#231f20;fill-opacity:1;fill-rule:nonzero;stroke:none"
         d="m 840.102,81.0625 v -1.8164 c -4.286,-0.418 -7.797,-1.2656 -10.516,-2.5664 -2.715,-1.2852 -5.402,-3.2344 -8.051,-5.8828 -2.648,-2.6328 -4.851,-5.5664 -6.597,-8.8008 -1.735,-3.25 -3.204,-7.0977 -4.368,-11.5508 4.684,3.2188 9.383,4.832 14.118,4.832 4.515,0 8.449,-1.832 11.765,-5.4648 3.317,-3.6484 4.985,-8.332 4.985,-14.0664 0,-5.5352 -1.684,-10.582 -5.036,-15.1328 -4.035,-5.5352 -9.382,-8.3008 -16.015,-8.3008 -4.532,0 -8.367,1.5039 -11.535,4.4844 -6.18,5.832 -9.266,13.3828 -9.266,22.664 0,5.918 1.184,11.5508 3.566,16.8868 2.368,5.3476 5.77,10.082 10.184,14.2148 4.398,4.1328 8.633,6.918 12.668,8.3516 4.031,1.4297 7.801,2.1484 11.281,2.1484 z M 809.738,46.8789 c -0.586,-4.3984 -0.886,-7.9492 -0.886,-10.6484 0,-3.1172 0.586,-6.5157 1.734,-10.1836 1.168,-3.6485 2.883,-6.5664 5.168,-8.7188 1.648,-1.5156 3.668,-2.2812 6.051,-2.2812 2.832,0 5.363,1.332 7.582,4 2.234,2.6679 3.351,6.4843 3.351,11.4336 0,5.5664 -1.101,10.3828 -3.316,14.4492 -2.219,4.0664 -5.352,6.1015 -9.434,6.1015 -1.234,0 -2.55,-0.2656 -3.968,-0.7851 -1.415,-0.5156 -3.516,-1.6523 -6.282,-3.3672" /><path
         id="path118"
         style="fill:#231f20;fill-opacity:1;fill-rule:nonzero;stroke:none"
         d="m 440.039,64.0859 c 1.887,4.4493 4.266,7.9024 7.152,10.3164 2.883,2.4336 6.465,3.6485 10.766,3.6485 5.301,0 9.367,-1.7305 12.199,-5.1836 2.149,-2.5664 3.235,-5.3125 3.235,-8.2461 0,-4.8164 -3.036,-9.8008 -9.082,-14.9336 4.066,-1.6016 7.132,-3.8828 9.214,-6.8516 2.086,-2.9492 3.133,-6.4336 3.133,-10.4492 0,-5.7187 -1.816,-10.6836 -5.468,-14.8828 -4.747,-5.4648 -11.633,-8.20312 -20.649,-8.20312 -4.465,0 -7.496,0.55078 -9.117,1.65232 -1.598,1.1172 -2.414,2.3008 -2.414,3.5664 0,0.9493 0.383,1.7852 1.148,2.5 0.77,0.7188 1.684,1.0664 2.766,1.0664 0.805,0 1.637,-0.1328 2.488,-0.3828 0.547,-0.1679 1.797,-0.7656 3.762,-1.7812 1.953,-1.0352 3.305,-1.6367 4.051,-1.836 1.199,-0.3632 2.484,-0.5312 3.851,-0.5312 3.317,0 6.215,1.2812 8.668,3.8476 2.465,2.5665 3.68,5.6172 3.68,9.1329 0,2.5664 -0.567,5.082 -1.699,7.5195 -0.848,1.8164 -1.782,3.1992 -2.782,4.1484 -1.398,1.2969 -3.32,2.4844 -5.769,3.5313 -2.43,1.0703 -4.93,1.6015 -7.465,1.6015 h -1.566 v 1.4649 c 2.566,0.3203 5.148,1.25 7.734,2.7851 2.598,1.5157 4.48,3.3672 5.648,5.5157 1.168,2.1523 1.75,4.5039 1.75,7.0664 0,3.3672 -1.046,6.0664 -3.148,8.1328 -2.102,2.0703 -4.699,3.1015 -7.836,3.1015 -5.047,0 -9.25,-2.6992 -12.648,-8.0976 l -1.602,0.7812" /><path
         id="path120"
         style="fill:#231f20;fill-opacity:1;fill-rule:nonzero;stroke:none"
         d="m 1135.79,75.3594 c 1.6,-1.6836 2.8,-3.3828 3.62,-5.0664 0.58,-1.1836 1.55,-4.25 2.88,-9.2344 l 4.3,6.4531 c 1.14,1.5469 2.52,3.0508 4.15,4.4649 1.62,1.4179 3.05,2.3828 4.28,2.8984 0.79,0.3359 1.66,0.4844 2.6,0.4844 1.4,0 2.5,-0.3633 3.34,-1.1172 0.83,-0.75 1.25,-1.6641 1.25,-2.7305 0,-1.2344 -0.25,-2.0859 -0.74,-2.5351 -0.91,-0.8164 -1.95,-1.2344 -3.11,-1.2344 -0.68,0 -1.42,0.1523 -2.2,0.4531 -1.54,0.5156 -2.57,0.7813 -3.09,0.7813 -0.78,0 -1.69,-0.4688 -2.78,-1.3672 -2.01,-1.6992 -4.41,-4.9649 -7.22,-9.8164 l 4,-16.8008 c 0.62,-2.5625 1.14,-4.1133 1.57,-4.6172 0.42,-0.4961 0.84,-0.7461 1.27,-0.7461 0.68,0 1.48,0.3633 2.38,1.1172 1.8,1.4961 3.32,3.4492 4.6,5.8633 l 1.7,-0.8828 c -2.05,-3.8477 -4.65,-7.0313 -7.81,-9.5664 -1.79,-1.4336 -3.31,-2.1524 -4.54,-2.1524 -1.81,0 -3.26,1.0195 -4.35,3.0703 -0.68,1.2657 -2.1,6.75 -4.25,16.418 -5.07,-8.8359 -9.13,-14.5039 -12.2,-17.0508 -1.98,-1.6172 -3.9,-2.4375 -5.76,-2.4375 -1.3,0 -2.49,0.4688 -3.57,1.418 -0.77,0.7187 -1.17,1.668 -1.17,2.8828 0,1.0703 0.37,1.9687 1.09,2.6836 0.7,0.7187 1.58,1.0664 2.63,1.0664 1.03,0 2.15,-0.5156 3.32,-1.5625 0.84,-0.7539 1.5,-1.1172 1.95,-1.1172 0.4,0 0.89,0.2656 1.51,0.7813 1.54,1.2343 3.62,3.9023 6.25,8 2.63,4.1015 4.37,7.0664 5.19,8.8984 -2.04,7.9023 -3.12,12.0859 -3.29,12.5352 -0.75,2.1171 -1.71,3.6171 -2.93,4.5 -1.2,0.8828 -2.97,1.3164 -5.32,1.3164 -0.75,0 -1.61,-0.0313 -2.58,-0.1016 v 1.7656 l 13.03,2.2852" /><path
         id="path122"
         style="fill:none;stroke:#231f20;stroke-width:7.5005002;stroke-linecap:butt;stroke-linejoin:miter;stroke-miterlimit:2.61310005;stroke-dasharray:none;stroke-opacity:1"
         d="M 157.512,264.852 H 700.621" /><path
         id="path124"
         style="fill:none;stroke:#231f20;stroke-width:7.5005002;stroke-linecap:butt;stroke-linejoin:miter;stroke-miterlimit:2.61310005;stroke-dasharray:none;stroke-opacity:1"
         d="m 690.559,264.328 c 95.019,1.5 141.406,-46.187 139.148,-143.074" /><path
         id="path126"
         style="fill:#231f20;fill-opacity:1;fill-rule:evenodd;stroke:none"
         d="m 828.266,128.543 c 6.636,0 12.019,-5.383 12.019,-12.02 0,-6.636 -5.383,-12.019 -12.019,-12.019 -6.637,0 -12.02,5.383 -12.02,12.019 0,6.637 5.383,12.02 12.02,12.02" /><path
         id="path128"
         style="fill:none;stroke:#231f20;stroke-width:7.5005002;stroke-linecap:butt;stroke-linejoin:miter;stroke-miterlimit:2.61310005;stroke-dasharray:none;stroke-opacity:1"
         d="m 828.266,128.543 c 6.636,0 12.019,-5.383 12.019,-12.02 0,-6.636 -5.383,-12.019 -12.019,-12.019 -6.637,0 -12.02,5.383 -12.02,12.019 0,6.637 5.383,12.02 12.02,12.02 z" /><g
         id="g130"><g
           clip-path="url(#clipPath136)"
           id="g132"><path
             id="path138"
             style="fill:none;stroke:#231f20;stroke-width:3.5999999;stroke-linecap:butt;stroke-linejoin:miter;stroke-miterlimit:2.61310005;stroke-dasharray:none;stroke-opacity:1"
             d="M 29.043,125.316 510.445,606.715" /><path
             id="path140"
             style="fill:none;stroke:#231f20;stroke-width:3.5999999;stroke-linecap:butt;stroke-linejoin:miter;stroke-miterlimit:2.61310005;stroke-dasharray:none;stroke-opacity:1"
             d="M 49.4062,104.949 530.809,586.352" /><path
             id="path142"
             style="fill:none;stroke:#231f20;stroke-width:3.5999999;stroke-linecap:butt;stroke-linejoin:miter;stroke-miterlimit:2.61310005;stroke-dasharray:none;stroke-opacity:1"
             d="M 69.7734,84.5859 551.176,565.988" /><path
             id="path144"
             style="fill:none;stroke:#231f20;stroke-width:3.5999999;stroke-linecap:butt;stroke-linejoin:miter;stroke-miterlimit:2.61310005;stroke-dasharray:none;stroke-opacity:1"
             d="M 90.1367,64.2227 571.539,545.621" /><path
             id="path146"
             style="fill:none;stroke:#231f20;stroke-width:3.5999999;stroke-linecap:butt;stroke-linejoin:miter;stroke-miterlimit:2.61310005;stroke-dasharray:none;stroke-opacity:1"
             d="M 110.5,43.8555 591.902,525.258" /><path
             id="path148"
             style="fill:none;stroke:#231f20;stroke-width:3.5999999;stroke-linecap:butt;stroke-linejoin:miter;stroke-miterlimit:2.61310005;stroke-dasharray:none;stroke-opacity:1"
             d="M 130.867,23.4922 612.27,504.895" /><path
             id="path150"
             style="fill:none;stroke:#231f20;stroke-width:3.5999999;stroke-linecap:butt;stroke-linejoin:miter;stroke-miterlimit:2.61310005;stroke-dasharray:none;stroke-opacity:1"
             d="M 151.23,3.125 632.633,484.527" /><path
             id="path152"
             style="fill:none;stroke:#231f20;stroke-width:3.5999999;stroke-linecap:butt;stroke-linejoin:miter;stroke-miterlimit:2.61310005;stroke-dasharray:none;stroke-opacity:1"
             d="M 171.594,-17.2383 652.996,464.164" /><path
             id="path154"
             style="fill:none;stroke:#231f20;stroke-width:3.5999999;stroke-linecap:butt;stroke-linejoin:miter;stroke-miterlimit:2.61310005;stroke-dasharray:none;stroke-opacity:1"
             d="M 191.961,-37.6016 673.363,443.801" /><path
             id="path156"
             style="fill:none;stroke:#231f20;stroke-width:3.5999999;stroke-linecap:butt;stroke-linejoin:miter;stroke-miterlimit:2.61310005;stroke-dasharray:none;stroke-opacity:1"
             d="M 212.324,-57.9688 693.727,423.434" /><path
             id="path158"
             style="fill:none;stroke:#231f20;stroke-width:3.5999999;stroke-linecap:butt;stroke-linejoin:miter;stroke-miterlimit:2.61310005;stroke-dasharray:none;stroke-opacity:1"
             d="M 232.691,-78.332 714.09,403.07" /><path
             id="path160"
             style="fill:none;stroke:#231f20;stroke-width:3.5999999;stroke-linecap:butt;stroke-linejoin:miter;stroke-miterlimit:2.61310005;stroke-dasharray:none;stroke-opacity:1"
             d="M 253.055,-98.6953 734.457,382.707" /><path
             id="path162"
             style="fill:none;stroke:#231f20;stroke-width:3.5999999;stroke-linecap:butt;stroke-linejoin:miter;stroke-miterlimit:2.61310005;stroke-dasharray:none;stroke-opacity:1"
             d="M 273.418,-119.062 754.82,362.34" /><path
             id="path164"
             style="fill:none;stroke:#231f20;stroke-width:3.5999999;stroke-linecap:butt;stroke-linejoin:miter;stroke-miterlimit:2.61310005;stroke-dasharray:none;stroke-opacity:1"
             d="M 293.785,-139.426 775.184,341.977" /><path
             id="path166"
             style="fill:none;stroke:#231f20;stroke-width:3.5999999;stroke-linecap:butt;stroke-linejoin:miter;stroke-miterlimit:2.61310005;stroke-dasharray:none;stroke-opacity:1"
             d="M 314.148,-159.789 795.551,321.609" /><path
             id="path168"
             style="fill:none;stroke:#231f20;stroke-width:3.5999999;stroke-linecap:butt;stroke-linejoin:miter;stroke-miterlimit:2.61310005;stroke-dasharray:none;stroke-opacity:1"
             d="M 334.512,-180.156 815.914,301.246" /><path
             id="path170"
             style="fill:none;stroke:#231f20;stroke-width:3.5999999;stroke-linecap:butt;stroke-linejoin:miter;stroke-miterlimit:2.61310005;stroke-dasharray:none;stroke-opacity:1"
             d="M 354.879,-200.52 836.281,280.883" /><path
             id="path172"
             style="fill:none;stroke:#231f20;stroke-width:3.5999999;stroke-linecap:butt;stroke-linejoin:miter;stroke-miterlimit:2.61310005;stroke-dasharray:none;stroke-opacity:1"
             d="M 375.242,-220.883 856.645,260.516" /><path
             id="path174"
             style="fill:none;stroke:#231f20;stroke-width:3.5999999;stroke-linecap:butt;stroke-linejoin:miter;stroke-miterlimit:2.61310005;stroke-dasharray:none;stroke-opacity:1"
             d="M 395.605,-241.25 877.008,240.152" /><path
             id="path176"
             style="fill:none;stroke:#231f20;stroke-width:3.5999999;stroke-linecap:butt;stroke-linejoin:miter;stroke-miterlimit:2.61310005;stroke-dasharray:none;stroke-opacity:1"
             d="M 415.973,-261.613 897.375,219.789" /><path
             id="path178"
             style="fill:none;stroke:#231f20;stroke-width:3.5999999;stroke-linecap:butt;stroke-linejoin:miter;stroke-miterlimit:2.61310005;stroke-dasharray:none;stroke-opacity:1"
             d="M 436.336,-281.977 917.738,199.422" /><path
             id="path180"
             style="fill:none;stroke:#231f20;stroke-width:3.5999999;stroke-linecap:butt;stroke-linejoin:miter;stroke-miterlimit:2.61310005;stroke-dasharray:none;stroke-opacity:1"
             d="M 456.699,-302.344 938.102,179.059" /><path
             id="path182"
             style="fill:none;stroke:#231f20;stroke-width:3.5999999;stroke-linecap:butt;stroke-linejoin:miter;stroke-miterlimit:2.61310005;stroke-dasharray:none;stroke-opacity:1"
             d="M 477.066,-322.707 958.469,158.695" /><path
             id="path184"
             style="fill:none;stroke:#231f20;stroke-width:3.5999999;stroke-linecap:butt;stroke-linejoin:miter;stroke-miterlimit:2.61310005;stroke-dasharray:none;stroke-opacity:1"
             d="M 497.43,-343.074 978.832,138.328" /></g></g><path
         id="path186"
         style="fill:none;stroke:#231f20;stroke-width:7.5005002;stroke-linecap:butt;stroke-linejoin:miter;stroke-miterlimit:2.61310005;stroke-dasharray:none;stroke-opacity:1"
         d="M 1584.95,402.141 H 2565.2" /><path
         id="path188"
         style="fill:#231f20;fill-opacity:1;fill-rule:evenodd;stroke:none"
         d="m 2561.04,428.488 47.9,-26.347 -47.9,-26.348 v 52.695" /><path
         id="path190"
         style="fill:#231f20;fill-opacity:1;fill-rule:evenodd;stroke:none"
         d="m 1908.27,416.543 c 6.63,0 12.02,-5.383 12.02,-12.02 0,-6.636 -5.39,-12.019 -12.02,-12.019 -6.64,0 -12.02,5.383 -12.02,12.019 0,6.637 5.38,12.02 12.02,12.02" /><path
         id="path192"
         style="fill:none;stroke:#231f20;stroke-width:7.5005002;stroke-linecap:butt;stroke-linejoin:miter;stroke-miterlimit:2.61310005;stroke-dasharray:none;stroke-opacity:1"
         d="m 1908.27,416.543 c 6.63,0 12.02,-5.383 12.02,-12.02 0,-6.636 -5.39,-12.019 -12.02,-12.019 -6.64,0 -12.02,5.383 -12.02,12.019 0,6.637 5.38,12.02 12.02,12.02 z" /><path
         id="path194"
         style="fill:#231f20;fill-opacity:1;fill-rule:nonzero;stroke:none"
         d="m 2280.1,369.062 v -1.816 c -4.28,-0.418 -7.8,-1.266 -10.51,-2.566 -2.72,-1.282 -5.41,-3.235 -8.05,-5.883 -2.65,-2.633 -4.86,-5.567 -6.6,-8.801 -1.74,-3.25 -3.21,-7.098 -4.37,-11.551 4.68,3.219 9.38,4.836 14.12,4.836 4.51,0 8.45,-1.836 11.76,-5.465 3.32,-3.652 4.99,-8.336 4.99,-14.07 0,-5.531 -1.69,-10.582 -5.04,-15.133 -4.03,-5.535 -9.38,-8.301 -16.01,-8.301 -4.53,0 -8.37,1.504 -11.54,4.485 -6.18,5.832 -9.26,13.383 -9.26,22.664 0,5.922 1.18,11.551 3.56,16.887 2.37,5.351 5.77,10.082 10.19,14.214 4.39,4.133 8.63,6.918 12.66,8.352 4.04,1.434 7.8,2.148 11.29,2.148 z m -30.36,-34.183 c -0.59,-4.399 -0.89,-7.949 -0.89,-10.649 0,-3.117 0.59,-6.515 1.74,-10.183 1.16,-3.649 2.88,-6.567 5.16,-8.715 1.65,-1.52 3.67,-2.285 6.05,-2.285 2.84,0 5.37,1.332 7.59,4 2.23,2.668 3.35,6.484 3.35,11.433 0,5.567 -1.1,10.383 -3.32,14.45 -2.22,4.07 -5.35,6.101 -9.43,6.101 -1.24,0 -2.55,-0.265 -3.97,-0.781 -1.41,-0.52 -3.52,-1.652 -6.28,-3.371" /><path
         id="path196"
         style="fill:#231f20;fill-opacity:1;fill-rule:nonzero;stroke:none"
         d="m 2575.79,363.359 c 1.6,-1.683 2.8,-3.382 3.62,-5.066 0.58,-1.184 1.55,-4.25 2.88,-9.234 l 4.3,6.453 c 1.14,1.547 2.52,3.05 4.15,4.465 1.62,1.418 3.05,2.382 4.28,2.898 0.79,0.336 1.66,0.484 2.6,0.484 1.4,0 2.5,-0.363 3.34,-1.117 0.83,-0.75 1.25,-1.664 1.25,-2.73 0,-1.235 -0.25,-2.086 -0.74,-2.535 -0.91,-0.817 -1.95,-1.235 -3.11,-1.235 -0.68,0 -1.42,0.153 -2.2,0.453 -1.54,0.516 -2.57,0.782 -3.09,0.782 -0.78,0 -1.69,-0.469 -2.78,-1.368 -2.01,-1.699 -4.41,-4.964 -7.22,-9.816 l 4,-16.801 c 0.62,-2.562 1.14,-4.113 1.57,-4.617 0.42,-0.496 0.84,-0.746 1.27,-0.746 0.68,0 1.48,0.363 2.38,1.117 1.8,1.496 3.32,3.449 4.6,5.863 l 1.7,-0.882 c -2.05,-3.848 -4.65,-7.032 -7.81,-9.567 -1.79,-1.433 -3.31,-2.152 -4.54,-2.152 -1.81,0 -3.26,1.019 -4.35,3.07 -0.68,1.266 -2.1,6.75 -4.25,16.418 -5.07,-8.836 -9.13,-14.504 -12.2,-17.051 -1.98,-1.617 -3.9,-2.437 -5.76,-2.437 -1.3,0 -2.49,0.469 -3.57,1.418 -0.77,0.719 -1.17,1.668 -1.17,2.883 0,1.07 0.37,1.968 1.09,2.683 0.7,0.719 1.58,1.067 2.63,1.067 1.03,0 2.15,-0.516 3.32,-1.563 0.84,-0.754 1.5,-1.117 1.95,-1.117 0.4,0 0.89,0.266 1.51,0.781 1.54,1.235 3.62,3.902 6.25,8 2.63,4.102 4.37,7.067 5.19,8.899 -2.04,7.902 -3.12,12.086 -3.29,12.535 -0.75,2.117 -1.71,3.617 -2.93,4.5 -1.2,0.883 -2.97,1.316 -5.32,1.316 -0.75,0 -1.61,-0.031 -2.58,-0.101 v 1.765 l 13.03,2.285" /><path
         id="path198"
         style="fill:none;stroke:#231f20;stroke-width:7.5005002;stroke-linecap:butt;stroke-linejoin:miter;stroke-miterlimit:2.61310005;stroke-dasharray:none;stroke-opacity:1"
         d="m 2383.05,553.422 h 183.43" /><path
         id="path200"
         style="fill:#ffffff;fill-opacity:1;fill-rule:evenodd;stroke:none"
         d="m 2268.27,416.543 c 6.63,0 12.02,-5.383 12.02,-12.02 0,-6.636 -5.39,-12.019 -12.02,-12.019 -6.64,0 -12.02,5.383 -12.02,12.019 0,6.637 5.38,12.02 12.02,12.02" /><path
         id="path202"
         style="fill:none;stroke:#231f20;stroke-width:7.5005002;stroke-linecap:butt;stroke-linejoin:miter;stroke-miterlimit:2.61310005;stroke-dasharray:none;stroke-opacity:1"
         d="m 2268.27,416.543 c 6.63,0 12.02,-5.383 12.02,-12.02 0,-6.636 -5.39,-12.019 -12.02,-12.019 -6.64,0 -12.02,5.383 -12.02,12.019 0,6.637 5.38,12.02 12.02,12.02 z" /><g
         id="g204"><g
           clip-path="url(#clipPath210)"
           id="g206"><path
             id="path212"
             style="fill:none;stroke:#231f20;stroke-width:3.5999999;stroke-linecap:butt;stroke-linejoin:miter;stroke-miterlimit:2.61310005;stroke-dasharray:none;stroke-opacity:1"
             d="m 2221.95,413.316 251.93,251.93" /><path
             id="path214"
             style="fill:none;stroke:#231f20;stroke-width:3.5999999;stroke-linecap:butt;stroke-linejoin:miter;stroke-miterlimit:2.61310005;stroke-dasharray:none;stroke-opacity:1"
             d="m 2242.32,392.949 251.93,251.934" /><path
             id="path216"
             style="fill:none;stroke:#231f20;stroke-width:3.5999999;stroke-linecap:butt;stroke-linejoin:miter;stroke-miterlimit:2.61310005;stroke-dasharray:none;stroke-opacity:1"
             d="M 2262.68,372.586 2514.61,624.52" /><path
             id="path218"
             style="fill:none;stroke:#231f20;stroke-width:3.5999999;stroke-linecap:butt;stroke-linejoin:miter;stroke-miterlimit:2.61310005;stroke-dasharray:none;stroke-opacity:1"
             d="m 2283.05,352.223 251.93,251.929" /><path
             id="path220"
             style="fill:none;stroke:#231f20;stroke-width:3.5999999;stroke-linecap:butt;stroke-linejoin:miter;stroke-miterlimit:2.61310005;stroke-dasharray:none;stroke-opacity:1"
             d="m 2303.41,331.855 251.93,251.934" /><path
             id="path222"
             style="fill:none;stroke:#231f20;stroke-width:3.5999999;stroke-linecap:butt;stroke-linejoin:miter;stroke-miterlimit:2.61310005;stroke-dasharray:none;stroke-opacity:1"
             d="m 2323.78,311.492 251.93,251.93" /><path
             id="path224"
             style="fill:none;stroke:#231f20;stroke-width:3.5999999;stroke-linecap:butt;stroke-linejoin:miter;stroke-miterlimit:2.61310005;stroke-dasharray:none;stroke-opacity:1"
             d="m 2344.14,291.125 251.93,251.934" /><path
             id="path226"
             style="fill:none;stroke:#231f20;stroke-width:3.5999999;stroke-linecap:butt;stroke-linejoin:miter;stroke-miterlimit:2.61310005;stroke-dasharray:none;stroke-opacity:1"
             d="m 2364.5,270.762 251.94,251.933" /><path
             id="path228"
             style="fill:none;stroke:#231f20;stroke-width:3.5999999;stroke-linecap:butt;stroke-linejoin:miter;stroke-miterlimit:2.61310005;stroke-dasharray:none;stroke-opacity:1"
             d="m 2384.87,250.398 251.93,251.93" /><path
             id="path230"
             style="fill:none;stroke:#231f20;stroke-width:3.5999999;stroke-linecap:butt;stroke-linejoin:miter;stroke-miterlimit:2.61310005;stroke-dasharray:none;stroke-opacity:1"
             d="m 2405.23,230.031 251.94,251.934" /><path
             id="path232"
             style="fill:none;stroke:#231f20;stroke-width:3.5999999;stroke-linecap:butt;stroke-linejoin:miter;stroke-miterlimit:2.61310005;stroke-dasharray:none;stroke-opacity:1"
             d="m 2425.6,209.668 251.93,251.934" /><path
             id="path234"
             style="fill:none;stroke:#231f20;stroke-width:3.5999999;stroke-linecap:butt;stroke-linejoin:miter;stroke-miterlimit:2.61310005;stroke-dasharray:none;stroke-opacity:1"
             d="m 2445.96,189.305 251.93,251.929" /><path
             id="path236"
             style="fill:none;stroke:#231f20;stroke-width:3.5999999;stroke-linecap:butt;stroke-linejoin:miter;stroke-miterlimit:2.61310005;stroke-dasharray:none;stroke-opacity:1"
             d="m 2466.33,168.938 251.93,251.933" /></g></g><path
         id="path238"
         style="fill:none;stroke:#231f20;stroke-width:7.5005002;stroke-linecap:butt;stroke-linejoin:miter;stroke-miterlimit:2.61310005;stroke-dasharray:none;stroke-opacity:1"
         d="M 1584.95,114.141 H 2565.2" /><path
         id="path240"
         style="fill:#231f20;fill-opacity:1;fill-rule:evenodd;stroke:none"
         d="m 2561.04,140.488 47.9,-26.347 -47.9,-26.348 v 52.695" /><path
         id="path242"
         style="fill:#231f20;fill-opacity:1;fill-rule:evenodd;stroke:none"
         d="m 1908.27,128.543 c 6.63,0 12.02,-5.383 12.02,-12.02 0,-6.636 -5.39,-12.019 -12.02,-12.019 -6.64,0 -12.02,5.383 -12.02,12.019 0,6.637 5.38,12.02 12.02,12.02" /><path
         id="path244"
         style="fill:none;stroke:#231f20;stroke-width:7.5005002;stroke-linecap:butt;stroke-linejoin:miter;stroke-miterlimit:2.61310005;stroke-dasharray:none;stroke-opacity:1"
         d="m 1908.27,128.543 c 6.63,0 12.02,-5.383 12.02,-12.02 0,-6.636 -5.39,-12.019 -12.02,-12.019 -6.64,0 -12.02,5.383 -12.02,12.019 0,6.637 5.38,12.02 12.02,12.02 z" /><path
         id="path246"
         style="fill:#231f20;fill-opacity:1;fill-rule:nonzero;stroke:none"
         d="m 2280.1,81.0625 v -1.8164 c -4.28,-0.418 -7.8,-1.2656 -10.51,-2.5664 -2.72,-1.2852 -5.41,-3.2344 -8.05,-5.8828 -2.65,-2.6328 -4.86,-5.5664 -6.6,-8.8008 -1.74,-3.25 -3.21,-7.0977 -4.37,-11.5508 4.68,3.2188 9.38,4.832 14.12,4.832 4.51,0 8.45,-1.832 11.76,-5.4648 3.32,-3.6484 4.99,-8.332 4.99,-14.0664 0,-5.5352 -1.69,-10.582 -5.04,-15.1328 -4.03,-5.5352 -9.38,-8.3008 -16.01,-8.3008 -4.53,0 -8.37,1.5039 -11.54,4.4844 -6.18,5.832 -9.26,13.3828 -9.26,22.664 0,5.918 1.18,11.5508 3.56,16.8868 2.37,5.3476 5.77,10.082 10.19,14.2148 4.39,4.1328 8.63,6.918 12.66,8.3516 4.04,1.4297 7.8,2.1484 11.29,2.1484 z m -30.36,-34.1836 c -0.59,-4.3984 -0.89,-7.9492 -0.89,-10.6484 0,-3.1172 0.59,-6.5157 1.74,-10.1836 1.16,-3.6485 2.88,-6.5664 5.16,-8.7188 1.65,-1.5156 3.67,-2.2812 6.05,-2.2812 2.84,0 5.37,1.332 7.59,4 2.23,2.6679 3.35,6.4843 3.35,11.4336 0,5.5664 -1.1,10.3828 -3.32,14.4492 -2.22,4.0664 -5.35,6.1015 -9.43,6.1015 -1.24,0 -2.55,-0.2656 -3.97,-0.7851 -1.41,-0.5156 -3.52,-1.6523 -6.28,-3.3672" /><path
         id="path248"
         style="fill:#231f20;fill-opacity:1;fill-rule:nonzero;stroke:none"
         d="m 2575.79,75.3594 c 1.6,-1.6836 2.8,-3.3828 3.62,-5.0664 0.58,-1.1836 1.55,-4.25 2.88,-9.2344 l 4.3,6.4531 c 1.14,1.5469 2.52,3.0508 4.15,4.4649 1.62,1.4179 3.05,2.3828 4.28,2.8984 0.79,0.3359 1.66,0.4844 2.6,0.4844 1.4,0 2.5,-0.3633 3.34,-1.1172 0.83,-0.75 1.25,-1.6641 1.25,-2.7305 0,-1.2344 -0.25,-2.0859 -0.74,-2.5351 -0.91,-0.8164 -1.95,-1.2344 -3.11,-1.2344 -0.68,0 -1.42,0.1523 -2.2,0.4531 -1.54,0.5156 -2.57,0.7813 -3.09,0.7813 -0.78,0 -1.69,-0.4688 -2.78,-1.3672 -2.01,-1.6992 -4.41,-4.9649 -7.22,-9.8164 l 4,-16.8008 c 0.62,-2.5625 1.14,-4.1133 1.57,-4.6172 0.42,-0.4961 0.84,-0.7461 1.27,-0.7461 0.68,0 1.48,0.3633 2.38,1.1172 1.8,1.4961 3.32,3.4492 4.6,5.8633 l 1.7,-0.8828 c -2.05,-3.8477 -4.65,-7.0313 -7.81,-9.5664 -1.79,-1.4336 -3.31,-2.1524 -4.54,-2.1524 -1.81,0 -3.26,1.0195 -4.35,3.0703 -0.68,1.2657 -2.1,6.75 -4.25,16.418 -5.07,-8.8359 -9.13,-14.5039 -12.2,-17.0508 -1.98,-1.6172 -3.9,-2.4375 -5.76,-2.4375 -1.3,0 -2.49,0.4688 -3.57,1.418 -0.77,0.7187 -1.17,1.668 -1.17,2.8828 0,1.0703 0.37,1.9687 1.09,2.6836 0.7,0.7187 1.58,1.0664 2.63,1.0664 1.03,0 2.15,-0.5156 3.32,-1.5625 0.84,-0.7539 1.5,-1.1172 1.95,-1.1172 0.4,0 0.89,0.2656 1.51,0.7813 1.54,1.2343 3.62,3.9023 6.25,8 2.63,4.1015 4.37,7.0664 5.19,8.8984 -2.04,7.9023 -3.12,12.0859 -3.29,12.5352 -0.75,2.1171 -1.71,3.6171 -2.93,4.5 -1.2,0.8828 -2.97,1.3164 -5.32,1.3164 -0.75,0 -1.61,-0.0313 -2.58,-0.1016 v 1.7656 l 13.03,2.2852" /><path
         id="path250"
         style="fill:#231f20;fill-opacity:1;fill-rule:evenodd;stroke:none"
         d="m 2268.27,128.543 c 6.63,0 12.02,-5.383 12.02,-12.02 0,-6.636 -5.39,-12.019 -12.02,-12.019 -6.64,0 -12.02,5.383 -12.02,12.019 0,6.637 5.38,12.02 12.02,12.02" /><path
         id="path252"
         style="fill:none;stroke:#231f20;stroke-width:7.5005002;stroke-linecap:butt;stroke-linejoin:miter;stroke-miterlimit:2.61310005;stroke-dasharray:none;stroke-opacity:1"
         d="m 2268.27,128.543 c 6.63,0 12.02,-5.383 12.02,-12.02 0,-6.636 -5.39,-12.019 -12.02,-12.019 -6.64,0 -12.02,5.383 -12.02,12.019 0,6.637 5.38,12.02 12.02,12.02 z" /><g
         id="g254"><g
           clip-path="url(#clipPath260)"
           id="g256"><path
             id="path262"
             style="fill:none;stroke:#231f20;stroke-width:3.5999999;stroke-linecap:butt;stroke-linejoin:miter;stroke-miterlimit:2.61310005;stroke-dasharray:none;stroke-opacity:1"
             d="M 2220.5,125.316 2444.36,349.18" /><path
             id="path264"
             style="fill:none;stroke:#231f20;stroke-width:3.5999999;stroke-linecap:butt;stroke-linejoin:miter;stroke-miterlimit:2.61310005;stroke-dasharray:none;stroke-opacity:1"
             d="m 2240.86,104.949 223.87,223.867" /><path
             id="path266"
             style="fill:none;stroke:#231f20;stroke-width:3.5999999;stroke-linecap:butt;stroke-linejoin:miter;stroke-miterlimit:2.61310005;stroke-dasharray:none;stroke-opacity:1"
             d="M 2261.23,84.5859 2485.09,308.453" /><path
             id="path268"
             style="fill:none;stroke:#231f20;stroke-width:3.5999999;stroke-linecap:butt;stroke-linejoin:miter;stroke-miterlimit:2.61310005;stroke-dasharray:none;stroke-opacity:1"
             d="M 2281.59,64.2227 2505.46,288.086" /><path
             id="path270"
             style="fill:none;stroke:#231f20;stroke-width:3.5999999;stroke-linecap:butt;stroke-linejoin:miter;stroke-miterlimit:2.61310005;stroke-dasharray:none;stroke-opacity:1"
             d="M 2301.96,43.8555 2525.82,267.723" /><path
             id="path272"
             style="fill:none;stroke:#231f20;stroke-width:3.5999999;stroke-linecap:butt;stroke-linejoin:miter;stroke-miterlimit:2.61310005;stroke-dasharray:none;stroke-opacity:1"
             d="M 2322.32,23.4922 2546.19,247.355" /><path
             id="path274"
             style="fill:none;stroke:#231f20;stroke-width:3.5999999;stroke-linecap:butt;stroke-linejoin:miter;stroke-miterlimit:2.61310005;stroke-dasharray:none;stroke-opacity:1"
             d="m 2342.69,3.125 223.86,223.867" /><path
             id="path276"
             style="fill:none;stroke:#231f20;stroke-width:3.5999999;stroke-linecap:butt;stroke-linejoin:miter;stroke-miterlimit:2.61310005;stroke-dasharray:none;stroke-opacity:1"
             d="M 2363.05,-17.2383 2586.92,206.629" /><path
             id="path278"
             style="fill:none;stroke:#231f20;stroke-width:3.5999999;stroke-linecap:butt;stroke-linejoin:miter;stroke-miterlimit:2.61310005;stroke-dasharray:none;stroke-opacity:1"
             d="M 2383.42,-37.6016 2607.28,186.262" /><path
             id="path280"
             style="fill:none;stroke:#231f20;stroke-width:3.5999999;stroke-linecap:butt;stroke-linejoin:miter;stroke-miterlimit:2.61310005;stroke-dasharray:none;stroke-opacity:1"
             d="M 2403.78,-57.9688 2627.64,165.898" /><path
             id="path282"
             style="fill:none;stroke:#231f20;stroke-width:3.5999999;stroke-linecap:butt;stroke-linejoin:miter;stroke-miterlimit:2.61310005;stroke-dasharray:none;stroke-opacity:1"
             d="m 2424.14,-78.332 223.87,223.867" /></g></g><path
         id="path284"
         style="fill:#231f20;fill-opacity:1;fill-rule:nonzero;stroke:none"
         d="m 1889.4,352.086 c 1.89,4.449 4.27,7.902 7.15,10.316 2.89,2.434 6.47,3.649 10.77,3.649 5.3,0 9.37,-1.731 12.2,-5.184 2.15,-2.566 3.23,-5.312 3.23,-8.246 0,-4.816 -3.03,-9.801 -9.08,-14.933 4.07,-1.602 7.13,-3.883 9.22,-6.852 2.08,-2.949 3.13,-6.434 3.13,-10.449 0,-5.719 -1.82,-10.684 -5.47,-14.883 -4.75,-5.465 -11.63,-8.203 -20.65,-8.203 -4.46,0 -7.49,0.551 -9.11,1.652 -1.6,1.117 -2.42,2.301 -2.42,3.567 0,0.949 0.38,1.785 1.15,2.5 0.77,0.718 1.68,1.066 2.77,1.066 0.8,0 1.63,-0.133 2.48,-0.383 0.55,-0.168 1.8,-0.765 3.77,-1.781 1.94,-1.035 3.3,-1.637 4.05,-1.836 1.2,-0.363 2.48,-0.531 3.85,-0.531 3.31,0 6.21,1.281 8.67,3.847 2.46,2.567 3.68,5.618 3.68,9.133 0,2.567 -0.57,5.082 -1.7,7.52 -0.85,1.816 -1.79,3.199 -2.79,4.148 -1.4,1.297 -3.32,2.485 -5.76,3.531 -2.43,1.071 -4.93,1.602 -7.47,1.602 h -1.57 v 1.465 c 2.57,0.32 5.15,1.25 7.74,2.785 2.6,1.516 4.48,3.367 5.65,5.516 1.16,2.152 1.75,4.503 1.75,7.066 0,3.367 -1.05,6.066 -3.15,8.133 -2.1,2.07 -4.7,3.101 -7.84,3.101 -5.04,0 -9.25,-2.699 -12.65,-8.097 l -1.6,0.781" /><path
         id="path286"
         style="fill:#231f20;fill-opacity:1;fill-rule:nonzero;stroke:none"
         d="m 1883.38,59.8047 c 1.88,4.4492 4.26,7.8984 7.15,10.3125 2.88,2.4375 6.46,3.6523 10.76,3.6523 5.3,0 9.37,-1.7304 12.2,-5.1836 2.15,-2.5664 3.24,-5.3164 3.24,-8.25 0,-4.8164 -3.04,-9.7968 -9.09,-14.9336 4.07,-1.6015 7.14,-3.8828 9.22,-6.8515 2.09,-2.9453 3.13,-6.4297 3.13,-10.4453 0,-5.7188 -1.81,-10.6836 -5.46,-14.8867 -4.75,-5.46489 -11.64,-8.19927 -20.65,-8.19927 -4.47,0 -7.5,0.55078 -9.12,1.65235 -1.6,1.11328 -2.42,2.30078 -2.42,3.56642 0,0.9492 0.39,1.7812 1.15,2.5 0.77,0.7148 1.69,1.0664 2.77,1.0664 0.8,0 1.63,-0.1328 2.49,-0.3828 0.54,-0.168 1.79,-0.7696 3.76,-1.7852 1.95,-1.0351 3.3,-1.6328 4.05,-1.83201 1.2,-0.36719 2.48,-0.53516 3.85,-0.53516 3.32,0 6.21,1.28127 8.67,3.85157 2.46,2.5664 3.68,5.6133 3.68,9.1328 0,2.5664 -0.57,5.082 -1.7,7.5156 -0.85,1.8203 -1.78,3.2032 -2.78,4.1524 -1.4,1.2969 -3.32,2.4804 -5.77,3.5312 -2.43,1.0664 -4.93,1.6016 -7.47,1.6016 h -1.56 v 1.4648 c 2.56,0.3164 5.14,1.25 7.73,2.7852 2.6,1.5156 4.48,3.3672 5.65,5.5156 1.17,2.1524 1.75,4.5 1.75,7.0664 0,3.3672 -1.05,6.0664 -3.15,8.1328 -2.1,2.0703 -4.7,3.1016 -7.84,3.1016 -5.04,0 -9.24,-2.6992 -12.64,-8.1016 l -1.6,0.7852" /><path
         id="path288"
         style="fill:none;stroke:#231f20;stroke-width:7.5005002;stroke-linecap:butt;stroke-linejoin:miter;stroke-miterlimit:2.61310005;stroke-dasharray:none;stroke-opacity:1"
         d="m 2409.75,553.832 c -95.02,1.504 -141.41,-46.187 -139.15,-143.074" /><path
         id="path290"
         style="fill:none;stroke:#231f20;stroke-width:7.5005002;stroke-linecap:butt;stroke-linejoin:miter;stroke-miterlimit:2.61310005;stroke-dasharray:none;stroke-opacity:1"
         d="m 2382.01,265.602 h 198.48" /><path
         id="path292"
         style="fill:none;stroke:#231f20;stroke-width:7.5005002;stroke-linecap:butt;stroke-linejoin:miter;stroke-miterlimit:2.61310005;stroke-dasharray:none;stroke-opacity:1"
         d="m 2409.75,265.832 c -95.02,1.504 -141.41,-46.187 -139.15,-143.074" /></g></g></svg>