<?xml version="1.0" encoding="UTF-8" standalone="no"?>
<svg
   xmlns:dc="http://purl.org/dc/elements/1.1/"
   xmlns:cc="http://creativecommons.org/ns#"
   xmlns:rdf="http://www.w3.org/1999/02/22-rdf-syntax-ns#"
   xmlns:svg="http://www.w3.org/2000/svg"
   xmlns="http://www.w3.org/2000/svg"
   viewBox="0 0 198.66667 61.333332"
   height="61.333332"
   width="198.66667"
   xml:space="preserve"
   id="svg2"
   version="1.1"><metadata
     id="metadata8"><rdf:RDF><cc:Work
         rdf:about=""><dc:format>image/svg+xml</dc:format><dc:type
           rdf:resource="http://purl.org/dc/dcmitype/StillImage" /></cc:Work></rdf:RDF></metadata><defs
     id="defs6" /><g
     transform="matrix(1.3333333,0,0,-1.3333333,0,61.333333)"
     id="g10"><g
       transform="scale(0.1)"
       id="g12"><path
         id="path14"
         style="fill:#231f20;fill-opacity:1;fill-rule:nonzero;stroke:none"
         d="m 204.094,172.379 h 35.484 v -1.871 l -22.066,-65.715 h -5.465 l 19.781,59.617 h -18.215 c -3.683,0 -6.301,-0.433 -7.867,-1.316 -2.734,-1.5 -4.934,-3.801 -6.582,-6.934 l -1.418,0.531 6.348,15.688" /><path
         id="path16"
         style="fill:#231f20;fill-opacity:1;fill-rule:nonzero;stroke:none"
         d="m 289.879,118.91 -4.637,-12.75 h -39.066 v 1.801 c 11.488,10.48 19.586,19.047 24.269,25.684 4.68,6.652 7.032,12.714 7.032,18.214 0,4.203 -1.282,7.653 -3.868,10.352 -2.562,2.699 -5.632,4.051 -9.214,4.051 -3.266,0 -6.184,-0.953 -8.766,-2.852 -2.582,-1.902 -4.5,-4.699 -5.734,-8.367 h -1.817 c 0.817,6.019 2.902,10.633 6.281,13.867 3.368,3.219 7.571,4.832 12.618,4.832 5.371,0 9.851,-1.73 13.449,-5.183 3.601,-3.45 5.402,-7.516 5.402,-12.196 0,-3.351 -0.781,-6.718 -2.351,-10.07 -2.399,-5.266 -6.317,-10.848 -11.715,-16.75 -8.102,-8.848 -13.168,-14.18 -15.184,-16.016 h 17.285 c 3.516,0 5.981,0.133 7.399,0.399 1.418,0.25 2.699,0.785 3.832,1.582 1.133,0.804 2.133,1.937 2.984,3.402 h 1.801" /><path
         id="path18"
         style="fill:#231f20;fill-opacity:1;fill-rule:nonzero;stroke:none"
         d="M 137.32,448.184 138,450 h 23.637 c 3.965,0 7.496,-0.617 10.617,-1.867 3.098,-1.235 5.434,-2.949 6.984,-5.168 1.547,-2.215 2.313,-4.567 2.313,-7.035 0,-3.813 -1.383,-7.246 -4.133,-10.332 -2.75,-3.067 -7.23,-5.348 -13.449,-6.801 4.015,-1.496 6.953,-3.481 8.851,-5.965 1.883,-2.465 2.832,-5.184 2.832,-8.148 0,-3.286 -0.847,-6.434 -2.55,-9.434 -1.684,-2.984 -3.868,-5.316 -6.516,-6.965 -2.648,-1.668 -5.852,-2.887 -9.602,-3.668 -2.668,-0.551 -6.832,-0.836 -12.5,-0.836 h -24.265 l 0.633,1.801 c 2.55,0.07 4.265,0.32 5.183,0.734 1.301,0.567 2.235,1.301 2.785,2.2 0.782,1.234 1.813,4.066 3.118,8.5 l 11.863,40.082 c 1.019,3.386 1.515,5.765 1.515,7.136 0,1.2 -0.445,2.149 -1.332,2.848 -0.898,0.699 -2.597,1.051 -5.113,1.051 -0.551,0 -1.066,0.015 -1.551,0.051 z m 9.899,-27.485 c 2.117,-0.066 3.648,-0.101 4.597,-0.101 6.77,0 11.801,1.468 15.118,4.418 3.3,2.949 4.953,6.632 4.953,11.066 0,3.352 -1.02,5.965 -3.035,7.836 -2.016,1.863 -5.235,2.797 -9.668,2.797 -1.164,0 -2.664,-0.184 -4.481,-0.582 z m -9.617,-32.617 c 3.519,-0.465 6.269,-0.684 8.253,-0.684 5.083,0 9.579,1.536 13.497,4.586 3.933,3.067 5.886,7.215 5.886,12.45 0,4 -1.203,7.132 -3.636,9.382 -2.418,2.25 -6.332,3.368 -11.731,3.368 -1.051,0 -2.32,-0.051 -3.82,-0.153 l -8.449,-28.949" /><path
         id="path20"
         style="fill:none;stroke:#231f20;stroke-width:7.5005002;stroke-linecap:butt;stroke-linejoin:miter;stroke-miterlimit:2.61310005;stroke-dasharray:none;stroke-opacity:1"
         d="M 90.2148,93.1094 H 1454.36" /><path
         id="path22"
         style="fill:none;stroke:#231f20;stroke-width:7.5005002;stroke-linecap:butt;stroke-linejoin:miter;stroke-miterlimit:2.61310005;stroke-dasharray:none;stroke-opacity:1"
         d="M 89.7188,93.0273 184.188,383.773" /><path
         id="path24"
         style="fill:none;stroke:#231f20;stroke-width:7.5005002;stroke-linecap:butt;stroke-linejoin:miter;stroke-miterlimit:2.61310005;stroke-dasharray:none;stroke-opacity:1"
         d="M 1140.27,92.4023 183.539,383.801" /><path
         id="path26"
         style="fill:#231f20;fill-opacity:1;fill-rule:nonzero;stroke:none"
         d="M 66.2578,109.938 61.2227,54.875 c -0.2657,-2.5859 -0.3829,-4.2695 -0.3829,-5.0859 0,-1.3008 0.2305,-2.3008 0.7344,-2.9844 0.6133,-0.9297 1.4492,-1.6328 2.5,-2.0977 1.0664,-0.4531 2.8477,-0.6836 5.3477,-0.6836 L 68.8906,42.2227 H 42.8242 l 0.5313,1.8007 h 1.1172 c 2.1171,0 3.8515,0.4688 5.1835,1.3672 0.9336,0.6328 1.668,1.6485 2.1993,3.0821 0.3515,1.0195 0.7031,3.3828 1.0195,7.1328 l 0.7812,8.4023 H 34.707 L 27.9727,54.875 c -1.5313,-2.0547 -2.4844,-3.5352 -2.8829,-4.418 -0.3828,-0.9023 -0.5859,-1.7343 -0.5859,-2.5156 0,-1.0547 0.418,-1.9336 1.2695,-2.6875 0.8477,-0.7461 2.25,-1.1641 4.1993,-1.2305 L 29.4414,42.2227 H 9.85547 l 0.53513,1.8007 c 2.418,0.0977 4.5352,0.9141 6.3828,2.418 1.8321,1.5156 4.5664,4.7461 8.2149,9.6992 L 64.5391,109.938 Z M 56.5898,93.6875 37.3906,67.5742 h 16.6485 l 2.5507,26.1133" /><path
         id="path28"
         style="fill:#231f20;fill-opacity:1;fill-rule:nonzero;stroke:none"
         d="m 1162.85,70.4727 -4.93,-21.4336 h -1.77 l -0.18,5.3828 c -0.17,1.9492 -0.55,3.6836 -1.13,5.2148 -0.59,1.5352 -1.47,2.8516 -2.64,3.9883 -1.16,1.1133 -2.65,1.9961 -4.45,2.6328 -1.78,0.6289 -3.77,0.9492 -5.95,0.9492 -5.83,0 -10.91,-1.6015 -15.28,-4.7851 -5.57,-4.0664 -9.93,-9.8164 -13.08,-17.2305 -2.6,-6.1172 -3.92,-12.3164 -3.92,-18.6016 0,-6.4179 1.88,-11.5351 5.62,-15.3671 3.75,-3.81645 8.61,-5.73442 14.6,-5.73442 4.53,0 8.56,1.01953 12.08,3.03125 3.53,2.01957 6.82,5.11717 9.85,9.32027 h 2.28 c -3.56,-5.7031 -7.55,-9.88668 -11.9,-12.56636 -4.36,-2.6836 -9.6,-4.03516 -15.68,-4.03516 -5.4,0 -10.18,1.13672 -14.35,3.39844 -4.17,2.26953 -7.35,5.43358 -9.52,9.55078 -2.18,4.1016 -3.28,8.5 -3.28,13.2344 0,7.2187 1.95,14.25 5.82,21.0859 3.86,6.8281 9.18,12.211 15.93,16.1133 6.76,3.8984 13.57,5.8516 20.45,5.8516 3.22,0 6.83,-0.75 10.83,-2.2813 1.75,-0.6523 3.04,-0.9844 3.8,-0.9844 0.79,0 1.47,0.1641 2.07,0.4805 0.58,0.3359 1.55,1.2656 2.92,2.7852 h 1.81" /><path
         id="path30"
         style="fill:#231f20;fill-opacity:1;fill-rule:nonzero;stroke:none"
         d="m 1446.22,43.4414 16.4,-25.3516 c 2.94,-4.4804 5.37,-7.3671 7.29,-8.61714 1.92,-1.25 4.45,-1.88282 7.57,-1.88282 l -0.54,-1.79687 h -28.23 l 0.45,1.79687 c 2.25,0.23438 3.83,0.76563 4.75,1.61719 0.93,0.85157 1.4,1.80077 1.4,2.88677 0,0.9804 -0.17,1.914 -0.49,2.832 -0.26,0.6484 -1.21,2.25 -2.83,4.7851 l -13.43,21.0469 -6.5,-21.9336 c -1.07,-3.5156 -1.6,-5.8672 -1.6,-7.082 0,-1.2344 0.45,-2.16798 1.36,-2.81642 0.91,-0.66797 3.16,-1.10156 6.74,-1.33594 l -0.79,-1.79687 h -26.16 l 0.63,1.79687 c 2.54,0.07032 4.25,0.30078 5.14,0.6836 1.3,0.60156 2.24,1.35156 2.86,2.25386 0.85,1.3321 1.9,4.0977 3.14,8.2969 l 11.66,40 c 0.89,3.0508 1.32,5.5156 1.32,7.3672 0,1.3008 -0.42,2.2969 -1.23,2.9805 -0.84,0.6836 -2.45,1.0195 -4.87,1.0195 h -0.98 l 0.6,1.8164 h 24.85 l -0.5,-1.8164 c -2.05,0.0352 -3.57,-0.1836 -4.59,-0.6836 -1.4,-0.6836 -2.41,-1.5664 -3.07,-2.6328 -0.66,-1.0664 -1.61,-3.7695 -2.88,-8.0508 l -5.13,-17 23.53,17.7344 c 3.14,2.332 5.18,4.1992 6.15,5.5664 0.58,0.832 0.88,1.5977 0.88,2.2812 0,0.586 -0.3,1.168 -0.89,1.7188 -0.61,0.5508 -1.52,0.8984 -2.77,1.0664 l 0.5,1.8164 h 21.18 l -0.43,-1.8164 c -2.32,-0.3828 -4.27,-0.8984 -5.83,-1.5352 -1.59,-0.6328 -3.2,-1.5 -4.87,-2.6132 -0.48,-0.3203 -3.67,-2.7344 -9.52,-7.2188 l -20.27,-15.3828" /><path
         id="path32"
         style="fill:none;stroke:#231f20;stroke-width:5.00029993;stroke-linecap:butt;stroke-linejoin:miter;stroke-miterlimit:2.61310005;stroke-dasharray:none;stroke-opacity:1"
         d="m 166.016,323.68 c 44.988,-21.735 82.902,-10.11 113.738,34.882" /><path
         id="path34"
         style="fill:none;stroke:#231f20;stroke-width:5.00029993;stroke-linecap:butt;stroke-linejoin:miter;stroke-miterlimit:2.61310005;stroke-dasharray:none;stroke-opacity:1"
         d="m 117.484,172.027 c 50.047,-15.164 76.84,-42.465 80.379,-81.8942" /><path
         id="path36"
         style="fill:none;stroke:#231f20;stroke-width:5.00029993;stroke-linecap:butt;stroke-linejoin:miter;stroke-miterlimit:2.61310005;stroke-dasharray:none;stroke-opacity:1"
         d="m 965.23,149.277 c 140.02,26.793 262.86,8.09 368.52,-56.109" /><path
         id="path38"
         style="fill:#231f20;fill-opacity:1;fill-rule:nonzero;stroke:none"
         d="m 235.734,248.152 v 1.801 c 4.235,0.067 8.184,1.051 11.817,2.965 3.648,1.902 7.183,5.238 10.582,9.984 3.402,4.75 5.769,9.965 7.101,15.668 -5.117,-3.285 -9.734,-4.933 -13.867,-4.933 -4.648,0 -8.648,1.801 -11.965,5.398 -3.32,3.602 -4.984,8.367 -4.984,14.332 0,5.805 1.664,10.953 4.984,15.488 4,5.497 9.235,8.247 15.68,8.247 5.438,0 10.086,-2.25 13.953,-6.747 4.766,-5.57 7.133,-12.433 7.133,-20.601 0,-7.348 -1.801,-14.219 -5.418,-20.586 -3.617,-6.363 -8.648,-11.648 -15.082,-15.832 -5.25,-3.469 -10.949,-5.184 -17.148,-5.184 z m 30.282,34.036 c 0.586,4.234 0.886,7.617 0.886,10.148 0,3.168 -0.55,6.566 -1.617,10.234 -1.086,3.668 -2.601,6.465 -4.566,8.414 -1.969,1.969 -4.199,2.934 -6.719,2.934 -2.898,0 -5.434,-1.301 -7.617,-3.898 -2.18,-2.602 -3.266,-6.485 -3.266,-11.618 0,-6.863 1.449,-12.246 4.352,-16.117 2.097,-2.797 4.715,-4.199 7.801,-4.199 1.496,0 3.281,0.352 5.332,1.066 2.05,0.719 3.851,1.735 5.414,3.036" /><path
         id="path40"
         style="fill:#231f20;fill-opacity:1;fill-rule:nonzero;stroke:none"
         d="m 292.184,309.238 16.117,7.864 h 1.617 v -55.914 c 0,-3.704 0.148,-6.02 0.449,-6.934 0.317,-0.902 0.965,-1.602 1.934,-2.102 0.984,-0.484 2.969,-0.765 5.965,-0.832 v -1.8 h -24.914 v 1.8 c 3.132,0.067 5.148,0.336 6.066,0.817 0.902,0.468 1.531,1.101 1.898,1.898 0.352,0.805 0.536,3.184 0.536,7.153 v 35.75 c 0,4.816 -0.168,7.898 -0.485,9.265 -0.234,1.051 -0.648,1.817 -1.25,2.301 -0.601,0.484 -1.316,0.734 -2.164,0.734 -1.203,0 -2.883,-0.504 -5.035,-1.519 l -0.734,1.519" /><path
         id="path42"
         style="fill:none;stroke:#231f20;stroke-width:5.00029993;stroke-linecap:butt;stroke-linejoin:miter;stroke-miterlimit:2.61310005;stroke-dasharray:none;stroke-opacity:1"
         d="m 329.648,330.168 c 6.079,0 10.997,-4.918 10.997,-10.973 0,-6.062 -4.918,-10.976 -10.997,-10.976 -6.066,0 -10.98,4.914 -10.98,10.976 0,6.055 4.914,10.973 10.98,10.973 z" /><path
         id="path44"
         style="fill:none;stroke:#231f20;stroke-width:5.00029993;stroke-linecap:butt;stroke-linejoin:miter;stroke-miterlimit:2.61310005;stroke-dasharray:none;stroke-opacity:1"
         d="m 300.133,187.121 c 6.07,0 10.992,-4.914 10.992,-10.973 0,-6.058 -4.922,-10.976 -10.992,-10.976 -6.063,0 -10.985,4.918 -10.985,10.976 0,6.059 4.922,10.973 10.985,10.973 z" /></g></g></svg>