<?xml version="1.0" encoding="UTF-8" standalone="no"?>
<svg
   xmlns:dc="http://purl.org/dc/elements/1.1/"
   xmlns:cc="http://creativecommons.org/ns#"
   xmlns:rdf="http://www.w3.org/1999/02/22-rdf-syntax-ns#"
   xmlns:svg="http://www.w3.org/2000/svg"
   xmlns="http://www.w3.org/2000/svg"
   viewBox="0 0 122.66667 89.333336"
   height="89.333336"
   width="122.66667"
   xml:space="preserve"
   id="svg2"
   version="1.1"><metadata
     id="metadata8"><rdf:RDF><cc:Work
         rdf:about=""><dc:format>image/svg+xml</dc:format><dc:type
           rdf:resource="http://purl.org/dc/dcmitype/StillImage" /></cc:Work></rdf:RDF></metadata><defs
     id="defs6" /><g
     transform="matrix(1.3333333,0,0,-1.3333333,0,89.333333)"
     id="g10"><g
       transform="scale(0.1)"
       id="g12"><path
         id="path14"
         style="fill:none;stroke:#231f20;stroke-width:7.5005002;stroke-linecap:butt;stroke-linejoin:miter;stroke-miterlimit:2.61310005;stroke-dasharray:none;stroke-opacity:1"
         d="M 85.793,103.309 H 915.098" /><path
         id="path16"
         style="fill:none;stroke:#231f20;stroke-width:7.5005002;stroke-linecap:butt;stroke-linejoin:miter;stroke-miterlimit:2.61310005;stroke-dasharray:none;stroke-opacity:1"
         d="M 85.9805,103.637 765.309,579.305" /><path
         id="path18"
         style="fill:none;stroke:#231f20;stroke-width:7.5005002;stroke-linecap:butt;stroke-linejoin:miter;stroke-miterlimit:2.61310005;stroke-dasharray:none;stroke-opacity:1"
         d="M 565.297,101.289 768.949,581.062" /><path
         id="path20"
         style="fill:none;stroke:#231f20;stroke-width:5.00029993;stroke-linecap:butt;stroke-linejoin:miter;stroke-miterlimit:2.61310005;stroke-dasharray:none;stroke-opacity:1"
         d="m 598.777,179.301 c 40.637,-14.051 58.196,-40.141 52.684,-78.274" /><path
         id="path22"
         style="fill:#231f20;fill-opacity:1;fill-rule:nonzero;stroke:none"
         d="m 63.7656,159.711 -5.0351,-55.063 c -0.2657,-2.586 -0.3828,-4.269 -0.3828,-5.0855 0,-1.2969 0.2343,-2.2969 0.7343,-2.9805 0.6172,-0.9336 1.4492,-1.6328 2.5,-2.1015 1.0664,-0.4493 2.8516,-0.6836 5.3516,-0.6836 L 66.3984,91.9961 H 40.332 l 0.5352,1.8008 h 1.1133 c 2.1211,0 3.8554,0.4687 5.1875,1.3672 0.9297,0.6328 1.664,1.6484 2.1992,3.082 0.3476,1.0195 0.6992,3.3829 1.0156,7.1329 l 0.7852,8.402 H 32.2188 l -6.7383,-9.133 C 23.9531,102.594 23,101.113 22.5977,100.23 c -0.3829,-0.898 -0.5821,-1.7339 -0.5821,-2.5152 0,-1.0507 0.418,-1.9336 1.2656,-2.6836 0.8516,-0.75 2.25,-1.1679 4.2032,-1.2343 L 26.9492,91.9961 H 7.36719 l 0.53125,1.8008 c 2.41796,0.0976 4.53516,0.914 6.38276,2.4179 1.836,1.5157 4.5665,4.7502 8.2188,9.6992 l 39.5469,53.797 z m -9.664,-16.25 -19.2032,-26.113 h 16.6524 l 2.5508,26.113" /><path
         id="path24"
         style="fill:#231f20;fill-opacity:1;fill-rule:nonzero;stroke:none"
         d="m 889.031,79.3867 -7.566,-26.1836 h 6.199 c 4.434,0 7.633,0.6836 9.637,2.0352 1.98,1.3476 3.679,3.8476 5.113,7.5 h 1.82 l -6.8,-24.0352 h -1.95 c 0.582,2.0157 0.879,3.75 0.879,5.1836 0,1.4024 -0.281,2.5156 -0.847,3.3672 -0.582,0.8516 -1.352,1.4649 -2.352,1.8828 -0.996,0.3985 -3.082,0.6016 -6.281,0.6016 h -6.285 l -6.399,-21.918 c -0.617,-2.1172 -0.933,-3.7344 -0.933,-4.832 0,-0.8516 0.418,-1.6016 1.214,-2.25 0.567,-0.4531 1.95,-0.6836 4.153,-0.6836 h 5.867 c 6.348,0 11.43,1.1328 15.25,3.3672 3.832,2.25 7.266,6.164 10.281,11.7304 h 1.817 l -6.25,-18.414 h -51.184 l 0.637,1.7969 c 2.547,0.0703 4.25,0.3007 5.133,0.6836 1.296,0.6015 2.246,1.3515 2.832,2.2539 0.882,1.332 1.914,4.1328 3.117,8.3984 l 11.633,39.9492 c 0.898,3.2188 1.367,5.668 1.367,7.3672 0,1.2344 -0.434,2.1992 -1.301,2.8984 -0.867,0.7032 -2.547,1.0508 -5.051,1.0508 h -1.031 l 0.582,1.8164 h 47.566 l -4.101,-15.9687 h -1.817 c 0.235,1.5 0.352,2.75 0.352,3.75 0,1.7383 -0.418,3.1836 -1.266,4.3515 -1.117,1.5 -2.718,2.6329 -4.832,3.418 -1.57,0.582 -5.168,0.8828 -10.8,0.8828 h -8.403" /><path
         id="path26"
         style="fill:#231f20;fill-opacity:1;fill-rule:nonzero;stroke:none"
         d="m 596.023,73.9141 -4.929,-21.4336 h -1.77 l -0.183,5.3828 c -0.164,1.9531 -0.547,3.6836 -1.133,5.2148 -0.582,1.5352 -1.469,2.8555 -2.633,3.9883 -1.168,1.1133 -2.652,1.9961 -4.449,2.6328 -1.785,0.6328 -3.77,0.9492 -5.949,0.9492 -5.836,0 -10.918,-1.6015 -15.286,-4.7851 -5.566,-4.0664 -9.933,-9.8164 -13.082,-17.2305 -2.601,-6.1172 -3.918,-12.3164 -3.918,-18.6016 0,-6.4179 1.883,-11.5351 5.618,-15.3671 3.75,-3.8164 8.617,-5.73441 14.597,-5.73441 4.535,0 8.567,1.01953 12.086,3.03511 3.531,2.0157 6.817,5.1172 9.852,9.3164 h 2.281 c -3.566,-5.6992 -7.551,-9.8828 -11.902,-12.56636 -4.364,-2.68359 -9.598,-4.03515 -15.684,-4.03515 -5.398,0 -10.18,1.13672 -14.348,3.40234 -4.168,2.26567 -7.351,5.43357 -9.515,9.54687 -2.184,4.1016 -3.285,8.5039 -3.285,13.2344 0,7.2187 1.949,14.25 5.816,21.0859 3.867,6.832 9.184,12.2149 15.934,16.1133 6.765,3.9023 13.566,5.8516 20.453,5.8516 3.211,0 6.828,-0.75 10.828,-2.2813 1.754,-0.6523 3.035,-0.9844 3.801,-0.9844 0.785,0 1.468,0.1641 2.066,0.4805 0.586,0.3359 1.551,1.2695 2.918,2.7852 h 1.816" /><path
         id="path28"
         style="fill:#231f20;fill-opacity:1;fill-rule:nonzero;stroke:none"
         d="m 752.008,660.531 0.683,1.817 h 23.633 c 3.965,0 7.5,-0.618 10.617,-1.868 3.102,-1.23 5.434,-2.949 6.985,-5.164 1.547,-2.214 2.316,-4.566 2.316,-7.035 0,-3.816 -1.383,-7.25 -4.133,-10.332 -2.754,-3.066 -7.234,-5.347 -13.453,-6.801 4.02,-1.5 6.953,-3.484 8.852,-5.964 1.883,-2.469 2.832,-5.184 2.832,-8.153 0,-3.281 -0.848,-6.429 -2.547,-9.433 -1.684,-2.981 -3.867,-5.313 -6.52,-6.965 -2.648,-1.664 -5.847,-2.883 -9.601,-3.668 -2.664,-0.547 -6.832,-0.832 -12.5,-0.832 H 734.91 l 0.633,1.801 c 2.551,0.066 4.266,0.316 5.184,0.734 1.296,0.566 2.23,1.297 2.781,2.199 0.785,1.235 1.816,4.063 3.117,8.496 l 11.863,40.086 c 1.02,3.383 1.52,5.766 1.52,7.133 0,1.199 -0.449,2.148 -1.332,2.852 -0.899,0.699 -2.602,1.046 -5.117,1.046 -0.551,0 -1.067,0.02 -1.551,0.051 z m 9.902,-27.484 c 2.113,-0.063 3.645,-0.098 4.598,-0.098 6.765,0 11.801,1.469 15.117,4.414 3.297,2.953 4.949,6.633 4.949,11.067 0,3.351 -1.015,5.968 -3.035,7.836 -2.016,1.867 -5.23,2.8 -9.664,2.8 -1.168,0 -2.668,-0.183 -4.484,-0.582 z m -9.621,-32.613 c 3.52,-0.469 6.27,-0.684 8.254,-0.684 5.082,0 9.582,1.535 13.496,4.582 3.938,3.066 5.887,7.219 5.887,12.449 0,4 -1.203,7.133 -3.633,9.383 -2.418,2.254 -6.336,3.367 -11.734,3.367 -1.051,0 -2.321,-0.051 -3.817,-0.148 l -8.453,-28.949" /><path
         id="path30"
         style="fill:#231f20;fill-opacity:1;fill-rule:nonzero;stroke:none"
         d="m 718.852,230.324 v -1.816 c -4.282,-0.418 -7.797,-1.27 -10.516,-2.567 -2.715,-1.285 -5.398,-3.234 -8.051,-5.882 -2.644,-2.637 -4.847,-5.571 -6.597,-8.801 -1.731,-3.25 -3.2,-7.102 -4.368,-11.551 4.684,3.219 9.383,4.832 14.118,4.832 4.515,0 8.449,-1.832 11.765,-5.465 3.317,-3.648 4.985,-8.332 4.985,-14.066 0,-5.535 -1.684,-10.582 -5.036,-15.137 -4.031,-5.531 -9.382,-8.297 -16.015,-8.297 -4.532,0 -8.367,1.5 -11.532,4.485 -6.183,5.832 -9.265,13.382 -9.265,22.664 0,5.918 1.18,11.55 3.562,16.886 2.368,5.348 5.77,10.082 10.188,14.215 4.398,4.133 8.629,6.918 12.664,8.352 4.035,1.429 7.801,2.148 11.285,2.148 z m -30.364,-34.183 c -0.582,-4.399 -0.883,-7.95 -0.883,-10.649 0,-3.117 0.583,-6.515 1.735,-10.183 1.164,-3.649 2.883,-6.567 5.164,-8.719 1.648,-1.516 3.668,-2.281 6.051,-2.281 2.832,0 5.367,1.332 7.582,4 2.234,2.668 3.351,6.48 3.351,11.429 0,5.571 -1.097,10.387 -3.316,14.453 -2.215,4.067 -5.352,6.102 -9.434,6.102 -1.234,0 -2.55,-0.27 -3.968,-0.785 -1.415,-0.52 -3.516,-1.653 -6.282,-3.367" /><path
         id="path32"
         style="fill:#231f20;fill-opacity:1;fill-rule:nonzero;stroke:none"
         d="m 734.102,228.957 h 35.484 V 227.09 L 747.52,161.375 h -5.465 l 19.781,59.613 h -18.215 c -3.683,0 -6.301,-0.429 -7.867,-1.312 -2.734,-1.5 -4.934,-3.805 -6.582,-6.934 l -1.418,0.531 6.348,15.684" /><path
         id="path34"
         style="fill:#231f20;fill-opacity:1;fill-rule:nonzero;stroke:none"
         d="m 718.852,230.324 v -1.816 c -4.282,-0.418 -7.797,-1.27 -10.516,-2.567 -2.715,-1.285 -5.398,-3.234 -8.051,-5.882 -2.644,-2.637 -4.847,-5.571 -6.597,-8.801 -1.731,-3.25 -3.2,-7.102 -4.368,-11.551 4.684,3.219 9.383,4.832 14.118,4.832 4.515,0 8.449,-1.832 11.765,-5.465 3.317,-3.648 4.985,-8.332 4.985,-14.066 0,-5.535 -1.684,-10.582 -5.036,-15.137 -4.031,-5.531 -9.382,-8.297 -16.015,-8.297 -4.532,0 -8.367,1.5 -11.532,4.485 -6.183,5.832 -9.265,13.382 -9.265,22.664 0,5.918 1.18,11.55 3.562,16.886 2.368,5.348 5.77,10.082 10.188,14.215 4.398,4.133 8.629,6.918 12.664,8.352 4.035,1.429 7.801,2.148 11.285,2.148 z m -30.364,-34.183 c -0.582,-4.399 -0.883,-7.95 -0.883,-10.649 0,-3.117 0.583,-6.515 1.735,-10.183 1.164,-3.649 2.883,-6.567 5.164,-8.719 1.648,-1.516 3.668,-2.281 6.051,-2.281 2.832,0 5.367,1.332 7.582,4 2.234,2.668 3.351,6.48 3.351,11.429 0,5.571 -1.097,10.387 -3.316,14.453 -2.215,4.067 -5.352,6.102 -9.434,6.102 -1.234,0 -2.55,-0.27 -3.968,-0.785 -1.415,-0.52 -3.516,-1.653 -6.282,-3.367" /><path
         id="path36"
         style="fill:#231f20;fill-opacity:1;fill-rule:nonzero;stroke:none"
         d="m 734.102,228.957 h 35.484 V 227.09 L 747.52,161.375 h -5.465 l 19.781,59.613 h -18.215 c -3.683,0 -6.301,-0.429 -7.867,-1.312 -2.734,-1.5 -4.934,-3.805 -6.582,-6.934 l -1.418,0.531 6.348,15.684" /><path
         id="path38"
         style="fill:#231f20;fill-opacity:1;fill-rule:nonzero;stroke:none"
         d="m 574.422,431.238 c 1.887,4.45 4.266,7.899 7.152,10.317 2.883,2.433 6.465,3.648 10.766,3.648 5.301,0 9.367,-1.73 12.199,-5.183 2.149,-2.567 3.234,-5.317 3.234,-8.25 0,-4.817 -3.035,-9.797 -9.082,-14.93 4.067,-1.602 7.133,-3.887 9.215,-6.852 2.086,-2.949 3.133,-6.433 3.133,-10.449 0,-5.719 -1.816,-10.684 -5.469,-14.887 -4.746,-5.464 -11.632,-8.199 -20.648,-8.199 -4.465,0 -7.496,0.551 -9.117,1.652 -1.598,1.114 -2.414,2.301 -2.414,3.567 0,0.949 0.382,1.785 1.148,2.5 0.77,0.719 1.684,1.066 2.766,1.066 0.804,0 1.636,-0.133 2.488,-0.383 0.547,-0.167 1.797,-0.769 3.762,-1.781 1.953,-1.035 3.304,-1.636 4.05,-1.836 1.2,-0.367 2.485,-0.531 3.852,-0.531 3.316,0 6.215,1.281 8.668,3.848 2.465,2.566 3.68,5.617 3.68,9.133 0,2.566 -0.567,5.082 -1.7,7.519 -0.847,1.816 -1.781,3.199 -2.781,4.148 -1.398,1.297 -3.32,2.485 -5.769,3.532 -2.43,1.07 -4.93,1.601 -7.465,1.601 h -1.567 v 1.465 c 2.567,0.32 5.149,1.25 7.735,2.785 2.597,1.516 4.48,3.367 5.648,5.516 1.168,2.152 1.75,4.5 1.75,7.066 0,3.368 -1.047,6.067 -3.148,8.133 -2.102,2.07 -4.699,3.102 -7.836,3.102 -5.047,0 -9.25,-2.7 -12.649,-8.098 l -1.601,0.781" /><path
         id="path40"
         style="fill:#231f20;fill-opacity:1;fill-rule:nonzero;stroke:none"
         d="m 665.188,390.371 -4.633,-12.75 h -39.067 v 1.801 c 11.485,10.48 19.586,19.047 24.266,25.683 4.684,6.649 7.035,12.715 7.035,18.215 0,4.203 -1.281,7.653 -3.867,10.352 -2.567,2.699 -5.633,4.047 -9.215,4.047 -3.266,0 -6.184,-0.949 -8.769,-2.848 -2.583,-1.902 -4.497,-4.699 -5.731,-8.367 h -1.816 c 0.816,6.019 2.898,10.633 6.281,13.867 3.367,3.219 7.566,4.832 12.617,4.832 5.367,0 9.852,-1.73 13.449,-5.183 3.602,-3.45 5.403,-7.516 5.403,-12.2 0,-3.347 -0.786,-6.715 -2.352,-10.066 -2.402,-5.266 -6.316,-10.848 -11.715,-16.75 -8.101,-8.848 -13.168,-14.18 -15.187,-16.016 h 17.289 c 3.512,0 5.98,0.133 7.394,0.399 1.418,0.25 2.703,0.785 3.836,1.582 1.133,0.804 2.133,1.937 2.985,3.402 h 1.797" /><path
         id="path42"
         style="fill:none;stroke:#231f20;stroke-width:5.00029993;stroke-linecap:butt;stroke-linejoin:miter;stroke-miterlimit:2.61310005;stroke-dasharray:none;stroke-opacity:1"
         d="m 680.684,468.82 c 7.828,0 14.175,-6.347 14.175,-14.172 0,-7.828 -6.347,-14.175 -14.175,-14.175 -7.825,0 -14.172,6.347 -14.172,14.175 0,7.825 6.347,14.172 14.172,14.172 z" /><path
         id="path44"
         style="fill:none;stroke:#231f20;stroke-width:5.00029993;stroke-linecap:butt;stroke-linejoin:miter;stroke-miterlimit:2.61310005;stroke-dasharray:none;stroke-opacity:1"
         d="m 793.555,255.598 c 7.828,0 14.172,-6.348 14.172,-14.172 0,-7.828 -6.344,-14.172 -14.172,-14.172 -7.825,0 -14.172,6.344 -14.172,14.172 0,7.824 6.347,14.172 14.172,14.172 z" /><path
         id="path46"
         style="fill:none;stroke:#231f20;stroke-width:5.00029993;stroke-linecap:butt;stroke-linejoin:miter;stroke-miterlimit:2.61310005;stroke-dasharray:none;stroke-opacity:1"
         d="M 681.691,518.328 C 685.715,491.102 699.82,477.992 724,478.996" /><path
         id="path48"
         style="fill:none;stroke:#231f20;stroke-width:5.00029993;stroke-linecap:butt;stroke-linejoin:miter;stroke-miterlimit:2.61310005;stroke-dasharray:none;stroke-opacity:1"
         d="m 593.035,164.285 c 31.438,-10.871 45.035,-31.055 40.774,-60.558" /></g></g></svg>