<?xml version="1.0" encoding="UTF-8" standalone="no"?>
<svg
   xmlns:dc="http://purl.org/dc/elements/1.1/"
   xmlns:cc="http://creativecommons.org/ns#"
   xmlns:rdf="http://www.w3.org/1999/02/22-rdf-syntax-ns#"
   xmlns:svg="http://www.w3.org/2000/svg"
   xmlns="http://www.w3.org/2000/svg"
   viewBox="0 0 78.666664 116"
   height="116"
   width="78.666664"
   xml:space="preserve"
   id="svg2"
   version="1.1"><metadata
     id="metadata8"><rdf:RDF><cc:Work
         rdf:about=""><dc:format>image/svg+xml</dc:format><dc:type
           rdf:resource="http://purl.org/dc/dcmitype/StillImage" /></cc:Work></rdf:RDF></metadata><defs
     id="defs6" /><g
     transform="matrix(1.3333333,0,0,-1.3333333,0,116)"
     id="g10"><g
       transform="scale(0.1)"
       id="g12"><path
         id="path14"
         style="fill:#231f20;fill-opacity:1;fill-rule:nonzero;stroke:none"
         d="m 507.871,158.676 0.684,1.816 h 23.633 c 3.964,0 7.496,-0.617 10.617,-1.867 3.101,-1.234 5.433,-2.949 6.984,-5.168 1.547,-2.215 2.316,-4.566 2.316,-7.035 0,-3.813 -1.386,-7.246 -4.132,-10.332 -2.754,-3.067 -7.235,-5.348 -13.453,-6.801 4.019,-1.496 6.953,-3.48 8.851,-5.965 1.883,-2.465 2.832,-5.183 2.832,-8.148 0,-3.285 -0.848,-6.434 -2.551,-9.434 -1.683,-2.984 -3.863,-5.316 -6.515,-6.9647 -2.649,-1.6679 -5.852,-2.8867 -9.602,-3.6679 -2.668,-0.5508 -6.832,-0.836 -12.5,-0.836 h -24.262 l 0.629,1.8008 c 2.551,0.0703 4.266,0.3164 5.188,0.7344 1.297,0.5664 2.23,1.2969 2.781,2.1992 0.781,1.2342 1.817,4.0662 3.117,8.5002 l 11.864,40.082 c 1.019,3.387 1.515,5.765 1.515,7.137 0,1.199 -0.445,2.148 -1.332,2.847 -0.898,0.699 -2.597,1.051 -5.113,1.051 -0.551,0 -1.067,0.016 -1.551,0.051 z m 9.899,-27.485 c 2.117,-0.066 3.648,-0.101 4.597,-0.101 6.77,0 11.801,1.469 15.117,4.418 3.301,2.949 4.954,6.633 4.954,11.066 0,3.348 -1.016,5.965 -3.036,7.832 -2.015,1.867 -5.234,2.801 -9.668,2.801 -1.164,0 -2.664,-0.184 -4.48,-0.582 z m -9.618,-32.6168 c 3.52,-0.4687 6.27,-0.6836 8.254,-0.6836 5.082,0 9.578,1.5352 13.496,4.5864 3.934,3.066 5.887,7.214 5.887,12.449 0,4 -1.203,7.133 -3.637,9.383 -2.418,2.25 -6.332,3.367 -11.73,3.367 -1.051,0 -2.32,-0.051 -3.82,-0.153 l -8.45,-28.9488" /><path
         id="path16"
         style="fill:#231f20;fill-opacity:1;fill-rule:nonzero;stroke:none"
         d="m 62.0586,155.141 -5.0352,-55.063 c -0.2656,-2.5858 -0.3828,-4.2694 -0.3828,-5.0858 0,-1.2969 0.2344,-2.3008 0.7344,-2.9844 0.6172,-0.9297 1.4492,-1.6289 2.5,-2.0976 1.0664,-0.4532 2.8516,-0.6836 5.3516,-0.6836 L 64.6914,87.4258 H 38.625 l 0.5312,1.8008 h 1.1172 c 2.1172,0 3.8555,0.4687 5.1875,1.3672 0.9297,0.6328 1.6641,1.6484 2.1993,3.082 0.3476,1.0195 0.6992,3.3828 1.0156,7.1332 l 0.7851,8.402 H 30.5117 l -6.7383,-9.133 c -1.5312,-2.0546 -2.4804,-3.535 -2.8828,-4.4178 -0.3828,-0.9024 -0.582,-1.7344 -0.582,-2.5157 0,-1.0507 0.418,-1.9336 1.2656,-2.6836 0.8516,-0.75 2.25,-1.1679 4.2031,-1.2343 L 25.2422,87.4258 H 5.66016 l 0.53125,1.8008 c 2.41797,0.0976 4.53519,0.914 6.38279,2.4179 1.836,1.5157 4.5664,4.7461 8.2188,9.6995 l 39.5468,53.797 z m -9.6641,-16.25 -19.2031,-26.114 h 16.6524 l 2.5507,26.114" /><path
         id="path18"
         style="fill:#231f20;fill-opacity:1;fill-rule:nonzero;stroke:none"
         d="m 522.289,868.715 -4.934,-21.434 h -1.769 l -0.18,5.383 c -0.168,1.949 -0.551,3.684 -1.133,5.215 -0.585,1.535 -1.468,2.851 -2.632,3.984 -1.168,1.117 -2.653,2 -4.453,2.637 -1.782,0.629 -3.766,0.949 -5.95,0.949 -5.832,0 -10.914,-1.601 -15.285,-4.785 -5.566,-4.066 -9.93,-9.816 -13.078,-17.234 -2.602,-6.118 -3.918,-12.317 -3.918,-18.598 0,-6.418 1.883,-11.535 5.613,-15.367 3.75,-3.82 8.618,-5.735 14.602,-5.735 4.531,0 8.566,1.016 12.086,3.032 3.531,2.019 6.816,5.117 9.847,9.32 h 2.282 c -3.567,-5.703 -7.547,-9.887 -11.899,-12.566 -4.363,-2.684 -9.601,-4.036 -15.683,-4.036 -5.399,0 -10.184,1.133 -14.348,3.399 -4.168,2.269 -7.352,5.433 -9.516,9.551 -2.187,4.101 -3.285,8.5 -3.285,13.234 0,7.219 1.949,14.25 5.817,21.082 3.863,6.832 9.183,12.215 15.933,16.117 6.766,3.899 13.567,5.852 20.449,5.852 3.215,0 6.833,-0.75 10.833,-2.285 1.75,-0.653 3.035,-0.981 3.8,-0.981 0.782,0 1.465,0.164 2.067,0.481 0.586,0.336 1.55,1.265 2.918,2.785 h 1.816" /><path
         id="path20"
         style="fill:none;stroke:#231f20;stroke-width:7.5005002;stroke-linecap:butt;stroke-linejoin:miter;stroke-miterlimit:2.61310005;stroke-dasharray:none;stroke-opacity:1"
         d="M 475.582,114.062 V 780.535" /><path
         id="path22"
         style="fill:none;stroke:#231f20;stroke-width:7.5005002;stroke-linecap:butt;stroke-linejoin:miter;stroke-miterlimit:2.61310005;stroke-dasharray:none;stroke-opacity:1"
         d="M 284.672,447.914 471.926,116.504" /><path
         id="path24"
         style="fill:none;stroke:#231f20;stroke-width:7.5005002;stroke-linecap:butt;stroke-linejoin:miter;stroke-miterlimit:2.61310005;stroke-dasharray:none;stroke-opacity:1"
         d="M 475.75,781.379 96.1055,118.441" /><path
         id="path26"
         style="fill:none;stroke:#231f20;stroke-width:7.5005002;stroke-linecap:butt;stroke-linejoin:miter;stroke-miterlimit:2.61310005;stroke-dasharray:none;stroke-opacity:1"
         d="M 471.918,118.516 H 93.8438" /><path
         id="path28"
         style="fill:#231f20;fill-opacity:1;fill-rule:nonzero;stroke:none"
         d="m 255.074,65.3086 16.117,7.8672 h 1.618 V 17.2617 c 0,-3.7031 0.148,-6.0195 0.449,-6.9336 0.316,-0.90232 0.965,-1.60154 1.933,-2.10154 0.985,-0.48437 2.969,-0.76562 5.965,-0.83203 V 5.59375 h -24.914 v 1.80078 c 3.133,0.06641 5.149,0.33203 6.067,0.81641 0.898,0.46484 1.531,1.09765 1.898,1.89846 0.352,0.8008 0.535,3.1836 0.535,7.1523 v 35.75 c 0,4.8125 -0.168,7.8985 -0.484,9.2656 -0.235,1.0469 -0.649,1.8165 -1.25,2.2969 -0.602,0.4844 -1.317,0.7344 -2.164,0.7344 -1.203,0 -2.883,-0.5 -5.035,-1.5156 l -0.735,1.5156" /><path
         id="path30"
         style="fill:#231f20;fill-opacity:1;fill-rule:nonzero;stroke:none"
         d="M 339.207,18.3438 334.574,5.59375 h -39.066 v 1.80078 c 11.484,10.48047 19.582,19.04687 24.265,25.68357 4.684,6.6485 7.032,12.7149 7.032,18.2149 0,4.1992 -1.282,7.6484 -3.867,10.3476 -2.563,2.7032 -5.629,4.0508 -9.215,4.0508 -3.266,0 -6.18,-0.9492 -8.766,-2.8476 -2.582,-1.9024 -4.5,-4.6993 -5.73,-8.3672 h -1.821 c 0.817,6.0156 2.903,10.6328 6.285,13.8672 3.368,3.2148 7.567,4.832 12.614,4.832 5.371,0 9.851,-1.7305 13.453,-5.1836 3.597,-3.4492 5.398,-7.5156 5.398,-12.1992 0,-3.3516 -0.781,-6.7188 -2.347,-10.0664 C 330.406,40.457 326.492,34.8789 321.09,28.9766 312.988,20.125 307.926,14.793 305.906,12.9609 h 17.285 c 3.516,0 5.981,0.1329 7.399,0.3985 1.418,0.25 2.703,0.7812 3.832,1.582 1.133,0.8008 2.137,1.9375 2.984,3.4024 h 1.801" /><path
         id="path32"
         style="fill:#231f20;fill-opacity:1;fill-rule:nonzero;stroke:none"
         d="m 503.492,486.852 16.117,7.863 h 1.614 v -55.914 c 0,-3.703 0.152,-6.02 0.453,-6.934 0.316,-0.902 0.965,-1.601 1.933,-2.101 0.981,-0.485 2.965,-0.766 5.965,-0.832 v -1.801 h -24.918 v 1.801 c 3.133,0.066 5.153,0.336 6.067,0.816 0.902,0.469 1.535,1.098 1.902,1.898 0.352,0.801 0.535,3.184 0.535,7.153 v 35.75 c 0,4.816 -0.168,7.898 -0.484,9.265 -0.235,1.051 -0.653,1.817 -1.25,2.301 -0.602,0.485 -1.317,0.735 -2.168,0.735 -1.199,0 -2.883,-0.504 -5.035,-1.52 l -0.731,1.52" /><path
         id="path34"
         style="fill:#231f20;fill-opacity:1;fill-rule:nonzero;stroke:none"
         d="m 586.59,494.715 v -1.817 c -4.285,-0.418 -7.797,-1.265 -10.516,-2.566 -2.715,-1.281 -5.402,-3.234 -8.051,-5.883 -2.648,-2.633 -4.851,-5.566 -6.597,-8.801 -1.735,-3.25 -3.203,-7.097 -4.367,-11.55 4.683,3.218 9.382,4.836 14.117,4.836 4.515,0 8.449,-1.836 11.765,-5.465 3.317,-3.653 4.985,-8.336 4.985,-14.071 0,-5.531 -1.684,-10.582 -5.035,-15.132 -4.036,-5.536 -9.383,-8.301 -16.016,-8.301 -4.531,0 -8.367,1.504 -11.535,4.484 -6.18,5.836 -9.266,13.383 -9.266,22.664 0,5.922 1.184,11.555 3.567,16.887 2.367,5.352 5.769,10.082 10.183,14.215 4.399,4.133 8.633,6.918 12.664,8.351 4.035,1.434 7.801,2.149 11.285,2.149 z m -30.363,-34.18 c -0.586,-4.402 -0.887,-7.953 -0.887,-10.652 0,-3.117 0.586,-6.516 1.734,-10.184 1.168,-3.648 2.883,-6.566 5.168,-8.715 1.649,-1.519 3.668,-2.285 6.051,-2.285 2.832,0 5.363,1.332 7.582,4 2.234,2.668 3.352,6.485 3.352,11.434 0,5.566 -1.102,10.383 -3.317,14.449 -2.219,4.07 -5.351,6.102 -9.433,6.102 -1.235,0 -2.551,-0.266 -3.969,-0.782 -1.414,-0.519 -3.516,-1.652 -6.281,-3.367" /><path
         id="path36"
         style="fill:none;stroke:#231f20;stroke-width:7.5005002;stroke-linecap:butt;stroke-linejoin:miter;stroke-miterlimit:2.61310005;stroke-dasharray:none;stroke-opacity:1"
         d="m 162.34,293.402 50.363,-28.597" /><path
         id="path38"
         style="fill:none;stroke:#231f20;stroke-width:7.5005002;stroke-linecap:butt;stroke-linejoin:miter;stroke-miterlimit:2.61310005;stroke-dasharray:none;stroke-opacity:1"
         d="m 343.496,606.461 50.367,-28.594" /><path
         id="path40"
         style="fill:none;stroke:#231f20;stroke-width:5.00029993;stroke-linecap:butt;stroke-linejoin:miter;stroke-miterlimit:2.61310005;stroke-dasharray:none;stroke-opacity:1"
         d="m 325.809,517.441 c 15.023,-44.32 13.019,-88.14 -6.008,-131.461" /><path
         id="path42"
         style="fill:#231f20;fill-opacity:1;fill-rule:nonzero;stroke:none"
         d="m 208.113,496.277 6.117,-53.332 38.418,53.332 h 16.168 v -1.816 c -3.519,-0.215 -5.586,-0.449 -6.203,-0.684 -1.082,-0.418 -2.066,-1.265 -2.949,-2.535 -0.898,-1.265 -1.863,-3.715 -2.918,-7.332 L 244.5,441.926 c -0.719,-2.449 -1.07,-4.364 -1.07,-5.766 0,-1.265 0.433,-2.23 1.32,-2.883 1.23,-0.929 3.184,-1.418 5.848,-1.418 h 1.183 l -0.449,-1.797 h -27.883 l 0.5,1.797 h 1.317 c 2.468,0 4.347,0.368 5.668,1.086 0.996,0.516 1.898,1.5 2.699,2.95 0.797,1.449 1.914,4.667 3.347,9.648 l 10.934,38.367 -38.613,-53.848 h -1.953 l -6.215,53.848 -11.817,-40.965 c -1,-3.484 -1.5,-5.816 -1.5,-7.015 0,-1.219 0.434,-2.137 1.317,-2.766 0.867,-0.637 3,-1.07 6.398,-1.305 l -0.551,-1.797 h -21.812 l 0.531,1.797 h 1.317 c 3.214,0 5.55,0.817 6.984,2.45 1.031,1.168 2.129,3.718 3.266,7.617 l 14.414,49.367 c -1.082,1.102 -2.098,1.852 -3.082,2.254 -0.985,0.379 -2.786,0.699 -5.414,0.914 l 0.48,1.816 h 16.449" /></g></g></svg>