<?xml version="1.0" encoding="UTF-8" standalone="no"?>
<svg
   xmlns:dc="http://purl.org/dc/elements/1.1/"
   xmlns:cc="http://creativecommons.org/ns#"
   xmlns:rdf="http://www.w3.org/1999/02/22-rdf-syntax-ns#"
   xmlns:svg="http://www.w3.org/2000/svg"
   xmlns="http://www.w3.org/2000/svg"
   viewBox="0 0 228 158.66667"
   height="158.66667"
   width="228"
   xml:space="preserve"
   id="svg2"
   version="1.1"><metadata
     id="metadata8"><rdf:RDF><cc:Work
         rdf:about=""><dc:format>image/svg+xml</dc:format><dc:type
           rdf:resource="http://purl.org/dc/dcmitype/StillImage" /></cc:Work></rdf:RDF></metadata><defs
     id="defs6" /><g
     transform="matrix(1.3333333,0,0,-1.3333333,0,158.66667)"
     id="g10"><g
       transform="scale(0.1)"
       id="g12"><path
         id="path14"
         style="fill:#231f20;fill-opacity:1;fill-rule:nonzero;stroke:none"
         d="m 1643.45,1180.66 0.61,1.91 h 22.21 c 9.39,0 16.35,-1.08 20.87,-3.23 4.53,-2.16 8.16,-5.55 10.85,-10.17 2.69,-4.64 4.06,-9.61 4.06,-14.91 0,-4.53 -0.79,-8.96 -2.35,-13.25 -1.55,-4.29 -3.3,-7.72 -5.28,-10.31 -1.96,-2.57 -4.97,-5.42 -9.05,-8.54 -4.06,-3.09 -8.47,-5.4 -13.21,-6.89 -4.76,-1.49 -10.69,-2.22 -17.8,-2.22 h -29.43 l 0.67,1.89 c 2.7,0.06 4.51,0.31 5.44,0.72 1.36,0.59 2.38,1.38 3.03,2.36 0.97,1.43 2.09,4.32 3.32,8.66 l 12.3,42.05 c 0.96,3.31 1.44,5.91 1.44,7.79 0,1.33 -0.44,2.36 -1.34,3.08 -0.88,0.72 -2.62,1.06 -5.22,1.06 z m 18.19,-1.94 -15.06,-52.04 c -1.14,-3.88 -1.7,-6.3 -1.7,-7.23 0,-0.54 0.17,-1.07 0.54,-1.59 0.35,-0.51 0.84,-0.84 1.46,-1.02 0.89,-0.31 2.32,-0.47 4.3,-0.47 5.37,0 10.36,0.56 14.94,1.68 4.61,1.11 8.37,2.75 11.31,4.94 4.18,3.18 7.5,7.56 10.01,13.12 2.48,5.59 3.72,11.92 3.72,19.02 0,8.03 -1.9,14.02 -5.73,17.92 -3.82,3.92 -9.42,5.88 -16.77,5.88 -1.8,0 -4.15,-0.07 -7.02,-0.21" /><path
         id="path16"
         style="fill:#231f20;fill-opacity:1;fill-rule:nonzero;stroke:none"
         d="m 1002.18,509.605 0.71,1.911 h 24.82 c 4.16,0 7.87,-0.649 11.15,-1.961 3.25,-1.293 5.7,-3.098 7.33,-5.426 1.63,-2.328 2.43,-4.793 2.43,-7.383 0,-4.008 -1.45,-7.613 -4.34,-10.851 -2.89,-3.219 -7.59,-5.614 -14.12,-7.137 4.22,-1.578 7.3,-3.66 9.29,-6.27 1.98,-2.586 2.98,-5.441 2.98,-8.554 0,-3.45 -0.9,-6.754 -2.68,-9.907 -1.77,-3.132 -4.06,-5.582 -6.84,-7.312 -2.79,-1.75 -6.14,-3.027 -10.08,-3.848 -2.8,-0.578 -7.18,-0.879 -13.13,-0.879 h -25.477 l 0.668,1.891 c 2.675,0.07 4.476,0.332 5.441,0.769 1.363,0.594 2.344,1.368 2.922,2.309 0.824,1.297 1.906,4.273 3.269,8.93 l 12.457,42.082 c 1.07,3.554 1.6,6.054 1.6,7.492 0,1.258 -0.47,2.258 -1.4,2.992 -0.95,0.735 -2.73,1.102 -5.38,1.102 -0.57,0 -1.12,0.019 -1.62,0.05 z m 10.39,-28.855 c 2.22,-0.066 3.84,-0.105 4.83,-0.105 7.1,0 12.39,1.543 15.87,4.636 3.47,3.098 5.2,6.965 5.2,11.621 0,3.516 -1.07,6.266 -3.18,8.227 -2.12,1.957 -5.5,2.937 -10.15,2.937 -1.23,0 -2.8,-0.191 -4.71,-0.613 z m -10.09,-34.246 c 3.69,-0.488 6.57,-0.715 8.66,-0.715 5.34,0 10.06,1.609 14.17,4.809 4.13,3.222 6.18,7.578 6.18,13.074 0,4.199 -1.26,7.488 -3.81,9.851 -2.54,2.364 -6.66,3.536 -12.32,3.536 -1.11,0 -2.44,-0.055 -4.01,-0.157 l -8.87,-30.398" /><path
         id="path18"
         style="fill:#231f20;fill-opacity:1;fill-rule:nonzero;stroke:none"
         d="m 544.898,77.043 -5.183,-22.5039 h -1.852 l -0.195,5.6523 c -0.176,2.0469 -0.578,3.8672 -1.188,5.4766 -0.613,1.6093 -1.542,2.9922 -2.765,4.1836 -1.223,1.1679 -2.785,2.0976 -4.676,2.7617 -1.871,0.6679 -3.953,1 -6.246,1 -6.121,0 -11.461,-1.6836 -16.047,-5.0235 -5.844,-4.2695 -10.43,-10.3086 -13.734,-18.0937 -2.731,-6.4219 -4.114,-12.9297 -4.114,-19.5313 0,-6.7382 1.977,-12.1093 5.899,-16.1328 3.937,-4.0078 9.043,-6.02341 15.328,-6.02341 4.758,0 8.996,1.07032 12.687,3.18751 3.708,2.1172 7.157,5.3711 10.34,9.7812 h 2.399 C 531.809,15.793 527.625,11.4023 523.059,8.58203 518.473,5.76562 512.977,4.34766 506.59,4.34766 c -5.668,0 -10.692,1.1914 -15.067,3.57422 -4.375,2.37502 -7.718,5.70312 -9.992,10.02342 -2.293,4.3086 -3.449,8.9258 -3.449,13.8945 0,7.5782 2.047,14.961 6.109,22.1368 4.059,7.1757 9.641,12.8281 16.731,16.9218 7.101,4.0977 14.242,6.1446 21.469,6.1446 3.379,0 7.175,-0.7891 11.375,-2.3985 1.836,-0.6836 3.187,-1.0312 3.992,-1.0312 0.82,0 1.539,0.1758 2.168,0.5078 0.613,0.3477 1.625,1.3281 3.062,2.9219 h 1.91" /><path
         id="path20"
         style="fill:#231f20;fill-opacity:1;fill-rule:nonzero;stroke:none"
         d="m 549.355,1177.57 -5.281,-57.81 c -0.281,-2.71 -0.402,-4.48 -0.402,-5.34 0,-1.37 0.242,-2.41 0.769,-3.13 0.645,-0.98 1.524,-1.72 2.625,-2.21 1.122,-0.47 2.993,-0.71 5.614,-0.71 l -0.555,-1.89 h -27.371 l 0.558,1.89 h 1.176 c 2.223,0 4.039,0.49 5.438,1.43 0.98,0.67 1.754,1.73 2.312,3.24 0.367,1.07 0.735,3.55 1.067,7.49 l 0.824,8.82 H 516.23 l -7.07,-9.59 c -1.609,-2.15 -2.605,-3.71 -3.027,-4.64 -0.403,-0.94 -0.61,-1.82 -0.61,-2.64 0,-1.1 0.434,-2.03 1.329,-2.82 0.894,-0.78 2.363,-1.23 4.41,-1.29 l -0.563,-1.89 h -20.558 l 0.558,1.89 c 2.539,0.1 4.762,0.96 6.703,2.53 1.922,1.6 4.797,4.99 8.629,10.19 l 41.524,56.48 z m -10.148,-17.05 -20.156,-27.43 h 17.48 l 2.676,27.43" /><path
         id="path22"
         style="fill:none;stroke:#231f20;stroke-width:7.5005002;stroke-linecap:butt;stroke-linejoin:miter;stroke-miterlimit:2.61310005;stroke-dasharray:none;stroke-opacity:1"
         d="M 956.602,517.105 494.617,1078.23" /><path
         id="path24"
         style="fill:none;stroke:#231f20;stroke-width:7.5005002;stroke-linecap:butt;stroke-linejoin:miter;stroke-miterlimit:2.61310005;stroke-dasharray:none;stroke-opacity:1"
         d="M 1597.91,1102.52 517.398,113.621" /><path
         id="path26"
         style="fill:none;stroke:#231f20;stroke-width:7.5005002;stroke-linecap:butt;stroke-linejoin:miter;stroke-miterlimit:2.61310005;stroke-dasharray:none;stroke-opacity:1"
         d="M 519.609,113.676 494.871,1080.68" /><path
         id="path28"
         style="fill:none;stroke:#231f20;stroke-width:7.5005002;stroke-linecap:butt;stroke-linejoin:miter;stroke-miterlimit:2.61310005;stroke-dasharray:none;stroke-opacity:1"
         d="M 70.7969,353.176 C -64.1719,580.918 11.0703,875.066 238.816,1010.04 466.559,1145 760.707,1069.76 895.676,842.02 1030.64,614.273 955.398,320.129 727.652,185.16 499.906,50.1953 205.762,125.434 70.7969,353.176 Z" /><path
         id="path30"
         style="fill:none;stroke:#231f20;stroke-width:7.5005002;stroke-linecap:butt;stroke-linejoin:miter;stroke-miterlimit:2.61310005;stroke-dasharray:none;stroke-opacity:1"
         d="M 1599.98,1100.9 74.5703,1071.95" /><path
         id="path32"
         style="fill:#231f20;fill-opacity:1;fill-rule:nonzero;stroke:none"
         d="m 519.008,846.152 c 1.98,4.672 4.48,8.293 7.508,10.832 3.027,2.555 6.793,3.836 11.304,3.836 5.567,0 9.836,-1.824 12.809,-5.445 2.262,-2.695 3.398,-5.582 3.398,-8.66 0,-5.059 -3.183,-10.289 -9.539,-15.684 4.27,-1.676 7.492,-4.074 9.676,-7.191 2.188,-3.098 3.293,-6.754 3.293,-10.973 0,-6 -1.91,-11.215 -5.742,-15.625 -4.985,-5.742 -12.215,-8.609 -21.68,-8.609 -4.691,0 -7.875,0.578 -9.574,1.73 -1.68,1.176 -2.535,2.418 -2.535,3.746 0,0.996 0.402,1.875 1.207,2.625 0.805,0.754 1.765,1.121 2.902,1.121 0.84,0 1.715,-0.14 2.61,-0.406 0.578,-0.172 1.89,-0.804 3.953,-1.867 2.047,-1.086 3.464,-1.715 4.254,-1.926 1.261,-0.386 2.605,-0.562 4.043,-0.562 3.48,0 6.527,1.347 9.097,4.043 2.59,2.695 3.871,5.898 3.871,9.59 0,2.695 -0.597,5.335 -1.789,7.894 -0.89,1.902 -1.871,3.359 -2.922,4.356 -1.468,1.363 -3.48,2.609 -6.054,3.707 -2.555,1.125 -5.18,1.683 -7.84,1.683 h -1.645 v 1.539 c 2.696,0.332 5.41,1.313 8.121,2.922 2.731,1.594 4.707,3.535 5.93,5.793 1.227,2.258 1.84,4.727 1.84,7.418 0,3.535 -1.102,6.371 -3.309,8.539 -2.203,2.172 -4.933,3.258 -8.226,3.258 -5.301,0 -9.711,-2.836 -13.278,-8.504 l -1.683,0.82" /><path
         id="path34"
         style="fill:#231f20;fill-opacity:1;fill-rule:nonzero;stroke:none"
         d="m 586.312,824.871 c -5.496,4.516 -9.05,8.141 -10.64,10.871 -1.574,2.727 -2.379,5.563 -2.379,8.504 0,4.516 1.75,8.399 5.23,11.672 3.481,3.254 8.122,4.902 13.895,4.902 5.602,0 10.117,-1.527 13.527,-4.57 3.43,-3.047 5.125,-6.508 5.125,-10.414 0,-2.59 -0.91,-5.246 -2.761,-7.945 -1.836,-2.692 -5.692,-5.879 -11.536,-9.536 6.02,-4.636 9.997,-8.296 11.954,-10.972 2.589,-3.485 3.882,-7.156 3.882,-11.024 0,-4.882 -1.851,-9.062 -5.578,-12.531 -3.73,-3.465 -8.609,-5.195 -14.664,-5.195 -6.601,0 -11.746,2.062 -15.433,6.195 -2.942,3.324 -4.414,6.945 -4.414,10.867 0,3.078 1.035,6.125 3.117,9.153 2.062,3.027 5.617,6.367 10.675,10.023 z m 8.051,5.477 c 4.11,3.695 6.699,6.617 7.801,8.754 1.086,2.132 1.629,4.546 1.629,7.261 0,3.586 -1,6.387 -3.012,8.418 -2.027,2.047 -4.777,3.063 -8.258,3.063 -3.48,0 -6.316,-1.016 -8.503,-3.028 -2.192,-2.015 -3.293,-4.375 -3.293,-7.07 0,-1.785 0.457,-3.551 1.367,-5.34 0.894,-1.785 2.187,-3.461 3.867,-5.074 z m -5.636,-7.418 c -2.836,-2.395 -4.934,-5.004 -6.301,-7.821 -1.364,-2.82 -2.047,-5.879 -2.047,-9.152 0,-4.41 1.191,-7.945 3.605,-10.586 2.414,-2.644 5.477,-3.976 9.204,-3.976 3.691,0 6.652,1.035 8.871,3.132 2.222,2.086 3.328,4.606 3.328,7.578 0,2.469 -0.649,4.676 -1.942,6.618 -2.437,3.621 -7.336,8.363 -14.718,14.207" /><path
         id="path36"
         style="fill:none;stroke:#231f20;stroke-width:5.00029993;stroke-linecap:butt;stroke-linejoin:miter;stroke-miterlimit:2.61310005;stroke-dasharray:none;stroke-opacity:1"
         d="m 620.398,891.984 c 9.215,0 16.684,-7.808 16.684,-17.437 0,-9.633 -7.469,-17.442 -16.684,-17.442 -9.21,0 -16.679,7.809 -16.679,17.442 0,9.629 7.469,17.437 16.679,17.437 z" /><path
         id="path38"
         style="fill:#231f20;fill-opacity:1;fill-rule:nonzero;stroke:none"
         d="m 748.309,467.027 v 1.891 c 4.445,0.07 8.593,1.102 12.41,3.113 3.832,1.996 7.543,5.496 11.109,10.481 3.57,4.992 6.055,10.468 7.457,16.449 -5.375,-3.445 -10.219,-5.176 -14.558,-5.176 -4.887,0 -9.082,1.891 -12.567,5.668 -3.484,3.781 -5.234,8.785 -5.234,15.051 0,6.09 1.75,11.496 5.234,16.258 4.199,5.773 9.695,8.664 16.465,8.664 5.707,0 10.586,-2.367 14.648,-7.09 5.004,-5.848 7.493,-13.055 7.493,-21.629 0,-7.719 -1.895,-14.926 -5.692,-21.613 -3.797,-6.684 -9.082,-12.231 -15.836,-16.625 -5.511,-3.637 -11.496,-5.442 -18.008,-5.442 z m 31.796,35.735 c 0.614,4.445 0.926,7.996 0.926,10.656 0,3.328 -0.574,6.894 -1.695,10.746 -1.137,3.848 -2.731,6.789 -4.793,8.836 -2.066,2.062 -4.414,3.078 -7.055,3.078 -3.043,0 -5.707,-1.363 -7.996,-4.094 -2.293,-2.726 -3.43,-6.808 -3.43,-12.195 0,-7.211 1.524,-12.863 4.567,-16.922 2.207,-2.941 4.953,-4.41 8.187,-4.41 1.579,0 3.45,0.367 5.602,1.117 2.152,0.754 4.043,1.824 5.687,3.188" /><path
         id="path40"
         style="fill:#231f20;fill-opacity:1;fill-rule:nonzero;stroke:none"
         d="m 800.613,524.758 c 1.981,4.672 4.481,8.293 7.508,10.832 3.027,2.555 6.789,3.836 11.305,3.836 5.566,0 9.836,-1.824 12.808,-5.446 2.258,-2.695 3.395,-5.582 3.395,-8.66 0,-5.058 -3.184,-10.289 -9.535,-15.683 4.269,-1.676 7.488,-4.075 9.676,-7.192 2.187,-3.097 3.289,-6.754 3.289,-10.972 0,-6 -1.907,-11.215 -5.739,-15.625 -4.988,-5.743 -12.215,-8.61 -21.683,-8.61 -4.688,0 -7.875,0.578 -9.571,1.731 -1.679,1.176 -2.539,2.418 -2.539,3.746 0,0.996 0.403,1.875 1.207,2.625 0.805,0.754 1.77,1.117 2.907,1.117 0.839,0 1.714,-0.137 2.609,-0.402 0.578,-0.172 1.891,-0.805 3.953,-1.867 2.047,-1.086 3.465,-1.719 4.254,-1.926 1.258,-0.387 2.605,-0.563 4.039,-0.563 3.484,0 6.531,1.348 9.102,4.043 2.59,2.696 3.867,5.899 3.867,9.59 0,2.695 -0.594,5.336 -1.785,7.895 -0.895,1.902 -1.871,3.359 -2.922,4.355 -1.469,1.363 -3.481,2.609 -6.055,3.707 -2.555,1.125 -5.18,1.684 -7.84,1.684 h -1.644 v 1.539 c 2.695,0.332 5.406,1.312 8.121,2.922 2.73,1.593 4.703,3.535 5.93,5.793 1.226,2.257 1.839,4.726 1.839,7.418 0,3.535 -1.101,6.371 -3.308,8.539 -2.207,2.171 -4.934,3.257 -8.227,3.257 -5.301,0 -9.711,-2.836 -13.281,-8.503 l -1.68,0.82" /><path
         id="path42"
         style="fill:none;stroke:#231f20;stroke-width:5.00029993;stroke-linecap:butt;stroke-linejoin:miter;stroke-miterlimit:2.61310005;stroke-dasharray:none;stroke-opacity:1"
         d="m 861.531,575.102 c 9.215,0 16.684,-7.809 16.684,-17.438 0,-9.633 -7.469,-17.441 -16.684,-17.441 -9.211,0 -16.679,7.808 -16.679,17.441 0,9.629 7.468,17.438 16.679,17.438 z" /><path
         id="path44"
         style="fill:none;stroke:#231f20;stroke-width:5.00029993;stroke-linecap:butt;stroke-linejoin:miter;stroke-miterlimit:2.61310005;stroke-dasharray:none;stroke-opacity:1"
         d="M 910.641,569.777 C 879.07,532.148 873.562,494.523 894.105,456.891" /><path
         id="path46"
         style="fill:none;stroke:#231f20;stroke-width:5.00029993;stroke-linecap:butt;stroke-linejoin:miter;stroke-miterlimit:2.61310005;stroke-dasharray:none;stroke-opacity:1"
         d="m 496.461,921.219 c 38.836,-14.301 71.16,-1.008 96.969,39.883" /></g></g></svg>