<?xml version="1.0" encoding="UTF-8" standalone="no"?>
<svg
   xmlns:dc="http://purl.org/dc/elements/1.1/"
   xmlns:cc="http://creativecommons.org/ns#"
   xmlns:rdf="http://www.w3.org/1999/02/22-rdf-syntax-ns#"
   xmlns:svg="http://www.w3.org/2000/svg"
   xmlns="http://www.w3.org/2000/svg"
   viewBox="0 0 122.66667 104"
   height="104"
   width="122.66667"
   xml:space="preserve"
   id="svg2"
   version="1.1"><metadata
     id="metadata8"><rdf:RDF><cc:Work
         rdf:about=""><dc:format>image/svg+xml</dc:format><dc:type
           rdf:resource="http://purl.org/dc/dcmitype/StillImage" /></cc:Work></rdf:RDF></metadata><defs
     id="defs6" /><g
     transform="matrix(1.3333333,0,0,-1.3333333,0,104)"
     id="g10"><g
       transform="scale(0.1)"
       id="g12"><path
         id="path14"
         style="fill:none;stroke:#231f20;stroke-width:7.5005002;stroke-linecap:butt;stroke-linejoin:miter;stroke-miterlimit:2.61310005;stroke-dasharray:none;stroke-opacity:1"
         d="M 83.793,103.309 H 913.098" /><path
         id="path16"
         style="fill:none;stroke:#231f20;stroke-width:7.5005002;stroke-linecap:butt;stroke-linejoin:miter;stroke-miterlimit:2.61310005;stroke-dasharray:none;stroke-opacity:1"
         d="M 84,103.746 670.406,690.152" /><path
         id="path18"
         style="fill:none;stroke:#231f20;stroke-width:7.5005002;stroke-linecap:butt;stroke-linejoin:miter;stroke-miterlimit:2.61310005;stroke-dasharray:none;stroke-opacity:1"
         d="M 419.297,101.289 670.285,692.57" /><path
         id="path20"
         style="fill:none;stroke:#231f20;stroke-width:5.00029993;stroke-linecap:butt;stroke-linejoin:miter;stroke-miterlimit:2.61310005;stroke-dasharray:none;stroke-opacity:1"
         d="m 159.266,176.289 c 28.593,-18.059 38.129,-42.148 28.597,-72.254" /><path
         id="path22"
         style="fill:none;stroke:#231f20;stroke-width:5.00029993;stroke-linecap:butt;stroke-linejoin:miter;stroke-miterlimit:2.61310005;stroke-dasharray:none;stroke-opacity:1"
         d="m 452.777,179.301 c 40.637,-14.051 58.196,-40.141 52.684,-78.274" /><path
         id="path24"
         style="fill:#231f20;fill-opacity:1;fill-rule:nonzero;stroke:none"
         d="m 61.7656,159.711 -5.0351,-55.063 c -0.2657,-2.586 -0.3828,-4.269 -0.3828,-5.0855 0,-1.2969 0.2343,-2.2969 0.7343,-2.9805 0.6172,-0.9336 1.4492,-1.6328 2.5,-2.1015 1.0664,-0.4493 2.8516,-0.6836 5.3516,-0.6836 L 64.3984,91.9961 H 38.332 l 0.5313,1.8008 h 1.1172 c 2.1172,0 3.8554,0.4687 5.1875,1.3672 0.9297,0.6328 1.664,1.6484 2.1992,3.082 0.3476,1.0195 0.6992,3.3829 1.0156,7.1329 l 0.7852,8.402 H 30.2188 l -6.7383,-9.133 C 21.9492,102.594 21,101.113 20.5977,100.23 c -0.3829,-0.898 -0.5821,-1.7339 -0.5821,-2.5152 0,-1.0507 0.418,-1.9336 1.2656,-2.6836 0.8516,-0.75 2.25,-1.1679 4.2032,-1.2343 L 24.9492,91.9961 H 5.36719 l 0.53125,1.8008 c 2.41797,0.0976 4.53516,0.914 6.38276,2.4179 1.836,1.5157 4.5665,4.7502 8.2188,9.6992 l 39.5469,53.797 z m -9.664,-16.25 -19.2032,-26.113 h 16.6524 l 2.5508,26.113" /><path
         id="path26"
         style="fill:#231f20;fill-opacity:1;fill-rule:nonzero;stroke:none"
         d="m 887.031,79.3867 -7.566,-26.1836 h 6.199 c 4.434,0 7.633,0.6836 9.637,2.0352 1.98,1.3476 3.679,3.8476 5.113,7.5 h 1.82 l -6.8,-24.0352 h -1.95 c 0.582,2.0157 0.879,3.75 0.879,5.1836 0,1.4024 -0.281,2.5156 -0.847,3.3672 -0.582,0.8516 -1.352,1.4649 -2.352,1.8828 -0.996,0.3985 -3.082,0.6016 -6.281,0.6016 h -6.285 l -6.399,-21.918 c -0.617,-2.1172 -0.933,-3.7344 -0.933,-4.832 0,-0.8516 0.418,-1.6016 1.214,-2.25 0.567,-0.4531 1.95,-0.6836 4.153,-0.6836 h 5.867 c 6.348,0 11.43,1.1328 15.25,3.3672 3.832,2.25 7.266,6.164 10.281,11.7304 h 1.817 l -6.25,-18.414 h -51.184 l 0.637,1.7969 c 2.547,0.0703 4.25,0.3007 5.133,0.6836 1.296,0.6015 2.246,1.3515 2.832,2.2539 0.882,1.332 1.914,4.1328 3.117,8.3984 l 11.633,39.9492 c 0.898,3.2188 1.367,5.668 1.367,7.3672 0,1.2344 -0.434,2.1992 -1.301,2.8984 -0.867,0.7032 -2.547,1.0508 -5.051,1.0508 h -1.031 l 0.582,1.8164 h 47.566 l -4.101,-15.9687 h -1.817 c 0.235,1.5 0.352,2.75 0.352,3.75 0,1.7383 -0.418,3.1836 -1.266,4.3515 -1.117,1.5 -2.718,2.6329 -4.832,3.418 -1.57,0.582 -5.168,0.8828 -10.8,0.8828 h -8.403" /><path
         id="path28"
         style="fill:#231f20;fill-opacity:1;fill-rule:nonzero;stroke:none"
         d="m 449.391,76.9258 -4.934,-21.4297 h -1.769 l -0.18,5.3828 c -0.168,1.9492 -0.551,3.6797 -1.133,5.2149 -0.586,1.5312 -1.469,2.8515 -2.637,3.9843 -1.168,1.1133 -2.648,2 -4.449,2.6328 -1.781,0.6329 -3.766,0.9493 -5.949,0.9493 -5.832,0 -10.918,-1.6016 -15.285,-4.7852 -5.567,-4.0625 -9.93,-9.8125 -13.082,-17.2305 -2.598,-6.1172 -3.918,-12.3164 -3.918,-18.6015 0,-6.4141 1.883,-11.5313 5.617,-15.3633 3.75,-3.8203 8.617,-5.7344 14.601,-5.7344 4.532,0 8.567,1.0156 12.082,3.0313 3.532,2.0195 6.821,5.1172 9.852,9.3164 h 2.281 c -3.566,-5.6992 -7.547,-9.8828 -11.898,-12.5625 -4.367,-2.68753 -9.602,-4.03519 -15.684,-4.03519 -5.402,0 -10.183,1.13281 -14.351,3.39849 -4.164,2.2656 -7.348,5.4335 -9.516,9.5507 -2.184,4.1016 -3.285,8.5 -3.285,13.2344 0,7.2149 1.953,14.25 5.816,21.082 3.868,6.8321 9.188,12.2149 15.934,16.1172 6.769,3.8985 13.566,5.8477 20.453,5.8477 3.215,0 6.832,-0.7461 10.832,-2.2813 1.75,-0.6523 3.035,-0.9843 3.801,-0.9843 0.781,0 1.465,0.164 2.066,0.4843 0.582,0.3321 1.551,1.2657 2.918,2.7813 h 1.817" /><path
         id="path30"
         style="fill:#231f20;fill-opacity:1;fill-rule:nonzero;stroke:none"
         d="m 657.23,772.023 0.684,1.817 h 23.637 c 3.965,0 7.496,-0.617 10.613,-1.867 3.102,-1.235 5.434,-2.95 6.984,-5.168 1.551,-2.215 2.317,-4.567 2.317,-7.035 0,-3.813 -1.383,-7.247 -4.133,-10.332 -2.75,-3.067 -7.234,-5.348 -13.449,-6.801 4.015,-1.496 6.949,-3.481 8.851,-5.965 1.879,-2.465 2.828,-5.184 2.828,-8.149 0,-3.285 -0.847,-6.433 -2.546,-9.433 -1.684,-2.985 -3.868,-5.317 -6.516,-6.965 -2.652,-1.668 -5.852,-2.887 -9.602,-3.668 -2.668,-0.551 -6.836,-0.836 -12.5,-0.836 h -24.265 l 0.633,1.801 c 2.55,0.07 4.265,0.316 5.183,0.734 1.301,0.567 2.231,1.301 2.785,2.199 0.782,1.235 1.813,4.067 3.114,8.5 l 11.867,40.083 c 1.015,3.386 1.515,5.765 1.515,7.136 0,1.199 -0.445,2.149 -1.332,2.848 -0.898,0.699 -2.597,1.051 -5.117,1.051 -0.547,0 -1.066,0.015 -1.551,0.05 z m 9.903,-27.484 c 2.113,-0.066 3.648,-0.101 4.597,-0.101 6.77,0 11.801,1.468 15.118,4.417 3.3,2.95 4.953,6.633 4.953,11.067 0,3.351 -1.02,5.965 -3.035,7.836 -2.016,1.863 -5.235,2.797 -9.668,2.797 -1.164,0 -2.664,-0.184 -4.481,-0.582 z m -9.617,-32.617 c 3.519,-0.465 6.265,-0.684 8.25,-0.684 5.082,0 9.582,1.535 13.5,4.586 3.933,3.067 5.882,7.215 5.882,12.449 0,4 -1.199,7.133 -3.632,9.383 -2.418,2.25 -6.332,3.367 -11.731,3.367 -1.055,0 -2.32,-0.05 -3.82,-0.152 l -8.449,-28.949" /><path
         id="path32"
         style="fill:#231f20;fill-opacity:1;fill-rule:nonzero;stroke:none"
         d="m 572.852,230.324 v -1.816 c -4.282,-0.418 -7.797,-1.27 -10.516,-2.567 -2.715,-1.285 -5.398,-3.234 -8.051,-5.882 -2.648,-2.637 -4.847,-5.571 -6.597,-8.801 -1.731,-3.25 -3.2,-7.102 -4.368,-11.551 4.684,3.219 9.383,4.832 14.118,4.832 4.515,0 8.449,-1.832 11.765,-5.465 3.317,-3.648 4.985,-8.332 4.985,-14.066 0,-5.535 -1.684,-10.582 -5.036,-15.137 -4.031,-5.531 -9.382,-8.297 -16.015,-8.297 -4.532,0 -8.367,1.5 -11.532,4.485 -6.183,5.832 -9.269,13.382 -9.269,22.664 0,5.918 1.184,11.55 3.566,16.886 2.368,5.348 5.77,10.082 10.188,14.215 4.398,4.133 8.629,6.918 12.664,8.352 4.035,1.429 7.801,2.148 11.285,2.148 z m -30.364,-34.183 c -0.582,-4.399 -0.883,-7.95 -0.883,-10.649 0,-3.117 0.583,-6.515 1.735,-10.183 1.164,-3.649 2.883,-6.567 5.164,-8.719 1.648,-1.516 3.668,-2.281 6.051,-2.281 2.832,0 5.367,1.332 7.582,4 2.234,2.668 3.351,6.48 3.351,11.429 0,5.571 -1.101,10.387 -3.316,14.453 -2.215,4.067 -5.352,6.102 -9.434,6.102 -1.234,0 -2.55,-0.27 -3.968,-0.785 -1.415,-0.52 -3.516,-1.653 -6.282,-3.367" /><path
         id="path34"
         style="fill:#231f20;fill-opacity:1;fill-rule:nonzero;stroke:none"
         d="m 588.102,228.957 h 35.484 V 227.09 L 601.52,161.375 h -5.465 l 19.781,59.613 h -18.215 c -3.683,0 -6.301,-0.429 -7.867,-1.312 -2.734,-1.5 -4.934,-3.805 -6.582,-6.934 l -1.418,0.531 6.348,15.684" /><path
         id="path36"
         style="fill:#231f20;fill-opacity:1;fill-rule:nonzero;stroke:none"
         d="m 572.852,230.324 v -1.816 c -4.282,-0.418 -7.797,-1.27 -10.516,-2.567 -2.715,-1.285 -5.398,-3.234 -8.051,-5.882 -2.648,-2.637 -4.847,-5.571 -6.597,-8.801 -1.731,-3.25 -3.2,-7.102 -4.368,-11.551 4.684,3.219 9.383,4.832 14.118,4.832 4.515,0 8.449,-1.832 11.765,-5.465 3.317,-3.648 4.985,-8.332 4.985,-14.066 0,-5.535 -1.684,-10.582 -5.036,-15.137 -4.031,-5.531 -9.382,-8.297 -16.015,-8.297 -4.532,0 -8.367,1.5 -11.532,4.485 -6.183,5.832 -9.269,13.382 -9.269,22.664 0,5.918 1.184,11.55 3.566,16.886 2.368,5.348 5.77,10.082 10.188,14.215 4.398,4.133 8.629,6.918 12.664,8.352 4.035,1.429 7.801,2.148 11.285,2.148 z m -30.364,-34.183 c -0.582,-4.399 -0.883,-7.95 -0.883,-10.649 0,-3.117 0.583,-6.515 1.735,-10.183 1.164,-3.649 2.883,-6.567 5.164,-8.719 1.648,-1.516 3.668,-2.281 6.051,-2.281 2.832,0 5.367,1.332 7.582,4 2.234,2.668 3.351,6.48 3.351,11.429 0,5.571 -1.101,10.387 -3.316,14.453 -2.215,4.067 -5.352,6.102 -9.434,6.102 -1.234,0 -2.55,-0.27 -3.968,-0.785 -1.415,-0.52 -3.516,-1.653 -6.282,-3.367" /><path
         id="path38"
         style="fill:#231f20;fill-opacity:1;fill-rule:nonzero;stroke:none"
         d="m 588.102,228.957 h 35.484 V 227.09 L 601.52,161.375 h -5.465 l 19.781,59.613 h -18.215 c -3.683,0 -6.301,-0.429 -7.867,-1.312 -2.734,-1.5 -4.934,-3.805 -6.582,-6.934 l -1.418,0.531 6.348,15.684" /><path
         id="path40"
         style="fill:#231f20;fill-opacity:1;fill-rule:nonzero;stroke:none"
         d="m 272.027,170.602 v -6.934 h -8.886 v -17.484 h -8.067 v 17.484 h -28.012 v 6.25 l 30.715,43.848 h 5.364 v -43.164 z m -16.953,0 v 32.863 l -23.23,-32.863 h 23.23" /><path
         id="path42"
         style="fill:#231f20;fill-opacity:1;fill-rule:nonzero;stroke:none"
         d="m 318.91,212.398 -3.816,-8.296 h -19.918 l -4.352,-8.903 c 8.637,-1.265 15.469,-4.465 20.5,-9.613 4.336,-4.422 6.5,-9.637 6.5,-15.621 0,-3.481 -0.699,-6.715 -2.113,-9.664 -1.418,-2.969 -3.203,-5.485 -5.352,-7.567 -2.148,-2.082 -4.55,-3.765 -7.183,-5.035 -3.735,-1.797 -7.582,-2.683 -11.516,-2.683 -3.984,0 -6.867,0.668 -8.668,2.019 -1.816,1.348 -2.719,2.848 -2.719,4.465 0,0.918 0.387,1.715 1.118,2.418 0.754,0.699 1.703,1.051 2.836,1.051 0.851,0 1.597,-0.121 2.234,-0.387 0.633,-0.266 1.715,-0.93 3.246,-1.996 2.438,-1.703 4.902,-2.551 7.418,-2.551 3.801,0 7.148,1.449 10.031,4.332 2.887,2.883 4.321,6.383 4.321,10.516 0,4 -1.286,7.734 -3.852,11.199 -2.582,3.469 -6.117,6.152 -10.648,8.035 -3.551,1.469 -8.387,2.317 -14.5,2.551 l 12.699,25.73 h 23.734" /><path
         id="path44"
         style="fill:none;stroke:#231f20;stroke-width:5.00029993;stroke-linecap:butt;stroke-linejoin:miter;stroke-miterlimit:2.61310005;stroke-dasharray:none;stroke-opacity:1"
         d="m 341.262,238.508 c 7.828,0 14.176,-6.348 14.176,-14.172 0,-7.828 -6.348,-14.172 -14.176,-14.172 -7.824,0 -14.172,6.344 -14.172,14.172 0,7.824 6.348,14.172 14.172,14.172 z" /><path
         id="path46"
         style="fill:none;stroke:#231f20;stroke-width:5.00029993;stroke-linecap:butt;stroke-linejoin:miter;stroke-miterlimit:2.61310005;stroke-dasharray:none;stroke-opacity:1"
         d="m 645.359,252.715 c 7.829,0 14.176,-6.348 14.176,-14.172 0,-7.828 -6.347,-14.172 -14.176,-14.172 -7.824,0 -14.171,6.344 -14.171,14.172 0,7.824 6.347,14.172 14.171,14.172 z" /><path
         id="path48"
         style="fill:none;stroke:#231f20;stroke-width:5.00029993;stroke-linecap:butt;stroke-linejoin:miter;stroke-miterlimit:2.61310005;stroke-dasharray:none;stroke-opacity:1"
         d="m 446.137,164.328 c 32.816,-11.348 46.984,-32.414 42.547,-63.207" /></g></g></svg>