<?xml version="1.0" encoding="UTF-8" standalone="no"?>
<svg
   xmlns:dc="http://purl.org/dc/elements/1.1/"
   xmlns:cc="http://creativecommons.org/ns#"
   xmlns:rdf="http://www.w3.org/1999/02/22-rdf-syntax-ns#"
   xmlns:svg="http://www.w3.org/2000/svg"
   xmlns="http://www.w3.org/2000/svg"
   viewBox="0 0 74.666664 105.33333"
   height="105.33333"
   width="74.666664"
   xml:space="preserve"
   id="svg2"
   version="1.1"><metadata
     id="metadata8"><rdf:RDF><cc:Work
         rdf:about=""><dc:format>image/svg+xml</dc:format><dc:type
           rdf:resource="http://purl.org/dc/dcmitype/StillImage" /></cc:Work></rdf:RDF></metadata><defs
     id="defs6" /><g
     transform="matrix(1.3333333,0,0,-1.3333333,0,105.33333)"
     id="g10"><g
       transform="scale(0.1)"
       id="g12"><path
         id="path14"
         style="fill:#231f20;fill-opacity:1;fill-rule:nonzero;stroke:none"
         d="m 507.871,78.6758 0.684,1.8164 h 23.633 c 3.964,0 7.496,-0.6172 10.617,-1.8672 3.101,-1.2344 5.433,-2.9492 6.984,-5.168 1.547,-2.2148 2.316,-4.5664 2.316,-7.0351 0,-3.8125 -1.386,-7.2461 -4.132,-10.3321 -2.754,-3.0664 -7.235,-5.3476 -13.453,-6.8007 4.019,-1.4961 6.953,-3.4805 8.851,-5.9649 1.883,-2.4648 2.832,-5.1836 2.832,-8.1484 0,-3.2852 -0.848,-6.4336 -2.551,-9.4336 -1.683,-2.9844 -3.863,-5.3164 -6.515,-6.9649 -2.649,-1.6679 -5.852,-2.8867 -9.602,-3.6679 -2.668,-0.5508 -6.832,-0.836 -12.5,-0.836 h -24.262 l 0.629,1.8008 c 2.551,0.0703 4.266,0.3164 5.188,0.7344 1.297,0.5664 2.23,1.2969 2.781,2.1992 0.781,1.2344 1.817,4.0664 3.117,8.5 l 11.864,40.082 c 1.019,3.3868 1.515,5.7657 1.515,7.1368 0,1.1992 -0.445,2.1484 -1.332,2.8476 -0.898,0.6992 -2.597,1.0508 -5.113,1.0508 -0.551,0 -1.067,0.0156 -1.551,0.0508 z m 9.899,-27.4844 c 2.117,-0.0664 3.648,-0.1016 4.597,-0.1016 6.77,0 11.801,1.4688 15.117,4.418 3.301,2.9492 4.954,6.6328 4.954,11.0664 0,3.3477 -1.016,5.9649 -3.036,7.832 -2.015,1.8672 -5.234,2.8008 -9.668,2.8008 -1.164,0 -2.664,-0.1836 -4.48,-0.582 z m -9.618,-32.6172 c 3.52,-0.4687 6.27,-0.6836 8.254,-0.6836 5.082,0 9.578,1.5352 13.496,4.586 3.934,3.0664 5.887,7.2148 5.887,12.4492 0,4 -1.203,7.1328 -3.637,9.3828 -2.418,2.25 -6.332,3.3672 -11.73,3.3672 -1.051,0 -2.32,-0.0508 -3.82,-0.1524 l -8.45,-28.9492" /><path
         id="path16"
         style="fill:#231f20;fill-opacity:1;fill-rule:nonzero;stroke:none"
         d="M 62.0586,75.1406 57.0234,20.0781 c -0.2656,-2.5859 -0.3828,-4.2695 -0.3828,-5.0859 0,-1.2969 0.2344,-2.3008 0.7344,-2.9844 0.6172,-0.9297 1.4492,-1.6289 2.5,-2.09764 1.0664,-0.45313 2.8516,-0.6836 5.3516,-0.6836 L 64.6914,7.42578 H 38.625 l 0.5312,1.80078 h 1.1172 c 2.1172,0 3.8555,0.46875 5.1875,1.36724 0.9297,0.6328 1.6641,1.6484 2.1993,3.082 0.3476,1.0195 0.6992,3.3828 1.0156,7.1328 l 0.7851,8.4023 H 30.5117 l -6.7383,-9.1328 c -1.5312,-2.0547 -2.4804,-3.5351 -2.8828,-4.4179 -0.3828,-0.9024 -0.582,-1.7344 -0.582,-2.5157 0,-1.0507 0.418,-1.9336 1.2656,-2.6836 0.8516,-0.74996 2.25,-1.16793 4.2031,-1.23434 L 25.2422,7.42578 H 5.66016 l 0.53125,1.80078 c 2.41797,0.09766 4.53519,0.91404 6.38279,2.41794 1.836,1.5157 4.5664,4.7461 8.2188,9.6993 L 60.3398,75.1406 Z M 52.3945,58.8906 33.1914,32.7773 h 16.6524 l 2.5507,26.1133" /><path
         id="path18"
         style="fill:#231f20;fill-opacity:1;fill-rule:nonzero;stroke:none"
         d="m 522.289,788.715 -4.934,-21.434 h -1.769 l -0.18,5.383 c -0.168,1.949 -0.551,3.684 -1.133,5.215 -0.585,1.535 -1.468,2.851 -2.632,3.984 -1.168,1.117 -2.653,2 -4.453,2.637 -1.782,0.629 -3.766,0.949 -5.95,0.949 -5.832,0 -10.914,-1.601 -15.285,-4.785 -5.566,-4.066 -9.93,-9.816 -13.078,-17.234 -2.602,-6.118 -3.918,-12.317 -3.918,-18.598 0,-6.418 1.883,-11.535 5.613,-15.367 3.75,-3.82 8.618,-5.735 14.602,-5.735 4.531,0 8.566,1.016 12.086,3.032 3.531,2.019 6.816,5.117 9.847,9.32 h 2.282 c -3.567,-5.703 -7.547,-9.887 -11.899,-12.566 -4.363,-2.684 -9.601,-4.036 -15.683,-4.036 -5.399,0 -10.184,1.133 -14.348,3.399 -4.168,2.269 -7.352,5.433 -9.516,9.551 -2.187,4.101 -3.285,8.5 -3.285,13.234 0,7.219 1.949,14.25 5.817,21.082 3.863,6.832 9.183,12.215 15.933,16.117 6.766,3.899 13.567,5.852 20.449,5.852 3.215,0 6.833,-0.75 10.833,-2.285 1.75,-0.653 3.035,-0.981 3.8,-0.981 0.782,0 1.465,0.164 2.067,0.481 0.586,0.336 1.55,1.265 2.918,2.785 h 1.816" /><path
         id="path20"
         style="fill:none;stroke:#231f20;stroke-width:7.5005002;stroke-linecap:butt;stroke-linejoin:miter;stroke-miterlimit:2.61310005;stroke-dasharray:none;stroke-opacity:1"
         d="M 475.582,34.0625 V 700.535" /><path
         id="path22"
         style="fill:none;stroke:#231f20;stroke-width:7.5005002;stroke-linecap:butt;stroke-linejoin:miter;stroke-miterlimit:2.61310005;stroke-dasharray:none;stroke-opacity:1"
         d="M 284.672,367.914 471.926,36.5039" /><path
         id="path24"
         style="fill:none;stroke:#231f20;stroke-width:7.5005002;stroke-linecap:butt;stroke-linejoin:miter;stroke-miterlimit:2.61310005;stroke-dasharray:none;stroke-opacity:1"
         d="M 475.75,701.379 96.1055,38.4414" /><path
         id="path26"
         style="fill:none;stroke:#231f20;stroke-width:7.5005002;stroke-linecap:butt;stroke-linejoin:miter;stroke-miterlimit:2.61310005;stroke-dasharray:none;stroke-opacity:1"
         d="M 471.918,38.5156 H 93.8438" /><path
         id="path28"
         style="fill:none;stroke:#231f20;stroke-width:7.5005002;stroke-linecap:butt;stroke-linejoin:miter;stroke-miterlimit:2.61310005;stroke-dasharray:none;stroke-opacity:1"
         d="m 162.34,213.402 50.363,-28.597" /><path
         id="path30"
         style="fill:none;stroke:#231f20;stroke-width:7.5005002;stroke-linecap:butt;stroke-linejoin:miter;stroke-miterlimit:2.61310005;stroke-dasharray:none;stroke-opacity:1"
         d="m 343.496,526.461 50.367,-28.594" /><path
         id="path32"
         style="fill:none;stroke:#231f20;stroke-width:5.00029993;stroke-linecap:butt;stroke-linejoin:miter;stroke-miterlimit:2.61310005;stroke-dasharray:none;stroke-opacity:1"
         d="m 228.492,269.086 c 36.082,-23.578 70.16,-18.063 102.231,16.559" /><path
         id="path34"
         style="fill:#231f20;fill-opacity:1;fill-rule:nonzero;stroke:none"
         d="m 202.105,422.844 6.118,-53.332 38.418,53.332 h 16.164 v -1.817 c -3.516,-0.215 -5.582,-0.449 -6.2,-0.683 -1.082,-0.414 -2.066,-1.266 -2.949,-2.532 -0.898,-1.269 -1.867,-3.718 -2.918,-7.335 l -12.25,-41.981 c -0.715,-2.449 -1.066,-4.367 -1.066,-5.766 0,-1.269 0.433,-2.234 1.316,-2.882 1.235,-0.934 3.184,-1.418 5.852,-1.418 h 1.183 l -0.453,-1.801 h -27.879 l 0.497,1.801 h 1.316 c 2.469,0 4.351,0.363 5.668,1.082 1,0.515 1.902,1.5 2.699,2.949 0.801,1.449 1.918,4.668 3.352,9.652 l 10.933,38.364 -38.617,-53.848 h -1.949 l -6.215,53.848 -11.82,-40.965 c -1,-3.485 -1.5,-5.817 -1.5,-7.016 0,-1.219 0.433,-2.133 1.316,-2.766 0.867,-0.636 3.004,-1.07 6.402,-1.3 l -0.55,-1.801 h -21.817 l 0.535,1.801 h 1.313 c 3.219,0 5.551,0.816 6.984,2.449 1.035,1.168 2.133,3.715 3.266,7.617 l 14.418,49.367 c -1.082,1.098 -2.102,1.852 -3.082,2.25 -0.985,0.383 -2.785,0.699 -5.414,0.914 l 0.48,1.817 h 16.449" /></g></g></svg>