<?xml version="1.0" encoding="UTF-8" standalone="no"?>
<svg
   xmlns:dc="http://purl.org/dc/elements/1.1/"
   xmlns:cc="http://creativecommons.org/ns#"
   xmlns:rdf="http://www.w3.org/1999/02/22-rdf-syntax-ns#"
   xmlns:svg="http://www.w3.org/2000/svg"
   xmlns="http://www.w3.org/2000/svg"
   viewBox="0 0 90.666664 94.666664"
   height="94.666664"
   width="90.666664"
   xml:space="preserve"
   id="svg2"
   version="1.1"><metadata
     id="metadata8"><rdf:RDF><cc:Work
         rdf:about=""><dc:format>image/svg+xml</dc:format><dc:type
           rdf:resource="http://purl.org/dc/dcmitype/StillImage" /></cc:Work></rdf:RDF></metadata><defs
     id="defs6" /><g
     transform="matrix(1.3333333,0,0,-1.3333333,0,94.666667)"
     id="g10"><g
       transform="scale(0.1)"
       id="g12"><g
         transform="scale(10)"
         id="g14"><text
           id="text22"
           style="font-style:italic;font-variant:normal;font-weight:normal;font-size:9.99989986px;font-family:TimesNewRomanPSMT;-inkscape-font-specification:TimesNewRomanPSMT-NormalItalic;writing-mode:lr-tb;fill:#231f20;fill-opacity:1;fill-rule:nonzero;stroke:none"
           transform="matrix(1,0,0,-1,1.47617,8.80039)"><tspan
             id="tspan16"
             y="0"
             x="0">A</tspan><tspan
             id="tspan18"
             y="-54.974998"
             x="31.1527">B</tspan><tspan
             id="tspan20"
             y="-0.57029998"
             x="59.046101">C</tspan></text>
</g><path
         id="path24"
         style="fill:none;stroke:#231f20;stroke-width:10.00059986;stroke-linecap:butt;stroke-linejoin:miter;stroke-miterlimit:22.92560005;stroke-dasharray:none;stroke-opacity:1"
         d="M 119.25,143.641 346.719,598.082 578.074,143.641 Z" /><path
         id="path26"
         style="fill:none;stroke:#231f20;stroke-width:10.00059986;stroke-linecap:butt;stroke-linejoin:miter;stroke-miterlimit:22.92560005;stroke-dasharray:none;stroke-opacity:1"
         d="m 345.66,602.609 c 159.227,0 288.309,-131.961 288.309,-294.746 0,-162.789 -129.082,-294.7497 -288.309,-294.7497 -159.226,0 -288.3084,131.9607 -288.3084,294.7497 0,162.785 129.0824,294.746 288.3084,294.746 z" /><path
         id="path28"
         style="fill:none;stroke:#231f20;stroke-width:10.00059986;stroke-linecap:butt;stroke-linejoin:miter;stroke-miterlimit:22.92560005;stroke-dasharray:none;stroke-opacity:1"
         d="m 351.297,314.141 c 2.836,0 5.137,-2.125 5.137,-4.743 0,-2.621 -2.301,-4.746 -5.137,-4.746 -2.84,0 -5.141,2.125 -5.141,4.746 0,2.618 2.301,4.743 5.141,4.743 z" /><path
         id="path30"
         style="fill:#231f20;fill-opacity:1;fill-rule:evenodd;stroke:none"
         d="m 355.656,312.5 c 0,0.238 -0.211,0.434 -0.472,0.434 -0.258,0 -0.469,-0.196 -0.469,-0.434 0,-0.238 0.211,-0.434 0.469,-0.434 0.261,0 0.472,0.196 0.472,0.434" /><path
         id="path32"
         style="fill:none;stroke:#231f20;stroke-width:5.66930008;stroke-linecap:butt;stroke-linejoin:miter;stroke-miterlimit:22.92560005;stroke-dasharray:none;stroke-opacity:1"
         d="m 355.656,312.5 c 0,0.238 -0.211,0.434 -0.472,0.434 -0.258,0 -0.469,-0.196 -0.469,-0.434 0,-0.238 0.211,-0.434 0.469,-0.434 0.261,0 0.472,0.196 0.472,0.434 z" /><g
         transform="scale(10)"
         id="g34"><text
           id="text38"
           style="font-style:italic;font-variant:normal;font-weight:normal;font-size:9.99989986px;font-family:TimesNewRomanPSMT;-inkscape-font-specification:TimesNewRomanPSMT-NormalItalic;writing-mode:lr-tb;fill:#231f20;fill-opacity:1;fill-rule:nonzero;stroke:none"
           transform="matrix(1,0,0,-1,31.8789,20.7254)"><tspan
             id="tspan36"
             y="0"
             x="0">O</tspan></text>
</g><path
         id="path40"
         style="fill:none;stroke:#231f20;stroke-width:10.00059986;stroke-linecap:butt;stroke-linejoin:miter;stroke-miterlimit:22.92560005;stroke-dasharray:none;stroke-opacity:1"
         d="m 348.66,598.082 v 0" /><path
         id="path42"
         style="fill:none;stroke:#231f20;stroke-width:10.00059986;stroke-linecap:butt;stroke-linejoin:miter;stroke-miterlimit:22.92560005;stroke-dasharray:none;stroke-opacity:1"
         d="m 348.621,590.227 3,-283.504" /></g></g></svg>