<?xml version="1.0" encoding="UTF-8" standalone="no"?>
<svg
   xmlns:dc="http://purl.org/dc/elements/1.1/"
   xmlns:cc="http://creativecommons.org/ns#"
   xmlns:rdf="http://www.w3.org/1999/02/22-rdf-syntax-ns#"
   xmlns:svg="http://www.w3.org/2000/svg"
   xmlns="http://www.w3.org/2000/svg"
   viewBox="0 0 169.33333 98.666664"
   height="98.666664"
   width="169.33333"
   xml:space="preserve"
   id="svg2"
   version="1.1"><metadata
     id="metadata8"><rdf:RDF><cc:Work
         rdf:about=""><dc:format>image/svg+xml</dc:format><dc:type
           rdf:resource="http://purl.org/dc/dcmitype/StillImage" /></cc:Work></rdf:RDF></metadata><defs
     id="defs6" /><g
     transform="matrix(1.3333333,0,0,-1.3333333,0,98.666667)"
     id="g10"><g
       transform="scale(0.1)"
       id="g12"><path
         id="path14"
         style="fill:#231f20;fill-opacity:1;fill-rule:nonzero;stroke:none"
         d="M 59.2227,144.828 54.1875,89.7656 c -0.2656,-2.5859 -0.3828,-4.2695 -0.3828,-5.0859 0,-1.2969 0.2305,-2.3008 0.7344,-2.9844 0.6132,-0.9297 1.4492,-1.6289 2.5,-2.0976 1.0664,-0.4532 2.8476,-0.6836 5.3476,-0.6836 L 61.8555,77.1133 H 35.7891 l 0.5312,1.8008 h 1.1172 c 2.1172,0 3.8516,0.4687 5.1836,1.3671 0.9336,0.6329 1.668,1.6485 2.1992,3.0821 0.3516,1.0195 0.6992,3.3828 1.0195,7.1328 l 0.7813,8.4023 H 27.6719 l -6.7344,-9.1328 c -1.5313,-2.0547 -2.4844,-3.5351 -2.8828,-4.4179 -0.3828,-0.9024 -0.5859,-1.7344 -0.5859,-2.5157 0,-1.0508 0.4179,-1.9336 1.2695,-2.6836 0.8476,-0.75 2.25,-1.1679 4.1992,-1.2343 L 22.4062,77.1133 H 2.82031 l 0.53516,1.8008 c 2.41797,0.0976 4.53515,0.914 6.38281,2.4179 1.83202,1.5157 4.56642,4.7461 8.21482,9.6992 l 39.5508,53.7968 z m -9.668,-16.25 -19.1992,-26.113 h 16.6484 l 2.5508,26.113" /><path
         id="path16"
         style="fill:none;stroke:#231f20;stroke-width:7.5005002;stroke-linecap:butt;stroke-linejoin:miter;stroke-miterlimit:2.61310005;stroke-dasharray:none;stroke-opacity:1"
         d="M 81.6172,111.004 H 1241.71" /><path
         id="path18"
         style="fill:none;stroke:#231f20;stroke-width:7.5005002;stroke-linecap:butt;stroke-linejoin:miter;stroke-miterlimit:2.61310005;stroke-dasharray:none;stroke-opacity:1"
         d="M 80.3867,110.371 410.859,525.125" /><path
         id="path20"
         style="fill:none;stroke:#231f20;stroke-width:7.5005002;stroke-linecap:butt;stroke-linejoin:miter;stroke-miterlimit:2.61310005;stroke-dasharray:none;stroke-opacity:1"
         d="M 407.008,524.02 737.492,109.258" /><path
         id="path22"
         style="fill:none;stroke:#231f20;stroke-width:7.5005002;stroke-linecap:butt;stroke-linejoin:miter;stroke-miterlimit:2.61310005;stroke-dasharray:none;stroke-opacity:1"
         d="M 738.133,113.469 V 700.492" /><path
         id="path24"
         style="fill:none;stroke:#231f20;stroke-width:7.5005002;stroke-linecap:butt;stroke-linejoin:miter;stroke-miterlimit:2.61310005;stroke-dasharray:none;stroke-opacity:1"
         d="m 738.113,113.301 151.93,567.023" /><path
         id="path26"
         style="fill:none;stroke:#231f20;stroke-width:7.5005002;stroke-linecap:butt;stroke-linejoin:miter;stroke-miterlimit:2.61310005;stroke-dasharray:none;stroke-opacity:1"
         d="m 214.117,326.66 40.492,-36.031" /><path
         id="path28"
         style="fill:none;stroke:#231f20;stroke-width:7.5005002;stroke-linecap:butt;stroke-linejoin:miter;stroke-miterlimit:2.61310005;stroke-dasharray:none;stroke-opacity:1"
         d="m 566.531,284.621 37.489,36.031" /><path
         id="path30"
         style="fill:#231f20;fill-opacity:1;fill-rule:nonzero;stroke:none"
         d="m 1219.79,47.0352 16.4,-25.3516 c 2.93,-4.4805 5.36,-7.3672 7.28,-8.6172 1.92,-1.25 4.45,-1.8828 7.57,-1.8828 l -0.53,-1.79688 h -28.24 l 0.45,1.79688 c 2.25,0.2344 3.84,0.7656 4.75,1.6172 0.94,0.8515 1.4,1.8008 1.4,2.8867 0,0.9805 -0.16,1.9141 -0.48,2.832 -0.27,0.6485 -1.22,2.25 -2.84,4.7852 l -13.43,21.0469 -6.5,-21.9336 c -1.07,-3.5157 -1.6,-5.8672 -1.6,-7.0821 0,-1.2343 0.45,-2.1679 1.37,-2.8164 0.9,-0.6679 3.15,-1.1015 6.73,-1.3359 l -0.78,-1.79688 h -26.17 l 0.63,1.79688 c 2.54,0.0703 4.25,0.3008 5.14,0.6836 1.3,0.6016 2.25,1.3516 2.86,2.2539 0.86,1.332 1.9,4.0977 3.14,8.2969 l 11.67,40 c 0.88,3.0508 1.31,5.5156 1.31,7.3672 0,1.3007 -0.41,2.2968 -1.23,2.9804 -0.83,0.6836 -2.45,1.0196 -4.87,1.0196 h -0.98 l 0.6,1.8164 h 24.85 l -0.5,-1.8164 c -2.05,0.0351 -3.57,-0.1836 -4.58,-0.6836 -1.41,-0.6836 -2.42,-1.5664 -3.07,-2.6328 -0.67,-1.0665 -1.62,-3.7696 -2.88,-8.0508 l -5.14,-17 23.54,17.7343 c 3.13,2.3321 5.18,4.1993 6.14,5.5665 0.59,0.832 0.89,1.5976 0.89,2.2812 0,0.5859 -0.3,1.168 -0.9,1.7188 -0.6,0.5507 -1.52,0.8984 -2.77,1.0664 l 0.5,1.8164 h 21.19 l -0.44,-1.8164 c -2.31,-0.3829 -4.27,-0.8985 -5.83,-1.5352 -1.58,-0.6328 -3.2,-1.5 -4.87,-2.6133 -0.48,-0.3203 -3.66,-2.7344 -9.52,-7.2187 l -20.26,-15.3828" /><path
         id="path32"
         style="fill:#231f20;fill-opacity:1;fill-rule:nonzero;stroke:none"
         d="m 933.227,672.617 -7.813,-26.23 h 8.699 c 3.899,0 6.832,0.613 8.766,1.816 1.933,1.199 3.933,3.766 5.98,7.715 h 1.852 l -6.883,-24.117 h -1.949 c 0.48,1.953 0.73,3.551 0.73,4.836 0,1.984 -0.664,3.515 -1.98,4.597 -1.317,1.102 -3.785,1.653 -7.402,1.653 h -8.782 l -5.769,-19.985 c -1.031,-3.55 -1.563,-5.898 -1.563,-7.066 0,-1.215 0.449,-2.133 1.348,-2.785 0.898,-0.664 3.086,-1.098 6.566,-1.332 l -0.582,-1.801 h -26.164 l 0.629,1.801 c 2.535,0.07 4.235,0.301 5.067,0.683 1.3,0.567 2.269,1.317 2.886,2.25 0.883,1.332 1.914,4.082 3.133,8.25 l 11.668,39.899 c 0.93,3.219 1.414,5.754 1.414,7.57 0,0.848 -0.215,1.563 -0.633,2.164 -0.433,0.602 -1.05,1.051 -1.883,1.352 -0.832,0.281 -2.484,0.433 -4.953,0.433 l 0.586,1.817 h 51.364 l -4.879,-16.75 h -1.868 c 0.364,2.015 0.547,3.664 0.547,4.984 0,2.149 -0.597,3.848 -1.781,5.098 -1.199,1.25 -2.715,2.133 -4.566,2.648 -1.301,0.336 -4.219,0.5 -8.75,0.5 h -13.035" /><path
         id="path34"
         style="fill:#231f20;fill-opacity:1;fill-rule:nonzero;stroke:none"
         d="m 697.047,728.258 -7.567,-26.184 h 6.2 c 4.433,0 7.632,0.684 9.632,2.031 1.985,1.348 3.684,3.848 5.118,7.5 h 1.816 l -6.801,-24.035 h -1.949 c 0.586,2.02 0.883,3.75 0.883,5.188 0,1.398 -0.285,2.515 -0.848,3.367 -0.586,0.848 -1.351,1.465 -2.351,1.879 -1,0.402 -3.082,0.601 -6.285,0.601 h -6.282 l -6.402,-21.917 c -0.613,-2.118 -0.934,-3.731 -0.934,-4.833 0,-0.847 0.418,-1.601 1.219,-2.25 0.566,-0.449 1.949,-0.683 4.149,-0.683 h 5.867 c 6.351,0 11.433,1.133 15.25,3.367 3.832,2.25 7.265,6.168 10.285,11.734 h 1.816 l -6.25,-18.418 H 662.43 l 0.632,1.801 c 2.551,0.067 4.25,0.301 5.137,0.684 1.297,0.601 2.246,1.348 2.828,2.25 0.887,1.332 1.918,4.133 3.121,8.398 l 11.633,39.953 c 0.899,3.215 1.367,5.664 1.367,7.368 0,1.23 -0.433,2.199 -1.304,2.898 -0.867,0.699 -2.547,1.047 -5.047,1.047 h -1.035 l 0.586,1.82 h 47.562 l -4.098,-15.969 h -1.816 c 0.231,1.5 0.352,2.75 0.352,3.75 0,1.735 -0.418,3.184 -1.27,4.352 -1.117,1.5 -2.719,2.633 -4.832,3.414 -1.566,0.586 -5.168,0.887 -10.801,0.887 h -8.398" /><path
         id="path36"
         style="fill:#231f20;fill-opacity:1;fill-rule:nonzero;stroke:none"
         d="m 407.367,618.629 0.684,1.816 h 23.633 c 3.968,0 7.5,-0.617 10.617,-1.867 3.101,-1.234 5.433,-2.949 6.984,-5.164 1.547,-2.219 2.317,-4.566 2.317,-7.035 0,-3.817 -1.383,-7.25 -4.133,-10.332 -2.754,-3.067 -7.235,-5.352 -13.449,-6.801 4.015,-1.5 6.949,-3.484 8.847,-5.969 1.883,-2.465 2.832,-5.179 2.832,-8.148 0,-3.281 -0.847,-6.43 -2.547,-9.434 -1.683,-2.98 -3.867,-5.316 -6.519,-6.965 -2.649,-1.668 -5.848,-2.886 -9.598,-3.668 -2.668,-0.55 -6.836,-0.832 -12.504,-0.832 H 390.27 l 0.632,1.801 c 2.551,0.067 4.266,0.317 5.184,0.735 1.297,0.566 2.23,1.296 2.781,2.199 0.785,1.23 1.817,4.062 3.117,8.496 l 11.868,40.086 c 1.015,3.383 1.515,5.765 1.515,7.133 0,1.199 -0.449,2.148 -1.332,2.847 -0.898,0.703 -2.601,1.051 -5.117,1.051 -0.551,0 -1.066,0.016 -1.551,0.051 z m 9.903,-27.484 c 2.113,-0.067 3.648,-0.098 4.597,-0.098 6.77,0 11.801,1.469 15.117,4.414 3.297,2.953 4.95,6.633 4.95,11.066 0,3.352 -1.016,5.969 -3.036,7.836 -2.015,1.864 -5.23,2.801 -9.664,2.801 -1.168,0 -2.664,-0.184 -4.484,-0.586 z m -9.618,-32.614 c 3.516,-0.469 6.266,-0.683 8.25,-0.683 5.082,0 9.582,1.531 13.5,4.582 3.934,3.066 5.883,7.218 5.883,12.449 0,4 -1.203,7.133 -3.633,9.383 -2.418,2.25 -6.332,3.367 -11.734,3.367 -1.051,0 -2.316,-0.051 -3.816,-0.149 l -8.45,-28.949" /><path
         id="path38"
         style="fill:#231f20;fill-opacity:1;fill-rule:nonzero;stroke:none"
         d="m 772.629,77.1016 -4.93,-21.4336 h -1.769 l -0.184,5.3828 c -0.164,1.9492 -0.547,3.6836 -1.133,5.2148 -0.582,1.5352 -1.468,2.8516 -2.633,3.9883 -1.168,1.1133 -2.648,1.9961 -4.449,2.6328 -1.785,0.6328 -3.769,0.9492 -5.949,0.9492 -5.836,0 -10.918,-1.6015 -15.285,-4.7851 -5.567,-4.0664 -9.934,-9.8164 -13.082,-17.2305 -2.598,-6.1172 -3.918,-12.3164 -3.918,-18.6015 0,-6.418 1.883,-11.5352 5.617,-15.3672 3.75,-3.8164 8.617,-5.7344 14.598,-5.7344 4.535,0 8.566,1.0195 12.086,3.0351 3.531,2.0157 6.816,5.1133 9.851,9.3165 h 2.281 c -3.566,-5.6993 -7.55,-9.8829 -11.902,-12.5665 -4.363,-2.68355 -9.598,-4.03511 -15.683,-4.03511 -5.399,0 -10.18,1.13672 -14.348,3.39841 -4.168,2.2696 -7.352,5.4375 -9.516,9.5508 -2.183,4.1016 -3.285,8.5 -3.285,13.2344 0,7.2187 1.949,14.25 5.816,21.0859 3.868,6.8321 9.184,12.2149 15.934,16.1133 6.766,3.9023 13.566,5.8516 20.453,5.8516 3.215,0 6.828,-0.75 10.828,-2.2813 1.754,-0.6523 3.039,-0.9844 3.801,-0.9844 0.785,0 1.469,0.1641 2.067,0.4805 0.585,0.3359 1.55,1.2695 2.917,2.7852 h 1.817" /></g></g></svg>