<?xml version="1.0" encoding="UTF-8" standalone="no"?>
<svg
   xmlns:dc="http://purl.org/dc/elements/1.1/"
   xmlns:cc="http://creativecommons.org/ns#"
   xmlns:rdf="http://www.w3.org/1999/02/22-rdf-syntax-ns#"
   xmlns:svg="http://www.w3.org/2000/svg"
   xmlns="http://www.w3.org/2000/svg"
   viewBox="0 0 213.33333 78.666664"
   height="78.666664"
   width="213.33333"
   xml:space="preserve"
   id="svg2"
   version="1.1"><metadata
     id="metadata8"><rdf:RDF><cc:Work
         rdf:about=""><dc:format>image/svg+xml</dc:format><dc:type
           rdf:resource="http://purl.org/dc/dcmitype/StillImage" /></cc:Work></rdf:RDF></metadata><defs
     id="defs6" /><g
     transform="matrix(1.3333333,0,0,-1.3333333,0,78.666667)"
     id="g10"><g
       transform="scale(0.1)"
       id="g12"><path
         id="path14"
         style="fill:#231f20;fill-opacity:1;fill-rule:nonzero;stroke:none"
         d="m 1198.84,252.609 16.12,7.868 h 1.61 v -55.915 c 0,-3.703 0.15,-6.019 0.45,-6.933 0.32,-0.902 0.97,-1.602 1.94,-2.102 0.98,-0.484 2.96,-0.765 5.96,-0.836 v -1.796 h -24.91 v 1.796 c 3.13,0.071 5.15,0.336 6.06,0.817 0.9,0.469 1.54,1.101 1.9,1.902 0.35,0.801 0.54,3.184 0.54,7.152 v 35.75 c 0,4.813 -0.17,7.899 -0.49,9.266 -0.23,1.047 -0.64,1.817 -1.25,2.297 -0.6,0.484 -1.31,0.734 -2.16,0.734 -1.2,0 -2.89,-0.5 -5.04,-1.515 l -0.73,1.515" /><path
         id="path16"
         style="fill:#231f20;fill-opacity:1;fill-rule:nonzero;stroke:none"
         d="m 1281.94,260.477 v -1.817 c -4.28,-0.418 -7.8,-1.269 -10.52,-2.566 -2.71,-1.285 -5.4,-3.235 -8.05,-5.883 -2.65,-2.637 -4.85,-5.57 -6.6,-8.801 -1.73,-3.25 -3.2,-7.101 -4.36,-11.551 4.68,3.219 9.38,4.832 14.11,4.832 4.52,0 8.45,-1.832 11.77,-5.464 3.32,-3.649 4.98,-8.332 4.98,-14.067 0,-5.535 -1.68,-10.582 -5.03,-15.137 -4.04,-5.531 -9.38,-8.296 -16.02,-8.296 -4.53,0 -8.36,1.5 -11.53,4.484 -6.18,5.832 -9.27,13.383 -9.27,22.664 0,5.918 1.19,11.551 3.57,16.887 2.37,5.347 5.77,10.082 10.18,14.215 4.4,4.132 8.63,6.918 12.67,8.351 4.03,1.43 7.8,2.149 11.28,2.149 z m -30.37,-34.184 c -0.58,-4.398 -0.88,-7.949 -0.88,-10.648 0,-3.118 0.58,-6.516 1.73,-10.184 1.17,-3.649 2.88,-6.566 5.17,-8.719 1.65,-1.515 3.67,-2.281 6.05,-2.281 2.83,0 5.37,1.332 7.58,4 2.24,2.668 3.35,6.48 3.35,11.43 0,5.57 -1.1,10.386 -3.31,14.453 -2.22,4.066 -5.35,6.097 -9.44,6.097 -1.23,0 -2.55,-0.265 -3.96,-0.781 -1.42,-0.519 -3.52,-1.652 -6.29,-3.367" /><path
         id="path18"
         style="fill:#231f20;fill-opacity:1;fill-rule:nonzero;stroke:none"
         d="m 1290.74,225.609 c 0,7.551 1.13,14.051 3.42,19.5 2.28,5.45 5.3,9.516 9.08,12.184 2.93,2.117 5.95,3.184 9.08,3.184 5.07,0 9.64,-2.602 13.67,-7.766 5.05,-6.418 7.56,-15.102 7.56,-26.086 0,-7.684 -1.09,-14.199 -3.31,-19.563 -2.22,-5.382 -5.04,-9.285 -8.47,-11.703 -3.43,-2.433 -6.75,-3.632 -9.95,-3.632 -6.3,0 -11.57,3.718 -15.76,11.183 -3.56,6.281 -5.32,13.852 -5.32,22.699 z m 9.56,-1.214 c 0,-9.122 1.12,-16.571 3.37,-22.317 1.85,-4.851 4.63,-7.285 8.3,-7.285 1.77,0 3.58,0.801 5.47,2.367 1.9,1.582 3.33,4.235 4.3,7.934 1.5,5.597 2.25,13.5 2.25,23.683 0,7.547 -0.79,13.848 -2.35,18.899 -1.17,3.75 -2.69,6.398 -4.53,7.969 -1.34,1.062 -2.95,1.597 -4.84,1.597 -2.22,0 -4.18,-0.984 -5.91,-2.965 -2.34,-2.703 -3.94,-6.949 -4.79,-12.75 -0.85,-5.8 -1.27,-11.5 -1.27,-17.132" /><path
         id="path20"
         style="fill:#231f20;fill-opacity:1;fill-rule:nonzero;stroke:none"
         d="M 59.0625,122.938 54.0312,67.875 c -0.2695,-2.5859 -0.3828,-4.2695 -0.3828,-5.0859 0,-1.2969 0.2305,-2.3008 0.7344,-2.9844 0.6133,-0.9297 1.4453,-1.6289 2.5,-2.0977 1.0625,-0.4531 2.8477,-0.6836 5.3477,-0.6836 L 61.6953,55.2227 H 35.6289 l 0.5352,1.8007 h 1.1171 c 2.1172,0 3.8516,0.4688 5.1836,1.3672 0.9336,0.6328 1.668,1.6485 2.1993,3.0821 0.3476,1.0195 0.6992,3.3828 1.0156,7.1328 l 0.7851,8.4023 H 27.5156 L 20.7812,67.875 c -1.5312,-2.0547 -2.4843,-3.5352 -2.8828,-4.418 -0.3828,-0.9023 -0.5859,-1.7343 -0.5859,-2.5156 0,-1.0508 0.418,-1.9336 1.2656,-2.6836 0.8516,-0.75 2.2539,-1.168 4.2031,-1.2344 L 22.2461,55.2227 H 2.66406 l 0.53125,1.8007 c 2.41797,0.0977 4.53516,0.9141 6.38281,2.418 1.83598,1.5156 4.57028,4.7461 8.21878,9.6992 L 57.3477,122.938 Z M 49.3984,106.688 30.1953,80.5742 h 16.6524 l 2.5507,26.1138" /><path
         id="path22"
         style="fill:#ffffff;fill-opacity:1;fill-rule:evenodd;stroke:none"
         d="m 1355,291.535 c 7.55,0 13.68,-6.125 13.68,-13.672 0,-7.551 -6.13,-13.672 -13.68,-13.672 -7.54,0 -13.67,6.121 -13.67,13.672 0,7.547 6.13,13.672 13.67,13.672" /><path
         id="path24"
         style="fill:none;stroke:#231f20;stroke-width:5.00029993;stroke-linecap:butt;stroke-linejoin:miter;stroke-miterlimit:2.61310005;stroke-dasharray:none;stroke-opacity:1"
         d="m 1355,291.535 c 7.55,0 13.68,-6.125 13.68,-13.672 0,-7.551 -6.13,-13.672 -13.68,-13.672 -7.54,0 -13.67,6.121 -13.67,13.672 0,7.547 6.13,13.672 13.67,13.672 z" /><path
         id="path26"
         style="fill:none;stroke:#231f20;stroke-width:7.5005002;stroke-linecap:butt;stroke-linejoin:miter;stroke-miterlimit:2.61310005;stroke-dasharray:none;stroke-opacity:1"
         d="M 94.5273,519.863 V 106.977" /><path
         id="path28"
         style="fill:none;stroke:#231f20;stroke-width:7.5005002;stroke-linecap:butt;stroke-linejoin:miter;stroke-miterlimit:2.61310005;stroke-dasharray:none;stroke-opacity:1"
         d="M 95.4023,109.199 H 1594.01" /><path
         id="path30"
         style="fill:none;stroke:#231f20;stroke-width:7.5005002;stroke-linecap:butt;stroke-linejoin:miter;stroke-miterlimit:2.61310005;stroke-dasharray:none;stroke-opacity:1"
         d="M 1218.48,108.633 94.293,517.789" /><path
         id="path32"
         style="fill:none;stroke:#231f20;stroke-width:5.00029993;stroke-linecap:butt;stroke-linejoin:miter;stroke-miterlimit:2.61310005;stroke-dasharray:none;stroke-opacity:1"
         d="m 97.9023,110.348 h 90.9922 v 83.4062 H 97.9023 Z" /><path
         id="path34"
         style="fill:#231f20;fill-opacity:1;fill-rule:nonzero;stroke:none"
         d="m 37.457,587.992 0.6836,1.817 h 23.6328 c 3.9649,0 7.4961,-0.618 10.6172,-1.868 3.1016,-1.234 5.4336,-2.949 6.9844,-5.168 1.5469,-2.214 2.3164,-4.566 2.3164,-7.035 0,-3.812 -1.3867,-7.246 -4.1328,-10.332 -2.7539,-3.066 -7.2344,-5.347 -13.4531,-6.797 4.0195,-1.5 6.9531,-3.484 8.8515,-5.968 1.8828,-2.465 2.8321,-5.184 2.8321,-8.149 0,-3.285 -0.8477,-6.433 -2.5508,-9.433 -1.6836,-2.985 -3.8633,-5.317 -6.5156,-6.965 -2.6485,-1.668 -5.8516,-2.887 -9.6016,-3.668 -2.668,-0.551 -6.832,-0.836 -12.5,-0.836 H 20.3555 l 0.6328,1.801 c 2.5508,0.07 4.2656,0.32 5.1875,0.734 1.2969,0.566 2.2304,1.301 2.7812,2.199 0.7813,1.235 1.8164,4.067 3.1172,8.5 l 11.8633,40.082 c 1.0195,3.387 1.5156,5.766 1.5156,7.137 0,1.199 -0.4453,2.148 -1.332,2.848 -0.8984,0.699 -2.5977,1.05 -5.1133,1.05 -0.5508,0 -1.0664,0.016 -1.5508,0.051 z m 9.8985,-27.484 c 2.1172,-0.067 3.6484,-0.102 4.5976,-0.102 6.7696,0 11.8008,1.469 15.1172,4.418 3.3008,2.949 4.9531,6.633 4.9531,11.067 0,3.351 -1.0156,5.964 -3.0351,7.836 -2.0156,1.863 -5.2344,2.8 -9.668,2.8 -1.1641,0 -2.6641,-0.187 -4.4805,-0.586 z m -9.6172,-32.617 c 3.5195,-0.465 6.2695,-0.684 8.2539,-0.684 5.082,0 9.5781,1.535 13.4961,4.586 3.9336,3.066 5.8867,7.215 5.8867,12.449 0,4 -1.2031,7.133 -3.6367,9.383 -2.418,2.25 -6.3321,3.367 -11.7305,3.367 -1.0508,0 -2.3203,-0.051 -3.8203,-0.152 l -8.4492,-28.949" /><path
         id="path36"
         style="fill:#231f20;fill-opacity:1;fill-rule:nonzero;stroke:none"
         d="m 1247.32,71.5703 -4.93,-21.4336 h -1.77 l -0.18,5.3828 c -0.17,1.9493 -0.55,3.6836 -1.13,5.2149 -0.59,1.5351 -1.47,2.8515 -2.63,3.9883 -1.17,1.1132 -2.66,1.9961 -4.46,2.6328 -1.78,0.6328 -3.76,0.9492 -5.95,0.9492 -5.83,0 -10.91,-1.6016 -15.28,-4.7852 -5.57,-4.0664 -9.93,-9.8164 -13.08,-17.2304 -2.6,-6.1172 -3.92,-12.3164 -3.92,-18.6016 0,-6.418 1.89,-11.5352 5.62,-15.3672 3.75,-3.81639 8.61,-5.73436 14.6,-5.73436 4.53,0 8.56,1.01953 12.08,3.03515 3.53,2.01561 6.82,5.11331 9.85,9.31641 h 2.28 c -3.56,-5.7031 -7.54,-9.88672 -11.9,-12.56641 -4.36,-2.68359 -9.6,-4.03515 -15.68,-4.03515 -5.4,0 -10.18,1.13672 -14.35,3.39844 -4.17,2.26953 -7.35,5.43362 -9.51,9.55082 -2.19,4.1015 -3.29,8.5 -3.29,13.2343 0,7.2188 1.95,14.25 5.82,21.086 3.87,6.832 9.18,12.2148 15.93,16.1133 6.77,3.9023 13.57,5.8515 20.45,5.8515 3.22,0 6.83,-0.75 10.83,-2.2812 1.75,-0.6524 3.04,-0.9844 3.8,-0.9844 0.78,0 1.47,0.1641 2.07,0.4805 0.59,0.3359 1.55,1.2695 2.92,2.7851 h 1.81" /><path
         id="path38"
         style="fill:none;stroke:#231f20;stroke-width:5.00029993;stroke-linecap:butt;stroke-linejoin:miter;stroke-miterlimit:2.61310005;stroke-dasharray:none;stroke-opacity:1"
         d="m 1064.43,167.363 c 121.12,9.075 220.6,-10.09 298.41,-57.48" /></g></g></svg>