<?xml version="1.0" encoding="UTF-8" standalone="no"?>
<svg
   xmlns:dc="http://purl.org/dc/elements/1.1/"
   xmlns:cc="http://creativecommons.org/ns#"
   xmlns:rdf="http://www.w3.org/1999/02/22-rdf-syntax-ns#"
   xmlns:svg="http://www.w3.org/2000/svg"
   xmlns="http://www.w3.org/2000/svg"
   viewBox="0 0 104 120"
   height="120"
   width="104"
   xml:space="preserve"
   id="svg2"
   version="1.1"><metadata
     id="metadata8"><rdf:RDF><cc:Work
         rdf:about=""><dc:format>image/svg+xml</dc:format><dc:type
           rdf:resource="http://purl.org/dc/dcmitype/StillImage" /></cc:Work></rdf:RDF></metadata><defs
     id="defs6" /><g
     transform="matrix(1.3333333,0,0,-1.3333333,0,120)"
     id="g10"><g
       transform="scale(0.1)"
       id="g12"><path
         id="path14"
         style="fill:#231f20;fill-opacity:1;fill-rule:nonzero;stroke:none"
         d="m 509.355,539.766 16.118,7.863 h 1.617 v -55.914 c 0,-3.703 0.148,-6.02 0.449,-6.934 0.316,-0.902 0.965,-1.601 1.934,-2.101 0.984,-0.485 2.968,-0.766 5.965,-0.832 v -1.801 h -24.915 v 1.801 c 3.133,0.066 5.149,0.336 6.067,0.816 0.902,0.469 1.531,1.098 1.898,1.898 0.352,0.801 0.535,3.184 0.535,7.153 v 35.75 c 0,4.816 -0.168,7.898 -0.484,9.265 -0.23,1.051 -0.648,1.817 -1.25,2.301 -0.601,0.485 -1.316,0.735 -2.164,0.735 -1.203,0 -2.883,-0.504 -5.035,-1.52 l -0.735,1.52" /><path
         id="path16"
         style="fill:#231f20;fill-opacity:1;fill-rule:nonzero;stroke:none"
         d="m 552.723,533.664 c 1.882,4.449 4.265,7.898 7.152,10.316 2.883,2.434 6.465,3.649 10.766,3.649 5.3,0 9.363,-1.731 12.199,-5.184 2.148,-2.566 3.234,-5.316 3.234,-8.25 0,-4.816 -3.035,-9.797 -9.086,-14.929 4.067,-1.602 7.137,-3.887 9.219,-6.852 2.082,-2.949 3.133,-6.434 3.133,-10.449 0,-5.719 -1.817,-10.684 -5.469,-14.887 -4.746,-5.465 -11.633,-8.199 -20.648,-8.199 -4.465,0 -7.5,0.551 -9.118,1.652 -1.597,1.114 -2.414,2.301 -2.414,3.567 0,0.949 0.383,1.785 1.145,2.5 0.769,0.718 1.687,1.066 2.769,1.066 0.801,0 1.633,-0.133 2.485,-0.383 0.551,-0.168 1.801,-0.769 3.765,-1.781 1.95,-1.035 3.301,-1.637 4.051,-1.836 1.199,-0.367 2.481,-0.531 3.848,-0.531 3.316,0 6.219,1.281 8.668,3.847 2.469,2.567 3.683,5.618 3.683,9.133 0,2.567 -0.566,5.082 -1.699,7.52 -0.847,1.816 -1.785,3.199 -2.781,4.148 -1.402,1.297 -3.32,2.485 -5.77,3.531 -2.433,1.071 -4.933,1.602 -7.464,1.602 h -1.571 v 1.465 c 2.571,0.32 5.153,1.25 7.739,2.785 2.597,1.516 4.48,3.367 5.648,5.516 1.164,2.152 1.75,4.5 1.75,7.066 0,3.367 -1.051,6.066 -3.152,8.133 -2.098,2.07 -4.7,3.101 -7.832,3.101 -5.051,0 -9.25,-2.699 -12.649,-8.097 l -1.601,0.781" /><path
         id="path18"
         style="fill:#231f20;fill-opacity:1;fill-rule:nonzero;stroke:none"
         d="m 644.172,504.465 v -6.934 h -8.883 v -17.484 h -8.07 v 17.484 h -28.012 v 6.25 l 30.715,43.848 h 5.367 v -43.164 z m -16.953,0 v 32.863 l -23.231,-32.863 h 23.231" /><path
         id="path20"
         style="fill:none;stroke:#231f20;stroke-width:7.5005002;stroke-linecap:butt;stroke-linejoin:miter;stroke-miterlimit:2.61310005;stroke-dasharray:none;stroke-opacity:1"
         d="M 572.195,728.48 86.3398,140.805" /><path
         id="path22"
         style="fill:none;stroke:#231f20;stroke-width:7.5005002;stroke-linecap:butt;stroke-linejoin:miter;stroke-miterlimit:2.61310005;stroke-dasharray:none;stroke-opacity:1"
         d="M 598.16,60.1992 424.758,547.066" /><path
         id="path24"
         style="fill:none;stroke:#231f20;stroke-width:7.5005002;stroke-linecap:butt;stroke-linejoin:miter;stroke-miterlimit:2.61310005;stroke-dasharray:none;stroke-opacity:1"
         d="M 90.4219,140.297 601.211,61.5234" /><path
         id="path26"
         style="fill:none;stroke:#231f20;stroke-width:5.00029993;stroke-linecap:butt;stroke-linejoin:miter;stroke-miterlimit:2.61310005;stroke-dasharray:none;stroke-opacity:1"
         d="m 464.191,593.086 c 16.602,-39.5 10.254,-73.828 -19.039,-102.988" /><path
         id="path28"
         style="fill:none;stroke:#231f20;stroke-width:7.5005002;stroke-linecap:butt;stroke-linejoin:miter;stroke-miterlimit:2.61310005;stroke-dasharray:none;stroke-opacity:1"
         d="M 536.055,309.93 487.797,293.375" /><path
         id="path30"
         style="fill:none;stroke:#231f20;stroke-width:7.5005002;stroke-linecap:butt;stroke-linejoin:miter;stroke-miterlimit:2.61310005;stroke-dasharray:none;stroke-opacity:1"
         d="m 257.102,387.121 41.921,-29.187" /><path
         id="path32"
         style="fill:#231f20;fill-opacity:1;fill-rule:nonzero;stroke:none"
         d="M 662.309,38.5156 678.711,13.168 c 2.934,-4.48441 5.367,-7.36722 7.281,-8.61722 1.918,-1.25 4.449,-1.88281 7.57,-1.88281 l -0.535,-1.800782 h -28.23 l 0.445,1.800782 c 2.25,0.23047 3.836,0.76562 4.75,1.61719 0.934,0.84765 1.403,1.79687 1.403,2.88281 0,0.98047 -0.168,1.91797 -0.485,2.83203 -0.265,0.6484 -1.215,2.25 -2.832,4.7852 l -13.433,21.0507 -6.5,-21.9336 c -1.071,-3.5195 -1.602,-5.86714 -1.602,-7.08589 0,-1.23047 0.449,-2.16407 1.367,-2.81641 0.902,-0.66797 3.152,-1.10156 6.735,-1.33203 l -0.786,-1.800782 h -26.168 l 0.637,1.800782 c 2.535,0.06641 4.25,0.30078 5.133,0.68359 1.301,0.60156 2.25,1.34766 2.867,2.25 0.852,1.33203 1.899,4.09766 3.133,8.30074 l 11.664,39.9961 c 0.887,3.0508 1.32,5.5196 1.32,7.3672 0,1.3008 -0.418,2.3008 -1.234,2.9844 -0.832,0.6836 -2.449,1.0156 -4.867,1.0156 h -0.985 l 0.602,1.8164 h 24.848 l -0.497,-1.8164 c -2.054,0.0352 -3.57,-0.1836 -4.585,-0.6836 -1.399,-0.6797 -2.418,-1.5664 -3.067,-2.6328 -0.664,-1.0664 -1.613,-3.7656 -2.883,-8.0508 l -5.132,-16.9961 23.531,17.7305 c 3.133,2.336 5.183,4.1992 6.148,5.5703 0.586,0.8321 0.887,1.5977 0.887,2.2813 0,0.582 -0.301,1.1679 -0.899,1.7148 -0.601,0.5508 -1.515,0.9024 -2.769,1.0664 l 0.5,1.8164 h 21.184 l -0.434,-1.8164 c -2.316,-0.3828 -4.266,-0.8984 -5.832,-1.5312 -1.582,-0.6328 -3.203,-1.5 -4.867,-2.6172 -0.485,-0.3164 -3.668,-2.7344 -9.516,-7.2188 L 662.309,38.5156" /><path
         id="path34"
         style="fill:#231f20;fill-opacity:1;fill-rule:nonzero;stroke:none"
         d="m 365.824,611.879 20.449,-51.914 11.082,38.781 c 0.922,3.184 1.368,5.652 1.368,7.418 0,1.199 -0.414,2.148 -1.262,2.832 -0.852,0.684 -2.418,1.016 -4.734,1.016 -0.383,0 -0.801,0.015 -1.219,0.05 l 0.535,1.817 h 21.281 l -0.582,-1.817 c -2.219,0.036 -3.851,-0.183 -4.933,-0.683 -1.536,-0.684 -2.668,-1.567 -3.414,-2.633 -1.036,-1.531 -2.102,-4.199 -3.172,-8 l -15.582,-54.598 h -1.746 l -22.036,55.868 -11.765,-41.266 c -0.867,-3.121 -1.321,-5.52 -1.321,-7.172 0,-1.25 0.403,-2.18 1.2,-2.812 0.804,-0.637 2.703,-1.071 5.683,-1.301 l -0.48,-1.801 h -20.801 l 0.684,1.801 c 2.597,0.066 4.351,0.301 5.234,0.683 1.332,0.598 2.316,1.348 2.965,2.297 0.949,1.434 2.004,4.203 3.183,8.305 l 13.133,46.047 c -1.265,1.949 -2.633,3.301 -4.082,4.031 -1.449,0.719 -3.699,1.137 -6.769,1.234 l 0.554,1.817 h 16.547" /><path
         id="path36"
         style="fill:none;stroke:#231f20;stroke-width:5.00029993;stroke-linecap:butt;stroke-linejoin:miter;stroke-miterlimit:2.61310005;stroke-dasharray:none;stroke-opacity:1"
         d="m 652.535,583.812 c 7.164,0 12.977,-5.808 12.977,-12.976 0,-7.164 -5.813,-12.973 -12.977,-12.973 -7.164,0 -12.976,5.809 -12.976,12.973 0,7.168 5.812,12.976 12.976,12.976 z" /><path
         id="path38"
         style="fill:#231f20;fill-opacity:1;fill-rule:nonzero;stroke:none"
         d="m 44.4414,190.199 6.1172,-53.332 38.418,53.332 h 16.1644 v -1.816 c -3.516,-0.215 -5.5824,-0.449 -6.1996,-0.684 -1.082,-0.414 -2.0664,-1.265 -2.9492,-2.531 -0.8984,-1.27 -1.8672,-3.719 -2.918,-7.336 l -12.2461,-41.98 c -0.7187,-2.45 -1.0703,-4.368 -1.0703,-5.766 0,-1.27 0.4336,-2.234 1.3164,-2.883 1.2344,-0.933 3.1836,-1.418 5.8516,-1.418 h 1.1836 l -0.4532,-1.801 H 59.7773 l 0.5,1.801 h 1.3125 c 2.4688,0 4.3516,0.363 5.6719,1.082 0.9961,0.516 1.8985,1.5 2.6953,2.949 0.8008,1.45 1.918,4.668 3.3516,9.653 L 84.2422,177.832 45.625,123.984 h -1.9492 l -6.2149,53.848 -11.8164,-40.965 c -1.0039,-3.484 -1.5,-5.816 -1.5,-7.015 0,-1.219 0.4336,-2.133 1.3125,-2.766 0.8672,-0.637 3.0039,-1.07 6.4024,-1.301 l -0.5508,-1.801 H 9.49219 l 0.53511,1.801 h 1.3165 c 3.2148,0 5.5468,0.817 6.9843,2.449 1.0313,1.168 2.1289,3.715 3.2657,7.618 l 14.414,49.367 c -1.082,1.097 -2.0976,1.851 -3.082,2.25 -0.9844,0.383 -2.7852,0.699 -5.4141,0.914 l 0.4805,1.816 h 16.4492" /><path
         id="path40"
         style="fill:#ffffff;fill-opacity:1;fill-rule:evenodd;stroke:none"
         d="M 622.641,829.672 H 779.36 v 65.1055 H 622.641 Z" /></g></g></svg>