<?xml version="1.0" encoding="UTF-8" standalone="no"?>
<svg
   xmlns:dc="http://purl.org/dc/elements/1.1/"
   xmlns:cc="http://creativecommons.org/ns#"
   xmlns:rdf="http://www.w3.org/1999/02/22-rdf-syntax-ns#"
   xmlns:svg="http://www.w3.org/2000/svg"
   xmlns="http://www.w3.org/2000/svg"
   viewBox="0 0 161.33333 74.666664"
   height="74.666664"
   width="161.33333"
   xml:space="preserve"
   id="svg2"
   version="1.1"><metadata
     id="metadata8"><rdf:RDF><cc:Work
         rdf:about=""><dc:format>image/svg+xml</dc:format><dc:type
           rdf:resource="http://purl.org/dc/dcmitype/StillImage" /></cc:Work></rdf:RDF></metadata><defs
     id="defs6" /><g
     transform="matrix(1.3333333,0,0,-1.3333333,0,74.666667)"
     id="g10"><g
       transform="scale(0.1)"
       id="g12"><path
         id="path14"
         style="fill:#231f20;fill-opacity:1;fill-rule:nonzero;stroke:none"
         d="M 1204.63,70.0625 1199.6,15 c -0.27,-2.5859 -0.39,-4.2695 -0.39,-5.08594 0,-1.29687 0.24,-2.29687 0.74,-2.98047 0.62,-0.93359 1.45,-1.63281 2.5,-2.10156 1.07,-0.44922 2.85,-0.68359 5.35,-0.68359 l -0.53,-1.80078 h -26.07 l 0.53,1.80078 h 1.12 c 2.11,0 3.85,0.46875 5.19,1.36718 0.92,0.63282 1.66,1.64844 2.19,3.08204 0.35,1.01953 0.7,3.38284 1.02,7.13284 l 0.79,8.4023 h -18.95 L 1166.35,15 c -1.53,-2.0547 -2.48,-3.5352 -2.89,-4.418 -0.38,-0.89841 -0.58,-1.73434 -0.58,-2.51559 0,-1.05079 0.42,-1.9336 1.27,-2.6836 0.85,-0.75 2.25,-1.16797 4.2,-1.23437 l -0.53,-1.80078 h -19.59 l 0.54,1.80078 c 2.41,0.09765 4.53,0.91406 6.38,2.41797 1.83,1.51562 4.56,4.74999 8.22,9.69919 l 39.54,53.7969 z m -9.66,-16.25 -19.2,-26.1133 h 16.65 l 2.55,26.1133" /><path
         id="path16"
         style="fill:none;stroke:#231f20;stroke-width:7.5005002;stroke-linecap:butt;stroke-linejoin:miter;stroke-miterlimit:2.61310005;stroke-dasharray:none;stroke-opacity:1"
         d="M 354.797,461.07 1132.2,34.4219" /><path
         id="path18"
         style="fill:none;stroke:#231f20;stroke-width:7.5005002;stroke-linecap:butt;stroke-linejoin:miter;stroke-miterlimit:2.61310005;stroke-dasharray:none;stroke-opacity:1"
         d="M 359.484,460.219 126.711,36.0781" /><path
         id="path20"
         style="fill:none;stroke:#231f20;stroke-width:7.5005002;stroke-linecap:butt;stroke-linejoin:miter;stroke-miterlimit:2.61310005;stroke-dasharray:none;stroke-opacity:1"
         d="M 128.234,38.0938 1132.2,34.4219" /><path
         id="path22"
         style="fill:#231f20;fill-opacity:1;fill-rule:nonzero;stroke:none"
         d="m 24.2148,66.0234 0.6836,1.8164 h 23.6368 c 3.9648,0 7.496,-0.6171 10.6132,-1.8671 3.1016,-1.2305 5.4336,-2.9454 6.9844,-5.1641 1.5508,-2.2148 2.3164,-4.5664 2.3164,-7.0352 0,-3.8164 -1.3828,-7.2461 -4.1328,-10.332 -2.75,-3.0664 -7.2344,-5.3476 -13.4492,-6.8008 4.0156,-1.5 6.9492,-3.4844 8.8516,-5.9648 1.8789,-2.4688 2.8281,-5.1836 2.8281,-8.1524 0,-3.2812 -0.8477,-6.4296 -2.5469,-9.4336 C 58.3164,10.1094 56.1328,7.77734 53.4844,6.125 50.832,4.46094 47.6328,3.24219 43.8828,2.45703 41.2148,1.91016 37.0469,1.625 31.3828,1.625 H 7.11719 L 7.75,3.42578 c 2.5508,0.06641 4.2656,0.31641 5.1836,0.73438 1.3008,0.5664 2.2305,1.29687 2.7852,2.19922 0.7812,1.23437 1.8124,4.06642 3.1132,8.49612 l 11.8672,40.0859 c 1.0156,3.3828 1.5156,5.7656 1.5156,7.1328 0,1.1992 -0.4453,2.1524 -1.332,2.8516 -0.8984,0.6992 -2.5976,1.0469 -5.1172,1.0469 -0.5468,0 -1.0664,0.0195 -1.5508,0.0507 z m 9.9024,-27.4843 c 2.1133,-0.0625 3.6484,-0.0977 4.5976,-0.0977 6.7696,0 11.8008,1.4688 15.1172,4.418 3.3008,2.9492 4.9532,6.6328 4.9532,11.0625 0,3.3515 -1.0196,5.9687 -3.0352,7.8359 -2.0156,1.8672 -5.2344,2.8008 -9.668,2.8008 -1.164,0 -2.664,-0.1836 -4.4804,-0.582 z M 24.5,5.92578 c 3.5195,-0.46875 6.2656,-0.68359 8.25,-0.68359 5.082,0 9.582,1.53515 13.5,4.58203 3.9336,3.07028 5.8828,7.21878 5.8828,12.45308 0,3.9961 -1.1992,7.1289 -3.6328,9.3789 -2.418,2.254 -6.332,3.3711 -11.7305,3.3711 -1.0547,0 -2.3203,-0.0546 -3.8203,-0.1523 L 24.5,5.92578" /><path
         id="path24"
         style="fill:#231f20;fill-opacity:1;fill-rule:nonzero;stroke:none"
         d="m 405.484,559.113 -4.933,-21.433 h -1.77 l -0.179,5.382 c -0.168,1.95 -0.551,3.684 -1.133,5.215 -0.586,1.535 -1.469,2.852 -2.633,3.985 -1.168,1.117 -2.652,2 -4.453,2.636 -1.781,0.629 -3.766,0.95 -5.949,0.95 -5.832,0 -10.914,-1.602 -15.286,-4.786 -5.566,-4.066 -9.929,-9.816 -13.082,-17.234 -2.597,-6.117 -3.914,-12.316 -3.914,-18.598 0,-6.418 1.879,-11.535 5.614,-15.367 3.75,-3.82 8.617,-5.734 14.601,-5.734 4.531,0 8.567,1.016 12.086,3.031 3.531,2.02 6.817,5.117 9.848,9.32 h 2.281 c -3.566,-5.703 -7.547,-9.886 -11.898,-12.566 -4.368,-2.684 -9.602,-4.035 -15.684,-4.035 -5.398,0 -10.184,1.133 -14.348,3.398 -4.168,2.27 -7.351,5.434 -9.515,9.551 -2.188,4.102 -3.285,8.5 -3.285,13.234 0,7.219 1.949,14.25 5.816,21.083 3.863,6.832 9.184,12.214 15.934,16.117 6.765,3.898 13.566,5.851 20.449,5.851 3.215,0 6.832,-0.75 10.832,-2.285 1.75,-0.648 3.035,-0.98 3.801,-0.98 0.781,0 1.464,0.164 2.066,0.48 0.586,0.336 1.551,1.266 2.918,2.785 h 1.816" /><path
         id="path26"
         style="fill:none;stroke:#231f20;stroke-width:5.00029993;stroke-linecap:butt;stroke-linejoin:miter;stroke-miterlimit:2.61310005;stroke-dasharray:none;stroke-opacity:1"
         d="m 335.723,414.102 23.324,44.246 44.301,-23.356 -23.328,-44.246 z" /></g></g></svg>