<?xml version="1.0" encoding="UTF-8" standalone="no"?>
<svg
   xmlns:dc="http://purl.org/dc/elements/1.1/"
   xmlns:cc="http://creativecommons.org/ns#"
   xmlns:rdf="http://www.w3.org/1999/02/22-rdf-syntax-ns#"
   xmlns:svg="http://www.w3.org/2000/svg"
   xmlns="http://www.w3.org/2000/svg"
   viewBox="0 0 165.33333 85.333336"
   height="85.333336"
   width="165.33333"
   xml:space="preserve"
   id="svg2"
   version="1.1"><metadata
     id="metadata8"><rdf:RDF><cc:Work
         rdf:about=""><dc:format>image/svg+xml</dc:format><dc:type
           rdf:resource="http://purl.org/dc/dcmitype/StillImage" /></cc:Work></rdf:RDF></metadata><defs
     id="defs6" /><g
     transform="matrix(1.3333333,0,0,-1.3333333,0,85.333333)"
     id="g10"><g
       transform="scale(0.1)"
       id="g12"><path
         id="path14"
         style="fill:#231f20;fill-opacity:1;fill-rule:nonzero;stroke:none"
         d="M 299.762,81.0938 294.73,26.0273 c -0.269,-2.5859 -0.382,-4.2695 -0.382,-5.0859 0,-1.2969 0.23,-2.2969 0.734,-2.9805 0.613,-0.9336 1.445,-1.6328 2.5,-2.1015 1.066,-0.4492 2.848,-0.6836 5.348,-0.6836 l -0.532,-1.8008 h -26.07 l 0.535,1.8008 h 1.117 c 2.118,0 3.852,0.4687 5.184,1.3672 0.934,0.6328 1.668,1.6484 2.199,3.082 0.348,1.0195 0.699,3.3828 1.02,7.1328 l 0.781,8.4024 h -18.949 l -6.735,-9.1329 c -1.531,-2.0507 -2.484,-3.5351 -2.882,-4.4179 -0.383,-0.8985 -0.586,-1.7344 -0.586,-2.5156 0,-1.0508 0.418,-1.9336 1.269,-2.6836 0.848,-0.75 2.25,-1.1641 4.199,-1.2344 l -0.531,-1.8008 h -19.586 l 0.532,1.8008 c 2.417,0.1015 4.539,0.918 6.386,2.418 1.832,1.5156 4.567,4.75 8.215,9.6992 l 39.551,53.8008 z m -9.664,-16.254 -19.203,-26.1132 h 16.652 l 2.551,26.1132" /><path
         id="path16"
         style="fill:none;stroke:#231f20;stroke-width:7.5005002;stroke-linecap:butt;stroke-linejoin:miter;stroke-miterlimit:2.61310005;stroke-dasharray:none;stroke-opacity:1"
         d="M 8.20312,106.434 H 1238.62" /><path
         id="path18"
         style="fill:none;stroke:#231f20;stroke-width:7.5005002;stroke-linecap:butt;stroke-linejoin:miter;stroke-miterlimit:2.61310005;stroke-dasharray:none;stroke-opacity:1"
         d="M 677.156,552.273 304.711,108.406" /><path
         id="path20"
         style="fill:none;stroke:#231f20;stroke-width:7.5005002;stroke-linecap:butt;stroke-linejoin:miter;stroke-miterlimit:2.61310005;stroke-dasharray:none;stroke-opacity:1"
         d="M 1045.44,109.91 672.992,553.781" /><path
         id="path22"
         style="fill:none;stroke:#231f20;stroke-width:7.5005002;stroke-linecap:butt;stroke-linejoin:miter;stroke-miterlimit:2.61310005;stroke-dasharray:none;stroke-opacity:1"
         d="m 475.355,360.945 48.676,-37.488" /><path
         id="path24"
         style="fill:none;stroke:#231f20;stroke-width:7.5005002;stroke-linecap:butt;stroke-linejoin:miter;stroke-miterlimit:2.61310005;stroke-dasharray:none;stroke-opacity:1"
         d="m 817.594,334.703 46.429,38.985" /><path
         id="path26"
         style="fill:#231f20;fill-opacity:1;fill-rule:nonzero;stroke:none"
         d="m 1085.29,73.7266 -4.93,-21.4297 h -1.77 l -0.19,5.3828 c -0.16,1.9492 -0.54,3.6797 -1.13,5.2148 -0.58,1.5313 -1.47,2.8516 -2.63,3.9844 -1.17,1.1133 -2.66,2 -4.45,2.6328 -1.79,0.6328 -3.77,0.9492 -5.95,0.9492 -5.84,0 -10.92,-1.6015 -15.29,-4.7851 -5.56,-4.0625 -9.93,-9.8164 -13.08,-17.2305 -2.6,-6.1172 -3.92,-12.3164 -3.92,-18.6015 0,-6.4141 1.89,-11.5313 5.62,-15.3633 3.75,-3.8203 8.62,-5.73441 14.6,-5.73441 4.53,0 8.56,1.01563 12.08,3.03121 3.54,2.0196 6.82,5.1172 9.86,9.3165 h 2.28 c -3.57,-5.6993 -7.55,-9.8829 -11.91,-12.56646 -4.36,-2.68359 -9.59,-4.03125 -15.68,-4.03125 -5.4,0 -10.18,1.13282 -14.35,3.39844 -4.16,2.26567 -7.35,5.43357 -9.51,9.55077 -2.19,4.1016 -3.29,8.5 -3.29,13.2344 0,7.2148 1.95,14.25 5.82,21.082 3.87,6.8321 9.18,12.2149 15.93,16.1172 6.77,3.8984 13.57,5.8477 20.46,5.8477 3.21,0 6.82,-0.7461 10.82,-2.2813 1.76,-0.6523 3.04,-0.9844 3.8,-0.9844 0.79,0 1.47,0.1641 2.07,0.4844 0.59,0.332 1.55,1.2656 2.92,2.7813 h 1.82" /><path
         id="path28"
         style="fill:#231f20;fill-opacity:1;fill-rule:nonzero;stroke:none"
         d="m 664.449,636.168 0.684,1.816 h 23.637 c 3.964,0 7.496,-0.617 10.613,-1.867 3.101,-1.234 5.433,-2.949 6.984,-5.164 1.547,-2.219 2.317,-4.57 2.317,-7.039 0,-3.812 -1.383,-7.246 -4.133,-10.332 -2.754,-3.066 -7.235,-5.348 -13.449,-6.797 4.015,-1.5 6.949,-3.484 8.847,-5.969 1.883,-2.464 2.832,-5.179 2.832,-8.148 0,-3.285 -0.847,-6.434 -2.547,-9.434 -1.683,-2.984 -3.867,-5.316 -6.515,-6.964 -2.653,-1.668 -5.852,-2.887 -9.602,-3.668 -2.668,-0.551 -6.836,-0.832 -12.5,-0.832 h -24.265 l 0.632,1.796 c 2.551,0.071 4.266,0.321 5.184,0.735 1.297,0.566 2.23,1.301 2.785,2.199 0.781,1.234 1.813,4.066 3.113,8.5 l 11.868,40.082 c 1.015,3.387 1.515,5.766 1.515,7.137 0,1.199 -0.449,2.148 -1.332,2.847 -0.898,0.7 -2.601,1.051 -5.117,1.051 -0.551,0 -1.066,0.016 -1.551,0.051 z m 9.903,-27.484 c 2.113,-0.067 3.648,-0.102 4.597,-0.102 6.77,0 11.801,1.469 15.117,4.418 3.297,2.949 4.954,6.633 4.954,11.066 0,3.352 -1.02,5.965 -3.04,7.836 -2.015,1.864 -5.23,2.801 -9.664,2.801 -1.164,0 -2.664,-0.187 -4.48,-0.586 z m -9.618,-32.618 c 3.516,-0.464 6.266,-0.683 8.25,-0.683 5.082,0 9.582,1.535 13.5,4.586 3.934,3.066 5.883,7.215 5.883,12.449 0,4 -1.203,7.133 -3.633,9.383 -2.418,2.25 -6.332,3.367 -11.734,3.367 -1.051,0 -2.316,-0.051 -3.816,-0.152 l -8.45,-28.95" /><path
         id="path30"
         style="fill:none;stroke:#231f20;stroke-width:5.00029993;stroke-linecap:butt;stroke-linejoin:miter;stroke-miterlimit:2.61310005;stroke-dasharray:none;stroke-opacity:1"
         d="m 1134.18,108.527 c -27.94,37.965 -70.85,54.946 -128.72,50.95" /></g></g></svg>