<?xml version="1.0" encoding="UTF-8" standalone="no"?>
<svg
   xmlns:dc="http://purl.org/dc/elements/1.1/"
   xmlns:cc="http://creativecommons.org/ns#"
   xmlns:rdf="http://www.w3.org/1999/02/22-rdf-syntax-ns#"
   xmlns:svg="http://www.w3.org/2000/svg"
   xmlns="http://www.w3.org/2000/svg"
   viewBox="0 0 224 170.66667"
   height="170.66667"
   width="224"
   xml:space="preserve"
   id="svg2"
   version="1.1"><metadata
     id="metadata8"><rdf:RDF><cc:Work
         rdf:about=""><dc:format>image/svg+xml</dc:format><dc:type
           rdf:resource="http://purl.org/dc/dcmitype/StillImage" /></cc:Work></rdf:RDF></metadata><defs
     id="defs6" /><g
     transform="matrix(1.3333333,0,0,-1.3333333,0,170.66667)"
     id="g10"><g
       transform="scale(0.1)"
       id="g12"><path
         id="path14"
         style="fill:#231f20;fill-opacity:1;fill-rule:nonzero;stroke:none"
         d="m 1613.52,1270.63 0.61,1.91 h 22.21 c 9.39,0 16.36,-1.08 20.87,-3.24 4.54,-2.15 8.16,-5.55 10.85,-10.17 2.7,-4.63 4.06,-9.6 4.06,-14.9 0,-4.53 -0.78,-8.96 -2.34,-13.25 -1.56,-4.29 -3.31,-7.72 -5.28,-10.31 -1.96,-2.57 -4.97,-5.42 -9.05,-8.54 -4.06,-3.09 -8.47,-5.4 -13.22,-6.89 -4.75,-1.49 -10.69,-2.22 -17.79,-2.22 H 1595 l 0.67,1.89 c 2.71,0.06 4.51,0.31 5.44,0.71 1.37,0.6 2.38,1.38 3.03,2.36 0.98,1.44 2.1,4.32 3.32,8.66 l 12.31,42.06 c 0.96,3.3 1.43,5.91 1.43,7.78 0,1.33 -0.44,2.37 -1.33,3.09 -0.89,0.71 -2.62,1.06 -5.23,1.06 z m 18.2,-1.94 -15.07,-52.05 c -1.14,-3.88 -1.7,-6.29 -1.7,-7.22 0,-0.54 0.18,-1.07 0.55,-1.59 0.35,-0.51 0.84,-0.85 1.45,-1.02 0.89,-0.31 2.33,-0.47 4.3,-0.47 5.37,0 10.36,0.56 14.95,1.68 4.6,1.1 8.36,2.75 11.3,4.94 4.18,3.18 7.51,7.55 10.01,13.12 2.49,5.58 3.73,11.92 3.73,19.02 0,8.03 -1.91,14.02 -5.74,17.92 -3.82,3.92 -9.41,5.88 -16.76,5.88 -1.81,0 -4.15,-0.07 -7.02,-0.21" /><path
         id="path16"
         style="fill:#231f20;fill-opacity:1;fill-rule:nonzero;stroke:none"
         d="m 527.117,75.9336 -5.183,-22.5039 h -1.852 l -0.195,5.6523 c -0.176,2.0469 -0.578,3.8672 -1.192,5.4766 -0.609,1.6094 -1.539,2.9922 -2.761,4.1836 -1.227,1.1719 -2.786,2.0976 -4.676,2.7617 -1.871,0.668 -3.953,1 -6.246,1 -6.121,0 -11.461,-1.6836 -16.047,-5.0234 -5.844,-4.2696 -10.43,-10.3086 -13.735,-18.0938 -2.73,-6.4219 -4.113,-12.9297 -4.113,-19.5312 0,-6.7383 1.977,-12.1094 5.899,-16.1328 3.937,-4.00786 9.043,-6.01958 15.328,-6.01958 4.758,0 8.996,1.06641 12.687,3.18358 3.707,2.1172 7.157,5.3711 10.34,9.7813 h 2.399 C 514.027,14.6875 509.844,10.293 505.273,7.47656 500.691,4.65625 495.195,3.23828 488.809,3.23828 c -5.668,0 -10.692,1.19141 -15.067,3.57422 -4.375,2.37891 -7.719,5.7031 -9.992,10.0234 -2.293,4.3086 -3.449,8.9258 -3.449,13.8985 0,7.5742 2.047,14.9609 6.109,22.1328 4.059,7.1758 9.641,12.8281 16.731,16.9219 7.101,4.0976 14.242,6.1445 21.468,6.1445 3.379,0 7.176,-0.7891 11.375,-2.3984 1.836,-0.6836 3.188,-1.0313 3.993,-1.0313 0.82,0 1.539,0.1758 2.168,0.5078 0.613,0.3477 1.625,1.3281 3.062,2.9219 h 1.91" /><path
         id="path18"
         style="fill:#231f20;fill-opacity:1;fill-rule:nonzero;stroke:none"
         d="m 504.25,1130.93 -5.281,-57.82 c -0.281,-2.71 -0.403,-4.48 -0.403,-5.34 0,-1.36 0.243,-2.41 0.77,-3.13 0.648,-0.98 1.523,-1.71 2.625,-2.2 1.121,-0.48 2.992,-0.72 5.617,-0.72 l -0.558,-1.89 h -27.372 l 0.559,1.89 h 1.176 c 2.222,0 4.043,0.49 5.437,1.43 0.981,0.67 1.754,1.74 2.313,3.24 0.367,1.07 0.738,3.55 1.066,7.49 l 0.824,8.82 h -19.898 l -7.066,-9.59 c -1.614,-2.15 -2.61,-3.71 -3.028,-4.64 -0.402,-0.94 -0.613,-1.82 -0.613,-2.64 0,-1.1 0.437,-2.03 1.328,-2.81 0.895,-0.79 2.363,-1.23 4.41,-1.3 l -0.558,-1.89 h -20.563 l 0.559,1.89 c 2.539,0.1 4.761,0.96 6.703,2.53 1.926,1.6 4.797,4.99 8.629,10.19 l 41.523,56.49 z m -10.145,-17.06 -20.16,-27.42 h 17.481 l 2.679,27.42" /><path
         id="path20"
         style="fill:none;stroke:#231f20;stroke-width:7.5005002;stroke-linecap:butt;stroke-linejoin:miter;stroke-miterlimit:2.61310005;stroke-dasharray:none;stroke-opacity:1"
         d="M 501.312,1031.86 V 100.398" /><path
         id="path22"
         style="fill:none;stroke:#231f20;stroke-width:7.5005002;stroke-linecap:butt;stroke-linejoin:miter;stroke-miterlimit:2.61310005;stroke-dasharray:none;stroke-opacity:1"
         d="M 500.035,1028.9 1032.31,642.18" /><path
         id="path24"
         style="fill:none;stroke:#231f20;stroke-width:7.5005002;stroke-linecap:butt;stroke-linejoin:miter;stroke-miterlimit:2.61310005;stroke-dasharray:none;stroke-opacity:1"
         d="M 1564.39,1195.25 505.484,98.7148" /><path
         id="path26"
         style="fill:none;stroke:#231f20;stroke-width:7.5005002;stroke-linecap:butt;stroke-linejoin:miter;stroke-miterlimit:2.61310005;stroke-dasharray:none;stroke-opacity:1"
         d="M 161.121,322.875 C 28.043,547.43 102.23,837.457 326.789,970.535 551.344,1103.61 841.367,1029.43 974.445,804.871 1107.52,580.316 1033.34,290.289 808.777,157.211 584.223,24.1367 294.195,98.3242 161.121,322.875 Z" /><path
         id="path28"
         style="fill:none;stroke:#231f20;stroke-width:7.5005002;stroke-linecap:butt;stroke-linejoin:miter;stroke-miterlimit:2.61310005;stroke-dasharray:none;stroke-opacity:1"
         d="M 4.50391,957.102 1561.09,1198.02" /><path
         id="path30"
         style="fill:#231f20;fill-opacity:1;fill-rule:nonzero;stroke:none"
         d="m 567.277,852.992 -4.007,-8.715 h -20.911 l -4.566,-9.343 c 9.062,-1.332 16.238,-4.692 21.523,-10.098 4.547,-4.637 6.825,-10.113 6.825,-16.395 0,-3.66 -0.739,-7.054 -2.223,-10.152 -1.488,-3.113 -3.359,-5.758 -5.617,-7.945 -2.258,-2.188 -4.778,-3.953 -7.543,-5.285 -3.922,-1.891 -7.961,-2.817 -12.094,-2.817 -4.18,0 -7.207,0.699 -9.098,2.117 -1.906,1.418 -2.851,2.996 -2.851,4.688 0,0.965 0.402,1.805 1.172,2.543 0.785,0.734 1.785,1.098 2.976,1.098 0.891,0 1.68,-0.122 2.344,-0.403 0.664,-0.277 1.801,-0.976 3.41,-2.097 2.555,-1.786 5.145,-2.68 7.789,-2.68 3.989,0 7.508,1.523 10.535,4.551 3.028,3.027 4.532,6.703 4.532,11.043 0,4.199 -1.348,8.121 -4.039,11.757 -2.715,3.641 -6.426,6.457 -11.184,8.438 -3.727,1.539 -8.805,2.43 -15.227,2.676 l 13.336,27.019 h 24.918" /><path
         id="path32"
         style="fill:#231f20;fill-opacity:1;fill-rule:nonzero;stroke:none"
         d="m 623.047,809.105 v -7.281 h -9.328 v -18.355 h -8.469 v 18.355 h -29.418 v 6.563 l 32.254,46.043 h 5.633 v -45.325 z m -17.797,0 v 34.508 l -24.395,-34.508 h 24.395" /><path
         id="path34"
         style="fill:none;stroke:#231f20;stroke-width:5.00029993;stroke-linecap:butt;stroke-linejoin:miter;stroke-miterlimit:2.61310005;stroke-dasharray:none;stroke-opacity:1"
         d="m 626.906,896.949 c 9.211,0 16.68,-7.812 16.68,-17.441 0,-9.633 -7.469,-17.442 -16.68,-17.442 -9.215,0 -16.683,7.809 -16.683,17.442 0,9.629 7.468,17.441 16.683,17.441 z" /><path
         id="path36"
         style="fill:none;stroke:#231f20;stroke-width:5.00029993;stroke-linecap:butt;stroke-linejoin:miter;stroke-miterlimit:2.61310005;stroke-dasharray:none;stroke-opacity:1"
         d="m 503.723,918.598 c 38.839,-14.301 71.16,-1.008 96.968,39.882" /><path
         id="path38"
         style="fill:#231f20;fill-opacity:1;fill-rule:nonzero;stroke:none"
         d="m 1071.64,660.949 0.72,1.906 h 24.81 c 4.16,0 7.87,-0.648 11.15,-1.96 3.25,-1.293 5.7,-3.098 7.33,-5.422 1.63,-2.328 2.43,-4.797 2.43,-7.387 0,-4.008 -1.45,-7.613 -4.34,-10.852 -2.88,-3.218 -7.6,-5.613 -14.12,-7.136 4.22,-1.575 7.3,-3.66 9.29,-6.266 1.98,-2.59 2.98,-5.445 2.98,-8.555 0,-3.449 -0.9,-6.757 -2.68,-9.906 -1.77,-3.133 -4.06,-5.582 -6.84,-7.316 -2.78,-1.75 -6.14,-3.028 -10.08,-3.848 -2.8,-0.578 -7.18,-0.875 -13.13,-0.875 h -25.48 l 0.67,1.891 c 2.68,0.066 4.48,0.332 5.44,0.765 1.37,0.598 2.35,1.367 2.92,2.313 0.83,1.293 1.91,4.269 3.27,8.926 l 12.47,42.085 c 1.06,3.551 1.59,6.055 1.59,7.489 0,1.261 -0.47,2.258 -1.4,2.992 -0.95,0.734 -2.73,1.102 -5.37,1.102 -0.58,0 -1.13,0.019 -1.63,0.054 z m 10.39,-28.859 c 2.22,-0.067 3.83,-0.106 4.83,-0.106 7.1,0 12.39,1.543 15.87,4.641 3.47,3.098 5.2,6.965 5.2,11.617 0,3.52 -1.07,6.27 -3.18,8.227 -2.12,1.957 -5.5,2.937 -10.15,2.937 -1.22,0 -2.8,-0.191 -4.71,-0.609 z m -10.09,-34.242 c 3.69,-0.493 6.58,-0.719 8.66,-0.719 5.34,0 10.06,1.609 14.17,4.809 4.13,3.222 6.18,7.578 6.18,13.074 0,4.203 -1.26,7.488 -3.81,9.855 -2.54,2.36 -6.66,3.535 -12.32,3.535 -1.11,0 -2.44,-0.054 -4.01,-0.16 l -8.87,-30.394" /><path
         id="path40"
         style="fill:#231f20;fill-opacity:1;fill-rule:nonzero;stroke:none"
         d="m 818.004,617.734 c -5.496,4.516 -9.051,8.137 -10.641,10.868 -1.574,2.73 -2.379,5.562 -2.379,8.503 0,4.516 1.746,8.403 5.231,11.672 3.48,3.254 8.121,4.903 13.894,4.903 5.602,0 10.118,-1.528 13.528,-4.571 3.429,-3.043 5.125,-6.507 5.125,-10.41 0,-2.594 -0.91,-5.25 -2.762,-7.945 -1.836,-2.695 -5.691,-5.879 -11.535,-9.535 6.019,-4.641 9.996,-8.297 11.953,-10.977 2.59,-3.48 3.883,-7.156 3.883,-11.023 0,-4.883 -1.852,-9.063 -5.582,-12.531 -3.727,-3.461 -8.606,-5.196 -14.66,-5.196 -6.602,0 -11.747,2.063 -15.438,6.196 -2.937,3.324 -4.41,6.945 -4.41,10.867 0,3.082 1.031,6.125 3.117,9.152 2.063,3.027 5.617,6.371 10.676,10.027 z m 8.051,5.477 c 4.109,3.691 6.699,6.613 7.8,8.75 1.086,2.133 1.629,4.547 1.629,7.262 0,3.589 -1,6.39 -3.011,8.418 -2.028,2.047 -4.778,3.062 -8.258,3.062 -3.485,0 -6.317,-1.015 -8.504,-3.027 -2.191,-2.012 -3.293,-4.375 -3.293,-7.071 0,-1.785 0.457,-3.55 1.367,-5.335 0.891,-1.79 2.188,-3.465 3.867,-5.075 z m -5.637,-7.418 c -2.836,-2.398 -4.934,-5.008 -6.301,-7.824 -1.363,-2.821 -2.047,-5.879 -2.047,-9.153 0,-4.41 1.192,-7.945 3.606,-10.586 2.414,-2.644 5.476,-3.972 9.203,-3.972 3.691,0 6.648,1.035 8.871,3.133 2.223,2.082 3.328,4.601 3.328,7.574 0,2.469 -0.652,4.676 -1.941,6.617 -2.438,3.621 -7.336,8.363 -14.719,14.211" /><path
         id="path42"
         style="fill:#231f20;fill-opacity:1;fill-rule:nonzero;stroke:none"
         d="m 898.496,596.105 -4.863,-13.386 h -41.02 v 1.89 c 12.059,11.004 20.563,20 25.481,26.965 4.918,6.981 7.383,13.352 7.383,19.129 0,4.406 -1.344,8.027 -4.059,10.863 -2.695,2.836 -5.914,4.254 -9.676,4.254 -3.43,0 -6.492,-0.996 -9.207,-2.992 -2.711,-1.996 -4.723,-4.933 -6.019,-8.785 h -1.907 c 0.86,6.32 3.043,11.164 6.598,14.559 3.535,3.378 7.941,5.078 13.246,5.078 5.637,0 10.34,-1.825 14.121,-5.446 3.781,-3.621 5.672,-7.89 5.672,-12.808 0,-3.516 -0.824,-7.051 -2.469,-10.571 -2.519,-5.527 -6.632,-11.39 -12.3,-17.585 -8.508,-9.293 -13.825,-14.891 -15.942,-16.817 h 18.149 c 3.687,0 6.281,0.141 7.769,0.418 1.485,0.262 2.832,0.824 4.024,1.664 1.187,0.84 2.238,2.027 3.132,3.57 h 1.887" /><path
         id="path44"
         style="fill:none;stroke:#231f20;stroke-width:5.00029993;stroke-linecap:butt;stroke-linejoin:miter;stroke-miterlimit:2.61310005;stroke-dasharray:none;stroke-opacity:1"
         d="m 916.613,689.359 c 9.211,0 16.68,-7.812 16.68,-17.441 0,-9.633 -7.469,-17.441 -16.68,-17.441 -9.215,0 -16.683,7.808 -16.683,17.441 0,9.629 7.468,17.441 16.683,17.441 z" /><path
         id="path46"
         style="fill:none;stroke:#231f20;stroke-width:5.00029993;stroke-linecap:butt;stroke-linejoin:miter;stroke-miterlimit:2.61310005;stroke-dasharray:none;stroke-opacity:1"
         d="M 974.047,683.273 C 942.477,645.648 936.969,608.02 957.512,570.391" /><path
         id="path48"
         style="fill:none;stroke:#231f20;stroke-width:5.00029993;stroke-linecap:butt;stroke-linejoin:miter;stroke-miterlimit:2.61310005;stroke-dasharray:none;stroke-opacity:1"
         d="m 500.051,939.109 c 31.535,-14.679 59.547,-5.793 84.015,26.676" /></g></g></svg>