<?xml version="1.0" encoding="UTF-8" standalone="no"?>
<svg
   xmlns:dc="http://purl.org/dc/elements/1.1/"
   xmlns:cc="http://creativecommons.org/ns#"
   xmlns:rdf="http://www.w3.org/1999/02/22-rdf-syntax-ns#"
   xmlns:svg="http://www.w3.org/2000/svg"
   xmlns="http://www.w3.org/2000/svg"
   viewBox="0 0 152.86667 108.37333"
   height="108.37333"
   width="152.86667"
   xml:space="preserve"
   id="svg2"
   version="1.1"><metadata
     id="metadata8"><rdf:RDF><cc:Work
         rdf:about=""><dc:format>image/svg+xml</dc:format><dc:type
           rdf:resource="http://purl.org/dc/dcmitype/StillImage" /></cc:Work></rdf:RDF></metadata><defs
     id="defs6" /><g
     transform="matrix(1.3333333,0,0,-1.3333333,0,108.37333)"
     id="g10"><g
       transform="scale(0.1)"
       id="g12"><path
         id="path14"
         style="fill:#000000;fill-opacity:1;fill-rule:evenodd;stroke:none"
         d="M 56.3984,104.734 51.3672,49.6562 c -0.2617,-2.5703 -0.3906,-4.2656 -0.3906,-5.0781 0,-1.3008 0.2461,-2.2929 0.7343,-2.9765 0.6172,-0.9454 1.4571,-1.6446 2.5118,-2.1016 1.0585,-0.457 2.8398,-0.6836 5.3476,-0.6836 L 59.0352,37.0117 H 32.9609 l 0.5352,1.8047 h 1.125 c 2.1133,0 3.8398,0.457 5.1758,1.3672 0.9414,0.6172 1.6758,1.6445 2.1953,3.0781 0.3594,1.0078 0.6992,3.3828 1.0273,7.1289 l 0.7813,8.3985 H 24.8555 l -6.7383,-9.1329 c -1.5313,-2.0507 -2.4922,-3.5234 -2.8828,-4.4179 -0.3906,-0.8945 -0.586,-1.7344 -0.586,-2.5156 0,-1.043 0.4219,-1.9375 1.2696,-2.6836 0.8476,-0.75 2.2461,-1.1563 4.1992,-1.2227 L 19.582,37.0117 H 0 l 0.539062,1.8047 c 2.406248,0.0977 4.531248,0.9024 6.371098,2.418 1.83984,1.5117 4.58204,4.7422 8.22654,9.6914 L 54.6875,104.734 Z M 46.7305,88.4766 27.5391,62.3516 h 16.6523 l 2.5391,26.125" /><path
         id="path16"
         style="fill:#1f1a17;fill-opacity:1;fill-rule:evenodd;stroke:none"
         d="m 334.812,409.059 c 0,-5.344 -4.367,-9.68 -9.746,-9.68 -5.382,0 -9.75,4.336 -9.75,9.68 0,5.347 4.368,9.683 9.75,9.683 5.379,0 9.746,-4.336 9.746,-9.683" /><g
         transform="scale(1.00351,-0.996492)"
         id="g18"><path
           id="path20"
           style="fill:none;stroke:#1f1a17;stroke-width:2.1600101;stroke-linecap:butt;stroke-linejoin:miter;stroke-miterlimit:10;stroke-dasharray:none;stroke-opacity:1"
           d="m 333.642,-410.498 c 0,5.362 -4.352,9.713 -9.712,9.713 -5.364,0 -9.716,-4.351 -9.716,-9.713 0,-5.367 4.352,-9.718 9.716,-9.718 5.36,0 9.712,4.351 9.712,9.718 z" /></g><path
         id="path22"
         style="fill:none;stroke:#000000;stroke-width:9.92000008;stroke-linecap:butt;stroke-linejoin:miter;stroke-miterlimit:10;stroke-dasharray:none;stroke-opacity:1"
         d="m 473.762,99.1289 c 74.05,636.0191 74.05,636.0191 74.05,636.0191" /><path
         id="path24"
         style="fill:none;stroke:#000000;stroke-width:9.92125988;stroke-linecap:butt;stroke-linejoin:miter;stroke-miterlimit:10;stroke-dasharray:none;stroke-opacity:1"
         d="M 86.2383,97.8398 C 1107.57,98.9766 1107.57,98.9766 1107.57,98.9766" /><path
         id="path26"
         style="fill:none;stroke:#000000;stroke-width:9.92000008;stroke-linecap:butt;stroke-linejoin:miter;stroke-miterlimit:10;stroke-dasharray:none;stroke-opacity:1"
         d="M 885.391,104.832 C 319.543,414.953 319.543,414.953 319.543,414.953" /><path
         id="path28"
         style="fill:#000000;fill-opacity:1;fill-rule:evenodd;stroke:none"
         d="m 333.902,414.609 c 0,-7.132 -5.789,-12.918 -12.922,-12.918 -7.132,0 -12.918,5.786 -12.918,12.918 0,7.133 5.786,12.922 12.918,12.922 7.133,0 12.922,-5.789 12.922,-12.922" /><g
         transform="scale(0.9,-1.1)"
         id="g30"><path
           id="path32"
           style="fill:none;stroke:#000000;stroke-width:2.17088008;stroke-linecap:butt;stroke-linejoin:miter;stroke-miterlimit:10;stroke-dasharray:none;stroke-opacity:1"
           d="m 371.003,-376.918 c 0,6.485 -6.433,11.744 -14.358,11.744 -7.925,0 -14.353,-5.259 -14.353,-11.744 0,-6.484 6.428,-11.747 14.353,-11.747 7.925,0 14.358,5.263 14.358,11.747 z" /></g><path
         id="path34"
         style="fill:none;stroke:#000000;stroke-width:9.92000008;stroke-linecap:butt;stroke-linejoin:miter;stroke-miterlimit:10;stroke-dasharray:none;stroke-opacity:1"
         d="M 90.668,98.7227 C 549.047,741.617 549.047,741.617 549.047,741.617" /><path
         id="path36"
         style="fill:#000000;fill-opacity:1;fill-rule:evenodd;stroke:none"
         d="m 260.363,497.883 0.684,1.805 h 23.633 c 3.972,0 7.511,-0.618 10.621,-1.856 3.109,-1.234 5.437,-2.961 6.984,-5.176 1.543,-2.211 2.317,-4.554 2.317,-7.031 0,-3.809 -1.375,-7.25 -4.125,-10.328 -2.75,-3.074 -7.235,-5.344 -13.454,-6.809 4.004,-1.5 6.95,-3.484 8.84,-5.957 1.887,-2.476 2.832,-5.191 2.832,-8.156 0,-3.289 -0.847,-6.43 -2.539,-9.422 -1.695,-2.996 -3.867,-5.324 -6.519,-6.984 -2.653,-1.66 -5.852,-2.879 -9.594,-3.66 -2.672,-0.555 -6.836,-0.832 -12.5,-0.832 h -24.27 l 0.637,1.808 c 2.539,0.063 4.262,0.309 5.176,0.731 1.301,0.554 2.23,1.285 2.781,2.199 0.781,1.234 1.824,4.066 3.125,8.496 l 11.867,40.086 c 1.008,3.387 1.512,5.762 1.512,7.129 0,1.207 -0.445,2.156 -1.344,2.859 -0.894,0.699 -2.593,1.047 -5.101,1.047 -0.551,0 -1.074,0.016 -1.563,0.051 z m 9.914,-27.492 c 2.114,-0.063 3.645,-0.098 4.59,-0.098 6.77,0 11.809,1.473 15.11,4.418 3.304,2.949 4.957,6.633 4.957,11.062 0,3.352 -1.008,5.965 -3.028,7.836 -2.015,1.871 -5.238,2.809 -9.668,2.809 -1.172,0 -2.668,-0.195 -4.492,-0.586 z m -9.621,-32.618 c 3.516,-0.457 6.266,-0.683 8.254,-0.683 5.078,0 9.578,1.531 13.5,4.59 3.922,3.062 5.883,7.211 5.883,12.453 0,4.004 -1.211,7.129 -3.637,9.375 -2.426,2.246 -6.34,3.367 -11.742,3.367 -1.043,0 -2.312,-0.047 -3.809,-0.145 l -8.449,-28.957" /><path
         id="path38"
         style="fill:#000000;fill-opacity:1;fill-rule:evenodd;stroke:none"
         d="m 560.211,813.879 -4.934,-21.434 h -1.757 l -0.196,5.371 c -0.16,1.954 -0.535,3.692 -1.121,5.223 -0.586,1.531 -1.465,2.856 -2.637,3.981 -1.171,1.121 -2.652,2 -4.445,2.636 -1.789,0.633 -3.773,0.953 -5.957,0.953 -5.824,0 -10.922,-1.597 -15.281,-4.785 -5.567,-4.07 -9.93,-9.816 -13.086,-17.238 -2.606,-6.121 -3.906,-12.32 -3.906,-18.602 0,-6.414 1.871,-11.531 5.613,-15.359 3.746,-3.824 8.609,-5.734 14.601,-5.734 4.524,0 8.551,1.007 12.086,3.027 3.532,2.016 6.809,5.125 9.836,9.324 h 2.297 c -3.582,-5.695 -7.554,-9.887 -11.914,-12.574 -4.363,-2.684 -9.586,-4.027 -15.676,-4.027 -5.402,0 -10.187,1.132 -14.355,3.394 -4.164,2.262 -7.34,5.445 -9.52,9.547 -2.183,4.102 -3.273,8.512 -3.273,13.23 0,7.227 1.937,14.258 5.812,21.094 3.872,6.836 9.188,12.207 15.942,16.114 6.754,3.906 13.566,5.859 20.433,5.859 3.223,0 6.836,-0.766 10.84,-2.293 1.758,-0.652 3.028,-0.977 3.809,-0.977 0.781,0 1.465,0.161 2.051,0.489 0.586,0.324 1.562,1.254 2.929,2.781 h 1.809" /><path
         id="path40"
         style="fill:#000000;fill-opacity:1;fill-rule:evenodd;stroke:none"
         d="m 453.199,65.5078 0.586,1.8047 h 21.141 c 8.953,0 15.586,-1.0234 19.898,-3.0742 4.313,-2.0508 7.754,-5.2813 10.328,-9.6914 2.571,-4.4141 3.856,-9.1407 3.856,-14.1875 0,-4.3282 -0.738,-8.5352 -2.219,-12.6211 -1.484,-4.086 -3.16,-7.3555 -5.031,-9.8164 -1.871,-2.4571 -4.742,-5.1641 -8.617,-8.12893 -3.875,-2.96094 -8.075,-5.15235 -12.598,-6.56641 -4.527,-1.41797 -10.172,-2.125 -16.945,-2.125 H 435.57 l 0.637,1.8086 c 2.57,0.0625 4.297,0.29296 5.176,0.68359 1.301,0.55078 2.262,1.30078 2.879,2.24609 0.945,1.36719 2.004,4.11719 3.176,8.24996 l 11.718,40.0391 c 0.91,3.1602 1.367,5.6328 1.367,7.4219 0,1.2695 -0.425,2.2461 -1.269,2.9297 -0.848,0.6836 -2.508,1.0273 -4.981,1.0273 z m 17.332,-1.8555 -14.355,-49.5625 c -1.074,-3.7109 -1.61,-6.00386 -1.61,-6.88277 0,-0.52344 0.172,-1.02734 0.512,-1.51562 0.344,-0.48829 0.805,-0.8125 1.391,-0.97657 0.847,-0.29296 2.215,-0.4375 4.101,-0.4375 5.114,0 9.856,0.52735 14.235,1.58594 4.379,1.0586 7.968,2.62891 10.765,4.71092 3.973,3.0274 7.145,7.1953 9.524,12.5 2.375,5.3086 3.562,11.3438 3.562,18.1172 0,7.6484 -1.82,13.3359 -5.468,17.0664 -3.645,3.7266 -8.965,5.5899 -15.965,5.5899 -1.727,0 -3.957,-0.0665 -6.692,-0.1954 v 0" /><path
         id="path42"
         style="fill:#000000;fill-opacity:1;fill-rule:evenodd;stroke:none"
         d="m 878.871,63.75 -7.57,-26.1719 h 6.203 c 4.426,0 7.633,0.6758 9.617,2.0274 1.984,1.3476 3.695,3.8476 5.129,7.4922 h 1.805 L 887.27,23.0742 h -1.954 c 0.586,2.0196 0.879,3.7461 0.879,5.1758 0,1.4023 -0.285,2.5234 -0.855,3.3711 -0.57,0.8477 -1.352,1.4727 -2.344,1.8789 -0.992,0.4062 -3.086,0.6094 -6.273,0.6094 h -6.301 l -6.395,-21.9219 c -0.621,-2.1172 -0.929,-3.72656 -0.929,-4.83594 0,-0.84375 0.406,-1.59375 1.222,-2.24609 0.551,-0.45313 1.934,-0.68359 4.149,-0.68359 h 5.859 c 6.348,0 11.434,1.125 15.258,3.37109 3.828,2.24613 7.254,6.15233 10.281,11.71873 h 1.805 L 895.422,1.10156 H 844.25 l 0.637,1.8086 c 2.539,0.0625 4.246,0.29296 5.125,0.68359 1.3,0.58594 2.246,1.33203 2.832,2.24609 0.879,1.33594 1.922,4.13282 3.125,8.39846 l 11.621,39.9414 c 0.91,3.2226 1.367,5.6797 1.367,7.3711 0,1.2383 -0.43,2.207 -1.293,2.9062 -0.863,0.6992 -2.547,1.0508 -5.055,1.0508 h -1.023 l 0.586,1.8047 h 47.558 l -4.101,-15.9648 h -1.809 c 0.227,1.4961 0.344,2.75 0.344,3.7578 0,1.7265 -0.426,3.1757 -1.269,4.3476 -1.11,1.4961 -2.719,2.6367 -4.836,3.418 -1.563,0.5859 -5.161,0.8789 -10.789,0.8789 h -8.399" /><path
         id="path44"
         style="fill:#000000;fill-opacity:1;fill-rule:evenodd;stroke:none"
         d="m 1112.13,63.7969 -7.81,-26.2188 h 8.69 c 3.9,0 6.82,0.6016 8.76,1.8047 1.94,1.207 3.93,3.7774 5.98,7.7149 h 1.86 l -6.89,-24.1211 h -1.95 c 0.49,1.9531 0.73,3.5664 0.73,4.8359 0,1.9844 -0.66,3.5234 -1.98,4.6133 -1.31,1.0898 -3.78,1.6367 -7.39,1.6367 h -8.79 l -5.76,-19.9727 c -1.04,-3.5468 -1.56,-5.90621 -1.56,-7.07808 0,-1.20703 0.44,-2.13281 1.34,-2.78516 0.89,-0.64844 3.08,-1.08984 6.57,-1.3164 l -0.59,-1.8086 h -26.18 l 0.64,1.8086 c 2.54,0.0625 4.23,0.29296 5.08,0.68359 1.3,0.55469 2.26,1.30078 2.88,2.24609 0.88,1.33594 1.92,4.08594 3.12,8.24996 l 11.67,39.8946 c 0.95,3.2226 1.42,5.7461 1.42,7.5664 0,0.8476 -0.21,1.5703 -0.63,2.1758 -0.43,0.6015 -1.05,1.0468 -1.88,1.3398 -0.84,0.293 -2.49,0.4414 -4.96,0.4414 l 0.59,1.8047 h 51.36 l -4.88,-16.7461 h -1.86 c 0.36,2.0195 0.54,3.6797 0.54,4.9805 0,2.1484 -0.59,3.8476 -1.78,5.1015 -1.19,1.2539 -2.71,2.1407 -4.56,2.6602 -1.31,0.3281 -4.22,0.4883 -8.75,0.4883 h -13.03" /><path
         id="path46"
         style="fill:#000000;fill-opacity:1;fill-rule:evenodd;stroke:none"
         d="m 561.18,732.848 c 0,-7.133 -5.789,-12.922 -12.922,-12.922 -7.133,0 -12.918,5.789 -12.918,12.922 0,7.132 5.785,12.918 12.918,12.918 7.133,0 12.922,-5.786 12.922,-12.918" /><g
         transform="scale(0.9,-1.1)"
         id="g48"><path
           id="path50"
           style="fill:none;stroke:#000000;stroke-width:2.17088008;stroke-linecap:butt;stroke-linejoin:miter;stroke-miterlimit:10;stroke-dasharray:none;stroke-opacity:1"
           d="m 623.533,-666.225 c 0,6.484 -6.432,11.747 -14.358,11.747 -7.925,0 -14.353,-5.263 -14.353,-11.747 0,-6.485 6.428,-11.744 14.353,-11.744 7.926,0 14.358,5.259 14.358,11.744 z" /></g><path
         id="path52"
         style="fill:#000000;fill-opacity:1;fill-rule:evenodd;stroke:none"
         d="m 512.32,320.016 c 0,-7.133 -5.785,-12.922 -12.918,-12.922 -7.132,0 -12.922,5.789 -12.922,12.922 0,7.132 5.79,12.918 12.922,12.918 7.133,0 12.918,-5.786 12.918,-12.918" /><g
         transform="scale(0.9,-1.1)"
         id="g54"><path
           id="path56"
           style="fill:none;stroke:#000000;stroke-width:2.17088008;stroke-linecap:butt;stroke-linejoin:miter;stroke-miterlimit:10;stroke-dasharray:none;stroke-opacity:1"
           d="m 569.245,-290.923 c 0,6.484 -6.428,11.747 -14.353,11.747 -7.926,0 -14.358,-5.263 -14.358,-11.747 0,-6.485 6.432,-11.744 14.358,-11.744 7.925,0 14.353,5.259 14.353,11.744 z" /></g><path
         id="path58"
         style="fill:#000000;fill-opacity:1;fill-rule:evenodd;stroke:none"
         d="m 101.934,95.2773 c 0,-7.1328 -5.7895,-12.9179 -12.9223,-12.9179 -7.1289,0 -12.9179,5.7851 -12.9179,12.9179 0,7.1327 5.789,12.9217 12.9179,12.9217 7.1328,0 12.9223,-5.789 12.9223,-12.9217" /><g
         transform="scale(0.9,-1.1)"
         id="g60"><path
           id="path62"
           style="fill:none;stroke:#000000;stroke-width:2.17088008;stroke-linecap:butt;stroke-linejoin:miter;stroke-miterlimit:10;stroke-dasharray:none;stroke-opacity:1"
           d="m 113.26,-86.6158 c 0,6.4844 -6.433,11.7436 -14.3581,11.7436 -7.921,0 -14.3533,-5.2592 -14.3533,-11.7436 0,-6.4843 6.4323,-11.7471 14.3533,-11.7471 7.9251,0 14.3581,5.2628 14.3581,11.7471 z" /></g><path
         id="path64"
         style="fill:#000000;fill-opacity:1;fill-rule:evenodd;stroke:none"
         d="m 485.453,100.164 c 0,-7.1328 -5.789,-12.9218 -12.922,-12.9218 -7.133,0 -12.918,5.789 -12.918,12.9218 0,7.133 5.785,12.918 12.918,12.918 7.133,0 12.922,-5.785 12.922,-12.918" /><g
         transform="scale(0.9,-1.1)"
         id="g66"><path
           id="path68"
           style="fill:none;stroke:#000000;stroke-width:2.17088008;stroke-linecap:butt;stroke-linejoin:miter;stroke-miterlimit:10;stroke-dasharray:none;stroke-opacity:1"
           d="m 539.392,-91.0582 c 0,6.4843 -6.432,11.7471 -14.357,11.7471 -7.926,0 -14.354,-5.2628 -14.354,-11.7471 0,-6.4844 6.428,-11.7438 14.354,-11.7438 7.925,0 14.357,5.2594 14.357,11.7438 z" /></g><path
         id="path70"
         style="fill:#000000;fill-opacity:1;fill-rule:evenodd;stroke:none"
         d="m 900.727,97.7227 c 0,-7.1329 -5.789,-12.9219 -12.922,-12.9219 -7.129,0 -12.918,5.789 -12.918,12.9219 0,7.1293 5.789,12.9183 12.918,12.9183 7.133,0 12.922,-5.789 12.922,-12.9183" /><g
         transform="scale(0.9,-1.1)"
         id="g72"><path
           id="path74"
           style="fill:none;stroke:#000000;stroke-width:2.17088008;stroke-linecap:butt;stroke-linejoin:miter;stroke-miterlimit:10;stroke-dasharray:none;stroke-opacity:1"
           d="m 1000.81,-88.8388 c 0,6.4844 -6.435,11.7472 -14.36,11.7472 -7.921,0 -14.354,-5.2628 -14.354,-11.7472 0,-6.4808 6.433,-11.7432 14.354,-11.7432 7.925,0 14.36,5.2624 14.36,11.7432 z" /></g><path
         id="path76"
         style="fill:#000000;fill-opacity:1;fill-rule:evenodd;stroke:none"
         d="m 1130.35,95.2773 c 0,-7.1328 -5.79,-12.9179 -12.92,-12.9179 -7.13,0 -12.92,5.7851 -12.92,12.9179 0,7.1327 5.79,12.9217 12.92,12.9217 7.13,0 12.92,-5.789 12.92,-12.9217" /><g
         transform="scale(0.9,-1.1)"
         id="g78"><path
           id="path80"
           style="fill:none;stroke:#000000;stroke-width:2.17088008;stroke-linecap:butt;stroke-linejoin:miter;stroke-miterlimit:10;stroke-dasharray:none;stroke-opacity:1"
           d="m 1255.94,-86.6158 c 0,6.4844 -6.43,11.7436 -14.35,11.7436 -7.93,0 -14.36,-5.2592 -14.36,-11.7436 0,-6.4843 6.43,-11.7471 14.36,-11.7471 7.92,0 14.35,5.2628 14.35,11.7471 z" /></g><path
         id="path82"
         style="fill:none;stroke:#000000;stroke-width:3.20000005;stroke-linecap:butt;stroke-linejoin:miter;stroke-miterlimit:10;stroke-dasharray:none;stroke-opacity:1"
         d="m 125.477,139.852 c 32.511,-8.485 16.961,-42.4067 16.961,-42.4067" /><path
         id="path84"
         style="fill:none;stroke:#000000;stroke-width:3.20000005;stroke-linecap:butt;stroke-linejoin:miter;stroke-miterlimit:10;stroke-dasharray:none;stroke-opacity:1"
         d="m 290.469,383.625 c 34.363,-46.648 60.148,12.719 60.148,12.719" /><path
         id="path86"
         style="fill:none;stroke:#000000;stroke-width:3.20000005;stroke-linecap:butt;stroke-linejoin:miter;stroke-miterlimit:10;stroke-dasharray:none;stroke-opacity:1"
         d="m 280.574,366.211 c 53.078,-62.488 85.59,25 85.59,25" /><path
         id="path88"
         style="fill:none;stroke:#000000;stroke-width:3.20000005;stroke-linecap:butt;stroke-linejoin:miter;stroke-miterlimit:10;stroke-dasharray:none;stroke-opacity:1"
         d="m 404.91,101.684 c 8.481,80.57 72.09,65.023 72.09,65.023" /><path
         id="path90"
         style="fill:none;stroke:#000000;stroke-width:3.20000005;stroke-linecap:butt;stroke-linejoin:miter;stroke-miterlimit:10;stroke-dasharray:none;stroke-opacity:1"
         d="m 425.852,98.2539 c 5.652,63.6091 50.886,45.2341 50.886,45.2341" /><path
         id="path92"
         style="fill:#000000;fill-opacity:1;fill-rule:evenodd;stroke:none"
         d="m 552.34,380.742 h 26.074 c 6.836,0 11.945,-1.472 15.332,-4.418 3.383,-2.945 5.078,-6.535 5.078,-10.765 0,-3.356 -1.074,-6.61 -3.222,-9.766 -2.149,-3.16 -5.34,-5.723 -9.571,-7.691 -4.234,-1.969 -8.808,-2.954 -13.722,-2.954 -3.059,0 -6.95,0.551 -11.668,1.661 l -5.274,-18.067 c -1.238,-4.297 -1.855,-7.129 -1.855,-8.496 0,-1.043 0.437,-1.906 1.316,-2.59 0.879,-0.683 2.981,-1.121 6.301,-1.316 l -0.488,-1.809 H 534.32 l 0.535,1.809 c 3.454,0 5.852,0.594 7.204,1.781 1.351,1.188 2.808,4.469 4.371,9.84 l 10.937,37.695 c 1.301,4.524 1.953,7.551 1.953,9.082 0,1.137 -0.465,2.082 -1.39,2.832 -0.93,0.75 -2.973,1.203 -6.129,1.368 z m 9.129,-30.859 c 3.679,-0.942 6.64,-1.414 8.886,-1.414 3.547,0 6.778,0.73 9.692,2.195 2.914,1.465 5.195,3.664 6.836,6.594 1.644,2.93 2.469,5.972 2.469,9.129 0,3.289 -1.012,5.894 -3.028,7.812 -2.019,1.922 -5.078,2.883 -9.179,2.883 -2.215,0 -4.903,-0.277 -8.059,-0.832 l -7.617,-26.367" /></g></g></svg>