<?xml version="1.0" encoding="UTF-8" standalone="no"?>
<svg
   xmlns:dc="http://purl.org/dc/elements/1.1/"
   xmlns:cc="http://creativecommons.org/ns#"
   xmlns:rdf="http://www.w3.org/1999/02/22-rdf-syntax-ns#"
   xmlns:svg="http://www.w3.org/2000/svg"
   xmlns="http://www.w3.org/2000/svg"
   viewBox="0 0 140 82.666664"
   height="82.666664"
   width="140"
   xml:space="preserve"
   id="svg2"
   version="1.1"><metadata
     id="metadata8"><rdf:RDF><cc:Work
         rdf:about=""><dc:format>image/svg+xml</dc:format><dc:type
           rdf:resource="http://purl.org/dc/dcmitype/StillImage" /></cc:Work></rdf:RDF></metadata><defs
     id="defs6" /><g
     transform="matrix(1.3333333,0,0,-1.3333333,0,82.666667)"
     id="g10"><g
       transform="scale(0.1)"
       id="g12"><path
         id="path14"
         style="fill:#231f20;fill-opacity:1;fill-rule:nonzero;stroke:none"
         d="m 1042.41,108.629 -5.04,-55.0665 c -0.26,-2.5859 -0.38,-4.2695 -0.38,-5.0859 0,-1.2969 0.23,-2.2969 0.73,-2.9805 0.62,-0.9336 1.45,-1.6328 2.5,-2.1016 1.07,-0.4492 2.85,-0.6836 5.35,-0.6836 l -0.53,-1.7968 h -26.07 l 0.53,1.7968 h 1.12 c 2.12,0 3.85,0.4688 5.18,1.3672 0.94,0.6367 1.67,1.6485 2.21,3.086 0.35,1.0156 0.7,3.3789 1.01,7.1289 l 0.78,8.4023 h -18.94 l -6.74,-9.1328 c -1.53,-2.0508 -2.48,-3.5352 -2.88,-4.4141 -0.38,-0.9023 -0.58,-1.7343 -0.58,-2.5195 0,-1.0508 0.41,-1.9336 1.26,-2.6836 0.85,-0.75 2.25,-1.1641 4.2,-1.2344 l -0.53,-1.7968 h -19.582 l 0.531,1.7968 c 2.418,0.1016 4.535,0.918 6.383,2.418 1.836,1.5195 4.566,4.75 8.218,9.7031 l 39.55,53.797 z m -9.67,-16.2501 -19.2,-26.1172 h 16.65 l 2.55,26.1172" /><path
         id="path16"
         style="fill:none;stroke:#231f20;stroke-width:7.5005002;stroke-linecap:butt;stroke-linejoin:miter;stroke-miterlimit:2.61310005;stroke-dasharray:none;stroke-opacity:1"
         d="M 96.7188,63.6133 983.496,63.5469" /><path
         id="path18"
         style="fill:none;stroke:#231f20;stroke-width:7.5005002;stroke-linecap:butt;stroke-linejoin:miter;stroke-miterlimit:2.61310005;stroke-dasharray:none;stroke-opacity:1"
         d="M 101.238,62.1055 101.27,545.926" /><path
         id="path20"
         style="fill:none;stroke:#231f20;stroke-width:7.5005002;stroke-linecap:butt;stroke-linejoin:miter;stroke-miterlimit:2.61310005;stroke-dasharray:none;stroke-opacity:1"
         d="M 101.641,543.426 983.496,63.5469" /><path
         id="path22"
         style="fill:#231f20;fill-opacity:1;fill-rule:nonzero;stroke:none"
         d="m 56.3008,615.539 0.6836,1.816 h 23.6367 c 3.9648,0 7.4961,-0.617 10.6133,-1.867 3.1015,-1.234 5.4336,-2.949 6.9844,-5.164 1.5468,-2.219 2.3162,-4.566 2.3162,-7.035 0,-3.816 -1.3827,-7.25 -4.1327,-10.332 -2.7539,-3.066 -7.2343,-5.352 -13.4492,-6.801 4.0157,-1.5 6.9492,-3.484 8.8477,-5.968 1.8828,-2.465 2.832,-5.18 2.832,-8.149 0,-3.281 -0.8476,-6.43 -2.5469,-9.434 -1.6836,-2.98 -3.8671,-5.312 -6.5156,-6.964 -2.6523,-1.664 -5.8515,-2.883 -9.6015,-3.668 -2.668,-0.551 -6.836,-0.832 -12.5,-0.832 H 39.2031 l 0.6328,1.8 c 2.5508,0.067 4.2657,0.317 5.1836,0.735 1.2969,0.566 2.2305,1.297 2.7852,2.199 0.7812,1.23 1.8125,4.063 3.1133,8.496 l 11.8672,40.086 c 1.0156,3.383 1.5156,5.766 1.5156,7.133 0,1.199 -0.4492,2.148 -1.332,2.851 -0.8985,0.7 -2.6016,1.047 -5.1172,1.047 -0.5508,0 -1.0664,0.016 -1.5508,0.051 z m 9.9023,-27.484 c 2.1133,-0.067 3.6485,-0.098 4.5977,-0.098 6.7695,0 11.8008,1.469 15.1172,4.414 3.2968,2.953 4.9531,6.633 4.9531,11.067 0,3.351 -1.0195,5.968 -3.0391,7.835 -2.0156,1.864 -5.2304,2.801 -9.664,2.801 -1.1641,0 -2.6641,-0.183 -4.4805,-0.586 z m -9.6172,-32.614 c 3.5157,-0.468 6.2657,-0.683 8.25,-0.683 5.0821,0 9.5821,1.531 13.5,4.582 3.9336,3.066 5.8829,7.219 5.8829,12.449 0,4 -1.2032,7.133 -3.6329,9.383 -2.4179,2.25 -6.332,3.367 -11.7343,3.367 -1.0508,0 -2.3164,-0.051 -3.8164,-0.148 l -8.4493,-28.95" /><path
         id="path24"
         style="fill:#231f20;fill-opacity:1;fill-rule:nonzero;stroke:none"
         d="M 76.3438,74.625 71.4141,53.1914 h -1.7696 l -0.1836,5.3828 c -0.1679,1.9492 -0.5507,3.6836 -1.1328,5.2149 -0.582,1.5351 -1.4687,2.8515 -2.6328,3.9843 -1.168,1.1172 -2.6523,2 -4.4492,2.6368 -1.7852,0.6289 -3.7695,0.9492 -5.9531,0.9492 -5.8321,0 -10.9141,-1.6016 -15.2813,-4.7852 -5.5703,-4.0664 -9.9336,-9.8164 -13.082,-17.2304 -2.6016,-6.1172 -3.918,-12.3165 -3.918,-18.6016 0,-6.418 1.8828,-11.5352 5.6133,-15.3672 3.75,-3.8164 8.6172,-5.73438 14.6016,-5.73438 4.5351,0 8.5664,1.01558 12.0859,3.03128 3.5313,2.0195 6.8164,5.1172 9.8477,9.3203 h 2.2851 C 63.8789,16.2891 59.8945,12.1055 55.543,9.42578 51.1797,6.74219 45.9414,5.39062 39.8594,5.39062 c -5.3985,0 -10.1797,1.13282 -14.3477,3.39844 -4.1679,2.26954 -7.3515,5.43364 -9.5156,9.55074 -2.1875,4.1016 -3.2852,8.5 -3.2852,13.2344 0,7.2188 1.9493,14.25 5.8164,21.086 3.8672,6.8281 9.1836,12.2109 15.9336,16.1132 6.7657,3.8985 13.5664,5.8516 20.4493,5.8516 3.2148,0 6.832,-0.75 10.832,-2.2812 1.7539,-0.6524 3.0351,-0.9844 3.8008,-0.9844 0.7851,0 1.4648,0.164 2.0664,0.4804 0.5859,0.336 1.5508,1.2657 2.9179,2.7852 h 1.8165" /><path
         id="path26"
         style="fill:none;stroke:#231f20;stroke-width:5.00029993;stroke-linecap:butt;stroke-linejoin:miter;stroke-miterlimit:2.61310005;stroke-dasharray:none;stroke-opacity:1"
         d="m 102.617,64.6094 h 78.9297 v 73.7539 H 102.617 Z" /></g></g></svg>