<?xml version="1.0" encoding="UTF-8" standalone="no"?>
<svg
   xmlns:dc="http://purl.org/dc/elements/1.1/"
   xmlns:cc="http://creativecommons.org/ns#"
   xmlns:rdf="http://www.w3.org/1999/02/22-rdf-syntax-ns#"
   xmlns:svg="http://www.w3.org/2000/svg"
   xmlns="http://www.w3.org/2000/svg"
   viewBox="0 0 173.33333 98.666664"
   height="98.666664"
   width="173.33333"
   xml:space="preserve"
   id="svg2"
   version="1.1"><metadata
     id="metadata8"><rdf:RDF><cc:Work
         rdf:about=""><dc:format>image/svg+xml</dc:format><dc:type
           rdf:resource="http://purl.org/dc/dcmitype/StillImage" /></cc:Work></rdf:RDF></metadata><defs
     id="defs6" /><g
     transform="matrix(1.3333333,0,0,-1.3333333,0,98.666667)"
     id="g10"><g
       transform="scale(0.1)"
       id="g12"><path
         id="path14"
         style="fill:#231f20;fill-opacity:1;fill-rule:nonzero;stroke:none"
         d="M 44.418,146.336 50.5352,93 88.9531,146.336 h 16.1639 v -1.82 c -3.519,-0.215 -5.5858,-0.45 -6.199,-0.68 -1.0821,-0.418 -2.0664,-1.27 -2.9492,-2.535 -0.8985,-1.27 -1.8672,-3.719 -2.918,-7.332 l -12.25,-41.9846 c -0.7149,-2.4492 -1.0664,-4.3672 -1.0664,-5.7656 0,-1.2696 0.4336,-2.2344 1.3164,-2.8829 1.2344,-0.9336 3.1836,-1.4179 5.8515,-1.4179 h 1.1836 L 87.6328,80.1172 H 59.7539 L 60.25,81.918 h 1.3164 c 2.4688,0 4.3516,0.3672 5.668,1.082 1,0.5156 1.8984,1.5 2.6992,2.9531 0.8008,1.4453 1.918,4.6641 3.3516,9.6485 L 84.2188,133.969 45.6016,80.1172 H 43.6523 L 37.4336,133.969 25.6172,93 c -1,-3.4805 -1.5,-5.8164 -1.5,-7.0156 0,-1.2188 0.4336,-2.1328 1.3164,-2.7656 0.8672,-0.6329 3,-1.0665 6.4023,-1.3008 L 31.2852,80.1172 H 9.46875 l 0.53515,1.8008 h 1.3125 c 3.2188,0 5.5508,0.8164 6.9844,2.4492 1.0312,1.168 2.1328,3.7148 3.2656,7.6172 l 14.418,49.3676 c -1.0821,1.097 -2.1016,1.851 -3.086,2.25 -0.9804,0.382 -2.7812,0.699 -5.414,0.914 l 0.4844,1.82 H 44.418" /><path
         id="path16"
         style="fill:none;stroke:#231f20;stroke-width:7.5005002;stroke-linecap:butt;stroke-linejoin:miter;stroke-miterlimit:2.61310005;stroke-dasharray:none;stroke-opacity:1"
         d="M 111.617,111.004 H 1271.71" /><path
         id="path18"
         style="fill:none;stroke:#231f20;stroke-width:7.5005002;stroke-linecap:butt;stroke-linejoin:miter;stroke-miterlimit:2.61310005;stroke-dasharray:none;stroke-opacity:1"
         d="M 110.387,110.379 440.871,525.145" /><path
         id="path20"
         style="fill:none;stroke:#231f20;stroke-width:7.5005002;stroke-linecap:butt;stroke-linejoin:miter;stroke-miterlimit:2.61310005;stroke-dasharray:none;stroke-opacity:1"
         d="M 437.008,524.02 767.492,109.258" /><path
         id="path22"
         style="fill:none;stroke:#231f20;stroke-width:7.5005002;stroke-linecap:butt;stroke-linejoin:miter;stroke-miterlimit:2.61310005;stroke-dasharray:none;stroke-opacity:1"
         d="M 768.133,113.469 V 700.492" /><path
         id="path24"
         style="fill:none;stroke:#231f20;stroke-width:7.5005002;stroke-linecap:butt;stroke-linejoin:miter;stroke-miterlimit:2.61310005;stroke-dasharray:none;stroke-opacity:1"
         d="M 768.109,113.301 920.043,680.324" /><path
         id="path26"
         style="fill:none;stroke:#231f20;stroke-width:7.5005002;stroke-linecap:butt;stroke-linejoin:miter;stroke-miterlimit:2.61310005;stroke-dasharray:none;stroke-opacity:1"
         d="m 244.117,326.66 40.492,-36.031" /><path
         id="path28"
         style="fill:none;stroke:#231f20;stroke-width:7.5005002;stroke-linecap:butt;stroke-linejoin:miter;stroke-miterlimit:2.61310005;stroke-dasharray:none;stroke-opacity:1"
         d="m 596.531,284.621 37.489,36.031" /><path
         id="path30"
         style="fill:#231f20;fill-opacity:1;fill-rule:nonzero;stroke:none"
         d="m 1259.39,201.285 -7.82,-26.23 h 8.7 c 3.9,0 6.84,0.617 8.77,1.816 1.93,1.199 3.93,3.766 5.98,7.719 h 1.85 l -6.88,-24.117 h -1.95 c 0.48,1.949 0.73,3.547 0.73,4.832 0,1.984 -0.67,3.519 -1.98,4.601 -1.32,1.098 -3.79,1.649 -7.4,1.649 h -8.78 l -5.77,-19.985 c -1.04,-3.547 -1.57,-5.898 -1.57,-7.066 0,-1.215 0.45,-2.133 1.35,-2.781 0.9,-0.668 3.08,-1.102 6.56,-1.336 l -0.57,-1.797 h -26.17 l 0.63,1.797 c 2.54,0.07 4.23,0.301 5.07,0.683 1.3,0.567 2.26,1.321 2.88,2.254 0.88,1.332 1.92,4.078 3.13,8.246 l 11.67,39.903 c 0.93,3.215 1.42,5.75 1.42,7.566 0,0.848 -0.22,1.566 -0.64,2.164 -0.43,0.602 -1.05,1.051 -1.88,1.352 -0.83,0.281 -2.48,0.433 -4.95,0.433 l 0.58,1.817 h 51.37 l -4.88,-16.75 h -1.87 c 0.37,2.015 0.55,3.664 0.55,4.984 0,2.149 -0.6,3.848 -1.79,5.098 -1.19,1.25 -2.71,2.136 -4.56,2.652 -1.3,0.332 -4.22,0.496 -8.75,0.496 h -13.03" /><path
         id="path32"
         style="fill:#231f20;fill-opacity:1;fill-rule:nonzero;stroke:none"
         d="m 963.078,672.57 -7.566,-26.183 h 6.199 c 4.434,0 7.633,0.683 9.637,2.031 1.98,1.352 3.679,3.852 5.113,7.5 h 1.82 l -6.801,-24.031 h -1.953 c 0.586,2.015 0.883,3.75 0.883,5.183 0,1.399 -0.281,2.516 -0.848,3.368 -0.582,0.851 -1.351,1.464 -2.351,1.882 -1,0.399 -3.082,0.598 -6.281,0.598 h -6.285 l -6.403,-21.914 c -0.613,-2.117 -0.93,-3.734 -0.93,-4.836 0,-0.848 0.415,-1.602 1.215,-2.25 0.567,-0.449 1.95,-0.684 4.149,-0.684 h 5.871 c 6.348,0 11.43,1.137 15.25,3.368 3.832,2.253 7.262,6.168 10.281,11.734 h 1.817 l -6.25,-18.418 h -51.184 l 0.637,1.801 c 2.547,0.07 4.246,0.301 5.132,0.683 1.297,0.602 2.247,1.348 2.832,2.25 0.883,1.332 1.915,4.133 3.118,8.399 l 11.632,39.953 c 0.899,3.215 1.368,5.664 1.368,7.367 0,1.231 -0.434,2.199 -1.301,2.899 -0.867,0.699 -2.551,1.05 -5.051,1.05 h -1.035 l 0.586,1.817 h 47.566 l -4.101,-15.969 h -1.817 c 0.235,1.5 0.352,2.75 0.352,3.75 0,1.734 -0.418,3.184 -1.266,4.352 -1.117,1.5 -2.718,2.632 -4.836,3.414 -1.566,0.586 -5.164,0.886 -10.797,0.886 h -8.402" /><path
         id="path34"
         style="fill:#231f20;fill-opacity:1;fill-rule:nonzero;stroke:none"
         d="m 710.312,731.824 h 26.067 c 6.836,0 11.949,-1.484 15.332,-4.418 3.387,-2.949 5.086,-6.551 5.086,-10.765 0,-3.368 -1.086,-6.621 -3.235,-9.77 -2.152,-3.164 -5.335,-5.734 -9.566,-7.699 -4.234,-1.965 -8.801,-2.949 -13.715,-2.949 -3.07,0 -6.953,0.55 -11.668,1.668 l -5.285,-18.071 c -1.234,-4.297 -1.848,-7.129 -1.848,-8.496 0,-1.051 0.434,-1.902 1.317,-2.586 0.883,-0.699 2.984,-1.133 6.301,-1.332 l -0.485,-1.801 h -26.336 l 0.551,1.801 c 3.449,0 5.852,0.602 7.199,1.782 1.352,1.199 2.801,4.468 4.371,9.851 l 10.93,37.684 c 1.301,4.531 1.953,7.566 1.953,9.082 0,1.152 -0.453,2.082 -1.383,2.836 -0.933,0.746 -2.968,1.199 -6.136,1.363 z m 9.118,-30.867 c 3.683,-0.949 6.648,-1.418 8.898,-1.418 3.535,0 6.766,0.734 9.684,2.199 2.918,1.469 5.203,3.668 6.836,6.586 1.648,2.93 2.464,5.981 2.464,9.133 0,3.301 -1,5.898 -3.015,7.816 -2.035,1.915 -5.086,2.883 -9.184,2.883 -2.218,0 -4.902,-0.285 -8.066,-0.836 l -7.617,-26.363" /><path
         id="path36"
         style="fill:#231f20;fill-opacity:1;fill-rule:nonzero;stroke:none"
         d="m 451.234,620.445 20.45,-51.914 11.082,38.781 c 0.918,3.184 1.367,5.649 1.367,7.418 0,1.2 -0.418,2.149 -1.266,2.832 -0.847,0.684 -2.418,1.016 -4.734,1.016 -0.383,0 -0.797,0.016 -1.215,0.051 l 0.535,1.816 h 21.281 l -0.586,-1.816 c -2.214,0.035 -3.847,-0.184 -4.929,-0.684 -1.535,-0.683 -2.668,-1.566 -3.418,-2.633 -1.035,-1.535 -2.098,-4.199 -3.168,-8 l -15.582,-54.597 h -1.75 l -22.031,55.867 -11.766,-41.27 c -0.871,-3.117 -1.32,-5.515 -1.32,-7.167 0,-1.25 0.398,-2.18 1.199,-2.813 0.801,-0.637 2.703,-1.07 5.683,-1.301 l -0.48,-1.801 h -20.801 l 0.684,1.801 c 2.597,0.067 4.351,0.301 5.23,0.68 1.336,0.601 2.321,1.351 2.969,2.301 0.949,1.433 2,4.199 3.184,8.3 l 13.132,46.051 c -1.269,1.949 -2.632,3.297 -4.082,4.032 -1.453,0.718 -3.703,1.136 -6.769,1.234 l 0.555,1.816 h 16.546" /><path
         id="path38"
         style="fill:#231f20;fill-opacity:1;fill-rule:nonzero;stroke:none"
         d="m 764.195,47.0352 16.403,-25.3516 c 2.933,-4.4805 5.363,-7.3672 7.281,-8.6172 1.918,-1.25 4.449,-1.8828 7.57,-1.8828 l -0.535,-1.79688 h -28.23 l 0.445,1.79688 c 2.25,0.2344 3.836,0.7656 4.75,1.6172 0.933,0.8515 1.402,1.8008 1.402,2.8867 0,0.9805 -0.168,1.9141 -0.484,2.832 -0.266,0.6485 -1.219,2.25 -2.832,4.7852 l -13.434,21.0469 -6.5,-21.9336 c -1.07,-3.5157 -1.601,-5.8672 -1.601,-7.0821 0,-1.2343 0.449,-2.1679 1.367,-2.8164 0.902,-0.6679 3.152,-1.1015 6.734,-1.3359 l -0.785,-1.79688 h -26.168 l 0.637,1.79688 c 2.535,0.0703 4.25,0.3008 5.133,0.6836 1.297,0.6016 2.25,1.3516 2.867,2.2539 0.847,1.332 1.898,4.0977 3.133,8.2969 l 11.664,40 c 0.886,3.0508 1.32,5.5156 1.32,7.3672 0,1.3007 -0.418,2.2968 -1.234,2.9804 -0.832,0.6836 -2.45,1.0196 -4.868,1.0196 h -0.984 l 0.602,1.8164 h 24.847 l -0.496,-1.8164 c -2.054,0.0351 -3.57,-0.1836 -4.586,-0.6836 -1.398,-0.6836 -2.418,-1.5664 -3.066,-2.6328 -0.664,-1.0665 -1.613,-3.7696 -2.883,-8.0508 l -5.133,-17 23.531,17.7343 c 3.133,2.3321 5.184,4.1993 6.149,5.5665 0.586,0.832 0.887,1.5976 0.887,2.2812 0,0.5859 -0.301,1.168 -0.899,1.7188 -0.601,0.5507 -1.519,0.8984 -2.769,1.0664 l 0.5,1.8164 h 21.183 l -0.433,-1.8164 c -2.317,-0.3829 -4.266,-0.8985 -5.832,-1.5352 -1.582,-0.6328 -3.203,-1.5 -4.868,-2.6133 -0.484,-0.3203 -3.668,-2.7344 -9.515,-7.2187 l -20.27,-15.3828" /></g></g></svg>