<?xml version="1.0" encoding="UTF-8" standalone="no"?>
<svg
   xmlns:dc="http://purl.org/dc/elements/1.1/"
   xmlns:cc="http://creativecommons.org/ns#"
   xmlns:rdf="http://www.w3.org/1999/02/22-rdf-syntax-ns#"
   xmlns:svg="http://www.w3.org/2000/svg"
   xmlns="http://www.w3.org/2000/svg"
   viewBox="0 0 210.73334 98.239998"
   height="98.239998"
   width="210.73334"
   xml:space="preserve"
   id="svg2"
   version="1.1"><metadata
     id="metadata8"><rdf:RDF><cc:Work
         rdf:about=""><dc:format>image/svg+xml</dc:format><dc:type
           rdf:resource="http://purl.org/dc/dcmitype/StillImage" /></cc:Work></rdf:RDF></metadata><defs
     id="defs6" /><g
     transform="matrix(1.3333333,0,0,-1.3333333,0,98.24)"
     id="g10"><g
       transform="scale(0.1)"
       id="g12"><path
         id="path14"
         style="fill:#000000;fill-opacity:1;fill-rule:evenodd;stroke:none"
         d="M 56.3984,126.043 51.3672,70.9648 c -0.2617,-2.5703 -0.3906,-4.2617 -0.3906,-5.0781 0,-1.3008 0.2461,-2.2929 0.7343,-2.9765 0.6172,-0.9454 1.4532,-1.6446 2.5118,-2.1016 1.0585,-0.4531 2.8398,-0.6836 5.3476,-0.6836 L 59.0352,58.3203 H 32.9609 l 0.5352,1.8047 h 1.125 c 2.1133,0 3.8398,0.457 5.1758,1.3672 0.9414,0.6211 1.6758,1.6445 2.1953,3.0781 0.3594,1.0078 0.6992,3.3828 1.0273,7.1289 l 0.7813,8.3985 H 24.8555 l -6.7383,-9.1329 c -1.5313,-2.0507 -2.4922,-3.5234 -2.8828,-4.4179 -0.3906,-0.8946 -0.586,-1.7344 -0.586,-2.5157 0,-1.039 0.4219,-1.9374 1.2696,-2.6835 0.8476,-0.75 2.2461,-1.1563 4.1992,-1.2227 L 19.582,58.3203 H 0 L 0.539062,60.125 C 2.94531,60.2227 5.07031,61.0312 6.91016,62.543 8.75,64.0586 11.4922,67.2891 15.1367,72.2344 L 54.6875,126.043 Z M 46.7305,109.785 27.5391,83.6602 h 16.6523 l 2.5391,26.1248" /><path
         id="path16"
         style="fill:none;stroke:#000000;stroke-width:9.92000008;stroke-linecap:butt;stroke-linejoin:miter;stroke-miterlimit:10;stroke-dasharray:none;stroke-opacity:1"
         d="M 741.008,100.965 C 1054.65,652.133 1054.65,652.133 1054.65,652.133" /><path
         id="path18"
         style="fill:none;stroke:#000000;stroke-width:9.92125988;stroke-linecap:butt;stroke-linejoin:miter;stroke-miterlimit:10;stroke-dasharray:none;stroke-opacity:1"
         d="M 88.2383,98.1602 C 1109.57,99.2969 1541.57,99.2969 1541.57,99.2969" /><path
         id="path20"
         style="fill:none;stroke:#000000;stroke-width:9.92000008;stroke-linecap:butt;stroke-linejoin:miter;stroke-miterlimit:10;stroke-dasharray:none;stroke-opacity:1"
         d="M 1036.07,99.9531 C 568.91,369.387 568.91,369.387 568.91,369.387" /><path
         id="path22"
         style="fill:#000000;fill-opacity:1;fill-rule:evenodd;stroke:none"
         d="m 577.309,373.148 c 0,-7.132 -5.789,-12.921 -12.922,-12.921 -7.129,0 -12.918,5.789 -12.918,12.921 0,7.133 5.789,12.918 12.918,12.918 7.133,0 12.922,-5.785 12.922,-12.918" /><g
         transform="scale(0.9,-1.1)"
         id="g24"><path
           id="path26"
           style="fill:none;stroke:#000000;stroke-width:2.17088008;stroke-linecap:butt;stroke-linejoin:miter;stroke-miterlimit:10;stroke-dasharray:none;stroke-opacity:1"
           d="m 641.454,-339.226 c 0,6.485 -6.432,11.747 -14.358,11.747 -7.921,0 -14.353,-5.262 -14.353,-11.747 0,-6.484 6.432,-11.743 14.353,-11.743 7.926,0 14.358,5.259 14.358,11.743 z" /></g><path
         id="path28"
         style="fill:none;stroke:#000000;stroke-width:9.92000008;stroke-linecap:butt;stroke-linejoin:miter;stroke-miterlimit:10;stroke-dasharray:none;stroke-opacity:1"
         d="M 92.6641,99.0391 C 1051.4,649.66 1051.4,649.66 1051.4,649.66" /><path
         id="path30"
         style="fill:#000000;fill-opacity:1;fill-rule:evenodd;stroke:none"
         d="m 501.957,444.488 0.684,1.805 h 23.632 c 3.969,0 7.512,-0.617 10.618,-1.855 3.109,-1.235 5.437,-2.961 6.984,-5.176 1.547,-2.211 2.32,-4.555 2.32,-7.032 0,-3.808 -1.375,-7.25 -4.125,-10.324 -2.754,-3.078 -7.238,-5.347 -13.453,-6.812 4.004,-1.5 6.949,-3.485 8.836,-5.957 1.891,-2.477 2.832,-5.192 2.832,-8.157 0,-3.285 -0.844,-6.429 -2.539,-9.421 -1.691,-2.997 -3.863,-5.325 -6.519,-6.985 -2.653,-1.66 -5.848,-2.879 -9.594,-3.66 -2.668,-0.555 -6.836,-0.832 -12.5,-0.832 h -24.266 l 0.633,1.809 c 2.539,0.062 4.266,0.308 5.176,0.73 1.304,0.555 2.23,1.285 2.785,2.199 0.781,1.235 1.82,4.067 3.125,8.496 l 11.863,40.086 c 1.012,3.387 1.516,5.762 1.516,7.129 0,1.207 -0.449,2.157 -1.344,2.86 -0.894,0.699 -2.598,1.047 -5.101,1.047 -0.555,0 -1.075,0.015 -1.563,0.05 z m 9.91,-27.492 c 2.117,-0.062 3.649,-0.098 4.59,-0.098 6.773,0 11.809,1.473 15.113,4.422 3.305,2.946 4.957,6.629 4.957,11.059 0,3.351 -1.011,5.965 -3.027,7.836 -2.02,1.871 -5.242,2.808 -9.668,2.808 -1.172,0 -2.672,-0.195 -4.492,-0.585 z m -9.617,-32.617 c 3.516,-0.453 6.266,-0.684 8.25,-0.684 5.078,0 9.578,1.532 13.5,4.59 3.926,3.063 5.887,7.211 5.887,12.453 0,4.004 -1.215,7.129 -3.641,9.375 -2.422,2.246 -6.336,3.367 -11.742,3.367 -1.039,0 -2.309,-0.046 -3.809,-0.144 l -8.445,-28.957" /><path
         id="path32"
         style="fill:#000000;fill-opacity:1;fill-rule:evenodd;stroke:none"
         d="m 1116.31,737.871 -4.93,-21.437 h -1.76 l -0.19,5.371 c -0.16,1.953 -0.54,3.695 -1.13,5.226 -0.58,1.528 -1.46,2.856 -2.63,3.977 -1.17,1.125 -2.65,2.004 -4.45,2.637 -1.79,0.636 -3.77,0.953 -5.95,0.953 -5.83,0 -10.93,-1.594 -15.29,-4.786 -5.56,-4.07 -9.93,-9.816 -13.08,-17.238 -2.61,-6.117 -3.91,-12.32 -3.91,-18.601 0,-6.414 1.87,-11.532 5.62,-15.356 3.74,-3.824 8.6,-5.738 14.6,-5.738 4.52,0 8.55,1.008 12.08,3.027 3.53,2.02 6.81,5.125 9.84,9.324 h 2.3 c -3.59,-5.695 -7.56,-9.886 -11.92,-12.57 -4.36,-2.687 -9.58,-4.031 -15.67,-4.031 -5.41,0 -10.19,1.133 -14.36,3.394 -4.17,2.262 -7.34,5.446 -9.52,9.547 -2.18,4.102 -3.27,8.512 -3.27,13.231 0,7.226 1.93,14.258 5.81,21.094 3.87,6.835 9.19,12.207 15.94,16.113 6.76,3.906 13.57,5.859 20.44,5.863 3.22,-0.004 6.83,-0.766 10.83,-2.297 1.76,-0.652 3.03,-0.976 3.81,-0.976 0.78,0 1.47,0.164 2.05,0.488 0.59,0.324 1.57,1.254 2.93,2.785 h 1.81" /><path
         id="path34"
         style="fill:#000000;fill-opacity:1;fill-rule:evenodd;stroke:none"
         d="m 721.688,65.5078 0.585,1.8047 h 21.145 c 8.953,0 15.582,-1.0234 19.898,-3.0742 4.313,-2.0508 7.754,-5.2813 10.325,-9.6914 2.574,-4.4141 3.859,-9.1407 3.859,-14.1875 0,-4.3282 -0.742,-8.5352 -2.223,-12.6211 -1.48,-4.086 -3.156,-7.3555 -5.027,-9.8164 -1.875,-2.4571 -4.746,-5.1641 -8.621,-8.12893 -3.871,-2.96094 -8.07,-5.15235 -12.598,-6.56641 -4.523,-1.41797 -10.172,-2.125 -16.941,-2.125 h -28.028 l 0.633,1.8086 c 2.575,0.0625 4.297,0.29296 5.176,0.68359 1.305,0.55078 2.262,1.30078 2.883,2.24609 0.941,1.36719 2,4.11719 3.172,8.24996 l 11.719,40.0391 c 0.914,3.1602 1.367,5.6328 1.367,7.4219 0,1.2695 -0.422,2.2461 -1.27,2.9297 -0.844,0.6836 -2.504,1.0273 -4.98,1.0273 z m 17.335,-1.8555 -14.355,-49.5625 c -1.074,-3.7109 -1.613,-6.00386 -1.613,-6.88277 0,-0.52344 0.172,-1.02734 0.515,-1.51562 0.34,-0.48829 0.805,-0.8125 1.391,-0.97657 0.844,-0.29296 2.211,-0.4375 4.101,-0.4375 5.11,0 9.856,0.52735 14.235,1.58594 4.375,1.0586 7.965,2.62891 10.765,4.71092 3.973,3.0274 7.145,7.1953 9.52,12.5 2.379,5.3086 3.566,11.3438 3.566,18.1172 0,7.6484 -1.824,13.3359 -5.468,17.0664 -3.645,3.7266 -8.969,5.5899 -15.969,5.5899 -1.723,0 -3.953,-0.0665 -6.688,-0.1954 v 0" /><path
         id="path36"
         style="fill:#000000;fill-opacity:1;fill-rule:evenodd;stroke:none"
         d="m 1026.62,64.8047 -7.57,-26.1719 h 6.2 c 4.43,0 7.64,0.6758 9.63,2.0274 1.98,1.3515 3.69,3.8476 5.12,7.496 h 1.81 l -6.79,-24.0234 h -1.95 c 0.58,2.0156 0.88,3.7422 0.88,5.1758 0,1.3984 -0.29,2.5195 -0.86,3.3672 -0.57,0.8476 -1.35,1.4726 -2.34,1.8789 -1,0.4101 -3.09,0.6133 -6.28,0.6133 h -6.29 l -6.4,-21.9258 c -0.62,-2.1172 -0.93,-3.72658 -0.93,-4.83204 0,-0.84766 0.41,-1.59766 1.22,-2.2461 0.55,-0.45703 1.94,-0.68359 4.15,-0.68359 h 5.86 c 6.35,0 11.44,1.12109 15.26,3.36719 3.82,2.24614 7.25,6.15234 10.28,11.71874 h 1.81 l -6.25,-18.40624 h -51.176 l 0.633,1.80468 c 2.539,0.06641 4.25,0.29297 5.129,0.6836 1.3,0.58594 2.244,1.33594 2.834,2.24609 0.88,1.33594 1.92,4.13277 3.12,8.39847 l 11.62,39.9414 c 0.91,3.2226 1.37,5.6797 1.37,7.375 0,1.2344 -0.43,2.2031 -1.3,2.9023 -0.86,0.7031 -2.54,1.0508 -5.05,1.0508 h -1.02 l 0.58,1.8086 h 47.56 l -4.1,-15.9688 h -1.81 c 0.23,1.4961 0.34,2.75 0.34,3.7618 0,1.7226 -0.42,3.1718 -1.27,4.3437 -1.1,1.4961 -2.71,2.6367 -4.83,3.418 -1.56,0.5859 -5.16,0.8789 -10.79,0.8789 h -8.4" /><path
         id="path38"
         style="fill:#000000;fill-opacity:1;fill-rule:evenodd;stroke:none"
         d="m 1546.12,64.1172 -7.81,-26.2188 h 8.69 c 3.91,0 6.83,0.6016 8.77,1.8047 1.94,1.2071 3.93,3.7774 5.98,7.7149 h 1.86 l -6.89,-24.1211 h -1.95 c 0.49,1.9531 0.73,3.5664 0.73,4.8359 0,1.9844 -0.66,3.5234 -1.98,4.6133 -1.31,1.0898 -3.78,1.6367 -7.4,1.6367 h -8.78 l -5.77,-19.9726 c -1.03,-3.5469 -1.56,-5.90629 -1.56,-7.07817 0,-1.20703 0.45,-2.13281 1.35,-2.78515 0.89,-0.64844 3.08,-1.08985 6.56,-1.31641 l -0.58,-1.80859 h -26.18 l 0.64,1.80859 c 2.54,0.0625 4.23,0.29297 5.08,0.68359 1.3,0.55078 2.26,1.30078 2.88,2.2461 0.88,1.33203 1.92,4.08594 3.12,8.25004 l 11.67,39.8945 c 0.95,3.2226 1.42,5.7461 1.42,7.5664 0,0.8477 -0.21,1.5703 -0.63,2.1758 -0.43,0.6015 -1.05,1.0469 -1.88,1.3398 -0.84,0.293 -2.49,0.4414 -4.96,0.4414 l 0.59,1.8047 h 51.36 l -4.88,-16.7461 h -1.86 c 0.36,2.0156 0.54,3.6758 0.54,4.9805 0,2.1484 -0.59,3.8476 -1.78,5.1016 -1.19,1.2539 -2.71,2.1406 -4.57,2.6601 -1.3,0.3281 -4.21,0.4883 -8.74,0.4883 h -13.04" /><path
         id="path40"
         style="fill:#000000;fill-opacity:1;fill-rule:evenodd;stroke:none"
         d="m 1064.21,650.441 c 0,-7.129 -5.79,-12.918 -12.92,-12.918 -7.14,0 -12.92,5.789 -12.92,12.918 0,7.133 5.78,12.922 12.92,12.922 7.13,0 12.92,-5.789 12.92,-12.922" /><g
         transform="scale(0.9,-1.1)"
         id="g42"><path
           id="path44"
           style="fill:none;stroke:#000000;stroke-width:2.17088008;stroke-linecap:butt;stroke-linejoin:miter;stroke-miterlimit:10;stroke-dasharray:none;stroke-opacity:1"
           d="m 1182.45,-591.31 c 0,6.48 -6.43,11.743 -14.36,11.743 -7.92,0 -14.35,-5.263 -14.35,-11.743 0,-6.485 6.43,-11.748 14.35,-11.748 7.93,0 14.36,5.263 14.36,11.748 z" /></g><path
         id="path46"
         style="fill:#000000;fill-opacity:1;fill-rule:evenodd;stroke:none"
         d="m 826.41,230.094 c 0,-7.133 -5.789,-12.922 -12.922,-12.922 -7.133,0 -12.918,5.789 -12.918,12.922 0,7.129 5.785,12.918 12.918,12.918 7.133,0 12.922,-5.789 12.922,-12.918" /><g
         transform="scale(0.9,-1.1)"
         id="g48"><path
           id="path50"
           style="fill:none;stroke:#000000;stroke-width:2.17088008;stroke-linecap:butt;stroke-linejoin:miter;stroke-miterlimit:10;stroke-dasharray:none;stroke-opacity:1"
           d="m 918.234,-209.176 c 0,6.484 -6.433,11.747 -14.358,11.747 -7.925,0 -14.353,-5.263 -14.353,-11.747 0,-6.481 6.428,-11.744 14.353,-11.744 7.925,0 14.358,5.263 14.358,11.744 z" /></g><path
         id="path52"
         style="fill:#000000;fill-opacity:1;fill-rule:evenodd;stroke:none"
         d="m 103.934,95.5977 c 0,-7.1329 -5.7895,-12.918 -12.9223,-12.918 -7.1328,0 -12.9179,5.7851 -12.9179,12.918 0,7.1323 5.7851,12.9223 12.9179,12.9223 7.1328,0 12.9223,-5.79 12.9223,-12.9223" /><g
         transform="scale(0.9,-1.1)"
         id="g54"><path
           id="path56"
           style="fill:none;stroke:#000000;stroke-width:2.17088008;stroke-linecap:butt;stroke-linejoin:miter;stroke-miterlimit:10;stroke-dasharray:none;stroke-opacity:1"
           d="m 115.482,-86.907 c 0,6.4844 -6.433,11.7436 -14.358,11.7436 -7.9252,0 -14.3532,-5.2592 -14.3532,-11.7436 0,-6.4843 6.428,-11.7471 14.3532,-11.7471 7.925,0 14.358,5.2628 14.358,11.7471 z" /></g><path
         id="path58"
         style="fill:#000000;fill-opacity:1;fill-rule:evenodd;stroke:none"
         d="m 753.941,100.164 c 0,-7.1328 -5.789,-12.9218 -12.918,-12.9218 -7.132,0 -12.921,5.789 -12.921,12.9218 0,7.133 5.789,12.918 12.921,12.918 7.129,0 12.918,-5.785 12.918,-12.918" /><g
         transform="scale(0.9,-1.1)"
         id="g60"><path
           id="path62"
           style="fill:none;stroke:#000000;stroke-width:2.17088008;stroke-linecap:butt;stroke-linejoin:miter;stroke-miterlimit:10;stroke-dasharray:none;stroke-opacity:1"
           d="m 837.713,-91.0582 c 0,6.4843 -6.433,11.7471 -14.354,11.7471 -7.925,0 -14.357,-5.2628 -14.357,-11.7471 0,-6.4844 6.432,-11.7438 14.357,-11.7438 7.921,0 14.354,5.2594 14.354,11.7438 z" /></g><path
         id="path64"
         style="fill:#000000;fill-opacity:1;fill-rule:evenodd;stroke:none"
         d="m 1048.48,98.7773 c 0,-7.1328 -5.79,-12.9218 -12.92,-12.9218 -7.13,0 -12.92,5.789 -12.92,12.9218 0,7.1287 5.79,12.9177 12.92,12.9177 7.13,0 12.92,-5.789 12.92,-12.9177" /><g
         transform="scale(0.9,-1.1)"
         id="g66"><path
           id="path68"
           style="fill:none;stroke:#000000;stroke-width:2.17088008;stroke-linecap:butt;stroke-linejoin:miter;stroke-miterlimit:10;stroke-dasharray:none;stroke-opacity:1"
           d="m 1164.97,-89.7976 c 0,6.4844 -6.42,11.7472 -14.35,11.7472 -7.92,0 -14.36,-5.2628 -14.36,-11.7472 0,-6.4808 6.44,-11.7434 14.36,-11.7434 7.93,0 14.35,5.2626 14.35,11.7434 z" /></g><path
         id="path70"
         style="fill:#000000;fill-opacity:1;fill-rule:evenodd;stroke:none"
         d="m 1548.35,95.5977 c 0,-7.1329 -5.79,-12.918 -12.92,-12.918 -7.13,0 -12.92,5.7851 -12.92,12.918 0,7.1323 5.79,12.9223 12.92,12.9223 7.13,0 12.92,-5.79 12.92,-12.9223" /><g
         transform="scale(0.9,-1.1)"
         id="g72"><path
           id="path74"
           style="fill:none;stroke:#000000;stroke-width:2.17088008;stroke-linecap:butt;stroke-linejoin:miter;stroke-miterlimit:10;stroke-dasharray:none;stroke-opacity:1"
           d="m 1720.39,-86.907 c 0,6.4844 -6.44,11.7436 -14.36,11.7436 -7.92,0 -14.35,-5.2592 -14.35,-11.7436 0,-6.4843 6.43,-11.7471 14.35,-11.7471 7.92,0 14.36,5.2628 14.36,11.7471 z" /></g><path
         id="path76"
         style="fill:none;stroke:#000000;stroke-width:3.20000005;stroke-linecap:butt;stroke-linejoin:miter;stroke-miterlimit:10;stroke-dasharray:none;stroke-opacity:1"
         d="m 174.891,144.141 c 32.507,-8.481 16.961,-42.407 16.961,-42.407" /><path
         id="path78"
         style="fill:none;stroke:#000000;stroke-width:3.20000005;stroke-linecap:butt;stroke-linejoin:miter;stroke-miterlimit:10;stroke-dasharray:none;stroke-opacity:1"
         d="M 999.215,615.953 C 985.402,592.57 1019.92,591.68 1019.92,591.68" /><path
         id="path80"
         style="fill:none;stroke:#000000;stroke-width:3.20000005;stroke-linecap:butt;stroke-linejoin:miter;stroke-miterlimit:10;stroke-dasharray:none;stroke-opacity:1"
         d="m 525.438,344.543 c 34.363,-42.742 60.148,11.656 60.148,11.656" /><path
         id="path82"
         style="fill:none;stroke:#000000;stroke-width:3.20000005;stroke-linecap:butt;stroke-linejoin:miter;stroke-miterlimit:10;stroke-dasharray:none;stroke-opacity:1"
         d="m 510.484,337.898 c 50.289,-62.492 90.653,13.164 90.653,13.164" /><path
         id="path84"
         style="fill:none;stroke:#000000;stroke-width:3.20000005;stroke-linecap:butt;stroke-linejoin:miter;stroke-miterlimit:10;stroke-dasharray:none;stroke-opacity:1"
         d="M 681.262,96.8281 C 703.93,174.609 763.762,148 763.762,148" /><path
         id="path86"
         style="fill:none;stroke:#000000;stroke-width:3.20000005;stroke-linecap:butt;stroke-linejoin:miter;stroke-miterlimit:10;stroke-dasharray:none;stroke-opacity:1"
         d="m 704.559,102.629 c 17.941,45.988 50.996,23.801 50.996,23.801" /><path
         id="path88"
         style="fill:#000000;fill-opacity:1;fill-rule:evenodd;stroke:none"
         d="m 868.922,291.434 h 26.074 c 6.836,0 11.949,-1.473 15.332,-4.418 3.387,-2.946 5.078,-6.536 5.078,-10.766 0,-3.352 -1.074,-6.609 -3.222,-9.766 -2.149,-3.156 -5.336,-5.722 -9.571,-7.691 -4.23,-1.969 -8.804,-2.953 -13.718,-2.953 -3.063,0 -6.95,0.555 -11.672,1.66 l -5.274,-18.066 c -1.234,-4.297 -1.855,-7.129 -1.855,-8.496 0,-1.043 0.441,-1.907 1.32,-2.59 0.879,-0.684 2.977,-1.121 6.297,-1.317 l -0.488,-1.808 h -26.317 l 0.535,1.808 c 3.45,0 5.852,0.594 7.204,1.781 1.351,1.188 2.808,4.469 4.371,9.84 l 10.937,37.696 c 1.301,4.523 1.953,7.55 1.953,9.082 0,1.14 -0.465,2.082 -1.394,2.832 -0.926,0.75 -2.969,1.203 -6.125,1.367 z m 9.133,-30.86 c 3.675,-0.941 6.64,-1.414 8.886,-1.414 3.547,0 6.778,0.731 9.692,2.195 2.914,1.465 5.191,3.665 6.836,6.594 1.644,2.93 2.465,5.973 2.465,9.129 0,3.289 -1.008,5.895 -3.028,7.813 -2.015,1.921 -5.078,2.882 -9.179,2.882 -2.211,0 -4.899,-0.277 -8.055,-0.832 l -7.617,-26.367" /></g></g></svg>