<?xml version="1.0" encoding="UTF-8" standalone="no"?>
<svg
   xmlns:dc="http://purl.org/dc/elements/1.1/"
   xmlns:cc="http://creativecommons.org/ns#"
   xmlns:rdf="http://www.w3.org/1999/02/22-rdf-syntax-ns#"
   xmlns:svg="http://www.w3.org/2000/svg"
   xmlns="http://www.w3.org/2000/svg"
   viewBox="0 0 168 98.666664"
   height="98.666664"
   width="168"
   xml:space="preserve"
   id="svg2"
   version="1.1"><metadata
     id="metadata8"><rdf:RDF><cc:Work
         rdf:about=""><dc:format>image/svg+xml</dc:format><dc:type
           rdf:resource="http://purl.org/dc/dcmitype/StillImage" /></cc:Work></rdf:RDF></metadata><defs
     id="defs6" /><g
     transform="matrix(1.3333333,0,0,-1.3333333,0,98.666667)"
     id="g10"><g
       transform="scale(0.1)"
       id="g12"><path
         id="path14"
         style="fill:#231f20;fill-opacity:1;fill-rule:nonzero;stroke:none"
         d="m 39.3867,143.328 6.1172,-53.3319 38.418,53.3319 h 16.1641 v -1.816 c -3.5157,-0.215 -5.5821,-0.45 -6.1993,-0.684 -1.082,-0.414 -2.0664,-1.266 -2.9492,-2.531 -0.8984,-1.27 -1.8633,-3.719 -2.918,-7.336 L 75.7734,88.9805 c -0.7187,-2.4493 -1.0703,-4.3672 -1.0703,-5.7657 0,-1.2695 0.4336,-2.2343 1.3203,-2.8828 1.2305,-0.9336 3.1797,-1.4179 5.8477,-1.4179 h 1.1836 L 82.6055,77.1133 H 54.7227 l 0.5,1.8008 h 1.3125 c 2.4687,0 4.3515,0.3632 5.6718,1.082 0.9961,0.5156 1.8985,1.5 2.6992,2.9492 0.7969,1.4492 1.9141,4.668 3.3477,9.6524 L 79.1875,130.961 40.5742,77.1133 H 38.6211 L 32.4062,130.961 20.5898,89.9961 c -1.0039,-3.4844 -1.5,-5.8164 -1.5,-7.0156 0,-1.2188 0.4336,-2.1328 1.3125,-2.7657 0.8672,-0.6367 3.0039,-1.0703 6.4024,-1.3007 L 26.2539,77.1133 H 4.44141 l 0.53125,1.8008 h 1.3164 c 3.21485,0 5.55074,0.8164 6.98434,2.4492 1.0313,1.1679 2.1289,3.7148 3.2657,7.6172 l 14.414,49.3675 c -1.082,1.097 -2.0976,1.851 -3.082,2.25 -0.9844,0.382 -2.7852,0.699 -5.4141,0.914 l 0.4805,1.816 h 16.4492" /><path
         id="path16"
         style="fill:none;stroke:#231f20;stroke-width:7.5005002;stroke-linecap:butt;stroke-linejoin:miter;stroke-miterlimit:2.61310005;stroke-dasharray:none;stroke-opacity:1"
         d="M 81.6172,111.004 H 1241.71" /><path
         id="path18"
         style="fill:none;stroke:#231f20;stroke-width:7.5005002;stroke-linecap:butt;stroke-linejoin:miter;stroke-miterlimit:2.61310005;stroke-dasharray:none;stroke-opacity:1"
         d="M 80.3867,110.379 410.871,525.145" /><path
         id="path20"
         style="fill:none;stroke:#231f20;stroke-width:7.5005002;stroke-linecap:butt;stroke-linejoin:miter;stroke-miterlimit:2.61310005;stroke-dasharray:none;stroke-opacity:1"
         d="M 407.008,524.02 737.492,109.258" /><path
         id="path22"
         style="fill:none;stroke:#231f20;stroke-width:7.5005002;stroke-linecap:butt;stroke-linejoin:miter;stroke-miterlimit:2.61310005;stroke-dasharray:none;stroke-opacity:1"
         d="M 738.133,113.469 V 700.492" /><path
         id="path24"
         style="fill:none;stroke:#231f20;stroke-width:7.5005002;stroke-linecap:butt;stroke-linejoin:miter;stroke-miterlimit:2.61310005;stroke-dasharray:none;stroke-opacity:1"
         d="M 738.109,113.301 890.043,680.324" /><path
         id="path26"
         style="fill:none;stroke:#231f20;stroke-width:7.5005002;stroke-linecap:butt;stroke-linejoin:miter;stroke-miterlimit:2.61310005;stroke-dasharray:none;stroke-opacity:1"
         d="m 214.117,326.66 40.492,-36.031" /><path
         id="path28"
         style="fill:none;stroke:#231f20;stroke-width:7.5005002;stroke-linecap:butt;stroke-linejoin:miter;stroke-miterlimit:2.61310005;stroke-dasharray:none;stroke-opacity:1"
         d="m 566.531,284.621 37.489,36.031" /><path
         id="path30"
         style="fill:#231f20;fill-opacity:1;fill-rule:nonzero;stroke:none"
         d="m 1220.22,72.0352 -7.56,-26.1836 h 6.2 c 4.43,0 7.63,0.6836 9.63,2.0351 1.98,1.3477 3.68,3.8477 5.12,7.5 h 1.81 l -6.8,-24.0351 h -1.95 c 0.59,2.0156 0.88,3.75 0.88,5.1836 0,1.3984 -0.28,2.5156 -0.84,3.3671 -0.59,0.8516 -1.35,1.4649 -2.35,1.8829 -1,0.3984 -3.09,0.6015 -6.29,0.6015 h -6.28 l -6.4,-21.9179 c -0.62,-2.1172 -0.93,-3.7344 -0.93,-4.8321 0,-0.8515 0.41,-1.6015 1.21,-2.25 0.57,-0.4531 1.95,-0.6836 4.15,-0.6836 h 5.87 c 6.35,0 11.43,1.1328 15.25,3.3672 3.83,2.25 7.26,6.1641 10.28,11.7305 h 1.82 l -6.25,-18.41408 h -51.18 l 0.63,1.79688 c 2.55,0.0703 4.25,0.3008 5.14,0.6836 1.29,0.6016 2.24,1.3516 2.83,2.2539 0.88,1.332 1.91,4.1328 3.11,8.3984 l 11.64,39.9493 c 0.9,3.2187 1.36,5.6679 1.36,7.3671 0,1.2344 -0.43,2.1993 -1.3,2.8985 -0.86,0.7031 -2.55,1.0508 -5.05,1.0508 h -1.03 l 0.58,1.8164 h 47.57 l -4.1,-15.9688 h -1.82 c 0.23,1.5 0.35,2.75 0.35,3.75 0,1.7383 -0.41,3.1836 -1.26,4.3516 -1.12,1.5 -2.72,2.6328 -4.84,3.4179 -1.56,0.5821 -5.17,0.8829 -10.8,0.8829 h -8.4" /><path
         id="path32"
         style="fill:#231f20;fill-opacity:1;fill-rule:nonzero;stroke:none"
         d="m 933.227,672.617 -7.813,-26.23 h 8.699 c 3.899,0 6.832,0.613 8.766,1.816 1.933,1.199 3.933,3.766 5.98,7.715 h 1.852 l -6.883,-24.117 h -1.949 c 0.48,1.953 0.73,3.551 0.73,4.836 0,1.984 -0.664,3.515 -1.98,4.597 -1.317,1.102 -3.785,1.653 -7.402,1.653 h -8.782 l -5.769,-19.985 c -1.031,-3.55 -1.563,-5.898 -1.563,-7.066 0,-1.215 0.449,-2.133 1.348,-2.785 0.898,-0.664 3.086,-1.098 6.566,-1.332 l -0.582,-1.801 h -26.164 l 0.629,1.801 c 2.535,0.07 4.235,0.301 5.067,0.683 1.3,0.567 2.269,1.317 2.886,2.25 0.883,1.332 1.914,4.082 3.133,8.25 l 11.668,39.899 c 0.93,3.219 1.414,5.754 1.414,7.57 0,0.848 -0.215,1.563 -0.633,2.164 -0.433,0.602 -1.05,1.051 -1.883,1.352 -0.832,0.281 -2.484,0.433 -4.953,0.433 l 0.586,1.817 h 51.364 l -4.879,-16.75 h -1.868 c 0.364,2.015 0.547,3.664 0.547,4.984 0,2.149 -0.597,3.848 -1.781,5.098 -1.199,1.25 -2.715,2.133 -4.566,2.648 -1.301,0.336 -4.219,0.5 -8.75,0.5 h -13.035" /><path
         id="path34"
         style="fill:#231f20;fill-opacity:1;fill-rule:nonzero;stroke:none"
         d="m 696.613,703.254 16.399,-25.348 c 2.933,-4.48 5.367,-7.367 7.281,-8.617 1.922,-1.25 4.453,-1.883 7.57,-1.883 l -0.535,-1.801 h -28.23 l 0.449,1.801 c 2.25,0.231 3.832,0.766 4.75,1.617 0.933,0.848 1.398,1.797 1.398,2.883 0,0.981 -0.168,1.918 -0.484,2.832 -0.266,0.649 -1.215,2.25 -2.832,4.785 l -13.434,21.051 -6.5,-21.933 c -1.066,-3.52 -1.601,-5.868 -1.601,-7.086 0,-1.231 0.453,-2.164 1.367,-2.817 0.902,-0.668 3.152,-1.101 6.734,-1.332 l -0.785,-1.801 h -26.164 l 0.633,1.801 c 2.535,0.067 4.25,0.301 5.133,0.684 1.3,0.601 2.25,1.348 2.867,2.25 0.851,1.332 1.898,4.098 3.133,8.301 l 11.668,39.996 c 0.882,3.051 1.316,5.519 1.316,7.367 0,1.305 -0.414,2.301 -1.23,2.984 -0.836,0.684 -2.454,1.016 -4.868,1.016 h -0.984 l 0.598,1.82 h 24.851 l -0.5,-1.82 c -2.051,0.035 -3.57,-0.184 -4.582,-0.684 -1.402,-0.679 -2.418,-1.566 -3.07,-2.632 -0.664,-1.063 -1.613,-3.766 -2.883,-8.051 l -5.133,-16.996 23.535,17.73 c 3.133,2.336 5.18,4.199 6.149,5.57 0.582,0.832 0.883,1.598 0.883,2.282 0,0.582 -0.301,1.168 -0.899,1.718 -0.601,0.547 -1.515,0.899 -2.765,1.063 l 0.5,1.82 h 21.179 l -0.433,-1.82 c -2.317,-0.383 -4.266,-0.899 -5.832,-1.531 -1.582,-0.633 -3.2,-1.5 -4.867,-2.618 -0.481,-0.316 -3.665,-2.734 -9.516,-7.218 l -20.266,-15.383" /><path
         id="path36"
         style="fill:#231f20;fill-opacity:1;fill-rule:nonzero;stroke:none"
         d="m 421.234,620.445 20.45,-51.914 11.082,38.781 c 0.918,3.184 1.367,5.649 1.367,7.418 0,1.2 -0.418,2.149 -1.266,2.832 -0.847,0.684 -2.418,1.016 -4.734,1.016 -0.383,0 -0.797,0.016 -1.215,0.051 l 0.535,1.816 h 21.281 l -0.586,-1.816 c -2.214,0.035 -3.847,-0.184 -4.929,-0.684 -1.535,-0.683 -2.668,-1.566 -3.418,-2.633 -1.035,-1.535 -2.098,-4.199 -3.168,-8 l -15.582,-54.597 h -1.75 l -22.031,55.867 -11.766,-41.27 c -0.871,-3.117 -1.32,-5.515 -1.32,-7.167 0,-1.25 0.398,-2.18 1.199,-2.813 0.801,-0.637 2.703,-1.07 5.683,-1.301 l -0.48,-1.801 h -20.801 l 0.684,1.801 c 2.597,0.067 4.351,0.301 5.23,0.68 1.336,0.601 2.321,1.351 2.969,2.301 0.949,1.433 2,4.199 3.184,8.3 l 13.132,46.051 c -1.269,1.949 -2.632,3.297 -4.082,4.032 -1.453,0.718 -3.703,1.136 -6.769,1.234 l 0.555,1.816 h 16.546" /><path
         id="path38"
         style="fill:#231f20;fill-opacity:1;fill-rule:nonzero;stroke:none"
         d="m 717.898,75.6016 h 26.067 c 6.832,0 11.949,-1.4844 15.332,-4.418 3.383,-2.9492 5.086,-6.5508 5.086,-10.7656 0,-3.3672 -1.086,-6.6172 -3.235,-9.7657 -2.152,-3.1679 -5.336,-5.7343 -9.566,-7.6992 C 747.344,40.9844 742.777,40 737.863,40 c -3.066,0 -6.949,0.5508 -11.668,1.668 l -5.281,-18.0664 c -1.234,-4.3008 -1.848,-7.1328 -1.848,-8.5 0,-1.0508 0.434,-1.9024 1.313,-2.5821 0.887,-0.7031 2.984,-1.1328 6.301,-1.3359 l -0.485,-1.79688 h -26.332 l 0.551,1.79688 c 3.449,0 5.852,0.6016 7.199,1.7852 1.352,1.1992 2.801,4.4687 4.367,9.8515 L 722.914,60.5 c 1.301,4.5352 1.949,7.5664 1.949,9.082 0,1.1524 -0.449,2.086 -1.383,2.836 -0.933,0.75 -2.968,1.1992 -6.132,1.3672 z m 9.114,-30.8672 c 3.687,-0.9492 6.652,-1.4141 8.902,-1.4141 3.535,0 6.766,0.7305 9.684,2.1992 2.914,1.4688 5.199,3.668 6.832,6.5821 1.652,2.9336 2.468,5.9804 2.468,9.1328 0,3.3008 -1.003,5.8984 -3.015,7.8164 -2.035,1.918 -5.086,2.8828 -9.188,2.8828 -2.215,0 -4.898,-0.2852 -8.066,-0.832 l -7.617,-26.3672" /><path
         id="path40"
         style="fill:none;stroke:#231f20;stroke-width:5.00029993;stroke-linecap:butt;stroke-linejoin:miter;stroke-miterlimit:2.61310005;stroke-dasharray:none;stroke-opacity:1"
         d="m 354.551,450.57 c 34.832,-21.324 70.164,-20.074 105.988,3.762" /><path
         id="path42"
         style="fill:#231f20;fill-opacity:1;fill-rule:nonzero;stroke:none"
         d="m 397.648,405.219 -3.82,-8.301 h -19.914 l -4.352,-8.902 c 8.633,-1.266 15.469,-4.465 20.5,-9.614 4.333,-4.418 6.5,-9.636 6.5,-15.621 0,-3.48 -0.703,-6.715 -2.117,-9.664 -1.414,-2.969 -3.199,-5.48 -5.351,-7.566 -2.149,-2.082 -4.547,-3.766 -7.184,-5.035 -3.73,-1.797 -7.582,-2.684 -11.515,-2.684 -3.981,0 -6.864,0.672 -8.665,2.02 -1.816,1.347 -2.718,2.847 -2.718,4.468 0,0.914 0.386,1.715 1.117,2.414 0.75,0.7 1.699,1.051 2.832,1.051 0.851,0 1.601,-0.117 2.234,-0.387 0.633,-0.265 1.715,-0.929 3.25,-1.996 2.434,-1.703 4.903,-2.55 7.418,-2.55 3.797,0 7.149,1.449 10.032,4.332 2.886,2.882 4.316,6.382 4.316,10.515 0,4 -1.285,7.735 -3.848,11.199 -2.582,3.469 -6.117,6.153 -10.652,8.036 -3.547,1.468 -8.383,2.316 -14.496,2.55 l 12.699,25.735 h 23.734" /><path
         id="path44"
         style="fill:#231f20;fill-opacity:1;fill-rule:nonzero;stroke:none"
         d="m 449.043,406.582 v -1.816 c -4.281,-0.414 -7.797,-1.266 -10.516,-2.567 -2.715,-1.281 -5.398,-3.23 -8.05,-5.883 -2.649,-2.632 -4.848,-5.566 -6.598,-8.796 -1.734,-3.254 -3.199,-7.102 -4.367,-11.551 4.683,3.215 9.383,4.832 14.117,4.832 4.516,0 8.449,-1.836 11.766,-5.465 3.316,-3.652 4.984,-8.336 4.984,-14.07 0,-5.532 -1.684,-10.582 -5.035,-15.133 -4.032,-5.535 -9.383,-8.301 -16.016,-8.301 -4.531,0 -8.367,1.504 -11.531,4.484 -6.184,5.836 -9.27,13.383 -9.27,22.668 0,5.918 1.184,11.551 3.567,16.883 2.367,5.352 5.769,10.086 10.187,14.219 4.399,4.133 8.629,6.914 12.664,8.348 4.032,1.433 7.801,2.148 11.285,2.148 z m -30.363,-34.18 c -0.586,-4.402 -0.883,-7.953 -0.883,-10.652 0,-3.117 0.582,-6.516 1.734,-10.184 1.164,-3.648 2.883,-6.566 5.164,-8.714 1.649,-1.52 3.668,-2.282 6.051,-2.282 2.832,0 5.367,1.332 7.582,3.996 2.234,2.668 3.352,6.485 3.352,11.434 0,5.566 -1.102,10.383 -3.317,14.449 -2.218,4.071 -5.351,6.102 -9.433,6.102 -1.235,0 -2.551,-0.266 -3.969,-0.781 -1.414,-0.52 -3.516,-1.653 -6.281,-3.368" /><path
         id="path46"
         style="fill:none;stroke:#231f20;stroke-width:5.00029993;stroke-linecap:butt;stroke-linejoin:miter;stroke-miterlimit:2.61310005;stroke-dasharray:none;stroke-opacity:1"
         d="m 464.676,417.457 c 6.019,0 10.898,-4.883 10.898,-10.91 0,-6.027 -4.879,-10.914 -10.898,-10.914 -6.02,0 -10.899,4.887 -10.899,10.914 0,6.027 4.879,10.91 10.899,10.91 z" /></g></g></svg>