<?xml version="1.0" encoding="UTF-8" standalone="no"?>
<svg
   xmlns:dc="http://purl.org/dc/elements/1.1/"
   xmlns:cc="http://creativecommons.org/ns#"
   xmlns:rdf="http://www.w3.org/1999/02/22-rdf-syntax-ns#"
   xmlns:svg="http://www.w3.org/2000/svg"
   xmlns="http://www.w3.org/2000/svg"
   viewBox="0 0 177.33333 134.66667"
   height="134.66667"
   width="177.33333"
   xml:space="preserve"
   id="svg2"
   version="1.1"><metadata
     id="metadata8"><rdf:RDF><cc:Work
         rdf:about=""><dc:format>image/svg+xml</dc:format><dc:type
           rdf:resource="http://purl.org/dc/dcmitype/StillImage" /></cc:Work></rdf:RDF></metadata><defs
     id="defs6" /><g
     transform="matrix(1.3333333,0,0,-1.3333333,0,134.66667)"
     id="g10"><g
       transform="scale(0.1)"
       id="g12"><path
         id="path14"
         style="fill:none;stroke:#231f20;stroke-width:10.00059986;stroke-linecap:butt;stroke-linejoin:miter;stroke-miterlimit:22.92560005;stroke-dasharray:none;stroke-opacity:1"
         d="m 675.379,767.953 c 195.199,0 353.441,-158.242 353.441,-353.441 0,-195.196 -158.242,-353.4378 -353.441,-353.4378 -195.199,0 -353.441,158.2418 -353.441,353.4378 0,195.199 158.242,353.441 353.441,353.441 z" /><path
         id="path16"
         style="fill:none;stroke:#231f20;stroke-width:10.00059986;stroke-linecap:butt;stroke-linejoin:miter;stroke-miterlimit:22.92560005;stroke-dasharray:none;stroke-opacity:1"
         d="m 675.379,419.637 c 2.832,0 5.125,-2.293 5.125,-5.125 0,-2.828 -2.293,-5.125 -5.125,-5.125 -2.832,0 -5.125,2.297 -5.125,5.125 0,2.832 2.293,5.125 5.125,5.125 z" /><g
         transform="scale(10)"
         id="g18"><text
           id="text28"
           style="font-style:italic;font-variant:normal;font-weight:normal;font-size:9.99989986px;font-family:TimesNewRomanPSMT;-inkscape-font-specification:TimesNewRomanPSMT-NormalItalic;writing-mode:lr-tb;fill:#231f20;fill-opacity:1;fill-rule:nonzero;stroke:none"
           transform="matrix(1,0,0,-1,64.1363,46.6133)"><tspan
             id="tspan20"
             y="0"
             x="0">O</tspan><tspan
             id="tspan22"
             y="-47.3242"
             x="62.899601">A</tspan><tspan
             id="tspan24"
             y="-34.210098"
             x="-6.4190998">B</tspan><tspan
             id="tspan26"
             y="-9.7955999"
             x="38.201599">C</tspan></text>
</g><path
         id="path30"
         style="fill:none;stroke:#231f20;stroke-width:10.00059986;stroke-linecap:butt;stroke-linejoin:miter;stroke-miterlimit:22.92560005;stroke-dasharray:none;stroke-opacity:1"
         d="M 5.25391,652.23 1274.26,898.234" /><path
         id="path32"
         style="fill:none;stroke:#231f20;stroke-width:10.00059986;stroke-linecap:butt;stroke-linejoin:miter;stroke-miterlimit:22.92560005;stroke-dasharray:none;stroke-opacity:1"
         d="M 329.254,10.2344 1274.26,898.234" /><g
         transform="scale(10)"
         id="g34"><text
           id="text38"
           style="font-style:italic;font-variant:normal;font-weight:normal;font-size:9.99989986px;font-family:TimesNewRomanPSMT;-inkscape-font-specification:TimesNewRomanPSMT-NormalItalic;writing-mode:lr-tb;fill:#231f20;fill-opacity:1;fill-rule:nonzero;stroke:none"
           transform="matrix(1,0,0,-1,43.807,2.51328)"><tspan
             id="tspan36"
             y="0"
             x="0">D</tspan></text>
</g></g></g></svg>