<?xml version="1.0" encoding="UTF-8" standalone="no"?>
<svg
   xmlns:dc="http://purl.org/dc/elements/1.1/"
   xmlns:cc="http://creativecommons.org/ns#"
   xmlns:rdf="http://www.w3.org/1999/02/22-rdf-syntax-ns#"
   xmlns:svg="http://www.w3.org/2000/svg"
   xmlns="http://www.w3.org/2000/svg"
   viewBox="0 0 142.66667 150.66667"
   height="150.66667"
   width="142.66667"
   xml:space="preserve"
   id="svg2"
   version="1.1"><metadata
     id="metadata8"><rdf:RDF><cc:Work
         rdf:about=""><dc:format>image/svg+xml</dc:format><dc:type
           rdf:resource="http://purl.org/dc/dcmitype/StillImage" /></cc:Work></rdf:RDF></metadata><defs
     id="defs6" /><g
     transform="matrix(1.3333333,0,0,-1.3333333,0,150.66667)"
     id="g10"><g
       transform="scale(0.1)"
       id="g12"><path
         id="path14"
         style="fill:none;stroke:#231f20;stroke-width:7.5005002;stroke-linecap:butt;stroke-linejoin:miter;stroke-miterlimit:2.61310005;stroke-dasharray:none;stroke-opacity:1"
         d="M 548.176,527.387 980.953,789.641" /><path
         id="path16"
         style="fill:#231f20;fill-opacity:1;fill-rule:nonzero;stroke:none"
         d="M 59.6992,833.367 54.668,778.301 c -0.2657,-2.586 -0.3828,-4.27 -0.3828,-5.086 0,-1.297 0.2304,-2.297 0.7343,-2.981 0.6133,-0.933 1.4493,-1.632 2.5,-2.101 1.0664,-0.449 2.8477,-0.684 5.3477,-0.684 l -0.5313,-1.797 H 36.2656 l 0.5352,1.797 h 1.1172 c 2.1172,0 3.8515,0.469 5.1836,1.367 0.9336,0.637 1.6679,1.653 2.1992,3.086 0.3476,1.016 0.6992,3.379 1.0195,7.129 l 0.7813,8.403 H 28.1523 l -6.7343,-9.133 c -1.5313,-2.051 -2.4844,-3.535 -2.8828,-4.414 -0.3829,-0.903 -0.586,-1.735 -0.586,-2.52 0,-1.051 0.418,-1.933 1.2696,-2.683 0.8476,-0.746 2.25,-1.164 4.1992,-1.235 l -0.5313,-1.797 H 3.30078 l 0.53516,1.797 c 2.41406,0.102 4.53515,0.918 6.38286,2.418 1.832,1.52 4.5664,4.75 8.2148,9.703 l 39.5508,53.797 z M 50.0352,817.117 30.832,791 h 16.6524 l 2.5508,26.117" /><path
         id="path18"
         style="fill:#231f20;fill-opacity:1;fill-rule:nonzero;stroke:none"
         d="m 486.793,541.359 c 4.402,0 8.281,-0.949 11.664,-2.851 3.387,-1.899 6.051,-4.715 7.969,-8.449 1.918,-3.715 2.883,-7.586 2.883,-11.602 0,-7.082 -2.067,-14.531 -6.184,-22.332 -4.117,-7.801 -9.5,-13.75 -16.133,-17.848 -6.648,-4.101 -13.515,-6.152 -20.617,-6.152 -5.098,0 -9.383,1.137 -12.816,3.398 -3.434,2.27 -5.965,5.25 -7.618,8.954 -1.632,3.714 -2.464,7.316 -2.464,10.8 0,6.18 1.5,12.297 4.468,18.332 2.981,6.032 6.551,11.082 10.684,15.133 4.133,4.051 8.531,7.164 13.23,9.352 4.684,2.183 9.664,3.265 14.934,3.265 z m -1.668,-3.117 c -3.25,0 -6.434,-0.801 -9.531,-2.418 -3.117,-1.613 -6.199,-4.25 -9.25,-7.918 -3.067,-3.644 -5.817,-8.449 -8.266,-14.363 -2.984,-7.301 -4.484,-14.184 -4.484,-20.668 0,-4.617 1.179,-8.715 3.566,-12.281 2.367,-3.551 6.016,-5.336 10.93,-5.336 2.969,0 5.871,0.734 8.719,2.199 2.851,1.453 5.816,3.969 8.918,7.52 3.867,4.449 7.117,10.148 9.765,17.066 2.633,6.914 3.949,13.363 3.949,19.348 0,4.433 -1.179,8.351 -3.566,11.75 -2.383,3.402 -5.949,5.101 -10.75,5.101" /><path
         id="path20"
         style="fill:#231f20;fill-opacity:1;fill-rule:nonzero;stroke:none"
         d="m 540.723,1128.06 0.679,1.82 h 23.637 c 3.965,0 7.496,-0.62 10.617,-1.87 3.098,-1.24 5.434,-2.95 6.985,-5.17 1.547,-2.22 2.312,-4.56 2.312,-7.03 0,-3.82 -1.383,-7.25 -4.133,-10.33 -2.75,-3.07 -7.23,-5.36 -13.449,-6.8 4.016,-1.5 6.953,-3.49 8.852,-5.97 1.882,-2.47 2.832,-5.18 2.832,-8.15 0,-3.28 -0.848,-6.43 -2.551,-9.44 -1.684,-2.98 -3.863,-5.31 -6.516,-6.96 -2.648,-1.66 -5.851,-2.88 -9.601,-3.67 -2.668,-0.55 -6.832,-0.83 -12.5,-0.83 h -24.266 l 0.633,1.8 c 2.551,0.07 4.266,0.32 5.184,0.74 1.3,0.56 2.234,1.29 2.785,2.19 0.781,1.23 1.816,4.07 3.117,8.5 l 11.863,40.09 c 1.02,3.38 1.516,5.76 1.516,7.13 0,1.2 -0.446,2.15 -1.332,2.85 -0.899,0.7 -2.598,1.05 -5.114,1.05 -0.55,0 -1.066,0.01 -1.55,0.05 z m 9.898,-27.49 c 2.117,-0.06 3.649,-0.09 4.598,-0.09 6.769,0 11.801,1.47 15.117,4.41 3.301,2.95 4.953,6.63 4.953,11.07 0,3.35 -1.019,5.97 -3.035,7.83 -2.016,1.87 -5.234,2.8 -9.668,2.8 -1.164,0 -2.664,-0.18 -4.481,-0.58 z m -9.617,-32.61 c 3.519,-0.47 6.269,-0.68 8.254,-0.68 5.082,0 9.578,1.53 13.496,4.58 3.934,3.07 5.887,7.22 5.887,12.45 0,4 -1.203,7.13 -3.637,9.38 -2.418,2.25 -6.332,3.37 -11.731,3.37 -1.05,0 -2.32,-0.05 -3.82,-0.15 l -8.449,-28.95" /><path
         id="path22"
         style="fill:none;stroke:#231f20;stroke-width:7.5005002;stroke-linecap:butt;stroke-linejoin:miter;stroke-miterlimit:2.61310005;stroke-dasharray:none;stroke-opacity:1"
         d="M 96.1875,786.293 H 983.93" /><path
         id="path24"
         style="fill:none;stroke:#231f20;stroke-width:7.5005002;stroke-linecap:butt;stroke-linejoin:miter;stroke-miterlimit:2.61310005;stroke-dasharray:none;stroke-opacity:1"
         d="M 97.3164,786.359 542.359,1043.31" /><path
         id="path26"
         style="fill:#231f20;fill-opacity:1;fill-rule:nonzero;stroke:none"
         d="m 605.145,935.98 16.117,7.868 h 1.617 v -55.914 c 0,-3.704 0.148,-6.02 0.449,-6.934 0.317,-0.902 0.969,-1.602 1.934,-2.102 0.984,-0.484 2.968,-0.765 5.965,-0.832 v -1.8 h -24.915 v 1.8 c 3.133,0.067 5.149,0.332 6.067,0.817 0.902,0.465 1.531,1.097 1.898,1.898 0.352,0.801 0.535,3.184 0.535,7.153 v 35.75 c 0,4.812 -0.167,7.898 -0.484,9.265 -0.23,1.047 -0.648,1.817 -1.25,2.297 -0.601,0.484 -1.316,0.734 -2.164,0.734 -1.203,0 -2.883,-0.5 -5.035,-1.515 l -0.734,1.515" /><path
         id="path28"
         style="fill:#231f20;fill-opacity:1;fill-rule:nonzero;stroke:none"
         d="m 686.848,942.48 -3.821,-8.3 h -19.914 l -4.351,-8.899 c 8.633,-1.269 15.468,-4.469 20.5,-9.617 4.332,-4.418 6.5,-9.633 6.5,-15.617 0,-3.485 -0.703,-6.715 -2.117,-9.664 -1.418,-2.969 -3.2,-5.485 -5.352,-7.567 -2.148,-2.086 -4.547,-3.769 -7.184,-5.035 -3.73,-1.801 -7.582,-2.683 -11.515,-2.683 -3.981,0 -6.864,0.668 -8.664,2.015 -1.817,1.352 -2.719,2.852 -2.719,4.469 0,0.914 0.387,1.715 1.117,2.414 0.75,0.703 1.699,1.055 2.832,1.055 0.852,0 1.602,-0.121 2.235,-0.387 0.632,-0.266 1.714,-0.934 3.25,-2 2.433,-1.699 4.902,-2.551 7.417,-2.551 3.797,0 7.149,1.453 10.032,4.336 2.886,2.883 4.316,6.383 4.316,10.516 0,4 -1.285,7.734 -3.848,11.199 -2.582,3.465 -6.117,6.152 -10.652,8.035 -3.547,1.465 -8.383,2.313 -14.496,2.551 l 12.699,25.73 h 23.735" /><path
         id="path30"
         style="fill:none;stroke:#231f20;stroke-width:7.5005002;stroke-linecap:butt;stroke-linejoin:miter;stroke-miterlimit:2.61310005;stroke-dasharray:none;stroke-opacity:1"
         d="m 539.32,1042.11 c 284.207,0 514.7,-230.493 514.7,-514.719 0,-284.211 -230.493,-514.6996 -514.7,-514.6996 -284.215,0 -514.6989,230.4886 -514.6989,514.6996 0,284.226 230.4839,514.719 514.6989,514.719 z" /><path
         id="path32"
         style="fill:#231f20;fill-opacity:1;fill-rule:nonzero;stroke:none"
         d="M 743.523,617.133 759.641,625 h 1.617 v -55.914 c 0,-3.703 0.148,-6.02 0.449,-6.934 0.316,-0.902 0.969,-1.601 1.934,-2.101 0.984,-0.485 2.968,-0.766 5.964,-0.832 v -1.801 h -24.914 v 1.801 c 3.133,0.066 5.149,0.332 6.067,0.816 0.902,0.469 1.531,1.098 1.898,1.899 0.352,0.8 0.535,3.183 0.535,7.152 v 35.75 c 0,4.816 -0.168,7.898 -0.484,9.266 -0.23,1.046 -0.648,1.816 -1.25,2.296 -0.602,0.489 -1.316,0.735 -2.164,0.735 -1.203,0 -2.883,-0.5 -5.035,-1.516 l -0.735,1.516" /><path
         id="path34"
         style="fill:#231f20;fill-opacity:1;fill-rule:nonzero;stroke:none"
         d="m 825.227,623.633 -3.821,-8.297 h -19.914 l -4.351,-8.902 c 8.632,-1.266 15.468,-4.469 20.5,-9.614 4.332,-4.422 6.5,-9.636 6.5,-15.621 0,-3.484 -0.703,-6.715 -2.118,-9.664 -1.418,-2.969 -3.199,-5.484 -5.351,-7.566 -2.149,-2.082 -4.547,-3.766 -7.184,-5.035 -3.73,-1.801 -7.582,-2.684 -11.515,-2.684 -3.981,0 -6.864,0.668 -8.664,2.02 -1.817,1.347 -2.719,2.847 -2.719,4.464 0,0.918 0.387,1.715 1.117,2.418 0.75,0.7 1.699,1.051 2.832,1.051 0.852,0 1.602,-0.121 2.234,-0.387 0.633,-0.265 1.715,-0.933 3.25,-1.996 2.434,-1.703 4.903,-2.554 7.418,-2.554 3.797,0 7.149,1.453 10.032,4.336 2.886,2.882 4.316,6.382 4.316,10.515 0,4 -1.285,7.735 -3.848,11.199 -2.582,3.469 -6.117,6.153 -10.652,8.036 -3.547,1.468 -8.383,2.316 -14.496,2.55 l 12.699,25.731 h 23.735" /><path
         id="path36"
         style="fill:none;stroke:#231f20;stroke-width:7.5005002;stroke-linecap:butt;stroke-linejoin:miter;stroke-miterlimit:2.61310005;stroke-dasharray:none;stroke-opacity:1"
         d="M 983.656,788.527 542.359,1043.3" /><path
         id="path38"
         style="fill:#231f20;fill-opacity:1;fill-rule:evenodd;stroke:none"
         d="m 537.918,535.438 c 6.637,0 12.02,-5.383 12.02,-12.02 0,-6.633 -5.383,-12.016 -12.02,-12.016 -6.637,0 -12.02,5.383 -12.02,12.016 0,6.637 5.383,12.02 12.02,12.02" /><path
         id="path40"
         style="fill:none;stroke:#231f20;stroke-width:7.5005002;stroke-linecap:butt;stroke-linejoin:miter;stroke-miterlimit:2.61310005;stroke-dasharray:none;stroke-opacity:1"
         d="m 537.918,535.438 c 6.637,0 12.02,-5.383 12.02,-12.02 0,-6.633 -5.383,-12.016 -12.02,-12.016 -6.637,0 -12.02,5.383 -12.02,12.016 0,6.637 5.383,12.02 12.02,12.02 z" /><path
         id="path42"
         style="fill:#231f20;fill-opacity:1;fill-rule:nonzero;stroke:none"
         d="m 1062.29,843.672 -4.93,-21.43 h -1.77 l -0.18,5.383 c -0.17,1.949 -0.55,3.68 -1.14,5.215 -0.58,1.535 -1.47,2.851 -2.63,3.984 -1.17,1.114 -2.65,2 -4.45,2.633 -1.78,0.633 -3.77,0.949 -5.95,0.949 -5.83,0 -10.92,-1.601 -15.28,-4.781 -5.57,-4.066 -9.94,-9.816 -13.08,-17.234 -2.61,-6.118 -3.92,-12.317 -3.92,-18.602 0,-6.414 1.88,-11.531 5.61,-15.363 3.75,-3.821 8.62,-5.735 14.6,-5.735 4.54,0 8.57,1.016 12.09,3.032 3.53,2.019 6.81,5.117 9.85,9.316 h 2.28 c -3.57,-5.699 -7.55,-9.883 -11.9,-12.562 -4.37,-2.688 -9.6,-4.036 -15.69,-4.036 -5.39,0 -10.18,1.133 -14.34,3.399 -4.17,2.269 -7.35,5.433 -9.52,9.551 -2.186,4.101 -3.284,8.5 -3.284,13.234 0,7.215 1.954,14.25 5.814,21.082 3.87,6.832 9.19,12.215 15.94,16.117 6.76,3.899 13.56,5.848 20.45,5.848 3.21,0 6.83,-0.746 10.83,-2.281 1.75,-0.653 3.03,-0.985 3.8,-0.985 0.78,0 1.46,0.168 2.06,0.485 0.59,0.332 1.56,1.265 2.92,2.781 h 1.82" /></g></g></svg>