<?xml version="1.0" encoding="UTF-8" standalone="no"?>
<svg
   xmlns:dc="http://purl.org/dc/elements/1.1/"
   xmlns:cc="http://creativecommons.org/ns#"
   xmlns:rdf="http://www.w3.org/1999/02/22-rdf-syntax-ns#"
   xmlns:svg="http://www.w3.org/2000/svg"
   xmlns="http://www.w3.org/2000/svg"
   viewBox="0 0 93.333336 100"
   height="100"
   width="93.333336"
   xml:space="preserve"
   id="svg2"
   version="1.1"><metadata
     id="metadata8"><rdf:RDF><cc:Work
         rdf:about=""><dc:format>image/svg+xml</dc:format><dc:type
           rdf:resource="http://purl.org/dc/dcmitype/StillImage" /></cc:Work></rdf:RDF></metadata><defs
     id="defs6" /><g
     transform="matrix(1.3333333,0,0,-1.3333333,0,100)"
     id="g10"><g
       transform="scale(0.1)"
       id="g12"><path
         id="path14"
         style="fill:#231f20;fill-opacity:1;fill-rule:nonzero;stroke:none"
         d="m 334.789,69.7969 0.684,1.8164 h 23.636 c 3.965,0 7.496,-0.6172 10.614,-1.8672 3.101,-1.2305 5.433,-2.9453 6.984,-5.1641 1.547,-2.2148 2.316,-4.5664 2.316,-7.0351 0,-3.8164 -1.382,-7.2461 -4.132,-10.3321 -2.754,-3.0664 -7.235,-5.3476 -13.45,-6.8007 4.016,-1.5 6.95,-3.4844 8.848,-5.9649 1.883,-2.4687 2.832,-5.1836 2.832,-8.1523 0,-3.2813 -0.848,-6.4297 -2.547,-9.4336 -1.683,-2.9805 -3.867,-5.3125 -6.515,-6.96486 -2.653,-1.66406 -5.852,-2.88282 -9.602,-3.66797 -2.668,-0.54688 -6.836,-0.83203 -12.5,-0.83203 h -24.266 l 0.633,1.80078 c 2.551,0.0664 4.266,0.3164 5.184,0.73437 1.297,0.56641 2.23,1.29688 2.785,2.19921 0.781,1.2344 1.812,4.0664 3.113,8.4961 l 11.867,40.0859 c 1.016,3.3829 1.516,5.7657 1.516,7.1329 0,1.1992 -0.449,2.1523 -1.332,2.8515 -0.898,0.6992 -2.602,1.0469 -5.117,1.0469 -0.551,0 -1.067,0.0195 -1.551,0.0508 z m 9.902,-27.4844 c 2.114,-0.0625 3.649,-0.0977 4.598,-0.0977 6.77,0 11.801,1.4688 15.117,4.418 3.297,2.9492 4.953,6.6328 4.953,11.0625 0,3.3516 -1.019,5.9688 -3.039,7.8359 -2.015,1.8672 -5.23,2.8008 -9.664,2.8008 -1.164,0 -2.664,-0.1836 -4.48,-0.582 z M 335.074,9.69922 c 3.516,-0.46875 6.266,-0.6836 8.25,-0.6836 5.082,0 9.582,1.53518 13.5,4.58208 3.934,3.0703 5.883,7.2187 5.883,12.4531 0,3.9961 -1.203,7.1289 -3.633,9.3789 -2.418,2.2539 -6.332,3.3711 -11.734,3.3711 -1.051,0 -2.317,-0.0547 -3.817,-0.1524 L 335.074,9.69922" /><path
         id="path16"
         style="fill:#231f20;fill-opacity:1;fill-rule:nonzero;stroke:none"
         d="m 374.121,745.766 -5.031,-55.067 c -0.27,-2.586 -0.383,-4.269 -0.383,-5.086 0,-1.297 0.231,-2.297 0.734,-2.98 0.614,-0.934 1.446,-1.633 2.5,-2.102 1.063,-0.449 2.848,-0.683 5.348,-0.683 l -0.531,-1.801 h -26.07 l 0.535,1.801 h 1.117 c 2.117,0 3.851,0.468 5.183,1.367 0.934,0.637 1.668,1.648 2.2,3.086 0.347,1.015 0.699,3.379 1.019,7.129 l 0.781,8.402 h -18.949 l -6.734,-9.133 c -1.531,-2.051 -2.485,-3.535 -2.883,-4.414 -0.383,-0.902 -0.586,-1.738 -0.586,-2.519 0,-1.051 0.418,-1.934 1.27,-2.684 0.847,-0.75 2.25,-1.164 4.199,-1.234 l -0.531,-1.801 h -19.586 l 0.531,1.801 c 2.418,0.101 4.535,0.918 6.387,2.418 1.832,1.515 4.566,4.75 8.214,9.699 l 39.551,53.801 z m -9.664,-16.25 -19.203,-26.118 h 16.652 l 2.551,26.118" /><path
         id="path18"
         style="fill:#231f20;fill-opacity:1;fill-rule:nonzero;stroke:none"
         d="m 74.1484,570.547 -4.9336,-21.434 h -1.7656 l -0.1836,5.383 c -0.1679,1.953 -0.5508,3.684 -1.1328,5.215 -0.5859,1.535 -1.4687,2.851 -2.6328,3.988 -1.168,1.113 -2.6523,1.996 -4.4492,2.633 -1.7852,0.633 -3.7696,0.949 -5.9531,0.949 -5.8321,0 -10.9141,-1.601 -15.2813,-4.785 -5.5703,-4.066 -9.9336,-9.816 -13.082,-17.23 -2.6016,-6.118 -3.918,-12.317 -3.918,-18.602 0,-6.418 1.8828,-11.535 5.6133,-15.367 3.75,-3.817 8.6172,-5.735 14.6015,-5.735 4.5352,0 8.5665,1.02 12.086,3.036 3.5312,2.015 6.8164,5.113 9.8476,9.316 H 65.25 c -3.5664,-5.699 -7.5508,-9.883 -11.9023,-12.566 -4.3633,-2.684 -9.6016,-4.036 -15.6836,-4.036 -5.3985,0 -10.1797,1.137 -14.3477,3.403 -4.168,2.265 -7.3516,5.433 -9.5156,9.547 -2.1875,4.101 -3.2852,8.504 -3.2852,13.234 0,7.219 1.9492,14.25 5.8164,21.086 3.8672,6.832 9.1836,12.215 15.9336,16.113 6.7656,3.903 13.5664,5.852 20.4492,5.852 3.2149,0 6.8321,-0.75 10.8321,-2.281 1.7539,-0.653 3.0351,-0.985 3.8008,-0.985 0.7851,0 1.4648,0.164 2.0664,0.481 0.5859,0.336 1.5507,1.269 2.9179,2.785 h 1.8164" /><path
         id="path20"
         style="fill:none;stroke:#231f20;stroke-width:7.5005002;stroke-linecap:butt;stroke-linejoin:miter;stroke-miterlimit:2.61310005;stroke-dasharray:none;stroke-opacity:1"
         d="M 95.4883,518.672 H 597.07" /><path
         id="path22"
         style="fill:none;stroke:#231f20;stroke-width:7.5005002;stroke-linecap:butt;stroke-linejoin:miter;stroke-miterlimit:2.61310005;stroke-dasharray:none;stroke-opacity:1"
         d="m 345.48,665.445 c 157.829,0 285.856,-127.996 285.856,-285.828 0,-157.836 -128.027,-285.8592 -285.856,-285.8592 -157.839,0 -285.8472,128.0232 -285.8472,285.8592 0,157.832 128.0082,285.828 285.8472,285.828 z" /><path
         id="path24"
         style="fill:none;stroke:#231f20;stroke-width:7.5005002;stroke-linecap:butt;stroke-linejoin:miter;stroke-miterlimit:2.61310005;stroke-dasharray:none;stroke-opacity:1"
         d="M 346.285,92.1523 V 669.527" /><path
         id="path26"
         style="fill:#231f20;fill-opacity:1;fill-rule:nonzero;stroke:none"
         d="m 638.773,561.246 0.586,1.816 h 21.149 c 8.949,0 15.582,-1.035 19.883,-3.082 4.316,-2.05 7.769,-5.285 10.332,-9.683 2.57,-4.418 3.867,-9.152 3.867,-14.199 0,-4.317 -0.75,-8.536 -2.235,-12.618 -1.48,-4.085 -3.148,-7.351 -5.031,-9.816 -1.867,-2.453 -4.734,-5.168 -8.617,-8.133 -3.867,-2.949 -8.066,-5.152 -12.582,-6.566 -4.535,-1.418 -10.184,-2.117 -16.949,-2.117 h -28.031 l 0.628,1.8 c 2.582,0.067 4.301,0.301 5.188,0.68 1.297,0.57 2.262,1.32 2.883,2.254 0.929,1.363 1.996,4.113 3.164,8.246 l 11.715,40.051 c 0.918,3.148 1.367,5.633 1.367,7.418 0,1.265 -0.418,2.25 -1.266,2.933 -0.847,0.68 -2.5,1.016 -4.98,1.016 z m 17.336,-1.851 -14.351,-49.567 c -1.082,-3.699 -1.617,-5.996 -1.617,-6.883 0,-0.515 0.168,-1.015 0.519,-1.515 0.332,-0.485 0.797,-0.797 1.383,-0.965 0.852,-0.301 2.215,-0.453 4.098,-0.453 5.117,0 9.867,0.535 14.234,1.601 4.383,1.051 7.965,2.617 10.766,4.703 3.984,3.032 7.152,7.2 9.535,12.496 2.367,5.317 3.547,11.348 3.547,18.118 0,7.648 -1.817,13.347 -5.465,17.066 -3.633,3.731 -8.969,5.602 -15.965,5.602 -1.719,0 -3.953,-0.071 -6.684,-0.203" /><path
         id="path28"
         style="fill:#231f20;fill-opacity:1;fill-rule:nonzero;stroke:none"
         d="m 396.891,470.406 16.402,-25.351 c 2.934,-4.481 5.363,-7.367 7.281,-8.617 1.918,-1.25 4.449,-1.883 7.567,-1.883 l -0.532,-1.801 h -28.234 l 0.449,1.801 c 2.25,0.234 3.836,0.765 4.75,1.617 0.934,0.851 1.403,1.801 1.403,2.887 0,0.98 -0.168,1.914 -0.485,2.832 -0.269,0.648 -1.219,2.25 -2.832,4.781 l -13.433,21.051 -6.5,-21.934 c -1.071,-3.516 -1.602,-5.867 -1.602,-7.082 0,-1.234 0.449,-2.168 1.367,-2.82 0.899,-0.664 3.153,-1.098 6.735,-1.332 l -0.786,-1.801 h -26.168 l 0.637,1.801 c 2.535,0.07 4.25,0.3 5.133,0.683 1.297,0.602 2.246,1.352 2.867,2.25 0.848,1.332 1.899,4.102 3.129,8.301 l 11.668,40 c 0.887,3.051 1.32,5.516 1.32,7.367 0,1.301 -0.418,2.297 -1.234,2.981 -0.832,0.683 -2.453,1.019 -4.867,1.019 h -0.985 l 0.598,1.817 h 24.852 l -0.496,-1.817 c -2.055,0.032 -3.571,-0.183 -4.586,-0.683 -1.399,-0.684 -2.418,-1.567 -3.067,-2.633 -0.668,-1.067 -1.617,-3.77 -2.883,-8.051 l -5.132,-17 23.531,17.734 c 3.133,2.332 5.183,4.196 6.148,5.567 0.586,0.832 0.887,1.598 0.887,2.281 0,0.586 -0.301,1.168 -0.898,1.719 -0.602,0.551 -1.52,0.898 -2.77,1.066 l 0.5,1.817 h 21.184 l -0.434,-1.817 c -2.316,-0.383 -4.266,-0.898 -5.836,-1.535 -1.578,-0.633 -3.199,-1.5 -4.867,-2.617 -0.481,-0.316 -3.664,-2.731 -9.516,-7.215 l -20.265,-15.383" /></g></g></svg>