<?xml version="1.0" encoding="UTF-8" standalone="no"?>
<svg
   xmlns:dc="http://purl.org/dc/elements/1.1/"
   xmlns:cc="http://creativecommons.org/ns#"
   xmlns:rdf="http://www.w3.org/1999/02/22-rdf-syntax-ns#"
   xmlns:svg="http://www.w3.org/2000/svg"
   xmlns="http://www.w3.org/2000/svg"
   viewBox="0 0 102.66667 94.666664"
   height="94.666664"
   width="102.66667"
   xml:space="preserve"
   id="svg2"
   version="1.1"><metadata
     id="metadata8"><rdf:RDF><cc:Work
         rdf:about=""><dc:format>image/svg+xml</dc:format><dc:type
           rdf:resource="http://purl.org/dc/dcmitype/StillImage" /></cc:Work></rdf:RDF></metadata><defs
     id="defs6" /><g
     transform="matrix(1.3333333,0,0,-1.3333333,0,94.666667)"
     id="g10"><g
       transform="scale(0.1)"
       id="g12"><path
         id="path14"
         style="fill:#231f20;fill-opacity:1;fill-rule:evenodd;stroke:none"
         d="m 415.766,369.164 c 6.632,0 12.019,-5.387 12.019,-12.019 0,-6.637 -5.387,-12.02 -12.019,-12.02 -6.637,0 -12.02,5.383 -12.02,12.02 0,6.632 5.383,12.019 12.02,12.019" /><path
         id="path16"
         style="fill:none;stroke:#231f20;stroke-width:7.5005002;stroke-linecap:butt;stroke-linejoin:miter;stroke-miterlimit:2.61310005;stroke-dasharray:none;stroke-opacity:1"
         d="m 415.766,369.164 c 6.632,0 12.019,-5.387 12.019,-12.019 0,-6.637 -5.387,-12.02 -12.019,-12.02 -6.637,0 -12.02,5.383 -12.02,12.02 0,6.632 5.383,12.019 12.02,12.019 z" /><path
         id="path18"
         style="fill:#231f20;fill-opacity:1;fill-rule:nonzero;stroke:none"
         d="m 340.262,279.332 c 1.886,4.453 4.269,7.902 7.152,10.316 2.883,2.434 6.469,3.653 10.766,3.653 5.3,0 9.367,-1.735 12.203,-5.188 2.148,-2.562 3.234,-5.312 3.234,-8.246 0,-4.816 -3.039,-9.801 -9.086,-14.933 4.067,-1.602 7.133,-3.883 9.219,-6.852 2.082,-2.949 3.133,-6.43 3.133,-10.449 0,-5.715 -1.821,-10.684 -5.469,-14.883 -4.75,-5.465 -11.633,-8.199 -20.652,-8.199 -4.465,0 -7.496,0.547 -9.114,1.652 -1.601,1.113 -2.418,2.297 -2.418,3.567 0,0.949 0.383,1.781 1.149,2.5 0.769,0.714 1.683,1.062 2.766,1.062 0.804,0 1.636,-0.133 2.488,-0.383 0.551,-0.164 1.801,-0.765 3.765,-1.781 1.95,-1.035 3.301,-1.637 4.051,-1.832 1.196,-0.367 2.481,-0.535 3.848,-0.535 3.316,0 6.215,1.281 8.668,3.851 2.465,2.563 3.683,5.614 3.683,9.133 0,2.563 -0.566,5.082 -1.703,7.516 -0.847,1.816 -1.781,3.199 -2.781,4.148 -1.398,1.301 -3.316,2.485 -5.766,3.535 -2.433,1.067 -4.933,1.602 -7.468,1.602 h -1.567 v 1.465 c 2.567,0.316 5.153,1.25 7.735,2.781 2.601,1.52 4.484,3.367 5.652,5.516 1.164,2.152 1.746,4.504 1.746,7.07 0,3.367 -1.047,6.062 -3.148,8.129 -2.102,2.07 -4.7,3.101 -7.836,3.101 -5.047,0 -9.246,-2.695 -12.649,-8.097 l -1.601,0.781" /><path
         id="path20"
         style="fill:#231f20;fill-opacity:1;fill-rule:nonzero;stroke:none"
         d="m 64.8398,169.379 -5.0351,-55.063 c -0.2656,-2.586 -0.3828,-4.269 -0.3828,-5.086 0,-1.296 0.2343,-2.3 0.7343,-2.98 0.6172,-0.934 1.4493,-1.633 2.5,-2.102 1.0665,-0.453 2.8516,-0.683 5.3516,-0.683 l -0.5351,-1.801 H 41.4062 l 0.5313,1.801 h 1.1172 c 2.1172,0 3.8555,0.469 5.1875,1.367 0.9297,0.633 1.664,1.648 2.1992,3.082 0.3477,1.02 0.6992,3.383 1.0156,7.133 l 0.7852,8.402 H 33.2891 l -6.7344,-9.133 c -1.5313,-2.054 -2.4805,-3.535 -2.8828,-4.418 -0.3828,-0.902 -0.5821,-1.734 -0.5821,-2.515 0,-1.051 0.418,-1.934 1.2657,-2.684 0.8515,-0.75 2.25,-1.168 4.2031,-1.234 l -0.5352,-1.801 H 8.44141 l 0.53125,1.801 c 2.41794,0.097 4.53514,0.914 6.38284,2.418 1.8359,1.515 4.5664,4.746 8.2187,9.699 l 39.5469,53.797 z m -9.664,-16.25 -19.2031,-26.113 h 16.6484 l 2.5547,26.113" /><path
         id="path22"
         style="fill:#231f20;fill-opacity:1;fill-rule:nonzero;stroke:none"
         d="m 413.035,80.4688 16.399,-25.3477 c 2.933,-4.4844 5.367,-7.3672 7.285,-8.6172 1.918,-1.25 4.449,-1.8828 7.566,-1.8828 l -0.531,-1.8008 H 415.52 l 0.449,1.8008 c 2.25,0.2305 3.836,0.7656 4.75,1.6133 0.933,0.8515 1.398,1.8008 1.398,2.8867 0,0.9805 -0.164,1.918 -0.484,2.832 -0.266,0.6485 -1.215,2.25 -2.832,4.7852 l -13.43,21.0508 -6.5,-21.9336 c -1.07,-3.5196 -1.601,-5.8711 -1.601,-7.086 0,-1.2304 0.449,-2.164 1.363,-2.8164 0.902,-0.6679 3.152,-1.1015 6.738,-1.332 l -0.785,-1.8008 h -26.168 l 0.637,1.8008 c 2.531,0.0664 4.246,0.3008 5.133,0.6836 1.296,0.6015 2.246,1.3476 2.863,2.25 0.851,1.332 1.902,4.0976 3.133,8.3008 l 11.668,39.9961 c 0.882,3.0507 1.316,5.5154 1.316,7.3674 0,1.301 -0.414,2.301 -1.23,2.984 -0.836,0.684 -2.454,1.016 -4.868,1.016 h -0.984 l 0.598,1.816 h 24.851 l -0.5,-1.816 c -2.051,0.035 -3.566,-0.184 -4.582,-0.684 -1.402,-0.683 -2.418,-1.566 -3.066,-2.633 -0.668,-1.066 -1.617,-3.765 -2.883,-8.0504 l -5.133,-16.9961 23.531,17.7304 c 3.133,2.336 5.18,4.1991 6.149,5.5661 0.582,0.836 0.883,1.602 0.883,2.286 0,0.582 -0.301,1.167 -0.899,1.714 -0.601,0.551 -1.515,0.899 -2.765,1.067 l 0.5,1.816 h 21.183 l -0.433,-1.816 c -2.317,-0.383 -4.27,-0.899 -5.836,-1.531 -1.582,-0.633 -3.2,-1.5 -4.868,-2.618 -0.48,-0.316 -3.664,-2.734 -9.515,-7.2184 L 413.035,80.4688" /><path
         id="path24"
         style="fill:#231f20;fill-opacity:1;fill-rule:nonzero;stroke:none"
         d="m 718.898,147.031 0.684,1.817 h 23.633 c 3.969,0 7.5,-0.618 10.617,-1.868 3.102,-1.23 5.434,-2.945 6.984,-5.164 1.547,-2.214 2.317,-4.566 2.317,-7.035 0,-3.816 -1.383,-7.25 -4.133,-10.332 -2.754,-3.066 -7.234,-5.347 -13.449,-6.801 4.015,-1.5 6.949,-3.484 8.847,-5.964 1.883,-2.469 2.832,-5.184 2.832,-8.153 0,-3.281 -0.847,-6.4294 -2.546,-9.4333 -1.684,-2.9805 -3.868,-5.3125 -6.52,-6.9649 -2.648,-1.664 -5.848,-2.8828 -9.598,-3.668 -2.668,-0.5468 -6.836,-0.832 -12.504,-0.832 h -24.261 l 0.633,1.8008 c 2.55,0.0664 4.265,0.3164 5.183,0.7344 1.297,0.5664 2.231,1.2968 2.781,2.1992 0.786,1.2344 1.817,4.0664 3.118,8.4961 l 11.867,40.0857 c 1.015,3.383 1.515,5.766 1.515,7.133 0,1.199 -0.449,2.148 -1.332,2.852 -0.898,0.699 -2.601,1.046 -5.117,1.046 -0.551,0 -1.066,0.02 -1.551,0.051 z m 9.903,-27.484 c 2.113,-0.063 3.648,-0.098 4.597,-0.098 6.77,0 11.801,1.469 15.118,4.414 3.296,2.953 4.949,6.637 4.949,11.067 0,3.351 -1.016,5.968 -3.035,7.836 -2.016,1.867 -5.231,2.8 -9.664,2.8 -1.168,0 -2.664,-0.183 -4.485,-0.582 z m -9.617,-32.6134 c 3.515,-0.4688 6.265,-0.6836 8.25,-0.6836 5.082,0 9.582,1.5352 13.5,4.582 3.933,3.0703 5.882,7.2188 5.882,12.449 0,4 -1.203,7.133 -3.632,9.383 -2.418,2.254 -6.332,3.367 -11.735,3.367 -1.051,0 -2.316,-0.051 -3.816,-0.148 l -8.449,-28.9494" /><path
         id="path26"
         style="fill:#231f20;fill-opacity:1;fill-rule:nonzero;stroke:none"
         d="m 431.77,501.336 c 4.402,0 8.285,-0.949 11.668,-2.852 3.386,-1.902 6.05,-4.714 7.968,-8.449 1.918,-3.715 2.883,-7.586 2.883,-11.601 0,-7.082 -2.066,-14.532 -6.184,-22.332 -4.117,-7.801 -9.5,-13.75 -16.132,-17.848 -6.653,-4.102 -13.52,-6.152 -20.618,-6.152 -5.097,0 -9.382,1.132 -12.816,3.398 -3.434,2.27 -5.969,5.25 -7.617,8.953 -1.633,3.715 -2.465,7.317 -2.465,10.801 0,6.18 1.496,12.297 4.465,18.328 2.984,6.035 6.551,11.086 10.683,15.137 4.133,4.051 8.532,7.164 13.235,9.351 4.68,2.18 9.664,3.266 14.93,3.266 z m -1.665,-3.117 c -3.25,0 -6.433,-0.801 -9.535,-2.418 -3.113,-1.613 -6.199,-4.25 -9.25,-7.918 -3.066,-3.649 -5.816,-8.449 -8.265,-14.363 -2.985,-7.301 -4.485,-14.184 -4.485,-20.668 0,-4.618 1.184,-8.715 3.567,-12.282 2.367,-3.554 6.019,-5.336 10.933,-5.336 2.969,0 5.868,0.735 8.719,2.2 2.852,1.453 5.816,3.968 8.914,7.519 3.867,4.449 7.121,10.149 9.766,17.067 2.636,6.914 3.953,13.363 3.953,19.347 0,4.434 -1.184,8.352 -3.567,11.75 -2.382,3.403 -5.949,5.102 -10.75,5.102" /><path
         id="path28"
         style="fill:none;stroke:#231f20;stroke-width:7.5005002;stroke-linecap:butt;stroke-linejoin:miter;stroke-miterlimit:2.61310005;stroke-dasharray:none;stroke-opacity:1"
         d="M 130.422,161.109 H 696.91" /><path
         id="path30"
         style="fill:none;stroke:#231f20;stroke-width:7.5005002;stroke-linecap:butt;stroke-linejoin:miter;stroke-miterlimit:2.61310005;stroke-dasharray:none;stroke-opacity:1"
         d="M 414.402,360.738 V 158.699" /><path
         id="path32"
         style="fill:none;stroke:#231f20;stroke-width:7.5005002;stroke-linecap:butt;stroke-linejoin:miter;stroke-miterlimit:2.61310005;stroke-dasharray:none;stroke-opacity:1"
         d="m 416.195,698.855 c 190.743,0 345.43,-154.679 345.43,-345.414 C 761.625,162.699 606.938,8.01953 416.195,8.01953 225.453,8.01953 70.7695,162.699 70.7695,353.441 c 0,190.735 154.6835,345.414 345.4255,345.414 z" /><path
         id="path34"
         style="fill:#231f20;fill-opacity:1;fill-rule:evenodd;stroke:none"
         d="m 415.012,173.855 c 6.636,0 12.019,-5.382 12.019,-12.019 0,-6.637 -5.383,-12.02 -12.019,-12.02 -6.633,0 -12.016,5.383 -12.016,12.02 0,6.637 5.383,12.019 12.016,12.019" /><path
         id="path36"
         style="fill:none;stroke:#231f20;stroke-width:7.5005002;stroke-linecap:butt;stroke-linejoin:miter;stroke-miterlimit:2.61310005;stroke-dasharray:none;stroke-opacity:1"
         d="m 415.012,173.855 c 6.636,0 12.019,-5.382 12.019,-12.019 0,-6.637 -5.383,-12.02 -12.019,-12.02 -6.633,0 -12.016,5.383 -12.016,12.02 0,6.637 5.383,12.019 12.016,12.019 z" /><path
         id="path38"
         style="fill:#231f20;fill-opacity:1;fill-rule:evenodd;stroke:none"
         d="m 131.816,173.105 c 6.637,0 12.02,-5.382 12.02,-12.019 0,-6.637 -5.383,-12.02 -12.02,-12.02 -6.632,0 -12.015,5.383 -12.015,12.02 0,6.637 5.383,12.019 12.015,12.019" /><path
         id="path40"
         style="fill:none;stroke:#231f20;stroke-width:7.5005002;stroke-linecap:butt;stroke-linejoin:miter;stroke-miterlimit:2.61310005;stroke-dasharray:none;stroke-opacity:1"
         d="m 131.816,173.105 c 6.637,0 12.02,-5.382 12.02,-12.019 0,-6.637 -5.383,-12.02 -12.02,-12.02 -6.632,0 -12.015,5.383 -12.015,12.02 0,6.637 5.383,12.019 12.015,12.019 z" /><path
         id="path42"
         style="fill:#231f20;fill-opacity:1;fill-rule:evenodd;stroke:none"
         d="m 698.207,173.855 c 6.637,0 12.02,-5.382 12.02,-12.019 0,-6.637 -5.383,-12.02 -12.02,-12.02 -6.633,0 -12.016,5.383 -12.016,12.02 0,6.637 5.383,12.019 12.016,12.019" /><path
         id="path44"
         style="fill:none;stroke:#231f20;stroke-width:7.5005002;stroke-linecap:butt;stroke-linejoin:miter;stroke-miterlimit:2.61310005;stroke-dasharray:none;stroke-opacity:1"
         d="m 698.207,173.855 c 6.637,0 12.02,-5.382 12.02,-12.019 0,-6.637 -5.383,-12.02 -12.02,-12.02 -6.633,0 -12.016,5.383 -12.016,12.02 0,6.637 5.383,12.019 12.016,12.019 z" /></g></g></svg>