<?xml version="1.0" encoding="UTF-8" standalone="no"?>
<svg
   xmlns:dc="http://purl.org/dc/elements/1.1/"
   xmlns:cc="http://creativecommons.org/ns#"
   xmlns:rdf="http://www.w3.org/1999/02/22-rdf-syntax-ns#"
   xmlns:svg="http://www.w3.org/2000/svg"
   xmlns="http://www.w3.org/2000/svg"
   viewBox="0 0 116 129.33333"
   height="129.33333"
   width="116"
   xml:space="preserve"
   id="svg2"
   version="1.1"><metadata
     id="metadata8"><rdf:RDF><cc:Work
         rdf:about=""><dc:format>image/svg+xml</dc:format><dc:type
           rdf:resource="http://purl.org/dc/dcmitype/StillImage" /></cc:Work></rdf:RDF></metadata><defs
     id="defs6" /><g
     transform="matrix(1.3333333,0,0,-1.3333333,0,129.33333)"
     id="g10"><g
       transform="scale(0.1)"
       id="g12"><path
         id="path14"
         style="fill:none;stroke:#231f20;stroke-width:10.00059986;stroke-linecap:butt;stroke-linejoin:miter;stroke-miterlimit:2.61310005;stroke-dasharray:none;stroke-opacity:1"
         d="m 433.852,874.41 c 232.558,0 421.16,-188.601 421.16,-421.164 0,-232.558 -188.602,-421.1601 -421.16,-421.1601 -232.563,0 -421.1645,188.6021 -421.1645,421.1601 0,232.563 188.6015,421.164 421.1645,421.164 z" /><path
         id="path16"
         style="fill:none;stroke:#231f20;stroke-width:10.00059986;stroke-linecap:butt;stroke-linejoin:miter;stroke-miterlimit:2.61310005;stroke-dasharray:none;stroke-opacity:1"
         d="m 433.852,458.371 c 2.828,0 5.125,-2.297 5.125,-5.125 0,-2.828 -2.297,-5.125 -5.125,-5.125 -2.829,0 -5.125,2.297 -5.125,5.125 0,2.828 2.296,5.125 5.125,5.125 z" /><path
         id="path18"
         style="fill:none;stroke:#231f20;stroke-width:10.00059986;stroke-linecap:butt;stroke-linejoin:miter;stroke-miterlimit:2.61310005;stroke-dasharray:none;stroke-opacity:1"
         d="M 640.715,96.2773 219.125,92.6289" /><path
         id="path20"
         style="fill:none;stroke:#231f20;stroke-width:10.00059986;stroke-linecap:butt;stroke-linejoin:miter;stroke-miterlimit:2.61310005;stroke-dasharray:none;stroke-opacity:1"
         d="M 436.355,452.371 646.547,92.918" /><g
         transform="scale(10)"
         id="g22"><text
           id="text32"
           style="font-style:italic;font-variant:normal;font-weight:normal;font-size:9.99989986px;font-family:TimesNewRomanPSMT;-inkscape-font-specification:TimesNewRomanPSMT-NormalItalic;writing-mode:lr-tb;fill:#231f20;fill-opacity:1;fill-rule:nonzero;stroke:none"
           transform="matrix(1,0,0,-1,44.1891,45.791)"><tspan
             id="tspan24"
             y="0"
             x="0">O</tspan><tspan
             id="tspan26"
             y="-43.599602"
             x="7.5539098">A</tspan><tspan
             id="tspan28"
             y="43.431999"
             x="21.147711">B</tspan><tspan
             id="tspan30"
             y="45.282391"
             x="-32.05069">C</tspan></text>
</g><path
         id="path34"
         style="fill:none;stroke:#231f20;stroke-width:5.00029993;stroke-linecap:butt;stroke-linejoin:miter;stroke-miterlimit:2.61310005;stroke-dasharray:none;stroke-opacity:1"
         d="m 557.145,101.793 c -13.211,33.344 -1.129,58.254 36.238,74.742" /><g
         transform="scale(10)"
         id="g36"><text
           id="text40"
           style="font-variant:normal;font-weight:normal;font-size:9.99989986px;font-family:TimesNewRomanPSMT;-inkscape-font-specification:TimesNewRomanPSMT;writing-mode:lr-tb;fill:#231f20;fill-opacity:1;fill-rule:nonzero;stroke:none"
           transform="matrix(1,0,0,-1,43.3227,12.7254)"><tspan
             id="tspan38"
             y="0"
             x="0 4.9999499">55</tspan></text>
</g><path
         id="path42"
         style="fill:none;stroke:#231f20;stroke-width:5.00029993;stroke-linecap:butt;stroke-linejoin:miter;stroke-miterlimit:2.61310005;stroke-dasharray:none;stroke-opacity:1"
         d="m 545.82,209.984 c 4.535,0 8.215,-3.679 8.215,-8.218 0,-4.536 -3.68,-8.215 -8.215,-8.215 -4.539,0 -8.218,3.679 -8.218,8.215 0,4.539 3.679,8.218 8.218,8.218 z" /><g
         transform="scale(10)"
         id="g44"><text
           id="text48"
           style="font-style:italic;font-variant:normal;font-weight:normal;font-size:9.99989986px;font-family:TimesNewRomanPSMT;-inkscape-font-specification:TimesNewRomanPSMT-NormalItalic;writing-mode:lr-tb;fill:#231f20;fill-opacity:1;fill-rule:nonzero;stroke:none"
           transform="matrix(1,0,0,-1,12.1383,0.508594)"><tspan
             id="tspan46"
             y="0"
             x="0">C</tspan></text>
</g><path
         id="path50"
         style="fill:none;stroke:#231f20;stroke-width:10.00059986;stroke-linecap:butt;stroke-linejoin:miter;stroke-miterlimit:2.61310005;stroke-dasharray:none;stroke-opacity:1"
         d="M 219.125,92.6289 517.609,866.074" /><path
         id="path52"
         style="fill:none;stroke:#231f20;stroke-width:10.00059986;stroke-linecap:butt;stroke-linejoin:miter;stroke-miterlimit:2.61310005;stroke-dasharray:none;stroke-opacity:1"
         d="M 517.609,866.074 646.547,92.918" /></g></g></svg>