<?xml version="1.0" encoding="UTF-8" standalone="no"?>
<svg
   xmlns:dc="http://purl.org/dc/elements/1.1/"
   xmlns:cc="http://creativecommons.org/ns#"
   xmlns:rdf="http://www.w3.org/1999/02/22-rdf-syntax-ns#"
   xmlns:svg="http://www.w3.org/2000/svg"
   xmlns="http://www.w3.org/2000/svg"
   viewBox="0 0 154.66667 108"
   height="108"
   width="154.66667"
   xml:space="preserve"
   id="svg2"
   version="1.1"><metadata
     id="metadata8"><rdf:RDF><cc:Work
         rdf:about=""><dc:format>image/svg+xml</dc:format><dc:type
           rdf:resource="http://purl.org/dc/dcmitype/StillImage" /></cc:Work></rdf:RDF></metadata><defs
     id="defs6" /><g
     transform="matrix(1.3333333,0,0,-1.3333333,0,108)"
     id="g10"><g
       transform="scale(0.1)"
       id="g12"><path
         id="path14"
         style="fill:#231f20;fill-opacity:1;fill-rule:nonzero;stroke:none"
         d="m 537.23,695.25 -5.035,-55.066 c -0.265,-2.586 -0.383,-4.27 -0.383,-5.086 0,-1.297 0.235,-2.297 0.735,-2.981 0.617,-0.933 1.449,-1.633 2.5,-2.101 1.066,-0.45 2.851,-0.684 5.351,-0.684 l -0.535,-1.801 h -26.066 l 0.535,1.801 h 1.113 c 2.121,0 3.856,0.469 5.188,1.367 0.929,0.637 1.664,1.649 2.199,3.086 0.348,1.016 0.699,3.379 1.016,7.129 l 0.785,8.402 h -18.949 l -6.739,-9.132 c -1.527,-2.051 -2.48,-3.536 -2.883,-4.418 -0.382,-0.899 -0.582,-1.735 -0.582,-2.516 0,-1.051 0.418,-1.934 1.266,-2.684 0.852,-0.75 2.25,-1.164 4.203,-1.234 l -0.535,-1.801 h -19.582 l 0.531,1.801 c 2.418,0.102 4.535,0.918 6.383,2.418 1.836,1.516 4.566,4.75 8.219,9.699 l 39.547,53.801 z m -9.664,-16.254 -19.203,-26.113 h 16.653 l 2.55,26.113" /><path
         id="path16"
         style="fill:#231f20;fill-opacity:1;fill-rule:nonzero;stroke:none"
         d="m 842.402,496.715 0.684,1.816 h 23.637 c 3.965,0 7.496,-0.617 10.613,-1.867 3.102,-1.234 5.437,-2.949 6.984,-5.168 1.551,-2.215 2.317,-4.566 2.317,-7.035 0,-3.813 -1.383,-7.246 -4.133,-10.332 -2.75,-3.067 -7.234,-5.348 -13.449,-6.801 4.015,-1.496 6.949,-3.48 8.851,-5.965 1.879,-2.465 2.832,-5.183 2.832,-8.148 0,-3.285 -0.847,-6.434 -2.55,-9.434 -1.684,-2.984 -3.868,-5.316 -6.516,-6.965 -2.652,-1.668 -5.852,-2.886 -9.602,-3.668 -2.668,-0.55 -6.832,-0.836 -12.5,-0.836 h -24.265 l 0.633,1.801 c 2.55,0.071 4.265,0.317 5.183,0.735 1.301,0.566 2.231,1.297 2.785,2.199 0.782,1.234 1.813,4.066 3.114,8.5 l 11.867,40.082 c 1.019,3.387 1.515,5.766 1.515,7.137 0,1.199 -0.445,2.148 -1.332,2.847 -0.898,0.699 -2.597,1.051 -5.117,1.051 -0.547,0 -1.062,0.016 -1.551,0.051 z m 9.903,-27.485 c 2.117,-0.066 3.648,-0.101 4.597,-0.101 6.77,0 11.801,1.469 15.118,4.418 3.3,2.949 4.953,6.633 4.953,11.066 0,3.348 -1.02,5.965 -3.035,7.832 -2.016,1.867 -5.235,2.801 -9.668,2.801 -1.165,0 -2.665,-0.184 -4.481,-0.582 z m -9.617,-32.617 c 3.519,-0.468 6.265,-0.683 8.25,-0.683 5.085,0 9.582,1.535 13.5,4.586 3.933,3.066 5.882,7.214 5.882,12.449 0,4 -1.199,7.133 -3.632,9.383 -2.418,2.25 -6.333,3.367 -11.731,3.367 -1.055,0 -2.32,-0.051 -3.82,-0.153 l -8.449,-28.949" /><path
         id="path18"
         style="fill:#231f20;fill-opacity:1;fill-rule:nonzero;stroke:none"
         d="m 356.527,78.2305 -4.929,-21.4297 h -1.77 l -0.183,5.3828 c -0.168,1.9492 -0.551,3.6797 -1.133,5.2148 -0.582,1.5313 -1.469,2.8516 -2.633,3.9844 -1.168,1.1133 -2.652,2 -4.449,2.6328 -1.785,0.6328 -3.77,0.9492 -5.953,0.9492 -5.832,0 -10.915,-1.6015 -15.282,-4.7851 -5.57,-4.0625 -9.933,-9.8164 -13.082,-17.2305 -2.601,-6.1172 -3.918,-12.3164 -3.918,-18.6015 0,-6.418 1.883,-11.5313 5.614,-15.3633 3.75,-3.8203 8.617,-5.7344 14.601,-5.7344 4.535,0 8.567,1.0156 12.086,3.0312 3.531,2.0196 6.816,5.1172 9.848,9.3165 h 2.285 C 344.062,19.8984 340.078,15.7148 335.727,13.0312 331.363,10.3477 326.125,9 320.043,9 c -5.398,0 -10.18,1.1328 -14.348,3.3984 -4.168,2.2657 -7.351,5.4336 -9.515,9.5508 -2.188,4.1016 -3.285,8.5 -3.285,13.2344 0,7.2148 1.949,14.25 5.816,21.082 3.867,6.8321 9.184,12.2149 15.934,16.1172 6.765,3.8984 13.566,5.8477 20.449,5.8477 3.215,0 6.832,-0.7461 10.832,-2.2813 1.754,-0.6523 3.035,-0.9844 3.801,-0.9844 0.785,0 1.464,0.1641 2.066,0.4844 0.586,0.332 1.551,1.2656 2.918,2.7813 h 1.816" /><path
         id="path20"
         style="fill:none;stroke:#231f20;stroke-width:7.5005002;stroke-linecap:butt;stroke-linejoin:miter;stroke-miterlimit:2.61310005;stroke-dasharray:none;stroke-opacity:1"
         d="m 535.047,607.488 c 158.906,0 287.769,-128.863 287.769,-287.765 0,-158.907 -128.863,-287.7699 -287.769,-287.7699 -158.902,0 -287.77,128.8629 -287.77,287.7699 0,158.902 128.868,287.765 287.77,287.765 z" /><path
         id="path22"
         style="fill:none;stroke:#231f20;stroke-width:7.5005002;stroke-linecap:butt;stroke-linejoin:miter;stroke-miterlimit:2.61310005;stroke-dasharray:none;stroke-opacity:1"
         d="m 146.836,801.16 992.654,-567" /><path
         id="path24"
         style="fill:none;stroke:#231f20;stroke-width:7.5005002;stroke-linecap:butt;stroke-linejoin:miter;stroke-miterlimit:2.61310005;stroke-dasharray:none;stroke-opacity:1"
         d="M 9.06641,17.3516 1157.15,319.422" /><path
         id="path26"
         style="fill:#231f20;fill-opacity:1;fill-rule:nonzero;stroke:none"
         d="m 823.957,215.574 0.582,1.821 h 21.149 c 8.953,0 15.585,-1.036 19.886,-3.086 4.317,-2.051 7.766,-5.286 10.332,-9.684 2.567,-4.414 3.867,-9.148 3.867,-14.199 0,-4.317 -0.75,-8.535 -2.234,-12.617 -1.484,-4.082 -3.148,-7.348 -5.031,-9.813 -1.867,-2.453 -4.735,-5.168 -8.617,-8.137 -3.868,-2.949 -8.067,-5.152 -12.582,-6.566 -4.536,-1.418 -10.188,-2.117 -16.954,-2.117 h -28.031 l 0.633,1.801 c 2.582,0.066 4.301,0.3 5.184,0.683 1.3,0.567 2.265,1.317 2.882,2.25 0.934,1.367 2,4.117 3.168,8.25 l 11.715,40.051 c 0.918,3.148 1.367,5.629 1.367,7.418 0,1.262 -0.418,2.246 -1.265,2.93 -0.852,0.683 -2.5,1.015 -4.985,1.015 z m 17.332,-1.847 -14.348,-49.567 c -1.082,-3.699 -1.617,-6 -1.617,-6.883 0,-0.515 0.164,-1.019 0.516,-1.515 0.332,-0.489 0.801,-0.801 1.383,-0.969 0.851,-0.301 2.218,-0.449 4.101,-0.449 5.117,0 9.867,0.531 14.231,1.601 4.386,1.047 7.968,2.617 10.769,4.7 3.985,3.031 7.149,7.199 9.531,12.496 2.368,5.32 3.551,11.351 3.551,18.121 0,7.648 -1.816,13.347 -5.465,17.062 -3.632,3.735 -8.968,5.602 -15.968,5.602 -1.715,0 -3.95,-0.067 -6.684,-0.199" /><path
         id="path28"
         style="fill:#231f20;fill-opacity:1;fill-rule:nonzero;stroke:none"
         d="m 495.898,375.789 c 4.399,0 8.282,-0.949 11.664,-2.848 3.387,-1.902 6.051,-4.718 7.969,-8.449 1.918,-3.719 2.883,-7.586 2.883,-11.601 0,-7.082 -2.066,-14.536 -6.184,-22.332 -4.117,-7.801 -9.5,-13.75 -16.132,-17.852 -6.649,-4.102 -13.52,-6.148 -20.618,-6.148 -5.097,0 -9.382,1.132 -12.816,3.398 -3.434,2.266 -5.969,5.25 -7.617,8.949 -1.633,3.719 -2.465,7.317 -2.465,10.801 0,6.184 1.5,12.301 4.465,18.332 2.984,6.035 6.551,11.082 10.683,15.133 4.133,4.051 8.536,7.168 13.235,9.351 4.683,2.184 9.664,3.266 14.933,3.266 z m -1.668,-3.113 c -3.25,0 -6.433,-0.805 -9.535,-2.418 -3.113,-1.617 -6.199,-4.25 -9.246,-7.918 -3.07,-3.649 -5.816,-8.449 -8.265,-14.367 -2.989,-7.297 -4.485,-14.184 -4.485,-20.664 0,-4.621 1.18,-8.719 3.563,-12.286 2.367,-3.55 6.019,-5.332 10.933,-5.332 2.969,0 5.867,0.735 8.719,2.2 2.852,1.449 5.816,3.968 8.918,7.515 3.863,4.449 7.117,10.153 9.766,17.067 2.632,6.918 3.949,13.367 3.949,19.351 0,4.434 -1.18,8.348 -3.567,11.75 -2.382,3.399 -5.949,5.102 -10.75,5.102" /><path
         id="path30"
         style="fill:#231f20;fill-opacity:1;fill-rule:evenodd;stroke:none"
         d="m 530.984,328.117 c 5.817,0 10.536,-4.719 10.536,-10.535 0,-5.816 -4.719,-10.535 -10.536,-10.535 -5.816,0 -10.535,4.719 -10.535,10.535 0,5.816 4.719,10.535 10.535,10.535" /><path
         id="path32"
         style="fill:none;stroke:#231f20;stroke-width:7.5005002;stroke-linecap:butt;stroke-linejoin:miter;stroke-miterlimit:2.61310005;stroke-dasharray:none;stroke-opacity:1"
         d="m 530.984,328.117 c 5.817,0 10.536,-4.719 10.536,-10.535 0,-5.816 -4.719,-10.535 -10.536,-10.535 -5.816,0 -10.535,4.719 -10.535,10.535 0,5.816 4.719,10.535 10.535,10.535 z" /><path
         id="path34"
         style="fill:#231f20;fill-opacity:1;fill-rule:nonzero;stroke:none"
         d="m 1065.97,398.176 -7.56,-26.184 h 6.2 c 4.43,0 7.63,0.684 9.63,2.031 1.98,1.352 3.68,3.852 5.12,7.5 h 1.82 l -6.8,-24.035 h -1.95 c 0.58,2.02 0.87,3.754 0.87,5.188 0,1.398 -0.28,2.515 -0.84,3.367 -0.58,0.852 -1.35,1.465 -2.35,1.883 -1,0.398 -3.09,0.597 -6.29,0.597 h -6.28 l -6.4,-21.914 c -0.62,-2.117 -0.93,-3.734 -0.93,-4.836 0,-0.847 0.41,-1.601 1.21,-2.25 0.57,-0.449 1.95,-0.683 4.15,-0.683 h 5.87 c 6.35,0 11.43,1.137 15.25,3.367 3.83,2.254 7.27,6.168 10.28,11.734 h 1.82 l -6.25,-18.418 h -51.18 l 0.63,1.801 c 2.55,0.071 4.25,0.301 5.13,0.684 1.3,0.601 2.25,1.347 2.84,2.25 0.88,1.332 1.91,4.133 3.11,8.398 l 11.64,39.953 c 0.9,3.215 1.36,5.664 1.36,7.368 0,1.23 -0.43,2.199 -1.3,2.898 -0.86,0.699 -2.54,1.051 -5.05,1.051 h -1.03 l 0.58,1.816 h 47.57 l -4.1,-15.969 h -1.82 c 0.24,1.5 0.35,2.75 0.35,3.75 0,1.735 -0.41,3.184 -1.26,4.352 -1.12,1.5 -2.72,2.633 -4.83,3.414 -1.57,0.586 -5.17,0.887 -10.8,0.887 h -8.41" /></g></g></svg>