<?xml version="1.0" encoding="UTF-8" standalone="no"?>
<svg
   xmlns:dc="http://purl.org/dc/elements/1.1/"
   xmlns:cc="http://creativecommons.org/ns#"
   xmlns:rdf="http://www.w3.org/1999/02/22-rdf-syntax-ns#"
   xmlns:svg="http://www.w3.org/2000/svg"
   xmlns="http://www.w3.org/2000/svg"
   viewBox="0 0 81.333336 82.666664"
   height="82.666664"
   width="81.333336"
   xml:space="preserve"
   id="svg2"
   version="1.1"><metadata
     id="metadata8"><rdf:RDF><cc:Work
         rdf:about=""><dc:format>image/svg+xml</dc:format><dc:type
           rdf:resource="http://purl.org/dc/dcmitype/StillImage" /></cc:Work></rdf:RDF></metadata><defs
     id="defs6" /><g
     transform="matrix(1.3333333,0,0,-1.3333333,0,82.666667)"
     id="g10"><g
       transform="scale(0.1)"
       id="g12"><path
         id="path14"
         style="fill:none;stroke:#231f20;stroke-width:7.5005002;stroke-linecap:butt;stroke-linejoin:miter;stroke-miterlimit:2.61310005;stroke-dasharray:none;stroke-opacity:1"
         d="M 49.0742,173 H 571.547" /><path
         id="path16"
         style="fill:none;stroke:#231f20;stroke-width:7.5005002;stroke-linecap:butt;stroke-linejoin:miter;stroke-miterlimit:2.61310005;stroke-dasharray:none;stroke-opacity:1"
         d="m 308.141,607.465 c 164.257,0 297.468,-133.211 297.468,-297.469 0,-164.262 -133.211,-297.4687 -297.468,-297.4687 -164.258,0 -297.4691,133.2067 -297.4691,297.4687 0,164.258 133.2111,297.469 297.4691,297.469 z" /><path
         id="path18"
         style="fill:none;stroke:#231f20;stroke-width:7.5005002;stroke-linecap:butt;stroke-linejoin:miter;stroke-miterlimit:2.61310005;stroke-dasharray:none;stroke-opacity:1"
         d="M 45.7109,172.023 310.309,313.5" /><path
         id="path20"
         style="fill:#231f20;fill-opacity:1;fill-rule:nonzero;stroke:none"
         d="m 300.02,391.004 c 4.402,0 8.281,-0.953 11.668,-2.852 3.382,-1.902 6.046,-4.714 7.964,-8.449 1.918,-3.715 2.883,-7.586 2.883,-11.601 0,-7.082 -2.066,-14.532 -6.183,-22.332 -4.118,-7.801 -9.5,-13.75 -16.133,-17.848 -6.649,-4.102 -13.516,-6.152 -20.614,-6.152 -5.101,0 -9.386,1.132 -12.82,3.398 -3.433,2.27 -5.965,5.25 -7.617,8.953 -1.633,3.715 -2.465,7.317 -2.465,10.801 0,6.18 1.5,12.297 4.469,18.328 2.98,6.035 6.551,11.086 10.683,15.137 4.133,4.051 8.532,7.164 13.231,9.351 4.684,2.18 9.668,3.266 14.934,3.266 z m -1.668,-3.117 c -3.247,0 -6.43,-0.801 -9.532,-2.418 -3.117,-1.617 -6.199,-4.25 -9.25,-7.918 -3.066,-3.649 -5.816,-8.449 -8.265,-14.363 -2.985,-7.301 -4.485,-14.188 -4.485,-20.668 0,-4.618 1.184,-8.715 3.567,-12.282 2.367,-3.554 6.015,-5.336 10.933,-5.336 2.965,0 5.868,0.735 8.715,2.2 2.852,1.453 5.817,3.968 8.918,7.519 3.867,4.449 7.117,10.149 9.766,17.067 2.633,6.914 3.949,13.363 3.949,19.347 0,4.434 -1.18,8.352 -3.563,11.75 -2.386,3.403 -5.953,5.102 -10.753,5.102" /><path
         id="path22"
         style="fill:#231f20;fill-opacity:1;fill-rule:evenodd;stroke:none"
         d="m 310.133,318.016 c 2.703,0 4.89,-2.192 4.89,-4.887 0,-2.703 -2.187,-4.895 -4.89,-4.895 -2.699,0 -4.887,2.192 -4.887,4.895 0,2.695 2.188,4.887 4.887,4.887" /><path
         id="path24"
         style="fill:none;stroke:#231f20;stroke-width:7.5005002;stroke-linecap:butt;stroke-linejoin:miter;stroke-miterlimit:2.61310005;stroke-dasharray:none;stroke-opacity:1"
         d="m 310.133,318.016 c 2.703,0 4.89,-2.192 4.89,-4.887 0,-2.703 -2.187,-4.895 -4.89,-4.895 -2.699,0 -4.887,2.192 -4.887,4.895 0,2.695 2.188,4.887 4.887,4.887 z" /></g></g></svg>