<?xml version="1.0" encoding="UTF-8" standalone="no"?>
<svg
   xmlns:dc="http://purl.org/dc/elements/1.1/"
   xmlns:cc="http://creativecommons.org/ns#"
   xmlns:rdf="http://www.w3.org/1999/02/22-rdf-syntax-ns#"
   xmlns:svg="http://www.w3.org/2000/svg"
   xmlns="http://www.w3.org/2000/svg"
   viewBox="0 0 130.66667 117.33333"
   height="117.33333"
   width="130.66667"
   xml:space="preserve"
   id="svg2"
   version="1.1"><metadata
     id="metadata8"><rdf:RDF><cc:Work
         rdf:about=""><dc:format>image/svg+xml</dc:format><dc:type
           rdf:resource="http://purl.org/dc/dcmitype/StillImage" /></cc:Work></rdf:RDF></metadata><defs
     id="defs6" /><g
     transform="matrix(1.3333333,0,0,-1.3333333,0,117.33333)"
     id="g10"><g
       transform="scale(0.1)"
       id="g12"><path
         id="path14"
         style="fill:none;stroke:#231f20;stroke-width:10.00059986;stroke-linecap:butt;stroke-linejoin:miter;stroke-miterlimit:2.61310005;stroke-dasharray:none;stroke-opacity:1"
         d="m 493.852,864.41 c 232.558,0 421.16,-188.601 421.16,-421.164 0,-232.558 -188.602,-421.1601 -421.16,-421.1601 -232.563,0 -421.1645,188.6021 -421.1645,421.1601 0,232.563 188.6015,421.164 421.1645,421.164 z" /><path
         id="path16"
         style="fill:none;stroke:#231f20;stroke-width:10.00059986;stroke-linecap:butt;stroke-linejoin:miter;stroke-miterlimit:2.61310005;stroke-dasharray:none;stroke-opacity:1"
         d="m 493.852,448.371 c 2.828,0 5.125,-2.297 5.125,-5.125 0,-2.828 -2.297,-5.125 -5.125,-5.125 -2.829,0 -5.125,2.297 -5.125,5.125 0,2.828 2.296,5.125 5.125,5.125 z" /><path
         id="path18"
         style="fill:none;stroke:#231f20;stroke-width:10.00059986;stroke-linecap:butt;stroke-linejoin:miter;stroke-miterlimit:2.61310005;stroke-dasharray:none;stroke-opacity:1"
         d="M 281.039,810.598 706.547,82.918" /><g
         transform="scale(10)"
         id="g20"><text
           id="text28"
           style="font-style:italic;font-variant:normal;font-weight:normal;font-size:9.99989986px;font-family:TimesNewRomanPSMT;-inkscape-font-specification:TimesNewRomanPSMT-NormalItalic;writing-mode:lr-tb;fill:#231f20;fill-opacity:1;fill-rule:nonzero;stroke:none"
           transform="matrix(1,0,0,-1,42.157,34.607)"><tspan
             id="tspan22"
             y="0"
             x="0">O</tspan><tspan
             id="tspan24"
             y="-23.1605"
             x="49.866402">A</tspan><tspan
             id="tspan26"
             y="10.3282"
             x="-41.417198">B</tspan></text>
</g><path
         id="path30"
         style="fill:none;stroke:#231f20;stroke-width:5.00029993;stroke-linecap:butt;stroke-linejoin:miter;stroke-miterlimit:2.61310005;stroke-dasharray:none;stroke-opacity:1"
         d="m 325.301,719.039 c -16.11,-32.035 -42.746,-39.566 -79.922,-22.613" /><g
         transform="scale(10)"
         id="g32"><text
           id="text38"
           style="font-style:italic;font-variant:normal;font-weight:normal;font-size:9.99989986px;font-family:TimesNewRomanPSMT;-inkscape-font-specification:TimesNewRomanPSMT-NormalItalic;writing-mode:lr-tb;fill:#231f20;fill-opacity:1;fill-rule:nonzero;stroke:none"
           transform="matrix(1,0,0,-1,70.8426,0.613281)"><tspan
             id="tspan34"
             y="0"
             x="0">K</tspan><tspan
             id="tspan36"
             y="-79.963303"
             x="-51.2672">M</tspan></text>
</g><path
         id="path40"
         style="fill:none;stroke:#231f20;stroke-width:10.00059986;stroke-linecap:butt;stroke-linejoin:miter;stroke-miterlimit:2.61310005;stroke-dasharray:none;stroke-opacity:1"
         d="M 279.055,805.766 98.5352,300.418" /><path
         id="path42"
         style="fill:none;stroke:#231f20;stroke-width:10.00059986;stroke-linecap:butt;stroke-linejoin:miter;stroke-miterlimit:2.61310005;stroke-dasharray:none;stroke-opacity:1"
         d="M 98.5352,300.418 889.051,593.098" /></g></g></svg>