<?xml version="1.0" encoding="UTF-8" standalone="no"?>
<svg
   xmlns:dc="http://purl.org/dc/elements/1.1/"
   xmlns:cc="http://creativecommons.org/ns#"
   xmlns:rdf="http://www.w3.org/1999/02/22-rdf-syntax-ns#"
   xmlns:svg="http://www.w3.org/2000/svg"
   xmlns="http://www.w3.org/2000/svg"
   viewBox="0 0 102.66667 89.333336"
   height="89.333336"
   width="102.66667"
   xml:space="preserve"
   id="svg2"
   version="1.1"><metadata
     id="metadata8"><rdf:RDF><cc:Work
         rdf:about=""><dc:format>image/svg+xml</dc:format><dc:type
           rdf:resource="http://purl.org/dc/dcmitype/StillImage" /></cc:Work></rdf:RDF></metadata><defs
     id="defs6" /><g
     transform="matrix(1.3333333,0,0,-1.3333333,0,89.333333)"
     id="g10"><g
       transform="scale(0.1)"
       id="g12"><path
         id="path14"
         style="fill:#231f20;fill-opacity:1;fill-rule:nonzero;stroke:none"
         d="m 453.188,414.895 c 4.402,0 8.285,-0.95 11.667,-2.848 3.383,-1.902 6.051,-4.719 7.969,-8.453 1.914,-3.715 2.883,-7.582 2.883,-11.602 0,-7.078 -2.066,-14.531 -6.187,-22.328 -4.114,-7.801 -9.497,-13.754 -16.129,-17.852 -6.653,-4.101 -13.52,-6.152 -20.618,-6.152 -5.097,0 -9.386,1.137 -12.816,3.399 -3.434,2.269 -5.969,5.25 -7.617,8.953 -1.633,3.715 -2.469,7.316 -2.469,10.8 0,6.184 1.5,12.301 4.469,18.333 2.98,6.035 6.551,11.082 10.683,15.132 4.133,4.051 8.532,7.164 13.231,9.352 4.684,2.183 9.668,3.266 14.934,3.266 z m -1.665,-3.118 c -3.25,0 -6.433,-0.8 -9.535,-2.418 -3.113,-1.613 -6.199,-4.246 -9.25,-7.914 -3.066,-3.648 -5.816,-8.453 -8.265,-14.367 -2.985,-7.301 -4.485,-14.183 -4.485,-20.668 0,-4.617 1.184,-8.715 3.567,-12.281 2.367,-3.551 6.019,-5.336 10.933,-5.336 2.969,0 5.867,0.734 8.715,2.199 2.852,1.453 5.82,3.969 8.918,7.52 3.867,4.449 7.121,10.148 9.766,17.066 2.633,6.918 3.953,13.363 3.953,19.348 0,4.433 -1.184,8.351 -3.567,11.75 -2.382,3.402 -5.949,5.101 -10.75,5.101" /><path
         id="path16"
         style="fill:none;stroke:#231f20;stroke-width:7.5005002;stroke-linecap:butt;stroke-linejoin:miter;stroke-miterlimit:2.61310005;stroke-dasharray:none;stroke-opacity:1"
         d="m 614.238,573.082 c 133,-122.656 141.383,-330.008 18.735,-463.02 C 510.285,-22.9336 302.945,-31.3125 169.941,91.3477 36.9375,214.008 28.5547,421.352 151.191,554.367 c 122.68,133.004 330.032,141.375 463.047,18.715 z" /><path
         id="path18"
         style="fill:#231f20;fill-opacity:1;fill-rule:nonzero;stroke:none"
         d="m 719.887,574.066 0.683,1.817 h 23.633 c 3.969,0 7.5,-0.617 10.617,-1.867 3.102,-1.235 5.434,-2.95 6.985,-5.164 1.547,-2.219 2.316,-4.567 2.316,-7.04 0,-3.812 -1.383,-7.246 -4.133,-10.332 -2.754,-3.066 -7.234,-5.347 -13.449,-6.796 4.016,-1.5 6.949,-3.485 8.848,-5.969 1.883,-2.465 2.832,-5.18 2.832,-8.149 0,-3.281 -0.848,-6.433 -2.547,-9.433 -1.684,-2.985 -3.867,-5.317 -6.52,-6.965 -2.648,-1.668 -5.847,-2.887 -9.597,-3.668 -2.668,-0.551 -6.836,-0.832 -12.504,-0.832 h -24.262 l 0.633,1.797 c 2.551,0.07 4.266,0.32 5.183,0.734 1.297,0.567 2.231,1.301 2.782,2.199 0.785,1.235 1.816,4.067 3.117,8.5 l 11.867,40.082 c 1.016,3.387 1.516,5.766 1.516,7.137 0,1.199 -0.449,2.149 -1.332,2.848 -0.899,0.699 -2.602,1.051 -5.117,1.051 -0.551,0 -1.067,0.015 -1.551,0.05 z m 9.902,-27.484 c 2.113,-0.066 3.649,-0.102 4.598,-0.102 6.769,0 11.801,1.469 15.117,4.418 3.297,2.95 4.949,6.633 4.949,11.067 0,3.351 -1.015,5.965 -3.035,7.836 -2.016,1.863 -5.23,2.801 -9.664,2.801 -1.168,0 -2.664,-0.188 -4.484,-0.586 z m -9.621,-32.617 c 3.52,-0.465 6.27,-0.684 8.254,-0.684 5.082,0 9.582,1.535 13.496,4.586 3.937,3.067 5.887,7.215 5.887,12.449 0,4 -1.203,7.133 -3.633,9.383 -2.418,2.25 -6.332,3.367 -11.734,3.367 -1.051,0 -2.317,-0.05 -3.817,-0.148 l -8.453,-28.953" /><path
         id="path20"
         style="fill:#231f20;fill-opacity:1;fill-rule:nonzero;stroke:none"
         d="M 66.0352,569.457 61,514.395 c -0.2656,-2.586 -0.3828,-4.27 -0.3828,-5.086 0,-1.297 0.2344,-2.297 0.7344,-2.981 0.6172,-0.933 1.4492,-1.633 2.5,-2.101 1.0664,-0.45 2.8515,-0.684 5.3515,-0.684 L 68.668,501.742 H 42.6016 l 0.5312,1.801 H 44.25 c 2.1172,0 3.8555,0.469 5.1875,1.367 0.9297,0.633 1.6641,1.649 2.1992,3.082 0.3477,1.02 0.6992,3.383 1.0156,7.133 l 0.7852,8.402 H 34.4844 L 27.75,514.395 c -1.5312,-2.055 -2.4805,-3.536 -2.8828,-4.418 -0.3828,-0.899 -0.582,-1.735 -0.582,-2.516 0,-1.051 0.4179,-1.934 1.2656,-2.684 0.8515,-0.75 2.25,-1.168 4.2031,-1.234 l -0.5351,-1.801 H 9.63672 l 0.53128,1.801 c 2.4179,0.098 4.5351,0.914 6.3828,2.418 1.8359,1.516 4.5664,4.75 8.2187,9.699 l 39.5469,53.797 z M 56.3711,553.207 37.168,527.094 h 16.6484 l 2.5547,26.113" /><path
         id="path22"
         style="fill:#231f20;fill-opacity:1;fill-rule:evenodd;stroke:none"
         d="m 393.66,337.531 c 5.402,0 9.781,-4.383 9.781,-9.781 0,-5.402 -4.379,-9.785 -9.781,-9.785 -5.402,0 -9.777,4.383 -9.777,9.785 0,5.398 4.375,9.781 9.777,9.781" /><path
         id="path24"
         style="fill:none;stroke:#231f20;stroke-width:7.5005002;stroke-linecap:butt;stroke-linejoin:miter;stroke-miterlimit:2.61310005;stroke-dasharray:none;stroke-opacity:1"
         d="m 393.66,337.531 c 5.402,0 9.781,-4.383 9.781,-9.781 0,-5.402 -4.379,-9.785 -9.781,-9.785 -5.402,0 -9.777,4.383 -9.777,9.785 0,5.398 4.375,9.781 9.777,9.781 z" /><path
         id="path26"
         style="fill:none;stroke:#231f20;stroke-width:7.5005002;stroke-linecap:butt;stroke-linejoin:miter;stroke-miterlimit:2.61310005;stroke-dasharray:none;stroke-opacity:1"
         d="m 120.043,517.324 545.242,0.125" /></g></g></svg>