<?xml version="1.0" encoding="UTF-8" standalone="no"?>
<svg
   xmlns:dc="http://purl.org/dc/elements/1.1/"
   xmlns:cc="http://creativecommons.org/ns#"
   xmlns:rdf="http://www.w3.org/1999/02/22-rdf-syntax-ns#"
   xmlns:svg="http://www.w3.org/2000/svg"
   xmlns="http://www.w3.org/2000/svg"
   viewBox="0 0 108 89.333336"
   height="89.333336"
   width="108"
   xml:space="preserve"
   id="svg2"
   version="1.1"><metadata
     id="metadata8"><rdf:RDF><cc:Work
         rdf:about=""><dc:format>image/svg+xml</dc:format><dc:type
           rdf:resource="http://purl.org/dc/dcmitype/StillImage" /></cc:Work></rdf:RDF></metadata><defs
     id="defs6" /><g
     transform="matrix(1.3333333,0,0,-1.3333333,0,89.333333)"
     id="g10"><g
       transform="scale(0.1)"
       id="g12"><path
         id="path14"
         style="fill:#231f20;fill-opacity:1;fill-rule:nonzero;stroke:none"
         d="m 469.199,374.258 c 4.403,0 8.285,-0.949 11.668,-2.852 3.387,-1.898 6.051,-4.715 7.969,-8.449 1.918,-3.715 2.883,-7.586 2.883,-11.602 0,-7.082 -2.067,-14.531 -6.184,-22.332 -4.117,-7.8 -9.5,-13.75 -16.133,-17.847 -6.652,-4.102 -13.519,-6.153 -20.617,-6.153 -5.097,0 -9.383,1.137 -12.816,3.399 -3.434,2.269 -5.969,5.25 -7.617,8.953 -1.633,3.715 -2.465,7.316 -2.465,10.801 0,6.179 1.496,12.297 4.465,18.332 2.984,6.035 6.55,11.082 10.683,15.133 4.133,4.05 8.531,7.164 13.235,9.351 4.679,2.184 9.664,3.266 14.929,3.266 z m -1.664,-3.117 c -3.25,0 -6.433,-0.801 -9.535,-2.418 -3.113,-1.614 -6.199,-4.246 -9.25,-7.914 -3.066,-3.649 -5.816,-8.454 -8.266,-14.368 -2.984,-7.3 -4.484,-14.183 -4.484,-20.668 0,-4.617 1.184,-8.714 3.566,-12.281 2.368,-3.551 6.02,-5.336 10.934,-5.336 2.969,0 5.867,0.735 8.719,2.199 2.851,1.454 5.816,3.969 8.918,7.52 3.863,4.449 7.117,10.148 9.761,17.066 2.637,6.918 3.954,13.364 3.954,19.348 0,4.434 -1.184,8.352 -3.567,11.75 -2.383,3.402 -5.949,5.102 -10.75,5.102" /><path
         id="path16"
         style="fill:none;stroke:#231f20;stroke-width:7.5005002;stroke-linecap:butt;stroke-linejoin:miter;stroke-miterlimit:2.61310005;stroke-dasharray:none;stroke-opacity:1"
         d="M 624.227,573.086 C 757.238,450.418 765.625,243.078 642.957,110.07 520.289,-22.9375 312.949,-31.3242 179.941,91.3438 46.9336,214.012 38.5469,421.352 161.215,554.359 283.879,687.367 491.223,695.754 624.227,573.086 Z" /><path
         id="path18"
         style="fill:#231f20;fill-opacity:1;fill-rule:nonzero;stroke:none"
         d="m 756.945,458.539 0.684,1.816 h 23.637 c 3.964,0 7.496,-0.617 10.613,-1.867 3.101,-1.234 5.433,-2.949 6.984,-5.164 1.547,-2.219 2.317,-4.566 2.317,-7.035 0,-3.816 -1.383,-7.25 -4.133,-10.332 -2.754,-3.066 -7.235,-5.352 -13.449,-6.801 4.015,-1.5 6.949,-3.484 8.847,-5.968 1.883,-2.465 2.832,-5.18 2.832,-8.149 0,-3.281 -0.847,-6.43 -2.547,-9.434 -1.683,-2.98 -3.867,-5.312 -6.515,-6.964 -2.653,-1.664 -5.852,-2.887 -9.602,-3.668 -2.668,-0.551 -6.836,-0.832 -12.5,-0.832 h -24.265 l 0.632,1.8 c 2.551,0.067 4.266,0.317 5.184,0.735 1.297,0.566 2.231,1.297 2.785,2.199 0.781,1.23 1.813,4.063 3.113,8.496 l 11.868,40.086 c 1.015,3.383 1.515,5.766 1.515,7.133 0,1.199 -0.449,2.148 -1.332,2.851 -0.898,0.7 -2.597,1.047 -5.117,1.047 -0.551,0 -1.066,0.016 -1.551,0.051 z m 9.903,-27.484 c 2.113,-0.067 3.648,-0.098 4.597,-0.098 6.77,0 11.801,1.469 15.117,4.414 3.301,2.953 4.954,6.633 4.954,11.067 0,3.351 -1.02,5.968 -3.039,7.835 -2.016,1.864 -5.231,2.801 -9.665,2.801 -1.164,0 -2.664,-0.183 -4.48,-0.586 z m -9.618,-32.614 c 3.516,-0.468 6.266,-0.683 8.25,-0.683 5.082,0 9.582,1.531 13.5,4.582 3.934,3.066 5.883,7.219 5.883,12.449 0,4 -1.199,7.133 -3.633,9.383 -2.418,2.25 -6.332,3.367 -11.734,3.367 -1.051,0 -2.316,-0.051 -3.816,-0.148 l -8.45,-28.95" /><path
         id="path20"
         style="fill:#231f20;fill-opacity:1;fill-rule:nonzero;stroke:none"
         d="m 57.9961,471.992 -5.0352,-55.066 c -0.2656,-2.582 -0.3828,-4.266 -0.3828,-5.082 0,-1.301 0.2344,-2.301 0.7344,-2.985 0.6172,-0.933 1.4492,-1.632 2.5,-2.097 1.0664,-0.453 2.8477,-0.684 5.3477,-0.684 l -0.5313,-1.801 H 34.5625 l 0.5313,1.801 h 1.1171 c 2.1172,0 3.8516,0.465 5.1836,1.363 0.9336,0.637 1.668,1.653 2.2032,3.086 0.3476,1.016 0.6992,3.383 1.0156,7.133 l 0.7812,8.402 H 26.4453 l -6.7344,-9.136 c -1.5312,-2.051 -2.4843,-3.531 -2.8828,-4.414 -0.3828,-0.903 -0.582,-1.735 -0.582,-2.52 0,-1.051 0.4141,-1.93 1.2656,-2.683 0.8516,-0.747 2.25,-1.164 4.1992,-1.231 l -0.5312,-1.801 H 1.59375 l 0.53516,1.801 c 2.41797,0.098 4.53515,0.914 6.38281,2.418 1.83598,1.516 4.56638,4.746 8.21878,9.699 l 39.5468,53.797 z m -9.668,-16.25 -19.1992,-26.117 h 16.6484 l 2.5508,26.117" /><path
         id="path22"
         style="fill:#231f20;fill-opacity:1;fill-rule:evenodd;stroke:none"
         d="m 403.66,337.531 c 5.402,0 9.781,-4.383 9.781,-9.781 0,-5.402 -4.379,-9.785 -9.781,-9.785 -5.402,0 -9.777,4.383 -9.777,9.785 0,5.398 4.375,9.781 9.777,9.781" /><path
         id="path24"
         style="fill:none;stroke:#231f20;stroke-width:7.5005002;stroke-linecap:butt;stroke-linejoin:miter;stroke-miterlimit:2.61310005;stroke-dasharray:none;stroke-opacity:1"
         d="m 403.66,337.531 c 5.402,0 9.781,-4.383 9.781,-9.781 0,-5.402 -4.379,-9.785 -9.781,-9.785 -5.402,0 -9.777,4.383 -9.777,9.785 0,5.398 4.375,9.781 9.777,9.781 z" /><path
         id="path26"
         style="fill:none;stroke:#231f20;stroke-width:7.5005002;stroke-linecap:butt;stroke-linejoin:miter;stroke-miterlimit:2.61310005;stroke-dasharray:none;stroke-opacity:1"
         d="m 81.9336,406.316 638.4454,0.133" /></g></g></svg>