<?xml version="1.0" encoding="UTF-8" standalone="no"?>
<svg
   xmlns:dc="http://purl.org/dc/elements/1.1/"
   xmlns:cc="http://creativecommons.org/ns#"
   xmlns:rdf="http://www.w3.org/1999/02/22-rdf-syntax-ns#"
   xmlns:svg="http://www.w3.org/2000/svg"
   xmlns="http://www.w3.org/2000/svg"
   viewBox="0 0 152 68"
   height="68"
   width="152"
   xml:space="preserve"
   id="svg2"
   version="1.1"><metadata
     id="metadata8"><rdf:RDF><cc:Work
         rdf:about=""><dc:format>image/svg+xml</dc:format><dc:type
           rdf:resource="http://purl.org/dc/dcmitype/StillImage" /></cc:Work></rdf:RDF></metadata><defs
     id="defs6" /><g
     transform="matrix(1.3333333,0,0,-1.3333333,0,68)"
     id="g10"><g
       transform="scale(0.1)"
       id="g12"><path
         id="path14"
         style="fill:#231f20;fill-opacity:1;fill-rule:nonzero;stroke:none"
         d="M 65.5469,124.121 60.5117,69.0547 c -0.2656,-2.5859 -0.3828,-4.2695 -0.3828,-5.0859 0,-1.2969 0.2344,-2.2969 0.7344,-2.9805 0.6172,-0.9336 1.4492,-1.6328 2.5,-2.1016 1.0664,-0.4492 2.8476,-0.6836 5.3476,-0.6836 L 68.1797,56.4062 H 42.1133 l 0.5312,1.7969 h 1.1172 c 2.1172,0 3.8516,0.4688 5.1836,1.3672 0.9336,0.6367 1.668,1.6524 2.1992,3.0859 0.3516,1.0157 0.7032,3.379 1.0196,7.129 l 0.7812,8.4023 H 33.9961 l -6.7344,-9.1328 c -1.5312,-2.0508 -2.4844,-3.5352 -2.8828,-4.4141 -0.3828,-0.9023 -0.582,-1.7344 -0.582,-2.5195 0,-1.0508 0.414,-1.9336 1.2656,-2.6836 0.8516,-0.75 2.25,-1.1641 4.1992,-1.2344 L 28.7305,56.4062 H 9.14453 l 0.53516,1.7969 c 2.41801,0.1016 4.53511,0.918 6.38281,2.418 1.8359,1.5195 4.5664,4.75 8.2187,9.7031 l 39.5469,53.7968 z m -9.668,-16.25 -19.1992,-26.1171 h 16.6484 l 2.5508,26.1171" /><path
         id="path16"
         style="fill:#231f20;fill-opacity:1;fill-rule:nonzero;stroke:none"
         d="m 1134.77,505.824 -4.93,-21.429 h -1.77 l -0.18,5.382 c -0.17,1.95 -0.55,3.68 -1.13,5.215 -0.58,1.531 -1.47,2.852 -2.64,3.985 -1.16,1.113 -2.65,2 -4.44,2.632 -1.79,0.633 -3.77,0.95 -5.96,0.95 -5.83,0 -10.91,-1.602 -15.28,-4.786 -5.56,-4.062 -9.93,-9.812 -13.08,-17.23 -2.6,-6.117 -3.92,-12.316 -3.92,-18.602 0,-6.414 1.88,-11.531 5.61,-15.363 3.76,-3.82 8.62,-5.734 14.61,-5.734 4.53,0 8.56,1.015 12.08,3.031 3.53,2.02 6.82,5.117 9.85,9.316 h 2.29 c -3.57,-5.699 -7.56,-9.882 -11.91,-12.566 -4.36,-2.684 -9.6,-4.031 -15.68,-4.031 -5.4,0 -10.18,1.133 -14.35,3.398 -4.17,2.266 -7.35,5.434 -9.51,9.551 -2.19,4.102 -3.29,8.5 -3.29,13.234 0,7.215 1.95,14.25 5.82,21.082 3.86,6.832 9.18,12.215 15.93,16.118 6.77,3.898 13.57,5.847 20.45,5.847 3.21,0 6.83,-0.746 10.83,-2.281 1.76,-0.652 3.04,-0.984 3.8,-0.984 0.79,0 1.47,0.164 2.07,0.484 0.58,0.332 1.55,1.266 2.92,2.781 h 1.81" /><path
         id="path18"
         style="fill:#231f20;fill-opacity:1;fill-rule:nonzero;stroke:none"
         d="m 796.332,112.715 0.586,1.816 h 21.148 c 8.95,0 15.582,-1.035 19.883,-3.086 4.317,-2.047 7.77,-5.281 10.332,-9.679 2.571,-4.4183 3.867,-9.1527 3.867,-14.1996 0,-4.3164 -0.75,-8.5352 -2.234,-12.6172 -1.48,-4.0859 -3.148,-7.3515 -5.031,-9.8164 -1.867,-2.4531 -4.735,-5.168 -8.617,-8.1367 -3.868,-2.9453 -8.067,-5.1484 -12.582,-6.5625 -4.536,-1.418 -10.184,-2.1172 -16.95,-2.1172 h -28.031 l 0.629,1.7969 c 2.582,0.0703 4.301,0.3008 5.188,0.6836 1.296,0.5664 2.261,1.3203 2.882,2.25 0.93,1.3672 1.996,4.1172 3.164,8.25 l 11.715,40.0511 c 0.918,3.148 1.367,5.632 1.367,7.418 0,1.265 -0.418,2.246 -1.265,2.929 -0.848,0.684 -2.5,1.02 -4.981,1.02 z m 17.336,-1.852 -14.352,-49.5661 c -1.082,-3.6992 -1.617,-5.9961 -1.617,-6.8828 0,-0.5157 0.168,-1.0157 0.52,-1.5157 0.332,-0.4843 0.797,-0.8007 1.383,-0.9648 0.851,-0.3008 2.214,-0.4531 4.097,-0.4531 5.117,0 9.867,0.5351 14.235,1.6015 4.382,1.0508 7.964,2.6172 10.765,4.6992 3.985,3.0352 7.153,7.1993 9.535,12.5 2.368,5.3165 3.547,11.3477 3.547,18.1172 0,7.6485 -1.816,13.3476 -5.465,17.0666 -3.632,3.73 -8.968,5.597 -15.964,5.597 -1.719,0 -3.954,-0.066 -6.684,-0.199" /><path
         id="path20"
         style="fill:#231f20;fill-opacity:1;fill-rule:nonzero;stroke:none"
         d="m 318.988,505.07 0.684,1.817 h 23.637 c 3.964,0 7.496,-0.617 10.613,-1.867 3.101,-1.235 5.433,-2.95 6.984,-5.168 1.551,-2.215 2.317,-4.567 2.317,-7.036 0,-3.812 -1.383,-7.246 -4.133,-10.332 -2.75,-3.066 -7.235,-5.347 -13.449,-6.8 4.015,-1.496 6.949,-3.481 8.847,-5.965 1.883,-2.465 2.832,-5.184 2.832,-8.149 0,-3.285 -0.847,-6.433 -2.547,-9.433 -1.683,-2.985 -3.867,-5.317 -6.515,-6.965 -2.653,-1.668 -5.852,-2.887 -9.602,-3.668 -2.668,-0.551 -6.836,-0.836 -12.5,-0.836 h -24.265 l 0.632,1.801 c 2.551,0.07 4.266,0.316 5.184,0.734 1.301,0.567 2.231,1.297 2.785,2.199 0.781,1.235 1.813,4.067 3.113,8.5 l 11.868,40.082 c 1.015,3.387 1.515,5.766 1.515,7.137 0,1.199 -0.449,2.149 -1.332,2.848 -0.898,0.699 -2.597,1.051 -5.117,1.051 -0.551,0 -1.066,0.015 -1.551,0.05 z m 9.903,-27.484 c 2.113,-0.066 3.648,-0.102 4.597,-0.102 6.77,0 11.801,1.469 15.117,4.418 3.301,2.95 4.954,6.633 4.954,11.067 0,3.351 -1.02,5.965 -3.036,7.836 -2.015,1.863 -5.234,2.797 -9.668,2.797 -1.164,0 -2.664,-0.184 -4.48,-0.582 z m -9.618,-32.617 c 3.516,-0.469 6.266,-0.684 8.25,-0.684 5.082,0 9.582,1.535 13.5,4.586 3.934,3.067 5.883,7.215 5.883,12.449 0,4 -1.199,7.133 -3.633,9.383 -2.418,2.25 -6.332,3.367 -11.73,3.367 -1.055,0 -2.32,-0.05 -3.82,-0.152 l -8.45,-28.949" /><path
         id="path22"
         style="fill:none;stroke:#231f20;stroke-width:10.00059986;stroke-linecap:butt;stroke-linejoin:miter;stroke-miterlimit:2.61310005;stroke-dasharray:none;stroke-opacity:1"
         d="M 106.559,87.6953 394.195,443.816 h 636.915" /><path
         id="path24"
         style="fill:none;stroke:#231f20;stroke-width:10.00059986;stroke-linecap:butt;stroke-linejoin:miter;stroke-miterlimit:2.61310005;stroke-dasharray:none;stroke-opacity:1"
         d="M 1031.11,443.816 743.469,87.6953 h -636.91" /><path
         id="path26"
         style="fill:none;stroke:#231f20;stroke-width:6.49980021;stroke-linecap:butt;stroke-linejoin:miter;stroke-miterlimit:2.61310005;stroke-dasharray:none;stroke-opacity:1"
         d="m 341.188,378.188 c 79.804,-25.86 133.707,6.011 156.496,65.628" /><path
         id="path28"
         style="fill:#231f20;fill-opacity:1;fill-rule:nonzero;stroke:none"
         d="m 120.848,345.406 -3.821,-8.297 H 97.1133 l -4.3516,-8.902 c 8.6333,-1.266 15.4683,-4.469 20.5003,-9.613 4.336,-4.422 6.5,-9.637 6.5,-15.621 0,-3.485 -0.7,-6.715 -2.114,-9.664 -1.418,-2.969 -3.203,-5.485 -5.351,-7.567 -2.149,-2.082 -4.551,-3.765 -7.184,-5.035 -3.734,-1.801 -7.5818,-2.684 -11.5192,-2.684 -3.9805,0 -6.8633,0.668 -8.6641,2.02 -1.8164,1.348 -2.7188,2.848 -2.7188,4.465 0,0.918 0.3868,1.715 1.1172,2.418 0.75,0.699 1.7031,1.051 2.836,1.051 0.8476,0 1.5976,-0.122 2.2343,-0.387 0.6289,-0.266 1.7149,-0.934 3.2461,-1.996 2.4375,-1.703 4.9024,-2.555 7.418,-2.555 3.8005,0 7.1485,1.453 10.0315,4.336 2.886,2.883 4.32,6.383 4.32,10.516 0,4 -1.285,7.734 -3.852,11.199 -2.582,3.469 -6.117,6.152 -10.6479,8.035 -3.5508,1.469 -8.3868,2.316 -14.5,2.551 l 12.6992,25.73 h 23.7347" /><path
         id="path30"
         style="fill:none;stroke:#231f20;stroke-width:5.00029993;stroke-linecap:butt;stroke-linejoin:miter;stroke-miterlimit:2.61310005;stroke-dasharray:none;stroke-opacity:1"
         d="m 134.941,313.379 12.313,-31.164 15.605,72.305 h 54.957" /><path
         id="path32"
         style="fill:#231f20;fill-opacity:1;fill-rule:nonzero;stroke:none"
         d="m 213.785,287.781 -4.633,-12.75 h -39.066 v 1.797 c 11.484,10.484 19.586,19.051 24.266,25.688 4.683,6.648 7.035,12.714 7.035,18.214 0,4.2 -1.282,7.649 -3.867,10.348 -2.567,2.703 -5.633,4.051 -9.215,4.051 -3.266,0 -6.184,-0.949 -8.77,-2.848 -2.582,-1.902 -4.496,-4.699 -5.73,-8.367 h -1.817 c 0.817,6.016 2.899,10.633 6.282,13.867 3.367,3.215 7.566,4.832 12.617,4.832 5.367,0 9.851,-1.734 13.449,-5.183 3.602,-3.453 5.402,-7.516 5.402,-12.2 0,-3.351 -0.785,-6.718 -2.351,-10.066 -2.403,-5.269 -6.317,-10.852 -11.715,-16.75 -8.102,-8.852 -13.168,-14.184 -15.188,-16.016 h 17.289 c 3.512,0 5.981,0.133 7.395,0.399 1.418,0.25 2.703,0.781 3.836,1.582 1.133,0.801 2.133,1.937 2.984,3.402 h 1.797" /><path
         id="path34"
         style="fill:none;stroke:#231f20;stroke-width:10.00059986;stroke-linecap:butt;stroke-linejoin:miter;stroke-miterlimit:2.61310005;stroke-dasharray:none;stroke-opacity:1"
         d="M 394.195,443.816 V 87.6953" /><path
         id="path36"
         style="fill:none;stroke:#231f20;stroke-width:5.00029993;stroke-linecap:butt;stroke-linejoin:miter;stroke-miterlimit:2.61310005;stroke-dasharray:none;stroke-opacity:1"
         d="m 394.195,87.6953 h 65.8477 v 65.4766 H 394.195 Z" /><path
         id="path38"
         style="fill:#231f20;fill-opacity:1;fill-rule:nonzero;stroke:none"
         d="m 375.094,37.4297 h 30.551 l 4.847,16.3672 c 0.903,3.1836 1.367,5.6484 1.367,7.4179 0,0.8477 -0.214,1.5625 -0.613,2.1641 -0.402,0.6016 -1.035,1.0508 -1.883,1.3516 -0.851,0.2812 -2.5,0.4336 -4.988,0.4336 l 0.504,1.8164 h 26.648 l -0.582,-1.8164 c -2.25,0.0312 -3.918,-0.1836 -5.035,-0.6836 -1.551,-0.6836 -2.715,-1.5664 -3.465,-2.6328 -1.066,-1.5352 -2.168,-4.2188 -3.265,-8.0508 l -11.668,-40 c -0.985,-3.3164 -1.469,-5.69924 -1.469,-7.11721 0,-1.25 0.434,-2.1836 1.301,-2.81641 0.851,-0.63281 2.918,-1.0664 6.168,-1.30078 l -0.535,-1.800781 h -25.782 l 0.684,1.800781 c 2.531,0.07031 4.234,0.30078 5.082,0.68359 1.301,0.60157 2.25,1.35157 2.832,2.25 0.836,1.26953 1.887,4.03516 3.117,8.30081 l 5.969,20.2656 h -30.715 l -6.019,-20.2656 c -0.934,-3.25 -1.399,-5.63284 -1.399,-7.11721 0,-1.25 0.414,-2.1836 1.266,-2.81641 0.832,-0.63281 2.898,-1.0664 6.152,-1.30078 l -0.402,-1.800781 h -25.965 l 0.629,1.800781 c 2.57,0.07031 4.289,0.30078 5.136,0.68359 1.301,0.60157 2.25,1.35157 2.868,2.25 0.851,1.33203 1.898,4.10157 3.132,8.30081 l 11.715,40 c 0.953,3.25 1.418,5.7148 1.418,7.4179 0,0.8477 -0.199,1.5625 -0.617,2.1641 -0.398,0.6016 -1.035,1.0508 -1.902,1.3516 -0.864,0.2812 -2.547,0.4336 -5.047,0.4336 l 0.586,1.8164 h 26.113 l -0.531,-1.8164 c -2.184,0.0312 -3.785,-0.1836 -4.836,-0.6836 -1.531,-0.6485 -2.649,-1.5157 -3.367,-2.5821 -0.985,-1.4336 -2.047,-4.1367 -3.215,-8.1015 l -4.785,-16.3672" /></g></g></svg>