<?xml version="1.0" encoding="UTF-8" standalone="no"?>
<svg
   xmlns:dc="http://purl.org/dc/elements/1.1/"
   xmlns:cc="http://creativecommons.org/ns#"
   xmlns:rdf="http://www.w3.org/1999/02/22-rdf-syntax-ns#"
   xmlns:svg="http://www.w3.org/2000/svg"
   xmlns="http://www.w3.org/2000/svg"
   viewBox="0 0 132 50.666668"
   height="50.666668"
   width="132"
   xml:space="preserve"
   id="svg2"
   version="1.1"><metadata
     id="metadata8"><rdf:RDF><cc:Work
         rdf:about=""><dc:format>image/svg+xml</dc:format><dc:type
           rdf:resource="http://purl.org/dc/dcmitype/StillImage" /></cc:Work></rdf:RDF></metadata><defs
     id="defs6" /><g
     transform="matrix(1.3333333,0,0,-1.3333333,0,50.666667)"
     id="g10"><g
       transform="scale(0.1)"
       id="g12"><path
         id="path14"
         style="fill:none;stroke:#231f20;stroke-width:7.5005002;stroke-linecap:butt;stroke-linejoin:miter;stroke-miterlimit:2.61310005;stroke-dasharray:none;stroke-opacity:1"
         d="M 90.0586,87.832 H 643.637" /><path
         id="path16"
         style="fill:none;stroke:#231f20;stroke-width:7.5005002;stroke-linecap:butt;stroke-linejoin:miter;stroke-miterlimit:2.61310005;stroke-dasharray:none;stroke-opacity:1"
         d="M 355.84,282.957 H 909.422" /><path
         id="path18"
         style="fill:none;stroke:#231f20;stroke-width:7.5005002;stroke-linecap:butt;stroke-linejoin:miter;stroke-miterlimit:2.61310005;stroke-dasharray:none;stroke-opacity:1"
         d="M 90.6445,90.1172 355.84,282.957" /><path
         id="path20"
         style="fill:#231f20;fill-opacity:1;fill-rule:nonzero;stroke:none"
         d="M 62.0234,119.438 56.9883,64.3711 c -0.2656,-2.582 -0.3828,-4.2656 -0.3828,-5.082 0,-1.3008 0.2343,-2.3008 0.7343,-2.9844 0.6172,-0.9336 1.4493,-1.6328 2.5,-2.1016 1.0664,-0.4492 2.8516,-0.6797 5.3516,-0.6797 L 64.6562,51.7227 H 38.5898 l 0.5352,1.8007 h 1.1172 c 2.1172,0 3.8516,0.4649 5.1836,1.3633 0.9336,0.6367 1.664,1.6524 2.1992,3.086 0.3477,1.0156 0.6992,3.3828 1.0156,7.1328 l 0.7852,8.3984 H 30.4766 l -6.7383,-9.1328 c -1.5274,-2.0508 -2.4805,-3.5352 -2.8828,-4.4141 -0.3789,-0.9023 -0.5821,-1.7343 -0.5821,-2.5195 0,-1.0508 0.418,-1.9297 1.2657,-2.6836 0.8515,-0.7461 2.2539,-1.1641 4.2031,-1.2305 L 25.207,51.7227 H 5.625 l 0.53125,1.8007 c 2.41797,0.0977 4.53515,0.9141 6.38285,2.418 1.8359,1.5156 4.5664,4.7461 8.2187,9.6992 l 39.5469,53.7974 z m -9.664,-16.25 -19.2032,-26.1177 h 16.6524 l 2.5508,26.1177" /><path
         id="path22"
         style="fill:#231f20;fill-opacity:1;fill-rule:nonzero;stroke:none"
         d="m 629.152,69.207 0.586,1.8164 h 21.149 c 8.949,0 15.582,-1.0351 19.883,-3.0859 4.316,-2.0469 7.765,-5.2813 10.332,-9.6836 2.57,-4.4141 3.867,-9.1484 3.867,-14.1992 0,-4.3164 -0.75,-8.5313 -2.235,-12.6133 -1.48,-4.0859 -3.148,-7.3516 -5.031,-9.8164 -1.867,-2.4531 -4.734,-5.168 -8.617,-8.1367 C 665.219,10.5391 661.02,8.33594 656.504,6.92188 651.969,5.50781 646.32,4.80469 639.551,4.80469 H 611.52 l 0.632,1.80078 c 2.582,0.07031 4.301,0.30078 5.184,0.68359 1.301,0.56641 2.266,1.31641 2.883,2.25 0.933,1.36714 2,4.11714 3.168,8.25004 l 11.715,40.0507 c 0.918,3.1485 1.367,5.6329 1.367,7.418 0,1.2617 -0.418,2.2461 -1.266,2.9297 -0.848,0.6836 -2.5,1.0195 -4.98,1.0195 z m 17.332,-1.8515 -14.347,-49.5664 c -1.082,-3.6993 -1.617,-6 -1.617,-6.8829 0,-0.5156 0.168,-1.01948 0.519,-1.51558 0.328,-0.48437 0.797,-0.80078 1.383,-0.96874 0.848,-0.30079 2.215,-0.44922 4.098,-0.44922 5.117,0 9.867,0.53125 14.234,1.60156 4.383,1.04688 7.965,2.61718 10.766,4.69918 3.984,3.0313 7.148,7.1993 9.535,12.4961 2.367,5.3203 3.547,11.3516 3.547,18.1211 0,7.6485 -1.817,13.3477 -5.465,17.0625 -3.633,3.7344 -8.969,5.6016 -15.965,5.6016 -1.719,0 -3.953,-0.0664 -6.688,-0.1992" /><path
         id="path24"
         style="fill:#231f20;fill-opacity:1;fill-rule:nonzero;stroke:none"
         d="m 989.754,341.047 -4.93,-21.43 h -1.769 l -0.18,5.383 c -0.168,1.949 -0.551,3.68 -1.137,5.215 -0.582,1.531 -1.468,2.851 -2.633,3.984 -1.167,1.113 -2.648,2 -4.449,2.633 -1.785,0.633 -3.769,0.949 -5.949,0.949 -5.836,0 -10.918,-1.601 -15.285,-4.785 -5.567,-4.062 -9.934,-9.816 -13.082,-17.23 -2.598,-6.118 -3.918,-12.317 -3.918,-18.602 0,-6.418 1.883,-11.531 5.617,-15.363 3.75,-3.821 8.617,-5.735 14.602,-5.735 4.531,0 8.562,1.016 12.082,3.032 3.531,2.019 6.816,5.117 9.851,9.316 h 2.281 c -3.566,-5.699 -7.55,-9.883 -11.898,-12.566 -4.367,-2.684 -9.602,-4.032 -15.687,-4.032 -5.399,0 -10.18,1.133 -14.348,3.399 -4.168,2.265 -7.348,5.433 -9.516,9.551 -2.183,4.101 -3.285,8.5 -3.285,13.234 0,7.215 1.949,14.25 5.817,21.082 3.867,6.832 9.183,12.215 15.933,16.113 6.766,3.903 13.567,5.852 20.453,5.852 3.215,0 6.832,-0.746 10.828,-2.281 1.754,-0.653 3.039,-0.985 3.805,-0.985 0.781,0 1.465,0.164 2.066,0.485 0.582,0.332 1.547,1.265 2.915,2.781 h 1.816" /><path
         id="path26"
         style="fill:#231f20;fill-opacity:1;fill-rule:nonzero;stroke:none"
         d="m 634.023,341.656 h 30.551 l 4.848,16.367 c 0.902,3.18 1.367,5.649 1.367,7.418 0,0.848 -0.215,1.563 -0.613,2.164 -0.403,0.602 -1.035,1.047 -1.883,1.348 -0.852,0.285 -2.5,0.434 -4.988,0.434 l 0.504,1.82 h 26.648 l -0.582,-1.82 c -2.25,0.035 -3.918,-0.184 -5.035,-0.68 -1.551,-0.684 -2.715,-1.57 -3.465,-2.637 -1.066,-1.531 -2.168,-4.215 -3.266,-8.047 l -11.668,-40 c -0.984,-3.316 -1.468,-5.703 -1.468,-7.117 0,-1.25 0.433,-2.183 1.3,-2.816 0.852,-0.633 2.918,-1.07 6.168,-1.301 l -0.535,-1.801 h -25.781 l 0.684,1.801 c 2.531,0.066 4.234,0.301 5.082,0.684 1.3,0.601 2.25,1.347 2.832,2.25 0.836,1.265 1.886,4.035 3.117,8.3 l 5.969,20.266 h -30.715 l -6.02,-20.266 c -0.933,-3.253 -1.398,-5.632 -1.398,-7.117 0,-1.25 0.414,-2.183 1.265,-2.816 0.832,-0.633 2.899,-1.07 6.153,-1.301 l -0.403,-1.801 h -25.964 l 0.628,1.801 c 2.571,0.066 4.29,0.301 5.137,0.684 1.301,0.601 2.25,1.347 2.867,2.25 0.852,1.332 1.899,4.097 3.133,8.3 l 11.715,40 c 0.953,3.25 1.418,5.715 1.418,7.418 0,0.848 -0.199,1.563 -0.617,2.164 -0.399,0.602 -1.035,1.047 -1.903,1.348 -0.863,0.285 -2.546,0.434 -5.046,0.434 l 0.586,1.82 h 26.113 l -0.531,-1.82 c -2.184,0.035 -3.786,-0.184 -4.836,-0.68 -1.532,-0.652 -2.649,-1.519 -3.368,-2.586 -0.984,-1.433 -2.046,-4.133 -3.214,-8.098 l -4.786,-16.367" /><path
         id="path28"
         style="fill:#231f20;fill-opacity:1;fill-rule:nonzero;stroke:none"
         d="m 313.078,358.43 0.684,1.816 h 23.633 c 3.968,0 7.5,-0.617 10.617,-1.867 3.101,-1.234 5.433,-2.949 6.984,-5.164 1.547,-2.219 2.316,-4.567 2.316,-7.035 0,-3.817 -1.382,-7.25 -4.132,-10.332 -2.754,-3.071 -7.235,-5.352 -13.45,-6.801 4.016,-1.5 6.95,-3.485 8.848,-5.969 1.883,-2.465 2.832,-5.18 2.832,-8.148 0,-3.282 -0.848,-6.434 -2.547,-9.434 -1.683,-2.98 -3.867,-5.316 -6.519,-6.965 -2.649,-1.668 -5.848,-2.886 -9.598,-3.668 -2.668,-0.551 -6.836,-0.832 -12.504,-0.832 H 295.98 l 0.633,1.801 c 2.551,0.066 4.266,0.316 5.184,0.73 1.297,0.571 2.23,1.301 2.781,2.204 0.785,1.23 1.817,4.062 3.117,8.496 l 11.867,40.086 c 1.016,3.382 1.516,5.765 1.516,7.132 0,1.2 -0.449,2.149 -1.332,2.848 -0.898,0.703 -2.601,1.051 -5.117,1.051 -0.551,0 -1.067,0.016 -1.551,0.051 z m 9.902,-27.485 c 2.114,-0.066 3.649,-0.097 4.598,-0.097 6.77,0 11.801,1.464 15.117,4.414 3.297,2.953 4.95,6.633 4.95,11.066 0,3.352 -1.016,5.969 -3.036,7.836 -2.015,1.863 -5.23,2.801 -9.664,2.801 -1.168,0 -2.664,-0.184 -4.484,-0.586 z m -9.617,-32.613 c 3.516,-0.469 6.266,-0.684 8.25,-0.684 5.082,0 9.582,1.532 13.5,4.582 3.934,3.067 5.883,7.219 5.883,12.45 0,4 -1.203,7.132 -3.633,9.382 -2.418,2.25 -6.332,3.368 -11.734,3.368 -1.051,0 -2.317,-0.051 -3.817,-0.149 l -8.449,-28.949" /><path
         id="path30"
         style="fill:none;stroke:#231f20;stroke-width:7.5005002;stroke-linecap:butt;stroke-linejoin:miter;stroke-miterlimit:2.61310005;stroke-dasharray:none;stroke-opacity:1"
         d="M 642.91,88.5859 V 282.957" /><path
         id="path32"
         style="fill:none;stroke:#231f20;stroke-width:5.00029993;stroke-linecap:butt;stroke-linejoin:miter;stroke-miterlimit:2.61310005;stroke-dasharray:none;stroke-opacity:1"
         d="m 601.164,241.016 h 41.7461 v 40.9375 H 601.164 Z" /><path
         id="path34"
         style="fill:none;stroke:#231f20;stroke-width:5.00029993;stroke-linecap:butt;stroke-linejoin:miter;stroke-miterlimit:2.61310005;stroke-dasharray:none;stroke-opacity:1"
         d="m 816.113,281.703 c -2.66,-22.703 5.032,-40.125 21.34,-53.191" /><path
         id="path36"
         style="fill:none;stroke:#231f20;stroke-width:7.5005002;stroke-linecap:butt;stroke-linejoin:miter;stroke-miterlimit:2.61310005;stroke-dasharray:none;stroke-opacity:1"
         d="M 643.719,88.4492 908.914,281.285" /></g></g></svg>