<?xml version="1.0" encoding="UTF-8" standalone="no"?>
<svg
   xmlns:dc="http://purl.org/dc/elements/1.1/"
   xmlns:cc="http://creativecommons.org/ns#"
   xmlns:rdf="http://www.w3.org/1999/02/22-rdf-syntax-ns#"
   xmlns:svg="http://www.w3.org/2000/svg"
   xmlns="http://www.w3.org/2000/svg"
   viewBox="0 0 141.33333 66.666664"
   height="66.666664"
   width="141.33333"
   xml:space="preserve"
   id="svg2"
   version="1.1"><metadata
     id="metadata8"><rdf:RDF><cc:Work
         rdf:about=""><dc:format>image/svg+xml</dc:format><dc:type
           rdf:resource="http://purl.org/dc/dcmitype/StillImage" /></cc:Work></rdf:RDF></metadata><defs
     id="defs6" /><g
     transform="matrix(1.3333333,0,0,-1.3333333,0,66.666667)"
     id="g10"><g
       transform="scale(0.1)"
       id="g12"><path
         id="path14"
         style="fill:none;stroke:#231f20;stroke-width:7.5005002;stroke-linecap:butt;stroke-linejoin:miter;stroke-miterlimit:2.61310005;stroke-dasharray:none;stroke-opacity:1"
         d="M 76.0586,87.832 H 629.637" /><path
         id="path16"
         style="fill:none;stroke:#231f20;stroke-width:7.5005002;stroke-linecap:butt;stroke-linejoin:miter;stroke-miterlimit:2.61310005;stroke-dasharray:none;stroke-opacity:1"
         d="M 413.84,426.953 H 967.418" /><path
         id="path18"
         style="fill:none;stroke:#231f20;stroke-width:7.5005002;stroke-linecap:butt;stroke-linejoin:miter;stroke-miterlimit:2.61310005;stroke-dasharray:none;stroke-opacity:1"
         d="M 73.6094,87.832 413.801,427.855" /><path
         id="path20"
         style="fill:#231f20;fill-opacity:1;fill-rule:nonzero;stroke:none"
         d="M 58.6992,112.602 53.6641,57.5352 c -0.2657,-2.586 -0.3829,-4.2696 -0.3829,-5.086 0,-1.2969 0.2344,-2.2969 0.7344,-2.9804 0.6172,-0.9336 1.4492,-1.6329 2.5,-2.1016 1.0664,-0.4492 2.8516,-0.6836 5.3516,-0.6836 L 61.332,44.8828 H 35.2656 l 0.5313,1.8008 h 1.1172 c 2.1171,0 3.8554,0.4687 5.1875,1.3672 0.9296,0.6367 1.664,1.6484 2.1992,3.0859 0.3476,1.0156 0.6992,3.3789 1.0156,7.1289 l 0.7852,8.4024 H 27.1523 L 20.4141,57.5352 C 18.8828,55.4844 17.9336,54 17.5312,53.1211 c -0.3828,-0.9023 -0.582,-1.7383 -0.582,-2.5195 0,-1.0508 0.418,-1.9336 1.2656,-2.6836 0.8516,-0.75 2.25,-1.1641 4.2032,-1.2344 L 21.8828,44.8828 H 2.30078 l 0.53125,1.8008 c 2.41797,0.1016 4.53516,0.918 6.38281,2.418 1.83596,1.5156 4.56636,4.75 8.21876,9.6992 L 56.9805,112.602 Z M 49.0352,96.3516 29.832,70.2344 h 16.6524 l 2.5508,26.1172" /><path
         id="path22"
         style="fill:#231f20;fill-opacity:1;fill-rule:nonzero;stroke:none"
         d="m 651.695,84.9297 0.586,1.8203 h 21.149 c 8.953,0 15.586,-1.0352 19.882,-3.0859 4.321,-2.0508 7.77,-5.2852 10.333,-9.6836 2.57,-4.4141 3.867,-9.1485 3.867,-14.1993 0,-4.3164 -0.746,-8.5351 -2.235,-12.6132 -1.48,-4.086 -3.148,-7.3516 -5.031,-9.8164 -1.867,-2.4532 -4.73,-5.168 -8.617,-8.1368 -3.863,-2.9492 -8.067,-5.1523 -12.582,-6.5664 -4.535,-1.4179 -10.184,-2.1172 -16.949,-2.1172 h -28.032 l 0.633,1.8008 c 2.582,0.0664 4.297,0.3008 5.184,0.6836 1.297,0.5664 2.265,1.3164 2.883,2.25 0.933,1.3672 1.996,4.1172 3.164,8.25 l 11.718,40.0508 c 0.918,3.1484 1.364,5.6289 1.364,7.418 0,1.2617 -0.414,2.2461 -1.262,2.9297 -0.852,0.6836 -2.5,1.0156 -4.984,1.0156 z M 669.031,83.082 654.68,33.5156 c -1.082,-3.6992 -1.618,-6 -1.618,-6.8828 0,-0.5156 0.168,-1.0195 0.52,-1.5156 0.332,-0.4844 0.801,-0.8008 1.383,-0.9688 0.851,-0.3007 2.215,-0.4492 4.097,-0.4492 5.118,0 9.868,0.5313 14.235,1.6016 4.383,1.0469 7.969,2.6172 10.769,4.6992 3.981,3.0312 7.149,7.1992 9.532,12.4961 2.367,5.3203 3.55,11.3516 3.55,18.1211 0,7.6484 -1.82,13.3476 -5.468,17.0625 -3.633,3.7344 -8.969,5.6015 -15.965,5.6015 -1.719,0 -3.953,-0.0664 -6.684,-0.1992" /><path
         id="path24"
         style="fill:#231f20;fill-opacity:1;fill-rule:nonzero;stroke:none"
         d="m 1055.59,481.891 -4.94,-21.434 h -1.77 l -0.18,5.383 c -0.16,1.949 -0.55,3.683 -1.13,5.215 -0.59,1.535 -1.47,2.851 -2.64,3.988 -1.16,1.113 -2.64,1.996 -4.45,2.633 -1.78,0.633 -3.76,0.949 -5.94,0.949 -5.84,0 -10.92,-1.602 -15.29,-4.785 -5.57,-4.067 -9.93,-9.817 -13.08,-17.231 -2.6,-6.117 -3.92,-12.316 -3.92,-18.601 0,-6.418 1.88,-11.535 5.62,-15.367 3.75,-3.817 8.61,-5.735 14.6,-5.735 4.53,0 8.57,1.02 12.08,3.035 3.53,2.016 6.82,5.114 9.85,9.317 h 2.28 c -3.56,-5.699 -7.54,-9.887 -11.89,-12.567 -4.37,-2.683 -9.61,-4.035 -15.69,-4.035 -5.4,0 -10.18,1.137 -14.35,3.399 -4.16,2.269 -7.348,5.437 -9.516,9.55 -2.183,4.102 -3.285,8.5 -3.285,13.235 0,7.219 1.953,14.25 5.817,21.086 3.864,6.832 9.184,12.215 15.934,16.113 6.76,3.902 13.57,5.852 20.45,5.852 3.22,0 6.83,-0.75 10.83,-2.282 1.75,-0.652 3.04,-0.984 3.81,-0.984 0.78,0 1.46,0.164 2.06,0.48 0.58,0.336 1.55,1.27 2.92,2.786 h 1.82" /><path
         id="path26"
         style="fill:#231f20;fill-opacity:1;fill-rule:nonzero;stroke:none"
         d="m 363.074,496.773 0.684,1.817 h 23.633 c 3.964,0 7.496,-0.617 10.617,-1.867 3.101,-1.235 5.433,-2.95 6.984,-5.168 1.547,-2.215 2.317,-4.567 2.317,-7.035 0,-3.813 -1.387,-7.247 -4.133,-10.332 -2.754,-3.067 -7.235,-5.348 -13.453,-6.801 4.019,-1.496 6.953,-3.481 8.851,-5.965 1.883,-2.465 2.832,-5.184 2.832,-8.149 0,-3.285 -0.847,-6.433 -2.551,-9.433 -1.683,-2.985 -3.863,-5.317 -6.515,-6.965 -2.649,-1.668 -5.852,-2.887 -9.602,-3.668 -2.668,-0.551 -6.832,-0.836 -12.5,-0.836 h -24.261 l 0.628,1.801 c 2.551,0.07 4.266,0.316 5.188,0.734 1.297,0.567 2.23,1.297 2.781,2.199 0.781,1.235 1.817,4.067 3.117,8.5 l 11.864,40.083 c 1.019,3.386 1.519,5.765 1.519,7.136 0,1.199 -0.449,2.149 -1.336,2.848 -0.898,0.699 -2.597,1.051 -5.113,1.051 -0.551,0 -1.066,0.015 -1.551,0.05 z m 9.899,-27.484 c 2.117,-0.066 3.648,-0.101 4.597,-0.101 6.77,0 11.801,1.468 15.118,4.417 3.3,2.95 4.953,6.633 4.953,11.067 0,3.348 -1.016,5.965 -3.036,7.832 -2.015,1.867 -5.234,2.801 -9.667,2.801 -1.165,0 -2.665,-0.184 -4.481,-0.582 z m -9.618,-32.617 c 3.52,-0.469 6.27,-0.684 8.254,-0.684 5.082,0 9.579,1.535 13.496,4.586 3.934,3.067 5.887,7.215 5.887,12.449 0,4 -1.203,7.133 -3.637,9.383 -2.417,2.25 -6.332,3.367 -11.73,3.367 -1.051,0 -2.32,-0.05 -3.82,-0.152 l -8.45,-28.949" /><path
         id="path28"
         style="fill:none;stroke:#231f20;stroke-width:7.5005002;stroke-linecap:butt;stroke-linejoin:miter;stroke-miterlimit:2.61310005;stroke-dasharray:none;stroke-opacity:1"
         d="M 413.84,426.953 V 87.832" /><path
         id="path30"
         style="fill:none;stroke:#231f20;stroke-width:5.00029993;stroke-linecap:butt;stroke-linejoin:miter;stroke-miterlimit:2.61310005;stroke-dasharray:none;stroke-opacity:1"
         d="m 413.84,87.832 h 50.5625 v 50.2852 H 413.84 Z" /><path
         id="path32"
         style="fill:none;stroke:#231f20;stroke-width:5.00029993;stroke-linecap:butt;stroke-linejoin:miter;stroke-miterlimit:2.61310005;stroke-dasharray:none;stroke-opacity:1"
         d="m 139.48,151.742 c 18.641,-18.633 26.723,-39.254 24.266,-61.8514" /><path
         id="path34"
         style="fill:#231f20;fill-opacity:1;fill-rule:nonzero;stroke:none"
         d="m 402.266,39.5352 h 30.546 l 4.852,16.3671 c 0.902,3.1836 1.367,5.6485 1.367,7.418 0,0.8477 -0.219,1.5664 -0.617,2.1641 -0.398,0.6015 -1.035,1.0508 -1.883,1.3515 -0.847,0.2813 -2.5,0.4336 -4.984,0.4336 l 0.5,1.8164 h 26.648 l -0.582,-1.8164 c -2.25,0.0352 -3.914,-0.1836 -5.031,-0.6836 -1.551,-0.6836 -2.719,-1.5664 -3.469,-2.6328 -1.066,-1.5351 -2.164,-4.2187 -3.265,-8.0508 l -11.668,-40 c -0.981,-3.3164 -1.469,-5.6992 -1.469,-7.11714 0,-1.25 0.437,-2.1836 1.305,-2.8125 0.847,-0.63672 2.914,-1.07032 6.168,-1.30469 l -0.539,-1.79688 h -25.778 l 0.68,1.79688 c 2.531,0.07031 4.234,0.30078 5.086,0.68359 1.301,0.60156 2.25,1.35156 2.832,2.25391 0.832,1.26562 1.883,4.03123 3.117,8.29683 l 5.965,20.2696 h -30.715 l -6.02,-20.2696 c -0.929,-3.25 -1.398,-5.6328 -1.398,-7.11714 0,-1.25 0.418,-2.1836 1.266,-2.8125 0.836,-0.63672 2.902,-1.07032 6.152,-1.30469 l -0.398,-1.79688 h -25.969 l 0.633,1.79688 c 2.566,0.07031 4.285,0.30078 5.132,0.68359 1.301,0.60156 2.25,1.35156 2.868,2.25391 0.851,1.33203 1.898,4.09763 3.132,8.29683 l 11.715,40 c 0.953,3.25 1.418,5.7188 1.418,7.418 0,0.8477 -0.199,1.5664 -0.613,2.1641 -0.402,0.6015 -1.035,1.0508 -1.902,1.3515 -0.868,0.2813 -2.551,0.4336 -5.051,0.4336 l 0.586,1.8164 h 26.113 l -0.531,-1.8164 c -2.184,0.0352 -3.785,-0.1836 -4.832,-0.6836 -1.535,-0.6484 -2.653,-1.5156 -3.367,-2.582 -0.985,-1.4336 -2.051,-4.1367 -3.219,-8.1016 l -4.781,-16.3671" /><path
         id="path36"
         style="fill:none;stroke:#231f20;stroke-width:7.5005002;stroke-linecap:butt;stroke-linejoin:miter;stroke-miterlimit:2.61310005;stroke-dasharray:none;stroke-opacity:1"
         d="M 626.793,88.3242 966.984,428.352" /></g></g></svg>