<?xml version="1.0" encoding="UTF-8" standalone="no"?>
<svg
   xmlns:dc="http://purl.org/dc/elements/1.1/"
   xmlns:cc="http://creativecommons.org/ns#"
   xmlns:rdf="http://www.w3.org/1999/02/22-rdf-syntax-ns#"
   xmlns:svg="http://www.w3.org/2000/svg"
   xmlns="http://www.w3.org/2000/svg"
   viewBox="0 0 104.97333 104.25333"
   height="104.25333"
   width="104.97333"
   xml:space="preserve"
   id="svg2"
   version="1.1"><metadata
     id="metadata8"><rdf:RDF><cc:Work
         rdf:about=""><dc:format>image/svg+xml</dc:format><dc:type
           rdf:resource="http://purl.org/dc/dcmitype/StillImage" /></cc:Work></rdf:RDF></metadata><defs
     id="defs6" /><g
     transform="matrix(1.3333333,0,0,-1.3333333,0,104.25333)"
     id="g10"><g
       transform="scale(0.1)"
       id="g12"><path
         id="path14"
         style="fill:#000000;fill-opacity:1;fill-rule:evenodd;stroke:none"
         d="m 461.438,484.227 c 4.394,0 8.285,-0.95 11.667,-2.856 3.387,-1.902 6.04,-4.719 7.961,-8.445 1.922,-3.731 2.879,-7.594 2.879,-11.598 0,-7.098 -2.058,-14.543 -6.175,-22.34 -4.118,-7.797 -9.497,-13.746 -16.137,-17.847 -6.641,-4.102 -13.508,-6.153 -20.606,-6.153 -5.109,0 -9.382,1.133 -12.816,3.395 -3.438,2.262 -5.977,5.25 -7.617,8.961 -1.645,3.711 -2.469,7.308 -2.469,10.789 0,6.187 1.492,12.297 4.469,18.336 2.98,6.039 6.535,11.086 10.668,15.136 4.136,4.055 8.547,7.168 13.234,9.352 4.688,2.18 9.668,3.27 14.942,3.27 z m -1.661,-3.125 c -3.254,0 -6.437,-0.805 -9.547,-2.414 -3.109,-1.614 -6.191,-4.25 -9.253,-7.911 -3.059,-3.664 -5.809,-8.457 -8.25,-14.382 -2.997,-7.29 -4.493,-14.176 -4.493,-20.653 0,-4.625 1.188,-8.719 3.563,-12.281 2.379,-3.566 6.023,-5.348 10.937,-5.348 2.965,0 5.868,0.735 8.719,2.199 2.848,1.465 5.817,3.969 8.91,7.52 3.875,4.457 7.129,10.148 9.766,17.066 2.637,6.914 3.953,13.368 3.953,19.36 0,4.426 -1.187,8.34 -3.562,11.742 -2.375,3.402 -5.958,5.102 -10.743,5.102 v 0" /><path
         id="path16"
         style="fill:#000000;fill-opacity:1;fill-rule:evenodd;stroke:none"
         d="m 361.5,715.266 h 34.078 v -1.782 l -21.187,-63.093 h -5.25 l 18.984,57.234 h -17.484 c -3.532,0 -6.047,-0.422 -7.547,-1.266 -2.625,-1.437 -4.735,-3.656 -6.328,-6.652 l -1.36,0.512 6.094,15.047" /><path
         id="path18"
         style="fill:#1f1a17;fill-opacity:1;fill-rule:evenodd;stroke:none"
         d="m 402.551,392.82 c 0,-5.343 -4.367,-9.679 -9.75,-9.679 -5.379,0 -9.746,4.336 -9.746,9.679 0,5.344 4.367,9.684 9.746,9.684 5.383,0 9.75,-4.34 9.75,-9.684" /><g
         transform="scale(1.00351,-0.996492)"
         id="g20"><path
           id="path22"
           style="fill:none;stroke:#1f1a17;stroke-width:2.1600101;stroke-linecap:butt;stroke-linejoin:miter;stroke-miterlimit:10;stroke-dasharray:none;stroke-opacity:1"
           d="m 401.144,-394.203 c 0,5.363 -4.352,9.714 -9.716,9.714 -5.36,0 -9.712,-4.351 -9.712,-9.714 0,-5.363 4.352,-9.718 9.712,-9.718 5.364,0 9.716,4.355 9.716,9.718 z" /></g><path
         id="path24"
         style="fill:#1f1a17;fill-opacity:1;fill-rule:evenodd;stroke:none"
         d="M 164.465,377.695 159.996,365.5 h -37.633 v 1.73 c 11.071,10.028 18.864,18.219 23.379,24.571 4.516,6.351 6.774,12.16 6.774,17.422 0,4.019 -1.239,7.32 -3.719,9.902 -2.477,2.586 -5.438,3.879 -8.887,3.879 -3.137,0 -5.953,-0.91 -8.445,-2.734 -2.492,-1.821 -4.336,-4.493 -5.527,-8.012 h -1.743 c 0.785,5.762 2.801,10.183 6.047,13.265 3.246,3.086 7.297,4.625 12.16,4.625 5.172,0 9.493,-1.648 12.957,-4.949 3.465,-3.301 5.2,-7.195 5.2,-11.679 0,-3.208 -0.754,-6.415 -2.258,-9.622 -2.321,-5.046 -6.082,-10.386 -11.289,-16.023 -7.809,-8.469 -12.688,-13.574 -14.629,-15.32 h 16.652 c 3.387,0 5.762,0.125 7.125,0.375 1.363,0.25 2.594,0.754 3.692,1.515 1.097,0.766 2.054,1.848 2.871,3.25 h 1.742" /><path
         id="path26"
         style="fill:#1f1a17;fill-opacity:1;fill-rule:evenodd;stroke:none"
         d="m 213.289,388.855 v -6.632 H 204.73 V 365.5 h -7.761 v 16.723 h -27.004 v 5.98 l 29.59,41.945 h 5.175 v -41.293 z m -16.32,0 v 31.438 l -22.391,-31.438 h 22.391" /><g
         transform="scale(1.00351,-0.996492)"
         id="g28"><path
           id="path30"
           style="fill:none;stroke:#000000;stroke-width:9.92131996;stroke-linecap:butt;stroke-linejoin:miter;stroke-miterlimit:10;stroke-dasharray:none;stroke-opacity:1"
           d="m 779.636,-393.435 c 0,213.817 -173.528,387.35116 -387.344,387.35116 -213.816,0 -387.3484,-173.53416 -387.3484,-387.35116 0,-213.82 173.5324,-387.354 387.3484,-387.354 213.816,0 387.344,173.534 387.344,387.354 z" /></g><path
         id="path32"
         style="fill:none;stroke:#000000;stroke-width:9.92125988;stroke-linecap:butt;stroke-linejoin:miter;stroke-miterlimit:10;stroke-dasharray:none;stroke-opacity:1"
         d="m 229.703,44.957 c 322.699,1.1368 322.699,1.1368 322.699,1.1368" /><path
         id="path34"
         style="fill:none;stroke:#000000;stroke-width:9.92000008;stroke-linecap:butt;stroke-linejoin:miter;stroke-miterlimit:10;stroke-dasharray:none;stroke-opacity:1"
         d="m 227.055,43.6055 c -0.43,695.6755 -0.43,695.6755 -0.43,695.6755" /><path
         id="path36"
         style="fill:#000000;fill-opacity:1;fill-rule:evenodd;stroke:none"
         d="m 401.641,398.371 c 0,-7.133 -5.789,-12.922 -12.922,-12.922 -7.133,0 -12.918,5.789 -12.918,12.922 0,7.129 5.785,12.918 12.918,12.918 7.133,0 12.922,-5.789 12.922,-12.918" /><g
         transform="scale(0.9,-1.1)"
         id="g38"><path
           id="path40"
           style="fill:none;stroke:#000000;stroke-width:2.17088008;stroke-linecap:butt;stroke-linejoin:miter;stroke-miterlimit:10;stroke-dasharray:none;stroke-opacity:1"
           d="m 446.267,-362.156 c 0,6.485 -6.432,11.748 -14.357,11.748 -7.926,0 -14.354,-5.263 -14.354,-11.748 0,-6.48 6.428,-11.743 14.354,-11.743 7.925,0 14.357,5.263 14.357,11.743 z" /></g><path
         id="path42"
         style="fill:none;stroke:#000000;stroke-width:9.92000008;stroke-linecap:butt;stroke-linejoin:miter;stroke-miterlimit:10;stroke-dasharray:none;stroke-opacity:1"
         d="m 550.258,43.875 c -0.434,695.68 -0.434,695.68 -0.434,695.68" /><path
         id="path44"
         style="fill:none;stroke:#000000;stroke-width:9.92125988;stroke-linecap:butt;stroke-linejoin:miter;stroke-miterlimit:10;stroke-dasharray:none;stroke-opacity:1"
         d="m 227.465,735.582 c 322.699,1.137 322.699,1.137 322.699,1.137" /><path
         id="path46"
         style="fill:none;stroke:#000000;stroke-width:9.92000008;stroke-linecap:butt;stroke-linejoin:miter;stroke-miterlimit:10;stroke-dasharray:none;stroke-opacity:1"
         d="M 232.871,48.7617 C 383.594,390.234 383.594,390.234 383.594,390.234" /></g></g></svg>