<?xml version="1.0" encoding="UTF-8" standalone="no"?>
<svg
   xmlns:dc="http://purl.org/dc/elements/1.1/"
   xmlns:cc="http://creativecommons.org/ns#"
   xmlns:rdf="http://www.w3.org/1999/02/22-rdf-syntax-ns#"
   xmlns:svg="http://www.w3.org/2000/svg"
   xmlns="http://www.w3.org/2000/svg"
   viewBox="0 0 101.33333 93.333336"
   height="93.333336"
   width="101.33333"
   xml:space="preserve"
   id="svg2"
   version="1.1"><metadata
     id="metadata8"><rdf:RDF><cc:Work
         rdf:about=""><dc:format>image/svg+xml</dc:format><dc:type
           rdf:resource="http://purl.org/dc/dcmitype/StillImage" /></cc:Work></rdf:RDF></metadata><defs
     id="defs6" /><g
     transform="matrix(1.3333333,0,0,-1.3333333,0,93.333333)"
     id="g10"><g
       transform="scale(0.1)"
       id="g12"><path
         id="path14"
         style="fill:#231f20;fill-opacity:1;fill-rule:nonzero;stroke:none"
         d="m 483.188,414.895 c 4.402,0 8.285,-0.95 11.667,-2.848 3.383,-1.902 6.051,-4.719 7.969,-8.453 1.914,-3.715 2.883,-7.582 2.883,-11.602 0,-7.078 -2.066,-14.531 -6.187,-22.328 -4.114,-7.801 -9.497,-13.754 -16.129,-17.852 -6.653,-4.101 -13.52,-6.152 -20.618,-6.152 -5.097,0 -9.386,1.137 -12.816,3.399 -3.434,2.269 -5.969,5.25 -7.617,8.953 -1.633,3.715 -2.469,7.316 -2.469,10.8 0,6.184 1.5,12.301 4.469,18.333 2.98,6.035 6.551,11.082 10.683,15.132 4.133,4.051 8.532,7.164 13.231,9.352 4.684,2.183 9.668,3.266 14.934,3.266 z m -1.665,-3.118 c -3.25,0 -6.433,-0.8 -9.535,-2.418 -3.113,-1.613 -6.199,-4.246 -9.25,-7.914 -3.066,-3.648 -5.816,-8.453 -8.265,-14.367 -2.985,-7.301 -4.485,-14.183 -4.485,-20.668 0,-4.617 1.184,-8.715 3.567,-12.281 2.367,-3.551 6.019,-5.336 10.933,-5.336 2.969,0 5.867,0.734 8.715,2.199 2.852,1.453 5.82,3.969 8.918,7.52 3.867,4.449 7.121,10.148 9.766,17.066 2.633,6.918 3.953,13.363 3.953,19.348 0,4.433 -1.184,8.351 -3.567,11.75 -2.382,3.402 -5.949,5.101 -10.75,5.101" /><path
         id="path16"
         style="fill:none;stroke:#231f20;stroke-width:7.5005002;stroke-linecap:butt;stroke-linejoin:miter;stroke-miterlimit:2.61310005;stroke-dasharray:none;stroke-opacity:1"
         d="m 422.082,659.887 c 180.938,0 327.672,-146.735 327.672,-327.668 C 749.754,151.281 603.02,4.54688 422.082,4.54688 241.148,4.54688 94.4102,151.281 94.4102,332.219 c 0,180.933 146.7378,327.668 327.6718,327.668 z" /><path
         id="path18"
         style="fill:#231f20;fill-opacity:1;fill-rule:nonzero;stroke:none"
         d="m 641.883,690.062 20.449,-51.917 11.082,38.785 c 0.922,3.183 1.367,5.648 1.367,7.414 0,1.203 -0.418,2.152 -1.261,2.836 -0.852,0.683 -2.418,1.015 -4.735,1.015 -0.383,0 -0.801,0.016 -1.219,0.051 l 0.536,1.816 h 21.281 l -0.582,-1.816 c -2.219,0.031 -3.852,-0.187 -4.934,-0.684 -1.535,-0.683 -2.668,-1.57 -3.418,-2.632 -1.031,-1.535 -2.097,-4.203 -3.168,-8 l -15.582,-54.602 h -1.746 l -22.035,55.867 -11.766,-41.265 c -0.867,-3.118 -1.32,-5.52 -1.32,-7.168 0,-1.25 0.402,-2.184 1.199,-2.817 0.805,-0.633 2.703,-1.066 5.684,-1.3 l -0.481,-1.801 h -20.8 l 0.683,1.801 c 2.598,0.07 4.352,0.3 5.231,0.683 1.336,0.602 2.32,1.348 2.968,2.301 0.95,1.433 2.004,4.199 3.184,8.301 l 13.133,46.047 c -1.266,1.953 -2.633,3.3 -4.082,4.035 -1.449,0.718 -3.703,1.133 -6.77,1.234 l 0.555,1.816 h 16.547" /><path
         id="path20"
         style="fill:#231f20;fill-opacity:1;fill-rule:nonzero;stroke:none"
         d="m 43.5938,182.676 6.1132,-53.336 38.418,53.336 h 16.168 v -1.821 c -3.52,-0.214 -5.586,-0.449 -6.1992,-0.679 -1.0821,-0.418 -2.0665,-1.27 -2.9532,-2.535 -0.8984,-1.266 -1.8633,-3.715 -2.914,-7.332 l -12.25,-41.985 c -0.7188,-2.449 -1.0704,-4.367 -1.0704,-5.765 0,-1.266 0.4336,-2.235 1.3204,-2.883 1.2343,-0.934 3.1836,-1.418 5.8515,-1.418 h 1.1797 l -0.4492,-1.801 H 58.9258 l 0.5,1.801 h 1.3164 c 2.4687,0 4.3516,0.367 5.668,1.082 0.996,0.515 1.8984,1.5 2.6992,2.953 0.8008,1.445 1.914,4.664 3.3515,9.648 L 83.3906,170.309 44.7773,116.457 H 42.8281 L 36.6094,170.309 24.793,129.34 c -1,-3.481 -1.5,-5.817 -1.5,-7.016 0,-1.219 0.4336,-2.133 1.3164,-2.765 0.8672,-0.633 3,-1.067 6.3984,-1.301 l -0.5469,-1.801 H 8.64453 l 0.53125,1.801 h 1.31642 c 3.2187,0 5.5508,0.816 6.9844,2.449 1.0312,1.168 2.1328,3.715 3.2656,7.617 l 14.418,49.367 c -1.086,1.098 -2.1016,1.852 -3.086,2.25 -0.9844,0.383 -2.7812,0.7 -5.414,0.914 l 0.4843,1.821 h 16.4493" /><path
         id="path22"
         style="fill:#231f20;fill-opacity:1;fill-rule:evenodd;stroke:none"
         d="m 423.66,337.531 c 5.402,0 9.781,-4.383 9.781,-9.781 0,-5.402 -4.379,-9.785 -9.781,-9.785 -5.402,0 -9.777,4.383 -9.777,9.785 0,5.398 4.375,9.781 9.777,9.781" /><path
         id="path24"
         style="fill:none;stroke:#231f20;stroke-width:7.5005002;stroke-linecap:butt;stroke-linejoin:miter;stroke-miterlimit:2.61310005;stroke-dasharray:none;stroke-opacity:1"
         d="m 423.66,337.531 c 5.402,0 9.781,-4.383 9.781,-9.781 0,-5.402 -4.379,-9.785 -9.781,-9.785 -5.402,0 -9.777,4.383 -9.777,9.785 0,5.398 4.375,9.781 9.777,9.781 z" /><path
         id="path26"
         style="fill:none;stroke:#231f20;stroke-width:7.5005002;stroke-linecap:butt;stroke-linejoin:miter;stroke-miterlimit:2.61310005;stroke-dasharray:none;stroke-opacity:1"
         d="m 134.312,171.934 468.75,432.511" /></g></g></svg>