<?xml version="1.0" encoding="UTF-8" standalone="no"?>
<svg
   xmlns:dc="http://purl.org/dc/elements/1.1/"
   xmlns:cc="http://creativecommons.org/ns#"
   xmlns:rdf="http://www.w3.org/1999/02/22-rdf-syntax-ns#"
   xmlns:svg="http://www.w3.org/2000/svg"
   xmlns="http://www.w3.org/2000/svg"
   viewBox="0 0 188 50.666668"
   height="50.666668"
   width="188"
   xml:space="preserve"
   id="svg2"
   version="1.1"><metadata
     id="metadata8"><rdf:RDF><cc:Work
         rdf:about=""><dc:format>image/svg+xml</dc:format><dc:type
           rdf:resource="http://purl.org/dc/dcmitype/StillImage" /></cc:Work></rdf:RDF></metadata><defs
     id="defs6" /><g
     transform="matrix(1.3333333,0,0,-1.3333333,0,50.666667)"
     id="g10"><g
       transform="scale(0.1)"
       id="g12"><path
         id="path14"
         style="fill:#231f20;fill-opacity:1;fill-rule:nonzero;stroke:none"
         d="M 62.1133,125.707 57.0781,70.6445 c -0.2656,-2.5859 -0.3828,-4.2695 -0.3828,-5.0859 0,-1.3008 0.2305,-2.3008 0.7344,-2.9844 0.6133,-0.9297 1.4492,-1.6328 2.5,-2.0976 1.0664,-0.4532 2.8476,-0.6836 5.3476,-0.6836 L 64.7461,57.9922 H 38.6797 l 0.5312,1.8008 h 1.1172 c 2.1172,0 3.8516,0.4648 5.1836,1.3632 0.9336,0.6368 1.668,1.6524 2.1992,3.086 0.3516,1.0195 0.7032,3.3828 1.0196,7.1328 l 0.7812,8.4023 H 30.5625 l -6.7344,-9.1328 c -1.5312,-2.0547 -2.4843,-3.5351 -2.8828,-4.4179 -0.3828,-0.9024 -0.582,-1.7344 -0.582,-2.5157 0,-1.0547 0.414,-1.9336 1.2656,-2.6875 0.8516,-0.7461 2.25,-1.164 4.1992,-1.2304 L 25.2969,57.9922 H 5.71094 l 0.53515,1.8008 c 2.41797,0.0976 4.53511,0.914 6.38281,2.4179 1.832,1.5157 4.5664,4.7461 8.2188,9.6993 l 39.5468,53.7968 z m -9.668,-16.25 -19.1992,-26.1172 h 16.6484 l 2.5508,26.1172" /><path
         id="path16"
         style="fill:#231f20;fill-opacity:1;fill-rule:nonzero;stroke:none"
         d="m 1409.75,322.082 -4.93,-21.434 h -1.77 l -0.18,5.383 c -0.17,1.949 -0.55,3.684 -1.14,5.215 -0.58,1.535 -1.47,2.852 -2.63,3.984 -1.17,1.118 -2.65,2 -4.45,2.637 -1.79,0.629 -3.77,0.949 -5.95,0.949 -5.84,0 -10.92,-1.601 -15.29,-4.785 -5.56,-4.066 -9.93,-9.816 -13.08,-17.234 -2.6,-6.117 -3.92,-12.317 -3.92,-18.598 0,-6.418 1.89,-11.535 5.62,-15.367 3.75,-3.82 8.62,-5.734 14.6,-5.734 4.53,0 8.57,1.015 12.08,3.031 3.54,2.019 6.82,5.117 9.86,9.32 h 2.28 c -3.57,-5.703 -7.55,-9.887 -11.9,-12.566 -4.37,-2.684 -9.6,-4.035 -15.68,-4.035 -5.41,0 -10.19,1.132 -14.36,3.398 -4.16,2.27 -7.34,5.434 -9.51,9.551 -2.19,4.101 -3.29,8.5 -3.29,13.234 0,7.219 1.95,14.25 5.82,21.082 3.87,6.832 9.18,12.215 15.93,16.117 6.77,3.899 13.57,5.852 20.46,5.852 3.21,0 6.83,-0.75 10.82,-2.285 1.76,-0.649 3.04,-0.981 3.81,-0.981 0.78,0 1.46,0.164 2.07,0.481 0.58,0.336 1.55,1.265 2.91,2.785 h 1.82" /><path
         id="path18"
         style="fill:#231f20;fill-opacity:1;fill-rule:nonzero;stroke:none"
         d="m 942.746,75.8945 0.586,1.8164 h 21.148 c 8.95,0 15.582,-1.0351 19.883,-3.082 4.317,-2.0508 7.77,-5.2851 10.332,-9.6836 2.571,-4.418 3.867,-9.1523 3.867,-14.1992 0,-4.3164 -0.75,-8.5352 -2.234,-12.6172 -1.48,-4.0859 -3.148,-7.3516 -5.031,-9.8164 -1.867,-2.4531 -4.735,-5.168 -8.617,-8.1328 -3.868,-2.9492 -8.067,-5.1524 -12.582,-6.5664 -4.536,-1.418 -10.184,-2.1172 -16.95,-2.1172 h -28.031 l 0.629,1.8008 c 2.582,0.0664 4.301,0.3008 5.188,0.6797 1.296,0.5703 2.261,1.3203 2.882,2.2539 0.93,1.3633 1.996,4.1133 3.164,8.2461 l 11.715,40.0507 c 0.918,3.1485 1.367,5.6329 1.367,7.418 0,1.2656 -0.417,2.25 -1.265,2.9336 -0.848,0.6797 -2.5,1.0156 -4.981,1.0156 z M 960.078,74.043 945.73,24.4766 c -1.082,-3.6993 -1.617,-5.9961 -1.617,-6.8828 0,-0.5157 0.168,-1.0157 0.52,-1.5157 0.332,-0.4843 0.797,-0.7969 1.383,-0.9648 0.847,-0.3008 2.214,-0.4531 4.097,-0.4531 5.117,0 9.867,0.5351 14.235,1.6015 4.382,1.0508 7.964,2.6172 10.765,4.7031 3.985,3.0313 7.149,7.1993 9.535,12.4961 2.368,5.3164 3.547,11.3477 3.547,18.1172 0,7.6485 -1.816,13.3477 -5.465,17.0664 -3.632,3.7305 -8.968,5.6016 -15.964,5.6016 -1.719,0 -3.954,-0.0703 -6.688,-0.2031" /><path
         id="path20"
         style="fill:#231f20;fill-opacity:1;fill-rule:nonzero;stroke:none"
         d="m 457.055,369.742 0.683,1.817 h 23.637 c 3.965,0 7.496,-0.618 10.613,-1.868 3.102,-1.234 5.434,-2.949 6.985,-5.164 1.547,-2.218 2.316,-4.566 2.316,-7.035 0,-3.816 -1.383,-7.25 -4.133,-10.332 -2.754,-3.066 -7.234,-5.351 -13.449,-6.801 4.016,-1.5 6.949,-3.484 8.848,-5.968 1.883,-2.465 2.832,-5.18 2.832,-8.149 0,-3.281 -0.848,-6.43 -2.547,-9.433 -1.684,-2.981 -3.867,-5.317 -6.516,-6.965 -2.652,-1.668 -5.851,-2.887 -9.601,-3.668 -2.668,-0.551 -6.836,-0.832 -12.5,-0.832 h -24.266 l 0.633,1.801 c 2.551,0.066 4.265,0.316 5.183,0.734 1.297,0.566 2.231,1.297 2.786,2.199 0.781,1.231 1.812,4.063 3.113,8.496 l 11.867,40.086 c 1.016,3.383 1.516,5.766 1.516,7.133 0,1.199 -0.45,2.148 -1.332,2.848 -0.899,0.703 -2.602,1.05 -5.118,1.05 -0.55,0 -1.066,0.016 -1.55,0.051 z m 9.902,-27.484 c 2.113,-0.067 3.648,-0.098 4.598,-0.098 6.769,0 11.8,1.469 15.117,4.414 3.297,2.953 4.953,6.633 4.953,11.067 0,3.351 -1.02,5.968 -3.039,7.836 -2.016,1.863 -5.231,2.8 -9.664,2.8 -1.164,0 -2.664,-0.183 -4.481,-0.586 z m -9.617,-32.613 c 3.515,-0.469 6.265,-0.684 8.25,-0.684 5.082,0 9.582,1.531 13.5,4.582 3.933,3.066 5.883,7.219 5.883,12.449 0,4 -1.203,7.133 -3.633,9.383 -2.418,2.25 -6.332,3.367 -11.735,3.367 -1.05,0 -2.316,-0.051 -3.816,-0.148 l -8.449,-28.949" /><path
         id="path22"
         style="fill:none;stroke:#231f20;stroke-width:10.00059986;stroke-linecap:butt;stroke-linejoin:miter;stroke-miterlimit:2.61310005;stroke-dasharray:none;stroke-opacity:1"
         d="M 101.148,92.9258 480.691,277.812 h 840.419" /><path
         id="path24"
         style="fill:none;stroke:#231f20;stroke-width:6.49980021;stroke-linecap:butt;stroke-linejoin:miter;stroke-miterlimit:2.61310005;stroke-dasharray:none;stroke-opacity:1"
         d="m 264.863,93.582 c -0.164,28.461 -6.761,51.039 -18.109,67.98" /><path
         id="path26"
         style="fill:#231f20;fill-opacity:1;fill-rule:nonzero;stroke:none"
         d="m 290.941,256.449 c -5.23,4.301 -8.613,7.75 -10.129,10.352 -1.503,2.601 -2.269,5.301 -2.269,8.101 0,4.301 1.668,8 4.984,11.118 3.317,3.097 7.735,4.664 13.235,4.664 5.332,0 9.633,-1.45 12.879,-4.352 3.269,-2.898 4.886,-6.199 4.886,-9.914 0,-2.465 -0.867,-5 -2.632,-7.566 -1.75,-2.567 -5.418,-5.602 -10.985,-9.086 5.735,-4.414 9.516,-7.899 11.383,-10.446 2.469,-3.316 3.703,-6.82 3.703,-10.5 0,-4.652 -1.769,-8.636 -5.32,-11.933 -3.547,-3.301 -8.199,-4.953 -13.965,-4.953 -6.285,0 -11.184,1.968 -14.699,5.902 -2.801,3.164 -4.203,6.617 -4.203,10.348 0,2.933 0.984,5.836 2.968,8.718 1.969,2.883 5.348,6.067 10.164,9.547 z m 7.668,5.219 c 3.918,3.516 6.383,6.301 7.434,8.332 1.035,2.035 1.551,4.336 1.551,6.918 0,3.418 -0.949,6.086 -2.867,8.02 -1.934,1.945 -4.551,2.914 -7.868,2.914 -3.316,0 -6.015,-0.969 -8.101,-2.883 -2.082,-1.918 -3.129,-4.168 -3.129,-6.735 0,-1.699 0.433,-3.382 1.297,-5.082 0.851,-1.699 2.082,-3.3 3.683,-4.832 z m -5.367,-7.066 c -2.699,-2.286 -4.699,-4.766 -6,-7.45 -1.297,-2.683 -1.949,-5.601 -1.949,-8.718 0,-4.2 1.133,-7.567 3.434,-10.082 2.3,-2.516 5.218,-3.786 8.765,-3.786 3.52,0 6.332,0.985 8.449,2.985 2.118,1.984 3.168,4.383 3.168,7.219 0,2.347 -0.613,4.449 -1.847,6.296 -2.321,3.45 -6.985,7.969 -14.02,13.536" /><path
         id="path28"
         style="fill:none;stroke:#231f20;stroke-width:10.00059986;stroke-linecap:butt;stroke-linejoin:miter;stroke-miterlimit:2.61310005;stroke-dasharray:none;stroke-opacity:1"
         d="M 480.691,271.922 V 92.9258" /><path
         id="path30"
         style="fill:none;stroke:#231f20;stroke-width:5.00029993;stroke-linecap:butt;stroke-linejoin:miter;stroke-miterlimit:2.61310005;stroke-dasharray:none;stroke-opacity:1"
         d="m 480.691,92.9258 h 70.4922 V 161.125 H 480.691 Z" /><path
         id="path32"
         style="fill:none;stroke:#231f20;stroke-width:10.00059986;stroke-linecap:butt;stroke-linejoin:miter;stroke-miterlimit:2.61310005;stroke-dasharray:none;stroke-opacity:1"
         d="M 1321.11,277.816 941.566,92.9258 H 101.148" /><path
         id="path34"
         style="fill:#231f20;fill-opacity:1;fill-rule:nonzero;stroke:none"
         d="m 463.836,38.6406 h 30.547 l 4.851,16.3672 c 0.903,3.1797 1.368,5.6484 1.368,7.418 0,0.8476 -0.215,1.5625 -0.618,2.164 -0.398,0.6016 -1.035,1.0508 -1.882,1.3477 -0.848,0.2852 -2.5,0.4336 -4.985,0.4336 l 0.5,1.8203 h 26.649 l -0.578,-1.8203 c -2.254,0.0351 -3.918,-0.1836 -5.036,-0.6797 -1.55,-0.6836 -2.714,-1.5703 -3.468,-2.6367 -1.067,-1.5313 -2.164,-4.2149 -3.266,-8.0469 l -11.664,-40 c -0.984,-3.3164 -1.469,-5.69921 -1.469,-7.11718 0,-1.25 0.434,-2.18359 1.301,-2.8164 0.848,-0.63281 2.914,-1.06641 6.168,-1.30078 l -0.535,-1.80078 h -25.781 l 0.683,1.80078 c 2.531,0.0664 4.231,0.30078 5.082,0.68359 1.301,0.60156 2.25,1.34766 2.832,2.25 0.832,1.26563 1.883,4.03517 3.117,8.30077 l 5.965,20.2656 h -30.715 l -6.015,-20.2656 c -0.934,-3.2539 -1.403,-5.6328 -1.403,-7.11718 0,-1.25 0.418,-2.18359 1.27,-2.8164 0.832,-0.63281 2.898,-1.06641 6.148,-1.30078 l -0.398,-1.80078 h -25.969 l 0.633,1.80078 c 2.566,0.0664 4.285,0.30078 5.133,0.68359 1.301,0.60156 2.25,1.34766 2.867,2.25 0.852,1.33203 1.902,4.09767 3.133,8.30077 l 11.715,40 c 0.953,3.25 1.418,5.7149 1.418,7.418 0,0.8476 -0.196,1.5625 -0.614,2.164 -0.398,0.6016 -1.035,1.0508 -1.902,1.3477 -0.863,0.2852 -2.547,0.4336 -5.047,0.4336 l 0.582,1.8203 h 26.113 l -0.531,-1.8203 c -2.183,0.0351 -3.785,-0.1836 -4.832,-0.6797 -1.535,-0.6523 -2.652,-1.5195 -3.367,-2.5859 -0.984,-1.4336 -2.051,-4.1328 -3.219,-8.0977 l -4.781,-16.3672" /></g></g></svg>