<?xml version="1.0" encoding="UTF-8" standalone="no"?>
<svg
   xmlns:dc="http://purl.org/dc/elements/1.1/"
   xmlns:cc="http://creativecommons.org/ns#"
   xmlns:rdf="http://www.w3.org/1999/02/22-rdf-syntax-ns#"
   xmlns:svg="http://www.w3.org/2000/svg"
   xmlns="http://www.w3.org/2000/svg"
   viewBox="0 0 133.33333 85.333336"
   height="85.333336"
   width="133.33333"
   xml:space="preserve"
   id="svg2"
   version="1.1"><metadata
     id="metadata8"><rdf:RDF><cc:Work
         rdf:about=""><dc:format>image/svg+xml</dc:format><dc:type
           rdf:resource="http://purl.org/dc/dcmitype/StillImage" /></cc:Work></rdf:RDF></metadata><defs
     id="defs6" /><g
     transform="matrix(1.3333333,0,0,-1.3333333,0,85.333333)"
     id="g10"><g
       transform="scale(0.1)"
       id="g12"><path
         id="path14"
         style="fill:none;stroke:#231f20;stroke-width:7.5005002;stroke-linecap:butt;stroke-linejoin:miter;stroke-miterlimit:2.61310005;stroke-dasharray:none;stroke-opacity:1"
         d="m 97.293,71.8633 h 796.418 v 453.715 H 97.293 Z" /><path
         id="path16"
         style="fill:#231f20;fill-opacity:1;fill-rule:nonzero;stroke:none"
         d="M 61.8359,85.4961 56.8047,30.4297 c -0.2695,-2.5859 -0.3828,-4.2695 -0.3828,-5.0859 0,-1.2969 0.2304,-2.2969 0.7343,-2.9805 0.6133,-0.9336 1.4454,-1.6328 2.5,-2.1016 1.0626,-0.4492 2.8477,-0.6836 5.3477,-0.6836 L 64.4688,17.7812 H 38.4023 l 0.5352,1.7969 h 1.1172 c 2.1172,0 3.8515,0.4688 5.1836,1.3672 0.9336,0.6367 1.6679,1.6485 2.1992,3.0859 0.3477,1.0157 0.6992,3.379 1.0156,7.129 l 0.7852,8.4023 H 30.2891 l -6.7344,-9.1328 c -1.5313,-2.0508 -2.4844,-3.5352 -2.8828,-4.4141 -0.3828,-0.9023 -0.586,-1.7383 -0.586,-2.5195 0,-1.0508 0.418,-1.9336 1.2657,-2.6836 0.8515,-0.75 2.2539,-1.1641 4.2031,-1.2344 L 25.0195,17.7812 H 5.4375 l 0.53125,1.7969 c 2.41797,0.1016 4.53515,0.918 6.38285,2.418 1.8359,1.5195 4.5703,4.75 8.2187,9.7031 l 39.5508,53.7969 z m -9.664,-16.25 -19.2031,-26.1172 h 16.6523 l 2.5508,26.1172" /><path
         id="path18"
         style="fill:#231f20;fill-opacity:1;fill-rule:nonzero;stroke:none"
         d="m 517.582,636.352 -7.812,-26.231 h 8.699 c 3.898,0 6.832,0.613 8.765,1.817 1.934,1.199 3.934,3.765 5.981,7.714 h 1.851 l -6.882,-24.117 h -1.95 c 0.481,1.953 0.731,3.551 0.731,4.836 0,1.984 -0.664,3.516 -1.981,4.598 -1.316,1.101 -3.785,1.652 -7.402,1.652 h -8.781 l -5.77,-19.984 c -1.031,-3.551 -1.562,-5.899 -1.562,-7.067 0,-1.218 0.449,-2.132 1.347,-2.785 0.899,-0.664 3.086,-1.097 6.567,-1.332 l -0.582,-1.801 h -26.164 l 0.629,1.801 c 2.535,0.07 4.234,0.301 5.066,0.684 1.301,0.566 2.27,1.316 2.887,2.25 0.883,1.332 1.914,4.082 3.133,8.25 l 11.668,39.898 c 0.929,3.219 1.414,5.754 1.414,7.57 0,0.848 -0.215,1.563 -0.633,2.165 -0.434,0.601 -1.051,1.05 -1.883,1.351 -0.832,0.281 -2.484,0.434 -4.953,0.434 l 0.586,1.816 h 51.363 l -4.879,-16.75 h -1.867 c 0.363,2.016 0.547,3.664 0.547,4.981 0,2.152 -0.598,3.851 -1.781,5.101 -1.2,1.25 -2.715,2.133 -4.567,2.649 -1.301,0.336 -4.219,0.5 -8.75,0.5 h -13.035" /><path
         id="path20"
         style="fill:#231f20;fill-opacity:1;fill-rule:nonzero;stroke:none"
         d="m 905.355,70.1602 0.583,1.8164 h 21.148 c 8.953,0 15.586,-1.0352 19.887,-3.0821 4.316,-2.0507 7.765,-5.2851 10.332,-9.6836 2.566,-4.4179 3.867,-9.1523 3.867,-14.1992 0,-4.3164 -0.75,-8.5351 -2.234,-12.6172 -1.485,-4.0859 -3.149,-7.3515 -5.032,-9.8164 -1.867,-2.4531 -4.734,-5.1679 -8.617,-8.1367 C 941.422,11.4961 937.223,9.29297 932.707,7.87891 928.172,6.46094 922.52,5.76172 915.754,5.76172 h -28.031 l 0.632,1.79687 c 2.583,0.07032 4.301,0.30079 5.184,0.6836 1.301,0.5664 2.266,1.32031 2.883,2.25391 0.933,1.3633 2,4.1133 3.168,8.2461 l 11.715,40.0508 c 0.918,3.1484 1.367,5.6328 1.367,7.4179 0,1.2657 -0.418,2.25 -1.266,2.9297 -0.851,0.6836 -2.5,1.0196 -4.984,1.0196 z M 922.688,68.3086 908.34,18.7422 c -1.082,-3.6992 -1.617,-5.9961 -1.617,-6.8828 0,-0.5156 0.164,-1.0156 0.515,-1.5156 0.332,-0.48442 0.801,-0.80083 1.383,-0.96489 0.852,-0.30079 2.219,-0.45313 4.102,-0.45313 5.117,0 9.867,0.53516 14.23,1.60152 4.387,1.0508 7.969,2.6172 10.77,4.6993 3.984,3.0351 7.148,7.2031 9.531,12.5 2.367,5.3164 3.551,11.3476 3.551,18.1172 0,7.6484 -1.817,13.3476 -5.465,17.0664 -3.633,3.7304 -8.969,5.6015 -15.969,5.6015 -1.715,0 -3.949,-0.0703 -6.683,-0.2031" /><path
         id="path22"
         style="fill:#231f20;fill-opacity:1;fill-rule:nonzero;stroke:none"
         d="m 991.117,596.297 -4.929,-21.43 h -1.77 l -0.184,5.383 c -0.164,1.949 -0.546,3.68 -1.132,5.215 -0.582,1.531 -1.469,2.851 -2.633,3.984 -1.168,1.113 -2.649,2 -4.449,2.633 -1.786,0.633 -3.77,0.949 -5.95,0.949 -5.836,0 -10.918,-1.601 -15.285,-4.785 -5.566,-4.062 -9.933,-9.816 -13.082,-17.23 -2.598,-6.118 -3.918,-12.317 -3.918,-18.602 0,-6.418 1.883,-11.531 5.617,-15.363 3.75,-3.821 8.618,-5.735 14.602,-5.735 4.531,0 8.562,1.016 12.082,3.032 3.531,2.019 6.816,5.117 9.852,9.316 h 2.281 c -3.567,-5.699 -7.551,-9.883 -11.899,-12.566 -4.367,-2.684 -9.601,-4.032 -15.687,-4.032 -5.399,0 -10.18,1.133 -14.348,3.399 -4.168,2.265 -7.347,5.433 -9.515,9.551 -2.184,4.101 -3.286,8.5 -3.286,13.234 0,7.215 1.95,14.25 5.817,21.082 3.867,6.832 9.183,12.215 15.933,16.117 6.766,3.899 13.567,5.848 20.454,5.848 3.214,0 6.832,-0.746 10.828,-2.281 1.754,-0.653 3.039,-0.985 3.804,-0.985 0.782,0 1.465,0.164 2.067,0.485 0.582,0.332 1.547,1.265 2.914,2.781 h 1.816" /><path
         id="path24"
         style="fill:#231f20;fill-opacity:1;fill-rule:nonzero;stroke:none"
         d="m 34.1367,565.938 0.6797,1.82 h 23.6367 c 3.9649,0 7.4961,-0.621 10.6172,-1.871 3.0977,-1.231 5.4336,-2.946 6.9844,-5.164 1.5469,-2.215 2.3125,-4.567 2.3125,-7.035 0,-3.817 -1.3828,-7.247 -4.1328,-10.333 -2.75,-3.066 -7.2305,-5.347 -13.4492,-6.8 4.0156,-1.5 6.9492,-3.485 8.8515,-5.965 1.8789,-2.469 2.8321,-5.184 2.8321,-8.149 0,-3.285 -0.8477,-6.433 -2.5508,-9.433 -1.6836,-2.985 -3.8672,-5.317 -6.5157,-6.965 -2.6523,-1.668 -5.8515,-2.887 -9.6015,-3.668 -2.668,-0.551 -6.832,-0.836 -12.5,-0.836 H 17.0352 l 0.6328,1.801 c 2.5508,0.066 4.2656,0.316 5.1836,0.734 1.3007,0.567 2.2304,1.297 2.7851,2.199 0.7813,1.235 1.8125,4.067 3.1133,8.5 l 11.8672,40.082 c 1.0195,3.387 1.5156,5.766 1.5156,7.137 0,1.199 -0.4453,2.149 -1.332,2.848 -0.8985,0.699 -2.5977,1.047 -5.1172,1.047 -0.5469,0 -1.0625,0.019 -1.5469,0.051 z m 9.8985,-27.485 c 2.1171,-0.062 3.6484,-0.098 4.5976,-0.098 6.7695,0 11.8008,1.469 15.1172,4.418 3.3008,2.95 4.9531,6.633 4.9531,11.067 0,3.348 -1.0195,5.965 -3.0351,7.832 -2.0157,1.867 -5.2344,2.801 -9.668,2.801 -1.1641,0 -2.6641,-0.184 -4.4805,-0.582 z M 34.418,505.84 c 3.5195,-0.469 6.2656,-0.684 8.25,-0.684 5.0859,0 9.582,1.535 13.5,4.586 3.9336,3.067 5.8867,7.215 5.8867,12.449 0,4 -1.2031,7.129 -3.6367,9.383 -2.418,2.25 -6.3321,3.367 -11.7305,3.367 -1.0547,0 -2.3203,-0.05 -3.8203,-0.152 L 34.418,505.84" /><path
         id="path26"
         style="fill:none;stroke:#231f20;stroke-width:7.5005002;stroke-linecap:butt;stroke-linejoin:miter;stroke-miterlimit:2.61310005;stroke-dasharray:none;stroke-opacity:1"
         d="M 94.4531,77.875 490.184,526.324" /><path
         id="path28"
         style="fill:none;stroke:#231f20;stroke-width:7.5005002;stroke-linecap:butt;stroke-linejoin:miter;stroke-miterlimit:2.61310005;stroke-dasharray:none;stroke-opacity:1"
         d="M 488.816,523.305 896.594,70.3359" /></g></g></svg>