<?xml version="1.0" encoding="UTF-8" standalone="no"?>
<svg
   xmlns:dc="http://purl.org/dc/elements/1.1/"
   xmlns:cc="http://creativecommons.org/ns#"
   xmlns:rdf="http://www.w3.org/1999/02/22-rdf-syntax-ns#"
   xmlns:svg="http://www.w3.org/2000/svg"
   xmlns="http://www.w3.org/2000/svg"
   viewBox="0 0 134.66667 89.333336"
   height="89.333336"
   width="134.66667"
   xml:space="preserve"
   id="svg2"
   version="1.1"><metadata
     id="metadata8"><rdf:RDF><cc:Work
         rdf:about=""><dc:format>image/svg+xml</dc:format><dc:type
           rdf:resource="http://purl.org/dc/dcmitype/StillImage" /></cc:Work></rdf:RDF></metadata><defs
     id="defs6" /><g
     transform="matrix(1.3333333,0,0,-1.3333333,0,89.333333)"
     id="g10"><g
       transform="scale(0.1)"
       id="g12"><path
         id="path14"
         style="fill:none;stroke:#231f20;stroke-width:7.5005002;stroke-linecap:butt;stroke-linejoin:miter;stroke-miterlimit:2.61310005;stroke-dasharray:none;stroke-opacity:1"
         d="m 87.3008,141.082 h 796.41 v 453.715 h -796.41 z" /><path
         id="path16"
         style="fill:#231f20;fill-opacity:1;fill-rule:nonzero;stroke:none"
         d="m 361.098,92.0391 -5.036,-55.0664 c -0.265,-2.5821 -0.382,-4.2696 -0.382,-5.086 0,-1.2969 0.234,-2.2969 0.734,-2.9805 0.617,-0.9335 1.449,-1.6328 2.5,-2.1015 1.066,-0.4492 2.848,-0.6797 5.348,-0.6797 l -0.532,-1.8008 h -26.066 l 0.531,1.8008 h 1.117 c 2.118,0 3.852,0.4648 5.184,1.3633 0.934,0.6367 1.668,1.6523 2.199,3.0859 0.352,1.0156 0.703,3.3828 1.02,7.1328 l 0.781,8.3985 h -18.949 l -6.735,-9.1328 c -1.531,-2.0508 -2.484,-3.5352 -2.882,-4.4141 -0.383,-0.9024 -0.582,-1.7344 -0.582,-2.5195 0,-1.0508 0.414,-1.9336 1.265,-2.6836 0.852,-0.7461 2.25,-1.1641 4.199,-1.2305 l -0.531,-1.8008 h -19.586 l 0.535,1.8008 c 2.418,0.0977 4.536,0.9141 6.383,2.4141 1.836,1.5195 4.567,4.75 8.219,9.7031 l 39.547,53.7969 z m -9.668,-16.25 -19.2,-26.1172 h 16.649 l 2.551,26.1172" /><path
         id="path18"
         style="fill:#231f20;fill-opacity:1;fill-rule:nonzero;stroke:none"
         d="m 921.457,69.4531 20.449,-51.914 11.086,38.7812 c 0.918,3.1836 1.363,5.6524 1.363,7.418 0,1.1992 -0.414,2.1523 -1.261,2.832 -0.852,0.6836 -2.418,1.0156 -4.735,1.0156 -0.382,0 -0.8,0.0196 -1.214,0.0508 l 0.531,1.8164 h 21.281 l -0.582,-1.8164 c -2.219,0.0352 -3.852,-0.1836 -4.934,-0.6836 -1.531,-0.6797 -2.668,-1.5664 -3.414,-2.6328 -1.035,-1.5312 -2.101,-4.1992 -3.172,-8 L 941.273,1.72266 h -1.746 L 917.492,57.5898 905.727,16.3242 c -0.868,-3.1211 -1.317,-5.5195 -1.317,-7.16795 0,-1.25391 0.399,-2.18359 1.199,-2.81641 0.801,-0.63672 2.7,-1.07031 5.68,-1.30078 l -0.48,-1.80078 h -20.801 l 0.683,1.80078 c 2.602,0.06641 4.352,0.30078 5.235,0.6836 1.332,0.60156 2.316,1.34765 2.965,2.29687 0.953,1.43359 2.004,4.20317 3.183,8.30467 l 13.133,46.0469 c -1.266,1.9492 -2.633,3.3008 -4.082,4.0351 -1.449,0.7149 -3.699,1.1329 -6.766,1.2305 l 0.551,1.8164 h 16.547" /><path
         id="path20"
         style="fill:#231f20;fill-opacity:1;fill-rule:nonzero;stroke:none"
         d="m 942.434,664.797 6.117,-53.332 38.418,53.332 h 16.171 v -1.817 c -3.523,-0.214 -5.589,-0.449 -6.202,-0.683 -1.086,-0.414 -2.067,-1.266 -2.954,-2.531 -0.898,-1.27 -1.863,-3.719 -2.918,-7.336 L 978.82,610.449 c -0.718,-2.449 -1.07,-4.367 -1.07,-5.765 0,-1.27 0.434,-2.235 1.32,-2.883 1.231,-0.934 3.184,-1.418 5.848,-1.418 h 1.184 l -0.45,-1.801 H 957.77 l 0.5,1.801 h 1.316 c 2.469,0 4.348,0.363 5.668,1.082 0.996,0.515 1.898,1.5 2.699,2.949 0.797,1.449 1.914,4.668 3.348,9.652 l 10.933,38.364 -38.613,-53.848 h -1.953 l -6.215,53.848 -11.816,-40.965 c -1,-3.485 -1.5,-5.817 -1.5,-7.016 0,-1.219 0.433,-2.133 1.316,-2.765 0.867,-0.637 3,-1.071 6.399,-1.301 l -0.551,-1.801 h -21.813 l 0.532,1.801 h 1.316 c 3.215,0 5.551,0.816 6.984,2.449 1.032,1.168 2.133,3.715 3.266,7.617 l 14.418,49.367 c -1.086,1.098 -2.102,1.852 -3.086,2.25 -0.984,0.383 -2.785,0.7 -5.414,0.914 l 0.48,1.817 h 16.45" /><path
         id="path22"
         style="fill:#231f20;fill-opacity:1;fill-rule:nonzero;stroke:none"
         d="M 41.2656,609.188 57.668,583.84 c 2.9336,-4.481 5.3672,-7.367 7.2812,-8.617 1.9219,-1.25 4.4531,-1.883 7.5703,-1.883 l -0.5351,-1.801 H 43.7539 l 0.4453,1.801 c 2.2539,0.234 3.836,0.765 4.7539,1.617 0.9297,0.848 1.3985,1.797 1.3985,2.883 0,0.98 -0.168,1.918 -0.4844,2.832 -0.2656,0.648 -1.2149,2.25 -2.832,4.785 l -13.4336,21.051 -6.5,-21.934 C 26.0352,581.055 25.5,578.707 25.5,577.488 c 0,-1.23 0.4531,-2.164 1.3672,-2.816 0.9023,-0.664 3.1523,-1.098 6.7344,-1.332 l -0.7852,-1.801 H 6.65234 l 0.63282,1.801 c 2.53515,0.066 4.25004,0.301 5.13284,0.683 1.3008,0.602 2.25,1.348 2.8672,2.25 0.8515,1.332 1.8984,4.098 3.1328,8.301 l 11.6679,40 c 0.8829,3.047 1.3164,5.516 1.3164,7.367 0,1.301 -0.4179,2.297 -1.2343,2.981 -0.8321,0.683 -2.4492,1.016 -4.8672,1.016 h -0.9805 l 0.5977,1.82 h 24.8515 l -0.5,-1.82 c -2.0507,0.035 -3.5703,-0.184 -4.582,-0.68 -1.4023,-0.684 -2.418,-1.57 -3.0703,-2.637 -0.6641,-1.062 -1.6133,-3.766 -2.8828,-8.047 l -5.1328,-17 23.5351,17.735 c 3.1289,2.332 5.1797,4.195 6.1485,5.566 0.582,0.832 0.8828,1.598 0.8828,2.281 0,0.582 -0.3008,1.168 -0.8985,1.719 -0.6015,0.547 -1.5156,0.898 -2.7656,1.063 L 61,637.758 h 21.1836 l -0.4336,-1.82 c -2.3164,-0.383 -4.2656,-0.899 -5.832,-1.532 -1.5821,-0.633 -3.1992,-1.5 -4.8672,-2.617 -0.4805,-0.316 -3.6641,-2.73 -9.5156,-7.215 L 41.2656,609.188" /><path
         id="path24"
         style="fill:none;stroke:#231f20;stroke-width:7.5005002;stroke-linecap:butt;stroke-linejoin:miter;stroke-miterlimit:2.61310005;stroke-dasharray:none;stroke-opacity:1"
         d="M 84.4531,588.785 334.266,141.465" /><path
         id="path26"
         style="fill:none;stroke:#231f20;stroke-width:7.5005002;stroke-linecap:butt;stroke-linejoin:miter;stroke-miterlimit:2.61310005;stroke-dasharray:none;stroke-opacity:1"
         d="M 334.781,141.098 886.594,596.324" /><path
         id="path28"
         style="fill:#231f20;fill-opacity:1;fill-rule:nonzero;stroke:none"
         d="m 31.3984,117.609 h 26.0664 c 6.8321,0 11.9493,-1.48 15.3321,-4.414 3.3828,-2.953 5.0859,-6.55 5.0859,-10.765 0,-3.3675 -1.0859,-6.6214 -3.2344,-9.7698 -2.1523,-3.168 -5.3359,-5.7344 -9.5664,-7.6993 -4.2382,-1.9648 -8.8047,-2.9492 -13.7187,-2.9492 -3.0664,0 -6.9492,0.5469 -11.668,1.6641 L 34.4141,65.6094 c -1.2344,-4.3008 -1.8477,-7.1328 -1.8477,-8.4961 0,-1.0547 0.4336,-1.9024 1.3125,-2.586 0.8867,-0.7031 2.9844,-1.1328 6.3008,-1.332 l -0.4844,-1.8008 h -26.332 l 0.5508,1.8008 c 3.4492,0 5.8515,0.6016 7.1992,1.7813 1.3515,1.1992 2.8008,4.4687 4.3672,9.8515 l 10.9336,37.6839 c 1.3007,4.531 1.9492,7.562 1.9492,9.082 0,1.148 -0.4492,2.082 -1.3828,2.832 -0.9336,0.75 -2.9688,1.199 -6.1328,1.367 z m 9.1133,-30.8629 c 3.6875,-0.9531 6.6524,-1.418 8.9024,-1.418 3.5351,0 6.7656,0.7344 9.6836,2.1992 2.914,1.4688 5.1992,3.668 6.832,6.586 1.6523,2.9297 2.4687,5.9807 2.4687,9.1327 0,3.297 -1.0039,5.899 -3.0156,7.813 -2.0351,1.918 -5.0859,2.882 -9.1875,2.882 -2.2148,0 -4.8984,-0.281 -8.0664,-0.832 L 40.5117,86.7461" /><path
         id="path30"
         style="fill:#231f20;fill-opacity:1;fill-rule:evenodd;stroke:none"
         d="m 334.359,145.637 c 2.508,0 4.539,-2.032 4.539,-4.535 0,-2.504 -2.031,-4.536 -4.539,-4.536 -2.507,0 -4.543,2.032 -4.543,4.536 0,2.503 2.036,4.535 4.543,4.535" /><path
         id="path32"
         style="fill:none;stroke:#231f20;stroke-width:7.5005002;stroke-linecap:butt;stroke-linejoin:miter;stroke-miterlimit:2.61310005;stroke-dasharray:none;stroke-opacity:1"
         d="m 334.359,145.637 c 2.508,0 4.539,-2.032 4.539,-4.535 0,-2.504 -2.031,-4.536 -4.539,-4.536 -2.507,0 -4.543,2.032 -4.543,4.536 0,2.503 2.036,4.535 4.543,4.535 z" /></g></g></svg>