<?xml version="1.0" encoding="UTF-8" standalone="no"?>
<svg
   xmlns:dc="http://purl.org/dc/elements/1.1/"
   xmlns:cc="http://creativecommons.org/ns#"
   xmlns:rdf="http://www.w3.org/1999/02/22-rdf-syntax-ns#"
   xmlns:svg="http://www.w3.org/2000/svg"
   xmlns="http://www.w3.org/2000/svg"
   viewBox="0 0 198.52 99.466667"
   height="99.466667"
   width="198.52"
   xml:space="preserve"
   id="svg2"
   version="1.1"><metadata
     id="metadata8"><rdf:RDF><cc:Work
         rdf:about=""><dc:format>image/svg+xml</dc:format><dc:type
           rdf:resource="http://purl.org/dc/dcmitype/StillImage" /></cc:Work></rdf:RDF></metadata><defs
     id="defs6" /><g
     transform="matrix(1.3333333,0,0,-1.3333333,0,99.466667)"
     id="g10"><g
       transform="scale(0.1)"
       id="g12"><path
         id="path14"
         style="fill:none;stroke:#000000;stroke-width:10.00059986;stroke-linecap:butt;stroke-linejoin:miter;stroke-miterlimit:10;stroke-dasharray:none;stroke-opacity:1"
         d="m 78.3398,81.7539 1321.5002,-1.5" /><path
         id="path16"
         style="fill:none;stroke:#000000;stroke-width:10.00059986;stroke-linecap:butt;stroke-linejoin:miter;stroke-miterlimit:10;stroke-dasharray:none;stroke-opacity:1"
         d="M 1117.84,645.754 366.336,642.805" /><path
         id="path18"
         style="fill:none;stroke:#000000;stroke-width:10.00059986;stroke-linecap:butt;stroke-linejoin:miter;stroke-miterlimit:10;stroke-dasharray:none;stroke-opacity:1"
         d="M 366.336,642.805 78.3398,81.7539" /><path
         id="path20"
         style="fill:none;stroke:#000000;stroke-width:10.00059986;stroke-linecap:butt;stroke-linejoin:miter;stroke-miterlimit:10;stroke-dasharray:none;stroke-opacity:1"
         d="m 1117.84,645.754 282,-565.5001" /><path
         id="path22"
         style="fill:none;stroke:#000000;stroke-width:10.00059986;stroke-linecap:butt;stroke-linejoin:miter;stroke-miterlimit:10;stroke-dasharray:none;stroke-opacity:1"
         d="M 223.016,355.969 1258.77,354.754" /><path
         id="path24"
         style="fill:none;stroke:#000000;stroke-width:10.00059986;stroke-linecap:butt;stroke-linejoin:miter;stroke-miterlimit:10;stroke-dasharray:none;stroke-opacity:1"
         d="m 366.336,642.805 -3,-561.3753" /><path
         id="path26"
         style="fill:#000000;fill-opacity:1;fill-rule:nonzero;stroke:none"
         d="m 54.2266,75.4102 -4.836,-52.7891 c -0.25,-2.4649 -0.375,-4.0899 -0.375,-4.8672 0,-1.25 0.2344,-2.1992 0.7032,-2.8555 0.5976,-0.9062 1.4023,-1.5742 2.4179,-2.0117 1.0195,-0.4375 2.7305,-0.6562 5.1406,-0.6562 L 56.7617,10.5 H 31.6914 l 0.5156,1.7305 h 1.0821 c 2.0312,0 3.6914,0.4375 4.9765,1.3086 0.9063,0.5937 1.6094,1.5781 2.1133,2.9492 0.3438,0.9687 0.6719,3.2461 0.9844,6.832 l 0.75,8.0508 H 23.8984 l -6.4804,-8.75 c -1.4688,-1.9688 -2.3946,-3.3789 -2.7696,-4.2383 -0.375,-0.8555 -0.5625,-1.6601 -0.5625,-2.4101 0,-0.9961 0.4063,-1.8555 1.2188,-2.5743 0.8164,-0.7148 2.1601,-1.1054 4.0391,-1.1679 L 18.8281,10.5 H 0 l 0.515625,1.7305 c 2.316405,0.0937 4.359375,0.8672 6.128905,2.3164 1.76563,1.4492 4.40627,4.5469 7.91017,9.289 L 52.5859,75.4102 Z M 44.9297,59.8242 26.4805,34.7891 h 16.0078 l 2.4414,25.0351" /><path
         id="path28"
         style="fill:#000000;fill-opacity:1;fill-rule:nonzero;stroke:none"
         d="m 356.422,744.23 0.656,1.731 h 22.727 c 3.816,0 7.222,-0.594 10.211,-1.777 2.988,-1.188 5.226,-2.84 6.711,-4.961 1.488,-2.125 2.23,-4.371 2.23,-6.743 0,-3.648 -1.32,-6.949 -3.965,-9.898 -2.644,-2.945 -6.957,-5.121 -12.937,-6.527 3.851,-1.434 6.683,-3.34 8.5,-5.711 1.816,-2.371 2.722,-4.977 2.722,-7.813 0,-3.152 -0.812,-6.164 -2.441,-9.035 -1.629,-2.867 -3.715,-5.098 -6.27,-6.691 -2.55,-1.59 -5.625,-2.762 -9.222,-3.508 -2.567,-0.531 -6.574,-0.797 -12.02,-0.797 h -23.336 l 0.614,1.73 c 2.437,0.063 4.097,0.297 4.976,0.704 1.25,0.531 2.141,1.23 2.676,2.105 0.75,1.188 1.75,3.902 3.004,8.145 l 11.41,38.421 c 0.969,3.247 1.453,5.524 1.453,6.833 0,1.156 -0.43,2.066 -1.289,2.738 -0.863,0.672 -2.496,1.008 -4.906,1.008 -0.535,0 -1.035,0.015 -1.504,0.046 z m 9.531,-26.351 c 2.035,-0.063 3.504,-0.094 4.414,-0.094 6.508,0 11.352,1.414 14.531,4.238 3.176,2.821 4.766,6.356 4.766,10.598 0,3.215 -0.973,5.719 -2.914,7.512 -1.938,1.793 -5.039,2.691 -9.293,2.691 -1.129,0 -2.566,-0.187 -4.32,-0.562 z m -9.25,-31.262 c 3.379,-0.437 6.027,-0.656 7.934,-0.656 4.883,0 9.211,1.469 12.984,4.402 3.77,2.93 5.656,6.91 5.656,11.934 0,3.836 -1.164,6.832 -3.496,8.984 -2.332,2.153 -6.097,3.231 -11.293,3.231 -1,0 -2.222,-0.047 -3.664,-0.141 l -8.121,-27.754" /><path
         id="path30"
         style="fill:#000000;fill-opacity:1;fill-rule:nonzero;stroke:none"
         d="m 1173.35,730.91 -4.74,-20.543 h -1.69 l -0.19,5.149 c -0.16,1.871 -0.52,3.539 -1.08,5.007 -0.56,1.465 -1.41,2.735 -2.53,3.813 -1.13,1.078 -2.55,1.918 -4.28,2.527 -1.72,0.61 -3.63,0.914 -5.72,0.914 -5.61,0 -10.51,-1.531 -14.7,-4.589 -5.35,-3.899 -9.54,-9.407 -12.58,-16.52 -2.51,-5.863 -3.76,-11.809 -3.76,-17.832 0,-6.145 1.8,-11.051 5.4,-14.715 3.6,-3.668 8.28,-5.5 14.04,-5.5 4.35,0 8.22,0.965 11.62,2.902 3.4,1.934 6.55,4.915 9.46,8.938 h 2.2 c -3.44,-5.461 -7.26,-9.477 -11.45,-12.051 -4.19,-2.574 -9.22,-3.863 -15.07,-3.863 -5.2,0 -9.8,1.086 -13.8,3.254 -4.01,2.168 -7.06,5.219 -9.16,9.148 -2.1,3.934 -3.14,8.16 -3.14,12.684 0,6.926 1.86,13.668 5.58,20.219 3.73,6.55 8.84,11.699 15.33,15.445 6.5,3.742 13.05,5.613 19.65,5.613 3.1,0 6.57,-0.734 10.42,-2.199 1.69,-0.625 2.91,-0.934 3.66,-0.934 0.75,0 1.41,0.153 1.98,0.465 0.56,0.313 1.5,1.203 2.81,2.668 h 1.74" /><path
         id="path32"
         style="fill:#000000;fill-opacity:1;fill-rule:nonzero;stroke:none"
         d="m 1310.42,423.617 19.68,-49.746 10.65,37.16 c 0.88,3.055 1.32,5.426 1.32,7.114 0,1.152 -0.41,2.058 -1.22,2.714 -0.81,0.653 -2.33,0.981 -4.56,0.981 -0.37,0 -0.76,0.015 -1.17,0.047 l 0.52,1.73 h 20.47 l -0.57,-1.73 c -2.13,0.031 -3.71,-0.188 -4.74,-0.657 -1.47,-0.652 -2.57,-1.496 -3.28,-2.527 -1.01,-1.465 -2.02,-4.023 -3.06,-7.672 l -14.98,-52.324 h -1.68 l -21.18,53.539 -11.32,-39.547 c -0.84,-2.996 -1.26,-5.289 -1.26,-6.879 0,-1.183 0.38,-2.082 1.15,-2.691 0.77,-0.609 2.59,-1.02 5.47,-1.238 l -0.47,-1.735 h -20 l 0.65,1.735 c 2.51,0.062 4.18,0.277 5.03,0.652 1.28,0.562 2.24,1.297 2.86,2.199 0.91,1.375 1.93,4.028 3.06,7.957 l 12.62,44.133 c -1.22,1.871 -2.52,3.16 -3.92,3.863 -1.39,0.7 -3.56,1.098 -6.5,1.192 l 0.52,1.73 h 15.91" /><path
         id="path34"
         style="fill:#000000;fill-opacity:1;fill-rule:nonzero;stroke:none"
         d="m 1435.22,104.121 0.57,1.734 h 20.32 c 8.61,0 14.99,-0.984 19.14,-2.949 4.14,-1.965 7.45,-5.0622 9.93,-9.2888 2.47,-4.2305 3.71,-8.7617 3.71,-13.5977 0,-4.1484 -0.71,-8.1797 -2.14,-12.0976 -1.43,-3.9141 -3.04,-7.0508 -4.84,-9.4063 -1.8,-2.3554 -4.56,-4.9531 -8.28,-7.7929 -3.73,-2.8399 -7.77,-4.9375 -12.11,-6.293 -4.36,-1.3594 -9.79,-2.0352 -16.3,-2.0352 h -26.95 l 0.61,1.7305 c 2.48,0.0625 4.14,0.2812 4.98,0.6562 1.25,0.5313 2.18,1.2461 2.77,2.1524 0.91,1.3086 1.92,3.9453 3.05,7.9102 l 11.27,38.375 c 0.88,3.0273 1.32,5.3984 1.32,7.1132 0,1.215 -0.41,2.152 -1.23,2.809 -0.81,0.656 -2.41,0.98 -4.79,0.98 z m 16.67,-1.777 -13.8,-47.5002 c -1.04,-3.5586 -1.55,-5.7579 -1.55,-6.6016 0,-0.4961 0.16,-0.9805 0.49,-1.4492 0.33,-0.4688 0.77,-0.7813 1.34,-0.9375 0.81,-0.2813 2.13,-0.418 3.94,-0.418 4.92,0 9.48,0.5039 13.69,1.5195 4.21,1.0118 7.66,2.5196 10.35,4.5157 3.82,2.9023 6.87,6.8945 9.15,11.9804 2.29,5.086 3.43,10.875 3.43,17.3633 0,7.332 -1.75,12.7852 -5.25,16.3555 -3.51,3.5741 -8.63,5.3591 -15.36,5.3591 -1.66,0 -3.8,-0.062 -6.43,-0.187 v 0" /><path
         id="path36"
         style="fill:#000000;fill-opacity:1;fill-rule:nonzero;stroke:none"
         d="m 338.906,35.1484 h 29.391 l 4.648,15.6758 c 0.879,3.0586 1.317,5.4297 1.317,7.1133 0,0.8125 -0.196,1.5078 -0.59,2.082 -0.391,0.5782 -0.992,1.0078 -1.805,1.2891 -0.816,0.2812 -2.41,0.4219 -4.789,0.4219 l 0.469,1.7304 h 25.633 l -0.563,-1.7304 c -2.16,0.0312 -3.769,-0.1875 -4.836,-0.6563 -1.5,-0.6562 -2.613,-1.4961 -3.332,-2.5273 -1.035,-1.4649 -2.082,-4.0391 -3.144,-7.7227 L 370.082,12.4961 c -0.937,-3.1836 -1.41,-5.46094 -1.41,-6.83204 0,-1.1875 0.418,-2.08594 1.246,-2.6914 0.828,-0.60938 2.809,-1.02344 5.937,-1.24219 L 375.34,0 h -24.789 l 0.656,1.73047 c 2.441,0.0625 4.07,0.28125 4.883,0.65625 1.254,0.5625 2.16,1.27734 2.722,2.15234 0.817,1.21875 1.817,3.8711 3.008,7.95704 l 5.727,19.4219 h -29.531 l -5.774,-19.4219 c -0.91,-3.1211 -1.363,-5.39844 -1.363,-6.83204 0,-1.1875 0.406,-2.08594 1.219,-2.6914 0.816,-0.60938 2.789,-1.02344 5.918,-1.24219 L 337.641,0 H 312.66 l 0.613,1.73047 c 2.473,0.0625 4.114,0.28125 4.93,0.65625 1.25,0.5625 2.176,1.27734 2.77,2.15234 0.812,1.28125 1.816,3.92969 3.004,7.95704 l 11.269,38.3281 c 0.906,3.1211 1.359,5.4922 1.359,7.1133 0,0.8125 -0.195,1.5078 -0.585,2.082 -0.391,0.5782 -1,1.0078 -1.832,1.2891 -0.829,0.2812 -2.45,0.4219 -4.86,0.4219 l 0.567,1.7304 h 25.117 l -0.516,-1.7304 c -2.098,0.0312 -3.648,-0.1875 -4.648,-0.6563 -1.473,-0.625 -2.551,-1.4531 -3.243,-2.4804 -0.937,-1.375 -1.968,-3.9649 -3.097,-7.7696 l -4.602,-15.6758" /><path
         id="path38"
         style="fill:#000000;fill-opacity:1;fill-rule:nonzero;stroke:none"
         d="m 145.672,406.078 5.867,-51.105 36.953,51.105 h 15.539 v -1.73 c -3.379,-0.219 -5.367,-0.438 -5.961,-0.657 -1.035,-0.406 -1.98,-1.218 -2.843,-2.433 -0.86,-1.219 -1.789,-3.555 -2.793,-7.02 l -11.786,-40.25 c -0.687,-2.34 -1.031,-4.179 -1.031,-5.519 0,-1.219 0.422,-2.137 1.266,-2.762 1.191,-0.906 3.07,-1.359 5.637,-1.359 h 1.125 l -0.422,-1.731 h -26.809 l 0.469,1.731 h 1.269 c 2.379,0 4.196,0.343 5.446,1.031 0.968,0.5 1.84,1.441 2.605,2.832 0.766,1.387 1.84,4.469 3.215,9.242 l 10.52,36.785 -37.137,-51.621 h -1.879 l -5.965,51.621 -11.359,-39.265 c -0.973,-3.34 -1.457,-5.586 -1.457,-6.739 0,-1.156 0.421,-2.035 1.269,-2.644 0.844,-0.61 2.895,-1.024 6.149,-1.242 l -0.516,-1.731 h -20.988 l 0.515,1.731 h 1.27 c 3.098,0 5.336,0.781 6.715,2.34 1,1.124 2.05,3.558 3.144,7.3 l 13.852,47.317 c -1.035,1.062 -2.02,1.777 -2.957,2.152 -0.942,0.375 -2.68,0.672 -5.215,0.891 l 0.473,1.73 h 15.82" /><path
         id="path40"
         style="fill:none;stroke:#000000;stroke-width:5;stroke-linecap:butt;stroke-linejoin:miter;stroke-miterlimit:10;stroke-dasharray:none;stroke-opacity:1"
         d="m 366.336,143.414 63.832,-0.465" /><path
         id="path42"
         style="fill:none;stroke:#000000;stroke-width:5;stroke-linecap:butt;stroke-linejoin:miter;stroke-miterlimit:10;stroke-dasharray:none;stroke-opacity:1"
         d="m 425.566,78.8867 0.598,68.4453" /><path
         id="path44"
         style="fill:none;stroke:#000000;stroke-width:8;stroke-linecap:butt;stroke-linejoin:miter;stroke-miterlimit:10;stroke-dasharray:none;stroke-opacity:1"
         d="M 127.301,223.512 163.75,198.453" /><path
         id="path46"
         style="fill:none;stroke:#000000;stroke-width:8;stroke-linecap:butt;stroke-linejoin:miter;stroke-miterlimit:10;stroke-dasharray:none;stroke-opacity:1"
         d="m 267.406,498.027 36.449,-25.058" /><path
         id="path48"
         style="fill:none;stroke:#000000;stroke-width:8;stroke-linecap:butt;stroke-linejoin:miter;stroke-miterlimit:10;stroke-dasharray:none;stroke-opacity:1"
         d="m 1187.77,554.98 -36.45,-25.058" /><path
         id="path50"
         style="fill:none;stroke:#000000;stroke-width:8;stroke-linecap:butt;stroke-linejoin:miter;stroke-miterlimit:10;stroke-dasharray:none;stroke-opacity:1"
         d="m 1199.73,535.617 -36.44,-25.058" /><path
         id="path52"
         style="fill:none;stroke:#000000;stroke-width:8;stroke-linecap:butt;stroke-linejoin:miter;stroke-miterlimit:10;stroke-dasharray:none;stroke-opacity:1"
         d="m 1332.43,256.543 -36.45,-25.059" /><path
         id="path54"
         style="fill:none;stroke:#000000;stroke-width:8;stroke-linecap:butt;stroke-linejoin:miter;stroke-miterlimit:10;stroke-dasharray:none;stroke-opacity:1"
         d="m 1344.39,237.18 -36.44,-25.059" /></g></g></svg>