<?xml version="1.0" encoding="UTF-8" standalone="no"?>
<svg
   xmlns:dc="http://purl.org/dc/elements/1.1/"
   xmlns:cc="http://creativecommons.org/ns#"
   xmlns:rdf="http://www.w3.org/1999/02/22-rdf-syntax-ns#"
   xmlns:svg="http://www.w3.org/2000/svg"
   xmlns="http://www.w3.org/2000/svg"
   viewBox="0 0 150.66667 81.333336"
   height="81.333336"
   width="150.66667"
   xml:space="preserve"
   id="svg2"
   version="1.1"><metadata
     id="metadata8"><rdf:RDF><cc:Work
         rdf:about=""><dc:format>image/svg+xml</dc:format><dc:type
           rdf:resource="http://purl.org/dc/dcmitype/StillImage" /></cc:Work></rdf:RDF></metadata><defs
     id="defs6" /><g
     transform="matrix(1.3333333,0,0,-1.3333333,0,81.333333)"
     id="g10"><g
       transform="scale(0.1)"
       id="g12"><path
         id="path14"
         style="fill:#231f20;fill-opacity:1;fill-rule:nonzero;stroke:none"
         d="m 528.09,8.74609 v 1.80081 c 4.23,0.0664 8.183,1.0469 11.816,2.9648 3.649,1.9024 7.184,5.2344 10.582,9.9844 3.403,4.75 5.77,9.9648 7.102,15.6641 -5.117,-3.2813 -9.735,-4.9297 -13.867,-4.9297 -4.649,0 -8.649,1.8007 -11.965,5.3984 -3.32,3.6016 -4.985,8.3672 -4.985,14.332 0,5.8047 1.665,10.9493 4.985,15.4844 4,5.5 9.23,8.25 15.68,8.25 5.433,0 10.082,-2.25 13.953,-6.75 4.765,-5.5664 7.132,-12.4297 7.132,-20.5976 0,-7.3516 -1.8,-14.2188 -5.418,-20.586 -3.617,-6.3672 -8.648,-11.6484 -15.082,-15.832 -5.25,-3.4688 -10.949,-5.18361 -17.148,-5.18361 z m 30.281,34.03121 c 0.586,4.2383 0.887,7.6172 0.887,10.1524 0,3.168 -0.551,6.5664 -1.617,10.2344 -1.086,3.6679 -2.602,6.4648 -4.567,8.414 -1.969,1.9688 -4.203,2.9336 -6.719,2.9336 -2.898,0 -5.433,-1.3008 -7.617,-3.8984 -2.183,-2.6016 -3.265,-6.4844 -3.265,-11.6172 0,-6.8672 1.449,-12.25 4.347,-16.1172 2.102,-2.7969 4.719,-4.1992 7.801,-4.1992 1.5,0 3.285,0.3476 5.332,1.0664 2.055,0.7187 3.856,1.7344 5.418,3.0312" /><path
         id="path16"
         style="fill:#231f20;fill-opacity:1;fill-rule:nonzero;stroke:none"
         d="m 354.414,387.375 v -6.934 h -8.883 v -17.484 h -8.066 v 17.484 h -28.016 v 6.25 l 30.719,43.848 h 5.363 v -43.164 z m -16.949,0 v 32.863 l -23.231,-32.863 h 23.231" /><path
         id="path18"
         style="fill:none;stroke:#231f20;stroke-width:7.5005002;stroke-linecap:butt;stroke-linejoin:miter;stroke-miterlimit:2.61310005;stroke-dasharray:none;stroke-opacity:1"
         d="M 280.176,603.973 V 176.996" /><path
         id="path20"
         style="fill:none;stroke:#231f20;stroke-width:5.00029993;stroke-linecap:butt;stroke-linejoin:miter;stroke-miterlimit:2.61310005;stroke-dasharray:none;stroke-opacity:1"
         d="m 282.82,177.797 h 74.3125 v 68.2422 H 282.82 Z" /><path
         id="path22"
         style="fill:#231f20;fill-opacity:1;fill-rule:nonzero;stroke:none"
         d="M 129.895,448.301 126.078,440 H 106.16 l -4.351,-8.898 c 8.636,-1.27 15.468,-4.469 20.5,-9.618 4.336,-4.418 6.5,-9.632 6.5,-15.617 0,-3.484 -0.7,-6.715 -2.114,-9.668 -1.418,-2.969 -3.199,-5.48 -5.351,-7.566 -2.149,-2.082 -4.551,-3.766 -7.184,-5.031 -3.734,-1.801 -7.582,-2.688 -11.515,-2.688 -3.9848,0 -6.8677,0.672 -8.6684,2.02 -1.8164,1.351 -2.7188,2.847 -2.7188,4.468 0,0.914 0.3867,1.715 1.1172,2.414 0.7539,0.7 1.7031,1.051 2.8359,1.051 0.8516,0 1.5977,-0.117 2.2344,-0.383 0.6328,-0.269 1.7149,-0.933 3.2457,-2 2.438,-1.699 4.903,-2.55 7.418,-2.55 3.801,0 7.153,1.449 10.036,4.332 2.882,2.882 4.316,6.386 4.316,10.519 0,4 -1.285,7.731 -3.852,11.199 -2.582,3.465 -6.117,6.149 -10.648,8.032 -3.551,1.468 -8.3868,2.316 -14.5001,2.55 l 12.6991,25.735 h 23.735" /><path
         id="path24"
         style="fill:none;stroke:#231f20;stroke-width:7.5005002;stroke-linecap:butt;stroke-linejoin:miter;stroke-miterlimit:2.61310005;stroke-dasharray:none;stroke-opacity:1"
         d="m 5.92188,174.297 845.82812,1.5" /><path
         id="path26"
         style="fill:none;stroke:#231f20;stroke-width:7.5005002;stroke-linecap:butt;stroke-linejoin:miter;stroke-miterlimit:2.61310005;stroke-dasharray:none;stroke-opacity:1"
         d="m 281.035,601.742 845.835,1.504" /><path
         id="path28"
         style="fill:none;stroke:#231f20;stroke-width:7.5005002;stroke-linecap:butt;stroke-linejoin:miter;stroke-miterlimit:2.61310005;stroke-dasharray:none;stroke-opacity:1"
         d="M 5.9375,170.414 282.871,602.379" /><path
         id="path30"
         style="fill:none;stroke:#231f20;stroke-width:7.5005002;stroke-linecap:butt;stroke-linejoin:miter;stroke-miterlimit:2.61310005;stroke-dasharray:none;stroke-opacity:1"
         d="M 848.219,174.18 1125.15,606.145" /><path
         id="path32"
         style="fill:none;stroke:#231f20;stroke-width:5.00029993;stroke-linecap:butt;stroke-linejoin:miter;stroke-miterlimit:2.61310005;stroke-dasharray:none;stroke-opacity:1"
         d="M 280.176,72.8867 V 176.996" /><path
         id="path34"
         style="fill:none;stroke:#231f20;stroke-width:5.00029993;stroke-linecap:butt;stroke-linejoin:miter;stroke-miterlimit:2.61310005;stroke-dasharray:none;stroke-opacity:1"
         d="M 848.656,76.6445 V 176.242" /><path
         id="path36"
         style="fill:none;stroke:#231f20;stroke-width:5.00029993;stroke-linecap:butt;stroke-linejoin:miter;stroke-miterlimit:2.61310005;stroke-dasharray:none;stroke-opacity:1"
         d="m 326.57,102.41 481.434,1.278" /><path
         id="path38"
         style="fill:#231f20;fill-opacity:1;fill-rule:evenodd;stroke:none"
         d="m 330.656,128.773 -47.832,-26.476 47.973,-26.2228 -0.141,52.6988" /><path
         id="path40"
         style="fill:#231f20;fill-opacity:1;fill-rule:evenodd;stroke:none"
         d="M 803.777,130.023 851.75,103.797 803.918,77.3242 803.777,130.023" /></g></g></svg>