<?xml version="1.0" encoding="UTF-8" standalone="no"?>
<svg
   xmlns:dc="http://purl.org/dc/elements/1.1/"
   xmlns:cc="http://creativecommons.org/ns#"
   xmlns:rdf="http://www.w3.org/1999/02/22-rdf-syntax-ns#"
   xmlns:svg="http://www.w3.org/2000/svg"
   xmlns="http://www.w3.org/2000/svg"
   viewBox="0 0 185.33333 86.666664"
   height="86.666664"
   width="185.33333"
   xml:space="preserve"
   id="svg2"
   version="1.1"><metadata
     id="metadata8"><rdf:RDF><cc:Work
         rdf:about=""><dc:format>image/svg+xml</dc:format><dc:type
           rdf:resource="http://purl.org/dc/dcmitype/StillImage" /></cc:Work></rdf:RDF></metadata><defs
     id="defs6" /><g
     transform="matrix(1.3333333,0,0,-1.3333333,0,86.666667)"
     id="g10"><g
       transform="scale(0.1)"
       id="g12"><path
         id="path14"
         style="fill:#231f20;fill-opacity:1;fill-rule:nonzero;stroke:none"
         d="m 1227.33,355.801 v -6.934 h -8.88 v -17.48 h -8.07 v 17.48 h -28.01 v 6.254 l 30.71,43.848 h 5.37 v -43.168 z m -16.95,0 v 32.867 l -23.23,-32.867 h 23.23" /><path
         id="path16"
         style="fill:none;stroke:#231f20;stroke-width:7.5005002;stroke-linecap:butt;stroke-linejoin:miter;stroke-miterlimit:2.61310005;stroke-dasharray:none;stroke-opacity:1"
         d="M 8.05859,6.51953 H 1168.4" /><path
         id="path18"
         style="fill:none;stroke:#231f20;stroke-width:7.5005002;stroke-linecap:butt;stroke-linejoin:miter;stroke-miterlimit:2.61310005;stroke-dasharray:none;stroke-opacity:1"
         d="M 8.05859,6.51953 340.066,635.051" /><path
         id="path20"
         style="fill:none;stroke:#231f20;stroke-width:7.5005002;stroke-linecap:butt;stroke-linejoin:miter;stroke-miterlimit:2.61310005;stroke-dasharray:none;stroke-opacity:1"
         d="M 993.141,636.566 1168.4,6.51953" /><path
         id="path22"
         style="fill:none;stroke:#231f20;stroke-width:7.5005002;stroke-linecap:butt;stroke-linejoin:miter;stroke-miterlimit:2.61310005;stroke-dasharray:none;stroke-opacity:1"
         d="M 171.145,318.16 H 1082.23" /><path
         id="path24"
         style="fill:none;stroke:#231f20;stroke-width:7.5005002;stroke-linecap:butt;stroke-linejoin:miter;stroke-miterlimit:2.61310005;stroke-dasharray:none;stroke-opacity:1"
         d="m 73.832,192.883 47.715,-26.535" /><path
         id="path26"
         style="fill:none;stroke:#231f20;stroke-width:7.5005002;stroke-linecap:butt;stroke-linejoin:miter;stroke-miterlimit:2.61310005;stroke-dasharray:none;stroke-opacity:1"
         d="M 232.883,489.359 280.594,462.82" /><path
         id="path28"
         style="fill:none;stroke:#231f20;stroke-width:7.5005002;stroke-linecap:butt;stroke-linejoin:miter;stroke-miterlimit:2.61310005;stroke-dasharray:none;stroke-opacity:1"
         d="m 1079.45,199.961 65.98,22.019" /><path
         id="path30"
         style="fill:none;stroke:#231f20;stroke-width:7.5005002;stroke-linecap:butt;stroke-linejoin:miter;stroke-miterlimit:2.61310005;stroke-dasharray:none;stroke-opacity:1"
         d="m 1084.76,178.707 65.97,22.016" /><path
         id="path32"
         style="fill:none;stroke:#231f20;stroke-width:7.5005002;stroke-linecap:butt;stroke-linejoin:miter;stroke-miterlimit:2.61310005;stroke-dasharray:none;stroke-opacity:1"
         d="m 994.516,491.508 65.974,22.019" /><path
         id="path34"
         style="fill:none;stroke:#231f20;stroke-width:7.5005002;stroke-linecap:butt;stroke-linejoin:miter;stroke-miterlimit:2.61310005;stroke-dasharray:none;stroke-opacity:1"
         d="m 999.824,470.25 65.976,22.02" /><path
         id="path36"
         style="fill:#231f20;fill-opacity:1;fill-rule:nonzero;stroke:none"
         d="m 707.867,420.441 v -1.816 c -4.281,-0.418 -7.797,-1.27 -10.515,-2.566 -2.715,-1.286 -5.399,-3.235 -8.051,-5.887 -2.649,-2.633 -4.848,-5.567 -6.598,-8.797 -1.73,-3.25 -3.199,-7.102 -4.367,-11.551 4.684,3.215 9.383,4.832 14.117,4.832 4.516,0 8.449,-1.832 11.766,-5.465 3.316,-3.652 4.984,-8.332 4.984,-14.066 0,-5.535 -1.683,-10.582 -5.035,-15.137 -4.031,-5.531 -9.383,-8.297 -16.016,-8.297 -4.531,0 -8.367,1.5 -11.531,4.485 -6.183,5.832 -9.269,13.379 -9.269,22.664 0,5.918 1.183,11.551 3.566,16.887 2.367,5.347 5.77,10.082 10.187,14.214 4.399,4.133 8.629,6.914 12.665,8.352 4.031,1.43 7.8,2.148 11.285,2.148 z m -30.363,-34.183 c -0.582,-4.399 -0.883,-7.949 -0.883,-10.649 0,-3.121 0.582,-6.519 1.734,-10.187 1.165,-3.649 2.883,-6.563 5.165,-8.715 1.648,-1.516 3.668,-2.281 6.05,-2.281 2.832,0 5.368,1.332 7.582,4 2.235,2.668 3.352,6.48 3.352,11.429 0,5.571 -1.102,10.383 -3.316,14.454 -2.215,4.066 -5.352,6.097 -9.434,6.097 -1.234,0 -2.551,-0.265 -3.969,-0.781 -1.414,-0.52 -3.515,-1.652 -6.281,-3.367" /><path
         id="path38"
         style="fill:none;stroke:#231f20;stroke-width:7.5005002;stroke-linecap:butt;stroke-linejoin:miter;stroke-miterlimit:2.61310005;stroke-dasharray:none;stroke-opacity:1"
         d="M 341.617,636.27 H 989.133" /><path
         id="path40"
         style="fill:none;stroke:#231f20;stroke-width:7.5005002;stroke-linecap:butt;stroke-linejoin:miter;stroke-miterlimit:2.61310005;stroke-dasharray:none;stroke-opacity:1"
         d="M 1167.82,3.34375 V 632.625" /><path
         id="path42"
         style="fill:none;stroke:#231f20;stroke-width:5.00029993;stroke-linecap:butt;stroke-linejoin:miter;stroke-miterlimit:2.61310005;stroke-dasharray:none;stroke-opacity:1"
         d="m 1111.08,584.758 h 56.9141 v 52.4805 H 1111.08 Z" /><path
         id="path44"
         style="fill:none;stroke:#231f20;stroke-width:7.5005002;stroke-linecap:butt;stroke-linejoin:miter;stroke-miterlimit:2.61310005;stroke-dasharray:37.5025, 22.5015;stroke-dashoffset:0;stroke-opacity:1"
         d="M 1388.76,636.27 H 983.125" /></g></g></svg>