<?xml version="1.0" encoding="UTF-8" standalone="no"?>
<svg
   xmlns:dc="http://purl.org/dc/elements/1.1/"
   xmlns:cc="http://creativecommons.org/ns#"
   xmlns:rdf="http://www.w3.org/1999/02/22-rdf-syntax-ns#"
   xmlns:svg="http://www.w3.org/2000/svg"
   xmlns="http://www.w3.org/2000/svg"
   viewBox="0 0 112 84"
   height="84"
   width="112"
   xml:space="preserve"
   id="svg2"
   version="1.1"><metadata
     id="metadata8"><rdf:RDF><cc:Work
         rdf:about=""><dc:format>image/svg+xml</dc:format><dc:type
           rdf:resource="http://purl.org/dc/dcmitype/StillImage" /></cc:Work></rdf:RDF></metadata><defs
     id="defs6" /><g
     transform="matrix(1.3333333,0,0,-1.3333333,0,84)"
     id="g10"><g
       transform="scale(0.1)"
       id="g12"><path
         id="path14"
         style="fill:none;stroke:#231f20;stroke-width:7.5005002;stroke-linecap:butt;stroke-linejoin:miter;stroke-miterlimit:2.61310005;stroke-dasharray:none;stroke-opacity:1"
         d="M 2.19531,119.258 H 831.5" /><path
         id="path16"
         style="fill:#231f20;fill-opacity:1;fill-rule:nonzero;stroke:none"
         d="m 262.055,586.418 v -6.934 h -8.883 v -17.48 h -8.067 v 17.48 H 217.09 v 6.25 l 30.715,43.852 h 5.367 v -43.168 z m -16.95,0 v 32.867 l -23.234,-32.867 h 23.234" /><path
         id="path18"
         style="fill:none;stroke:#231f20;stroke-width:7.5005002;stroke-linecap:butt;stroke-linejoin:miter;stroke-miterlimit:2.61310005;stroke-dasharray:none;stroke-opacity:1"
         d="M 8.22266,532.078 H 424.797" /><path
         id="path20"
         style="fill:none;stroke:#231f20;stroke-width:7.5005002;stroke-linecap:butt;stroke-linejoin:miter;stroke-miterlimit:2.61310005;stroke-dasharray:none;stroke-opacity:1"
         d="M 420.945,534 836.605,118.34" /><path
         id="path22"
         style="fill:none;stroke:#231f20;stroke-width:7.5005002;stroke-linecap:butt;stroke-linejoin:miter;stroke-miterlimit:2.61310005;stroke-dasharray:none;stroke-opacity:1"
         d="M 4.03516,123.445 V 537.012" /><path
         id="path24"
         style="fill:#231f20;fill-opacity:1;fill-rule:nonzero;stroke:none"
         d="m 274.016,44 c -5.231,4.3008 -8.614,7.75 -10.129,10.3516 -1.504,2.6015 -2.27,5.3007 -2.27,8.1015 0,4.2969 1.668,7.9961 4.985,11.1172 3.316,3.0977 7.734,4.6641 13.234,4.6641 5.332,0 9.633,-1.4492 12.883,-4.3516 3.265,-2.8984 4.883,-6.1992 4.883,-9.914 0,-2.4649 -0.868,-5 -2.633,-7.5665 -1.75,-2.5664 -5.418,-5.6015 -10.981,-9.0859 5.731,-4.4141 9.516,-7.8984 11.379,-10.4453 2.469,-3.3164 3.703,-6.8203 3.703,-10.5 0,-4.6523 -1.769,-8.6367 -5.316,-11.9336 -3.551,-3.3008 -8.203,-4.95312 -13.969,-4.95312 -6.285,0 -11.183,1.96872 -14.699,5.90232 -2.801,3.1641 -4.199,6.6133 -4.199,10.3477 0,2.9336 0.98,5.8359 2.965,8.7187 1.968,2.8828 5.351,6.0625 10.164,9.5469 z m 7.668,5.2188 c 3.918,3.5156 6.386,6.3007 7.433,8.332 1.035,2.0351 1.551,4.332 1.551,6.918 0,3.4179 -0.949,6.0859 -2.867,8.0156 -1.934,1.9492 -4.547,2.9179 -7.863,2.9179 -3.317,0 -6.02,-0.9687 -8.102,-2.8867 -2.086,-1.914 -3.133,-4.164 -3.133,-6.7304 0,-1.6993 0.434,-3.3829 1.297,-5.0821 0.852,-1.7031 2.086,-3.3047 3.688,-4.832 z m -5.364,-7.0665 c -2.703,-2.2851 -4.699,-4.7656 -6,-7.4531 -1.3,-2.6797 -1.953,-5.5976 -1.953,-8.7148 0,-4.1992 1.137,-7.5664 3.438,-10.0821 2.297,-2.5195 5.215,-3.7851 8.761,-3.7851 3.52,0 6.336,0.9844 8.454,2.9844 2.117,1.9843 3.164,4.3828 3.164,7.2187 0,2.3477 -0.614,4.4492 -1.848,6.2969 -2.316,3.4492 -6.984,7.9687 -14.016,13.5351" /><path
         id="path26"
         style="fill:none;stroke:#231f20;stroke-width:5.00029993;stroke-linecap:butt;stroke-linejoin:miter;stroke-miterlimit:2.61310005;stroke-dasharray:none;stroke-opacity:1"
         d="M 714.586,234.664 C 682.781,202.113 672.512,162.547 683.785,115.977" /></g></g></svg>