<?xml version="1.0" encoding="UTF-8" standalone="no"?>
<svg
   xmlns:dc="http://purl.org/dc/elements/1.1/"
   xmlns:cc="http://creativecommons.org/ns#"
   xmlns:rdf="http://www.w3.org/1999/02/22-rdf-syntax-ns#"
   xmlns:svg="http://www.w3.org/2000/svg"
   xmlns="http://www.w3.org/2000/svg"
   viewBox="0 0 112 82.666664"
   height="82.666664"
   width="112"
   xml:space="preserve"
   id="svg2"
   version="1.1"><metadata
     id="metadata8"><rdf:RDF><cc:Work
         rdf:about=""><dc:format>image/svg+xml</dc:format><dc:type
           rdf:resource="http://purl.org/dc/dcmitype/StillImage" /></cc:Work></rdf:RDF></metadata><defs
     id="defs6" /><g
     transform="matrix(1.3333333,0,0,-1.3333333,0,82.666667)"
     id="g10"><g
       transform="scale(0.1)"
       id="g12"><path
         id="path14"
         style="fill:none;stroke:#231f20;stroke-width:7.5005002;stroke-linecap:butt;stroke-linejoin:miter;stroke-miterlimit:2.61310005;stroke-dasharray:none;stroke-opacity:1"
         d="M 2.19531,109.258 H 831.5" /><path
         id="path16"
         style="fill:#231f20;fill-opacity:1;fill-rule:nonzero;stroke:none"
         d="m 581.527,181.699 v -6.933 h -8.882 v -17.481 h -8.067 v 17.481 h -28.016 v 6.25 l 30.715,43.851 h 5.368 v -43.168 z m -16.949,0 v 32.867 l -23.234,-32.867 h 23.234" /><path
         id="path18"
         style="fill:#231f20;fill-opacity:1;fill-rule:nonzero;stroke:none"
         d="m 628.414,223.5 -3.82,-8.301 H 604.68 l -4.352,-8.898 c 8.633,-1.27 15.469,-4.469 20.5,-9.617 4.332,-4.418 6.5,-9.633 6.5,-15.618 0,-3.484 -0.703,-6.714 -2.117,-9.668 -1.418,-2.964 -3.199,-5.48 -5.352,-7.562 -2.148,-2.086 -4.547,-3.77 -7.183,-5.035 -3.731,-1.801 -7.582,-2.684 -11.516,-2.684 -3.98,0 -6.863,0.668 -8.664,2.016 -1.816,1.351 -2.719,2.851 -2.719,4.469 0,0.914 0.387,1.714 1.118,2.414 0.75,0.699 1.699,1.05 2.832,1.05 0.851,0 1.601,-0.117 2.234,-0.382 0.633,-0.27 1.715,-0.934 3.25,-2 2.434,-1.7 4.898,-2.551 7.418,-2.551 3.797,0 7.148,1.453 10.031,4.336 2.887,2.883 4.317,6.383 4.317,10.515 0,4 -1.286,7.731 -3.848,11.2 -2.582,3.464 -6.117,6.148 -10.652,8.031 -3.547,1.469 -8.383,2.316 -14.497,2.551 l 12.7,25.734 h 23.734" /><path
         id="path20"
         style="fill:#231f20;fill-opacity:1;fill-rule:nonzero;stroke:none"
         d="m 261.371,564.754 -4.633,-12.75 h -39.066 v 1.797 c 11.484,10.484 19.582,19.051 24.266,25.683 4.683,6.653 7.031,12.719 7.031,18.219 0,4.199 -1.281,7.649 -3.864,10.348 -2.566,2.699 -5.632,4.051 -9.214,4.051 -3.266,0 -6.184,-0.95 -8.77,-2.848 -2.582,-1.902 -4.5,-4.703 -5.73,-8.371 h -1.817 c 0.817,6.019 2.899,10.633 6.281,13.867 3.368,3.219 7.567,4.836 12.618,4.836 5.367,0 9.847,-1.734 13.449,-5.188 3.598,-3.449 5.398,-7.511 5.398,-12.195 0,-3.351 -0.781,-6.719 -2.347,-10.07 -2.403,-5.266 -6.317,-10.848 -11.715,-16.75 -8.102,-8.848 -13.168,-14.18 -15.188,-16.016 h 17.285 c 3.516,0 5.981,0.137 7.399,0.403 1.418,0.25 2.703,0.781 3.832,1.582 1.137,0.8 2.137,1.933 2.984,3.402 h 1.801" /><path
         id="path22"
         style="fill:none;stroke:#231f20;stroke-width:5.00029993;stroke-linecap:butt;stroke-linejoin:miter;stroke-miterlimit:2.61310005;stroke-dasharray:none;stroke-opacity:1"
         d="m 647.887,243.832 c 4.984,0 9.031,-4.047 9.031,-9.027 0,-4.989 -4.047,-9.032 -9.031,-9.032 -4.989,0 -9.032,4.043 -9.032,9.032 0,4.98 4.043,9.027 9.032,9.027 z" /><path
         id="path24"
         style="fill:none;stroke:#231f20;stroke-width:7.5005002;stroke-linecap:butt;stroke-linejoin:miter;stroke-miterlimit:2.61310005;stroke-dasharray:none;stroke-opacity:1"
         d="M 8.22266,522.078 H 424.797" /><path
         id="path26"
         style="fill:none;stroke:#231f20;stroke-width:7.5005002;stroke-linecap:butt;stroke-linejoin:miter;stroke-miterlimit:2.61310005;stroke-dasharray:none;stroke-opacity:1"
         d="M 420.945,524 836.605,108.34" /><path
         id="path28"
         style="fill:none;stroke:#231f20;stroke-width:7.5005002;stroke-linecap:butt;stroke-linejoin:miter;stroke-miterlimit:2.61310005;stroke-dasharray:none;stroke-opacity:1"
         d="M 4.03516,113.445 V 527.012" /><path
         id="path30"
         style="fill:#231f20;fill-opacity:1;fill-rule:nonzero;stroke:none"
         d="m 301.367,25.0703 v -6.9336 h -8.883 V 0.652344 h -8.066 V 18.1367 h -28.016 v 6.25 l 30.715,43.8477 h 5.367 V 25.0703 Z m -16.949,0 V 57.9336 L 261.184,25.0703 h 23.234" /><path
         id="path32"
         style="fill:none;stroke:#231f20;stroke-width:5.00029993;stroke-linecap:butt;stroke-linejoin:miter;stroke-miterlimit:2.61310005;stroke-dasharray:none;stroke-opacity:1"
         d="M 714.586,224.664 C 682.781,192.113 672.512,152.547 683.785,105.977" /></g></g></svg>