<?xml version="1.0" encoding="UTF-8" standalone="no"?>
<svg
   xmlns:dc="http://purl.org/dc/elements/1.1/"
   xmlns:cc="http://creativecommons.org/ns#"
   xmlns:rdf="http://www.w3.org/1999/02/22-rdf-syntax-ns#"
   xmlns:svg="http://www.w3.org/2000/svg"
   xmlns="http://www.w3.org/2000/svg"
   viewBox="0 0 186.66667 85.333336"
   height="85.333336"
   width="186.66667"
   xml:space="preserve"
   id="svg2"
   version="1.1"><metadata
     id="metadata8"><rdf:RDF><cc:Work
         rdf:about=""><dc:format>image/svg+xml</dc:format><dc:type
           rdf:resource="http://purl.org/dc/dcmitype/StillImage" /></cc:Work></rdf:RDF></metadata><defs
     id="defs6" /><g
     transform="matrix(1.3333333,0,0,-1.3333333,0,85.333333)"
     id="g10"><g
       transform="scale(0.1)"
       id="g12"><path
         id="path14"
         style="fill:#231f20;fill-opacity:1;fill-rule:nonzero;stroke:none"
         d="m 251.23,314.473 v 1.797 c 4.231,0.066 8.184,1.05 11.817,2.964 3.648,1.903 7.183,5.239 10.582,9.985 3.402,4.75 5.769,9.969 7.101,15.668 -5.117,-3.282 -9.734,-4.934 -13.867,-4.934 -4.648,0 -8.648,1.801 -11.965,5.402 -3.32,3.598 -4.984,8.364 -4.984,14.329 0,5.804 1.664,10.953 4.984,15.488 4,5.5 9.231,8.246 15.68,8.246 5.434,0 10.082,-2.25 13.953,-6.746 4.766,-5.57 7.133,-12.434 7.133,-20.602 0,-7.347 -1.801,-14.218 -5.418,-20.582 -3.617,-6.367 -8.648,-11.652 -15.082,-15.836 -5.25,-3.464 -10.949,-5.179 -17.148,-5.179 z m 30.282,34.031 c 0.586,4.234 0.886,7.617 0.886,10.148 0,3.168 -0.55,6.567 -1.617,10.235 -1.086,3.668 -2.601,6.465 -4.566,8.414 -1.969,1.969 -4.199,2.937 -6.719,2.937 -2.898,0 -5.434,-1.304 -7.617,-3.902 -2.18,-2.598 -3.266,-6.484 -3.266,-11.617 0,-6.864 1.449,-12.246 4.348,-16.117 2.101,-2.797 4.719,-4.2 7.805,-4.2 1.496,0 3.281,0.352 5.328,1.067 2.054,0.719 3.855,1.734 5.418,3.035" /><path
         id="path16"
         style="fill:none;stroke:#231f20;stroke-width:7.5005002;stroke-linecap:butt;stroke-linejoin:miter;stroke-miterlimit:2.61310005;stroke-dasharray:none;stroke-opacity:1"
         d="M 228.059,6.51953 H 1388.4" /><path
         id="path18"
         style="fill:none;stroke:#231f20;stroke-width:7.5005002;stroke-linecap:butt;stroke-linejoin:miter;stroke-miterlimit:2.61310005;stroke-dasharray:none;stroke-opacity:1"
         d="M 557.426,635.867 H 1216.16" /><path
         id="path20"
         style="fill:none;stroke:#231f20;stroke-width:7.5005002;stroke-linecap:butt;stroke-linejoin:miter;stroke-miterlimit:2.61310005;stroke-dasharray:none;stroke-opacity:1"
         d="M 228.059,6.51953 560.066,635.051" /><path
         id="path22"
         style="fill:none;stroke:#231f20;stroke-width:7.5005002;stroke-linecap:butt;stroke-linejoin:miter;stroke-miterlimit:2.61310005;stroke-dasharray:none;stroke-opacity:1"
         d="M 1213.14,636.566 1388.4,6.51953" /><path
         id="path24"
         style="fill:none;stroke:#231f20;stroke-width:7.5005002;stroke-linecap:butt;stroke-linejoin:miter;stroke-miterlimit:2.61310005;stroke-dasharray:none;stroke-opacity:1"
         d="M 391.145,318.16 H 1302.23" /><path
         id="path26"
         style="fill:none;stroke:#231f20;stroke-width:5.00029993;stroke-linecap:butt;stroke-linejoin:miter;stroke-miterlimit:2.61310005;stroke-dasharray:none;stroke-opacity:1"
         d="m 228.938,580.051 h 56.7656 v 53.7344 H 228.938 Z" /><path
         id="path28"
         style="fill:none;stroke:#231f20;stroke-width:7.5005002;stroke-linecap:butt;stroke-linejoin:miter;stroke-miterlimit:2.61310005;stroke-dasharray:none;stroke-opacity:1"
         d="m 293.832,192.883 47.715,-26.535" /><path
         id="path30"
         style="fill:none;stroke:#231f20;stroke-width:7.5005002;stroke-linecap:butt;stroke-linejoin:miter;stroke-miterlimit:2.61310005;stroke-dasharray:none;stroke-opacity:1"
         d="M 452.883,489.359 500.594,462.82" /><path
         id="path32"
         style="fill:none;stroke:#231f20;stroke-width:7.5005002;stroke-linecap:butt;stroke-linejoin:miter;stroke-miterlimit:2.61310005;stroke-dasharray:none;stroke-opacity:1"
         d="m 1299.45,199.961 65.98,22.019" /><path
         id="path34"
         style="fill:none;stroke:#231f20;stroke-width:7.5005002;stroke-linecap:butt;stroke-linejoin:miter;stroke-miterlimit:2.61310005;stroke-dasharray:none;stroke-opacity:1"
         d="m 1304.76,178.707 65.97,22.016" /><path
         id="path36"
         style="fill:none;stroke:#231f20;stroke-width:7.5005002;stroke-linecap:butt;stroke-linejoin:miter;stroke-miterlimit:2.61310005;stroke-dasharray:none;stroke-opacity:1"
         d="m 1214.52,491.508 65.97,22.019" /><path
         id="path38"
         style="fill:none;stroke:#231f20;stroke-width:7.5005002;stroke-linecap:butt;stroke-linejoin:miter;stroke-miterlimit:2.61310005;stroke-dasharray:none;stroke-opacity:1"
         d="m 1219.82,470.25 65.98,22.02" /><path
         id="path40"
         style="fill:#231f20;fill-opacity:1;fill-rule:nonzero;stroke:none"
         d="m 893.117,419.074 h 35.485 v -1.867 l -22.067,-65.715 h -5.465 l 19.782,59.613 h -18.215 c -3.684,0 -6.301,-0.429 -7.867,-1.316 -2.735,-1.496 -4.934,-3.801 -6.582,-6.934 l -1.418,0.536 6.347,15.683" /><path
         id="path42"
         style="fill:none;stroke:#231f20;stroke-width:7.5005002;stroke-linecap:butt;stroke-linejoin:miter;stroke-miterlimit:2.61310005;stroke-dasharray:37.5025, 22.5015;stroke-dashoffset:0;stroke-opacity:1"
         d="M 557.426,635.855 H 1.23438" /><path
         id="path44"
         style="fill:none;stroke:#231f20;stroke-width:7.5005002;stroke-linecap:butt;stroke-linejoin:miter;stroke-miterlimit:2.61310005;stroke-dasharray:none;stroke-opacity:1"
         d="M 227.883,5.62891 V 634" /></g></g></svg>