<?xml version="1.0" encoding="UTF-8" standalone="no"?>
<svg
   xmlns:dc="http://purl.org/dc/elements/1.1/"
   xmlns:cc="http://creativecommons.org/ns#"
   xmlns:rdf="http://www.w3.org/1999/02/22-rdf-syntax-ns#"
   xmlns:svg="http://www.w3.org/2000/svg"
   xmlns="http://www.w3.org/2000/svg"
   viewBox="0 0 180 76"
   height="76"
   width="180"
   xml:space="preserve"
   id="svg2"
   version="1.1"><metadata
     id="metadata8"><rdf:RDF><cc:Work
         rdf:about=""><dc:format>image/svg+xml</dc:format><dc:type
           rdf:resource="http://purl.org/dc/dcmitype/StillImage" /></cc:Work></rdf:RDF></metadata><defs
     id="defs6" /><g
     transform="matrix(1.3333333,0,0,-1.3333333,0,76)"
     id="g10"><g
       transform="scale(0.1)"
       id="g12"><path
         id="path14"
         style="fill:#231f20;fill-opacity:1;fill-rule:nonzero;stroke:none"
         d="M 57.0195,85.6094 51.9844,30.543 c -0.2656,-2.586 -0.3828,-4.2696 -0.3828,-5.086 0,-1.2968 0.2343,-2.2968 0.7343,-2.9804 0.6172,-0.9336 1.4493,-1.6328 2.5,-2.1016 1.0664,-0.4492 2.8516,-0.6836 5.3516,-0.6836 L 59.6523,17.8906 H 33.5859 l 0.5352,1.8008 h 1.1172 c 2.1172,0 3.8515,0.4688 5.1836,1.3672 0.9297,0.6328 1.664,1.6484 2.1992,3.082 0.3477,1.0196 0.6992,3.3828 1.0156,7.1328 l 0.7852,8.4024 H 25.4727 L 18.7344,30.543 c -1.5274,-2.0508 -2.4805,-3.5352 -2.8828,-4.418 -0.3828,-0.8984 -0.5821,-1.7344 -0.5821,-2.5156 0,-1.0508 0.418,-1.9336 1.2657,-2.6836 0.8515,-0.75 2.2539,-1.1641 4.2031,-1.2344 L 20.2031,17.8906 H 0.621094 l 0.531246,1.8008 c 2.41797,0.1016 4.53516,0.918 6.38282,2.418 1.83593,1.5156 4.56644,4.75 8.21874,9.6992 L 55.3008,85.6094 Z M 47.3555,69.3555 28.1523,43.2422 h 16.6524 l 2.5508,26.1133" /><path
         id="path16"
         style="fill:none;stroke:#231f20;stroke-width:7.5005002;stroke-linecap:butt;stroke-linejoin:miter;stroke-miterlimit:2.61310005;stroke-dasharray:none;stroke-opacity:1"
         d="M 94.6406,61.9414 H 1254.73" /><path
         id="path18"
         style="fill:#231f20;fill-opacity:1;fill-rule:nonzero;stroke:none"
         d="m 259.094,539.348 0.683,1.82 h 23.637 c 3.965,0 7.496,-0.621 10.613,-1.871 3.102,-1.231 5.434,-2.945 6.985,-5.164 1.547,-2.215 2.316,-4.567 2.316,-7.035 0,-3.817 -1.383,-7.246 -4.133,-10.332 -2.754,-3.067 -7.234,-5.348 -13.449,-6.801 4.016,-1.5 6.949,-3.485 8.848,-5.965 1.883,-2.469 2.832,-5.184 2.832,-8.148 0,-3.286 -0.848,-6.434 -2.547,-9.434 -1.684,-2.984 -3.867,-5.316 -6.516,-6.965 -2.652,-1.668 -5.851,-2.887 -9.601,-3.668 -2.668,-0.551 -6.836,-0.836 -12.5,-0.836 h -24.266 l 0.633,1.801 c 2.551,0.066 4.266,0.316 5.183,0.734 1.297,0.567 2.231,1.297 2.786,2.2 0.781,1.234 1.812,4.066 3.113,8.5 l 11.867,40.082 c 1.016,3.386 1.516,5.765 1.516,7.136 0,1.2 -0.449,2.149 -1.332,2.848 -0.899,0.699 -2.602,1.047 -5.117,1.047 -0.551,0 -1.067,0.019 -1.551,0.051 z m 9.902,-27.481 c 2.113,-0.066 3.649,-0.101 4.598,-0.101 6.769,0 11.801,1.468 15.117,4.418 3.297,2.949 4.953,6.632 4.953,11.066 0,3.348 -1.019,5.965 -3.039,7.832 -2.016,1.867 -5.23,2.801 -9.664,2.801 -1.164,0 -2.664,-0.184 -4.481,-0.582 z m -9.617,-32.617 c 3.516,-0.469 6.266,-0.684 8.25,-0.684 5.082,0 9.582,1.536 13.5,4.586 3.933,3.067 5.883,7.215 5.883,12.45 0,4 -1.203,7.128 -3.633,9.382 -2.418,2.25 -6.332,3.368 -11.734,3.368 -1.051,0 -2.317,-0.051 -3.817,-0.153 l -8.449,-28.949" /><path
         id="path20"
         style="fill:#231f20;fill-opacity:1;fill-rule:nonzero;stroke:none"
         d="m 1095.91,568.223 -4.93,-21.434 h -1.77 l -0.18,5.383 c -0.17,1.953 -0.55,3.683 -1.14,5.219 -0.58,1.531 -1.46,2.851 -2.63,3.984 -1.17,1.113 -2.65,2 -4.45,2.633 -1.78,0.633 -3.77,0.949 -5.95,0.949 -5.83,0 -10.92,-1.602 -15.29,-4.785 -5.56,-4.063 -9.93,-9.817 -13.08,-17.231 -2.6,-6.117 -3.92,-12.316 -3.92,-18.601 0,-6.418 1.89,-11.531 5.62,-15.367 3.75,-3.817 8.62,-5.735 14.6,-5.735 4.53,0 8.57,1.02 12.09,3.035 3.53,2.02 6.82,5.118 9.85,9.317 h 2.28 c -3.57,-5.699 -7.55,-9.883 -11.9,-12.567 -4.37,-2.683 -9.6,-4.031 -15.68,-4.031 -5.41,0 -10.19,1.133 -14.35,3.399 -4.17,2.265 -7.35,5.433 -9.52,9.55 -2.18,4.102 -3.29,8.5 -3.29,13.235 0,7.215 1.96,14.246 5.82,21.082 3.87,6.832 9.19,12.215 15.93,16.113 6.77,3.902 13.57,5.852 20.46,5.852 3.21,0 6.83,-0.746 10.83,-2.282 1.75,-0.652 3.03,-0.984 3.8,-0.984 0.78,0 1.46,0.164 2.07,0.484 0.58,0.332 1.55,1.266 2.91,2.782 h 1.82" /><path
         id="path22"
         style="fill:none;stroke:#231f20;stroke-width:7.5005002;stroke-linecap:butt;stroke-linejoin:miter;stroke-miterlimit:2.61310005;stroke-dasharray:none;stroke-opacity:1"
         d="m 308.09,482.598 h 712.32" /><path
         id="path24"
         style="fill:none;stroke:#231f20;stroke-width:7.5005002;stroke-linecap:butt;stroke-linejoin:miter;stroke-miterlimit:2.61310005;stroke-dasharray:none;stroke-opacity:1"
         d="M 94.6406,61.9414 312.117,481.863" /><path
         id="path26"
         style="fill:none;stroke:#231f20;stroke-width:7.5005002;stroke-linecap:butt;stroke-linejoin:miter;stroke-miterlimit:2.61310005;stroke-dasharray:none;stroke-opacity:1"
         d="M 1021.88,480.883 1254.73,61.9414" /><path
         id="path28"
         style="fill:none;stroke:#231f20;stroke-width:7.5005002;stroke-linecap:butt;stroke-linejoin:miter;stroke-miterlimit:2.61310005;stroke-dasharray:none;stroke-opacity:1"
         d="M 312.195,481.023 1254.73,61.9414" /><path
         id="path30"
         style="fill:none;stroke:#231f20;stroke-width:7.5005002;stroke-linecap:butt;stroke-linejoin:miter;stroke-miterlimit:2.61310005;stroke-dasharray:none;stroke-opacity:1"
         d="M 94.6406,61.9414 1022.93,482.387" /><path
         id="path32"
         style="fill:none;stroke:#231f20;stroke-width:7.5005002;stroke-linecap:butt;stroke-linejoin:miter;stroke-miterlimit:2.61310005;stroke-dasharray:none;stroke-opacity:1"
         d="m 568.883,276.855 216.746,-6.023" /><path
         id="path34"
         style="fill:#231f20;fill-opacity:1;fill-rule:nonzero;stroke:none"
         d="m 1293.3,73.75 0.59,1.8164 h 21.15 c 8.95,0 15.58,-1.0352 19.88,-3.082 4.32,-2.0508 7.77,-5.2852 10.33,-9.6836 2.57,-4.418 3.87,-9.1524 3.87,-14.1992 0,-4.3164 -0.75,-8.5352 -2.23,-12.6172 -1.49,-4.0821 -3.15,-7.3477 -5.03,-9.8164 -1.87,-2.4492 -4.74,-5.168 -8.62,-8.1328 -3.87,-2.9493 -8.07,-5.1524 -12.58,-6.5664 -4.54,-1.418 -10.19,-2.11724 -16.96,-2.11724 h -28.03 l 0.63,1.80074 c 2.59,0.0665 4.31,0.3008 5.19,0.6836 1.3,0.5664 2.26,1.3164 2.88,2.25 0.93,1.3672 2,4.1133 3.17,8.2461 l 11.71,40.0508 c 0.92,3.1484 1.37,5.6328 1.37,7.418 0,1.2656 -0.42,2.25 -1.26,2.9336 -0.86,0.6797 -2.5,1.0156 -4.99,1.0156 z m 17.34,-1.8516 -14.35,-49.5664 c -1.08,-3.6992 -1.62,-5.9961 -1.62,-6.8789 0,-0.5195 0.17,-1.0195 0.52,-1.5195 0.33,-0.4844 0.8,-0.7969 1.38,-0.9648 0.85,-0.3008 2.22,-0.4532 4.1,-0.4532 5.12,0 9.87,0.5352 14.23,1.6016 4.39,1.0508 7.97,2.6172 10.77,4.7031 3.98,3.0313 7.15,7.1992 9.53,12.4961 2.37,5.3164 3.55,11.3516 3.55,18.1172 0,7.6484 -1.81,13.3516 -5.46,17.0664 -3.64,3.7344 -8.97,5.6016 -15.97,5.6016 -1.72,0 -3.95,-0.0704 -6.68,-0.2032" /><path
         id="path36"
         style="fill:#231f20;fill-opacity:1;fill-rule:nonzero;stroke:none"
         d="m 767.953,235.27 20.449,-51.918 11.082,38.785 c 0.918,3.183 1.368,5.648 1.368,7.414 0,1.203 -0.418,2.152 -1.266,2.836 -0.852,0.683 -2.418,1.015 -4.734,1.015 -0.383,0 -0.797,0.016 -1.215,0.051 l 0.531,1.817 h 21.285 l -0.586,-1.817 c -2.215,0.031 -3.847,-0.187 -4.929,-0.683 -1.536,-0.684 -2.668,-1.571 -3.418,-2.633 -1.036,-1.535 -2.102,-4.203 -3.168,-8 L 787.77,167.535 h -1.75 l -22.032,55.867 -11.769,-41.265 c -0.867,-3.117 -1.317,-5.52 -1.317,-7.168 0,-1.25 0.399,-2.184 1.2,-2.817 0.8,-0.632 2.703,-1.066 5.683,-1.3 l -0.48,-1.801 h -20.801 l 0.684,1.801 c 2.597,0.07 4.347,0.3 5.23,0.683 1.336,0.602 2.32,1.352 2.969,2.301 0.949,1.434 2,4.199 3.183,8.301 l 13.133,46.047 c -1.269,1.953 -2.633,3.3 -4.082,4.035 -1.453,0.719 -3.703,1.133 -6.769,1.234 l 0.55,1.817 h 16.551" /><path
         id="path38"
         style="fill:#231f20;fill-opacity:1;fill-rule:nonzero;stroke:none"
         d="m 551.004,247.32 6.117,-53.332 38.418,53.332 h 16.164 v -1.816 c -3.519,-0.215 -5.586,-0.449 -6.199,-0.684 -1.082,-0.414 -2.066,-1.265 -2.949,-2.531 -0.899,-1.269 -1.867,-3.719 -2.918,-7.336 l -12.25,-41.98 c -0.715,-2.45 -1.067,-4.368 -1.067,-5.766 0,-1.269 0.434,-2.234 1.317,-2.883 1.234,-0.933 3.183,-1.418 5.851,-1.418 h 1.184 l -0.453,-1.801 H 566.34 l 0.496,1.801 h 1.316 c 2.469,0 4.352,0.364 5.668,1.082 1,0.516 1.899,1.5 2.7,2.95 0.8,1.449 1.918,4.667 3.351,9.652 l 10.934,38.363 -38.617,-53.848 h -1.95 l -6.218,53.848 -11.817,-40.965 c -1,-3.484 -1.5,-5.816 -1.5,-7.015 0,-1.219 0.434,-2.133 1.317,-2.766 0.867,-0.637 3,-1.07 6.402,-1.301 l -0.551,-1.801 h -21.816 l 0.535,1.801 h 1.312 c 3.219,0 5.551,0.817 6.985,2.449 1.031,1.168 2.133,3.715 3.265,7.618 l 14.418,49.367 c -1.082,1.098 -2.101,1.848 -3.086,2.25 -0.98,0.383 -2.781,0.699 -5.414,0.914 l 0.485,1.816 h 16.449" /></g></g></svg>