<?xml version="1.0" encoding="UTF-8" standalone="no"?>
<svg
   xmlns:dc="http://purl.org/dc/elements/1.1/"
   xmlns:cc="http://creativecommons.org/ns#"
   xmlns:rdf="http://www.w3.org/1999/02/22-rdf-syntax-ns#"
   xmlns:svg="http://www.w3.org/2000/svg"
   xmlns="http://www.w3.org/2000/svg"
   viewBox="0 0 138.66667 98.666664"
   height="98.666664"
   width="138.66667"
   xml:space="preserve"
   id="svg2"
   version="1.1"><metadata
     id="metadata8"><rdf:RDF><cc:Work
         rdf:about=""><dc:format>image/svg+xml</dc:format><dc:type
           rdf:resource="http://purl.org/dc/dcmitype/StillImage" /></cc:Work></rdf:RDF></metadata><defs
     id="defs6" /><g
     transform="matrix(1.3333333,0,0,-1.3333333,0,98.666667)"
     id="g10"><g
       transform="scale(0.1)"
       id="g12"><path
         id="path14"
         style="fill:#231f20;fill-opacity:1;fill-rule:nonzero;stroke:none"
         d="M 335.156,446.133 351.273,454 h 1.618 v -55.914 c 0,-3.703 0.152,-6.02 0.449,-6.934 0.32,-0.902 0.969,-1.601 1.933,-2.101 0.985,-0.485 2.969,-0.766 5.969,-0.832 v -1.801 h -24.918 v 1.801 c 3.133,0.066 5.153,0.332 6.067,0.816 0.902,0.465 1.535,1.098 1.898,1.899 0.352,0.8 0.539,3.183 0.539,7.152 v 35.75 c 0,4.816 -0.168,7.898 -0.484,9.266 -0.235,1.046 -0.653,1.816 -1.25,2.296 -0.602,0.485 -1.317,0.735 -2.168,0.735 -1.203,0 -2.883,-0.5 -5.035,-1.516 l -0.735,1.516" /><path
         id="path16"
         style="fill:#231f20;fill-opacity:1;fill-rule:nonzero;stroke:none"
         d="m 377.059,419.133 c 0,7.551 1.132,14.051 3.414,19.5 2.285,5.453 5.3,9.515 9.086,12.183 2.933,2.118 5.949,3.184 9.082,3.184 5.066,0 9.636,-2.598 13.668,-7.766 5.05,-6.418 7.566,-15.101 7.566,-26.086 0,-7.679 -1.098,-14.199 -3.316,-19.562 -2.215,-5.383 -5.036,-9.285 -8.465,-11.703 -3.434,-2.43 -6.75,-3.633 -9.949,-3.633 -6.305,0 -11.571,3.719 -15.77,11.184 -3.551,6.281 -5.316,13.851 -5.316,22.699 z m 9.566,-1.215 c 0,-9.117 1.117,-16.566 3.367,-22.316 1.848,-4.852 4.633,-7.286 8.301,-7.286 1.766,0 3.582,0.801 5.465,2.368 1.898,1.586 3.332,4.234 4.301,7.933 1.5,5.598 2.25,13.5 2.25,23.684 0,7.547 -0.786,13.847 -2.352,18.898 -1.168,3.75 -2.684,6.399 -4.531,7.969 -1.336,1.066 -2.949,1.598 -4.836,1.598 -2.215,0 -4.18,-0.985 -5.914,-2.965 -2.336,-2.703 -3.934,-6.949 -4.781,-12.75 -0.852,-5.801 -1.27,-11.5 -1.27,-17.133" /><path
         id="path18"
         style="fill:none;stroke:#231f20;stroke-width:7.5005002;stroke-linecap:butt;stroke-linejoin:miter;stroke-miterlimit:2.61310005;stroke-dasharray:none;stroke-opacity:1"
         d="M 8.91016,91.6641 H 1030.52" /><path
         id="path20"
         style="fill:none;stroke:#231f20;stroke-width:7.5005002;stroke-linecap:butt;stroke-linejoin:miter;stroke-miterlimit:2.61310005;stroke-dasharray:none;stroke-opacity:1"
         d="m 303.809,643.613 h 434.64" /><path
         id="path22"
         style="fill:none;stroke:#231f20;stroke-width:7.5005002;stroke-linecap:butt;stroke-linejoin:miter;stroke-miterlimit:2.61310005;stroke-dasharray:none;stroke-opacity:1"
         d="M 8.91016,91.6641 306.492,644.336" /><path
         id="path24"
         style="fill:none;stroke:#231f20;stroke-width:7.5005002;stroke-linecap:butt;stroke-linejoin:miter;stroke-miterlimit:2.61310005;stroke-dasharray:none;stroke-opacity:1"
         d="M 737.316,644.262 1030.52,91.6641" /><path
         id="path26"
         style="fill:none;stroke:#231f20;stroke-width:7.5005002;stroke-linecap:butt;stroke-linejoin:miter;stroke-miterlimit:2.61310005;stroke-dasharray:none;stroke-opacity:1"
         d="M 307.496,90.2891 V 644.07" /><path
         id="path28"
         style="fill:none;stroke:#231f20;stroke-width:5.00029993;stroke-linecap:butt;stroke-linejoin:miter;stroke-miterlimit:2.61310005;stroke-dasharray:none;stroke-opacity:1"
         d="m 307.57,94.9062 h 104.371 v 70.7617 H 307.57 Z" /><path
         id="path30"
         style="fill:#231f20;fill-opacity:1;fill-rule:nonzero;stroke:none"
         d="m 558.246,736.34 v -1.817 c -4.281,-0.414 -7.797,-1.265 -10.516,-2.562 -2.714,-1.285 -5.398,-3.234 -8.05,-5.887 -2.649,-2.633 -4.848,-5.566 -6.598,-8.797 -1.734,-3.254 -3.199,-7.101 -4.367,-11.55 4.683,3.214 9.383,4.832 14.117,4.832 4.516,0 8.449,-1.836 11.766,-5.465 3.316,-3.653 4.984,-8.336 4.984,-14.071 0,-5.531 -1.684,-10.578 -5.035,-15.132 -4.031,-5.532 -9.383,-8.301 -16.016,-8.301 -4.531,0 -8.367,1.504 -11.531,4.484 -6.184,5.836 -9.27,13.383 -9.27,22.668 0,5.918 1.184,11.551 3.567,16.883 2.367,5.352 5.769,10.086 10.187,14.219 4.399,4.133 8.629,6.914 12.664,8.347 4.032,1.434 7.801,2.149 11.286,2.149 z M 527.883,702.16 C 527.297,697.762 527,694.207 527,691.508 c 0,-3.117 0.582,-6.516 1.734,-10.184 1.164,-3.648 2.883,-6.562 5.164,-8.715 1.649,-1.515 3.668,-2.281 6.051,-2.281 2.832,0 5.367,1.332 7.582,4 2.235,2.664 3.352,6.481 3.352,11.43 0,5.566 -1.102,10.383 -3.317,14.453 -2.218,4.066 -5.351,6.098 -9.433,6.098 -1.235,0 -2.551,-0.266 -3.969,-0.782 -1.414,-0.519 -3.516,-1.652 -6.281,-3.367" /><path
         id="path32"
         style="fill:#231f20;fill-opacity:1;fill-rule:nonzero;stroke:none"
         d="M 143.496,68.75 H 178.98 V 66.8789 L 156.914,1.16797 h -5.469 L 171.23,60.7812 h -18.214 c -3.688,0 -6.301,-0.4296 -7.871,-1.3164 -2.731,-1.5 -4.93,-3.8007 -6.583,-6.9336 l -1.414,0.5352 6.348,15.6836" /><path
         id="path34"
         style="fill:#231f20;fill-opacity:1;fill-rule:nonzero;stroke:none"
         d="m 649.465,63.2461 16.117,7.8672 h 1.613 V 15.1992 c 0,-3.7031 0.153,-6.01951 0.453,-6.93358 0.317,-0.90234 0.965,-1.60156 1.934,-2.10156 0.98,-0.48437 2.965,-0.76562 5.965,-0.83203 V 3.53125 h -24.914 v 1.80078 c 3.129,0.06641 5.148,0.33203 6.062,0.81641 0.903,0.46484 1.535,1.09765 1.903,1.89844 0.351,0.80078 0.535,3.18362 0.535,7.15232 v 35.75 c 0,4.8125 -0.168,7.8985 -0.485,9.2656 -0.234,1.0469 -0.648,1.8164 -1.25,2.2969 -0.601,0.4844 -1.316,0.7344 -2.168,0.7344 -1.199,0 -2.882,-0.5 -5.031,-1.5156 l -0.734,1.5156" /><path
         id="path36"
         style="fill:#231f20;fill-opacity:1;fill-rule:nonzero;stroke:none"
         d="M 733.598,16.2812 728.961,3.53125 h -39.066 v 1.80078 c 11.488,10.48047 19.585,19.04687 24.269,25.68357 4.684,6.6485 7.031,12.7149 7.031,18.2149 0,4.1992 -1.281,7.6484 -3.867,10.3476 -2.562,2.7031 -5.633,4.0508 -9.215,4.0508 -3.265,0 -6.179,-0.9492 -8.765,-2.8477 -2.582,-1.9023 -4.5,-4.6992 -5.735,-8.3671 h -1.816 c 0.816,6.0156 2.902,10.6328 6.281,13.8671 3.367,3.2149 7.57,4.8321 12.617,4.8321 5.371,0 9.852,-1.7305 13.45,-5.1836 3.601,-3.4492 5.402,-7.5156 5.402,-12.1992 0,-3.3516 -0.781,-6.7188 -2.352,-10.0664 -2.398,-5.2696 -6.312,-10.8477 -11.715,-16.75 -8.101,-8.8516 -13.168,-14.1836 -15.183,-16.0157 h 17.285 c 3.516,0 5.98,0.1328 7.398,0.3985 1.418,0.25 2.7,0.7812 3.832,1.582 1.133,0.8008 2.133,1.9375 2.985,3.4023 h 1.801" /></g></g></svg>