<?xml version="1.0" encoding="UTF-8" standalone="no"?>
<svg
   xmlns:dc="http://purl.org/dc/elements/1.1/"
   xmlns:cc="http://creativecommons.org/ns#"
   xmlns:rdf="http://www.w3.org/1999/02/22-rdf-syntax-ns#"
   xmlns:svg="http://www.w3.org/2000/svg"
   xmlns="http://www.w3.org/2000/svg"
   viewBox="0 0 125.33333 165.33333"
   height="165.33333"
   width="125.33333"
   xml:space="preserve"
   id="svg2"
   version="1.1"><metadata
     id="metadata8"><rdf:RDF><cc:Work
         rdf:about=""><dc:format>image/svg+xml</dc:format><dc:type
           rdf:resource="http://purl.org/dc/dcmitype/StillImage" /></cc:Work></rdf:RDF></metadata><defs
     id="defs6" /><g
     transform="matrix(1.3333333,0,0,-1.3333333,0,165.33333)"
     id="g10"><g
       transform="scale(0.1)"
       id="g12"><path
         id="path14"
         style="fill:#231f20;fill-opacity:1;fill-rule:nonzero;stroke:none"
         d="m 847.34,655.051 16.121,7.867 h 1.613 v -55.914 c 0,-3.703 0.153,-6.02 0.453,-6.934 0.317,-0.902 0.965,-1.601 1.93,-2.101 0.984,-0.485 2.969,-0.766 5.969,-0.832 v -1.801 h -24.918 v 1.801 c 3.133,0.066 5.152,0.332 6.066,0.816 0.903,0.465 1.535,1.098 1.903,1.899 0.347,0.8 0.535,3.183 0.535,7.152 v 35.75 c 0,4.816 -0.168,7.898 -0.485,9.266 -0.234,1.046 -0.652,1.816 -1.25,2.296 -0.601,0.489 -1.316,0.735 -2.168,0.735 -1.203,0 -2.882,-0.5 -5.035,-1.516 l -0.734,1.516" /><path
         id="path16"
         style="fill:#231f20;fill-opacity:1;fill-rule:nonzero;stroke:none"
         d="m 895.691,661.551 h 35.485 v -1.867 l -22.067,-65.715 h -5.468 l 19.785,59.613 h -18.215 c -3.688,0 -6.301,-0.43 -7.871,-1.312 -2.731,-1.5 -4.93,-3.801 -6.582,-6.934 l -1.414,0.531 6.347,15.684" /><path
         id="path18"
         style="fill:none;stroke:#231f20;stroke-width:5.00029993;stroke-linecap:butt;stroke-linejoin:miter;stroke-miterlimit:2.61310005;stroke-dasharray:25.0015, 25.0015;stroke-dashoffset:0;stroke-opacity:1"
         d="m 56.375,617.402 h 614.98" /><path
         id="path20"
         style="fill:none;stroke:#231f20;stroke-width:7.5005002;stroke-linecap:butt;stroke-linejoin:miter;stroke-miterlimit:2.61310005;stroke-dasharray:none;stroke-opacity:1"
         d="M 505.387,1230.14 826.332,11.2617" /><path
         id="path22"
         style="fill:none;stroke:#231f20;stroke-width:5.00029993;stroke-linecap:butt;stroke-linejoin:miter;stroke-miterlimit:2.61310005;stroke-dasharray:none;stroke-opacity:1"
         d="m 768.996,1175.61 h 56.7656 v 53.7344 H 768.996 Z" /><path
         id="path24"
         style="fill:none;stroke:#231f20;stroke-width:7.5005002;stroke-linecap:butt;stroke-linejoin:miter;stroke-miterlimit:2.61310005;stroke-dasharray:none;stroke-opacity:1"
         d="M 6.23828,286.203 53.9492,259.664" /><path
         id="path26"
         style="fill:none;stroke:#231f20;stroke-width:7.5005002;stroke-linecap:butt;stroke-linejoin:miter;stroke-miterlimit:2.61310005;stroke-dasharray:none;stroke-opacity:1"
         d="M 59.1211,935.449 106.832,908.914" /><path
         id="path28"
         style="fill:none;stroke:#231f20;stroke-width:7.5005002;stroke-linecap:butt;stroke-linejoin:miter;stroke-miterlimit:2.61310005;stroke-dasharray:none;stroke-opacity:1"
         d="m 714.801,299.637 65.976,22.015" /><path
         id="path30"
         style="fill:none;stroke:#231f20;stroke-width:7.5005002;stroke-linecap:butt;stroke-linejoin:miter;stroke-miterlimit:2.61310005;stroke-dasharray:none;stroke-opacity:1"
         d="m 720.109,278.379 65.977,22.019" /><path
         id="path32"
         style="fill:none;stroke:#231f20;stroke-width:7.5005002;stroke-linecap:butt;stroke-linejoin:miter;stroke-miterlimit:2.61310005;stroke-dasharray:none;stroke-opacity:1"
         d="m 545.414,945.629 65.977,22.016" /><path
         id="path34"
         style="fill:none;stroke:#231f20;stroke-width:7.5005002;stroke-linecap:butt;stroke-linejoin:miter;stroke-miterlimit:2.61310005;stroke-dasharray:none;stroke-opacity:1"
         d="m 550.723,924.371 65.976,22.016" /><path
         id="path36"
         style="fill:#231f20;fill-opacity:1;fill-rule:nonzero;stroke:none"
         d="m 373.77,703.465 v -1.817 c -4.282,-0.418 -7.797,-1.269 -10.516,-2.566 -2.715,-1.285 -5.399,-3.234 -8.051,-5.883 -2.644,-2.633 -4.848,-5.57 -6.598,-8.801 -1.73,-3.25 -3.199,-7.101 -4.367,-11.55 4.684,3.218 9.383,4.832 14.117,4.832 4.516,0 8.45,-1.832 11.766,-5.465 3.317,-3.649 4.984,-8.332 4.984,-14.067 0,-5.535 -1.683,-10.582 -5.035,-15.132 -4.031,-5.536 -9.382,-8.301 -16.015,-8.301 -4.532,0 -8.367,1.5 -11.532,4.484 -6.183,5.832 -9.265,13.383 -9.265,22.664 0,5.918 1.18,11.551 3.562,16.887 2.368,5.348 5.77,10.082 10.188,14.215 4.398,4.133 8.629,6.918 12.664,8.351 4.035,1.43 7.801,2.149 11.285,2.149 z m -30.364,-34.184 c -0.582,-4.398 -0.883,-7.949 -0.883,-10.648 0,-3.117 0.582,-6.516 1.735,-10.184 1.164,-3.648 2.883,-6.566 5.164,-8.719 1.648,-1.515 3.668,-2.281 6.051,-2.281 2.832,0 5.367,1.332 7.582,4 2.234,2.668 3.351,6.485 3.351,11.434 0,5.566 -1.097,10.383 -3.316,14.449 -2.215,4.066 -5.352,6.102 -9.434,6.102 -1.234,0 -2.551,-0.27 -3.968,-0.786 -1.415,-0.515 -3.516,-1.652 -6.282,-3.367" /><path
         id="path38"
         style="fill:none;stroke:#231f20;stroke-width:5.00029993;stroke-linecap:butt;stroke-linejoin:miter;stroke-miterlimit:2.61310005;stroke-dasharray:25.0015, 25.0015;stroke-dashoffset:0;stroke-opacity:1"
         d="M 825.762,13.2031 V 1225.27" /><path
         id="path40"
         style="fill:none;stroke:#231f20;stroke-width:7.5005002;stroke-linecap:butt;stroke-linejoin:miter;stroke-miterlimit:2.61310005;stroke-dasharray:none;stroke-opacity:1"
         d="M 10.2148,12.0977 105.262,1229.04" /><path
         id="path42"
         style="fill:none;stroke:#231f20;stroke-width:7.5005002;stroke-linecap:butt;stroke-linejoin:miter;stroke-miterlimit:2.61310005;stroke-dasharray:none;stroke-opacity:1"
         d="M 104.906,1229.5 H 510.707" /><path
         id="path44"
         style="fill:none;stroke:#231f20;stroke-width:7.5005002;stroke-linecap:butt;stroke-linejoin:miter;stroke-miterlimit:2.61310005;stroke-dasharray:none;stroke-opacity:1"
         d="M 5.77344,12.0977 H 829.492" /><path
         id="path46"
         style="fill:none;stroke:#231f20;stroke-width:5.00029993;stroke-linecap:butt;stroke-linejoin:miter;stroke-miterlimit:2.61310005;stroke-dasharray:25.0015, 25.0015;stroke-dashoffset:0;stroke-opacity:1"
         d="M 510.707,1229.5 H 942.703" /></g></g></svg>