<?xml version="1.0" encoding="UTF-8" standalone="no"?>
<svg
   xmlns:dc="http://purl.org/dc/elements/1.1/"
   xmlns:cc="http://creativecommons.org/ns#"
   xmlns:rdf="http://www.w3.org/1999/02/22-rdf-syntax-ns#"
   xmlns:svg="http://www.w3.org/2000/svg"
   xmlns="http://www.w3.org/2000/svg"
   viewBox="0 0 152 82.666664"
   height="82.666664"
   width="152"
   xml:space="preserve"
   id="svg2"
   version="1.1"><metadata
     id="metadata8"><rdf:RDF><cc:Work
         rdf:about=""><dc:format>image/svg+xml</dc:format><dc:type
           rdf:resource="http://purl.org/dc/dcmitype/StillImage" /></cc:Work></rdf:RDF></metadata><defs
     id="defs6" /><g
     transform="matrix(1.3333333,0,0,-1.3333333,0,82.666667)"
     id="g10"><g
       transform="scale(0.1)"
       id="g12"><path
         id="path14"
         style="fill:#231f20;fill-opacity:1;fill-rule:nonzero;stroke:none"
         d="M 58.7539,107.336 53.7227,52.2695 c -0.2696,-2.582 -0.3829,-4.2656 -0.3829,-5.082 0,-1.3008 0.2305,-2.3008 0.7344,-2.9844 0.6133,-0.9336 1.4453,-1.6328 2.5,-2.1015 1.0664,-0.4493 2.8477,-0.6797 5.3477,-0.6797 L 61.3906,39.6211 H 35.3203 l 0.5352,1.8008 h 1.1172 c 2.1171,0 3.8515,0.4648 5.1835,1.3633 0.9336,0.6367 1.668,1.6523 2.1993,3.0859 0.3476,1.0156 0.6992,3.3828 1.0195,7.1328 l 0.7812,8.3984 H 27.207 l -6.7343,-9.1328 c -1.5313,-2.0507 -2.4844,-3.5312 -2.8829,-4.414 -0.3828,-0.9024 -0.5859,-1.7344 -0.5859,-2.5196 0,-1.0507 0.418,-1.9297 1.2695,-2.6836 0.8477,-0.7461 2.25,-1.164 4.1993,-1.2304 L 21.9414,39.6211 H 2.35547 l 0.53125,1.8008 c 2.41797,0.0976 4.53906,0.914 6.38672,2.4179 1.83206,1.5157 4.56636,4.7461 8.21486,9.6993 L 57.0391,107.336 Z M 49.0898,91.0859 29.8867,64.9688 h 16.6524 l 2.5507,26.1171" /><path
         id="path16"
         style="fill:none;stroke:#231f20;stroke-width:7.5005002;stroke-linecap:butt;stroke-linejoin:miter;stroke-miterlimit:2.61310005;stroke-dasharray:none;stroke-opacity:1"
         d="M 97.6602,101.801 1049.14,98.1289" /><path
         id="path18"
         style="fill:none;stroke:#231f20;stroke-width:7.5005002;stroke-linecap:butt;stroke-linejoin:miter;stroke-miterlimit:2.61310005;stroke-dasharray:none;stroke-opacity:1"
         d="M 805.684,523.816 802.652,100.148" /><path
         id="path20"
         style="fill:#231f20;fill-opacity:1;fill-rule:nonzero;stroke:none"
         d="m 873.695,595.59 -4.929,-21.434 h -1.77 l -0.184,5.383 c -0.164,1.953 -0.546,3.684 -1.132,5.219 -0.582,1.531 -1.469,2.851 -2.633,3.984 -1.168,1.113 -2.652,1.996 -4.449,2.633 -1.786,0.633 -3.77,0.949 -5.953,0.949 -5.833,0 -10.915,-1.601 -15.282,-4.785 -5.566,-4.062 -9.933,-9.816 -13.082,-17.23 -2.601,-6.118 -3.918,-12.317 -3.918,-18.602 0,-6.418 1.883,-11.535 5.614,-15.367 3.753,-3.817 8.617,-5.735 14.601,-5.735 4.535,0 8.567,1.02 12.086,3.036 3.531,2.015 6.816,5.117 9.848,9.316 h 2.285 c -3.567,-5.699 -7.551,-9.883 -11.902,-12.566 -4.364,-2.684 -9.598,-4.032 -15.684,-4.032 -5.399,0 -10.18,1.133 -14.348,3.399 -4.168,2.265 -7.351,5.433 -9.515,9.547 -2.188,4.101 -3.286,8.504 -3.286,13.234 0,7.219 1.95,14.25 5.817,21.086 3.867,6.832 9.183,12.215 15.933,16.113 6.766,3.903 13.567,5.852 20.454,5.852 3.211,0 6.828,-0.75 10.828,-2.281 1.754,-0.653 3.035,-0.985 3.801,-0.985 0.785,0 1.468,0.164 2.066,0.481 0.586,0.336 1.551,1.269 2.918,2.785 h 1.816" /><path
         id="path22"
         style="fill:#231f20;fill-opacity:1;fill-rule:nonzero;stroke:none"
         d="m 781.242,40.4141 h 30.547 l 4.852,16.3671 c 0.902,3.1836 1.367,5.6485 1.367,7.418 0,0.8477 -0.215,1.5625 -0.617,2.1641 -0.399,0.6015 -1.036,1.0508 -1.883,1.3515 -0.848,0.2813 -2.5,0.4336 -4.985,0.4336 l 0.5,1.8164 h 26.649 l -0.578,-1.8164 c -2.254,0.0313 -3.918,-0.1836 -5.035,-0.6836 -1.551,-0.6836 -2.715,-1.5664 -3.469,-2.6328 -1.063,-1.5351 -2.164,-4.2187 -3.266,-8.0508 l -11.664,-40 c -0.984,-3.3164 -1.469,-5.6992 -1.469,-7.11714 0,-1.25 0.434,-2.18359 1.301,-2.8164 0.848,-0.63282 2.914,-1.06641 6.168,-1.30078 L 819.125,3.75 h -25.781 l 0.683,1.79688 c 2.532,0.07031 4.231,0.30078 5.082,0.68359 1.301,0.60156 2.25,1.35156 2.832,2.25 0.832,1.26953 1.883,4.03513 3.118,8.30073 l 5.964,20.2696 h -30.714 l -6.016,-20.2696 c -0.934,-3.25 -1.402,-5.6328 -1.402,-7.11714 0,-1.25 0.418,-2.18359 1.269,-2.8164 0.832,-0.63282 2.899,-1.06641 6.149,-1.30078 L 779.91,3.75 h -25.969 l 0.633,1.79688 c 2.567,0.07031 4.285,0.30078 5.133,0.68359 1.301,0.60156 2.25,1.35156 2.871,2.25 0.848,1.33203 1.899,4.10153 3.129,8.30073 l 11.719,40 c 0.949,3.25 1.414,5.7188 1.414,7.418 0,0.8477 -0.195,1.5625 -0.613,2.1641 -0.399,0.6015 -1.036,1.0508 -1.903,1.3515 -0.863,0.2813 -2.547,0.4336 -5.047,0.4336 l 0.582,1.8164 h 26.118 l -0.536,-1.8164 c -2.183,0.0313 -3.785,-0.1836 -4.832,-0.6836 -1.535,-0.6484 -2.652,-1.5156 -3.367,-2.582 -0.984,-1.4336 -2.051,-4.1367 -3.219,-8.1016 l -4.781,-16.3671" /><path
         id="path24"
         style="fill:none;stroke:#231f20;stroke-width:7.5005002;stroke-linecap:butt;stroke-linejoin:miter;stroke-miterlimit:2.61310005;stroke-dasharray:none;stroke-opacity:1"
         d="M 100.762,101.062 344.941,527.633" /><path
         id="path26"
         style="fill:none;stroke:#231f20;stroke-width:7.5005002;stroke-linecap:butt;stroke-linejoin:miter;stroke-miterlimit:2.61310005;stroke-dasharray:none;stroke-opacity:1"
         d="M 1052.57,95.0117 808.395,521.578" /><path
         id="path28"
         style="fill:none;stroke:#231f20;stroke-width:7.5005002;stroke-linecap:butt;stroke-linejoin:miter;stroke-miterlimit:2.61310005;stroke-dasharray:none;stroke-opacity:1"
         d="m 341.828,526.234 468.871,-3.668" /><path
         id="path30"
         style="fill:#231f20;fill-opacity:1;fill-rule:nonzero;stroke:none"
         d="m 310.477,610.402 0.683,1.821 h 23.637 c 3.965,0 7.496,-0.621 10.613,-1.871 3.102,-1.231 5.438,-2.946 6.988,-5.164 1.547,-2.215 2.313,-4.567 2.313,-7.036 0,-3.816 -1.383,-7.246 -4.133,-10.332 -2.75,-3.066 -7.234,-5.347 -13.449,-6.8 4.016,-1.5 6.949,-3.485 8.851,-5.965 1.879,-2.469 2.832,-5.184 2.832,-8.153 0,-3.281 -0.847,-6.429 -2.55,-9.433 -1.684,-2.981 -3.867,-5.313 -6.516,-6.961 -2.652,-1.668 -5.851,-2.887 -9.601,-3.668 -2.668,-0.551 -6.833,-0.836 -12.5,-0.836 h -24.266 l 0.633,1.801 c 2.55,0.066 4.265,0.316 5.183,0.734 1.301,0.566 2.231,1.297 2.785,2.199 0.782,1.235 1.813,4.067 3.114,8.5 l 11.867,40.082 c 1.019,3.387 1.516,5.766 1.516,7.137 0,1.199 -0.446,2.148 -1.332,2.848 -0.899,0.699 -2.598,1.047 -5.118,1.047 -0.547,0 -1.062,0.019 -1.55,0.05 z m 9.902,-27.484 c 2.117,-0.063 3.648,-0.098 4.598,-0.098 6.769,0 11.8,1.469 15.117,4.418 3.301,2.95 4.953,6.633 4.953,11.067 0,3.347 -1.02,5.965 -3.035,7.832 -2.016,1.867 -5.235,2.801 -9.668,2.801 -1.164,0 -2.664,-0.184 -4.481,-0.583 z m -9.617,-32.613 c 3.519,-0.469 6.265,-0.684 8.25,-0.684 5.086,0 9.582,1.535 13.5,4.586 3.933,3.066 5.883,7.215 5.883,12.449 0,4 -1.2,7.129 -3.633,9.383 -2.418,2.25 -6.332,3.367 -11.731,3.367 -1.054,0 -2.32,-0.051 -3.82,-0.152 l -8.449,-28.949" /><path
         id="path32"
         style="fill:#231f20;fill-opacity:1;fill-rule:nonzero;stroke:none"
         d="m 1083.89,108.797 0.59,1.816 h 21.14 c 8.96,0 15.59,-1.035 19.89,-3.086 4.32,-2.047 7.77,-5.281 10.33,-9.6793 2.57,-4.418 3.87,-9.1524 3.87,-14.1993 0,-4.3164 -0.75,-8.5351 -2.24,-12.6172 -1.48,-4.0859 -3.15,-7.3515 -5.03,-9.8164 -1.87,-2.4531 -4.73,-5.1679 -8.62,-8.1367 -3.86,-2.9453 -8.06,-5.1484 -12.58,-6.5625 -4.53,-1.4179 -10.18,-2.1172 -16.95,-2.1172 h -28.03 l 0.63,1.7969 c 2.59,0.0703 4.3,0.3008 5.19,0.6836 1.3,0.5664 2.26,1.3203 2.88,2.25 0.93,1.3672 2,4.1172 3.16,8.25 l 11.72,40.0508 c 0.92,3.1483 1.37,5.6323 1.37,7.4183 0,1.265 -0.42,2.246 -1.26,2.929 -0.86,0.684 -2.5,1.02 -4.99,1.02 z m 17.34,-1.852 -14.35,-49.5661 c -1.09,-3.6992 -1.62,-5.9961 -1.62,-6.8828 0,-0.5156 0.17,-1.0156 0.52,-1.5156 0.33,-0.4844 0.79,-0.8008 1.38,-0.9649 0.85,-0.3008 2.22,-0.4531 4.1,-0.4531 5.12,0 9.86,0.5352 14.23,1.6016 4.39,1.0507 7.97,2.6171 10.77,4.6992 3.98,3.0351 7.15,7.1992 9.53,12.5 2.37,5.3164 3.55,11.3476 3.55,18.1172 0,7.6484 -1.82,13.3476 -5.46,17.0665 -3.64,3.73 -8.97,5.601 -15.97,5.601 -1.72,0 -3.95,-0.07 -6.68,-0.203" /></g></g></svg>