<?xml version="1.0" encoding="UTF-8" standalone="no"?>
<svg
   xmlns:dc="http://purl.org/dc/elements/1.1/"
   xmlns:cc="http://creativecommons.org/ns#"
   xmlns:rdf="http://www.w3.org/1999/02/22-rdf-syntax-ns#"
   xmlns:svg="http://www.w3.org/2000/svg"
   xmlns="http://www.w3.org/2000/svg"
   viewBox="0 0 176 108"
   height="108"
   width="176"
   xml:space="preserve"
   id="svg2"
   version="1.1"><metadata
     id="metadata8"><rdf:RDF><cc:Work
         rdf:about=""><dc:format>image/svg+xml</dc:format><dc:type
           rdf:resource="http://purl.org/dc/dcmitype/StillImage" /></cc:Work></rdf:RDF></metadata><defs
     id="defs6" /><g
     transform="matrix(1.3333333,0,0,-1.3333333,0,108)"
     id="g10"><g
       transform="scale(0.1)"
       id="g12"><path
         id="path14"
         style="fill:#231f20;fill-opacity:1;fill-rule:nonzero;stroke:none"
         d="m 1228.87,425.582 16.12,7.867 h 1.62 v -55.914 c 0,-3.703 0.14,-6.019 0.44,-6.933 0.33,-0.903 0.97,-1.602 1.94,-2.102 0.98,-0.484 2.97,-0.766 5.97,-0.832 v -1.801 h -24.92 v 1.801 c 3.13,0.066 5.15,0.332 6.07,0.816 0.9,0.469 1.53,1.098 1.89,1.899 0.36,0.801 0.54,3.183 0.54,7.152 v 35.75 c 0,4.817 -0.16,7.899 -0.49,9.266 -0.23,1.051 -0.64,1.816 -1.25,2.301 -0.6,0.484 -1.31,0.73 -2.16,0.73 -1.2,0 -2.88,-0.5 -5.03,-1.516 l -0.74,1.516" /><path
         id="path16"
         style="fill:#231f20;fill-opacity:1;fill-rule:nonzero;stroke:none"
         d="m 1270.77,398.586 c 0,7.547 1.14,14.047 3.42,19.496 2.28,5.453 5.3,9.516 9.08,12.184 2.93,2.117 5.95,3.183 9.09,3.183 5.06,0 9.63,-2.597 13.66,-7.765 5.05,-6.418 7.57,-15.102 7.57,-26.086 0,-7.68 -1.1,-14.196 -3.32,-19.563 -2.22,-5.383 -5.03,-9.285 -8.47,-11.703 -3.42,-2.43 -6.74,-3.633 -9.94,-3.633 -6.31,0 -11.57,3.719 -15.77,11.188 -3.55,6.281 -5.32,13.847 -5.32,22.699 z m 9.57,-1.219 c 0,-9.117 1.12,-16.566 3.37,-22.316 1.84,-4.848 4.63,-7.285 8.3,-7.285 1.76,0 3.58,0.804 5.46,2.367 1.9,1.586 3.33,4.234 4.3,7.933 1.5,5.598 2.25,13.5 2.25,23.684 0,7.551 -0.78,13.852 -2.35,18.898 -1.17,3.75 -2.68,6.403 -4.53,7.969 -1.34,1.067 -2.95,1.598 -4.84,1.598 -2.21,0 -4.18,-0.985 -5.91,-2.965 -2.34,-2.699 -3.93,-6.949 -4.78,-12.75 -0.85,-5.801 -1.27,-11.5 -1.27,-17.133" /><path
         id="path18"
         style="fill:none;stroke:#231f20;stroke-width:7.5005002;stroke-linecap:butt;stroke-linejoin:miter;stroke-miterlimit:2.61310005;stroke-dasharray:none;stroke-opacity:1"
         d="M 450.266,710.367 H 1199.88" /><path
         id="path20"
         style="fill:none;stroke:#231f20;stroke-width:7.5005002;stroke-linecap:butt;stroke-linejoin:miter;stroke-miterlimit:2.61310005;stroke-dasharray:none;stroke-opacity:1"
         d="M 451.035,711.23 10.8008,99.8398" /><path
         id="path22"
         style="fill:none;stroke:#231f20;stroke-width:7.5005002;stroke-linecap:butt;stroke-linejoin:miter;stroke-miterlimit:2.61310005;stroke-dasharray:none;stroke-opacity:1"
         d="M 454.883,711.473 451.125,101.648" /><path
         id="path24"
         style="fill:none;stroke:#231f20;stroke-width:7.5005002;stroke-linecap:butt;stroke-linejoin:miter;stroke-miterlimit:2.61310005;stroke-dasharray:none;stroke-opacity:1"
         d="M 450.266,710.367 H 1199.88" /><path
         id="path26"
         style="fill:none;stroke:#231f20;stroke-width:7.5005002;stroke-linecap:butt;stroke-linejoin:miter;stroke-miterlimit:2.61310005;stroke-dasharray:none;stroke-opacity:1"
         d="m 1201.37,710.191 -3.76,-609.824" /><path
         id="path28"
         style="fill:none;stroke:#231f20;stroke-width:7.5005002;stroke-linecap:butt;stroke-linejoin:miter;stroke-miterlimit:2.61310005;stroke-dasharray:none;stroke-opacity:1"
         d="M 10.1602,100.191 H 1198.59" /><path
         id="path30"
         style="fill:#231f20;fill-opacity:1;fill-rule:nonzero;stroke:none"
         d="m 794.906,794.309 16.117,7.867 h 1.614 v -55.918 c 0,-3.699 0.152,-6.016 0.453,-6.934 0.316,-0.898 0.965,-1.601 1.933,-2.097 0.981,-0.485 2.965,-0.766 5.965,-0.836 v -1.797 h -24.914 v 1.797 c 3.129,0.07 5.149,0.336 6.063,0.816 0.902,0.469 1.535,1.102 1.902,1.902 0.352,0.801 0.535,3.184 0.535,7.149 v 35.75 c 0,4.816 -0.168,7.902 -0.484,9.269 -0.235,1.047 -0.649,1.817 -1.25,2.297 -0.602,0.485 -1.317,0.735 -2.168,0.735 -1.199,0 -2.883,-0.5 -5.031,-1.516 l -0.735,1.516" /><path
         id="path32"
         style="fill:#231f20;fill-opacity:1;fill-rule:nonzero;stroke:none"
         d="m 879.039,747.344 -4.637,-12.75 h -39.066 v 1.797 c 11.488,10.484 19.586,19.05 24.269,25.687 4.68,6.649 7.032,12.715 7.032,18.215 0,4.199 -1.282,7.648 -3.867,10.348 -2.563,2.703 -5.633,4.05 -9.215,4.05 -3.266,0 -6.184,-0.949 -8.766,-2.847 -2.582,-1.903 -4.5,-4.699 -5.734,-8.367 h -1.817 c 0.817,6.015 2.903,10.632 6.282,13.867 3.367,3.215 7.57,4.832 12.617,4.832 5.371,0 9.851,-1.735 13.449,-5.184 3.602,-3.453 5.402,-7.515 5.402,-12.199 0,-3.352 -0.781,-6.719 -2.351,-10.07 -2.399,-5.266 -6.313,-10.848 -11.715,-16.746 -8.102,-8.852 -13.168,-14.184 -15.184,-16.016 h 17.285 c 3.516,0 5.981,0.133 7.399,0.398 1.418,0.25 2.699,0.782 3.832,1.582 1.133,0.801 2.133,1.934 2.984,3.403 h 1.801" /><path
         id="path34"
         style="fill:#231f20;fill-opacity:1;fill-rule:nonzero;stroke:none"
         d="m 261.746,40.8477 c -5.234,4.3007 -8.617,7.75 -10.133,10.3515 -1.504,2.6016 -2.265,5.3008 -2.265,8.1016 0,4.2969 1.664,7.9961 4.98,11.1172 3.317,3.0976 7.734,4.664 13.234,4.664 5.333,0 9.633,-1.4492 12.883,-4.3515 3.266,-2.8985 4.883,-6.1993 4.883,-9.9141 0,-2.4648 -0.867,-5 -2.633,-7.5664 -1.75,-2.5664 -5.418,-5.6016 -10.98,-9.0859 5.73,-4.4141 9.515,-7.8985 11.379,-10.4453 2.468,-3.3165 3.703,-6.8204 3.703,-10.5 0,-4.6524 -1.77,-8.6368 -5.317,-11.9336 -3.55,-3.30082 -8.203,-4.95317 -13.968,-4.95317 -6.285,0 -11.18,1.96875 -14.7,5.90237 -2.8,3.164 -4.199,6.6172 -4.199,10.3476 0,2.9336 0.981,5.836 2.965,8.7188 1.969,2.8828 5.352,6.0664 10.168,9.5469 z m 7.664,5.2187 c 3.918,3.5156 6.387,6.3008 7.434,8.332 1.035,2.0352 1.551,4.336 1.551,6.918 0,3.418 -0.95,6.0859 -2.868,8.0156 -1.929,1.9492 -4.547,2.918 -7.863,2.918 -3.316,0 -6.019,-0.9688 -8.102,-2.8867 -2.085,-1.9141 -3.132,-4.1641 -3.132,-6.7305 0,-1.6992 0.433,-3.3828 1.297,-5.082 0.851,-1.6992 2.085,-3.3008 3.687,-4.832 z M 264.047,39 c -2.703,-2.2852 -4.699,-4.7656 -6,-7.4531 -1.301,-2.6797 -1.953,-5.5977 -1.953,-8.7149 0,-4.1992 1.136,-7.5664 3.437,-10.082 2.297,-2.5156 5.215,-3.78516 8.766,-3.78516 3.515,0 6.332,0.98438 8.449,2.98436 2.117,1.9844 3.164,4.3828 3.164,7.2188 0,2.3476 -0.613,4.4492 -1.848,6.2968 -2.316,3.4493 -6.984,7.9688 -14.015,13.5352" /><path
         id="path36"
         style="fill:none;stroke:#231f20;stroke-width:5.00029993;stroke-linecap:butt;stroke-linejoin:miter;stroke-miterlimit:2.61310005;stroke-dasharray:none;stroke-opacity:1"
         d="m 390.523,101.453 h 61.3477 v 63.6914 H 390.523 Z" /><path
         id="path38"
         style="fill:none;stroke:#231f20;stroke-width:5.00029993;stroke-linecap:butt;stroke-linejoin:miter;stroke-miterlimit:2.61310005;stroke-dasharray:none;stroke-opacity:1"
         d="m 1137.54,99.9531 h 61.3477 v 63.6914 H 1137.54 Z" /></g></g></svg>