<?xml version="1.0" encoding="UTF-8" standalone="no"?>
<svg
   xmlns:dc="http://purl.org/dc/elements/1.1/"
   xmlns:cc="http://creativecommons.org/ns#"
   xmlns:rdf="http://www.w3.org/1999/02/22-rdf-syntax-ns#"
   xmlns:svg="http://www.w3.org/2000/svg"
   xmlns="http://www.w3.org/2000/svg"
   viewBox="0 0 146.66667 48"
   height="48"
   width="146.66667"
   xml:space="preserve"
   id="svg2"
   version="1.1"><metadata
     id="metadata8"><rdf:RDF><cc:Work
         rdf:about=""><dc:format>image/svg+xml</dc:format><dc:type
           rdf:resource="http://purl.org/dc/dcmitype/StillImage" /></cc:Work></rdf:RDF></metadata><defs
     id="defs6" /><g
     transform="matrix(1.3333333,0,0,-1.3333333,0,48)"
     id="g10"><g
       transform="scale(0.1)"
       id="g12"><path
         id="path14"
         style="fill:#231f20;fill-opacity:1;fill-rule:nonzero;stroke:none"
         d="M 57.7969,77.4688 52.7617,22.4023 c -0.2656,-2.582 -0.3828,-4.2695 -0.3828,-5.0859 0,-1.2969 0.2305,-2.2969 0.7344,-2.9805 0.6133,-0.9336 1.4492,-1.6328 2.5,-2.1015 1.0664,-0.4492 2.8476,-0.6797 5.3476,-0.6797 L 60.4297,9.75391 H 34.3633 l 0.5312,1.80079 h 1.1172 c 2.1172,0 3.8516,0.4648 5.1836,1.3633 0.9336,0.6367 1.668,1.6523 2.1992,3.0859 0.3516,1.0156 0.7032,3.3828 1.0196,7.1328 l 0.7812,8.3985 H 26.2461 l -6.7344,-9.1329 c -1.5312,-2.0507 -2.4844,-3.5351 -2.8828,-4.414 -0.3828,-0.9024 -0.5859,-1.7344 -0.5859,-2.5195 0,-1.0508 0.4179,-1.9336 1.2695,-2.6836 0.8477,-0.7461 2.25,-1.1641 4.1992,-1.2305 L 20.9805,9.75391 H 1.39453 l 0.53516,1.80079 c 2.41797,0.0976 4.53515,0.9141 6.38281,2.4141 1.832,1.5195 4.5664,4.75 8.2148,9.7031 l 39.5508,53.7969 z m -9.668,-16.25 -19.1992,-26.1172 h 16.6484 l 2.5508,26.1172" /><path
         id="path16"
         style="fill:none;stroke:#231f20;stroke-width:7.5005002;stroke-linecap:butt;stroke-linejoin:miter;stroke-miterlimit:2.61310005;stroke-dasharray:none;stroke-opacity:1"
         d="M 87.6602,41.8008 997.758,38.1289" /><path
         id="path18"
         style="fill:#231f20;fill-opacity:1;fill-rule:nonzero;stroke:none"
         d="m 658.797,351.781 -4.934,-21.429 h -1.769 l -0.18,5.382 c -0.168,1.95 -0.551,3.68 -1.133,5.215 -0.586,1.535 -1.469,2.852 -2.633,3.985 -1.168,1.113 -2.652,2 -4.453,2.632 -1.781,0.633 -3.765,0.954 -5.949,0.954 -5.832,0 -10.914,-1.602 -15.285,-4.786 -5.566,-4.066 -9.93,-9.816 -13.078,-17.234 -2.602,-6.117 -3.918,-12.316 -3.918,-18.598 0,-6.418 1.883,-11.535 5.613,-15.367 3.75,-3.82 8.617,-5.734 14.602,-5.734 4.531,0 8.566,1.015 12.086,3.031 3.531,2.02 6.816,5.117 9.847,9.316 h 2.282 c -3.567,-5.699 -7.547,-9.882 -11.899,-12.562 -4.363,-2.688 -9.601,-4.035 -15.684,-4.035 -5.398,0 -10.183,1.133 -14.347,3.398 -4.168,2.27 -7.352,5.434 -9.516,9.551 -2.187,4.102 -3.285,8.5 -3.285,13.234 0,7.215 1.949,14.25 5.816,21.082 3.864,6.832 9.184,12.215 15.934,16.118 6.766,3.898 13.566,5.847 20.449,5.847 3.215,0 6.832,-0.746 10.832,-2.281 1.75,-0.652 3.035,-0.98 3.801,-0.98 0.781,0 1.465,0.164 2.066,0.48 0.586,0.336 1.551,1.266 2.918,2.781 h 1.817" /><path
         id="path20"
         style="fill:none;stroke:#231f20;stroke-width:7.5005002;stroke-linecap:butt;stroke-linejoin:miter;stroke-miterlimit:2.61310005;stroke-dasharray:none;stroke-opacity:1"
         d="m 506.445,279.371 77.133,-0.656" /><path
         id="path22"
         style="fill:#231f20;fill-opacity:1;fill-rule:nonzero;stroke:none"
         d="m 454.203,348.539 0.68,1.816 h 23.637 c 3.964,0 7.496,-0.617 10.617,-1.867 3.097,-1.234 5.433,-2.949 6.984,-5.168 1.547,-2.215 2.313,-4.566 2.313,-7.035 0,-3.812 -1.383,-7.246 -4.133,-10.332 -2.75,-3.066 -7.231,-5.348 -13.449,-6.801 4.015,-1.496 6.949,-3.48 8.851,-5.964 1.883,-2.465 2.832,-5.184 2.832,-8.149 0,-3.285 -0.847,-6.434 -2.551,-9.434 -1.683,-2.984 -3.867,-5.316 -6.515,-6.964 -2.653,-1.668 -5.852,-2.887 -9.602,-3.668 -2.668,-0.551 -6.832,-0.836 -12.5,-0.836 h -24.265 l 0.632,1.801 c 2.551,0.07 4.266,0.316 5.184,0.734 1.301,0.566 2.234,1.297 2.785,2.199 0.781,1.234 1.813,4.067 3.117,8.5 l 11.864,40.082 c 1.019,3.387 1.515,5.766 1.515,7.137 0,1.199 -0.445,2.148 -1.332,2.848 -0.898,0.699 -2.597,1.05 -5.117,1.05 -0.547,0 -1.062,0.016 -1.547,0.051 z m 9.899,-27.484 c 2.117,-0.067 3.648,-0.102 4.597,-0.102 6.77,0 11.801,1.469 15.117,4.418 3.301,2.949 4.954,6.633 4.954,11.067 0,3.347 -1.02,5.964 -3.036,7.832 -2.015,1.867 -5.234,2.8 -9.668,2.8 -1.164,0 -2.664,-0.183 -4.48,-0.582 z m -9.618,-32.617 c 3.52,-0.469 6.27,-0.684 8.25,-0.684 5.086,0 9.582,1.535 13.5,4.586 3.934,3.066 5.887,7.215 5.887,12.449 0,4 -1.203,7.133 -3.637,9.383 -2.418,2.25 -6.332,3.367 -11.73,3.367 -1.051,0 -2.32,-0.051 -3.82,-0.152 l -8.45,-28.949" /><path
         id="path24"
         style="fill:#231f20;fill-opacity:1;fill-rule:nonzero;stroke:none"
         d="m 1034.93,79.25 0.58,1.8164 h 21.15 c 8.95,0 15.59,-1.0352 19.88,-3.0859 4.32,-2.0469 7.77,-5.2813 10.34,-9.6836 2.57,-4.4141 3.86,-9.1485 3.86,-14.1953 0,-4.3204 -0.74,-8.5352 -2.23,-12.6172 -1.48,-4.086 -3.15,-7.3516 -5.03,-9.8164 -1.87,-2.4532 -4.74,-5.168 -8.62,-8.1368 -3.87,-2.9492 -8.07,-5.1484 -12.58,-6.5664 -4.54,-1.414 -10.19,-2.1171 -16.95,-2.1171 h -28.03 l 0.63,1.8007 c 2.58,0.0704 4.3,0.3008 5.18,0.6836 1.3,0.5664 2.27,1.3203 2.89,2.25 0.93,1.3672 1.99,4.1172 3.16,8.25 l 11.72,40.0508 c 0.91,3.1484 1.36,5.6328 1.36,7.418 0,1.2617 -0.42,2.2461 -1.26,2.9297 -0.85,0.6836 -2.5,1.0195 -4.98,1.0195 z m 17.33,-1.8516 -14.35,-49.5664 c -1.08,-3.6992 -1.62,-6 -1.62,-6.8828 0,-0.5156 0.17,-1.0156 0.52,-1.5156 0.33,-0.4844 0.8,-0.8008 1.39,-0.9688 0.85,-0.3007 2.21,-0.4492 4.09,-0.4492 5.12,0 9.87,0.5313 14.24,1.6016 4.38,1.0469 7.97,2.6172 10.77,4.6992 3.98,3.0352 7.15,7.1992 9.53,12.5 2.37,5.3164 3.55,11.3477 3.55,18.1172 0,7.6484 -1.82,13.3476 -5.47,17.0625 -3.63,3.7344 -8.97,5.6016 -15.96,5.6016 -1.72,0 -3.96,-0.0665 -6.69,-0.1993" /><path
         id="path26"
         style="fill:none;stroke:#231f20;stroke-width:7.5005002;stroke-linecap:butt;stroke-linejoin:miter;stroke-miterlimit:2.61310005;stroke-dasharray:none;stroke-opacity:1"
         d="M 89.207,41.8594 507.664,280.504" /><path
         id="path28"
         style="fill:none;stroke:#231f20;stroke-width:7.5005002;stroke-linecap:butt;stroke-linejoin:miter;stroke-miterlimit:2.61310005;stroke-dasharray:none;stroke-opacity:1"
         d="M 580.766,279.652 995.277,41.1211" /><path
         id="path30"
         style="fill:none;stroke:#231f20;stroke-width:5.00029993;stroke-linecap:butt;stroke-linejoin:miter;stroke-miterlimit:2.61310005;stroke-dasharray:none;stroke-opacity:1"
         d="M 227.387,120.605 C 259.184,92.3125 266.449,65.5117 249.172,40.2305" /><path
         id="path32"
         style="fill:#231f20;fill-opacity:1;fill-rule:nonzero;stroke:none"
         d="m 290.051,118.957 c 1.883,4.449 4.265,7.898 7.152,10.316 2.883,2.434 6.465,3.649 10.766,3.649 5.301,0 9.363,-1.731 12.199,-5.184 2.148,-2.566 3.234,-5.316 3.234,-8.25 0,-4.816 -3.035,-9.797 -9.086,-14.929 4.067,-1.602 7.137,-3.887 9.219,-6.852 2.082,-2.9492 3.133,-6.4336 3.133,-10.4492 0,-5.7187 -1.816,-10.6836 -5.469,-14.8867 -4.746,-5.4649 -11.633,-8.1992 -20.648,-8.1992 -4.465,0 -7.5,0.5508 -9.117,1.6523 -1.598,1.1133 -2.414,2.3008 -2.414,3.5664 0,0.9492 0.382,1.7813 1.148,2.5 0.766,0.7188 1.684,1.0664 2.766,1.0664 0.8,0 1.632,-0.1328 2.484,-0.3828 0.551,-0.168 1.801,-0.7695 3.766,-1.7851 1.949,-1.0313 3.3,-1.6329 4.05,-1.8321 1.2,-0.3672 2.481,-0.5312 3.848,-0.5312 3.316,0 6.219,1.2812 8.668,3.8476 2.469,2.5664 3.684,5.6172 3.684,9.1328 0,2.5665 -0.567,5.0821 -1.7,7.5196 -0.847,1.8164 -1.785,3.1992 -2.781,4.1484 -1.402,1.2969 -3.32,2.4844 -5.769,3.5313 -2.434,1.0703 -4.934,1.6015 -7.465,1.6015 h -1.571 v 1.4649 c 2.571,0.3164 5.153,1.2501 7.739,2.7851 2.597,1.516 4.48,3.367 5.648,5.516 1.164,2.152 1.75,4.5 1.75,7.066 0,3.367 -1.051,6.066 -3.152,8.133 -2.098,2.07 -4.699,3.101 -7.832,3.101 -5.051,0 -9.25,-2.699 -12.649,-8.097 l -1.601,0.781" /><path
         id="path34"
         style="fill:#231f20;fill-opacity:1;fill-rule:nonzero;stroke:none"
         d="m 338.582,98.0586 c 0,7.5464 1.137,14.0464 3.418,19.4964 2.285,5.453 5.301,9.515 9.086,12.183 2.93,2.117 5.949,3.184 9.082,3.184 5.062,0 9.633,-2.598 13.664,-7.766 5.051,-6.418 7.57,-15.101 7.57,-26.0857 0,-7.6797 -1.101,-14.1953 -3.316,-19.5625 -2.219,-5.3828 -5.035,-9.2851 -8.469,-11.7031 -3.433,-2.4297 -6.75,-3.6328 -9.949,-3.6328 -6.301,0 -11.566,3.7187 -15.766,11.1875 -3.55,6.2812 -5.32,13.8476 -5.32,22.6992 z m 9.57,-1.2188 c 0,-9.1171 1.118,-16.5664 3.368,-22.3164 1.847,-4.8476 4.628,-7.2851 8.296,-7.2851 1.766,0 3.586,0.8047 5.465,2.3672 1.903,1.5859 3.336,4.2343 4.301,7.9336 1.5,5.5976 2.25,13.5 2.25,23.6839 0,7.55 -0.785,13.851 -2.348,18.898 -1.168,3.75 -2.683,6.402 -4.531,7.969 -1.336,1.066 -2.953,1.598 -4.836,1.598 -2.219,0 -4.183,-0.985 -5.918,-2.965 -2.332,-2.7 -3.929,-6.95 -4.781,-12.75 -0.852,-5.801 -1.266,-11.5 -1.266,-17.1332" /><path
         id="path36"
         style="fill:none;stroke:#231f20;stroke-width:5.00029993;stroke-linecap:butt;stroke-linejoin:miter;stroke-miterlimit:2.61310005;stroke-dasharray:none;stroke-opacity:1"
         d="m 392.27,148.398 c 5.601,0 10.144,-4.539 10.144,-10.14 0,-5.602 -4.543,-10.141 -10.144,-10.141 -5.598,0 -10.141,4.539 -10.141,10.141 0,5.601 4.543,10.14 10.141,10.14 z" /></g></g></svg>