<?xml version="1.0" encoding="UTF-8" standalone="no"?>
<svg
   xmlns:dc="http://purl.org/dc/elements/1.1/"
   xmlns:cc="http://creativecommons.org/ns#"
   xmlns:rdf="http://www.w3.org/1999/02/22-rdf-syntax-ns#"
   xmlns:svg="http://www.w3.org/2000/svg"
   xmlns="http://www.w3.org/2000/svg"
   viewBox="0 0 177.33333 85.333336"
   height="85.333336"
   width="177.33333"
   xml:space="preserve"
   id="svg2"
   version="1.1"><metadata
     id="metadata8"><rdf:RDF><cc:Work
         rdf:about=""><dc:format>image/svg+xml</dc:format><dc:type
           rdf:resource="http://purl.org/dc/dcmitype/StillImage" /></cc:Work></rdf:RDF></metadata><defs
     id="defs6" /><g
     transform="matrix(1.3333333,0,0,-1.3333333,0,85.333333)"
     id="g10"><g
       transform="scale(0.1)"
       id="g12"><path
         id="path14"
         style="fill:#231f20;fill-opacity:1;fill-rule:nonzero;stroke:none"
         d="m 57.1836,330.492 16.1172,7.863 h 1.6172 v -55.914 c 0,-3.703 0.1484,-6.015 0.4492,-6.933 0.3164,-0.903 0.9687,-1.602 1.9336,-2.102 0.9844,-0.484 2.9687,-0.761 5.9648,-0.832 v -1.801 h -24.914 v 1.801 c 3.1328,0.071 5.1484,0.336 6.0664,0.817 0.9023,0.468 1.5312,1.101 1.8984,1.898 0.3516,0.805 0.5352,3.184 0.5352,7.152 v 35.75 c 0,4.817 -0.168,7.903 -0.4844,9.266 -0.2305,1.051 -0.6484,1.816 -1.25,2.301 -0.6016,0.484 -1.3164,0.734 -2.1641,0.734 -1.2031,0 -2.8828,-0.504 -5.0351,-1.515 l -0.7344,1.515" /><path
         id="path16"
         style="fill:#231f20;fill-opacity:1;fill-rule:nonzero;stroke:none"
         d="m 142,295.191 v -6.933 h -8.883 v -17.485 h -8.066 v 17.485 H 97.0352 v 6.25 l 30.7148,43.847 h 5.367 v -43.164 z m -16.949,0 v 32.864 l -23.235,-32.864 h 23.235" /><path
         id="path18"
         style="fill:none;stroke:#231f20;stroke-width:7.5005002;stroke-linecap:butt;stroke-linejoin:miter;stroke-miterlimit:2.61310005;stroke-dasharray:none;stroke-opacity:1"
         d="M 158.059,6.51953 H 1318.4" /><path
         id="path20"
         style="fill:none;stroke:#231f20;stroke-width:7.5005002;stroke-linecap:butt;stroke-linejoin:miter;stroke-miterlimit:2.61310005;stroke-dasharray:none;stroke-opacity:1"
         d="M 487.426,635.867 H 1146.16" /><path
         id="path22"
         style="fill:none;stroke:#231f20;stroke-width:7.5005002;stroke-linecap:butt;stroke-linejoin:miter;stroke-miterlimit:2.61310005;stroke-dasharray:none;stroke-opacity:1"
         d="M 158.059,6.51953 490.066,635.051" /><path
         id="path24"
         style="fill:none;stroke:#231f20;stroke-width:7.5005002;stroke-linecap:butt;stroke-linejoin:miter;stroke-miterlimit:2.61310005;stroke-dasharray:none;stroke-opacity:1"
         d="M 1143.14,636.566 1318.4,6.51953" /><path
         id="path26"
         style="fill:none;stroke:#231f20;stroke-width:5.00029993;stroke-linecap:butt;stroke-linejoin:miter;stroke-miterlimit:2.61310005;stroke-dasharray:25.0015, 25.0015;stroke-dashoffset:0;stroke-opacity:1"
         d="M 321.145,318.16 H 1232.23" /><path
         id="path28"
         style="fill:none;stroke:#231f20;stroke-width:5.00029993;stroke-linecap:butt;stroke-linejoin:miter;stroke-miterlimit:2.61310005;stroke-dasharray:none;stroke-opacity:1"
         d="m 157.586,582.055 h 56.7656 v 53.7383 H 157.586 Z" /><path
         id="path30"
         style="fill:none;stroke:#231f20;stroke-width:7.5005002;stroke-linecap:butt;stroke-linejoin:miter;stroke-miterlimit:2.61310005;stroke-dasharray:none;stroke-opacity:1"
         d="m 223.832,192.883 47.715,-26.535" /><path
         id="path32"
         style="fill:none;stroke:#231f20;stroke-width:7.5005002;stroke-linecap:butt;stroke-linejoin:miter;stroke-miterlimit:2.61310005;stroke-dasharray:none;stroke-opacity:1"
         d="M 382.883,489.359 430.594,462.82" /><path
         id="path34"
         style="fill:none;stroke:#231f20;stroke-width:7.5005002;stroke-linecap:butt;stroke-linejoin:miter;stroke-miterlimit:2.61310005;stroke-dasharray:none;stroke-opacity:1"
         d="m 1229.45,199.961 65.98,22.019" /><path
         id="path36"
         style="fill:none;stroke:#231f20;stroke-width:7.5005002;stroke-linecap:butt;stroke-linejoin:miter;stroke-miterlimit:2.61310005;stroke-dasharray:none;stroke-opacity:1"
         d="m 1234.76,178.707 65.97,22.016" /><path
         id="path38"
         style="fill:none;stroke:#231f20;stroke-width:7.5005002;stroke-linecap:butt;stroke-linejoin:miter;stroke-miterlimit:2.61310005;stroke-dasharray:none;stroke-opacity:1"
         d="m 1144.52,491.508 65.97,22.019" /><path
         id="path40"
         style="fill:none;stroke:#231f20;stroke-width:7.5005002;stroke-linecap:butt;stroke-linejoin:miter;stroke-miterlimit:2.61310005;stroke-dasharray:none;stroke-opacity:1"
         d="m 1149.82,470.25 65.98,22.02" /><path
         id="path42"
         style="fill:#231f20;fill-opacity:1;fill-rule:nonzero;stroke:none"
         d="m 737.574,401.41 16.117,7.863 h 1.618 v -55.914 c 0,-3.703 0.148,-6.019 0.449,-6.933 0.32,-0.903 0.969,-1.602 1.933,-2.102 0.985,-0.484 2.969,-0.765 5.969,-0.832 v -1.801 h -24.918 v 1.801 c 3.133,0.067 5.153,0.336 6.067,0.817 0.902,0.468 1.535,1.097 1.898,1.898 0.352,0.801 0.535,3.184 0.535,7.152 v 35.75 c 0,4.817 -0.164,7.899 -0.484,9.266 -0.231,1.051 -0.649,1.816 -1.25,2.301 -0.602,0.484 -1.313,0.734 -2.164,0.734 -1.203,0 -2.883,-0.504 -5.035,-1.519 l -0.735,1.519" /><path
         id="path44"
         style="fill:#231f20;fill-opacity:1;fill-rule:nonzero;stroke:none"
         d="m 820.676,409.273 v -1.816 c -4.285,-0.418 -7.801,-1.266 -10.52,-2.566 -2.715,-1.282 -5.398,-3.235 -8.051,-5.883 -2.644,-2.633 -4.847,-5.567 -6.597,-8.801 -1.731,-3.25 -3.199,-7.098 -4.363,-11.551 4.679,3.219 9.382,4.836 14.113,4.836 4.515,0 8.453,-1.836 11.769,-5.465 3.317,-3.652 4.981,-8.336 4.981,-14.07 0,-5.531 -1.684,-10.582 -5.031,-15.133 -4.036,-5.535 -9.383,-8.301 -16.016,-8.301 -4.535,0 -8.371,1.504 -11.535,4.485 -6.184,5.836 -9.266,13.383 -9.266,22.668 0,5.918 1.18,11.551 3.567,16.883 2.367,5.351 5.765,10.082 10.183,14.214 4.399,4.133 8.633,6.918 12.664,8.352 4.035,1.434 7.801,2.148 11.285,2.148 z m -30.367,-34.179 c -0.582,-4.403 -0.883,-7.953 -0.883,-10.653 0,-3.117 0.582,-6.515 1.734,-10.183 1.164,-3.649 2.883,-6.567 5.164,-8.715 1.649,-1.52 3.668,-2.285 6.051,-2.285 2.832,0 5.367,1.332 7.586,4 2.23,2.668 3.348,6.484 3.348,11.433 0,5.567 -1.098,10.383 -3.317,14.45 -2.215,4.07 -5.351,6.101 -9.433,6.101 -1.231,0 -2.551,-0.265 -3.969,-0.781 -1.414,-0.52 -3.512,-1.652 -6.281,-3.367" /><path
         id="path46"
         style="fill:none;stroke:#231f20;stroke-width:5.00029993;stroke-linecap:butt;stroke-linejoin:miter;stroke-miterlimit:2.61310005;stroke-dasharray:25.0015, 25.0015;stroke-dashoffset:0;stroke-opacity:1"
         d="M 3.24219,635.867 H 487.426" /><path
         id="path48"
         style="fill:none;stroke:#231f20;stroke-width:5.00029993;stroke-linecap:butt;stroke-linejoin:miter;stroke-miterlimit:2.61310005;stroke-dasharray:25.0015, 25.0015;stroke-dashoffset:0;stroke-opacity:1"
         d="M 158.004,7.23047 V 636.508" /></g></g></svg>