<?xml version="1.0" encoding="UTF-8" standalone="no"?>
<svg
   xmlns:dc="http://purl.org/dc/elements/1.1/"
   xmlns:cc="http://creativecommons.org/ns#"
   xmlns:rdf="http://www.w3.org/1999/02/22-rdf-syntax-ns#"
   xmlns:svg="http://www.w3.org/2000/svg"
   xmlns="http://www.w3.org/2000/svg"
   viewBox="0 0 174.66667 84"
   height="84"
   width="174.66667"
   xml:space="preserve"
   id="svg2"
   version="1.1"><metadata
     id="metadata8"><rdf:RDF><cc:Work
         rdf:about=""><dc:format>image/svg+xml</dc:format><dc:type
           rdf:resource="http://purl.org/dc/dcmitype/StillImage" /></cc:Work></rdf:RDF></metadata><defs
     id="defs6" /><g
     transform="matrix(1.3333333,0,0,-1.3333333,0,84)"
     id="g10"><g
       transform="scale(0.1)"
       id="g12"><path
         id="path14"
         style="fill:#231f20;fill-opacity:1;fill-rule:nonzero;stroke:none"
         d="m 213.039,574.648 -4.637,-12.75 h -39.066 v 1.797 c 11.488,10.485 19.586,19.051 24.269,25.688 4.68,6.648 7.032,12.715 7.032,18.215 0,4.199 -1.282,7.648 -3.867,10.347 -2.567,2.703 -5.633,4.051 -9.215,4.051 -3.266,0 -6.184,-0.949 -8.766,-2.848 -2.586,-1.902 -4.5,-4.699 -5.734,-8.367 h -1.817 c 0.817,6.016 2.899,10.633 6.282,13.867 3.367,3.215 7.57,4.832 12.617,4.832 5.367,0 9.851,-1.734 13.449,-5.183 3.602,-3.453 5.402,-7.516 5.402,-12.199 0,-3.352 -0.785,-6.719 -2.351,-10.071 -2.399,-5.265 -6.317,-10.847 -11.715,-16.746 -8.102,-8.851 -13.168,-14.183 -15.184,-16.015 h 17.285 c 3.516,0 5.981,0.132 7.399,0.398 1.414,0.25 2.699,0.781 3.832,1.582 1.133,0.801 2.133,1.934 2.984,3.402 h 1.801" /><path
         id="path16"
         style="fill:#231f20;fill-opacity:1;fill-rule:nonzero;stroke:none"
         d="m 222.555,545.246 v 2.152 c 3.347,1.098 5.949,2.813 7.8,5.149 1.833,2.336 2.75,4.801 2.75,7.398 0,0.621 -0.152,1.137 -0.433,1.571 -0.234,0.281 -0.465,0.433 -0.684,0.433 -0.367,0 -1.152,-0.336 -2.351,-0.984 -0.582,-0.285 -1.199,-0.434 -1.852,-0.434 -1.597,0 -2.863,0.465 -3.812,1.418 -0.934,0.949 -1.418,2.246 -1.418,3.895 0,1.601 0.617,2.968 1.832,4.105 1.218,1.149 2.715,1.715 4.468,1.715 2.149,0 4.063,-0.934 5.731,-2.816 1.684,-1.868 2.519,-4.352 2.519,-7.434 0,-3.348 -1.167,-6.469 -3.484,-9.352 -2.336,-2.882 -6.016,-5.148 -11.066,-6.816" /><path
         id="path18"
         style="fill:#231f20;fill-opacity:1;fill-rule:nonzero;stroke:none"
         d="m 285.605,628.113 -3.816,-8.301 h -19.918 l -4.351,-8.898 c 8.636,-1.269 15.468,-4.469 20.5,-9.617 4.335,-4.418 6.5,-9.633 6.5,-15.617 0,-3.485 -0.7,-6.715 -2.114,-9.668 -1.418,-2.965 -3.199,-5.481 -5.351,-7.563 -2.149,-2.086 -4.551,-3.769 -7.184,-5.035 -3.734,-1.801 -7.582,-2.684 -11.516,-2.684 -3.984,0 -6.867,0.668 -8.667,2.016 -1.817,1.352 -2.715,2.852 -2.715,4.469 0,0.914 0.382,1.715 1.113,2.414 0.754,0.699 1.703,1.051 2.836,1.051 0.851,0 1.598,-0.118 2.234,-0.383 0.633,-0.266 1.715,-0.934 3.25,-2 2.434,-1.699 4.899,-2.551 7.418,-2.551 3.797,0 7.149,1.453 10.031,4.336 2.883,2.883 4.317,6.383 4.317,10.516 0,4 -1.285,7.73 -3.852,11.199 -2.582,3.465 -6.117,6.152 -10.648,8.031 -3.547,1.469 -8.383,2.317 -14.5,2.551 l 12.699,25.734 h 23.734" /><path
         id="path20"
         style="fill:none;stroke:#231f20;stroke-width:7.5005002;stroke-linecap:butt;stroke-linejoin:miter;stroke-miterlimit:2.61310005;stroke-dasharray:none;stroke-opacity:1"
         d="M 56.7461,114.797 H 1252.93" /><path
         id="path22"
         style="fill:none;stroke:#231f20;stroke-width:7.5005002;stroke-linecap:butt;stroke-linejoin:miter;stroke-miterlimit:2.61310005;stroke-dasharray:none;stroke-opacity:1"
         d="M 62.1055,526.766 H 400.359" /><path
         id="path24"
         style="fill:none;stroke:#231f20;stroke-width:7.5005002;stroke-linecap:butt;stroke-linejoin:miter;stroke-miterlimit:2.61310005;stroke-dasharray:none;stroke-opacity:1"
         d="M 702.562,113.859 V 526.367" /><path
         id="path26"
         style="fill:none;stroke:#231f20;stroke-width:7.5005002;stroke-linecap:butt;stroke-linejoin:miter;stroke-miterlimit:2.61310005;stroke-dasharray:none;stroke-opacity:1"
         d="M 1252.92,525.43 H 699.344" /><path
         id="path28"
         style="fill:none;stroke:#231f20;stroke-width:7.5005002;stroke-linecap:butt;stroke-linejoin:miter;stroke-miterlimit:2.61310005;stroke-dasharray:none;stroke-opacity:1"
         d="M 1249.7,526.367 V 113.859" /><path
         id="path30"
         style="fill:none;stroke:#231f20;stroke-width:7.5005002;stroke-linecap:butt;stroke-linejoin:miter;stroke-miterlimit:2.61310005;stroke-dasharray:none;stroke-opacity:1"
         d="M 60.5156,115.383 V 527.891" /><path
         id="path32"
         style="fill:none;stroke:#231f20;stroke-width:7.5005002;stroke-linecap:butt;stroke-linejoin:miter;stroke-miterlimit:2.61310005;stroke-dasharray:none;stroke-opacity:1"
         d="M 703.156,116.551 400.359,526.766" /><path
         id="path34"
         style="fill:#231f20;fill-opacity:1;fill-rule:nonzero;stroke:none"
         d="m 310.871,45.9219 v -6.9336 h -8.883 V 21.5039 h -8.07 v 17.4844 h -28.012 v 6.25 l 30.715,43.8515 h 5.367 V 45.9219 Z m -16.953,0 v 32.8672 l -23.23,-32.8672 h 23.23" /><path
         id="path36"
         style="fill:#231f20;fill-opacity:1;fill-rule:nonzero;stroke:none"
         d="m 319.703,4.85547 v 2.15234 c 3.352,1.09766 5.949,2.8125 7.801,5.14839 1.832,2.3321 2.75,4.8008 2.75,7.3985 0,0.6172 -0.152,1.1328 -0.434,1.5703 -0.234,0.2812 -0.465,0.4336 -0.683,0.4336 -0.367,0 -1.153,-0.3359 -2.352,-0.9844 -0.582,-0.2851 -1.199,-0.4336 -1.851,-0.4336 -1.598,0 -2.864,0.4649 -3.813,1.418 -0.933,0.9492 -1.418,2.2461 -1.418,3.8945 0,1.6016 0.617,2.9688 1.832,4.1016 1.219,1.1523 2.719,1.7148 4.469,1.7148 2.148,0 4.066,-0.9297 5.73,-2.8125 1.684,-1.8672 2.52,-4.3515 2.52,-7.4375 0,-3.3476 -1.168,-6.4648 -3.484,-9.3476 -2.332,-2.88284 -6.016,-5.14846 -11.067,-6.81643" /><path
         id="path38"
         style="fill:#231f20;fill-opacity:1;fill-rule:nonzero;stroke:none"
         d="m 382.754,87.7227 -3.816,-8.3008 H 359.02 l -4.348,-8.8985 c 8.633,-1.2695 15.465,-4.4687 20.5,-9.6172 4.332,-4.4179 6.496,-9.6328 6.496,-15.6171 0,-3.4844 -0.699,-6.7149 -2.113,-9.668 -1.418,-2.9688 -3.2,-5.4805 -5.352,-7.5664 -2.148,-2.082 -4.551,-3.7656 -7.183,-5.0313 -3.731,-1.8007 -7.582,-2.6875 -11.516,-2.6875 -3.984,0 -6.867,0.6719 -8.664,2.0196 -1.82,1.3515 -2.719,2.8476 -2.719,4.4687 0,0.9141 0.383,1.7149 1.117,2.4141 0.75,0.6992 1.7,1.0508 2.832,1.0508 0.852,0 1.602,-0.1172 2.235,-0.3829 0.633,-0.2695 1.715,-0.9335 3.25,-2 2.433,-1.6992 4.898,-2.5507 7.418,-2.5507 3.797,0 7.148,1.4492 10.031,4.332 2.887,2.8828 4.316,6.3867 4.316,10.5195 0,4 -1.285,7.7305 -3.847,11.1992 -2.586,3.4649 -6.118,6.1485 -10.653,8.0313 -3.547,1.4687 -8.382,2.3164 -14.496,2.5508 l 12.696,25.7344 h 23.734" /><path
         id="path40"
         style="fill:#231f20;fill-opacity:1;fill-rule:nonzero;stroke:none"
         d="m 928.211,78.1562 c 1.887,4.4532 4.266,7.9024 7.152,10.3165 2.883,2.4335 6.465,3.6523 10.766,3.6523 5.301,0 9.367,-1.7344 12.199,-5.1836 2.149,-2.5664 3.234,-5.3164 3.234,-8.25 0,-4.8164 -3.035,-9.8008 -9.085,-14.9336 4.07,-1.6016 7.136,-3.8828 9.218,-6.8516 2.086,-2.9453 3.133,-6.4296 3.133,-10.4492 0,-5.7148 -1.816,-10.6836 -5.469,-14.8828 -4.746,-5.4648 -11.632,-8.1992 -20.648,-8.1992 -4.465,0 -7.496,0.5469 -9.117,1.6523 -1.598,1.1133 -2.414,2.2969 -2.414,3.5665 0,0.9492 0.382,1.7812 1.148,2.5 0.766,0.7148 1.684,1.0624 2.766,1.0624 0.801,0 1.636,-0.1328 2.484,-0.3789 0.551,-0.1679 1.801,-0.7695 3.766,-1.7851 1.949,-1.0352 3.304,-1.6367 4.051,-1.832 1.199,-0.3672 2.484,-0.5352 3.851,-0.5352 3.316,0 6.215,1.2812 8.668,3.8516 2.465,2.5625 3.68,5.6132 3.68,9.1328 0,2.5625 -0.567,5.082 -1.699,7.5156 -0.848,1.8164 -1.786,3.1992 -2.782,4.1484 -1.402,1.3008 -3.32,2.4844 -5.769,3.5352 -2.43,1.0664 -4.93,1.6016 -7.465,1.6016 h -1.567 v 1.4648 c 2.567,0.3164 5.149,1.25 7.735,2.7812 2.598,1.5196 4.48,3.3672 5.648,5.5196 1.164,2.1484 1.75,4.5 1.75,7.0664 0,3.3672 -1.05,6.0664 -3.148,8.1328 -2.102,2.0664 -4.699,3.0977 -7.836,3.0977 -5.047,0 -9.25,-2.6954 -12.649,-8.0977 l -1.601,0.7812" /><path
         id="path42"
         style="fill:#231f20;fill-opacity:1;fill-rule:nonzero;stroke:none"
         d="M 978.492,7.89062 V 10.043 c 3.352,1.0976 5.953,2.8125 7.801,5.1484 1.836,2.3359 2.75,4.8008 2.75,7.3984 0,0.6211 -0.148,1.1368 -0.434,1.5704 -0.23,0.2812 -0.464,0.4336 -0.683,0.4336 -0.364,0 -1.149,-0.336 -2.348,-0.9844 -0.586,-0.2852 -1.199,-0.4336 -1.851,-0.4336 -1.598,0 -2.868,0.4648 -3.817,1.418 -0.93,0.9492 -1.418,2.246 -1.418,3.8945 0,1.6015 0.621,2.9687 1.836,4.1055 1.215,1.1484 2.715,1.7148 4.469,1.7148 2.148,0 4.062,-0.9336 5.73,-2.8164 1.684,-1.8672 2.516,-4.3516 2.516,-7.4336 0,-3.3477 -1.164,-6.4688 -3.484,-9.3516 -2.332,-2.8828 -6.012,-5.14841 -11.067,-6.81638" /><path
         id="path44"
         style="fill:#231f20;fill-opacity:1;fill-rule:nonzero;stroke:none"
         d="m 1041.55,90.7578 -3.82,-8.3008 h -19.92 l -4.35,-8.8984 c 8.64,-1.2695 15.47,-4.4688 20.5,-9.6172 4.34,-4.418 6.5,-9.6328 6.5,-15.6172 0,-3.4844 -0.7,-6.7148 -2.11,-9.668 -1.42,-2.9648 -3.21,-5.4804 -5.35,-7.5624 -2.15,-2.086 -4.55,-3.7696 -7.19,-5.0352 -3.73,-1.8008 -7.58,-2.6836 -11.51,-2.6836 -3.99,0 -6.87,0.668 -8.67,2.0156 -1.82,1.3516 -2.72,2.8516 -2.72,4.4688 0,0.914 0.39,1.7148 1.12,2.414 0.75,0.6993 1.7,1.0508 2.83,1.0508 0.85,0 1.6,-0.1172 2.24,-0.3828 0.63,-0.2656 1.71,-0.9336 3.24,-2 2.44,-1.6992 4.91,-2.5508 7.42,-2.5508 3.8,0 7.15,1.4532 10.03,4.336 2.89,2.8828 4.32,6.3828 4.32,10.5156 0,4 -1.28,7.7305 -3.85,11.1992 -2.58,3.4648 -6.12,6.1524 -10.65,8.0313 -3.55,1.4687 -8.38,2.3164 -14.5,2.5507 l 12.7,25.7344 h 23.74" /><path
         id="path46"
         style="fill:#231f20;fill-opacity:1;fill-rule:nonzero;stroke:none"
         d="m 11.3672,336.211 c 1.8867,4.449 4.2656,7.898 7.1523,10.312 2.8828,2.438 6.4649,3.653 10.7657,3.653 5.3007,0 9.3671,-1.731 12.1992,-5.184 2.1484,-2.566 3.2344,-5.316 3.2344,-8.25 0,-4.816 -3.0352,-9.797 -9.0821,-14.933 4.0664,-1.602 7.1328,-3.883 9.2149,-6.852 2.0859,-2.945 3.1328,-6.43 3.1328,-10.445 0,-5.719 -1.8164,-10.684 -5.4688,-14.887 -4.7461,-5.465 -11.6328,-8.199 -20.6484,-8.199 -4.4649,0 -7.4961,0.551 -9.1172,1.652 -1.5977,1.113 -2.4141,2.301 -2.4141,3.567 0,0.949 0.3829,1.781 1.1485,2.5 0.7695,0.714 1.6836,1.066 2.7656,1.066 0.8047,0 1.6367,-0.133 2.4883,-0.383 0.5469,-0.168 1.7969,-0.769 3.7617,-1.785 1.9492,-1.035 3.3047,-1.633 4.0508,-1.832 1.1992,-0.367 2.4844,-0.535 3.8515,-0.535 3.3165,0 6.2149,1.281 8.668,3.851 2.4649,2.567 3.6797,5.614 3.6797,9.133 0,2.567 -0.5664,5.082 -1.6992,7.516 -0.8477,1.82 -1.7813,3.203 -2.7813,4.152 -1.3984,1.297 -3.3203,2.481 -5.7695,3.531 -2.4297,1.067 -4.9297,1.602 -7.4648,1.602 h -1.5664 v 1.465 c 2.5664,0.316 5.1484,1.25 7.7343,2.785 2.5977,1.516 4.4805,3.367 5.6485,5.516 1.164,2.152 1.75,4.5 1.75,7.066 0,3.367 -1.0508,6.066 -3.1485,8.133 -2.1015,2.07 -4.6992,3.101 -7.8359,3.101 -5.0469,0 -9.25,-2.699 -12.6484,-8.101 l -1.6016,0.785" /><path
         id="path48"
         style="fill:none;stroke:#231f20;stroke-width:5.00029993;stroke-linecap:butt;stroke-linejoin:miter;stroke-miterlimit:2.61310005;stroke-dasharray:none;stroke-opacity:1"
         d="m 61.2227,113.117 h 73 v 77.8711 h -73 z" /><path
         id="path50"
         style="fill:none;stroke:#231f20;stroke-width:5.00029993;stroke-linecap:butt;stroke-linejoin:miter;stroke-miterlimit:2.61310005;stroke-dasharray:none;stroke-opacity:1"
         d="m 701.957,116.148 h 73.0039 v 70.7031 H 701.957 Z" /><path
         id="path52"
         style="fill:none;stroke:#231f20;stroke-width:5.00029993;stroke-linecap:butt;stroke-linejoin:miter;stroke-miterlimit:2.61310005;stroke-dasharray:none;stroke-opacity:1"
         d="m 60.8047,448.988 h 73.0039 v 77.8711 H 60.8047 Z" /><path
         id="path54"
         style="fill:none;stroke:#231f20;stroke-width:5.00029993;stroke-linecap:butt;stroke-linejoin:miter;stroke-miterlimit:2.61310005;stroke-dasharray:none;stroke-opacity:1"
         d="m 703.152,446.895 h 73.0039 v 77.8711 H 703.152 Z" /><path
         id="path56"
         style="fill:none;stroke:#231f20;stroke-width:5.00029993;stroke-linecap:butt;stroke-linejoin:miter;stroke-miterlimit:2.61310005;stroke-dasharray:none;stroke-opacity:1"
         d="m 1176.93,115.535 h 73.0039 v 77.8711 H 1176.93 Z" /><path
         id="path58"
         style="fill:#231f20;fill-opacity:1;fill-rule:nonzero;stroke:none"
         d="m 1268.05,358.594 c 1.88,4.453 4.26,7.902 7.15,10.316 2.88,2.434 6.46,3.652 10.76,3.652 5.3,0 9.37,-1.734 12.2,-5.187 2.15,-2.563 3.24,-5.313 3.24,-8.246 0,-4.817 -3.04,-9.801 -9.09,-14.934 4.07,-1.601 7.14,-3.883 9.22,-6.851 2.08,-2.949 3.13,-6.43 3.13,-10.449 0,-5.715 -1.81,-10.684 -5.46,-14.883 -4.75,-5.465 -11.64,-8.2 -20.66,-8.2 -4.46,0 -7.49,0.547 -9.11,1.653 -1.6,1.113 -2.42,2.297 -2.42,3.562 0,0.953 0.38,1.785 1.15,2.504 0.77,0.715 1.68,1.063 2.77,1.063 0.8,0 1.63,-0.133 2.48,-0.383 0.55,-0.164 1.8,-0.766 3.77,-1.781 1.95,-1.035 3.3,-1.637 4.05,-1.836 1.2,-0.364 2.48,-0.532 3.85,-0.532 3.31,0 6.21,1.282 8.67,3.848 2.46,2.567 3.68,5.617 3.68,9.137 0,2.562 -0.57,5.082 -1.7,7.515 -0.85,1.817 -1.78,3.2 -2.78,4.149 -1.4,1.301 -3.32,2.484 -5.77,3.535 -2.43,1.066 -4.93,1.602 -7.47,1.602 h -1.57 v 1.464 c 2.57,0.317 5.16,1.25 7.74,2.782 2.6,1.519 4.48,3.367 5.65,5.515 1.17,2.153 1.75,4.504 1.75,7.067 0,3.371 -1.05,6.066 -3.15,8.133 -2.1,2.07 -4.7,3.101 -7.83,3.101 -5.05,0 -9.25,-2.699 -12.65,-8.098 l -1.6,0.782" /></g></g></svg>