<?xml version="1.0" encoding="UTF-8" standalone="no"?>
<svg
   xmlns:dc="http://purl.org/dc/elements/1.1/"
   xmlns:cc="http://creativecommons.org/ns#"
   xmlns:rdf="http://www.w3.org/1999/02/22-rdf-syntax-ns#"
   xmlns:svg="http://www.w3.org/2000/svg"
   xmlns="http://www.w3.org/2000/svg"
   viewBox="0 0 75.786667 92.26667"
   height="92.26667"
   width="75.786667"
   xml:space="preserve"
   id="svg2"
   version="1.1"><metadata
     id="metadata8"><rdf:RDF><cc:Work
         rdf:about=""><dc:format>image/svg+xml</dc:format><dc:type
           rdf:resource="http://purl.org/dc/dcmitype/StillImage" /></cc:Work></rdf:RDF></metadata><defs
     id="defs6" /><g
     transform="matrix(1.3333333,0,0,-1.3333333,0,92.266667)"
     id="g10"><g
       transform="scale(0.1)"
       id="g12"><path
         id="path14"
         style="fill:none;stroke:#000000;stroke-width:9.92125988;stroke-linecap:butt;stroke-linejoin:miter;stroke-miterlimit:10;stroke-dasharray:none;stroke-opacity:1"
         d="M 35.3867,92.6562 C 563.406,93.793 563.406,93.793 563.406,93.793" /><path
         id="path16"
         style="fill:none;stroke:#000000;stroke-width:9.92000008;stroke-linecap:butt;stroke-linejoin:miter;stroke-miterlimit:10;stroke-dasharray:none;stroke-opacity:1"
         d="M 559.039,92.8672 C 35.7148,688.145 35.7148,688.145 35.7148,688.145" /><g
         transform="scale(0.9,-1.1)"
         id="g18"><path
           id="path20"
           style="fill:none;stroke:#000000;stroke-width:2.81411004;stroke-linecap:butt;stroke-linejoin:miter;stroke-miterlimit:10;stroke-dasharray:none;stroke-opacity:1"
           d="m 511.159,-155.735 c 0,6.481 -6.428,11.744 -14.353,11.744 -7.926,0 -14.358,-5.263 -14.358,-11.744 0,-6.484 6.432,-11.747 14.358,-11.747 7.925,0 14.353,5.263 14.353,11.747 z" /></g><path
         id="path22"
         style="fill:none;stroke:#000000;stroke-width:3.20000005;stroke-linecap:butt;stroke-linejoin:miter;stroke-miterlimit:10;stroke-dasharray:none;stroke-opacity:1"
         d="M 503.945,150.863 C 450.672,129.66 486.352,92.9062 486.352,92.9062" /><path
         id="path24"
         style="fill:none;stroke:#000000;stroke-width:9.92125988;stroke-linecap:butt;stroke-linejoin:miter;stroke-miterlimit:10;stroke-dasharray:none;stroke-opacity:1"
         d="M 38.1289,90.4609 C 37.6172,686.328 37.6172,686.328 37.6172,686.328" /><path
         id="path26"
         style="fill:none;stroke:#000000;stroke-width:9.92125988;stroke-linecap:butt;stroke-linejoin:miter;stroke-miterlimit:10;stroke-dasharray:none;stroke-opacity:1"
         d="m 36.7812,365.918 c 284.8908,1.133 284.8908,1.133 284.8908,1.133" /><path
         id="path28"
         style="fill:#000000;fill-opacity:1;fill-rule:evenodd;stroke:none"
         d="m 377.895,142.117 v -6.933 h -8.887 v -17.481 h -8.059 v 17.481 h -28.027 v 6.25 l 30.715,43.847 h 5.371 v -43.164 z m -16.946,0 v 32.863 l -23.242,-32.863 h 23.242" /><path
         id="path30"
         style="fill:#000000;fill-opacity:1;fill-rule:evenodd;stroke:none"
         d="m 424.77,183.914 -3.809,-8.301 h -19.922 l -4.348,-8.886 c 8.629,-1.27 15.465,-4.477 20.508,-9.618 4.332,-4.429 6.496,-9.636 6.496,-15.625 0,-3.484 -0.711,-6.707 -2.125,-9.668 -1.418,-2.964 -3.199,-5.488 -5.347,-7.57 -2.149,-2.082 -4.539,-3.758 -7.176,-5.027 -3.746,-1.793 -7.586,-2.688 -11.524,-2.688 -3.972,0 -6.863,0.676 -8.668,2.028 -1.808,1.351 -2.71,2.839 -2.71,4.468 0,0.911 0.375,1.715 1.125,2.414 0.746,0.704 1.691,1.051 2.832,1.051 0.843,0 1.586,-0.129 2.218,-0.39 0.637,-0.258 1.719,-0.926 3.25,-2 2.442,-1.696 4.914,-2.54 7.422,-2.54 3.809,0 7.153,1.438 10.031,4.321 2.883,2.879 4.325,6.387 4.325,10.523 0,4.004 -1.286,7.739 -3.86,11.203 -2.57,3.469 -6.117,6.145 -10.644,8.036 -3.547,1.464 -8.383,2.308 -14.5,2.539 l 12.695,25.73 h 23.731" /><path
         id="path32"
         style="fill:none;stroke:#000000;stroke-width:4;stroke-linecap:butt;stroke-linejoin:miter;stroke-miterlimit:10;stroke-dasharray:none;stroke-opacity:1"
         d="m 2,520.559 c 68.918,0 68.918,0 68.918,0" /><path
         id="path34"
         style="fill:none;stroke:#000000;stroke-width:4;stroke-linecap:butt;stroke-linejoin:miter;stroke-miterlimit:10;stroke-dasharray:none;stroke-opacity:1"
         d="m 3.41406,213.824 c 68.91794,0 68.91794,0 68.91794,0" /><path
         id="path36"
         style="fill:#000000;fill-opacity:1;fill-rule:evenodd;stroke:none"
         d="M 283.844,25.5156 V 18.582 h -8.887 V 1.10156 h -8.055 V 18.582 h -28.027 v 6.25 l 30.711,43.8477 h 5.371 V 25.5156 Z m -16.942,0 V 58.3789 L 243.66,25.5156 h 23.242" /></g></g></svg>