<?xml version="1.0" encoding="UTF-8" standalone="no"?>
<svg
   xmlns:dc="http://purl.org/dc/elements/1.1/"
   xmlns:cc="http://creativecommons.org/ns#"
   xmlns:rdf="http://www.w3.org/1999/02/22-rdf-syntax-ns#"
   xmlns:svg="http://www.w3.org/2000/svg"
   xmlns="http://www.w3.org/2000/svg"
   viewBox="0 0 75.239998 81.013336"
   height="81.013336"
   width="75.239998"
   xml:space="preserve"
   id="svg2"
   version="1.1"><metadata
     id="metadata8"><rdf:RDF><cc:Work
         rdf:about=""><dc:format>image/svg+xml</dc:format><dc:type
           rdf:resource="http://purl.org/dc/dcmitype/StillImage" /></cc:Work></rdf:RDF></metadata><defs
     id="defs6" /><g
     transform="matrix(1.3333333,0,0,-1.3333333,0,81.013333)"
     id="g10"><g
       transform="scale(0.1)"
       id="g12"><path
         id="path14"
         style="fill:none;stroke:#000000;stroke-width:9.92125988;stroke-linecap:butt;stroke-linejoin:miter;stroke-miterlimit:10;stroke-dasharray:none;stroke-opacity:1"
         d="M 31.3164,8.25781 C 559.336,9.39453 559.336,9.39453 559.336,9.39453" /><path
         id="path16"
         style="fill:none;stroke:#000000;stroke-width:9.92000008;stroke-linecap:butt;stroke-linejoin:miter;stroke-miterlimit:10;stroke-dasharray:none;stroke-opacity:1"
         d="M 554.973,8.46875 C 31.6484,603.746 31.6484,603.746 31.6484,603.746" /><g
         transform="scale(0.9,-1.1)"
         id="g18"><path
           id="path20"
           style="fill:none;stroke:#000000;stroke-width:2.81411004;stroke-linecap:butt;stroke-linejoin:miter;stroke-miterlimit:10;stroke-dasharray:none;stroke-opacity:1"
           d="m 506.641,-79.0128 c 0,6.4844 -6.433,11.7472 -14.358,11.7472 -7.925,0 -14.353,-5.2628 -14.353,-11.7472 0,-6.4844 6.428,-11.7436 14.353,-11.7436 7.925,0 14.358,5.2592 14.358,11.7436 z" /></g><path
         id="path22"
         style="fill:none;stroke:#000000;stroke-width:3.20000005;stroke-linecap:butt;stroke-linejoin:miter;stroke-miterlimit:10;stroke-dasharray:none;stroke-opacity:1"
         d="M 499.879,66.4648 C 446.602,45.2617 482.281,8.51172 482.281,8.51172" /><path
         id="path24"
         style="fill:none;stroke:#000000;stroke-width:9.92125988;stroke-linecap:butt;stroke-linejoin:miter;stroke-miterlimit:10;stroke-dasharray:none;stroke-opacity:1"
         d="M 34.0586,6.0625 C 33.5469,601.93 33.5469,601.93 33.5469,601.93" /><path
         id="path26"
         style="fill:none;stroke:#000000;stroke-width:9.92125988;stroke-linecap:butt;stroke-linejoin:miter;stroke-miterlimit:10;stroke-dasharray:none;stroke-opacity:1"
         d="m 32.7109,281.52 c 284.8911,1.136 284.8911,1.136 284.8911,1.136" /><path
         id="path28"
         style="fill:#000000;fill-opacity:1;fill-rule:evenodd;stroke:none"
         d="m 373.824,57.7227 v -6.9336 h -8.886 V 33.3086 h -8.055 v 17.4805 h -28.031 v 6.25 l 30.714,43.8479 h 5.372 V 57.7227 Z m -16.941,0 V 90.582 L 333.641,57.7227 h 23.242" /><path
         id="path30"
         style="fill:#000000;fill-opacity:1;fill-rule:evenodd;stroke:none"
         d="m 420.699,99.5195 -3.808,-8.3007 h -19.922 l -4.344,-8.8868 c 8.625,-1.2734 15.461,-4.4765 20.508,-9.6211 4.328,-4.4257 6.492,-9.6367 6.492,-15.625 0,-3.4843 -0.707,-6.707 -2.125,-9.6679 -1.414,-2.961 -3.199,-5.4844 -5.348,-7.5664 -2.144,-2.086 -4.539,-3.7618 -7.175,-5.0313 -3.743,-1.7891 -7.586,-2.6836 -11.524,-2.6836 -3.973,0 -6.859,0.6719 -8.668,2.0235 -1.805,1.3515 -2.707,2.8398 -2.707,4.4687 0,0.9102 0.371,1.7188 1.121,2.418 0.75,0.6992 1.692,1.0508 2.832,1.0508 0.848,0 1.586,-0.1329 2.223,-0.3907 0.633,-0.2617 1.715,-0.9297 3.246,-2.0039 2.441,-1.6914 4.914,-2.539 7.422,-2.539 3.808,0 7.152,1.4414 10.035,4.3203 2.879,2.8828 4.32,6.3906 4.32,10.5234 0,4.0039 -1.285,7.7383 -3.855,11.207 -2.574,3.4649 -6.121,6.1446 -10.645,8.0313 -3.55,1.4648 -8.382,2.3125 -14.504,2.5391 l 12.696,25.7343 h 23.73" /><path
         id="path32"
         style="fill:none;stroke:#000000;stroke-width:4;stroke-linecap:butt;stroke-linejoin:miter;stroke-miterlimit:10;stroke-dasharray:none;stroke-opacity:1"
         d="m 4.12109,426.266 c 66.43361,0 66.43361,0 66.43361,0" /><path
         id="path34"
         style="fill:none;stroke:#000000;stroke-width:4;stroke-linecap:butt;stroke-linejoin:miter;stroke-miterlimit:10;stroke-dasharray:none;stroke-opacity:1"
         d="m 2,136.492 c 66.4375,0 66.4375,0 66.4375,0" /></g></g></svg>