<?xml version="1.0" encoding="UTF-8" standalone="no"?>
<svg
   xmlns:dc="http://purl.org/dc/elements/1.1/"
   xmlns:cc="http://creativecommons.org/ns#"
   xmlns:rdf="http://www.w3.org/1999/02/22-rdf-syntax-ns#"
   xmlns:svg="http://www.w3.org/2000/svg"
   xmlns="http://www.w3.org/2000/svg"
   viewBox="0 0 160 92"
   height="92"
   width="160"
   xml:space="preserve"
   id="svg2"
   version="1.1"><metadata
     id="metadata8"><rdf:RDF><cc:Work
         rdf:about=""><dc:format>image/svg+xml</dc:format><dc:type
           rdf:resource="http://purl.org/dc/dcmitype/StillImage" /></cc:Work></rdf:RDF></metadata><defs
     id="defs6" /><g
     transform="matrix(1.3333333,0,0,-1.3333333,0,92)"
     id="g10"><g
       transform="scale(0.1)"
       id="g12"><path
         id="path14"
         style="fill:#231f20;fill-opacity:1;fill-rule:nonzero;stroke:none"
         d="m 1074.5,189.422 -4.63,-12.75 h -39.07 v 1.801 c 11.49,10.48 19.59,19.047 24.27,25.683 4.68,6.649 7.03,12.715 7.03,18.215 0,4.199 -1.28,7.652 -3.87,10.348 -2.56,2.703 -5.63,4.051 -9.21,4.051 -3.27,0 -6.18,-0.95 -8.77,-2.848 -2.58,-1.902 -4.5,-4.699 -5.73,-8.367 h -1.82 c 0.82,6.019 2.9,10.633 6.28,13.867 3.37,3.215 7.57,4.832 12.62,4.832 5.37,0 9.85,-1.731 13.45,-5.184 3.6,-3.449 5.4,-7.515 5.4,-12.199 0,-3.348 -0.78,-6.715 -2.35,-10.066 -2.4,-5.266 -6.31,-10.848 -11.71,-16.75 -8.1,-8.852 -13.17,-14.184 -15.19,-16.016 h 17.29 c 3.51,0 5.98,0.133 7.4,0.399 1.41,0.25 2.7,0.785 3.83,1.582 1.13,0.804 2.13,1.937 2.98,3.402 h 1.8" /><path
         id="path16"
         style="fill:none;stroke:#231f20;stroke-width:7.5005002;stroke-linecap:butt;stroke-linejoin:miter;stroke-miterlimit:2.61310005;stroke-dasharray:none;stroke-opacity:1"
         d="M 55.3828,577.465 H 487.27" /><path
         id="path18"
         style="fill:none;stroke:#231f20;stroke-width:7.5005002;stroke-linecap:butt;stroke-linejoin:miter;stroke-miterlimit:2.61310005;stroke-dasharray:none;stroke-opacity:1"
         d="M 59.8203,12.4844 V 581.605" /><path
         id="path20"
         style="fill:#231f20;fill-opacity:1;fill-rule:nonzero;stroke:none"
         d="m 767.938,672.531 16.117,7.867 h 1.613 v -55.914 c 0,-3.703 0.152,-6.019 0.453,-6.933 0.317,-0.903 0.965,-1.602 1.934,-2.102 0.98,-0.484 2.965,-0.765 5.965,-0.832 v -1.801 h -24.915 v 1.801 c 3.129,0.067 5.149,0.332 6.067,0.817 0.898,0.464 1.531,1.097 1.898,1.898 0.352,0.801 0.535,3.184 0.535,7.152 v 35.75 c 0,4.813 -0.167,7.899 -0.484,9.266 -0.234,1.047 -0.648,1.816 -1.25,2.297 -0.601,0.484 -1.316,0.734 -2.168,0.734 -1.199,0 -2.883,-0.5 -5.031,-1.515 l -0.734,1.515" /><path
         id="path22"
         style="fill:#231f20;fill-opacity:1;fill-rule:nonzero;stroke:none"
         d="m 811.586,596.164 v 2.152 c 3.352,1.102 5.949,2.817 7.801,5.153 1.836,2.332 2.75,4.797 2.75,7.398 0,0.617 -0.153,1.133 -0.434,1.567 -0.234,0.281 -0.465,0.433 -0.683,0.433 -0.368,0 -1.153,-0.336 -2.352,-0.984 -0.582,-0.285 -1.195,-0.434 -1.848,-0.434 -1.601,0 -2.867,0.465 -3.816,1.418 -0.934,0.949 -1.418,2.246 -1.418,3.899 0,1.601 0.617,2.964 1.836,4.101 1.215,1.149 2.715,1.715 4.465,1.715 2.148,0 4.066,-0.934 5.73,-2.816 1.688,-1.868 2.52,-4.352 2.52,-7.434 0,-3.348 -1.164,-6.469 -3.485,-9.352 -2.332,-2.882 -6.015,-5.148 -11.066,-6.816" /><path
         id="path24"
         style="fill:#231f20;fill-opacity:1;fill-rule:nonzero;stroke:none"
         d="m 874.641,679.031 -3.821,-8.301 h -19.914 l -4.351,-8.898 c 8.633,-1.27 15.468,-4.469 20.5,-9.617 4.332,-4.418 6.5,-9.633 6.5,-15.617 0,-3.485 -0.703,-6.715 -2.117,-9.664 -1.418,-2.969 -3.2,-5.485 -5.352,-7.567 -2.148,-2.086 -4.547,-3.769 -7.184,-5.035 -3.73,-1.801 -7.582,-2.684 -11.515,-2.684 -3.981,0 -6.864,0.668 -8.664,2.016 -1.817,1.352 -2.719,2.852 -2.719,4.469 0,0.918 0.387,1.715 1.117,2.414 0.75,0.703 1.699,1.055 2.832,1.055 0.852,0 1.602,-0.122 2.235,-0.387 0.632,-0.266 1.714,-0.934 3.25,-2 2.433,-1.699 4.902,-2.551 7.417,-2.551 3.797,0 7.149,1.453 10.032,4.336 2.886,2.883 4.316,6.383 4.316,10.516 0,4 -1.285,7.734 -3.848,11.199 -2.582,3.469 -6.117,6.152 -10.652,8.035 -3.547,1.465 -8.383,2.312 -14.496,2.551 l 12.699,25.73 h 23.735" /><path
         id="path26"
         style="fill:#231f20;fill-opacity:1;fill-rule:nonzero;stroke:none"
         d="m 250.855,660.102 c 1.883,4.449 4.266,7.898 7.153,10.312 2.883,2.438 6.465,3.652 10.765,3.652 5.301,0 9.364,-1.734 12.2,-5.183 2.148,-2.567 3.234,-5.317 3.234,-8.25 0,-4.817 -3.035,-9.801 -9.086,-14.934 4.067,-1.601 7.137,-3.883 9.219,-6.851 2.082,-2.946 3.133,-6.43 3.133,-10.45 0,-5.714 -1.817,-10.683 -5.469,-14.882 -4.75,-5.465 -11.633,-8.2 -20.649,-8.2 -4.464,0 -7.5,0.551 -9.117,1.653 -1.597,1.113 -2.414,2.297 -2.414,3.566 0,0.949 0.383,1.781 1.145,2.5 0.769,0.715 1.683,1.067 2.769,1.067 0.801,0 1.633,-0.137 2.485,-0.383 0.55,-0.168 1.8,-0.77 3.765,-1.785 1.95,-1.036 3.301,-1.637 4.051,-1.832 1.199,-0.368 2.481,-0.536 3.848,-0.536 3.316,0 6.218,1.282 8.668,3.852 2.468,2.562 3.683,5.613 3.683,9.133 0,2.562 -0.566,5.082 -1.703,7.515 -0.847,1.817 -1.781,3.2 -2.777,4.153 -1.403,1.297 -3.32,2.48 -5.77,3.531 -2.433,1.066 -4.933,1.602 -7.468,1.602 h -1.567 v 1.464 c 2.57,0.317 5.152,1.25 7.738,2.782 2.598,1.519 4.481,3.371 5.649,5.519 1.164,2.149 1.746,4.5 1.746,7.067 0,3.367 -1.047,6.066 -3.148,8.132 -2.098,2.067 -4.7,3.098 -7.833,3.098 -5.05,0 -9.25,-2.695 -12.648,-8.098 l -1.602,0.786" /><path
         id="path28"
         style="fill:none;stroke:#231f20;stroke-width:7.5005002;stroke-linecap:butt;stroke-linejoin:miter;stroke-miterlimit:2.61310005;stroke-dasharray:none;stroke-opacity:1"
         d="M 485.059,157.121 V 577.848" /><path
         id="path30"
         style="fill:none;stroke:#231f20;stroke-width:7.5005002;stroke-linecap:butt;stroke-linejoin:miter;stroke-miterlimit:2.61310005;stroke-dasharray:none;stroke-opacity:1"
         d="M 487.785,158.637 H 700.141" /><path
         id="path32"
         style="fill:none;stroke:#231f20;stroke-width:7.5005002;stroke-linecap:butt;stroke-linejoin:miter;stroke-miterlimit:2.61310005;stroke-dasharray:none;stroke-opacity:1"
         d="M 701.059,157.121 V 577.848" /><path
         id="path34"
         style="fill:none;stroke:#231f20;stroke-width:7.5005002;stroke-linecap:butt;stroke-linejoin:miter;stroke-miterlimit:2.61310005;stroke-dasharray:none;stroke-opacity:1"
         d="M 697.77,577.09 H 910.125" /><path
         id="path36"
         style="fill:none;stroke:#231f20;stroke-width:7.5005002;stroke-linecap:butt;stroke-linejoin:miter;stroke-miterlimit:2.61310005;stroke-dasharray:none;stroke-opacity:1"
         d="M 1187.38,8.66016 V 158.598" /><path
         id="path38"
         style="fill:none;stroke:#231f20;stroke-width:7.5005002;stroke-linecap:butt;stroke-linejoin:miter;stroke-miterlimit:2.61310005;stroke-dasharray:none;stroke-opacity:1"
         d="M 910.012,158.258 H 1189.08" /><path
         id="path40"
         style="fill:none;stroke:#231f20;stroke-width:7.5005002;stroke-linecap:butt;stroke-linejoin:miter;stroke-miterlimit:2.61310005;stroke-dasharray:none;stroke-opacity:1"
         d="M 55.832,11.9102 H 1187.94" /><path
         id="path42"
         style="fill:none;stroke:#231f20;stroke-width:7.5005002;stroke-linecap:butt;stroke-linejoin:miter;stroke-miterlimit:2.61310005;stroke-dasharray:none;stroke-opacity:1"
         d="M 911.066,157.121 V 577.848" /><path
         id="path44"
         style="fill:#231f20;fill-opacity:1;fill-rule:nonzero;stroke:none"
         d="m 48.9219,291.367 v -6.933 h -8.8828 v -17.485 h -8.0664 v 17.485 H 3.95703 v 6.25 l 30.71487,43.847 h 5.3672 v -43.164 z m -16.9492,0 V 324.23 L 8.73828,291.367 H 31.9727" /><path
         id="path46"
         style="fill:#231f20;fill-opacity:1;fill-rule:nonzero;stroke:none"
         d="m 431.137,356.621 c 1.886,4.453 4.265,7.902 7.152,10.317 2.883,2.433 6.465,3.652 10.766,3.652 5.3,0 9.367,-1.735 12.199,-5.188 2.148,-2.562 3.234,-5.312 3.234,-8.246 0,-4.816 -3.035,-9.801 -9.082,-14.933 4.067,-1.602 7.133,-3.883 9.215,-6.852 2.086,-2.949 3.133,-6.43 3.133,-10.449 0,-5.715 -1.816,-10.684 -5.465,-14.883 -4.75,-5.465 -11.637,-8.199 -20.652,-8.199 -4.465,0 -7.496,0.547 -9.117,1.652 -1.598,1.113 -2.415,2.297 -2.415,3.563 0,0.953 0.383,1.785 1.149,2.504 0.769,0.714 1.684,1.062 2.766,1.062 0.804,0 1.636,-0.133 2.488,-0.383 0.547,-0.164 1.797,-0.765 3.762,-1.781 1.953,-1.035 3.304,-1.637 4.05,-1.836 1.2,-0.363 2.485,-0.531 3.852,-0.531 3.316,0 6.215,1.281 8.668,3.848 2.465,2.566 3.68,5.617 3.68,9.136 0,2.563 -0.567,5.082 -1.7,7.516 -0.847,1.816 -1.781,3.199 -2.781,4.148 -1.398,1.301 -3.32,2.485 -5.769,3.535 -2.43,1.067 -4.93,1.602 -7.465,1.602 h -1.567 v 1.465 c 2.567,0.316 5.149,1.25 7.735,2.781 2.601,1.52 4.48,3.367 5.648,5.516 1.168,2.152 1.75,4.504 1.75,7.066 0,3.371 -1.047,6.067 -3.148,8.133 -2.102,2.07 -4.7,3.102 -7.836,3.102 -5.047,0 -9.25,-2.7 -12.649,-8.098 l -1.601,0.781" /><path
         id="path48"
         style="fill:#231f20;fill-opacity:1;fill-rule:nonzero;stroke:none"
         d="m 713.582,356.621 c 1.887,4.453 4.266,7.902 7.152,10.317 2.883,2.433 6.465,3.652 10.766,3.652 5.301,0 9.363,-1.735 12.199,-5.188 2.149,-2.562 3.235,-5.312 3.235,-8.246 0,-4.816 -3.036,-9.801 -9.086,-14.933 4.07,-1.602 7.136,-3.883 9.218,-6.852 2.086,-2.949 3.133,-6.43 3.133,-10.449 0,-5.715 -1.816,-10.684 -5.469,-14.883 -4.746,-5.465 -11.632,-8.199 -20.648,-8.199 -4.465,0 -7.5,0.547 -9.117,1.652 -1.598,1.113 -2.414,2.297 -2.414,3.563 0,0.953 0.383,1.785 1.148,2.504 0.766,0.714 1.684,1.062 2.766,1.062 0.801,0 1.637,-0.133 2.484,-0.383 0.551,-0.164 1.801,-0.765 3.766,-1.781 1.949,-1.035 3.301,-1.637 4.051,-1.836 1.199,-0.363 2.484,-0.531 3.847,-0.531 3.317,0 6.219,1.281 8.672,3.848 2.465,2.566 3.68,5.617 3.68,9.136 0,2.563 -0.567,5.082 -1.699,7.516 -0.848,1.816 -1.786,3.199 -2.782,4.148 -1.402,1.301 -3.32,2.485 -5.769,3.535 -2.43,1.067 -4.93,1.602 -7.465,1.602 h -1.57 v 1.465 c 2.57,0.316 5.152,1.25 7.738,2.781 2.598,1.52 4.48,3.367 5.648,5.516 1.164,2.152 1.75,4.504 1.75,7.066 0,3.371 -1.05,6.067 -3.148,8.133 -2.102,2.07 -4.703,3.102 -7.836,3.102 -5.051,0 -9.25,-2.7 -12.648,-8.098 l -1.602,0.781" /><path
         id="path50"
         style="fill:#231f20;fill-opacity:1;fill-rule:nonzero;stroke:none"
         d="m 547.859,243.508 16.118,7.863 h 1.617 v -55.914 c 0,-3.703 0.148,-6.019 0.449,-6.934 0.316,-0.902 0.969,-1.601 1.934,-2.101 0.984,-0.484 2.968,-0.766 5.968,-0.832 v -1.801 h -24.918 v 1.801 c 3.133,0.066 5.153,0.336 6.067,0.816 0.902,0.469 1.535,1.098 1.898,1.899 0.352,0.8 0.535,3.183 0.535,7.152 v 35.75 c 0,4.816 -0.164,7.898 -0.484,9.266 -0.231,1.05 -0.648,1.816 -1.25,2.3 -0.602,0.485 -1.313,0.735 -2.164,0.735 -1.203,0 -2.883,-0.504 -5.035,-1.52 l -0.735,1.52" /><path
         id="path52"
         style="fill:#231f20;fill-opacity:1;fill-rule:nonzero;stroke:none"
         d="m 591.512,167.141 v 2.148 c 3.347,1.102 5.949,2.816 7.8,5.152 1.833,2.332 2.747,4.797 2.747,7.399 0,0.617 -0.149,1.133 -0.434,1.566 -0.23,0.285 -0.465,0.434 -0.68,0.434 -0.367,0 -1.152,-0.332 -2.351,-0.985 -0.586,-0.281 -1.199,-0.433 -1.852,-0.433 -1.597,0 -2.867,0.465 -3.816,1.418 -0.93,0.949 -1.414,2.25 -1.414,3.898 0,1.602 0.617,2.969 1.832,4.102 1.215,1.152 2.715,1.715 4.468,1.715 2.149,0 4.063,-0.934 5.731,-2.817 1.684,-1.867 2.516,-4.347 2.516,-7.433 0,-3.348 -1.164,-6.465 -3.485,-9.348 -2.332,-2.883 -6.012,-5.152 -11.062,-6.816" /><path
         id="path54"
         style="fill:#231f20;fill-opacity:1;fill-rule:nonzero;stroke:none"
         d="m 654.562,250.008 -3.816,-8.301 h -19.918 l -4.351,-8.902 c 8.636,-1.266 15.468,-4.465 20.5,-9.614 4.335,-4.421 6.5,-9.636 6.5,-15.621 0,-3.48 -0.7,-6.715 -2.114,-9.664 -1.418,-2.968 -3.199,-5.48 -5.351,-7.566 -2.149,-2.082 -4.551,-3.766 -7.184,-5.035 -3.734,-1.797 -7.582,-2.684 -11.516,-2.684 -3.984,0 -6.867,0.668 -8.667,2.02 -1.817,1.347 -2.719,2.847 -2.719,4.464 0,0.918 0.386,1.719 1.117,2.418 0.754,0.7 1.703,1.051 2.836,1.051 0.851,0 1.598,-0.121 2.234,-0.386 0.633,-0.266 1.715,-0.93 3.246,-1.997 2.438,-1.703 4.903,-2.55 7.418,-2.55 3.801,0 7.149,1.449 10.032,4.332 2.886,2.882 4.32,6.382 4.32,10.515 0,4 -1.285,7.735 -3.852,11.2 -2.582,3.468 -6.117,6.152 -10.648,8.035 -3.551,1.468 -8.387,2.316 -14.5,2.55 l 12.699,25.735 h 23.734" /></g></g></svg>