<?xml version="1.0" encoding="UTF-8" standalone="no"?>
<svg
   xmlns:dc="http://purl.org/dc/elements/1.1/"
   xmlns:cc="http://creativecommons.org/ns#"
   xmlns:rdf="http://www.w3.org/1999/02/22-rdf-syntax-ns#"
   xmlns:svg="http://www.w3.org/2000/svg"
   xmlns="http://www.w3.org/2000/svg"
   viewBox="0 0 117.33333 49.333332"
   height="49.333332"
   width="117.33333"
   xml:space="preserve"
   id="svg2"
   version="1.1"><metadata
     id="metadata8"><rdf:RDF><cc:Work
         rdf:about=""><dc:format>image/svg+xml</dc:format><dc:type
           rdf:resource="http://purl.org/dc/dcmitype/StillImage" /></cc:Work></rdf:RDF></metadata><defs
     id="defs6" /><g
     transform="matrix(1.3333333,0,0,-1.3333333,0,49.333333)"
     id="g10"><g
       transform="scale(0.1)"
       id="g12"><path
         id="path14"
         style="fill:#231f20;fill-opacity:1;fill-rule:nonzero;stroke:none"
         d="M 57.7969,77.4688 52.7617,22.4023 c -0.2656,-2.582 -0.3828,-4.2695 -0.3828,-5.0859 0,-1.2969 0.2305,-2.2969 0.7344,-2.9805 0.6133,-0.9336 1.4492,-1.6328 2.5,-2.1015 1.0664,-0.4492 2.8476,-0.6797 5.3476,-0.6797 L 60.4297,9.75391 H 34.3633 l 0.5312,1.80079 h 1.1172 c 2.1172,0 3.8516,0.4648 5.1836,1.3633 0.9336,0.6367 1.668,1.6523 2.1992,3.0859 0.3516,1.0156 0.7032,3.3828 1.0196,7.1328 l 0.7812,8.3985 H 26.2461 l -6.7344,-9.1329 c -1.5312,-2.0507 -2.4844,-3.5351 -2.8828,-4.414 -0.3828,-0.9024 -0.5859,-1.7344 -0.5859,-2.5195 0,-1.0508 0.4179,-1.9336 1.2695,-2.6836 0.8477,-0.7461 2.25,-1.1641 4.1992,-1.2305 L 20.9805,9.75391 H 1.39453 l 0.53516,1.80079 c 2.41797,0.0976 4.53515,0.9141 6.38281,2.4141 1.832,1.5195 4.5664,4.75 8.2148,9.7031 l 39.5508,53.7969 z m -9.668,-16.25 -19.1992,-26.1172 h 16.6484 l 2.5508,26.1172" /><path
         id="path16"
         style="fill:none;stroke:#231f20;stroke-width:7.5005002;stroke-linecap:butt;stroke-linejoin:miter;stroke-miterlimit:2.61310005;stroke-dasharray:none;stroke-opacity:1"
         d="M 87.6602,41.8008 798.941,38.1289" /><path
         id="path18"
         style="fill:#231f20;fill-opacity:1;fill-rule:nonzero;stroke:none"
         d="m 568.426,361.586 -4.934,-21.434 h -1.769 l -0.18,5.383 c -0.168,1.949 -0.551,3.684 -1.133,5.215 -0.586,1.535 -1.469,2.852 -2.633,3.988 -1.168,1.114 -2.652,1.996 -4.453,2.633 -1.781,0.633 -3.765,0.949 -5.949,0.949 -5.832,0 -10.914,-1.601 -15.285,-4.785 -5.567,-4.066 -9.93,-9.816 -13.082,-17.23 -2.598,-6.117 -3.914,-12.317 -3.914,-18.602 0,-6.418 1.879,-11.535 5.613,-15.367 3.75,-3.816 8.617,-5.734 14.602,-5.734 4.531,0 8.566,1.019 12.082,3.035 3.535,2.015 6.82,5.113 9.851,9.316 h 2.281 c -3.566,-5.699 -7.546,-9.887 -11.898,-12.566 -4.367,-2.684 -9.602,-4.035 -15.684,-4.035 -5.398,0 -10.183,1.136 -14.347,3.398 -4.168,2.27 -7.352,5.438 -9.516,9.551 -2.187,4.101 -3.285,8.5 -3.285,13.234 0,7.219 1.949,14.25 5.816,21.086 3.864,6.832 9.184,12.215 15.934,16.113 6.766,3.903 13.566,5.852 20.449,5.852 3.215,0 6.832,-0.75 10.832,-2.281 1.75,-0.653 3.035,-0.985 3.801,-0.985 0.781,0 1.465,0.164 2.066,0.481 0.586,0.336 1.551,1.269 2.918,2.785 h 1.817" /><path
         id="path20"
         style="fill:none;stroke:#231f20;stroke-width:7.5005002;stroke-linecap:butt;stroke-linejoin:miter;stroke-miterlimit:2.61310005;stroke-dasharray:none;stroke-opacity:1"
         d="m 395.191,297.43 97.434,-0.657" /><path
         id="path22"
         style="fill:#231f20;fill-opacity:1;fill-rule:nonzero;stroke:none"
         d="m 348.301,364.289 0.679,1.816 h 23.637 c 3.965,0 7.496,-0.617 10.617,-1.867 3.098,-1.234 5.434,-2.949 6.985,-5.164 1.547,-2.219 2.312,-4.566 2.312,-7.035 0,-3.816 -1.383,-7.25 -4.133,-10.332 -2.75,-3.066 -7.23,-5.352 -13.449,-6.801 4.016,-1.5 6.949,-3.484 8.852,-5.968 1.883,-2.465 2.832,-5.18 2.832,-8.149 0,-3.281 -0.848,-6.43 -2.551,-9.434 -1.684,-2.98 -3.867,-5.312 -6.516,-6.964 -2.652,-1.664 -5.851,-2.883 -9.601,-3.668 -2.668,-0.551 -6.832,-0.832 -12.5,-0.832 h -24.266 l 0.633,1.8 c 2.551,0.067 4.266,0.317 5.184,0.735 1.3,0.566 2.234,1.297 2.785,2.199 0.781,1.23 1.812,4.063 3.117,8.496 l 11.863,40.086 c 1.02,3.383 1.516,5.766 1.516,7.133 0,1.199 -0.445,2.148 -1.332,2.851 -0.899,0.7 -2.598,1.047 -5.117,1.047 -0.547,0 -1.063,0.016 -1.547,0.051 z m 9.898,-27.484 c 2.117,-0.067 3.649,-0.098 4.598,-0.098 6.769,0 11.801,1.469 15.117,4.414 3.301,2.953 4.953,6.633 4.953,11.067 0,3.351 -1.019,5.968 -3.035,7.835 -2.016,1.864 -5.234,2.801 -9.668,2.801 -1.164,0 -2.664,-0.183 -4.48,-0.586 z m -9.617,-32.614 c 3.52,-0.468 6.27,-0.683 8.25,-0.683 5.086,0 9.582,1.531 13.5,4.582 3.934,3.066 5.887,7.219 5.887,12.449 0,4 -1.203,7.133 -3.637,9.383 -2.418,2.25 -6.332,3.367 -11.73,3.367 -1.051,0 -2.321,-0.051 -3.821,-0.148 l -8.449,-28.95" /><path
         id="path24"
         style="fill:#231f20;fill-opacity:1;fill-rule:nonzero;stroke:none"
         d="m 818.785,79.25 0.582,1.8164 h 21.153 c 8.949,0 15.582,-1.0352 19.882,-3.0859 4.317,-2.0469 7.766,-5.2813 10.332,-9.6836 2.571,-4.4141 3.868,-9.1485 3.868,-14.1953 0,-4.3204 -0.75,-8.5352 -2.235,-12.6172 -1.48,-4.086 -3.148,-7.3516 -5.031,-9.8164 -1.867,-2.4532 -4.734,-5.168 -8.617,-8.1368 -3.867,-2.9492 -8.067,-5.1484 -12.582,-6.5664 -4.535,-1.414 -10.184,-2.1171 -16.953,-2.1171 h -28.032 l 0.633,1.8007 c 2.582,0.0704 4.301,0.3008 5.184,0.6836 1.301,0.5664 2.265,1.3203 2.883,2.25 0.933,1.3672 2,4.1172 3.168,8.25 l 11.714,40.0508 c 0.918,3.1484 1.368,5.6328 1.368,7.418 0,1.2617 -0.418,2.2461 -1.266,2.9297 -0.848,0.6836 -2.5,1.0195 -4.981,1.0195 z M 836.117,77.3984 821.77,27.832 c -1.082,-3.6992 -1.618,-6 -1.618,-6.8828 0,-0.5156 0.168,-1.0156 0.52,-1.5156 0.328,-0.4844 0.797,-0.8008 1.383,-0.9688 0.847,-0.3007 2.215,-0.4492 4.097,-0.4492 5.118,0 9.868,0.5313 14.231,1.6016 4.387,1.0469 7.969,2.6172 10.769,4.6992 3.985,3.0352 7.149,7.1992 9.536,12.5 2.367,5.3164 3.546,11.3477 3.546,18.1172 0,7.6484 -1.816,13.3476 -5.464,17.0625 -3.633,3.7344 -8.969,5.6016 -15.969,5.6016 -1.715,0 -3.949,-0.0665 -6.684,-0.1993" /><path
         id="path26"
         style="fill:none;stroke:#231f20;stroke-width:5.00029993;stroke-linecap:butt;stroke-linejoin:miter;stroke-miterlimit:2.61310005;stroke-dasharray:none;stroke-opacity:1"
         d="M 165.621,108.199 C 192.809,84.0078 199.02,61.0977 184.246,39.4766" /><path
         id="path28"
         style="fill:#231f20;fill-opacity:1;fill-rule:nonzero;stroke:none"
         d="m 204.238,111.418 c 1.887,4.453 4.266,7.902 7.153,10.316 2.882,2.434 6.464,3.653 10.765,3.653 5.301,0 9.367,-1.735 12.199,-5.188 2.149,-2.562 3.235,-5.312 3.235,-8.246 0,-4.816 -3.035,-9.801 -9.082,-14.9335 4.066,-1.6015 7.133,-3.8828 9.219,-6.8515 2.082,-2.9492 3.128,-6.4297 3.128,-10.4492 0,-5.7149 -1.816,-10.6836 -5.464,-14.8829 -4.75,-5.4648 -11.637,-8.1992 -20.653,-8.1992 -4.465,0 -7.496,0.5469 -9.117,1.6524 -1.598,1.1132 -2.414,2.2968 -2.414,3.5625 0,0.9531 0.383,1.7851 1.148,2.5 0.77,0.7187 1.684,1.0664 2.766,1.0664 0.805,0 1.637,-0.1328 2.488,-0.3828 0.551,-0.1641 1.801,-0.7657 3.762,-1.7813 1.953,-1.0351 3.305,-1.6367 4.051,-1.8359 1.199,-0.3633 2.484,-0.5313 3.851,-0.5313 3.317,0 6.215,1.2813 8.668,3.8477 2.465,2.5664 3.68,5.6172 3.68,9.1367 0,2.5625 -0.566,5.082 -1.699,7.5156 -0.848,1.8164 -1.781,3.1992 -2.781,4.1485 -1.399,1.3007 -3.321,2.4843 -5.766,3.5351 -2.434,1.0664 -4.934,1.6016 -7.469,1.6016 h -1.566 v 1.4648 c 2.566,0.3164 5.148,1.25 7.734,2.7813 2.602,1.5156 4.481,3.3672 5.649,5.516 1.168,2.152 1.75,4.504 1.75,7.066 0,3.371 -1.047,6.066 -3.149,8.133 -2.101,2.07 -4.699,3.101 -7.836,3.101 -5.047,0 -9.25,-2.699 -12.648,-8.097 l -1.602,0.781" /><path
         id="path30"
         style="fill:#231f20;fill-opacity:1;fill-rule:nonzero;stroke:none"
         d="m 252.773,90.5195 c 0,7.5469 1.133,14.0465 3.415,19.5005 2.285,5.449 5.3,9.515 9.085,12.183 2.934,2.117 5.95,3.184 9.082,3.184 5.067,0 9.637,-2.602 13.668,-7.77 5.051,-6.418 7.567,-15.097 7.567,-26.0818 0,-7.6836 -1.098,-14.1993 -3.317,-19.5664 -2.214,-5.3829 -5.035,-9.2813 -8.464,-11.6993 -3.434,-2.4336 -6.75,-3.6328 -9.954,-3.6328 -6.3,0 -11.566,3.7188 -15.765,11.1836 -3.551,6.2813 -5.317,13.8516 -5.317,22.6992 z m 9.567,-1.2148 c 0,-9.1211 1.117,-16.5703 3.367,-22.3164 1.848,-4.8516 4.633,-7.2852 8.301,-7.2852 1.765,0 3.582,0.8008 5.465,2.3672 1.898,1.582 3.332,4.2344 4.3,7.9336 1.5,5.5977 2.25,13.4961 2.25,23.6836 0,7.5465 -0.785,13.8475 -2.351,18.8985 -1.168,3.75 -2.684,6.398 -4.531,7.965 -1.336,1.066 -2.95,1.601 -4.836,1.601 -2.215,0 -4.18,-0.984 -5.914,-2.964 -2.336,-2.704 -3.934,-6.954 -4.782,-12.75 -0.851,-5.801 -1.269,-11.5005 -1.269,-17.1333" /><path
         id="path32"
         style="fill:none;stroke:#231f20;stroke-width:5.00029993;stroke-linecap:butt;stroke-linejoin:miter;stroke-miterlimit:2.61310005;stroke-dasharray:none;stroke-opacity:1"
         d="m 297.379,143.875 c 5.601,0 10.144,-4.543 10.144,-10.141 0,-5.601 -4.543,-10.14 -10.144,-10.14 -5.598,0 -10.137,4.539 -10.137,10.14 0,5.598 4.539,10.141 10.137,10.141 z" /><path
         id="path34"
         style="fill:none;stroke:#231f20;stroke-width:7.5005002;stroke-linecap:butt;stroke-linejoin:miter;stroke-miterlimit:2.61310005;stroke-dasharray:none;stroke-opacity:1"
         d="M 91.2891,42.5898 396.969,299.086" /><path
         id="path36"
         style="fill:none;stroke:#231f20;stroke-width:7.5005002;stroke-linecap:butt;stroke-linejoin:miter;stroke-miterlimit:2.61310005;stroke-dasharray:none;stroke-opacity:1"
         d="m 440.727,296.078 c 69.398,0 125.671,-56.277 125.671,-125.676 0,-69.398 -56.273,-125.6793 -125.671,-125.6793 -69.399,0 -125.676,56.2813 -125.676,125.6793 0,69.399 56.277,125.676 125.676,125.676 z" /><path
         id="path38"
         style="fill:none;stroke:#231f20;stroke-width:7.5005002;stroke-linecap:butt;stroke-linejoin:miter;stroke-miterlimit:2.61310005;stroke-dasharray:none;stroke-opacity:1"
         d="M 490.215,294.57 795.895,38.0742" /></g></g></svg>