<?xml version="1.0" encoding="UTF-8" standalone="no"?>
<svg
   xmlns:dc="http://purl.org/dc/elements/1.1/"
   xmlns:cc="http://creativecommons.org/ns#"
   xmlns:rdf="http://www.w3.org/1999/02/22-rdf-syntax-ns#"
   xmlns:svg="http://www.w3.org/2000/svg"
   xmlns="http://www.w3.org/2000/svg"
   viewBox="0 0 133.33333 166.66667"
   height="166.66667"
   width="133.33333"
   xml:space="preserve"
   id="svg2"
   version="1.1"><metadata
     id="metadata8"><rdf:RDF><cc:Work
         rdf:about=""><dc:format>image/svg+xml</dc:format><dc:type
           rdf:resource="http://purl.org/dc/dcmitype/StillImage" /></cc:Work></rdf:RDF></metadata><defs
     id="defs6" /><g
     transform="matrix(1.3333333,0,0,-1.3333333,0,166.66667)"
     id="g10"><g
       transform="scale(0.1)"
       id="g12"><path
         id="path14"
         style="fill:#231f20;fill-opacity:1;fill-rule:nonzero;stroke:none"
         d="m 9.02734,436.961 v 1.801 c 4.23046,0.066 8.18356,1.05 11.81646,2.965 3.6484,1.902 7.1835,5.234 10.582,9.984 3.4023,4.75 5.7656,9.965 7.0976,15.668 -5.1132,-3.285 -9.7304,-4.934 -13.8632,-4.934 -4.6524,0 -8.6485,1.801 -11.9649,5.399 -3.3203,3.601 -4.98827,8.367 -4.98827,14.332 0,5.804 1.66797,10.949 4.98827,15.488 3.9961,5.496 9.2305,8.246 15.6797,8.246 5.4336,0 10.082,-2.25 13.9531,-6.75 4.7617,-5.566 7.1289,-12.43 7.1289,-20.598 0,-7.351 -1.7968,-14.218 -5.414,-20.585 -3.6172,-6.368 -8.6485,-11.649 -15.086,-15.832 -5.25,-3.469 -10.9492,-5.184 -17.1484,-5.184 z m 30.28126,34.035 c 0.582,4.234 0.8828,7.613 0.8828,10.149 0,3.167 -0.5508,6.566 -1.6133,10.234 -1.0859,3.668 -2.6054,6.465 -4.5664,8.414 -1.9687,1.969 -4.2031,2.934 -6.7187,2.934 -2.9024,0 -5.4336,-1.301 -7.6172,-3.899 -2.1836,-2.601 -3.2656,-6.484 -3.2656,-11.617 0,-6.867 1.4492,-12.25 4.3476,-16.117 2.1016,-2.797 4.7188,-4.199 7.8008,-4.199 1.5,0 3.2812,0.347 5.332,1.066 2.0508,0.719 3.8516,1.734 5.418,3.035" /><path
         id="path16"
         style="fill:none;stroke:#231f20;stroke-width:10.00059986;stroke-linecap:butt;stroke-linejoin:miter;stroke-miterlimit:2.61310005;stroke-dasharray:none;stroke-opacity:1"
         d="M 86.3398,5.76172 V 860.48 H 534.906" /><path
         id="path18"
         style="fill:none;stroke:#231f20;stroke-width:10.00059986;stroke-linecap:butt;stroke-linejoin:miter;stroke-miterlimit:2.61310005;stroke-dasharray:none;stroke-opacity:1"
         d="M 540.375,1144.05 V 568.918 h 185.992 l 262.574,579.132 z" /><path
         id="path20"
         style="fill:none;stroke:#231f20;stroke-width:10.00059986;stroke-linecap:butt;stroke-linejoin:miter;stroke-miterlimit:2.61310005;stroke-dasharray:none;stroke-opacity:1"
         d="M 540.375,568.918 86.3398,5.76172" /><path
         id="path22"
         style="fill:none;stroke:#231f20;stroke-width:7.5005002;stroke-linecap:butt;stroke-linejoin:miter;stroke-miterlimit:2.61310005;stroke-dasharray:none;stroke-opacity:1"
         d="M 86.3398,796.578 H 152.75 v 63.9023 H 86.3398 Z" /><path
         id="path24"
         style="fill:none;stroke:#231f20;stroke-width:7.5005002;stroke-linecap:butt;stroke-linejoin:miter;stroke-miterlimit:2.61310005;stroke-dasharray:none;stroke-opacity:1"
         d="m 541.473,571.184 h 64.8828 v 63.9023 H 541.473 Z" /><path
         id="path26"
         style="fill:none;stroke:#231f20;stroke-width:10.00059986;stroke-linecap:butt;stroke-linejoin:miter;stroke-miterlimit:2.61310005;stroke-dasharray:none;stroke-opacity:1"
         d="m 495.281,769.277 h 89.922" /><path
         id="path28"
         style="fill:none;stroke:#231f20;stroke-width:10.00059986;stroke-linecap:butt;stroke-linejoin:miter;stroke-miterlimit:2.61310005;stroke-dasharray:none;stroke-opacity:1"
         d="m 495.414,742.66 h 89.922" /><path
         id="path30"
         style="fill:none;stroke:#231f20;stroke-width:10.00059986;stroke-linecap:butt;stroke-linejoin:miter;stroke-miterlimit:2.61310005;stroke-dasharray:none;stroke-opacity:1"
         d="m 495.414,1012.38 h 89.922" /><path
         id="path32"
         style="fill:none;stroke:#231f20;stroke-width:10.00059986;stroke-linecap:butt;stroke-linejoin:miter;stroke-miterlimit:2.61310005;stroke-dasharray:none;stroke-opacity:1"
         d="m 495.543,985.766 h 89.93" /><path
         id="path34"
         style="fill:#231f20;fill-opacity:1;fill-rule:nonzero;stroke:none"
         d="m 629.824,879.227 v -1.817 c -4.285,-0.418 -7.797,-1.265 -10.515,-2.566 -2.715,-1.282 -5.403,-3.235 -8.051,-5.883 -2.649,-2.633 -4.852,-5.566 -6.602,-8.801 -1.73,-3.25 -3.199,-7.098 -4.363,-11.551 4.684,3.219 9.383,4.836 14.117,4.836 4.516,0 8.449,-1.836 11.766,-5.465 3.316,-3.652 4.984,-8.335 4.984,-14.07 0,-5.531 -1.683,-10.582 -5.035,-15.133 -4.035,-5.535 -9.383,-8.3 -16.016,-8.3 -4.531,0 -8.367,1.503 -11.535,4.484 -6.179,5.836 -9.265,13.383 -9.265,22.664 0,5.922 1.183,11.555 3.566,16.887 2.367,5.351 5.77,10.082 10.184,14.215 4.398,4.132 8.632,6.918 12.664,8.351 4.035,1.434 7.8,2.149 11.285,2.149 z m -30.363,-34.18 c -0.586,-4.402 -0.887,-7.953 -0.887,-10.652 0,-3.118 0.586,-6.516 1.735,-10.184 1.168,-3.649 2.882,-6.566 5.164,-8.715 1.652,-1.519 3.668,-2.285 6.054,-2.285 2.832,0 5.364,1.332 7.582,4 2.235,2.668 3.352,6.484 3.352,11.434 0,5.566 -1.102,10.382 -3.316,14.449 -2.219,4.07 -5.352,6.101 -9.434,6.101 -1.234,0 -2.551,-0.265 -3.969,-0.781 -1.414,-0.519 -3.515,-1.652 -6.281,-3.367" /><path
         id="path36"
         style="fill:#231f20;fill-opacity:1;fill-rule:nonzero;stroke:none"
         d="m 679.43,1228.37 c 1.886,4.45 4.265,7.9 7.152,10.31 2.883,2.44 6.465,3.66 10.766,3.66 5.3,0 9.367,-1.74 12.199,-5.19 2.148,-2.56 3.234,-5.31 3.234,-8.25 0,-4.81 -3.035,-9.8 -9.082,-14.93 4.067,-1.6 7.133,-3.88 9.215,-6.85 2.086,-2.95 3.133,-6.44 3.133,-10.45 0,-5.72 -1.817,-10.69 -5.465,-14.88 -4.75,-5.47 -11.637,-8.21 -20.652,-8.21 -4.465,0 -7.496,0.55 -9.118,1.66 -1.597,1.11 -2.414,2.3 -2.414,3.56 0,0.95 0.383,1.79 1.149,2.5 0.769,0.72 1.683,1.07 2.765,1.07 0.805,0 1.637,-0.14 2.489,-0.39 0.547,-0.16 1.797,-0.76 3.761,-1.78 1.954,-1.03 3.305,-1.63 4.051,-1.83 1.199,-0.37 2.485,-0.53 3.852,-0.53 3.316,0 6.215,1.28 8.668,3.84 2.465,2.57 3.679,5.62 3.679,9.14 0,2.56 -0.566,5.08 -1.699,7.52 -0.847,1.81 -1.781,3.2 -2.781,4.14 -1.398,1.31 -3.32,2.49 -5.77,3.54 -2.429,1.07 -4.929,1.6 -7.464,1.6 h -1.567 v 1.47 c 2.567,0.31 5.149,1.25 7.735,2.78 2.601,1.51 4.48,3.36 5.648,5.51 1.168,2.16 1.75,4.51 1.75,7.07 0,3.37 -1.047,6.07 -3.148,8.13 -2.102,2.07 -4.7,3.1 -7.836,3.1 -5.047,0 -9.25,-2.7 -12.649,-8.09 l -1.601,0.78" /><path
         id="path38"
         style="fill:#231f20;fill-opacity:1;fill-rule:nonzero;stroke:none"
         d="m 729.715,1158.1 v 2.15 c 3.347,1.1 5.949,2.82 7.801,5.15 1.832,2.33 2.75,4.8 2.75,7.4 0,0.62 -0.153,1.13 -0.434,1.57 -0.234,0.28 -0.465,0.43 -0.684,0.43 -0.367,0 -1.152,-0.33 -2.351,-0.98 -0.582,-0.28 -1.199,-0.43 -1.852,-0.43 -1.597,0 -2.863,0.46 -3.812,1.41 -0.934,0.95 -1.418,2.25 -1.418,3.9 0,1.6 0.617,2.97 1.832,4.1 1.219,1.15 2.715,1.72 4.469,1.72 2.148,0 4.062,-0.93 5.73,-2.82 1.684,-1.86 2.52,-4.35 2.52,-7.43 0,-3.35 -1.168,-6.47 -3.485,-9.35 -2.336,-2.88 -6.015,-5.15 -11.066,-6.82" /><path
         id="path40"
         style="fill:#231f20;fill-opacity:1;fill-rule:nonzero;stroke:none"
         d="m 792.766,1240.97 -3.817,-8.3 h -19.918 l -4.351,-8.9 c 8.636,-1.27 15.468,-4.47 20.5,-9.62 4.336,-4.42 6.5,-9.63 6.5,-15.61 0,-3.49 -0.7,-6.72 -2.114,-9.67 -1.418,-2.97 -3.199,-5.48 -5.351,-7.57 -2.149,-2.08 -4.551,-3.76 -7.184,-5.03 -3.734,-1.8 -7.582,-2.69 -11.515,-2.69 -3.985,0 -6.868,0.67 -8.668,2.02 -1.817,1.35 -2.715,2.85 -2.715,4.47 0,0.91 0.383,1.72 1.113,2.41 0.754,0.7 1.703,1.06 2.836,1.06 0.852,0 1.598,-0.12 2.234,-0.39 0.633,-0.27 1.715,-0.93 3.25,-2 2.434,-1.7 4.899,-2.55 7.418,-2.55 3.797,0 7.149,1.45 10.032,4.33 2.882,2.89 4.316,6.39 4.316,10.52 0,4 -1.285,7.73 -3.852,11.2 -2.582,3.47 -6.117,6.15 -10.648,8.03 -3.547,1.47 -8.383,2.32 -14.5,2.55 l 12.699,25.74 h 23.735" /><path
         id="path42"
         style="fill:#231f20;fill-opacity:1;fill-rule:nonzero;stroke:none"
         d="m 582.031,527.281 16.117,7.867 h 1.618 V 479.23 c 0,-3.699 0.148,-6.015 0.449,-6.933 0.32,-0.899 0.969,-1.602 1.933,-2.098 0.985,-0.484 2.969,-0.765 5.969,-0.836 v -1.797 h -24.918 v 1.797 c 3.133,0.071 5.153,0.336 6.067,0.817 0.902,0.468 1.535,1.101 1.898,1.902 0.352,0.801 0.535,3.18 0.535,7.148 v 35.75 c 0,4.817 -0.164,7.903 -0.484,9.27 -0.231,1.047 -0.649,1.816 -1.25,2.297 -0.598,0.484 -1.313,0.734 -2.164,0.734 -1.203,0 -2.883,-0.5 -5.035,-1.515 l -0.735,1.515" /><path
         id="path44"
         style="fill:#231f20;fill-opacity:1;fill-rule:nonzero;stroke:none"
         d="m 625.684,450.914 v 2.152 c 3.347,1.098 5.949,2.813 7.8,5.149 1.832,2.336 2.75,4.801 2.75,7.398 0,0.621 -0.152,1.137 -0.433,1.571 -0.235,0.281 -0.465,0.433 -0.684,0.433 -0.367,0 -1.152,-0.336 -2.351,-0.984 -0.582,-0.285 -1.2,-0.434 -1.852,-0.434 -1.598,0 -2.863,0.465 -3.816,1.418 -0.93,0.949 -1.414,2.246 -1.414,3.895 0,1.601 0.617,2.968 1.832,4.101 1.214,1.153 2.714,1.715 4.468,1.715 2.149,0 4.063,-0.93 5.731,-2.812 1.683,-1.868 2.515,-4.352 2.515,-7.438 0,-3.348 -1.164,-6.465 -3.48,-9.348 -2.336,-2.882 -6.016,-5.148 -11.066,-6.816" /><path
         id="path46"
         style="fill:#231f20;fill-opacity:1;fill-rule:nonzero;stroke:none"
         d="m 688.734,533.781 -3.816,-8.301 H 665 l -4.352,-8.898 c 8.637,-1.27 15.469,-4.469 20.5,-9.617 4.336,-4.418 6.5,-9.633 6.5,-15.617 0,-3.485 -0.699,-6.715 -2.113,-9.668 -1.418,-2.965 -3.199,-5.481 -5.351,-7.563 -2.149,-2.086 -4.551,-3.769 -7.184,-5.035 -3.734,-1.801 -7.582,-2.684 -11.516,-2.684 -3.984,0 -6.867,0.668 -8.668,2.016 -1.816,1.352 -2.718,2.852 -2.718,4.469 0,0.914 0.386,1.715 1.117,2.414 0.754,0.699 1.703,1.051 2.836,1.051 0.851,0 1.597,-0.118 2.234,-0.383 0.633,-0.27 1.715,-0.934 3.246,-2 2.438,-1.699 4.903,-2.551 7.418,-2.551 3.801,0 7.153,1.453 10.035,4.336 2.883,2.883 4.317,6.383 4.317,10.516 0,4 -1.285,7.73 -3.852,11.199 -2.582,3.465 -6.117,6.148 -10.648,8.031 -3.547,1.469 -8.383,2.316 -14.5,2.551 L 665,533.781 h 23.734" /><path
         id="path48"
         style="fill:#231f20;fill-opacity:1;fill-rule:nonzero;stroke:none"
         d="m 279.844,944.547 c 1.883,4.449 4.265,7.898 7.148,10.316 2.883,2.434 6.469,3.649 10.766,3.649 5.301,0 9.367,-1.731 12.203,-5.184 2.148,-2.566 3.234,-5.316 3.234,-8.25 0,-4.816 -3.039,-9.797 -9.086,-14.93 4.067,-1.601 7.133,-3.886 9.219,-6.851 2.082,-2.949 3.133,-6.434 3.133,-10.449 0,-5.719 -1.82,-10.684 -5.469,-14.887 -4.75,-5.465 -11.633,-8.199 -20.652,-8.199 -4.461,0 -7.496,0.55 -9.113,1.652 -1.602,1.113 -2.418,2.301 -2.418,3.566 0,0.95 0.382,1.786 1.148,2.5 0.77,0.719 1.684,1.067 2.77,1.067 0.8,0 1.632,-0.133 2.484,-0.383 0.551,-0.168 1.801,-0.769 3.766,-1.781 1.949,-1.035 3.3,-1.637 4.05,-1.836 1.2,-0.367 2.481,-0.531 3.848,-0.531 3.316,0 6.215,1.281 8.668,3.847 2.465,2.567 3.684,5.617 3.684,9.133 0,2.566 -0.567,5.082 -1.704,7.52 -0.847,1.816 -1.781,3.199 -2.781,4.148 -1.398,1.297 -3.316,2.484 -5.765,3.531 -2.434,1.071 -4.934,1.602 -7.469,1.602 h -1.567 v 1.465 c 2.571,0.32 5.153,1.25 7.735,2.785 2.601,1.515 4.484,3.367 5.652,5.515 1.164,2.153 1.746,4.5 1.746,7.067 0,3.367 -1.047,6.066 -3.148,8.133 -2.102,2.07 -4.699,3.101 -7.836,3.101 -5.047,0 -9.246,-2.699 -12.645,-8.097 l -1.601,0.781" /><path
         id="path50"
         style="fill:#231f20;fill-opacity:1;fill-rule:nonzero;stroke:none"
         d="m 330.125,874.281 v 2.149 c 3.352,1.101 5.949,2.816 7.801,5.152 1.836,2.332 2.75,4.797 2.75,7.398 0,0.618 -0.153,1.133 -0.434,1.567 -0.234,0.285 -0.465,0.433 -0.683,0.433 -0.368,0 -1.153,-0.332 -2.352,-0.984 -0.582,-0.281 -1.199,-0.434 -1.848,-0.434 -1.601,0 -2.867,0.465 -3.816,1.418 -0.934,0.95 -1.418,2.25 -1.418,3.899 0,1.601 0.617,2.969 1.836,4.101 1.215,1.153 2.715,1.715 4.465,1.715 2.148,0 4.066,-0.933 5.73,-2.816 1.684,-1.867 2.52,-4.348 2.52,-7.434 0,-3.347 -1.164,-6.465 -3.485,-9.347 -2.332,-2.883 -6.015,-5.153 -11.066,-6.817" /><path
         id="path52"
         style="fill:#231f20;fill-opacity:1;fill-rule:nonzero;stroke:none"
         d="m 393.18,957.145 -3.821,-8.297 h -19.914 l -4.351,-8.903 c 8.633,-1.265 15.468,-4.465 20.5,-9.613 4.332,-4.422 6.5,-9.637 6.5,-15.621 0,-3.481 -0.703,-6.715 -2.117,-9.664 -1.418,-2.969 -3.2,-5.485 -5.352,-7.567 -2.148,-2.082 -4.547,-3.765 -7.184,-5.035 -3.73,-1.797 -7.582,-2.683 -11.515,-2.683 -3.981,0 -6.864,0.668 -8.664,2.019 -1.817,1.348 -2.719,2.848 -2.719,4.465 0,0.918 0.387,1.715 1.117,2.418 0.75,0.699 1.699,1.051 2.832,1.051 0.852,0 1.602,-0.121 2.235,-0.387 0.632,-0.266 1.714,-0.93 3.25,-1.996 2.433,-1.703 4.898,-2.551 7.418,-2.551 3.796,0 7.148,1.449 10.031,4.332 2.886,2.883 4.316,6.383 4.316,10.516 0,4 -1.285,7.734 -3.847,11.199 -2.583,3.469 -6.118,6.152 -10.653,8.035 -3.547,1.469 -8.383,2.317 -14.496,2.551 l 12.699,25.731 h 23.735" /><path
         id="path54"
         style="fill:none;stroke:#231f20;stroke-width:7.5005002;stroke-linecap:butt;stroke-linejoin:miter;stroke-miterlimit:2.61310005;stroke-dasharray:none;stroke-opacity:1"
         d="m 543.113,1079.3 h 64.8828 v 63.9023 H 543.113 Z" /></g></g></svg>