<?xml version="1.0" encoding="UTF-8" standalone="no"?>
<svg
   xmlns:dc="http://purl.org/dc/elements/1.1/"
   xmlns:cc="http://creativecommons.org/ns#"
   xmlns:rdf="http://www.w3.org/1999/02/22-rdf-syntax-ns#"
   xmlns:svg="http://www.w3.org/2000/svg"
   xmlns="http://www.w3.org/2000/svg"
   viewBox="0 0 180 76"
   height="76"
   width="180"
   xml:space="preserve"
   id="svg2"
   version="1.1"><metadata
     id="metadata8"><rdf:RDF><cc:Work
         rdf:about=""><dc:format>image/svg+xml</dc:format><dc:type
           rdf:resource="http://purl.org/dc/dcmitype/StillImage" /></cc:Work></rdf:RDF></metadata><defs
     id="defs6" /><g
     transform="matrix(1.3333333,0,0,-1.3333333,0,76)"
     id="g10"><g
       transform="scale(0.1)"
       id="g12"><path
         id="path14"
         style="fill:#231f20;fill-opacity:1;fill-rule:nonzero;stroke:none"
         d="M 57.0195,85.6094 51.9844,30.543 c -0.2656,-2.586 -0.3828,-4.2696 -0.3828,-5.086 0,-1.2968 0.2343,-2.2968 0.7343,-2.9804 0.6172,-0.9336 1.4493,-1.6328 2.5,-2.1016 1.0664,-0.4492 2.8516,-0.6836 5.3516,-0.6836 L 59.6523,17.8906 H 33.5859 l 0.5352,1.8008 h 1.1172 c 2.1172,0 3.8515,0.4688 5.1836,1.3672 0.9297,0.6328 1.664,1.6484 2.1992,3.082 0.3477,1.0196 0.6992,3.3828 1.0156,7.1328 l 0.7852,8.4024 H 25.4727 L 18.7344,30.543 c -1.5274,-2.0508 -2.4805,-3.5352 -2.8828,-4.418 -0.3828,-0.8984 -0.5821,-1.7344 -0.5821,-2.5156 0,-1.0508 0.418,-1.9336 1.2657,-2.6836 0.8515,-0.75 2.2539,-1.1641 4.2031,-1.2344 L 20.2031,17.8906 H 0.621094 l 0.531246,1.8008 c 2.41797,0.1016 4.53516,0.918 6.38282,2.418 1.83593,1.5156 4.56644,4.75 8.21874,9.6992 L 55.3008,85.6094 Z M 47.3555,69.3555 28.1523,43.2422 h 16.6524 l 2.5508,26.1133" /><path
         id="path16"
         style="fill:none;stroke:#231f20;stroke-width:7.5005002;stroke-linecap:butt;stroke-linejoin:miter;stroke-miterlimit:2.61310005;stroke-dasharray:none;stroke-opacity:1"
         d="M 94.6406,61.9414 H 1254.73" /><path
         id="path18"
         style="fill:#231f20;fill-opacity:1;fill-rule:nonzero;stroke:none"
         d="m 259.094,539.348 0.683,1.82 h 23.637 c 3.965,0 7.496,-0.621 10.613,-1.871 3.102,-1.231 5.434,-2.945 6.985,-5.164 1.547,-2.215 2.316,-4.567 2.316,-7.035 0,-3.817 -1.383,-7.246 -4.133,-10.332 -2.754,-3.067 -7.234,-5.348 -13.449,-6.801 4.016,-1.5 6.949,-3.485 8.848,-5.965 1.883,-2.469 2.832,-5.184 2.832,-8.148 0,-3.286 -0.848,-6.434 -2.547,-9.434 -1.684,-2.984 -3.867,-5.316 -6.516,-6.965 -2.652,-1.668 -5.851,-2.887 -9.601,-3.668 -2.668,-0.551 -6.836,-0.836 -12.5,-0.836 h -24.266 l 0.633,1.801 c 2.551,0.066 4.266,0.316 5.183,0.734 1.297,0.567 2.231,1.297 2.786,2.2 0.781,1.234 1.812,4.066 3.113,8.5 l 11.867,40.082 c 1.016,3.386 1.516,5.765 1.516,7.136 0,1.2 -0.449,2.149 -1.332,2.848 -0.899,0.699 -2.602,1.047 -5.117,1.047 -0.551,0 -1.067,0.019 -1.551,0.051 z m 9.902,-27.481 c 2.113,-0.066 3.649,-0.101 4.598,-0.101 6.769,0 11.801,1.468 15.117,4.418 3.297,2.949 4.953,6.632 4.953,11.066 0,3.348 -1.019,5.965 -3.039,7.832 -2.016,1.867 -5.23,2.801 -9.664,2.801 -1.164,0 -2.664,-0.184 -4.481,-0.582 z m -9.617,-32.617 c 3.516,-0.469 6.266,-0.684 8.25,-0.684 5.082,0 9.582,1.536 13.5,4.586 3.933,3.067 5.883,7.215 5.883,12.45 0,4 -1.203,7.128 -3.633,9.382 -2.418,2.25 -6.332,3.368 -11.734,3.368 -1.051,0 -2.317,-0.051 -3.817,-0.153 l -8.449,-28.949" /><path
         id="path20"
         style="fill:#231f20;fill-opacity:1;fill-rule:nonzero;stroke:none"
         d="m 1095.91,568.223 -4.93,-21.434 h -1.77 l -0.18,5.383 c -0.17,1.953 -0.55,3.683 -1.14,5.219 -0.58,1.531 -1.46,2.851 -2.63,3.984 -1.17,1.113 -2.65,2 -4.45,2.633 -1.78,0.633 -3.77,0.949 -5.95,0.949 -5.83,0 -10.92,-1.602 -15.29,-4.785 -5.56,-4.063 -9.93,-9.817 -13.08,-17.231 -2.6,-6.117 -3.92,-12.316 -3.92,-18.601 0,-6.418 1.89,-11.531 5.62,-15.367 3.75,-3.817 8.62,-5.735 14.6,-5.735 4.53,0 8.57,1.02 12.09,3.035 3.53,2.02 6.82,5.118 9.85,9.317 h 2.28 c -3.57,-5.699 -7.55,-9.883 -11.9,-12.567 -4.37,-2.683 -9.6,-4.031 -15.68,-4.031 -5.41,0 -10.19,1.133 -14.35,3.399 -4.17,2.265 -7.35,5.433 -9.52,9.55 -2.18,4.102 -3.29,8.5 -3.29,13.235 0,7.215 1.96,14.246 5.82,21.082 3.87,6.832 9.19,12.215 15.93,16.113 6.77,3.902 13.57,5.852 20.46,5.852 3.21,0 6.83,-0.746 10.83,-2.282 1.75,-0.652 3.03,-0.984 3.8,-0.984 0.78,0 1.46,0.164 2.07,0.484 0.58,0.332 1.55,1.266 2.91,2.782 h 1.82" /><path
         id="path22"
         style="fill:none;stroke:#231f20;stroke-width:7.5005002;stroke-linecap:butt;stroke-linejoin:miter;stroke-miterlimit:2.61310005;stroke-dasharray:none;stroke-opacity:1"
         d="m 308.09,482.598 h 712.32" /><path
         id="path24"
         style="fill:none;stroke:#231f20;stroke-width:7.5005002;stroke-linecap:butt;stroke-linejoin:miter;stroke-miterlimit:2.61310005;stroke-dasharray:none;stroke-opacity:1"
         d="M 94.6406,61.9414 312.117,481.863" /><path
         id="path26"
         style="fill:none;stroke:#231f20;stroke-width:7.5005002;stroke-linecap:butt;stroke-linejoin:miter;stroke-miterlimit:2.61310005;stroke-dasharray:none;stroke-opacity:1"
         d="M 1021.88,480.883 1254.73,61.9414" /><path
         id="path28"
         style="fill:none;stroke:#231f20;stroke-width:7.5005002;stroke-linecap:butt;stroke-linejoin:miter;stroke-miterlimit:2.61310005;stroke-dasharray:none;stroke-opacity:1"
         d="M 312.195,481.023 1254.73,61.9414" /><path
         id="path30"
         style="fill:none;stroke:#231f20;stroke-width:7.5005002;stroke-linecap:butt;stroke-linejoin:miter;stroke-miterlimit:2.61310005;stroke-dasharray:none;stroke-opacity:1"
         d="M 94.6406,61.9414 1022.93,482.387" /><path
         id="path32"
         style="fill:none;stroke:#231f20;stroke-width:7.5005002;stroke-linecap:butt;stroke-linejoin:miter;stroke-miterlimit:2.61310005;stroke-dasharray:none;stroke-opacity:1"
         d="m 568.883,276.855 216.746,-6.023" /><path
         id="path34"
         style="fill:#231f20;fill-opacity:1;fill-rule:nonzero;stroke:none"
         d="m 1293.3,73.75 0.59,1.8164 h 21.15 c 8.95,0 15.58,-1.0352 19.88,-3.082 4.32,-2.0508 7.77,-5.2852 10.33,-9.6836 2.57,-4.418 3.87,-9.1524 3.87,-14.1992 0,-4.3164 -0.75,-8.5352 -2.23,-12.6172 -1.49,-4.0821 -3.15,-7.3477 -5.03,-9.8164 -1.87,-2.4492 -4.74,-5.168 -8.62,-8.1328 -3.87,-2.9493 -8.07,-5.1524 -12.58,-6.5664 -4.54,-1.418 -10.19,-2.11724 -16.96,-2.11724 h -28.03 l 0.63,1.80074 c 2.59,0.0665 4.31,0.3008 5.19,0.6836 1.3,0.5664 2.26,1.3164 2.88,2.25 0.93,1.3672 2,4.1133 3.17,8.2461 l 11.71,40.0508 c 0.92,3.1484 1.37,5.6328 1.37,7.418 0,1.2656 -0.42,2.25 -1.26,2.9336 -0.86,0.6797 -2.5,1.0156 -4.99,1.0156 z m 17.34,-1.8516 -14.35,-49.5664 c -1.08,-3.6992 -1.62,-5.9961 -1.62,-6.8789 0,-0.5195 0.17,-1.0195 0.52,-1.5195 0.33,-0.4844 0.8,-0.7969 1.38,-0.9648 0.85,-0.3008 2.22,-0.4532 4.1,-0.4532 5.12,0 9.87,0.5352 14.23,1.6016 4.39,1.0508 7.97,2.6172 10.77,4.7031 3.98,3.0313 7.15,7.1992 9.53,12.4961 2.37,5.3164 3.55,11.3516 3.55,18.1172 0,7.6484 -1.81,13.3516 -5.46,17.0664 -3.64,3.7344 -8.97,5.6016 -15.97,5.6016 -1.72,0 -3.95,-0.0704 -6.68,-0.2032" /><path
         id="path36"
         style="fill:#231f20;fill-opacity:1;fill-rule:nonzero;stroke:none"
         d="m 771.219,206.703 16.398,-25.351 c 2.938,-4.481 5.367,-7.368 7.285,-8.618 1.918,-1.25 4.45,-1.882 7.567,-1.882 l -0.531,-1.801 h -28.235 l 0.449,1.801 c 2.25,0.234 3.836,0.765 4.75,1.617 0.934,0.851 1.403,1.801 1.403,2.886 0,0.981 -0.168,1.915 -0.489,2.829 -0.265,0.652 -1.214,2.254 -2.828,4.785 l -13.433,21.051 -6.5,-21.934 c -1.071,-3.52 -1.602,-5.867 -1.602,-7.082 0,-1.234 0.449,-2.168 1.363,-2.82 0.903,-0.664 3.153,-1.098 6.739,-1.332 l -0.785,-1.801 h -26.168 l 0.636,1.801 c 2.532,0.07 4.246,0.3 5.133,0.683 1.297,0.602 2.246,1.352 2.863,2.25 0.852,1.332 1.903,4.102 3.133,8.301 l 11.668,40 c 0.883,3.051 1.32,5.516 1.32,7.367 0,1.301 -0.417,2.297 -1.234,2.981 -0.832,0.683 -2.453,1.019 -4.867,1.019 h -0.984 l 0.597,1.817 h 24.852 l -0.5,-1.817 c -2.051,0.031 -3.567,-0.187 -4.582,-0.683 -1.403,-0.684 -2.418,-1.571 -3.067,-2.633 -0.668,-1.067 -1.617,-3.77 -2.882,-8.051 l -5.133,-17 23.531,17.734 c 3.133,2.332 5.184,4.196 6.148,5.567 0.582,0.832 0.883,1.597 0.883,2.281 0,0.586 -0.301,1.168 -0.898,1.719 -0.598,0.551 -1.516,0.898 -2.766,1.066 l 0.5,1.817 h 21.184 l -0.434,-1.817 c -2.316,-0.383 -4.265,-0.898 -5.836,-1.535 -1.582,-0.633 -3.199,-1.5 -4.867,-2.617 -0.48,-0.317 -3.664,-2.731 -9.516,-7.215 l -20.265,-15.383" /><path
         id="path38"
         style="fill:#231f20;fill-opacity:1;fill-rule:nonzero;stroke:none"
         d="m 534.953,247.32 h 26.067 c 6.835,0 11.953,-1.48 15.332,-4.414 3.386,-2.953 5.086,-6.551 5.086,-10.765 0,-3.368 -1.086,-6.621 -3.235,-9.77 -2.152,-3.164 -5.336,-5.734 -9.566,-7.699 -4.235,-1.965 -8.801,-2.949 -13.715,-2.949 -3.07,0 -6.953,0.55 -11.668,1.664 l -5.285,-18.067 c -1.231,-4.3 -1.848,-7.132 -1.848,-8.496 0,-1.054 0.434,-1.902 1.317,-2.586 0.882,-0.699 2.984,-1.133 6.3,-1.332 l -0.484,-1.801 h -26.336 l 0.551,1.801 c 3.449,0 5.851,0.602 7.199,1.782 1.355,1.199 2.801,4.468 4.371,9.851 l 10.93,37.684 c 1.304,4.531 1.953,7.566 1.953,9.082 0,1.148 -0.453,2.082 -1.383,2.832 -0.934,0.75 -2.969,1.199 -6.137,1.367 z m 9.117,-30.863 c 3.684,-0.949 6.649,-1.418 8.899,-1.418 3.535,0 6.765,0.734 9.683,2.199 2.918,1.469 5.203,3.668 6.836,6.586 1.649,2.93 2.465,5.981 2.465,9.133 0,3.297 -1,5.898 -3.015,7.813 -2.036,1.918 -5.086,2.882 -9.184,2.882 -2.219,0 -4.902,-0.281 -8.066,-0.832 l -7.618,-26.363" /></g></g></svg>