<?xml version="1.0" encoding="UTF-8" standalone="no"?>
<svg
   xmlns:dc="http://purl.org/dc/elements/1.1/"
   xmlns:cc="http://creativecommons.org/ns#"
   xmlns:rdf="http://www.w3.org/1999/02/22-rdf-syntax-ns#"
   xmlns:svg="http://www.w3.org/2000/svg"
   xmlns="http://www.w3.org/2000/svg"
   viewBox="0 0 184 73.333336"
   height="73.333336"
   width="184"
   xml:space="preserve"
   id="svg2"
   version="1.1"><metadata
     id="metadata8"><rdf:RDF><cc:Work
         rdf:about=""><dc:format>image/svg+xml</dc:format><dc:type
           rdf:resource="http://purl.org/dc/dcmitype/StillImage" /></cc:Work></rdf:RDF></metadata><defs
     id="defs6" /><g
     transform="matrix(1.3333333,0,0,-1.3333333,0,73.333333)"
     id="g10"><g
       transform="scale(0.1)"
       id="g12"><path
         id="path14"
         style="fill:#231f20;fill-opacity:1;fill-rule:nonzero;stroke:none"
         d="m 42.8906,84.9492 6.1172,-53.3359 38.418,53.3359 H 103.59 v -1.8203 c -3.516,-0.2148 -5.5822,-0.4492 -6.1994,-0.6836 -1.082,-0.4141 -2.0664,-1.2656 -2.9492,-2.5312 -0.8984,-1.2696 -1.8672,-3.7188 -2.918,-7.336 L 79.2773,30.5977 C 78.5586,28.1484 78.207,26.2305 78.207,24.832 c 0,-1.2695 0.4336,-2.2343 1.3164,-2.8828 1.2344,-0.9336 3.1836,-1.418 5.8516,-1.418 h 1.1836 L 86.1055,18.7305 H 58.2266 l 0.5,1.8007 h 1.3125 c 2.4687,0 4.3515,0.3672 5.6718,1.0821 0.9961,0.5156 1.8985,1.5 2.6953,2.9531 0.8008,1.4453 1.918,4.6641 3.3516,9.6484 L 82.6914,72.5781 44.0742,18.7305 H 42.125 L 35.9102,72.5781 24.0898,31.6133 c -1,-3.4844 -1.496,-5.8164 -1.496,-7.0156 0,-1.2188 0.4335,-2.1329 1.3124,-2.7657 0.8672,-0.6367 3.004,-1.0703 6.4024,-1.3008 L 29.7578,18.7305 H 7.94141 l 0.53515,1.8007 h 1.31641 c 3.21483,0 5.54683,0.8165 6.98433,2.4493 1.0313,1.1679 2.1289,3.7148 3.2657,7.6172 l 14.414,49.3671 c -1.082,1.0977 -2.0976,1.8516 -3.082,2.25 -0.9844,0.3829 -2.7852,0.6993 -5.4141,0.9141 l 0.4805,1.8203 h 16.4492" /><path
         id="path16"
         style="fill:none;stroke:#231f20;stroke-width:7.5005002;stroke-linecap:butt;stroke-linejoin:miter;stroke-miterlimit:2.61310005;stroke-dasharray:none;stroke-opacity:1"
         d="M 124.641,61.9414 H 1284.73" /><path
         id="path18"
         style="fill:#231f20;fill-opacity:1;fill-rule:nonzero;stroke:none"
         d="m 285.711,537.242 20.449,-51.918 11.082,38.785 c 0.918,3.184 1.367,5.649 1.367,7.414 0,1.204 -0.418,2.153 -1.265,2.836 -0.852,0.684 -2.418,1.012 -4.735,1.012 -0.382,0 -0.8,0.02 -1.214,0.051 l 0.531,1.82 h 21.281 l -0.582,-1.82 c -2.215,0.035 -3.848,-0.184 -4.934,-0.68 -1.531,-0.683 -2.668,-1.57 -3.414,-2.637 -1.035,-1.531 -2.101,-4.199 -3.168,-7.996 l -15.582,-54.601 h -1.75 l -22.035,55.867 -11.765,-41.266 c -0.868,-3.117 -1.317,-5.519 -1.317,-7.168 0,-1.25 0.399,-2.183 1.199,-2.816 0.801,-0.633 2.7,-1.066 5.684,-1.301 l -0.484,-1.801 h -20.801 l 0.683,1.801 c 2.602,0.067 4.352,0.301 5.235,0.684 1.336,0.601 2.316,1.347 2.969,2.297 0.949,1.437 2,4.203 3.183,8.304 l 13.133,46.047 c -1.27,1.949 -2.637,3.301 -4.082,4.035 -1.453,0.715 -3.703,1.133 -6.77,1.231 l 0.551,1.82 h 16.551" /><path
         id="path20"
         style="fill:#231f20;fill-opacity:1;fill-rule:nonzero;stroke:none"
         d="m 1092.51,542.43 h 26.07 c 6.83,0 11.95,-1.485 15.33,-4.418 3.39,-2.95 5.09,-6.551 5.09,-10.766 0,-3.367 -1.09,-6.617 -3.24,-9.769 -2.15,-3.165 -5.33,-5.735 -9.56,-7.7 -4.24,-1.965 -8.81,-2.949 -13.72,-2.949 -3.07,0 -6.95,0.551 -11.67,1.668 l -5.28,-18.07 c -1.23,-4.297 -1.85,-7.129 -1.85,-8.496 0,-1.051 0.43,-1.903 1.32,-2.586 0.88,-0.699 2.98,-1.129 6.3,-1.332 l -0.49,-1.801 h -26.33 l 0.55,1.801 c 3.45,0 5.85,0.601 7.2,1.781 1.35,1.199 2.8,4.469 4.37,9.852 l 10.93,37.683 c 1.3,4.531 1.95,7.567 1.95,9.082 0,1.152 -0.45,2.082 -1.38,2.836 -0.94,0.746 -2.97,1.199 -6.14,1.363 z m 9.12,-30.868 c 3.68,-0.949 6.65,-1.417 8.9,-1.417 3.53,0 6.77,0.734 9.68,2.199 2.92,1.468 5.2,3.668 6.84,6.586 1.65,2.929 2.46,5.98 2.46,9.132 0,3.301 -1,5.899 -3.01,7.817 -2.04,1.914 -5.09,2.883 -9.19,2.883 -2.22,0 -4.9,-0.285 -8.06,-0.836 l -7.62,-26.364" /><path
         id="path22"
         style="fill:none;stroke:#231f20;stroke-width:7.5005002;stroke-linecap:butt;stroke-linejoin:miter;stroke-miterlimit:2.61310005;stroke-dasharray:none;stroke-opacity:1"
         d="m 338.09,482.598 h 712.32" /><path
         id="path24"
         style="fill:none;stroke:#231f20;stroke-width:7.5005002;stroke-linecap:butt;stroke-linejoin:miter;stroke-miterlimit:2.61310005;stroke-dasharray:none;stroke-opacity:1"
         d="M 124.641,61.9414 342.117,481.863" /><path
         id="path26"
         style="fill:none;stroke:#231f20;stroke-width:7.5005002;stroke-linecap:butt;stroke-linejoin:miter;stroke-miterlimit:2.61310005;stroke-dasharray:none;stroke-opacity:1"
         d="M 1051.88,480.883 1284.73,61.9414" /><path
         id="path28"
         style="fill:none;stroke:#231f20;stroke-width:7.5005002;stroke-linecap:butt;stroke-linejoin:miter;stroke-miterlimit:2.61310005;stroke-dasharray:none;stroke-opacity:1"
         d="M 342.195,481.023 1284.73,61.9414" /><path
         id="path30"
         style="fill:none;stroke:#231f20;stroke-width:7.5005002;stroke-linecap:butt;stroke-linejoin:miter;stroke-miterlimit:2.61310005;stroke-dasharray:none;stroke-opacity:1"
         d="M 124.641,61.9414 1052.93,482.387" /><path
         id="path32"
         style="fill:none;stroke:#231f20;stroke-width:7.5005002;stroke-linecap:butt;stroke-linejoin:miter;stroke-miterlimit:2.61310005;stroke-dasharray:none;stroke-opacity:1"
         d="m 598.883,276.855 216.746,-6.023" /><path
         id="path34"
         style="fill:#231f20;fill-opacity:1;fill-rule:nonzero;stroke:none"
         d="m 1334.56,25.4258 -12.6,-10.1992 c 1.98,0.3515 3.83,0.5351 5.51,0.5351 1.64,0 3.14,-0.1015 4.52,-0.2851 1.38,-0.1993 4.35,-0.8164 8.88,-1.8321 4.55,-1.0351 8.52,-1.5507 11.9,-1.5507 3.6,0 6.69,0.6328 9.2,1.8828 2.52,1.25 4.97,3.3476 7.35,6.2812 l 1.62,-0.7812 c -3.37,-4.8164 -7.32,-8.3008 -11.87,-10.43363 -4.56,-2.13281 -9.4,-3.19922 -14.51,-3.19922 -2.82,0 -6.7,0.56641 -11.62,1.66406 -7.52,1.66797 -12.76,2.48438 -15.77,2.48438 -1.13,0 -2.06,-0.06641 -2.78,-0.23438 -0.71,-0.16406 -1.78,-0.54687 -3.21,-1.17969 l -1.14,1.33204 20.01,15.81644 c -6.17,0.8515 -10.86,3.5664 -14.04,8.1484 -3.2,4.5859 -4.79,9.4844 -4.79,14.7031 0,7.1289 2.16,14.4961 6.47,22.1133 4.3,7.6172 9.83,13.5195 16.55,17.6992 6.72,4.1836 13.31,6.2696 19.8,6.2696 4.82,0 8.92,-0.9688 12.33,-2.918 3.4,-1.9492 6.02,-4.8008 7.88,-8.5313 1.86,-3.7187 2.79,-7.5351 2.79,-11.4531 0,-7.4844 -2.13,-15.0664 -6.4,-22.7461 -4.27,-7.6875 -9.57,-13.5039 -15.9,-17.4492 -6.33,-3.9531 -13.05,-6.0039 -20.18,-6.1367 z m 18.32,66.1172 c -3.27,0 -6.46,-0.8008 -9.56,-2.418 -3.11,-1.6133 -6.2,-4.25 -9.25,-7.918 -3.07,-3.6484 -5.82,-8.4492 -8.27,-14.3632 -2.94,-7.3008 -4.43,-14.1836 -4.43,-20.668 0,-4.6172 1.18,-8.7149 3.57,-12.2813 2.36,-3.5547 6.02,-5.3359 10.93,-5.3359 2.93,0 5.84,0.7344 8.69,2.1992 2.86,1.4531 5.83,3.9531 8.89,7.4688 3.91,4.4843 7.17,10.1992 9.82,17.1328 2.64,6.9336 3.95,13.3828 3.95,19.332 0,4.3984 -1.18,8.3008 -3.56,11.7188 -2.39,3.414 -5.97,5.1328 -10.78,5.1328" /><path
         id="path36"
         style="fill:#231f20;fill-opacity:1;fill-rule:nonzero;stroke:none"
         d="m 801.801,231.75 -7.813,-26.23 h 8.7 c 3.898,0 6.832,0.613 8.765,1.816 1.934,1.199 3.934,3.766 5.981,7.715 h 1.851 l -6.883,-24.113 h -1.949 c 0.481,1.949 0.731,3.546 0.731,4.832 0,1.984 -0.664,3.515 -1.981,4.597 -1.316,1.102 -3.785,1.653 -7.402,1.653 h -8.781 l -5.77,-19.985 c -1.031,-3.551 -1.562,-5.898 -1.562,-7.066 0,-1.215 0.449,-2.133 1.347,-2.785 0.899,-0.664 3.086,-1.098 6.567,-1.332 l -0.582,-1.801 h -26.165 l 0.629,1.801 c 2.536,0.07 4.235,0.3 5.067,0.683 1.301,0.567 2.269,1.32 2.887,2.25 0.882,1.332 1.914,4.082 3.132,8.25 l 11.668,39.899 c 0.93,3.218 1.414,5.754 1.414,7.57 0,0.848 -0.214,1.562 -0.632,2.164 -0.434,0.602 -1.051,1.051 -1.883,1.352 -0.832,0.281 -2.485,0.433 -4.953,0.433 l 0.586,1.817 h 51.363 l -4.879,-16.75 h -1.867 c 0.363,2.015 0.547,3.664 0.547,4.984 0,2.148 -0.598,3.848 -1.782,5.098 -1.199,1.25 -2.714,2.132 -4.566,2.652 -1.301,0.332 -4.219,0.496 -8.75,0.496 h -13.035" /><path
         id="path38"
         style="fill:#231f20;fill-opacity:1;fill-rule:nonzero;stroke:none"
         d="m 581.688,243.754 -7.567,-26.18 h 6.199 c 4.434,0 7.633,0.68 9.633,2.031 1.985,1.348 3.684,3.848 5.117,7.5 h 1.817 l -6.801,-24.035 h -1.949 c 0.586,2.02 0.883,3.75 0.883,5.184 0,1.402 -0.286,2.519 -0.848,3.367 -0.586,0.852 -1.352,1.469 -2.352,1.883 -1,0.402 -3.082,0.601 -6.281,0.601 h -6.285 l -6.402,-21.917 c -0.614,-2.118 -0.93,-3.731 -0.93,-4.833 0,-0.851 0.414,-1.601 1.215,-2.25 0.566,-0.453 1.949,-0.683 4.148,-0.683 h 5.867 c 6.352,0 11.434,1.133 15.25,3.367 3.832,2.25 7.266,6.164 10.286,11.734 h 1.816 l -6.25,-18.418 H 547.07 l 0.633,1.801 c 2.551,0.067 4.25,0.301 5.137,0.684 1.297,0.598 2.246,1.348 2.832,2.25 0.883,1.332 1.914,4.133 3.117,8.398 l 11.633,39.95 c 0.898,3.218 1.367,5.667 1.367,7.367 0,1.234 -0.434,2.199 -1.301,2.902 -0.867,0.699 -2.55,1.047 -5.05,1.047 h -1.036 l 0.586,1.816 h 47.563 l -4.098,-15.965 h -1.816 c 0.23,1.5 0.351,2.75 0.351,3.75 0,1.735 -0.418,3.184 -1.269,4.352 -1.114,1.5 -2.715,2.633 -4.832,3.414 -1.567,0.586 -5.168,0.883 -10.801,0.883 h -8.398" /></g></g></svg>