<?xml version="1.0" encoding="UTF-8" standalone="no"?>
<svg
   xmlns:dc="http://purl.org/dc/elements/1.1/"
   xmlns:cc="http://creativecommons.org/ns#"
   xmlns:rdf="http://www.w3.org/1999/02/22-rdf-syntax-ns#"
   xmlns:svg="http://www.w3.org/2000/svg"
   xmlns="http://www.w3.org/2000/svg"
   viewBox="0 0 153.33333 97.333336"
   height="97.333336"
   width="153.33333"
   xml:space="preserve"
   id="svg2"
   version="1.1"><metadata
     id="metadata8"><rdf:RDF><cc:Work
         rdf:about=""><dc:format>image/svg+xml</dc:format><dc:type
           rdf:resource="http://purl.org/dc/dcmitype/StillImage" /></cc:Work></rdf:RDF></metadata><defs
     id="defs6" /><g
     transform="matrix(1.3333333,0,0,-1.3333333,0,97.333333)"
     id="g10"><g
       transform="scale(0.1)"
       id="g12"><path
         id="path14"
         style="fill:#231f20;fill-opacity:1;fill-rule:nonzero;stroke:none"
         d="M 47.1406,348.914 V 341.98 H 38.2578 V 324.496 H 30.1914 V 341.98 H 2.17578 v 6.25 l 30.71482,43.848 h 5.3672 v -43.164 z m -16.9492,0 v 32.863 L 6.95703,348.914 H 30.1914" /><path
         id="path16"
         style="fill:none;stroke:#231f20;stroke-width:10.00059986;stroke-linecap:butt;stroke-linejoin:round;stroke-miterlimit:2.61310005;stroke-dasharray:none;stroke-opacity:1"
         d="M 98.9844,123.246 H 1072.71 V 649.582 L 539.793,123.246 302.941,636.422 H 92.4062 Z" /><path
         id="path18"
         style="fill:#231f20;fill-opacity:1;fill-rule:nonzero;stroke:none"
         d="m 864.207,61.2344 v -6.9336 h -8.883 V 36.8203 h -8.066 v 17.4805 h -28.016 v 6.2539 l 30.715,43.8473 h 5.367 V 61.2344 Z m -16.949,0 V 94.1016 L 824.023,61.2344 h 23.235" /><path
         id="path20"
         style="fill:#231f20;fill-opacity:1;fill-rule:nonzero;stroke:none"
         d="m 1141.73,343.543 v -6.934 h -8.88 v -17.48 h -8.07 v 17.48 h -28.01 v 6.25 l 30.71,43.852 h 5.37 v -43.168 z m -16.95,0 v 32.867 l -23.23,-32.867 h 23.23" /><path
         id="path22"
         style="fill:#231f20;fill-opacity:1;fill-rule:nonzero;stroke:none"
         d="m 142.703,722.109 16.117,7.868 h 1.618 v -55.915 c 0,-3.703 0.148,-6.019 0.449,-6.933 0.316,-0.902 0.968,-1.602 1.933,-2.102 0.985,-0.484 2.969,-0.765 5.965,-0.832 v -1.8 h -24.914 v 1.8 c 3.133,0.067 5.149,0.332 6.067,0.817 0.902,0.465 1.531,1.097 1.898,1.898 0.352,0.801 0.535,3.184 0.535,7.152 v 35.75 c 0,4.817 -0.168,7.899 -0.484,9.266 -0.231,1.047 -0.649,1.817 -1.25,2.297 -0.602,0.484 -1.317,0.734 -2.164,0.734 -1.203,0 -2.883,-0.5 -5.035,-1.515 l -0.735,1.515" /><path
         id="path24"
         style="fill:#231f20;fill-opacity:1;fill-rule:nonzero;stroke:none"
         d="m 186.352,645.742 v 2.153 c 3.351,1.101 5.953,2.816 7.8,5.152 1.836,2.332 2.75,4.797 2.75,7.398 0,0.617 -0.148,1.133 -0.433,1.567 -0.231,0.281 -0.465,0.433 -0.684,0.433 -0.363,0 -1.148,-0.336 -2.347,-0.984 -0.586,-0.281 -1.2,-0.434 -1.852,-0.434 -1.598,0 -2.867,0.465 -3.816,1.418 -0.934,0.95 -1.418,2.246 -1.418,3.899 0,1.601 0.621,2.965 1.836,4.101 1.214,1.149 2.714,1.715 4.464,1.715 2.153,0 4.067,-0.933 5.735,-2.816 1.683,-1.867 2.515,-4.352 2.515,-7.434 0,-3.348 -1.164,-6.465 -3.484,-9.348 -2.332,-2.882 -6.016,-5.152 -11.066,-6.82" /><path
         id="path26"
         style="fill:#231f20;fill-opacity:1;fill-rule:nonzero;stroke:none"
         d="m 249.406,728.609 -3.82,-8.3 h -19.914 l -4.352,-8.899 c 8.633,-1.265 15.469,-4.469 20.5,-9.617 4.336,-4.418 6.5,-9.633 6.5,-15.617 0,-3.485 -0.699,-6.715 -2.113,-9.664 -1.418,-2.969 -3.203,-5.485 -5.352,-7.567 -2.148,-2.086 -4.55,-3.769 -7.183,-5.035 -3.734,-1.801 -7.582,-2.683 -11.52,-2.683 -3.98,0 -6.863,0.668 -8.664,2.019 -1.816,1.348 -2.718,2.848 -2.718,4.465 0,0.918 0.386,1.715 1.117,2.414 0.75,0.703 1.699,1.055 2.836,1.055 0.847,0 1.597,-0.121 2.234,-0.387 0.629,-0.266 1.715,-0.934 3.246,-2 2.438,-1.699 4.902,-2.551 7.418,-2.551 3.801,0 7.149,1.453 10.031,4.336 2.887,2.883 4.317,6.383 4.317,10.516 0,4 -1.281,7.734 -3.848,11.199 -2.582,3.469 -6.117,6.152 -10.648,8.035 -3.551,1.465 -8.387,2.313 -14.5,2.551 l 12.699,25.73 h 23.734" /><path
         id="path28"
         style="fill:#231f20;fill-opacity:1;fill-rule:nonzero;stroke:none"
         d="m 250.906,79.6211 c 1.887,4.4492 4.266,7.8984 7.153,10.3164 2.882,2.4336 6.464,3.6484 10.765,3.6484 5.301,0 9.367,-1.7304 12.199,-5.1836 2.149,-2.5664 3.235,-5.3164 3.235,-8.25 0,-4.8125 -3.035,-9.7968 -9.082,-14.9296 4.066,-1.6016 7.133,-3.8829 9.215,-6.8516 2.086,-2.9492 3.132,-6.4336 3.132,-10.4492 0,-5.7188 -1.816,-10.6836 -5.464,-14.8828 -4.75,-5.4688 -11.637,-8.2032 -20.653,-8.2032 -4.465,0 -7.496,0.5508 -9.117,1.6524 -1.598,1.1133 -2.414,2.3008 -2.414,3.5664 0,0.9492 0.383,1.7851 1.148,2.5 0.77,0.7187 1.684,1.0664 2.766,1.0664 0.805,0 1.637,-0.1328 2.488,-0.3828 0.547,-0.168 1.797,-0.7695 3.762,-1.7813 1.953,-1.0351 3.305,-1.6367 4.051,-1.8359 1.199,-0.3633 2.484,-0.5313 3.851,-0.5313 3.317,0 6.215,1.2813 8.668,3.8477 2.465,2.5664 3.68,5.6172 3.68,9.1328 0,2.5664 -0.566,5.082 -1.699,7.5195 -0.848,1.8164 -1.781,3.1993 -2.781,4.1485 -1.399,1.2969 -3.321,2.4844 -5.77,3.5312 -2.43,1.0703 -4.93,1.6016 -7.465,1.6016 h -1.566 v 1.4648 c 2.566,0.3203 5.148,1.25 7.734,2.7852 2.602,1.5156 4.481,3.3672 5.649,5.5156 1.168,2.1524 1.75,4.5 1.75,7.0664 0,3.3672 -1.047,6.0664 -3.149,8.1328 -2.101,2.0703 -4.699,3.1016 -7.836,3.1016 -5.047,0 -9.25,-2.6992 -12.648,-8.0977 l -1.602,0.7813" /><path
         id="path30"
         style="fill:#231f20;fill-opacity:1;fill-rule:nonzero;stroke:none"
         d="m 301.191,9.35547 v 2.14843 c 3.348,1.1016 5.95,2.8164 7.801,5.1523 1.832,2.3321 2.75,4.8008 2.75,7.3985 0,0.6172 -0.152,1.1328 -0.433,1.5664 -0.235,0.2851 -0.465,0.4336 -0.684,0.4336 -0.367,0 -1.152,-0.332 -2.352,-0.9844 -0.582,-0.2812 -1.199,-0.4336 -1.851,-0.4336 -1.598,0 -2.863,0.4649 -3.813,1.418 -0.933,0.9492 -1.418,2.25 -1.418,3.8984 0,1.6016 0.618,2.9688 1.832,4.1016 1.219,1.1523 2.715,1.7148 4.469,1.7148 2.149,0 4.063,-0.9336 5.731,-2.8125 1.683,-1.8711 2.519,-4.3515 2.519,-7.4375 0,-3.3476 -1.168,-6.4648 -3.484,-9.3476 -2.336,-2.8828 -6.016,-5.1524 -11.067,-6.81643" /><path
         id="path32"
         style="fill:#231f20;fill-opacity:1;fill-rule:nonzero;stroke:none"
         d="m 364.242,92.2227 -3.816,-8.3008 h -19.918 l -4.352,-8.9024 c 8.637,-1.2656 15.469,-4.4648 20.5,-9.6133 4.336,-4.4179 6.5,-9.6367 6.5,-15.621 0,-3.4805 -0.699,-6.7149 -2.113,-9.6641 -1.418,-2.9688 -3.199,-5.4805 -5.352,-7.5664 -2.148,-2.082 -4.55,-3.7656 -7.183,-5.0352 -3.735,-1.7968 -7.582,-2.6836 -11.516,-2.6836 -3.984,0 -6.867,0.668 -8.668,2.0196 -1.816,1.3476 -2.715,2.8476 -2.715,4.4687 0,0.9141 0.383,1.7149 1.114,2.4141 0.754,0.6992 1.703,1.0508 2.836,1.0508 0.851,0 1.597,-0.1172 2.234,-0.3868 0.633,-0.2656 1.715,-0.9296 3.25,-1.9961 2.434,-1.7031 4.898,-2.5507 7.418,-2.5507 3.797,0 7.148,1.4492 10.031,4.332 2.883,2.8828 4.317,6.3828 4.317,10.5156 0,4 -1.286,7.7344 -3.852,11.1992 -2.582,3.4688 -6.117,6.1524 -10.648,8.0352 -3.547,1.4687 -8.383,2.3164 -14.5,2.5508 l 12.699,25.7344 h 23.734" /><path
         id="path34"
         style="fill:none;stroke:#231f20;stroke-width:5.00029993;stroke-linecap:butt;stroke-linejoin:miter;stroke-miterlimit:2.61310005;stroke-dasharray:none;stroke-opacity:1"
         d="m 98.5352,127.309 h 65.4922 v 65.2266 H 98.5352 Z" /><path
         id="path36"
         style="fill:none;stroke:#231f20;stroke-width:5.00029993;stroke-linecap:butt;stroke-linejoin:miter;stroke-miterlimit:2.61310005;stroke-dasharray:none;stroke-opacity:1"
         d="m 93.6172,571.199 h 65.4883 v 65.2227 H 93.6172 Z" /><path
         id="path38"
         style="fill:none;stroke:#231f20;stroke-width:5.00029993;stroke-linecap:butt;stroke-linejoin:miter;stroke-miterlimit:2.61310005;stroke-dasharray:none;stroke-opacity:1"
         d="m 1007.22,124.504 h 65.4844 v 65.2266 H 1007.22 Z" /></g></g></svg>