<?xml version="1.0" encoding="UTF-8" standalone="no"?>
<svg
   xmlns:dc="http://purl.org/dc/elements/1.1/"
   xmlns:cc="http://creativecommons.org/ns#"
   xmlns:rdf="http://www.w3.org/1999/02/22-rdf-syntax-ns#"
   xmlns:svg="http://www.w3.org/2000/svg"
   xmlns="http://www.w3.org/2000/svg"
   viewBox="0 0 160 74.666664"
   height="74.666664"
   width="160"
   xml:space="preserve"
   id="svg2"
   version="1.1"><metadata
     id="metadata8"><rdf:RDF><cc:Work
         rdf:about=""><dc:format>image/svg+xml</dc:format><dc:type
           rdf:resource="http://purl.org/dc/dcmitype/StillImage" /></cc:Work></rdf:RDF></metadata><defs
     id="defs6" /><g
     transform="matrix(1.3333333,0,0,-1.3333333,0,74.666667)"
     id="g10"><g
       transform="scale(0.1)"
       id="g12"><path
         id="path14"
         style="fill:#231f20;fill-opacity:1;fill-rule:nonzero;stroke:none"
         d="m 748.18,547.641 -7.567,-26.184 h 6.199 c 4.434,0 7.633,0.684 9.633,2.031 1.985,1.348 3.684,3.852 5.117,7.5 h 1.817 l -6.801,-24.035 h -1.949 c 0.586,2.02 0.883,3.75 0.883,5.188 0,1.398 -0.285,2.515 -0.848,3.367 -0.586,0.847 -1.352,1.465 -2.352,1.879 -1,0.402 -3.082,0.601 -6.281,0.601 h -6.285 l -6.402,-21.914 c -0.614,-2.121 -0.93,-3.734 -0.93,-4.836 0,-0.847 0.414,-1.601 1.215,-2.25 0.566,-0.449 1.949,-0.683 4.148,-0.683 h 5.868 c 6.351,0 11.433,1.133 15.25,3.367 3.832,2.25 7.265,6.168 10.285,11.734 h 1.816 l -6.25,-18.418 h -51.184 l 0.633,1.801 c 2.551,0.066 4.25,0.301 5.137,0.684 1.297,0.601 2.246,1.347 2.832,2.25 0.883,1.332 1.914,4.132 3.117,8.398 l 11.633,39.953 c 0.898,3.215 1.367,5.664 1.367,7.367 0,1.231 -0.433,2.2 -1.301,2.899 -0.871,0.699 -2.55,1.047 -5.05,1.047 h -1.035 l 0.585,1.82 h 47.563 l -4.098,-15.969 h -1.816 c 0.23,1.5 0.351,2.75 0.351,3.75 0,1.735 -0.418,3.184 -1.269,4.352 -1.113,1.5 -2.715,2.633 -4.832,3.414 -1.567,0.586 -5.168,0.887 -10.801,0.887 h -8.398" /><path
         id="path16"
         style="fill:none;stroke:#231f20;stroke-width:7.5005002;stroke-linecap:butt;stroke-linejoin:miter;stroke-miterlimit:2.61310005;stroke-dasharray:none;stroke-opacity:1"
         d="M 815.098,40.7734 H 104.879 L 388.711,464.852 h 709.599 z" /><path
         id="path18"
         style="fill:none;stroke:#231f20;stroke-width:7.5005002;stroke-linecap:butt;stroke-linejoin:miter;stroke-miterlimit:2.61310005;stroke-dasharray:none;stroke-opacity:1"
         d="M 815.098,40.7734 743.512,464.852" /><path
         id="path20"
         style="fill:#231f20;fill-opacity:1;fill-rule:nonzero;stroke:none"
         d="M 59.1641,72.3281 54.1289,17.2617 c -0.2656,-2.582 -0.3828,-4.2656 -0.3828,-5.082 0,-1.3008 0.2344,-2.30079 0.7344,-2.98439 0.6172,-0.92969 1.4492,-1.63281 2.5,-2.09765 1.0664,-0.45313 2.8476,-0.6836 5.3476,-0.6836 L 61.7969,4.61328 H 35.7305 l 0.5312,1.80078 h 1.1172 c 2.1172,0 3.8516,0.46485 5.1836,1.36328 0.9336,0.63672 1.668,1.65235 2.2031,3.08596 0.3477,1.0156 0.6992,3.3828 1.0156,7.1328 l 0.7813,8.4023 H 27.6133 l -6.7344,-9.1367 c -1.5312,-2.0508 -2.4844,-3.5312 -2.8828,-4.414 -0.3828,-0.9024 -0.582,-1.7344 -0.582,-2.5157 0,-1.05466 0.414,-1.93356 1.2656,-2.68747 0.8515,-0.74609 2.25,-1.16406 4.1992,-1.23047 L 22.3477,4.61328 H 2.76172 l 0.53516,1.80078 c 2.41796,0.09766 4.53515,0.91406 6.38281,2.41797 1.83591,1.51567 4.56641,4.74607 8.21871,9.69917 l 39.5469,53.7969 z m -9.668,-16.25 -19.1992,-26.1172 h 16.6484 l 2.5508,26.1172" /><path
         id="path22"
         style="fill:#231f20;fill-opacity:1;fill-rule:nonzero;stroke:none"
         d="m 331.488,526.387 0.684,1.816 h 23.633 c 3.968,0 7.5,-0.621 10.617,-1.871 3.101,-1.23 5.433,-2.945 6.984,-5.164 1.547,-2.215 2.317,-4.566 2.317,-7.035 0,-3.817 -1.383,-7.246 -4.133,-10.332 -2.754,-3.067 -7.235,-5.348 -13.449,-6.801 4.015,-1.5 6.949,-3.48 8.847,-5.965 1.883,-2.465 2.832,-5.183 2.832,-8.148 0,-3.285 -0.847,-6.434 -2.547,-9.434 -1.683,-2.984 -3.867,-5.316 -6.519,-6.965 -2.649,-1.668 -5.848,-2.886 -9.598,-3.668 -2.668,-0.55 -6.836,-0.836 -12.5,-0.836 h -24.265 l 0.632,1.801 c 2.551,0.067 4.266,0.317 5.184,0.735 1.297,0.566 2.231,1.296 2.785,2.199 0.781,1.234 1.813,4.066 3.113,8.5 l 11.868,40.082 c 1.015,3.387 1.515,5.765 1.515,7.137 0,1.199 -0.449,2.148 -1.332,2.847 -0.898,0.699 -2.601,1.047 -5.117,1.047 -0.551,0 -1.066,0.02 -1.551,0.055 z m 9.903,-27.485 c 2.113,-0.066 3.648,-0.101 4.597,-0.101 6.77,0 11.801,1.469 15.117,4.418 3.297,2.949 4.95,6.633 4.95,11.066 0,3.348 -1.016,5.965 -3.035,7.832 -2.016,1.867 -5.231,2.801 -9.665,2.801 -1.164,0 -2.664,-0.184 -4.48,-0.582 z m -9.618,-32.617 c 3.516,-0.469 6.266,-0.683 8.25,-0.683 5.082,0 9.582,1.535 13.5,4.586 3.934,3.066 5.883,7.214 5.883,12.449 0,4 -1.203,7.129 -3.633,9.383 -2.418,2.25 -6.332,3.367 -11.734,3.367 -1.051,0 -2.316,-0.051 -3.816,-0.153 l -8.45,-28.949" /><path
         id="path24"
         style="fill:#231f20;fill-opacity:1;fill-rule:nonzero;stroke:none"
         d="m 1191.2,511.574 -4.93,-21.433 h -1.77 l -0.18,5.382 c -0.17,1.95 -0.55,3.684 -1.14,5.215 -0.58,1.535 -1.46,2.852 -2.63,3.989 -1.17,1.113 -2.65,1.996 -4.45,2.632 -1.78,0.633 -3.76,0.95 -5.95,0.95 -5.83,0 -10.92,-1.602 -15.28,-4.786 -5.57,-4.066 -9.94,-9.816 -13.08,-17.23 -2.6,-6.117 -3.92,-12.316 -3.92,-18.602 0,-6.418 1.88,-11.535 5.61,-15.367 3.75,-3.816 8.62,-5.734 14.61,-5.734 4.53,0 8.56,1.019 12.08,3.035 3.53,2.016 6.81,5.113 9.85,9.316 h 2.28 c -3.57,-5.699 -7.55,-9.882 -11.9,-12.566 -4.36,-2.684 -9.6,-4.035 -15.68,-4.035 -5.4,0 -10.18,1.137 -14.35,3.398 -4.17,2.27 -7.35,5.438 -9.52,9.551 -2.18,4.102 -3.28,8.5 -3.28,13.234 0,7.219 1.95,14.25 5.81,21.086 3.87,6.832 9.19,12.215 15.94,16.114 6.76,3.902 13.56,5.851 20.45,5.851 3.21,0 6.83,-0.75 10.83,-2.281 1.75,-0.652 3.04,-0.984 3.8,-0.984 0.78,0 1.47,0.164 2.07,0.48 0.58,0.336 1.55,1.27 2.92,2.785 h 1.81" /><path
         id="path26"
         style="fill:#231f20;fill-opacity:1;fill-rule:nonzero;stroke:none"
         d="m 859.344,72.1602 0.586,1.8164 h 21.148 c 8.953,0 15.586,-1.0352 19.883,-3.086 4.32,-2.0468 7.769,-5.2812 10.332,-9.6836 2.57,-4.414 3.867,-9.1484 3.867,-14.1953 0,-4.3203 -0.746,-8.5351 -2.234,-12.6172 -1.481,-4.0859 -3.149,-7.3515 -5.031,-9.8164 -1.868,-2.4531 -4.731,-5.1679 -8.618,-8.1367 C 895.414,13.4922 891.211,11.2891 886.695,9.875 882.16,8.46094 876.512,7.75781 869.746,7.75781 h -28.031 l 0.633,1.80078 c 2.582,0.07032 4.297,0.30079 5.183,0.68361 1.297,0.5664 2.266,1.3164 2.883,2.25 0.934,1.3672 1.996,4.1172 3.164,8.25 l 11.715,40.0508 c 0.922,3.1484 1.367,5.6328 1.367,7.4179 0,1.2618 -0.414,2.2461 -1.262,2.9297 -0.851,0.6836 -2.5,1.0196 -4.984,1.0196 z M 876.68,70.3086 862.328,20.7422 c -1.082,-3.6992 -1.617,-6 -1.617,-6.8828 0,-0.5156 0.168,-1.0196 0.519,-1.5156 0.332,-0.4844 0.801,-0.8008 1.383,-0.9688 0.852,-0.3008 2.215,-0.4492 4.098,-0.4492 5.117,0 9.867,0.5312 14.234,1.6015 4.383,1.0469 7.969,2.6172 10.77,4.6993 3.98,3.0312 7.148,7.1992 9.531,12.4961 2.367,5.3203 3.551,11.3515 3.551,18.1211 0,7.6484 -1.82,13.3476 -5.469,17.0624 -3.633,3.7344 -8.969,5.6016 -15.965,5.6016 -1.718,0 -3.953,-0.0664 -6.683,-0.1992" /></g></g></svg>