<?xml version="1.0" encoding="UTF-8" standalone="no"?>
<svg
   xmlns:dc="http://purl.org/dc/elements/1.1/"
   xmlns:cc="http://creativecommons.org/ns#"
   xmlns:rdf="http://www.w3.org/1999/02/22-rdf-syntax-ns#"
   xmlns:svg="http://www.w3.org/2000/svg"
   xmlns="http://www.w3.org/2000/svg"
   viewBox="0 0 139.54668 102.02667"
   height="102.02667"
   width="139.54668"
   xml:space="preserve"
   id="svg2"
   version="1.1"><metadata
     id="metadata8"><rdf:RDF><cc:Work
         rdf:about=""><dc:format>image/svg+xml</dc:format><dc:type
           rdf:resource="http://purl.org/dc/dcmitype/StillImage" /></cc:Work></rdf:RDF></metadata><defs
     id="defs6" /><g
     transform="matrix(1.3333333,0,0,-1.3333333,0,102.02667)"
     id="g10"><g
       transform="scale(0.1)"
       id="g12"><path
         id="path14"
         style="fill:#000000;fill-opacity:1;fill-rule:nonzero;stroke:none"
         d="m 269.531,88.7891 -4.828,-52.875 c -0.25,-2.4688 -0.375,-4.0938 -0.375,-4.875 0,-1.25 0.234,-2.2032 0.703,-2.8594 0.594,-0.9063 1.399,-1.5781 2.414,-2.0156 1.016,-0.4375 2.727,-0.6563 5.133,-0.6563 l -0.516,-1.7344 h -25.031 l 0.516,1.7344 h 1.078 c 2.031,0 3.687,0.4375 4.969,1.3125 0.906,0.5938 1.609,1.5781 2.109,2.9531 0.344,0.9688 0.672,3.25 0.985,6.8438 l 0.75,8.0625 H 239.25 l -6.469,-8.7656 c -1.469,-1.9688 -2.39,-3.3829 -2.765,-4.2422 -0.375,-0.8594 -0.563,-1.6641 -0.563,-2.4141 0,-1 0.406,-1.8594 1.219,-2.5781 0.812,-0.7188 2.156,-1.1094 4.031,-1.1719 l -0.515,-1.7344 h -18.797 l 0.515,1.7344 c 2.313,0.0938 4.352,0.8672 6.117,2.3203 1.766,1.4531 4.399,4.5547 7.899,9.3047 l 37.969,51.6563 z M 260.25,73.1797 241.828,48.1016 h 15.984 l 2.438,25.0781" /><path
         id="path16"
         style="fill:#000000;fill-opacity:1;fill-rule:nonzero;stroke:none"
         d="m 228.203,747.703 0.656,1.735 h 22.688 c 3.812,0 7.211,-0.594 10.195,-1.786 2.985,-1.183 5.219,-2.84 6.703,-4.964 1.485,-2.126 2.227,-4.379 2.227,-6.754 0,-3.653 -1.32,-6.957 -3.961,-9.911 -2.641,-2.953 -6.945,-5.132 -12.914,-6.539 3.844,-1.441 6.672,-3.343 8.484,-5.718 1.813,-2.375 2.719,-4.985 2.719,-7.832 0,-3.153 -0.812,-6.172 -2.438,-9.043 -1.624,-2.875 -3.71,-5.11 -6.257,-6.703 -2.547,-1.598 -5.617,-2.77 -9.211,-3.516 -2.563,-0.531 -6.563,-0.797 -12,-0.797 h -23.297 l 0.609,1.734 c 2.438,0.063 4.094,0.297 4.969,0.703 1.25,0.532 2.141,1.235 2.672,2.11 0.75,1.187 1.75,3.906 3,8.156 l 11.391,38.484 c 0.968,3.247 1.453,5.532 1.453,6.84 0,1.16 -0.43,2.071 -1.289,2.746 -0.86,0.672 -2.493,1.004 -4.899,1.004 -0.531,0 -1.031,0.02 -1.5,0.051 z m 9.516,-26.391 c 2.031,-0.066 3.5,-0.093 4.406,-0.093 6.5,0 11.336,1.414 14.508,4.242 3.172,2.828 4.758,6.367 4.758,10.617 0,3.215 -0.969,5.727 -2.907,7.524 -1.937,1.796 -5.031,2.695 -9.281,2.695 -1.125,0 -2.562,-0.188 -4.312,-0.563 z m -9.235,-31.316 c 3.375,-0.434 6.016,-0.652 7.922,-0.652 4.875,0 9.196,1.468 12.961,4.402 3.766,2.942 5.649,6.926 5.649,11.953 0,3.848 -1.164,6.848 -3.493,9.004 -2.328,2.156 -6.085,3.235 -11.273,3.235 -1,0 -2.219,-0.051 -3.656,-0.141 l -8.11,-27.801" /><path
         id="path18"
         style="fill:#000000;fill-opacity:1;fill-rule:nonzero;stroke:none"
         d="M 831.664,90.4531 826.93,69.875 h -1.688 l -0.187,5.1562 c -0.157,1.875 -0.516,3.5469 -1.078,5.0157 -0.563,1.4687 -1.407,2.7422 -2.532,3.8203 -1.125,1.0781 -2.547,1.9219 -4.265,2.5312 -1.719,0.6094 -3.625,0.9141 -5.719,0.9141 -5.594,0 -10.484,-1.5313 -14.672,-4.5937 -5.344,-3.9063 -9.531,-9.4219 -12.562,-16.5469 -2.5,-5.875 -3.75,-11.8281 -3.75,-17.8594 0,-6.1563 1.796,-11.0703 5.39,-14.7422 3.594,-3.6719 8.266,-5.5078 14.016,-5.5078 4.344,0 8.211,0.9687 11.601,2.9063 3.391,1.9374 6.539,4.9218 9.446,8.9531 h 2.203 c -3.438,-5.4688 -7.25,-9.4922 -11.438,-12.0703 -4.187,-2.5782 -9.203,-3.8672 -15.047,-3.8672 -5.187,0 -9.781,1.0859 -13.781,3.2578 -4,2.1719 -7.047,5.2266 -9.14,9.164 -2.094,3.9376 -3.141,8.1719 -3.141,12.7032 0,6.9375 1.859,13.6875 5.578,20.25 3.719,6.5625 8.82,11.7187 15.305,15.4687 6.484,3.75 13.023,5.625 19.617,5.625 3.094,0 6.562,-0.7343 10.406,-2.2031 1.688,-0.625 2.906,-0.9375 3.656,-0.9375 0.75,0 1.407,0.1563 1.969,0.4687 0.563,0.3126 1.5,1.2032 2.813,2.6719 h 1.734" /><path
         id="path20"
         style="fill:none;stroke:#000000;stroke-width:2.16000009;stroke-linecap:butt;stroke-linejoin:miter;stroke-miterlimit:10;stroke-dasharray:none;stroke-opacity:1"
         d="M 95.4102,760.98 V 4.90625" /><path
         id="path22"
         style="fill:none;stroke:#000000;stroke-width:2.16000009;stroke-linecap:butt;stroke-linejoin:miter;stroke-miterlimit:10;stroke-dasharray:none;stroke-opacity:1"
         d="M 190.836,757.848 V 1.83594" /><path
         id="path24"
         style="fill:none;stroke:#000000;stroke-width:2.16000009;stroke-linecap:butt;stroke-linejoin:miter;stroke-miterlimit:10;stroke-dasharray:none;stroke-opacity:1"
         d="M 285.18,755.594 V 4.83594" /><path
         id="path26"
         style="fill:none;stroke:#000000;stroke-width:2.16000009;stroke-linecap:butt;stroke-linejoin:miter;stroke-miterlimit:10;stroke-dasharray:none;stroke-opacity:1"
         d="M 379.848,764.125 V 4.83594" /><path
         id="path28"
         style="fill:none;stroke:#000000;stroke-width:2.16000009;stroke-linecap:butt;stroke-linejoin:miter;stroke-miterlimit:10;stroke-dasharray:none;stroke-opacity:1"
         d="M 474.348,761.867 V 4.07812" /><path
         id="path30"
         style="fill:none;stroke:#000000;stroke-width:2.16000009;stroke-linecap:butt;stroke-linejoin:miter;stroke-miterlimit:10;stroke-dasharray:none;stroke-opacity:1"
         d="M 568.105,762.719 V 2.96484" /><path
         id="path32"
         style="fill:none;stroke:#000000;stroke-width:2.16000009;stroke-linecap:butt;stroke-linejoin:miter;stroke-miterlimit:10;stroke-dasharray:none;stroke-opacity:1"
         d="M 661.848,761.867 V 1.83594" /><path
         id="path34"
         style="fill:none;stroke:#000000;stroke-width:2.16000009;stroke-linecap:butt;stroke-linejoin:miter;stroke-miterlimit:10;stroke-dasharray:none;stroke-opacity:1"
         d="M 758.605,763.344 V 1.08203" /><path
         id="path36"
         style="fill:none;stroke:#000000;stroke-width:2.16000009;stroke-linecap:butt;stroke-linejoin:miter;stroke-miterlimit:10;stroke-dasharray:none;stroke-opacity:1"
         d="M 852.348,763.199 V 2.20703" /><path
         id="path38"
         style="fill:none;stroke:#000000;stroke-width:2.16000009;stroke-linecap:butt;stroke-linejoin:miter;stroke-miterlimit:10;stroke-dasharray:none;stroke-opacity:1"
         d="M 946.105,763.066 V 1.83594" /><path
         id="path40"
         style="fill:none;stroke:#000000;stroke-width:2.16000009;stroke-linecap:butt;stroke-linejoin:miter;stroke-miterlimit:10;stroke-dasharray:none;stroke-opacity:1"
         d="M 1.83594,758.594 1044.34,757.094" /><path
         id="path42"
         style="fill:none;stroke:#000000;stroke-width:2.16000009;stroke-linecap:butt;stroke-linejoin:miter;stroke-miterlimit:10;stroke-dasharray:none;stroke-opacity:1"
         d="m 13.0781,664.355 1027.3319,-1.5" /><path
         id="path44"
         style="fill:none;stroke:#000000;stroke-width:2.16000009;stroke-linecap:butt;stroke-linejoin:miter;stroke-miterlimit:10;stroke-dasharray:none;stroke-opacity:1"
         d="M 8.57812,571.344 1039.67,569.844" /><path
         id="path46"
         style="fill:none;stroke:#000000;stroke-width:2.16000009;stroke-linecap:butt;stroke-linejoin:miter;stroke-miterlimit:10;stroke-dasharray:none;stroke-opacity:1"
         d="M 2.58203,475.332 1045.09,473.832" /><path
         id="path48"
         style="fill:none;stroke:#000000;stroke-width:2.16000009;stroke-linecap:butt;stroke-linejoin:miter;stroke-miterlimit:10;stroke-dasharray:none;stroke-opacity:1"
         d="M 1.07812,382.332 1039.67,380.832" /><path
         id="path50"
         style="fill:none;stroke:#000000;stroke-width:2.16000009;stroke-linecap:butt;stroke-linejoin:miter;stroke-miterlimit:10;stroke-dasharray:none;stroke-opacity:1"
         d="M 2.56641,288.18 1040.05,286.68" /><path
         id="path52"
         style="fill:none;stroke:#000000;stroke-width:2.16000009;stroke-linecap:butt;stroke-linejoin:miter;stroke-miterlimit:10;stroke-dasharray:none;stroke-opacity:1"
         d="M 8.57812,190.512 1037.61,189.012" /><path
         id="path54"
         style="fill:none;stroke:#000000;stroke-width:2.16000009;stroke-linecap:butt;stroke-linejoin:miter;stroke-miterlimit:10;stroke-dasharray:none;stroke-opacity:1"
         d="M 10.082,96.9102 1040.98,95.4141" /><path
         id="path56"
         style="fill:none;stroke:#000000;stroke-width:2.16000009;stroke-linecap:butt;stroke-linejoin:miter;stroke-miterlimit:10;stroke-dasharray:none;stroke-opacity:1"
         d="m 14.582,4.64453 1030.898,-1.5" /><path
         id="path58"
         style="fill:none;stroke:#000000;stroke-width:10.00059986;stroke-linecap:butt;stroke-linejoin:miter;stroke-miterlimit:10;stroke-dasharray:none;stroke-opacity:1"
         d="m 281.113,97.4648 475.055,-3" /><path
         id="path60"
         style="fill:none;stroke:#000000;stroke-width:10.00059986;stroke-linecap:butt;stroke-linejoin:miter;stroke-miterlimit:10;stroke-dasharray:none;stroke-opacity:1"
         d="M 285.18,755.594 283.371,99.0703" /><path
         id="path62"
         style="fill:none;stroke:#000000;stroke-width:10.00059986;stroke-linecap:butt;stroke-linejoin:miter;stroke-miterlimit:10;stroke-dasharray:none;stroke-opacity:1"
         d="M 756.168,94.4648 285.18,755.594" /></g></g></svg>