<?xml version="1.0" encoding="UTF-8" standalone="no"?>
<svg
   xmlns:dc="http://purl.org/dc/elements/1.1/"
   xmlns:cc="http://creativecommons.org/ns#"
   xmlns:rdf="http://www.w3.org/1999/02/22-rdf-syntax-ns#"
   xmlns:svg="http://www.w3.org/2000/svg"
   xmlns="http://www.w3.org/2000/svg"
   viewBox="0 0 204 149.33333"
   height="149.33333"
   width="204"
   xml:space="preserve"
   id="svg2"
   version="1.1"><metadata
     id="metadata8"><rdf:RDF><cc:Work
         rdf:about=""><dc:format>image/svg+xml</dc:format><dc:type
           rdf:resource="http://purl.org/dc/dcmitype/StillImage" /></cc:Work></rdf:RDF></metadata><defs
     id="defs6" /><g
     transform="matrix(1.3333333,0,0,-1.3333333,0,149.33333)"
     id="g10"><g
       transform="scale(0.1)"
       id="g12"><path
         id="path14"
         style="fill:#231f20;fill-opacity:1;fill-rule:nonzero;stroke:none"
         d="m 760.484,854.457 16.118,7.867 h 1.617 v -55.918 c 0,-3.699 0.148,-6.015 0.449,-6.933 0.316,-0.899 0.969,-1.602 1.934,-2.098 0.984,-0.488 2.968,-0.766 5.964,-0.836 v -1.801 h -24.914 v 1.801 c 3.133,0.07 5.149,0.336 6.067,0.816 0.902,0.469 1.531,1.102 1.898,1.899 0.352,0.805 0.535,3.184 0.535,7.152 v 35.75 c 0,4.817 -0.168,7.903 -0.484,9.266 -0.23,1.051 -0.648,1.82 -1.25,2.301 -0.602,0.484 -1.316,0.734 -2.164,0.734 -1.203,0 -2.883,-0.504 -5.035,-1.516 l -0.735,1.516" /><path
         id="path16"
         style="fill:#231f20;fill-opacity:1;fill-rule:nonzero;stroke:none"
         d="m 806.77,854.457 16.117,7.867 h 1.613 v -55.918 c 0,-3.699 0.152,-6.015 0.453,-6.933 0.317,-0.899 0.965,-1.602 1.93,-2.098 0.984,-0.488 2.969,-0.766 5.969,-0.836 v -1.801 h -24.918 v 1.801 c 3.132,0.07 5.152,0.336 6.066,0.816 0.902,0.469 1.535,1.102 1.902,1.899 0.352,0.805 0.536,3.184 0.536,7.152 v 35.75 c 0,4.817 -0.168,7.903 -0.485,9.266 -0.234,1.051 -0.652,1.82 -1.25,2.301 -0.601,0.484 -1.316,0.734 -2.168,0.734 -1.199,0 -2.883,-0.504 -5.035,-1.516 l -0.73,1.516" /><path
         id="path18"
         style="fill:none;stroke:#231f20;stroke-width:7.5005002;stroke-linecap:butt;stroke-linejoin:miter;stroke-miterlimit:2.61310005;stroke-dasharray:none;stroke-opacity:1"
         d="M 215.738,910 H 1317.49" /><path
         id="path20"
         style="fill:none;stroke:#231f20;stroke-width:7.5005002;stroke-linecap:butt;stroke-linejoin:miter;stroke-miterlimit:2.61310005;stroke-dasharray:none;stroke-opacity:1"
         d="M 221.574,210.859 H 413.438" /><path
         id="path22"
         style="fill:none;stroke:#231f20;stroke-width:7.5005002;stroke-linecap:butt;stroke-linejoin:miter;stroke-miterlimit:2.61310005;stroke-dasharray:none;stroke-opacity:1"
         d="M 216.789,209.184 V 914.766" /><path
         id="path24"
         style="fill:#231f20;fill-opacity:1;fill-rule:nonzero;stroke:none"
         d="m 315.656,993.633 -4.633,-12.75 h -39.066 v 1.801 c 11.484,10.48 19.582,19.046 24.266,25.686 4.683,6.65 7.031,12.71 7.031,18.21 0,4.2 -1.281,7.65 -3.863,10.35 -2.567,2.7 -5.633,4.05 -9.215,4.05 -3.266,0 -6.184,-0.95 -8.77,-2.85 -2.582,-1.9 -4.5,-4.7 -5.73,-8.36 h -1.817 c 0.817,6.01 2.899,10.63 6.282,13.86 3.367,3.22 7.566,4.83 12.617,4.83 5.367,0 9.847,-1.73 13.449,-5.18 3.598,-3.45 5.398,-7.51 5.398,-12.2 0,-3.35 -0.781,-6.71 -2.347,-10.06 -2.403,-5.27 -6.317,-10.85 -11.719,-16.75 -8.098,-8.856 -13.164,-14.188 -15.184,-16.02 h 17.286 c 3.515,0 5.98,0.133 7.398,0.398 1.418,0.25 2.703,0.782 3.832,1.582 1.137,0.801 2.137,1.938 2.984,3.403 h 1.801" /><path
         id="path26"
         style="fill:none;stroke:#231f20;stroke-width:7.5005002;stroke-linecap:butt;stroke-linejoin:miter;stroke-miterlimit:2.61310005;stroke-dasharray:none;stroke-opacity:1"
         d="M 216.211,210.859 H 408.086" /><path
         id="path28"
         style="fill:none;stroke:#231f20;stroke-width:7.5005002;stroke-linecap:butt;stroke-linejoin:miter;stroke-miterlimit:2.61310005;stroke-dasharray:none;stroke-opacity:1"
         d="M 1316.38,204.902 V 910.488" /><path
         id="path30"
         style="fill:none;stroke:#231f20;stroke-width:7.5005002;stroke-linecap:butt;stroke-linejoin:miter;stroke-miterlimit:2.61310005;stroke-dasharray:none;stroke-opacity:1"
         d="M 1122.83,206.051 H 1314.7" /><path
         id="path32"
         style="fill:none;stroke:#231f20;stroke-width:7.5005002;stroke-linecap:butt;stroke-linejoin:miter;stroke-miterlimit:2.61310005;stroke-dasharray:none;stroke-opacity:1"
         d="M 413.074,210.762 V 514.996" /><path
         id="path34"
         style="fill:none;stroke:#231f20;stroke-width:7.5005002;stroke-linecap:butt;stroke-linejoin:miter;stroke-miterlimit:2.61310005;stroke-dasharray:none;stroke-opacity:1"
         d="M 1123.86,205.441 V 509.625" /><path
         id="path36"
         style="fill:none;stroke:#231f20;stroke-width:7.5005002;stroke-linecap:butt;stroke-linejoin:miter;stroke-miterlimit:2.61310005;stroke-dasharray:none;stroke-opacity:1"
         d="M 413.438,513.141 H 1124.66" /><path
         id="path38"
         style="fill:none;stroke:#231f20;stroke-width:7.5005002;stroke-linecap:butt;stroke-linejoin:miter;stroke-miterlimit:2.61310005;stroke-dasharray:37.5025, 22.5015;stroke-dashoffset:0;stroke-opacity:1"
         d="M 11.1289,12.0859 V 1111.08" /><path
         id="path40"
         style="fill:none;stroke:#231f20;stroke-width:7.5005002;stroke-linecap:butt;stroke-linejoin:miter;stroke-miterlimit:2.61310005;stroke-dasharray:37.5025, 22.5015;stroke-dashoffset:0;stroke-opacity:1"
         d="M 1513.92,12.0859 V 1111.08" /><path
         id="path42"
         style="fill:none;stroke:#231f20;stroke-width:7.5005002;stroke-linecap:butt;stroke-linejoin:miter;stroke-miterlimit:2.61310005;stroke-dasharray:37.5025, 22.5015;stroke-dashoffset:0;stroke-opacity:1"
         d="M 14.375,1109.2 H 1516.69" /><path
         id="path44"
         style="fill:none;stroke:#231f20;stroke-width:7.5005002;stroke-linecap:butt;stroke-linejoin:miter;stroke-miterlimit:2.61310005;stroke-dasharray:37.5025, 22.5015;stroke-dashoffset:0;stroke-opacity:1"
         d="M 14.375,12.3672 H 1516.69" /><path
         id="path46"
         style="fill:none;stroke:#231f20;stroke-width:5.00029993;stroke-linecap:butt;stroke-linejoin:miter;stroke-miterlimit:2.61310005;stroke-dasharray:none;stroke-opacity:1"
         d="M 259.488,765.988 H 1273.73" /><path
         id="path48"
         style="fill:#231f20;fill-opacity:1;fill-rule:evenodd;stroke:none"
         d="m 263.641,792.336 -47.899,-26.348 47.899,-26.347 v 52.695" /><path
         id="path50"
         style="fill:#231f20;fill-opacity:1;fill-rule:evenodd;stroke:none"
         d="m 1269.58,792.336 47.9,-26.348 -47.9,-26.347 v 52.695" /><path
         id="path52"
         style="fill:none;stroke:#231f20;stroke-width:5.00029993;stroke-linecap:butt;stroke-linejoin:miter;stroke-miterlimit:2.61310005;stroke-dasharray:none;stroke-opacity:1"
         d="M 360.785,252.922 V 871.008" /><path
         id="path54"
         style="fill:#231f20;fill-opacity:1;fill-rule:evenodd;stroke:none"
         d="m 334.438,257.074 26.347,-47.898 26.348,47.898 h -52.695" /><path
         id="path56"
         style="fill:#231f20;fill-opacity:1;fill-rule:evenodd;stroke:none"
         d="m 334.438,866.852 26.347,47.902 26.348,-47.902 h -52.695" /><path
         id="path58"
         style="fill:none;stroke:#231f20;stroke-width:5.00029993;stroke-linecap:butt;stroke-linejoin:miter;stroke-miterlimit:2.61310005;stroke-dasharray:none;stroke-opacity:1"
         d="M 1237.02,58.8711 V 163.867" /><path
         id="path60"
         style="fill:#231f20;fill-opacity:1;fill-rule:evenodd;stroke:none"
         d="m 1210.67,63.0234 26.35,-47.8984 26.35,47.8984 h -52.7" /><path
         id="path62"
         style="fill:#231f20;fill-opacity:1;fill-rule:evenodd;stroke:none"
         d="m 1210.67,159.715 26.35,47.898 26.35,-47.898 h -52.7" /><path
         id="path64"
         style="fill:none;stroke:#231f20;stroke-width:5.00029993;stroke-linecap:butt;stroke-linejoin:miter;stroke-miterlimit:2.61310005;stroke-dasharray:none;stroke-opacity:1"
         d="M 360.719,959.348 V 1064.34" /><path
         id="path66"
         style="fill:#231f20;fill-opacity:1;fill-rule:evenodd;stroke:none"
         d="m 334.367,963.5 26.352,-47.898 26.347,47.898 h -52.699" /><path
         id="path68"
         style="fill:#231f20;fill-opacity:1;fill-rule:evenodd;stroke:none"
         d="m 334.367,1060.19 26.352,47.9 26.347,-47.9 h -52.699" /><path
         id="path70"
         style="fill:none;stroke:#231f20;stroke-width:5.00029993;stroke-linecap:butt;stroke-linejoin:miter;stroke-miterlimit:2.61310005;stroke-dasharray:none;stroke-opacity:1"
         d="M 50.9883,294.598 H 169.703" /><path
         id="path72"
         style="fill:#231f20;fill-opacity:1;fill-rule:evenodd;stroke:none"
         d="M 55.1406,320.945 7.24219,294.598 55.1406,268.25 v 52.695" /><path
         id="path74"
         style="fill:#231f20;fill-opacity:1;fill-rule:evenodd;stroke:none"
         d="m 165.551,320.945 47.898,-26.347 -47.898,-26.348 v 52.695" /><path
         id="path76"
         style="fill:#231f20;fill-opacity:1;fill-rule:nonzero;stroke:none"
         d="m 127.43,334.84 -4.633,-12.75 H 83.7305 v 1.801 c 11.4843,10.484 19.5815,19.05 24.2655,25.683 4.684,6.653 7.035,12.719 7.035,18.215 0,4.203 -1.281,7.652 -3.867,10.352 -2.566,2.699 -5.633,4.05 -9.215,4.05 -3.2654,0 -6.1834,-0.949 -8.7693,-2.851 -2.582,-1.902 -4.4961,-4.699 -5.7305,-8.367 h -1.8164 c 0.8164,6.019 2.8984,10.632 6.2813,13.867 3.3671,3.219 7.5664,4.832 12.6169,4.832 5.367,0 9.848,-1.731 13.449,-5.184 3.602,-3.449 5.399,-7.515 5.399,-12.195 0,-3.352 -0.781,-6.719 -2.348,-10.07 -2.402,-5.266 -6.316,-10.848 -11.715,-16.75 -8.101,-8.848 -13.1676,-14.18 -15.1871,-16.016 h 17.2851 c 3.516,0 5.981,0.133 7.398,0.402 1.418,0.246 2.704,0.782 3.833,1.582 1.136,0.801 2.136,1.934 2.984,3.399 h 1.801" /><path
         id="path78"
         style="fill:#231f20;fill-opacity:1;fill-rule:nonzero;stroke:none"
         d="m 1217.32,95.0039 -4.63,-12.75 h -39.07 v 1.8008 c 11.49,10.4805 19.58,19.0473 24.27,25.6833 4.68,6.653 7.03,12.715 7.03,18.215 0,4.203 -1.28,7.652 -3.87,10.352 -2.56,2.699 -5.63,4.05 -9.21,4.05 -3.27,0 -6.18,-0.953 -8.77,-2.851 -2.58,-1.902 -4.5,-4.699 -5.73,-8.367 h -1.82 c 0.82,6.019 2.9,10.633 6.28,13.867 3.37,3.219 7.57,4.832 12.62,4.832 5.37,0 9.85,-1.731 13.45,-5.184 3.6,-3.449 5.4,-7.515 5.4,-12.195 0,-3.352 -0.78,-6.719 -2.35,-10.07 -2.4,-5.266 -6.31,-10.848 -11.72,-16.75 -8.09,-8.8479 -13.16,-14.18 -15.18,-16.0159 h 17.28 c 3.52,0 5.99,0.1328 7.4,0.3984 1.42,0.25 2.71,0.7852 3.84,1.5821 1.13,0.8046 2.13,1.9375 2.98,3.4023 h 1.8" /><path
         id="path80"
         style="fill:none;stroke:#231f20;stroke-width:5.00029993;stroke-linecap:butt;stroke-linejoin:miter;stroke-miterlimit:2.61310005;stroke-dasharray:none;stroke-opacity:1"
         d="m 1362.5,315.848 h 118.71" /><path
         id="path82"
         style="fill:#231f20;fill-opacity:1;fill-rule:evenodd;stroke:none"
         d="m 1366.65,342.195 -47.9,-26.347 47.9,-26.348 v 52.695" /><path
         id="path84"
         style="fill:#231f20;fill-opacity:1;fill-rule:evenodd;stroke:none"
         d="m 1477.06,342.195 47.9,-26.347 -47.9,-26.348 v 52.695" /><path
         id="path86"
         style="fill:#231f20;fill-opacity:1;fill-rule:nonzero;stroke:none"
         d="m 1438.94,356.094 -4.63,-12.75 h -39.07 v 1.797 c 11.49,10.484 19.58,19.05 24.27,25.687 4.68,6.649 7.03,12.715 7.03,18.215 0,4.199 -1.28,7.648 -3.86,10.348 -2.57,2.703 -5.64,4.05 -9.22,4.05 -3.26,0 -6.18,-0.949 -8.77,-2.847 -2.58,-1.903 -4.5,-4.699 -5.73,-8.367 h -1.82 c 0.82,6.015 2.9,10.632 6.29,13.867 3.36,3.215 7.56,4.832 12.61,4.832 5.37,0 9.85,-1.735 13.45,-5.184 3.6,-3.453 5.4,-7.515 5.4,-12.199 0,-3.352 -0.78,-6.719 -2.35,-10.066 -2.4,-5.27 -6.31,-10.852 -11.72,-16.75 -8.09,-8.852 -13.16,-14.184 -15.18,-16.016 h 17.29 c 3.51,0 5.98,0.133 7.39,0.398 1.42,0.25 2.71,0.782 3.84,1.582 1.13,0.801 2.13,1.934 2.98,3.403 h 1.8" /><path
         id="path88"
         style="fill:#231f20;fill-opacity:1;fill-rule:nonzero;stroke:none"
         d="m 301.125,582.605 h 35.484 v -1.867 l -22.07,-65.715 h -5.465 l 19.785,59.614 h -18.214 c -3.688,0 -6.305,-0.43 -7.872,-1.317 -2.73,-1.496 -4.929,-3.8 -6.582,-6.933 l -1.418,0.535 6.352,15.683" /></g></g></svg>