<?xml version="1.0" encoding="UTF-8" standalone="no"?>
<svg
   xmlns:dc="http://purl.org/dc/elements/1.1/"
   xmlns:cc="http://creativecommons.org/ns#"
   xmlns:rdf="http://www.w3.org/1999/02/22-rdf-syntax-ns#"
   xmlns:svg="http://www.w3.org/2000/svg"
   xmlns="http://www.w3.org/2000/svg"
   viewBox="0 0 200 89.333336"
   height="89.333336"
   width="200"
   xml:space="preserve"
   id="svg2"
   version="1.1"><metadata
     id="metadata8"><rdf:RDF><cc:Work
         rdf:about=""><dc:format>image/svg+xml</dc:format><dc:type
           rdf:resource="http://purl.org/dc/dcmitype/StillImage" /></cc:Work></rdf:RDF></metadata><defs
     id="defs6" /><g
     transform="matrix(1.3333333,0,0,-1.3333333,0,89.333333)"
     id="g10"><g
       transform="scale(0.1)"
       id="g12"><path
         id="path14"
         style="fill:#231f20;fill-opacity:1;fill-rule:nonzero;stroke:none"
         d="m 271.547,216 c 1.887,4.453 4.269,7.902 7.152,10.316 2.883,2.434 6.465,3.653 10.766,3.653 5.301,0 9.367,-1.735 12.203,-5.188 2.148,-2.562 3.234,-5.312 3.234,-8.246 0,-4.816 -3.039,-9.801 -9.086,-14.933 4.067,-1.602 7.133,-3.883 9.219,-6.852 2.082,-2.949 3.129,-6.43 3.129,-10.449 0,-5.715 -1.816,-10.684 -5.465,-14.883 -4.75,-5.465 -11.633,-8.199 -20.652,-8.199 -4.465,0 -7.496,0.547 -9.113,1.652 -1.602,1.113 -2.418,2.297 -2.418,3.567 0,0.949 0.382,1.781 1.148,2.5 0.77,0.714 1.684,1.062 2.766,1.062 0.804,0 1.636,-0.133 2.488,-0.383 0.551,-0.164 1.801,-0.765 3.762,-1.781 1.953,-1.035 3.304,-1.637 4.05,-1.836 1.2,-0.363 2.485,-0.531 3.852,-0.531 3.316,0 6.215,1.281 8.668,3.851 2.465,2.563 3.684,5.614 3.684,9.133 0,2.563 -0.571,5.082 -1.704,7.516 -0.847,1.816 -1.781,3.199 -2.781,4.148 -1.398,1.301 -3.316,2.485 -5.765,3.535 -2.434,1.067 -4.934,1.602 -7.469,1.602 h -1.567 v 1.465 c 2.567,0.316 5.149,1.25 7.735,2.781 2.601,1.52 4.484,3.367 5.648,5.516 1.168,2.152 1.75,4.504 1.75,7.07 0,3.367 -1.047,6.062 -3.148,8.129 -2.102,2.07 -4.699,3.101 -7.836,3.101 -5.047,0 -9.25,-2.699 -12.649,-8.097 L 271.547,216" /><path
         id="path16"
         style="fill:#231f20;fill-opacity:1;fill-rule:nonzero;stroke:none"
         d="m 320.082,195.102 c 0,7.55 1.133,14.046 3.418,19.5 2.281,5.449 5.301,9.515 9.082,12.183 2.934,2.117 5.949,3.184 9.082,3.184 5.066,0 9.637,-2.602 13.668,-7.77 5.051,-6.418 7.566,-15.097 7.566,-26.082 0,-7.683 -1.097,-14.199 -3.316,-19.566 -2.215,-5.383 -5.035,-9.281 -8.465,-11.699 -3.433,-2.434 -6.75,-3.633 -9.949,-3.633 -6.305,0 -11.57,3.719 -15.77,11.183 -3.55,6.282 -5.316,13.852 -5.316,22.7 z m 9.566,-1.215 c 0,-9.121 1.118,-16.571 3.368,-22.317 1.847,-4.851 4.632,-7.285 8.3,-7.285 1.766,0 3.582,0.801 5.465,2.367 1.899,1.582 3.332,4.235 4.301,7.934 1.5,5.598 2.25,13.496 2.25,23.684 0,7.546 -0.785,13.847 -2.348,18.898 -1.168,3.75 -2.687,6.398 -4.535,7.965 -1.336,1.066 -2.949,1.601 -4.836,1.601 -2.215,0 -4.179,-0.984 -5.914,-2.964 -2.332,-2.704 -3.933,-6.954 -4.781,-12.75 -0.852,-5.801 -1.27,-11.5 -1.27,-17.133" /><path
         id="path18"
         style="fill:#231f20;fill-opacity:1;fill-rule:nonzero;stroke:none"
         d="M 59.168,139.227 54.1328,84.1602 c -0.2656,-2.586 -0.3828,-4.2696 -0.3828,-5.086 0,-1.2969 0.2344,-2.2969 0.7344,-2.9804 0.6172,-0.9336 1.4492,-1.6329 2.5,-2.1016 1.0664,-0.4492 2.8476,-0.6836 5.3476,-0.6836 L 61.8008,71.5078 H 35.7344 l 0.5312,1.8008 h 1.1172 c 2.1172,0 3.8516,0.4687 5.1836,1.3672 0.9336,0.6328 1.668,1.6484 2.2031,3.082 0.3477,1.0195 0.6993,3.3828 1.0157,7.1328 l 0.7812,8.4024 H 27.6172 L 20.8828,84.1602 C 19.3516,82.1094 18.4023,80.625 18,79.7422 c -0.3828,-0.8984 -0.582,-1.7344 -0.582,-2.5156 0,-1.0508 0.414,-1.9336 1.2656,-2.6836 0.8516,-0.75 2.25,-1.1641 4.2031,-1.2344 L 22.3516,71.5078 H 2.76953 l 0.53125,1.8008 c 2.41797,0.1016 4.53516,0.918 6.38281,2.418 1.83591,1.5156 4.56641,4.75 8.21871,9.6992 L 57.4492,139.227 Z M 49.5,122.973 30.3008,96.8594 H 46.9492 L 49.5,122.973" /><path
         id="path20"
         style="fill:#231f20;fill-opacity:1;fill-rule:nonzero;stroke:none"
         d="m 657.637,634.453 16.402,-25.348 c 2.934,-4.48 5.367,-7.367 7.281,-8.617 1.918,-1.25 4.453,-1.883 7.571,-1.883 l -0.536,-1.8 h -28.23 l 0.445,1.8 c 2.254,0.235 3.836,0.766 4.754,1.618 0.93,0.847 1.399,1.797 1.399,2.882 0,0.981 -0.168,1.918 -0.485,2.833 -0.265,0.652 -1.215,2.253 -2.832,4.785 l -13.433,21.05 -6.5,-21.933 c -1.067,-3.52 -1.602,-5.867 -1.602,-7.086 0,-1.231 0.453,-2.164 1.367,-2.816 0.903,-0.665 3.153,-1.098 6.735,-1.333 l -0.785,-1.8 h -26.165 l 0.633,1.8 c 2.535,0.067 4.25,0.301 5.133,0.684 1.301,0.602 2.25,1.348 2.867,2.25 0.852,1.332 1.899,4.098 3.133,8.301 l 11.668,40 c 0.883,3.047 1.316,5.515 1.316,7.367 0,1.301 -0.418,2.297 -1.234,2.981 -0.832,0.683 -2.449,1.015 -4.867,1.015 h -0.981 l 0.598,1.82 h 24.852 l -0.5,-1.82 c -2.051,0.035 -3.571,-0.183 -4.586,-0.68 -1.399,-0.683 -2.414,-1.57 -3.067,-2.636 -0.664,-1.063 -1.613,-3.766 -2.883,-8.047 l -5.132,-17 23.535,17.734 c 3.129,2.332 5.18,4.196 6.148,5.567 0.582,0.832 0.883,1.597 0.883,2.281 0,0.582 -0.301,1.168 -0.898,1.719 -0.602,0.547 -1.516,0.898 -2.766,1.062 l 0.496,1.82 h 21.184 l -0.434,-1.82 c -2.316,-0.379 -4.266,-0.898 -5.832,-1.531 -1.582,-0.633 -3.199,-1.5 -4.867,-2.617 -0.484,-0.317 -3.664,-2.731 -9.516,-7.215 l -20.269,-15.387" /><path
         id="path22"
         style="fill:#231f20;fill-opacity:1;fill-rule:nonzero;stroke:none"
         d="m 68.8477,647.078 0.6835,1.817 H 93.168 c 3.9648,0 7.496,-0.618 10.613,-1.868 3.102,-1.234 5.434,-2.949 6.985,-5.164 1.546,-2.218 2.316,-4.566 2.316,-7.039 0,-3.812 -1.383,-7.246 -4.133,-10.332 -2.754,-3.066 -7.234,-5.347 -13.449,-6.797 4.0156,-1.5 6.949,-3.484 8.848,-5.968 1.882,-2.465 2.832,-5.18 2.832,-8.149 0,-3.281 -0.848,-6.433 -2.547,-9.433 -1.684,-2.985 -3.867,-5.317 -6.5158,-6.965 -2.6524,-1.668 -5.8516,-2.887 -9.6016,-3.668 -2.6679,-0.551 -6.8359,-0.832 -12.5,-0.832 H 51.75 l 0.6328,1.797 c 2.5508,0.07 4.2656,0.32 5.1836,0.734 1.2969,0.566 2.2305,1.301 2.7852,2.199 0.7812,1.235 1.8125,4.067 3.1132,8.5 l 11.8672,40.082 c 1.0157,3.387 1.5157,5.766 1.5157,7.137 0,1.199 -0.4493,2.148 -1.3321,2.848 -0.8984,0.699 -2.5976,1.05 -5.1172,1.05 -0.5507,0 -1.0664,0.016 -1.5507,0.051 z M 78.75,619.594 c 2.1133,-0.067 3.6484,-0.102 4.5977,-0.102 6.7695,0 11.8007,1.469 15.1171,4.418 3.3012,2.949 4.9532,6.633 4.9532,11.067 0,3.351 -1.02,5.964 -3.039,7.835 -2.0157,1.864 -5.2306,2.801 -9.6642,2.801 -1.164,0 -2.664,-0.187 -4.4804,-0.586 z m -9.6172,-32.617 c 3.5156,-0.465 6.2656,-0.684 8.25,-0.684 5.082,0 9.582,1.535 13.5,4.586 3.9336,3.066 5.8828,7.215 5.8828,12.449 0,4 -1.1992,7.133 -3.6328,9.383 -2.418,2.25 -6.332,3.367 -11.7344,3.367 -1.0507,0 -2.3164,-0.051 -3.8164,-0.148 l -8.4492,-28.953" /><path
         id="path24"
         style="fill:#231f20;fill-opacity:1;fill-rule:nonzero;stroke:none"
         d="m 887.625,669.938 -4.93,-21.43 h -1.769 l -0.18,5.383 c -0.168,1.949 -0.551,3.679 -1.137,5.214 -0.582,1.532 -1.468,2.852 -2.632,3.985 -1.168,1.113 -2.649,2 -4.45,2.633 -1.785,0.632 -3.769,0.949 -5.949,0.949 -5.836,0 -10.918,-1.602 -15.285,-4.785 -5.566,-4.063 -9.934,-9.817 -13.082,-17.231 -2.598,-6.117 -3.918,-12.316 -3.918,-18.601 0,-6.414 1.883,-11.532 5.617,-15.364 3.75,-3.82 8.617,-5.734 14.602,-5.734 4.531,0 8.562,1.016 12.082,3.031 3.531,2.02 6.816,5.117 9.851,9.317 h 2.282 c -3.567,-5.7 -7.551,-9.883 -11.899,-12.567 -4.367,-2.683 -9.601,-4.031 -15.687,-4.031 -5.399,0 -10.18,1.133 -14.348,3.398 -4.168,2.266 -7.348,5.434 -9.516,9.551 -2.183,4.102 -3.285,8.5 -3.285,13.235 0,7.214 1.949,14.25 5.817,21.082 3.867,6.832 9.183,12.215 15.933,16.117 6.766,3.898 13.567,5.848 20.453,5.848 3.215,0 6.832,-0.747 10.828,-2.282 1.754,-0.652 3.039,-0.984 3.805,-0.984 0.781,0 1.465,0.164 2.067,0.484 0.582,0.332 1.546,1.266 2.914,2.782 h 1.816" /><path
         id="path26"
         style="fill:none;stroke:#231f20;stroke-width:7.5005002;stroke-linecap:butt;stroke-linejoin:miter;stroke-miterlimit:2.61310005;stroke-dasharray:none;stroke-opacity:1"
         d="M 104.582,570.426 V 134.836" /><path
         id="path28"
         style="fill:none;stroke:#231f20;stroke-width:7.5005002;stroke-linecap:butt;stroke-linejoin:miter;stroke-miterlimit:2.61310005;stroke-dasharray:none;stroke-opacity:1"
         d="M 102.496,569.621 H 814.82" /><path
         id="path30"
         style="fill:#231f20;fill-opacity:1;fill-rule:nonzero;stroke:none"
         d="m 838.516,73.2578 0.586,1.8164 h 21.148 c 8.953,0 15.586,-1.0351 19.883,-3.0859 4.32,-2.0469 7.769,-5.2813 10.336,-9.6797 2.566,-4.418 3.863,-9.1524 3.863,-14.1992 0,-4.3164 -0.746,-8.5352 -2.234,-12.6172 -1.481,-4.086 -3.149,-7.3516 -5.032,-9.8164 -1.867,-2.4531 -4.73,-5.168 -8.617,-8.1367 -3.863,-2.9453 -8.066,-5.1485 -12.582,-6.5625 -4.535,-1.41801 -10.183,-2.11722 -16.949,-2.11722 h -28.031 l 0.633,1.79682 c 2.582,0.0704 4.296,0.3008 5.183,0.6836 1.297,0.5664 2.266,1.3204 2.883,2.25 0.934,1.3672 1.996,4.1172 3.164,8.25 l 11.719,40.0508 c 0.918,3.1485 1.363,5.6328 1.363,7.418 0,1.2656 -0.414,2.2461 -1.262,2.9297 -0.851,0.6836 -2.5,1.0195 -4.984,1.0195 z m 17.336,-1.8516 -14.348,-49.5664 c -1.086,-3.6992 -1.621,-5.996 -1.621,-6.8828 0,-0.5156 0.168,-1.0156 0.519,-1.5156 0.332,-0.4844 0.801,-0.8008 1.383,-0.9648 0.852,-0.3008 2.219,-0.4532 4.098,-0.4532 5.117,0 9.867,0.5352 14.234,1.6016 4.383,1.0508 7.969,2.6172 10.77,4.6992 3.98,3.0352 7.148,7.1992 9.531,12.5 2.367,5.3164 3.551,11.3477 3.551,18.1172 0,7.6484 -1.821,13.3477 -5.465,17.0664 -3.637,3.7305 -8.969,5.5977 -15.969,5.5977 -1.719,0 -3.953,-0.0664 -6.683,-0.1993" /><path
         id="path32"
         style="fill:#231f20;fill-opacity:1;fill-rule:nonzero;stroke:none"
         d="m 1430.95,619.59 6.11,-53.332 38.42,53.332 h 16.16 v -1.817 c -3.52,-0.214 -5.58,-0.453 -6.19,-0.683 -1.09,-0.418 -2.07,-1.266 -2.96,-2.535 -0.9,-1.266 -1.86,-3.715 -2.91,-7.332 l -12.25,-41.985 c -0.72,-2.449 -1.07,-4.363 -1.07,-5.765 0,-1.266 0.44,-2.235 1.32,-2.883 1.23,-0.934 3.18,-1.418 5.85,-1.418 h 1.18 l -0.45,-1.797 h -27.88 l 0.5,1.797 h 1.31 c 2.47,0 4.36,0.367 5.67,1.086 1,0.515 1.9,1.496 2.7,2.949 0.8,1.449 1.92,4.664 3.35,9.648 l 10.94,38.368 -38.62,-53.848 h -1.95 l -6.22,53.848 -11.82,-40.965 c -1,-3.485 -1.5,-5.817 -1.5,-7.016 0,-1.219 0.44,-2.137 1.32,-2.769 0.87,-0.633 3,-1.067 6.4,-1.301 l -0.55,-1.797 H 1396 l 0.53,1.797 h 1.31 c 3.22,0 5.55,0.816 6.99,2.449 1.03,1.168 2.13,3.719 3.26,7.617 l 14.42,49.367 c -1.08,1.102 -2.1,1.852 -3.08,2.25 -0.99,0.383 -2.79,0.704 -5.42,0.918 l 0.49,1.817 h 16.45" /><path
         id="path34"
         style="fill:none;stroke:#231f20;stroke-width:7.5005002;stroke-linecap:butt;stroke-linejoin:miter;stroke-miterlimit:2.61310005;stroke-dasharray:none;stroke-opacity:1"
         d="M 102.496,137.621 H 814.82" /><path
         id="path36"
         style="fill:none;stroke:#231f20;stroke-width:7.5005002;stroke-linecap:butt;stroke-linejoin:miter;stroke-miterlimit:2.61310005;stroke-dasharray:none;stroke-opacity:1"
         d="M 811.051,569.672 V 134.082" /><path
         id="path38"
         style="fill:none;stroke:#231f20;stroke-width:7.5005002;stroke-linecap:butt;stroke-linejoin:miter;stroke-miterlimit:2.61310005;stroke-dasharray:none;stroke-opacity:1"
         d="M 103.844,136.703 671.84,566.594" /><path
         id="path40"
         style="fill:none;stroke:#231f20;stroke-width:7.5005002;stroke-linecap:butt;stroke-linejoin:miter;stroke-miterlimit:2.61310005;stroke-dasharray:none;stroke-opacity:1"
         d="M 811.867,136.34 1382.83,568.473" /><path
         id="path42"
         style="fill:none;stroke:#231f20;stroke-width:7.5005002;stroke-linecap:butt;stroke-linejoin:miter;stroke-miterlimit:2.61310005;stroke-dasharray:none;stroke-opacity:1"
         d="M 813.141,569.457 H 1387.36" /><path
         id="path44"
         style="fill:none;stroke:#231f20;stroke-width:7.5005002;stroke-linecap:butt;stroke-linejoin:miter;stroke-miterlimit:2.61310005;stroke-dasharray:none;stroke-opacity:1"
         d="m 190.586,200.957 c 26.559,-7.527 38.09,-30.105 34.578,-67.73" /><path
         id="path46"
         style="fill:none;stroke:#231f20;stroke-width:7.5005002;stroke-linecap:butt;stroke-linejoin:miter;stroke-miterlimit:2.61310005;stroke-dasharray:none;stroke-opacity:1"
         d="m 385.078,242.84 c 5.664,0 10.227,-4.785 10.227,-10.684 0,-5.902 -4.563,-10.687 -10.227,-10.687 -5.633,0 -10.215,4.785 -10.215,10.687 0,5.899 4.582,10.684 10.215,10.684 z" /></g></g></svg>