<?xml version="1.0" encoding="UTF-8" standalone="no"?>
<svg
   xmlns:dc="http://purl.org/dc/elements/1.1/"
   xmlns:cc="http://creativecommons.org/ns#"
   xmlns:rdf="http://www.w3.org/1999/02/22-rdf-syntax-ns#"
   xmlns:svg="http://www.w3.org/2000/svg"
   xmlns="http://www.w3.org/2000/svg"
   viewBox="0 0 134.66667 133.33333"
   height="133.33333"
   width="134.66667"
   xml:space="preserve"
   id="svg2"
   version="1.1"><metadata
     id="metadata8"><rdf:RDF><cc:Work
         rdf:about=""><dc:format>image/svg+xml</dc:format><dc:type
           rdf:resource="http://purl.org/dc/dcmitype/StillImage" /></cc:Work></rdf:RDF></metadata><defs
     id="defs6" /><g
     transform="matrix(1.3333333,0,0,-1.3333333,0,133.33333)"
     id="g10"><g
       transform="scale(0.1)"
       id="g12"><path
         id="path14"
         style="fill:none;stroke:#231f20;stroke-width:2.16000009;stroke-linecap:butt;stroke-linejoin:miter;stroke-miterlimit:2.61310005;stroke-dasharray:none;stroke-opacity:1"
         d="m 9.03125,898.77 h 99.457 v 98.8555 h -99.457 z" /><path
         id="path16"
         style="fill:none;stroke:#231f20;stroke-width:2.16000009;stroke-linecap:butt;stroke-linejoin:miter;stroke-miterlimit:2.61310005;stroke-dasharray:none;stroke-opacity:1"
         d="m 9.03125,799.914 h 99.457 v 98.8555 h -99.457 z" /><path
         id="path18"
         style="fill:none;stroke:#231f20;stroke-width:2.16000009;stroke-linecap:butt;stroke-linejoin:miter;stroke-miterlimit:2.61310005;stroke-dasharray:none;stroke-opacity:1"
         d="m 9.03125,701.059 h 99.457 v 98.8555 h -99.457 z" /><path
         id="path20"
         style="fill:none;stroke:#231f20;stroke-width:2.16000009;stroke-linecap:butt;stroke-linejoin:miter;stroke-miterlimit:2.61310005;stroke-dasharray:none;stroke-opacity:1"
         d="m 9.03125,602.203 h 99.457 v 98.8555 h -99.457 z" /><path
         id="path22"
         style="fill:none;stroke:#231f20;stroke-width:2.16000009;stroke-linecap:butt;stroke-linejoin:miter;stroke-miterlimit:2.61310005;stroke-dasharray:none;stroke-opacity:1"
         d="m 9.03125,503.348 h 99.457 v 98.8555 h -99.457 z" /><path
         id="path24"
         style="fill:none;stroke:#231f20;stroke-width:2.16000009;stroke-linecap:butt;stroke-linejoin:miter;stroke-miterlimit:2.61310005;stroke-dasharray:none;stroke-opacity:1"
         d="m 9.03125,404.492 h 99.457 v 98.8555 h -99.457 z" /><path
         id="path26"
         style="fill:none;stroke:#231f20;stroke-width:2.16000009;stroke-linecap:butt;stroke-linejoin:miter;stroke-miterlimit:2.61310005;stroke-dasharray:none;stroke-opacity:1"
         d="m 9.03125,305.637 h 99.457 v 98.8555 h -99.457 z" /><path
         id="path28"
         style="fill:none;stroke:#231f20;stroke-width:2.16000009;stroke-linecap:butt;stroke-linejoin:miter;stroke-miterlimit:2.61310005;stroke-dasharray:none;stroke-opacity:1"
         d="m 9.03125,206.781 h 99.457 v 98.8555 h -99.457 z" /><path
         id="path30"
         style="fill:none;stroke:#231f20;stroke-width:2.16000009;stroke-linecap:butt;stroke-linejoin:miter;stroke-miterlimit:2.61310005;stroke-dasharray:none;stroke-opacity:1"
         d="m 9.03125,107.926 h 99.457 v 98.8555 h -99.457 z" /><path
         id="path32"
         style="fill:none;stroke:#231f20;stroke-width:2.16000009;stroke-linecap:butt;stroke-linejoin:miter;stroke-miterlimit:2.61310005;stroke-dasharray:none;stroke-opacity:1"
         d="m 9.03125,9.07031 h 99.457 v 98.8555 h -99.457 z" /><path
         id="path34"
         style="fill:none;stroke:#231f20;stroke-width:2.16000009;stroke-linecap:butt;stroke-linejoin:miter;stroke-miterlimit:2.61310005;stroke-dasharray:none;stroke-opacity:1"
         d="m 108.488,898.77 h 99.457 v 98.8555 h -99.457 z" /><path
         id="path36"
         style="fill:none;stroke:#231f20;stroke-width:2.16000009;stroke-linecap:butt;stroke-linejoin:miter;stroke-miterlimit:2.61310005;stroke-dasharray:none;stroke-opacity:1"
         d="m 108.488,799.914 h 99.457 v 98.8555 h -99.457 z" /><path
         id="path38"
         style="fill:none;stroke:#231f20;stroke-width:2.16000009;stroke-linecap:butt;stroke-linejoin:miter;stroke-miterlimit:2.61310005;stroke-dasharray:none;stroke-opacity:1"
         d="m 108.488,701.059 h 99.457 v 98.8555 h -99.457 z" /><path
         id="path40"
         style="fill:none;stroke:#231f20;stroke-width:2.16000009;stroke-linecap:butt;stroke-linejoin:miter;stroke-miterlimit:2.61310005;stroke-dasharray:none;stroke-opacity:1"
         d="m 108.488,602.203 h 99.457 v 98.8555 h -99.457 z" /><path
         id="path42"
         style="fill:none;stroke:#231f20;stroke-width:2.16000009;stroke-linecap:butt;stroke-linejoin:miter;stroke-miterlimit:2.61310005;stroke-dasharray:none;stroke-opacity:1"
         d="m 108.488,503.348 h 99.457 v 98.8555 h -99.457 z" /><path
         id="path44"
         style="fill:none;stroke:#231f20;stroke-width:2.16000009;stroke-linecap:butt;stroke-linejoin:miter;stroke-miterlimit:2.61310005;stroke-dasharray:none;stroke-opacity:1"
         d="m 108.488,404.492 h 99.457 v 98.8555 h -99.457 z" /><path
         id="path46"
         style="fill:none;stroke:#231f20;stroke-width:2.16000009;stroke-linecap:butt;stroke-linejoin:miter;stroke-miterlimit:2.61310005;stroke-dasharray:none;stroke-opacity:1"
         d="m 108.488,305.637 h 99.457 v 98.8555 h -99.457 z" /><path
         id="path48"
         style="fill:none;stroke:#231f20;stroke-width:2.16000009;stroke-linecap:butt;stroke-linejoin:miter;stroke-miterlimit:2.61310005;stroke-dasharray:none;stroke-opacity:1"
         d="m 108.488,206.781 h 99.457 v 98.8555 h -99.457 z" /><path
         id="path50"
         style="fill:none;stroke:#231f20;stroke-width:2.16000009;stroke-linecap:butt;stroke-linejoin:miter;stroke-miterlimit:2.61310005;stroke-dasharray:none;stroke-opacity:1"
         d="m 108.488,107.926 h 99.457 v 98.8555 h -99.457 z" /><path
         id="path52"
         style="fill:none;stroke:#231f20;stroke-width:2.16000009;stroke-linecap:butt;stroke-linejoin:miter;stroke-miterlimit:2.61310005;stroke-dasharray:none;stroke-opacity:1"
         d="m 108.488,9.07031 h 99.457 v 98.8555 h -99.457 z" /><path
         id="path54"
         style="fill:none;stroke:#231f20;stroke-width:2.16000009;stroke-linecap:butt;stroke-linejoin:miter;stroke-miterlimit:2.61310005;stroke-dasharray:none;stroke-opacity:1"
         d="m 207.945,898.77 h 99.457 v 98.8555 h -99.457 z" /><path
         id="path56"
         style="fill:none;stroke:#231f20;stroke-width:2.16000009;stroke-linecap:butt;stroke-linejoin:miter;stroke-miterlimit:2.61310005;stroke-dasharray:none;stroke-opacity:1"
         d="m 207.945,799.914 h 99.457 v 98.8555 h -99.457 z" /><path
         id="path58"
         style="fill:none;stroke:#231f20;stroke-width:2.16000009;stroke-linecap:butt;stroke-linejoin:miter;stroke-miterlimit:2.61310005;stroke-dasharray:none;stroke-opacity:1"
         d="m 207.945,701.059 h 99.457 v 98.8555 h -99.457 z" /><path
         id="path60"
         style="fill:none;stroke:#231f20;stroke-width:2.16000009;stroke-linecap:butt;stroke-linejoin:miter;stroke-miterlimit:2.61310005;stroke-dasharray:none;stroke-opacity:1"
         d="m 207.945,602.203 h 99.457 v 98.8555 h -99.457 z" /><path
         id="path62"
         style="fill:none;stroke:#231f20;stroke-width:2.16000009;stroke-linecap:butt;stroke-linejoin:miter;stroke-miterlimit:2.61310005;stroke-dasharray:none;stroke-opacity:1"
         d="m 207.945,503.348 h 99.457 v 98.8555 h -99.457 z" /><path
         id="path64"
         style="fill:none;stroke:#231f20;stroke-width:2.16000009;stroke-linecap:butt;stroke-linejoin:miter;stroke-miterlimit:2.61310005;stroke-dasharray:none;stroke-opacity:1"
         d="m 207.945,404.492 h 99.457 v 98.8555 h -99.457 z" /><path
         id="path66"
         style="fill:none;stroke:#231f20;stroke-width:2.16000009;stroke-linecap:butt;stroke-linejoin:miter;stroke-miterlimit:2.61310005;stroke-dasharray:none;stroke-opacity:1"
         d="m 207.945,305.637 h 99.457 v 98.8555 h -99.457 z" /><path
         id="path68"
         style="fill:none;stroke:#231f20;stroke-width:2.16000009;stroke-linecap:butt;stroke-linejoin:miter;stroke-miterlimit:2.61310005;stroke-dasharray:none;stroke-opacity:1"
         d="m 207.945,206.781 h 99.457 v 98.8555 h -99.457 z" /><path
         id="path70"
         style="fill:none;stroke:#231f20;stroke-width:2.16000009;stroke-linecap:butt;stroke-linejoin:miter;stroke-miterlimit:2.61310005;stroke-dasharray:none;stroke-opacity:1"
         d="m 207.945,107.926 h 99.457 v 98.8555 h -99.457 z" /><path
         id="path72"
         style="fill:none;stroke:#231f20;stroke-width:2.16000009;stroke-linecap:butt;stroke-linejoin:miter;stroke-miterlimit:2.61310005;stroke-dasharray:none;stroke-opacity:1"
         d="m 207.945,9.07031 h 99.457 v 98.8555 h -99.457 z" /><path
         id="path74"
         style="fill:none;stroke:#231f20;stroke-width:2.16000009;stroke-linecap:butt;stroke-linejoin:miter;stroke-miterlimit:2.61310005;stroke-dasharray:none;stroke-opacity:1"
         d="m 307.402,898.77 h 99.457 v 98.8555 h -99.457 z" /><path
         id="path76"
         style="fill:none;stroke:#231f20;stroke-width:2.16000009;stroke-linecap:butt;stroke-linejoin:miter;stroke-miterlimit:2.61310005;stroke-dasharray:none;stroke-opacity:1"
         d="m 307.402,799.914 h 99.457 v 98.8555 h -99.457 z" /><path
         id="path78"
         style="fill:none;stroke:#231f20;stroke-width:2.16000009;stroke-linecap:butt;stroke-linejoin:miter;stroke-miterlimit:2.61310005;stroke-dasharray:none;stroke-opacity:1"
         d="m 307.402,701.059 h 99.457 v 98.8555 h -99.457 z" /><path
         id="path80"
         style="fill:none;stroke:#231f20;stroke-width:2.16000009;stroke-linecap:butt;stroke-linejoin:miter;stroke-miterlimit:2.61310005;stroke-dasharray:none;stroke-opacity:1"
         d="m 307.402,602.203 h 99.457 v 98.8555 h -99.457 z" /><path
         id="path82"
         style="fill:none;stroke:#231f20;stroke-width:2.16000009;stroke-linecap:butt;stroke-linejoin:miter;stroke-miterlimit:2.61310005;stroke-dasharray:none;stroke-opacity:1"
         d="m 307.402,503.348 h 99.457 v 98.8555 h -99.457 z" /><path
         id="path84"
         style="fill:none;stroke:#231f20;stroke-width:2.16000009;stroke-linecap:butt;stroke-linejoin:miter;stroke-miterlimit:2.61310005;stroke-dasharray:none;stroke-opacity:1"
         d="m 307.402,404.492 h 99.457 v 98.8555 h -99.457 z" /><path
         id="path86"
         style="fill:none;stroke:#231f20;stroke-width:2.16000009;stroke-linecap:butt;stroke-linejoin:miter;stroke-miterlimit:2.61310005;stroke-dasharray:none;stroke-opacity:1"
         d="m 307.402,305.637 h 99.457 v 98.8555 h -99.457 z" /><path
         id="path88"
         style="fill:none;stroke:#231f20;stroke-width:2.16000009;stroke-linecap:butt;stroke-linejoin:miter;stroke-miterlimit:2.61310005;stroke-dasharray:none;stroke-opacity:1"
         d="m 307.402,206.781 h 99.457 v 98.8555 h -99.457 z" /><path
         id="path90"
         style="fill:none;stroke:#231f20;stroke-width:2.16000009;stroke-linecap:butt;stroke-linejoin:miter;stroke-miterlimit:2.61310005;stroke-dasharray:none;stroke-opacity:1"
         d="m 307.402,107.926 h 99.457 v 98.8555 h -99.457 z" /><path
         id="path92"
         style="fill:none;stroke:#231f20;stroke-width:2.16000009;stroke-linecap:butt;stroke-linejoin:miter;stroke-miterlimit:2.61310005;stroke-dasharray:none;stroke-opacity:1"
         d="m 307.402,9.07031 h 99.457 v 98.8555 h -99.457 z" /><path
         id="path94"
         style="fill:none;stroke:#231f20;stroke-width:2.16000009;stroke-linecap:butt;stroke-linejoin:miter;stroke-miterlimit:2.61310005;stroke-dasharray:none;stroke-opacity:1"
         d="m 406.859,898.77 h 99.457 v 98.8555 h -99.457 z" /><path
         id="path96"
         style="fill:none;stroke:#231f20;stroke-width:2.16000009;stroke-linecap:butt;stroke-linejoin:miter;stroke-miterlimit:2.61310005;stroke-dasharray:none;stroke-opacity:1"
         d="m 406.859,799.914 h 99.457 v 98.8555 h -99.457 z" /><path
         id="path98"
         style="fill:none;stroke:#231f20;stroke-width:2.16000009;stroke-linecap:butt;stroke-linejoin:miter;stroke-miterlimit:2.61310005;stroke-dasharray:none;stroke-opacity:1"
         d="m 406.859,701.059 h 99.457 v 98.8555 h -99.457 z" /><path
         id="path100"
         style="fill:none;stroke:#231f20;stroke-width:2.16000009;stroke-linecap:butt;stroke-linejoin:miter;stroke-miterlimit:2.61310005;stroke-dasharray:none;stroke-opacity:1"
         d="m 406.859,602.203 h 99.457 v 98.8555 h -99.457 z" /><path
         id="path102"
         style="fill:none;stroke:#231f20;stroke-width:2.16000009;stroke-linecap:butt;stroke-linejoin:miter;stroke-miterlimit:2.61310005;stroke-dasharray:none;stroke-opacity:1"
         d="m 406.859,503.348 h 99.457 v 98.8555 h -99.457 z" /><path
         id="path104"
         style="fill:none;stroke:#231f20;stroke-width:2.16000009;stroke-linecap:butt;stroke-linejoin:miter;stroke-miterlimit:2.61310005;stroke-dasharray:none;stroke-opacity:1"
         d="m 406.859,404.492 h 99.457 v 98.8555 h -99.457 z" /><path
         id="path106"
         style="fill:none;stroke:#231f20;stroke-width:2.16000009;stroke-linecap:butt;stroke-linejoin:miter;stroke-miterlimit:2.61310005;stroke-dasharray:none;stroke-opacity:1"
         d="m 406.859,305.637 h 99.457 v 98.8555 h -99.457 z" /><path
         id="path108"
         style="fill:none;stroke:#231f20;stroke-width:2.16000009;stroke-linecap:butt;stroke-linejoin:miter;stroke-miterlimit:2.61310005;stroke-dasharray:none;stroke-opacity:1"
         d="m 406.859,206.781 h 99.457 v 98.8555 h -99.457 z" /><path
         id="path110"
         style="fill:none;stroke:#231f20;stroke-width:2.16000009;stroke-linecap:butt;stroke-linejoin:miter;stroke-miterlimit:2.61310005;stroke-dasharray:none;stroke-opacity:1"
         d="m 406.859,107.926 h 99.457 v 98.8555 h -99.457 z" /><path
         id="path112"
         style="fill:none;stroke:#231f20;stroke-width:2.16000009;stroke-linecap:butt;stroke-linejoin:miter;stroke-miterlimit:2.61310005;stroke-dasharray:none;stroke-opacity:1"
         d="m 406.859,9.07031 h 99.457 v 98.8555 h -99.457 z" /><path
         id="path114"
         style="fill:none;stroke:#231f20;stroke-width:2.16000009;stroke-linecap:butt;stroke-linejoin:miter;stroke-miterlimit:2.61310005;stroke-dasharray:none;stroke-opacity:1"
         d="m 506.316,898.77 h 99.4531 v 98.8555 H 506.316 Z" /><path
         id="path116"
         style="fill:none;stroke:#231f20;stroke-width:2.16000009;stroke-linecap:butt;stroke-linejoin:miter;stroke-miterlimit:2.61310005;stroke-dasharray:none;stroke-opacity:1"
         d="m 506.316,799.914 h 99.4531 v 98.8555 H 506.316 Z" /><path
         id="path118"
         style="fill:none;stroke:#231f20;stroke-width:2.16000009;stroke-linecap:butt;stroke-linejoin:miter;stroke-miterlimit:2.61310005;stroke-dasharray:none;stroke-opacity:1"
         d="m 506.316,701.059 h 99.4531 v 98.8555 H 506.316 Z" /><path
         id="path120"
         style="fill:none;stroke:#231f20;stroke-width:2.16000009;stroke-linecap:butt;stroke-linejoin:miter;stroke-miterlimit:2.61310005;stroke-dasharray:none;stroke-opacity:1"
         d="m 506.316,602.203 h 99.4531 v 98.8555 H 506.316 Z" /><path
         id="path122"
         style="fill:none;stroke:#231f20;stroke-width:2.16000009;stroke-linecap:butt;stroke-linejoin:miter;stroke-miterlimit:2.61310005;stroke-dasharray:none;stroke-opacity:1"
         d="m 506.316,503.348 h 99.4531 v 98.8555 H 506.316 Z" /><path
         id="path124"
         style="fill:none;stroke:#231f20;stroke-width:2.16000009;stroke-linecap:butt;stroke-linejoin:miter;stroke-miterlimit:2.61310005;stroke-dasharray:none;stroke-opacity:1"
         d="m 506.316,404.492 h 99.4531 v 98.8555 H 506.316 Z" /><path
         id="path126"
         style="fill:none;stroke:#231f20;stroke-width:2.16000009;stroke-linecap:butt;stroke-linejoin:miter;stroke-miterlimit:2.61310005;stroke-dasharray:none;stroke-opacity:1"
         d="m 506.316,305.637 h 99.4531 v 98.8555 H 506.316 Z" /><path
         id="path128"
         style="fill:none;stroke:#231f20;stroke-width:2.16000009;stroke-linecap:butt;stroke-linejoin:miter;stroke-miterlimit:2.61310005;stroke-dasharray:none;stroke-opacity:1"
         d="m 506.316,206.781 h 99.4531 v 98.8555 H 506.316 Z" /><path
         id="path130"
         style="fill:none;stroke:#231f20;stroke-width:2.16000009;stroke-linecap:butt;stroke-linejoin:miter;stroke-miterlimit:2.61310005;stroke-dasharray:none;stroke-opacity:1"
         d="m 506.316,107.926 h 99.4531 v 98.8555 H 506.316 Z" /><path
         id="path132"
         style="fill:none;stroke:#231f20;stroke-width:2.16000009;stroke-linecap:butt;stroke-linejoin:miter;stroke-miterlimit:2.61310005;stroke-dasharray:none;stroke-opacity:1"
         d="m 506.316,9.07031 h 99.4531 v 98.8555 H 506.316 Z" /><path
         id="path134"
         style="fill:none;stroke:#231f20;stroke-width:2.16000009;stroke-linecap:butt;stroke-linejoin:miter;stroke-miterlimit:2.61310005;stroke-dasharray:none;stroke-opacity:1"
         d="m 605.77,898.77 h 99.457 v 98.8555 H 605.77 Z" /><path
         id="path136"
         style="fill:none;stroke:#231f20;stroke-width:2.16000009;stroke-linecap:butt;stroke-linejoin:miter;stroke-miterlimit:2.61310005;stroke-dasharray:none;stroke-opacity:1"
         d="m 605.77,799.914 h 99.457 v 98.8555 H 605.77 Z" /><path
         id="path138"
         style="fill:none;stroke:#231f20;stroke-width:2.16000009;stroke-linecap:butt;stroke-linejoin:miter;stroke-miterlimit:2.61310005;stroke-dasharray:none;stroke-opacity:1"
         d="m 605.77,701.059 h 99.457 v 98.8555 H 605.77 Z" /><path
         id="path140"
         style="fill:none;stroke:#231f20;stroke-width:2.16000009;stroke-linecap:butt;stroke-linejoin:miter;stroke-miterlimit:2.61310005;stroke-dasharray:none;stroke-opacity:1"
         d="m 605.77,602.203 h 99.457 v 98.8555 H 605.77 Z" /><path
         id="path142"
         style="fill:none;stroke:#231f20;stroke-width:2.16000009;stroke-linecap:butt;stroke-linejoin:miter;stroke-miterlimit:2.61310005;stroke-dasharray:none;stroke-opacity:1"
         d="m 605.77,503.348 h 99.457 v 98.8555 H 605.77 Z" /><path
         id="path144"
         style="fill:none;stroke:#231f20;stroke-width:2.16000009;stroke-linecap:butt;stroke-linejoin:miter;stroke-miterlimit:2.61310005;stroke-dasharray:none;stroke-opacity:1"
         d="m 605.77,404.492 h 99.457 v 98.8555 H 605.77 Z" /><path
         id="path146"
         style="fill:none;stroke:#231f20;stroke-width:2.16000009;stroke-linecap:butt;stroke-linejoin:miter;stroke-miterlimit:2.61310005;stroke-dasharray:none;stroke-opacity:1"
         d="m 605.77,305.637 h 99.457 v 98.8555 H 605.77 Z" /><path
         id="path148"
         style="fill:none;stroke:#231f20;stroke-width:2.16000009;stroke-linecap:butt;stroke-linejoin:miter;stroke-miterlimit:2.61310005;stroke-dasharray:none;stroke-opacity:1"
         d="m 605.77,206.781 h 99.457 v 98.8555 H 605.77 Z" /><path
         id="path150"
         style="fill:none;stroke:#231f20;stroke-width:2.16000009;stroke-linecap:butt;stroke-linejoin:miter;stroke-miterlimit:2.61310005;stroke-dasharray:none;stroke-opacity:1"
         d="m 605.77,107.926 h 99.457 v 98.8555 H 605.77 Z" /><path
         id="path152"
         style="fill:none;stroke:#231f20;stroke-width:2.16000009;stroke-linecap:butt;stroke-linejoin:miter;stroke-miterlimit:2.61310005;stroke-dasharray:none;stroke-opacity:1"
         d="m 605.77,9.07031 h 99.457 v 98.8555 H 605.77 Z" /><path
         id="path154"
         style="fill:none;stroke:#231f20;stroke-width:2.16000009;stroke-linecap:butt;stroke-linejoin:miter;stroke-miterlimit:2.61310005;stroke-dasharray:none;stroke-opacity:1"
         d="m 705.227,898.77 h 99.457 v 98.8555 h -99.457 z" /><path
         id="path156"
         style="fill:none;stroke:#231f20;stroke-width:2.16000009;stroke-linecap:butt;stroke-linejoin:miter;stroke-miterlimit:2.61310005;stroke-dasharray:none;stroke-opacity:1"
         d="m 705.227,799.914 h 99.457 v 98.8555 h -99.457 z" /><path
         id="path158"
         style="fill:none;stroke:#231f20;stroke-width:2.16000009;stroke-linecap:butt;stroke-linejoin:miter;stroke-miterlimit:2.61310005;stroke-dasharray:none;stroke-opacity:1"
         d="m 705.227,701.059 h 99.457 v 98.8555 h -99.457 z" /><path
         id="path160"
         style="fill:none;stroke:#231f20;stroke-width:2.16000009;stroke-linecap:butt;stroke-linejoin:miter;stroke-miterlimit:2.61310005;stroke-dasharray:none;stroke-opacity:1"
         d="m 705.227,602.203 h 99.457 v 98.8555 h -99.457 z" /><path
         id="path162"
         style="fill:none;stroke:#231f20;stroke-width:2.16000009;stroke-linecap:butt;stroke-linejoin:miter;stroke-miterlimit:2.61310005;stroke-dasharray:none;stroke-opacity:1"
         d="m 705.227,503.348 h 99.457 v 98.8555 h -99.457 z" /><path
         id="path164"
         style="fill:none;stroke:#231f20;stroke-width:2.16000009;stroke-linecap:butt;stroke-linejoin:miter;stroke-miterlimit:2.61310005;stroke-dasharray:none;stroke-opacity:1"
         d="m 705.227,404.492 h 99.457 v 98.8555 h -99.457 z" /><path
         id="path166"
         style="fill:none;stroke:#231f20;stroke-width:2.16000009;stroke-linecap:butt;stroke-linejoin:miter;stroke-miterlimit:2.61310005;stroke-dasharray:none;stroke-opacity:1"
         d="m 705.227,305.637 h 99.457 v 98.8555 h -99.457 z" /><path
         id="path168"
         style="fill:none;stroke:#231f20;stroke-width:2.16000009;stroke-linecap:butt;stroke-linejoin:miter;stroke-miterlimit:2.61310005;stroke-dasharray:none;stroke-opacity:1"
         d="m 705.227,206.781 h 99.457 v 98.8555 h -99.457 z" /><path
         id="path170"
         style="fill:none;stroke:#231f20;stroke-width:2.16000009;stroke-linecap:butt;stroke-linejoin:miter;stroke-miterlimit:2.61310005;stroke-dasharray:none;stroke-opacity:1"
         d="m 705.227,107.926 h 99.457 v 98.8555 h -99.457 z" /><path
         id="path172"
         style="fill:none;stroke:#231f20;stroke-width:2.16000009;stroke-linecap:butt;stroke-linejoin:miter;stroke-miterlimit:2.61310005;stroke-dasharray:none;stroke-opacity:1"
         d="m 705.227,9.07031 h 99.457 v 98.8555 h -99.457 z" /><path
         id="path174"
         style="fill:none;stroke:#231f20;stroke-width:2.16000009;stroke-linecap:butt;stroke-linejoin:miter;stroke-miterlimit:2.61310005;stroke-dasharray:none;stroke-opacity:1"
         d="m 804.684,898.77 h 99.457 v 98.8555 h -99.457 z" /><path
         id="path176"
         style="fill:none;stroke:#231f20;stroke-width:2.16000009;stroke-linecap:butt;stroke-linejoin:miter;stroke-miterlimit:2.61310005;stroke-dasharray:none;stroke-opacity:1"
         d="m 804.684,799.914 h 99.457 v 98.8555 h -99.457 z" /><path
         id="path178"
         style="fill:none;stroke:#231f20;stroke-width:2.16000009;stroke-linecap:butt;stroke-linejoin:miter;stroke-miterlimit:2.61310005;stroke-dasharray:none;stroke-opacity:1"
         d="m 804.684,701.059 h 99.457 v 98.8555 h -99.457 z" /><path
         id="path180"
         style="fill:none;stroke:#231f20;stroke-width:2.16000009;stroke-linecap:butt;stroke-linejoin:miter;stroke-miterlimit:2.61310005;stroke-dasharray:none;stroke-opacity:1"
         d="m 804.684,602.203 h 99.457 v 98.8555 h -99.457 z" /><path
         id="path182"
         style="fill:none;stroke:#231f20;stroke-width:2.16000009;stroke-linecap:butt;stroke-linejoin:miter;stroke-miterlimit:2.61310005;stroke-dasharray:none;stroke-opacity:1"
         d="m 804.684,503.348 h 99.457 v 98.8555 h -99.457 z" /><path
         id="path184"
         style="fill:none;stroke:#231f20;stroke-width:2.16000009;stroke-linecap:butt;stroke-linejoin:miter;stroke-miterlimit:2.61310005;stroke-dasharray:none;stroke-opacity:1"
         d="m 804.684,404.492 h 99.457 v 98.8555 h -99.457 z" /><path
         id="path186"
         style="fill:none;stroke:#231f20;stroke-width:2.16000009;stroke-linecap:butt;stroke-linejoin:miter;stroke-miterlimit:2.61310005;stroke-dasharray:none;stroke-opacity:1"
         d="m 804.684,305.637 h 99.457 v 98.8555 h -99.457 z" /><path
         id="path188"
         style="fill:none;stroke:#231f20;stroke-width:2.16000009;stroke-linecap:butt;stroke-linejoin:miter;stroke-miterlimit:2.61310005;stroke-dasharray:none;stroke-opacity:1"
         d="m 804.684,206.781 h 99.457 v 98.8555 h -99.457 z" /><path
         id="path190"
         style="fill:none;stroke:#231f20;stroke-width:2.16000009;stroke-linecap:butt;stroke-linejoin:miter;stroke-miterlimit:2.61310005;stroke-dasharray:none;stroke-opacity:1"
         d="m 804.684,107.926 h 99.457 v 98.8555 h -99.457 z" /><path
         id="path192"
         style="fill:none;stroke:#231f20;stroke-width:2.16000009;stroke-linecap:butt;stroke-linejoin:miter;stroke-miterlimit:2.61310005;stroke-dasharray:none;stroke-opacity:1"
         d="m 804.684,9.07031 h 99.457 v 98.8555 h -99.457 z" /><path
         id="path194"
         style="fill:none;stroke:#231f20;stroke-width:2.16000009;stroke-linecap:butt;stroke-linejoin:miter;stroke-miterlimit:2.61310005;stroke-dasharray:none;stroke-opacity:1"
         d="m 904.141,898.77 h 99.457 v 98.8555 h -99.457 z" /><path
         id="path196"
         style="fill:none;stroke:#231f20;stroke-width:2.16000009;stroke-linecap:butt;stroke-linejoin:miter;stroke-miterlimit:2.61310005;stroke-dasharray:none;stroke-opacity:1"
         d="m 904.141,799.914 h 99.457 v 98.8555 h -99.457 z" /><path
         id="path198"
         style="fill:none;stroke:#231f20;stroke-width:2.16000009;stroke-linecap:butt;stroke-linejoin:miter;stroke-miterlimit:2.61310005;stroke-dasharray:none;stroke-opacity:1"
         d="m 904.141,701.059 h 99.457 v 98.8555 h -99.457 z" /><path
         id="path200"
         style="fill:none;stroke:#231f20;stroke-width:2.16000009;stroke-linecap:butt;stroke-linejoin:miter;stroke-miterlimit:2.61310005;stroke-dasharray:none;stroke-opacity:1"
         d="m 904.141,602.203 h 99.457 v 98.8555 h -99.457 z" /><path
         id="path202"
         style="fill:none;stroke:#231f20;stroke-width:2.16000009;stroke-linecap:butt;stroke-linejoin:miter;stroke-miterlimit:2.61310005;stroke-dasharray:none;stroke-opacity:1"
         d="m 904.141,503.348 h 99.457 v 98.8555 h -99.457 z" /><path
         id="path204"
         style="fill:none;stroke:#231f20;stroke-width:2.16000009;stroke-linecap:butt;stroke-linejoin:miter;stroke-miterlimit:2.61310005;stroke-dasharray:none;stroke-opacity:1"
         d="m 904.141,404.492 h 99.457 v 98.8555 h -99.457 z" /><path
         id="path206"
         style="fill:none;stroke:#231f20;stroke-width:2.16000009;stroke-linecap:butt;stroke-linejoin:miter;stroke-miterlimit:2.61310005;stroke-dasharray:none;stroke-opacity:1"
         d="m 904.141,305.637 h 99.457 v 98.8555 h -99.457 z" /><path
         id="path208"
         style="fill:none;stroke:#231f20;stroke-width:2.16000009;stroke-linecap:butt;stroke-linejoin:miter;stroke-miterlimit:2.61310005;stroke-dasharray:none;stroke-opacity:1"
         d="m 904.141,206.781 h 99.457 v 98.8555 h -99.457 z" /><path
         id="path210"
         style="fill:none;stroke:#231f20;stroke-width:2.16000009;stroke-linecap:butt;stroke-linejoin:miter;stroke-miterlimit:2.61310005;stroke-dasharray:none;stroke-opacity:1"
         d="m 904.141,107.926 h 99.457 v 98.8555 h -99.457 z" /><path
         id="path212"
         style="fill:none;stroke:#231f20;stroke-width:2.16000009;stroke-linecap:butt;stroke-linejoin:miter;stroke-miterlimit:2.61310005;stroke-dasharray:none;stroke-opacity:1"
         d="m 904.141,9.07031 h 99.457 v 98.8555 h -99.457 z" /><path
         id="path214"
         style="fill:none;stroke:#231f20;stroke-width:7.5005002;stroke-linecap:butt;stroke-linejoin:miter;stroke-miterlimit:2.61310005;stroke-dasharray:none;stroke-opacity:1"
         d="m 308.234,406.66 394,392.824" /><path
         id="path216"
         style="fill:none;stroke:#231f20;stroke-width:7.5005002;stroke-linecap:butt;stroke-linejoin:miter;stroke-miterlimit:2.61310005;stroke-dasharray:none;stroke-opacity:1"
         d="M 308.246,406.207 606.777,104.031" /><path
         id="path218"
         style="fill:none;stroke:#231f20;stroke-width:7.5005002;stroke-linecap:butt;stroke-linejoin:miter;stroke-miterlimit:2.61310005;stroke-dasharray:none;stroke-opacity:1"
         d="M 704.633,797.812 608.289,102.516" /><path
         id="path220"
         style="fill:#231f20;fill-opacity:1;fill-rule:nonzero;stroke:none"
         d="m 287.348,480.641 c 4.402,0 8.285,-0.95 11.668,-2.848 3.386,-1.902 6.05,-4.719 7.968,-8.449 1.918,-3.719 2.883,-7.586 2.883,-11.602 0,-7.082 -2.066,-14.535 -6.183,-22.332 -4.118,-7.801 -9.5,-13.75 -16.133,-17.851 -6.653,-4.102 -13.52,-6.149 -20.617,-6.149 -5.098,0 -9.383,1.133 -12.817,3.399 -3.433,2.265 -5.969,5.25 -7.617,8.949 -1.633,3.719 -2.465,7.316 -2.465,10.801 0,6.183 1.496,12.3 4.465,18.332 2.984,6.035 6.551,11.082 10.684,15.132 4.132,4.051 8.531,7.168 13.234,9.352 4.68,2.184 9.664,3.266 14.93,3.266 z m -1.664,-3.114 c -3.25,0 -6.434,-0.804 -9.536,-2.418 -3.113,-1.617 -6.199,-4.25 -9.25,-7.918 -3.066,-3.648 -5.816,-8.449 -8.265,-14.367 -2.985,-7.297 -4.485,-14.183 -4.485,-20.668 0,-4.617 1.184,-8.715 3.567,-12.281 2.367,-3.551 6.019,-5.332 10.933,-5.332 2.969,0 5.868,0.73 8.719,2.199 2.852,1.449 5.817,3.969 8.918,7.516 3.863,4.449 7.117,10.152 9.762,17.066 2.637,6.918 3.953,13.367 3.953,19.352 0,4.433 -1.184,8.347 -3.566,11.746 -2.383,3.402 -5.95,5.105 -10.75,5.105" /><path
         id="path222"
         style="fill:#231f20;fill-opacity:1;fill-rule:nonzero;stroke:none"
         d="m 668.84,90.375 -5.031,-55.0625 c -0.27,-2.5859 -0.383,-4.2695 -0.383,-5.0859 0,-1.3008 0.23,-2.3008 0.734,-2.9844 0.613,-0.9297 1.445,-1.6328 2.5,-2.0977 1.063,-0.4531 2.848,-0.6836 5.348,-0.6836 l -0.531,-1.8007 h -26.071 l 0.535,1.8007 h 1.118 c 2.117,0 3.851,0.4649 5.183,1.3633 0.934,0.6367 1.668,1.6524 2.199,3.086 0.348,1.0195 0.7,3.3828 1.02,7.1328 l 0.781,8.4023 h -18.949 l -6.734,-9.1328 c -1.532,-2.0547 -2.485,-3.5352 -2.883,-4.418 -0.383,-0.9023 -0.586,-1.7343 -0.586,-2.5156 0,-1.0547 0.418,-1.9336 1.269,-2.6875 0.848,-0.7461 2.25,-1.1641 4.2,-1.2305 l -0.532,-1.8007 h -19.586 l 0.532,1.8007 c 2.418,0.0977 4.535,0.9141 6.386,2.418 1.832,1.5156 4.567,4.7461 8.215,9.6992 l 39.551,53.7969 z m -9.664,-16.25 -19.203,-26.1172 h 16.652 l 2.551,26.1172" /><path
         id="path224"
         style="fill:#231f20;fill-opacity:1;fill-rule:nonzero;stroke:none"
         d="m 731.852,878.176 0.683,1.82 h 23.633 c 3.965,0 7.496,-0.621 10.617,-1.871 3.102,-1.23 5.434,-2.945 6.985,-5.164 1.546,-2.215 2.316,-4.566 2.316,-7.035 0,-3.817 -1.387,-7.246 -4.133,-10.332 -2.754,-3.067 -7.234,-5.348 -13.453,-6.801 4.02,-1.5 6.953,-3.484 8.852,-5.965 1.882,-2.469 2.832,-5.183 2.832,-8.148 0,-3.285 -0.848,-6.434 -2.551,-9.434 -1.684,-2.984 -3.863,-5.316 -6.516,-6.965 -2.648,-1.668 -5.851,-2.886 -9.601,-3.668 -2.668,-0.551 -6.832,-0.836 -12.5,-0.836 h -24.262 l 0.629,1.801 c 2.551,0.067 4.265,0.317 5.187,0.734 1.297,0.567 2.231,1.297 2.782,2.2 0.781,1.234 1.816,4.066 3.117,8.5 l 11.863,40.082 c 1.02,3.386 1.52,5.765 1.52,7.136 0,1.2 -0.45,2.149 -1.336,2.848 -0.899,0.699 -2.598,1.047 -5.114,1.047 -0.55,0 -1.066,0.02 -1.55,0.051 z m 9.898,-27.481 c 2.117,-0.066 3.648,-0.101 4.598,-0.101 6.769,0 11.8,1.468 15.117,4.418 3.301,2.949 4.953,6.633 4.953,11.066 0,3.348 -1.016,5.965 -3.035,7.832 -2.016,1.867 -5.235,2.801 -9.668,2.801 -1.164,0 -2.664,-0.184 -4.481,-0.582 z m -9.617,-32.617 c 3.519,-0.469 6.269,-0.683 8.254,-0.683 5.082,0 9.578,1.535 13.496,4.585 3.933,3.067 5.887,7.215 5.887,12.45 0,4 -1.204,7.129 -3.637,9.382 -2.418,2.25 -6.332,3.368 -11.731,3.368 -1.05,0 -2.32,-0.051 -3.82,-0.153 l -8.449,-28.949" /></g></g></svg>