<?xml version="1.0" encoding="UTF-8" standalone="no"?>
<svg
   xmlns:dc="http://purl.org/dc/elements/1.1/"
   xmlns:cc="http://creativecommons.org/ns#"
   xmlns:rdf="http://www.w3.org/1999/02/22-rdf-syntax-ns#"
   xmlns:svg="http://www.w3.org/2000/svg"
   xmlns="http://www.w3.org/2000/svg"
   viewBox="0 0 134.66667 133.33333"
   height="133.33333"
   width="134.66667"
   xml:space="preserve"
   id="svg2"
   version="1.1"><metadata
     id="metadata8"><rdf:RDF><cc:Work
         rdf:about=""><dc:format>image/svg+xml</dc:format><dc:type
           rdf:resource="http://purl.org/dc/dcmitype/StillImage" /></cc:Work></rdf:RDF></metadata><defs
     id="defs6" /><g
     transform="matrix(1.3333333,0,0,-1.3333333,0,133.33333)"
     id="g10"><g
       transform="scale(0.1)"
       id="g12"><path
         id="path14"
         style="fill:none;stroke:#231f20;stroke-width:2.16000009;stroke-linecap:butt;stroke-linejoin:miter;stroke-miterlimit:2.61310005;stroke-dasharray:none;stroke-opacity:1"
         d="m 9.03125,898.77 h 99.457 v 98.8555 h -99.457 z" /><path
         id="path16"
         style="fill:none;stroke:#231f20;stroke-width:2.16000009;stroke-linecap:butt;stroke-linejoin:miter;stroke-miterlimit:2.61310005;stroke-dasharray:none;stroke-opacity:1"
         d="m 9.03125,799.914 h 99.457 v 98.8555 h -99.457 z" /><path
         id="path18"
         style="fill:none;stroke:#231f20;stroke-width:2.16000009;stroke-linecap:butt;stroke-linejoin:miter;stroke-miterlimit:2.61310005;stroke-dasharray:none;stroke-opacity:1"
         d="m 9.03125,701.059 h 99.457 v 98.8555 h -99.457 z" /><path
         id="path20"
         style="fill:none;stroke:#231f20;stroke-width:2.16000009;stroke-linecap:butt;stroke-linejoin:miter;stroke-miterlimit:2.61310005;stroke-dasharray:none;stroke-opacity:1"
         d="m 9.03125,602.203 h 99.457 v 98.8555 h -99.457 z" /><path
         id="path22"
         style="fill:none;stroke:#231f20;stroke-width:2.16000009;stroke-linecap:butt;stroke-linejoin:miter;stroke-miterlimit:2.61310005;stroke-dasharray:none;stroke-opacity:1"
         d="m 9.03125,503.348 h 99.457 v 98.8555 h -99.457 z" /><path
         id="path24"
         style="fill:none;stroke:#231f20;stroke-width:2.16000009;stroke-linecap:butt;stroke-linejoin:miter;stroke-miterlimit:2.61310005;stroke-dasharray:none;stroke-opacity:1"
         d="m 9.03125,404.492 h 99.457 v 98.8555 h -99.457 z" /><path
         id="path26"
         style="fill:none;stroke:#231f20;stroke-width:2.16000009;stroke-linecap:butt;stroke-linejoin:miter;stroke-miterlimit:2.61310005;stroke-dasharray:none;stroke-opacity:1"
         d="m 9.03125,305.637 h 99.457 v 98.8555 h -99.457 z" /><path
         id="path28"
         style="fill:none;stroke:#231f20;stroke-width:2.16000009;stroke-linecap:butt;stroke-linejoin:miter;stroke-miterlimit:2.61310005;stroke-dasharray:none;stroke-opacity:1"
         d="m 9.03125,206.781 h 99.457 v 98.8555 h -99.457 z" /><path
         id="path30"
         style="fill:none;stroke:#231f20;stroke-width:2.16000009;stroke-linecap:butt;stroke-linejoin:miter;stroke-miterlimit:2.61310005;stroke-dasharray:none;stroke-opacity:1"
         d="m 9.03125,107.926 h 99.457 v 98.8555 h -99.457 z" /><path
         id="path32"
         style="fill:none;stroke:#231f20;stroke-width:2.16000009;stroke-linecap:butt;stroke-linejoin:miter;stroke-miterlimit:2.61310005;stroke-dasharray:none;stroke-opacity:1"
         d="m 9.03125,9.07031 h 99.457 v 98.8555 h -99.457 z" /><path
         id="path34"
         style="fill:none;stroke:#231f20;stroke-width:2.16000009;stroke-linecap:butt;stroke-linejoin:miter;stroke-miterlimit:2.61310005;stroke-dasharray:none;stroke-opacity:1"
         d="m 108.488,898.77 h 99.457 v 98.8555 h -99.457 z" /><path
         id="path36"
         style="fill:none;stroke:#231f20;stroke-width:2.16000009;stroke-linecap:butt;stroke-linejoin:miter;stroke-miterlimit:2.61310005;stroke-dasharray:none;stroke-opacity:1"
         d="m 108.488,799.914 h 99.457 v 98.8555 h -99.457 z" /><path
         id="path38"
         style="fill:none;stroke:#231f20;stroke-width:2.16000009;stroke-linecap:butt;stroke-linejoin:miter;stroke-miterlimit:2.61310005;stroke-dasharray:none;stroke-opacity:1"
         d="m 108.488,701.059 h 99.457 v 98.8555 h -99.457 z" /><path
         id="path40"
         style="fill:none;stroke:#231f20;stroke-width:2.16000009;stroke-linecap:butt;stroke-linejoin:miter;stroke-miterlimit:2.61310005;stroke-dasharray:none;stroke-opacity:1"
         d="m 108.488,602.203 h 99.457 v 98.8555 h -99.457 z" /><path
         id="path42"
         style="fill:none;stroke:#231f20;stroke-width:2.16000009;stroke-linecap:butt;stroke-linejoin:miter;stroke-miterlimit:2.61310005;stroke-dasharray:none;stroke-opacity:1"
         d="m 108.488,503.348 h 99.457 v 98.8555 h -99.457 z" /><path
         id="path44"
         style="fill:none;stroke:#231f20;stroke-width:2.16000009;stroke-linecap:butt;stroke-linejoin:miter;stroke-miterlimit:2.61310005;stroke-dasharray:none;stroke-opacity:1"
         d="m 108.488,404.492 h 99.457 v 98.8555 h -99.457 z" /><path
         id="path46"
         style="fill:none;stroke:#231f20;stroke-width:2.16000009;stroke-linecap:butt;stroke-linejoin:miter;stroke-miterlimit:2.61310005;stroke-dasharray:none;stroke-opacity:1"
         d="m 108.488,305.637 h 99.457 v 98.8555 h -99.457 z" /><path
         id="path48"
         style="fill:none;stroke:#231f20;stroke-width:2.16000009;stroke-linecap:butt;stroke-linejoin:miter;stroke-miterlimit:2.61310005;stroke-dasharray:none;stroke-opacity:1"
         d="m 108.488,206.781 h 99.457 v 98.8555 h -99.457 z" /><path
         id="path50"
         style="fill:none;stroke:#231f20;stroke-width:2.16000009;stroke-linecap:butt;stroke-linejoin:miter;stroke-miterlimit:2.61310005;stroke-dasharray:none;stroke-opacity:1"
         d="m 108.488,107.926 h 99.457 v 98.8555 h -99.457 z" /><path
         id="path52"
         style="fill:none;stroke:#231f20;stroke-width:2.16000009;stroke-linecap:butt;stroke-linejoin:miter;stroke-miterlimit:2.61310005;stroke-dasharray:none;stroke-opacity:1"
         d="m 108.488,9.07031 h 99.457 v 98.8555 h -99.457 z" /><path
         id="path54"
         style="fill:none;stroke:#231f20;stroke-width:2.16000009;stroke-linecap:butt;stroke-linejoin:miter;stroke-miterlimit:2.61310005;stroke-dasharray:none;stroke-opacity:1"
         d="m 207.945,898.77 h 99.457 v 98.8555 h -99.457 z" /><path
         id="path56"
         style="fill:none;stroke:#231f20;stroke-width:2.16000009;stroke-linecap:butt;stroke-linejoin:miter;stroke-miterlimit:2.61310005;stroke-dasharray:none;stroke-opacity:1"
         d="m 207.945,799.914 h 99.457 v 98.8555 h -99.457 z" /><path
         id="path58"
         style="fill:none;stroke:#231f20;stroke-width:2.16000009;stroke-linecap:butt;stroke-linejoin:miter;stroke-miterlimit:2.61310005;stroke-dasharray:none;stroke-opacity:1"
         d="m 207.945,701.059 h 99.457 v 98.8555 h -99.457 z" /><path
         id="path60"
         style="fill:none;stroke:#231f20;stroke-width:2.16000009;stroke-linecap:butt;stroke-linejoin:miter;stroke-miterlimit:2.61310005;stroke-dasharray:none;stroke-opacity:1"
         d="m 207.945,602.203 h 99.457 v 98.8555 h -99.457 z" /><path
         id="path62"
         style="fill:none;stroke:#231f20;stroke-width:2.16000009;stroke-linecap:butt;stroke-linejoin:miter;stroke-miterlimit:2.61310005;stroke-dasharray:none;stroke-opacity:1"
         d="m 207.945,503.348 h 99.457 v 98.8555 h -99.457 z" /><path
         id="path64"
         style="fill:none;stroke:#231f20;stroke-width:2.16000009;stroke-linecap:butt;stroke-linejoin:miter;stroke-miterlimit:2.61310005;stroke-dasharray:none;stroke-opacity:1"
         d="m 207.945,404.492 h 99.457 v 98.8555 h -99.457 z" /><path
         id="path66"
         style="fill:none;stroke:#231f20;stroke-width:2.16000009;stroke-linecap:butt;stroke-linejoin:miter;stroke-miterlimit:2.61310005;stroke-dasharray:none;stroke-opacity:1"
         d="m 207.945,305.637 h 99.457 v 98.8555 h -99.457 z" /><path
         id="path68"
         style="fill:none;stroke:#231f20;stroke-width:2.16000009;stroke-linecap:butt;stroke-linejoin:miter;stroke-miterlimit:2.61310005;stroke-dasharray:none;stroke-opacity:1"
         d="m 207.945,206.781 h 99.457 v 98.8555 h -99.457 z" /><path
         id="path70"
         style="fill:none;stroke:#231f20;stroke-width:2.16000009;stroke-linecap:butt;stroke-linejoin:miter;stroke-miterlimit:2.61310005;stroke-dasharray:none;stroke-opacity:1"
         d="m 207.945,107.926 h 99.457 v 98.8555 h -99.457 z" /><path
         id="path72"
         style="fill:none;stroke:#231f20;stroke-width:2.16000009;stroke-linecap:butt;stroke-linejoin:miter;stroke-miterlimit:2.61310005;stroke-dasharray:none;stroke-opacity:1"
         d="m 207.945,9.07031 h 99.457 v 98.8555 h -99.457 z" /><path
         id="path74"
         style="fill:none;stroke:#231f20;stroke-width:2.16000009;stroke-linecap:butt;stroke-linejoin:miter;stroke-miterlimit:2.61310005;stroke-dasharray:none;stroke-opacity:1"
         d="m 307.402,898.77 h 99.457 v 98.8555 h -99.457 z" /><path
         id="path76"
         style="fill:none;stroke:#231f20;stroke-width:2.16000009;stroke-linecap:butt;stroke-linejoin:miter;stroke-miterlimit:2.61310005;stroke-dasharray:none;stroke-opacity:1"
         d="m 307.402,799.914 h 99.457 v 98.8555 h -99.457 z" /><path
         id="path78"
         style="fill:none;stroke:#231f20;stroke-width:2.16000009;stroke-linecap:butt;stroke-linejoin:miter;stroke-miterlimit:2.61310005;stroke-dasharray:none;stroke-opacity:1"
         d="m 307.402,701.059 h 99.457 v 98.8555 h -99.457 z" /><path
         id="path80"
         style="fill:none;stroke:#231f20;stroke-width:2.16000009;stroke-linecap:butt;stroke-linejoin:miter;stroke-miterlimit:2.61310005;stroke-dasharray:none;stroke-opacity:1"
         d="m 307.402,602.203 h 99.457 v 98.8555 h -99.457 z" /><path
         id="path82"
         style="fill:none;stroke:#231f20;stroke-width:2.16000009;stroke-linecap:butt;stroke-linejoin:miter;stroke-miterlimit:2.61310005;stroke-dasharray:none;stroke-opacity:1"
         d="m 307.402,503.348 h 99.457 v 98.8555 h -99.457 z" /><path
         id="path84"
         style="fill:none;stroke:#231f20;stroke-width:2.16000009;stroke-linecap:butt;stroke-linejoin:miter;stroke-miterlimit:2.61310005;stroke-dasharray:none;stroke-opacity:1"
         d="m 307.402,404.492 h 99.457 v 98.8555 h -99.457 z" /><path
         id="path86"
         style="fill:none;stroke:#231f20;stroke-width:2.16000009;stroke-linecap:butt;stroke-linejoin:miter;stroke-miterlimit:2.61310005;stroke-dasharray:none;stroke-opacity:1"
         d="m 307.402,305.637 h 99.457 v 98.8555 h -99.457 z" /><path
         id="path88"
         style="fill:none;stroke:#231f20;stroke-width:2.16000009;stroke-linecap:butt;stroke-linejoin:miter;stroke-miterlimit:2.61310005;stroke-dasharray:none;stroke-opacity:1"
         d="m 307.402,206.781 h 99.457 v 98.8555 h -99.457 z" /><path
         id="path90"
         style="fill:none;stroke:#231f20;stroke-width:2.16000009;stroke-linecap:butt;stroke-linejoin:miter;stroke-miterlimit:2.61310005;stroke-dasharray:none;stroke-opacity:1"
         d="m 307.402,107.926 h 99.457 v 98.8555 h -99.457 z" /><path
         id="path92"
         style="fill:none;stroke:#231f20;stroke-width:2.16000009;stroke-linecap:butt;stroke-linejoin:miter;stroke-miterlimit:2.61310005;stroke-dasharray:none;stroke-opacity:1"
         d="m 307.402,9.07031 h 99.457 v 98.8555 h -99.457 z" /><path
         id="path94"
         style="fill:none;stroke:#231f20;stroke-width:2.16000009;stroke-linecap:butt;stroke-linejoin:miter;stroke-miterlimit:2.61310005;stroke-dasharray:none;stroke-opacity:1"
         d="m 406.859,898.77 h 99.457 v 98.8555 h -99.457 z" /><path
         id="path96"
         style="fill:none;stroke:#231f20;stroke-width:2.16000009;stroke-linecap:butt;stroke-linejoin:miter;stroke-miterlimit:2.61310005;stroke-dasharray:none;stroke-opacity:1"
         d="m 406.859,799.914 h 99.457 v 98.8555 h -99.457 z" /><path
         id="path98"
         style="fill:none;stroke:#231f20;stroke-width:2.16000009;stroke-linecap:butt;stroke-linejoin:miter;stroke-miterlimit:2.61310005;stroke-dasharray:none;stroke-opacity:1"
         d="m 406.859,701.059 h 99.457 v 98.8555 h -99.457 z" /><path
         id="path100"
         style="fill:none;stroke:#231f20;stroke-width:2.16000009;stroke-linecap:butt;stroke-linejoin:miter;stroke-miterlimit:2.61310005;stroke-dasharray:none;stroke-opacity:1"
         d="m 406.859,602.203 h 99.457 v 98.8555 h -99.457 z" /><path
         id="path102"
         style="fill:none;stroke:#231f20;stroke-width:2.16000009;stroke-linecap:butt;stroke-linejoin:miter;stroke-miterlimit:2.61310005;stroke-dasharray:none;stroke-opacity:1"
         d="m 406.859,503.348 h 99.457 v 98.8555 h -99.457 z" /><path
         id="path104"
         style="fill:none;stroke:#231f20;stroke-width:2.16000009;stroke-linecap:butt;stroke-linejoin:miter;stroke-miterlimit:2.61310005;stroke-dasharray:none;stroke-opacity:1"
         d="m 406.859,404.492 h 99.457 v 98.8555 h -99.457 z" /><path
         id="path106"
         style="fill:none;stroke:#231f20;stroke-width:2.16000009;stroke-linecap:butt;stroke-linejoin:miter;stroke-miterlimit:2.61310005;stroke-dasharray:none;stroke-opacity:1"
         d="m 406.859,305.637 h 99.457 v 98.8555 h -99.457 z" /><path
         id="path108"
         style="fill:none;stroke:#231f20;stroke-width:2.16000009;stroke-linecap:butt;stroke-linejoin:miter;stroke-miterlimit:2.61310005;stroke-dasharray:none;stroke-opacity:1"
         d="m 406.859,206.781 h 99.457 v 98.8555 h -99.457 z" /><path
         id="path110"
         style="fill:none;stroke:#231f20;stroke-width:2.16000009;stroke-linecap:butt;stroke-linejoin:miter;stroke-miterlimit:2.61310005;stroke-dasharray:none;stroke-opacity:1"
         d="m 406.859,107.926 h 99.457 v 98.8555 h -99.457 z" /><path
         id="path112"
         style="fill:none;stroke:#231f20;stroke-width:2.16000009;stroke-linecap:butt;stroke-linejoin:miter;stroke-miterlimit:2.61310005;stroke-dasharray:none;stroke-opacity:1"
         d="m 406.859,9.07031 h 99.457 v 98.8555 h -99.457 z" /><path
         id="path114"
         style="fill:none;stroke:#231f20;stroke-width:2.16000009;stroke-linecap:butt;stroke-linejoin:miter;stroke-miterlimit:2.61310005;stroke-dasharray:none;stroke-opacity:1"
         d="m 506.316,898.77 h 99.4531 v 98.8555 H 506.316 Z" /><path
         id="path116"
         style="fill:none;stroke:#231f20;stroke-width:2.16000009;stroke-linecap:butt;stroke-linejoin:miter;stroke-miterlimit:2.61310005;stroke-dasharray:none;stroke-opacity:1"
         d="m 506.316,799.914 h 99.4531 v 98.8555 H 506.316 Z" /><path
         id="path118"
         style="fill:none;stroke:#231f20;stroke-width:2.16000009;stroke-linecap:butt;stroke-linejoin:miter;stroke-miterlimit:2.61310005;stroke-dasharray:none;stroke-opacity:1"
         d="m 506.316,701.059 h 99.4531 v 98.8555 H 506.316 Z" /><path
         id="path120"
         style="fill:none;stroke:#231f20;stroke-width:2.16000009;stroke-linecap:butt;stroke-linejoin:miter;stroke-miterlimit:2.61310005;stroke-dasharray:none;stroke-opacity:1"
         d="m 506.316,602.203 h 99.4531 v 98.8555 H 506.316 Z" /><path
         id="path122"
         style="fill:none;stroke:#231f20;stroke-width:2.16000009;stroke-linecap:butt;stroke-linejoin:miter;stroke-miterlimit:2.61310005;stroke-dasharray:none;stroke-opacity:1"
         d="m 506.316,503.348 h 99.4531 v 98.8555 H 506.316 Z" /><path
         id="path124"
         style="fill:none;stroke:#231f20;stroke-width:2.16000009;stroke-linecap:butt;stroke-linejoin:miter;stroke-miterlimit:2.61310005;stroke-dasharray:none;stroke-opacity:1"
         d="m 506.316,404.492 h 99.4531 v 98.8555 H 506.316 Z" /><path
         id="path126"
         style="fill:none;stroke:#231f20;stroke-width:2.16000009;stroke-linecap:butt;stroke-linejoin:miter;stroke-miterlimit:2.61310005;stroke-dasharray:none;stroke-opacity:1"
         d="m 506.316,305.637 h 99.4531 v 98.8555 H 506.316 Z" /><path
         id="path128"
         style="fill:none;stroke:#231f20;stroke-width:2.16000009;stroke-linecap:butt;stroke-linejoin:miter;stroke-miterlimit:2.61310005;stroke-dasharray:none;stroke-opacity:1"
         d="m 506.316,206.781 h 99.4531 v 98.8555 H 506.316 Z" /><path
         id="path130"
         style="fill:none;stroke:#231f20;stroke-width:2.16000009;stroke-linecap:butt;stroke-linejoin:miter;stroke-miterlimit:2.61310005;stroke-dasharray:none;stroke-opacity:1"
         d="m 506.316,107.926 h 99.4531 v 98.8555 H 506.316 Z" /><path
         id="path132"
         style="fill:none;stroke:#231f20;stroke-width:2.16000009;stroke-linecap:butt;stroke-linejoin:miter;stroke-miterlimit:2.61310005;stroke-dasharray:none;stroke-opacity:1"
         d="m 506.316,9.07031 h 99.4531 v 98.8555 H 506.316 Z" /><path
         id="path134"
         style="fill:none;stroke:#231f20;stroke-width:2.16000009;stroke-linecap:butt;stroke-linejoin:miter;stroke-miterlimit:2.61310005;stroke-dasharray:none;stroke-opacity:1"
         d="m 605.77,898.77 h 99.457 v 98.8555 H 605.77 Z" /><path
         id="path136"
         style="fill:none;stroke:#231f20;stroke-width:2.16000009;stroke-linecap:butt;stroke-linejoin:miter;stroke-miterlimit:2.61310005;stroke-dasharray:none;stroke-opacity:1"
         d="m 605.77,799.914 h 99.457 v 98.8555 H 605.77 Z" /><path
         id="path138"
         style="fill:none;stroke:#231f20;stroke-width:2.16000009;stroke-linecap:butt;stroke-linejoin:miter;stroke-miterlimit:2.61310005;stroke-dasharray:none;stroke-opacity:1"
         d="m 605.77,701.059 h 99.457 v 98.8555 H 605.77 Z" /><path
         id="path140"
         style="fill:none;stroke:#231f20;stroke-width:2.16000009;stroke-linecap:butt;stroke-linejoin:miter;stroke-miterlimit:2.61310005;stroke-dasharray:none;stroke-opacity:1"
         d="m 605.77,602.203 h 99.457 v 98.8555 H 605.77 Z" /><path
         id="path142"
         style="fill:none;stroke:#231f20;stroke-width:2.16000009;stroke-linecap:butt;stroke-linejoin:miter;stroke-miterlimit:2.61310005;stroke-dasharray:none;stroke-opacity:1"
         d="m 605.77,503.348 h 99.457 v 98.8555 H 605.77 Z" /><path
         id="path144"
         style="fill:none;stroke:#231f20;stroke-width:2.16000009;stroke-linecap:butt;stroke-linejoin:miter;stroke-miterlimit:2.61310005;stroke-dasharray:none;stroke-opacity:1"
         d="m 605.77,404.492 h 99.457 v 98.8555 H 605.77 Z" /><path
         id="path146"
         style="fill:none;stroke:#231f20;stroke-width:2.16000009;stroke-linecap:butt;stroke-linejoin:miter;stroke-miterlimit:2.61310005;stroke-dasharray:none;stroke-opacity:1"
         d="m 605.77,305.637 h 99.457 v 98.8555 H 605.77 Z" /><path
         id="path148"
         style="fill:none;stroke:#231f20;stroke-width:2.16000009;stroke-linecap:butt;stroke-linejoin:miter;stroke-miterlimit:2.61310005;stroke-dasharray:none;stroke-opacity:1"
         d="m 605.77,206.781 h 99.457 v 98.8555 H 605.77 Z" /><path
         id="path150"
         style="fill:none;stroke:#231f20;stroke-width:2.16000009;stroke-linecap:butt;stroke-linejoin:miter;stroke-miterlimit:2.61310005;stroke-dasharray:none;stroke-opacity:1"
         d="m 605.77,107.926 h 99.457 v 98.8555 H 605.77 Z" /><path
         id="path152"
         style="fill:none;stroke:#231f20;stroke-width:2.16000009;stroke-linecap:butt;stroke-linejoin:miter;stroke-miterlimit:2.61310005;stroke-dasharray:none;stroke-opacity:1"
         d="m 605.77,9.07031 h 99.457 v 98.8555 H 605.77 Z" /><path
         id="path154"
         style="fill:none;stroke:#231f20;stroke-width:2.16000009;stroke-linecap:butt;stroke-linejoin:miter;stroke-miterlimit:2.61310005;stroke-dasharray:none;stroke-opacity:1"
         d="m 705.227,898.77 h 99.457 v 98.8555 h -99.457 z" /><path
         id="path156"
         style="fill:none;stroke:#231f20;stroke-width:2.16000009;stroke-linecap:butt;stroke-linejoin:miter;stroke-miterlimit:2.61310005;stroke-dasharray:none;stroke-opacity:1"
         d="m 705.227,799.914 h 99.457 v 98.8555 h -99.457 z" /><path
         id="path158"
         style="fill:none;stroke:#231f20;stroke-width:2.16000009;stroke-linecap:butt;stroke-linejoin:miter;stroke-miterlimit:2.61310005;stroke-dasharray:none;stroke-opacity:1"
         d="m 705.227,701.059 h 99.457 v 98.8555 h -99.457 z" /><path
         id="path160"
         style="fill:none;stroke:#231f20;stroke-width:2.16000009;stroke-linecap:butt;stroke-linejoin:miter;stroke-miterlimit:2.61310005;stroke-dasharray:none;stroke-opacity:1"
         d="m 705.227,602.203 h 99.457 v 98.8555 h -99.457 z" /><path
         id="path162"
         style="fill:none;stroke:#231f20;stroke-width:2.16000009;stroke-linecap:butt;stroke-linejoin:miter;stroke-miterlimit:2.61310005;stroke-dasharray:none;stroke-opacity:1"
         d="m 705.227,503.348 h 99.457 v 98.8555 h -99.457 z" /><path
         id="path164"
         style="fill:none;stroke:#231f20;stroke-width:2.16000009;stroke-linecap:butt;stroke-linejoin:miter;stroke-miterlimit:2.61310005;stroke-dasharray:none;stroke-opacity:1"
         d="m 705.227,404.492 h 99.457 v 98.8555 h -99.457 z" /><path
         id="path166"
         style="fill:none;stroke:#231f20;stroke-width:2.16000009;stroke-linecap:butt;stroke-linejoin:miter;stroke-miterlimit:2.61310005;stroke-dasharray:none;stroke-opacity:1"
         d="m 705.227,305.637 h 99.457 v 98.8555 h -99.457 z" /><path
         id="path168"
         style="fill:none;stroke:#231f20;stroke-width:2.16000009;stroke-linecap:butt;stroke-linejoin:miter;stroke-miterlimit:2.61310005;stroke-dasharray:none;stroke-opacity:1"
         d="m 705.227,206.781 h 99.457 v 98.8555 h -99.457 z" /><path
         id="path170"
         style="fill:none;stroke:#231f20;stroke-width:2.16000009;stroke-linecap:butt;stroke-linejoin:miter;stroke-miterlimit:2.61310005;stroke-dasharray:none;stroke-opacity:1"
         d="m 705.227,107.926 h 99.457 v 98.8555 h -99.457 z" /><path
         id="path172"
         style="fill:none;stroke:#231f20;stroke-width:2.16000009;stroke-linecap:butt;stroke-linejoin:miter;stroke-miterlimit:2.61310005;stroke-dasharray:none;stroke-opacity:1"
         d="m 705.227,9.07031 h 99.457 v 98.8555 h -99.457 z" /><path
         id="path174"
         style="fill:none;stroke:#231f20;stroke-width:2.16000009;stroke-linecap:butt;stroke-linejoin:miter;stroke-miterlimit:2.61310005;stroke-dasharray:none;stroke-opacity:1"
         d="m 804.684,898.77 h 99.457 v 98.8555 h -99.457 z" /><path
         id="path176"
         style="fill:none;stroke:#231f20;stroke-width:2.16000009;stroke-linecap:butt;stroke-linejoin:miter;stroke-miterlimit:2.61310005;stroke-dasharray:none;stroke-opacity:1"
         d="m 804.684,799.914 h 99.457 v 98.8555 h -99.457 z" /><path
         id="path178"
         style="fill:none;stroke:#231f20;stroke-width:2.16000009;stroke-linecap:butt;stroke-linejoin:miter;stroke-miterlimit:2.61310005;stroke-dasharray:none;stroke-opacity:1"
         d="m 804.684,701.059 h 99.457 v 98.8555 h -99.457 z" /><path
         id="path180"
         style="fill:none;stroke:#231f20;stroke-width:2.16000009;stroke-linecap:butt;stroke-linejoin:miter;stroke-miterlimit:2.61310005;stroke-dasharray:none;stroke-opacity:1"
         d="m 804.684,602.203 h 99.457 v 98.8555 h -99.457 z" /><path
         id="path182"
         style="fill:none;stroke:#231f20;stroke-width:2.16000009;stroke-linecap:butt;stroke-linejoin:miter;stroke-miterlimit:2.61310005;stroke-dasharray:none;stroke-opacity:1"
         d="m 804.684,503.348 h 99.457 v 98.8555 h -99.457 z" /><path
         id="path184"
         style="fill:none;stroke:#231f20;stroke-width:2.16000009;stroke-linecap:butt;stroke-linejoin:miter;stroke-miterlimit:2.61310005;stroke-dasharray:none;stroke-opacity:1"
         d="m 804.684,404.492 h 99.457 v 98.8555 h -99.457 z" /><path
         id="path186"
         style="fill:none;stroke:#231f20;stroke-width:2.16000009;stroke-linecap:butt;stroke-linejoin:miter;stroke-miterlimit:2.61310005;stroke-dasharray:none;stroke-opacity:1"
         d="m 804.684,305.637 h 99.457 v 98.8555 h -99.457 z" /><path
         id="path188"
         style="fill:none;stroke:#231f20;stroke-width:2.16000009;stroke-linecap:butt;stroke-linejoin:miter;stroke-miterlimit:2.61310005;stroke-dasharray:none;stroke-opacity:1"
         d="m 804.684,206.781 h 99.457 v 98.8555 h -99.457 z" /><path
         id="path190"
         style="fill:none;stroke:#231f20;stroke-width:2.16000009;stroke-linecap:butt;stroke-linejoin:miter;stroke-miterlimit:2.61310005;stroke-dasharray:none;stroke-opacity:1"
         d="m 804.684,107.926 h 99.457 v 98.8555 h -99.457 z" /><path
         id="path192"
         style="fill:none;stroke:#231f20;stroke-width:2.16000009;stroke-linecap:butt;stroke-linejoin:miter;stroke-miterlimit:2.61310005;stroke-dasharray:none;stroke-opacity:1"
         d="m 804.684,9.07031 h 99.457 v 98.8555 h -99.457 z" /><path
         id="path194"
         style="fill:none;stroke:#231f20;stroke-width:2.16000009;stroke-linecap:butt;stroke-linejoin:miter;stroke-miterlimit:2.61310005;stroke-dasharray:none;stroke-opacity:1"
         d="m 904.141,898.77 h 99.457 v 98.8555 h -99.457 z" /><path
         id="path196"
         style="fill:none;stroke:#231f20;stroke-width:2.16000009;stroke-linecap:butt;stroke-linejoin:miter;stroke-miterlimit:2.61310005;stroke-dasharray:none;stroke-opacity:1"
         d="m 904.141,799.914 h 99.457 v 98.8555 h -99.457 z" /><path
         id="path198"
         style="fill:none;stroke:#231f20;stroke-width:2.16000009;stroke-linecap:butt;stroke-linejoin:miter;stroke-miterlimit:2.61310005;stroke-dasharray:none;stroke-opacity:1"
         d="m 904.141,701.059 h 99.457 v 98.8555 h -99.457 z" /><path
         id="path200"
         style="fill:none;stroke:#231f20;stroke-width:2.16000009;stroke-linecap:butt;stroke-linejoin:miter;stroke-miterlimit:2.61310005;stroke-dasharray:none;stroke-opacity:1"
         d="m 904.141,602.203 h 99.457 v 98.8555 h -99.457 z" /><path
         id="path202"
         style="fill:none;stroke:#231f20;stroke-width:2.16000009;stroke-linecap:butt;stroke-linejoin:miter;stroke-miterlimit:2.61310005;stroke-dasharray:none;stroke-opacity:1"
         d="m 904.141,503.348 h 99.457 v 98.8555 h -99.457 z" /><path
         id="path204"
         style="fill:none;stroke:#231f20;stroke-width:2.16000009;stroke-linecap:butt;stroke-linejoin:miter;stroke-miterlimit:2.61310005;stroke-dasharray:none;stroke-opacity:1"
         d="m 904.141,404.492 h 99.457 v 98.8555 h -99.457 z" /><path
         id="path206"
         style="fill:none;stroke:#231f20;stroke-width:2.16000009;stroke-linecap:butt;stroke-linejoin:miter;stroke-miterlimit:2.61310005;stroke-dasharray:none;stroke-opacity:1"
         d="m 904.141,305.637 h 99.457 v 98.8555 h -99.457 z" /><path
         id="path208"
         style="fill:none;stroke:#231f20;stroke-width:2.16000009;stroke-linecap:butt;stroke-linejoin:miter;stroke-miterlimit:2.61310005;stroke-dasharray:none;stroke-opacity:1"
         d="m 904.141,206.781 h 99.457 v 98.8555 h -99.457 z" /><path
         id="path210"
         style="fill:none;stroke:#231f20;stroke-width:2.16000009;stroke-linecap:butt;stroke-linejoin:miter;stroke-miterlimit:2.61310005;stroke-dasharray:none;stroke-opacity:1"
         d="m 904.141,107.926 h 99.457 v 98.8555 h -99.457 z" /><path
         id="path212"
         style="fill:none;stroke:#231f20;stroke-width:2.16000009;stroke-linecap:butt;stroke-linejoin:miter;stroke-miterlimit:2.61310005;stroke-dasharray:none;stroke-opacity:1"
         d="m 904.141,9.07031 h 99.457 v 98.8555 h -99.457 z" /><path
         id="path214"
         style="fill:none;stroke:#231f20;stroke-width:7.5005002;stroke-linecap:butt;stroke-linejoin:miter;stroke-miterlimit:2.61310005;stroke-dasharray:none;stroke-opacity:1"
         d="M 107.863,503.809 506.371,899.645" /><path
         id="path216"
         style="fill:none;stroke:#231f20;stroke-width:7.5005002;stroke-linecap:butt;stroke-linejoin:miter;stroke-miterlimit:2.61310005;stroke-dasharray:none;stroke-opacity:1"
         d="M 107.875,503.355 605.996,6.97656" /><path
         id="path218"
         style="fill:none;stroke:#231f20;stroke-width:7.5005002;stroke-linecap:butt;stroke-linejoin:miter;stroke-miterlimit:2.61310005;stroke-dasharray:none;stroke-opacity:1"
         d="M 504.262,894.965 607.508,6.95312" /><path
         id="path220"
         style="fill:#231f20;fill-opacity:1;fill-rule:nonzero;stroke:none"
         d="m 86.9805,577.789 c 4.4023,0 8.2812,-0.949 11.6679,-2.848 3.3826,-1.902 6.0466,-4.714 7.9646,-8.449 1.918,-3.719 2.883,-7.586 2.883,-11.601 0,-7.082 -2.066,-14.536 -6.184,-22.332 -4.1167,-7.801 -9.4995,-13.75 -16.1323,-17.848 -6.6485,-4.106 -13.5156,-6.152 -20.6133,-6.152 -5.1016,0 -9.3867,1.132 -12.8203,3.398 -3.4336,2.266 -5.9649,5.25 -7.6172,8.953 -1.6328,3.715 -2.4648,7.313 -2.4648,10.797 0,6.184 1.5,12.301 4.4687,18.332 2.9805,6.035 6.5508,11.082 10.6836,15.133 4.1328,4.051 8.5313,7.168 13.2305,9.351 4.6836,2.184 9.664,3.266 14.9336,3.266 z m -1.668,-3.113 c -3.25,0 -6.4297,-0.805 -9.5313,-2.418 -3.1171,-1.617 -6.1992,-4.25 -9.25,-7.918 -3.0664,-3.649 -5.8164,-8.449 -8.2656,-14.367 -2.9844,-7.297 -4.4844,-14.184 -4.4844,-20.664 0,-4.618 1.1797,-8.719 3.5665,-12.286 2.3671,-3.55 6.0156,-5.332 10.9335,-5.332 2.9649,0 5.8672,0.735 8.7149,2.2 2.8516,1.449 5.8164,3.968 8.918,7.515 3.8671,4.453 7.1171,10.153 9.7656,17.067 2.6328,6.918 3.9492,13.367 3.9492,19.351 0,4.434 -1.1797,8.352 -3.5664,11.75 -2.3828,3.399 -5.9492,5.102 -10.75,5.102" /><path
         id="path222"
         style="fill:#231f20;fill-opacity:1;fill-rule:nonzero;stroke:none"
         d="M 686.445,90.6484 681.41,35.582 c -0.265,-2.5859 -0.383,-4.2695 -0.383,-5.0859 0,-1.2969 0.235,-2.2969 0.735,-2.9805 0.613,-0.9336 1.449,-1.6328 2.5,-2.1015 1.066,-0.4493 2.847,-0.6836 5.347,-0.6836 l -0.531,-1.7969 h -26.066 l 0.531,1.7969 h 1.117 c 2.117,0 3.852,0.4687 5.184,1.3672 0.933,0.6367 1.668,1.6523 2.199,3.0859 0.352,1.0156 0.703,3.3789 1.019,7.1289 l 0.782,8.4023 H 654.895 L 648.16,35.582 c -1.531,-2.0508 -2.484,-3.5351 -2.883,-4.414 -0.382,-0.9024 -0.582,-1.7344 -0.582,-2.5196 0,-1.0507 0.414,-1.9336 1.266,-2.6836 0.851,-0.746 2.25,-1.164 4.199,-1.2343 l -0.531,-1.7969 h -19.586 l 0.535,1.7969 c 2.418,0.1015 4.535,0.9179 6.383,2.4179 1.832,1.5196 4.566,4.75 8.219,9.7032 l 39.547,53.7968 z m -9.668,-16.25 -19.199,-26.1172 h 16.649 l 2.55,26.1172" /><path
         id="path224"
         style="fill:#231f20;fill-opacity:1;fill-rule:nonzero;stroke:none"
         d="m 531.48,975.328 0.684,1.817 h 23.633 c 3.969,0 7.5,-0.618 10.617,-1.868 3.102,-1.234 5.434,-2.949 6.984,-5.168 1.547,-2.214 2.317,-4.566 2.317,-7.035 0,-3.812 -1.383,-7.246 -4.133,-10.332 -2.754,-3.066 -7.234,-5.347 -13.449,-6.801 4.015,-1.496 6.949,-3.48 8.847,-5.964 1.883,-2.465 2.832,-5.184 2.832,-8.149 0,-3.285 -0.847,-6.433 -2.546,-9.433 -1.684,-2.985 -3.868,-5.317 -6.52,-6.965 -2.648,-1.668 -5.848,-2.887 -9.598,-3.668 -2.668,-0.551 -6.836,-0.836 -12.5,-0.836 h -24.265 l 0.633,1.801 c 2.55,0.07 4.265,0.316 5.183,0.734 1.297,0.566 2.231,1.301 2.785,2.199 0.782,1.235 1.813,4.067 3.114,8.5 l 11.867,40.082 c 1.015,3.387 1.515,5.766 1.515,7.137 0,1.199 -0.449,2.148 -1.332,2.848 -0.898,0.699 -2.601,1.05 -5.117,1.05 -0.551,0 -1.066,0.016 -1.551,0.051 z m 9.903,-27.484 c 2.113,-0.067 3.648,-0.102 4.597,-0.102 6.77,0 11.801,1.469 15.118,4.418 3.297,2.949 4.949,6.633 4.949,11.067 0,3.351 -1.016,5.964 -3.035,7.835 -2.016,1.864 -5.231,2.797 -9.664,2.797 -1.164,0 -2.664,-0.183 -4.481,-0.582 z m -9.617,-32.617 c 3.515,-0.465 6.265,-0.684 8.25,-0.684 5.082,0 9.582,1.535 13.5,4.586 3.933,3.066 5.882,7.215 5.882,12.449 0,4 -1.203,7.133 -3.632,9.383 -2.418,2.25 -6.332,3.367 -11.735,3.367 -1.051,0 -2.316,-0.051 -3.816,-0.152 l -8.449,-28.949" /></g></g></svg>