<?xml version="1.0" encoding="UTF-8" standalone="no"?>
<svg
   xmlns:dc="http://purl.org/dc/elements/1.1/"
   xmlns:cc="http://creativecommons.org/ns#"
   xmlns:rdf="http://www.w3.org/1999/02/22-rdf-syntax-ns#"
   xmlns:svg="http://www.w3.org/2000/svg"
   xmlns="http://www.w3.org/2000/svg"
   viewBox="0 0 204 149.33333"
   height="149.33333"
   width="204"
   xml:space="preserve"
   id="svg2"
   version="1.1"><metadata
     id="metadata8"><rdf:RDF><cc:Work
         rdf:about=""><dc:format>image/svg+xml</dc:format><dc:type
           rdf:resource="http://purl.org/dc/dcmitype/StillImage" /></cc:Work></rdf:RDF></metadata><defs
     id="defs6" /><g
     transform="matrix(1.3333333,0,0,-1.3333333,0,149.33333)"
     id="g10"><g
       transform="scale(0.1)"
       id="g12"><path
         id="path14"
         style="fill:#231f20;fill-opacity:1;fill-rule:nonzero;stroke:none"
         d="m 760.484,854.457 16.118,7.867 h 1.617 v -55.918 c 0,-3.699 0.148,-6.015 0.449,-6.933 0.316,-0.899 0.969,-1.602 1.934,-2.098 0.984,-0.488 2.968,-0.766 5.964,-0.836 v -1.801 h -24.914 v 1.801 c 3.133,0.07 5.149,0.336 6.067,0.816 0.902,0.469 1.531,1.102 1.898,1.899 0.352,0.805 0.535,3.184 0.535,7.152 v 35.75 c 0,4.817 -0.168,7.903 -0.484,9.266 -0.23,1.051 -0.648,1.82 -1.25,2.301 -0.602,0.484 -1.316,0.734 -2.164,0.734 -1.203,0 -2.883,-0.504 -5.035,-1.516 l -0.735,1.516" /><path
         id="path16"
         style="fill:#231f20;fill-opacity:1;fill-rule:nonzero;stroke:none"
         d="m 802.387,827.457 c 0,7.547 1.133,14.047 3.414,19.5 2.285,5.449 5.301,9.516 9.086,12.184 2.929,2.117 5.949,3.183 9.082,3.183 5.066,0 9.633,-2.601 13.664,-7.769 5.051,-6.418 7.57,-15.098 7.57,-26.082 0,-7.684 -1.101,-14.2 -3.316,-19.567 -2.219,-5.383 -5.035,-9.281 -8.469,-11.699 -3.434,-2.434 -6.75,-3.637 -9.949,-3.637 -6.301,0 -11.567,3.723 -15.766,11.188 -3.551,6.281 -5.316,13.847 -5.316,22.699 z m 9.566,-1.215 c 0,-9.121 1.117,-16.57 3.367,-22.316 1.848,-4.852 4.633,-7.285 8.301,-7.285 1.766,0 3.582,0.8 5.465,2.367 1.898,1.582 3.332,4.234 4.297,7.933 1.5,5.598 2.254,13.497 2.254,23.684 0,7.547 -0.785,13.848 -2.352,18.895 -1.168,3.753 -2.683,6.402 -4.531,7.968 -1.336,1.067 -2.953,1.602 -4.836,1.602 -2.219,0 -4.184,-0.985 -5.918,-2.965 -2.332,-2.703 -3.93,-6.953 -4.781,-12.75 -0.852,-5.801 -1.266,-11.5 -1.266,-17.133" /><path
         id="path18"
         style="fill:none;stroke:#231f20;stroke-width:7.5005002;stroke-linecap:butt;stroke-linejoin:miter;stroke-miterlimit:2.61310005;stroke-dasharray:none;stroke-opacity:1"
         d="M 215.742,909.988 H 1317.48" /><path
         id="path20"
         style="fill:none;stroke:#231f20;stroke-width:7.5005002;stroke-linecap:butt;stroke-linejoin:miter;stroke-miterlimit:2.61310005;stroke-dasharray:none;stroke-opacity:1"
         d="M 221.566,210.855 H 413.43" /><path
         id="path22"
         style="fill:none;stroke:#231f20;stroke-width:7.5005002;stroke-linecap:butt;stroke-linejoin:miter;stroke-miterlimit:2.61310005;stroke-dasharray:none;stroke-opacity:1"
         d="M 216.785,209.176 V 914.754" /><path
         id="path24"
         style="fill:#231f20;fill-opacity:1;fill-rule:nonzero;stroke:none"
         d="m 315.656,993.633 -4.633,-12.75 h -39.066 v 1.801 c 11.484,10.48 19.582,19.046 24.266,25.686 4.683,6.65 7.031,12.71 7.031,18.21 0,4.2 -1.281,7.65 -3.863,10.35 -2.567,2.7 -5.633,4.05 -9.215,4.05 -3.266,0 -6.184,-0.95 -8.77,-2.85 -2.582,-1.9 -4.5,-4.7 -5.73,-8.36 h -1.817 c 0.817,6.01 2.899,10.63 6.282,13.86 3.367,3.22 7.566,4.83 12.617,4.83 5.367,0 9.847,-1.73 13.449,-5.18 3.598,-3.45 5.398,-7.51 5.398,-12.2 0,-3.35 -0.781,-6.71 -2.347,-10.06 -2.403,-5.27 -6.317,-10.85 -11.719,-16.75 -8.098,-8.856 -13.164,-14.188 -15.184,-16.02 h 17.286 c 3.515,0 5.98,0.133 7.398,0.398 1.418,0.25 2.703,0.782 3.832,1.582 1.137,0.801 2.137,1.938 2.984,3.403 h 1.801" /><path
         id="path26"
         style="fill:none;stroke:#231f20;stroke-width:7.5005002;stroke-linecap:butt;stroke-linejoin:miter;stroke-miterlimit:2.61310005;stroke-dasharray:none;stroke-opacity:1"
         d="M 216.227,210.855 H 408.09" /><path
         id="path28"
         style="fill:none;stroke:#231f20;stroke-width:7.5005002;stroke-linecap:butt;stroke-linejoin:miter;stroke-miterlimit:2.61310005;stroke-dasharray:none;stroke-opacity:1"
         d="M 1316.38,204.902 V 910.48" /><path
         id="path30"
         style="fill:none;stroke:#231f20;stroke-width:7.5005002;stroke-linecap:butt;stroke-linejoin:miter;stroke-miterlimit:2.61310005;stroke-dasharray:none;stroke-opacity:1"
         d="m 1122.81,206.047 h 191.87" /><path
         id="path32"
         style="fill:none;stroke:#231f20;stroke-width:7.5005002;stroke-linecap:butt;stroke-linejoin:miter;stroke-miterlimit:2.61310005;stroke-dasharray:none;stroke-opacity:1"
         d="M 413.07,210.781 V 514.984" /><path
         id="path34"
         style="fill:none;stroke:#231f20;stroke-width:7.5005002;stroke-linecap:butt;stroke-linejoin:miter;stroke-miterlimit:2.61310005;stroke-dasharray:none;stroke-opacity:1"
         d="M 1123.84,205.441 V 509.645" /><path
         id="path36"
         style="fill:none;stroke:#231f20;stroke-width:7.5005002;stroke-linecap:butt;stroke-linejoin:miter;stroke-miterlimit:2.61310005;stroke-dasharray:none;stroke-opacity:1"
         d="m 413.43,513.145 h 711.25" /><path
         id="path38"
         style="fill:none;stroke:#231f20;stroke-width:7.5005002;stroke-linecap:butt;stroke-linejoin:miter;stroke-miterlimit:2.61310005;stroke-dasharray:37.5025, 22.5015;stroke-dashoffset:0;stroke-opacity:1"
         d="M 11.125,12.0859 V 1111.08" /><path
         id="path40"
         style="fill:none;stroke:#231f20;stroke-width:7.5005002;stroke-linecap:butt;stroke-linejoin:miter;stroke-miterlimit:2.61310005;stroke-dasharray:37.5025, 22.5015;stroke-dashoffset:0;stroke-opacity:1"
         d="M 1513.91,12.0859 V 1111.08" /><path
         id="path42"
         style="fill:none;stroke:#231f20;stroke-width:7.5005002;stroke-linecap:butt;stroke-linejoin:miter;stroke-miterlimit:2.61310005;stroke-dasharray:37.5025, 22.5015;stroke-dashoffset:0;stroke-opacity:1"
         d="M 14.3672,1109.22 H 1516.71" /><path
         id="path44"
         style="fill:none;stroke:#231f20;stroke-width:7.5005002;stroke-linecap:butt;stroke-linejoin:miter;stroke-miterlimit:2.61310005;stroke-dasharray:37.5025, 22.5015;stroke-dashoffset:0;stroke-opacity:1"
         d="M 14.3672,12.3672 H 1516.71" /><path
         id="path46"
         style="fill:none;stroke:#231f20;stroke-width:5.00029993;stroke-linecap:butt;stroke-linejoin:miter;stroke-miterlimit:2.61310005;stroke-dasharray:none;stroke-opacity:1"
         d="M 259.488,765.988 H 1273.73" /><path
         id="path48"
         style="fill:#231f20;fill-opacity:1;fill-rule:evenodd;stroke:none"
         d="m 263.641,792.336 -47.899,-26.348 47.899,-26.347 v 52.695" /><path
         id="path50"
         style="fill:#231f20;fill-opacity:1;fill-rule:evenodd;stroke:none"
         d="m 1269.58,792.336 47.9,-26.348 -47.9,-26.347 v 52.695" /><path
         id="path52"
         style="fill:none;stroke:#231f20;stroke-width:5.00029993;stroke-linecap:butt;stroke-linejoin:miter;stroke-miterlimit:2.61310005;stroke-dasharray:none;stroke-opacity:1"
         d="M 360.785,252.922 V 871.008" /><path
         id="path54"
         style="fill:#231f20;fill-opacity:1;fill-rule:evenodd;stroke:none"
         d="m 334.438,257.074 26.347,-47.898 26.348,47.898 h -52.695" /><path
         id="path56"
         style="fill:#231f20;fill-opacity:1;fill-rule:evenodd;stroke:none"
         d="m 334.438,866.852 26.347,47.902 26.348,-47.902 h -52.695" /><path
         id="path58"
         style="fill:none;stroke:#231f20;stroke-width:5.00029993;stroke-linecap:butt;stroke-linejoin:miter;stroke-miterlimit:2.61310005;stroke-dasharray:none;stroke-opacity:1"
         d="M 1237.02,58.8711 V 163.867" /><path
         id="path60"
         style="fill:#231f20;fill-opacity:1;fill-rule:evenodd;stroke:none"
         d="m 1210.67,63.0234 26.35,-47.8984 26.35,47.8984 h -52.7" /><path
         id="path62"
         style="fill:#231f20;fill-opacity:1;fill-rule:evenodd;stroke:none"
         d="m 1210.67,159.715 26.35,47.898 26.35,-47.898 h -52.7" /><path
         id="path64"
         style="fill:none;stroke:#231f20;stroke-width:5.00029993;stroke-linecap:butt;stroke-linejoin:miter;stroke-miterlimit:2.61310005;stroke-dasharray:none;stroke-opacity:1"
         d="M 360.719,959.348 V 1064.34" /><path
         id="path66"
         style="fill:#231f20;fill-opacity:1;fill-rule:evenodd;stroke:none"
         d="m 334.367,963.5 26.352,-47.898 26.347,47.898 h -52.699" /><path
         id="path68"
         style="fill:#231f20;fill-opacity:1;fill-rule:evenodd;stroke:none"
         d="m 334.367,1060.19 26.352,47.9 26.347,-47.9 h -52.699" /><path
         id="path70"
         style="fill:none;stroke:#231f20;stroke-width:5.00029993;stroke-linecap:butt;stroke-linejoin:miter;stroke-miterlimit:2.61310005;stroke-dasharray:none;stroke-opacity:1"
         d="M 50.9883,294.598 H 169.703" /><path
         id="path72"
         style="fill:#231f20;fill-opacity:1;fill-rule:evenodd;stroke:none"
         d="M 55.1406,320.945 7.24219,294.598 55.1406,268.25 v 52.695" /><path
         id="path74"
         style="fill:#231f20;fill-opacity:1;fill-rule:evenodd;stroke:none"
         d="m 165.551,320.945 47.898,-26.347 -47.898,-26.348 v 52.695" /><path
         id="path76"
         style="fill:#231f20;fill-opacity:1;fill-rule:nonzero;stroke:none"
         d="m 127.43,334.84 -4.633,-12.75 H 83.7305 v 1.801 c 11.4843,10.484 19.5815,19.05 24.2655,25.683 4.684,6.653 7.035,12.719 7.035,18.215 0,4.203 -1.281,7.652 -3.867,10.352 -2.566,2.699 -5.633,4.05 -9.215,4.05 -3.2654,0 -6.1834,-0.949 -8.7693,-2.851 -2.582,-1.902 -4.4961,-4.699 -5.7305,-8.367 h -1.8164 c 0.8164,6.019 2.8984,10.632 6.2813,13.867 3.3671,3.219 7.5664,4.832 12.6169,4.832 5.367,0 9.848,-1.731 13.449,-5.184 3.602,-3.449 5.399,-7.515 5.399,-12.195 0,-3.352 -0.781,-6.719 -2.348,-10.07 -2.402,-5.266 -6.316,-10.848 -11.715,-16.75 -8.101,-8.848 -13.1676,-14.18 -15.1871,-16.016 h 17.2851 c 3.516,0 5.981,0.133 7.398,0.402 1.418,0.246 2.704,0.782 3.833,1.582 1.136,0.801 2.136,1.934 2.984,3.399 h 1.801" /><path
         id="path78"
         style="fill:#231f20;fill-opacity:1;fill-rule:nonzero;stroke:none"
         d="m 1217.32,95.0039 -4.63,-12.75 h -39.07 v 1.8008 c 11.49,10.4805 19.58,19.0473 24.27,25.6833 4.68,6.653 7.03,12.715 7.03,18.215 0,4.203 -1.28,7.652 -3.87,10.352 -2.56,2.699 -5.63,4.05 -9.21,4.05 -3.27,0 -6.18,-0.953 -8.77,-2.851 -2.58,-1.902 -4.5,-4.699 -5.73,-8.367 h -1.82 c 0.82,6.019 2.9,10.633 6.28,13.867 3.37,3.219 7.57,4.832 12.62,4.832 5.37,0 9.85,-1.731 13.45,-5.184 3.6,-3.449 5.4,-7.515 5.4,-12.195 0,-3.352 -0.78,-6.719 -2.35,-10.07 -2.4,-5.266 -6.31,-10.848 -11.72,-16.75 -8.09,-8.8479 -13.16,-14.18 -15.18,-16.0159 h 17.28 c 3.52,0 5.99,0.1328 7.4,0.3984 1.42,0.25 2.71,0.7852 3.84,1.5821 1.13,0.8046 2.13,1.9375 2.98,3.4023 h 1.8" /><path
         id="path80"
         style="fill:none;stroke:#231f20;stroke-width:5.00029993;stroke-linecap:butt;stroke-linejoin:miter;stroke-miterlimit:2.61310005;stroke-dasharray:none;stroke-opacity:1"
         d="m 1362.5,315.848 h 118.71" /><path
         id="path82"
         style="fill:#231f20;fill-opacity:1;fill-rule:evenodd;stroke:none"
         d="m 1366.65,342.195 -47.9,-26.347 47.9,-26.348 v 52.695" /><path
         id="path84"
         style="fill:#231f20;fill-opacity:1;fill-rule:evenodd;stroke:none"
         d="m 1477.06,342.195 47.9,-26.347 -47.9,-26.348 v 52.695" /><path
         id="path86"
         style="fill:#231f20;fill-opacity:1;fill-rule:nonzero;stroke:none"
         d="m 1438.94,356.094 -4.63,-12.75 h -39.07 v 1.797 c 11.49,10.484 19.58,19.05 24.27,25.687 4.68,6.649 7.03,12.715 7.03,18.215 0,4.199 -1.28,7.648 -3.86,10.348 -2.57,2.703 -5.64,4.05 -9.22,4.05 -3.26,0 -6.18,-0.949 -8.77,-2.847 -2.58,-1.903 -4.5,-4.699 -5.73,-8.367 h -1.82 c 0.82,6.015 2.9,10.632 6.29,13.867 3.36,3.215 7.56,4.832 12.61,4.832 5.37,0 9.85,-1.735 13.45,-5.184 3.6,-3.453 5.4,-7.515 5.4,-12.199 0,-3.352 -0.78,-6.719 -2.35,-10.066 -2.4,-5.27 -6.31,-10.852 -11.72,-16.75 -8.09,-8.852 -13.16,-14.184 -15.18,-16.016 h 17.29 c 3.51,0 5.98,0.133 7.39,0.398 1.42,0.25 2.71,0.782 3.84,1.582 1.13,0.801 2.13,1.934 2.98,3.403 h 1.8" /><path
         id="path88"
         style="fill:#231f20;fill-opacity:1;fill-rule:nonzero;stroke:none"
         d="m 335.875,583.973 v -1.817 c -4.285,-0.418 -7.801,-1.269 -10.52,-2.566 -2.714,-1.285 -5.398,-3.235 -8.046,-5.887 -2.649,-2.633 -4.852,-5.566 -6.602,-8.797 -1.73,-3.25 -3.199,-7.101 -4.363,-11.551 4.683,3.215 9.383,4.833 14.117,4.833 4.512,0 8.449,-1.833 11.766,-5.465 3.316,-3.653 4.98,-8.332 4.98,-14.067 0,-5.535 -1.684,-10.582 -5.031,-15.136 -4.035,-5.532 -9.383,-8.297 -16.016,-8.297 -4.535,0 -8.367,1.5 -11.535,4.484 -6.184,5.832 -9.266,13.379 -9.266,22.664 0,5.918 1.18,11.551 3.567,16.887 2.367,5.347 5.765,10.082 10.183,14.215 4.399,4.132 8.633,6.914 12.664,8.351 4.036,1.43 7.801,2.149 11.286,2.149 z m -30.367,-34.184 c -0.582,-4.398 -0.883,-7.949 -0.883,-10.648 0,-3.121 0.582,-6.52 1.734,-10.188 1.164,-3.648 2.883,-6.562 5.164,-8.715 1.653,-1.515 3.668,-2.281 6.055,-2.281 2.828,0 5.363,1.332 7.582,4 2.231,2.668 3.348,6.481 3.348,11.43 0,5.57 -1.098,10.383 -3.317,14.453 -2.214,4.066 -5.351,6.098 -9.433,6.098 -1.231,0 -2.551,-0.266 -3.969,-0.782 -1.414,-0.519 -3.512,-1.652 -6.281,-3.367" /></g></g></svg>