<?xml version="1.0" encoding="UTF-8" standalone="no"?>
<svg
   xmlns:dc="http://purl.org/dc/elements/1.1/"
   xmlns:cc="http://creativecommons.org/ns#"
   xmlns:rdf="http://www.w3.org/1999/02/22-rdf-syntax-ns#"
   xmlns:svg="http://www.w3.org/2000/svg"
   xmlns="http://www.w3.org/2000/svg"
   viewBox="0 0 116 116"
   height="116"
   width="116"
   xml:space="preserve"
   id="svg2"
   version="1.1"><metadata
     id="metadata8"><rdf:RDF><cc:Work
         rdf:about=""><dc:format>image/svg+xml</dc:format><dc:type
           rdf:resource="http://purl.org/dc/dcmitype/StillImage" /></cc:Work></rdf:RDF></metadata><defs
     id="defs6" /><g
     transform="matrix(1.3333333,0,0,-1.3333333,0,116)"
     id="g10"><g
       transform="scale(0.1)"
       id="g12"><path
         id="path14"
         style="fill:#231f20;fill-opacity:1;fill-rule:nonzero;stroke:none"
         d="m 147.137,88.1328 c 4.402,0 8.285,-0.9531 11.668,-2.8516 3.383,-1.9023 6.05,-4.7148 7.968,-8.4492 1.915,-3.7148 2.883,-7.5859 2.883,-11.6015 0,-7.0821 -2.066,-14.5313 -6.187,-22.3321 -4.114,-7.8007 -9.496,-13.75 -16.129,-17.8476 -6.652,-4.1016 -13.52,-6.1524 -20.617,-6.1524 -5.098,0 -9.387,1.1328 -12.817,3.3985 -3.433,2.2695 -5.968,5.25 -7.617,8.9531 -1.633,3.7148 -2.469,7.3164 -2.469,10.8008 0,6.1797 1.5,12.2969 4.469,18.3281 2.981,6.0352 6.551,11.0859 10.684,15.1367 4.132,4.0508 8.531,7.1641 13.23,9.3516 4.684,2.1797 9.668,3.2656 14.934,3.2656 z m -1.664,-3.1172 c -3.25,0 -6.434,-0.8008 -9.535,-2.4179 -3.114,-1.6172 -6.2,-4.25 -9.25,-7.918 -3.067,-3.6485 -5.817,-8.4492 -8.266,-14.3633 -2.984,-7.3008 -4.484,-14.1875 -4.484,-20.668 0,-4.6172 1.183,-8.7148 3.566,-12.2812 2.367,-3.5547 6.019,-5.336 10.934,-5.336 2.968,0 5.867,0.7344 8.714,2.1993 2.852,1.4531 5.821,3.9687 8.918,7.5195 3.868,4.4492 7.121,10.1484 9.766,17.0664 2.633,6.9141 3.953,13.3633 3.953,19.3477 0,4.4336 -1.184,8.3515 -3.566,11.75 -2.383,3.4023 -5.95,5.1015 -10.75,5.1015" /><path
         id="path16"
         style="fill:none;stroke:#231f20;stroke-width:2.16000009;stroke-linecap:butt;stroke-linejoin:miter;stroke-miterlimit:2.61310005;stroke-dasharray:none;stroke-opacity:1"
         d="m 10.2695,776.547 h 85.4297 v 85.0742 H 10.2695 Z" /><path
         id="path18"
         style="fill:none;stroke:#231f20;stroke-width:2.16000009;stroke-linecap:butt;stroke-linejoin:miter;stroke-miterlimit:2.61310005;stroke-dasharray:none;stroke-opacity:1"
         d="m 10.2695,691.473 h 85.4297 v 85.0742 H 10.2695 Z" /><path
         id="path20"
         style="fill:none;stroke:#231f20;stroke-width:2.16000009;stroke-linecap:butt;stroke-linejoin:miter;stroke-miterlimit:2.61310005;stroke-dasharray:none;stroke-opacity:1"
         d="m 10.2695,606.398 h 85.4297 v 85.0742 H 10.2695 Z" /><path
         id="path22"
         style="fill:none;stroke:#231f20;stroke-width:2.16000009;stroke-linecap:butt;stroke-linejoin:miter;stroke-miterlimit:2.61310005;stroke-dasharray:none;stroke-opacity:1"
         d="m 10.2695,521.324 h 85.4297 v 85.0742 H 10.2695 Z" /><path
         id="path24"
         style="fill:none;stroke:#231f20;stroke-width:2.16000009;stroke-linecap:butt;stroke-linejoin:miter;stroke-miterlimit:2.61310005;stroke-dasharray:none;stroke-opacity:1"
         d="m 10.2695,436.254 h 85.4297 v 85.0703 H 10.2695 Z" /><path
         id="path26"
         style="fill:none;stroke:#231f20;stroke-width:2.16000009;stroke-linecap:butt;stroke-linejoin:miter;stroke-miterlimit:2.61310005;stroke-dasharray:none;stroke-opacity:1"
         d="m 10.2695,351.18 h 85.4297 v 85.0742 H 10.2695 Z" /><path
         id="path28"
         style="fill:none;stroke:#231f20;stroke-width:2.16000009;stroke-linecap:butt;stroke-linejoin:miter;stroke-miterlimit:2.61310005;stroke-dasharray:none;stroke-opacity:1"
         d="m 10.2695,266.105 h 85.4297 v 85.0742 H 10.2695 Z" /><path
         id="path30"
         style="fill:none;stroke:#231f20;stroke-width:2.16000009;stroke-linecap:butt;stroke-linejoin:miter;stroke-miterlimit:2.61310005;stroke-dasharray:none;stroke-opacity:1"
         d="m 10.2695,181.031 h 85.4297 v 85.0742 H 10.2695 Z" /><path
         id="path32"
         style="fill:none;stroke:#231f20;stroke-width:2.16000009;stroke-linecap:butt;stroke-linejoin:miter;stroke-miterlimit:2.61310005;stroke-dasharray:none;stroke-opacity:1"
         d="m 10.2695,95.957 h 85.4297 v 85.0742 H 10.2695 Z" /><path
         id="path34"
         style="fill:none;stroke:#231f20;stroke-width:2.16000009;stroke-linecap:butt;stroke-linejoin:miter;stroke-miterlimit:2.61310005;stroke-dasharray:none;stroke-opacity:1"
         d="M 10.2695,10.8867 H 95.6992 V 95.957 H 10.2695 Z" /><path
         id="path36"
         style="fill:none;stroke:#231f20;stroke-width:2.16000009;stroke-linecap:butt;stroke-linejoin:miter;stroke-miterlimit:2.61310005;stroke-dasharray:none;stroke-opacity:1"
         d="m 95.6992,776.547 h 85.4297 v 85.0742 H 95.6992 Z" /><path
         id="path38"
         style="fill:none;stroke:#231f20;stroke-width:2.16000009;stroke-linecap:butt;stroke-linejoin:miter;stroke-miterlimit:2.61310005;stroke-dasharray:none;stroke-opacity:1"
         d="m 95.6992,691.473 h 85.4297 v 85.0742 H 95.6992 Z" /><path
         id="path40"
         style="fill:none;stroke:#231f20;stroke-width:2.16000009;stroke-linecap:butt;stroke-linejoin:miter;stroke-miterlimit:2.61310005;stroke-dasharray:none;stroke-opacity:1"
         d="m 95.6992,606.398 h 85.4297 v 85.0742 H 95.6992 Z" /><path
         id="path42"
         style="fill:none;stroke:#231f20;stroke-width:2.16000009;stroke-linecap:butt;stroke-linejoin:miter;stroke-miterlimit:2.61310005;stroke-dasharray:none;stroke-opacity:1"
         d="m 95.6992,521.324 h 85.4297 v 85.0742 H 95.6992 Z" /><path
         id="path44"
         style="fill:none;stroke:#231f20;stroke-width:2.16000009;stroke-linecap:butt;stroke-linejoin:miter;stroke-miterlimit:2.61310005;stroke-dasharray:none;stroke-opacity:1"
         d="m 95.6992,436.254 h 85.4297 v 85.0703 H 95.6992 Z" /><path
         id="path46"
         style="fill:none;stroke:#231f20;stroke-width:2.16000009;stroke-linecap:butt;stroke-linejoin:miter;stroke-miterlimit:2.61310005;stroke-dasharray:none;stroke-opacity:1"
         d="m 95.6992,351.18 h 85.4297 v 85.0742 H 95.6992 Z" /><path
         id="path48"
         style="fill:none;stroke:#231f20;stroke-width:2.16000009;stroke-linecap:butt;stroke-linejoin:miter;stroke-miterlimit:2.61310005;stroke-dasharray:none;stroke-opacity:1"
         d="m 95.6992,266.105 h 85.4297 v 85.0742 H 95.6992 Z" /><path
         id="path50"
         style="fill:none;stroke:#231f20;stroke-width:2.16000009;stroke-linecap:butt;stroke-linejoin:miter;stroke-miterlimit:2.61310005;stroke-dasharray:none;stroke-opacity:1"
         d="m 95.6992,181.031 h 85.4297 v 85.0742 H 95.6992 Z" /><path
         id="path52"
         style="fill:none;stroke:#231f20;stroke-width:2.16000009;stroke-linecap:butt;stroke-linejoin:miter;stroke-miterlimit:2.61310005;stroke-dasharray:none;stroke-opacity:1"
         d="m 95.6992,95.957 h 85.4297 v 85.0742 H 95.6992 Z" /><path
         id="path54"
         style="fill:none;stroke:#231f20;stroke-width:2.16000009;stroke-linecap:butt;stroke-linejoin:miter;stroke-miterlimit:2.61310005;stroke-dasharray:none;stroke-opacity:1"
         d="m 95.6992,10.8867 h 85.4297 V 95.957 H 95.6992 Z" /><path
         id="path56"
         style="fill:none;stroke:#231f20;stroke-width:2.16000009;stroke-linecap:butt;stroke-linejoin:miter;stroke-miterlimit:2.61310005;stroke-dasharray:none;stroke-opacity:1"
         d="m 181.129,776.547 h 85.4297 v 85.0742 H 181.129 Z" /><path
         id="path58"
         style="fill:none;stroke:#231f20;stroke-width:2.16000009;stroke-linecap:butt;stroke-linejoin:miter;stroke-miterlimit:2.61310005;stroke-dasharray:none;stroke-opacity:1"
         d="m 181.129,691.473 h 85.4297 v 85.0742 H 181.129 Z" /><path
         id="path60"
         style="fill:none;stroke:#231f20;stroke-width:2.16000009;stroke-linecap:butt;stroke-linejoin:miter;stroke-miterlimit:2.61310005;stroke-dasharray:none;stroke-opacity:1"
         d="m 181.129,606.398 h 85.4297 v 85.0742 H 181.129 Z" /><path
         id="path62"
         style="fill:none;stroke:#231f20;stroke-width:2.16000009;stroke-linecap:butt;stroke-linejoin:miter;stroke-miterlimit:2.61310005;stroke-dasharray:none;stroke-opacity:1"
         d="m 181.129,521.324 h 85.4297 v 85.0742 H 181.129 Z" /><path
         id="path64"
         style="fill:none;stroke:#231f20;stroke-width:2.16000009;stroke-linecap:butt;stroke-linejoin:miter;stroke-miterlimit:2.61310005;stroke-dasharray:none;stroke-opacity:1"
         d="m 181.129,436.254 h 85.4297 v 85.0703 H 181.129 Z" /><path
         id="path66"
         style="fill:none;stroke:#231f20;stroke-width:2.16000009;stroke-linecap:butt;stroke-linejoin:miter;stroke-miterlimit:2.61310005;stroke-dasharray:none;stroke-opacity:1"
         d="m 181.129,351.18 h 85.4297 v 85.0742 H 181.129 Z" /><path
         id="path68"
         style="fill:none;stroke:#231f20;stroke-width:2.16000009;stroke-linecap:butt;stroke-linejoin:miter;stroke-miterlimit:2.61310005;stroke-dasharray:none;stroke-opacity:1"
         d="m 181.129,266.105 h 85.4297 v 85.0742 H 181.129 Z" /><path
         id="path70"
         style="fill:none;stroke:#231f20;stroke-width:2.16000009;stroke-linecap:butt;stroke-linejoin:miter;stroke-miterlimit:2.61310005;stroke-dasharray:none;stroke-opacity:1"
         d="m 181.129,181.031 h 85.4297 v 85.0742 H 181.129 Z" /><path
         id="path72"
         style="fill:none;stroke:#231f20;stroke-width:2.16000009;stroke-linecap:butt;stroke-linejoin:miter;stroke-miterlimit:2.61310005;stroke-dasharray:none;stroke-opacity:1"
         d="m 181.129,95.957 h 85.4297 v 85.0742 H 181.129 Z" /><path
         id="path74"
         style="fill:none;stroke:#231f20;stroke-width:2.16000009;stroke-linecap:butt;stroke-linejoin:miter;stroke-miterlimit:2.61310005;stroke-dasharray:none;stroke-opacity:1"
         d="m 181.129,10.8867 h 85.4297 V 95.957 H 181.129 Z" /><path
         id="path76"
         style="fill:none;stroke:#231f20;stroke-width:2.16000009;stroke-linecap:butt;stroke-linejoin:miter;stroke-miterlimit:2.61310005;stroke-dasharray:none;stroke-opacity:1"
         d="m 266.559,776.547 h 85.4336 v 85.0742 H 266.559 Z" /><path
         id="path78"
         style="fill:none;stroke:#231f20;stroke-width:2.16000009;stroke-linecap:butt;stroke-linejoin:miter;stroke-miterlimit:2.61310005;stroke-dasharray:none;stroke-opacity:1"
         d="m 266.559,691.473 h 85.4336 v 85.0742 H 266.559 Z" /><path
         id="path80"
         style="fill:none;stroke:#231f20;stroke-width:2.16000009;stroke-linecap:butt;stroke-linejoin:miter;stroke-miterlimit:2.61310005;stroke-dasharray:none;stroke-opacity:1"
         d="m 266.559,606.398 h 85.4336 v 85.0742 H 266.559 Z" /><path
         id="path82"
         style="fill:none;stroke:#231f20;stroke-width:2.16000009;stroke-linecap:butt;stroke-linejoin:miter;stroke-miterlimit:2.61310005;stroke-dasharray:none;stroke-opacity:1"
         d="m 266.559,521.324 h 85.4336 v 85.0742 H 266.559 Z" /><path
         id="path84"
         style="fill:none;stroke:#231f20;stroke-width:2.16000009;stroke-linecap:butt;stroke-linejoin:miter;stroke-miterlimit:2.61310005;stroke-dasharray:none;stroke-opacity:1"
         d="m 266.559,436.254 h 85.4336 v 85.0703 H 266.559 Z" /><path
         id="path86"
         style="fill:none;stroke:#231f20;stroke-width:2.16000009;stroke-linecap:butt;stroke-linejoin:miter;stroke-miterlimit:2.61310005;stroke-dasharray:none;stroke-opacity:1"
         d="m 266.559,351.18 h 85.4336 v 85.0742 H 266.559 Z" /><path
         id="path88"
         style="fill:none;stroke:#231f20;stroke-width:2.16000009;stroke-linecap:butt;stroke-linejoin:miter;stroke-miterlimit:2.61310005;stroke-dasharray:none;stroke-opacity:1"
         d="m 266.559,266.105 h 85.4336 v 85.0742 H 266.559 Z" /><path
         id="path90"
         style="fill:none;stroke:#231f20;stroke-width:2.16000009;stroke-linecap:butt;stroke-linejoin:miter;stroke-miterlimit:2.61310005;stroke-dasharray:none;stroke-opacity:1"
         d="m 266.559,181.031 h 85.4336 v 85.0742 H 266.559 Z" /><path
         id="path92"
         style="fill:none;stroke:#231f20;stroke-width:2.16000009;stroke-linecap:butt;stroke-linejoin:miter;stroke-miterlimit:2.61310005;stroke-dasharray:none;stroke-opacity:1"
         d="m 266.559,95.957 h 85.4336 v 85.0742 H 266.559 Z" /><path
         id="path94"
         style="fill:none;stroke:#231f20;stroke-width:2.16000009;stroke-linecap:butt;stroke-linejoin:miter;stroke-miterlimit:2.61310005;stroke-dasharray:none;stroke-opacity:1"
         d="m 266.559,10.8867 h 85.4336 V 95.957 H 266.559 Z" /><path
         id="path96"
         style="fill:none;stroke:#231f20;stroke-width:2.16000009;stroke-linecap:butt;stroke-linejoin:miter;stroke-miterlimit:2.61310005;stroke-dasharray:none;stroke-opacity:1"
         d="m 351.992,776.547 h 85.4297 v 85.0742 H 351.992 Z" /><path
         id="path98"
         style="fill:none;stroke:#231f20;stroke-width:2.16000009;stroke-linecap:butt;stroke-linejoin:miter;stroke-miterlimit:2.61310005;stroke-dasharray:none;stroke-opacity:1"
         d="m 351.992,691.473 h 85.4297 v 85.0742 H 351.992 Z" /><path
         id="path100"
         style="fill:none;stroke:#231f20;stroke-width:2.16000009;stroke-linecap:butt;stroke-linejoin:miter;stroke-miterlimit:2.61310005;stroke-dasharray:none;stroke-opacity:1"
         d="m 351.992,606.398 h 85.4297 v 85.0742 H 351.992 Z" /><path
         id="path102"
         style="fill:none;stroke:#231f20;stroke-width:2.16000009;stroke-linecap:butt;stroke-linejoin:miter;stroke-miterlimit:2.61310005;stroke-dasharray:none;stroke-opacity:1"
         d="m 351.992,521.324 h 85.4297 v 85.0742 H 351.992 Z" /><path
         id="path104"
         style="fill:none;stroke:#231f20;stroke-width:2.16000009;stroke-linecap:butt;stroke-linejoin:miter;stroke-miterlimit:2.61310005;stroke-dasharray:none;stroke-opacity:1"
         d="m 351.992,436.254 h 85.4297 v 85.0703 H 351.992 Z" /><path
         id="path106"
         style="fill:none;stroke:#231f20;stroke-width:2.16000009;stroke-linecap:butt;stroke-linejoin:miter;stroke-miterlimit:2.61310005;stroke-dasharray:none;stroke-opacity:1"
         d="m 351.992,351.18 h 85.4297 v 85.0742 H 351.992 Z" /><path
         id="path108"
         style="fill:none;stroke:#231f20;stroke-width:2.16000009;stroke-linecap:butt;stroke-linejoin:miter;stroke-miterlimit:2.61310005;stroke-dasharray:none;stroke-opacity:1"
         d="m 351.992,266.105 h 85.4297 v 85.0742 H 351.992 Z" /><path
         id="path110"
         style="fill:none;stroke:#231f20;stroke-width:2.16000009;stroke-linecap:butt;stroke-linejoin:miter;stroke-miterlimit:2.61310005;stroke-dasharray:none;stroke-opacity:1"
         d="m 351.992,181.031 h 85.4297 v 85.0742 H 351.992 Z" /><path
         id="path112"
         style="fill:none;stroke:#231f20;stroke-width:2.16000009;stroke-linecap:butt;stroke-linejoin:miter;stroke-miterlimit:2.61310005;stroke-dasharray:none;stroke-opacity:1"
         d="m 351.992,95.957 h 85.4297 v 85.0742 H 351.992 Z" /><path
         id="path114"
         style="fill:none;stroke:#231f20;stroke-width:2.16000009;stroke-linecap:butt;stroke-linejoin:miter;stroke-miterlimit:2.61310005;stroke-dasharray:none;stroke-opacity:1"
         d="m 351.992,10.8867 h 85.4297 V 95.957 H 351.992 Z" /><path
         id="path116"
         style="fill:none;stroke:#231f20;stroke-width:2.16000009;stroke-linecap:butt;stroke-linejoin:miter;stroke-miterlimit:2.61310005;stroke-dasharray:none;stroke-opacity:1"
         d="m 437.422,776.547 h 85.4297 v 85.0742 H 437.422 Z" /><path
         id="path118"
         style="fill:none;stroke:#231f20;stroke-width:2.16000009;stroke-linecap:butt;stroke-linejoin:miter;stroke-miterlimit:2.61310005;stroke-dasharray:none;stroke-opacity:1"
         d="m 437.422,691.473 h 85.4297 v 85.0742 H 437.422 Z" /><path
         id="path120"
         style="fill:none;stroke:#231f20;stroke-width:2.16000009;stroke-linecap:butt;stroke-linejoin:miter;stroke-miterlimit:2.61310005;stroke-dasharray:none;stroke-opacity:1"
         d="m 437.422,606.398 h 85.4297 v 85.0742 H 437.422 Z" /><path
         id="path122"
         style="fill:none;stroke:#231f20;stroke-width:2.16000009;stroke-linecap:butt;stroke-linejoin:miter;stroke-miterlimit:2.61310005;stroke-dasharray:none;stroke-opacity:1"
         d="m 437.422,521.324 h 85.4297 v 85.0742 H 437.422 Z" /><path
         id="path124"
         style="fill:none;stroke:#231f20;stroke-width:2.16000009;stroke-linecap:butt;stroke-linejoin:miter;stroke-miterlimit:2.61310005;stroke-dasharray:none;stroke-opacity:1"
         d="m 437.422,436.254 h 85.4297 v 85.0703 H 437.422 Z" /><path
         id="path126"
         style="fill:none;stroke:#231f20;stroke-width:2.16000009;stroke-linecap:butt;stroke-linejoin:miter;stroke-miterlimit:2.61310005;stroke-dasharray:none;stroke-opacity:1"
         d="m 437.422,351.18 h 85.4297 v 85.0742 H 437.422 Z" /><path
         id="path128"
         style="fill:none;stroke:#231f20;stroke-width:2.16000009;stroke-linecap:butt;stroke-linejoin:miter;stroke-miterlimit:2.61310005;stroke-dasharray:none;stroke-opacity:1"
         d="m 437.422,266.105 h 85.4297 v 85.0742 H 437.422 Z" /><path
         id="path130"
         style="fill:none;stroke:#231f20;stroke-width:2.16000009;stroke-linecap:butt;stroke-linejoin:miter;stroke-miterlimit:2.61310005;stroke-dasharray:none;stroke-opacity:1"
         d="m 437.422,181.031 h 85.4297 v 85.0742 H 437.422 Z" /><path
         id="path132"
         style="fill:none;stroke:#231f20;stroke-width:2.16000009;stroke-linecap:butt;stroke-linejoin:miter;stroke-miterlimit:2.61310005;stroke-dasharray:none;stroke-opacity:1"
         d="m 437.422,95.957 h 85.4297 v 85.0742 H 437.422 Z" /><path
         id="path134"
         style="fill:none;stroke:#231f20;stroke-width:2.16000009;stroke-linecap:butt;stroke-linejoin:miter;stroke-miterlimit:2.61310005;stroke-dasharray:none;stroke-opacity:1"
         d="m 437.422,10.8867 h 85.4297 V 95.957 H 437.422 Z" /><path
         id="path136"
         style="fill:none;stroke:#231f20;stroke-width:2.16000009;stroke-linecap:butt;stroke-linejoin:miter;stroke-miterlimit:2.61310005;stroke-dasharray:none;stroke-opacity:1"
         d="m 522.852,776.547 h 85.4297 v 85.0742 H 522.852 Z" /><path
         id="path138"
         style="fill:none;stroke:#231f20;stroke-width:2.16000009;stroke-linecap:butt;stroke-linejoin:miter;stroke-miterlimit:2.61310005;stroke-dasharray:none;stroke-opacity:1"
         d="m 522.852,691.473 h 85.4297 v 85.0742 H 522.852 Z" /><path
         id="path140"
         style="fill:none;stroke:#231f20;stroke-width:2.16000009;stroke-linecap:butt;stroke-linejoin:miter;stroke-miterlimit:2.61310005;stroke-dasharray:none;stroke-opacity:1"
         d="m 522.852,606.398 h 85.4297 v 85.0742 H 522.852 Z" /><path
         id="path142"
         style="fill:none;stroke:#231f20;stroke-width:2.16000009;stroke-linecap:butt;stroke-linejoin:miter;stroke-miterlimit:2.61310005;stroke-dasharray:none;stroke-opacity:1"
         d="m 522.852,521.324 h 85.4297 v 85.0742 H 522.852 Z" /><path
         id="path144"
         style="fill:none;stroke:#231f20;stroke-width:2.16000009;stroke-linecap:butt;stroke-linejoin:miter;stroke-miterlimit:2.61310005;stroke-dasharray:none;stroke-opacity:1"
         d="m 522.852,436.254 h 85.4297 v 85.0703 H 522.852 Z" /><path
         id="path146"
         style="fill:none;stroke:#231f20;stroke-width:2.16000009;stroke-linecap:butt;stroke-linejoin:miter;stroke-miterlimit:2.61310005;stroke-dasharray:none;stroke-opacity:1"
         d="m 522.852,351.18 h 85.4297 v 85.0742 H 522.852 Z" /><path
         id="path148"
         style="fill:none;stroke:#231f20;stroke-width:2.16000009;stroke-linecap:butt;stroke-linejoin:miter;stroke-miterlimit:2.61310005;stroke-dasharray:none;stroke-opacity:1"
         d="m 522.852,266.105 h 85.4297 v 85.0742 H 522.852 Z" /><path
         id="path150"
         style="fill:none;stroke:#231f20;stroke-width:2.16000009;stroke-linecap:butt;stroke-linejoin:miter;stroke-miterlimit:2.61310005;stroke-dasharray:none;stroke-opacity:1"
         d="m 522.852,181.031 h 85.4297 v 85.0742 H 522.852 Z" /><path
         id="path152"
         style="fill:none;stroke:#231f20;stroke-width:2.16000009;stroke-linecap:butt;stroke-linejoin:miter;stroke-miterlimit:2.61310005;stroke-dasharray:none;stroke-opacity:1"
         d="m 522.852,95.957 h 85.4297 v 85.0742 H 522.852 Z" /><path
         id="path154"
         style="fill:none;stroke:#231f20;stroke-width:2.16000009;stroke-linecap:butt;stroke-linejoin:miter;stroke-miterlimit:2.61310005;stroke-dasharray:none;stroke-opacity:1"
         d="m 522.852,10.8867 h 85.4297 V 95.957 H 522.852 Z" /><path
         id="path156"
         style="fill:none;stroke:#231f20;stroke-width:2.16000009;stroke-linecap:butt;stroke-linejoin:miter;stroke-miterlimit:2.61310005;stroke-dasharray:none;stroke-opacity:1"
         d="m 608.281,776.547 h 85.4297 v 85.0742 H 608.281 Z" /><path
         id="path158"
         style="fill:none;stroke:#231f20;stroke-width:2.16000009;stroke-linecap:butt;stroke-linejoin:miter;stroke-miterlimit:2.61310005;stroke-dasharray:none;stroke-opacity:1"
         d="m 608.281,691.473 h 85.4297 v 85.0742 H 608.281 Z" /><path
         id="path160"
         style="fill:none;stroke:#231f20;stroke-width:2.16000009;stroke-linecap:butt;stroke-linejoin:miter;stroke-miterlimit:2.61310005;stroke-dasharray:none;stroke-opacity:1"
         d="m 608.281,606.398 h 85.4297 v 85.0742 H 608.281 Z" /><path
         id="path162"
         style="fill:none;stroke:#231f20;stroke-width:2.16000009;stroke-linecap:butt;stroke-linejoin:miter;stroke-miterlimit:2.61310005;stroke-dasharray:none;stroke-opacity:1"
         d="m 608.281,521.324 h 85.4297 v 85.0742 H 608.281 Z" /><path
         id="path164"
         style="fill:none;stroke:#231f20;stroke-width:2.16000009;stroke-linecap:butt;stroke-linejoin:miter;stroke-miterlimit:2.61310005;stroke-dasharray:none;stroke-opacity:1"
         d="m 608.281,436.254 h 85.4297 v 85.0703 H 608.281 Z" /><path
         id="path166"
         style="fill:none;stroke:#231f20;stroke-width:2.16000009;stroke-linecap:butt;stroke-linejoin:miter;stroke-miterlimit:2.61310005;stroke-dasharray:none;stroke-opacity:1"
         d="m 608.281,351.18 h 85.4297 v 85.0742 H 608.281 Z" /><path
         id="path168"
         style="fill:none;stroke:#231f20;stroke-width:2.16000009;stroke-linecap:butt;stroke-linejoin:miter;stroke-miterlimit:2.61310005;stroke-dasharray:none;stroke-opacity:1"
         d="m 608.281,266.105 h 85.4297 v 85.0742 H 608.281 Z" /><path
         id="path170"
         style="fill:none;stroke:#231f20;stroke-width:2.16000009;stroke-linecap:butt;stroke-linejoin:miter;stroke-miterlimit:2.61310005;stroke-dasharray:none;stroke-opacity:1"
         d="m 608.281,181.031 h 85.4297 v 85.0742 H 608.281 Z" /><path
         id="path172"
         style="fill:none;stroke:#231f20;stroke-width:2.16000009;stroke-linecap:butt;stroke-linejoin:miter;stroke-miterlimit:2.61310005;stroke-dasharray:none;stroke-opacity:1"
         d="m 608.281,95.957 h 85.4297 v 85.0742 H 608.281 Z" /><path
         id="path174"
         style="fill:none;stroke:#231f20;stroke-width:2.16000009;stroke-linecap:butt;stroke-linejoin:miter;stroke-miterlimit:2.61310005;stroke-dasharray:none;stroke-opacity:1"
         d="m 608.281,10.8867 h 85.4297 V 95.957 H 608.281 Z" /><path
         id="path176"
         style="fill:none;stroke:#231f20;stroke-width:2.16000009;stroke-linecap:butt;stroke-linejoin:miter;stroke-miterlimit:2.61310005;stroke-dasharray:none;stroke-opacity:1"
         d="m 693.711,776.547 h 85.4336 v 85.0742 H 693.711 Z" /><path
         id="path178"
         style="fill:none;stroke:#231f20;stroke-width:2.16000009;stroke-linecap:butt;stroke-linejoin:miter;stroke-miterlimit:2.61310005;stroke-dasharray:none;stroke-opacity:1"
         d="m 693.711,691.473 h 85.4336 v 85.0742 H 693.711 Z" /><path
         id="path180"
         style="fill:none;stroke:#231f20;stroke-width:2.16000009;stroke-linecap:butt;stroke-linejoin:miter;stroke-miterlimit:2.61310005;stroke-dasharray:none;stroke-opacity:1"
         d="m 693.711,606.398 h 85.4336 v 85.0742 H 693.711 Z" /><path
         id="path182"
         style="fill:none;stroke:#231f20;stroke-width:2.16000009;stroke-linecap:butt;stroke-linejoin:miter;stroke-miterlimit:2.61310005;stroke-dasharray:none;stroke-opacity:1"
         d="m 693.711,521.324 h 85.4336 v 85.0742 H 693.711 Z" /><path
         id="path184"
         style="fill:none;stroke:#231f20;stroke-width:2.16000009;stroke-linecap:butt;stroke-linejoin:miter;stroke-miterlimit:2.61310005;stroke-dasharray:none;stroke-opacity:1"
         d="m 693.711,436.254 h 85.4336 v 85.0703 H 693.711 Z" /><path
         id="path186"
         style="fill:none;stroke:#231f20;stroke-width:2.16000009;stroke-linecap:butt;stroke-linejoin:miter;stroke-miterlimit:2.61310005;stroke-dasharray:none;stroke-opacity:1"
         d="m 693.711,351.18 h 85.4336 v 85.0742 H 693.711 Z" /><path
         id="path188"
         style="fill:none;stroke:#231f20;stroke-width:2.16000009;stroke-linecap:butt;stroke-linejoin:miter;stroke-miterlimit:2.61310005;stroke-dasharray:none;stroke-opacity:1"
         d="m 693.711,266.105 h 85.4336 v 85.0742 H 693.711 Z" /><path
         id="path190"
         style="fill:none;stroke:#231f20;stroke-width:2.16000009;stroke-linecap:butt;stroke-linejoin:miter;stroke-miterlimit:2.61310005;stroke-dasharray:none;stroke-opacity:1"
         d="m 693.711,181.031 h 85.4336 v 85.0742 H 693.711 Z" /><path
         id="path192"
         style="fill:none;stroke:#231f20;stroke-width:2.16000009;stroke-linecap:butt;stroke-linejoin:miter;stroke-miterlimit:2.61310005;stroke-dasharray:none;stroke-opacity:1"
         d="m 693.711,95.957 h 85.4336 v 85.0742 H 693.711 Z" /><path
         id="path194"
         style="fill:none;stroke:#231f20;stroke-width:2.16000009;stroke-linecap:butt;stroke-linejoin:miter;stroke-miterlimit:2.61310005;stroke-dasharray:none;stroke-opacity:1"
         d="m 693.711,10.8867 h 85.4336 V 95.957 H 693.711 Z" /><path
         id="path196"
         style="fill:none;stroke:#231f20;stroke-width:2.16000009;stroke-linecap:butt;stroke-linejoin:miter;stroke-miterlimit:2.61310005;stroke-dasharray:none;stroke-opacity:1"
         d="m 779.145,776.547 h 85.4297 v 85.0742 H 779.145 Z" /><path
         id="path198"
         style="fill:none;stroke:#231f20;stroke-width:2.16000009;stroke-linecap:butt;stroke-linejoin:miter;stroke-miterlimit:2.61310005;stroke-dasharray:none;stroke-opacity:1"
         d="m 779.145,691.473 h 85.4297 v 85.0742 H 779.145 Z" /><path
         id="path200"
         style="fill:none;stroke:#231f20;stroke-width:2.16000009;stroke-linecap:butt;stroke-linejoin:miter;stroke-miterlimit:2.61310005;stroke-dasharray:none;stroke-opacity:1"
         d="m 779.145,606.398 h 85.4297 v 85.0742 H 779.145 Z" /><path
         id="path202"
         style="fill:none;stroke:#231f20;stroke-width:2.16000009;stroke-linecap:butt;stroke-linejoin:miter;stroke-miterlimit:2.61310005;stroke-dasharray:none;stroke-opacity:1"
         d="m 779.145,521.324 h 85.4297 v 85.0742 H 779.145 Z" /><path
         id="path204"
         style="fill:none;stroke:#231f20;stroke-width:2.16000009;stroke-linecap:butt;stroke-linejoin:miter;stroke-miterlimit:2.61310005;stroke-dasharray:none;stroke-opacity:1"
         d="m 779.145,436.254 h 85.4297 v 85.0703 H 779.145 Z" /><path
         id="path206"
         style="fill:none;stroke:#231f20;stroke-width:2.16000009;stroke-linecap:butt;stroke-linejoin:miter;stroke-miterlimit:2.61310005;stroke-dasharray:none;stroke-opacity:1"
         d="m 779.145,351.18 h 85.4297 v 85.0742 H 779.145 Z" /><path
         id="path208"
         style="fill:none;stroke:#231f20;stroke-width:2.16000009;stroke-linecap:butt;stroke-linejoin:miter;stroke-miterlimit:2.61310005;stroke-dasharray:none;stroke-opacity:1"
         d="m 779.145,266.105 h 85.4297 v 85.0742 H 779.145 Z" /><path
         id="path210"
         style="fill:none;stroke:#231f20;stroke-width:2.16000009;stroke-linecap:butt;stroke-linejoin:miter;stroke-miterlimit:2.61310005;stroke-dasharray:none;stroke-opacity:1"
         d="m 779.145,181.031 h 85.4297 v 85.0742 H 779.145 Z" /><path
         id="path212"
         style="fill:none;stroke:#231f20;stroke-width:2.16000009;stroke-linecap:butt;stroke-linejoin:miter;stroke-miterlimit:2.61310005;stroke-dasharray:none;stroke-opacity:1"
         d="m 779.145,95.957 h 85.4297 v 85.0742 H 779.145 Z" /><path
         id="path214"
         style="fill:none;stroke:#231f20;stroke-width:2.16000009;stroke-linecap:butt;stroke-linejoin:miter;stroke-miterlimit:2.61310005;stroke-dasharray:none;stroke-opacity:1"
         d="m 779.145,10.8867 h 85.4297 V 95.957 H 779.145 Z" /><path
         id="path216"
         style="fill:none;stroke:#231f20;stroke-width:7.5005002;stroke-linecap:butt;stroke-linejoin:miter;stroke-miterlimit:2.61310005;stroke-dasharray:none;stroke-opacity:1"
         d="M 179.918,97.3164 608.59,95.8008" /><path
         id="path218"
         style="fill:none;stroke:#231f20;stroke-width:7.5005002;stroke-linecap:butt;stroke-linejoin:miter;stroke-miterlimit:2.61310005;stroke-dasharray:none;stroke-opacity:1"
         d="M 608.59,693.289 182.949,96.7109" /><path
         id="path220"
         style="fill:none;stroke:#231f20;stroke-width:7.5005002;stroke-linecap:butt;stroke-linejoin:miter;stroke-miterlimit:2.61310005;stroke-dasharray:none;stroke-opacity:1"
         d="M 608.59,693.289 610.102,93.6758" /><path
         id="path222"
         style="fill:#231f20;fill-opacity:1;fill-rule:nonzero;stroke:none"
         d="m 654.188,704.344 h -49.067 l 0.684,1.801 c 2.601,0.066 4.332,0.285 5.218,0.632 1.368,0.602 2.379,1.368 3.032,2.301 1,1.5 2.086,4.199 3.218,8.117 l 11.665,40.282 c 0.984,3.316 1.468,5.75 1.468,7.32 0,1.23 -0.453,2.199 -1.336,2.883 -0.898,0.679 -2.582,1.011 -5.066,1.011 -0.551,0 -0.984,0.02 -1.316,0.051 l 0.582,1.82 h 27.019 l -0.402,-1.82 c -3.016,0 -5.168,-0.281 -6.449,-0.867 -1.266,-0.598 -2.317,-1.551 -3.168,-2.883 -0.582,-0.883 -1.547,-3.617 -2.883,-8.215 l -11.465,-39.582 c -0.887,-3 -1.317,-5.086 -1.317,-6.25 0,-0.785 0.43,-1.535 1.317,-2.25 0.551,-0.5 1.801,-0.734 3.75,-0.734 h 6.398 c 4.649,0 8.348,0.586 11.086,1.75 2.016,0.883 3.883,2.199 5.567,3.969 0.914,0.965 2.515,3.398 4.832,7.265 l 1.269,2.2 h 1.813 l -6.449,-18.801" /><path
         id="path224"
         style="fill:#231f20;fill-opacity:1;fill-rule:nonzero;stroke:none"
         d="m 644.812,61.0977 16.399,-25.3516 c 2.934,-4.4805 5.367,-7.3672 7.285,-8.6172 1.918,-1.25 4.449,-1.8789 7.566,-1.8789 l -0.531,-1.8008 h -28.234 l 0.449,1.8008 c 2.25,0.2305 3.836,0.7656 4.75,1.6133 0.934,0.8515 1.399,1.8008 1.399,2.8867 0,0.9805 -0.165,1.9141 -0.485,2.832 -0.265,0.6485 -1.215,2.25 -2.832,4.7852 L 637.145,58.418 630.648,36.4805 c -1.07,-3.5157 -1.601,-5.8672 -1.601,-7.0821 0,-1.2343 0.449,-2.164 1.363,-2.8164 0.902,-0.6679 3.152,-1.1015 6.735,-1.332 l -0.786,-1.8008 h -26.164 l 0.633,1.8008 c 2.535,0.0664 4.25,0.3008 5.137,0.6797 1.297,0.6015 2.246,1.3515 2.863,2.2539 0.852,1.332 1.899,4.0976 3.133,8.2969 l 11.668,40 c 0.883,3.0507 1.316,5.5156 1.316,7.3672 0,1.3007 -0.414,2.3007 -1.23,2.9843 -0.836,0.6797 -2.453,1.0157 -4.867,1.0157 h -0.985 l 0.598,1.8164 h 24.851 l -0.5,-1.8164 c -2.05,0.0351 -3.566,-0.1836 -4.582,-0.6836 -1.402,-0.6836 -2.418,-1.5664 -3.066,-2.6329 -0.668,-1.0664 -1.617,-3.7656 -2.883,-8.0507 l -5.136,-17 23.535,17.7343 c 3.132,2.3321 5.179,4.1993 6.148,5.5664 0.582,0.836 0.883,1.6016 0.883,2.2813 0,0.5859 -0.301,1.168 -0.899,1.7187 -0.601,0.5508 -1.515,0.8985 -2.765,1.0665 l 0.5,1.8164 h 21.183 l -0.437,-1.8164 c -2.313,-0.3829 -4.266,-0.8985 -5.832,-1.5352 -1.582,-0.6289 -3.199,-1.4961 -4.867,-2.6133 -0.481,-0.3203 -3.664,-2.7344 -9.516,-7.2187 L 644.812,61.0977" /></g></g></svg>