<?xml version="1.0" encoding="UTF-8" standalone="no"?>
<svg
   xmlns:dc="http://purl.org/dc/elements/1.1/"
   xmlns:cc="http://creativecommons.org/ns#"
   xmlns:rdf="http://www.w3.org/1999/02/22-rdf-syntax-ns#"
   xmlns:svg="http://www.w3.org/2000/svg"
   xmlns="http://www.w3.org/2000/svg"
   viewBox="0 0 96 96"
   height="96"
   width="96"
   xml:space="preserve"
   id="svg2"
   version="1.1"><metadata
     id="metadata8"><rdf:RDF><cc:Work
         rdf:about=""><dc:format>image/svg+xml</dc:format><dc:type
           rdf:resource="http://purl.org/dc/dcmitype/StillImage" /></cc:Work></rdf:RDF></metadata><defs
     id="defs6" /><g
     transform="matrix(1.3333333,0,0,-1.3333333,0,96)"
     id="g10"><g
       transform="scale(0.1)"
       id="g12"><path
         id="path14"
         style="fill:none;stroke:#231f20;stroke-width:2.16000009;stroke-linecap:butt;stroke-linejoin:miter;stroke-miterlimit:2.61310005;stroke-dasharray:none;stroke-opacity:1"
         d="m 4.17188,596.59 h 118.02 v 118.02 h -118.02 z" /><path
         id="path16"
         style="fill:none;stroke:#231f20;stroke-width:2.16000009;stroke-linecap:butt;stroke-linejoin:miter;stroke-miterlimit:2.61310005;stroke-dasharray:none;stroke-opacity:1"
         d="m 4.17188,478.574 h 118.02 V 596.59 h -118.02 z" /><path
         id="path18"
         style="fill:none;stroke:#231f20;stroke-width:2.16000009;stroke-linecap:butt;stroke-linejoin:miter;stroke-miterlimit:2.61310005;stroke-dasharray:none;stroke-opacity:1"
         d="m 4.17188,360.555 h 118.02 v 118.02 h -118.02 z" /><path
         id="path20"
         style="fill:none;stroke:#231f20;stroke-width:2.16000009;stroke-linecap:butt;stroke-linejoin:miter;stroke-miterlimit:2.61310005;stroke-dasharray:none;stroke-opacity:1"
         d="m 4.17188,242.539 h 118.02 v 118.016 h -118.02 z" /><path
         id="path22"
         style="fill:none;stroke:#231f20;stroke-width:2.16000009;stroke-linecap:butt;stroke-linejoin:miter;stroke-miterlimit:2.61310005;stroke-dasharray:none;stroke-opacity:1"
         d="m 4.17188,124.52 h 118.02 v 118.02 h -118.02 z" /><path
         id="path24"
         style="fill:none;stroke:#231f20;stroke-width:2.16000009;stroke-linecap:butt;stroke-linejoin:miter;stroke-miterlimit:2.61310005;stroke-dasharray:none;stroke-opacity:1"
         d="m 4.17188,6.50391 h 118.02 v 118.016 h -118.02 z" /><path
         id="path26"
         style="fill:none;stroke:#231f20;stroke-width:2.16000009;stroke-linecap:butt;stroke-linejoin:miter;stroke-miterlimit:2.61310005;stroke-dasharray:none;stroke-opacity:1"
         d="M 122.191,596.59 H 240.207 V 714.61 H 122.191 Z" /><path
         id="path28"
         style="fill:none;stroke:#231f20;stroke-width:2.16000009;stroke-linecap:butt;stroke-linejoin:miter;stroke-miterlimit:2.61310005;stroke-dasharray:none;stroke-opacity:1"
         d="M 122.191,478.574 H 240.207 V 596.59 H 122.191 Z" /><path
         id="path30"
         style="fill:none;stroke:#231f20;stroke-width:2.16000009;stroke-linecap:butt;stroke-linejoin:miter;stroke-miterlimit:2.61310005;stroke-dasharray:none;stroke-opacity:1"
         d="m 122.191,360.555 h 118.016 v 118.02 H 122.191 Z" /><path
         id="path32"
         style="fill:none;stroke:#231f20;stroke-width:2.16000009;stroke-linecap:butt;stroke-linejoin:miter;stroke-miterlimit:2.61310005;stroke-dasharray:none;stroke-opacity:1"
         d="M 122.191,242.539 H 240.207 V 360.555 H 122.191 Z" /><path
         id="path34"
         style="fill:none;stroke:#231f20;stroke-width:2.16000009;stroke-linecap:butt;stroke-linejoin:miter;stroke-miterlimit:2.61310005;stroke-dasharray:none;stroke-opacity:1"
         d="M 122.191,124.52 H 240.207 V 242.54 H 122.191 Z" /><path
         id="path36"
         style="fill:none;stroke:#231f20;stroke-width:2.16000009;stroke-linecap:butt;stroke-linejoin:miter;stroke-miterlimit:2.61310005;stroke-dasharray:none;stroke-opacity:1"
         d="m 122.191,6.50391 h 118.016 v 118.016 H 122.191 Z" /><path
         id="path38"
         style="fill:none;stroke:#231f20;stroke-width:2.16000009;stroke-linecap:butt;stroke-linejoin:miter;stroke-miterlimit:2.61310005;stroke-dasharray:none;stroke-opacity:1"
         d="m 240.207,596.59 h 118.02 v 118.02 h -118.02 z" /><path
         id="path40"
         style="fill:none;stroke:#231f20;stroke-width:2.16000009;stroke-linecap:butt;stroke-linejoin:miter;stroke-miterlimit:2.61310005;stroke-dasharray:none;stroke-opacity:1"
         d="m 240.207,478.574 h 118.02 V 596.59 h -118.02 z" /><path
         id="path42"
         style="fill:none;stroke:#231f20;stroke-width:2.16000009;stroke-linecap:butt;stroke-linejoin:miter;stroke-miterlimit:2.61310005;stroke-dasharray:none;stroke-opacity:1"
         d="m 240.207,360.555 h 118.02 v 118.02 h -118.02 z" /><path
         id="path44"
         style="fill:none;stroke:#231f20;stroke-width:2.16000009;stroke-linecap:butt;stroke-linejoin:miter;stroke-miterlimit:2.61310005;stroke-dasharray:none;stroke-opacity:1"
         d="m 240.207,242.539 h 118.02 v 118.016 h -118.02 z" /><path
         id="path46"
         style="fill:none;stroke:#231f20;stroke-width:2.16000009;stroke-linecap:butt;stroke-linejoin:miter;stroke-miterlimit:2.61310005;stroke-dasharray:none;stroke-opacity:1"
         d="m 240.207,124.52 h 118.02 v 118.02 h -118.02 z" /><path
         id="path48"
         style="fill:none;stroke:#231f20;stroke-width:2.16000009;stroke-linecap:butt;stroke-linejoin:miter;stroke-miterlimit:2.61310005;stroke-dasharray:none;stroke-opacity:1"
         d="m 240.207,6.50391 h 118.02 v 118.016 h -118.02 z" /><path
         id="path50"
         style="fill:none;stroke:#231f20;stroke-width:2.16000009;stroke-linecap:butt;stroke-linejoin:miter;stroke-miterlimit:2.61310005;stroke-dasharray:none;stroke-opacity:1"
         d="m 358.227,596.59 h 118.02 v 118.02 h -118.02 z" /><path
         id="path52"
         style="fill:none;stroke:#231f20;stroke-width:2.16000009;stroke-linecap:butt;stroke-linejoin:miter;stroke-miterlimit:2.61310005;stroke-dasharray:none;stroke-opacity:1"
         d="m 358.227,478.574 h 118.02 V 596.59 h -118.02 z" /><path
         id="path54"
         style="fill:none;stroke:#231f20;stroke-width:2.16000009;stroke-linecap:butt;stroke-linejoin:miter;stroke-miterlimit:2.61310005;stroke-dasharray:none;stroke-opacity:1"
         d="m 358.227,360.555 h 118.02 v 118.02 h -118.02 z" /><path
         id="path56"
         style="fill:none;stroke:#231f20;stroke-width:2.16000009;stroke-linecap:butt;stroke-linejoin:miter;stroke-miterlimit:2.61310005;stroke-dasharray:none;stroke-opacity:1"
         d="m 358.227,242.539 h 118.02 v 118.016 h -118.02 z" /><path
         id="path58"
         style="fill:none;stroke:#231f20;stroke-width:2.16000009;stroke-linecap:butt;stroke-linejoin:miter;stroke-miterlimit:2.61310005;stroke-dasharray:none;stroke-opacity:1"
         d="m 358.227,124.52 h 118.02 v 118.02 h -118.02 z" /><path
         id="path60"
         style="fill:none;stroke:#231f20;stroke-width:2.16000009;stroke-linecap:butt;stroke-linejoin:miter;stroke-miterlimit:2.61310005;stroke-dasharray:none;stroke-opacity:1"
         d="m 358.227,6.50391 h 118.02 v 118.016 h -118.02 z" /><path
         id="path62"
         style="fill:none;stroke:#231f20;stroke-width:2.16000009;stroke-linecap:butt;stroke-linejoin:miter;stroke-miterlimit:2.61310005;stroke-dasharray:none;stroke-opacity:1"
         d="M 476.246,596.59 H 594.262 V 714.61 H 476.246 Z" /><path
         id="path64"
         style="fill:none;stroke:#231f20;stroke-width:2.16000009;stroke-linecap:butt;stroke-linejoin:miter;stroke-miterlimit:2.61310005;stroke-dasharray:none;stroke-opacity:1"
         d="M 476.246,478.574 H 594.262 V 596.59 H 476.246 Z" /><path
         id="path66"
         style="fill:none;stroke:#231f20;stroke-width:2.16000009;stroke-linecap:butt;stroke-linejoin:miter;stroke-miterlimit:2.61310005;stroke-dasharray:none;stroke-opacity:1"
         d="m 476.246,360.555 h 118.016 v 118.02 H 476.246 Z" /><path
         id="path68"
         style="fill:none;stroke:#231f20;stroke-width:2.16000009;stroke-linecap:butt;stroke-linejoin:miter;stroke-miterlimit:2.61310005;stroke-dasharray:none;stroke-opacity:1"
         d="M 476.246,242.539 H 594.262 V 360.555 H 476.246 Z" /><path
         id="path70"
         style="fill:none;stroke:#231f20;stroke-width:2.16000009;stroke-linecap:butt;stroke-linejoin:miter;stroke-miterlimit:2.61310005;stroke-dasharray:none;stroke-opacity:1"
         d="M 476.246,124.52 H 594.262 V 242.54 H 476.246 Z" /><path
         id="path72"
         style="fill:none;stroke:#231f20;stroke-width:2.16000009;stroke-linecap:butt;stroke-linejoin:miter;stroke-miterlimit:2.61310005;stroke-dasharray:none;stroke-opacity:1"
         d="m 476.246,6.50391 h 118.016 v 118.016 H 476.246 Z" /><path
         id="path74"
         style="fill:none;stroke:#231f20;stroke-width:2.16000009;stroke-linecap:butt;stroke-linejoin:miter;stroke-miterlimit:2.61310005;stroke-dasharray:none;stroke-opacity:1"
         d="m 594.262,596.59 h 118.02 v 118.02 h -118.02 z" /><path
         id="path76"
         style="fill:none;stroke:#231f20;stroke-width:2.16000009;stroke-linecap:butt;stroke-linejoin:miter;stroke-miterlimit:2.61310005;stroke-dasharray:none;stroke-opacity:1"
         d="m 594.262,478.574 h 118.02 V 596.59 h -118.02 z" /><path
         id="path78"
         style="fill:none;stroke:#231f20;stroke-width:2.16000009;stroke-linecap:butt;stroke-linejoin:miter;stroke-miterlimit:2.61310005;stroke-dasharray:none;stroke-opacity:1"
         d="m 594.262,360.555 h 118.02 v 118.02 h -118.02 z" /><path
         id="path80"
         style="fill:none;stroke:#231f20;stroke-width:2.16000009;stroke-linecap:butt;stroke-linejoin:miter;stroke-miterlimit:2.61310005;stroke-dasharray:none;stroke-opacity:1"
         d="m 594.262,242.539 h 118.02 v 118.016 h -118.02 z" /><path
         id="path82"
         style="fill:none;stroke:#231f20;stroke-width:2.16000009;stroke-linecap:butt;stroke-linejoin:miter;stroke-miterlimit:2.61310005;stroke-dasharray:none;stroke-opacity:1"
         d="m 594.262,124.52 h 118.02 v 118.02 h -118.02 z" /><path
         id="path84"
         style="fill:none;stroke:#231f20;stroke-width:2.16000009;stroke-linecap:butt;stroke-linejoin:miter;stroke-miterlimit:2.61310005;stroke-dasharray:none;stroke-opacity:1"
         d="m 594.262,6.50391 h 118.02 v 118.016 h -118.02 z" /><path
         id="path86"
         style="fill:none;stroke:#231f20;stroke-width:7.5005002;stroke-linecap:butt;stroke-linejoin:miter;stroke-miterlimit:2.61310005;stroke-dasharray:none;stroke-opacity:1"
         d="M 121.688,124.016 H 477.25" /><path
         id="path88"
         style="fill:none;stroke:#231f20;stroke-width:7.5005002;stroke-linecap:butt;stroke-linejoin:miter;stroke-miterlimit:2.61310005;stroke-dasharray:none;stroke-opacity:1"
         d="M 477.25,127.027 V 600.105" /><path
         id="path90"
         style="fill:none;stroke:#231f20;stroke-width:7.5005002;stroke-linecap:butt;stroke-linejoin:miter;stroke-miterlimit:2.61310005;stroke-dasharray:none;stroke-opacity:1"
         d="M 125.094,124.742 477.246,600.105" /><path
         id="path92"
         style="fill:#231f20;fill-opacity:1;fill-rule:nonzero;stroke:none"
         d="m 565.305,112.191 -4.934,-21.4332 h -1.766 l -0.183,5.3828 c -0.168,1.9492 -0.551,3.6836 -1.133,5.2144 -0.586,1.536 -1.469,2.852 -2.633,3.989 -1.168,1.113 -2.652,1.996 -4.453,2.633 -1.781,0.632 -3.765,0.949 -5.949,0.949 -5.832,0 -10.914,-1.602 -15.281,-4.785 -5.571,-4.067 -9.934,-9.8168 -13.082,-17.2308 -2.602,-6.1172 -3.918,-12.3164 -3.918,-18.6016 0,-6.418 1.882,-11.5352 5.613,-15.3672 3.75,-3.8164 8.617,-5.7344 14.602,-5.7344 4.531,0 8.566,1.0196 12.085,3.0352 3.532,2.0156 6.817,5.1133 9.848,9.3164 h 2.281 c -3.562,-5.7031 -7.547,-9.8867 -11.898,-12.5664 -4.363,-2.6836 -9.602,-4.0352 -15.684,-4.0352 -5.398,0 -10.179,1.1368 -14.347,3.3985 -4.168,2.2695 -7.352,5.4336 -9.516,9.5507 -2.187,4.1016 -3.285,8.5 -3.285,13.2344 0,7.2188 1.949,14.25 5.816,21.086 3.867,6.8281 9.184,12.2144 15.934,16.1134 6.766,3.902 13.566,5.851 20.449,5.851 3.215,0 6.832,-0.75 10.832,-2.281 1.754,-0.652 3.035,-0.984 3.801,-0.984 0.781,0 1.465,0.164 2.066,0.48 0.586,0.336 1.551,1.27 2.918,2.785 h 1.817" /><path
         id="path94"
         style="fill:#231f20;fill-opacity:1;fill-rule:nonzero;stroke:none"
         d="m 515.734,678.695 0.684,1.817 h 23.637 c 3.965,0 7.496,-0.617 10.613,-1.867 3.102,-1.235 5.437,-2.95 6.984,-5.165 1.551,-2.218 2.317,-4.566 2.317,-7.039 0,-3.812 -1.383,-7.246 -4.133,-10.332 -2.75,-3.066 -7.234,-5.347 -13.449,-6.797 4.015,-1.5 6.949,-3.484 8.851,-5.968 1.879,-2.465 2.832,-5.18 2.832,-8.149 0,-3.281 -0.847,-6.433 -2.55,-9.433 -1.684,-2.985 -3.868,-5.317 -6.516,-6.965 -2.652,-1.668 -5.852,-2.887 -9.602,-3.668 -2.668,-0.551 -6.836,-0.832 -12.5,-0.832 h -24.265 l 0.633,1.797 c 2.55,0.07 4.265,0.32 5.183,0.734 1.301,0.567 2.231,1.301 2.785,2.199 0.782,1.235 1.813,4.067 3.114,8.5 l 11.867,40.082 c 1.019,3.387 1.515,5.766 1.515,7.137 0,1.199 -0.445,2.149 -1.332,2.848 -0.898,0.699 -2.597,1.051 -5.117,1.051 -0.547,0 -1.062,0.015 -1.551,0.05 z m 9.903,-27.484 c 2.117,-0.066 3.648,-0.102 4.597,-0.102 6.77,0 11.801,1.469 15.118,4.418 3.3,2.95 4.953,6.633 4.953,11.067 0,3.351 -1.02,5.965 -3.035,7.836 -2.016,1.863 -5.235,2.8 -9.668,2.8 -1.164,0 -2.664,-0.187 -4.481,-0.585 z m -9.617,-32.617 c 3.519,-0.465 6.265,-0.684 8.25,-0.684 5.085,0 9.582,1.535 13.5,4.586 3.933,3.066 5.882,7.215 5.882,12.449 0,4 -1.199,7.133 -3.632,9.383 -2.418,2.25 -6.332,3.367 -11.731,3.367 -1.055,0 -2.32,-0.05 -3.82,-0.148 l -8.449,-28.953" /><path
         id="path96"
         style="fill:#231f20;fill-opacity:1;fill-rule:nonzero;stroke:none"
         d="M 87.5977,100.195 82.5664,45.1289 c -0.2695,-2.5859 -0.3828,-4.2695 -0.3828,-5.0859 0,-1.2969 0.2305,-2.2969 0.7344,-2.9805 0.6132,-0.9336 1.4453,-1.6328 2.5,-2.1016 1.0625,-0.4492 2.8476,-0.6836 5.3476,-0.6836 L 90.2344,32.4805 H 64.1641 l 0.5351,1.7968 h 1.1172 c 2.1172,0 3.8516,0.4688 5.1836,1.3672 0.9336,0.6367 1.668,1.6485 2.1992,3.086 0.3477,1.0156 0.6992,3.3789 1.0196,7.1289 L 75,54.2617 H 56.0508 l -6.7344,-9.1328 c -1.5312,-2.0508 -2.4844,-3.5351 -2.8828,-4.4141 -0.3828,-0.9023 -0.5859,-1.7382 -0.5859,-2.5195 0,-1.0508 0.4179,-1.9336 1.2695,-2.6836 0.8476,-0.75 2.25,-1.164 4.1992,-1.2344 l -0.5312,-1.7968 h -19.586 l 0.5313,1.7968 c 2.4179,0.1016 4.5351,0.918 6.3867,2.418 1.832,1.5195 4.5664,4.75 8.2148,9.7031 L 85.8828,100.195 Z M 77.9336,83.9453 58.7305,57.8281 h 16.6523 l 2.5508,26.1172" /></g></g></svg>