<?xml version="1.0" encoding="UTF-8" standalone="no"?>
<svg
   xmlns:dc="http://purl.org/dc/elements/1.1/"
   xmlns:cc="http://creativecommons.org/ns#"
   xmlns:rdf="http://www.w3.org/1999/02/22-rdf-syntax-ns#"
   xmlns:svg="http://www.w3.org/2000/svg"
   xmlns="http://www.w3.org/2000/svg"
   viewBox="0 0 197.33333 85.333336"
   height="85.333336"
   width="197.33333"
   xml:space="preserve"
   id="svg2"
   version="1.1"><metadata
     id="metadata8"><rdf:RDF><cc:Work
         rdf:about=""><dc:format>image/svg+xml</dc:format><dc:type
           rdf:resource="http://purl.org/dc/dcmitype/StillImage" /></cc:Work></rdf:RDF></metadata><defs
     id="defs6" /><g
     transform="matrix(1.3333333,0,0,-1.3333333,0,85.333333)"
     id="g10"><g
       transform="scale(0.1)"
       id="g12"><path
         id="path14"
         style="fill:#231f20;fill-opacity:1;fill-rule:nonzero;stroke:none"
         d="m 877.887,310.043 v -6.934 h -8.883 v -17.484 h -8.066 v 17.484 h -28.016 v 6.25 l 30.715,43.848 h 5.367 v -43.164 z m -16.949,0 v 32.863 l -23.235,-32.863 h 23.235" /><path
         id="path16"
         style="fill:#231f20;fill-opacity:1;fill-rule:nonzero;stroke:none"
         d="M 39.582,79.1602 55.9844,53.8086 c 2.9336,-4.4805 5.3672,-7.3672 7.2812,-8.6172 1.9219,-1.25 4.4532,-1.8828 7.5703,-1.8828 L 70.3008,41.5078 H 42.0703 l 0.4453,1.8008 c 2.2539,0.2344 3.836,0.7656 4.7539,1.6172 0.9297,0.8476 1.3985,1.8008 1.3985,2.8828 0,0.9844 -0.168,1.918 -0.4844,2.832 -0.2656,0.6524 -1.2148,2.2539 -2.832,4.7852 L 31.918,76.4766 25.418,54.543 c -1.0664,-3.5196 -1.6016,-5.8672 -1.6016,-7.086 0,-1.2304 0.4531,-2.164 1.3672,-2.8164 0.9023,-0.664 3.1523,-1.0976 6.7344,-1.332 L 31.1328,41.5078 H 4.96875 l 0.63281,1.8008 c 2.53516,0.0703 4.25,0.3008 5.13284,0.6836 1.3008,0.6016 2.25,1.3476 2.8672,2.25 0.8515,1.332 1.8984,4.0976 3.1328,8.3008 l 11.6679,40 c 0.8829,3.0468 1.3165,5.516 1.3165,7.367 0,1.301 -0.418,2.297 -1.2344,2.981 -0.8321,0.683 -2.4492,1.019 -4.8672,1.019 h -0.9805 l 0.5977,1.817 h 24.8515 l -0.5,-1.817 c -2.0507,0.031 -3.5703,-0.187 -4.582,-0.683 -1.4023,-0.684 -2.418,-1.571 -3.0703,-2.633 -0.6641,-1.067 -1.6133,-3.7698 -2.8828,-8.051 l -5.1328,-17 23.5351,17.7343 c 3.1289,2.3321 5.1797,4.1954 6.1485,5.5667 0.582,0.832 0.8828,1.597 0.8828,2.281 0,0.582 -0.3008,1.168 -0.8985,1.719 -0.6015,0.547 -1.5156,0.898 -2.7656,1.066 l 0.4961,1.817 H 80.5 l -0.4336,-1.817 c -2.3164,-0.383 -4.2656,-0.898 -5.832,-1.535 -1.5821,-0.633 -3.1992,-1.5 -4.8672,-2.617 -0.4844,-0.317 -3.6641,-2.7307 -9.5156,-7.215 L 39.582,79.1602" /><path
         id="path18"
         style="fill:#231f20;fill-opacity:1;fill-rule:nonzero;stroke:none"
         d="m 696.074,634.523 -4.933,-21.433 h -1.77 l -0.18,5.383 c -0.168,1.949 -0.55,3.679 -1.136,5.215 -0.582,1.535 -1.469,2.851 -2.633,3.984 -1.168,1.117 -2.649,2 -4.449,2.633 -1.782,0.633 -3.766,0.953 -5.95,0.953 -5.835,0 -10.918,-1.602 -15.285,-4.785 -5.566,-4.067 -9.933,-9.817 -13.082,-17.235 -2.597,-6.117 -3.918,-12.316 -3.918,-18.597 0,-6.418 1.883,-11.536 5.617,-15.368 3.75,-3.82 8.618,-5.734 14.602,-5.734 4.531,0 8.566,1.016 12.082,3.031 3.531,2.02 6.816,5.118 9.852,9.317 h 2.281 c -3.567,-5.699 -7.547,-9.883 -11.899,-12.563 -4.367,-2.687 -9.601,-4.035 -15.683,-4.035 -5.402,0 -10.184,1.133 -14.352,3.399 -4.164,2.269 -7.347,5.433 -9.515,9.55 -2.184,4.102 -3.285,8.5 -3.285,13.235 0,7.215 1.953,14.25 5.816,21.082 3.867,6.832 9.184,12.215 15.934,16.117 6.765,3.898 13.566,5.851 20.453,5.851 3.214,0 6.832,-0.75 10.832,-2.285 1.75,-0.652 3.035,-0.98 3.8,-0.98 0.782,0 1.465,0.164 2.067,0.48 0.582,0.336 1.551,1.266 2.914,2.785 h 1.82" /><path
         id="path20"
         style="fill:#231f20;fill-opacity:1;fill-rule:nonzero;stroke:none"
         d="M 69.6836,618.895 H 95.75 c 6.832,0 11.949,-1.485 15.332,-4.418 3.383,-2.95 5.086,-6.551 5.086,-10.766 0,-3.367 -1.086,-6.617 -3.234,-9.766 -2.153,-3.168 -5.336,-5.734 -9.567,-7.699 -4.2381,-1.969 -8.8045,-2.953 -13.7186,-2.953 -3.0664,0 -6.9492,0.551 -11.6679,1.668 l -5.2813,-18.066 c -1.2344,-4.301 -1.8476,-7.133 -1.8476,-8.5 0,-1.051 0.4336,-1.903 1.3125,-2.586 0.8867,-0.7 2.9843,-1.129 6.3007,-1.332 L 77.9805,552.68 H 51.6484 l 0.5508,1.797 c 3.4492,0 5.8477,0.601 7.1992,1.785 1.3516,1.199 2.8008,4.465 4.3672,9.847 l 10.9336,37.684 c 1.3008,4.535 1.9492,7.566 1.9492,9.082 0,1.152 -0.4492,2.086 -1.3828,2.836 -0.9336,0.75 -2.9687,1.199 -6.1328,1.367 z m 9.1133,-30.868 c 3.6875,-0.949 6.6523,-1.418 8.9023,-1.418 3.5352,0 6.7656,0.735 9.6836,2.203 2.9142,1.465 5.1992,3.668 6.8322,6.583 1.652,2.933 2.469,5.98 2.469,9.132 0,3.301 -1.004,5.899 -3.02,7.817 -2.035,1.914 -5.082,2.883 -9.1835,2.883 -2.2149,0 -4.8985,-0.286 -8.0664,-0.832 l -7.6172,-26.368" /><path
         id="path22"
         style="fill:#231f20;fill-opacity:1;fill-rule:nonzero;stroke:none"
         d="m 837.129,626.941 -7.563,-26.183 h 6.2 c 4.433,0 7.632,0.683 9.632,2.031 1.981,1.352 3.684,3.852 5.118,7.504 h 1.816 l -6.801,-24.035 h -1.949 c 0.586,2.015 0.883,3.75 0.883,5.183 0,1.399 -0.285,2.516 -0.848,3.368 -0.586,0.851 -1.351,1.464 -2.355,1.882 -0.996,0.399 -3.078,0.602 -6.282,0.602 h -6.281 l -6.402,-21.918 c -0.613,-2.117 -0.934,-3.734 -0.934,-4.832 0,-0.852 0.418,-1.602 1.219,-2.25 0.566,-0.453 1.949,-0.684 4.148,-0.684 h 5.868 c 6.351,0 11.433,1.133 15.25,3.368 3.832,2.25 7.265,6.164 10.285,11.73 h 1.816 l -6.25,-18.414 h -51.183 l 0.632,1.797 c 2.551,0.07 4.25,0.301 5.133,0.683 1.301,0.602 2.25,1.352 2.832,2.25 0.887,1.336 1.918,4.133 3.121,8.403 l 11.633,39.949 c 0.899,3.219 1.363,5.668 1.363,7.367 0,1.235 -0.433,2.199 -1.3,2.899 -0.868,0.703 -2.547,1.05 -5.047,1.05 h -1.035 l 0.586,1.817 h 47.562 l -4.098,-15.969 h -1.816 c 0.23,1.5 0.352,2.75 0.352,3.75 0,1.734 -0.418,3.184 -1.27,4.352 -1.117,1.5 -2.719,2.632 -4.832,3.418 -1.566,0.582 -5.168,0.882 -10.801,0.882 h -8.402" /><path
         id="path24"
         style="fill:none;stroke:#231f20;stroke-width:7.5005002;stroke-linecap:butt;stroke-linejoin:miter;stroke-miterlimit:2.61310005;stroke-dasharray:none;stroke-opacity:1"
         d="M 104.582,540.426 V 104.836" /><path
         id="path26"
         style="fill:none;stroke:#231f20;stroke-width:7.5005002;stroke-linecap:butt;stroke-linejoin:miter;stroke-miterlimit:2.61310005;stroke-dasharray:none;stroke-opacity:1"
         d="M 102.496,539.621 H 814.82" /><path
         id="path28"
         style="fill:#231f20;fill-opacity:1;fill-rule:nonzero;stroke:none"
         d="M 846.402,86.9531 838.59,60.7227 h 8.699 c 3.899,0 6.832,0.6132 8.766,1.8164 1.933,1.1992 3.933,3.7656 5.98,7.7148 h 1.852 l -6.883,-24.1172 h -1.949 c 0.48,1.9531 0.73,3.5508 0.73,4.836 0,1.9843 -0.664,3.5156 -1.98,4.5976 -1.321,1.1016 -3.785,1.6524 -7.403,1.6524 h -8.781 l -5.769,-19.9844 c -1.032,-3.5508 -1.563,-5.8985 -1.563,-7.0664 0,-1.2188 0.445,-2.1328 1.348,-2.7852 0.898,-0.664 3.086,-1.0976 6.566,-1.332 l -0.582,-1.8008 h -26.164 l 0.629,1.8008 c 2.535,0.0664 4.234,0.3008 5.066,0.6836 1.301,0.5664 2.27,1.3164 2.887,2.25 0.879,1.332 1.914,4.082 3.133,8.25 l 11.664,39.8984 c 0.934,3.2188 1.418,5.75 1.418,7.5703 0,0.8477 -0.219,1.5625 -0.633,2.1641 -0.433,0.6016 -1.051,1.0469 -1.883,1.3477 -0.832,0.2851 -2.484,0.4335 -4.953,0.4335 l 0.586,1.8204 h 51.363 l -4.879,-16.75 h -1.867 c 0.364,2.0156 0.547,3.664 0.547,4.9804 0,2.1485 -0.601,3.8516 -1.781,5.1016 -1.199,1.25 -2.715,2.1328 -4.566,2.6484 -1.301,0.336 -4.219,0.5 -8.75,0.5 h -13.036" /><path
         id="path30"
         style="fill:#231f20;fill-opacity:1;fill-rule:nonzero;stroke:none"
         d="m 1416.17,573.078 0.58,1.817 h 21.15 c 8.95,0 15.58,-1.036 19.89,-3.083 4.31,-2.05 7.76,-5.285 10.33,-9.683 2.56,-4.418 3.86,-9.152 3.86,-14.199 0,-4.317 -0.75,-8.535 -2.23,-12.618 -1.48,-4.085 -3.15,-7.351 -5.03,-9.816 -1.87,-2.453 -4.74,-5.168 -8.62,-8.137 -3.87,-2.945 -8.06,-5.148 -12.58,-6.562 -4.54,-1.418 -10.19,-2.117 -16.95,-2.117 h -28.03 l 0.63,1.8 c 2.58,0.067 4.3,0.297 5.18,0.68 1.3,0.57 2.27,1.32 2.88,2.254 0.94,1.363 2,4.113 3.17,8.246 l 11.72,40.051 c 0.92,3.148 1.36,5.633 1.36,7.418 0,1.266 -0.41,2.25 -1.26,2.93 -0.85,0.683 -2.5,1.019 -4.99,1.019 z m 17.33,-1.851 -14.35,-49.567 c -1.08,-3.699 -1.62,-5.996 -1.62,-6.883 0,-0.515 0.17,-1.015 0.52,-1.515 0.33,-0.485 0.8,-0.801 1.38,-0.965 0.86,-0.301 2.22,-0.453 4.11,-0.453 5.11,0 9.86,0.535 14.23,1.601 4.38,1.051 7.96,2.617 10.77,4.7 3.98,3.035 7.14,7.203 9.53,12.5 2.36,5.316 3.55,11.347 3.55,18.117 0,7.648 -1.82,13.347 -5.47,17.066 -3.63,3.731 -8.97,5.602 -15.97,5.602 -1.72,0 -3.95,-0.071 -6.68,-0.203" /><path
         id="path32"
         style="fill:none;stroke:#231f20;stroke-width:7.5005002;stroke-linecap:butt;stroke-linejoin:miter;stroke-miterlimit:2.61310005;stroke-dasharray:none;stroke-opacity:1"
         d="M 102.496,107.621 H 814.82" /><path
         id="path34"
         style="fill:none;stroke:#231f20;stroke-width:7.5005002;stroke-linecap:butt;stroke-linejoin:miter;stroke-miterlimit:2.61310005;stroke-dasharray:none;stroke-opacity:1"
         d="M 811.051,539.672 V 104.082" /><path
         id="path36"
         style="fill:none;stroke:#231f20;stroke-width:7.5005002;stroke-linecap:butt;stroke-linejoin:miter;stroke-miterlimit:2.61310005;stroke-dasharray:none;stroke-opacity:1"
         d="M 103.84,106.715 671.828,536.594" /><path
         id="path38"
         style="fill:none;stroke:#231f20;stroke-width:7.5005002;stroke-linecap:butt;stroke-linejoin:miter;stroke-miterlimit:2.61310005;stroke-dasharray:none;stroke-opacity:1"
         d="M 811.867,106.34 1382.83,538.473" /><path
         id="path40"
         style="fill:none;stroke:#231f20;stroke-width:7.5005002;stroke-linecap:butt;stroke-linejoin:miter;stroke-miterlimit:2.61310005;stroke-dasharray:none;stroke-opacity:1"
         d="M 813.141,539.457 H 1387.36" /><path
         id="path42"
         style="fill:#231f20;fill-opacity:1;fill-rule:nonzero;stroke:none"
         d="m 450.906,36.5312 c -5.23,4.3008 -8.613,7.75 -10.129,10.3477 -1.504,2.6055 -2.269,5.3008 -2.269,8.1016 0,4.3007 1.668,8 4.984,11.1172 3.317,3.0976 7.735,4.6679 13.235,4.6679 5.332,0 9.632,-1.4492 12.882,-4.3515 3.266,-2.8985 4.883,-6.1993 4.883,-9.9141 0,-2.4688 -0.867,-5.0039 -2.633,-7.5664 -1.75,-2.5703 -5.418,-5.6016 -10.98,-9.0859 5.73,-4.418 9.516,-7.8985 11.379,-10.4493 2.469,-3.3164 3.703,-6.8164 3.703,-10.5 0,-4.6484 -1.77,-8.6328 -5.32,-11.93356 -3.547,-3.29687 -8.2,-4.94922 -13.965,-4.94922 -6.285,0 -11.184,1.96485 -14.699,5.89844 -2.801,3.16794 -4.204,6.61714 -4.204,10.35154 0,2.9336 0.985,5.8321 2.969,8.7149 1.969,2.8828 5.348,6.0664 10.164,9.5507 z m 7.668,5.2188 c 3.918,3.5156 6.383,6.2969 7.434,8.332 1.035,2.0352 1.551,4.3321 1.551,6.9141 0,3.418 -0.95,6.0859 -2.868,8.0195 -1.933,1.9492 -4.546,2.918 -7.863,2.918 -3.316,0 -6.019,-0.9688 -8.101,-2.8867 -2.086,-1.9141 -3.133,-4.168 -3.133,-6.7305 0,-1.7031 0.433,-3.3867 1.297,-5.082 0.851,-1.7032 2.082,-3.3047 3.683,-4.836 z m -5.363,-7.0664 c -2.703,-2.2852 -4.703,-4.7695 -6.004,-7.4531 -1.297,-2.6797 -1.949,-5.5977 -1.949,-8.7149 0,-4.1992 1.133,-7.5664 3.437,-10.08201 2.297,-2.51953 5.215,-3.78515 8.762,-3.78515 3.52,0 6.332,0.98437 8.453,2.98437 2.117,1.98438 3.164,4.38279 3.164,7.21489 0,2.3515 -0.613,4.4531 -1.847,6.3007 -2.321,3.4493 -6.985,7.9688 -14.016,13.5352" /></g></g></svg>