<?xml version="1.0" encoding="UTF-8" standalone="no"?>
<svg
   xmlns:dc="http://purl.org/dc/elements/1.1/"
   xmlns:cc="http://creativecommons.org/ns#"
   xmlns:rdf="http://www.w3.org/1999/02/22-rdf-syntax-ns#"
   xmlns:svg="http://www.w3.org/2000/svg"
   xmlns="http://www.w3.org/2000/svg"
   viewBox="0 0 197.33333 82.666664"
   height="82.666664"
   width="197.33333"
   xml:space="preserve"
   id="svg2"
   version="1.1"><metadata
     id="metadata8"><rdf:RDF><cc:Work
         rdf:about=""><dc:format>image/svg+xml</dc:format><dc:type
           rdf:resource="http://purl.org/dc/dcmitype/StillImage" /></cc:Work></rdf:RDF></metadata><defs
     id="defs6" /><g
     transform="matrix(1.3333333,0,0,-1.3333333,0,82.666667)"
     id="g10"><g
       transform="scale(0.1)"
       id="g12"><path
         id="path14"
         style="fill:#231f20;fill-opacity:1;fill-rule:nonzero;stroke:none"
         d="m 271.547,176 c 1.887,4.453 4.269,7.902 7.152,10.316 2.883,2.434 6.465,3.653 10.766,3.653 5.301,0 9.367,-1.735 12.203,-5.188 2.148,-2.562 3.234,-5.312 3.234,-8.246 0,-4.816 -3.039,-9.801 -9.086,-14.933 4.067,-1.602 7.133,-3.883 9.219,-6.852 2.082,-2.949 3.129,-6.43 3.129,-10.449 0,-5.715 -1.816,-10.684 -5.465,-14.883 -4.75,-5.465 -11.633,-8.199 -20.652,-8.199 -4.465,0 -7.496,0.547 -9.113,1.652 -1.602,1.113 -2.418,2.297 -2.418,3.567 0,0.949 0.382,1.781 1.148,2.5 0.77,0.714 1.684,1.062 2.766,1.062 0.804,0 1.636,-0.133 2.488,-0.383 0.551,-0.164 1.801,-0.765 3.762,-1.781 1.953,-1.035 3.304,-1.637 4.05,-1.836 1.2,-0.363 2.485,-0.531 3.852,-0.531 3.316,0 6.215,1.281 8.668,3.851 2.465,2.563 3.684,5.614 3.684,9.133 0,2.563 -0.571,5.082 -1.704,7.516 -0.847,1.816 -1.781,3.199 -2.781,4.148 -1.398,1.301 -3.316,2.485 -5.765,3.535 -2.434,1.067 -4.934,1.602 -7.469,1.602 h -1.567 v 1.465 c 2.567,0.316 5.149,1.25 7.735,2.781 2.601,1.52 4.484,3.367 5.648,5.516 1.168,2.152 1.75,4.504 1.75,7.07 0,3.367 -1.047,6.062 -3.148,8.129 -2.102,2.07 -4.699,3.101 -7.836,3.101 -5.047,0 -9.25,-2.699 -12.649,-8.097 L 271.547,176" /><path
         id="path16"
         style="fill:#231f20;fill-opacity:1;fill-rule:nonzero;stroke:none"
         d="m 320.082,155.102 c 0,7.55 1.133,14.046 3.418,19.5 2.281,5.449 5.301,9.515 9.082,12.183 2.934,2.117 5.949,3.184 9.082,3.184 5.066,0 9.637,-2.602 13.668,-7.77 5.051,-6.418 7.566,-15.097 7.566,-26.082 0,-7.683 -1.097,-14.199 -3.316,-19.566 -2.215,-5.383 -5.035,-9.281 -8.465,-11.699 -3.433,-2.434 -6.75,-3.633 -9.949,-3.633 -6.305,0 -11.57,3.719 -15.77,11.183 -3.55,6.282 -5.316,13.852 -5.316,22.7 z m 9.566,-1.215 c 0,-9.121 1.118,-16.571 3.368,-22.317 1.847,-4.851 4.632,-7.285 8.3,-7.285 1.766,0 3.582,0.801 5.465,2.367 1.899,1.582 3.332,4.235 4.301,7.934 1.5,5.598 2.25,13.496 2.25,23.684 0,7.546 -0.785,13.847 -2.348,18.898 -1.168,3.75 -2.687,6.398 -4.535,7.965 -1.336,1.066 -2.949,1.601 -4.836,1.601 -2.215,0 -4.179,-0.984 -5.914,-2.964 -2.332,-2.704 -3.933,-6.954 -4.781,-12.75 -0.852,-5.801 -1.27,-11.5 -1.27,-17.133" /><path
         id="path18"
         style="fill:#231f20;fill-opacity:1;fill-rule:nonzero;stroke:none"
         d="M 39.582,69.1602 55.9844,43.8086 c 2.9336,-4.4805 5.3672,-7.3672 7.2812,-8.6172 1.9219,-1.25 4.4532,-1.8828 7.5703,-1.8828 L 70.3008,31.5078 H 42.0703 l 0.4453,1.8008 c 2.2539,0.2344 3.836,0.7656 4.7539,1.6172 0.9297,0.8476 1.3985,1.8008 1.3985,2.8828 0,0.9844 -0.168,1.918 -0.4844,2.832 -0.2656,0.6524 -1.2148,2.2539 -2.832,4.7852 L 31.918,66.4766 25.418,44.543 c -1.0664,-3.5196 -1.6016,-5.8672 -1.6016,-7.086 0,-1.2304 0.4531,-2.164 1.3672,-2.8164 0.9023,-0.664 3.1523,-1.0976 6.7344,-1.332 L 31.1328,31.5078 H 4.96875 l 0.63281,1.8008 c 2.53516,0.0703 4.25,0.3008 5.13284,0.6836 1.3008,0.6016 2.25,1.3476 2.8672,2.25 0.8515,1.332 1.8984,4.0976 3.1328,8.3008 l 11.6679,40 c 0.8829,3.0468 1.3165,5.5156 1.3165,7.3672 0,1.3007 -0.418,2.2968 -1.2344,2.9804 -0.8321,0.6836 -2.4492,1.0196 -4.8672,1.0196 h -0.9805 l 0.5977,1.8164 h 24.8515 l -0.5,-1.8164 c -2.0507,0.0312 -3.5703,-0.1875 -4.582,-0.6836 -1.4023,-0.6836 -2.418,-1.5704 -3.0703,-2.6328 -0.6641,-1.0665 -1.6133,-3.7696 -2.8828,-8.0508 l -5.1328,-17 23.5351,17.7343 c 3.1289,2.3321 5.1797,4.1954 6.1485,5.5665 0.582,0.832 0.8828,1.5976 0.8828,2.2812 0,0.582 -0.3008,1.168 -0.8985,1.7188 -0.6015,0.5468 -1.5156,0.8984 -2.7656,1.0664 l 0.4961,1.8164 H 80.5 L 80.0664,95.9102 C 77.75,95.5273 75.8008,95.0117 74.2344,94.375 72.6523,93.7422 71.0352,92.875 69.3672,91.7578 68.8828,91.4414 65.7031,89.0273 59.8516,84.543 L 39.582,69.1602" /><path
         id="path20"
         style="fill:#231f20;fill-opacity:1;fill-rule:nonzero;stroke:none"
         d="m 671.141,549.707 h -49.067 l 0.68,1.797 c 2.605,0.07 4.336,0.285 5.219,0.633 1.367,0.601 2.382,1.371 3.035,2.301 1,1.5 2.082,4.203 3.215,8.117 l 11.668,40.281 c 0.98,3.316 1.464,5.754 1.464,7.32 0,1.235 -0.449,2.199 -1.332,2.883 -0.898,0.684 -2.582,1.016 -5.066,1.016 -0.551,0 -0.984,0.015 -1.32,0.05 l 0.586,1.817 h 27.015 l -0.398,-1.817 c -3.016,0 -5.168,-0.285 -6.449,-0.867 -1.266,-0.597 -2.321,-1.55 -3.168,-2.883 -0.582,-0.886 -1.547,-3.617 -2.883,-8.218 l -11.469,-39.582 c -0.883,-3 -1.312,-5.082 -1.312,-6.25 0,-0.782 0.429,-1.535 1.312,-2.25 0.551,-0.5 1.801,-0.735 3.75,-0.735 h 6.402 c 4.649,0 8.348,0.586 11.082,1.75 2.016,0.887 3.887,2.2 5.571,3.969 0.914,0.969 2.512,3.399 4.832,7.266 l 1.265,2.199 h 1.817 l -6.449,-18.797" /><path
         id="path22"
         style="fill:#231f20;fill-opacity:1;fill-rule:nonzero;stroke:none"
         d="m 86.4141,605.328 -7.5664,-26.183 h 6.1992 c 4.4336,0 7.6367,0.683 9.6367,2.031 1.9805,1.351 3.6797,3.851 5.1172,7.504 h 1.8162 l -6.8006,-24.035 h -1.9492 c 0.582,2.015 0.8789,3.75 0.8789,5.183 0,1.399 -0.2813,2.516 -0.8477,3.367 -0.582,0.852 -1.3515,1.465 -2.3515,1.883 -0.9961,0.399 -3.0821,0.602 -6.2813,0.602 H 77.9805 L 71.582,553.762 c -0.6172,-2.117 -0.9336,-3.735 -0.9336,-4.832 0,-0.852 0.418,-1.602 1.2149,-2.254 0.5664,-0.449 1.9531,-0.68 4.1523,-0.68 h 5.8672 c 6.3477,0 11.4297,1.133 15.25,3.367 3.8322,2.25 7.2652,6.164 10.2852,11.731 h 1.816 l -6.25,-18.414 H 51.7969 l 0.6367,1.797 c 2.5469,0.07 4.25,0.3 5.1328,0.683 1.2969,0.602 2.25,1.352 2.832,2.25 0.8828,1.332 1.918,4.133 3.1172,8.402 l 11.6328,39.95 c 0.8985,3.218 1.3672,5.668 1.3672,7.367 0,1.234 -0.4336,2.199 -1.3008,2.898 -0.8671,0.703 -2.5468,1.051 -5.0468,1.051 h -1.0352 l 0.582,1.817 h 47.5662 l -4.097,-15.969 h -1.821 c 0.235,1.5 0.352,2.75 0.352,3.75 0,1.734 -0.414,3.183 -1.266,4.351 -1.117,1.5 -2.719,2.633 -4.832,3.418 -1.57,0.582 -5.168,0.883 -10.8006,0.883 h -8.4023" /><path
         id="path24"
         style="fill:#231f20;fill-opacity:1;fill-rule:nonzero;stroke:none"
         d="m 828.52,608.645 -7.817,-26.231 h 8.699 c 3.903,0 6.836,0.613 8.77,1.816 1.933,1.2 3.93,3.766 5.98,7.715 h 1.852 l -6.883,-24.117 h -1.949 c 0.48,1.953 0.73,3.551 0.73,4.836 0,1.984 -0.668,3.516 -1.98,4.598 -1.32,1.101 -3.785,1.652 -7.402,1.652 h -8.782 l -5.769,-19.984 c -1.031,-3.551 -1.563,-5.899 -1.563,-7.067 0,-1.218 0.446,-2.133 1.348,-2.785 0.898,-0.664 3.082,-1.098 6.566,-1.332 l -0.582,-1.801 H 793.57 l 0.633,1.801 c 2.535,0.066 4.231,0.301 5.067,0.684 1.3,0.566 2.265,1.316 2.886,2.25 0.879,1.332 1.914,4.082 3.129,8.25 l 11.668,39.898 c 0.934,3.219 1.418,5.754 1.418,7.57 0,0.848 -0.219,1.563 -0.637,2.164 -0.433,0.602 -1.046,1.051 -1.879,1.348 -0.835,0.285 -2.484,0.434 -4.953,0.434 l 0.582,1.82 h 51.368 l -4.883,-16.75 h -1.867 c 0.367,2.016 0.55,3.664 0.55,4.981 0,2.148 -0.601,3.851 -1.781,5.101 -1.199,1.25 -2.719,2.133 -4.566,2.649 -1.301,0.335 -4.219,0.5 -8.754,0.5 H 828.52" /><path
         id="path26"
         style="fill:none;stroke:#231f20;stroke-width:7.5005002;stroke-linecap:butt;stroke-linejoin:miter;stroke-miterlimit:2.61310005;stroke-dasharray:none;stroke-opacity:1"
         d="M 104.582,530.426 V 94.8359" /><path
         id="path28"
         style="fill:none;stroke:#231f20;stroke-width:7.5005002;stroke-linecap:butt;stroke-linejoin:miter;stroke-miterlimit:2.61310005;stroke-dasharray:none;stroke-opacity:1"
         d="M 102.496,529.621 H 814.82" /><path
         id="path30"
         style="fill:#231f20;fill-opacity:1;fill-rule:nonzero;stroke:none"
         d="m 825.258,69.4688 h 26.07 c 6.832,0 11.949,-1.4805 15.332,-4.4141 3.383,-2.9531 5.086,-6.5508 5.086,-10.7656 0,-3.3672 -1.086,-6.6211 -3.234,-9.7696 -2.153,-3.1679 -5.336,-5.7343 -9.571,-7.6992 -4.234,-1.9648 -8.8,-2.9492 -13.714,-2.9492 -3.067,0 -6.95,0.5469 -11.668,1.6641 l -5.282,-18.0664 c -1.234,-4.3008 -1.851,-7.1329 -1.851,-8.49614 0,-1.05469 0.433,-1.90235 1.316,-2.58594 0.887,-0.69922 2.985,-1.13281 6.301,-1.33203 l -0.484,-1.80078 h -26.332 l 0.55,1.80078 c 3.45,0 5.848,0.60156 7.2,1.78125 1.351,1.19922 2.8,4.46876 4.367,9.85156 l 10.933,37.6836 c 1.301,4.5312 1.95,7.5625 1.95,9.082 0,1.1485 -0.45,2.0821 -1.383,2.8321 -0.934,0.75 -2.969,1.1992 -6.133,1.3671 z m 9.117,-30.8633 c 3.687,-0.9532 6.652,-1.418 8.902,-1.418 3.535,0 6.766,0.7344 9.684,2.1992 2.914,1.4688 5.199,3.668 6.832,6.586 1.648,2.9296 2.465,5.9804 2.465,9.1328 0,3.2968 -1,5.8984 -3.016,7.8125 -2.035,1.9179 -5.082,2.8828 -9.183,2.8828 -2.215,0 -4.899,-0.2813 -8.067,-0.832 l -7.617,-26.3633" /><path
         id="path32"
         style="fill:#231f20;fill-opacity:1;fill-rule:nonzero;stroke:none"
         d="m 1428.51,511.855 -12.6,-10.199 c 1.98,0.352 3.83,0.535 5.52,0.535 1.63,0 3.13,-0.101 4.52,-0.285 1.38,-0.199 4.34,-0.816 8.88,-1.832 4.55,-1.035 8.51,-1.551 11.9,-1.551 3.6,0 6.68,0.633 9.2,1.883 2.52,1.25 4.96,3.348 7.35,6.282 l 1.61,-0.782 c -3.36,-4.816 -7.31,-8.301 -11.86,-10.433 -4.57,-2.133 -9.4,-3.2 -14.52,-3.2 -2.81,0 -6.7,0.567 -11.62,1.665 -7.51,1.667 -12.76,2.484 -15.77,2.484 -1.12,0 -2.06,-0.067 -2.78,-0.231 -0.71,-0.168 -1.78,-0.55 -3.21,-1.183 l -1.13,1.332 20.01,15.816 c -6.18,0.852 -10.87,3.567 -14.05,8.153 -3.2,4.582 -4.78,9.48 -4.78,14.699 0,7.133 2.15,14.5 6.46,22.113 4.31,7.617 9.84,13.52 16.56,17.699 6.71,4.184 13.31,6.27 19.79,6.27 4.82,0 8.92,-0.969 12.34,-2.918 3.4,-1.949 6.01,-4.797 7.88,-8.531 1.85,-3.715 2.78,-7.536 2.78,-11.453 0,-7.481 -2.13,-15.067 -6.4,-22.747 -4.26,-7.683 -9.56,-13.5 -15.89,-17.449 -6.34,-3.953 -13.06,-6.004 -20.19,-6.137 z m 18.32,66.118 c -3.27,0 -6.45,-0.801 -9.55,-2.418 -3.12,-1.614 -6.2,-4.246 -9.25,-7.914 -3.07,-3.649 -5.82,-8.453 -8.27,-14.368 -2.95,-7.3 -4.43,-14.183 -4.43,-20.668 0,-4.617 1.18,-8.714 3.56,-12.281 2.37,-3.551 6.02,-5.336 10.94,-5.336 2.93,0 5.83,0.735 8.68,2.2 2.87,1.453 5.83,3.953 8.9,7.468 3.9,4.485 7.17,10.199 9.82,17.133 2.63,6.934 3.95,13.383 3.95,19.332 0,4.402 -1.18,8.301 -3.57,11.719 -2.38,3.418 -5.97,5.133 -10.78,5.133" /><path
         id="path34"
         style="fill:none;stroke:#231f20;stroke-width:7.5005002;stroke-linecap:butt;stroke-linejoin:miter;stroke-miterlimit:2.61310005;stroke-dasharray:none;stroke-opacity:1"
         d="M 102.496,97.6211 H 814.82" /><path
         id="path36"
         style="fill:none;stroke:#231f20;stroke-width:7.5005002;stroke-linecap:butt;stroke-linejoin:miter;stroke-miterlimit:2.61310005;stroke-dasharray:none;stroke-opacity:1"
         d="M 811.051,529.672 V 94.082" /><path
         id="path38"
         style="fill:none;stroke:#231f20;stroke-width:7.5005002;stroke-linecap:butt;stroke-linejoin:miter;stroke-miterlimit:2.61310005;stroke-dasharray:none;stroke-opacity:1"
         d="M 103.84,96.7148 671.828,526.594" /><path
         id="path40"
         style="fill:none;stroke:#231f20;stroke-width:7.5005002;stroke-linecap:butt;stroke-linejoin:miter;stroke-miterlimit:2.61310005;stroke-dasharray:none;stroke-opacity:1"
         d="M 811.867,96.3398 1382.83,528.473" /><path
         id="path42"
         style="fill:none;stroke:#231f20;stroke-width:7.5005002;stroke-linecap:butt;stroke-linejoin:miter;stroke-miterlimit:2.61310005;stroke-dasharray:none;stroke-opacity:1"
         d="M 813.141,529.457 H 1387.36" /><path
         id="path44"
         style="fill:none;stroke:#231f20;stroke-width:7.5005002;stroke-linecap:butt;stroke-linejoin:miter;stroke-miterlimit:2.61310005;stroke-dasharray:none;stroke-opacity:1"
         d="m 190.586,160.957 c 26.559,-7.527 38.09,-30.105 34.578,-67.7304" /><path
         id="path46"
         style="fill:none;stroke:#231f20;stroke-width:5.00029993;stroke-linecap:butt;stroke-linejoin:miter;stroke-miterlimit:2.61310005;stroke-dasharray:none;stroke-opacity:1"
         d="m 385.055,210.172 c 7.832,0 14.175,-6.348 14.175,-14.172 0,-7.828 -6.343,-14.176 -14.175,-14.176 -7.825,0 -14.172,6.348 -14.172,14.176 0,7.824 6.347,14.172 14.172,14.172 z" /></g></g></svg>