<?xml version="1.0" encoding="UTF-8" standalone="no"?>
<svg
   xmlns:dc="http://purl.org/dc/elements/1.1/"
   xmlns:cc="http://creativecommons.org/ns#"
   xmlns:rdf="http://www.w3.org/1999/02/22-rdf-syntax-ns#"
   xmlns:svg="http://www.w3.org/2000/svg"
   xmlns="http://www.w3.org/2000/svg"
   viewBox="0 0 153.33333 121.33333"
   height="121.33333"
   width="153.33333"
   xml:space="preserve"
   id="svg2"
   version="1.1"><metadata
     id="metadata8"><rdf:RDF><cc:Work
         rdf:about=""><dc:format>image/svg+xml</dc:format><dc:type
           rdf:resource="http://purl.org/dc/dcmitype/StillImage" /></cc:Work></rdf:RDF></metadata><defs
     id="defs6" /><g
     transform="matrix(1.3333333,0,0,-1.3333333,0,121.33333)"
     id="g10"><g
       transform="scale(0.1)"
       id="g12"><path
         id="path14"
         style="fill:#231f20;fill-opacity:1;fill-rule:nonzero;stroke:none"
         d="m 1103.43,197.262 -5.03,-55.063 c -0.27,-2.586 -0.38,-4.269 -0.38,-5.086 0,-1.301 0.23,-2.301 0.73,-2.984 0.62,-0.93 1.45,-1.633 2.5,-2.098 1.07,-0.453 2.85,-0.683 5.35,-0.683 l -0.53,-1.801 H 1080 l 0.53,1.801 h 1.12 c 2.12,0 3.85,0.464 5.18,1.367 0.94,0.633 1.67,1.648 2.21,3.082 0.34,1.019 0.69,3.383 1.01,7.133 l 0.78,8.402 h -18.95 l -6.73,-9.133 c -1.53,-2.054 -2.49,-3.535 -2.88,-4.418 -0.39,-0.902 -0.59,-1.734 -0.59,-2.515 0,-1.055 0.42,-1.934 1.27,-2.688 0.85,-0.746 2.25,-1.164 4.2,-1.23 l -0.53,-1.801 h -19.59 l 0.54,1.801 c 2.41,0.097 4.53,0.914 6.38,2.418 1.84,1.515 4.57,4.746 8.22,9.699 l 39.54,53.797 z m -9.66,-16.25 -19.2,-26.114 h 16.64 l 2.56,26.114" /><path
         id="path16"
         style="fill:none;stroke:#231f20;stroke-width:2.16000009;stroke-linecap:butt;stroke-linejoin:miter;stroke-miterlimit:2.61310005;stroke-dasharray:none;stroke-opacity:1"
         d="m 1027.16,792.172 h 113.094 V 904.68 H 1027.16 Z" /><path
         id="path18"
         style="fill:none;stroke:#231f20;stroke-width:2.16000009;stroke-linecap:butt;stroke-linejoin:miter;stroke-miterlimit:2.61310005;stroke-dasharray:none;stroke-opacity:1"
         d="m 1027.16,679.672 h 113.094 v 112.5 H 1027.16 Z" /><path
         id="path20"
         style="fill:none;stroke:#231f20;stroke-width:2.16000009;stroke-linecap:butt;stroke-linejoin:miter;stroke-miterlimit:2.61310005;stroke-dasharray:none;stroke-opacity:1"
         d="m 1027.16,567.168 h 113.094 V 679.672 H 1027.16 Z" /><path
         id="path22"
         style="fill:none;stroke:#231f20;stroke-width:2.16000009;stroke-linecap:butt;stroke-linejoin:miter;stroke-miterlimit:2.61310005;stroke-dasharray:none;stroke-opacity:1"
         d="m 1027.16,454.664 h 113.094 V 567.168 H 1027.16 Z" /><path
         id="path24"
         style="fill:none;stroke:#231f20;stroke-width:2.16000009;stroke-linecap:butt;stroke-linejoin:miter;stroke-miterlimit:2.61310005;stroke-dasharray:none;stroke-opacity:1"
         d="m 1027.16,342.16 h 113.094 V 454.664 H 1027.16 Z" /><path
         id="path26"
         style="fill:none;stroke:#231f20;stroke-width:2.16000009;stroke-linecap:butt;stroke-linejoin:miter;stroke-miterlimit:2.61310005;stroke-dasharray:none;stroke-opacity:1"
         d="m 1027.16,229.656 h 113.094 V 342.16 H 1027.16 Z" /><path
         id="path28"
         style="fill:none;stroke:#231f20;stroke-width:2.16000009;stroke-linecap:butt;stroke-linejoin:miter;stroke-miterlimit:2.61310005;stroke-dasharray:none;stroke-opacity:1"
         d="m 1027.16,117.152 h 113.094 V 229.656 H 1027.16 Z" /><path
         id="path30"
         style="fill:none;stroke:#231f20;stroke-width:2.16000009;stroke-linecap:butt;stroke-linejoin:miter;stroke-miterlimit:2.61310005;stroke-dasharray:none;stroke-opacity:1"
         d="m 1027.16,4.64844 h 113.094 v 112.504 H 1027.16 Z" /><path
         id="path32"
         style="fill:none;stroke:#231f20;stroke-width:2.16000009;stroke-linecap:butt;stroke-linejoin:miter;stroke-miterlimit:2.61310005;stroke-dasharray:none;stroke-opacity:1"
         d="m 914.062,792.172 h 113.094 V 904.68 H 914.062 Z" /><path
         id="path34"
         style="fill:none;stroke:#231f20;stroke-width:2.16000009;stroke-linecap:butt;stroke-linejoin:miter;stroke-miterlimit:2.61310005;stroke-dasharray:none;stroke-opacity:1"
         d="m 914.062,679.672 h 113.094 v 112.5 H 914.062 Z" /><path
         id="path36"
         style="fill:none;stroke:#231f20;stroke-width:2.16000009;stroke-linecap:butt;stroke-linejoin:miter;stroke-miterlimit:2.61310005;stroke-dasharray:none;stroke-opacity:1"
         d="m 914.062,567.168 h 113.094 V 679.672 H 914.062 Z" /><path
         id="path38"
         style="fill:none;stroke:#231f20;stroke-width:2.16000009;stroke-linecap:butt;stroke-linejoin:miter;stroke-miterlimit:2.61310005;stroke-dasharray:none;stroke-opacity:1"
         d="m 914.062,454.664 h 113.094 V 567.168 H 914.062 Z" /><path
         id="path40"
         style="fill:none;stroke:#231f20;stroke-width:2.16000009;stroke-linecap:butt;stroke-linejoin:miter;stroke-miterlimit:2.61310005;stroke-dasharray:none;stroke-opacity:1"
         d="m 914.062,342.16 h 113.094 V 454.664 H 914.062 Z" /><path
         id="path42"
         style="fill:none;stroke:#231f20;stroke-width:2.16000009;stroke-linecap:butt;stroke-linejoin:miter;stroke-miterlimit:2.61310005;stroke-dasharray:none;stroke-opacity:1"
         d="m 914.062,229.656 h 113.094 V 342.16 H 914.062 Z" /><path
         id="path44"
         style="fill:none;stroke:#231f20;stroke-width:2.16000009;stroke-linecap:butt;stroke-linejoin:miter;stroke-miterlimit:2.61310005;stroke-dasharray:none;stroke-opacity:1"
         d="m 914.062,117.152 h 113.094 V 229.656 H 914.062 Z" /><path
         id="path46"
         style="fill:none;stroke:#231f20;stroke-width:2.16000009;stroke-linecap:butt;stroke-linejoin:miter;stroke-miterlimit:2.61310005;stroke-dasharray:none;stroke-opacity:1"
         d="m 914.062,4.64844 h 113.094 v 112.504 H 914.062 Z" /><path
         id="path48"
         style="fill:none;stroke:#231f20;stroke-width:2.16000009;stroke-linecap:butt;stroke-linejoin:miter;stroke-miterlimit:2.61310005;stroke-dasharray:none;stroke-opacity:1"
         d="M 800.969,792.172 H 914.063 V 904.68 H 800.969 Z" /><path
         id="path50"
         style="fill:none;stroke:#231f20;stroke-width:2.16000009;stroke-linecap:butt;stroke-linejoin:miter;stroke-miterlimit:2.61310005;stroke-dasharray:none;stroke-opacity:1"
         d="m 800.969,679.672 h 113.094 v 112.5 H 800.969 Z" /><path
         id="path52"
         style="fill:none;stroke:#231f20;stroke-width:2.16000009;stroke-linecap:butt;stroke-linejoin:miter;stroke-miterlimit:2.61310005;stroke-dasharray:none;stroke-opacity:1"
         d="M 800.969,567.168 H 914.063 V 679.672 H 800.969 Z" /><path
         id="path54"
         style="fill:none;stroke:#231f20;stroke-width:2.16000009;stroke-linecap:butt;stroke-linejoin:miter;stroke-miterlimit:2.61310005;stroke-dasharray:none;stroke-opacity:1"
         d="M 800.969,454.664 H 914.063 V 567.168 H 800.969 Z" /><path
         id="path56"
         style="fill:none;stroke:#231f20;stroke-width:2.16000009;stroke-linecap:butt;stroke-linejoin:miter;stroke-miterlimit:2.61310005;stroke-dasharray:none;stroke-opacity:1"
         d="M 800.969,342.16 H 914.063 V 454.664 H 800.969 Z" /><path
         id="path58"
         style="fill:none;stroke:#231f20;stroke-width:2.16000009;stroke-linecap:butt;stroke-linejoin:miter;stroke-miterlimit:2.61310005;stroke-dasharray:none;stroke-opacity:1"
         d="M 800.969,229.656 H 914.063 V 342.16 H 800.969 Z" /><path
         id="path60"
         style="fill:none;stroke:#231f20;stroke-width:2.16000009;stroke-linecap:butt;stroke-linejoin:miter;stroke-miterlimit:2.61310005;stroke-dasharray:none;stroke-opacity:1"
         d="M 800.969,117.152 H 914.063 V 229.656 H 800.969 Z" /><path
         id="path62"
         style="fill:none;stroke:#231f20;stroke-width:2.16000009;stroke-linecap:butt;stroke-linejoin:miter;stroke-miterlimit:2.61310005;stroke-dasharray:none;stroke-opacity:1"
         d="m 800.969,4.64844 h 113.094 v 112.504 H 800.969 Z" /><path
         id="path64"
         style="fill:none;stroke:#231f20;stroke-width:2.16000009;stroke-linecap:butt;stroke-linejoin:miter;stroke-miterlimit:2.61310005;stroke-dasharray:none;stroke-opacity:1"
         d="M 687.875,792.172 H 800.969 V 904.68 H 687.875 Z" /><path
         id="path66"
         style="fill:none;stroke:#231f20;stroke-width:2.16000009;stroke-linecap:butt;stroke-linejoin:miter;stroke-miterlimit:2.61310005;stroke-dasharray:none;stroke-opacity:1"
         d="m 687.875,679.672 h 113.094 v 112.5 H 687.875 Z" /><path
         id="path68"
         style="fill:none;stroke:#231f20;stroke-width:2.16000009;stroke-linecap:butt;stroke-linejoin:miter;stroke-miterlimit:2.61310005;stroke-dasharray:none;stroke-opacity:1"
         d="M 687.875,567.168 H 800.969 V 679.672 H 687.875 Z" /><path
         id="path70"
         style="fill:none;stroke:#231f20;stroke-width:2.16000009;stroke-linecap:butt;stroke-linejoin:miter;stroke-miterlimit:2.61310005;stroke-dasharray:none;stroke-opacity:1"
         d="M 687.875,454.664 H 800.969 V 567.168 H 687.875 Z" /><path
         id="path72"
         style="fill:none;stroke:#231f20;stroke-width:2.16000009;stroke-linecap:butt;stroke-linejoin:miter;stroke-miterlimit:2.61310005;stroke-dasharray:none;stroke-opacity:1"
         d="M 687.875,342.16 H 800.969 V 454.664 H 687.875 Z" /><path
         id="path74"
         style="fill:none;stroke:#231f20;stroke-width:2.16000009;stroke-linecap:butt;stroke-linejoin:miter;stroke-miterlimit:2.61310005;stroke-dasharray:none;stroke-opacity:1"
         d="M 687.875,229.656 H 800.969 V 342.16 H 687.875 Z" /><path
         id="path76"
         style="fill:none;stroke:#231f20;stroke-width:2.16000009;stroke-linecap:butt;stroke-linejoin:miter;stroke-miterlimit:2.61310005;stroke-dasharray:none;stroke-opacity:1"
         d="M 687.875,117.152 H 800.969 V 229.656 H 687.875 Z" /><path
         id="path78"
         style="fill:none;stroke:#231f20;stroke-width:2.16000009;stroke-linecap:butt;stroke-linejoin:miter;stroke-miterlimit:2.61310005;stroke-dasharray:none;stroke-opacity:1"
         d="m 687.875,4.64844 h 113.094 v 112.504 H 687.875 Z" /><path
         id="path80"
         style="fill:none;stroke:#231f20;stroke-width:2.16000009;stroke-linecap:butt;stroke-linejoin:miter;stroke-miterlimit:2.61310005;stroke-dasharray:none;stroke-opacity:1"
         d="M 574.781,792.172 H 687.875 V 904.68 H 574.781 Z" /><path
         id="path82"
         style="fill:none;stroke:#231f20;stroke-width:2.16000009;stroke-linecap:butt;stroke-linejoin:miter;stroke-miterlimit:2.61310005;stroke-dasharray:none;stroke-opacity:1"
         d="m 574.781,679.672 h 113.094 v 112.5 H 574.781 Z" /><path
         id="path84"
         style="fill:none;stroke:#231f20;stroke-width:2.16000009;stroke-linecap:butt;stroke-linejoin:miter;stroke-miterlimit:2.61310005;stroke-dasharray:none;stroke-opacity:1"
         d="M 574.781,567.168 H 687.875 V 679.672 H 574.781 Z" /><path
         id="path86"
         style="fill:none;stroke:#231f20;stroke-width:2.16000009;stroke-linecap:butt;stroke-linejoin:miter;stroke-miterlimit:2.61310005;stroke-dasharray:none;stroke-opacity:1"
         d="M 574.781,454.664 H 687.875 V 567.168 H 574.781 Z" /><path
         id="path88"
         style="fill:none;stroke:#231f20;stroke-width:2.16000009;stroke-linecap:butt;stroke-linejoin:miter;stroke-miterlimit:2.61310005;stroke-dasharray:none;stroke-opacity:1"
         d="M 574.781,342.16 H 687.875 V 454.664 H 574.781 Z" /><path
         id="path90"
         style="fill:none;stroke:#231f20;stroke-width:2.16000009;stroke-linecap:butt;stroke-linejoin:miter;stroke-miterlimit:2.61310005;stroke-dasharray:none;stroke-opacity:1"
         d="M 574.781,229.656 H 687.875 V 342.16 H 574.781 Z" /><path
         id="path92"
         style="fill:none;stroke:#231f20;stroke-width:2.16000009;stroke-linecap:butt;stroke-linejoin:miter;stroke-miterlimit:2.61310005;stroke-dasharray:none;stroke-opacity:1"
         d="M 574.781,117.152 H 687.875 V 229.656 H 574.781 Z" /><path
         id="path94"
         style="fill:none;stroke:#231f20;stroke-width:2.16000009;stroke-linecap:butt;stroke-linejoin:miter;stroke-miterlimit:2.61310005;stroke-dasharray:none;stroke-opacity:1"
         d="m 574.781,4.64844 h 113.094 v 112.504 H 574.781 Z" /><path
         id="path96"
         style="fill:none;stroke:#231f20;stroke-width:2.16000009;stroke-linecap:butt;stroke-linejoin:miter;stroke-miterlimit:2.61310005;stroke-dasharray:none;stroke-opacity:1"
         d="M 461.688,792.172 H 574.782 V 904.68 H 461.688 Z" /><path
         id="path98"
         style="fill:none;stroke:#231f20;stroke-width:2.16000009;stroke-linecap:butt;stroke-linejoin:miter;stroke-miterlimit:2.61310005;stroke-dasharray:none;stroke-opacity:1"
         d="m 461.688,679.672 h 113.094 v 112.5 H 461.688 Z" /><path
         id="path100"
         style="fill:none;stroke:#231f20;stroke-width:2.16000009;stroke-linecap:butt;stroke-linejoin:miter;stroke-miterlimit:2.61310005;stroke-dasharray:none;stroke-opacity:1"
         d="M 461.688,567.168 H 574.782 V 679.672 H 461.688 Z" /><path
         id="path102"
         style="fill:none;stroke:#231f20;stroke-width:2.16000009;stroke-linecap:butt;stroke-linejoin:miter;stroke-miterlimit:2.61310005;stroke-dasharray:none;stroke-opacity:1"
         d="M 461.688,454.664 H 574.782 V 567.168 H 461.688 Z" /><path
         id="path104"
         style="fill:none;stroke:#231f20;stroke-width:2.16000009;stroke-linecap:butt;stroke-linejoin:miter;stroke-miterlimit:2.61310005;stroke-dasharray:none;stroke-opacity:1"
         d="M 461.688,342.16 H 574.782 V 454.664 H 461.688 Z" /><path
         id="path106"
         style="fill:none;stroke:#231f20;stroke-width:2.16000009;stroke-linecap:butt;stroke-linejoin:miter;stroke-miterlimit:2.61310005;stroke-dasharray:none;stroke-opacity:1"
         d="M 461.688,229.656 H 574.782 V 342.16 H 461.688 Z" /><path
         id="path108"
         style="fill:none;stroke:#231f20;stroke-width:2.16000009;stroke-linecap:butt;stroke-linejoin:miter;stroke-miterlimit:2.61310005;stroke-dasharray:none;stroke-opacity:1"
         d="M 461.688,117.152 H 574.782 V 229.656 H 461.688 Z" /><path
         id="path110"
         style="fill:none;stroke:#231f20;stroke-width:2.16000009;stroke-linecap:butt;stroke-linejoin:miter;stroke-miterlimit:2.61310005;stroke-dasharray:none;stroke-opacity:1"
         d="m 461.688,4.64844 h 113.094 v 112.504 H 461.688 Z" /><path
         id="path112"
         style="fill:none;stroke:#231f20;stroke-width:2.16000009;stroke-linecap:butt;stroke-linejoin:miter;stroke-miterlimit:2.61310005;stroke-dasharray:none;stroke-opacity:1"
         d="M 348.594,792.172 H 461.688 V 904.68 H 348.594 Z" /><path
         id="path114"
         style="fill:none;stroke:#231f20;stroke-width:2.16000009;stroke-linecap:butt;stroke-linejoin:miter;stroke-miterlimit:2.61310005;stroke-dasharray:none;stroke-opacity:1"
         d="m 348.594,679.672 h 113.094 v 112.5 H 348.594 Z" /><path
         id="path116"
         style="fill:none;stroke:#231f20;stroke-width:2.16000009;stroke-linecap:butt;stroke-linejoin:miter;stroke-miterlimit:2.61310005;stroke-dasharray:none;stroke-opacity:1"
         d="M 348.594,567.168 H 461.688 V 679.672 H 348.594 Z" /><path
         id="path118"
         style="fill:none;stroke:#231f20;stroke-width:2.16000009;stroke-linecap:butt;stroke-linejoin:miter;stroke-miterlimit:2.61310005;stroke-dasharray:none;stroke-opacity:1"
         d="M 348.594,454.664 H 461.688 V 567.168 H 348.594 Z" /><path
         id="path120"
         style="fill:none;stroke:#231f20;stroke-width:2.16000009;stroke-linecap:butt;stroke-linejoin:miter;stroke-miterlimit:2.61310005;stroke-dasharray:none;stroke-opacity:1"
         d="M 348.594,342.16 H 461.688 V 454.664 H 348.594 Z" /><path
         id="path122"
         style="fill:none;stroke:#231f20;stroke-width:2.16000009;stroke-linecap:butt;stroke-linejoin:miter;stroke-miterlimit:2.61310005;stroke-dasharray:none;stroke-opacity:1"
         d="M 348.594,229.656 H 461.688 V 342.16 H 348.594 Z" /><path
         id="path124"
         style="fill:none;stroke:#231f20;stroke-width:2.16000009;stroke-linecap:butt;stroke-linejoin:miter;stroke-miterlimit:2.61310005;stroke-dasharray:none;stroke-opacity:1"
         d="M 348.594,117.152 H 461.688 V 229.656 H 348.594 Z" /><path
         id="path126"
         style="fill:none;stroke:#231f20;stroke-width:2.16000009;stroke-linecap:butt;stroke-linejoin:miter;stroke-miterlimit:2.61310005;stroke-dasharray:none;stroke-opacity:1"
         d="m 348.594,4.64844 h 113.094 v 112.504 H 348.594 Z" /><path
         id="path128"
         style="fill:none;stroke:#231f20;stroke-width:2.16000009;stroke-linecap:butt;stroke-linejoin:miter;stroke-miterlimit:2.61310005;stroke-dasharray:none;stroke-opacity:1"
         d="M 235.5,792.172 H 348.594 V 904.68 H 235.5 Z" /><path
         id="path130"
         style="fill:none;stroke:#231f20;stroke-width:2.16000009;stroke-linecap:butt;stroke-linejoin:miter;stroke-miterlimit:2.61310005;stroke-dasharray:none;stroke-opacity:1"
         d="m 235.5,679.672 h 113.094 v 112.5 H 235.5 Z" /><path
         id="path132"
         style="fill:none;stroke:#231f20;stroke-width:2.16000009;stroke-linecap:butt;stroke-linejoin:miter;stroke-miterlimit:2.61310005;stroke-dasharray:none;stroke-opacity:1"
         d="M 235.5,567.168 H 348.594 V 679.672 H 235.5 Z" /><path
         id="path134"
         style="fill:none;stroke:#231f20;stroke-width:2.16000009;stroke-linecap:butt;stroke-linejoin:miter;stroke-miterlimit:2.61310005;stroke-dasharray:none;stroke-opacity:1"
         d="M 235.5,454.664 H 348.594 V 567.168 H 235.5 Z" /><path
         id="path136"
         style="fill:none;stroke:#231f20;stroke-width:2.16000009;stroke-linecap:butt;stroke-linejoin:miter;stroke-miterlimit:2.61310005;stroke-dasharray:none;stroke-opacity:1"
         d="M 235.5,342.16 H 348.594 V 454.664 H 235.5 Z" /><path
         id="path138"
         style="fill:none;stroke:#231f20;stroke-width:2.16000009;stroke-linecap:butt;stroke-linejoin:miter;stroke-miterlimit:2.61310005;stroke-dasharray:none;stroke-opacity:1"
         d="M 235.5,229.656 H 348.594 V 342.16 H 235.5 Z" /><path
         id="path140"
         style="fill:none;stroke:#231f20;stroke-width:2.16000009;stroke-linecap:butt;stroke-linejoin:miter;stroke-miterlimit:2.61310005;stroke-dasharray:none;stroke-opacity:1"
         d="M 235.5,117.152 H 348.594 V 229.656 H 235.5 Z" /><path
         id="path142"
         style="fill:none;stroke:#231f20;stroke-width:2.16000009;stroke-linecap:butt;stroke-linejoin:miter;stroke-miterlimit:2.61310005;stroke-dasharray:none;stroke-opacity:1"
         d="m 235.5,4.64844 h 113.094 v 112.504 H 235.5 Z" /><path
         id="path144"
         style="fill:none;stroke:#231f20;stroke-width:2.16000009;stroke-linecap:butt;stroke-linejoin:miter;stroke-miterlimit:2.61310005;stroke-dasharray:none;stroke-opacity:1"
         d="M 122.406,792.172 H 235.5 V 904.68 H 122.406 Z" /><path
         id="path146"
         style="fill:none;stroke:#231f20;stroke-width:2.16000009;stroke-linecap:butt;stroke-linejoin:miter;stroke-miterlimit:2.61310005;stroke-dasharray:none;stroke-opacity:1"
         d="M 122.406,679.672 H 235.5 v 112.5 H 122.406 Z" /><path
         id="path148"
         style="fill:none;stroke:#231f20;stroke-width:2.16000009;stroke-linecap:butt;stroke-linejoin:miter;stroke-miterlimit:2.61310005;stroke-dasharray:none;stroke-opacity:1"
         d="M 122.406,567.168 H 235.5 V 679.672 H 122.406 Z" /><path
         id="path150"
         style="fill:none;stroke:#231f20;stroke-width:2.16000009;stroke-linecap:butt;stroke-linejoin:miter;stroke-miterlimit:2.61310005;stroke-dasharray:none;stroke-opacity:1"
         d="M 122.406,454.664 H 235.5 V 567.168 H 122.406 Z" /><path
         id="path152"
         style="fill:none;stroke:#231f20;stroke-width:2.16000009;stroke-linecap:butt;stroke-linejoin:miter;stroke-miterlimit:2.61310005;stroke-dasharray:none;stroke-opacity:1"
         d="M 122.406,342.16 H 235.5 V 454.664 H 122.406 Z" /><path
         id="path154"
         style="fill:none;stroke:#231f20;stroke-width:2.16000009;stroke-linecap:butt;stroke-linejoin:miter;stroke-miterlimit:2.61310005;stroke-dasharray:none;stroke-opacity:1"
         d="M 122.406,229.656 H 235.5 V 342.16 H 122.406 Z" /><path
         id="path156"
         style="fill:none;stroke:#231f20;stroke-width:2.16000009;stroke-linecap:butt;stroke-linejoin:miter;stroke-miterlimit:2.61310005;stroke-dasharray:none;stroke-opacity:1"
         d="M 122.406,117.152 H 235.5 V 229.656 H 122.406 Z" /><path
         id="path158"
         style="fill:none;stroke:#231f20;stroke-width:2.16000009;stroke-linecap:butt;stroke-linejoin:miter;stroke-miterlimit:2.61310005;stroke-dasharray:none;stroke-opacity:1"
         d="M 122.406,4.64844 H 235.5 v 112.504 H 122.406 Z" /><path
         id="path160"
         style="fill:none;stroke:#231f20;stroke-width:2.16000009;stroke-linecap:butt;stroke-linejoin:miter;stroke-miterlimit:2.61310005;stroke-dasharray:none;stroke-opacity:1"
         d="m 9.3125,792.172 h 113.094 V 904.68 H 9.3125 Z" /><path
         id="path162"
         style="fill:none;stroke:#231f20;stroke-width:2.16000009;stroke-linecap:butt;stroke-linejoin:miter;stroke-miterlimit:2.61310005;stroke-dasharray:none;stroke-opacity:1"
         d="m 9.3125,679.672 h 113.094 v 112.5 H 9.3125 Z" /><path
         id="path164"
         style="fill:none;stroke:#231f20;stroke-width:2.16000009;stroke-linecap:butt;stroke-linejoin:miter;stroke-miterlimit:2.61310005;stroke-dasharray:none;stroke-opacity:1"
         d="m 9.3125,567.168 h 113.094 V 679.672 H 9.3125 Z" /><path
         id="path166"
         style="fill:none;stroke:#231f20;stroke-width:2.16000009;stroke-linecap:butt;stroke-linejoin:miter;stroke-miterlimit:2.61310005;stroke-dasharray:none;stroke-opacity:1"
         d="m 9.3125,454.664 h 113.094 V 567.168 H 9.3125 Z" /><path
         id="path168"
         style="fill:none;stroke:#231f20;stroke-width:2.16000009;stroke-linecap:butt;stroke-linejoin:miter;stroke-miterlimit:2.61310005;stroke-dasharray:none;stroke-opacity:1"
         d="m 9.3125,342.16 h 113.094 V 454.664 H 9.3125 Z" /><path
         id="path170"
         style="fill:none;stroke:#231f20;stroke-width:2.16000009;stroke-linecap:butt;stroke-linejoin:miter;stroke-miterlimit:2.61310005;stroke-dasharray:none;stroke-opacity:1"
         d="m 9.3125,229.656 h 113.094 V 342.16 H 9.3125 Z" /><path
         id="path172"
         style="fill:none;stroke:#231f20;stroke-width:2.16000009;stroke-linecap:butt;stroke-linejoin:miter;stroke-miterlimit:2.61310005;stroke-dasharray:none;stroke-opacity:1"
         d="m 9.3125,117.152 h 113.094 V 229.656 H 9.3125 Z" /><path
         id="path174"
         style="fill:none;stroke:#231f20;stroke-width:2.16000009;stroke-linecap:butt;stroke-linejoin:miter;stroke-miterlimit:2.61310005;stroke-dasharray:none;stroke-opacity:1"
         d="m 9.3125,4.64844 h 113.094 v 112.504 H 9.3125 Z" /><path
         id="path176"
         style="fill:none;stroke:#231f20;stroke-width:10.00059986;stroke-linecap:butt;stroke-linejoin:miter;stroke-miterlimit:2.61310005;stroke-dasharray:none;stroke-opacity:1"
         d="M 1027.16,117.152 118.477,116.145" /><path
         id="path178"
         style="fill:none;stroke:#231f20;stroke-width:10.00059986;stroke-linecap:butt;stroke-linejoin:miter;stroke-miterlimit:2.61310005;stroke-dasharray:none;stroke-opacity:1"
         d="M 122.152,793.824 V 114.523" /><path
         id="path180"
         style="fill:none;stroke:#231f20;stroke-width:10.00059986;stroke-linecap:butt;stroke-linejoin:miter;stroke-miterlimit:2.61310005;stroke-dasharray:none;stroke-opacity:1"
         d="M 1027.16,117.152 121.309,792.805" /><path
         id="path182"
         style="fill:none;stroke:#231f20;stroke-width:5.00029993;stroke-linecap:butt;stroke-linejoin:miter;stroke-miterlimit:2.61310005;stroke-dasharray:none;stroke-opacity:1"
         d="M 889.391,219.113 C 865.422,197.844 856.504,164.242 862.668,118.285" /><path
         id="path184"
         style="fill:#231f20;fill-opacity:1;fill-rule:nonzero;stroke:none"
         d="m 112.879,194.355 -4.93,-21.429 h -1.769 l -0.184,5.383 c -0.164,1.949 -0.547,3.679 -1.133,5.214 -0.582,1.536 -1.468,2.852 -2.633,3.985 -1.168,1.113 -2.648,2 -4.4488,2.633 -1.7851,0.632 -3.7695,0.949 -5.9492,0.949 -5.8359,0 -10.9179,-1.602 -15.2851,-4.781 -5.5664,-4.067 -9.9336,-9.817 -13.0821,-17.235 -2.5976,-6.117 -3.9179,-12.316 -3.9179,-18.601 0,-6.414 1.8828,-11.532 5.6172,-15.364 3.75,-3.82 8.6171,-5.734 14.5976,-5.734 4.5352,0 8.5664,1.016 12.086,3.031 3.5312,2.02 6.8164,5.117 9.8513,9.317 h 2.281 c -3.566,-5.7 -7.5503,-9.883 -11.9019,-12.563 -4.3633,-2.687 -9.5976,-4.035 -15.6836,-4.035 -5.3984,0 -10.1797,1.133 -14.3476,3.398 -4.168,2.27 -7.3516,5.434 -9.5157,9.551 -2.1835,4.102 -3.2851,8.5 -3.2851,13.235 0,7.214 1.9492,14.25 5.8164,21.082 3.8672,6.832 9.1836,12.214 15.9336,16.117 6.7656,3.898 13.5664,5.847 20.4531,5.847 3.2149,0 6.8281,-0.746 10.8278,-2.281 1.754,-0.652 3.039,-0.984 3.801,-0.984 0.785,0 1.469,0.168 2.067,0.484 0.585,0.332 1.55,1.266 2.917,2.781 h 1.817" /><path
         id="path186"
         style="fill:#231f20;fill-opacity:1;fill-rule:nonzero;stroke:none"
         d="m 72.5508,867.207 0.6836,1.816 h 23.6367 c 3.9649,0 7.4959,-0.617 10.6129,-1.867 3.102,-1.234 5.438,-2.949 6.985,-5.168 1.551,-2.215 2.316,-4.566 2.316,-7.035 0,-3.812 -1.383,-7.246 -4.133,-10.332 -2.75,-3.066 -7.234,-5.348 -13.4489,-6.801 4.0159,-1.496 6.9489,-3.48 8.8519,-5.965 1.879,-2.464 2.828,-5.183 2.828,-8.148 0,-3.285 -0.844,-6.434 -2.547,-9.434 -1.684,-2.984 -3.867,-5.316 -6.516,-6.964 -2.652,-1.668 -5.8512,-2.887 -9.6012,-3.668 -2.668,-0.551 -6.836,-0.836 -12.5,-0.836 H 55.4531 l 0.6328,1.8 c 2.5508,0.071 4.2657,0.317 5.1836,0.735 1.3008,0.566 2.2305,1.297 2.7852,2.199 0.7812,1.234 1.8125,4.066 3.1133,8.5 l 11.8672,40.082 c 1.0195,3.387 1.5156,5.766 1.5156,7.137 0,1.199 -0.4453,2.148 -1.332,2.847 -0.8985,0.7 -2.5977,1.051 -5.1172,1.051 -0.5469,0 -1.0625,0.016 -1.5508,0.051 z m 9.9023,-27.484 c 2.1133,-0.067 3.6485,-0.102 4.5977,-0.102 6.7695,0 11.8008,1.469 15.1172,4.418 3.301,2.949 4.953,6.633 4.953,11.066 0,3.348 -1.019,5.965 -3.035,7.833 -2.016,1.867 -5.2344,2.8 -9.668,2.8 -1.1641,0 -2.6641,-0.183 -4.4805,-0.582 z m -9.6172,-32.618 c 3.5196,-0.468 6.2657,-0.683 8.25,-0.683 5.0821,0 9.5821,1.535 13.5,4.586 3.9336,3.066 5.8831,7.215 5.8831,12.449 0,4 -1.1995,7.133 -3.6331,9.383 -2.4179,2.25 -6.332,3.367 -11.7304,3.367 -1.0547,0 -2.3203,-0.051 -3.8203,-0.152 l -8.4493,-28.95" /></g></g></svg>