<?xml version="1.0" encoding="UTF-8" standalone="no"?>
<svg
   xmlns:dc="http://purl.org/dc/elements/1.1/"
   xmlns:cc="http://creativecommons.org/ns#"
   xmlns:rdf="http://www.w3.org/1999/02/22-rdf-syntax-ns#"
   xmlns:svg="http://www.w3.org/2000/svg"
   xmlns="http://www.w3.org/2000/svg"
   viewBox="0 0 150.69333 32.560001"
   height="32.560001"
   width="150.69333"
   xml:space="preserve"
   id="svg2"
   version="1.1"><metadata
     id="metadata8"><rdf:RDF><cc:Work
         rdf:about=""><dc:format>image/svg+xml</dc:format><dc:type
           rdf:resource="http://purl.org/dc/dcmitype/StillImage" /></cc:Work></rdf:RDF></metadata><defs
     id="defs6" /><g
     transform="matrix(1.3333333,0,0,-1.3333333,0,32.56)"
     id="g10"><g
       transform="scale(0.1)"
       id="g12"><path
         id="path14"
         style="fill:#1f1a17;fill-opacity:1;fill-rule:evenodd;stroke:none"
         d="m 101.598,124.777 c 0,-9.39 -7.6175,-17.011 -17.0082,-17.011 -9.3867,0 -17.0078,7.621 -17.0078,17.011 0,9.387 7.6211,17.008 17.0078,17.008 9.3907,0 17.0082,-7.621 17.0082,-17.008" /><path
         id="path16"
         style="fill:none;stroke:#1f1a17;stroke-width:7.08660984;stroke-linecap:butt;stroke-linejoin:miter;stroke-miterlimit:10;stroke-dasharray:none;stroke-opacity:1"
         d="m 101.598,124.777 c 0,-9.39 -7.6175,-17.011 -17.0082,-17.011 -9.3867,0 -17.0078,7.621 -17.0078,17.011 0,9.387 7.6211,17.008 17.0078,17.008 9.3907,0 17.0082,-7.621 17.0082,-17.008 z" /><path
         id="path18"
         style="fill:#1f1a17;fill-opacity:1;fill-rule:nonzero;stroke:none"
         d="M 1094.77,117.684 H 0 v 7.5 h 1094.77 z m 35.46,3.75 -70.55,-30.2387 0.91,1.8906 0.86,1.8868 0.79,1.8906 0.74,1.8906 0.68,1.8911 0.62,1.886 0.56,1.891 0.5,1.891 0.45,1.89 0.38,1.891 0.33,1.89 0.26,1.891 0.21,1.891 0.15,1.886 0.09,1.891 0.02,1.891 -0.02,1.89 -0.09,1.891 -0.15,1.887 -0.21,1.89 -0.26,1.891 -0.33,1.894 -0.38,1.887 -0.45,1.891 -0.5,1.89 -0.56,1.891 -0.62,1.887 -0.68,1.89 -0.74,1.891 -0.79,1.891 -0.86,1.89 -0.91,1.891 v 0 l 70.55,-30.242 v 0" /><path
         id="path20"
         style="fill:none;stroke:#000000;stroke-width:8;stroke-linecap:butt;stroke-linejoin:miter;stroke-miterlimit:10;stroke-dasharray:none;stroke-opacity:1"
         d="M 876.59,149.785 V 93.7852" /><path
         id="path22"
         style="fill:none;stroke:#000000;stroke-width:8;stroke-linecap:butt;stroke-linejoin:miter;stroke-miterlimit:10;stroke-dasharray:none;stroke-opacity:1"
         d="M 548.59,149.785 V 93.7852" /><path
         id="path24"
         style="fill:none;stroke:#000000;stroke-width:8;stroke-linecap:butt;stroke-linejoin:miter;stroke-miterlimit:10;stroke-dasharray:none;stroke-opacity:1"
         d="M 220.59,149.785 V 93.7852" /><path
         id="path26"
         style="fill:#000000;fill-opacity:1;fill-rule:nonzero;stroke:none"
         d="M 906.512,25.6641 V 19.0078 H 897.98 V 2.22656 h -7.734 V 19.0078 H 863.34 v 6 l 29.484,42.0938 h 5.156 V 25.6641 Z m -16.266,0 V 57.2109 L 867.934,25.6641 Z" /><path
         id="path28"
         style="fill:#000000;fill-opacity:1;fill-rule:nonzero;stroke:none"
         d="m 530.965,53.6953 c 1.812,4.2813 4.101,7.586 6.867,9.9141 2.766,2.3281 6.211,3.4922 10.336,3.4922 5.094,0 9,-1.6563 11.719,-4.9688 2.062,-2.4687 3.093,-5.1094 3.093,-7.9219 0,-4.625 -2.906,-9.4062 -8.718,-14.3437 3.906,-1.5313 6.859,-3.7188 8.859,-6.5625 2,-2.8438 3,-6.1875 3,-10.0313 0,-5.5 -1.75,-10.2656 -5.25,-14.29684 -4.562,-5.25 -11.172,-7.875 -19.828,-7.875 -4.281,0 -7.195,0.53125 -8.742,1.59375 -1.547,1.0625 -2.321,2.20313 -2.321,3.42188 0,0.90625 0.368,1.70312 1.102,2.39062 0.734,0.6875 1.617,1.03125 2.648,1.03125 0.782,0 1.579,-0.125 2.391,-0.375 0.531,-0.15625 1.734,-0.72656 3.609,-1.71093 1.875,-0.98438 3.172,-1.57032 3.891,-1.75782 1.156,-0.34375 2.391,-0.51562 3.703,-0.51562 3.188,0 5.961,1.23437 8.321,3.70312 2.359,2.46879 3.539,5.39059 3.539,8.76559 0,2.4688 -0.547,4.875 -1.641,7.2188 -0.813,1.75 -1.703,3.0781 -2.672,3.9844 -1.344,1.25 -3.187,2.3828 -5.531,3.3984 -2.344,1.0156 -4.735,1.5234 -7.172,1.5234 h -1.5 v 1.4063 c 2.469,0.3125 4.945,1.2031 7.43,2.6719 2.484,1.4687 4.289,3.2343 5.414,5.2968 1.125,2.0625 1.687,4.3282 1.687,6.7969 0,3.2188 -1.008,5.8203 -3.023,7.8047 -2.016,1.9844 -4.524,2.9766 -7.524,2.9766 -4.843,0 -8.89,-2.5938 -12.14,-7.7813 l -1.547,0.75" /><path
         id="path30"
         style="fill:#000000;fill-opacity:1;fill-rule:nonzero;stroke:none"
         d="M 243.926,14.8789 239.473,2.64453 h -37.5 v 1.73438 c 11.031,10.06249 18.797,18.28129 23.297,24.65629 4.5,6.375 6.75,12.2031 6.75,17.4843 0,4.0313 -1.235,7.3438 -3.704,9.9375 -2.468,2.5938 -5.421,3.8907 -8.859,3.8907 -3.125,0 -5.93,-0.9141 -8.414,-2.7422 -2.484,-1.8282 -4.32,-4.5078 -5.508,-8.0391 h -1.734 c 0.781,5.7813 2.789,10.2188 6.023,13.3125 3.235,3.0938 7.274,4.6406 12.117,4.6406 5.157,0 9.461,-1.6562 12.914,-4.9687 3.454,-3.3125 5.18,-7.2188 5.18,-11.7188 0,-3.2187 -0.75,-6.4375 -2.25,-9.6562 -2.312,-5.0625 -6.062,-10.4219 -11.25,-16.0781 -7.781,-8.5 -12.64,-13.625 -14.578,-15.37504 h 16.594 c 3.375,0 5.742,0.125 7.101,0.37504 1.36,0.25 2.586,0.7578 3.68,1.5234 1.094,0.7656 2.047,1.8516 2.859,3.2578 h 1.735" /><path
         id="path32"
         style="fill:#1f1a17;fill-opacity:1;fill-rule:evenodd;stroke:none"
         d="m 461.598,124.777 c 0,-9.39 -7.618,-17.011 -17.008,-17.011 -9.387,0 -17.008,7.621 -17.008,17.011 0,9.387 7.621,17.008 17.008,17.008 9.39,0 17.008,-7.621 17.008,-17.008" /><path
         id="path34"
         style="fill:none;stroke:#1f1a17;stroke-width:7.08660984;stroke-linecap:butt;stroke-linejoin:miter;stroke-miterlimit:10;stroke-dasharray:none;stroke-opacity:1"
         d="m 461.598,124.777 c 0,-9.39 -7.618,-17.011 -17.008,-17.011 -9.387,0 -17.008,7.621 -17.008,17.011 0,9.387 7.621,17.008 17.008,17.008 9.39,0 17.008,-7.621 17.008,-17.008 z" /><path
         id="path36"
         style="fill:#1f1a17;fill-opacity:1;fill-rule:evenodd;stroke:none"
         d="m 669.598,124.777 c 0,-9.39 -7.618,-17.011 -17.008,-17.011 -9.387,0 -17.008,7.621 -17.008,17.011 0,9.387 7.621,17.008 17.008,17.008 9.39,0 17.008,-7.621 17.008,-17.008" /><path
         id="path38"
         style="fill:none;stroke:#1f1a17;stroke-width:7.08660984;stroke-linecap:butt;stroke-linejoin:miter;stroke-miterlimit:10;stroke-dasharray:none;stroke-opacity:1"
         d="m 669.598,124.777 c 0,-9.39 -7.618,-17.011 -17.008,-17.011 -9.387,0 -17.008,7.621 -17.008,17.011 0,9.387 7.621,17.008 17.008,17.008 9.39,0 17.008,-7.621 17.008,-17.008 z" /><path
         id="path40"
         style="fill:#000000;fill-opacity:1;fill-rule:nonzero;stroke:none"
         d="m 83.668,178.875 -12.0938,-9.797 c 1.9063,0.344 3.6719,0.52 5.2969,0.52 1.5625,0 3.0078,-0.094 4.3359,-0.282 1.3282,-0.191 4.1719,-0.773 8.5313,-1.761 4.3594,-0.981 8.164,-1.473 11.4137,-1.477 3.469,0.004 6.414,0.606 8.836,1.809 2.422,1.203 4.774,3.211 7.055,6.023 l 1.547,-0.75 c -3.219,-4.625 -7.016,-7.965 -11.391,-10.012 -4.375,-2.043 -9.0154,-3.066 -13.9217,-3.07 -2.7187,0.004 -6.4375,0.535 -11.1562,1.594 -7.2188,1.594 -12.2656,2.394 -15.1406,2.394 -1.0938,0 -1.9844,-0.078 -2.6719,-0.238 -0.6875,-0.156 -1.7188,-0.527 -3.0938,-1.121 l -1.0781,1.262 19.2188,15.191 c -5.9375,0.809 -10.4375,3.418 -13.5,7.824 -3.0625,4.407 -4.5938,9.11 -4.5938,14.114 0,6.84 2.0703,13.918 6.211,21.23 4.1406,7.313 9.4375,12.977 15.8906,16.996 6.4531,4.012 12.789,6.02 19.0077,6.024 4.625,-0.004 8.57,-0.942 11.836,-2.817 3.266,-1.875 5.789,-4.601 7.57,-8.179 1.782,-3.579 2.672,-7.243 2.672,-10.989 0,-7.191 -2.047,-14.472 -6.14,-21.847 -4.094,-7.375 -9.18,-12.961 -15.258,-16.758 -6.0783,-3.793 -12.5393,-5.754 -19.383,-5.883 z m 17.578,63.473 c -3.1249,-0.004 -6.1796,-0.778 -9.164,-2.321 -2.9843,-1.55 -5.9453,-4.082 -8.8828,-7.593 -2.9375,-3.52 -5.5781,-8.121 -7.9219,-13.809 -2.8437,-7 -4.2656,-13.609 -4.2656,-19.824 0,-4.438 1.1406,-8.367 3.4219,-11.793 2.2812,-3.418 5.7812,-5.133 10.5,-5.133 2.8125,0 5.5937,0.703 8.3437,2.109 2.75,1.411 5.5938,3.797 8.5317,7.176 3.75,4.309 6.89,9.797 9.421,16.453 2.532,6.653 3.797,12.84 3.797,18.559 0,4.219 -1.14,7.969 -3.422,11.25 -2.281,3.281 -5.734,4.922 -10.359,4.926 v 0" /><path
         id="path42"
         style="fill:#000000;fill-opacity:1;fill-rule:nonzero;stroke:none"
         d="m 318.105,245.348 19.641,-49.828 10.641,37.214 c 0.875,3.063 1.312,5.438 1.312,7.129 0,1.153 -0.406,2.059 -1.219,2.715 -0.812,0.656 -2.328,0.985 -4.546,0.988 -0.375,-0.003 -0.766,0.012 -1.172,0.047 l 0.515,1.735 h 20.438 l -0.563,-1.735 c -2.125,0.028 -3.703,-0.191 -4.734,-0.656 -1.469,-0.66 -2.563,-1.504 -3.281,-2.535 -1,-1.469 -2.016,-4.031 -3.047,-7.688 l -14.953,-52.406 h -1.688 l -21.14,53.629 -11.297,-39.609 c -0.844,-3.004 -1.266,-5.297 -1.266,-6.891 0,-1.187 0.383,-2.086 1.149,-2.699 0.765,-0.61 2.585,-1.024 5.46,-1.238 l -0.468,-1.739 h -19.969 l 0.656,1.739 c 2.5,0.058 4.172,0.281 5.016,0.652 1.281,0.562 2.234,1.297 2.859,2.203 0.906,1.379 1.922,4.035 3.047,7.973 l 12.609,44.203 c -1.218,1.871 -2.523,3.16 -3.914,3.867 -1.39,0.699 -3.554,1.098 -6.492,1.195 l 0.516,1.735 h 15.89" /><path
         id="path44"
         style="fill:#000000;fill-opacity:1;fill-rule:nonzero;stroke:none"
         d="m 649.09,245.348 h 25.031 c 6.563,-0.004 11.469,-1.418 14.719,-4.246 3.25,-2.829 4.875,-6.274 4.875,-10.332 0,-3.223 -1.031,-6.348 -3.094,-9.375 -2.062,-3.036 -5.125,-5.497 -9.187,-7.387 -4.063,-1.891 -8.454,-2.836 -13.172,-2.836 -2.938,0 -6.672,0.531 -11.203,1.598 l -5.063,-17.348 c -1.187,-4.121 -1.781,-6.844 -1.781,-8.152 0,-1 0.422,-1.832 1.265,-2.489 0.844,-0.656 2.86,-1.074 6.047,-1.261 l -0.468,-1.739 h -25.266 l 0.516,1.739 c 3.312,0 5.617,0.57 6.914,1.71 1.297,1.141 2.695,4.29 4.195,9.442 l 10.5,36.191 c 1.25,4.34 1.875,7.246 1.875,8.715 0,1.094 -0.445,2 -1.336,2.723 -0.891,0.715 -2.852,1.152 -5.883,1.312 z m 8.765,-29.629 c 3.532,-0.903 6.375,-1.356 8.532,-1.356 3.406,0 6.508,0.703 9.304,2.106 2.797,1.406 4.985,3.515 6.563,6.332 1.578,2.808 2.367,5.73 2.367,8.765 0,3.153 -0.969,5.653 -2.906,7.5 -1.938,1.84 -4.875,2.762 -8.813,2.762 -2.125,0 -4.703,-0.265 -7.734,-0.797 l -7.313,-25.312" /><path
         id="path46"
         style="fill:#000000;fill-opacity:1;fill-rule:nonzero;stroke:none"
         d="m 443.012,245.348 5.859,-51.188 36.891,51.188 h 15.515 v -1.735 c -3.375,-0.218 -5.359,-0.437 -5.953,-0.656 -1.031,-0.406 -1.976,-1.219 -2.836,-2.437 -0.859,-1.219 -1.789,-3.563 -2.789,-7.032 l -11.765,-40.312 c -0.688,-2.344 -1.032,-4.188 -1.032,-5.531 0,-1.219 0.422,-2.141 1.266,-2.766 1.187,-0.906 3.062,-1.359 5.625,-1.359 h 1.125 l -0.422,-1.735 H 457.73 l 0.469,1.735 h 1.266 c 2.375,0 4.187,0.343 5.437,1.031 0.969,0.5 1.836,1.445 2.602,2.836 0.766,1.39 1.836,4.476 3.211,9.258 l 10.5,36.843 -37.078,-51.703 h -1.875 l -5.953,51.703 -11.344,-39.328 c -0.969,-3.344 -1.453,-5.594 -1.453,-6.75 0,-1.156 0.422,-2.039 1.265,-2.648 0.844,-0.61 2.891,-1.024 6.141,-1.242 l -0.516,-1.735 h -20.953 l 0.516,1.735 h 1.265 c 3.094,0 5.329,0.781 6.704,2.343 1,1.125 2.046,3.563 3.14,7.313 l 13.828,47.39 c -1.031,1.063 -2.015,1.782 -2.953,2.157 -0.937,0.375 -2.672,0.672 -5.203,0.89 l 0.469,1.735 h 15.797" /><path
         id="path48"
         style="fill:#1f1a17;fill-opacity:1;fill-rule:evenodd;stroke:none"
         d="m 325.598,124.777 c 0,-9.39 -7.618,-17.011 -17.008,-17.011 -9.387,0 -17.008,7.621 -17.008,17.011 0,9.387 7.621,17.008 17.008,17.008 9.39,0 17.008,-7.621 17.008,-17.008" /><path
         id="path50"
         style="fill:none;stroke:#1f1a17;stroke-width:7.08660984;stroke-linecap:butt;stroke-linejoin:miter;stroke-miterlimit:10;stroke-dasharray:none;stroke-opacity:1"
         d="m 325.598,124.777 c 0,-9.39 -7.618,-17.011 -17.008,-17.011 -9.387,0 -17.008,7.621 -17.008,17.011 0,9.387 7.621,17.008 17.008,17.008 9.39,0 17.008,-7.621 17.008,-17.008 z" /></g></g></svg>