<?xml version="1.0" encoding="UTF-8" standalone="no"?>
<svg
   xmlns:dc="http://purl.org/dc/elements/1.1/"
   xmlns:cc="http://creativecommons.org/ns#"
   xmlns:rdf="http://www.w3.org/1999/02/22-rdf-syntax-ns#"
   xmlns:svg="http://www.w3.org/2000/svg"
   xmlns="http://www.w3.org/2000/svg"
   viewBox="0 0 150.69333 35.613335"
   height="35.613335"
   width="150.69333"
   xml:space="preserve"
   id="svg2"
   version="1.1"><metadata
     id="metadata8"><rdf:RDF><cc:Work
         rdf:about=""><dc:format>image/svg+xml</dc:format><dc:type
           rdf:resource="http://purl.org/dc/dcmitype/StillImage" /></cc:Work></rdf:RDF></metadata><defs
     id="defs6" /><g
     transform="matrix(1.3333333,0,0,-1.3333333,0,35.613333)"
     id="g10"><g
       transform="scale(0.1)"
       id="g12"><path
         id="path14"
         style="fill:#1f1a17;fill-opacity:1;fill-rule:evenodd;stroke:none"
         d="m 597.598,135.484 c 0,-9.386 -7.618,-17.007 -17.008,-17.007 -9.387,0 -17.008,7.621 -17.008,17.007 0,9.391 7.621,17.008 17.008,17.008 9.39,0 17.008,-7.617 17.008,-17.008" /><path
         id="path16"
         style="fill:none;stroke:#1f1a17;stroke-width:7.08660984;stroke-linecap:butt;stroke-linejoin:miter;stroke-miterlimit:10;stroke-dasharray:none;stroke-opacity:1"
         d="m 597.598,135.484 c 0,-9.386 -7.618,-17.007 -17.008,-17.007 -9.387,0 -17.008,7.621 -17.008,17.007 0,9.391 7.621,17.008 17.008,17.008 9.39,0 17.008,-7.617 17.008,-17.008 z" /><path
         id="path18"
         style="fill:#1f1a17;fill-opacity:1;fill-rule:nonzero;stroke:none"
         d="M 1094.77,128.395 H 0 v 7.5 h 1094.77 z m 35.46,3.75 -70.55,-30.239 0.91,1.891 0.86,1.887 0.79,1.89 0.74,1.891 0.68,1.89 0.62,1.887 0.56,1.891 0.5,1.89 0.45,1.891 0.38,1.891 0.33,1.89 0.26,1.891 0.21,1.891 0.15,1.886 0.09,1.891 0.02,1.891 -0.02,1.89 -0.09,1.891 -0.15,1.887 -0.21,1.89 -0.26,1.891 -0.33,1.89 -0.38,1.891 -0.45,1.891 -0.5,1.89 -0.56,1.891 -0.62,1.887 -0.68,1.89 -0.74,1.891 -0.79,1.89 -0.86,1.887 -0.91,1.891 v 0 l 70.55,-30.238 v 0" /><path
         id="path20"
         style="fill:none;stroke:#000000;stroke-width:8;stroke-linecap:butt;stroke-linejoin:miter;stroke-miterlimit:10;stroke-dasharray:none;stroke-opacity:1"
         d="m 972.59,160.492 v -56" /><path
         id="path22"
         style="fill:none;stroke:#000000;stroke-width:8;stroke-linecap:butt;stroke-linejoin:miter;stroke-miterlimit:10;stroke-dasharray:none;stroke-opacity:1"
         d="m 692.59,160.492 v -56" /><path
         id="path24"
         style="fill:none;stroke:#000000;stroke-width:8;stroke-linecap:butt;stroke-linejoin:miter;stroke-miterlimit:10;stroke-dasharray:none;stroke-opacity:1"
         d="m 412.59,160.492 v -56" /><path
         id="path26"
         style="fill:none;stroke:#000000;stroke-width:8;stroke-linecap:butt;stroke-linejoin:miter;stroke-miterlimit:10;stroke-dasharray:none;stroke-opacity:1"
         d="m 132.59,160.492 v -56" /><path
         id="path28"
         style="fill:#000000;fill-opacity:1;fill-rule:nonzero;stroke:none"
         d="m 608.105,268.219 -5.031,-55.078 c -0.258,-2.571 -0.39,-4.266 -0.39,-5.078 0,-1.301 0.246,-2.297 0.734,-2.981 0.617,-0.941 1.457,-1.641 2.516,-2.098 1.054,-0.457 2.839,-0.683 5.343,-0.683 l -0.535,-1.809 h -26.074 l 0.535,1.809 h 1.125 c 2.113,0 3.84,0.457 5.176,1.367 0.941,0.617 1.676,1.645 2.195,3.074 0.36,1.012 0.699,3.387 1.028,7.129 l 0.781,8.399 h -18.945 l -6.739,-9.129 c -1.531,-2.051 -2.492,-3.524 -2.883,-4.418 -0.39,-0.899 -0.586,-1.735 -0.586,-2.516 0,-1.043 0.426,-1.937 1.27,-2.687 0.848,-0.747 2.246,-1.153 4.199,-1.219 l -0.535,-1.809 h -19.582 l 0.539,1.809 c 2.406,0.097 4.531,0.902 6.371,2.418 1.84,1.511 4.582,4.742 8.227,9.691 l 39.551,53.809 z m -9.667,-16.262 -19.192,-26.121 h 16.652 z" /><path
         id="path30"
         style="fill:#000000;fill-opacity:1;fill-rule:nonzero;stroke:none"
         d="M 152.293,13.8477 147.652,1.10156 H 108.59 v 1.8086 c 11.492,10.48044 19.582,19.04294 24.269,25.68364 4.688,6.6406 7.032,12.7109 7.032,18.2109 0,4.1992 -1.286,7.6523 -3.86,10.3516 -2.57,2.7031 -5.648,4.0546 -9.226,4.0546 -3.258,0 -6.176,-0.9531 -8.766,-2.8554 -2.586,-1.9063 -4.5,-4.6992 -5.738,-8.375 h -1.805 c 0.813,6.0195 2.906,10.6445 6.274,13.8672 3.371,3.2226 7.578,4.832 12.621,4.832 5.371,0 9.855,-1.7227 13.453,-5.1758 3.597,-3.4492 5.394,-7.5195 5.394,-12.207 0,-3.3516 -0.781,-6.7031 -2.343,-10.0586 C 143.488,35.9648 139.582,30.3828 134.176,24.4922 126.07,15.6367 121.008,10.2969 118.992,8.47656 h 17.285 c 3.516,0 5.981,0.12891 7.399,0.39063 1.414,0.25781 2.691,0.78906 3.832,1.58591 1.137,0.7969 2.133,1.9297 2.976,3.3946 h 1.809" /><path
         id="path32"
         style="fill:#000000;fill-opacity:1;fill-rule:nonzero;stroke:none"
         d="m 391.359,55.8867 c 1.891,4.461 4.274,7.9024 7.157,10.3281 2.879,2.4258 6.468,3.6368 10.765,3.6368 5.305,0 9.375,-1.7227 12.207,-5.1758 2.149,-2.5703 3.223,-5.3203 3.223,-8.25 0,-4.8203 -3.027,-9.8008 -9.082,-14.9414 4.07,-1.5977 7.144,-3.875 9.226,-6.836 2.086,-2.9648 3.125,-6.4453 3.125,-10.4492 0,-5.7304 -1.82,-10.6953 -5.468,-14.89451 -4.75,-5.46875 -11.637,-8.20313 -20.653,-8.20313 -4.461,0 -7.496,0.55469 -9.105,1.66016 -1.613,1.10937 -2.418,2.29687 -2.418,3.56641 0,0.9414 0.383,1.77343 1.148,2.48828 0.766,0.71875 1.684,1.07422 2.758,1.07422 0.813,0 1.645,-0.12891 2.488,-0.39063 0.555,-0.16016 1.809,-0.75391 3.762,-1.78125 1.953,-1.02344 3.305,-1.63672 4.051,-1.83203 1.207,-0.35547 2.492,-0.53516 3.859,-0.53516 3.321,0 6.211,1.28516 8.668,3.85547 2.457,2.57427 3.684,5.61717 3.684,9.13277 0,2.5704 -0.566,5.0782 -1.707,7.5196 -0.848,1.8203 -1.774,3.207 -2.785,4.1484 -1.399,1.3047 -3.321,2.4844 -5.762,3.543 -2.441,1.0547 -4.93,1.5859 -7.469,1.5859 h -1.562 v 1.4649 c 2.57,0.3242 5.152,1.2539 7.738,2.7812 2.59,1.5313 4.469,3.3711 5.641,5.5195 1.172,2.1485 1.757,4.5079 1.757,7.0782 0,3.3554 -1.05,6.0625 -3.148,8.1328 -2.102,2.0664 -4.715,3.0976 -7.84,3.0976 -5.043,0 -9.258,-2.6992 -12.644,-8.1054 l -1.614,0.7812" /><path
         id="path34"
         style="fill:#000000;fill-opacity:1;fill-rule:nonzero;stroke:none"
         d="M 707.949,25.5156 V 18.582 h -8.886 V 1.10156 h -8.059 V 18.582 h -28.027 v 6.25 l 30.714,43.8477 h 5.372 V 25.5156 Z m -16.945,0 V 58.3789 L 667.762,25.5156 Z" /><path
         id="path36"
         style="fill:#000000;fill-opacity:1;fill-rule:nonzero;stroke:none"
         d="m 987.215,68.4844 -3.809,-8.3008 h -19.922 l -4.347,-8.8867 c 8.629,-1.2696 15.465,-4.4766 20.508,-9.6172 4.332,-4.4297 6.496,-9.6367 6.496,-15.625 0,-3.4844 -0.707,-6.707 -2.125,-9.668 -1.414,-2.9648 -3.2,-5.4844 -5.348,-7.57029 -2.148,-2.08203 -4.539,-3.75782 -7.176,-5.02735 -3.746,-1.79297 -7.586,-2.6875 -11.523,-2.6875 -3.973,0 -6.86,0.67578 -8.668,2.02735 -1.805,1.35156 -2.711,2.83984 -2.711,4.46875 0,0.91015 0.375,1.71484 1.125,2.41794 0.746,0.6992 1.691,1.0469 2.832,1.0469 0.844,0 1.586,-0.1289 2.223,-0.3906 0.632,-0.2578 1.714,-0.92581 3.246,-2.00002 2.441,-1.69532 4.914,-2.53907 7.422,-2.53907 3.808,0 7.152,1.44141 10.035,4.32029 2.879,2.8828 4.32,6.3867 4.32,10.5235 0,4.0039 -1.285,7.7382 -3.859,11.207 -2.571,3.4648 -6.118,6.1406 -10.645,8.0312 -3.547,1.4649 -8.379,2.3086 -14.5,2.5391 l 12.695,25.7305 h 23.731" /></g></g></svg>