<?xml version="1.0" encoding="UTF-8" standalone="no"?>
<svg
   xmlns:dc="http://purl.org/dc/elements/1.1/"
   xmlns:cc="http://creativecommons.org/ns#"
   xmlns:rdf="http://www.w3.org/1999/02/22-rdf-syntax-ns#"
   xmlns:svg="http://www.w3.org/2000/svg"
   xmlns="http://www.w3.org/2000/svg"
   viewBox="0 0 150.69333 23.133333"
   height="23.133333"
   width="150.69333"
   xml:space="preserve"
   id="svg2"
   version="1.1"><metadata
     id="metadata8"><rdf:RDF><cc:Work
         rdf:about=""><dc:format>image/svg+xml</dc:format><dc:type
           rdf:resource="http://purl.org/dc/dcmitype/StillImage" /></cc:Work></rdf:RDF></metadata><defs
     id="defs6" /><g
     transform="matrix(1.3333333,0,0,-1.3333333,0,23.133333)"
     id="g10"><g
       transform="scale(0.1)"
       id="g12"><path
         id="path14"
         style="fill:#1f1a17;fill-opacity:1;fill-rule:nonzero;stroke:none"
         d="M 1094.77,138.5 H 0 v 7.504 h 1094.77 z m 35.46,3.75 -70.55,-30.238 0.91,1.89 0.86,1.887 0.79,1.891 0.74,1.89 0.68,1.891 0.62,1.891 0.56,1.89 0.5,1.891 0.45,1.89 0.38,1.887 0.33,1.891 0.26,1.89 0.21,1.891 0.15,1.887 0.09,1.89 0.02,1.891 -0.02,1.891 -0.09,1.894 -0.15,1.887 -0.21,1.891 -0.26,1.89 -0.33,1.891 -0.38,1.886 -0.45,1.891 -0.5,1.891 -0.56,1.89 -0.62,1.891 -0.68,1.891 -0.74,1.89 -0.79,1.891 -0.86,1.887 -0.91,1.89 v 0 l 70.55,-30.242 v 0" /><path
         id="path16"
         style="fill:none;stroke:#000000;stroke-width:8;stroke-linecap:butt;stroke-linejoin:miter;stroke-miterlimit:10;stroke-dasharray:none;stroke-opacity:1"
         d="m 812.59,170.602 v -56" /><path
         id="path18"
         style="fill:#000000;fill-opacity:1;fill-rule:nonzero;stroke:none"
         d="m 256.66,68.2656 -3.367,-11.2304 c 3.547,4.1679 6.711,7.082 9.496,8.7421 2.781,1.6602 5.621,2.4883 8.52,2.4883 2.898,0 5.371,-1.1484 7.421,-3.4414 2.051,-2.2969 3.079,-5.2812 3.079,-8.9609 0,-7.1602 -2.914,-14.4453 -8.743,-21.8516 -5.828,-7.4062 -12.613,-11.1054 -20.359,-11.1054 -1.629,0 -3.07,0.1757 -4.324,0.5351 -1.254,0.3594 -2.66,0.9922 -4.223,1.9063 L 240.598,12.75 c -0.719,-2.4766 -1.075,-4.08594 -1.075,-4.83594 0,-0.71484 0.184,-1.32812 0.559,-1.83203 0.375,-0.5039 0.984,-0.89453 1.832,-1.17187 0.848,-0.27735 2.524,-0.41407 5.031,-0.41407 l -0.441,-1.80468 h -22.996 l 0.488,1.80468 c 3.027,0.12891 5.067,0.65235 6.125,1.5625 1.059,0.91016 2.176,3.4336 3.348,7.57031 l 12.351,42.7734 c 0.75,2.6993 1.125,4.375 1.125,5.0274 0,0.8789 -0.254,1.5625 -0.757,2.0508 -0.504,0.4883 -1.278,0.7343 -2.321,0.7343 -0.945,0 -2.262,-0.1171 -3.953,-0.3437 v 1.9062 z M 245.285,29.2031 c 2.016,-2.4101 4.735,-3.6133 8.153,-3.6133 1.691,0 3.417,0.4727 5.175,1.418 1.758,0.9414 3.477,2.3438 5.153,4.1992 1.675,1.8555 3.179,3.9922 4.515,6.418 1.336,2.4258 2.532,5.2813 3.59,8.5703 1.059,3.2891 1.586,6.543 1.586,9.7656 0,2.6055 -0.594,4.5977 -1.781,5.9805 -1.188,1.3828 -2.582,2.0781 -4.176,2.0781 -3.516,0 -6.992,-2.0195 -10.426,-6.0547 -3.433,-4.039 -5.949,-8.7578 -7.543,-14.1601 l -4.246,-14.6016" /><path
         id="path20"
         style="fill:#000000;fill-opacity:1;fill-rule:nonzero;stroke:none"
         d="m 793.293,34.9883 c 0,7.5547 1.137,14.0547 3.418,19.5078 2.277,5.4531 5.305,9.5117 9.082,12.1836 2.93,2.1133 5.957,3.1719 9.082,3.1719 5.078,0 9.633,-2.586 13.672,-7.7618 5.043,-6.414 7.566,-15.1054 7.566,-26.0742 0,-7.6836 -1.105,-14.2109 -3.32,-19.582 -2.211,-5.3711 -5.035,-9.26954 -8.469,-11.69141 -3.437,-2.42578 -6.75,-3.64063 -9.937,-3.64063 -6.317,0 -11.574,3.72657 -15.774,11.18364 -3.547,6.2812 -5.32,13.8515 -5.32,22.7031 z m 9.57,-1.2188 c 0,-9.1172 1.121,-16.5547 3.367,-22.3164 1.856,-4.84763 4.625,-7.27341 8.301,-7.27341 1.758,0 3.582,0.78906 5.469,2.36719 1.891,1.57812 3.32,4.22262 4.297,7.93362 1.5,5.6015 2.246,13.4922 2.246,23.6836 0,7.5507 -0.781,13.8515 -2.344,18.8945 -1.172,3.7461 -2.683,6.3984 -4.539,7.9609 -1.336,1.0743 -2.945,1.6094 -4.836,1.6094 -2.211,0 -4.183,-0.9922 -5.906,-2.9766 -2.344,-2.7031 -3.941,-6.9492 -4.785,-12.746 -0.848,-5.793 -1.27,-11.5079 -1.27,-17.1368 v 0" /><path
         id="path22"
         style="fill:#1f1a17;fill-opacity:1;fill-rule:evenodd;stroke:none"
         d="m 292.59,146.602 c 0,-9.387 -7.617,-17.008 -17.008,-17.008 -9.387,0 -17.008,7.621 -17.008,17.008 0,9.386 7.621,17.007 17.008,17.007 9.391,0 17.008,-7.621 17.008,-17.007" /><path
         id="path24"
         style="fill:none;stroke:#1f1a17;stroke-width:7.08660984;stroke-linecap:butt;stroke-linejoin:miter;stroke-miterlimit:10;stroke-dasharray:none;stroke-opacity:1"
         d="m 292.59,146.602 c 0,-9.387 -7.617,-17.008 -17.008,-17.008 -9.387,0 -17.008,7.621 -17.008,17.008 0,9.386 7.621,17.007 17.008,17.007 9.391,0 17.008,-7.621 17.008,-17.007 z" /><path
         id="path26"
         style="fill:#1f1a17;fill-opacity:1;fill-rule:evenodd;stroke:none"
         d="m 598.605,146.602 c 0,-9.387 -7.617,-17.008 -17.007,-17.008 -9.387,0 -17.008,7.621 -17.008,17.008 0,9.386 7.621,17.007 17.008,17.007 9.39,0 17.007,-7.621 17.007,-17.007" /><path
         id="path28"
         style="fill:none;stroke:#1f1a17;stroke-width:7.08660984;stroke-linecap:butt;stroke-linejoin:miter;stroke-miterlimit:10;stroke-dasharray:none;stroke-opacity:1"
         d="m 598.605,146.602 c 0,-9.387 -7.617,-17.008 -17.007,-17.008 -9.387,0 -17.008,7.621 -17.008,17.008 0,9.386 7.621,17.007 17.008,17.007 9.39,0 17.007,-7.621 17.007,-17.007 z" /><path
         id="path30"
         style="fill:#000000;fill-opacity:1;fill-rule:nonzero;stroke:none"
         d="m 567.41,58.1602 -6.492,-22.2188 c 6.086,9.082 10.75,15.0547 13.988,17.9219 3.239,2.8633 6.356,4.2969 9.352,4.2969 1.625,0 2.969,-0.5391 4.027,-1.6133 1.059,-1.0742 1.586,-2.4727 1.586,-4.1992 0,-1.9532 -0.473,-4.5586 -1.414,-7.8125 L 582.5,23.9805 c -0.684,-2.3789 -1.027,-3.8282 -1.027,-4.3477 0,-0.457 0.132,-0.8398 0.39,-1.1484 0.262,-0.3086 0.539,-0.461 0.832,-0.461 0.391,0 0.864,0.211 1.414,0.6329 1.727,1.3671 3.614,3.4492 5.664,6.25 l 1.516,-0.9258 c -3.027,-4.3321 -5.894,-7.4219 -8.594,-9.2774 -1.89,-1.2695 -3.582,-1.9062 -5.078,-1.9062 -1.207,0 -2.164,0.3672 -2.883,1.0976 -0.714,0.7344 -1.074,1.7188 -1.074,2.9571 0,1.5625 0.555,4.2461 1.66,8.0547 l 5.664,19.6289 c 0.719,2.4414 1.075,4.3476 1.075,5.7148 0,0.6484 -0.211,1.1797 -0.633,1.5859 -0.426,0.4063 -0.946,0.6094 -1.563,0.6094 -0.914,0 -2.004,-0.3906 -3.273,-1.1719 -2.406,-1.4648 -4.914,-3.8828 -7.52,-7.25 -2.601,-3.3711 -5.355,-7.6757 -8.25,-12.914 -1.531,-2.7696 -2.8,-5.7969 -3.808,-9.0821 l -2.442,-8.0585 h -7.324 l 8.887,30.5664 c 1.039,3.6796 1.562,5.8906 1.562,6.6406 0,0.7148 -0.285,1.3437 -0.855,1.8789 -0.57,0.5391 -1.277,0.8086 -2.125,0.8086 -0.391,0 -1.074,-0.0664 -2.051,-0.1953 l -1.855,-0.293 -0.293,1.7578 16.894,3.0274" /></g></g></svg>