<?xml version="1.0" encoding="UTF-8" standalone="no"?>
<svg
   xmlns:dc="http://purl.org/dc/elements/1.1/"
   xmlns:cc="http://creativecommons.org/ns#"
   xmlns:rdf="http://www.w3.org/1999/02/22-rdf-syntax-ns#"
   xmlns:svg="http://www.w3.org/2000/svg"
   xmlns="http://www.w3.org/2000/svg"
   viewBox="0 0 150.69333 21.786667"
   height="21.786667"
   width="150.69333"
   xml:space="preserve"
   id="svg2"
   version="1.1"><metadata
     id="metadata8"><rdf:RDF><cc:Work
         rdf:about=""><dc:format>image/svg+xml</dc:format><dc:type
           rdf:resource="http://purl.org/dc/dcmitype/StillImage" /></cc:Work></rdf:RDF></metadata><defs
     id="defs6" /><g
     transform="matrix(1.3333333,0,0,-1.3333333,0,21.786667)"
     id="g10"><g
       transform="scale(0.1)"
       id="g12"><path
         id="path14"
         style="fill:#1f1a17;fill-opacity:1;fill-rule:nonzero;stroke:none"
         d="M 1094.77,128.395 H 0 v 7.5 h 1094.77 z m 35.46,3.75 -70.55,-30.239 0.91,1.891 0.86,1.887 0.79,1.89 0.74,1.891 0.68,1.89 0.62,1.887 0.56,1.891 0.5,1.89 0.45,1.891 0.38,1.891 0.33,1.89 0.26,1.891 0.21,1.891 0.15,1.886 0.09,1.891 0.02,1.891 -0.02,1.89 -0.09,1.891 -0.15,1.887 -0.21,1.89 -0.26,1.891 -0.33,1.89 -0.38,1.891 -0.45,1.891 -0.5,1.89 -0.56,1.891 -0.62,1.887 -0.68,1.89 -0.74,1.891 -0.79,1.89 -0.86,1.887 -0.91,1.891 v 0 l 70.55,-30.238 v 0" /><path
         id="path16"
         style="fill:none;stroke:#000000;stroke-width:8;stroke-linecap:butt;stroke-linejoin:miter;stroke-miterlimit:10;stroke-dasharray:none;stroke-opacity:1"
         d="m 252.59,160.492 v -56" /><path
         id="path18"
         style="fill:#000000;fill-opacity:1;fill-rule:nonzero;stroke:none"
         d="m 487.398,71.707 -9.617,-33.7382 c 3.125,3.2539 5.848,5.4843 8.176,6.6875 2.328,1.207 4.762,1.8085 7.301,1.8085 3.582,0 6.512,-1.1875 8.789,-3.5664 2.277,-2.375 3.418,-5.5976 3.418,-9.6679 0,-5.2383 -1.496,-10.4571 -4.492,-15.6485 -2.996,-5.1914 -6.754,-9.23825 -11.278,-12.13278 -4.527,-2.89844 -8.984,-4.34766 -13.379,-4.34766 -4.918,0 -9.961,1.83985 -15.136,5.51953 l 14.843,51.12111 c 1.137,3.9414 1.707,6.25 1.707,6.9336 0,0.8476 -0.261,1.4805 -0.781,1.9062 -0.75,0.586 -1.855,0.8789 -3.32,0.8789 -0.684,0 -1.727,-0.1132 -3.125,-0.3437 v 1.8555 z M 468.504,6.08203 c 3.254,-1.78906 6.117,-2.68359 8.594,-2.68359 2.863,0 5.832,1.05078 8.91,3.14844 3.074,2.10156 5.746,5.64062 8.008,10.62112 2.261,4.9804 3.394,10.0078 3.394,15.0859 0,2.9961 -0.742,5.3399 -2.222,7.0313 -1.481,1.6953 -3.231,2.539 -5.25,2.539 -3.028,0 -5.989,-1.2109 -8.887,-3.6367 -2.899,-2.4258 -4.965,-5.8008 -6.199,-10.1328 L 468.504,6.08203" /><path
         id="path20"
         style="fill:#000000;fill-opacity:1;fill-rule:nonzero;stroke:none"
         d="m 233.293,34.9883 c 0,7.5547 1.137,14.0547 3.418,19.5078 2.277,5.4531 5.305,9.5117 9.082,12.1836 2.93,2.1133 5.957,3.1719 9.082,3.1719 5.078,0 9.633,-2.586 13.672,-7.7618 5.043,-6.414 7.566,-15.1054 7.566,-26.0742 0,-7.6836 -1.105,-14.2109 -3.32,-19.582 -2.211,-5.3711 -5.035,-9.26954 -8.469,-11.69141 -3.437,-2.42578 -6.75,-3.64063 -9.937,-3.64063 -6.317,0 -11.574,3.72657 -15.774,11.18364 -3.547,6.2812 -5.32,13.8515 -5.32,22.7031 z m 9.57,-1.2188 c 0,-9.1172 1.121,-16.5547 3.367,-22.3164 1.856,-4.84763 4.625,-7.27341 8.301,-7.27341 1.758,0 3.582,0.78906 5.469,2.36719 1.891,1.57812 3.32,4.22262 4.297,7.93362 1.5,5.6015 2.246,13.4922 2.246,23.6836 0,7.5507 -0.781,13.8515 -2.344,18.8945 -1.172,3.7461 -2.683,6.3984 -4.539,7.9609 -1.336,1.0743 -2.945,1.6094 -4.836,1.6094 -2.211,0 -4.183,-0.9922 -5.906,-2.9766 -2.344,-2.7031 -3.941,-6.9492 -4.785,-12.746 -0.848,-5.793 -1.27,-11.5079 -1.27,-17.1368 v 0" /><path
         id="path22"
         style="fill:#1f1a17;fill-opacity:1;fill-rule:evenodd;stroke:none"
         d="m 508.59,136.492 c 0,-9.387 -7.617,-17.008 -17.008,-17.008 -9.387,0 -17.008,7.621 -17.008,17.008 0,9.391 7.621,17.008 17.008,17.008 9.391,0 17.008,-7.617 17.008,-17.008" /><path
         id="path24"
         style="fill:none;stroke:#1f1a17;stroke-width:7.08660984;stroke-linecap:butt;stroke-linejoin:miter;stroke-miterlimit:10;stroke-dasharray:none;stroke-opacity:1"
         d="m 508.59,136.492 c 0,-9.387 -7.617,-17.008 -17.008,-17.008 -9.387,0 -17.008,7.621 -17.008,17.008 0,9.391 7.621,17.008 17.008,17.008 9.391,0 17.008,-7.617 17.008,-17.008 z" /><path
         id="path26"
         style="fill:#1f1a17;fill-opacity:1;fill-rule:evenodd;stroke:none"
         d="m 934.605,136.492 c 0,-9.387 -7.617,-17.008 -17.007,-17.008 -9.387,0 -17.008,7.621 -17.008,17.008 0,9.391 7.621,17.008 17.008,17.008 9.39,0 17.007,-7.617 17.007,-17.008" /><path
         id="path28"
         style="fill:none;stroke:#1f1a17;stroke-width:7.08660984;stroke-linecap:butt;stroke-linejoin:miter;stroke-miterlimit:10;stroke-dasharray:none;stroke-opacity:1"
         d="m 934.605,136.492 c 0,-9.387 -7.617,-17.008 -17.007,-17.008 -9.387,0 -17.008,7.621 -17.008,17.008 0,9.391 7.621,17.008 17.008,17.008 9.39,0 17.007,-7.617 17.007,-17.008 z" /><path
         id="path30"
         style="fill:#000000;fill-opacity:1;fill-rule:nonzero;stroke:none"
         d="m 928.266,46.4648 -9.524,-33.1054 -1.074,-4.44534 c -0.098,-0.42187 -0.145,-0.78125 -0.145,-1.07422 0,-0.51953 0.161,-0.97656 0.489,-1.36718 0.258,-0.29297 0.586,-0.4375 0.976,-0.4375 0.422,0 0.977,0.25781 1.66,0.78125 1.27,0.9414 2.961,2.89453 5.079,5.85939 l 1.66,-1.1719 c -2.246,-3.38671 -4.559,-5.96484 -6.934,-7.73827 -2.379,-1.77735 -4.574,-2.66407 -6.594,-2.66407 -1.398,0 -2.449,0.35157 -3.148,1.05078 -0.699,0.69922 -1.051,1.71875 -1.051,3.05079 0,1.59765 0.36,3.69531 1.074,6.30077 l 1.028,3.6602 c -4.266,-5.56644 -8.188,-9.45707 -11.77,-11.66801 -2.57,-1.59765 -5.094,-2.39453 -7.566,-2.39453 -2.379,0 -4.43,0.98438 -6.153,2.95703 -1.726,1.96875 -2.589,4.67579 -2.589,8.12891 0,5.1758 1.554,10.6367 4.664,16.3828 3.109,5.7422 7.054,10.3399 11.84,13.793 3.746,2.7344 7.277,4.1015 10.597,4.1015 1.985,0 3.637,-0.5234 4.957,-1.5625 1.317,-1.0429 2.317,-2.7695 3,-5.1757 l 1.758,5.5664 z m -17.383,-2.539 c -2.086,0 -4.297,-0.9766 -6.641,-2.9297 -3.32,-2.7695 -6.273,-6.8711 -8.863,-12.3047 -2.586,-5.4375 -3.883,-10.3516 -3.883,-14.7461 0,-2.2148 0.555,-3.96483 1.66,-5.24999 1.11,-1.28515 2.379,-1.92968 3.809,-1.92968 3.551,0 7.406,2.62109 11.574,7.86327 5.566,6.9649 8.348,14.1094 8.348,21.4336 0,2.7695 -0.535,4.7695 -1.61,6.0078 -1.074,1.2344 -2.539,1.8555 -4.394,1.8555 v 0" /></g></g></svg>