<?xml version="1.0" encoding="UTF-8" standalone="no"?>
<svg
   xmlns:dc="http://purl.org/dc/elements/1.1/"
   xmlns:cc="http://creativecommons.org/ns#"
   xmlns:rdf="http://www.w3.org/1999/02/22-rdf-syntax-ns#"
   xmlns:svg="http://www.w3.org/2000/svg"
   xmlns="http://www.w3.org/2000/svg"
   viewBox="0 0 118.42667 127.05333"
   height="127.05333"
   width="118.42667"
   xml:space="preserve"
   id="svg2"
   version="1.1"><metadata
     id="metadata8"><rdf:RDF><cc:Work
         rdf:about=""><dc:format>image/svg+xml</dc:format><dc:type
           rdf:resource="http://purl.org/dc/dcmitype/StillImage" /></cc:Work></rdf:RDF></metadata><defs
     id="defs6" /><g
     transform="matrix(1.3333333,0,0,-1.3333333,0,127.05333)"
     id="g10"><g
       transform="scale(0.1)"
       id="g12"><path
         id="path14"
         style="fill:none;stroke:#000000;stroke-width:7.5005002;stroke-linecap:butt;stroke-linejoin:miter;stroke-miterlimit:10;stroke-dasharray:none;stroke-opacity:1"
         d="M 3.75,556.352 H 614.313" /><path
         id="path16"
         style="fill:#000000;fill-opacity:1;fill-rule:evenodd;stroke:none"
         d="m 649.398,556.352 -70.562,30.238 c 10.082,-20.16 10.082,-40.32 0,-60.481 l 70.562,30.243" /><path
         id="path18"
         style="fill:none;stroke:#000000;stroke-width:7.5005002;stroke-linecap:butt;stroke-linejoin:miter;stroke-miterlimit:10;stroke-dasharray:none;stroke-opacity:1"
         d="M 176.715,80.957 V 920.348" /><path
         id="path20"
         style="fill:#000000;fill-opacity:1;fill-rule:evenodd;stroke:none"
         d="M 177.969,952.898 147.73,882.34 c 20.161,10.078 40.321,10.078 60.481,0 l -30.242,70.558" /><path
         id="path22"
         style="fill:#000000;fill-opacity:1;fill-rule:nonzero;stroke:none"
         d="m 238.285,946.566 c 1.063,-1.812 1.797,-3.507 2.203,-5.086 0.407,-1.578 0.813,-4.679 1.219,-9.304 l 2.059,-23.063 c 1.875,2.25 4.597,5.813 8.16,10.688 1.719,2.375 3.844,5.609 6.375,9.703 1.531,2.5 2.469,4.25 2.812,5.25 0.188,0.5 0.282,1.016 0.282,1.547 0,0.344 -0.114,0.625 -0.329,0.844 -0.218,0.218 -0.789,0.476 -1.711,0.773 -0.925,0.297 -1.687,0.844 -2.296,1.641 -0.61,0.796 -0.914,1.711 -0.914,2.742 0,1.281 0.375,2.312 1.125,3.094 0.75,0.781 1.687,1.171 2.812,1.171 1.375,0 2.547,-0.57 3.516,-1.711 0.968,-1.14 1.453,-2.71 1.453,-4.71 0,-2.469 -0.844,-5.29 -2.535,-8.461 -1.684,-3.172 -4.934,-8.039 -9.746,-14.602 -4.813,-6.562 -10.645,-13.719 -17.485,-21.469 -4.722,-5.343 -8.219,-8.711 -10.504,-10.101 -2.277,-1.391 -4.23,-2.086 -5.855,-2.086 -0.969,0 -1.821,0.367 -2.555,1.101 -0.734,0.735 -1.101,1.586 -1.101,2.555 0,1.219 0.507,2.328 1.523,3.328 1.016,1 2.117,1.5 3.301,1.5 0.625,0 1.144,-0.14 1.551,-0.422 0.246,-0.156 0.523,-0.601 0.82,-1.336 0.297,-0.734 0.57,-1.226 0.82,-1.476 0.156,-0.156 0.344,-0.235 0.559,-0.235 0.191,0 0.519,0.157 0.988,0.469 1.719,1.063 3.719,2.75 6,5.063 3,3.062 5.219,5.562 6.656,7.5 l -2.625,29.718 c -0.437,4.907 -1.097,7.891 -1.968,8.954 -0.875,1.062 -2.344,1.593 -4.407,1.593 -0.66,0 -1.832,-0.093 -3.515,-0.281 l -0.422,1.734 13.734,3.375" /><path
         id="path24"
         style="fill:#000000;fill-opacity:1;fill-rule:nonzero;stroke:none"
         d="m 618.652,635.82 c 1.532,-1.625 2.688,-3.25 3.469,-4.875 0.563,-1.125 1.484,-4.078 2.766,-8.859 l 4.125,6.187 c 1.093,1.5 2.422,2.93 3.984,4.29 1.563,1.359 2.938,2.289 4.125,2.789 0.75,0.312 1.578,0.468 2.484,0.468 1.344,0 2.415,-0.359 3.211,-1.078 0.797,-0.719 1.196,-1.594 1.196,-2.625 0,-1.187 -0.235,-2 -0.703,-2.437 -0.875,-0.782 -1.875,-1.172 -3,-1.172 -0.657,0 -1.36,0.14 -2.11,0.422 -1.469,0.5 -2.453,0.75 -2.953,0.75 -0.75,0 -1.641,-0.438 -2.672,-1.313 -1.937,-1.625 -4.25,-4.765 -6.937,-9.422 l 3.843,-16.125 c 0.594,-2.468 1.094,-3.945 1.5,-4.429 0.407,-0.485 0.813,-0.727 1.219,-0.727 0.656,0 1.422,0.359 2.297,1.078 1.719,1.438 3.188,3.313 4.406,5.625 l 1.641,-0.844 c -1.969,-3.687 -4.469,-6.75 -7.5,-9.187 -1.719,-1.375 -3.172,-2.063 -4.359,-2.063 -1.75,0 -3.141,0.985 -4.172,2.954 -0.657,1.218 -2.016,6.468 -4.078,15.75 -4.875,-8.469 -8.782,-13.922 -11.719,-16.36 -1.906,-1.562 -3.75,-2.344 -5.531,-2.344 -1.25,0 -2.391,0.454 -3.422,1.36 -0.75,0.687 -1.125,1.609 -1.125,2.765 0,1.032 0.343,1.891 1.031,2.579 0.687,0.687 1.531,1.031 2.531,1.031 1,0 2.063,-0.5 3.188,-1.5 0.812,-0.719 1.437,-1.078 1.875,-1.078 0.375,0 0.859,0.25 1.453,0.75 1.469,1.187 3.469,3.75 6,7.687 2.531,3.938 4.187,6.781 4.969,8.531 -1.938,7.594 -2.985,11.61 -3.141,12.047 -0.719,2.032 -1.656,3.469 -2.813,4.313 -1.156,0.844 -2.859,1.265 -5.109,1.265 -0.719,0 -1.547,-0.031 -2.484,-0.093 v 1.687 l 12.515,2.203" /><path
         id="path26"
         style="fill:#000000;fill-opacity:1;fill-rule:nonzero;stroke:none"
         d="m 116.113,673.676 15.469,7.547 h 1.547 v -53.672 c 0,-3.563 0.148,-5.781 0.445,-6.656 0.297,-0.875 0.914,-1.547 1.852,-2.016 0.937,-0.469 2.844,-0.734 5.719,-0.797 v -1.734 h -23.907 v 1.734 c 3,0.063 4.938,0.32 5.813,0.773 0.875,0.454 1.484,1.063 1.828,1.829 0.344,0.765 0.516,3.054 0.516,6.867 v 34.312 c 0,4.625 -0.157,7.594 -0.469,8.907 -0.219,1 -0.617,1.734 -1.196,2.203 -0.578,0.468 -1.273,0.703 -2.085,0.703 -1.157,0 -2.766,-0.485 -4.829,-1.453 l -0.703,1.453" /><path
         id="path28"
         style="fill:#000000;fill-opacity:1;fill-rule:evenodd;stroke:none"
         d="M 271.145,567.656 V 550.355" /><path
         id="path30"
         style="fill:none;stroke:#000000;stroke-width:8;stroke-linecap:round;stroke-linejoin:round;stroke-miterlimit:10;stroke-dasharray:none;stroke-opacity:1"
         d="M 271.145,567.656 V 550.355" /><path
         id="path32"
         style="fill:#000000;fill-opacity:1;fill-rule:evenodd;stroke:none"
         d="m 169.742,646.875 h 17.301 v 0" /><path
         id="path34"
         style="fill:none;stroke:#000000;stroke-width:8;stroke-linecap:round;stroke-linejoin:round;stroke-miterlimit:10;stroke-dasharray:none;stroke-opacity:1"
         d="m 169.742,646.875 h 17.301 v 0" /><path
         id="path36"
         style="fill:#000000;fill-opacity:1;fill-rule:nonzero;stroke:none"
         d="m 257.652,654.191 15.469,7.547 h 1.547 v -53.672 c 0,-3.562 0.148,-5.781 0.445,-6.656 0.297,-0.875 0.914,-1.547 1.852,-2.015 0.937,-0.469 2.844,-0.735 5.719,-0.797 v -1.735 h -23.907 v 1.735 c 3,0.062 4.938,0.32 5.813,0.773 0.875,0.453 1.484,1.063 1.828,1.828 0.344,0.766 0.516,3.055 0.516,6.867 v 34.313 c 0,4.625 -0.157,7.594 -0.469,8.906 -0.219,1 -0.617,1.735 -1.195,2.203 -0.579,0.469 -1.274,0.703 -2.086,0.703 -1.157,0 -2.766,-0.484 -4.829,-1.453 l -0.703,1.453" /><path
         id="path38"
         style="fill:#000000;fill-opacity:1;fill-rule:evenodd;stroke:none"
         d="M 39.5234,921.602 448.09,101.164" /><path
         id="path40"
         style="fill:none;stroke:#000000;stroke-width:8;stroke-linecap:round;stroke-linejoin:round;stroke-miterlimit:10;stroke-dasharray:none;stroke-opacity:1"
         d="M 39.5234,921.602 448.09,101.164" /><path
         id="path42"
         style="fill:#000000;fill-opacity:1;fill-rule:evenodd;stroke:none"
         d="M 594.91,422.738 14.5156,133.707" /><path
         id="path44"
         style="fill:none;stroke:#000000;stroke-width:8;stroke-linecap:round;stroke-linejoin:round;stroke-miterlimit:10;stroke-dasharray:none;stroke-opacity:1"
         d="M 594.91,422.738 14.5156,133.707" /><path
         id="path46"
         style="fill:#000000;fill-opacity:1;fill-rule:nonzero;stroke:none"
         d="m 360.293,63.1406 c 1.531,-1.625 2.687,-3.25 3.469,-4.875 0.562,-1.125 1.484,-4.0781 2.765,-8.8593 l 4.125,6.1875 c 1.094,1.5 2.422,2.9296 3.985,4.289 1.562,1.3594 2.937,2.2891 4.125,2.7891 0.75,0.3125 1.578,0.4687 2.484,0.4687 1.344,0 2.414,-0.3593 3.211,-1.0781 0.797,-0.7187 1.195,-1.5937 1.195,-2.625 0,-1.1875 -0.234,-2 -0.703,-2.4375 -0.875,-0.7812 -1.875,-1.1719 -3,-1.1719 -0.656,0 -1.359,0.1407 -2.109,0.4219 -1.469,0.5 -2.453,0.75 -2.953,0.75 -0.75,0 -1.641,-0.4375 -2.672,-1.3125 -1.938,-1.625 -4.25,-4.7656 -6.938,-9.4219 l 3.844,-16.125 c 0.594,-2.4687 1.094,-3.9453 1.5,-4.4297 0.406,-0.4843 0.813,-0.7265 1.219,-0.7265 0.656,0 1.422,0.3594 2.297,1.0781 1.718,1.4375 3.187,3.3125 4.406,5.625 l 1.641,-0.8437 c -1.969,-3.6875 -4.469,-6.75 -7.5,-9.1875 -1.719,-1.375 -3.172,-2.0625 -4.36,-2.0625 -1.75,0 -3.14,0.9843 -4.172,2.9531 -0.656,1.2187 -2.015,6.4687 -4.078,15.75 -4.875,-8.4688 -8.781,-13.9219 -11.719,-16.3594 -1.906,-1.5625 -3.75,-2.3437 -5.531,-2.3437 -1.25,0 -2.39,0.4531 -3.422,1.3593 -0.75,0.6875 -1.125,1.6094 -1.125,2.7657 0,1.0312 0.344,1.8906 1.032,2.5781 0.687,0.6875 1.531,1.0312 2.531,1.0312 1,0 2.062,-0.5 3.187,-1.5 0.813,-0.7187 1.438,-1.0781 1.875,-1.0781 0.375,0 0.86,0.25 1.453,0.75 1.469,1.1875 3.469,3.75 6,7.6875 2.532,3.9375 4.188,6.7813 4.969,8.5313 -1.937,7.5937 -2.984,11.6093 -3.14,12.0468 -0.719,2.0313 -1.657,3.4688 -2.813,4.3125 -1.156,0.8438 -2.859,1.2657 -5.109,1.2657 -0.719,0 -1.547,-0.0313 -2.485,-0.0938 v 1.6875 l 12.516,2.2031" /><path
         id="path48"
         style="fill:#000000;fill-opacity:1;fill-rule:nonzero;stroke:none"
         d="m 442.418,27.3281 v 23.3907 h -23.297 v 3.8437 h 23.297 v 23.2969 h 3.844 V 54.5625 h 23.39 v -3.8437 h -23.39 V 27.3281 h -3.844" /><path
         id="path50"
         style="fill:#000000;fill-opacity:1;fill-rule:nonzero;stroke:none"
         d="m 502.559,52.125 c 0,7.25 1.093,13.4922 3.281,18.7266 2.187,5.2343 5.094,9.1328 8.719,11.6953 2.812,2.0312 5.718,3.0469 8.718,3.0469 4.875,0 9.25,-2.4844 13.125,-7.4532 4.844,-6.1562 7.266,-14.5 7.266,-25.0312 0,-7.375 -1.063,-13.6406 -3.188,-18.7969 -2.125,-5.1562 -4.835,-8.8984 -8.132,-11.2266 -3.297,-2.3281 -6.477,-3.4921 -9.539,-3.4921 -6.063,0 -11.11,3.5781 -15.141,10.7343 -3.406,6.0313 -5.109,13.2969 -5.109,21.7969 z m 9.187,-1.1719 c 0,-8.75 1.078,-15.8906 3.234,-21.4218 1.782,-4.6563 4.438,-6.9844 7.969,-6.9844 1.688,0 3.438,0.7578 5.25,2.2734 1.813,1.5156 3.188,4.0547 4.125,7.6172 1.438,5.375 2.156,12.9531 2.156,22.7344 0,7.25 -0.75,13.2969 -2.25,18.1406 -1.125,3.5938 -2.578,6.1406 -4.359,7.6406 -1.281,1.0313 -2.828,1.5469 -4.641,1.5469 -2.125,0 -4.015,-0.9531 -5.671,-2.8594 -2.25,-2.5937 -3.782,-6.6718 -4.594,-12.2343 -0.813,-5.5625 -1.219,-11.0469 -1.219,-16.4532 v 0" /><path
         id="path52"
         style="fill:#000000;fill-opacity:1;fill-rule:nonzero;stroke:none"
         d="m 552.246,4.73438 v 2.0625 c 3.219,1.0625 5.711,2.71093 7.477,4.94532 1.765,2.2344 2.648,4.6016 2.648,7.1016 0,0.5937 -0.141,1.0937 -0.422,1.5 -0.219,0.2812 -0.437,0.4218 -0.656,0.4218 -0.344,0 -1.094,-0.3125 -2.25,-0.9375 -0.563,-0.2812 -1.156,-0.4218 -1.781,-0.4218 -1.532,0 -2.75,0.4531 -3.657,1.3593 -0.906,0.9063 -1.359,2.1563 -1.359,3.75 0,1.5313 0.586,2.8438 1.758,3.9375 1.172,1.0938 2.601,1.6407 4.289,1.6407 2.062,0 3.898,-0.8985 5.508,-2.6954 1.609,-1.7968 2.414,-4.1796 2.414,-7.1484 0,-3.2187 -1.117,-6.2109 -3.352,-8.9766 -2.234,-2.76559 -5.773,-4.94527 -10.617,-6.53902 v 0" /><path
         id="path54"
         style="fill:#000000;fill-opacity:1;fill-rule:nonzero;stroke:none"
         d="m 612.762,84.2813 -3.657,-7.9688 H 589.98 l -4.171,-8.5312 c 8.281,-1.2188 14.843,-4.2969 19.687,-9.2344 4.156,-4.25 6.234,-9.25 6.234,-15 0,-3.3438 -0.679,-6.4375 -2.039,-9.2813 C 608.332,31.4219 606.621,29 604.559,27 c -2.063,-2 -4.36,-3.6094 -6.891,-4.8281 -3.594,-1.7188 -7.281,-2.5781 -11.063,-2.5781 -3.812,0 -6.585,0.6484 -8.32,1.9453 -1.734,1.2968 -2.601,2.7265 -2.601,4.289 0,0.875 0.359,1.6485 1.078,2.3203 0.718,0.6719 1.625,1.0079 2.718,1.0079 0.813,0 1.524,-0.125 2.133,-0.375 0.61,-0.25 1.649,-0.8907 3.117,-1.9219 2.344,-1.625 4.719,-2.4375 7.125,-2.4375 3.657,0 6.868,1.3828 9.633,4.1484 2.766,2.7656 4.149,6.1328 4.149,10.1016 0,3.8437 -1.235,7.4297 -3.703,10.7578 -2.469,3.3281 -5.875,5.8984 -10.219,7.7109 -3.406,1.4063 -8.047,2.2188 -13.922,2.4375 l 12.187,24.7032 h 22.782" /><path
         id="path56"
         style="fill:#000000;fill-opacity:1;fill-rule:nonzero;stroke:none"
         d="m 634.418,63.1406 c 1.062,-1.8125 1.797,-3.5078 2.203,-5.0859 0.406,-1.5781 0.813,-4.6797 1.219,-9.3047 l 2.062,-23.0625 c 1.875,2.25 4.594,5.8125 8.157,10.6875 1.718,2.375 3.843,5.6094 6.375,9.7031 1.531,2.5 2.468,4.25 2.812,5.25 0.188,0.5 0.281,1.0157 0.281,1.5469 0,0.3438 -0.109,0.625 -0.328,0.8438 -0.219,0.2187 -0.789,0.4765 -1.711,0.7734 -0.922,0.2969 -1.687,0.8437 -2.297,1.6406 -0.609,0.7969 -0.914,1.711 -0.914,2.7422 0,1.2813 0.375,2.3125 1.125,3.0938 0.75,0.7812 1.688,1.1718 2.813,1.1718 1.375,0 2.547,-0.5703 3.515,-1.7109 0.969,-1.1406 1.454,-2.7109 1.454,-4.7109 0,-2.4688 -0.844,-5.2891 -2.532,-8.461 -1.687,-3.1719 -4.937,-8.039 -9.75,-14.6015 C 644.09,27.0938 638.262,19.9375 631.418,12.1875 626.699,6.84375 623.199,3.47656 620.918,2.08594 618.637,0.695313 616.684,0 615.059,0 c -0.969,0 -1.821,0.367188 -2.555,1.10156 -0.734,0.73438 -1.102,1.58594 -1.102,2.55469 0,1.21875 0.508,2.32813 1.524,3.32813 1.015,1 2.117,1.5 3.304,1.5 0.625,0 1.141,-0.14063 1.547,-0.42188 0.25,-0.15625 0.524,-0.60156 0.821,-1.33594 0.297,-0.73437 0.57,-1.22656 0.82,-1.47656 0.156,-0.15625 0.344,-0.23437 0.562,-0.23437 0.188,0 0.516,0.15625 0.985,0.46875 1.719,1.0625 3.719,2.75 6,5.06252 3,3.0625 5.219,5.5625 6.656,7.5 l -2.625,29.7187 c -0.437,4.9063 -1.094,7.8907 -1.969,8.9532 -0.875,1.0625 -2.343,1.5937 -4.406,1.5937 -0.656,0 -1.828,-0.0937 -3.516,-0.2812 l -0.421,1.7343 13.734,3.375" /><path
         id="path58"
         style="fill:#000000;fill-opacity:1;fill-rule:nonzero;stroke:none"
         d="m 695.027,62.1094 h 50.578 v -3.8438 h -50.578 z m 0,-15.2813 h 50.578 v -3.8437 h -50.578 v 3.8437" /><path
         id="path60"
         style="fill:#000000;fill-opacity:1;fill-rule:nonzero;stroke:none"
         d="m 777.996,52.125 c 0,7.25 1.094,13.4922 3.281,18.7266 2.188,5.2343 5.094,9.1328 8.719,11.6953 2.813,2.0312 5.719,3.0469 8.719,3.0469 4.875,0 9.25,-2.4844 13.125,-7.4532 4.844,-6.1562 7.265,-14.5 7.265,-25.0312 0,-7.375 -1.062,-13.6406 -3.187,-18.7969 -2.125,-5.1562 -4.836,-8.8984 -8.133,-11.2266 -3.297,-2.3281 -6.476,-3.4921 -9.539,-3.4921 -6.062,0 -11.109,3.5781 -15.141,10.7343 -3.406,6.0313 -5.109,13.2969 -5.109,21.7969 z m 9.188,-1.1719 c 0,-8.75 1.078,-15.8906 3.234,-21.4218 1.781,-4.6563 4.437,-6.9844 7.969,-6.9844 1.687,0 3.437,0.7578 5.25,2.2734 1.812,1.5156 3.187,4.0547 4.125,7.6172 1.437,5.375 2.156,12.9531 2.156,22.7344 0,7.25 -0.75,13.2969 -2.25,18.1406 -1.125,3.5938 -2.578,6.1406 -4.359,7.6406 -1.282,1.0313 -2.829,1.5469 -4.641,1.5469 -2.125,0 -4.016,-0.9531 -5.672,-2.8594 -2.25,-2.5937 -3.781,-6.6718 -4.594,-12.2343 -0.812,-5.5625 -1.218,-11.0469 -1.218,-16.4532 v 0" /><path
         id="path62"
         style="fill:#000000;fill-opacity:1;fill-rule:nonzero;stroke:none"
         d="m 827.684,4.73438 v 2.0625 c 3.218,1.0625 5.711,2.71093 7.476,4.94532 1.766,2.2344 2.649,4.6016 2.649,7.1016 0,0.5937 -0.141,1.0937 -0.422,1.5 -0.219,0.2812 -0.438,0.4218 -0.657,0.4218 -0.343,0 -1.093,-0.3125 -2.25,-0.9375 -0.562,-0.2812 -1.156,-0.4218 -1.781,-0.4218 -1.531,0 -2.75,0.4531 -3.656,1.3593 -0.906,0.9063 -1.359,2.1563 -1.359,3.75 0,1.5313 0.586,2.8438 1.757,3.9375 1.172,1.0938 2.602,1.6407 4.289,1.6407 2.063,0 3.899,-0.8985 5.508,-2.6954 1.61,-1.7968 2.414,-4.1796 2.414,-7.1484 0,-3.2187 -1.117,-6.2109 -3.351,-8.9766 -2.235,-2.76559 -5.774,-4.94527 -10.617,-6.53902 v 0" /><path
         id="path64"
         style="fill:#000000;fill-opacity:1;fill-rule:nonzero;stroke:none"
         d="m 888.199,84.2813 -3.656,-7.9688 h -19.125 l -4.172,-8.5312 c 8.281,-1.2188 14.844,-4.2969 19.688,-9.2344 4.156,-4.25 6.234,-9.25 6.234,-15 0,-3.3438 -0.68,-6.4375 -2.039,-9.2813 C 883.77,31.4219 882.059,29 879.996,27 c -2.062,-2 -4.359,-3.6094 -6.891,-4.8281 -3.593,-1.7188 -7.281,-2.5781 -11.062,-2.5781 -3.813,0 -6.586,0.6484 -8.32,1.9453 -1.735,1.2968 -2.602,2.7265 -2.602,4.289 0,0.875 0.359,1.6485 1.078,2.3203 0.719,0.6719 1.625,1.0079 2.719,1.0079 0.812,0 1.523,-0.125 2.133,-0.375 0.609,-0.25 1.648,-0.8907 3.117,-1.9219 2.344,-1.625 4.719,-2.4375 7.125,-2.4375 3.656,0 6.867,1.3828 9.633,4.1484 2.765,2.7656 4.148,6.1328 4.148,10.1016 0,3.8437 -1.234,7.4297 -3.703,10.7578 -2.469,3.3281 -5.875,5.8984 -10.219,7.7109 -3.406,1.4063 -8.047,2.2188 -13.922,2.4375 l 12.188,24.7032 h 22.781" /><path
         id="path66"
         style="fill:#000000;fill-opacity:1;fill-rule:nonzero;stroke:none"
         d="m 370.5,445.922 c 0,7.25 1.09,13.492 3.277,18.726 2.188,5.235 5.098,9.133 8.719,11.696 2.813,2.031 5.719,3.047 8.723,3.047 4.871,0 9.246,-2.485 13.125,-7.453 4.84,-6.157 7.261,-14.5 7.261,-25.032 0,-7.375 -1.062,-13.64 -3.183,-18.797 -2.129,-5.156 -4.84,-8.898 -8.137,-11.226 -3.297,-2.328 -6.472,-3.492 -9.535,-3.492 -6.066,0 -11.113,3.578 -15.141,10.734 -3.41,6.031 -5.109,13.297 -5.109,21.797 z m 9.184,-1.172 c 0,-8.75 1.082,-15.891 3.234,-21.422 1.781,-4.656 4.437,-6.984 7.969,-6.984 1.687,0 3.437,0.758 5.254,2.273 1.812,1.516 3.183,4.055 4.121,7.617 1.441,5.375 2.156,12.954 2.156,22.735 0,7.25 -0.75,13.297 -2.25,18.14 -1.121,3.594 -2.578,6.141 -4.355,7.641 -1.286,1.031 -2.833,1.547 -4.645,1.547 -2.121,0 -4.012,-0.953 -5.668,-2.859 -2.254,-2.594 -3.785,-6.672 -4.594,-12.235 -0.816,-5.562 -1.222,-11.047 -1.222,-16.453 v 0" /><path
         id="path68"
         style="fill:#000000;fill-opacity:1;fill-rule:nonzero;stroke:none"
         d="m 420.188,398.531 v 2.063 c 3.218,1.062 5.707,2.711 7.476,4.945 1.762,2.234 2.645,4.602 2.645,7.102 0,0.593 -0.141,1.093 -0.418,1.5 -0.219,0.281 -0.442,0.422 -0.661,0.422 -0.339,0 -1.093,-0.313 -2.25,-0.938 -0.562,-0.281 -1.152,-0.422 -1.777,-0.422 -1.535,0 -2.754,0.453 -3.656,1.36 -0.91,0.906 -1.359,2.156 -1.359,3.75 0,1.531 0.582,2.843 1.753,3.937 1.172,1.094 2.602,1.641 4.293,1.641 2.059,0 3.895,-0.899 5.508,-2.696 1.606,-1.797 2.41,-4.179 2.41,-7.148 0,-3.219 -1.117,-6.211 -3.347,-8.977 -2.239,-2.765 -5.778,-4.945 -10.617,-6.539 v 0" /><path
         id="path70"
         style="fill:#000000;fill-opacity:1;fill-rule:nonzero;stroke:none"
         d="m 480.699,478.078 -3.656,-7.969 h -19.125 l -4.172,-8.531 c 8.281,-1.219 14.844,-4.297 19.688,-9.234 4.156,-4.25 6.238,-9.25 6.238,-15 0,-3.344 -0.684,-6.438 -2.043,-9.281 -1.356,-2.844 -3.07,-5.266 -5.133,-7.266 -2.062,-2 -4.359,-3.609 -6.887,-4.828 -3.593,-1.719 -7.281,-2.578 -11.066,-2.578 -3.813,0 -6.586,0.648 -8.32,1.945 -1.735,1.297 -2.598,2.727 -2.598,4.289 0,0.875 0.355,1.648 1.074,2.32 0.719,0.672 1.625,1.008 2.719,1.008 0.812,0 1.523,-0.125 2.137,-0.375 0.609,-0.25 1.644,-0.89 3.113,-1.922 2.344,-1.625 4.723,-2.437 7.125,-2.437 3.656,0 6.871,1.383 9.633,4.148 2.765,2.766 4.152,6.133 4.152,10.102 0,3.844 -1.238,7.429 -3.703,10.758 -2.469,3.328 -5.879,5.898 -10.219,7.711 -3.41,1.406 -8.051,2.218 -13.926,2.437 l 12.188,24.703 h 22.781" /><path
         id="path72"
         style="fill:#000000;fill-opacity:1;fill-rule:nonzero;stroke:none"
         d="m 503.668,456.938 c 1.535,-1.625 2.687,-3.25 3.469,-4.875 0.566,-1.125 1.484,-4.079 2.769,-8.86 l 4.125,6.188 c 1.09,1.5 2.422,2.929 3.985,4.289 1.562,1.359 2.933,2.289 4.121,2.789 0.75,0.312 1.582,0.469 2.484,0.469 1.344,0 2.418,-0.36 3.215,-1.079 0.793,-0.718 1.195,-1.593 1.195,-2.625 0,-1.187 -0.238,-2 -0.703,-2.437 -0.879,-0.781 -1.879,-1.172 -3.004,-1.172 -0.652,0 -1.355,0.141 -2.109,0.422 -1.469,0.5 -2.449,0.75 -2.953,0.75 -0.746,0 -1.641,-0.438 -2.672,-1.313 -1.938,-1.625 -4.246,-4.765 -6.938,-9.421 l 3.848,-16.125 c 0.59,-2.469 1.094,-3.946 1.5,-4.43 0.402,-0.485 0.809,-0.727 1.215,-0.727 0.66,0 1.426,0.36 2.301,1.078 1.718,1.438 3.187,3.313 4.402,5.625 l 1.641,-0.843 c -1.969,-3.688 -4.469,-6.75 -7.5,-9.188 -1.719,-1.375 -3.168,-2.062 -4.36,-2.062 -1.75,0 -3.14,0.984 -4.172,2.953 -0.656,1.219 -2.015,6.469 -4.074,15.75 -4.879,-8.469 -8.785,-13.922 -11.719,-16.36 -1.91,-1.562 -3.75,-2.343 -5.535,-2.343 -1.25,0 -2.386,0.453 -3.422,1.359 -0.746,0.688 -1.121,1.609 -1.121,2.766 0,1.031 0.34,1.89 1.028,2.578 0.691,0.687 1.535,1.031 2.531,1.031 1,0 2.066,-0.5 3.187,-1.5 0.817,-0.719 1.442,-1.078 1.875,-1.078 0.375,0 0.86,0.25 1.457,0.75 1.469,1.187 3.465,3.75 5.996,7.687 2.532,3.938 4.188,6.782 4.969,8.532 -1.937,7.593 -2.984,11.609 -3.14,12.047 -0.715,2.031 -1.653,3.468 -2.813,4.312 -1.156,0.844 -2.859,1.266 -5.105,1.266 -0.723,0 -1.547,-0.032 -2.485,-0.094 v 1.687 l 12.512,2.204" /><path
         id="path74"
         style="fill:#000000;fill-opacity:1;fill-rule:nonzero;stroke:none"
         d="m 611.156,444.516 h -50.535 v 3.843 h 50.535 v -3.843" /><path
         id="path76"
         style="fill:#000000;fill-opacity:1;fill-rule:nonzero;stroke:none"
         d="m 657.797,456.938 c 1.058,-1.813 1.797,-3.508 2.199,-5.086 0.406,-1.579 0.817,-4.68 1.223,-9.305 l 2.058,-23.063 c 1.875,2.25 4.598,5.813 8.161,10.688 1.714,2.375 3.843,5.609 6.371,9.703 1.535,2.5 2.472,4.25 2.812,5.25 0.188,0.5 0.285,1.016 0.285,1.547 0,0.344 -0.113,0.625 -0.332,0.844 -0.219,0.218 -0.785,0.476 -1.711,0.773 -0.922,0.297 -1.687,0.844 -2.293,1.641 -0.609,0.797 -0.918,1.711 -0.918,2.742 0,1.281 0.375,2.312 1.129,3.094 0.746,0.781 1.684,1.172 2.813,1.172 1.371,0 2.543,-0.571 3.515,-1.711 0.965,-1.141 1.45,-2.711 1.454,-4.711 -0.004,-2.469 -0.844,-5.289 -2.536,-8.461 -1.687,-3.172 -4.933,-8.039 -9.75,-14.602 -4.808,-6.562 -10.64,-13.719 -17.484,-21.469 -4.719,-5.343 -8.219,-8.711 -10.5,-10.101 -2.277,-1.391 -4.23,-2.086 -5.859,-2.086 -0.965,0 -1.821,0.367 -2.551,1.101 -0.738,0.735 -1.106,1.586 -1.106,2.555 0,1.219 0.508,2.328 1.524,3.328 1.015,1 2.121,1.5 3.304,1.5 0.625,0 1.145,-0.14 1.551,-0.422 0.246,-0.156 0.52,-0.601 0.821,-1.336 0.296,-0.734 0.566,-1.226 0.82,-1.476 0.156,-0.156 0.34,-0.234 0.558,-0.234 0.188,0 0.52,0.156 0.989,0.468 1.719,1.063 3.715,2.75 5.996,5.063 3.004,3.062 5.219,5.562 6.66,7.5 l -2.629,29.719 c -0.433,4.906 -1.094,7.89 -1.965,8.953 -0.875,1.062 -2.343,1.593 -4.406,1.593 -0.66,0 -1.832,-0.093 -3.52,-0.281 l -0.421,1.735 13.738,3.375" /><path
         id="path78"
         style="fill:#000000;fill-opacity:1;fill-rule:nonzero;stroke:none"
         d="m 718.406,455.906 h 50.574 v -3.843 h -50.574 z m 0,-15.281 h 50.574 v -3.844 h -50.574 v 3.844" /><path
         id="path80"
         style="fill:#000000;fill-opacity:1;fill-rule:nonzero;stroke:none"
         d="m 842.574,437.953 v -6.656 h -8.531 v -16.781 h -7.734 v 16.781 h -26.907 v 6 l 29.485,42.094 h 5.156 v -41.438 z m -16.265,0 V 469.5 l -22.313,-31.547 z" /><path
         id="path82"
         style="fill:#000000;fill-opacity:1;fill-rule:nonzero;stroke:none"
         d="m 460.039,318.012 -4.734,-20.582 h -1.688 l -0.187,5.156 c -0.157,1.875 -0.516,3.551 -1.078,5.019 -0.563,1.465 -1.407,2.743 -2.532,3.821 -1.125,1.078 -2.547,1.922 -4.265,2.527 -1.719,0.613 -3.625,0.918 -5.719,0.918 -5.594,0 -10.484,-1.531 -14.672,-4.594 -5.344,-3.91 -9.531,-9.422 -12.562,-16.547 -2.5,-5.878 -3.75,-11.828 -3.75,-17.863 0,-6.152 1.796,-11.066 5.39,-14.738 3.594,-3.672 8.266,-5.508 14.016,-5.508 4.344,0 8.211,0.969 11.601,2.902 3.391,1.942 6.539,4.922 9.446,8.957 h 2.203 c -3.438,-5.468 -7.25,-9.492 -11.438,-12.07 -4.187,-2.578 -9.203,-3.867 -15.047,-3.867 -5.187,0 -9.781,1.082 -13.781,3.258 -4,2.172 -7.047,5.226 -9.14,9.164 -2.094,3.933 -3.141,8.172 -3.141,12.703 0,6.934 1.859,13.684 5.578,20.25 3.719,6.559 8.82,11.719 15.305,15.469 6.484,3.75 13.023,5.625 19.617,5.625 3.094,0 6.562,-0.739 10.406,-2.203 1.688,-0.625 2.906,-0.938 3.656,-0.938 0.75,0 1.407,0.156 1.969,0.469 0.563,0.312 1.5,1.203 2.813,2.672 h 1.734" /></g></g></svg>