<?xml version="1.0" encoding="UTF-8" standalone="no"?>
<svg
   xmlns:dc="http://purl.org/dc/elements/1.1/"
   xmlns:cc="http://creativecommons.org/ns#"
   xmlns:rdf="http://www.w3.org/1999/02/22-rdf-syntax-ns#"
   xmlns:svg="http://www.w3.org/2000/svg"
   xmlns="http://www.w3.org/2000/svg"
   viewBox="0 0 125.8 108.74667"
   height="108.74667"
   width="125.8"
   xml:space="preserve"
   id="svg2"
   version="1.1"><metadata
     id="metadata8"><rdf:RDF><cc:Work
         rdf:about=""><dc:format>image/svg+xml</dc:format><dc:type
           rdf:resource="http://purl.org/dc/dcmitype/StillImage" /></cc:Work></rdf:RDF></metadata><defs
     id="defs6" /><g
     transform="matrix(1.3333333,0,0,-1.3333333,0,108.74667)"
     id="g10"><g
       transform="scale(0.1)"
       id="g12"><path
         id="path14"
         style="fill:none;stroke:#000000;stroke-width:7.5005002;stroke-linecap:butt;stroke-linejoin:miter;stroke-miterlimit:10;stroke-dasharray:none;stroke-opacity:1"
         d="M 3.75,342.395 H 821.227" /><path
         id="path16"
         style="fill:#000000;fill-opacity:1;fill-rule:evenodd;stroke:none"
         d="m 856.313,342.395 -70.559,30.238 c 10.078,-20.16 10.078,-40.32 0,-60.481 l 70.559,30.243" /><path
         id="path18"
         style="fill:none;stroke:#000000;stroke-width:7.5005002;stroke-linecap:butt;stroke-linejoin:miter;stroke-miterlimit:10;stroke-dasharray:none;stroke-opacity:1"
         d="M 383.629,159.391 V 780.117" /><path
         id="path20"
         style="fill:#000000;fill-opacity:1;fill-rule:evenodd;stroke:none"
         d="M 383.629,815.578 353.391,745.02 c 20.16,10.078 40.32,10.078 60.48,0 l -30.242,70.558" /><path
         id="path22"
         style="fill:#000000;fill-opacity:1;fill-rule:nonzero;stroke:none"
         d="m 446.379,802.254 c 1.062,-1.813 1.797,-3.508 2.203,-5.086 0.406,-1.578 0.813,-4.68 1.219,-9.305 l 2.062,-23.062 c 1.875,2.25 4.594,5.812 8.157,10.687 1.718,2.375 3.843,5.61 6.375,9.703 1.531,2.5 2.468,4.25 2.812,5.25 0.188,0.5 0.281,1.016 0.281,1.547 0,0.344 -0.109,0.625 -0.328,0.844 -0.219,0.219 -0.789,0.477 -1.711,0.773 -0.922,0.297 -1.687,0.844 -2.297,1.641 -0.609,0.797 -0.914,1.711 -0.914,2.742 0,1.282 0.375,2.313 1.125,3.094 0.75,0.781 1.688,1.172 2.813,1.172 1.375,0 2.547,-0.57 3.515,-1.711 0.969,-1.141 1.454,-2.711 1.454,-4.711 0,-2.469 -0.844,-5.289 -2.532,-8.461 -1.687,-3.172 -4.937,-8.039 -9.75,-14.601 -4.812,-6.563 -10.64,-13.719 -17.484,-21.469 -4.719,-5.344 -8.219,-8.711 -10.5,-10.102 -2.281,-1.39 -4.234,-2.086 -5.859,-2.086 -0.969,0 -1.821,0.367 -2.555,1.102 -0.735,0.734 -1.102,1.586 -1.102,2.555 0,1.218 0.508,2.328 1.524,3.328 1.015,1 2.117,1.5 3.304,1.5 0.625,0 1.141,-0.141 1.547,-0.422 0.25,-0.156 0.524,-0.602 0.821,-1.336 0.296,-0.735 0.57,-1.227 0.82,-1.477 0.156,-0.156 0.344,-0.234 0.562,-0.234 0.188,0 0.516,0.156 0.985,0.469 1.719,1.062 3.719,2.75 6,5.062 3,3.063 5.219,5.563 6.656,7.5 l -2.625,29.719 c -0.437,4.906 -1.094,7.891 -1.969,8.953 -0.875,1.063 -2.343,1.594 -4.406,1.594 -0.656,0 -1.828,-0.094 -3.516,-0.281 l -0.421,1.734 13.734,3.375" /><path
         id="path24"
         style="fill:#000000;fill-opacity:1;fill-rule:nonzero;stroke:none"
         d="m 834.012,306.441 c 1.531,-1.628 2.687,-3.25 3.468,-4.875 0.563,-1.128 1.485,-4.078 2.766,-8.859 l 4.125,6.188 c 1.094,1.5 2.422,2.929 3.984,4.289 1.563,1.359 2.938,2.289 4.125,2.789 0.75,0.312 1.579,0.468 2.485,0.468 1.344,0 2.414,-0.359 3.211,-1.078 0.797,-0.718 1.195,-1.593 1.195,-2.625 0,-1.187 -0.234,-2 -0.703,-2.437 -0.875,-0.781 -1.875,-1.172 -3,-1.172 -0.656,0 -1.359,0.141 -2.109,0.422 -1.469,0.5 -2.454,0.75 -2.954,0.75 -0.75,0 -1.64,-0.438 -2.671,-1.313 -1.938,-1.625 -4.25,-4.765 -6.938,-9.422 l 3.844,-16.125 c 0.594,-2.468 1.094,-3.945 1.5,-4.429 0.406,-0.485 0.812,-0.727 1.219,-0.727 0.656,0 1.421,0.36 2.296,1.078 1.719,1.438 3.188,3.313 4.407,5.625 l 1.64,-0.843 c -1.968,-3.688 -4.468,-6.75 -7.5,-9.188 -1.718,-1.375 -3.172,-2.062 -4.359,-2.062 -1.75,0 -3.141,0.984 -4.172,2.953 -0.656,1.218 -2.016,6.468 -4.078,15.75 -4.875,-8.469 -8.781,-13.922 -11.719,-16.36 -1.906,-1.562 -3.75,-2.343 -5.531,-2.343 -1.25,0 -2.391,0.453 -3.422,1.359 -0.75,0.687 -1.125,1.609 -1.125,2.766 0,1.031 0.344,1.89 1.031,2.578 0.688,0.687 1.532,1.031 2.532,1.031 1,0 2.062,-0.5 3.187,-1.5 0.813,-0.719 1.438,-1.078 1.875,-1.078 0.375,0 0.859,0.25 1.453,0.75 1.469,1.187 3.469,3.75 6,7.687 2.531,3.938 4.188,6.782 4.969,8.532 -1.938,7.593 -2.984,11.609 -3.141,12.046 -0.718,2.032 -1.656,3.469 -2.812,4.313 -1.156,0.844 -2.86,1.266 -5.11,1.266 -0.718,0 -1.546,-0.032 -2.484,-0.094 v 1.687 l 12.516,2.203" /><path
         id="path26"
         style="fill:#000000;fill-opacity:1;fill-rule:nonzero;stroke:none"
         d="m 323.027,459.719 15.469,7.547 h 1.547 v -53.672 c 0,-3.563 0.148,-5.781 0.445,-6.656 0.297,-0.875 0.914,-1.547 1.852,-2.016 0.937,-0.469 2.844,-0.734 5.719,-0.797 v -1.734 h -23.907 v 1.734 c 3,0.063 4.938,0.32 5.813,0.773 0.875,0.454 1.484,1.063 1.828,1.829 0.344,0.765 0.516,3.054 0.516,6.867 v 34.312 c 0,4.625 -0.157,7.594 -0.469,8.907 -0.219,1 -0.617,1.734 -1.195,2.203 -0.579,0.468 -1.274,0.703 -2.086,0.703 -1.157,0 -2.766,-0.485 -4.829,-1.453 l -0.703,1.453" /><path
         id="path28"
         style="fill:#000000;fill-opacity:1;fill-rule:evenodd;stroke:none"
         d="M 478.063,353.699 V 336.398" /><path
         id="path30"
         style="fill:none;stroke:#000000;stroke-width:8;stroke-linecap:round;stroke-linejoin:round;stroke-miterlimit:10;stroke-dasharray:none;stroke-opacity:1"
         d="M 478.063,353.699 V 336.398" /><path
         id="path32"
         style="fill:#000000;fill-opacity:1;fill-rule:evenodd;stroke:none"
         d="m 376.656,432.918 h 17.301 v 0" /><path
         id="path34"
         style="fill:none;stroke:#000000;stroke-width:8;stroke-linecap:round;stroke-linejoin:round;stroke-miterlimit:10;stroke-dasharray:none;stroke-opacity:1"
         d="m 376.656,432.918 h 17.301 v 0" /><path
         id="path36"
         style="fill:#000000;fill-opacity:1;fill-rule:nonzero;stroke:none"
         d="m 464.57,440.234 15.469,7.547 h 1.547 v -53.672 c 0,-3.562 0.148,-5.781 0.445,-6.656 0.297,-0.875 0.914,-1.547 1.852,-2.015 0.937,-0.469 2.844,-0.735 5.715,-0.797 v -1.735 h -23.903 v 1.735 c 3,0.062 4.934,0.32 5.813,0.773 0.875,0.453 1.484,1.063 1.828,1.828 0.34,0.766 0.516,3.055 0.516,6.867 v 34.313 c 0,4.625 -0.157,7.594 -0.469,8.906 -0.219,1 -0.621,1.735 -1.195,2.203 -0.579,0.469 -1.274,0.703 -2.086,0.703 -1.157,0 -2.77,-0.484 -4.829,-1.453 l -0.703,1.453" /><path
         id="path38"
         style="fill:#000000;fill-opacity:1;fill-rule:evenodd;stroke:none"
         d="M 28.9922,621.316 761.32,376.883" /><path
         id="path40"
         style="fill:none;stroke:#000000;stroke-width:8;stroke-linecap:round;stroke-linejoin:round;stroke-miterlimit:10;stroke-dasharray:none;stroke-opacity:1"
         d="M 28.9922,621.316 761.32,376.883" /><path
         id="path42"
         style="fill:#000000;fill-opacity:1;fill-rule:evenodd;stroke:none"
         d="M 362.266,715.934 149.34,103.301" /><path
         id="path44"
         style="fill:none;stroke:#000000;stroke-width:8;stroke-linecap:round;stroke-linejoin:round;stroke-miterlimit:10;stroke-dasharray:none;stroke-opacity:1"
         d="M 362.266,715.934 149.34,103.301" /><path
         id="path46"
         style="fill:#000000;fill-opacity:1;fill-rule:nonzero;stroke:none"
         d="m 559.551,516.133 c 1.531,-1.625 2.687,-3.25 3.469,-4.875 0.562,-1.125 1.484,-4.078 2.765,-8.86 l 4.125,6.188 c 1.094,1.5 2.422,2.93 3.985,4.289 1.562,1.359 2.937,2.289 4.125,2.789 0.75,0.313 1.578,0.469 2.484,0.469 1.344,0 2.414,-0.36 3.211,-1.078 0.797,-0.719 1.195,-1.594 1.195,-2.625 0,-1.188 -0.234,-2 -0.703,-2.438 -0.875,-0.781 -1.875,-1.172 -3,-1.172 -0.656,0 -1.359,0.141 -2.109,0.422 -1.469,0.5 -2.453,0.75 -2.953,0.75 -0.75,0 -1.641,-0.437 -2.672,-1.312 -1.938,-1.625 -4.25,-4.766 -6.938,-9.422 l 3.844,-16.125 c 0.594,-2.469 1.094,-3.945 1.5,-4.43 0.406,-0.484 0.812,-0.726 1.219,-0.726 0.656,0 1.422,0.359 2.297,1.078 1.718,1.437 3.187,3.312 4.406,5.625 l 1.64,-0.844 c -1.968,-3.688 -4.468,-6.75 -7.5,-9.188 -1.718,-1.375 -3.171,-2.062 -4.359,-2.062 -1.75,0 -3.141,0.984 -4.172,2.953 -0.656,1.219 -2.015,6.469 -4.078,15.75 -4.875,-8.469 -8.781,-13.922 -11.719,-16.359 -1.906,-1.563 -3.75,-2.344 -5.531,-2.344 -1.25,0 -2.391,0.453 -3.422,1.359 -0.75,0.688 -1.125,1.61 -1.125,2.766 0,1.031 0.344,1.891 1.031,2.578 0.688,0.688 1.532,1.031 2.532,1.031 1,0 2.062,-0.5 3.187,-1.5 0.813,-0.718 1.438,-1.078 1.875,-1.078 0.375,0 0.86,0.25 1.453,0.75 1.469,1.188 3.469,3.75 6,7.688 2.532,3.937 4.188,6.781 4.969,8.531 -1.937,7.594 -2.984,11.609 -3.141,12.047 -0.718,2.031 -1.656,3.469 -2.812,4.312 -1.156,0.844 -2.859,1.266 -5.109,1.266 -0.719,0 -1.547,-0.031 -2.485,-0.094 v 1.688 l 12.516,2.203" /><path
         id="path48"
         style="fill:#000000;fill-opacity:1;fill-rule:nonzero;stroke:none"
         d="m 641.676,480.32 v 23.391 h -23.297 v 3.844 h 23.297 v 23.297 h 3.844 v -23.297 h 23.39 v -3.844 H 645.52 V 480.32 h -3.844" /><path
         id="path50"
         style="fill:#000000;fill-opacity:1;fill-rule:nonzero;stroke:none"
         d="m 703.223,525.18 c 1.812,4.281 4.101,7.586 6.867,9.914 2.765,2.328 6.211,3.492 10.336,3.492 5.094,0 9,-1.656 11.719,-4.969 2.062,-2.469 3.093,-5.109 3.093,-7.922 0,-4.625 -2.906,-9.406 -8.718,-14.343 3.906,-1.532 6.859,-3.719 8.859,-6.563 2,-2.844 3,-6.187 3,-10.031 0,-5.5 -1.75,-10.266 -5.25,-14.297 -4.563,-5.25 -11.172,-7.875 -19.828,-7.875 -4.281,0 -7.196,0.531 -8.742,1.594 -1.547,1.062 -2.321,2.203 -2.321,3.422 0,0.906 0.367,1.703 1.102,2.39 0.734,0.688 1.617,1.031 2.648,1.031 0.782,0 1.578,-0.125 2.391,-0.375 0.531,-0.156 1.734,-0.726 3.609,-1.71 1.875,-0.985 3.172,-1.571 3.891,-1.758 1.156,-0.344 2.391,-0.516 3.703,-0.516 3.188,0 5.961,1.234 8.32,3.703 2.36,2.469 3.539,5.391 3.539,8.766 0,2.469 -0.546,4.875 -1.64,7.219 -0.813,1.75 -1.703,3.078 -2.672,3.984 -1.344,1.25 -3.188,2.383 -5.531,3.398 -2.344,1.016 -4.735,1.524 -7.172,1.524 h -1.5 v 1.406 c 2.469,0.313 4.945,1.203 7.429,2.672 2.485,1.469 4.29,3.234 5.415,5.297 1.125,2.062 1.687,4.328 1.687,6.797 0,3.218 -1.008,5.82 -3.023,7.804 -2.016,1.985 -4.524,2.977 -7.524,2.977 -4.844,0 -8.89,-2.594 -12.14,-7.781 l -1.547,0.75" /><path
         id="path52"
         style="fill:#000000;fill-opacity:1;fill-rule:nonzero;stroke:none"
         d="m 761.676,516.133 c 1.062,-1.813 1.797,-3.508 2.203,-5.086 0.406,-1.578 0.812,-4.68 1.219,-9.305 l 2.062,-23.062 c 1.875,2.25 4.594,5.812 8.156,10.687 1.719,2.375 3.844,5.61 6.375,9.703 1.532,2.5 2.469,4.25 2.813,5.25 0.187,0.5 0.281,1.016 0.281,1.547 0,0.344 -0.109,0.625 -0.328,0.844 -0.219,0.219 -0.789,0.477 -1.711,0.773 -0.922,0.297 -1.687,0.844 -2.297,1.641 -0.609,0.797 -0.914,1.711 -0.914,2.742 0,1.281 0.375,2.313 1.125,3.094 0.75,0.781 1.688,1.172 2.813,1.172 1.375,0 2.547,-0.57 3.515,-1.711 0.969,-1.141 1.453,-2.711 1.453,-4.711 0,-2.469 -0.843,-5.289 -2.531,-8.461 -1.687,-3.172 -4.937,-8.039 -9.75,-14.602 -4.812,-6.562 -10.64,-13.718 -17.484,-21.468 -4.719,-5.344 -8.219,-8.711 -10.5,-10.102 -2.281,-1.39 -4.235,-2.086 -5.86,-2.086 -0.968,0 -1.82,0.367 -2.554,1.102 -0.735,0.734 -1.102,1.586 -1.102,2.554 0,1.219 0.508,2.329 1.524,3.329 1.015,1 2.117,1.5 3.304,1.5 0.625,0 1.141,-0.141 1.547,-0.422 0.25,-0.157 0.524,-0.602 0.82,-1.336 0.297,-0.735 0.571,-1.227 0.821,-1.477 0.156,-0.156 0.344,-0.234 0.562,-0.234 0.188,0 0.516,0.156 0.985,0.469 1.718,1.062 3.718,2.75 6,5.062 3,3.063 5.218,5.563 6.656,7.5 l -2.625,29.719 c -0.438,4.906 -1.094,7.89 -1.969,8.953 -0.875,1.062 -2.344,1.594 -4.406,1.594 -0.656,0 -1.828,-0.094 -3.516,-0.282 l -0.422,1.735 13.735,3.375" /><path
         id="path54"
         style="fill:#000000;fill-opacity:1;fill-rule:nonzero;stroke:none"
         d="m 822.285,515.102 h 50.578 v -3.844 h -50.578 z m 0,-15.282 h 50.578 v -3.843 h -50.578 v 3.843" /><path
         id="path56"
         style="fill:#000000;fill-opacity:1;fill-rule:nonzero;stroke:none"
         d="m 943.457,537.273 -3.656,-7.968 h -19.125 l -4.172,-8.532 c 8.281,-1.218 14.844,-4.296 19.687,-9.234 4.157,-4.25 6.235,-9.25 6.235,-15 0,-3.344 -0.68,-6.437 -2.039,-9.281 -1.36,-2.844 -3.071,-5.266 -5.133,-7.266 -2.063,-2 -4.359,-3.609 -6.891,-4.828 -3.593,-1.719 -7.281,-2.578 -11.062,-2.578 -3.813,0 -6.586,0.648 -8.321,1.945 -1.734,1.297 -2.601,2.727 -2.601,4.289 0,0.875 0.359,1.649 1.078,2.321 0.719,0.672 1.625,1.007 2.719,1.007 0.812,0 1.523,-0.125 2.133,-0.375 0.609,-0.25 1.648,-0.89 3.117,-1.921 2.344,-1.625 4.719,-2.438 7.125,-2.438 3.656,0 6.867,1.383 9.633,4.149 2.765,2.765 4.148,6.132 4.148,10.101 0,3.844 -1.234,7.43 -3.703,10.758 -2.469,3.328 -5.875,5.898 -10.219,7.711 -3.406,1.406 -8.047,2.219 -13.922,2.437 l 12.188,24.703 h 22.781" /><path
         id="path58"
         style="fill:#000000;fill-opacity:1;fill-rule:nonzero;stroke:none"
         d="m 37.3125,72.1875 c 1.8125,4.2813 4.1016,7.5859 6.8672,9.9141 2.7656,2.3281 6.2109,3.4922 10.3359,3.4922 5.0938,0 9,-1.6563 11.7188,-4.9688 2.0625,-2.4687 3.0937,-5.1094 3.0937,-7.9219 0,-4.625 -2.9062,-9.4062 -8.7187,-14.3437 3.9062,-1.5313 6.8594,-3.7188 8.8594,-6.5625 2,-2.8438 3,-6.1875 3,-10.0313 0,-5.5 -1.75,-10.2656 -5.25,-14.2968 -4.5625,-5.25 -11.1719,-7.875 -19.8282,-7.875 -4.2812,0 -7.1953,0.5312 -8.7422,1.5937 -1.5468,1.0625 -2.3203,2.2031 -2.3203,3.4219 0,0.9062 0.3672,1.7031 1.1016,2.3906 0.7344,0.6875 1.6172,1.0313 2.6484,1.0313 0.7813,0 1.5782,-0.125 2.3907,-0.375 0.5312,-0.1563 1.7343,-0.7266 3.6093,-1.711 1.875,-0.9844 3.1719,-1.5703 3.8907,-1.7578 1.1562,-0.3437 2.3906,-0.5156 3.7031,-0.5156 3.1875,0 5.9609,1.2344 8.3203,3.7031 2.3594,2.4688 3.5391,5.3906 3.5391,8.7656 0,2.4688 -0.5469,4.875 -1.6407,7.2188 -0.8125,1.75 -1.7031,3.0781 -2.6718,3.9844 -1.3438,1.25 -3.1875,2.3828 -5.5313,3.3984 -2.3437,1.0156 -4.7344,1.5234 -7.1719,1.5234 h -1.5 v 1.4063 c 2.4688,0.3125 4.9453,1.2031 7.4297,2.6719 2.4844,1.4687 4.2891,3.2343 5.4141,5.2968 1.125,2.0625 1.6875,4.3282 1.6875,6.7969 0,3.2188 -1.0078,5.8203 -3.0235,7.8047 C 56.5078,78.2266 54,79.2188 51,79.2188 c -4.8437,0 -8.8906,-2.5938 -12.1406,-7.7813 l -1.5469,0.75" /><path
         id="path60"
         style="fill:#000000;fill-opacity:1;fill-rule:nonzero;stroke:none"
         d="m 97.0781,63.1406 c 1.5313,-1.625 2.6875,-3.25 3.4689,-4.875 0.562,-1.125 1.484,-4.0781 2.766,-8.8593 l 4.125,6.1875 c 1.093,1.5 2.421,2.9296 3.984,4.289 1.562,1.3594 2.937,2.2891 4.125,2.7891 0.75,0.3125 1.578,0.4687 2.484,0.4687 1.344,0 2.414,-0.3593 3.211,-1.0781 0.797,-0.7187 1.196,-1.5937 1.196,-2.625 0,-1.1875 -0.235,-2 -0.704,-2.4375 -0.875,-0.7812 -1.875,-1.1719 -3,-1.1719 -0.656,0 -1.359,0.1407 -2.109,0.4219 -1.469,0.5 -2.453,0.75 -2.953,0.75 -0.75,0 -1.641,-0.4375 -2.672,-1.3125 -1.937,-1.625 -4.25,-4.7656 -6.937,-9.4219 l 3.843,-16.125 c 0.594,-2.4687 1.094,-3.9453 1.5,-4.4297 0.407,-0.4843 0.813,-0.7265 1.219,-0.7265 0.656,0 1.422,0.3594 2.297,1.0781 1.719,1.4375 3.187,3.3125 4.406,5.625 l 1.641,-0.8437 c -1.969,-3.6875 -4.469,-6.75 -7.5,-9.1875 -1.719,-1.375 -3.172,-2.0625 -4.36,-2.0625 -1.75,0 -3.14,0.9843 -4.171,2.9531 -0.657,1.2187 -2.016,6.4687 -4.0786,15.75 -4.875,-8.4688 -8.7813,-13.9219 -11.7188,-16.3594 -1.9062,-1.5625 -3.75,-2.3437 -5.5312,-2.3437 -1.25,0 -2.3906,0.4531 -3.4219,1.3593 -0.75,0.6875 -1.125,1.6094 -1.125,2.7657 0,1.0312 0.3438,1.8906 1.0313,2.5781 0.6875,0.6875 1.5312,1.0312 2.5312,1.0312 1,0 2.0625,-0.5 3.1875,-1.5 0.8125,-0.7187 1.4375,-1.0781 1.875,-1.0781 0.375,0 0.8594,0.25 1.4531,0.75 1.4688,1.1875 3.4688,3.75 6,7.6875 2.5313,3.9375 4.1875,6.7813 4.9688,8.5313 -1.9375,7.5937 -2.9844,11.6093 -3.1406,12.0468 -0.7188,2.0313 -1.6563,3.4688 -2.8125,4.3125 -1.1563,0.8438 -2.8594,1.2657 -5.1094,1.2657 -0.7188,0 -1.5469,-0.0313 -2.4844,-0.0938 v 1.6875 l 12.5156,2.2031" /><path
         id="path62"
         style="fill:#000000;fill-opacity:1;fill-rule:nonzero;stroke:none"
         d="m 204.563,50.7188 h -50.532 v 3.8437 h 50.532 v -3.8437" /><path
         id="path64"
         style="fill:#000000;fill-opacity:1;fill-rule:nonzero;stroke:none"
         d="m 251.203,63.1406 c 1.063,-1.8125 1.797,-3.5078 2.203,-5.0859 0.407,-1.5781 0.813,-4.6797 1.219,-9.3047 l 2.063,-23.0625 c 1.875,2.25 4.593,5.8125 8.156,10.6875 1.719,2.375 3.844,5.6094 6.375,9.7031 1.531,2.5 2.469,4.25 2.812,5.25 0.188,0.5 0.282,1.0157 0.282,1.5469 0,0.3438 -0.11,0.625 -0.329,0.8438 -0.218,0.2187 -0.789,0.4765 -1.711,0.7734 -0.921,0.2969 -1.687,0.8437 -2.296,1.6406 -0.61,0.7969 -0.914,1.711 -0.914,2.7422 0,1.2813 0.375,2.3125 1.125,3.0938 0.75,0.7812 1.687,1.1718 2.812,1.1718 1.375,0 2.547,-0.5703 3.516,-1.7109 0.968,-1.1406 1.453,-2.7109 1.453,-4.7109 0,-2.4688 -0.844,-5.2891 -2.531,-8.461 -1.688,-3.1719 -4.938,-8.039 -9.75,-14.6015 C 260.875,27.0938 255.047,19.9375 248.203,12.1875 243.484,6.84375 239.984,3.47656 237.703,2.08594 235.422,0.695313 233.469,0 231.844,0 c -0.969,0 -1.821,0.367188 -2.555,1.10156 -0.734,0.73438 -1.101,1.58594 -1.101,2.55469 0,1.21875 0.507,2.32813 1.523,3.32813 1.016,1 2.117,1.5 3.305,1.5 0.625,0 1.14,-0.14063 1.547,-0.42188 0.25,-0.15625 0.523,-0.60156 0.82,-1.33594 0.297,-0.73437 0.57,-1.22656 0.82,-1.47656 0.156,-0.15625 0.344,-0.23437 0.563,-0.23437 0.187,0 0.515,0.15625 0.984,0.46875 1.719,1.0625 3.719,2.75 6,5.06252 3,3.0625 5.219,5.5625 6.656,7.5 l -2.625,29.7187 c -0.437,4.9063 -1.093,7.8907 -1.968,8.9532 -0.875,1.0625 -2.344,1.5937 -4.407,1.5937 -0.656,0 -1.828,-0.0937 -3.515,-0.2812 l -0.422,1.7343 13.734,3.375" /><path
         id="path66"
         style="fill:#000000;fill-opacity:1;fill-rule:nonzero;stroke:none"
         d="m 311.813,62.1094 h 50.578 v -3.8438 h -50.578 z m 0,-15.2813 h 50.578 v -3.8437 h -50.578 v 3.8437" /><path
         id="path68"
         style="fill:#000000;fill-opacity:1;fill-rule:nonzero;stroke:none"
         d="m 448.875,50.7188 h -50.531 v 3.8437 h 50.531 v -3.8437" /><path
         id="path70"
         style="fill:#000000;fill-opacity:1;fill-rule:nonzero;stroke:none"
         d="m 497.859,84.2813 -3.656,-7.9688 h -19.125 l -4.172,-8.5312 c 8.282,-1.2188 14.844,-4.2969 19.688,-9.2344 4.156,-4.25 6.234,-9.25 6.234,-15 0,-3.3438 -0.68,-6.4375 -2.039,-9.2813 C 493.43,31.4219 491.719,29 489.656,27 c -2.062,-2 -4.359,-3.6094 -6.89,-4.8281 -3.594,-1.7188 -7.282,-2.5781 -11.063,-2.5781 -3.812,0 -6.586,0.6484 -8.32,1.9453 -1.735,1.2968 -2.602,2.7265 -2.602,4.289 0,0.875 0.36,1.6485 1.078,2.3203 0.719,0.6719 1.625,1.0079 2.719,1.0079 0.813,0 1.524,-0.125 2.133,-0.375 0.609,-0.25 1.648,-0.8907 3.117,-1.9219 2.344,-1.625 4.719,-2.4375 7.125,-2.4375 3.656,0 6.867,1.3828 9.633,4.1484 2.766,2.7656 4.148,6.1328 4.148,10.1016 0,3.8437 -1.234,7.4297 -3.703,10.7578 -2.468,3.3281 -5.875,5.8984 -10.218,7.7109 -3.407,1.4063 -8.047,2.2188 -13.922,2.4375 l 12.187,24.7032 h 22.781" /><path
         id="path72"
         style="fill:#000000;fill-opacity:1;fill-rule:nonzero;stroke:none"
         d="m 296.512,639.574 -4.934,-21.437 h -1.758 l -0.195,5.371 c -0.164,1.953 -0.535,3.695 -1.121,5.226 -0.586,1.528 -1.465,2.856 -2.637,3.981 -1.172,1.121 -2.656,2 -4.445,2.637 -1.789,0.632 -3.777,0.949 -5.957,0.949 -5.828,0 -10.922,-1.594 -15.281,-4.785 -5.567,-4.067 -9.93,-9.813 -13.086,-17.235 -2.606,-6.121 -3.907,-12.32 -3.907,-18.605 0,-6.41 1.872,-11.531 5.614,-15.356 3.742,-3.824 8.609,-5.738 14.601,-5.738 4.524,0 8.551,1.012 12.082,3.027 3.535,2.02 6.813,5.129 9.84,9.329 h 2.297 c -3.582,-5.7 -7.555,-9.887 -11.914,-12.575 -4.363,-2.683 -9.59,-4.027 -15.676,-4.027 -5.402,0 -10.187,1.129 -14.355,3.394 -4.168,2.262 -7.34,5.442 -9.52,9.543 -2.183,4.102 -3.273,8.512 -3.273,13.235 0,7.226 1.937,14.258 5.812,21.094 3.871,6.836 9.188,12.207 15.942,16.113 6.754,3.906 13.566,5.859 20.433,5.859 3.223,0 6.836,-0.765 10.84,-2.297 1.758,-0.648 3.027,-0.976 3.809,-0.976 0.781,0 1.465,0.164 2.05,0.488 0.586,0.328 1.563,1.254 2.93,2.785 h 1.809" /></g></g></svg>