<?xml version="1.0" encoding="UTF-8" standalone="no"?>
<svg
   xmlns:dc="http://purl.org/dc/elements/1.1/"
   xmlns:cc="http://creativecommons.org/ns#"
   xmlns:rdf="http://www.w3.org/1999/02/22-rdf-syntax-ns#"
   xmlns:svg="http://www.w3.org/2000/svg"
   xmlns="http://www.w3.org/2000/svg"
   viewBox="0 0 353.92001 87.120003"
   height="87.120003"
   width="353.92001"
   xml:space="preserve"
   id="svg2"
   version="1.1"><metadata
     id="metadata8"><rdf:RDF><cc:Work
         rdf:about=""><dc:format>image/svg+xml</dc:format><dc:type
           rdf:resource="http://purl.org/dc/dcmitype/StillImage" /></cc:Work></rdf:RDF></metadata><defs
     id="defs6" /><g
     transform="matrix(1.3333333,0,0,-1.3333333,0,87.12)"
     id="g10"><g
       transform="scale(0.1)"
       id="g12"><path
         id="path14"
         style="fill:#000000;fill-opacity:1;fill-rule:nonzero;stroke:none"
         d="M 44.9727,590.539 H 19.3359 L 14.8438,580.09 c -1.1055,-2.57 -1.6602,-4.492 -1.6602,-5.762 0,-1.008 0.4805,-1.894 1.4414,-2.66 0.9609,-0.766 3.0352,-1.262 6.2266,-1.492 v -1.805 H 0 v 1.805 c 2.76563,0.488 4.55859,1.125 5.37109,1.906 1.66016,1.563 3.5,4.734 5.51951,9.52 l 23.2891,54.492 h 1.7109 l 23.0469,-55.078 c 1.8555,-4.426 3.5391,-7.297 5.0508,-8.618 1.5156,-1.316 3.6211,-2.058 6.3242,-2.222 v -1.805 H 44.1914 v 1.805 c 2.6328,0.133 4.418,0.57 5.3438,1.32 0.9296,0.75 1.3945,1.66 1.3945,2.734 0,1.434 -0.6524,3.696 -1.9531,6.786 z M 43.6055,594.152 32.375,620.91 20.8516,594.152 Z" /><path
         id="path16"
         style="fill:#000000;fill-opacity:1;fill-rule:nonzero;stroke:none"
         d="m 63.6758,646.754 v 2.051 c 4.9492,-2.442 9.0664,-5.325 12.3555,-8.645 4.6562,-4.75 8.25,-10.324 10.789,-16.722 2.5391,-6.395 3.8086,-13.063 3.8086,-19.997 0,-10.089 -2.4805,-19.293 -7.4453,-27.609 -4.9648,-8.316 -11.4648,-14.266 -19.5078,-17.848 v 1.805 c 4.0039,2.246 7.3008,5.285 9.8906,9.109 2.5859,3.825 4.5078,8.692 5.7617,14.598 1.2539,5.91 1.8789,12.07 1.8789,18.481 0,6.933 -0.539,13.265 -1.6132,18.996 -0.8125,4.492 -1.8282,8.09 -3.0508,10.789 -1.2188,2.703 -2.8399,5.308 -4.8594,7.812 -2.0156,2.508 -4.6875,4.903 -8.0078,7.18 v 0" /><path
         id="path18"
         style="fill:#000000;fill-opacity:1;fill-rule:nonzero;stroke:none"
         d="m 714.684,395.801 c 1.593,-1.692 2.796,-3.383 3.613,-5.078 0.586,-1.172 1.547,-4.246 2.879,-9.227 l 4.297,6.445 c 1.14,1.563 2.523,3.051 4.152,4.469 1.625,1.414 3.059,2.383 4.297,2.903 0.781,0.328 1.644,0.488 2.586,0.488 1.402,0 2.515,-0.371 3.347,-1.121 0.829,-0.75 1.243,-1.66 1.243,-2.735 0,-1.238 -0.243,-2.082 -0.731,-2.539 -0.914,-0.812 -1.953,-1.222 -3.125,-1.222 -0.683,0 -1.418,0.148 -2.199,0.441 -1.527,0.52 -2.555,0.781 -3.074,0.781 -0.781,0 -1.711,-0.457 -2.785,-1.367 -2.016,-1.691 -4.426,-4.965 -7.227,-9.816 l 4.004,-16.797 c 0.621,-2.571 1.141,-4.11 1.562,-4.613 0.426,-0.504 0.848,-0.758 1.27,-0.758 0.684,0 1.48,0.375 2.395,1.125 1.789,1.496 3.32,3.449 4.589,5.859 l 1.707,-0.879 c -2.05,-3.84 -4.652,-7.031 -7.812,-9.57 -1.789,-1.434 -3.305,-2.149 -4.539,-2.149 -1.824,0 -3.274,1.024 -4.348,3.075 -0.683,1.269 -2.097,6.738 -4.246,16.406 -5.078,-8.82 -9.148,-14.5 -12.207,-17.039 -1.988,-1.629 -3.906,-2.442 -5.762,-2.442 -1.304,0 -2.492,0.473 -3.566,1.414 -0.781,0.719 -1.172,1.68 -1.172,2.883 0,1.075 0.359,1.969 1.074,2.684 0.719,0.719 1.598,1.074 2.637,1.074 1.043,0 2.148,-0.519 3.32,-1.562 0.848,-0.746 1.5,-1.121 1.953,-1.121 0.391,0 0.895,0.261 1.516,0.781 1.527,1.238 3.613,3.906 6.25,8.008 2.637,4.101 4.359,7.062 5.176,8.886 -2.02,7.91 -3.11,12.094 -3.274,12.547 -0.746,2.117 -1.722,3.613 -2.929,4.492 -1.203,0.879 -2.977,1.321 -5.321,1.321 -0.75,0 -1.613,-0.032 -2.589,-0.098 v 1.758 l 13.039,2.293" /><path
         id="path20"
         style="fill:#000000;fill-opacity:1;fill-rule:nonzero;stroke:none"
         d="m 475.168,640.887 c 1.105,-1.891 1.871,-3.657 2.293,-5.301 0.422,-1.645 0.848,-4.875 1.269,-9.691 l 2.149,-24.024 c 1.953,2.344 4.785,6.055 8.496,11.133 1.789,2.473 4.004,5.844 6.641,10.109 1.593,2.602 2.57,4.426 2.929,5.469 0.196,0.52 0.293,1.055 0.293,1.609 0,0.36 -0.113,0.653 -0.34,0.879 -0.23,0.227 -0.824,0.496 -1.785,0.805 -0.961,0.309 -1.758,0.879 -2.39,1.711 -0.637,0.828 -0.953,1.781 -0.953,2.855 0,1.336 0.39,2.411 1.171,3.223 0.782,0.813 1.758,1.219 2.93,1.223 1.434,-0.004 2.652,-0.598 3.664,-1.785 1.008,-1.188 1.512,-2.825 1.512,-4.907 0,-2.57 -0.879,-5.507 -2.637,-8.812 -1.758,-3.305 -5.144,-8.375 -10.156,-15.211 -5.012,-6.836 -11.082,-14.289 -18.211,-22.363 -4.918,-5.567 -8.563,-9.075 -10.938,-10.524 -2.378,-1.449 -4.414,-2.172 -6.105,-2.172 -1.008,0 -1.895,0.383 -2.66,1.149 -0.766,0.765 -1.149,1.652 -1.149,2.66 0,1.269 0.532,2.426 1.586,3.469 1.059,1.039 2.207,1.562 3.446,1.562 0.648,0 1.187,-0.148 1.609,-0.441 0.262,-0.164 0.547,-0.625 0.856,-1.391 0.308,-0.766 0.593,-1.277 0.855,-1.539 0.16,-0.164 0.355,-0.242 0.586,-0.242 0.195,0 0.535,0.16 1.023,0.488 1.789,1.106 3.875,2.863 6.25,5.274 3.125,3.187 5.438,5.793 6.934,7.812 l -2.734,30.957 c -0.457,5.109 -1.141,8.219 -2.051,9.324 -0.91,1.106 -2.442,1.66 -4.59,1.66 -0.684,0 -1.902,-0.097 -3.66,-0.292 l -0.442,1.808 14.309,3.516" /><path
         id="path22"
         style="fill:#000000;fill-opacity:1;fill-rule:nonzero;stroke:none"
         d="m 405.266,320.277 c 4.394,0 8.285,-0.949 11.668,-2.855 3.386,-1.902 6.039,-4.719 7.961,-8.445 1.918,-3.731 2.878,-7.594 2.878,-11.598 0,-7.098 -2.058,-14.543 -6.175,-22.34 -4.118,-7.797 -9.496,-13.746 -16.137,-17.848 -6.641,-4.101 -13.512,-6.152 -20.606,-6.152 -5.113,0 -9.382,1.133 -12.816,3.395 -3.437,2.261 -5.976,5.25 -7.617,8.961 -1.645,3.71 -2.469,7.308 -2.469,10.789 0,6.187 1.492,12.296 4.469,18.336 2.98,6.039 6.535,11.085 10.668,15.136 4.137,4.055 8.547,7.172 13.234,9.352 4.688,2.18 9.668,3.269 14.942,3.269 z m -1.661,-3.125 c -3.257,0 -6.437,-0.804 -9.546,-2.414 -3.11,-1.613 -6.192,-4.25 -9.254,-7.91 -3.059,-3.664 -5.809,-8.457 -8.25,-14.383 -2.996,-7.289 -4.492,-14.175 -4.492,-20.652 0,-4.621 1.187,-8.715 3.562,-12.281 2.379,-3.563 6.023,-5.348 10.938,-5.348 2.964,0 5.867,0.734 8.718,2.199 2.848,1.465 5.817,3.973 8.91,7.52 3.872,4.461 7.129,10.148 9.766,17.066 2.637,6.914 3.953,13.371 3.953,19.36 0,4.425 -1.187,8.339 -3.562,11.742 -2.379,3.402 -5.957,5.101 -10.743,5.101 v 0" /><path
         id="path24"
         style="fill:#000000;fill-opacity:1;fill-rule:nonzero;stroke:none"
         d="m 373.852,395.125 16.113,7.859 h 1.609 v -55.906 c 0,-3.711 0.156,-6.023 0.465,-6.933 0.309,-0.915 0.953,-1.614 1.93,-2.102 0.976,-0.488 2.961,-0.766 5.957,-0.828 v -1.809 h -24.903 v 1.809 c 3.125,0.062 5.141,0.332 6.055,0.805 0.91,0.472 1.543,1.105 1.902,1.902 0.36,0.797 0.54,3.183 0.54,7.156 v 35.742 c 0,4.817 -0.165,7.907 -0.489,9.278 -0.23,1.039 -0.644,1.804 -1.246,2.293 -0.601,0.488 -1.328,0.734 -2.172,0.734 -1.207,0 -2.883,-0.508 -5.031,-1.516 l -0.73,1.516" /><path
         id="path26"
         style="fill:none;stroke:#000000;stroke-width:10;stroke-linecap:butt;stroke-linejoin:miter;stroke-miterlimit:10;stroke-dasharray:none;stroke-opacity:1"
         d="M 513.496,352.984 V 306.316" /><path
         id="path28"
         style="fill:none;stroke:#000000;stroke-width:10;stroke-linecap:butt;stroke-linejoin:miter;stroke-miterlimit:10;stroke-dasharray:none;stroke-opacity:1"
         d="M 455.605,406.789 H 408.938" /><path
         id="path30"
         style="fill:#000000;fill-opacity:1;fill-rule:nonzero;stroke:none"
         d="m 530.621,311.32 16.113,7.864 h 1.614 v -55.911 c 0,-3.71 0.152,-6.019 0.465,-6.933 0.308,-0.91 0.949,-1.61 1.925,-2.098 0.977,-0.488 2.965,-0.765 5.957,-0.832 v -1.805 h -24.902 v 1.805 c 3.125,0.067 5.145,0.336 6.055,0.805 0.914,0.473 1.547,1.109 1.906,1.906 0.355,0.797 0.535,3.184 0.535,7.152 v 35.743 c 0,4.82 -0.16,7.91 -0.488,9.277 -0.227,1.043 -0.641,1.809 -1.242,2.297 -0.606,0.488 -1.329,0.73 -2.176,0.73 -1.203,0 -2.879,-0.504 -5.028,-1.511 l -0.734,1.511" /><path
         id="path32"
         style="fill:none;stroke:#000000;stroke-width:3.5;stroke-linecap:butt;stroke-linejoin:miter;stroke-miterlimit:10;stroke-dasharray:none;stroke-opacity:1"
         d="M 113.734,647.082 113.91,7.00391 M 193.734,647.082 193.91,7.00391 M 273.734,647.082 273.91,7.00391 M 353.734,647.082 353.91,7.00391 M 433.734,647.082 433.91,7.00391 M 513.734,647.082 513.91,7.00391 M 593.734,647.082 593.91,7.00391 M 673.734,647.082 673.91,7.00391 M 753.734,647.082 753.91,7.00391 M 113.734,647.082 752.563,646.457 M 113.734,567.082 752.563,566.457 M 113.734,487.082 752.563,486.457 M 113.734,407.082 752.563,406.457 M 113.734,327.082 752.563,326.457 M 113.734,247.082 752.563,246.457 M 113.734,167.082 752.563,166.457 M 113.734,87.082 752.563,86.457 M 113.734,7.08203 752.563,6.45703" /><path
         id="path34"
         style="fill:none;stroke:#000000;stroke-width:10;stroke-linecap:butt;stroke-linejoin:miter;stroke-miterlimit:10;stroke-dasharray:none;stroke-opacity:1"
         d="m 561.305,647.059 c -0.141,-0.536 -0.285,-1.071 -0.426,-1.61 -0.141,-0.535 -0.285,-1.074 -0.426,-1.609 -0.14,-0.535 -0.281,-1.074 -0.426,-1.61 -0.14,-0.539 -0.281,-1.074 -0.422,-1.609 -0.144,-0.539 -0.285,-1.074 -0.425,-1.613 -0.145,-0.535 -0.285,-1.07 -0.426,-1.61 -0.141,-0.535 -0.285,-1.074 -0.426,-1.609 -0.14,-0.539 -0.285,-1.074 -0.426,-1.609 -0.14,-0.539 -0.281,-1.075 -0.425,-1.614 -0.141,-0.535 -0.282,-1.07 -0.422,-1.609 -0.145,-0.535 -0.285,-1.074 -0.426,-1.609 -0.145,-0.535 -0.285,-1.075 -0.426,-1.61 -0.14,-0.539 -0.285,-1.074 -0.426,-1.609 -0.14,-0.539 -0.281,-1.074 -0.425,-1.613 -0.141,-0.536 -0.282,-1.075 -0.426,-1.61 -0.141,-0.535 -0.281,-1.074 -0.422,-1.609 -0.145,-0.539 -0.285,-1.074 -0.426,-1.609 -0.144,-0.54 -0.285,-1.075 -0.426,-1.614 -0.14,-0.535 -0.285,-1.07 -0.425,-1.609 -0.141,-0.535 -0.282,-1.074 -0.426,-1.61 -0.141,-0.535 -0.281,-1.074 -0.426,-1.609 -0.141,-0.539 -0.281,-1.074 -0.422,-1.613 -0.144,-0.535 -0.285,-1.07 -0.426,-1.61 -0.14,-0.535 -0.285,-1.074 -0.425,-1.609 -0.141,-0.535 -0.286,-1.074 -0.426,-1.609 -0.141,-0.539 -0.281,-1.075 -0.426,-1.61 -0.141,-0.539 -0.281,-1.074 -0.426,-1.613 -0.14,-0.535 -0.281,-1.07 -0.422,-1.609 -0.144,-0.535 -0.285,-1.075 -0.425,-1.61 -0.141,-0.535 -0.286,-1.074 -0.426,-1.609 -0.141,-0.539 -0.285,-1.074 -0.426,-1.613 -0.141,-0.536 -0.281,-1.071 -0.426,-1.61 -0.14,-0.535 -0.281,-1.074 -0.422,-1.609 -0.144,-0.535 -0.285,-1.074 -0.425,-1.609 -0.145,-0.54 -0.286,-1.075 -0.426,-1.61 -0.141,-0.539 -0.285,-1.074 -0.426,-1.613 -0.141,-0.535 -0.281,-1.07 -0.426,-1.61 -0.14,-0.535 -0.281,-1.074 -0.426,-1.609 -0.14,-0.539 -0.281,-1.074 -0.421,-1.609 -0.145,-0.539 -0.286,-1.074 -0.426,-1.614 -0.141,-0.535 -0.285,-1.07 -0.426,-1.609 -0.141,-0.535 -0.285,-1.074 -0.426,-1.609 -0.14,-0.535 -0.281,-1.075 -0.426,-1.61 -0.14,-0.539 -0.281,-1.074 -0.425,-1.609 -0.141,-0.539 -0.282,-1.074 -0.422,-1.613 -0.145,-0.535 -0.285,-1.075 -0.426,-1.61 -0.141,-0.535 -0.285,-1.074 -0.426,-1.609 -0.14,-0.539 -0.285,-1.074 -0.426,-1.609 -0.14,-0.54 -0.281,-1.075 -0.425,-1.614 -0.141,-0.535 -0.282,-1.07 -0.422,-1.609 -0.145,-0.535 -0.285,-1.074 -0.426,-1.609 -0.145,-0.536 -0.285,-1.075 -0.426,-1.61 -0.14,-0.539 -0.285,-1.074 -0.426,-1.613 -0.14,-0.535 -0.281,-1.07 -0.425,-1.61 -0.141,-0.535 -0.282,-1.074 -0.426,-1.609 -0.141,-0.535 -0.281,-1.074 -0.422,-1.609 -0.145,-0.539 -0.285,-1.074 -0.426,-1.61 -0.144,-0.539 -0.285,-1.074 -0.426,-1.613 -0.14,-0.535 -0.285,-1.07 -0.425,-1.609 -0.141,-0.535 -0.282,-1.075 -0.426,-1.61 -0.141,-0.539 -0.281,-1.074 -0.426,-1.609 -0.141,-0.539 -0.281,-1.074 -0.422,-1.613 -0.144,-0.535 -0.285,-1.071 -0.426,-1.61 -0.14,-0.535 -0.285,-1.074 -0.425,-1.609 -0.141,-0.535 -0.285,-1.074 -0.426,-1.609 -0.141,-0.54 -0.281,-1.075 -0.426,-1.61 -0.141,-0.539 -0.281,-1.074 -0.426,-1.613 -0.14,-0.535 -0.281,-1.074 -0.422,-1.609 -0.144,-0.536 -0.285,-1.075 -0.425,-1.61 -0.141,-0.539 -0.285,-1.074 -0.426,-1.609 -0.141,-0.539 -0.285,-1.074 -0.426,-1.614 -0.141,-0.535 -0.281,-1.07 -0.426,-1.609 -0.14,-0.535 -0.281,-1.074 -0.422,-1.609 -0.144,-0.535 -0.285,-1.074 -0.425,-1.61 -0.145,-0.539 -0.285,-1.074 -0.426,-1.609 -0.141,-0.539 -0.285,-1.074 -0.426,-1.613 -0.141,-0.535 -0.281,-1.075 -0.426,-1.61 -0.14,-0.535 -0.281,-1.074 -0.425,-1.609 -0.141,-0.539 -0.282,-1.074 -0.422,-1.609 -0.145,-0.539 -0.285,-1.075 -0.426,-1.614 -0.141,-0.535 -0.285,-1.07 -0.426,-1.609 -0.141,-0.535 -0.285,-1.074 -0.426,-1.609 -0.14,-0.54 -0.281,-1.075 -0.425,-1.61 -0.141,-0.539 -0.282,-1.074 -0.422,-1.613 -0.145,-0.535 -0.285,-1.07 -0.426,-1.609 -0.145,-0.536 -0.285,-1.075 -0.426,-1.61 -0.141,-0.535 -0.285,-1.074 -0.426,-1.609 -0.14,-0.539 -0.285,-1.074 -0.425,-1.61 -0.141,-0.539 -0.282,-1.074 -0.426,-1.613 -0.141,-0.535 -0.281,-1.07 -0.422,-1.609 -0.145,-0.535 -0.285,-1.074 -0.426,-1.61 -0.144,-0.539 -0.285,-1.074 -0.426,-1.609 -0.14,-0.539 -0.285,-1.074 -0.425,-1.613 -0.141,-0.535 -0.282,-1.071 -0.426,-1.61 -0.141,-0.535 -0.281,-1.074 -0.426,-1.609 -0.141,-0.535 -0.281,-1.074 -0.422,-1.609 -0.144,-0.539 -0.285,-1.075 -0.426,-1.61 -0.144,-0.539 -0.285,-1.074 -0.425,-1.613 -0.141,-0.535 -0.286,-1.074 -0.426,-1.609 -0.141,-0.536 -0.281,-1.075 -0.426,-1.61 -0.141,-0.539 -0.281,-1.074 -0.426,-1.609 -0.14,-0.539 -0.281,-1.074 -0.422,-1.613 -0.144,-0.536 -0.285,-1.071 -0.425,-1.61 -0.141,-0.535 -0.286,-1.074 -0.426,-1.609 -0.141,-0.535 -0.285,-1.074 -0.426,-1.61 -0.141,-0.539 -0.281,-1.074 -0.426,-1.613 -0.14,-0.535 -0.281,-1.07 -0.422,-1.609 -0.144,-0.535 -0.285,-1.074 -0.425,-1.61 -0.145,-0.535 -0.286,-1.074 -0.426,-1.609 -0.141,-0.539 -0.285,-1.074 -0.426,-1.609 -0.141,-0.539 -0.285,-1.075 -0.426,-1.614 -0.14,-0.535 -0.281,-1.07 -0.426,-1.609 -0.14,-0.535 -0.281,-1.074 -0.421,-1.609 -0.145,-0.539 -0.286,-1.075 -0.426,-1.61 -0.145,-0.539 -0.285,-1.074 -0.426,-1.613 -0.141,-0.535 -0.285,-1.07 -0.426,-1.609 -0.14,-0.536 -0.281,-1.075 -0.426,-1.61 -0.14,-0.535 -0.281,-1.074 -0.425,-1.609 -0.141,-0.539 -0.282,-1.074 -0.422,-1.61 -0.145,-0.539 -0.285,-1.074 -0.426,-1.613 -0.141,-0.535 -0.285,-1.07 -0.426,-1.609 -0.14,-0.535 -0.285,-1.074 -0.426,-1.61 -0.14,-0.539 -0.281,-1.074 -0.425,-1.609 -0.141,-0.539 -0.282,-1.074 -0.426,-1.613 -0.141,-0.535 -0.281,-1.071 -0.422,-1.61 -0.145,-0.535 -0.285,-1.074 -0.426,-1.609 -0.14,-0.535 -0.285,-1.074 -0.426,-1.609 -0.14,-0.539 -0.285,-1.075 -0.425,-1.61 -0.141,-0.539 -0.282,-1.074 -0.426,-1.613 -0.141,-0.535 -0.281,-1.074 -0.422,-1.609 -0.145,-0.536 -0.285,-1.075 -0.426,-1.61 -0.144,-0.539 -0.285,-1.074 -0.426,-1.609 -0.14,-0.539 -0.285,-1.074 -0.425,-1.613 -0.141,-0.536 -0.286,-1.071 -0.426,-1.61 -0.141,-0.535 -0.281,-1.074 -0.426,-1.609 -0.141,-0.539 -0.281,-1.074 -0.422,-1.61 -0.144,-0.539 -0.285,-1.074 -0.426,-1.613 -0.144,-0.535 -0.285,-1.07 -0.425,-1.609 -0.141,-0.535 -0.286,-1.074 -0.426,-1.61 -0.141,-0.535 -0.281,-1.074 -0.426,-1.609 -0.141,-0.539 -0.281,-1.074 -0.426,-1.609 -0.14,-0.539 -0.281,-1.075 -0.422,-1.614 -0.144,-0.535 -0.285,-1.07 -0.425,-1.609 -0.141,-0.535 -0.286,-1.074 -0.426,-1.609 -0.141,-0.539 -0.285,-1.075 -0.426,-1.61 -0.141,-0.539 -0.281,-1.074 -0.426,-1.613 -0.14,-0.535 -0.281,-1.07 -0.422,-1.609 -0.144,-0.536 -0.285,-1.075 -0.425,-1.61 -0.145,-0.535 -0.286,-1.074 -0.426,-1.609 -0.141,-0.539 -0.285,-1.074 -0.426,-1.61 -0.141,-0.539 -0.285,-1.074 -0.426,-1.613 -0.14,-0.535 -0.281,-1.074 -0.425,-1.609 -0.141,-0.535 -0.282,-1.074 -0.422,-1.61 -0.145,-0.539 -0.286,-1.074 -0.426,-1.609 -0.145,-0.539 -0.285,-1.074 -0.426,-1.613 -0.141,-0.535 -0.285,-1.071 -0.426,-1.61 -0.14,-0.535 -0.285,-1.074 -0.425,-1.609 -0.141,-0.535 -0.282,-1.074 -0.426,-1.609 -0.141,-0.539 -0.282,-1.075 -0.422,-1.614 -0.145,-0.535 -0.285,-1.07 -0.426,-1.609 -0.144,-0.535 -0.285,-1.074 -0.426,-1.609 -0.14,-0.536 -0.285,-1.075 -0.425,-1.61 -0.141,-0.539 -0.282,-1.074 -0.426,-1.609 -0.141,-0.539 -0.282,-1.074 -0.426,-1.613 -0.141,-0.536 -0.281,-1.071 -0.422,-1.61 -0.144,-0.535 -0.285,-1.074 -0.426,-1.609 -0.14,-0.535 -0.285,-1.074 -0.425,-1.61 -0.141,-0.539 -0.286,-1.074 -0.426,-1.613 -0.141,-0.535 -0.282,-1.07 -0.426,-1.609 -0.141,-0.535 -0.281,-1.074 -0.426,-1.61 -0.14,-0.535 -0.281,-1.074 -0.422,-1.609 -0.144,-0.539 -0.285,-1.074 -0.425,-1.609 -0.141,-0.539 -0.286,-1.075 -0.426,-1.614 -0.141,-0.535 -0.285,-1.074 -0.426,-1.609 -0.141,-0.535 -0.281,-1.074 -0.426,-1.609 -0.14,-0.539 -0.281,-1.075 -0.422,-1.61 -0.144,-0.539 -0.285,-1.074 -0.425,-1.613 -0.145,-0.535 -0.286,-1.07 -0.426,-1.609 -0.141,-0.536 -0.285,-1.075 -0.426,-1.61 -0.141,-0.535 -0.281,-1.074 -0.426,-1.609 -0.14,-0.539 -0.281,-1.074 -0.426,-1.61 -0.14,-0.539 -0.281,-1.074 -0.421,-1.613 -0.145,-0.535 -0.286,-1.074 -0.426,-1.609 -0.141,-0.535 -0.285,-1.074 -0.426,-1.61 -0.141,-0.539 -0.285,-1.074 -0.426,-1.609 -0.14,-0.539 -0.281,-1.074 -0.426,-1.613 -0.14,-0.535 -0.281,-1.071 -0.425,-1.61 -0.141,-0.535 -0.282,-1.074 -0.422,-1.609 -0.145,-0.539 -0.285,-1.074 -0.426,-1.609 -0.141,-0.539 -0.285,-1.075 -0.426,-1.614 -0.14,-0.535 -0.285,-1.07 -0.426,-1.609 -0.14,-0.535 -0.281,-1.074 -0.425,-1.609 -0.141,-0.536 -0.282,-1.075 -0.422,-1.61 -0.145,-0.539 -0.285,-1.074 -0.426,-1.609 -0.145,-0.539 -0.285,-1.074 -0.426,-1.613 -0.14,-0.536 -0.285,-1.071 -0.426,-1.61 -0.14,-0.535 -0.281,-1.074 -0.425,-1.609 -0.141,-0.539 -0.282,-1.074 -0.426,-1.61 -0.141,-0.539 -0.281,-1.074 -0.422,-1.613 -0.145,-0.535 -0.285,-1.07 -0.426,-1.609 -0.144,-0.535 -0.285,-1.074 -0.426,-1.61 -0.14,-0.535 -0.285,-1.074 -0.425,-1.609 -0.141,-0.539 -0.282,-1.074 -0.426,-1.609 -0.141,-0.539 -0.281,-1.075 -0.426,-1.614 -0.141,-0.535 -0.281,-1.074 -0.422,-1.609 -0.144,-0.535 -0.285,-1.074 -0.426,-1.609 -0.14,-0.539 -0.285,-1.075 -0.425,-1.61 -0.141,-0.539 -0.286,-1.074 -0.426,-1.613 -0.141,-0.535 -0.281,-1.07 -0.426,-1.609 -0.141,-0.536 -0.281,-1.075 -0.422,-1.61 -0.144,-0.535 -0.285,-1.074 -0.426,-1.609 -0.144,-0.539 -0.285,-1.074 -0.425,-1.609 -0.141,-0.54 -0.286,-1.075 -0.426,-1.614 -0.141,-0.535 -0.281,-1.074 -0.426,-1.609 -0.141,-0.535 -0.281,-1.074 -0.426,-1.61 -0.14,-0.539 -0.281,-1.074 -0.422,-1.609 -0.144,-0.539 -0.285,-1.074 -0.425,-1.613 -0.145,-0.535 -0.286,-1.07 -0.426,-1.61 -0.141,-0.535 -0.285,-1.074 -0.426,-1.609 -0.141,-0.539 -0.281,-1.074 -0.426,-1.609 -0.14,-0.539 -0.281,-1.075 -0.426,-1.614 -0.14,-0.535 -0.281,-1.07 -0.421,-1.609 -0.145,-0.535 -0.286,-1.074 -0.426,-1.609 -0.141,-0.535 -0.285,-1.075 -0.426,-1.61 -0.141,-0.539 -0.285,-1.074 -0.426,-1.609 -0.14,-0.539 -0.281,-1.074 -0.426,-1.613 -0.14,-0.536 -0.281,-1.071 -0.425,-1.61 -0.141,-0.535 -0.282,-1.074 -0.422,-1.609 -0.145,-0.539 -0.285,-1.074 -0.426,-1.609 -0.141,-0.54 -0.285,-1.075 -0.426,-1.614 -0.14,-0.535 -0.285,-1.07 -0.426,-1.609 -0.14,-0.535 -0.281,-1.074 -0.425,-1.61 -0.141,-0.535 -0.282,-1.074 -0.422,-1.609 -0.145,-0.539 -0.285,-1.074 -0.426,-1.609 -0.144,-0.539 -0.285,-1.074 -0.426,-1.614 -0.14,-0.535 -0.285,-1.074 -0.426,-1.609 -0.14,-0.535 -0.281,-1.074 -0.425,-1.609 -0.141,-0.539 -0.282,-1.075 -0.426,-1.61 -0.141,-0.539 -0.281,-1.074 -0.422,-1.613 -0.144,-0.535 -0.285,-1.07 -0.426,-1.609 -0.14,-0.535 -0.285,-1.075 -0.426,-1.61 -0.14,-0.535 -0.285,-1.074 -0.425,-1.609 -0.141,-0.539 -0.282,-1.074 -0.426,-1.609 -0.141,-0.54 -0.281,-1.075 -0.426,-1.614 -0.14,-0.535 -0.281,-1.074 -0.422,-1.609 -0.144,-0.535 -0.285,-1.074 -0.426,-1.609 -0.14,-0.54 -0.285,-1.075 -0.425,-1.61 -0.141,-0.539 -0.285,-1.074 -0.426,-1.613 -0.141,-0.535 -0.281,-1.07 -0.426,-1.61 -0.14,-0.535 -0.281,-1.074 -0.422,-1.609 -0.144,-0.539 -0.285,-1.074 -0.426,-1.609 -0.144,-0.539 -0.285,-1.074 -0.425,-1.614 -0.141,-0.535 -0.285,-1.07 -0.426,-1.609 -0.141,-0.535 -0.285,-1.074 -0.426,-1.609 -0.14,-0.535 -0.281,-1.075 -0.426,-1.61 -0.14,-0.539 -0.281,-1.074 -0.422,-1.609 -0.144,-0.539 -0.285,-1.074 -0.425,-1.613 -0.145,-0.535 -0.285,-1.075 -0.426,-1.61 -0.141,-0.535 -0.285,-1.074 -0.426,-1.609 -0.14,-0.539 -0.281,-1.074 -0.426,-1.609 -0.14,-0.54 -0.281,-1.075 -0.425,-1.614 -0.141,-0.535 -0.282,-1.07 -0.422,-1.609 -0.145,-0.535 -0.285,-1.074 -0.426,-1.609 -0.141,-0.536 -0.285,-1.075 -0.426,-1.61 -0.14,-0.539 -0.285,-1.074 -0.426,-1.613 -0.14,-0.535 -0.281,-1.07 -0.425,-1.61 -0.141,-0.535 -0.282,-1.074 -0.426,-1.609 -0.141,-0.535 -0.281,-1.074 -0.422,-1.609 -0.145,-0.539 -0.285,-1.074 -0.426,-1.61 -0.14,-0.539 -0.285,-1.074 -0.426,-1.613 -0.14,-0.535 -0.285,-1.07 -0.425,-1.609 -0.141,-0.535 -0.282,-1.075 -0.426,-1.61 -0.141,-0.535 -0.281,-1.074 -0.422,-1.609 -0.145,-0.539 -0.285,-1.074 -0.426,-1.613 -0.144,-0.535 -0.285,-1.071 -0.426,-1.61 -0.14,-0.535 -0.285,-1.074 -0.425,-1.609 -0.141,-0.535 -0.286,-1.074 -0.426,-1.609 -0.141,-0.54 -0.281,-1.075 -0.426,-1.61 -0.141,-0.539 -0.281,-1.074 -0.422,-1.613 -0.144,-0.535 -0.285,-1.07 -0.426,-1.609 -0.144,-0.536 -0.285,-1.075 -0.425,-1.61 -0.141,-0.539 -0.286,-1.074 -0.426,-1.609 -0.141,-0.539 -0.281,-1.074 -0.426,-1.614 -0.141,-0.535 -0.281,-1.07 -0.426,-1.609 -0.14,-0.535 -0.281,-1.074 -0.422,-1.609 -0.144,-0.535 -0.285,-1.074 -0.425,-1.61 -0.141,-0.539 -0.286,-1.074 -0.426,-1.609 -0.141,-0.539 -0.285,-1.074 -0.426,-1.613 -0.141,-0.535 -0.281,-1.075 -0.426,-1.61 -0.14,-0.535 -0.281,-1.074 -0.422,-1.609 -0.144,-0.539 -0.285,-1.074 -0.425,-1.609 -0.145,-0.539 -0.286,-1.075 -0.426,-1.614 -0.141,-0.535 -0.285,-1.07 -0.426,-1.609 -0.141,-0.535 -0.281,-1.074 -0.426,-1.609 -0.14,-0.536 -0.281,-1.075 -0.426,-1.61 -0.14,-0.539 -0.281,-1.074 -0.421,-1.609 -0.145,-0.539 -0.286,-1.074 -0.426,-1.613 -0.145,-0.536 -0.285,-1.075 -0.426,-1.61 -0.141,-0.535 -0.285,-1.074 -0.426,-1.609 -0.14,-0.539 -0.281,-1.074 -0.426,-1.61 -0.14,-0.539 -0.281,-1.074 -0.425,-1.613 -0.141,-0.535 -0.282,-1.07 -0.422,-1.609 -0.145,-0.535 -0.285,-1.074 -0.426,-1.61 -0.145,-0.535 -0.285,-1.074 -0.426,-1.609 -0.14,-0.539 -0.285,-1.074 -0.426,-1.613 -0.14,-0.535 -0.281,-1.071 -0.425,-1.61 -0.141,-0.535 -0.282,-1.074 -0.426,-1.609 -0.141,-0.535 -0.281,-1.074 -0.422,-1.609 -0.145,-0.539 -0.285,-1.075 -0.426,-1.61 -0.14,-0.539 -0.285,-1.074 -0.426,-1.613 -0.14,-0.535 -0.285,-1.074 -0.425,-1.609 -0.141,-0.536 -0.282,-1.075 -0.426,-1.61 -0.141,-0.539 -0.281,-1.074 -0.422,-1.609 -0.145,-0.539 -0.285,-1.074 -0.426,-1.613 -0.144,-0.536 -0.285,-1.071 -0.426,-1.61 -0.14,-0.535 -0.285,-1.074 -0.425,-1.609 -0.141,-0.535 -0.282,-1.074 -0.426,-1.61 -0.141,-0.539 -0.281,-1.074 -0.426,-1.609 -0.141,-0.539 -0.281,-1.074 -0.422,-1.613 -0.144,-0.535 -0.285,-1.074 -0.426,-1.61 -0.144,-0.535 -0.285,-1.074 -0.425,-1.609 -0.141,-0.539 -0.285,-1.074 -0.426,-1.609 -0.141,-0.539 -0.281,-1.075 -0.426,-1.614 -0.141,-0.535 -0.281,-1.07 -0.426,-1.609 -0.14,-0.535 -0.281,-1.074 -0.422,-1.609 -0.144,-0.536 -0.285,-1.075 -0.425,-1.61 -0.141,-0.539 -0.285,-1.074 -0.426,-1.613 -0.141,-0.535 -0.285,-1.07 -0.426,-1.609 -0.141,-0.536 -0.281,-1.075 -0.426,-1.61 -0.14,-0.535 -0.281,-1.074 -0.422,-1.609 -0.144,-0.539 -0.285,-1.074 -0.425,-1.61 -0.145,-0.539 -0.285,-1.074 -0.426,-1.613 -0.141,-0.535 -0.285,-1.07 -0.426,-1.609 -0.141,-0.535 -0.285,-1.074 -0.426,-1.61 -0.14,-0.535 -0.281,-1.074 -0.425,-1.609 -0.141,-0.539 -0.282,-1.074 -0.422,-1.613 -0.145,-0.535 -0.285,-1.071 -0.426,-1.61 -0.145,-0.535 -0.285,-1.074 -0.426,-1.609 -0.141,-0.535 -0.285,-1.074 -0.426,-1.609 -0.14,-0.539 -0.281,-1.075 -0.425,-1.6098 -0.141,-0.539 -0.282,-1.0742 -0.426,-1.6133 -0.141,-0.5351 -0.281,-1.0742 -0.422,-1.6093 -0.145,-0.5352 -0.285,-1.0743 -0.426,-1.6094 -0.144,-0.5391 -0.285,-1.0742 -0.426,-1.6094 -0.14,-0.539 -0.285,-1.0742 -0.425,-1.6133 -0.141,-0.5351 -0.282,-1.0703 -0.426,-1.6093 -0.141,-0.5352 -0.281,-1.0743 -0.426,-1.6094 -0.141,-0.5352 -0.281,-1.0742 -0.422,-1.6094 -0.144,-0.5391 -0.285,-1.0742 -0.426,-1.6094 -0.14,-0.539 -0.285,-1.0742 -0.425,-1.6132 -0.141,-0.5352 -0.286,-1.0743 -0.426,-1.6094 -0.141,-0.5352 -0.281,-1.0742 -0.426,-1.6094 -0.141,-0.5391 -0.281,-1.0742 -0.422,-1.6094 -0.144,-0.539 -0.285,-1.0742 -0.426,-1.6133 -0.144,-0.5351 -0.285,-1.0703 -0.425,-1.6093 -0.141,-0.5352 -0.286,-1.0742 -0.426,-1.6094 -0.141,-0.5352 -0.281,-1.0742 -0.426,-1.6094 -0.141,-0.539 -0.281,-1.0742 -0.426,-1.6133 -0.14,-0.5351 -0.281,-1.0703 -0.422,-1.6093 -0.144,-0.5352 -0.285,-1.0743 -0.425,-1.6094 -0.145,-0.5352 -0.286,-1.0742 -0.426,-1.6094 -0.141,-0.539 -0.285,-1.0742 -0.426,-1.6094 -0.141,-0.539 -0.281,-1.0742 -0.426,-1.6132 -0.14,-0.5352 -0.281,-1.0704 -0.426,-1.6094 -0.14,-0.5352 -0.281,-1.0742 -0.421,-1.6094 -0.145,-0.5391 -0.286,-1.0742 -0.426,-1.6094 -0.145,-0.539 -0.285,-1.0742 -0.426,-1.6132 -0.141,-0.5352 -0.285,-1.0704 -0.426,-1.6094 -0.14,-0.5352 -0.281,-1.0742 -0.426,-1.6094 -0.14,-0.5352 -0.281,-1.0742 -0.421,-1.6094 -0.145,-0.539 -0.286,-1.0742 -0.426,-1.6093 -0.145,-0.5391 -0.285,-1.0743 -0.426,-1.6133 -0.141,-0.5352 -0.285,-1.0742 -0.426,-1.6094 -0.14,-0.5352 -0.285,-1.0742 -0.426,-1.6094 -0.14,-0.539 -0.281,-1.0742 -0.425,-1.6094 -0.141,-0.539 -0.282,-1.0742 -0.422,-1.6132 -0.145,-0.5352 -0.285,-1.0703 -0.426,-1.6094 -0.145,-0.5352 -0.285,-1.0742 -0.426,-1.6094 -0.14,-0.5351 -0.285,-1.0742 -0.426,-1.6094 -0.14,-0.539 -0.285,-1.0742 -0.425,-1.6132 -0.141,-0.5352 -0.282,-1.0704 -0.426,-1.6094 -0.141,-0.5352 -0.281,-1.0742 -0.422,-1.6094 -0.145,-0.5351 -0.285,-1.0742 -0.426,-1.6094 -0.14,-0.539 -0.285,-1.0742 -0.426,-1.6093 -0.14,-0.5391 -0.285,-1.0743 -0.425,-1.6133 -0.141,-0.5352 -0.282,-1.0703 -0.426,-1.6094 -0.141,-0.5352 -0.281,-1.0742 -0.426,-1.6094 -0.141,-0.539 -0.281,-1.0742 -0.422,-1.6093 -0.144,-0.5391 -0.285,-1.0743 -0.426,-1.6133 -0.14,-0.5352 -0.285,-1.0703 -0.425,-1.6094 -0.141,-0.5352 -0.286,-1.0742 -0.426,-1.6094 -0.141,-0.5351 -0.281,-1.0742 -0.426,-1.6094 -0.141,-0.539 -0.281,-1.0742 -0.422,-1.6093 -0.144,-0.5391 -0.285,-1.0742 -0.426,-1.6133 -0.144,-0.5352 -0.285,-1.0703 -0.425,-1.6094 -0.141,-0.5351 -0.286,-1.07421 -0.426,-1.60936 -0.141,-0.53906 -0.285,-1.07422 -0.426,-1.60938" /><path
         id="path36"
         style="fill:none;stroke:#000000;stroke-width:7.5;stroke-linecap:butt;stroke-linejoin:miter;stroke-miterlimit:10;stroke-dasharray:none;stroke-opacity:1"
         d="M 429.086,9.84766 429.613,640.125" /><path
         id="path38"
         style="fill:#000000;fill-opacity:1;fill-rule:evenodd;stroke:none"
         d="m 411.426,600.906 18.121,49.153 18.039,-49.184 c -10.668,7.863 -25.273,7.832 -36.16,0.031" /><path
         id="path40"
         style="fill:none;stroke:#000000;stroke-width:7.5;stroke-linecap:butt;stroke-linejoin:miter;stroke-miterlimit:10;stroke-dasharray:none;stroke-opacity:1"
         d="M 114.086,327.043 746.23,326.52" /><path
         id="path42"
         style="fill:#000000;fill-opacity:1;fill-rule:evenodd;stroke:none"
         d="m 707.012,344.703 49.152,-18.117 -49.18,-18.039 c 7.864,10.664 7.829,25.269 0.028,36.156" /><path
         id="path44"
         style="fill:none;stroke:#000000;stroke-width:10;stroke-linecap:butt;stroke-linejoin:miter;stroke-miterlimit:10;stroke-dasharray:none;stroke-opacity:1"
         d="m 1474.83,8.87109 c -0.13,0.53907 -0.27,1.07813 -0.41,1.61331 -0.14,0.539 -0.28,1.0781 -0.41,1.6172 -0.14,0.5351 -0.28,1.0742 -0.41,1.6132 -0.14,0.5352 -0.28,1.0743 -0.42,1.6133 -0.13,0.5391 -0.27,1.0742 -0.41,1.6133 -0.13,0.5391 -0.27,1.0742 -0.41,1.6133 -0.14,0.5391 -0.27,1.0742 -0.41,1.6133 -0.14,0.539 -0.27,1.0781 -0.41,1.6133 -0.14,0.539 -0.28,1.0781 -0.41,1.6132 -0.14,0.5391 -0.28,1.0782 -0.42,1.6172 -0.13,0.5352 -0.27,1.0742 -0.41,1.6133 -0.14,0.5352 -0.27,1.0742 -0.41,1.6133 -0.14,0.5351 -0.27,1.0742 -0.41,1.6133 -0.14,0.539 -0.27,1.0742 -0.41,1.6132 -0.14,0.5391 -0.28,1.0743 -0.41,1.6133 -0.14,0.5391 -0.28,1.0782 -0.41,1.6133 -0.14,0.5391 -0.28,1.0781 -0.42,1.6133 -0.13,0.5391 -0.27,1.0781 -0.41,1.6133 -0.13,0.539 -0.27,1.0781 -0.41,1.6172 -0.14,0.5351 -0.28,1.0742 -0.41,1.6132 -0.14,0.5352 -0.28,1.0743 -0.41,1.6133 -0.14,0.5352 -0.28,1.0742 -0.42,1.6133 -0.13,0.5391 -0.27,1.0742 -0.41,1.6133 -0.13,0.539 -0.27,1.0742 -0.41,1.6133 -0.14,0.539 -0.27,1.0781 -0.41,1.6132 -0.14,0.5391 -0.27,1.0782 -0.41,1.6133 -0.14,0.5391 -0.27,1.0782 -0.42,1.6172 -0.13,0.5352 -0.27,1.0742 -0.41,1.6133 -0.13,0.5352 -0.27,1.0742 -0.41,1.6133 -0.14,0.5351 -0.27,1.0742 -0.41,1.6133 -0.14,0.539 -0.27,1.0742 -0.41,1.6132 -0.14,0.5391 -0.27,1.0743 -0.41,1.6133 -0.14,0.5391 -0.28,1.0781 -0.41,1.6133 -0.14,0.5391 -0.28,1.0781 -0.41,1.6133 -0.14,0.539 -0.28,1.0781 -0.42,1.6172 -0.13,0.5351 -0.27,1.0742 -0.41,1.6133 -0.13,0.5351 -0.27,1.0742 -0.41,1.6132 -0.14,0.5352 -0.28,1.0743 -0.41,1.6133 -0.14,0.5391 -0.28,1.0742 -0.41,1.6133 -0.14,0.5391 -0.28,1.0742 -0.42,1.6133 -0.13,0.539 -0.27,1.0781 -0.41,1.6133 -0.13,0.539 -0.27,1.0781 -0.41,1.6132 -0.13,0.5391 -0.27,1.0782 -0.41,1.6133 -0.14,0.5391 -0.27,1.0781 -0.41,1.6172 -0.14,0.5352 -0.27,1.0742 -0.42,1.6133 -0.13,0.5351 -0.27,1.0742 -0.41,1.6133 -0.13,0.5351 -0.27,1.0742 -0.41,1.6133 -0.13,0.539 -0.27,1.0742 -0.41,1.6132 -0.14,0.5391 -0.27,1.0743 -0.41,1.6133 -0.14,0.5391 -0.27,1.0781 -0.41,1.6133 -0.14,0.5391 -0.28,1.0781 -0.41,1.6133 -0.14,0.539 -0.28,1.0781 -0.41,1.6172 -0.14,0.5351 -0.28,1.0742 -0.42,1.6132 -0.13,0.5352 -0.27,1.0743 -0.41,1.6133 -0.14,0.5352 -0.27,1.0742 -0.41,1.6133 -0.14,0.5391 -0.28,1.0742 -0.41,1.6133 -0.14,0.5391 -0.28,1.0738 -0.41,1.6128 -0.14,0.54 -0.28,1.079 -0.42,1.614 -0.13,0.539 -0.27,1.078 -0.41,1.613 -0.13,0.539 -0.27,1.078 -0.41,1.613 -0.13,0.539 -0.27,1.078 -0.41,1.618 -0.14,0.535 -0.27,1.074 -0.41,1.613 -0.14,0.535 -0.27,1.074 -0.41,1.613 -0.14,0.539 -0.28,1.074 -0.42,1.613 -0.13,0.539 -0.27,1.075 -0.41,1.614 -0.13,0.539 -0.27,1.074 -0.41,1.613 -0.14,0.539 -0.27,1.078 -0.41,1.613 -0.14,0.539 -0.27,1.078 -0.41,1.613 -0.14,0.54 -0.28,1.079 -0.41,1.618 -0.14,0.535 -0.28,1.074 -0.41,1.613 -0.14,0.535 -0.28,1.074 -0.41,1.613 -0.15,0.539 -0.28,1.074 -0.42,1.614 -0.14,0.539 -0.27,1.074 -0.41,1.613 -0.14,0.539 -0.28,1.074 -0.41,1.613 -0.14,0.539 -0.28,1.078 -0.41,1.613 -0.14,0.539 -0.28,1.078 -0.41,1.614 -0.14,0.539 -0.28,1.078 -0.42,1.617 -0.13,0.535 -0.27,1.074 -0.41,1.613 -0.13,0.535 -0.27,1.074 -0.41,1.613 -0.14,0.536 -0.27,1.075 -0.41,1.614 -0.14,0.539 -0.27,1.074 -0.41,1.613 -0.14,0.539 -0.28,1.074 -0.42,1.613 -0.13,0.539 -0.27,1.074 -0.41,1.614 -0.13,0.539 -0.27,1.078 -0.41,1.613 -0.14,0.539 -0.27,1.078 -0.41,1.613 -0.14,0.539 -0.27,1.078 -0.41,1.617 -0.14,0.535 -0.28,1.074 -0.41,1.614 -0.14,0.535 -0.28,1.074 -0.41,1.613 -0.14,0.535 -0.28,1.074 -0.41,1.613 -0.15,0.539 -0.28,1.074 -0.42,1.613 -0.14,0.539 -0.27,1.075 -0.41,1.614 -0.14,0.539 -0.27,1.078 -0.41,1.613 -0.14,0.539 -0.28,1.078 -0.41,1.613 -0.14,0.539 -0.28,1.078 -0.41,1.617 -0.14,0.536 -0.28,1.075 -0.42,1.614 -0.13,0.535 -0.27,1.074 -0.41,1.613 -0.13,0.535 -0.27,1.074 -0.41,1.613 -0.14,0.539 -0.27,1.074 -0.41,1.614 -0.14,0.539 -0.28,1.074 -0.41,1.613 -0.14,0.539 -0.28,1.078 -0.42,1.613 -0.13,0.539 -0.27,1.078 -0.41,1.613 -0.13,0.539 -0.27,1.079 -0.41,1.614 -0.14,0.539 -0.27,1.078 -0.41,1.617 -0.14,0.535 -0.27,1.074 -0.41,1.613 -0.14,0.535 -0.28,1.074 -0.41,1.613 -0.14,0.539 -0.28,1.075 -0.41,1.614 -0.14,0.539 -0.28,1.074 -0.41,1.613 -0.15,0.539 -0.28,1.074 -0.42,1.613 -0.14,0.539 -0.27,1.078 -0.41,1.614 -0.14,0.539 -0.27,1.078 -0.41,1.613 -0.14,0.539 -0.28,1.078 -0.41,1.617 -0.14,0.535 -0.28,1.074 -0.41,1.613 -0.14,0.535 -0.28,1.075 -0.42,1.614 -0.13,0.539 -0.27,1.074 -0.41,1.613 -0.13,0.539 -0.27,1.074 -0.41,1.613 -0.14,0.539 -0.28,1.074 -0.41,1.613 -0.14,0.539 -0.28,1.079 -0.41,1.614 -0.14,0.539 -0.28,1.078 -0.42,1.613 -0.13,0.539 -0.27,1.078 -0.41,1.613 -0.13,0.539 -0.27,1.078 -0.41,1.617 -0.14,0.536 -0.27,1.075 -0.41,1.614 -0.14,0.535 -0.27,1.074 -0.41,1.613 -0.14,0.539 -0.27,1.074 -0.41,1.613 -0.14,0.539 -0.28,1.075 -0.41,1.614 -0.14,0.539 -0.28,1.074 -0.41,1.613 -0.14,0.539 -0.28,1.078 -0.42,1.613 -0.14,0.539 -0.27,1.078 -0.41,1.613 -0.14,0.539 -0.27,1.079 -0.41,1.618 -0.14,0.535 -0.28,1.074 -0.41,1.613 -0.14,0.535 -0.28,1.074 -0.41,1.613 -0.14,0.539 -0.28,1.074 -0.42,1.613 -0.13,0.54 -0.27,1.075 -0.41,1.614 -0.13,0.539 -0.27,1.074 -0.41,1.613 -0.14,0.539 -0.28,1.078 -0.41,1.613 -0.14,0.539 -0.28,1.078 -0.41,1.614 -0.14,0.539 -0.28,1.078 -0.42,1.617 -0.13,0.535 -0.27,1.074 -0.41,1.613 -0.13,0.535 -0.27,1.074 -0.41,1.613 -0.13,0.535 -0.27,1.075 -0.41,1.614 -0.14,0.539 -0.27,1.074 -0.41,1.613 -0.14,0.539 -0.27,1.074 -0.41,1.613 -0.14,0.539 -0.28,1.078 -0.41,1.613 -0.14,0.54 -0.28,1.079 -0.42,1.614 -0.13,0.539 -0.27,1.078 -0.41,1.613 -0.14,0.539 -0.27,1.078 -0.41,1.617 -0.14,0.535 -0.27,1.074 -0.41,1.613 -0.14,0.536 -0.28,1.075 -0.41,1.614 -0.14,0.539 -0.28,1.074 -0.41,1.613 -0.14,0.539 -0.28,1.074 -0.42,1.613 -0.13,0.539 -0.27,1.075 -0.41,1.614 -0.13,0.539 -0.27,1.078 -0.41,1.613 -0.13,0.539 -0.28,1.078 -0.41,1.613 -0.14,0.539 -0.28,1.078 -0.41,1.617 -0.14,0.536 -0.28,1.075 -0.41,1.614 -0.14,0.535 -0.28,1.074 -0.42,1.613 -0.13,0.535 -0.27,1.074 -0.41,1.613 -0.13,0.539 -0.27,1.074 -0.41,1.613 -0.14,0.54 -0.27,1.075 -0.41,1.614 -0.14,0.539 -0.27,1.078 -0.41,1.613 -0.14,0.539 -0.28,1.078 -0.42,1.613 -0.13,0.539 -0.27,1.078 -0.41,1.614 -0.13,0.539 -0.27,1.078 -0.41,1.617 -0.14,0.535 -0.27,1.074 -0.41,1.613 -0.14,0.535 -0.27,1.074 -0.41,1.613 -0.14,0.539 -0.28,1.075 -0.41,1.614 -0.14,0.539 -0.28,1.074 -0.41,1.613 -0.14,0.539 -0.28,1.078 -0.41,1.613 -0.14,0.539 -0.28,1.078 -0.42,1.613 -0.13,0.54 -0.27,1.079 -0.41,1.614 -0.13,0.539 -0.28,1.078 -0.41,1.617 -0.14,0.535 -0.28,1.074 -0.41,1.613 -0.14,0.535 -0.28,1.074 -0.41,1.614 -0.14,0.539 -0.28,1.074 -0.42,1.613 -0.13,0.539 -0.27,1.074 -0.41,1.613 -0.13,0.539 -0.27,1.074 -0.41,1.613 -0.14,0.539 -0.27,1.078 -0.41,1.614 -0.14,0.539 -0.27,1.078 -0.41,1.613 -0.14,0.539 -0.28,1.078 -0.42,1.617 -0.13,0.535 -0.27,1.074 -0.41,1.613 -0.13,0.536 -0.27,1.075 -0.41,1.614 -0.14,0.535 -0.27,1.074 -0.41,1.613 -0.14,0.539 -0.27,1.074 -0.41,1.613 -0.14,0.539 -0.28,1.074 -0.41,1.614 -0.14,0.539 -0.28,1.078 -0.41,1.613 -0.14,0.539 -0.28,1.078 -0.41,1.613 -0.14,0.539 -0.28,1.078 -0.42,1.613 -0.13,0.539 -0.27,1.078 -0.41,1.618 -0.14,0.535 -0.27,1.074 -0.41,1.613 -0.14,0.535 -0.28,1.074 -0.41,1.613 -0.14,0.539 -0.28,1.074 -0.41,1.613 -0.14,0.539 -0.28,1.075 -0.42,1.614 -0.13,0.539 -0.27,1.074 -0.41,1.613 -0.13,0.539 -0.27,1.078 -0.41,1.613 -0.14,0.539 -0.27,1.078 -0.41,1.614 -0.14,0.539 -0.27,1.078 -0.41,1.617 -0.14,0.535 -0.28,1.074 -0.42,1.613 -0.13,0.535 -0.27,1.074 -0.41,1.613 -0.13,0.539 -0.27,1.074 -0.41,1.614 -0.14,0.539 -0.27,1.074 -0.41,1.613 -0.14,0.539 -0.27,1.074 -0.41,1.613 -0.14,0.539 -0.27,1.078 -0.41,1.613 -0.14,0.539 -0.28,1.079 -0.41,1.614 -0.14,0.539 -0.28,1.078 -0.41,1.617 -0.14,0.535 -0.28,1.074 -0.42,1.613 -0.14,0.535 -0.27,1.074 -0.41,1.613 -0.14,0.536 -0.27,1.075 -0.41,1.614 -0.14,0.539 -0.28,1.074 -0.41,1.613 -0.14,0.539 -0.28,1.074 -0.41,1.613 -0.14,0.539 -0.28,1.078 -0.42,1.614 -0.13,0.539 -0.27,1.078 -0.41,1.613 -0.13,0.539 -0.27,1.078 -0.41,1.613 -0.14,0.539 -0.27,1.078 -0.41,1.617 -0.14,0.535 -0.27,1.075 -0.41,1.614 -0.14,0.535 -0.27,1.074 -0.42,1.613 -0.13,0.539 -0.27,1.074 -0.41,1.613 -0.13,0.539 -0.27,1.074 -0.41,1.613 -0.13,0.539 -0.27,1.075 -0.41,1.614 -0.14,0.539 -0.27,1.078 -0.41,1.613 -0.14,0.539 -0.27,1.078 -0.41,1.613 -0.14,0.539 -0.28,1.078 -0.41,1.617 -0.14,0.536 -0.28,1.075 -0.41,1.614 -0.14,0.535 -0.28,1.074 -0.42,1.613 -0.14,0.535 -0.27,1.074 -0.41,1.613 -0.14,0.539 -0.27,1.075 -0.41,1.614 -0.14,0.539 -0.28,1.074 -0.41,1.613 -0.14,0.539 -0.28,1.078 -0.41,1.613 -0.14,0.539 -0.28,1.078 -0.42,1.613 -0.13,0.539 -0.27,1.079 -0.41,1.618 -0.13,0.535 -0.27,1.074 -0.41,1.613 -0.13,0.535 -0.27,1.074 -0.41,1.613 -0.14,0.535 -0.27,1.074 -0.41,1.613 -0.14,0.54 -0.28,1.075 -0.41,1.614 -0.14,0.539 -0.28,1.074 -0.42,1.613 -0.13,0.539 -0.27,1.074 -0.41,1.613 -0.13,0.539 -0.27,1.078 -0.41,1.614 -0.14,0.539 -0.27,1.078 -0.41,1.613 -0.14,0.539 -0.27,1.078 -0.41,1.617 -0.14,0.535 -0.28,1.074 -0.41,1.613 -0.14,0.535 -0.28,1.075 -0.41,1.614 -0.14,0.539 -0.28,1.074 -0.42,1.613 -0.14,0.539 -0.27,1.074 -0.41,1.613 -0.14,0.539 -0.27,1.074 -0.41,1.613 -0.14,0.54 -0.28,1.079 -0.41,1.614 -0.14,0.539 -0.28,1.078 -0.41,1.613 -0.14,0.539 -0.28,1.078 -0.42,1.617 -0.13,0.535 -0.27,1.074 -0.41,1.613 -0.13,0.536 -0.27,1.075 -0.41,1.614 -0.13,0.535 -0.27,1.074 -0.41,1.613 -0.14,0.539 -0.28,1.074 -0.41,1.613 -0.14,0.539 -0.28,1.075 -0.41,1.614 -0.14,0.539 -0.28,1.074 -0.42,1.613 -0.13,0.539 -0.27,1.078 -0.41,1.613 -0.13,0.539 -0.27,1.078 -0.41,1.613 -0.14,0.54 -0.27,1.079 -0.41,1.618 -0.14,0.535 -0.27,1.074 -0.41,1.613 -0.14,0.535 -0.28,1.074 -0.41,1.613 -0.14,0.539 -0.28,1.074 -0.41,1.613 -0.14,0.54 -0.28,1.075 -0.41,1.614 -0.15,0.539 -0.28,1.074 -0.42,1.613 -0.14,0.539 -0.27,1.078 -0.41,1.613 -0.14,0.539 -0.28,1.078 -0.41,1.614 -0.14,0.539 -0.28,1.078 -0.41,1.617 -0.14,0.535 -0.28,1.074 -0.41,1.613 -0.14,0.535 -0.28,1.074 -0.42,1.613 -0.13,0.536 -0.27,1.075 -0.41,1.614 -0.13,0.539 -0.27,1.074 -0.41,1.613 -0.14,0.539 -0.28,1.074 -0.41,1.613 -0.14,0.539 -0.28,1.078 -0.41,1.613 -0.14,0.54 -0.28,1.079 -0.42,1.614 -0.13,0.539 -0.27,1.078 -0.41,1.613 -0.13,0.539 -0.27,1.078 -0.41,1.617 -0.14,0.535 -0.27,1.074 -0.41,1.614 -0.14,0.535 -0.27,1.074 -0.41,1.613 -0.14,0.539 -0.28,1.074 -0.41,1.613 -0.14,0.539 -0.28,1.074 -0.41,1.613 -0.14,0.539 -0.28,1.075 -0.42,1.614 -0.14,0.539 -0.27,1.078 -0.41,1.613 -0.14,0.539 -0.27,1.078 -0.41,1.613 -0.14,0.539 -0.27,1.078 -0.41,1.617 -0.14,0.536 -0.28,1.075 -0.41,1.614 -0.14,0.535 -0.28,1.074 -0.41,1.613 -0.14,0.539 -0.28,1.074 -0.42,1.613 -0.13,0.539 -0.27,1.074 -0.41,1.614 -0.13,0.539 -0.27,1.074 -0.41,1.613 -0.14,0.539 -0.28,1.078 -0.41,1.613 -0.14,0.539 -0.28,1.078 -0.41,1.613 -0.14,0.539 -0.28,1.078 -0.42,1.618 -0.13,0.535 -0.27,1.074 -0.41,1.613 -0.13,0.535 -0.27,1.074 -0.41,1.613 -0.14,0.535 -0.27,1.074 -0.41,1.613 -0.14,0.539 -0.27,1.075 -0.41,1.614 -0.14,0.539 -0.27,1.074 -0.41,1.613 -0.14,0.539 -0.28,1.078 -0.42,1.613 -0.13,0.539 -0.27,1.078 -0.41,1.614 -0.14,0.539 -0.27,1.078 -0.41,1.613 -0.14,0.539 -0.27,1.078 -0.41,1.617 -0.14,0.535 -0.27,1.074 -0.41,1.613 -0.14,0.535 -0.28,1.074 -0.41,1.614 -0.14,0.535 -0.28,1.074 -0.41,1.613 -0.14,0.539 -0.28,1.074 -0.42,1.613 -0.13,0.539 -0.27,1.074 -0.41,1.613 -0.13,0.539 -0.27,1.079 -0.41,1.614 -0.14,0.539 -0.28,1.078 -0.41,1.613 -0.14,0.539 -0.28,1.078 -0.41,1.617 -0.14,0.535 -0.28,1.074 -0.42,1.613 -0.13,0.536 -0.27,1.075 -0.41,1.614 -0.13,0.539 -0.27,1.074 -0.41,1.613 -0.13,0.539 -0.27,1.074 -0.41,1.613 -0.14,0.539 -0.27,1.074 -0.41,1.614 -0.14,0.539 -0.27,1.078 -0.42,1.613 -0.13,0.539 -0.27,1.078 -0.41,1.613 -0.13,0.539 -0.27,1.078 -0.41,1.613 -0.13,0.539 -0.27,1.079 -0.41,1.618 -0.14,0.535 -0.27,1.074 -0.41,1.613 -0.14,0.535 -0.27,1.074 -0.41,1.613 -0.14,0.539 -0.28,1.074 -0.41,1.613 -0.14,0.539 -0.28,1.075 -0.41,1.614 -0.14,0.539 -0.28,1.078 -0.42,1.613 -0.13,0.539 -0.27,1.078 -0.41,1.613 -0.13,0.539 -0.27,1.078 -0.41,1.614 -0.14,0.539 -0.28,1.078 -0.41,1.617 -0.14,0.535 -0.28,1.074 -0.41,1.613 -0.14,0.535 -0.28,1.074 -0.42,1.613 -0.13,0.539 -0.27,1.075 -0.41,1.614 -0.13,0.539 -0.27,1.074 -0.41,1.613 -0.13,0.539 -0.27,1.074 -0.41,1.613 -0.14,0.539 -0.27,1.078 -0.41,1.613 -0.14,0.539 -0.27,1.079 -0.41,1.614 -0.14,0.539 -0.28,1.078 -0.42,1.613 -0.13,0.539 -0.27,1.078 -0.41,1.617 -0.13,0.535 -0.27,1.074 -0.41,1.613 -0.14,0.536 -0.27,1.075 -0.41,1.614 -0.14,0.539 -0.27,1.074 -0.41,1.613 -0.14,0.539 -0.28,1.074 -0.41,1.613 -0.14,0.539 -0.28,1.078 -0.41,1.614 -0.14,0.539 -0.28,1.078 -0.42,1.613 -0.13,0.539 -0.27,1.078 -0.41,1.613 -0.14,0.539 -0.27,1.078 -0.41,1.617 -0.14,0.535 -0.28,1.075 -0.41,1.614 -0.14,0.535 -0.28,1.074 -0.41,1.613 -0.14,0.539 -0.28,1.074 -0.41,1.613 -0.14,0.539 -0.28,1.074 -0.42,1.613 -0.13,0.54 -0.27,1.075 -0.41,1.614 -0.13,0.539 -0.27,1.078 -0.41,1.613 -0.14,0.539 -0.27,1.078 -0.41,1.613 -0.14,0.539 -0.27,1.078 -0.41,1.617 -0.14,0.536 -0.28,1.075 -0.42,1.614 -0.13,0.535 -0.27,1.074 -0.41,1.613 -0.13,0.535 -0.27,1.074 -0.41,1.613 -0.14,0.539 -0.27,1.075 -0.41,1.614 -0.14,0.539 -0.27,1.074 -0.41,1.613 -0.14,0.539 -0.28,1.078 -0.41,1.613 -0.14,0.539 -0.28,1.078 -0.41,1.613 -0.14,0.54 -0.28,1.079 -0.41,1.614 -0.15,0.539 -0.28,1.078 -0.42,1.617 -0.14,0.535 -0.27,1.074 -0.41,1.613 -0.14,0.535 -0.28,1.074 -0.41,1.613 -0.14,0.54 -0.28,1.075 -0.41,1.614 -0.14,0.539 -0.28,1.074 -0.41,1.613 -0.14,0.539 -0.28,1.078 -0.42,1.613 -0.13,0.539 -0.27,1.078 -0.41,1.614 -0.13,0.539 -0.27,1.078 -0.41,1.613 -0.14,0.539 -0.27,1.078 -0.41,1.617 -0.14,0.535 -0.27,1.074 -0.41,1.613 -0.14,0.536 -0.28,1.075 -0.42,1.614 -0.13,0.539 -0.27,1.074 -0.41,1.613 -0.13,0.539 -0.27,1.074 -0.41,1.613 -0.14,0.539 -0.27,1.074 -0.41,1.613 -0.14,0.54 -0.27,1.079 -0.41,1.614 -0.14,0.539 -0.28,1.078 -0.41,1.613 -0.14,0.539 -0.28,1.078 -0.41,1.617 -0.14,0.535 -0.28,1.074 -0.41,1.614 -0.15,0.535 -0.28,1.074 -0.42,1.613 -0.14,0.535 -0.27,1.074 -0.41,1.613 -0.14,0.539 -0.27,1.074 -0.41,1.613 -0.14,0.539 -0.28,1.075 -0.41,1.614 -0.14,0.539 -0.28,1.078 -0.41,1.613 -0.14,0.539 -0.28,1.078 -0.42,1.613 -0.13,0.539 -0.27,1.078 -0.41,1.613 -0.13,0.54 -0.27,1.079 -0.41,1.618 -0.14,0.535 -0.27,1.074 -0.41,1.613 -0.14,0.535 -0.28,1.074 -0.41,1.613 -0.14,0.539 -0.28,1.074 -0.42,1.614 -0.13,0.539 -0.27,1.074 -0.41,1.613 -0.13,0.539 -0.27,1.078 -0.41,1.613 -0.14,0.539 -0.27,1.078 -0.41,1.613 -0.14,0.539 -0.27,1.078 -0.41,1.614 -0.14,0.539 -0.27,1.078 -0.41,1.617 -0.14,0.535 -0.28,1.074 -0.41,1.613 -0.14,0.535 -0.28,1.074 -0.41,1.613 -0.14,0.539 -0.28,1.075 -0.42,1.614 -0.14,0.539 -0.27,1.074 -0.41,1.613 -0.14,0.539 -0.27,1.074 -0.41,1.613 -0.14,0.539 -0.28,1.078 -0.41,1.614 -0.14,0.539 -0.28,1.078 -0.41,1.613 -0.14,0.539 -0.28,1.078 -0.42,1.617 -0.13,0.535 -0.27,1.074 -0.41,1.613" /><path
         id="path46"
         style="fill:none;stroke:#000000;stroke-width:10;stroke-linecap:butt;stroke-linejoin:miter;stroke-miterlimit:10;stroke-dasharray:none;stroke-opacity:1"
         d="m 2374.63,645.375 c -0.15,-0.535 -0.29,-1.074 -0.43,-1.609 -0.14,-0.539 -0.28,-1.075 -0.42,-1.61 -0.14,-0.539 -0.29,-1.074 -0.43,-1.613 -0.14,-0.535 -0.28,-1.07 -0.42,-1.609 -0.14,-0.536 -0.29,-1.075 -0.43,-1.61 -0.14,-0.535 -0.28,-1.074 -0.42,-1.609 -0.15,-0.539 -0.29,-1.074 -0.43,-1.613 -0.14,-0.536 -0.28,-1.071 -0.42,-1.61 -0.14,-0.535 -0.28,-1.074 -0.43,-1.609 -0.14,-0.535 -0.28,-1.074 -0.42,-1.61 -0.15,-0.539 -0.29,-1.074 -0.43,-1.609 -0.14,-0.539 -0.28,-1.074 -0.42,-1.613 -0.15,-0.535 -0.29,-1.071 -0.43,-1.61 -0.14,-0.535 -0.28,-1.074 -0.42,-1.609 -0.14,-0.535 -0.29,-1.074 -0.43,-1.609 -0.14,-0.539 -0.28,-1.075 -0.43,-1.614 -0.14,-0.535 -0.28,-1.07 -0.42,-1.609 -0.14,-0.535 -0.28,-1.074 -0.42,-1.609 -0.14,-0.536 -0.29,-1.075 -0.43,-1.61 -0.14,-0.539 -0.28,-1.074 -0.42,-1.609 -0.15,-0.539 -0.29,-1.074 -0.43,-1.613 -0.14,-0.536 -0.28,-1.075 -0.42,-1.61 -0.15,-0.535 -0.29,-1.074 -0.43,-1.609 -0.14,-0.539 -0.28,-1.074 -0.42,-1.61 -0.14,-0.539 -0.29,-1.074 -0.43,-1.613 -0.14,-0.535 -0.29,-1.07 -0.43,-1.609 -0.14,-0.535 -0.28,-1.074 -0.42,-1.61 -0.14,-0.535 -0.28,-1.074 -0.42,-1.609 -0.15,-0.539 -0.29,-1.074 -0.43,-1.609 -0.14,-0.539 -0.28,-1.075 -0.42,-1.614 -0.15,-0.535 -0.29,-1.074 -0.43,-1.609 -0.14,-0.535 -0.28,-1.074 -0.43,-1.609 -0.14,-0.539 -0.28,-1.075 -0.42,-1.61 -0.14,-0.539 -0.28,-1.074 -0.42,-1.613 -0.15,-0.535 -0.29,-1.07 -0.43,-1.609 -0.14,-0.536 -0.29,-1.075 -0.43,-1.61 -0.14,-0.539 -0.28,-1.074 -0.42,-1.609 -0.14,-0.539 -0.28,-1.074 -0.43,-1.613 -0.14,-0.536 -0.28,-1.071 -0.42,-1.61 -0.14,-0.535 -0.28,-1.074 -0.42,-1.609 -0.15,-0.535 -0.29,-1.074 -0.43,-1.61 -0.14,-0.539 -0.29,-1.074 -0.43,-1.609 -0.14,-0.539 -0.28,-1.074 -0.42,-1.613 -0.14,-0.535 -0.28,-1.07 -0.43,-1.61 -0.14,-0.535 -0.28,-1.074 -0.42,-1.609 -0.14,-0.539 -0.29,-1.074 -0.43,-1.609 -0.14,-0.539 -0.28,-1.075 -0.42,-1.614 -0.14,-0.535 -0.29,-1.07 -0.43,-1.609 -0.14,-0.535 -0.28,-1.074 -0.42,-1.609 -0.14,-0.535 -0.28,-1.075 -0.43,-1.61 -0.14,-0.539 -0.28,-1.074 -0.42,-1.609 -0.15,-0.539 -0.29,-1.074 -0.43,-1.613 -0.14,-0.536 -0.28,-1.075 -0.42,-1.61 -0.14,-0.535 -0.29,-1.074 -0.43,-1.609 -0.14,-0.539 -0.28,-1.074 -0.42,-1.609 -0.14,-0.54 -0.29,-1.075 -0.43,-1.614 -0.14,-0.535 -0.28,-1.07 -0.42,-1.609 -0.15,-0.535 -0.29,-1.074 -0.43,-1.61 -0.14,-0.535 -0.28,-1.074 -0.42,-1.609 -0.14,-0.539 -0.29,-1.074 -0.43,-1.613 -0.14,-0.535 -0.28,-1.07 -0.42,-1.61 -0.15,-0.535 -0.29,-1.074 -0.43,-1.609 -0.14,-0.535 -0.28,-1.074 -0.42,-1.609 -0.15,-0.539 -0.29,-1.075 -0.43,-1.61 -0.14,-0.539 -0.28,-1.074 -0.42,-1.613 -0.14,-0.535 -0.29,-1.07 -0.43,-1.609 -0.14,-0.535 -0.28,-1.075 -0.43,-1.61 -0.14,-0.535 -0.28,-1.074 -0.42,-1.609 -0.14,-0.539 -0.28,-1.074 -0.42,-1.613 -0.15,-0.536 -0.29,-1.071 -0.43,-1.61 -0.14,-0.535 -0.28,-1.074 -0.42,-1.609 -0.15,-0.535 -0.29,-1.074 -0.43,-1.609 -0.14,-0.54 -0.28,-1.075 -0.43,-1.61 -0.14,-0.539 -0.28,-1.074 -0.42,-1.613 -0.14,-0.535 -0.28,-1.07 -0.42,-1.61 -0.14,-0.535 -0.29,-1.074 -0.43,-1.609 -0.14,-0.539 -0.28,-1.074 -0.43,-1.609 -0.14,-0.539 -0.28,-1.074 -0.42,-1.614 -0.14,-0.535 -0.28,-1.07 -0.43,-1.609 -0.14,-0.535 -0.28,-1.074 -0.42,-1.609 -0.14,-0.535 -0.28,-1.075 -0.42,-1.61 -0.15,-0.539 -0.29,-1.074 -0.43,-1.609 -0.14,-0.539 -0.29,-1.074 -0.43,-1.613 -0.14,-0.535 -0.28,-1.075 -0.42,-1.61 -0.14,-0.535 -0.28,-1.074 -0.42,-1.609 -0.15,-0.539 -0.29,-1.074 -0.43,-1.609 -0.14,-0.54 -0.28,-1.075 -0.43,-1.614 -0.14,-0.535 -0.28,-1.07 -0.42,-1.609 -0.14,-0.535 -0.28,-1.074 -0.43,-1.609 -0.14,-0.536 -0.28,-1.075 -0.42,-1.61 -0.14,-0.539 -0.28,-1.074 -0.42,-1.613 -0.15,-0.535 -0.29,-1.07 -0.43,-1.61 -0.14,-0.535 -0.29,-1.074 -0.43,-1.609 -0.14,-0.535 -0.28,-1.074 -0.42,-1.609 -0.14,-0.539 -0.28,-1.074 -0.43,-1.61 -0.14,-0.539 -0.28,-1.074 -0.42,-1.613 -0.14,-0.535 -0.28,-1.07 -0.43,-1.609 -0.14,-0.535 -0.28,-1.075 -0.42,-1.61 -0.14,-0.539 -0.29,-1.074 -0.43,-1.609 -0.14,-0.539 -0.28,-1.074 -0.42,-1.613 -0.14,-0.535 -0.28,-1.071 -0.43,-1.61 -0.14,-0.535 -0.28,-1.074 -0.42,-1.609 -0.14,-0.535 -0.29,-1.074 -0.43,-1.609 -0.14,-0.54 -0.28,-1.075 -0.42,-1.61 -0.14,-0.539 -0.29,-1.074 -0.43,-1.613 -0.14,-0.535 -0.28,-1.074 -0.42,-1.609 -0.14,-0.536 -0.28,-1.075 -0.43,-1.61 -0.14,-0.539 -0.28,-1.074 -0.42,-1.609 -0.15,-0.539 -0.29,-1.074 -0.43,-1.614 -0.14,-0.535 -0.28,-1.07 -0.42,-1.609 -0.14,-0.535 -0.29,-1.074 -0.43,-1.609 -0.14,-0.535 -0.28,-1.074 -0.42,-1.61 -0.14,-0.539 -0.29,-1.074 -0.43,-1.613 -0.14,-0.535 -0.28,-1.07 -0.42,-1.609 -0.15,-0.535 -0.29,-1.075 -0.43,-1.61 -0.14,-0.535 -0.28,-1.074 -0.42,-1.609 -0.14,-0.539 -0.29,-1.074 -0.43,-1.609 -0.14,-0.539 -0.28,-1.075 -0.43,-1.614 -0.14,-0.535 -0.28,-1.07 -0.42,-1.609 -0.14,-0.535 -0.28,-1.074 -0.42,-1.609 -0.15,-0.536 -0.29,-1.075 -0.43,-1.61 -0.14,-0.539 -0.28,-1.074 -0.42,-1.613 -0.14,-0.535 -0.29,-1.07 -0.43,-1.609 -0.14,-0.536 -0.28,-1.075 -0.43,-1.61 -0.14,-0.535 -0.28,-1.074 -0.42,-1.609 -0.14,-0.539 -0.28,-1.074 -0.42,-1.61 -0.15,-0.539 -0.29,-1.074 -0.43,-1.613 -0.14,-0.535 -0.28,-1.07 -0.43,-1.609 -0.14,-0.535 -0.28,-1.074 -0.42,-1.61 -0.14,-0.539 -0.28,-1.074 -0.43,-1.609 -0.14,-0.539 -0.28,-1.074 -0.42,-1.613 -0.14,-0.535 -0.28,-1.071 -0.42,-1.61 -0.15,-0.535 -0.29,-1.074 -0.43,-1.609 -0.14,-0.535 -0.29,-1.074 -0.43,-1.609 -0.14,-0.539 -0.28,-1.075 -0.42,-1.614 -0.14,-0.535 -0.28,-1.07 -0.43,-1.609 -0.14,-0.535 -0.28,-1.074 -0.42,-1.609 -0.14,-0.536 -0.28,-1.075 -0.43,-1.61 -0.14,-0.539 -0.28,-1.074 -0.42,-1.609 -0.14,-0.539 -0.29,-1.074 -0.43,-1.613 -0.14,-0.536 -0.28,-1.071 -0.42,-1.61 -0.14,-0.535 -0.28,-1.074 -0.42,-1.609 -0.15,-0.539 -0.29,-1.074 -0.43,-1.61 -0.14,-0.539 -0.29,-1.074 -0.43,-1.609 -0.14,-0.539 -0.28,-1.074 -0.42,-1.613 -0.14,-0.535 -0.29,-1.074 -0.43,-1.61 -0.14,-0.535 -0.28,-1.074 -0.42,-1.609 -0.14,-0.539 -0.28,-1.074 -0.43,-1.609 -0.14,-0.539 -0.28,-1.075 -0.42,-1.614 -0.15,-0.535 -0.29,-1.07 -0.43,-1.609 -0.14,-0.535 -0.28,-1.074 -0.42,-1.609 -0.14,-0.539 -0.28,-1.075 -0.43,-1.61 -0.14,-0.539 -0.28,-1.074 -0.42,-1.613 -0.14,-0.535 -0.29,-1.07 -0.43,-1.609 -0.14,-0.536 -0.28,-1.075 -0.42,-1.61 -0.15,-0.535 -0.29,-1.074 -0.43,-1.609 -0.14,-0.539 -0.28,-1.074 -0.42,-1.61 -0.14,-0.539 -0.28,-1.074 -0.43,-1.613 -0.14,-0.535 -0.28,-1.074 -0.42,-1.609 -0.15,-0.535 -0.29,-1.074 -0.43,-1.61 -0.14,-0.539 -0.28,-1.074 -0.42,-1.609 -0.14,-0.539 -0.29,-1.074 -0.43,-1.613 -0.14,-0.535 -0.28,-1.071 -0.42,-1.61 -0.14,-0.535 -0.29,-1.074 -0.43,-1.609 -0.14,-0.535 -0.28,-1.074 -0.42,-1.609 -0.15,-0.539 -0.29,-1.075 -0.43,-1.614 -0.14,-0.535 -0.28,-1.07 -0.42,-1.609 -0.14,-0.535 -0.29,-1.074 -0.43,-1.609 -0.14,-0.536 -0.28,-1.075 -0.42,-1.61 -0.15,-0.539 -0.29,-1.074 -0.43,-1.609 -0.14,-0.539 -0.28,-1.074 -0.42,-1.613 -0.15,-0.536 -0.29,-1.071 -0.43,-1.61 -0.14,-0.535 -0.28,-1.074 -0.42,-1.609 -0.14,-0.535 -0.29,-1.074 -0.43,-1.61 -0.14,-0.539 -0.28,-1.074 -0.43,-1.613 -0.14,-0.535 -0.28,-1.07 -0.42,-1.609 -0.14,-0.535 -0.28,-1.074 -0.42,-1.61 -0.15,-0.535 -0.29,-1.074 -0.43,-1.609 -0.14,-0.539 -0.28,-1.074 -0.42,-1.609 -0.15,-0.539 -0.29,-1.075 -0.43,-1.614 -0.14,-0.535 -0.28,-1.07 -0.43,-1.609 -0.14,-0.535 -0.28,-1.074 -0.42,-1.609 -0.14,-0.539 -0.28,-1.075 -0.42,-1.61 -0.15,-0.539 -0.29,-1.074 -0.43,-1.613 -0.14,-0.535 -0.28,-1.07 -0.43,-1.609 -0.14,-0.536 -0.28,-1.075 -0.42,-1.61 -0.14,-0.535 -0.28,-1.074 -0.43,-1.609 -0.14,-0.539 -0.28,-1.074 -0.42,-1.61 -0.14,-0.539 -0.28,-1.074 -0.42,-1.613 -0.15,-0.535 -0.29,-1.074 -0.43,-1.609 -0.14,-0.535 -0.29,-1.074 -0.43,-1.61 -0.14,-0.539 -0.28,-1.074 -0.42,-1.609 -0.14,-0.539 -0.28,-1.074 -0.43,-1.613 -0.14,-0.535 -0.28,-1.071 -0.42,-1.61 -0.14,-0.535 -0.28,-1.074 -0.43,-1.609 -0.14,-0.535 -0.28,-1.074 -0.42,-1.609 -0.14,-0.539 -0.29,-1.075 -0.43,-1.614 -0.14,-0.535 -0.28,-1.07 -0.42,-1.609 -0.14,-0.535 -0.28,-1.074 -0.43,-1.609 -0.14,-0.536 -0.28,-1.075 -0.42,-1.61 -0.15,-0.539 -0.29,-1.074 -0.43,-1.609 -0.14,-0.539 -0.28,-1.074 -0.42,-1.613 -0.14,-0.536 -0.29,-1.071 -0.43,-1.61 -0.14,-0.535 -0.28,-1.074 -0.42,-1.609 -0.14,-0.535 -0.28,-1.074 -0.43,-1.61 -0.14,-0.539 -0.28,-1.074 -0.42,-1.613 -0.15,-0.535 -0.29,-1.07 -0.43,-1.609 -0.14,-0.535 -0.28,-1.074 -0.42,-1.61 -0.14,-0.535 -0.28,-1.074 -0.43,-1.609 -0.14,-0.539 -0.28,-1.074 -0.42,-1.609 -0.15,-0.539 -0.29,-1.075 -0.43,-1.614 -0.14,-0.535 -0.28,-1.07 -0.42,-1.609 -0.15,-0.535 -0.29,-1.074 -0.43,-1.609 -0.14,-0.539 -0.28,-1.075 -0.42,-1.61 -0.14,-0.539 -0.28,-1.074 -0.43,-1.613 -0.14,-0.535 -0.28,-1.07 -0.43,-1.609 -0.14,-0.536 -0.28,-1.075 -0.42,-1.61 -0.14,-0.535 -0.28,-1.074 -0.42,-1.609 -0.14,-0.539 -0.29,-1.074 -0.43,-1.613 -0.14,-0.536 -0.28,-1.071 -0.42,-1.61 -0.15,-0.535 -0.29,-1.074 -0.43,-1.609 -0.14,-0.535 -0.28,-1.074 -0.42,-1.61 -0.15,-0.539 -0.29,-1.074 -0.43,-1.609 -0.14,-0.539 -0.28,-1.074 -0.42,-1.613 -0.14,-0.535 -0.29,-1.071 -0.43,-1.61 -0.14,-0.535 -0.28,-1.074 -0.43,-1.609 -0.14,-0.535 -0.28,-1.074 -0.42,-1.609 -0.14,-0.539 -0.28,-1.075 -0.42,-1.614 -0.15,-0.535 -0.29,-1.07 -0.43,-1.609 -0.14,-0.535 -0.28,-1.074 -0.42,-1.609 -0.15,-0.536 -0.29,-1.075 -0.43,-1.61 -0.14,-0.539 -0.28,-1.074 -0.43,-1.609 -0.14,-0.539 -0.28,-1.074 -0.42,-1.613 -0.14,-0.536 -0.28,-1.071 -0.42,-1.61 -0.15,-0.535 -0.29,-1.074 -0.43,-1.609 -0.14,-0.539 -0.28,-1.074 -0.43,-1.61 -0.14,-0.539 -0.28,-1.074 -0.42,-1.613 -0.14,-0.535 -0.28,-1.07 -0.43,-1.609 -0.14,-0.535 -0.28,-1.074 -0.42,-1.61 -0.14,-0.535 -0.28,-1.074 -0.42,-1.609 -0.15,-0.539 -0.29,-1.074 -0.43,-1.609 -0.14,-0.539 -0.29,-1.075 -0.43,-1.614 -0.14,-0.535 -0.28,-1.074 -0.42,-1.609 -0.14,-0.535 -0.28,-1.074 -0.43,-1.609 -0.14,-0.539 -0.28,-1.075 -0.42,-1.61 -0.14,-0.539 -0.28,-1.074 -0.43,-1.613 -0.14,-0.535 -0.28,-1.07 -0.42,-1.609 -0.14,-0.536 -0.29,-1.075 -0.43,-1.61 -0.14,-0.535 -0.28,-1.074 -0.42,-1.609 -0.14,-0.539 -0.28,-1.074 -0.43,-1.613 -0.14,-0.536 -0.28,-1.071 -0.42,-1.61 -0.14,-0.535 -0.29,-1.074 -0.43,-1.609 -0.14,-0.535 -0.28,-1.074 -0.42,-1.61 -0.14,-0.539 -0.29,-1.074 -0.43,-1.609 -0.14,-0.539 -0.28,-1.074 -0.42,-1.613 -0.14,-0.535 -0.28,-1.07 -0.43,-1.61 -0.14,-0.535 -0.28,-1.074 -0.42,-1.609 -0.15,-0.539 -0.29,-1.074 -0.43,-1.609 -0.14,-0.539 -0.28,-1.075 -0.42,-1.614 -0.14,-0.535 -0.29,-1.07 -0.43,-1.609 -0.14,-0.535 -0.28,-1.074 -0.42,-1.609 -0.14,-0.535 -0.29,-1.075 -0.43,-1.61 -0.14,-0.539 -0.28,-1.074 -0.42,-1.609 -0.15,-0.539 -0.29,-1.074 -0.43,-1.613 -0.14,-0.536 -0.28,-1.071 -0.42,-1.61 -0.14,-0.535 -0.29,-1.074 -0.43,-1.609 -0.14,-0.539 -0.28,-1.074 -0.42,-1.609 -0.15,-0.54 -0.29,-1.075 -0.43,-1.614 -0.14,-0.535 -0.28,-1.07 -0.42,-1.609 -0.15,-0.535 -0.29,-1.074 -0.43,-1.61 -0.14,-0.535 -0.28,-1.074 -0.42,-1.609 -0.14,-0.539 -0.29,-1.074 -0.43,-1.609 -0.14,-0.539 -0.28,-1.074 -0.43,-1.614 -0.14,-0.535 -0.28,-1.074 -0.42,-1.609 -0.14,-0.535 -0.28,-1.074 -0.42,-1.609 -0.15,-0.539 -0.29,-1.075 -0.43,-1.61 -0.14,-0.539 -0.28,-1.074 -0.42,-1.613 -0.15,-0.535 -0.29,-1.07 -0.43,-1.609 -0.14,-0.535 -0.28,-1.075 -0.43,-1.61 -0.14,-0.535 -0.28,-1.074 -0.42,-1.609 -0.14,-0.539 -0.28,-1.074 -0.42,-1.613 -0.14,-0.536 -0.29,-1.071 -0.43,-1.61 -0.14,-0.535 -0.29,-1.074 -0.43,-1.609 -0.14,-0.535 -0.28,-1.074 -0.42,-1.609 -0.14,-0.54 -0.28,-1.075 -0.42,-1.61 -0.15,-0.539 -0.29,-1.074 -0.43,-1.613 -0.14,-0.535 -0.28,-1.07 -0.42,-1.61 -0.15,-0.535 -0.29,-1.074 -0.43,-1.609 -0.14,-0.539 -0.29,-1.074 -0.43,-1.609 -0.14,-0.539 -0.28,-1.074 -0.42,-1.614 -0.14,-0.535 -0.28,-1.07 -0.42,-1.609 -0.15,-0.535 -0.29,-1.074 -0.43,-1.609 -0.14,-0.535 -0.29,-1.075 -0.43,-1.61 -0.14,-0.539 -0.28,-1.074 -0.42,-1.609 -0.14,-0.539 -0.28,-1.074 -0.43,-1.613 -0.14,-0.535 -0.28,-1.075 -0.42,-1.61 -0.14,-0.535 -0.28,-1.074 -0.42,-1.609 -0.15,-0.539 -0.29,-1.074 -0.43,-1.609 -0.14,-0.54 -0.29,-1.075 -0.43,-1.614 -0.14,-0.535 -0.28,-1.07 -0.42,-1.609 -0.14,-0.535 -0.28,-1.074 -0.43,-1.609 -0.14,-0.536 -0.28,-1.075 -0.42,-1.61 -0.14,-0.539 -0.29,-1.074 -0.43,-1.609 -0.14,-0.539 -0.28,-1.074 -0.42,-1.614 -0.14,-0.535 -0.29,-1.074 -0.43,-1.609 -0.14,-0.535 -0.28,-1.074 -0.42,-1.609 -0.14,-0.539 -0.28,-1.074 -0.43,-1.61 -0.14,-0.539 -0.28,-1.074 -0.42,-1.613 -0.15,-0.535 -0.29,-1.07 -0.43,-1.609 -0.14,-0.535 -0.28,-1.075 -0.42,-1.61 -0.14,-0.535 -0.29,-1.074 -0.43,-1.609 -0.14,-0.539 -0.28,-1.074 -0.42,-1.613 -0.14,-0.535 -0.29,-1.071 -0.43,-1.61 -0.14,-0.535 -0.28,-1.074 -0.42,-1.609 -0.15,-0.535 -0.29,-1.074 -0.43,-1.609 -0.14,-0.54 -0.28,-1.075 -0.42,-1.61 -0.14,-0.539 -0.29,-1.074 -0.43,-1.613 -0.14,-0.535 -0.28,-1.074 -0.42,-1.609 -0.15,-0.536 -0.29,-1.075 -0.43,-1.61 -0.14,-0.539 -0.28,-1.074 -0.42,-1.609 -0.15,-0.539 -0.29,-1.074 -0.43,-1.614 -0.14,-0.535 -0.28,-1.07 -0.42,-1.609 -0.14,-0.535 -0.29,-1.074 -0.43,-1.609 -0.14,-0.535 -0.28,-1.074 -0.43,-1.61 -0.14,-0.539 -0.28,-1.074 -0.42,-1.609 -0.14,-0.539 -0.28,-1.074 -0.42,-1.613 -0.15,-0.535 -0.29,-1.075 -0.43,-1.61 -0.14,-0.535 -0.28,-1.074 -0.42,-1.609 -0.15,-0.539 -0.29,-1.074 -0.43,-1.609 -0.14,-0.539 -0.28,-1.075 -0.43,-1.614 -0.14,-0.535 -0.28,-1.07 -0.42,-1.609 -0.14,-0.535 -0.28,-1.074 -0.42,-1.609 -0.15,-0.536 -0.29,-1.075 -0.43,-1.61 -0.14,-0.539 -0.28,-1.074 -0.43,-1.613 -0.14,-0.535 -0.28,-1.07 -0.42,-1.609 -0.14,-0.536 -0.28,-1.075 -0.43,-1.61 -0.14,-0.535 -0.28,-1.074 -0.42,-1.609 -0.14,-0.539 -0.28,-1.074 -0.42,-1.61 -0.15,-0.539 -0.29,-1.074 -0.43,-1.6129 -0.14,-0.5352 -0.29,-1.0703 -0.43,-1.6094 -0.14,-0.5351 -0.28,-1.0742 -0.42,-1.6094 -0.14,-0.5351 -0.28,-1.0742 -0.43,-1.6093 -0.14,-0.5391 -0.28,-1.0742 -0.42,-1.6133 -0.14,-0.5352 -0.28,-1.0703 -0.43,-1.6094 -0.14,-0.5351 -0.28,-1.0742 -0.42,-1.6094 -0.14,-0.5351 -0.29,-1.0742 -0.43,-1.6093 -0.14,-0.5391 -0.28,-1.0743 -0.42,-1.6094 -0.14,-0.5391 -0.28,-1.0742 -0.42,-1.6133 -0.15,-0.5351 -0.29,-1.0742 -0.43,-1.6094 -0.14,-0.5351 -0.29,-1.0742 -0.43,-1.6093 -0.14,-0.5391 -0.28,-1.0743 -0.42,-1.6094 -0.14,-0.5391 -0.28,-1.0742 -0.43,-1.6133 -0.14,-0.5352 -0.28,-1.0703 -0.42,-1.6094 -0.14,-0.5351 -0.28,-1.0742 -0.43,-1.6093 -0.14,-0.5352 -0.28,-1.0743 -0.42,-1.6094 -0.15,-0.5391 -0.29,-1.0742 -0.43,-1.6094 -0.14,-0.5391 -0.28,-1.0742 -0.42,-1.6133 -0.14,-0.5351 -0.28,-1.0742 -0.43,-1.6094 -0.14,-0.5351 -0.28,-1.0742 -0.42,-1.6093 -0.14,-0.5391 -0.29,-1.0742 -0.43,-1.6094 -0.14,-0.5391 -0.28,-1.0742 -0.42,-1.6133 -0.14,-0.5351 -0.29,-1.0703 -0.43,-1.6094 -0.14,-0.5351 -0.28,-1.0742 -0.42,-1.6093 -0.14,-0.5352 -0.28,-1.0743 -0.43,-1.6094 -0.14,-0.5391 -0.28,-1.0742 -0.42,-1.6133 -0.15,-0.5351 -0.29,-1.0703 -0.43,-1.6094 -0.14,-0.5351 -0.28,-1.0742 -0.42,-1.6093 -0.14,-0.5352 -0.29,-1.0743 -0.43,-1.6094 -0.14,-0.5391 -0.28,-1.0742 -0.42,-1.6094 -0.14,-0.5391 -0.29,-1.0742 -0.43,-1.6133 -0.14,-0.5351 -0.28,-1.0703 -0.42,-1.6093 -0.15,-0.5352 -0.29,-1.0743 -0.43,-1.6094 -0.14,-0.5391 -0.28,-1.0742 -0.42,-1.6094 -0.14,-0.5391 -0.29,-1.0742 -0.43,-1.6133 -0.14,-0.5351 -0.28,-1.0703 -0.43,-1.6094 -0.14,-0.5351 -0.28,-1.0742 -0.42,-1.6093 -0.14,-0.5352 -0.28,-1.0742 -0.42,-1.6094 -0.15,-0.5391 -0.29,-1.0742 -0.43,-1.6094 -0.14,-0.539 -0.28,-1.0742 -0.42,-1.6133 -0.14,-0.5351 -0.29,-1.0742 -0.43,-1.6093 -0.14,-0.5352 -0.28,-1.0743 -0.43,-1.6094 -0.14,-0.5391 -0.28,-1.0742 -0.42,-1.6094 -0.14,-0.539 -0.28,-1.0742 -0.42,-1.6133 -0.15,-0.5351 -0.29,-1.0703 -0.43,-1.6093 -0.14,-0.5352 -0.28,-1.0743 -0.43,-1.6094 -0.14,-0.5352 -0.28,-1.0742 -0.42,-1.6094 -0.14,-0.5391 -0.28,-1.0742 -0.43,-1.6094 -0.14,-0.539 -0.28,-1.0742 -0.42,-1.6132 -0.14,-0.5352 -0.28,-1.0743 -0.42,-1.6094 -0.15,-0.5352 -0.29,-1.0742 -0.43,-1.6094 -0.14,-0.5391 -0.29,-1.0742 -0.43,-1.6094 -0.14,-0.539 -0.28,-1.0742 -0.42,-1.6133 -0.14,-0.5351 -0.28,-1.0703 -0.43,-1.6093 -0.14,-0.5352 -0.28,-1.0742 -0.42,-1.6094 -0.14,-0.5352 -0.28,-1.07422 -0.43,-1.60938 -0.14,-0.53906 -0.28,-1.07422 -0.42,-1.61328 -0.14,-0.53516 -0.29,-1.07031 -0.43,-1.60938" /><path
         id="path48"
         style="fill:#000000;fill-opacity:1;fill-rule:nonzero;stroke:none"
         d="m 985.68,635.34 0.683,-14.453 h -1.758 c -1.042,4.687 -2.648,7.664 -4.812,8.933 -2.164,1.27 -6.012,1.907 -11.547,1.907 h -11.133 v -26.223 h 2.637 c 8.105,0 14.063,-0.512 17.871,-1.539 3.809,-1.024 6.91,-2.985 9.301,-5.883 2.394,-2.894 3.59,-6.379 3.59,-10.449 0,-4.914 -1.824,-9.227 -5.469,-12.938 -3.645,-3.711 -9.93,-5.566 -18.848,-5.566 h -28.027 v 1.805 c 4.102,0.132 6.723,0.781 7.863,1.953 1.137,1.172 1.707,3.941 1.707,8.301 v 42.089 c 0,3.352 -0.234,5.618 -0.707,6.789 -0.472,1.172 -1.246,2 -2.32,2.489 -1.074,0.488 -3.059,0.812 -5.957,0.976 v 1.809 z m -28.567,-62.258 c 2.864,-0.457 5.094,-0.684 6.692,-0.684 4.004,0 7.625,1.336 10.863,4.004 3.238,2.672 4.859,6.364 4.859,11.086 0,4.883 -1.695,8.504 -5.078,10.864 -3.386,2.359 -7.683,3.539 -12.89,3.539 -1.465,0 -2.95,-0.129 -4.446,-0.391 v -28.418" /><path
         id="path50"
         style="fill:#000000;fill-opacity:1;fill-rule:nonzero;stroke:none"
         d="m 993.543,646.754 v 2.051 c 4.945,-2.442 9.067,-5.325 12.347,-8.645 4.66,-4.75 8.26,-10.324 10.8,-16.722 2.54,-6.395 3.81,-13.063 3.81,-19.997 0,-10.089 -2.49,-19.293 -7.45,-27.609 -4.96,-8.316 -11.47,-14.266 -19.507,-17.848 v 1.805 c 4.004,2.246 7.297,5.285 9.887,9.109 2.59,3.825 4.51,8.692 5.76,14.598 1.26,5.91 1.88,12.07 1.88,18.481 0,6.933 -0.53,13.265 -1.61,18.996 -0.82,4.492 -1.83,8.09 -3.05,10.789 -1.22,2.703 -2.84,5.308 -4.86,7.812 -2.019,2.508 -4.687,4.903 -8.007,7.18 v 0" /><path
         id="path52"
         style="fill:none;stroke:#000000;stroke-width:3.5;stroke-linecap:butt;stroke-linejoin:miter;stroke-miterlimit:10;stroke-dasharray:none;stroke-opacity:1"
         d="M 1054.34,646.387 1052.92,7.53906 M 1134.34,646.387 1132.92,7.53906 M 1214.34,646.387 1212.92,7.53906 M 1294.34,646.387 1292.92,7.53906 M 1374.34,646.387 1372.92,7.53906 M 1454.34,646.387 1452.92,7.53906 M 1534.34,646.387 1532.92,7.53906 M 1614.34,646.387 1612.92,7.53906 M 1694.34,646.387 1692.92,7.53906 M 1054.34,646.387 h 638.93 m -638.93,-80 h 638.93 m -638.93,-80 h 638.93 m -638.93,-80 h 638.93 m -638.93,-80 h 638.93 m -638.93,-80 h 638.93 m -638.93,-80 h 638.93 M 1054.34,86.3867 h 638.93 M 1054.34,6.38672 h 638.93" /><path
         id="path54"
         style="fill:none;stroke:#000000;stroke-width:7.5;stroke-linecap:butt;stroke-linejoin:miter;stroke-miterlimit:10;stroke-dasharray:none;stroke-opacity:1"
         d="m 1373.69,5.93359 0.52,632.14841" /><path
         id="path56"
         style="fill:#000000;fill-opacity:1;fill-rule:evenodd;stroke:none"
         d="m 1356.03,598.863 18.12,49.153 18.04,-49.184 c -10.67,7.863 -25.27,7.832 -36.16,0.031" /><path
         id="path58"
         style="fill:none;stroke:#000000;stroke-width:7.5;stroke-linecap:butt;stroke-linejoin:miter;stroke-miterlimit:10;stroke-dasharray:none;stroke-opacity:1"
         d="m 1053.33,246.875 629.21,-0.523" /><path
         id="path60"
         style="fill:#000000;fill-opacity:1;fill-rule:evenodd;stroke:none"
         d="m 1643.32,264.535 49.15,-18.121 -49.18,-18.039 c 7.87,10.668 7.83,25.273 0.03,36.16" /><path
         id="path62"
         style="fill:none;stroke:#000000;stroke-width:10;stroke-linecap:butt;stroke-linejoin:miter;stroke-miterlimit:10;stroke-dasharray:none;stroke-opacity:1"
         d="M 1453.51,272.141 V 225.469" /><path
         id="path64"
         style="fill:none;stroke:#000000;stroke-width:10;stroke-linecap:butt;stroke-linejoin:miter;stroke-miterlimit:10;stroke-dasharray:none;stroke-opacity:1"
         d="m 1397.02,326.387 h -46.68" /><path
         id="path66"
         style="fill:#000000;fill-opacity:1;fill-rule:nonzero;stroke:none"
         d="m 1321.17,313.902 16.11,7.864 h 1.61 v -55.911 c 0,-3.71 0.16,-6.019 0.47,-6.933 0.31,-0.91 0.95,-1.609 1.93,-2.098 0.97,-0.488 2.96,-0.765 5.95,-0.832 v -1.804 h -24.9 v 1.804 c 3.12,0.067 5.14,0.336 6.05,0.809 0.91,0.469 1.55,1.105 1.91,1.902 0.36,0.797 0.54,3.184 0.54,7.152 v 35.743 c 0,4.82 -0.17,7.91 -0.49,9.277 -0.23,1.043 -0.65,1.809 -1.25,2.297 -0.6,0.488 -1.32,0.73 -2.17,0.73 -1.2,0 -2.88,-0.504 -5.03,-1.511 l -0.73,1.511" /><path
         id="path68"
         style="fill:#000000;fill-opacity:1;fill-rule:nonzero;stroke:none"
         d="m 1487.59,230.957 16.12,7.859 h 1.61 V 182.91 c 0,-3.711 0.15,-6.023 0.47,-6.933 0.3,-0.911 0.94,-1.614 1.92,-2.102 0.98,-0.488 2.97,-0.762 5.96,-0.828 v -1.809 h -24.9 v 1.809 c 3.12,0.066 5.14,0.332 6.05,0.805 0.91,0.472 1.55,1.109 1.91,1.906 0.36,0.797 0.53,3.18 0.53,7.152 v 35.742 c 0,4.817 -0.16,7.911 -0.49,9.278 -0.22,1.043 -0.64,1.804 -1.24,2.293 -0.6,0.488 -1.33,0.734 -2.17,0.734 -1.21,0 -2.88,-0.504 -5.03,-1.516 l -0.74,1.516" /><path
         id="path70"
         style="fill:#000000;fill-opacity:1;fill-rule:nonzero;stroke:none"
         d="m 1652.26,222.566 c 1.59,-1.691 2.8,-3.382 3.61,-5.078 0.59,-1.172 1.55,-4.246 2.88,-9.226 l 4.3,6.445 c 1.14,1.563 2.52,3.051 4.15,4.465 1.63,1.418 3.06,2.387 4.3,2.906 0.78,0.328 1.64,0.488 2.59,0.488 1.39,0 2.51,-0.375 3.34,-1.121 0.83,-0.75 1.25,-1.66 1.25,-2.734 0,-1.238 -0.25,-2.086 -0.74,-2.539 -0.91,-0.817 -1.95,-1.223 -3.12,-1.223 -0.69,0 -1.42,0.149 -2.2,0.442 -1.53,0.519 -2.56,0.781 -3.08,0.781 -0.78,0 -1.7,-0.457 -2.78,-1.367 -2.02,-1.696 -4.43,-4.965 -7.22,-9.817 l 4,-16.797 c 0.62,-2.57 1.14,-4.109 1.56,-4.613 0.42,-0.504 0.85,-0.758 1.27,-0.758 0.68,0 1.48,0.375 2.39,1.125 1.79,1.496 3.32,3.45 4.59,5.86 l 1.71,-0.879 c -2.05,-3.844 -4.65,-7.031 -7.81,-9.571 -1.79,-1.433 -3.3,-2.148 -4.54,-2.148 -1.83,0 -3.27,1.023 -4.35,3.074 -0.68,1.27 -2.1,6.739 -4.25,16.407 -5.07,-8.821 -9.15,-14.5 -12.2,-17.04 -1.99,-1.628 -3.91,-2.441 -5.77,-2.441 -1.3,0 -2.48,0.473 -3.56,1.414 -0.78,0.719 -1.17,1.676 -1.17,2.883 0,1.074 0.36,1.969 1.07,2.684 0.72,0.718 1.6,1.074 2.64,1.074 1.04,0 2.15,-0.52 3.32,-1.563 0.85,-0.746 1.5,-1.121 1.95,-1.121 0.4,0 0.9,0.258 1.52,0.781 1.53,1.235 3.61,3.907 6.25,8.008 2.63,4.102 4.36,7.063 5.17,8.887 -2.02,7.91 -3.11,12.094 -3.27,12.547 -0.75,2.117 -1.72,3.613 -2.93,4.492 -1.2,0.879 -2.98,1.32 -5.32,1.32 -0.75,0 -1.61,-0.035 -2.59,-0.097 v 1.757 l 13.04,2.293" /><path
         id="path72"
         style="fill:#000000;fill-opacity:1;fill-rule:nonzero;stroke:none"
         d="m 1418.39,638.418 c 1.11,-1.887 1.88,-3.652 2.3,-5.297 0.42,-1.644 0.85,-4.875 1.27,-9.691 l 2.15,-24.024 c 1.95,2.344 4.78,6.055 8.49,11.133 1.79,2.473 4.01,5.844 6.64,10.106 1.6,2.605 2.58,4.429 2.93,5.468 0.2,0.524 0.29,1.059 0.29,1.614 0,0.359 -0.11,0.652 -0.33,0.878 -0.23,0.227 -0.83,0.497 -1.79,0.805 -0.96,0.309 -1.75,0.879 -2.39,1.711 -0.63,0.828 -0.95,1.781 -0.95,2.856 0,1.336 0.39,2.41 1.17,3.222 0.78,0.813 1.76,1.219 2.93,1.219 1.43,0 2.65,-0.594 3.66,-1.781 1.01,-1.188 1.51,-2.824 1.51,-4.907 0,-2.57 -0.88,-5.507 -2.63,-8.812 -1.76,-3.305 -5.14,-8.375 -10.16,-15.211 -5.01,-6.836 -11.08,-14.289 -18.21,-22.363 -4.91,-5.567 -8.56,-9.074 -10.94,-10.524 -2.37,-1.449 -4.41,-2.172 -6.1,-2.172 -1.01,0 -1.9,0.383 -2.66,1.149 -0.77,0.766 -1.15,1.652 -1.15,2.66 0,1.27 0.53,2.426 1.59,3.465 1.05,1.043 2.2,1.562 3.44,1.562 0.65,0 1.19,-0.144 1.61,-0.437 0.26,-0.164 0.55,-0.625 0.85,-1.391 0.31,-0.765 0.6,-1.277 0.86,-1.539 0.16,-0.164 0.36,-0.246 0.59,-0.246 0.19,0 0.53,0.164 1.02,0.488 1.79,1.11 3.87,2.868 6.25,5.274 3.12,3.191 5.44,5.797 6.93,7.812 l -2.73,30.957 c -0.45,5.114 -1.14,8.223 -2.05,9.328 -0.91,1.106 -2.44,1.661 -4.59,1.661 -0.69,0 -1.9,-0.098 -3.66,-0.293 l -0.44,1.804 14.3,3.516" /><path
         id="path74"
         style="fill:#000000;fill-opacity:1;fill-rule:nonzero;stroke:none"
         d="m 1345.09,240.137 c 4.4,0 8.29,-0.953 11.67,-2.856 3.39,-1.906 6.04,-4.722 7.96,-8.449 1.92,-3.727 2.88,-7.594 2.88,-11.598 0,-7.093 -2.06,-14.539 -6.17,-22.336 -4.12,-7.796 -9.5,-13.746 -16.14,-17.847 -6.64,-4.102 -13.51,-6.153 -20.61,-6.153 -5.11,0 -9.38,1.133 -12.82,3.395 -3.43,2.262 -5.97,5.246 -7.61,8.957 -1.64,3.711 -2.47,7.309 -2.47,10.793 0,6.184 1.49,12.297 4.47,18.336 2.98,6.039 6.54,11.082 10.67,15.137 4.13,4.05 8.54,7.168 13.23,9.347 4.69,2.184 9.67,3.274 14.94,3.274 z m -1.66,-3.125 c -3.25,0 -6.43,-0.805 -9.54,-2.418 -3.11,-1.61 -6.19,-4.246 -9.26,-7.91 -3.06,-3.661 -5.81,-8.454 -8.25,-14.379 -2.99,-7.293 -4.49,-14.176 -4.49,-20.657 0,-4.621 1.19,-8.714 3.56,-12.277 2.38,-3.566 6.03,-5.348 10.94,-5.348 2.97,0 5.87,0.731 8.72,2.196 2.85,1.465 5.82,3.972 8.91,7.519 3.87,4.461 7.13,10.149 9.77,17.067 2.63,6.918 3.95,13.371 3.95,19.359 0,4.43 -1.19,8.344 -3.56,11.746 -2.38,3.403 -5.96,5.102 -10.75,5.102 v 0" /><path
         id="path76"
         style="fill:#000000;fill-opacity:1;fill-rule:nonzero;stroke:none"
         d="m 1919.7,602.918 c 4.59,-0.977 8.02,-2.539 10.3,-4.688 3.16,-2.996 4.74,-6.656 4.74,-10.988 0,-3.285 -1.04,-6.437 -3.13,-9.449 -2.08,-3.008 -4.94,-5.207 -8.57,-6.59 -3.63,-1.383 -9.17,-2.074 -16.62,-2.074 h -31.25 v 1.805 h 2.49 c 2.77,0 4.75,0.879 5.96,2.636 0.74,1.141 1.12,3.567 1.12,7.278 v 42.773 c 0,4.102 -0.47,6.688 -1.42,7.762 -1.27,1.433 -3.16,2.148 -5.66,2.148 h -2.49 v 1.809 h 28.61 c 5.34,0 9.62,-0.391 12.85,-1.172 4.88,-1.172 8.6,-3.25 11.17,-6.227 2.58,-2.98 3.86,-6.406 3.86,-10.277 0,-3.32 -1.01,-6.293 -3.02,-8.914 -2.02,-2.617 -5,-4.562 -8.94,-5.832 z m -25.59,2.637 c 1.21,-0.231 2.59,-0.399 4.13,-0.516 1.55,-0.113 3.25,-0.168 5.1,-0.168 4.75,0 8.33,0.512 10.72,1.535 2.39,1.028 4.23,2.598 5.49,4.715 1.27,2.113 1.91,4.426 1.91,6.934 0,3.871 -1.58,7.175 -4.74,9.91 -3.16,2.734 -7.76,4.101 -13.82,4.101 -3.25,0 -6.18,-0.359 -8.79,-1.074 z m 0,-31.641 c 3.78,-0.879 7.51,-1.32 11.19,-1.32 5.89,0 10.38,1.328 13.47,3.98 3.09,2.653 4.64,5.934 4.64,9.84 0,2.57 -0.7,5.043 -2.1,7.422 -1.4,2.375 -3.68,4.246 -6.83,5.613 -3.16,1.367 -7.07,2.051 -11.72,2.051 -2.02,0 -3.75,-0.031 -5.18,-0.098 -1.43,-0.062 -2.59,-0.179 -3.47,-0.339 v -27.149" /><path
         id="path78"
         style="fill:#000000;fill-opacity:1;fill-rule:nonzero;stroke:none"
         d="m 1932.05,642.754 v 2.051 c 4.94,-2.442 9.06,-5.325 12.35,-8.645 4.65,-4.75 8.25,-10.324 10.79,-16.722 2.54,-6.395 3.81,-13.063 3.81,-19.997 0,-10.089 -2.48,-19.293 -7.45,-27.609 -4.96,-8.316 -11.46,-14.266 -19.5,-17.848 v 1.805 c 4,2.246 7.29,5.285 9.88,9.109 2.59,3.825 4.51,8.692 5.77,14.598 1.25,5.91 1.87,12.07 1.87,18.481 0,6.933 -0.53,13.265 -1.61,18.996 -0.81,4.492 -1.83,8.09 -3.05,10.789 -1.22,2.703 -2.84,5.308 -4.86,7.812 -2.01,2.508 -4.68,4.903 -8,7.18 v 0" /><path
         id="path80"
         style="fill:none;stroke:#000000;stroke-width:3.5;stroke-linecap:butt;stroke-linejoin:miter;stroke-miterlimit:10;stroke-dasharray:none;stroke-opacity:1"
         d="m 2008.14,646.707 0.18,-640.04294 m 79.82,640.04294 0.18,-640.04294 m 79.82,640.04294 0.18,-640.04294 m 79.82,640.04294 0.16,-566.2031 0.02,-73.83984 m 79.82,640.04294 0.18,-640.04294 m 79.82,640.04294 0.18,-640.04294 m 79.82,640.04294 0.18,-640.04294 m 79.82,640.04294 0.18,-640.04294 m 79.82,640.04294 0.18,-640.04294 m -640.18,640.04294 639.88,0.125 m -639.88,-80.125 639.88,0.125 m -639.88,-80.125 639.88,0.125 m -639.88,-80.125 639.88,0.125 m -639.88,-80.125 639.88,0.125 m -639.88,-80.125 639.88,0.125 m -639.88,-80.125 639.88,0.125 m -639.88,-80.125 639.88,0.125 m -639.88,-80.12497 639.88,0.125" /><path
         id="path82"
         style="fill:none;stroke:#000000;stroke-width:7.5;stroke-linecap:butt;stroke-linejoin:miter;stroke-miterlimit:10;stroke-dasharray:none;stroke-opacity:1"
         d="M 2331.48,5.93359 2332,638.922" /><path
         id="path84"
         style="fill:#000000;fill-opacity:1;fill-rule:evenodd;stroke:none"
         d="m 2313.82,599.703 18.12,49.152 18.04,-49.183 c -10.67,7.863 -25.27,7.832 -36.16,0.031" /><path
         id="path86"
         style="fill:none;stroke:#000000;stroke-width:7.5;stroke-linecap:butt;stroke-linejoin:miter;stroke-miterlimit:10;stroke-dasharray:none;stroke-opacity:1"
         d="m 2011.18,327.371 633.3,-0.523" /><path
         id="path88"
         style="fill:#000000;fill-opacity:1;fill-rule:evenodd;stroke:none"
         d="m 2605.27,345.035 49.15,-18.121 -49.19,-18.039 c 7.87,10.668 7.84,25.27 0.04,36.16" /><path
         id="path90"
         style="fill:none;stroke:#000000;stroke-width:10;stroke-linecap:butt;stroke-linejoin:miter;stroke-miterlimit:10;stroke-dasharray:none;stroke-opacity:1"
         d="M 2412,349.035 V 302.363" /><path
         id="path92"
         style="fill:none;stroke:#000000;stroke-width:10;stroke-linecap:butt;stroke-linejoin:miter;stroke-miterlimit:10;stroke-dasharray:none;stroke-opacity:1"
         d="m 2355.55,407.012 h -46.67" /><path
         id="path94"
         style="fill:#000000;fill-opacity:1;fill-rule:nonzero;stroke:none"
         d="m 2360,428.984 16.11,7.864 h 1.62 v -55.91 c 0,-3.711 0.15,-6.024 0.46,-6.934 0.31,-0.91 0.95,-1.609 1.93,-2.098 0.97,-0.488 2.96,-0.765 5.95,-0.832 v -1.804 h -24.9 v 1.804 c 3.13,0.067 5.15,0.332 6.06,0.805 0.91,0.473 1.54,1.109 1.9,1.906 0.36,0.797 0.54,3.18 0.54,7.153 v 35.742 c 0,4.816 -0.16,7.91 -0.49,9.277 -0.23,1.043 -0.64,1.809 -1.24,2.297 -0.6,0.488 -1.33,0.73 -2.18,0.73 -1.2,0 -2.88,-0.504 -5.03,-1.511 l -0.73,1.511" /><path
         id="path96"
         style="fill:#000000;fill-opacity:1;fill-rule:nonzero;stroke:none"
         d="m 2419.15,403.438 16.12,7.863 h 1.61 v -55.91 c 0,-3.711 0.15,-6.02 0.46,-6.934 0.31,-0.91 0.95,-1.609 1.93,-2.098 0.98,-0.488 2.96,-0.765 5.96,-0.832 v -1.804 h -24.91 v 1.804 c 3.13,0.067 5.14,0.336 6.06,0.809 0.91,0.469 1.55,1.105 1.9,1.902 0.36,0.797 0.54,3.184 0.54,7.153 v 35.742 c 0,4.82 -0.16,7.91 -0.49,9.277 -0.23,1.043 -0.64,1.809 -1.24,2.297 -0.61,0.488 -1.33,0.731 -2.18,0.731 -1.2,0 -2.88,-0.504 -5.03,-1.512 l -0.73,1.512" /><path
         id="path98"
         style="fill:#000000;fill-opacity:1;fill-rule:nonzero;stroke:none"
         d="m 2610.91,305.613 c 1.6,-1.691 2.8,-3.383 3.62,-5.078 0.58,-1.172 1.54,-4.246 2.88,-9.226 l 4.29,6.445 c 1.14,1.562 2.53,3.051 4.16,4.469 1.62,1.414 3.05,2.382 4.29,2.902 0.78,0.328 1.65,0.488 2.59,0.488 1.4,0 2.51,-0.371 3.35,-1.121 0.82,-0.75 1.24,-1.66 1.24,-2.734 0,-1.238 -0.24,-2.082 -0.73,-2.539 -0.92,-0.813 -1.96,-1.223 -3.13,-1.223 -0.68,0 -1.42,0.149 -2.2,0.442 -1.52,0.519 -2.55,0.781 -3.07,0.781 -0.78,0 -1.71,-0.457 -2.79,-1.367 -2.01,-1.692 -4.42,-4.965 -7.22,-9.817 l 4,-16.797 c 0.62,-2.57 1.14,-4.109 1.56,-4.613 0.43,-0.504 0.85,-0.758 1.27,-0.758 0.69,0 1.48,0.375 2.4,1.125 1.79,1.496 3.32,3.449 4.59,5.86 l 1.7,-0.879 c -2.05,-3.84 -4.65,-7.032 -7.81,-9.571 -1.79,-1.433 -3.3,-2.148 -4.54,-2.148 -1.82,0 -3.27,1.023 -4.34,3.074 -0.69,1.27 -2.1,6.738 -4.25,16.406 -5.08,-8.82 -9.15,-14.5 -12.21,-17.039 -1.99,-1.629 -3.9,-2.441 -5.76,-2.441 -1.3,0 -2.49,0.473 -3.57,1.414 -0.78,0.719 -1.17,1.68 -1.17,2.883 0,1.074 0.36,1.969 1.08,2.683 0.72,0.719 1.59,1.075 2.63,1.075 1.05,0 2.15,-0.52 3.32,-1.563 0.85,-0.746 1.5,-1.121 1.96,-1.121 0.39,0 0.89,0.262 1.51,0.781 1.53,1.239 3.62,3.907 6.25,8.008 2.64,4.102 4.36,7.063 5.18,8.887 -2.02,7.91 -3.11,12.094 -3.28,12.547 -0.74,2.117 -1.72,3.613 -2.92,4.492 -1.21,0.879 -2.98,1.32 -5.33,1.32 -0.75,0 -1.61,-0.031 -2.58,-0.097 v 1.757 l 13.03,2.293" /><path
         id="path100"
         style="fill:#000000;fill-opacity:1;fill-rule:nonzero;stroke:none"
         d="m 2282.43,638.047 c 1.11,-1.887 1.87,-3.652 2.29,-5.297 0.43,-1.645 0.85,-4.875 1.27,-9.691 l 2.15,-24.024 c 1.95,2.344 4.79,6.055 8.5,11.133 1.79,2.473 4,5.844 6.64,10.105 1.6,2.606 2.57,4.43 2.93,5.469 0.19,0.524 0.29,1.059 0.29,1.613 0,0.356 -0.11,0.649 -0.34,0.879 -0.23,0.227 -0.82,0.496 -1.78,0.805 -0.96,0.309 -1.76,0.879 -2.4,1.711 -0.63,0.828 -0.95,1.781 -0.95,2.855 0,1.333 0.39,2.407 1.17,3.223 0.78,0.813 1.76,1.219 2.93,1.219 1.44,0 2.66,-0.594 3.67,-1.781 1,-1.188 1.51,-2.825 1.51,-4.907 0,-2.574 -0.88,-5.511 -2.64,-8.812 -1.76,-3.305 -5.14,-8.375 -10.15,-15.211 -5.02,-6.836 -11.09,-14.293 -18.22,-22.363 -4.91,-5.567 -8.56,-9.075 -10.93,-10.524 -2.38,-1.449 -4.41,-2.172 -6.11,-2.172 -1.01,0 -1.89,0.383 -2.66,1.149 -0.76,0.762 -1.15,1.648 -1.15,2.66 0,1.269 0.53,2.426 1.59,3.465 1.06,1.043 2.21,1.562 3.44,1.562 0.66,0 1.19,-0.144 1.61,-0.437 0.27,-0.164 0.55,-0.629 0.86,-1.391 0.31,-0.765 0.59,-1.281 0.85,-1.539 0.17,-0.164 0.36,-0.246 0.59,-0.246 0.2,0 0.54,0.164 1.02,0.488 1.8,1.11 3.88,2.867 6.25,5.274 3.13,3.191 5.44,5.797 6.94,7.812 l -2.74,30.957 c -0.45,5.114 -1.13,8.219 -2.05,9.328 -0.91,1.106 -2.44,1.661 -4.59,1.661 -0.68,0 -1.9,-0.098 -3.66,-0.293 l -0.44,1.804 14.31,3.516" /><path
         id="path102"
         style="fill:#000000;fill-opacity:1;fill-rule:nonzero;stroke:none"
         d="m 2372.9,320.094 c 4.4,0 8.29,-0.953 11.67,-2.856 3.39,-1.906 6.04,-4.722 7.96,-8.449 1.92,-3.726 2.88,-7.594 2.88,-11.598 0,-7.093 -2.06,-14.539 -6.18,-22.336 -4.11,-7.796 -9.49,-13.746 -16.13,-17.847 -6.64,-4.102 -13.51,-6.153 -20.61,-6.153 -5.11,0 -9.38,1.133 -12.81,3.395 -3.44,2.262 -5.98,5.246 -7.62,8.957 -1.65,3.711 -2.47,7.309 -2.47,10.793 0,6.184 1.49,12.297 4.47,18.336 2.98,6.039 6.53,11.082 10.67,15.137 4.13,4.05 8.54,7.168 13.23,9.347 4.69,2.184 9.67,3.274 14.94,3.274 z m -1.66,-3.125 c -3.26,0 -6.44,-0.805 -9.54,-2.418 -3.11,-1.61 -6.2,-4.246 -9.26,-7.91 -3.06,-3.661 -5.81,-8.453 -8.25,-14.379 -2.99,-7.293 -4.49,-14.176 -4.49,-20.657 0,-4.621 1.19,-8.714 3.56,-12.277 2.38,-3.566 6.03,-5.348 10.94,-5.348 2.96,0 5.87,0.731 8.72,2.196 2.85,1.465 5.81,3.972 8.91,7.519 3.87,4.461 7.13,10.149 9.76,17.067 2.64,6.918 3.96,13.371 3.96,19.359 0,4.43 -1.19,8.344 -3.57,11.746 -2.37,3.403 -5.95,5.102 -10.74,5.102 v 0" /></g></g></svg>