<?xml version="1.0" encoding="UTF-8" standalone="no"?>
<svg
   xmlns:dc="http://purl.org/dc/elements/1.1/"
   xmlns:cc="http://creativecommons.org/ns#"
   xmlns:rdf="http://www.w3.org/1999/02/22-rdf-syntax-ns#"
   xmlns:svg="http://www.w3.org/2000/svg"
   xmlns="http://www.w3.org/2000/svg"
   viewBox="0 0 417.35999 82.360001"
   height="82.360001"
   width="417.35999"
   xml:space="preserve"
   id="svg2"
   version="1.1"><metadata
     id="metadata8"><rdf:RDF><cc:Work
         rdf:about=""><dc:format>image/svg+xml</dc:format><dc:type
           rdf:resource="http://purl.org/dc/dcmitype/StillImage" /></cc:Work></rdf:RDF></metadata><defs
     id="defs6" /><g
     transform="matrix(1.3333333,0,0,-1.3333333,0,82.36)"
     id="g10"><g
       transform="scale(0.1)"
       id="g12"><path
         id="path14"
         style="fill:#000000;fill-opacity:1;fill-rule:nonzero;stroke:none"
         d="m 0,598.082 16.1133,7.859 h 1.6133 v -55.906 c 0,-3.711 0.1523,-6.023 0.4609,-6.933 0.3086,-0.914 0.9531,-1.614 1.9297,-2.102 0.9766,-0.488 2.9609,-0.766 5.957,-0.828 v -1.809 H 1.17188 v 1.809 c 3.125,0.062 5.14453,0.332 6.05468,0.805 0.91016,0.472 1.54688,1.105 1.90625,1.906 0.35547,0.797 0.53516,3.18 0.53516,7.152 v 35.742 c 0,4.817 -0.16406,7.911 -0.48828,9.278 -0.22656,1.039 -0.64453,1.804 -1.2461,2.293 -0.60156,0.488 -1.32421,0.734 -2.17187,0.734 -1.20313,0 -2.87891,-0.504 -5.027345,-1.516 L 0,598.082" /><path
         id="path16"
         style="fill:#000000;fill-opacity:1;fill-rule:nonzero;stroke:none"
         d="m 52.7383,616.746 v 2.051 c 4.9492,-2.442 9.0664,-5.32 12.3555,-8.641 4.6562,-4.754 8.25,-10.328 10.789,-16.722 2.5391,-6.399 3.8086,-13.063 3.8086,-19.996 0,-10.094 -2.4805,-19.297 -7.4453,-27.614 -4.9648,-8.316 -11.4648,-14.265 -19.5078,-17.847 v 1.808 c 4.0039,2.246 7.3008,5.281 9.8906,9.106 2.5859,3.824 4.5078,8.691 5.7617,14.601 1.2539,5.906 1.8789,12.067 1.8789,18.481 0,6.933 -0.539,13.265 -1.6132,18.992 -0.8125,4.492 -1.8282,8.09 -3.0508,10.793 -1.2188,2.699 -2.8399,5.305 -4.8594,7.812 -2.0156,2.504 -4.6875,4.899 -8.0078,7.176 v 0" /><path
         id="path18"
         style="fill:#000000;fill-opacity:1;fill-rule:nonzero;stroke:none"
         d="m 666.148,377.004 c 1.461,-1.57 2.567,-3.141 3.317,-4.711 0.535,-1.086 1.418,-3.938 2.644,-8.559 l 3.942,5.981 c 1.047,1.445 2.316,2.828 3.808,4.14 1.496,1.313 2.809,2.211 3.946,2.696 0.715,0.301 1.508,0.453 2.375,0.453 1.285,0 2.308,-0.348 3.07,-1.043 0.762,-0.691 1.141,-1.539 1.141,-2.535 0,-1.149 -0.223,-1.934 -0.672,-2.356 -0.836,-0.754 -1.793,-1.132 -2.867,-1.132 -0.629,0 -1.301,0.136 -2.016,0.41 -1.406,0.48 -2.348,0.722 -2.824,0.722 -0.719,0 -1.571,-0.422 -2.555,-1.265 -1.852,-1.571 -4.062,-4.606 -6.633,-9.106 l 3.676,-15.578 c 0.566,-2.383 1.043,-3.808 1.434,-4.277 0.386,-0.469 0.777,-0.703 1.164,-0.703 0.629,0 1.359,0.347 2.195,1.043 1.645,1.386 3.047,3.199 4.215,5.433 l 1.566,-0.816 c -1.883,-3.563 -4.269,-6.52 -7.168,-8.875 -1.644,-1.328 -3.035,-1.992 -4.168,-1.992 -1.675,0 -3.004,0.949 -3.988,2.851 -0.629,1.18 -1.93,6.25 -3.898,15.219 -4.661,-8.184 -8.399,-13.453 -11.204,-15.805 -1.824,-1.511 -3.585,-2.265 -5.289,-2.265 -1.195,0 -2.285,0.437 -3.273,1.312 -0.715,0.664 -1.074,1.555 -1.074,2.672 0,0.996 0.328,1.828 0.984,2.492 0.66,0.664 1.465,0.996 2.422,0.996 0.957,0 1.973,-0.484 3.047,-1.449 0.777,-0.695 1.375,-1.043 1.793,-1.043 0.359,0 0.82,0.242 1.39,0.727 1.403,1.144 3.313,3.621 5.735,7.425 2.422,3.805 4.004,6.551 4.75,8.243 -1.852,7.336 -2.852,11.214 -3.004,11.636 -0.684,1.965 -1.582,3.352 -2.688,4.168 -1.105,0.817 -2.734,1.223 -4.882,1.223 -0.688,0 -1.481,-0.031 -2.375,-0.09 v 1.629 l 11.964,2.129" /><path
         id="path20"
         style="fill:#000000;fill-opacity:1;fill-rule:nonzero;stroke:none"
         d="m 446.32,604.305 c 1.016,-1.75 1.719,-3.387 2.11,-4.91 0.386,-1.528 0.777,-4.524 1.164,-8.993 l 1.972,-22.281 c 1.793,2.176 4.391,5.617 7.797,10.328 1.645,2.293 3.676,5.418 6.094,9.371 1.465,2.418 2.359,4.11 2.688,5.075 0.179,0.484 0.269,0.98 0.269,1.492 0,0.332 -0.101,0.605 -0.312,0.816 -0.211,0.211 -0.754,0.461 -1.637,0.746 -0.879,0.289 -1.613,0.817 -2.195,1.586 -0.582,0.77 -0.875,1.653 -0.875,2.649 0,1.238 0.359,2.234 1.078,2.992 0.715,0.754 1.613,1.129 2.687,1.129 1.317,0 2.434,-0.551 3.36,-1.653 0.929,-1.101 1.39,-2.617 1.39,-4.55 0,-2.383 -0.805,-5.11 -2.418,-8.172 -1.613,-3.067 -4.722,-7.77 -9.324,-14.11 -4.598,-6.34 -10.172,-13.254 -16.715,-20.738 -4.512,-5.164 -7.855,-8.418 -10.039,-9.762 -2.18,-1.343 -4.047,-2.015 -5.601,-2.015 -0.926,0 -1.739,0.355 -2.442,1.066 -0.703,0.707 -1.051,1.531 -1.051,2.469 0,1.176 0.485,2.246 1.453,3.215 0.973,0.965 2.028,1.449 3.161,1.449 0.597,0 1.089,-0.137 1.48,-0.41 0.238,-0.149 0.5,-0.578 0.785,-1.289 0.281,-0.711 0.543,-1.184 0.781,-1.426 0.153,-0.152 0.329,-0.227 0.54,-0.227 0.179,0 0.492,0.153 0.941,0.453 1.644,1.028 3.555,2.657 5.734,4.891 2.871,2.957 4.993,5.375 6.364,7.246 l -2.508,28.711 c -0.418,4.738 -1.047,7.621 -1.883,8.649 -0.836,1.027 -2.238,1.539 -4.211,1.539 -0.629,0 -1.75,-0.09 -3.363,-0.27 l -0.403,1.676 13.129,3.258" /><path
         id="path22"
         style="fill:#000000;fill-opacity:1;fill-rule:nonzero;stroke:none"
         d="m 382.168,306.957 c 4.031,0 7.602,-0.883 10.711,-2.648 3.105,-1.766 5.539,-4.375 7.305,-7.832 1.761,-3.457 2.644,-7.043 2.644,-10.758 0,-6.582 -1.89,-13.489 -5.672,-20.719 -3.777,-7.23 -8.715,-12.746 -14.808,-16.551 -6.098,-3.804 -12.399,-5.707 -18.914,-5.707 -4.688,0 -8.61,1.051 -11.762,3.149 -3.152,2.097 -5.484,4.867 -6.992,8.308 -1.508,3.446 -2.262,6.781 -2.262,10.012 0,5.734 1.367,11.402 4.102,17.004 2.73,5.598 5.996,10.277 9.789,14.039 3.796,3.758 7.843,6.648 12.144,8.672 4.305,2.023 8.875,3.031 13.715,3.031 z m -1.523,-2.894 c -2.989,-0.004 -5.911,-0.75 -8.762,-2.243 -2.852,-1.496 -5.684,-3.941 -8.492,-7.336 -2.809,-3.398 -5.332,-7.843 -7.575,-13.339 -2.75,-6.762 -4.121,-13.149 -4.121,-19.157 0,-4.285 1.09,-8.082 3.27,-11.386 2.18,-3.309 5.527,-4.961 10.039,-4.961 2.719,0 5.387,0.679 8,2.039 2.613,1.359 5.34,3.683 8.176,6.972 3.558,4.137 6.543,9.414 8.965,15.828 2.418,6.418 3.628,12.403 3.628,17.958 0,4.105 -1.089,7.734 -3.269,10.89 -2.184,3.156 -5.469,4.731 -9.859,4.735 v 0" /><path
         id="path24"
         style="fill:#000000;fill-opacity:1;fill-rule:nonzero;stroke:none"
         d="m 353.336,376.375 14.789,7.289 h 1.477 v -51.851 c 0,-3.442 0.144,-5.586 0.425,-6.43 0.286,-0.848 0.875,-1.496 1.77,-1.949 0.898,-0.454 2.719,-0.707 5.469,-0.77 v -1.676 H 354.41 v 1.676 c 2.867,0.063 4.723,0.309 5.559,0.746 0.836,0.442 1.418,1.028 1.746,1.77 0.328,0.738 0.492,2.949 0.492,6.633 v 33.148 c 0,4.469 -0.148,7.336 -0.445,8.605 -0.211,0.965 -0.59,1.676 -1.145,2.129 -0.551,0.453 -1.219,0.68 -1.992,0.68 -1.105,0 -2.645,-0.469 -4.617,-1.406 l -0.672,1.406" /><path
         id="path26"
         style="fill:none;stroke:#000000;stroke-width:10;stroke-linecap:butt;stroke-linejoin:miter;stroke-miterlimit:10;stroke-dasharray:none;stroke-opacity:1"
         d="M 481.5,337.293 V 294.008" /><path
         id="path28"
         style="fill:none;stroke:#000000;stroke-width:10;stroke-linecap:butt;stroke-linejoin:miter;stroke-miterlimit:10;stroke-dasharray:none;stroke-opacity:1"
         d="M 428.371,387.195 H 385.539" /><path
         id="path30"
         style="fill:#000000;fill-opacity:1;fill-rule:nonzero;stroke:none"
         d="m 497.219,298.652 14.789,7.289 h 1.476 V 254.09 c 0,-3.442 0.145,-5.586 0.426,-6.43 0.285,-0.847 0.875,-1.496 1.774,-1.949 0.894,-0.453 2.718,-0.707 5.464,-0.77 v -1.675 h -22.855 v 1.675 c 2.871,0.063 4.723,0.309 5.559,0.747 0.836,0.441 1.418,1.027 1.746,1.769 0.328,0.738 0.496,2.949 0.496,6.633 v 33.148 c 0,4.469 -0.153,7.336 -0.449,8.606 -0.211,0.965 -0.59,1.676 -1.145,2.129 -0.551,0.453 -1.215,0.679 -1.992,0.679 -1.106,0 -2.645,-0.468 -4.617,-1.406 l -0.672,1.406" /><path
         id="path32"
         style="fill:none;stroke:#000000;stroke-width:3.5;stroke-linecap:butt;stroke-linejoin:miter;stroke-miterlimit:10;stroke-dasharray:none;stroke-opacity:1"
         d="m 114.605,610.055 0.161,-593.6448 m 73.261,593.6448 0.161,-593.6448 m 73.261,593.6448 0.164,-593.6448 m 73.262,593.6448 0.16,-593.6448 m 73.262,593.6448 0.16,-593.6448 M 481.719,610.055 481.883,16.4102 M 555.141,610.055 555.305,16.4102 M 628.566,610.055 628.727,16.4102 M 701.988,610.055 702.152,16.4102 M 114.605,610.055 700.914,609.473 M 114.605,535.855 700.914,535.277 M 114.605,461.66 700.914,461.082 M 114.605,387.465 700.914,386.883 M 114.605,313.27 700.914,312.688 M 114.605,239.07 700.914,238.492 M 114.605,164.875 700.914,164.297 M 114.605,90.6797 700.914,90.1016 M 114.605,16.4844 700.914,15.9023" /><path
         id="path34"
         style="fill:none;stroke:#000000;stroke-width:7.5;stroke-linecap:butt;stroke-linejoin:miter;stroke-miterlimit:10;stroke-dasharray:none;stroke-opacity:1"
         d="m 404.031,19.0469 0.481,584.5551" /><path
         id="path36"
         style="fill:#000000;fill-opacity:1;fill-rule:evenodd;stroke:none"
         d="m 386.328,564.383 18.121,49.152 18.039,-49.183 c -10.668,7.863 -25.273,7.832 -36.16,0.031" /><path
         id="path38"
         style="fill:none;stroke:#000000;stroke-width:7.5;stroke-linecap:butt;stroke-linejoin:miter;stroke-miterlimit:10;stroke-dasharray:none;stroke-opacity:1"
         d="m 114.926,313.23 580.176,-0.484" /><path
         id="path40"
         style="fill:#000000;fill-opacity:1;fill-rule:evenodd;stroke:none"
         d="m 655.883,330.934 49.152,-18.121 -49.183,-18.04 c 7.867,10.668 7.832,25.27 0.031,36.161" /><path
         id="path42"
         style="fill:#000000;fill-opacity:1;fill-rule:nonzero;stroke:none"
         d="m 859.504,545.82 -4.637,-12.742 h -39.062 v 1.805 c 11.488,10.484 19.578,19.043 24.265,25.683 4.688,6.641 7.032,12.711 7.032,18.215 0,4.199 -1.286,7.649 -3.856,10.352 -2.574,2.699 -5.648,4.051 -9.23,4.051 -3.254,0 -6.176,-0.954 -8.766,-2.856 -2.586,-1.906 -4.5,-4.695 -5.734,-8.375 h -1.809 c 0.813,6.024 2.906,10.645 6.273,13.867 3.372,3.223 7.579,4.836 12.625,4.836 5.372,0 9.856,-1.726 13.45,-5.176 3.597,-3.453 5.398,-7.519 5.398,-12.207 0,-3.355 -0.781,-6.707 -2.344,-10.058 -2.41,-5.274 -6.316,-10.856 -11.718,-16.75 -8.106,-8.852 -13.168,-14.192 -15.188,-16.016 h 17.285 c 3.516,0 5.981,0.133 7.399,0.391 1.414,0.262 2.691,0.789 3.832,1.586 1.14,0.801 2.133,1.929 2.98,3.394 h 1.805" /><path
         id="path44"
         style="fill:#000000;fill-opacity:1;fill-rule:nonzero;stroke:none"
         d="m 870.785,610.703 v 2.051 c 4.949,-2.441 9.067,-5.324 12.356,-8.645 4.656,-4.75 8.25,-10.324 10.789,-16.722 2.539,-6.395 3.808,-13.063 3.808,-19.996 0,-10.09 -2.48,-19.293 -7.445,-27.61 -4.965,-8.316 -11.465,-14.265 -19.508,-17.847 v 1.804 c 4.004,2.246 7.301,5.285 9.891,9.11 2.586,3.824 4.508,8.691 5.762,14.597 1.25,5.91 1.878,12.071 1.878,18.481 0,6.933 -0.539,13.265 -1.613,18.996 -0.812,4.492 -1.828,8.09 -3.051,10.789 -1.218,2.703 -2.839,5.309 -4.859,7.812 -2.016,2.508 -4.688,4.903 -8.008,7.18 v 0" /><g
         transform="scale(1.004,-0.995997)"
         id="g46"><path
           id="path48"
           style="fill:none;stroke:#000000;stroke-width:3.50003004;stroke-linecap:butt;stroke-linejoin:miter;stroke-miterlimit:10;stroke-dasharray:none;stroke-opacity:1"
           d="m 918.904,-606.737 -1.307,589.6804 m 75.148,-589.6804 -1.303,589.6804 m 75.148,-589.6804 -1.31,589.6804 m 75.15,-589.6804 -1.3,589.6804 m 75.15,-589.6804 -1.31,589.6804 m 75.15,-589.6804 -1.31,589.6804 m 75.15,-589.6804 -1.3,589.6804 m 75.14,-589.6804 -1.3,589.6804 m 75.15,-589.6804 -1.31,589.6804 M 918.904,-606.737 h 589.756 m -589.756,73.846 h 589.756 m -589.756,73.843 h 589.756 m -589.756,73.842 h 589.756 m -589.756,73.843 h 589.756 m -589.756,73.842 h 589.756 m -589.756,73.842 h 589.756 m -589.756,73.8429 h 589.756 m -589.756,73.8424 h 589.756" /></g><g
         transform="scale(1.004,-0.995997)"
         id="g50"><path
           id="path52"
           style="fill:none;stroke:#000000;stroke-width:7.50006008;stroke-linecap:butt;stroke-linejoin:miter;stroke-miterlimit:10;stroke-dasharray:none;stroke-opacity:1"
           d="m 1217.37,-22.963 0.48,-583.492" /></g><path
         id="path54"
         style="fill:#000000;fill-opacity:1;fill-rule:evenodd;stroke:none"
         d="m 1204.47,564.965 18.19,48.957 18.12,-48.984 c -10.71,7.832 -25.38,7.796 -36.31,0.027" /><g
         transform="scale(1.004,-0.995997)"
         id="g56"><path
           id="path58"
           style="fill:none;stroke:#000000;stroke-width:7.50006008;stroke-linecap:butt;stroke-linejoin:miter;stroke-miterlimit:10;stroke-dasharray:none;stroke-opacity:1"
           d="m 921.227,-311.74 580.783,0.482" /></g><path
         id="path60"
         style="fill:#000000;fill-opacity:1;fill-rule:evenodd;stroke:none"
         d="m 1468.65,328.121 49.35,-18.047 -49.38,-17.969 c 7.89,10.625 7.86,25.172 0.03,36.016" /><g
         transform="scale(1.004,-0.995997)"
         id="g62"><path
           id="path64"
           style="fill:none;stroke:#000000;stroke-width:10.00010014;stroke-linecap:butt;stroke-linejoin:miter;stroke-miterlimit:10;stroke-dasharray:none;stroke-opacity:1"
           d="m 1286.71,-333.766 v 43.079" /></g><g
         transform="scale(1.004,-0.995997)"
         id="g66"><path
           id="path68"
           style="fill:none;stroke:#000000;stroke-width:10.00010014;stroke-linecap:butt;stroke-linejoin:miter;stroke-miterlimit:10;stroke-dasharray:none;stroke-opacity:1"
           d="m 1238.9,-388.175 h -43.08" /></g><path
         id="path70"
         style="fill:#000000;fill-opacity:1;fill-rule:nonzero;stroke:none"
         d="m 1168.13,399.996 14.92,7.227 h 1.5 v -51.399 c 0,-3.41 0.14,-5.535 0.43,-6.375 0.29,-0.836 0.88,-1.48 1.79,-1.929 0.9,-0.45 2.74,-0.704 5.52,-0.762 v -1.66 h -23.08 v 1.66 c 2.9,0.058 4.77,0.305 5.61,0.738 0.84,0.438 1.43,1.02 1.77,1.754 0.33,0.73 0.49,2.922 0.49,6.574 v 32.86 c 0,4.429 -0.15,7.273 -0.45,8.531 -0.21,0.957 -0.59,1.66 -1.15,2.109 -0.56,0.449 -1.23,0.672 -2.02,0.672 -1.11,0 -2.67,-0.465 -4.66,-1.391 l -0.67,1.391" /><path
         id="path72"
         style="fill:#000000;fill-opacity:1;fill-rule:nonzero;stroke:none"
         d="m 1288.15,272.086 14.94,7.227 h 1.49 v -51.399 c 0,-3.41 0.14,-5.535 0.43,-6.371 0.29,-0.84 0.88,-1.484 1.79,-1.934 0.9,-0.449 2.74,-0.703 5.52,-0.761 v -1.66 h -23.08 v 1.66 c 2.9,0.058 4.77,0.308 5.61,0.742 0.85,0.433 1.44,1.015 1.77,1.75 0.33,0.734 0.49,2.926 0.49,6.574 v 32.859 c 0,4.43 -0.15,7.274 -0.45,8.532 -0.21,0.957 -0.59,1.66 -1.15,2.109 -0.56,0.449 -1.23,0.672 -2.02,0.672 -1.11,0 -2.67,-0.461 -4.66,-1.391 l -0.68,1.391" /><path
         id="path74"
         style="fill:#000000;fill-opacity:1;fill-rule:nonzero;stroke:none"
         d="m 1488.67,287.063 c 1.48,-1.555 2.6,-3.114 3.35,-4.668 0.55,-1.079 1.44,-3.907 2.67,-8.485 l 3.99,5.926 c 1.05,1.437 2.33,2.805 3.84,4.109 1.51,1.301 2.84,2.192 3.98,2.668 0.73,0.301 1.53,0.45 2.4,0.45 1.3,0 2.33,-0.344 3.1,-1.032 0.77,-0.687 1.16,-1.527 1.16,-2.515 0,-1.137 -0.23,-1.914 -0.68,-2.332 -0.85,-0.75 -1.82,-1.121 -2.9,-1.121 -0.63,0 -1.31,0.132 -2.04,0.402 -1.41,0.48 -2.36,0.719 -2.85,0.719 -0.72,0 -1.58,-0.418 -2.58,-1.258 -1.87,-1.555 -4.1,-4.563 -6.69,-9.024 l 3.71,-15.441 c 0.57,-2.363 1.05,-3.777 1.44,-4.242 0.39,-0.465 0.79,-0.696 1.18,-0.696 0.63,0 1.38,0.344 2.22,1.032 1.66,1.379 3.08,3.172 4.25,5.386 l 1.58,-0.808 c -1.89,-3.531 -4.31,-6.461 -7.23,-8.797 -1.66,-1.316 -3.07,-1.977 -4.21,-1.977 -1.69,0 -3.04,0.946 -4.03,2.829 -0.63,1.167 -1.95,6.195 -3.94,15.085 -4.7,-8.113 -8.47,-13.332 -11.31,-15.668 -1.84,-1.496 -3.62,-2.246 -5.34,-2.246 -1.2,0 -2.31,0.434 -3.3,1.305 -0.73,0.656 -1.09,1.539 -1.09,2.649 0,0.984 0.33,1.808 1,2.468 0.66,0.657 1.47,0.989 2.44,0.989 0.97,0 1.99,-0.481 3.08,-1.438 0.78,-0.687 1.38,-1.035 1.81,-1.035 0.36,0 0.83,0.242 1.4,0.719 1.42,1.136 3.35,3.593 5.79,7.363 2.45,3.769 4.04,6.492 4.8,8.172 -1.87,7.269 -2.88,11.117 -3.03,11.535 -0.69,1.945 -1.6,3.32 -2.72,4.129 -1.12,0.808 -2.76,1.211 -4.93,1.211 -0.69,0 -1.49,-0.028 -2.4,-0.09 v 1.617 l 12.08,2.11" /><path
         id="path76"
         style="fill:#000000;fill-opacity:1;fill-rule:nonzero;stroke:none"
         d="m 1263.67,604.34 c 1.03,-1.738 1.74,-3.36 2.13,-4.871 0.39,-1.512 0.78,-4.485 1.18,-8.91 l 1.98,-22.086 c 1.82,2.152 4.44,5.566 7.88,10.234 1.66,2.273 3.71,5.371 6.15,9.293 1.48,2.391 2.39,4.066 2.72,5.027 0.18,0.477 0.27,0.973 0.27,1.481 0,0.328 -0.1,0.597 -0.32,0.808 -0.21,0.207 -0.76,0.457 -1.65,0.739 -0.89,0.285 -1.63,0.808 -2.22,1.574 -0.58,0.762 -0.88,1.637 -0.88,2.625 0,1.226 0.36,2.215 1.09,2.961 0.72,0.75 1.63,1.125 2.71,1.125 1.33,0 2.46,-0.547 3.4,-1.641 0.93,-1.094 1.4,-2.597 1.4,-4.511 0,-2.364 -0.81,-5.063 -2.44,-8.102 -1.63,-3.039 -4.77,-7.699 -9.42,-13.984 -4.64,-6.286 -10.27,-13.137 -16.87,-20.559 -4.56,-5.117 -7.94,-8.344 -10.14,-9.672 -2.2,-1.332 -4.09,-2 -5.66,-2 -0.93,0 -1.75,0.352 -2.46,1.055 -0.71,0.703 -1.07,1.519 -1.07,2.449 0,1.164 0.5,2.227 1.48,3.184 0.98,0.961 2.04,1.437 3.18,1.437 0.61,0 1.1,-0.133 1.5,-0.402 0.24,-0.153 0.5,-0.578 0.79,-1.281 0.29,-0.704 0.55,-1.172 0.79,-1.415 0.15,-0.148 0.33,-0.222 0.54,-0.222 0.18,0 0.5,0.148 0.95,0.449 1.66,1.016 3.59,2.633 5.8,4.848 2.89,2.933 5.04,5.328 6.42,7.179 l -2.53,28.461 c -0.42,4.7 -1.06,7.559 -1.9,8.575 -0.84,1.019 -2.26,1.527 -4.26,1.527 -0.63,0 -1.76,-0.09 -3.39,-0.27 l -0.41,1.66 13.26,3.235" /><path
         id="path78"
         style="fill:#000000;fill-opacity:1;fill-rule:nonzero;stroke:none"
         d="m 1192.68,301.262 c 4.08,0 7.68,-0.875 10.82,-2.625 3.14,-1.75 5.59,-4.34 7.38,-7.766 1.77,-3.426 2.66,-6.98 2.66,-10.66 0,-6.523 -1.9,-13.371 -5.72,-20.539 -3.82,-7.168 -8.8,-12.637 -14.96,-16.406 -6.15,-3.77 -12.52,-5.657 -19.09,-5.657 -4.74,0 -8.7,1.039 -11.88,3.121 -3.18,2.079 -5.53,4.825 -7.06,8.235 -1.52,3.414 -2.28,6.719 -2.28,9.922 0,5.687 1.38,11.304 4.14,16.855 2.76,5.551 6.05,10.192 9.88,13.918 3.84,3.727 7.92,6.59 12.27,8.594 4.34,2.008 8.96,3.008 13.84,3.008 z m -1.54,-2.871 c -3.01,0 -5.96,-0.743 -8.84,-2.223 -2.88,-1.48 -5.74,-3.906 -8.58,-7.273 -2.83,-3.368 -5.38,-7.774 -7.64,-13.219 -2.78,-6.703 -4.17,-13.031 -4.17,-18.988 0,-4.25 1.11,-8.012 3.3,-11.29 2.21,-3.277 5.59,-4.914 10.14,-4.914 2.75,0 5.44,0.672 8.08,2.02 2.64,1.344 5.39,3.648 8.26,6.91 3.59,4.102 6.6,9.332 9.05,15.691 2.44,6.36 3.66,12.293 3.66,17.797 0,4.071 -1.1,7.668 -3.3,10.797 -2.2,3.129 -5.52,4.692 -9.96,4.692 v 0" /><path
         id="path80"
         style="fill:#000000;fill-opacity:1;fill-rule:nonzero;stroke:none"
         d="m 1628.99,577.625 c 1.89,4.461 4.28,7.902 7.15,10.328 2.89,2.426 6.47,3.637 10.77,3.637 5.31,0 9.38,-1.727 12.21,-5.176 2.15,-2.57 3.22,-5.32 3.22,-8.25 0,-4.82 -3.03,-9.801 -9.08,-14.941 4.07,-1.598 7.14,-3.875 9.23,-6.836 2.08,-2.965 3.12,-6.446 3.12,-10.449 0,-5.731 -1.82,-10.696 -5.47,-14.895 -4.75,-5.469 -11.63,-8.203 -20.65,-8.203 -4.46,0 -7.49,0.555 -9.11,1.66 -1.61,1.105 -2.42,2.297 -2.42,3.566 0,0.942 0.39,1.774 1.15,2.489 0.77,0.715 1.69,1.074 2.76,1.074 0.82,0 1.65,-0.129 2.49,-0.391 0.55,-0.164 1.81,-0.758 3.76,-1.781 1.95,-1.027 3.31,-1.637 4.06,-1.832 1.2,-0.359 2.48,-0.535 3.85,-0.535 3.32,0 6.21,1.285 8.67,3.855 2.46,2.571 3.69,5.618 3.69,9.133 0,2.57 -0.57,5.078 -1.71,7.52 -0.85,1.82 -1.78,3.203 -2.79,4.148 -1.4,1.301 -3.32,2.481 -5.76,3.539 -2.44,1.059 -4.93,1.59 -7.47,1.59 h -1.56 v 1.465 c 2.57,0.324 5.15,1.25 7.74,2.781 2.59,1.531 4.46,3.371 5.64,5.52 1.17,2.148 1.75,4.507 1.75,7.078 0,3.351 -1.04,6.062 -3.14,8.129 -2.1,2.066 -4.71,3.101 -7.84,3.101 -5.05,0 -9.26,-2.703 -12.65,-8.105 l -1.61,0.781" /><path
         id="path82"
         style="fill:#000000;fill-opacity:1;fill-rule:nonzero;stroke:none"
         d="m 1682.45,601.637 v 2.051 c 4.95,-2.442 9.07,-5.321 12.35,-8.641 4.66,-4.754 8.25,-10.328 10.79,-16.723 2.54,-6.398 3.81,-13.062 3.81,-19.996 0,-10.094 -2.48,-19.297 -7.44,-27.613 -4.97,-8.317 -11.47,-14.266 -19.51,-17.848 v 1.809 c 4,2.246 7.3,5.281 9.89,9.105 2.59,3.824 4.51,8.692 5.76,14.602 1.25,5.906 1.88,12.066 1.88,18.48 0,6.934 -0.54,13.266 -1.61,18.992 -0.82,4.493 -1.83,8.09 -3.05,10.793 -1.22,2.7 -2.84,5.305 -4.86,7.813 -2.02,2.504 -4.69,4.898 -8.01,7.176 v 0" /><g
         transform="scale(0.997307,-1.00269)"
         id="g84"><path
           id="path86"
           style="fill:none;stroke:#000000;stroke-width:3.50001001;stroke-linecap:butt;stroke-linejoin:miter;stroke-miterlimit:10;stroke-dasharray:none;stroke-opacity:1"
           d="m 1738.66,-602.814 0.16,589.9619 m 73.58,-589.9619 0.17,589.9619 m 73.57,-589.9619 0.16,589.9619 m 73.58,-589.9619 0.14,521.8991 0.02,68.0628 m 73.58,-589.9619 0.17,589.9619 m 73.57,-589.9619 0.16,589.9619 m 73.58,-589.9619 0.17,589.9619 m 73.57,-589.9619 0.17,589.9619 m 73.57,-589.9619 0.16,589.9619 m -590.08,-589.9619 589.81,-0.117 m -589.81,73.856 589.81,-0.113 m -589.81,73.852 589.81,-0.113 m -589.81,73.856 589.81,-0.117 m -589.81,73.856 589.81,-0.117 m -589.81,73.855 589.81,-0.113 m -589.81,73.856 589.81,-0.117 m -589.81,73.8561 589.81,-0.1168 m -589.81,73.8557 589.81,-0.1129" /></g><g
         transform="scale(0.997307,-1.00269)"
         id="g88"><path
           id="path90"
           style="fill:none;stroke:#000000;stroke-width:7.50003004;stroke-linecap:butt;stroke-linejoin:miter;stroke-miterlimit:10;stroke-dasharray:none;stroke-opacity:1"
           d="m 2029.32,-15.8674 0.48,-583.4556" /></g><path
         id="path92"
         style="fill:#000000;fill-opacity:1;fill-rule:evenodd;stroke:none"
         d="m 2006.2,561.613 18.07,49.285 17.99,-49.316 c -10.63,7.887 -25.2,7.852 -36.06,0.031" /><g
         transform="scale(0.997307,-1.00269)"
         id="g94"><path
           id="path96"
           style="fill:none;stroke:#000000;stroke-width:7.50003004;stroke-linecap:butt;stroke-linejoin:miter;stroke-miterlimit:10;stroke-dasharray:none;stroke-opacity:1"
           d="m 1733,-305.653 583.75,0.483" /></g><path
         id="path98"
         style="fill:#000000;fill-opacity:1;fill-rule:evenodd;stroke:none"
         d="m 2271.39,324.227 49.02,-18.168 -49.04,-18.09 c 7.84,10.699 7.81,25.34 0.02,36.258" /><g
         transform="scale(0.997307,-1.00269)"
         id="g100"><path
           id="path102"
           style="fill:none;stroke:#000000;stroke-width:10;stroke-linecap:butt;stroke-linejoin:miter;stroke-miterlimit:10;stroke-dasharray:none;stroke-opacity:1"
           d="m 2103.54,-332.121 v 43.017" /></g><g
         transform="scale(0.997307,-1.00269)"
         id="g104"><path
           id="path106"
           style="fill:none;stroke:#000000;stroke-width:10;stroke-linecap:butt;stroke-linejoin:miter;stroke-miterlimit:10;stroke-dasharray:none;stroke-opacity:1"
           d="m 2051.51,-385.559 h -43.02" /></g><path
         id="path108"
         style="fill:#000000;fill-opacity:1;fill-rule:nonzero;stroke:none"
         d="m 1971.86,373.355 14.82,7.266 h 1.48 v -51.672 c 0,-3.429 0.14,-5.566 0.42,-6.406 0.29,-0.844 0.88,-1.492 1.78,-1.941 0.89,-0.454 2.72,-0.707 5.47,-0.766 v -1.672 h -22.89 v 1.672 c 2.87,0.059 4.73,0.305 5.56,0.742 0.84,0.438 1.43,1.024 1.75,1.762 0.34,0.734 0.5,2.941 0.5,6.609 v 33.035 c 0,4.454 -0.15,7.313 -0.45,8.575 -0.21,0.961 -0.59,1.668 -1.14,2.121 -0.56,0.453 -1.22,0.675 -2,0.675 -1.11,0 -2.65,-0.464 -4.62,-1.398 l -0.68,1.398" /><path
         id="path110"
         style="fill:#000000;fill-opacity:1;fill-rule:nonzero;stroke:none"
         d="m 2057.52,298.371 14.81,7.266 h 1.49 v -51.672 c 0,-3.43 0.14,-5.567 0.42,-6.406 0.28,-0.844 0.88,-1.493 1.78,-1.942 0.89,-0.453 2.72,-0.707 5.47,-0.769 v -1.668 h -22.89 v 1.668 c 2.87,0.062 4.72,0.308 5.56,0.746 0.84,0.437 1.43,1.023 1.75,1.761 0.33,0.735 0.5,2.938 0.5,6.61 V 287 c 0,4.453 -0.15,7.309 -0.45,8.574 -0.21,0.961 -0.59,1.668 -1.14,2.121 -0.56,0.45 -1.23,0.676 -2,0.676 -1.11,0 -2.65,-0.465 -4.62,-1.398 l -0.68,1.398" /><path
         id="path112"
         style="fill:#000000;fill-opacity:1;fill-rule:nonzero;stroke:none"
         d="m 2280.73,292.887 c 1.47,-1.567 2.57,-3.129 3.32,-4.696 0.54,-1.082 1.42,-3.925 2.65,-8.527 l 3.95,5.957 c 1.05,1.442 2.32,2.82 3.81,4.129 1.5,1.309 2.82,2.203 3.95,2.684 0.72,0.3 1.52,0.453 2.38,0.453 1.29,0 2.32,-0.348 3.08,-1.039 0.76,-0.692 1.14,-1.535 1.14,-2.528 0,-1.144 -0.22,-1.925 -0.67,-2.347 -0.84,-0.75 -1.8,-1.129 -2.87,-1.129 -0.63,0 -1.31,0.136 -2.02,0.406 -1.41,0.484 -2.35,0.723 -2.83,0.723 -0.72,0 -1.57,-0.422 -2.56,-1.262 -1.85,-1.566 -4.07,-4.59 -6.64,-9.07 l 3.68,-15.528 c 0.57,-2.375 1.04,-3.797 1.44,-4.261 0.38,-0.469 0.77,-0.7 1.16,-0.7 0.63,0 1.36,0.344 2.2,1.036 1.65,1.386 3.05,3.191 4.22,5.417 l 1.57,-0.812 c -1.89,-3.551 -4.28,-6.5 -7.18,-8.848 -1.65,-1.324 -3.04,-1.984 -4.17,-1.984 -1.68,0 -3.01,0.949 -4,2.844 -0.63,1.172 -1.93,6.226 -3.91,15.164 -4.66,-8.156 -8.4,-13.406 -11.22,-15.75 -1.82,-1.504 -3.59,-2.258 -5.29,-2.258 -1.2,0 -2.29,0.437 -3.28,1.309 -0.72,0.66 -1.08,1.55 -1.08,2.664 0,0.992 0.33,1.82 0.99,2.48 0.66,0.66 1.47,0.992 2.42,0.992 0.96,0 1.98,-0.48 3.06,-1.441 0.77,-0.695 1.37,-1.039 1.79,-1.039 0.36,0 0.82,0.238 1.39,0.722 1.41,1.141 3.33,3.61 5.75,7.399 2.42,3.793 4.01,6.531 4.76,8.215 -1.86,7.312 -2.86,11.176 -3.01,11.597 -0.69,1.957 -1.58,3.34 -2.69,4.153 -1.11,0.812 -2.74,1.218 -4.89,1.218 -0.69,0 -1.49,-0.031 -2.38,-0.089 v 1.625 l 11.98,2.121" /><path
         id="path114"
         style="fill:#000000;fill-opacity:1;fill-rule:nonzero;stroke:none"
         d="m 1978.77,600.129 c 1.01,-1.742 1.71,-3.375 2.11,-4.895 0.38,-1.519 0.77,-4.504 1.16,-8.957 l 1.98,-22.203 c 1.79,2.164 4.39,5.594 7.81,10.289 1.64,2.285 3.68,5.399 6.1,9.34 1.47,2.406 2.37,4.094 2.7,5.055 0.17,0.48 0.26,0.976 0.26,1.488 0,0.332 -0.1,0.602 -0.31,0.813 -0.21,0.211 -0.76,0.461 -1.64,0.746 -0.88,0.285 -1.62,0.812 -2.2,1.578 -0.58,0.769 -0.87,1.648 -0.87,2.64 0,1.235 0.36,2.227 1.07,2.981 0.72,0.75 1.62,1.125 2.7,1.125 1.31,0 2.43,-0.547 3.36,-1.645 0.93,-1.097 1.39,-2.609 1.39,-4.535 0,-2.379 -0.8,-5.094 -2.42,-8.148 -1.61,-3.051 -4.73,-7.738 -9.34,-14.055 -4.6,-6.32 -10.18,-13.207 -16.74,-20.672 -4.52,-5.144 -7.87,-8.383 -10.05,-9.722 -2.19,-1.34 -4.06,-2.008 -5.61,-2.008 -0.93,0 -1.75,0.351 -2.45,1.058 -0.7,0.707 -1.05,1.528 -1.05,2.461 0,1.172 0.48,2.242 1.45,3.203 0.98,0.965 2.03,1.446 3.17,1.446 0.6,0 1.09,-0.137 1.48,-0.407 0.24,-0.152 0.5,-0.578 0.79,-1.285 0.28,-0.707 0.54,-1.183 0.78,-1.422 0.15,-0.152 0.33,-0.226 0.54,-0.226 0.18,0 0.49,0.148 0.94,0.449 1.65,1.024 3.56,2.649 5.75,4.875 2.87,2.949 5,5.356 6.37,7.223 l -2.51,28.609 c -0.42,4.723 -1.05,7.598 -1.89,8.621 -0.83,1.024 -2.24,1.535 -4.22,1.535 -0.63,0 -1.75,-0.093 -3.36,-0.273 l -0.41,1.672 13.16,3.246" /><path
         id="path116"
         style="fill:#000000;fill-opacity:1;fill-rule:nonzero;stroke:none"
         d="m 1996.23,306.266 c 4.04,0 7.62,-0.879 10.73,-2.641 3.11,-1.758 5.55,-4.359 7.32,-7.805 1.76,-3.445 2.65,-7.019 2.65,-10.718 0,-6.559 -1.89,-13.442 -5.68,-20.645 -3.79,-7.207 -8.73,-12.707 -14.84,-16.496 -6.1,-3.789 -12.41,-5.688 -18.94,-5.688 -4.7,0 -8.62,1.047 -11.78,3.137 -3.16,2.09 -5.49,4.852 -7,8.281 -1.51,3.43 -2.27,6.754 -2.27,9.973 0,5.719 1.37,11.367 4.11,16.945 2.74,5.582 6.01,10.246 9.81,13.993 3.8,3.746 7.85,6.625 12.16,8.64 4.31,2.016 8.89,3.024 13.73,3.024 z m -1.52,-2.887 c -3,0 -5.92,-0.746 -8.78,-2.234 -2.86,-1.489 -5.69,-3.926 -8.5,-7.313 -2.82,-3.383 -5.34,-7.812 -7.59,-13.289 -2.75,-6.738 -4.13,-13.102 -4.13,-19.09 0,-4.269 1.09,-8.055 3.28,-11.348 2.18,-3.296 5.53,-4.941 10.05,-4.941 2.73,0 5.4,0.676 8.01,2.031 2.62,1.352 5.35,3.668 8.2,6.95 3.56,4.121 6.55,9.378 8.97,15.769 2.43,6.395 3.64,12.359 3.64,17.895 0,4.093 -1.09,7.711 -3.28,10.855 -2.18,3.141 -5.47,4.715 -9.87,4.715 v 0" /><path
         id="path118"
         style="fill:none;stroke:#000000;stroke-width:10;stroke-linecap:butt;stroke-linejoin:miter;stroke-miterlimit:10;stroke-dasharray:none;stroke-opacity:1"
         d="m 702.504,609.059 c -0.496,-0.25 -0.992,-0.496 -1.488,-0.743 -0.496,-0.246 -0.989,-0.496 -1.485,-0.742 -0.496,-0.246 -0.992,-0.496 -1.488,-0.742 -0.496,-0.246 -0.992,-0.492 -1.484,-0.742 -0.496,-0.246 -0.993,-0.492 -1.489,-0.738 -0.496,-0.25 -0.992,-0.497 -1.488,-0.743 -0.492,-0.246 -0.988,-0.496 -1.484,-0.742 -0.496,-0.246 -0.993,-0.492 -1.489,-0.742 -0.496,-0.246 -0.988,-0.492 -1.484,-0.742 -0.496,-0.246 -0.992,-0.492 -1.488,-0.738 -0.496,-0.25 -0.989,-0.497 -1.485,-0.743 -0.496,-0.246 -0.992,-0.496 -1.488,-0.742 -0.496,-0.246 -0.992,-0.492 -1.484,-0.742 -0.496,-0.246 -0.992,-0.492 -1.489,-0.742 -0.496,-0.246 -0.992,-0.492 -1.488,-0.738 -0.492,-0.25 -0.988,-0.497 -1.484,-0.743 -0.496,-0.246 -0.992,-0.496 -1.489,-0.742 -0.496,-0.246 -0.988,-0.492 -1.484,-0.742 -0.496,-0.246 -0.992,-0.492 -1.488,-0.742 -0.496,-0.246 -0.988,-0.492 -1.485,-0.739 -0.496,-0.25 -0.992,-0.496 -1.488,-0.742 -0.496,-0.246 -0.992,-0.496 -1.484,-0.742 -0.496,-0.246 -0.992,-0.492 -1.488,-0.742 -0.497,-0.246 -0.993,-0.492 -1.485,-0.742 -0.496,-0.246 -0.992,-0.492 -1.488,-0.739 -0.496,-0.25 -0.992,-0.496 -1.488,-0.742 -0.493,-0.25 -0.989,-0.496 -1.485,-0.742 -0.496,-0.246 -0.992,-0.492 -1.488,-0.742 -0.496,-0.246 -0.988,-0.492 -1.484,-0.742 -0.497,-0.246 -0.993,-0.492 -1.489,-0.739 -0.496,-0.25 -0.992,-0.496 -1.484,-0.742 -0.496,-0.246 -0.992,-0.496 -1.488,-0.742 -0.496,-0.246 -0.993,-0.492 -1.485,-0.742 -0.496,-0.246 -0.992,-0.492 -1.488,-0.742 -0.496,-0.246 -0.992,-0.493 -1.488,-0.739 -0.493,-0.25 -0.989,-0.496 -1.485,-0.742 -0.496,-0.246 -0.992,-0.496 -1.488,-0.742 -0.496,-0.246 -0.988,-0.496 -1.484,-0.742 -0.496,-0.246 -0.993,-0.492 -1.489,-0.738 -0.496,-0.25 -0.992,-0.497 -1.484,-0.747 -0.496,-0.246 -0.992,-0.492 -1.488,-0.738 -0.496,-0.246 -0.992,-0.496 -1.489,-0.742 -0.492,-0.246 -0.988,-0.496 -1.484,-0.742 -0.496,-0.246 -0.992,-0.492 -1.488,-0.738 -0.492,-0.25 -0.989,-0.497 -1.485,-0.743 -0.496,-0.25 -0.992,-0.496 -1.488,-0.742 -0.496,-0.246 -0.988,-0.496 -1.484,-0.742 -0.496,-0.246 -0.992,-0.496 -1.489,-0.742 -0.496,-0.246 -0.992,-0.492 -1.484,-0.742 -0.496,-0.247 -0.992,-0.493 -1.488,-0.739 -0.496,-0.25 -0.992,-0.496 -1.485,-0.742 -0.496,-0.246 -0.992,-0.496 -1.488,-0.742 -0.496,-0.246 -0.992,-0.492 -1.488,-0.742 -0.492,-0.246 -0.988,-0.492 -1.485,-0.739 -0.496,-0.25 -0.992,-0.496 -1.488,-0.742 -0.496,-0.25 -0.988,-0.496 -1.484,-0.742 -0.496,-0.246 -0.992,-0.496 -1.488,-0.742 -0.497,-0.246 -0.993,-0.492 -1.485,-0.742 -0.496,-0.246 -0.992,-0.492 -1.488,-0.742 -0.496,-0.247 -0.992,-0.493 -1.484,-0.739 -0.497,-0.246 -0.993,-0.496 -1.489,-0.742 -0.496,-0.246 -0.992,-0.496 -1.488,-0.742 -0.496,-0.246 -0.988,-0.492 -1.484,-0.742 -0.497,-0.246 -0.993,-0.493 -1.489,-0.743 -0.496,-0.246 -0.992,-0.492 -1.484,-0.738 -0.496,-0.25 -0.992,-0.496 -1.488,-0.742 -0.496,-0.246 -0.989,-0.496 -1.485,-0.742 -0.496,-0.246 -0.992,-0.492 -1.488,-0.742 -0.496,-0.246 -0.992,-0.493 -1.488,-0.739 -0.492,-0.25 -0.989,-0.496 -1.485,-0.742 -0.496,-0.246 -0.992,-0.496 -1.488,-0.742 -0.492,-0.246 -0.988,-0.496 -1.484,-0.742 -0.496,-0.246 -0.993,-0.492 -1.489,-0.742 -0.496,-0.246 -0.988,-0.493 -1.484,-0.739 -0.496,-0.25 -0.992,-0.496 -1.488,-0.742 -0.496,-0.25 -0.992,-0.496 -1.485,-0.742 -0.496,-0.246 -0.992,-0.496 -1.488,-0.742 -0.496,-0.246 -0.992,-0.492 -1.484,-0.742 -0.496,-0.247 -0.992,-0.493 -1.489,-0.739 -0.496,-0.25 -0.992,-0.496 -1.488,-0.742 -0.492,-0.25 -0.988,-0.496 -1.484,-0.742 -0.496,-0.246 -0.992,-0.492 -1.489,-0.742 -0.496,-0.246 -0.988,-0.492 -1.484,-0.742 -0.496,-0.247 -0.992,-0.493 -1.488,-0.743 -0.496,-0.246 -0.992,-0.492 -1.485,-0.738 -0.496,-0.25 -0.992,-0.496 -1.488,-0.742 -0.496,-0.246 -0.992,-0.496 -1.484,-0.742 -0.496,-0.246 -0.992,-0.492 -1.488,-0.742 -0.497,-0.247 -0.993,-0.493 -1.489,-0.743 -0.492,-0.246 -0.988,-0.492 -1.484,-0.738 -0.496,-0.25 -0.992,-0.496 -1.488,-0.742 -0.497,-0.246 -0.989,-0.496 -1.485,-0.742 -0.496,-0.246 -0.992,-0.493 -1.488,-0.743 -0.496,-0.246 -0.992,-0.492 -1.484,-0.742 -0.497,-0.246 -0.993,-0.492 -1.489,-0.738 -0.496,-0.246 -0.992,-0.496 -1.488,-0.742 -0.492,-0.246 -0.988,-0.496 -1.484,-0.742 -0.496,-0.246 -0.993,-0.493 -1.489,-0.743 -0.496,-0.246 -0.988,-0.492 -1.484,-0.742 -0.496,-0.246 -0.992,-0.492 -1.488,-0.738 -0.496,-0.246 -0.989,-0.496 -1.485,-0.742 -0.496,-0.246 -0.992,-0.496 -1.488,-0.742 -0.496,-0.246 -0.992,-0.493 -1.484,-0.743 -0.496,-0.246 -0.993,-0.492 -1.489,-0.742 -0.496,-0.246 -0.992,-0.492 -1.484,-0.738 -0.496,-0.25 -0.992,-0.496 -1.488,-0.742 -0.496,-0.246 -0.992,-0.496 -1.489,-0.742 -0.492,-0.247 -0.988,-0.497 -1.484,-0.743 -0.496,-0.246 -0.992,-0.492 -1.488,-0.738 -0.496,-0.25 -0.989,-0.496 -1.485,-0.742 -0.496,-0.25 -0.992,-0.496 -1.488,-0.742 -0.496,-0.246 -0.988,-0.496 -1.484,-0.742 -0.496,-0.247 -0.992,-0.493 -1.489,-0.743 -0.496,-0.246 -0.992,-0.492 -1.488,-0.738 -0.492,-0.25 -0.988,-0.496 -1.484,-0.742 -0.496,-0.246 -0.992,-0.496 -1.488,-0.742 -0.493,-0.246 -0.989,-0.496 -1.485,-0.742 -0.496,-0.247 -0.992,-0.493 -1.488,-0.743 -0.496,-0.246 -0.992,-0.492 -1.485,-0.738 -0.496,-0.25 -0.992,-0.496 -1.488,-0.742 -0.496,-0.25 -0.992,-0.496 -1.484,-0.742 -0.496,-0.246 -0.992,-0.496 -1.488,-0.743 -0.497,-0.246 -0.993,-0.492 -1.489,-0.742 -0.492,-0.246 -0.988,-0.492 -1.484,-0.738 -0.496,-0.25 -0.992,-0.496 -1.488,-0.742 -0.493,-0.25 -0.989,-0.496 -1.485,-0.742 -0.496,-0.246 -0.992,-0.496 -1.488,-0.743 -0.496,-0.246 -0.988,-0.492 -1.484,-0.742 -0.497,-0.246 -0.993,-0.492 -1.489,-0.738 -0.496,-0.25 -0.992,-0.496 -1.484,-0.742 -0.496,-0.25 -0.992,-0.496 -1.488,-0.742 -0.496,-0.246 -0.993,-0.496 -1.489,-0.743 -0.492,-0.246 -0.988,-0.492 -1.484,-0.742 -0.496,-0.246 -0.992,-0.492 -1.488,-0.738 -0.492,-0.25 -0.989,-0.496 -1.485,-0.742 -0.496,-0.25 -0.992,-0.496 -1.488,-0.742 -0.496,-0.247 -0.988,-0.497 -1.484,-0.743 -0.496,-0.246 -0.993,-0.492 -1.489,-0.742 -0.496,-0.246 -0.992,-0.492 -1.484,-0.738 -0.496,-0.25 -0.992,-0.496 -1.488,-0.742 -0.496,-0.246 -0.992,-0.496 -1.485,-0.742 -0.496,-0.247 -0.992,-0.497 -1.488,-0.743 -0.496,-0.246 -0.992,-0.492 -1.488,-0.742 -0.492,-0.246 -0.988,-0.492 -1.485,-0.738 -0.496,-0.25 -0.992,-0.496 -1.488,-0.742 -0.496,-0.25 -0.988,-0.496 -1.484,-0.742 -0.496,-0.247 -0.992,-0.497 -1.489,-0.743 -0.496,-0.246 -0.992,-0.492 -1.484,-0.742 -0.496,-0.246 -0.992,-0.492 -1.488,-0.742 -0.496,-0.246 -0.992,-0.492 -1.488,-0.738 -0.493,-0.25 -0.989,-0.496 -1.485,-0.743 -0.496,-0.246 -0.992,-0.496 -1.488,-0.742 -0.492,-0.246 -0.988,-0.492 -1.484,-0.742 -0.497,-0.246 -0.993,-0.492 -1.489,-0.738 -0.496,-0.25 -0.988,-0.496 -1.484,-0.742 -0.496,-0.246 -0.992,-0.496 -1.488,-0.743 -0.497,-0.246 -0.993,-0.492 -1.485,-0.742 -0.496,-0.246 -0.992,-0.492 -1.488,-0.742 -0.496,-0.246 -0.992,-0.492 -1.484,-0.738 -0.497,-0.25 -0.993,-0.496 -1.489,-0.742 -0.496,-0.25 -0.992,-0.496 -1.488,-0.743 -0.496,-0.246 -0.988,-0.496 -1.484,-0.742 -0.496,-0.246 -0.993,-0.492 -1.489,-0.742 -0.496,-0.246 -0.988,-0.492 -1.484,-0.738 -0.496,-0.25 -0.992,-0.496 -1.488,-0.742 -0.496,-0.247 -0.993,-0.497 -1.485,-0.743 -0.496,-0.246 -0.992,-0.492 -1.488,-0.742 -0.496,-0.246 -0.992,-0.492 -1.484,-0.742 -0.496,-0.246 -0.993,-0.492 -1.489,-0.742 -0.496,-0.246 -0.992,-0.492 -1.488,-0.738 -0.492,-0.25 -0.988,-0.497 -1.484,-0.743 -0.496,-0.246 -0.992,-0.496 -1.489,-0.742 -0.496,-0.246 -0.988,-0.492 -1.484,-0.742 -0.496,-0.246 -0.992,-0.492 -1.488,-0.738 -0.496,-0.25 -0.989,-0.496 -1.485,-0.742 -0.496,-0.25 -0.992,-0.497 -1.488,-0.743 -0.496,-0.246 -0.992,-0.496 -1.484,-0.742 -0.496,-0.246 -0.992,-0.492 -1.489,-0.742 -0.496,-0.246 -0.992,-0.492 -1.488,-0.738 -0.492,-0.25 -0.988,-0.496 -1.484,-0.743 -0.496,-0.25 -0.992,-0.496 -1.488,-0.742 -0.497,-0.246 -0.989,-0.496 -1.485,-0.742 -0.496,-0.246 -0.992,-0.492 -1.488,-0.742 -0.496,-0.246 -0.992,-0.492 -1.485,-0.738 -0.496,-0.25 -0.992,-0.496 -1.488,-0.743 -0.496,-0.246 -0.992,-0.496 -1.484,-0.742 -0.496,-0.246 -0.992,-0.496 -1.488,-0.742 -0.497,-0.246 -0.993,-0.492 -1.489,-0.742 -0.492,-0.246 -0.988,-0.492 -1.484,-0.738 -0.496,-0.25 -0.992,-0.496 -1.488,-0.743 -0.496,-0.246 -0.989,-0.496 -1.485,-0.742 -0.496,-0.246 -0.992,-0.496 -1.488,-0.742 -0.496,-0.246 -0.988,-0.492 -1.484,-0.742 -0.497,-0.246 -0.993,-0.492 -1.489,-0.738 -0.496,-0.25 -0.992,-0.497 -1.484,-0.743 -0.496,-0.25 -0.992,-0.496 -1.488,-0.742 -0.496,-0.246 -0.993,-0.496 -1.489,-0.742 -0.492,-0.246 -0.988,-0.492 -1.484,-0.742 -0.496,-0.246 -0.992,-0.492 -1.488,-0.738 -0.496,-0.25 -0.989,-0.497 -1.485,-0.743 -0.496,-0.25 -0.992,-0.496 -1.488,-0.742 -0.496,-0.246 -0.988,-0.496 -1.484,-0.742 -0.496,-0.246 -0.993,-0.492 -1.489,-0.742 -0.496,-0.246 -0.992,-0.492 -1.484,-0.742 -0.496,-0.246 -0.992,-0.493 -1.488,-0.739 -0.496,-0.246 -0.992,-0.496 -1.489,-0.742 -0.492,-0.246 -0.988,-0.496 -1.484,-0.742 -0.496,-0.246 -0.992,-0.492 -1.488,-0.742 -0.492,-0.246 -0.988,-0.492 -1.485,-0.739 -0.496,-0.25 -0.992,-0.496 -1.488,-0.742 -0.496,-0.246 -0.992,-0.496 -1.484,-0.742 -0.496,-0.246 -0.992,-0.492 -1.489,-0.742 -0.496,-0.246 -0.992,-0.492 -1.484,-0.742 -0.496,-0.246 -0.992,-0.492 -1.488,-0.739 -0.496,-0.25 -0.992,-0.496 -1.488,-0.742 -0.497,-0.246 -0.989,-0.496 -1.485,-0.742 -0.496,-0.246 -0.992,-0.492 -1.488,-0.742 -0.496,-0.246 -0.988,-0.492 -1.484,-0.742 -0.497,-0.246 -0.993,-0.492 -1.489,-0.739 -0.496,-0.25 -0.992,-0.496 -1.484,-0.742 -0.496,-0.246 -0.992,-0.496 -1.488,-0.742 -0.497,-0.246 -0.993,-0.496 -1.485,-0.742 -0.496,-0.246 -0.992,-0.492 -1.488,-0.742 -0.496,-0.246 -0.992,-0.493 -1.488,-0.739 -0.493,-0.25 -0.989,-0.496 -1.485,-0.742 -0.496,-0.246 -0.992,-0.496 -1.488,-0.742 -0.492,-0.246 -0.992,-0.492 -1.484,-0.742 -0.496,-0.246 -0.993,-0.492 -1.489,-0.738 -0.496,-0.25 -0.988,-0.497 -1.484,-0.743 -0.496,-0.25 -0.992,-0.496 -1.488,-0.742 -0.496,-0.25 -0.993,-0.496 -1.489,-0.742 -0.492,-0.246 -0.988,-0.492 -1.484,-0.742 -0.496,-0.246 -0.992,-0.492 -1.488,-0.742 -0.492,-0.246 -0.989,-0.493 -1.485,-0.739 -0.496,-0.25 -0.992,-0.496 -1.488,-0.742 -0.496,-0.246 -0.988,-0.496 -1.484,-0.742 -0.496,-0.246 -0.992,-0.492 -1.489,-0.742 -0.496,-0.246 -0.988,-0.492 -1.484,-0.742 -0.496,-0.247 -0.992,-0.493 -1.488,-0.739 -0.496,-0.25 -0.992,-0.496 -1.489,-0.742 -0.492,-0.246 -0.988,-0.496 -1.484,-0.742 -0.496,-0.246 -0.992,-0.496 -1.488,-0.742 -0.492,-0.246 -0.988,-0.492 -1.485,-0.742 -0.496,-0.247 -0.992,-0.493 -1.488,-0.739 -0.492,-0.25 -0.988,-0.496 -1.484,-0.742 -0.496,-0.246 -0.992,-0.496 -1.488,-0.742 -0.497,-0.246 -0.993,-0.496 -1.485,-0.742 -0.496,-0.246 -0.992,-0.492 -1.488,-0.742 -0.496,-0.247 -0.992,-0.493 -1.485,-0.739 -0.496,-0.25 -0.992,-0.496 -1.488,-0.742 -0.496,-0.246 -0.992,-0.496 -1.488,-0.742 -0.492,-0.246 -0.988,-0.492 -1.484,-0.742 -0.497,-0.246 -0.993,-0.493 -1.489,-0.739 -0.492,-0.25 -0.988,-0.496 -1.484,-0.742 -0.496,-0.25 -0.992,-0.496 -1.488,-0.742 -0.496,-0.246 -0.989,-0.496 -1.485,-0.742 -0.496,-0.246 -0.992,-0.496 -1.488,-0.742 -0.496,-0.246 -0.992,-0.493 -1.484,-0.739 -0.497,-0.25 -0.993,-0.496 -1.489,-0.742 -0.496,-0.25 -0.992,-0.496 -1.484,-0.742 -0.496,-0.246 -0.992,-0.496 -1.488,-0.742 -0.496,-0.246 -0.993,-0.496 -1.489,-0.742 -0.496,-0.246 -0.988,-0.493 -1.484,-0.743 -0.496,-0.246 -0.992,-0.492 -1.488,-0.738 -0.492,-0.25 -0.989,-0.496 -1.485,-0.742 -0.496,-0.246 -0.992,-0.496 -1.488,-0.742 -0.496,-0.246 -0.992,-0.492 -1.484,-0.742 -0.496,-0.247 -0.993,-0.493 -1.489,-0.743 -0.496,-0.246 -0.992,-0.492 -1.488,-0.738 -0.492,-0.25 -0.988,-0.496 -1.484,-0.742 -0.496,-0.25 -0.992,-0.496 -1.489,-0.742 -0.492,-0.246 -0.988,-0.492 -1.484,-0.742 -0.496,-0.247 -0.992,-0.493 -1.488,-0.743 -0.496,-0.246 -0.988,-0.492 -1.485,-0.738 -0.496,-0.25 -0.992,-0.496 -1.488,-0.742 -0.496,-0.246 -0.992,-0.496 -1.484,-0.742 -0.496,-0.246 -0.992,-0.492 -1.489,-0.742 -0.496,-0.247 -0.992,-0.493 -1.488,-0.743 -0.492,-0.246 -0.988,-0.492 -1.484,-0.738 -0.496,-0.25 -0.992,-0.496 -1.488,-0.742 -0.497,-0.246 -0.989,-0.496 -1.485,-0.742 -0.496,-0.246 -0.992,-0.496 -1.488,-0.743 -0.496,-0.246 -0.988,-0.492 -1.484,-0.742 -0.497,-0.246 -0.993,-0.492 -1.489,-0.738 -0.496,-0.246 -0.992,-0.496 -1.484,-0.742 -0.496,-0.246 -0.992,-0.496 -1.488,-0.742 -0.497,-0.246 -0.993,-0.493 -1.489,-0.743 -0.492,-0.246 -0.988,-0.492 -1.484,-0.738 -0.496,-0.25 -0.992,-0.496 -1.488,-0.742 -0.493,-0.25 -0.989,-0.496 -1.485,-0.742 -0.496,-0.246 -0.992,-0.496 -1.488,-0.742 -0.496,-0.246 -0.988,-0.496 -1.484,-0.743 -0.496,-0.246 -0.993,-0.492 -1.489,-0.738 -0.496,-0.25 -0.988,-0.496 -1.484,-0.742 -0.496,-0.25 -0.992,-0.496 -1.488,-0.742 -0.496,-0.246 -0.993,-0.496 -1.485,-0.742 -0.496,-0.247 -0.992,-0.497 -1.488,-0.743 -0.496,-0.246 -0.992,-0.492 -1.488,-0.742 -0.492,-0.246 -0.989,-0.492 -1.485,-0.738 -0.496,-0.25 -0.992,-0.496 -1.488,-0.742 -0.496,-0.246 -0.992,-0.496 -1.484,-0.742 -0.496,-0.247 -0.992,-0.493 -1.489,-0.743 -0.496,-0.246 -0.992,-0.492 -1.484,-0.742 -0.496,-0.246 -0.992,-0.492 -1.488,-0.738 -0.496,-0.25 -0.992,-0.496 -1.489,-0.742 -0.492,-0.25 -0.988,-0.492 -1.484,-0.742 -0.496,-0.247 -0.992,-0.493 -1.488,-0.743 -0.496,-0.246 -0.988,-0.492 -1.485,-0.742 -0.496,-0.246 -0.992,-0.492 -1.488,-0.738 -0.496,-0.25 -0.988,-0.496 -1.484,-0.742 -0.496,-0.246 -0.992,-0.496 -1.488,-0.743 -0.497,-0.246 -0.993,-0.492 -1.485,-0.742 -0.496,-0.246 -0.992,-0.492 -1.488,-0.738 -0.496,-0.25 -0.992,-0.496 -1.485,-0.742 -0.496,-0.25 -0.992,-0.496 -1.488,-0.742 -0.496,-0.246 -0.992,-0.496 -1.488,-0.743 -0.496,-0.246 -0.988,-0.492 -1.484,-0.742 -0.497,-0.246 -0.993,-0.492 -1.489,-0.742 -0.496,-0.246 -0.988,-0.492 -1.484,-0.738 -0.496,-0.25 -0.992,-0.496 -1.488,-0.742 -0.496,-0.246 -0.989,-0.496 -1.485,-0.743 -0.496,-0.246 -0.992,-0.492 -1.488,-0.742 -0.496,-0.246 -0.992,-0.492 -1.484,-0.738 -0.497,-0.25 -0.993,-0.496 -1.489,-0.742 -0.496,-0.246 -0.992,-0.496 -1.488,-0.742 -0.492,-0.247 -0.988,-0.497 -1.484,-0.743 -0.496,-0.246 -0.993,-0.492 -1.489,-0.742 -0.496,-0.246 -0.988,-0.492 -1.484,-0.738 -0.496,-0.25 -0.992,-0.496 -1.488,-0.742 -0.496,-0.25 -0.992,-0.496 -1.485,-0.742 -0.496,-0.247 -0.992,-0.497 -1.488,-0.743 -0.496,-0.246 -0.992,-0.492 -1.488,-0.742 -0.492,-0.246 -0.989,-0.492 -1.485,-0.738 -0.496,-0.25 -0.992,-0.496 -1.488,-0.742 -0.492,-0.25 -0.988,-0.496 -1.484,-0.742 -0.496,-0.247 -0.992,-0.497 -1.489,-0.743 -0.496,-0.246 -0.992,-0.492 -1.484,-0.742 -0.496,-0.246 -0.992,-0.492 -1.488,-0.742 -0.496,-0.246 -0.992,-0.492 -1.485,-0.738 -0.496,-0.25 -0.992,-0.496 -1.488,-0.743 -0.496,-0.246 -0.992,-0.492 -1.488,-0.742 -0.492,-0.246 -0.988,-0.492 -1.485,-0.742 -0.496,-0.246 -0.992,-0.492 -1.488,-0.742 -0.496,-0.246 -0.988,-0.492 -1.484,-0.738 -0.496,-0.25 -0.992,-0.496 -1.488,-0.743 -0.497,-0.246 -0.989,-0.496 -1.485,-0.742 -0.496,-0.246 -0.992,-0.492 -1.488,-0.742 -0.496,-0.246 -0.992,-0.492 -1.484,-0.738 -0.497,-0.25 -0.993,-0.496 -1.489,-0.742 -0.496,-0.246 -0.992,-0.496 -1.484,-0.743 -0.496,-0.246 -0.992,-0.496 -1.488,-0.742 -0.497,-0.246 -0.993,-0.492 -1.489,-0.742 -0.492,-0.246 -0.988,-0.492 -1.484,-0.742 -0.496,-0.246 -0.992,-0.492 -1.488,-0.738 -0.496,-0.247 -0.989,-0.497 -1.485,-0.743 -0.496,-0.246 -0.992,-0.496 -1.488,-0.742 -0.496,-0.246 -0.988,-0.496 -1.484,-0.742 -0.496,-0.246 -0.993,-0.492 -1.489,-0.742 -0.496,-0.246 -0.992,-0.492 -1.488,-0.738 -0.492,-0.247 -0.988,-0.497 -1.484,-0.743 -0.496,-0.246 -0.993,-0.496 -1.489,-0.742 -0.496,-0.246 -0.988,-0.492 -1.484,-0.742 -0.496,-0.246 -0.992,-0.492 -1.488,-0.738 -0.496,-0.25 -0.989,-0.496 -1.485,-0.742 -0.496,-0.25 -0.992,-0.497 -1.488,-0.743 -0.496,-0.246 -0.992,-0.492 -1.484,-0.742 -0.496,-0.246 -0.992,-0.492 -1.489,-0.742 -0.496,-0.246 -0.992,-0.492 -1.484,-0.738 -0.496,-0.25 -0.992,-0.496 -1.488,-0.743 -0.496,-0.25 -0.992,-0.496 -1.489,-0.742 -0.492,-0.246 -0.988,-0.496 -1.484,-0.742 -0.496,-0.246 -0.992,-0.492 -1.488,-0.742 -0.496,-0.246 -0.988,-0.492 -1.485,-0.738 -0.496,-0.25 -0.992,-0.496 -1.488,-0.743 -0.496,-0.246 -0.992,-0.496 -1.484,-0.742 -0.496,-0.246 -0.992,-0.496 -1.488,-0.742 -0.497,-0.246 -0.993,-0.492 -1.489,-0.742 -0.492,-0.246 -0.988,-0.492 -1.484,-0.738 -0.496,-0.25 -0.992,-0.496 -1.488,-0.743 -0.493,-0.246 -0.989,-0.496 -1.485,-0.742 -0.496,-0.246 -0.992,-0.496 -1.488,-0.742 -0.496,-0.246 -0.988,-0.492 -1.484,-0.742 -0.497,-0.246 -0.993,-0.492 -1.489,-0.738 -0.496,-0.25 -0.992,-0.497 -1.484,-0.743 -0.496,-0.25 -0.992,-0.496 -1.488,-0.742 -0.496,-0.246 -0.993,-0.496 -1.485,-0.742 -0.496,-0.246 -0.992,-0.492 -1.488,-0.742 -0.496,-0.246 -0.992,-0.492 -1.488,-0.738 -0.496,-0.25 -0.989,-0.497 -1.485,-0.743 -0.496,-0.25 -0.992,-0.496 -1.488,-0.742 -0.496,-0.246 -0.988,-0.496 -1.484,-0.742 -0.496,-0.246 -0.993,-0.492 -1.489,-0.742 -0.496,-0.246 -0.992,-0.492 -1.484,-0.738 -0.496,-0.25 -0.992,-0.497 -1.488,-0.743 -0.496,-0.246 -0.992,-0.496 -1.485,-0.742 -0.496,-0.246 -0.992,-0.496 -1.488,-0.742 -0.496,-0.246 -0.992,-0.492 -1.488,-0.742" /><path
         id="path120"
         style="fill:none;stroke:#000000;stroke-width:10;stroke-linecap:butt;stroke-linejoin:miter;stroke-miterlimit:10;stroke-dasharray:none;stroke-opacity:1"
         d="m 1513.42,310.297 c -0.49,0.242 -0.99,0.484 -1.48,0.73 -0.5,0.243 -0.99,0.485 -1.49,0.731 -0.5,0.242 -0.99,0.488 -1.49,0.73 -0.49,0.242 -0.99,0.489 -1.48,0.731 -0.5,0.242 -1,0.488 -1.49,0.73 -0.49,0.246 -0.99,0.489 -1.49,0.731 -0.49,0.246 -0.98,0.488 -1.48,0.734 -0.5,0.242 -0.99,0.484 -1.49,0.731 -0.49,0.242 -0.99,0.484 -1.48,0.73 -0.5,0.242 -1,0.484 -1.49,0.73 -0.49,0.243 -0.99,0.489 -1.49,0.731 -0.49,0.242 -0.99,0.488 -1.48,0.73 -0.5,0.243 -0.99,0.489 -1.49,0.731 -0.49,0.246 -0.99,0.488 -1.48,0.73 -0.5,0.246 -0.99,0.489 -1.49,0.731 -0.5,0.246 -0.99,0.488 -1.49,0.73 -0.49,0.246 -0.99,0.489 -1.48,0.731 -0.5,0.246 -0.99,0.488 -1.49,0.734 -0.49,0.242 -0.99,0.485 -1.49,0.731 -0.49,0.242 -0.98,0.484 -1.48,0.73 -0.5,0.242 -0.99,0.488 -1.49,0.731 -0.49,0.242 -0.99,0.488 -1.48,0.73 -0.5,0.242 -1,0.488 -1.49,0.73 -0.49,0.247 -0.99,0.489 -1.49,0.731 -0.49,0.246 -0.99,0.488 -1.48,0.73 -0.5,0.247 -0.99,0.489 -1.49,0.731 -0.49,0.246 -0.99,0.488 -1.48,0.734 -0.5,0.242 -1,0.485 -1.49,0.731 -0.49,0.242 -0.99,0.484 -1.49,0.73 -0.49,0.242 -0.99,0.488 -1.48,0.731 -0.5,0.242 -0.99,0.488 -1.49,0.73 -0.49,0.242 -0.99,0.488 -1.49,0.731 -0.49,0.242 -0.98,0.488 -1.48,0.73 -0.5,0.246 -0.99,0.488 -1.49,0.731 -0.49,0.246 -0.99,0.488 -1.48,0.73 -0.5,0.246 -1,0.488 -1.49,0.734 -0.49,0.243 -0.99,0.485 -1.49,0.731 -0.49,0.242 -0.99,0.484 -1.48,0.73 -0.5,0.243 -0.99,0.489 -1.49,0.731 -0.49,0.242 -0.99,0.488 -1.48,0.73 -0.5,0.242 -1,0.489 -1.49,0.731 -0.49,0.246 -0.99,0.488 -1.49,0.73 -0.49,0.246 -0.99,0.488 -1.48,0.731 -0.5,0.246 -0.99,0.488 -1.49,0.734 -0.49,0.242 -0.99,0.484 -1.48,0.727 -0.5,0.246 -1,0.488 -1.49,0.734 -0.5,0.242 -0.99,0.484 -1.49,0.73 -0.49,0.243 -0.99,0.485 -1.48,0.731 -0.5,0.242 -0.99,0.488 -1.49,0.73 -0.49,0.243 -0.99,0.489 -1.49,0.731 -0.49,0.242 -0.98,0.488 -1.48,0.73 -0.5,0.246 -0.99,0.489 -1.49,0.731 -0.49,0.246 -0.99,0.488 -1.48,0.73 -0.5,0.246 -1,0.489 -1.49,0.735 -0.49,0.242 -0.99,0.484 -1.49,0.73 -0.49,0.242 -0.99,0.484 -1.48,0.731 -0.5,0.242 -0.99,0.484 -1.49,0.73 -0.5,0.242 -0.99,0.488 -1.48,0.731 -0.5,0.242 -1,0.488 -1.49,0.73 -0.5,0.246 -0.99,0.488 -1.49,0.73 -0.49,0.247 -0.99,0.489 -1.48,0.731 -0.5,0.246 -0.99,0.488 -1.49,0.73 -0.49,0.246 -0.99,0.489 -1.49,0.731 -0.49,0.246 -0.99,0.488 -1.48,0.734 -0.5,0.242 -0.99,0.485 -1.49,0.731 -0.49,0.242 -0.99,0.484 -1.48,0.73 -0.5,0.242 -1,0.485 -1.49,0.731 -0.49,0.242 -0.99,0.488 -1.49,0.73 -0.49,0.242 -0.99,0.488 -1.48,0.731 -0.5,0.242 -0.99,0.488 -1.49,0.73 -0.5,0.246 -0.99,0.488 -1.48,0.731 -0.5,0.246 -1,0.488 -1.49,0.73 -0.5,0.246 -0.99,0.488 -1.49,0.734 -0.49,0.243 -0.99,0.485 -1.48,0.731 -0.5,0.242 -0.99,0.484 -1.49,0.73 -0.5,0.242 -0.99,0.489 -1.49,0.731 -0.49,0.242 -0.99,0.488 -1.48,0.73 -0.5,0.242 -0.99,0.489 -1.49,0.731 -0.49,0.242 -0.99,0.488 -1.48,0.73 -0.5,0.246 -1,0.488 -1.49,0.731 -0.49,0.246 -0.99,0.488 -1.49,0.73 -0.49,0.246 -0.99,0.488 -1.48,0.731 -0.5,0.246 -0.99,0.488 -1.49,0.734 -0.49,0.242 -0.99,0.484 -1.48,0.73 -0.5,0.243 -1,0.485 -1.49,0.731 -0.49,0.242 -0.99,0.488 -1.49,0.73 -0.49,0.243 -0.99,0.489 -1.48,0.731 -0.5,0.242 -0.99,0.488 -1.49,0.73 -0.5,0.242 -0.99,0.489 -1.48,0.731 -0.5,0.246 -1,0.488 -1.49,0.73 -0.5,0.246 -0.99,0.489 -1.49,0.731 -0.49,0.246 -0.99,0.488 -1.48,0.734 -0.5,0.242 -0.99,0.484 -1.49,0.731 -0.5,0.242 -0.99,0.484 -1.49,0.73 -0.49,0.242 -0.99,0.488 -1.48,0.73 -0.5,0.243 -0.99,0.489 -1.49,0.731 -0.49,0.242 -0.99,0.488 -1.48,0.73 -0.5,0.243 -1,0.489 -1.49,0.731 -0.49,0.246 -0.99,0.488 -1.49,0.73 -0.49,0.246 -0.99,0.489 -1.48,0.735 -0.5,0.242 -0.99,0.484 -1.49,0.73 -0.5,0.242 -0.99,0.485 -1.48,0.731 -0.5,0.242 -1,0.484 -1.49,0.73 -0.5,0.242 -0.99,0.488 -1.49,0.731 -0.49,0.242 -0.99,0.488 -1.48,0.73 -0.5,0.242 -0.99,0.488 -1.49,0.731 -0.5,0.242 -0.99,0.488 -1.49,0.73 -0.49,0.246 -0.99,0.488 -1.48,0.73 -0.5,0.247 -0.99,0.489 -1.49,0.731 -0.49,0.246 -0.99,0.488 -1.48,0.73 -0.5,0.247 -1,0.489 -1.49,0.735 -0.5,0.242 -0.99,0.484 -1.49,0.73 -0.49,0.242 -0.99,0.485 -1.48,0.731 -0.5,0.242 -0.99,0.488 -1.49,0.73 -0.49,0.242 -0.99,0.488 -1.48,0.731 -0.5,0.242 -1,0.488 -1.49,0.73 -0.5,0.242 -0.99,0.488 -1.49,0.731 -0.49,0.246 -0.99,0.488 -1.49,0.73 -0.49,0.246 -0.98,0.488 -1.48,0.731 -0.5,0.246 -0.99,0.488 -1.48,0.734 -0.5,0.242 -1,0.484 -1.49,0.73 -0.5,0.243 -0.99,0.489 -1.49,0.731 -0.49,0.242 -0.99,0.488 -1.48,0.73 -0.5,0.243 -0.99,0.489 -1.49,0.731 -0.5,0.242 -0.99,0.488 -1.49,0.73 -0.49,0.242 -0.99,0.489 -1.48,0.731 -0.5,0.246 -0.99,0.488 -1.49,0.73 -0.49,0.246 -0.99,0.488 -1.48,0.731 -0.5,0.246 -1,0.488 -1.49,0.734 -0.5,0.242 -0.99,0.484 -1.49,0.731 -0.49,0.242 -0.99,0.484 -1.48,0.73 -0.5,0.242 -0.99,0.484 -1.49,0.73 -0.5,0.243 -0.99,0.489 -1.48,0.731 -0.5,0.242 -1,0.488 -1.49,0.73 -0.5,0.246 -0.99,0.489 -1.49,0.731 -0.49,0.246 -0.99,0.488 -1.49,0.73 -0.49,0.246 -0.98,0.489 -1.48,0.731 -0.5,0.246 -0.99,0.488 -1.49,0.734 -0.49,0.242 -0.99,0.485 -1.48,0.731 -0.5,0.242 -0.99,0.484 -1.49,0.73 -0.49,0.242 -0.99,0.488 -1.48,0.731 -0.5,0.242 -1,0.488 -1.49,0.73 -0.5,0.242 -0.99,0.488 -1.49,0.731 -0.49,0.242 -0.99,0.488 -1.48,0.73 -0.5,0.242 -0.99,0.488 -1.49,0.73 -0.5,0.247 -0.99,0.489 -1.48,0.731 -0.5,0.246 -1,0.488 -1.49,0.73 -0.5,0.246 -0.99,0.489 -1.49,0.735 -0.49,0.242 -0.99,0.484 -1.49,0.73 -0.49,0.242 -0.98,0.489 -1.48,0.731 -0.5,0.242 -0.99,0.484 -1.49,0.73 -0.49,0.242 -0.99,0.488 -1.48,0.731 -0.5,0.242 -0.99,0.488 -1.49,0.73 -0.49,0.242 -0.99,0.488 -1.49,0.731 -0.49,0.246 -0.99,0.488 -1.48,0.73 -0.5,0.246 -0.99,0.488 -1.49,0.734 -0.49,0.243 -0.99,0.485 -1.48,0.727 -0.5,0.246 -0.99,0.488 -1.49,0.734 -0.49,0.243 -0.99,0.485 -1.48,0.731 -0.5,0.242 -1,0.484 -1.49,0.73 -0.5,0.242 -0.99,0.489 -1.49,0.731 -0.49,0.242 -0.99,0.488 -1.49,0.73 -0.49,0.242 -0.98,0.489 -1.48,0.731 -0.5,0.246 -0.99,0.488 -1.48,0.73 -0.5,0.246 -1,0.488 -1.49,0.731 -0.5,0.246 -1,0.488 -1.49,0.73 -0.49,0.246 -0.99,0.488 -1.49,0.734 -0.49,0.243 -0.98,0.485 -1.48,0.731 -0.5,0.242 -0.99,0.484 -1.49,0.73 -0.49,0.243 -0.99,0.489 -1.48,0.731 -0.5,0.242 -0.99,0.488 -1.49,0.73 -0.49,0.243 -0.99,0.489 -1.49,0.731 -0.49,0.242 -0.99,0.488 -1.48,0.73 -0.5,0.246 -0.99,0.489 -1.49,0.731 -0.49,0.246 -0.99,0.488 -1.48,0.73 -0.5,0.246 -0.99,0.489 -1.49,0.735 -0.5,0.242 -0.99,0.484 -1.48,0.73 -0.5,0.242 -1,0.484 -1.49,0.731 -0.5,0.242 -0.99,0.484 -1.49,0.73 -0.49,0.242 -0.99,0.488 -1.49,0.73 -0.49,0.243 -0.98,0.489 -1.48,0.731 -0.5,0.246 -0.99,0.488 -1.49,0.73 -0.49,0.247 -0.99,0.489 -1.48,0.731 -0.5,0.246 -1,0.488 -1.49,0.734 -0.49,0.242 -0.99,0.485 -1.49,0.731 -0.49,0.242 -0.99,0.484 -1.48,0.73 -0.5,0.242 -0.99,0.485 -1.49,0.731 -0.49,0.242 -0.99,0.488 -1.48,0.73 -0.5,0.242 -0.99,0.488 -1.49,0.731 -0.5,0.242 -0.99,0.488 -1.49,0.73 -0.49,0.246 -0.99,0.488 -1.48,0.731 -0.5,0.246 -0.99,0.488 -1.49,0.73 -0.49,0.246 -0.99,0.488 -1.49,0.73 -0.49,0.247 -0.98,0.489 -1.48,0.735 -0.5,0.242 -0.99,0.484 -1.49,0.73 -0.49,0.243 -0.99,0.485 -1.48,0.731 -0.5,0.242 -1,0.484 -1.49,0.73 -0.49,0.242 -0.99,0.489 -1.49,0.731 -0.49,0.242 -0.98,0.488 -1.48,0.73 -0.5,0.242 -0.99,0.488 -1.49,0.731 -0.49,0.242 -0.99,0.488 -1.48,0.73 -0.5,0.242 -1,0.488 -1.49,0.731 -0.49,0.246 -0.99,0.488 -1.49,0.73 -0.49,0.246 -0.99,0.488 -1.48,0.731 -0.5,0.246 -0.99,0.488 -1.49,0.734 -0.49,0.242 -0.99,0.484 -1.49,0.73 -0.49,0.243 -0.98,0.489 -1.48,0.731 -0.5,0.242 -0.99,0.488 -1.49,0.73 -0.49,0.243 -0.99,0.489 -1.48,0.731 -0.5,0.242 -0.99,0.488 -1.49,0.73 -0.49,0.246 -0.99,0.489 -1.49,0.731 -0.49,0.246 -0.98,0.488 -1.48,0.73 -0.5,0.246 -0.99,0.488 -1.49,0.731 -0.49,0.246 -0.99,0.488 -1.48,0.734 -0.5,0.242 -1,0.484 -1.49,0.731 -0.49,0.242 -0.99,0.488 -1.49,0.73 -0.49,0.242 -0.99,0.488 -1.48,0.73 -0.5,0.243 -0.99,0.489 -1.49,0.731 -0.49,0.242 -0.99,0.488 -1.48,0.73 -0.5,0.246 -1,0.489 -1.49,0.731 -0.5,0.246 -0.99,0.488 -1.49,0.73 -0.49,0.246 -0.99,0.489 -1.48,0.731 -0.5,0.246 -0.99,0.488 -1.49,0.734 -0.49,0.242 -0.99,0.485 -1.49,0.731 -0.49,0.242 -0.98,0.484 -1.48,0.73 -0.5,0.242 -0.99,0.484 -1.49,0.731 -0.49,0.242 -0.99,0.488 -1.48,0.73 -0.5,0.242 -1,0.488 -1.49,0.731 -0.49,0.246 -0.99,0.488 -1.49,0.73 -0.49,0.246 -0.99,0.488 -1.48,0.73 -0.5,0.247 -0.99,0.489 -1.49,0.735 -0.49,0.242 -0.99,0.484 -1.48,0.73 -0.5,0.242 -1,0.485 -1.49,0.731 -0.49,0.242 -0.99,0.484 -1.49,0.73 -0.49,0.242 -0.99,0.489 -1.48,0.731 -0.5,0.242 -0.99,0.488 -1.49,0.73 -0.49,0.242 -0.99,0.488 -1.49,0.731 -0.49,0.246 -0.99,0.488 -1.48,0.73 -0.5,0.242 -0.99,0.488 -1.49,0.731 -0.49,0.246 -0.99,0.488 -1.48,0.734 -0.5,0.242 -1,0.484 -1.49,0.727 -0.49,0.246 -0.99,0.488 -1.49,0.734 -0.49,0.242 -0.99,0.484 -1.48,0.73 -0.5,0.243 -0.99,0.489 -1.49,0.731 -0.49,0.242 -0.99,0.488 -1.48,0.73 -0.5,0.242 -1,0.489 -1.49,0.731 -0.49,0.246 -0.99,0.488 -1.49,0.73 -0.49,0.246 -0.99,0.489 -1.48,0.731 -0.5,0.246 -0.99,0.488 -1.49,0.734 -0.49,0.242 -0.99,0.484 -1.48,0.727 -0.5,0.246 -1,0.488 -1.49,0.734 -0.5,0.242 -0.99,0.484 -1.49,0.73 -0.49,0.243 -0.99,0.485 -1.48,0.731 -0.5,0.242 -0.99,0.488 -1.49,0.73 -0.49,0.243 -0.99,0.489 -1.49,0.731 -0.49,0.242 -0.99,0.488 -1.48,0.73 -0.5,0.243 -0.99,0.489 -1.49,0.731 -0.49,0.246 -0.99,0.488 -1.48,0.73 -0.5,0.246 -1,0.489 -1.49,0.735 -0.49,0.242 -0.99,0.484 -1.49,0.726 -0.49,0.246 -0.99,0.489 -1.48,0.735 -0.5,0.242 -0.99,0.484 -1.49,0.73 -0.5,0.242 -0.99,0.484 -1.48,0.731 -0.5,0.242 -1,0.488 -1.49,0.73 -0.5,0.242 -0.99,0.488 -1.49,0.73 -0.49,0.243 -0.99,0.489 -1.48,0.731 -0.5,0.246 -0.99,0.488 -1.49,0.73 -0.49,0.247 -0.99,0.489 -1.49,0.731 -0.49,0.246 -0.99,0.488 -1.48,0.734 -0.5,0.242 -0.99,0.485 -1.49,0.731 -0.49,0.242 -0.99,0.488 -1.48,0.73 -0.5,0.242 -1,0.488 -1.49,0.731 -0.49,0.242 -0.99,0.488 -1.49,0.73 -0.49,0.242 -0.99,0.488 -1.48,0.731 -0.5,0.246 -0.99,0.488 -1.49,0.73 -0.5,0.246 -0.99,0.488 -1.48,0.731 -0.5,0.246 -1,0.488 -1.49,0.73 -0.5,0.246 -0.99,0.488 -1.49,0.734 -0.49,0.243 -0.99,0.485 -1.48,0.731 -0.5,0.242 -0.99,0.484 -1.49,0.73 -0.5,0.243 -0.99,0.489 -1.48,0.731 -0.5,0.242 -1,0.484 -1.49,0.73 -0.5,0.242 -0.99,0.489 -1.49,0.731 -0.49,0.242 -0.99,0.488 -1.48,0.73 -0.5,0.246 -1,0.488 -1.49,0.731 -0.49,0.246 -0.99,0.488 -1.49,0.73 -0.49,0.246 -0.99,0.488 -1.48,0.731 -0.5,0.246 -0.99,0.488 -1.49,0.734 -0.5,0.242 -0.99,0.484 -1.48,0.73 -0.5,0.243 -1,0.489 -1.49,0.731 -0.49,0.242 -0.99,0.488 -1.49,0.73 -0.49,0.243 -0.99,0.489 -1.49,0.731 -0.49,0.242 -0.98,0.488 -1.48,0.73 -0.5,0.243 -0.99,0.489 -1.48,0.731 -0.5,0.246 -1,0.488 -1.49,0.73 -0.5,0.246 -0.99,0.489 -1.49,0.731 -0.49,0.246 -0.99,0.488 -1.48,0.73 -0.5,0.246 -0.99,0.488 -1.49,0.735 -0.5,0.242 -0.99,0.484 -1.49,0.73 -0.49,0.242 -0.99,0.488 -1.48,0.731 -0.5,0.242 -0.99,0.488 -1.49,0.73 -0.49,0.242 -0.99,0.488 -1.48,0.73 -0.5,0.243 -1,0.489 -1.49,0.731 -0.49,0.246 -0.99,0.488 -1.49,0.73 -0.49,0.246 -0.99,0.489 -1.48,0.731 -0.5,0.246 -0.99,0.488 -1.49,0.73 -0.5,0.246 -0.99,0.489 -1.48,0.735 -0.5,0.242 -1,0.484 -1.49,0.73 -0.5,0.242 -0.99,0.485 -1.49,0.731 -0.49,0.242 -0.99,0.488 -1.49,0.73 -0.49,0.242 -0.98,0.488 -1.48,0.731 -0.5,0.242 -0.99,0.488 -1.49,0.73 -0.49,0.246 -0.99,0.488 -1.48,0.731 -0.5,0.246 -0.99,0.488 -1.49,0.73 -0.49,0.246 -0.99,0.488 -1.48,0.734 -0.5,0.243 -1,0.485 -1.49,0.731 -0.5,0.242 -0.99,0.484 -1.49,0.73 -0.49,0.242 -0.99,0.485 -1.48,0.731 -0.5,0.242 -0.99,0.488 -1.49,0.73 -0.5,0.242 -0.99,0.489 -1.48,0.731 -0.5,0.242 -1,0.488 -1.49,0.73 -0.49,0.242 -0.99,0.488 -1.49,0.731 -0.49,0.246 -0.99,0.488 -1.49,0.73 -0.49,0.246 -0.98,0.488 -1.48,0.731 -0.5,0.246 -0.99,0.488 -1.48,0.734 -0.5,0.242 -1,0.484 -1.49,0.73 -0.5,0.243 -0.99,0.485 -1.49,0.731 -0.49,0.242 -0.99,0.488 -1.49,0.73 -0.49,0.243 -0.98,0.489 -1.48,0.731 -0.5,0.242 -0.99,0.488 -1.49,0.73 -0.49,0.242 -0.99,0.489 -1.48,0.731 -0.5,0.246 -0.99,0.488 -1.49,0.73 -0.49,0.246 -0.99,0.489 -1.48,0.731 -0.5,0.246 -1,0.488 -1.49,0.73 -0.5,0.246 -0.99,0.488 -1.49,0.735 -0.49,0.242 -0.99,0.484 -1.48,0.73 -0.5,0.242 -0.99,0.488 -1.49,0.73 -0.5,0.243 -0.99,0.489 -1.48,0.731 -0.5,0.242 -1,0.488 -1.49,0.73 -0.5,0.243 -0.99,0.489 -1.49,0.731 -0.49,0.242 -0.99,0.488 -1.49,0.73 -0.49,0.246 -0.98,0.489 -1.48,0.731 -0.5,0.246 -0.99,0.488 -1.49,0.73 -0.49,0.246 -0.99,0.489 -1.48,0.735 -0.5,0.242 -0.99,0.484 -1.49,0.73 -0.49,0.242 -0.989,0.485 -1.485,0.731 -0.496,0.242 -0.992,0.484 -1.488,0.73 -0.493,0.242 -0.989,0.488 -1.485,0.731 -0.496,0.242 -0.992,0.488 -1.484,0.73 -0.496,0.246 -0.992,0.488 -1.488,0.73 -0.497,0.247 -0.993,0.489 -1.485,0.731 -0.496,0.246 -0.992,0.488 -1.488,0.73 -0.496,0.247 -0.988,0.489 -1.484,0.731 -0.497,0.246 -0.993,0.488 -1.489,0.734 -0.492,0.242 -0.988,0.485 -1.484,0.731 -0.496,0.242 -0.992,0.488 -1.488,0.73 -0.493,0.242 -0.989,0.488 -1.485,0.731 -0.496,0.242 -0.992,0.488 -1.488,0.73 -0.492,0.242 -0.988,0.488 -1.484,0.731 -0.497,0.246 -0.993,0.488 -1.485,0.73 -0.496,0.246 -0.992,0.488 -1.488,0.731 -0.496,0.246 -0.988,0.488 -1.484,0.73 -0.497,0.246 -0.993,0.488 -1.489,0.734 -0.492,0.243 -0.988,0.485 -1.484,0.731 -0.496,0.242 -0.992,0.488 -1.488,0.73 -0.493,0.243 -0.989,0.489 -1.485,0.731 -0.496,0.242 -0.992,0.488 -1.488,0.73 -0.492,0.242 -0.988,0.489 -1.484,0.731 -0.497,0.246 -0.993,0.488 -1.485,0.73 -0.496,0.246 -0.992,0.488 -1.488,0.731 -0.496,0.246 -0.992,0.488 -1.484,0.734 -0.497,0.242 -0.993,0.484 -1.489,0.731 -0.496,0.242 -0.988,0.484 -1.484,0.73 -0.496,0.242 -0.992,0.484 -1.488,0.73 -0.493,0.243 -0.989,0.489 -1.485,0.731 -0.496,0.242 -0.992,0.488 -1.488,0.73 -0.492,0.243 -0.988,0.489 -1.484,0.731 -0.497,0.242 -0.993,0.488 -1.485,0.73 -0.496,0.246 -0.992,0.489 -1.488,0.731 -0.496,0.246 -0.992,0.488 -1.484,0.73 -0.497,0.246 -0.993,0.489 -1.489,0.735 -0.496,0.242 -0.992,0.484 -1.484,0.73 -0.496,0.242 -0.992,0.484 -1.488,0.731 -0.497,0.242 -0.989,0.488 -1.485,0.73 -0.496,0.242 -0.992,0.488 -1.488,0.731 -0.492,0.242 -0.988,0.488 -1.484,0.73 -0.497,0.246 -0.993,0.488 -1.489,0.73 -0.492,0.247 -0.988,0.489 -1.484,0.731 -0.496,0.246 -0.992,0.488 -1.484,0.73 -0.497,0.246 -0.993,0.489 -1.489,0.731 -0.496,0.246 -0.992,0.488 -1.484,0.734 -0.496,0.242 -0.992,0.485 -1.488,0.731 -0.497,0.242 -0.989,0.488 -1.485,0.73 -0.496,0.242 -0.992,0.488 -1.488,0.731 -0.496,0.242 -0.988,0.488 -1.484,0.73 -0.497,0.242 -0.993,0.488 -1.489,0.731 -0.496,0.242 -0.988,0.488 -1.484,0.73" /><path
         id="path122"
         style="fill:none;stroke:#000000;stroke-width:10;stroke-linecap:butt;stroke-linejoin:miter;stroke-miterlimit:10;stroke-dasharray:none;stroke-opacity:1"
         d="m 2318.04,16.7148 c -0.49,0.2422 -0.99,0.4883 -1.48,0.7344 -0.49,0.2461 -0.98,0.4883 -1.47,0.7344 -0.49,0.2461 -0.98,0.4883 -1.48,0.7344 -0.48,0.2461 -0.98,0.4883 -1.47,0.7343 -0.49,0.2461 -0.98,0.4922 -1.47,0.7344 -0.49,0.2461 -0.99,0.4922 -1.48,0.7344 -0.49,0.2461 -0.98,0.4922 -1.47,0.7383 -0.49,0.2422 -0.99,0.4883 -1.47,0.7344 -0.5,0.2421 -0.99,0.4882 -1.48,0.7343 -0.49,0.2422 -0.98,0.4883 -1.47,0.7344 -0.5,0.2422 -0.99,0.4883 -1.48,0.7344 -0.49,0.2461 -0.98,0.4883 -1.47,0.7344 -0.49,0.246 -0.99,0.4882 -1.47,0.7343 -0.5,0.2461 -0.99,0.4883 -1.48,0.7344 -0.49,0.2461 -0.98,0.4922 -1.47,0.7344 -0.5,0.2461 -0.99,0.4922 -1.48,0.7344 -0.49,0.246 -0.98,0.4921 -1.47,0.7343 -0.5,0.2461 -0.99,0.4922 -1.48,0.7383 -0.49,0.2422 -0.98,0.4883 -1.47,0.7344 -0.49,0.2422 -0.98,0.4883 -1.48,0.7344 -0.49,0.2461 -0.98,0.4882 -1.47,0.7343 -0.49,0.2461 -0.98,0.4883 -1.47,0.7344 -0.5,0.2461 -0.99,0.4922 -1.48,0.7344 -0.49,0.2461 -0.98,0.4922 -1.47,0.7344 -0.5,0.2461 -0.98,0.4921 -1.48,0.7343 -0.49,0.2461 -0.98,0.4922 -1.47,0.7344 -0.49,0.2461 -0.98,0.4922 -1.48,0.7383 -0.49,0.2422 -0.98,0.4883 -1.47,0.7344 -0.49,0.2422 -0.98,0.4882 -1.47,0.7343 -0.5,0.2422 -0.99,0.4883 -1.48,0.7344 -0.49,0.2461 -0.98,0.4883 -1.47,0.7344 -0.49,0.2461 -0.98,0.4883 -1.48,0.7344 -0.49,0.2461 -0.98,0.4922 -1.47,0.7343 -0.49,0.2461 -0.98,0.4922 -1.48,0.7344 -0.48,0.2461 -0.98,0.4922 -1.47,0.7344 -0.49,0.2461 -0.98,0.4922 -1.47,0.7383 -0.49,0.2422 -0.99,0.4883 -1.48,0.7343 -0.49,0.2422 -0.98,0.4883 -1.47,0.7344 -0.49,0.2422 -0.98,0.4883 -1.48,0.7344 -0.49,0.2461 -0.98,0.4883 -1.47,0.7344 -0.49,0.2461 -0.98,0.4883 -1.47,0.7343 -0.49,0.2461 -0.99,0.4883 -1.48,0.7344 -0.49,0.2461 -0.98,0.4883 -1.47,0.7344 -0.49,0.2461 -0.99,0.4922 -1.48,0.7344 -0.49,0.2461 -0.98,0.4922 -1.47,0.7343 -0.49,0.2461 -0.99,0.4922 -1.47,0.7383 -0.5,0.2422 -0.99,0.4883 -1.48,0.7344 -0.49,0.2422 -0.98,0.4883 -1.47,0.7344 -0.49,0.2461 -0.99,0.4883 -1.48,0.7344 -0.49,0.246 -0.98,0.4882 -1.47,0.7343 -0.49,0.2461 -0.99,0.4883 -1.47,0.7344 -0.5,0.2461 -0.99,0.4883 -1.48,0.7344 -0.49,0.2461 -0.98,0.4922 -1.47,0.7344 -0.5,0.246 -0.99,0.4921 -1.48,0.7343 -0.49,0.2461 -0.98,0.4922 -1.47,0.7344 -0.5,0.2461 -0.99,0.4922 -1.48,0.7383 -0.49,0.2422 -0.98,0.4883 -1.47,0.7344 -0.49,0.2421 -0.98,0.4882 -1.47,0.7343 -0.5,0.2461 -0.99,0.4883 -1.48,0.7344 -0.49,0.2461 -0.98,0.4883 -1.47,0.7344 -0.5,0.2461 -0.98,0.4883 -1.48,0.7344 -0.49,0.2461 -0.98,0.4882 -1.47,0.7343 -0.49,0.2461 -0.98,0.4922 -1.48,0.7344 -0.49,0.2461 -0.98,0.4922 -1.47,0.7344 -0.49,0.2461 -0.98,0.4922 -1.48,0.7344 -0.49,0.2461 -0.98,0.4921 -1.47,0.7382 -0.49,0.2422 -0.98,0.4883 -1.47,0.7344 -0.49,0.2422 -0.98,0.4883 -1.48,0.7344 -0.49,0.2422 -0.98,0.4883 -1.47,0.7344 -0.49,0.2461 -0.98,0.4882 -1.48,0.7343 -0.49,0.2461 -0.98,0.4883 -1.47,0.7344 -0.49,0.2461 -0.98,0.4922 -1.48,0.7344 -0.48,0.2461 -0.98,0.4922 -1.47,0.7344 -0.49,0.2461 -0.98,0.4922 -1.47,0.7343 -0.49,0.2461 -0.99,0.4922 -1.48,0.7344 -0.49,0.2461 -0.98,0.4922 -1.47,0.7383 -0.49,0.2422 -0.98,0.4883 -1.47,0.7344 -0.49,0.2422 -0.99,0.4883 -1.48,0.7343 -0.49,0.2461 -0.98,0.4883 -1.47,0.7344 -0.49,0.2461 -0.99,0.4883 -1.48,0.7344 -0.49,0.2461 -0.98,0.4883 -1.47,0.7344 -0.49,0.2461 -0.99,0.4922 -1.48,0.7343 -0.49,0.2461 -0.98,0.4922 -1.47,0.7344 -0.49,0.2461 -0.98,0.4922 -1.47,0.7344 -0.5,0.2461 -0.99,0.4922 -1.48,0.7383 -0.49,0.2422 -0.98,0.4883 -1.47,0.7344 -0.49,0.2421 -0.99,0.4882 -1.47,0.7343 -0.5,0.2422 -0.99,0.4883 -1.48,0.7344 -0.49,0.2461 -0.98,0.4883 -1.47,0.7344 -0.5,0.2461 -0.99,0.4883 -1.48,0.7344 -0.49,0.246 -0.98,0.4921 -1.47,0.7343 -0.5,0.2461 -0.99,0.4922 -1.48,0.7344 -0.49,0.2461 -0.98,0.4922 -1.47,0.7344 -0.49,0.2461 -0.98,0.4922 -1.48,0.7344 -0.49,0.246 -0.98,0.4921 -1.47,0.7382 -0.49,0.2422 -0.98,0.4883 -1.47,0.7344 -0.5,0.2422 -0.98,0.4883 -1.48,0.7344 -0.49,0.2422 -0.98,0.4883 -1.47,0.7344 -0.49,0.2461 -0.98,0.4882 -1.48,0.7343 -0.49,0.2461 -0.98,0.4883 -1.47,0.7344 -0.49,0.2461 -0.98,0.4922 -1.48,0.7344 -0.49,0.2461 -0.98,0.4922 -1.47,0.7344 -0.49,0.2461 -0.98,0.4921 -1.47,0.7343 -0.49,0.2461 -0.99,0.4922 -1.48,0.7344 -0.49,0.2461 -0.98,0.4922 -1.47,0.7344 -0.49,0.2461 -0.98,0.4922 -1.48,0.7383 -0.49,0.2422 -0.98,0.4882 -1.47,0.7343 -0.49,0.2422 -0.98,0.4883 -1.48,0.7344 -0.48,0.2461 -0.98,0.4883 -1.47,0.7344 -0.49,0.2461 -0.98,0.4883 -1.47,0.7344 -0.49,0.2461 -0.99,0.4922 -1.48,0.7343 -0.49,0.2461 -0.98,0.4922 -1.47,0.7344 -0.49,0.2461 -0.98,0.4922 -1.48,0.7344 -0.49,0.2461 -0.98,0.4918 -1.47,0.7378 -0.49,0.243 -0.98,0.489 -1.47,0.735 -0.49,0.242 -0.99,0.488 -1.48,0.734 -0.49,0.242 -0.98,0.489 -1.47,0.735 -0.49,0.246 -0.99,0.488 -1.47,0.734 -0.5,0.246 -0.99,0.488 -1.48,0.734 -0.49,0.246 -0.98,0.489 -1.47,0.735 -0.5,0.246 -0.99,0.488 -1.48,0.734 -0.49,0.246 -0.98,0.492 -1.47,0.734 -0.49,0.247 -0.99,0.493 -1.48,0.739 -0.49,0.242 -0.98,0.488 -1.47,0.734 -0.49,0.242 -0.98,0.488 -1.47,0.735 -0.5,0.242 -0.99,0.488 -1.48,0.734 -0.49,0.246 -0.98,0.488 -1.47,0.734 -0.5,0.246 -0.99,0.489 -1.48,0.735 -0.49,0.246 -0.98,0.488 -1.47,0.734 -0.49,0.246 -0.98,0.492 -1.48,0.734 -0.49,0.246 -0.98,0.493 -1.47,0.735 -0.49,0.246 -0.98,0.492 -1.47,0.734 -0.5,0.246 -0.99,0.492 -1.48,0.738 -0.49,0.243 -0.98,0.489 -1.47,0.735 -0.5,0.242 -0.98,0.488 -1.48,0.734 -0.49,0.242 -0.98,0.488 -1.47,0.735 -0.49,0.246 -0.98,0.488 -1.48,0.734 -0.49,0.246 -0.98,0.488 -1.47,0.734 -0.49,0.246 -0.98,0.489 -1.47,0.735 -0.5,0.246 -0.99,0.492 -1.48,0.734 -0.49,0.246 -0.98,0.492 -1.47,0.734 -0.49,0.247 -0.98,0.493 -1.48,0.735 -0.49,0.246 -0.98,0.492 -1.47,0.738 -0.49,0.242 -0.98,0.488 -1.48,0.734 -0.48,0.243 -0.98,0.489 -1.47,0.735 -0.49,0.242 -0.98,0.488 -1.47,0.734 -0.49,0.246 -0.99,0.488 -1.48,0.735 -0.49,0.246 -0.98,0.488 -1.47,0.734 -0.49,0.246 -0.98,0.488 -1.48,0.734 -0.49,0.246 -0.98,0.493 -1.47,0.735 -0.49,0.246 -0.98,0.492 -1.47,0.734 -0.49,0.246 -0.99,0.492 -1.48,0.734 -0.49,0.247 -0.98,0.493 -1.47,0.739 -0.49,0.242 -0.99,0.488 -1.48,0.734 -0.49,0.242 -0.98,0.488 -1.47,0.734 -0.49,0.247 -0.99,0.489 -1.47,0.735 -0.5,0.246 -0.99,0.488 -1.48,0.734 -0.49,0.246 -0.98,0.489 -1.47,0.735 -0.49,0.246 -0.99,0.488 -1.48,0.734 -0.49,0.246 -0.98,0.492 -1.47,0.734 -0.49,0.246 -0.98,0.493 -1.47,0.735 -0.5,0.246 -0.99,0.492 -1.48,0.738 -0.49,0.242 -0.98,0.488 -1.47,0.734 -0.5,0.243 -0.99,0.489 -1.48,0.735 -0.49,0.242 -0.98,0.488 -1.47,0.734 -0.5,0.242 -0.98,0.488 -1.48,0.735 -0.49,0.246 -0.98,0.488 -1.47,0.734 -0.49,0.246 -0.98,0.488 -1.47,0.734 -0.5,0.246 -0.99,0.489 -1.48,0.735 -0.49,0.246 -0.98,0.492 -1.47,0.734 -0.5,0.246 -0.98,0.492 -1.48,0.734 -0.49,0.246 -0.98,0.493 -1.47,0.735 -0.49,0.246 -0.98,0.492 -1.48,0.738 -0.49,0.242 -0.98,0.488 -1.47,0.734 -0.49,0.243 -0.98,0.489 -1.48,0.735 -0.49,0.246 -0.98,0.488 -1.47,0.734 -0.49,0.246 -0.98,0.488 -1.47,0.735 -0.49,0.246 -0.98,0.488 -1.48,0.734 -0.49,0.246 -0.98,0.488 -1.47,0.734 -0.49,0.246 -0.98,0.492 -1.48,0.735 -0.49,0.246 -0.98,0.492 -1.47,0.734 -0.49,0.246 -0.98,0.492 -1.48,0.738 -0.48,0.243 -0.98,0.489 -1.47,0.735 -0.49,0.242 -0.98,0.488 -1.47,0.734 -0.49,0.242 -0.99,0.488 -1.48,0.734 -0.49,0.247 -0.98,0.489 -1.47,0.735 -0.49,0.246 -0.98,0.488 -1.47,0.734 -0.49,0.246 -0.99,0.492 -1.48,0.735 -0.49,0.246 -0.98,0.492 -1.47,0.734 -0.49,0.246 -0.99,0.492 -1.48,0.734 -0.49,0.246 -0.98,0.493 -1.47,0.735 -0.49,0.246 -0.99,0.492 -1.47,0.738 -0.5,0.242 -0.99,0.488 -1.48,0.734 -0.49,0.243 -0.98,0.489 -1.47,0.735 -0.5,0.242 -0.99,0.488 -1.48,0.734 -0.49,0.242 -0.98,0.488 -1.47,0.734 -0.49,0.247 -0.99,0.489 -1.47,0.735 -0.5,0.246 -0.99,0.492 -1.48,0.734 -0.49,0.246 -0.98,0.492 -1.47,0.735 -0.5,0.246 -0.99,0.492 -1.48,0.734 -0.49,0.246 -0.98,0.492 -1.47,0.734 -0.5,0.246 -0.98,0.493 -1.48,0.739 -0.49,0.242 -0.98,0.488 -1.47,0.734 -0.49,0.242 -0.98,0.488 -1.48,0.734 -0.49,0.246 -0.98,0.489 -1.47,0.735 -0.49,0.246 -0.98,0.488 -1.47,0.734 -0.5,0.246 -0.98,0.488 -1.48,0.735 -0.49,0.246 -0.98,0.492 -1.47,0.734 -0.5,0.246 -0.98,0.492 -1.48,0.734 -0.49,0.246 -0.98,0.492 -1.47,0.735 -0.49,0.246 -0.98,0.492 -1.48,0.738 -0.49,0.242 -0.98,0.488 -1.47,0.734 -0.49,0.242 -0.98,0.489 -1.47,0.735 -0.49,0.242 -0.99,0.488 -1.48,0.734 -0.49,0.242 -0.98,0.488 -1.47,0.734 -0.49,0.247 -0.98,0.489 -1.48,0.735 -0.48,0.246 -0.98,0.492 -1.47,0.734 -0.49,0.246 -0.98,0.492 -1.48,0.735 -0.48,0.246 -0.98,0.492 -1.47,0.734 -0.49,0.246 -0.98,0.492 -1.47,0.734 -0.49,0.246 -0.99,0.492 -1.48,0.739 -0.49,0.242 -0.98,0.488 -1.47,0.734 -0.49,0.242 -0.98,0.488 -1.47,0.734 -0.5,0.243 -0.99,0.489 -1.48,0.735 -0.49,0.246 -0.98,0.488 -1.47,0.734 -0.49,0.246 -0.99,0.488 -1.48,0.734 -0.49,0.247 -0.98,0.493 -1.47,0.735 -0.49,0.246 -0.99,0.492 -1.47,0.734 -0.5,0.246 -0.99,0.492 -1.48,0.735 -0.49,0.246 -0.98,0.492 -1.47,0.738 -0.5,0.242 -0.99,0.488 -1.48,0.734 -0.49,0.242 -0.98,0.489 -1.47,0.735 -0.49,0.242 -0.99,0.488 -1.48,0.734 -0.49,0.246 -0.98,0.488 -1.47,0.734 -0.49,0.246 -0.98,0.489 -1.47,0.735 -0.5,0.246 -0.99,0.488 -1.48,0.734 -0.49,0.246 -0.98,0.488 -1.47,0.734 -0.5,0.247 -0.99,0.493 -1.48,0.735 -0.49,0.246 -0.98,0.492 -1.47,0.734 -0.49,0.246 -0.98,0.492 -1.48,0.739 -0.49,0.242 -0.98,0.488 -1.47,0.73 -0.49,0.246 -0.98,0.492 -1.47,0.738 -0.5,0.242 -0.99,0.489 -1.48,0.735 -0.49,0.246 -0.98,0.488 -1.47,0.734 -0.49,0.246 -0.98,0.488 -1.48,0.734 -0.49,0.246 -0.98,0.489 -1.47,0.735 -0.49,0.246 -0.98,0.492 -1.48,0.734 -0.49,0.246 -0.98,0.492 -1.47,0.735 -0.49,0.246 -0.98,0.492 -1.48,0.738 -0.48,0.242 -0.98,0.488 -1.47,0.73 -0.49,0.246 -0.98,0.492 -1.47,0.739 -0.49,0.242 -0.98,0.488 -1.48,0.734 -0.49,0.242 -0.98,0.488 -1.47,0.734 -0.49,0.242 -0.98,0.489 -1.48,0.735 -0.48,0.246 -0.98,0.488 -1.47,0.734 -0.49,0.246 -0.98,0.488 -1.47,0.734 -0.49,0.247 -0.99,0.489 -1.48,0.735 -0.49,0.246 -0.98,0.492 -1.47,0.734 -0.49,0.246 -0.99,0.492 -1.48,0.738 -0.49,0.243 -0.98,0.489 -1.47,0.731 -0.49,0.246 -0.98,0.492 -1.47,0.738 -0.49,0.242 -0.99,0.488 -1.48,0.735 -0.49,0.246 -0.98,0.488 -1.47,0.734 -0.49,0.246 -0.99,0.488 -1.47,0.734 -0.5,0.243 -0.99,0.489 -1.48,0.735 -0.49,0.246 -0.98,0.492 -1.47,0.734 -0.5,0.246 -0.99,0.492 -1.48,0.734 -0.49,0.247 -0.98,0.493 -1.47,0.735 -0.5,0.246 -0.99,0.492 -1.48,0.738 -0.49,0.242 -0.98,0.488 -1.47,0.734 -0.49,0.243 -0.98,0.489 -1.47,0.735 -0.5,0.242 -0.99,0.488 -1.48,0.734 -0.49,0.246 -0.98,0.489 -1.47,0.735 -0.5,0.246 -0.99,0.488 -1.48,0.734 -0.49,0.246 -0.98,0.488 -1.47,0.734 -0.5,0.246 -0.98,0.493 -1.48,0.735 -0.49,0.246 -0.98,0.492 -1.47,0.734 -0.49,0.246 -0.98,0.492 -1.48,0.734 -0.49,0.247 -0.98,0.493 -1.47,0.735 -0.49,0.246 -0.98,0.492 -1.47,0.738 -0.49,0.242 -0.98,0.488 -1.48,0.735 -0.49,0.242 -0.98,0.488 -1.47,0.734 -0.49,0.246 -0.98,0.488 -1.48,0.734 -0.49,0.246 -0.98,0.489 -1.47,0.735 -0.49,0.246 -0.98,0.488 -1.48,0.734 -0.48,0.246 -0.98,0.488 -1.47,0.734 -0.49,0.246 -0.98,0.493 -1.47,0.735 -0.49,0.246 -0.99,0.492 -1.48,0.738 -0.49,0.242 -0.98,0.488 -1.47,0.734 -0.49,0.243 -0.98,0.489 -1.48,0.735 -0.48,0.242 -0.98,0.488 -1.47,0.734 -0.49,0.246 -0.98,0.488 -1.47,0.735 -0.49,0.246 -0.99,0.488 -1.48,0.734 -0.49,0.246 -0.98,0.488 -1.47,0.734 -0.49,0.246 -0.99,0.492 -1.48,0.735 -0.49,0.246 -0.98,0.492 -1.47,0.734 -0.49,0.246 -0.98,0.492 -1.47,0.734 -0.5,0.247 -0.99,0.493 -1.48,0.735 -0.49,0.246 -0.98,0.492 -1.47,0.738 -0.49,0.242 -0.99,0.488 -1.48,0.734 -0.49,0.243 -0.98,0.489 -1.47,0.735 -0.49,0.246 -0.98,0.488 -1.47,0.734 -0.5,0.246 -0.99,0.488 -1.48,0.735 -0.49,0.246 -0.98,0.488 -1.47,0.734 -0.5,0.246 -0.99,0.492 -1.48,0.734 -0.49,0.246 -0.98,0.493 -1.47,0.735 -0.49,0.246 -0.98,0.492 -1.48,0.734 -0.49,0.246 -0.98,0.492 -1.47,0.734 -0.49,0.247 -0.98,0.493 -1.47,0.739 -0.5,0.242 -0.99,0.488 -1.48,0.734 -0.49,0.242 -0.98,0.488 -1.47,0.734 -0.5,0.247 -0.98,0.489 -1.48,0.735 -0.49,0.246 -0.98,0.488 -1.47,0.734 -0.49,0.246 -0.98,0.489 -1.48,0.735 -0.49,0.246 -0.98,0.488 -1.47,0.734 -0.49,0.246 -0.98,0.492 -1.47,0.734 -0.49,0.246 -0.99,0.493 -1.48,0.735 -0.49,0.246 -0.98,0.492 -1.47,0.738 -0.49,0.242 -0.98,0.488 -1.48,0.734 -0.49,0.243 -0.98,0.489 -1.47,0.735 -0.49,0.242 -0.98,0.488 -1.48,0.734 -0.48,0.242 -0.98,0.488 -1.47,0.735 -0.49,0.246 -0.98,0.488 -1.47,0.734 -0.49,0.246 -0.99,0.488 -1.48,0.734 -0.49,0.246 -0.98,0.492 -1.47,0.735 -0.49,0.246 -0.98,0.492 -1.48,0.734 -0.49,0.246 -0.98,0.492 -1.47,0.738 -0.49,0.242 -0.98,0.489 -1.47,0.735 -0.49,0.242 -0.99,0.488 -1.48,0.734 -0.49,0.242 -0.98,0.488 -1.47,0.734 -0.49,0.243 -0.99,0.489 -1.48,0.735 -0.49,0.246 -0.98,0.488 -1.47,0.734 -0.49,0.246 -0.98,0.488 -1.47,0.735 -0.5,0.246 -0.99,0.492 -1.48,0.734 -0.49,0.246 -0.98,0.492 -1.47,0.734 -0.49,0.246 -0.99,0.492 -1.48,0.735 -0.49,0.246 -0.98,0.492 -1.47,0.738 -0.49,0.242 -0.99,0.488 -1.47,0.734 -0.5,0.243 -0.99,0.489 -1.48,0.735 -0.49,0.242 -0.98,0.488 -1.47,0.734 -0.5,0.242 -0.99,0.488 -1.48,0.734 -0.49,0.247 -0.98,0.489 -1.47,0.735 -0.49,0.246 -0.99,0.488 -1.48,0.734 -0.49,0.246 -0.98,0.488 -1.47,0.735 -0.49,0.246 -0.98,0.492 -1.47,0.734 -0.5,0.246 -0.99,0.492 -1.48,0.738 -0.49,0.242 -0.98,0.489 -1.47,0.731 -0.5,0.246 -0.98,0.492 -1.48,0.738 -0.49,0.242 -0.98,0.488 -1.47,0.734 -0.49,0.246 -0.98,0.489 -1.48,0.735 -0.49,0.246 -0.98,0.488 -1.47,0.734 -0.49,0.246 -0.98,0.488 -1.47,0.734 -0.5,0.247 -0.99,0.489 -1.48,0.735 -0.49,0.246 -0.98,0.488 -1.47,0.734 -0.49,0.246 -0.98,0.492 -1.48,0.735 -0.49,0.246 -0.98,0.492 -1.47,0.734 -0.49,0.246 -0.98,0.492 -1.48,0.738 -0.49,0.242 -0.98,0.489 -1.47,0.735 -0.49,0.242 -0.98,0.488 -1.47,0.734 -0.49,0.242 -0.99,0.488 -1.48,0.734 -0.49,0.246 -0.98,0.489 -1.47,0.735 -0.49,0.246 -0.98,0.488 -1.48,0.734 -0.49,0.246 -0.98,0.488 -1.47,0.735 -0.49,0.246 -0.98,0.488 -1.48,0.734 -0.48,0.246 -0.98,0.492 -1.47,0.734 -0.49,0.246 -0.98,0.492 -1.47,0.735 -0.49,0.246 -0.99,0.492 -1.48,0.738 -0.49,0.242 -0.98,0.488 -1.47,0.734 -0.49,0.242 -0.99,0.489 -1.47,0.735 -0.5,0.246 -0.99,0.488 -1.48,0.734 -0.49,0.246 -0.98,0.488 -1.47,0.734 -0.49,0.247 -0.99,0.489 -1.48,0.735 -0.49,0.246 -0.98,0.492 -1.47,0.734 -0.49,0.246 -0.99,0.488 -1.47,0.735 -0.5,0.246 -0.99,0.492 -1.48,0.734 -0.49,0.246 -0.99,0.492 -1.47,0.738 -0.5,0.242 -0.99,0.488 -1.48,0.735 -0.49,0.242 -0.98,0.488 -1.47,0.734 -0.5,0.242 -0.99,0.488 -1.48,0.734 -0.49,0.246 -0.98,0.489 -1.47,0.735 -0.49,0.246 -0.98,0.488 -1.47,0.734 -0.5,0.246 -0.99,0.488 -1.48,0.734 -0.49,0.247 -0.98,0.489 -1.47,0.735 -0.5,0.246 -0.99,0.492 -1.48,0.734 -0.49,0.246 -0.98,0.492 -1.47,0.735 -0.49,0.246 -0.98,0.492 -1.48,0.734 -0.49,0.246 -0.98,0.492 -1.47,0.738 -0.49,0.242 -0.98,0.489 -1.48,0.735 -0.49,0.246 -0.98,0.488 -1.47,0.734 -0.49,0.242 -0.98,0.488 -1.47,0.734 -0.5,0.246 -0.98,0.489 -1.48,0.735 -0.49,0.246 -0.98,0.492 -1.47,0.734 -0.49,0.246 -0.98,0.492 -1.48,0.734 -0.49,0.247 -0.98,0.493 -1.47,0.735 -0.49,0.246 -0.98,0.492 -1.48,0.738 -0.48,0.242 -0.98,0.488 -1.47,0.731 -0.49,0.246 -0.98,0.492 -1.47,0.738" /><path
         id="path124"
         style="fill:#000000;fill-opacity:1;fill-rule:nonzero;stroke:none"
         d="m 2472.23,540.77 v -6.934 h -8.89 v -17.481 h -8.06 v 17.481 h -28.03 v 6.25 l 30.72,43.848 h 5.37 V 540.77 Z m -16.95,0 v 32.863 l -23.24,-32.863 z" /><path
         id="path126"
         style="fill:#000000;fill-opacity:1;fill-rule:nonzero;stroke:none"
         d="m 2484.23,593.98 v 2.051 c 4.95,-2.441 9.06,-5.32 12.35,-8.64 4.66,-4.754 8.26,-10.328 10.8,-16.723 2.53,-6.398 3.8,-13.063 3.8,-19.996 0,-10.094 -2.48,-19.297 -7.45,-27.613 -4.96,-8.317 -11.46,-14.266 -19.5,-17.848 v 1.809 c 4,2.246 7.3,5.281 9.89,9.105 2.58,3.824 4.51,8.691 5.76,14.602 1.25,5.906 1.88,12.066 1.88,18.48 0,6.934 -0.54,13.266 -1.61,18.992 -0.82,4.492 -1.83,8.09 -3.06,10.793 -1.21,2.699 -2.84,5.305 -4.85,7.813 -2.02,2.504 -4.69,4.898 -8.01,7.175 v 0" /><g
         transform="scale(0.997871,-1.00213)"
         id="g128"><path
           id="path130"
           style="fill:none;stroke:#000000;stroke-width:3.50001001;stroke-linecap:butt;stroke-linejoin:miter;stroke-miterlimit:10;stroke-dasharray:none;stroke-opacity:1"
           d="m 2545.37,-593.389 0.17,589.62748 m 73.53,-589.62748 0.17,589.62748 m 73.53,-589.62748 0.16,589.62748 m 73.54,-589.62748 0.14,521.6043 0.02,68.02318 m 73.54,-589.62748 0.16,589.62748 m 73.53,-589.62748 0.17,589.62748 m 73.53,-589.62748 0.17,589.62748 m 73.53,-589.62748 0.16,589.62748 m 73.54,-589.62748 0.16,589.62748 m -589.75,-589.62748 589.48,-0.113 m -589.48,73.811 589.48,-0.113 m -589.48,73.812 589.48,-0.113 m -589.48,73.812 589.48,-0.117 m -589.48,73.815 589.48,-0.117 m -589.48,73.816 589.48,-0.117 m -589.48,73.815 589.48,-0.117 m -589.48,73.8159 589.48,-0.1169 m -589.48,73.8155 589.48,-0.11694" /></g><g
         transform="scale(0.997871,-1.00213)"
         id="g132"><path
           id="path134"
           style="fill:none;stroke:#000000;stroke-width:7.50002003;stroke-linecap:butt;stroke-linejoin:miter;stroke-miterlimit:10;stroke-dasharray:none;stroke-opacity:1"
           d="M 2835.87,-6.77464 2836.35,-589.9" /></g><path
         id="path136"
         style="fill:#000000;fill-opacity:1;fill-rule:evenodd;stroke:none"
         d="m 2812.17,551.852 18.08,49.257 18,-49.285 c -10.64,7.879 -25.22,7.844 -36.08,0.028" /><g
         transform="scale(0.997871,-1.00213)"
         id="g138"><path
           id="path140"
           style="fill:none;stroke:#000000;stroke-width:7.50002003;stroke-linecap:butt;stroke-linejoin:miter;stroke-miterlimit:10;stroke-dasharray:none;stroke-opacity:1"
           d="m 2539.72,-296.396 583.41,0.483" /></g><path
         id="path142"
         style="fill:#000000;fill-opacity:1;fill-rule:evenodd;stroke:none"
         d="m 3077.35,314.766 49.04,-18.161 -49.07,-18.074 c 7.85,10.688 7.81,25.324 0.03,36.235" /><g
         transform="scale(0.997871,-1.00213)"
         id="g144"><path
           id="path146"
           style="fill:none;stroke:#000000;stroke-width:10;stroke-linecap:butt;stroke-linejoin:miter;stroke-miterlimit:10;stroke-dasharray:none;stroke-opacity:1"
           d="m 2910.05,-322.848 v 42.995" /></g><g
         transform="scale(0.997871,-1.00213)"
         id="g148"><path
           id="path150"
           style="fill:none;stroke:#000000;stroke-width:10;stroke-linecap:butt;stroke-linejoin:miter;stroke-miterlimit:10;stroke-dasharray:none;stroke-opacity:1"
           d="m 2858.04,-376.258 h -42.99" /></g><path
         id="path152"
         style="fill:#000000;fill-opacity:1;fill-rule:nonzero;stroke:none"
         d="m 2777.84,363.832 14.81,7.258 h 1.48 v -51.617 c 0,-3.426 0.14,-5.559 0.43,-6.399 0.28,-0.844 0.87,-1.488 1.77,-1.937 0.9,-0.453 2.72,-0.707 5.48,-0.77 v -1.668 h -22.9 v 1.668 c 2.88,0.063 4.73,0.309 5.57,0.746 0.84,0.434 1.42,1.02 1.75,1.758 0.33,0.734 0.5,2.938 0.5,6.602 v 33 c 0,4.445 -0.16,7.3 -0.45,8.562 -0.21,0.961 -0.6,1.668 -1.15,2.121 -0.55,0.449 -1.22,0.676 -2,0.676 -1.1,0 -2.65,-0.469 -4.62,-1.398 l -0.67,1.398" /><path
         id="path154"
         style="fill:#000000;fill-opacity:1;fill-rule:nonzero;stroke:none"
         d="m 2863.5,288.93 14.81,7.258 h 1.48 v -51.614 c 0,-3.426 0.14,-5.558 0.42,-6.402 0.29,-0.84 0.88,-1.488 1.78,-1.938 0.9,-0.449 2.72,-0.707 5.47,-0.765 v -1.668 h -22.89 v 1.668 c 2.88,0.058 4.73,0.308 5.57,0.742 0.84,0.437 1.42,1.023 1.75,1.758 0.33,0.738 0.49,2.937 0.49,6.605 v 32.996 c 0,4.45 -0.15,7.305 -0.45,8.567 -0.2,0.961 -0.59,1.668 -1.14,2.117 -0.55,0.449 -1.22,0.676 -2,0.676 -1.1,0 -2.65,-0.465 -4.62,-1.399 l -0.67,1.399" /><path
         id="path156"
         style="fill:#000000;fill-opacity:1;fill-rule:nonzero;stroke:none"
         d="m 3086.7,283.449 c 1.47,-1.562 2.58,-3.125 3.33,-4.687 0.54,-1.082 1.42,-3.922 2.65,-8.52 l 3.95,5.949 c 1.04,1.446 2.32,2.821 3.81,4.125 1.5,1.309 2.81,2.204 3.95,2.684 0.72,0.301 1.51,0.449 2.38,0.449 1.28,0 2.31,-0.344 3.07,-1.035 0.77,-0.691 1.15,-1.535 1.15,-2.523 0,-1.145 -0.22,-1.926 -0.67,-2.348 -0.84,-0.75 -1.8,-1.125 -2.88,-1.125 -0.63,0 -1.3,0.137 -2.02,0.406 -1.4,0.481 -2.35,0.719 -2.83,0.719 -0.71,0 -1.57,-0.418 -2.55,-1.262 -1.86,-1.562 -4.08,-4.582 -6.65,-9.058 l 3.68,-15.508 c 0.57,-2.375 1.05,-3.793 1.44,-4.258 0.39,-0.469 0.78,-0.699 1.17,-0.699 0.62,0 1.36,0.344 2.2,1.035 1.64,1.383 3.05,3.187 4.22,5.41 l 1.57,-0.812 c -1.89,-3.547 -4.28,-6.493 -7.19,-8.836 -1.64,-1.321 -3.03,-1.981 -4.17,-1.981 -1.67,0 -3.01,0.946 -3.99,2.84 -0.63,1.172 -1.93,6.219 -3.91,15.145 -4.67,-8.145 -8.41,-13.387 -11.22,-15.731 -1.83,-1.504 -3.59,-2.254 -5.3,-2.254 -1.19,0 -2.29,0.434 -3.27,1.305 -0.72,0.664 -1.08,1.551 -1.08,2.66 0,0.992 0.33,1.82 0.99,2.481 0.65,0.66 1.46,0.992 2.42,0.992 0.96,0 1.98,-0.481 3.05,-1.446 0.78,-0.687 1.38,-1.035 1.8,-1.035 0.36,0 0.82,0.242 1.39,0.723 1.4,1.141 3.32,3.605 5.74,7.391 2.43,3.789 4.02,6.523 4.76,8.203 -1.85,7.304 -2.85,11.168 -3.01,11.586 -0.68,1.953 -1.58,3.336 -2.69,4.148 -1.11,0.813 -2.74,1.215 -4.89,1.215 -0.69,0 -1.48,-0.027 -2.38,-0.09 v 1.625 l 11.98,2.117" /><path
         id="path158"
         style="fill:#000000;fill-opacity:1;fill-rule:nonzero;stroke:none"
         d="m 2784.74,590.348 c 1.02,-1.743 1.72,-3.371 2.11,-4.891 0.39,-1.516 0.78,-4.5 1.17,-8.945 l 1.97,-22.18 c 1.8,2.164 4.4,5.59 7.81,10.277 1.65,2.286 3.68,5.395 6.11,9.332 1.47,2.403 2.36,4.086 2.69,5.047 0.18,0.481 0.27,0.977 0.27,1.489 0,0.332 -0.1,0.601 -0.32,0.812 -0.21,0.211 -0.75,0.457 -1.63,0.742 -0.88,0.285 -1.62,0.813 -2.2,1.578 -0.59,0.766 -0.88,1.645 -0.88,2.637 0,1.234 0.36,2.223 1.08,2.977 0.72,0.75 1.62,1.125 2.69,1.125 1.32,0 2.44,-0.547 3.37,-1.645 0.93,-1.098 1.39,-2.605 1.39,-4.531 0,-2.371 -0.81,-5.086 -2.42,-8.137 -1.62,-3.047 -4.73,-7.73 -9.34,-14.039 -4.61,-6.312 -10.19,-13.195 -16.74,-20.648 -4.52,-5.137 -7.87,-8.375 -10.06,-9.711 -2.18,-1.34 -4.05,-2.008 -5.61,-2.008 -0.93,0 -1.74,0.351 -2.44,1.059 -0.71,0.707 -1.06,1.527 -1.06,2.457 0,1.171 0.49,2.238 1.46,3.203 0.97,0.961 2.03,1.441 3.16,1.441 0.6,0 1.1,-0.137 1.48,-0.406 0.25,-0.153 0.51,-0.578 0.79,-1.285 0.29,-0.707 0.55,-1.18 0.79,-1.418 0.15,-0.153 0.33,-0.227 0.53,-0.227 0.18,0 0.5,0.149 0.95,0.449 1.64,1.024 3.56,2.645 5.74,4.871 2.88,2.942 5,5.348 6.38,7.211 l -2.52,28.579 c -0.42,4.718 -1.04,7.589 -1.88,8.609 -0.84,1.023 -2.24,1.535 -4.22,1.535 -0.63,0 -1.75,-0.09 -3.37,-0.273 l -0.4,1.668 13.15,3.246" /><path
         id="path160"
         style="fill:#000000;fill-opacity:1;fill-rule:nonzero;stroke:none"
         d="m 2802.21,296.816 c 4.04,0 7.61,-0.878 10.73,-2.636 3.11,-1.758 5.55,-4.36 7.31,-7.797 1.77,-3.442 2.65,-7.012 2.65,-10.707 0,-6.551 -1.89,-13.426 -5.68,-20.625 -3.78,-7.196 -8.73,-12.688 -14.83,-16.477 -6.1,-3.785 -12.42,-5.679 -18.94,-5.679 -4.7,0 -8.63,1.046 -11.79,3.132 -3.15,2.09 -5.48,4.848 -7,8.274 -1.51,3.426 -2.27,6.746 -2.27,9.961 0,5.711 1.38,11.355 4.11,16.929 2.74,5.575 6.01,10.231 9.81,13.973 3.8,3.742 7.85,6.617 12.17,8.633 4.31,2.012 8.88,3.019 13.73,3.019 z m -1.53,-2.886 c -2.99,0 -5.91,-0.742 -8.77,-2.231 -2.86,-1.488 -5.7,-3.922 -8.51,-7.301 -2.81,-3.382 -5.34,-7.808 -7.58,-13.277 -2.76,-6.73 -4.13,-13.086 -4.13,-19.066 0,-4.27 1.09,-8.047 3.27,-11.336 2.19,-3.293 5.54,-4.938 10.06,-4.938 2.72,0 5.39,0.676 8.01,2.028 2.62,1.355 5.35,3.668 8.19,6.941 3.57,4.117 6.56,9.371 8.98,15.758 2.43,6.383 3.64,12.344 3.64,17.871 0,4.086 -1.1,7.703 -3.28,10.844 -2.18,3.136 -5.48,4.707 -9.88,4.707 v 0" /><path
         id="path162"
         style="fill:none;stroke:#000000;stroke-width:10;stroke-linecap:butt;stroke-linejoin:miter;stroke-miterlimit:10;stroke-dasharray:none;stroke-opacity:1"
         d="m 3124.01,6.10156 c -0.49,0.2461 -0.98,0.49219 -1.47,0.73438 -0.49,0.24609 -0.99,0.48828 -1.47,0.73437 -0.5,0.2461 -0.99,0.48828 -1.48,0.73438 -0.49,0.24609 -0.98,0.48828 -1.47,0.73437 -0.49,0.2461 -0.99,0.48828 -1.48,0.73438 -0.49,0.24216 -0.98,0.48826 -1.47,0.73436 -0.49,0.2422 -0.99,0.4883 -1.47,0.7344 -0.5,0.2422 -0.99,0.4883 -1.48,0.7344 -0.49,0.2422 -0.98,0.4882 -1.47,0.7304 -0.5,0.2461 -0.99,0.4922 -1.48,0.7344 -0.49,0.2461 -0.98,0.4922 -1.47,0.7344 -0.5,0.2461 -0.98,0.4922 -1.48,0.7344 -0.49,0.2461 -0.98,0.4882 -1.47,0.7343 -0.49,0.2461 -0.98,0.4883 -1.47,0.7344 -0.5,0.2422 -0.99,0.4883 -1.48,0.7344 -0.49,0.2422 -0.98,0.4883 -1.47,0.7344 -0.5,0.2421 -0.98,0.4882 -1.48,0.7304 -0.49,0.2461 -0.98,0.4922 -1.47,0.7344 -0.5,0.2461 -0.98,0.4922 -1.48,0.7344 -0.49,0.2461 -0.98,0.4922 -1.47,0.7344 -0.49,0.246 -0.98,0.4882 -1.48,0.7343 -0.49,0.2461 -0.98,0.4883 -1.47,0.7344 -0.49,0.2461 -0.98,0.4883 -1.47,0.7344 -0.49,0.2461 -0.98,0.4883 -1.48,0.7344 -0.49,0.2421 -0.98,0.4882 -1.47,0.7343 -0.49,0.2422 -0.98,0.4883 -1.48,0.7305 -0.49,0.2461 -0.98,0.4922 -1.47,0.7344 -0.49,0.2461 -0.98,0.4922 -1.48,0.7343 -0.48,0.2461 -0.98,0.4922 -1.47,0.7344 -0.49,0.2461 -0.98,0.4922 -1.47,0.7344 -0.49,0.2461 -0.99,0.4883 -1.48,0.7344 -0.49,0.2461 -0.98,0.4883 -1.47,0.7343 -0.49,0.2422 -0.98,0.4883 -1.48,0.7344 -0.48,0.2422 -0.98,0.4883 -1.47,0.7344 -0.49,0.2422 -0.98,0.4883 -1.47,0.7305 -0.49,0.2461 -0.99,0.4922 -1.48,0.7343 -0.49,0.2461 -0.98,0.4922 -1.47,0.7344 -0.49,0.2461 -0.99,0.4922 -1.48,0.7344 -0.49,0.2461 -0.98,0.4922 -1.47,0.7344 -0.49,0.2461 -0.98,0.4922 -1.47,0.7343 -0.5,0.2461 -0.99,0.4883 -1.48,0.7344 -0.49,0.2461 -0.98,0.4883 -1.47,0.7344 -0.49,0.2422 -0.99,0.4883 -1.47,0.7344 -0.5,0.2422 -0.99,0.4882 -1.48,0.7343 -0.49,0.2422 -0.98,0.4883 -1.47,0.7305 -0.5,0.2461 -0.99,0.4922 -1.48,0.7344 -0.49,0.2461 -0.98,0.4922 -1.47,0.7344 -0.5,0.2461 -0.99,0.4882 -1.48,0.7343 -0.49,0.2461 -0.98,0.4883 -1.47,0.7344 -0.49,0.2461 -0.98,0.4883 -1.48,0.7344 -0.49,0.2422 -0.98,0.4883 -1.47,0.7344 -0.49,0.2421 -0.98,0.4882 -1.47,0.7343 -0.5,0.2422 -0.98,0.4883 -1.48,0.7344 -0.49,0.2422 -0.98,0.4883 -1.47,0.7344 -0.49,0.2422 -0.98,0.4883 -1.48,0.7305 -0.49,0.246 -0.98,0.4882 -1.47,0.7343 -0.49,0.2461 -0.98,0.4883 -1.48,0.7344 -0.49,0.2461 -0.98,0.4922 -1.47,0.7344 -0.49,0.2461 -0.98,0.4883 -1.47,0.7344 -0.49,0.246 -0.99,0.4882 -1.48,0.7343 -0.49,0.2461 -0.98,0.4883 -1.47,0.7344 -0.49,0.2422 -0.98,0.4883 -1.48,0.7344 -0.49,0.2422 -0.98,0.4883 -1.47,0.7304 -0.49,0.2461 -0.98,0.4922 -1.48,0.7344 -0.48,0.2461 -0.98,0.4922 -1.47,0.7344 -0.49,0.2461 -0.98,0.4883 -1.47,0.7344 -0.49,0.2461 -0.99,0.4883 -1.48,0.7343 -0.49,0.2461 -0.98,0.4883 -1.47,0.7344 -0.49,0.2461 -0.98,0.4883 -1.48,0.7344 -0.49,0.2422 -0.98,0.4883 -1.47,0.7344 -0.49,0.2422 -0.98,0.4883 -1.47,0.7343 -0.49,0.2422 -0.99,0.4883 -1.48,0.7305 -0.49,0.2461 -0.98,0.4922 -1.47,0.7344 -0.49,0.2461 -0.99,0.4922 -1.48,0.7344 -0.49,0.2461 -0.98,0.4922 -1.47,0.7343 -0.49,0.2461 -0.98,0.4922 -1.47,0.7344 -0.5,0.2461 -0.99,0.4883 -1.48,0.7344 -0.49,0.2461 -0.98,0.4883 -1.47,0.7344 -0.49,0.2422 -0.99,0.4882 -1.48,0.7343 -0.49,0.2422 -0.98,0.4883 -1.47,0.7344 -0.49,0.2422 -0.99,0.4883 -1.47,0.7344 -0.5,0.2422 -0.99,0.4883 -1.48,0.7305 -0.49,0.2461 -0.98,0.4921 -1.47,0.7343 -0.5,0.2461 -0.99,0.4883 -1.48,0.7344 -0.49,0.2461 -0.98,0.4883 -1.47,0.7344 -0.5,0.2461 -0.98,0.4883 -1.48,0.7344 -0.49,0.2461 -0.98,0.4882 -1.47,0.7343 -0.49,0.2422 -0.98,0.4883 -1.47,0.7344 -0.5,0.2422 -0.99,0.4883 -1.48,0.7344 -0.49,0.2422 -0.98,0.4883 -1.47,0.7305 -0.5,0.246 -0.98,0.4921 -1.48,0.7343 -0.49,0.2461 -0.98,0.4922 -1.47,0.7344 -0.49,0.2461 -0.98,0.4922 -1.48,0.7344 -0.49,0.2461 -0.98,0.4883 -1.47,0.7344 -0.49,0.246 -0.98,0.4882 -1.48,0.7343 -0.48,0.2461 -0.98,0.4883 -1.47,0.7344 -0.49,0.2422 -0.98,0.4883 -1.47,0.7344 -0.49,0.2422 -0.98,0.4883 -1.48,0.7344 -0.49,0.2421 -0.98,0.4882 -1.47,0.7304 -0.49,0.2461 -0.98,0.4922 -1.48,0.7383 -0.48,0.2422 -0.98,0.4883 -1.47,0.7305 -0.49,0.2461 -0.98,0.4922 -1.47,0.7343 -0.49,0.2461 -0.99,0.4883 -1.48,0.7344 -0.49,0.2461 -0.98,0.4883 -1.47,0.7344 -0.49,0.2461 -0.99,0.4883 -1.48,0.7344 -0.49,0.2461 -0.98,0.4883 -1.47,0.7343 -0.49,0.2422 -0.98,0.4883 -1.47,0.7344 -0.49,0.2422 -0.99,0.4883 -1.48,0.7344 -0.49,0.2422 -0.98,0.4883 -1.47,0.7305 -0.49,0.2461 -0.99,0.4922 -1.48,0.7343 -0.49,0.2461 -0.98,0.4922 -1.47,0.7344 -0.49,0.2461 -0.99,0.4883 -1.47,0.7344 -0.5,0.2461 -0.99,0.4883 -1.48,0.7344 -0.49,0.2461 -0.98,0.4882 -1.47,0.7343 -0.5,0.2461 -0.99,0.4883 -1.48,0.7344 -0.49,0.2422 -0.98,0.4883 -1.47,0.7344 -0.49,0.2422 -0.99,0.4883 -1.47,0.7344 -0.5,0.2422 -0.99,0.4882 -1.48,0.7343 -0.49,0.2422 -0.98,0.4883 -1.47,0.7305 -0.5,0.2461 -0.99,0.4883 -1.48,0.7344 -0.49,0.2461 -0.98,0.4883 -1.47,0.7344 -0.5,0.2461 -0.98,0.4921 -1.48,0.7343 -0.49,0.2461 -0.98,0.4883 -1.47,0.7344 -0.49,0.2461 -0.98,0.4883 -1.48,0.7344 -0.49,0.2422 -0.98,0.4883 -1.47,0.7344 -0.49,0.2421 -0.98,0.4882 -1.47,0.7343 -0.5,0.2422 -0.99,0.4883 -1.48,0.7344 -0.49,0.2422 -0.98,0.4883 -1.47,0.7306 -0.49,0.246 -0.98,0.492 -1.48,0.734 -0.49,0.246 -0.98,0.492 -1.47,0.735 -0.49,0.246 -0.98,0.488 -1.48,0.734 -0.49,0.246 -0.98,0.488 -1.47,0.734 -0.49,0.246 -0.98,0.489 -1.47,0.735 -0.49,0.242 -0.99,0.488 -1.48,0.734 -0.49,0.242 -0.98,0.488 -1.47,0.735 -0.49,0.242 -0.98,0.488 -1.48,0.734 -0.48,0.242 -0.98,0.488 -1.47,0.73 -0.49,0.246 -0.98,0.493 -1.48,0.735 -0.48,0.246 -0.98,0.492 -1.47,0.734 -0.49,0.246 -0.98,0.488 -1.47,0.734 -0.49,0.247 -0.99,0.489 -1.48,0.735 -0.49,0.246 -0.98,0.488 -1.47,0.734 -0.49,0.246 -0.98,0.489 -1.47,0.735 -0.5,0.242 -0.99,0.488 -1.48,0.734 -0.49,0.242 -0.98,0.488 -1.47,0.734 -0.49,0.243 -0.99,0.489 -1.48,0.731 -0.49,0.246 -0.98,0.492 -1.47,0.734 -0.49,0.246 -0.99,0.492 -1.47,0.735 -0.5,0.246 -0.99,0.488 -1.48,0.734 -0.49,0.246 -0.98,0.488 -1.47,0.734 -0.5,0.246 -0.99,0.489 -1.48,0.735 -0.49,0.242 -0.98,0.488 -1.47,0.734 -0.49,0.242 -0.99,0.488 -1.48,0.734 -0.49,0.243 -0.98,0.489 -1.47,0.735 -0.49,0.242 -0.98,0.488 -1.47,0.734 -0.5,0.242 -0.99,0.488 -1.48,0.731 -0.49,0.246 -0.98,0.492 -1.47,0.734 -0.5,0.246 -0.99,0.488 -1.48,0.734 -0.49,0.247 -0.98,0.489 -1.47,0.735 -0.49,0.246 -0.98,0.488 -1.48,0.734 -0.49,0.242 -0.98,0.488 -1.47,0.735 -0.49,0.246 -0.98,0.488 -1.47,0.734 -0.5,0.242 -0.99,0.488 -1.48,0.734 -0.49,0.242 -0.98,0.489 -1.47,0.731 -0.5,0.246 -0.98,0.492 -1.48,0.734 -0.49,0.246 -0.98,0.492 -1.47,0.735 -0.49,0.246 -0.98,0.492 -1.48,0.734 -0.49,0.246 -0.98,0.488 -1.47,0.734 -0.49,0.246 -0.98,0.489 -1.47,0.735 -0.49,0.246 -0.99,0.488 -1.48,0.734 -0.49,0.242 -0.98,0.488 -1.47,0.734 -0.49,0.243 -0.98,0.489 -1.48,0.731 -0.49,0.246 -0.98,0.492 -1.47,0.734 -0.49,0.246 -0.98,0.492 -1.48,0.735 -0.48,0.246 -0.98,0.492 -1.47,0.734 -0.49,0.246 -0.98,0.492 -1.47,0.734 -0.49,0.246 -0.99,0.489 -1.48,0.735 -0.49,0.246 -0.98,0.488 -1.47,0.734 -0.49,0.246 -0.98,0.488 -1.48,0.734 -0.49,0.243 -0.98,0.489 -1.47,0.735 -0.49,0.242 -0.98,0.488 -1.47,0.734 -0.49,0.242 -0.99,0.489 -1.48,0.731 -0.49,0.246 -0.98,0.492 -1.47,0.734 -0.49,0.246 -0.99,0.492 -1.47,0.734 -0.5,0.247 -0.99,0.493 -1.48,0.735 -0.49,0.246 -0.98,0.488 -1.47,0.734 -0.5,0.246 -0.99,0.488 -1.48,0.735 -0.49,0.246 -0.98,0.488 -1.47,0.734 -0.49,0.242 -0.99,0.488 -1.48,0.734 -0.49,0.243 -0.98,0.489 -1.47,0.735 -0.49,0.242 -0.98,0.488 -1.47,0.734 -0.5,0.242 -0.99,0.488 -1.48,0.731 -0.49,0.246 -0.98,0.488 -1.47,0.734 -0.5,0.246 -0.99,0.488 -1.48,0.734 -0.49,0.246 -0.98,0.489 -1.47,0.735 -0.5,0.246 -0.98,0.488 -1.48,0.734 -0.49,0.246 -0.98,0.488 -1.47,0.734 -0.49,0.243 -0.98,0.489 -1.47,0.735 -0.5,0.242 -0.99,0.488 -1.48,0.734 -0.49,0.242 -0.98,0.488 -1.47,0.731 -0.5,0.246 -0.98,0.492 -1.48,0.734 -0.49,0.246 -0.98,0.492 -1.47,0.734 -0.49,0.246 -0.98,0.493 -1.48,0.735 -0.49,0.246 -0.98,0.492 -1.47,0.734 -0.49,0.246 -0.98,0.488 -1.48,0.735 -0.49,0.246 -0.98,0.488 -1.47,0.734 -0.49,0.246 -0.98,0.488 -1.47,0.734 -0.49,0.242 -0.98,0.489 -1.48,0.735 -0.49,0.242 -0.98,0.488 -1.47,0.734 -0.49,0.242 -0.98,0.488 -1.48,0.73 -0.48,0.247 -0.98,0.493 -1.47,0.735 -0.49,0.246 -0.98,0.492 -1.47,0.734 -0.49,0.246 -0.99,0.489 -1.48,0.735 -0.49,0.246 -0.98,0.488 -1.47,0.734 -0.49,0.246 -0.99,0.488 -1.48,0.734 -0.49,0.246 -0.98,0.489 -1.47,0.735 -0.49,0.242 -0.98,0.488 -1.47,0.734 -0.49,0.242 -0.99,0.488 -1.48,0.734 -0.49,0.243 -0.98,0.489 -1.47,0.731 -0.49,0.246 -0.99,0.492 -1.48,0.734 -0.49,0.246 -0.98,0.493 -1.47,0.735 -0.49,0.246 -0.99,0.488 -1.47,0.734 -0.5,0.246 -0.99,0.488 -1.48,0.734 -0.49,0.247 -0.98,0.489 -1.47,0.735 -0.5,0.246 -0.99,0.488 -1.48,0.734 -0.49,0.246 -0.98,0.488 -1.47,0.735 -0.49,0.242 -0.98,0.488 -1.47,0.73 -0.5,0.246 -0.99,0.492 -1.48,0.738 -0.49,0.243 -0.98,0.489 -1.47,0.731 -0.5,0.246 -0.99,0.492 -1.48,0.734 -0.49,0.246 -0.98,0.488 -1.47,0.735 -0.5,0.246 -0.98,0.488 -1.48,0.734 -0.49,0.246 -0.98,0.488 -1.47,0.734 -0.49,0.246 -0.98,0.489 -1.48,0.735 -0.49,0.242 -0.98,0.488 -1.47,0.734 -0.49,0.242 -0.98,0.488 -1.47,0.734 -0.5,0.243 -0.98,0.489 -1.48,0.731 -0.49,0.246 -0.98,0.492 -1.47,0.734 -0.49,0.246 -0.98,0.492 -1.48,0.735 -0.49,0.246 -0.98,0.492 -1.47,0.734 -0.49,0.246 -0.98,0.488 -1.48,0.734 -0.48,0.246 -0.98,0.489 -1.47,0.735 -0.49,0.246 -0.98,0.488 -1.47,0.734 -0.49,0.246 -0.99,0.488 -1.48,0.735 -0.49,0.242 -0.98,0.488 -1.47,0.734 -0.49,0.242 -0.98,0.488 -1.48,0.734 -0.48,0.242 -0.98,0.489 -1.47,0.731 -0.49,0.246 -0.98,0.492 -1.48,0.734 -0.48,0.246 -0.98,0.492 -1.47,0.734 -0.49,0.247 -0.98,0.489 -1.47,0.735 -0.49,0.246 -0.99,0.488 -1.48,0.734 -0.49,0.246 -0.98,0.489 -1.47,0.735 -0.49,0.246 -0.98,0.488 -1.47,0.734 -0.5,0.242 -0.99,0.488 -1.48,0.73 -0.49,0.247 -0.98,0.493 -1.47,0.735 -0.49,0.246 -0.99,0.492 -1.48,0.734 -0.49,0.246 -0.98,0.492 -1.47,0.735 -0.49,0.246 -0.99,0.492 -1.47,0.734 -0.5,0.246 -0.99,0.492 -1.48,0.734 -0.49,0.246 -0.98,0.489 -1.47,0.735 -0.5,0.246 -0.99,0.488 -1.48,0.734 -0.49,0.242 -0.98,0.488 -1.47,0.734 -0.49,0.243 -0.99,0.489 -1.48,0.735 -0.49,0.242 -0.98,0.488 -1.47,0.734 -0.49,0.242 -0.98,0.488 -1.47,0.731 -0.5,0.246 -0.99,0.492 -1.48,0.734 -0.49,0.246 -0.98,0.492 -1.47,0.734 -0.5,0.247 -0.99,0.493 -1.48,0.735 -0.49,0.246 -0.98,0.488 -1.47,0.734 -0.5,0.242 -0.98,0.488 -1.48,0.735 -0.49,0.242 -0.98,0.488 -1.47,0.734 -0.49,0.242 -0.98,0.488 -1.47,0.734 -0.5,0.242 -0.99,0.489 -1.48,0.735 -0.49,0.242 -0.98,0.488 -1.47,0.73 -0.49,0.246 -0.98,0.492 -1.48,0.735 -0.49,0.246 -0.98,0.492 -1.47,0.734 -0.49,0.246 -0.98,0.488 -1.48,0.734 -0.49,0.246 -0.98,0.489 -1.47,0.735 -0.49,0.246 -0.98,0.488 -1.48,0.734 -0.48,0.246 -0.98,0.488 -1.47,0.734 -0.49,0.243 -0.98,0.489 -1.47,0.735 -0.49,0.242 -0.98,0.488 -1.48,0.734 -0.49,0.242 -0.98,0.488 -1.47,0.731 -0.49,0.246 -0.98,0.492 -1.48,0.734 -0.48,0.246 -0.98,0.492 -1.47,0.734 -0.49,0.246 -0.98,0.489 -1.47,0.735 -0.49,0.246 -0.99,0.488 -1.48,0.734 -0.49,0.246 -0.98,0.488 -1.47,0.734 -0.49,0.243 -0.99,0.489 -1.47,0.735 -0.5,0.242 -0.99,0.488 -1.48,0.734 -0.49,0.242 -0.98,0.489 -1.47,0.735 -0.49,0.242 -0.99,0.488 -1.48,0.734 -0.49,0.242 -0.98,0.488 -1.47,0.73 -0.49,0.247 -0.99,0.493 -1.47,0.735 -0.5,0.246 -0.99,0.492 -1.48,0.734 -0.49,0.246 -0.98,0.488 -1.47,0.735 -0.5,0.246 -0.99,0.488 -1.48,0.734 -0.49,0.242 -0.98,0.488 -1.47,0.734 -0.5,0.243 -0.99,0.489 -1.48,0.735 -0.49,0.242 -0.98,0.488 -1.47,0.734 -0.49,0.242 -0.98,0.488 -1.47,0.731 -0.5,0.246 -0.99,0.492 -1.48,0.734 -0.49,0.246 -0.98,0.492 -1.47,0.734 -0.5,0.246 -0.99,0.489 -1.48,0.735 -0.49,0.246 -0.98,0.488 -1.47,0.734 -0.5,0.242 -0.98,0.488 -1.48,0.734 -0.49,0.247 -0.98,0.489 -1.47,0.735 -0.49,0.246 -0.98,0.488 -1.48,0.734 -0.49,0.242 -0.98,0.488 -1.47,0.735 -0.49,0.242 -0.98,0.488 -1.47,0.73 -0.49,0.246 -0.98,0.492 -1.48,0.734 -0.49,0.246 -0.98,0.493 -1.47,0.735 -0.49,0.246 -0.98,0.488 -1.48,0.734 -0.49,0.246 -0.98,0.488 -1.47,0.735 -0.49,0.246 -0.98,0.488 -1.48,0.734 -0.48,0.246 -0.98,0.488 -1.47,0.734 -0.49,0.246 -0.98,0.489 -1.47,0.735 -0.49,0.242 -0.99,0.488 -1.48,0.734 -0.49,0.242 -0.98,0.488 -1.47,0.73 -0.49,0.247 -0.98,0.493 -1.48,0.735 -0.48,0.246 -0.98,0.492 -1.47,0.734 -0.49,0.246 -0.98,0.492 -1.47,0.735 -0.49,0.246 -0.99,0.488 -1.48,0.734 -0.49,0.246 -0.98,0.488 -1.47,0.734 -0.49,0.246 -0.99,0.489 -1.47,0.735 -0.5,0.242 -0.99,0.488 -1.48,0.734 -0.49,0.242 -0.98,0.488 -1.47,0.734 -0.5,0.243 -0.99,0.489 -1.48,0.735 -0.49,0.242 -0.98,0.488 -1.47,0.73 -0.49,0.246 -0.99,0.493 -1.47,0.735 -0.5,0.246 -0.99,0.492 -1.48,0.734 -0.49,0.246 -0.98,0.492 -1.47,0.734 -0.5,0.247 -0.99,0.489 -1.48,0.735 -0.49,0.242 -0.98,0.488 -1.47,0.734 -0.5,0.242 -0.99,0.488 -1.48,0.735 -0.49,0.242 -0.98,0.488 -1.47,0.734 -0.49,0.242 -0.98,0.488 -1.48,0.734 -0.49,0.243 -0.98,0.489 -1.47,0.731 -0.49,0.246 -0.98,0.492 -1.47,0.734 -0.5,0.246 -0.99,0.492 -1.48,0.735 -0.49,0.246 -0.98,0.492 -1.47,0.734 -0.5,0.246 -0.98,0.488 -1.48,0.734 -0.49,0.246 -0.98,0.489 -1.47,0.735 -0.49,0.246 -0.98,0.488 -1.48,0.734 -0.49,0.242 -0.98,0.488 -1.47,0.734 -0.49,0.243 -0.98,0.489 -1.47,0.735 -0.5,0.242 -0.99,0.488 -1.48,0.73 -0.49,0.246 -0.98,0.492 -1.47,0.735 -0.49,0.246 -0.98,0.492 -1.48,0.734 -0.49,0.246 -0.98,0.492 -1.47,0.734 -0.49,0.246 -0.98,0.489 -1.48,0.735 -0.48,0.246 -0.98,0.488 -1.47,0.734 -0.49,0.246 -0.98,0.488 -1.47,0.735 -0.49,0.242 -0.99,0.488 -1.48,0.734 -0.49,0.242 -0.98,0.488 -1.47,0.73 -0.49,0.246 -0.98,0.493 -1.48,0.735 -0.49,0.246 -0.98,0.492 -1.47,0.734 -0.49,0.246 -0.98,0.492 -1.48,0.734 -0.48,0.247 -0.98,0.493 -1.47,0.735 -0.49,0.246 -0.98,0.488 -1.47,0.734 -0.49,0.246 -0.99,0.489 -1.48,0.735 -0.49,0.246 -0.98,0.488 -1.47,0.734 -0.49,0.242 -0.98,0.488 -1.47,0.734 -0.5,0.243 -0.99,0.489 -1.48,0.735 -0.49,0.242 -0.98,0.488 -1.47,0.73 -0.49,0.246 -0.99,0.492 -1.48,0.735 -0.49,0.246 -0.98,0.492 -1.47,0.734 -0.49,0.246 -0.99,0.492 -1.47,0.734 -0.5,0.246 -0.99,0.489 -1.48,0.735 -0.49,0.246 -0.98,0.488 -1.47,0.734 -0.5,0.246 -0.99,0.488 -1.48,0.734 -0.49,0.243 -0.98,0.489 -1.47,0.735 -0.49,0.242 -0.98,0.488 -1.48,0.734 -0.49,0.242 -0.98,0.488 -1.47,0.735 -0.49,0.242 -0.98,0.488 -1.47,0.73 -0.5,0.246 -0.99,0.492 -1.48,0.734 -0.49,0.247 -0.98,0.493 -1.47,0.735 -0.5,0.246 -0.98,0.488 -1.48,0.734 -0.49,0.246 -0.98,0.488 -1.47,0.735 -0.49,0.246 -0.98,0.488 -1.48,0.734 -0.49,0.246 -0.98,0.488 -1.47,0.734 -0.49,0.242 -0.98,0.489 -1.47,0.735 -0.5,0.242 -0.99,0.488 -1.48,0.734 -0.49,0.242 -0.98,0.488 -1.47,0.731 -0.49,0.246 -0.98,0.492 -1.48,0.734 -0.49,0.246 -0.98,0.492 -1.47,0.734 -0.49,0.246 -0.98,0.489 -1.48,0.735 -0.49,0.246 -0.98,0.488 -1.47,0.734 -0.49,0.246 -0.98,0.488 -1.48,0.734 -0.48,0.243 -0.98,0.489 -1.47,0.735 -0.49,0.242 -0.98,0.488 -1.47,0.734 -0.49,0.242 -0.98,0.488 -1.48,0.731 -0.49,0.246 -0.98,0.492 -1.47,0.734 -0.49,0.246 -0.98,0.492 -1.48,0.734 -0.48,0.246 -0.98,0.489 -1.47,0.735 -0.49,0.246 -0.98,0.488 -1.47,0.734 -0.49,0.246 -0.99,0.488 -1.48,0.734" /></g></g></svg>