<?xml version="1.0" encoding="UTF-8" standalone="no"?>
<svg
   xmlns:dc="http://purl.org/dc/elements/1.1/"
   xmlns:cc="http://creativecommons.org/ns#"
   xmlns:rdf="http://www.w3.org/1999/02/22-rdf-syntax-ns#"
   xmlns:svg="http://www.w3.org/2000/svg"
   xmlns="http://www.w3.org/2000/svg"
   viewBox="0 0 413.76001 80.546669"
   height="80.546669"
   width="413.76001"
   xml:space="preserve"
   id="svg2"
   version="1.1"><metadata
     id="metadata8"><rdf:RDF><cc:Work
         rdf:about=""><dc:format>image/svg+xml</dc:format><dc:type
           rdf:resource="http://purl.org/dc/dcmitype/StillImage" /></cc:Work></rdf:RDF></metadata><defs
     id="defs6" /><g
     transform="matrix(1.3333333,0,0,-1.3333333,0,80.546667)"
     id="g10"><g
       transform="scale(0.1)"
       id="g12"><path
         id="path14"
         style="fill:#000000;fill-opacity:1;fill-rule:nonzero;stroke:none"
         d="m 0,580.957 16.1133,7.863 h 1.6133 v -55.91 c 0,-3.711 0.1523,-6.023 0.4609,-6.933 0.3086,-0.911 0.9531,-1.61 1.9297,-2.098 0.9766,-0.488 2.9609,-0.766 5.957,-0.832 v -1.805 H 1.17188 v 1.805 c 3.125,0.066 5.14453,0.332 6.05468,0.805 0.91016,0.472 1.54688,1.109 1.90625,1.906 0.35547,0.797 0.53516,3.18 0.53516,7.152 v 35.742 c 0,4.817 -0.16406,7.911 -0.48828,9.278 -0.22656,1.043 -0.64453,1.808 -1.2461,2.297 -0.60156,0.488 -1.32421,0.73 -2.17187,0.73 -1.20313,0 -2.87891,-0.504 -5.027345,-1.512 L 0,580.957" /><path
         id="path16"
         style="fill:#000000;fill-opacity:1;fill-rule:nonzero;stroke:none"
         d="m 52.7383,599.625 v 2.051 c 4.9492,-2.442 9.0664,-5.324 12.3555,-8.645 4.6562,-4.754 8.25,-10.328 10.789,-16.722 2.5391,-6.399 3.8086,-13.063 3.8086,-19.996 0,-10.09 -2.4805,-19.297 -7.4453,-27.614 -4.9648,-8.316 -11.4648,-14.265 -19.5078,-17.844 v 1.805 c 4.0039,2.246 7.3008,5.281 9.8906,9.106 2.5859,3.824 4.5078,8.691 5.7617,14.601 1.2539,5.906 1.8789,12.067 1.8789,18.481 0,6.933 -0.539,13.265 -1.6132,18.996 -0.8125,4.492 -1.8282,8.086 -3.0508,10.789 -1.2188,2.703 -2.8399,5.305 -4.8594,7.812 -2.0156,2.508 -4.6875,4.899 -8.0078,7.18 v 0" /><path
         id="path18"
         style="fill:#000000;fill-opacity:1;fill-rule:nonzero;stroke:none"
         d="m 658.199,369.75 c 1.531,-1.625 2.688,-3.25 3.469,-4.875 0.562,-1.125 1.484,-4.078 2.766,-8.863 l 4.121,6.191 c 1.093,1.5 2.422,2.93 3.984,4.289 1.563,1.36 2.938,2.289 4.125,2.789 0.75,0.313 1.578,0.469 2.484,0.469 1.34,0 2.411,-0.359 3.207,-1.078 0.797,-0.719 1.196,-1.594 1.196,-2.625 0,-1.188 -0.235,-2 -0.703,-2.438 -0.875,-0.781 -1.875,-1.171 -3,-1.171 -0.653,0 -1.356,0.14 -2.106,0.421 -1.469,0.5 -2.453,0.75 -2.953,0.75 -0.75,0 -1.641,-0.437 -2.672,-1.312 -1.937,-1.625 -4.246,-4.77 -6.933,-9.426 l 3.839,-16.133 c 0.594,-2.468 1.094,-3.945 1.5,-4.429 0.407,-0.485 0.813,-0.727 1.219,-0.727 0.656,0 1.422,0.359 2.297,1.078 1.719,1.438 3.188,3.313 4.406,5.629 l 1.637,-0.848 c -1.965,-3.687 -4.465,-6.75 -7.496,-9.187 -1.719,-1.379 -3.172,-2.066 -4.356,-2.066 -1.75,0 -3.14,0.988 -4.171,2.957 -0.657,1.218 -2.016,6.468 -4.079,15.753 -4.871,-8.472 -8.777,-13.925 -11.714,-16.363 -1.903,-1.562 -3.746,-2.347 -5.528,-2.347 -1.25,0 -2.39,0.453 -3.422,1.363 -0.75,0.687 -1.125,1.609 -1.125,2.765 0,1.032 0.344,1.891 1.032,2.579 0.687,0.687 1.531,1.031 2.531,1.031 1,0 2.062,-0.5 3.187,-1.5 0.813,-0.719 1.438,-1.078 1.872,-1.078 0.375,0 0.859,0.25 1.453,0.75 1.468,1.187 3.468,3.75 6,7.691 2.531,3.938 4.183,6.781 4.964,8.531 -1.933,7.598 -2.98,11.618 -3.136,12.055 -0.719,2.031 -1.656,3.469 -2.813,4.313 -1.156,0.843 -2.859,1.265 -5.109,1.265 -0.719,0 -1.547,-0.031 -2.481,-0.094 v 1.688 l 12.508,2.203" /><path
         id="path20"
         style="fill:#000000;fill-opacity:1;fill-rule:nonzero;stroke:none"
         d="m 435.852,597.387 c 1.062,-1.817 1.796,-3.512 2.203,-5.09 0.406,-1.578 0.812,-4.68 1.218,-9.309 l 2.063,-23.07 c 1.875,2.25 4.59,5.816 8.152,10.691 1.719,2.375 3.844,5.614 6.375,9.707 1.528,2.5 2.465,4.25 2.809,5.254 0.187,0.5 0.281,1.016 0.281,1.547 0,0.344 -0.109,0.625 -0.328,0.844 -0.219,0.219 -0.789,0.477 -1.711,0.773 -0.918,0.297 -1.684,0.844 -2.293,1.641 -0.609,0.797 -0.914,1.711 -0.914,2.742 0,1.281 0.375,2.313 1.125,3.098 0.75,0.781 1.684,1.172 2.809,1.172 1.375,0 2.547,-0.571 3.515,-1.715 0.969,-1.141 1.453,-2.711 1.453,-4.711 0,-2.469 -0.843,-5.289 -2.531,-8.465 -1.687,-3.172 -4.933,-8.039 -9.746,-14.605 -4.812,-6.567 -10.637,-13.723 -17.477,-21.477 -4.718,-5.348 -8.218,-8.715 -10.496,-10.105 -2.281,-1.391 -4.234,-2.086 -5.859,-2.086 -0.969,0 -1.82,0.367 -2.555,1.101 -0.734,0.735 -1.101,1.586 -1.101,2.555 0,1.219 0.508,2.328 1.523,3.328 1.016,1.004 2.117,1.504 3.305,1.504 0.625,0 1.141,-0.141 1.547,-0.422 0.25,-0.156 0.523,-0.601 0.82,-1.34 0.297,-0.734 0.57,-1.226 0.82,-1.476 0.157,-0.157 0.344,-0.235 0.563,-0.235 0.187,0 0.516,0.157 0.984,0.469 1.715,1.063 3.715,2.754 5.996,5.066 3,3.063 5.219,5.563 6.653,7.504 l -2.621,29.727 c -0.438,4.91 -1.094,7.894 -1.969,8.957 -0.875,1.062 -2.344,1.594 -4.406,1.594 -0.657,0 -1.829,-0.094 -3.512,-0.282 l -0.422,1.735 13.727,3.379" /><path
         id="path22"
         style="fill:#000000;fill-opacity:1;fill-rule:nonzero;stroke:none"
         d="m 370.473,298.211 c 4.078,0 7.687,-0.883 10.832,-2.652 3.14,-1.77 5.601,-4.387 7.386,-7.848 1.782,-3.461 2.672,-7.051 2.672,-10.77 0,-6.589 -1.91,-13.507 -5.73,-20.75 -3.824,-7.242 -8.817,-12.765 -14.981,-16.574 -6.164,-3.808 -12.539,-5.715 -19.125,-5.715 -4.742,0 -8.707,1.051 -11.894,3.153 -3.188,2.101 -5.547,4.875 -7.07,8.32 -1.528,3.449 -2.29,6.789 -2.29,10.023 0,5.747 1.383,11.422 4.149,17.032 2.762,5.605 6.062,10.293 9.902,14.058 3.836,3.762 7.93,6.657 12.281,8.684 4.348,2.027 8.973,3.039 13.868,3.039 z m -1.543,-2.902 c -3.02,0 -5.973,-0.75 -8.86,-2.246 -2.886,-1.497 -5.746,-3.946 -8.586,-7.348 -2.839,-3.399 -5.394,-7.852 -7.66,-13.356 -2.781,-6.773 -4.168,-13.168 -4.168,-19.183 0,-4.293 1.102,-8.094 3.305,-11.406 2.207,-3.309 5.59,-4.965 10.152,-4.965 2.75,0 5.446,0.679 8.09,2.039 2.645,1.363 5.402,3.691 8.27,6.984 3.597,4.145 6.617,9.426 9.066,15.852 2.445,6.425 3.672,12.418 3.672,17.98 0,4.113 -1.106,7.75 -3.309,10.91 -2.207,3.157 -5.531,4.739 -9.972,4.739 v 0" /><path
         id="path24"
         style="fill:#000000;fill-opacity:1;fill-rule:nonzero;stroke:none"
         d="m 342.723,397.715 15.465,7.551 h 1.546 v -53.692 c 0,-3.566 0.149,-5.785 0.446,-6.66 0.297,-0.875 0.914,-1.547 1.851,-2.016 0.938,-0.468 2.84,-0.734 5.715,-0.796 v -1.735 h -23.898 v 1.735 c 3,0.062 4.937,0.32 5.812,0.773 0.875,0.453 1.485,1.063 1.828,1.828 0.344,0.766 0.516,3.055 0.516,6.871 v 34.324 c 0,4.625 -0.156,7.594 -0.469,8.911 -0.219,1 -0.617,1.734 -1.195,2.203 -0.578,0.468 -1.274,0.703 -2.086,0.703 -1.156,0 -2.766,-0.485 -4.828,-1.453 l -0.703,1.453" /><path
         id="path26"
         style="fill:none;stroke:#000000;stroke-width:10;stroke-linecap:butt;stroke-linejoin:miter;stroke-miterlimit:10;stroke-dasharray:none;stroke-opacity:1"
         d="M 470.926,328.586 V 285.242" /><path
         id="path28"
         style="fill:none;stroke:#000000;stroke-width:10;stroke-linecap:butt;stroke-linejoin:miter;stroke-miterlimit:10;stroke-dasharray:none;stroke-opacity:1"
         d="M 417.195,378.563 H 373.879" /><path
         id="path30"
         style="fill:#000000;fill-opacity:1;fill-rule:nonzero;stroke:none"
         d="m 487.191,291.773 15.461,7.551 h 1.547 v -53.691 c 0,-3.563 0.149,-5.785 0.446,-6.66 0.296,-0.875 0.914,-1.547 1.851,-2.016 0.938,-0.469 2.844,-0.734 5.715,-0.797 v -1.734 h -23.895 v 1.734 c 2.997,0.063 4.934,0.32 5.809,0.774 0.875,0.453 1.484,1.062 1.828,1.828 0.344,0.765 0.516,3.058 0.516,6.871 v 34.324 c 0,4.629 -0.156,7.598 -0.469,8.91 -0.219,1 -0.617,1.735 -1.195,2.203 -0.578,0.469 -1.274,0.703 -2.086,0.703 -1.156,0 -2.766,-0.484 -4.824,-1.453 l -0.704,1.453" /><path
         id="path32"
         style="fill:none;stroke:#000000;stroke-width:3.5;stroke-linecap:butt;stroke-linejoin:miter;stroke-miterlimit:10;stroke-dasharray:none;stroke-opacity:1"
         d="M 99.8906,601.746 100.055,7.23828 M 174.141,601.746 174.305,7.23828 M 248.395,601.746 248.559,7.23828 M 322.645,601.746 322.809,7.23828 M 396.895,601.746 397.059,7.23828 M 471.145,601.746 471.309,7.23828 M 545.398,601.746 545.563,7.23828 M 619.648,601.746 619.813,7.23828 M 693.898,601.746 694.063,7.23828 M 99.8906,601.746 692.813,601.168 M 99.8906,527.441 692.813,526.863 M 99.8906,453.137 692.813,452.559 M 99.8906,378.832 692.813,378.254 M 99.8906,304.527 692.813,303.949 M 99.8906,230.227 692.813,229.645 M 99.8906,155.922 692.813,155.34 M 99.8906,81.6172 692.813,81.0352 M 99.8906,7.3125 692.813,6.73047" /><path
         id="path34"
         style="fill:none;stroke:#000000;stroke-width:7.5;stroke-linecap:butt;stroke-linejoin:miter;stroke-miterlimit:10;stroke-dasharray:none;stroke-opacity:1"
         d="M 392.582,9.87891 393.07,595.285" /><path
         id="path36"
         style="fill:#000000;fill-opacity:1;fill-rule:evenodd;stroke:none"
         d="m 374.883,556.066 18.121,49.153 18.039,-49.18 c -10.668,7.863 -25.273,7.828 -36.16,0.027" /><path
         id="path38"
         style="fill:none;stroke:#000000;stroke-width:7.5;stroke-linecap:butt;stroke-linejoin:miter;stroke-miterlimit:10;stroke-dasharray:none;stroke-opacity:1"
         d="m 100.219,304.492 586.719,-0.484" /><path
         id="path40"
         style="fill:#000000;fill-opacity:1;fill-rule:evenodd;stroke:none"
         d="m 647.719,322.191 49.152,-18.121 -49.183,-18.039 c 7.863,10.668 7.832,25.274 0.031,36.16" /><path
         id="path42"
         style="fill:#000000;fill-opacity:1;fill-rule:nonzero;stroke:none"
         d="m 838.457,531.789 -4.641,-12.746 h -39.062 v 1.809 c 11.492,10.48 19.582,19.043 24.269,25.683 4.688,6.641 7.032,12.711 7.032,18.211 0,4.199 -1.289,7.652 -3.86,10.352 -2.57,2.703 -5.648,4.054 -9.226,4.054 -3.258,0 -6.18,-0.953 -8.766,-2.855 -2.59,-1.906 -4.5,-4.695 -5.738,-8.375 h -1.805 c 0.813,6.023 2.903,10.644 6.274,13.867 3.367,3.223 7.574,4.832 12.621,4.832 5.371,0 9.855,-1.723 13.453,-5.176 3.597,-3.449 5.394,-7.519 5.394,-12.207 0,-3.351 -0.781,-6.703 -2.343,-10.058 -2.411,-5.274 -6.317,-10.856 -11.719,-16.746 -8.106,-8.856 -13.168,-14.192 -15.184,-16.016 h 17.285 c 3.516,0 5.981,0.129 7.395,0.391 1.418,0.261 2.695,0.789 3.836,1.586 1.137,0.796 2.129,1.929 2.976,3.394 h 1.809" /><path
         id="path44"
         style="fill:#000000;fill-opacity:1;fill-rule:nonzero;stroke:none"
         d="m 849.738,596.672 v 2.051 c 4.95,-2.442 9.067,-5.325 12.352,-8.645 4.656,-4.754 8.254,-10.328 10.793,-16.723 2.539,-6.398 3.808,-13.062 3.808,-19.996 0,-10.089 -2.484,-19.293 -7.445,-27.613 -4.965,-8.316 -11.469,-14.266 -19.508,-17.844 v 1.805 c 4.004,2.246 7.301,5.281 9.887,9.106 2.59,3.828 4.508,8.691 5.762,14.601 1.254,5.906 1.879,12.066 1.879,18.481 0,6.933 -0.536,13.265 -1.61,18.996 -0.812,4.492 -1.832,8.086 -3.051,10.789 -1.222,2.703 -2.839,5.304 -4.859,7.812 -2.019,2.508 -4.687,4.899 -8.008,7.18 v 0" /><g
         transform="scale(1.01353,-0.986467)"
         id="g46"><path
           id="path48"
           style="fill:none;stroke:#000000;stroke-width:3.50031996;stroke-linecap:butt;stroke-linejoin:miter;stroke-miterlimit:10;stroke-dasharray:none;stroke-opacity:1"
           d="m 892.816,-603.048 -1.299,585.7277 m 74.646,-585.7277 -1.299,585.7277 m 74.646,-585.7277 -1.29,585.7277 m 74.64,-585.7277 -1.3,585.7277 m 74.64,-585.7277 -1.29,585.7277 m 74.65,-585.7277 -1.3,585.7277 m 74.64,-585.7277 -1.29,585.7277 m 74.64,-585.7277 -1.29,585.7277 m 74.64,-585.7277 -1.3,585.7277 M 892.816,-603.048 H 1478.62 M 892.816,-529.7 h 585.804 m -585.804,73.348 h 585.804 m -585.804,73.348 h 585.804 m -585.804,73.349 h 585.804 m -585.804,73.348 h 585.804 m -585.804,73.348 h 585.804 m -585.804,73.3478 h 585.804 m -585.804,73.3481 h 585.804" /></g><g
         transform="scale(1.01353,-0.986467)"
         id="g50"><path
           id="path52"
           style="fill:none;stroke:#000000;stroke-width:7.50068998;stroke-linecap:butt;stroke-linejoin:miter;stroke-miterlimit:10;stroke-dasharray:none;stroke-opacity:1"
           d="m 1189.28,-23.1849 0.48,-579.5861" /></g><path
         id="path54"
         style="fill:#000000;fill-opacity:1;fill-rule:evenodd;stroke:none"
         d="m 1187.43,555.922 18.37,48.492 18.28,-48.523 c -10.81,7.757 -25.62,7.726 -36.65,0.031" /><g
         transform="scale(1.01353,-0.986467)"
         id="g56"><path
           id="path58"
           style="fill:none;stroke:#000000;stroke-width:7.50068998;stroke-linecap:butt;stroke-linejoin:miter;stroke-miterlimit:10;stroke-dasharray:none;stroke-opacity:1"
           d="m 895.121,-310.028 576.899,0.479" /></g><path
         id="path60"
         style="fill:#000000;fill-opacity:1;fill-rule:evenodd;stroke:none"
         d="m 1452.18,323.301 49.82,-17.879 -49.85,-17.797 c 7.98,10.527 7.94,24.934 0.03,35.676" /><g
         transform="scale(1.01353,-0.986467)"
         id="g62"><path
           id="path64"
           style="fill:none;stroke:#000000;stroke-width:10.00090027;stroke-linecap:butt;stroke-linejoin:miter;stroke-miterlimit:10;stroke-dasharray:none;stroke-opacity:1"
           d="m 1258.15,-331.906 v 42.786" /></g><g
         transform="scale(1.01353,-0.986467)"
         id="g66"><path
           id="path68"
           style="fill:none;stroke:#000000;stroke-width:10.00090027;stroke-linecap:butt;stroke-linejoin:miter;stroke-miterlimit:10;stroke-dasharray:none;stroke-opacity:1"
           d="m 1210.67,-385.954 h -42.79" /></g><path
         id="path70"
         style="fill:#000000;fill-opacity:1;fill-rule:nonzero;stroke:none"
         d="m 1151.62,396.434 15.68,7.445 h 1.57 V 350.93 c 0,-3.516 0.15,-5.703 0.45,-6.567 0.3,-0.863 0.93,-1.527 1.88,-1.988 0.95,-0.461 2.88,-0.727 5.8,-0.785 v -1.711 h -24.24 v 1.711 c 3.04,0.058 5.01,0.316 5.9,0.762 0.88,0.445 1.5,1.046 1.85,1.804 0.35,0.754 0.52,3.012 0.52,6.774 v 33.851 c 0,4.563 -0.16,7.492 -0.48,8.785 -0.22,0.989 -0.62,1.711 -1.21,2.176 -0.58,0.461 -1.29,0.692 -2.11,0.692 -1.17,0 -2.8,-0.477 -4.89,-1.434 l -0.72,1.434" /><path
         id="path72"
         style="fill:#000000;fill-opacity:1;fill-rule:nonzero;stroke:none"
         d="m 1281.05,273.621 15.68,7.445 h 1.56 v -52.949 c 0,-3.515 0.16,-5.707 0.46,-6.57 0.3,-0.859 0.92,-1.524 1.87,-1.988 0.95,-0.461 2.88,-0.723 5.8,-0.786 v -1.71 h -24.23 v 1.71 c 3.04,0.063 5,0.317 5.89,0.766 0.88,0.445 1.5,1.047 1.85,1.801 0.35,0.758 0.52,3.015 0.52,6.777 v 33.848 c 0,4.566 -0.15,7.492 -0.47,8.789 -0.22,0.984 -0.62,1.711 -1.21,2.172 -0.59,0.465 -1.29,0.695 -2.12,0.695 -1.17,0 -2.8,-0.48 -4.89,-1.433 l -0.71,1.433" /><path
         id="path74"
         style="fill:#000000;fill-opacity:1;fill-rule:nonzero;stroke:none"
         d="m 1473.29,284.668 c 1.55,-1.602 2.73,-3.203 3.52,-4.809 0.57,-1.109 1.5,-4.023 2.8,-8.738 l 4.18,6.102 c 1.11,1.48 2.46,2.89 4.04,4.234 1.59,1.34 2.98,2.258 4.19,2.75 0.75,0.309 1.59,0.461 2.51,0.461 1.36,0 2.45,-0.352 3.26,-1.063 0.8,-0.707 1.21,-1.57 1.21,-2.589 0,-1.172 -0.24,-1.973 -0.71,-2.403 -0.89,-0.773 -1.9,-1.156 -3.04,-1.156 -0.67,0 -1.38,0.137 -2.14,0.414 -1.49,0.492 -2.49,0.742 -3,0.742 -0.76,0 -1.66,-0.433 -2.7,-1.297 -1.97,-1.601 -4.31,-4.699 -7.04,-9.293 l 3.9,-15.91 c 0.6,-2.433 1.11,-3.89 1.52,-4.371 0.41,-0.476 0.82,-0.715 1.23,-0.715 0.67,0 1.44,0.356 2.33,1.063 1.74,1.418 3.23,3.269 4.47,5.551 l 1.66,-0.832 c -1.99,-3.641 -4.53,-6.661 -7.6,-9.067 -1.74,-1.355 -3.22,-2.035 -4.42,-2.035 -1.77,0 -3.18,0.973 -4.23,2.914 -0.66,1.203 -2.04,6.383 -4.13,15.539 -4.94,-8.355 -8.9,-13.734 -11.88,-16.14 -1.93,-1.54 -3.8,-2.313 -5.61,-2.313 -1.26,0 -2.42,0.449 -3.47,1.344 -0.75,0.676 -1.14,1.586 -1.14,2.726 0,1.02 0.36,1.868 1.05,2.543 0.7,0.68 1.55,1.02 2.57,1.02 1.01,0 2.09,-0.496 3.23,-1.481 0.82,-0.711 1.45,-1.062 1.9,-1.062 0.38,0 0.87,0.246 1.47,0.738 1.49,1.172 3.52,3.699 6.08,7.586 2.57,3.883 4.25,6.688 5.04,8.414 -1.96,7.492 -3.03,11.453 -3.18,11.887 -0.73,2.004 -1.68,3.422 -2.86,4.254 -1.17,0.832 -2.89,1.25 -5.17,1.25 -0.73,0 -1.57,-0.031 -2.52,-0.094 v 1.664 l 12.68,2.172" /><path
         id="path76"
         style="fill:#000000;fill-opacity:1;fill-rule:nonzero;stroke:none"
         d="m 1238.55,581.691 c 1.08,-1.785 1.82,-3.461 2.24,-5.015 0.41,-1.559 0.82,-4.617 1.23,-9.18 l 2.09,-22.754 c 1.9,2.223 4.66,5.735 8.27,10.543 1.74,2.344 3.89,5.535 6.46,9.574 1.55,2.465 2.5,4.192 2.85,5.18 0.19,0.492 0.29,1.004 0.29,1.527 0,0.34 -0.12,0.618 -0.34,0.832 -0.22,0.215 -0.8,0.469 -1.73,0.762 -0.94,0.293 -1.71,0.832 -2.33,1.621 -0.62,0.785 -0.93,1.688 -0.93,2.703 0,1.266 0.39,2.282 1.14,3.051 0.76,0.774 1.71,1.156 2.85,1.156 1.4,0 2.59,-0.562 3.57,-1.687 0.98,-1.125 1.47,-2.672 1.47,-4.649 0,-2.433 -0.86,-5.214 -2.57,-8.343 -1.7,-3.129 -5,-7.934 -9.88,-14.407 -4.87,-6.476 -10.78,-13.535 -17.72,-21.179 -4.78,-5.274 -8.33,-8.594 -10.64,-9.969 -2.32,-1.371 -4.3,-2.055 -5.94,-2.055 -0.98,0 -1.85,0.36 -2.59,1.086 -0.75,0.723 -1.12,1.563 -1.12,2.52 0,1.203 0.51,2.297 1.55,3.285 1.02,0.984 2.14,1.477 3.35,1.477 0.63,0 1.15,-0.137 1.56,-0.415 0.26,-0.156 0.53,-0.593 0.84,-1.316 0.3,-0.726 0.57,-1.211 0.83,-1.457 0.15,-0.156 0.35,-0.234 0.57,-0.234 0.19,0 0.52,0.156 0.99,0.465 1.75,1.046 3.77,2.71 6.09,4.992 3.04,3.023 5.29,5.488 6.74,7.402 l -2.66,29.316 c -0.44,4.84 -1.11,7.786 -1.99,8.832 -0.89,1.051 -2.38,1.575 -4.47,1.575 -0.67,0 -1.85,-0.094 -3.56,-0.278 l -0.43,1.711 13.92,3.328" /><path
         id="path78"
         style="fill:#000000;fill-opacity:1;fill-rule:nonzero;stroke:none"
         d="m 1175.73,296.754 c 4.09,0 7.7,-0.859 10.85,-2.582 3.15,-1.723 5.61,-4.27 7.4,-7.641 1.78,-3.371 2.67,-6.867 2.67,-10.488 0,-6.418 -1.91,-13.152 -5.74,-20.203 -3.82,-7.055 -8.82,-12.434 -14.99,-16.145 -6.17,-3.707 -12.56,-5.562 -19.15,-5.562 -4.75,0 -8.72,1.023 -11.91,3.07 -3.19,2.043 -5.55,4.746 -7.08,8.102 -1.53,3.355 -2.29,6.609 -2.29,9.761 0,5.594 1.38,11.122 4.15,16.582 2.77,5.461 6.07,10.024 9.91,13.692 3.84,3.664 7.95,6.484 12.3,8.457 4.36,1.973 8.99,2.957 13.88,2.957 z m -1.54,-2.824 c -3.02,0 -5.98,-0.731 -8.87,-2.188 -2.89,-1.457 -5.75,-3.844 -8.6,-7.152 -2.84,-3.313 -5.4,-7.649 -7.67,-13.008 -2.78,-6.594 -4.17,-12.82 -4.17,-18.68 0,-4.179 1.1,-7.882 3.32,-11.109 2.2,-3.223 5.59,-4.836 10.16,-4.836 2.75,0 5.45,0.664 8.1,1.988 2.64,1.325 5.4,3.594 8.28,6.801 3.6,4.035 6.62,9.18 9.07,15.438 2.45,6.254 3.68,12.089 3.68,17.507 0,4.004 -1.11,7.547 -3.31,10.622 -2.22,3.078 -5.54,4.617 -9.99,4.617 v 0" /><path
         id="path80"
         style="fill:#000000;fill-opacity:1;fill-rule:nonzero;stroke:none"
         d="m 1607.63,572.66 c 1.89,4.457 4.27,7.903 7.16,10.324 2.87,2.426 6.46,3.641 10.76,3.641 5.31,0 9.38,-1.727 12.21,-5.176 2.15,-2.574 3.22,-5.324 3.22,-8.254 0,-4.816 -3.03,-9.797 -9.08,-14.941 4.07,-1.594 7.14,-3.871 9.23,-6.836 2.08,-2.961 3.12,-6.445 3.12,-10.449 0,-5.727 -1.82,-10.692 -5.47,-14.891 -4.75,-5.469 -11.64,-8.203 -20.65,-8.203 -4.46,0 -7.5,0.551 -9.11,1.66 -1.61,1.106 -2.41,2.293 -2.41,3.563 0,0.945 0.38,1.773 1.14,2.492 0.77,0.715 1.69,1.074 2.76,1.074 0.81,0 1.65,-0.133 2.49,-0.391 0.55,-0.164 1.81,-0.757 3.76,-1.785 1.95,-1.023 3.31,-1.633 4.05,-1.828 1.21,-0.359 2.49,-0.539 3.86,-0.539 3.32,0 6.21,1.285 8.67,3.859 2.46,2.571 3.68,5.614 3.68,9.129 0,2.575 -0.56,5.079 -1.7,7.52 -0.85,1.824 -1.78,3.207 -2.79,4.152 -1.4,1.301 -3.32,2.481 -5.76,3.539 -2.44,1.059 -4.93,1.586 -7.47,1.586 h -1.56 v 1.465 c 2.57,0.328 5.15,1.254 7.74,2.785 2.59,1.528 4.47,3.367 5.64,5.516 1.17,2.148 1.76,4.508 1.76,7.082 0,3.351 -1.06,6.062 -3.15,8.129 -2.1,2.066 -4.72,3.101 -7.84,3.101 -5.05,0 -9.26,-2.703 -12.65,-8.105 l -1.61,0.781" /><path
         id="path82"
         style="fill:#000000;fill-opacity:1;fill-rule:nonzero;stroke:none"
         d="m 1661.09,596.672 v 2.051 c 4.95,-2.442 9.07,-5.325 12.36,-8.645 4.65,-4.75 8.25,-10.324 10.78,-16.723 2.54,-6.394 3.81,-13.062 3.81,-19.996 0,-10.089 -2.48,-19.293 -7.44,-27.609 -4.97,-8.316 -11.47,-14.266 -19.51,-17.848 v 1.805 c 4,2.246 7.3,5.285 9.89,9.109 2.59,3.825 4.5,8.692 5.76,14.598 1.25,5.91 1.88,12.07 1.88,18.481 0,6.933 -0.54,13.265 -1.61,18.996 -0.81,4.492 -1.83,8.089 -3.05,10.789 -1.23,2.703 -2.84,5.308 -4.86,7.812 -2.02,2.508 -4.69,4.903 -8.01,7.18 v 0" /><g
         transform="scale(0.997307,-1.00269)"
         id="g84"><path
           id="path86"
           style="fill:none;stroke:#000000;stroke-width:3.50001001;stroke-linecap:butt;stroke-linejoin:miter;stroke-miterlimit:10;stroke-dasharray:none;stroke-opacity:1"
           d="m 1723.31,-594.847 0.16,589.96172 m 73.57,-589.96172 0.17,589.96172 m 73.57,-589.96172 0.17,589.96172 m 73.58,-589.96172 0.14,521.8989 0.02,68.06282 m 73.57,-589.96172 0.17,589.96172 m 73.58,-589.96172 0.16,589.96172 m 73.57,-589.96172 0.17,589.96172 m 73.57,-589.96172 0.17,589.96172 m 73.58,-589.96172 0.16,589.96172 m -590.08,-589.96172 589.8,-0.117 m -589.8,73.856 589.8,-0.113 m -589.8,73.852 589.8,-0.113 m -589.8,73.855 589.8,-0.116 m -589.8,73.855 589.8,-0.116 m -589.8,73.855 589.8,-0.113 m -589.8,73.856 589.8,-0.117 m -589.8,73.856 589.8,-0.1169 m -589.8,73.85577 589.8,-0.11298" /></g><g
         transform="scale(0.997307,-1.00269)"
         id="g88"><path
           id="path90"
           style="fill:none;stroke:#000000;stroke-width:7.50003004;stroke-linecap:butt;stroke-linejoin:miter;stroke-miterlimit:10;stroke-dasharray:none;stroke-opacity:1"
           d="m 2013.96,-7.9006 0.48,-583.4564" /></g><path
         id="path92"
         style="fill:#000000;fill-opacity:1;fill-rule:evenodd;stroke:none"
         d="m 1990.89,553.625 18.07,49.285 17.99,-49.316 c -10.64,7.886 -25.21,7.851 -36.06,0.031" /><g
         transform="scale(0.997307,-1.00269)"
         id="g94"><path
           id="path96"
           style="fill:none;stroke:#000000;stroke-width:7.50003004;stroke-linecap:butt;stroke-linejoin:miter;stroke-miterlimit:10;stroke-dasharray:none;stroke-opacity:1"
           d="m 1717.65,-297.687 583.74,0.484" /></g><path
         id="path98"
         style="fill:#000000;fill-opacity:1;fill-rule:evenodd;stroke:none"
         d="m 2256.08,316.238 49.02,-18.168 -49.05,-18.09 c 7.84,10.7 7.81,25.34 0.03,36.258" /><g
         transform="scale(0.997307,-1.00269)"
         id="g100"><path
           id="path102"
           style="fill:none;stroke:#000000;stroke-width:10;stroke-linecap:butt;stroke-linejoin:miter;stroke-miterlimit:10;stroke-dasharray:none;stroke-opacity:1"
           d="m 2088.19,-324.154 v 43.017" /></g><g
         transform="scale(0.997307,-1.00269)"
         id="g104"><path
           id="path106"
           style="fill:none;stroke:#000000;stroke-width:10;stroke-linecap:butt;stroke-linejoin:miter;stroke-miterlimit:10;stroke-dasharray:none;stroke-opacity:1"
           d="m 2036.15,-377.592 h -43.02" /></g><path
         id="path108"
         style="fill:#000000;fill-opacity:1;fill-rule:nonzero;stroke:none"
         d="m 1956.55,365.367 14.81,7.266 h 1.48 v -51.672 c 0,-3.43 0.14,-5.566 0.43,-6.406 0.28,-0.844 0.87,-1.492 1.77,-1.942 0.9,-0.453 2.72,-0.707 5.48,-0.765 v -1.672 h -22.89 v 1.672 c 2.87,0.058 4.72,0.304 5.56,0.742 0.84,0.437 1.42,1.023 1.75,1.762 0.33,0.734 0.49,2.941 0.49,6.609 v 33.035 c 0,4.453 -0.14,7.313 -0.45,8.574 -0.21,0.961 -0.59,1.668 -1.14,2.121 -0.55,0.454 -1.22,0.676 -2,0.676 -1.11,0 -2.64,-0.465 -4.62,-1.398 l -0.67,1.398" /><path
         id="path110"
         style="fill:#000000;fill-opacity:1;fill-rule:nonzero;stroke:none"
         d="m 2042.2,290.383 14.82,7.265 h 1.48 v -51.671 c 0,-3.43 0.14,-5.567 0.43,-6.407 0.28,-0.843 0.87,-1.492 1.77,-1.941 0.89,-0.453 2.72,-0.707 5.48,-0.77 v -1.668 h -22.9 v 1.668 c 2.88,0.063 4.73,0.309 5.57,0.746 0.84,0.438 1.42,1.024 1.75,1.762 0.33,0.735 0.49,2.938 0.49,6.61 v 33.035 c 0,4.453 -0.15,7.308 -0.45,8.574 -0.21,0.961 -0.59,1.668 -1.14,2.121 -0.55,0.449 -1.22,0.676 -2,0.676 -1.11,0 -2.65,-0.465 -4.62,-1.399 l -0.68,1.399" /><path
         id="path112"
         style="fill:#000000;fill-opacity:1;fill-rule:nonzero;stroke:none"
         d="m 2269.1,268.461 c 1.53,-1.633 2.68,-3.262 3.45,-4.891 0.57,-1.129 1.49,-4.09 2.76,-8.882 l 4.12,6.203 c 1.09,1.504 2.41,2.937 3.97,4.3 1.56,1.364 2.93,2.297 4.12,2.797 0.75,0.313 1.57,0.473 2.47,0.473 1.34,0 2.41,-0.363 3.21,-1.082 0.79,-0.723 1.19,-1.598 1.19,-2.633 0,-1.191 -0.24,-2.004 -0.7,-2.445 -0.88,-0.781 -1.87,-1.172 -2.99,-1.172 -0.66,0 -1.36,0.141 -2.11,0.422 -1.46,0.5 -2.45,0.75 -2.95,0.75 -0.74,0 -1.63,-0.438 -2.66,-1.317 -1.93,-1.629 -4.24,-4.777 -6.92,-9.445 l 3.83,-16.168 c 0.6,-2.476 1.09,-3.957 1.5,-4.441 0.41,-0.489 0.81,-0.731 1.22,-0.731 0.65,0 1.41,0.36 2.29,1.082 1.71,1.442 3.18,3.321 4.39,5.641 l 1.64,-0.848 c -1.97,-3.695 -4.46,-6.765 -7.48,-9.211 -1.72,-1.379 -3.16,-2.066 -4.35,-2.066 -1.74,0 -3.13,0.984 -4.16,2.961 -0.65,1.219 -2.01,6.484 -4.07,15.789 -4.86,-8.488 -8.75,-13.957 -11.68,-16.402 -1.9,-1.567 -3.74,-2.348 -5.52,-2.348 -1.25,0 -2.38,0.453 -3.41,1.359 -0.75,0.692 -1.13,1.617 -1.13,2.774 0,1.035 0.35,1.898 1.03,2.586 0.69,0.691 1.53,1.035 2.53,1.035 0.99,0 2.06,-0.5 3.18,-1.504 0.81,-0.723 1.43,-1.082 1.87,-1.082 0.37,0 0.85,0.25 1.45,0.754 1.46,1.187 3.45,3.758 5.98,7.707 2.53,3.949 4.18,6.801 4.96,8.554 -1.94,7.614 -2.98,11.641 -3.14,12.079 -0.71,2.039 -1.65,3.48 -2.8,4.324 -1.15,0.847 -2.85,1.269 -5.1,1.269 -0.71,0 -1.54,-0.031 -2.48,-0.093 v 1.691 l 12.49,2.211" /><path
         id="path114"
         style="fill:#000000;fill-opacity:1;fill-rule:nonzero;stroke:none"
         d="m 1961.04,584.77 c 1.05,-1.817 1.79,-3.516 2.19,-5.098 0.41,-1.582 0.81,-4.692 1.22,-9.332 l 2.05,-23.121 c 1.88,2.254 4.59,5.828 8.14,10.715 1.71,2.382 3.83,5.625 6.36,9.73 1.52,2.504 2.46,4.262 2.8,5.262 0.19,0.504 0.28,1.019 0.28,1.551 0,0.347 -0.11,0.628 -0.33,0.847 -0.21,0.219 -0.78,0.477 -1.7,0.774 -0.92,0.3 -1.68,0.847 -2.29,1.648 -0.61,0.797 -0.91,1.715 -0.91,2.746 0,1.285 0.37,2.321 1.12,3.106 0.74,0.781 1.68,1.172 2.8,1.172 1.37,0 2.54,-0.571 3.51,-1.715 0.97,-1.145 1.45,-2.719 1.45,-4.723 0,-2.477 -0.84,-5.305 -2.53,-8.484 -1.68,-3.18 -4.92,-8.059 -9.72,-14.641 -4.8,-6.578 -10.61,-13.754 -17.44,-21.527 -4.7,-5.36 -8.19,-8.735 -10.47,-10.129 -2.27,-1.395 -4.22,-2.09 -5.84,-2.09 -0.97,0 -1.82,0.367 -2.55,1.105 -0.73,0.735 -1.1,1.59 -1.1,2.559 0,1.223 0.51,2.336 1.52,3.34 1.01,1 2.11,1.504 3.3,1.504 0.62,0 1.14,-0.141 1.54,-0.426 0.25,-0.156 0.52,-0.602 0.82,-1.34 0.29,-0.734 0.57,-1.226 0.81,-1.48 0.16,-0.157 0.35,-0.235 0.57,-0.235 0.18,0 0.51,0.157 0.98,0.473 1.71,1.062 3.71,2.754 5.98,5.074 2.99,3.07 5.21,5.578 6.64,7.52 l -2.62,29.8 c -0.43,4.918 -1.09,7.911 -1.96,8.977 -0.87,1.066 -2.34,1.598 -4.39,1.598 -0.66,0 -1.83,-0.094 -3.51,-0.282 l -0.42,1.739 13.7,3.383" /><path
         id="path116"
         style="fill:#000000;fill-opacity:1;fill-rule:nonzero;stroke:none"
         d="m 1980.92,298.277 c 4.04,0 7.62,-0.879 10.72,-2.64 3.12,-1.758 5.56,-4.36 7.32,-7.805 1.77,-3.445 2.65,-7.019 2.65,-10.719 0,-6.558 -1.89,-13.441 -5.68,-20.644 -3.78,-7.207 -8.73,-12.707 -14.83,-16.496 -6.11,-3.789 -12.42,-5.688 -18.94,-5.688 -4.7,0 -8.63,1.047 -11.78,3.137 -3.17,2.09 -5.5,4.851 -7.01,8.281 -1.51,3.43 -2.26,6.754 -2.26,9.973 0,5.719 1.36,11.367 4.1,16.945 2.74,5.582 6.01,10.246 9.81,13.992 3.8,3.746 7.86,6.625 12.16,8.641 4.31,2.016 8.89,3.023 13.74,3.023 z m -1.53,-2.886 c -2.99,0 -5.91,-0.746 -8.77,-2.235 -2.86,-1.488 -5.69,-3.926 -8.51,-7.312 -2.81,-3.383 -5.34,-7.813 -7.59,-13.289 -2.75,-6.739 -4.13,-13.102 -4.13,-19.09 0,-4.27 1.1,-8.055 3.28,-11.348 2.19,-3.297 5.54,-4.941 10.06,-4.941 2.72,0 5.39,0.676 8.01,2.031 2.62,1.352 5.35,3.668 8.19,6.949 3.56,4.121 6.55,9.379 8.98,15.77 2.42,6.394 3.63,12.359 3.63,17.894 0,4.094 -1.09,7.711 -3.27,10.856 -2.19,3.14 -5.48,4.715 -9.88,4.715 v 0" /><path
         id="path118"
         style="fill:none;stroke:#000000;stroke-width:10;stroke-linecap:butt;stroke-linejoin:miter;stroke-miterlimit:10;stroke-dasharray:none;stroke-opacity:1"
         d="m 393.055,599.887 c -0.188,-0.492 -0.375,-0.985 -0.563,-1.473 -0.187,-0.492 -0.379,-0.984 -0.566,-1.476 -0.188,-0.489 -0.375,-0.981 -0.563,-1.473 -0.187,-0.492 -0.379,-0.981 -0.566,-1.473 -0.188,-0.492 -0.375,-0.984 -0.563,-1.472 -0.187,-0.493 -0.379,-0.985 -0.566,-1.473 -0.188,-0.492 -0.375,-0.984 -0.563,-1.477 -0.187,-0.488 -0.378,-0.98 -0.566,-1.472 -0.187,-0.493 -0.375,-0.981 -0.562,-1.473 -0.188,-0.492 -0.379,-0.984 -0.567,-1.473 -0.187,-0.492 -0.375,-0.984 -0.562,-1.472 -0.188,-0.492 -0.379,-0.985 -0.567,-1.477 -0.187,-0.488 -0.375,-0.98 -0.562,-1.473 -0.188,-0.492 -0.379,-0.98 -0.567,-1.472 -0.187,-0.492 -0.375,-0.985 -0.562,-1.473 -0.188,-0.492 -0.379,-0.984 -0.567,-1.472 -0.187,-0.493 -0.375,-0.985 -0.562,-1.477 -0.191,-0.488 -0.379,-0.981 -0.566,-1.473 -0.188,-0.492 -0.375,-0.98 -0.563,-1.472 -0.187,-0.493 -0.379,-0.985 -0.566,-1.473 -0.188,-0.492 -0.375,-0.984 -0.563,-1.473 -0.187,-0.492 -0.379,-0.984 -0.566,-1.476 -0.188,-0.492 -0.375,-0.981 -0.563,-1.473 -0.187,-0.492 -0.379,-0.98 -0.566,-1.473 -0.188,-0.492 -0.375,-0.984 -0.563,-1.472 -0.187,-0.492 -0.379,-0.985 -0.566,-1.477 -0.188,-0.488 -0.375,-0.98 -0.563,-1.472 -0.187,-0.489 -0.378,-0.981 -0.566,-1.473 -0.187,-0.492 -0.375,-0.981 -0.562,-1.473 -0.188,-0.492 -0.379,-0.984 -0.567,-1.472 -0.187,-0.493 -0.375,-0.985 -0.562,-1.477 -0.188,-0.488 -0.379,-0.98 -0.567,-1.473 -0.187,-0.492 -0.375,-0.98 -0.562,-1.472 -0.192,-0.492 -0.379,-0.985 -0.567,-1.473 -0.187,-0.492 -0.375,-0.984 -0.562,-1.473 -0.192,-0.492 -0.379,-0.984 -0.567,-1.472 -0.187,-0.492 -0.375,-0.985 -0.562,-1.477 -0.192,-0.488 -0.379,-0.98 -0.567,-1.472 -0.187,-0.493 -0.375,-0.981 -0.562,-1.473 -0.191,-0.492 -0.379,-0.984 -0.566,-1.473 -0.188,-0.492 -0.375,-0.984 -0.563,-1.476 -0.191,-0.489 -0.379,-0.981 -0.566,-1.473 -0.188,-0.492 -0.375,-0.98 -0.563,-1.473 -0.191,-0.492 -0.379,-0.98 -0.566,-1.472 -0.188,-0.492 -0.375,-0.985 -0.563,-1.473 -0.187,-0.492 -0.379,-0.984 -0.566,-1.477 -0.188,-0.488 -0.375,-0.98 -0.563,-1.472 -0.187,-0.492 -0.379,-0.981 -0.566,-1.473 -0.188,-0.492 -0.375,-0.98 -0.563,-1.472 -0.191,-0.493 -0.378,-0.985 -0.566,-1.473 -0.187,-0.492 -0.375,-0.985 -0.562,-1.477 -0.188,-0.488 -0.379,-0.98 -0.567,-1.472 -0.187,-0.493 -0.375,-0.981 -0.562,-1.473 -0.192,-0.492 -0.379,-0.984 -0.567,-1.473 -0.187,-0.492 -0.375,-0.984 -0.562,-1.472 -0.192,-0.493 -0.375,-0.985 -0.567,-1.477 -0.187,-0.488 -0.375,-0.98 -0.562,-1.473 -0.188,-0.492 -0.379,-0.98 -0.567,-1.472 -0.187,-0.492 -0.375,-0.985 -0.562,-1.473 -0.191,-0.492 -0.379,-0.984 -0.566,-1.473 -0.188,-0.492 -0.375,-0.984 -0.563,-1.476 -0.191,-0.488 -0.379,-0.981 -0.566,-1.473 -0.188,-0.492 -0.375,-0.98 -0.563,-1.472 -0.187,-0.493 -0.379,-0.985 -0.566,-1.473 -0.188,-0.492 -0.375,-0.984 -0.563,-1.477 -0.191,-0.488 -0.379,-0.98 -0.566,-1.472 -0.188,-0.489 -0.375,-0.981 -0.563,-1.473 -0.191,-0.492 -0.379,-0.98 -0.566,-1.473 -0.188,-0.492 -0.375,-0.984 -0.567,-1.472 -0.183,-0.492 -0.375,-0.985 -0.562,-1.477 -0.188,-0.488 -0.375,-0.98 -0.563,-1.472 -0.191,-0.489 -0.378,-0.981 -0.566,-1.473 -0.187,-0.492 -0.375,-0.981 -0.562,-1.473 -0.188,-0.492 -0.379,-0.984 -0.567,-1.472 -0.187,-0.493 -0.375,-0.985 -0.562,-1.473 -0.188,-0.492 -0.379,-0.984 -0.567,-1.477 -0.187,-0.488 -0.375,-0.98 -0.562,-1.472 -0.188,-0.492 -0.379,-0.981 -0.567,-1.473 -0.187,-0.492 -0.375,-0.984 -0.562,-1.473 -0.192,-0.492 -0.379,-0.984 -0.567,-1.476 -0.187,-0.488 -0.375,-0.981 -0.562,-1.473 -0.191,-0.488 -0.379,-0.98 -0.566,-1.472 -0.188,-0.493 -0.375,-0.981 -0.563,-1.473 -0.191,-0.492 -0.379,-0.985 -0.566,-1.473 -0.188,-0.492 -0.375,-0.984 -0.563,-1.476 -0.187,-0.489 -0.379,-0.981 -0.566,-1.473 -0.188,-0.488 -0.375,-0.98 -0.563,-1.473 -0.187,-0.492 -0.379,-0.984 -0.566,-1.472 -0.188,-0.493 -0.375,-0.985 -0.563,-1.473 -0.191,-0.492 -0.379,-0.984 -0.566,-1.477 -0.188,-0.488 -0.375,-0.98 -0.563,-1.472 -0.191,-0.492 -0.378,-0.981 -0.566,-1.473 -0.187,-0.492 -0.375,-0.984 -0.562,-1.473 -0.192,-0.492 -0.379,-0.984 -0.567,-1.472 -0.187,-0.492 -0.375,-0.985 -0.562,-1.477 -0.192,-0.488 -0.379,-0.98 -0.567,-1.472 -0.187,-0.493 -0.375,-0.981 -0.562,-1.473 -0.192,-0.492 -0.379,-0.981 -0.567,-1.473 -0.187,-0.492 -0.375,-0.984 -0.562,-1.472 -0.192,-0.493 -0.379,-0.985 -0.567,-1.477 -0.187,-0.488 -0.375,-0.98 -0.562,-1.473 -0.192,-0.492 -0.379,-0.98 -0.567,-1.472 -0.187,-0.492 -0.375,-0.985 -0.562,-1.473 -0.191,-0.492 -0.379,-0.984 -0.566,-1.476 -0.188,-0.489 -0.375,-0.981 -0.563,-1.473 -0.191,-0.488 -0.379,-0.981 -0.566,-1.473 -0.188,-0.492 -0.375,-0.98 -0.563,-1.472 -0.191,-0.493 -0.379,-0.985 -0.566,-1.473 -0.188,-0.492 -0.375,-0.984 -0.563,-1.477 -0.191,-0.488 -0.379,-0.98 -0.566,-1.472 -0.188,-0.489 -0.375,-0.981 -0.563,-1.473 -0.191,-0.492 -0.379,-0.98 -0.566,-1.473 -0.188,-0.492 -0.375,-0.98 -0.563,-1.472 -0.187,-0.492 -0.378,-0.985 -0.566,-1.477 -0.187,-0.488 -0.375,-0.98 -0.562,-1.472 -0.192,-0.489 -0.379,-0.981 -0.567,-1.473 -0.187,-0.492 -0.375,-0.981 -0.562,-1.473 -0.192,-0.492 -0.379,-0.984 -0.567,-1.472 -0.187,-0.493 -0.375,-0.985 -0.562,-1.477 -0.188,-0.488 -0.379,-0.98 -0.567,-1.473 -0.187,-0.488 -0.375,-0.98 -0.562,-1.472 -0.188,-0.493 -0.379,-0.981 -0.567,-1.473 -0.187,-0.492 -0.375,-0.984 -0.562,-1.473 -0.191,-0.492 -0.379,-0.984 -0.566,-1.476 -0.188,-0.488 -0.375,-0.981 -0.567,-1.473 -0.187,-0.492 -0.375,-0.98 -0.562,-1.473 -0.188,-0.492 -0.375,-0.98 -0.563,-1.472 -0.191,-0.492 -0.379,-0.985 -0.566,-1.473 -0.188,-0.492 -0.375,-0.984 -0.563,-1.476 -0.191,-0.489 -0.379,-0.981 -0.566,-1.473 -0.188,-0.492 -0.375,-0.981 -0.563,-1.473 -0.191,-0.492 -0.379,-0.98 -0.566,-1.472 -0.188,-0.493 -0.375,-0.985 -0.567,-1.473 -0.187,-0.492 -0.375,-0.984 -0.562,-1.477 -0.188,-0.488 -0.375,-0.98 -0.563,-1.472 -0.191,-0.492 -0.378,-0.981 -0.566,-1.473 -0.187,-0.492 -0.375,-0.984 -0.562,-1.473 -0.192,-0.492 -0.379,-0.984 -0.567,-1.472 -0.187,-0.492 -0.375,-0.985 -0.562,-1.477 -0.188,-0.488 -0.379,-0.98 -0.567,-1.472 -0.187,-0.493 -0.375,-0.981 -0.562,-1.473 -0.192,-0.492 -0.379,-0.984 -0.567,-1.473 -0.187,-0.492 -0.375,-0.984 -0.562,-1.472 -0.188,-0.493 -0.379,-0.985 -0.567,-1.477 -0.187,-0.488 -0.375,-0.98 -0.562,-1.473 -0.188,-0.492 -0.379,-0.98 -0.566,-1.472 -0.188,-0.492 -0.375,-0.985 -0.563,-1.473 -0.191,-0.492 -0.379,-0.984 -0.566,-1.473 -0.188,-0.492 -0.375,-0.984 -0.563,-1.476 -0.191,-0.488 -0.379,-0.981 -0.566,-1.473 -0.188,-0.492 -0.375,-0.98 -0.563,-1.472 -0.187,-0.493 -0.379,-0.985 -0.566,-1.473 -0.188,-0.492 -0.375,-0.984 -0.563,-1.477 -0.191,-0.488 -0.379,-0.98 -0.566,-1.472 -0.188,-0.493 -0.375,-0.981 -0.566,-1.473 -0.188,-0.492 -0.375,-0.98 -0.563,-1.473 -0.187,-0.492 -0.375,-0.984 -0.562,-1.472 -0.192,-0.492 -0.379,-0.985 -0.567,-1.477 -0.187,-0.488 -0.375,-0.98 -0.562,-1.473 -0.192,-0.488 -0.379,-0.98 -0.567,-1.472 -0.187,-0.492 -0.375,-0.981 -0.562,-1.473 -0.192,-0.492 -0.379,-0.984 -0.567,-1.472 -0.187,-0.493 -0.375,-0.985 -0.562,-1.477 -0.192,-0.488 -0.379,-0.981 -0.567,-1.473 -0.187,-0.492 -0.375,-0.98 -0.562,-1.472 -0.192,-0.493 -0.379,-0.981 -0.567,-1.473 -0.187,-0.492 -0.375,-0.984 -0.566,-1.473 -0.187,-0.492 -0.375,-0.984 -0.562,-1.476 -0.188,-0.489 -0.375,-0.981 -0.563,-1.473 -0.191,-0.492 -0.379,-0.98 -0.566,-1.473 -0.188,-0.492 -0.375,-0.98 -0.563,-1.472 -0.191,-0.492 -0.379,-0.985 -0.566,-1.473 -0.188,-0.492 -0.375,-0.984 -0.563,-1.476 -0.191,-0.489 -0.379,-0.981 -0.566,-1.473 -0.188,-0.492 -0.375,-0.981 -0.563,-1.473 -0.191,-0.492 -0.379,-0.98 -0.566,-1.472 -0.188,-0.493 -0.375,-0.985 -0.563,-1.473 -0.191,-0.492 -0.378,-0.984 -0.566,-1.477 -0.187,-0.488 -0.375,-0.98 -0.562,-1.472 -0.192,-0.492 -0.379,-0.981 -0.567,-1.473 -0.187,-0.492 -0.375,-0.984 -0.562,-1.473 -0.192,-0.492 -0.379,-0.984 -0.567,-1.472 -0.187,-0.492 -0.375,-0.985 -0.562,-1.477 -0.192,-0.488 -0.379,-0.98 -0.567,-1.472 -0.187,-0.493 -0.375,-0.981 -0.566,-1.473 -0.188,-0.492 -0.375,-0.984 -0.563,-1.473 -0.187,-0.492 -0.375,-0.984 -0.566,-1.472 -0.187,-0.493 -0.375,-0.985 -0.562,-1.477 -0.188,-0.488 -0.375,-0.98 -0.567,-1.473 -0.187,-0.492 -0.375,-0.98 -0.562,-1.472 -0.188,-0.492 -0.375,-0.985 -0.563,-1.473 -0.191,-0.492 -0.379,-0.984 -0.566,-1.473 -0.188,-0.492 -0.375,-0.984 -0.567,-1.476 -0.187,-0.488 -0.375,-0.981 -0.562,-1.473 -0.188,-0.492 -0.375,-0.98 -0.563,-1.472 -0.191,-0.493 -0.379,-0.985 -0.566,-1.473 -0.188,-0.492 -0.375,-0.985 -0.567,-1.477 -0.187,-0.488 -0.375,-0.98 -0.562,-1.472 -0.188,-0.489 -0.375,-0.981 -0.566,-1.473 -0.188,-0.492 -0.375,-0.98 -0.563,-1.473 -0.187,-0.492 -0.375,-0.984 -0.562,-1.472 -0.192,-0.493 -0.379,-0.985 -0.567,-1.473 -0.187,-0.492 -0.375,-0.984 -0.562,-1.477 -0.192,-0.488 -0.379,-0.98 -0.567,-1.472 -0.187,-0.492 -0.375,-0.981 -0.562,-1.473 -0.192,-0.492 -0.379,-0.984 -0.567,-1.473 -0.187,-0.492 -0.375,-0.984 -0.562,-1.476 -0.192,-0.488 -0.379,-0.981 -0.567,-1.473 -0.187,-0.492 -0.375,-0.98 -0.566,-1.472 -0.187,-0.493 -0.375,-0.981 -0.562,-1.473 -0.188,-0.492 -0.375,-0.984 -0.567,-1.473 -0.187,-0.492 -0.375,-0.984 -0.562,-1.476 -0.188,-0.489 -0.375,-0.981 -0.563,-1.473 -0.191,-0.492 -0.379,-0.98 -0.566,-1.473 -0.188,-0.492 -0.375,-0.98 -0.567,-1.472 -0.187,-0.492 -0.375,-0.985 -0.562,-1.473 -0.188,-0.492 -0.375,-0.984 -0.567,-1.476 -0.187,-0.489 -0.375,-0.981 -0.562,-1.473 -0.188,-0.492 -0.375,-0.981 -0.563,-1.473 -0.191,-0.492 -0.378,-0.98 -0.566,-1.472 -0.187,-0.493 -0.375,-0.985 -0.566,-1.473 -0.188,-0.492 -0.375,-0.984 -0.563,-1.477 -0.187,-0.488 -0.375,-0.98 -0.566,-1.472 -0.188,-0.492 -0.375,-0.981 -0.563,-1.473 -0.187,-0.492 -0.375,-0.98 -0.562,-1.473 -0.192,-0.492 -0.379,-0.984 -0.567,-1.472 -0.187,-0.492 -0.375,-0.985 -0.562,-1.477 -0.192,-0.488 -0.379,-0.98 -0.567,-1.472 -0.187,-0.493 -0.375,-0.981 -0.562,-1.473 -0.192,-0.492 -0.379,-0.985 -0.567,-1.473 -0.187,-0.492 -0.375,-0.984 -0.566,-1.472 -0.187,-0.493 -0.375,-0.985 -0.562,-1.477 -0.188,-0.488 -0.375,-0.98 -0.567,-1.473 -0.187,-0.492 -0.375,-0.98 -0.562,-1.472 -0.188,-0.493 -0.375,-0.985 -0.567,-1.473 -0.187,-0.492 -0.375,-0.984 -0.562,-1.477 -0.188,-0.488 -0.375,-0.98 -0.563,-1.472 -0.191,-0.488 -0.379,-0.981 -0.566,-1.473 -0.188,-0.492 -0.375,-0.98 -0.563,-1.473 -0.191,-0.492 -0.379,-0.98 -0.566,-1.472 -0.188,-0.492 -0.375,-0.985 -0.563,-1.477 -0.191,-0.488 -0.378,-0.98 -0.566,-1.472 -0.187,-0.489 -0.375,-0.981 -0.562,-1.473 -0.192,-0.492 -0.379,-0.981 -0.567,-1.473 -0.187,-0.492 -0.375,-0.984 -0.566,-1.472 -0.188,-0.493 -0.375,-0.985 -0.563,-1.477 -0.187,-0.488 -0.375,-0.98 -0.566,-1.473 -0.188,-0.488 -0.375,-0.98 -0.563,-1.472 -0.187,-0.492 -0.379,-0.981 -0.566,-1.473 -0.188,-0.492 -0.375,-0.984 -0.563,-1.473 -0.187,-0.492 -0.375,-0.984 -0.566,-1.476 -0.187,-0.488 -0.375,-0.981 -0.562,-1.473 -0.188,-0.492 -0.375,-0.98 -0.567,-1.472 -0.187,-0.493 -0.375,-0.981 -0.562,-1.473 -0.188,-0.492 -0.375,-0.984 -0.563,-1.473 -0.191,-0.492 -0.379,-0.984 -0.566,-1.476 -0.188,-0.489 -0.375,-0.981 -0.567,-1.473 -0.187,-0.492 -0.375,-0.98 -0.562,-1.473 -0.188,-0.492 -0.375,-0.98 -0.567,-1.472 -0.187,-0.492 -0.375,-0.985 -0.562,-1.473 -0.188,-0.492 -0.375,-0.984 -0.567,-1.476 -0.187,-0.489 -0.375,-0.981 -0.562,-1.473 -0.188,-0.492 -0.375,-0.981 -0.566,-1.473 -0.188,-0.492 -0.375,-0.98 -0.563,-1.472 -0.187,-0.493 -0.375,-0.985 -0.566,-1.473 -0.188,-0.492 -0.375,-0.984 -0.563,-1.477 -0.187,-0.488 -0.375,-0.98 -0.566,-1.472 -0.188,-0.493 -0.375,-0.981 -0.563,-1.473 -0.187,-0.492 -0.375,-0.98 -0.566,-1.473 -0.188,-0.492 -0.375,-0.984 -0.563,-1.472 -0.187,-0.492 -0.375,-0.985 -0.566,-1.477 -0.188,-0.488 -0.375,-0.98 -0.563,-1.473 -0.187,-0.492 -0.375,-0.98 -0.566,-1.472 -0.187,-0.492 -0.375,-0.985 -0.562,-1.473 -0.188,-0.492 -0.375,-0.984 -0.567,-1.472 -0.187,-0.493 -0.375,-0.985 -0.562,-1.477 -0.188,-0.488 -0.375,-0.981 -0.563,-1.473 -0.191,-0.492 -0.379,-0.98 -0.566,-1.472 -0.188,-0.493 -0.375,-0.985 -0.563,-1.473 -0.191,-0.492 -0.379,-0.984 -0.566,-1.473 -0.188,-0.492 -0.375,-0.984 -0.567,-1.476 -0.187,-0.492 -0.375,-0.981 -0.562,-1.473 -0.188,-0.492 -0.375,-0.98 -0.563,-1.473 -0.191,-0.492 -0.378,-0.984 -0.566,-1.472 -0.187,-0.492 -0.375,-0.985 -0.562,-1.477 -0.192,-0.488 -0.379,-0.98 -0.567,-1.472 -0.187,-0.489 -0.375,-0.981 -0.566,-1.473 -0.188,-0.492 -0.375,-0.981 -0.563,-1.473 -0.187,-0.492 -0.375,-0.984 -0.566,-1.472 -0.188,-0.493 -0.375,-0.985 -0.563,-1.477 -0.187,-0.488 -0.375,-0.98 -0.566,-1.473 -0.188,-0.488 -0.375,-0.98 -0.563,-1.472 -0.187,-0.492 -0.375,-0.981 -0.566,-1.473 -0.188,-0.492 -0.375,-0.984 -0.563,-1.473 -0.187,-0.492 -0.375,-0.984 -0.566,-1.476 -0.187,-0.488 -0.375,-0.981 -0.562,-1.473 -0.188,-0.492 -0.375,-0.98 -0.563,-1.472 -0.191,-0.493 -0.379,-0.981 -0.566,-1.473 -0.188,-0.492 -0.375,-0.984 -0.567,-1.473 -0.187,-0.492 -0.375,-0.984 -0.562,-1.476 -0.188,-0.489 -0.379,-0.981 -0.567,-1.473 -0.187,-0.492 -0.375,-0.98 -0.562,-1.473 -0.188,-0.492 -0.375,-0.98 -0.567,-1.472 -0.187,-0.492 -0.375,-0.985 -0.562,-1.473 -0.188,-0.492 -0.375,-0.984 -0.566,-1.477 -0.188,-0.488 -0.375,-0.98 -0.563,-1.472 -0.187,-0.492 -0.375,-0.981 -0.566,-1.473 -0.188,-0.492 -0.375,-0.984 -0.563,-1.472 -0.187,-0.493 -0.375,-0.985 -0.566,-1.473 -0.188,-0.492 -0.375,-0.985 -0.563,-1.477 -0.187,-0.488 -0.375,-0.98 -0.566,-1.472 -0.188,-0.493 -0.375,-0.981 -0.563,-1.473 -0.187,-0.492 -0.375,-0.984 -0.566,-1.473 -0.188,-0.492 -0.375,-0.984 -0.563,-1.472 -0.187,-0.493 -0.375,-0.985 -0.566,-1.477 -0.187,-0.488 -0.375,-0.98 -0.562,-1.473 -0.188,-0.492 -0.375,-0.98 -0.567,-1.472 -0.187,-0.492 -0.375,-0.985 -0.562,-1.473 -0.188,-0.492 -0.375,-0.984 -0.567,-1.476 -0.187,-0.489 -0.375,-0.981 -0.562,-1.473 -0.188,-0.488 -0.375,-0.981 -0.567,-1.473 -0.187,-0.492 -0.375,-0.98 -0.562,-1.472 -0.188,-0.493 -0.375,-0.985 -0.567,-1.473 -0.187,-0.492 -0.375,-0.984 -0.562,-1.477 -0.188,-0.488 -0.375,-0.98 -0.567,-1.472 -0.187,-0.489 -0.375,-0.981 -0.562,-1.473 -0.188,-0.492 -0.375,-0.98 -0.566,-1.473 -0.188,-0.492 -0.375,-0.984 -0.563,-1.472 -0.187,-0.492 -0.375,-0.985 -0.566,-1.473 -0.188,-0.492 -0.375,-0.984 -0.563,-1.476 -0.187,-0.493 -0.375,-0.981 -0.566,-1.473 -0.188,-0.492 -0.375,-0.981 -0.563,-1.473 -0.187,-0.492 -0.375,-0.984 -0.566,-1.472 -0.188,-0.493 -0.375,-0.985 -0.563,-1.477 -0.187,-0.488 -0.375,-0.98 -0.566,-1.473 -0.188,-0.492 -0.375,-0.98 -0.563,-1.472 -0.187,-0.492 -0.378,-0.981 -0.566,-1.473 -0.187,-0.492 -0.375,-0.984 -0.562,-1.473 -0.188,-0.492 -0.375,-0.984 -0.567,-1.476 -0.187,-0.4885 -0.375,-0.9807 -0.562,-1.4728 -0.188,-0.4922 -0.379,-0.9805 -0.567,-1.4727 -0.187,-0.4922 -0.375,-0.9844 -0.562,-1.4727 -0.188,-0.4921 -0.375,-0.9843 -0.567,-1.4726 -0.187,-0.4922 -0.375,-0.9844 -0.562,-1.4766 -0.188,-0.4883 -0.379,-0.9804 -0.567,-1.4726 -0.187,-0.4883 -0.375,-0.9805 -0.562,-1.4727 -0.188,-0.4922 -0.375,-0.9805 -0.566,-1.4726 -0.188,-0.4922 -0.375,-0.9844 -0.563,-1.4727 -0.187,-0.4922 -0.375,-0.9844 -0.566,-1.4766 -0.188,-0.4882 -0.375,-0.9804 -0.563,-1.4726 -0.187,-0.4922 -0.375,-0.9805 -0.566,-1.4727 -0.188,-0.4922 -0.375,-0.9843 -0.563,-1.4726 -0.187,-0.4922 -0.379,-0.9844 -0.566,-1.4766 -0.188,-0.4883 -0.375,-0.9805 -0.563,-1.4726 -0.187,-0.4883 -0.379,-0.9805 -0.566,-1.4727 -0.188,-0.4922 -0.375,-0.9805 -0.563,-1.4727 -0.187,-0.4921 -0.375,-0.9843 -0.566,-1.4726 -0.188,-0.4922 -0.375,-0.9844 -0.563,-1.4766 -0.187,-0.4883 -0.375,-0.9804 -0.566,-1.4726 -0.187,-0.4883 -0.375,-0.9805 -0.562,-1.4727 -0.188,-0.4922 -0.379,-0.9805 -0.567,-1.4726 -0.187,-0.4922 -0.375,-0.9844 -0.562,-1.4727 -0.188,-0.4922 -0.375,-0.9844 -0.567,-1.4727 -0.187,-0.4921 -0.375,-0.9843 -0.562,-1.4765 -0.188,-0.4922 -0.379,-0.9805 -0.567,-1.4727 -0.187,-0.4922 -0.375,-0.9804 -0.562,-1.4726 -0.188,-0.4922 -0.375,-0.9844 -0.567,-1.4727 -0.187,-0.4922 -0.375,-0.9844 -0.562,-1.4766 -0.188,-0.4882 -0.375,-0.9804 -0.566,-1.4726 -0.188,-0.4883 -0.375,-0.9805 -0.563,-1.4727 -0.187,-0.4922 -0.375,-0.9804 -0.566,-1.4726 -0.188,-0.4922 -0.375,-0.9844 -0.563,-1.4727 -0.187,-0.4922 -0.375,-0.9844 -0.566,-1.4765 -0.188,-0.4883 -0.375,-0.9805 -0.563,-1.4727 -0.187,-0.4883 -0.379,-0.9805 -0.566,-1.4727 -0.188,-0.4921 -0.375,-0.9804 -0.563,-1.4726 -0.187,-0.4922 -0.379,-0.9844 -0.566,-1.4727 -0.188,-0.4922 -0.375,-0.9843 -0.563,-1.4765 -0.187,-0.4883 -0.375,-0.9805 -0.566,-1.4727 -0.187,-0.4922 -0.375,-0.9805 -0.562,-1.4726 -0.188,-0.4922 -0.375,-0.9844 -0.567,-1.4727 -0.187,-0.4922 -0.375,-0.9844 -0.562,-1.4727 -0.188,-0.4921 -0.375,-0.9843 -0.567,-1.4765 -0.187,-0.4883 -0.375,-0.9805 -0.562,-1.4727 -0.188,-0.4922 -0.375,-0.9804 -0.567,-1.4726 -0.187,-0.4922 -0.375,-0.9844 -0.562,-1.4727 -0.188,-0.4922 -0.379,-0.9844 -0.567,-1.4726 -0.187,-0.4922 -0.375,-0.9844 -0.562,-1.4766 -0.188,-0.4883 -0.375,-0.9805 -0.567,-1.4727 -0.187,-0.4921 -0.375,-0.9804 -0.562,-1.4726 -0.188,-0.4922 -0.375,-0.9844 -0.566,-1.4727 -0.188,-0.4922 -0.375,-0.9843 -0.563,-1.4726 -0.187,-0.4922 -0.379,-0.9844 -0.566,-1.4766 -0.188,-0.4883 -0.375,-0.9805 -0.563,-1.4726 -0.187,-0.4922 -0.375,-0.9805 -0.566,-1.4727 -0.188,-0.4922 -0.375,-0.9844 -0.563,-1.4727 -0.187,-0.4921 -0.379,-0.9843 -0.566,-1.4726" /><path
         id="path120"
         style="fill:#000000;fill-opacity:1;fill-rule:nonzero;stroke:none"
         d="m 2454.27,541.848 v -6.934 h -8.89 v -17.48 h -8.05 v 17.48 h -28.03 v 6.25 l 30.71,43.848 h 5.37 v -43.164 z m -16.94,0 v 32.863 l -23.24,-32.863 z" /><path
         id="path122"
         style="fill:#000000;fill-opacity:1;fill-rule:nonzero;stroke:none"
         d="m 2466.27,595.059 v 2.05 c 4.95,-2.441 9.07,-5.32 12.36,-8.64 4.65,-4.754 8.25,-10.328 10.79,-16.723 2.54,-6.398 3.81,-13.062 3.81,-19.996 0,-10.09 -2.48,-19.297 -7.45,-27.613 -4.96,-8.317 -11.46,-14.266 -19.51,-17.848 v 1.809 c 4.01,2.246 7.3,5.281 9.89,9.105 2.59,3.824 4.51,8.692 5.76,14.602 1.26,5.906 1.88,12.066 1.88,18.48 0,6.934 -0.53,13.266 -1.61,18.992 -0.81,4.493 -1.83,8.09 -3.05,10.793 -1.22,2.703 -2.84,5.305 -4.86,7.813 -2.01,2.508 -4.69,4.898 -8.01,7.176 v 0" /><g
         transform="scale(0.99838,-1.00162)"
         id="g124"><path
           id="path126"
           style="fill:none;stroke:#000000;stroke-width:3.5;stroke-linecap:butt;stroke-linejoin:miter;stroke-miterlimit:10;stroke-dasharray:none;stroke-opacity:1"
           d="m 2517.01,-594.085 0.16,589.32708 m 73.5,-589.32708 0.16,589.32708 m 73.5,-589.32708 0.17,589.32708 m 73.49,-589.32708 0.15,521.3395 0.02,67.98758 m 73.5,-589.32708 0.16,589.32708 m 73.49,-589.32708 0.17,589.32708 m 73.5,-589.32708 0.16,589.32708 m 73.49,-589.32708 0.17,589.32708 m 73.5,-589.32708 0.16,589.32708 m -589.45,-589.32708 589.17,-0.113 m -589.17,73.775 589.17,-0.117 m -589.17,73.775 589.17,-0.113 m -589.17,73.775 589.17,-0.113 m -589.17,73.775 589.17,-0.117 m -589.17,73.775 589.17,-0.113 m -589.17,73.775 589.17,-0.113 m -589.17,73.7751 589.17,-0.117 m -589.17,73.77898 589.17,-0.117" /></g><g
         transform="scale(0.99838,-1.00162)"
         id="g128"><path
           id="path130"
           style="fill:none;stroke:#000000;stroke-width:7.50001001;stroke-linecap:butt;stroke-linejoin:miter;stroke-miterlimit:10;stroke-dasharray:none;stroke-opacity:1"
           d="m 2807.36,-7.76867 0.48,-582.82933" /></g><path
         id="path132"
         style="fill:#000000;fill-opacity:1;fill-rule:evenodd;stroke:none"
         d="m 2785.14,552.27 18.09,49.234 18.01,-49.262 c -10.65,7.875 -25.23,7.844 -36.1,0.028" /><g
         transform="scale(0.99838,-1.00162)"
         id="g134"><path
           id="path136"
           style="fill:none;stroke:#000000;stroke-width:7.50001001;stroke-linecap:butt;stroke-linejoin:miter;stroke-miterlimit:10;stroke-dasharray:none;stroke-opacity:1"
           d="m 2511.36,-297.245 583.12,0.483" /></g><path
         id="path138"
         style="fill:#000000;fill-opacity:1;fill-rule:evenodd;stroke:none"
         d="m 3050.31,315.457 49.07,-18.152 -49.1,-18.067 c 7.85,10.684 7.82,25.313 0.03,36.219" /><g
         transform="scale(0.99838,-1.00162)"
         id="g140"><path
           id="path142"
           style="fill:none;stroke:#000000;stroke-width:10;stroke-linecap:butt;stroke-linejoin:miter;stroke-miterlimit:10;stroke-dasharray:none;stroke-opacity:1"
           d="m 2881.5,-323.683 v 42.974" /></g><g
         transform="scale(0.99838,-1.00162)"
         id="g144"><path
           id="path146"
           style="fill:none;stroke:#000000;stroke-width:10;stroke-linecap:butt;stroke-linejoin:miter;stroke-miterlimit:10;stroke-dasharray:none;stroke-opacity:1"
           d="m 2829.52,-377.061 h -42.97" /></g><path
         id="path148"
         style="fill:#000000;fill-opacity:1;fill-rule:nonzero;stroke:none"
         d="m 2750.82,364.461 14.81,7.25 h 1.48 v -51.563 c 0,-3.421 0.14,-5.554 0.43,-6.394 0.28,-0.84 0.87,-1.484 1.77,-1.934 0.9,-0.453 2.73,-0.707 5.48,-0.765 v -1.668 h -22.9 v 1.668 c 2.88,0.058 4.73,0.304 5.57,0.742 0.84,0.433 1.42,1.019 1.75,1.754 0.33,0.738 0.49,2.937 0.49,6.597 v 32.965 c 0,4.442 -0.15,7.293 -0.45,8.555 -0.2,0.961 -0.59,1.668 -1.14,2.117 -0.55,0.449 -1.22,0.676 -2,0.676 -1.1,0 -2.65,-0.465 -4.62,-1.395 l -0.67,1.395" /><path
         id="path150"
         style="fill:#000000;fill-opacity:1;fill-rule:nonzero;stroke:none"
         d="m 2836.48,289.637 14.81,7.25 h 1.48 v -51.563 c 0,-3.422 0.14,-5.554 0.43,-6.394 0.28,-0.84 0.87,-1.485 1.77,-1.934 0.9,-0.453 2.72,-0.707 5.48,-0.766 v -1.667 h -22.9 v 1.667 c 2.88,0.059 4.73,0.305 5.57,0.743 0.84,0.433 1.42,1.019 1.75,1.754 0.33,0.738 0.49,2.937 0.49,6.597 v 32.965 c 0,4.441 -0.15,7.293 -0.45,8.555 -0.21,0.961 -0.59,1.668 -1.14,2.117 -0.56,0.449 -1.22,0.676 -2,0.676 -1.11,0 -2.64,-0.465 -4.62,-1.395 l -0.67,1.395" /><path
         id="path152"
         style="fill:#000000;fill-opacity:1;fill-rule:nonzero;stroke:none"
         d="m 3066.41,273.813 c 1.53,-1.629 2.68,-3.258 3.46,-4.887 0.56,-1.125 1.48,-4.082 2.76,-8.871 l 4.12,6.195 c 1.09,1.504 2.42,2.938 3.98,4.297 1.56,1.363 2.93,2.293 4.12,2.793 0.74,0.312 1.57,0.473 2.48,0.473 1.34,0 2.41,-0.364 3.2,-1.083 0.8,-0.718 1.2,-1.597 1.2,-2.628 0,-1.192 -0.24,-2.004 -0.71,-2.442 -0.87,-0.781 -1.87,-1.176 -2.99,-1.176 -0.65,0 -1.36,0.145 -2.11,0.426 -1.46,0.5 -2.45,0.75 -2.94,0.75 -0.75,0 -1.64,-0.437 -2.67,-1.316 -1.94,-1.625 -4.25,-4.774 -6.93,-9.434 l 3.84,-16.152 c 0.59,-2.473 1.09,-3.953 1.49,-4.438 0.41,-0.484 0.82,-0.726 1.22,-0.726 0.66,0 1.42,0.359 2.3,1.078 1.71,1.441 3.18,3.316 4.4,5.637 l 1.63,-0.848 c -1.96,-3.691 -4.46,-6.762 -7.49,-9.203 -1.71,-1.375 -3.16,-2.067 -4.35,-2.067 -1.74,0 -3.13,0.989 -4.16,2.961 -0.66,1.219 -2.01,6.477 -4.07,15.774 -4.87,-8.481 -8.77,-13.946 -11.7,-16.387 -1.91,-1.562 -3.75,-2.348 -5.53,-2.348 -1.25,0 -2.38,0.457 -3.41,1.364 -0.75,0.687 -1.12,1.613 -1.12,2.769 0,1.035 0.34,1.895 1.02,2.582 0.69,0.692 1.53,1.035 2.53,1.035 1,0 2.06,-0.503 3.18,-1.503 0.82,-0.719 1.44,-1.079 1.88,-1.079 0.37,0 0.85,0.25 1.45,0.75 1.46,1.188 3.46,3.754 5.99,7.7 2.52,3.945 4.18,6.793 4.96,8.546 -1.94,7.606 -2.98,11.625 -3.14,12.067 -0.71,2.031 -1.65,3.473 -2.81,4.316 -1.15,0.848 -2.85,1.27 -5.1,1.27 -0.71,0 -1.54,-0.031 -2.48,-0.094 v 1.691 l 12.5,2.208" /><path
         id="path154"
         style="fill:#000000;fill-opacity:1;fill-rule:nonzero;stroke:none"
         d="m 2755.32,580.398 c 1.06,-1.816 1.8,-3.515 2.2,-5.097 0.41,-1.578 0.81,-4.684 1.22,-9.317 l 2.06,-23.101 c 1.87,2.254 4.59,5.82 8.14,10.707 1.72,2.375 3.84,5.617 6.36,9.719 1.54,2.504 2.47,4.254 2.81,5.257 0.19,0.5 0.28,1.016 0.28,1.547 0,0.344 -0.1,0.629 -0.32,0.848 -0.22,0.219 -0.79,0.477 -1.71,0.773 -0.92,0.297 -1.68,0.844 -2.29,1.645 -0.61,0.797 -0.92,1.711 -0.92,2.746 0,1.281 0.38,2.316 1.13,3.098 0.75,0.781 1.68,1.175 2.81,1.175 1.37,0 2.54,-0.574 3.5,-1.714 0.97,-1.145 1.46,-2.715 1.46,-4.719 0,-2.473 -0.85,-5.297 -2.53,-8.477 -1.69,-3.175 -4.93,-8.05 -9.73,-14.625 -4.81,-6.57 -10.63,-13.738 -17.46,-21.504 -4.71,-5.351 -8.21,-8.722 -10.49,-10.117 -2.27,-1.39 -4.22,-2.09 -5.84,-2.09 -0.97,0 -1.82,0.371 -2.55,1.106 -0.74,0.734 -1.11,1.59 -1.11,2.558 0,1.219 0.51,2.332 1.53,3.332 1.01,1.004 2.11,1.504 3.29,1.504 0.63,0 1.14,-0.14 1.55,-0.422 0.25,-0.156 0.52,-0.601 0.82,-1.339 0.29,-0.735 0.57,-1.227 0.82,-1.477 0.15,-0.156 0.34,-0.238 0.56,-0.238 0.19,0 0.52,0.16 0.98,0.472 1.72,1.063 3.72,2.754 5.99,5.071 3,3.066 5.21,5.57 6.65,7.511 l -2.62,29.766 c -0.44,4.914 -1.09,7.902 -1.97,8.969 -0.87,1.062 -2.34,1.598 -4.4,1.598 -0.65,0 -1.82,-0.094 -3.51,-0.286 l -0.42,1.739 13.71,3.382" /><path
         id="path156"
         style="fill:#000000;fill-opacity:1;fill-rule:nonzero;stroke:none"
         d="m 2775.19,297.516 c 4.04,0 7.61,-0.879 10.73,-2.637 3.11,-1.754 5.55,-4.352 7.31,-7.789 1.77,-3.438 2.65,-7.004 2.65,-10.695 0,-6.543 -1.89,-13.411 -5.68,-20.602 -3.78,-7.191 -8.73,-12.676 -14.83,-16.461 -6.1,-3.781 -12.42,-5.672 -18.94,-5.672 -4.7,0 -8.63,1.043 -11.79,3.129 -3.15,2.086 -5.49,4.84 -7,8.266 -1.51,3.422 -2.26,6.738 -2.26,9.949 0,5.703 1.37,11.34 4.1,16.91 2.74,5.57 6.01,10.223 9.81,13.961 3.8,3.738 7.85,6.609 12.16,8.621 4.31,2.012 8.89,3.02 13.74,3.02 z m -1.53,-2.883 c -2.99,0 -5.91,-0.742 -8.77,-2.231 -2.86,-1.484 -5.69,-3.918 -8.51,-7.293 -2.81,-3.379 -5.34,-7.8 -7.58,-13.261 -2.76,-6.727 -4.13,-13.075 -4.13,-19.051 0,-4.262 1.09,-8.035 3.28,-11.324 2.18,-3.285 5.53,-4.93 10.05,-4.93 2.72,0 5.39,0.676 8.01,2.023 2.62,1.352 5.35,3.664 8.19,6.938 3.56,4.113 6.55,9.359 8.98,15.738 2.42,6.379 3.64,12.332 3.64,17.856 0,4.082 -1.1,7.691 -3.28,10.828 -2.18,3.137 -5.48,4.707 -9.88,4.707 v 0" /><path
         id="path158"
         style="fill:none;stroke:#000000;stroke-width:10;stroke-linecap:butt;stroke-linejoin:miter;stroke-miterlimit:10;stroke-dasharray:none;stroke-opacity:1"
         d="m 3031.54,586.938 c -0.18,-0.489 -0.37,-0.977 -0.56,-1.465 -0.18,-0.489 -0.37,-0.977 -0.55,-1.461 -0.19,-0.489 -0.38,-0.977 -0.56,-1.465 -0.19,-0.488 -0.38,-0.977 -0.57,-1.461 -0.18,-0.488 -0.37,-0.977 -0.55,-1.465 -0.19,-0.488 -0.37,-0.976 -0.56,-1.461 -0.19,-0.488 -0.37,-0.976 -0.56,-1.465 -0.19,-0.488 -0.37,-0.976 -0.56,-1.465 -0.19,-0.488 -0.37,-0.972 -0.56,-1.46 -0.19,-0.489 -0.37,-0.977 -0.56,-1.465 -0.18,-0.489 -0.37,-0.973 -0.56,-1.461 -0.18,-0.489 -0.37,-0.977 -0.55,-1.465 -0.19,-0.488 -0.38,-0.973 -0.57,-1.461 -0.18,-0.488 -0.37,-0.977 -0.56,-1.465 -0.18,-0.488 -0.37,-0.976 -0.55,-1.461 -0.19,-0.488 -0.37,-0.976 -0.56,-1.465 -0.19,-0.488 -0.37,-0.976 -0.56,-1.461 -0.19,-0.488 -0.38,-0.976 -0.56,-1.464 -0.19,-0.489 -0.37,-0.977 -0.56,-1.465 -0.19,-0.485 -0.37,-0.973 -0.56,-1.461 -0.18,-0.488 -0.37,-0.977 -0.56,-1.465 -0.18,-0.488 -0.37,-0.973 -0.56,-1.461 -0.18,-0.488 -0.37,-0.977 -0.56,-1.465 -0.18,-0.488 -0.37,-0.972 -0.55,-1.461 -0.19,-0.488 -0.38,-0.976 -0.56,-1.465 -0.19,-0.488 -0.37,-0.976 -0.56,-1.461 -0.19,-0.488 -0.38,-0.976 -0.56,-1.464 -0.19,-0.489 -0.38,-0.977 -0.56,-1.465 -0.19,-0.485 -0.37,-0.973 -0.56,-1.461 -0.19,-0.488 -0.37,-0.977 -0.56,-1.465 -0.18,-0.484 -0.37,-0.973 -0.56,-1.461 -0.18,-0.488 -0.37,-0.977 -0.56,-1.465 -0.18,-0.488 -0.37,-0.972 -0.56,-1.461 -0.18,-0.488 -0.37,-0.976 -0.55,-1.465 -0.19,-0.488 -0.38,-0.972 -0.56,-1.461 -0.19,-0.488 -0.38,-0.976 -0.56,-1.464 -0.19,-0.489 -0.38,-0.973 -0.56,-1.461 -0.19,-0.489 -0.38,-0.977 -0.56,-1.465 -0.19,-0.488 -0.37,-0.977 -0.56,-1.461 -0.19,-0.488 -0.37,-0.977 -0.56,-1.465 -0.18,-0.488 -0.37,-0.976 -0.56,-1.465 -0.19,-0.484 -0.37,-0.972 -0.56,-1.461 -0.18,-0.488 -0.37,-0.976 -0.56,-1.465 -0.18,-0.484 -0.37,-0.972 -0.55,-1.46 -0.19,-0.489 -0.38,-0.977 -0.56,-1.465 -0.19,-0.489 -0.38,-0.973 -0.57,-1.461 -0.18,-0.489 -0.37,-0.977 -0.55,-1.465 -0.19,-0.488 -0.38,-0.973 -0.56,-1.461 -0.19,-0.488 -0.37,-0.977 -0.56,-1.465 -0.19,-0.488 -0.37,-0.976 -0.56,-1.461 -0.19,-0.488 -0.38,-0.976 -0.56,-1.465 -0.19,-0.488 -0.37,-0.976 -0.56,-1.465 -0.18,-0.484 -0.37,-0.972 -0.56,-1.46 -0.18,-0.489 -0.37,-0.977 -0.56,-1.465 -0.18,-0.485 -0.37,-0.973 -0.56,-1.461 -0.18,-0.489 -0.37,-0.977 -0.56,-1.465 -0.18,-0.488 -0.37,-0.973 -0.55,-1.461 -0.19,-0.488 -0.38,-0.977 -0.56,-1.465 -0.19,-0.488 -0.37,-0.973 -0.56,-1.461 -0.19,-0.488 -0.37,-0.976 -0.56,-1.465 -0.19,-0.488 -0.37,-0.976 -0.56,-1.461 -0.19,-0.488 -0.37,-0.976 -0.56,-1.464 -0.18,-0.489 -0.37,-0.977 -0.56,-1.461 -0.18,-0.489 -0.37,-0.977 -0.56,-1.465 -0.19,-0.488 -0.37,-0.977 -0.56,-1.465 -0.18,-0.484 -0.37,-0.973 -0.56,-1.461 -0.18,-0.488 -0.37,-0.977 -0.55,-1.465 -0.19,-0.484 -0.38,-0.972 -0.56,-1.461 -0.19,-0.488 -0.38,-0.976 -0.56,-1.465 -0.19,-0.488 -0.38,-0.972 -0.56,-1.461 -0.19,-0.488 -0.37,-0.976 -0.56,-1.464 -0.19,-0.489 -0.37,-0.977 -0.56,-1.461 -0.18,-0.489 -0.37,-0.977 -0.56,-1.465 -0.18,-0.488 -0.37,-0.977 -0.56,-1.461 -0.19,-0.488 -0.37,-0.977 -0.56,-1.465 -0.18,-0.488 -0.37,-0.977 -0.56,-1.465 -0.18,-0.484 -0.37,-0.972 -0.55,-1.461 -0.19,-0.488 -0.38,-0.976 -0.56,-1.465 -0.19,-0.484 -0.38,-0.972 -0.56,-1.461 -0.19,-0.488 -0.38,-0.976 -0.56,-1.464 -0.19,-0.489 -0.37,-0.973 -0.56,-1.461 -0.19,-0.489 -0.37,-0.977 -0.56,-1.465 -0.19,-0.488 -0.37,-0.973 -0.56,-1.461 -0.19,-0.488 -0.37,-0.977 -0.56,-1.465 -0.19,-0.488 -0.37,-0.976 -0.56,-1.461 -0.18,-0.488 -0.37,-0.976 -0.56,-1.465 -0.18,-0.488 -0.37,-0.976 -0.55,-1.461 -0.19,-0.488 -0.38,-0.976 -0.57,-1.464 -0.18,-0.489 -0.37,-0.977 -0.55,-1.465 -0.19,-0.485 -0.38,-0.973 -0.56,-1.461 -0.19,-0.489 -0.37,-0.977 -0.56,-1.465 -0.19,-0.488 -0.37,-0.973 -0.56,-1.461 -0.19,-0.488 -0.37,-0.977 -0.56,-1.465 -0.19,-0.488 -0.37,-0.976 -0.56,-1.461 -0.19,-0.488 -0.37,-0.976 -0.56,-1.465 -0.18,-0.488 -0.37,-0.976 -0.56,-1.461 -0.18,-0.488 -0.37,-0.976 -0.56,-1.464 -0.18,-0.489 -0.37,-0.977 -0.56,-1.461 -0.18,-0.489 -0.37,-0.977 -0.55,-1.465 -0.19,-0.489 -0.38,-0.977 -0.56,-1.465 -0.19,-0.484 -0.37,-0.973 -0.56,-1.461 -0.19,-0.488 -0.38,-0.977 -0.56,-1.465 -0.19,-0.484 -0.38,-0.973 -0.56,-1.461 -0.19,-0.488 -0.37,-0.976 -0.56,-1.465 -0.19,-0.488 -0.37,-0.972 -0.56,-1.461 -0.18,-0.488 -0.37,-0.976 -0.56,-1.464 -0.18,-0.489 -0.37,-0.973 -0.56,-1.461 -0.18,-0.489 -0.37,-0.977 -0.56,-1.465 -0.18,-0.488 -0.37,-0.977 -0.55,-1.461 -0.19,-0.488 -0.38,-0.977 -0.56,-1.465 -0.19,-0.488 -0.38,-0.977 -0.56,-1.465 -0.19,-0.484 -0.38,-0.972 -0.56,-1.461 -0.19,-0.488 -0.38,-0.976 -0.56,-1.465 -0.19,-0.484 -0.37,-0.972 -0.56,-1.461 -0.18,-0.488 -0.37,-0.976 -0.56,-1.464 -0.19,-0.485 -0.37,-0.973 -0.56,-1.461 -0.18,-0.489 -0.37,-0.977 -0.56,-1.465 -0.18,-0.488 -0.37,-0.973 -0.56,-1.461 -0.18,-0.488 -0.37,-0.977 -0.55,-1.465 -0.19,-0.488 -0.38,-0.977 -0.56,-1.461 -0.19,-0.488 -0.38,-0.976 -0.57,-1.465 -0.18,-0.488 -0.37,-0.976 -0.55,-1.461 -0.19,-0.488 -0.38,-0.976 -0.56,-1.465 -0.19,-0.488 -0.37,-0.976 -0.56,-1.464 -0.19,-0.485 -0.37,-0.973 -0.56,-1.461 -0.19,-0.489 -0.37,-0.977 -0.56,-1.465 -0.19,-0.485 -0.37,-0.973 -0.56,-1.461 -0.18,-0.488 -0.37,-0.977 -0.56,-1.465 -0.18,-0.488 -0.37,-0.973 -0.56,-1.461 -0.18,-0.488 -0.37,-0.976 -0.56,-1.465 -0.18,-0.488 -0.37,-0.976 -0.56,-1.461 -0.18,-0.488 -0.37,-0.976 -0.55,-1.464 -0.19,-0.489 -0.37,-0.977 -0.56,-1.461 -0.19,-0.489 -0.37,-0.977 -0.56,-1.465 -0.19,-0.489 -0.37,-0.977 -0.56,-1.465 -0.19,-0.484 -0.37,-0.973 -0.56,-1.461 -0.19,-0.488 -0.37,-0.977 -0.56,-1.465 -0.18,-0.484 -0.37,-0.973 -0.56,-1.461 -0.18,-0.488 -0.37,-0.976 -0.56,-1.465 -0.18,-0.488 -0.37,-0.972 -0.56,-1.461 -0.18,-0.488 -0.37,-0.976 -0.56,-1.464 -0.18,-0.489 -0.37,-0.973 -0.55,-1.461 -0.19,-0.489 -0.37,-0.977 -0.56,-1.465 -0.19,-0.489 -0.38,-0.977 -0.56,-1.461 -0.19,-0.488 -0.38,-0.977 -0.56,-1.465 -0.19,-0.488 -0.37,-0.977 -0.56,-1.465 -0.19,-0.484 -0.37,-0.973 -0.56,-1.461 -0.18,-0.488 -0.37,-0.976 -0.56,-1.465 -0.18,-0.484 -0.37,-0.972 -0.56,-1.461 -0.19,-0.488 -0.37,-0.976 -0.56,-1.464 -0.18,-0.489 -0.37,-0.973 -0.55,-1.461 -0.19,-0.489 -0.38,-0.977 -0.56,-1.465 -0.19,-0.488 -0.38,-0.973 -0.56,-1.461 -0.19,-0.488 -0.38,-0.977 -0.56,-1.465 -0.19,-0.488 -0.38,-0.977 -0.56,-1.461 -0.19,-0.488 -0.37,-0.976 -0.56,-1.465 -0.19,-0.488 -0.37,-0.976 -0.56,-1.461 -0.18,-0.488 -0.37,-0.976 -0.56,-1.465 -0.19,-0.488 -0.37,-0.976 -0.56,-1.464 -0.19,-0.485 -0.37,-0.973 -0.56,-1.461 -0.18,-0.489 -0.37,-0.977 -0.55,-1.465 -0.19,-0.485 -0.38,-0.973 -0.57,-1.461 -0.18,-0.488 -0.37,-0.977 -0.56,-1.465 -0.18,-0.488 -0.37,-0.973 -0.55,-1.461 -0.19,-0.488 -0.38,-0.976 -0.56,-1.465 -0.19,-0.488 -0.37,-0.972 -0.56,-1.461 -0.19,-0.488 -0.37,-0.976 -0.56,-1.465 -0.19,-0.488 -0.37,-0.976 -0.56,-1.46 -0.19,-0.489 -0.37,-0.977 -0.56,-1.465 -0.18,-0.489 -0.37,-0.977 -0.56,-1.461 -0.18,-0.489 -0.37,-0.977 -0.55,-1.465 -0.19,-0.488 -0.38,-0.977 -0.57,-1.465 -0.18,-0.488 -0.37,-0.973 -0.56,-1.461 -0.18,-0.488 -0.37,-0.976 -0.55,-1.465 -0.19,-0.488 -0.38,-0.972 -0.56,-1.461 -0.19,-0.488 -0.37,-0.976 -0.56,-1.464 -0.19,-0.489 -0.38,-0.973 -0.56,-1.461 -0.19,-0.489 -0.38,-0.977 -0.56,-1.465 -0.19,-0.489 -0.37,-0.977 -0.56,-1.461 -0.18,-0.488 -0.37,-0.977 -0.56,-1.465 -0.18,-0.488 -0.37,-0.977 -0.56,-1.461 -0.18,-0.488 -0.37,-0.977 -0.56,-1.465 -0.18,-0.488 -0.37,-0.976 -0.56,-1.465 -0.18,-0.484 -0.37,-0.972 -0.55,-1.461 -0.19,-0.488 -0.38,-0.976 -0.56,-1.464 -0.19,-0.489 -0.38,-0.973 -0.56,-1.461 -0.19,-0.489 -0.38,-0.977 -0.56,-1.465 -0.19,-0.489 -0.37,-0.973 -0.56,-1.461 -0.19,-0.488 -0.37,-0.977 -0.56,-1.465 -0.18,-0.488 -0.37,-0.977 -0.56,-1.461 -0.19,-0.488 -0.37,-0.977 -0.56,-1.465 -0.19,-0.488 -0.37,-0.976 -0.56,-1.461 -0.18,-0.488 -0.37,-0.976 -0.56,-1.465 -0.18,-0.488 -0.37,-0.976 -0.55,-1.464 -0.19,-0.485 -0.38,-0.973 -0.56,-1.461 -0.19,-0.489 -0.38,-0.977 -0.57,-1.465 -0.18,-0.485 -0.37,-0.973 -0.55,-1.461 -0.19,-0.488 -0.37,-0.977 -0.56,-1.465 -0.19,-0.488 -0.37,-0.973 -0.56,-1.461 -0.19,-0.488 -0.37,-0.976 -0.56,-1.465 -0.19,-0.488 -0.37,-0.972 -0.56,-1.461 -0.19,-0.488 -0.37,-0.976 -0.56,-1.465 -0.18,-0.488 -0.37,-0.976 -0.56,-1.46 -0.18,-0.489 -0.37,-0.977 -0.55,-1.465 -0.19,-0.489 -0.38,-0.977 -0.57,-1.465 -0.18,-0.485 -0.37,-0.973 -0.55,-1.461 -0.19,-0.488 -0.38,-0.977 -0.56,-1.465 -0.19,-0.484 -0.37,-0.973 -0.56,-1.461 -0.19,-0.488 -0.37,-0.976 -0.56,-1.465 -0.19,-0.484 -0.38,-0.972 -0.56,-1.461 -0.19,-0.488 -0.37,-0.976 -0.56,-1.465 -0.19,-0.488 -0.37,-0.972 -0.56,-1.46 -0.18,-0.489 -0.37,-0.977 -0.56,-1.465 -0.18,-0.489 -0.37,-0.977 -0.56,-1.461 -0.18,-0.489 -0.37,-0.977 -0.56,-1.465 -0.18,-0.488 -0.37,-0.977 -0.55,-1.461 -0.19,-0.488 -0.38,-0.977 -0.56,-1.465 -0.19,-0.488 -0.38,-0.976 -0.56,-1.461 -0.19,-0.488 -0.38,-0.976 -0.56,-1.465 -0.19,-0.488 -0.38,-0.976 -0.56,-1.464 -0.19,-0.485 -0.37,-0.973 -0.56,-1.461 -0.19,-0.489 -0.37,-0.977 -0.56,-1.465 -0.18,-0.489 -0.37,-0.973 -0.56,-1.461 -0.18,-0.488 -0.37,-0.977 -0.56,-1.465 -0.18,-0.488 -0.37,-0.973 -0.56,-1.461 -0.18,-0.488 -0.37,-0.977 -0.55,-1.465 -0.19,-0.488 -0.38,-0.976 -0.56,-1.461 -0.19,-0.488 -0.38,-0.976 -0.56,-1.465 -0.19,-0.488 -0.38,-0.976 -0.56,-1.464 -0.19,-0.485 -0.38,-0.973 -0.56,-1.461 -0.19,-0.489 -0.37,-0.977 -0.56,-1.465 -0.19,-0.485 -0.37,-0.973 -0.56,-1.461 -0.19,-0.488 -0.37,-0.977 -0.56,-1.465 -0.19,-0.488 -0.37,-0.973 -0.56,-1.461 -0.18,-0.488 -0.37,-0.977 -0.56,-1.465 -0.18,-0.488 -0.37,-0.972 -0.55,-1.461 -0.19,-0.488 -0.38,-0.976 -0.56,-1.465 -0.19,-0.488 -0.38,-0.976 -0.57,-1.461 -0.18,-0.488 -0.37,-0.976 -0.55,-1.464 -0.19,-0.489 -0.38,-0.977 -0.56,-1.461 -0.19,-0.489 -0.37,-0.977 -0.56,-1.465 -0.19,-0.488 -0.37,-0.977 -0.56,-1.465 -0.19,-0.484 -0.37,-0.973 -0.56,-1.461 -0.19,-0.488 -0.37,-0.976 -0.56,-1.465 -0.18,-0.484 -0.37,-0.972 -0.56,-1.461 -0.18,-0.488 -0.37,-0.976 -0.56,-1.465 -0.18,-0.488 -0.37,-0.972 -0.56,-1.46 -0.18,-0.489 -0.37,-0.977 -0.56,-1.465 -0.18,-0.489 -0.37,-0.977 -0.55,-1.461 -0.19,-0.489 -0.38,-0.977 -0.56,-1.465 -0.19,-0.488 -0.37,-0.977 -0.56,-1.461 -0.19,-0.488 -0.38,-0.977 -0.56,-1.465 -0.19,-0.488 -0.37,-0.976 -0.56,-1.465 -0.19,-0.484 -0.37,-0.972 -0.56,-1.461 -0.18,-0.488 -0.37,-0.976 -0.56,-1.465 -0.18,-0.488 -0.37,-0.972 -0.56,-1.46 -0.18,-0.489 -0.37,-0.977 -0.56,-1.465 -0.18,-0.489 -0.37,-0.973 -0.56,-1.461 -0.18,-0.489 -0.37,-0.977 -0.55,-1.465 -0.19,-0.488 -0.37,-0.973 -0.56,-1.461 -0.19,-0.488 -0.37,-0.977 -0.56,-1.465 -0.19,-0.488 -0.38,-0.976 -0.56,-1.461 -0.19,-0.488 -0.37,-0.976 -0.56,-1.465 -0.19,-0.488 -0.37,-0.976 -0.56,-1.461 -0.18,-0.488 -0.37,-0.976 -0.56,-1.464 -0.18,-0.489 -0.37,-0.977 -0.56,-1.465 -0.19,-0.485 -0.37,-0.973 -0.56,-1.461 -0.18,-0.488 -0.37,-0.977 -0.56,-1.465 -0.18,-0.488 -0.37,-0.973 -0.55,-1.461 -0.19,-0.488 -0.38,-0.977 -0.56,-1.465 -0.19,-0.488 -0.38,-0.972 -0.56,-1.461 -0.19,-0.488 -0.38,-0.976 -0.56,-1.465 -0.19,-0.488 -0.37,-0.972 -0.56,-1.461 -0.19,-0.488 -0.37,-0.976 -0.56,-1.464 -0.19,-0.489 -0.37,-0.977 -0.56,-1.461 -0.19,-0.489 -0.37,-0.977 -0.56,-1.465 -0.19,-0.488 -0.37,-0.977 -0.56,-1.465 -0.18,-0.484 -0.37,-0.973 -0.55,-1.461 -0.19,-0.488 -0.38,-0.977 -0.56,-1.465 -0.19,-0.484 -0.38,-0.972 -0.57,-1.461 -0.18,-0.488 -0.37,-0.976 -0.55,-1.465 -0.19,-0.488 -0.38,-0.972 -0.56,-1.461 -0.19,-0.488 -0.37,-0.976 -0.56,-1.464 -0.19,-0.489 -0.37,-0.973 -0.56,-1.461 -0.19,-0.489 -0.37,-0.977 -0.56,-1.465 -0.19,-0.488 -0.37,-0.977 -0.56,-1.461 -0.19,-0.488 -0.37,-0.977 -0.56,-1.465 -0.18,-0.488 -0.37,-0.976 -0.56,-1.465 -0.18,-0.484 -0.37,-0.972 -0.56,-1.461 -0.18,-0.488 -0.37,-0.976 -0.56,-1.465 -0.18,-0.484 -0.37,-0.972 -0.55,-1.46 -0.19,-0.489 -0.38,-0.977 -0.56,-1.465 -0.19,-0.489 -0.37,-0.973 -0.56,-1.461 -0.19,-0.489 -0.37,-0.977 -0.56,-1.465 -0.19,-0.488 -0.38,-0.973 -0.56,-1.461 -0.19,-0.488 -0.37,-0.977 -0.56,-1.465 -0.18,-0.488 -0.37,-0.976 -0.56,-1.461 -0.18,-0.488 -0.37,-0.976 -0.56,-1.465 -0.18,-0.488 -0.37,-0.976 -0.56,-1.461 -0.18,-0.488 -0.37,-0.976 -0.56,-1.464 -0.18,-0.489 -0.37,-0.977 -0.55,-1.465 -0.19,-0.485 -0.38,-0.973 -0.56,-1.461 -0.19,-0.489 -0.38,-0.977 -0.56,-1.465 -0.19,-0.484 -0.38,-0.973 -0.56,-1.461 -0.19,-0.488 -0.38,-0.977 -0.56,-1.465 -0.19,-0.488 -0.37,-0.973 -0.56,-1.461 -0.18,-0.488 -0.37,-0.976 -0.56,-1.465 -0.19,-0.488 -0.37,-0.976 -0.56,-1.461 -0.19,-0.488 -0.37,-0.976 -0.56,-1.464 -0.18,-0.489 -0.37,-0.977 -0.56,-1.461 -0.18,-0.489 -0.37,-0.977 -0.55,-1.465 -0.19,-0.488 -0.38,-0.977 -0.56,-1.461 -0.19,-0.488 -0.38,-0.977 -0.57,-1.465 -0.18,-0.488 -0.37,-0.977 -0.55,-1.465 -0.19,-0.484 -0.37,-0.972 -0.56,-1.461 -0.19,-0.488 -0.37,-0.976 -0.56,-1.465 -0.19,-0.488 -0.37,-0.972 -0.56,-1.461 -0.19,-0.488 -0.37,-0.976 -0.56,-1.464 -0.19,-0.489 -0.37,-0.973 -0.56,-1.461 -0.18,-0.489 -0.37,-0.977 -0.56,-1.465 -0.18,-0.488 -0.37,-0.977 -0.56,-1.461 -0.18,-0.488 -0.37,-0.977 -0.56,-1.465 -0.18,-0.488 -0.37,-0.977 -0.56,-1.461 -0.18,-0.488 -0.37,-0.976 -0.55,-1.465 -0.19,-0.488 -0.37,-0.976 -0.56,-1.465 -0.19,-0.484 -0.37,-0.972 -0.56,-1.461 -0.19,-0.488 -0.37,-0.976 -0.56,-1.464 -0.19,-0.489 -0.37,-0.973 -0.56,-1.461 -0.19,-0.489 -0.37,-0.977 -0.56,-1.465 -0.18,-0.488 -0.37,-0.977 -0.56,-1.461 -0.18,-0.488 -0.37,-0.977 -0.56,-1.465 -0.18,-0.488 -0.37,-0.976 -0.56,-1.461 -0.18,-0.488 -0.37,-0.976 -0.55,-1.4647 -0.19,-0.4883 -0.38,-0.9766 -0.56,-1.461 -0.19,-0.4882 -0.37,-0.9765 -0.56,-1.4648 -0.19,-0.4883 -0.38,-0.9766 -0.56,-1.4648 -0.19,-0.4844 -0.38,-0.9727 -0.56,-1.461 -0.19,-0.4883 -0.37,-0.9765 -0.56,-1.4648 -0.19,-0.4844 -0.37,-0.9727 -0.56,-1.461 -0.18,-0.4882 -0.37,-0.9765 -0.56,-1.4648 -0.18,-0.4883 -0.37,-0.9727 -0.56,-1.4609 -0.19,-0.4883 -0.37,-0.9766 -0.56,-1.4649 -0.18,-0.4883 -0.37,-0.9765 -0.55,-1.4609 -0.19,-0.4883 -0.38,-0.9766 -0.56,-1.4649 -0.19,-0.4882 -0.38,-0.9765 -0.56,-1.4609 -0.19,-0.4883 -0.38,-0.9766 -0.56,-1.4648 -0.19,-0.4883 -0.38,-0.9766 -0.56,-1.4649 -0.19,-0.4844 -0.37,-0.9726 -0.56,-1.4609 -0.19,-0.4883 -0.37,-0.9766 -0.56,-1.4649 -0.19,-0.4843 -0.37,-0.9726 -0.56,-1.4609 -0.19,-0.4883 -0.37,-0.9766 -0.56,-1.4649 -0.18,-0.4882 -0.37,-0.9726 -0.56,-1.4609 -0.18,-0.4883 -0.37,-0.9766 -0.55,-1.4648 -0.19,-0.4883 -0.38,-0.9766 -0.56,-1.461 -0.19,-0.4883 -0.38,-0.9765 -0.56,-1.4648 -0.19,-0.4883 -0.38,-0.9766 -0.56,-1.461 -0.19,-0.4882 -0.38,-0.9765 -0.56,-1.4648 -0.19,-0.4883 -0.37,-0.9766 -0.56,-1.4648 -0.19,-0.4844 -0.37,-0.9727 -0.56,-1.461 -0.19,-0.4883 -0.37,-0.9765 -0.56,-1.4648 -0.19,-0.4844 -0.37,-0.9727 -0.56,-1.461 -0.18,-0.4882 -0.37,-0.9765 -0.56,-1.4648 -0.18,-0.4883 -0.37,-0.9727 -0.56,-1.4609 -0.18,-0.4883 -0.37,-0.9766 -0.56,-1.4649 -0.18,-0.4883 -0.37,-0.9726 -0.56,-1.4609 -0.18,-0.4883 -0.37,-0.9766 -0.55,-1.4649 -0.19,-0.4882 -0.38,-0.9726 -0.56,-1.4609 -0.19,-0.4883 -0.38,-0.9766 -0.56,-1.4648 -0.19,-0.4883 -0.37,-0.9766 -0.56,-1.461 -0.19,-0.4883 -0.37,-0.9765 -0.56,-1.4648 -0.19,-0.4883 -0.37,-0.9766 -0.56,-1.4649 -0.18,-0.4843 -0.37,-0.9726 -0.56,-1.4609 -0.18,-0.4883 -0.37,-0.9766 -0.56,-1.4649 -0.18,-0.4843 -0.37,-0.9726 -0.56,-1.4609 -0.18,-0.4883 -0.37,-0.9766 -0.56,-1.4648 -0.18,-0.4883 -0.37,-0.9727 -0.55,-1.461 -0.19,-0.4883 -0.38,-0.9765 -0.56,-1.4648 -0.19,-0.4883 -0.38,-0.9727 -0.56,-1.461 -0.19,-0.4882 -0.38,-0.9765 -0.56,-1.4648 -0.19,-0.4883 -0.37,-0.9766 -0.56,-1.4609 -0.19,-0.4883 -0.37,-0.9766 -0.56,-1.4649 -0.18,-0.4883 -0.37,-0.9765 -0.56,-1.4648 -0.19,-0.4844 -0.37,-0.9727 -0.56,-1.461 -0.19,-0.4882 -0.37,-0.9765 -0.56,-1.4648 -0.18,-0.4844 -0.37,-0.9727 -0.56,-1.4609 -0.18,-0.4883 -0.37,-0.9766 -0.55,-1.4649 -0.19,-0.4883 -0.38,-0.9726 -0.56,-1.4609 -0.19,-0.4883 -0.38,-0.9766 -0.56,-1.4649 -0.19,-0.4882 -0.38,-0.9726 -0.56,-1.4609 -0.19,-0.4883 -0.37,-0.9766 -0.56,-1.4648 -0.19,-0.4883 -0.37,-0.9766 -0.56,-1.461 -0.19,-0.4883 -0.37,-0.9765 -0.56,-1.4648 -0.19,-0.4883 -0.37,-0.9766 -0.56,-1.461 -0.19,-0.4882 -0.37,-0.9765 -0.56,-1.4648 -0.18,-0.4883 -0.37,-0.97657 -0.56,-1.46095 -0.18,-0.48828 -0.37,-0.97656 -0.55,-1.46484 -0.19,-0.48828 -0.38,-0.97657 -0.57,-1.46485" /><path
         id="path160"
         style="fill:none;stroke:#000000;stroke-width:10;stroke-linecap:butt;stroke-linejoin:miter;stroke-miterlimit:10;stroke-dasharray:none;stroke-opacity:1"
         d="m 962.109,594.914 c 0.204,-0.492 0.407,-0.984 0.61,-1.476 0.203,-0.493 0.41,-0.985 0.613,-1.477 0.203,-0.488 0.406,-0.981 0.609,-1.473 0.204,-0.492 0.407,-0.984 0.614,-1.476 0.203,-0.489 0.406,-0.981 0.609,-1.473 0.203,-0.492 0.406,-0.984 0.609,-1.476 0.207,-0.493 0.411,-0.981 0.614,-1.473 0.203,-0.492 0.406,-0.985 0.609,-1.477 0.203,-0.492 0.41,-0.984 0.613,-1.472 0.204,-0.493 0.407,-0.985 0.61,-1.477 0.203,-0.492 0.406,-0.984 0.613,-1.476 0.203,-0.489 0.406,-0.981 0.609,-1.473 0.204,-0.492 0.407,-0.985 0.61,-1.477 0.207,-0.492 0.41,-0.98 0.613,-1.472 0.203,-0.493 0.406,-0.985 0.609,-1.477 0.207,-0.492 0.407,-0.984 0.614,-1.473 0.203,-0.492 0.406,-0.984 0.609,-1.476 0.203,-0.492 0.406,-0.985 0.613,-1.473 0.204,-0.492 0.407,-0.984 0.61,-1.476 0.203,-0.493 0.406,-0.985 0.609,-1.477 0.207,-0.488 0.41,-0.98 0.613,-1.473 0.204,-0.492 0.407,-0.984 0.61,-1.476 0.207,-0.488 0.41,-0.981 0.613,-1.473 0.203,-0.492 0.406,-0.984 0.609,-1.476 0.204,-0.493 0.411,-0.981 0.614,-1.473 0.203,-0.492 0.406,-0.984 0.609,-1.477 0.203,-0.492 0.406,-0.984 0.609,-1.472 0.208,-0.492 0.411,-0.985 0.614,-1.477 0.203,-0.492 0.406,-0.984 0.609,-1.472 0.207,-0.493 0.41,-0.985 0.613,-1.477 0.204,-0.492 0.407,-0.984 0.61,-1.477 0.203,-0.492 0.406,-0.98 0.613,-1.472 0.203,-0.492 0.406,-0.985 0.609,-1.477 0.204,-0.492 0.407,-0.98 0.61,-1.472 0.207,-0.493 0.41,-0.985 0.613,-1.477 0.203,-0.492 0.406,-0.984 0.609,-1.473 0.208,-0.492 0.411,-0.984 0.614,-1.476 0.203,-0.492 0.406,-0.985 0.609,-1.473 0.203,-0.492 0.406,-0.984 0.613,-1.476 0.204,-0.493 0.407,-0.985 0.61,-1.477 0.203,-0.488 0.406,-0.98 0.613,-1.473 0.203,-0.492 0.406,-0.984 0.609,-1.476 0.204,-0.492 0.407,-0.981 0.614,-1.473 0.199,-0.492 0.406,-0.984 0.609,-1.476 0.203,-0.493 0.406,-0.985 0.609,-1.473 0.204,-0.492 0.407,-0.984 0.614,-1.477 0.203,-0.492 0.406,-0.984 0.609,-1.472 0.203,-0.493 0.406,-0.985 0.613,-1.477 0.204,-0.492 0.407,-0.984 0.61,-1.476 0.203,-0.489 0.406,-0.981 0.609,-1.473 0.207,-0.492 0.41,-0.984 0.613,-1.477 0.204,-0.492 0.407,-0.98 0.61,-1.472 0.203,-0.493 0.406,-0.985 0.613,-1.477 0.203,-0.492 0.406,-0.98 0.609,-1.473 0.204,-0.492 0.411,-0.984 0.614,-1.476 0.203,-0.492 0.406,-0.981 0.609,-1.473 0.203,-0.492 0.406,-0.984 0.61,-1.476 0.207,-0.493 0.41,-0.985 0.613,-1.477 0.203,-0.488 0.406,-0.98 0.609,-1.473 0.203,-0.492 0.41,-0.984 0.613,-1.476 0.204,-0.492 0.407,-0.981 0.61,-1.473 0.203,-0.492 0.406,-0.984 0.609,-1.476 0.208,-0.493 0.408,-0.981 0.618,-1.473 0.2,-0.492 0.4,-0.984 0.61,-1.477 0.2,-0.492 0.41,-0.984 0.61,-1.472 0.2,-0.492 0.4,-0.985 0.61,-1.477 0.2,-0.492 0.41,-0.984 0.61,-1.476 0.2,-0.489 0.41,-0.981 0.61,-1.473 0.2,-0.492 0.41,-0.984 0.61,-1.477 0.21,-0.488 0.41,-0.98 0.61,-1.472 0.21,-0.492 0.41,-0.985 0.62,-1.477 0.2,-0.492 0.4,-0.98 0.61,-1.472 0.2,-0.493 0.4,-0.985 0.6,-1.477 0.21,-0.492 0.42,-0.984 0.62,-1.473 0.2,-0.492 0.4,-0.984 0.61,-1.476 0.2,-0.492 0.4,-0.985 0.61,-1.473 0.2,-0.492 0.41,-0.984 0.61,-1.476 0.2,-0.493 0.41,-0.985 0.61,-1.477 0.21,-0.488 0.41,-0.98 0.61,-1.473 0.21,-0.492 0.41,-0.984 0.61,-1.476 0.21,-0.492 0.41,-0.981 0.62,-1.473 0.2,-0.492 0.4,-0.984 0.6,-1.476 0.21,-0.493 0.41,-0.981 0.62,-1.473 0.2,-0.492 0.4,-0.984 0.61,-1.477 0.2,-0.492 0.4,-0.984 0.61,-1.472 0.2,-0.492 0.41,-0.985 0.61,-1.477 0.2,-0.492 0.41,-0.984 0.61,-1.476 0.21,-0.489 0.41,-0.981 0.61,-1.473 0.21,-0.492 0.41,-0.984 0.61,-1.477 0.21,-0.488 0.41,-0.98 0.62,-1.472 0.2,-0.492 0.4,-0.985 0.6,-1.477 0.21,-0.492 0.41,-0.98 0.62,-1.473 0.2,-0.492 0.4,-0.984 0.61,-1.476 0.2,-0.492 0.4,-0.984 0.61,-1.473 0.2,-0.492 0.41,-0.984 0.61,-1.476 0.2,-0.492 0.41,-0.985 0.61,-1.477 0.2,-0.488 0.41,-0.98 0.61,-1.473 0.21,-0.492 0.41,-0.984 0.61,-1.476 0.21,-0.492 0.41,-0.981 0.62,-1.473 0.2,-0.492 0.4,-0.984 0.6,-1.476 0.21,-0.492 0.41,-0.981 0.61,-1.473 0.21,-0.492 0.41,-0.984 0.62,-1.477 0.2,-0.492 0.4,-0.984 0.61,-1.472 0.2,-0.492 0.41,-0.985 0.61,-1.477 0.2,-0.492 0.41,-0.984 0.61,-1.472 0.2,-0.493 0.41,-0.985 0.61,-1.477 0.21,-0.492 0.41,-0.984 0.61,-1.477 0.21,-0.488 0.41,-0.98 0.61,-1.472 0.21,-0.492 0.41,-0.985 0.61,-1.477 0.21,-0.492 0.41,-0.98 0.61,-1.472 0.21,-0.493 0.41,-0.985 0.62,-1.477 0.2,-0.492 0.4,-0.98 0.61,-1.473 0.2,-0.492 0.4,-0.984 0.61,-1.476 0.2,-0.492 0.41,-0.985 0.61,-1.477 0.2,-0.488 0.41,-0.98 0.61,-1.472 0.21,-0.493 0.41,-0.985 0.61,-1.477 0.21,-0.488 0.41,-0.98 0.61,-1.473 0.2,-0.492 0.41,-0.984 0.61,-1.476 0.21,-0.492 0.41,-0.981 0.61,-1.473 0.21,-0.492 0.41,-0.984 0.62,-1.476 0.2,-0.493 0.4,-0.981 0.61,-1.473 0.2,-0.492 0.4,-0.984 0.61,-1.477 0.2,-0.492 0.41,-0.984 0.61,-1.476 0.2,-0.488 0.41,-0.981 0.61,-1.473 0.2,-0.492 0.41,-0.984 0.61,-1.476 0.21,-0.489 0.41,-0.981 0.61,-1.473 0.2,-0.492 0.41,-0.984 0.61,-1.477 0.21,-0.488 0.41,-0.98 0.61,-1.472 0.21,-0.492 0.41,-0.985 0.61,-1.477 0.21,-0.492 0.41,-0.98 0.62,-1.472 0.2,-0.493 0.4,-0.985 0.61,-1.477 0.2,-0.492 0.41,-0.984 0.61,-1.473 0.2,-0.492 0.41,-0.984 0.61,-1.476 0.2,-0.492 0.41,-0.985 0.61,-1.477 0.21,-0.488 0.41,-0.98 0.61,-1.472 0.2,-0.493 0.41,-0.985 0.61,-1.477 0.21,-0.492 0.41,-0.981 0.61,-1.473 0.21,-0.492 0.41,-0.984 0.61,-1.476 0.21,-0.492 0.41,-0.981 0.62,-1.473 0.2,-0.492 0.4,-0.984 0.61,-1.476 0.2,-0.493 0.4,-0.985 0.61,-1.473 0.2,-0.492 0.41,-0.985 0.61,-1.477 0.2,-0.492 0.41,-0.984 0.61,-1.476 0.21,-0.489 0.41,-0.981 0.61,-1.473 0.2,-0.492 0.41,-0.984 0.61,-1.476 0.21,-0.489 0.41,-0.981 0.61,-1.473 0.21,-0.492 0.41,-0.985 0.61,-1.477 0.21,-0.492 0.41,-0.98 0.62,-1.472 0.2,-0.493 0.4,-0.985 0.61,-1.477 0.2,-0.492 0.4,-0.984 0.61,-1.473 0.2,-0.492 0.41,-0.984 0.61,-1.476 0.2,-0.492 0.41,-0.985 0.61,-1.473 0.21,-0.492 0.41,-0.984 0.61,-1.476 0.2,-0.493 0.41,-0.985 0.61,-1.477 0.2,-0.492 0.41,-0.98 0.61,-1.473 0.21,-0.492 0.41,-0.984 0.61,-1.476 0.21,-0.492 0.41,-0.981 0.62,-1.473 0.2,-0.492 0.4,-0.984 0.61,-1.476 0.2,-0.493 0.4,-0.981 0.61,-1.473 0.2,-0.492 0.41,-0.984 0.61,-1.477 0.2,-0.492 0.41,-0.984 0.61,-1.472 0.2,-0.492 0.41,-0.985 0.61,-1.477 0.2,-0.492 0.41,-0.984 0.61,-1.476 0.2,-0.489 0.41,-0.981 0.61,-1.473 0.21,-0.492 0.41,-0.984 0.61,-1.477 0.21,-0.492 0.41,-0.98 0.62,-1.472 0.2,-0.492 0.4,-0.985 0.61,-1.477 0.2,-0.492 0.4,-0.98 0.61,-1.472 0.2,-0.493 0.41,-0.985 0.61,-1.477 0.2,-0.492 0.41,-0.984 0.61,-1.473 0.2,-0.492 0.4,-0.984 0.61,-1.476 0.2,-0.492 0.41,-0.985 0.61,-1.473 0.2,-0.492 0.41,-0.984 0.61,-1.476 0.2,-0.493 0.41,-0.985 0.61,-1.477 0.21,-0.488 0.41,-0.98 0.61,-1.473 0.21,-0.492 0.41,-0.984 0.62,-1.476 0.2,-0.492 0.4,-0.981 0.61,-1.473 0.2,-0.492 0.4,-0.984 0.61,-1.476 0.2,-0.493 0.41,-0.985 0.61,-1.473 0.2,-0.492 0.4,-0.984 0.61,-1.477 0.2,-0.492 0.41,-0.984 0.61,-1.472 0.2,-0.493 0.41,-0.985 0.61,-1.477 0.21,-0.492 0.41,-0.984 0.61,-1.476 0.21,-0.489 0.41,-0.981 0.61,-1.473 0.21,-0.492 0.41,-0.984 0.62,-1.477 0.2,-0.492 0.4,-0.98 0.61,-1.472 0.2,-0.493 0.41,-0.985 0.61,-1.477 0.2,-0.492 0.41,-0.984 0.61,-1.473 0.2,-0.492 0.4,-0.984 0.61,-1.476 0.2,-0.492 0.41,-0.984 0.61,-1.473 0.2,-0.492 0.41,-0.984 0.61,-1.476 0.21,-0.493 0.41,-0.985 0.61,-1.477 0.21,-0.488 0.41,-0.98 0.61,-1.473 0.21,-0.492 0.41,-0.984 0.62,-1.476 0.2,-0.492 0.4,-0.981 0.61,-1.473 0.2,-0.492 0.4,-0.984 0.61,-1.476 0.2,-0.493 0.41,-0.985 0.61,-1.473 0.2,-0.492 0.4,-0.984 0.61,-1.477 0.2,-0.492 0.41,-0.984 0.61,-1.476 0.2,-0.488 0.41,-0.981 0.61,-1.473 0.2,-0.492 0.41,-0.984 0.61,-1.476 0.21,-0.489 0.41,-0.981 0.61,-1.473 0.21,-0.492 0.41,-0.984 0.62,-1.477 0.2,-0.488 0.4,-0.98 0.61,-1.472 0.2,-0.492 0.4,-0.985 0.61,-1.477 0.2,-0.492 0.41,-0.984 0.61,-1.472 0.2,-0.493 0.4,-0.985 0.61,-1.477 0.2,-0.492 0.4,-0.984 0.61,-1.473 0.2,-0.492 0.41,-0.984 0.61,-1.476 0.2,-0.492 0.41,-0.985 0.61,-1.473 0.21,-0.492 0.41,-0.984 0.61,-1.476 0.21,-0.493 0.41,-0.985 0.61,-1.477 0.21,-0.488 0.41,-0.98 0.62,-1.473 0.2,-0.492 0.4,-0.984 0.61,-1.476 0.2,-0.492 0.41,-0.981 0.61,-1.473 0.2,-0.492 0.4,-0.984 0.61,-1.476 0.2,-0.493 0.4,-0.985 0.61,-1.473 0.2,-0.492 0.41,-0.984 0.61,-1.477 0.2,-0.492 0.41,-0.984 0.61,-1.476 0.21,-0.488 0.41,-0.981 0.61,-1.473 0.21,-0.492 0.41,-0.984 0.61,-1.476 0.21,-0.489 0.41,-0.981 0.62,-1.473 0.2,-0.492 0.4,-0.984 0.61,-1.477 0.2,-0.492 0.4,-0.98 0.61,-1.472 0.2,-0.492 0.4,-0.985 0.61,-1.477 0.2,-0.492 0.4,-0.98 0.61,-1.473 0.2,-0.492 0.41,-0.984 0.61,-1.476 0.2,-0.492 0.41,-0.984 0.61,-1.477 0.2,-0.488 0.41,-0.98 0.61,-1.472 0.21,-0.492 0.41,-0.985 0.61,-1.477 0.21,-0.488 0.41,-0.98 0.61,-1.473 0.21,-0.492 0.41,-0.984 0.62,-1.476 0.2,-0.492 0.4,-0.981 0.6,-1.473 0.21,-0.492 0.41,-0.984 0.62,-1.476 0.2,-0.492 0.4,-0.985 0.61,-1.473 0.2,-0.492 0.41,-0.984 0.61,-1.477 0.2,-0.492 0.41,-0.984 0.61,-1.472 0.2,-0.492 0.41,-0.985 0.61,-1.477 0.21,-0.492 0.41,-0.984 0.61,-1.472 0.21,-0.493 0.41,-0.985 0.61,-1.477 0.21,-0.492 0.41,-0.984 0.62,-1.477 0.2,-0.492 0.4,-0.98 0.6,-1.472 0.21,-0.492 0.41,-0.985 0.62,-1.477 0.2,-0.492 0.4,-0.984 0.61,-1.472 0.2,-0.493 0.4,-0.985 0.61,-1.477 0.2,-0.492 0.41,-0.984 0.61,-1.473 0.2,-0.492 0.41,-0.984 0.61,-1.476 0.21,-0.492 0.41,-0.985 0.61,-1.477 0.21,-0.488 0.41,-0.98 0.61,-1.472 0.2,-0.493 0.41,-0.985 0.62,-1.477 0.2,-0.492 0.4,-0.98 0.6,-1.473 0.21,-0.492 0.41,-0.984 0.62,-1.476 0.2,-0.492 0.4,-0.981 0.61,-1.473 0.2,-0.492 0.4,-0.984 0.61,-1.476 0.2,-0.493 0.41,-0.985 0.61,-1.473 0.2,-0.492 0.41,-0.984 0.61,-1.477 0.21,-0.492 0.41,-0.984 0.61,-1.476 0.21,-0.488 0.41,-0.981 0.61,-1.473 0.2,-0.492 0.41,-0.984 0.62,-1.476 0.2,-0.489 0.4,-0.981 0.6,-1.473 0.21,-0.492 0.41,-0.984 0.61,-1.477 0.21,-0.492 0.41,-0.98 0.62,-1.472 0.2,-0.492 0.4,-0.985 0.61,-1.477 0.2,-0.492 0.41,-0.984 0.61,-1.472 0.2,-0.493 0.41,-0.985 0.61,-1.477 0.2,-0.492 0.41,-0.984 0.61,-1.473 0.21,-0.492 0.41,-0.984 0.61,-1.476 0.2,-0.492 0.41,-0.985 0.62,-1.473 0.2,-0.492 0.4,-0.984 0.6,-1.476 0.21,-0.493 0.41,-0.985 0.61,-1.477 0.21,-0.492 0.41,-0.981 0.62,-1.473 0.2,-0.492 0.4,-0.984 0.61,-1.476 0.2,-0.492 0.4,-0.985 0.61,-1.473 0.2,-0.492 0.41,-0.984 0.61,-1.476 0.2,-0.493 0.41,-0.985 0.61,-1.473 0.21,-0.492 0.41,-0.985 0.61,-1.477 0.2,-0.492 0.41,-0.984 0.61,-1.476 0.21,-0.489 0.41,-0.981 0.61,-1.473 0.21,-0.492 0.41,-0.984 0.61,-1.476 0.21,-0.493 0.41,-0.981 0.62,-1.473 0.2,-0.492 0.4,-0.985 0.61,-1.477 0.2,-0.492 0.41,-0.98 0.61,-1.472 0.2,-0.493 0.41,-0.985 0.61,-1.477 0.2,-0.492 0.41,-0.984 0.61,-1.473 0.2,-0.492 0.41,-0.984 0.61,-1.476 0.2,-0.492 0.41,-0.985 0.61,-1.477 0.2,-0.488 0.41,-0.98 0.61,-1.472 0.21,-0.493 0.41,-0.985 0.61,-1.477 0.21,-0.492 0.41,-0.98 0.62,-1.473 0.2,-0.492 0.4,-0.984 0.61,-1.476 0.2,-0.492 0.4,-0.981 0.61,-1.473 0.2,-0.492 0.41,-0.984 0.61,-1.476 0.2,-0.493 0.41,-0.985 0.61,-1.473 0.2,-0.492 0.41,-0.984 0.61,-1.477 0.2,-0.492 0.41,-0.984 0.61,-1.472 0.2,-0.492 0.41,-0.985 0.61,-1.477 0.21,-0.492 0.41,-0.984 0.61,-1.476 0.21,-0.489 0.41,-0.981 0.61,-1.473 0.21,-0.492 0.41,-0.984 0.62,-1.477 0.2,-0.492 0.4,-0.98 0.61,-1.472 0.2,-0.492 0.4,-0.985 0.61,-1.477 0.2,-0.492 0.41,-0.984 0.61,-1.472 0.2,-0.493 0.41,-0.985 0.61,-1.477 0.2,-0.492 0.41,-0.984 0.61,-1.473 0.2,-0.492 0.41,-0.984 0.61,-1.476 0.21,-0.492 0.41,-0.985 0.61,-1.477 0.21,-0.488 0.41,-0.98 0.61,-1.472 0.21,-0.493 0.41,-0.985 0.62,-1.477 0.2,-0.492 0.4,-0.98 0.61,-1.473 0.2,-0.492 0.4,-0.984 0.61,-1.476 0.2,-0.492 0.41,-0.985 0.61,-1.473 0.2,-0.492 0.4,-0.984 0.61,-1.476 0.2,-0.493 0.41,-0.985 0.61,-1.473 0.2,-0.492 0.41,-0.984 0.61,-1.477 0.21,-0.492 0.41,-0.984 0.61,-1.476 0.21,-0.489 0.41,-0.981 0.61,-1.473 0.21,-0.492 0.41,-0.984 0.62,-1.476 0.2,-0.489 0.4,-0.981 0.61,-1.473 0.2,-0.492 0.4,-0.984 0.61,-1.477 0.2,-0.492 0.41,-0.98 0.61,-1.472 0.2,-0.493 0.4,-0.985 0.61,-1.477 0.2,-0.492 0.41,-0.984 0.61,-1.473 0.2,-0.492 0.41,-0.984 0.61,-1.476 0.2,-0.492 0.41,-0.984 0.61,-1.473 0.21,-0.492 0.41,-0.984 0.61,-1.476 0.21,-0.493 0.41,-0.985 0.62,-1.477 0.2,-0.488 0.4,-0.98 0.61,-1.473 0.2,-0.492 0.4,-0.984 0.61,-1.476 0.2,-0.492 0.41,-0.981 0.61,-1.473 0.2,-0.492 0.4,-0.984 0.61,-1.476 0.2,-0.493 0.41,-0.985 0.61,-1.473 0.2,-0.492 0.41,-0.984 0.61,-1.477 0.2,-0.492 0.41,-0.984 0.61,-1.472 0.21,-0.492 0.41,-0.985 0.61,-1.477 0.21,-0.492 0.41,-0.984 0.61,-1.476 0.21,-0.489 0.41,-0.9808 0.62,-1.473 0.2,-0.4922 0.4,-0.9844 0.61,-1.4766 0.2,-0.4921 0.41,-0.9804 0.61,-1.4726 0.2,-0.4922 0.4,-0.9844 0.61,-1.4766 0.2,-0.4922 0.4,-0.9844 0.61,-1.4726 0.2,-0.4922 0.41,-0.9844 0.61,-1.4766 0.2,-0.4922 0.41,-0.9844 0.61,-1.4727 0.21,-0.4921 0.41,-0.9843 0.61,-1.4765 0.21,-0.4922 0.41,-0.9844 0.61,-1.4766 0.21,-0.4883 0.41,-0.9804 0.62,-1.4726 0.2,-0.4922 0.4,-0.9844 0.61,-1.4766 0.2,-0.4883 0.4,-0.9805 0.61,-1.4727 0.2,-0.4921 0.4,-0.9843 0.61,-1.4765 0.2,-0.4922 0.4,-0.9844 0.61,-1.4727 0.2,-0.4922 0.41,-0.9843 0.61,-1.4765 0.2,-0.4922 0.41,-0.9844 0.61,-1.4727 0.2,-0.4922 0.41,-0.9844 0.61,-1.4766 0.21,-0.4921 0.41,-0.9843 0.61,-1.4765 0.21,-0.4883 0.41,-0.9805 0.62,-1.4727 0.2,-0.4922 0.4,-0.9843 0.61,-1.4765 0.2,-0.4922 0.4,-0.9805 0.6,-1.4727 0.21,-0.4922 0.41,-0.9844 0.62,-1.4766 0.2,-0.4921 0.4,-0.9804 0.61,-1.4726 0.2,-0.4922 0.41,-0.9844 0.61,-1.4766 0.2,-0.4922 0.41,-0.9843 0.61,-1.4726 0.2,-0.4922 0.41,-0.9844 0.61,-1.4766 0.21,-0.4922 0.41,-0.9844 0.61,-1.4766 0.21,-0.4882 0.41,-0.9804 0.61,-1.4726 0.21,-0.4922 0.41,-0.9844 0.62,-1.4766 0.2,-0.4922 0.4,-0.9804 0.6,-1.4726 0.21,-0.4922 0.41,-0.9844 0.62,-1.4766 0.2,-0.4922 0.4,-0.9805 0.61,-1.4726 0.2,-0.4922 0.4,-0.9844 0.61,-1.4766 0.2,-0.4922 0.41,-0.9805 0.61,-1.4727 0.2,-0.4922 0.41,-0.9843 0.61,-1.4765 0.21,-0.4922 0.41,-0.9844 0.61,-1.4766 0.21,-0.4883 0.41,-0.9805 0.61,-1.4726 0.21,-0.4922 0.41,-0.9844 0.62,-1.4766 0.2,-0.4883 0.4,-0.9805 0.6,-1.4727 0.21,-0.4922 0.41,-0.9843 0.62,-1.4765 0.2,-0.4922 0.4,-0.9805 0.61,-1.4727 0.2,-0.4922 0.4,-0.9844 0.61,-1.4765 0.2,-0.4922 0.41,-0.9844 0.61,-1.4727 0.2,-0.4922 0.41,-0.9844 0.61,-1.4766 0.21,-0.4922 0.41,-0.9843 0.61,-1.4726 0.21,-0.4922 0.41,-0.9844 0.61,-1.4766 0.21,-0.4922 0.41,-0.9844 0.62,-1.4765 0.2,-0.4922 0.4,-0.9805 0.6,-1.4727 0.21,-0.4922 0.41,-0.9844 0.62,-1.4766 0.2,-0.4922 0.4,-0.9804 0.61,-1.4726 0.2,-0.4922 0.4,-0.9844 0.61,-1.4766 0.2,-0.4922 0.41,-0.9844 0.61,-1.4726 0.2,-0.4922 0.41,-0.9844 0.61,-1.4766 0.2,-0.4922 0.41,-0.9844 0.61,-1.4727 0.21,-0.4921 0.41,-0.9843 0.61,-1.4765 0.21,-0.4922 0.41,-0.9844 0.61,-1.4766 0.21,-0.4883 0.41,-0.9805 0.61,-1.4726 0.21,-0.4922 0.41,-0.9844 0.61,-1.4766 0.21,-0.4883 0.41,-0.9805 0.62,-1.4727 0.2,-0.4921 0.4,-0.9843 0.61,-1.4765 0.2,-0.4922 0.41,-0.9844 0.61,-1.4727 0.2,-0.4922 0.41,-0.98436 0.61,-1.47654" /><path
         id="path162"
         style="fill:none;stroke:#000000;stroke-width:10;stroke-linecap:butt;stroke-linejoin:miter;stroke-miterlimit:10;stroke-dasharray:none;stroke-opacity:1"
         d="m 2006.8,593.262 c 0.21,-0.504 0.42,-1.004 0.63,-1.508 0.21,-0.504 0.43,-1.004 0.64,-1.508 0.21,-0.5 0.42,-1.004 0.63,-1.508 0.21,-0.5 0.42,-1.004 0.63,-1.504 0.21,-0.504 0.42,-1.007 0.63,-1.507 0.21,-0.504 0.42,-1.008 0.63,-1.508 0.21,-0.504 0.43,-1.004 0.64,-1.508 0.21,-0.5 0.42,-1.004 0.63,-1.508 0.21,-0.5 0.42,-1.004 0.63,-1.508 0.21,-0.5 0.42,-1.004 0.64,-1.504 0.21,-0.503 0.42,-1.007 0.63,-1.507 0.21,-0.504 0.42,-1.004 0.63,-1.508 0.21,-0.504 0.42,-1.004 0.63,-1.508 0.21,-0.5 0.43,-1.004 0.64,-1.508 0.21,-0.5 0.42,-1.004 0.63,-1.504 0.21,-0.504 0.42,-1.008 0.63,-1.508 0.21,-0.503 0.42,-1.003 0.63,-1.507 0.21,-0.504 0.42,-1.004 0.63,-1.508 0.21,-0.504 0.43,-1.004 0.64,-1.508 0.21,-0.5 0.42,-1.004 0.63,-1.504 0.21,-0.504 0.42,-1.008 0.63,-1.508 0.21,-0.504 0.42,-1.008 0.63,-1.508 0.22,-0.503 0.43,-1.003 0.64,-1.507 0.21,-0.504 0.42,-1.004 0.63,-1.508 0.21,-0.5 0.42,-1.004 0.63,-1.508 0.21,-0.5 0.43,-1.004 0.64,-1.504 0.21,-0.504 0.42,-1.008 0.63,-1.508 0.21,-0.504 0.42,-1.004 0.63,-1.507 0.21,-0.504 0.42,-1.004 0.63,-1.508 0.21,-0.5 0.42,-1.004 0.63,-1.508 0.21,-0.5 0.43,-1.004 0.64,-1.504 0.21,-0.504 0.42,-1.008 0.63,-1.508 0.21,-0.504 0.42,-1.004 0.63,-1.508 0.21,-0.504 0.42,-1.004 0.63,-1.507 0.22,-0.504 0.43,-1.004 0.64,-1.508 0.21,-0.5 0.42,-1.004 0.63,-1.504 0.21,-0.504 0.42,-1.008 0.63,-1.508 0.21,-0.504 0.43,-1.008 0.64,-1.508 0.21,-0.504 0.41,-1.004 0.62,-1.508 0.22,-0.504 0.43,-1.004 0.64,-1.507 0.21,-0.5 0.42,-1.004 0.63,-1.508 0.21,-0.5 0.42,-1.004 0.63,-1.504 0.21,-0.504 0.43,-1.008 0.64,-1.508 0.21,-0.504 0.42,-1.004 0.63,-1.508 0.21,-0.504 0.42,-1.004 0.63,-1.508 0.21,-0.5 0.42,-1.003 0.63,-1.507 0.22,-0.5 0.43,-1.004 0.64,-1.504 0.21,-0.504 0.42,-1.008 0.63,-1.508 0.21,-0.504 0.42,-1.004 0.63,-1.508 0.21,-0.504 0.42,-1.004 0.64,-1.508 0.21,-0.5 0.42,-1.004 0.63,-1.508 0.21,-0.5 0.42,-1.003 0.63,-1.507 0.21,-0.5 0.42,-1.004 0.63,-1.504 0.21,-0.504 0.42,-1.008 0.63,-1.508 0.21,-0.504 0.43,-1.004 0.64,-1.508 0.21,-0.504 0.42,-1.004 0.63,-1.508 0.21,-0.5 0.42,-1.004 0.63,-1.508 0.21,-0.5 0.42,-1.003 0.63,-1.503 0.22,-0.504 0.43,-1.008 0.64,-1.508 0.21,-0.504 0.42,-1.004 0.63,-1.508 0.21,-0.504 0.42,-1.004 0.63,-1.508 0.21,-0.504 0.42,-1.004 0.63,-1.508 0.22,-0.5 0.42,-1.004 0.64,-1.504 0.21,-0.503 0.42,-1.007 0.63,-1.507 0.21,-0.504 0.42,-1.008 0.63,-1.508 0.21,-0.504 0.42,-1.004 0.63,-1.508 0.21,-0.504 0.42,-1.004 0.64,-1.508 0.21,-0.5 0.42,-1.004 0.63,-1.508 0.21,-0.5 0.42,-1.004 0.63,-1.504 0.21,-0.503 0.42,-1.007 0.63,-1.507 0.22,-0.504 0.43,-1.004 0.64,-1.508 0.21,-0.504 0.42,-1.004 0.63,-1.508 0.21,-0.5 0.42,-1.004 0.63,-1.508 0.21,-0.5 0.42,-1.004 0.64,-1.504 0.21,-0.504 0.42,-1.008 0.63,-1.508 0.21,-0.503 0.42,-1.003 0.63,-1.507 0.21,-0.504 0.42,-1.004 0.63,-1.508 0.21,-0.5 0.42,-1.004 0.63,-1.508 0.21,-0.5 0.42,-1.004 0.64,-1.504 0.21,-0.504 0.42,-1.008 0.63,-1.508 0.21,-0.504 0.42,-1.004 0.63,-1.507 0.21,-0.504 0.42,-1.004 0.63,-1.508 0.22,-0.504 0.43,-1.004 0.64,-1.508 0.21,-0.5 0.42,-1.004 0.63,-1.508 0.21,-0.5 0.42,-1.004 0.63,-1.504 0.21,-0.504 0.42,-1.008 0.64,-1.508 0.21,-0.504 0.42,-1.004 0.63,-1.507 0.21,-0.504 0.42,-1.004 0.63,-1.508 0.21,-0.5 0.42,-1.004 0.63,-1.508 0.21,-0.5 0.42,-1.004 0.63,-1.504 0.21,-0.504 0.42,-1.008 0.64,-1.508 0.21,-0.504 0.42,-1.004 0.63,-1.508 0.21,-0.504 0.42,-1.004 0.63,-1.507 0.21,-0.5 0.42,-1.004 0.63,-1.508 0.21,-0.5 0.43,-1.004 0.64,-1.508 0.21,-0.5 0.42,-1.004 0.63,-1.504 0.21,-0.504 0.42,-1.008 0.63,-1.508 0.21,-0.504 0.42,-1.004 0.64,-1.508 0.21,-0.503 0.41,-1.003 0.63,-1.507 0.21,-0.5 0.42,-1.004 0.63,-1.508 0.21,-0.5 0.42,-1.004 0.63,-1.504 0.21,-0.504 0.42,-1.008 0.63,-1.508 0.21,-0.504 0.42,-1.004 0.64,-1.508 0.21,-0.504 0.42,-1.004 0.63,-1.508 0.21,-0.5 0.42,-1.003 0.63,-1.507 0.21,-0.5 0.42,-1.004 0.63,-1.504 0.21,-0.504 0.43,-1.008 0.64,-1.508 0.21,-0.504 0.42,-1.004 0.63,-1.508 0.21,-0.504 0.42,-1.004 0.63,-1.508 0.21,-0.5 0.42,-1.004 0.64,-1.508 0.21,-0.5 0.42,-1.003 0.63,-1.503 0.2,-0.504 0.42,-1.008 0.63,-1.508 0.21,-0.504 0.42,-1.004 0.63,-1.508 0.21,-0.504 0.42,-1.004 0.63,-1.508 0.21,-0.504 0.42,-1.004 0.64,-1.508 0.21,-0.5 0.42,-1.004 0.63,-1.507 0.21,-0.5 0.42,-1.004 0.63,-1.504 0.21,-0.504 0.42,-1.008 0.63,-1.508 0.21,-0.504 0.43,-1.004 0.64,-1.508 0.21,-0.504 0.42,-1.004 0.63,-1.508 0.21,-0.5 0.42,-1.004 0.63,-1.508 0.21,-0.5 0.42,-1.004 0.63,-1.504 0.22,-0.503 0.42,-1.007 0.63,-1.507 0.21,-0.504 0.43,-1.004 0.64,-1.508 0.21,-0.504 0.42,-1.004 0.63,-1.508 0.21,-0.504 0.42,-1.004 0.63,-1.508 0.21,-0.5 0.42,-1.004 0.64,-1.508 0.21,-0.5 0.42,-1.004 0.63,-1.504 0.21,-0.503 0.42,-1.007 0.63,-1.507 0.21,-0.504 0.42,-1.004 0.63,-1.508 0.21,-0.504 0.43,-1.004 0.64,-1.508 0.21,-0.5 0.42,-1.004 0.63,-1.508 0.21,-0.5 0.42,-1.004 0.63,-1.508 0.21,-0.5 0.42,-1.003 0.63,-1.503 0.22,-0.504 0.43,-1.004 0.64,-1.508 0.2,-0.504 0.42,-1.004 0.63,-1.508 0.21,-0.5 0.42,-1.004 0.63,-1.508 0.21,-0.5 0.42,-1.004 0.63,-1.508 0.21,-0.5 0.42,-1.004 0.63,-1.504 0.22,-0.504 0.43,-1.007 0.64,-1.507 0.21,-0.504 0.42,-1.004 0.63,-1.508 0.21,-0.5 0.42,-1.004 0.63,-1.508 0.21,-0.5 0.43,-1.004 0.64,-1.508 0.21,-0.5 0.42,-1.004 0.63,-1.504 0.21,-0.504 0.42,-1.008 0.63,-1.508 0.21,-0.504 0.42,-1.004 0.63,-1.507 0.22,-0.504 0.43,-1.004 0.63,-1.508 0.21,-0.5 0.43,-1.004 0.64,-1.508 0.21,-0.5 0.42,-1.004 0.63,-1.504 0.21,-0.504 0.42,-1.008 0.63,-1.508 0.21,-0.504 0.42,-1.004 0.63,-1.508 0.22,-0.503 0.43,-1.003 0.64,-1.507 0.21,-0.5 0.42,-1.004 0.63,-1.508 0.21,-0.5 0.42,-1.004 0.63,-1.508 0.21,-0.5 0.43,-1.004 0.64,-1.504 0.21,-0.504 0.42,-1.004 0.63,-1.508 0.21,-0.504 0.42,-1.004 0.63,-1.508 0.21,-0.503 0.42,-1.003 0.63,-1.507 0.21,-0.5 0.42,-1.004 0.63,-1.508 0.21,-0.5 0.43,-1.004 0.64,-1.504 0.21,-0.504 0.42,-1.008 0.63,-1.508 0.21,-0.504 0.42,-1.004 0.63,-1.508 0.21,-0.504 0.42,-1.004 0.63,-1.508 0.22,-0.5 0.43,-1.003 0.64,-1.507 0.21,-0.5 0.42,-1.004 0.63,-1.504 0.21,-0.504 0.42,-1.008 0.63,-1.508 0.21,-0.504 0.42,-1.008 0.64,-1.508 0.21,-0.504 0.42,-1.004 0.63,-1.508 0.21,-0.504 0.42,-1.004 0.63,-1.507 0.21,-0.5 0.42,-1.004 0.63,-1.504 0.22,-0.504 0.42,-1.008 0.64,-1.508 0.2,-0.504 0.42,-1.004 0.63,-1.508 0.21,-0.504 0.42,-1.004 0.63,-1.508 0.21,-0.504 0.42,-1.004 0.63,-1.508 0.21,-0.5 0.42,-1.004 0.63,-1.507 0.22,-0.5 0.43,-1.004 0.64,-1.504 0.21,-0.504 0.42,-1.008 0.63,-1.508 0.21,-0.504 0.42,-1.004 0.63,-1.508 0.21,-0.504 0.42,-1.004 0.64,-1.508 0.21,-0.5 0.42,-1.004 0.63,-1.508 0.21,-0.5 0.42,-1.004 0.63,-1.504 0.21,-0.503 0.42,-1.007 0.63,-1.507 0.21,-0.504 0.42,-1.004 0.63,-1.508 0.21,-0.504 0.42,-1.004 0.64,-1.508 0.21,-0.504 0.42,-1.004 0.63,-1.508 0.21,-0.5 0.42,-1.004 0.63,-1.504 0.21,-0.504 0.42,-1.007 0.63,-1.507 0.22,-0.504 0.43,-1.008 0.64,-1.508 0.21,-0.504 0.42,-1.004 0.63,-1.508 0.21,-0.504 0.42,-1.004 0.63,-1.508 0.21,-0.5 0.42,-1.004 0.64,-1.508 0.21,-0.5 0.42,-1.004 0.63,-1.504 0.21,-0.504 0.42,-1.007 0.63,-1.507 0.21,-0.504 0.42,-1.004 0.63,-1.508 0.21,-0.504 0.42,-1.004 0.63,-1.508 0.21,-0.5 0.42,-1.004 0.64,-1.508 0.21,-0.5 0.42,-1.004 0.63,-1.508 0.21,-0.5 0.42,-1.004 0.63,-1.504 0.21,-0.504 0.42,-1.004 0.63,-1.507 0.22,-0.504 0.43,-1.004 0.64,-1.508 0.21,-0.5 0.42,-1.004 0.63,-1.508 0.21,-0.5 0.42,-1.004 0.63,-1.508 0.21,-0.5 0.42,-1.004 0.64,-1.504 0.21,-0.504 0.42,-1.008 0.63,-1.508 0.21,-0.503 0.42,-1.003 0.63,-1.507 0.21,-0.504 0.42,-1.004 0.63,-1.508 0.21,-0.5 0.42,-1.004 0.63,-1.508 0.21,-0.5 0.42,-1.004 0.64,-1.504 0.21,-0.504 0.42,-1.008 0.63,-1.508 0.21,-0.504 0.42,-1.004 0.63,-1.508 0.21,-0.503 0.42,-1.003 0.63,-1.507 0.21,-0.5 0.43,-1.004 0.64,-1.508 0.21,-0.5 0.42,-1.004 0.63,-1.504 0.21,-0.504 0.42,-1.008 0.63,-1.508 0.21,-0.504 0.42,-1.008 0.64,-1.508 0.21,-0.504 0.42,-1.004 0.63,-1.508 0.21,-0.503 0.42,-1.003 0.63,-1.507 0.21,-0.5 0.42,-1.004 0.63,-1.504 0.21,-0.504 0.42,-1.008 0.63,-1.508 0.21,-0.504 0.42,-1.008 0.64,-1.508 0.21,-0.504 0.42,-1.004 0.63,-1.508 0.21,-0.504 0.42,-1.004 0.63,-1.507 0.21,-0.5 0.42,-1.004 0.63,-1.508 0.21,-0.5 0.43,-1.004 0.64,-1.504 0.21,-0.504 0.42,-1.008 0.63,-1.508 0.21,-0.504 0.42,-1.004 0.63,-1.508 0.21,-0.504 0.42,-1.004 0.64,-1.508 0.21,-0.5 0.42,-1.004 0.62,-1.507 0.21,-0.5 0.43,-1.004 0.64,-1.504 0.21,-0.504 0.42,-1.008 0.63,-1.508 0.21,-0.504 0.42,-1.004 0.63,-1.508 0.21,-0.504 0.42,-1.004 0.64,-1.508 0.21,-0.504 0.42,-1.004 0.63,-1.508 0.21,-0.5 0.42,-1.004 0.63,-1.507 0.21,-0.5 0.42,-1.004 0.63,-1.504 0.21,-0.504 0.43,-1.008 0.64,-1.508 0.21,-0.504 0.42,-1.004 0.63,-1.508 0.21,-0.504 0.42,-1.004 0.63,-1.508 0.21,-0.5 0.42,-1.004 0.63,-1.508 0.22,-0.5 0.43,-1.003 0.64,-1.503 0.21,-0.504 0.42,-1.008 0.63,-1.508 0.21,-0.504 0.42,-1.004 0.63,-1.508 0.21,-0.504 0.42,-1.004 0.63,-1.508 0.21,-0.5 0.42,-1.004 0.64,-1.508 0.21,-0.5 0.42,-1.004 0.63,-1.508 0.21,-0.5 0.42,-1.003 0.63,-1.503 0.21,-0.504 0.42,-1.008 0.63,-1.508 0.21,-0.504 0.43,-1.004 0.64,-1.508 0.21,-0.504 0.42,-1.004 0.63,-1.508 0.21,-0.5 0.42,-1.004 0.63,-1.508 0.21,-0.5 0.42,-1.004 0.63,-1.504 0.22,-0.504 0.42,-1.007 0.64,-1.507 0.21,-0.504 0.42,-1.004 0.63,-1.508 0.21,-0.504 0.42,-1.004 0.63,-1.508 0.21,-0.5 0.42,-1.004 0.63,-1.508 0.21,-0.5 0.42,-1.004 0.63,-1.504 0.22,-0.504 0.43,-1.008 0.64,-1.508 0.21,-0.503 0.42,-1.003 0.63,-1.507 0.21,-0.504 0.42,-1.004 0.63,-1.508 0.21,-0.5 0.43,-1.004 0.64,-1.508 0.21,-0.5 0.42,-1.004 0.63,-1.508 0.21,-0.5 0.42,-1.004 0.63,-1.504 0.21,-0.504 0.42,-1.004 0.63,-1.508 0.22,-0.503 0.42,-1.003 0.63,-1.507 0.22,-0.5 0.43,-1.004 0.64,-1.508 0.21,-0.5 0.42,-1.004 0.63,-1.508 0.21,-0.5 0.42,-1.004 0.63,-1.504 0.21,-0.504 0.42,-1.008 0.63,-1.508 0.22,-0.504 0.43,-1.004 0.64,-1.508 0.21,-0.503 0.42,-1.003 0.63,-1.507 0.21,-0.5 0.42,-1.004 0.63,-1.508 0.21,-0.5 0.43,-1.004 0.64,-1.504 0.21,-0.504 0.42,-1.008 0.63,-1.508 0.21,-0.504 0.42,-1.004 0.63,-1.508 0.21,-0.504 0.42,-1.004 0.63,-1.507 0.22,-0.5 0.43,-1.004 0.63,-1.508 0.22,-0.5 0.43,-1.004 0.64,-1.508 0.21,-0.5 0.42,-1.004 0.63,-1.504 0.21,-0.504 0.42,-1.008 0.63,-1.508 0.21,-0.504 0.42,-1.004 0.63,-1.508 0.22,-0.504 0.43,-1.004 0.64,-1.507 0.21,-0.5 0.42,-1.004 0.63,-1.508 0.21,-0.5 0.42,-1.004 0.63,-1.504 0.21,-0.504 0.42,-1.008 0.64,-1.508 0.21,-0.504 0.42,-1.004 0.63,-1.508 0.21,-0.504 0.42,-1.004 0.63,-1.508 0.21,-0.5 0.42,-1.004 0.63,-1.507 0.22,-0.5 0.43,-1.004 0.63,-1.508 0.22,-0.5 0.43,-1.004 0.64,-1.504 0.21,-0.504 0.42,-1.008 0.63,-1.508 0.21,-0.504 0.42,-1.004 0.63,-1.508 0.21,-0.504 0.42,-1.004 0.63,-1.508 0.22,-0.5 0.43,-1.003 0.64,-1.507 0.21,-0.5 0.42,-1.004 0.63,-1.504 0.21,-0.504 0.42,-1.008 0.63,-1.508 0.21,-0.504 0.42,-1.004 0.64,-1.508 0.21,-0.504 0.42,-1.004 0.63,-1.508 0.21,-0.5 0.42,-1.004 0.63,-1.508 0.21,-0.5 0.42,-1.003 0.63,-1.503 0.22,-0.504 0.43,-1.008 0.64,-1.508 0.21,-0.504 0.41,-1.004 0.63,-1.508 0.21,-0.504 0.42,-1.004 0.63,-1.508 0.21,-0.5 0.42,-1.004 0.63,-1.508 0.21,-0.5 0.42,-1.004 0.63,-1.504 0.22,-0.504 0.43,-1.007 0.64,-1.507 0.21,-0.504 0.42,-1.008 0.63,-1.508 0.21,-0.504 0.42,-1.004 0.63,-1.508 0.21,-0.504 0.42,-1.004 0.64,-1.508 0.21,-0.5 0.42,-1.004 0.63,-1.508 0.21,-0.5 0.42,-1.004 0.63,-1.504 0.21,-0.503 0.42,-1.007 0.63,-1.507 0.21,-0.504 0.43,-1.004 0.63,-1.508 0.21,-0.504 0.42,-1.004 0.64,-1.508 0.21,-0.5 0.42,-1.004 0.63,-1.508 0.21,-0.5 0.42,-1.004 0.63,-1.504 0.21,-0.504 0.42,-1.008 0.63,-1.508 0.22,-0.503 0.43,-1.003 0.64,-1.507 0.21,-0.504 0.42,-1.004 0.63,-1.508 0.21,-0.504 0.42,-1.004 0.63,-1.508 0.21,-0.5 0.42,-1.004 0.64,-1.508 0.21,-0.5 0.42,-1.004 0.63,-1.504 0.21,-0.504 0.42,-1.008 0.63,-1.508 0.21,-0.503 0.42,-1.003 0.63,-1.507 0.21,-0.504 0.43,-1.004 0.63,-1.508 0.21,-0.5 0.42,-1.004 0.64,-1.508 0.21,-0.5 0.42,-1.004 0.63,-1.504 0.21,-0.504 0.42,-1.008 0.63,-1.508 0.21,-0.5036 0.42,-1.0036 0.63,-1.5075 0.21,-0.5039 0.43,-1.0039 0.64,-1.5078 0.21,-0.5 0.42,-1.0039 0.63,-1.5078 0.21,-0.5 0.42,-1.0039 0.63,-1.5078 0.21,-0.5 0.42,-1.0039 0.64,-1.5039 0.21,-0.5039 0.42,-1.0039 0.63,-1.5079 0.21,-0.5039 0.42,-1.0039 0.63,-1.5078 0.21,-0.5 0.42,-1.0039 0.63,-1.5078 0.21,-0.5 0.42,-1.0039 0.63,-1.5078 0.21,-0.5 0.42,-1.0039 0.64,-1.5039 0.21,-0.5039 0.42,-1.0039 0.63,-1.5078 0.21,-0.5039 0.42,-1.0039 0.63,-1.5078 0.21,-0.5039 0.42,-1.0039 0.63,-1.5078 0.21,-0.5 0.43,-1.0039 0.64,-1.5078 0.21,-0.5 0.42,-1.004 0.63,-1.504 0.21,-0.5039 0.42,-1.0078 0.63,-1.5078 0.21,-0.5039 0.42,-1.0039 0.64,-1.5078 0.21,-0.5039 0.42,-1.0039 0.63,-1.5078 0.21,-0.5039 0.42,-1.0039 0.63,-1.5078 0.21,-0.5 0.42,-1.0039 0.63,-1.5039 0.21,-0.5039 0.42,-1.0078 0.63,-1.5078 0.21,-0.5039 0.42,-1.0078 0.64,-1.5078 0.21,-0.5039 0.42,-1.0039 0.63,-1.5078 0.21,-0.504 0.42,-1.004 0.63,-1.5079 0.21,-0.5 0.42,-1.0039 0.63,-1.5039 0.21,-0.5039 0.43,-1.0078 0.64,-1.5078 0.21,-0.5039 0.42,-1.0078 0.63,-1.5078 0.21,-0.5039 0.42,-1.0039 0.63,-1.5078 0.21,-0.5039 0.42,-1.0039 0.63,-1.5078 0.22,-0.5 0.43,-1.0039 0.64,-1.5078 0.21,-0.5 0.42,-1.0039 0.63,-1.5039 0.21,-0.5039 0.42,-1.0078 0.63,-1.5078 0.21,-0.504 0.42,-1.004 0.63,-1.5079 0.21,-0.5039 0.42,-1.0039 0.64,-1.5078 0.21,-0.5039 0.42,-1.0039 0.63,-1.5078 0.21,-0.5 0.42,-1.0039 0.63,-1.5078 0.21,-0.5 0.42,-1.0039 0.63,-1.5039 0.21,-0.5039 0.43,-1.0078 0.64,-1.5078 0.21,-0.5039 0.42,-1.0039 0.63,-1.5078 0.21,-0.5039 0.42,-1.0039 0.63,-1.5078 0.21,-0.5 0.42,-1.0039 0.63,-1.5079 0.22,-0.5 0.43,-1.0039 0.64,-1.5039 0.21,-0.5039 0.42,-1.0078 0.63,-1.5078 0.21,-0.5039 0.42,-1.0039 0.63,-1.5078 0.21,-0.5039 0.42,-1.0039 0.63,-1.5078 0.21,-0.5 0.42,-1.0039 0.63,-1.5078 0.22,-0.5 0.43,-1.0039 0.64,-1.5039 0.21,-0.5039 0.42,-1.0078 0.63,-1.5078 0.21,-0.5039 0.42,-1.0039 0.63,-1.5078 0.21,-0.5039 0.43,-1.0039 0.64,-1.5079 0.21,-0.5 0.42,-1.0039 0.63,-1.5078 0.21,-0.5 0.42,-1.0039 0.63,-1.5078 0.21,-0.5 0.42,-1.0039 0.63,-1.5039 0.22,-0.5039 0.43,-1.0039 0.64,-1.5078 0.21,-0.5039 0.42,-1.0039 0.63,-1.5078 0.21,-0.5039 0.42,-1.0039 0.63,-1.5078 0.21,-0.5 0.42,-1.0039 0.63,-1.5078 0.21,-0.5 0.42,-1.0039 0.63,-1.5039 0.22,-0.5039 0.43,-1.0079 0.64,-1.5079 0.21,-0.5039 0.42,-1.0039 0.63,-1.5078 0.21,-0.50387 0.42,-1.00387 0.63,-1.50778" /></g></g></svg>