<?xml version="1.0" encoding="UTF-8" standalone="no"?>
<svg
   xmlns:dc="http://purl.org/dc/elements/1.1/"
   xmlns:cc="http://creativecommons.org/ns#"
   xmlns:rdf="http://www.w3.org/1999/02/22-rdf-syntax-ns#"
   xmlns:svg="http://www.w3.org/2000/svg"
   xmlns="http://www.w3.org/2000/svg"
   viewBox="0 0 115.08 127.45333"
   height="127.45333"
   width="115.08"
   xml:space="preserve"
   id="svg2"
   version="1.1"><metadata
     id="metadata8"><rdf:RDF><cc:Work
         rdf:about=""><dc:format>image/svg+xml</dc:format><dc:type
           rdf:resource="http://purl.org/dc/dcmitype/StillImage" /></cc:Work></rdf:RDF></metadata><defs
     id="defs6" /><g
     transform="matrix(1.3333333,0,0,-1.3333333,0,127.45333)"
     id="g10"><g
       transform="scale(0.1)"
       id="g12"><path
         id="path14"
         style="fill:none;stroke:#000000;stroke-width:3.50079989;stroke-linecap:butt;stroke-linejoin:miter;stroke-miterlimit:10;stroke-dasharray:none;stroke-opacity:1"
         d="M 4.93359,3.75 H 856.313 V 953.809 H 4.93359 Z" /><path
         id="path16"
         style="fill:none;stroke:#000000;stroke-width:7.5005002;stroke-linecap:butt;stroke-linejoin:miter;stroke-miterlimit:10;stroke-dasharray:none;stroke-opacity:1"
         d="M 3.75,479.145 H 821.227" /><path
         id="path18"
         style="fill:#000000;fill-opacity:1;fill-rule:evenodd;stroke:none"
         d="m 856.313,479.145 -70.559,30.238 c 10.078,-20.16 10.078,-40.32 0,-60.481 l 70.559,30.243" /><path
         id="path20"
         style="fill:none;stroke:#000000;stroke-width:7.5005002;stroke-linecap:butt;stroke-linejoin:miter;stroke-miterlimit:10;stroke-dasharray:none;stroke-opacity:1"
         d="M 383.629,3.75 V 916.867" /><path
         id="path22"
         style="fill:#000000;fill-opacity:1;fill-rule:evenodd;stroke:none"
         d="m 383.629,952.328 -30.238,-70.562 c 20.16,10.082 40.32,10.082 60.48,0 l -30.242,70.562" /><path
         id="path24"
         style="fill:#000000;fill-opacity:1;fill-rule:nonzero;stroke:none"
         d="m 335.898,943.48 c 1.063,-1.812 1.797,-3.507 2.204,-5.085 0.406,-1.579 0.812,-4.68 1.218,-9.305 l 2.063,-23.063 c 1.875,2.25 4.594,5.813 8.156,10.688 1.719,2.375 3.844,5.609 6.375,9.703 1.531,2.5 2.469,4.25 2.813,5.25 0.187,0.5 0.281,1.016 0.281,1.547 0,0.344 -0.11,0.625 -0.328,0.844 -0.219,0.218 -0.789,0.476 -1.711,0.773 -0.922,0.297 -1.688,0.844 -2.297,1.641 -0.609,0.797 -0.914,1.711 -0.914,2.742 0,1.281 0.375,2.312 1.125,3.094 0.75,0.781 1.687,1.171 2.812,1.171 1.375,0 2.547,-0.57 3.516,-1.71 0.969,-1.141 1.453,-2.711 1.453,-4.711 0,-2.469 -0.844,-5.289 -2.531,-8.461 -1.688,-3.172 -4.938,-8.039 -9.75,-14.602 -4.813,-6.562 -10.641,-13.719 -17.485,-21.469 -4.718,-5.343 -8.218,-8.711 -10.5,-10.101 -2.281,-1.391 -4.234,-2.086 -5.859,-2.086 -0.969,0 -1.82,0.367 -2.555,1.101 -0.734,0.735 -1.101,1.586 -1.101,2.555 0,1.219 0.508,2.328 1.523,3.328 1.016,1 2.117,1.5 3.305,1.5 0.625,0 1.141,-0.14 1.547,-0.422 0.25,-0.156 0.523,-0.601 0.82,-1.336 0.297,-0.734 0.57,-1.226 0.82,-1.476 0.157,-0.156 0.344,-0.235 0.563,-0.235 0.187,0 0.516,0.157 0.984,0.469 1.719,1.063 3.719,2.75 6,5.063 3,3.062 5.219,5.562 6.657,7.5 l -2.625,29.718 c -0.438,4.907 -1.094,7.891 -1.969,8.954 -0.875,1.062 -2.344,1.593 -4.406,1.593 -0.657,0 -1.829,-0.093 -3.516,-0.281 l -0.422,1.734 13.734,3.375" /><path
         id="path26"
         style="fill:none;stroke:#000000;stroke-width:3.50079989;stroke-linecap:butt;stroke-linejoin:miter;stroke-miterlimit:10;stroke-dasharray:none;stroke-opacity:1"
         d="M 7.05078,857.465 H 856.313" /><path
         id="path28"
         style="fill:none;stroke:#000000;stroke-width:3.50079989;stroke-linecap:butt;stroke-linejoin:miter;stroke-miterlimit:10;stroke-dasharray:none;stroke-opacity:1"
         d="M 5.91016,762.582 H 855.172" /><path
         id="path30"
         style="fill:none;stroke:#000000;stroke-width:3.50079989;stroke-linecap:butt;stroke-linejoin:miter;stroke-miterlimit:10;stroke-dasharray:none;stroke-opacity:1"
         d="M 5.91016,667.758 H 855.172" /><path
         id="path32"
         style="fill:none;stroke:#000000;stroke-width:3.50079989;stroke-linecap:butt;stroke-linejoin:miter;stroke-miterlimit:10;stroke-dasharray:none;stroke-opacity:1"
         d="M 5.91016,572.945 H 855.172" /><path
         id="path34"
         style="fill:none;stroke:#000000;stroke-width:3.50079989;stroke-linecap:butt;stroke-linejoin:miter;stroke-miterlimit:10;stroke-dasharray:none;stroke-opacity:1"
         d="M 7.05078,384.559 H 856.313" /><path
         id="path36"
         style="fill:none;stroke:#000000;stroke-width:3.50079989;stroke-linecap:butt;stroke-linejoin:miter;stroke-miterlimit:10;stroke-dasharray:none;stroke-opacity:1"
         d="M 5.97266,289.973 H 855.23" /><path
         id="path38"
         style="fill:none;stroke:#000000;stroke-width:3.50079989;stroke-linecap:butt;stroke-linejoin:miter;stroke-miterlimit:10;stroke-dasharray:none;stroke-opacity:1"
         d="M 5.97266,195.402 H 855.23" /><path
         id="path40"
         style="fill:none;stroke:#000000;stroke-width:3.50079989;stroke-linecap:butt;stroke-linejoin:miter;stroke-miterlimit:10;stroke-dasharray:none;stroke-opacity:1"
         d="M 5.97266,100.82 H 855.23" /><path
         id="path42"
         style="fill:none;stroke:#000000;stroke-width:3.50079989;stroke-linecap:butt;stroke-linejoin:miter;stroke-miterlimit:10;stroke-dasharray:none;stroke-opacity:1"
         d="M 99.6914,2.62109 V 953.801" /><path
         id="path44"
         style="fill:none;stroke:#000000;stroke-width:3.50079989;stroke-linecap:butt;stroke-linejoin:miter;stroke-miterlimit:10;stroke-dasharray:none;stroke-opacity:1"
         d="M 194.363,2.62109 V 953.801" /><path
         id="path46"
         style="fill:none;stroke:#000000;stroke-width:3.50079989;stroke-linecap:butt;stroke-linejoin:miter;stroke-miterlimit:10;stroke-dasharray:none;stroke-opacity:1"
         d="M 288.656,2.62109 V 953.801" /><path
         id="path48"
         style="fill:none;stroke:#000000;stroke-width:3.50079989;stroke-linecap:butt;stroke-linejoin:miter;stroke-miterlimit:10;stroke-dasharray:none;stroke-opacity:1"
         d="M 477.617,2.62109 V 953.801" /><path
         id="path50"
         style="fill:none;stroke:#000000;stroke-width:3.50079989;stroke-linecap:butt;stroke-linejoin:miter;stroke-miterlimit:10;stroke-dasharray:none;stroke-opacity:1"
         d="M 571.906,2.62109 V 953.801" /><path
         id="path52"
         style="fill:none;stroke:#000000;stroke-width:3.50079989;stroke-linecap:butt;stroke-linejoin:miter;stroke-miterlimit:10;stroke-dasharray:none;stroke-opacity:1"
         d="M 666.578,2.99609 V 954.188" /><path
         id="path54"
         style="fill:none;stroke:#000000;stroke-width:3.50079989;stroke-linecap:butt;stroke-linejoin:miter;stroke-miterlimit:10;stroke-dasharray:none;stroke-opacity:1"
         d="M 760.871,2.99609 V 954.188" /><path
         id="path56"
         style="fill:none;stroke:#000000;stroke-width:10.00059986;stroke-linecap:butt;stroke-linejoin:miter;stroke-miterlimit:10;stroke-dasharray:none;stroke-opacity:1"
         d="M 475.172,498.859 V 461.094" /><path
         id="path58"
         style="fill:none;stroke:#000000;stroke-width:10.00059986;stroke-linecap:butt;stroke-linejoin:miter;stroke-miterlimit:10;stroke-dasharray:none;stroke-opacity:1"
         d="m 364.688,572.945 h 37.753" /><path
         id="path60"
         style="fill:#000000;fill-opacity:1;fill-rule:nonzero;stroke:none"
         d="m 825.566,558.613 c 1.532,-1.625 2.688,-3.25 3.469,-4.875 0.563,-1.125 1.485,-4.078 2.766,-8.859 l 4.125,6.187 c 1.094,1.5 2.422,2.93 3.984,4.289 1.563,1.36 2.938,2.29 4.125,2.79 0.75,0.312 1.578,0.468 2.485,0.468 1.343,0 2.414,-0.359 3.21,-1.078 0.797,-0.719 1.196,-1.594 1.196,-2.625 0,-1.187 -0.235,-2 -0.703,-2.437 -0.875,-0.782 -1.875,-1.172 -3,-1.172 -0.657,0 -1.36,0.14 -2.11,0.422 -1.468,0.5 -2.453,0.75 -2.953,0.75 -0.75,0 -1.64,-0.438 -2.672,-1.313 -1.937,-1.625 -4.25,-4.765 -6.937,-9.422 l 3.844,-16.125 c 0.593,-2.468 1.093,-3.945 1.5,-4.429 0.406,-0.485 0.812,-0.727 1.218,-0.727 0.657,0 1.422,0.359 2.297,1.078 1.719,1.438 3.188,3.313 4.406,5.625 l 1.641,-0.844 c -1.969,-3.687 -4.469,-6.75 -7.5,-9.187 -1.719,-1.375 -3.172,-2.063 -4.359,-2.063 -1.75,0 -3.141,0.985 -4.172,2.954 -0.656,1.218 -2.016,6.468 -4.078,15.75 -4.875,-8.469 -8.782,-13.922 -11.719,-16.36 -1.906,-1.562 -3.75,-2.344 -5.531,-2.344 -1.25,0 -2.391,0.454 -3.422,1.36 -0.75,0.687 -1.125,1.609 -1.125,2.765 0,1.032 0.344,1.891 1.031,2.579 0.688,0.687 1.531,1.031 2.531,1.031 1,0 2.063,-0.5 3.188,-1.5 0.812,-0.719 1.437,-1.078 1.875,-1.078 0.375,0 0.859,0.25 1.453,0.75 1.469,1.187 3.469,3.75 6,7.687 2.531,3.938 4.187,6.781 4.969,8.531 -1.938,7.594 -2.985,11.61 -3.141,12.047 -0.719,2.032 -1.656,3.469 -2.812,4.313 -1.157,0.844 -2.86,1.265 -5.11,1.265 -0.719,0 -1.547,-0.031 -2.484,-0.093 v 1.687 l 12.515,2.203" /><path
         id="path62"
         style="fill:#000000;fill-opacity:1;fill-rule:nonzero;stroke:none"
         d="m 350.59,464.746 c 4.219,-0.004 7.953,-0.914 11.203,-2.742 3.25,-1.832 5.797,-4.531 7.641,-8.113 1.843,-3.575 2.765,-7.286 2.765,-11.133 0,-6.809 -1.976,-13.957 -5.929,-21.445 -3.954,-7.481 -9.118,-13.196 -15.493,-17.129 -6.375,-3.938 -12.968,-5.911 -19.781,-5.911 -4.906,0 -9.008,1.086 -12.305,3.262 -3.296,2.168 -5.734,5.039 -7.312,8.602 -1.578,3.558 -2.367,7.015 -2.367,10.355 0,5.938 1.429,11.805 4.289,17.606 2.859,5.793 6.273,10.636 10.242,14.531 3.969,3.887 8.203,6.883 12.703,8.976 4.5,2.09 9.281,3.137 14.344,3.141 z m -1.594,-3.004 c -3.125,0 -6.18,-0.773 -9.164,-2.316 -2.984,-1.551 -5.945,-4.082 -8.883,-7.598 -2.937,-3.515 -5.578,-8.113 -7.922,-13.801 -2.875,-7 -4.312,-13.609 -4.312,-19.832 0,-4.433 1.14,-8.367 3.422,-11.785 2.281,-3.422 5.781,-5.137 10.5,-5.137 2.843,0 5.633,0.704 8.367,2.11 2.734,1.406 5.586,3.816 8.555,7.222 3.718,4.282 6.843,9.739 9.375,16.379 2.531,6.641 3.796,12.84 3.796,18.586 0,4.254 -1.14,8.008 -3.421,11.278 -2.282,3.261 -5.719,4.894 -10.313,4.894 v 0" /><path
         id="path64"
         style="fill:#000000;fill-opacity:1;fill-rule:nonzero;stroke:none"
         d="m 410.898,592.563 15.469,7.546 h 1.547 v -53.671 c 0,-3.563 0.149,-5.782 0.445,-6.657 0.297,-0.875 0.914,-1.547 1.852,-2.015 0.937,-0.469 2.844,-0.735 5.719,-0.797 v -1.735 h -23.907 v 1.735 c 3,0.062 4.938,0.32 5.813,0.773 0.875,0.453 1.484,1.063 1.828,1.828 0.344,0.766 0.516,3.055 0.516,6.868 v 34.312 c 0,4.625 -0.157,7.594 -0.469,8.906 -0.219,1 -0.617,1.735 -1.195,2.203 -0.578,0.469 -1.274,0.704 -2.086,0.704 -1.157,0 -2.766,-0.485 -4.828,-1.454 l -0.704,1.454" /><path
         id="path66"
         style="fill:#000000;fill-opacity:1;fill-rule:nonzero;stroke:none"
         d="m 486.008,550.867 15.469,7.547 h 1.546 v -53.672 c 0,-3.562 0.149,-5.781 0.446,-6.656 0.297,-0.875 0.914,-1.547 1.851,-2.016 0.938,-0.468 2.844,-0.734 5.719,-0.797 v -1.734 h -23.906 v 1.734 c 3,0.063 4.941,0.321 5.812,0.774 0.875,0.453 1.485,1.062 1.828,1.828 0.344,0.766 0.516,3.055 0.516,6.867 v 34.313 c 0,4.625 -0.156,7.593 -0.469,8.906 -0.218,1 -0.617,1.734 -1.195,2.203 -0.578,0.469 -1.273,0.703 -2.086,0.703 -1.156,0 -2.766,-0.484 -4.828,-1.453 l -0.703,1.453" /><path
         id="path68"
         style="fill:none;stroke:#000000;stroke-width:8;stroke-linecap:butt;stroke-linejoin:miter;stroke-miterlimit:10;stroke-dasharray:none;stroke-opacity:1"
         d="m 343.586,4.51953 c 0,-0.04297 0.73,4.14844 0.73,4.10547 0,-0.04297 0.731,4.1406 0.731,4.0977 0,-0.0469 0.726,4.1328 0.726,4.082 0,-0.0469 0.731,4.125 0.731,4.0742 0,-0.0469 0.73,4.1133 0.73,4.0625 0,-0.0508 0.727,4.1055 0.727,4.0508 0,-0.0547 0.73,4.0937 0.73,4.0391 0,-0.0547 0.731,4.0859 0.731,4.0273 0,-0.0547 0.726,4.0742 0.726,4.0195 0,-0.0586 0.731,4.0625 0.731,4.0039 0,-0.0625 0.73,4.0547 0.73,3.9922 0,-0.0625 0.727,4.0469 0.727,3.9844 0,-0.0664 0.73,4.0352 0.73,3.9687 0,-0.0664 0.731,4.0274 0.731,3.961 0,-0.0664 0.726,4.0156 0.726,3.9453 0,-0.0664 0.731,4.0078 0.731,3.9375 0,-0.0703 0.73,4 0.73,3.9258 0,-0.0703 0.727,3.9883 0.727,3.914 0,-0.0742 0.73,3.9805 0.73,3.9024 0,-0.0742 0.731,3.9687 0.731,3.8906 0,-0.0742 0.726,3.9609 0.726,3.8828 0,-0.0781 0.731,3.9492 0.731,3.8672 0,-0.0781 0.73,3.9414 0.73,3.8594 0,-0.082 0.727,3.9297 0.727,3.8437 0,-0.082 0.73,3.922 0.73,3.836 0,-0.086 0.731,3.91 0.731,3.82 0,-0.086 0.726,3.903 0.726,3.813 0,-0.086 0.731,3.89 0.731,3.801 0,-0.09 0.73,3.878 0.73,3.789 0,-0.09 0.727,3.871 0.727,3.777 0,-0.094 0.73,3.859 0.73,3.766 0,-0.094 0.731,3.851 0.731,3.754 0,-0.094 0.726,3.843 0.726,3.746 0,-0.098 0.731,3.828 0.731,3.73 0,-0.098 0.73,3.82 0.73,3.723 0,-0.102 0.727,3.808 0.727,3.707 0,-0.102 0.73,3.801 0.73,3.699 0,-0.105 0.731,3.789 0.731,3.687 0,-0.105 0.73,3.782 0.73,3.672 0,-0.105 0.727,3.774 0.727,3.664 0,-0.105 0.73,3.762 0.73,3.653 0,-0.106 0.731,3.754 0.731,3.64 0,-0.109 0.726,3.743 0.726,3.633 0,-0.113 0.731,3.731 0.731,3.617 0,-0.113 0.73,3.719 0.73,3.606 0,-0.113 0.727,3.711 0.727,3.598 0,-0.118 0.73,3.699 0.73,3.582 0,-0.118 0.731,3.691 0.731,3.574 0,-0.117 0.726,3.679 0.726,3.562 0,-0.121 0.731,3.668 0.731,3.547 0,-0.121 0.73,3.66 0.73,3.539 0,-0.121 0.727,3.649 0.727,3.528 0,-0.122 0.73,3.64 0.73,3.515 0,-0.125 0.731,3.629 0.731,3.504 0,-0.125 0.726,3.621 0.726,3.496 0,-0.129 0.731,3.606 0.731,3.481 0,-0.129 0.73,3.597 0.73,3.468 0,-0.129 0.727,3.59 0.727,3.461 0,-0.129 0.73,3.578 0.73,3.446 0,-0.129 0.731,3.57 0.731,3.437 0,-0.133 0.726,3.559 0.726,3.426 0,-0.133 0.731,3.547 0.731,3.414 0,-0.137 0.73,3.535 0.73,3.398 0,-0.132 0.727,3.528 0.727,3.391 0,-0.133 0.73,3.516 0.73,3.383 0,-0.137 0.731,3.504 0.731,3.367 0,-0.137 0.726,3.492 0.726,3.356 0,-0.137 0.731,3.484 0.731,3.343 0,-0.136 0.73,3.473 0.73,3.336 0,-0.14 0.727,3.461 0.727,3.321 0,-0.137 0.73,3.453 0.73,3.312 0,-0.141 0.731,3.441 0.731,3.301 0,-0.145 0.726,3.429 0.726,3.289 0,-0.145 0.731,3.418 0.731,3.273 0,-0.14 0.73,3.41 0.73,3.266 0,-0.141 0.727,3.398 0.727,3.254 0,-0.145 0.73,3.39 0.73,3.246 0,-0.149 0.731,3.375 0.731,3.23 0,-0.148 0.726,3.368 0.726,3.219 0,-0.144 0.731,3.356 0.731,3.207 0,-0.144 0.73,3.348 0.73,3.199 0,-0.148 0.727,3.336 0.727,3.188 0,-0.149 0.73,3.32 0.73,3.172 0,-0.149 0.731,3.312 0.731,3.164 0,-0.149 0.73,3.301 0.73,3.152 0,-0.152 0.727,3.289 0.727,3.141 0,-0.153 0.73,3.277 0.73,3.129 0,-0.153 0.731,3.265 0.731,3.117 0,-0.152 0.726,3.258 0.726,3.105 0,-0.152 0.731,3.246 0.731,3.094 0,-0.152 0.73,3.238 0.73,3.086 0,-0.152 0.727,3.223 0.727,3.07 0,-0.152 0.73,3.215 0.73,3.063 0,-0.152 0.731,3.199 0.731,3.047 0,-0.153 0.726,3.191 0.726,3.039 0,-0.153 0.731,3.179 0.731,3.027 0,-0.152 0.73,3.168 0.73,3.016 0,-0.156 0.727,3.156 0.727,3.004 0,-0.157 0.73,3.144 0.73,2.992 0,-0.156 0.731,3.133 0.731,2.98 0,-0.152 0.726,3.125 0.726,2.969 0,-0.152 0.731,3.113 0.731,2.961 0,-0.156 0.73,3.098 0.73,2.945 0,-0.156 0.727,3.09 0.727,2.934 0,-0.152 0.73,3.082 0.73,2.926 0,-0.157 0.731,3.066 0.731,2.914 0,-0.156 0.726,3.054 0.726,2.902 0,-0.156 0.731,3.043 0.731,2.887 0,-0.153 0.73,3.035 0.73,2.879 0,-0.153 0.727,3.023 0.727,2.867 0,-0.152 0.73,3.012 0.73,2.855 0,-0.152 0.731,3 0.731,2.848 0,-0.156 0.726,2.984 0.726,2.832 0,-0.156 0.731,2.977 0.731,2.82 0,-0.152 0.73,2.965 0.73,2.813 0,-0.156 0.727,2.949 0.727,2.797 0,-0.153 0.73,2.941 0.73,2.789 0,-0.153 0.731,2.93 0.731,2.773 0,-0.152 0.726,2.918 0.726,2.766 0,-0.152 0.731,2.906 0.731,2.754 0,-0.153 0.73,2.894 0.73,2.742 0,-0.152 0.727,2.883 0.727,2.73 0,-0.152 0.73,2.872 0.73,2.719 0,-0.148 0.731,2.86 0.731,2.711 0,-0.152 0.726,2.848 0.726,2.695 0,-0.148 0.731,2.836 0.731,2.684 0,-0.148 0.73,2.824 0.73,2.676 0,-0.149 0.727,2.812 0.727,2.664 0,-0.149 0.73,2.797 0.73,2.648 0,-0.148 0.731,2.789 0.731,2.641 0,-0.148 0.726,2.777 0.726,2.629 0,-0.149 0.731,2.762 0.731,2.617 0,-0.148 0.73,2.75 0.73,2.606 0,-0.145 0.727,2.738 0.727,2.593 0,-0.144 0.73,2.727 0.73,2.582 0,-0.144 0.731,2.715 0.731,2.571 0,-0.141 0.73,2.703 0.73,2.562 0,-0.144 0.727,2.692 0.727,2.547 0,-0.141 0.73,2.68 0.73,2.539 0,-0.141 0.731,2.664 0.731,2.523 0,-0.14 0.726,2.657 0.726,2.516 0,-0.141 0.731,2.645 0.731,2.504 0,-0.141 0.73,2.629 0.73,2.492 0,-0.14 0.727,2.617 0.727,2.481 0,-0.137 0.73,2.605 0.73,2.468 0,-0.136 0.731,2.594 0.731,2.457 0,-0.136 0.726,2.582 0.726,2.446 0,-0.133 0.731,2.57 0.731,2.437 0,-0.136 0.73,2.555 0.73,2.422 0,-0.133 0.727,2.543 0.727,2.414 0,-0.133 0.73,2.531 0.73,2.399 0,-0.129 0.731,2.519 0.731,2.39 0,-0.129 0.726,2.508 0.726,2.379 0,-0.129 0.731,2.492 0.731,2.367 0,-0.129 0.73,2.481 0.73,2.356 0,-0.129 0.727,2.469 0.727,2.344 0,-0.129 0.73,2.457 0.73,2.332 0,-0.125 0.731,2.445 0.731,2.32 0,-0.125 0.726,2.43 0.726,2.309 0,-0.122 0.731,2.421 0.731,2.296 0,-0.117 0.73,2.411 0.73,2.289 0,-0.121 0.727,2.395 0.727,2.278 0,-0.121 0.73,2.379 0.73,2.262 0,-0.118 0.731,2.371 0.731,2.253 0,-0.117 0.726,2.356 0.726,2.243 0,-0.118 0.731,2.343 0.731,2.23 0,-0.117 0.73,2.328 0.73,2.219 0,-0.113 0.727,2.316 0.727,2.207 0,-0.113 0.73,2.305 0.73,2.195 0,-0.109 0.731,2.293 0.731,2.184 0,-0.11 0.726,2.281 0.726,2.172 0,-0.106 0.731,2.269 0.731,2.164 0,-0.106 0.73,2.254 0.73,2.148 0,-0.101 0.727,2.242 0.727,2.141 0,-0.102 0.73,2.23 0.73,2.129 0,-0.102 0.731,2.215 0.731,2.113 0,-0.098 0.726,2.207 0.726,2.105 0,-0.097 0.731,2.192 0.731,2.094 0,-0.097 0.73,2.18 0.73,2.082 0,-0.094 0.727,2.168 0.727,2.071 0,-0.094 0.73,2.156 0.73,2.062 0,-0.094 0.731,2.137 0.731,2.047 0,-0.09 0.726,2.125 0.726,2.035 0,-0.09 0.731,2.113 0.731,2.027 0,-0.089 0.73,2.102 0.73,2.012 0,-0.086 0.727,2.09 0.727,2.004 0,-0.086 0.73,2.074 0.73,1.992 0,-0.086 0.731,2.063 0.731,1.981 0,-0.082 0.726,2.047 0.726,1.968 0,-0.082 0.731,2.036 0.731,1.957 0,-0.078 0.73,2.02 0.73,1.946 0,-0.078 0.727,2.008 0.727,1.933 0,-0.074 0.73,1.996 0.73,1.922 0,-0.074 0.731,1.985 0.731,1.914 0,-0.074 0.73,1.969 0.73,1.899 0,-0.071 0.727,1.957 0.727,1.886 0,-0.066 0.73,1.946 0.73,1.879 0,-0.066 0.731,1.93 0.731,1.868 0,-0.067 0.726,1.918 0.726,1.851 0,-0.062 0.731,1.906 0.731,1.844 0,-0.059 0.73,1.894 0.73,1.832 0,-0.059 0.727,1.879 0.727,1.82 0,-0.054 0.73,1.867 0.73,1.809 0,-0.055 0.731,1.855 0.731,1.801 0,-0.055 0.726,1.839 0.726,1.785 0,-0.051 0.731,1.824 0.731,1.773 0,-0.051 0.73,1.817 0.73,1.766 0,-0.051 0.727,1.801 0.727,1.754 0,-0.051 0.73,1.785 0.73,1.738 0,-0.047 0.731,1.773 0.731,1.73 0,-0.043 0.726,1.758 0.726,1.719 0,-0.043 0.731,1.746 0.731,1.707 0,-0.043 0.73,1.731 0.73,1.696 0,-0.04 0.727,1.718 0.727,1.683 0,-0.039 0.73,1.707 0.73,1.672 0,-0.035 0.731,1.695 0.731,1.66 0,-0.031 0.726,1.68 0.726,1.649 0,-0.032 0.731,1.668 0.731,1.64 0,-0.031 0.73,1.653 0.73,1.629 0,-0.027 0.727,1.641 0.727,1.613 0,-0.023 0.73,1.629 0.73,1.606 0,-0.024 0.731,1.613 0.731,1.594 0,-0.024 0.726,1.601 0.726,1.578 0,-0.02 0.731,1.59 0.731,1.57 0,-0.016 0.73,1.578 0.73,1.563 0,-0.02 0.727,1.558 0.727,1.546 0,-0.015 0.73,1.547 0.73,1.536 0,-0.012 0.731,1.535 0.731,1.523 0,-0.008 0.726,1.523 0.726,1.516 0,-0.012 0.731,1.507 0.731,1.5 0,-0.008 0.73,1.496 0.73,1.492 0,-0.008 0.727,1.48 0.727,1.476 l 0.73,1.469 0.731,1.457 c 0,0 0.726,1.442 0.726,1.446 0,0.003 0.731,1.429 0.731,1.433 0,0.004 0.73,1.414 0.73,1.422 0,0.008 0.731,1.402 0.731,1.41 0,0.008 0.726,1.391 0.726,1.399 0,0.011 0.731,1.378 0.731,1.39 0,0.012 0.73,1.363 0.73,1.375 0,0.016 0.727,1.352 0.727,1.367 0,0.016 0.73,1.336 0.73,1.352 0,0.019 0.731,1.324 0.731,1.344 0,0.019 0.726,1.308 0.726,1.332 0,0.019 0.731,1.297 0.731,1.32 0,0.023 0.73,1.281 0.73,1.309 0,0.023 0.727,1.269 0.727,1.297 0,0.027 0.73,1.253 0.73,1.285 0,0.027 0.731,1.242 0.731,1.273 0,0.031 0.726,1.231 0.726,1.262 0,0.035 0.731,1.219 0.731,1.254 0,0.035 0.73,1.203 0.73,1.238 0,0.039 0.727,1.191 0.727,1.23 0,0.04 0.73,1.176 0.73,1.219 0,0.039 0.731,1.164 0.731,1.203 0,0.043 0.726,1.153 0.726,1.196 0,0.043 0.731,1.136 0.731,1.183 0,0.047 0.73,1.125 0.73,1.172 0,0.047 0.727,1.113 0.727,1.16 0,0.051 0.73,1.098 0.73,1.149 0,0.054 0.731,1.086 0.731,1.14 0,0.051 0.726,1.071 0.726,1.125 0,0.055 0.731,1.059 0.731,1.118 0,0.054 0.73,1.043 0.73,1.101 0,0.059 0.727,1.031 0.727,1.094 0,0.058 0.73,1.019 0.73,1.078 0,0.062 0.731,1.008 0.731,1.07 0,0.067 0.726,0.992 0.726,1.059 0,0.066 0.731,0.98 0.731,1.047 0,0.066 0.73,0.969 0.73,1.035 0,0.07 0.727,0.953 0.727,1.023 0,0.071 0.73,0.942 0.73,1.016 0,0.07 0.731,0.926 0.731,1 0,0.074 0.726,0.914 0.726,0.988 0,0.074 0.731,0.903 0.731,0.981 0,0.074 0.73,0.886 0.73,0.965 0,0.082 0.727,0.875 0.727,0.957 0,0.082 0.73,0.863 0.73,0.945 0,0.082 0.731,0.848 0.731,0.934 0,0.082 0.726,0.835 0.726,0.917 0,0.086 0.731,0.825 0.731,0.915 0,0.085 0.73,0.808 0.73,0.898 0,0.086 0.727,0.797 0.727,0.887 0,0.09 0.73,0.785 0.73,0.875 0,0.093 0.731,0.773 0.731,0.867 0,0.09 0.726,0.758 0.726,0.851 0,0.094 0.731,0.747 0.731,0.84 0,0.098 0.73,0.735 0.73,0.832 0,0.098 0.727,0.723 0.727,0.821 0,0.097 0.73,0.707 0.73,0.808 0,0.098 0.731,0.696 0.731,0.797 0,0.102 0.73,0.68 0.73,0.785 0,0.102 0.727,0.668 0.727,0.774 0,0.101 0.73,0.656 0.73,0.761 0,0.106 0.731,0.645 0.731,0.75 0,0.11 0.726,0.633 0.726,0.739 0,0.109 0.731,0.621 0.731,0.73 0,0.11 0.73,0.606 0.73,0.715 0,0.113 0.727,0.594 0.727,0.707 0,0.113 0.73,0.578 0.73,0.695 0,0.114 0.731,0.567 0.731,0.68 0,0.117 0.726,0.555 0.726,0.672 0,0.117 0.731,0.543 0.731,0.66 0,0.117 0.73,0.531 0.73,0.649 0,0.121 0.727,0.519 0.727,0.636 0,0.121 0.73,0.504 0.73,0.629 0,0.121 0.731,0.488 0.731,0.613 0,0.122 0.726,0.481 0.726,0.602 0,0.125 0.731,0.469 0.731,0.594 0,0.125 0.73,0.453 0.73,0.578 0,0.125 0.727,0.441 0.727,0.57 0,0.125 0.73,0.43 0.73,0.559 0,0.125 0.731,0.414 0.731,0.543 0,0.129 0.726,0.406 0.726,0.535 0,0.133 0.731,0.394 0.731,0.523 0,0.133 0.73,0.379 0.73,0.512 0,0.133 0.727,0.367 0.727,0.504 0,0.133 0.73,0.352 0.73,0.488 0,0.133 0.731,0.34 0.731,0.477 0,0.137 0.726,0.332 0.726,0.469 0,0.132 0.731,0.316 0.731,0.453 0,0.136 0.73,0.304 0.73,0.445 0,0.137 0.727,0.293 0.727,0.43 0,0.14 0.73,0.281 0.73,0.422 0,0.14 0.731,0.269 0.731,0.41 0,0.14 0.726,0.258 0.726,0.398 0,0.141 0.731,0.246 0.731,0.387 0,0.14 0.73,0.234 0.73,0.375 0,0.14 0.727,0.223 0.727,0.363 0,0.145 0.73,0.211 0.73,0.356 0,0.14 0.731,0.195 0.731,0.339 0,0.145 0.73,0.184 0.73,0.329 0,0.148 0.727,0.175 0.727,0.32 0,0.144 0.73,0.16 0.73,0.308 0,0.145 0.731,0.149 0.731,0.293 0,0.149 0.726,0.137 0.726,0.286 0,0.148 0.731,0.125 0.731,0.273 0,0.148 0.73,0.113 0.73,0.262 0,0.148 0.727,0.101 0.727,0.25 0,0.148 0.73,0.09 0.73,0.238 0,0.152 0.731,0.078 0.731,0.231 0,0.148 0.726,0.062 0.726,0.214 0,0.149 0.731,0.055 0.731,0.203 0,0.153 0.73,0.043 0.73,0.196 0,0.152 0.727,0.031 0.727,0.179 0,0.153 0.73,0.02 0.73,0.172 0,0.153 0.731,0.008 0.731,0.161 0,0.152 0.726,-0.004 0.726,0.148 0,0.152 0.731,-0.016 0.731,0.137 0,0.152 0.73,-0.028 0.73,0.125 0,0.152 0.727,-0.039 0.727,0.113 0,0.152 0.73,-0.051 0.73,0.102 0,0.156 0.731,-0.063 0.731,0.089 0,0.157 0.726,-0.074 0.726,0.082 0,0.153 0.731,-0.086 0.731,0.067 0,0.156 0.73,-0.098 0.73,0.058 0,0.153 0.727,-0.109 0.727,0.043 0,0.157 0.73,-0.117 0.73,0.036 0,0.156 0.731,-0.133 0.731,0.023 0,0.156 0.726,-0.145 0.726,0.012 0,0.156 0.731,-0.157 0.731,0 0,0.156 0.73,-0.168 0.73,-0.012 0,0.156 0.727,-0.176 0.727,-0.023 0,0.156 0.73,-0.188 0.73,-0.036 0,0.157 0.731,-0.199 0.731,-0.043 0,0.153 0.726,-0.211 0.726,-0.058 0,0.156 0.731,-0.223 0.731,-0.067 0,0.153 0.73,-0.234 0.73,-0.082 0,0.157 0.727,-0.242 0.727,-0.089 0,0.156 0.73,-0.254 0.73,-0.102 0,0.152 0.731,-0.266 0.731,-0.113 0,0.152 0.726,-0.278 0.726,-0.125 0,0.152 0.731,-0.289 0.731,-0.137 0,0.152 0.73,-0.301 0.73,-0.148 0,0.152 0.727,-0.313 0.727,-0.161 0,0.153 0.73,-0.32 0.73,-0.172 0,0.153 0.731,-0.332 0.731,-0.179 0,0.152 0.726,-0.344 0.726,-0.196 0,0.153 0.731,-0.355 0.731,-0.203 0,0.149 0.73,-0.367 0.73,-0.214 0,0.148 0.727,-0.379 0.727,-0.231 0,0.152 0.73,-0.387 0.73,-0.238 0,0.148 0.731,-0.399 0.731,-0.25 0,0.148 0.726,-0.41 0.726,-0.262 0,0.148 0.731,-0.422 0.731,-0.273 0,0.148 0.73,-0.43 0.73,-0.286 0,0.149 0.731,-0.441 0.731,-0.293 0,0.145 0.726,-0.453 0.726,-0.308 0,0.144 0.731,-0.465 0.731,-0.32 0,0.148 0.73,-0.473 0.73,-0.329 0,0.145 0.727,-0.484 0.727,-0.339 0,0.14 0.73,-0.496 0.73,-0.356 0,0.145 0.731,-0.504 0.731,-0.363 0,0.14 0.726,-0.516 0.726,-0.375 0,0.14 0.731,-0.527 0.731,-0.387 0,0.141 0.73,-0.539 0.73,-0.398 0,0.14 0.727,-0.551 0.727,-0.41 0,0.14 0.73,-0.559 0.73,-0.422 0,0.14 0.731,-0.571 0.731,-0.43 0,0.137 0.726,-0.582 0.726,-0.445 0,0.136 0.731,-0.59 0.731,-0.453 0,0.132 0.73,-0.606 0.73,-0.469 0,0.137 0.727,-0.613 0.727,-0.477 0,0.133 0.73,-0.625 0.73,-0.488 0,0.133 0.731,-0.637 0.731,-0.504 0,0.133 0.726,-0.641 0.726,-0.512 0,0.133 0.731,-0.652 0.731,-0.523 0,0.133 0.73,-0.664 0.73,-0.535 0,0.129 0.727,-0.672 0.727,-0.543 0,0.125 0.73,-0.688 0.73,-0.559 0,0.125 0.731,-0.695 0.731,-0.57 0,0.125 0.726,-0.703 0.726,-0.578 0,0.125 0.731,-0.715 0.731,-0.594 0,0.125 0.73,-0.727 0.73,-0.602 0,0.122 0.727,-0.738 0.727,-0.613 0,0.121 0.73,-0.746 0.73,-0.629 0,0.121 0.731,-0.754 0.731,-0.636 0,0.121 0.726,-0.766 0.726,-0.649 0,0.117 0.731,-0.777 0.731,-0.66 0,0.117 0.73,-0.785 0.73,-0.672 0,0.117 0.727,-0.797 0.727,-0.68 0,0.114 0.73,-0.808 0.73,-0.695 0,0.113 0.731,-0.816 0.731,-0.707 0,0.113 0.726,-0.824 0.726,-0.715 0,0.11 0.731,-0.836 0.731,-0.73 0,0.109 0.73,-0.844 0.73,-0.739 0,0.11 0.727,-0.855 0.727,-0.75 0,0.106 0.73,-0.867 0.73,-0.761 0,0.101 0.731,-0.879 0.731,-0.774 0,0.102 0.726,-0.886 0.726,-0.785 0,0.102 0.731,-0.898 0.731,-0.797 0,0.098 0.73,-0.906 0.73,-0.808 0,0.097 0.727,-0.918 0.727,-0.821 0,0.098 0.73,-0.925 0.73,-0.832 0,0.098 0.731,-0.933 0.731,-0.84 0,0.094 0.726,-0.945 0.726,-0.851 0,0.09 0.731,-0.957 0.731,-0.867 0,0.093 0.73,-0.965 0.73,-0.875 0,0.09 0.727,-0.977 0.727,-0.887 0,0.086 0.73,-0.988 0.73,-0.898 0,0.085 0.731,-0.997 0.731,-0.915 0,0.086 0.726,-1.003 0.726,-0.917 0,0.082 0.731,-1.016 0.731,-0.934 0,0.082 0.73,-1.027 0.73,-0.945 0,0.082 0.731,-1.036 0.731,-0.957 0,0.082 0.726,-1.043 0.726,-0.965 0,0.074 0.731,-1.055 0.731,-0.981 0,0.074 0.73,-1.062 0.73,-0.988 0,0.074 0.727,-1.074 0.727,-1 0,0.07 0.73,-1.086 0.73,-1.016 0,0.071 0.731,-1.089 0.731,-1.023 0,0.07 0.726,-1.102 0.726,-1.035 0,0.066 0.731,-1.114 0.731,-1.047 0,0.066 0.73,-1.121 0.73,-1.059 0,0.067 0.727,-1.129 0.727,-1.07 0,0.062 0.73,-1.141 0.73,-1.078 0,0.058 0.731,-1.152 0.731,-1.094 0,0.059 0.726,-1.16 0.726,-1.101 0,0.054 0.731,-1.172 0.731,-1.118 0,0.055 0.73,-1.179 0.73,-1.125 0,0.051 0.727,-1.191 0.727,-1.14 0,0.054 0.73,-1.196 0.73,-1.149 0,0.051 0.731,-1.207 0.731,-1.16 0,0.047 0.726,-1.219 0.726,-1.172 0,0.047 0.731,-1.226 0.731,-1.183 0,0.043 0.73,-1.235 0.73,-1.196 0,0.043 0.727,-1.246 0.727,-1.203 0,0.039 0.73,-1.258 0.73,-1.219 0,0.04 0.731,-1.265 0.731,-1.23 0,0.039 0.726,-1.273 0.726,-1.238 0,0.035 0.731,-1.285 0.731,-1.254 0,0.035 0.73,-1.293 0.73,-1.262 0,0.031 0.727,-1.305 0.727,-1.273 0,0.027 0.73,-1.313 0.73,-1.285 0,0.027 0.731,-1.325 0.731,-1.297 0,0.023 0.726,-1.332 0.726,-1.309 0,0.023 0.731,-1.344 0.731,-1.32 0,0.019 0.73,-1.352 0.73,-1.332 0,0.019 0.727,-1.36 0.727,-1.344 0,0.019 0.73,-1.367 0.73,-1.352 0,0.016 0.731,-1.379 0.731,-1.367 0,0.016 0.726,-1.387 0.726,-1.375 0,0.012 0.731,-1.398 0.731,-1.39 0,0.011 0.73,-1.407 0.73,-1.399 0,0.008 0.727,-1.418 0.727,-1.41 0,0.008 0.73,-1.426 0.73,-1.422 0,0.004 0.731,-1.437 0.731,-1.433 0,0.003 0.73,-1.446 0.73,-1.446 l 0.727,-1.457 c 0,0 0.73,-1.465 0.73,-1.469 0,0 0.731,-1.472 0.731,-1.476 0,-0.008 0.726,-1.485 0.726,-1.492 0,-0.008 0.731,-1.493 0.731,-1.5 0,-0.012 0.73,-1.504 0.73,-1.516 0,-0.008 0.727,-1.512 0.727,-1.523 0,-0.012 0.73,-1.524 0.73,-1.536 0,-0.015 0.731,-1.531 0.731,-1.546 0,-0.02 0.726,-1.543 0.726,-1.563 0,-0.016 0.731,-1.547 0.731,-1.57 0,-0.02 0.73,-1.559 0.73,-1.578 0,-0.024 0.727,-1.571 0.727,-1.594 0,-0.024 0.73,-1.578 0.73,-1.606 0,-0.023 0.731,-1.589 0.731,-1.613 0,-0.027 0.726,-1.601 0.726,-1.629 0,-0.031 0.731,-1.609 0.731,-1.64 0,-0.032 0.73,-1.614 0.73,-1.649 0,-0.031 0.727,-1.625 0.727,-1.66 0,-0.035 0.73,-1.637 0.73,-1.672 0,-0.039 0.731,-1.648 0.731,-1.683 0,-0.04 0.726,-1.657 0.726,-1.696 0,-0.043 0.731,-1.668 0.731,-1.707 0,-0.043 0.73,-1.676 0.73,-1.719 0,-0.043 0.727,-1.683 0.727,-1.73 0,-0.047 0.73,-1.691 0.73,-1.738 0,-0.051 0.731,-1.703 0.731,-1.754 0,-0.051 0.726,-1.715 0.726,-1.766 0,-0.051 0.731,-1.719 0.731,-1.773 0,-0.051 0.73,-1.731 0.73,-1.785 0,-0.055 0.727,-1.743 0.727,-1.801 0,-0.055 0.73,-1.75 0.73,-1.809 0,-0.054 0.731,-1.758 0.731,-1.82 0,-0.059 0.726,-1.77 0.726,-1.832 0,-0.059 0.731,-1.777 0.731,-1.844 0,-0.062 0.73,-1.789 0.73,-1.851 0,-0.067 0.727,-1.801 0.727,-1.868 0,-0.066 0.73,-1.808 0.73,-1.879 0,-0.066 0.731,-1.816 0.731,-1.886 0,-0.071 0.726,-1.828 0.726,-1.899 0,-0.074 0.731,-1.84 0.731,-1.914 0,-0.074 0.73,-1.847 0.73,-1.922 0,-0.074 0.727,-1.859 0.727,-1.933 0,-0.078 0.73,-1.867 0.73,-1.946 0,-0.078 0.731,-1.878 0.731,-1.957 0,-0.082 0.726,-1.886 0.726,-1.968 0,-0.082 0.731,-1.899 0.731,-1.981 0,-0.086 0.73,-1.906 0.73,-1.992 0,-0.086 0.727,-1.914 0.727,-2.004 0,-0.086 0.73,-1.926 0.73,-2.012 0,-0.089 0.731,-1.937 0.731,-2.027 0,-0.09 0.726,-1.945 0.726,-2.035 0,-0.09 0.731,-1.953 0.731,-2.047 0,-0.094 0.73,-1.965 0.73,-2.062 0,-0.094 0.727,-1.973 0.727,-2.071 0,-0.094 0.73,-1.984 0.73,-2.082 0,-0.097 0.731,-1.992 0.731,-2.094 0,-0.097 0.73,-2.003 0.73,-2.105 0,-0.098 0.727,-2.012 0.727,-2.113 0,-0.102 0.73,-2.028 0.73,-2.129 0,-0.102 0.731,-2.035 0.731,-2.141 0,-0.101 0.726,-2.043 0.726,-2.148 0,-0.106 0.731,-2.055 0.731,-2.164 0,-0.106 0.73,-2.063 0.73,-2.172 0,-0.11 0.727,-2.074 0.727,-2.184 0,-0.109 0.73,-2.086 0.73,-2.195 0,-0.113 0.731,-2.098 0.731,-2.207 0,-0.113 0.726,-2.106 0.726,-2.219 0,-0.117 0.731,-2.117 0.731,-2.23 0,-0.118 0.73,-2.125 0.73,-2.243 0,-0.117 0.727,-2.136 0.727,-2.253 0,-0.118 0.73,-2.145 0.73,-2.262 0,-0.121 0.731,-2.156 0.731,-2.278 0,-0.121 0.726,-2.164 0.726,-2.289 0,-0.117 0.731,-2.175 0.731,-2.296 0,-0.122 0.73,-2.184 0.73,-2.309 0,-0.125 0.727,-2.195 0.727,-2.32 0,-0.125 0.73,-2.207 0.73,-2.332 0,-0.129 0.731,-2.219 0.731,-2.344 0,-0.129 0.726,-2.231 0.726,-2.356 0,-0.129 0.731,-2.238 0.731,-2.367 0,-0.129 0.73,-2.25 0.73,-2.379 0,-0.129 0.727,-2.258 0.727,-2.39 0,-0.129 0.73,-2.27 0.73,-2.399 0,-0.133 0.731,-2.281 0.731,-2.414 0,-0.133 0.726,-2.289 0.726,-2.422 0,-0.136 0.731,-2.301 0.731,-2.437 0,-0.133 0.73,-2.309 0.73,-2.446 0,-0.136 0.727,-2.32 0.727,-2.457 0,-0.136 0.73,-2.332 0.73,-2.468 0,-0.137 0.731,-2.344 0.731,-2.481 0,-0.14 0.726,-2.351 0.726,-2.492 0,-0.141 0.731,-2.363 0.731,-2.504 0,-0.141 0.73,-2.375 0.73,-2.516 0,-0.14 0.727,-2.382 0.727,-2.523 0,-0.141 0.73,-2.394 0.73,-2.539 0,-0.141 0.731,-2.406 0.731,-2.547 0,-0.144 0.73,-2.418 0.73,-2.562 0,-0.141 0.727,-2.426 0.727,-2.571 0,-0.144 0.73,-2.437 0.73,-2.582 0,-0.144 0.731,-2.449 0.731,-2.593 0,-0.145 0.726,-2.461 0.726,-2.606 0,-0.148 0.731,-2.469 0.731,-2.617 0,-0.149 0.73,-2.481 0.73,-2.629 0,-0.148 0.727,-2.492 0.727,-2.641 0,-0.148 0.73,-2.5 0.73,-2.648 0,-0.149 0.731,-2.516 0.731,-2.664 0,-0.149 0.726,-2.524 0.726,-2.676 0,-0.148 0.731,-2.531 0.731,-2.684 0,-0.148 0.73,-2.546 0.73,-2.695 0,-0.152 0.727,-2.558 0.727,-2.711 0,-0.148 0.73,-2.566 0.73,-2.719 0,-0.152 0.731,-2.578 0.731,-2.73 0,-0.152 0.726,-2.59 0.726,-2.742 0,-0.153 0.731,-2.602 0.731,-2.754 0,-0.152 0.73,-2.609 0.73,-2.766 0,-0.152 0.727,-2.621 0.727,-2.773 0,-0.153 0.73,-2.637 0.73,-2.789 0,-0.153 0.731,-2.645 0.731,-2.797 0,-0.156 0.726,-2.656 0.726,-2.813 0,-0.152 0.731,-2.668 0.731,-2.82 0,-0.156 0.73,-2.68 0.73,-2.832 0,-0.156 0.727,-2.691 0.727,-2.848 0,-0.152 0.73,-2.699 0.73,-2.855 0,-0.152 0.731,-2.711 0.731,-2.867 0,-0.153 0.726,-2.723 0.726,-2.879 0,-0.153 0.731,-2.735 0.731,-2.887 0,-0.156 0.73,-2.75 0.73,-2.902 0,-0.156 0.727,-2.758 0.727,-2.914 0,-0.157 0.73,-2.77 0.73,-2.926 0,-0.152 0.731,-2.781 0.731,-2.934 0,-0.156 0.726,-2.793 0.726,-2.945 0,-0.156 0.731,-2.805 0.731,-2.961 0,-0.152 0.73,-2.816 0.73,-2.969 0,-0.152 0.727,-2.828 0.727,-2.98 0,-0.156 0.73,-2.84 0.73,-2.992 0,-0.157 0.731,-2.852 0.731,-3.004 0,-0.156 0.726,-2.864 0.726,-3.016 0,-0.152 0.731,-2.875 0.731,-3.027 0,-0.153 0.73,-2.887 0.73,-3.039 0,-0.153 0.727,-2.895 0.727,-3.047 0,-0.152 0.73,-2.91 0.73,-3.063 0,-0.152 0.731,-2.918 0.731,-3.07 0,-0.152 0.726,-2.934 0.726,-3.086 0,-0.152 0.731,-2.941 0.731,-3.094 0,-0.152 0.73,-2.957 0.73,-3.105 0,-0.152 0.727,-2.969 0.727,-3.117 0,-0.153 0.73,-2.981 0.73,-3.129 0,-0.153 0.731,-2.992 0.731,-3.141 0,-0.152 0.726,-3.004 0.726,-3.152 0,-0.149 0.731,-3.016 0.731,-3.164 0,-0.149 0.73,-3.024 0.73,-3.172 0,-0.149 0.727,-3.039 0.727,-3.188 0,-0.148 0.73,-3.05 0.73,-3.199 0,-0.144 0.731,-3.058 0.731,-3.207 0,-0.144 0.73,-3.074 0.73,-3.219 0,-0.148 0.727,-3.086 0.727,-3.23 0,-0.149 0.73,-3.102 0.73,-3.246 0,-0.145 0.73,-3.11 0.73,-3.254 0,-0.141 0.727,-3.121 0.727,-3.266 0,-0.14 0.731,-3.133 0.731,-3.273 0,-0.145 0.73,-3.149 0.73,-3.289 0,-0.145 0.727,-3.16 0.727,-3.301 0,-0.141 0.73,-3.172 0.73,-3.312 0,-0.137 0.73,-3.184 0.73,-3.321 0,-0.14 0.727,-3.195 0.727,-3.336 0,-0.136 0.731,-3.207 0.731,-3.343 0,-0.137 0.73,-3.219 0.73,-3.356 0,-0.137 0.727,-3.234 0.727,-3.367 0,-0.137 0.73,-3.246 0.73,-3.383 0,-0.133 0.73,-3.254 0.73,-3.391 0,-0.132 0.727,-3.265 0.727,-3.398 0,-0.137 0.731,-3.281 0.731,-3.414 0,-0.133 0.73,-3.293 0.73,-3.426 0,-0.133 0.727,-3.305 0.727,-3.437 0,-0.129 0.73,-3.317 0.73,-3.446 0,-0.129 0.73,-3.332 0.73,-3.461 0,-0.129 0.727,-3.343 0.727,-3.468 0,-0.129 0.731,-3.356 0.731,-3.481 0,-0.129 0.73,-3.371 0.73,-3.496 0,-0.125 0.727,-3.379 0.727,-3.504 0,-0.125 0.73,-3.394 0.73,-3.515 0,-0.122 0.73,-3.407 0.73,-3.528 0,-0.121 0.727,-3.418 0.727,-3.539 0,-0.121 0.731,-3.43 0.731,-3.547 0,-0.121 0.73,-3.445 0.73,-3.562 0,-0.117 0.727,-3.457 0.727,-3.574 0,-0.118 0.73,-3.469 0.73,-3.582 0,-0.118 0.73,-3.485 0.73,-3.598 0,-0.113 0.727,-3.492 0.727,-3.606 0,-0.113 0.731,-3.507 0.731,-3.617 0,-0.113 0.73,-3.519 0.73,-3.633 0,-0.109 0.727,-3.531 0.727,-3.64 0,-0.106 0.73,-3.543 0.73,-3.653 0,-0.105 0.73,-3.554 0.73,-3.664 0,-0.105 0.727,-3.57 0.727,-3.672 0,-0.105 0.731,-3.585 0.731,-3.687 0,-0.105 0.73,-3.598 0.73,-3.699 0,-0.102 0.727,-3.61 0.727,-3.707 0,-0.102 0.73,-3.625 0.73,-3.723 0,-0.098 0.73,-3.633 0.73,-3.73 0,-0.098 0.727,-3.649 0.727,-3.746 0,-0.094 0.731,-3.661 0.731,-3.754 0,-0.094 0.73,-3.672 0.73,-3.766 0,-0.094 0.727,-3.688 0.727,-3.777 0,-0.09 0.73,-3.7 0.73,-3.789 0,-0.09 0.73,-3.711 0.73,-3.801 0,-0.086 0.727,-3.723 0.727,-3.813 0,-0.086 0.731,-3.734 0.731,-3.82 0,-0.086 0.73,-3.75 0.73,-3.836 0,-0.082 0.73,-3.7617 0.73,-3.8437 0,-0.082 0.727,-3.7774 0.727,-3.8594 0,-0.0781 0.73,-3.7891 0.73,-3.8672 0,-0.0781 0.731,-3.8047 0.731,-3.8828 0,-0.0742 0.727,-3.8125 0.727,-3.8906 0,-0.0742 0.73,-3.8281 0.73,-3.9024 0,-0.0742 0.73,-3.8398 0.73,-3.914 0,-0.0703 0.727,-3.8555 0.727,-3.9258" /></g></g></svg>