<?xml version="1.0" encoding="UTF-8" standalone="no"?>
<svg
   xmlns:dc="http://purl.org/dc/elements/1.1/"
   xmlns:cc="http://creativecommons.org/ns#"
   xmlns:rdf="http://www.w3.org/1999/02/22-rdf-syntax-ns#"
   xmlns:svg="http://www.w3.org/2000/svg"
   xmlns="http://www.w3.org/2000/svg"
   viewBox="0 0 418.17334 80.800003"
   height="80.800003"
   width="418.17334"
   xml:space="preserve"
   id="svg2"
   version="1.1"><metadata
     id="metadata8"><rdf:RDF><cc:Work
         rdf:about=""><dc:format>image/svg+xml</dc:format><dc:type
           rdf:resource="http://purl.org/dc/dcmitype/StillImage" /></cc:Work></rdf:RDF></metadata><defs
     id="defs6" /><g
     transform="matrix(1.3333333,0,0,-1.3333333,0,80.8)"
     id="g10"><g
       transform="scale(0.1)"
       id="g12"><path
         id="path14"
         style="fill:#000000;fill-opacity:1;fill-rule:nonzero;stroke:none"
         d="m 0,577.781 16.1133,7.86 h 1.6133 v -55.907 c 0,-3.711 0.1523,-6.023 0.4609,-6.933 0.3086,-0.914 0.9531,-1.613 1.9297,-2.102 0.9766,-0.488 2.9609,-0.765 5.957,-0.828 v -1.808 H 1.17188 v 1.808 c 3.125,0.063 5.14453,0.332 6.05468,0.805 0.91016,0.472 1.54688,1.105 1.90625,1.902 0.35547,0.797 0.53516,3.184 0.53516,7.156 v 35.743 c 0,4.816 -0.16406,7.91 -0.48828,9.277 -0.22656,1.039 -0.64453,1.805 -1.2461,2.293 -0.60156,0.488 -1.32421,0.734 -2.17187,0.734 -1.20313,0 -2.87891,-0.508 -5.027345,-1.515 L 0,577.781" /><path
         id="path16"
         style="fill:#000000;fill-opacity:1;fill-rule:nonzero;stroke:none"
         d="m 52.7383,596.445 v 2.051 c 4.9492,-2.441 9.0664,-5.32 12.3555,-8.641 4.6562,-4.753 8.25,-10.328 10.789,-16.726 2.5391,-6.395 3.8086,-13.059 3.8086,-19.992 0,-10.094 -2.4805,-19.297 -7.4453,-27.614 -4.9648,-8.316 -11.4648,-14.265 -19.5078,-17.847 v 1.808 c 4.0039,2.246 7.3008,5.282 9.8906,9.106 2.5859,3.824 4.5078,8.691 5.7617,14.598 1.2539,5.91 1.8789,12.07 1.8789,18.484 0,6.933 -0.539,13.262 -1.6132,18.992 -0.8125,4.492 -1.8282,8.09 -3.0508,10.793 -1.2188,2.699 -2.8399,5.305 -4.8594,7.813 -2.0156,2.503 -4.6875,4.898 -8.0078,7.175 v 0" /><path
         id="path18"
         style="fill:#000000;fill-opacity:1;fill-rule:nonzero;stroke:none"
         d="m 672.695,366.395 c 1.481,-1.563 2.598,-3.125 3.356,-4.684 0.543,-1.082 1.433,-3.918 2.672,-8.512 l 3.988,5.946 c 1.059,1.441 2.344,2.812 3.852,4.117 1.511,1.308 2.839,2.199 3.988,2.679 0.726,0.301 1.527,0.454 2.402,0.454 1.301,0 2.336,-0.348 3.106,-1.036 0.769,-0.691 1.156,-1.531 1.156,-2.523 0,-1.141 -0.227,-1.922 -0.68,-2.34 -0.847,-0.754 -1.812,-1.129 -2.902,-1.129 -0.633,0 -1.313,0.137 -2.039,0.406 -1.422,0.481 -2.371,0.723 -2.856,0.723 -0.726,0 -1.586,-0.422 -2.582,-1.262 -1.875,-1.562 -4.109,-4.578 -6.707,-9.05 l 3.715,-15.493 c 0.574,-2.371 1.059,-3.789 1.449,-4.253 0.395,-0.465 0.785,-0.7 1.18,-0.7 0.633,0 1.375,0.348 2.223,1.039 1.66,1.379 3.078,3.18 4.257,5.403 l 1.586,-0.813 c -1.902,-3.539 -4.32,-6.484 -7.25,-8.824 -1.664,-1.32 -3.066,-1.98 -4.214,-1.98 -1.692,0 -3.036,0.945 -4.036,2.835 -0.632,1.172 -1.949,6.215 -3.941,15.129 -4.715,-8.132 -8.488,-13.371 -11.328,-15.714 -1.844,-1.5 -3.629,-2.25 -5.348,-2.25 -1.211,0 -2.312,0.433 -3.308,1.304 -0.727,0.66 -1.09,1.547 -1.09,2.656 0,0.993 0.332,1.817 0.996,2.477 0.668,0.66 1.48,0.992 2.449,0.992 0.965,0 1.992,-0.48 3.082,-1.441 0.785,-0.692 1.391,-1.035 1.813,-1.035 0.363,0 0.832,0.238 1.406,0.718 1.418,1.141 3.351,3.602 5.801,7.387 2.445,3.781 4.047,6.512 4.8,8.195 -1.871,7.293 -2.882,11.153 -3.035,11.571 -0.695,1.953 -1.601,3.332 -2.718,4.144 -1.118,0.809 -2.766,1.215 -4.942,1.215 -0.695,0 -1.496,-0.031 -2.402,-0.09 v 1.621 l 12.101,2.118" /><path
         id="path20"
         style="fill:#000000;fill-opacity:1;fill-rule:nonzero;stroke:none"
         d="m 452.547,588.125 c 1.027,-1.742 1.734,-3.371 2.129,-4.887 0.39,-1.515 0.785,-4.496 1.176,-8.937 l 1.996,-22.156 c 1.812,2.164 4.441,5.585 7.886,10.265 1.661,2.285 3.715,5.391 6.161,9.324 1.48,2.399 2.39,4.082 2.722,5.043 0.18,0.481 0.27,0.973 0.27,1.485 0,0.332 -0.106,0.601 -0.317,0.812 -0.211,0.207 -0.761,0.457 -1.652,0.742 -0.895,0.286 -1.633,0.809 -2.223,1.575 -0.59,0.765 -0.882,1.644 -0.882,2.636 0,1.231 0.363,2.219 1.085,2.969 0.727,0.75 1.633,1.129 2.719,1.129 1.332,0 2.465,-0.551 3.399,-1.645 0.937,-1.097 1.406,-2.605 1.406,-4.527 0,-2.371 -0.817,-5.078 -2.445,-8.125 -1.633,-3.047 -4.774,-7.723 -9.43,-14.027 -4.652,-6.305 -10.285,-13.18 -16.902,-20.625 -4.563,-5.133 -7.946,-8.367 -10.153,-9.703 -2.203,-1.336 -4.094,-2.004 -5.664,-2.004 -0.937,0 -1.762,0.355 -2.469,1.058 -0.711,0.707 -1.066,1.524 -1.066,2.453 0,1.172 0.492,2.239 1.473,3.2 0.984,0.961 2.047,1.441 3.195,1.441 0.605,0 1.102,-0.137 1.496,-0.406 0.242,-0.149 0.504,-0.578 0.793,-1.285 0.285,-0.703 0.551,-1.176 0.793,-1.418 0.152,-0.149 0.332,-0.223 0.543,-0.223 0.184,0 0.5,0.149 0.953,0.449 1.66,1.02 3.594,2.641 5.801,4.864 2.898,2.941 5.043,5.343 6.433,7.203 l -2.535,28.55 c -0.425,4.711 -1.058,7.579 -1.906,8.598 -0.844,1.024 -2.266,1.531 -4.258,1.531 -0.636,0 -1.769,-0.089 -3.398,-0.269 l -0.41,1.668 13.281,3.242" /><path
         id="path22"
         style="fill:#000000;fill-opacity:1;fill-rule:nonzero;stroke:none"
         d="m 385.512,296.746 c 4.078,0 7.691,-0.879 10.832,-2.633 3.14,-1.758 5.605,-4.355 7.386,-7.793 1.786,-3.433 2.676,-7 2.676,-10.691 0,-6.547 -1.914,-13.41 -5.734,-20.602 -3.82,-7.191 -8.813,-12.675 -14.977,-16.457 -6.164,-3.785 -12.539,-5.675 -19.125,-5.675 -4.746,0 -8.711,1.043 -11.898,3.132 -3.188,2.086 -5.543,4.84 -7.07,8.262 -1.524,3.422 -2.286,6.738 -2.286,9.949 0,5.703 1.379,11.34 4.145,16.91 2.766,5.567 6.066,10.219 9.902,13.957 3.836,3.739 7.93,6.614 12.282,8.625 4.351,2.012 8.972,3.016 13.867,3.016 z m -1.539,-2.883 c -3.024,0 -5.977,-0.742 -8.86,-2.226 -2.886,-1.489 -5.75,-3.918 -8.59,-7.297 -2.839,-3.375 -5.39,-7.797 -7.66,-13.258 -2.777,-6.727 -4.168,-13.074 -4.168,-19.051 0,-4.261 1.102,-8.035 3.309,-11.324 2.207,-3.285 5.59,-4.93 10.152,-4.93 2.75,0 5.446,0.676 8.09,2.028 2.641,1.351 5.399,3.66 8.27,6.933 3.593,4.114 6.617,9.36 9.062,15.739 2.449,6.378 3.672,12.328 3.672,17.851 0,4.086 -1.102,7.695 -3.309,10.832 -2.203,3.137 -5.527,4.703 -9.968,4.703 v 0" /><path
         id="path24"
         style="fill:#000000;fill-opacity:1;fill-rule:nonzero;stroke:none"
         d="m 356.355,365.766 14.958,7.25 h 1.492 v -51.559 c 0,-3.422 0.144,-5.551 0.433,-6.394 0.285,-0.84 0.883,-1.485 1.789,-1.934 0.907,-0.449 2.75,-0.707 5.528,-0.766 v -1.668 h -23.114 v 1.668 c 2.903,0.059 4.774,0.309 5.622,0.742 0.847,0.434 1.433,1.02 1.769,1.758 0.332,0.735 0.496,2.934 0.496,6.594 v 32.961 c 0,4.445 -0.152,7.297 -0.453,8.559 -0.211,0.957 -0.598,1.664 -1.156,2.113 -0.559,0.453 -1.231,0.676 -2.016,0.676 -1.117,0 -2.672,-0.465 -4.668,-1.395 l -0.68,1.395" /><path
         id="path26"
         style="fill:none;stroke:#000000;stroke-width:10;stroke-linecap:butt;stroke-linejoin:miter;stroke-miterlimit:10;stroke-dasharray:none;stroke-opacity:1"
         d="M 485.965,326.906 V 283.867" /><path
         id="path28"
         style="fill:none;stroke:#000000;stroke-width:10;stroke-linecap:butt;stroke-linejoin:miter;stroke-miterlimit:10;stroke-dasharray:none;stroke-opacity:1"
         d="M 432.238,376.523 H 388.922" /><path
         id="path30"
         style="fill:#000000;fill-opacity:1;fill-rule:nonzero;stroke:none"
         d="m 501.863,288.484 14.953,7.25 h 1.497 v -51.558 c 0,-3.422 0.144,-5.551 0.429,-6.391 0.289,-0.844 0.887,-1.488 1.793,-1.937 0.906,-0.45 2.746,-0.707 5.528,-0.766 v -1.668 h -23.114 v 1.668 c 2.903,0.059 4.774,0.309 5.621,0.742 0.844,0.438 1.434,1.02 1.766,1.758 0.332,0.734 0.5,2.934 0.5,6.594 v 32.961 c 0,4.445 -0.152,7.297 -0.453,8.558 -0.211,0.961 -0.598,1.664 -1.156,2.114 -0.559,0.453 -1.231,0.675 -2.016,0.675 -1.121,0 -2.676,-0.464 -4.668,-1.394 l -0.68,1.394" /><path
         id="path32"
         style="fill:none;stroke:#000000;stroke-width:3.5;stroke-linecap:butt;stroke-linejoin:miter;stroke-miterlimit:10;stroke-dasharray:none;stroke-opacity:1"
         d="M 114.93,598.117 115.094,7.84766 M 189.184,598.117 189.348,7.84766 M 263.434,598.117 263.598,7.84766 M 337.684,598.117 337.848,7.84766 M 411.938,598.117 412.102,7.84766 M 486.188,598.117 486.352,7.84766 M 560.438,598.117 560.602,7.84766 M 634.691,598.117 634.855,7.84766 M 708.941,598.117 709.105,7.84766 M 114.93,598.117 707.855,597.543 M 114.93,524.344 707.855,523.766 M 114.93,450.57 707.855,449.992 M 114.93,376.793 707.855,376.219 M 114.93,303.02 707.855,302.441 M 114.93,229.246 707.855,228.668 M 114.93,155.469 707.855,154.895 M 114.93,81.6953 707.855,81.1211 M 114.93,7.92188 707.855,7.34375" /><path
         id="path34"
         style="fill:none;stroke:#000000;stroke-width:7.5;stroke-linecap:butt;stroke-linejoin:miter;stroke-miterlimit:10;stroke-dasharray:none;stroke-opacity:1"
         d="m 407.625,10.4688 0.484,581.2342" /><path
         id="path36"
         style="fill:#000000;fill-opacity:1;fill-rule:evenodd;stroke:none"
         d="m 389.926,552.484 18.121,49.153 18.039,-49.184 c -10.668,7.863 -25.273,7.832 -36.16,0.031" /><path
         id="path38"
         style="fill:none;stroke:#000000;stroke-width:7.5;stroke-linecap:butt;stroke-linejoin:miter;stroke-miterlimit:10;stroke-dasharray:none;stroke-opacity:1"
         d="m 115.258,302.984 586.719,-0.48" /><path
         id="path40"
         style="fill:#000000;fill-opacity:1;fill-rule:evenodd;stroke:none"
         d="m 662.758,320.688 49.152,-18.122 -49.18,-18.039 c 7.864,10.668 7.829,25.27 0.028,36.161" /><path
         id="path42"
         style="fill:#000000;fill-opacity:1;fill-rule:nonzero;stroke:none"
         d="m 859.504,534.586 -4.637,-12.746 h -39.062 v 1.808 c 11.488,10.481 19.578,19.043 24.265,25.684 4.688,6.641 7.032,12.711 7.032,18.211 0,4.199 -1.286,7.652 -3.856,10.352 -2.574,2.703 -5.648,4.054 -9.23,4.054 -3.254,0 -6.176,-0.953 -8.766,-2.855 -2.586,-1.906 -4.5,-4.696 -5.734,-8.375 h -1.809 c 0.813,6.023 2.906,10.644 6.273,13.867 3.372,3.223 7.579,4.832 12.625,4.832 5.372,0 9.856,-1.723 13.45,-5.176 3.597,-3.449 5.398,-7.519 5.398,-12.207 0,-3.351 -0.781,-6.703 -2.344,-10.058 -2.41,-5.274 -6.316,-10.856 -11.718,-16.747 -8.106,-8.855 -13.168,-14.191 -15.188,-16.015 h 17.285 c 3.516,0 5.981,0.129 7.399,0.39 1.414,0.262 2.691,0.79 3.832,1.586 1.14,0.797 2.133,1.93 2.98,3.395 h 1.805" /><path
         id="path44"
         style="fill:#000000;fill-opacity:1;fill-rule:nonzero;stroke:none"
         d="m 870.785,599.469 v 2.051 c 4.949,-2.442 9.067,-5.325 12.356,-8.645 4.656,-4.75 8.25,-10.328 10.789,-16.723 2.539,-6.398 3.808,-13.062 3.808,-19.996 0,-10.09 -2.48,-19.293 -7.445,-27.613 -4.965,-8.316 -11.465,-14.266 -19.508,-17.844 v 1.805 c 4.004,2.246 7.301,5.281 9.891,9.105 2.586,3.829 4.508,8.692 5.762,14.602 1.25,5.906 1.878,12.07 1.878,18.48 0,6.934 -0.539,13.266 -1.613,18.997 -0.812,4.492 -1.828,8.089 -3.051,10.789 -1.218,2.703 -2.839,5.308 -4.859,7.812 -2.016,2.508 -4.688,4.899 -8.008,7.18 v 0" /><g
         transform="scale(1.01095,-0.989047)"
         id="g46"><path
           id="path48"
           style="fill:none;stroke:#000000;stroke-width:3.50021005;stroke-linecap:butt;stroke-linejoin:miter;stroke-miterlimit:10;stroke-dasharray:none;stroke-opacity:1"
           d="m 912.649,-604.176 -1.299,586.8535 m 74.791,-586.8535 -1.303,586.8535 m 74.792,-586.8535 -1.3,586.8535 m 74.79,-586.8535 -1.3,586.8535 m 74.78,-586.8535 -1.29,586.8535 m 74.79,-586.8535 -1.3,586.8535 m 74.78,-586.8535 -1.29,586.8535 m 74.78,-586.8535 -1.3,586.8535 m 74.79,-586.8535 -1.3,586.8535 M 912.649,-604.176 h 586.931 m -586.931,73.489 h 586.931 m -586.931,73.488 h 586.931 m -586.931,73.493 h 586.931 m -586.931,73.488 h 586.931 m -586.931,73.488 h 586.931 m -586.931,73.489 h 586.931 m -586.931,73.4884 h 586.931 m -586.931,73.4885 h 586.931" /></g><g
         transform="scale(1.01095,-0.989047)"
         id="g50"><path
           id="path52"
           style="fill:none;stroke:#000000;stroke-width:7.50045013;stroke-linecap:butt;stroke-linejoin:miter;stroke-miterlimit:10;stroke-dasharray:none;stroke-opacity:1"
           d="m 1209.69,-23.1994 0.48,-580.6956" /></g><path
         id="path54"
         style="fill:#000000;fill-opacity:1;fill-rule:evenodd;stroke:none"
         d="m 1205.04,558.492 18.32,48.613 18.24,-48.644 c -10.79,7.777 -25.55,7.746 -36.56,0.031" /><g
         transform="scale(1.01095,-0.989047)"
         id="g56"><path
           id="path58"
           style="fill:none;stroke:#000000;stroke-width:7.50045013;stroke-linecap:butt;stroke-linejoin:miter;stroke-miterlimit:10;stroke-dasharray:none;stroke-opacity:1"
           d="m 914.963,-310.593 577.997,0.482" /></g><path
         id="path60"
         style="fill:#000000;fill-opacity:1;fill-rule:evenodd;stroke:none"
         d="m 1469.67,324.699 49.69,-17.922 -49.72,-17.843 c 7.95,10.554 7.91,25 0.03,35.765" /><g
         transform="scale(1.01095,-0.989047)"
         id="g62"><path
           id="path64"
           style="fill:none;stroke:#000000;stroke-width:10.00059986;stroke-linecap:butt;stroke-linejoin:miter;stroke-miterlimit:10;stroke-dasharray:none;stroke-opacity:1"
           d="m 1278.69,-332.513 v 42.872" /></g><g
         transform="scale(1.01095,-0.989047)"
         id="g66"><path
           id="path68"
           style="fill:none;stroke:#000000;stroke-width:10.00059986;stroke-linecap:butt;stroke-linejoin:miter;stroke-miterlimit:10;stroke-dasharray:none;stroke-opacity:1"
           d="m 1231.11,-386.661 h -42.87" /></g><path
         id="path70"
         style="fill:#000000;fill-opacity:1;fill-rule:nonzero;stroke:none"
         d="m 1168.7,395.645 14.97,7.144 h 1.49 v -50.797 c 0,-3.371 0.15,-5.472 0.43,-6.301 0.29,-0.828 0.89,-1.464 1.8,-1.906 0.9,-0.445 2.75,-0.695 5.53,-0.754 v -1.64 h -23.13 v 1.64 c 2.91,0.059 4.78,0.301 5.62,0.731 0.85,0.429 1.44,1.008 1.77,1.73 0.34,0.727 0.5,2.891 0.5,6.5 v 32.473 c 0,4.379 -0.15,7.187 -0.45,8.43 -0.21,0.945 -0.6,1.64 -1.16,2.085 -0.56,0.442 -1.23,0.665 -2.02,0.665 -1.11,0 -2.67,-0.457 -4.67,-1.375 l -0.68,1.375" /><path
         id="path72"
         style="fill:#000000;fill-opacity:1;fill-rule:nonzero;stroke:none"
         d="m 1288.98,269.238 14.97,7.141 h 1.5 v -50.797 c 0,-3.371 0.14,-5.469 0.43,-6.297 0.28,-0.828 0.88,-1.465 1.79,-1.91 0.9,-0.441 2.75,-0.691 5.53,-0.754 v -1.641 h -23.13 v 1.641 c 2.91,0.063 4.78,0.305 5.63,0.734 0.84,0.43 1.43,1.004 1.76,1.731 0.34,0.723 0.5,2.891 0.5,6.496 v 32.477 c 0,4.375 -0.15,7.187 -0.45,8.429 -0.21,0.946 -0.6,1.641 -1.15,2.082 -0.56,0.446 -1.24,0.668 -2.02,0.668 -1.12,0 -2.68,-0.461 -4.68,-1.375 l -0.68,1.375" /><path
         id="path74"
         style="fill:#000000;fill-opacity:1;fill-rule:nonzero;stroke:none"
         d="m 1489.93,284.039 c 1.48,-1.539 2.6,-3.078 3.35,-4.613 0.54,-1.067 1.44,-3.863 2.68,-8.387 l 3.99,5.856 c 1.05,1.421 2.34,2.773 3.85,4.058 1.51,1.289 2.84,2.168 3.99,2.641 0.73,0.297 1.53,0.445 2.41,0.445 1.3,0 2.33,-0.34 3.1,-1.023 0.77,-0.68 1.16,-1.508 1.16,-2.485 0,-1.121 -0.23,-1.89 -0.68,-2.304 -0.85,-0.739 -1.82,-1.11 -2.9,-1.11 -0.64,0 -1.32,0.133 -2.04,0.399 -1.43,0.472 -2.38,0.711 -2.86,0.711 -0.73,0 -1.59,-0.414 -2.59,-1.243 -1.87,-1.539 -4.11,-4.511 -6.71,-8.918 l 3.72,-15.261 c 0.58,-2.336 1.06,-3.735 1.45,-4.192 0.4,-0.457 0.79,-0.687 1.18,-0.687 0.63,0 1.38,0.34 2.22,1.019 1.66,1.364 3.09,3.137 4.27,5.325 l 1.58,-0.797 c -1.9,-3.493 -4.32,-6.391 -7.25,-8.696 -1.67,-1.3 -3.07,-1.953 -4.22,-1.953 -1.69,0 -3.04,0.934 -4.04,2.797 -0.63,1.152 -1.95,6.121 -3.94,14.902 -4.72,-8.011 -8.49,-13.175 -11.34,-15.48 -1.84,-1.48 -3.63,-2.219 -5.35,-2.219 -1.21,0 -2.31,0.43 -3.31,1.285 -0.72,0.653 -1.09,1.524 -1.09,2.618 0,0.976 0.33,1.793 1,2.441 0.67,0.652 1.48,0.977 2.45,0.977 0.97,0 1.99,-0.473 3.08,-1.418 0.79,-0.684 1.39,-1.024 1.82,-1.024 0.36,0 0.83,0.238 1.4,0.711 1.42,1.125 3.36,3.551 5.81,7.277 2.45,3.727 4.05,6.418 4.81,8.075 -1.88,7.183 -2.89,10.984 -3.04,11.398 -0.7,1.922 -1.6,3.285 -2.73,4.082 -1.11,0.797 -2.76,1.199 -4.94,1.199 -0.69,0 -1.49,-0.031 -2.4,-0.09 v 1.598 l 12.11,2.086" /><path
         id="path76"
         style="fill:#000000;fill-opacity:1;fill-rule:nonzero;stroke:none"
         d="m 1264.45,597.59 c 1.03,-1.715 1.74,-3.32 2.13,-4.813 0.4,-1.496 0.79,-4.429 1.18,-8.808 l 2,-21.824 c 1.81,2.128 4.44,5.5 7.89,10.113 1.66,2.246 3.72,5.308 6.16,9.183 1.49,2.368 2.39,4.024 2.73,4.969 0.17,0.473 0.27,0.961 0.27,1.465 0,0.324 -0.11,0.59 -0.32,0.797 -0.21,0.207 -0.76,0.453 -1.65,0.73 -0.9,0.282 -1.64,0.801 -2.23,1.555 -0.59,0.754 -0.88,1.617 -0.88,2.594 0,1.215 0.36,2.191 1.09,2.929 0.72,0.739 1.63,1.11 2.72,1.11 1.33,0 2.46,-0.539 3.4,-1.621 0.94,-1.078 1.4,-2.567 1.4,-4.457 0,-2.336 -0.81,-5.008 -2.45,-8.008 -1.63,-3 -4.77,-7.609 -9.43,-13.82 -4.65,-6.211 -10.29,-12.981 -16.91,-20.317 -4.57,-5.058 -7.95,-8.246 -10.16,-9.562 -2.21,-1.313 -4.09,-1.973 -5.67,-1.973 -0.93,0 -1.76,0.348 -2.47,1.043 -0.71,0.695 -1.06,1.5 -1.06,2.418 0,1.152 0.49,2.203 1.47,3.148 0.98,0.95 2.05,1.422 3.2,1.422 0.6,0 1.1,-0.133 1.5,-0.402 0.24,-0.145 0.5,-0.566 0.79,-1.262 0.28,-0.695 0.55,-1.16 0.79,-1.398 0.15,-0.149 0.33,-0.223 0.54,-0.223 0.19,0 0.5,0.149 0.96,0.445 1.66,1.004 3.6,2.602 5.8,4.79 2.9,2.898 5.05,5.265 6.44,7.097 l -2.54,28.129 c -0.42,4.641 -1.06,7.465 -1.9,8.473 -0.85,1.004 -2.27,1.508 -4.27,1.508 -0.63,0 -1.76,-0.09 -3.4,-0.266 l -0.41,1.641 13.29,3.195" /><path
         id="path78"
         style="fill:#000000;fill-opacity:1;fill-rule:nonzero;stroke:none"
         d="m 1193.32,298.07 c 4.07,0 7.69,-0.863 10.83,-2.593 3.15,-1.731 5.61,-4.289 7.39,-7.676 1.79,-3.387 2.68,-6.899 2.68,-10.535 0,-6.45 -1.91,-13.215 -5.74,-20.297 -3.82,-7.082 -8.82,-12.489 -14.98,-16.215 -6.17,-3.727 -12.55,-5.59 -19.14,-5.59 -4.75,0 -8.71,1.027 -11.9,3.082 -3.19,2.055 -5.55,4.77 -7.08,8.141 -1.52,3.371 -2.29,6.64 -2.29,9.804 0,5.622 1.39,11.172 4.15,16.661 2.77,5.484 6.07,10.07 9.91,13.75 3.84,3.683 7.94,6.515 12.29,8.496 4.35,1.98 8.98,2.972 13.88,2.972 z m -1.55,-2.84 c -3.02,0 -5.98,-0.73 -8.86,-2.195 -2.89,-1.465 -5.75,-3.859 -8.59,-7.187 -2.85,-3.328 -5.4,-7.68 -7.67,-13.063 -2.78,-6.625 -4.17,-12.883 -4.17,-18.765 0,-4.2 1.1,-7.922 3.31,-11.161 2.21,-3.238 5.59,-4.855 10.16,-4.855 2.75,0 5.44,0.664 8.09,1.996 2.65,1.332 5.41,3.609 8.28,6.832 3.59,4.051 6.62,9.219 9.07,15.504 2.45,6.285 3.67,12.148 3.67,17.59 0,4.023 -1.1,7.578 -3.31,10.668 -2.21,3.094 -5.53,4.636 -9.98,4.636 v 0" /><path
         id="path80"
         style="fill:#000000;fill-opacity:1;fill-rule:nonzero;stroke:none"
         d="m 1622.95,572.434 c 1.89,4.461 4.27,7.902 7.15,10.328 2.88,2.426 6.47,3.636 10.77,3.636 5.3,0 9.37,-1.726 12.2,-5.175 2.15,-2.571 3.23,-5.321 3.23,-8.25 0,-4.821 -3.03,-9.801 -9.09,-14.942 4.08,-1.597 7.15,-3.875 9.23,-6.836 2.09,-2.965 3.13,-6.445 3.13,-10.449 0,-5.73 -1.82,-10.695 -5.47,-14.894 -4.75,-5.469 -11.64,-8.204 -20.65,-8.204 -4.47,0 -7.5,0.555 -9.11,1.661 -1.61,1.105 -2.42,2.296 -2.42,3.566 0,0.941 0.38,1.773 1.15,2.488 0.76,0.715 1.68,1.075 2.76,1.075 0.81,0 1.64,-0.129 2.49,-0.391 0.55,-0.164 1.81,-0.758 3.76,-1.781 1.95,-1.028 3.3,-1.637 4.05,-1.832 1.21,-0.36 2.49,-0.536 3.86,-0.536 3.32,0 6.21,1.286 8.67,3.856 2.45,2.57 3.68,5.617 3.68,9.133 0,2.57 -0.57,5.078 -1.71,7.519 -0.84,1.821 -1.77,3.203 -2.78,4.149 -1.4,1.3 -3.32,2.484 -5.76,3.539 -2.45,1.058 -4.93,1.59 -7.47,1.59 h -1.57 v 1.464 c 2.58,0.325 5.16,1.25 7.74,2.782 2.59,1.531 4.47,3.371 5.64,5.519 1.18,2.149 1.76,4.508 1.76,7.078 0,3.352 -1.05,6.063 -3.15,8.129 -2.1,2.071 -4.71,3.102 -7.84,3.102 -5.04,0 -9.25,-2.703 -12.64,-8.106 l -1.61,0.782" /><path
         id="path82"
         style="fill:#000000;fill-opacity:1;fill-rule:nonzero;stroke:none"
         d="m 1676.41,596.445 v 2.051 c 4.95,-2.441 9.06,-5.32 12.35,-8.641 4.65,-4.753 8.25,-10.328 10.79,-16.722 2.54,-6.399 3.81,-13.063 3.81,-19.996 0,-10.09 -2.48,-19.297 -7.45,-27.614 -4.96,-8.316 -11.46,-14.265 -19.5,-17.847 v 1.808 c 4,2.246 7.3,5.282 9.88,9.106 2.59,3.824 4.51,8.691 5.76,14.601 1.26,5.907 1.88,12.067 1.88,18.481 0,6.933 -0.53,13.266 -1.61,18.992 -0.81,4.492 -1.83,8.09 -3.05,10.793 -1.22,2.703 -2.84,5.305 -4.86,7.813 -2.02,2.507 -4.68,4.898 -8,7.175 v 0" /><g
         transform="scale(1.00203,-0.997971)"
         id="g84"><path
           id="path86"
           style="fill:none;stroke:#000000;stroke-width:3.50001001;stroke-linecap:butt;stroke-linejoin:miter;stroke-miterlimit:10;stroke-dasharray:none;stroke-opacity:1"
           d="m 1733.49,-598.096 0.16,587.5433 m 73.27,-587.5433 0.17,587.5433 m 73.27,-587.5433 0.16,587.5433 m 73.28,-587.5433 0.14,519.7613 0.02,67.782 m 73.28,-587.5433 0.16,587.5433 m 73.27,-587.5433 0.17,587.5433 m 73.27,-587.5433 0.17,587.5433 m 73.27,-587.5433 0.16,587.5433 m 73.28,-587.5433 0.16,587.5433 m -587.66,-587.5433 587.38,-0.114 m -587.38,73.552 587.38,-0.114 m -587.38,73.552 587.38,-0.118 m -587.38,73.556 587.38,-0.118 m -587.38,73.556 587.38,-0.118 m -587.38,73.552 587.38,-0.113 m -587.38,73.551 587.38,-0.113 m -587.38,73.5512 587.38,-0.1135 m -587.38,73.5516 587.38,-0.1135" /></g><g
         transform="scale(1.00203,-0.997971)"
         id="g88"><path
           id="path90"
           style="fill:none;stroke:#000000;stroke-width:7.50002003;stroke-linecap:butt;stroke-linejoin:miter;stroke-miterlimit:10;stroke-dasharray:none;stroke-opacity:1"
           d="m 2022.95,-13.5588 0.48,-581.0622" /></g><path
         id="path92"
         style="fill:#000000;fill-opacity:1;fill-rule:evenodd;stroke:none"
         d="m 2009.32,554.273 18.16,49.051 18.07,-49.082 c -10.69,7.848 -25.32,7.817 -36.23,0.031" /><g
         transform="scale(1.00203,-0.997971)"
         id="g94"><path
           id="path96"
           style="fill:none;stroke:#000000;stroke-width:7.50002003;stroke-linecap:butt;stroke-linejoin:miter;stroke-miterlimit:10;stroke-dasharray:none;stroke-opacity:1"
           d="m 1727.85,-302.156 581.35,0.481" /></g><path
         id="path98"
         style="fill:#000000;fill-opacity:1;fill-rule:evenodd;stroke:none"
         d="m 2274.59,319.207 49.25,-18.082 -49.28,-18.004 c 7.88,10.649 7.85,25.223 0.03,36.086" /><g
         transform="scale(1.00203,-0.997971)"
         id="g100"><path
           id="path102"
           style="fill:none;stroke:#000000;stroke-width:10;stroke-linecap:butt;stroke-linejoin:miter;stroke-miterlimit:10;stroke-dasharray:none;stroke-opacity:1"
           d="m 2096.87,-328.51 v 42.84" /></g><g
         transform="scale(1.00203,-0.997971)"
         id="g104"><path
           id="path106"
           style="fill:none;stroke:#000000;stroke-width:10;stroke-linecap:butt;stroke-linejoin:miter;stroke-miterlimit:10;stroke-dasharray:none;stroke-opacity:1"
           d="m 2045.05,-381.732 h -42.84" /></g><path
         id="path108"
         style="fill:#000000;fill-opacity:1;fill-rule:nonzero;stroke:none"
         d="m 1975.04,367.832 14.82,7.203 h 1.48 v -51.219 c 0,-3.398 0.14,-5.515 0.42,-6.351 0.29,-0.836 0.88,-1.477 1.78,-1.922 0.9,-0.449 2.72,-0.703 5.48,-0.762 v -1.656 h -22.91 v 1.656 c 2.87,0.059 4.73,0.305 5.57,0.739 0.84,0.433 1.42,1.011 1.75,1.742 0.33,0.73 0.5,2.918 0.5,6.554 v 32.743 c 0,4.414 -0.15,7.25 -0.45,8.5 -0.21,0.953 -0.59,1.656 -1.15,2.101 -0.55,0.449 -1.22,0.672 -2,0.672 -1.1,0 -2.65,-0.461 -4.62,-1.387 l -0.67,1.387" /><path
         id="path110"
         style="fill:#000000;fill-opacity:1;fill-rule:nonzero;stroke:none"
         d="m 2060.75,293.508 14.82,7.199 h 1.48 v -51.215 c 0,-3.402 0.14,-5.519 0.43,-6.351 0.28,-0.836 0.87,-1.477 1.77,-1.926 0.9,-0.445 2.72,-0.699 5.48,-0.762 v -1.652 h -22.91 v 1.652 c 2.88,0.063 4.73,0.309 5.57,0.738 0.84,0.434 1.43,1.016 1.75,1.747 0.33,0.73 0.5,2.914 0.5,6.554 v 32.742 c 0,4.414 -0.15,7.246 -0.45,8.5 -0.21,0.954 -0.59,1.653 -1.15,2.102 -0.55,0.445 -1.22,0.672 -2,0.672 -1.1,0 -2.65,-0.465 -4.62,-1.387 l -0.67,1.387" /><path
         id="path112"
         style="fill:#000000;fill-opacity:1;fill-rule:nonzero;stroke:none"
         d="m 2284.09,288.07 c 1.47,-1.55 2.57,-3.101 3.32,-4.652 0.54,-1.074 1.43,-3.895 2.66,-8.457 l 3.95,5.906 c 1.05,1.43 2.32,2.797 3.82,4.094 1.49,1.297 2.81,2.184 3.95,2.66 0.71,0.297 1.51,0.449 2.38,0.449 1.29,0 2.31,-0.343 3.07,-1.031 0.77,-0.684 1.15,-1.519 1.15,-2.504 0,-1.133 -0.23,-1.91 -0.68,-2.328 -0.83,-0.742 -1.79,-1.117 -2.87,-1.117 -0.63,0 -1.3,0.137 -2.02,0.402 -1.41,0.477 -2.35,0.715 -2.83,0.715 -0.72,0 -1.57,-0.414 -2.56,-1.25 -1.86,-1.551 -4.07,-4.547 -6.65,-8.992 l 3.68,-15.387 c 0.58,-2.355 1.06,-3.765 1.44,-4.226 0.39,-0.465 0.78,-0.696 1.17,-0.696 0.63,0 1.36,0.344 2.2,1.032 1.65,1.371 3.05,3.16 4.22,5.367 l 1.58,-0.805 c -1.89,-3.52 -4.28,-6.441 -7.19,-8.77 -1.65,-1.312 -3.04,-1.968 -4.18,-1.968 -1.67,0 -3.01,0.941 -3.99,2.82 -0.63,1.16 -1.94,6.172 -3.91,15.027 -4.67,-8.078 -8.42,-13.285 -11.23,-15.609 -1.83,-1.492 -3.59,-2.238 -5.3,-2.238 -1.2,0 -2.29,0.433 -3.28,1.297 -0.72,0.656 -1.08,1.539 -1.08,2.64 0,0.985 0.33,1.805 0.99,2.461 0.66,0.656 1.47,0.985 2.43,0.985 0.96,0 1.97,-0.477 3.05,-1.434 0.78,-0.684 1.38,-1.027 1.8,-1.027 0.36,0 0.82,0.238 1.39,0.714 1.41,1.133 3.32,3.579 5.75,7.336 2.42,3.758 4.01,6.473 4.76,8.141 -1.86,7.246 -2.86,11.078 -3.01,11.496 -0.69,1.942 -1.59,3.313 -2.69,4.117 -1.11,0.805 -2.74,1.207 -4.9,1.207 -0.69,0 -1.48,-0.031 -2.38,-0.09 v 1.61 l 11.99,2.105" /><path
         id="path114"
         style="fill:#000000;fill-opacity:1;fill-rule:nonzero;stroke:none"
         d="m 1981.94,592.613 c 1.02,-1.73 1.72,-3.347 2.11,-4.851 0.39,-1.508 0.78,-4.469 1.17,-8.883 l 1.98,-22.008 c 1.79,2.149 4.4,5.547 7.81,10.199 1.65,2.27 3.68,5.356 6.11,9.262 1.47,2.383 2.36,4.055 2.69,5.008 0.18,0.476 0.27,0.969 0.27,1.476 0,0.329 -0.1,0.598 -0.31,0.805 -0.21,0.211 -0.76,0.457 -1.64,0.738 -0.88,0.286 -1.62,0.805 -2.2,1.567 -0.59,0.762 -0.88,1.633 -0.88,2.617 0,1.223 0.36,2.207 1.08,2.953 0.72,0.746 1.62,1.117 2.69,1.117 1.32,0 2.45,-0.543 3.38,-1.633 0.92,-1.089 1.39,-2.585 1.39,-4.496 0,-2.355 -0.81,-5.046 -2.43,-8.074 -1.62,-3.027 -4.73,-7.672 -9.34,-13.933 -4.61,-6.262 -10.2,-13.09 -16.75,-20.489 -4.53,-5.097 -7.88,-8.312 -10.07,-9.636 -2.18,-1.329 -4.05,-1.993 -5.61,-1.993 -0.93,0 -1.74,0.352 -2.45,1.051 -0.7,0.703 -1.05,1.516 -1.05,2.438 0,1.164 0.49,2.222 1.46,3.175 0.97,0.957 2.03,1.434 3.16,1.434 0.6,0 1.1,-0.137 1.49,-0.402 0.23,-0.149 0.5,-0.575 0.78,-1.278 0.29,-0.699 0.55,-1.168 0.79,-1.406 0.15,-0.152 0.33,-0.226 0.54,-0.226 0.18,0 0.49,0.152 0.94,0.449 1.65,1.011 3.56,2.625 5.75,4.832 2.87,2.922 5,5.308 6.38,7.156 l -2.52,28.359 c -0.42,4.684 -1.05,7.532 -1.89,8.543 -0.83,1.016 -2.24,1.524 -4.22,1.524 -0.62,0 -1.75,-0.09 -3.37,-0.27 l -0.4,1.657 13.16,3.218" /><path
         id="path116"
         style="fill:#000000;fill-opacity:1;fill-rule:nonzero;stroke:none"
         d="m 1999.42,301.332 c 4.04,0 7.62,-0.871 10.74,-2.617 3.11,-1.742 5.55,-4.324 7.32,-7.738 1.76,-3.414 2.65,-6.957 2.65,-10.625 0,-6.5 -1.9,-13.321 -5.68,-20.465 -3.79,-7.141 -8.74,-12.59 -14.85,-16.348 -6.11,-3.758 -12.42,-5.637 -18.95,-5.637 -4.7,0 -8.63,1.036 -11.79,3.11 -3.16,2.074 -5.5,4.808 -7.01,8.207 -1.51,3.402 -2.27,6.695 -2.27,9.886 0,5.668 1.37,11.266 4.11,16.797 2.74,5.532 6.01,10.157 9.81,13.868 3.81,3.71 7.86,6.566 12.18,8.566 4.31,1.996 8.89,2.996 13.74,2.996 z m -1.53,-2.863 c -2.99,0 -5.92,-0.739 -8.78,-2.215 -2.86,-1.473 -5.69,-3.891 -8.51,-7.246 -2.81,-3.356 -5.34,-7.746 -7.59,-13.172 -2.75,-6.68 -4.13,-12.988 -4.13,-18.922 0,-4.234 1.09,-7.984 3.28,-11.25 2.18,-3.266 5.54,-4.898 10.06,-4.898 2.73,0 5.4,0.672 8.01,2.011 2.63,1.344 5.36,3.641 8.2,6.891 3.57,4.086 6.56,9.297 8.98,15.633 2.43,6.336 3.64,12.25 3.64,17.738 0,4.055 -1.09,7.641 -3.28,10.758 -2.18,3.113 -5.47,4.672 -9.88,4.672 v 0" /><path
         id="path118"
         style="fill:none;stroke:#000000;stroke-width:10;stroke-linecap:butt;stroke-linejoin:miter;stroke-miterlimit:10;stroke-dasharray:none;stroke-opacity:1"
         d="m 2062.3,601.188 c -0.12,-0.497 -0.23,-0.989 -0.35,-1.485 -0.12,-0.496 -0.24,-0.992 -0.36,-1.488 -0.12,-0.492 -0.24,-0.988 -0.36,-1.485 -0.12,-0.496 -0.23,-0.992 -0.35,-1.484 -0.12,-0.496 -0.24,-0.992 -0.36,-1.488 -0.12,-0.496 -0.24,-0.992 -0.36,-1.485 -0.12,-0.496 -0.23,-0.992 -0.35,-1.488 -0.12,-0.496 -0.24,-0.988 -0.36,-1.484 -0.12,-0.496 -0.24,-0.992 -0.36,-1.488 -0.11,-0.497 -0.23,-0.989 -0.35,-1.485 -0.12,-0.496 -0.24,-0.992 -0.36,-1.488 -0.12,-0.496 -0.24,-0.988 -0.36,-1.485 -0.11,-0.496 -0.23,-0.992 -0.35,-1.488 -0.12,-0.492 -0.24,-0.988 -0.36,-1.484 -0.12,-0.496 -0.24,-0.992 -0.35,-1.488 -0.12,-0.493 -0.24,-0.989 -0.36,-1.485 -0.12,-0.496 -0.24,-0.992 -0.36,-1.484 -0.11,-0.496 -0.24,-0.992 -0.35,-1.488 -0.12,-0.497 -0.24,-0.989 -0.36,-1.485 -0.12,-0.496 -0.24,-0.992 -0.36,-1.488 -0.12,-0.496 -0.23,-0.988 -0.35,-1.485 -0.12,-0.496 -0.24,-0.992 -0.36,-1.488 -0.12,-0.496 -0.24,-0.988 -0.35,-1.484 -0.13,-0.496 -0.24,-0.992 -0.36,-1.488 -0.12,-0.493 -0.24,-0.989 -0.36,-1.485 -0.12,-0.496 -0.24,-0.992 -0.35,-1.488 -0.12,-0.492 -0.24,-0.988 -0.36,-1.484 -0.12,-0.497 -0.24,-0.993 -0.36,-1.485 -0.12,-0.496 -0.23,-0.992 -0.36,-1.488 -0.11,-0.496 -0.23,-0.988 -0.35,-1.485 -0.12,-0.496 -0.24,-0.992 -0.36,-1.488 -0.12,-0.496 -0.23,-0.988 -0.36,-1.484 -0.11,-0.496 -0.23,-0.992 -0.35,-1.488 -0.12,-0.493 -0.24,-0.989 -0.36,-1.485 -0.12,-0.496 -0.23,-0.992 -0.35,-1.488 -0.12,-0.492 -0.24,-0.988 -0.36,-1.484 -0.12,-0.497 -0.24,-0.993 -0.36,-1.485 -0.11,-0.496 -0.23,-0.992 -0.35,-1.488 -0.12,-0.496 -0.24,-0.992 -0.36,-1.485 -0.12,-0.496 -0.24,-0.992 -0.35,-1.488 -0.12,-0.496 -0.25,-0.988 -0.36,-1.484 -0.12,-0.496 -0.24,-0.992 -0.36,-1.488 -0.12,-0.497 -0.24,-0.989 -0.35,-1.485 -0.12,-0.496 -0.24,-0.992 -0.36,-1.488 -0.12,-0.492 -0.24,-0.988 -0.36,-1.484 -0.12,-0.497 -0.24,-0.993 -0.35,-1.489 -0.12,-0.492 -0.24,-0.988 -0.36,-1.484 -0.12,-0.496 -0.24,-0.992 -0.36,-1.485 -0.12,-0.496 -0.23,-0.992 -0.35,-1.488 -0.12,-0.496 -0.24,-0.992 -0.36,-1.484 -0.12,-0.496 -0.24,-0.992 -0.35,-1.488 -0.13,-0.497 -0.24,-0.989 -0.36,-1.485 -0.12,-0.496 -0.24,-0.992 -0.36,-1.488 -0.12,-0.492 -0.24,-0.988 -0.36,-1.484 -0.12,-0.497 -0.23,-0.993 -0.35,-1.489 -0.12,-0.492 -0.24,-0.988 -0.36,-1.484 -0.12,-0.496 -0.23,-0.992 -0.36,-1.488 -0.11,-0.493 -0.23,-0.989 -0.35,-1.485 -0.12,-0.496 -0.24,-0.992 -0.36,-1.484 -0.12,-0.496 -0.23,-0.992 -0.36,-1.488 -0.11,-0.497 -0.23,-0.993 -0.35,-1.485 -0.12,-0.496 -0.24,-0.992 -0.36,-1.488 -0.11,-0.496 -0.24,-0.988 -0.35,-1.484 -0.12,-0.497 -0.24,-0.993 -0.36,-1.489 -0.12,-0.496 -0.24,-0.988 -0.36,-1.484 -0.11,-0.496 -0.24,-0.992 -0.35,-1.488 -0.12,-0.493 -0.24,-0.989 -0.36,-1.485 -0.12,-0.496 -0.24,-0.992 -0.36,-1.488 -0.11,-0.492 -0.23,-0.988 -0.35,-1.484 -0.12,-0.497 -0.24,-0.993 -0.36,-1.489 -0.12,-0.492 -0.24,-0.988 -0.35,-1.484 -0.12,-0.496 -0.24,-0.992 -0.36,-1.484 -0.12,-0.497 -0.24,-0.993 -0.36,-1.489 -0.12,-0.496 -0.24,-0.988 -0.35,-1.484 -0.12,-0.496 -0.24,-0.992 -0.36,-1.488 -0.12,-0.497 -0.24,-0.989 -0.36,-1.485 -0.12,-0.496 -0.23,-0.992 -0.35,-1.488 -0.12,-0.492 -0.24,-0.988 -0.36,-1.484 -0.12,-0.497 -0.24,-0.993 -0.36,-1.485 -0.12,-0.496 -0.23,-0.992 -0.35,-1.488 -0.12,-0.496 -0.24,-0.992 -0.36,-1.484 -0.12,-0.497 -0.24,-0.993 -0.36,-1.489 -0.11,-0.496 -0.23,-0.988 -0.35,-1.484 -0.12,-0.496 -0.24,-0.992 -0.36,-1.488 -0.12,-0.497 -0.23,-0.989 -0.36,-1.485 -0.11,-0.496 -0.23,-0.992 -0.35,-1.488 -0.12,-0.492 -0.24,-0.988 -0.36,-1.484 -0.12,-0.497 -0.24,-0.993 -0.36,-1.489 -0.11,-0.492 -0.23,-0.988 -0.35,-1.484 -0.12,-0.496 -0.24,-0.992 -0.36,-1.488 -0.11,-0.493 -0.24,-0.989 -0.35,-1.485 -0.12,-0.496 -0.24,-0.992 -0.36,-1.484 -0.12,-0.496 -0.24,-0.992 -0.36,-1.488 -0.11,-0.497 -0.23,-0.993 -0.35,-1.485 -0.12,-0.496 -0.24,-0.992 -0.36,-1.488 -0.12,-0.496 -0.24,-0.988 -0.36,-1.484 -0.12,-0.497 -0.23,-0.993 -0.35,-1.489 -0.12,-0.496 -0.24,-0.988 -0.36,-1.484 -0.12,-0.496 -0.24,-0.992 -0.35,-1.488 -0.13,-0.493 -0.24,-0.989 -0.36,-1.485 -0.12,-0.496 -0.24,-0.992 -0.36,-1.488 -0.12,-0.492 -0.23,-0.988 -0.35,-1.484 -0.12,-0.497 -0.24,-0.993 -0.36,-1.485 -0.12,-0.496 -0.24,-0.992 -0.36,-1.488 -0.12,-0.496 -0.23,-0.992 -0.35,-1.484 -0.12,-0.497 -0.24,-0.993 -0.36,-1.489 -0.12,-0.496 -0.24,-0.988 -0.36,-1.484 -0.12,-0.496 -0.23,-0.992 -0.35,-1.488 -0.12,-0.493 -0.24,-0.989 -0.36,-1.485 -0.12,-0.496 -0.24,-0.992 -0.36,-1.488 -0.11,-0.492 -0.23,-0.988 -0.35,-1.484 -0.12,-0.497 -0.24,-0.993 -0.36,-1.485 -0.12,-0.496 -0.24,-0.992 -0.36,-1.488 -0.11,-0.496 -0.23,-0.992 -0.35,-1.484 -0.12,-0.497 -0.24,-0.993 -0.36,-1.489 -0.12,-0.496 -0.24,-0.988 -0.35,-1.484 -0.12,-0.496 -0.24,-0.992 -0.36,-1.488 -0.12,-0.496 -0.24,-0.989 -0.36,-1.485 -0.11,-0.496 -0.24,-0.992 -0.35,-1.488 -0.12,-0.492 -0.24,-0.988 -0.36,-1.484 -0.12,-0.497 -0.24,-0.993 -0.36,-1.489 -0.12,-0.492 -0.23,-0.988 -0.35,-1.484 -0.12,-0.496 -0.24,-0.992 -0.36,-1.484 -0.12,-0.497 -0.24,-0.993 -0.35,-1.489 -0.13,-0.496 -0.24,-0.992 -0.36,-1.484 -0.12,-0.496 -0.24,-0.992 -0.36,-1.488 -0.12,-0.496 -0.24,-0.989 -0.35,-1.485 -0.12,-0.496 -0.24,-0.992 -0.36,-1.488 -0.12,-0.496 -0.24,-0.988 -0.36,-1.484 -0.12,-0.497 -0.23,-0.993 -0.36,-1.489 -0.11,-0.496 -0.23,-0.988 -0.35,-1.484 -0.12,-0.496 -0.24,-0.992 -0.36,-1.488 -0.12,-0.493 -0.23,-0.989 -0.36,-1.485 -0.11,-0.496 -0.23,-0.992 -0.35,-1.484 -0.12,-0.496 -0.24,-0.992 -0.36,-1.488 -0.11,-0.496 -0.23,-0.993 -0.35,-1.485 -0.12,-0.496 -0.24,-0.992 -0.36,-1.488 -0.12,-0.496 -0.24,-0.988 -0.36,-1.484 -0.11,-0.497 -0.23,-0.993 -0.35,-1.489 -0.12,-0.496 -0.24,-0.988 -0.36,-1.484 -0.12,-0.496 -0.24,-0.992 -0.35,-1.488 -0.12,-0.493 -0.24,-0.989 -0.36,-1.485 -0.12,-0.496 -0.24,-0.992 -0.36,-1.488 -0.12,-0.492 -0.24,-0.988 -0.35,-1.484 -0.12,-0.496 -0.24,-0.993 -0.36,-1.489 -0.12,-0.492 -0.24,-0.988 -0.36,-1.484 -0.12,-0.496 -0.23,-0.992 -0.35,-1.484 -0.12,-0.497 -0.24,-0.993 -0.36,-1.489 -0.12,-0.496 -0.24,-0.992 -0.35,-1.484 -0.13,-0.496 -0.24,-0.992 -0.36,-1.488 -0.12,-0.496 -0.24,-0.989 -0.36,-1.485 -0.12,-0.496 -0.24,-0.992 -0.35,-1.488 -0.13,-0.492 -0.24,-0.988 -0.36,-1.484 -0.12,-0.496 -0.24,-0.993 -0.36,-1.489 -0.12,-0.492 -0.24,-0.988 -0.36,-1.484 -0.11,-0.496 -0.23,-0.992 -0.35,-1.484 -0.12,-0.497 -0.24,-0.993 -0.36,-1.489 -0.12,-0.496 -0.23,-0.992 -0.36,-1.484 -0.11,-0.496 -0.23,-0.992 -0.35,-1.488 -0.12,-0.496 -0.24,-0.989 -0.36,-1.485 -0.12,-0.496 -0.23,-0.992 -0.35,-1.488 -0.12,-0.496 -0.24,-0.988 -0.36,-1.484 -0.12,-0.496 -0.24,-0.993 -0.36,-1.489 -0.11,-0.492 -0.24,-0.988 -0.35,-1.484 -0.12,-0.496 -0.24,-0.992 -0.36,-1.488 -0.12,-0.493 -0.24,-0.989 -0.36,-1.485 -0.11,-0.496 -0.24,-0.992 -0.35,-1.484 -0.12,-0.496 -0.24,-0.992 -0.36,-1.488 -0.12,-0.496 -0.24,-0.993 -0.35,-1.485 -0.12,-0.496 -0.24,-0.992 -0.36,-1.488 -0.12,-0.496 -0.24,-0.988 -0.36,-1.484 -0.12,-0.496 -0.24,-0.993 -0.35,-1.489 -0.12,-0.496 -0.24,-0.988 -0.36,-1.484 -0.12,-0.496 -0.24,-0.992 -0.36,-1.488 -0.12,-0.493 -0.23,-0.989 -0.35,-1.485 -0.12,-0.496 -0.24,-0.992 -0.36,-1.484 -0.12,-0.496 -0.24,-0.992 -0.36,-1.488 -0.12,-0.496 -0.23,-0.993 -0.35,-1.485 -0.12,-0.496 -0.24,-0.992 -0.36,-1.488 -0.12,-0.496 -0.24,-0.992 -0.36,-1.484 -0.11,-0.496 -0.23,-0.993 -0.35,-1.489 -0.12,-0.496 -0.24,-0.988 -0.36,-1.484 -0.12,-0.496 -0.23,-0.992 -0.36,-1.488 -0.11,-0.493 -0.23,-0.989 -0.35,-1.485 -0.12,-0.496 -0.24,-0.992 -0.36,-1.488 -0.12,-0.492 -0.23,-0.988 -0.36,-1.484 -0.11,-0.496 -0.23,-0.993 -0.35,-1.485 -0.12,-0.496 -0.24,-0.992 -0.36,-1.488 -0.12,-0.496 -0.24,-0.992 -0.35,-1.484 -0.12,-0.496 -0.24,-0.993 -0.36,-1.489 -0.12,-0.496 -0.24,-0.992 -0.36,-1.484 -0.11,-0.496 -0.24,-0.992 -0.35,-1.488 -0.12,-0.496 -0.24,-0.989 -0.36,-1.485 -0.12,-0.496 -0.24,-0.992 -0.36,-1.488 -0.11,-0.492 -0.23,-0.988 -0.35,-1.484 -0.12,-0.496 -0.24,-0.993 -0.36,-1.489 -0.12,-0.492 -0.24,-0.988 -0.35,-1.484 -0.13,-0.496 -0.24,-0.992 -0.36,-1.484 -0.12,-0.496 -0.24,-0.993 -0.36,-1.489 -0.12,-0.496 -0.24,-0.992 -0.35,-1.484 -0.12,-0.496 -0.24,-0.992 -0.36,-1.488 -0.12,-0.496 -0.24,-0.989 -0.36,-1.485 -0.12,-0.496 -0.23,-0.992 -0.35,-1.488 -0.12,-0.496 -0.24,-0.988 -0.36,-1.484 -0.12,-0.496 -0.24,-0.993 -0.36,-1.489 -0.12,-0.492 -0.23,-0.988 -0.35,-1.484 -0.12,-0.496 -0.24,-0.992 -0.36,-1.488 -0.12,-0.492 -0.24,-0.989 -0.36,-1.485 -0.11,-0.496 -0.23,-0.992 -0.35,-1.484 -0.12,-0.496 -0.24,-0.992 -0.36,-1.488 -0.12,-0.496 -0.24,-0.993 -0.36,-1.485 -0.11,-0.496 -0.23,-0.992 -0.35,-1.488 -0.12,-0.496 -0.24,-0.988 -0.36,-1.484 -0.12,-0.496 -0.24,-0.993 -0.36,-1.489 -0.11,-0.496 -0.23,-0.988 -0.35,-1.484 -0.12,-0.496 -0.24,-0.992 -0.36,-1.488 -0.11,-0.492 -0.24,-0.989 -0.35,-1.485 -0.12,-0.496 -0.24,-0.992 -0.36,-1.488 -0.12,-0.492 -0.24,-0.988 -0.36,-1.484 -0.11,-0.496 -0.24,-0.993 -0.35,-1.485 -0.12,-0.496 -0.24,-0.992 -0.36,-1.488 -0.12,-0.496 -0.24,-0.992 -0.35,-1.484 -0.13,-0.496 -0.24,-0.993 -0.36,-1.489 -0.12,-0.496 -0.24,-0.988 -0.36,-1.484 -0.12,-0.496 -0.24,-0.992 -0.35,-1.488 -0.13,-0.496 -0.24,-0.989 -0.36,-1.485 -0.12,-0.496 -0.24,-0.992 -0.36,-1.488 -0.12,-0.492 -0.24,-0.988 -0.35,-1.484 -0.12,-0.496 -0.24,-0.993 -0.36,-1.489 -0.12,-0.492 -0.24,-0.988 -0.36,-1.484 -0.12,-0.496 -0.23,-0.992 -0.36,-1.484 -0.11,-0.496 -0.23,-0.993 -0.35,-1.489 -0.12,-0.496 -0.24,-0.988 -0.36,-1.484 -0.12,-0.496 -0.23,-0.992 -0.35,-1.488 -0.12,-0.496 -0.24,-0.989 -0.36,-1.485 -0.12,-0.496 -0.24,-0.992 -0.36,-1.488 -0.11,-0.496 -0.23,-0.988 -0.35,-1.484 -0.12,-0.496 -0.24,-0.993 -0.36,-1.489 -0.12,-0.492 -0.24,-0.988 -0.36,-1.484 -0.11,-0.496 -0.23,-0.992 -0.35,-1.488 -0.12,-0.492 -0.24,-0.989 -0.36,-1.485 -0.12,-0.496 -0.24,-0.992 -0.35,-1.484 -0.12,-0.496 -0.24,-0.992 -0.36,-1.488 -0.12,-0.496 -0.24,-0.992 -0.36,-1.485 -0.12,-0.496 -0.24,-0.992 -0.35,-1.488 -0.12,-0.496 -0.24,-0.988 -0.36,-1.484 -0.12,-0.496 -0.24,-0.993 -0.36,-1.489 -0.12,-0.492 -0.23,-0.988 -0.35,-1.484 -0.12,-0.496 -0.24,-0.992 -0.36,-1.488 -0.12,-0.492 -0.24,-0.989 -0.35,-1.485 -0.13,-0.496 -0.24,-0.992 -0.36,-1.484 -0.12,-0.496 -0.24,-0.992 -0.36,-1.488 -0.12,-0.496 -0.24,-0.992 -0.35,-1.485 -0.12,-0.496 -0.24,-0.992 -0.36,-1.488 -0.12,-0.496 -0.24,-0.988 -0.36,-1.484 -0.12,-0.496 -0.24,-0.993 -0.36,-1.489 -0.11,-0.496 -0.23,-0.988 -0.35,-1.484 -0.12,-0.496 -0.24,-0.992 -0.36,-1.488 -0.12,-0.496 -0.23,-0.989 -0.36,-1.485 -0.11,-0.496 -0.23,-0.992 -0.35,-1.488 -0.12,-0.492 -0.24,-0.988 -0.36,-1.484 -0.11,-0.496 -0.23,-0.992 -0.35,-1.485 -0.12,-0.496 -0.24,-0.992 -0.36,-1.488 -0.12,-0.496 -0.24,-0.992 -0.36,-1.484 -0.11,-0.496 -0.24,-0.993 -0.35,-1.489 -0.12,-0.496 -0.24,-0.992 -0.36,-1.484 -0.12,-0.496 -0.24,-0.992 -0.36,-1.488 -0.11,-0.496 -0.23,-0.989 -0.35,-1.485 -0.12,-0.496 -0.24,-0.992 -0.36,-1.488 -0.12,-0.492 -0.24,-0.988 -0.35,-1.484 -0.12,-0.496 -0.24,-0.992 -0.36,-1.489 -0.12,-0.492 -0.24,-0.988 -0.36,-1.484 -0.12,-0.496 -0.24,-0.992 -0.35,-1.484 -0.12,-0.496 -0.24,-0.993 -0.36,-1.489 -0.12,-0.496 -0.24,-0.988 -0.36,-1.484 -0.12,-0.496 -0.23,-0.992 -0.35,-1.488 -0.12,-0.496 -0.24,-0.989 -0.36,-1.485 -0.12,-0.496 -0.24,-0.992 -0.36,-1.488 -0.12,-0.496 -0.23,-0.988 -0.35,-1.484 -0.12,-0.496 -0.24,-0.992 -0.36,-1.489 -0.12,-0.492 -0.24,-0.988 -0.36,-1.484 -0.11,-0.496 -0.23,-0.992 -0.35,-1.488 -0.12,-0.492 -0.24,-0.989 -0.36,-1.485 -0.12,-0.496 -0.23,-0.992 -0.36,-1.484 -0.11,-0.496 -0.23,-0.992 -0.35,-1.488 -0.12,-0.496 -0.24,-0.992 -0.36,-1.485 -0.12,-0.496 -0.23,-0.992 -0.36,-1.488 -0.11,-0.496 -0.23,-0.988 -0.35,-1.484 -0.12,-0.496 -0.24,-0.992 -0.36,-1.489 -0.11,-0.492 -0.24,-0.988 -0.35,-1.484 -0.12,-0.496 -0.24,-0.992 -0.36,-1.488 -0.12,-0.492 -0.24,-0.989 -0.36,-1.485 -0.11,-0.496 -0.24,-0.992 -0.35,-1.488 -0.12,-0.492 -0.24,-0.988 -0.36,-1.484 -0.12,-0.496 -0.24,-0.992 -0.35,-1.485 -0.12,-0.496 -0.24,-0.992 -0.36,-1.488 -0.12,-0.496 -0.24,-0.992 -0.36,-1.484 -0.12,-0.496 -0.24,-0.992 -0.35,-1.489 -0.13,-0.496 -0.24,-0.988 -0.36,-1.484 -0.12,-0.496 -0.24,-0.992 -0.36,-1.488 -0.12,-0.496 -0.24,-0.989 -0.35,-1.485 -0.12,-0.496 -0.24,-0.992 -0.36,-1.488 -0.12,-0.496 -0.24,-0.988 -0.36,-1.484 -0.12,-0.496 -0.23,-0.992 -0.35,-1.489 -0.12,-0.492 -0.24,-0.988 -0.36,-1.484 -0.12,-0.496 -0.24,-0.992 -0.36,-1.484 -0.12,-0.496 -0.23,-0.992 -0.35,-1.489 -0.12,-0.496 -0.24,-0.992 -0.36,-1.484 -0.12,-0.496 -0.24,-0.992 -0.36,-1.488 -0.11,-0.496 -0.23,-0.989 -0.35,-1.485 -0.12,-0.496 -0.24,-0.992 -0.36,-1.488 -0.12,-0.496 -0.24,-0.988 -0.36,-1.484 -0.11,-0.496 -0.23,-0.992 -0.35,-1.489 -0.12,-0.492 -0.24,-0.988 -0.36,-1.484 -0.11,-0.496 -0.24,-0.992 -0.35,-1.488 -0.12,-0.492 -0.24,-0.988 -0.36,-1.485 -0.12,-0.496 -0.24,-0.992 -0.36,-1.484 -0.11,-0.496 -0.24,-0.992 -0.35,-1.488 -0.12,-0.496 -0.24,-0.989 -0.36,-1.485 -0.12,-0.496 -0.24,-0.992 -0.36,-1.488 -0.11,-0.496 -0.23,-0.988 -0.35,-1.484 -0.12,-0.496 -0.24,-0.992 -0.36,-1.489 -0.12,-0.496 -0.24,-0.988 -0.35,-1.484 -0.13,-0.496 -0.24,-0.992 -0.36,-1.488 -0.12,-0.492 -0.24,-0.988 -0.36,-1.485 -0.12,-0.496 -0.24,-0.992 -0.35,-1.488 -0.13,-0.492 -0.24,-0.988 -0.36,-1.484 -0.12,-0.496 -0.24,-0.992 -0.36,-1.485 -0.12,-0.496 -0.23,-0.992 -0.35,-1.488 -0.12,-0.496 -0.24,-0.992 -0.36,-1.484 -0.12,-0.496 -0.24,-0.992 -0.36,-1.489 -0.12,-0.496 -0.23,-0.988 -0.36,-1.484 -0.11,-0.496 -0.23,-0.992 -0.35,-1.488 -0.12,-0.496 -0.24,-0.988 -0.36,-1.485 -0.11,-0.496 -0.23,-0.992 -0.35,-1.488 -0.12,-0.492 -0.24,-0.988 -0.36,-1.484 -0.12,-0.496 -0.24,-0.992 -0.36,-1.489 -0.11,-0.4917 -0.23,-0.9878 -0.35,-1.4839 -0.12,-0.4961 -0.24,-0.9922 -0.36,-1.4844 -0.12,-0.4961 -0.24,-0.9922 -0.36,-1.4883 -0.11,-0.4961 -0.23,-0.9882 -0.35,-1.4843 -0.12,-0.4961 -0.24,-0.9922 -0.36,-1.4883 -0.11,-0.4961 -0.24,-0.9883 -0.35,-1.4844 -0.12,-0.4961 -0.24,-0.9922 -0.36,-1.4883 -0.12,-0.4961 -0.24,-0.9883 -0.36,-1.4843 -0.12,-0.4961 -0.24,-0.9922 -0.35,-1.4883 -0.12,-0.4922 -0.24,-0.9883 -0.36,-1.4844 -0.12,-0.4961 -0.24,-0.9922 -0.35,-1.4844 -0.13,-0.4961 -0.24,-0.9922 -0.36,-1.4883 -0.12,-0.4961 -0.24,-0.9921 -0.36,-1.4843 -0.12,-0.4961 -0.24,-0.9922 -0.35,-1.4883 -0.13,-0.4961 -0.24,-0.9883 -0.36,-1.4844 -0.12,-0.4961 -0.24,-0.9922 -0.36,-1.4883 -0.12,-0.4961 -0.24,-0.9883 -0.35,-1.4843 -0.12,-0.4961 -0.24,-0.9922 -0.36,-1.4883 -0.12,-0.4922 -0.24,-0.9883 -0.36,-1.4844 -0.12,-0.4961 -0.23,-0.9922 -0.36,-1.4883 -0.11,-0.4922 -0.23,-0.9883 -0.35,-1.4844 -0.12,-0.4961 -0.24,-0.9921 -0.36,-1.4843 -0.12,-0.4961 -0.23,-0.9922 -0.35,-1.4883 -0.12,-0.4961 -0.24,-0.9922 -0.36,-1.4844 -0.12,-0.4961 -0.24,-0.9922 -0.36,-1.4883 -0.11,-0.4961 -0.23,-0.9883 -0.35,-1.4843 -0.12,-0.4961 -0.24,-0.9922 -0.36,-1.4883 -0.12,-0.4961 -0.24,-0.9883 -0.36,-1.4844 -0.11,-0.4961 -0.24,-0.9922 -0.35,-1.4883 -0.12,-0.4922 -0.24,-0.9883 -0.36,-1.4844 -0.12,-0.4961 -0.24,-0.9921 -0.35,-1.4882 -0.12,-0.4922 -0.24,-0.9883 -0.36,-1.4844 -0.12,-0.4961 -0.24,-0.9922 -0.36,-1.4844 -0.12,-0.4961 -0.24,-0.9922 -0.35,-1.4883 -0.12,-0.4961 -0.24,-0.9922 -0.36,-1.4843 -0.12,-0.4961 -0.24,-0.9922 -0.36,-1.4883 -0.12,-0.4961 -0.23,-0.9922 -0.35,-1.4844 -0.12,-0.4961 -0.24,-0.9922 -0.36,-1.4883 -0.12,-0.4961 -0.24,-0.9883 -0.35,-1.4844 -0.13,-0.4961 -0.24,-0.9921 -0.36,-1.4882 -0.12,-0.4922 -0.24,-0.9883 -0.36,-1.4844 -0.12,-0.4961 -0.24,-0.9922 -0.36,-1.4883 -0.12,-0.4922 -0.23,-0.9883 -0.35,-1.4844 -0.12,-0.4961 -0.24,-0.9922 -0.36,-1.4843 -0.12,-0.4961 -0.23,-0.9922 -0.36,-1.4883 -0.11,-0.4961 -0.23,-0.9883 -0.35,-1.4844 -0.12,-0.4961 -0.24,-0.9922 -0.36,-1.4883 -0.12,-0.4961 -0.23,-0.9922 -0.36,-1.4844 -0.11,-0.4961 -0.23,-0.9921 -0.35,-1.4882 -0.12,-0.4961 -0.24,-0.9883 -0.36,-1.4844 -0.11,-0.4961 -0.23,-0.9922 -0.35,-1.4883 -0.12,-0.4922 -0.24,-0.9883 -0.36,-1.4844 -0.12,-0.4961 -0.24,-0.9922 -0.36,-1.4883 -0.11,-0.4921 -0.24,-0.9882 -0.35,-1.4843 -0.12,-0.4961 -0.24,-0.9922 -0.36,-1.4844 -0.12,-0.4961 -0.24,-0.9922 -0.36,-1.4883 -0.11,-0.4961 -0.23,-0.9922 -0.35,-1.4844 -0.12,-0.4961 -0.24,-0.9921 -0.36,-1.4882 -0.12,-0.4961 -0.24,-0.9883 -0.35,-1.4844 -0.12,-0.4961 -0.24,-0.9922 -0.36,-1.4883" /><path
         id="path120"
         style="fill:#000000;fill-opacity:1;fill-rule:nonzero;stroke:none"
         d="m 2472.23,544.645 v -6.934 h -8.89 V 520.23 h -8.06 v 17.481 h -28.03 v 6.25 l 30.72,43.848 h 5.37 v -43.164 z m -16.95,0 v 32.863 l -23.24,-32.863 z" /><path
         id="path122"
         style="fill:#000000;fill-opacity:1;fill-rule:nonzero;stroke:none"
         d="m 2484.23,597.855 v 2.051 c 4.95,-2.441 9.06,-5.32 12.35,-8.64 4.66,-4.754 8.26,-10.328 10.8,-16.723 2.53,-6.398 3.8,-13.063 3.8,-19.996 0,-10.09 -2.48,-19.297 -7.45,-27.613 -4.96,-8.317 -11.46,-14.266 -19.5,-17.848 v 1.809 c 4,2.246 7.3,5.281 9.89,9.105 2.58,3.824 4.51,8.691 5.76,14.602 1.25,5.906 1.88,12.066 1.88,18.48 0,6.934 -0.54,13.266 -1.61,18.992 -0.82,4.492 -1.83,8.09 -3.06,10.793 -1.21,2.703 -2.84,5.305 -4.85,7.813 -2.02,2.508 -4.69,4.898 -8.01,7.175 v 0" /><path
         id="path124"
         style="fill:none;stroke:#000000;stroke-width:3.5;stroke-linecap:butt;stroke-linejoin:miter;stroke-miterlimit:10;stroke-dasharray:none;stroke-opacity:1"
         d="m 2545.92,595.094 0.17,-587.71509 m 73.39,587.71509 0.16,-587.71509 m 73.4,587.71509 0.17,-587.71509 m 73.4,587.71509 0.14,-519.9143 0.02,-67.80079 m 73.39,587.71509 0.17,-587.71509 m 73.4,587.71509 0.16,-587.71509 m 73.4,587.71509 0.16,-587.71509 m 73.4,587.71509 0.16,-587.71509 m 73.4,587.71509 0.16,-587.71509 m -588.65,587.71509 588.37,0.117 m -588.37,-73.574 588.37,0.113 m -588.37,-73.574 588.37,0.117 m -588.37,-73.574 588.37,0.113 m -588.37,-73.574 588.37,0.113 m -588.37,-73.574 588.37,0.117 m -588.37,-73.574 588.37,0.113 m -588.37,-73.5741 588.37,0.1133 M 2545.92,7.41797 3134.29,7.53516" /><path
         id="path126"
         style="fill:none;stroke:#000000;stroke-width:7.5;stroke-linecap:butt;stroke-linejoin:miter;stroke-miterlimit:10;stroke-dasharray:none;stroke-opacity:1"
         d="m 2835.88,10.3828 0.48,581.2342" /><path
         id="path128"
         style="fill:#000000;fill-opacity:1;fill-rule:evenodd;stroke:none"
         d="m 2818.17,552.398 18.12,49.153 18.04,-49.184 c -10.67,7.863 -25.27,7.832 -36.16,0.031" /><path
         id="path130"
         style="fill:none;stroke:#000000;stroke-width:7.5;stroke-linecap:butt;stroke-linejoin:miter;stroke-miterlimit:10;stroke-dasharray:none;stroke-opacity:1"
         d="m 2540.28,299.066 582.33,-0.48" /><path
         id="path132"
         style="fill:#000000;fill-opacity:1;fill-rule:evenodd;stroke:none"
         d="m 3083.39,316.77 49.15,-18.122 -49.18,-18.039 c 7.86,10.668 7.82,25.274 0.03,36.161" /><path
         id="path134"
         style="fill:none;stroke:#000000;stroke-width:10;stroke-linecap:butt;stroke-linejoin:miter;stroke-miterlimit:10;stroke-dasharray:none;stroke-opacity:1"
         d="M 2909.92,325.43 V 282.578" /><path
         id="path136"
         style="fill:none;stroke:#000000;stroke-width:10;stroke-linecap:butt;stroke-linejoin:miter;stroke-miterlimit:10;stroke-dasharray:none;stroke-opacity:1"
         d="m 2858,378.668 h -42.91" /><path
         id="path138"
         style="fill:#000000;fill-opacity:1;fill-rule:nonzero;stroke:none"
         d="m 2794.54,404.938 14.82,7.214 h 1.48 v -51.336 c 0,-3.406 0.14,-5.527 0.42,-6.367 0.29,-0.836 0.88,-1.48 1.78,-1.926 0.89,-0.449 2.72,-0.703 5.47,-0.761 v -1.66 h -22.89 v 1.66 c 2.87,0.058 4.72,0.304 5.56,0.738 0.84,0.434 1.43,1.016 1.75,1.75 0.33,0.73 0.5,2.922 0.5,6.566 v 32.821 c 0,4.426 -0.15,7.261 -0.45,8.519 -0.21,0.957 -0.59,1.66 -1.15,2.106 -0.55,0.449 -1.22,0.676 -1.99,0.676 -1.11,0 -2.65,-0.465 -4.63,-1.391 l -0.67,1.391" /><path
         id="path140"
         style="fill:#000000;fill-opacity:1;fill-rule:nonzero;stroke:none"
         d="m 2869.55,291.012 14.82,7.218 h 1.48 v -51.335 c 0,-3.411 0.14,-5.532 0.42,-6.368 0.29,-0.836 0.88,-1.48 1.78,-1.929 0.9,-0.446 2.72,-0.7 5.47,-0.762 v -1.66 h -22.89 v 1.66 c 2.87,0.062 4.73,0.309 5.57,0.742 0.83,0.43 1.42,1.016 1.75,1.746 0.32,0.735 0.49,2.922 0.49,6.571 v 32.82 c 0,4.422 -0.15,7.262 -0.45,8.515 -0.21,0.958 -0.59,1.661 -1.15,2.11 -0.55,0.449 -1.21,0.672 -1.99,0.672 -1.11,0 -2.65,-0.465 -4.63,-1.391 l -0.67,1.391" /><path
         id="path142"
         style="fill:#000000;fill-opacity:1;fill-rule:nonzero;stroke:none"
         d="m 3092.82,285.563 c 1.46,-1.555 2.57,-3.11 3.32,-4.665 0.54,-1.074 1.42,-3.902 2.65,-8.472 l 3.95,5.918 c 1.05,1.433 2.32,2.801 3.81,4.101 1.5,1.301 2.82,2.192 3.96,2.668 0.72,0.297 1.51,0.45 2.38,0.45 1.28,0 2.31,-0.344 3.07,-1.032 0.77,-0.687 1.15,-1.527 1.15,-2.511 0,-1.137 -0.23,-1.915 -0.68,-2.332 -0.84,-0.747 -1.79,-1.122 -2.87,-1.122 -0.63,0 -1.3,0.137 -2.02,0.403 -1.41,0.48 -2.35,0.719 -2.83,0.719 -0.72,0 -1.57,-0.418 -2.56,-1.254 -1.85,-1.555 -4.07,-4.559 -6.64,-9.012 l 3.68,-15.426 c 0.57,-2.359 1.04,-3.773 1.44,-4.234 0.39,-0.465 0.77,-0.696 1.16,-0.696 0.63,0 1.36,0.344 2.2,1.032 1.65,1.375 3.06,3.168 4.22,5.379 l 1.58,-0.809 c -1.89,-3.527 -4.29,-6.453 -7.19,-8.785 -1.65,-1.317 -3.04,-1.973 -4.17,-1.973 -1.68,0 -3.01,0.942 -4,2.824 -0.63,1.164 -1.93,6.188 -3.91,15.063 -4.67,-8.098 -8.41,-13.317 -11.22,-15.645 -1.83,-1.496 -3.59,-2.242 -5.3,-2.242 -1.2,0 -2.29,0.434 -3.28,1.301 -0.72,0.656 -1.08,1.539 -1.08,2.644 0,0.985 0.33,1.809 0.99,2.465 0.66,0.657 1.47,0.989 2.43,0.989 0.96,0 1.97,-0.481 3.05,-1.438 0.78,-0.687 1.38,-1.031 1.8,-1.031 0.36,0 0.82,0.238 1.39,0.719 1.4,1.136 3.32,3.586 5.75,7.351 2.42,3.766 4,6.488 4.75,8.16 -1.85,7.266 -2.85,11.106 -3,11.524 -0.69,1.945 -1.59,3.316 -2.7,4.125 -1.1,0.808 -2.74,1.211 -4.89,1.211 -0.69,0 -1.48,-0.032 -2.38,-0.09 v 1.613 l 11.99,2.11" /><path
         id="path144"
         style="fill:#000000;fill-opacity:1;fill-rule:nonzero;stroke:none"
         d="m 2790.77,590.816 c 1.02,-1.734 1.72,-3.355 2.11,-4.867 0.39,-1.508 0.78,-4.472 1.17,-8.898 l 1.98,-22.059 c 1.79,2.153 4.4,5.559 7.81,10.223 1.64,2.269 3.68,5.363 6.11,9.281 1.46,2.391 2.36,4.063 2.69,5.02 0.18,0.48 0.27,0.972 0.27,1.48 0,0.328 -0.11,0.598 -0.32,0.809 -0.21,0.207 -0.75,0.453 -1.64,0.738 -0.88,0.285 -1.61,0.809 -2.2,1.57 -0.58,0.762 -0.87,1.637 -0.87,2.621 0,1.227 0.36,2.215 1.08,2.961 0.72,0.746 1.61,1.121 2.69,1.121 1.32,0 2.44,-0.546 3.37,-1.636 0.93,-1.09 1.39,-2.594 1.39,-4.508 0,-2.359 -0.81,-5.059 -2.43,-8.09 -1.61,-3.035 -4.73,-7.691 -9.34,-13.969 -4.6,-6.277 -10.19,-13.121 -16.74,-20.535 -4.52,-5.109 -7.87,-8.332 -10.06,-9.66 -2.18,-1.332 -4.05,-1.996 -5.61,-1.996 -0.93,0 -1.74,0.351 -2.45,1.055 -0.7,0.699 -1.05,1.515 -1.05,2.441 0,1.168 0.48,2.227 1.46,3.184 0.97,0.957 2.02,1.433 3.16,1.433 0.6,0 1.1,-0.133 1.49,-0.402 0.23,-0.149 0.5,-0.574 0.78,-1.278 0.28,-0.703 0.54,-1.171 0.79,-1.414 0.14,-0.148 0.32,-0.222 0.54,-0.222 0.18,0 0.49,0.148 0.94,0.449 1.65,1.016 3.56,2.629 5.74,4.84 2.88,2.93 5,5.32 6.38,7.176 l -2.51,28.425 c -0.43,4.692 -1.05,7.547 -1.89,8.563 -0.84,1.016 -2.25,1.527 -4.22,1.527 -0.63,0 -1.75,-0.09 -3.37,-0.269 l -0.4,1.656 13.15,3.23" /><path
         id="path146"
         style="fill:#000000;fill-opacity:1;fill-rule:nonzero;stroke:none"
         d="m 2882.53,369.496 c 4.04,0 7.62,-0.875 10.73,-2.625 3.12,-1.746 5.56,-4.332 7.32,-7.758 1.77,-3.422 2.65,-6.968 2.65,-10.648 0,-6.516 -1.89,-13.352 -5.68,-20.512 -3.78,-7.156 -8.73,-12.621 -14.84,-16.387 -6.1,-3.765 -12.42,-5.648 -18.94,-5.648 -4.7,0 -8.63,1.039 -11.79,3.117 -3.16,2.074 -5.49,4.817 -7,8.227 -1.52,3.406 -2.27,6.711 -2.27,9.906 0,5.68 1.37,11.293 4.11,16.836 2.73,5.547 6,10.18 9.81,13.902 3.8,3.719 7.85,6.582 12.16,8.586 4.32,2 8.89,3.004 13.74,3.004 z m -1.52,-2.871 c -3,0 -5.92,-0.738 -8.78,-2.219 -2.86,-1.48 -5.69,-3.902 -8.51,-7.265 -2.81,-3.36 -5.34,-7.762 -7.59,-13.203 -2.75,-6.696 -4.13,-13.016 -4.13,-18.965 0,-4.246 1.09,-8.004 3.28,-11.278 2.18,-3.273 5.54,-4.91 10.06,-4.91 2.72,0 5.39,0.676 8.01,2.02 2.62,1.343 5.35,3.644 8.19,6.906 3.57,4.094 6.56,9.316 8.98,15.668 2.43,6.351 3.64,12.277 3.64,17.777 0,4.067 -1.09,7.66 -3.28,10.785 -2.18,3.122 -5.47,4.684 -9.87,4.684 v 0" /><path
         id="path148"
         style="fill:none;stroke:#000000;stroke-width:10;stroke-linecap:butt;stroke-linejoin:miter;stroke-miterlimit:10;stroke-dasharray:none;stroke-opacity:1"
         d="m 1327.84,596.898 c -0.12,-0.492 -0.24,-0.984 -0.36,-1.476 -0.12,-0.488 -0.24,-0.981 -0.36,-1.473 -0.12,-0.492 -0.24,-0.98 -0.36,-1.472 -0.12,-0.493 -0.24,-0.985 -0.36,-1.473 -0.12,-0.492 -0.24,-0.984 -0.36,-1.477 -0.12,-0.488 -0.24,-0.98 -0.36,-1.472 -0.12,-0.492 -0.24,-0.985 -0.36,-1.473 -0.12,-0.492 -0.24,-0.984 -0.36,-1.477 -0.12,-0.492 -0.24,-0.98 -0.36,-1.472 -0.12,-0.492 -0.24,-0.985 -0.36,-1.473 -0.11,-0.492 -0.24,-0.984 -0.36,-1.476 -0.12,-0.489 -0.24,-0.981 -0.36,-1.473 -0.12,-0.492 -0.23,-0.984 -0.36,-1.473 -0.12,-0.492 -0.24,-0.984 -0.36,-1.476 -0.12,-0.489 -0.24,-0.981 -0.35,-1.473 -0.13,-0.492 -0.25,-0.98 -0.36,-1.473 -0.13,-0.492 -0.25,-0.984 -0.37,-1.476 -0.11,-0.488 -0.24,-0.981 -0.36,-1.473 -0.12,-0.492 -0.23,-0.98 -0.36,-1.472 -0.12,-0.493 -0.23,-0.985 -0.36,-1.473 -0.12,-0.492 -0.23,-0.984 -0.35,-1.477 -0.13,-0.492 -0.25,-0.98 -0.36,-1.472 -0.13,-0.493 -0.25,-0.985 -0.36,-1.473 -0.12,-0.492 -0.25,-0.984 -0.36,-1.477 -0.12,-0.488 -0.25,-0.98 -0.37,-1.472 -0.11,-0.492 -0.23,-0.985 -0.36,-1.473 -0.11,-0.492 -0.23,-0.984 -0.35,-1.476 -0.13,-0.493 -0.24,-0.981 -0.36,-1.473 -0.13,-0.492 -0.24,-0.984 -0.36,-1.473 -0.12,-0.492 -0.25,-0.984 -0.36,-1.476 -0.12,-0.489 -0.25,-0.981 -0.36,-1.473 -0.12,-0.492 -0.24,-0.98 -0.37,-1.473 -0.11,-0.492 -0.23,-0.984 -0.36,-1.476 -0.11,-0.488 -0.23,-0.981 -0.35,-1.473 -0.13,-0.492 -0.24,-0.98 -0.36,-1.472 -0.12,-0.493 -0.24,-0.985 -0.36,-1.473 -0.12,-0.492 -0.24,-0.985 -0.36,-1.477 -0.12,-0.492 -0.24,-0.98 -0.36,-1.472 -0.12,-0.493 -0.24,-0.985 -0.36,-1.473 -0.12,-0.492 -0.24,-0.984 -0.36,-1.477 -0.12,-0.492 -0.24,-0.98 -0.36,-1.472 -0.12,-0.492 -0.24,-0.985 -0.36,-1.473 -0.12,-0.492 -0.24,-0.984 -0.36,-1.476 -0.12,-0.489 -0.24,-0.981 -0.36,-1.473 -0.12,-0.492 -0.24,-0.984 -0.36,-1.473 -0.12,-0.492 -0.24,-0.984 -0.36,-1.476 -0.12,-0.489 -0.24,-0.981 -0.36,-1.473 -0.12,-0.492 -0.24,-0.98 -0.36,-1.473 -0.12,-0.492 -0.24,-0.984 -0.36,-1.476 -0.12,-0.488 -0.24,-0.981 -0.36,-1.473 -0.12,-0.492 -0.24,-0.98 -0.36,-1.473 -0.12,-0.492 -0.24,-0.984 -0.36,-1.476 -0.12,-0.488 -0.24,-0.981 -0.36,-1.473 -0.12,-0.492 -0.24,-0.98 -0.36,-1.472 -0.12,-0.493 -0.24,-0.985 -0.36,-1.477 -0.12,-0.488 -0.24,-0.98 -0.36,-1.473 -0.12,-0.492 -0.24,-0.98 -0.36,-1.472 -0.12,-0.492 -0.24,-0.985 -0.36,-1.473 -0.12,-0.492 -0.24,-0.984 -0.36,-1.476 -0.12,-0.493 -0.24,-0.981 -0.36,-1.473 -0.12,-0.492 -0.24,-0.985 -0.36,-1.473 -0.12,-0.492 -0.24,-0.984 -0.36,-1.476 -0.12,-0.493 -0.24,-0.981 -0.36,-1.473 -0.12,-0.492 -0.24,-0.984 -0.36,-1.473 -0.12,-0.492 -0.24,-0.984 -0.36,-1.476 -0.12,-0.489 -0.24,-0.981 -0.36,-1.473 -0.12,-0.492 -0.24,-0.984 -0.36,-1.473 -0.12,-0.492 -0.24,-0.984 -0.36,-1.476 -0.12,-0.488 -0.24,-0.981 -0.36,-1.473 -0.12,-0.492 -0.24,-0.98 -0.36,-1.472 -0.12,-0.493 -0.24,-0.985 -0.36,-1.477 -0.12,-0.488 -0.24,-0.98 -0.36,-1.473 -0.12,-0.492 -0.24,-0.98 -0.36,-1.472 -0.12,-0.492 -0.24,-0.985 -0.36,-1.473 -0.12,-0.492 -0.24,-0.984 -0.36,-1.477 -0.12,-0.492 -0.24,-0.98 -0.36,-1.472 -0.12,-0.492 -0.24,-0.985 -0.36,-1.473 -0.12,-0.492 -0.24,-0.984 -0.36,-1.476 -0.12,-0.493 -0.24,-0.981 -0.36,-1.473 -0.12,-0.492 -0.24,-0.984 -0.36,-1.473 -0.12,-0.492 -0.24,-0.984 -0.36,-1.476 -0.12,-0.489 -0.24,-0.981 -0.36,-1.473 -0.12,-0.492 -0.24,-0.984 -0.36,-1.473 -0.12,-0.492 -0.24,-0.984 -0.36,-1.476 -0.12,-0.488 -0.23,-0.981 -0.36,-1.473 -0.12,-0.492 -0.24,-0.984 -0.36,-1.472 -0.12,-0.493 -0.24,-0.985 -0.35,-1.477 -0.13,-0.488 -0.25,-0.98 -0.37,-1.473 -0.12,-0.492 -0.24,-0.98 -0.36,-1.472 -0.11,-0.493 -0.24,-0.985 -0.36,-1.477 -0.11,-0.488 -0.24,-0.98 -0.36,-1.473 -0.12,-0.492 -0.23,-0.98 -0.36,-1.472 -0.12,-0.492 -0.23,-0.985 -0.35,-1.473 -0.13,-0.492 -0.24,-0.984 -0.36,-1.476 -0.13,-0.493 -0.25,-0.981 -0.36,-1.473 -0.12,-0.492 -0.25,-0.984 -0.37,-1.473 -0.11,-0.492 -0.24,-0.984 -0.36,-1.476 -0.11,-0.492 -0.23,-0.981 -0.36,-1.473 -0.11,-0.492 -0.23,-0.984 -0.36,-1.473 -0.12,-0.492 -0.23,-0.984 -0.35,-1.476 -0.13,-0.492 -0.24,-0.981 -0.36,-1.473 -0.12,-0.492 -0.24,-0.984 -0.36,-1.472 -0.12,-0.493 -0.25,-0.985 -0.36,-1.477 -0.12,-0.488 -0.24,-0.981 -0.36,-1.473 -0.12,-0.492 -0.24,-0.984 -0.36,-1.472 -0.12,-0.493 -0.24,-0.985 -0.36,-1.477 -0.12,-0.488 -0.24,-0.98 -0.36,-1.473 -0.12,-0.492 -0.24,-0.98 -0.36,-1.472 -0.12,-0.492 -0.24,-0.985 -0.36,-1.477 -0.12,-0.488 -0.24,-0.98 -0.36,-1.472 -0.12,-0.493 -0.24,-0.981 -0.36,-1.473 -0.12,-0.492 -0.24,-0.984 -0.36,-1.473 -0.12,-0.492 -0.24,-0.984 -0.36,-1.476 -0.12,-0.493 -0.24,-0.981 -0.36,-1.473 -0.12,-0.492 -0.24,-0.984 -0.36,-1.473 -0.12,-0.492 -0.24,-0.984 -0.36,-1.476 -0.12,-0.488 -0.24,-0.981 -0.36,-1.473 -0.12,-0.492 -0.24,-0.984 -0.36,-1.473 -0.12,-0.492 -0.24,-0.984 -0.36,-1.476 -0.12,-0.488 -0.24,-0.981 -0.36,-1.473 -0.12,-0.492 -0.24,-0.984 -0.36,-1.472 -0.12,-0.493 -0.24,-0.985 -0.36,-1.477 -0.12,-0.488 -0.24,-0.98 -0.36,-1.473 -0.12,-0.492 -0.24,-0.984 -0.36,-1.472 -0.12,-0.492 -0.24,-0.985 -0.36,-1.477 -0.12,-0.488 -0.24,-0.98 -0.36,-1.472 -0.12,-0.493 -0.24,-0.981 -0.36,-1.473 -0.12,-0.492 -0.24,-0.985 -0.36,-1.477 -0.12,-0.488 -0.24,-0.98 -0.36,-1.472 -0.12,-0.493 -0.24,-0.981 -0.36,-1.473 -0.12,-0.492 -0.24,-0.984 -0.36,-1.473 -0.12,-0.492 -0.24,-0.984 -0.36,-1.476 -0.12,-0.492 -0.24,-0.981 -0.36,-1.473 -0.12,-0.492 -0.24,-0.984 -0.36,-1.473 -0.12,-0.492 -0.24,-0.984 -0.36,-1.476 -0.12,-0.492 -0.24,-0.981 -0.36,-1.473 -0.12,-0.492 -0.24,-0.984 -0.36,-1.472 -0.12,-0.493 -0.24,-0.985 -0.36,-1.477 -0.12,-0.488 -0.24,-0.98 -0.36,-1.473 -0.12,-0.492 -0.24,-0.984 -0.36,-1.472 -0.12,-0.492 -0.24,-0.985 -0.36,-1.477 -0.12,-0.488 -0.24,-0.98 -0.36,-1.473 -0.12,-0.492 -0.24,-0.98 -0.36,-1.472 -0.12,-0.492 -0.24,-0.985 -0.36,-1.477 -0.12,-0.488 -0.24,-0.98 -0.36,-1.472 -0.12,-0.493 -0.24,-0.981 -0.36,-1.473 -0.12,-0.492 -0.24,-0.984 -0.36,-1.477 -0.12,-0.488 -0.24,-0.98 -0.36,-1.472 -0.12,-0.492 -0.24,-0.981 -0.36,-1.473 -0.12,-0.492 -0.24,-0.984 -0.36,-1.473 -0.12,-0.492 -0.23,-0.984 -0.36,-1.476 -0.12,-0.492 -0.24,-0.981 -0.36,-1.473 -0.12,-0.492 -0.24,-0.984 -0.35,-1.472 -0.13,-0.493 -0.25,-0.985 -0.37,-1.477 -0.12,-0.492 -0.24,-0.98 -0.36,-1.473 -0.11,-0.492 -0.24,-0.984 -0.36,-1.472 -0.12,-0.493 -0.24,-0.985 -0.36,-1.477 -0.12,-0.488 -0.23,-0.98 -0.36,-1.473 -0.12,-0.492 -0.23,-0.98 -0.35,-1.472 -0.13,-0.492 -0.25,-0.985 -0.36,-1.477 -0.13,-0.488 -0.25,-0.98 -0.36,-1.472 -0.12,-0.493 -0.25,-0.985 -0.37,-1.473 -0.11,-0.492 -0.24,-0.984 -0.36,-1.477 -0.12,-0.488 -0.23,-0.98 -0.36,-1.472 -0.11,-0.492 -0.23,-0.981 -0.36,-1.473 -0.12,-0.492 -0.23,-0.984 -0.35,-1.473 -0.13,-0.492 -0.25,-0.984 -0.36,-1.476 -0.12,-0.492 -0.25,-0.981 -0.36,-1.473 -0.12,-0.492 -0.25,-0.984 -0.36,-1.476 -0.12,-0.489 -0.24,-0.981 -0.37,-1.473 -0.11,-0.492 -0.23,-0.981 -0.36,-1.473 -0.11,-0.492 -0.23,-0.984 -0.35,-1.472 -0.12,-0.493 -0.24,-0.985 -0.36,-1.477 -0.13,-0.488 -0.24,-0.98 -0.36,-1.473 -0.12,-0.492 -0.24,-0.984 -0.36,-1.472 -0.12,-0.492 -0.24,-0.985 -0.36,-1.477 -0.12,-0.488 -0.24,-0.98 -0.36,-1.472 -0.12,-0.493 -0.24,-0.985 -0.36,-1.473 -0.12,-0.492 -0.24,-0.984 -0.36,-1.477 -0.12,-0.488 -0.24,-0.98 -0.36,-1.472 -0.12,-0.493 -0.24,-0.981 -0.36,-1.473 -0.12,-0.492 -0.24,-0.984 -0.36,-1.477 -0.12,-0.488 -0.24,-0.98 -0.36,-1.472 -0.12,-0.492 -0.24,-0.981 -0.36,-1.473 -0.12,-0.492 -0.24,-0.984 -0.36,-1.476 -0.12,-0.489 -0.24,-0.981 -0.36,-1.473 -0.12,-0.492 -0.24,-0.981 -0.36,-1.473 -0.12,-0.492 -0.24,-0.984 -0.36,-1.472 -0.12,-0.493 -0.24,-0.985 -0.36,-1.477 -0.12,-0.492 -0.24,-0.98 -0.36,-1.473 -0.12,-0.492 -0.24,-0.984 -0.36,-1.472 -0.12,-0.492 -0.24,-0.985 -0.36,-1.477 -0.12,-0.488 -0.24,-0.98 -0.36,-1.472 -0.12,-0.493 -0.24,-0.985 -0.36,-1.473 -0.12,-0.492 -0.24,-0.985 -0.36,-1.477 -0.12,-0.488 -0.24,-0.98 -0.36,-1.472 -0.12,-0.493 -0.24,-0.981 -0.36,-1.473 -0.12,-0.492 -0.24,-0.984 -0.36,-1.477 -0.12,-0.488 -0.24,-0.98 -0.36,-1.472 -0.12,-0.492 -0.24,-0.981 -0.36,-1.473 -0.12,-0.492 -0.24,-0.984 -0.36,-1.476 -0.12,-0.489 -0.24,-0.981 -0.36,-1.473 -0.12,-0.492 -0.24,-0.981 -0.36,-1.473 -0.12,-0.492 -0.24,-0.984 -0.36,-1.472 -0.12,-0.493 -0.24,-0.985 -0.36,-1.477 -0.12,-0.492 -0.24,-0.98 -0.36,-1.473 -0.12,-0.492 -0.24,-0.984 -0.36,-1.472 -0.12,-0.492 -0.24,-0.985 -0.36,-1.477 -0.12,-0.492 -0.24,-0.98 -0.36,-1.473 -0.12,-0.492 -0.24,-0.984 -0.36,-1.472 -0.12,-0.492 -0.24,-0.985 -0.36,-1.477 -0.12,-0.488 -0.24,-0.98 -0.36,-1.472 -0.12,-0.493 -0.24,-0.985 -0.36,-1.473 -0.12,-0.492 -0.24,-0.984 -0.36,-1.477 -0.12,-0.488 -0.24,-0.98 -0.36,-1.472 -0.12,-0.492 -0.24,-0.985 -0.36,-1.473 -0.12,-0.492 -0.24,-0.984 -0.36,-1.476 -0.12,-0.489 -0.24,-0.981 -0.36,-1.473 -0.12,-0.492 -0.24,-0.981 -0.36,-1.473 -0.12,-0.492 -0.24,-0.984 -0.36,-1.476 -0.12,-0.489 -0.24,-0.981 -0.36,-1.473 -0.12,-0.492 -0.24,-0.98 -0.36,-1.473 -0.12,-0.492 -0.24,-0.984 -0.36,-1.472 -0.12,-0.493 -0.23,-0.985 -0.36,-1.477 -0.12,-0.492 -0.24,-0.98 -0.35,-1.473 -0.13,-0.492 -0.25,-0.984 -0.37,-1.472 -0.12,-0.492 -0.24,-0.985 -0.36,-1.477 -0.11,-0.488 -0.24,-0.98 -0.36,-1.472 -0.12,-0.493 -0.24,-0.985 -0.36,-1.473 -0.12,-0.492 -0.23,-0.984 -0.36,-1.477 -0.12,-0.488 -0.23,-0.98 -0.36,-1.472 -0.12,-0.492 -0.24,-0.981 -0.35,-1.473 -0.13,-0.492 -0.25,-0.984 -0.36,-1.477 -0.12,-0.488 -0.25,-0.98 -0.37,-1.472 -0.11,-0.492 -0.24,-0.981 -0.36,-1.473 -0.11,-0.492 -0.23,-0.984 -0.36,-1.476 -0.11,-0.489 -0.23,-0.981 -0.36,-1.473 -0.12,-0.492 -0.23,-0.981 -0.35,-1.473 -0.13,-0.492 -0.24,-0.984 -0.36,-1.472 -0.13,-0.493 -0.25,-0.985 -0.36,-1.477 -0.12,-0.492 -0.25,-0.98 -0.36,-1.473 -0.12,-0.492 -0.24,-0.984 -0.36,-1.472 -0.12,-0.492 -0.24,-0.985 -0.37,-1.477 -0.11,-0.488 -0.23,-0.98 -0.35,-1.472 -0.12,-0.493 -0.24,-0.985 -0.36,-1.473 -0.13,-0.492 -0.24,-0.984 -0.36,-1.477 -0.12,-0.492 -0.24,-0.98 -0.36,-1.472 -0.12,-0.493 -0.24,-0.985 -0.36,-1.473 -0.12,-0.492 -0.24,-0.984 -0.36,-1.477 -0.12,-0.488 -0.24,-0.98 -0.36,-1.472 -0.12,-0.492 -0.24,-0.985 -0.36,-1.473 -0.12,-0.492 -0.24,-0.984 -0.36,-1.476 -0.12,-0.489 -0.24,-0.981 -0.36,-1.473 -0.12,-0.492 -0.24,-0.981 -0.36,-1.473 -0.12,-0.492 -0.24,-0.984 -0.36,-1.476 -0.12,-0.489 -0.24,-0.981 -0.36,-1.473 -0.12,-0.492 -0.24,-0.98 -0.36,-1.473 -0.12,-0.492 -0.24,-0.984 -0.36,-1.472 -0.12,-0.492 -0.24,-0.985 -0.36,-1.477 -0.12,-0.492 -0.24,-0.98 -0.36,-1.472 -0.12,-0.493 -0.24,-0.985 -0.36,-1.473 -0.12,-0.492 -0.24,-0.985 -0.36,-1.477 -0.12,-0.488 -0.24,-0.98 -0.36,-1.472 -0.12,-0.493 -0.24,-0.985 -0.36,-1.473 -0.12,-0.492 -0.24,-0.984 -0.36,-1.477 -0.12,-0.488 -0.24,-0.98 -0.36,-1.472 -0.12,-0.492 -0.24,-0.985 -0.36,-1.473 -0.12,-0.492 -0.24,-0.984 -0.36,-1.476 -0.12,-0.489 -0.24,-0.981 -0.36,-1.473 -0.12,-0.492 -0.24,-0.981 -0.36,-1.473 -0.12,-0.492 -0.24,-0.984 -0.36,-1.476 -0.12,-0.489 -0.24,-0.981 -0.36,-1.473 -0.12,-0.492 -0.24,-0.98 -0.36,-1.473 -0.12,-0.492 -0.24,-0.984 -0.36,-1.476 -0.12,-0.488 -0.24,-0.981 -0.36,-1.473 -0.12,-0.492 -0.24,-0.98 -0.36,-1.473 -0.12,-0.492 -0.24,-0.984 -0.36,-1.476 -0.12,-0.488 -0.24,-0.981 -0.36,-1.473 -0.12,-0.492 -0.24,-0.98 -0.36,-1.472 -0.12,-0.493 -0.24,-0.985 -0.36,-1.473 -0.12,-0.492 -0.24,-0.984 -0.36,-1.477 -0.12,-0.492 -0.24,-0.98 -0.36,-1.472 -0.12,-0.492 -0.24,-0.985 -0.36,-1.473 -0.12,-0.492 -0.24,-0.984 -0.36,-1.476 -0.12,-0.489 -0.24,-0.981 -0.36,-1.473 -0.12,-0.492 -0.24,-0.985 -0.36,-1.473 -0.12,-0.492 -0.24,-0.984 -0.36,-1.476 -0.12,-0.489 -0.24,-0.981 -0.36,-1.473 -0.12,-0.492 -0.24,-0.98 -0.36,-1.473 -0.12,-0.492 -0.24,-0.984 -0.36,-1.476 -0.12,-0.489 -0.24,-0.981 -0.35,-1.473 -0.13,-0.492 -0.25,-0.98 -0.37,-1.473 -0.12,-0.492 -0.24,-0.984 -0.36,-1.476 -0.11,-0.488 -0.24,-0.981 -0.36,-1.473 -0.12,-0.492 -0.24,-0.98 -0.36,-1.472 -0.12,-0.493 -0.23,-0.985 -0.36,-1.473 -0.12,-0.492 -0.23,-0.984 -0.36,-1.477 -0.12,-0.492 -0.24,-0.98 -0.35,-1.472 -0.13,-0.492 -0.25,-0.985 -0.37,-1.473 -0.11,-0.492 -0.24,-0.984 -0.36,-1.477 -0.11,-0.492 -0.24,-0.98 -0.36,-1.472 -0.11,-0.492 -0.23,-0.985 -0.36,-1.473 -0.12,-0.492 -0.23,-0.984 -0.36,-1.476 -0.12,-0.489 -0.23,-0.981 -0.35,-1.473 -0.13,-0.492 -0.25,-0.984 -0.36,-1.473 -0.13,-0.492 -0.25,-0.984 -0.36,-1.476 -0.12,-0.489 -0.25,-0.981 -0.36,-1.473 -0.12,-0.492 -0.24,-0.984 -0.37,-1.473 -0.11,-0.492 -0.23,-0.984 -0.36,-1.476 -0.11,-0.488 -0.23,-0.981 -0.35,-1.473 -0.13,-0.492 -0.24,-0.98 -0.36,-1.472 -0.13,-0.493 -0.24,-0.985 -0.36,-1.473 -0.12,-0.492 -0.24,-0.984 -0.36,-1.477 -0.12,-0.492 -0.25,-0.98 -0.36,-1.472 -0.12,-0.493 -0.24,-0.985 -0.37,-1.473 -0.11,-0.492 -0.23,-0.984 -0.35,-1.477 -0.12,-0.492 -0.24,-0.98 -0.36,-1.472 -0.12,-0.492 -0.24,-0.985 -0.36,-1.473 -0.12,-0.492 -0.24,-0.984 -0.36,-1.476 -0.12,-0.489 -0.24,-0.981 -0.36,-1.473 -0.12,-0.492 -0.24,-0.984 -0.36,-1.473 -0.12,-0.492 -0.24,-0.984 -0.36,-1.476 -0.12,-0.489 -0.24,-0.981 -0.36,-1.473 -0.12,-0.492 -0.24,-0.984 -0.36,-1.473 -0.12,-0.492 -0.24,-0.984 -0.36,-1.476 -0.12,-0.488 -0.24,-0.981 -0.36,-1.473 -0.12,-0.492 -0.24,-0.98 -0.36,-1.472 -0.12,-0.493 -0.24,-0.985 -0.36,-1.477 -0.12,-0.488 -0.24,-0.981 -0.36,-1.473 -0.12,-0.492 -0.24,-0.984 -0.36,-1.472 -0.12,-0.493 -0.24,-0.985 -0.36,-1.477 -0.12,-0.488 -0.24,-0.98 -0.36,-1.473 -0.12,-0.492 -0.24,-0.98 -0.36,-1.472 -0.12,-0.492 -0.24,-0.985 -0.36,-1.473 -0.12,-0.492 -0.24,-0.984 -0.36,-1.476 -0.12,-0.493 -0.24,-0.981 -0.36,-1.473 -0.12,-0.492 -0.24,-0.984 -0.36,-1.473 -0.12,-0.492 -0.24,-0.9842 -0.36,-1.4763 -0.12,-0.4883 -0.24,-0.9805 -0.36,-1.4727 -0.12,-0.4922 -0.24,-0.9844 -0.36,-1.4727 -0.12,-0.4921 -0.24,-0.9843 -0.36,-1.4765 -0.12,-0.4883 -0.24,-0.9805 -0.36,-1.4727 -0.12,-0.4922 -0.24,-0.9843 -0.36,-1.4726 -0.12,-0.4922 -0.24,-0.9844 -0.36,-1.4766 -0.12,-0.4883 -0.24,-0.9805 -0.36,-1.4726 -0.12,-0.4922 -0.24,-0.9844 -0.36,-1.4727 -0.12,-0.4922 -0.24,-0.9844 -0.36,-1.4766 -0.12,-0.4882 -0.24,-0.9804 -0.36,-1.4726 -0.12,-0.4922 -0.24,-0.9805 -0.36,-1.4727 -0.12,-0.4922 -0.24,-0.9844 -0.36,-1.4726 -0.12,-0.4922 -0.24,-0.9844 -0.36,-1.4766 -0.12,-0.4922 -0.24,-0.9805 -0.36,-1.4727 -0.12,-0.4921 -0.24,-0.9843 -0.36,-1.4765 -0.12,-0.4883 -0.24,-0.9805 -0.36,-1.4727 -0.12,-0.4922 -0.24,-0.9804 -0.36,-1.4726 -0.12,-0.4922 -0.24,-0.9844 -0.36,-1.4727 -0.12,-0.4922 -0.24,-0.9844 -0.36,-1.4765 -0.12,-0.4883 -0.24,-0.9805 -0.36,-1.4727 -0.12,-0.4922 -0.24,-0.9805 -0.36,-1.4727 -0.12,-0.4921 -0.24,-0.9843 -0.36,-1.4765 -0.12,-0.4883 -0.24,-0.9805 -0.36,-1.4727 -0.12,-0.4922 -0.24,-0.9804 -0.36,-1.4726 -0.12,-0.4922 -0.24,-0.9844 -0.36,-1.4766 -0.12,-0.4883 -0.24,-0.9805 -0.36,-1.4727 -0.12,-0.4921 -0.24,-0.9804 -0.36,-1.4726 -0.11,-0.4922 -0.24,-0.9844 -0.36,-1.4766 -0.12,-0.4883 -0.24,-0.9804 -0.36,-1.4726 -0.12,-0.4922 -0.23,-0.9805 -0.36,-1.4727 -0.12,-0.4922 -0.23,-0.9844 -0.36,-1.4726 -0.12,-0.4922 -0.24,-0.9844 -0.35,-1.4766 -0.13,-0.4922 -0.25,-0.9805 -0.36,-1.4727 -0.13,-0.4921 -0.25,-0.9843 -0.37,-1.4726 -0.11,-0.4922 -0.24,-0.9844 -0.36,-1.4766 -0.11,-0.4922 -0.23,-0.9804 -0.36,-1.4726 -0.12,-0.4922 -0.23,-0.9844 -0.36,-1.4727 -0.12,-0.4922 -0.23,-0.9844 -0.35,-1.4766 -0.13,-0.4921 -0.25,-0.9804 -0.36,-1.4726 -0.13,-0.4922 -0.25,-0.9844 -0.36,-1.4727 -0.12,-0.4922 -0.25,-0.9843 -0.36,-1.4765 -0.12,-0.4883 -0.25,-0.9805 -0.37,-1.4727 -0.11,-0.4922 -0.23,-0.9844 -0.36,-1.4726 -0.11,-0.4922 -0.23,-0.9844 -0.35,-1.4766 -0.13,-0.4883 -0.24,-0.9805 -0.36,-1.4727 -0.13,-0.4921 -0.24,-0.9804 -0.36,-1.4726 -0.12,-0.4922 -0.24,-0.9844 -0.36,-1.4766 -0.12,-0.4883 -0.24,-0.9804 -0.36,-1.4726 -0.12,-0.4922 -0.24,-0.9805 -0.36,-1.4727 -0.12,-0.4922 -0.24,-0.9844 -0.37,-1.4726 -0.11,-0.4922 -0.23,-0.9844 -0.35,-1.4766 -0.12,-0.4922 -0.24,-0.9805 -0.36,-1.4727 -0.12,-0.4922 -0.24,-0.9843 -0.36,-1.4726 -0.12,-0.4922 -0.24,-0.9844 -0.36,-1.4766 -0.12,-0.4922 -0.24,-0.9805 -0.36,-1.4726 -0.12,-0.4922 -0.24,-0.9844 -0.36,-1.4727 -0.12,-0.4922 -0.24,-0.9844 -0.36,-1.4766 -0.12,-0.4882 -0.24,-0.9804 -0.36,-1.4726 -0.12,-0.4922 -0.24,-0.9805 -0.36,-1.4727" /><path
         id="path150"
         style="fill:none;stroke:#000000;stroke-width:10;stroke-linecap:butt;stroke-linejoin:miter;stroke-miterlimit:10;stroke-dasharray:none;stroke-opacity:1"
         d="m 369.27,595.738 c 0.136,-0.496 0.269,-0.992 0.402,-1.488 0.137,-0.492 0.269,-0.988 0.402,-1.484 0.137,-0.493 0.27,-0.989 0.403,-1.485 0.136,-0.496 0.269,-0.988 0.402,-1.484 0.137,-0.496 0.269,-0.992 0.402,-1.484 0.137,-0.497 0.27,-0.993 0.403,-1.489 0.136,-0.492 0.269,-0.988 0.402,-1.484 0.137,-0.492 0.269,-0.988 0.402,-1.485 0.137,-0.496 0.27,-0.988 0.403,-1.484 0.136,-0.496 0.269,-0.992 0.402,-1.484 0.137,-0.496 0.27,-0.992 0.402,-1.489 0.137,-0.492 0.27,-0.988 0.403,-1.484 0.136,-0.496 0.269,-0.988 0.402,-1.484 0.137,-0.496 0.27,-0.989 0.402,-1.485 0.137,-0.496 0.27,-0.992 0.403,-1.484 0.136,-0.496 0.269,-0.992 0.402,-1.488 0.133,-0.493 0.27,-0.989 0.402,-1.485 0.137,-0.496 0.27,-0.988 0.403,-1.484 0.136,-0.496 0.269,-0.992 0.402,-1.484 0.137,-0.497 0.27,-0.993 0.402,-1.489 0.137,-0.492 0.27,-0.988 0.403,-1.484 0.136,-0.492 0.269,-0.988 0.402,-1.484 0.137,-0.497 0.27,-0.993 0.402,-1.485 0.137,-0.496 0.27,-0.992 0.403,-1.484 0.137,-0.496 0.269,-0.992 0.402,-1.489 0.137,-0.492 0.27,-0.988 0.402,-1.484 0.137,-0.496 0.27,-0.988 0.403,-1.484 0.137,-0.496 0.269,-0.992 0.402,-1.485 0.137,-0.496 0.27,-0.992 0.403,-1.484 0.136,-0.496 0.269,-0.992 0.402,-1.488 0.137,-0.496 0.269,-0.989 0.402,-1.485 0.137,-0.496 0.27,-0.988 0.403,-1.484 0.136,-0.496 0.269,-0.992 0.402,-1.484 0.137,-0.497 0.269,-0.993 0.402,-1.489 0.137,-0.492 0.27,-0.988 0.403,-1.484 0.136,-0.496 0.269,-0.988 0.402,-1.484 0.137,-0.497 0.269,-0.989 0.402,-1.485 0.137,-0.496 0.27,-0.992 0.403,-1.488 0.136,-0.492 0.269,-0.988 0.402,-1.484 0.137,-0.493 0.269,-0.989 0.402,-1.485 0.137,-0.496 0.27,-0.988 0.403,-1.484 0.136,-0.496 0.269,-0.992 0.402,-1.485 0.137,-0.496 0.27,-0.992 0.402,-1.488 0.137,-0.492 0.27,-0.988 0.403,-1.484 0.136,-0.496 0.269,-0.989 0.402,-1.485 0.137,-0.496 0.27,-0.992 0.402,-1.484 0.137,-0.496 0.27,-0.992 0.403,-1.484 0.136,-0.496 0.269,-0.993 0.402,-1.489 0.137,-0.492 0.27,-0.988 0.402,-1.484 0.137,-0.496 0.27,-0.988 0.403,-1.484 0.136,-0.497 0.269,-0.993 0.402,-1.485 0.137,-0.496 0.27,-0.992 0.402,-1.488 0.137,-0.492 0.27,-0.988 0.403,-1.484 0.136,-0.497 0.269,-0.989 0.402,-1.485 0.137,-0.496 0.27,-0.988 0.402,-1.484 0.137,-0.496 0.27,-0.992 0.403,-1.485 0.137,-0.496 0.269,-0.992 0.402,-1.488 0.137,-0.492 0.27,-0.988 0.402,-1.484 0.137,-0.496 0.27,-0.989 0.403,-1.485 0.137,-0.496 0.269,-0.992 0.402,-1.484 0.137,-0.496 0.27,-0.992 0.403,-1.488 0.136,-0.492 0.269,-0.989 0.402,-1.485 0.137,-0.496 0.269,-0.988 0.402,-1.484 0.137,-0.496 0.27,-0.988 0.403,-1.484 0.136,-0.496 0.269,-0.993 0.402,-1.485 0.137,-0.496 0.269,-0.992 0.402,-1.488 0.137,-0.492 0.27,-0.988 0.403,-1.484 0.136,-0.497 0.269,-0.989 0.402,-1.485 0.137,-0.496 0.269,-0.992 0.402,-1.484 0.137,-0.496 0.27,-0.992 0.403,-1.488 0.136,-0.493 0.269,-0.989 0.402,-1.485 0.137,-0.492 0.269,-0.988 0.402,-1.484 0.137,-0.496 0.27,-0.988 0.403,-1.485 0.136,-0.496 0.269,-0.992 0.402,-1.484 0.137,-0.496 0.27,-0.992 0.402,-1.484 0.137,-0.496 0.27,-0.993 0.403,-1.489 0.136,-0.492 0.269,-0.988 0.402,-1.484 0.137,-0.496 0.27,-0.988 0.402,-1.484 0.137,-0.496 0.27,-0.993 0.403,-1.485 0.136,-0.496 0.269,-0.992 0.402,-1.488 0.137,-0.492 0.27,-0.988 0.402,-1.484 0.137,-0.496 0.27,-0.989 0.407,-1.485 0.132,-0.496 0.265,-0.992 0.398,-1.484 0.137,-0.496 0.27,-0.992 0.406,-1.488 0.133,-0.493 0.266,-0.989 0.399,-1.485 0.136,-0.492 0.269,-0.988 0.402,-1.484 0.137,-0.496 0.27,-0.988 0.402,-1.485 0.137,-0.496 0.27,-0.992 0.403,-1.484 0.137,-0.496 0.269,-0.992 0.402,-1.488 0.137,-0.492 0.27,-0.988 0.402,-1.485 0.137,-0.496 0.27,-0.988 0.403,-1.484 0.137,-0.496 0.269,-0.992 0.402,-1.484 0.137,-0.496 0.27,-0.993 0.403,-1.489 0.136,-0.492 0.269,-0.988 0.402,-1.484 0.137,-0.492 0.269,-0.988 0.402,-1.484 0.137,-0.496 0.27,-0.989 0.403,-1.485 0.136,-0.496 0.269,-0.992 0.402,-1.484 0.137,-0.496 0.269,-0.992 0.402,-1.488 0.137,-0.493 0.27,-0.989 0.403,-1.485 0.136,-0.496 0.269,-0.988 0.402,-1.484 0.137,-0.496 0.269,-0.992 0.402,-1.485 0.137,-0.496 0.27,-0.992 0.403,-1.484 0.136,-0.496 0.269,-0.992 0.402,-1.488 0.137,-0.492 0.269,-0.988 0.402,-1.485 0.137,-0.496 0.27,-0.988 0.403,-1.484 0.136,-0.496 0.269,-0.992 0.402,-1.484 0.137,-0.496 0.27,-0.992 0.406,-1.489 0.133,-0.492 0.266,-0.988 0.399,-1.484 0.136,-0.492 0.269,-0.988 0.402,-1.484 0.137,-0.496 0.27,-0.989 0.402,-1.485 0.137,-0.496 0.27,-0.992 0.403,-1.484 0.136,-0.496 0.269,-0.992 0.402,-1.488 0.137,-0.493 0.27,-0.989 0.402,-1.485 0.137,-0.496 0.27,-0.988 0.403,-1.484 0.136,-0.496 0.269,-0.992 0.402,-1.484 0.137,-0.497 0.27,-0.993 0.406,-1.485 0.133,-0.496 0.266,-0.992 0.399,-1.488 0.136,-0.492 0.269,-0.988 0.402,-1.485 0.137,-0.496 0.27,-0.988 0.402,-1.484 0.137,-0.496 0.27,-0.992 0.403,-1.484 0.137,-0.496 0.269,-0.992 0.402,-1.489 0.137,-0.492 0.27,-0.988 0.402,-1.484 0.137,-0.496 0.27,-0.988 0.403,-1.484 0.137,-0.496 0.269,-0.992 0.402,-1.485 0.137,-0.496 0.27,-0.992 0.403,-1.484 0.136,-0.496 0.269,-0.992 0.402,-1.488 0.137,-0.493 0.269,-0.989 0.402,-1.485 0.137,-0.496 0.27,-0.988 0.403,-1.484 0.136,-0.496 0.269,-0.992 0.402,-1.484 0.137,-0.497 0.269,-0.993 0.402,-1.489 0.137,-0.492 0.27,-0.988 0.403,-1.484 0.136,-0.496 0.269,-0.988 0.402,-1.484 0.137,-0.497 0.269,-0.989 0.402,-1.485 0.137,-0.496 0.27,-0.992 0.403,-1.484 0.136,-0.496 0.269,-0.992 0.406,-1.489 0.133,-0.492 0.265,-0.988 0.398,-1.484 0.137,-0.496 0.27,-0.988 0.407,-1.484 0.132,-0.496 0.265,-0.992 0.398,-1.485 0.137,-0.496 0.27,-0.992 0.402,-1.488 0.137,-0.492 0.27,-0.988 0.403,-1.484 0.136,-0.492 0.269,-0.989 0.406,-1.485 0.133,-0.496 0.266,-0.988 0.398,-1.484 0.137,-0.496 0.27,-0.992 0.403,-1.484 0.136,-0.497 0.269,-0.993 0.402,-1.489 0.137,-0.492 0.27,-0.988 0.402,-1.484 0.137,-0.496 0.27,-0.988 0.407,-1.484 0.132,-0.497 0.265,-0.989 0.402,-1.485 0.133,-0.496 0.266,-0.992 0.398,-1.484 0.137,-0.496 0.27,-0.992 0.407,-1.488 0.132,-0.493 0.265,-0.989 0.398,-1.485 0.137,-0.496 0.27,-0.988 0.402,-1.484 0.137,-0.496 0.27,-0.992 0.403,-1.485 0.137,-0.496 0.269,-0.992 0.406,-1.488 0.133,-0.492 0.266,-0.988 0.398,-1.484 0.137,-0.496 0.27,-0.989 0.403,-1.485 0.137,-0.496 0.269,-0.988 0.402,-1.484 0.137,-0.496 0.27,-0.992 0.406,-1.484 0.133,-0.496 0.266,-0.993 0.399,-1.489 0.137,-0.492 0.269,-0.988 0.402,-1.484 0.137,-0.496 0.27,-0.988 0.403,-1.484 0.136,-0.497 0.269,-0.993 0.402,-1.485 0.137,-0.496 0.269,-0.992 0.402,-1.484 0.137,-0.496 0.27,-0.992 0.406,-1.488 0.133,-0.497 0.266,-0.989 0.399,-1.485 0.137,-0.496 0.269,-0.988 0.402,-1.484 0.137,-0.496 0.27,-0.992 0.403,-1.485 0.136,-0.496 0.269,-0.992 0.402,-1.488 0.137,-0.492 0.269,-0.988 0.402,-1.484 0.137,-0.496 0.27,-0.989 0.407,-1.485 0.132,-0.496 0.265,-0.992 0.398,-1.484 0.137,-0.496 0.27,-0.992 0.406,-1.484 0.133,-0.496 0.266,-0.993 0.403,-1.489 0.132,-0.492 0.265,-0.988 0.402,-1.484 0.133,-0.496 0.266,-0.988 0.402,-1.484 0.133,-0.496 0.266,-0.993 0.403,-1.485 0.132,-0.496 0.265,-0.992 0.402,-1.488 0.133,-0.492 0.266,-0.988 0.402,-1.484 0.133,-0.493 0.266,-0.989 0.399,-1.485 0.136,-0.496 0.269,-0.988 0.406,-1.484 0.133,-0.496 0.266,-0.992 0.402,-1.485 0.133,-0.496 0.266,-0.992 0.403,-1.488 0.132,-0.492 0.265,-0.988 0.398,-1.484 0.137,-0.496 0.27,-0.988 0.402,-1.485 0.137,-0.496 0.27,-0.992 0.403,-1.484 0.137,-0.496 0.269,-0.992 0.402,-1.488 0.137,-0.492 0.27,-0.989 0.402,-1.485 0.137,-0.492 0.27,-0.988 0.403,-1.484 0.137,-0.496 0.269,-0.988 0.406,-1.484 0.133,-0.496 0.266,-0.993 0.399,-1.485 0.136,-0.496 0.269,-0.992 0.402,-1.488 0.137,-0.492 0.269,-0.988 0.406,-1.484 0.133,-0.496 0.266,-0.989 0.399,-1.485 0.136,-0.496 0.269,-0.988 0.402,-1.484 0.137,-0.496 0.269,-0.992 0.402,-1.488 0.137,-0.493 0.27,-0.989 0.406,-1.485 0.133,-0.492 0.266,-0.988 0.403,-1.484 0.133,-0.496 0.265,-0.988 0.402,-1.485 0.133,-0.496 0.266,-0.992 0.403,-1.484 0.132,-0.496 0.265,-0.992 0.398,-1.488 0.137,-0.492 0.269,-0.988 0.406,-1.485 0.133,-0.492 0.266,-0.988 0.403,-1.484 0.132,-0.496 0.265,-0.988 0.398,-1.484 0.137,-0.496 0.27,-0.993 0.406,-1.485 0.133,-0.496 0.266,-0.992 0.403,-1.488 0.132,-0.492 0.265,-0.988 0.402,-1.484 0.133,-0.496 0.266,-0.989 0.402,-1.485 0.133,-0.496 0.266,-0.992 0.403,-1.484 0.132,-0.496 0.265,-0.992 0.402,-1.484 0.133,-0.497 0.266,-0.993 0.398,-1.489 0.137,-0.492 0.27,-0.988 0.407,-1.484 0.132,-0.496 0.265,-0.988 0.398,-1.485 0.137,-0.496 0.27,-0.992 0.406,-1.484 0.133,-0.496 0.266,-0.992 0.403,-1.488 0.132,-0.492 0.265,-0.988 0.402,-1.485 0.133,-0.492 0.266,-0.988 0.398,-1.484 0.137,-0.496 0.27,-0.992 0.407,-1.484 0.133,-0.496 0.265,-0.992 0.398,-1.485 0.137,-0.496 0.27,-0.992 0.406,-1.488 0.133,-0.492 0.266,-0.988 0.403,-1.484 0.133,-0.496 0.265,-0.989 0.402,-1.485 0.133,-0.496 0.266,-0.992 0.402,-1.484 0.133,-0.496 0.266,-0.992 0.403,-1.484 0.133,-0.497 0.265,-0.993 0.398,-1.489 0.137,-0.496 0.27,-0.988 0.406,-1.484 0.133,-0.496 0.266,-0.988 0.403,-1.484 0.133,-0.497 0.265,-0.993 0.398,-1.485 0.137,-0.496 0.27,-0.992 0.406,-1.488 0.133,-0.492 0.266,-0.988 0.399,-1.485 0.137,-0.496 0.269,-0.988 0.406,-1.484 0.133,-0.496 0.266,-0.992 0.403,-1.484 0.132,-0.496 0.265,-0.992 0.398,-1.489 0.137,-0.492 0.269,-0.988 0.406,-1.484 0.133,-0.496 0.266,-0.988 0.403,-1.484 0.132,-0.496 0.265,-0.989 0.402,-1.485 0.133,-0.496 0.266,-0.992 0.402,-1.484 0.133,-0.496 0.266,-0.992 0.403,-1.488 0.132,-0.493 0.265,-0.989 0.402,-1.485 0.133,-0.496 0.266,-0.988 0.402,-1.484 0.133,-0.496 0.266,-0.988 0.403,-1.484 0.132,-0.497 0.265,-0.993 0.402,-1.485 0.133,-0.496 0.266,-0.992 0.402,-1.488 0.133,-0.492 0.266,-0.988 0.403,-1.484 0.132,-0.497 0.265,-0.989 0.402,-1.485 0.133,-0.496 0.266,-0.992 0.402,-1.484 0.133,-0.496 0.266,-0.992 0.403,-1.489 0.132,-0.492 0.265,-0.988 0.398,-1.484 0.137,-0.496 0.27,-0.988 0.406,-1.484 0.133,-0.496 0.266,-0.989 0.403,-1.485 0.133,-0.496 0.265,-0.992 0.398,-1.484 0.137,-0.496 0.27,-0.992 0.406,-1.488 0.133,-0.492 0.266,-0.989 0.403,-1.485 0.133,-0.496 0.265,-0.988 0.402,-1.484 0.133,-0.496 0.266,-0.992 0.402,-1.484 0.133,-0.497 0.266,-0.993 0.403,-1.485 0.133,-0.496 0.265,-0.992 0.402,-1.488 0.133,-0.492 0.266,-0.988 0.402,-1.484 0.133,-0.497 0.266,-0.989 0.403,-1.485 0.133,-0.496 0.265,-0.992 0.402,-1.484 0.133,-0.496 0.266,-0.992 0.402,-1.488 0.133,-0.493 0.266,-0.989 0.403,-1.485 0.133,-0.496 0.265,-0.988 0.402,-1.484 0.133,-0.496 0.266,-0.989 0.399,-1.485 0.136,-0.496 0.269,-0.992 0.406,-1.484 0.133,-0.496 0.265,-0.992 0.402,-1.488 0.133,-0.492 0.266,-0.989 0.403,-1.485 0.132,-0.496 0.265,-0.988 0.402,-1.484 0.133,-0.496 0.266,-0.992 0.402,-1.484 0.133,-0.496 0.266,-0.993 0.403,-1.489 0.132,-0.492 0.265,-0.988 0.402,-1.484 0.133,-0.492 0.266,-0.988 0.402,-1.484 0.133,-0.497 0.266,-0.989 0.403,-1.485 0.132,-0.496 0.265,-0.992 0.402,-1.484 0.133,-0.496 0.266,-0.992 0.402,-1.488 0.133,-0.493 0.266,-0.989 0.403,-1.485 0.132,-0.496 0.265,-0.988 0.402,-1.484 0.133,-0.496 0.266,-0.992 0.398,-1.485 0.137,-0.496 0.27,-0.992 0.407,-1.484 0.132,-0.496 0.265,-0.992 0.402,-1.488 0.133,-0.492 0.266,-0.989 0.402,-1.485 0.133,-0.496 0.266,-0.988 0.403,-1.484 0.133,-0.496 0.265,-0.992 0.402,-1.484 0.133,-0.496 0.266,-0.993 0.402,-1.489 0.133,-0.492 0.266,-0.988 0.403,-1.484 0.133,-0.492 0.265,-0.988 0.402,-1.484 0.133,-0.496 0.266,-0.989 0.402,-1.485 0.133,-0.496 0.266,-0.992 0.403,-1.484 0.133,-0.496 0.265,-0.992 0.402,-1.488 0.133,-0.493 0.266,-0.989 0.402,-1.485 0.133,-0.496 0.266,-0.988 0.403,-1.484 0.133,-0.496 0.265,-0.992 0.402,-1.485 0.133,-0.496 0.266,-0.992 0.402,-1.488 0.133,-0.492 0.266,-0.988 0.403,-1.484 0.133,-0.496 0.265,-0.988 0.402,-1.485 0.133,-0.496 0.266,-0.988 0.403,-1.484 0.132,-0.496 0.265,-0.992 0.402,-1.484 0.133,-0.496 0.265,-0.993 0.402,-1.489 0.133,-0.492 0.266,-0.988 0.403,-1.484 0.132,-0.496 0.265,-0.988 0.402,-1.484 0.133,-0.496 0.266,-0.993 0.402,-1.485 0.133,-0.496 0.266,-0.992 0.403,-1.484 0.132,-0.496 0.265,-0.992 0.402,-1.488 0.133,-0.493 0.266,-0.989 0.402,-1.485 0.133,-0.496 0.266,-0.988 0.403,-1.484 0.132,-0.496 0.265,-0.992 0.402,-1.485 0.133,-0.496 0.266,-0.992 0.402,-1.488 0.133,-0.492 0.266,-0.988 0.403,-1.484 0.132,-0.496 0.265,-0.988 0.402,-1.485 0.133,-0.496 0.266,-0.992 0.402,-1.484 0.133,-0.496 0.266,-0.992 0.403,-1.488 0.132,-0.492 0.265,-0.988 0.402,-1.485 0.133,-0.492 0.266,-0.988 0.402,-1.484 0.133,-0.496 0.266,-0.988 0.403,-1.484 0.133,-0.496 0.265,-0.993 0.402,-1.485 0.133,-0.496 0.266,-0.992 0.402,-1.488 0.133,-0.492 0.266,-0.988 0.403,-1.484 0.133,-0.493 0.265,-0.989 0.402,-1.485 0.133,-0.496 0.266,-0.988 0.402,-1.484 0.133,-0.496 0.266,-0.992 0.403,-1.484 0.133,-0.497 0.265,-0.993 0.402,-1.489 0.133,-0.492 0.266,-0.988 0.402,-1.484 0.133,-0.496 0.266,-0.988 0.403,-1.485 0.133,-0.496 0.265,-0.992 0.402,-1.484 0.133,-0.496 0.266,-0.992 0.402,-1.488 0.133,-0.492 0.266,-0.988 0.403,-1.485 0.133,-0.492 0.265,-0.988 0.402,-1.484 0.133,-0.496 0.266,-0.988 0.403,-1.484 0.132,-0.496 0.265,-0.992 0.402,-1.485 0.133,-0.496 0.265,-0.992 0.402,-1.488 0.133,-0.492 0.266,-0.988 0.403,-1.484 0.132,-0.496 0.265,-0.989 0.402,-1.485 0.133,-0.496 0.266,-0.992 0.402,-1.484 0.133,-0.496 0.266,-0.992 0.403,-1.488 0.132,-0.493 0.265,-0.989 0.402,-1.485 0.133,-0.492 0.266,-0.988 0.402,-1.4841 0.133,-0.4961 0.266,-0.9883 0.403,-1.4844 0.132,-0.4961 0.265,-0.9922 0.402,-1.4844 0.133,-0.4961 0.266,-0.9922 0.402,-1.4883 0.133,-0.4921 0.266,-0.9882 0.403,-1.4843 0.132,-0.4961 0.265,-0.9883 0.402,-1.4844 0.133,-0.4961 0.266,-0.9922 0.402,-1.4844 0.133,-0.4961 0.266,-0.9922 0.403,-1.4844 0.132,-0.496 0.265,-0.9921 0.402,-1.4882 0.133,-0.4922 0.266,-0.9883 0.402,-1.4844 0.133,-0.4961 0.266,-0.9883 0.403,-1.4844 0.133,-0.4961 0.265,-0.9922 0.402,-1.4844 0.133,-0.4961 0.266,-0.9921 0.402,-1.4882 0.133,-0.4922 0.266,-0.9883 0.403,-1.4844 0.133,-0.4922 0.265,-0.9883 0.402,-1.4844 0.133,-0.4961 0.266,-0.9883 0.402,-1.4844 0.133,-0.4961 0.266,-0.9922 0.403,-1.4843 0.133,-0.4961 0.265,-0.9922 0.402,-1.4883 0.133,-0.4922 0.266,-0.9883 0.402,-1.4844 0.133,-0.4961 0.266,-0.9883 0.403,-1.4844 0.133,-0.4961 0.265,-0.9922 0.402,-1.4843 0.133,-0.4961 0.266,-0.9922 0.402,-1.4844 0.133,-0.4961 0.266,-0.9922 0.403,-1.4883 0.133,-0.4922 0.265,-0.9883 0.402,-1.4844 0.133,-0.4961 0.266,-0.9883 0.403,-1.4844 0.132,-0.496 0.265,-0.9921 0.402,-1.4843 0.133,-0.4961 0.265,-0.9922 0.402,-1.4883 0.133,-0.4922 0.266,-0.9883 0.403,-1.4844 0.132,-0.4961 0.265,-0.9883 0.402,-1.4844 0.133,-0.4961 0.269,-0.9882 0.402,-1.4843 0.133,-0.4961 0.266,-0.9922 0.403,-1.4844 0.132,-0.4961 0.265,-0.9922 0.402,-1.4883 0.133,-0.4922 0.266,-0.9883 0.402,-1.4844 0.133,-0.4961 0.266,-0.9882 0.403,-1.4843 0.132,-0.4961 0.265,-0.9922 0.402,-1.4844 0.133,-0.4961 0.269,-0.9922 0.402,-1.4883 0.133,-0.4922 0.266,-0.9883 0.403,-1.4844 0.132,-0.4961 0.265,-0.9883 0.402,-1.4843 0.133,-0.4961 0.266,-0.9883 0.402,-1.4844 0.133,-0.4961 0.266,-0.9922 0.403,-1.4844 0.132,-0.4961 0.269,-0.9922 0.402,-1.4883 0.133,-0.4922 0.266,-0.9883 0.402,-1.4844 0.133,-0.496 0.27,-0.9882 0.403,-1.4843 0.133,-0.4961 0.265,-0.9922 0.402,-1.4844 0.133,-0.4961 0.266,-0.9922 0.402,-1.4883 0.133,-0.4922 0.266,-0.9883 0.403,-1.4844 0.133,-0.4921 0.265,-0.9882 0.402,-1.4843 0.133,-0.4961 0.27,-0.9883 0.402,-1.4844 0.133,-0.4961 0.266,-0.9922 0.403,-1.4844 0.133,-0.4961 0.265,-0.9922 0.402,-1.4883 0.133,-0.4922 0.266,-0.9882 0.402,-1.4843 0.133,-0.4961 0.27,-0.9883 0.403,-1.4844 0.133,-0.4961 0.269,-0.9922 0.402,-1.4844 0.133,-0.4961 0.266,-0.9922 0.402,-1.4844 0.133,-0.4961 0.27,-0.9922 0.403,-1.4882 0.133,-0.4922 0.269,-0.9883 0.402,-1.4844 0.133,-0.4961 0.266,-0.9883 0.403,-1.4844 0.132,-0.4961 0.265,-0.9922 0.402,-1.4844 0.133,-0.4961 0.265,-0.9922 0.402,-1.4883 0.133,-0.4921 0.266,-0.9882 0.403,-1.4843 0.132,-0.4922 0.265,-0.9883 0.402,-1.4844 0.133,-0.4961 0.266,-0.98829 0.402,-1.48438 0.133,-0.49609 0.266,-0.99219 0.403,-1.48438 0.132,-0.49609 0.265,-0.99218 0.402,-1.48828" /><path
         id="path152"
         style="fill:none;stroke:#000000;stroke-width:10;stroke-linecap:butt;stroke-linejoin:miter;stroke-miterlimit:10;stroke-dasharray:none;stroke-opacity:1"
         d="m 2728.25,597.621 c 0.12,-0.496 0.24,-0.988 0.37,-1.484 0.12,-0.496 0.24,-0.992 0.36,-1.489 0.13,-0.496 0.25,-0.992 0.38,-1.488 0.12,-0.492 0.24,-0.988 0.36,-1.484 0.13,-0.496 0.25,-0.992 0.37,-1.488 0.12,-0.493 0.25,-0.989 0.37,-1.485 0.13,-0.496 0.25,-0.992 0.37,-1.488 0.12,-0.496 0.24,-0.988 0.37,-1.485 0.12,-0.496 0.25,-0.992 0.37,-1.488 0.12,-0.496 0.24,-0.992 0.37,-1.484 0.12,-0.496 0.24,-0.992 0.36,-1.488 0.13,-0.497 0.25,-0.993 0.38,-1.485 0.12,-0.496 0.24,-0.992 0.36,-1.488 0.13,-0.496 0.25,-0.992 0.37,-1.488 0.13,-0.493 0.25,-0.989 0.37,-1.485 0.13,-0.496 0.25,-0.992 0.37,-1.488 0.12,-0.496 0.25,-0.988 0.37,-1.484 0.12,-0.497 0.25,-0.993 0.37,-1.489 0.12,-0.496 0.24,-0.988 0.37,-1.484 0.12,-0.496 0.24,-0.992 0.37,-1.488 0.12,-0.496 0.24,-0.993 0.37,-1.485 0.12,-0.496 0.24,-0.992 0.36,-1.488 0.13,-0.496 0.25,-0.992 0.37,-1.488 0.13,-0.492 0.25,-0.989 0.37,-1.485 0.12,-0.496 0.25,-0.992 0.37,-1.488 0.12,-0.496 0.25,-0.988 0.37,-1.484 0.12,-0.496 0.25,-0.993 0.37,-1.489 0.12,-0.496 0.24,-0.992 0.37,-1.484 0.12,-0.496 0.24,-0.992 0.37,-1.488 0.12,-0.496 0.24,-0.992 0.37,-1.485 0.12,-0.496 0.24,-0.992 0.36,-1.488 0.13,-0.496 0.25,-0.992 0.37,-1.488 0.13,-0.492 0.25,-0.988 0.37,-1.485 0.13,-0.496 0.25,-0.992 0.37,-1.488 0.12,-0.496 0.25,-0.988 0.37,-1.484 0.12,-0.496 0.25,-0.992 0.37,-1.489 0.12,-0.496 0.24,-0.988 0.37,-1.484 0.12,-0.496 0.24,-0.992 0.37,-1.488 0.12,-0.496 0.24,-0.992 0.37,-1.485 0.12,-0.496 0.24,-0.992 0.36,-1.488 0.13,-0.496 0.25,-0.992 0.38,-1.484 0.12,-0.496 0.24,-0.992 0.36,-1.488 0.13,-0.497 0.25,-0.993 0.37,-1.489 0.12,-0.496 0.25,-0.988 0.37,-1.484 0.13,-0.496 0.25,-0.992 0.37,-1.488 0.12,-0.497 0.24,-0.989 0.37,-1.485 0.12,-0.496 0.24,-0.992 0.37,-1.488 0.12,-0.496 0.24,-0.992 0.37,-1.484 0.12,-0.497 0.24,-0.993 0.36,-1.489 0.13,-0.496 0.25,-0.992 0.38,-1.484 0.12,-0.496 0.24,-0.992 0.36,-1.488 0.13,-0.496 0.25,-0.993 0.37,-1.489 0.12,-0.492 0.25,-0.988 0.37,-1.484 0.12,-0.496 0.25,-0.992 0.37,-1.488 0.12,-0.496 0.25,-0.989 0.37,-1.485 0.12,-0.496 0.25,-0.992 0.37,-1.488 0.12,-0.496 0.24,-0.992 0.37,-1.484 0.12,-0.496 0.24,-0.993 0.36,-1.489 0.13,-0.496 0.25,-0.992 0.38,-1.484 0.12,-0.496 0.24,-0.992 0.36,-1.488 0.13,-0.496 0.25,-0.992 0.37,-1.489 0.13,-0.496 0.25,-0.988 0.37,-1.484 0.13,-0.496 0.25,-0.992 0.37,-1.488 0.12,-0.496 0.24,-0.989 0.37,-1.485 0.12,-0.496 0.25,-0.992 0.37,-1.488 0.12,-0.496 0.24,-0.992 0.37,-1.484 0.12,-0.496 0.24,-0.992 0.36,-1.489 0.13,-0.496 0.25,-0.992 0.38,-1.488 0.12,-0.492 0.24,-0.988 0.36,-1.484 0.13,-0.496 0.25,-0.992 0.37,-1.488 0.13,-0.497 0.25,-0.989 0.37,-1.485 0.13,-0.496 0.25,-0.992 0.37,-1.488 0.12,-0.496 0.25,-0.988 0.37,-1.485 0.12,-0.496 0.25,-0.992 0.37,-1.488 0.12,-0.496 0.24,-0.992 0.37,-1.484 0.12,-0.496 0.24,-0.992 0.37,-1.488 0.12,-0.497 0.24,-0.993 0.37,-1.489 0.12,-0.492 0.24,-0.988 0.36,-1.484 0.13,-0.496 0.25,-0.992 0.37,-1.488 0.13,-0.493 0.25,-0.989 0.37,-1.485 0.13,-0.496 0.25,-0.992 0.37,-1.488 0.12,-0.496 0.25,-0.988 0.37,-1.484 0.12,-0.497 0.25,-0.993 0.37,-1.489 0.12,-0.496 0.24,-0.992 0.37,-1.484 0.12,-0.496 0.24,-0.992 0.37,-1.488 0.12,-0.496 0.24,-0.993 0.37,-1.485 0.12,-0.496 0.24,-0.992 0.36,-1.488 0.13,-0.496 0.25,-0.992 0.37,-1.488 0.13,-0.492 0.25,-0.989 0.37,-1.485 0.13,-0.496 0.25,-0.992 0.37,-1.488 0.12,-0.496 0.25,-0.988 0.37,-1.484 0.12,-0.496 0.25,-0.993 0.37,-1.489 0.12,-0.496 0.24,-0.992 0.37,-1.484 0.12,-0.496 0.24,-0.992 0.37,-1.488 0.12,-0.496 0.24,-0.992 0.37,-1.489 0.12,-0.492 0.24,-0.988 0.36,-1.484 0.13,-0.496 0.25,-0.992 0.38,-1.488 0.12,-0.492 0.24,-0.988 0.36,-1.485 0.13,-0.496 0.25,-0.992 0.37,-1.488 0.12,-0.496 0.25,-0.988 0.37,-1.484 0.12,-0.496 0.25,-0.992 0.37,-1.489 0.12,-0.496 0.24,-0.992 0.37,-1.484 0.12,-0.496 0.25,-0.992 0.37,-1.488 0.12,-0.496 0.24,-0.992 0.37,-1.485 0.12,-0.496 0.24,-0.992 0.36,-1.488 0.13,-0.496 0.25,-0.992 0.38,-1.488 0.12,-0.492 0.24,-0.988 0.36,-1.484 0.13,-0.497 0.25,-0.993 0.37,-1.489 0.12,-0.492 0.25,-0.988 0.37,-1.484 0.12,-0.496 0.25,-0.992 0.37,-1.488 0.12,-0.497 0.24,-0.989 0.37,-1.485 0.12,-0.496 0.25,-0.992 0.37,-1.488 0.12,-0.496 0.24,-0.992 0.37,-1.484 0.12,-0.497 0.24,-0.993 0.36,-1.489 0.13,-0.496 0.25,-0.992 0.38,-1.488 0.12,-0.492 0.24,-0.988 0.36,-1.484 0.13,-0.496 0.25,-0.993 0.37,-1.489 0.13,-0.496 0.25,-0.988 0.37,-1.484 0.12,-0.496 0.25,-0.992 0.37,-1.488 0.12,-0.496 0.25,-0.989 0.37,-1.485 0.12,-0.496 0.25,-0.992 0.37,-1.488 0.12,-0.496 0.24,-0.992 0.37,-1.484 0.12,-0.496 0.24,-0.993 0.37,-1.489 0.12,-0.496 0.24,-0.992 0.37,-1.488 0.12,-0.492 0.24,-0.988 0.36,-1.484 0.13,-0.496 0.25,-0.992 0.37,-1.489 0.13,-0.496 0.25,-0.988 0.37,-1.484 0.12,-0.496 0.25,-0.992 0.37,-1.488 0.12,-0.496 0.24,-0.989 0.37,-1.485 0.12,-0.496 0.25,-0.992 0.37,-1.488 0.12,-0.496 0.24,-0.992 0.37,-1.484 0.12,-0.496 0.24,-0.992 0.37,-1.489 0.12,-0.496 0.24,-0.992 0.37,-1.488 0.12,-0.492 0.24,-0.988 0.36,-1.484 0.13,-0.496 0.25,-0.992 0.37,-1.488 0.13,-0.493 0.25,-0.989 0.37,-1.485 0.12,-0.496 0.25,-0.992 0.37,-1.488 0.12,-0.496 0.25,-0.988 0.37,-1.485 0.12,-0.496 0.25,-0.992 0.37,-1.488 0.12,-0.496 0.24,-0.992 0.37,-1.484 0.12,-0.496 0.24,-0.992 0.37,-1.488 0.12,-0.497 0.24,-0.993 0.37,-1.485 0.12,-0.496 0.24,-0.992 0.36,-1.488 0.13,-0.496 0.25,-0.992 0.37,-1.488 0.13,-0.493 0.25,-0.989 0.37,-1.485 0.13,-0.496 0.25,-0.992 0.37,-1.488 0.12,-0.496 0.25,-0.988 0.37,-1.484 0.12,-0.497 0.25,-0.993 0.37,-1.489 0.12,-0.496 0.25,-0.992 0.37,-1.484 0.12,-0.496 0.24,-0.992 0.37,-1.488 0.12,-0.496 0.24,-0.993 0.37,-1.489 0.12,-0.492 0.24,-0.988 0.36,-1.484 0.13,-0.496 0.25,-0.992 0.38,-1.488 0.12,-0.492 0.24,-0.989 0.36,-1.485 0.13,-0.496 0.25,-0.992 0.37,-1.488 0.12,-0.496 0.25,-0.988 0.37,-1.484 0.12,-0.496 0.25,-0.993 0.37,-1.489 0.12,-0.496 0.24,-0.992 0.37,-1.484 0.12,-0.496 0.25,-0.992 0.37,-1.488 0.12,-0.496 0.24,-0.992 0.37,-1.489 0.12,-0.492 0.24,-0.988 0.36,-1.484 0.13,-0.496 0.25,-0.992 0.38,-1.488 0.12,-0.492 0.24,-0.988 0.36,-1.485 0.12,-0.496 0.25,-0.992 0.37,-1.488 0.13,-0.496 0.25,-0.988 0.37,-1.484 0.12,-0.496 0.25,-0.992 0.37,-1.489 0.12,-0.496 0.24,-0.992 0.37,-1.484 0.12,-0.496 0.25,-0.992 0.37,-1.488 0.12,-0.496 0.24,-0.992 0.37,-1.488 0.12,-0.493 0.24,-0.989 0.36,-1.485 0.13,-0.496 0.25,-0.992 0.38,-1.488 0.12,-0.492 0.24,-0.988 0.36,-1.484 0.13,-0.497 0.25,-0.993 0.37,-1.489 0.13,-0.496 0.25,-0.988 0.37,-1.484 0.13,-0.496 0.25,-0.992 0.37,-1.488 0.12,-0.497 0.24,-0.989 0.37,-1.485 0.12,-0.496 0.25,-0.992 0.37,-1.488 0.12,-0.496 0.24,-0.992 0.37,-1.484 0.12,-0.497 0.24,-0.993 0.37,-1.489 0.12,-0.496 0.24,-0.992 0.37,-1.488 0.12,-0.492 0.24,-0.988 0.36,-1.484 0.13,-0.496 0.25,-0.993 0.37,-1.489 0.13,-0.496 0.25,-0.988 0.37,-1.484 0.12,-0.496 0.25,-0.992 0.37,-1.488 0.12,-0.496 0.25,-0.989 0.37,-1.485 0.12,-0.496 0.25,-0.992 0.37,-1.488 0.12,-0.496 0.24,-0.992 0.37,-1.488 0.12,-0.492 0.24,-0.989 0.37,-1.485 0.12,-0.496 0.24,-0.992 0.37,-1.488 0.12,-0.492 0.24,-0.988 0.36,-1.484 0.12,-0.496 0.25,-0.992 0.37,-1.489 0.13,-0.496 0.25,-0.988 0.37,-1.484 0.12,-0.496 0.25,-0.992 0.37,-1.488 0.12,-0.496 0.25,-0.992 0.37,-1.485 0.12,-0.496 0.25,-0.992 0.37,-1.488 0.12,-0.496 0.24,-0.992 0.37,-1.484 0.12,-0.496 0.24,-0.992 0.37,-1.489 0.12,-0.496 0.24,-0.992 0.37,-1.488 0.12,-0.492 0.24,-0.988 0.36,-1.484 0.13,-0.496 0.25,-0.992 0.38,-1.488 0.12,-0.493 0.24,-0.989 0.36,-1.485 0.13,-0.496 0.25,-0.992 0.37,-1.488 0.12,-0.496 0.25,-0.992 0.37,-1.485 0.12,-0.496 0.25,-0.992 0.37,-1.488 0.12,-0.496 0.24,-0.992 0.37,-1.484 0.12,-0.496 0.25,-0.992 0.37,-1.488 0.12,-0.497 0.24,-0.993 0.37,-1.489 0.12,-0.492 0.24,-0.988 0.36,-1.484 0.13,-0.496 0.25,-0.992 0.38,-1.488 0.12,-0.493 0.24,-0.989 0.36,-1.485 0.12,-0.496 0.25,-0.992 0.37,-1.488 0.12,-0.496 0.25,-0.988 0.37,-1.484 0.12,-0.497 0.25,-0.993 0.37,-1.489 0.12,-0.496 0.24,-0.992 0.37,-1.484 0.12,-0.496 0.25,-0.992 0.37,-1.488 0.12,-0.496 0.24,-0.993 0.37,-1.489 0.12,-0.492 0.24,-0.988 0.36,-1.484 0.13,-0.496 0.25,-0.992 0.38,-1.488 0.12,-0.492 0.24,-0.989 0.36,-1.485 0.13,-0.496 0.25,-0.992 0.37,-1.488 0.13,-0.496 0.25,-0.988 0.37,-1.484 0.12,-0.496 0.25,-0.993 0.37,-1.489 0.12,-0.496 0.24,-0.992 0.37,-1.484 0.12,-0.496 0.25,-0.992 0.37,-1.488 0.12,-0.496 0.24,-0.992 0.37,-1.485 0.12,-0.496 0.24,-0.992 0.37,-1.488 0.12,-0.496 0.24,-0.992 0.37,-1.488 0.12,-0.492 0.24,-0.988 0.36,-1.485 0.12,-0.496 0.25,-0.992 0.37,-1.488 0.13,-0.496 0.25,-0.988 0.37,-1.484 0.13,-0.496 0.25,-0.992 0.37,-1.489 0.12,-0.496 0.24,-0.992 0.37,-1.484 0.12,-0.496 0.25,-0.992 0.37,-1.488 0.12,-0.496 0.24,-0.992 0.37,-1.488 0.12,-0.493 0.24,-0.989 0.37,-1.485 0.12,-0.496 0.24,-0.992 0.37,-1.488 0.12,-0.496 0.24,-0.988 0.36,-1.484 0.13,-0.497 0.25,-0.993 0.37,-1.489 0.13,-0.496 0.25,-0.988 0.37,-1.484 0.12,-0.496 0.25,-0.992 0.37,-1.488 0.12,-0.497 0.25,-0.993 0.37,-1.485 0.12,-0.496 0.25,-0.992 0.37,-1.488 0.12,-0.496 0.24,-0.992 0.37,-1.488 0.12,-0.493 0.24,-0.989 0.37,-1.485 0.12,-0.496 0.24,-0.992 0.37,-1.488 0.12,-0.492 0.24,-0.988 0.36,-1.484 0.13,-0.496 0.25,-0.993 0.37,-1.489 0.13,-0.496 0.25,-0.988 0.37,-1.484 0.12,-0.496 0.25,-0.992 0.37,-1.488 0.12,-0.496 0.25,-0.993 0.37,-1.485 0.12,-0.496 0.25,-0.992 0.37,-1.488 0.12,-0.496 0.24,-0.992 0.37,-1.484 0.12,-0.496 0.24,-0.993 0.37,-1.489 0.12,-0.496 0.24,-0.992 0.37,-1.488 0.12,-0.492 0.24,-0.988 0.36,-1.484 0.13,-0.496 0.25,-0.992 0.37,-1.489 0.13,-0.496 0.25,-0.988 0.37,-1.484 0.12,-0.496 0.25,-0.992 0.37,-1.488 0.12,-0.496 0.25,-0.989 0.37,-1.485 0.12,-0.496 0.25,-0.992 0.37,-1.488 0.12,-0.496 0.24,-0.992 0.37,-1.488 0.12,-0.492 0.25,-0.988 0.37,-1.485 0.12,-0.496 0.24,-0.992 0.37,-1.488 0.12,-0.492 0.24,-0.988 0.36,-1.484 0.13,-0.496 0.25,-0.992 0.37,-1.488 0.13,-0.497 0.25,-0.989 0.37,-1.485 0.12,-0.496 0.25,-0.992 0.37,-1.488 0.13,-0.496 0.25,-0.988 0.37,-1.485 0.12,-0.496 0.25,-0.992 0.37,-1.488 0.12,-0.496 0.24,-0.992 0.37,-1.484 0.12,-0.496 0.25,-0.992 0.37,-1.488 0.12,-0.497 0.24,-0.993 0.37,-1.489 0.12,-0.492 0.24,-0.988 0.36,-1.484 0.13,-0.496 0.25,-0.992 0.38,-1.488 0.12,-0.496 0.24,-0.989 0.36,-1.485 0.12,-0.496 0.25,-0.992 0.37,-1.488 0.13,-0.496 0.25,-0.988 0.37,-1.484 0.12,-0.497 0.25,-0.993 0.37,-1.489 0.12,-0.496 0.24,-0.992 0.37,-1.484 0.12,-0.496 0.25,-0.992 0.37,-1.488 0.12,-0.496 0.24,-0.993 0.37,-1.489 0.12,-0.492 0.24,-0.988 0.37,-1.484 0.12,-0.496 0.24,-0.992 0.37,-1.488 0.12,-0.492 0.24,-0.989 0.36,-1.485 0.12,-0.496 0.25,-0.992 0.37,-1.488 0.13,-0.496 0.25,-0.988 0.37,-1.484 0.12,-0.496 0.25,-0.993 0.37,-1.489 0.12,-0.496 0.25,-0.992 0.37,-1.484 0.12,-0.496 0.25,-0.992 0.37,-1.488 0.12,-0.496 0.24,-0.992 0.37,-1.489 0.12,-0.492 0.24,-0.988 0.37,-1.484 0.12,-0.496 0.24,-0.992 0.37,-1.488 0.12,-0.496 0.24,-0.988 0.36,-1.485 0.12,-0.496 0.25,-0.992 0.37,-1.488 0.13,-0.496 0.25,-0.988 0.37,-1.484 0.12,-0.496 0.25,-0.992 0.37,-1.489 0.12,-0.496 0.25,-0.992 0.37,-1.484 0.12,-0.496 0.25,-0.992 0.37,-1.488 0.12,-0.496 0.24,-0.992 0.37,-1.488 0.12,-0.493 0.24,-0.989 0.37,-1.485 0.12,-0.496 0.24,-0.992 0.37,-1.488 0.12,-0.492 0.24,-0.988 0.36,-1.484 0.13,-0.497 0.25,-0.993 0.37,-1.489 0.13,-0.496 0.25,-0.988 0.37,-1.484 0.12,-0.496 0.25,-0.992 0.37,-1.488 0.12,-0.497 0.25,-0.993 0.37,-1.485 0.12,-0.496 0.25,-0.992 0.37,-1.488 0.12,-0.496 0.24,-0.992 0.37,-1.488 0.12,-0.493 0.25,-0.989 0.37,-1.485 0.12,-0.496 0.24,-0.992 0.37,-1.488 0.12,-0.492 0.24,-0.988 0.36,-1.484 0.13,-0.496 0.25,-0.993 0.37,-1.489 0.13,-0.496 0.25,-0.988 0.37,-1.484 0.12,-0.496 0.25,-0.992 0.37,-1.488 0.12,-0.496 0.25,-0.993 0.37,-1.485 0.12,-0.496 0.25,-0.992 0.37,-1.488 0.12,-0.496 0.24,-0.992 0.37,-1.488 0.12,-0.492 0.25,-0.989 0.37,-1.485 0.12,-0.496 0.24,-0.992 0.37,-1.488 0.12,-0.492 0.24,-0.988 0.36,-1.484 0.13,-0.496 0.25,-0.992 0.37,-1.489 0.13,-0.496 0.25,-0.988 0.37,-1.484 0.12,-0.496 0.25,-0.992 0.37,-1.488 0.13,-0.496 0.25,-0.992 0.37,-1.485 0.12,-0.496 0.25,-0.992 0.37,-1.488 0.12,-0.496 0.24,-0.992 0.37,-1.484 0.12,-0.496 0.25,-0.992 0.37,-1.489 0.12,-0.496 0.24,-0.992 0.37,-1.488 0.12,-0.492 0.24,-0.988 0.37,-1.484 0.12,-0.496 0.24,-0.992 0.36,-1.488 0.13,-0.497 0.25,-0.989 0.37,-1.485 0.12,-0.496 0.25,-0.992 0.37,-1.488 0.13,-0.496 0.25,-0.988 0.37,-1.485 0.12,-0.496 0.25,-0.992 0.37,-1.488 0.12,-0.496 0.24,-0.992 0.37,-1.4842 0.12,-0.4961 0.25,-0.9922 0.37,-1.4883 0.12,-0.4961 0.24,-0.9922 0.37,-1.4882 0.12,-0.4922 0.24,-0.9883 0.37,-1.4844 0.12,-0.4961 0.24,-0.9922 0.36,-1.4883 0.13,-0.4961 0.25,-0.9883 0.37,-1.4844 0.13,-0.4961 0.25,-0.9922 0.37,-1.4883 0.13,-0.4961 0.25,-0.9921 0.37,-1.4843 0.12,-0.4961 0.25,-0.9922 0.37,-1.4883 0.12,-0.4961 0.25,-0.9922 0.37,-1.4883 0.12,-0.4922 0.25,-0.9883 0.37,-1.4844 0.12,-0.4961 0.24,-0.9922 0.36,-1.4883 0.13,-0.4921 0.25,-0.9882 0.38,-1.4843 0.12,-0.4961 0.24,-0.9922 0.37,-1.4883 0.12,-0.4961 0.24,-0.9883 0.36,-1.4844 0.13,-0.4961 0.25,-0.9922 0.37,-1.4883 0.13,-0.4961 0.25,-0.9922 0.37,-1.4843 0.12,-0.4961 0.25,-0.9922 0.37,-1.4883 0.12,-0.4961 0.25,-0.9922 0.37,-1.4844 0.12,-0.4961 0.25,-0.9922 0.37,-1.4883 0.12,-0.4961 0.24,-0.9922 0.37,-1.4883 0.12,-0.4921 0.24,-0.9882 0.37,-1.4843 0.12,-0.4961 0.24,-0.9922 0.37,-1.4883 0.12,-0.4961 0.24,-0.9883 0.36,-1.4844 0.13,-0.4961 0.25,-0.9922 0.37,-1.4883 0.13,-0.4961 0.25,-0.9922 0.37,-1.4843 0.12,-0.4961 0.25,-0.9922 0.37,-1.4883 0.12,-0.4961 0.25,-0.9922 0.37,-1.4844 0.12,-0.4961 0.25,-0.9922 0.37,-1.4883 0.12,-0.4961 0.24,-0.9922 0.37,-1.4883 0.12,-0.4922 0.25,-0.9882 0.37,-1.4843 0.12,-0.4961 0.24,-0.9922 0.36,-1.4883 0.13,-0.4961 0.25,-0.9883 0.37,-1.4844 0.13,-0.4961 0.25,-0.9922 0.37,-1.4883 0.13,-0.4961 0.25,-0.9883 0.37,-1.4844 0.12,-0.496 0.25,-0.9921 0.37,-1.4882 0.13,-0.4961 0.25,-0.9922 0.37,-1.4883 0.12,-0.4922 0.25,-0.9883 0.37,-1.4844 0.12,-0.4961 0.24,-0.9922 0.37,-1.4883 0.12,-0.4922 0.25,-0.9883 0.37,-1.4843 0.12,-0.4961 0.24,-0.9922 0.37,-1.4883 0.12,-0.4961 0.24,-0.9883 0.36,-1.4844 0.13,-0.4961 0.25,-0.9922 0.37,-1.4883 0.13,-0.4961 0.25,-0.9883 0.37,-1.4844 0.12,-0.4961 0.25,-0.9921 0.37,-1.4882 0.13,-0.4961 0.25,-0.9922 0.37,-1.4844 0.12,-0.4961 0.25,-0.9922 0.37,-1.4883 0.12,-0.4961 0.24,-0.9922 0.37,-1.4883 0.12,-0.4922 0.25,-0.9883 0.37,-1.4844 0.12,-0.496 0.24,-0.9921 0.37,-1.4882 0.12,-0.4922 0.24,-0.9883 0.37,-1.4844 0.12,-0.4961 0.24,-0.9922 0.37,-1.4883 0.12,-0.4961 0.24,-0.9922 0.36,-1.4844 0.12,-0.4961 0.25,-0.9922 0.37,-1.4882 0.13,-0.4961 0.25,-0.9922 0.37,-1.4844 0.12,-0.4961 0.25,-0.9922 0.37,-1.4883 0.12,-0.4961 0.25,-0.9922 0.37,-1.4883 0.12,-0.4922 0.25,-0.9883 0.37,-1.4844 0.12,-0.4961 0.24,-0.9921 0.36,-1.4882 0.13,-0.4922 0.25,-0.9883 0.38,-1.4844 0.12,-0.4961 0.24,-0.9922 0.36,-1.4883 0.13,-0.49609 0.25,-0.99219 0.37,-1.48437 0.12,-0.4961 0.25,-0.99219 0.37,-1.48829" /></g></g></svg>