<?xml version="1.0" encoding="UTF-8" standalone="no"?>
<svg
   xmlns:dc="http://purl.org/dc/elements/1.1/"
   xmlns:cc="http://creativecommons.org/ns#"
   xmlns:rdf="http://www.w3.org/1999/02/22-rdf-syntax-ns#"
   xmlns:svg="http://www.w3.org/2000/svg"
   xmlns="http://www.w3.org/2000/svg"
   viewBox="0 0 114.41333 127.92"
   height="127.92"
   width="114.41333"
   xml:space="preserve"
   id="svg2"
   version="1.1"><metadata
     id="metadata8"><rdf:RDF><cc:Work
         rdf:about=""><dc:format>image/svg+xml</dc:format><dc:type
           rdf:resource="http://purl.org/dc/dcmitype/StillImage" /></cc:Work></rdf:RDF></metadata><defs
     id="defs6" /><g
     transform="matrix(1.3333333,0,0,-1.3333333,0,127.92)"
     id="g10"><g
       transform="scale(0.1)"
       id="g12"><path
         id="path14"
         style="fill:none;stroke:#000000;stroke-width:3.50079989;stroke-linecap:butt;stroke-linejoin:miter;stroke-miterlimit:10;stroke-dasharray:none;stroke-opacity:1"
         d="M 4.93359,3.75 H 856.313 V 953.809 H 4.93359 Z" /><path
         id="path16"
         style="fill:none;stroke:#000000;stroke-width:7.5005002;stroke-linecap:butt;stroke-linejoin:miter;stroke-miterlimit:10;stroke-dasharray:none;stroke-opacity:1"
         d="M 3.75,479.145 H 821.227" /><path
         id="path18"
         style="fill:#000000;fill-opacity:1;fill-rule:evenodd;stroke:none"
         d="m 856.313,479.145 -70.559,30.238 c 10.078,-20.16 10.078,-40.32 0,-60.481 l 70.559,30.243" /><path
         id="path20"
         style="fill:none;stroke:#000000;stroke-width:7.5005002;stroke-linecap:butt;stroke-linejoin:miter;stroke-miterlimit:10;stroke-dasharray:none;stroke-opacity:1"
         d="M 383.629,3.75 V 916.867" /><path
         id="path22"
         style="fill:#000000;fill-opacity:1;fill-rule:evenodd;stroke:none"
         d="m 383.629,952.328 -30.238,-70.562 c 20.16,10.082 40.32,10.082 60.48,0 l -30.242,70.562" /><path
         id="path24"
         style="fill:#000000;fill-opacity:1;fill-rule:nonzero;stroke:none"
         d="m 335.898,943.48 c 1.063,-1.812 1.797,-3.507 2.204,-5.085 0.406,-1.579 0.812,-4.68 1.218,-9.305 l 2.063,-23.063 c 1.875,2.25 4.594,5.813 8.156,10.688 1.719,2.375 3.844,5.609 6.375,9.703 1.531,2.5 2.469,4.25 2.813,5.25 0.187,0.5 0.281,1.016 0.281,1.547 0,0.344 -0.11,0.625 -0.328,0.844 -0.219,0.218 -0.789,0.476 -1.711,0.773 -0.922,0.297 -1.688,0.844 -2.297,1.641 -0.609,0.797 -0.914,1.711 -0.914,2.742 0,1.281 0.375,2.312 1.125,3.094 0.75,0.781 1.687,1.171 2.812,1.171 1.375,0 2.547,-0.57 3.516,-1.71 0.969,-1.141 1.453,-2.711 1.453,-4.711 0,-2.469 -0.844,-5.289 -2.531,-8.461 -1.688,-3.172 -4.938,-8.039 -9.75,-14.602 -4.813,-6.562 -10.641,-13.719 -17.485,-21.469 -4.718,-5.343 -8.218,-8.711 -10.5,-10.101 -2.281,-1.391 -4.234,-2.086 -5.859,-2.086 -0.969,0 -1.82,0.367 -2.555,1.101 -0.734,0.735 -1.101,1.586 -1.101,2.555 0,1.219 0.508,2.328 1.523,3.328 1.016,1 2.117,1.5 3.305,1.5 0.625,0 1.141,-0.14 1.547,-0.422 0.25,-0.156 0.523,-0.601 0.82,-1.336 0.297,-0.734 0.57,-1.226 0.82,-1.476 0.157,-0.156 0.344,-0.235 0.563,-0.235 0.187,0 0.516,0.157 0.984,0.469 1.719,1.063 3.719,2.75 6,5.063 3,3.062 5.219,5.562 6.657,7.5 l -2.625,29.718 c -0.438,4.907 -1.094,7.891 -1.969,8.954 -0.875,1.062 -2.344,1.593 -4.406,1.593 -0.657,0 -1.829,-0.093 -3.516,-0.281 l -0.422,1.734 13.734,3.375" /><path
         id="path26"
         style="fill:none;stroke:#000000;stroke-width:3.50079989;stroke-linecap:butt;stroke-linejoin:miter;stroke-miterlimit:10;stroke-dasharray:none;stroke-opacity:1"
         d="M 7.05078,857.465 H 856.313" /><path
         id="path28"
         style="fill:none;stroke:#000000;stroke-width:3.50079989;stroke-linecap:butt;stroke-linejoin:miter;stroke-miterlimit:10;stroke-dasharray:none;stroke-opacity:1"
         d="M 5.91016,762.582 H 855.172" /><path
         id="path30"
         style="fill:none;stroke:#000000;stroke-width:3.50079989;stroke-linecap:butt;stroke-linejoin:miter;stroke-miterlimit:10;stroke-dasharray:none;stroke-opacity:1"
         d="M 5.91016,667.758 H 855.172" /><path
         id="path32"
         style="fill:none;stroke:#000000;stroke-width:3.50079989;stroke-linecap:butt;stroke-linejoin:miter;stroke-miterlimit:10;stroke-dasharray:none;stroke-opacity:1"
         d="M 5.91016,572.945 H 855.172" /><path
         id="path34"
         style="fill:none;stroke:#000000;stroke-width:3.50079989;stroke-linecap:butt;stroke-linejoin:miter;stroke-miterlimit:10;stroke-dasharray:none;stroke-opacity:1"
         d="M 7.05078,384.559 H 856.313" /><path
         id="path36"
         style="fill:none;stroke:#000000;stroke-width:3.50079989;stroke-linecap:butt;stroke-linejoin:miter;stroke-miterlimit:10;stroke-dasharray:none;stroke-opacity:1"
         d="M 5.97266,289.973 H 855.23" /><path
         id="path38"
         style="fill:none;stroke:#000000;stroke-width:3.50079989;stroke-linecap:butt;stroke-linejoin:miter;stroke-miterlimit:10;stroke-dasharray:none;stroke-opacity:1"
         d="M 5.97266,195.402 H 855.23" /><path
         id="path40"
         style="fill:none;stroke:#000000;stroke-width:3.50079989;stroke-linecap:butt;stroke-linejoin:miter;stroke-miterlimit:10;stroke-dasharray:none;stroke-opacity:1"
         d="M 5.97266,100.82 H 855.23" /><path
         id="path42"
         style="fill:none;stroke:#000000;stroke-width:3.50079989;stroke-linecap:butt;stroke-linejoin:miter;stroke-miterlimit:10;stroke-dasharray:none;stroke-opacity:1"
         d="M 99.6914,2.62109 V 953.801" /><path
         id="path44"
         style="fill:none;stroke:#000000;stroke-width:3.50079989;stroke-linecap:butt;stroke-linejoin:miter;stroke-miterlimit:10;stroke-dasharray:none;stroke-opacity:1"
         d="M 194.363,2.62109 V 953.801" /><path
         id="path46"
         style="fill:none;stroke:#000000;stroke-width:3.50079989;stroke-linecap:butt;stroke-linejoin:miter;stroke-miterlimit:10;stroke-dasharray:none;stroke-opacity:1"
         d="M 288.656,2.62109 V 953.801" /><path
         id="path48"
         style="fill:none;stroke:#000000;stroke-width:3.50079989;stroke-linecap:butt;stroke-linejoin:miter;stroke-miterlimit:10;stroke-dasharray:none;stroke-opacity:1"
         d="M 477.617,2.62109 V 953.801" /><path
         id="path50"
         style="fill:none;stroke:#000000;stroke-width:3.50079989;stroke-linecap:butt;stroke-linejoin:miter;stroke-miterlimit:10;stroke-dasharray:none;stroke-opacity:1"
         d="M 571.906,2.62109 V 953.801" /><path
         id="path52"
         style="fill:none;stroke:#000000;stroke-width:3.50079989;stroke-linecap:butt;stroke-linejoin:miter;stroke-miterlimit:10;stroke-dasharray:none;stroke-opacity:1"
         d="M 666.578,2.99609 V 954.188" /><path
         id="path54"
         style="fill:none;stroke:#000000;stroke-width:3.50079989;stroke-linecap:butt;stroke-linejoin:miter;stroke-miterlimit:10;stroke-dasharray:none;stroke-opacity:1"
         d="M 760.871,2.99609 V 954.188" /><path
         id="path56"
         style="fill:none;stroke:#000000;stroke-width:10.00059986;stroke-linecap:butt;stroke-linejoin:miter;stroke-miterlimit:10;stroke-dasharray:none;stroke-opacity:1"
         d="M 475.172,498.859 V 461.094" /><path
         id="path58"
         style="fill:none;stroke:#000000;stroke-width:10.00059986;stroke-linecap:butt;stroke-linejoin:miter;stroke-miterlimit:10;stroke-dasharray:none;stroke-opacity:1"
         d="m 364.688,572.945 h 37.753" /><path
         id="path60"
         style="fill:#000000;fill-opacity:1;fill-rule:nonzero;stroke:none"
         d="m 825.566,558.613 c 1.532,-1.625 2.688,-3.25 3.469,-4.875 0.563,-1.125 1.485,-4.078 2.766,-8.859 l 4.125,6.187 c 1.094,1.5 2.422,2.93 3.984,4.289 1.563,1.36 2.938,2.29 4.125,2.79 0.75,0.312 1.578,0.468 2.485,0.468 1.343,0 2.414,-0.359 3.21,-1.078 0.797,-0.719 1.196,-1.594 1.196,-2.625 0,-1.187 -0.235,-2 -0.703,-2.437 -0.875,-0.782 -1.875,-1.172 -3,-1.172 -0.657,0 -1.36,0.14 -2.11,0.422 -1.468,0.5 -2.453,0.75 -2.953,0.75 -0.75,0 -1.64,-0.438 -2.672,-1.313 -1.937,-1.625 -4.25,-4.765 -6.937,-9.422 l 3.844,-16.125 c 0.593,-2.468 1.093,-3.945 1.5,-4.429 0.406,-0.485 0.812,-0.727 1.218,-0.727 0.657,0 1.422,0.359 2.297,1.078 1.719,1.438 3.188,3.313 4.406,5.625 l 1.641,-0.844 c -1.969,-3.687 -4.469,-6.75 -7.5,-9.187 -1.719,-1.375 -3.172,-2.063 -4.359,-2.063 -1.75,0 -3.141,0.985 -4.172,2.954 -0.656,1.218 -2.016,6.468 -4.078,15.75 -4.875,-8.469 -8.782,-13.922 -11.719,-16.36 -1.906,-1.562 -3.75,-2.344 -5.531,-2.344 -1.25,0 -2.391,0.454 -3.422,1.36 -0.75,0.687 -1.125,1.609 -1.125,2.765 0,1.032 0.344,1.891 1.031,2.579 0.688,0.687 1.531,1.031 2.531,1.031 1,0 2.063,-0.5 3.188,-1.5 0.812,-0.719 1.437,-1.078 1.875,-1.078 0.375,0 0.859,0.25 1.453,0.75 1.469,1.187 3.469,3.75 6,7.687 2.531,3.938 4.187,6.781 4.969,8.531 -1.938,7.594 -2.985,11.61 -3.141,12.047 -0.719,2.032 -1.656,3.469 -2.812,4.313 -1.157,0.844 -2.86,1.265 -5.11,1.265 -0.719,0 -1.547,-0.031 -2.484,-0.093 v 1.687 l 12.515,2.203" /><path
         id="path62"
         style="fill:#000000;fill-opacity:1;fill-rule:nonzero;stroke:none"
         d="m 350.59,464.746 c 4.219,-0.004 7.953,-0.914 11.203,-2.742 3.25,-1.832 5.797,-4.531 7.641,-8.113 1.843,-3.575 2.765,-7.286 2.765,-11.133 0,-6.809 -1.976,-13.957 -5.929,-21.445 -3.954,-7.481 -9.118,-13.196 -15.493,-17.129 -6.375,-3.938 -12.968,-5.911 -19.781,-5.911 -4.906,0 -9.008,1.086 -12.305,3.262 -3.296,2.168 -5.734,5.039 -7.312,8.602 -1.578,3.558 -2.367,7.015 -2.367,10.355 0,5.938 1.429,11.805 4.289,17.606 2.859,5.793 6.273,10.636 10.242,14.531 3.969,3.887 8.203,6.883 12.703,8.976 4.5,2.09 9.281,3.137 14.344,3.141 z m -1.594,-3.004 c -3.125,0 -6.18,-0.773 -9.164,-2.316 -2.984,-1.551 -5.945,-4.082 -8.883,-7.598 -2.937,-3.515 -5.578,-8.113 -7.922,-13.801 -2.875,-7 -4.312,-13.609 -4.312,-19.832 0,-4.433 1.14,-8.367 3.422,-11.785 2.281,-3.422 5.781,-5.137 10.5,-5.137 2.843,0 5.633,0.704 8.367,2.11 2.734,1.406 5.586,3.816 8.555,7.222 3.718,4.282 6.843,9.739 9.375,16.379 2.531,6.641 3.796,12.84 3.796,18.586 0,4.254 -1.14,8.008 -3.421,11.278 -2.282,3.261 -5.719,4.894 -10.313,4.894 v 0" /><path
         id="path64"
         style="fill:#000000;fill-opacity:1;fill-rule:nonzero;stroke:none"
         d="m 318.391,600.969 15.468,7.551 h 1.547 v -53.672 c 0,-3.567 0.149,-5.782 0.446,-6.657 0.296,-0.875 0.914,-1.546 1.851,-2.015 0.938,-0.469 2.844,-0.735 5.719,-0.797 v -1.734 h -23.906 v 1.734 c 3,0.062 4.937,0.316 5.812,0.773 0.875,0.453 1.485,1.063 1.828,1.828 0.344,0.762 0.516,3.055 0.516,6.868 v 34.312 c 0,4.621 -0.156,7.59 -0.469,8.906 -0.219,1 -0.617,1.731 -1.195,2.2 -0.578,0.468 -1.274,0.703 -2.086,0.703 -1.156,0 -2.766,-0.481 -4.828,-1.449 l -0.703,1.449" /><path
         id="path66"
         style="fill:#000000;fill-opacity:1;fill-rule:nonzero;stroke:none"
         d="m 486.008,550.867 15.469,7.547 h 1.546 v -53.672 c 0,-3.562 0.149,-5.781 0.446,-6.656 0.297,-0.875 0.914,-1.547 1.851,-2.016 0.938,-0.468 2.844,-0.734 5.719,-0.797 v -1.734 h -23.906 v 1.734 c 3,0.063 4.941,0.321 5.812,0.774 0.875,0.453 1.485,1.062 1.828,1.828 0.344,0.766 0.516,3.055 0.516,6.867 v 34.313 c 0,4.625 -0.156,7.593 -0.469,8.906 -0.218,1 -0.617,1.734 -1.195,2.203 -0.578,0.469 -1.273,0.703 -2.086,0.703 -1.156,0 -2.766,-0.484 -4.828,-1.453 l -0.703,1.453" /><path
         id="path68"
         style="fill:none;stroke:#000000;stroke-width:8;stroke-linecap:butt;stroke-linejoin:miter;stroke-miterlimit:10;stroke-dasharray:none;stroke-opacity:1"
         d="m 850.664,481.867 c 0,0.117 -0.73,-2.328 -0.73,-2.215 0,0.11 -0.727,-2.32 -0.727,-2.211 0,0.114 -0.73,-2.304 -0.73,-2.195 0,0.109 -0.731,-2.293 -0.731,-2.183 0,0.109 -0.726,-2.282 -0.726,-2.172 0,0.105 -0.731,-2.27 -0.731,-2.164 0,0.105 -0.73,-2.254 -0.73,-2.149 0,0.102 -0.727,-2.242 -0.727,-2.14 0,0.101 -0.73,-2.231 -0.73,-2.129 0,0.101 -0.731,-2.215 -0.731,-2.114 0,0.098 -0.726,-2.203 -0.726,-2.105 0,0.098 -0.731,-2.192 -0.731,-2.094 0,0.098 -0.73,-2.18 -0.73,-2.082 0,0.094 -0.727,-2.168 -0.727,-2.07 0,0.094 -0.73,-2.153 -0.73,-2.063 0,0.094 -0.731,-2.136 -0.731,-2.047 0,0.09 -0.726,-2.125 -0.726,-2.035 0,0.09 -0.731,-2.113 -0.731,-2.027 0,0.09 -0.73,-2.098 -0.73,-2.012 0,0.086 -0.727,-2.09 -0.727,-2.004 0,0.086 -0.73,-2.074 -0.73,-1.992 0,0.086 -0.731,-2.059 -0.731,-1.976 0,0.078 -0.726,-2.051 -0.726,-1.969 0,0.078 -0.731,-2.035 -0.731,-1.957 0,0.078 -0.73,-2.024 -0.73,-1.949 0,0.078 -0.727,-2.008 -0.727,-1.934 0,0.078 -0.73,-1.996 -0.73,-1.922 0,0.074 -0.731,-1.984 -0.731,-1.91 0,0.07 -0.726,-1.973 -0.726,-1.902 0,0.07 -0.731,-1.957 -0.731,-1.887 0,0.066 -0.73,-1.945 -0.73,-1.879 0,0.066 -0.727,-1.93 -0.727,-1.867 0,0.066 -0.73,-1.918 -0.73,-1.852 0,0.063 -0.731,-1.906 -0.731,-1.844 0,0.063 -0.726,-1.894 -0.726,-1.832 0,0.059 -0.731,-1.879 -0.731,-1.82 0,0.059 -0.73,-1.867 -0.73,-1.809 0,0.055 -0.727,-1.855 -0.727,-1.8 0,0.054 -0.73,-1.836 -0.73,-1.785 0,0.054 -0.731,-1.825 -0.731,-1.774 0,0.051 -0.726,-1.812 -0.726,-1.766 0,0.051 -0.731,-1.8 -0.731,-1.75 0,0.047 -0.73,-1.789 -0.73,-1.742 0,0.047 -0.731,-1.773 -0.731,-1.73 0,0.043 -0.726,-1.758 -0.726,-1.719 0,0.043 -0.731,-1.746 -0.731,-1.703 0,0.039 -0.73,-1.734 -0.73,-1.699 0,0.039 -0.727,-1.719 -0.727,-1.684 0,0.039 -0.73,-1.707 -0.73,-1.672 0,0.035 -0.731,-1.695 -0.731,-1.66 0,0.031 -0.726,-1.68 -0.726,-1.648 0,0.031 -0.731,-1.668 -0.731,-1.641 0,0.031 -0.73,-1.652 -0.73,-1.625 0,0.027 -0.727,-1.644 -0.727,-1.617 0,0.027 -0.73,-1.629 -0.73,-1.606 0,0.024 -0.731,-1.613 -0.731,-1.589 0,0.019 -0.726,-1.602 -0.726,-1.582 0,0.019 -0.731,-1.59 -0.731,-1.571 0,0.016 -0.73,-1.578 -0.73,-1.558 0,0.015 -0.727,-1.563 -0.727,-1.551 0,0.015 -0.73,-1.547 -0.73,-1.535 0,0.011 -0.731,-1.535 -0.731,-1.524 0,0.012 -0.726,-1.523 -0.726,-1.515 0,0.011 -0.731,-1.508 -0.731,-1.5 0,0.007 -0.73,-1.496 -0.73,-1.489 0,0.004 -0.727,-1.484 -0.727,-1.48 0,0.004 -0.73,-1.469 -0.73,-1.469 0,0 -0.731,-1.453 -0.731,-1.457 0,0 -0.726,-1.441 -0.726,-1.445 0,0 -0.731,-1.426 -0.731,-1.434 0,-0.004 -0.73,-1.414 -0.73,-1.422 0,-0.004 -0.727,-1.402 -0.727,-1.41 0,-0.008 -0.73,-1.39 -0.73,-1.398 0,-0.012 -0.731,-1.375 -0.731,-1.391 0,-0.012 -0.726,-1.359 -0.726,-1.375 0,-0.016 -0.731,-1.348 -0.731,-1.367 0,-0.016 -0.73,-1.336 -0.73,-1.352 0,-0.019 -0.727,-1.324 -0.727,-1.343 0,-0.02 -0.73,-1.309 -0.73,-1.332 0,-0.02 -0.731,-1.297 -0.731,-1.321 0,-0.023 -0.726,-1.281 -0.726,-1.308 0,-0.024 -0.731,-1.27 -0.731,-1.297 0,-0.028 -0.73,-1.254 -0.73,-1.285 0,-0.028 -0.727,-1.243 -0.727,-1.274 0,-0.031 -0.73,-1.23 -0.73,-1.262 0,-0.035 -0.731,-1.218 -0.731,-1.253 0,-0.036 -0.73,-1.204 -0.73,-1.239 0,-0.039 -0.727,-1.191 -0.727,-1.23 0,-0.039 -0.73,-1.176 -0.73,-1.219 0,-0.039 -0.731,-1.16 -0.731,-1.203 0,-0.043 -0.726,-1.152 -0.726,-1.195 0,-0.043 -0.731,-1.137 -0.731,-1.184 0,-0.047 -0.73,-1.125 -0.73,-1.172 0,-0.047 -0.727,-1.113 -0.727,-1.16 0,-0.051 -0.73,-1.098 -0.73,-1.148 0,-0.051 -0.731,-1.086 -0.731,-1.141 0,-0.051 -0.726,-1.07 -0.726,-1.125 0,-0.055 -0.731,-1.059 -0.731,-1.113 0,-0.059 -0.73,-1.047 -0.73,-1.106 0,-0.058 -0.727,-1.031 -0.727,-1.094 0,-0.058 -0.73,-1.015 -0.73,-1.078 0,-0.062 -0.731,-1.008 -0.731,-1.07 0,-0.063 -0.726,-0.992 -0.726,-1.059 0,-0.066 -0.731,-0.98 -0.731,-1.046 0,-0.067 -0.73,-0.965 -0.73,-1.036 0,-0.07 -0.727,-0.953 -0.727,-1.023 0,-0.07 -0.73,-0.941 -0.73,-1.012 0,-0.074 -0.731,-0.929 -0.731,-1.004 0,-0.074 -0.726,-0.914 -0.726,-0.988 0,-0.074 -0.731,-0.902 -0.731,-0.98 0,-0.075 -0.73,-0.887 -0.73,-0.965 0,-0.078 -0.727,-0.875 -0.727,-0.957 0,-0.082 -0.73,-0.864 -0.73,-0.946 0,-0.082 -0.731,-0.847 -0.731,-0.933 0,-0.082 -0.726,-0.836 -0.726,-0.918 0,-0.086 -0.731,-0.824 -0.731,-0.91 0,-0.09 -0.73,-0.813 -0.73,-0.903 0,-0.086 -0.727,-0.797 -0.727,-0.886 0,-0.09 -0.73,-0.786 -0.73,-0.875 0,-0.09 -0.731,-0.774 -0.731,-0.864 0,-0.093 -0.726,-0.761 -0.726,-0.855 0,-0.094 -0.731,-0.746 -0.731,-0.84 0,-0.098 -0.73,-0.734 -0.73,-0.832 0,-0.098 -0.727,-0.719 -0.727,-0.82 0,-0.098 -0.73,-0.707 -0.73,-0.809 0,-0.098 -0.731,-0.691 -0.731,-0.793 0,-0.105 -0.726,-0.684 -0.726,-0.789 0,-0.102 -0.731,-0.668 -0.731,-0.77 0,-0.105 -0.73,-0.66 -0.73,-0.765 0,-0.106 -0.727,-0.641 -0.727,-0.75 0,-0.106 -0.73,-0.629 -0.73,-0.738 0,-0.11 -0.731,-0.618 -0.731,-0.731 0,-0.109 -0.726,-0.605 -0.726,-0.715 0,-0.113 -0.731,-0.593 -0.731,-0.707 0,-0.113 -0.73,-0.578 -0.73,-0.691 0,-0.117 -0.727,-0.57 -0.727,-0.684 0,-0.117 -0.73,-0.554 -0.73,-0.672 0,-0.117 -0.731,-0.543 -0.731,-0.66 0,-0.117 -0.726,-0.531 -0.726,-0.648 0,-0.121 -0.731,-0.516 -0.731,-0.637 0,-0.121 -0.73,-0.504 -0.73,-0.625 0,-0.121 -0.727,-0.492 -0.727,-0.617 0,-0.121 -0.73,-0.477 -0.73,-0.602 0,-0.125 -0.731,-0.468 -0.731,-0.59 0,-0.125 -0.73,-0.457 -0.73,-0.582 0,-0.125 -0.727,-0.441 -0.727,-0.57 0,-0.125 -0.73,-0.43 -0.73,-0.555 0,-0.128 -0.731,-0.418 -0.731,-0.546 0,-0.129 -0.726,-0.407 -0.726,-0.536 0,-0.129 -0.731,-0.394 -0.731,-0.523 0,-0.133 -0.73,-0.379 -0.73,-0.512 0,-0.133 -0.727,-0.367 -0.727,-0.5 0,-0.133 -0.73,-0.355 -0.73,-0.492 0,-0.133 -0.731,-0.34 -0.731,-0.477 0,-0.136 -0.726,-0.332 -0.726,-0.464 0,-0.137 -0.731,-0.321 -0.731,-0.457 0,-0.137 -0.73,-0.305 -0.73,-0.446 0,-0.136 -0.727,-0.293 -0.727,-0.429 0,-0.141 -0.73,-0.282 -0.73,-0.422 0,-0.141 -0.731,-0.27 -0.731,-0.41 0,-0.141 -0.726,-0.258 -0.726,-0.399 0,-0.14 -0.731,-0.242 -0.731,-0.387 0,-0.14 -0.73,-0.23 -0.73,-0.375 0,-0.14 -0.727,-0.222 -0.727,-0.363 0,-0.144 -0.73,-0.211 -0.73,-0.351 0,-0.145 -0.731,-0.2 -0.731,-0.344 0,-0.145 -0.726,-0.184 -0.726,-0.328 0,-0.145 -0.731,-0.176 -0.731,-0.321 0,-0.144 -0.73,-0.16 -0.73,-0.304 0,-0.149 -0.727,-0.153 -0.727,-0.297 0,-0.149 -0.73,-0.137 -0.73,-0.285 0,-0.149 -0.731,-0.125 -0.731,-0.274 0,-0.148 -0.726,-0.113 -0.726,-0.261 0,-0.149 -0.731,-0.102 -0.731,-0.25 0,-0.149 -0.73,-0.09 -0.73,-0.239 0,-0.152 -0.727,-0.078 -0.727,-0.23 0,-0.149 -0.73,-0.063 -0.73,-0.215 0,-0.149 -0.731,-0.055 -0.731,-0.203 0,-0.153 -0.726,-0.043 -0.726,-0.196 0,-0.148 -0.731,-0.031 -0.731,-0.179 0,-0.153 -0.73,-0.02 -0.73,-0.172 0,-0.152 -0.727,-0.008 -0.727,-0.16 0,-0.153 -0.73,0.004 -0.73,-0.149 0,-0.152 -0.731,0.02 -0.731,-0.136 0,-0.153 -0.726,0.031 -0.726,-0.125 0,-0.153 -0.731,0.043 -0.731,-0.114 0,-0.152 -0.73,0.051 -0.73,-0.101 0,-0.153 -0.727,0.062 -0.727,-0.09 0,-0.156 -0.73,0.074 -0.73,-0.082 0,-0.152 -0.731,0.086 -0.731,-0.067 0,-0.156 -0.726,0.098 -0.726,-0.058 0,-0.152 -0.731,0.109 -0.731,-0.043 0,-0.156 -0.73,0.117 -0.73,-0.035 0,-0.156 -0.727,0.133 -0.727,-0.024 0,-0.156 -0.73,0.145 -0.73,-0.011 0,-0.153 -0.731,0.156 -0.731,0 0,-0.153 -0.726,0.168 -0.726,0.011 0,-0.156 -0.731,0.176 -0.731,0.024 0,-0.156 -0.73,0.187 -0.73,0.035 0,-0.156 -0.731,0.199 -0.731,0.043 0,-0.152 -0.726,0.211 -0.726,0.058 0,-0.156 -0.731,0.223 -0.731,0.067 0,-0.152 -0.73,0.234 -0.73,0.082 0,-0.156 -0.727,0.242 -0.727,0.09 0,-0.153 -0.73,0.258 -0.73,0.101 0,-0.152 -0.731,0.27 -0.731,0.114 0,-0.153 -0.726,0.281 -0.726,0.125 0,-0.153 -0.731,0.289 -0.731,0.136 0,-0.152 -0.73,0.301 -0.73,0.149 0,-0.153 -0.727,0.312 -0.727,0.16 0,-0.152 -0.73,0.32 -0.73,0.172 0,-0.153 -0.731,0.332 -0.731,0.179 0,-0.148 -0.726,0.344 -0.726,0.196 0,-0.153 -0.731,0.355 -0.731,0.203 0,-0.149 -0.73,0.367 -0.73,0.215 0,-0.149 -0.727,0.379 -0.727,0.23 0,-0.152 -0.73,0.387 -0.73,0.239 0,-0.149 -0.731,0.398 -0.731,0.25 0,-0.149 -0.726,0.41 -0.726,0.261 0,-0.148 -0.731,0.422 -0.731,0.274 0,-0.149 -0.73,0.429 -0.73,0.285 0,-0.149 -0.727,0.441 -0.727,0.297 0,-0.149 -0.73,0.449 -0.73,0.304 0,-0.144 -0.731,0.465 -0.731,0.321 0,-0.145 -0.726,0.472 -0.726,0.328 0,-0.145 -0.731,0.484 -0.731,0.344 0,-0.145 -0.73,0.492 -0.73,0.351 0,-0.144 -0.727,0.508 -0.727,0.363 0,-0.14 -0.73,0.52 -0.73,0.375 0,-0.14 -0.731,0.528 -0.731,0.387 0,-0.14 -0.726,0.539 -0.726,0.399 0,-0.141 -0.731,0.55 -0.731,0.41 0,-0.141 -0.73,0.558 -0.73,0.422 0,-0.141 -0.727,0.57 -0.727,0.429 0,-0.136 -0.73,0.582 -0.73,0.446 0,-0.137 -0.731,0.589 -0.731,0.457 0,-0.137 -0.726,0.601 -0.726,0.464 0,-0.136 -0.731,0.614 -0.731,0.477 0,-0.133 -0.73,0.625 -0.73,0.492 0,-0.133 -0.727,0.633 -0.727,0.5 0,-0.133 -0.73,0.641 -0.73,0.512 0,-0.133 -0.731,0.652 -0.731,0.523 0,-0.129 -0.73,0.664 -0.73,0.536 0,-0.129 -0.727,0.671 -0.727,0.546 0,-0.128 -0.73,0.684 -0.73,0.555 0,-0.125 -0.731,0.695 -0.731,0.57 0,-0.125 -0.726,0.704 -0.726,0.582 0,-0.125 -0.731,0.715 -0.731,0.59 0,-0.125 -0.73,0.727 -0.73,0.602 0,-0.121 -0.727,0.738 -0.727,0.617 0,-0.121 -0.73,0.746 -0.73,0.625 0,-0.121 -0.731,0.754 -0.731,0.637 0,-0.121 -0.726,0.765 -0.726,0.648 0,-0.117 -0.731,0.778 -0.731,0.66 0,-0.117 -0.73,0.786 -0.73,0.672 0,-0.117 -0.727,0.797 -0.727,0.684 0,-0.117 -0.73,0.805 -0.73,0.691 0,-0.113 -0.731,0.817 -0.731,0.707 0,-0.113 -0.726,0.828 -0.726,0.715 0,-0.109 -0.731,0.84 -0.731,0.731 0,-0.11 -0.73,0.847 -0.73,0.738 0,-0.106 -0.727,0.855 -0.727,0.75 0,-0.106 -0.73,0.867 -0.73,0.765 0,-0.105 -0.731,0.875 -0.731,0.77 0,-0.102 -0.726,0.891 -0.726,0.789 0,-0.105 -0.731,0.895 -0.731,0.793 0,-0.098 -0.73,0.91 -0.73,0.809 0,-0.098 -0.727,0.918 -0.727,0.82 0,-0.098 -0.73,0.926 -0.73,0.832 0,-0.098 -0.731,0.934 -0.731,0.84 0,-0.094 -0.726,0.945 -0.726,0.855 0,-0.093 -0.731,0.953 -0.731,0.864 0,-0.09 -0.73,0.964 -0.73,0.875 0,-0.09 -0.727,0.976 -0.727,0.886 0,-0.086 -0.73,0.989 -0.73,0.903 0,-0.09 -0.731,0.992 -0.731,0.91 0,-0.086 -0.726,1.004 -0.726,0.918 0,-0.082 -0.731,1.015 -0.731,0.933 0,-0.082 -0.73,1.028 -0.73,0.946 0,-0.082 -0.727,1.035 -0.727,0.957 0,-0.078 -0.73,1.043 -0.73,0.965 0,-0.075 -0.731,1.054 -0.731,0.98 0,-0.074 -0.726,1.063 -0.726,0.988 0,-0.074 -0.731,1.075 -0.731,1.004 0,-0.074 -0.73,1.082 -0.73,1.012 0,-0.07 -0.727,1.094 -0.727,1.023 0,-0.07 -0.73,1.102 -0.73,1.036 0,-0.067 -0.731,1.113 -0.731,1.046 0,-0.066 -0.726,1.121 -0.726,1.059 0,-0.063 -0.731,1.133 -0.731,1.07 0,-0.062 -0.73,1.141 -0.73,1.078 0,-0.058 -0.727,1.153 -0.727,1.094 0,-0.058 -0.73,1.16 -0.73,1.106 0,-0.059 -0.731,1.168 -0.731,1.113 0,-0.055 -0.726,1.18 -0.726,1.125 0,-0.051 -0.731,1.191 -0.731,1.141 0,-0.051 -0.73,1.195 -0.73,1.148 0,-0.051 -0.731,1.207 -0.731,1.16 0,-0.047 -0.726,1.219 -0.726,1.172 0,-0.047 -0.731,1.227 -0.731,1.184 0,-0.043 -0.73,1.238 -0.73,1.195 0,-0.043 -0.727,1.246 -0.727,1.203 0,-0.039 -0.73,1.258 -0.73,1.219 0,-0.039 -0.731,1.265 -0.731,1.23 0,-0.039 -0.726,1.274 -0.726,1.239 0,-0.036 -0.731,1.285 -0.731,1.253 0,-0.035 -0.73,1.293 -0.73,1.262 0,-0.031 -0.727,1.305 -0.727,1.274 0,-0.028 -0.73,1.312 -0.73,1.285 0,-0.028 -0.731,1.324 -0.731,1.297 0,-0.024 -0.726,1.332 -0.726,1.308 0,-0.023 -0.731,1.344 -0.731,1.321 0,-0.02 -0.73,1.351 -0.73,1.332 0,-0.02 -0.727,1.359 -0.727,1.343 0,-0.019 -0.73,1.371 -0.73,1.352 0,-0.016 -0.731,1.383 -0.731,1.367 0,-0.016 -0.726,1.391 -0.726,1.375 0,-0.012 -0.731,1.399 -0.731,1.391 0,-0.012 -0.73,1.406 -0.73,1.398 0,-0.008 -0.727,1.418 -0.727,1.41 0,-0.004 -0.73,1.43 -0.73,1.422 0,-0.004 -0.731,1.438 -0.731,1.434 0,0 -0.726,1.449 -0.726,1.445 l -0.731,1.457 c 0,0 -0.73,1.465 -0.73,1.469 0,0.004 -0.727,1.473 -0.727,1.48 0,0.004 -0.73,1.481 -0.73,1.489 0,0.007 -0.731,1.492 -0.731,1.5 0,0.011 -0.726,1.504 -0.726,1.515 0,0.012 -0.731,1.512 -0.731,1.524 0,0.011 -0.73,1.523 -0.73,1.535 0,0.015 -0.727,1.531 -0.727,1.551 0,0.015 -0.73,1.539 -0.73,1.558 0,0.016 -0.731,1.551 -0.731,1.571 0,0.019 -0.726,1.558 -0.726,1.582 0,0.019 -0.731,1.566 -0.731,1.589 0,0.024 -0.73,1.579 -0.73,1.606 0,0.027 -0.731,1.59 -0.731,1.617 0,0.027 -0.726,1.598 -0.726,1.625 0,0.031 -0.731,1.609 -0.731,1.641 0,0.031 -0.73,1.613 -0.73,1.648 0,0.031 -0.727,1.625 -0.727,1.66 0,0.035 -0.73,1.637 -0.73,1.672 0,0.039 -0.731,1.649 -0.731,1.684 0,0.039 -0.726,1.656 -0.726,1.699 0,0.039 -0.731,1.664 -0.731,1.703 0,0.043 -0.73,1.676 -0.73,1.719 0,0.043 -0.727,1.683 -0.727,1.73 0,0.047 -0.73,1.692 -0.73,1.742 0,0.047 -0.731,1.704 -0.731,1.75 0,0.051 -0.726,1.715 -0.726,1.766 0,0.051 -0.731,1.723 -0.731,1.774 0,0.054 -0.73,1.73 -0.73,1.785 0,0.054 -0.727,1.742 -0.727,1.8 0,0.055 -0.73,1.75 -0.73,1.809 0,0.059 -0.731,1.758 -0.731,1.82 0,0.059 -0.726,1.77 -0.726,1.832 0,0.063 -0.731,1.778 -0.731,1.844 0,0.063 -0.73,1.789 -0.73,1.852 0,0.066 -0.727,1.801 -0.727,1.867 0,0.066 -0.73,1.809 -0.73,1.879 0,0.066 -0.731,1.816 -0.731,1.887 0,0.07 -0.726,1.828 -0.726,1.902 0,0.07 -0.731,1.836 -0.731,1.91 0,0.074 -0.73,1.848 -0.73,1.922 0,0.078 -0.727,1.859 -0.727,1.934 0,0.078 -0.73,1.871 -0.73,1.949 0,0.078 -0.731,1.875 -0.731,1.957 0,0.078 -0.726,1.886 -0.726,1.969 0,0.078 -0.731,1.894 -0.731,1.976 0,0.086 -0.73,1.906 -0.73,1.992 0,0.086 -0.727,1.918 -0.727,2.004 0,0.086 -0.73,1.926 -0.73,2.012 0,0.09 -0.731,1.937 -0.731,2.027 0,0.09 -0.726,1.946 -0.726,2.035 0,0.09 -0.731,1.957 -0.731,2.047 0,0.094 -0.73,1.965 -0.73,2.063 0,0.094 -0.727,1.972 -0.727,2.07 0,0.094 -0.73,1.984 -0.73,2.082 0,0.098 -0.731,1.996 -0.731,2.094 0,0.098 -0.726,2.004 -0.726,2.105 0,0.098 -0.731,2.012 -0.731,2.114 0,0.101 -0.73,2.027 -0.73,2.129 0,0.101 -0.727,2.035 -0.727,2.14 0,0.102 -0.73,2.043 -0.73,2.149 0,0.105 -0.731,2.054 -0.731,2.164 0,0.105 -0.726,2.062 -0.726,2.172 0,0.109 -0.731,2.074 -0.731,2.183 0,0.109 -0.73,2.086 -0.73,2.195 0,0.114 -0.727,2.098 -0.727,2.211 0,0.11 -0.73,2.102 -0.73,2.215 0,0.117 -0.731,2.117 -0.731,2.231 0,0.117 -0.726,2.125 -0.726,2.242 0,0.117 -0.731,2.137 -0.731,2.254 0,0.117 -0.73,2.144 -0.73,2.265 0,0.118 -0.731,2.153 -0.731,2.274 0,0.121 -0.726,2.168 -0.726,2.289 0,0.121 -0.731,2.176 -0.731,2.297 0,0.121 -0.73,2.187 -0.73,2.308 0,0.125 -0.727,2.2 -0.727,2.321 0,0.125 -0.73,2.207 -0.73,2.336 0,0.125 -0.731,2.214 -0.731,2.343 0,0.125 -0.726,2.227 -0.726,2.356 0,0.125 -0.731,2.234 -0.731,2.363 0,0.133 -0.73,2.25 -0.73,2.379 0,0.133 -0.727,2.258 -0.727,2.391 0,0.129 -0.73,2.269 -0.73,2.402 0,0.129 -0.731,2.277 -0.731,2.41 0,0.133 -0.726,2.289 -0.726,2.422 0,0.137 -0.731,2.301 -0.731,2.438 0,0.132 -0.73,2.308 -0.73,2.445 0,0.137 -0.727,2.32 -0.727,2.457 0,0.137 -0.73,2.332 -0.73,2.469 0,0.136 -0.731,2.343 -0.731,2.48 0,0.141 -0.726,2.352 -0.726,2.492 0,0.141 -0.731,2.364 -0.731,2.504 0,0.141 -0.73,2.375 -0.73,2.516 0,0.14 -0.727,2.383 -0.727,2.523 0,0.145 -0.73,2.395 -0.73,2.539 0,0.141 -0.731,2.407 -0.731,2.547 0,0.145 -0.726,2.418 -0.726,2.563 0,0.144 -0.731,2.425 -0.731,2.57 0,0.145 -0.73,2.437 -0.73,2.582 0,0.145 -0.727,2.449 -0.727,2.594 0,0.148 -0.73,2.461 -0.73,2.605 0,0.149 -0.731,2.473 -0.731,2.617 0,0.149 -0.726,2.481 -0.726,2.629 0,0.149 -0.731,2.493 -0.731,2.641 0,0.148 -0.73,2.504 -0.73,2.652 0,0.149 -0.727,2.512 -0.727,2.66 0,0.149 -0.73,2.524 -0.73,2.676 0,0.149 -0.731,2.535 -0.731,2.684 0,0.152 -0.726,2.547 -0.726,2.695 0,0.152 -0.731,2.559 -0.731,2.711 0,0.149 -0.73,2.566 -0.73,2.719 0,0.152 -0.727,2.578 -0.727,2.73 0,0.153 -0.73,2.59 -0.73,2.742 0,0.153 -0.731,2.602 -0.731,2.754 0,0.153 -0.726,2.61 -0.726,2.766 0,0.152 -0.731,2.621 -0.731,2.773 0,0.153 -0.73,2.637 -0.73,2.79 0,0.152 -0.727,2.644 -0.727,2.796 0,0.157 -0.73,2.661 -0.73,2.813 0,0.152 -0.731,2.668 -0.731,2.82 0,0.156 -0.726,2.68 -0.726,2.836 0,0.152 -0.731,2.688 -0.731,2.844 0,0.152 -0.73,2.699 -0.73,2.855 0,0.153 -0.731,2.711 -0.731,2.868 0,0.152 -0.726,2.722 -0.726,2.878 0,0.153 -0.731,2.735 -0.731,2.891 0,0.152 -0.73,2.746 -0.73,2.899 0,0.156 -0.727,2.761 -0.727,2.914 0,0.156 -0.73,2.769 -0.73,2.925 0,0.153 -0.731,2.782 -0.731,2.934 0,0.156 -0.726,2.793 -0.726,2.949 0,0.153 -0.731,2.801 -0.731,2.957 0,0.156 -0.73,2.817 -0.73,2.969 0,0.156 -0.727,2.828 -0.727,2.98 0,0.157 -0.73,2.84 -0.73,2.993 0,0.156 -0.731,2.851 -0.731,3.004 0,0.156 -0.726,2.863 -0.726,3.015 0,0.156 -0.731,2.875 -0.731,3.027 0,0.153 -0.73,2.887 -0.73,3.04 0,0.152 -0.727,2.894 -0.727,3.046 0,0.153 -0.73,2.911 -0.73,3.063 0,0.152 -0.731,2.922 -0.731,3.07 0,0.153 -0.726,2.934 -0.726,3.086 0,0.153 -0.731,2.942 -0.731,3.094 0,0.152 -0.73,2.957 -0.73,3.105 0,0.153 -0.727,2.969 -0.727,3.118 0,0.152 -0.73,2.98 -0.73,3.128 0,0.153 -0.731,2.993 -0.731,3.141 0,0.152 -0.726,3.004 -0.726,3.152 0,0.149 -0.731,3.016 -0.731,3.165 0,0.148 -0.73,3.027 -0.73,3.171 0,0.149 -0.727,3.039 -0.727,3.188 0,0.148 -0.73,3.051 -0.73,3.199 0,0.145 -0.731,3.059 -0.731,3.207 0,0.145 -0.726,3.074 -0.726,3.219 0,0.148 -0.731,3.086 -0.731,3.234 0,0.145 -0.73,3.098 -0.73,3.242 0,0.145 -0.727,3.11 -0.727,3.254 0,0.145 -0.73,3.121 -0.73,3.266 0,0.141 -0.731,3.133 -0.731,3.277 0,0.141 -0.726,3.145 -0.726,3.285 0,0.145 -0.731,3.161 -0.731,3.301 0,0.141 -0.73,3.172 -0.73,3.313 0,0.14 -0.727,3.183 -0.727,3.32 0,0.141 -0.73,3.195 -0.73,3.336 0,0.137 -0.731,3.207 -0.731,3.344 0,0.136 -0.726,3.219 -0.726,3.355 0,0.137 -0.731,3.235 -0.731,3.371 0,0.133 -0.73,3.243 -0.73,3.379 0,0.133 -0.731,3.254 -0.731,3.391 0,0.133 -0.726,3.265 -0.726,3.402 0,0.133 -0.731,3.281 -0.731,3.41 0,0.133 -0.73,3.297 -0.73,3.426 0,0.133 -0.727,3.309 -0.727,3.438 0,0.129 -0.73,3.316 -0.73,3.445 0,0.129 -0.731,3.332 -0.731,3.461 0,0.129 -0.726,3.344 -0.726,3.469 0,0.129 -0.731,3.355 -0.731,3.484 0,0.125 -0.73,3.367 -0.73,3.492 0,0.125 -0.727,3.379 -0.727,3.504 0,0.125 -0.73,3.395 -0.73,3.516 0,0.121 -0.731,3.406 -0.731,3.527 0,0.121 -0.726,3.418 -0.726,3.539 0,0.121 -0.731,3.43 -0.731,3.551 0,0.117 -0.73,3.441 -0.73,3.559 0,0.117 -0.727,3.457 -0.727,3.574 0,0.117 -0.73,3.468 -0.73,3.582 0,0.117 -0.731,3.484 -0.731,3.597 0,0.114 -0.726,3.493 -0.726,3.606 0,0.113 -0.731,3.508 -0.731,3.621 0,0.109 -0.73,3.52 -0.73,3.629 0,0.109 -0.727,3.531 -0.727,3.641 0,0.109 -0.73,3.542 -0.73,3.652 0,0.105 -0.731,3.558 -0.731,3.664 0,0.105 -0.726,3.57 -0.726,3.676 0,0.101 -0.731,3.582 -0.731,3.683 0,0.106 -0.73,3.598 -0.73,3.7 0,0.101 -0.727,3.609 -0.727,3.71 0,0.098 -0.73,3.622 -0.73,3.719 0,0.098 -0.731,3.633 -0.731,3.731 0,0.097 -0.726,3.648 -0.726,3.746 0,0.094 -0.731,3.66 -0.731,3.754 0,0.093 -0.73,3.672 -0.73,3.765 0,0.094 -0.727,3.688 -0.727,3.778 0,0.089 -0.73,3.699 -0.73,3.789 0,0.09 -0.731,3.711 -0.731,3.8 0,0.086 -0.726,3.727 -0.726,3.813 0,0.086 -0.731,3.738 -0.731,3.82 0,0.086 -0.73,3.754 -0.73,3.836 0,0.082 -0.727,3.766 -0.727,3.848 0,0.082 -0.73,3.773 -0.73,3.855 0,0.082 -0.731,3.789 -0.731,3.868 0,0.078 -0.726,3.804 -0.726,3.882 0,0.075 -0.731,3.813 -0.731,3.891 0,0.074 -0.73,3.828 -0.73,3.902 0,0.075 -0.727,3.84 -0.727,3.914 0,0.071 -0.73,3.856 -0.73,3.926 0,0.07 -0.731,3.867 -0.731,3.938 0,0.066 -0.726,3.879 -0.726,3.945 0,0.07 -0.731,3.895 -0.731,3.961" /></g></g></svg>