<?xml version="1.0" encoding="UTF-8" standalone="no"?>
<svg
   xmlns:dc="http://purl.org/dc/elements/1.1/"
   xmlns:cc="http://creativecommons.org/ns#"
   xmlns:rdf="http://www.w3.org/1999/02/22-rdf-syntax-ns#"
   xmlns:svg="http://www.w3.org/2000/svg"
   xmlns="http://www.w3.org/2000/svg"
   viewBox="0 0 421.38666 80.559998"
   height="80.559998"
   width="421.38666"
   xml:space="preserve"
   id="svg2"
   version="1.1"><metadata
     id="metadata8"><rdf:RDF><cc:Work
         rdf:about=""><dc:format>image/svg+xml</dc:format><dc:type
           rdf:resource="http://purl.org/dc/dcmitype/StillImage" /></cc:Work></rdf:RDF></metadata><defs
     id="defs6" /><g
     transform="matrix(1.3333333,0,0,-1.3333333,0,80.56)"
     id="g10"><g
       transform="scale(0.1)"
       id="g12"><path
         id="path14"
         style="fill:#000000;fill-opacity:1;fill-rule:nonzero;stroke:none"
         d="m 0,577.578 16.1133,7.86 h 1.6133 v -55.907 c 0,-3.711 0.1523,-6.023 0.4609,-6.933 0.3086,-0.91 0.9531,-1.614 1.9297,-2.102 0.9766,-0.488 2.9609,-0.762 5.957,-0.828 v -1.809 H 1.17188 v 1.809 c 3.125,0.066 5.14453,0.332 6.05468,0.805 0.91016,0.472 1.54688,1.109 1.90625,1.906 0.35547,0.797 0.53516,3.18 0.53516,7.152 v 35.742 c 0,4.817 -0.16406,7.911 -0.48828,9.278 -0.22656,1.043 -0.64453,1.804 -1.2461,2.293 -0.60156,0.488 -1.32421,0.734 -2.17187,0.734 -1.20313,0 -2.87891,-0.504 -5.027345,-1.515 L 0,577.578" /><path
         id="path16"
         style="fill:#000000;fill-opacity:1;fill-rule:nonzero;stroke:none"
         d="m 52.7383,596.242 v 2.051 c 4.9492,-2.441 9.0664,-5.32 12.3555,-8.641 4.6562,-4.754 8.25,-10.328 10.789,-16.722 2.5391,-6.399 3.8086,-13.063 3.8086,-19.996 0,-10.09 -2.4805,-19.297 -7.4453,-27.614 -4.9648,-8.316 -11.4648,-14.265 -19.5078,-17.847 v 1.808 c 4.0039,2.246 7.3008,5.282 9.8906,9.106 2.5859,3.824 4.5078,8.691 5.7617,14.601 1.2539,5.907 1.8789,12.067 1.8789,18.481 0,6.933 -0.539,13.265 -1.6132,18.992 -0.8125,4.492 -1.8282,8.09 -3.0508,10.793 -1.2188,2.703 -2.8399,5.305 -4.8594,7.812 -2.0156,2.508 -4.6875,4.899 -8.0078,7.176 v 0" /><path
         id="path18"
         style="fill:#000000;fill-opacity:1;fill-rule:nonzero;stroke:none"
         d="m 664.176,367.496 c 1.531,-1.625 2.687,-3.254 3.469,-4.879 0.558,-1.125 1.48,-4.078 2.761,-8.863 l 4.125,6.191 c 1.094,1.5 2.422,2.93 3.981,4.289 1.562,1.364 2.937,2.293 4.125,2.793 0.75,0.313 1.578,0.469 2.484,0.469 1.344,0 2.414,-0.359 3.211,-1.078 0.793,-0.719 1.191,-1.598 1.191,-2.629 0,-1.187 -0.234,-2 -0.699,-2.437 -0.875,-0.782 -1.875,-1.172 -3,-1.172 -0.656,0 -1.359,0.14 -2.109,0.422 -1.469,0.5 -2.453,0.75 -2.953,0.75 -0.75,0 -1.641,-0.438 -2.668,-1.313 -1.938,-1.625 -4.25,-4.766 -6.938,-9.426 L 675,334.484 c 0.594,-2.472 1.094,-3.949 1.5,-4.433 0.406,-0.485 0.813,-0.727 1.219,-0.727 0.656,0 1.418,0.36 2.293,1.078 1.718,1.438 3.187,3.313 4.406,5.629 l 1.641,-0.843 c -1.969,-3.692 -4.469,-6.754 -7.5,-9.192 -1.715,-1.375 -3.168,-2.062 -4.356,-2.062 -1.75,0 -3.14,0.984 -4.172,2.953 -0.656,1.218 -2.011,6.468 -4.074,15.754 -4.875,-8.473 -8.777,-13.926 -11.715,-16.364 -1.906,-1.562 -3.75,-2.343 -5.531,-2.343 -1.25,0 -2.387,0.453 -3.418,1.359 -0.75,0.687 -1.125,1.609 -1.125,2.766 0,1.031 0.344,1.89 1.031,2.578 0.688,0.687 1.531,1.031 2.528,1.031 1,0 2.062,-0.5 3.187,-1.5 0.813,-0.719 1.438,-1.078 1.875,-1.078 0.375,0 0.859,0.25 1.453,0.75 1.469,1.187 3.465,3.75 5.996,7.691 2.532,3.938 4.188,6.782 4.969,8.535 -1.937,7.594 -2.984,11.614 -3.141,12.051 -0.718,2.031 -1.656,3.469 -2.812,4.313 -1.156,0.843 -2.856,1.265 -5.106,1.265 -0.718,0 -1.546,-0.031 -2.484,-0.093 v 1.687 l 12.512,2.207" /><path
         id="path20"
         style="fill:#000000;fill-opacity:1;fill-rule:nonzero;stroke:none"
         d="m 443.98,590.824 c 1.063,-1.812 1.797,-3.508 2.204,-5.086 0.406,-1.582 0.812,-4.683 1.218,-9.308 l 2.063,-23.075 c 1.875,2.254 4.59,5.817 8.152,10.692 1.719,2.379 3.844,5.613 6.371,9.707 1.532,2.504 2.469,4.254 2.813,5.254 0.187,0.5 0.281,1.015 0.281,1.547 0,0.343 -0.109,0.625 -0.328,0.843 -0.219,0.219 -0.789,0.477 -1.711,0.774 -0.922,0.297 -1.688,0.844 -2.297,1.641 -0.605,0.796 -0.91,1.71 -0.91,2.746 0,1.281 0.375,2.312 1.121,3.093 0.75,0.782 1.688,1.172 2.813,1.172 1.375,0 2.546,-0.57 3.515,-1.711 0.969,-1.14 1.453,-2.711 1.453,-4.715 0,-2.468 -0.843,-5.289 -2.531,-8.46 -1.687,-3.176 -4.937,-8.043 -9.746,-14.61 -4.813,-6.562 -10.637,-13.723 -17.477,-21.476 -4.718,-5.344 -8.218,-8.715 -10.496,-10.106 -2.281,-1.391 -4.234,-2.086 -5.859,-2.086 -0.969,0 -1.82,0.367 -2.555,1.102 -0.734,0.734 -1.101,1.586 -1.101,2.554 0,1.219 0.507,2.332 1.523,3.332 1.016,1 2.117,1.5 3.305,1.5 0.625,0 1.14,-0.14 1.547,-0.421 0.25,-0.157 0.523,-0.602 0.82,-1.336 0.297,-0.735 0.57,-1.231 0.82,-1.481 0.157,-0.156 0.344,-0.234 0.563,-0.234 0.187,0 0.515,0.156 0.984,0.469 1.715,1.066 3.715,2.753 5.996,5.066 3,3.062 5.215,5.566 6.653,7.504 l -2.621,29.73 c -0.438,4.907 -1.094,7.891 -1.969,8.953 -0.875,1.063 -2.344,1.598 -4.406,1.598 -0.657,0 -1.829,-0.094 -3.512,-0.281 l -0.422,1.734 13.726,3.375" /><path
         id="path22"
         style="fill:#000000;fill-opacity:1;fill-rule:nonzero;stroke:none"
         d="m 371.738,293.914 c 4.215,0 7.95,-0.914 11.2,-2.742 3.246,-1.832 5.792,-4.535 7.636,-8.113 1.844,-3.579 2.766,-7.293 2.766,-11.137 0,-6.817 -1.977,-13.969 -5.93,-21.453 -3.949,-7.489 -9.113,-13.203 -15.484,-17.141 -6.375,-3.937 -12.965,-5.906 -19.774,-5.906 -4.906,0 -9.007,1.086 -12.3,3.258 -3.297,2.172 -5.735,5.039 -7.313,8.605 -1.574,3.563 -2.363,7.016 -2.363,10.363 0,5.938 1.429,11.809 4.285,17.606 2.859,5.801 6.273,10.644 10.238,14.539 3.969,3.891 8.203,6.883 12.699,8.98 4.5,2.094 9.278,3.141 14.34,3.141 z m -1.593,-3 c -3.125,0 -6.18,-0.773 -9.161,-2.324 -2.984,-1.547 -5.945,-4.078 -8.879,-7.594 -2.937,-3.519 -5.578,-8.121 -7.921,-13.812 -2.871,-7 -4.309,-13.614 -4.309,-19.836 0,-4.438 1.141,-8.368 3.418,-11.793 2.281,-3.422 5.781,-5.133 10.496,-5.133 2.844,0 5.633,0.703 8.367,2.109 2.731,1.407 5.582,3.813 8.551,7.223 3.715,4.281 6.84,9.746 9.371,16.387 2.531,6.644 3.797,12.843 3.797,18.593 0,4.25 -1.141,8.012 -3.422,11.278 -2.281,3.265 -5.719,4.902 -10.308,4.902 v 0" /><path
         id="path24"
         style="fill:#000000;fill-opacity:1;fill-rule:nonzero;stroke:none"
         d="m 347.656,367.352 15.465,7.55 h 1.547 v -53.691 c 0,-3.563 0.148,-5.785 0.445,-6.66 0.297,-0.875 0.914,-1.547 1.852,-2.016 0.937,-0.469 2.84,-0.734 5.715,-0.797 v -1.734 h -23.899 v 1.734 c 3,0.063 4.938,0.321 5.813,0.774 0.875,0.453 1.484,1.062 1.828,1.828 0.344,0.765 0.516,3.058 0.516,6.871 v 34.324 c 0,4.629 -0.157,7.598 -0.469,8.91 -0.219,1 -0.617,1.735 -1.196,2.203 -0.578,0.469 -1.273,0.704 -2.085,0.704 -1.157,0 -2.766,-0.485 -4.829,-1.454 l -0.703,1.454" /><path
         id="path26"
         style="fill:none;stroke:#000000;stroke-width:10;stroke-linecap:butt;stroke-linejoin:miter;stroke-miterlimit:10;stroke-dasharray:none;stroke-opacity:1"
         d="M 476.898,326.328 V 282.98" /><path
         id="path28"
         style="fill:none;stroke:#000000;stroke-width:10;stroke-linecap:butt;stroke-linejoin:miter;stroke-miterlimit:10;stroke-dasharray:none;stroke-opacity:1"
         d="M 423.172,376.309 H 379.855" /><path
         id="path30"
         style="fill:#000000;fill-opacity:1;fill-rule:nonzero;stroke:none"
         d="m 493.164,289.516 15.465,7.55 h 1.543 v -53.695 c 0,-3.562 0.148,-5.781 0.445,-6.656 0.297,-0.875 0.914,-1.547 1.852,-2.016 0.937,-0.469 2.844,-0.738 5.719,-0.801 v -1.734 h -23.899 v 1.734 c 3,0.063 4.938,0.325 5.809,0.778 0.875,0.453 1.484,1.062 1.828,1.828 0.344,0.766 0.515,3.055 0.515,6.867 v 34.328 c 0,4.625 -0.156,7.594 -0.468,8.91 -0.219,1 -0.618,1.735 -1.196,2.204 -0.578,0.468 -1.269,0.703 -2.082,0.703 -1.156,0 -2.765,-0.485 -4.828,-1.453 l -0.703,1.453" /><path
         id="path32"
         style="fill:none;stroke:#000000;stroke-width:3.5;stroke-linecap:butt;stroke-linejoin:miter;stroke-miterlimit:10;stroke-dasharray:none;stroke-opacity:1"
         d="M 105.863,599.496 106.027,4.96875 M 180.117,599.496 180.281,4.96875 M 254.367,599.496 254.531,4.96875 M 328.617,599.496 328.781,4.96875 M 402.871,599.496 403.035,4.96875 M 477.121,599.496 477.285,4.96875 M 551.371,599.496 551.535,4.96875 M 625.625,599.496 625.789,4.96875 M 699.875,599.496 700.039,4.96875 M 105.863,599.496 698.789,598.918 M 105.863,525.191 698.789,524.609 M 105.863,450.883 698.789,450.305 M 105.863,376.578 698.789,375.996 M 105.863,302.27 698.789,301.691 M 105.863,227.965 698.789,227.383 M 105.863,153.656 698.789,153.078 M 105.863,79.3516 698.789,78.7695 M 105.863,5.04297 698.789,4.46484" /><path
         id="path34"
         style="fill:none;stroke:#000000;stroke-width:7.5;stroke-linecap:butt;stroke-linejoin:miter;stroke-miterlimit:10;stroke-dasharray:none;stroke-opacity:1"
         d="M 398.559,7.61328 399.043,593.035" /><path
         id="path36"
         style="fill:#000000;fill-opacity:1;fill-rule:evenodd;stroke:none"
         d="m 380.859,553.816 18.121,49.153 18.04,-49.18 c -10.668,7.863 -25.274,7.828 -36.161,0.027" /><path
         id="path38"
         style="fill:none;stroke:#000000;stroke-width:7.5;stroke-linecap:butt;stroke-linejoin:miter;stroke-miterlimit:10;stroke-dasharray:none;stroke-opacity:1"
         d="M 106.191,302.234 692.91,301.75" /><path
         id="path40"
         style="fill:#000000;fill-opacity:1;fill-rule:evenodd;stroke:none"
         d="m 653.691,319.934 49.153,-18.121 -49.18,-18.04 c 7.863,10.668 7.828,25.274 0.027,36.161" /><path
         id="path42"
         style="fill:#000000;fill-opacity:1;fill-rule:nonzero;stroke:none"
         d="m 862.527,528.34 -4.64,-12.742 h -39.063 v 1.804 c 11.492,10.481 19.582,19.043 24.27,25.684 4.687,6.641 7.031,12.711 7.031,18.215 0,4.199 -1.285,7.648 -3.859,10.351 -2.571,2.7 -5.645,4.051 -9.227,4.051 -3.254,0 -6.176,-0.953 -8.766,-2.855 -2.585,-1.907 -4.5,-4.696 -5.738,-8.375 h -1.805 c 0.813,6.023 2.907,10.644 6.274,13.867 3.371,3.223 7.578,4.832 12.621,4.836 5.371,-0.004 9.855,-1.727 13.453,-5.176 3.598,-3.453 5.395,-7.52 5.395,-12.207 0,-3.355 -0.782,-6.707 -2.344,-10.059 -2.406,-5.273 -6.313,-10.859 -11.719,-16.75 -8.105,-8.855 -13.164,-14.191 -15.183,-16.015 h 17.285 c 3.515,0 5.98,0.129 7.398,0.39 1.414,0.262 2.692,0.789 3.832,1.586 1.137,0.797 2.133,1.93 2.977,3.395 h 1.808" /><path
         id="path44"
         style="fill:#000000;fill-opacity:1;fill-rule:nonzero;stroke:none"
         d="m 873.809,593.223 v 2.05 c 4.949,-2.441 9.066,-5.324 12.355,-8.644 4.652,-4.75 8.25,-10.324 10.789,-16.723 2.539,-6.394 3.809,-13.062 3.809,-19.996 0,-10.09 -2.481,-19.293 -7.446,-27.609 -4.964,-8.321 -11.468,-14.27 -19.507,-17.848 v 1.805 c 4.004,2.246 7.3,5.281 9.886,9.109 2.59,3.824 4.512,8.692 5.762,14.598 1.254,5.91 1.883,12.07 1.883,18.48 0,6.934 -0.539,13.266 -1.613,18.996 -0.813,4.493 -1.832,8.09 -3.051,10.789 -1.223,2.704 -2.84,5.309 -4.86,7.813 -2.019,2.508 -4.687,4.898 -8.007,7.18 v 0" /><g
         transform="scale(1.00786,-0.99214)"
         id="g46"><path
           id="path48"
           style="fill:none;stroke:#000000;stroke-width:3.50010991;stroke-linecap:butt;stroke-linejoin:miter;stroke-miterlimit:10;stroke-dasharray:none;stroke-opacity:1"
           d="m 918.449,-600.446 -1.306,589.0242 m 75.066,-589.0242 -1.302,589.0242 m 75.063,-589.0242 -1.3,589.0242 m 75.06,-589.0242 -1.3,589.0242 m 75.06,-589.0242 -1.3,589.0242 m 75.06,-589.0242 -1.3,589.0242 m 75.06,-589.0242 -1.3,589.0242 m 75.06,-589.0242 -1.3,589.0242 m 75.07,-589.0242 -1.31,589.0242 M 918.449,-600.446 h 589.101 m -589.101,73.759 h 589.101 m -589.101,73.764 h 589.101 m -589.101,73.759 H 1507.55 M 918.449,-305.4 h 589.101 m -589.101,73.759 h 589.101 m -589.101,73.759 h 589.101 m -589.101,73.7638 h 589.101 m -589.101,73.7594 h 589.101" /></g><g
         transform="scale(1.00786,-0.99214)"
         id="g50"><path
           id="path52"
           style="fill:none;stroke:#000000;stroke-width:7.50022984;stroke-linecap:butt;stroke-linejoin:miter;stroke-miterlimit:10;stroke-dasharray:none;stroke-opacity:1"
           d="m 1216.59,-17.3197 0.48,-582.8463" /></g><path
         id="path54"
         style="fill:#000000;fill-opacity:1;fill-rule:evenodd;stroke:none"
         d="m 1208.3,556.535 18.27,48.77 18.18,-48.797 c -10.75,7.801 -25.47,7.769 -36.45,0.027" /><g
         transform="scale(1.00786,-0.99214)"
         id="g56"><path
           id="path58"
           style="fill:none;stroke:#000000;stroke-width:7.50022984;stroke-linecap:butt;stroke-linejoin:miter;stroke-miterlimit:10;stroke-dasharray:none;stroke-opacity:1"
           d="m 920.771,-305.774 580.139,0.48" /></g><path
         id="path60"
         style="fill:#000000;fill-opacity:1;fill-rule:evenodd;stroke:none"
         d="m 1473.18,320.938 49.54,-17.981 -49.57,-17.898 c 7.92,10.586 7.89,25.074 0.03,35.879" /><g
         transform="scale(1.00786,-0.99214)"
         id="g62"><path
           id="path64"
           style="fill:none;stroke:#000000;stroke-width:10.00030041;stroke-linecap:butt;stroke-linejoin:miter;stroke-miterlimit:10;stroke-dasharray:none;stroke-opacity:1"
           d="m 1285.84,-327.776 v 43.03" /></g><g
         transform="scale(1.00786,-0.99214)"
         id="g66"><path
           id="path68"
           style="fill:none;stroke:#000000;stroke-width:10.00030041;stroke-linecap:butt;stroke-linejoin:miter;stroke-miterlimit:10;stroke-dasharray:none;stroke-opacity:1"
           d="m 1238.09,-382.129 h -43.03" /></g><path
         id="path70"
         style="fill:#000000;fill-opacity:1;fill-rule:nonzero;stroke:none"
         d="m 1172.33,394.684 15.59,7.488 h 1.56 v -53.25 c 0,-3.535 0.15,-5.738 0.45,-6.606 0.3,-0.867 0.92,-1.535 1.86,-2 0.95,-0.464 2.87,-0.726 5.77,-0.789 v -1.722 h -24.1 v 1.722 c 3.02,0.063 4.98,0.317 5.86,0.766 0.88,0.449 1.5,1.055 1.84,1.812 0.35,0.762 0.52,3.032 0.52,6.817 v 34.043 c 0,4.59 -0.15,7.535 -0.47,8.836 -0.22,0.992 -0.62,1.722 -1.21,2.187 -0.58,0.465 -1.28,0.696 -2.1,0.696 -1.16,0 -2.78,-0.481 -4.86,-1.442 l -0.71,1.442" /><path
         id="path72"
         style="fill:#000000;fill-opacity:1;fill-rule:nonzero;stroke:none"
         d="m 1292.69,267.41 15.59,7.488 h 1.56 v -53.25 c 0,-3.535 0.14,-5.738 0.45,-6.605 0.3,-0.867 0.92,-1.535 1.86,-2 0.95,-0.465 2.87,-0.727 5.76,-0.789 v -1.723 h -24.09 v 1.723 c 3.02,0.062 4.98,0.316 5.86,0.766 0.88,0.449 1.5,1.054 1.84,1.816 0.35,0.758 0.52,3.031 0.52,6.812 v 34.043 c 0,4.59 -0.16,7.536 -0.47,8.836 -0.22,0.993 -0.62,1.723 -1.21,2.188 -0.58,0.465 -1.28,0.695 -2.1,0.695 -1.16,0 -2.79,-0.48 -4.87,-1.441 l -0.7,1.441" /><path
         id="path74"
         style="fill:#000000;fill-opacity:1;fill-rule:nonzero;stroke:none"
         d="m 1493.97,281.727 c 1.54,-1.61 2.71,-3.223 3.49,-4.836 0.57,-1.118 1.5,-4.047 2.79,-8.789 l 4.16,6.14 c 1.1,1.488 2.44,2.906 4.02,4.254 1.57,1.348 2.96,2.27 4.15,2.766 0.76,0.312 1.59,0.465 2.51,0.465 1.35,0 2.43,-0.356 3.23,-1.067 0.81,-0.715 1.21,-1.582 1.21,-2.605 0,-1.18 -0.24,-1.985 -0.71,-2.418 -0.88,-0.778 -1.89,-1.164 -3.02,-1.164 -0.67,0 -1.37,0.14 -2.13,0.418 -1.48,0.496 -2.47,0.746 -2.97,0.746 -0.76,0 -1.66,-0.434 -2.7,-1.305 -1.95,-1.609 -4.28,-4.727 -6.99,-9.348 l 3.87,-15.996 c 0.6,-2.449 1.1,-3.918 1.51,-4.398 0.41,-0.481 0.82,-0.719 1.23,-0.719 0.67,0 1.43,0.356 2.32,1.07 1.73,1.426 3.21,3.286 4.44,5.579 l 1.65,-0.836 c -1.98,-3.657 -4.5,-6.696 -7.56,-9.114 -1.73,-1.367 -3.19,-2.047 -4.39,-2.047 -1.76,0 -3.17,0.977 -4.2,2.93 -0.67,1.207 -2.04,6.418 -4.11,15.625 -4.92,-8.402 -8.86,-13.812 -11.82,-16.23 -1.92,-1.551 -3.78,-2.325 -5.57,-2.325 -1.26,0 -2.41,0.45 -3.45,1.348 -0.76,0.684 -1.13,1.598 -1.13,2.742 0,1.024 0.34,1.879 1.04,2.559 0.69,0.683 1.54,1.023 2.55,1.023 1,0 2.07,-0.496 3.21,-1.488 0.82,-0.711 1.45,-1.07 1.89,-1.07 0.38,0 0.87,0.25 1.46,0.746 1.48,1.176 3.5,3.719 6.05,7.625 2.55,3.91 4.22,6.73 5.01,8.465 -1.96,7.535 -3.01,11.519 -3.17,11.953 -0.72,2.015 -1.67,3.441 -2.83,4.281 -1.17,0.836 -2.88,1.254 -5.15,1.254 -0.73,0 -1.56,-0.031 -2.5,-0.094 v 1.676 l 12.61,2.184" /><path
         id="path76"
         style="fill:#000000;fill-opacity:1;fill-rule:nonzero;stroke:none"
         d="m 1178.56,589.078 c 1.07,-1.801 1.81,-3.48 2.22,-5.047 0.41,-1.566 0.82,-4.644 1.23,-9.234 l 2.08,-22.879 c 1.89,2.23 4.63,5.766 8.22,10.602 1.73,2.355 3.87,5.566 6.42,9.628 1.55,2.481 2.49,4.215 2.84,5.207 0.19,0.497 0.28,1.008 0.28,1.536 0,0.339 -0.11,0.621 -0.33,0.836 -0.22,0.218 -0.79,0.472 -1.72,0.769 -0.93,0.293 -1.7,0.836 -2.32,1.629 -0.61,0.789 -0.92,1.695 -0.92,2.719 0,1.269 0.38,2.293 1.14,3.07 0.75,0.774 1.69,1.16 2.83,1.164 1.38,-0.004 2.57,-0.566 3.54,-1.699 0.98,-1.133 1.47,-2.691 1.47,-4.676 0,-2.449 -0.85,-5.246 -2.56,-8.394 -1.69,-3.145 -4.97,-7.977 -9.82,-14.485 -4.85,-6.511 -10.73,-13.613 -17.62,-21.301 -4.76,-5.304 -8.29,-8.644 -10.59,-10.023 -2.29,-1.379 -4.26,-2.07 -5.9,-2.07 -0.98,0 -1.84,0.363 -2.58,1.093 -0.74,0.727 -1.11,1.575 -1.11,2.536 0,1.207 0.52,2.308 1.54,3.3 1.02,0.993 2.13,1.489 3.33,1.489 0.63,0 1.15,-0.141 1.56,-0.418 0.25,-0.157 0.53,-0.598 0.83,-1.325 0.29,-0.73 0.57,-1.218 0.82,-1.464 0.16,-0.157 0.35,-0.235 0.57,-0.235 0.19,0 0.52,0.157 0.99,0.465 1.73,1.055 3.75,2.731 6.05,5.024 3.02,3.039 5.26,5.519 6.71,7.441 l -2.65,29.484 c -0.44,4.868 -1.1,7.828 -1.98,8.883 -0.88,1.055 -2.36,1.582 -4.44,1.582 -0.67,0 -1.85,-0.094 -3.55,-0.277 l -0.42,1.719 13.84,3.351" /><path
         id="path78"
         style="fill:#000000;fill-opacity:1;fill-rule:nonzero;stroke:none"
         d="m 1275,378.266 c 4.25,0 8.01,-0.907 11.29,-2.719 3.27,-1.817 5.84,-4.496 7.7,-8.047 1.86,-3.551 2.79,-7.234 2.79,-11.047 0,-6.758 -1.99,-13.851 -5.98,-21.277 -3.98,-7.426 -9.19,-13.09 -15.62,-17 -6.42,-3.906 -13.07,-5.86 -19.93,-5.86 -4.95,0 -9.08,1.079 -12.41,3.235 -3.32,2.152 -5.77,5 -7.36,8.535 -1.6,3.531 -2.39,6.957 -2.39,10.277 0,5.891 1.44,11.711 4.32,17.461 2.88,5.754 6.32,10.559 10.32,14.418 4,3.863 8.27,6.832 12.81,8.906 4.53,2.079 9.35,3.118 14.46,3.118 z m -1.61,-2.977 c -3.15,0 -6.23,-0.766 -9.24,-2.301 -3.01,-1.535 -5.99,-4.047 -8.95,-7.535 -2.96,-3.488 -5.62,-8.055 -7.99,-13.695 -2.89,-6.945 -4.34,-13.504 -4.34,-19.676 0,-4.402 1.15,-8.301 3.45,-11.695 2.3,-3.395 5.82,-5.094 10.58,-5.094 2.87,0 5.68,0.699 8.44,2.094 2.75,1.394 5.62,3.781 8.62,7.164 3.74,4.246 6.9,9.664 9.45,16.254 2.55,6.586 3.82,12.734 3.82,18.437 0,4.219 -1.15,7.946 -3.44,11.188 -2.31,3.238 -5.77,4.859 -10.4,4.859 v 0" /><path
         id="path80"
         style="fill:#000000;fill-opacity:1;fill-rule:nonzero;stroke:none"
         d="m 1632.01,578.277 c 1.89,4.457 4.28,7.903 7.16,10.328 2.88,2.422 6.47,3.637 10.76,3.637 5.31,0 9.38,-1.726 12.21,-5.176 2.15,-2.574 3.22,-5.324 3.22,-8.253 0,-4.817 -3.02,-9.797 -9.08,-14.942 4.07,-1.594 7.15,-3.871 9.23,-6.836 2.08,-2.961 3.12,-6.445 3.12,-10.449 0,-5.727 -1.82,-10.691 -5.47,-14.891 -4.75,-5.468 -11.63,-8.203 -20.65,-8.203 -4.46,0 -7.49,0.551 -9.1,1.66 -1.62,1.106 -2.42,2.293 -2.42,3.563 0,0.945 0.38,1.773 1.15,2.492 0.76,0.715 1.68,1.074 2.75,1.074 0.82,0 1.65,-0.133 2.49,-0.39 0.56,-0.164 1.81,-0.758 3.76,-1.782 1.96,-1.027 3.31,-1.636 4.06,-1.832 1.2,-0.359 2.49,-0.539 3.85,-0.539 3.33,0 6.21,1.285 8.67,3.86 2.46,2.57 3.69,5.613 3.69,9.129 0,2.574 -0.57,5.078 -1.71,7.519 -0.85,1.824 -1.77,3.207 -2.79,4.152 -1.39,1.301 -3.32,2.481 -5.76,3.54 -2.44,1.058 -4.93,1.585 -7.47,1.585 h -1.56 v 1.465 c 2.57,0.328 5.15,1.254 7.74,2.785 2.59,1.528 4.47,3.368 5.64,5.516 1.17,2.149 1.76,4.508 1.76,7.082 0,3.352 -1.05,6.063 -3.15,8.129 -2.1,2.066 -4.72,3.102 -7.84,3.102 -5.04,0 -9.26,-2.704 -12.64,-8.106 l -1.62,0.781" /><path
         id="path82"
         style="fill:#000000;fill-opacity:1;fill-rule:nonzero;stroke:none"
         d="m 1685.47,602.289 v 2.051 c 4.95,-2.442 9.07,-5.32 12.35,-8.641 4.66,-4.754 8.26,-10.328 10.8,-16.726 2.54,-6.395 3.81,-13.059 3.81,-19.993 0,-10.093 -2.49,-19.296 -7.45,-27.613 -4.96,-8.316 -11.47,-14.265 -19.51,-17.847 v 1.808 c 4.01,2.246 7.3,5.281 9.89,9.106 2.59,3.824 4.51,8.691 5.76,14.597 1.26,5.91 1.88,12.071 1.88,18.485 0,6.933 -0.54,13.261 -1.61,18.992 -0.81,4.492 -1.83,8.09 -3.05,10.793 -1.22,2.699 -2.84,5.304 -4.86,7.812 -2.02,2.504 -4.69,4.899 -8.01,7.176 v 0" /><g
         transform="scale(0.997185,-1.00282)"
         id="g84"><path
           id="path86"
           style="fill:none;stroke:#000000;stroke-width:3.50001001;stroke-linecap:butt;stroke-linejoin:miter;stroke-miterlimit:10;stroke-dasharray:none;stroke-opacity:1"
           d="m 1751,-594.471 0.16,590.03427 m 73.59,-590.03427 0.16,590.03427 m 73.58,-590.03427 0.17,590.03427 m 73.58,-590.03427 0.15,521.9603 0.02,68.07397 m 73.58,-590.03427 0.17,590.03427 m 73.58,-590.03427 0.17,590.03427 m 73.58,-590.03427 0.17,590.03427 m 73.58,-590.03427 0.16,590.03427 m 73.59,-590.03427 0.16,590.03427 M 1751,-594.471 l 589.88,-0.117 m -589.88,73.863 589.88,-0.113 m -589.88,73.862 589.88,-0.113 m -589.88,73.862 589.88,-0.113 m -589.88,73.863 589.88,-0.113 m -589.88,73.862 589.88,-0.113 m -589.88,73.863 589.88,-0.117 M 1751,-78.229 2340.88,-78.3458 M 1751,-4.47958 2340.88,-4.59643" /></g><g
         transform="scale(0.997185,-1.00282)"
         id="g88"><path
           id="path90"
           style="fill:none;stroke:#000000;stroke-width:7.50003004;stroke-linecap:butt;stroke-linejoin:miter;stroke-miterlimit:10;stroke-dasharray:none;stroke-opacity:1"
           d="m 2041.69,-7.45557 0.49,-583.52543" /></g><path
         id="path92"
         style="fill:#000000;fill-opacity:1;fill-rule:evenodd;stroke:none"
         d="m 2018.29,553.316 18.07,49.289 17.99,-49.32 c -10.64,7.887 -25.2,7.852 -36.06,0.031" /><g
         transform="scale(0.997185,-1.00282)"
         id="g94"><path
           id="path96"
           style="fill:none;stroke:#000000;stroke-width:7.50003004;stroke-linecap:butt;stroke-linejoin:miter;stroke-miterlimit:10;stroke-dasharray:none;stroke-opacity:1"
           d="m 1745.34,-297.276 583.82,0.483" /></g><path
         id="path98"
         style="fill:#000000;fill-opacity:1;fill-rule:evenodd;stroke:none"
         d="m 2283.49,315.863 49.01,-18.172 -49.04,-18.089 c 7.84,10.699 7.81,25.343 0.03,36.261" /><g
         transform="scale(0.997185,-1.00282)"
         id="g100"><path
           id="path102"
           style="fill:none;stroke:#000000;stroke-width:10;stroke-linecap:butt;stroke-linejoin:miter;stroke-miterlimit:10;stroke-dasharray:none;stroke-opacity:1"
           d="m 2115.93,-323.745 v 43.024" /></g><g
         transform="scale(0.997185,-1.00282)"
         id="g104"><path
           id="path106"
           style="fill:none;stroke:#000000;stroke-width:10;stroke-linecap:butt;stroke-linejoin:miter;stroke-miterlimit:10;stroke-dasharray:none;stroke-opacity:1"
           d="m 2063.88,-377.192 h -43.02" /></g><path
         id="path108"
         style="fill:#000000;fill-opacity:1;fill-rule:nonzero;stroke:none"
         d="m 1997.71,408.484 15.42,7.571 h 1.55 V 362.23 c 0,-3.574 0.14,-5.796 0.44,-6.675 0.3,-0.879 0.91,-1.551 1.85,-2.02 0.93,-0.472 2.83,-0.738 5.7,-0.801 v -1.738 h -23.84 v 1.738 c 2.99,0.063 4.92,0.321 5.8,0.778 0.87,0.453 1.48,1.062 1.82,1.832 0.34,0.765 0.51,3.062 0.51,6.886 v 34.411 c 0,4.636 -0.15,7.613 -0.46,8.929 -0.22,1.004 -0.62,1.739 -1.2,2.211 -0.57,0.469 -1.26,0.703 -2.08,0.703 -1.15,0 -2.76,-0.484 -4.81,-1.457 l -0.7,1.457" /><path
         id="path110"
         style="fill:#000000;fill-opacity:1;fill-rule:nonzero;stroke:none"
         d="m 2115.07,267.156 15.43,7.567 h 1.54 v -53.821 c 0,-3.574 0.15,-5.8 0.45,-6.675 0.29,-0.879 0.91,-1.551 1.84,-2.024 0.94,-0.469 2.84,-0.734 5.71,-0.797 v -1.742 h -23.84 v 1.742 c 2.99,0.063 4.92,0.321 5.79,0.774 0.88,0.457 1.48,1.066 1.83,1.836 0.34,0.765 0.51,3.062 0.51,6.886 v 34.407 c 0,4.64 -0.15,7.617 -0.47,8.933 -0.22,1 -0.61,1.738 -1.19,2.207 -0.58,0.473 -1.27,0.707 -2.08,0.707 -1.15,0 -2.76,-0.488 -4.81,-1.457 l -0.71,1.457" /><path
         id="path112"
         style="fill:#000000;fill-opacity:1;fill-rule:nonzero;stroke:none"
         d="m 2306,275.773 c 1.53,-1.628 2.68,-3.261 3.46,-4.89 0.56,-1.129 1.48,-4.09 2.75,-8.883 l 4.12,6.203 c 1.09,1.504 2.42,2.938 3.97,4.301 1.56,1.363 2.93,2.297 4.11,2.797 0.75,0.316 1.58,0.472 2.48,0.472 1.34,0 2.41,-0.359 3.2,-1.082 0.8,-0.718 1.2,-1.597 1.2,-2.632 0,-1.192 -0.24,-2.004 -0.7,-2.446 -0.88,-0.781 -1.88,-1.172 -3,-1.172 -0.65,0 -1.35,0.141 -2.1,0.422 -1.46,0.5 -2.45,0.75 -2.94,0.75 -0.75,0 -1.64,-0.437 -2.67,-1.316 -1.93,-1.629 -4.24,-4.777 -6.92,-9.445 l 3.84,-16.172 c 0.59,-2.477 1.09,-3.957 1.49,-4.442 0.41,-0.488 0.81,-0.73 1.22,-0.73 0.65,0 1.42,0.363 2.29,1.082 1.71,1.441 3.18,3.32 4.39,5.64 l 1.64,-0.847 c -1.97,-3.695 -4.46,-6.766 -7.48,-9.211 -1.71,-1.379 -3.16,-2.07 -4.35,-2.07 -1.74,0 -3.13,0.988 -4.16,2.964 -0.65,1.219 -2.01,6.485 -4.07,15.793 -4.86,-8.492 -8.75,-13.961 -11.68,-16.406 -1.9,-1.566 -3.74,-2.351 -5.52,-2.351 -1.24,0 -2.38,0.457 -3.41,1.363 -0.75,0.691 -1.12,1.617 -1.12,2.773 0,1.035 0.34,1.899 1.03,2.586 0.68,0.692 1.52,1.035 2.52,1.035 1,0 2.06,-0.5 3.18,-1.504 0.81,-0.722 1.43,-1.082 1.87,-1.082 0.38,0 0.86,0.25 1.45,0.754 1.46,1.188 3.46,3.758 5.98,7.707 2.53,3.95 4.18,6.801 4.96,8.555 -1.94,7.617 -2.98,11.645 -3.14,12.082 -0.71,2.039 -1.65,3.481 -2.8,4.324 -1.15,0.848 -2.85,1.27 -5.09,1.27 -0.72,0 -1.55,-0.031 -2.48,-0.094 v 1.692 l 12.48,2.21" /><path
         id="path114"
         style="fill:#000000;fill-opacity:1;fill-rule:nonzero;stroke:none"
         d="m 1991.46,593.527 c 1.06,-1.816 1.79,-3.515 2.2,-5.101 0.4,-1.582 0.81,-4.692 1.21,-9.328 l 2.06,-23.129 c 1.87,2.258 4.58,5.828 8.13,10.719 1.72,2.382 3.83,5.625 6.36,9.73 1.53,2.508 2.46,4.262 2.8,5.266 0.19,0.5 0.28,1.015 0.28,1.55 0,0.344 -0.11,0.625 -0.32,0.844 -0.22,0.219 -0.79,0.481 -1.71,0.777 -0.92,0.297 -1.68,0.844 -2.29,1.645 -0.61,0.801 -0.91,1.715 -0.91,2.75 0,1.285 0.37,2.32 1.12,3.102 0.75,0.785 1.68,1.175 2.81,1.175 1.37,0 2.53,-0.57 3.5,-1.714 0.97,-1.145 1.45,-2.719 1.45,-4.727 0,-2.473 -0.84,-5.301 -2.52,-8.484 -1.68,-3.18 -4.93,-8.059 -9.73,-14.641 -4.79,-6.582 -10.61,-13.758 -17.43,-21.531 -4.71,-5.356 -8.2,-8.735 -10.47,-10.129 -2.28,-1.395 -4.22,-2.09 -5.84,-2.09 -0.97,0 -1.82,0.367 -2.55,1.102 -0.73,0.738 -1.1,1.593 -1.1,2.562 0,1.223 0.51,2.336 1.52,3.34 1.01,1 2.11,1.504 3.29,1.504 0.63,0 1.14,-0.141 1.55,-0.426 0.25,-0.156 0.52,-0.602 0.81,-1.34 0.3,-0.734 0.57,-1.226 0.82,-1.48 0.16,-0.157 0.34,-0.235 0.56,-0.235 0.19,0 0.52,0.157 0.98,0.473 1.72,1.062 3.71,2.754 5.99,5.074 2.99,3.07 5.2,5.578 6.63,7.524 l -2.61,29.8 c -0.44,4.922 -1.09,7.914 -1.96,8.977 -0.88,1.066 -2.34,1.602 -4.4,1.602 -0.65,0 -1.82,-0.094 -3.51,-0.286 l -0.41,1.743 13.69,3.382" /><path
         id="path116"
         style="fill:#000000;fill-opacity:1;fill-rule:nonzero;stroke:none"
         d="m 2089.13,370.219 c 4.21,0 7.93,-0.914 11.17,-2.75 3.25,-1.832 5.79,-4.543 7.63,-8.129 1.83,-3.59 2.75,-7.313 2.75,-11.164 0,-6.832 -1.97,-14.004 -5.91,-21.508 -3.94,-7.504 -9.09,-13.23 -15.45,-17.18 -6.36,-3.949 -12.93,-5.925 -19.73,-5.925 -4.89,0 -8.98,1.089 -12.27,3.269 -3.28,2.176 -5.71,5.051 -7.29,8.625 -1.57,3.574 -2.36,7.035 -2.36,10.387 0,5.957 1.43,11.84 4.28,17.652 2.85,5.813 6.25,10.672 10.21,14.574 3.96,3.899 8.18,6.903 12.67,9 4.49,2.102 9.26,3.149 14.3,3.149 z m -1.59,-3.008 c -3.11,0 -6.16,-0.773 -9.13,-2.324 -2.98,-1.555 -5.93,-4.09 -8.86,-7.617 -2.93,-3.524 -5.57,-8.141 -7.9,-13.844 -2.87,-7.02 -4.3,-13.649 -4.3,-19.883 0,-4.449 1.13,-8.391 3.41,-11.824 2.28,-3.43 5.76,-5.145 10.47,-5.145 2.84,0 5.62,0.703 8.34,2.114 2.73,1.41 5.57,3.824 8.54,7.238 3.7,4.293 6.82,9.769 9.34,16.429 2.53,6.661 3.79,12.872 3.79,18.641 0,4.262 -1.14,8.027 -3.41,11.305 -2.28,3.273 -5.7,4.91 -10.29,4.91 v 0" /><path
         id="path118"
         style="fill:#000000;fill-opacity:1;fill-rule:nonzero;stroke:none"
         d="m 2481.29,532.355 v -6.933 h -8.89 v -17.481 h -8.05 v 17.481 h -28.03 v 6.25 l 30.71,43.848 h 5.37 v -43.165 z m -16.94,0 v 32.86 l -23.24,-32.86 z" /><path
         id="path120"
         style="fill:#000000;fill-opacity:1;fill-rule:nonzero;stroke:none"
         d="m 2493.29,585.566 v 2.051 c 4.95,-2.441 9.07,-5.32 12.36,-8.64 4.65,-4.754 8.25,-10.329 10.79,-16.727 2.54,-6.395 3.81,-13.059 3.81,-19.992 0,-10.094 -2.48,-19.297 -7.45,-27.613 -4.96,-8.317 -11.46,-14.266 -19.51,-17.848 v 1.808 c 4.01,2.247 7.3,5.282 9.89,9.106 2.59,3.824 4.51,8.691 5.77,14.598 1.25,5.91 1.87,12.07 1.87,18.484 0,6.934 -0.53,13.262 -1.61,18.992 -0.81,4.492 -1.83,8.09 -3.05,10.793 -1.22,2.699 -2.84,5.305 -4.86,7.813 -2.01,2.504 -4.69,4.898 -8.01,7.175 v 0" /><g
         transform="scale(1.00035,-0.999652)"
         id="g122"><path
           id="path124"
           style="fill:none;stroke:#000000;stroke-width:3.5;stroke-linecap:butt;stroke-linejoin:miter;stroke-miterlimit:10;stroke-dasharray:none;stroke-opacity:1"
           d="m 2569.28,-592.546 0.17,588.16557 m 73.35,-588.16557 0.16,588.16557 m 73.35,-588.16557 0.17,588.16557 m 73.35,-588.16557 0.14,520.3099 0.02,67.85567 m 73.35,-588.16557 0.17,588.16557 m 73.35,-588.16557 0.16,588.16557 m 73.36,-588.16557 0.16,588.16557 m 73.35,-588.16557 0.17,588.16557 m 73.35,-588.16557 0.16,588.16557 m -588.29,-588.16557 588.01,-0.117 m -588.01,73.631 588.01,-0.113 m -588.01,73.631 588.01,-0.118 m -588.01,73.631 588.01,-0.113 m -588.01,73.631 588.01,-0.117 m -588.01,73.631 588.01,-0.113 m -588.01,73.631 588.01,-0.117 m -588.01,73.6307 588.01,-0.1133 m -588.01,73.63109 588.01,-0.11722" /></g><g
         transform="scale(1.00035,-0.999652)"
         id="g126"><path
           id="path128"
           style="fill:none;stroke:#000000;stroke-width:7.5;stroke-linecap:butt;stroke-linejoin:miter;stroke-miterlimit:10;stroke-dasharray:none;stroke-opacity:1"
           d="m 2859.06,-7.38538 0.48,-581.68262" /></g><path
         id="path130"
         style="fill:#000000;fill-opacity:1;fill-rule:evenodd;stroke:none"
         d="m 2842.34,549.656 18.13,49.137 18.05,-49.164 c -10.68,7.859 -25.29,7.824 -36.18,0.027" /><g
         transform="scale(1.00035,-0.999652)"
         id="g132"><path
           id="path134"
           style="fill:none;stroke:#000000;stroke-width:7.5;stroke-linecap:butt;stroke-linejoin:miter;stroke-miterlimit:10;stroke-dasharray:none;stroke-opacity:1"
           d="m 2563.64,-296.291 581.97,0.481" /></g><path
         id="path136"
         style="fill:#000000;fill-opacity:1;fill-rule:evenodd;stroke:none"
         d="m 3107.47,313.883 49.17,-18.113 -49.2,-18.032 c 7.87,10.664 7.84,25.262 0.03,36.145" /><g
         transform="scale(1.00035,-0.999652)"
         id="g138"><path
           id="path140"
           style="fill:none;stroke:#000000;stroke-width:10;stroke-linecap:butt;stroke-linejoin:miter;stroke-miterlimit:10;stroke-dasharray:none;stroke-opacity:1"
           d="m 2933.06,-322.675 v 42.886" /></g><g
         transform="scale(1.00035,-0.999652)"
         id="g142"><path
           id="path144"
           style="fill:none;stroke:#000000;stroke-width:10;stroke-linecap:butt;stroke-linejoin:miter;stroke-miterlimit:10;stroke-dasharray:none;stroke-opacity:1"
           d="m 2881.17,-375.955 h -42.88" /></g><path
         id="path146"
         style="fill:#000000;fill-opacity:1;fill-rule:nonzero;stroke:none"
         d="m 2804.1,404.555 15.47,7.543 h 1.55 v -53.653 c 0,-3.562 0.15,-5.781 0.44,-6.656 0.3,-0.875 0.92,-1.547 1.85,-2.016 0.95,-0.468 2.85,-0.73 5.73,-0.796 v -1.731 h -23.92 v 1.731 c 3,0.066 4.94,0.32 5.82,0.773 0.87,0.453 1.48,1.063 1.83,1.828 0.34,0.766 0.51,3.055 0.51,6.867 v 34.301 c 0,4.621 -0.16,7.59 -0.47,8.902 -0.22,1 -0.62,1.735 -1.2,2.204 -0.57,0.468 -1.27,0.703 -2.08,0.703 -1.16,0 -2.77,-0.485 -4.83,-1.453 l -0.7,1.453" /><path
         id="path148"
         style="fill:#000000;fill-opacity:1;fill-rule:nonzero;stroke:none"
         d="m 2949.5,268.668 15.48,7.543 h 1.54 v -53.652 c 0,-3.559 0.15,-5.778 0.45,-6.653 0.3,-0.875 0.91,-1.547 1.85,-2.015 0.94,-0.469 2.85,-0.735 5.72,-0.797 v -1.735 h -23.91 v 1.735 c 3,0.062 4.94,0.32 5.81,0.773 0.88,0.453 1.49,1.063 1.83,1.828 0.35,0.766 0.52,3.055 0.52,6.864 v 34.3 c 0,4.625 -0.16,7.594 -0.47,8.903 -0.22,1 -0.62,1.734 -1.2,2.203 -0.58,0.469 -1.27,0.703 -2.08,0.703 -1.16,0 -2.77,-0.484 -4.83,-1.453 l -0.71,1.453" /><path
         id="path150"
         style="fill:#000000;fill-opacity:1;fill-rule:nonzero;stroke:none"
         d="m 3120.66,269.383 c 1.53,-1.625 2.69,-3.25 3.47,-4.875 0.56,-1.125 1.48,-4.078 2.76,-8.856 l 4.13,6.184 c 1.1,1.5 2.43,2.93 3.99,4.289 1.56,1.359 2.94,2.289 4.13,2.789 0.75,0.313 1.57,0.469 2.48,0.469 1.34,0 2.42,-0.36 3.21,-1.078 0.8,-0.719 1.2,-1.594 1.2,-2.625 0,-1.188 -0.24,-2 -0.71,-2.438 -0.87,-0.781 -1.87,-1.172 -3,-1.172 -0.65,0 -1.36,0.141 -2.11,0.422 -1.47,0.5 -2.45,0.75 -2.95,0.75 -0.75,0 -1.64,-0.437 -2.67,-1.312 -1.94,-1.625 -4.25,-4.762 -6.95,-9.418 l 3.85,-16.121 c 0.6,-2.465 1.1,-3.942 1.5,-4.426 0.41,-0.485 0.81,-0.727 1.22,-0.727 0.66,0 1.42,0.36 2.3,1.078 1.72,1.438 3.19,3.313 4.41,5.622 l 1.64,-0.844 c -1.97,-3.684 -4.47,-6.746 -7.51,-9.184 -1.71,-1.375 -3.17,-2.062 -4.35,-2.062 -1.75,0 -3.15,0.984 -4.18,2.953 -0.66,1.219 -2.02,6.469 -4.08,15.746 -4.87,-8.469 -8.78,-13.918 -11.72,-16.356 -1.91,-1.562 -3.75,-2.343 -5.53,-2.343 -1.26,0 -2.4,0.453 -3.43,1.359 -0.75,0.688 -1.12,1.609 -1.12,2.766 0,1.031 0.34,1.89 1.03,2.578 0.69,0.687 1.53,1.031 2.53,1.031 1,0 2.07,-0.5 3.19,-1.5 0.81,-0.719 1.44,-1.078 1.88,-1.078 0.37,0 0.86,0.25 1.45,0.75 1.47,1.187 3.47,3.75 6,7.684 2.53,3.937 4.19,6.781 4.97,8.527 -1.94,7.594 -2.98,11.605 -3.14,12.043 -0.72,2.031 -1.66,3.469 -2.82,4.312 -1.15,0.844 -2.85,1.266 -5.1,1.266 -0.72,0 -1.55,-0.031 -2.49,-0.094 v 1.688 l 12.52,2.203" /><path
         id="path152"
         style="fill:#000000;fill-opacity:1;fill-rule:nonzero;stroke:none"
         d="m 2812.59,580.809 c 1.07,-1.813 1.8,-3.508 2.21,-5.086 0.4,-1.578 0.81,-4.676 1.22,-9.301 l 2.06,-23.055 c 1.88,2.25 4.6,5.813 8.16,10.684 1.72,2.375 3.85,5.609 6.38,9.699 1.53,2.5 2.47,4.25 2.81,5.25 0.19,0.5 0.28,1.016 0.28,1.547 0,0.344 -0.11,0.625 -0.33,0.844 -0.22,0.218 -0.79,0.472 -1.71,0.769 -0.92,0.297 -1.69,0.844 -2.29,1.641 -0.61,0.797 -0.92,1.711 -0.92,2.742 0,1.281 0.38,2.312 1.13,3.094 0.75,0.781 1.68,1.172 2.81,1.172 1.37,0 2.55,-0.571 3.51,-1.711 0.98,-1.141 1.46,-2.711 1.46,-4.711 0,-2.469 -0.84,-5.285 -2.53,-8.457 -1.69,-3.172 -4.94,-8.035 -9.75,-14.598 -4.82,-6.559 -10.65,-13.711 -17.5,-21.461 -4.71,-5.34 -8.22,-8.707 -10.5,-10.098 -2.28,-1.39 -4.23,-2.085 -5.86,-2.085 -0.97,0 -1.82,0.367 -2.56,1.101 -0.73,0.734 -1.1,1.586 -1.1,2.555 0,1.219 0.51,2.328 1.52,3.328 1.02,1 2.12,1.5 3.31,1.5 0.63,0 1.14,-0.141 1.55,-0.422 0.25,-0.156 0.52,-0.602 0.82,-1.336 0.3,-0.734 0.57,-1.226 0.82,-1.476 0.16,-0.157 0.34,-0.235 0.56,-0.235 0.19,0 0.52,0.156 0.99,0.469 1.72,1.062 3.72,2.75 6,5.058 3,3.063 5.22,5.563 6.66,7.5 l -2.63,29.708 c -0.44,4.906 -1.09,7.886 -1.97,8.949 -0.87,1.062 -2.34,1.593 -4.41,1.593 -0.65,0 -1.83,-0.093 -3.51,-0.281 l -0.42,1.735 13.73,3.375" /><path
         id="path154"
         style="fill:#000000;fill-opacity:1;fill-rule:nonzero;stroke:none"
         d="m 2831.92,290.629 c 4.22,0 7.96,-0.914 11.21,-2.738 3.25,-1.828 5.8,-4.532 7.64,-8.11 1.84,-3.574 2.77,-7.285 2.77,-11.129 0,-6.808 -1.98,-13.953 -5.94,-21.437 -3.95,-7.481 -9.12,-13.192 -15.49,-17.125 -6.38,-3.938 -12.98,-5.906 -19.79,-5.906 -4.91,0 -9.02,1.086 -12.31,3.257 -3.3,2.172 -5.74,5.039 -7.31,8.598 -1.59,3.563 -2.38,7.016 -2.38,10.356 0,5.937 1.43,11.8 4.3,17.597 2.86,5.793 6.27,10.637 10.24,14.524 3.97,3.89 8.21,6.882 12.71,8.976 4.5,2.09 9.29,3.137 14.35,3.137 z m -1.6,-2.996 c -3.12,0 -6.18,-0.774 -9.16,-2.32 -2.99,-1.547 -5.95,-4.079 -8.89,-7.59 -2.94,-3.516 -5.58,-8.118 -7.92,-13.801 -2.88,-7 -4.32,-13.606 -4.32,-19.82 0,-4.438 1.14,-8.368 3.43,-11.786 2.28,-3.421 5.78,-5.132 10.5,-5.132 2.84,0 5.63,0.703 8.37,2.109 2.73,1.406 5.59,3.809 8.56,7.215 3.72,4.281 6.84,9.738 9.38,16.379 2.53,6.636 3.79,12.832 3.79,18.578 0,4.25 -1.14,8.004 -3.42,11.269 -2.28,3.266 -5.72,4.899 -10.32,4.899 v 0" /><path
         id="path156"
         style="fill:none;stroke:#000000;stroke-width:10;stroke-linecap:butt;stroke-linejoin:miter;stroke-miterlimit:10;stroke-dasharray:none;stroke-opacity:1"
         d="m 1296.63,597.82 c -0.18,-0.496 -0.35,-0.988 -0.52,-1.48 -0.17,-0.492 -0.34,-0.988 -0.51,-1.481 -0.17,-0.492 -0.34,-0.988 -0.51,-1.48 -0.17,-0.492 -0.34,-0.984 -0.52,-1.481 -0.16,-0.492 -0.34,-0.984 -0.51,-1.476 -0.17,-0.496 -0.34,-0.988 -0.51,-1.481 -0.17,-0.496 -0.34,-0.988 -0.51,-1.48 -0.17,-0.492 -0.34,-0.988 -0.51,-1.481 -0.17,-0.492 -0.35,-0.988 -0.51,-1.48 -0.18,-0.492 -0.35,-0.988 -0.52,-1.48 -0.17,-0.493 -0.34,-0.985 -0.51,-1.481 -0.17,-0.492 -0.34,-0.984 -0.51,-1.476 -0.18,-0.497 -0.34,-0.989 -0.52,-1.481 -0.17,-0.496 -0.33,-0.988 -0.51,-1.48 -0.17,-0.493 -0.34,-0.989 -0.51,-1.481 -0.17,-0.492 -0.34,-0.988 -0.51,-1.48 -0.17,-0.493 -0.34,-0.985 -0.51,-1.481 -0.17,-0.492 -0.35,-0.984 -0.52,-1.48 -0.17,-0.492 -0.34,-0.985 -0.51,-1.477 -0.17,-0.496 -0.34,-0.988 -0.51,-1.48 -0.17,-0.496 -0.34,-0.989 -0.51,-1.481 -0.17,-0.492 -0.34,-0.988 -0.51,-1.48 -0.18,-0.492 -0.35,-0.989 -0.52,-1.481 -0.17,-0.492 -0.34,-0.984 -0.51,-1.48 -0.17,-0.492 -0.34,-0.985 -0.51,-1.481 -0.17,-0.492 -0.34,-0.984 -0.52,-1.476 -0.16,-0.496 -0.34,-0.989 -0.51,-1.481 -0.17,-0.496 -0.34,-0.988 -0.51,-1.48 -0.17,-0.492 -0.34,-0.988 -0.51,-1.481 -0.17,-0.492 -0.34,-0.988 -0.51,-1.48 -0.17,-0.492 -0.35,-0.984 -0.51,-1.481 -0.18,-0.492 -0.35,-0.984 -0.52,-1.48 -0.17,-0.492 -0.34,-0.984 -0.51,-1.477 -0.17,-0.496 -0.34,-0.988 -0.51,-1.48 -0.17,-0.496 -0.34,-0.988 -0.51,-1.481 -0.18,-0.492 -0.34,-0.988 -0.52,-1.48 -0.17,-0.492 -0.34,-0.984 -0.51,-1.48 -0.17,-0.493 -0.34,-0.985 -0.51,-1.481 -0.17,-0.492 -0.34,-0.984 -0.52,-1.477 -0.16,-0.496 -0.34,-0.988 -0.5,-1.48 -0.18,-0.496 -0.35,-0.988 -0.52,-1.48 -0.17,-0.497 -0.34,-0.989 -0.51,-1.481 -0.17,-0.492 -0.34,-0.988 -0.51,-1.48 -0.17,-0.493 -0.34,-0.985 -0.51,-1.481 -0.18,-0.492 -0.35,-0.984 -0.52,-1.48 -0.17,-0.493 -0.34,-0.985 -0.51,-1.481 -0.17,-0.492 -0.34,-0.984 -0.51,-1.476 -0.17,-0.496 -0.34,-0.989 -0.51,-1.481 -0.18,-0.492 -0.34,-0.988 -0.52,-1.48 -0.17,-0.492 -0.34,-0.989 -0.51,-1.481 -0.17,-0.492 -0.34,-0.984 -0.51,-1.48 -0.17,-0.492 -0.34,-0.985 -0.51,-1.481 -0.17,-0.492 -0.35,-0.984 -0.51,-1.476 -0.18,-0.496 -0.35,-0.989 -0.52,-1.481 -0.17,-0.496 -0.34,-0.988 -0.51,-1.48 -0.17,-0.492 -0.34,-0.988 -0.51,-1.481 -0.17,-0.492 -0.34,-0.988 -0.51,-1.48 -0.18,-0.492 -0.35,-0.985 -0.52,-1.481 -0.17,-0.492 -0.34,-0.984 -0.51,-1.48 -0.17,-0.492 -0.34,-0.984 -0.51,-1.477 -0.17,-0.496 -0.34,-0.988 -0.51,-1.48 -0.17,-0.496 -0.34,-0.988 -0.52,-1.481 -0.16,-0.492 -0.34,-0.988 -0.51,-1.48 -0.17,-0.492 -0.34,-0.988 -0.51,-1.481 -0.17,-0.492 -0.34,-0.984 -0.51,-1.48 -0.17,-0.492 -0.34,-0.984 -0.51,-1.48 -0.18,-0.493 -0.34,-0.985 -0.52,-1.477 -0.17,-0.496 -0.34,-0.988 -0.51,-1.48 -0.17,-0.497 -0.34,-0.989 -0.51,-1.481 -0.17,-0.492 -0.34,-0.988 -0.51,-1.48 -0.17,-0.493 -0.34,-0.989 -0.52,-1.481 -0.16,-0.492 -0.34,-0.984 -0.51,-1.48 -0.17,-0.493 -0.34,-0.985 -0.51,-1.481 -0.17,-0.492 -0.34,-0.984 -0.51,-1.476 -0.17,-0.496 -0.34,-0.989 -0.51,-1.481 -0.17,-0.496 -0.35,-0.988 -0.51,-1.48 -0.18,-0.493 -0.35,-0.989 -0.52,-1.481 -0.17,-0.492 -0.34,-0.988 -0.51,-1.48 -0.17,-0.492 -0.34,-0.985 -0.51,-1.481 -0.18,-0.492 -0.34,-0.984 -0.52,-1.48 -0.17,-0.492 -0.34,-0.985 -0.51,-1.477 -0.17,-0.496 -0.34,-0.988 -0.51,-1.48 -0.17,-0.496 -0.34,-0.989 -0.51,-1.481 -0.17,-0.492 -0.34,-0.988 -0.51,-1.48 -0.17,-0.492 -0.35,-0.985 -0.52,-1.481 -0.17,-0.492 -0.34,-0.984 -0.51,-1.48 -0.17,-0.492 -0.34,-0.984 -0.51,-1.477 -0.17,-0.496 -0.34,-0.988 -0.51,-1.48 -0.17,-0.496 -0.34,-0.988 -0.51,-1.481 -0.18,-0.492 -0.35,-0.988 -0.52,-1.48 -0.17,-0.492 -0.34,-0.988 -0.51,-1.481 -0.17,-0.492 -0.34,-0.984 -0.51,-1.48 -0.17,-0.492 -0.34,-0.984 -0.52,-1.48 -0.16,-0.493 -0.34,-0.985 -0.51,-1.477 -0.17,-0.496 -0.34,-0.988 -0.51,-1.481 -0.17,-0.496 -0.34,-0.988 -0.51,-1.48 -0.17,-0.492 -0.34,-0.988 -0.51,-1.48 -0.17,-0.493 -0.35,-0.989 -0.51,-1.481 -0.18,-0.492 -0.35,-0.984 -0.52,-1.48 -0.17,-0.493 -0.34,-0.985 -0.51,-1.481 -0.17,-0.492 -0.34,-0.984 -0.51,-1.476 -0.18,-0.497 -0.34,-0.989 -0.51,-1.481 -0.18,-0.496 -0.34,-0.988 -0.52,-1.48 -0.17,-0.493 -0.34,-0.989 -0.51,-1.481 -0.17,-0.492 -0.34,-0.988 -0.51,-1.48 -0.17,-0.492 -0.34,-0.985 -0.51,-1.481 -0.17,-0.492 -0.35,-0.984 -0.51,-1.48 -0.18,-0.492 -0.35,-0.985 -0.52,-1.477 -0.17,-0.496 -0.34,-0.988 -0.51,-1.48 -0.17,-0.496 -0.34,-0.989 -0.51,-1.481 -0.17,-0.492 -0.34,-0.988 -0.51,-1.48 -0.18,-0.492 -0.34,-0.988 -0.52,-1.481 -0.17,-0.492 -0.34,-0.984 -0.51,-1.48 -0.17,-0.492 -0.34,-0.985 -0.51,-1.481 -0.17,-0.492 -0.34,-0.984 -0.52,-1.476 -0.17,-0.496 -0.33,-0.988 -0.51,-1.481 -0.16,-0.496 -0.34,-0.988 -0.51,-1.48 -0.17,-0.492 -0.34,-0.988 -0.51,-1.481 -0.17,-0.492 -0.34,-0.984 -0.51,-1.48 -0.17,-0.492 -0.34,-0.984 -0.51,-1.481 -0.18,-0.492 -0.35,-0.984 -0.52,-1.48 -0.17,-0.492 -0.34,-0.984 -0.51,-1.477 -0.17,-0.496 -0.34,-0.988 -0.51,-1.48 -0.17,-0.492 -0.34,-0.988 -0.51,-1.48 -0.18,-0.493 -0.34,-0.989 -0.52,-1.481 -0.17,-0.492 -0.34,-0.988 -0.51,-1.48 -0.17,-0.493 -0.34,-0.985 -0.51,-1.481 -0.17,-0.492 -0.34,-0.984 -0.51,-1.476 -0.17,-0.497 -0.35,-0.989 -0.52,-1.481 -0.16,-0.496 -0.34,-0.988 -0.51,-1.48 -0.17,-0.496 -0.34,-0.989 -0.51,-1.481 -0.17,-0.492 -0.34,-0.988 -0.51,-1.48 -0.17,-0.493 -0.34,-0.985 -0.51,-1.481 -0.18,-0.492 -0.35,-0.984 -0.52,-1.48 -0.17,-0.492 -0.34,-0.985 -0.51,-1.481 -0.17,-0.492 -0.34,-0.984 -0.51,-1.476 -0.17,-0.496 -0.34,-0.989 -0.51,-1.481 -0.17,-0.492 -0.34,-0.988 -0.52,-1.48 -0.16,-0.492 -0.34,-0.989 -0.51,-1.481 -0.17,-0.492 -0.34,-0.988 -0.51,-1.48 -0.17,-0.492 -0.34,-0.985 -0.51,-1.481 -0.17,-0.492 -0.35,-0.984 -0.51,-1.476 -0.18,-0.496 -0.35,-0.988 -0.52,-1.481 -0.17,-0.496 -0.34,-0.988 -0.51,-1.48 -0.17,-0.492 -0.34,-0.988 -0.51,-1.481 -0.17,-0.492 -0.34,-0.988 -0.51,-1.48 -0.18,-0.492 -0.34,-0.984 -0.52,-1.481 -0.17,-0.492 -0.34,-0.984 -0.51,-1.48 -0.17,-0.492 -0.34,-0.984 -0.51,-1.477 -0.17,-0.496 -0.34,-0.988 -0.51,-1.48 -0.17,-0.496 -0.34,-0.988 -0.52,-1.481 -0.16,-0.492 -0.34,-0.988 -0.51,-1.48 -0.17,-0.492 -0.34,-0.988 -0.51,-1.48 -0.17,-0.493 -0.34,-0.985 -0.51,-1.481 -0.17,-0.492 -0.34,-0.984 -0.51,-1.476 -0.18,-0.497 -0.34,-0.989 -0.52,-1.481 -0.17,-0.496 -0.34,-0.988 -0.51,-1.48 -0.17,-0.497 -0.34,-0.989 -0.51,-1.481 -0.17,-0.492 -0.34,-0.988 -0.51,-1.48 -0.17,-0.493 -0.34,-0.985 -0.52,-1.481 -0.16,-0.492 -0.34,-0.984 -0.51,-1.48 -0.17,-0.492 -0.34,-0.985 -0.51,-1.477 -0.17,-0.496 -0.34,-0.988 -0.51,-1.48 -0.17,-0.496 -0.34,-0.989 -0.51,-1.481 -0.17,-0.496 -0.35,-0.988 -0.51,-1.48 -0.18,-0.492 -0.35,-0.989 -0.52,-1.481 -0.17,-0.492 -0.34,-0.988 -0.51,-1.48 -0.17,-0.492 -0.34,-0.985 -0.51,-1.481 -0.18,-0.492 -0.34,-0.984 -0.52,-1.48 -0.17,-0.492 -0.34,-0.985 -0.51,-1.477 -0.17,-0.496 -0.34,-0.988 -0.51,-1.48 -0.17,-0.492 -0.34,-0.988 -0.51,-1.481 -0.17,-0.492 -0.34,-0.988 -0.51,-1.48 -0.17,-0.492 -0.35,-0.984 -0.52,-1.481 -0.17,-0.492 -0.34,-0.984 -0.51,-1.48 -0.17,-0.492 -0.34,-0.984 -0.51,-1.477 -0.17,-0.496 -0.34,-0.988 -0.51,-1.48 -0.17,-0.496 -0.34,-0.988 -0.51,-1.481 -0.18,-0.492 -0.35,-0.988 -0.52,-1.48 -0.17,-0.492 -0.34,-0.988 -0.51,-1.48 -0.17,-0.493 -0.34,-0.985 -0.51,-1.481 -0.17,-0.492 -0.34,-0.984 -0.52,-1.48 -0.16,-0.493 -0.34,-0.985 -0.51,-1.477 -0.17,-0.496 -0.34,-0.988 -0.51,-1.48 -0.17,-0.497 -0.34,-0.989 -0.51,-1.481 -0.17,-0.492 -0.34,-0.988 -0.51,-1.48 -0.17,-0.493 -0.34,-0.989 -0.52,-1.481 -0.17,-0.492 -0.34,-0.984 -0.51,-1.48 -0.17,-0.493 -0.34,-0.985 -0.51,-1.481 -0.17,-0.492 -0.34,-0.984 -0.51,-1.476 -0.17,-0.496 -0.34,-0.989 -0.51,-1.481 -0.17,-0.496 -0.34,-0.988 -0.52,-1.48 -0.17,-0.492 -0.34,-0.989 -0.51,-1.481 -0.17,-0.492 -0.34,-0.988 -0.51,-1.48 -0.17,-0.492 -0.34,-0.985 -0.51,-1.481 -0.17,-0.492 -0.35,-0.984 -0.52,-1.48 -0.17,-0.492 -0.34,-0.985 -0.51,-1.477 -0.17,-0.496 -0.34,-0.988 -0.51,-1.48 -0.17,-0.496 -0.34,-0.988 -0.51,-1.481 -0.17,-0.492 -0.34,-0.988 -0.51,-1.48 -0.18,-0.492 -0.35,-0.985 -0.52,-1.481 -0.17,-0.492 -0.34,-0.984 -0.51,-1.48 -0.17,-0.492 -0.34,-0.984 -0.51,-1.481 -0.17,-0.492 -0.34,-0.984 -0.51,-1.476 -0.17,-0.496 -0.34,-0.988 -0.52,-1.481 -0.17,-0.496 -0.34,-0.988 -0.51,-1.48 -0.17,-0.492 -0.34,-0.988 -0.51,-1.481 -0.17,-0.492 -0.34,-0.984 -0.51,-1.48 -0.17,-0.492 -0.35,-0.984 -0.51,-1.48 -0.18,-0.493 -0.35,-0.985 -0.52,-1.481 -0.17,-0.492 -0.34,-0.984 -0.51,-1.476 -0.17,-0.497 -0.34,-0.989 -0.51,-1.481 -0.17,-0.496 -0.34,-0.988 -0.51,-1.48 -0.18,-0.493 -0.34,-0.989 -0.52,-1.481 -0.17,-0.492 -0.34,-0.984 -0.51,-1.48 -0.17,-0.493 -0.34,-0.985 -0.51,-1.481 -0.17,-0.492 -0.34,-0.984 -0.51,-1.476 -0.17,-0.496 -0.34,-0.989 -0.51,-1.481 -0.17,-0.496 -0.35,-0.988 -0.52,-1.48 -0.17,-0.496 -0.34,-0.989 -0.51,-1.481 -0.17,-0.492 -0.34,-0.988 -0.51,-1.48 -0.17,-0.492 -0.34,-0.985 -0.51,-1.481 -0.18,-0.492 -0.35,-0.984 -0.52,-1.476 -0.17,-0.496 -0.34,-0.989 -0.51,-1.481 -0.17,-0.496 -0.34,-0.988 -0.51,-1.48 -0.17,-0.496 -0.34,-0.989 -0.51,-1.481 -0.17,-0.492 -0.34,-0.988 -0.52,-1.48 -0.16,-0.492 -0.34,-0.988 -0.51,-1.481 -0.17,-0.492 -0.34,-0.984 -0.51,-1.48 -0.17,-0.492 -0.34,-0.984 -0.51,-1.481 -0.17,-0.492 -0.35,-0.984 -0.51,-1.476 -0.17,-0.496 -0.35,-0.988 -0.51,-1.481 -0.18,-0.496 -0.35,-0.988 -0.52,-1.48 -0.17,-0.492 -0.34,-0.988 -0.51,-1.481 -0.17,-0.492 -0.34,-0.988 -0.51,-1.48 -0.18,-0.492 -0.34,-0.984 -0.52,-1.48 -0.17,-0.493 -0.34,-0.985 -0.51,-1.481 -0.17,-0.492 -0.34,-0.984 -0.51,-1.477 -0.17,-0.496 -0.34,-0.988 -0.51,-1.48 -0.17,-0.492 -0.34,-0.988 -0.52,-1.48 -0.16,-0.493 -0.34,-0.989 -0.51,-1.481 -0.17,-0.492 -0.34,-0.988 -0.51,-1.48 -0.17,-0.493 -0.34,-0.985 -0.51,-1.481 -0.17,-0.492 -0.34,-0.984 -0.51,-1.476 -0.18,-0.497 -0.34,-0.989 -0.51,-1.481 -0.18,-0.496 -0.35,-0.988 -0.52,-1.48 -0.17,-0.496 -0.34,-0.989 -0.51,-1.481 -0.17,-0.492 -0.34,-0.988 -0.51,-1.48 -0.17,-0.492 -0.34,-0.989 -0.52,-1.481 -0.16,-0.492 -0.34,-0.984 -0.51,-1.48 -0.17,-0.492 -0.34,-0.985 -0.51,-1.477 -0.17,-0.496 -0.34,-0.988 -0.51,-1.48 -0.17,-0.496 -0.34,-0.989 -0.51,-1.481 -0.17,-0.492 -0.35,-0.988 -0.51,-1.48 -0.18,-0.492 -0.35,-0.988 -0.52,-1.481 -0.17,-0.492 -0.34,-0.984 -0.51,-1.48 -0.17,-0.492 -0.34,-0.985 -0.51,-1.481 -0.18,-0.492 -0.34,-0.984 -0.52,-1.476 -0.17,-0.496 -0.33,-0.988 -0.51,-1.481 -0.17,-0.496 -0.34,-0.988 -0.51,-1.48 -0.17,-0.492 -0.34,-0.988 -0.51,-1.481 -0.17,-0.492 -0.34,-0.988 -0.52,-1.48 -0.16,-0.492 -0.34,-0.984 -0.51,-1.481 -0.17,-0.492 -0.34,-0.984 -0.51,-1.476 -0.17,-0.496 -0.34,-0.988 -0.51,-1.481 -0.17,-0.496 -0.34,-0.988 -0.51,-1.48 -0.17,-0.496 -0.34,-0.988 -0.51,-1.48 -0.18,-0.493 -0.35,-0.989 -0.52,-1.481 -0.17,-0.492 -0.34,-0.988 -0.51,-1.48 -0.17,-0.493 -0.34,-0.985 -0.51,-1.481 -0.17,-0.492 -0.34,-0.984 -0.52,-1.48 -0.16,-0.493 -0.34,-0.985 -0.51,-1.477 -0.17,-0.496 -0.34,-0.988 -0.51,-1.48 -0.17,-0.496 -0.34,-0.989 -0.51,-1.481 -0.17,-0.492 -0.34,-0.988 -0.51,-1.48 -0.17,-0.493 -0.35,-0.985 -0.52,-1.481 -0.17,-0.492 -0.34,-0.984 -0.51,-1.48 -0.17,-0.492 -0.34,-0.985 -0.51,-1.481 -0.17,-0.492 -0.34,-0.984 -0.51,-1.476 -0.17,-0.496 -0.34,-0.989 -0.51,-1.481 -0.18,-0.496 -0.34,-0.988 -0.52,-1.48 -0.17,-0.492 -0.34,-0.989 -0.51,-1.481 -0.17,-0.492 -0.34,-0.988 -0.51,-1.48 -0.17,-0.492 -0.34,-0.985 -0.51,-1.481 -0.17,-0.492 -0.35,-0.984 -0.51,-1.476 -0.18,-0.496 -0.35,-0.988 -0.52,-1.481 -0.17,-0.496 -0.34,-0.988 -0.51,-1.48 -0.17,-0.496 -0.34,-0.988 -0.51,-1.481 -0.17,-0.492 -0.34,-0.988 -0.51,-1.48 -0.18,-0.492 -0.35,-0.984 -0.52,-1.481 -0.17,-0.492 -0.34,-0.984 -0.51,-1.48 -0.17,-0.492 -0.34,-0.984 -0.51,-1.477 -0.17,-0.496 -0.34,-0.988 -0.51,-1.48 -0.17,-0.496 -0.34,-0.988 -0.52,-1.481 -0.16,-0.492 -0.34,-0.988 -0.51,-1.48 -0.17,-0.492 -0.34,-0.988 -0.51,-1.48 -0.17,-0.493 -0.34,-0.985 -0.51,-1.481 -0.17,-0.492 -0.35,-0.984 -0.51,-1.48 -0.18,-0.493 -0.35,-0.985 -0.52,-1.477 -0.17,-0.496 -0.34,-0.988 -0.51,-1.48 -0.17,-0.497 -0.34,-0.989 -0.51,-1.481 -0.17,-0.492 -0.34,-0.988 -0.51,-1.48 -0.17,-0.493 -0.34,-0.989 -0.52,-1.481 -0.17,-0.492 -0.34,-0.984 -0.51,-1.48 -0.17,-0.492 -0.34,-0.985 -0.51,-1.481 -0.17,-0.492 -0.34,-0.984 -0.51,-1.476 -0.17,-0.496 -0.34,-0.989 -0.52,-1.481 -0.16,-0.496 -0.34,-0.988 -0.51,-1.48 -0.17,-0.492 -0.34,-0.989 -0.51,-1.481 -0.17,-0.492 -0.34,-0.988 -0.51,-1.48 -0.17,-0.492 -0.34,-0.985 -0.51,-1.481 -0.18,-0.492 -0.35,-0.984 -0.52,-1.476 -0.17,-0.496 -0.34,-0.989 -0.51,-1.481 -0.17,-0.496 -0.34,-0.988 -0.51,-1.48 -0.17,-0.496 -0.34,-0.988 -0.51,-1.481 -0.17,-0.492 -0.34,-0.988 -0.52,-1.48 -0.17,-0.492 -0.34,-0.988 -0.51,-1.481 -0.17,-0.492 -0.34,-0.984 -0.51,-1.48 -0.17,-0.492 -0.34,-0.984 -0.51,-1.481 -0.17,-0.492 -0.34,-0.984 -0.51,-1.476 -0.17,-0.496 -0.35,-0.988 -0.52,-1.481 -0.17,-0.492 -0.34,-0.988 -0.51,-1.48 -0.17,-0.492 -0.34,-0.988 -0.51,-1.48 -0.17,-0.493 -0.34,-0.985 -0.51,-1.481 -0.18,-0.492 -0.34,-0.984 -0.52,-1.48 -0.17,-0.493 -0.34,-0.985 -0.51,-1.477 -0.17,-0.496 -0.34,-0.988 -0.51,-1.48 -0.17,-0.497 -0.34,-0.989 -0.51,-1.481 -0.17,-0.492 -0.34,-0.988 -0.52,-1.48 -0.16,-0.493 -0.34,-0.989 -0.51,-1.481 -0.17,-0.492 -0.34,-0.984 -0.51,-1.48 -0.17,-0.493 -0.34,-0.985 -0.51,-1.481 -0.17,-0.492 -0.34,-0.984 -0.51,-1.476 -0.17,-0.496 -0.34,-0.989 -0.51,-1.481 -0.18,-0.496 -0.35,-0.988 -0.52,-1.48 -0.17,-0.492 -0.34,-0.989 -0.51,-1.481 -0.17,-0.492 -0.34,-0.9881 -0.51,-1.4802 -0.17,-0.4922 -0.34,-0.9844 -0.52,-1.4805 -0.16,-0.4922 -0.34,-0.9844 -0.51,-1.4805 -0.17,-0.4922 -0.34,-0.9844 -0.51,-1.4765 -0.17,-0.4961 -0.34,-0.9883 -0.51,-1.4805 -0.17,-0.4961 -0.34,-0.9883 -0.51,-1.4805 -0.17,-0.4922 -0.35,-0.9883 -0.51,-1.4805 -0.18,-0.4921 -0.35,-0.9882 -0.52,-1.4804 -0.17,-0.4922 -0.34,-0.9844 -0.51,-1.4805 -0.17,-0.4922 -0.34,-0.9844 -0.51,-1.4805 -0.17,-0.4921 -0.34,-0.9843 -0.51,-1.4804 -0.18,-0.4922 -0.34,-0.9844 -0.52,-1.4766 -0.17,-0.4961 -0.34,-0.9883 -0.51,-1.4805 -0.17,-0.4921 -0.34,-0.9882 -0.51,-1.4804 -0.17,-0.4922 -0.34,-0.9883 -0.51,-1.4805 -0.17,-0.4922 -0.35,-0.9844 -0.52,-1.4805 -0.17,-0.4922 -0.34,-0.9843 -0.51,-1.4804 -0.17,-0.4922 -0.34,-0.9844 -0.51,-1.4766 -0.17,-0.4961 -0.34,-0.9883 -0.51,-1.4805 -0.17,-0.4961 -0.34,-0.9882 -0.51,-1.4804 -0.18,-0.4922 -0.34,-0.9883 -0.52,-1.4805 -0.17,-0.4922 -0.34,-0.9883 -0.51,-1.4805 -0.17,-0.4922 -0.34,-0.9843 -0.51,-1.4804 -0.17,-0.4922 -0.34,-0.9844 -0.52,-1.4805 -0.16,-0.4922 -0.33,-0.9844 -0.51,-1.4766 -0.17,-0.4961 -0.34,-0.9883 -0.51,-1.4804 -0.17,-0.4961 -0.34,-0.9883 -0.51,-1.4805 -0.17,-0.4922 -0.34,-0.9883 -0.51,-1.4805 -0.17,-0.4922 -0.35,-0.9844 -0.51,-1.4804 -0.18,-0.4922 -0.35,-0.9844 -0.52,-1.4805 -0.17,-0.4922 -0.34,-0.9844 -0.51,-1.4805 -0.17,-0.4922 -0.34,-0.9844 -0.51,-1.4765 -0.17,-0.4961 -0.34,-0.9883 -0.51,-1.4805 -0.18,-0.4922 -0.34,-0.9883 -0.52,-1.4805 -0.17,-0.4922 -0.34,-0.9883 -0.51,-1.4805 -0.17,-0.4921 -0.34,-0.9843 -0.51,-1.4804 -0.17,-0.4922 -0.34,-0.9844 -0.51,-1.4805 -0.17,-0.4922 -0.35,-0.9844 -0.52,-1.4766 -0.16,-0.496 -0.34,-0.9882 -0.51,-1.4804 -0.17,-0.4961 -0.34,-0.9883 -0.51,-1.4805 -0.17,-0.4961 -0.34,-0.9883 -0.51,-1.4805 -0.17,-0.4921 -0.34,-0.9882 -0.51,-1.4804 -0.18,-0.4922 -0.34,-0.9844 -0.52,-1.4805 -0.17,-0.4922 -0.34,-0.9844 -0.51,-1.4805 -0.17,-0.4922 -0.34,-0.9843 -0.51,-1.4765 -0.17,-0.4961 -0.34,-0.9883 -0.51,-1.4805 -0.17,-0.4961 -0.34,-0.9883 -0.52,-1.4805 -0.17,-0.4922 -0.34,-0.9882 -0.51,-1.4804 -0.17,-0.4922 -0.34,-0.9883 -0.51,-1.4805 -0.17,-0.4922 -0.34,-0.9844 -0.51,-1.4805 -0.17,-0.4922 -0.35,-0.9843 -0.51,-1.4804 -0.18,-0.4922 -0.35,-0.9844 -0.52,-1.4766 -0.17,-0.4961 -0.34,-0.9883 -0.51,-1.4805 -0.17,-0.4961 -0.34,-0.9883 -0.51,-1.4804 -0.17,-0.4922 -0.34,-0.9883 -0.51,-1.4805 -0.18,-0.4922 -0.34,-0.9883 -0.52,-1.4805 -0.17,-0.4922 -0.34,-0.9844 -0.51,-1.4804 -0.17,-0.4922 -0.34,-0.9844 -0.51,-1.4805 -0.17,-0.4922 -0.34,-0.9844 -0.51,-1.4766 -0.17,-0.4961 -0.34,-0.9883 -0.51,-1.4804 -0.17,-0.4961 -0.35,-0.9883 -0.52,-1.4805" /><path
         id="path158"
         style="fill:none;stroke:#000000;stroke-width:10;stroke-linecap:butt;stroke-linejoin:miter;stroke-miterlimit:10;stroke-dasharray:none;stroke-opacity:1"
         d="m 332.246,596.219 c 0.16,-0.492 0.317,-0.985 0.473,-1.477 0.16,-0.492 0.316,-0.984 0.472,-1.476 0.161,-0.493 0.317,-0.981 0.473,-1.473 0.16,-0.492 0.316,-0.984 0.473,-1.477 0.16,-0.492 0.316,-0.984 0.472,-1.476 0.161,-0.488 0.317,-0.981 0.473,-1.473 0.16,-0.492 0.316,-0.984 0.473,-1.476 0.16,-0.493 0.316,-0.985 0.472,-1.477 0.161,-0.492 0.317,-0.98 0.473,-1.473 0.16,-0.492 0.316,-0.984 0.473,-1.476 0.16,-0.492 0.316,-0.985 0.472,-1.477 0.16,-0.488 0.317,-0.98 0.473,-1.472 0.16,-0.493 0.316,-0.985 0.473,-1.477 0.156,-0.492 0.316,-0.984 0.472,-1.473 0.16,-0.492 0.317,-0.984 0.473,-1.476 0.16,-0.492 0.316,-0.985 0.473,-1.477 0.156,-0.492 0.316,-0.984 0.472,-1.472 0.16,-0.493 0.317,-0.985 0.473,-1.477 0.16,-0.492 0.316,-0.984 0.473,-1.476 0.16,-0.493 0.316,-0.985 0.472,-1.473 0.16,-0.492 0.317,-0.985 0.473,-1.477 0.16,-0.492 0.316,-0.984 0.473,-1.476 0.16,-0.492 0.316,-0.981 0.472,-1.473 0.16,-0.492 0.317,-0.984 0.473,-1.476 0.156,-0.493 0.316,-0.985 0.473,-1.477 0.16,-0.492 0.316,-0.981 0.472,-1.473 0.16,-0.492 0.317,-0.984 0.473,-1.476 0.16,-0.492 0.316,-0.985 0.472,-1.477 0.157,-0.488 0.317,-0.98 0.473,-1.472 0.16,-0.493 0.317,-0.985 0.473,-1.477 0.16,-0.492 0.316,-0.984 0.472,-1.477 0.161,-0.488 0.317,-0.98 0.473,-1.472 0.16,-0.492 0.317,-0.985 0.473,-1.477 0.16,-0.492 0.316,-0.984 0.472,-1.472 0.161,-0.493 0.317,-0.985 0.473,-1.477 0.156,-0.492 0.316,-0.984 0.473,-1.477 0.16,-0.492 0.316,-0.984 0.472,-1.472 0.157,-0.492 0.317,-0.985 0.473,-1.477 0.16,-0.492 0.316,-0.984 0.473,-1.476 0.156,-0.493 0.316,-0.985 0.472,-1.473 0.161,-0.492 0.317,-0.984 0.473,-1.477 0.16,-0.492 0.316,-0.984 0.473,-1.476 0.16,-0.492 0.316,-0.981 0.472,-1.473 0.16,-0.492 0.317,-0.984 0.473,-1.476 0.16,-0.493 0.316,-0.985 0.473,-1.477 0.16,-0.488 0.316,-0.98 0.472,-1.473 0.16,-0.492 0.317,-0.984 0.473,-1.476 0.16,-0.492 0.316,-0.985 0.473,-1.477 0.156,-0.492 0.316,-0.98 0.472,-1.472 0.16,-0.493 0.317,-0.985 0.473,-1.477 0.16,-0.492 0.316,-0.984 0.473,-1.477 0.16,-0.488 0.316,-0.98 0.472,-1.472 0.16,-0.492 0.317,-0.985 0.473,-1.477 0.156,-0.492 0.316,-0.984 0.473,-1.476 0.16,-0.489 0.316,-0.981 0.472,-1.473 0.16,-0.492 0.317,-0.984 0.473,-1.477 0.16,-0.492 0.316,-0.984 0.473,-1.476 0.16,-0.488 0.316,-0.981 0.472,-1.473 0.16,-0.492 0.317,-0.984 0.473,-1.476 0.16,-0.492 0.316,-0.985 0.472,-1.473 0.157,-0.492 0.317,-0.984 0.473,-1.477 0.16,-0.492 0.317,-0.984 0.473,-1.476 0.16,-0.492 0.316,-0.984 0.472,-1.473 0.161,-0.492 0.317,-0.984 0.473,-1.476 0.156,-0.492 0.317,-0.985 0.473,-1.477 0.16,-0.492 0.316,-0.984 0.472,-1.473 0.161,-0.492 0.317,-0.984 0.473,-1.476 0.16,-0.492 0.316,-0.984 0.473,-1.477 0.16,-0.492 0.316,-0.98 0.472,-1.472 0.161,-0.492 0.317,-0.985 0.473,-1.477 0.16,-0.492 0.316,-0.984 0.473,-1.476 0.16,-0.493 0.316,-0.981 0.472,-1.473 0.161,-0.492 0.317,-0.984 0.473,-1.477 0.16,-0.492 0.316,-0.984 0.473,-1.476 0.16,-0.488 0.316,-0.981 0.472,-1.473 0.16,-0.492 0.317,-0.984 0.473,-1.476 0.16,-0.493 0.316,-0.985 0.473,-1.477 0.16,-0.488 0.316,-0.98 0.472,-1.473 0.16,-0.492 0.317,-0.984 0.473,-1.476 0.16,-0.492 0.316,-0.985 0.473,-1.473 0.16,-0.492 0.316,-0.984 0.472,-1.476 0.16,-0.493 0.317,-0.985 0.473,-1.477 0.16,-0.492 0.316,-0.984 0.473,-1.473 0.16,-0.492 0.316,-0.984 0.472,-1.476 0.16,-0.492 0.317,-0.985 0.473,-1.477 0.16,-0.492 0.316,-0.984 0.473,-1.472 0.16,-0.493 0.316,-0.985 0.472,-1.477 0.16,-0.492 0.317,-0.984 0.473,-1.477 0.16,-0.492 0.316,-0.98 0.473,-1.472 0.16,-0.492 0.316,-0.985 0.472,-1.477 0.16,-0.492 0.317,-0.984 0.473,-1.476 0.16,-0.493 0.316,-0.981 0.472,-1.473 0.161,-0.492 0.317,-0.984 0.473,-1.477 0.16,-0.492 0.317,-0.984 0.473,-1.476 0.16,-0.492 0.316,-0.981 0.472,-1.473 0.161,-0.492 0.317,-0.984 0.473,-1.476 0.16,-0.493 0.317,-0.985 0.473,-1.477 0.16,-0.488 0.316,-0.98 0.472,-1.473 0.157,-0.492 0.317,-0.984 0.473,-1.476 0.16,-0.492 0.316,-0.984 0.473,-1.477 0.156,-0.488 0.316,-0.98 0.472,-1.472 0.161,-0.493 0.317,-0.985 0.473,-1.477 0.16,-0.492 0.316,-0.984 0.473,-1.473 0.16,-0.492 0.316,-0.984 0.472,-1.476 0.161,-0.492 0.317,-0.984 0.473,-1.477 0.16,-0.492 0.316,-0.984 0.473,-1.472 0.16,-0.493 0.316,-0.985 0.472,-1.477 0.16,-0.492 0.317,-0.984 0.473,-1.476 0.16,-0.493 0.316,-0.981 0.473,-1.473 0.16,-0.492 0.316,-0.984 0.472,-1.477 0.16,-0.492 0.317,-0.984 0.473,-1.476 0.16,-0.492 0.316,-0.981 0.473,-1.473 0.16,-0.492 0.316,-0.984 0.472,-1.476 0.16,-0.493 0.317,-0.985 0.473,-1.477 0.16,-0.492 0.316,-0.98 0.473,-1.473 0.156,-0.492 0.316,-0.984 0.472,-1.476 0.16,-0.492 0.317,-0.985 0.473,-1.477 0.16,-0.488 0.316,-0.98 0.473,-1.472 0.16,-0.493 0.316,-0.985 0.472,-1.477 0.16,-0.492 0.317,-0.984 0.473,-1.477 0.16,-0.488 0.316,-0.98 0.473,-1.472 0.16,-0.492 0.316,-0.985 0.472,-1.477 0.16,-0.492 0.317,-0.984 0.473,-1.472 0.16,-0.493 0.316,-0.985 0.472,-1.477 0.161,-0.492 0.317,-0.984 0.473,-1.477 0.16,-0.492 0.317,-0.984 0.473,-1.472 0.156,-0.492 0.316,-0.985 0.472,-1.477 0.161,-0.492 0.317,-0.984 0.473,-1.476 0.16,-0.493 0.317,-0.981 0.473,-1.473 0.16,-0.492 0.316,-0.984 0.472,-1.477 0.161,-0.492 0.317,-0.984 0.473,-1.476 0.16,-0.492 0.316,-0.981 0.473,-1.473 0.16,-0.492 0.316,-0.984 0.472,-1.476 0.161,-0.493 0.317,-0.985 0.473,-1.477 0.16,-0.488 0.316,-0.98 0.473,-1.473 0.16,-0.492 0.316,-0.984 0.472,-1.476 0.161,-0.492 0.317,-0.985 0.473,-1.477 0.16,-0.492 0.316,-0.98 0.473,-1.472 0.16,-0.493 0.316,-0.985 0.472,-1.477 0.16,-0.492 0.317,-0.984 0.473,-1.476 0.16,-0.489 0.316,-0.981 0.473,-1.473 0.16,-0.492 0.316,-0.985 0.472,-1.477 0.16,-0.492 0.317,-0.984 0.473,-1.476 0.16,-0.489 0.316,-0.981 0.473,-1.473 0.16,-0.492 0.316,-0.984 0.472,-1.476 0.16,-0.493 0.317,-0.985 0.473,-1.477 0.16,-0.488 0.316,-0.981 0.473,-1.473 0.16,-0.492 0.316,-0.984 0.472,-1.476 0.16,-0.492 0.317,-0.985 0.473,-1.473 0.16,-0.492 0.316,-0.984 0.473,-1.476 0.16,-0.493 0.316,-0.985 0.472,-1.477 0.16,-0.492 0.317,-0.984 0.473,-1.473 0.16,-0.492 0.316,-0.984 0.473,-1.476 0.16,-0.492 0.316,-0.985 0.472,-1.477 0.16,-0.492 0.317,-0.984 0.473,-1.472 0.16,-0.493 0.316,-0.985 0.472,-1.477 0.161,-0.492 0.317,-0.984 0.473,-1.477 0.16,-0.492 0.317,-0.98 0.473,-1.472 0.16,-0.492 0.316,-0.985 0.472,-1.477 0.161,-0.492 0.317,-0.984 0.473,-1.476 0.16,-0.493 0.317,-0.981 0.473,-1.473 0.156,-0.492 0.316,-0.984 0.472,-1.477 0.161,-0.492 0.317,-0.984 0.473,-1.476 0.156,-0.492 0.316,-0.981 0.473,-1.473 0.16,-0.492 0.316,-0.984 0.472,-1.476 0.161,-0.493 0.317,-0.985 0.473,-1.477 0.16,-0.488 0.316,-0.98 0.473,-1.473 0.156,-0.492 0.316,-0.984 0.472,-1.476 0.157,-0.492 0.317,-0.985 0.473,-1.473 0.16,-0.492 0.316,-0.984 0.473,-1.476 0.16,-0.493 0.316,-0.985 0.472,-1.477 0.16,-0.492 0.317,-0.984 0.473,-1.473 0.16,-0.492 0.316,-0.984 0.473,-1.476 0.156,-0.492 0.316,-0.985 0.472,-1.477 0.16,-0.492 0.317,-0.98 0.473,-1.472 0.16,-0.493 0.316,-0.985 0.473,-1.477 0.16,-0.492 0.316,-0.984 0.472,-1.477 0.16,-0.492 0.317,-0.98 0.473,-1.472 0.156,-0.492 0.316,-0.985 0.473,-1.477 0.16,-0.492 0.316,-0.984 0.472,-1.476 0.16,-0.489 0.317,-0.981 0.473,-1.473 0.16,-0.492 0.316,-0.984 0.473,-1.477 0.16,-0.492 0.316,-0.984 0.472,-1.476 0.16,-0.488 0.317,-0.981 0.473,-1.473 0.16,-0.492 0.316,-0.984 0.473,-1.476 0.16,-0.492 0.316,-0.985 0.472,-1.477 0.16,-0.488 0.317,-0.98 0.473,-1.473 0.156,-0.492 0.316,-0.984 0.472,-1.476 0.161,-0.492 0.317,-0.984 0.473,-1.477 0.16,-0.488 0.317,-0.98 0.473,-1.472 0.156,-0.492 0.316,-0.985 0.472,-1.477 0.161,-0.492 0.317,-0.984 0.473,-1.476 0.16,-0.489 0.317,-0.981 0.473,-1.473 0.16,-0.492 0.316,-0.984 0.472,-1.477 0.161,-0.492 0.317,-0.984 0.473,-1.472 0.16,-0.492 0.316,-0.985 0.473,-1.477 0.16,-0.492 0.316,-0.984 0.472,-1.476 0.161,-0.493 0.317,-0.981 0.473,-1.473 0.16,-0.492 0.316,-0.984 0.473,-1.477 0.16,-0.492 0.316,-0.984 0.472,-1.476 0.161,-0.488 0.317,-0.981 0.473,-1.473 0.16,-0.492 0.316,-0.984 0.473,-1.476 0.16,-0.493 0.316,-0.985 0.472,-1.477 0.16,-0.488 0.317,-0.98 0.473,-1.473 0.16,-0.492 0.316,-0.984 0.473,-1.476 0.16,-0.492 0.316,-0.985 0.472,-1.477 0.16,-0.488 0.317,-0.98 0.473,-1.472 0.16,-0.493 0.316,-0.985 0.473,-1.477 0.16,-0.492 0.316,-0.984 0.472,-1.477 0.16,-0.488 0.317,-0.98 0.473,-1.472 0.16,-0.492 0.316,-0.985 0.473,-1.477 0.16,-0.492 0.316,-0.984 0.472,-1.472 0.16,-0.493 0.317,-0.985 0.473,-1.477 0.16,-0.492 0.316,-0.984 0.473,-1.477 0.16,-0.492 0.316,-0.984 0.472,-1.472 0.156,-0.492 0.317,-0.985 0.473,-1.477 0.156,-0.492 0.316,-0.984 0.473,-1.476 0.16,-0.493 0.316,-0.985 0.472,-1.473 0.16,-0.492 0.317,-0.984 0.473,-1.477 0.16,-0.492 0.316,-0.984 0.472,-1.476 0.161,-0.492 0.317,-0.981 0.473,-1.473 0.16,-0.492 0.317,-0.984 0.473,-1.476 0.16,-0.493 0.316,-0.985 0.472,-1.477 0.161,-0.492 0.317,-0.98 0.473,-1.473 0.16,-0.492 0.317,-0.984 0.473,-1.476 0.156,-0.492 0.316,-0.984 0.472,-1.477 0.161,-0.488 0.317,-0.98 0.473,-1.472 0.16,-0.493 0.316,-0.985 0.473,-1.477 0.156,-0.492 0.316,-0.984 0.472,-1.476 0.161,-0.489 0.317,-0.981 0.473,-1.473 0.16,-0.492 0.316,-0.984 0.473,-1.477 0.16,-0.492 0.316,-0.984 0.472,-1.472 0.161,-0.493 0.317,-0.985 0.473,-1.477 0.16,-0.492 0.316,-0.984 0.473,-1.476 0.16,-0.493 0.316,-0.985 0.472,-1.473 0.16,-0.492 0.317,-0.984 0.473,-1.477 0.16,-0.492 0.316,-0.984 0.473,-1.476 0.16,-0.492 0.316,-0.981 0.472,-1.473 0.16,-0.492 0.317,-0.984 0.473,-1.476 0.156,-0.493 0.316,-0.985 0.473,-1.477 0.16,-0.492 0.316,-0.98 0.472,-1.473 0.16,-0.492 0.317,-0.984 0.473,-1.476 0.16,-0.492 0.316,-0.985 0.473,-1.477 0.156,-0.492 0.316,-0.98 0.472,-1.472 0.16,-0.493 0.317,-0.985 0.473,-1.477 0.16,-0.492 0.316,-0.984 0.473,-1.477 0.16,-0.492 0.316,-0.98 0.472,-1.472 0.16,-0.492 0.317,-0.985 0.473,-1.477 0.156,-0.492 0.316,-0.984 0.473,-1.476 0.16,-0.489 0.316,-0.981 0.472,-1.473 0.16,-0.492 0.317,-0.984 0.473,-1.477 0.16,-0.492 0.316,-0.984 0.472,-1.476 0.161,-0.488 0.317,-0.981 0.473,-1.473 0.16,-0.492 0.317,-0.984 0.473,-1.476 0.16,-0.493 0.316,-0.985 0.472,-1.477 0.161,-0.488 0.317,-0.98 0.473,-1.473 0.16,-0.492 0.317,-0.984 0.473,-1.476 0.16,-0.492 0.316,-0.985 0.472,-1.473 0.161,-0.492 0.317,-0.984 0.473,-1.476 0.16,-0.493 0.316,-0.985 0.473,-1.477 0.16,-0.492 0.316,-0.98 0.472,-1.473 0.161,-0.492 0.317,-0.984 0.473,-1.476 0.16,-0.492 0.316,-0.985 0.473,-1.477 0.16,-0.492 0.316,-0.984 0.472,-1.472 0.161,-0.493 0.317,-0.985 0.473,-1.477 0.16,-0.492 0.316,-0.984 0.473,-1.476 0.16,-0.493 0.316,-0.981 0.472,-1.473 0.157,-0.492 0.317,-0.985 0.473,-1.477 0.16,-0.492 0.316,-0.984 0.473,-1.476 0.16,-0.489 0.316,-0.981 0.472,-1.473 0.16,-0.492 0.317,-0.984 0.473,-1.476 0.16,-0.493 0.316,-0.985 0.473,-1.477 0.16,-0.492 0.316,-0.981 0.472,-1.473 0.16,-0.492 0.317,-0.984 0.473,-1.476 0.16,-0.492 0.316,-0.985 0.473,-1.477 0.16,-0.488 0.316,-0.98 0.472,-1.472 0.16,-0.493 0.317,-0.985 0.473,-1.477 0.16,-0.492 0.316,-0.984 0.473,-1.477 0.16,-0.488 0.316,-0.98 0.472,-1.472 0.16,-0.492 0.317,-0.985 0.473,-1.477 0.16,-0.492 0.316,-0.984 0.473,-1.472 0.16,-0.493 0.316,-0.985 0.472,-1.477 0.16,-0.492 0.317,-0.984 0.473,-1.477 0.16,-0.492 0.316,-0.984 0.472,-1.472 0.157,-0.492 0.317,-0.985 0.473,-1.477 0.16,-0.492 0.317,-0.984 0.473,-1.476 0.16,-0.493 0.316,-0.981 0.472,-1.473 0.161,-0.492 0.317,-0.984 0.473,-1.477 0.16,-0.492 0.317,-0.984 0.473,-1.476 0.156,-0.488 0.316,-0.981 0.472,-1.473 0.157,-0.492 0.317,-0.984 0.473,-1.476 0.156,-0.493 0.316,-0.985 0.473,-1.477 0.16,-0.492 0.316,-0.98 0.472,-1.473 0.161,-0.492 0.317,-0.984 0.473,-1.476 0.16,-0.492 0.316,-0.985 0.473,-1.477 0.16,-0.488 0.316,-0.98 0.472,-1.472 0.161,-0.493 0.317,-0.985 0.473,-1.477 0.16,-0.492 0.316,-0.984 0.473,-1.473 0.16,-0.492 0.316,-0.984 0.472,-1.476 0.16,-0.492 0.317,-0.985 0.473,-1.477 0.16,-0.492 0.316,-0.984 0.473,-1.472 0.16,-0.493 0.316,-0.985 0.472,-1.477 0.16,-0.492 0.317,-0.984 0.473,-1.477 0.156,-0.492 0.316,-0.984 0.473,-1.472 0.16,-0.492 0.316,-0.985 0.472,-1.477 0.16,-0.492 0.317,-0.984 0.473,-1.476 0.16,-0.492 0.316,-0.981 0.473,-1.473 0.16,-0.492 0.316,-0.984 0.472,-1.477 0.16,-0.492 0.317,-0.984 0.473,-1.476 0.16,-0.492 0.316,-0.981 0.473,-1.473 0.16,-0.492 0.316,-0.984 0.472,-1.476 0.16,-0.492 0.317,-0.985 0.473,-1.477 0.16,-0.492 0.316,-0.98 0.473,-1.473 0.16,-0.492 0.316,-0.984 0.472,-1.476 0.16,-0.492 0.317,-0.984 0.473,-1.477 0.16,-0.488 0.316,-0.98 0.472,-1.472 0.157,-0.492 0.317,-0.985 0.473,-1.477 0.16,-0.492 0.317,-0.984 0.473,-1.476 0.16,-0.493 0.316,-0.981 0.472,-1.473 0.161,-0.492 0.317,-0.984 0.473,-1.477 0.16,-0.492 0.317,-0.984 0.473,-1.476 0.16,-0.488 0.316,-0.981 0.472,-1.473 0.161,-0.492 0.317,-0.984 0.473,-1.476 0.16,-0.493 0.316,-0.985 0.473,-1.473 0.156,-0.492 0.316,-0.984 0.472,-1.477 0.161,-0.492 0.317,-0.984 0.473,-1.476 0.16,-0.492 0.316,-0.981 0.473,-1.473 0.16,-0.492 0.316,-0.984 0.472,-1.476 0.161,-0.493 0.317,-0.985 0.473,-1.477 0.16,-0.492 0.316,-0.984 0.473,-1.473 0.16,-0.492 0.316,-0.984 0.472,-1.476 0.16,-0.492 0.317,-0.985 0.473,-1.477 0.16,-0.492 0.316,-0.98 0.473,-1.472 0.16,-0.493 0.316,-0.985 0.472,-1.477 0.16,-0.492 0.317,-0.984 0.473,-1.477 0.16,-0.488 0.316,-0.98 0.473,-1.472 0.16,-0.492 0.316,-0.9846 0.472,-1.4768 0.16,-0.4922 0.317,-0.9844 0.473,-1.4765 0.16,-0.4883 0.316,-0.9805 0.473,-1.4727 0.16,-0.4922 0.316,-0.9844 0.472,-1.4766 0.16,-0.4921 0.317,-0.9843 0.473,-1.4765 0.16,-0.4883 0.316,-0.9805 0.473,-1.4727 0.16,-0.4922 0.316,-0.9844 0.472,-1.4765 0.156,-0.4922 0.317,-0.9844 0.473,-1.4727 0.16,-0.4922 0.316,-0.9844 0.473,-1.4766 0.156,-0.4921 0.316,-0.9843 0.472,-1.4765 0.16,-0.4922 0.317,-0.9844 0.473,-1.4727 0.16,-0.4922 0.316,-0.9844 0.472,-1.4765 0.161,-0.4922 0.317,-0.9844 0.473,-1.4766 0.156,-0.4922 0.317,-0.9844 0.473,-1.4727 0.16,-0.4921 0.316,-0.9843 0.472,-1.4765 0.161,-0.4922 0.317,-0.9844 0.473,-1.4766 0.16,-0.4922 0.317,-0.9805 0.473,-1.4726 0.16,-0.4922 0.316,-0.9844 0.472,-1.4766 0.161,-0.4922 0.317,-0.9844 0.473,-1.4766 0.16,-0.4922 0.316,-0.9804 0.473,-1.4726 0.16,-0.4922 0.316,-0.9844 0.472,-1.4766 0.161,-0.4922 0.317,-0.9844 0.473,-1.4765 0.16,-0.4883 0.316,-0.9805 0.473,-1.4727 0.16,-0.4922 0.316,-0.9844 0.472,-1.4766 0.161,-0.4922 0.317,-0.9843 0.473,-1.4726 0.16,-0.4922 0.316,-0.9844 0.473,-1.4766 0.16,-0.4922 0.316,-0.9844 0.472,-1.4765 0.16,-0.4922 0.317,-0.9844 0.473,-1.4766 0.16,-0.4883 0.316,-0.9805 0.473,-1.4727 0.16,-0.4922 0.316,-0.9843 0.472,-1.4765 0.16,-0.4922 0.317,-0.9844 0.473,-1.4727 0.16,-0.4922 0.316,-0.9844 0.473,-1.4765 0.16,-0.4922 0.316,-0.9844 0.472,-1.4766 0.16,-0.4922 0.317,-0.9844 0.473,-1.4727 0.16,-0.4922 0.316,-0.9843 0.473,-1.4765 0.16,-0.4922 0.316,-0.9844 0.472,-1.4766 0.16,-0.4922 0.317,-0.9844 0.473,-1.4726 0.16,-0.4922 0.316,-0.9844 0.473,-1.4766 0.156,-0.4922 0.316,-0.9844 0.472,-1.4766 0.16,-0.4922 0.317,-0.9804 0.473,-1.4726 0.16,-0.4922 0.316,-0.9844 0.473,-1.4766 0.16,-0.4922 0.316,-0.9844 0.472,-1.4766 0.16,-0.4921 0.317,-0.9804 0.473,-1.4726 0.16,-0.4922 0.316,-0.9844 0.472,-1.4766 0.161,-0.4922 0.317,-0.9843 0.473,-1.4765 0.16,-0.4883 0.317,-0.9805 0.473,-1.4727 0.16,-0.4922 0.316,-0.9844 0.472,-1.4766 0.161,-0.4921 0.317,-0.9843 0.473,-1.4726 0.16,-0.4922 0.317,-0.9844 0.473,-1.4766 0.16,-0.4922 0.316,-0.9843 0.472,-1.4765 0.161,-0.4922 0.317,-0.9844 0.473,-1.4727 0.16,-0.4922 0.316,-0.9844 0.473,-1.4766 0.16,-0.4921 0.316,-0.9843 0.472,-1.4765 0.161,-0.4922 0.317,-0.9844 0.473,-1.4727 0.16,-0.4922 0.316,-0.9843 0.473,-1.4765 0.16,-0.4922 0.316,-0.9844 0.472,-1.4766 0.161,-0.4922 0.317,-0.9844 0.473,-1.4727 0.16,-0.4921 0.316,-0.9843 0.473,-1.4765 0.16,-0.4922 0.316,-0.9844 0.472,-1.4766 0.16,-0.4922 0.317,-0.9844 0.473,-1.4726 0.16,-0.4922 0.316,-0.9844 0.473,-1.4766" /><path
         id="path160"
         style="fill:none;stroke:#000000;stroke-width:10;stroke-linecap:butt;stroke-linejoin:miter;stroke-miterlimit:10;stroke-dasharray:none;stroke-opacity:1"
         d="m 1921.88,590.102 c 0.16,-0.489 0.31,-0.981 0.47,-1.469 0.15,-0.488 0.31,-0.981 0.47,-1.469 0.15,-0.488 0.31,-0.976 0.47,-1.469 0.15,-0.488 0.31,-0.976 0.46,-1.468 0.16,-0.489 0.32,-0.977 0.47,-1.469 0.16,-0.488 0.32,-0.977 0.47,-1.465 0.16,-0.492 0.31,-0.98 0.47,-1.469 0.15,-0.492 0.31,-0.98 0.47,-1.469 0.15,-0.488 0.31,-0.98 0.46,-1.468 0.16,-0.489 0.32,-0.981 0.47,-1.469 0.16,-0.488 0.32,-0.977 0.47,-1.469 0.16,-0.488 0.31,-0.976 0.47,-1.469 0.16,-0.488 0.31,-0.976 0.46,-1.468 0.16,-0.489 0.32,-0.977 0.47,-1.465 0.16,-0.492 0.32,-0.981 0.47,-1.469 0.16,-0.492 0.31,-0.98 0.47,-1.469 0.16,-0.488 0.31,-0.98 0.47,-1.468 0.16,-0.489 0.31,-0.981 0.47,-1.469 0.15,-0.488 0.31,-0.977 0.47,-1.469 0.15,-0.488 0.31,-0.976 0.46,-1.469 0.16,-0.488 0.31,-0.976 0.47,-1.464 0.16,-0.493 0.31,-0.981 0.47,-1.469 0.16,-0.492 0.31,-0.981 0.47,-1.469 0.15,-0.492 0.31,-0.98 0.47,-1.469 0.15,-0.488 0.31,-0.98 0.47,-1.468 0.15,-0.489 0.31,-0.981 0.46,-1.469 0.16,-0.488 0.31,-0.977 0.47,-1.469 0.16,-0.488 0.31,-0.977 0.47,-1.469 0.15,-0.488 0.31,-0.976 0.47,-1.465 0.15,-0.492 0.31,-0.98 0.47,-1.468 0.15,-0.492 0.31,-0.981 0.46,-1.469 0.16,-0.492 0.32,-0.981 0.47,-1.469 0.16,-0.488 0.31,-0.98 0.47,-1.469 0.15,-0.488 0.31,-0.98 0.47,-1.468 0.15,-0.489 0.31,-0.977 0.47,-1.469 0.15,-0.488 0.31,-0.977 0.46,-1.469 0.16,-0.488 0.32,-0.976 0.47,-1.465 0.16,-0.492 0.32,-0.98 0.47,-1.468 0.16,-0.493 0.31,-0.981 0.47,-1.469 0.15,-0.488 0.31,-0.981 0.47,-1.469 0.15,-0.488 0.31,-0.98 0.46,-1.469 0.16,-0.488 0.32,-0.976 0.47,-1.468 0.16,-0.489 0.32,-0.977 0.47,-1.469 0.16,-0.488 0.31,-0.977 0.47,-1.469 0.16,-0.488 0.31,-0.976 0.47,-1.465 0.16,-0.492 0.31,-0.98 0.46,-1.468 0.16,-0.493 0.32,-0.981 0.47,-1.469 0.16,-0.489 0.32,-0.981 0.47,-1.469 0.16,-0.488 0.31,-0.98 0.47,-1.469 0.16,-0.488 0.31,-0.976 0.47,-1.468 0.16,-0.489 0.31,-0.977 0.47,-1.469 0.15,-0.489 0.31,-0.977 0.46,-1.469 0.16,-0.488 0.32,-0.977 0.47,-1.465 0.16,-0.492 0.31,-0.98 0.47,-1.469 0.16,-0.492 0.31,-0.98 0.47,-1.468 0.16,-0.489 0.31,-0.981 0.47,-1.469 0.15,-0.488 0.31,-0.981 0.47,-1.469 0.15,-0.488 0.31,-0.976 0.46,-1.469 0.16,-0.488 0.31,-0.976 0.47,-1.468 0.16,-0.489 0.31,-0.977 0.47,-1.465 0.16,-0.492 0.31,-0.981 0.47,-1.469 0.15,-0.492 0.31,-0.98 0.47,-1.469 0.15,-0.492 0.31,-0.98 0.47,-1.468 0.15,-0.489 0.31,-0.981 0.46,-1.469 0.16,-0.488 0.31,-0.981 0.47,-1.469 0.15,-0.488 0.31,-0.98 0.47,-1.469 0.15,-0.488 0.31,-0.976 0.47,-1.468 0.15,-0.489 0.31,-0.977 0.46,-1.465 0.16,-0.492 0.32,-0.981 0.47,-1.469 0.16,-0.492 0.32,-0.98 0.47,-1.469 0.16,-0.492 0.31,-0.98 0.47,-1.469 0.15,-0.488 0.31,-0.98 0.47,-1.468 0.15,-0.489 0.31,-0.981 0.46,-1.469 0.16,-0.488 0.32,-0.977 0.47,-1.469 0.16,-0.488 0.32,-0.976 0.47,-1.469 0.16,-0.488 0.31,-0.976 0.47,-1.464 0.16,-0.493 0.31,-0.981 0.47,-1.469 0.15,-0.492 0.31,-0.981 0.46,-1.469 0.16,-0.492 0.32,-0.98 0.47,-1.469 0.16,-0.488 0.32,-0.98 0.47,-1.468 0.16,-0.489 0.31,-0.981 0.47,-1.469 0.16,-0.488 0.31,-0.977 0.47,-1.469 0.16,-0.488 0.31,-0.976 0.47,-1.469 0.15,-0.488 0.31,-0.976 0.47,-1.464 0.15,-0.493 0.31,-0.981 0.46,-1.469 0.16,-0.492 0.31,-0.981 0.47,-1.469 0.16,-0.488 0.31,-0.98 0.47,-1.469 0.16,-0.488 0.31,-0.98 0.47,-1.468 0.15,-0.489 0.31,-0.977 0.47,-1.469 0.15,-0.488 0.31,-0.977 0.47,-1.469 0.15,-0.488 0.3,-0.977 0.46,-1.469 0.16,-0.488 0.31,-0.976 0.47,-1.465 0.16,-0.492 0.31,-0.98 0.47,-1.468 0.15,-0.492 0.31,-0.981 0.47,-1.469 0.15,-0.488 0.31,-0.981 0.47,-1.469 0.15,-0.488 0.31,-0.98 0.46,-1.469 0.16,-0.488 0.31,-0.976 0.47,-1.468 0.16,-0.489 0.31,-0.977 0.47,-1.469 0.15,-0.488 0.31,-0.977 0.47,-1.469 0.15,-0.488 0.31,-0.976 0.47,-1.465 0.15,-0.492 0.31,-0.98 0.46,-1.468 0.16,-0.493 0.32,-0.981 0.47,-1.469 0.16,-0.488 0.31,-0.981 0.47,-1.469 0.15,-0.488 0.31,-0.98 0.47,-1.469 0.15,-0.488 0.31,-0.976 0.47,-1.468 0.15,-0.489 0.31,-0.977 0.46,-1.469 0.16,-0.488 0.32,-0.977 0.47,-1.465 0.16,-0.492 0.32,-0.98 0.47,-1.469 0.16,-0.492 0.31,-0.98 0.47,-1.468 0.15,-0.493 0.31,-0.981 0.47,-1.469 0.15,-0.489 0.31,-0.981 0.46,-1.469 0.16,-0.488 0.32,-0.98 0.47,-1.469 0.16,-0.488 0.32,-0.976 0.47,-1.468 0.16,-0.489 0.31,-0.977 0.47,-1.469 0.16,-0.489 0.31,-0.977 0.47,-1.465 0.15,-0.492 0.31,-0.981 0.46,-1.469 0.16,-0.492 0.32,-0.98 0.47,-1.469 0.16,-0.492 0.31,-0.98 0.47,-1.468 0.16,-0.489 0.31,-0.981 0.47,-1.469 0.16,-0.488 0.31,-0.981 0.47,-1.469 0.15,-0.488 0.31,-0.976 0.47,-1.469 0.15,-0.488 0.31,-0.976 0.46,-1.468 0.16,-0.489 0.31,-0.977 0.47,-1.465 0.16,-0.492 0.31,-0.981 0.47,-1.469 0.16,-0.492 0.31,-0.98 0.47,-1.469 0.15,-0.492 0.31,-0.98 0.47,-1.468 0.15,-0.489 0.31,-0.981 0.47,-1.469 0.15,-0.488 0.31,-0.977 0.46,-1.469 0.16,-0.488 0.31,-0.976 0.47,-1.469 0.16,-0.488 0.31,-0.976 0.47,-1.468 0.15,-0.489 0.31,-0.977 0.47,-1.465 0.15,-0.492 0.31,-0.981 0.47,-1.469 0.15,-0.492 0.31,-0.98 0.46,-1.469 0.16,-0.488 0.32,-0.98 0.47,-1.469 0.16,-0.488 0.31,-0.98 0.47,-1.468 0.15,-0.489 0.31,-0.981 0.47,-1.469 0.15,-0.488 0.31,-0.977 0.47,-1.469 0.15,-0.488 0.31,-0.976 0.46,-1.469 0.16,-0.488 0.32,-0.976 0.47,-1.464 0.16,-0.493 0.32,-0.981 0.47,-1.469 0.16,-0.492 0.31,-0.981 0.47,-1.469 0.15,-0.488 0.31,-0.98 0.47,-1.469 0.15,-0.488 0.31,-0.98 0.46,-1.468 0.16,-0.489 0.32,-0.977 0.47,-1.469 0.16,-0.488 0.32,-0.977 0.47,-1.469 0.16,-0.488 0.31,-0.976 0.47,-1.469 0.16,-0.488 0.31,-0.976 0.47,-1.464 0.15,-0.493 0.31,-0.981 0.46,-1.469 0.16,-0.488 0.32,-0.981 0.47,-1.469 0.16,-0.488 0.32,-0.98 0.47,-1.469 0.16,-0.488 0.31,-0.98 0.47,-1.468 0.16,-0.489 0.31,-0.977 0.47,-1.469 0.16,-0.488 0.31,-0.977 0.47,-1.469 0.15,-0.488 0.31,-0.977 0.46,-1.469 0.16,-0.488 0.32,-0.976 0.47,-1.465 0.16,-0.492 0.31,-0.98 0.47,-1.468 0.16,-0.492 0.31,-0.981 0.47,-1.469 0.16,-0.488 0.31,-0.981 0.47,-1.469 0.15,-0.488 0.31,-0.98 0.47,-1.469 0.15,-0.488 0.31,-0.976 0.47,-1.468 0.15,-0.489 0.3,-0.977 0.46,-1.469 0.16,-0.488 0.31,-0.977 0.47,-1.465 0.16,-0.492 0.31,-0.98 0.47,-1.469 0.15,-0.492 0.31,-0.98 0.47,-1.468 0.15,-0.489 0.31,-0.981 0.47,-1.469 0.15,-0.488 0.31,-0.981 0.46,-1.469 0.16,-0.488 0.31,-0.98 0.47,-1.469 0.15,-0.488 0.31,-0.976 0.47,-1.468 0.15,-0.489 0.31,-0.977 0.47,-1.469 0.15,-0.488 0.31,-0.977 0.46,-1.465 0.16,-0.492 0.32,-0.98 0.47,-1.469 0.16,-0.492 0.32,-0.98 0.47,-1.468 0.16,-0.493 0.31,-0.981 0.47,-1.469 0.15,-0.489 0.31,-0.981 0.47,-1.469 0.15,-0.488 0.31,-0.98 0.46,-1.469 0.16,-0.488 0.32,-0.976 0.47,-1.468 0.16,-0.489 0.32,-0.977 0.47,-1.469 0.16,-0.489 0.31,-0.977 0.47,-1.465 0.15,-0.492 0.31,-0.981 0.47,-1.469 0.15,-0.492 0.31,-0.98 0.46,-1.469 0.16,-0.488 0.32,-0.98 0.47,-1.468 0.16,-0.489 0.32,-0.981 0.47,-1.469 0.16,-0.488 0.31,-0.981 0.47,-1.469 0.16,-0.488 0.31,-0.976 0.47,-1.469 0.16,-0.488 0.31,-0.976 0.47,-1.468 0.15,-0.489 0.31,-0.977 0.46,-1.465 0.16,-0.492 0.32,-0.981 0.47,-1.469 0.16,-0.492 0.31,-0.98 0.47,-1.469 0.16,-0.488 0.31,-0.98 0.47,-1.468 0.16,-0.489 0.31,-0.981 0.47,-1.469 0.15,-0.488 0.31,-0.977 0.47,-1.469 0.15,-0.488 0.31,-0.976 0.46,-1.469 0.16,-0.488 0.32,-0.976 0.47,-1.465 0.16,-0.492 0.31,-0.98 0.47,-1.468 0.16,-0.492 0.31,-0.981 0.47,-1.469 0.15,-0.492 0.31,-0.98 0.47,-1.469 0.15,-0.488 0.31,-0.98 0.47,-1.469 0.15,-0.488 0.31,-0.98 0.46,-1.468 0.16,-0.489 0.32,-0.977 0.47,-1.469 0.16,-0.488 0.31,-0.977 0.47,-1.469 0.15,-0.488 0.31,-0.976 0.47,-1.465 0.15,-0.492 0.31,-0.98 0.47,-1.468 0.15,-0.493 0.31,-0.981 0.46,-1.469 0.16,-0.488 0.32,-0.981 0.47,-1.469 0.16,-0.488 0.31,-0.98 0.47,-1.469 0.15,-0.488 0.31,-0.98 0.47,-1.468 0.15,-0.489 0.31,-0.977 0.47,-1.469 0.15,-0.488 0.31,-0.977 0.46,-1.469 0.16,-0.488 0.32,-0.976 0.47,-1.465 0.16,-0.492 0.32,-0.98 0.47,-1.468 0.16,-0.493 0.31,-0.981 0.47,-1.469 0.16,-0.492 0.31,-0.981 0.47,-1.469 0.15,-0.488 0.31,-0.98 0.46,-1.469 0.16,-0.488 0.32,-0.98 0.47,-1.468 0.16,-0.489 0.32,-0.977 0.47,-1.469 0.16,-0.488 0.31,-0.977 0.47,-1.469 0.16,-0.488 0.31,-0.977 0.46,-1.465 0.16,-0.492 0.32,-0.98 0.47,-1.469 0.16,-0.492 0.32,-0.98 0.47,-1.468 0.16,-0.492 0.31,-0.981 0.47,-1.469 0.16,-0.488 0.31,-0.981 0.47,-1.469 0.16,-0.488 0.31,-0.98 0.47,-1.469 0.15,-0.488 0.31,-0.976 0.47,-1.468 0.15,-0.489 0.31,-0.977 0.46,-1.469 0.16,-0.488 0.31,-0.977 0.47,-1.465 0.16,-0.492 0.31,-0.98 0.47,-1.469 0.16,-0.492 0.31,-0.98 0.47,-1.468 0.15,-0.489 0.31,-0.981 0.47,-1.469 0.15,-0.488 0.31,-0.981 0.47,-1.469 0.15,-0.488 0.31,-0.98 0.46,-1.469 0.16,-0.488 0.31,-0.976 0.47,-1.468 0.16,-0.489 0.31,-0.977 0.47,-1.465 0.15,-0.492 0.31,-0.981 0.47,-1.469 0.15,-0.492 0.31,-0.98 0.47,-1.469 0.15,-0.492 0.31,-0.98 0.46,-1.468 0.16,-0.489 0.32,-0.981 0.47,-1.469 0.16,-0.489 0.31,-0.981 0.47,-1.469 0.15,-0.488 0.31,-0.977 0.47,-1.469 0.15,-0.488 0.31,-0.976 0.47,-1.468 0.15,-0.489 0.31,-0.977 0.46,-1.469 0.16,-0.489 0.32,-0.977 0.47,-1.465 0.16,-0.492 0.32,-0.981 0.47,-1.469 0.16,-0.492 0.31,-0.98 0.47,-1.469 0.15,-0.488 0.31,-0.98 0.47,-1.468 0.15,-0.489 0.31,-0.981 0.46,-1.469 0.16,-0.488 0.32,-0.977 0.47,-1.469 0.16,-0.488 0.32,-0.976 0.47,-1.469 0.16,-0.488 0.31,-0.976 0.47,-1.468 0.16,-0.489 0.31,-0.977 0.47,-1.465 0.15,-0.492 0.31,-0.981 0.46,-1.469 0.16,-0.492 0.32,-0.98 0.47,-1.469 0.16,-0.488 0.32,-0.98 0.47,-1.468 0.16,-0.489 0.31,-0.981 0.47,-1.469 0.16,-0.488 0.31,-0.977 0.47,-1.469 0.16,-0.488 0.31,-0.976 0.47,-1.469 0.15,-0.488 0.31,-0.976 0.46,-1.465 0.16,-0.492 0.32,-0.98 0.47,-1.468 0.16,-0.492 0.31,-0.981 0.47,-1.469 0.16,-0.488 0.31,-0.98 0.47,-1.469 0.16,-0.488 0.31,-0.98 0.47,-1.469 0.15,-0.488 0.31,-0.98 0.47,-1.468 0.15,-0.489 0.31,-0.977 0.46,-1.469 0.16,-0.488 0.32,-0.977 0.47,-1.469 0.16,-0.488 0.31,-0.976 0.47,-1.465 0.16,-0.492 0.31,-0.98 0.47,-1.468 0.15,-0.493 0.31,-0.981 0.47,-1.469 0.15,-0.488 0.31,-0.981 0.47,-1.469 0.15,-0.488 0.31,-0.98 0.46,-1.469 0.16,-0.488 0.32,-0.976 0.47,-1.468 0.16,-0.489 0.31,-0.977 0.47,-1.469 0.15,-0.488 0.31,-0.977 0.47,-1.469 0.15,-0.488 0.31,-0.976 0.46,-1.465 0.16,-0.492 0.32,-0.98 0.47,-1.468 0.16,-0.493 0.32,-0.981 0.47,-1.469 0.16,-0.488 0.31,-0.981 0.47,-1.469 0.16,-0.488 0.31,-0.98 0.47,-1.469 0.15,-0.488 0.31,-0.976 0.46,-1.468 0.16,-0.489 0.32,-0.977 0.47,-1.469 0.16,-0.488 0.32,-0.977 0.47,-1.465 0.16,-0.492 0.31,-0.981 0.47,-1.469 0.16,-0.492 0.31,-0.98 0.47,-1.469 0.16,-0.492 0.31,-0.98 0.46,-1.468 0.16,-0.489 0.32,-0.981 0.47,-1.469 0.16,-0.488 0.32,-0.981 0.47,-1.469 0.16,-0.488 0.31,-0.976 0.47,-1.469 0.16,-0.488 0.31,-0.976 0.47,-1.468 0.16,-0.489 0.31,-0.977 0.47,-1.465 0.15,-0.492 0.31,-0.981 0.46,-1.469 0.16,-0.492 0.32,-0.98 0.47,-1.469 0.16,-0.492 0.31,-0.98 0.47,-1.468 0.16,-0.489 0.31,-0.981 0.47,-1.469 0.16,-0.488 0.31,-0.981 0.47,-1.469 0.15,-0.488 0.31,-0.976 0.47,-1.469 0.15,-0.488 0.31,-0.976 0.47,-1.468 0.15,-0.489 0.3,-0.977 0.46,-1.465 0.16,-0.492 0.31,-0.981 0.47,-1.469 0.16,-0.492 0.31,-0.98 0.47,-1.469 0.15,-0.492 0.31,-0.98 0.47,-1.468 0.15,-0.489 0.31,-0.981 0.47,-1.469 0.15,-0.489 0.31,-0.981 0.46,-1.469 0.16,-0.488 0.31,-0.977 0.47,-1.469 0.16,-0.488 0.31,-0.976 0.47,-1.468 0.15,-0.489 0.31,-0.977 0.47,-1.469 0.15,-0.489 0.31,-0.977 0.47,-1.465 0.15,-0.492 0.31,-0.981 0.46,-1.469 0.16,-0.488 0.32,-0.98 0.47,-1.469 0.16,-0.488 0.32,-0.98 0.47,-1.468 0.15,-0.489 0.31,-0.981 0.47,-1.469 0.15,-0.488 0.31,-0.977 0.47,-1.469 0.15,-0.488 0.31,-0.976 0.46,-1.469 0.16,-0.488 0.32,-0.976 0.47,-1.464 0.16,-0.493 0.32,-0.981 0.47,-1.469 0.16,-0.492 0.31,-0.981 0.47,-1.469 0.16,-0.492 0.31,-0.98 0.47,-1.469 0.15,-0.488 0.31,-0.98 0.46,-1.468 0.16,-0.489 0.32,-0.977 0.47,-1.469 0.16,-0.488 0.32,-0.977 0.47,-1.469 0.16,-0.488 0.31,-0.976 0.47,-1.469 0.16,-0.488 0.31,-0.976 0.47,-1.465 0.16,-0.492 0.31,-0.98 0.46,-1.468 0.16,-0.492 0.32,-0.981 0.47,-1.469 0.16,-0.488 0.31,-0.98 0.47,-1.469 0.16,-0.488 0.31,-0.98 0.47,-1.469 0.16,-0.488 0.31,-0.98 0.47,-1.468 0.15,-0.489 0.31,-0.977 0.47,-1.469 0.15,-0.488 0.31,-0.977 0.47,-1.469 0.15,-0.488 0.31,-0.976 0.46,-1.465 0.16,-0.492 0.31,-0.98 0.47,-1.468 0.16,-0.493 0.31,-0.981 0.47,-1.469 0.15,-0.488 0.31,-0.981 0.47,-1.469 0.15,-0.488 0.31,-0.98 0.47,-1.469 0.15,-0.488 0.31,-0.98 0.46,-1.468 0.16,-0.489 0.32,-0.977 0.47,-1.469 0.16,-0.488 0.31,-0.977 0.47,-1.465 0.15,-0.4922 0.31,-0.9804 0.47,-1.4687 0.15,-0.4922 0.31,-0.9805 0.47,-1.4688 0.15,-0.4922 0.31,-0.9804 0.46,-1.4687 0.16,-0.4883 0.32,-0.9805 0.47,-1.4688 0.16,-0.4882 0.32,-0.9804 0.47,-1.4687 0.16,-0.4883 0.31,-0.9766 0.47,-1.4688 0.15,-0.4882 0.31,-0.9765 0.47,-1.4687 0.15,-0.4883 0.31,-0.9766 0.46,-1.4649 0.16,-0.4921 0.32,-0.9804 0.47,-1.4687 0.16,-0.4922 0.32,-0.9805 0.47,-1.4688 0.16,-0.4921 0.31,-0.9804 0.47,-1.4687 0.15,-0.4883 0.31,-0.9805 0.47,-1.4688 0.15,-0.4882 0.31,-0.9804 0.46,-1.4687 0.16,-0.4883 0.32,-0.9766 0.47,-1.4688 0.16,-0.4882 0.32,-0.9765 0.47,-1.4687 0.16,-0.4883 0.31,-0.9766 0.47,-1.4649 0.16,-0.4921 0.31,-0.9804 0.47,-1.4687 0.16,-0.4922 0.31,-0.9805 0.47,-1.4688 0.15,-0.4921 0.31,-0.9804 0.46,-1.4687 0.16,-0.4883 0.32,-0.9805 0.47,-1.4688 0.16,-0.4882 0.31,-0.9804 0.47,-1.4687 0.16,-0.4883 0.31,-0.9766 0.47,-1.4688 0.16,-0.4882 0.31,-0.9765 0.47,-1.4687 0.15,-0.4883 0.31,-0.9766 0.47,-1.4648 0.15,-0.4922 0.31,-0.9805 0.46,-1.4688 0.16,-0.4922 0.31,-0.9805 0.47,-1.4687 0.16,-0.4883 0.31,-0.9805 0.47,-1.4688 0.16,-0.4883 0.31,-0.9805 0.47,-1.4687 0.15,-0.4883 0.31,-0.9805 0.47,-1.4688 0.15,-0.4883 0.31,-0.9766 0.47,-1.4687 0.15,-0.4883 0.3,-0.9766 0.46,-1.4688 0.16,-0.4883 0.31,-0.9766 0.47,-1.4648 0.16,-0.4922 0.31,-0.9805 0.47,-1.4688 0.15,-0.4922 0.31,-0.9805 0.47,-1.4687 0.15,-0.4883 0.31,-0.9805 0.47,-1.4688 0.15,-0.4883 0.31,-0.9805 0.46,-1.4687 0.16,-0.4883 0.32,-0.9766 0.47,-1.4688 0.16,-0.4883 0.31,-0.9766 0.47,-1.4687 0.15,-0.4883 0.31,-0.9766 0.47,-1.4688 0.15,-0.4883 0.31,-0.9766 0.46,-1.4648 0.16,-0.4922 0.32,-0.9805 0.47,-1.4688 0.16,-0.4922 0.32,-0.9805 0.47,-1.4687 0.16,-0.4883 0.31,-0.9805 0.47,-1.4688 0.16,-0.4883 0.31,-0.9805 0.47,-1.4687 0.15,-0.4883 0.31,-0.9766 0.46,-1.4688 0.16,-0.4883 0.32,-0.9765 0.47,-1.4687 0.16,-0.4883 0.32,-0.9766 0.47,-1.4688 0.16,-0.4883 0.31,-0.9765 0.47,-1.4648 0.16,-0.4922 0.31,-0.9805 0.47,-1.4688 0.16,-0.4922 0.31,-0.9804 0.47,-1.4687 0.15,-0.4883 0.31,-0.9805 0.46,-1.4688 0.16,-0.4883 0.32,-0.9804 0.47,-1.4687 0.16,-0.4883 0.31,-0.9766 0.47,-1.4688 0.16,-0.4883 0.31,-0.9765 0.47,-1.4687 0.16,-0.4883 0.31,-0.9766 0.47,-1.4688 0.15,-0.4883 0.31,-0.9765 0.47,-1.4648 0.15,-0.4922 0.31,-0.9805 0.46,-1.4688 0.16,-0.4922 0.31,-0.9804 0.47,-1.4687 0.16,-0.4883 0.31,-0.9805 0.47,-1.4688 0.16,-0.4883 0.31,-0.9804 0.47,-1.4687 0.15,-0.4883 0.31,-0.9766 0.47,-1.4688 0.15,-0.48826 0.31,-0.97654 0.47,-1.46872 0.15,-0.48829 0.3,-0.97657 0.46,-1.46875" /><path
         id="path162"
         style="fill:none;stroke:#000000;stroke-width:10;stroke-linecap:butt;stroke-linejoin:miter;stroke-miterlimit:10;stroke-dasharray:none;stroke-opacity:1"
         d="m 2987.28,596.102 c -0.17,-0.497 -0.34,-0.989 -0.51,-1.485 -0.16,-0.496 -0.33,-0.992 -0.5,-1.488 -0.17,-0.492 -0.34,-0.988 -0.51,-1.484 -0.17,-0.497 -0.34,-0.993 -0.51,-1.485 -0.16,-0.496 -0.34,-0.992 -0.5,-1.488 -0.17,-0.496 -0.34,-0.992 -0.51,-1.484 -0.17,-0.497 -0.34,-0.993 -0.51,-1.489 -0.17,-0.496 -0.34,-0.988 -0.5,-1.484 -0.17,-0.496 -0.34,-0.992 -0.51,-1.488 -0.17,-0.497 -0.34,-0.989 -0.51,-1.485 -0.17,-0.496 -0.33,-0.992 -0.5,-1.488 -0.17,-0.496 -0.34,-0.988 -0.51,-1.484 -0.17,-0.497 -0.34,-0.993 -0.51,-1.489 -0.17,-0.492 -0.33,-0.988 -0.5,-1.484 -0.17,-0.496 -0.34,-0.992 -0.51,-1.488 -0.17,-0.493 -0.34,-0.989 -0.51,-1.485 -0.17,-0.496 -0.33,-0.992 -0.51,-1.484 -0.16,-0.496 -0.33,-0.992 -0.5,-1.488 -0.17,-0.497 -0.34,-0.989 -0.51,-1.485 -0.17,-0.496 -0.33,-0.992 -0.51,-1.488 -0.16,-0.496 -0.33,-0.988 -0.5,-1.484 -0.17,-0.497 -0.34,-0.993 -0.51,-1.489 -0.17,-0.496 -0.34,-0.988 -0.5,-1.484 -0.17,-0.496 -0.34,-0.992 -0.51,-1.488 -0.17,-0.493 -0.34,-0.989 -0.51,-1.485 -0.17,-0.496 -0.34,-0.992 -0.5,-1.488 -0.17,-0.492 -0.34,-0.988 -0.51,-1.484 -0.17,-0.497 -0.34,-0.993 -0.51,-1.485 -0.17,-0.496 -0.34,-0.992 -0.5,-1.488 -0.18,-0.496 -0.34,-0.988 -0.51,-1.484 -0.17,-0.497 -0.34,-0.993 -0.51,-1.489 -0.17,-0.496 -0.34,-0.988 -0.51,-1.484 -0.17,-0.496 -0.33,-0.992 -0.5,-1.488 -0.17,-0.493 -0.34,-0.989 -0.51,-1.485 -0.17,-0.496 -0.34,-0.992 -0.51,-1.488 -0.16,-0.492 -0.33,-0.988 -0.5,-1.484 -0.17,-0.497 -0.34,-0.993 -0.51,-1.485 -0.17,-0.496 -0.34,-0.992 -0.51,-1.488 -0.16,-0.496 -0.33,-0.992 -0.5,-1.484 -0.17,-0.497 -0.34,-0.993 -0.51,-1.489 -0.17,-0.496 -0.34,-0.988 -0.51,-1.484 -0.16,-0.496 -0.33,-0.992 -0.5,-1.488 -0.17,-0.496 -0.34,-0.989 -0.51,-1.485 -0.17,-0.496 -0.34,-0.992 -0.51,-1.488 -0.16,-0.492 -0.34,-0.988 -0.5,-1.484 -0.17,-0.497 -0.34,-0.993 -0.51,-1.489 -0.17,-0.492 -0.34,-0.988 -0.51,-1.484 -0.17,-0.496 -0.33,-0.992 -0.5,-1.484 -0.17,-0.497 -0.34,-0.993 -0.51,-1.489 -0.17,-0.496 -0.34,-0.992 -0.51,-1.484 -0.17,-0.496 -0.33,-0.992 -0.5,-1.488 -0.17,-0.496 -0.34,-0.989 -0.51,-1.485 -0.17,-0.496 -0.34,-0.992 -0.51,-1.488 -0.17,-0.492 -0.33,-0.988 -0.5,-1.484 -0.17,-0.497 -0.34,-0.993 -0.51,-1.489 -0.17,-0.492 -0.34,-0.988 -0.51,-1.484 -0.17,-0.496 -0.33,-0.992 -0.51,-1.488 -0.16,-0.493 -0.33,-0.989 -0.5,-1.485 -0.17,-0.496 -0.34,-0.992 -0.51,-1.484 -0.17,-0.496 -0.33,-0.992 -0.5,-1.488 -0.17,-0.496 -0.34,-0.993 -0.51,-1.485 -0.17,-0.496 -0.34,-0.992 -0.51,-1.488 -0.16,-0.496 -0.34,-0.988 -0.5,-1.484 -0.17,-0.497 -0.34,-0.993 -0.51,-1.489 -0.17,-0.496 -0.34,-0.988 -0.51,-1.484 -0.17,-0.496 -0.34,-0.992 -0.5,-1.488 -0.17,-0.493 -0.34,-0.989 -0.51,-1.485 -0.17,-0.496 -0.34,-0.992 -0.51,-1.484 -0.17,-0.496 -0.34,-0.992 -0.51,-1.488 -0.16,-0.496 -0.33,-0.993 -0.5,-1.489 -0.17,-0.492 -0.34,-0.988 -0.51,-1.484 -0.17,-0.496 -0.34,-0.992 -0.5,-1.484 -0.17,-0.497 -0.34,-0.993 -0.51,-1.489 -0.17,-0.496 -0.34,-0.988 -0.51,-1.484 -0.17,-0.496 -0.33,-0.992 -0.51,-1.488 -0.16,-0.496 -0.33,-0.989 -0.5,-1.485 -0.17,-0.496 -0.34,-0.992 -0.51,-1.488 -0.17,-0.492 -0.34,-0.988 -0.51,-1.484 -0.16,-0.496 -0.33,-0.993 -0.5,-1.485 -0.17,-0.496 -0.34,-0.992 -0.51,-1.488 -0.17,-0.496 -0.34,-0.992 -0.51,-1.484 -0.16,-0.497 -0.34,-0.993 -0.5,-1.489 -0.17,-0.496 -0.34,-0.988 -0.51,-1.484 -0.17,-0.496 -0.34,-0.992 -0.51,-1.488 -0.16,-0.496 -0.33,-0.989 -0.5,-1.485 -0.17,-0.496 -0.34,-0.992 -0.51,-1.488 -0.17,-0.492 -0.34,-0.988 -0.5,-1.484 -0.17,-0.496 -0.34,-0.993 -0.51,-1.489 -0.17,-0.492 -0.34,-0.988 -0.51,-1.484 -0.17,-0.496 -0.34,-0.992 -0.5,-1.488 -0.18,-0.493 -0.34,-0.989 -0.51,-1.485 -0.17,-0.496 -0.34,-0.992 -0.51,-1.484 -0.17,-0.496 -0.34,-0.992 -0.51,-1.488 -0.17,-0.496 -0.33,-0.993 -0.5,-1.485 -0.17,-0.496 -0.34,-0.992 -0.51,-1.488 -0.17,-0.496 -0.34,-0.988 -0.51,-1.484 -0.17,-0.496 -0.33,-0.993 -0.5,-1.489 -0.17,-0.492 -0.34,-0.988 -0.51,-1.484 -0.17,-0.496 -0.34,-0.992 -0.51,-1.488 -0.16,-0.493 -0.34,-0.989 -0.5,-1.485 -0.17,-0.496 -0.34,-0.992 -0.51,-1.488 -0.17,-0.492 -0.34,-0.988 -0.51,-1.484 -0.16,-0.496 -0.34,-0.993 -0.5,-1.485 -0.17,-0.496 -0.34,-0.992 -0.51,-1.488 -0.17,-0.496 -0.34,-0.988 -0.51,-1.484 -0.17,-0.496 -0.34,-0.993 -0.5,-1.489 -0.17,-0.496 -0.34,-0.988 -0.51,-1.484 -0.17,-0.496 -0.34,-0.992 -0.51,-1.488 -0.17,-0.493 -0.34,-0.989 -0.5,-1.485 -0.17,-0.496 -0.34,-0.992 -0.51,-1.488 -0.17,-0.492 -0.34,-0.988 -0.51,-1.484 -0.17,-0.496 -0.33,-0.993 -0.5,-1.485 -0.17,-0.496 -0.34,-0.992 -0.51,-1.488 -0.17,-0.496 -0.34,-0.992 -0.51,-1.484 -0.17,-0.496 -0.33,-0.993 -0.51,-1.489 -0.16,-0.496 -0.33,-0.988 -0.5,-1.484 -0.17,-0.496 -0.34,-0.992 -0.51,-1.488 -0.17,-0.496 -0.34,-0.989 -0.51,-1.485 -0.16,-0.496 -0.33,-0.992 -0.5,-1.488 -0.17,-0.492 -0.34,-0.988 -0.51,-1.484 -0.17,-0.496 -0.34,-0.993 -0.51,-1.489 -0.16,-0.492 -0.33,-0.988 -0.5,-1.484 -0.17,-0.496 -0.34,-0.992 -0.51,-1.484 -0.17,-0.496 -0.34,-0.993 -0.5,-1.489 -0.17,-0.496 -0.34,-0.988 -0.51,-1.484 -0.17,-0.496 -0.34,-0.992 -0.51,-1.488 -0.17,-0.496 -0.34,-0.989 -0.5,-1.485 -0.18,-0.496 -0.34,-0.992 -0.51,-1.488 -0.17,-0.496 -0.34,-0.988 -0.51,-1.484 -0.17,-0.496 -0.34,-0.993 -0.5,-1.489 -0.18,-0.492 -0.34,-0.988 -0.51,-1.484 -0.17,-0.496 -0.34,-0.992 -0.51,-1.488 -0.17,-0.492 -0.34,-0.989 -0.51,-1.485 -0.17,-0.496 -0.33,-0.992 -0.5,-1.484 -0.17,-0.496 -0.34,-0.992 -0.51,-1.488 -0.17,-0.496 -0.34,-0.993 -0.51,-1.485 -0.16,-0.496 -0.33,-0.992 -0.5,-1.488 -0.17,-0.496 -0.34,-0.988 -0.51,-1.484 -0.17,-0.496 -0.34,-0.993 -0.51,-1.489 -0.16,-0.496 -0.33,-0.988 -0.5,-1.484 -0.17,-0.496 -0.34,-0.992 -0.51,-1.488 -0.17,-0.492 -0.34,-0.989 -0.51,-1.485 -0.17,-0.496 -0.34,-0.992 -0.5,-1.488 -0.17,-0.492 -0.34,-0.988 -0.51,-1.484 -0.17,-0.496 -0.34,-0.993 -0.51,-1.485 -0.16,-0.496 -0.34,-0.992 -0.5,-1.488 -0.17,-0.496 -0.34,-0.992 -0.51,-1.484 -0.17,-0.496 -0.34,-0.993 -0.51,-1.489 -0.17,-0.496 -0.33,-0.988 -0.5,-1.484 -0.17,-0.496 -0.34,-0.992 -0.51,-1.488 -0.17,-0.496 -0.34,-0.989 -0.51,-1.485 -0.17,-0.496 -0.33,-0.992 -0.51,-1.488 -0.16,-0.492 -0.33,-0.988 -0.5,-1.484 -0.17,-0.496 -0.34,-0.993 -0.51,-1.489 -0.17,-0.492 -0.33,-0.988 -0.51,-1.484 -0.16,-0.496 -0.33,-0.992 -0.5,-1.484 -0.17,-0.496 -0.34,-0.993 -0.51,-1.489 -0.17,-0.496 -0.33,-0.992 -0.51,-1.484 -0.16,-0.496 -0.33,-0.992 -0.5,-1.488 -0.17,-0.496 -0.34,-0.989 -0.51,-1.485 -0.16,-0.496 -0.34,-0.992 -0.5,-1.488 -0.17,-0.496 -0.34,-0.988 -0.51,-1.484 -0.17,-0.496 -0.34,-0.993 -0.51,-1.489 -0.17,-0.492 -0.34,-0.988 -0.5,-1.484 -0.17,-0.496 -0.34,-0.992 -0.51,-1.484 -0.17,-0.496 -0.34,-0.993 -0.51,-1.489 -0.17,-0.496 -0.34,-0.992 -0.5,-1.484 -0.18,-0.496 -0.34,-0.992 -0.51,-1.488 -0.17,-0.496 -0.34,-0.992 -0.51,-1.485 -0.17,-0.496 -0.34,-0.992 -0.51,-1.488 -0.17,-0.496 -0.33,-0.988 -0.5,-1.484 -0.17,-0.496 -0.34,-0.993 -0.51,-1.489 -0.17,-0.496 -0.33,-0.988 -0.51,-1.484 -0.16,-0.496 -0.33,-0.992 -0.5,-1.488 -0.17,-0.492 -0.34,-0.989 -0.51,-1.485 -0.17,-0.496 -0.34,-0.992 -0.51,-1.488 -0.16,-0.492 -0.33,-0.988 -0.5,-1.484 -0.17,-0.496 -0.34,-0.992 -0.51,-1.485 -0.17,-0.496 -0.34,-0.992 -0.51,-1.488 -0.16,-0.496 -0.33,-0.992 -0.5,-1.484 -0.17,-0.496 -0.34,-0.993 -0.51,-1.489 -0.17,-0.496 -0.34,-0.988 -0.51,-1.484 -0.16,-0.496 -0.34,-0.992 -0.5,-1.488 -0.17,-0.492 -0.34,-0.989 -0.51,-1.485 -0.17,-0.496 -0.34,-0.992 -0.5,-1.488 -0.18,-0.492 -0.34,-0.988 -0.51,-1.484 -0.17,-0.496 -0.34,-0.992 -0.51,-1.485 -0.17,-0.496 -0.34,-0.992 -0.5,-1.488 -0.18,-0.496 -0.34,-0.992 -0.51,-1.484 -0.17,-0.496 -0.34,-0.993 -0.51,-1.489 -0.17,-0.496 -0.34,-0.992 -0.51,-1.484 -0.17,-0.496 -0.33,-0.992 -0.51,-1.488 -0.16,-0.496 -0.33,-0.989 -0.5,-1.485 -0.17,-0.496 -0.34,-0.992 -0.51,-1.488 -0.17,-0.492 -0.33,-0.988 -0.51,-1.484 -0.16,-0.496 -0.33,-0.992 -0.5,-1.489 -0.17,-0.492 -0.34,-0.988 -0.51,-1.484 -0.16,-0.496 -0.34,-0.992 -0.5,-1.484 -0.17,-0.496 -0.34,-0.993 -0.51,-1.489 -0.17,-0.496 -0.34,-0.992 -0.51,-1.484 -0.16,-0.496 -0.34,-0.992 -0.5,-1.488 -0.17,-0.496 -0.34,-0.989 -0.51,-1.485 -0.17,-0.496 -0.34,-0.992 -0.51,-1.488 -0.17,-0.496 -0.34,-0.988 -0.5,-1.484 -0.17,-0.496 -0.34,-0.992 -0.51,-1.489 -0.17,-0.492 -0.34,-0.988 -0.51,-1.484 -0.17,-0.496 -0.34,-0.992 -0.5,-1.488 -0.17,-0.492 -0.34,-0.989 -0.51,-1.485 -0.17,-0.496 -0.34,-0.992 -0.51,-1.484 -0.17,-0.496 -0.33,-0.992 -0.5,-1.488 -0.17,-0.496 -0.34,-0.992 -0.51,-1.485 -0.17,-0.496 -0.34,-0.992 -0.51,-1.488 -0.17,-0.496 -0.33,-0.988 -0.5,-1.484 -0.17,-0.496 -0.34,-0.992 -0.51,-1.489 -0.17,-0.492 -0.34,-0.988 -0.51,-1.484 -0.17,-0.496 -0.34,-0.992 -0.51,-1.488 -0.16,-0.492 -0.33,-0.989 -0.5,-1.485 -0.17,-0.496 -0.34,-0.992 -0.51,-1.484 -0.17,-0.496 -0.34,-0.992 -0.51,-1.488 -0.16,-0.496 -0.34,-0.992 -0.5,-1.485 -0.17,-0.496 -0.34,-0.992 -0.51,-1.488 -0.17,-0.496 -0.34,-0.992 -0.5,-1.484 -0.17,-0.496 -0.34,-0.992 -0.51,-1.489 -0.17,-0.496 -0.34,-0.988 -0.51,-1.484 -0.17,-0.496 -0.34,-0.992 -0.5,-1.488 -0.18,-0.492 -0.34,-0.989 -0.51,-1.485 -0.17,-0.496 -0.34,-0.992 -0.51,-1.488 -0.17,-0.492 -0.34,-0.988 -0.51,-1.484 -0.17,-0.496 -0.33,-0.992 -0.5,-1.489 -0.17,-0.492 -0.34,-0.988 -0.51,-1.484 -0.17,-0.496 -0.34,-0.992 -0.51,-1.484 -0.17,-0.496 -0.33,-0.992 -0.5,-1.489 -0.17,-0.496 -0.34,-0.988 -0.51,-1.484 -0.17,-0.496 -0.34,-0.992 -0.51,-1.488 -0.16,-0.496 -0.33,-0.989 -0.5,-1.485 -0.17,-0.496 -0.34,-0.992 -0.51,-1.488 -0.17,-0.496 -0.34,-0.988 -0.51,-1.484 -0.16,-0.496 -0.33,-0.992 -0.5,-1.489 -0.17,-0.492 -0.34,-0.988 -0.51,-1.484 -0.17,-0.496 -0.34,-0.992 -0.51,-1.488 -0.16,-0.492 -0.34,-0.988 -0.5,-1.485 -0.17,-0.496 -0.34,-0.992 -0.51,-1.484 -0.17,-0.496 -0.34,-0.992 -0.51,-1.488 -0.17,-0.496 -0.34,-0.992 -0.5,-1.485 -0.17,-0.496 -0.34,-0.992 -0.51,-1.488 -0.17,-0.496 -0.34,-0.988 -0.51,-1.484 -0.17,-0.496 -0.33,-0.992 -0.5,-1.489 -0.17,-0.492 -0.34,-0.988 -0.51,-1.484 -0.17,-0.496 -0.34,-0.992 -0.51,-1.488 -0.17,-0.492 -0.33,-0.988 -0.5,-1.485 -0.17,-0.496 -0.34,-0.992 -0.51,-1.484 -0.17,-0.496 -0.34,-0.992 -0.51,-1.488 -0.17,-0.496 -0.33,-0.992 -0.51,-1.485 -0.16,-0.496 -0.33,-0.992 -0.5,-1.488 -0.17,-0.496 -0.34,-0.988 -0.51,-1.484 -0.17,-0.496 -0.34,-0.992 -0.51,-1.489 -0.16,-0.496 -0.33,-0.988 -0.5,-1.484 -0.17,-0.496 -0.34,-0.992 -0.51,-1.488 -0.16,-0.496 -0.34,-0.988 -0.5,-1.485 -0.17,-0.496 -0.34,-0.992 -0.51,-1.488 -0.17,-0.492 -0.34,-0.988 -0.51,-1.484 -0.17,-0.496 -0.34,-0.992 -0.5,-1.485 -0.17,-0.496 -0.34,-0.992 -0.51,-1.488 -0.17,-0.496 -0.34,-0.992 -0.51,-1.484 -0.17,-0.496 -0.34,-0.992 -0.5,-1.489 -0.18,-0.496 -0.34,-0.992 -0.51,-1.484 -0.17,-0.496 -0.34,-0.992 -0.51,-1.488 -0.17,-0.496 -0.34,-0.988 -0.5,-1.485 -0.18,-0.496 -0.34,-0.992 -0.51,-1.488 -0.17,-0.492 -0.34,-0.988 -0.51,-1.484 -0.17,-0.496 -0.34,-0.992 -0.51,-1.489 -0.16,-0.492 -0.33,-0.988 -0.5,-1.484 -0.17,-0.496 -0.34,-0.992 -0.51,-1.484 -0.17,-0.496 -0.34,-0.992 -0.51,-1.489 -0.16,-0.496 -0.33,-0.988 -0.5,-1.484 -0.17,-0.496 -0.34,-0.992 -0.51,-1.488 -0.17,-0.496 -0.34,-0.988 -0.51,-1.485 -0.16,-0.496 -0.34,-0.992 -0.5,-1.488 -0.17,-0.496 -0.34,-0.988 -0.51,-1.484 -0.17,-0.496 -0.34,-0.992 -0.51,-1.489 -0.17,-0.492 -0.34,-0.988 -0.5,-1.484 -0.17,-0.496 -0.34,-0.992 -0.51,-1.488 -0.17,-0.492 -0.34,-0.988 -0.5,-1.485 -0.18,-0.496 -0.34,-0.992 -0.51,-1.484 -0.17,-0.496 -0.34,-0.992 -0.51,-1.488 -0.17,-0.496 -0.34,-0.992 -0.51,-1.485 -0.17,-0.496 -0.33,-0.992 -0.5,-1.488 -0.17,-0.496 -0.34,-0.988 -0.51,-1.484 -0.17,-0.496 -0.34,-0.992 -0.51,-1.489 -0.17,-0.492 -0.33,-0.988 -0.51,-1.484 -0.16,-0.496 -0.33,-0.992 -0.5,-1.488 -0.17,-0.492 -0.34,-0.988 -0.51,-1.485 -0.17,-0.496 -0.33,-0.992 -0.51,-1.488 -0.16,-0.492 -0.33,-0.988 -0.5,-1.484 -0.17,-0.496 -0.34,-0.992 -0.51,-1.485 -0.16,-0.496 -0.33,-0.992 -0.5,-1.488 -0.17,-0.496 -0.34,-0.992 -0.51,-1.484 -0.17,-0.496 -0.34,-0.992 -0.51,-1.489 -0.16,-0.496 -0.34,-0.988 -0.5,-1.484 -0.17,-0.496 -0.34,-0.992 -0.51,-1.488 -0.17,-0.496 -0.34,-0.988 -0.51,-1.485 -0.17,-0.496 -0.34,-0.992 -0.5,-1.488 -0.17,-0.496 -0.34,-0.988 -0.51,-1.484 -0.17,-0.496 -0.34,-0.992 -0.51,-1.488 -0.17,-0.493 -0.34,-0.989 -0.5,-1.485 -0.17,-0.496 -0.34,-0.992 -0.51,-1.484 -0.17,-0.496 -0.34,-0.992 -0.51,-1.489 -0.17,-0.496 -0.33,-0.992 -0.5,-1.484 -0.17,-0.496 -0.34,-0.992 -0.51,-1.488 -0.17,-0.496 -0.34,-0.988 -0.51,-1.485 -0.17,-0.496 -0.33,-0.992 -0.51,-1.488 -0.16,-0.492 -0.33,-0.988 -0.5,-1.484 -0.17,-0.496 -0.34,-0.992 -0.51,-1.488 -0.17,-0.493 -0.34,-0.989 -0.51,-1.485 -0.16,-0.496 -0.33,-0.992 -0.5,-1.484 -0.17,-0.496 -0.34,-0.992 -0.51,-1.489 -0.17,-0.496 -0.34,-0.992 -0.51,-1.484 -0.16,-0.496 -0.33,-0.992 -0.5,-1.488 -0.17,-0.496 -0.34,-0.988 -0.51,-1.485 -0.17,-0.496 -0.34,-0.992 -0.5,-1.488 -0.17,-0.496 -0.34,-0.988 -0.51,-1.484 -0.17,-0.496 -0.34,-0.992 -0.51,-1.488 -0.17,-0.497 -0.34,-0.989 -0.5,-1.485 -0.18,-0.496 -0.34,-0.992 -0.51,-1.488 -0.17,-0.492 -0.34,-0.988 -0.51,-1.485 -0.17,-0.496 -0.34,-0.992 -0.5,-1.484 -0.18,-0.496 -0.34,-0.992 -0.51,-1.488 -0.17,-0.496 -0.34,-0.992 -0.51,-1.485 -0.17,-0.496 -0.34,-0.992 -0.51,-1.488 -0.17,-0.496 -0.33,-0.992 -0.5,-1.484 -0.17,-0.496 -0.34,-0.992 -0.51,-1.488 -0.17,-0.497 -0.34,-0.989 -0.51,-1.485 -0.16,-0.496 -0.33,-0.992 -0.5,-1.488 -0.17,-0.496 -0.34,-0.988 -0.51,-1.4845 -0.17,-0.4961 -0.34,-0.9922 -0.51,-1.4883 -0.16,-0.4922 -0.34,-0.9883 -0.5,-1.4844 -0.17,-0.4961 -0.34,-0.9922 -0.51,-1.4883 -0.17,-0.4922 -0.34,-0.9882 -0.51,-1.4843 -0.16,-0.4961 -0.34,-0.9922 -0.5,-1.4844 -0.17,-0.4961 -0.34,-0.9922 -0.51,-1.4883 -0.17,-0.4961 -0.34,-0.9883 -0.51,-1.4844 -0.17,-0.4961 -0.34,-0.9922 -0.5,-1.4883 -0.17,-0.496 -0.34,-0.9882 -0.51,-1.4843 -0.17,-0.4961 -0.34,-0.9922 -0.51,-1.4883 -0.17,-0.4961 -0.33,-0.9883 -0.5,-1.4844 -0.17,-0.4961 -0.34,-0.9922 -0.51,-1.4883 -0.17,-0.4922 -0.34,-0.9882 -0.51,-1.4843 -0.17,-0.4961 -0.33,-0.9922 -0.5,-1.4844 -0.17,-0.4961 -0.34,-0.9922 -0.51,-1.4883 -0.17,-0.4961 -0.34,-0.9922 -0.51,-1.4844 -0.17,-0.4961 -0.33,-0.9922 -0.51,-1.4883 -0.16,-0.496 -0.33,-0.9882 -0.5,-1.4843 -0.17,-0.4961 -0.34,-0.9922 -0.51,-1.4883 -0.17,-0.4961 -0.34,-0.9883 -0.51,-1.4844 -0.16,-0.4961 -0.33,-0.9922 -0.5,-1.4883 -0.17,-0.4922 -0.34,-0.9882 -0.51,-1.4843 -0.17,-0.4961 -0.34,-0.9922 -0.5,-1.4883 -0.17,-0.4922 -0.34,-0.9883 -0.51,-1.4844 -0.17,-0.4961 -0.34,-0.9922 -0.51,-1.4844 -0.17,-0.4961 -0.34,-0.9922 -0.5,-1.4883 -0.17,-0.496 -0.34,-0.9921 -0.51,-1.4843 -0.17,-0.4961 -0.34,-0.9922 -0.51,-1.4883 -0.17,-0.4961 -0.34,-0.9883 -0.5,-1.4844 -0.18,-0.4961 -0.34,-0.9922 -0.51,-1.4883 -0.17,-0.4961 -0.34,-0.9882 -0.51,-1.4843 -0.17,-0.4961 -0.34,-0.9922 -0.51,-1.4883 -0.17,-0.4922 -0.33,-0.9883 -0.5,-1.4844 -0.17,-0.4961 -0.34,-0.9922 -0.51,-1.4883 -0.17,-0.4922 -0.34,-0.9883 -0.51,-1.4844 -0.16,-0.496 -0.33,-0.9921 -0.5,-1.4843 -0.17,-0.4961 -0.34,-0.9922 -0.51,-1.4883 -0.17,-0.4961 -0.34,-0.9922 -0.51,-1.4844 -0.16,-0.4961 -0.33,-0.9922 -0.5,-1.4883 -0.17,-0.4961 -0.34,-0.9882 -0.51,-1.4843 -0.17,-0.4961 -0.34,-0.9922 -0.51,-1.4883 -0.16,-0.4961 -0.33,-0.9883 -0.5,-1.4844 -0.17,-0.4961 -0.34,-0.9922 -0.51,-1.4883 -0.17,-0.4922 -0.34,-0.9883 -0.51,-1.4844 -0.16,-0.496 -0.34,-0.9921 -0.5,-1.4882 -0.17,-0.4922 -0.34,-0.9883 -0.51,-1.4844 -0.17,-0.4961 -0.34,-0.9922 -0.51,-1.4844 -0.17,-0.4961 -0.33,-0.9922 -0.5,-1.4883 -0.17,-0.4961 -0.34,-0.9882 -0.51,-1.4843 -0.17,-0.4961 -0.34,-0.9922 -0.5,-1.4883 -0.18,-0.4961 -0.34,-0.9922 -0.51,-1.4844 -0.17,-0.4961 -0.34,-0.9922 -0.51,-1.4883 -0.17,-0.4961 -0.34,-0.9883 -0.51,-1.4844 -0.17,-0.496 -0.33,-0.9921 -0.51,-1.4882 -0.16,-0.4922 -0.33,-0.9883 -0.5,-1.4844 -0.17,-0.4961 -0.34,-0.9922 -0.51,-1.4883 -0.17,-0.4922 -0.33,-0.9883 -0.51,-1.4844 -0.16,-0.4961 -0.33,-0.9922 -0.5,-1.4843 -0.17,-0.4961 -0.34,-0.9922 -0.51,-1.4883 -0.17,-0.4961 -0.34,-0.9883 -0.5,-1.4844 -0.17,-0.4961 -0.34,-0.99219 -0.51,-1.48828 -0.17,-0.49609 -0.34,-0.98828 -0.51,-1.48438 -0.16,-0.49609 -0.34,-0.99218 -0.5,-1.48828" /></g></g></svg>