<?xml version="1.0" encoding="UTF-8" standalone="no"?>
<svg
   xmlns:dc="http://purl.org/dc/elements/1.1/"
   xmlns:cc="http://creativecommons.org/ns#"
   xmlns:rdf="http://www.w3.org/1999/02/22-rdf-syntax-ns#"
   xmlns:svg="http://www.w3.org/2000/svg"
   xmlns="http://www.w3.org/2000/svg"
   viewBox="0 0 304.33334 110.21333"
   height="110.21333"
   width="304.33334"
   xml:space="preserve"
   id="svg2"
   version="1.1"><metadata
     id="metadata8"><rdf:RDF><cc:Work
         rdf:about=""><dc:format>image/svg+xml</dc:format><dc:type
           rdf:resource="http://purl.org/dc/dcmitype/StillImage" /></cc:Work></rdf:RDF></metadata><defs
     id="defs6" /><g
     transform="matrix(1.3333333,0,0,-1.3333333,0,110.21333)"
     id="g10"><g
       transform="scale(0.1)"
       id="g12"><path
         id="path14"
         style="fill:none;stroke:#000000;stroke-width:5.19999981;stroke-linecap:round;stroke-linejoin:miter;stroke-miterlimit:10;stroke-dasharray:none;stroke-opacity:1"
         d="m 100.258,304.371 c 483.547,1.137 483.547,1.137 483.547,1.137" /><path
         id="path16"
         style="fill:#000000;fill-opacity:1;fill-rule:evenodd;stroke:none"
         d="m 563.004,305.457 -10.375,-10.426 36.375,10.489 -36.426,10.312 10.426,-10.375" /><path
         id="path18"
         style="fill:none;stroke:#000000;stroke-width:2.5999999;stroke-linecap:butt;stroke-linejoin:miter;stroke-miterlimit:10;stroke-dasharray:none;stroke-opacity:1"
         d="m 563.004,305.457 -10.375,-10.426 36.375,10.489 -36.426,10.312 z" /><path
         id="path20"
         style="fill:#000000;fill-opacity:1;fill-rule:evenodd;stroke:none"
         d="m 223.449,261.262 c 0,7.551 1.141,14.054 3.418,19.508 2.281,5.453 5.309,9.511 9.082,12.183 2.93,2.113 5.957,3.172 9.082,3.172 5.078,0 9.637,-2.586 13.672,-7.762 5.047,-6.414 7.57,-15.105 7.57,-26.074 0,-7.684 -1.105,-14.211 -3.32,-19.582 -2.215,-5.371 -5.039,-9.269 -8.473,-11.695 -3.433,-2.422 -6.746,-3.637 -9.937,-3.637 -6.313,0 -11.57,3.727 -15.77,11.184 -3.546,6.281 -5.324,13.847 -5.324,22.703 z m 9.571,-1.219 c 0,-9.117 1.125,-16.555 3.371,-22.316 1.855,-4.852 4.621,-7.274 8.3,-7.274 1.758,0 3.582,0.789 5.469,2.367 1.887,1.578 3.32,4.223 4.297,7.934 1.496,5.598 2.246,13.492 2.246,23.684 0,7.55 -0.781,13.847 -2.344,18.894 -1.171,3.742 -2.687,6.398 -4.543,7.961 -1.332,1.074 -2.945,1.609 -4.832,1.609 -2.214,0 -4.183,-0.992 -5.91,-2.976 -2.344,-2.703 -3.937,-6.953 -4.785,-12.746 -0.844,-5.793 -1.269,-11.508 -1.269,-17.137 v 0" /><path
         id="path22"
         style="fill:none;stroke:#000000;stroke-width:5.19999981;stroke-linecap:round;stroke-linejoin:miter;stroke-miterlimit:10;stroke-dasharray:none;stroke-opacity:1"
         d="M 291.359,9.92969 C 290.496,741.004 290.496,741.004 290.496,741.004" /><path
         id="path24"
         style="fill:#000000;fill-opacity:1;fill-rule:evenodd;stroke:none"
         d="m 290.52,720.203 10.414,-10.387 -10.442,36.387 -10.359,-36.414 10.387,10.414" /><path
         id="path26"
         style="fill:none;stroke:#000000;stroke-width:2.5999999;stroke-linecap:butt;stroke-linejoin:miter;stroke-miterlimit:10;stroke-dasharray:none;stroke-opacity:1"
         d="m 290.52,720.203 10.414,-10.387 -10.442,36.387 -10.359,-36.414 z" /><path
         id="path28"
         style="fill:#000000;fill-opacity:1;fill-rule:evenodd;stroke:none"
         d="m 564.027,371.656 c 1.598,-1.691 2.801,-3.383 3.614,-5.078 0.586,-1.172 1.547,-4.246 2.882,-9.226 l 4.297,6.445 c 1.141,1.562 2.524,3.051 4.149,4.469 1.629,1.414 3.062,2.382 4.297,2.902 0.781,0.328 1.644,0.488 2.589,0.488 1.399,0 2.516,-0.371 3.344,-1.121 0.832,-0.75 1.246,-1.66 1.246,-2.734 0,-1.238 -0.246,-2.082 -0.734,-2.539 -0.91,-0.813 -1.953,-1.223 -3.125,-1.223 -0.684,0 -1.414,0.149 -2.195,0.441 -1.532,0.52 -2.555,0.782 -3.078,0.782 -0.782,0 -1.708,-0.457 -2.782,-1.367 -2.019,-1.692 -4.426,-4.965 -7.226,-9.817 l 4.004,-16.797 c 0.617,-2.57 1.14,-4.109 1.562,-4.613 0.422,-0.504 0.848,-0.758 1.27,-0.758 0.683,0 1.48,0.375 2.39,1.125 1.793,1.496 3.321,3.449 4.59,5.86 l 1.711,-0.879 c -2.051,-3.84 -4.656,-7.032 -7.812,-9.571 -1.79,-1.433 -3.305,-2.148 -4.543,-2.148 -1.821,0 -3.27,1.023 -4.344,3.074 -0.684,1.27 -2.102,6.738 -4.25,16.406 -5.078,-8.82 -9.145,-14.5 -12.207,-17.039 -1.985,-1.629 -3.906,-2.441 -5.762,-2.441 -1.301,0 -2.488,0.473 -3.562,1.414 -0.782,0.719 -1.172,1.68 -1.172,2.883 0,1.074 0.359,1.969 1.074,2.683 0.715,0.719 1.594,1.075 2.637,1.075 1.043,0 2.148,-0.52 3.32,-1.563 0.848,-0.746 1.496,-1.121 1.953,-1.121 0.391,0 0.895,0.262 1.512,0.781 1.531,1.239 3.613,3.906 6.25,8.008 2.637,4.102 4.363,7.063 5.176,8.887 -2.016,7.91 -3.106,12.094 -3.27,12.547 -0.75,2.117 -1.727,3.613 -2.93,4.492 -1.203,0.879 -2.98,1.32 -5.324,1.32 -0.746,0 -1.609,-0.031 -2.586,-0.098 v 1.758 l 13.035,2.293" /><path
         id="path30"
         style="fill:#000000;fill-opacity:1;fill-rule:evenodd;stroke:none"
         d="m 245.246,744.496 c 1.106,-1.887 1.871,-3.652 2.293,-5.297 0.426,-1.644 0.848,-4.875 1.27,-9.691 l 2.148,-24.024 c 1.953,2.344 4.785,6.055 8.496,11.133 1.793,2.473 4.004,5.844 6.641,10.106 1.597,2.605 2.574,4.429 2.929,5.468 0.196,0.524 0.293,1.059 0.293,1.614 0,0.355 -0.113,0.648 -0.339,0.879 -0.231,0.226 -0.825,0.496 -1.782,0.804 -0.961,0.309 -1.757,0.879 -2.394,1.707 -0.633,0.832 -0.953,1.785 -0.953,2.86 0,1.332 0.39,2.406 1.172,3.222 0.781,0.813 1.757,1.219 2.929,1.219 1.434,0 2.653,-0.594 3.664,-1.781 1.008,-1.188 1.512,-2.824 1.512,-4.906 0,-2.575 -0.879,-5.512 -2.637,-8.817 -1.758,-3.301 -5.14,-8.371 -10.156,-15.207 -5.012,-6.836 -11.082,-14.293 -18.211,-22.363 -4.918,-5.567 -8.562,-9.074 -10.937,-10.524 -2.379,-1.449 -4.411,-2.171 -6.106,-2.171 -1.008,0 -1.894,0.382 -2.66,1.144 -0.766,0.766 -1.148,1.652 -1.148,2.664 0,1.27 0.531,2.426 1.589,3.465 1.055,1.043 2.204,1.563 3.442,1.563 0.648,0 1.187,-0.145 1.609,-0.438 0.262,-0.164 0.547,-0.629 0.856,-1.395 0.308,-0.761 0.593,-1.277 0.855,-1.535 0.16,-0.164 0.356,-0.246 0.586,-0.246 0.195,0 0.535,0.164 1.023,0.489 1.793,1.109 3.875,2.867 6.25,5.273 3.125,3.191 5.438,5.797 6.934,7.812 l -2.734,30.957 c -0.453,5.114 -1.137,8.219 -2.051,9.329 -0.91,1.105 -2.441,1.66 -4.59,1.66 -0.684,0 -1.902,-0.098 -3.66,-0.293 l -0.441,1.804 14.308,3.516" /><path
         id="path32"
         style="fill:#000000;fill-opacity:1;fill-rule:evenodd;stroke:none"
         d="M 44.9727,780.48 H 19.3359 l -4.4921,-10.449 c -1.1055,-2.57 -1.6602,-4.492 -1.6602,-5.761 0,-1.008 0.4805,-1.895 1.4414,-2.661 0.9609,-0.765 3.0352,-1.261 6.2266,-1.488 v -1.808 H 0 v 1.808 c 2.76563,0.488 4.55859,1.121 5.37109,1.902 1.66016,1.563 3.5,4.739 5.51951,9.524 l 23.2891,54.492 h 1.7109 l 23.0469,-55.078 c 1.8555,-4.426 3.5391,-7.301 5.0508,-8.617 1.5156,-1.321 3.6211,-2.059 6.3242,-2.223 v -1.808 H 44.1914 v 1.808 c 2.6367,0.129 4.418,0.57 5.3438,1.317 0.9296,0.75 1.3945,1.66 1.3945,2.734 0,1.433 -0.6524,3.695 -1.9531,6.789 z m -1.3672,3.614 -11.2305,26.758 -11.5234,-26.758 z" /><path
         id="path34"
         style="fill:#000000;fill-opacity:1;fill-rule:evenodd;stroke:none"
         d="m 73.7305,825.695 v 2.051 c 4.9492,-2.441 9.0664,-5.32 12.3554,-8.641 4.6524,-4.753 8.25,-10.328 10.7891,-16.722 2.5391,-6.399 3.809,-13.063 3.809,-19.996 0,-10.09 -2.4809,-19.297 -7.4457,-27.614 -4.9649,-8.316 -11.4688,-14.265 -19.5078,-17.847 v 1.808 c 4.0039,2.246 7.3008,5.282 9.8867,9.106 2.5898,3.824 4.5078,8.691 5.7617,14.601 1.2539,5.907 1.8789,12.067 1.8828,18.481 -0.0039,6.933 -0.539,13.266 -1.6133,18.992 -0.8125,4.492 -1.832,8.09 -3.0507,10.793 -1.2227,2.703 -2.8399,5.305 -4.8594,7.813 -2.0195,2.507 -4.6875,4.898 -8.0078,7.175 v 0" /><path
         id="path36"
         style="fill:none;stroke:#000000;stroke-width:5.19999981;stroke-linecap:round;stroke-linejoin:miter;stroke-miterlimit:10;stroke-dasharray:none;stroke-opacity:1"
         d="m 830.008,303.805 c 475.122,1.136 475.122,1.136 475.122,1.136" /><path
         id="path38"
         style="fill:#000000;fill-opacity:1;fill-rule:evenodd;stroke:none"
         d="m 1284.33,304.891 -10.37,-10.426 36.37,10.488 -36.42,10.313 10.42,-10.375" /><path
         id="path40"
         style="fill:none;stroke:#000000;stroke-width:2.5999999;stroke-linecap:butt;stroke-linejoin:miter;stroke-miterlimit:10;stroke-dasharray:none;stroke-opacity:1"
         d="m 1284.33,304.891 -10.37,-10.426 36.37,10.488 -36.42,10.313 z" /><path
         id="path42"
         style="fill:#000000;fill-opacity:1;fill-rule:evenodd;stroke:none"
         d="m 992.633,254.762 c 0,7.554 1.14,14.054 3.418,19.508 2.277,5.453 5.309,9.511 9.079,12.183 2.93,2.113 5.96,3.172 9.08,3.172 5.08,0 9.64,-2.586 13.68,-7.762 5.04,-6.414 7.57,-15.105 7.57,-26.074 0,-7.684 -1.11,-14.211 -3.32,-19.582 -2.22,-5.371 -5.04,-9.269 -8.48,-11.691 -3.43,-2.426 -6.74,-3.641 -9.93,-3.641 -6.32,0 -11.57,3.727 -15.773,11.184 -3.551,6.281 -5.324,13.851 -5.324,22.703 z m 9.567,-1.219 c 0,-9.117 1.13,-16.555 3.37,-22.316 1.86,-4.848 4.63,-7.274 8.31,-7.274 1.75,0 3.57,0.789 5.46,2.367 1.89,1.578 3.32,4.223 4.3,7.934 1.5,5.601 2.25,13.492 2.25,23.684 0,7.55 -0.78,13.851 -2.35,18.894 -1.17,3.746 -2.68,6.398 -4.54,7.961 -1.34,1.074 -2.95,1.609 -4.83,1.609 -2.22,0 -4.19,-0.992 -5.91,-2.976 -2.35,-2.703 -3.94,-6.949 -4.79,-12.746 -0.84,-5.793 -1.27,-11.508 -1.27,-17.137 v 0" /><path
         id="path44"
         style="fill:none;stroke:#000000;stroke-width:5.19999981;stroke-linecap:round;stroke-linejoin:miter;stroke-miterlimit:10;stroke-dasharray:none;stroke-opacity:1"
         d="m 1042.43,15.5078 c -0.86,731.0702 -0.86,731.0702 -0.86,731.0702" /><path
         id="path46"
         style="fill:#000000;fill-opacity:1;fill-rule:evenodd;stroke:none"
         d="m 1041.59,725.777 10.41,-10.386 -10.44,36.386 -10.36,-36.41 10.39,10.41" /><path
         id="path48"
         style="fill:none;stroke:#000000;stroke-width:2.5999999;stroke-linecap:butt;stroke-linejoin:miter;stroke-miterlimit:10;stroke-dasharray:none;stroke-opacity:1"
         d="m 1041.59,725.777 10.41,-10.386 -10.44,36.386 -10.36,-36.41 z" /><path
         id="path50"
         style="fill:#000000;fill-opacity:1;fill-rule:evenodd;stroke:none"
         d="m 1271.18,374.098 c 1.59,-1.696 2.8,-3.387 3.61,-5.078 0.59,-1.172 1.55,-4.25 2.88,-9.231 l 4.29,6.445 c 1.15,1.563 2.53,3.055 4.16,4.469 1.63,1.418 3.06,2.383 4.29,2.906 0.79,0.325 1.65,0.489 2.59,0.489 1.4,0 2.52,-0.375 3.35,-1.125 0.83,-0.746 1.24,-1.66 1.24,-2.735 0,-1.234 -0.24,-2.082 -0.73,-2.539 -0.91,-0.812 -1.95,-1.219 -3.13,-1.219 -0.68,0 -1.41,0.145 -2.19,0.438 -1.53,0.523 -2.56,0.781 -3.08,0.781 -0.78,0 -1.71,-0.453 -2.78,-1.367 -2.02,-1.691 -4.43,-4.965 -7.23,-9.812 l 4,-16.797 c 0.62,-2.575 1.14,-4.11 1.57,-4.614 0.42,-0.507 0.84,-0.757 1.27,-0.757 0.68,0 1.48,0.375 2.39,1.121 1.79,1.5 3.32,3.453 4.59,5.859 l 1.71,-0.879 c -2.05,-3.84 -4.66,-7.031 -7.82,-9.57 -1.78,-1.43 -3.3,-2.149 -4.53,-2.149 -1.83,0 -3.28,1.028 -4.35,3.079 -0.68,1.269 -2.1,6.738 -4.25,16.406 -5.08,-8.824 -9.15,-14.504 -12.21,-17.043 -1.98,-1.625 -3.9,-2.442 -5.76,-2.442 -1.3,0 -2.49,0.473 -3.56,1.418 -0.79,0.715 -1.18,1.676 -1.18,2.879 0,1.074 0.36,1.969 1.08,2.688 0.72,0.715 1.6,1.074 2.64,1.074 1.04,0 2.14,-0.523 3.32,-1.563 0.84,-0.75 1.5,-1.125 1.95,-1.125 0.39,0 0.9,0.262 1.51,0.782 1.54,1.238 3.62,3.906 6.25,8.008 2.64,4.101 4.37,7.066 5.18,8.886 -2.02,7.91 -3.11,12.094 -3.27,12.551 -0.75,2.113 -1.73,3.613 -2.93,4.492 -1.21,0.879 -2.98,1.317 -5.32,1.317 -0.75,0 -1.61,-0.032 -2.59,-0.098 v 1.758 l 13.04,2.297" /><path
         id="path52"
         style="fill:#000000;fill-opacity:1;fill-rule:evenodd;stroke:none"
         d="m 986.25,748.063 c 1.109,-1.891 1.875,-3.657 2.297,-5.301 0.422,-1.645 0.848,-4.875 1.269,-9.692 l 2.149,-24.023 c 1.953,2.344 4.785,6.055 8.495,11.133 1.79,2.472 4,5.843 6.64,10.109 1.6,2.602 2.57,4.426 2.93,5.469 0.2,0.519 0.29,1.055 0.29,1.609 0,0.36 -0.11,0.653 -0.34,0.879 -0.23,0.227 -0.82,0.496 -1.78,0.805 -0.96,0.308 -1.76,0.879 -2.39,1.711 -0.64,0.828 -0.95,1.781 -0.95,2.855 0,1.336 0.39,2.41 1.17,3.223 0.78,0.812 1.76,1.223 2.93,1.223 1.43,0 2.65,-0.598 3.66,-1.786 1.01,-1.187 1.51,-2.824 1.51,-4.906 0,-2.57 -0.88,-5.508 -2.63,-8.812 -1.76,-3.305 -5.15,-8.375 -10.16,-15.211 -5.012,-6.836 -11.086,-14.289 -18.215,-22.364 -4.914,-5.566 -8.559,-9.074 -10.937,-10.523 -2.375,-1.449 -4.411,-2.172 -6.102,-2.172 -1.008,0 -1.898,0.383 -2.66,1.149 -0.766,0.765 -1.149,1.652 -1.149,2.66 0,1.269 0.528,2.425 1.586,3.465 1.059,1.042 2.207,1.566 3.442,1.566 0.652,0 1.191,-0.149 1.613,-0.441 0.262,-0.165 0.543,-0.625 0.855,-1.391 0.309,-0.766 0.594,-1.277 0.852,-1.539 0.164,-0.164 0.359,-0.242 0.586,-0.246 0.195,0.004 0.539,0.164 1.027,0.488 1.789,1.109 3.875,2.867 6.25,5.273 3.125,3.192 5.438,5.797 6.934,7.817 l -2.734,30.957 c -0.458,5.109 -1.141,8.219 -2.051,9.324 -0.91,1.106 -2.442,1.66 -4.59,1.66 -0.684,0 -1.906,-0.097 -3.664,-0.293 l -0.438,1.809 14.305,3.516" /><path
         id="path54"
         style="fill:none;stroke:#000000;stroke-width:5.19999981;stroke-linecap:round;stroke-linejoin:miter;stroke-miterlimit:10;stroke-dasharray:none;stroke-opacity:1"
         d="m 1519.34,303.805 c 753.39,1.136 753.39,1.136 753.39,1.136" /><path
         id="path56"
         style="fill:#000000;fill-opacity:1;fill-rule:evenodd;stroke:none"
         d="m 2251.93,304.91 -10.39,-10.418 36.39,10.457 -36.42,10.344 10.42,-10.383" /><path
         id="path58"
         style="fill:none;stroke:#000000;stroke-width:2.5999999;stroke-linecap:butt;stroke-linejoin:miter;stroke-miterlimit:10;stroke-dasharray:none;stroke-opacity:1"
         d="m 2251.93,304.91 -10.39,-10.418 36.39,10.457 -36.42,10.344 z" /><path
         id="path60"
         style="fill:#000000;fill-opacity:1;fill-rule:evenodd;stroke:none"
         d="m 1905.13,350.23 c 0,7.555 1.14,14.055 3.42,19.508 2.27,5.453 5.3,9.512 9.08,12.184 2.93,2.113 5.96,3.172 9.08,3.172 5.08,0 9.64,-2.586 13.67,-7.762 5.05,-6.414 7.57,-15.105 7.57,-26.074 0,-7.684 -1.11,-14.211 -3.32,-19.582 -2.21,-5.371 -5.04,-9.27 -8.47,-11.692 -3.43,-2.425 -6.75,-3.64 -9.94,-3.64 -6.31,0 -11.57,3.726 -15.77,11.183 -3.55,6.282 -5.32,13.852 -5.32,22.703 z m 9.57,-1.218 c 0,-9.117 1.12,-16.555 3.37,-22.317 1.86,-4.847 4.62,-7.273 8.3,-7.273 1.76,0 3.58,0.789 5.47,2.367 1.89,1.578 3.32,4.223 4.3,7.934 1.49,5.601 2.24,13.492 2.24,23.683 0,7.551 -0.78,13.852 -2.34,18.895 -1.17,3.746 -2.69,6.398 -4.54,7.961 -1.34,1.074 -2.95,1.609 -4.84,1.609 -2.21,0 -4.18,-0.992 -5.91,-2.976 -2.34,-2.704 -3.93,-6.95 -4.78,-12.747 -0.85,-5.793 -1.27,-11.507 -1.27,-17.136 v 0" /><path
         id="path62"
         style="fill:none;stroke:#000000;stroke-width:5.19999981;stroke-linecap:round;stroke-linejoin:miter;stroke-miterlimit:10;stroke-dasharray:none;stroke-opacity:1"
         d="M 1889.27,3.70313 C 1888.41,740.41 1888.41,740.41 1888.41,740.41" /><path
         id="path64"
         style="fill:#000000;fill-opacity:1;fill-rule:evenodd;stroke:none"
         d="m 1888.44,719.609 10.41,-10.386 -10.44,36.386 -10.36,-36.414 10.39,10.414" /><path
         id="path66"
         style="fill:none;stroke:#000000;stroke-width:2.5999999;stroke-linecap:butt;stroke-linejoin:miter;stroke-miterlimit:10;stroke-dasharray:none;stroke-opacity:1"
         d="m 1888.44,719.609 10.41,-10.386 -10.44,36.386 -10.36,-36.414 z" /><path
         id="path68"
         style="fill:#000000;fill-opacity:1;fill-rule:evenodd;stroke:none"
         d="m 2256.07,267.559 c 1.59,-1.692 2.8,-3.387 3.61,-5.079 0.59,-1.171 1.55,-4.246 2.88,-9.226 l 4.3,6.445 c 1.14,1.563 2.52,3.051 4.15,4.465 1.63,1.418 3.06,2.387 4.29,2.906 0.79,0.325 1.65,0.489 2.59,0.489 1.4,0 2.52,-0.375 3.35,-1.121 0.83,-0.75 1.24,-1.661 1.24,-2.735 0,-1.238 -0.24,-2.086 -0.73,-2.539 -0.91,-0.816 -1.95,-1.223 -3.12,-1.223 -0.69,0 -1.42,0.149 -2.2,0.442 -1.53,0.519 -2.56,0.781 -3.08,0.781 -0.78,0 -1.71,-0.457 -2.78,-1.367 -2.02,-1.695 -4.43,-4.965 -7.23,-9.817 l 4.01,-16.796 c 0.61,-2.571 1.13,-4.11 1.56,-4.614 0.42,-0.504 0.84,-0.757 1.27,-0.757 0.68,0 1.48,0.375 2.39,1.125 1.79,1.496 3.32,3.449 4.59,5.859 l 1.71,-0.879 c -2.05,-3.844 -4.66,-7.031 -7.81,-9.57 -1.79,-1.434 -3.31,-2.149 -4.54,-2.149 -1.83,0 -3.28,1.024 -4.35,3.074 -0.69,1.27 -2.1,6.739 -4.25,16.407 -5.08,-8.821 -9.15,-14.5 -12.21,-17.039 -1.98,-1.629 -3.9,-2.442 -5.76,-2.442 -1.3,0 -2.49,0.469 -3.56,1.414 -0.78,0.715 -1.17,1.676 -1.17,2.883 0,1.074 0.35,1.969 1.07,2.684 0.72,0.715 1.6,1.074 2.64,1.074 1.04,0 2.15,-0.52 3.32,-1.563 0.84,-0.75 1.5,-1.121 1.95,-1.121 0.39,0 0.9,0.258 1.51,0.782 1.54,1.234 3.62,3.906 6.25,8.007 2.64,4.102 4.37,7.063 5.18,8.887 -2.02,7.91 -3.11,12.09 -3.27,12.547 -0.75,2.117 -1.73,3.613 -2.93,4.492 -1.21,0.879 -2.98,1.32 -5.32,1.32 -0.75,0 -1.61,-0.035 -2.59,-0.097 v 1.758 l 13.04,2.293" /><path
         id="path70"
         style="fill:#000000;fill-opacity:1;fill-rule:evenodd;stroke:none"
         d="m 1843.16,743.93 c 1.11,-1.887 1.88,-3.653 2.3,-5.297 0.42,-1.645 0.84,-4.875 1.27,-9.692 l 2.15,-24.023 c 1.95,2.344 4.78,6.055 8.49,11.133 1.79,2.472 4.01,5.84 6.64,10.105 1.6,2.606 2.57,4.426 2.93,5.469 0.2,0.52 0.29,1.059 0.29,1.613 0,0.356 -0.11,0.649 -0.34,0.879 -0.23,0.227 -0.82,0.496 -1.78,0.805 -0.96,0.308 -1.76,0.879 -2.39,1.707 -0.64,0.832 -0.95,1.785 -0.95,2.859 0,1.332 0.39,2.407 1.17,3.223 0.78,0.812 1.76,1.219 2.93,1.219 1.43,0 2.65,-0.594 3.66,-1.782 1.01,-1.187 1.51,-2.824 1.51,-4.906 0,-2.574 -0.88,-5.512 -2.63,-8.816 -1.76,-3.301 -5.15,-8.371 -10.16,-15.207 -5.01,-6.836 -11.09,-14.293 -18.21,-22.364 -4.92,-5.566 -8.56,-9.074 -10.94,-10.523 -2.38,-1.449 -4.41,-2.172 -6.1,-2.172 -1.01,0 -1.9,0.383 -2.66,1.145 -0.77,0.765 -1.15,1.652 -1.15,2.664 0,1.269 0.52,2.426 1.58,3.465 1.06,1.043 2.21,1.562 3.44,1.562 0.66,0 1.2,-0.144 1.62,-0.437 0.26,-0.164 0.55,-0.629 0.85,-1.395 0.31,-0.762 0.6,-1.277 0.86,-1.535 0.16,-0.164 0.35,-0.246 0.58,-0.246 0.2,0 0.54,0.164 1.03,0.488 1.79,1.106 3.87,2.863 6.25,5.274 3.12,3.191 5.44,5.796 6.93,7.812 l -2.73,30.957 c -0.46,5.109 -1.14,8.219 -2.05,9.328 -0.91,1.106 -2.44,1.66 -4.59,1.66 -0.69,0 -1.91,-0.097 -3.67,-0.293 l -0.43,1.805 14.3,3.516" /><path
         id="path72"
         style="fill:#000000;fill-opacity:1;fill-rule:evenodd;stroke:none"
         d="m 815.691,823.961 0.684,-14.453 h -1.758 c -1.039,4.687 -2.644,7.664 -4.808,8.933 -2.164,1.27 -6.012,1.907 -11.547,1.907 h -11.133 v -26.223 h 2.637 c 8.105,0 14.062,-0.512 17.871,-1.539 3.808,-1.023 6.91,-2.984 9.301,-5.883 2.394,-2.898 3.589,-6.379 3.589,-10.449 0,-4.914 -1.824,-9.227 -5.468,-12.938 -3.649,-3.711 -9.93,-5.566 -18.848,-5.566 h -28.027 v 1.805 c 4.101,0.129 6.722,0.781 7.859,1.953 1.141,1.172 1.711,3.941 1.711,8.301 v 42.089 c 0,3.352 -0.238,5.618 -0.707,6.79 -0.473,1.171 -1.246,2 -2.32,2.488 -1.075,0.488 -3.059,0.812 -5.957,0.976 v 1.809 z m -28.562,-62.258 c 2.863,-0.453 5.094,-0.683 6.687,-0.683 4.004,0 7.625,1.335 10.868,4.003 3.238,2.668 4.855,6.364 4.855,11.086 0,4.883 -1.691,8.504 -5.078,10.864 -3.383,2.359 -7.68,3.539 -12.891,3.539 -1.465,0 -2.945,-0.129 -4.441,-0.391 v -28.418" /><path
         id="path74"
         style="fill:#000000;fill-opacity:1;fill-rule:evenodd;stroke:none"
         d="m 826.094,825.133 v 2.051 c 4.949,-2.442 9.066,-5.325 12.351,-8.645 4.657,-4.754 8.254,-10.328 10.793,-16.723 2.539,-6.398 3.809,-13.062 3.809,-19.996 0,-10.09 -2.484,-19.293 -7.445,-27.613 -4.965,-8.316 -11.469,-14.266 -19.508,-17.844 v 1.805 c 4.004,2.246 7.301,5.281 9.886,9.105 2.59,3.829 4.508,8.692 5.762,14.602 1.254,5.906 1.879,12.066 1.879,18.48 0,6.934 -0.535,13.266 -1.609,18.997 -0.813,4.492 -1.832,8.086 -3.051,10.789 -1.223,2.703 -2.84,5.304 -4.859,7.812 -2.02,2.508 -4.688,4.899 -8.008,7.18 v 0" /><path
         id="path76"
         style="fill:#000000;fill-opacity:1;fill-rule:evenodd;stroke:none"
         d="m 1534.06,791.535 c 4.59,-0.976 8.02,-2.539 10.3,-4.687 3.16,-2.993 4.74,-6.657 4.74,-10.985 0,-3.289 -1.05,-6.437 -3.13,-9.449 -2.08,-3.012 -4.94,-5.207 -8.57,-6.59 -3.63,-1.386 -9.17,-2.078 -16.62,-2.078 h -31.25 v 1.809 h 2.49 c 2.76,0 4.75,0.879 5.95,2.636 0.75,1.137 1.13,3.563 1.13,7.274 v 42.773 c 0,4.102 -0.47,6.692 -1.42,7.766 -1.27,1.43 -3.16,2.148 -5.66,2.148 h -2.49 v 1.805 h 28.61 c 5.34,0 9.62,-0.391 12.84,-1.172 4.88,-1.172 8.61,-3.246 11.18,-6.222 2.57,-2.981 3.86,-6.407 3.86,-10.282 0,-3.32 -1.01,-6.289 -3.03,-8.91 -2.02,-2.621 -4.99,-4.566 -8.93,-5.836 z m -25.59,2.637 c 1.21,-0.227 2.58,-0.399 4.13,-0.512 1.54,-0.113 3.24,-0.172 5.1,-0.172 4.75,0 8.32,0.516 10.72,1.539 2.39,1.028 4.22,2.598 5.49,4.711 1.27,2.117 1.91,4.43 1.91,6.934 0,3.875 -1.58,7.18 -4.74,9.914 -3.16,2.734 -7.76,4.102 -13.82,4.102 -3.26,0 -6.19,-0.36 -8.79,-1.075 z m 0,-31.641 c 3.78,-0.879 7.51,-1.316 11.18,-1.316 5.89,0 10.39,1.324 13.48,3.98 3.09,2.653 4.64,5.93 4.64,9.836 0,2.574 -0.7,5.047 -2.1,7.422 -1.4,2.379 -3.68,4.25 -6.84,5.617 -3.15,1.368 -7.06,2.051 -11.72,2.051 -2.01,0 -3.74,-0.035 -5.17,-0.098 -1.43,-0.066 -2.59,-0.179 -3.47,-0.343 v -27.149" /><path
         id="path78"
         style="fill:#000000;fill-opacity:1;fill-rule:evenodd;stroke:none"
         d="m 1556.91,825.129 v 2.051 c 4.95,-2.442 9.06,-5.321 12.35,-8.641 4.66,-4.754 8.26,-10.328 10.79,-16.723 2.54,-6.398 3.81,-13.062 3.81,-19.996 0,-10.09 -2.48,-19.297 -7.45,-27.613 -4.96,-8.316 -11.46,-14.266 -19.5,-17.848 v 1.809 c 4,2.246 7.3,5.281 9.89,9.105 2.58,3.825 4.5,8.692 5.76,14.602 1.25,5.906 1.88,12.066 1.88,18.48 0,6.934 -0.54,13.266 -1.61,18.993 -0.82,4.492 -1.83,8.09 -3.06,10.793 -1.22,2.699 -2.84,5.304 -4.85,7.812 -2.02,2.504 -4.69,4.899 -8.01,7.176 v 0" /><path
         id="path80"
         style="fill:none;stroke:#000000;stroke-width:8;stroke-linecap:round;stroke-linejoin:round;stroke-miterlimit:10;stroke-dasharray:none;stroke-opacity:1"
         d="M 170.289,715.848 C 422.613,23.1875 422.613,23.1875 422.613,23.1875" /><path
         id="path82"
         style="fill:none;stroke:#000000;stroke-width:8;stroke-linecap:round;stroke-linejoin:round;stroke-miterlimit:10;stroke-dasharray:none;stroke-opacity:1"
         d="M 1153.06,721.426 C 1010.11,20.75 1010.11,20.75 1010.11,20.75" /><path
         id="path84"
         style="fill:none;stroke:#000000;stroke-width:8;stroke-linecap:round;stroke-linejoin:round;stroke-miterlimit:10;stroke-dasharray:none;stroke-opacity:1"
         d="m 1524.32,348.617 c 739.13,-203.41 739.13,-203.41 739.13,-203.41" /></g></g></svg>