<?xml version="1.0" encoding="UTF-8" standalone="no"?>
<svg
   xmlns:dc="http://purl.org/dc/elements/1.1/"
   xmlns:cc="http://creativecommons.org/ns#"
   xmlns:rdf="http://www.w3.org/1999/02/22-rdf-syntax-ns#"
   xmlns:svg="http://www.w3.org/2000/svg"
   xmlns="http://www.w3.org/2000/svg"
   viewBox="0 0 114.41333 128.65334"
   height="128.65334"
   width="114.41333"
   xml:space="preserve"
   id="svg2"
   version="1.1"><metadata
     id="metadata8"><rdf:RDF><cc:Work
         rdf:about=""><dc:format>image/svg+xml</dc:format><dc:type
           rdf:resource="http://purl.org/dc/dcmitype/StillImage" /></cc:Work></rdf:RDF></metadata><defs
     id="defs6" /><g
     transform="matrix(1.3333333,0,0,-1.3333333,0,128.65333)"
     id="g10"><g
       transform="scale(0.1)"
       id="g12"><path
         id="path14"
         style="fill:none;stroke:#000000;stroke-width:3.50079989;stroke-linecap:butt;stroke-linejoin:miter;stroke-miterlimit:10;stroke-dasharray:none;stroke-opacity:1"
         d="M 4.93359,12.7109 H 856.313 V 962.77 H 4.93359 Z" /><path
         id="path16"
         style="fill:none;stroke:#000000;stroke-width:7.5005002;stroke-linecap:butt;stroke-linejoin:miter;stroke-miterlimit:10;stroke-dasharray:none;stroke-opacity:1"
         d="M 3.75,488.105 H 821.227" /><path
         id="path18"
         style="fill:#000000;fill-opacity:1;fill-rule:evenodd;stroke:none"
         d="m 856.313,488.105 -70.559,30.239 c 10.078,-20.16 10.078,-40.321 0,-60.481 l 70.559,30.242" /><path
         id="path20"
         style="fill:none;stroke:#000000;stroke-width:7.5005002;stroke-linecap:butt;stroke-linejoin:miter;stroke-miterlimit:10;stroke-dasharray:none;stroke-opacity:1"
         d="M 570.777,12.5898 V 925.703" /><path
         id="path22"
         style="fill:#000000;fill-opacity:1;fill-rule:evenodd;stroke:none"
         d="m 571.719,963.215 -30.242,-70.559 c 20.16,10.078 40.32,10.078 60.48,0 l -30.238,70.559" /><path
         id="path24"
         style="fill:#000000;fill-opacity:1;fill-rule:nonzero;stroke:none"
         d="m 527.195,952.441 c 1.063,-1.812 1.797,-3.507 2.203,-5.086 0.407,-1.578 0.813,-4.679 1.219,-9.304 l 2.067,-23.063 c 1.871,2.25 4.589,5.813 8.152,10.688 1.719,2.375 3.844,5.609 6.375,9.703 1.531,2.5 2.469,4.25 2.812,5.25 0.188,0.5 0.282,1.016 0.282,1.547 0,0.344 -0.106,0.625 -0.328,0.844 -0.219,0.218 -0.789,0.476 -1.711,0.773 -0.918,0.297 -1.688,0.844 -2.297,1.641 -0.61,0.796 -0.914,1.711 -0.914,2.742 0,1.281 0.375,2.312 1.125,3.094 0.75,0.781 1.687,1.171 2.812,1.171 1.375,0 2.547,-0.57 3.516,-1.711 0.969,-1.14 1.453,-2.71 1.453,-4.71 0,-2.469 -0.844,-5.29 -2.527,-8.461 -1.692,-3.172 -4.942,-8.039 -9.75,-14.602 -4.817,-6.562 -10.645,-13.719 -17.489,-21.469 -4.718,-5.343 -8.218,-8.711 -10.5,-10.101 -2.281,-1.391 -4.234,-2.086 -5.859,-2.086 -0.969,0 -1.816,0.367 -2.555,1.101 -0.734,0.735 -1.097,1.586 -1.097,2.555 0,1.219 0.507,2.328 1.523,3.328 1.016,1 2.113,1.5 3.301,1.5 0.625,0 1.14,-0.14 1.547,-0.422 0.254,-0.156 0.523,-0.601 0.82,-1.336 0.297,-0.734 0.57,-1.226 0.82,-1.476 0.157,-0.156 0.344,-0.235 0.563,-0.235 0.187,0 0.515,0.157 0.984,0.469 1.719,1.063 3.723,2.75 6,5.063 3,3.062 5.223,5.562 6.656,7.5 l -2.625,29.718 c -0.437,4.907 -1.089,7.891 -1.968,8.954 -0.875,1.062 -2.344,1.593 -4.407,1.593 -0.652,0 -1.828,-0.093 -3.515,-0.281 l -0.422,1.734 13.734,3.375" /><path
         id="path26"
         style="fill:none;stroke:#000000;stroke-width:3.50079989;stroke-linecap:butt;stroke-linejoin:miter;stroke-miterlimit:10;stroke-dasharray:none;stroke-opacity:1"
         d="M 7.05078,866.43 H 856.313" /><path
         id="path28"
         style="fill:none;stroke:#000000;stroke-width:3.50079989;stroke-linecap:butt;stroke-linejoin:miter;stroke-miterlimit:10;stroke-dasharray:none;stroke-opacity:1"
         d="M 5.91016,771.543 H 855.172" /><path
         id="path30"
         style="fill:none;stroke:#000000;stroke-width:3.50079989;stroke-linecap:butt;stroke-linejoin:miter;stroke-miterlimit:10;stroke-dasharray:none;stroke-opacity:1"
         d="M 5.91016,676.719 H 855.172" /><path
         id="path32"
         style="fill:none;stroke:#000000;stroke-width:3.50079989;stroke-linecap:butt;stroke-linejoin:miter;stroke-miterlimit:10;stroke-dasharray:none;stroke-opacity:1"
         d="M 5.91016,581.906 H 855.172" /><path
         id="path34"
         style="fill:none;stroke:#000000;stroke-width:3.50079989;stroke-linecap:butt;stroke-linejoin:miter;stroke-miterlimit:10;stroke-dasharray:none;stroke-opacity:1"
         d="M 7.05078,393.52 H 856.313" /><path
         id="path36"
         style="fill:none;stroke:#000000;stroke-width:3.50079989;stroke-linecap:butt;stroke-linejoin:miter;stroke-miterlimit:10;stroke-dasharray:none;stroke-opacity:1"
         d="M 5.97266,298.938 H 855.23" /><path
         id="path38"
         style="fill:none;stroke:#000000;stroke-width:3.50079989;stroke-linecap:butt;stroke-linejoin:miter;stroke-miterlimit:10;stroke-dasharray:none;stroke-opacity:1"
         d="M 5.97266,204.363 H 855.23" /><path
         id="path40"
         style="fill:none;stroke:#000000;stroke-width:3.50079989;stroke-linecap:butt;stroke-linejoin:miter;stroke-miterlimit:10;stroke-dasharray:none;stroke-opacity:1"
         d="M 5.97266,109.781 H 855.23" /><path
         id="path42"
         style="fill:none;stroke:#000000;stroke-width:3.50079989;stroke-linecap:butt;stroke-linejoin:miter;stroke-miterlimit:10;stroke-dasharray:none;stroke-opacity:1"
         d="M 99.6914,11.582 V 962.766" /><path
         id="path44"
         style="fill:none;stroke:#000000;stroke-width:3.50079989;stroke-linecap:butt;stroke-linejoin:miter;stroke-miterlimit:10;stroke-dasharray:none;stroke-opacity:1"
         d="M 194.363,11.582 V 962.766" /><path
         id="path46"
         style="fill:none;stroke:#000000;stroke-width:3.50079989;stroke-linecap:butt;stroke-linejoin:miter;stroke-miterlimit:10;stroke-dasharray:none;stroke-opacity:1"
         d="M 288.656,11.582 V 962.766" /><path
         id="path48"
         style="fill:none;stroke:#000000;stroke-width:3.50079989;stroke-linecap:butt;stroke-linejoin:miter;stroke-miterlimit:10;stroke-dasharray:none;stroke-opacity:1"
         d="M 477.617,11.582 V 962.766" /><path
         id="path50"
         style="fill:none;stroke:#000000;stroke-width:3.50079989;stroke-linecap:butt;stroke-linejoin:miter;stroke-miterlimit:10;stroke-dasharray:none;stroke-opacity:1"
         d="M 571.906,11.582 V 962.766" /><path
         id="path52"
         style="fill:none;stroke:#000000;stroke-width:3.50079989;stroke-linecap:butt;stroke-linejoin:miter;stroke-miterlimit:10;stroke-dasharray:none;stroke-opacity:1"
         d="M 666.578,11.957 V 963.148" /><path
         id="path54"
         style="fill:none;stroke:#000000;stroke-width:3.50079989;stroke-linecap:butt;stroke-linejoin:miter;stroke-miterlimit:10;stroke-dasharray:none;stroke-opacity:1"
         d="M 760.871,11.957 V 963.148" /><path
         id="path56"
         style="fill:none;stroke:#000000;stroke-width:10.00059986;stroke-linecap:butt;stroke-linejoin:miter;stroke-miterlimit:10;stroke-dasharray:none;stroke-opacity:1"
         d="M 666.473,507.82 V 470.055" /><path
         id="path58"
         style="fill:none;stroke:#000000;stroke-width:10.00059986;stroke-linecap:butt;stroke-linejoin:miter;stroke-miterlimit:10;stroke-dasharray:none;stroke-opacity:1"
         d="m 555.984,581.906 h 37.758" /><path
         id="path60"
         style="fill:#000000;fill-opacity:1;fill-rule:nonzero;stroke:none"
         d="m 825.566,567.574 c 1.532,-1.625 2.688,-3.25 3.469,-4.875 0.563,-1.125 1.485,-4.078 2.766,-8.859 l 4.125,6.187 c 1.094,1.5 2.422,2.93 3.984,4.289 1.563,1.36 2.938,2.289 4.125,2.789 0.75,0.313 1.578,0.469 2.485,0.469 1.343,0 2.414,-0.359 3.21,-1.078 0.797,-0.719 1.196,-1.594 1.196,-2.625 0,-1.187 -0.235,-2 -0.703,-2.437 -0.875,-0.782 -1.875,-1.172 -3,-1.172 -0.657,0 -1.36,0.14 -2.11,0.422 -1.468,0.5 -2.453,0.75 -2.953,0.75 -0.75,0 -1.64,-0.438 -2.672,-1.313 -1.937,-1.625 -4.25,-4.766 -6.937,-9.422 l 3.844,-16.125 c 0.593,-2.469 1.093,-3.945 1.5,-4.429 0.406,-0.485 0.812,-0.727 1.218,-0.727 0.657,0 1.422,0.359 2.297,1.078 1.719,1.438 3.188,3.313 4.406,5.625 l 1.641,-0.844 c -1.969,-3.687 -4.469,-6.75 -7.5,-9.187 -1.719,-1.375 -3.172,-2.063 -4.359,-2.063 -1.75,0 -3.141,0.985 -4.172,2.953 -0.656,1.219 -2.016,6.469 -4.078,15.75 -4.875,-8.468 -8.782,-13.921 -11.719,-16.359 -1.906,-1.562 -3.75,-2.344 -5.531,-2.344 -1.25,0 -2.391,0.453 -3.422,1.36 -0.75,0.687 -1.125,1.609 -1.125,2.765 0,1.032 0.344,1.891 1.031,2.578 0.688,0.688 1.531,1.032 2.531,1.032 1,0 2.063,-0.5 3.188,-1.5 0.812,-0.719 1.437,-1.078 1.875,-1.078 0.375,0 0.859,0.25 1.453,0.75 1.469,1.187 3.469,3.75 6,7.687 2.531,3.938 4.187,6.781 4.969,8.531 -1.938,7.594 -2.985,11.61 -3.141,12.047 -0.719,2.031 -1.656,3.469 -2.812,4.313 -1.157,0.843 -2.86,1.265 -5.11,1.265 -0.719,0 -1.547,-0.031 -2.484,-0.093 v 1.687 l 12.515,2.203" /><path
         id="path62"
         style="fill:#000000;fill-opacity:1;fill-rule:nonzero;stroke:none"
         d="m 541.891,473.707 c 4.218,0 7.953,-0.914 11.203,-2.742 3.25,-1.828 5.797,-4.531 7.64,-8.11 1.844,-3.578 2.766,-7.289 2.766,-11.132 0,-6.813 -1.977,-13.961 -5.93,-21.446 -3.953,-7.484 -9.117,-13.195 -15.492,-17.132 -6.375,-3.938 -12.969,-5.907 -19.781,-5.907 -4.906,0 -9.008,1.086 -12.305,3.258 -3.297,2.172 -5.734,5.039 -7.312,8.602 -1.578,3.562 -2.367,7.015 -2.367,10.359 0,5.938 1.429,11.805 4.289,17.602 2.859,5.796 6.273,10.64 10.242,14.531 3.969,3.89 8.203,6.883 12.703,8.976 4.5,2.094 9.281,3.141 14.344,3.141 z m -1.594,-3 c -3.125,0 -6.18,-0.773 -9.164,-2.32 -2.985,-1.547 -5.945,-4.078 -8.883,-7.594 -2.937,-3.516 -5.578,-8.117 -7.922,-13.805 -2.875,-7 -4.312,-13.609 -4.312,-19.828 0,-4.437 1.14,-8.367 3.422,-11.789 2.281,-3.422 5.781,-5.133 10.5,-5.133 2.843,0 5.632,0.703 8.367,2.11 2.734,1.406 5.586,3.812 8.554,7.218 3.719,4.282 6.844,9.743 9.375,16.383 2.532,6.641 3.797,12.836 3.797,18.586 0,4.25 -1.14,8.008 -3.422,11.274 -2.281,3.265 -5.718,4.898 -10.312,4.898 v 0" /><path
         id="path64"
         style="fill:#000000;fill-opacity:1;fill-rule:nonzero;stroke:none"
         d="m 602.199,601.523 15.469,7.547 h 1.547 v -53.672 c 0,-3.562 0.148,-5.781 0.445,-6.656 0.297,-0.875 0.914,-1.547 1.852,-2.015 0.937,-0.469 2.843,-0.735 5.718,-0.797 v -1.735 h -23.906 v 1.735 c 3,0.062 4.938,0.32 5.813,0.773 0.875,0.453 1.484,1.063 1.828,1.828 0.344,0.766 0.515,3.055 0.515,6.867 v 34.313 c 0,4.625 -0.156,7.594 -0.468,8.906 -0.219,1 -0.617,1.735 -1.196,2.203 -0.578,0.469 -1.273,0.703 -2.086,0.703 -1.156,0 -2.765,-0.484 -4.828,-1.453 l -0.703,1.453" /><path
         id="path66"
         style="fill:#000000;fill-opacity:1;fill-rule:nonzero;stroke:none"
         d="m 677.309,559.828 15.468,7.547 h 1.547 v -53.672 c 0,-3.562 0.149,-5.781 0.446,-6.656 0.296,-0.875 0.914,-1.547 1.851,-2.016 0.938,-0.468 2.844,-0.734 5.719,-0.797 V 502.5 h -23.906 v 1.734 c 3,0.063 4.937,0.321 5.812,0.774 0.875,0.453 1.484,1.062 1.828,1.828 0.344,0.766 0.516,3.055 0.516,6.867 v 34.313 c 0,4.625 -0.156,7.593 -0.469,8.906 -0.219,1 -0.617,1.734 -1.195,2.203 -0.578,0.469 -1.274,0.703 -2.086,0.703 -1.156,0 -2.766,-0.484 -4.828,-1.453 l -0.703,1.453" /><path
         id="path68"
         style="fill:none;stroke:#000000;stroke-width:8;stroke-linecap:butt;stroke-linejoin:miter;stroke-miterlimit:10;stroke-dasharray:none;stroke-opacity:1"
         d="m 196.309,305.801 c 0,-0.106 0.73,2.281 0.73,2.176 0,-0.11 0.731,2.265 0.731,2.16 0,-0.106 0.73,2.254 0.73,2.152 0,-0.105 0.727,2.242 0.727,2.137 0,-0.102 0.73,2.23 0.73,2.129 0,-0.102 0.731,2.215 0.731,2.117 0,-0.102 0.726,2.203 0.726,2.105 0,-0.101 0.731,2.188 0.731,2.09 0,-0.094 0.73,2.18 0.73,2.086 0,-0.098 0.727,2.164 0.727,2.07 0,-0.093 0.73,2.153 0.73,2.059 0,-0.094 0.731,2.141 0.731,2.047 0,-0.09 0.726,2.129 0.726,2.039 0,-0.09 0.731,2.113 0.731,2.023 0,-0.089 0.73,2.102 0.73,2.016 0,-0.09 0.727,2.086 0.727,2 0,-0.082 0.73,2.074 0.73,1.992 0,-0.082 0.731,2.063 0.731,1.981 0,-0.082 0.726,2.047 0.726,1.968 0,-0.082 0.731,2.036 0.731,1.957 0,-0.078 0.73,2.02 0.73,1.946 0,-0.078 0.727,2.008 0.727,1.933 0,-0.074 0.73,1.996 0.73,1.922 0,-0.074 0.731,1.985 0.731,1.914 0,-0.074 0.726,1.969 0.726,1.899 0,-0.071 0.731,1.957 0.731,1.89 0,-0.07 0.73,1.942 0.73,1.875 0,-0.066 0.727,1.934 0.727,1.868 0,-0.067 0.73,1.918 0.73,1.855 0,-0.066 0.731,1.902 0.731,1.844 0,-0.063 0.726,1.89 0.726,1.828 0,-0.059 0.731,1.879 0.731,1.824 0,-0.058 0.73,1.863 0.73,1.809 0,-0.059 0.727,1.851 0.727,1.797 0,-0.055 0.73,1.839 0.73,1.785 0,-0.051 0.731,1.828 0.731,1.777 0,-0.051 0.726,1.813 0.726,1.762 0,-0.051 0.731,1.801 0.731,1.754 0,-0.051 0.73,1.785 0.73,1.738 0,-0.043 0.727,1.773 0.727,1.73 0,-0.042 0.73,1.762 0.73,1.719 0,-0.043 0.731,1.746 0.731,1.707 0,-0.039 0.726,1.735 0.726,1.696 0,-0.039 0.731,1.718 0.731,1.683 0,-0.039 0.73,1.707 0.73,1.672 0,-0.035 0.727,1.695 0.727,1.66 0,-0.031 0.73,1.684 0.73,1.653 0,-0.032 0.731,1.668 0.731,1.636 0,-0.027 0.726,1.657 0.726,1.629 0,-0.027 0.731,1.641 0.731,1.613 0,-0.023 0.73,1.629 0.73,1.606 0,-0.024 0.727,1.613 0.727,1.594 0,-0.024 0.73,1.601 0.73,1.582 0,-0.02 0.731,1.586 0.731,1.57 0,-0.02 0.726,1.574 0.726,1.559 0,-0.02 0.731,1.558 0.731,1.546 0,-0.015 0.73,1.547 0.73,1.536 0,-0.012 0.727,1.535 0.727,1.523 0,-0.008 0.73,1.524 0.73,1.516 0,-0.008 0.731,1.508 0.731,1.5 0,-0.004 0.73,1.496 0.73,1.492 0,-0.004 0.727,1.48 0.727,1.476 l 0.73,1.469 0.73,1.457 c 0,0 0.727,1.442 0.727,1.446 0,0.003 0.731,1.429 0.731,1.433 0,0.004 0.73,1.414 0.73,1.422 0,0.008 0.727,1.402 0.727,1.41 0,0.012 0.73,1.391 0.73,1.403 0,0.007 0.73,1.375 0.73,1.386 0,0.012 0.727,1.364 0.727,1.375 0,0.016 0.731,1.352 0.731,1.367 0,0.016 0.73,1.336 0.73,1.356 0,0.016 0.727,1.32 0.727,1.34 0,0.019 0.73,1.308 0.73,1.332 0,0.023 0.73,1.297 0.73,1.32 0,0.024 0.727,1.281 0.727,1.309 0,0.023 0.731,1.269 0.731,1.297 0,0.027 0.73,1.257 0.73,1.285 0,0.031 0.727,1.242 0.727,1.273 0,0.031 0.73,1.231 0.73,1.266 0,0.031 0.73,1.215 0.73,1.25 0,0.035 0.727,1.203 0.727,1.238 0,0.039 0.731,1.191 0.731,1.231 0,0.039 0.73,1.175 0.73,1.218 0,0.039 0.727,1.164 0.727,1.203 0,0.043 0.73,1.153 0.73,1.196 0,0.047 0.73,1.14 0.73,1.183 0,0.047 0.727,1.125 0.727,1.172 0,0.051 0.731,1.113 0.731,1.16 0,0.051 0.73,1.098 0.73,1.153 0,0.05 0.727,1.082 0.727,1.136 0,0.051 0.73,1.071 0.73,1.125 0,0.055 0.73,1.059 0.73,1.118 0,0.054 0.727,1.043 0.727,1.101 0,0.059 0.731,1.031 0.731,1.094 0,0.058 0.73,1.019 0.73,1.082 0,0.059 0.727,1.004 0.727,1.066 0,0.067 0.73,0.996 0.73,1.059 0,0.066 0.73,0.98 0.73,1.047 0,0.066 0.727,0.969 0.727,1.035 0,0.07 0.731,0.953 0.731,1.027 0,0.067 0.73,0.938 0.73,1.012 0,0.07 0.727,0.926 0.727,1 0,0.074 0.73,0.914 0.73,0.988 0,0.078 0.73,0.903 0.73,0.981 0,0.078 0.727,0.886 0.727,0.969 0,0.078 0.731,0.875 0.731,0.953 0,0.082 0.73,0.863 0.73,0.945 0,0.082 0.727,0.848 0.727,0.934 0,0.082 0.73,0.835 0.73,0.921 0,0.086 0.73,0.825 0.73,0.911 0,0.086 0.731,0.808 0.731,0.898 0,0.086 0.727,0.797 0.727,0.887 0,0.09 0.73,0.785 0.73,0.875 0,0.093 0.73,0.773 0.73,0.867 0,0.09 0.727,0.758 0.727,0.851 0,0.094 0.73,0.747 0.73,0.844 0,0.094 0.731,0.731 0.731,0.828 0,0.098 0.727,0.723 0.727,0.821 0,0.097 0.73,0.707 0.73,0.808 0,0.102 0.73,0.696 0.73,0.797 0,0.102 0.727,0.68 0.727,0.785 0,0.102 0.73,0.668 0.73,0.774 0,0.105 0.731,0.656 0.731,0.761 0,0.106 0.727,0.645 0.727,0.75 0,0.11 0.73,0.633 0.73,0.743 0,0.105 0.73,0.617 0.73,0.726 0,0.11 0.727,0.606 0.727,0.719 0,0.109 0.73,0.59 0.73,0.703 0,0.113 0.731,0.582 0.731,0.695 0,0.114 0.727,0.567 0.727,0.684 0,0.113 0.73,0.555 0.73,0.668 0,0.117 0.73,0.543 0.73,0.66 0,0.117 0.727,0.531 0.727,0.649 0,0.121 0.73,0.519 0.73,0.64 0,0.117 0.731,0.504 0.731,0.625 0,0.121 0.727,0.492 0.727,0.613 0,0.122 0.73,0.481 0.73,0.602 0,0.125 0.73,0.469 0.73,0.594 0,0.125 0.727,0.453 0.727,0.578 0,0.129 0.73,0.445 0.73,0.57 0,0.129 0.731,0.43 0.731,0.559 0,0.125 0.727,0.418 0.727,0.547 0,0.129 0.73,0.402 0.73,0.531 0,0.133 0.73,0.394 0.73,0.523 0,0.133 0.727,0.383 0.727,0.516 0,0.129 0.73,0.367 0.73,0.5 0,0.133 0.731,0.355 0.731,0.488 0,0.133 0.727,0.344 0.727,0.477 0,0.137 0.73,0.332 0.73,0.469 0,0.132 0.73,0.316 0.73,0.453 0,0.136 0.727,0.308 0.727,0.445 0,0.137 0.73,0.293 0.73,0.43 0,0.14 0.731,0.285 0.731,0.422 0,0.14 0.727,0.269 0.727,0.41 0,0.14 0.73,0.258 0.73,0.398 0,0.141 0.73,0.246 0.73,0.387 0,0.141 0.731,0.234 0.731,0.375 0,0.144 0.726,0.223 0.726,0.363 0,0.145 0.731,0.211 0.731,0.356 0,0.14 0.73,0.195 0.73,0.339 0,0.145 0.727,0.184 0.727,0.333 0,0.144 0.73,0.171 0.73,0.316 0,0.148 0.731,0.16 0.731,0.309 0,0.144 0.726,0.148 0.726,0.296 0,0.145 0.731,0.137 0.731,0.282 0,0.148 0.73,0.125 0.73,0.273 0,0.149 0.727,0.113 0.727,0.262 0,0.148 0.73,0.101 0.73,0.25 0,0.148 0.731,0.09 0.731,0.238 0,0.152 0.726,0.078 0.726,0.231 0,0.148 0.731,0.066 0.731,0.214 0,0.153 0.73,0.055 0.73,0.207 0,0.149 0.727,0.039 0.727,0.192 0,0.152 0.73,0.031 0.73,0.183 0,0.153 0.731,0.016 0.731,0.168 0,0.153 0.726,0.008 0.726,0.161 0,0.152 0.731,-0.004 0.731,0.148 0,0.152 0.73,-0.016 0.73,0.137 0,0.152 0.727,-0.028 0.727,0.125 0,0.152 0.73,-0.039 0.73,0.113 0,0.152 0.731,-0.051 0.731,0.102 0,0.156 0.726,-0.063 0.726,0.093 0,0.153 0.731,-0.074 0.731,0.078 0,0.153 0.73,-0.086 0.73,0.071 0,0.152 0.727,-0.098 0.727,0.054 0,0.157 0.73,-0.109 0.73,0.047 0,0.153 0.731,-0.121 0.731,0.032 0,0.156 0.726,-0.129 0.726,0.023 0,0.156 0.731,-0.141 0.731,0.012 0,0.156 0.73,-0.153 0.73,0 0,0.156 0.727,-0.164 0.727,-0.012 0,0.156 0.73,-0.176 0.73,-0.023 0,0.156 0.731,-0.188 0.731,-0.032 0,0.153 0.726,-0.199 0.726,-0.047 0,0.157 0.731,-0.211 0.731,-0.054 0,0.152 0.73,-0.223 0.73,-0.071 0,0.153 0.727,-0.234 0.727,-0.078 0,0.153 0.73,-0.246 0.73,-0.093 0,0.156 0.731,-0.254 0.731,-0.102 0,0.152 0.726,-0.266 0.726,-0.113 0,0.152 0.731,-0.278 0.731,-0.125 0,0.152 0.73,-0.289 0.73,-0.137 0,0.152 0.727,-0.301 0.727,-0.148 0,0.152 0.73,-0.313 0.73,-0.161 0,0.153 0.731,-0.32 0.731,-0.168 0,0.153 0.726,-0.336 0.726,-0.183 0,0.152 0.731,-0.344 0.731,-0.192 0,0.149 0.73,-0.355 0.73,-0.207 0,0.153 0.731,-0.367 0.731,-0.214 0,0.148 0.726,-0.379 0.726,-0.231 0,0.152 0.731,-0.387 0.731,-0.238 0,0.148 0.73,-0.399 0.73,-0.25 0,0.148 0.727,-0.41 0.727,-0.262 0,0.149 0.73,-0.418 0.73,-0.273 0,0.148 0.731,-0.43 0.731,-0.282 0,0.145 0.726,-0.445 0.726,-0.296 0,0.144 0.731,-0.454 0.731,-0.309 0,0.148 0.73,-0.465 0.73,-0.316 0,0.144 0.727,-0.477 0.727,-0.333 0,0.145 0.73,-0.484 0.73,-0.339 0,0.14 0.731,-0.496 0.731,-0.356 0,0.145 0.726,-0.504 0.726,-0.363 0,0.144 0.731,-0.516 0.731,-0.375 0,0.141 0.73,-0.527 0.73,-0.387 0,0.141 0.727,-0.539 0.727,-0.398 0,0.14 0.73,-0.547 0.73,-0.41 0,0.14 0.731,-0.559 0.731,-0.422 0,0.14 0.726,-0.567 0.726,-0.43 0,0.137 0.731,-0.582 0.731,-0.445 0,0.136 0.73,-0.59 0.73,-0.453 0,0.132 0.727,-0.602 0.727,-0.469 0,0.137 0.73,-0.61 0.73,-0.477 0,0.133 0.731,-0.621 0.731,-0.488 0,0.133 0.726,-0.633 0.726,-0.5 0,0.129 0.731,-0.645 0.731,-0.516 0,0.133 0.73,-0.652 0.73,-0.523 0,0.133 0.727,-0.66 0.727,-0.531 0,0.129 0.73,-0.676 0.73,-0.547 0,0.125 0.731,-0.684 0.731,-0.559 0,0.129 0.726,-0.695 0.726,-0.57 0,0.129 0.731,-0.703 0.731,-0.578 0,0.125 0.73,-0.715 0.73,-0.594 0,0.125 0.727,-0.723 0.727,-0.602 0,0.122 0.73,-0.734 0.73,-0.613 0,0.121 0.731,-0.746 0.731,-0.625 0,0.117 0.726,-0.758 0.726,-0.64 0,0.121 0.731,-0.766 0.731,-0.649 0,0.117 0.73,-0.773 0.73,-0.66 0,0.117 0.727,-0.785 0.727,-0.668 0,0.113 0.73,-0.797 0.73,-0.684 0,0.114 0.731,-0.808 0.731,-0.695 0,0.113 0.73,-0.816 0.73,-0.703 0,0.109 0.727,-0.828 0.727,-0.719 0,0.11 0.73,-0.836 0.73,-0.726 0,0.105 0.731,-0.848 0.731,-0.743 0,0.11 0.726,-0.855 0.726,-0.75 0,0.106 0.731,-0.867 0.731,-0.761 0,0.105 0.73,-0.879 0.73,-0.774 0,0.102 0.727,-0.886 0.727,-0.785 0,0.102 0.73,-0.898 0.73,-0.797 0,0.102 0.731,-0.906 0.731,-0.808 0,0.097 0.726,-0.918 0.726,-0.821 0,0.098 0.731,-0.925 0.731,-0.828 0,0.094 0.73,-0.937 0.73,-0.844 0,0.094 0.727,-0.945 0.727,-0.851 0,0.09 0.73,-0.957 0.73,-0.867 0,0.093 0.731,-0.965 0.731,-0.875 0,0.09 0.726,-0.977 0.726,-0.887 0,0.086 0.731,-0.984 0.731,-0.898 0,0.086 0.73,-0.997 0.73,-0.911 0,0.086 0.727,-1.007 0.727,-0.921 0,0.082 0.73,-1.016 0.73,-0.934 0,0.082 0.731,-1.023 0.731,-0.945 0,0.082 0.726,-1.036 0.726,-0.953 0,0.078 0.731,-1.047 0.731,-0.969 0,0.078 0.73,-1.055 0.73,-0.981 0,0.078 0.727,-1.062 0.727,-0.988 0,0.074 0.73,-1.074 0.73,-1 0,0.07 0.731,-1.086 0.731,-1.012 0,0.067 0.726,-1.093 0.726,-1.027 0,0.07 0.731,-1.102 0.731,-1.035 0,0.066 0.73,-1.11 0.73,-1.047 0,0.066 0.727,-1.121 0.727,-1.059 0,0.067 0.73,-1.129 0.73,-1.066 0,0.059 0.731,-1.145 0.731,-1.082 0,0.058 0.726,-1.152 0.726,-1.094 0,0.059 0.731,-1.16 0.731,-1.101 0,0.054 0.73,-1.172 0.73,-1.118 0,0.055 0.727,-1.179 0.727,-1.125 0,0.051 0.73,-1.191 0.73,-1.136 0,0.05 0.731,-1.2 0.731,-1.153 0,0.051 0.726,-1.207 0.726,-1.16 0,0.051 0.731,-1.215 0.731,-1.172 0,0.047 0.73,-1.226 0.73,-1.183 0,0.047 0.727,-1.235 0.727,-1.196 0,0.043 0.73,-1.246 0.73,-1.203 0,0.039 0.731,-1.258 0.731,-1.218 0,0.039 0.726,-1.266 0.726,-1.231 0,0.039 0.731,-1.273 0.731,-1.238 0,0.035 0.73,-1.285 0.73,-1.25 0,0.031 0.727,-1.297 0.727,-1.266 0,0.031 0.73,-1.301 0.73,-1.273 0,0.031 0.731,-1.313 0.731,-1.285 0,0.027 0.726,-1.325 0.726,-1.297 0,0.023 0.731,-1.332 0.731,-1.309 0,0.024 0.73,-1.344 0.73,-1.32 0,0.023 0.731,-1.352 0.731,-1.332 0,0.019 0.726,-1.36 0.726,-1.34 0,0.016 0.731,-1.371 0.731,-1.356 0,0.016 0.73,-1.378 0.73,-1.367 0,0.016 0.727,-1.386 0.727,-1.375 0,0.012 0.73,-1.398 0.73,-1.386 0,0.007 0.731,-1.411 0.731,-1.403 0,0.012 0.726,-1.418 0.726,-1.41 0,0.008 0.731,-1.426 0.731,-1.422 0,0.004 0.73,-1.437 0.73,-1.433 0,0.003 0.727,-1.446 0.727,-1.446 l 0.73,-1.457 c 0,0 0.731,-1.465 0.731,-1.469 0,0 0.726,-1.472 0.726,-1.476 0,-0.004 0.731,-1.484 0.731,-1.492 0,-0.004 0.73,-1.492 0.73,-1.5 0,-0.008 0.727,-1.504 0.727,-1.516 0,-0.008 0.73,-1.512 0.73,-1.523 0,-0.012 0.731,-1.524 0.731,-1.536 0,-0.015 0.726,-1.531 0.726,-1.546 0,-0.02 0.731,-1.543 0.731,-1.559 0,-0.02 0.73,-1.551 0.73,-1.57 0,-0.02 0.727,-1.563 0.727,-1.582 0,-0.024 0.73,-1.571 0.73,-1.594 0,-0.024 0.731,-1.578 0.731,-1.606 0,-0.023 0.726,-1.585 0.726,-1.613 0,-0.027 0.731,-1.597 0.731,-1.629 0,-0.027 0.73,-1.605 0.73,-1.636 0,-0.032 0.727,-1.618 0.727,-1.653 0,-0.031 0.73,-1.625 0.73,-1.66 0,-0.035 0.731,-1.637 0.731,-1.672 0,-0.039 0.726,-1.644 0.726,-1.683 0,-0.039 0.731,-1.657 0.731,-1.696 0,-0.039 0.73,-1.664 0.73,-1.707 0,-0.043 0.727,-1.676 0.727,-1.719 0,-0.042 0.73,-1.683 0.73,-1.73 0,-0.043 0.731,-1.691 0.731,-1.738 0,-0.051 0.726,-1.703 0.726,-1.754 0,-0.051 0.731,-1.711 0.731,-1.762 0,-0.051 0.73,-1.723 0.73,-1.777 0,-0.051 0.727,-1.731 0.727,-1.785 0,-0.055 0.73,-1.743 0.73,-1.797 0,-0.059 0.731,-1.754 0.731,-1.809 0,-0.058 0.726,-1.762 0.726,-1.824 0,-0.059 0.731,-1.77 0.731,-1.828 0,-0.063 0.73,-1.781 0.73,-1.844 0,-0.066 0.727,-1.789 0.727,-1.855 0,-0.067 0.73,-1.801 0.73,-1.868 0,-0.066 0.731,-1.808 0.731,-1.875 0,-0.07 0.726,-1.82 0.726,-1.89 0,-0.071 0.731,-1.828 0.731,-1.899 0,-0.074 0.73,-1.84 0.73,-1.914 0,-0.074 0.727,-1.847 0.727,-1.922 0,-0.074 0.73,-1.859 0.73,-1.933 0,-0.078 0.731,-1.867 0.731,-1.946 0,-0.078 0.73,-1.878 0.73,-1.957 0,-0.082 0.727,-1.886 0.727,-1.968 0,-0.082 0.73,-1.899 0.73,-1.981 0,-0.082 0.731,-1.906 0.731,-1.992 0,-0.082 0.726,-1.914 0.726,-2 0,-0.09 0.731,-1.926 0.731,-2.016 0,-0.089 0.73,-1.933 0.73,-2.023 0,-0.09 0.727,-1.945 0.727,-2.039 0,-0.09 0.73,-1.953 0.73,-2.047 0,-0.094 0.731,-1.965 0.731,-2.059 0,-0.093 0.726,-1.976 0.726,-2.07 0,-0.098 0.731,-1.988 0.731,-2.086 0,-0.094 0.73,-1.992 0.73,-2.09 0,-0.101 0.727,-2.007 0.727,-2.105 0,-0.102 0.73,-2.016 0.73,-2.117 0,-0.102 0.731,-2.024 0.731,-2.129 0,-0.102 0.726,-2.035 0.726,-2.137 0,-0.105 0.731,-2.047 0.731,-2.152 0,-0.106 0.73,-2.055 0.73,-2.16 0,-0.11 0.727,-2.067 0.727,-2.176 0,-0.106 0.73,-2.074 0.73,-2.184 0,-0.109 0.731,-2.086 0.731,-2.195 0,-0.113 0.726,-2.094 0.726,-2.207 0,-0.113 0.731,-2.106 0.731,-2.219 0,-0.113 0.73,-2.117 0.73,-2.23 0,-0.118 0.727,-2.125 0.727,-2.243 0,-0.117 0.73,-2.136 0.73,-2.253 0,-0.118 0.731,-2.145 0.731,-2.262 0,-0.121 0.726,-2.156 0.726,-2.278 0,-0.121 0.731,-2.164 0.731,-2.285 0,-0.121 0.73,-2.175 0.73,-2.3 0,-0.122 0.727,-2.184 0.727,-2.309 0,-0.125 0.73,-2.195 0.73,-2.32 0,-0.125 0.731,-2.207 0.731,-2.332 0,-0.125 0.726,-2.219 0.726,-2.344 0,-0.129 0.731,-2.227 0.731,-2.356 0,-0.129 0.73,-2.238 0.73,-2.367 0,-0.129 0.727,-2.25 0.727,-2.379 0,-0.129 0.73,-2.258 0.73,-2.39 0,-0.129 0.731,-2.266 0.731,-2.399 0,-0.133 0.726,-2.281 0.726,-2.414 0,-0.133 0.731,-2.289 0.731,-2.422 0,-0.133 0.73,-2.3 0.73,-2.433 0,-0.137 0.727,-2.313 0.727,-2.45 0,-0.136 0.73,-2.32 0.73,-2.457 0,-0.136 0.731,-2.332 0.731,-2.468 0,-0.137 0.73,-2.34 0.73,-2.481 0,-0.136 0.727,-2.351 0.727,-2.492 0,-0.141 0.73,-2.363 0.73,-2.504 0,-0.137 0.731,-2.371 0.731,-2.512 0,-0.14 0.726,-2.386 0.726,-2.527 0,-0.141 0.731,-2.394 0.731,-2.539 0,-0.141 0.73,-2.402 0.73,-2.547 0,-0.144 0.727,-2.418 0.727,-2.558 0,-0.145 0.73,-2.43 0.73,-2.575 0,-0.144 0.731,-2.437 0.731,-2.582 0,-0.144 0.726,-2.449 0.726,-2.593 0,-0.145 0.731,-2.457 0.731,-2.606 0,-0.144 0.73,-2.469 0.73,-2.617 0,-0.149 0.727,-2.481 0.727,-2.629 0,-0.148 0.73,-2.492 0.73,-2.641 0,-0.148 0.731,-2.5 0.731,-2.648 0,-0.149 0.726,-2.516 0.726,-2.664 0,-0.149 0.731,-2.524 0.731,-2.672 0,-0.152 0.73,-2.535 0.73,-2.688 0,-0.148 0.727,-2.546 0.727,-2.695 0,-0.152 0.73,-2.558 0.73,-2.707 0,-0.152 0.731,-2.57 0.731,-2.719 0,-0.152 0.726,-2.582 0.726,-2.734 0,-0.148 0.731,-2.59 0.731,-2.742 0,-0.149 0.73,-2.598 0.73,-2.754 0,-0.149 0.727,-2.609 0.727,-2.762 0,-0.152 0.73,-2.625 0.73,-2.777 0,-0.152 0.731,-2.633 0.731,-2.789 0,-0.153 0.726,-2.645 0.726,-2.797 0,-0.156 0.731,-2.656 0.731,-2.813 0,-0.152 0.73,-2.668 0.73,-2.82 0,-0.152 0.727,-2.68 0.727,-2.832 0,-0.156 0.73,-2.691 0.73,-2.844 0,-0.156 0.731,-2.703 0.731,-2.859 0,-0.152 0.726,-2.711 0.726,-2.867 0,-0.153 0.731,-2.723 0.731,-2.875 0,-0.156 0.73,-2.739 0.73,-2.891 0,-0.156 0.727,-2.75 0.727,-2.902 0,-0.156 0.73,-2.758 0.73,-2.914 0,-0.153 0.731,-2.77 0.731,-2.922 0,-0.156 0.726,-2.781 0.726,-2.938 0,-0.152 0.731,-2.793 0.731,-2.945 0,-0.156 0.73,-2.805 0.73,-2.961 0,-0.152 0.727,-2.812 0.727,-2.969 0,-0.152 0.73,-2.828 0.73,-2.98 0,-0.152 0.731,-2.84 0.731,-2.992 0,-0.157 0.726,-2.852 0.726,-3.004 0,-0.153 0.731,-2.863 0.731,-3.016 0,-0.152 0.73,-2.875 0.73,-3.027 0,-0.153 0.727,-2.883 0.727,-3.035 0,-0.157 0.73,-2.899 0.73,-3.051 0,-0.152 0.731,-2.91 0.731,-3.063 0,-0.152 0.726,-2.9176 0.726,-3.0699 0,-0.1524 0.731,-2.9336 0.731,-3.0821 0,-0.1523 0.73,-2.9453 0.73,-3.0976 0,-0.1524 0.731,-2.9531 0.731,-3.1055 0,-0.1523 0.726,-2.9648 0.726,-3.1172 0,-0.1523 0.731,-2.9804 0.731,-3.1289 0,-0.1484 0.73,-2.9922 0.73,-3.1406 0,-0.1484 0.727,-3.0039 0.727,-3.1524 0,-0.1484 0.73,-3.0156 0.73,-3.164 0,-0.1485 0.731,-3.0235 0.731,-3.1719 0,-0.1484 0.726,-3.0391 0.726,-3.1875 0,-0.1484 0.731,-3.0508 0.731,-3.1953 0,-0.1484 0.73,-3.0625 0.73,-3.2109 0,-0.1446 0.727,-3.0743 0.727,-3.2188 0,-0.1445 0.73,-3.0859 0.73,-3.2305 0,-0.1484 0.731,-3.0976 0.731,-3.2421 0,-0.1446 0.726,-3.1133 0.726,-3.254 0,-0.1445 0.731,-3.125 0.731,-3.2656 0,-0.1445 0.73,-3.1367 0.73,-3.2773 0,-0.1446 0.727,-3.1485 0.727,-3.2891 0,-0.1406 0.73,-3.1601 0.73,-3.3008 0,-0.1406 0.731,-3.1718 0.731,-3.3125 0,-0.1367 0.726,-3.1797 0.726,-3.3203 0,-0.1406 0.731,-3.1953 0.731,-3.332 0,-0.1406 0.73,-3.2109 0.73,-3.3477 0,-0.1367 0.727,-3.2187 0.727,-3.3554 0,-0.1368 0.73,-3.2305 0.73,-3.3672 0,-0.1367 0.731,-3.2461 0.731,-3.3789 0,-0.1367 0.726,-3.25784 0.726,-3.39066 0,-0.13671 0.731,-3.26953 0.731,-3.40234" /><path
         id="path70"
         style="fill:none;stroke:#000000;stroke-width:3.50079989;stroke-linecap:butt;stroke-linejoin:miter;stroke-miterlimit:10;stroke-dasharray:none;stroke-opacity:1"
         d="M 383.281,11.4961 V 962.676" /><path
         id="path72"
         style="fill:none;stroke:#000000;stroke-width:8;stroke-linecap:butt;stroke-linejoin:miter;stroke-miterlimit:10;stroke-dasharray:none;stroke-opacity:1"
         d="m 475.707,305.68 c 0,-0.11 -0.73,2.277 -0.73,2.172 0,-0.106 -0.727,2.269 -0.727,2.16 0,-0.106 -0.73,2.258 -0.73,2.152 0,-0.105 -0.731,2.242 -0.731,2.137 0,-0.102 -0.726,2.23 -0.726,2.129 0,-0.102 -0.731,2.218 -0.731,2.117 0,-0.102 -0.73,2.203 -0.73,2.105 0,-0.097 -0.727,2.192 -0.727,2.094 0,-0.098 -0.73,2.176 -0.73,2.082 0,-0.098 -0.731,2.164 -0.731,2.07 0,-0.093 -0.726,2.153 -0.726,2.059 0,-0.094 -0.731,2.141 -0.731,2.047 0,-0.09 -0.73,2.129 -0.73,2.039 0,-0.09 -0.731,2.113 -0.731,2.023 0,-0.086 -0.726,2.102 -0.726,2.016 0,-0.086 -0.731,2.086 -0.731,2.004 0,-0.086 -0.73,2.074 -0.73,1.988 0,-0.082 -0.727,2.063 -0.727,1.981 0,-0.082 -0.73,2.05 -0.73,1.968 0,-0.078 -0.731,2.036 -0.731,1.957 0,-0.078 -0.726,2.024 -0.726,1.946 0,-0.078 -0.731,2.012 -0.731,1.933 0,-0.074 -0.73,1.996 -0.73,1.926 0,-0.074 -0.727,1.981 -0.727,1.91 0,-0.07 -0.73,1.969 -0.73,1.899 0,-0.071 -0.731,1.957 -0.731,1.89 0,-0.07 -0.726,1.946 -0.726,1.875 0,-0.066 -0.731,1.934 -0.731,1.868 0,-0.063 -0.73,1.918 -0.73,1.855 0,-0.062 -0.727,1.906 -0.727,1.844 0,-0.063 -0.73,1.89 -0.73,1.832 0,-0.063 -0.731,1.879 -0.731,1.82 0,-0.058 -0.726,1.863 -0.726,1.809 0,-0.055 -0.731,1.851 -0.731,1.797 0,-0.055 -0.73,1.839 -0.73,1.785 0,-0.051 -0.727,1.828 -0.727,1.777 0,-0.051 -0.73,1.813 -0.73,1.762 0,-0.047 -0.731,1.801 -0.731,1.754 0,-0.047 -0.726,1.785 -0.726,1.742 0,-0.047 -0.731,1.769 -0.731,1.726 0,-0.042 -0.73,1.762 -0.73,1.719 0,-0.043 -0.727,1.746 -0.727,1.707 0,-0.039 -0.73,1.735 -0.73,1.696 0,-0.039 -0.731,1.718 -0.731,1.683 0,-0.035 -0.726,1.707 -0.726,1.672 0,-0.035 -0.731,1.695 -0.731,1.664 0,-0.035 -0.73,1.68 -0.73,1.649 0,-0.032 -0.727,1.668 -0.727,1.636 0,-0.027 -0.73,1.657 -0.73,1.629 0,-0.027 -0.731,1.641 -0.731,1.617 0,-0.027 -0.726,1.625 -0.726,1.602 0,-0.024 -0.731,1.617 -0.731,1.594 0,-0.02 -0.73,1.601 -0.73,1.582 0,-0.02 -0.727,1.586 -0.727,1.57 0,-0.02 -0.73,1.574 -0.73,1.559 0,-0.016 -0.731,1.562 -0.731,1.546 0,-0.015 -0.726,1.547 -0.726,1.536 0,-0.012 -0.731,1.535 -0.731,1.527 0,-0.012 -0.73,1.52 -0.73,1.512 0,-0.008 -0.727,1.508 -0.727,1.504 0,-0.008 -0.73,1.492 -0.73,1.488 0,-0.004 -0.731,1.48 -0.731,1.48 0,-0.004 -0.726,1.469 -0.726,1.465 l -0.731,1.457 c 0,0.004 -0.73,1.442 -0.73,1.446 0,0.003 -0.727,1.429 -0.727,1.433 0,0.008 -0.73,1.418 -0.73,1.422 0,0.008 -0.731,1.402 -0.731,1.414 0,0.008 -0.73,1.387 -0.73,1.399 0,0.011 -0.727,1.375 -0.727,1.386 0,0.012 -0.73,1.364 -0.73,1.379 0,0.012 -0.731,1.348 -0.731,1.363 0,0.016 -0.726,1.336 -0.726,1.356 0,0.016 -0.731,1.32 -0.731,1.344 0,0.019 -0.73,1.308 -0.73,1.328 0,0.023 -0.727,1.297 -0.727,1.32 0,0.024 -0.73,1.285 -0.73,1.309 0,0.027 -0.731,1.269 -0.731,1.297 0,0.027 -0.726,1.257 -0.726,1.285 0,0.031 -0.731,1.246 -0.731,1.273 0,0.031 -0.73,1.231 -0.73,1.266 0,0.031 -0.727,1.215 -0.727,1.25 0,0.035 -0.73,1.203 -0.73,1.242 0,0.035 -0.731,1.191 -0.731,1.227 0,0.039 -0.726,1.179 -0.726,1.218 0,0.039 -0.731,1.164 -0.731,1.207 0,0.043 -0.73,1.149 -0.73,1.196 0,0.043 -0.727,1.136 -0.727,1.179 0,0.047 -0.73,1.125 -0.73,1.176 0,0.047 -0.731,1.109 -0.731,1.16 0,0.047 -0.726,1.098 -0.726,1.149 0,0.05 -0.731,1.086 -0.731,1.136 0,0.055 -0.73,1.075 -0.73,1.129 0,0.051 -0.727,1.059 -0.727,1.114 0,0.054 -0.73,1.046 -0.73,1.105 0,0.055 -0.731,1.031 -0.731,1.09 0,0.062 -0.726,1.019 -0.726,1.082 0,0.062 -0.731,1.004 -0.731,1.07 0,0.063 -0.73,0.992 -0.73,1.055 0,0.066 -0.727,0.98 -0.727,1.047 0,0.07 -0.73,0.969 -0.73,1.039 0,0.066 -0.731,0.953 -0.731,1.023 0,0.071 -0.726,0.942 -0.726,1.012 0,0.07 -0.731,0.926 -0.731,1 0,0.074 -0.73,0.914 -0.73,0.992 0,0.074 -0.727,0.899 -0.727,0.977 0,0.078 -0.73,0.89 -0.73,0.969 0,0.078 -0.731,0.875 -0.731,0.957 0,0.078 -0.726,0.859 -0.726,0.941 0,0.082 -0.731,0.852 -0.731,0.934 0,0.085 -0.73,0.835 -0.73,0.921 0,0.086 -0.727,0.825 -0.727,0.911 0,0.086 -0.73,0.812 -0.73,0.898 0,0.09 -0.731,0.797 -0.731,0.887 0,0.09 -0.73,0.785 -0.73,0.879 0,0.089 -0.727,0.769 -0.727,0.863 0,0.094 -0.73,0.758 -0.73,0.851 0,0.098 -0.731,0.75 -0.731,0.844 0,0.098 -0.726,0.735 -0.726,0.832 0,0.098 -0.731,0.719 -0.731,0.817 0,0.101 -0.73,0.711 -0.73,0.808 0,0.102 -0.727,0.696 -0.727,0.797 0,0.102 -0.73,0.684 -0.73,0.785 0,0.102 -0.731,0.668 -0.731,0.774 0,0.105 -0.726,0.656 -0.726,0.761 0,0.106 -0.731,0.645 -0.731,0.754 0,0.106 -0.73,0.629 -0.73,0.739 0,0.109 -0.727,0.617 -0.727,0.726 0,0.11 -0.73,0.606 -0.73,0.719 0,0.109 -0.731,0.594 -0.731,0.703 0,0.113 -0.726,0.582 -0.726,0.695 0,0.114 -0.731,0.567 -0.731,0.684 0,0.113 -0.73,0.555 -0.73,0.672 0,0.117 -0.727,0.539 -0.727,0.66 0,0.117 -0.73,0.527 -0.73,0.648 0,0.118 -0.731,0.516 -0.731,0.637 0,0.117 -0.726,0.504 -0.726,0.625 0,0.121 -0.731,0.492 -0.731,0.613 0,0.125 -0.73,0.481 -0.73,0.606 0,0.121 -0.727,0.465 -0.727,0.59 0,0.125 -0.73,0.453 -0.73,0.582 0,0.125 -0.731,0.441 -0.731,0.566 0,0.129 -0.726,0.43 -0.726,0.559 0,0.129 -0.731,0.418 -0.731,0.547 0,0.129 -0.73,0.402 -0.73,0.535 0,0.129 -0.727,0.39 -0.727,0.523 0,0.129 -0.73,0.379 -0.73,0.512 0,0.133 -0.731,0.367 -0.731,0.5 0,0.133 -0.726,0.355 -0.726,0.488 0,0.133 -0.731,0.344 -0.731,0.481 0,0.133 -0.73,0.328 -0.73,0.465 0,0.136 -0.727,0.32 -0.727,0.457 0,0.132 -0.73,0.304 -0.73,0.441 0,0.137 -0.731,0.293 -0.731,0.434 0,0.136 -0.726,0.281 -0.726,0.421 0,0.137 -0.731,0.266 -0.731,0.407 0,0.14 -0.73,0.258 -0.73,0.398 0,0.141 -0.727,0.246 -0.727,0.387 0,0.144 -0.73,0.234 -0.73,0.375 0,0.144 -0.731,0.223 -0.731,0.367 0,0.141 -0.726,0.207 -0.726,0.352 0,0.144 -0.731,0.195 -0.731,0.339 0,0.145 -0.73,0.188 -0.73,0.333 0,0.144 -0.727,0.171 -0.727,0.316 0,0.148 -0.73,0.164 -0.73,0.309 0,0.148 -0.731,0.148 -0.731,0.296 0,0.149 -0.73,0.137 -0.73,0.286 0,0.144 -0.727,0.125 -0.727,0.273 0,0.145 -0.73,0.109 -0.73,0.262 0,0.148 -0.731,0.097 -0.731,0.25 0,0.148 -0.726,0.086 -0.726,0.238 0,0.148 -0.731,0.078 -0.731,0.227 0,0.148 -0.73,0.066 -0.73,0.214 0,0.153 -0.727,0.055 -0.727,0.207 0,0.149 -0.73,0.043 -0.73,0.192 0,0.152 -0.731,0.031 -0.731,0.183 0,0.153 -0.726,0.02 -0.726,0.172 0,0.153 -0.731,0.004 -0.731,0.157 0,0.152 -0.73,-0.004 -0.73,0.148 0,0.152 -0.727,-0.016 -0.727,0.137 0,0.152 -0.73,-0.028 -0.73,0.125 0,0.152 -0.731,-0.039 -0.731,0.113 0,0.156 -0.726,-0.051 -0.726,0.105 0,0.153 -0.731,-0.066 -0.731,0.09 0,0.153 -0.73,-0.074 -0.73,0.078 0,0.157 -0.727,-0.086 -0.727,0.071 0,0.152 -0.73,-0.098 -0.73,0.054 0,0.157 -0.731,-0.109 -0.731,0.047 0,0.153 -0.726,-0.121 -0.726,0.035 0,0.153 -0.731,-0.132 -0.731,0.02 0,0.156 -0.73,-0.141 -0.73,0.012 0,0.156 -0.727,-0.153 -0.727,0 0,0.156 -0.73,-0.164 -0.73,-0.012 0,0.156 -0.731,-0.176 -0.731,-0.02 0,0.153 -0.726,-0.191 -0.726,-0.035 0,0.153 -0.731,-0.199 -0.731,-0.047 0,0.157 -0.73,-0.211 -0.73,-0.054 0,0.152 -0.727,-0.223 -0.727,-0.071 0,0.157 -0.73,-0.234 -0.73,-0.078 0,0.153 -0.731,-0.246 -0.731,-0.09 0,0.153 -0.726,-0.257 -0.726,-0.105 0,0.156 -0.731,-0.266 -0.731,-0.113 0,0.152 -0.73,-0.278 -0.73,-0.125 0,0.152 -0.727,-0.289 -0.727,-0.137 0,0.152 -0.73,-0.301 -0.73,-0.148 0,0.152 -0.731,-0.309 -0.731,-0.157 0,0.153 -0.726,-0.324 -0.726,-0.172 0,0.153 -0.731,-0.332 -0.731,-0.183 0,0.152 -0.73,-0.344 -0.73,-0.192 0,0.149 -0.731,-0.355 -0.731,-0.207 0,0.153 -0.726,-0.363 -0.726,-0.214 0,0.148 -0.731,-0.379 -0.731,-0.227 0,0.148 -0.73,-0.391 -0.73,-0.238 0,0.148 -0.727,-0.403 -0.727,-0.25 0,0.148 -0.73,-0.41 -0.73,-0.262 0,0.145 -0.731,-0.422 -0.731,-0.273 0,0.144 -0.726,-0.434 -0.726,-0.286 0,0.149 -0.731,-0.441 -0.731,-0.296 0,0.148 -0.73,-0.454 -0.73,-0.309 0,0.148 -0.727,-0.461 -0.727,-0.316 0,0.144 -0.73,-0.477 -0.73,-0.333 0,0.145 -0.731,-0.484 -0.731,-0.339 0,0.144 -0.726,-0.496 -0.726,-0.352 0,0.141 -0.731,-0.508 -0.731,-0.367 0,0.144 -0.73,-0.516 -0.73,-0.375 0,0.144 -0.727,-0.527 -0.727,-0.387 0,0.141 -0.73,-0.539 -0.73,-0.398 0,0.14 -0.731,-0.547 -0.731,-0.407 0,0.137 -0.726,-0.562 -0.726,-0.421 0,0.136 -0.731,-0.571 -0.731,-0.434 0,0.137 -0.73,-0.578 -0.73,-0.441 0,0.132 -0.727,-0.594 -0.727,-0.457 0,0.136 -0.73,-0.602 -0.73,-0.465 0,0.133 -0.731,-0.614 -0.731,-0.481 0,0.133 -0.726,-0.621 -0.726,-0.488 0,0.133 -0.731,-0.633 -0.731,-0.5 0,0.133 -0.73,-0.645 -0.73,-0.512 0,0.129 -0.727,-0.656 -0.727,-0.523 0,0.129 -0.73,-0.664 -0.73,-0.535 0,0.129 -0.731,-0.676 -0.731,-0.547 0,0.129 -0.726,-0.684 -0.726,-0.559 0,0.129 -0.731,-0.695 -0.731,-0.566 0,0.125 -0.73,-0.707 -0.73,-0.582 0,0.125 -0.727,-0.715 -0.727,-0.59 0,0.121 -0.73,-0.727 -0.73,-0.606 0,0.125 -0.731,-0.734 -0.731,-0.613 0,0.121 -0.726,-0.746 -0.726,-0.625 0,0.117 -0.731,-0.758 -0.731,-0.637 0,0.118 -0.73,-0.769 -0.73,-0.648 0,0.117 -0.727,-0.777 -0.727,-0.66 0,0.117 -0.73,-0.789 -0.73,-0.672 0,0.113 -0.731,-0.797 -0.731,-0.684 0,0.114 -0.726,-0.804 -0.726,-0.695 0,0.113 -0.731,-0.816 -0.731,-0.703 0,0.109 -0.73,-0.828 -0.73,-0.719 0,0.11 -0.727,-0.836 -0.727,-0.726 0,0.109 -0.73,-0.848 -0.73,-0.739 0,0.106 -0.731,-0.859 -0.731,-0.754 0,0.106 -0.726,-0.867 -0.726,-0.761 0,0.105 -0.731,-0.875 -0.731,-0.774 0,0.102 -0.73,-0.886 -0.73,-0.785 0,0.102 -0.727,-0.894 -0.727,-0.797 0,0.102 -0.73,-0.906 -0.73,-0.808 0,0.101 -0.731,-0.914 -0.731,-0.817 0,0.098 -0.73,-0.926 -0.73,-0.832 0,0.098 -0.727,-0.937 -0.727,-0.844 0,0.098 -0.73,-0.945 -0.73,-0.851 0,0.094 -0.731,-0.957 -0.731,-0.863 0,0.089 -0.726,-0.969 -0.726,-0.879 0,0.09 -0.731,-0.973 -0.731,-0.887 0,0.09 -0.73,-0.984 -0.73,-0.898 0,0.086 -0.727,-0.997 -0.727,-0.911 0,0.086 -0.73,-1.003 -0.73,-0.921 0,0.085 -0.731,-1.016 -0.731,-0.934 0,0.082 -0.726,-1.023 -0.726,-0.941 0,0.078 -0.731,-1.036 -0.731,-0.957 0,0.078 -0.73,-1.047 -0.73,-0.969 0,0.078 -0.727,-1.055 -0.727,-0.977 0,0.074 -0.73,-1.066 -0.73,-0.992 0,0.074 -0.731,-1.07 -0.731,-1 0,0.07 -0.726,-1.082 -0.726,-1.012 0,0.071 -0.731,-1.093 -0.731,-1.023 0,0.066 -0.73,-1.106 -0.73,-1.039 0,0.07 -0.727,-1.11 -0.727,-1.047 0,0.066 -0.73,-1.121 -0.73,-1.055 0,0.063 -0.731,-1.133 -0.731,-1.07 0,0.062 -0.726,-1.141 -0.726,-1.082 0,0.062 -0.731,-1.149 -0.731,-1.09 0,0.055 -0.73,-1.16 -0.73,-1.105 0,0.054 -0.727,-1.168 -0.727,-1.114 0,0.051 -0.73,-1.179 -0.73,-1.129 0,0.055 -0.731,-1.187 -0.731,-1.136 0,0.05 -0.726,-1.2 -0.726,-1.149 0,0.047 -0.731,-1.211 -0.731,-1.16 0,0.047 -0.73,-1.219 -0.73,-1.176 0,0.047 -0.727,-1.226 -0.727,-1.179 0,0.043 -0.73,-1.239 -0.73,-1.196 0,0.043 -0.731,-1.246 -0.731,-1.207 0,0.039 -0.726,-1.254 -0.726,-1.218 0,0.039 -0.731,-1.266 -0.731,-1.227 0,0.035 -0.73,-1.277 -0.73,-1.242 0,0.035 -0.727,-1.285 -0.727,-1.25 0,0.031 -0.73,-1.293 -0.73,-1.266 0,0.031 -0.731,-1.301 -0.731,-1.273 0,0.031 -0.726,-1.313 -0.726,-1.285 0,0.027 -0.731,-1.321 -0.731,-1.297 0,0.027 -0.73,-1.332 -0.73,-1.309 0,0.024 -0.727,-1.34 -0.727,-1.32 0,0.023 -0.73,-1.352 -0.73,-1.328 0,0.019 -0.731,-1.364 -0.731,-1.344 0,0.016 -0.726,-1.371 -0.726,-1.356 0,0.016 -0.731,-1.378 -0.731,-1.363 0,0.012 -0.73,-1.39 -0.73,-1.379 0,0.012 -0.727,-1.398 -0.727,-1.386 0,0.011 -0.73,-1.411 -0.73,-1.399 0,0.008 -0.731,-1.418 -0.731,-1.414 0,0.008 -0.726,-1.426 -0.726,-1.422 0,0.008 -0.731,-1.437 -0.731,-1.433 0,0.003 -0.73,-1.446 -0.73,-1.446 0,0.004 -0.731,-1.453 -0.731,-1.457 l -0.726,-1.465 c 0,-0.004 -0.731,-1.476 -0.731,-1.48 0,-0.004 -0.73,-1.484 -0.73,-1.488 0,-0.008 -0.727,-1.496 -0.727,-1.504 0,-0.008 -0.73,-1.504 -0.73,-1.512 0,-0.012 -0.731,-1.516 -0.731,-1.527 0,-0.012 -0.726,-1.52 -0.726,-1.536 0,-0.015 -0.731,-1.531 -0.731,-1.546 0,-0.016 -0.73,-1.543 -0.73,-1.559 0,-0.02 -0.727,-1.551 -0.727,-1.57 0,-0.02 -0.73,-1.559 -0.73,-1.582 0,-0.02 -0.731,-1.571 -0.731,-1.594 0,-0.024 -0.726,-1.578 -0.726,-1.602 0,-0.027 -0.731,-1.589 -0.731,-1.617 0,-0.027 -0.73,-1.597 -0.73,-1.629 0,-0.027 -0.727,-1.605 -0.727,-1.636 0,-0.032 -0.73,-1.618 -0.73,-1.649 0,-0.035 -0.731,-1.629 -0.731,-1.664 0,-0.035 -0.726,-1.637 -0.726,-1.672 0,-0.035 -0.731,-1.644 -0.731,-1.683 0,-0.039 -0.73,-1.657 -0.73,-1.696 0,-0.039 -0.727,-1.664 -0.727,-1.707 0,-0.043 -0.73,-1.676 -0.73,-1.719 0,-0.042 -0.731,-1.683 -0.731,-1.726 0,-0.047 -0.726,-1.695 -0.726,-1.742 0,-0.047 -0.731,-1.703 -0.731,-1.754 0,-0.047 -0.73,-1.711 -0.73,-1.762 0,-0.051 -0.727,-1.723 -0.727,-1.777 0,-0.051 -0.73,-1.731 -0.73,-1.785 0,-0.055 -0.731,-1.743 -0.731,-1.797 0,-0.055 -0.726,-1.75 -0.726,-1.809 0,-0.058 -0.731,-1.762 -0.731,-1.82 0,-0.063 -0.73,-1.77 -0.73,-1.832 0,-0.063 -0.727,-1.781 -0.727,-1.844 0,-0.062 -0.73,-1.789 -0.73,-1.855 0,-0.063 -0.731,-1.797 -0.731,-1.868 0,-0.066 -0.726,-1.808 -0.726,-1.875 0,-0.07 -0.731,-1.82 -0.731,-1.89 0,-0.071 -0.73,-1.828 -0.73,-1.899 0,-0.07 -0.727,-1.84 -0.727,-1.91 0,-0.074 -0.73,-1.847 -0.73,-1.926 0,-0.074 -0.731,-1.855 -0.731,-1.933 0,-0.078 -0.73,-1.867 -0.73,-1.946 0,-0.078 -0.727,-1.875 -0.727,-1.957 0,-0.078 -0.73,-1.886 -0.73,-1.968 0,-0.082 -0.731,-1.895 -0.731,-1.981 0,-0.082 -0.726,-1.906 -0.726,-1.988 0,-0.086 -0.731,-1.918 -0.731,-2.004 0,-0.086 -0.73,-1.926 -0.73,-2.016 0,-0.086 -0.727,-1.933 -0.727,-2.023 0,-0.09 -0.73,-1.945 -0.73,-2.039 0,-0.09 -0.731,-1.953 -0.731,-2.047 0,-0.094 -0.726,-1.965 -0.726,-2.059 0,-0.093 -0.731,-1.976 -0.731,-2.07 0,-0.098 -0.73,-1.984 -0.73,-2.082 0,-0.098 -0.727,-1.996 -0.727,-2.094 0,-0.097 -0.73,-2.004 -0.73,-2.105 0,-0.102 -0.731,-2.016 -0.731,-2.117 0,-0.102 -0.726,-2.024 -0.726,-2.129 0,-0.102 -0.731,-2.031 -0.731,-2.137 0,-0.105 -0.73,-2.043 -0.73,-2.152 0,-0.106 -0.727,-2.055 -0.727,-2.16 0,-0.106 -0.73,-2.067 -0.73,-2.172 0,-0.11 -0.731,-2.078 -0.731,-2.188 0,-0.109 -0.726,-2.082 -0.726,-2.195 0,-0.109 -0.731,-2.094 -0.731,-2.207 0,-0.113 -0.73,-2.106 -0.73,-2.219 0,-0.113 -0.727,-2.113 -0.727,-2.23 0,-0.114 -0.73,-2.125 -0.73,-2.243 0,-0.113 -0.731,-2.132 -0.731,-2.25 0,-0.117 -0.726,-2.144 -0.726,-2.265 0,-0.117 -0.731,-2.156 -0.731,-2.278 0,-0.117 -0.73,-2.164 -0.73,-2.285 0,-0.121 -0.727,-2.175 -0.727,-2.297 0,-0.125 -0.73,-2.187 -0.73,-2.312 0,-0.121 -0.731,-2.195 -0.731,-2.32 0,-0.125 -0.726,-2.207 -0.726,-2.332 0,-0.125 -0.731,-2.219 -0.731,-2.344 0,-0.129 -0.73,-2.227 -0.73,-2.356 0,-0.129 -0.727,-2.238 -0.727,-2.367 0,-0.129 -0.73,-2.246 -0.73,-2.379 0,-0.129 -0.731,-2.258 -0.731,-2.386 0,-0.133 -0.726,-2.27 -0.726,-2.403 0,-0.133 -0.731,-2.277 -0.731,-2.41 0,-0.133 -0.73,-2.293 -0.73,-2.426 0,-0.133 -0.727,-2.3 -0.727,-2.433 0,-0.137 -0.73,-2.313 -0.73,-2.446 0,-0.136 -0.731,-2.324 -0.731,-2.461 0,-0.136 -0.726,-2.328 -0.726,-2.468 0,-0.137 -0.731,-2.34 -0.731,-2.481 0,-0.136 -0.73,-2.351 -0.73,-2.492 0,-0.137 -0.727,-2.359 -0.727,-2.5 0,-0.141 -0.73,-2.375 -0.73,-2.516 0,-0.14 -0.731,-2.382 -0.731,-2.527 0,-0.141 -0.726,-2.394 -0.726,-2.535 0,-0.145 -0.731,-2.406 -0.731,-2.551 0,-0.14 -0.73,-2.414 -0.73,-2.558 0,-0.145 -0.727,-2.426 -0.727,-2.571 0,-0.144 -0.73,-2.437 -0.73,-2.586 0,-0.144 -0.731,-2.445 -0.731,-2.593 0,-0.145 -0.73,-2.457 -0.73,-2.606 0,-0.144 -0.727,-2.469 -0.727,-2.617 0,-0.145 -0.73,-2.481 -0.73,-2.629 0,-0.145 -0.731,-2.488 -0.731,-2.637 0,-0.148 -0.726,-2.504 -0.726,-2.652 0,-0.149 -0.731,-2.512 -0.731,-2.664 0,-0.149 -0.73,-2.524 -0.73,-2.672 0,-0.148 -0.727,-2.535 -0.727,-2.684 0,-0.152 -0.73,-2.546 -0.73,-2.699 0,-0.148 -0.731,-2.555 -0.731,-2.707 0,-0.152 -0.726,-2.566 -0.726,-2.719 0,-0.152 -0.731,-2.578 -0.731,-2.73 0,-0.152 -0.73,-2.59 -0.73,-2.742 0,-0.153 -0.727,-2.602 -0.727,-2.754 0,-0.153 -0.73,-2.613 -0.73,-2.766 0,-0.152 -0.731,-2.621 -0.731,-2.777 0,-0.152 -0.726,-2.633 -0.726,-2.785 0,-0.157 -0.731,-2.649 -0.731,-2.801 0,-0.152 -0.73,-2.656 -0.73,-2.809 0,-0.156 -0.727,-2.668 -0.727,-2.824 0,-0.152 -0.73,-2.68 -0.73,-2.832 0,-0.152 -0.731,-2.691 -0.731,-2.844 0,-0.156 -0.726,-2.703 -0.726,-2.855 0,-0.156 -0.731,-2.715 -0.731,-2.867 0,-0.157 -0.73,-2.727 -0.73,-2.879 0,-0.156 -0.727,-2.739 -0.727,-2.891 0,-0.156 -0.73,-2.746 -0.73,-2.902 0,-0.153 -0.731,-2.758 -0.731,-2.914 0,-0.153 -0.726,-2.77 -0.726,-2.922 0,-0.156 -0.731,-2.781 -0.731,-2.938 0,-0.152 -0.73,-2.789 -0.73,-2.945 0,-0.156 -0.727,-2.805 -0.727,-2.957 0,-0.156 -0.73,-2.816 -0.73,-2.973 0,-0.152 -0.731,-2.824 -0.731,-2.98 0,-0.152 -0.726,-2.836 -0.726,-2.992 0,-0.153 -0.731,-2.848 -0.731,-3.004 0,-0.153 -0.73,-2.86 -0.73,-3.016 0,-0.152 -0.727,-2.871 -0.727,-3.027 0,-0.153 -0.73,-2.883 -0.73,-3.035 0,-0.153 -0.731,-2.899 -0.731,-3.051 0,-0.152 -0.726,-2.906 -0.726,-3.059 0,-0.152 -0.731,-2.9216 -0.731,-3.0739 0,-0.1524 -0.73,-2.9297 -0.73,-3.0821 0,-0.1523 -0.731,-2.9453 -0.731,-3.0976 0,-0.1485 -0.726,-2.9531 -0.726,-3.1055 0,-0.1484 -0.731,-2.9648 -0.731,-3.1172 0,-0.1484 -0.73,-2.9765 -0.73,-3.1289 0,-0.1484 -0.727,-2.9883 -0.727,-3.1406 0,-0.1484 -0.73,-3 -0.73,-3.1524 0,-0.1484 -0.731,-3.0117 -0.731,-3.1601 0,-0.1484 -0.726,-3.0274 -0.726,-3.1758 0,-0.1484 -0.731,-3.0391 -0.731,-3.1836 0,-0.1484 -0.73,-3.0508 -0.73,-3.1992 0,-0.1484 -0.727,-3.0625 -0.727,-3.207 0,-0.1485 -0.73,-3.0743 -0.73,-3.2227 0,-0.1445 -0.731,-3.0859 -0.731,-3.2305 0,-0.1445 -0.726,-3.0976 -0.726,-3.2421 0,-0.1446 -0.731,-3.1094 -0.731,-3.254 0,-0.1445 -0.73,-3.125 -0.73,-3.2656 0,-0.1445 -0.727,-3.1367 -0.727,-3.2773 0,-0.1446 -0.73,-3.1446 -0.73,-3.2891 0,-0.1406 -0.731,-3.1562 -0.731,-3.3008 0,-0.1406 -0.726,-3.1679 -0.726,-3.3086 0,-0.1406 -0.731,-3.1836 -0.731,-3.3242 0,-0.1367 -0.73,-3.1953 -0.73,-3.332 0,-0.1406 -0.727,-3.207 -0.727,-3.3477 0,-0.1367 -0.73,-3.2187 -0.73,-3.3554 0,-0.1368 -0.731,-3.2305 -0.731,-3.3672 0,-0.1367 -0.726,-3.2461 -0.726,-3.3789 0,-0.1367 -0.731,-3.25784 -0.731,-3.39066 0,-0.13281 -0.73,-3.26953 -0.73,-3.40234" /></g></g></svg>