<?xml version="1.0" encoding="UTF-8" standalone="no"?>
<svg
   xmlns:dc="http://purl.org/dc/elements/1.1/"
   xmlns:cc="http://creativecommons.org/ns#"
   xmlns:rdf="http://www.w3.org/1999/02/22-rdf-syntax-ns#"
   xmlns:svg="http://www.w3.org/2000/svg"
   xmlns="http://www.w3.org/2000/svg"
   viewBox="0 0 270.58667 109.84"
   height="109.84"
   width="270.58667"
   xml:space="preserve"
   id="svg2"
   version="1.1"><metadata
     id="metadata8"><rdf:RDF><cc:Work
         rdf:about=""><dc:format>image/svg+xml</dc:format><dc:type
           rdf:resource="http://purl.org/dc/dcmitype/StillImage" /></cc:Work></rdf:RDF></metadata><defs
     id="defs6" /><g
     transform="matrix(1.3333333,0,0,-1.3333333,0,109.84)"
     id="g10"><g
       transform="scale(0.1)"
       id="g12"><path
         id="path14"
         style="fill:none;stroke:#000000;stroke-width:5.19999981;stroke-linecap:round;stroke-linejoin:miter;stroke-miterlimit:10;stroke-dasharray:none;stroke-opacity:1"
         d="m 66.25,301.539 c 462.922,1.137 462.922,1.137 462.922,1.137" /><path
         id="path16"
         style="fill:#000000;fill-opacity:1;fill-rule:evenodd;stroke:none"
         d="M 508.375,302.621 498,292.199 l 36.375,10.489 -36.426,10.308 10.426,-10.375" /><path
         id="path18"
         style="fill:none;stroke:#000000;stroke-width:2.5999999;stroke-linecap:butt;stroke-linejoin:miter;stroke-miterlimit:10;stroke-dasharray:none;stroke-opacity:1"
         d="M 508.375,302.621 498,292.199 l 36.375,10.489 -36.426,10.308 z" /><path
         id="path20"
         style="fill:#000000;fill-opacity:1;fill-rule:evenodd;stroke:none"
         d="m 224.441,252.496 c 0,7.555 1.137,14.055 3.418,19.508 2.278,5.453 5.305,9.512 9.082,12.184 2.93,2.113 5.957,3.171 9.082,3.171 5.079,0 9.633,-2.586 13.672,-7.761 5.043,-6.414 7.567,-15.106 7.567,-26.075 0,-7.683 -1.106,-14.21 -3.321,-19.582 -2.214,-5.371 -5.039,-9.269 -8.472,-11.695 -3.434,-2.422 -6.746,-3.637 -9.934,-3.637 -6.316,0 -11.574,3.727 -15.773,11.184 -3.547,6.281 -5.321,13.852 -5.321,22.703 z m 9.571,-1.219 c 0,-9.117 1.121,-16.554 3.367,-22.316 1.855,-4.848 4.621,-7.273 8.301,-7.273 1.758,0 3.582,0.789 5.468,2.367 1.887,1.578 3.321,4.222 4.297,7.933 1.496,5.602 2.246,13.492 2.246,23.684 0,7.551 -0.781,13.851 -2.343,18.894 -1.172,3.747 -2.684,6.399 -4.539,7.961 -1.336,1.075 -2.95,1.61 -4.836,1.61 -2.215,0 -4.184,-0.992 -5.907,-2.977 -2.343,-2.703 -3.941,-6.949 -4.785,-12.746 -0.847,-5.793 -1.269,-11.508 -1.269,-17.137 v 0" /><path
         id="path22"
         style="fill:none;stroke:#000000;stroke-width:5.19999981;stroke-linecap:round;stroke-linejoin:miter;stroke-miterlimit:10;stroke-dasharray:none;stroke-opacity:1"
         d="M 274.234,22.6523 C 273.371,744.359 273.371,744.359 273.371,744.359" /><path
         id="path24"
         style="fill:#000000;fill-opacity:1;fill-rule:evenodd;stroke:none"
         d="m 273.398,723.559 10.411,-10.387 -10.442,36.387 -10.359,-36.414 10.39,10.414" /><path
         id="path26"
         style="fill:none;stroke:#000000;stroke-width:2.5999999;stroke-linecap:butt;stroke-linejoin:miter;stroke-miterlimit:10;stroke-dasharray:none;stroke-opacity:1"
         d="m 273.398,723.559 10.411,-10.387 -10.442,36.387 -10.359,-36.414 z" /><path
         id="path28"
         style="fill:#000000;fill-opacity:1;fill-rule:evenodd;stroke:none"
         d="m 510.824,276.141 c 1.598,-1.692 2.801,-3.383 3.614,-5.078 0.585,-1.172 1.546,-4.247 2.882,-9.227 l 4.297,6.445 c 1.137,1.563 2.524,3.051 4.149,4.469 1.629,1.414 3.062,2.383 4.297,2.902 0.781,0.328 1.644,0.489 2.589,0.489 1.399,0 2.516,-0.375 3.344,-1.121 0.832,-0.75 1.246,-1.661 1.246,-2.735 0,-1.238 -0.246,-2.086 -0.734,-2.539 -0.91,-0.816 -1.953,-1.223 -3.125,-1.223 -0.684,0 -1.414,0.149 -2.195,0.442 -1.532,0.519 -2.555,0.781 -3.079,0.781 -0.781,0 -1.707,-0.457 -2.781,-1.367 -2.019,-1.695 -4.43,-4.965 -7.226,-9.816 l 4.003,-16.797 c 0.618,-2.571 1.137,-4.11 1.563,-4.614 0.422,-0.504 0.844,-0.757 1.27,-0.757 0.683,0 1.48,0.375 2.39,1.125 1.793,1.496 3.32,3.449 4.59,5.859 l 1.711,-0.879 c -2.051,-3.844 -4.656,-7.031 -7.813,-9.57 -1.793,-1.434 -3.304,-2.149 -4.543,-2.149 -1.82,0 -3.269,1.024 -4.343,3.074 -0.684,1.27 -2.102,6.739 -4.25,16.407 -5.078,-8.821 -9.145,-14.5 -12.207,-17.039 -1.985,-1.629 -3.907,-2.442 -5.762,-2.442 -1.301,0 -2.488,0.473 -3.563,1.414 -0.781,0.719 -1.171,1.676 -1.171,2.883 0,1.074 0.355,1.969 1.074,2.684 0.715,0.718 1.594,1.074 2.637,1.074 1.039,0 2.148,-0.52 3.32,-1.563 0.844,-0.746 1.496,-1.121 1.953,-1.121 0.391,0 0.894,0.258 1.512,0.782 1.531,1.234 3.613,3.906 6.25,8.007 2.636,4.102 4.363,7.063 5.175,8.887 -2.015,7.91 -3.109,12.094 -3.269,12.547 -0.75,2.117 -1.727,3.613 -2.93,4.492 -1.207,0.879 -2.98,1.321 -5.324,1.321 -0.746,0 -1.609,-0.036 -2.586,-0.098 v 1.758 l 13.035,2.293" /><path
         id="path30"
         style="fill:#000000;fill-opacity:1;fill-rule:evenodd;stroke:none"
         d="m 218.059,745.793 c 1.105,-1.887 1.871,-3.652 2.293,-5.297 0.425,-1.644 0.847,-4.875 1.269,-9.691 l 2.149,-24.024 c 1.953,2.344 4.785,6.055 8.496,11.133 1.793,2.473 4.004,5.844 6.64,10.106 1.598,2.605 2.574,4.429 2.93,5.468 0.195,0.524 0.293,1.059 0.293,1.614 0,0.359 -0.113,0.652 -0.34,0.878 -0.226,0.227 -0.824,0.497 -1.781,0.805 -0.961,0.309 -1.758,0.879 -2.395,1.711 -0.633,0.828 -0.953,1.781 -0.953,2.856 0,1.336 0.391,2.41 1.172,3.222 0.781,0.813 1.758,1.219 2.93,1.219 1.433,0 2.656,-0.594 3.664,-1.781 1.008,-1.188 1.512,-2.824 1.512,-4.907 0,-2.57 -0.879,-5.507 -2.637,-8.812 -1.758,-3.305 -5.141,-8.375 -10.156,-15.211 -5.012,-6.836 -11.082,-14.289 -18.211,-22.363 -4.914,-5.567 -8.563,-9.074 -10.938,-10.524 -2.375,-1.449 -4.41,-2.172 -6.105,-2.172 -1.008,0 -1.895,0.383 -2.661,1.149 -0.765,0.766 -1.148,1.652 -1.148,2.66 0,1.27 0.531,2.426 1.59,3.465 1.055,1.043 2.203,1.562 3.441,1.562 0.653,0 1.188,-0.144 1.61,-0.437 0.261,-0.164 0.547,-0.625 0.855,-1.391 0.309,-0.765 0.594,-1.277 0.856,-1.539 0.164,-0.164 0.359,-0.246 0.586,-0.246 0.195,0 0.535,0.164 1.023,0.488 1.793,1.11 3.875,2.868 6.25,5.274 3.125,3.191 5.437,5.797 6.934,7.812 l -2.735,30.957 c -0.453,5.114 -1.137,8.223 -2.051,9.328 -0.91,1.106 -2.441,1.661 -4.589,1.661 -0.684,0 -1.903,-0.098 -3.661,-0.293 l -0.441,1.804 14.309,3.516" /><path
         id="path32"
         style="fill:none;stroke:#000000;stroke-width:5.19999981;stroke-linecap:round;stroke-linejoin:miter;stroke-miterlimit:10;stroke-dasharray:none;stroke-opacity:1"
         d="m 817.977,301.539 c 483.543,1.137 483.543,1.137 483.543,1.137" /><path
         id="path34"
         style="fill:#000000;fill-opacity:1;fill-rule:evenodd;stroke:none"
         d="m 1280.72,302.625 -10.37,-10.426 36.37,10.489 -36.42,10.312 10.42,-10.375" /><path
         id="path36"
         style="fill:none;stroke:#000000;stroke-width:2.5999999;stroke-linecap:butt;stroke-linejoin:miter;stroke-miterlimit:10;stroke-dasharray:none;stroke-opacity:1"
         d="m 1280.72,302.625 -10.37,-10.426 36.37,10.489 L 1270.3,313 Z" /><path
         id="path38"
         style="fill:#000000;fill-opacity:1;fill-rule:evenodd;stroke:none"
         d="m 941.168,258.43 c 0,7.55 1.141,14.054 3.418,19.508 2.281,5.453 5.309,9.511 9.082,12.179 2.93,2.117 5.957,3.176 9.082,3.176 5.078,0 9.637,-2.59 13.672,-7.766 5.047,-6.41 7.57,-15.101 7.57,-26.074 0,-7.68 -1.109,-14.207 -3.32,-19.578 -2.215,-5.371 -5.039,-9.27 -8.473,-11.695 -3.433,-2.426 -6.746,-3.637 -9.937,-3.637 -6.313,0 -11.571,3.727 -15.77,11.18 -3.551,6.285 -5.324,13.851 -5.324,22.707 z m 9.57,-1.223 c 0,-9.113 1.125,-16.551 3.371,-22.312 1.856,-4.852 4.621,-7.278 8.301,-7.278 1.758,0 3.578,0.793 5.469,2.371 1.887,1.578 3.32,4.223 4.297,7.934 1.496,5.598 2.246,13.492 2.246,23.68 0,7.554 -0.781,13.851 -2.344,18.898 -1.172,3.742 -2.687,6.395 -4.543,7.957 -1.332,1.074 -2.945,1.613 -4.832,1.613 -2.215,0 -4.183,-0.992 -5.91,-2.98 -2.344,-2.699 -3.938,-6.949 -4.785,-12.742 -0.844,-5.793 -1.27,-11.508 -1.27,-17.141 v 0" /><path
         id="path40"
         style="fill:none;stroke:#000000;stroke-width:5.19999981;stroke-linecap:round;stroke-linejoin:miter;stroke-miterlimit:10;stroke-dasharray:none;stroke-opacity:1"
         d="M 1009.08,7.09766 C 1008.21,738.172 1008.21,738.172 1008.21,738.172" /><path
         id="path42"
         style="fill:#000000;fill-opacity:1;fill-rule:evenodd;stroke:none"
         d="m 1008.24,717.371 10.41,-10.391 -10.44,36.391 -10.358,-36.414 10.388,10.414" /><path
         id="path44"
         style="fill:none;stroke:#000000;stroke-width:2.5999999;stroke-linecap:butt;stroke-linejoin:miter;stroke-miterlimit:10;stroke-dasharray:none;stroke-opacity:1"
         d="m 1008.24,717.371 10.41,-10.391 -10.44,36.391 -10.358,-36.414 z" /><path
         id="path46"
         style="fill:#000000;fill-opacity:1;fill-rule:evenodd;stroke:none"
         d="m 1281.75,368.824 c 1.59,-1.691 2.8,-3.383 3.61,-5.078 0.59,-1.172 1.55,-4.246 2.88,-9.226 l 4.3,6.445 c 1.14,1.562 2.52,3.051 4.15,4.469 1.63,1.414 3.06,2.382 4.29,2.902 0.79,0.328 1.65,0.488 2.59,0.488 1.4,0 2.52,-0.375 3.35,-1.121 0.83,-0.75 1.24,-1.66 1.24,-2.734 0,-1.239 -0.24,-2.086 -0.73,-2.539 -0.91,-0.817 -1.95,-1.223 -3.13,-1.223 -0.68,0 -1.41,0.148 -2.19,0.441 -1.53,0.52 -2.56,0.782 -3.08,0.782 -0.78,0 -1.71,-0.457 -2.78,-1.367 -2.02,-1.696 -4.43,-4.965 -7.23,-9.817 l 4.01,-16.797 c 0.61,-2.57 1.14,-4.109 1.56,-4.613 0.42,-0.504 0.85,-0.758 1.27,-0.758 0.68,0 1.48,0.375 2.39,1.125 1.79,1.496 3.32,3.449 4.59,5.86 l 1.71,-0.879 c -2.05,-3.844 -4.66,-7.032 -7.81,-9.571 -1.79,-1.433 -3.31,-2.148 -4.54,-2.148 -1.82,0 -3.27,1.023 -4.35,3.074 -0.68,1.27 -2.1,6.738 -4.25,16.406 -5.08,-8.82 -9.14,-14.5 -12.21,-17.039 -1.98,-1.629 -3.9,-2.441 -5.76,-2.441 -1.3,0 -2.49,0.473 -3.56,1.414 -0.78,0.719 -1.17,1.68 -1.17,2.883 0,1.074 0.36,1.968 1.07,2.683 0.72,0.719 1.6,1.075 2.64,1.075 1.04,0 2.15,-0.52 3.32,-1.563 0.84,-0.746 1.5,-1.121 1.95,-1.121 0.39,0 0.9,0.258 1.51,0.781 1.54,1.235 3.62,3.906 6.25,8.008 2.64,4.102 4.37,7.063 5.18,8.887 -2.02,7.91 -3.11,12.093 -3.27,12.547 -0.75,2.117 -1.73,3.613 -2.93,4.492 -1.2,0.879 -2.98,1.32 -5.32,1.32 -0.75,0 -1.61,-0.035 -2.59,-0.098 v 1.758 l 13.04,2.293" /><path
         id="path48"
         style="fill:#000000;fill-opacity:1;fill-rule:evenodd;stroke:none"
         d="m 962.965,741.664 c 1.105,-1.887 1.871,-3.652 2.293,-5.297 0.422,-1.644 0.847,-4.875 1.269,-9.691 l 2.149,-24.024 c 1.953,2.344 4.785,6.055 8.496,11.133 1.793,2.473 4.004,5.84 6.641,10.106 1.597,2.605 2.57,4.425 2.929,5.468 0.196,0.52 0.293,1.059 0.293,1.614 0,0.355 -0.113,0.648 -0.34,0.879 -0.23,0.226 -0.824,0.496 -1.785,0.804 -0.957,0.309 -1.758,0.879 -2.39,1.707 -0.637,0.832 -0.954,1.785 -0.954,2.86 0,1.332 0.391,2.406 1.172,3.222 0.782,0.813 1.758,1.219 2.93,1.219 1.434,0 2.652,-0.594 3.664,-1.781 1.008,-1.188 1.512,-2.824 1.512,-4.906 0,-2.575 -0.879,-5.512 -2.637,-8.817 -1.758,-3.301 -5.144,-8.371 -10.156,-15.207 -5.012,-6.836 -11.082,-14.293 -18.211,-22.363 -4.918,-5.567 -8.563,-9.074 -10.938,-10.524 -2.379,-1.449 -4.41,-2.171 -6.105,-2.171 -1.008,0 -1.895,0.382 -2.66,1.144 -0.766,0.766 -1.149,1.652 -1.149,2.664 0,1.27 0.532,2.422 1.586,3.465 1.059,1.043 2.207,1.562 3.446,1.562 0.648,0 1.187,-0.144 1.609,-0.437 0.262,-0.164 0.547,-0.629 0.855,-1.395 0.309,-0.765 0.594,-1.277 0.856,-1.535 0.16,-0.164 0.355,-0.246 0.586,-0.246 0.195,0 0.535,0.164 1.023,0.488 1.793,1.106 3.875,2.864 6.25,5.274 3.125,3.191 5.438,5.793 6.934,7.812 l -2.735,30.957 c -0.457,5.11 -1.14,8.219 -2.05,9.329 -0.91,1.105 -2.442,1.66 -4.59,1.66 -0.684,0 -1.903,-0.098 -3.66,-0.293 l -0.442,1.804 14.309,3.516" /><path
         id="path50"
         style="fill:none;stroke:#000000;stroke-width:8;stroke-linecap:round;stroke-linejoin:round;stroke-miterlimit:10;stroke-dasharray:none;stroke-opacity:1"
         d="M 484.426,703.316 C 219.41,5.10156 219.41,5.10156 219.41,5.10156" /><path
         id="path52"
         style="fill:#000000;fill-opacity:1;fill-rule:evenodd;stroke:none"
         d="M 44.9688,775.031 H 19.3359 l -4.4921,-10.449 c -1.1055,-2.57 -1.6602,-4.492 -1.6602,-5.762 0,-1.007 0.4805,-1.894 1.4414,-2.66 0.9609,-0.765 3.0352,-1.262 6.2227,-1.488 v -1.809 H 0 v 1.809 c 2.76563,0.488 4.55859,1.121 5.37109,1.902 1.66016,1.563 3.5,4.739 5.51561,9.524 l 23.293,54.492 h 1.707 l 23.0469,-55.078 c 1.8555,-4.426 3.543,-7.301 5.0547,-8.617 1.5156,-1.321 3.6211,-2.059 6.3242,-2.223 v -1.809 h -26.125 v 1.809 c 2.6367,0.129 4.4219,0.57 5.3477,1.316 0.9296,0.75 1.3906,1.66 1.3906,2.735 0,1.433 -0.6485,3.695 -1.9531,6.789 z m -1.3672,3.614 -11.2305,26.757 -11.5234,-26.757 z" /><path
         id="path54"
         style="fill:#000000;fill-opacity:1;fill-rule:evenodd;stroke:none"
         d="m 73.7305,820.246 v 2.051 c 4.9492,-2.442 9.0664,-5.32 12.3515,-8.641 4.6563,-4.754 8.2539,-10.328 10.793,-16.722 2.5391,-6.399 3.809,-13.063 3.809,-19.996 0,-10.09 -2.4809,-19.297 -7.4457,-27.614 -4.9649,-8.316 -11.4688,-14.265 -19.5078,-17.847 v 1.808 c 4.0039,2.246 7.3008,5.281 9.8867,9.106 2.5898,3.824 4.5078,8.691 5.7617,14.601 1.2539,5.906 1.8789,12.067 1.8789,18.481 0,6.933 -0.5351,13.265 -1.6094,18.992 -0.8125,4.492 -1.832,8.09 -3.0507,10.793 -1.2227,2.703 -2.8399,5.305 -4.8594,7.812 -2.0195,2.508 -4.6875,4.899 -8.0078,7.176 v 0" /><path
         id="path56"
         style="fill:#000000;fill-opacity:1;fill-rule:evenodd;stroke:none"
         d="m 773.625,821.691 0.684,-14.453 h -1.758 c -1.039,4.688 -2.645,7.668 -4.809,8.938 -2.164,1.269 -6.012,1.902 -11.547,1.902 h -11.132 v -26.219 h 2.636 c 8.106,0 14.063,-0.511 17.871,-1.539 3.809,-1.027 6.91,-2.988 9.301,-5.882 2.395,-2.899 3.59,-6.383 3.59,-10.45 0,-4.918 -1.824,-9.23 -5.469,-12.941 -3.644,-3.711 -9.929,-5.567 -18.847,-5.567 h -28.028 v 1.809 c 4.102,0.129 6.723,0.781 7.86,1.953 1.14,1.172 1.711,3.938 1.711,8.301 v 42.09 c 0,3.351 -0.239,5.613 -0.708,6.785 -0.472,1.172 -1.246,2.004 -2.32,2.492 -1.074,0.488 -3.058,0.813 -5.957,0.977 v 1.804 z m -28.562,-62.253 c 2.863,-0.458 5.093,-0.684 6.687,-0.684 4.004,0 7.625,1.332 10.867,4.004 3.238,2.668 4.856,6.363 4.856,11.082 0,4.883 -1.692,8.504 -5.078,10.867 -3.383,2.359 -7.68,3.539 -12.891,3.539 -1.465,0 -2.945,-0.133 -4.441,-0.391 v -28.417" /><path
         id="path58"
         style="fill:#000000;fill-opacity:1;fill-rule:evenodd;stroke:none"
         d="m 784.027,822.863 v 2.051 c 4.95,-2.441 9.067,-5.32 12.352,-8.641 4.656,-4.753 8.254,-10.328 10.793,-16.726 2.539,-6.395 3.808,-13.059 3.808,-19.992 0,-10.094 -2.484,-19.297 -7.445,-27.614 -4.965,-8.316 -11.469,-14.265 -19.508,-17.847 v 1.808 c 4.004,2.246 7.301,5.282 9.887,9.106 2.59,3.824 4.508,8.691 5.762,14.597 1.254,5.911 1.879,12.071 1.879,18.485 0,6.933 -0.535,13.265 -1.61,18.992 -0.812,4.492 -1.832,8.09 -3.05,10.793 -1.223,2.699 -2.84,5.305 -4.86,7.813 -2.019,2.503 -4.687,4.898 -8.008,7.175 v 0" /><path
         id="path60"
         style="fill:none;stroke:#000000;stroke-width:5.19999981;stroke-linecap:round;stroke-linejoin:miter;stroke-miterlimit:10;stroke-dasharray:none;stroke-opacity:1"
         d="m 1547.73,300.973 c 475.12,1.132 475.12,1.132 475.12,1.132" /><path
         id="path62"
         style="fill:#000000;fill-opacity:1;fill-rule:evenodd;stroke:none"
         d="m 2002.05,302.059 -10.37,-10.426 36.37,10.488 -36.42,10.313 10.42,-10.375" /><path
         id="path64"
         style="fill:none;stroke:#000000;stroke-width:2.5999999;stroke-linecap:butt;stroke-linejoin:miter;stroke-miterlimit:10;stroke-dasharray:none;stroke-opacity:1"
         d="m 2002.05,302.059 -10.37,-10.426 36.37,10.488 -36.42,10.313 z" /><path
         id="path66"
         style="fill:#000000;fill-opacity:1;fill-rule:evenodd;stroke:none"
         d="m 1710.35,251.93 c 0,7.55 1.14,14.054 3.42,19.508 2.28,5.453 5.3,9.511 9.08,12.183 2.93,2.113 5.96,3.172 9.08,3.172 5.08,0 9.64,-2.586 13.68,-7.762 5.04,-6.414 7.56,-15.105 7.56,-26.074 0,-7.684 -1.1,-14.211 -3.32,-19.582 -2.21,-5.371 -5.03,-9.27 -8.47,-11.695 -3.43,-2.422 -6.74,-3.637 -9.93,-3.637 -6.32,0 -11.58,3.727 -15.78,11.184 -3.54,6.281 -5.32,13.847 -5.32,22.703 z m 9.57,-1.219 c 0,-9.117 1.12,-16.555 3.37,-22.316 1.85,-4.848 4.62,-7.274 8.3,-7.274 1.76,0 3.58,0.789 5.47,2.367 1.89,1.578 3.32,4.223 4.3,7.934 1.5,5.601 2.24,13.492 2.24,23.683 0,7.551 -0.78,13.848 -2.34,18.895 -1.17,3.742 -2.69,6.398 -4.54,7.961 -1.34,1.074 -2.95,1.609 -4.84,1.609 -2.21,0 -4.18,-0.992 -5.9,-2.976 -2.35,-2.703 -3.94,-6.949 -4.79,-12.746 -0.85,-5.793 -1.27,-11.508 -1.27,-17.137 v 0" /><path
         id="path68"
         style="fill:none;stroke:#000000;stroke-width:5.19999981;stroke-linecap:round;stroke-linejoin:miter;stroke-miterlimit:10;stroke-dasharray:none;stroke-opacity:1"
         d="m 1760.15,12.6758 c -0.86,731.0702 -0.86,731.0702 -0.86,731.0702" /><path
         id="path70"
         style="fill:#000000;fill-opacity:1;fill-rule:evenodd;stroke:none"
         d="m 1759.31,722.945 10.41,-10.386 -10.44,36.386 -10.36,-36.41 10.39,10.41" /><path
         id="path72"
         style="fill:none;stroke:#000000;stroke-width:2.5999999;stroke-linecap:butt;stroke-linejoin:miter;stroke-miterlimit:10;stroke-dasharray:none;stroke-opacity:1"
         d="m 1759.31,722.945 10.41,-10.386 -10.44,36.386 -10.36,-36.41 z" /><path
         id="path74"
         style="fill:#000000;fill-opacity:1;fill-rule:evenodd;stroke:none"
         d="m 1988.89,371.266 c 1.6,-1.696 2.8,-3.387 3.62,-5.078 0.58,-1.172 1.54,-4.25 2.88,-9.231 l 4.29,6.445 c 1.14,1.563 2.53,3.051 4.16,4.469 1.62,1.414 3.05,2.383 4.29,2.906 0.78,0.325 1.65,0.489 2.59,0.489 1.4,0 2.51,-0.375 3.35,-1.125 0.82,-0.75 1.24,-1.661 1.24,-2.735 0,-1.234 -0.24,-2.082 -0.73,-2.539 -0.91,-0.812 -1.95,-1.219 -3.13,-1.219 -0.68,0 -1.41,0.145 -2.2,0.438 -1.52,0.523 -2.55,0.781 -3.07,0.781 -0.78,0 -1.71,-0.453 -2.79,-1.367 -2.01,-1.691 -4.42,-4.965 -7.22,-9.812 l 4,-16.797 c 0.62,-2.575 1.14,-4.11 1.56,-4.618 0.43,-0.503 0.85,-0.753 1.27,-0.753 0.69,0 1.48,0.375 2.4,1.121 1.79,1.496 3.32,3.453 4.59,5.859 l 1.71,-0.879 c -2.06,-3.84 -4.66,-7.031 -7.82,-9.57 -1.79,-1.43 -3.3,-2.149 -4.54,-2.149 -1.82,0 -3.27,1.028 -4.34,3.078 -0.69,1.27 -2.1,6.739 -4.25,16.407 -5.08,-8.824 -9.15,-14.504 -12.21,-17.043 -1.99,-1.629 -3.9,-2.442 -5.76,-2.442 -1.3,0 -2.49,0.473 -3.57,1.418 -0.78,0.715 -1.17,1.676 -1.17,2.879 0,1.074 0.36,1.969 1.08,2.688 0.72,0.715 1.59,1.074 2.63,1.074 1.05,0 2.15,-0.523 3.32,-1.563 0.85,-0.75 1.5,-1.125 1.96,-1.125 0.39,0 0.9,0.262 1.51,0.782 1.53,1.238 3.62,3.906 6.25,8.008 2.64,4.101 4.37,7.062 5.18,8.886 -2.02,7.91 -3.11,12.094 -3.27,12.551 -0.75,2.113 -1.73,3.613 -2.93,4.492 -1.21,0.879 -2.98,1.317 -5.32,1.317 -0.75,0 -1.62,-0.032 -2.59,-0.098 v 1.758 l 13.03,2.297" /><path
         id="path76"
         style="fill:#000000;fill-opacity:1;fill-rule:evenodd;stroke:none"
         d="m 1703.97,745.227 c 1.11,-1.887 1.87,-3.653 2.3,-5.297 0.42,-1.645 0.84,-4.875 1.27,-9.692 l 2.14,-24.023 c 1.96,2.344 4.79,6.055 8.5,11.133 1.79,2.472 4,5.843 6.64,10.105 1.59,2.606 2.57,4.43 2.93,5.469 0.2,0.523 0.29,1.058 0.29,1.613 0,0.36 -0.11,0.653 -0.34,0.879 -0.23,0.227 -0.82,0.496 -1.78,0.805 -0.96,0.308 -1.76,0.879 -2.39,1.711 -0.64,0.828 -0.96,1.781 -0.96,2.855 0,1.336 0.39,2.41 1.18,3.223 0.78,0.812 1.75,1.219 2.93,1.219 1.43,0 2.65,-0.594 3.66,-1.782 1.01,-1.187 1.51,-2.824 1.51,-4.906 0,-2.57 -0.88,-5.512 -2.64,-8.812 -1.75,-3.305 -5.14,-8.375 -10.15,-15.211 -5.02,-6.836 -11.09,-14.289 -18.22,-22.364 -4.91,-5.566 -8.55,-9.074 -10.93,-10.523 -2.38,-1.449 -4.41,-2.172 -6.11,-2.172 -1.01,0 -1.89,0.383 -2.66,1.148 -0.76,0.762 -1.14,1.653 -1.14,2.661 0,1.269 0.52,2.425 1.58,3.464 1.06,1.043 2.21,1.563 3.44,1.563 0.66,0 1.19,-0.145 1.62,-0.438 0.25,-0.164 0.54,-0.628 0.85,-1.39 0.31,-0.766 0.6,-1.277 0.85,-1.539 0.17,-0.164 0.36,-0.246 0.59,-0.246 0.2,0 0.54,0.164 1.03,0.488 1.79,1.109 3.87,2.867 6.25,5.273 3.12,3.192 5.43,5.797 6.93,7.813 l -2.73,30.957 c -0.46,5.113 -1.14,8.223 -2.05,9.328 -0.92,1.106 -2.45,1.66 -4.59,1.66 -0.69,0 -1.91,-0.097 -3.67,-0.293 l -0.44,1.805 14.31,3.516" /><path
         id="path78"
         style="fill:#000000;fill-opacity:1;fill-rule:evenodd;stroke:none"
         d="m 1525.65,788.707 c 4.59,-0.98 8.02,-2.539 10.3,-4.687 3.16,-2.997 4.74,-6.661 4.74,-10.989 0,-3.289 -1.05,-6.437 -3.13,-9.449 -2.08,-3.012 -4.94,-5.207 -8.57,-6.59 -3.63,-1.383 -9.17,-2.074 -16.62,-2.074 h -31.25 v 1.805 h 2.49 c 2.77,0 4.75,0.879 5.95,2.636 0.75,1.141 1.13,3.567 1.13,7.278 v 42.773 c 0,4.102 -0.48,6.688 -1.42,7.762 -1.27,1.433 -3.16,2.148 -5.66,2.148 h -2.49 v 1.809 h 28.61 c 5.34,-0.004 9.62,-0.391 12.84,-1.172 4.88,-1.172 8.61,-3.25 11.18,-6.227 2.57,-2.98 3.86,-6.406 3.86,-10.277 0,-3.32 -1.01,-6.293 -3.03,-8.914 -2.01,-2.621 -4.99,-4.562 -8.93,-5.832 z m -25.59,2.637 c 1.21,-0.231 2.58,-0.403 4.13,-0.516 1.54,-0.113 3.24,-0.168 5.1,-0.168 4.75,0 8.32,0.512 10.72,1.535 2.39,1.028 4.22,2.598 5.49,4.715 1.27,2.113 1.91,4.426 1.91,6.934 0,3.871 -1.58,7.176 -4.74,9.91 -3.16,2.734 -7.76,4.101 -13.82,4.101 -3.26,0 -6.19,-0.359 -8.79,-1.074 z m 0,-31.641 c 3.78,-0.879 7.51,-1.32 11.18,-1.32 5.9,0 10.39,1.328 13.48,3.98 3.09,2.653 4.64,5.934 4.64,9.84 0,2.57 -0.7,5.043 -2.1,7.422 -1.4,2.375 -3.68,4.246 -6.84,5.613 -3.15,1.367 -7.06,2.051 -11.72,2.051 -2.01,0 -3.74,-0.031 -5.17,-0.098 -1.43,-0.066 -2.59,-0.179 -3.47,-0.339 v -27.149" /><path
         id="path80"
         style="fill:#000000;fill-opacity:1;fill-rule:evenodd;stroke:none"
         d="m 1548.5,822.301 v 2.051 c 4.95,-2.442 9.07,-5.325 12.35,-8.645 4.66,-4.754 8.26,-10.328 10.79,-16.723 2.54,-6.398 3.81,-13.062 3.81,-19.996 0,-10.09 -2.48,-19.297 -7.45,-27.613 -4.96,-8.316 -11.46,-14.266 -19.5,-17.844 v 1.805 c 4,2.246 7.3,5.281 9.89,9.105 2.58,3.825 4.5,8.692 5.76,14.602 1.25,5.906 1.88,12.066 1.88,18.48 0,6.934 -0.54,13.266 -1.61,18.997 -0.82,4.492 -1.83,8.085 -3.06,10.789 -1.22,2.703 -2.84,5.304 -4.85,7.812 -2.02,2.508 -4.69,4.899 -8.01,7.18 v 0" /><path
         id="path82"
         style="fill:none;stroke:#000000;stroke-width:8;stroke-linecap:round;stroke-linejoin:round;stroke-miterlimit:10;stroke-dasharray:none;stroke-opacity:1"
         d="M 814.715,697.313 C 1239.8,91.0313 1239.8,91.0313 1239.8,91.0313" /><path
         id="path84"
         style="fill:none;stroke:#000000;stroke-width:8;stroke-linecap:round;stroke-linejoin:round;stroke-miterlimit:10;stroke-dasharray:none;stroke-opacity:1"
         d="M 1971.77,709.156 C 1545.7,71.8555 1545.7,71.8555 1545.7,71.8555" /></g></g></svg>