<?xml version="1.0" encoding="UTF-8" standalone="no"?>
<svg
   xmlns:dc="http://purl.org/dc/elements/1.1/"
   xmlns:cc="http://creativecommons.org/ns#"
   xmlns:rdf="http://www.w3.org/1999/02/22-rdf-syntax-ns#"
   xmlns:svg="http://www.w3.org/2000/svg"
   xmlns="http://www.w3.org/2000/svg"
   viewBox="0 0 372.42667 99.973335"
   height="99.973335"
   width="372.42667"
   xml:space="preserve"
   id="svg2"
   version="1.1"><metadata
     id="metadata8"><rdf:RDF><cc:Work
         rdf:about=""><dc:format>image/svg+xml</dc:format><dc:type
           rdf:resource="http://purl.org/dc/dcmitype/StillImage" /></cc:Work></rdf:RDF></metadata><defs
     id="defs6" /><g
     transform="matrix(1.3333333,0,0,-1.3333333,0,99.973333)"
     id="g10"><g
       transform="scale(0.1)"
       id="g12"><path
         id="path14"
         style="fill:none;stroke:#000000;stroke-width:5.19999981;stroke-linecap:round;stroke-linejoin:miter;stroke-miterlimit:10;stroke-dasharray:none;stroke-opacity:1"
         d="m 38.6289,301.539 c 462.9221,1.137 462.9221,1.137 462.9221,1.137" /><path
         id="path16"
         style="fill:#000000;fill-opacity:1;fill-rule:evenodd;stroke:none"
         d="m 480.75,302.621 -10.375,-10.422 36.375,10.489 -36.426,10.308 10.426,-10.375" /><path
         id="path18"
         style="fill:none;stroke:#000000;stroke-width:2.5999999;stroke-linecap:butt;stroke-linejoin:miter;stroke-miterlimit:10;stroke-dasharray:none;stroke-opacity:1"
         d="m 480.75,302.621 -10.375,-10.422 36.375,10.489 -36.426,10.308 z" /><path
         id="path20"
         style="fill:#000000;fill-opacity:1;fill-rule:evenodd;stroke:none"
         d="m 196.816,252.496 c 0,7.555 1.141,14.055 3.418,19.508 2.278,5.453 5.305,9.512 9.082,12.184 2.93,2.113 5.957,3.171 9.082,3.171 5.079,0 9.637,-2.586 13.672,-7.761 5.047,-6.414 7.571,-15.106 7.571,-26.075 0,-7.683 -1.11,-14.21 -3.321,-19.582 -2.215,-5.371 -5.039,-9.269 -8.472,-11.695 -3.434,-2.422 -6.746,-3.637 -9.938,-3.637 -6.316,0 -11.57,3.727 -15.769,11.184 -3.551,6.281 -5.325,13.852 -5.325,22.703 z m 9.571,-1.219 c 0,-9.117 1.125,-16.554 3.371,-22.316 1.855,-4.848 4.621,-7.273 8.301,-7.273 1.757,0 3.578,0.789 5.468,2.367 1.887,1.578 3.321,4.222 4.297,7.933 1.496,5.602 2.246,13.492 2.246,23.684 0,7.551 -0.781,13.851 -2.343,18.894 -1.172,3.747 -2.688,6.399 -4.543,7.961 -1.336,1.075 -2.946,1.61 -4.832,1.61 -2.215,0 -4.184,-0.992 -5.911,-2.977 -2.343,-2.703 -3.937,-6.949 -4.785,-12.746 -0.847,-5.793 -1.269,-11.508 -1.269,-17.137 v 0" /><path
         id="path22"
         style="fill:none;stroke:#000000;stroke-width:5.19999981;stroke-linecap:round;stroke-linejoin:miter;stroke-miterlimit:10;stroke-dasharray:none;stroke-opacity:1"
         d="M 246.613,22.6523 C 245.75,744.359 245.75,744.359 245.75,744.359" /><path
         id="path24"
         style="fill:#000000;fill-opacity:1;fill-rule:evenodd;stroke:none"
         d="m 245.773,723.559 10.415,-10.387 -10.446,36.387 -10.355,-36.414 10.386,10.414" /><path
         id="path26"
         style="fill:none;stroke:#000000;stroke-width:2.5999999;stroke-linecap:butt;stroke-linejoin:miter;stroke-miterlimit:10;stroke-dasharray:none;stroke-opacity:1"
         d="m 245.773,723.559 10.415,-10.387 -10.446,36.387 -10.355,-36.414 z" /><path
         id="path28"
         style="fill:#000000;fill-opacity:1;fill-rule:evenodd;stroke:none"
         d="m 483.203,276.141 c 1.594,-1.692 2.797,-3.383 3.613,-5.078 0.586,-1.172 1.547,-4.247 2.879,-9.227 l 4.297,6.445 c 1.141,1.563 2.524,3.051 4.153,4.469 1.625,1.414 3.058,2.383 4.296,2.902 0.782,0.328 1.645,0.489 2.586,0.489 1.403,0 2.516,-0.375 3.348,-1.121 0.828,-0.75 1.242,-1.661 1.242,-2.735 0,-1.238 -0.242,-2.086 -0.73,-2.539 -0.914,-0.816 -1.953,-1.223 -3.125,-1.223 -0.684,0 -1.418,0.149 -2.199,0.442 -1.528,0.519 -2.555,0.781 -3.075,0.781 -0.781,0 -1.711,-0.457 -2.785,-1.367 -2.015,-1.695 -4.426,-4.965 -7.226,-9.816 l 4.003,-16.797 c 0.622,-2.571 1.141,-4.11 1.563,-4.614 0.426,-0.504 0.848,-0.757 1.27,-0.757 0.683,0 1.48,0.375 2.394,1.125 1.789,1.496 3.32,3.449 4.59,5.859 l 1.707,-0.879 c -2.051,-3.844 -4.652,-7.031 -7.813,-9.57 -1.789,-1.434 -3.304,-2.149 -4.539,-2.149 -1.824,0 -3.273,1.024 -4.347,3.074 -0.684,1.27 -2.098,6.739 -4.246,16.407 -5.079,-8.821 -9.149,-14.5 -12.207,-17.039 -1.985,-1.629 -3.907,-2.442 -5.762,-2.442 -1.305,0 -2.492,0.473 -3.567,1.414 -0.781,0.719 -1.171,1.676 -1.171,2.883 0,1.074 0.359,1.969 1.074,2.684 0.719,0.718 1.597,1.074 2.637,1.074 1.042,0 2.148,-0.52 3.32,-1.563 0.847,-0.746 1.5,-1.121 1.953,-1.121 0.391,0 0.894,0.258 1.516,0.782 1.531,1.234 3.613,3.906 6.25,8.007 2.636,4.102 4.359,7.063 5.175,8.887 -2.019,7.91 -3.109,12.094 -3.273,12.547 -0.746,2.117 -1.723,3.613 -2.93,4.492 -1.203,0.879 -2.976,1.321 -5.32,1.321 -0.75,0 -1.613,-0.036 -2.59,-0.098 v 1.758 l 13.039,2.293" /><path
         id="path30"
         style="fill:#000000;fill-opacity:1;fill-rule:evenodd;stroke:none"
         d="m 190.434,745.793 c 1.109,-1.887 1.875,-3.652 2.296,-5.297 0.422,-1.644 0.848,-4.875 1.27,-9.691 l 2.148,-24.024 c 1.954,2.344 4.786,6.055 8.497,11.133 1.789,2.473 4.003,5.844 6.64,10.106 1.594,2.605 2.57,4.429 2.93,5.468 0.195,0.524 0.293,1.059 0.293,1.614 0,0.359 -0.113,0.652 -0.344,0.878 -0.226,0.227 -0.82,0.497 -1.781,0.805 -0.961,0.309 -1.758,0.879 -2.391,1.711 -0.637,0.828 -0.953,1.781 -0.953,2.856 0,1.336 0.391,2.41 1.172,3.222 0.781,0.813 1.758,1.219 2.93,1.219 1.433,0 2.652,-0.594 3.66,-1.781 1.012,-1.188 1.515,-2.824 1.515,-4.907 0,-2.57 -0.878,-5.507 -2.636,-8.812 -1.758,-3.305 -5.145,-8.375 -10.157,-15.211 -5.011,-6.836 -11.085,-14.289 -18.214,-22.363 -4.914,-5.567 -8.559,-9.074 -10.938,-10.524 -2.375,-1.449 -4.41,-2.172 -6.101,-2.172 -1.008,0 -1.895,0.383 -2.661,1.149 -0.765,0.766 -1.148,1.652 -1.148,2.66 0,1.27 0.527,2.426 1.586,3.465 1.058,1.043 2.207,1.562 3.441,1.562 0.653,0 1.192,-0.144 1.614,-0.437 0.261,-0.164 0.543,-0.625 0.855,-1.391 0.309,-0.765 0.594,-1.277 0.852,-1.539 0.164,-0.164 0.359,-0.246 0.586,-0.246 0.195,0 0.539,0.164 1.027,0.488 1.789,1.11 3.875,2.868 6.25,5.274 3.125,3.191 5.437,5.797 6.933,7.812 l -2.734,30.957 c -0.457,5.114 -1.141,8.223 -2.051,9.328 -0.91,1.106 -2.441,1.661 -4.59,1.661 -0.683,0 -1.906,-0.098 -3.664,-0.293 l -0.437,1.804 14.305,3.516" /><path
         id="path32"
         style="fill:none;stroke:#000000;stroke-width:5.19999981;stroke-linecap:round;stroke-linejoin:miter;stroke-miterlimit:10;stroke-dasharray:none;stroke-opacity:1"
         d="m 790.355,301.539 c 483.545,1.137 483.545,1.137 483.545,1.137" /><path
         id="path34"
         style="fill:#000000;fill-opacity:1;fill-rule:evenodd;stroke:none"
         d="m 1253.1,302.625 -10.38,-10.426 36.38,10.489 -36.42,10.312 10.42,-10.375" /><path
         id="path36"
         style="fill:none;stroke:#000000;stroke-width:2.5999999;stroke-linecap:butt;stroke-linejoin:miter;stroke-miterlimit:10;stroke-dasharray:none;stroke-opacity:1"
         d="m 1253.1,302.625 -10.38,-10.426 36.38,10.489 -36.42,10.312 z" /><path
         id="path38"
         style="fill:#000000;fill-opacity:1;fill-rule:evenodd;stroke:none"
         d="m 992.074,344.809 c 0,7.554 1.137,14.054 3.418,19.507 2.278,5.454 5.308,9.512 9.078,12.184 2.93,2.113 5.96,3.172 9.09,3.172 5.07,0 9.63,-2.586 13.67,-7.762 5.04,-6.414 7.56,-15.105 7.56,-26.074 0,-7.684 -1.1,-14.211 -3.32,-19.582 -2.21,-5.371 -5.03,-9.27 -8.47,-11.691 -3.43,-2.426 -6.74,-3.641 -9.93,-3.641 -6.32,0 -11.58,3.726 -15.775,11.183 -3.547,6.282 -5.321,13.852 -5.321,22.704 z m 9.566,-1.219 c 0,-9.117 1.13,-16.555 3.37,-22.317 1.86,-4.847 4.63,-7.273 8.3,-7.273 1.76,0 3.58,0.789 5.47,2.367 1.89,1.578 3.32,4.223 4.3,7.934 1.5,5.601 2.24,13.492 2.24,23.683 0,7.551 -0.78,13.852 -2.34,18.895 -1.17,3.746 -2.68,6.398 -4.54,7.961 -1.33,1.074 -2.94,1.609 -4.83,1.609 -2.22,0 -4.19,-0.992 -5.91,-2.976 -2.34,-2.703 -3.94,-6.95 -4.79,-12.746 -0.84,-5.793 -1.27,-11.508 -1.27,-17.137 v 0" /><path
         id="path40"
         style="fill:none;stroke:#000000;stroke-width:5.19999981;stroke-linecap:round;stroke-linejoin:miter;stroke-miterlimit:10;stroke-dasharray:none;stroke-opacity:1"
         d="M 981.457,7.09766 C 980.59,738.172 980.59,738.172 980.59,738.172" /><path
         id="path42"
         style="fill:#000000;fill-opacity:1;fill-rule:evenodd;stroke:none"
         d="m 980.617,717.371 10.41,-10.391 -10.441,36.391 -10.356,-36.414 10.387,10.414" /><path
         id="path44"
         style="fill:none;stroke:#000000;stroke-width:2.5999999;stroke-linecap:butt;stroke-linejoin:miter;stroke-miterlimit:10;stroke-dasharray:none;stroke-opacity:1"
         d="m 980.617,717.371 10.41,-10.391 -10.441,36.391 -10.356,-36.414 z" /><path
         id="path46"
         style="fill:#000000;fill-opacity:1;fill-rule:evenodd;stroke:none"
         d="m 1254.13,368.824 c 1.59,-1.691 2.79,-3.383 3.61,-5.078 0.58,-1.172 1.55,-4.246 2.88,-9.226 l 4.29,6.445 c 1.14,1.562 2.53,3.051 4.16,4.469 1.63,1.414 3.06,2.382 4.29,2.902 0.78,0.328 1.65,0.488 2.59,0.488 1.4,0 2.51,-0.375 3.35,-1.121 0.83,-0.75 1.24,-1.66 1.24,-2.734 0,-1.239 -0.24,-2.086 -0.73,-2.539 -0.92,-0.817 -1.95,-1.223 -3.13,-1.223 -0.68,0 -1.41,0.148 -2.2,0.441 -1.52,0.52 -2.55,0.782 -3.07,0.782 -0.78,0 -1.71,-0.457 -2.78,-1.367 -2.02,-1.696 -4.43,-4.965 -7.23,-9.817 l 4,-16.797 c 0.62,-2.57 1.14,-4.109 1.56,-4.613 0.43,-0.504 0.85,-0.758 1.27,-0.758 0.69,0 1.48,0.375 2.4,1.125 1.79,1.496 3.32,3.449 4.59,5.86 l 1.71,-0.879 c -2.05,-3.844 -4.66,-7.032 -7.82,-9.571 -1.79,-1.433 -3.3,-2.148 -4.54,-2.148 -1.82,0 -3.27,1.023 -4.34,3.074 -0.69,1.27 -2.1,6.738 -4.25,16.406 -5.08,-8.82 -9.15,-14.5 -12.21,-17.039 -1.98,-1.629 -3.9,-2.441 -5.76,-2.441 -1.3,0 -2.49,0.473 -3.56,1.414 -0.79,0.719 -1.18,1.68 -1.18,2.883 0,1.074 0.36,1.968 1.08,2.683 0.72,0.719 1.6,1.075 2.63,1.075 1.05,0 2.15,-0.52 3.32,-1.563 0.85,-0.746 1.5,-1.121 1.96,-1.121 0.39,0 0.89,0.258 1.51,0.781 1.53,1.235 3.62,3.906 6.25,8.008 2.64,4.102 4.37,7.063 5.18,8.887 -2.02,7.91 -3.11,12.093 -3.27,12.547 -0.75,2.117 -1.73,3.613 -2.93,4.492 -1.21,0.879 -2.98,1.32 -5.32,1.32 -0.75,0 -1.62,-0.035 -2.59,-0.098 v 1.758 l 13.04,2.293" /><path
         id="path48"
         style="fill:#000000;fill-opacity:1;fill-rule:evenodd;stroke:none"
         d="m 935.34,741.664 c 1.109,-1.887 1.871,-3.652 2.297,-5.297 0.422,-1.644 0.843,-4.875 1.269,-9.691 l 2.149,-24.024 c 1.953,2.344 4.785,6.055 8.496,11.133 1.789,2.473 4.004,5.84 6.64,10.106 1.594,2.605 2.571,4.425 2.93,5.468 0.195,0.52 0.293,1.059 0.293,1.614 0,0.355 -0.113,0.648 -0.344,0.879 -0.226,0.226 -0.82,0.496 -1.781,0.804 -0.961,0.309 -1.758,0.879 -2.394,1.707 -0.633,0.832 -0.95,1.785 -0.95,2.86 0,1.332 0.391,2.406 1.172,3.222 0.781,0.813 1.758,1.219 2.93,1.219 1.43,0 2.652,-0.594 3.66,-1.781 1.012,-1.188 1.516,-2.824 1.516,-4.906 0,-2.575 -0.879,-5.512 -2.637,-8.817 -1.758,-3.301 -5.145,-8.371 -10.156,-15.207 -5.016,-6.836 -11.086,-14.293 -18.215,-22.363 -4.914,-5.567 -8.559,-9.074 -10.938,-10.524 -2.375,-1.449 -4.41,-2.171 -6.101,-2.171 -1.012,0 -1.899,0.382 -2.664,1.144 -0.762,0.766 -1.145,1.652 -1.145,2.664 0,1.27 0.528,2.422 1.586,3.465 1.059,1.043 2.207,1.562 3.442,1.562 0.652,0 1.187,-0.144 1.613,-0.437 0.258,-0.164 0.543,-0.629 0.851,-1.395 0.313,-0.765 0.598,-1.277 0.856,-1.535 0.164,-0.164 0.359,-0.246 0.586,-0.246 0.195,0 0.539,0.164 1.027,0.488 1.789,1.106 3.871,2.864 6.25,5.274 3.125,3.191 5.434,5.793 6.934,7.812 l -2.735,30.957 c -0.457,5.11 -1.14,8.219 -2.05,9.329 -0.914,1.105 -2.442,1.66 -4.59,1.66 -0.684,0 -1.907,-0.098 -3.664,-0.293 l -0.438,1.804 14.305,3.516" /><path
         id="path50"
         style="fill:none;stroke:#000000;stroke-width:8;stroke-linecap:round;stroke-linejoin:round;stroke-miterlimit:10;stroke-dasharray:none;stroke-opacity:1"
         d="M 496.066,383.973 C 191.785,5.10156 191.785,5.10156 191.785,5.10156" /><path
         id="path52"
         style="fill:#000000;fill-opacity:1;fill-rule:evenodd;stroke:none"
         d="m 0,732.992 16.1133,7.863 h 1.6133 v -55.91 c 0,-3.711 0.1523,-6.019 0.4609,-6.933 0.3086,-0.91 0.9531,-1.61 1.9297,-2.098 0.9766,-0.488 2.9609,-0.766 5.957,-0.832 v -1.805 H 1.17188 v 1.805 c 3.125,0.066 5.14453,0.336 6.05468,0.809 0.91016,0.472 1.54688,1.105 1.90625,1.902 0.35547,0.797 0.53516,3.184 0.53516,7.152 v 35.743 c 0,4.82 -0.16406,7.91 -0.48828,9.277 -0.22656,1.043 -0.64453,1.808 -1.2461,2.297 -0.60156,0.488 -1.32421,0.73 -2.17187,0.73 -1.20313,0 -2.88281,-0.504 -5.027345,-1.512 L 0,732.992" /><path
         id="path54"
         style="fill:#000000;fill-opacity:1;fill-rule:evenodd;stroke:none"
         d="m 40.5273,740.66 v 2.051 c 4.9493,-2.441 9.0665,-5.324 12.3555,-8.645 4.6524,-4.75 8.25,-10.324 10.7891,-16.722 2.539,-6.395 3.8086,-13.063 3.8086,-19.996 0,-10.09 -2.4805,-19.293 -7.4453,-27.61 -4.9649,-8.316 -11.4688,-14.265 -19.5079,-17.847 v 1.804 c 4.004,2.246 7.3008,5.285 9.8868,9.11 2.5898,3.824 4.5078,8.691 5.7617,14.597 1.2539,5.911 1.8828,12.071 1.8828,18.481 0,6.933 -0.5391,13.265 -1.6133,18.996 -0.8125,4.492 -1.832,8.09 -3.0508,10.789 -1.2226,2.703 -2.8398,5.309 -4.8593,7.812 -2.0196,2.508 -4.6875,4.903 -8.0079,7.18 v 0" /><path
         id="path56"
         style="fill:#000000;fill-opacity:1;fill-rule:evenodd;stroke:none"
         d="m 745.641,686.02 -4.637,-12.743 h -39.063 v 1.805 c 11.493,10.484 19.579,19.043 24.266,25.684 4.688,6.64 7.031,12.714 7.031,18.214 0,4.2 -1.285,7.649 -3.855,10.352 -2.57,2.703 -5.649,4.051 -9.231,4.051 -3.254,0 -6.175,-0.949 -8.761,-2.856 -2.59,-1.902 -4.5,-4.695 -5.739,-8.375 h -1.808 c 0.816,6.024 2.906,10.645 6.277,13.868 3.367,3.222 7.574,4.835 12.621,4.835 5.371,0 9.856,-1.726 13.453,-5.175 3.594,-3.45 5.395,-7.52 5.395,-12.207 0,-3.352 -0.781,-6.707 -2.344,-10.059 -2.41,-5.273 -6.316,-10.855 -11.719,-16.75 -8.105,-8.851 -13.168,-14.191 -15.187,-16.016 h 17.285 c 3.516,0 5.984,0.133 7.398,0.391 1.418,0.262 2.696,0.793 3.832,1.59 1.141,0.797 2.133,1.926 2.981,3.391 h 1.805" /><path
         id="path58"
         style="fill:#000000;fill-opacity:1;fill-rule:evenodd;stroke:none"
         d="m 752.039,740.66 v 2.051 c 4.949,-2.441 9.066,-5.324 12.352,-8.645 4.656,-4.75 8.254,-10.324 10.793,-16.722 2.539,-6.395 3.808,-13.063 3.808,-19.996 0,-10.09 -2.484,-19.293 -7.445,-27.61 -4.965,-8.316 -11.469,-14.265 -19.508,-17.847 v 1.804 c 4.004,2.246 7.301,5.285 9.887,9.11 2.59,3.824 4.508,8.691 5.762,14.597 1.253,5.911 1.878,12.071 1.878,18.481 0,6.933 -0.535,13.265 -1.609,18.996 -0.812,4.492 -1.832,8.09 -3.051,10.789 -1.222,2.703 -2.84,5.309 -4.859,7.812 -2.02,2.508 -4.688,4.903 -8.008,7.18 v 0" /><path
         id="path60"
         style="fill:none;stroke:#000000;stroke-width:5.19999981;stroke-linecap:round;stroke-linejoin:miter;stroke-miterlimit:10;stroke-dasharray:none;stroke-opacity:1"
         d="m 1520.11,300.973 c 475.12,1.132 475.12,1.132 475.12,1.132" /><path
         id="path62"
         style="fill:#000000;fill-opacity:1;fill-rule:evenodd;stroke:none"
         d="m 1974.43,302.059 -10.38,-10.426 36.38,10.488 -36.43,10.313 10.43,-10.375" /><path
         id="path64"
         style="fill:none;stroke:#000000;stroke-width:2.5999999;stroke-linecap:butt;stroke-linejoin:miter;stroke-miterlimit:10;stroke-dasharray:none;stroke-opacity:1"
         d="m 1974.43,302.059 -10.38,-10.426 36.38,10.488 -36.43,10.313 z" /><path
         id="path66"
         style="fill:#000000;fill-opacity:1;fill-rule:evenodd;stroke:none"
         d="m 1682.73,251.93 c 0,7.55 1.14,14.054 3.41,19.508 2.29,5.453 5.31,9.511 9.09,12.183 2.93,2.113 5.95,3.172 9.08,3.172 5.08,0 9.64,-2.586 13.67,-7.762 5.05,-6.414 7.57,-15.105 7.57,-26.074 0,-7.684 -1.1,-14.211 -3.32,-19.582 -2.21,-5.371 -5.04,-9.27 -8.47,-11.695 -3.44,-2.422 -6.75,-3.637 -9.94,-3.637 -6.31,0 -11.57,3.727 -15.77,11.184 -3.55,6.281 -5.32,13.847 -5.32,22.703 z m 9.57,-1.219 c 0,-9.117 1.12,-16.555 3.37,-22.316 1.85,-4.848 4.62,-7.274 8.3,-7.274 1.76,0 3.58,0.789 5.47,2.367 1.88,1.578 3.32,4.223 4.29,7.934 1.5,5.601 2.25,13.492 2.25,23.683 0,7.551 -0.78,13.848 -2.34,18.895 -1.18,3.742 -2.69,6.398 -4.55,7.961 -1.33,1.074 -2.94,1.609 -4.83,1.609 -2.21,0 -4.18,-0.992 -5.91,-2.976 -2.34,-2.703 -3.94,-6.949 -4.78,-12.746 -0.85,-5.793 -1.27,-11.508 -1.27,-17.137 v 0" /><path
         id="path68"
         style="fill:none;stroke:#000000;stroke-width:5.19999981;stroke-linecap:round;stroke-linejoin:miter;stroke-miterlimit:10;stroke-dasharray:none;stroke-opacity:1"
         d="m 1732.53,12.6758 c -0.87,731.0702 -0.87,731.0702 -0.87,731.0702" /><path
         id="path70"
         style="fill:#000000;fill-opacity:1;fill-rule:evenodd;stroke:none"
         d="m 1731.69,722.945 10.41,-10.386 -10.44,36.386 -10.36,-36.41 10.39,10.41" /><path
         id="path72"
         style="fill:none;stroke:#000000;stroke-width:2.5999999;stroke-linecap:butt;stroke-linejoin:miter;stroke-miterlimit:10;stroke-dasharray:none;stroke-opacity:1"
         d="m 1731.69,722.945 10.41,-10.386 -10.44,36.386 -10.36,-36.41 z" /><path
         id="path74"
         style="fill:#000000;fill-opacity:1;fill-rule:evenodd;stroke:none"
         d="m 1961.27,371.266 c 1.6,-1.696 2.8,-3.387 3.61,-5.078 0.59,-1.172 1.55,-4.25 2.89,-9.231 l 4.29,6.445 c 1.14,1.563 2.53,3.051 4.15,4.469 1.63,1.414 3.06,2.383 4.3,2.906 0.78,0.325 1.64,0.489 2.59,0.489 1.4,0 2.51,-0.375 3.34,-1.125 0.83,-0.75 1.25,-1.661 1.25,-2.735 0,-1.234 -0.25,-2.082 -0.74,-2.539 -0.91,-0.812 -1.95,-1.219 -3.12,-1.219 -0.69,0 -1.42,0.145 -2.2,0.438 -1.53,0.523 -2.55,0.781 -3.08,0.781 -0.78,0 -1.7,-0.453 -2.78,-1.367 -2.02,-1.691 -4.43,-4.965 -7.22,-9.812 l 4,-16.797 c 0.62,-2.575 1.14,-4.11 1.56,-4.618 0.43,-0.503 0.85,-0.753 1.27,-0.753 0.69,0 1.48,0.375 2.39,1.121 1.8,1.496 3.32,3.453 4.59,5.859 l 1.71,-0.879 c -2.05,-3.84 -4.65,-7.031 -7.81,-9.57 -1.79,-1.43 -3.3,-2.149 -4.54,-2.149 -1.82,0 -3.27,1.028 -4.34,3.078 -0.69,1.27 -2.11,6.739 -4.25,16.407 -5.08,-8.824 -9.15,-14.504 -12.21,-17.043 -1.99,-1.629 -3.91,-2.442 -5.76,-2.442 -1.3,0 -2.49,0.473 -3.57,1.418 -0.78,0.715 -1.17,1.676 -1.17,2.879 0,1.074 0.36,1.969 1.08,2.688 0.71,0.715 1.59,1.074 2.63,1.074 1.05,0 2.15,-0.523 3.32,-1.563 0.85,-0.75 1.5,-1.125 1.96,-1.125 0.39,0 0.89,0.262 1.51,0.782 1.53,1.238 3.61,3.906 6.25,8.008 2.63,4.101 4.36,7.062 5.17,8.886 -2.01,7.91 -3.11,12.094 -3.27,12.551 -0.75,2.113 -1.72,3.613 -2.93,4.492 -1.2,0.879 -2.98,1.317 -5.32,1.317 -0.75,0 -1.61,-0.032 -2.59,-0.098 v 1.758 l 13.04,2.297" /><path
         id="path76"
         style="fill:#000000;fill-opacity:1;fill-rule:evenodd;stroke:none"
         d="m 1676.35,745.227 c 1.1,-1.887 1.87,-3.653 2.29,-5.297 0.43,-1.645 0.85,-4.875 1.27,-9.692 l 2.15,-24.023 c 1.95,2.344 4.78,6.055 8.49,11.133 1.8,2.472 4.01,5.843 6.65,10.105 1.59,2.606 2.57,4.43 2.93,5.469 0.19,0.523 0.29,1.058 0.29,1.613 0,0.36 -0.12,0.653 -0.34,0.879 -0.23,0.227 -0.83,0.496 -1.78,0.805 -0.96,0.308 -1.76,0.879 -2.4,1.711 -0.63,0.828 -0.95,1.781 -0.95,2.855 0,1.336 0.39,2.41 1.17,3.223 0.78,0.812 1.76,1.219 2.93,1.219 1.43,0 2.65,-0.594 3.66,-1.782 1.01,-1.187 1.52,-2.824 1.52,-4.906 0,-2.57 -0.88,-5.512 -2.64,-8.812 -1.76,-3.305 -5.14,-8.375 -10.16,-15.211 -5.01,-6.836 -11.08,-14.289 -18.21,-22.364 -4.92,-5.566 -8.56,-9.074 -10.93,-10.523 -2.38,-1.449 -4.41,-2.172 -6.11,-2.172 -1.01,0 -1.89,0.383 -2.66,1.148 -0.77,0.762 -1.15,1.653 -1.15,2.661 0,1.269 0.53,2.425 1.59,3.464 1.06,1.043 2.2,1.563 3.44,1.563 0.65,0 1.19,-0.145 1.61,-0.438 0.26,-0.164 0.55,-0.628 0.86,-1.39 0.31,-0.766 0.59,-1.277 0.85,-1.539 0.16,-0.164 0.36,-0.246 0.59,-0.246 0.19,0 0.53,0.164 1.02,0.488 1.8,1.109 3.88,2.867 6.25,5.273 3.13,3.192 5.44,5.797 6.94,7.813 l -2.74,30.957 c -0.45,5.113 -1.14,8.223 -2.05,9.328 -0.91,1.106 -2.44,1.66 -4.59,1.66 -0.68,0 -1.9,-0.097 -3.66,-0.293 l -0.44,1.805 14.31,3.516" /><path
         id="path78"
         style="fill:#000000;fill-opacity:1;fill-rule:evenodd;stroke:none"
         d="m 1465.31,726.891 c 1.89,4.461 4.27,7.902 7.15,10.328 2.88,2.422 6.47,3.636 10.77,3.636 5.31,0 9.38,-1.726 12.21,-5.175 2.15,-2.571 3.22,-5.325 3.22,-8.254 0,-4.817 -3.03,-9.797 -9.08,-14.942 4.06,-1.593 7.14,-3.871 9.22,-6.836 2.09,-2.96 3.13,-6.445 3.13,-10.449 0,-5.726 -1.82,-10.691 -5.47,-14.89 -4.75,-5.469 -11.64,-8.204 -20.65,-8.204 -4.46,0 -7.5,0.555 -9.11,1.661 -1.61,1.105 -2.41,2.293 -2.41,3.562 0,0.945 0.38,1.777 1.14,2.492 0.77,0.715 1.69,1.075 2.76,1.075 0.81,0 1.65,-0.129 2.49,-0.391 0.55,-0.164 1.81,-0.758 3.76,-1.781 1.95,-1.028 3.31,-1.637 4.05,-1.832 1.21,-0.36 2.49,-0.539 3.86,-0.539 3.32,0 6.21,1.289 8.67,3.859 2.46,2.57 3.68,5.613 3.68,9.129 0,2.574 -0.57,5.078 -1.7,7.519 -0.85,1.825 -1.78,3.207 -2.79,4.153 -1.4,1.301 -3.32,2.48 -5.76,3.539 -2.44,1.058 -4.93,1.586 -7.47,1.586 h -1.56 v 1.465 c 2.57,0.328 5.15,1.253 7.74,2.785 2.58,1.531 4.47,3.367 5.64,5.515 1.17,2.149 1.75,4.512 1.75,7.082 0,3.352 -1.05,6.063 -3.15,8.129 -2.1,2.067 -4.71,3.102 -7.83,3.102 -5.05,0 -9.27,-2.703 -12.65,-8.106 l -1.61,0.782" /><path
         id="path80"
         style="fill:#000000;fill-opacity:1;fill-rule:evenodd;stroke:none"
         d="m 1512.48,740.66 v 2.051 c 4.95,-2.441 9.06,-5.324 12.35,-8.645 4.65,-4.75 8.25,-10.324 10.79,-16.722 2.54,-6.395 3.81,-13.063 3.81,-19.996 0,-10.09 -2.48,-19.293 -7.45,-27.61 -4.96,-8.316 -11.46,-14.265 -19.5,-17.847 v 1.804 c 4,2.246 7.3,5.285 9.88,9.11 2.59,3.824 4.52,8.691 5.77,14.597 1.25,5.911 1.88,12.071 1.88,18.481 0,6.933 -0.54,13.265 -1.62,18.996 -0.81,4.492 -1.83,8.09 -3.05,10.789 -1.22,2.703 -2.84,5.309 -4.86,7.812 -2.01,2.508 -4.68,4.903 -8,7.18 v 0" /><path
         id="path82"
         style="fill:none;stroke:#000000;stroke-width:8;stroke-linecap:round;stroke-linejoin:round;stroke-miterlimit:10;stroke-dasharray:none;stroke-opacity:1"
         d="M 827.113,407.914 C 1091.01,32.2891 1091.01,32.2891 1091.01,32.2891" /><path
         id="path84"
         style="fill:none;stroke:#000000;stroke-width:8;stroke-linecap:round;stroke-linejoin:round;stroke-miterlimit:10;stroke-dasharray:none;stroke-opacity:1"
         d="M 1781.86,743.184 C 1559.96,77.0898 1559.96,77.0898 1559.96,77.0898" /><path
         id="path86"
         style="fill:none;stroke:#000000;stroke-width:5.19999981;stroke-linecap:round;stroke-linejoin:miter;stroke-miterlimit:10;stroke-dasharray:none;stroke-opacity:1"
         d="m 2311.55,294.133 c 475.13,1.137 475.13,1.137 475.13,1.137" /><path
         id="path88"
         style="fill:#000000;fill-opacity:1;fill-rule:evenodd;stroke:none"
         d="m 2765.88,295.219 -10.38,-10.422 36.38,10.484 -36.43,10.317 10.43,-10.379" /><path
         id="path90"
         style="fill:none;stroke:#000000;stroke-width:2.5999999;stroke-linecap:butt;stroke-linejoin:miter;stroke-miterlimit:10;stroke-dasharray:none;stroke-opacity:1"
         d="m 2765.88,295.219 -10.38,-10.422 36.38,10.484 -36.43,10.317 z" /><path
         id="path92"
         style="fill:#000000;fill-opacity:1;fill-rule:evenodd;stroke:none"
         d="m 2474.18,245.094 c 0,7.551 1.14,14.054 3.41,19.508 2.29,5.449 5.31,9.511 9.09,12.179 2.93,2.117 5.95,3.176 9.08,3.176 5.08,0 9.63,-2.59 13.67,-7.766 5.05,-6.41 7.57,-15.101 7.57,-26.074 0,-7.679 -1.11,-14.207 -3.32,-19.578 -2.22,-5.371 -5.04,-9.269 -8.47,-11.695 -3.44,-2.426 -6.75,-3.637 -9.94,-3.637 -6.31,0 -11.57,3.727 -15.77,11.18 -3.55,6.285 -5.32,13.851 -5.32,22.707 z m 9.57,-1.223 c 0,-9.113 1.12,-16.551 3.37,-22.312 1.85,-4.852 4.62,-7.278 8.3,-7.278 1.76,0 3.58,0.789 5.47,2.371 1.88,1.578 3.32,4.223 4.29,7.934 1.5,5.598 2.25,13.492 2.25,23.68 0,7.554 -0.78,13.851 -2.34,18.898 -1.18,3.742 -2.69,6.395 -4.55,7.957 -1.33,1.074 -2.94,1.613 -4.83,1.613 -2.21,0 -4.18,-0.992 -5.91,-2.98 -2.34,-2.699 -3.94,-6.949 -4.78,-12.742 -0.85,-5.793 -1.27,-11.508 -1.27,-17.141 v 0" /><path
         id="path94"
         style="fill:none;stroke:#000000;stroke-width:5.19999981;stroke-linecap:round;stroke-linejoin:miter;stroke-miterlimit:10;stroke-dasharray:none;stroke-opacity:1"
         d="m 2523.98,21.543 c -0.87,715.449 -0.87,715.449 -0.87,715.449" /><path
         id="path96"
         style="fill:#000000;fill-opacity:1;fill-rule:evenodd;stroke:none"
         d="m 2523.14,716.191 10.41,-10.386 -10.44,36.386 -10.36,-36.41 10.39,10.41" /><path
         id="path98"
         style="fill:none;stroke:#000000;stroke-width:2.5999999;stroke-linecap:butt;stroke-linejoin:miter;stroke-miterlimit:10;stroke-dasharray:none;stroke-opacity:1"
         d="m 2523.14,716.191 10.41,-10.386 -10.44,36.386 -10.36,-36.41 z" /><path
         id="path100"
         style="fill:#000000;fill-opacity:1;fill-rule:evenodd;stroke:none"
         d="m 2752.72,364.426 c 1.59,-1.692 2.8,-3.383 3.61,-5.078 0.59,-1.172 1.55,-4.246 2.88,-9.227 l 4.3,6.445 c 1.14,1.563 2.52,3.051 4.15,4.469 1.63,1.414 3.06,2.383 4.3,2.903 0.78,0.328 1.64,0.488 2.59,0.488 1.4,0 2.51,-0.371 3.34,-1.121 0.83,-0.75 1.25,-1.66 1.25,-2.735 0,-1.238 -0.25,-2.082 -0.74,-2.539 -0.91,-0.812 -1.95,-1.222 -3.12,-1.222 -0.69,0 -1.42,0.148 -2.2,0.441 -1.53,0.52 -2.56,0.781 -3.08,0.781 -0.78,0 -1.7,-0.457 -2.78,-1.367 -2.02,-1.691 -4.43,-4.965 -7.22,-9.816 l 4,-16.797 c 0.62,-2.571 1.14,-4.11 1.56,-4.613 0.42,-0.504 0.85,-0.758 1.27,-0.758 0.69,0 1.48,0.375 2.39,1.125 1.79,1.496 3.32,3.449 4.59,5.859 l 1.71,-0.879 c -2.05,-3.84 -4.65,-7.031 -7.81,-9.57 -1.79,-1.434 -3.3,-2.149 -4.54,-2.149 -1.83,0 -3.27,1.024 -4.35,3.075 -0.68,1.269 -2.1,6.738 -4.25,16.406 -5.07,-8.82 -9.14,-14.5 -12.2,-17.039 -1.99,-1.629 -3.91,-2.442 -5.76,-2.442 -1.31,0 -2.49,0.473 -3.57,1.414 -0.78,0.719 -1.17,1.68 -1.17,2.883 0,1.075 0.36,1.969 1.08,2.684 0.71,0.719 1.59,1.074 2.63,1.074 1.04,0 2.15,-0.519 3.32,-1.562 0.85,-0.746 1.5,-1.121 1.96,-1.121 0.39,0 0.89,0.261 1.51,0.781 1.53,1.238 3.61,3.906 6.25,8.008 2.63,4.101 4.36,7.062 5.17,8.886 -2.02,7.91 -3.11,12.094 -3.27,12.547 -0.75,2.117 -1.72,3.613 -2.93,4.492 -1.2,0.879 -2.98,1.321 -5.32,1.321 -0.75,0 -1.61,-0.032 -2.59,-0.098 v 1.758 l 13.04,2.293" /><path
         id="path102"
         style="fill:#000000;fill-opacity:1;fill-rule:evenodd;stroke:none"
         d="m 2467.79,738.391 c 1.11,-1.887 1.88,-3.653 2.3,-5.297 0.42,-1.645 0.85,-4.875 1.27,-9.692 l 2.15,-24.023 c 1.95,2.344 4.78,6.055 8.49,11.133 1.79,2.472 4.01,5.84 6.64,10.105 1.6,2.606 2.57,4.426 2.93,5.469 0.2,0.519 0.3,1.059 0.3,1.613 0,0.356 -0.12,0.649 -0.35,0.879 -0.22,0.227 -0.82,0.496 -1.78,0.805 -0.96,0.308 -1.76,0.879 -2.39,1.707 -0.64,0.832 -0.95,1.785 -0.95,2.859 0,1.332 0.39,2.406 1.17,3.223 0.78,0.812 1.76,1.219 2.93,1.219 1.43,0 2.65,-0.594 3.66,-1.782 1.01,-1.187 1.52,-2.824 1.52,-4.906 0,-2.574 -0.88,-5.512 -2.64,-8.816 -1.76,-3.301 -5.15,-8.371 -10.16,-15.207 -5.01,-6.836 -11.08,-14.293 -18.21,-22.364 -4.92,-5.566 -8.56,-9.074 -10.94,-10.523 -2.37,-1.449 -4.41,-2.172 -6.1,-2.172 -1.01,0 -1.9,0.383 -2.66,1.145 -0.77,0.765 -1.15,1.652 -1.15,2.664 0,1.269 0.53,2.422 1.59,3.465 1.05,1.043 2.2,1.562 3.44,1.562 0.65,0 1.19,-0.144 1.61,-0.437 0.26,-0.165 0.55,-0.629 0.86,-1.395 0.31,-0.762 0.59,-1.277 0.85,-1.535 0.16,-0.164 0.36,-0.246 0.59,-0.246 0.19,0 0.53,0.164 1.02,0.488 1.79,1.106 3.88,2.863 6.25,5.273 3.13,3.192 5.44,5.793 6.93,7.813 l -2.73,30.957 c -0.46,5.109 -1.14,8.219 -2.05,9.328 -0.91,1.106 -2.44,1.66 -4.59,1.66 -0.68,0 -1.9,-0.097 -3.66,-0.293 l -0.44,1.805 14.3,3.516" /><path
         id="path104"
         style="fill:#000000;fill-opacity:1;fill-rule:evenodd;stroke:none"
         d="m 2298.21,697.691 v -6.933 h -8.88 v -17.481 h -8.06 v 17.481 h -28.03 v 6.25 l 30.72,43.847 h 5.37 v -43.164 z m -16.94,0 v 32.86 l -23.24,-32.86 z" /><path
         id="path106"
         style="fill:#000000;fill-opacity:1;fill-rule:evenodd;stroke:none"
         d="m 2303.93,740.66 v 2.051 c 4.95,-2.441 9.06,-5.324 12.35,-8.645 4.65,-4.75 8.25,-10.324 10.79,-16.722 2.54,-6.395 3.81,-13.063 3.81,-19.996 0,-10.09 -2.48,-19.293 -7.45,-27.61 -4.96,-8.316 -11.47,-14.265 -19.5,-17.847 v 1.804 c 4,2.246 7.3,5.285 9.88,9.11 2.59,3.824 4.51,8.691 5.76,14.597 1.26,5.911 1.89,12.071 1.89,18.481 0,6.933 -0.54,13.265 -1.62,18.996 -0.81,4.492 -1.83,8.09 -3.05,10.789 -1.22,2.703 -2.84,5.309 -4.86,7.812 -2.02,2.508 -4.68,4.903 -8,7.18 v 0" /><path
         id="path108"
         style="fill:none;stroke:#000000;stroke-width:8;stroke-linecap:round;stroke-linejoin:round;stroke-miterlimit:10;stroke-dasharray:none;stroke-opacity:1"
         d="M 2426.94,676.598 C 2660.05,69.7969 2660.05,69.7969 2660.05,69.7969" /></g></g></svg>