<?xml version="1.0" encoding="UTF-8" standalone="no"?>
<svg
   xmlns:dc="http://purl.org/dc/elements/1.1/"
   xmlns:cc="http://creativecommons.org/ns#"
   xmlns:rdf="http://www.w3.org/1999/02/22-rdf-syntax-ns#"
   xmlns:svg="http://www.w3.org/2000/svg"
   xmlns="http://www.w3.org/2000/svg"
   viewBox="0 0 402.25333 102.13333"
   height="102.13333"
   width="402.25333"
   xml:space="preserve"
   id="svg2"
   version="1.1"><metadata
     id="metadata8"><rdf:RDF><cc:Work
         rdf:about=""><dc:format>image/svg+xml</dc:format><dc:type
           rdf:resource="http://purl.org/dc/dcmitype/StillImage" /></cc:Work></rdf:RDF></metadata><defs
     id="defs6" /><g
     transform="matrix(1.3333333,0,0,-1.3333333,0,102.13333)"
     id="g10"><g
       transform="scale(0.1)"
       id="g12"><path
         id="path14"
         style="fill:none;stroke:#000000;stroke-width:5.19999981;stroke-linecap:round;stroke-linejoin:miter;stroke-miterlimit:10;stroke-dasharray:none;stroke-opacity:1"
         d="m 79.4961,318.391 c 397.2069,1.136 397.2069,1.136 397.2069,1.136" /><path
         id="path16"
         style="fill:#000000;fill-opacity:1;fill-rule:evenodd;stroke:none"
         d="m 455.906,319.469 -10.371,-10.43 36.371,10.504 -36.429,10.297 10.429,-10.371" /><path
         id="path18"
         style="fill:none;stroke:#000000;stroke-width:2.5999999;stroke-linecap:butt;stroke-linejoin:miter;stroke-miterlimit:10;stroke-dasharray:none;stroke-opacity:1"
         d="m 455.906,319.469 -10.371,-10.43 36.371,10.504 -36.429,10.297 z" /><path
         id="path20"
         style="fill:#000000;fill-opacity:1;fill-rule:evenodd;stroke:none"
         d="m 202.688,275.285 c 0,7.551 1.14,14.055 3.417,19.504 2.282,5.453 5.309,9.516 9.083,12.184 2.929,2.117 5.957,3.175 9.082,3.175 5.078,0 9.636,-2.589 13.671,-7.765 5.047,-6.41 7.571,-15.102 7.571,-26.074 0,-7.68 -1.106,-14.207 -3.321,-19.579 -2.214,-5.371 -5.039,-9.269 -8.472,-11.695 -3.434,-2.426 -6.746,-3.637 -9.938,-3.637 -6.312,0 -11.57,3.727 -15.769,11.18 -3.547,6.285 -5.324,13.852 -5.324,22.707 z m 9.57,-1.222 c 0,-9.114 1.125,-16.551 3.371,-22.313 1.855,-4.852 4.621,-7.277 8.301,-7.277 1.758,0 3.582,0.789 5.468,2.367 1.887,1.582 3.321,4.226 4.297,7.937 1.496,5.598 2.246,13.493 2.246,23.68 0,7.555 -0.781,13.852 -2.343,18.898 -1.172,3.743 -2.688,6.395 -4.543,7.958 -1.332,1.074 -2.946,1.613 -4.832,1.613 -2.215,0 -4.184,-0.992 -5.91,-2.981 -2.344,-2.699 -3.938,-6.949 -4.786,-12.742 -0.843,-5.797 -1.269,-11.508 -1.269,-17.14 v 0" /><path
         id="path22"
         style="fill:none;stroke:#000000;stroke-width:5.19999981;stroke-linecap:round;stroke-linejoin:miter;stroke-miterlimit:10;stroke-dasharray:none;stroke-opacity:1"
         d="M 270.598,23.9531 C 269.734,755.023 269.734,755.023 269.734,755.023" /><path
         id="path24"
         style="fill:#000000;fill-opacity:1;fill-rule:evenodd;stroke:none"
         d="m 269.758,734.223 10.414,-10.387 -10.442,36.387 -10.359,-36.41 10.387,10.41" /><path
         id="path26"
         style="fill:none;stroke:#000000;stroke-width:2.5999999;stroke-linecap:butt;stroke-linejoin:miter;stroke-miterlimit:10;stroke-dasharray:none;stroke-opacity:1"
         d="m 269.758,734.223 10.414,-10.387 -10.442,36.387 -10.359,-36.41 z" /><path
         id="path28"
         style="fill:#000000;fill-opacity:1;fill-rule:evenodd;stroke:none"
         d="m 463.266,385.68 c 1.597,-1.692 2.8,-3.387 3.613,-5.078 0.586,-1.172 1.547,-4.247 2.883,-9.227 l 4.297,6.445 c 1.14,1.563 2.523,3.051 4.148,4.465 1.629,1.418 3.063,2.387 4.297,2.906 0.781,0.325 1.644,0.489 2.59,0.489 1.398,0 2.515,-0.375 3.344,-1.121 0.832,-0.75 1.246,-1.661 1.246,-2.735 0,-1.238 -0.246,-2.086 -0.735,-2.539 -0.91,-0.816 -1.953,-1.222 -3.125,-1.222 -0.683,0 -1.414,0.148 -2.195,0.441 -1.531,0.519 -2.555,0.781 -3.078,0.781 -0.781,0 -1.707,-0.457 -2.781,-1.367 -2.02,-1.695 -4.426,-4.965 -7.227,-9.816 l 4.004,-16.797 c 0.617,-2.571 1.141,-4.11 1.562,-4.614 0.422,-0.503 0.848,-0.757 1.27,-0.757 0.684,0 1.48,0.375 2.391,1.125 1.793,1.496 3.32,3.449 4.589,5.859 l 1.711,-0.879 c -2.05,-3.844 -4.656,-7.031 -7.812,-9.57 -1.789,-1.434 -3.305,-2.149 -4.543,-2.149 -1.82,0 -3.27,1.024 -4.344,3.075 -0.683,1.269 -2.101,6.738 -4.25,16.406 -5.078,-8.821 -9.144,-14.5 -12.207,-17.039 -1.984,-1.629 -3.906,-2.442 -5.762,-2.442 -1.3,0 -2.488,0.469 -3.562,1.414 -0.781,0.715 -1.172,1.676 -1.172,2.883 0,1.074 0.359,1.969 1.074,2.684 0.715,0.715 1.594,1.074 2.637,1.074 1.043,0 2.148,-0.52 3.32,-1.562 0.848,-0.75 1.496,-1.122 1.953,-1.122 0.391,0 0.895,0.258 1.512,0.782 1.531,1.234 3.613,3.906 6.25,8.007 2.637,4.102 4.363,7.063 5.176,8.887 -2.016,7.91 -3.106,12.09 -3.27,12.547 -0.75,2.117 -1.726,3.613 -2.929,4.492 -1.203,0.879 -2.981,1.321 -5.325,1.321 -0.746,0 -1.609,-0.036 -2.586,-0.098 v 1.758 l 13.036,2.293" /><path
         id="path30"
         style="fill:#000000;fill-opacity:1;fill-rule:evenodd;stroke:none"
         d="m 224.484,758.52 c 1.106,-1.887 1.871,-3.657 2.293,-5.297 0.426,-1.645 0.848,-4.875 1.27,-9.696 l 2.148,-24.023 c 1.953,2.344 4.785,6.055 8.496,11.133 1.793,2.476 4.004,5.843 6.641,10.109 1.598,2.602 2.574,4.426 2.93,5.469 0.195,0.519 0.293,1.058 0.293,1.609 0,0.36 -0.114,0.653 -0.34,0.879 -0.231,0.231 -0.824,0.496 -1.781,0.809 -0.961,0.308 -1.758,0.879 -2.395,1.707 -0.633,0.832 -0.953,1.781 -0.953,2.855 0,1.336 0.391,2.41 1.172,3.223 0.781,0.816 1.758,1.223 2.93,1.223 1.433,0 2.652,-0.594 3.664,-1.782 1.007,-1.191 1.511,-2.824 1.511,-4.91 0,-2.57 -0.879,-5.508 -2.636,-8.812 -1.758,-3.305 -5.141,-8.375 -10.157,-15.211 -5.011,-6.836 -11.082,-14.289 -18.211,-22.364 -4.918,-5.566 -8.562,-9.074 -10.937,-10.519 -2.379,-1.449 -4.41,-2.176 -6.106,-2.176 -1.007,0 -1.894,0.383 -2.66,1.149 -0.765,0.765 -1.148,1.652 -1.148,2.66 0,1.269 0.531,2.425 1.59,3.468 1.054,1.043 2.203,1.563 3.441,1.563 0.652,0 1.188,-0.148 1.609,-0.441 0.262,-0.161 0.547,-0.625 0.856,-1.391 0.309,-0.766 0.594,-1.277 0.855,-1.539 0.161,-0.16 0.356,-0.242 0.586,-0.242 0.196,0 0.535,0.16 1.024,0.488 1.793,1.105 3.875,2.863 6.25,5.273 3.125,3.188 5.437,5.793 6.933,7.813 l -2.734,30.957 c -0.453,5.109 -1.137,8.219 -2.051,9.324 -0.91,1.11 -2.441,1.66 -4.59,1.66 -0.683,0 -1.902,-0.097 -3.66,-0.293 l -0.441,1.809 14.308,3.516" /><path
         id="path32"
         style="fill:#000000;fill-opacity:1;fill-rule:evenodd;stroke:none"
         d="m 0,751.332 16.1133,7.859 h 1.6133 v -55.906 c 0,-3.711 0.1523,-6.023 0.4609,-6.933 0.3086,-0.914 0.9531,-1.614 1.9297,-2.102 0.9766,-0.488 2.9609,-0.766 5.957,-0.828 v -1.809 H 1.17188 v 1.809 c 3.125,0.062 5.14453,0.332 6.05468,0.805 0.91016,0.472 1.54688,1.105 1.90625,1.902 0.35547,0.801 0.53516,3.184 0.53516,7.156 v 35.742 c 0,4.817 -0.16406,7.911 -0.48828,9.278 -0.22656,1.039 -0.64453,1.804 -1.2461,2.293 -0.60156,0.488 -1.32421,0.734 -2.17187,0.734 -1.20313,0 -2.87891,-0.508 -5.027345,-1.516 L 0,751.332" /><path
         id="path34"
         style="fill:#000000;fill-opacity:1;fill-rule:evenodd;stroke:none"
         d="m 40.5273,758.996 v 2.051 c 4.9493,-2.442 9.0665,-5.32 12.3555,-8.641 4.6524,-4.754 8.25,-10.328 10.7891,-16.726 2.539,-6.395 3.8086,-13.059 3.8086,-19.992 0,-10.094 -2.4805,-19.297 -7.4453,-27.614 -4.9649,-8.316 -11.4688,-14.265 -19.5079,-17.847 v 1.808 c 4.004,2.246 7.3008,5.281 9.8868,9.106 2.5898,3.824 4.5078,8.691 5.7617,14.597 1.2539,5.91 1.8828,12.071 1.8828,18.485 0,6.933 -0.5391,13.261 -1.6133,18.992 -0.8125,4.492 -1.832,8.09 -3.0508,10.793 -1.2226,2.699 -2.8398,5.305 -4.8593,7.812 -2.0196,2.504 -4.6875,4.899 -8.0079,7.176 v 0" /><path
         id="path36"
         style="fill:none;stroke:#000000;stroke-width:5.19999981;stroke-linecap:round;stroke-linejoin:miter;stroke-miterlimit:10;stroke-dasharray:none;stroke-opacity:1"
         d="m 837.156,317.824 c 399.834,1.137 399.834,1.137 399.834,1.137" /><path
         id="path38"
         style="fill:#000000;fill-opacity:1;fill-rule:evenodd;stroke:none"
         d="m 1216.19,318.902 -10.37,-10.429 36.37,10.504 -36.43,10.296 10.43,-10.371" /><path
         id="path40"
         style="fill:none;stroke:#000000;stroke-width:2.5999999;stroke-linecap:butt;stroke-linejoin:miter;stroke-miterlimit:10;stroke-dasharray:none;stroke-opacity:1"
         d="m 1216.19,318.902 -10.37,-10.429 36.37,10.504 -36.43,10.296 z" /><path
         id="path42"
         style="fill:#000000;fill-opacity:1;fill-rule:evenodd;stroke:none"
         d="m 923.871,268.785 c 0,7.551 1.141,14.055 3.418,19.508 2.277,5.449 5.305,9.512 9.082,12.18 2.93,2.117 5.957,3.175 9.082,3.175 5.078,0 9.637,-2.589 13.672,-7.765 5.047,-6.41 7.57,-15.102 7.57,-26.074 0,-7.68 -1.109,-14.207 -3.32,-19.579 -2.215,-5.371 -5.039,-9.269 -8.473,-11.695 -3.433,-2.426 -6.746,-3.637 -9.937,-3.637 -6.317,0 -11.57,3.727 -15.77,11.18 -3.55,6.285 -5.324,13.852 -5.324,22.707 z m 9.57,-1.222 c 0,-9.114 1.125,-16.551 3.372,-22.313 1.855,-4.852 4.621,-7.277 8.3,-7.277 1.758,0 3.578,0.789 5.469,2.371 1.887,1.578 3.32,4.222 4.297,7.933 1.496,5.598 2.246,13.493 2.246,23.68 0,7.555 -0.781,13.852 -2.344,18.898 -1.172,3.743 -2.687,6.395 -4.543,7.958 -1.336,1.074 -2.945,1.613 -4.832,1.613 -2.215,0 -4.183,-0.992 -5.91,-2.981 -2.344,-2.699 -3.937,-6.949 -4.785,-12.742 -0.848,-5.793 -1.27,-11.508 -1.27,-17.14 v 0" /><path
         id="path44"
         style="fill:none;stroke:#000000;stroke-width:5.19999981;stroke-linecap:round;stroke-linejoin:miter;stroke-miterlimit:10;stroke-dasharray:none;stroke-opacity:1"
         d="M 973.672,29.5273 C 972.805,760.602 972.805,760.602 972.805,760.602" /><path
         id="path46"
         style="fill:#000000;fill-opacity:1;fill-rule:evenodd;stroke:none"
         d="m 972.832,739.801 10.41,-10.387 -10.441,36.387 -10.36,-36.414 10.391,10.414" /><path
         id="path48"
         style="fill:none;stroke:#000000;stroke-width:2.5999999;stroke-linecap:butt;stroke-linejoin:miter;stroke-miterlimit:10;stroke-dasharray:none;stroke-opacity:1"
         d="m 972.832,739.801 10.41,-10.387 -10.441,36.387 -10.36,-36.414 z" /><path
         id="path50"
         style="fill:#000000;fill-opacity:1;fill-rule:evenodd;stroke:none"
         d="m 1202.41,388.117 c 1.6,-1.691 2.8,-3.383 3.62,-5.078 0.58,-1.172 1.54,-4.246 2.88,-9.226 l 4.3,6.445 c 1.13,1.562 2.52,3.051 4.15,4.469 1.62,1.414 3.05,2.382 4.29,2.902 0.78,0.328 1.65,0.488 2.59,0.488 1.4,0 2.51,-0.371 3.35,-1.121 0.82,-0.75 1.24,-1.66 1.24,-2.734 0,-1.239 -0.24,-2.082 -0.73,-2.539 -0.91,-0.813 -1.96,-1.223 -3.13,-1.223 -0.68,0 -1.41,0.148 -2.19,0.441 -1.53,0.52 -2.56,0.782 -3.08,0.782 -0.78,0 -1.71,-0.457 -2.78,-1.368 -2.02,-1.691 -4.43,-4.964 -7.23,-9.816 l 4,-16.797 c 0.62,-2.57 1.14,-4.109 1.57,-4.613 0.42,-0.504 0.84,-0.758 1.27,-0.758 0.68,0 1.48,0.375 2.39,1.125 1.79,1.496 3.32,3.449 4.59,5.859 l 1.71,-0.878 c -2.05,-3.84 -4.66,-7.032 -7.81,-9.571 -1.8,-1.433 -3.31,-2.148 -4.55,-2.148 -1.82,0 -3.27,1.023 -4.34,3.074 -0.68,1.27 -2.1,6.738 -4.25,16.406 -5.08,-8.82 -9.15,-14.5 -12.21,-17.039 -1.98,-1.629 -3.9,-2.441 -5.76,-2.441 -1.3,0 -2.49,0.472 -3.56,1.414 -0.79,0.719 -1.17,1.68 -1.17,2.883 0,1.074 0.35,1.968 1.07,2.683 0.72,0.719 1.59,1.075 2.64,1.075 1.04,0 2.14,-0.52 3.31,-1.563 0.85,-0.746 1.5,-1.121 1.96,-1.121 0.39,0 0.9,0.262 1.51,0.781 1.53,1.238 3.62,3.906 6.25,8.008 2.64,4.102 4.37,7.062 5.18,8.887 -2.02,7.91 -3.11,12.093 -3.27,12.547 -0.75,2.117 -1.73,3.613 -2.93,4.492 -1.21,0.879 -2.98,1.32 -5.33,1.32 -0.75,0 -1.6,-0.031 -2.58,-0.098 v 1.758 l 13.03,2.293" /><path
         id="path52"
         style="fill:#000000;fill-opacity:1;fill-rule:evenodd;stroke:none"
         d="m 917.488,762.082 c 1.11,-1.887 1.875,-3.652 2.297,-5.297 0.422,-1.644 0.848,-4.875 1.27,-9.691 l 2.148,-24.024 c 1.953,2.344 4.785,6.055 8.496,11.133 1.789,2.473 4.004,5.84 6.641,10.106 1.594,2.605 2.57,4.425 2.93,5.468 0.195,0.52 0.293,1.059 0.293,1.614 0,0.355 -0.114,0.648 -0.344,0.879 -0.227,0.226 -0.821,0.496 -1.781,0.804 -0.961,0.309 -1.758,0.879 -2.391,1.707 -0.637,0.832 -0.953,1.785 -0.953,2.86 0,1.332 0.39,2.406 1.172,3.222 0.781,0.813 1.757,1.219 2.929,1.219 1.434,0 2.653,-0.594 3.66,-1.781 1.012,-1.188 1.516,-2.824 1.516,-4.906 0,-2.575 -0.879,-5.512 -2.637,-8.817 -1.757,-3.301 -5.144,-8.371 -10.156,-15.207 -5.012,-6.836 -11.086,-14.293 -18.215,-22.363 -4.914,-5.567 -8.558,-9.074 -10.937,-10.524 -2.375,-1.449 -4.41,-2.171 -6.102,-2.171 -1.008,0 -1.898,0.382 -2.66,1.144 -0.766,0.766 -1.148,1.652 -1.148,2.664 0,1.27 0.527,2.422 1.586,3.465 1.058,1.043 2.207,1.562 3.441,1.562 0.652,0 1.191,-0.144 1.613,-0.437 0.262,-0.164 0.543,-0.629 0.856,-1.395 0.308,-0.761 0.593,-1.277 0.851,-1.535 0.164,-0.164 0.36,-0.246 0.586,-0.246 0.196,0 0.539,0.164 1.028,0.488 1.789,1.106 3.875,2.864 6.25,5.274 3.125,3.191 5.437,5.793 6.933,7.812 l -2.734,30.957 c -0.457,5.11 -1.141,8.219 -2.051,9.329 -0.91,1.105 -2.441,1.66 -4.59,1.66 -0.683,0 -1.906,-0.098 -3.664,-0.293 l -0.437,1.804 14.304,3.516" /><path
         id="path54"
         style="fill:none;stroke:#000000;stroke-width:5.19999981;stroke-linecap:round;stroke-linejoin:miter;stroke-miterlimit:10;stroke-dasharray:none;stroke-opacity:1"
         d="m 1529.96,317.824 c 435.49,1.137 435.49,1.137 435.49,1.137" /><path
         id="path56"
         style="fill:#000000;fill-opacity:1;fill-rule:evenodd;stroke:none"
         d="m 1944.66,318.906 -10.38,-10.426 36.38,10.497 -36.43,10.304 10.43,-10.375" /><path
         id="path58"
         style="fill:none;stroke:#000000;stroke-width:2.5999999;stroke-linecap:butt;stroke-linejoin:miter;stroke-miterlimit:10;stroke-dasharray:none;stroke-opacity:1"
         d="m 1944.66,318.906 -10.38,-10.426 36.38,10.497 -36.43,10.304 z" /><path
         id="path60"
         style="fill:#000000;fill-opacity:1;fill-rule:evenodd;stroke:none"
         d="m 1656.61,262.168 c 0,7.551 1.14,14.055 3.41,19.508 2.28,5.453 5.31,9.512 9.09,12.179 2.93,2.118 5.95,3.176 9.08,3.176 5.08,0 9.63,-2.59 13.67,-7.761 5.05,-6.415 7.57,-15.106 7.57,-26.079 0,-7.679 -1.11,-14.207 -3.32,-19.578 -2.22,-5.371 -5.04,-9.269 -8.47,-11.695 -3.44,-2.426 -6.75,-3.637 -9.94,-3.637 -6.32,0 -11.57,3.727 -15.77,11.18 -3.55,6.285 -5.32,13.852 -5.32,22.707 z m 9.57,-1.219 c 0,-9.117 1.12,-16.554 3.36,-22.316 1.86,-4.852 4.63,-7.278 8.3,-7.278 1.76,0 3.59,0.793 5.47,2.372 1.89,1.578 3.32,4.222 4.3,7.933 1.5,5.598 2.25,13.492 2.25,23.684 0,7.551 -0.78,13.847 -2.35,18.894 -1.17,3.742 -2.68,6.395 -4.54,7.957 -1.33,1.075 -2.94,1.614 -4.83,1.614 -2.21,0 -4.18,-0.993 -5.91,-2.977 -2.34,-2.703 -3.94,-6.953 -4.78,-12.746 -0.85,-5.793 -1.27,-11.508 -1.27,-17.137 v 0" /><path
         id="path62"
         style="fill:none;stroke:#000000;stroke-width:5.19999981;stroke-linecap:round;stroke-linejoin:miter;stroke-miterlimit:10;stroke-dasharray:none;stroke-opacity:1"
         d="M 1724.52,17.7266 C 1723.65,754.43 1723.65,754.43 1723.65,754.43" /><path
         id="path64"
         style="fill:#000000;fill-opacity:1;fill-rule:evenodd;stroke:none"
         d="m 1723.68,733.633 10.41,-10.391 -10.45,36.391 -10.35,-36.414 10.39,10.414" /><path
         id="path66"
         style="fill:none;stroke:#000000;stroke-width:2.5999999;stroke-linecap:butt;stroke-linejoin:miter;stroke-miterlimit:10;stroke-dasharray:none;stroke-opacity:1"
         d="m 1723.68,733.633 10.41,-10.391 -10.45,36.391 -10.35,-36.414 z" /><path
         id="path68"
         style="fill:#000000;fill-opacity:1;fill-rule:evenodd;stroke:none"
         d="m 1947.31,281.582 c 1.59,-1.695 2.8,-3.387 3.61,-5.078 0.59,-1.172 1.55,-4.25 2.88,-9.231 l 4.3,6.446 c 1.14,1.562 2.52,3.051 4.15,4.469 1.63,1.414 3.06,2.382 4.3,2.906 0.78,0.324 1.64,0.488 2.58,0.488 1.41,0 2.52,-0.375 3.35,-1.125 0.83,-0.746 1.24,-1.66 1.24,-2.734 0,-1.235 -0.24,-2.082 -0.73,-2.539 -0.91,-0.813 -1.95,-1.219 -3.12,-1.219 -0.69,0 -1.42,0.144 -2.2,0.437 -1.53,0.524 -2.56,0.782 -3.08,0.782 -0.78,0 -1.71,-0.454 -2.78,-1.368 -2.02,-1.691 -4.43,-4.964 -7.23,-9.812 l 4.01,-16.797 c 0.62,-2.574 1.14,-4.109 1.56,-4.617 0.42,-0.504 0.85,-0.754 1.27,-0.754 0.68,0 1.48,0.375 2.39,1.121 1.79,1.496 3.32,3.453 4.59,5.859 l 1.71,-0.878 c -2.05,-3.84 -4.65,-7.032 -7.81,-9.571 -1.79,-1.429 -3.3,-2.148 -4.54,-2.148 -1.83,0 -3.28,1.027 -4.35,3.078 -0.68,1.269 -2.1,6.738 -4.25,16.406 -5.07,-8.824 -9.14,-14.504 -12.2,-17.043 -1.99,-1.625 -3.91,-2.441 -5.76,-2.441 -1.31,0 -2.5,0.472 -3.57,1.418 -0.78,0.715 -1.17,1.676 -1.17,2.879 0,1.074 0.36,1.968 1.07,2.687 0.72,0.715 1.6,1.074 2.64,1.074 1.04,0 2.15,-0.523 3.32,-1.562 0.85,-0.75 1.5,-1.125 1.95,-1.125 0.39,0 0.9,0.262 1.52,0.781 1.53,1.238 3.61,3.906 6.25,8.008 2.63,4.101 4.36,7.066 5.17,8.887 -2.02,7.91 -3.11,12.093 -3.27,12.55 -0.75,2.114 -1.72,3.614 -2.93,4.493 -1.2,0.879 -2.98,1.316 -5.32,1.316 -0.75,0 -1.61,-0.031 -2.59,-0.098 v 1.758 l 13.04,2.297" /><path
         id="path70"
         style="fill:#000000;fill-opacity:1;fill-rule:evenodd;stroke:none"
         d="m 1678.4,757.953 c 1.11,-1.89 1.87,-3.656 2.3,-5.297 0.42,-1.644 0.84,-4.875 1.26,-9.695 l 2.15,-24.023 c 1.96,2.343 4.79,6.054 8.5,11.132 1.79,2.477 4,5.844 6.64,10.11 1.59,2.601 2.57,4.425 2.93,5.468 0.2,0.52 0.29,1.059 0.29,1.61 0,0.359 -0.11,0.652 -0.34,0.879 -0.23,0.23 -0.82,0.496 -1.78,0.808 -0.96,0.309 -1.76,0.879 -2.39,1.707 -0.64,0.832 -0.96,1.782 -0.96,2.856 0,1.336 0.39,2.41 1.18,3.222 0.78,0.817 1.75,1.223 2.93,1.223 1.43,0 2.65,-0.594 3.66,-1.781 1.01,-1.192 1.51,-2.824 1.51,-4.91 0,-2.571 -0.88,-5.508 -2.64,-8.813 -1.75,-3.304 -5.14,-8.375 -10.15,-15.211 -5.01,-6.836 -11.09,-14.289 -18.22,-22.363 -4.91,-5.566 -8.56,-9.074 -10.93,-10.52 -2.38,-1.449 -4.41,-2.175 -6.11,-2.175 -1,0 -1.89,0.383 -2.66,1.148 -0.76,0.766 -1.14,1.652 -1.14,2.66 0,1.27 0.52,2.426 1.58,3.469 1.06,1.039 2.21,1.563 3.44,1.563 0.66,0 1.19,-0.149 1.62,-0.442 0.26,-0.16 0.54,-0.625 0.85,-1.39 0.31,-0.766 0.6,-1.278 0.85,-1.54 0.17,-0.16 0.36,-0.242 0.59,-0.242 0.19,0 0.54,0.16 1.03,0.489 1.79,1.105 3.87,2.863 6.25,5.273 3.12,3.187 5.43,5.793 6.93,7.812 l -2.73,30.958 c -0.46,5.109 -1.14,8.218 -2.05,9.324 -0.91,1.109 -2.45,1.66 -4.59,1.66 -0.69,0 -1.91,-0.098 -3.67,-0.293 l -0.44,1.809 14.31,3.515" /><path
         id="path72"
         style="fill:#000000;fill-opacity:1;fill-rule:evenodd;stroke:none"
         d="m 788.68,704.359 -4.637,-12.746 H 744.98 v 1.809 c 11.489,10.48 19.579,19.043 24.266,25.683 4.688,6.641 7.031,12.711 7.031,18.211 0,4.2 -1.285,7.653 -3.855,10.352 -2.574,2.703 -5.649,4.055 -9.231,4.055 -3.253,0 -6.175,-0.953 -8.765,-2.86 -2.586,-1.902 -4.5,-4.695 -5.735,-8.371 h -1.808 c 0.812,6.02 2.906,10.645 6.273,13.867 3.371,3.223 7.578,4.832 12.625,4.832 5.371,0 9.856,-1.726 13.449,-5.175 3.598,-3.45 5.399,-7.52 5.399,-12.207 0,-3.352 -0.781,-6.707 -2.344,-10.059 -2.41,-5.273 -6.316,-10.855 -11.719,-16.746 -8.105,-8.856 -13.168,-14.195 -15.187,-16.016 h 17.285 c 3.516,0 5.981,0.129 7.399,0.391 1.414,0.258 2.691,0.789 3.832,1.586 1.14,0.797 2.132,1.93 2.98,3.394 h 1.805" /><path
         id="path74"
         style="fill:#000000;fill-opacity:1;fill-rule:evenodd;stroke:none"
         d="m 795.078,758.996 v 2.051 c 4.945,-2.442 9.063,-5.32 12.352,-8.641 4.656,-4.754 8.254,-10.328 10.793,-16.726 2.539,-6.395 3.808,-13.059 3.808,-19.992 0,-10.094 -2.484,-19.297 -7.449,-27.614 -4.965,-8.316 -11.465,-14.265 -19.504,-17.847 v 1.808 c 4.004,2.246 7.297,5.281 9.887,9.106 2.586,3.824 4.508,8.691 5.762,14.597 1.253,5.91 1.878,12.071 1.878,18.485 0,6.933 -0.535,13.261 -1.609,18.992 -0.816,4.492 -1.832,8.09 -3.055,10.793 -1.218,2.699 -2.839,5.305 -4.855,7.812 -2.02,2.504 -4.688,4.899 -8.008,7.176 v 0" /><path
         id="path76"
         style="fill:#000000;fill-opacity:1;fill-rule:evenodd;stroke:none"
         d="m 1446.73,745.227 c 1.89,4.461 4.27,7.902 7.15,10.328 2.89,2.425 6.47,3.636 10.77,3.636 5.31,0 9.37,-1.726 12.21,-5.175 2.14,-2.571 3.22,-5.321 3.22,-8.25 0,-4.821 -3.03,-9.801 -9.08,-14.942 4.07,-1.597 7.14,-3.875 9.23,-6.836 2.08,-2.965 3.12,-6.445 3.12,-10.449 0,-5.73 -1.82,-10.695 -5.47,-14.894 -4.75,-5.469 -11.63,-8.204 -20.65,-8.204 -4.46,0 -7.5,0.555 -9.11,1.661 -1.61,1.105 -2.42,2.296 -2.42,3.566 0,0.941 0.39,1.773 1.15,2.488 0.77,0.719 1.69,1.074 2.76,1.074 0.82,0 1.64,-0.128 2.49,-0.39 0.56,-0.164 1.81,-0.758 3.76,-1.781 1.95,-1.028 3.3,-1.637 4.05,-1.832 1.21,-0.356 2.49,-0.536 3.86,-0.536 3.32,0 6.21,1.286 8.67,3.856 2.45,2.57 3.69,5.617 3.69,9.133 0,2.57 -0.58,5.078 -1.72,7.519 -0.84,1.821 -1.77,3.207 -2.78,4.149 -1.4,1.3 -3.32,2.484 -5.76,3.539 -2.44,1.058 -4.93,1.59 -7.47,1.59 h -1.56 v 1.464 c 2.57,0.325 5.15,1.254 7.74,2.782 2.58,1.531 4.46,3.371 5.63,5.519 1.18,2.149 1.76,4.508 1.76,7.078 0,3.352 -1.04,6.063 -3.15,8.129 -2.09,2.071 -4.71,3.102 -7.83,3.102 -5.05,0 -9.26,-2.703 -12.65,-8.106 l -1.61,0.782" /><path
         id="path78"
         style="fill:#000000;fill-opacity:1;fill-rule:evenodd;stroke:none"
         d="m 1493.9,758.996 v 2.051 c 4.95,-2.442 9.06,-5.32 12.35,-8.641 4.66,-4.754 8.25,-10.328 10.79,-16.726 2.54,-6.395 3.81,-13.059 3.81,-19.992 0,-10.094 -2.48,-19.297 -7.44,-27.614 -4.97,-8.316 -11.47,-14.265 -19.51,-17.847 v 1.808 c 4,2.246 7.3,5.281 9.89,9.106 2.59,3.824 4.5,8.691 5.76,14.597 1.25,5.91 1.88,12.071 1.88,18.485 0,6.933 -0.54,13.261 -1.61,18.992 -0.82,4.492 -1.84,8.09 -3.05,10.793 -1.23,2.699 -2.84,5.305 -4.86,7.812 -2.02,2.504 -4.69,4.899 -8.01,7.176 v 0" /><path
         id="path80"
         style="fill:none;stroke:#000000;stroke-width:8;stroke-linecap:round;stroke-linejoin:round;stroke-miterlimit:10;stroke-dasharray:none;stroke-opacity:1"
         d="M 363.781,719.508 C 122.156,120.867 122.156,120.867 122.156,120.867" /><path
         id="path82"
         style="fill:none;stroke:#000000;stroke-width:8;stroke-linecap:round;stroke-linejoin:round;stroke-miterlimit:10;stroke-dasharray:none;stroke-opacity:1"
         d="M 1126.18,625.508 C 941.352,42.625 941.352,42.625 941.352,42.625" /><path
         id="path84"
         style="fill:none;stroke:#000000;stroke-width:8;stroke-linecap:round;stroke-linejoin:round;stroke-miterlimit:10;stroke-dasharray:none;stroke-opacity:1"
         d="M 1604.98,681.566 C 1772.12,23.5313 1772.12,23.5313 1772.12,23.5313" /><path
         id="path86"
         style="fill:none;stroke:#000000;stroke-width:5.19999981;stroke-linecap:round;stroke-linejoin:miter;stroke-miterlimit:10;stroke-dasharray:none;stroke-opacity:1"
         d="m 2253.77,319.508 c 753.38,1.137 753.38,1.137 753.38,1.137" /><path
         id="path88"
         style="fill:#000000;fill-opacity:1;fill-rule:evenodd;stroke:none"
         d="m 2986.35,320.613 -10.38,-10.414 36.38,10.453 -36.42,10.344 10.42,-10.383" /><path
         id="path90"
         style="fill:none;stroke:#000000;stroke-width:2.5999999;stroke-linecap:butt;stroke-linejoin:miter;stroke-miterlimit:10;stroke-dasharray:none;stroke-opacity:1"
         d="m 2986.35,320.613 -10.38,-10.414 36.38,10.453 -36.42,10.344 z" /><path
         id="path92"
         style="fill:#000000;fill-opacity:1;fill-rule:evenodd;stroke:none"
         d="m 2555.79,263.852 c 0,7.55 1.14,14.054 3.42,19.507 2.28,5.45 5.31,9.512 9.08,12.18 2.93,2.117 5.96,3.176 9.09,3.176 5.07,0 9.63,-2.59 13.67,-7.766 5.04,-6.41 7.56,-15.101 7.56,-26.074 0,-7.68 -1.1,-14.207 -3.32,-19.578 -2.21,-5.371 -5.03,-9.27 -8.47,-11.695 -3.43,-2.426 -6.75,-3.637 -9.93,-3.637 -6.32,0 -11.58,3.726 -15.78,11.18 -3.54,6.285 -5.32,13.851 -5.32,22.707 z m 9.57,-1.223 c 0,-9.113 1.12,-16.551 3.37,-22.313 1.86,-4.851 4.63,-7.277 8.3,-7.277 1.76,0 3.58,0.789 5.47,2.371 1.89,1.578 3.32,4.223 4.3,7.934 1.5,5.597 2.24,13.492 2.24,23.679 0,7.555 -0.78,13.852 -2.34,18.899 -1.17,3.742 -2.68,6.394 -4.54,7.957 -1.34,1.074 -2.95,1.613 -4.84,1.613 -2.21,0 -4.18,-0.992 -5.9,-2.98 -2.35,-2.699 -3.94,-6.949 -4.79,-12.742 -0.84,-5.793 -1.27,-11.508 -1.27,-17.141 v 0" /><path
         id="path94"
         style="fill:none;stroke:#000000;stroke-width:5.19999981;stroke-linecap:round;stroke-linejoin:miter;stroke-miterlimit:10;stroke-dasharray:none;stroke-opacity:1"
         d="M 2623.7,3.70313 C 2622.84,756.031 2622.84,756.031 2622.84,756.031" /><path
         id="path96"
         style="fill:#000000;fill-opacity:1;fill-rule:evenodd;stroke:none"
         d="m 2622.86,735.23 10.41,-10.386 -10.44,36.386 -10.36,-36.41 10.39,10.41" /><path
         id="path98"
         style="fill:none;stroke:#000000;stroke-width:2.5999999;stroke-linecap:butt;stroke-linejoin:miter;stroke-miterlimit:10;stroke-dasharray:none;stroke-opacity:1"
         d="m 2622.86,735.23 10.41,-10.386 -10.44,36.386 -10.36,-36.41 z" /><path
         id="path100"
         style="fill:#000000;fill-opacity:1;fill-rule:evenodd;stroke:none"
         d="m 2990.49,283.266 c 1.6,-1.696 2.8,-3.387 3.62,-5.078 0.58,-1.172 1.54,-4.25 2.87,-9.231 l 4.3,6.445 c 1.14,1.563 2.52,3.051 4.15,4.469 1.63,1.414 3.06,2.383 4.3,2.906 0.78,0.325 1.65,0.489 2.59,0.489 1.4,0 2.51,-0.375 3.34,-1.125 0.83,-0.75 1.25,-1.661 1.25,-2.735 0,-1.238 -0.25,-2.082 -0.73,-2.539 -0.92,-0.812 -1.96,-1.219 -3.13,-1.219 -0.68,0 -1.42,0.145 -2.2,0.438 -1.53,0.519 -2.55,0.781 -3.07,0.781 -0.78,0 -1.71,-0.457 -2.79,-1.367 -2.01,-1.691 -4.42,-4.965 -7.22,-9.812 l 4,-16.797 c 0.62,-2.575 1.14,-4.114 1.56,-4.618 0.43,-0.503 0.85,-0.753 1.27,-0.753 0.69,0 1.49,0.371 2.4,1.121 1.79,1.496 3.32,3.449 4.59,5.859 l 1.7,-0.879 c -2.05,-3.84 -4.65,-7.031 -7.81,-9.57 -1.79,-1.434 -3.3,-2.149 -4.54,-2.149 -1.82,0 -3.27,1.028 -4.35,3.078 -0.68,1.27 -2.09,6.739 -4.24,16.407 -5.08,-8.824 -9.15,-14.504 -12.21,-17.043 -1.98,-1.629 -3.91,-2.442 -5.76,-2.442 -1.31,0 -2.49,0.473 -3.57,1.418 -0.78,0.715 -1.17,1.676 -1.17,2.879 0,1.074 0.36,1.969 1.07,2.688 0.72,0.715 1.6,1.074 2.64,1.074 1.04,0 2.15,-0.523 3.32,-1.563 0.85,-0.75 1.5,-1.125 1.96,-1.125 0.39,0 0.89,0.262 1.51,0.782 1.53,1.238 3.61,3.906 6.25,8.008 2.64,4.101 4.36,7.062 5.18,8.886 -2.02,7.91 -3.11,12.094 -3.28,12.551 -0.74,2.113 -1.72,3.613 -2.93,4.492 -1.2,0.879 -2.97,1.317 -5.32,1.317 -0.75,0 -1.61,-0.032 -2.59,-0.098 v 1.758 l 13.04,2.297" /><path
         id="path102"
         style="fill:#000000;fill-opacity:1;fill-rule:evenodd;stroke:none"
         d="m 2577.59,759.637 c 1.11,-1.891 1.87,-3.657 2.29,-5.301 0.42,-1.641 0.85,-4.871 1.27,-9.691 l 2.15,-24.024 c 1.95,2.344 4.79,6.055 8.5,11.133 1.79,2.476 4,5.844 6.64,10.109 1.59,2.602 2.57,4.426 2.93,5.469 0.19,0.52 0.29,1.059 0.29,1.609 0,0.36 -0.11,0.653 -0.34,0.879 -0.23,0.231 -0.82,0.496 -1.78,0.805 -0.97,0.313 -1.76,0.879 -2.4,1.711 -0.63,0.828 -0.95,1.781 -0.95,2.855 0,1.336 0.39,2.411 1.17,3.223 0.78,0.813 1.76,1.223 2.93,1.223 1.43,0 2.66,-0.594 3.66,-1.785 1.01,-1.188 1.52,-2.825 1.52,-4.907 0,-2.57 -0.88,-5.507 -2.64,-8.812 -1.76,-3.305 -5.14,-8.375 -10.15,-15.211 -5.02,-6.836 -11.09,-14.289 -18.22,-22.363 -4.91,-5.567 -8.56,-9.075 -10.94,-10.524 -2.37,-1.445 -4.41,-2.172 -6.1,-2.172 -1.01,0 -1.9,0.383 -2.66,1.149 -0.76,0.765 -1.15,1.652 -1.15,2.66 0,1.269 0.53,2.426 1.59,3.469 1.06,1.039 2.21,1.562 3.44,1.562 0.65,0 1.19,-0.148 1.61,-0.441 0.26,-0.164 0.55,-0.625 0.86,-1.391 0.31,-0.766 0.59,-1.277 0.85,-1.539 0.17,-0.16 0.36,-0.242 0.59,-0.242 0.19,0 0.54,0.16 1.02,0.488 1.79,1.106 3.88,2.863 6.25,5.274 3.13,3.187 5.44,5.793 6.94,7.812 l -2.74,30.957 c -0.45,5.109 -1.14,8.219 -2.05,9.324 -0.91,1.11 -2.44,1.66 -4.59,1.66 -0.68,0 -1.9,-0.097 -3.66,-0.292 l -0.44,1.808 14.31,3.516" /><path
         id="path104"
         style="fill:#000000;fill-opacity:1;fill-rule:evenodd;stroke:none"
         d="m 2261.49,716.027 v -6.933 h -8.89 v -17.481 h -8.05 v 17.481 h -28.03 v 6.25 l 30.71,43.847 h 5.37 v -43.164 z m -16.94,0 v 32.864 l -23.25,-32.864 z" /><path
         id="path106"
         style="fill:#000000;fill-opacity:1;fill-rule:evenodd;stroke:none"
         d="m 2267.2,758.996 v 2.051 c 4.95,-2.442 9.07,-5.32 12.35,-8.641 4.66,-4.754 8.26,-10.328 10.8,-16.726 2.54,-6.395 3.81,-13.059 3.81,-19.992 0,-10.094 -2.49,-19.297 -7.45,-27.614 -4.96,-8.316 -11.47,-14.265 -19.51,-17.847 v 1.808 c 4.01,2.246 7.3,5.281 9.89,9.106 2.59,3.824 4.51,8.691 5.76,14.597 1.26,5.91 1.88,12.071 1.88,18.485 0,6.933 -0.53,13.261 -1.61,18.992 -0.81,4.492 -1.83,8.09 -3.05,10.793 -1.22,2.699 -2.84,5.305 -4.86,7.812 -2.02,2.504 -4.69,4.899 -8.01,7.176 v 0" /><path
         id="path108"
         style="fill:none;stroke:#000000;stroke-width:8;stroke-linecap:round;stroke-linejoin:round;stroke-miterlimit:10;stroke-dasharray:none;stroke-opacity:1"
         d="M 2321.56,689.051 C 2937.67,252.379 2937.67,252.379 2937.67,252.379" /></g></g></svg>