<?xml version="1.0" encoding="UTF-8" standalone="no"?>
<svg
   xmlns:dc="http://purl.org/dc/elements/1.1/"
   xmlns:cc="http://creativecommons.org/ns#"
   xmlns:rdf="http://www.w3.org/1999/02/22-rdf-syntax-ns#"
   xmlns:svg="http://www.w3.org/2000/svg"
   xmlns="http://www.w3.org/2000/svg"
   viewBox="0 0 383.10666 128.36"
   height="128.36"
   width="383.10666"
   xml:space="preserve"
   id="svg2"
   version="1.1"><metadata
     id="metadata8"><rdf:RDF><cc:Work
         rdf:about=""><dc:format>image/svg+xml</dc:format><dc:type
           rdf:resource="http://purl.org/dc/dcmitype/StillImage" /></cc:Work></rdf:RDF></metadata><defs
     id="defs6" /><g
     transform="matrix(1.3333333,0,0,-1.3333333,0,128.36)"
     id="g10"><g
       transform="scale(0.1)"
       id="g12"><path
         id="path14"
         style="fill:none;stroke:#000000;stroke-width:3.50079989;stroke-linecap:butt;stroke-linejoin:miter;stroke-miterlimit:10;stroke-dasharray:none;stroke-opacity:1"
         d="M 13.3945,8.09766 H 864.773 V 958.156 H 13.3945 Z" /><path
         id="path16"
         style="fill:none;stroke:#000000;stroke-width:7.5005002;stroke-linecap:butt;stroke-linejoin:miter;stroke-miterlimit:10;stroke-dasharray:none;stroke-opacity:1"
         d="M 12.2109,483.488 H 829.688" /><path
         id="path18"
         style="fill:#000000;fill-opacity:1;fill-rule:evenodd;stroke:none"
         d="m 864.773,483.488 -70.558,30.242 c 10.078,-20.16 10.078,-40.32 0,-60.48 l 70.558,30.238" /><path
         id="path20"
         style="fill:none;stroke:#000000;stroke-width:7.5005002;stroke-linecap:butt;stroke-linejoin:miter;stroke-miterlimit:10;stroke-dasharray:none;stroke-opacity:1"
         d="M 392.09,8.09766 V 921.215" /><path
         id="path22"
         style="fill:#000000;fill-opacity:1;fill-rule:evenodd;stroke:none"
         d="m 392.09,956.676 -30.238,-70.563 c 20.16,10.082 40.32,10.082 60.48,0 l -30.242,70.563" /><path
         id="path24"
         style="fill:#000000;fill-opacity:1;fill-rule:nonzero;stroke:none"
         d="m 338.16,941.488 c 1.063,-1.812 1.797,-3.508 2.203,-5.086 0.407,-1.578 0.813,-4.679 1.219,-9.304 l 2.063,-23.063 c 1.875,2.25 4.593,5.813 8.156,10.688 1.719,2.375 3.844,5.609 6.375,9.703 1.531,2.5 2.469,4.25 2.812,5.25 0.188,0.5 0.282,1.015 0.282,1.547 0,0.343 -0.11,0.625 -0.329,0.843 -0.218,0.219 -0.789,0.477 -1.711,0.774 -0.921,0.297 -1.687,0.844 -2.296,1.64 -0.61,0.797 -0.914,1.711 -0.914,2.743 0,1.281 0.375,2.312 1.125,3.093 0.75,0.782 1.687,1.172 2.812,1.172 1.375,0 2.547,-0.57 3.516,-1.711 0.968,-1.14 1.453,-2.711 1.453,-4.711 0,-2.468 -0.844,-5.289 -2.531,-8.461 -1.688,-3.171 -4.938,-8.039 -9.75,-14.601 -4.813,-6.563 -10.641,-13.719 -17.485,-21.469 -4.719,-5.344 -8.219,-8.711 -10.5,-10.101 -2.281,-1.391 -4.234,-2.086 -5.859,-2.086 -0.969,0 -1.821,0.367 -2.555,1.101 -0.734,0.735 -1.101,1.586 -1.101,2.555 0,1.219 0.507,2.328 1.523,3.328 1.016,1 2.117,1.5 3.305,1.5 0.625,0 1.14,-0.141 1.547,-0.422 0.25,-0.156 0.523,-0.601 0.82,-1.336 0.297,-0.734 0.57,-1.226 0.82,-1.476 0.156,-0.157 0.344,-0.235 0.563,-0.235 0.187,0 0.515,0.157 0.984,0.469 1.719,1.063 3.719,2.75 6,5.063 3,3.062 5.219,5.562 6.656,7.5 l -2.625,29.718 c -0.437,4.907 -1.093,7.891 -1.968,8.953 -0.875,1.063 -2.344,1.594 -4.407,1.594 -0.656,0 -1.828,-0.094 -3.515,-0.281 l -0.422,1.734 13.734,3.375" /><path
         id="path26"
         style="fill:none;stroke:#000000;stroke-width:3.50079989;stroke-linecap:butt;stroke-linejoin:miter;stroke-miterlimit:10;stroke-dasharray:none;stroke-opacity:1"
         d="M 15.5117,861.813 H 864.773" /><path
         id="path28"
         style="fill:none;stroke:#000000;stroke-width:3.50079989;stroke-linecap:butt;stroke-linejoin:miter;stroke-miterlimit:10;stroke-dasharray:none;stroke-opacity:1"
         d="M 14.3711,766.93 H 863.637" /><path
         id="path30"
         style="fill:none;stroke:#000000;stroke-width:3.50079989;stroke-linecap:butt;stroke-linejoin:miter;stroke-miterlimit:10;stroke-dasharray:none;stroke-opacity:1"
         d="M 14.3711,672.105 H 863.637" /><path
         id="path32"
         style="fill:none;stroke:#000000;stroke-width:3.50079989;stroke-linecap:butt;stroke-linejoin:miter;stroke-miterlimit:10;stroke-dasharray:none;stroke-opacity:1"
         d="M 14.3711,577.293 H 863.637" /><path
         id="path34"
         style="fill:none;stroke:#000000;stroke-width:3.50079989;stroke-linecap:butt;stroke-linejoin:miter;stroke-miterlimit:10;stroke-dasharray:none;stroke-opacity:1"
         d="M 15.5117,388.906 H 864.773" /><path
         id="path36"
         style="fill:none;stroke:#000000;stroke-width:3.50079989;stroke-linecap:butt;stroke-linejoin:miter;stroke-miterlimit:10;stroke-dasharray:none;stroke-opacity:1"
         d="M 14.4336,294.32 H 863.691" /><path
         id="path38"
         style="fill:none;stroke:#000000;stroke-width:3.50079989;stroke-linecap:butt;stroke-linejoin:miter;stroke-miterlimit:10;stroke-dasharray:none;stroke-opacity:1"
         d="M 14.4336,199.75 H 863.691" /><path
         id="path40"
         style="fill:none;stroke:#000000;stroke-width:3.50079989;stroke-linecap:butt;stroke-linejoin:miter;stroke-miterlimit:10;stroke-dasharray:none;stroke-opacity:1"
         d="M 14.4336,105.168 H 863.691" /><path
         id="path42"
         style="fill:none;stroke:#000000;stroke-width:3.50079989;stroke-linecap:butt;stroke-linejoin:miter;stroke-miterlimit:10;stroke-dasharray:none;stroke-opacity:1"
         d="M 108.152,6.96875 V 958.148" /><path
         id="path44"
         style="fill:none;stroke:#000000;stroke-width:3.50079989;stroke-linecap:butt;stroke-linejoin:miter;stroke-miterlimit:10;stroke-dasharray:none;stroke-opacity:1"
         d="M 202.824,6.96875 V 958.148" /><path
         id="path46"
         style="fill:none;stroke:#000000;stroke-width:3.50079989;stroke-linecap:butt;stroke-linejoin:miter;stroke-miterlimit:10;stroke-dasharray:none;stroke-opacity:1"
         d="M 297.117,6.96875 V 958.148" /><path
         id="path48"
         style="fill:none;stroke:#000000;stroke-width:3.50079989;stroke-linecap:butt;stroke-linejoin:miter;stroke-miterlimit:10;stroke-dasharray:none;stroke-opacity:1"
         d="M 486.078,6.96875 V 958.148" /><path
         id="path50"
         style="fill:none;stroke:#000000;stroke-width:3.50079989;stroke-linecap:butt;stroke-linejoin:miter;stroke-miterlimit:10;stroke-dasharray:none;stroke-opacity:1"
         d="M 580.367,6.96875 V 958.148" /><path
         id="path52"
         style="fill:none;stroke:#000000;stroke-width:3.50079989;stroke-linecap:butt;stroke-linejoin:miter;stroke-miterlimit:10;stroke-dasharray:none;stroke-opacity:1"
         d="M 675.039,7.34375 V 958.535" /><path
         id="path54"
         style="fill:none;stroke:#000000;stroke-width:3.50079989;stroke-linecap:butt;stroke-linejoin:miter;stroke-miterlimit:10;stroke-dasharray:none;stroke-opacity:1"
         d="M 769.332,7.34375 V 958.535" /><path
         id="path56"
         style="fill:none;stroke:#000000;stroke-width:10.00059986;stroke-linecap:butt;stroke-linejoin:miter;stroke-miterlimit:10;stroke-dasharray:none;stroke-opacity:1"
         d="M 485.297,503.207 V 465.441" /><path
         id="path58"
         style="fill:none;stroke:#000000;stroke-width:10.00059986;stroke-linecap:butt;stroke-linejoin:miter;stroke-miterlimit:10;stroke-dasharray:none;stroke-opacity:1"
         d="m 373.148,577.293 h 37.754" /><path
         id="path60"
         style="fill:#000000;fill-opacity:1;fill-rule:nonzero;stroke:none"
         d="m 825.715,454.898 c 1.531,-1.625 2.687,-3.25 3.469,-4.875 0.562,-1.125 1.484,-4.078 2.765,-8.859 l 4.125,6.188 c 1.094,1.5 2.422,2.929 3.985,4.289 1.562,1.359 2.937,2.289 4.125,2.789 0.75,0.312 1.578,0.468 2.484,0.468 1.344,0 2.414,-0.359 3.211,-1.078 0.797,-0.718 1.195,-1.593 1.195,-2.625 0,-1.187 -0.234,-2 -0.703,-2.437 -0.875,-0.781 -1.875,-1.172 -3,-1.172 -0.656,0 -1.359,0.141 -2.109,0.422 -1.469,0.5 -2.453,0.75 -2.953,0.75 -0.75,0 -1.641,-0.438 -2.672,-1.313 -1.938,-1.625 -4.25,-4.765 -6.938,-9.422 l 3.844,-16.125 c 0.594,-2.468 1.094,-3.945 1.5,-4.429 0.406,-0.485 0.812,-0.727 1.219,-0.727 0.656,0 1.422,0.36 2.297,1.078 1.718,1.438 3.187,3.313 4.406,5.625 l 1.64,-0.843 c -1.968,-3.688 -4.468,-6.75 -7.5,-9.188 -1.718,-1.375 -3.171,-2.062 -4.359,-2.062 -1.75,0 -3.141,0.984 -4.172,2.953 -0.656,1.218 -2.015,6.468 -4.078,15.75 -4.875,-8.469 -8.781,-13.922 -11.719,-16.36 -1.906,-1.562 -3.75,-2.343 -5.531,-2.343 -1.25,0 -2.391,0.453 -3.422,1.359 -0.75,0.687 -1.125,1.609 -1.125,2.766 0,1.031 0.344,1.89 1.031,2.578 0.688,0.687 1.532,1.031 2.532,1.031 1,0 2.062,-0.5 3.187,-1.5 0.813,-0.719 1.438,-1.078 1.875,-1.078 0.375,0 0.86,0.25 1.453,0.75 1.469,1.187 3.469,3.75 6,7.687 2.532,3.938 4.188,6.782 4.969,8.532 -1.937,7.593 -2.984,11.609 -3.141,12.046 -0.718,2.032 -1.656,3.469 -2.812,4.313 -1.156,0.844 -2.859,1.266 -5.109,1.266 -0.719,0 -1.547,-0.032 -2.485,-0.094 v 1.687 l 12.516,2.203" /><path
         id="path62"
         style="fill:#000000;fill-opacity:1;fill-rule:nonzero;stroke:none"
         d="m 362.926,475.199 c 4.219,0 7.953,-0.914 11.203,-2.742 3.25,-1.828 5.797,-4.531 7.641,-8.109 1.843,-3.578 2.765,-7.289 2.765,-11.133 0,-6.813 -1.976,-13.961 -5.93,-21.445 -3.953,-7.485 -9.117,-13.196 -15.492,-17.133 -6.375,-3.938 -12.968,-5.907 -19.781,-5.907 -4.906,0 -9.008,1.086 -12.305,3.258 -3.297,2.172 -5.734,5.039 -7.312,8.602 -1.578,3.562 -2.367,7.015 -2.367,10.359 0,5.938 1.429,11.805 4.289,17.602 2.859,5.797 6.273,10.64 10.242,14.531 3.969,3.891 8.203,6.883 12.703,8.977 4.5,2.093 9.281,3.14 14.344,3.14 z m -1.594,-3 c -3.125,0 -6.18,-0.773 -9.164,-2.32 -2.984,-1.547 -5.945,-4.078 -8.883,-7.594 -2.937,-3.515 -5.578,-8.117 -7.922,-13.805 -2.875,-7 -4.312,-13.609 -4.312,-19.828 0,-4.437 1.14,-8.367 3.422,-11.789 2.281,-3.422 5.781,-5.133 10.5,-5.133 2.843,0 5.632,0.704 8.367,2.11 2.734,1.406 5.586,3.812 8.555,7.219 3.718,4.281 6.843,9.742 9.375,16.382 2.531,6.641 3.796,12.836 3.796,18.586 0,4.25 -1.14,8.008 -3.421,11.274 -2.282,3.265 -5.719,4.898 -10.313,4.898 v 0" /><path
         id="path64"
         style="fill:#000000;fill-opacity:1;fill-rule:nonzero;stroke:none"
         d="m 339.984,609.992 15.469,7.547 H 357 v -53.672 c 0,-3.562 0.148,-5.781 0.445,-6.656 0.297,-0.875 0.914,-1.547 1.852,-2.016 0.937,-0.468 2.844,-0.734 5.719,-0.797 v -1.734 h -23.907 v 1.734 c 3,0.063 4.938,0.321 5.813,0.774 0.875,0.453 1.484,1.062 1.828,1.828 0.344,0.766 0.516,3.055 0.516,6.867 v 34.313 c 0,4.625 -0.157,7.593 -0.469,8.906 -0.219,1 -0.617,1.734 -1.195,2.203 -0.579,0.469 -1.274,0.703 -2.086,0.703 -1.157,0 -2.766,-0.484 -4.828,-1.453 l -0.704,1.453" /><path
         id="path66"
         style="fill:#000000;fill-opacity:1;fill-rule:nonzero;stroke:none"
         d="m 497.797,558.539 15.469,7.547 h 1.547 v -53.672 c 0,-3.562 0.148,-5.781 0.445,-6.652 0.297,-0.875 0.914,-1.551 1.851,-2.02 0.938,-0.469 2.844,-0.73 5.719,-0.793 v -1.734 h -23.906 v 1.734 c 3,0.063 4.937,0.317 5.812,0.774 0.875,0.449 1.485,1.062 1.829,1.828 0.343,0.762 0.515,3.054 0.515,6.863 v 34.316 c 0,4.622 -0.156,7.59 -0.469,8.907 -0.218,0.996 -0.617,1.73 -1.195,2.199 -0.578,0.469 -1.273,0.703 -2.086,0.703 -1.156,0 -2.765,-0.48 -4.828,-1.449 l -0.703,1.449" /><path
         id="path68"
         style="fill:none;stroke:#000000;stroke-width:3.50079989;stroke-linecap:butt;stroke-linejoin:miter;stroke-miterlimit:10;stroke-dasharray:none;stroke-opacity:1"
         d="m 1011.43,6.59766 h 851.38 V 956.656 h -851.38 z" /><path
         id="path70"
         style="fill:none;stroke:#000000;stroke-width:7.5005002;stroke-linecap:butt;stroke-linejoin:miter;stroke-miterlimit:10;stroke-dasharray:none;stroke-opacity:1"
         d="m 1010.25,481.988 h 817.47" /><path
         id="path72"
         style="fill:#000000;fill-opacity:1;fill-rule:evenodd;stroke:none"
         d="m 1862.81,481.988 -70.56,30.242 c 10.08,-20.16 10.08,-40.32 0,-60.48 l 70.56,30.238" /><path
         id="path74"
         style="fill:none;stroke:#000000;stroke-width:7.5005002;stroke-linecap:butt;stroke-linejoin:miter;stroke-miterlimit:10;stroke-dasharray:none;stroke-opacity:1"
         d="M 1390.13,6.59766 V 919.715" /><path
         id="path76"
         style="fill:#000000;fill-opacity:1;fill-rule:evenodd;stroke:none"
         d="m 1388.28,958.629 -30.24,-70.559 c 20.16,10.078 40.32,10.078 60.48,0 l -30.24,70.559" /><path
         id="path78"
         style="fill:#000000;fill-opacity:1;fill-rule:nonzero;stroke:none"
         d="m 1442.82,941.711 c 1.06,-1.813 1.79,-3.508 2.2,-5.086 0.41,-1.578 0.81,-4.68 1.22,-9.305 l 2.06,-23.062 c 1.88,2.25 4.59,5.812 8.16,10.687 1.72,2.375 3.84,5.61 6.37,9.703 1.53,2.5 2.47,4.25 2.81,5.25 0.19,0.5 0.29,1.016 0.29,1.547 0,0.344 -0.11,0.625 -0.33,0.844 -0.22,0.219 -0.79,0.477 -1.71,0.774 -0.93,0.296 -1.69,0.843 -2.3,1.64 -0.61,0.797 -0.91,1.711 -0.91,2.742 0,1.282 0.37,2.313 1.12,3.094 0.75,0.781 1.69,1.172 2.81,1.172 1.38,0 2.55,-0.57 3.52,-1.711 0.97,-1.141 1.45,-2.711 1.45,-4.711 0,-2.469 -0.84,-5.289 -2.53,-8.461 -1.69,-3.172 -4.94,-8.039 -9.75,-14.601 -4.81,-6.563 -10.64,-13.719 -17.48,-21.469 -4.72,-5.344 -8.22,-8.711 -10.5,-10.102 -2.28,-1.39 -4.24,-2.086 -5.86,-2.086 -0.97,0 -1.82,0.368 -2.56,1.102 -0.73,0.734 -1.1,1.586 -1.1,2.555 0,1.218 0.51,2.328 1.52,3.328 1.02,1 2.12,1.5 3.31,1.5 0.62,0 1.14,-0.141 1.55,-0.422 0.25,-0.156 0.52,-0.602 0.82,-1.336 0.29,-0.734 0.57,-1.227 0.82,-1.477 0.15,-0.156 0.34,-0.234 0.56,-0.234 0.19,0 0.51,0.156 0.98,0.469 1.72,1.062 3.72,2.75 6,5.062 3,3.063 5.22,5.563 6.66,7.5 l -2.63,29.719 c -0.43,4.906 -1.09,7.891 -1.96,8.953 -0.88,1.063 -2.35,1.594 -4.41,1.594 -0.66,0 -1.83,-0.094 -3.52,-0.281 l -0.42,1.734 13.74,3.375" /><path
         id="path80"
         style="fill:none;stroke:#000000;stroke-width:3.50079989;stroke-linecap:butt;stroke-linejoin:miter;stroke-miterlimit:10;stroke-dasharray:none;stroke-opacity:1"
         d="m 1013.55,860.313 h 849.26" /><path
         id="path82"
         style="fill:none;stroke:#000000;stroke-width:3.50079989;stroke-linecap:butt;stroke-linejoin:miter;stroke-miterlimit:10;stroke-dasharray:none;stroke-opacity:1"
         d="m 1012.41,765.43 h 849.26" /><path
         id="path84"
         style="fill:none;stroke:#000000;stroke-width:3.50079989;stroke-linecap:butt;stroke-linejoin:miter;stroke-miterlimit:10;stroke-dasharray:none;stroke-opacity:1"
         d="m 1012.41,670.605 h 849.26" /><path
         id="path86"
         style="fill:none;stroke:#000000;stroke-width:3.50079989;stroke-linecap:butt;stroke-linejoin:miter;stroke-miterlimit:10;stroke-dasharray:none;stroke-opacity:1"
         d="m 1012.41,575.793 h 849.26" /><path
         id="path88"
         style="fill:none;stroke:#000000;stroke-width:3.50079989;stroke-linecap:butt;stroke-linejoin:miter;stroke-miterlimit:10;stroke-dasharray:none;stroke-opacity:1"
         d="m 1013.55,387.406 h 849.26" /><path
         id="path90"
         style="fill:none;stroke:#000000;stroke-width:3.50079989;stroke-linecap:butt;stroke-linejoin:miter;stroke-miterlimit:10;stroke-dasharray:none;stroke-opacity:1"
         d="m 1012.47,292.82 h 849.26" /><path
         id="path92"
         style="fill:none;stroke:#000000;stroke-width:3.50079989;stroke-linecap:butt;stroke-linejoin:miter;stroke-miterlimit:10;stroke-dasharray:none;stroke-opacity:1"
         d="m 1012.47,198.25 h 849.26" /><path
         id="path94"
         style="fill:none;stroke:#000000;stroke-width:3.50079989;stroke-linecap:butt;stroke-linejoin:miter;stroke-miterlimit:10;stroke-dasharray:none;stroke-opacity:1"
         d="m 1012.47,103.664 h 849.26" /><path
         id="path96"
         style="fill:none;stroke:#000000;stroke-width:3.50079989;stroke-linecap:butt;stroke-linejoin:miter;stroke-miterlimit:10;stroke-dasharray:none;stroke-opacity:1"
         d="M 1106.19,5.46875 V 956.648" /><path
         id="path98"
         style="fill:none;stroke:#000000;stroke-width:3.50079989;stroke-linecap:butt;stroke-linejoin:miter;stroke-miterlimit:10;stroke-dasharray:none;stroke-opacity:1"
         d="M 1200.86,5.46875 V 956.648" /><path
         id="path100"
         style="fill:none;stroke:#000000;stroke-width:3.50079989;stroke-linecap:butt;stroke-linejoin:miter;stroke-miterlimit:10;stroke-dasharray:none;stroke-opacity:1"
         d="M 1295.15,5.46875 V 956.648" /><path
         id="path102"
         style="fill:none;stroke:#000000;stroke-width:3.50079989;stroke-linecap:butt;stroke-linejoin:miter;stroke-miterlimit:10;stroke-dasharray:none;stroke-opacity:1"
         d="M 1484.11,5.46875 V 956.648" /><path
         id="path104"
         style="fill:none;stroke:#000000;stroke-width:3.50079989;stroke-linecap:butt;stroke-linejoin:miter;stroke-miterlimit:10;stroke-dasharray:none;stroke-opacity:1"
         d="M 1578.4,5.46875 V 956.648" /><path
         id="path106"
         style="fill:none;stroke:#000000;stroke-width:3.50079989;stroke-linecap:butt;stroke-linejoin:miter;stroke-miterlimit:10;stroke-dasharray:none;stroke-opacity:1"
         d="M 1673.07,5.83984 V 957.035" /><path
         id="path108"
         style="fill:none;stroke:#000000;stroke-width:3.50079989;stroke-linecap:butt;stroke-linejoin:miter;stroke-miterlimit:10;stroke-dasharray:none;stroke-opacity:1"
         d="M 1767.37,5.83984 V 957.035" /><path
         id="path110"
         style="fill:none;stroke:#000000;stroke-width:10.00059986;stroke-linecap:butt;stroke-linejoin:miter;stroke-miterlimit:10;stroke-dasharray:none;stroke-opacity:1"
         d="M 1485.7,502.672 V 464.906" /><path
         id="path112"
         style="fill:none;stroke:#000000;stroke-width:10.00059986;stroke-linecap:butt;stroke-linejoin:miter;stroke-miterlimit:10;stroke-dasharray:none;stroke-opacity:1"
         d="m 1378.41,576.758 h 25.27" /><path
         id="path114"
         style="fill:#000000;fill-opacity:1;fill-rule:nonzero;stroke:none"
         d="m 1823.75,453.398 c 1.53,-1.628 2.69,-3.25 3.47,-4.875 0.56,-1.128 1.48,-4.078 2.76,-8.859 l 4.13,6.188 c 1.09,1.5 2.42,2.929 3.98,4.289 1.57,1.359 2.94,2.289 4.13,2.789 0.75,0.312 1.58,0.468 2.48,0.468 1.35,0 2.42,-0.359 3.21,-1.078 0.8,-0.718 1.2,-1.593 1.2,-2.625 0,-1.187 -0.23,-2 -0.7,-2.437 -0.88,-0.781 -1.88,-1.172 -3,-1.172 -0.66,0 -1.36,0.141 -2.11,0.422 -1.47,0.5 -2.46,0.75 -2.96,0.75 -0.75,0 -1.64,-0.438 -2.67,-1.313 -1.94,-1.625 -4.25,-4.765 -6.94,-9.422 l 3.85,-16.125 c 0.59,-2.468 1.09,-3.945 1.5,-4.429 0.4,-0.485 0.81,-0.727 1.22,-0.727 0.65,0 1.42,0.36 2.29,1.078 1.72,1.438 3.19,3.313 4.41,5.625 l 1.64,-0.843 c -1.97,-3.688 -4.47,-6.75 -7.5,-9.188 -1.72,-1.375 -3.17,-2.062 -4.36,-2.062 -1.75,0 -3.14,0.984 -4.17,2.953 -0.66,1.218 -2.02,6.468 -4.08,15.75 -4.87,-8.469 -8.78,-13.922 -11.72,-16.36 -1.9,-1.562 -3.75,-2.343 -5.53,-2.343 -1.25,0 -2.39,0.453 -3.42,1.359 -0.75,0.687 -1.13,1.609 -1.13,2.766 0,1.031 0.35,1.89 1.04,2.578 0.68,0.687 1.53,1.031 2.53,1.031 1,0 2.06,-0.5 3.18,-1.5 0.82,-0.719 1.44,-1.078 1.88,-1.078 0.37,0 0.86,0.25 1.45,0.75 1.47,1.187 3.47,3.75 6,7.687 2.53,3.938 4.19,6.782 4.97,8.532 -1.94,7.593 -2.98,11.609 -3.14,12.046 -0.72,2.032 -1.66,3.469 -2.81,4.313 -1.16,0.844 -2.86,1.266 -5.11,1.266 -0.72,0 -1.55,-0.032 -2.49,-0.094 v 1.687 l 12.52,2.203" /><path
         id="path116"
         style="fill:#000000;fill-opacity:1;fill-rule:nonzero;stroke:none"
         d="m 1360.96,473.699 c 4.22,0 7.95,-0.914 11.2,-2.742 3.25,-1.828 5.8,-4.531 7.64,-8.109 1.85,-3.578 2.77,-7.289 2.77,-11.133 0,-6.813 -1.98,-13.961 -5.93,-21.445 -3.95,-7.485 -9.12,-13.196 -15.49,-17.133 -6.38,-3.938 -12.97,-5.907 -19.78,-5.907 -4.91,0 -9.01,1.086 -12.31,3.258 -3.29,2.172 -5.73,5.039 -7.31,8.602 -1.58,3.562 -2.37,7.015 -2.37,10.359 0,5.938 1.43,11.805 4.29,17.602 2.86,5.797 6.28,10.64 10.24,14.531 3.97,3.891 8.21,6.883 12.71,8.977 4.5,2.093 9.28,3.14 14.34,3.14 z m -1.59,-3 c -3.13,0 -6.18,-0.773 -9.17,-2.32 -2.98,-1.547 -5.94,-4.078 -8.88,-7.594 -2.94,-3.515 -5.58,-8.117 -7.92,-13.805 -2.88,-7 -4.31,-13.609 -4.31,-19.828 0,-4.437 1.14,-8.367 3.42,-11.789 2.28,-3.422 5.78,-5.133 10.5,-5.133 2.84,0 5.63,0.704 8.37,2.11 2.73,1.406 5.58,3.812 8.55,7.219 3.72,4.281 6.84,9.742 9.37,16.382 2.54,6.641 3.8,12.836 3.8,18.586 0,4.25 -1.14,8.008 -3.42,11.274 -2.28,3.265 -5.72,4.898 -10.31,4.898 v 0" /><path
         id="path118"
         style="fill:#000000;fill-opacity:1;fill-rule:nonzero;stroke:none"
         d="m 1416.21,603.336 15.47,7.547 h 1.55 v -53.672 c 0,-3.563 0.15,-5.781 0.44,-6.656 0.3,-0.875 0.92,-1.547 1.85,-2.016 0.94,-0.469 2.85,-0.734 5.72,-0.797 v -1.734 h -23.9 v 1.734 c 3,0.063 4.93,0.321 5.81,0.774 0.87,0.453 1.48,1.062 1.83,1.828 0.34,0.765 0.51,3.054 0.51,6.867 v 34.312 c 0,4.625 -0.15,7.594 -0.47,8.907 -0.22,1 -0.61,1.734 -1.19,2.203 -0.58,0.469 -1.28,0.703 -2.09,0.703 -1.15,0 -2.76,-0.484 -4.83,-1.453 l -0.7,1.453" /><path
         id="path120"
         style="fill:#000000;fill-opacity:1;fill-rule:nonzero;stroke:none"
         d="m 1450.95,462.277 15.46,7.547 h 1.55 v -53.672 c 0,-3.562 0.15,-5.781 0.45,-6.656 0.29,-0.875 0.91,-1.547 1.85,-2.016 0.94,-0.468 2.84,-0.734 5.72,-0.796 v -1.735 h -23.91 v 1.735 c 3,0.062 4.94,0.32 5.81,0.773 0.88,0.453 1.49,1.063 1.83,1.828 0.34,0.766 0.52,3.055 0.52,6.867 v 34.313 c 0,4.625 -0.16,7.594 -0.47,8.906 -0.22,1 -0.62,1.734 -1.2,2.203 -0.58,0.469 -1.27,0.703 -2.08,0.703 -1.16,0 -2.77,-0.484 -4.83,-1.453 l -0.7,1.453" /><path
         id="path122"
         style="fill:none;stroke:#000000;stroke-width:3.50079989;stroke-linecap:butt;stroke-linejoin:miter;stroke-miterlimit:10;stroke-dasharray:none;stroke-opacity:1"
         d="m 2020.14,3.75 h 851.38 v 950.059 h -851.38 z" /><path
         id="path124"
         style="fill:none;stroke:#000000;stroke-width:7.5005002;stroke-linecap:butt;stroke-linejoin:miter;stroke-miterlimit:10;stroke-dasharray:none;stroke-opacity:1"
         d="m 2018.95,479.145 h 817.48" /><path
         id="path126"
         style="fill:#000000;fill-opacity:1;fill-rule:evenodd;stroke:none"
         d="m 2871.52,479.145 -70.56,30.238 c 10.08,-20.16 10.08,-40.32 0,-60.481 l 70.56,30.243" /><path
         id="path128"
         style="fill:none;stroke:#000000;stroke-width:7.5005002;stroke-linecap:butt;stroke-linejoin:miter;stroke-miterlimit:10;stroke-dasharray:none;stroke-opacity:1"
         d="M 2398.83,3.75 V 916.867" /><path
         id="path130"
         style="fill:#000000;fill-opacity:1;fill-rule:evenodd;stroke:none"
         d="m 2398.83,952.328 -30.24,-70.562 c 20.16,10.082 40.32,10.082 60.48,0 l -30.24,70.562" /><path
         id="path132"
         style="fill:#000000;fill-opacity:1;fill-rule:nonzero;stroke:none"
         d="m 2351.1,943.48 c 1.06,-1.812 1.8,-3.507 2.2,-5.085 0.41,-1.579 0.82,-4.68 1.22,-9.305 l 2.07,-23.063 c 1.87,2.25 4.59,5.813 8.15,10.688 1.72,2.375 3.85,5.609 6.38,9.703 1.53,2.5 2.47,4.25 2.81,5.25 0.19,0.5 0.28,1.016 0.28,1.547 0,0.344 -0.11,0.625 -0.33,0.844 -0.22,0.218 -0.79,0.476 -1.71,0.773 -0.92,0.297 -1.69,0.844 -2.29,1.641 -0.61,0.797 -0.92,1.711 -0.92,2.742 0,1.281 0.38,2.312 1.13,3.094 0.75,0.781 1.68,1.171 2.81,1.171 1.37,0 2.55,-0.57 3.51,-1.71 0.97,-1.141 1.46,-2.711 1.46,-4.711 0,-2.469 -0.85,-5.289 -2.53,-8.461 -1.69,-3.172 -4.94,-8.039 -9.75,-14.602 -4.82,-6.562 -10.64,-13.719 -17.49,-21.469 -4.72,-5.343 -8.22,-8.711 -10.5,-10.101 -2.28,-1.391 -4.23,-2.086 -5.86,-2.086 -0.97,0 -1.82,0.367 -2.55,1.101 -0.74,0.735 -1.1,1.586 -1.1,2.555 0,1.219 0.5,2.328 1.52,3.328 1.02,1 2.12,1.5 3.3,1.5 0.63,0 1.14,-0.14 1.55,-0.422 0.25,-0.156 0.52,-0.601 0.82,-1.336 0.3,-0.734 0.57,-1.226 0.82,-1.476 0.16,-0.156 0.35,-0.235 0.56,-0.235 0.19,0 0.52,0.157 0.99,0.469 1.72,1.063 3.72,2.75 6,5.063 3,3.062 5.22,5.562 6.65,7.5 l -2.62,29.718 c -0.44,4.907 -1.09,7.891 -1.97,8.954 -0.87,1.062 -2.34,1.593 -4.41,1.593 -0.65,0 -1.82,-0.093 -3.51,-0.281 l -0.42,1.734 13.73,3.375" /><path
         id="path134"
         style="fill:none;stroke:#000000;stroke-width:3.50079989;stroke-linecap:butt;stroke-linejoin:miter;stroke-miterlimit:10;stroke-dasharray:none;stroke-opacity:1"
         d="m 2022.25,857.465 h 849.27" /><path
         id="path136"
         style="fill:none;stroke:#000000;stroke-width:3.50079989;stroke-linecap:butt;stroke-linejoin:miter;stroke-miterlimit:10;stroke-dasharray:none;stroke-opacity:1"
         d="m 2021.12,762.582 h 849.26" /><path
         id="path138"
         style="fill:none;stroke:#000000;stroke-width:3.50079989;stroke-linecap:butt;stroke-linejoin:miter;stroke-miterlimit:10;stroke-dasharray:none;stroke-opacity:1"
         d="m 2021.12,667.758 h 849.26" /><path
         id="path140"
         style="fill:none;stroke:#000000;stroke-width:3.50079989;stroke-linecap:butt;stroke-linejoin:miter;stroke-miterlimit:10;stroke-dasharray:none;stroke-opacity:1"
         d="m 2021.12,572.945 h 849.26" /><path
         id="path142"
         style="fill:none;stroke:#000000;stroke-width:3.50079989;stroke-linecap:butt;stroke-linejoin:miter;stroke-miterlimit:10;stroke-dasharray:none;stroke-opacity:1"
         d="m 2022.25,384.559 h 849.27" /><path
         id="path144"
         style="fill:none;stroke:#000000;stroke-width:3.50079989;stroke-linecap:butt;stroke-linejoin:miter;stroke-miterlimit:10;stroke-dasharray:none;stroke-opacity:1"
         d="m 2021.18,289.973 h 849.26" /><path
         id="path146"
         style="fill:none;stroke:#000000;stroke-width:3.50079989;stroke-linecap:butt;stroke-linejoin:miter;stroke-miterlimit:10;stroke-dasharray:none;stroke-opacity:1"
         d="m 2021.18,195.402 h 849.26" /><path
         id="path148"
         style="fill:none;stroke:#000000;stroke-width:3.50079989;stroke-linecap:butt;stroke-linejoin:miter;stroke-miterlimit:10;stroke-dasharray:none;stroke-opacity:1"
         d="m 2021.18,100.82 h 849.26" /><path
         id="path150"
         style="fill:none;stroke:#000000;stroke-width:3.50079989;stroke-linecap:butt;stroke-linejoin:miter;stroke-miterlimit:10;stroke-dasharray:none;stroke-opacity:1"
         d="M 2114.89,2.62109 V 953.801" /><path
         id="path152"
         style="fill:none;stroke:#000000;stroke-width:3.50079989;stroke-linecap:butt;stroke-linejoin:miter;stroke-miterlimit:10;stroke-dasharray:none;stroke-opacity:1"
         d="M 2209.57,2.62109 V 953.801" /><path
         id="path154"
         style="fill:none;stroke:#000000;stroke-width:3.50079989;stroke-linecap:butt;stroke-linejoin:miter;stroke-miterlimit:10;stroke-dasharray:none;stroke-opacity:1"
         d="M 2303.86,2.62109 V 953.801" /><path
         id="path156"
         style="fill:none;stroke:#000000;stroke-width:3.50079989;stroke-linecap:butt;stroke-linejoin:miter;stroke-miterlimit:10;stroke-dasharray:none;stroke-opacity:1"
         d="M 2492.82,2.62109 V 953.801" /><path
         id="path158"
         style="fill:none;stroke:#000000;stroke-width:3.50079989;stroke-linecap:butt;stroke-linejoin:miter;stroke-miterlimit:10;stroke-dasharray:none;stroke-opacity:1"
         d="M 2587.11,2.62109 V 953.801" /><path
         id="path160"
         style="fill:none;stroke:#000000;stroke-width:3.50079989;stroke-linecap:butt;stroke-linejoin:miter;stroke-miterlimit:10;stroke-dasharray:none;stroke-opacity:1"
         d="M 2681.78,2.99609 V 954.188" /><path
         id="path162"
         style="fill:none;stroke:#000000;stroke-width:3.50079989;stroke-linecap:butt;stroke-linejoin:miter;stroke-miterlimit:10;stroke-dasharray:none;stroke-opacity:1"
         d="M 2776.07,2.99609 V 954.188" /><path
         id="path164"
         style="fill:none;stroke:#000000;stroke-width:10.00059986;stroke-linecap:butt;stroke-linejoin:miter;stroke-miterlimit:10;stroke-dasharray:none;stroke-opacity:1"
         d="M 2490.38,498.859 V 461.094" /><path
         id="path166"
         style="fill:none;stroke:#000000;stroke-width:10.00059986;stroke-linecap:butt;stroke-linejoin:miter;stroke-miterlimit:10;stroke-dasharray:none;stroke-opacity:1"
         d="m 2379.89,572.945 h 37.76" /><path
         id="path168"
         style="fill:#000000;fill-opacity:1;fill-rule:nonzero;stroke:none"
         d="m 2832.46,450.551 c 1.53,-1.625 2.68,-3.25 3.47,-4.875 0.56,-1.125 1.48,-4.078 2.76,-8.86 l 4.13,6.188 c 1.09,1.5 2.42,2.93 3.98,4.289 1.56,1.359 2.94,2.289 4.13,2.789 0.75,0.313 1.57,0.469 2.48,0.469 1.34,0 2.41,-0.36 3.21,-1.078 0.8,-0.719 1.2,-1.594 1.2,-2.625 0,-1.188 -0.24,-2 -0.71,-2.438 -0.87,-0.781 -1.87,-1.172 -3,-1.172 -0.65,0 -1.36,0.141 -2.11,0.422 -1.46,0.5 -2.45,0.75 -2.95,0.75 -0.75,0 -1.64,-0.437 -2.67,-1.312 -1.94,-1.625 -4.25,-4.766 -6.94,-9.422 l 3.85,-16.125 c 0.59,-2.469 1.09,-3.946 1.5,-4.43 0.4,-0.484 0.81,-0.726 1.21,-0.726 0.66,0 1.43,0.359 2.3,1.078 1.72,1.437 3.19,3.312 4.41,5.625 l 1.64,-0.844 c -1.97,-3.688 -4.47,-6.75 -7.5,-9.188 -1.72,-1.375 -3.17,-2.062 -4.36,-2.062 -1.75,0 -3.14,0.984 -4.17,2.953 -0.66,1.219 -2.02,6.469 -4.08,15.75 -4.88,-8.469 -8.78,-13.922 -11.72,-16.359 -1.91,-1.563 -3.75,-2.344 -5.53,-2.344 -1.25,0 -2.39,0.453 -3.42,1.359 -0.75,0.688 -1.13,1.61 -1.13,2.766 0,1.031 0.35,1.891 1.03,2.578 0.69,0.688 1.53,1.031 2.53,1.031 1,0 2.07,-0.5 3.19,-1.5 0.81,-0.718 1.44,-1.078 1.88,-1.078 0.37,0 0.86,0.25 1.45,0.75 1.47,1.188 3.47,3.75 6,7.688 2.53,3.937 4.19,6.781 4.97,8.531 -1.94,7.594 -2.99,11.609 -3.14,12.047 -0.72,2.031 -1.66,3.469 -2.81,4.312 -1.16,0.844 -2.86,1.266 -5.11,1.266 -0.72,0 -1.55,-0.031 -2.49,-0.094 v 1.688 l 12.52,2.203" /><path
         id="path170"
         style="fill:#000000;fill-opacity:1;fill-rule:nonzero;stroke:none"
         d="m 2368.96,472.113 c 4.22,0 7.95,-0.914 11.2,-2.742 3.25,-1.828 5.8,-4.531 7.64,-8.109 1.85,-3.578 2.77,-7.289 2.77,-11.133 0,-6.813 -1.98,-13.961 -5.93,-21.445 -3.95,-7.485 -9.12,-13.196 -15.49,-17.133 -6.38,-3.938 -12.97,-5.906 -19.78,-5.906 -4.91,0 -9.01,1.085 -12.31,3.257 -3.29,2.172 -5.73,5.039 -7.31,8.602 -1.58,3.562 -2.37,7.016 -2.37,10.359 0,5.938 1.43,11.805 4.29,17.602 2.86,5.797 6.28,10.64 10.24,14.531 3.97,3.891 8.21,6.883 12.71,8.977 4.5,2.093 9.27,3.14 14.34,3.14 z m -1.59,-3 c -3.13,0 -6.18,-0.773 -9.17,-2.32 -2.98,-1.547 -5.95,-4.078 -8.88,-7.594 -2.94,-3.515 -5.58,-8.117 -7.92,-13.804 -2.88,-7 -4.31,-13.61 -4.31,-19.829 0,-4.437 1.14,-8.367 3.42,-11.789 2.28,-3.422 5.78,-5.132 10.49,-5.132 2.85,0 5.64,0.703 8.38,2.109 2.73,1.406 5.58,3.812 8.55,7.219 3.72,4.281 6.84,9.742 9.37,16.382 2.53,6.641 3.8,12.836 3.8,18.586 0,4.25 -1.14,8.008 -3.42,11.274 -2.28,3.265 -5.72,4.898 -10.31,4.898 v 0" /><path
         id="path172"
         style="fill:#000000;fill-opacity:1;fill-rule:nonzero;stroke:none"
         d="m 2346.3,594.223 15.47,7.547 h 1.55 v -53.672 c 0,-3.563 0.14,-5.782 0.44,-6.657 0.3,-0.875 0.92,-1.546 1.85,-2.015 0.94,-0.469 2.85,-0.735 5.72,-0.797 v -1.734 h -23.9 v 1.734 c 3,0.062 4.93,0.32 5.81,0.773 0.87,0.453 1.48,1.063 1.83,1.828 0.34,0.766 0.51,3.055 0.51,6.868 v 34.312 c 0,4.625 -0.15,7.594 -0.47,8.906 -0.22,1 -0.61,1.735 -1.19,2.204 -0.58,0.468 -1.28,0.703 -2.09,0.703 -1.15,0 -2.76,-0.485 -4.83,-1.453 l -0.7,1.453" /><path
         id="path174"
         style="fill:#000000;fill-opacity:1;fill-rule:nonzero;stroke:none"
         d="m 2459.65,459.43 15.47,7.547 h 1.55 v -53.672 c 0,-3.563 0.15,-5.782 0.44,-6.657 0.3,-0.875 0.92,-1.546 1.85,-2.015 0.94,-0.469 2.85,-0.735 5.72,-0.797 v -1.734 h -23.9 v 1.734 c 3,0.062 4.93,0.32 5.81,0.773 0.87,0.454 1.48,1.063 1.83,1.829 0.34,0.765 0.51,3.054 0.51,6.867 v 34.312 c 0,4.625 -0.15,7.594 -0.47,8.906 -0.21,1 -0.61,1.735 -1.19,2.204 -0.58,0.468 -1.27,0.703 -2.09,0.703 -1.15,0 -2.76,-0.485 -4.82,-1.453 l -0.71,1.453" /><path
         id="path176"
         style="fill:none;stroke:#000000;stroke-width:8;stroke-linecap:butt;stroke-linejoin:miter;stroke-miterlimit:10;stroke-dasharray:none;stroke-opacity:1"
         d="m 2228.99,958.727 c 0,-0.149 0.8,-2.575 0.8,-2.719 0,-0.145 0.81,-2.563 0.81,-2.707 0,-0.145 0.81,-2.547 0.81,-2.692 0,-0.144 0.8,-2.535 0.8,-2.679 0.01,-0.145 0.81,-2.524 0.81,-2.668 0,-0.145 0.81,-2.508 0.81,-2.653 0,-0.144 0.81,-2.496 0.81,-2.64 0,-0.145 0.81,-2.485 0.81,-2.629 0,-0.145 0.8,-2.473 0.8,-2.617 0,-0.145 0.81,-2.457 0.81,-2.602 0,-0.144 0.81,-2.445 0.81,-2.59 0,-0.144 0.8,-2.433 0.8,-2.578 0.01,-0.14 0.81,-2.422 0.81,-2.562 0,-0.145 0.81,-2.411 0.81,-2.551 0,-0.145 0.8,-2.399 0.8,-2.539 0,-0.141 0.81,-2.387 0.81,-2.528 0,-0.14 0.8,-2.371 0.8,-2.511 0.01,-0.141 0.81,-2.36 0.81,-2.5 0,-0.141 0.81,-2.348 0.81,-2.485 0,-0.14 0.8,-2.336 0.81,-2.476 0,-0.137 0.8,-2.324 0.8,-2.461 0,-0.137 0.8,-2.313 0.8,-2.449 0,-0.137 0.81,-2.297 0.81,-2.434 0,-0.137 0.8,-2.289 0.81,-2.422 0,-0.137 0.8,-2.277 0.8,-2.414 0,-0.133 0.81,-2.262 0.81,-2.394 0,-0.133 0.8,-2.25 0.8,-2.383 0,-0.137 0.81,-2.242 0.81,-2.371 0,-0.133 0.8,-2.231 0.8,-2.36 0.01,-0.133 0.81,-2.215 0.81,-2.347 0,-0.129 0.8,-2.203 0.8,-2.332 0,-0.129 0.81,-2.192 0.81,-2.321 0,-0.129 0.8,-2.179 0.8,-2.308 0,-0.125 0.8,-2.164 0.8,-2.293 0.01,-0.125 0.81,-2.157 0.81,-2.282 0,-0.125 0.8,-2.144 0.8,-2.269 0.01,-0.121 0.81,-2.133 0.81,-2.254 0,-0.125 0.8,-2.121 0.8,-2.242 0,-0.125 0.81,-2.11 0.81,-2.231 0,-0.121 0.8,-2.097 0.8,-2.218 0,-0.118 0.8,-2.082 0.81,-2.203 0,-0.118 0.8,-2.075 0.8,-2.192 0,-0.117 0.8,-2.062 0.8,-2.18 0,-0.113 0.81,-2.05 0.81,-2.164 0,-0.117 0.8,-2.039 0.8,-2.152 0,-0.113 0.8,-2.027 0.8,-2.141 0,-0.113 0.81,-2.015 0.81,-2.129 0,-0.109 0.8,-2.003 0.8,-2.113 0,-0.109 0.8,-1.992 0.8,-2.101 0,-0.11 0.81,-1.981 0.81,-2.09 0,-0.106 0.8,-1.969 0.8,-2.074 0,-0.106 0.8,-1.961 0.8,-2.063 0,-0.105 0.8,-1.949 0.8,-2.051 0.01,-0.101 0.81,-1.937 0.81,-2.035 0,-0.101 0.8,-1.926 0.8,-2.027 0,-0.098 0.8,-1.914 0.8,-2.012 0,-0.098 0.81,-1.902 0.81,-1.996 0,-0.098 0.8,-1.895 0.8,-1.988 0,-0.094 0.8,-1.879 0.8,-1.973 0,-0.094 0.8,-1.867 0.8,-1.961 0.01,-0.09 0.8,-1.855 0.81,-1.945 0,-0.09 0.8,-1.848 0.8,-1.934 0,-0.09 0.8,-1.836 0.8,-1.922 0,-0.086 0.8,-1.824 0.8,-1.91 0,-0.082 0.8,-1.812 0.8,-1.894 0,-0.082 0.8,-1.805 0.8,-1.883 0,-0.082 0.8,-1.793 0.8,-1.871 0,-0.078 0.81,-1.782 0.81,-1.86 0,-0.074 0.8,-1.769 0.8,-1.843 0,-0.075 0.8,-1.758 0.8,-1.832 0,-0.071 0.8,-1.747 0.8,-1.817 0,-0.074 0.8,-1.738 0.8,-1.808 0,-0.067 0.8,-1.723 0.8,-1.793 0,-0.067 0.8,-1.711 0.8,-1.778 0,-0.066 0.8,-1.703 0.8,-1.769 0,-0.063 0.8,-1.692 0.8,-1.754 0,-0.063 0.8,-1.684 0.8,-1.742 0,-0.059 0.8,-1.672 0.8,-1.727 0,-0.059 0.8,-1.664 0.8,-1.719 0,-0.054 0.8,-1.648 0.8,-1.703 0,-0.054 0.81,-1.637 0.81,-1.687 0,-0.055 0.79,-1.629 0.8,-1.68 0,-0.051 0.79,-1.617 0.79,-1.664 0,-0.047 0.8,-1.606 0.8,-1.652 0,-0.047 0.8,-1.594 0.8,-1.637 0,-0.047 0.8,-1.586 0.81,-1.629 0,-0.039 0.79,-1.574 0.79,-1.613 0,-0.039 0.8,-1.563 0.8,-1.598 0,-0.039 0.8,-1.555 0.8,-1.59 0,-0.035 0.8,-1.539 0.8,-1.574 0,-0.031 0.8,-1.531 0.8,-1.563 0,-0.031 0.8,-1.519 0.8,-1.546 0,-0.032 0.8,-1.512 0.8,-1.536 0,-0.027 0.8,-1.5 0.8,-1.523 0,-0.027 0.8,-1.488 0.8,-1.512 0,-0.023 0.79,-1.476 0.79,-1.496 0,-0.023 0.8,-1.469 0.8,-1.488 0,-0.016 0.8,-1.453 0.8,-1.469 0,-0.019 0.8,-1.445 0.8,-1.461 0,-0.011 0.8,-1.433 0.8,-1.445 0,-0.012 0.8,-1.422 0.8,-1.434 0,-0.011 0.79,-1.41 0.79,-1.422 0,-0.007 0.8,-1.398 0.8,-1.406 0,-0.008 0.8,-1.39 0.8,-1.394 0,-0.004 0.8,-1.379 0.8,-1.383 l 0.79,-1.367 c 0,0 0.81,-1.36 0.8,-1.356 0.01,0 0.8,-1.351 0.8,-1.344 0,0.004 0.8,-1.339 0.8,-1.332 0,0.008 0.8,-1.324 0.8,-1.316 0,0.008 0.79,-1.316 0.79,-1.305 0,0.012 0.8,-1.304 0.8,-1.293 0,0.012 0.8,-1.293 0.8,-1.277 0,0.016 0.79,-1.285 0.79,-1.27 0,0.02 0.8,-1.269 0.8,-1.25 0,0.02 0.8,-1.265 0.8,-1.242 0,0.02 0.79,-1.25 0.79,-1.226 0,0.023 0.8,-1.242 0.8,-1.215 0,0.023 0.8,-1.231 0.8,-1.203 0,0.027 0.79,-1.219 0.79,-1.188 0,0.028 0.8,-1.211 0.8,-1.179 0,0.035 0.79,-1.196 0.79,-1.161 0,0.032 0.8,-1.187 0.8,-1.152 0,0.035 0.8,-1.176 0.8,-1.137 0,0.039 0.79,-1.168 0.79,-1.125 0,0.039 0.8,-1.156 0.8,-1.113 0,0.043 0.79,-1.144 0.79,-1.098 0,0.043 0.8,-1.132 0.8,-1.089 0,0.046 0.8,-1.122 0.79,-1.071 0,0.047 0.8,-1.113 0.8,-1.062 0,0.051 0.8,-1.102 0.8,-1.047 0,0.051 0.79,-1.09 0.79,-1.035 0,0.054 0.8,-1.078 0.8,-1.024 0,0.059 0.79,-1.066 0.79,-1.008 0,0.059 0.8,-1.058 0.8,-0.996 0,0.059 0.79,-1.046 0.79,-0.984 0,0.063 0.8,-1.035 0.8,-0.973 0,0.067 0.79,-1.023 0.79,-0.957 0,0.067 0.8,-1.011 0.8,-0.945 -0.01,0.07 0.79,-1 0.79,-0.93 0,0.071 0.79,-0.992 0.79,-0.922 0,0.075 0.8,-0.98 0.8,-0.906 0,0.074 0.79,-0.969 0.79,-0.89 0,0.074 0.8,-0.961 0.8,-0.883 0,0.078 0.79,-0.946 0.79,-0.867 0,0.078 0.8,-0.938 0.8,-0.856 -0.01,0.082 0.79,-0.926 0.79,-0.844 0,0.086 0.79,-0.91 0.79,-0.828 0,0.086 0.8,-0.902 0.8,-0.816 0,0.086 0.79,-0.891 0.79,-0.805 0,0.09 0.8,-0.879 0.79,-0.789 0,0.09 0.8,-0.871 0.79,-0.777 0,0.09 0.8,-0.86 0.8,-0.766 0,0.094 0.79,-0.848 0.79,-0.754 0,0.098 0.8,-0.836 0.8,-0.738 -0.01,0.098 0.79,-0.824 0.79,-0.727 0,0.098 0.79,-0.812 0.79,-0.714 0,0.101 0.8,-0.801 0.79,-0.7 0,0.102 0.8,-0.789 0.79,-0.687 0,0.101 0.8,-0.781 0.8,-0.676 0,0.105 0.79,-0.77 0.79,-0.664 0,0.105 0.79,-0.754 0.79,-0.648 0,0.109 0.8,-0.747 0.8,-0.637 0,0.109 0.79,-0.735 0.79,-0.621 0,0.109 0.79,-0.723 0.79,-0.614 0,0.114 0.79,-0.711 0.79,-0.597 0,0.113 0.79,-0.699 0.79,-0.586 0,0.113 0.8,-0.688 0.79,-0.57 0,0.113 0.8,-0.68 0.8,-0.563 0,0.117 0.79,-0.664 0.79,-0.547 0,0.121 0.79,-0.652 0.79,-0.531 0,0.117 0.79,-0.641 0.79,-0.524 0,0.122 0.79,-0.628 0.79,-0.507 0,0.121 0.79,-0.618 0.79,-0.493 0,0.122 0.8,-0.609 0.8,-0.484 -0.01,0.125 0.79,-0.594 0.79,-0.469 0,0.125 0.79,-0.582 0.79,-0.457 -0.01,0.125 0.79,-0.57 0.79,-0.445 0,0.129 0.79,-0.559 0.79,-0.43 0,0.129 0.79,-0.547 0.79,-0.418 0,0.129 0.79,-0.535 0.79,-0.406 0,0.129 0.79,-0.523 0.79,-0.391 0,0.129 0.79,-0.511 0.79,-0.382 0,0.132 0.79,-0.496 0.79,-0.364 0,0.133 0.79,-0.488 0.79,-0.355 0,0.133 0.79,-0.477 0.79,-0.34 0,0.133 0.79,-0.465 0.79,-0.328 0,0.133 0.79,-0.453 0.79,-0.316 0,0.136 0.79,-0.438 0.79,-0.305 0,0.137 0.79,-0.426 0.79,-0.289 0,0.14 0.79,-0.414 0.79,-0.278 0,0.141 0.79,-0.402 0.79,-0.261 0,0.14 0.79,-0.391 0.79,-0.25 0,0.136 0.79,-0.379 0.79,-0.239 -0.01,0.141 0.79,-0.367 0.79,-0.226 -0.01,0.14 0.79,-0.356 0.79,-0.211 -0.01,0.141 0.79,-0.344 0.79,-0.203 0,0.144 0.78,-0.328 0.78,-0.184 0,0.141 0.79,-0.32 0.79,-0.176 0,0.145 0.79,-0.304 0.79,-0.16 0,0.141 0.79,-0.293 0.79,-0.148 0,0.14 0.79,-0.281 0.79,-0.137 0,0.145 0.79,-0.266 0.79,-0.121 0,0.145 0.79,-0.254 0.79,-0.109 0,0.14 0.78,-0.243 0.78,-0.098 0,0.145 0.79,-0.23 0.79,-0.086 0,0.145 0.79,-0.215 0.79,-0.07 0,0.144 0.79,-0.203 0.79,-0.059 0,0.145 0.79,-0.191 0.79,-0.047 -0.01,0.149 0.78,-0.176 0.78,-0.031 0,0.145 0.79,-0.164 0.79,-0.02 0,0.145 0.79,-0.152 0.79,-0.007 0,0.144 0.79,-0.141 0.79,0.007 0,0.145 0.78,-0.128 0.78,0.02 0,0.145 0.79,-0.117 0.79,0.031 0,0.145 0.79,-0.101 0.79,0.043 -0.01,0.145 0.78,-0.09 0.78,0.059 0,0.144 0.79,-0.078 0.79,0.07 0,0.145 0.79,-0.062 0.79,0.082 0,0.145 0.79,-0.051 0.78,0.094 0,0.144 0.79,-0.035 0.79,0.109 0,0.145 0.79,-0.023 0.79,0.121 0,0.145 0.79,-0.007 0.79,0.137 -0.01,0.145 0.78,0.004 0.78,0.145 0,0.144 0.79,0.019 0.79,0.16 0,0.144 0.79,0.031 0.78,0.176 0,0.14 0.79,0.043 0.79,0.183 0,0.145 0.79,0.059 0.79,0.199 0,0.141 0.78,0.071 0.78,0.211 0,0.141 0.79,0.086 0.79,0.223 0,0.145 0.79,0.098 0.78,0.238 0,0.141 0.79,0.114 0.79,0.25 0,0.141 0.79,0.125 0.79,0.262 -0.01,0.141 0.78,0.141 0.78,0.277 0,0.141 0.79,0.153 0.79,0.289 -0.01,0.137 0.78,0.164 0.78,0.301 0,0.137 0.79,0.18 0.79,0.317 -0.01,0.136 0.78,0.191 0.78,0.324 0,0.137 0.79,0.207 0.79,0.34 -0.01,0.136 0.78,0.222 0.78,0.355 0,0.133 0.79,0.231 0.78,0.363 0,0.133 0.79,0.246 0.79,0.379 0,0.133 0.78,0.262 0.78,0.391 0,0.133 0.79,0.277 0.79,0.406 0,0.129 0.78,0.289 0.78,0.418 0,0.129 0.79,0.301 0.79,0.43 -0.01,0.129 0.78,0.312 0.78,0.441 0,0.129 0.79,0.332 0.79,0.457 0,0.125 0.78,0.344 0.78,0.469 0,0.125 0.79,0.355 0.78,0.48 0,0.125 0.79,0.372 0.79,0.493 0,0.125 0.78,0.386 0.78,0.507 0,0.122 0.78,0.399 0.78,0.52 0,0.121 0.79,0.414 0.79,0.535 0,0.117 0.78,0.426 0.78,0.543 0,0.117 0.78,0.442 0.78,0.559 0,0.117 0.79,0.457 0.79,0.574 0,0.113 0.78,0.469 0.78,0.582 0,0.113 0.79,0.484 0.78,0.598 0,0.113 0.79,0.496 0.79,0.609 0,0.109 0.78,0.512 0.78,0.621 0,0.109 0.78,0.527 0.78,0.637 0,0.109 0.79,0.543 0.79,0.648 0,0.106 0.78,0.555 0.78,0.66 0,0.106 0.78,0.571 0.78,0.676 0,0.106 0.78,0.582 0.78,0.688 0,0.101 0.78,0.597 0.78,0.699 0,0.101 0.79,0.613 0.79,0.711 0,0.101 0.78,0.629 0.78,0.726 0,0.098 0.78,0.641 0.78,0.739 0,0.097 0.78,0.656 0.78,0.75 0,0.097 0.78,0.672 0.78,0.765 0,0.094 0.79,0.684 0.79,0.778 0,0.09 0.78,0.699 0.78,0.789 0,0.09 0.78,0.715 0.78,0.801 0,0.089 0.78,0.73 0.78,0.816 0,0.086 0.78,0.742 0.78,0.828 0,0.086 0.79,0.758 0.78,0.84 0,0.086 0.78,0.773 0.78,0.855 0,0.082 0.78,0.789 0.78,0.868 0,0.078 0.79,0.8 0.79,0.878 0,0.079 0.78,0.817 0.78,0.895 0,0.074 0.78,0.832 0.78,0.906 0,0.071 0.78,0.844 0.78,0.918 0,0.071 0.78,0.86 0.78,0.93 0,0.07 0.78,0.875 0.78,0.945 0,0.067 0.78,0.891 0.78,0.957 0,0.063 0.78,0.903 0.78,0.969 0,0.062 0.78,0.918 0.78,0.98 0,0.063 0.78,0.934 0.78,0.997 0,0.062 0.78,0.949 0.78,1.007 0,0.059 0.78,0.965 0.78,1.02 0,0.058 0.78,0.98 0.78,1.035 0,0.055 0.78,0.996 0.78,1.047 0,0.055 0.78,1.008 0.78,1.059 0,0.05 0.78,1.023 0.78,1.074 0,0.047 0.78,1.039 0.78,1.086 0,0.047 0.78,1.05 0.78,1.097 0,0.043 0.77,1.067 0.77,1.11 0,0.043 0.79,1.086 0.79,1.125 0,0.039 0.77,1.097 0.77,1.136 0,0.039 0.78,1.114 0.78,1.149 0,0.039 0.78,1.129 0.78,1.164 0,0.031 0.78,1.141 0.78,1.176 0,0.031 0.78,1.156 0.78,1.187 0,0.028 0.78,1.172 0.78,1.199 0,0.028 0.77,1.188 0.77,1.215 0,0.024 0.79,1.203 0.79,1.227 0,0.023 0.77,1.219 0.77,1.238 0,0.024 0.78,1.234 0.78,1.254 0,0.02 0.78,1.246 0.78,1.266 0,0.015 0.78,1.261 0.78,1.277 0,0.016 0.78,1.277 0.78,1.289 -0.01,0.016 0.77,1.293 0.77,1.305 0,0.011 0.78,1.308 0.78,1.316 0,0.008 0.78,1.324 0.78,1.328 0,0.008 0.78,1.34 0.78,1.344 0,0.004 0.77,1.352 0.77,1.355 0,0.004 0.78,1.368 0.78,1.368 l 0.78,1.382 c 0,-0.003 0.78,1.395 0.78,1.391 0,-0.004 0.77,1.414 0.77,1.406 0,-0.004 0.78,1.43 0.78,1.422 0,-0.008 0.77,1.442 0.77,1.43 0,-0.008 0.78,1.461 0.78,1.445 0,-0.011 0.78,1.473 0.78,1.461 0,-0.015 0.78,1.485 0.78,1.469 0,-0.016 0.77,1.504 0.77,1.484 0,-0.019 0.78,1.516 0.78,1.496 0,-0.019 0.77,1.532 0.77,1.508 0,-0.019 0.78,1.551 0.78,1.524 0,-0.024 0.77,1.562 0.77,1.535 0,-0.028 0.78,1.578 0.78,1.547 0,-0.028 0.78,1.593 0.78,1.562 0,-0.031 0.77,1.606 0.77,1.574 0,-0.035 0.78,1.621 0.78,1.586 0,-0.035 0.77,1.637 0.77,1.598 0,-0.039 0.78,1.652 0.78,1.613 0,-0.039 0.77,1.668 0.77,1.625 0,-0.043 0.78,1.68 0.78,1.637 0,-0.043 0.78,1.695 0.78,1.652 0,-0.047 0.77,1.711 0.77,1.664 0,-0.05 0.78,1.723 0.78,1.676 0,-0.051 0.77,1.738 0.77,1.688 0,-0.051 0.78,1.757 0.78,1.703 0,-0.055 0.77,1.769 0.77,1.715 0,-0.059 0.77,1.785 0.77,1.726 0,-0.058 0.78,1.801 0.78,1.742 0,-0.062 0.77,1.813 0.77,1.754 0,-0.062 0.78,1.828 0.78,1.766 0,-0.066 0.77,1.844 0.77,1.777 0,-0.066 0.77,1.86 0.77,1.793 0.01,-0.066 0.78,1.875 0.78,1.805 0,-0.07 0.78,1.891 0.78,1.816 0,-0.07 0.77,1.907 0.77,1.832 0,-0.074 0.77,1.918 0.77,1.844 0,-0.074 0.78,1.934 0.78,1.856 0,-0.079 0.77,1.949 0.77,1.871 0,-0.078 0.77,1.961 0.77,1.879 0,-0.079 0.78,1.976 0.78,1.894 0,-0.082 0.77,1.992 0.77,1.91 0,-0.086 0.77,2.004 0.77,1.918 0,-0.086 0.78,2.024 0.78,1.934 0,-0.086 0.77,2.035 0.77,1.949 0,-0.09 0.77,2.047 0.77,1.957 0,-0.09 0.77,2.066 0.77,1.973 0,-0.094 0.78,2.078 0.78,1.984 0,-0.094 0.77,2.094 0.77,1.996 0,-0.094 0.77,2.11 0.77,2.012 0,-0.098 0.77,2.121 0.77,2.023 0.01,-0.097 0.78,2.137 0.78,2.036 0,-0.098 0.77,2.152 0.77,2.05 0,-0.101 0.77,2.164 0.77,2.063 0,-0.106 0.77,2.179 0.77,2.074 0,-0.105 0.77,2.195 0.78,2.086 0,-0.106 0.77,2.207 0.77,2.102 0,-0.11 0.77,2.222 0.77,2.113 0,-0.11 0.77,2.238 0.77,2.125 0,-0.11 0.77,2.25 0.77,2.14 0,-0.113 0.77,2.262 0.77,2.153 0,-0.114 0.77,2.277 0.77,2.164 0,-0.117 0.77,2.293 0.77,2.176 0,-0.118 0.77,2.308 0.78,2.191 0,-0.117 0.77,2.32 0.77,2.203 0,-0.117 0.77,2.336 0.77,2.215 0,-0.117 0.77,2.352 0.77,2.23 0,-0.121 0.77,2.364 0.77,2.243 0,-0.125 0.77,2.375 0.77,2.254 0,-0.125 0.77,2.39 0.77,2.265 0,-0.125 0.77,2.406 0.77,2.281 0,-0.125 0.77,2.422 0.77,2.293 0,-0.125 0.77,2.434 0.77,2.305 0,-0.125 0.77,2.449 0.77,2.32 0,-0.129 0.77,2.461 0.77,2.332 0,-0.128 0.77,2.477 0.77,2.344 0,-0.129 0.77,2.488 0.77,2.36 0,-0.133 0.77,2.5 0.77,2.367 0,-0.133 0.77,2.519 0.77,2.386 0,-0.136 0.77,2.528 0.77,2.395 0,-0.133 0.77,2.543 0.77,2.41 0,-0.137 0.77,2.555 0.77,2.422 0,-0.137 0.77,2.57 0.77,2.434 0,-0.137 0.77,2.582 0.77,2.445 0,-0.137 0.77,2.598 0.77,2.461 0,-0.137 0.77,2.613 0.77,2.473 0,-0.137 0.76,2.625 0.76,2.488 0.01,-0.141 0.77,2.637 0.77,2.496 0,-0.141 0.77,2.652 0.77,2.512 0,-0.141 0.77,2.664 0.77,2.523 0,-0.141 0.77,2.68 0.77,2.539 0,-0.141 0.77,2.692 0.77,2.551 0,-0.145 0.77,2.703 0.77,2.562 0,-0.144 0.76,2.719 0.77,2.575 0,-0.141 0.76,2.734 0.76,2.589 0,-0.144 0.77,2.747 0.77,2.602 0,-0.145 0.77,2.758 0.77,2.613 0,-0.144 0.77,2.774 0.77,2.629 0,-0.144 0.76,2.785 0.77,2.641 0,-0.145 0.76,2.797 0.76,2.652 0,-0.144 0.77,2.809 0.77,2.664 0,-0.144 0.77,2.824 0.77,2.68 0,-0.145 0.76,2.836 0.77,2.691 0,-0.144 0.76,2.852 0.76,2.703 0,-0.144 0.77,2.864 0.77,2.719" /><path
         id="path178"
         style="fill:none;stroke:#000000;stroke-width:8;stroke-linecap:round;stroke-linejoin:round;stroke-miterlimit:10;stroke-dasharray:none;stroke-opacity:1"
         d="M 1484.29,7.17969 C 1292.66,945.637 1295.29,955.625 1295.29,955.625" /><path
         id="path180"
         style="fill:none;stroke:#000000;stroke-width:8;stroke-linecap:butt;stroke-linejoin:miter;stroke-miterlimit:10;stroke-dasharray:none;stroke-opacity:1"
         d="m 417.34,880.129 c 0,0.109 0.535,-2.957 0.535,-2.848 0,0.11 0.531,-2.918 0.531,-2.812 0,0.109 0.535,-2.883 0.535,-2.778 0,0.11 0.532,-2.847 0.532,-2.742 0,0.11 0.531,-2.812 0.531,-2.707 0,0.106 0.535,-2.781 0.535,-2.676 0,0.106 0.531,-2.75 0.531,-2.644 0,0.105 0.535,-2.719 0.535,-2.613 0,0.105 0.532,-2.688 0.532,-2.582 0,0.105 0.531,-2.657 0.531,-2.551 0,0.101 0.535,-2.625 0.535,-2.524 0,0.106 0.531,-2.593 0.531,-2.488 0,0.102 0.536,-2.566 0.536,-2.465 0,0.102 0.531,-2.535 0.531,-2.433 0,0.101 0.531,-2.508 0.531,-2.407 0,0.102 0.535,-2.48 0.535,-2.379 0,0.098 0.531,-2.453 0.531,-2.351 0,0.098 0.536,-2.426 0.536,-2.328 0,0.101 0.531,-2.395 0.531,-2.297 0,0.098 0.531,-2.371 0.531,-2.274 0,0.098 0.535,-2.343 0.535,-2.25 0,0.098 0.532,-2.32 0.532,-2.222 0,0.094 0.535,-2.293 0.535,-2.199 0,0.093 0.531,-2.27 0.531,-2.176 0,0.094 0.531,-2.246 0.531,-2.153 0,0.094 0.535,-2.218 0.535,-2.128 0,0.093 0.532,-2.196 0.532,-2.106 0,0.094 0.535,-2.172 0.535,-2.082 0,0.094 0.531,-2.152 0.531,-2.059 0,0.09 0.531,-2.132 0.531,-2.039 0,0.09 0.535,-2.109 0.535,-2.019 0,0.09 0.532,-2.086 0.532,-1.996 0,0.09 0.535,-2.067 0.535,-1.977 0,0.09 0.531,-2.043 0.531,-1.957 0,0.09 0.531,-2.019 0.531,-1.933 0,0.086 0.535,-2 0.535,-1.914 0,0.085 0.532,-1.985 0.532,-1.899 0,0.086 0.535,-1.961 0.535,-1.875 0,0.086 0.531,-1.941 0.531,-1.859 0,0.086 0.531,-1.922 0.531,-1.836 0,0.082 0.536,-1.906 0.536,-1.821 0,0.083 0.531,-1.886 0.531,-1.804 0,0.082 0.535,-1.867 0.535,-1.785 0,0.082 0.531,-1.848 0.531,-1.766 0,0.078 0.535,-1.832 0.535,-1.75 0,0.078 0.532,-1.812 0.532,-1.734 0,0.078 0.531,-1.793 0.531,-1.715 0,0.078 0.535,-1.778 0.535,-1.699 0,0.078 0.531,-1.762 0.531,-1.684 0,0.078 0.531,-1.742 0.531,-1.668 0,0.078 0.536,-1.727 0.536,-1.652 0,0.078 0.531,-1.707 0.531,-1.633 0,0.074 0.535,-1.695 0.535,-1.621 0,0.074 0.531,-1.68 0.531,-1.606 0,0.075 0.532,-1.66 0.532,-1.59 0,0.075 0.535,-1.648 0.535,-1.574 0,0.071 0.531,-1.633 0.531,-1.562 0,0.07 0.535,-1.617 0.535,-1.547 0,0.07 0.531,-1.602 0.531,-1.531 0,0.07 0.536,-1.586 0.536,-1.516 0,0.066 0.531,-1.574 0.531,-1.508 0,0.07 0.531,-1.555 0.531,-1.488 0,0.066 0.535,-1.543 0.535,-1.477 0,0.067 0.531,-1.531 0.531,-1.465 0,0.067 0.536,-1.515 0.536,-1.453 0,0.067 0.531,-1.5 0.531,-1.437 0,0.062 0.531,-1.488 0.531,-1.426 0,0.063 0.535,-1.473 0.535,-1.414 0,0.066 0.531,-1.461 0.531,-1.398 0,0.062 0.536,-1.45 0.536,-1.387 0,0.058 0.531,-1.438 0.531,-1.379 0,0.062 0.531,-1.422 0.531,-1.363 0,0.058 0.535,-1.41 0.535,-1.352 0,0.059 0.532,-1.398 0.532,-1.344 0,0.059 0.531,-1.386 0.531,-1.328 0,0.059 0.535,-1.375 0.535,-1.316 0,0.055 0.531,-1.363 0.531,-1.309 0,0.055 0.535,-1.351 0.535,-1.297 0,0.055 0.532,-1.339 0.532,-1.285 0,0.055 0.535,-1.328 0.535,-1.273 0,0.054 0.531,-1.317 0.531,-1.262 0,0.051 0.531,-1.309 0.531,-1.254 0,0.051 0.535,-1.297 0.535,-1.246 0,0.051 0.532,-1.281 0.532,-1.23 0,0.05 0.535,-1.274 0.535,-1.223 0,0.047 0.531,-1.262 0.531,-1.215 0,0.051 0.531,-1.25 0.531,-1.203 0,0.051 0.535,-1.238 0.535,-1.191 0,0.046 0.532,-1.231 0.532,-1.184 0,0.047 0.535,-1.219 0.535,-1.172 0,0.043 0.531,-1.211 0.531,-1.168 0,0.047 0.531,-1.199 0.531,-1.156 0,0.047 0.536,-1.188 0.536,-1.145 0,0.043 0.531,-1.179 0.531,-1.136 0,0.043 0.535,-1.168 0.535,-1.129 0,0.043 0.531,-1.16 0.531,-1.117 0,0.039 0.531,-1.153 0.531,-1.114 0,0.043 0.536,-1.14 0.536,-1.101 0,0.039 0.531,-1.129 0.531,-1.094 0,0.039 0.535,-1.121 0.535,-1.082 0,0.035 0.531,-1.117 0.531,-1.078 0,0.035 0.532,-1.106 0.532,-1.071 0,0.036 0.535,-1.093 0.535,-1.058 0,0.035 0.531,-1.086 0.531,-1.051 0,0.031 0.535,-1.078 0.535,-1.047 0,0.035 0.531,-1.07 0.531,-1.035 0,0.031 0.532,-1.062 0.532,-1.027 0,0.031 0.535,-1.055 0.535,-1.024 0,0.032 0.531,-1.043 0.531,-1.011 0,0.027 0.535,-1.036 0.535,-1.008 0,0.031 0.531,-1.024 0.531,-0.996 0,0.027 0.532,-1.02 0.532,-0.993 0,0.028 0.535,-1.011 0.535,-0.984 0,0.027 0.531,-1 0.531,-0.976 0,0.027 0.535,-0.993 0.535,-0.969 0,0.027 0.531,-0.989 0.531,-0.961 0,0.023 0.532,-0.981 0.532,-0.957 0,0.023 0.535,-0.969 0.535,-0.949 0,0.023 0.531,-0.961 0.531,-0.942 0,0.024 0.535,-0.953 0.535,-0.933 0,0.019 0.532,-0.95 0.532,-0.93 0,0.023 0.531,-0.942 0.531,-0.922 0,0.02 0.535,-0.934 0.535,-0.914 0,0.019 0.531,-0.926 0.531,-0.906 0,0.015 0.535,-0.922 0.535,-0.907 0,0.02 0.532,-0.91 0.532,-0.894 0,0.016 0.531,-0.902 0.531,-0.891 0,0.016 0.535,-0.894 0.535,-0.883 0,0.016 0.531,-0.89 0.531,-0.875 0,0.012 0.535,-0.886 0.535,-0.871 0,0.012 0.532,-0.879 0.532,-0.867 0,0.012 0.531,-0.871 0.531,-0.859 0,0.012 0.535,-0.863 0.535,-0.852 0,0.008 0.531,-0.859 0.531,-0.847 0,0.007 0.535,-0.852 0.535,-0.844 0,0.008 0.532,-0.844 0.532,-0.836 0,0.008 0.531,-0.836 0.531,-0.832 0,0.008 0.535,-0.828 0.535,-0.824 0,0.007 0.531,-0.825 0.531,-0.817 0,0.004 0.536,-0.82 0.536,-0.816 0,0.004 0.531,-0.813 0.531,-0.809 0,0.004 0.531,-0.804 0.531,-0.801 l 0.535,-0.8 c 0,0.004 0.531,-0.793 0.531,-0.789 l 0.536,-0.789 0.531,-0.782 0.531,-0.777 c 0,-0.004 0.535,-0.77 0.535,-0.773 0,0 0.531,-0.762 0.531,-0.766 0,-0.004 0.536,-0.758 0.536,-0.762 0,-0.004 0.531,-0.754 0.531,-0.758 0,-0.004 0.531,-0.746 0.531,-0.754 0,-0.003 0.535,-0.742 0.535,-0.746 0,-0.007 0.532,-0.734 0.532,-0.742 0,-0.008 0.535,-0.73 0.535,-0.738 0,-0.008 0.531,-0.727 0.531,-0.734 0,-0.008 0.531,-0.719 0.531,-0.727 0,-0.012 0.535,-0.715 0.535,-0.727 0,-0.007 0.532,-0.707 0.532,-0.718 0,-0.012 0.535,-0.703 0.535,-0.715 0,-0.012 0.531,-0.695 0.531,-0.711 0,-0.012 0.531,-0.692 0.531,-0.707 0,-0.012 0.535,-0.684 0.535,-0.699 0,-0.016 0.532,-0.684 0.532,-0.7 0,-0.015 0.535,-0.675 0.535,-0.691 0,-0.016 0.531,-0.672 0.531,-0.687 0,-0.02 0.531,-0.668 0.531,-0.688 0,-0.016 0.535,-0.66 0.535,-0.68 0,-0.019 0.532,-0.656 0.532,-0.675 0,-0.02 0.535,-0.653 0.535,-0.672 0,-0.02 0.531,-0.649 0.531,-0.668 0,-0.02 0.531,-0.641 0.531,-0.664 0,-0.024 0.536,-0.637 0.536,-0.661 0,-0.023 0.531,-0.632 0.531,-0.656 0,-0.023 0.535,-0.629 0.535,-0.652 0,-0.024 0.531,-0.621 0.531,-0.649 0,-0.023 0.531,-0.617 0.531,-0.644 0,-0.027 0.536,-0.613 0.536,-0.641 0,-0.027 0.531,-0.609 0.531,-0.636 0,-0.028 0.535,-0.606 0.535,-0.633 0,-0.028 0.531,-0.602 0.531,-0.629 0,-0.031 0.532,-0.598 0.532,-0.625 0,-0.031 0.535,-0.59 0.535,-0.621 0,-0.031 0.531,-0.59 0.531,-0.621 0,-0.032 0.535,-0.582 0.535,-0.614 0,-0.031 0.531,-0.578 0.531,-0.613 0,-0.031 0.532,-0.57 0.532,-0.605 0,-0.036 0.535,-0.571 0.535,-0.606 0,-0.035 0.531,-0.562 0.531,-0.597 0,-0.04 0.535,-0.563 0.535,-0.598 0,-0.039 0.531,-0.559 0.531,-0.594 0,-0.039 0.532,-0.555 0.532,-0.594 0,-0.035 0.535,-0.547 0.535,-0.586 0,-0.039 0.531,-0.543 0.531,-0.582 0,-0.043 0.535,-0.543 0.535,-0.582 0,-0.039 0.531,-0.535 0.531,-0.578 0,-0.039 0.532,-0.531 0.532,-0.574 0,-0.039 0.535,-0.527 0.535,-0.57 0,-0.043 0.531,-0.524 0.531,-0.567 0,-0.043 0.535,-0.519 0.535,-0.566 0,-0.043 0.532,-0.516 0.532,-0.559 0,-0.047 0.531,-0.511 0.531,-0.558 0,-0.047 0.535,-0.508 0.535,-0.555 0,-0.047 0.531,-0.504 0.531,-0.555 0,-0.047 0.535,-0.5 0.535,-0.547 0,-0.05 0.532,-0.496 0.532,-0.546 0,-0.051 0.531,-0.493 0.531,-0.543 0,-0.051 0.535,-0.489 0.535,-0.539 0,-0.051 0.531,-0.489 0.531,-0.54 0,-0.05 0.535,-0.48 0.535,-0.535 0,-0.05 0.532,-0.476 0.532,-0.527 0,-0.055 0.531,-0.477 0.531,-0.531 0,-0.055 0.535,-0.469 0.535,-0.524 0,-0.054 0.531,-0.468 0.531,-0.523 0,-0.055 0.535,-0.465 0.535,-0.52 0,-0.058 0.532,-0.461 0.532,-0.519 0,-0.055 0.531,-0.457 0.531,-0.516 0,-0.055 0.535,-0.449 0.535,-0.508 0,-0.058 0.531,-0.453 0.531,-0.511 0,-0.059 0.536,-0.446 0.536,-0.504 0,-0.063 0.531,-0.446 0.531,-0.504 0,-0.063 0.531,-0.442 0.531,-0.504 0,-0.059 0.535,-0.434 0.535,-0.496 0,-0.063 0.531,-0.434 0.531,-0.496 0,-0.063 0.536,-0.43 0.536,-0.492 0,-0.067 0.531,-0.43 0.531,-0.493 0,-0.066 0.531,-0.422 0.531,-0.488 0,-0.066 0.535,-0.418 0.535,-0.484 0,-0.067 0.531,-0.418 0.531,-0.485 0,-0.066 0.536,-0.414 0.536,-0.48 0,-0.07 0.531,-0.41 0.531,-0.481 0,-0.066 0.531,-0.406 0.531,-0.472 0,-0.071 0.535,-0.407 0.535,-0.473 0,-0.07 0.532,-0.402 0.532,-0.473 0,-0.07 0.535,-0.398 0.535,-0.468 0,-0.071 0.531,-0.395 0.531,-0.465 0,-0.074 0.531,-0.391 0.531,-0.465 0,-0.074 0.535,-0.387 0.535,-0.461 0,-0.074 0.532,-0.387 0.532,-0.461 0,-0.074 0.535,-0.383 0.535,-0.457 0,-0.074 0.531,-0.379 0.531,-0.453 0,-0.078 0.531,-0.375 0.531,-0.453 0,-0.074 0.535,-0.371 0.535,-0.449 0,-0.079 0.532,-0.371 0.532,-0.45 0,-0.078 0.535,-0.367 0.535,-0.445 0,-0.078 0.531,-0.363 0.531,-0.441 0,-0.082 0.531,-0.364 0.531,-0.442 0,-0.082 0.535,-0.359 0.535,-0.441 0,-0.078 0.532,-0.356 0.532,-0.434 0,-0.082 0.535,-0.355 0.535,-0.437 0,-0.082 0.531,-0.348 0.531,-0.434 0,-0.082 0.531,-0.344 0.531,-0.43 0,-0.082 0.536,-0.343 0.536,-0.425 0,-0.086 0.531,-0.344 0.531,-0.43 0,-0.082 0.535,-0.336 0.535,-0.422 0,-0.086 0.531,-0.336 0.531,-0.422 0,-0.09 0.531,-0.336 0.531,-0.422 0,-0.086 0.536,-0.328 0.536,-0.418 0,-0.089 0.531,-0.328 0.531,-0.418 0,-0.085 0.535,-0.324 0.535,-0.414 0,-0.089 0.531,-0.32 0.531,-0.41 0,-0.09 0.532,-0.32 0.532,-0.41 0,-0.09 0.535,-0.316 0.535,-0.41 0,-0.09 0.531,-0.313 0.531,-0.406 0,-0.09 0.535,-0.313 0.535,-0.403 0,-0.093 0.531,-0.308 0.531,-0.402 0,-0.094 0.532,-0.309 0.532,-0.402 0,-0.094 0.535,-0.305 0.535,-0.399 0,-0.094 0.531,-0.301 0.531,-0.398 0,-0.094 0.535,-0.297 0.535,-0.395 0,-0.097 0.531,-0.297 0.531,-0.394 0,-0.098 0.532,-0.293 0.532,-0.391 0,-0.098 0.535,-0.293 0.535,-0.391 0,-0.097 0.531,-0.289 0.531,-0.386 0,-0.098 0.535,-0.285 0.535,-0.387 0,-0.098 0.531,-0.285 0.531,-0.383 0,-0.101 0.532,-0.281 0.532,-0.383 0,-0.101 0.535,-0.281 0.535,-0.382 0,-0.098 0.531,-0.274 0.531,-0.379 0,-0.102 0.535,-0.274 0.535,-0.375 0,-0.106 0.532,-0.274 0.532,-0.375 0,-0.106 0.531,-0.27 0.531,-0.375 0,-0.106 0.535,-0.27 0.535,-0.371 0,-0.106 0.531,-0.266 0.531,-0.372 0,-0.105 0.535,-0.265 0.535,-0.371 0,-0.105 0.532,-0.257 0.532,-0.367 0,-0.105 0.531,-0.258 0.531,-0.363 0,-0.109 0.535,-0.258 0.535,-0.363 0,-0.11 0.531,-0.258 0.531,-0.364 0,-0.109 0.535,-0.254 0.535,-0.363 0,-0.105 0.532,-0.25 0.532,-0.359 0,-0.11 0.531,-0.246 0.531,-0.356 0,-0.109 0.535,-0.246 0.535,-0.355 0,-0.11 0.531,-0.246 0.531,-0.356 0,-0.109 0.535,-0.242 0.535,-0.351 0,-0.114 0.532,-0.239 0.532,-0.352 0,-0.113 0.531,-0.238 0.531,-0.351 0,-0.114 0.535,-0.235 0.535,-0.348 0,-0.113 0.531,-0.231 0.531,-0.348 0,-0.113 0.536,-0.23 0.536,-0.343 0,-0.114 0.531,-0.227 0.531,-0.344 0,-0.117 0.531,-0.227 0.531,-0.344 0,-0.113 0.535,-0.223 0.535,-0.34 0,-0.117 0.531,-0.222 0.531,-0.34 0,-0.117 0.536,-0.218 0.536,-0.336 0,-0.117 0.531,-0.218 0.531,-0.336 0,-0.117 0.531,-0.214 0.531,-0.335 0,-0.118 0.535,-0.215 0.535,-0.332 0,-0.122 0.531,-0.215 0.531,-0.333 0,-0.121 0.536,-0.21 0.536,-0.332 0,-0.121 0.531,-0.207 0.531,-0.328 0,-0.121 0.531,-0.207 0.531,-0.328 0,-0.121 0.535,-0.203 0.535,-0.328 0,-0.121 0.532,-0.199 0.532,-0.324 0,-0.121 0.535,-0.199 0.535,-0.324 0,-0.121 0.531,-0.196 0.531,-0.321 0,-0.125 0.531,-0.195 0.531,-0.32 0,-0.125 0.535,-0.195 0.535,-0.32 0,-0.125 0.532,-0.196 0.532,-0.321 0,-0.125 0.535,-0.191 0.535,-0.316 0,-0.125 0.531,-0.188 0.531,-0.316 0,-0.125 0.531,-0.184 0.531,-0.313 0,-0.125 0.535,-0.184 0.535,-0.312 0,-0.129 0.532,-0.184 0.532,-0.313 0,-0.129 0.535,-0.184 0.535,-0.309 0,-0.128 0.531,-0.183 0.531,-0.312 0,-0.129 0.531,-0.176 0.531,-0.305 0,-0.129 0.535,-0.179 0.535,-0.308 0,-0.129 0.532,-0.176 0.532,-0.305 0,-0.129 0.535,-0.172 0.535,-0.305 0,-0.129 0.531,-0.172 0.531,-0.3 0,-0.133 0.531,-0.172 0.531,-0.305 0,-0.129 0.536,-0.168 0.536,-0.297 0,-0.133 0.531,-0.168 0.531,-0.301 0,-0.133 0.535,-0.164 0.535,-0.297 0,-0.132 0.531,-0.164 0.531,-0.297 0,-0.136 0.535,-0.164 0.535,-0.296 0,-0.133 0.532,-0.161 0.532,-0.293 0,-0.137 0.531,-0.161 0.531,-0.293 0,-0.137 0.535,-0.157 0.535,-0.293 0,-0.137 0.531,-0.157 0.531,-0.293 0,-0.133 0.535,-0.153 0.535,-0.289 0,-0.137 0.532,-0.153 0.532,-0.289 0,-0.137 0.531,-0.149 0.531,-0.286 0,-0.136 0.535,-0.148 0.535,-0.285 0,-0.14 0.531,-0.148 0.531,-0.285 0,-0.141 0.532,-0.148 0.532,-0.285 0,-0.141 0.535,-0.145 0.535,-0.285 0,-0.137 0.531,-0.141 0.531,-0.281 0,-0.137 0.535,-0.141 0.535,-0.282 0,-0.136 0.531,-0.136 0.531,-0.277 0,-0.141 0.532,-0.137 0.532,-0.277 0,-0.141 0.535,-0.137 0.535,-0.278 0,-0.144 0.531,-0.136 0.531,-0.277 0,-0.141 0.535,-0.133 0.535,-0.277 0,-0.141 0.531,-0.129 0.531,-0.274 0,-0.14 0.536,-0.129 0.536,-0.273 0,-0.141 0.531,-0.129 0.531,-0.27 0,-0.144 0.531,-0.129 0.531,-0.273 0,-0.141 0.535,-0.125 0.535,-0.27 0,-0.144 0.532,-0.125 0.532,-0.269 0,-0.145 0.535,-0.121 0.535,-0.266 0,-0.144 0.531,-0.125 0.531,-0.269 0,-0.145 0.531,-0.122 0.531,-0.266 0,-0.145 0.535,-0.117 0.535,-0.262 0,-0.148 0.532,-0.121 0.532,-0.265 0,-0.145 0.535,-0.118 0.535,-0.262 0,-0.149 0.531,-0.117 0.531,-0.262 0,-0.148 0.531,-0.113 0.531,-0.262 0,-0.148 0.535,-0.113 0.535,-0.261 0,-0.145 0.532,-0.11 0.532,-0.258 0,-0.149 0.531,-0.11 0.531,-0.258 0,-0.148 0.535,-0.109 0.535,-0.258 0,-0.144 0.531,-0.105 0.531,-0.254 0,-0.148 0.535,-0.105 0.535,-0.254 0,-0.148 0.532,-0.105 0.532,-0.253 0,-0.153 0.531,-0.106 0.531,-0.254 0,-0.149 0.535,-0.102 0.535,-0.254 0,-0.149 0.531,-0.102 0.531,-0.25 0,-0.149 0.536,-0.102 0.536,-0.25 0,-0.153 0.531,-0.098 0.531,-0.25 0,-0.149 0.531,-0.098 0.531,-0.25 0,-0.149 0.535,-0.094 0.535,-0.246 0,-0.153 0.531,-0.094 0.531,-0.246 0,-0.153 0.536,-0.094 0.536,-0.247 0,-0.152 0.531,-0.093 0.531,-0.246 0,-0.152 0.535,-0.09 0.535,-0.242 0,-0.152 0.531,-0.09 0.531,-0.242 0,-0.152 0.531,-0.09 0.531,-0.242 0,-0.153 0.536,-0.09 0.536,-0.242 0,-0.153 0.531,-0.086 0.531,-0.239 0,-0.156 0.535,-0.086 0.535,-0.242 0,-0.152 0.531,-0.082 0.531,-0.238 0,-0.153 0.532,-0.082 0.532,-0.238 0,-0.153 0.535,-0.082 0.535,-0.235 0,-0.156 0.531,-0.082 0.531,-0.238 0,-0.152 0.531,-0.078 0.531,-0.234 0,-0.157 0.535,-0.079 0.535,-0.235 0,-0.156 0.532,-0.078 0.532,-0.234 0,-0.156 0.535,-0.078 0.535,-0.231 0,-0.156 0.531,-0.078 0.531,-0.234 0,-0.152 0.531,-0.074 0.531,-0.231 0,-0.156 0.535,-0.074 0.535,-0.23 0,-0.156 0.532,-0.07 0.532,-0.227 0,-0.156 0.535,-0.074 0.535,-0.23 0,-0.156 0.531,-0.07 0.531,-0.227 0,-0.156 0.535,-0.07 0.535,-0.226 0,-0.156 0.531,-0.07 0.531,-0.227 0,-0.156 0.532,-0.07 0.532,-0.226 0,-0.157 0.535,-0.067 0.535,-0.223 0,-0.16 0.531,-0.066 0.531,-0.227 0,-0.156 0.535,-0.062 0.535,-0.222 0,-0.156 0.532,-0.063 0.532,-0.223 0,-0.156 0.531,-0.062 0.531,-0.219 0,-0.16 0.535,-0.062 0.535,-0.222 0,-0.156 0.531,-0.063 0.531,-0.219 0,-0.16 0.535,-0.062 0.535,-0.219 0,-0.16 0.532,-0.062 0.532,-0.218 0,-0.161 0.531,-0.059 0.531,-0.219 0,-0.156 0.535,-0.059 0.535,-0.215 0,-0.16 0.531,-0.059 0.531,-0.219 0,-0.156 0.535,-0.055 0.535,-0.215 0,-0.16 0.532,-0.054 0.532,-0.215 0,-0.16 0.531,-0.054 0.531,-0.214 0,-0.157 0.535,-0.051 0.535,-0.211 0,-0.16 0.531,-0.055 0.531,-0.215 0,-0.156 0.535,-0.051 0.535,-0.211 0,-0.16 0.532,-0.051 0.532,-0.211 0,-0.16 0.531,-0.051 0.531,-0.211 0,-0.16 0.535,-0.047 0.535,-0.207 0,-0.16 0.531,-0.051 0.531,-0.211 0,-0.16 0.536,-0.047 0.536,-0.207 0,-0.16 0.531,-0.047 0.531,-0.207 0,-0.16 0.531,-0.047 0.531,-0.207 0,-0.16 0.535,-0.047 0.535,-0.207 0,-0.16 0.531,-0.043 0.531,-0.203 0,-0.16 0.536,-0.047 0.536,-0.207 0,-0.16 0.531,-0.043 0.531,-0.203 0,-0.16 0.531,-0.043 0.531,-0.203 0,-0.161 0.535,-0.043 0.535,-0.204 0,-0.16 0.532,-0.043 0.532,-0.203 0,-0.16 0.535,-0.039 0.535,-0.199 0,-0.16 0.531,-0.039 0.531,-0.199 0,-0.164 0.531,-0.043 0.531,-0.203 0,-0.16 0.535,-0.039 0.535,-0.199 0,-0.161 0.532,-0.036 0.532,-0.196 0,-0.164 0.535,-0.039 0.535,-0.199 0,-0.16 0.531,-0.039 0.531,-0.199 0,-0.16 0.531,-0.035 0.531,-0.196 0,-0.16 0.535,-0.035 0.535,-0.195 0,-0.16 0.532,-0.035 0.532,-0.195 0,-0.16 0.535,-0.035 0.535,-0.195 0,-0.161 0.531,-0.036 0.531,-0.196 0,-0.16 0.531,-0.031 0.531,-0.191 0,-0.16 0.535,-0.031 0.535,-0.196 0,-0.16 0.532,-0.031 0.532,-0.191 0,-0.16 0.535,-0.031 0.535,-0.191 0,-0.16 0.531,-0.032 0.531,-0.192 0,-0.16 0.531,-0.027 0.531,-0.187 0,-0.164 0.536,-0.031 0.536,-0.192 0,-0.16 0.531,-0.027 0.531,-0.191 0,-0.16 0.535,-0.027 0.535,-0.188 0,-0.16 0.531,-0.027 0.531,-0.187 0,-0.16 0.531,-0.027 0.531,-0.188 0,-0.16 0.536,-0.027 0.536,-0.187 0,-0.16 0.531,-0.023 0.531,-0.184 0,-0.16 0.535,-0.027 0.535,-0.187 0,-0.16 0.531,-0.024 0.531,-0.184 0,-0.16 0.531,-0.023 0.531,-0.183 0,-0.16 0.536,-0.024 0.536,-0.184 0,-0.16 0.531,-0.023 0.531,-0.184 0,-0.16 0.535,-0.023 0.535,-0.183 0,-0.16 0.531,-0.024 0.531,-0.184 0,-0.16 0.532,-0.019 0.532,-0.179 0,-0.161 0.535,-0.02 0.535,-0.18 0,-0.16 0.531,-0.024 0.531,-0.18 0,-0.16 0.535,-0.023 0.535,-0.179 0,-0.161 0.531,-0.024 0.531,-0.18 0,-0.16 0.532,-0.02 0.532,-0.18 0,-0.16 0.535,-0.019 0.535,-0.18 0,-0.156 0.531,-0.015 0.531,-0.175 0,-0.16 0.535,-0.02 0.535,-0.176 0,-0.16 0.531,-0.02 0.531,-0.176 0,-0.16 0.532,-0.019 0.532,-0.176 0,-0.16 0.535,-0.019 0.535,-0.175 0,-0.161 0.531,-0.02 0.531,-0.176 0,-0.16 0.535,-0.016 0.535,-0.176 0,-0.156 0.531,-0.016 0.531,-0.172 0,-0.16 0.532,-0.015 0.532,-0.176 0,-0.156 0.535,-0.011 0.535,-0.172 0,-0.156 0.531,-0.011 0.531,-0.171 0,-0.157 0.535,-0.012 0.535,-0.172 0,-0.157 0.532,-0.012 0.532,-0.168 0,-0.16 0.531,-0.016 0.531,-0.172 0,-0.156 0.535,-0.012 0.535,-0.168 0,-0.16 0.531,-0.016 0.531,-0.172 0,-0.156 0.535,-0.012 0.535,-0.168 0,-0.156 0.532,-0.012 0.532,-0.168 0,-0.156 0.531,-0.012 0.531,-0.168 0,-0.156 0.535,-0.012 0.535,-0.168 0,-0.156 0.531,-0.012 0.531,-0.168 0,-0.156 0.535,-0.012 0.535,-0.164 0,-0.156 0.532,-0.012 0.532,-0.168 0,-0.156 0.531,-0.012 0.531,-0.164 0,-0.156 0.535,-0.012 0.535,-0.164 0,-0.156 0.531,-0.012 0.531,-0.164 0,-0.156 0.535,-0.012 0.535,-0.168 0,-0.152 0.532,-0.008 0.532,-0.16 0,-0.156 0.531,-0.012 0.531,-0.164 0,-0.153 0.535,-0.008 0.535,-0.164 0,-0.153 0.531,-0.008 0.531,-0.16 0,-0.153 0.536,-0.008 0.536,-0.161 0,-0.156 0.531,-0.011 0.531,-0.164 0,-0.152 0.531,-0.007 0.531,-0.16 0,-0.152 0.535,-0.008 0.535,-0.16 0,-0.152 0.531,-0.008 0.531,-0.16 0,-0.149 0.536,-0.004 0.536,-0.156 0,-0.153 0.531,-0.008 0.531,-0.161 0,-0.152 0.531,-0.007 0.531,-0.156 0,-0.152 0.535,-0.008 0.535,-0.16 0,-0.148 0.532,-0.004 0.532,-0.156 0,-0.149 0.535,-0.008 0.535,-0.156 0,-0.149 0.531,-0.008 0.531,-0.157 0,-0.148 0.531,-0.007 0.531,-0.156 0,-0.148 0.535,-0.008 0.535,-0.156 0,-0.149 0.532,-0.004 0.532,-0.153 0,-0.148 0.535,-0.007 0.535,-0.156 0,-0.148 0.531,-0.004 0.531,-0.152 0,-0.149 0.531,-0.008 0.531,-0.156 0,-0.149 0.535,-0.004 0.535,-0.153 0,-0.148 0.532,-0.004 0.532,-0.152 0,-0.148 0.535,-0.004 0.535,-0.152 0,-0.149 0.531,-0.004 0.531,-0.153 0,-0.144 0.531,-0.004 0.531,-0.152 0,-0.145 0.535,-0.004 0.535,-0.149 0,-0.144 0.532,-0.003 0.532,-0.152 0,-0.144 0.535,-0.004 0.535,-0.148 0,-0.145 0.531,-0.004 0.531,-0.149 0,-0.144 0.531,-0.008 0.531,-0.152 0,-0.145 0.536,-0.004 0.536,-0.149 0,-0.144 0.531,-0.003 0.531,-0.148 0,-0.141 0.535,-0.004 0.535,-0.144 0,-0.145 0.531,-0.008 0.531,-0.149 0,-0.144 0.531,-0.004 0.531,-0.148 0,-0.141 0.536,-0.004 0.536,-0.149 0,-0.14 0.531,-0.004 0.531,-0.144 0,-0.141 0.535,-0.004 0.535,-0.145 0,-0.14 0.531,-0.004 0.531,-0.144 0,-0.145 0.531,-0.008 0.531,-0.149 0,-0.14 0.536,-0.004 0.536,-0.144 0,-0.137 0.531,-0.004 0.531,-0.145 0,-0.137 0.535,-0.004 0.535,-0.141 0,-0.14 0.531,-0.007 0.531,-0.144 0,-0.141 0.532,-0.004 0.532,-0.145 0,-0.136 0.535,-0.003 0.535,-0.14 0,-0.137 0.531,-0.004 0.531,-0.145 0,-0.136 0.535,-0.004 0.535,-0.14 0,-0.137 0.531,-0.004 0.531,-0.141 0,-0.137 0.532,-0.004 0.532,-0.141 0,-0.136 0.535,-0.004 0.535,-0.14 0,-0.137 0.531,-0.004 0.531,-0.141 0,-0.137 0.535,-0.004 0.535,-0.14 0,-0.133 0.531,-0.004 0.531,-0.141 0,-0.133 0.532,-0.004 0.532,-0.137 0,-0.133 0.535,-0.004 0.535,-0.14 0,-0.133 0.531,-0.004 0.531,-0.137 0,-0.133 0.535,-0.004 0.535,-0.137 0,-0.133 0.531,-0.008 0.531,-0.141 0,-0.128 0.532,-0.003 0.532,-0.136 0,-0.129 0.535,-0.004 0.535,-0.137 0,-0.129 0.531,-0.004 0.531,-0.137 0,-0.129 0.535,-0.004 0.535,-0.132 0,-0.133 0.532,-0.008 0.532,-0.137 0,-0.129 0.531,-0.008 0.531,-0.137 0,-0.129 0.535,-0.004 0.535,-0.133 0,-0.129 0.531,-0.008 0.531,-0.136 0,-0.129 0.535,-0.004 0.535,-0.133 0,-0.129 0.532,-0.008 0.532,-0.133 0,-0.129 0.531,-0.008 0.531,-0.137 0,-0.125 0.535,-0.004 0.535,-0.133 0,-0.125 0.531,-0.004 0.531,-0.132 0,-0.125 0.535,-0.008 0.535,-0.133 0,-0.125 0.532,-0.004 0.532,-0.129 0,-0.125 0.531,-0.008 0.531,-0.133 0,-0.125 0.535,-0.008 0.535,-0.133 0,-0.121 0.531,-0.008 0.531,-0.129 0,-0.125 0.535,-0.007 0.535,-0.132 0,-0.122 0.532,-0.008 0.532,-0.129 0,-0.121 0.535,-0.008 0.535,-0.129 0,-0.121 0.531,-0.008 0.531,-0.129 0,-0.121 0.531,-0.012 0.531,-0.133 0,-0.117 0.536,-0.008 0.536,-0.125 0,-0.121 0.531,-0.012 0.531,-0.129 0,-0.121 0.535,-0.012 0.535,-0.129 0,-0.121 0.531,-0.012 0.531,-0.129 0,-0.117 0.531,-0.008 0.531,-0.129 0,-0.117 0.536,-0.007 0.536,-0.125 0,-0.117 0.531,-0.011 0.531,-0.129 0,-0.113 0.531,-0.007 0.531,-0.125 0,-0.117 0.535,-0.011 0.535,-0.125 0,-0.117 0.532,-0.011 0.532,-0.125 0,-0.117 0.535,-0.011 0.535,-0.128 0,-0.114 0.531,-0.012 0.531,-0.125 0,-0.114 0.531,-0.012 0.531,-0.125 0,-0.11 0.535,-0.012 0.535,-0.125 0,-0.11 0.532,-0.012 0.532,-0.122 0,-0.113 0.535,-0.015 0.535,-0.125 0,-0.109 0.531,-0.011 0.531,-0.125 0,-0.109 0.531,-0.011 0.531,-0.121 0,-0.109 0.535,-0.015 0.535,-0.125 0,-0.109 0.532,-0.011 0.532,-0.121 0,-0.109 0.535,-0.015 0.535,-0.121 0,-0.109 0.531,-0.015 0.531,-0.125 0,-0.105 0.535,-0.012 0.535,-0.121 0,-0.105 0.531,-0.012 0.531,-0.121 0,-0.105 0.532,-0.016 0.532,-0.121 0,-0.106 0.535,-0.016 0.535,-0.121 0,-0.106 0.531,-0.016 0.531,-0.117 0,-0.106 0.531,-0.02 0.531,-0.121 0,-0.106 0.536,-0.016 0.536,-0.122 0,-0.101 0.531,-0.015 0.531,-0.117 0,-0.105 0.535,-0.019 0.535,-0.121 0,-0.101 0.531,-0.015 0.531,-0.117 0,-0.102 0.535,-0.02 0.535,-0.121 0,-0.102 0.532,-0.016 0.532,-0.117 0,-0.102 0.531,-0.02 0.531,-0.118 0,-0.101 0.535,-0.019 0.535,-0.117 0,-0.101 0.531,-0.019 0.531,-0.117 0,-0.101 0.531,-0.023 0.531,-0.117 0,-0.098 0.536,-0.024 0.536,-0.117 0,-0.098 0.531,-0.024 0.531,-0.117 0,-0.098 0.535,-0.02 0.535,-0.118 0,-0.093 0.531,-0.019 0.531,-0.113 0,-0.098 0.532,-0.023 0.532,-0.117 0,-0.094 0.535,-0.024 0.535,-0.113 0,-0.094 0.531,-0.024 0.531,-0.118 0,-0.093 0.535,-0.023 0.535,-0.113 0,-0.094 0.531,-0.023 0.531,-0.117 0,-0.09 0.532,-0.023 0.532,-0.113 0,-0.09 0.535,-0.024 0.535,-0.114 0,-0.089 0.531,-0.023 0.531,-0.113 0,-0.09 0.535,-0.027 0.535,-0.113 0,-0.09 0.531,-0.028 0.531,-0.113 0,-0.09 0.532,-0.024 0.532,-0.114 0,-0.086 0.535,-0.027 0.535,-0.113 0,-0.086 0.531,-0.023 0.531,-0.109 0,-0.086 0.535,-0.028 0.535,-0.114 0,-0.086 0.531,-0.027 0.531,-0.113 0,-0.082 0.536,-0.027 0.536,-0.109 0,-0.086 0.531,-0.028 0.531,-0.114 0,-0.082 0.531,-0.027 0.531,-0.109 0,-0.082 0.535,-0.027 0.535,-0.109 0,-0.082 0.532,-0.032 0.532,-0.11 0,-0.082 0.535,-0.031 0.535,-0.113 0,-0.078 0.531,-0.027 0.531,-0.109 0,-0.079 0.531,-0.032 0.531,-0.11 0,-0.078 0.535,-0.031 0.535,-0.109 0,-0.074 0.532,-0.031 0.532,-0.106 0,-0.078 0.535,-0.035 0.535,-0.109 0,-0.078 0.531,-0.035 0.531,-0.109 0,-0.075 0.531,-0.032 0.531,-0.11 0,-0.074 0.535,-0.031 0.535,-0.105 0,-0.074 0.532,-0.035 0.532,-0.11 0,-0.074 0.531,-0.035 0.531,-0.105 0,-0.074 0.535,-0.035 0.535,-0.109 0,-0.071 0.531,-0.036 0.531,-0.106 0,-0.07 0.535,-0.035 0.535,-0.105 0,-0.071 0.532,-0.039 0.532,-0.11 0,-0.066 0.535,-0.035 0.535,-0.105 0,-0.067 0.531,-0.035 0.531,-0.106 0,-0.066 0.531,-0.035 0.531,-0.105 0,-0.067 0.536,-0.035 0.536,-0.106 0,-0.066 0.531,-0.039 0.531,-0.105 0,-0.066 0.535,-0.039 0.535,-0.102 0,-0.066 0.531,-0.043 0.531,-0.105 0,-0.067 0.531,-0.039 0.531,-0.106 0,-0.062 0.536,-0.039 0.536,-0.101 0,-0.067 0.531,-0.043 0.531,-0.106 0,-0.062 0.535,-0.043 0.535,-0.101 0,-0.063 0.531,-0.043 0.531,-0.106 0,-0.058 0.532,-0.043 0.532,-0.101 0,-0.063 0.535,-0.043 0.535,-0.106 0,-0.058 0.531,-0.043 0.531,-0.101 0,-0.059 0.535,-0.043 0.535,-0.102 0,-0.058 0.531,-0.047 0.531,-0.101 0,-0.059 0.532,-0.047 0.532,-0.102 0,-0.059 0.535,-0.047 0.535,-0.101 0,-0.055 0.531,-0.047 0.531,-0.102 0,-0.055 0.531,-0.047 0.531,-0.102 0,-0.054 0.535,-0.046 0.535,-0.101 0,-0.051 0.532,-0.047 0.532,-0.102 0,-0.051 0.535,-0.047 0.535,-0.097 0,-0.051 0.531,-0.051 0.531,-0.102 0,-0.051 0.535,-0.051 0.535,-0.102 0,-0.046 0.531,-0.046 0.531,-0.097 0,-0.051 0.532,-0.051 0.532,-0.098 0,-0.051 0.535,-0.055 0.535,-0.101 0,-0.047 0.531,-0.051 0.531,-0.098 0,-0.047 0.535,-0.055 0.535,-0.098 0,-0.047 0.532,-0.054 0.532,-0.101 0,-0.043 0.531,-0.051 0.531,-0.098" /><path
         id="path182"
         style="fill:none;stroke:#000000;stroke-width:8;stroke-linecap:butt;stroke-linejoin:miter;stroke-miterlimit:10;stroke-dasharray:none;stroke-opacity:1"
         d="m 371.801,58.9297 c 0,-0.1172 -0.528,3.2383 -0.528,3.1211 0,-0.1172 -0.527,3.1953 -0.527,3.082 0,-0.1172 -0.523,3.1563 -0.523,3.043 0,-0.1172 -0.528,3.1172 -0.528,3.0039 0,-0.1133 -0.527,3.082 -0.527,2.9687 0,-0.1132 -0.527,3.043 -0.527,2.9297 0,-0.1133 -0.528,3.0039 -0.528,2.8946 0,-0.1133 -0.527,2.9687 -0.527,2.8554 0,-0.1093 -0.527,2.9375 -0.527,2.8242 0,-0.1093 -0.528,2.9024 -0.528,2.7891 0,-0.1094 -0.527,2.8672 -0.527,2.7578 0,-0.1094 -0.527,2.8321 -0.527,2.7227 0,-0.1094 -0.528,2.8008 -0.528,2.6914 0,-0.1094 -0.523,2.7656 -0.523,2.6562 0,-0.1054 -0.528,2.7385 -0.528,2.6285 0,-0.105 -0.527,2.704 -0.527,2.598 0,-0.105 -0.527,2.672 -0.527,2.567 0,-0.106 -0.528,2.644 -0.528,2.539 0,-0.106 -0.527,2.609 -0.527,2.507 0,-0.105 -0.527,2.582 -0.527,2.477 0,-0.102 -0.528,2.555 -0.528,2.453 0,-0.101 -0.527,2.527 -0.527,2.426 0,-0.106 -0.527,2.496 -0.527,2.394 0,-0.101 -0.524,2.469 -0.524,2.371 0,-0.101 -0.527,2.442 -0.527,2.344 0,-0.101 -0.527,2.414 -0.527,2.317 0,-0.102 -0.528,2.39 -0.528,2.293 0,-0.102 -0.527,2.363 -0.527,2.265 0,-0.097 -0.527,2.34 -0.527,2.242 0,-0.097 -0.528,2.317 -0.528,2.219 0,-0.097 -0.527,2.289 -0.527,2.195 0,-0.097 -0.527,2.266 -0.527,2.172 0,-0.097 -0.528,2.243 -0.528,2.145 0,-0.094 -0.527,2.223 -0.527,2.125 0,-0.094 -0.524,2.199 -0.524,2.105 0,-0.093 -0.527,2.172 -0.527,2.082 0,-0.093 -0.527,2.149 -0.527,2.059 0,-0.094 -0.528,2.129 -0.528,2.035 0,-0.09 -0.527,2.11 -0.527,2.02 0,-0.09 -0.527,2.086 -0.527,1.996 0,-0.09 -0.528,2.062 -0.528,1.976 0,-0.09 -0.527,2.043 -0.527,1.953 0,-0.085 -0.527,2.024 -0.527,1.938 0,-0.086 -0.528,2.004 -0.528,1.918 0,-0.09 -0.523,1.98 -0.523,1.894 0,-0.082 -0.527,1.965 -0.527,1.879 0,-0.082 -0.528,1.946 -0.528,1.864 0,-0.086 -0.527,1.925 -0.527,1.839 0,-0.082 -0.528,1.907 -0.528,1.825 0,-0.082 -0.527,1.886 -0.527,1.804 0,-0.082 -0.527,1.871 -0.527,1.789 0,-0.082 -0.528,1.852 -0.528,1.774 0,-0.082 -0.527,1.832 -0.527,1.754 0,-0.082 -0.527,1.816 -0.527,1.738 0,-0.082 -0.524,1.797 -0.524,1.719 0,-0.078 -0.527,1.781 -0.527,1.707 0,-0.078 -0.527,1.765 -0.527,1.687 0,-0.078 -0.528,1.75 -0.528,1.672 0,-0.074 -0.527,1.735 -0.527,1.656 0,-0.074 -0.527,1.719 -0.527,1.645 0,-0.078 -0.528,1.699 -0.528,1.625 0,-0.074 -0.527,1.684 -0.527,1.613 0,-0.074 -0.527,1.668 -0.527,1.594 0,-0.07 -0.528,1.656 -0.528,1.582 0,-0.07 -0.527,1.641 -0.527,1.57 0,-0.07 -0.524,1.621 -0.524,1.555 0,-0.07 -0.527,1.606 -0.527,1.539 0,-0.07 -0.527,1.594 -0.527,1.524 0,-0.067 -0.528,1.582 -0.528,1.515 0,-0.07 -0.527,1.563 -0.527,1.496 0,-0.066 -0.527,1.555 -0.527,1.489 0,-0.067 -0.528,1.535 -0.528,1.472 0,-0.066 -0.527,1.524 -0.527,1.457 0,-0.062 -0.527,1.512 -0.527,1.449 0,-0.066 -0.528,1.497 -0.528,1.434 0,-0.062 -0.527,1.484 -0.527,1.422 0,-0.063 -0.523,1.469 -0.523,1.41 0,-0.062 -0.528,1.457 -0.528,1.395 0,-0.059 -0.527,1.449 -0.527,1.386 0,-0.058 -0.527,1.434 -0.527,1.375 0,-0.058 -0.528,1.422 -0.528,1.364 0,-0.059 -0.527,1.406 -0.527,1.351 0,-0.058 -0.527,1.395 -0.527,1.34 0,-0.059 -0.528,1.383 -0.528,1.328 0,-0.058 -0.527,1.371 -0.527,1.317 0,-0.055 -0.528,1.359 -0.528,1.304 0,-0.054 -0.523,1.348 -0.523,1.297 0,-0.055 -0.527,1.336 -0.527,1.285 0,-0.054 -0.528,1.325 -0.528,1.274 0,-0.051 -0.527,1.312 -0.527,1.265 0,-0.05 -0.527,1.301 -0.527,1.25 0,-0.047 -0.528,1.293 -0.528,1.246 0,-0.05 -0.527,1.282 -0.527,1.235 0,-0.051 -0.527,1.269 -0.527,1.222 0,-0.046 -0.528,1.258 -0.528,1.215 0,-0.047 -0.527,1.246 -0.527,1.203 0,-0.046 -0.527,1.239 -0.527,1.196 0,-0.047 -0.524,1.226 -0.524,1.183 0,-0.043 -0.527,1.219 -0.527,1.176 0,-0.043 -0.528,1.211 -0.528,1.168 0,-0.043 -0.527,1.199 -0.527,1.156 0,-0.043 -0.527,1.188 -0.527,1.149 0,-0.039 -0.528,1.179 -0.528,1.14 0,-0.039 -0.527,1.168 -0.527,1.129 0,-0.039 -0.527,1.16 -0.527,1.125 0,-0.039 -0.528,1.149 -0.528,1.114 0,-0.039 -0.527,1.14 -0.527,1.105 0,-0.039 -0.523,1.129 -0.523,1.094 0,-0.035 -0.528,1.125 -0.528,1.09 0,-0.035 -0.527,1.113 -0.527,1.078 0,-0.031 -0.527,1.105 -0.527,1.074 0,-0.031 -0.528,1.094 -0.528,1.063 0,-0.032 -0.527,1.089 -0.527,1.058 0,-0.031 -0.527,1.078 -0.527,1.047 0,-0.031 -0.528,1.07 -0.528,1.039 0,-0.027 -0.527,1.063 -0.527,1.035 0,-0.031 -0.527,1.051 -0.527,1.024 0,-0.028 -0.524,1.047 -0.524,1.019 0,-0.027 -0.527,1.035 -0.527,1.008 0,-0.023 -0.528,1.031 -0.528,1.004 0,-0.024 -0.527,1.019 -0.527,0.996 0,-0.023 -0.527,1.012 -0.527,0.988 0,-0.023 -0.528,1.004 -0.528,0.981 0,-0.02 -0.527,1 -0.527,0.976 0,-0.023 -0.527,0.989 -0.527,0.969 0,-0.023 -0.528,0.981 -0.528,0.957 0,-0.019 -0.527,0.977 -0.527,0.957 0,-0.019 -0.527,0.965 -0.527,0.945 0,-0.019 -0.524,0.957 -0.524,0.942 0,-0.02 -0.527,0.949 -0.527,0.933 0,-0.015 -0.527,0.942 -0.527,0.926 0,-0.015 -0.528,0.938 -0.528,0.922 0,-0.016 -0.527,0.93 -0.527,0.914 0,-0.015 -0.527,0.922 -0.527,0.906 0,-0.011 -0.528,0.914 -0.528,0.903 0,-0.012 -0.527,0.91 -0.527,0.898 0,-0.012 -0.528,0.899 -0.528,0.887 0,-0.008 -0.527,0.894 -0.527,0.883 0,-0.008 -0.523,0.886 -0.523,0.879 0,-0.008 -0.528,0.879 -0.528,0.871 0,-0.008 -0.527,0.875 -0.527,0.867 0,-0.008 -0.527,0.867 -0.527,0.859 0,-0.008 -0.528,0.86 -0.528,0.852 0,-0.004 -0.527,0.855 -0.527,0.851 0,-0.007 -0.527,0.844 -0.527,0.84 0,-0.004 -0.528,0.84 -0.528,0.84 0,-0.004 -0.527,0.832 -0.527,0.828 l -0.527,0.828 -0.528,0.821 -0.523,0.816 -0.528,0.809 -0.527,0.804 c 0,0.004 -0.527,0.797 -0.527,0.801 0,0.004 -0.528,0.789 -0.528,0.793 0,0.004 -0.527,0.785 -0.527,0.789 0,0.004 -0.527,0.777 -0.527,0.785 0,0.004 -0.528,0.77 -0.528,0.778 0,0.007 -0.527,0.765 -0.527,0.773 0,0.008 -0.527,0.762 -0.527,0.77 0,0.007 -0.524,0.757 -0.524,0.765 0,0.008 -0.527,0.75 -0.527,0.758 0,0.012 -0.527,0.746 -0.527,0.754 0,0.012 -0.528,0.738 -0.528,0.75 0,0.012 -0.527,0.734 -0.527,0.746 0,0.012 -0.527,0.727 -0.527,0.742 0,0.012 -0.528,0.723 -0.528,0.735 0,0.015 -0.527,0.718 -0.527,0.73 0,0.016 -0.527,0.711 -0.527,0.727 0,0.015 -0.528,0.707 -0.528,0.722 0,0.02 -0.527,0.703 -0.527,0.719 0,0.02 -0.524,0.695 -0.524,0.715 0,0.016 -0.527,0.687 -0.527,0.707 0,0.019 -0.527,0.687 -0.527,0.707 0,0.019 -0.528,0.68 -0.528,0.699 0,0.024 -0.527,0.676 -0.527,0.695 0,0.024 -0.527,0.672 -0.527,0.696 0,0.019 -0.528,0.664 -0.528,0.687 0,0.024 -0.527,0.657 -0.527,0.684 0,0.023 -0.527,0.652 -0.527,0.68 0,0.023 -0.528,0.648 -0.528,0.675 0,0.024 -0.523,0.645 -0.523,0.672 0,0.028 -0.527,0.637 -0.527,0.664 0,0.032 -0.528,0.637 -0.528,0.664 0,0.032 -0.527,0.633 -0.527,0.661 0,0.031 -0.527,0.628 -0.527,0.656 0,0.031 -0.528,0.621 -0.528,0.652 0,0.031 -0.527,0.617 -0.527,0.649 0,0.031 -0.528,0.613 -0.528,0.644 0,0.031 -0.527,0.606 -0.527,0.641 0,0.035 -0.527,0.601 -0.527,0.636 0,0.036 -0.528,0.598 -0.528,0.633 0,0.035 -0.523,0.594 -0.523,0.629 0,0.039 -0.527,0.59 -0.527,0.629 0,0.035 -0.528,0.582 -0.528,0.621 0,0.039 -0.527,0.582 -0.527,0.621 0,0.039 -0.527,0.574 -0.527,0.614 0,0.039 -0.528,0.57 -0.528,0.613 0,0.039 -0.527,0.566 -0.527,0.609 0,0.039 -0.527,0.563 -0.527,0.602 0,0.043 -0.528,0.558 -0.528,0.601 0,0.043 -0.527,0.555 -0.527,0.602 0,0.043 -0.524,0.547 -0.524,0.594 0,0.043 -0.527,0.546 -0.527,0.589 0,0.047 -0.527,0.543 -0.527,0.59 0,0.047 -0.528,0.535 -0.528,0.586 0,0.047 -0.527,0.531 -0.527,0.582 0,0.047 -0.527,0.528 -0.527,0.578 0,0.047 -0.528,0.524 -0.528,0.575 0,0.05 -0.527,0.519 -0.527,0.574 0,0.047 -0.527,0.515 -0.527,0.566 0,0.051 -0.528,0.516 -0.528,0.567 0,0.05 -0.527,0.511 -0.527,0.562 0,0.055 -0.523,0.508 -0.523,0.559 0,0.054 -0.528,0.504 -0.528,0.558 0,0.055 -0.527,0.5 -0.527,0.555 0,0.055 -0.527,0.492 -0.527,0.551 0,0.054 -0.528,0.492 -0.528,0.547 0,0.058 -0.527,0.488 -0.527,0.543 0,0.058 -0.527,0.484 -0.527,0.543 0,0.058 -0.528,0.48 -0.528,0.539 0,0.058 -0.527,0.476 -0.527,0.535 0,0.062 -0.527,0.472 -0.527,0.535 0,0.062 -0.524,0.469 -0.524,0.531 0,0.063 -0.527,0.465 -0.527,0.528 0,0.062 -0.528,0.461 -0.528,0.523 0,0.066 -0.527,0.461 -0.527,0.523 0,0.067 -0.527,0.457 -0.527,0.52 0,0.066 -0.528,0.453 -0.528,0.516 0,0.066 -0.527,0.449 -0.527,0.515 0,0.067 -0.527,0.446 -0.527,0.512 0,0.066 -0.528,0.441 -0.528,0.508 0,0.07 -0.527,0.437 -0.527,0.508 0,0.066 -0.523,0.433 -0.523,0.503 0,0.071 -0.528,0.43 -0.528,0.5 0,0.071 -0.527,0.426 -0.527,0.497 0,0.074 -0.527,0.425 -0.527,0.496 0,0.074 -0.528,0.422 -0.528,0.496 0,0.07 -0.527,0.418 -0.527,0.488 0,0.074 -0.528,0.414 -0.528,0.488 0,0.078 -0.527,0.414 -0.527,0.489 0,0.074 -0.527,0.406 -0.527,0.484 0,0.074 -0.528,0.402 -0.528,0.48 0,0.075 -0.527,0.399 -0.527,0.477 0,0.078 -0.523,0.398 -0.523,0.477 0,0.078 -0.528,0.394 -0.528,0.472 0,0.082 -0.527,0.395 -0.527,0.473 0,0.078 -0.527,0.391 -0.527,0.469 0,0.082 -0.528,0.386 -0.528,0.468 0,0.079 -0.527,0.383 -0.527,0.461 0,0.086 -0.527,0.383 -0.527,0.465 0,0.082 -0.528,0.375 -0.528,0.461 0,0.082 -0.527,0.371 -0.527,0.457 0,0.082 -0.527,0.371 -0.527,0.453 0,0.086 -0.524,0.367 -0.524,0.453 0,0.086 -0.527,0.368 -0.527,0.454 0,0.085 -0.528,0.359 -0.528,0.449 0,0.086 -0.527,0.355 -0.527,0.445 0,0.09 -0.527,0.356 -0.527,0.445 0,0.086 -0.528,0.352 -0.528,0.442 0,0.09 -0.527,0.347 -0.527,0.441 0,0.09 -0.527,0.344 -0.527,0.438 0,0.09 -0.528,0.343 -0.528,0.433 0,0.094 -0.527,0.344 -0.527,0.434 0,0.094 -0.527,0.34 -0.527,0.433 0,0.094 -0.524,0.336 -0.524,0.43 0,0.094 -0.527,0.332 -0.527,0.426 0,0.098 -0.527,0.332 -0.527,0.426 0,0.097 -0.528,0.328 -0.528,0.425 0,0.094 -0.527,0.325 -0.527,0.422 0,0.094 -0.527,0.321 -0.527,0.418 0,0.098 -0.528,0.321 -0.528,0.418 0,0.098 -0.527,0.317 -0.527,0.418 0,0.098 -0.527,0.313 -0.527,0.41 0,0.102 -0.528,0.313 -0.528,0.414 0,0.098 -0.523,0.309 -0.523,0.411 0,0.101 -0.528,0.304 -0.528,0.406 0,0.101 -0.527,0.305 -0.527,0.406 0,0.102 -0.527,0.301 -0.527,0.406 0,0.102 -0.528,0.297 -0.528,0.403 0,0.101 -0.527,0.297 -0.527,0.398 0,0.106 -0.527,0.293 -0.527,0.399 0,0.105 -0.528,0.293 -0.528,0.398 0,0.106 -0.527,0.289 -0.527,0.395 0,0.105 -0.527,0.285 -0.527,0.394 0,0.106 -0.528,0.281 -0.528,0.391 0,0.109 -0.523,0.281 -0.523,0.39 0,0.11 -0.527,0.278 -0.527,0.387 0,0.109 -0.528,0.277 -0.528,0.387 0,0.109 -0.527,0.273 -0.527,0.383 0,0.113 -0.528,0.273 -0.528,0.382 0,0.114 -0.527,0.27 -0.527,0.383 0,0.114 -0.527,0.266 -0.527,0.379 0,0.113 -0.528,0.266 -0.528,0.379 0,0.113 -0.527,0.262 -0.527,0.375 0,0.113 -0.527,0.262 -0.527,0.375 0,0.113 -0.524,0.258 -0.524,0.371 0,0.117 -0.527,0.258 -0.527,0.371 0,0.117 -0.527,0.254 -0.527,0.371 0,0.114 -0.528,0.25 -0.528,0.368 0,0.117 -0.527,0.25 -0.527,0.367 0,0.117 -0.527,0.246 -0.527,0.363 0,0.117 -0.528,0.242 -0.528,0.363 0,0.117 -0.527,0.242 -0.527,0.36 0,0.121 -0.527,0.242 -0.527,0.359 0,0.121 -0.528,0.238 -0.528,0.359 0,0.121 -0.523,0.235 -0.523,0.356 0,0.121 -0.528,0.234 -0.528,0.355 0,0.121 -0.527,0.231 -0.527,0.356 0,0.121 -0.527,0.226 -0.527,0.351 0,0.121 -0.528,0.227 -0.528,0.352 0,0.121 -0.527,0.223 -0.527,0.348 0,0.125 -0.527,0.222 -0.527,0.347 0,0.125 -0.528,0.223 -0.528,0.348 0,0.121 -0.527,0.219 -0.527,0.344 0,0.125 -0.527,0.214 -0.527,0.343 0,0.125 -0.528,0.215 -0.528,0.34 0,0.129 -0.523,0.215 -0.523,0.34 0,0.129 -0.527,0.211 -0.527,0.34 0,0.129 -0.528,0.207 -0.528,0.336 0,0.129 -0.527,0.207 -0.527,0.336 0,0.129 -0.527,0.207 -0.527,0.336 0,0.129 -0.528,0.203 -0.528,0.332 0,0.129 -0.527,0.203 -0.527,0.332 0,0.129 -0.527,0.199 -0.527,0.332 0,0.129 -0.528,0.195 -0.528,0.328 0,0.133 -0.527,0.195 -0.527,0.328 0,0.129 -0.528,0.191 -0.528,0.324 0,0.133 -0.523,0.192 -0.523,0.325 0,0.132 -0.527,0.191 -0.527,0.324 0,0.133 -0.528,0.187 -0.528,0.324 0,0.133 -0.527,0.184 -0.527,0.32 0,0.133 -0.527,0.184 -0.527,0.321 0,0.132 -0.528,0.179 -0.528,0.316 0,0.137 -0.527,0.18 -0.527,0.316 0,0.137 -0.527,0.18 -0.527,0.317 0,0.137 -0.528,0.176 -0.528,0.316 0,0.137 -0.527,0.172 -0.527,0.313 0,0.136 -0.523,0.172 -0.523,0.308 0,0.141 -0.528,0.172 -0.528,0.313 0,0.14 -0.527,0.172 -0.527,0.308 0,0.141 -0.528,0.168 -0.528,0.309 0,0.141 -0.527,0.168 -0.527,0.305 0,0.14 -0.527,0.168 -0.527,0.308 0,0.141 -0.528,0.16 -0.528,0.305 0,0.141 -0.527,0.16 -0.527,0.301 0,0.14 -0.527,0.16 -0.527,0.304 0,0.141 -0.528,0.157 -0.528,0.301 0,0.141 -0.527,0.156 -0.527,0.297 0,0.145 -0.523,0.156 -0.523,0.301 0,0.14 -0.528,0.152 -0.528,0.297 0,0.144 -0.527,0.152 -0.527,0.293 0,0.144 -0.527,0.152 -0.527,0.297 0,0.144 -0.528,0.148 -0.528,0.293 0,0.144 -0.527,0.148 -0.527,0.293 0,0.144 -0.527,0.144 -0.527,0.292 0,0.145 -0.528,0.141 -0.528,0.29 0,0.144 -0.527,0.14 -0.527,0.289 0,0.148 -0.527,0.14 -0.527,0.289 0,0.144 -0.524,0.136 -0.524,0.285 0,0.148 -0.527,0.137 -0.527,0.285 0,0.148 -0.528,0.137 -0.528,0.285 0,0.149 -0.527,0.137 -0.527,0.285 0,0.149 -0.527,0.133 -0.527,0.282 0,0.148 -0.528,0.132 -0.528,0.281 0,0.148 -0.527,0.129 -0.527,0.281 0,0.148 -0.527,0.129 -0.527,0.277 0,0.153 -0.528,0.129 -0.528,0.278 0,0.152 -0.527,0.129 -0.527,0.277 0,0.152 -0.523,0.125 -0.523,0.277 0,0.153 -0.528,0.122 -0.528,0.274 0,0.152 -0.527,0.121 -0.527,0.273 0,0.157 -0.527,0.121 -0.527,0.274 0,0.152 -0.528,0.121 -0.528,0.273 0,0.153 -0.527,0.117 -0.527,0.27 0,0.152 -0.527,0.117 -0.527,0.269 0,0.156 -0.528,0.117 -0.528,0.27 0,0.152 -0.527,0.113 -0.527,0.269 0,0.153 -0.528,0.11 -0.528,0.266 0,0.156 -0.527,0.109 -0.527,0.266 0,0.156 -0.523,0.109 -0.523,0.265 0,0.156 -0.528,0.106 -0.528,0.262 0,0.156 -0.527,0.109 -0.527,0.266 0,0.152 -0.527,0.105 -0.527,0.261 0,0.156 -0.528,0.102 -0.528,0.258 0,0.156 -0.527,0.106 -0.527,0.262 0,0.156 -0.527,0.101 -0.527,0.258 0,0.156 -0.528,0.101 -0.528,0.257 0,0.157 -0.527,0.098 -0.527,0.258 0,0.156 -0.527,0.098 -0.527,0.254 0,0.16 -0.524,0.098 -0.524,0.258 0,0.156 -0.527,0.094 -0.527,0.254 0,0.16 -0.528,0.094 -0.528,0.254 0,0.156 -0.527,0.09 -0.527,0.25 0,0.16 -0.527,0.093 -0.527,0.254 0,0.16 -0.528,0.089 -0.528,0.25 0,0.16 -0.527,0.089 -0.527,0.25 0,0.16 -0.527,0.086 -0.527,0.246 0,0.16 -0.528,0.09 -0.528,0.25 0,0.16 -0.527,0.086 -0.527,0.246 0,0.16 -0.527,0.086 -0.527,0.246 0,0.16 -0.524,0.082 -0.524,0.246 0,0.16 -0.527,0.082 -0.527,0.242 0,0.164 -0.527,0.082 -0.527,0.246 0,0.16 -0.528,0.078 -0.528,0.242 0,0.161 -0.527,0.079 -0.527,0.239 0,0.164 -0.527,0.082 -0.527,0.242 0,0.164 -0.528,0.078 -0.528,0.242 0,0.16 -0.527,0.074 -0.527,0.238 0,0.161 -0.527,0.075 -0.527,0.239 0,0.16 -0.528,0.074 -0.528,0.238 0,0.16 -0.523,0.07 -0.523,0.234 0,0.164 -0.528,0.071 -0.528,0.235 0,0.164 -0.527,0.074 -0.527,0.234 0,0.168 -0.527,0.07 -0.527,0.234 0,0.165 -0.528,0.071 -0.528,0.235 0,0.164 -0.527,0.07 -0.527,0.234 0,0.164 -0.527,0.067 -0.527,0.231 0,0.164 -0.528,0.066 -0.528,0.23 0,0.164 -0.527,0.067 -0.527,0.231 0,0.164 -0.527,0.062 -0.527,0.23 0,0.164 -0.524,0.063 -0.524,0.227 0,0.164 -0.527,0.062 -0.527,0.226 0,0.168 -0.527,0.063 -0.527,0.227 0,0.168 -0.528,0.062 -0.528,0.226 0,0.168 -0.527,0.059 -0.527,0.227 0,0.164 -0.527,0.059 -0.527,0.223 0,0.168 -0.528,0.058 -0.528,0.226 0,0.164 -0.527,0.055 -0.527,0.223 0,0.164 -0.528,0.054 -0.528,0.222 0,0.165 -0.527,0.055 -0.527,0.219 0,0.168 -0.527,0.055 -0.527,0.223 0,0.164 -0.524,0.051 -0.524,0.219 0,0.168 -0.527,0.054 -0.527,0.218 0,0.168 -0.527,0.051 -0.527,0.219 0,0.168 -0.528,0.051 -0.528,0.219 0,0.164 -0.527,0.051 -0.527,0.215 0,0.168 -0.527,0.05 -0.527,0.218 0,0.165 -0.528,0.047 -0.528,0.215 0,0.164 -0.527,0.047 -0.527,0.215 0,0.164 -0.527,0.047 -0.527,0.215 0,0.164 -0.528,0.043 -0.528,0.211 0,0.168 -0.523,0.047 -0.523,0.215 0,0.164 -0.528,0.043 -0.528,0.211 0,0.168 -0.527,0.043 -0.527,0.211 0,0.168 -0.527,0.043 -0.527,0.211 0,0.168 -0.528,0.043 -0.528,0.211 0,0.164 -0.527,0.039 -0.527,0.207 0,0.168 -0.527,0.043 -0.527,0.207 0,0.168 -0.528,0.043 -0.528,0.211 0,0.164 -0.527,0.039 -0.527,0.203 0,0.168 -0.527,0.039 -0.527,0.207 0,0.168 -0.528,0.039 -0.528,0.207 0,0.168 -0.523,0.039 -0.523,0.203 0,0.168 -0.527,0.039 -0.527,0.207 0,0.168 -0.528,0.035 -0.528,0.203 0,0.168 -0.527,0.035 -0.527,0.203 0,0.168 -0.527,0.035 -0.527,0.203 0,0.168 -0.528,0.031 -0.528,0.199 0,0.168 -0.527,0.036 -0.527,0.204 0,0.168 -0.527,0.031 -0.527,0.199 0,0.168 -0.528,0.031 -0.528,0.199 0,0.168 -0.527,0.031 -0.527,0.199 0,0.168 -0.524,0.031 -0.524,0.199 0,0.168 -0.527,0.032 -0.527,0.196 0,0.168 -0.527,0.031 -0.527,0.199 0,0.168 -0.528,0.027 -0.528,0.195 0,0.168 -0.527,0.032 -0.527,0.196 0,0.168 -0.527,0.031 -0.527,0.195 0,0.168 -0.528,0.027 -0.528,0.195 0,0.168 -0.527,0.028 -0.527,0.196 0,0.168 -0.527,0.027 -0.527,0.191 0,0.168 -0.528,0.027 -0.528,0.195 0,0.164 -0.527,0.024 -0.527,0.192 0,0.168 -0.523,0.023 -0.523,0.191 0,0.168 -0.528,0.024 -0.528,0.191 0,0.165 -0.527,0.024 -0.527,0.188 0,0.168 -0.527,0.023 -0.527,0.191 0,0.168 -0.528,0.024 -0.528,0.188 0,0.168 -0.527,0.023 -0.527,0.191 0,0.164 -0.528,0.02 -0.528,0.188 0,0.164 -0.527,0.019 -0.527,0.187 0,0.164 -0.527,0.02 -0.527,0.188 0,0.164 -0.528,0.019 -0.528,0.183 0,0.168 -0.523,0.02 -0.523,0.188 0,0.164 -0.527,0.019 -0.527,0.183 0,0.165 -0.528,0.02 -0.528,0.184 0,0.168 -0.527,0.02 -0.527,0.184 0,0.168 -0.527,0.019 -0.527,0.183 0,0.168 -0.528,0.02 -0.528,0.184 0,0.164 -0.527,0.015 -0.527,0.183 0,0.165 -0.527,0.016 -0.527,0.18 0,0.164 -0.528,0.016 -0.528,0.18 0,0.164 -0.527,0.019 -0.527,0.183 0,0.164 -0.527,0.016 -0.527,0.18 0,0.164 -0.524,0.016 -0.524,0.18 0,0.164 -0.527,0.012 -0.527,0.176 0,0.164 -0.528,0.015 -0.528,0.179 0,0.164 -0.527,0.016 -0.527,0.18 0,0.16 -0.527,0.012 -0.527,0.176 0,0.164 -0.528,0.011 -0.528,0.176 0,0.164 -0.527,0.015 -0.527,0.175 0,0.164 -0.527,0.016 -0.527,0.176 0,0.164 -0.528,0.012 -0.528,0.176 0,0.16 -0.527,0.012 -0.527,0.172 0,0.164 -0.523,0.015 -0.523,0.176 0,0.16 -0.528,0.011 -0.528,0.171 0,0.164 -0.527,0.012 -0.527,0.176 0,0.16 -0.527,0.012 -0.527,0.172 0,0.16 -0.528,0.012 -0.528,0.172 0,0.16 -0.527,0.012 -0.527,0.172 0,0.16 -0.527,0.008 -0.527,0.168 0,0.164 -0.528,0.011 -0.528,0.172 0,0.16 -0.527,0.007 -0.527,0.168 0,0.16 -0.527,0.011 -0.527,0.171 0,0.161 -0.528,0.008 -0.528,0.168 0,0.161 -0.5233,0.008 -0.5233,0.168 0,0.161 -0.5273,0.008 -0.5273,0.168 0,0.161 -0.5274,0.008 -0.5274,0.168 0,0.157 -0.5273,0.008 -0.5273,0.168 0,0.157 -0.5274,0.008 -0.5274,0.164 0,0.157 -0.5273,0.008 -0.5273,0.168 0,0.157 -0.5273,0.008 -0.5273,0.164 0,0.157 -0.5274,0.008 -0.5274,0.164 0,0.157 -0.5273,0.008 -0.5273,0.165 0,0.156 -0.5274,0.007 -0.5274,0.164 0,0.156 -0.5234,0.007 -0.5234,0.164 0,0.156 -0.5274,0.007 -0.5274,0.164 0,0.156 -0.5273,0.004 -0.5273,0.16 0,0.156 -0.5273,0.008 -0.5273,0.164 0,0.152 -0.5274,0.004 -0.5274,0.16 0,0.156 -0.5273,0.008 -0.5273,0.16 0,0.157 -0.5274,0.008 -0.5274,0.16 0,0.157 -0.5273,0.008 -0.5273,0.161 0,0.156 -0.5274,0.007 -0.5274,0.16 0,0.156 -0.5273,0.008 -0.5273,0.16 0,0.152 -0.5234,0.004 -0.5234,0.16 0,0.152 -0.5274,0.004 -0.5274,0.156 0,0.153 -0.5273,0.004 -0.5273,0.157 0,0.152 -0.5274,0.007 -0.5274,0.16 0,0.152 -0.5273,0.004 -0.5273,0.156 0,0.152 -0.5274,0.004 -0.5274,0.156 0,0.153 -0.5273,0.004 -0.5273,0.156 0,0.149 -0.5273,0.004 -0.5273,0.153 0,0.152 -0.5274,0.008 -0.5274,0.156 0,0.152 -0.5273,0.008 -0.5273,0.156 0,0.149 -0.5274,0.004 -0.5274,0.153 0,0.152 -0.5234,0.007 -0.5234,0.156 0,0.148 -0.5274,0.004 -0.5274,0.152 0,0.149 -0.5273,0.004 -0.5273,0.153 0,0.148 -0.5273,0.003 -0.5273,0.152 0,0.148 -0.5274,0.004 -0.5274,0.152 0,0.149 -0.5273,0.004 -0.5273,0.153 0,0.144 -0.5274,0.004 -0.5274,0.152 0,0.144 -0.5273,0.004 -0.5273,0.148 0,0.145 -0.5274,0.004 -0.5274,0.149 0,0.148 -0.5273,0.008 -0.5273,0.152 0,0.145 -0.5234,0.004 -0.5234,0.149 0,0.144 -0.5274,0.004 -0.5274,0.148 0,0.145 -0.5273,0.004 -0.5273,0.148 0,0.145 -0.5274,0.008 -0.5274,0.149 0,0.144 -0.5273,0.008 -0.5273,0.148 0,0.145 -0.5274,0.004 -0.5274,0.149 0,0.14 -0.5273,0.004 -0.5273,0.144 0,0.145 -0.5274,0.008 -0.5274,0.149 0,0.14 -0.5273,0.004 -0.5273,0.144 0,0.141 -0.5273,0.008 -0.5273,0.149 0,0.14 -0.5274,0.004 -0.5274,0.144 0,0.141 -0.5234,0.004 -0.5234,0.145 0,0.14 -0.5274,0.004 -0.5274,0.144 0,0.141 -0.5273,0.004 -0.5273,0.145 0,0.137 -0.5274,0.004 -0.5274,0.144 0,0.137 -0.5273,0.004 -0.5273,0.141 0,0.141 -0.5273,0.008 -0.5273,0.145 0,0.136 -0.5274,0.003 -0.5274,0.14 0,0.137 -0.5273,0.008 -0.5273,0.145 0,0.136 -0.5274,0.004 -0.5274,0.14 0,0.137 -0.5273,0.008 -0.5273,0.141 0,0.137 -0.5235,0.008 -0.5235,0.141 0,0.136 -0.5273,0.007 -0.5273,0.14 0,0.137 -0.5273,0.008 -0.5273,0.141 0,0.137 -0.5274,0.008 -0.5274,0.14 0,0.133 -0.5273,0.008 -0.5273,0.141 0,0.133 -0.5274,0.008 -0.5274,0.141 0,0.129 -0.5273,0.004 -0.5273,0.136 0,0.133 -0.5274,0.008 -0.5274,0.137 0,0.133 -0.5273,0.008 -0.5273,0.141 0,0.129 -0.5273,0.008 -0.5273,0.136 0,0.129 -0.5274,0.008 -0.5274,0.137 0,0.129 -0.5234,0.008 -0.5234,0.137 0,0.129 -0.5274,0.008 -0.5274,0.137 0,0.129 -0.5273,0.007 -0.5273,0.136 0,0.129 -0.5274,0.008 -0.5274,0.137 0,0.125 -0.5273,0.008 -0.5273,0.133 0,0.129 -0.5273,0.012 -0.5273,0.137 0,0.125 -0.5274,0.007 -0.5274,0.132 0,0.125 -0.5273,0.012 -0.5273,0.137 0,0.125 -0.5274,0.008 -0.5274,0.133 0,0.125 -0.5273,0.012 -0.5273,0.133 0,0.125 -0.5235,0.011 -0.5235,0.133 0,0.125 -0.5273,0.011 -0.5273,0.132 0,0.125 -0.5273,0.012 -0.5273,0.133 0,0.121 -0.5274,0.012 -0.5274,0.133 0,0.121 -0.5273,0.012 -0.5273,0.133 0,0.121 -0.5274,0.012 -0.5274,0.129 0,0.121 -0.5273,0.015 -0.5273,0.133 0,0.121 -0.5274,0.011 -0.5274,0.132 0,0.118 -0.5273,0.012 -0.5273,0.129 0,0.117 -0.5274,0.012 -0.5274,0.129 0,0.121 -0.5273,0.016 -0.5273,0.133 0,0.117 -0.5234,0.012 -0.5234,0.129 0,0.113 -0.5274,0.012 -0.5274,0.129 0,0.113 -0.5273,0.012 -0.5273,0.129 0,0.113 -0.5274,0.011 -0.5274,0.129 0,0.113 -0.5273,0.011 -0.5273,0.125 0,0.117 -0.5274,0.015 -0.5274,0.129 0,0.113 -0.5273,0.015 -0.5273,0.128 0,0.114 -0.5273,0.016 -0.5273,0.125 0,0.114 -0.5274,0.016 -0.5274,0.129 0,0.11 -0.5273,0.016 -0.5273,0.125 0,0.11 -0.5235,0.016 -0.5235,0.125 0,0.114 -0.5273,0.02 -0.5273,0.129 0,0.11 -0.5274,0.016 -0.5274,0.125 0,0.11 -0.5273,0.016 -0.5273,0.125 0,0.11 -0.5273,0.016 -0.5273,0.125 0,0.106 -0.5274,0.016 -0.5274,0.125 0,0.106 -0.5273,0.016 -0.5273,0.121 0,0.11 -0.5274,0.02 -0.5274,0.125 0,0.106 -0.5273,0.02 -0.5273,0.125 0,0.106 -0.5274,0.02 -0.5274,0.121 0,0.106 -0.5273,0.02 -0.5273,0.125 0,0.102 -0.5234,0.02 -0.5234,0.122 0,0.101 -0.5274,0.019 -0.5274,0.125 0,0.101 -0.5273,0.019 -0.5273,0.121 0,0.101 -0.5274,0.019 -0.5274,0.121 0,0.101 -0.5273,0.019 -0.5273,0.121 0,0.101 -0.5274,0.023 -0.5274,0.121 0,0.098 -0.5273,0.023 -0.5273,0.121 0,0.098 -0.5273,0.023 -0.5273,0.121 0,0.098 -0.5274,0.024 -0.5274,0.117 0,0.098 -0.5273,0.024 -0.5273,0.121 0,0.098 -0.5235,0.024 -0.5235,0.121 0,0.094 -0.5273,0.024 -0.5273,0.118 0,0.097 -0.5274,0.027 -0.5274,0.121 0,0.093 -0.5273,0.023 -0.5273,0.117 0,0.094 -0.5273,0.027 -0.5273,0.117 0,0.094 -0.5274,0.027 -0.5274,0.121 0,0.09 -0.5273,0.024 -0.5273,0.117 0,0.09 -0.5274,0.028 -0.5274,0.118 0,0.089 -0.5273,0.027 -0.5273,0.117 0,0.09 -0.5274,0.027 -0.5274,0.117 0,0.09 -0.5234,0.027 -0.5234,0.117 0,0.086 -0.5273,0.027 -0.5273,0.113 0,0.09 -0.5274,0.032 -0.5274,0.118 0,0.086 -0.5273,0.031 -0.5273,0.117 0,0.086 -0.5274,0.027 -0.5274,0.113 0,0.086 -0.5273,0.031 -0.5273,0.117 0,0.086 -0.5274,0.032 -0.5274,0.114 0,0.085 -0.5273,0.031 -0.5273,0.113 0,0.086 -0.5274,0.035 -0.5274,0.117 0,0.082 -0.5273,0.031 -0.5273,0.113 0,0.082 -0.5273,0.032 -0.5273,0.114 0,0.082 -0.5235,0.035 -0.5235,0.113 0,0.082 -0.5273,0.035 -0.5273,0.113 0,0.082 -0.5274,0.035 -0.5274,0.113 0,0.079 -0.5273,0.036 -0.5273,0.114 0,0.078 -0.5274,0.035 -0.5274,0.113 0,0.078 -0.5273,0.035 -0.5273,0.109 0,0.078 -0.5273,0.039 -0.5273,0.114 0,0.078 -0.5274,0.035 -0.5274,0.113 0,0.074 -0.5273,0.035 -0.5273,0.109 0,0.075 -0.5274,0.039 -0.5274,0.11 0,0.074 -0.5234,0.039 -0.5234,0.113 0,0.074 -0.5274,0.039 -0.5274,0.109 0,0.075 -0.5273,0.039 -0.5273,0.11 0,0.074 -0.5273,0.039 -0.5273,0.109" /><path
         id="path184"
         style="fill:#ffffff;fill-opacity:1;fill-rule:nonzero;stroke:none"
         d="M 8.07813,962.426 H 104.441 V 865.711 H 8.07813 v 96.715" /><path
         id="path186"
         style="fill:#ffffff;fill-opacity:1;fill-rule:nonzero;stroke:none"
         d="m 1006.53,960.148 h 96.36 v -96.714 h -96.36 v 96.714" /><path
         id="path188"
         style="fill:#ffffff;fill-opacity:1;fill-rule:nonzero;stroke:none"
         d="m 2015.32,957.445 h 96.36 v -96.711 h -96.36 v 96.711" /><path
         id="path190"
         style="fill:#000000;fill-opacity:1;fill-rule:nonzero;stroke:none"
         d="M 43.1719,912.773 H 18.5625 L 14.25,902.742 c -1.0625,-2.469 -1.5937,-4.312 -1.5937,-5.531 0,-0.969 0.4609,-1.82 1.3828,-2.555 0.9218,-0.734 2.914,-1.211 5.9765,-1.429 v -1.735 H 0 v 1.735 c 2.65625,0.468 4.375,1.078 5.15625,1.828 1.59375,1.5 3.35938,4.547 5.29685,9.14 l 22.3594,52.313 h 1.6406 l 22.125,-52.875 c 1.7813,-4.25 3.3985,-7.008 4.8516,-8.274 1.4531,-1.265 3.4766,-1.976 6.0703,-2.132 v -1.735 H 42.4219 v 1.735 c 2.5312,0.125 4.2422,0.546 5.1328,1.265 0.8906,0.719 1.3359,1.594 1.3359,2.625 0,1.375 -0.625,3.547 -1.875,6.516 z m -1.3125,3.469 -10.7813,25.688 -11.0625,-25.688 z" /><path
         id="path192"
         style="fill:#000000;fill-opacity:1;fill-rule:nonzero;stroke:none"
         d="m 70.7813,956.18 v 1.968 c 4.75,-2.343 8.7031,-5.109 11.8593,-8.296 4.4688,-4.563 7.9219,-9.914 10.3594,-16.055 2.4375,-6.141 3.6563,-12.539 3.6563,-19.195 0,-9.688 -2.3829,-18.524 -7.1485,-26.508 C 84.7422,880.109 78.5,874.398 70.7813,870.961 v 1.734 c 3.8437,2.157 7.0078,5.071 9.4921,8.743 2.4844,3.671 4.3282,8.343 5.5313,14.015 1.2031,5.672 1.8047,11.586 1.8047,17.742 0,6.657 -0.5156,12.735 -1.5469,18.235 -0.7812,4.312 -1.7578,7.765 -2.9297,10.359 -1.1719,2.594 -2.7265,5.094 -4.664,7.5 -1.9375,2.406 -4.5,4.703 -7.6875,6.891 v 0" /><path
         id="path194"
         style="fill:#000000;fill-opacity:1;fill-rule:nonzero;stroke:none"
         d="m 1055.97,953.555 0.66,-13.875 h -1.69 c -1,4.5 -2.54,7.355 -4.62,8.574 -2.08,1.223 -5.77,1.832 -11.09,1.832 h -10.68 v -25.172 h 2.53 c 7.78,0 13.5,-0.492 17.15,-1.476 3.66,-0.985 6.64,-2.868 8.93,-5.653 2.3,-2.777 3.45,-6.121 3.45,-10.027 0,-4.719 -1.75,-8.86 -5.25,-12.422 -3.5,-3.566 -9.53,-5.344 -18.09,-5.344 h -26.91 v 1.735 c 3.94,0.121 6.45,0.746 7.55,1.875 1.09,1.125 1.64,3.781 1.64,7.968 v 40.407 c 0,3.218 -0.23,5.39 -0.68,6.511 -0.46,1.125 -1.2,1.926 -2.23,2.395 -1.03,0.469 -2.94,0.781 -5.72,0.937 v 1.735 z m -27.42,-59.766 c 2.75,-0.437 4.89,-0.656 6.42,-0.656 3.84,0 7.32,1.281 10.43,3.844 3.11,2.562 4.66,6.109 4.66,10.64 0,4.688 -1.62,8.164 -4.87,10.43 -3.25,2.266 -7.38,3.398 -12.38,3.398 -1.4,0 -2.83,-0.125 -4.26,-0.379 v -27.277" /><path
         id="path196"
         style="fill:#000000;fill-opacity:1;fill-rule:nonzero;stroke:none"
         d="m 1065.95,954.68 v 1.968 c 4.75,-2.347 8.71,-5.113 11.86,-8.296 4.47,-4.563 7.92,-9.914 10.36,-16.055 2.44,-6.141 3.66,-12.539 3.66,-19.199 0,-9.688 -2.38,-18.52 -7.15,-26.504 -4.77,-7.989 -11.01,-13.696 -18.73,-17.133 v 1.734 c 3.85,2.157 7.01,5.071 9.5,8.739 2.48,3.671 4.32,8.347 5.53,14.019 1.2,5.668 1.8,11.586 1.8,17.738 0,6.661 -0.51,12.735 -1.55,18.239 -0.78,4.312 -1.75,7.765 -2.93,10.355 -1.17,2.598 -2.72,5.098 -4.66,7.5 -1.94,2.41 -4.5,4.707 -7.69,6.895 v 0" /><path
         id="path198"
         style="fill:#000000;fill-opacity:1;fill-rule:nonzero;stroke:none"
         d="m 2055.07,919.582 c 4.4,-0.937 7.7,-2.437 9.89,-4.5 3.03,-2.875 4.54,-6.391 4.54,-10.547 0,-3.156 -1,-6.18 -3,-9.07 -2,-2.891 -4.74,-5 -8.22,-6.328 -3.49,-1.328 -8.81,-1.992 -15.96,-1.992 h -30 v 1.734 h 2.39 c 2.65,0 4.56,0.844 5.72,2.531 0.71,1.094 1.07,3.422 1.07,6.985 v 41.062 c 0,3.938 -0.45,6.422 -1.36,7.453 -1.21,1.375 -3.03,2.063 -5.43,2.063 h -2.39 v 1.734 h 27.47 c 5.12,0 9.23,-0.375 12.32,-1.125 4.69,-1.125 8.27,-3.117 10.74,-5.977 2.47,-2.859 3.7,-6.148 3.7,-9.867 0,-3.187 -0.97,-6.039 -2.91,-8.554 -1.93,-2.516 -4.79,-4.383 -8.57,-5.602 z m -24.57,2.531 c 1.16,-0.218 2.48,-0.383 3.96,-0.492 1.49,-0.109 3.12,-0.164 4.9,-0.164 4.57,0 8,0.492 10.29,1.477 2.3,0.984 4.06,2.492 5.28,4.523 1.21,2.031 1.82,4.25 1.82,6.656 0,3.719 -1.51,6.891 -4.54,9.516 -3.03,2.625 -7.46,3.937 -13.27,3.937 -3.12,0 -5.94,-0.343 -8.44,-1.031 z m 0,-30.375 c 3.63,-0.843 7.21,-1.265 10.74,-1.265 5.65,0 9.97,1.273 12.94,3.82 2.96,2.547 4.45,5.695 4.45,9.445 0,2.469 -0.67,4.844 -2.02,7.125 -1.34,2.282 -3.53,4.078 -6.56,5.391 -3.03,1.312 -6.78,1.969 -11.25,1.969 -1.94,0 -3.59,-0.032 -4.97,-0.094 -1.37,-0.063 -2.48,-0.172 -3.33,-0.328 v -26.063" /><path
         id="path200"
         style="fill:#000000;fill-opacity:1;fill-rule:nonzero;stroke:none"
         d="m 2077,951.832 v 1.969 c 4.75,-2.344 8.71,-5.11 11.86,-8.297 4.47,-4.563 7.93,-9.914 10.36,-16.055 2.44,-6.14 3.66,-12.539 3.66,-19.195 0,-9.688 -2.38,-18.524 -7.15,-26.508 -4.77,-7.984 -11.01,-13.695 -18.73,-17.133 v 1.735 c 3.85,2.156 7.01,5.07 9.5,8.742 2.48,3.672 4.32,8.344 5.53,14.015 1.2,5.672 1.8,11.586 1.8,17.743 0,6.656 -0.51,12.734 -1.54,18.234 -0.79,4.313 -1.76,7.766 -2.93,10.359 -1.18,2.594 -2.73,5.094 -4.67,7.5 -1.94,2.407 -4.5,4.704 -7.69,6.891 v 0" /></g></g></svg>