<?xml version="1.0" encoding="UTF-8" standalone="no"?>
<svg
   xmlns:dc="http://purl.org/dc/elements/1.1/"
   xmlns:cc="http://creativecommons.org/ns#"
   xmlns:rdf="http://www.w3.org/1999/02/22-rdf-syntax-ns#"
   xmlns:svg="http://www.w3.org/2000/svg"
   xmlns="http://www.w3.org/2000/svg"
   viewBox="0 0 387.88 128.49333"
   height="128.49333"
   width="387.88"
   xml:space="preserve"
   id="svg2"
   version="1.1"><metadata
     id="metadata8"><rdf:RDF><cc:Work
         rdf:about=""><dc:format>image/svg+xml</dc:format><dc:type
           rdf:resource="http://purl.org/dc/dcmitype/StillImage" /></cc:Work></rdf:RDF></metadata><defs
     id="defs6" /><g
     transform="matrix(1.3333333,0,0,-1.3333333,0,128.49333)"
     id="g10"><g
       transform="scale(0.1)"
       id="g12"><path
         id="path14"
         style="fill:none;stroke:#000000;stroke-width:3.50079989;stroke-linecap:butt;stroke-linejoin:miter;stroke-miterlimit:10;stroke-dasharray:none;stroke-opacity:1"
         d="M 16.3555,8.09766 H 867.73 V 958.156 H 16.3555 Z" /><path
         id="path16"
         style="fill:none;stroke:#000000;stroke-width:7.5005002;stroke-linecap:butt;stroke-linejoin:miter;stroke-miterlimit:10;stroke-dasharray:none;stroke-opacity:1"
         d="M 15.1719,483.488 H 832.648" /><path
         id="path18"
         style="fill:#000000;fill-opacity:1;fill-rule:evenodd;stroke:none"
         d="m 867.734,483.488 -70.562,30.242 c 10.082,-20.16 10.082,-40.32 0,-60.48 l 70.562,30.238" /><path
         id="path20"
         style="fill:none;stroke:#000000;stroke-width:7.5005002;stroke-linecap:butt;stroke-linejoin:miter;stroke-miterlimit:10;stroke-dasharray:none;stroke-opacity:1"
         d="M 395.051,8.09766 V 921.215" /><path
         id="path22"
         style="fill:#000000;fill-opacity:1;fill-rule:evenodd;stroke:none"
         d="m 395.051,956.676 -30.242,-70.563 c 20.16,10.082 40.32,10.082 60.48,0 l -30.238,70.563" /><path
         id="path24"
         style="fill:#000000;fill-opacity:1;fill-rule:nonzero;stroke:none"
         d="m 341.121,941.488 c 1.063,-1.812 1.797,-3.508 2.203,-5.086 0.406,-1.578 0.813,-4.679 1.219,-9.304 l 2.062,-23.063 c 1.875,2.25 4.594,5.813 8.157,10.688 1.718,2.375 3.843,5.609 6.375,9.703 1.531,2.5 2.468,4.25 2.812,5.25 0.188,0.5 0.281,1.015 0.281,1.547 0,0.343 -0.109,0.625 -0.328,0.843 -0.218,0.219 -0.789,0.477 -1.711,0.774 -0.921,0.297 -1.687,0.844 -2.296,1.64 -0.61,0.797 -0.915,1.711 -0.915,2.743 0,1.281 0.375,2.312 1.125,3.093 0.75,0.782 1.688,1.172 2.813,1.172 1.375,0 2.547,-0.57 3.516,-1.711 0.968,-1.14 1.453,-2.711 1.453,-4.711 0,-2.468 -0.844,-5.289 -2.532,-8.461 -1.687,-3.171 -4.937,-8.039 -9.75,-14.601 -4.812,-6.563 -10.64,-13.719 -17.484,-21.469 -4.719,-5.344 -8.219,-8.711 -10.5,-10.101 -2.281,-1.391 -4.234,-2.086 -5.859,-2.086 -0.969,0 -1.821,0.367 -2.555,1.101 -0.734,0.735 -1.102,1.586 -1.102,2.555 0,1.219 0.508,2.328 1.524,3.328 1.016,1 2.117,1.5 3.305,1.5 0.625,0 1.14,-0.141 1.546,-0.422 0.25,-0.156 0.524,-0.601 0.821,-1.336 0.297,-0.734 0.57,-1.226 0.82,-1.476 0.156,-0.157 0.344,-0.235 0.563,-0.235 0.187,0 0.515,0.157 0.984,0.469 1.719,1.063 3.719,2.75 6,5.063 3,3.062 5.219,5.562 6.656,7.5 l -2.625,29.718 c -0.437,4.907 -1.094,7.891 -1.969,8.953 -0.875,1.063 -2.343,1.594 -4.406,1.594 -0.656,0 -1.828,-0.094 -3.515,-0.281 l -0.422,1.734 13.734,3.375" /><path
         id="path26"
         style="fill:none;stroke:#000000;stroke-width:3.50079989;stroke-linecap:butt;stroke-linejoin:miter;stroke-miterlimit:10;stroke-dasharray:none;stroke-opacity:1"
         d="M 18.4727,861.813 H 867.734" /><path
         id="path28"
         style="fill:none;stroke:#000000;stroke-width:3.50079989;stroke-linecap:butt;stroke-linejoin:miter;stroke-miterlimit:10;stroke-dasharray:none;stroke-opacity:1"
         d="M 17.332,766.93 H 866.594" /><path
         id="path30"
         style="fill:none;stroke:#000000;stroke-width:3.50079989;stroke-linecap:butt;stroke-linejoin:miter;stroke-miterlimit:10;stroke-dasharray:none;stroke-opacity:1"
         d="M 17.332,672.105 H 866.594" /><path
         id="path32"
         style="fill:none;stroke:#000000;stroke-width:3.50079989;stroke-linecap:butt;stroke-linejoin:miter;stroke-miterlimit:10;stroke-dasharray:none;stroke-opacity:1"
         d="M 17.332,577.293 H 866.594" /><path
         id="path34"
         style="fill:none;stroke:#000000;stroke-width:3.50079989;stroke-linecap:butt;stroke-linejoin:miter;stroke-miterlimit:10;stroke-dasharray:none;stroke-opacity:1"
         d="M 18.4727,388.906 H 867.734" /><path
         id="path36"
         style="fill:none;stroke:#000000;stroke-width:3.50079989;stroke-linecap:butt;stroke-linejoin:miter;stroke-miterlimit:10;stroke-dasharray:none;stroke-opacity:1"
         d="M 17.3906,294.32 H 866.652" /><path
         id="path38"
         style="fill:none;stroke:#000000;stroke-width:3.50079989;stroke-linecap:butt;stroke-linejoin:miter;stroke-miterlimit:10;stroke-dasharray:none;stroke-opacity:1"
         d="M 17.3906,199.75 H 866.652" /><path
         id="path40"
         style="fill:none;stroke:#000000;stroke-width:3.50079989;stroke-linecap:butt;stroke-linejoin:miter;stroke-miterlimit:10;stroke-dasharray:none;stroke-opacity:1"
         d="M 17.3906,105.168 H 866.652" /><path
         id="path42"
         style="fill:none;stroke:#000000;stroke-width:3.50079989;stroke-linecap:butt;stroke-linejoin:miter;stroke-miterlimit:10;stroke-dasharray:none;stroke-opacity:1"
         d="M 111.113,6.96875 V 958.148" /><path
         id="path44"
         style="fill:none;stroke:#000000;stroke-width:3.50079989;stroke-linecap:butt;stroke-linejoin:miter;stroke-miterlimit:10;stroke-dasharray:none;stroke-opacity:1"
         d="M 205.785,6.96875 V 958.148" /><path
         id="path46"
         style="fill:none;stroke:#000000;stroke-width:3.50079989;stroke-linecap:butt;stroke-linejoin:miter;stroke-miterlimit:10;stroke-dasharray:none;stroke-opacity:1"
         d="M 300.074,6.96875 V 958.148" /><path
         id="path48"
         style="fill:none;stroke:#000000;stroke-width:3.50079989;stroke-linecap:butt;stroke-linejoin:miter;stroke-miterlimit:10;stroke-dasharray:none;stroke-opacity:1"
         d="M 489.035,6.96875 V 958.148" /><path
         id="path50"
         style="fill:none;stroke:#000000;stroke-width:3.50079989;stroke-linecap:butt;stroke-linejoin:miter;stroke-miterlimit:10;stroke-dasharray:none;stroke-opacity:1"
         d="M 583.328,6.96875 V 958.148" /><path
         id="path52"
         style="fill:none;stroke:#000000;stroke-width:3.50079989;stroke-linecap:butt;stroke-linejoin:miter;stroke-miterlimit:10;stroke-dasharray:none;stroke-opacity:1"
         d="M 678,7.34375 V 958.535" /><path
         id="path54"
         style="fill:none;stroke:#000000;stroke-width:3.50079989;stroke-linecap:butt;stroke-linejoin:miter;stroke-miterlimit:10;stroke-dasharray:none;stroke-opacity:1"
         d="M 772.289,7.34375 V 958.535" /><path
         id="path56"
         style="fill:none;stroke:#000000;stroke-width:10.00059986;stroke-linecap:butt;stroke-linejoin:miter;stroke-miterlimit:10;stroke-dasharray:none;stroke-opacity:1"
         d="M 488.254,503.207 V 465.441" /><path
         id="path58"
         style="fill:none;stroke:#000000;stroke-width:10.00059986;stroke-linecap:butt;stroke-linejoin:miter;stroke-miterlimit:10;stroke-dasharray:none;stroke-opacity:1"
         d="m 376.105,577.293 h 37.758" /><path
         id="path60"
         style="fill:#000000;fill-opacity:1;fill-rule:nonzero;stroke:none"
         d="m 828.676,454.898 c 1.531,-1.625 2.687,-3.25 3.469,-4.875 0.562,-1.125 1.484,-4.078 2.765,-8.859 l 4.125,6.188 c 1.094,1.5 2.422,2.929 3.985,4.289 1.562,1.359 2.937,2.289 4.125,2.789 0.75,0.312 1.578,0.468 2.484,0.468 1.344,0 2.414,-0.359 3.211,-1.078 0.797,-0.718 1.195,-1.593 1.195,-2.625 0,-1.187 -0.234,-2 -0.703,-2.437 -0.875,-0.781 -1.875,-1.172 -3,-1.172 -0.656,0 -1.359,0.141 -2.109,0.422 -1.469,0.5 -2.453,0.75 -2.953,0.75 -0.75,0 -1.641,-0.438 -2.672,-1.313 -1.938,-1.625 -4.25,-4.765 -6.938,-9.422 l 3.844,-16.125 c 0.594,-2.468 1.094,-3.945 1.5,-4.429 0.406,-0.485 0.812,-0.727 1.219,-0.727 0.656,0 1.422,0.36 2.297,1.078 1.718,1.438 3.187,3.313 4.406,5.625 l 1.64,-0.843 c -1.968,-3.688 -4.468,-6.75 -7.5,-9.188 -1.718,-1.375 -3.171,-2.062 -4.359,-2.062 -1.75,0 -3.141,0.984 -4.172,2.953 -0.656,1.218 -2.015,6.468 -4.078,15.75 -4.875,-8.469 -8.781,-13.922 -11.719,-16.36 -1.906,-1.562 -3.75,-2.343 -5.531,-2.343 -1.25,0 -2.391,0.453 -3.422,1.359 -0.75,0.687 -1.125,1.609 -1.125,2.766 0,1.031 0.344,1.89 1.031,2.578 0.688,0.687 1.532,1.031 2.532,1.031 1,0 2.062,-0.5 3.187,-1.5 0.813,-0.719 1.438,-1.078 1.875,-1.078 0.375,0 0.86,0.25 1.453,0.75 1.469,1.187 3.469,3.75 6,7.687 2.532,3.938 4.188,6.782 4.969,8.532 -1.937,7.593 -2.984,11.609 -3.141,12.046 -0.718,2.032 -1.656,3.469 -2.812,4.313 -1.156,0.844 -2.859,1.266 -5.109,1.266 -0.719,0 -1.547,-0.032 -2.485,-0.094 v 1.687 l 12.516,2.203" /><path
         id="path62"
         style="fill:#000000;fill-opacity:1;fill-rule:nonzero;stroke:none"
         d="m 365.887,475.199 c 4.218,0 7.953,-0.914 11.203,-2.742 3.25,-1.828 5.797,-4.531 7.64,-8.109 1.844,-3.578 2.766,-7.289 2.766,-11.133 0,-6.813 -1.976,-13.961 -5.93,-21.445 -3.953,-7.485 -9.117,-13.196 -15.492,-17.133 -6.375,-3.938 -12.969,-5.907 -19.781,-5.907 -4.906,0 -9.008,1.086 -12.305,3.258 -3.297,2.172 -5.734,5.039 -7.312,8.602 -1.578,3.562 -2.367,7.015 -2.367,10.359 0,5.938 1.429,11.805 4.289,17.602 2.859,5.797 6.273,10.64 10.242,14.531 3.969,3.891 8.203,6.883 12.703,8.977 4.5,2.093 9.281,3.14 14.344,3.14 z m -1.594,-3 c -3.125,0 -6.18,-0.773 -9.164,-2.32 -2.984,-1.547 -5.945,-4.078 -8.883,-7.594 -2.937,-3.515 -5.578,-8.117 -7.922,-13.805 -2.875,-7 -4.312,-13.609 -4.312,-19.828 0,-4.437 1.14,-8.367 3.422,-11.789 2.281,-3.422 5.781,-5.133 10.5,-5.133 2.843,0 5.632,0.704 8.367,2.11 2.734,1.406 5.586,3.812 8.554,7.219 3.719,4.281 6.844,9.742 9.375,16.382 2.532,6.641 3.797,12.836 3.797,18.586 0,4.25 -1.14,8.008 -3.422,11.274 -2.281,3.265 -5.718,4.898 -10.312,4.898 v 0" /><path
         id="path64"
         style="fill:#000000;fill-opacity:1;fill-rule:nonzero;stroke:none"
         d="m 342.941,609.992 15.469,7.547 h 1.547 v -53.672 c 0,-3.562 0.148,-5.781 0.445,-6.656 0.297,-0.875 0.914,-1.547 1.852,-2.016 0.937,-0.468 2.844,-0.734 5.719,-0.797 v -1.734 h -23.907 v 1.734 c 3,0.063 4.938,0.321 5.813,0.774 0.875,0.453 1.484,1.062 1.828,1.828 0.344,0.766 0.516,3.055 0.516,6.867 v 34.313 c 0,4.625 -0.157,7.593 -0.469,8.906 -0.219,1 -0.617,1.734 -1.195,2.203 -0.579,0.469 -1.274,0.703 -2.086,0.703 -1.157,0 -2.766,-0.484 -4.828,-1.453 l -0.704,1.453" /><path
         id="path66"
         style="fill:#000000;fill-opacity:1;fill-rule:nonzero;stroke:none"
         d="m 500.754,558.539 15.469,7.547 h 1.547 v -53.672 c 0,-3.562 0.148,-5.781 0.445,-6.652 0.297,-0.875 0.914,-1.551 1.851,-2.02 0.938,-0.469 2.844,-0.73 5.719,-0.793 v -1.734 h -23.906 v 1.734 c 3,0.063 4.937,0.317 5.812,0.774 0.875,0.449 1.485,1.062 1.829,1.828 0.343,0.762 0.515,3.054 0.515,6.863 v 34.316 c 0,4.622 -0.156,7.59 -0.469,8.907 -0.218,0.996 -0.617,1.73 -1.195,2.199 -0.578,0.469 -1.273,0.703 -2.086,0.703 -1.156,0 -2.765,-0.48 -4.828,-1.449 l -0.703,1.449" /><path
         id="path68"
         style="fill:none;stroke:#000000;stroke-width:3.50079989;stroke-linecap:butt;stroke-linejoin:miter;stroke-miterlimit:10;stroke-dasharray:none;stroke-opacity:1"
         d="m 1030.39,6.59766 h 851.38 V 956.656 h -851.38 z" /><path
         id="path70"
         style="fill:none;stroke:#000000;stroke-width:7.5005002;stroke-linecap:butt;stroke-linejoin:miter;stroke-miterlimit:10;stroke-dasharray:none;stroke-opacity:1"
         d="m 1029.21,481.988 h 817.47" /><path
         id="path72"
         style="fill:#000000;fill-opacity:1;fill-rule:evenodd;stroke:none"
         d="m 1881.77,481.988 -70.56,30.242 c 10.08,-20.16 10.08,-40.32 0,-60.48 l 70.56,30.238" /><path
         id="path74"
         style="fill:none;stroke:#000000;stroke-width:7.5005002;stroke-linecap:butt;stroke-linejoin:miter;stroke-miterlimit:10;stroke-dasharray:none;stroke-opacity:1"
         d="M 1409.09,6.59766 V 919.715" /><path
         id="path76"
         style="fill:#000000;fill-opacity:1;fill-rule:evenodd;stroke:none"
         d="M 1407.24,958.629 1377,888.07 c 20.16,10.078 40.32,10.078 60.48,0 l -30.24,70.559" /><path
         id="path78"
         style="fill:#000000;fill-opacity:1;fill-rule:nonzero;stroke:none"
         d="m 1461.78,941.711 c 1.06,-1.813 1.79,-3.508 2.2,-5.086 0.41,-1.578 0.81,-4.68 1.22,-9.305 l 2.06,-23.062 c 1.88,2.25 4.6,5.812 8.16,10.687 1.72,2.375 3.84,5.61 6.37,9.703 1.53,2.5 2.47,4.25 2.82,5.25 0.18,0.5 0.28,1.016 0.28,1.547 0,0.344 -0.11,0.625 -0.33,0.844 -0.22,0.219 -0.79,0.477 -1.71,0.774 -0.92,0.296 -1.69,0.843 -2.3,1.64 -0.61,0.797 -0.91,1.711 -0.91,2.742 0,1.282 0.37,2.313 1.12,3.094 0.75,0.781 1.69,1.172 2.81,1.172 1.38,0 2.55,-0.57 3.52,-1.711 0.97,-1.141 1.45,-2.711 1.45,-4.711 0,-2.469 -0.84,-5.289 -2.53,-8.461 -1.69,-3.172 -4.94,-8.039 -9.75,-14.601 -4.81,-6.563 -10.64,-13.719 -17.48,-21.469 -4.72,-5.344 -8.22,-8.711 -10.5,-10.102 -2.28,-1.39 -4.24,-2.086 -5.86,-2.086 -0.97,0 -1.82,0.368 -2.56,1.102 -0.73,0.734 -1.1,1.586 -1.1,2.555 0,1.218 0.51,2.328 1.53,3.328 1.01,1 2.11,1.5 3.3,1.5 0.62,0 1.14,-0.141 1.55,-0.422 0.25,-0.156 0.52,-0.602 0.82,-1.336 0.29,-0.734 0.57,-1.227 0.82,-1.477 0.15,-0.156 0.34,-0.234 0.56,-0.234 0.19,0 0.52,0.156 0.98,0.469 1.72,1.062 3.72,2.75 6,5.062 3,3.063 5.22,5.563 6.66,7.5 l -2.62,29.719 c -0.44,4.906 -1.1,7.891 -1.97,8.953 -0.88,1.063 -2.35,1.594 -4.41,1.594 -0.66,0 -1.83,-0.094 -3.52,-0.281 l -0.42,1.734 13.74,3.375" /><path
         id="path80"
         style="fill:none;stroke:#000000;stroke-width:3.50079989;stroke-linecap:butt;stroke-linejoin:miter;stroke-miterlimit:10;stroke-dasharray:none;stroke-opacity:1"
         d="m 1032.51,860.313 h 849.26" /><path
         id="path82"
         style="fill:none;stroke:#000000;stroke-width:3.50079989;stroke-linecap:butt;stroke-linejoin:miter;stroke-miterlimit:10;stroke-dasharray:none;stroke-opacity:1"
         d="m 1031.37,765.43 h 849.26" /><path
         id="path84"
         style="fill:none;stroke:#000000;stroke-width:3.50079989;stroke-linecap:butt;stroke-linejoin:miter;stroke-miterlimit:10;stroke-dasharray:none;stroke-opacity:1"
         d="m 1031.37,670.605 h 849.26" /><path
         id="path86"
         style="fill:none;stroke:#000000;stroke-width:3.50079989;stroke-linecap:butt;stroke-linejoin:miter;stroke-miterlimit:10;stroke-dasharray:none;stroke-opacity:1"
         d="m 1031.37,575.793 h 849.26" /><path
         id="path88"
         style="fill:none;stroke:#000000;stroke-width:3.50079989;stroke-linecap:butt;stroke-linejoin:miter;stroke-miterlimit:10;stroke-dasharray:none;stroke-opacity:1"
         d="m 1032.51,387.406 h 849.26" /><path
         id="path90"
         style="fill:none;stroke:#000000;stroke-width:3.50079989;stroke-linecap:butt;stroke-linejoin:miter;stroke-miterlimit:10;stroke-dasharray:none;stroke-opacity:1"
         d="m 1031.43,292.82 h 849.26" /><path
         id="path92"
         style="fill:none;stroke:#000000;stroke-width:3.50079989;stroke-linecap:butt;stroke-linejoin:miter;stroke-miterlimit:10;stroke-dasharray:none;stroke-opacity:1"
         d="m 1031.43,198.25 h 849.26" /><path
         id="path94"
         style="fill:none;stroke:#000000;stroke-width:3.50079989;stroke-linecap:butt;stroke-linejoin:miter;stroke-miterlimit:10;stroke-dasharray:none;stroke-opacity:1"
         d="m 1031.43,103.664 h 849.26" /><path
         id="path96"
         style="fill:none;stroke:#000000;stroke-width:3.50079989;stroke-linecap:butt;stroke-linejoin:miter;stroke-miterlimit:10;stroke-dasharray:none;stroke-opacity:1"
         d="M 1125.15,5.46875 V 956.648" /><path
         id="path98"
         style="fill:none;stroke:#000000;stroke-width:3.50079989;stroke-linecap:butt;stroke-linejoin:miter;stroke-miterlimit:10;stroke-dasharray:none;stroke-opacity:1"
         d="M 1219.82,5.46875 V 956.648" /><path
         id="path100"
         style="fill:none;stroke:#000000;stroke-width:3.50079989;stroke-linecap:butt;stroke-linejoin:miter;stroke-miterlimit:10;stroke-dasharray:none;stroke-opacity:1"
         d="M 1314.11,5.46875 V 956.648" /><path
         id="path102"
         style="fill:none;stroke:#000000;stroke-width:3.50079989;stroke-linecap:butt;stroke-linejoin:miter;stroke-miterlimit:10;stroke-dasharray:none;stroke-opacity:1"
         d="M 1503.07,5.46875 V 956.648" /><path
         id="path104"
         style="fill:none;stroke:#000000;stroke-width:3.50079989;stroke-linecap:butt;stroke-linejoin:miter;stroke-miterlimit:10;stroke-dasharray:none;stroke-opacity:1"
         d="M 1597.36,5.46875 V 956.648" /><path
         id="path106"
         style="fill:none;stroke:#000000;stroke-width:3.50079989;stroke-linecap:butt;stroke-linejoin:miter;stroke-miterlimit:10;stroke-dasharray:none;stroke-opacity:1"
         d="M 1692.04,5.83984 V 957.035" /><path
         id="path108"
         style="fill:none;stroke:#000000;stroke-width:3.50079989;stroke-linecap:butt;stroke-linejoin:miter;stroke-miterlimit:10;stroke-dasharray:none;stroke-opacity:1"
         d="M 1786.32,5.83984 V 957.035" /><path
         id="path110"
         style="fill:none;stroke:#000000;stroke-width:10.00059986;stroke-linecap:butt;stroke-linejoin:miter;stroke-miterlimit:10;stroke-dasharray:none;stroke-opacity:1"
         d="M 1504.66,502.672 V 464.906" /><path
         id="path112"
         style="fill:none;stroke:#000000;stroke-width:10.00059986;stroke-linecap:butt;stroke-linejoin:miter;stroke-miterlimit:10;stroke-dasharray:none;stroke-opacity:1"
         d="m 1391.82,576.758 h 37.76" /><path
         id="path114"
         style="fill:#000000;fill-opacity:1;fill-rule:nonzero;stroke:none"
         d="m 1842.71,453.398 c 1.53,-1.628 2.69,-3.25 3.47,-4.875 0.56,-1.128 1.48,-4.078 2.77,-8.859 l 4.12,6.188 c 1.09,1.5 2.42,2.929 3.98,4.289 1.57,1.359 2.94,2.289 4.13,2.789 0.75,0.312 1.58,0.468 2.48,0.468 1.35,0 2.42,-0.359 3.22,-1.078 0.79,-0.718 1.19,-1.593 1.19,-2.625 0,-1.187 -0.23,-2 -0.7,-2.437 -0.88,-0.781 -1.88,-1.172 -3,-1.172 -0.66,0 -1.36,0.141 -2.11,0.422 -1.47,0.5 -2.46,0.75 -2.96,0.75 -0.75,0 -1.64,-0.438 -2.67,-1.313 -1.93,-1.625 -4.25,-4.765 -6.93,-9.422 l 3.84,-16.125 c 0.59,-2.468 1.09,-3.945 1.5,-4.429 0.41,-0.485 0.81,-0.727 1.22,-0.727 0.65,0 1.42,0.36 2.29,1.078 1.72,1.438 3.19,3.313 4.41,5.625 l 1.64,-0.843 c -1.97,-3.688 -4.47,-6.75 -7.5,-9.188 -1.72,-1.375 -3.17,-2.062 -4.36,-2.062 -1.75,0 -3.14,0.984 -4.17,2.953 -0.66,1.218 -2.02,6.468 -4.08,15.75 -4.87,-8.469 -8.78,-13.922 -11.72,-16.36 -1.9,-1.562 -3.75,-2.343 -5.53,-2.343 -1.25,0 -2.39,0.453 -3.42,1.359 -0.75,0.687 -1.12,1.609 -1.12,2.766 0,1.031 0.34,1.89 1.03,2.578 0.68,0.687 1.53,1.031 2.53,1.031 1,0 2.06,-0.5 3.19,-1.5 0.81,-0.719 1.43,-1.078 1.87,-1.078 0.38,0 0.86,0.25 1.45,0.75 1.47,1.187 3.47,3.75 6,7.687 2.53,3.938 4.19,6.782 4.97,8.532 -1.94,7.593 -2.98,11.609 -3.14,12.046 -0.72,2.032 -1.65,3.469 -2.81,4.313 -1.16,0.844 -2.86,1.266 -5.11,1.266 -0.72,0 -1.55,-0.032 -2.48,-0.094 v 1.687 l 12.51,2.203" /><path
         id="path116"
         style="fill:#000000;fill-opacity:1;fill-rule:nonzero;stroke:none"
         d="m 1379.92,473.699 c 4.22,0 7.96,-0.914 11.21,-2.742 3.25,-1.828 5.79,-4.531 7.64,-8.109 1.84,-3.578 2.76,-7.289 2.76,-11.133 0,-6.813 -1.98,-13.961 -5.93,-21.445 -3.95,-7.485 -9.12,-13.196 -15.49,-17.133 -6.38,-3.938 -12.97,-5.907 -19.78,-5.907 -4.91,0 -9.01,1.086 -12.31,3.258 -3.29,2.172 -5.73,5.039 -7.31,8.602 -1.58,3.562 -2.37,7.015 -2.37,10.359 0,5.938 1.43,11.805 4.29,17.602 2.86,5.797 6.28,10.64 10.25,14.531 3.96,3.891 8.2,6.883 12.7,8.977 4.5,2.093 9.28,3.14 14.34,3.14 z m -1.59,-3 c -3.13,0 -6.18,-0.773 -9.17,-2.32 -2.98,-1.547 -5.94,-4.078 -8.88,-7.594 -2.94,-3.515 -5.58,-8.117 -7.92,-13.805 -2.88,-7 -4.31,-13.609 -4.31,-19.828 0,-4.437 1.14,-8.367 3.42,-11.789 2.28,-3.422 5.78,-5.133 10.5,-5.133 2.84,0 5.63,0.704 8.37,2.11 2.73,1.406 5.58,3.812 8.55,7.219 3.72,4.281 6.84,9.742 9.38,16.382 2.53,6.641 3.79,12.836 3.79,18.586 0,4.25 -1.14,8.008 -3.42,11.274 -2.28,3.265 -5.72,4.898 -10.31,4.898 v 0" /><path
         id="path118"
         style="fill:#000000;fill-opacity:1;fill-rule:nonzero;stroke:none"
         d="m 1442.88,605.09 15.47,7.547 h 1.54 v -53.672 c 0,-3.563 0.15,-5.781 0.45,-6.656 0.3,-0.875 0.91,-1.547 1.85,-2.016 0.94,-0.469 2.85,-0.734 5.72,-0.797 v -1.734 H 1444 v 1.734 c 3,0.063 4.94,0.32 5.82,0.774 0.87,0.453 1.48,1.062 1.82,1.828 0.35,0.765 0.52,3.054 0.52,6.867 v 34.312 c 0,4.625 -0.16,7.594 -0.47,8.907 -0.22,1 -0.62,1.734 -1.19,2.203 -0.58,0.468 -1.28,0.703 -2.09,0.703 -1.16,0 -2.77,-0.485 -4.83,-1.453 l -0.7,1.453" /><path
         id="path120"
         style="fill:#000000;fill-opacity:1;fill-rule:nonzero;stroke:none"
         d="m 1469.9,462.277 15.47,7.547 h 1.55 v -53.672 c 0,-3.562 0.15,-5.781 0.44,-6.656 0.3,-0.875 0.92,-1.547 1.85,-2.016 0.94,-0.468 2.85,-0.734 5.72,-0.796 v -1.735 h -23.9 v 1.735 c 3,0.062 4.93,0.32 5.81,0.773 0.87,0.453 1.48,1.063 1.83,1.828 0.34,0.766 0.51,3.055 0.51,6.867 v 34.313 c 0,4.625 -0.15,7.594 -0.47,8.906 -0.21,1 -0.61,1.734 -1.19,2.203 -0.58,0.469 -1.27,0.703 -2.09,0.703 -1.15,0 -2.76,-0.484 -4.82,-1.453 l -0.71,1.453" /><path
         id="path122"
         style="fill:none;stroke:#000000;stroke-width:3.50079989;stroke-linecap:butt;stroke-linejoin:miter;stroke-miterlimit:10;stroke-dasharray:none;stroke-opacity:1"
         d="m 2055.1,3.75 h 851.38 V 953.809 H 2055.1 Z" /><path
         id="path124"
         style="fill:none;stroke:#000000;stroke-width:7.5005002;stroke-linecap:butt;stroke-linejoin:miter;stroke-miterlimit:10;stroke-dasharray:none;stroke-opacity:1"
         d="m 2053.91,479.145 h 817.48" /><path
         id="path126"
         style="fill:#000000;fill-opacity:1;fill-rule:evenodd;stroke:none"
         d="m 2906.48,479.145 -70.56,30.238 c 10.08,-20.16 10.08,-40.32 0,-60.481 l 70.56,30.243" /><path
         id="path128"
         style="fill:none;stroke:#000000;stroke-width:7.5005002;stroke-linecap:butt;stroke-linejoin:miter;stroke-miterlimit:10;stroke-dasharray:none;stroke-opacity:1"
         d="M 2433.79,3.75 V 916.867" /><path
         id="path130"
         style="fill:#000000;fill-opacity:1;fill-rule:evenodd;stroke:none"
         d="m 2433.79,952.328 -30.24,-70.562 c 20.16,10.082 40.33,10.082 60.49,0 l -30.25,70.562" /><path
         id="path132"
         style="fill:#000000;fill-opacity:1;fill-rule:nonzero;stroke:none"
         d="m 2386.06,943.48 c 1.06,-1.812 1.8,-3.507 2.2,-5.085 0.41,-1.579 0.81,-4.68 1.22,-9.305 l 2.06,-23.063 c 1.88,2.25 4.6,5.813 8.16,10.688 1.72,2.375 3.84,5.609 6.37,9.703 1.54,2.5 2.47,4.25 2.82,5.25 0.18,0.5 0.28,1.016 0.28,1.547 0,0.344 -0.11,0.625 -0.33,0.844 -0.22,0.218 -0.79,0.476 -1.71,0.773 -0.92,0.297 -1.69,0.844 -2.3,1.641 -0.61,0.797 -0.91,1.711 -0.91,2.742 0,1.281 0.37,2.312 1.12,3.094 0.75,0.781 1.69,1.171 2.82,1.171 1.37,0 2.54,-0.57 3.51,-1.71 0.97,-1.141 1.45,-2.711 1.45,-4.711 0,-2.469 -0.84,-5.289 -2.53,-8.461 -1.68,-3.172 -4.93,-8.039 -9.75,-14.602 -4.81,-6.562 -10.64,-13.719 -17.48,-21.469 -4.72,-5.343 -8.22,-8.711 -10.5,-10.101 -2.28,-1.391 -4.24,-2.086 -5.86,-2.086 -0.97,0 -1.82,0.367 -2.56,1.101 -0.73,0.735 -1.1,1.586 -1.1,2.555 0,1.219 0.51,2.328 1.53,3.328 1.01,1 2.11,1.5 3.3,1.5 0.63,0 1.14,-0.14 1.55,-0.422 0.25,-0.156 0.52,-0.601 0.82,-1.336 0.3,-0.734 0.57,-1.226 0.82,-1.476 0.15,-0.156 0.34,-0.235 0.56,-0.235 0.19,0 0.52,0.157 0.99,0.469 1.71,1.063 3.71,2.75 6,5.063 3,3.062 5.21,5.562 6.65,7.5 l -2.62,29.718 c -0.44,4.907 -1.1,7.891 -1.97,8.954 -0.88,1.062 -2.35,1.593 -4.41,1.593 -0.65,0 -1.83,-0.093 -3.51,-0.281 l -0.43,1.734 13.74,3.375" /><path
         id="path134"
         style="fill:none;stroke:#000000;stroke-width:3.50079989;stroke-linecap:butt;stroke-linejoin:miter;stroke-miterlimit:10;stroke-dasharray:none;stroke-opacity:1"
         d="m 2057.21,857.465 h 849.27" /><path
         id="path136"
         style="fill:none;stroke:#000000;stroke-width:3.50079989;stroke-linecap:butt;stroke-linejoin:miter;stroke-miterlimit:10;stroke-dasharray:none;stroke-opacity:1"
         d="m 2056.07,762.582 h 849.27" /><path
         id="path138"
         style="fill:none;stroke:#000000;stroke-width:3.50079989;stroke-linecap:butt;stroke-linejoin:miter;stroke-miterlimit:10;stroke-dasharray:none;stroke-opacity:1"
         d="m 2056.07,667.758 h 849.27" /><path
         id="path140"
         style="fill:none;stroke:#000000;stroke-width:3.50079989;stroke-linecap:butt;stroke-linejoin:miter;stroke-miterlimit:10;stroke-dasharray:none;stroke-opacity:1"
         d="m 2056.07,572.945 h 849.27" /><path
         id="path142"
         style="fill:none;stroke:#000000;stroke-width:3.50079989;stroke-linecap:butt;stroke-linejoin:miter;stroke-miterlimit:10;stroke-dasharray:none;stroke-opacity:1"
         d="m 2057.21,384.559 h 849.27" /><path
         id="path144"
         style="fill:none;stroke:#000000;stroke-width:3.50079989;stroke-linecap:butt;stroke-linejoin:miter;stroke-miterlimit:10;stroke-dasharray:none;stroke-opacity:1"
         d="m 2056.13,289.973 h 849.26" /><path
         id="path146"
         style="fill:none;stroke:#000000;stroke-width:3.50079989;stroke-linecap:butt;stroke-linejoin:miter;stroke-miterlimit:10;stroke-dasharray:none;stroke-opacity:1"
         d="m 2056.13,195.402 h 849.26" /><path
         id="path148"
         style="fill:none;stroke:#000000;stroke-width:3.50079989;stroke-linecap:butt;stroke-linejoin:miter;stroke-miterlimit:10;stroke-dasharray:none;stroke-opacity:1"
         d="m 2056.13,100.82 h 849.26" /><path
         id="path150"
         style="fill:none;stroke:#000000;stroke-width:3.50079989;stroke-linecap:butt;stroke-linejoin:miter;stroke-miterlimit:10;stroke-dasharray:none;stroke-opacity:1"
         d="M 2149.86,2.62109 V 953.801" /><path
         id="path152"
         style="fill:none;stroke:#000000;stroke-width:3.50079989;stroke-linecap:butt;stroke-linejoin:miter;stroke-miterlimit:10;stroke-dasharray:none;stroke-opacity:1"
         d="M 2244.53,2.62109 V 953.801" /><path
         id="path154"
         style="fill:none;stroke:#000000;stroke-width:3.50079989;stroke-linecap:butt;stroke-linejoin:miter;stroke-miterlimit:10;stroke-dasharray:none;stroke-opacity:1"
         d="M 2338.82,2.62109 V 953.801" /><path
         id="path156"
         style="fill:none;stroke:#000000;stroke-width:3.50079989;stroke-linecap:butt;stroke-linejoin:miter;stroke-miterlimit:10;stroke-dasharray:none;stroke-opacity:1"
         d="M 2527.78,2.62109 V 953.801" /><path
         id="path158"
         style="fill:none;stroke:#000000;stroke-width:3.50079989;stroke-linecap:butt;stroke-linejoin:miter;stroke-miterlimit:10;stroke-dasharray:none;stroke-opacity:1"
         d="M 2622.07,2.62109 V 953.801" /><path
         id="path160"
         style="fill:none;stroke:#000000;stroke-width:3.50079989;stroke-linecap:butt;stroke-linejoin:miter;stroke-miterlimit:10;stroke-dasharray:none;stroke-opacity:1"
         d="M 2716.74,2.99609 V 954.188" /><path
         id="path162"
         style="fill:none;stroke:#000000;stroke-width:3.50079989;stroke-linecap:butt;stroke-linejoin:miter;stroke-miterlimit:10;stroke-dasharray:none;stroke-opacity:1"
         d="M 2811.04,2.99609 V 954.188" /><path
         id="path164"
         style="fill:none;stroke:#000000;stroke-width:10.00059986;stroke-linecap:butt;stroke-linejoin:miter;stroke-miterlimit:10;stroke-dasharray:none;stroke-opacity:1"
         d="M 2525.34,498.859 V 461.094" /><path
         id="path166"
         style="fill:none;stroke:#000000;stroke-width:10.00059986;stroke-linecap:butt;stroke-linejoin:miter;stroke-miterlimit:10;stroke-dasharray:none;stroke-opacity:1"
         d="m 2414.85,572.945 h 37.76" /><path
         id="path168"
         style="fill:#000000;fill-opacity:1;fill-rule:nonzero;stroke:none"
         d="m 2867.42,450.551 c 1.53,-1.625 2.69,-3.25 3.47,-4.875 0.56,-1.125 1.48,-4.078 2.76,-8.86 l 4.13,6.188 c 1.09,1.5 2.42,2.93 3.98,4.289 1.56,1.359 2.94,2.289 4.13,2.789 0.75,0.313 1.57,0.469 2.48,0.469 1.34,0 2.42,-0.36 3.21,-1.078 0.8,-0.719 1.2,-1.594 1.2,-2.625 0,-1.188 -0.24,-2 -0.71,-2.438 -0.87,-0.781 -1.87,-1.172 -3,-1.172 -0.65,0 -1.36,0.141 -2.11,0.422 -1.46,0.5 -2.45,0.75 -2.95,0.75 -0.75,0 -1.64,-0.437 -2.67,-1.312 -1.94,-1.625 -4.25,-4.766 -6.94,-9.422 l 3.85,-16.125 c 0.59,-2.469 1.09,-3.946 1.5,-4.43 0.4,-0.484 0.81,-0.726 1.21,-0.726 0.66,0 1.43,0.359 2.3,1.078 1.72,1.437 3.19,3.312 4.41,5.625 l 1.64,-0.844 c -1.97,-3.688 -4.47,-6.75 -7.5,-9.188 -1.72,-1.375 -3.17,-2.062 -4.36,-2.062 -1.75,0 -3.14,0.984 -4.17,2.953 -0.66,1.219 -2.02,6.469 -4.08,15.75 -4.88,-8.469 -8.78,-13.922 -11.72,-16.359 -1.91,-1.563 -3.75,-2.344 -5.53,-2.344 -1.25,0 -2.39,0.453 -3.42,1.359 -0.75,0.688 -1.13,1.61 -1.13,2.766 0,1.031 0.35,1.891 1.03,2.578 0.69,0.688 1.53,1.031 2.53,1.031 1,0 2.07,-0.5 3.19,-1.5 0.81,-0.718 1.44,-1.078 1.88,-1.078 0.37,0 0.86,0.25 1.45,0.75 1.47,1.188 3.47,3.75 6,7.688 2.53,3.937 4.19,6.781 4.97,8.531 -1.94,7.594 -2.99,11.609 -3.14,12.047 -0.72,2.031 -1.66,3.469 -2.81,4.312 -1.16,0.844 -2.86,1.266 -5.11,1.266 -0.72,0 -1.55,-0.031 -2.49,-0.094 v 1.688 l 12.52,2.203" /><path
         id="path170"
         style="fill:#000000;fill-opacity:1;fill-rule:nonzero;stroke:none"
         d="m 2399.34,471.02 c 4.21,0 7.95,-0.915 11.2,-2.743 3.25,-1.828 5.8,-4.531 7.64,-8.109 1.84,-3.578 2.77,-7.289 2.77,-11.133 0,-6.812 -1.98,-13.961 -5.93,-21.445 -3.96,-7.485 -9.12,-13.195 -15.5,-17.133 -6.37,-3.937 -12.97,-5.906 -19.78,-5.906 -4.9,0 -9.01,1.086 -12.3,3.258 -3.3,2.171 -5.74,5.039 -7.31,8.601 -1.58,3.563 -2.37,7.016 -2.37,10.36 0,5.937 1.43,11.804 4.29,17.601 2.86,5.797 6.27,10.641 10.24,14.531 3.97,3.891 8.2,6.883 12.7,8.977 4.5,2.094 9.28,3.141 14.35,3.141 z m -1.6,-3 c -3.12,0 -6.18,-0.774 -9.16,-2.321 -2.99,-1.547 -5.95,-4.078 -8.88,-7.594 -2.94,-3.515 -5.58,-8.117 -7.93,-13.804 -2.87,-7 -4.31,-13.61 -4.31,-19.828 0,-4.438 1.14,-8.368 3.42,-11.789 2.28,-3.422 5.78,-5.133 10.5,-5.133 2.85,0 5.64,0.703 8.37,2.109 2.73,1.406 5.59,3.813 8.55,7.219 3.72,4.281 6.85,9.742 9.38,16.383 2.53,6.64 3.8,12.836 3.8,18.586 0,4.25 -1.14,8.007 -3.43,11.273 -2.28,3.266 -5.71,4.899 -10.31,4.899 v 0" /><path
         id="path172"
         style="fill:#000000;fill-opacity:1;fill-rule:nonzero;stroke:none"
         d="m 2381.26,594.223 15.47,7.547 h 1.55 v -53.672 c 0,-3.563 0.15,-5.782 0.44,-6.657 0.3,-0.875 0.92,-1.546 1.85,-2.015 0.94,-0.469 2.85,-0.735 5.72,-0.797 v -1.734 h -23.9 v 1.734 c 3,0.062 4.93,0.32 5.81,0.773 0.87,0.453 1.48,1.063 1.83,1.828 0.34,0.766 0.51,3.055 0.51,6.868 v 34.312 c 0,4.625 -0.15,7.594 -0.47,8.906 -0.21,1 -0.61,1.735 -1.19,2.204 -0.58,0.468 -1.27,0.703 -2.09,0.703 -1.15,0 -2.76,-0.485 -4.83,-1.453 l -0.7,1.453" /><path
         id="path174"
         style="fill:#000000;fill-opacity:1;fill-rule:nonzero;stroke:none"
         d="m 2494.61,459.43 15.47,7.547 h 1.55 v -53.672 c 0,-3.563 0.14,-5.782 0.44,-6.657 0.3,-0.875 0.91,-1.546 1.85,-2.015 0.94,-0.469 2.85,-0.735 5.72,-0.797 v -1.734 h -23.91 v 1.734 c 3,0.062 4.94,0.32 5.82,0.773 0.87,0.454 1.48,1.063 1.83,1.829 0.34,0.765 0.51,3.054 0.51,6.867 v 34.312 c 0,4.625 -0.16,7.594 -0.47,8.906 -0.22,1 -0.62,1.735 -1.19,2.204 -0.58,0.468 -1.28,0.703 -2.09,0.703 -1.16,0 -2.76,-0.485 -4.83,-1.453 l -0.7,1.453" /><path
         id="path176"
         style="fill:none;stroke:#000000;stroke-width:12;stroke-linecap:round;stroke-linejoin:round;stroke-miterlimit:10;stroke-dasharray:none;stroke-opacity:1"
         d="M 92.043,919.887 C 331.445,7.51953 331.445,7.51953 331.445,7.51953" /><path
         id="path178"
         style="fill:none;stroke:#000000;stroke-width:8;stroke-linecap:butt;stroke-linejoin:miter;stroke-miterlimit:10;stroke-dasharray:none;stroke-opacity:1"
         d="m 1859.17,168.609 c 0,0.121 -0.64,2.243 -0.64,2.364 0,0.121 -0.64,2.234 -0.64,2.355 0,0.121 -0.64,2.223 -0.64,2.344 0,0.121 -0.64,2.215 -0.64,2.336 0,0.121 -0.64,2.207 -0.64,2.328 0,0.121 -0.63,2.195 -0.63,2.316 0,0.121 -0.64,2.188 -0.64,2.309 0,0.121 -0.64,2.18 -0.64,2.301 0,0.121 -0.64,2.168 -0.64,2.293 0,0.117 -0.64,2.16 -0.64,2.281 0,0.121 -0.64,2.152 -0.64,2.273 0,0.121 -0.64,2.145 -0.64,2.262 0,0.121 -0.64,2.137 -0.64,2.258 0,0.121 -0.64,2.125 -0.64,2.246 0,0.121 -0.64,2.117 -0.64,2.238 0,0.121 -0.64,2.106 -0.64,2.227 0,0.121 -0.64,2.101 -0.64,2.223 0,0.121 -0.64,2.089 -0.64,2.21 0,0.122 -0.63,2.082 -0.63,2.204 0,0.117 -0.64,2.07 -0.64,2.191 0,0.121 -0.64,2.062 -0.64,2.184 0,0.121 -0.64,2.054 -0.64,2.175 0,0.121 -0.64,2.047 -0.64,2.168 0,0.118 -0.64,2.035 -0.64,2.157 0,0.117 -0.64,2.027 -0.64,2.148 0,0.117 -0.64,2.02 -0.64,2.141 0,0.117 -0.64,2.011 -0.64,2.129 0,0.117 -0.64,2.003 -0.64,2.121 0,0.117 -0.64,1.996 -0.64,2.113 0,0.117 -0.63,1.988 -0.63,2.105 0,0.118 -0.64,1.977 -0.64,2.094 0,0.117 -0.65,1.969 -0.65,2.086 0,0.117 -0.63,1.961 -0.63,2.078 0,0.117 -0.64,1.953 -0.64,2.067 0,0.117 -0.64,1.945 -0.64,2.062 0,0.113 -0.64,1.934 -0.64,2.051 0,0.113 -0.64,1.926 -0.64,2.039 0,0.113 -0.64,1.918 -0.64,2.035 0,0.113 -0.64,1.91 -0.64,2.024 0,0.113 -0.64,1.902 -0.64,2.011 0,0.114 -0.64,1.895 -0.64,2.008 0,0.113 -0.64,1.887 -0.64,1.996 0,0.113 -0.64,1.879 -0.64,1.988 0,0.114 -0.63,1.872 -0.63,1.981 0,0.109 -0.64,1.859 -0.64,1.969 0,0.109 -0.64,1.855 -0.64,1.961 0,0.109 -0.64,1.843 -0.64,1.953 0,0.109 -0.64,1.836 -0.64,1.945 0,0.106 -0.64,1.828 -0.64,1.934 0,0.105 -0.64,1.82 -0.64,1.925 0,0.106 -0.64,1.813 -0.64,1.918 0,0.106 -0.64,1.801 -0.64,1.907 0,0.105 -0.64,1.797 -0.64,1.898 0,0.106 -0.64,1.789 -0.64,1.891 0,0.105 -0.63,1.777 -0.63,1.883 0,0.101 -0.64,1.769 -0.64,1.871 0,0.101 -0.65,1.761 -0.65,1.863 0,0.101 -0.63,1.754 -0.63,1.855 0,0.098 -0.64,1.746 -0.64,1.844 0,0.098 -0.64,1.738 -0.64,1.836 0,0.098 -0.64,1.731 -0.64,1.828 0,0.098 -0.64,1.723 -0.64,1.82 0,0.094 -0.64,1.715 -0.64,1.809 0,0.098 -0.64,1.707 -0.64,1.801 0,0.094 -0.64,1.699 -0.64,1.793 0,0.094 -0.64,1.687 -0.64,1.781 0,0.094 -0.64,1.684 -0.64,1.774 0,0.093 -0.64,1.675 -0.64,1.765 0,0.094 -0.63,1.668 -0.63,1.758 0,0.09 -0.64,1.656 -0.64,1.746 0,0.09 -0.64,1.652 -0.64,1.738 0,0.09 -0.64,1.645 -0.64,1.731 0,0.086 -0.64,1.637 -0.64,1.722 0,0.086 -0.64,1.625 -0.64,1.711 0,0.086 -0.64,1.618 -0.64,1.704 0,0.082 -0.64,1.609 -0.64,1.691 0,0.082 -0.64,1.605 -0.64,1.687 0,0.082 -0.64,1.594 -0.64,1.676 0,0.078 -0.63,1.586 -0.63,1.668 0,0.078 -0.64,1.578 -0.64,1.656 0,0.079 -0.65,1.571 -0.65,1.649 0,0.078 -0.63,1.566 -0.63,1.64 0,0.079 -0.64,1.559 -0.64,1.633 0,0.075 -0.64,1.547 -0.64,1.621 0,0.075 -0.64,1.543 -0.64,1.614 0,0.074 -0.64,1.535 -0.64,1.605 0,0.07 -0.64,1.527 -0.64,1.598 0,0.07 -0.64,1.515 -0.64,1.586 0,0.07 -0.64,1.511 -0.64,1.578 0,0.066 -0.64,1.504 -0.64,1.57 0,0.067 -0.64,1.492 -0.64,1.559 0,0.066 -0.64,1.488 -0.64,1.551 0,0.062 -0.63,1.48 -0.63,1.543 0,0.062 -0.64,1.472 -0.64,1.535 0,0.058 -0.64,1.461 -0.64,1.523 0,0.059 -0.64,1.457 -0.64,1.516 0,0.058 -0.64,1.449 -0.64,1.504 0,0.058 -0.64,1.441 -0.64,1.5 0,0.054 -0.64,1.433 -0.64,1.488 0,0.055 -0.64,1.426 -0.64,1.48 0,0.055 -0.64,1.418 -0.64,1.469 0,0.055 -0.64,1.414 -0.64,1.465 0,0.051 -0.64,1.402 -0.64,1.453 0,0.047 -0.63,1.395 -0.63,1.445 0,0.047 -0.65,1.387 -0.65,1.434 0,0.047 -0.64,1.379 -0.64,1.426 0,0.047 -0.63,1.375 -0.63,1.418 0,0.043 -0.64,1.367 -0.64,1.41 0,0.043 -0.64,1.355 -0.64,1.398 0,0.043 -0.64,1.352 -0.64,1.391 0,0.039 -0.64,1.344 -0.64,1.383 0,0.039 -0.64,1.336 -0.64,1.371 0,0.039 -0.64,1.328 -0.64,1.363 0,0.039 -0.64,1.32 -0.64,1.356 0,0.035 -0.64,1.312 -0.64,1.347 0,0.032 -0.64,1.305 -0.64,1.336 0,0.031 -0.64,1.301 -0.64,1.328 0,0.032 -0.63,1.293 -0.63,1.321 0,0.027 -0.64,1.285 -0.64,1.312 0,0.028 -0.64,1.274 -0.64,1.301 0,0.023 -0.64,1.269 -0.64,1.293 0,0.023 -0.64,1.262 -0.64,1.281 0,0.024 -0.64,1.254 -0.64,1.278 0,0.019 -0.64,1.246 -0.64,1.265 0,0.02 -0.64,1.238 -0.64,1.258 0,0.016 -0.64,1.23 -0.64,1.246 0,0.02 -0.64,1.227 -0.64,1.238 0,0.016 -0.64,1.219 -0.64,1.231 0,0.015 -0.64,1.211 -0.64,1.222 0,0.012 -0.64,1.204 -0.64,1.215 0,0.008 -0.63,1.192 -0.63,1.203 0,0.008 -0.64,1.184 -0.64,1.192 0,0.008 -0.64,1.18 -0.64,1.187 0,0.008 -0.64,1.172 -0.64,1.176 0,0.008 -0.64,1.164 -0.64,1.168 0,0.004 -0.64,1.156 -0.64,1.16 0,0.004 -0.64,1.149 -0.64,1.149 0,0 -0.64,1.144 -0.64,1.14 0,0 -0.64,1.137 -0.64,1.133 0,0 -0.64,1.129 -0.64,1.125 0,-0.004 -0.64,1.121 -0.64,1.113 0,-0.004 -0.63,1.114 -0.63,1.106 0,-0.008 -0.64,1.105 -0.64,1.098 0,-0.008 -0.64,1.097 -0.64,1.085 0,-0.007 -0.64,1.09 -0.64,1.079 0,-0.008 -0.64,1.086 -0.64,1.07 0,-0.012 -0.64,1.078 -0.64,1.062 0,-0.015 -0.64,1.067 -0.64,1.051 0,-0.015 -0.64,1.063 -0.64,1.043 0,-0.015 -0.64,1.055 -0.64,1.035 0,-0.019 -0.64,1.047 -0.64,1.024 0,-0.02 -0.64,1.039 -0.64,1.019 0,-0.023 -0.63,1.028 -0.63,1.008 0,-0.023 -0.65,1.02 -0.65,0.996 0,-0.023 -0.64,1.016 -0.64,0.992 0,-0.027 -0.63,1.004 -0.63,0.981 0,-0.028 -0.64,1 -0.64,0.969 0,-0.028 -0.64,0.996 -0.64,0.964 0,-0.031 -0.64,0.985 -0.64,0.954 0,-0.032 -0.64,0.976 -0.64,0.945 0,-0.031 -0.64,0.969 -0.64,0.937 0,-0.035 -0.64,0.961 -0.64,0.926 0,-0.035 -0.64,0.957 -0.64,0.918 0,-0.035 -0.64,0.949 -0.64,0.91 0,-0.039 -0.64,0.942 -0.64,0.899 0,-0.039 -0.64,0.933 -0.64,0.894 0,-0.043 -0.63,0.922 -0.63,0.883 0,-0.043 -0.64,0.918 -0.64,0.871 0,-0.043 -0.64,0.91 -0.64,0.867 0,-0.047 -0.64,0.903 -0.64,0.856 0,-0.047 -0.64,0.894 -0.64,0.844 0,-0.047 -0.64,0.89 -0.64,0.839 0,-0.05 -0.64,0.879 -0.64,0.829 0,-0.051 -0.64,0.875 -0.64,0.82 0,-0.051 -0.64,0.867 -0.64,0.812 0,-0.054 -0.64,0.86 -0.64,0.801 0,-0.055 -0.64,0.852 -0.64,0.793 0,-0.055 -0.64,0.844 -0.64,0.785 0,-0.054 -0.64,0.836 -0.64,0.778 0,-0.059 -0.63,0.828 -0.63,0.765 0,-0.058 -0.64,0.821 -0.64,0.758 0,-0.062 -0.64,0.813 -0.64,0.75 0,-0.062 -0.64,0.805 -0.64,0.738 0,-0.062 -0.64,0.797 -0.64,0.731 0,-0.063 -0.64,0.789 -0.64,0.722 0,-0.066 -0.64,0.782 -0.64,0.715 0,-0.066 -0.64,0.774 -0.64,0.703 0,-0.066 -0.64,0.766 -0.64,0.696 0,-0.071 -0.64,0.758 -0.64,0.687 0,-0.07 -0.64,0.75 -0.64,0.676 0,-0.07 -0.63,0.746 -0.63,0.672 0,-0.074 -0.64,0.734 -0.64,0.656 0,-0.074 -0.65,0.731 -0.65,0.652 0,-0.074 -0.63,0.719 -0.63,0.641 0,-0.074 -0.64,0.715 -0.64,0.633 0,-0.078 -0.64,0.707 -0.64,0.625 0,-0.078 -0.64,0.695 -0.64,0.617 0,-0.082 -0.64,0.688 -0.64,0.606 0,-0.082 -0.64,0.679 -0.64,0.597 0,-0.082 -0.64,0.672 -0.64,0.586 0,-0.082 -0.64,0.668 -0.64,0.582 0,-0.086 -0.64,0.656 -0.64,0.57 0,-0.085 -0.64,0.649 -0.64,0.563 0,-0.09 -0.64,0.641 -0.64,0.551 0,-0.086 -0.63,0.633 -0.63,0.543 0,-0.09 -0.64,0.625 -0.64,0.535 0,-0.09 -0.64,0.617 -0.64,0.527 0,-0.09 -0.64,0.61 -0.64,0.516 0,-0.09 -0.64,0.601 -0.64,0.508 0,-0.09 -0.64,0.593 -0.64,0.5 0,-0.094 -0.64,0.586 -0.64,0.492 0,-0.094 -0.64,0.578 -0.64,0.48 0,-0.097 -0.64,0.571 -0.64,0.473 0,-0.098 -0.64,0.562 -0.64,0.465 0,-0.098 -0.64,0.551 -0.64,0.453 0,-0.098 -0.63,0.547 -0.63,0.445 0,-0.097 -0.65,0.539 -0.65,0.438 0,-0.102 -0.64,0.527 -0.64,0.429 0,-0.101 -0.63,0.52 -0.63,0.418 0,-0.101 -0.64,0.512 -0.64,0.411 0,-0.102 -0.64,0.503 -0.64,0.398 0,-0.102 -0.64,0.5 -0.64,0.395 0,-0.106 -0.64,0.488 -0.64,0.382 0,-0.105 -0.64,0.481 -0.64,0.375 0,-0.105 -0.64,0.473 -0.64,0.368 0,-0.11 -0.64,0.46 -0.64,0.355 0,-0.109 -0.64,0.453 -0.64,0.348 0,-0.11 -0.64,0.445 -0.64,0.34 0,-0.11 -0.64,0.437 -0.64,0.328 0,-0.11 -0.63,0.429 -0.63,0.32 0,-0.109 -0.64,0.422 -0.64,0.312 0,-0.109 -0.64,0.415 -0.64,0.305 0,-0.113 -0.64,0.406 -0.64,0.293 0,-0.113 -0.64,0.399 -0.64,0.285 0,-0.113 -0.64,0.391 -0.64,0.278 0,-0.114 -0.64,0.379 -0.64,0.265 0,-0.113 -0.64,0.371 -0.64,0.258 0,-0.113 -0.64,0.367 -0.64,0.25 0,-0.113 -0.64,0.356 -0.64,0.242 0,-0.117 -0.64,0.348 -0.64,0.231 0,-0.114 -0.63,0.34 -0.63,0.222 0,-0.113 -0.65,0.332 -0.65,0.215 0,-0.117 -0.63,0.321 -0.63,0.207 0,-0.117 -0.64,0.313 -0.64,0.196 0,-0.118 -0.64,0.304 -0.64,0.187 0,-0.117 -0.64,0.297 -0.64,0.176 0,-0.117 -0.64,0.289 -0.64,0.172 0,-0.121 -0.64,0.277 -0.64,0.16 0,-0.117 -0.64,0.269 -0.64,0.152 0,-0.121 -0.64,0.262 -0.64,0.141 0,-0.117 -0.64,0.254 -0.64,0.133 0,-0.118 -0.64,0.246 -0.64,0.125 0,-0.118 -0.64,0.238 -0.64,0.117 0,-0.121 -0.63,0.226 -0.63,0.105 0,-0.117 -0.64,0.219 -0.64,0.098 0,-0.117 -0.64,0.211 -0.64,0.09 0,-0.117 -0.64,0.203 -0.64,0.082 0,-0.121 -0.64,0.191 -0.64,0.07 0,-0.121 -0.64,0.184 -0.64,0.063 0,-0.121 -0.64,0.175 -0.64,0.054 0,-0.121 -0.64,0.164 -0.64,0.043 0,-0.121 -0.64,0.157 -0.64,0.035 0,-0.121 -0.64,0.149 -0.64,0.028 0,-0.121 -0.64,0.14 -0.64,0.019 0,-0.121 -0.63,0.129 -0.63,0.008 0,-0.121 -0.65,0.121 -0.65,0 0,-0.121 -0.64,0.113 -0.64,-0.008 0,-0.121 -0.63,0.102 -0.63,-0.019 0,-0.121 -0.64,0.094 -0.64,-0.028 0,-0.121 -0.64,0.086 -0.64,-0.035 0,-0.121 -0.64,0.078 -0.64,-0.043 0,-0.121 -0.64,0.067 -0.64,-0.054 0,-0.121 -0.64,0.058 -0.64,-0.063 0,-0.121 -0.64,0.051 -0.64,-0.07 0,-0.121 -0.64,0.039 -0.64,-0.082 0,-0.117 -0.64,0.031 -0.64,-0.09 0,-0.117 -0.64,0.023 -0.64,-0.098 0,-0.117 -0.64,0.016 -0.64,-0.105 0,-0.121 -0.63,0.004 -0.63,-0.117 0,-0.118 -0.64,-0.004 -0.64,-0.125 0,-0.118 -0.64,-0.012 -0.64,-0.133 0,-0.117 -0.64,-0.024 -0.64,-0.141 0,-0.121 -0.64,-0.035 -0.64,-0.152 0,-0.117 -0.64,-0.043 -0.64,-0.16 0,-0.121 -0.64,-0.051 -0.64,-0.172 0,-0.117 -0.64,-0.059 -0.64,-0.176 0,-0.117 -0.64,-0.07 -0.64,-0.187 0,-0.118 -0.64,-0.082 -0.64,-0.196 0,-0.117 -0.64,-0.09 -0.64,-0.207 0,-0.117 -0.64,-0.097 -0.64,-0.215 0,-0.113 -0.64,-0.105 -0.64,-0.222 0,-0.114 -0.63,-0.117 -0.63,-0.231 0,-0.117 -0.64,-0.125 -0.64,-0.242 0,-0.113 -0.64,-0.137 -0.64,-0.25 0,-0.113 -0.64,-0.144 -0.64,-0.258 0,-0.113 -0.64,-0.152 -0.64,-0.265 0,-0.114 -0.64,-0.164 -0.64,-0.278 0,-0.113 -0.64,-0.172 -0.64,-0.285 0,-0.113 -0.64,-0.183 -0.64,-0.293 0,-0.113 -0.64,-0.195 -0.64,-0.305 0,-0.109 -0.64,-0.203 -0.64,-0.312 0,-0.109 -0.64,-0.211 -0.64,-0.32 0,-0.11 -0.63,-0.223 -0.63,-0.328 0,-0.11 -0.64,-0.235 -0.64,-0.34 0,-0.11 -0.65,-0.243 -0.65,-0.348 0,-0.109 -0.63,-0.25 -0.63,-0.355 0,-0.11 -0.64,-0.262 -0.64,-0.368 0,-0.105 -0.64,-0.269 -0.64,-0.375 0,-0.105 -0.64,-0.277 -0.64,-0.382 0,-0.106 -0.64,-0.29 -0.64,-0.395 0,-0.102 -0.64,-0.297 -0.64,-0.398 0,-0.102 -0.64,-0.309 -0.64,-0.411 0,-0.101 -0.64,-0.32 -0.64,-0.418 0,-0.101 -0.64,-0.328 -0.64,-0.429 0,-0.102 -0.64,-0.336 -0.64,-0.438 0,-0.097 -0.64,-0.347 -0.64,-0.445 0,-0.098 -0.63,-0.356 -0.63,-0.453 0,-0.098 -0.64,-0.367 -0.64,-0.465 0,-0.098 -0.64,-0.375 -0.64,-0.473 0,-0.097 -0.64,-0.386 -0.64,-0.48 0,-0.094 -0.64,-0.399 -0.64,-0.492 0,-0.094 -0.64,-0.407 -0.64,-0.5 0,-0.09 -0.64,-0.414 -0.64,-0.508 0,-0.09 -0.64,-0.426 -0.64,-0.516 0,-0.09 -0.64,-0.437 -0.64,-0.527 0,-0.09 -0.64,-0.445 -0.64,-0.535 0,-0.09 -0.64,-0.453 -0.64,-0.543 0,-0.086 -0.63,-0.465 -0.63,-0.551 0,-0.09 -0.64,-0.477 -0.64,-0.563 0,-0.085 -0.65,-0.484 -0.65,-0.57 0,-0.086 -0.63,-0.496 -0.63,-0.582 0,-0.082 -0.64,-0.504 -0.64,-0.586 0,-0.082 -0.64,-0.515 -0.64,-0.597 0,-0.082 -0.64,-0.528 -0.64,-0.606 0,-0.082 -0.64,-0.535 -0.64,-0.617 0,-0.078 -0.64,-0.543 -0.64,-0.625 0,-0.078 -0.64,-0.555 -0.64,-0.633 0,-0.074 -0.64,-0.562 -0.64,-0.641 0,-0.074 -0.64,-0.574 -0.64,-0.652 0,-0.074 -0.64,-0.582 -0.64,-0.656 0,-0.074 -0.64,-0.598 -0.64,-0.672 0,-0.07 -0.63,-0.605 -0.63,-0.676 0,-0.07 -0.64,-0.617 -0.64,-0.687 0,-0.071 -0.64,-0.625 -0.64,-0.696 0,-0.066 -0.64,-0.636 -0.64,-0.703 0,-0.066 -0.64,-0.648 -0.64,-0.715 0,-0.066 -0.64,-0.656 -0.64,-0.722 0,-0.063 -0.64,-0.664 -0.64,-0.731 0,-0.062 -0.64,-0.675 -0.64,-0.738 0,-0.062 -0.64,-0.687 -0.64,-0.75 0,-0.062 -0.64,-0.695 -0.64,-0.758 0,-0.058 -0.63,-0.707 -0.63,-0.765 0,-0.059 -0.64,-0.719 -0.64,-0.778 0,-0.054 -0.65,-0.726 -0.65,-0.785 0,-0.055 -0.63,-0.734 -0.63,-0.793 0,-0.055 -0.64,-0.746 -0.64,-0.801 0,-0.054 -0.64,-0.757 -0.64,-0.812 0,-0.051 -0.64,-0.77 -0.64,-0.82 0,-0.051 -0.64,-0.778 -0.64,-0.829 0,-0.05 -0.64,-0.789 -0.64,-0.839 0,-0.047 -0.64,-0.797 -0.64,-0.844 0,-0.047 -0.64,-0.813 -0.64,-0.856 0,-0.047 -0.64,-0.82 -0.64,-0.867 0,-0.043 -0.64,-0.832 -0.64,-0.871 0,-0.043 -0.64,-0.844 -0.64,-0.883 0,-0.043 -0.63,-0.851 -0.63,-0.894 0,-0.039 -0.64,-0.86 -0.64,-0.899 0,-0.039 -0.64,-0.871 -0.64,-0.91 0,-0.035 -0.64,-0.883 -0.64,-0.918 0,-0.035 -0.64,-0.894 -0.64,-0.926 0,-0.035 -0.64,-0.906 -0.64,-0.937 0,-0.031 -0.64,-0.914 -0.64,-0.945 0,-0.032 -0.64,-0.922 -0.64,-0.954 0,-0.031 -0.64,-0.933 -0.64,-0.964 0,-0.028 -0.64,-0.946 -0.64,-0.969 0,-0.028 -0.64,-0.957 -0.64,-0.981 0,-0.027 -0.63,-0.968 -0.63,-0.992 0,-0.023 -0.65,-0.976 -0.65,-0.996 0,-0.023 -0.64,-0.988 -0.64,-1.008 0,-0.023 -0.63,-0.996 -0.63,-1.019 0,-0.02 -0.64,-1.004 -0.64,-1.024 0,-0.019 -0.64,-1.015 -0.64,-1.035 0,-0.015 -0.64,-1.027 -0.64,-1.043 0,-0.015 -0.64,-1.035 -0.64,-1.051 0,-0.015 -0.64,-1.046 -0.64,-1.062 0,-0.012 -0.64,-1.059 -0.64,-1.07 0,-0.008 -0.64,-1.067 -0.64,-1.079 0,-0.007 -0.64,-1.078 -0.64,-1.085 0,-0.008 -0.64,-1.09 -0.64,-1.098 0,-0.008 -0.64,-1.098 -0.64,-1.106 0,-0.004 -0.63,-1.109 -0.63,-1.113 0,-0.004 -0.64,-1.121 -0.64,-1.125 0,0 -0.64,-1.129 -0.64,-1.133 l -0.64,-1.14 c 0,0 -0.64,-1.153 -0.64,-1.149 0,0.004 -0.64,-1.164 -0.64,-1.16 0,0.004 -0.64,-1.172 -0.64,-1.168 0,0.008 -0.64,-1.183 -0.64,-1.176 0,0.008 -0.64,-1.195 -0.64,-1.187 0,0.008 -0.64,-1.203 -0.64,-1.192 0,0.008 -0.64,-1.214 -0.64,-1.203 0,0.008 -0.64,-1.226 -0.64,-1.215 0,0.012 -0.64,-1.234 -0.64,-1.222 0,0.015 -0.63,-1.242 -0.63,-1.231 0,0.016 -0.64,-1.254 -0.64,-1.238 0,0.02 -0.64,-1.266 -0.64,-1.246 0,0.016 -0.64,-1.277 -0.64,-1.258 0,0.02 -0.64,-1.289 -0.64,-1.265 0,0.019 -0.64,-1.297 -0.64,-1.278 0,0.024 -0.64,-1.305 -0.64,-1.281 0,0.023 -0.64,-1.32 -0.64,-1.293 0,0.023 -0.64,-1.328 -0.64,-1.301 0,0.028 -0.64,-1.34 -0.64,-1.312 0,0.027 -0.64,-1.348 -0.64,-1.321 0,0.032 -0.63,-1.359 -0.63,-1.328 0,0.031 -0.64,-1.371 -0.64,-1.336 0,0.032 -0.64,-1.383 -0.64,-1.347 0,0.035 -0.64,-1.391 -0.64,-1.356 0,0.039 -0.64,-1.398 -0.64,-1.363 0,0.039 -0.64,-1.41 -0.64,-1.371 0,0.039 -0.64,-1.422 -0.64,-1.383 0,0.039 -0.64,-1.434 -0.64,-1.391 0,0.043 -0.64,-1.441 -0.64,-1.398 0,0.043 -0.64,-1.453 -0.64,-1.41 0,0.043 -0.64,-1.465 -0.64,-1.418 0,0.047 -0.63,-1.473 -0.63,-1.426 0,0.047 -0.65,-1.484 -0.65,-1.434 0,0.047 -0.64,-1.496 -0.64,-1.445 0,0.047 -0.63,-1.504 -0.63,-1.453 0,0.051 -0.64,-1.516 -0.64,-1.465 0,0.055 -0.64,-1.523 -0.64,-1.469 0,0.055 -0.64,-1.535 -0.64,-1.48 0,0.055 -0.64,-1.547 -0.64,-1.488 0,0.054 -0.64,-1.555 -0.64,-1.5 0,0.058 -0.64,-1.563 -0.64,-1.504 0,0.058 -0.64,-1.578 -0.64,-1.516 0,0.059 -0.64,-1.586 -0.64,-1.523 0,0.058 -0.64,-1.598 -0.64,-1.535 0,0.062 -0.64,-1.606 -0.64,-1.543 0,0.062 -0.63,-1.618 -0.63,-1.551 0,0.066 -0.64,-1.625 -0.64,-1.559 0,0.067 -0.65,-1.637 -0.65,-1.57 0,0.066 -0.63,-1.649 -0.63,-1.578 0,0.07 -0.64,-1.657 -0.64,-1.586 0,0.07 -0.64,-1.668 -0.64,-1.598 0,0.07 -0.64,-1.676 -0.64,-1.605 0,0.074 -0.64,-1.688 -0.64,-1.614 0,0.075 -0.64,-1.695 -0.64,-1.621 0,0.075 -0.64,-1.707 -0.64,-1.633 0,0.079 -0.64,-1.718 -0.64,-1.64 0,0.078 -0.64,-1.727 -0.64,-1.649 0,0.079 -0.64,-1.738 -0.64,-1.656 0,0.078 -0.63,-1.75 -0.63,-1.668 0,0.078 -0.64,-1.758 -0.64,-1.676 0,0.082 -0.64,-1.769 -0.64,-1.687 0,0.082 -0.64,-1.777 -0.64,-1.691 0,0.082 -0.64,-1.79 -0.64,-1.704 0,0.086 -0.64,-1.796 -0.64,-1.711 0,0.086 -0.64,-1.808 -0.64,-1.722 0,0.086 -0.64,-1.817 -0.64,-1.731 0,0.09 -0.64,-1.828 -0.64,-1.738 0,0.09 -0.64,-1.836 -0.64,-1.746 0,0.09 -0.64,-1.848 -0.64,-1.758 0,0.094 -0.63,-1.855 -0.63,-1.765 0,0.093 -0.64,-1.868 -0.64,-1.774 0,0.094 -0.65,-1.875 -0.65,-1.781 0,0.094 -0.63,-1.887 -0.63,-1.793 0,0.094 -0.64,-1.895 -0.64,-1.801 0,0.098 -0.64,-1.906 -0.64,-1.809 0,0.094 -0.64,-1.917 -0.64,-1.82 0,0.098 -0.64,-1.926 -0.64,-1.828 0,0.098 -0.64,-1.934 -0.64,-1.836 0,0.098 -0.64,-1.945 -0.64,-1.844 0,0.098 -0.64,-1.957 -0.64,-1.855 0,0.101 -0.64,-1.965 -0.64,-1.863 0,0.101 -0.64,-1.977 -0.64,-1.871 0,0.101 -0.64,-1.985 -0.64,-1.883 0,0.105 -0.63,-1.992 -0.63,-1.891 0,0.106 -0.64,-2.004 -0.64,-1.898 0,0.105 -0.64,-2.012 -0.64,-1.907 0,0.106 -0.64,-2.023 -0.64,-1.918 0,0.106 -0.64,-2.031 -0.64,-1.925 0,0.105 -0.64,-2.043 -0.64,-1.934 0,0.106 -0.64,-2.055 -0.64,-1.945 0,0.109 -0.64,-2.059 -0.64,-1.953 0,0.109 -0.64,-2.071 -0.64,-1.961 0,0.109 -0.64,-2.078 -0.64,-1.969 0,0.109 -0.64,-2.09 -0.64,-1.981 0,0.114 -0.63,-2.097 -0.63,-1.988 0,0.113 -0.65,-2.109 -0.65,-1.996 0,0.113 -0.64,-2.117 -0.64,-2.008 0,0.114 -0.63,-2.125 -0.63,-2.011 0,0.113 -0.64,-2.141 -0.64,-2.024 0,0.113 -0.64,-2.148 -0.64,-2.035 0,0.113 -0.64,-2.156 -0.64,-2.039 0,0.113 -0.64,-2.168 -0.64,-2.051 0,0.113 -0.64,-2.176 -0.64,-2.062 0,0.117 -0.64,-2.184 -0.64,-2.067 0,0.117 -0.64,-2.195 -0.64,-2.078 0,0.117 -0.64,-2.203 -0.64,-2.086 0,0.117 -0.64,-2.211 -0.64,-2.094 0,0.118 -0.64,-2.222 -0.64,-2.105 0,0.117 -0.63,-2.231 -0.63,-2.113 0,0.117 -0.64,-2.239 -0.64,-2.121 0,0.117 -0.64,-2.25 -0.64,-2.129 0,0.117 -0.64,-2.262 -0.64,-2.141 0,0.117 -0.64,-2.27 -0.64,-2.148 0,0.117 -0.64,-2.278 -0.64,-2.157 0,0.118 -0.64,-2.289 -0.64,-2.168 0,0.121 -0.64,-2.297 -0.64,-2.175 0,0.121 -0.64,-2.305 -0.64,-2.184 0,0.121 -0.64,-2.313 -0.64,-2.191 0,0.117 -0.64,-2.325 -0.64,-2.204 0,0.122 -0.63,-2.332 -0.63,-2.21 0,0.121 -0.65,-2.344 -0.65,-2.223 0,0.121 -0.63,-2.348 -0.63,-2.227 0,0.121 -0.64,-2.359 -0.64,-2.238 0,0.121 -0.64,-2.367 -0.64,-2.246 0,0.121 -0.64,-2.375 -0.64,-2.258 0,0.121 -0.64,-2.383 -0.64,-2.262 0,0.121 -0.64,-2.394 -0.64,-2.273 0,0.121 -0.64,-2.406 -0.64,-2.281 0,0.117 -0.64,-2.414 -0.64,-2.293 0,0.121 -0.64,-2.422 -0.64,-2.301 0,0.121 -0.64,-2.43 -0.64,-2.309 0,0.121 -0.64,-2.437 -0.64,-2.316 0,0.121 -0.63,-2.449 -0.63,-2.328 0,0.121 -0.64,-2.457 -0.64,-2.336 0,0.121 -0.64,-2.465 -0.64,-2.344 0,0.121 -0.64,-2.476 -0.64,-2.355 0,0.121 -0.64,-2.485 -0.64,-2.364 0,0.121 -0.64,-2.492 -0.64,-2.371 0,0.121 -0.64,-2.5 -0.64,-2.379 0,0.121 -0.64,-2.507 -0.64,-2.39 0,0.121 -0.64,-2.516 -0.64,-2.399 0,0.121 -0.64,-2.523 -0.64,-2.406 0,0.121 -0.64,-2.535 -0.64,-2.414 0,0.117 -0.63,-2.547 -0.63,-2.426 0,0.117 -0.65,-2.554 -0.65,-2.433 0,0.117 -0.64,-2.563 -0.64,-2.446 0,0.121 -0.63,-2.566 -0.63,-2.449 0,0.117 -0.64,-2.578 -0.64,-2.461 0,0.117 -0.64,-2.586 -0.64,-2.469 0,0.114 -0.64,-2.597 -0.64,-2.48 0,0.117 -0.64,-2.602 -0.64,-2.488 0,0.117 -0.64,-2.61 -0.64,-2.496 0,0.117 -0.64,-2.618 -0.64,-2.504 0,0.113 -0.64,-2.629 -0.64,-2.516 0,0.117 -0.64,-2.637 -0.64,-2.519 0,0.113 -0.64,-2.649 -0.64,-2.536 0,0.114 -0.64,-2.652 -0.64,-2.539 0,0.114 -0.63,-2.664 -0.63,-2.55 0,0.113 -0.64,-2.672 -0.64,-2.559 0,0.113 -0.64,-2.68 -0.64,-2.566 0,0.109 -0.64,-2.688 -0.64,-2.579 0,0.114 -0.64,-2.695 -0.64,-2.586 0,0.114 -0.64,-2.703 -0.64,-2.593 0,0.109 -0.64,-2.711 -0.64,-2.602 0,0.11 -0.64,-2.7225 -0.64,-2.6132 0,0.1094 -0.64,-2.7304 -0.64,-2.621 0,0.1093 -0.64,-2.7383 -0.64,-2.629 0,0.1055 -0.64,-2.746 -0.64,-2.6406 0,0.1094 -0.64,-2.7539 -0.64,-2.6484 0,0.1055 -0.64,-2.7617 -0.64,-2.6563 0,0.1055 -0.63,-2.7695 -0.63,-2.664 0,0.1054 -0.64,-2.7774 -0.64,-2.6758 0,0.1055 -0.64,-2.7852 -0.64,-2.6836 0,0.1055 -0.64,-2.793 -0.64,-2.6914 0,0.1016 -0.64,-2.8008 -0.64,-2.7031 0,0.1015 -0.64,-2.8086 -0.64,-2.7071 0,0.0977 -0.64,-2.8203 -0.64,-2.7187 0,0.0976 -0.64,-2.8281 -0.64,-2.7305 0,0.0977 -0.64,-2.8359 -0.64,-2.7383 0,0.0977 -0.64,-2.8398 -0.64,-2.7461 0,0.0977 -0.64,-2.8476 -0.64,-2.7539 0,0.0977 -0.63,-2.8593 -0.63,-2.7617 0,0.0938 -0.64,-2.8672 -0.64,-2.7734 0,0.0937 -0.65,-2.875 -0.65,-2.7813" /><path
         id="path180"
         style="fill:none;stroke:#000000;stroke-width:8;stroke-linecap:round;stroke-linejoin:round;stroke-miterlimit:10;stroke-dasharray:none;stroke-opacity:1"
         d="m 2055.38,693.152 c 0.28,0.161 0.57,0.321 0.85,0.481 0.28,0.16 0.56,0.324 0.85,0.484 0.28,0.164 0.56,0.324 0.85,0.488 0.28,0.161 0.57,0.325 0.85,0.489 0.28,0.164 0.57,0.328 0.85,0.492 0.28,0.164 0.57,0.328 0.85,0.492 0.28,0.164 0.57,0.332 0.85,0.496 0.28,0.164 0.57,0.332 0.85,0.5 0.28,0.164 0.57,0.332 0.85,0.5 0.29,0.164 0.57,0.332 0.85,0.5 0.28,0.168 0.57,0.336 0.85,0.504 0.29,0.172 0.57,0.34 0.85,0.508 0.29,0.172 0.57,0.34 0.85,0.512 0.29,0.168 0.57,0.34 0.86,0.511 0.28,0.172 0.56,0.344 0.85,0.516 0.28,0.172 0.56,0.344 0.84,0.516 0.29,0.172 0.57,0.343 0.86,0.519 0.28,0.172 0.56,0.348 0.85,0.52 0.28,0.175 0.56,0.351 0.85,0.527 0.28,0.172 0.57,0.348 0.85,0.523 0.28,0.176 0.57,0.356 0.85,0.532 0.28,0.176 0.56,0.351 0.85,0.531 0.28,0.176 0.57,0.355 0.85,0.535 0.28,0.176 0.57,0.356 0.85,0.535 0.28,0.18 0.57,0.36 0.85,0.539 0.29,0.18 0.57,0.36 0.85,0.543 0.28,0.18 0.57,0.364 0.85,0.543 0.29,0.184 0.57,0.364 0.85,0.547 0.29,0.184 0.57,0.367 0.85,0.551 0.29,0.184 0.57,0.367 0.85,0.551 0.29,0.183 0.57,0.371 0.86,0.554 0.28,0.188 0.56,0.372 0.84,0.559 0.29,0.188 0.57,0.375 0.86,0.559 0.28,0.187 0.56,0.379 0.85,0.566 0.28,0.188 0.56,0.375 0.85,0.563 0.28,0.191 0.56,0.382 0.85,0.57 0.28,0.191 0.57,0.379 0.85,0.57 0.28,0.192 0.56,0.383 0.85,0.574 0.28,0.192 0.57,0.387 0.85,0.578 0.28,0.192 0.57,0.387 0.85,0.583 0.28,0.191 0.57,0.386 0.85,0.582 0.29,0.195 0.57,0.39 0.85,0.585 0.29,0.196 0.57,0.391 0.85,0.586 0.28,0.2 0.57,0.395 0.85,0.594 0.29,0.199 0.57,0.395 0.85,0.594 0.29,0.199 0.57,0.398 0.85,0.598 0.29,0.199 0.57,0.398 0.86,0.601 0.28,0.199 0.56,0.402 0.85,0.602 0.28,0.203 0.56,0.406 0.84,0.609 0.29,0.203 0.57,0.406 0.86,0.609 0.28,0.204 0.56,0.407 0.85,0.614 0.28,0.203 0.56,0.406 0.85,0.613 0.28,0.207 0.57,0.414 0.85,0.621 0.28,0.207 0.56,0.414 0.85,0.621 0.28,0.207 0.57,0.418 0.85,0.625 0.28,0.211 0.57,0.418 0.85,0.629 0.28,0.211 0.57,0.422 0.85,0.633 0.28,0.211 0.57,0.422 0.85,0.637 0.29,0.211 0.57,0.422 0.85,0.636 0.28,0.215 0.57,0.426 0.85,0.641 0.29,0.215 0.57,0.43 0.85,0.645 0.29,0.218 0.57,0.433 0.85,0.648 0.29,0.219 0.57,0.437 0.85,0.652 0.29,0.219 0.57,0.438 0.86,0.657 0.28,0.218 0.56,0.437 0.84,0.66 0.29,0.218 0.57,0.441 0.86,0.66 0.28,0.223 0.56,0.445 0.85,0.668 0.28,0.222 0.56,0.445 0.85,0.668 0.28,0.222 0.57,0.449 0.85,0.672 0.28,0.226 0.57,0.453 0.85,0.679 0.28,0.227 0.56,0.453 0.85,0.68 0.28,0.227 0.57,0.453 0.85,0.684 0.28,0.226 0.57,0.457 0.85,0.687 0.28,0.231 0.57,0.461 0.85,0.692 0.29,0.23 0.57,0.46 0.85,0.695 0.28,0.23 0.57,0.465 0.85,0.699 0.28,0.234 0.57,0.469 0.85,0.703 0.29,0.235 0.57,0.469 0.85,0.703 0.29,0.239 0.57,0.477 0.85,0.711 0.29,0.239 0.57,0.477 0.86,0.715 0.28,0.238 0.56,0.477 0.84,0.719 0.29,0.238 0.57,0.48 0.86,0.723 0.28,0.242 0.56,0.48 0.85,0.726 0.28,0.242 0.56,0.484 0.85,0.731 0.28,0.242 0.56,0.488 0.85,0.734 0.28,0.242 0.57,0.488 0.85,0.738 0.28,0.246 0.56,0.492 0.85,0.742 0.28,0.246 0.57,0.496 0.85,0.746 0.28,0.25 0.57,0.5 0.85,0.75 0.28,0.25 0.57,0.504 0.85,0.754 0.28,0.254 0.57,0.508 0.85,0.762 0.29,0.254 0.57,0.508 0.85,0.762 0.28,0.258 0.57,0.512 0.85,0.769 0.29,0.254 0.57,0.512 0.85,0.774 0.29,0.258 0.57,0.515 0.85,0.773 0.29,0.262 0.57,0.524 0.86,0.781 0.28,0.262 0.56,0.524 0.84,0.79 0.29,0.261 0.57,0.523 0.85,0.789 0.29,0.265 0.57,0.527 0.86,0.793 0.28,0.265 0.56,0.535 0.85,0.8 0.28,0.27 0.56,0.536 0.85,0.805 0.28,0.27 0.57,0.539 0.85,0.809 0.28,0.269 0.56,0.543 0.85,0.812 0.28,0.274 0.56,0.547 0.85,0.82 0.28,0.274 0.57,0.547 0.85,0.825 0.28,0.273 0.57,0.55 0.85,0.828 0.28,0.277 0.57,0.554 0.85,0.832 0.29,0.277 0.57,0.558 0.85,0.836 0.28,0.281 0.57,0.562 0.85,0.844 0.29,0.281 0.57,0.566 0.85,0.847 0.29,0.285 0.57,0.57 0.85,0.856 0.29,0.285 0.57,0.57 0.85,0.855 0.29,0.289 0.57,0.578 0.86,0.867 0.28,0.285 0.56,0.578 0.84,0.867 0.29,0.29 0.57,0.583 0.86,0.875 0.28,0.293 0.56,0.586 0.85,0.879 0.28,0.293 0.56,0.59 0.85,0.883 0.28,0.297 0.56,0.594 0.85,0.891 0.28,0.297 0.57,0.597 0.85,0.894 0.28,0.301 0.56,0.602 0.85,0.903 0.28,0.3 0.57,0.605 0.85,0.906 0.28,0.305 0.57,0.609 0.85,0.914 0.28,0.305 0.57,0.609 0.85,0.918 0.29,0.305 0.57,0.613 0.85,0.922 0.28,0.308 0.57,0.621 0.85,0.93 0.28,0.312 0.57,0.625 0.85,0.937 0.29,0.313 0.57,0.625 0.85,0.941 0.29,0.313 0.57,0.629 0.85,0.946 0.29,0.316 0.57,0.636 0.86,0.953 0.28,0.32 0.56,0.641 0.84,0.961 0.29,0.32 0.57,0.64 0.85,0.965 0.29,0.324 0.57,0.648 0.86,0.972 0.28,0.325 0.56,0.653 0.85,0.977 0.28,0.328 0.56,0.656 0.85,0.984 0.28,0.328 0.56,0.66 0.85,0.992 0.28,0.332 0.56,0.665 0.85,0.997 0.28,0.332 0.57,0.668 0.85,1.003 0.28,0.336 0.57,0.672 0.85,1.012 0.28,0.336 0.57,0.676 0.85,1.016 0.28,0.34 0.57,0.679 0.85,1.023 0.28,0.34 0.57,0.684 0.85,1.028 0.28,0.347 0.57,0.691 0.85,1.039 0.29,0.347 0.57,0.695 0.85,1.043 0.29,0.351 0.57,0.699 0.85,1.05 0.28,0.352 0.57,0.704 0.85,1.059 0.29,0.355 0.57,0.711 0.85,1.066 0.29,0.356 0.57,0.711 0.85,1.071 0.29,0.359 0.57,0.718 0.86,1.082 0.28,0.359 0.56,0.722 0.85,1.086 0.28,0.363 0.56,0.726 0.84,1.093 0.29,0.364 0.58,0.731 0.86,1.102 0.28,0.367 0.56,0.738 0.85,1.109 0.28,0.371 0.56,0.743 0.85,1.118 0.28,0.371 0.57,0.746 0.85,1.125 0.28,0.375 0.57,0.75 0.85,1.128 0.28,0.379 0.57,0.762 0.85,1.141 0.29,0.383 0.57,0.766 0.85,1.149 0.28,0.382 0.57,0.769 0.85,1.156 0.28,0.386 0.57,0.773 0.85,1.164 0.29,0.39 0.57,0.781 0.85,1.172 0.29,0.394 0.57,0.785 0.85,1.179 0.29,0.395 0.57,0.793 0.85,1.192 0.29,0.398 0.57,0.797 0.85,1.195 0.29,0.402 0.57,0.805 0.86,1.207 0.28,0.402 0.56,0.809 0.85,1.215 0.28,0.406 0.56,0.812 0.84,1.223 0.29,0.41 0.57,0.82 0.86,1.234 0.28,0.41 0.56,0.824 0.85,1.242 0.28,0.414 0.56,0.832 0.85,1.25 0.28,0.418 0.57,0.836 0.85,1.258 0.28,0.422 0.57,0.844 0.85,1.27 0.28,0.421 0.56,0.847 0.85,1.277 0.28,0.426 0.57,0.855 0.85,1.285 0.28,0.434 0.57,0.863 0.85,1.301 0.28,0.43 0.57,0.867 0.85,1.305 0.29,0.437 0.57,0.875 0.85,1.316 0.29,0.441 0.57,0.883 0.85,1.324 0.28,0.445 0.57,0.891 0.86,1.336 0.28,0.449 0.56,0.899 0.84,1.348 0.29,0.449 0.57,0.902 0.85,1.355 0.29,0.453 0.57,0.91 0.86,1.367 0.28,0.457 0.56,0.918 0.85,1.379 0.28,0.461 0.56,0.922 0.85,1.387 0.28,0.465 0.56,0.93 0.85,1.398 0.28,0.469 0.56,0.938 0.85,1.411 0.28,0.468 0.56,0.941 0.85,1.418 0.28,0.476 0.57,0.953 0.85,1.433 0.28,0.477 0.57,0.957 0.85,1.442 0.28,0.48 0.57,0.964 0.85,1.453 0.28,0.484 0.57,0.976 0.85,1.465 0.28,0.488 0.57,0.98 0.85,1.476 0.29,0.496 0.57,0.992 0.85,1.488 0.29,0.5 0.57,1 0.85,1.5 0.28,0.504 0.57,1.008 0.85,1.512 0.29,0.508 0.57,1.016 0.85,1.524 0.29,0.511 0.57,1.023 0.85,1.539 0.29,0.511 0.57,1.031 0.86,1.546 0.28,0.52 0.56,1.04 0.85,1.563 0.28,0.523 0.56,1.047 0.84,1.574 0.29,0.528 0.57,1.059 0.86,1.59 0.28,0.531 0.56,1.063 0.85,1.598 0.28,0.539 0.56,1.074 0.85,1.617 0.28,0.539 0.57,1.082 0.85,1.625 0.28,0.543 0.57,1.09 0.85,1.641 0.28,0.55 0.56,1.101 0.85,1.656 0.29,0.551 0.57,1.109 0.85,1.668 0.28,0.558 0.57,1.117 0.85,1.679 0.28,0.563 0.57,1.129 0.85,1.7 0.29,0.566 0.57,1.136 0.85,1.711 0.29,0.57 0.57,1.148 0.85,1.722 0.29,0.578 0.57,1.16 0.85,1.742 0.29,0.582 0.57,1.168 0.85,1.754 0.29,0.59 0.57,1.18 0.85,1.774 0.29,0.59 0.57,1.187 0.86,1.785 0.28,0.598 0.56,1.199 0.84,1.801 0.29,0.601 0.57,1.211 0.86,1.816 0.28,0.609 0.56,1.223 0.85,1.836 0.28,0.613 0.56,1.231 0.85,1.848 0.28,0.621 0.57,1.242 0.85,1.867 0.28,0.625 0.57,1.254 0.85,1.883 0.28,0.629 0.56,1.265 0.85,1.898 0.28,0.637 0.57,1.277 0.85,1.918 0.28,0.641 0.57,1.285 0.85,1.934 0.28,0.648 0.57,1.3 0.85,1.953 0.29,0.652 0.57,1.308 0.85,1.969 0.29,0.66 0.57,1.32 0.85,1.988 0.28,0.664 0.57,1.332 0.85,2.004 0.29,0.672 0.57,1.347 0.85,2.027 0.29,0.676 0.57,1.359 0.85,2.043 0.29,0.684 0.57,1.371 0.86,2.063 0.28,0.691 0.56,1.382 0.85,2.082 0.28,0.695 0.56,1.398 0.84,2.101 0.29,0.703 0.57,1.41 0.86,2.121 0.28,0.711 0.56,1.422 0.85,2.141 0.28,0.719 0.56,1.437 0.85,2.164 0.28,0.723 0.57,1.449 0.85,2.18 0.28,0.734 0.56,1.468 0.85,2.207 0.28,0.738 0.57,1.48 0.85,2.222 0.28,0.746 0.57,1.496 0.85,2.25 0.28,0.75 0.57,1.508 0.85,2.266 0.28,0.762 0.57,1.527 0.85,2.293 0.29,0.769 0.57,1.539 0.85,2.312 0.28,0.778 0.57,1.555 0.85,2.34 0.29,0.782 0.57,1.571 0.85,2.36" /><path
         id="path182"
         style="fill:none;stroke:#000000;stroke-width:8;stroke-linecap:round;stroke-linejoin:round;stroke-miterlimit:10;stroke-dasharray:none;stroke-opacity:1"
         d="m 2603.16,5.04297 c 0.29,0.78906 0.57,1.57812 0.86,2.35937 0.28,0.78516 0.56,1.5625 0.84,2.33594 0.29,0.77732 0.57,1.54692 0.85,2.31642 0.29,0.7656 0.57,1.5312 0.86,2.2891 0.28,0.7617 0.56,1.5156 0.85,2.2695 0.28,0.7539 0.56,1.5 0.85,2.2461 0.28,0.7461 0.57,1.4883 0.85,2.2265 0.28,0.7383 0.56,1.4727 0.85,2.2032 0.28,0.7304 0.57,1.457 0.85,2.1836 0.28,0.7226 0.57,1.4414 0.85,2.1601 0.28,0.7188 0.57,1.4297 0.85,2.1406 0.28,0.711 0.57,1.418 0.85,2.1211 0.29,0.7032 0.57,1.4024 0.85,2.1016 0.28,0.6953 0.57,1.3906 0.85,2.082 0.29,0.6914 0.57,1.375 0.85,2.0625 0.29,0.6836 0.57,1.3633 0.85,2.043 0.29,0.6758 0.57,1.3516 0.86,2.0234 0.28,0.6719 0.56,1.3399 0.85,2.0039 0.28,0.668 0.56,1.3282 0.84,1.9883 0.29,0.6602 0.57,1.3164 0.86,1.9688 0.28,0.6523 0.56,1.3047 0.85,1.9531 0.28,0.6445 0.56,1.2891 0.85,1.9336 0.28,0.6406 0.57,1.2773 0.85,1.9141 0.28,0.6367 0.56,1.2695 0.85,1.9023 0.28,0.6289 0.56,1.2578 0.85,1.8789 0.28,0.625 0.57,1.25 0.85,1.8672 0.28,0.6211 0.57,1.2344 0.85,1.8516 0.28,0.6132 0.57,1.2226 0.85,1.832 0.29,0.6094 0.57,1.2148 0.85,1.8164 0.28,0.6016 0.57,1.2031 0.85,1.8008 0.28,0.5976 0.57,1.1953 0.85,1.7851 0.29,0.5938 0.57,1.1836 0.85,1.7696 0.29,0.5898 0.57,1.1757 0.85,1.7578 0.29,0.582 0.57,1.1601 0.86,1.7383 0.28,0.5781 0.56,1.1523 0.84,1.7265 0.29,0.5742 0.57,1.1445 0.86,1.711 0.28,0.5664 0.56,1.1328 0.85,1.6953 0.28,0.5625 0.56,1.125 0.85,1.6836 0.28,0.5586 0.56,1.1132 0.85,1.6679 0.28,0.5508 0.57,1.1055 0.85,1.6524 0.28,0.5508 0.56,1.0976 0.85,1.6406 0.28,0.5469 0.57,1.0859 0.85,1.6289 0.28,0.5391 0.57,1.0742 0.85,1.6133 0.28,0.5351 0.57,1.0664 0.85,1.5976 0.29,0.5313 0.57,1.0625 0.85,1.586 0.29,0.5273 0.57,1.0547 0.85,1.5742 0.28,0.5234 0.57,1.043 0.85,1.5625 0.29,0.5195 0.57,1.0352 0.85,1.5508 0.29,0.5117 0.57,1.0234 0.85,1.5351 0.29,0.5118 0.57,1.0196 0.86,1.5235 0.28,0.508 0.56,1.012 0.84,1.512 0.29,0.504 0.57,1.004 0.85,1.5 0.29,0.5 0.57,0.996 0.86,1.488 0.28,0.496 0.56,0.988 0.85,1.477 0.28,0.492 0.56,0.98 0.85,1.464 0.28,0.489 0.57,0.973 0.85,1.454 0.28,0.484 0.56,0.964 0.85,1.441 0.28,0.48 0.56,0.957 0.85,1.434 0.28,0.472 0.57,0.949 0.85,1.417 0.28,0.473 0.57,0.942 0.85,1.411 0.28,0.468 0.57,0.933 0.85,1.398 0.29,0.465 0.57,0.926 0.85,1.387 0.28,0.461 0.57,0.918 0.85,1.375 0.29,0.457 0.57,0.914 0.85,1.367 0.29,0.453 0.57,0.906 0.85,1.355 0.29,0.454 0.57,0.903 0.85,1.348 0.29,0.445 0.57,0.891 0.85,1.336 0.29,0.445 0.57,0.887 0.85,1.324 0.29,0.442 0.57,0.879 0.86,1.317 0.28,0.437 0.56,0.875 0.85,1.308 0.28,0.434 0.56,0.867 0.84,1.297 0.29,0.43 0.58,0.86 0.86,1.285 0.28,0.43 0.56,0.856 0.85,1.278 0.28,0.425 0.56,0.847 0.85,1.269 0.28,0.422 0.57,0.84 0.85,1.258 0.28,0.418 0.57,0.836 0.85,1.25 0.28,0.418 0.57,0.828 0.85,1.242 0.29,0.414 0.57,0.824 0.85,1.231 0.28,0.41 0.57,0.82 0.85,1.226 0.28,0.406 0.57,0.809 0.85,1.211 0.29,0.406 0.57,0.809 0.85,1.207 0.29,0.403 0.57,0.801 0.85,1.199 0.29,0.399 0.57,0.793 0.86,1.188 0.28,0.394 0.56,0.789 0.84,1.18 0.29,0.394 0.57,0.785 0.85,1.171 0.29,0.391 0.57,0.778 0.86,1.165 0.28,0.386 0.56,0.773 0.85,1.156 0.28,0.386 0.56,0.769 0.85,1.148 0.28,0.383 0.57,0.762 0.85,1.141 0.28,0.379 0.56,0.754 0.85,1.133 0.28,0.375 0.57,0.75 0.85,1.125 0.28,0.371 0.57,0.742 0.85,1.113 0.28,0.371 0.57,0.742 0.85,1.109 0.28,0.371 0.57,0.739 0.85,1.102 0.28,0.367 0.57,0.73 0.85,1.094 0.28,0.363 0.57,0.726 0.85,1.086 0.29,0.363 0.57,0.722 0.85,1.082 0.29,0.359 0.57,0.714 0.85,1.07 0.28,0.355 0.57,0.711 0.86,1.066 0.28,0.352 0.56,0.707 0.84,1.059 0.29,0.348 0.57,0.699 0.85,1.051 0.29,0.347 0.57,0.695 0.86,1.043 0.28,0.343 0.56,0.691 0.85,1.035 0.28,0.344 0.56,0.687 0.85,1.031 0.28,0.34 0.57,0.684 0.85,1.023 0.28,0.34 0.56,0.68 0.85,1.016 0.28,0.34 0.56,0.676 0.85,1.012 0.28,0.332 0.57,0.668 0.85,1 0.28,0.336 0.57,0.668 0.85,1 0.28,0.328 0.57,0.66 0.85,0.988 0.28,0.332 0.57,0.656 0.85,0.984 0.28,0.329 0.57,0.653 0.85,0.981 0.28,0.324 0.57,0.648 0.85,0.969 0.29,0.324 0.57,0.644 0.85,0.965 0.29,0.32 0.57,0.64 0.85,0.96 0.29,0.317 0.57,0.637 0.85,0.954 0.29,0.316 0.57,0.632 0.85,0.945 0.29,0.316 0.57,0.629 0.86,0.941 0.28,0.313 0.56,0.625 0.85,0.938 0.28,0.308 0.56,0.621 0.84,0.93 0.29,0.308 0.57,0.617 0.86,0.921 0.28,0.309 0.56,0.614 0.85,0.918 0.28,0.305 0.56,0.61 0.85,0.914 0.28,0.301 0.57,0.606 0.85,0.907 0.28,0.3 0.57,0.601 0.85,0.898 0.28,0.301 0.56,0.602 0.85,0.899 0.29,0.296 0.57,0.593 0.85,0.886 0.28,0.297 0.57,0.594 0.85,0.887 0.28,0.293 0.57,0.586 0.85,0.879 0.29,0.293 0.57,0.582 0.85,0.875 0.29,0.289 0.57,0.578 0.85,0.867 0.29,0.289 0.57,0.578 0.86,0.863 0.28,0.289 0.56,0.575 0.84,0.86 0.29,0.285 0.57,0.57 0.85,0.851 0.29,0.285 0.57,0.567 0.86,0.848 0.28,0.285 0.56,0.562 0.85,0.844 0.28,0.281 0.56,0.558 0.85,0.84 0.28,0.277 0.56,0.554 0.85,0.832 0.28,0.277 0.56,0.55 0.85,0.828 0.28,0.273 0.56,0.55 0.85,0.824 0.28,0.273 0.57,0.543 0.85,0.816 0.28,0.274 0.56,0.543 0.85,0.813 0.28,0.269 0.57,0.543 0.85,0.808 0.28,0.27 0.57,0.539 0.85,0.805 0.28,0.27 0.57,0.535 0.85,0.801 0.29,0.266 0.57,0.531 0.85,0.793 0.29,0.265 0.57,0.531 0.85,0.793 0.28,0.262 0.57,0.523 0.85,0.785 0.29,0.262 0.57,0.52 0.85,0.781 0.29,0.258 0.57,0.52 0.85,0.778 0.29,0.257 0.57,0.515 0.86,0.769 0.28,0.258 0.56,0.516 0.85,0.77 0.28,0.254 0.56,0.507 0.84,0.761 0.29,0.254 0.58,0.508 0.86,0.762 0.28,0.25 0.56,0.504 0.85,0.754 0.28,0.25 0.56,0.5 0.85,0.75 0.28,0.25 0.57,0.5 0.85,0.746 0.28,0.25 0.57,0.496 0.85,0.742 0.28,0.25 0.57,0.496 0.85,0.739 0.28,0.246 0.57,0.492 0.85,0.734 0.28,0.246 0.57,0.488 0.85,0.73 0.28,0.243 0.57,0.485 0.85,0.727 0.29,0.242 0.57,0.48 0.85,0.723 0.29,0.238 0.57,0.48 0.85,0.718 0.29,0.239 0.57,0.477 0.85,0.715 0.29,0.235 0.57,0.473 0.85,0.707 0.29,0.239 0.57,0.473 0.85,0.707 0.29,0.235 0.57,0.469 0.86,0.703 0.28,0.235 0.56,0.465 0.84,0.7 0.29,0.23 0.57,0.464 0.86,0.695 0.28,0.23 0.56,0.461 0.85,0.691 0.28,0.231 0.56,0.457 0.85,0.688 0.28,0.226 0.57,0.457 0.85,0.683 0.28,0.227 0.57,0.454 0.85,0.68 0.28,0.227 0.56,0.453 0.85,0.676 0.28,0.226 0.57,0.449 0.85,0.672 0.28,0.226 0.57,0.449 0.85,0.672 0.28,0.222 0.57,0.445 0.85,0.664 0.29,0.222 0.57,0.441 0.85,0.664 0.29,0.219 0.57,0.437 0.85,0.656 0.28,0.219 0.57,0.438 0.85,0.656 0.29,0.219 0.57,0.438 0.85,0.653 0.29,0.218 0.57,0.433 0.85,0.648 0.29,0.215 0.57,0.43 0.86,0.645 0.28,0.214 0.56,0.429 0.84,0.64 0.29,0.215 0.57,0.43 0.86,0.641 0.28,0.211 0.56,0.422 0.85,0.637 0.28,0.21 0.56,0.421 0.85,0.628 0.28,0.211 0.56,0.422 0.85,0.629 0.28,0.211 0.57,0.418 0.85,0.625 0.28,0.211 0.56,0.418 0.85,0.625 0.28,0.207 0.57,0.411 0.85,0.618 0.28,0.207 0.57,0.41 0.85,0.617 0.28,0.203 0.57,0.41 0.85,0.613 0.28,0.203 0.57,0.406 0.85,0.609 0.29,0.204 0.57,0.403 0.85,0.606 0.28,0.203 0.57,0.402 0.85,0.601 0.29,0.204 0.57,0.403 0.85,0.602 0.29,0.199 0.57,0.398 0.85,0.598 0.29,0.199 0.57,0.398 0.86,0.593 0.28,0.2 0.56,0.395 0.85,0.594 0.28,0.195 0.56,0.391 0.84,0.586 0.29,0.199 0.57,0.395 0.86,0.586 0.28,0.195 0.56,0.391 0.85,0.582 0.28,0.195 0.56,0.391 0.85,0.582 0.28,0.191 0.57,0.387 0.85,0.578 0.28,0.192 0.57,0.383 0.85,0.574 0.28,0.192 0.56,0.379 0.85,0.571 0.28,0.191 0.57,0.379 0.85,0.566 0.28,0.192 0.57,0.379 0.85,0.567 0.28,0.191 0.57,0.378 0.85,0.566 0.29,0.187 0.57,0.371 0.85,0.559 0.28,0.187 0.57,0.371 0.85,0.558 0.29,0.184 0.57,0.367 0.85,0.555 0.29,0.183 0.57,0.367 0.85,0.551 0.29,0.183 0.57,0.367 0.85,0.55 0.29,0.184 0.57,0.364 0.86,0.547 0.28,0.18 0.56,0.364 0.84,0.543 0.29,0.18 0.57,0.364 0.86,0.543 0.28,0.18 0.56,0.36 0.85,0.539 0.28,0.18 0.56,0.36 0.85,0.535 0.28,0.18 0.56,0.36 0.85,0.536 0.28,0.175 0.57,0.355 0.85,0.531 0.28,0.176 0.56,0.351 0.85,0.527 0.28,0.18 0.57,0.352 0.85,0.528 0.28,0.175 0.57,0.351 0.85,0.523 0.28,0.176 0.57,0.352 0.85,0.523 0.29,0.172 0.57,0.348 0.85,0.52 0.28,0.172 0.57,0.344 0.85,0.516 0.28,0.171 0.57,0.343 0.85,0.515 0.29,0.172 0.57,0.34 0.85,0.512 0.29,0.168 0.57,0.34 0.85,0.508 0.29,0.172 0.57,0.34 0.86,0.508 0.28,0.167 0.56,0.335 0.84,0.503 0.29,0.168 0.57,0.336 0.85,0.504 0.29,0.168 0.57,0.332 0.86,0.5 0.28,0.168 0.56,0.332 0.85,0.5 0.28,0.164 0.56,0.328 0.85,0.496 0.28,0.164 0.57,0.329 0.85,0.493 0.28,0.164 0.56,0.328 0.85,0.492 0.28,0.16 0.57,0.324 0.85,0.488 0.28,0.16 0.57,0.324 0.85,0.484 0.28,0.165 0.57,0.325 0.85,0.485 0.28,0.164 0.57,0.324 0.85,0.484 0.29,0.16 0.57,0.321 0.85,0.481 0.28,0.16 0.57,0.32 0.85,0.476 0.29,0.16 0.57,0.321 0.85,0.477 0.29,0.16 0.57,0.316 0.85,0.472 0.29,0.161 0.57,0.317 0.85,0.473 0.29,0.156 0.57,0.313 0.85,0.469 0.29,0.156 0.57,0.312 0.85,0.469 0.29,0.156 0.57,0.308 0.86,0.464 0.28,0.157 0.56,0.309 0.85,0.465 0.28,0.153 0.56,0.309 0.84,0.461 0.29,0.153 0.58,0.305 0.86,0.461 0.28,0.153 0.56,0.305 0.85,0.457 0.28,0.149 0.56,0.301 0.85,0.453 0.28,0.153 0.57,0.301 0.85,0.453 0.28,0.153 0.57,0.301 0.85,0.454 0.28,0.148 0.57,0.296 0.85,0.449 0.29,0.148 0.57,0.297 0.85,0.445 0.28,0.149 0.57,0.297 0.85,0.445 0.28,0.149 0.57,0.297 0.85,0.446 0.29,0.148 0.57,0.293 0.85,0.441 0.29,0.149 0.57,0.293 0.85,0.442 0.29,0.144 0.57,0.289 0.86,0.437 0.28,0.145 0.56,0.289 0.84,0.434 0.29,0.144 0.57,0.289 0.86,0.433 0.28,0.145 0.56,0.289 0.85,0.434 0.28,0.144 0.56,0.289 0.85,0.43 0.28,0.144 0.56,0.285 0.85,0.429 0.28,0.141 0.57,0.285 0.85,0.426 0.28,0.141 0.56,0.285 0.85,0.426 0.28,0.14 0.57,0.281 0.85,0.422 0.28,0.14 0.57,0.281 0.85,0.422 0.28,0.14 0.57,0.281 0.85,0.421 0.28,0.137 0.57,0.278 0.85,0.418 0.28,0.137 0.57,0.278 0.85,0.414 0.28,0.141 0.57,0.278 0.85,0.414 0.29,0.141 0.57,0.278 0.85,0.415 0.29,0.136 0.57,0.273 0.85,0.41 0.28,0.136 0.57,0.273 0.86,0.41 0.28,0.137 0.56,0.269 0.84,0.406 0.29,0.137 0.57,0.27 0.85,0.406 0.29,0.137 0.57,0.27 0.86,0.407 0.28,0.132 0.56,0.265 0.85,0.402 0.28,0.133 0.56,0.266 0.85,0.398 0.28,0.133 0.57,0.266 0.85,0.399 0.28,0.133 0.56,0.265 0.85,0.398 0.28,0.133 0.56,0.266 0.85,0.399 0.28,0.129 0.57,0.261 0.85,0.394 0.28,0.129 0.57,0.262 0.85,0.391 0.28,0.133 0.57,0.262 0.85,0.39 0.28,0.133 0.57,0.262 0.85,0.391 0.28,0.129 0.57,0.258 0.85,0.387 0.29,0.129 0.57,0.258 0.85,0.387 0.29,0.128 0.57,0.257 0.85,0.386 0.28,0.125 0.57,0.254 0.85,0.383 0.29,0.129 0.57,0.254 0.85,0.383 0.29,0.125 0.57,0.254 0.85,0.379 0.29,0.125 0.57,0.254 0.86,0.379 0.28,0.125 0.56,0.25 0.85,0.379 0.28,0.125 0.56,0.25 0.84,0.375 0.29,0.125 0.57,0.25 0.86,0.375 0.28,0.121 0.56,0.246 0.85,0.371 0.28,0.125 0.56,0.246 0.85,0.371 0.28,0.125 0.57,0.246 0.85,0.371 0.28,0.121 0.57,0.246 0.85,0.367 0.28,0.121 0.56,0.246 0.85,0.367 0.29,0.121 0.57,0.242 0.85,0.367 0.28,0.122 0.57,0.243 0.85,0.364 0.28,0.121 0.57,0.242 0.85,0.363 0.29,0.117 0.57,0.238 0.85,0.359 0.29,0.121 0.57,0.239 0.85,0.36 0.29,0.121 0.57,0.238 0.86,0.359 0.28,0.117 0.56,0.238 0.84,0.356 0.29,0.121 0.57,0.238 0.85,0.355 0.29,0.121 0.57,0.238 0.86,0.356 0.28,0.117 0.56,0.234 0.85,0.351 0.28,0.121 0.56,0.238 0.85,0.352 0.28,0.117 0.56,0.234 0.85,0.351 0.28,0.117 0.56,0.235 0.85,0.348 0.28,0.117 0.57,0.234 0.85,0.348 0.28,0.117 0.57,0.23 0.85,0.347 0.28,0.113 0.56,0.231 0.85,0.344 0.28,0.117 0.57,0.23 0.85,0.344 0.28,0.117 0.57,0.23 0.85,0.343 0.28,0.114 0.57,0.227 0.85,0.34 0.29,0.114 0.57,0.227 0.85,0.34 0.29,0.113 0.57,0.227 0.85,0.34 0.28,0.113 0.57,0.223 0.85,0.336 0.29,0.113 0.57,0.223 0.85,0.336 0.29,0.113 0.57,0.223 0.85,0.336 0.29,0.109 0.57,0.222 0.86,0.332 0.28,0.109 0.56,0.222 0.85,0.332 0.28,0.109 0.56,0.223 0.84,0.332 0.29,0.109 0.58,0.219 0.86,0.328 0.28,0.109 0.56,0.219 0.85,0.328 0.28,0.11 0.56,0.219 0.85,0.328 0.28,0.11 0.57,0.219 0.85,0.324 0.28,0.11 0.57,0.219 0.85,0.325 0.28,0.109 0.57,0.218 0.85,0.324 0.28,0.109 0.57,0.215 0.85,0.324 0.28,0.106 0.57,0.215 0.85,0.32 0.28,0.106 0.57,0.215 0.85,0.321 0.29,0.105 0.57,0.215 0.85,0.32 0.28,0.106 0.57,0.211 0.85,0.316 0.29,0.106 0.57,0.211 0.85,0.317 0.29,0.105 0.57,0.211 0.85,0.316 0.29,0.106 0.57,0.207 0.86,0.313 0.28,0.105 0.56,0.211 0.85,0.312 0.28,0.106 0.56,0.211 0.84,0.313 0.29,0.105 0.57,0.207 0.86,0.312 0.28,0.102 0.56,0.207 0.85,0.309 0.28,0.101 0.56,0.207 0.85,0.308" /><path
         id="path184"
         style="fill:#ffffff;fill-opacity:1;fill-rule:nonzero;stroke:none"
         d="M 10.5586,962.957 H 108.234 V 863.309 H 10.5586 v 99.648" /><path
         id="path186"
         style="fill:#000000;fill-opacity:1;fill-rule:nonzero;stroke:none"
         d="M 43.1719,911.914 H 18.5625 L 14.25,901.883 c -1.0625,-2.469 -1.5937,-4.313 -1.5937,-5.531 0,-0.969 0.4609,-1.821 1.3828,-2.555 0.9218,-0.734 2.914,-1.211 5.9765,-1.43 v -1.734 H 0 v 1.734 c 2.65625,0.469 4.375,1.078 5.15625,1.828 1.59375,1.5 3.35938,4.547 5.29685,9.141 l 22.3594,52.312 h 1.6406 l 22.125,-52.875 c 1.7813,-4.25 3.3985,-7.007 4.8516,-8.273 1.4531,-1.266 3.4766,-1.977 6.0703,-2.133 v -1.734 H 42.4219 v 1.734 c 2.5312,0.125 4.2422,0.547 5.1328,1.266 0.8906,0.719 1.3359,1.594 1.3359,2.625 0,1.375 -0.625,3.547 -1.875,6.515 z m -1.3125,3.469 -10.7813,25.687 -11.0625,-25.687 z" /><path
         id="path188"
         style="fill:#000000;fill-opacity:1;fill-rule:nonzero;stroke:none"
         d="m 70.7813,955.32 v 1.969 c 4.75,-2.344 8.7031,-5.109 11.8593,-8.297 4.4688,-4.562 7.9219,-9.914 10.3594,-16.054 2.4375,-6.141 3.6563,-12.54 3.6563,-19.196 0,-9.687 -2.3829,-18.523 -7.1485,-26.508 C 84.7422,879.25 78.5,873.539 70.7813,870.102 v 1.734 c 3.8437,2.156 7.0078,5.07 9.4921,8.742 2.4844,3.672 4.3282,8.344 5.5313,14.016 1.2031,5.672 1.8047,11.586 1.8047,17.742 0,6.656 -0.5156,12.734 -1.5469,18.234 -0.7812,4.313 -1.7578,7.766 -2.9297,10.36 -1.1719,2.593 -2.7265,5.093 -4.664,7.5 -1.9375,2.406 -4.5,4.703 -7.6875,6.89 v 0" /><path
         id="path190"
         style="fill:#ffffff;fill-opacity:1;fill-rule:nonzero;stroke:none"
         d="m 1023.63,963.656 h 97.67 v -99.652 h -97.67 v 99.652" /><path
         id="path192"
         style="fill:#000000;fill-opacity:1;fill-rule:nonzero;stroke:none"
         d="m 1076.8,953.215 0.66,-13.875 h -1.69 c -1,4.5 -2.54,7.359 -4.61,8.578 -2.08,1.219 -5.78,1.828 -11.09,1.828 h -10.69 v -25.172 h 2.53 c 7.79,0 13.5,-0.492 17.16,-1.476 3.66,-0.985 6.63,-2.868 8.93,-5.649 2.3,-2.781 3.45,-6.125 3.45,-10.031 0,-4.719 -1.75,-8.859 -5.25,-12.422 -3.5,-3.562 -9.54,-5.344 -18.1,-5.344 h -26.9 v 1.735 c 3.93,0.125 6.45,0.75 7.54,1.875 1.1,1.125 1.64,3.781 1.64,7.968 v 40.407 c 0,3.218 -0.22,5.39 -0.68,6.515 -0.45,1.125 -1.19,1.922 -2.22,2.391 -1.03,0.469 -2.94,0.781 -5.72,0.937 v 1.735 z m -27.42,-59.766 c 2.75,-0.437 4.89,-0.656 6.42,-0.656 3.85,0 7.33,1.281 10.43,3.844 3.11,2.562 4.67,6.109 4.67,10.64 0,4.688 -1.63,8.164 -4.88,10.43 -3.25,2.266 -7.37,3.398 -12.37,3.398 -1.41,0 -2.83,-0.125 -4.27,-0.375 v -27.281" /><path
         id="path194"
         style="fill:#000000;fill-opacity:1;fill-rule:nonzero;stroke:none"
         d="m 1086.79,954.34 v 1.969 c 4.75,-2.344 8.7,-5.11 11.86,-8.297 4.47,-4.563 7.92,-9.914 10.36,-16.055 2.44,-6.141 3.65,-12.539 3.65,-19.195 0,-9.688 -2.38,-18.524 -7.14,-26.508 -4.77,-7.984 -11.01,-13.695 -18.73,-17.133 v 1.734 c 3.84,2.157 7.01,5.071 9.49,8.743 2.49,3.672 4.33,8.343 5.53,14.015 1.21,5.672 1.81,11.586 1.81,17.742 0,6.657 -0.52,12.735 -1.55,18.235 -0.78,4.312 -1.76,7.765 -2.93,10.359 -1.17,2.594 -2.73,5.094 -4.66,7.5 -1.94,2.406 -4.5,4.703 -7.69,6.891 v 0" /><path
         id="path196"
         style="fill:#ffffff;fill-opacity:1;fill-rule:nonzero;stroke:none"
         d="m 2048.09,960.746 h 97.68 v -99.652 h -97.68 v 99.652" /><path
         id="path198"
         style="fill:#000000;fill-opacity:1;fill-rule:nonzero;stroke:none"
         d="m 2088.54,919.711 c 4.41,-0.938 7.71,-2.438 9.89,-4.5 3.03,-2.875 4.55,-6.391 4.55,-10.547 0,-3.156 -1,-6.18 -3,-9.07 -2,-2.891 -4.74,-5 -8.23,-6.328 -3.48,-1.328 -8.8,-1.993 -15.96,-1.993 h -30 v 1.735 h 2.39 c 2.66,0 4.57,0.844 5.72,2.531 0.72,1.094 1.08,3.422 1.08,6.984 v 41.063 c 0,3.937 -0.45,6.422 -1.36,7.453 -1.22,1.375 -3.03,2.063 -5.44,2.063 h -2.39 v 1.734 h 27.47 c 5.13,0 9.24,-0.375 12.33,-1.125 4.69,-1.125 8.27,-3.117 10.73,-5.977 2.47,-2.859 3.71,-6.148 3.71,-9.867 0,-3.187 -0.97,-6.039 -2.91,-8.554 -1.94,-2.516 -4.8,-4.383 -8.58,-5.602 z m -24.56,2.531 c 1.16,-0.219 2.48,-0.383 3.96,-0.492 1.49,-0.109 3.12,-0.164 4.9,-0.164 4.56,0 7.99,0.492 10.29,1.477 2.3,0.984 4.05,2.492 5.27,4.523 1.22,2.031 1.83,4.25 1.83,6.656 0,3.719 -1.52,6.891 -4.55,9.516 -3.03,2.625 -7.45,3.937 -13.26,3.937 -3.13,0 -5.94,-0.343 -8.44,-1.031 z m 0,-30.375 c 3.63,-0.844 7.2,-1.265 10.73,-1.265 5.66,0 9.97,1.273 12.94,3.82 2.97,2.547 4.46,5.695 4.46,9.445 0,2.469 -0.68,4.844 -2.02,7.125 -1.34,2.281 -3.53,4.078 -6.56,5.391 -3.03,1.312 -6.78,1.969 -11.25,1.969 -1.94,0 -3.6,-0.032 -4.97,-0.094 -1.38,-0.063 -2.49,-0.172 -3.33,-0.328 v -26.063" /><path
         id="path200"
         style="fill:#000000;fill-opacity:1;fill-rule:nonzero;stroke:none"
         d="m 2110.48,951.961 v 1.969 c 4.75,-2.344 8.7,-5.11 11.86,-8.297 4.47,-4.563 7.92,-9.914 10.36,-16.055 2.44,-6.14 3.66,-12.539 3.66,-19.195 0,-9.688 -2.39,-18.524 -7.15,-26.508 -4.77,-7.984 -11.01,-13.695 -18.73,-17.133 v 1.735 c 3.84,2.156 7.01,5.07 9.49,8.742 2.49,3.672 4.33,8.344 5.53,14.015 1.21,5.672 1.81,11.586 1.81,17.743 0,6.656 -0.52,12.734 -1.55,18.234 -0.78,4.312 -1.76,7.766 -2.93,10.359 -1.17,2.594 -2.72,5.094 -4.66,7.5 -1.94,2.407 -4.5,4.703 -7.69,6.891 v 0" /></g></g></svg>