<?xml version="1.0" encoding="UTF-8" standalone="no"?>
<svg
   xmlns:dc="http://purl.org/dc/elements/1.1/"
   xmlns:cc="http://creativecommons.org/ns#"
   xmlns:rdf="http://www.w3.org/1999/02/22-rdf-syntax-ns#"
   xmlns:svg="http://www.w3.org/2000/svg"
   xmlns="http://www.w3.org/2000/svg"
   viewBox="0 0 373.16 100.85333"
   height="100.85333"
   width="373.16"
   xml:space="preserve"
   id="svg2"
   version="1.1"><metadata
     id="metadata8"><rdf:RDF><cc:Work
         rdf:about=""><dc:format>image/svg+xml</dc:format><dc:type
           rdf:resource="http://purl.org/dc/dcmitype/StillImage" /></cc:Work></rdf:RDF></metadata><defs
     id="defs6" /><g
     transform="matrix(1.3333333,0,0,-1.3333333,0,100.85333)"
     id="g10"><g
       transform="scale(0.1)"
       id="g12"><path
         id="path14"
         style="fill:none;stroke:#000000;stroke-width:5.19999981;stroke-linecap:round;stroke-linejoin:miter;stroke-miterlimit:10;stroke-dasharray:none;stroke-opacity:1"
         d="m 44.1797,298.141 c 462.9223,1.136 462.9223,1.136 462.9223,1.136" /><path
         id="path16"
         style="fill:#000000;fill-opacity:1;fill-rule:evenodd;stroke:none"
         d="m 486.305,299.227 -10.375,-10.426 36.375,10.492 -36.426,10.309 10.426,-10.375" /><path
         id="path18"
         style="fill:none;stroke:#000000;stroke-width:2.5999999;stroke-linecap:butt;stroke-linejoin:miter;stroke-miterlimit:10;stroke-dasharray:none;stroke-opacity:1"
         d="m 486.305,299.227 -10.375,-10.426 36.375,10.492 -36.426,10.309 z" /><path
         id="path20"
         style="fill:#000000;fill-opacity:1;fill-rule:evenodd;stroke:none"
         d="m 202.371,249.102 c 0,7.55 1.137,14.054 3.418,19.507 2.277,5.454 5.305,9.512 9.082,12.184 2.93,2.113 5.957,3.172 9.082,3.172 5.078,0 9.633,-2.586 13.672,-7.762 5.043,-6.414 7.566,-15.105 7.566,-26.074 0,-7.684 -1.105,-14.211 -3.32,-19.582 -2.215,-5.371 -5.039,-9.27 -8.473,-11.695 -3.433,-2.422 -6.746,-3.637 -9.933,-3.637 -6.317,0 -11.574,3.726 -15.774,11.183 -3.546,6.282 -5.32,13.848 -5.32,22.704 z m 9.57,-1.219 c 0,-9.117 1.122,-16.555 3.368,-22.317 1.855,-4.851 4.621,-7.273 8.3,-7.273 1.758,0 3.582,0.789 5.469,2.367 1.887,1.578 3.32,4.223 4.297,7.934 1.496,5.597 2.246,13.492 2.246,23.683 0,7.551 -0.781,13.848 -2.344,18.895 -1.172,3.742 -2.683,6.398 -4.539,7.961 -1.336,1.074 -2.949,1.609 -4.836,1.609 -2.214,0 -4.183,-0.992 -5.906,-2.976 -2.344,-2.703 -3.941,-6.953 -4.785,-12.746 -0.848,-5.793 -1.27,-11.508 -1.27,-17.137 v 0" /><path
         id="path22"
         style="fill:none;stroke:#000000;stroke-width:5.19999981;stroke-linecap:round;stroke-linejoin:miter;stroke-miterlimit:10;stroke-dasharray:none;stroke-opacity:1"
         d="M 252.164,19.2578 C 251.301,740.961 251.301,740.961 251.301,740.961" /><path
         id="path24"
         style="fill:#000000;fill-opacity:1;fill-rule:evenodd;stroke:none"
         d="m 251.328,720.164 10.41,-10.391 -10.441,36.391 -10.359,-36.414 10.39,10.414" /><path
         id="path26"
         style="fill:none;stroke:#000000;stroke-width:2.5999999;stroke-linecap:butt;stroke-linejoin:miter;stroke-miterlimit:10;stroke-dasharray:none;stroke-opacity:1"
         d="m 251.328,720.164 10.41,-10.391 -10.441,36.391 -10.359,-36.414 z" /><path
         id="path28"
         style="fill:#000000;fill-opacity:1;fill-rule:evenodd;stroke:none"
         d="m 488.754,272.746 c 1.598,-1.691 2.801,-3.387 3.613,-5.078 0.586,-1.172 1.547,-4.246 2.883,-9.227 l 4.297,6.446 c 1.137,1.562 2.523,3.051 4.148,4.465 1.629,1.418 3.063,2.386 4.297,2.906 0.781,0.324 1.645,0.488 2.59,0.488 1.398,0 2.516,-0.375 3.344,-1.121 0.832,-0.75 1.246,-1.66 1.246,-2.734 0,-1.239 -0.246,-2.086 -0.734,-2.539 -0.911,-0.817 -1.954,-1.223 -3.125,-1.223 -0.684,0 -1.415,0.148 -2.196,0.441 -1.531,0.52 -2.554,0.782 -3.078,0.782 -0.781,0 -1.707,-0.457 -2.781,-1.368 -2.02,-1.695 -4.426,-4.964 -7.227,-9.816 l 4.004,-16.797 c 0.617,-2.57 1.137,-4.109 1.563,-4.613 0.422,-0.504 0.843,-0.758 1.269,-0.758 0.684,0 1.481,0.375 2.391,1.125 1.793,1.496 3.32,3.449 4.59,5.859 l 1.711,-0.879 c -2.051,-3.843 -4.657,-7.031 -7.813,-9.57 -1.793,-1.433 -3.305,-2.148 -4.543,-2.148 -1.82,0 -3.269,1.023 -4.344,3.074 -0.683,1.269 -2.101,6.738 -4.25,16.406 -5.078,-8.82 -9.144,-14.5 -12.207,-17.039 -1.984,-1.629 -3.906,-2.441 -5.761,-2.441 -1.301,0 -2.489,0.468 -3.563,1.414 -0.781,0.715 -1.172,1.676 -1.172,2.883 0,1.074 0.356,1.968 1.074,2.683 0.715,0.715 1.594,1.074 2.637,1.074 1.039,0 2.149,-0.519 3.321,-1.562 0.847,-0.75 1.496,-1.121 1.953,-1.121 0.39,0 0.894,0.258 1.511,0.781 1.532,1.234 3.614,3.906 6.25,8.008 2.637,4.101 4.364,7.062 5.176,8.887 -2.015,7.91 -3.109,12.089 -3.269,12.546 -0.75,2.118 -1.727,3.614 -2.93,4.493 -1.207,0.879 -2.981,1.32 -5.324,1.32 -0.746,0 -1.61,-0.035 -2.586,-0.098 v 1.758 l 13.035,2.293" /><path
         id="path30"
         style="fill:#000000;fill-opacity:1;fill-rule:evenodd;stroke:none"
         d="m 195.988,742.398 c 1.106,-1.886 1.871,-3.652 2.293,-5.296 0.426,-1.645 0.848,-4.875 1.27,-9.692 l 2.148,-24.023 c 1.953,2.343 4.785,6.054 8.496,11.133 1.793,2.472 4.004,5.843 6.641,10.105 1.598,2.605 2.574,4.43 2.93,5.469 0.195,0.523 0.293,1.058 0.293,1.613 0,0.356 -0.114,0.648 -0.34,0.879 -0.227,0.227 -0.821,0.496 -1.781,0.805 -0.961,0.308 -1.758,0.879 -2.395,1.711 -0.633,0.828 -0.953,1.781 -0.953,2.855 0,1.332 0.39,2.406 1.172,3.223 0.781,0.812 1.758,1.218 2.929,1.218 1.434,0 2.657,-0.593 3.664,-1.781 1.008,-1.187 1.512,-2.824 1.512,-4.906 0,-2.574 -0.879,-5.512 -2.637,-8.813 -1.757,-3.304 -5.14,-8.375 -10.156,-15.21 -5.011,-6.836 -11.082,-14.293 -18.211,-22.364 -4.914,-5.566 -8.562,-9.074 -10.937,-10.523 -2.375,-1.449 -4.41,-2.172 -6.106,-2.172 -1.007,0 -1.894,0.383 -2.66,1.148 -0.765,0.762 -1.148,1.649 -1.148,2.661 0,1.269 0.531,2.425 1.59,3.464 1.058,1.043 2.203,1.563 3.441,1.563 0.652,0 1.187,-0.145 1.609,-0.438 0.262,-0.164 0.547,-0.629 0.856,-1.39 0.308,-0.766 0.594,-1.278 0.855,-1.539 0.164,-0.164 0.36,-0.246 0.586,-0.246 0.196,0 0.535,0.164 1.024,0.488 1.793,1.109 3.875,2.867 6.25,5.273 3.125,3.192 5.437,5.797 6.933,7.813 l -2.734,30.957 c -0.453,5.113 -1.137,8.219 -2.051,9.328 -0.91,1.105 -2.441,1.66 -4.59,1.66 -0.683,0 -1.902,-0.098 -3.66,-0.293 l -0.441,1.805 14.308,3.515" /><path
         id="path32"
         style="fill:none;stroke:#000000;stroke-width:5.19999981;stroke-linecap:round;stroke-linejoin:miter;stroke-miterlimit:10;stroke-dasharray:none;stroke-opacity:1"
         d="m 795.906,298.141 c 483.544,1.136 483.544,1.136 483.544,1.136" /><path
         id="path34"
         style="fill:#000000;fill-opacity:1;fill-rule:evenodd;stroke:none"
         d="m 1258.65,299.23 -10.37,-10.425 36.37,10.488 -36.42,10.312 10.42,-10.375" /><path
         id="path36"
         style="fill:none;stroke:#000000;stroke-width:2.5999999;stroke-linecap:butt;stroke-linejoin:miter;stroke-miterlimit:10;stroke-dasharray:none;stroke-opacity:1"
         d="m 1258.65,299.23 -10.37,-10.425 36.37,10.488 -36.42,10.312 z" /><path
         id="path38"
         style="fill:#000000;fill-opacity:1;fill-rule:evenodd;stroke:none"
         d="m 932.188,239.328 c 0,7.555 1.136,14.055 3.417,19.508 2.278,5.453 5.305,9.512 9.083,12.184 2.929,2.113 5.957,3.171 9.082,3.171 5.078,0 9.632,-2.586 13.671,-7.761 5.043,-6.414 7.567,-15.106 7.567,-26.075 0,-7.683 -1.106,-14.21 -3.32,-19.582 -2.211,-5.371 -5.036,-9.269 -8.473,-11.691 -3.434,-2.426 -6.746,-3.641 -9.934,-3.641 -6.316,0 -11.574,3.727 -15.773,11.184 -3.547,6.281 -5.32,13.852 -5.32,22.703 z m 9.57,-1.219 c 0,-9.117 1.121,-16.554 3.367,-22.316 1.855,-4.848 4.625,-7.273 8.301,-7.273 1.758,0 3.582,0.789 5.469,2.367 1.89,1.578 3.32,4.222 4.296,7.933 1.5,5.602 2.247,13.493 2.247,23.684 0,7.551 -0.782,13.851 -2.344,18.894 -1.172,3.747 -2.684,6.399 -4.539,7.961 -1.336,1.075 -2.946,1.61 -4.836,1.61 -2.211,0 -4.184,-0.992 -5.906,-2.977 -2.344,-2.703 -3.942,-6.949 -4.786,-12.746 -0.847,-5.793 -1.269,-11.508 -1.269,-17.137 v 0" /><path
         id="path40"
         style="fill:none;stroke:#000000;stroke-width:5.19999981;stroke-linecap:round;stroke-linejoin:miter;stroke-miterlimit:10;stroke-dasharray:none;stroke-opacity:1"
         d="M 987.008,3.70313 C 986.145,734.773 986.145,734.773 986.145,734.773" /><path
         id="path42"
         style="fill:#000000;fill-opacity:1;fill-rule:evenodd;stroke:none"
         d="m 986.168,713.977 10.414,-10.391 -10.445,36.391 -10.356,-36.414 10.387,10.414" /><path
         id="path44"
         style="fill:none;stroke:#000000;stroke-width:2.5999999;stroke-linecap:butt;stroke-linejoin:miter;stroke-miterlimit:10;stroke-dasharray:none;stroke-opacity:1"
         d="m 986.168,713.977 10.414,-10.391 -10.445,36.391 -10.356,-36.414 z" /><path
         id="path46"
         style="fill:#000000;fill-opacity:1;fill-rule:evenodd;stroke:none"
         d="m 1259.68,365.43 c 1.59,-1.692 2.8,-3.383 3.61,-5.078 0.59,-1.172 1.55,-4.247 2.88,-9.227 l 4.3,6.445 c 1.14,1.563 2.52,3.051 4.15,4.465 1.63,1.418 3.06,2.387 4.29,2.906 0.79,0.329 1.65,0.489 2.59,0.489 1.4,0 2.52,-0.375 3.35,-1.121 0.83,-0.75 1.24,-1.661 1.24,-2.735 0,-1.238 -0.24,-2.086 -0.73,-2.539 -0.91,-0.816 -1.95,-1.222 -3.13,-1.222 -0.68,0 -1.41,0.148 -2.19,0.441 -1.53,0.519 -2.56,0.781 -3.08,0.781 -0.78,0 -1.71,-0.457 -2.78,-1.367 -2.02,-1.695 -4.43,-4.965 -7.23,-9.816 l 4.01,-16.797 c 0.61,-2.571 1.14,-4.11 1.56,-4.614 0.42,-0.503 0.85,-0.757 1.27,-0.757 0.68,0 1.48,0.375 2.39,1.125 1.79,1.496 3.32,3.449 4.59,5.859 l 1.71,-0.879 c -2.05,-3.844 -4.66,-7.031 -7.81,-9.57 -1.79,-1.434 -3.31,-2.149 -4.54,-2.149 -1.83,0 -3.27,1.024 -4.35,3.075 -0.68,1.269 -2.1,6.738 -4.25,16.406 -5.08,-8.821 -9.14,-14.5 -12.21,-17.039 -1.98,-1.629 -3.9,-2.442 -5.76,-2.442 -1.3,0 -2.49,0.473 -3.56,1.414 -0.78,0.719 -1.17,1.676 -1.17,2.883 0,1.074 0.36,1.969 1.07,2.684 0.72,0.719 1.6,1.074 2.64,1.074 1.04,0 2.15,-0.52 3.32,-1.562 0.84,-0.747 1.5,-1.122 1.95,-1.122 0.39,0 0.9,0.258 1.51,0.782 1.54,1.234 3.62,3.906 6.25,8.007 2.64,4.102 4.37,7.063 5.18,8.887 -2.02,7.91 -3.11,12.094 -3.27,12.547 -0.75,2.117 -1.73,3.613 -2.93,4.492 -1.2,0.879 -2.98,1.321 -5.32,1.321 -0.75,0 -1.61,-0.036 -2.59,-0.098 v 1.758 l 13.04,2.293" /><path
         id="path48"
         style="fill:#000000;fill-opacity:1;fill-rule:evenodd;stroke:none"
         d="m 940.895,738.27 c 1.105,-1.887 1.871,-3.653 2.293,-5.297 0.425,-1.645 0.847,-4.875 1.269,-9.696 l 2.148,-24.023 c 1.954,2.344 4.786,6.055 8.497,11.133 1.793,2.476 4.003,5.843 6.64,10.109 1.598,2.606 2.574,4.426 2.93,5.469 0.195,0.519 0.293,1.058 0.293,1.609 0,0.36 -0.113,0.653 -0.34,0.879 -0.23,0.231 -0.824,0.5 -1.785,0.809 -0.957,0.308 -1.758,0.879 -2.391,1.707 -0.636,0.832 -0.953,1.781 -0.953,2.855 0,1.336 0.391,2.41 1.172,3.223 0.781,0.816 1.758,1.223 2.93,1.223 1.433,0 2.652,-0.594 3.664,-1.782 1.008,-1.187 1.511,-2.824 1.511,-4.91 0,-2.57 -0.878,-5.508 -2.636,-8.812 -1.758,-3.305 -5.141,-8.375 -10.157,-15.211 -5.011,-6.836 -11.082,-14.289 -18.21,-22.364 -4.918,-5.566 -8.563,-9.07 -10.938,-10.519 -2.379,-1.449 -4.41,-2.176 -6.105,-2.176 -1.008,0 -1.895,0.383 -2.661,1.149 -0.765,0.765 -1.148,1.652 -1.148,2.66 0,1.269 0.531,2.425 1.586,3.468 1.059,1.043 2.207,1.563 3.445,1.563 0.649,0 1.188,-0.148 1.61,-0.441 0.261,-0.161 0.546,-0.625 0.855,-1.391 0.309,-0.766 0.594,-1.277 0.856,-1.539 0.16,-0.16 0.355,-0.242 0.585,-0.242 0.196,0 0.536,0.164 1.024,0.488 1.793,1.105 3.875,2.863 6.25,5.273 3.125,3.192 5.437,5.793 6.934,7.813 l -2.735,30.957 c -0.453,5.109 -1.137,8.219 -2.051,9.324 -0.91,1.11 -2.441,1.66 -4.589,1.66 -0.684,0 -1.903,-0.097 -3.661,-0.293 l -0.441,1.809 14.309,3.516" /><path
         id="path50"
         style="fill:none;stroke:#000000;stroke-width:8;stroke-linecap:round;stroke-linejoin:round;stroke-miterlimit:10;stroke-dasharray:none;stroke-opacity:1"
         d="M 226.922,681.598 C 314.984,46.207 314.984,46.207 314.984,46.207" /><path
         id="path52"
         style="fill:#000000;fill-opacity:1;fill-rule:evenodd;stroke:none"
         d="m 0,745.188 16.1133,7.859 h 1.6133 v -55.906 c -0.0039,-3.711 0.1523,-6.024 0.4609,-6.934 0.3086,-0.914 0.9531,-1.613 1.9297,-2.102 0.9766,-0.488 2.9609,-0.765 5.957,-0.828 v -1.808 H 1.17188 v 1.808 c 3.125,0.063 5.14453,0.332 6.05468,0.805 0.91016,0.473 1.54688,1.106 1.90625,1.906 0.35547,0.797 0.53516,3.18 0.53516,7.153 v 35.742 c 0,4.816 -0.16406,7.91 -0.48828,9.277 -0.22656,1.039 -0.64453,1.805 -1.2461,2.293 -0.60156,0.488 -1.32421,0.735 -2.17187,0.735 -1.20313,0 -2.87891,-0.504 -5.027345,-1.516 L 0,745.188" /><path
         id="path54"
         style="fill:#000000;fill-opacity:1;fill-rule:evenodd;stroke:none"
         d="m 40.5273,752.852 v 2.05 c 4.9493,-2.441 9.0665,-5.32 12.3555,-8.64 4.6524,-4.754 8.25,-10.328 10.7891,-16.723 2.539,-6.398 3.8086,-13.062 3.8086,-19.996 0,-10.094 -2.4805,-19.297 -7.4453,-27.613 -4.9649,-8.317 -11.4688,-14.266 -19.5079,-17.848 v 1.809 c 4.004,2.246 7.3008,5.281 9.8868,9.105 2.5898,3.824 4.5078,8.692 5.7617,14.602 1.2539,5.906 1.8828,12.066 1.8828,18.48 0,6.934 -0.5391,13.266 -1.6133,18.992 -0.8125,4.493 -1.832,8.09 -3.0508,10.793 -1.2226,2.7 -2.8398,5.305 -4.8593,7.813 -2.0196,2.504 -4.6875,4.898 -8.0079,7.176 v 0" /><path
         id="path56"
         style="fill:#000000;fill-opacity:1;fill-rule:evenodd;stroke:none"
         d="m 751.848,700.832 -4.637,-12.746 h -39.063 v 1.809 c 11.493,10.48 19.579,19.043 24.266,25.683 4.688,6.641 7.031,12.711 7.031,18.211 0,4.199 -1.285,7.649 -3.855,10.352 -2.57,2.703 -5.649,4.054 -9.231,4.054 -3.254,0 -6.175,-0.953 -8.761,-2.859 -2.59,-1.902 -4.5,-4.695 -5.739,-8.371 h -1.808 c 0.816,6.019 2.906,10.644 6.277,13.867 3.367,3.223 7.574,4.832 12.621,4.832 5.371,0 9.856,-1.726 13.453,-5.176 3.594,-3.449 5.395,-7.519 5.395,-12.207 0,-3.351 -0.781,-6.707 -2.344,-10.058 -2.41,-5.274 -6.316,-10.856 -11.719,-16.746 -8.105,-8.856 -13.168,-14.196 -15.187,-16.016 h 17.285 c 3.516,0 5.984,0.129 7.398,0.391 1.418,0.257 2.696,0.789 3.833,1.586 1.14,0.796 2.132,1.929 2.98,3.394 h 1.805" /><path
         id="path58"
         style="fill:#000000;fill-opacity:1;fill-rule:evenodd;stroke:none"
         d="m 758.246,755.469 v 2.051 c 4.949,-2.442 9.067,-5.321 12.352,-8.641 4.656,-4.754 8.254,-10.328 10.793,-16.727 2.539,-6.394 3.808,-13.058 3.808,-19.992 0,-10.094 -2.484,-19.297 -7.445,-27.613 -4.965,-8.317 -11.469,-14.266 -19.508,-17.848 v 1.809 c 4.004,2.246 7.301,5.281 9.887,9.105 2.59,3.825 4.508,8.692 5.762,14.598 1.253,5.91 1.878,12.07 1.878,18.484 0,6.934 -0.535,13.262 -1.609,18.993 -0.812,4.492 -1.832,8.089 -3.051,10.792 -1.222,2.7 -2.84,5.305 -4.859,7.813 -2.02,2.504 -4.688,4.898 -8.008,7.176 v 0" /><path
         id="path60"
         style="fill:none;stroke:#000000;stroke-width:5.19999981;stroke-linecap:round;stroke-linejoin:miter;stroke-miterlimit:10;stroke-dasharray:none;stroke-opacity:1"
         d="m 1525.66,297.574 c 475.12,1.137 475.12,1.137 475.12,1.137" /><path
         id="path62"
         style="fill:#000000;fill-opacity:1;fill-rule:evenodd;stroke:none"
         d="m 1979.98,298.664 -10.37,-10.426 36.37,10.489 -36.43,10.312 10.43,-10.375" /><path
         id="path64"
         style="fill:none;stroke:#000000;stroke-width:2.5999999;stroke-linecap:butt;stroke-linejoin:miter;stroke-miterlimit:10;stroke-dasharray:none;stroke-opacity:1"
         d="m 1979.98,298.664 -10.37,-10.426 36.37,10.489 -36.43,10.312 z" /><path
         id="path66"
         style="fill:#000000;fill-opacity:1;fill-rule:evenodd;stroke:none"
         d="m 1688.28,248.535 c 0,7.551 1.14,14.055 3.42,19.508 2.28,5.453 5.3,9.512 9.08,12.184 2.93,2.113 5.96,3.171 9.08,3.171 5.08,0 9.64,-2.585 13.68,-7.761 5.04,-6.414 7.56,-15.106 7.56,-26.074 0,-7.684 -1.1,-14.211 -3.32,-19.583 -2.21,-5.371 -5.03,-9.269 -8.47,-11.695 -3.43,-2.426 -6.74,-3.637 -9.93,-3.637 -6.32,0 -11.58,3.727 -15.78,11.184 -3.55,6.281 -5.32,13.848 -5.32,22.703 z m 9.57,-1.219 c 0,-9.117 1.12,-16.554 3.37,-22.316 1.85,-4.852 4.62,-7.273 8.3,-7.273 1.76,0 3.58,0.789 5.47,2.367 1.89,1.578 3.32,4.222 4.3,7.933 1.5,5.598 2.24,13.493 2.24,23.684 0,7.551 -0.78,13.848 -2.34,18.894 -1.17,3.743 -2.69,6.399 -4.54,7.961 -1.34,1.075 -2.95,1.61 -4.84,1.61 -2.21,0 -4.18,-0.992 -5.9,-2.977 -2.35,-2.703 -3.94,-6.953 -4.79,-12.746 -0.85,-5.793 -1.27,-11.508 -1.27,-17.137 v 0" /><path
         id="path68"
         style="fill:none;stroke:#000000;stroke-width:5.19999981;stroke-linecap:round;stroke-linejoin:miter;stroke-miterlimit:10;stroke-dasharray:none;stroke-opacity:1"
         d="M 1738.08,9.27734 C 1737.21,740.352 1737.21,740.352 1737.21,740.352" /><path
         id="path70"
         style="fill:#000000;fill-opacity:1;fill-rule:evenodd;stroke:none"
         d="m 1737.24,719.551 10.41,-10.387 -10.44,36.387 -10.36,-36.41 10.39,10.41" /><path
         id="path72"
         style="fill:none;stroke:#000000;stroke-width:2.5999999;stroke-linecap:butt;stroke-linejoin:miter;stroke-miterlimit:10;stroke-dasharray:none;stroke-opacity:1"
         d="m 1737.24,719.551 10.41,-10.387 -10.44,36.387 -10.36,-36.41 z" /><path
         id="path74"
         style="fill:#000000;fill-opacity:1;fill-rule:evenodd;stroke:none"
         d="m 1966.82,367.871 c 1.6,-1.695 2.8,-3.387 3.62,-5.078 0.58,-1.172 1.54,-4.25 2.88,-9.23 l 4.29,6.445 c 1.14,1.562 2.53,3.051 4.16,4.469 1.62,1.414 3.05,2.382 4.29,2.906 0.78,0.324 1.65,0.488 2.59,0.488 1.4,0 2.51,-0.375 3.35,-1.125 0.82,-0.75 1.24,-1.66 1.24,-2.734 0,-1.239 -0.24,-2.082 -0.73,-2.539 -0.91,-0.813 -1.96,-1.219 -3.13,-1.219 -0.68,0 -1.42,0.144 -2.2,0.437 -1.52,0.52 -2.55,0.782 -3.07,0.782 -0.78,0 -1.71,-0.457 -2.79,-1.368 -2.01,-1.691 -4.42,-4.964 -7.22,-9.812 l 4,-16.797 c 0.62,-2.574 1.14,-4.113 1.56,-4.617 0.43,-0.504 0.85,-0.754 1.27,-0.754 0.69,0 1.48,0.371 2.4,1.121 1.79,1.496 3.32,3.449 4.59,5.859 l 1.71,-0.878 c -2.06,-3.84 -4.66,-7.032 -7.82,-9.571 -1.79,-1.433 -3.3,-2.148 -4.54,-2.148 -1.82,0 -3.27,1.027 -4.34,3.078 -0.69,1.269 -2.1,6.738 -4.25,16.406 -5.08,-8.824 -9.15,-14.504 -12.21,-17.043 -1.99,-1.629 -3.9,-2.441 -5.76,-2.441 -1.3,0 -2.49,0.472 -3.57,1.418 -0.78,0.715 -1.17,1.676 -1.17,2.879 0,1.074 0.36,1.968 1.08,2.687 0.72,0.715 1.59,1.074 2.63,1.074 1.05,0 2.15,-0.523 3.32,-1.562 0.85,-0.75 1.5,-1.125 1.96,-1.125 0.39,0 0.9,0.262 1.51,0.781 1.53,1.238 3.62,3.906 6.25,8.008 2.64,4.102 4.37,7.062 5.18,8.887 -2.02,7.91 -3.11,12.093 -3.27,12.55 -0.75,2.114 -1.73,3.614 -2.93,4.493 -1.21,0.879 -2.98,1.316 -5.32,1.316 -0.75,0 -1.62,-0.031 -2.59,-0.098 v 1.758 l 13.03,2.297" /><path
         id="path76"
         style="fill:#000000;fill-opacity:1;fill-rule:evenodd;stroke:none"
         d="m 1681.9,741.832 c 1.11,-1.887 1.87,-3.652 2.3,-5.297 0.42,-1.644 0.84,-4.875 1.26,-9.691 l 2.15,-24.024 c 1.96,2.344 4.79,6.055 8.5,11.133 1.79,2.473 4,5.844 6.64,10.106 1.59,2.605 2.57,4.429 2.93,5.468 0.2,0.524 0.29,1.059 0.29,1.614 0,0.355 -0.11,0.648 -0.34,0.879 -0.23,0.226 -0.82,0.496 -1.78,0.804 -0.96,0.309 -1.76,0.879 -2.39,1.707 -0.64,0.832 -0.96,1.785 -0.96,2.86 0,1.332 0.39,2.406 1.18,3.222 0.78,0.813 1.75,1.219 2.93,1.219 1.43,0 2.65,-0.594 3.66,-1.781 1.01,-1.188 1.51,-2.824 1.51,-4.906 0,-2.575 -0.88,-5.512 -2.64,-8.817 -1.75,-3.301 -5.14,-8.371 -10.15,-15.207 -5.02,-6.836 -11.09,-14.293 -18.22,-22.363 -4.91,-5.567 -8.56,-9.074 -10.93,-10.524 -2.38,-1.449 -4.41,-2.171 -6.11,-2.171 -1.01,0 -1.89,0.382 -2.66,1.148 -0.76,0.762 -1.14,1.648 -1.14,2.66 0,1.27 0.52,2.426 1.58,3.465 1.06,1.043 2.21,1.562 3.44,1.562 0.66,0 1.19,-0.144 1.62,-0.437 0.25,-0.164 0.54,-0.629 0.85,-1.395 0.31,-0.761 0.6,-1.277 0.85,-1.535 0.17,-0.164 0.36,-0.246 0.59,-0.246 0.19,0 0.54,0.164 1.03,0.488 1.79,1.11 3.87,2.868 6.25,5.274 3.12,3.191 5.43,5.797 6.93,7.812 l -2.73,30.957 c -0.46,5.114 -1.14,8.219 -2.05,9.329 -0.92,1.105 -2.45,1.66 -4.59,1.66 -0.69,0 -1.91,-0.098 -3.67,-0.293 l -0.44,1.804 14.31,3.516" /><path
         id="path78"
         style="fill:#000000;fill-opacity:1;fill-rule:evenodd;stroke:none"
         d="m 1470.86,741.133 c 1.89,4.461 4.27,7.902 7.16,10.328 2.87,2.426 6.46,3.637 10.76,3.637 5.31,0 9.38,-1.723 12.21,-5.176 2.15,-2.57 3.22,-5.32 3.22,-8.25 0,-4.817 -3.03,-9.797 -9.08,-14.942 4.07,-1.593 7.14,-3.875 9.23,-6.835 2.08,-2.961 3.12,-6.446 3.12,-10.45 0,-5.73 -1.82,-10.695 -5.46,-14.894 -4.76,-5.469 -11.64,-8.203 -20.66,-8.203 -4.46,0 -7.5,0.554 -9.11,1.66 -1.61,1.109 -2.41,2.297 -2.41,3.566 0,0.946 0.38,1.774 1.14,2.489 0.77,0.718 1.69,1.074 2.76,1.074 0.82,0 1.65,-0.129 2.49,-0.391 0.56,-0.16 1.81,-0.754 3.76,-1.781 1.96,-1.024 3.31,-1.637 4.06,-1.832 1.2,-0.356 2.49,-0.535 3.85,-0.535 3.32,0 6.21,1.285 8.67,3.855 2.46,2.574 3.69,5.617 3.69,9.133 0,2.57 -0.57,5.078 -1.71,7.519 -0.85,1.825 -1.78,3.208 -2.78,4.149 -1.41,1.305 -3.32,2.484 -5.77,3.543 -2.44,1.055 -4.93,1.586 -7.47,1.586 h -1.56 v 1.465 c 2.57,0.324 5.15,1.254 7.74,2.781 2.59,1.531 4.47,3.371 5.64,5.519 1.17,2.149 1.76,4.508 1.76,7.079 0,3.355 -1.06,6.062 -3.15,8.132 -2.1,2.067 -4.71,3.098 -7.84,3.098 -5.05,0 -9.26,-2.699 -12.65,-8.105 l -1.61,0.781" /><path
         id="path80"
         style="fill:#000000;fill-opacity:1;fill-rule:evenodd;stroke:none"
         d="m 1518.03,754.902 v 2.051 c 4.95,-2.441 9.07,-5.32 12.35,-8.64 4.66,-4.754 8.26,-10.329 10.8,-16.723 2.53,-6.399 3.8,-13.063 3.8,-19.996 0,-10.09 -2.48,-19.297 -7.44,-27.614 -4.97,-8.316 -11.47,-14.265 -19.51,-17.847 v 1.808 c 4.01,2.247 7.3,5.282 9.89,9.106 2.58,3.824 4.51,8.691 5.76,14.601 1.25,5.907 1.88,12.067 1.88,18.481 0,6.934 -0.54,13.266 -1.61,18.992 -0.82,4.492 -1.83,8.09 -3.06,10.793 -1.21,2.703 -2.84,5.305 -4.85,7.813 -2.02,2.507 -4.69,4.898 -8.01,7.175 v 0" /><path
         id="path82"
         style="fill:none;stroke:#000000;stroke-width:8;stroke-linecap:round;stroke-linejoin:round;stroke-miterlimit:10;stroke-dasharray:none;stroke-opacity:1"
         d="M 1222.54,637.484 C 944.891,36.7461 944.891,36.7461 944.891,36.7461" /><path
         id="path84"
         style="fill:none;stroke:#000000;stroke-width:8;stroke-linecap:round;stroke-linejoin:round;stroke-miterlimit:10;stroke-dasharray:none;stroke-opacity:1"
         d="M 1785.11,725.02 C 1604.45,46.582 1604.45,46.582 1604.45,46.582" /><path
         id="path86"
         style="fill:none;stroke:#000000;stroke-width:5.19999981;stroke-linecap:round;stroke-linejoin:miter;stroke-miterlimit:10;stroke-dasharray:none;stroke-opacity:1"
         d="m 2317.11,290.738 c 475.12,1.137 475.12,1.137 475.12,1.137" /><path
         id="path88"
         style="fill:#000000;fill-opacity:1;fill-rule:evenodd;stroke:none"
         d="m 2771.43,291.824 -10.38,-10.422 36.38,10.485 -36.43,10.312 10.43,-10.375" /><path
         id="path90"
         style="fill:none;stroke:#000000;stroke-width:2.5999999;stroke-linecap:butt;stroke-linejoin:miter;stroke-miterlimit:10;stroke-dasharray:none;stroke-opacity:1"
         d="m 2771.43,291.824 -10.38,-10.422 36.38,10.485 -36.43,10.312 z" /><path
         id="path92"
         style="fill:#000000;fill-opacity:1;fill-rule:evenodd;stroke:none"
         d="m 2479.73,241.699 c 0,7.551 1.14,14.055 3.42,19.504 2.28,5.453 5.3,9.516 9.08,12.184 2.93,2.117 5.96,3.176 9.08,3.176 5.08,0 9.64,-2.59 13.67,-7.766 5.05,-6.41 7.57,-15.102 7.57,-26.074 0,-7.68 -1.1,-14.207 -3.32,-19.578 -2.21,-5.372 -5.03,-9.27 -8.47,-11.696 -3.44,-2.426 -6.75,-3.636 -9.94,-3.636 -6.31,0 -11.57,3.726 -15.77,11.179 -3.55,6.285 -5.32,13.852 -5.32,22.707 z m 9.57,-1.222 c 0,-9.114 1.12,-16.551 3.37,-22.313 1.85,-4.851 4.62,-7.277 8.3,-7.277 1.76,0 3.58,0.789 5.47,2.371 1.89,1.578 3.32,4.222 4.29,7.933 1.5,5.598 2.25,13.493 2.25,23.68 0,7.555 -0.78,13.852 -2.34,18.899 -1.18,3.742 -2.69,6.394 -4.54,7.957 -1.34,1.074 -2.95,1.613 -4.84,1.613 -2.21,0 -4.18,-0.992 -5.9,-2.981 -2.35,-2.699 -3.95,-6.949 -4.79,-12.742 -0.85,-5.797 -1.27,-11.508 -1.27,-17.14 v 0" /><path
         id="path94"
         style="fill:none;stroke:#000000;stroke-width:5.19999981;stroke-linecap:round;stroke-linejoin:miter;stroke-miterlimit:10;stroke-dasharray:none;stroke-opacity:1"
         d="m 2529.53,18.1484 c -0.87,715.4496 -0.87,715.4496 -0.87,715.4496" /><path
         id="path96"
         style="fill:#000000;fill-opacity:1;fill-rule:evenodd;stroke:none"
         d="m 2528.69,712.797 10.41,-10.387 -10.44,36.387 -10.36,-36.414 10.39,10.414" /><path
         id="path98"
         style="fill:none;stroke:#000000;stroke-width:2.5999999;stroke-linecap:butt;stroke-linejoin:miter;stroke-miterlimit:10;stroke-dasharray:none;stroke-opacity:1"
         d="m 2528.69,712.797 10.41,-10.387 -10.44,36.387 -10.36,-36.414 z" /><path
         id="path100"
         style="fill:#000000;fill-opacity:1;fill-rule:evenodd;stroke:none"
         d="m 2758.27,361.031 c 1.6,-1.691 2.8,-3.383 3.62,-5.078 0.58,-1.172 1.54,-4.246 2.88,-9.226 l 4.29,6.445 c 1.14,1.562 2.53,3.051 4.15,4.465 1.63,1.418 3.06,2.386 4.3,2.906 0.78,0.328 1.64,0.488 2.59,0.488 1.4,0 2.51,-0.375 3.34,-1.121 0.83,-0.75 1.25,-1.66 1.25,-2.734 0,-1.238 -0.24,-2.086 -0.73,-2.539 -0.92,-0.817 -1.96,-1.223 -3.13,-1.223 -0.68,0 -1.42,0.149 -2.2,0.441 -1.53,0.52 -2.55,0.782 -3.07,0.782 -0.78,0 -1.71,-0.457 -2.79,-1.367 -2.02,-1.696 -4.42,-4.965 -7.22,-9.817 l 4,-16.797 c 0.62,-2.57 1.14,-4.109 1.56,-4.613 0.43,-0.504 0.85,-0.758 1.27,-0.758 0.69,0 1.48,0.375 2.4,1.125 1.79,1.496 3.32,3.449 4.59,5.86 l 1.7,-0.879 c -2.05,-3.844 -4.65,-7.032 -7.81,-9.571 -1.79,-1.433 -3.3,-2.148 -4.54,-2.148 -1.82,0 -3.27,1.023 -4.34,3.074 -0.69,1.27 -2.1,6.738 -4.25,16.406 -5.08,-8.82 -9.15,-14.5 -12.21,-17.039 -1.99,-1.629 -3.9,-2.441 -5.76,-2.441 -1.3,0 -2.49,0.473 -3.57,1.414 -0.78,0.719 -1.17,1.676 -1.17,2.883 0,1.074 0.36,1.969 1.08,2.683 0.71,0.719 1.59,1.075 2.63,1.075 1.05,0 2.15,-0.52 3.32,-1.563 0.85,-0.746 1.5,-1.121 1.96,-1.121 0.39,0 0.89,0.258 1.51,0.781 1.53,1.235 3.62,3.906 6.25,8.008 2.64,4.102 4.36,7.063 5.18,8.887 -2.02,7.91 -3.11,12.094 -3.28,12.547 -0.75,2.117 -1.72,3.613 -2.93,4.492 -1.2,0.879 -2.97,1.32 -5.32,1.32 -0.75,0 -1.61,-0.035 -2.59,-0.098 v 1.758 l 13.04,2.293" /><path
         id="path102"
         style="fill:#000000;fill-opacity:1;fill-rule:evenodd;stroke:none"
         d="m 2473.35,734.996 c 1.1,-1.887 1.87,-3.652 2.29,-5.297 0.43,-1.644 0.85,-4.875 1.27,-9.695 l 2.15,-24.024 c 1.95,2.344 4.79,6.055 8.49,11.133 1.8,2.477 4.01,5.844 6.65,10.11 1.59,2.605 2.57,4.425 2.93,5.468 0.19,0.52 0.29,1.059 0.29,1.61 0,0.359 -0.12,0.652 -0.34,0.879 -0.23,0.23 -0.82,0.5 -1.78,0.808 -0.96,0.309 -1.76,0.879 -2.4,1.707 -0.63,0.832 -0.95,1.782 -0.95,2.856 0,1.336 0.39,2.41 1.17,3.222 0.78,0.817 1.76,1.223 2.93,1.223 1.43,0 2.66,-0.594 3.66,-1.781 1.01,-1.188 1.52,-2.824 1.52,-4.91 0,-2.571 -0.88,-5.508 -2.64,-8.813 -1.76,-3.304 -5.14,-8.375 -10.15,-15.211 -5.02,-6.836 -11.09,-14.289 -18.22,-22.363 -4.91,-5.566 -8.56,-9.07 -10.93,-10.52 -2.38,-1.449 -4.41,-2.175 -6.11,-2.175 -1.01,0 -1.89,0.382 -2.66,1.148 -0.77,0.766 -1.15,1.652 -1.15,2.66 0,1.27 0.53,2.426 1.59,3.469 1.06,1.043 2.2,1.563 3.44,1.563 0.65,0 1.19,-0.149 1.62,-0.442 0.25,-0.16 0.54,-0.625 0.85,-1.391 0.31,-0.765 0.59,-1.277 0.85,-1.539 0.17,-0.16 0.36,-0.242 0.59,-0.242 0.19,0 0.53,0.164 1.03,0.489 1.79,1.105 3.87,2.863 6.24,5.273 3.13,3.191 5.44,5.793 6.94,7.812 l -2.74,30.957 c -0.45,5.11 -1.14,8.219 -2.05,9.325 -0.91,1.109 -2.44,1.66 -4.59,1.66 -0.68,0 -1.9,-0.098 -3.66,-0.293 l -0.44,1.808 14.31,3.516" /><path
         id="path104"
         style="fill:#000000;fill-opacity:1;fill-rule:evenodd;stroke:none"
         d="m 2303.77,705.098 v -6.934 h -8.89 v -17.48 h -8.06 v 17.48 h -28.02 v 6.25 l 30.71,43.848 h 5.37 v -43.164 z m -16.95,0 v 32.863 l -23.24,-32.863 z" /><path
         id="path106"
         style="fill:#000000;fill-opacity:1;fill-rule:evenodd;stroke:none"
         d="m 2309.48,748.066 v 2.051 c 4.95,-2.441 9.06,-5.32 12.35,-8.64 4.66,-4.754 8.26,-10.329 10.8,-16.727 2.53,-6.395 3.8,-13.059 3.8,-19.992 0,-10.094 -2.48,-19.297 -7.45,-27.613 -4.96,-8.317 -11.46,-14.266 -19.5,-17.848 v 1.808 c 4,2.247 7.3,5.282 9.89,9.106 2.58,3.824 4.51,8.691 5.76,14.598 1.25,5.91 1.88,12.07 1.88,18.484 0,6.934 -0.54,13.262 -1.62,18.992 -0.81,4.492 -1.82,8.09 -3.05,10.793 -1.21,2.699 -2.84,5.305 -4.85,7.813 -2.02,2.504 -4.69,4.898 -8.01,7.175 v 0" /><path
         id="path108"
         style="fill:none;stroke:#000000;stroke-width:8;stroke-linecap:round;stroke-linejoin:round;stroke-miterlimit:10;stroke-dasharray:none;stroke-opacity:1"
         d="M 2325.18,332.918 C 2720.58,32.375 2720.58,32.375 2720.58,32.375" /></g></g></svg>