<?xml version="1.0" encoding="UTF-8" standalone="no"?>
<svg
   xmlns:dc="http://purl.org/dc/elements/1.1/"
   xmlns:cc="http://creativecommons.org/ns#"
   xmlns:rdf="http://www.w3.org/1999/02/22-rdf-syntax-ns#"
   xmlns:svg="http://www.w3.org/2000/svg"
   xmlns="http://www.w3.org/2000/svg"
   viewBox="0 0 133.33333 18.666668"
   height="18.666668"
   width="133.33333"
   xml:space="preserve"
   id="svg2"
   version="1.1"><metadata
     id="metadata8"><rdf:RDF><cc:Work
         rdf:about=""><dc:format>image/svg+xml</dc:format><dc:type
           rdf:resource="http://purl.org/dc/dcmitype/StillImage" /></cc:Work></rdf:RDF></metadata><defs
     id="defs6"><clipPath
       id="clipPath20"
       clipPathUnits="userSpaceOnUse"><path
         style="clip-rule:evenodd"
         id="path18"
         d="M 942.297,137.125 H 660.152 v -27.094 h 282.145 z" /></clipPath><clipPath
       id="clipPath64"
       clipPathUnits="userSpaceOnUse"><path
         style="clip-rule:evenodd"
         id="path62"
         d="M 3.97656,137.125 H 285.461 V 110.031 H 3.97656 Z" /></clipPath></defs><g
     transform="matrix(1.3333333,0,0,-1.3333333,0,18.666667)"
     id="g10"><g
       transform="scale(0.1)"
       id="g12"><g
         id="g14"><g
           clip-path="url(#clipPath20)"
           id="g16"><path
             id="path22"
             style="fill:none;stroke:#231f20;stroke-width:2.88000011;stroke-linecap:butt;stroke-linejoin:miter;stroke-miterlimit:2.61310005;stroke-dasharray:none;stroke-opacity:1"
             d="M 617.992,105.66 819.059,306.727" /><path
             id="path24"
             style="fill:none;stroke:#231f20;stroke-width:2.88000011;stroke-linecap:butt;stroke-linejoin:miter;stroke-miterlimit:2.61310005;stroke-dasharray:none;stroke-opacity:1"
             d="M 635.813,87.8398 836.879,288.906" /><path
             id="path26"
             style="fill:none;stroke:#231f20;stroke-width:2.88000011;stroke-linecap:butt;stroke-linejoin:miter;stroke-miterlimit:2.61310005;stroke-dasharray:none;stroke-opacity:1"
             d="M 653.633,70.0234 854.695,271.09" /><path
             id="path28"
             style="fill:none;stroke:#231f20;stroke-width:2.88000011;stroke-linecap:butt;stroke-linejoin:miter;stroke-miterlimit:2.61310005;stroke-dasharray:none;stroke-opacity:1"
             d="M 671.449,52.2031 872.516,253.27" /><path
             id="path30"
             style="fill:none;stroke:#231f20;stroke-width:2.88000011;stroke-linecap:butt;stroke-linejoin:miter;stroke-miterlimit:2.61310005;stroke-dasharray:none;stroke-opacity:1"
             d="M 689.27,34.3828 890.336,235.449" /><path
             id="path32"
             style="fill:none;stroke:#231f20;stroke-width:2.88000011;stroke-linecap:butt;stroke-linejoin:miter;stroke-miterlimit:2.61310005;stroke-dasharray:none;stroke-opacity:1"
             d="M 707.09,16.5664 908.156,217.633" /><path
             id="path34"
             style="fill:none;stroke:#231f20;stroke-width:2.88000011;stroke-linecap:butt;stroke-linejoin:miter;stroke-miterlimit:2.61310005;stroke-dasharray:none;stroke-opacity:1"
             d="M 724.906,-1.25391 925.973,199.813" /><path
             id="path36"
             style="fill:none;stroke:#231f20;stroke-width:2.88000011;stroke-linecap:butt;stroke-linejoin:miter;stroke-miterlimit:2.61310005;stroke-dasharray:none;stroke-opacity:1"
             d="M 742.727,-19.0742 943.793,181.992" /><path
             id="path38"
             style="fill:none;stroke:#231f20;stroke-width:2.88000011;stroke-linecap:butt;stroke-linejoin:miter;stroke-miterlimit:2.61310005;stroke-dasharray:none;stroke-opacity:1"
             d="M 760.547,-36.8906 961.613,164.176" /><path
             id="path40"
             style="fill:none;stroke:#231f20;stroke-width:2.88000011;stroke-linecap:butt;stroke-linejoin:miter;stroke-miterlimit:2.61310005;stroke-dasharray:none;stroke-opacity:1"
             d="M 778.363,-54.7109 979.43,146.355" /><path
             id="path42"
             style="fill:none;stroke:#231f20;stroke-width:2.88000011;stroke-linecap:butt;stroke-linejoin:miter;stroke-miterlimit:2.61310005;stroke-dasharray:none;stroke-opacity:1"
             d="M 796.184,-72.5313 997.25,128.535" /><path
             id="path44"
             style="fill:none;stroke:#231f20;stroke-width:2.88000011;stroke-linecap:butt;stroke-linejoin:miter;stroke-miterlimit:2.61310005;stroke-dasharray:none;stroke-opacity:1"
             d="M 814.004,-90.3477 1015.07,110.715" /></g></g><path
         id="path46"
         style="fill:none;stroke:#231f20;stroke-width:7.5005002;stroke-linecap:butt;stroke-linejoin:miter;stroke-miterlimit:2.61310005;stroke-dasharray:none;stroke-opacity:1"
         d="M 3.97656,107.691 948.785,110.566" /><path
         id="path48"
         style="fill:#231f20;fill-opacity:1;fill-rule:evenodd;stroke:none"
         d="m 944.551,136.898 47.98,-26.203 -47.82,-26.4958 z" /><path
         id="path50"
         style="fill:#ffffff;fill-opacity:1;fill-rule:evenodd;stroke:none"
         d="m 298.832,121.16 c 7.07,0 12.801,-5.73 12.801,-12.793 0,-7.066 -5.731,-12.7928 -12.801,-12.7928 -7.07,0 -12.797,5.7268 -12.797,12.7928 0,7.063 5.727,12.793 12.797,12.793" /><path
         id="path52"
         style="fill:none;stroke:#231f20;stroke-width:5.00029993;stroke-linecap:butt;stroke-linejoin:miter;stroke-miterlimit:2.61310005;stroke-dasharray:none;stroke-opacity:1"
         d="m 298.832,121.16 c 7.07,0 12.801,-5.73 12.801,-12.793 0,-7.066 -5.731,-12.7928 -12.801,-12.7928 -7.07,0 -12.797,5.7268 -12.797,12.7928 0,7.063 5.727,12.793 12.797,12.793 z" /><path
         id="path54"
         style="fill:#ffffff;fill-opacity:1;fill-rule:evenodd;stroke:none"
         d="m 658.832,121.16 c 7.07,0 12.801,-5.73 12.801,-12.793 0,-7.066 -5.731,-12.7928 -12.801,-12.7928 -7.07,0 -12.797,5.7268 -12.797,12.7928 0,7.063 5.727,12.793 12.797,12.793" /><path
         id="path56"
         style="fill:none;stroke:#231f20;stroke-width:5.00029993;stroke-linecap:butt;stroke-linejoin:miter;stroke-miterlimit:2.61310005;stroke-dasharray:none;stroke-opacity:1"
         d="m 658.832,121.16 c 7.07,0 12.801,-5.73 12.801,-12.793 0,-7.066 -5.731,-12.7928 -12.801,-12.7928 -7.07,0 -12.797,5.7268 -12.797,12.7928 0,7.063 5.727,12.793 12.797,12.793 z" /><g
         id="g58"><g
           clip-path="url(#clipPath64)"
           id="g60"><path
             id="path66"
             style="fill:none;stroke:#231f20;stroke-width:2.88000011;stroke-linecap:butt;stroke-linejoin:miter;stroke-miterlimit:2.61310005;stroke-dasharray:none;stroke-opacity:1"
             d="M -37.7813,105.66 162.777,306.219" /><path
             id="path68"
             style="fill:none;stroke:#231f20;stroke-width:2.88000011;stroke-linecap:butt;stroke-linejoin:miter;stroke-miterlimit:2.61310005;stroke-dasharray:none;stroke-opacity:1"
             d="M -19.9609,87.8398 180.598,288.402" /><path
             id="path70"
             style="fill:none;stroke:#231f20;stroke-width:2.88000011;stroke-linecap:butt;stroke-linejoin:miter;stroke-miterlimit:2.61310005;stroke-dasharray:none;stroke-opacity:1"
             d="M -2.14063,70.0234 198.418,270.582" /><path
             id="path72"
             style="fill:none;stroke:#231f20;stroke-width:2.88000011;stroke-linecap:butt;stroke-linejoin:miter;stroke-miterlimit:2.61310005;stroke-dasharray:none;stroke-opacity:1"
             d="M 15.6758,52.2031 216.238,252.762" /><path
             id="path74"
             style="fill:none;stroke:#231f20;stroke-width:2.88000011;stroke-linecap:butt;stroke-linejoin:miter;stroke-miterlimit:2.61310005;stroke-dasharray:none;stroke-opacity:1"
             d="M 33.4961,34.3828 234.055,234.945" /><path
             id="path76"
             style="fill:none;stroke:#231f20;stroke-width:2.88000011;stroke-linecap:butt;stroke-linejoin:miter;stroke-miterlimit:2.61310005;stroke-dasharray:none;stroke-opacity:1"
             d="M 51.3164,16.5664 251.875,217.125" /><path
             id="path78"
             style="fill:none;stroke:#231f20;stroke-width:2.88000011;stroke-linecap:butt;stroke-linejoin:miter;stroke-miterlimit:2.61310005;stroke-dasharray:none;stroke-opacity:1"
             d="M 69.1328,-1.25391 269.695,199.305" /><path
             id="path80"
             style="fill:none;stroke:#231f20;stroke-width:2.88000011;stroke-linecap:butt;stroke-linejoin:miter;stroke-miterlimit:2.61310005;stroke-dasharray:none;stroke-opacity:1"
             d="M 86.9531,-19.0742 287.512,181.484" /><path
             id="path82"
             style="fill:none;stroke:#231f20;stroke-width:2.88000011;stroke-linecap:butt;stroke-linejoin:miter;stroke-miterlimit:2.61310005;stroke-dasharray:none;stroke-opacity:1"
             d="M 104.773,-36.8906 305.332,163.668" /><path
             id="path84"
             style="fill:none;stroke:#231f20;stroke-width:2.88000011;stroke-linecap:butt;stroke-linejoin:miter;stroke-miterlimit:2.61310005;stroke-dasharray:none;stroke-opacity:1"
             d="M 122.594,-54.7109 323.152,145.848" /><path
             id="path86"
             style="fill:none;stroke:#231f20;stroke-width:2.88000011;stroke-linecap:butt;stroke-linejoin:miter;stroke-miterlimit:2.61310005;stroke-dasharray:none;stroke-opacity:1"
             d="M 140.41,-72.5313 340.969,128.027" /><path
             id="path88"
             style="fill:none;stroke:#231f20;stroke-width:2.88000011;stroke-linecap:butt;stroke-linejoin:miter;stroke-miterlimit:2.61310005;stroke-dasharray:none;stroke-opacity:1"
             d="M 158.23,-90.3477 358.789,110.211" /></g></g><path
         id="path90"
         style="fill:#231f20;fill-opacity:1;fill-rule:nonzero;stroke:none"
         d="m 277.941,41.6914 c 0.004,7.5508 1.145,14.0469 3.43,19.4961 2.289,5.4492 5.309,9.5117 9.094,12.1758 2.933,2.1172 5.953,3.1797 9.086,3.1797 5.062,-0.0039 9.633,-2.6094 13.66,-7.7774 5.043,-6.4218 7.555,-15.1093 7.547,-26.0898 -0.008,-7.6836 -1.113,-14.1992 -3.332,-19.5625 -2.223,-5.3828 -5.043,-9.2813 -8.477,-11.6953 -3.433,-2.42972 -6.75,-3.62894 -9.953,-3.62503 -6.301,0.00391 -11.562,3.72653 -15.758,11.19533 -3.547,6.2851 -5.304,13.8555 -5.297,22.7031 z m 9.563,-1.2226 c -0.004,-9.1172 1.105,-16.5704 3.351,-22.3204 1.844,-4.8515 4.625,-7.289 8.293,-7.289 1.766,-0.0039 3.586,0.7969 5.469,2.3633 1.899,1.582 3.336,4.2304 4.305,7.9296 1.504,5.5977 2.262,13.4961 2.269,23.6797 0.008,7.5508 -0.773,13.8516 -2.336,18.9024 -1.164,3.75 -2.679,6.4023 -4.523,7.9687 -1.336,1.0664 -2.949,1.6016 -4.836,1.6055 -2.215,0 -4.183,-0.9805 -5.918,-2.9609 -2.336,-2.6993 -3.937,-6.9493 -4.793,-12.7461 -0.855,-5.8008 -1.273,-11.5 -1.281,-17.1328" /><path
         id="path92"
         style="fill:#231f20;fill-opacity:1;fill-rule:nonzero;stroke:none"
         d="m 644.973,13.207 0.004,1.8008 c 4.23,0.0625 8.183,1.043 11.82,2.9531 3.648,1.9024 7.187,5.2305 10.59,9.9766 3.402,4.75 5.773,9.9609 7.109,15.6602 -5.117,-3.2774 -9.734,-4.9219 -13.867,-4.9219 -4.652,0.0039 -8.649,1.8086 -11.961,5.4101 -3.316,3.6016 -4.98,8.3711 -4.977,14.336 0.004,5.8047 1.676,10.9492 5,15.4804 4.004,5.4961 9.239,8.2422 15.688,8.2383 5.434,-0.0039 10.078,-2.2578 13.945,-6.7617 4.762,-5.5703 7.121,-12.4375 7.117,-20.6016 -0.007,-7.3515 -1.812,-14.2187 -5.433,-20.582 -3.625,-6.3633 -8.66,-11.6445 -15.098,-15.8242 -5.25,-3.4609 -10.953,-5.1719 -17.152,-5.168 z m 30.308,34.0078 c 0.59,4.2344 0.891,7.6172 0.895,10.1524 0,3.1641 -0.547,6.5625 -1.61,10.2305 -1.082,3.6718 -2.597,6.4687 -4.558,8.4218 -1.965,1.9688 -4.199,2.9375 -6.715,2.9375 -2.902,0.0039 -5.438,-1.2968 -7.621,-3.8945 -2.184,-2.5977 -3.27,-6.4805 -3.274,-11.6133 -0.007,-6.8633 1.438,-12.25 4.336,-16.1211 2.098,-2.7968 4.711,-4.1992 7.797,-4.2031 1.5,0 3.282,0.3477 5.332,1.0625 2.055,0.7148 3.856,1.7305 5.418,3.0273" /><path
         id="path94"
         style="fill:#231f20;fill-opacity:1;fill-rule:nonzero;stroke:none"
         d="m 938.926,71.957 c 1.543,-1.7382 2.703,-3.4609 3.48,-5.164 0.559,-1.1836 1.434,-4.2891 2.645,-9.293 l 4.457,6.332 c 1.172,1.5274 2.597,2.9883 4.25,4.3672 1.676,1.3594 3.125,2.3047 4.379,2.7852 0.785,0.3086 1.652,0.457 2.601,0.4179 1.383,-0.0195 2.5,-0.4218 3.313,-1.1914 0.797,-0.7734 1.195,-1.6914 1.172,-2.7734 -0.039,-1.2344 -0.289,-2.0664 -0.789,-2.5156 -0.942,-0.7969 -1.993,-1.1719 -3.157,-1.1367 -0.687,0.0195 -1.418,0.1718 -2.183,0.4921 -1.516,0.5547 -2.547,0.8438 -3.063,0.8633 -0.785,0.0196 -1.718,-0.4258 -2.804,-1.3047 -2.075,-1.6445 -4.551,-4.8515 -7.473,-9.625 L 949.34,37.332 c 0.558,-2.5859 1.035,-4.1367 1.449,-4.6562 0.414,-0.5195 0.828,-0.7852 1.246,-0.7852 0.684,-0.0195 1.485,0.3399 2.422,1.0547 1.82,1.461 3.395,3.3711 4.723,5.75 l 1.695,-0.9258 c -2.148,-3.7929 -4.824,-6.914 -8.055,-9.3672 -1.82,-1.3945 -3.34,-2.0703 -4.59,-2.0351 -1.816,0.043 -3.23,1.0976 -4.253,3.1836 -0.661,1.289 -1.942,6.7773 -3.836,16.5 -5.301,-8.6953 -9.508,-14.2617 -12.633,-16.7344 -2.02,-1.5742 -3.961,-2.332 -5.809,-2.293 -1.301,0.0391 -2.484,0.543 -3.527,1.5118 -0.766,0.7382 -1.125,1.707 -1.106,2.9062 0.024,1.0664 0.407,1.9492 1.145,2.6445 0.734,0.7149 1.621,1.0469 2.652,1.0235 1.051,-0.0352 2.149,-0.5742 3.278,-1.6446 0.832,-0.7695 1.48,-1.1718 1.929,-1.1757 0.399,-0.0196 0.903,0.2304 1.535,0.7422 1.555,1.1953 3.7,3.8203 6.45,7.8437 2.73,4.0391 4.527,6.9492 5.383,8.7617 -1.821,7.9414 -2.801,12.1641 -2.95,12.6133 -0.691,2.1367 -1.64,3.6563 -2.82,4.5586 -1.176,0.9062 -2.941,1.3984 -5.293,1.457 -0.746,0.0157 -1.598,0.0039 -2.582,-0.039 l 0.039,1.7656 13.094,1.9648" /></g></g></svg>