<?xml version="1.0" encoding="UTF-8" standalone="no"?>
<svg
   xmlns:dc="http://purl.org/dc/elements/1.1/"
   xmlns:cc="http://creativecommons.org/ns#"
   xmlns:rdf="http://www.w3.org/1999/02/22-rdf-syntax-ns#"
   xmlns:svg="http://www.w3.org/2000/svg"
   xmlns="http://www.w3.org/2000/svg"
   viewBox="0 0 133.33333 18.666668"
   height="18.666668"
   width="133.33333"
   xml:space="preserve"
   id="svg2"
   version="1.1"><metadata
     id="metadata8"><rdf:RDF><cc:Work
         rdf:about=""><dc:format>image/svg+xml</dc:format><dc:type
           rdf:resource="http://purl.org/dc/dcmitype/StillImage" /></cc:Work></rdf:RDF></metadata><defs
     id="defs6"><clipPath
       id="clipPath20"
       clipPathUnits="userSpaceOnUse"><path
         style="clip-rule:evenodd"
         id="path18"
         d="M 942.297,137.125 H 660.152 v -27.094 h 282.145 z" /></clipPath><clipPath
       id="clipPath66"
       clipPathUnits="userSpaceOnUse"><path
         style="clip-rule:evenodd"
         id="path64"
         d="M 3.97656,137.125 H 285.461 V 110.031 H 3.97656 Z" /></clipPath></defs><g
     transform="matrix(1.3333333,0,0,-1.3333333,0,18.666667)"
     id="g10"><g
       transform="scale(0.1)"
       id="g12"><g
         id="g14"><g
           clip-path="url(#clipPath20)"
           id="g16"><path
             id="path22"
             style="fill:none;stroke:#231f20;stroke-width:2.88000011;stroke-linecap:butt;stroke-linejoin:miter;stroke-miterlimit:2.61310005;stroke-dasharray:none;stroke-opacity:1"
             d="M 617.992,105.66 819.059,306.727" /><path
             id="path24"
             style="fill:none;stroke:#231f20;stroke-width:2.88000011;stroke-linecap:butt;stroke-linejoin:miter;stroke-miterlimit:2.61310005;stroke-dasharray:none;stroke-opacity:1"
             d="M 635.813,87.8398 836.879,288.906" /><path
             id="path26"
             style="fill:none;stroke:#231f20;stroke-width:2.88000011;stroke-linecap:butt;stroke-linejoin:miter;stroke-miterlimit:2.61310005;stroke-dasharray:none;stroke-opacity:1"
             d="M 653.633,70.0234 854.695,271.09" /><path
             id="path28"
             style="fill:none;stroke:#231f20;stroke-width:2.88000011;stroke-linecap:butt;stroke-linejoin:miter;stroke-miterlimit:2.61310005;stroke-dasharray:none;stroke-opacity:1"
             d="M 671.449,52.2031 872.516,253.27" /><path
             id="path30"
             style="fill:none;stroke:#231f20;stroke-width:2.88000011;stroke-linecap:butt;stroke-linejoin:miter;stroke-miterlimit:2.61310005;stroke-dasharray:none;stroke-opacity:1"
             d="M 689.27,34.3828 890.336,235.449" /><path
             id="path32"
             style="fill:none;stroke:#231f20;stroke-width:2.88000011;stroke-linecap:butt;stroke-linejoin:miter;stroke-miterlimit:2.61310005;stroke-dasharray:none;stroke-opacity:1"
             d="M 707.09,16.5664 908.156,217.633" /><path
             id="path34"
             style="fill:none;stroke:#231f20;stroke-width:2.88000011;stroke-linecap:butt;stroke-linejoin:miter;stroke-miterlimit:2.61310005;stroke-dasharray:none;stroke-opacity:1"
             d="M 724.906,-1.25391 925.973,199.813" /><path
             id="path36"
             style="fill:none;stroke:#231f20;stroke-width:2.88000011;stroke-linecap:butt;stroke-linejoin:miter;stroke-miterlimit:2.61310005;stroke-dasharray:none;stroke-opacity:1"
             d="M 742.727,-19.0742 943.793,181.992" /><path
             id="path38"
             style="fill:none;stroke:#231f20;stroke-width:2.88000011;stroke-linecap:butt;stroke-linejoin:miter;stroke-miterlimit:2.61310005;stroke-dasharray:none;stroke-opacity:1"
             d="M 760.547,-36.8906 961.613,164.176" /><path
             id="path40"
             style="fill:none;stroke:#231f20;stroke-width:2.88000011;stroke-linecap:butt;stroke-linejoin:miter;stroke-miterlimit:2.61310005;stroke-dasharray:none;stroke-opacity:1"
             d="M 778.363,-54.7109 979.43,146.355" /><path
             id="path42"
             style="fill:none;stroke:#231f20;stroke-width:2.88000011;stroke-linecap:butt;stroke-linejoin:miter;stroke-miterlimit:2.61310005;stroke-dasharray:none;stroke-opacity:1"
             d="M 796.184,-72.5313 997.25,128.535" /><path
             id="path44"
             style="fill:none;stroke:#231f20;stroke-width:2.88000011;stroke-linecap:butt;stroke-linejoin:miter;stroke-miterlimit:2.61310005;stroke-dasharray:none;stroke-opacity:1"
             d="M 814.004,-90.3477 1015.07,110.715" /></g></g><path
         id="path46"
         style="fill:none;stroke:#231f20;stroke-width:5.00029993;stroke-linecap:butt;stroke-linejoin:miter;stroke-miterlimit:2.61310005;stroke-dasharray:none;stroke-opacity:1"
         d="m 197.137,42.9805 h 51.504" /><path
         id="path48"
         style="fill:none;stroke:#231f20;stroke-width:7.5005002;stroke-linecap:butt;stroke-linejoin:miter;stroke-miterlimit:2.61310005;stroke-dasharray:none;stroke-opacity:1"
         d="M 3.97656,107.691 948.785,110.566" /><path
         id="path50"
         style="fill:#231f20;fill-opacity:1;fill-rule:evenodd;stroke:none"
         d="m 944.551,136.898 47.98,-26.203 -47.82,-26.4958 z" /><path
         id="path52"
         style="fill:#ffffff;fill-opacity:1;fill-rule:evenodd;stroke:none"
         d="m 298.832,121.16 c 7.07,0 12.801,-5.73 12.801,-12.793 0,-7.066 -5.731,-12.7928 -12.801,-12.7928 -7.07,0 -12.797,5.7268 -12.797,12.7928 0,7.063 5.727,12.793 12.797,12.793" /><path
         id="path54"
         style="fill:none;stroke:#231f20;stroke-width:5.00029993;stroke-linecap:butt;stroke-linejoin:miter;stroke-miterlimit:2.61310005;stroke-dasharray:none;stroke-opacity:1"
         d="m 298.832,121.16 c 7.07,0 12.801,-5.73 12.801,-12.793 0,-7.066 -5.731,-12.7928 -12.801,-12.7928 -7.07,0 -12.797,5.7268 -12.797,12.7928 0,7.063 5.727,12.793 12.797,12.793 z" /><path
         id="path56"
         style="fill:#ffffff;fill-opacity:1;fill-rule:evenodd;stroke:none"
         d="m 658.832,121.16 c 7.07,0 12.801,-5.73 12.801,-12.793 0,-7.066 -5.731,-12.7928 -12.801,-12.7928 -7.07,0 -12.797,5.7268 -12.797,12.7928 0,7.063 5.727,12.793 12.797,12.793" /><path
         id="path58"
         style="fill:none;stroke:#231f20;stroke-width:5.00029993;stroke-linecap:butt;stroke-linejoin:miter;stroke-miterlimit:2.61310005;stroke-dasharray:none;stroke-opacity:1"
         d="m 658.832,121.16 c 7.07,0 12.801,-5.73 12.801,-12.793 0,-7.066 -5.731,-12.7928 -12.801,-12.7928 -7.07,0 -12.797,5.7268 -12.797,12.7928 0,7.063 5.727,12.793 12.797,12.793 z" /><g
         id="g60"><g
           clip-path="url(#clipPath66)"
           id="g62"><path
             id="path68"
             style="fill:none;stroke:#231f20;stroke-width:2.88000011;stroke-linecap:butt;stroke-linejoin:miter;stroke-miterlimit:2.61310005;stroke-dasharray:none;stroke-opacity:1"
             d="M -37.7813,105.66 162.777,306.219" /><path
             id="path70"
             style="fill:none;stroke:#231f20;stroke-width:2.88000011;stroke-linecap:butt;stroke-linejoin:miter;stroke-miterlimit:2.61310005;stroke-dasharray:none;stroke-opacity:1"
             d="M -19.9609,87.8398 180.598,288.402" /><path
             id="path72"
             style="fill:none;stroke:#231f20;stroke-width:2.88000011;stroke-linecap:butt;stroke-linejoin:miter;stroke-miterlimit:2.61310005;stroke-dasharray:none;stroke-opacity:1"
             d="M -2.14063,70.0234 198.418,270.582" /><path
             id="path74"
             style="fill:none;stroke:#231f20;stroke-width:2.88000011;stroke-linecap:butt;stroke-linejoin:miter;stroke-miterlimit:2.61310005;stroke-dasharray:none;stroke-opacity:1"
             d="M 15.6758,52.2031 216.238,252.762" /><path
             id="path76"
             style="fill:none;stroke:#231f20;stroke-width:2.88000011;stroke-linecap:butt;stroke-linejoin:miter;stroke-miterlimit:2.61310005;stroke-dasharray:none;stroke-opacity:1"
             d="M 33.4961,34.3828 234.055,234.945" /><path
             id="path78"
             style="fill:none;stroke:#231f20;stroke-width:2.88000011;stroke-linecap:butt;stroke-linejoin:miter;stroke-miterlimit:2.61310005;stroke-dasharray:none;stroke-opacity:1"
             d="M 51.3164,16.5664 251.875,217.125" /><path
             id="path80"
             style="fill:none;stroke:#231f20;stroke-width:2.88000011;stroke-linecap:butt;stroke-linejoin:miter;stroke-miterlimit:2.61310005;stroke-dasharray:none;stroke-opacity:1"
             d="M 69.1328,-1.25391 269.695,199.305" /><path
             id="path82"
             style="fill:none;stroke:#231f20;stroke-width:2.88000011;stroke-linecap:butt;stroke-linejoin:miter;stroke-miterlimit:2.61310005;stroke-dasharray:none;stroke-opacity:1"
             d="M 86.9531,-19.0742 287.512,181.484" /><path
             id="path84"
             style="fill:none;stroke:#231f20;stroke-width:2.88000011;stroke-linecap:butt;stroke-linejoin:miter;stroke-miterlimit:2.61310005;stroke-dasharray:none;stroke-opacity:1"
             d="M 104.773,-36.8906 305.332,163.668" /><path
             id="path86"
             style="fill:none;stroke:#231f20;stroke-width:2.88000011;stroke-linecap:butt;stroke-linejoin:miter;stroke-miterlimit:2.61310005;stroke-dasharray:none;stroke-opacity:1"
             d="M 122.594,-54.7109 323.152,145.848" /><path
             id="path88"
             style="fill:none;stroke:#231f20;stroke-width:2.88000011;stroke-linecap:butt;stroke-linejoin:miter;stroke-miterlimit:2.61310005;stroke-dasharray:none;stroke-opacity:1"
             d="M 140.41,-72.5313 340.969,128.027" /><path
             id="path90"
             style="fill:none;stroke:#231f20;stroke-width:2.88000011;stroke-linecap:butt;stroke-linejoin:miter;stroke-miterlimit:2.61310005;stroke-dasharray:none;stroke-opacity:1"
             d="M 158.23,-90.3477 358.789,110.211" /></g></g><path
         id="path92"
         style="fill:#231f20;fill-opacity:1;fill-rule:nonzero;stroke:none"
         d="m 293.504,42.3125 c -5.227,4.3047 -8.606,7.7578 -10.121,10.3555 -1.5,2.6054 -2.266,5.3047 -2.262,8.1054 0.004,4.3008 1.672,7.9961 4.992,11.1133 3.321,3.0938 7.735,4.6602 13.239,4.6563 5.332,-0.0039 9.628,-1.4571 12.875,-4.3633 3.269,-2.9024 4.882,-6.2031 4.878,-9.918 -0.003,-2.4648 -0.871,-5 -2.64,-7.5625 -1.75,-2.5703 -5.422,-5.5976 -10.988,-9.0781 5.73,-4.4219 9.511,-7.9063 11.375,-10.457 2.464,-3.3203 3.695,-6.8203 3.691,-10.5039 -0.004,-4.6485 -1.773,-8.6329 -5.328,-11.9297 -3.551,-3.29691 -8.203,-4.94534 -13.969,-4.93753 -6.285,0.00391 -11.18,1.97266 -14.695,5.91013 -2.797,3.168 -4.196,6.6211 -4.192,10.3516 0,2.9375 0.989,5.8359 2.973,8.7148 1.969,2.8828 5.356,6.0625 10.172,9.543 z m 7.672,5.2109 c 3.922,3.5118 6.39,6.2969 7.441,8.3282 1.035,2.0312 1.551,4.332 1.555,6.914 0.004,3.418 -0.945,6.086 -2.859,8.0196 -1.934,1.9492 -4.547,2.9218 -7.864,2.9257 -3.316,0 -6.019,-0.9648 -8.105,-2.8789 -2.086,-1.9179 -3.133,-4.1679 -3.137,-6.7304 0,-1.7032 0.43,-3.3868 1.293,-5.086 0.852,-1.6992 2.082,-3.3008 3.684,-4.8359 z m -5.371,-7.0625 c -2.703,-2.2812 -4.703,-4.7617 -6.008,-7.4453 -1.297,-2.6797 -1.953,-5.5976 -1.953,-8.7148 -0.004,-4.1992 1.125,-7.5664 3.426,-10.086 2.296,-2.5195 5.21,-3.789 8.761,-3.7929 3.52,0 6.332,0.9804 8.453,2.9804 2.118,1.9805 3.168,4.379 3.172,7.2149 0,2.3476 -0.613,4.4492 -1.843,6.3008 -2.317,3.4492 -6.981,7.9726 -14.008,13.5429" /><path
         id="path94"
         style="fill:#231f20;fill-opacity:1;fill-rule:nonzero;stroke:none"
         d="m 633.508,49.8516 c -5.227,4.3047 -8.606,7.7578 -10.121,10.3593 -1.5,2.6016 -2.262,5.3008 -2.262,8.1016 0.004,4.3008 1.672,8 4.992,11.1133 3.321,3.0976 7.738,4.6601 13.238,4.6562 5.333,-0.0039 9.629,-1.457 12.879,-4.3632 3.266,-2.9024 4.879,-6.2032 4.875,-9.918 -0.004,-2.4649 -0.871,-5 -2.64,-7.5625 -1.75,-2.5664 -5.422,-5.5977 -10.989,-9.0781 5.731,-4.418 9.512,-7.9063 11.375,-10.4571 2.465,-3.3164 3.696,-6.8203 3.692,-10.5 -0.004,-4.6523 -1.774,-8.6328 -5.324,-11.9297 -3.555,-3.2968 -8.207,-4.9453 -13.973,-4.9414 -6.281,0.0039 -11.18,1.9766 -14.695,5.9141 -2.797,3.168 -4.196,6.6172 -4.192,10.3516 0,2.9336 0.989,5.832 2.973,8.7148 1.973,2.8789 5.355,6.0586 10.172,9.5391 z m 7.672,5.2148 c 3.922,3.5117 6.39,6.293 7.441,8.3242 1.035,2.0352 1.551,4.3321 1.555,6.9141 0.004,3.418 -0.946,6.0859 -2.86,8.0234 -1.933,1.9492 -4.546,2.918 -7.863,2.9219 -3.316,0.0039 -6.019,-0.9648 -8.105,-2.8789 -2.082,-1.9141 -3.133,-4.1641 -3.137,-6.7305 0,-1.6992 0.434,-3.3828 1.293,-5.082 0.851,-1.7031 2.082,-3.3047 3.684,-4.8359 z m -5.371,-7.0625 c -2.704,-2.2851 -4.704,-4.7656 -6.004,-7.4492 -1.301,-2.6797 -1.957,-5.5977 -1.957,-8.7149 -0.004,-4.1992 1.125,-7.5664 3.425,-10.0859 2.297,-2.5195 5.215,-3.7851 8.762,-3.7891 3.52,-0.0039 6.332,0.9766 8.453,2.9766 2.117,1.9844 3.168,4.3789 3.172,7.2149 0,2.3515 -0.613,4.4531 -1.844,6.3007 -2.316,3.4532 -6.976,7.9727 -14.007,13.5469" /></g></g></svg>