<?xml version="1.0" encoding="UTF-8" standalone="no"?>
<svg
   xmlns:dc="http://purl.org/dc/elements/1.1/"
   xmlns:cc="http://creativecommons.org/ns#"
   xmlns:rdf="http://www.w3.org/1999/02/22-rdf-syntax-ns#"
   xmlns:svg="http://www.w3.org/2000/svg"
   xmlns="http://www.w3.org/2000/svg"
   viewBox="0 0 101.33333 84"
   height="84"
   width="101.33333"
   xml:space="preserve"
   id="svg2"
   version="1.1"><metadata
     id="metadata8"><rdf:RDF><cc:Work
         rdf:about=""><dc:format>image/svg+xml</dc:format><dc:type
           rdf:resource="http://purl.org/dc/dcmitype/StillImage" /></cc:Work></rdf:RDF></metadata><defs
     id="defs6" /><g
     transform="matrix(1.3333333,0,0,-1.3333333,0,84)"
     id="g10"><g
       transform="scale(0.1)"
       id="g12"><path
         id="path14"
         style="fill:#231f20;fill-opacity:1;fill-rule:nonzero;stroke:none"
         d="m 498.074,625.234 -5.078,-55.062 c -0.269,-2.586 -0.387,-4.27 -0.387,-5.086 0,-1.297 0.231,-2.297 0.731,-2.981 0.617,-0.933 1.449,-1.632 2.5,-2.101 1.066,-0.453 2.848,-0.688 5.348,-0.688 l -0.536,-1.8 -26.066,0.019 0.535,1.801 h 1.117 c 2.117,-0.004 3.852,0.465 5.184,1.359 0.933,0.637 1.668,1.649 2.203,3.086 0.348,1.016 0.703,3.379 1.023,7.129 l 0.79,8.403 -18.95,0.015 -6.742,-9.129 c -1.531,-2.051 -2.484,-3.535 -2.887,-4.414 -0.382,-0.902 -0.586,-1.734 -0.586,-2.515 0,-1.055 0.415,-1.934 1.266,-2.688 0.848,-0.75 2.25,-1.168 4.199,-1.234 l -0.535,-1.801 -19.582,0.016 0.531,1.8 c 2.418,0.094 4.539,0.91 6.387,2.41 1.836,1.516 4.57,4.747 8.227,9.696 l 39.589,53.765 z m -9.679,-16.242 -19.223,-26.101 16.652,-0.012 z" /><path
         id="path16"
         style="fill:#231f20;fill-opacity:1;fill-rule:nonzero;stroke:none"
         d="m 759.246,136.727 -4.945,-21.43 -1.77,0.004 -0.179,5.383 c -0.164,1.949 -0.547,3.683 -1.129,5.214 -0.582,1.536 -1.465,2.856 -2.629,3.989 -1.168,1.117 -2.649,2 -4.449,2.636 -1.782,0.633 -3.766,0.954 -5.95,0.954 -5.832,0.007 -10.918,-1.59 -15.289,-4.77 -5.57,-4.062 -9.937,-9.809 -13.093,-17.223 -2.606,-6.117 -3.926,-12.3121 -3.93,-18.5973 -0.008,-6.4179 1.871,-11.5351 5.601,-15.3711 3.746,-3.8203 8.614,-5.7422 14.598,-5.7461 4.531,-0.0039 8.566,1.0118 12.086,3.0235 3.531,2.0156 6.82,5.1133 9.855,9.3086 h 2.282 c -3.571,-5.6993 -7.555,-9.8789 -11.907,-12.5586 -4.367,-2.6797 -9.605,-4.0235 -15.687,-4.0196 -5.402,0.0039 -10.184,1.1407 -14.348,3.4102 -4.164,2.2695 -7.343,5.4375 -9.508,9.5586 -2.183,4.1016 -3.277,8.5 -3.273,13.2344 0.004,7.2184 1.961,14.2504 5.832,21.0824 3.871,6.828 9.191,12.207 15.945,16.101 6.77,3.895 13.571,5.84 20.457,5.832 3.215,0 6.829,-0.75 10.829,-2.289 1.75,-0.652 3.035,-0.984 3.8,-0.984 0.782,-0.004 1.465,0.16 2.067,0.48 0.586,0.332 1.551,1.266 2.918,2.781 l 1.816,-0.003" /><path
         id="path18"
         style="fill:#231f20;fill-opacity:1;fill-rule:nonzero;stroke:none"
         d="m 24.6875,139.094 0.6836,1.816 23.6367,-0.015 c 3.9649,-0.004 7.4961,-0.625 10.6133,-1.879 3.1016,-1.235 5.4336,-2.95 6.9805,-5.168 1.5468,-2.219 2.3125,-4.571 2.3086,-7.039 0,-3.813 -1.3868,-7.246 -4.1407,-10.329 -2.7539,-3.062 -7.2382,-5.343 -13.4531,-6.789 4.0156,-1.503 6.9453,-3.488 8.8438,-5.972 1.8828,-2.469 2.8281,-5.1838 2.8242,-8.1526 0,-3.2812 -0.8516,-6.4297 -2.5547,-9.4336 -1.6836,-2.9805 -3.8711,-5.3086 -6.5195,-6.957 -2.6524,-1.6641 -5.8555,-2.8828 -9.6055,-3.6602 -2.668,-0.5508 -6.8359,-0.8281 -12.5,-0.8242 l -24.26564,0.0195 0.63282,1.7969 c 2.55082,0.0664 4.26562,0.3164 5.18752,0.7305 1.2969,0.5664 2.2304,1.2969 2.7851,2.1992 0.7813,1.2305 1.8164,4.0625 3.1211,8.4961 l 11.8946,40.0744 c 1.0234,3.383 1.5234,5.765 1.5234,7.133 0,1.199 -0.4453,2.148 -1.3281,2.851 -0.8985,0.699 -2.6016,1.051 -5.1172,1.051 -0.5508,0 -1.0664,0.02 -1.5508,0.051 z m 9.8789,-27.492 c 2.1172,-0.067 3.6484,-0.102 4.5977,-0.102 6.7695,-0.004 11.8047,1.461 15.1211,4.406 3.3007,2.949 4.957,6.629 4.9609,11.063 0.0039,3.347 -1.0117,5.965 -3.0313,7.836 -2.0117,1.867 -5.2304,2.804 -9.664,2.808 -1.1641,0 -2.6641,-0.183 -4.4805,-0.582 z M 24.9258,78.9961 c 3.5156,-0.4688 6.2656,-0.6875 8.25,-0.6914 5.082,-0.0039 9.582,1.5273 13.5,4.5742 3.9375,3.0664 5.8906,7.2149 5.8945,12.4453 0.0039,4 -1.1953,7.1328 -3.625,9.3868 -2.418,2.25 -6.332,3.371 -11.7305,3.375 -1.0507,0 -2.3164,-0.047 -3.8164,-0.148 L 24.9258,78.9961" /><path
         id="path20"
         style="fill:none;stroke:#231f20;stroke-width:7.5005002;stroke-linecap:butt;stroke-linejoin:miter;stroke-miterlimit:2.61310005;stroke-dasharray:none;stroke-opacity:1"
         d="m 77.5078,107.461 592.3872,4.992" /><path
         id="path22"
         style="fill:none;stroke:#231f20;stroke-width:7.5005002;stroke-linecap:butt;stroke-linejoin:miter;stroke-miterlimit:2.61310005;stroke-dasharray:none;stroke-opacity:1"
         d="M 460.398,548.371 667.766,110.977" /><path
         id="path24"
         style="fill:none;stroke:#231f20;stroke-width:7.5005002;stroke-linecap:butt;stroke-linejoin:miter;stroke-miterlimit:2.61310005;stroke-dasharray:none;stroke-opacity:1"
         d="m 462.598,111.113 -2.676,436.008" /><path
         id="path26"
         style="fill:none;stroke:#231f20;stroke-width:7.5005002;stroke-linecap:butt;stroke-linejoin:miter;stroke-miterlimit:2.61310005;stroke-dasharray:none;stroke-opacity:1"
         d="m 376.199,110.254 83.723,436.867" /><path
         id="path28"
         style="fill:none;stroke:#231f20;stroke-width:7.5005002;stroke-linecap:butt;stroke-linejoin:miter;stroke-miterlimit:2.61310005;stroke-dasharray:none;stroke-opacity:1"
         d="M 77.5078,107.461 459.922,547.121" /><path
         id="path30"
         style="fill:none;stroke:#231f20;stroke-width:5.00029993;stroke-linecap:butt;stroke-linejoin:miter;stroke-miterlimit:2.61310005;stroke-dasharray:none;stroke-opacity:1"
         d="m 462.598,111.113 h 40.855 v 38.59 h -40.855 z" /><path
         id="path32"
         style="fill:#231f20;fill-opacity:1;fill-rule:nonzero;stroke:none"
         d="M 489.141,5.46484 440.07,5.5 l 0.688,1.80078 c 2.601,0.06641 4.332,0.28125 5.219,0.62891 1.367,0.59765 2.382,1.36719 3.035,2.30081 1,1.4961 2.086,4.1992 3.222,8.1093 l 11.696,40.2735 c 0.984,3.3164 1.472,5.7539 1.472,7.3203 0.004,1.2305 -0.449,2.1992 -1.332,2.8828 -0.898,0.6836 -2.582,1.0156 -5.062,1.0195 -0.551,0 -0.985,0.0157 -1.32,0.0508 l 0.585,1.8164 27.016,-0.0195 -0.398,-1.8164 c -3.02,0 -5.168,-0.2813 -6.45,-0.8633 -1.269,-0.5976 -2.32,-1.5469 -3.171,-2.8789 -0.582,-0.8867 -1.551,-3.6172 -2.891,-8.2148 L 460.883,18.3359 c -0.887,-3 -1.32,-5.082 -1.32,-6.25 0,-0.7812 0.429,-1.5351 1.312,-2.24996 0.551,-0.5 1.801,-0.73438 3.75,-0.73438 l 6.402,-0.00781 c 4.649,-0.00391 8.348,0.57813 11.082,1.74215 2.016,0.8829 3.887,2.1954 5.571,3.9649 0.918,0.9648 2.519,3.3945 4.84,7.2578 l 1.269,2.1992 h 1.813 L 489.141,5.46484" /><path
         id="path34"
         style="fill:#231f20;fill-opacity:1;fill-rule:nonzero;stroke:none"
         d="m 361.063,73.7617 20.406,-51.9297 11.113,38.7735 c 0.922,3.1836 1.371,5.6484 1.375,7.414 0,1.2032 -0.418,2.1524 -1.262,2.836 -0.851,0.6836 -2.418,1.0156 -4.734,1.0195 -0.383,0 -0.801,0.0156 -1.215,0.0508 l 0.531,1.8164 21.286,-0.0156 -0.586,-1.8164 c -2.219,0.0351 -3.852,-0.1836 -4.934,-0.6797 -1.535,-0.6836 -2.668,-1.5664 -3.418,-2.6328 -1.035,-1.5313 -2.102,-4.1993 -3.176,-7.9961 L 380.828,6.01563 h -1.75 L 357.086,61.9023 345.289,20.6445 c -0.871,-3.1172 -1.324,-5.5195 -1.324,-7.1679 0,-1.25 0.398,-2.1836 1.195,-2.8164 0.805,-0.6368 2.703,-1.07036 5.684,-1.30473 l -0.485,-1.80078 -20.796,0.01562 0.683,1.80078 c 2.598,0.06641 4.352,0.29688 5.234,0.67971 1.333,0.5976 2.317,1.3476 2.969,2.2969 0.949,1.4336 2.004,4.1992 3.188,8.2968 l 13.168,46.0391 c -1.266,1.9531 -2.629,3.3008 -4.078,4.0391 -1.45,0.7148 -3.7,1.1367 -6.766,1.2382 l 0.555,1.8164 16.547,-0.0156" /></g></g></svg>