<?xml version="1.0" encoding="UTF-8" standalone="no"?>
<svg
   xmlns:dc="http://purl.org/dc/elements/1.1/"
   xmlns:cc="http://creativecommons.org/ns#"
   xmlns:rdf="http://www.w3.org/1999/02/22-rdf-syntax-ns#"
   xmlns:svg="http://www.w3.org/2000/svg"
   xmlns="http://www.w3.org/2000/svg"
   viewBox="0 0 104 64"
   height="64"
   width="104"
   xml:space="preserve"
   id="svg2"
   version="1.1"><metadata
     id="metadata8"><rdf:RDF><cc:Work
         rdf:about=""><dc:format>image/svg+xml</dc:format><dc:type
           rdf:resource="http://purl.org/dc/dcmitype/StillImage" /></cc:Work></rdf:RDF></metadata><defs
     id="defs6" /><g
     transform="matrix(1.3333333,0,0,-1.3333333,0,64)"
     id="g10"><g
       transform="scale(0.1)"
       id="g12"><path
         id="path14"
         style="fill:#231f20;fill-opacity:1;fill-rule:nonzero;stroke:none"
         d="M 64.9727,79.8086 59.8945,24.7461 c -0.2695,-2.582 -0.3867,-4.2656 -0.3867,-5.082 0,-1.3008 0.2305,-2.3008 0.7305,-2.9844 0.6172,-0.9336 1.4492,-1.6328 2.5,-2.1016 1.0664,-0.4531 2.8476,-0.6875 5.3476,-0.6875 l -0.5351,-1.8008 -26.0664,0.0196 0.5351,1.8008 h 1.1172 c 2.1172,-0.0039 3.8516,0.4648 5.1836,1.3632 0.9336,0.6329 1.668,1.6485 2.2031,3.0821 0.3516,1.0156 0.7032,3.3789 1.0235,7.1289 l 0.789,8.4023 -18.9492,0.0156 -6.7422,-9.1289 c -1.5312,-2.0507 -2.4843,-3.5312 -2.8867,-4.414 -0.3828,-0.9024 -0.5859,-1.7344 -0.5859,-2.5156 0,-1.0547 0.414,-1.9336 1.2656,-2.6875 0.8516,-0.75 2.25,-1.1641 4.1992,-1.2344 l -0.5351,-1.8008 -19.58207,0.0156 0.53516,1.8008 c 2.41801,0.0977 4.53511,0.9102 6.38281,2.4102 1.8359,1.5156 4.5703,4.7461 8.2266,9.6953 L 63.2539,79.8086 Z M 55.293,63.5664 36.0703,37.4648 52.7227,37.4531 Z" /><path
         id="path16"
         style="fill:#231f20;fill-opacity:1;fill-rule:nonzero;stroke:none"
         d="m 734.148,76.5273 0.688,1.8165 23.633,-0.0196 c 3.965,-0.0039 7.496,-0.625 10.613,-1.875 3.102,-1.2383 5.434,-2.9531 6.981,-5.1719 1.546,-2.2187 2.312,-4.5664 2.312,-7.0351 -0.004,-3.8164 -1.391,-7.25 -4.141,-10.332 -2.757,-3.0625 -7.238,-5.3399 -13.457,-6.7891 4.016,-1.5 6.95,-3.4883 8.844,-5.9727 1.883,-2.4687 2.828,-5.1836 2.828,-8.1523 -0.004,-3.2813 -0.855,-6.4297 -2.558,-9.4297 -1.684,-2.9805 -3.868,-5.3125 -6.52,-6.9609 -2.652,-1.6641 -5.855,-2.8789 -9.605,-3.6602 -2.668,-0.5469 -6.832,-0.8281 -12.5,-0.8242 L 717,12.1406 l 0.637,1.8008 c 2.551,0.0664 4.265,0.3125 5.183,0.7305 1.297,0.5625 2.231,1.2929 2.785,2.1953 0.782,1.2344 1.817,4.0625 3.122,8.4961 l 11.898,40.0742 c 1.02,3.3828 1.52,5.7656 1.52,7.1328 0.003,1.1992 -0.446,2.1485 -1.329,2.8516 -0.898,0.6992 -2.597,1.0508 -5.117,1.0508 -0.551,0.0039 -1.066,0.0195 -1.551,0.0546 z m 9.883,-27.4921 c 2.114,-0.0664 3.645,-0.1016 4.598,-0.1016 6.766,-0.0078 11.801,1.457 15.117,4.4023 3.305,2.9493 4.957,6.6289 4.961,11.0625 0.004,3.3516 -1.012,5.9688 -3.027,7.836 -2.016,1.8672 -5.231,2.8047 -9.664,2.8086 -1.164,0 -2.664,-0.1797 -4.485,-0.5782 z m -9.644,-32.6094 c 3.515,-0.4688 6.265,-0.6875 8.25,-0.6875 5.082,-0.0039 9.582,1.5234 13.504,4.5742 3.937,3.0625 5.89,7.2109 5.894,12.4414 0,4 -1.199,7.1328 -3.629,9.3867 -2.414,2.2539 -6.328,3.3711 -11.73,3.375 -1.051,0.0039 -2.317,-0.0468 -3.817,-0.1445 l -8.472,-28.9453" /><path
         id="path18"
         style="fill:none;stroke:#231f20;stroke-width:7.5005002;stroke-linecap:butt;stroke-linejoin:miter;stroke-miterlimit:2.61310005;stroke-dasharray:none;stroke-opacity:1"
         d="M 47.793,331.922 350.094,101.156" /><path
         id="path20"
         style="fill:none;stroke:#231f20;stroke-width:7.5005002;stroke-linecap:butt;stroke-linejoin:miter;stroke-miterlimit:2.61310005;stroke-dasharray:none;stroke-opacity:1"
         d="M 348.527,101.078 496.324,449.246" /><path
         id="path22"
         style="fill:none;stroke:#231f20;stroke-width:7.5005002;stroke-linecap:butt;stroke-linejoin:miter;stroke-miterlimit:2.61310005;stroke-dasharray:none;stroke-opacity:1"
         d="M 46.6563,96.7031 757.574,99.9063" /><path
         id="path24"
         style="fill:#231f20;fill-opacity:1;fill-rule:nonzero;stroke:none"
         d="m 537.945,448.609 16.383,-25.363 c 2.93,-4.484 5.36,-7.371 7.274,-8.621 1.918,-1.254 4.449,-1.887 7.566,-1.891 l -0.531,-1.796 -28.235,0.019 0.45,1.801 c 2.25,0.23 3.836,0.762 4.753,1.613 0.93,0.848 1.399,1.797 1.403,2.883 0,0.98 -0.168,1.918 -0.485,2.832 -0.265,0.648 -1.214,2.25 -2.828,4.789 l -13.418,21.059 -6.515,-21.93 c -1.071,-3.516 -1.606,-5.867 -1.606,-7.082 -0.004,-1.234 0.449,-2.168 1.364,-2.82 0.898,-0.664 3.152,-1.102 6.734,-1.336 l -0.789,-1.801 -26.164,0.023 0.637,1.797 c 2.531,0.067 4.25,0.297 5.132,0.68 1.301,0.601 2.25,1.348 2.868,2.25 0.851,1.332 1.902,4.098 3.14,8.297 L 526.773,464 c 0.887,3.051 1.325,5.516 1.325,7.367 0.004,1.301 -0.414,2.301 -1.231,2.985 -0.832,0.683 -2.449,1.019 -4.867,1.019 h -0.98 l 0.597,1.817 24.852,-0.02 -0.5,-1.816 c -2.051,0.035 -3.571,-0.18 -4.586,-0.68 -1.399,-0.68 -2.418,-1.563 -3.067,-2.629 -0.668,-1.066 -1.621,-3.766 -2.89,-8.047 L 530.281,447 l 23.543,17.715 c 3.137,2.328 5.188,4.191 6.156,5.562 0.583,0.832 0.883,1.598 0.883,2.282 0.004,0.582 -0.297,1.168 -0.894,1.718 -0.602,0.551 -1.516,0.899 -2.766,1.067 l 0.5,1.816 21.184,-0.015 -0.438,-1.817 c -2.316,-0.383 -4.265,-0.894 -5.836,-1.531 -1.582,-0.629 -3.199,-1.496 -4.867,-2.609 -0.48,-0.321 -3.668,-2.731 -9.519,-7.211 l -20.282,-15.368" /><path
         id="path26"
         style="fill:#231f20;fill-opacity:1;fill-rule:nonzero;stroke:none"
         d="m 139.625,407.895 -4.949,-21.43 h -1.77 l -0.176,5.383 c -0.167,1.953 -0.546,3.683 -1.132,5.218 -0.582,1.532 -1.465,2.852 -2.629,3.989 -1.168,1.113 -2.649,2 -4.449,2.636 -1.782,0.633 -3.766,0.95 -5.95,0.954 -5.832,0.003 -10.914,-1.594 -15.285,-4.774 -5.5702,-4.062 -9.9412,-9.808 -13.0975,-17.223 -2.6016,-6.113 -3.9258,-12.312 -3.9297,-18.597 -0.0078,-6.418 1.8711,-11.535 5.6016,-15.371 3.75,-3.821 8.6136,-5.739 14.5976,-5.742 4.531,-0.004 8.566,1.007 12.086,3.023 3.535,2.016 6.82,5.109 9.859,9.309 l 2.282,-0.004 c -3.571,-5.696 -7.559,-9.875 -11.911,-12.555 -4.367,-2.68 -9.605,-4.027 -15.687,-4.023 -5.3985,0.003 -10.1797,1.144 -14.3477,3.41 -4.1641,2.273 -7.3438,5.441 -9.5078,9.558 -2.1797,4.102 -3.2774,8.504 -3.2735,13.239 0.0039,7.214 1.961,14.246 5.8321,21.078 3.8711,6.828 9.1953,12.207 15.9453,16.101 6.7696,3.895 13.5706,5.84 20.4566,5.836 3.215,-0.004 6.832,-0.754 10.829,-2.289 1.753,-0.656 3.035,-0.988 3.8,-0.988 0.785,0 1.465,0.164 2.067,0.48 0.586,0.332 1.554,1.266 2.922,2.782 h 1.816" /><path
         id="path28"
         style="fill:#231f20;fill-opacity:1;fill-rule:nonzero;stroke:none"
         d="m 382.656,3.05469 -49.066,0.03906 0.683,1.79688 c 2.602,0.0664 4.336,0.28125 5.219,0.6289 1.367,0.60156 2.383,1.36719 3.035,2.30078 1.004,1.4961 2.086,4.19919 3.223,8.11329 l 11.699,40.2734 c 0.985,3.3164 1.473,5.75 1.473,7.3164 0,1.2344 -0.449,2.1993 -1.332,2.8829 -0.899,0.6835 -2.582,1.0195 -5.067,1.0195 -0.55,0 -0.984,0.0195 -1.316,0.0508 l 0.586,1.8164 27.016,-0.0196 -0.403,-1.8164 c -3.015,0.0039 -5.168,-0.2773 -6.449,-0.8632 -1.266,-0.5977 -2.32,-1.5469 -3.172,-2.879 -0.582,-0.8828 -1.551,-3.6171 -2.887,-8.2148 l -11.5,-39.5742 c -0.886,-3 -1.316,-5.082 -1.316,-6.25002 -0.004,-0.78125 0.43,-1.53125 1.313,-2.25 0.546,-0.5 1.796,-0.73437 3.75,-0.73437 l 6.398,-0.00391 c 4.648,-0.00391 8.348,0.57422 11.086,1.73828 2.016,0.88281 3.883,2.19532 5.57,3.96482 0.914,0.9649 2.516,3.3946 4.84,7.2617 l 1.266,2.1993 1.816,-0.0039 -6.465,-18.79301" /></g></g></svg>