<?xml version="1.0" encoding="UTF-8" standalone="no"?>
<svg
   xmlns:dc="http://purl.org/dc/elements/1.1/"
   xmlns:cc="http://creativecommons.org/ns#"
   xmlns:rdf="http://www.w3.org/1999/02/22-rdf-syntax-ns#"
   xmlns:svg="http://www.w3.org/2000/svg"
   xmlns="http://www.w3.org/2000/svg"
   viewBox="0 0 104 38.666668"
   height="38.666668"
   width="104"
   xml:space="preserve"
   id="svg2"
   version="1.1"><metadata
     id="metadata8"><rdf:RDF><cc:Work
         rdf:about=""><dc:format>image/svg+xml</dc:format><dc:type
           rdf:resource="http://purl.org/dc/dcmitype/StillImage" /></cc:Work></rdf:RDF></metadata><defs
     id="defs6" /><g
     transform="matrix(1.3333333,0,0,-1.3333333,0,38.666667)"
     id="g10"><g
       transform="scale(0.1)"
       id="g12"><path
         id="path14"
         style="fill:#231f20;fill-opacity:1;fill-rule:nonzero;stroke:none"
         d="M 64.9727,79.8086 59.8945,24.7461 c -0.2695,-2.582 -0.3867,-4.2656 -0.3867,-5.082 0,-1.3008 0.2305,-2.3008 0.7305,-2.9844 0.6172,-0.9336 1.4492,-1.6328 2.5,-2.1016 1.0664,-0.4531 2.8476,-0.6875 5.3476,-0.6875 l -0.5351,-1.8008 -26.0664,0.0196 0.5351,1.8008 h 1.1172 c 2.1172,-0.0039 3.8516,0.4648 5.1836,1.3632 0.9336,0.6329 1.668,1.6485 2.2031,3.0821 0.3516,1.0156 0.7032,3.3789 1.0235,7.1289 l 0.789,8.4023 -18.9492,0.0156 -6.7422,-9.1289 c -1.5312,-2.0507 -2.4843,-3.5312 -2.8867,-4.414 -0.3828,-0.9024 -0.5859,-1.7344 -0.5859,-2.5156 0,-1.0547 0.414,-1.9336 1.2656,-2.6875 0.8516,-0.75 2.25,-1.1641 4.1992,-1.2344 l -0.5351,-1.8008 -19.58207,0.0156 0.53516,1.8008 c 2.41801,0.0977 4.53511,0.9102 6.38281,2.4102 1.8359,1.5156 4.5703,4.7461 8.2266,9.6953 L 63.2539,79.8086 Z M 55.293,63.5664 36.0703,37.4648 52.7227,37.4531 Z" /><path
         id="path16"
         style="fill:#231f20;fill-opacity:1;fill-rule:nonzero;stroke:none"
         d="m 734.148,76.5273 0.688,1.8165 23.633,-0.0196 c 3.965,-0.0039 7.496,-0.625 10.613,-1.875 3.102,-1.2383 5.434,-2.9531 6.981,-5.1719 1.546,-2.2187 2.312,-4.5664 2.312,-7.0351 -0.004,-3.8164 -1.391,-7.25 -4.141,-10.332 -2.757,-3.0625 -7.238,-5.3399 -13.457,-6.7891 4.016,-1.5 6.95,-3.4883 8.844,-5.9727 1.883,-2.4687 2.828,-5.1836 2.828,-8.1523 -0.004,-3.2813 -0.855,-6.4297 -2.558,-9.4297 -1.684,-2.9805 -3.868,-5.3125 -6.52,-6.9609 -2.652,-1.6641 -5.855,-2.8789 -9.605,-3.6602 -2.668,-0.5469 -6.832,-0.8281 -12.5,-0.8242 L 717,12.1406 l 0.637,1.8008 c 2.551,0.0664 4.265,0.3125 5.183,0.7305 1.297,0.5625 2.231,1.2929 2.785,2.1953 0.782,1.2344 1.817,4.0625 3.122,8.4961 l 11.898,40.0742 c 1.02,3.3828 1.52,5.7656 1.52,7.1328 0.003,1.1992 -0.446,2.1485 -1.329,2.8516 -0.898,0.6992 -2.597,1.0508 -5.117,1.0508 -0.551,0.0039 -1.066,0.0195 -1.551,0.0546 z m 9.883,-27.4921 c 2.114,-0.0664 3.645,-0.1016 4.598,-0.1016 6.766,-0.0078 11.801,1.457 15.117,4.4023 3.305,2.9493 4.957,6.6289 4.961,11.0625 0.004,3.3516 -1.012,5.9688 -3.027,7.836 -2.016,1.8672 -5.231,2.8047 -9.664,2.8086 -1.164,0 -2.664,-0.1797 -4.485,-0.5782 z m -9.644,-32.6094 c 3.515,-0.4688 6.265,-0.6875 8.25,-0.6875 5.082,-0.0039 9.582,1.5234 13.504,4.5742 3.937,3.0625 5.89,7.2109 5.894,12.4414 0,4 -1.199,7.1328 -3.629,9.3867 -2.414,2.2539 -6.328,3.3711 -11.73,3.375 -1.051,0.0039 -2.317,-0.0468 -3.817,-0.1445 l -8.472,-28.9453" /><path
         id="path18"
         style="fill:none;stroke:#231f20;stroke-width:7.5005002;stroke-linecap:butt;stroke-linejoin:miter;stroke-miterlimit:2.61310005;stroke-dasharray:none;stroke-opacity:1"
         d="M 273.203,266.891 350.094,101.156" /><path
         id="path20"
         style="fill:none;stroke:#231f20;stroke-width:7.5005002;stroke-linecap:butt;stroke-linejoin:miter;stroke-miterlimit:2.61310005;stroke-dasharray:none;stroke-opacity:1"
         d="M 348.527,101.078 543.27,251.285" /><path
         id="path22"
         style="fill:none;stroke:#231f20;stroke-width:7.5005002;stroke-linecap:butt;stroke-linejoin:miter;stroke-miterlimit:2.61310005;stroke-dasharray:none;stroke-opacity:1"
         d="M 46.6563,96.7031 757.574,99.9063" /><path
         id="path24"
         style="fill:#231f20;fill-opacity:1;fill-rule:nonzero;stroke:none"
         d="m 618.219,270.816 -4.949,-21.429 h -1.766 l -0.18,5.383 c -0.164,1.953 -0.547,3.683 -1.129,5.218 -0.582,1.532 -1.465,2.852 -2.629,3.989 -1.168,1.113 -2.648,2 -4.449,2.636 -1.781,0.633 -3.765,0.95 -5.949,0.953 -5.832,0.004 -10.918,-1.593 -15.289,-4.773 -5.57,-4.063 -9.938,-9.809 -13.094,-17.223 -2.605,-6.113 -3.926,-12.312 -3.933,-18.597 -0.004,-6.418 1.875,-11.535 5.605,-15.371 3.746,-3.821 8.613,-5.739 14.598,-5.747 4.531,0 8.566,1.012 12.086,3.028 3.531,2.012 6.82,5.109 9.855,9.308 l 2.281,-0.003 c -3.57,-5.696 -7.554,-9.879 -11.91,-12.555 -4.367,-2.68 -9.601,-4.028 -15.683,-4.024 -5.403,0.004 -10.184,1.145 -14.348,3.411 -4.164,2.273 -7.348,5.441 -9.508,9.558 -2.183,4.102 -3.277,8.504 -3.277,13.238 0.008,7.215 1.965,14.247 5.836,21.079 3.871,6.828 9.191,12.207 15.945,16.101 6.77,3.895 13.57,5.84 20.457,5.836 3.211,-0.004 6.828,-0.754 10.828,-2.289 1.75,-0.656 3.035,-0.988 3.801,-0.988 0.781,0 1.465,0.164 2.066,0.48 0.582,0.332 1.551,1.266 2.918,2.781 h 1.817" /><path
         id="path26"
         style="fill:#231f20;fill-opacity:1;fill-rule:nonzero;stroke:none"
         d="m 197.555,279.461 0.586,1.816 21.148,-0.015 c 8.949,-0.008 15.582,-1.047 19.883,-3.098 4.312,-2.055 7.762,-5.293 10.324,-9.691 2.563,-4.418 3.859,-9.157 3.856,-14.203 -0.004,-4.317 -0.754,-8.536 -2.247,-12.614 -1.484,-4.086 -3.152,-7.347 -5.039,-9.812 -1.867,-2.453 -4.734,-5.164 -8.621,-8.129 -3.871,-2.945 -8.07,-5.145 -12.59,-6.555 -4.535,-1.414 -10.183,-2.109 -16.953,-2.105 l -28.031,0.019 0.637,1.801 c 2.582,0.066 4.301,0.297 5.183,0.68 1.297,0.566 2.266,1.316 2.883,2.25 0.934,1.363 2.004,4.113 3.176,8.246 l 11.746,40.039 c 0.918,3.148 1.371,5.633 1.371,7.418 0,1.265 -0.414,2.246 -1.262,2.93 -0.851,0.687 -2.5,1.023 -4.984,1.023 z m 17.332,-1.863 -14.387,-49.555 c -1.086,-3.699 -1.625,-5.996 -1.625,-6.883 0,-0.515 0.168,-1.015 0.52,-1.515 0.328,-0.485 0.796,-0.801 1.378,-0.969 0.852,-0.301 2.219,-0.453 4.102,-0.453 5.113,-0.004 9.867,0.527 14.234,1.59 4.383,1.046 7.969,2.609 10.77,4.691 3.984,3.031 7.156,7.195 9.543,12.492 2.371,5.317 3.558,11.348 3.562,18.113 0.008,7.649 -1.804,13.352 -5.449,17.071 -3.633,3.734 -8.965,5.609 -15.965,5.613 -1.718,0 -3.953,-0.066 -6.683,-0.195" /><path
         id="path28"
         style="fill:#231f20;fill-opacity:1;fill-rule:nonzero;stroke:none"
         d="m 369.371,65.7617 -7.836,-26.2226 8.699,-0.0078 c 3.903,-0.004 6.836,0.6093 8.77,1.8085 1.934,1.1993 3.934,3.7618 5.988,7.711 h 1.852 l -6.903,-24.1094 h -1.949 c 0.481,1.9492 0.735,3.5469 0.735,4.832 0,1.9844 -0.664,3.5196 -1.977,4.6016 -1.32,1.1016 -3.785,1.6523 -7.402,1.6563 l -8.782,0.0078 -5.785,-19.9805 c -1.031,-3.5469 -1.566,-5.8984 -1.57,-7.06641 0,-1.21485 0.449,-2.13281 1.348,-2.78516 0.898,-0.66406 3.086,-1.10156 6.566,-1.33594 l -0.582,-1.80078 -26.168,0.02344 0.633,1.79688 c 2.535,0.0664 4.234,0.29687 5.066,0.67968 1.301,0.56641 2.27,1.31641 2.887,2.25 0.883,1.33203 1.922,4.07809 3.141,8.24609 l 11.695,39.8906 c 0.937,3.2149 1.422,5.75 1.426,7.5664 0,0.8477 -0.219,1.5664 -0.633,2.168 -0.434,0.5977 -1.051,1.0469 -1.883,1.3477 -0.832,0.2851 -2.48,0.4375 -4.949,0.4375 l 0.582,1.8164 51.367,-0.0391 -4.894,-16.7461 -1.868,0.0039 c 0.368,2.0117 0.551,3.6641 0.555,4.9805 0,2.1484 -0.598,3.8516 -1.781,5.1016 -1.196,1.25 -2.715,2.1367 -4.563,2.6523 -1.301,0.3359 -4.218,0.5039 -8.75,0.5078 l -13.035,0.0078" /></g></g></svg>