<?xml version="1.0" encoding="UTF-8" standalone="no"?>
<svg
   xmlns:dc="http://purl.org/dc/elements/1.1/"
   xmlns:cc="http://creativecommons.org/ns#"
   xmlns:rdf="http://www.w3.org/1999/02/22-rdf-syntax-ns#"
   xmlns:svg="http://www.w3.org/2000/svg"
   xmlns="http://www.w3.org/2000/svg"
   viewBox="0 0 102.66667 85.333336"
   height="85.333336"
   width="102.66667"
   xml:space="preserve"
   id="svg2"
   version="1.1"><metadata
     id="metadata8"><rdf:RDF><cc:Work
         rdf:about=""><dc:format>image/svg+xml</dc:format><dc:type
           rdf:resource="http://purl.org/dc/dcmitype/StillImage" /></cc:Work></rdf:RDF></metadata><defs
     id="defs6" /><g
     transform="matrix(1.3333333,0,0,-1.3333333,0,85.333333)"
     id="g10"><g
       transform="scale(0.1)"
       id="g12"><path
         id="path14"
         style="fill:#231f20;fill-opacity:1;fill-rule:nonzero;stroke:none"
         d="M 59.4102,160.578 54.332,105.516 c -0.2656,-2.582 -0.3828,-4.266 -0.3867,-5.082 0,-1.3012 0.2305,-2.3012 0.7344,-2.9848 0.6133,-0.9336 1.4453,-1.6328 2.4961,-2.1015 1.0664,-0.4532 2.8515,-0.6836 5.3515,-0.6875 l -0.5351,-1.8008 -26.0664,0.0234 0.5312,1.7969 h 1.1172 c 2.1172,0 3.8555,0.4648 5.1875,1.3633 0.9336,0.6328 1.668,1.6484 2.2031,3.082 0.3477,1.016 0.6993,3.379 1.0235,7.129 l 0.7851,8.402 -18.9492,0.016 -6.7422,-9.129 c -1.5312,-2.051 -2.4843,-3.531 -2.8828,-4.414 -0.3867,-0.902 -0.5859,-1.7345 -0.5859,-2.5157 -0.0039,-1.0508 0.414,-1.9336 1.2617,-2.6875 0.8516,-0.7461 2.25,-1.1641 4.2031,-1.2344 L 22.543,92.8906 2.95703,92.9063 3.49219,94.707 c 2.41797,0.0977 4.53515,0.9102 6.38672,2.4141 1.83589,1.5117 4.57029,4.7419 8.22269,9.6919 l 39.5898,53.765 z m -9.6797,-16.242 -19.2188,-26.102 16.6485,-0.011 z" /><path
         id="path16"
         style="fill:#231f20;fill-opacity:1;fill-rule:nonzero;stroke:none"
         d="m 769.246,136.727 -4.945,-21.43 -1.77,0.004 -0.179,5.383 c -0.164,1.949 -0.547,3.683 -1.129,5.214 -0.582,1.536 -1.465,2.856 -2.629,3.989 -1.168,1.117 -2.649,2 -4.449,2.636 -1.782,0.633 -3.766,0.954 -5.95,0.954 -5.832,0.007 -10.918,-1.59 -15.289,-4.77 -5.57,-4.062 -9.937,-9.809 -13.093,-17.223 -2.606,-6.117 -3.926,-12.3121 -3.93,-18.5973 -0.008,-6.4179 1.871,-11.5351 5.601,-15.3711 3.746,-3.8203 8.614,-5.7422 14.598,-5.7461 4.531,-0.0039 8.566,1.0118 12.086,3.0235 3.531,2.0156 6.82,5.1133 9.855,9.3086 h 2.282 c -3.571,-5.6993 -7.555,-9.8789 -11.907,-12.5586 -4.367,-2.6797 -9.605,-4.0235 -15.687,-4.0196 -5.402,0.0039 -10.184,1.1407 -14.348,3.4102 -4.164,2.2695 -7.343,5.4375 -9.508,9.5586 -2.183,4.1016 -3.277,8.5 -3.273,13.2344 0.004,7.2184 1.961,14.2504 5.832,21.0824 3.871,6.828 9.191,12.207 15.945,16.101 6.77,3.895 13.571,5.84 20.457,5.832 3.215,0 6.829,-0.75 10.829,-2.289 1.75,-0.652 3.035,-0.984 3.8,-0.984 0.782,-0.004 1.465,0.16 2.067,0.48 0.586,0.332 1.551,1.266 2.918,2.781 l 1.816,-0.003" /><path
         id="path18"
         style="fill:#231f20;fill-opacity:1;fill-rule:nonzero;stroke:none"
         d="m 472.441,632.152 0.684,1.817 23.637,-0.016 c 3.965,-0.004 7.496,-0.625 10.613,-1.879 3.102,-1.234 5.434,-2.953 6.98,-5.168 1.547,-2.218 2.313,-4.57 2.313,-7.039 -0.004,-3.816 -1.391,-7.246 -4.141,-10.328 -2.757,-3.066 -7.238,-5.344 -13.457,-6.789 4.016,-1.504 6.95,-3.488 8.844,-5.973 1.883,-2.468 2.828,-5.187 2.828,-8.152 -0.004,-3.285 -0.855,-6.434 -2.558,-9.434 -1.684,-2.98 -3.871,-5.312 -6.52,-6.957 -2.652,-1.668 -5.855,-2.882 -9.605,-3.664 -2.668,-0.547 -6.836,-0.828 -12.5,-0.82 l -24.266,0.016 0.633,1.8 c 2.551,0.067 4.269,0.317 5.187,0.731 1.297,0.566 2.231,1.297 2.785,2.199 0.782,1.231 1.817,4.063 3.122,8.492 l 11.894,40.078 c 1.024,3.383 1.524,5.762 1.524,7.133 0,1.199 -0.446,2.149 -1.329,2.848 -0.898,0.703 -2.601,1.051 -5.117,1.055 -0.551,0 -1.066,0.015 -1.551,0.05 z m 9.879,-27.492 c 2.118,-0.066 3.649,-0.101 4.598,-0.101 6.77,-0.004 11.805,1.461 15.121,4.406 3.301,2.945 4.957,6.629 4.961,11.062 0.004,3.348 -1.012,5.965 -3.031,7.836 -2.012,1.867 -5.231,2.805 -9.66,2.809 -1.168,0 -2.668,-0.184 -4.485,-0.582 z m -9.64,-32.605 c 3.515,-0.473 6.265,-0.688 8.25,-0.692 5.082,-0.004 9.582,1.528 13.5,4.575 3.937,3.062 5.89,7.21 5.894,12.445 0.004,4 -1.195,7.133 -3.625,9.387 -2.418,2.25 -6.328,3.371 -11.73,3.375 -1.051,0 -2.317,-0.051 -3.817,-0.149 l -8.472,-28.941" /><path
         id="path20"
         style="fill:none;stroke:#231f20;stroke-width:7.5005002;stroke-linecap:butt;stroke-linejoin:miter;stroke-miterlimit:2.61310005;stroke-dasharray:none;stroke-opacity:1"
         d="m 87.5078,107.461 592.3872,4.992" /><path
         id="path22"
         style="fill:none;stroke:#231f20;stroke-width:7.5005002;stroke-linecap:butt;stroke-linejoin:miter;stroke-miterlimit:2.61310005;stroke-dasharray:none;stroke-opacity:1"
         d="M 470.398,548.371 677.766,110.977" /><path
         id="path24"
         style="fill:none;stroke:#231f20;stroke-width:7.5005002;stroke-linecap:butt;stroke-linejoin:miter;stroke-miterlimit:2.61310005;stroke-dasharray:none;stroke-opacity:1"
         d="m 472.598,111.113 -2.676,436.008" /><path
         id="path26"
         style="fill:none;stroke:#231f20;stroke-width:7.5005002;stroke-linecap:butt;stroke-linejoin:miter;stroke-miterlimit:2.61310005;stroke-dasharray:none;stroke-opacity:1"
         d="m 386.199,110.254 83.723,436.867" /><path
         id="path28"
         style="fill:none;stroke:#231f20;stroke-width:7.5005002;stroke-linecap:butt;stroke-linejoin:miter;stroke-miterlimit:2.61310005;stroke-dasharray:none;stroke-opacity:1"
         d="M 87.5078,107.461 469.922,547.121" /><path
         id="path30"
         style="fill:none;stroke:#231f20;stroke-width:5.00029993;stroke-linecap:butt;stroke-linejoin:miter;stroke-miterlimit:2.61310005;stroke-dasharray:none;stroke-opacity:1"
         d="m 472.598,111.113 h 40.855 v 38.59 h -40.855 z" /><path
         id="path32"
         style="fill:#231f20;fill-opacity:1;fill-rule:nonzero;stroke:none"
         d="m 485.25,43.125 16.383,-25.3633 c 2.93,-4.4844 5.359,-7.3711 7.273,-8.62498 1.918,-1.25 4.449,-1.88281 7.567,-1.88672 l -0.532,-1.80078 -28.234,0.02344 0.449,1.80078 c 2.25,0.23047 3.836,0.76172 4.754,1.60937 0.93,0.85157 1.399,1.80079 1.403,2.88669 0,0.9805 -0.168,1.9141 -0.485,2.8321 -0.265,0.6484 -1.215,2.25 -2.828,4.7851 l -13.418,21.0625 -6.516,-21.9297 c -1.07,-3.5156 -1.605,-5.8672 -1.605,-7.082 -0.004,-1.2344 0.449,-2.16797 1.363,-2.82031 0.903,-0.66797 3.153,-1.10156 6.735,-1.33594 L 476.77,5.48047 450.605,5.5 l 0.637,1.80078 c 2.535,0.06641 4.25,0.29688 5.133,0.67969 1.301,0.59766 2.25,1.34766 2.867,2.24613 0.852,1.332 1.903,4.0976 3.141,8.3007 l 11.695,39.9883 c 0.887,3.0508 1.324,5.5157 1.324,7.3672 0.004,1.3008 -0.414,2.2969 -1.23,2.9805 -0.832,0.6836 -2.449,1.0195 -4.863,1.0234 h -0.985 l 0.598,1.8164 24.851,-0.0195 -0.5,-1.8164 c -2.05,0.0351 -3.57,-0.1797 -4.585,-0.6797 -1.399,-0.6797 -2.418,-1.5664 -3.067,-2.6289 C 484.953,65.4922 484,62.793 482.73,58.5078 l -5.144,-16.9922 23.547,17.7149 c 3.133,2.3281 5.183,4.1914 6.152,5.5625 0.582,0.832 0.883,1.5976 0.883,2.2812 0.004,0.5821 -0.297,1.168 -0.895,1.7149 -0.601,0.5507 -1.515,0.9023 -2.765,1.0703 l 0.5,1.8164 21.183,-0.0156 -0.437,-1.8164 c -2.316,-0.3829 -4.266,-0.8985 -5.832,-1.5313 -1.582,-0.6289 -3.203,-1.4961 -4.871,-2.6133 -0.481,-0.3164 -3.668,-2.7265 -9.52,-7.207 L 485.25,43.125" /><path
         id="path34"
         style="fill:#231f20;fill-opacity:1;fill-rule:nonzero;stroke:none"
         d="m 374.91,70.2422 -7.836,-26.2266 8.699,-0.0039 c 3.899,-0.0039 6.836,0.6094 8.77,1.8086 1.934,1.1992 3.934,3.7617 5.984,7.711 h 1.852 l -6.902,-24.1133 -1.95,0.0039 c 0.485,1.9492 0.735,3.5469 0.735,4.832 0.004,1.9844 -0.66,3.5156 -1.977,4.6016 -1.316,1.1015 -3.781,1.6523 -7.398,1.6562 l -8.782,0.0039 -5.785,-19.9765 c -1.035,-3.5508 -1.57,-5.8985 -1.57,-7.0664 0,-1.2149 0.445,-2.1329 1.348,-2.7852 0.898,-0.668 3.082,-1.10156 6.562,-1.33594 l -0.582,-1.80078 -26.164,0.01953 0.633,1.80078 c 2.531,0.06641 4.23,0.29688 5.066,0.67971 1.301,0.5664 2.266,1.3164 2.887,2.2461 0.883,1.332 1.918,4.082 3.137,8.2461 l 11.699,39.8906 c 0.934,3.2187 1.422,5.75 1.422,7.5703 0,0.8477 -0.215,1.5625 -0.633,2.1641 -0.434,0.6015 -1.047,1.0508 -1.879,1.3515 -0.836,0.2852 -2.484,0.4336 -4.953,0.4375 l 0.586,1.8164 51.367,-0.039 -4.894,-16.7461 h -1.872 c 0.368,2.0156 0.555,3.664 0.555,4.9844 0.004,2.1484 -0.597,3.8476 -1.777,5.1015 -1.199,1.25 -2.715,2.1367 -4.567,2.6524 -1.3,0.3359 -4.214,0.5039 -8.75,0.5039 l -13.031,0.0117" /></g></g></svg>