<?xml version="1.0" encoding="UTF-8" standalone="no"?>
<svg
   xmlns:dc="http://purl.org/dc/elements/1.1/"
   xmlns:cc="http://creativecommons.org/ns#"
   xmlns:rdf="http://www.w3.org/1999/02/22-rdf-syntax-ns#"
   xmlns:svg="http://www.w3.org/2000/svg"
   xmlns="http://www.w3.org/2000/svg"
   viewBox="0 0 172 80"
   height="80"
   width="172"
   xml:space="preserve"
   id="svg2"
   version="1.1"><metadata
     id="metadata8"><rdf:RDF><cc:Work
         rdf:about=""><dc:format>image/svg+xml</dc:format><dc:type
           rdf:resource="http://purl.org/dc/dcmitype/StillImage" /></cc:Work></rdf:RDF></metadata><defs
     id="defs6" /><g
     transform="matrix(1.3333333,0,0,-1.3333333,0,80)"
     id="g10"><g
       transform="scale(0.1)"
       id="g12"><path
         id="path14"
         style="fill:#231f20;fill-opacity:1;fill-rule:nonzero;stroke:none"
         d="M 61.6875,109.895 56.6094,54.8359 C 56.3438,52.25 56.2266,50.5664 56.2227,49.75 c 0,-1.2969 0.2343,-2.2969 0.7343,-2.9805 0.6133,-0.9336 1.4453,-1.6367 2.4961,-2.1054 1.0664,-0.4493 2.8516,-0.6836 5.3516,-0.6875 L 64.2695,42.1797 38.2031,42.1992 38.7344,44 39.8516,43.9961 c 2.1172,0 3.8554,0.4648 5.1875,1.3633 0.9336,0.6328 1.6679,1.6484 2.2031,3.082 0.3476,1.0195 0.7031,3.3828 1.0234,7.1328 l 0.7891,8.3985 -18.9531,0.0156 -6.7383,-9.1289 c -1.5352,-2.0508 -2.4883,-3.5313 -2.8867,-4.4141 -0.3868,-0.8984 -0.586,-1.7344 -0.586,-2.5156 -0.0039,-1.0508 0.4141,-1.9336 1.2617,-2.6836 0.8516,-0.75 2.25,-1.168 4.2032,-1.2383 l -0.5352,-1.7969 -19.58592,0.0118 0.53515,1.8007 c 2.41797,0.0977 4.53517,0.9141 6.38677,2.4141 1.8359,1.5156 4.5703,4.7422 8.2226,9.6914 L 59.9688,109.898 Z M 52.0078,93.6523 32.7891,67.5508 49.4375,67.5391 Z" /><path
         id="path16"
         style="fill:#231f20;fill-opacity:1;fill-rule:nonzero;stroke:none"
         d="m 1058.36,597.867 -4.95,-21.429 h -1.77 l -0.18,5.382 c -0.16,1.953 -0.55,3.684 -1.13,5.219 -0.58,1.535 -1.46,2.852 -2.63,3.988 -1.16,1.114 -2.65,2 -4.45,2.637 -1.78,0.633 -3.76,0.953 -5.95,0.953 -5.83,0.004 -10.91,-1.594 -15.28,-4.773 -5.57,-4.059 -9.94,-9.809 -13.1,-17.223 -2.6,-6.113 -3.92,-12.312 -3.93,-18.598 -0.01,-6.414 1.87,-11.535 5.6,-15.367 3.75,-3.824 8.62,-5.742 14.6,-5.746 4.53,-0.004 8.57,1.008 12.09,3.024 3.53,2.015 6.82,5.109 9.85,9.308 h 2.29 c -3.57,-5.699 -7.56,-9.879 -11.91,-12.558 -4.37,-2.68 -9.61,-4.028 -15.69,-4.02 -5.4,0.004 -10.18,1.141 -14.35,3.406 -4.16,2.274 -7.34,5.442 -9.505,9.559 -2.184,4.105 -3.277,8.504 -3.274,13.238 0.004,7.215 1.961,14.246 5.829,21.078 3.87,6.828 9.2,12.207 15.95,16.102 6.77,3.894 13.57,5.84 20.46,5.836 3.21,-0.004 6.83,-0.754 10.82,-2.289 1.76,-0.656 3.04,-0.989 3.8,-0.989 0.79,0 1.47,0.165 2.07,0.481 0.59,0.336 1.55,1.266 2.92,2.781 h 1.82" /><path
         id="path18"
         style="fill:#231f20;fill-opacity:1;fill-rule:nonzero;stroke:none"
         d="m 1241.52,101.121 0.69,1.817 23.63,-0.02 c 3.97,-0.004 7.5,-0.625 10.62,-1.875 3.1,-1.2344 5.43,-2.9532 6.98,-5.1719 1.54,-2.2148 2.31,-4.5664 2.31,-7.0352 0,-3.8164 -1.39,-7.2461 -4.14,-10.3281 -2.75,-3.0664 -7.24,-5.3437 -13.46,-6.793 4.02,-1.5 6.95,-3.4882 8.85,-5.9726 1.88,-2.4688 2.82,-5.1836 2.82,-8.1524 0,-3.2812 -0.85,-6.4296 -2.55,-9.4296 -1.69,-2.9805 -3.87,-5.3125 -6.52,-6.961 -2.66,-1.664 -5.86,-2.8789 -9.61,-3.6601 -2.67,-0.5469 -6.83,-0.8282 -12.5,-0.8243 l -24.26,0.0196 0.63,1.8008 c 2.55,0.0664 4.27,0.3125 5.19,0.7304 1.3,0.5664 2.23,1.2969 2.78,2.1953 0.79,1.2344 1.82,4.0625 3.12,8.4961 l 11.9,40.0743 c 1.02,3.3828 1.52,5.7656 1.52,7.1328 0,1.1992 -0.45,2.1523 -1.33,2.8519 -0.9,0.699 -2.6,1.05 -5.12,1.05 -0.54,0.004 -1.06,0.02 -1.55,0.055 z m 9.89,-27.4921 c 2.11,-0.0664 3.64,-0.1016 4.59,-0.1016 6.77,-0.0078 11.8,1.4571 15.13,4.4024 3.3,2.9492 4.95,6.6289 4.95,11.0625 0.01,3.3516 -1.01,5.9687 -3.03,7.8359 -2.01,1.8672 -5.23,2.8047 -9.66,2.8086 -1.16,0.0039 -2.66,-0.1797 -4.48,-0.5781 z m -9.65,-32.6094 c 3.52,-0.4687 6.27,-0.6875 8.25,-0.6875 5.08,-0.0039 9.58,1.5274 13.51,4.5743 3.93,3.0625 5.89,7.2109 5.89,12.4453 0,3.9961 -1.2,7.1328 -3.63,9.3828 -2.41,2.2539 -6.33,3.375 -11.73,3.3789 -1.05,0 -2.32,-0.0508 -3.82,-0.1485 l -8.47,-28.9453" /><path
         id="path20"
         style="fill:none;stroke:#231f20;stroke-width:7.5005002;stroke-linecap:butt;stroke-linejoin:miter;stroke-miterlimit:2.61310005;stroke-dasharray:none;stroke-opacity:1"
         d="M 74.4844,87.4609 1199.89,92.4531" /><path
         id="path22"
         style="fill:none;stroke:#231f20;stroke-width:7.5005002;stroke-linecap:butt;stroke-linejoin:miter;stroke-miterlimit:2.61310005;stroke-dasharray:none;stroke-opacity:1"
         d="M 990.395,528.371 1197.77,90.9727" /><path
         id="path24"
         style="fill:none;stroke:#231f20;stroke-width:7.5005002;stroke-linecap:butt;stroke-linejoin:miter;stroke-miterlimit:2.61310005;stroke-dasharray:none;stroke-opacity:1"
         d="M 992.594,91.1133 989.922,527.121" /><path
         id="path26"
         style="fill:none;stroke:#231f20;stroke-width:5.00029993;stroke-linecap:butt;stroke-linejoin:miter;stroke-miterlimit:2.61310005;stroke-dasharray:none;stroke-opacity:1"
         d="m 992.598,91.1133 h 40.852 v 38.5897 h -40.852 z" /><path
         id="path28"
         style="fill:#231f20;fill-opacity:1;fill-rule:nonzero;stroke:none"
         d="m 1010.93,41.2813 16.38,-25.3633 c 2.93,-4.4844 5.36,-7.37112 7.28,-8.62503 1.91,-1.25 4.45,-1.88281 7.57,-1.88672 l -0.54,-1.80078 -28.23,0.02344 0.45,1.80078 c 2.25,0.23047 3.83,0.76172 4.75,1.60937 0.93,0.85157 1.4,1.80078 1.4,2.88672 0,0.98052 -0.17,1.91402 -0.48,2.83202 -0.27,0.6485 -1.22,2.25 -2.83,4.7852 l -13.41,21.0625 -6.524,-21.9297 c -1.07,-3.5195 -1.605,-5.8672 -1.605,-7.08205 0,-1.23437 0.449,-2.16797 1.363,-2.82031 0.902,-0.66797 3.152,-1.10156 6.736,-1.33594 l -0.79,-1.80078 -26.165,0.01953 0.637,1.80078 c 2.535,0.06641 4.25,0.29688 5.133,0.67969 1.3,0.59766 2.25,1.34766 2.867,2.24609 0.851,1.33203 1.902,4.09769 3.141,8.30079 l 11.699,39.9883 c 0.888,3.0508 1.318,5.5156 1.328,7.3672 0,1.3007 -0.42,2.2968 -1.238,2.9804 -0.832,0.6836 -2.45,1.0196 -4.864,1.0235 h -0.984 l 0.598,1.8164 24.848,-0.0196 -0.5,-1.8164 c -2.05,0.0352 -3.56,-0.1796 -4.58,-0.6796 -1.4,-0.6836 -2.42,-1.5665 -3.07,-2.629 -0.67,-1.0664 -1.62,-3.7695 -2.89,-8.0507 l -5.14,-16.9922 23.54,17.7148 c 3.14,2.3281 5.19,4.1914 6.15,5.5625 0.59,0.8321 0.89,1.5977 0.89,2.2813 0,0.582 -0.3,1.1679 -0.9,1.7148 -0.6,0.5508 -1.51,0.9024 -2.76,1.0703 l 0.5,1.8164 21.18,-0.0156 L 1051.43,68 c -2.31,-0.3828 -4.26,-0.8984 -5.83,-1.5312 -1.58,-0.629 -3.2,-1.4961 -4.87,-2.6133 -0.48,-0.3164 -3.67,-2.7266 -9.52,-7.2071 l -20.28,-15.3671" /><path
         id="path30"
         style="fill:none;stroke:#231f20;stroke-width:7.5005002;stroke-linecap:butt;stroke-linejoin:miter;stroke-miterlimit:2.61310005;stroke-dasharray:none;stroke-opacity:1"
         d="M 988.789,523.504 74.1094,89.8594" /></g></g></svg>