<?xml version="1.0" encoding="UTF-8" standalone="no"?>
<svg
   xmlns:dc="http://purl.org/dc/elements/1.1/"
   xmlns:cc="http://creativecommons.org/ns#"
   xmlns:rdf="http://www.w3.org/1999/02/22-rdf-syntax-ns#"
   xmlns:svg="http://www.w3.org/2000/svg"
   xmlns="http://www.w3.org/2000/svg"
   viewBox="0 0 129.33333 72"
   height="72"
   width="129.33333"
   xml:space="preserve"
   id="svg2"
   version="1.1"><metadata
     id="metadata8"><rdf:RDF><cc:Work
         rdf:about=""><dc:format>image/svg+xml</dc:format><dc:type
           rdf:resource="http://purl.org/dc/dcmitype/StillImage" /></cc:Work></rdf:RDF></metadata><defs
     id="defs6" /><g
     transform="matrix(1.3333333,0,0,-1.3333333,0,72)"
     id="g10"><g
       transform="scale(0.1)"
       id="g12"><path
         id="path14"
         style="fill:none;stroke:#231f20;stroke-width:7.5005002;stroke-linecap:butt;stroke-linejoin:miter;stroke-miterlimit:2.61310005;stroke-dasharray:none;stroke-opacity:1"
         d="M 871.773,29.7227 476.211,448.504" /><path
         id="path16"
         style="fill:none;stroke:#231f20;stroke-width:7.5005002;stroke-linecap:butt;stroke-linejoin:miter;stroke-miterlimit:2.61310005;stroke-dasharray:none;stroke-opacity:1"
         d="M 88.4219,24.9023 478.598,448.719" /><path
         id="path18"
         style="fill:none;stroke:#231f20;stroke-width:7.5005002;stroke-linecap:butt;stroke-linejoin:miter;stroke-miterlimit:2.61310005;stroke-dasharray:none;stroke-opacity:1"
         d="M 89.2305,25.4648 871.078,30.457" /><path
         id="path20"
         style="fill:none;stroke:#231f20;stroke-width:7.5005002;stroke-linecap:butt;stroke-linejoin:miter;stroke-miterlimit:2.61310005;stroke-dasharray:none;stroke-opacity:1"
         d="M 89.2305,25.4648 662.645,251.117" /><path
         id="path22"
         style="fill:none;stroke:#231f20;stroke-width:5.00029993;stroke-linecap:butt;stroke-linejoin:miter;stroke-miterlimit:2.61310005;stroke-dasharray:none;stroke-opacity:1"
         d="m 198.965,68.6484 c 12.34,-11.1601 16.711,-25.3046 13.094,-42.4062" /><path
         id="path24"
         style="fill:none;stroke:#231f20;stroke-width:5.00029993;stroke-linecap:butt;stroke-linejoin:miter;stroke-miterlimit:2.61310005;stroke-dasharray:none;stroke-opacity:1"
         d="m 163.434,103.305 c 14.523,-8.1214 21.937,-20.9378 22.222,-38.4027" /><path
         id="path26"
         style="fill:#231f20;fill-opacity:1;fill-rule:nonzero;stroke:none"
         d="M 62.7539,67.7891 57.6758,12.7305 c -0.2695,-2.586 -0.3867,-4.26956 -0.3867,-5.08597 0,-1.30078 0.2304,-2.30078 0.7304,-2.98437 0.6133,-0.9336 1.4493,-1.63282 2.5,-2.10157 1.0664,-0.44921 2.8477,-0.68359 5.3477,-0.6875 L 65.332,0.0703125 39.2656,0.09375 39.8008,1.89063 h 1.1172 c 2.1172,0 3.8515,0.46484 5.1836,1.36328 0.9336,0.63281 1.6679,1.64843 2.2031,3.08203 0.3476,1.01562 0.7031,3.3789 1.0234,7.12886 l 0.7891,8.4024 -18.9492,0.0156 -6.7422,-9.1289 C 22.8945,10.7031 21.9375,9.22266 21.5391,8.33984 21.1563,7.44141 20.9531,6.60547 20.9531,5.82422 c 0,-1.05078 0.4141,-1.93359 1.2657,-2.6875 0.8476,-0.74609 2.25,-1.16406 4.1992,-1.23438 L 25.8828,0.101563 6.30078,0.117188 6.83203,1.91797 C 9.25,2.01563 11.3711,2.82813 13.2188,4.33203 c 1.8359,1.51172 4.5703,4.74219 8.2265,9.69137 L 61.0352,67.793 Z M 53.0742,51.5469 33.8516,25.4453 50.5039,25.4336 Z" /><path
         id="path28"
         style="fill:#231f20;fill-opacity:1;fill-rule:nonzero;stroke:none"
         d="m 965.27,84.8672 -4.95,-21.4258 h -1.769 l -0.176,5.3828 c -0.168,1.9492 -0.547,3.6836 -1.129,5.2149 -0.586,1.5351 -1.469,2.8554 -2.633,3.9882 -1.168,1.1172 -2.648,2 -4.449,2.6368 -1.781,0.6328 -3.766,0.9531 -5.949,0.9531 -5.832,0.0078 -10.914,-1.5899 -15.285,-4.7695 -5.571,-4.0625 -9.942,-9.8086 -13.098,-17.2227 -2.602,-6.1172 -3.926,-12.3125 -3.93,-18.5977 -0.004,-6.4179 1.871,-11.5351 5.602,-15.371 3.75,-3.8204 8.613,-5.7422 14.598,-5.7461 4.531,-0.0039 8.566,1.0117 12.086,3.0234 3.535,2.0156 6.82,5.1133 9.859,9.3086 h 2.281 c -3.57,-5.6992 -7.558,-9.8789 -11.91,-12.5547 -4.367,-2.6836 -9.605,-4.0273 -15.688,-4.0234 -5.398,0.0039 -10.179,1.1406 -14.343,3.4101 -4.168,2.2696 -7.348,5.4414 -9.512,9.5586 -2.18,4.1016 -3.277,8.5 -3.273,13.2344 0.003,7.2187 1.961,14.25 5.832,21.082 3.871,6.8281 9.195,12.2071 15.945,16.1016 6.769,3.8945 13.574,5.8398 20.457,5.8359 3.215,-0.0039 6.832,-0.7539 10.828,-2.2929 1.754,-0.6524 3.035,-0.9844 3.801,-0.9844 0.785,-0.0039 1.469,0.1601 2.066,0.4804 0.586,0.3321 1.555,1.2657 2.922,2.7813 l 1.817,-0.0039" /><path
         id="path30"
         style="fill:#231f20;fill-opacity:1;fill-rule:nonzero;stroke:none"
         d="m 713.324,326.918 -7.586,-26.18 6.2,-0.004 c 4.433,-0.004 7.636,0.68 9.636,2.028 1.985,1.347 3.688,3.843 5.121,7.496 l 1.821,-0.004 -6.821,-24.027 h -1.949 c 0.586,2.019 0.883,3.75 0.883,5.183 0.004,1.403 -0.281,2.52 -0.844,3.367 -0.582,0.852 -1.351,1.469 -2.351,1.887 -0.996,0.399 -3.079,0.602 -6.282,0.606 l -6.285,0.003 -6.414,-21.91 c -0.617,-2.117 -0.937,-3.734 -0.937,-4.832 0,-0.851 0.414,-1.605 1.214,-2.254 0.567,-0.449 1.95,-0.683 4.149,-0.687 l 5.867,-0.004 c 6.352,-0.004 11.434,1.125 15.254,3.355 3.832,2.25 7.27,6.161 10.293,11.727 l 1.816,-0.004 -6.265,-18.41 -51.184,0.039 0.637,1.801 c 2.547,0.066 4.25,0.297 5.133,0.679 1.3,0.598 2.25,1.348 2.836,2.247 0.882,1.332 1.918,4.132 3.125,8.398 l 11.664,39.941 c 0.898,3.215 1.367,5.664 1.371,7.368 0,1.23 -0.434,2.199 -1.301,2.898 -0.867,0.703 -2.547,1.051 -5.047,1.055 h -1.035 l 0.586,1.816 47.566,-0.035 -4.113,-15.965 h -1.816 c 0.234,1.5 0.355,2.75 0.355,3.75 0,1.734 -0.414,3.184 -1.266,4.352 -1.113,1.5 -2.714,2.636 -4.828,3.422 -1.57,0.582 -5.168,0.886 -10.8,0.89 l -8.403,0.008" /><path
         id="path32"
         style="fill:#231f20;fill-opacity:1;fill-rule:nonzero;stroke:none"
         d="m 469.77,533.578 0.683,1.817 23.633,-0.016 c 3.969,-0.004 7.5,-0.625 10.617,-1.879 3.098,-1.234 5.43,-2.953 6.981,-5.168 1.543,-2.219 2.312,-4.57 2.308,-7.039 -0.004,-3.816 -1.387,-7.246 -4.14,-10.328 -2.754,-3.067 -7.239,-5.344 -13.457,-6.789 4.015,-1.504 6.949,-3.488 8.847,-5.973 1.879,-2.469 2.828,-5.187 2.824,-8.152 -0.003,-3.285 -0.851,-6.434 -2.554,-9.434 -1.688,-2.98 -3.871,-5.312 -6.524,-6.957 -2.652,-1.668 -5.851,-2.883 -9.601,-3.664 -2.668,-0.547 -6.836,-0.828 -12.504,-0.82 l -24.262,0.015 0.633,1.801 c 2.551,0.067 4.266,0.317 5.184,0.731 1.3,0.566 2.234,1.297 2.785,2.199 0.785,1.23 1.82,4.062 3.121,8.492 l 11.898,40.078 c 1.02,3.383 1.52,5.762 1.524,7.133 0,1.199 -0.45,2.148 -1.332,2.848 -0.899,0.703 -2.598,1.05 -5.114,1.054 -0.55,0 -1.066,0.016 -1.55,0.051 z m 9.878,-27.492 c 2.114,-0.066 3.649,-0.102 4.598,-0.102 6.77,-0.004 11.801,1.461 15.121,4.407 3.301,2.945 4.957,6.629 4.961,11.062 0,3.348 -1.015,5.965 -3.031,7.836 -2.016,1.867 -5.231,2.805 -9.664,2.809 -1.164,0 -2.664,-0.184 -4.481,-0.582 z m -9.644,-32.606 c 3.519,-0.472 6.269,-0.687 8.254,-0.691 5.082,-0.004 9.582,1.527 13.5,4.574 3.937,3.063 5.89,7.211 5.894,12.446 0.004,4 -1.195,7.132 -3.625,9.386 -2.418,2.25 -6.332,3.371 -11.73,3.375 -1.051,0 -2.32,-0.05 -3.82,-0.148 l -8.473,-28.942" /></g></g></svg>