<?xml version="1.0" encoding="UTF-8" standalone="no"?>
<svg
   xmlns:dc="http://purl.org/dc/elements/1.1/"
   xmlns:cc="http://creativecommons.org/ns#"
   xmlns:rdf="http://www.w3.org/1999/02/22-rdf-syntax-ns#"
   xmlns:svg="http://www.w3.org/2000/svg"
   xmlns="http://www.w3.org/2000/svg"
   viewBox="0 0 97.333336 70.666664"
   height="70.666664"
   width="97.333336"
   xml:space="preserve"
   id="svg2"
   version="1.1"><metadata
     id="metadata8"><rdf:RDF><cc:Work
         rdf:about=""><dc:format>image/svg+xml</dc:format><dc:type
           rdf:resource="http://purl.org/dc/dcmitype/StillImage" /></cc:Work></rdf:RDF></metadata><defs
     id="defs6" /><g
     transform="matrix(1.3333333,0,0,-1.3333333,0,70.666667)"
     id="g10"><g
       transform="scale(0.1)"
       id="g12"><path
         id="path14"
         style="fill:none;stroke:#231f20;stroke-width:7.5005002;stroke-linecap:butt;stroke-linejoin:miter;stroke-miterlimit:2.61310005;stroke-dasharray:none;stroke-opacity:1"
         d="M 429.73,526.875 614.773,95.0938" /><path
         id="path16"
         style="fill:none;stroke:#231f20;stroke-width:7.5005002;stroke-linecap:butt;stroke-linejoin:miter;stroke-miterlimit:2.61310005;stroke-dasharray:none;stroke-opacity:1"
         d="M 70.1406,11.293 721.926,514.016" /><path
         id="path18"
         style="fill:none;stroke:#231f20;stroke-width:7.5005002;stroke-linecap:butt;stroke-linejoin:miter;stroke-miterlimit:2.61310005;stroke-dasharray:none;stroke-opacity:1"
         d="M 6.65625,346.703 717.574,349.906" /><path
         id="path20"
         style="fill:#231f20;fill-opacity:1;fill-rule:nonzero;stroke:none"
         d="M 26.6563,422.082 20.2891,400.07 c 2.8398,5.184 5.2422,9.063 7.2461,11.664 3.0859,4.032 6.1054,6.957 9.039,8.789 1.7149,1.036 3.5156,1.551 5.418,1.547 1.6172,0 2.9648,-0.515 4.0469,-1.554 1.0664,-1.047 1.6172,-2.383 1.6132,-4.016 0,-1.582 -0.3828,-3.664 -1.1367,-6.25 l -3.4765,-12.395 c 5.3242,9.926 10.3437,16.891 15.0976,20.887 2.6524,2.215 5.2539,3.313 7.8203,3.309 1.5,0 2.7344,-0.5 3.6836,-1.535 0.9649,-1.02 1.4492,-2.618 1.4453,-4.77 0,-1.883 -0.3007,-3.879 -0.8867,-5.996 l -5.3828,-18.996 c -1.1875,-4.133 -1.7695,-6.418 -1.7695,-6.883 0,-0.449 0.1445,-0.832 0.4453,-1.168 0.1836,-0.23 0.4531,-0.332 0.7851,-0.332 0.3165,0 0.8829,0.297 1.6993,0.914 1.8515,1.434 3.6015,3.317 5.2382,5.664 l 1.6016,-1.019 c -0.8203,-1.317 -2.2539,-3.098 -4.3242,-5.379 -2.0664,-2.266 -3.8359,-3.813 -5.3047,-4.629 -1.4648,-0.813 -2.8125,-1.215 -4.0469,-1.215 -1.1328,0 -2.1015,0.387 -2.8515,1.172 -0.7657,0.781 -1.1446,1.73 -1.1446,2.883 0,1.566 0.668,4.699 2.0039,9.414 l 4.4454,15.679 c 1.0234,3.618 1.5546,5.614 1.621,6 0.1016,0.618 0.1524,1.215 0.1524,1.801 0,0.817 -0.1797,1.449 -0.5313,1.914 -0.3984,0.453 -0.832,0.688 -1.3164,0.688 -1.3632,0 -2.8164,-0.699 -4.3515,-2.098 -4.5,-4.129 -8.7071,-9.926 -12.6133,-17.371 -2.5703,-4.918 -4.9922,-11.215 -7.25,-18.898 l -7.3633,0.007 8.3711,29.528 c 0.9219,3.199 1.3711,5.328 1.3711,6.398 0,0.883 -0.1797,1.531 -0.5313,1.949 -0.3632,0.434 -0.7968,0.653 -1.3164,0.653 -1.082,0 -2.2148,-0.399 -3.4179,-1.184 -1.9649,-1.265 -4.4688,-3.98 -7.5547,-8.144 -3.086,-4.164 -5.4727,-8.145 -7.1563,-11.957 -0.8203,-1.786 -2.7617,-7.532 -5.832,-17.231 l -7.21484,0.004 9.05464,31.629 1.1719,4.113 c 0.2305,0.617 0.3321,1.067 0.336,1.367 0,0.719 -0.3164,1.352 -0.9688,1.918 -0.6484,0.567 -1.4844,0.868 -2.4961,0.868 -0.418,0 -1.5859,-0.2 -3.5195,-0.598 l -0.43361,1.816 16.85161,3.055" /><path
         id="path22"
         style="fill:#231f20;fill-opacity:1;fill-rule:nonzero;stroke:none"
         d="m 655.945,424.344 16.125,7.851 h 1.618 l -0.047,-55.914 c 0,-3.703 0.148,-6.019 0.445,-6.933 0.32,-0.903 0.969,-1.602 1.934,-2.102 0.984,-0.488 2.968,-0.769 5.964,-0.84 v -1.801 l -24.918,0.02 0.004,1.801 c 3.133,0.066 5.149,0.332 6.067,0.812 0.902,0.465 1.535,1.098 1.898,1.899 0.352,0.801 0.539,3.183 0.543,7.148 l 0.027,35.75 c 0.004,4.817 -0.16,7.903 -0.476,9.27 -0.234,1.047 -0.649,1.816 -1.25,2.297 -0.602,0.488 -1.313,0.738 -2.164,0.738 -1.203,0 -2.883,-0.5 -5.035,-1.512 l -0.735,1.516" /><path
         id="path24"
         style="fill:none;stroke:#231f20;stroke-width:7.5005002;stroke-linecap:butt;stroke-linejoin:miter;stroke-miterlimit:2.61310005;stroke-dasharray:none;stroke-opacity:1"
         d="M 6.65625,130.703 717.574,133.906" /><path
         id="path26"
         style="fill:#231f20;fill-opacity:1;fill-rule:nonzero;stroke:none"
         d="m 646.066,162.004 -4.644,-12.746 -39.067,0.027 v 1.801 c 11.493,10.473 19.598,19.035 24.286,25.668 4.687,6.644 7.043,12.707 7.047,18.207 0.003,4.203 -1.274,7.652 -3.856,10.352 -2.566,2.703 -5.629,4.054 -9.215,4.058 -3.265,0.004 -6.183,-0.945 -8.769,-2.84 -2.582,-1.902 -4.5,-4.699 -5.739,-8.363 h -1.816 c 0.82,6.016 2.91,10.629 6.293,13.863 3.371,3.215 7.57,4.824 12.621,4.821 5.367,-0.004 9.848,-1.739 13.445,-5.196 3.598,-3.449 5.395,-7.515 5.391,-12.199 -0.004,-3.352 -0.789,-6.719 -2.359,-10.066 -2.403,-5.266 -6.321,-10.844 -11.727,-16.743 -8.109,-8.843 -13.18,-14.171 -15.199,-16.003 l 17.289,-0.012 c 3.512,-0.004 5.98,0.129 7.398,0.394 1.414,0.246 2.7,0.778 3.832,1.578 1.133,0.801 2.137,1.934 2.989,3.399 h 1.8" /><path
         id="path28"
         style="fill:#231f20;fill-opacity:1;fill-rule:nonzero;stroke:none"
         d="m 474.906,301.477 c 1.891,4.449 4.274,7.894 7.16,10.308 2.887,2.434 6.469,3.645 10.77,3.645 5.301,-0.008 9.363,-1.742 12.195,-5.196 2.149,-2.566 3.231,-5.316 3.227,-8.25 -0.004,-4.816 -3.043,-9.796 -9.094,-14.925 4.066,-1.606 7.129,-3.891 9.211,-6.86 2.082,-2.949 3.129,-6.433 3.125,-10.453 -0.004,-5.715 -1.824,-10.68 -5.48,-14.879 -4.75,-5.461 -11.641,-8.191 -20.657,-8.183 -4.465,0.004 -7.496,0.554 -9.113,1.66 -1.598,1.113 -2.414,2.301 -2.414,3.566 0,0.949 0.387,1.781 1.152,2.5 0.766,0.715 1.684,1.063 2.766,1.063 0.801,0 1.637,-0.133 2.484,-0.383 0.551,-0.168 1.801,-0.77 3.766,-1.785 1.949,-1.039 3.301,-1.641 4.047,-1.84 1.199,-0.367 2.484,-0.535 3.851,-0.535 3.317,-0.004 6.215,1.277 8.668,3.843 2.469,2.563 3.688,5.614 3.692,9.129 0,2.567 -0.563,5.082 -1.696,7.52 -0.847,1.816 -1.781,3.203 -2.777,4.152 -1.398,1.297 -3.316,2.485 -5.766,3.535 -2.429,1.071 -4.929,1.606 -7.464,1.61 h -1.567 v 1.465 c 2.567,0.316 5.153,1.246 7.738,2.777 2.598,1.516 4.485,3.363 5.653,5.512 1.168,2.152 1.754,4.5 1.754,7.066 0.004,3.367 -1.043,6.066 -3.141,8.133 -2.101,2.074 -4.699,3.105 -7.832,3.109 -5.051,0.004 -9.254,-2.691 -12.656,-8.09 l -1.602,0.786" /><path
         id="path30"
         style="fill:#231f20;fill-opacity:1;fill-rule:nonzero;stroke:none"
         d="m 38.5703,193.605 -6.5039,-22.21 c 6.0938,9.082 10.7656,15.062 14,17.925 3.2344,2.844 6.3555,4.278 9.3555,4.274 1.6289,0 2.9648,-0.535 4.0312,-1.602 1.0469,-1.086 1.5782,-2.488 1.5782,-4.203 -0.004,-1.949 -0.4688,-4.566 -1.4219,-7.816 L 53.6445,159.43 c -0.7031,-2.383 -1.039,-3.832 -1.039,-4.352 0,-0.449 0.1328,-0.832 0.3828,-1.148 0.2656,-0.317 0.5508,-0.465 0.832,-0.465 0.4024,-0.004 0.8672,0.215 1.418,0.629 1.7383,1.367 3.6211,3.449 5.6719,6.246 l 1.5156,-0.918 c -3.0352,-4.332 -5.9024,-7.43 -8.6055,-9.274 -1.8867,-1.265 -3.5859,-1.902 -5.0703,-1.898 -1.2148,0 -2.1641,0.367 -2.8789,1.102 -0.7188,0.734 -1.082,1.718 -1.082,2.949 0,1.57 0.5547,4.25 1.6718,8.051 l 5.6836,19.628 c 0.7149,2.434 1.0703,4.348 1.0703,5.715 0,0.649 -0.2187,1.184 -0.6328,1.586 -0.4179,0.399 -0.9492,0.617 -1.5664,0.617 -0.9023,0 -2,-0.398 -3.2695,-1.179 -2.4141,-1.469 -4.918,-3.879 -7.5195,-7.246 -2.6055,-3.368 -5.3555,-7.664 -8.2618,-12.91 -1.5351,-2.766 -2.8046,-5.782 -3.8203,-9.079 l -2.4414,-8.05 -7.3359,0.007 8.9101,30.559 c 1.0547,3.684 1.5704,5.898 1.5704,6.629 0,0.719 -0.2813,1.355 -0.8477,1.887 -0.5664,0.535 -1.2852,0.816 -2.1172,0.82 -0.3984,0 -1.082,-0.07 -2.0664,-0.203 l -1.8476,-0.293 -0.2813,1.765 16.8828,3" /></g></g></svg>