<?xml version="1.0" encoding="UTF-8" standalone="no"?>
<svg
   xmlns:dc="http://purl.org/dc/elements/1.1/"
   xmlns:cc="http://creativecommons.org/ns#"
   xmlns:rdf="http://www.w3.org/1999/02/22-rdf-syntax-ns#"
   xmlns:svg="http://www.w3.org/2000/svg"
   xmlns="http://www.w3.org/2000/svg"
   viewBox="0 0 172 82.666664"
   height="82.666664"
   width="172"
   xml:space="preserve"
   id="svg2"
   version="1.1"><metadata
     id="metadata8"><rdf:RDF><cc:Work
         rdf:about=""><dc:format>image/svg+xml</dc:format><dc:type
           rdf:resource="http://purl.org/dc/dcmitype/StillImage" /></cc:Work></rdf:RDF></metadata><defs
     id="defs6" /><g
     transform="matrix(1.3333333,0,0,-1.3333333,0,82.666667)"
     id="g10"><g
       transform="scale(0.1)"
       id="g12"><path
         id="path14"
         style="fill:#231f20;fill-opacity:1;fill-rule:nonzero;stroke:none"
         d="m 984.051,74.8359 6.078,-53.3398 38.461,53.3047 16.16,-0.0117 v -1.8164 c -3.52,-0.2149 -5.58,-0.4493 -6.2,-0.6797 -1.08,-0.418 -2.07,-1.2657 -2.95,-2.5313 -0.9,-1.2656 -1.87,-3.7148 -2.92,-7.332 L 1020.39,20.457 c -0.71,-2.4492 -1.07,-4.3672 -1.07,-5.7656 0,-1.2656 0.43,-2.2344 1.32,-2.8828 1.23,-0.9336 3.18,-1.4219 5.85,-1.4219 l 1.18,-0.0039 -0.45,-1.79686 -27.884,0.01953 0.5,1.80083 h 1.314 c 2.47,-0.004 4.35,0.3593 5.67,1.0781 1,0.5156 1.9,1.4961 2.7,2.9492 0.8,1.4453 1.92,4.6641 3.36,9.6445 l 10.96,38.3594 -38.652,-53.82031 -1.954,0.0039 -6.171,53.85161 -11.852,-40.9571 c -1.004,-3.4804 -1.504,-5.8164 -1.504,-7.0117 0,-1.2226 0.434,-2.1367 1.313,-2.7695 0.867,-0.6367 3,-1.0703 6.398,-1.3047 l -0.551,-1.80079 -21.812,0.01562 0.531,1.80077 h 1.316 c 3.219,-0.0039 5.551,0.8125 6.989,2.4414 1.031,1.168 2.132,3.7149 3.269,7.6172 l 14.457,49.3555 c -1.082,1.0976 -2.101,1.8515 -3.082,2.25 -0.984,0.3867 -2.785,0.7031 -5.414,0.9219 l 0.481,1.8164 16.449,-0.0118" /><path
         id="path16"
         style="fill:#231f20;fill-opacity:1;fill-rule:nonzero;stroke:none"
         d="M 61.6875,129.895 56.6094,74.8359 C 56.3438,72.25 56.2266,70.5664 56.2227,69.75 c 0,-1.2969 0.2343,-2.2969 0.7343,-2.9805 0.6133,-0.9336 1.4453,-1.6367 2.4961,-2.1054 1.0664,-0.4493 2.8516,-0.6836 5.3516,-0.6875 L 64.2695,62.1797 38.2031,62.1992 38.7344,64 39.8516,63.9961 c 2.1172,0 3.8554,0.4648 5.1875,1.3633 0.9336,0.6328 1.6679,1.6484 2.2031,3.082 0.3476,1.0195 0.7031,3.3828 1.0234,7.1328 l 0.7891,8.3985 -18.9531,0.0156 -6.7383,-9.1289 c -1.5352,-2.0508 -2.4883,-3.5313 -2.8867,-4.4141 -0.3868,-0.8984 -0.586,-1.7344 -0.586,-2.5156 -0.0039,-1.0508 0.4141,-1.9336 1.2617,-2.6836 0.8516,-0.75 2.25,-1.168 4.2032,-1.2383 l -0.5352,-1.7969 -19.58592,0.0118 0.53515,1.8007 c 2.41797,0.0977 4.53517,0.9141 6.38677,2.4141 1.8359,1.5156 4.5703,4.7422 8.2226,9.6914 L 59.9688,129.898 Z M 52.0078,113.652 32.7891,87.5508 49.4375,87.5391 Z" /><path
         id="path18"
         style="fill:#231f20;fill-opacity:1;fill-rule:nonzero;stroke:none"
         d="m 1058.36,617.867 -4.95,-21.429 h -1.77 l -0.18,5.382 c -0.16,1.953 -0.55,3.684 -1.13,5.219 -0.58,1.535 -1.46,2.852 -2.63,3.988 -1.16,1.114 -2.65,2 -4.45,2.637 -1.78,0.633 -3.76,0.953 -5.95,0.953 -5.83,0.004 -10.91,-1.594 -15.28,-4.773 -5.57,-4.059 -9.94,-9.809 -13.1,-17.223 -2.6,-6.113 -3.92,-12.312 -3.93,-18.598 -0.01,-6.414 1.87,-11.535 5.6,-15.367 3.75,-3.824 8.62,-5.742 14.6,-5.746 4.53,-0.004 8.57,1.008 12.09,3.024 3.53,2.015 6.82,5.109 9.85,9.308 h 2.29 c -3.57,-5.699 -7.56,-9.879 -11.91,-12.558 -4.37,-2.68 -9.61,-4.028 -15.69,-4.02 -5.4,0.004 -10.18,1.141 -14.35,3.406 -4.16,2.274 -7.34,5.442 -9.505,9.559 -2.184,4.105 -3.277,8.504 -3.274,13.238 0.004,7.215 1.961,14.246 5.829,21.078 3.87,6.828 9.2,12.207 15.95,16.102 6.77,3.894 13.57,5.84 20.46,5.836 3.21,-0.004 6.83,-0.754 10.82,-2.289 1.76,-0.656 3.04,-0.989 3.8,-0.989 0.79,0 1.47,0.165 2.07,0.481 0.59,0.336 1.55,1.266 2.92,2.781 h 1.82" /><path
         id="path20"
         style="fill:#231f20;fill-opacity:1;fill-rule:nonzero;stroke:none"
         d="m 1241.52,121.121 0.69,1.817 23.63,-0.02 c 3.97,-0.004 7.5,-0.625 10.62,-1.875 3.1,-1.234 5.43,-2.953 6.98,-5.172 1.54,-2.215 2.31,-4.566 2.31,-7.035 0,-3.816 -1.39,-7.246 -4.14,-10.3282 -2.75,-3.0664 -7.24,-5.3437 -13.46,-6.793 4.02,-1.5 6.95,-3.4882 8.85,-5.9726 1.88,-2.4688 2.82,-5.1836 2.82,-8.1524 0,-3.2812 -0.85,-6.4296 -2.55,-9.4296 -1.69,-2.9805 -3.87,-5.3125 -6.52,-6.961 -2.66,-1.664 -5.86,-2.8789 -9.61,-3.6601 -2.67,-0.5469 -6.83,-0.8282 -12.5,-0.8243 l -24.26,0.0196 0.63,1.8008 c 2.55,0.0664 4.27,0.3125 5.19,0.7304 1.3,0.5664 2.23,1.2969 2.78,2.1953 0.79,1.2344 1.82,4.0625 3.12,8.4961 l 11.9,40.074 c 1.02,3.383 1.52,5.766 1.52,7.133 0,1.199 -0.45,2.152 -1.33,2.852 -0.9,0.699 -2.6,1.05 -5.12,1.05 -0.54,0.004 -1.06,0.02 -1.55,0.055 z m 9.89,-27.4921 c 2.11,-0.0664 3.64,-0.1016 4.59,-0.1016 6.77,-0.0078 11.8,1.4571 15.13,4.4024 3.3,2.9493 4.95,6.6293 4.95,11.0623 0.01,3.352 -1.01,5.969 -3.03,7.836 -2.01,1.867 -5.23,2.805 -9.66,2.809 -1.16,0.004 -2.66,-0.18 -4.48,-0.578 z m -9.65,-32.6094 c 3.52,-0.4687 6.27,-0.6875 8.25,-0.6875 5.08,-0.0039 9.58,1.5274 13.51,4.5743 3.93,3.0625 5.89,7.2109 5.89,12.4453 0,3.9961 -1.2,7.1328 -3.63,9.3828 -2.41,2.2539 -6.33,3.375 -11.73,3.3789 -1.05,0 -2.32,-0.0508 -3.82,-0.1485 l -8.47,-28.9453" /><path
         id="path22"
         style="fill:none;stroke:#231f20;stroke-width:7.5005002;stroke-linecap:butt;stroke-linejoin:miter;stroke-miterlimit:2.61310005;stroke-dasharray:none;stroke-opacity:1"
         d="M 74.4844,107.461 1199.89,112.453" /><path
         id="path24"
         style="fill:none;stroke:#231f20;stroke-width:7.5005002;stroke-linecap:butt;stroke-linejoin:miter;stroke-miterlimit:2.61310005;stroke-dasharray:none;stroke-opacity:1"
         d="M 990.398,548.371 1197.77,110.973" /><path
         id="path26"
         style="fill:none;stroke:#231f20;stroke-width:7.5005002;stroke-linecap:butt;stroke-linejoin:miter;stroke-miterlimit:2.61310005;stroke-dasharray:none;stroke-opacity:1"
         d="m 992.594,111.113 -2.672,436.008" /><path
         id="path28"
         style="fill:none;stroke:#231f20;stroke-width:5.00029993;stroke-linecap:butt;stroke-linejoin:miter;stroke-miterlimit:2.61310005;stroke-dasharray:none;stroke-opacity:1"
         d="m 992.598,111.113 h 40.852 v 38.59 h -40.852 z" /><path
         id="path30"
         style="fill:none;stroke:#231f20;stroke-width:7.5005002;stroke-linecap:butt;stroke-linejoin:miter;stroke-miterlimit:2.61310005;stroke-dasharray:none;stroke-opacity:1"
         d="M 988.789,543.504 74.1094,109.855" /></g></g></svg>