<?xml version="1.0" encoding="UTF-8" standalone="no"?>
<svg
   xmlns:dc="http://purl.org/dc/elements/1.1/"
   xmlns:cc="http://creativecommons.org/ns#"
   xmlns:rdf="http://www.w3.org/1999/02/22-rdf-syntax-ns#"
   xmlns:svg="http://www.w3.org/2000/svg"
   xmlns="http://www.w3.org/2000/svg"
   viewBox="0 0 76 74.666664"
   height="74.666664"
   width="76"
   xml:space="preserve"
   id="svg2"
   version="1.1"><metadata
     id="metadata8"><rdf:RDF><cc:Work
         rdf:about=""><dc:format>image/svg+xml</dc:format><dc:type
           rdf:resource="http://purl.org/dc/dcmitype/StillImage" /></cc:Work></rdf:RDF></metadata><defs
     id="defs6" /><g
     transform="matrix(1.3333333,0,0,-1.3333333,0,74.666667)"
     id="g10"><g
       transform="scale(0.1)"
       id="g12"><path
         id="path14"
         style="fill:none;stroke:#231f20;stroke-width:5.00029993;stroke-linecap:butt;stroke-linejoin:miter;stroke-miterlimit:2.61310005;stroke-dasharray:none;stroke-opacity:1"
         d="m 244.246,326.926 c -0.898,-5.383 -5.992,-9.02 -11.371,-8.113 -5.383,0.898 -9.016,5.992 -8.109,11.367 0.898,5.383 5.992,9.019 11.367,8.113 5.383,-0.898 9.019,-5.992 8.113,-11.367 z" /><path
         id="path16"
         style="fill:#231f20;fill-opacity:1;fill-rule:nonzero;stroke:none"
         d="m 485.652,72.5078 0.684,1.8164 23.637,-0.0195 c 3.965,-0.0039 7.496,-0.625 10.613,-1.875 3.102,-1.2344 5.43,-2.9531 6.98,-5.1719 1.547,-2.2148 2.313,-4.5664 2.309,-7.0351 0,-3.8164 -1.387,-7.2461 -4.141,-10.3282 -2.754,-3.0664 -7.238,-5.3437 -13.453,-6.7929 4.016,-1.5 6.946,-3.4883 8.844,-5.9727 1.879,-2.4687 2.828,-5.1836 2.824,-8.1523 0,-3.2813 -0.851,-6.4297 -2.554,-9.4297 -1.688,-2.9805 -3.872,-5.3125 -6.524,-6.961 -2.648,-1.664 -5.851,-2.87887 -9.601,-3.66012 -2.668,-0.54687 -6.836,-0.82812 -12.5,-0.82422 l -24.266,0.01953 0.633,1.80079 c 2.551,0.0664 4.265,0.31252 5.183,0.73042 1.301,0.5665 2.235,1.2969 2.789,2.1954 0.782,1.2343 1.817,4.0625 3.121,8.4961 l 11.895,40.0742 c 1.02,3.3828 1.523,5.7656 1.523,7.1328 0,1.1992 -0.445,2.1523 -1.332,2.8515 -0.894,0.6993 -2.597,1.0508 -5.113,1.0508 -0.551,0.0039 -1.066,0.0196 -1.551,0.0547 z m 9.879,-27.4922 c 2.114,-0.0664 3.649,-0.1015 4.598,-0.1015 6.769,-0.0078 11.801,1.457 15.121,4.4023 3.301,2.9492 4.957,6.6289 4.961,11.0625 0.004,3.3516 -1.012,5.9688 -3.031,7.8359 -2.012,1.8672 -5.231,2.8047 -9.664,2.8086 -1.164,0.0039 -2.664,-0.1796 -4.481,-0.5781 z m -9.64,-32.6093 c 3.515,-0.4688 6.265,-0.6875 8.25,-0.6875 5.082,-0.004 9.582,1.5273 13.5,4.5742 3.937,3.0625 5.89,7.2109 5.894,12.4453 0.004,3.9961 -1.195,7.1328 -3.625,9.3828 -2.418,2.2539 -6.332,3.375 -11.73,3.3789 -1.051,0 -2.321,-0.0508 -3.821,-0.1484 l -8.468,-28.9453" /><path
         id="path18"
         style="fill:#231f20;fill-opacity:1;fill-rule:nonzero;stroke:none"
         d="m 141.906,550.828 -5.074,-55.062 c -0.269,-2.582 -0.387,-4.266 -0.387,-5.082 -0.004,-1.301 0.231,-2.301 0.731,-2.985 0.613,-0.933 1.449,-1.633 2.5,-2.101 1.062,-0.453 2.847,-0.688 5.347,-0.688 l -0.535,-1.801 -26.066,0.02 0.535,1.801 h 1.117 c 2.117,-0.004 3.852,0.465 5.184,1.363 0.933,0.633 1.668,1.648 2.203,3.082 0.348,1.016 0.703,3.379 1.023,7.129 l 0.789,8.402 -18.949,0.016 -6.742,-9.129 c -1.535,-2.051 -2.488,-3.531 -2.887,-4.414 -0.382,-0.902 -0.586,-1.734 -0.586,-2.516 0,-1.05 0.414,-1.933 1.266,-2.687 0.848,-0.746 2.25,-1.164 4.199,-1.235 l -0.535,-1.8 -19.582,0.015 0.5313,1.801 c 2.418,0.098 4.539,0.91 6.3867,2.41 1.8359,1.516 4.5703,4.746 8.227,9.696 l 39.589,53.765 z m -9.676,-16.242 -19.222,-26.102 16.648,-0.011 z" /><path
         id="path20"
         style="fill:#231f20;fill-opacity:1;fill-rule:nonzero;stroke:none"
         d="m 74.5977,115.637 -4.9493,-21.43 h -1.7656 l -0.1797,5.3868 c -0.164,1.9492 -0.5468,3.6792 -1.1289,5.2152 -0.582,1.535 -1.4648,2.851 -2.6289,3.988 -1.168,1.113 -2.6484,2 -4.4492,2.637 -1.7813,0.632 -3.7656,0.953 -5.9492,0.953 -5.8321,0.004 -10.918,-1.594 -15.2891,-4.774 -5.5703,-4.058 -9.9375,-9.8083 -13.0937,-17.2224 -2.6055,-6.1133 -3.9258,-12.3125 -3.9336,-18.5937 -0.0039,-6.418 1.875,-11.5391 5.6054,-15.3711 3.7461,-3.8242 8.6133,-5.7422 14.5977,-5.7461 4.5312,-0.0039 8.5664,1.0117 12.0859,3.0234 3.5313,2.0157 6.8203,5.1094 9.8555,9.3086 h 2.2813 C 62.0859,57.3125 58.1016,53.1328 53.7461,50.4531 49.3789,47.7734 44.1445,46.4258 38.0625,46.4336 c -5.4023,0.0039 -10.1836,1.1406 -14.3477,3.4102 -4.164,2.2695 -7.3476,5.4375 -9.5078,9.5546 -2.1836,4.1055 -3.2773,8.5039 -3.2773,13.2383 0.0078,7.2149 1.9648,14.2461 5.8359,21.0781 3.8711,6.8282 9.1914,12.2072 15.9453,16.1012 6.7696,3.899 13.5704,5.84 20.4571,5.836 3.2109,-0.004 6.8281,-0.754 10.8281,-2.289 1.75,-0.652 3.0352,-0.988 3.8008,-0.988 0.7812,0 1.4648,0.164 2.0664,0.48 0.582,0.336 1.5508,1.266 2.918,2.782 h 1.8164" /><path
         id="path22"
         style="fill:#231f20;fill-opacity:1;fill-rule:nonzero;stroke:none"
         d="m 173.113,279.199 -0.008,-6.933 -8.882,0.004 -0.012,-17.485 -8.07,0.008 0.015,17.484 -28.015,0.024 0.004,6.25 30.75,43.824 5.367,-0.004 -0.035,-43.168 z m -16.953,0.012 0.028,32.863 -23.258,-32.844 z" /><path
         id="path24"
         style="fill:#231f20;fill-opacity:1;fill-rule:nonzero;stroke:none"
         d="m 220.027,320.961 -3.824,-8.297 -19.914,0.016 -4.359,-8.899 c 8.633,-1.273 15.465,-4.48 20.492,-9.629 4.332,-4.425 6.492,-9.64 6.488,-15.625 -0.004,-3.484 -0.707,-6.714 -2.121,-9.664 -1.422,-2.968 -3.207,-5.48 -5.359,-7.562 -2.149,-2.082 -4.551,-3.762 -7.188,-5.028 -3.734,-1.796 -7.582,-2.679 -11.519,-2.675 -3.981,0.004 -6.864,0.672 -8.66,2.023 -1.817,1.352 -2.719,2.852 -2.715,4.469 0,0.918 0.386,1.715 1.117,2.414 0.75,0.703 1.703,1.051 2.836,1.051 0.847,0 1.597,-0.121 2.234,-0.387 0.629,-0.266 1.711,-0.934 3.246,-2 2.434,-1.703 4.899,-2.555 7.414,-2.559 3.801,-0.004 7.153,1.446 10.035,4.329 2.891,2.878 4.325,6.378 4.329,10.511 0,4 -1.282,7.735 -3.844,11.203 -2.578,3.469 -6.11,6.157 -10.641,8.043 -3.551,1.469 -8.383,2.321 -14.5,2.559 l 12.719,25.723 23.734,-0.016" /><path
         id="path26"
         style="fill:none;stroke:#231f20;stroke-width:7.5005002;stroke-linecap:butt;stroke-linejoin:miter;stroke-miterlimit:2.61310005;stroke-dasharray:none;stroke-opacity:1"
         d="M 144.426,477.961 454.789,66.5391" /><path
         id="path28"
         style="fill:none;stroke:#231f20;stroke-width:7.5005002;stroke-linecap:butt;stroke-linejoin:miter;stroke-miterlimit:2.61310005;stroke-dasharray:none;stroke-opacity:1"
         d="m 301.48,527.52 c 141.711,0 256.637,-114.926 256.637,-256.641 C 558.117,129.16 443.191,14.2344 301.48,14.2344 159.77,14.2344 44.8438,129.16 44.8438,270.879 44.8438,412.594 159.77,527.52 301.48,527.52 Z" /><path
         id="path30"
         style="fill:none;stroke:#231f20;stroke-width:5.00029993;stroke-linecap:butt;stroke-linejoin:miter;stroke-miterlimit:2.61310005;stroke-dasharray:none;stroke-opacity:1"
         d="m 95.6758,117.332 49.7112,-6.828 6.828,49.699 -49.707,6.832 z" /><path
         id="path32"
         style="fill:none;stroke:#231f20;stroke-width:5.00029993;stroke-linecap:butt;stroke-linejoin:miter;stroke-miterlimit:2.61310005;stroke-dasharray:none;stroke-opacity:1"
         d="m 194.18,409.309 c -18.797,-14 -40.188,-19.524 -64.207,-16.653" /><path
         id="path34"
         style="fill:none;stroke:#231f20;stroke-width:7.5005002;stroke-linecap:butt;stroke-linejoin:miter;stroke-miterlimit:2.61310005;stroke-dasharray:none;stroke-opacity:1"
         d="M 93.8672,115.844 452.84,65.5859" /><path
         id="path36"
         style="fill:none;stroke:#231f20;stroke-width:7.5005002;stroke-linecap:butt;stroke-linejoin:miter;stroke-miterlimit:2.61310005;stroke-dasharray:none;stroke-opacity:1"
         d="M 93.8672,115.844 144.434,473.852" /></g></g></svg>