<?xml version="1.0" encoding="UTF-8" standalone="no"?>
<svg
   xmlns:dc="http://purl.org/dc/elements/1.1/"
   xmlns:cc="http://creativecommons.org/ns#"
   xmlns:rdf="http://www.w3.org/1999/02/22-rdf-syntax-ns#"
   xmlns:svg="http://www.w3.org/2000/svg"
   xmlns="http://www.w3.org/2000/svg"
   viewBox="0 0 84 88"
   height="88"
   width="84"
   xml:space="preserve"
   id="svg2"
   version="1.1"><metadata
     id="metadata8"><rdf:RDF><cc:Work
         rdf:about=""><dc:format>image/svg+xml</dc:format><dc:type
           rdf:resource="http://purl.org/dc/dcmitype/StillImage" /></cc:Work></rdf:RDF></metadata><defs
     id="defs6" /><g
     transform="matrix(1.3333333,0,0,-1.3333333,0,88)"
     id="g10"><g
       transform="scale(0.1)"
       id="g12"><path
         id="path14"
         style="fill:#231f20;fill-opacity:1;fill-rule:nonzero;stroke:none"
         d="m 578.168,67.3359 0.684,1.8164 23.636,-0.0195 c 3.965,-0.0039 7.496,-0.6211 10.614,-1.875 3.101,-1.2344 5.433,-2.9531 6.98,-5.1719 1.547,-2.2148 2.313,-4.5664 2.313,-7.0351 -0.004,-3.8164 -1.391,-7.2461 -4.145,-10.3281 -2.754,-3.0664 -7.234,-5.3438 -13.453,-6.793 4.016,-1.5 6.945,-3.4883 8.844,-5.9727 1.882,-2.4648 2.828,-5.1836 2.824,-8.1523 0,-3.2813 -0.852,-6.4297 -2.555,-9.4297 -1.683,-2.9805 -3.871,-5.3125 -6.519,-6.96094 -2.653,-1.66406 -5.856,-2.8789 -9.606,-3.66015 -2.668,-0.54688 -6.836,-0.82813 -12.5,-0.82422 L 561.02,2.94922 561.652,4.75 c 2.551,0.06641 4.266,0.3125 5.188,0.73047 1.297,0.56641 2.23,1.29687 2.785,2.19531 0.781,1.23438 1.816,4.06642 3.121,8.49612 l 11.895,40.0742 c 1.023,3.3867 1.523,5.7656 1.523,7.1367 0,1.1953 -0.445,2.1485 -1.328,2.8477 -0.898,0.6992 -2.602,1.0508 -5.117,1.0547 -0.551,0 -1.067,0.0156 -1.551,0.0507 z m 9.879,-27.4921 c 2.117,-0.0665 3.648,-0.1016 4.598,-0.1016 6.769,-0.0078 11.804,1.457 15.121,4.4023 3.3,2.9493 4.957,6.6289 4.961,11.0625 0.003,3.3516 -1.012,5.9688 -3.032,7.8399 -2.011,1.8633 -5.23,2.8047 -9.664,2.8047 -1.164,0.0039 -2.664,-0.1797 -4.48,-0.5782 z M 578.406,7.23828 c 3.516,-0.47265 6.266,-0.6914 8.25,-0.6914 5.082,-0.00391 9.582,1.52734 13.5,4.57422 3.938,3.0625 5.891,7.2109 5.895,12.4453 0.004,4 -1.196,7.1328 -3.625,9.3828 -2.418,2.2539 -6.332,3.375 -11.731,3.3789 -1.05,0 -2.316,-0.0508 -3.816,-0.1484 L 578.406,7.23828" /><path
         id="path16"
         style="fill:#231f20;fill-opacity:1;fill-rule:nonzero;stroke:none"
         d="m 74.6797,652.77 -5.0781,-55.063 c -0.2657,-2.582 -0.3828,-4.266 -0.3868,-5.082 0,-1.301 0.2344,-2.301 0.7344,-2.984 0.6133,-0.934 1.4453,-1.633 2.4961,-2.102 1.0664,-0.453 2.8516,-0.687 5.3516,-0.687 l -0.5352,-1.801 -26.0664,0.019 0.5313,1.801 h 1.1172 c 2.1171,-0.004 3.8554,0.465 5.1875,1.363 0.9335,0.633 1.6679,1.649 2.2031,3.082 0.3476,1.016 0.7031,3.379 1.0234,7.129 l 0.7852,8.403 -18.9492,0.015 -6.7422,-9.129 c -1.5313,-2.05 -2.4844,-3.535 -2.8828,-4.414 -0.3868,-0.902 -0.586,-1.734 -0.586,-2.515 -0.0039,-1.055 0.4141,-1.934 1.2617,-2.688 0.8516,-0.75 2.25,-1.168 4.2032,-1.234 l -0.5352,-1.801 -19.5859,0.016 0.5351,1.8 c 2.418,0.094 4.5352,0.911 6.3867,2.411 1.836,1.515 4.5704,4.746 8.2227,9.695 L 72.9609,652.77 Z M 65,636.527 45.7813,610.426 62.4297,610.414 Z" /><path
         id="path18"
         style="fill:#231f20;fill-opacity:1;fill-rule:nonzero;stroke:none"
         d="M 75.2344,72.0703 70.2852,50.6406 h -1.7657 l -0.1797,5.3828 c -0.164,1.9532 -0.5468,3.6836 -1.1289,5.2188 -0.582,1.5312 -1.4648,2.8516 -2.6289,3.9844 -1.1679,1.1172 -2.6484,2.0039 -4.4492,2.6367 -1.7812,0.6367 -3.7656,0.9531 -5.9492,0.957 -5.832,0.0039 -10.918,-1.5937 -15.2891,-4.7734 C 33.3242,59.9844 28.957,54.2383 25.8008,46.8242 23.1953,40.7109 21.875,34.5117 21.8672,28.2266 c -0.0039,-6.418 1.875,-11.5352 5.6055,-15.3711 3.7461,-3.82034 8.6132,-5.73831 14.5976,-5.74612 4.5313,0 8.5664,1.01171 12.086,3.02342 3.5312,2.0156 6.8203,5.1133 9.8554,9.3125 L 66.293,19.4414 C 62.7227,13.7461 58.7383,9.5625 54.3828,6.88672 50.0156,4.20313 44.7813,2.85938 38.6992,2.86328 33.2969,2.86719 28.5156,4.00781 24.3516,6.27344 20.1875,8.54688 17.0039,11.7148 14.8438,15.832 c -2.1836,4.1016 -3.2774,8.5039 -3.2774,13.2383 0.0078,7.2149 1.9649,14.2461 5.8359,21.0781 3.8711,6.8282 9.1915,12.2071 15.9454,16.1016 6.7695,3.8945 13.5703,5.8398 20.457,5.8359 3.2148,-0.0039 6.8281,-0.7539 10.8281,-2.2929 1.75,-0.6524 3.0352,-0.9844 3.8008,-0.9844 0.7812,0 1.4648,0.1641 2.0664,0.4805 0.582,0.332 1.5508,1.2656 2.918,2.7812 h 1.8164" /><path
         id="path20"
         style="fill:none;stroke:#231f20;stroke-width:7.5005002;stroke-linecap:butt;stroke-linejoin:miter;stroke-miterlimit:2.61310005;stroke-dasharray:none;stroke-opacity:1"
         d="M 99.6914,641.633 101.293,46.3398" /><path
         id="path22"
         style="fill:none;stroke:#231f20;stroke-width:7.5005002;stroke-linecap:butt;stroke-linejoin:miter;stroke-miterlimit:2.61310005;stroke-dasharray:none;stroke-opacity:1"
         d="M 98.0859,48.2383 550.793,46.6367" /><path
         id="path24"
         style="fill:none;stroke:#231f20;stroke-width:7.5005002;stroke-linecap:butt;stroke-linejoin:miter;stroke-miterlimit:2.61310005;stroke-dasharray:none;stroke-opacity:1"
         d="M 99.6914,644.617 550.793,46.6367" /><path
         id="path26"
         style="fill:none;stroke:#231f20;stroke-width:7.5005002;stroke-linecap:butt;stroke-linejoin:miter;stroke-miterlimit:2.61310005;stroke-dasharray:none;stroke-opacity:1"
         d="m 250.441,342.5 c 80.387,0 145.59,-65.211 145.59,-145.598 0,-80.394 -65.203,-145.5973 -145.59,-145.5973 -80.394,0 -145.597,65.2033 -145.597,145.5973 0,80.387 65.203,145.598 145.597,145.598 z" /><path
         id="path28"
         style="fill:none;stroke:#231f20;stroke-width:5.00029993;stroke-linecap:butt;stroke-linejoin:miter;stroke-miterlimit:2.61310005;stroke-dasharray:none;stroke-opacity:1"
         d="m 100.074,50.7344 h 38.313 v 38.3047 h -38.313 z" /></g></g></svg>