<?xml version="1.0" encoding="UTF-8" standalone="no"?>
<svg
   xmlns:dc="http://purl.org/dc/elements/1.1/"
   xmlns:cc="http://creativecommons.org/ns#"
   xmlns:rdf="http://www.w3.org/1999/02/22-rdf-syntax-ns#"
   xmlns:svg="http://www.w3.org/2000/svg"
   xmlns="http://www.w3.org/2000/svg"
   viewBox="0 0 102.66667 69.333336"
   height="69.333336"
   width="102.66667"
   xml:space="preserve"
   id="svg2"
   version="1.1"><metadata
     id="metadata8"><rdf:RDF><cc:Work
         rdf:about=""><dc:format>image/svg+xml</dc:format><dc:type
           rdf:resource="http://purl.org/dc/dcmitype/StillImage" /></cc:Work></rdf:RDF></metadata><defs
     id="defs6" /><g
     transform="matrix(1.3333333,0,0,-1.3333333,0,69.333333)"
     id="g10"><g
       transform="scale(0.1)"
       id="g12"><path
         id="path14"
         style="fill:#231f20;fill-opacity:1;fill-rule:nonzero;stroke:none"
         d="m 31.4609,65.6758 0.6875,1.8164 23.6329,-0.0195 c 3.9648,-0.0039 7.496,-0.625 10.6132,-1.875 3.1016,-1.2344 5.4336,-2.9532 6.9805,-5.1719 1.5469,-2.2188 2.3125,-4.5664 2.3125,-7.0352 -0.0039,-3.8164 -1.3906,-7.25 -4.1406,-10.3281 -2.7539,-3.0664 -7.2383,-5.3437 -13.4571,-6.793 4.0157,-1.5 6.9493,-3.4882 8.8477,-5.9726 1.8789,-2.4688 2.8242,-5.1836 2.8242,-8.1524 C 69.7578,18.8633 68.9102,15.7148 67.207,12.7148 65.5195,9.73438 63.3359,7.40234 60.6836,5.75391 58.0313,4.08984 54.832,2.875 51.0781,2.09375 48.4102,1.54688 44.2461,1.26563 38.5781,1.26953 l -24.2656,0.01953 0.6367,1.80078 c 2.5508,0.06641 4.2656,0.3125 5.1836,0.73047 1.2969,0.5625 2.2305,1.29297 2.7852,2.19532 0.7851,1.23437 1.8164,4.06247 3.1211,8.49607 l 11.8984,40.0742 c 1.0195,3.3829 1.5195,5.7657 1.5195,7.1329 0.0039,1.1992 -0.4453,2.1523 -1.3281,2.8515 -0.8984,0.6992 -2.5976,1.0508 -5.1172,1.0508 -0.5469,0.0039 -1.0625,0.0195 -1.5508,0.0547 z m 9.8829,-27.4922 c 2.1132,-0.0664 3.6484,-0.1016 4.5976,-0.1016 6.7695,-0.0078 11.8008,1.4571 15.1172,4.4024 3.3047,2.9492 4.9609,6.6289 4.9609,11.0625 0.0039,3.3515 -1.0117,5.9687 -3.0273,7.8359 -2.0156,1.8672 -5.2305,2.8047 -9.6641,2.8086 -1.164,0.0039 -2.664,-0.1797 -4.4843,-0.5781 z M 31.6992,5.57422 c 3.5156,-0.46875 6.2656,-0.6875 8.25,-0.6875 5.0821,-0.00391 9.5821,1.52734 13.5039,4.57422 3.9375,3.06246 5.8907,7.21096 5.8946,12.44136 0.0039,4 -1.1993,7.1329 -3.6289,9.3868 -2.4141,2.2539 -6.3282,3.3711 -11.7305,3.3789 -1.0508,0 -2.3164,-0.0508 -3.8164,-0.1485 L 31.6992,5.57422" /><path
         id="path16"
         style="fill:#231f20;fill-opacity:1;fill-rule:nonzero;stroke:none"
         d="m 764.719,516.102 -5.078,-55.063 c -0.266,-2.586 -0.383,-4.269 -0.387,-5.086 0,-1.297 0.23,-2.297 0.734,-2.98 0.614,-0.934 1.446,-1.637 2.496,-2.106 1.067,-0.449 2.852,-0.683 5.352,-0.687 l -0.535,-1.797 -26.067,0.019 0.532,1.801 1.117,-0.004 c 2.117,0 3.855,0.465 5.187,1.364 0.934,0.636 1.668,1.648 2.203,3.082 0.348,1.019 0.7,3.382 1.02,7.132 l 0.789,8.403 -18.949,0.011 -6.742,-9.125 c -1.532,-2.054 -2.485,-3.535 -2.883,-4.414 -0.387,-0.902 -0.586,-1.734 -0.586,-2.519 -0.004,-1.051 0.414,-1.934 1.262,-2.684 0.851,-0.75 2.25,-1.168 4.203,-1.238 l -0.535,-1.797 -19.586,0.016 0.535,1.797 c 2.418,0.097 4.535,0.914 6.387,2.414 1.832,1.515 4.57,4.746 8.222,9.695 L 763,516.102 Z m -9.68,-16.247 -19.219,-26.097 16.649,-0.016 z" /><path
         id="path18"
         style="fill:#231f20;fill-opacity:1;fill-rule:nonzero;stroke:none"
         d="m 71.8984,512.102 -4.9492,-21.426 h -1.7695 l -0.1758,5.383 c -0.168,1.949 -0.5469,3.683 -1.1328,5.214 -0.582,1.536 -1.4648,2.856 -2.6289,3.989 -1.168,1.117 -2.6484,2 -4.4492,2.636 -1.7813,0.633 -3.7657,0.954 -5.9492,0.957 -5.8321,0.004 -10.9141,-1.593 -15.2852,-4.773 -5.5703,-4.062 -9.9414,-9.809 -13.0977,-17.223 -2.6015,-6.113 -3.9257,-12.312 -3.9296,-18.597 -0.004,-6.418 1.871,-11.535 5.6015,-15.371 3.75,-3.821 8.6133,-5.743 14.5977,-5.746 4.5312,-0.004 8.5664,1.011 12.0859,3.023 3.5352,2.016 6.8203,5.113 9.8594,9.309 h 2.2812 c -3.5703,-5.7 -7.5586,-9.879 -11.9101,-12.555 -4.3672,-2.684 -9.6055,-4.027 -15.6875,-4.024 -5.3985,0.004 -10.1797,1.141 -14.3438,3.411 -4.1679,2.269 -7.3476,5.441 -9.5117,9.558 -2.17968,4.102 -3.27734,8.504 -3.27343,13.235 0.00391,7.218 1.96093,14.25 5.83203,21.082 3.8711,6.828 9.1953,12.207 15.9453,16.101 6.7695,3.895 13.5703,5.84 20.457,5.836 3.2149,-0.004 6.8321,-0.754 10.8282,-2.293 1.7539,-0.652 3.0351,-0.984 3.8008,-0.984 0.7851,0 1.4687,0.16 2.0664,0.48 0.5859,0.332 1.5546,1.266 2.9218,2.781 l 1.8164,-0.003" /><path
         id="path20"
         style="fill:none;stroke:#231f20;stroke-width:7.5005002;stroke-linecap:butt;stroke-linejoin:miter;stroke-miterlimit:2.61310005;stroke-dasharray:none;stroke-opacity:1"
         d="M 690.605,470.215 95.3047,468.633" /><path
         id="path22"
         style="fill:none;stroke:#231f20;stroke-width:7.5005002;stroke-linecap:butt;stroke-linejoin:miter;stroke-miterlimit:2.61310005;stroke-dasharray:none;stroke-opacity:1"
         d="M 97.207,471.813 95.5938,19.1367" /><path
         id="path24"
         style="fill:none;stroke:#231f20;stroke-width:7.5005002;stroke-linecap:butt;stroke-linejoin:miter;stroke-miterlimit:2.61310005;stroke-dasharray:none;stroke-opacity:1"
         d="M 693.566,470.211 95.5938,19.1367" /><path
         id="path26"
         style="fill:none;stroke:#231f20;stroke-width:7.5005002;stroke-linecap:butt;stroke-linejoin:miter;stroke-miterlimit:2.61310005;stroke-dasharray:none;stroke-opacity:1"
         d="m 391.465,319.465 c -0.016,-80.391 -65.207,-145.582 -145.602,-145.574 -80.398,-0.008 -145.578,65.183 -145.59,145.578 -0.003,80.383 65.215,145.605 145.59,145.586 80.403,0.019 145.606,-65.196 145.602,-145.59 z" /><path
         id="path28"
         style="fill:none;stroke:#231f20;stroke-width:5.00029993;stroke-linecap:butt;stroke-linejoin:miter;stroke-miterlimit:2.61310005;stroke-dasharray:none;stroke-opacity:1"
         d="m 99.707,469.836 -0.0195,-38.313 38.3245,-0.011 0.008,38.328 z" /></g></g></svg>