<?xml version="1.0" encoding="UTF-8" standalone="no"?>
<svg
   xmlns:dc="http://purl.org/dc/elements/1.1/"
   xmlns:cc="http://creativecommons.org/ns#"
   xmlns:rdf="http://www.w3.org/1999/02/22-rdf-syntax-ns#"
   xmlns:svg="http://www.w3.org/2000/svg"
   xmlns="http://www.w3.org/2000/svg"
   viewBox="0 0 70.666664 80"
   height="80"
   width="70.666664"
   xml:space="preserve"
   id="svg2"
   version="1.1"><metadata
     id="metadata8"><rdf:RDF><cc:Work
         rdf:about=""><dc:format>image/svg+xml</dc:format><dc:type
           rdf:resource="http://purl.org/dc/dcmitype/StillImage" /></cc:Work></rdf:RDF></metadata><defs
     id="defs6" /><g
     transform="matrix(1.3333333,0,0,-1.3333333,0,80)"
     id="g10"><g
       transform="scale(0.1)"
       id="g12"><path
         id="path14"
         style="fill:none;stroke:#231f20;stroke-width:5.00029993;stroke-linecap:butt;stroke-linejoin:miter;stroke-miterlimit:2.61310005;stroke-dasharray:none;stroke-opacity:1"
         d="m 328.5,194.168 c -1.125,-6.762 -7.523,-11.332 -14.281,-10.203 -6.762,1.125 -11.332,7.523 -10.203,14.281 1.125,6.762 7.523,11.332 14.281,10.203 6.762,-1.125 11.332,-7.523 10.203,-14.281 z" /><path
         id="path16"
         style="fill:#231f20;fill-opacity:1;fill-rule:nonzero;stroke:none"
         d="m 451.652,102.508 0.684,1.816 23.637,-0.019 c 3.965,-0.004 7.496,-0.625 10.613,-1.875 3.098,-1.235 5.43,-2.9534 6.98,-5.1722 1.547,-2.2148 2.313,-4.5664 2.309,-7.0351 0,-3.8164 -1.387,-7.2461 -4.141,-10.3282 -2.754,-3.0664 -7.238,-5.3437 -13.453,-6.7929 4.016,-1.5 6.946,-3.4883 8.844,-5.9727 1.879,-2.4687 2.828,-5.1836 2.824,-8.1523 0,-3.2813 -0.851,-6.4297 -2.554,-9.4297 -1.688,-2.9805 -3.872,-5.3125 -6.524,-6.961 -2.648,-1.664 -5.851,-2.8789 -9.601,-3.6601 -2.668,-0.5469 -6.836,-0.8281 -12.5,-0.8242 l -24.266,0.0195 0.633,1.8008 c 2.551,0.0664 4.265,0.3125 5.183,0.7304 1.301,0.5665 2.235,1.2969 2.785,2.1954 0.786,1.2343 1.821,4.0625 3.125,8.4961 l 11.895,40.0742 c 1.02,3.3828 1.523,5.7656 1.523,7.1328 0,1.1992 -0.445,2.1522 -1.332,2.8512 -0.898,0.7 -2.597,1.051 -5.113,1.051 -0.551,0.004 -1.066,0.02 -1.551,0.055 z m 9.879,-27.4924 c 2.114,-0.0664 3.649,-0.1015 4.598,-0.1015 6.769,-0.0078 11.801,1.457 15.121,4.4023 3.301,2.9492 4.957,6.6289 4.961,11.0625 0.004,3.3516 -1.012,5.9688 -3.031,7.8359 -2.012,1.8672 -5.231,2.8052 -9.664,2.8082 -1.164,0.004 -2.664,-0.179 -4.481,-0.578 z m -9.644,-32.6093 c 3.519,-0.4688 6.269,-0.6875 8.254,-0.6875 5.082,-0.004 9.582,1.5273 13.5,4.5742 3.937,3.0625 5.89,7.2109 5.894,12.4453 0.004,3.9961 -1.195,7.1328 -3.625,9.3828 -2.418,2.2539 -6.332,3.375 -11.73,3.3789 -1.051,0 -2.321,-0.0508 -3.821,-0.1484 l -8.472,-28.9453" /><path
         id="path18"
         style="fill:#231f20;fill-opacity:1;fill-rule:nonzero;stroke:none"
         d="m 94.3594,591.379 -5.0742,-55.063 c -0.2696,-2.582 -0.3868,-4.265 -0.3868,-5.082 -0.0039,-1.3 0.2305,-2.3 0.7305,-2.984 0.6133,-0.934 1.4492,-1.633 2.5,-2.102 1.0625,-0.453 2.8477,-0.687 5.3477,-0.687 l -0.5352,-1.801 -26.0664,0.02 0.5352,1.8 h 1.1171 c 2.1172,-0.003 3.8516,0.465 5.1836,1.364 0.9336,0.633 1.668,1.648 2.2032,3.082 0.3476,1.015 0.7031,3.379 1.0234,7.129 l 0.7891,8.402 -18.9493,0.016 -6.7421,-9.129 c -1.5352,-2.051 -2.4883,-3.531 -2.8868,-4.414 -0.3828,-0.903 -0.5859,-1.735 -0.5859,-2.516 0,-1.055 0.4141,-1.934 1.2656,-2.687 0.8477,-0.75 2.25,-1.164 4.1992,-1.235 l -0.5351,-1.801 -19.582,0.016 0.5312,1.801 c 2.418,0.097 4.5391,0.91 6.3867,2.41 1.836,1.516 4.5703,4.746 8.2266,9.695 l 39.5898,53.766 z m -9.6758,-16.242 -19.2227,-26.102 16.6485,-0.012 z" /><path
         id="path20"
         style="fill:#231f20;fill-opacity:1;fill-rule:nonzero;stroke:none"
         d="m 117.855,69.2266 -4.949,-21.4258 h -1.769 l -0.176,5.3828 c -0.168,1.9492 -0.547,3.6836 -1.133,5.2148 -0.582,1.5352 -1.465,2.8555 -2.629,3.9883 -1.168,1.1172 -2.648,2 -4.449,2.6367 -1.781,0.6329 -3.7656,0.9532 -5.9492,0.9571 C 90.9688,65.9844 85.8828,64.3867 81.5156,61.207 75.9453,57.1445 71.5742,51.3984 68.418,43.9844 65.8164,37.8711 64.4922,31.6719 64.4883,25.3867 64.4805,18.9688 66.3594,13.8516 70.0898,10.0156 73.8359,6.19531 78.7031,4.27344 84.6875,4.26953 c 4.5313,-0.0039 8.5664,1.01172 12.0859,3.02344 3.5356,2.01562 6.8206,5.11333 9.8556,9.31253 l 2.285,-0.0039 C 105.344,10.9063 101.355,6.72266 97.0039,4.04688 92.6367,1.36328 87.3984,0.0195313 81.3164,0.0234375 75.918,0.0273438 71.1367,1.16406 66.9688,3.43359 62.8047,5.70313 59.625,8.875 57.4609,12.9922 c -2.1796,4.1016 -3.2773,8.5039 -3.2734,13.2344 0.0039,7.2187 1.9609,14.25 5.832,21.082 3.8711,6.8281 9.1953,12.207 15.9453,16.1016 6.7696,3.8945 13.5704,5.8398 20.4571,5.8359 3.2148,-0.0039 6.8321,-0.7539 10.8281,-2.293 1.754,-0.6523 3.035,-0.9843 3.801,-0.9843 0.781,0 1.465,0.164 2.066,0.4804 0.586,0.3321 1.551,1.2656 2.922,2.7813 l 1.816,-0.0039" /><path
         id="path22"
         style="fill:#231f20;fill-opacity:1;fill-rule:nonzero;stroke:none"
         d="m 261.531,186.332 v -1.82 c -4.285,-0.41 -7.801,-1.258 -10.519,-2.555 -2.715,-1.281 -5.403,-3.23 -8.055,-5.879 -2.648,-2.633 -4.855,-5.562 -6.605,-8.793 -1.735,-3.25 -3.207,-7.097 -4.375,-11.547 4.683,3.211 9.386,4.825 14.121,4.821 4.515,-0.004 8.449,-1.84 11.761,-5.473 3.313,-3.656 4.977,-8.34 4.973,-14.074 -0.004,-5.532 -1.691,-10.578 -5.047,-15.129 -4.039,-5.531 -9.39,-8.293 -16.023,-8.289 -4.532,0.004 -8.364,1.511 -11.528,4.496 -6.179,5.836 -9.257,13.387 -9.25,22.672 0.004,5.918 1.192,11.551 3.579,16.883 2.371,5.347 5.777,10.078 10.195,14.207 4.402,4.128 8.637,6.91 12.672,8.339 4.035,1.43 7.804,2.145 11.285,2.141 z m -30.39,-34.16 c -0.586,-4.399 -0.891,-7.949 -0.895,-10.649 0,-3.121 0.582,-6.519 1.731,-10.187 1.16,-3.648 2.875,-6.566 5.156,-8.719 1.648,-1.519 3.664,-2.285 6.051,-2.289 2.832,0 5.367,1.328 7.586,3.996 2.234,2.664 3.355,6.481 3.359,11.43 0.004,5.566 -1.094,10.383 -3.305,14.453 -2.215,4.066 -5.347,6.102 -9.429,6.106 -1.235,0 -2.551,-0.266 -3.969,-0.778 -1.418,-0.519 -3.516,-1.652 -6.285,-3.363" /><path
         id="path24"
         style="fill:#231f20;fill-opacity:1;fill-rule:nonzero;stroke:none"
         d="m 270.305,151.457 c 0.008,7.551 1.144,14.047 3.433,19.496 2.289,5.449 5.305,9.512 9.094,12.176 2.93,2.117 5.949,3.18 9.082,3.176 5.066,-0.004 9.633,-2.606 13.66,-7.778 5.047,-6.418 7.559,-15.105 7.551,-26.089 -0.008,-7.68 -1.113,-14.196 -3.332,-19.559 -2.223,-5.383 -5.043,-9.281 -8.477,-11.695 -3.437,-2.43 -6.753,-3.629 -9.953,-3.629 -6.3,0.008 -11.566,3.73 -15.758,11.199 -3.546,6.285 -5.308,13.855 -5.3,22.703 z m 9.566,-1.223 c -0.008,-9.117 1.106,-16.57 3.352,-22.32 1.843,-4.851 4.625,-7.289 8.293,-7.289 1.765,-0.004 3.582,0.797 5.468,2.359 1.899,1.586 3.336,4.235 4.305,7.934 1.504,5.598 2.262,13.496 2.27,23.68 0.004,7.55 -0.774,13.851 -2.336,18.902 -1.164,3.75 -2.68,6.402 -4.528,7.969 -1.332,1.066 -2.949,1.601 -4.832,1.605 -2.218,0 -4.183,-0.98 -5.918,-2.961 -2.336,-2.699 -3.937,-6.949 -4.793,-12.746 -0.855,-5.801 -1.277,-11.5 -1.281,-17.133" /><path
         id="path26"
         style="fill:none;stroke:#231f20;stroke-width:7.5005002;stroke-linecap:butt;stroke-linejoin:miter;stroke-miterlimit:2.61310005;stroke-dasharray:none;stroke-opacity:1"
         d="M 110.43,505.906 111.52,96.3203" /><path
         id="path28"
         style="fill:none;stroke:#231f20;stroke-width:7.5005002;stroke-linecap:butt;stroke-linejoin:miter;stroke-miterlimit:2.61310005;stroke-dasharray:none;stroke-opacity:1"
         d="M 109.32,97.6523 420.785,96.5352" /><path
         id="path30"
         style="fill:none;stroke:#231f20;stroke-width:7.5005002;stroke-linecap:butt;stroke-linejoin:miter;stroke-miterlimit:2.61310005;stroke-dasharray:none;stroke-opacity:1"
         d="M 110.43,507.953 420.785,96.5352" /><path
         id="path32"
         style="fill:none;stroke:#231f20;stroke-width:7.5005002;stroke-linecap:butt;stroke-linejoin:miter;stroke-miterlimit:2.61310005;stroke-dasharray:none;stroke-opacity:1"
         d="m 267.48,557.531 c 141.7,0 256.637,-114.941 256.637,-256.66 0,-141.695 -114.937,-256.6366 -256.637,-256.6366 -141.699,0 -256.6323,114.9416 -256.6323,256.6366 0,141.719 114.9333,256.66 256.6323,256.66 z" /><path
         id="path34"
         style="fill:none;stroke:#231f20;stroke-width:5.00029993;stroke-linecap:butt;stroke-linejoin:miter;stroke-miterlimit:2.61310005;stroke-dasharray:none;stroke-opacity:1"
         d="m 110.664,99.3594 h 50.207 v 50.1636 h -50.207 z" /><path
         id="path36"
         style="fill:none;stroke:#231f20;stroke-width:5.00029993;stroke-linecap:butt;stroke-linejoin:miter;stroke-miterlimit:2.61310005;stroke-dasharray:none;stroke-opacity:1"
         d="m 326.445,99.4102 c 4.715,27.4418 18.602,49.7618 41.657,66.9648" /></g></g></svg>