<?xml version="1.0" encoding="UTF-8" standalone="no"?>
<svg
   xmlns:dc="http://purl.org/dc/elements/1.1/"
   xmlns:cc="http://creativecommons.org/ns#"
   xmlns:rdf="http://www.w3.org/1999/02/22-rdf-syntax-ns#"
   xmlns:svg="http://www.w3.org/2000/svg"
   xmlns="http://www.w3.org/2000/svg"
   viewBox="0 0 80 82.666664"
   height="82.666664"
   width="80"
   xml:space="preserve"
   id="svg2"
   version="1.1"><metadata
     id="metadata8"><rdf:RDF><cc:Work
         rdf:about=""><dc:format>image/svg+xml</dc:format><dc:type
           rdf:resource="http://purl.org/dc/dcmitype/StillImage" /></cc:Work></rdf:RDF></metadata><defs
     id="defs6" /><g
     transform="matrix(1.3333333,0,0,-1.3333333,0,82.666667)"
     id="g10"><g
       transform="scale(0.1)"
       id="g12"><path
         id="path14"
         style="fill:#231f20;fill-opacity:1;fill-rule:nonzero;stroke:none"
         d="m 515.652,72.5078 0.684,1.8164 23.637,-0.0195 c 3.965,-0.0039 7.496,-0.625 10.613,-1.875 3.102,-1.2344 5.43,-2.9531 6.98,-5.1719 1.547,-2.2148 2.313,-4.5664 2.309,-7.0351 0,-3.8164 -1.387,-7.2461 -4.141,-10.3282 -2.754,-3.0664 -7.238,-5.3437 -13.453,-6.7929 4.016,-1.5 6.946,-3.4883 8.844,-5.9727 1.879,-2.4687 2.828,-5.1836 2.824,-8.1523 0,-3.2813 -0.851,-6.4297 -2.554,-9.4297 -1.688,-2.9805 -3.872,-5.3125 -6.524,-6.961 -2.648,-1.664 -5.851,-2.87887 -9.601,-3.66012 -2.668,-0.54687 -6.836,-0.82812 -12.5,-0.82422 l -24.266,0.01953 0.633,1.80079 c 2.551,0.0664 4.265,0.31252 5.183,0.73042 1.301,0.5665 2.235,1.2969 2.789,2.1954 0.782,1.2343 1.817,4.0625 3.121,8.4961 l 11.895,40.0742 c 1.02,3.3828 1.523,5.7656 1.523,7.1328 0,1.1992 -0.445,2.1523 -1.332,2.8515 -0.894,0.6993 -2.597,1.0508 -5.113,1.0508 -0.551,0.0039 -1.066,0.0196 -1.551,0.0547 z m 9.879,-27.4922 c 2.114,-0.0664 3.649,-0.1015 4.598,-0.1015 6.769,-0.0078 11.801,1.457 15.121,4.4023 3.301,2.9492 4.957,6.6289 4.961,11.0625 0.004,3.3516 -1.012,5.9688 -3.031,7.8359 -2.012,1.8672 -5.231,2.8047 -9.664,2.8086 -1.164,0.0039 -2.664,-0.1796 -4.481,-0.5781 z m -9.64,-32.6093 c 3.515,-0.4688 6.265,-0.6875 8.25,-0.6875 5.082,-0.004 9.582,1.5273 13.5,4.5742 3.937,3.0625 5.89,7.2109 5.894,12.4453 0.004,3.9961 -1.195,7.1328 -3.625,9.3828 -2.418,2.2539 -6.332,3.375 -11.73,3.3789 -1.051,0 -2.321,-0.0508 -3.821,-0.1484 l -8.468,-28.9453" /><path
         id="path16"
         style="fill:#231f20;fill-opacity:1;fill-rule:nonzero;stroke:none"
         d="m 372.23,610.391 -5.074,-55.063 c -0.269,-2.586 -0.386,-4.269 -0.386,-5.086 -0.004,-1.297 0.23,-2.297 0.73,-2.98 0.613,-0.934 1.449,-1.633 2.5,-2.102 1.063,-0.453 2.848,-0.687 5.348,-0.687 l -0.535,-1.801 -26.067,0.019 0.535,1.801 h 1.117 c 2.118,-0.004 3.852,0.465 5.184,1.36 0.934,0.636 1.668,1.648 2.203,3.086 0.348,1.015 0.703,3.378 1.024,7.128 l 0.789,8.403 -18.95,0.015 -6.742,-9.129 c -1.531,-2.05 -2.488,-3.535 -2.886,-4.414 -0.383,-0.902 -0.586,-1.734 -0.586,-2.515 0,-1.055 0.414,-1.934 1.265,-2.688 0.848,-0.75 2.25,-1.168 4.199,-1.234 l -0.535,-1.801 -19.582,0.016 0.532,1.801 c 2.417,0.093 4.539,0.91 6.386,2.41 1.836,1.515 4.571,4.746 8.227,9.695 l 39.59,53.766 z m -9.675,-16.243 -19.223,-26.101 16.648,-0.012 z" /><path
         id="path18"
         style="fill:#231f20;fill-opacity:1;fill-rule:nonzero;stroke:none"
         d="m 78.2422,191.785 -4.9492,-21.43 -1.7696,0.004 -0.1757,5.383 c -0.168,1.949 -0.5469,3.684 -1.1289,5.215 -0.5821,1.535 -1.4688,2.856 -2.6329,3.988 -1.164,1.118 -2.6484,2 -4.4453,2.637 -1.7851,0.633 -3.7695,0.953 -5.9492,0.953 -5.8359,0.008 -10.918,-1.59 -15.2891,-4.769 -5.5703,-4.063 -9.9414,-9.809 -13.0937,-17.223 -2.6055,-6.117 -3.9297,-12.313 -3.9336,-18.598 -0.0039,-6.418 1.875,-11.535 5.6055,-15.371 3.7461,-3.82 8.6093,-5.742 14.5937,-5.746 4.5352,-0.004 8.5664,1.012 12.086,3.024 3.5351,2.015 6.8242,5.113 9.8593,9.308 h 2.2813 c -3.5703,-5.699 -7.5547,-9.879 -11.9102,-12.558 -4.3672,-2.68 -9.6015,-4.024 -15.6875,-4.02 -5.3984,0.004 -10.1797,1.141 -14.3437,3.41 -4.168,2.27 -7.3477,5.438 -9.5078,9.559 -2.1836,4.101 -3.2813,8.5 -3.2774,13.234 0.0078,7.219 1.961,14.25 5.8321,21.082 3.875,6.828 9.1953,12.207 15.9492,16.102 6.7656,3.894 13.5703,5.84 20.4531,5.832 3.2148,0 6.832,-0.75 10.832,-2.289 1.75,-0.653 3.0352,-0.985 3.8008,-0.985 0.7813,-0.004 1.4649,0.161 2.0664,0.481 0.582,0.332 1.5508,1.265 2.918,2.781 l 1.8164,-0.004" /><path
         id="path20"
         style="fill:none;stroke:#231f20;stroke-width:7.5005002;stroke-linecap:butt;stroke-linejoin:miter;stroke-miterlimit:2.61310005;stroke-dasharray:none;stroke-opacity:1"
         d="M 347.141,527.07 484.785,66.5352" /><path
         id="path22"
         style="fill:none;stroke:#231f20;stroke-width:7.5005002;stroke-linecap:butt;stroke-linejoin:miter;stroke-miterlimit:2.61310005;stroke-dasharray:none;stroke-opacity:1"
         d="m 331.48,527.531 c 141.7,0 256.637,-114.941 256.637,-256.66 0,-141.695 -114.937,-256.6366 -256.637,-256.6366 -141.699,0 -256.6323,114.9416 -256.6323,256.6366 0,141.719 114.9333,256.66 256.6323,256.66 z" /><path
         id="path24"
         style="fill:none;stroke:#231f20;stroke-width:7.5005002;stroke-linecap:butt;stroke-linejoin:miter;stroke-miterlimit:2.61310005;stroke-dasharray:none;stroke-opacity:1"
         d="M 91.668,191.695 484.785,67.5273" /><path
         id="path26"
         style="fill:none;stroke:#231f20;stroke-width:7.5005002;stroke-linecap:butt;stroke-linejoin:miter;stroke-miterlimit:2.61310005;stroke-dasharray:none;stroke-opacity:1"
         d="m 328.078,269.008 16.164,254.68" /><path
         id="path28"
         style="fill:none;stroke:#231f20;stroke-width:7.5005002;stroke-linecap:butt;stroke-linejoin:miter;stroke-miterlimit:2.61310005;stroke-dasharray:none;stroke-opacity:1"
         d="M 330.34,271.273 91.668,191.695" /><path
         id="path30"
         style="fill:#231f20;fill-opacity:1;fill-rule:nonzero;stroke:none"
         d="m 365.949,269.422 c 4.403,0 8.285,-0.953 11.668,-2.856 3.383,-1.906 6.043,-4.722 7.961,-8.457 1.914,-3.718 2.875,-7.586 2.871,-11.605 -0.004,-7.078 -2.074,-14.531 -6.199,-22.324 -4.125,-7.797 -9.512,-13.742 -16.148,-17.836 -6.653,-4.098 -13.524,-6.141 -20.622,-6.137 -5.097,0.004 -9.382,1.141 -12.812,3.41 -3.434,2.27 -5.965,5.254 -7.609,8.957 -1.633,3.715 -2.461,7.317 -2.461,10.801 0.007,6.184 1.511,12.297 4.484,18.328 2.984,6.031 6.559,11.078 10.695,15.125 4.137,4.047 8.536,7.16 13.239,9.34 4.683,2.18 9.668,3.262 14.933,3.254 z m -1.668,-3.113 c -3.25,0.004 -6.433,-0.797 -9.535,-2.411 -3.117,-1.613 -6.203,-4.242 -9.254,-7.91 -3.07,-3.644 -5.824,-8.445 -8.277,-14.359 -2.992,-7.297 -4.496,-14.18 -4.5,-20.664 -0.004,-4.617 1.176,-8.715 3.555,-12.285 2.363,-3.551 6.015,-5.336 10.929,-5.34 2.969,-0.004 5.867,0.726 8.719,2.191 2.852,1.449 5.82,3.965 8.922,7.512 3.871,4.445 7.125,10.145 9.781,17.059 2.637,6.914 3.961,13.363 3.965,19.343 0.004,4.434 -1.176,8.352 -3.559,11.754 -2.379,3.403 -5.945,5.106 -10.746,5.11" /></g></g></svg>