<?xml version="1.0" encoding="UTF-8" standalone="no"?>
<svg
   xmlns:dc="http://purl.org/dc/elements/1.1/"
   xmlns:cc="http://creativecommons.org/ns#"
   xmlns:rdf="http://www.w3.org/1999/02/22-rdf-syntax-ns#"
   xmlns:svg="http://www.w3.org/2000/svg"
   xmlns="http://www.w3.org/2000/svg"
   viewBox="0 0 78.666664 84"
   height="84"
   width="78.666664"
   xml:space="preserve"
   id="svg2"
   version="1.1"><metadata
     id="metadata8"><rdf:RDF><cc:Work
         rdf:about=""><dc:format>image/svg+xml</dc:format><dc:type
           rdf:resource="http://purl.org/dc/dcmitype/StillImage" /></cc:Work></rdf:RDF></metadata><defs
     id="defs6" /><g
     transform="matrix(1.3333333,0,0,-1.3333333,0,84)"
     id="g10"><g
       transform="scale(0.1)"
       id="g12"><path
         id="path14"
         style="fill:#231f20;fill-opacity:1;fill-rule:nonzero;stroke:none"
         d="m 539.148,533.527 20.407,-51.933 11.117,38.773 c 0.918,3.184 1.367,5.649 1.371,7.418 0,1.199 -0.414,2.149 -1.262,2.832 -0.851,0.684 -2.418,1.02 -4.734,1.02 -0.383,0 -0.801,0.019 -1.215,0.051 l 0.535,1.816 21.281,-0.016 -0.585,-1.816 c -2.219,0.035 -3.852,-0.18 -4.934,-0.68 -1.535,-0.679 -2.668,-1.562 -3.418,-2.629 -1.035,-1.535 -2.102,-4.199 -3.176,-7.996 l -15.621,-54.59 -1.75,0.004 -21.992,55.883 -11.797,-41.258 c -0.871,-3.117 -1.324,-5.515 -1.324,-7.168 0,-1.25 0.398,-2.183 1.199,-2.816 0.801,-0.633 2.699,-1.07 5.68,-1.305 l -0.485,-1.801 -20.797,0.02 0.684,1.797 c 2.598,0.066 4.352,0.297 5.234,0.68 1.332,0.601 2.317,1.347 2.969,2.296 0.949,1.434 2.004,4.2 3.188,8.301 l 13.168,46.039 c -1.266,1.949 -2.629,3.301 -4.078,4.035 -1.45,0.719 -3.7,1.137 -6.766,1.239 l 0.555,1.816 16.546,-0.012" /><path
         id="path16"
         style="fill:#231f20;fill-opacity:1;fill-rule:nonzero;stroke:none"
         d="m 61.3633,554.707 -49.0664,0.035 0.6875,1.801 c 2.6015,0.066 4.332,0.281 5.2187,0.629 1.3672,0.598 2.3789,1.367 3.0352,2.297 1,1.5 2.0859,4.199 3.2226,8.113 l 11.6954,40.273 c 0.9843,3.317 1.4726,5.75 1.4726,7.321 0,1.23 -0.4492,2.199 -1.332,2.883 -0.8985,0.683 -2.5821,1.015 -5.0664,1.019 -0.5469,0 -0.9805,0.016 -1.3164,0.051 l 0.5859,1.816 27.0156,-0.019 -0.4023,-1.817 c -3.0156,0 -5.1641,-0.281 -6.4492,-0.863 -1.2657,-0.598 -2.3164,-1.551 -3.168,-2.879 -0.582,-0.887 -1.5508,-3.617 -2.8906,-8.219 l -11.4961,-39.57 c -0.8867,-3 -1.3203,-5.082 -1.3203,-6.25 0,-0.781 0.4297,-1.535 1.3125,-2.25 0.5507,-0.5 1.8007,-0.734 3.75,-0.738 l 6.4023,-0.004 c 4.6484,-0.004 8.3477,0.578 11.082,1.742 2.0157,0.883 3.8868,2.195 5.5704,3.965 0.9179,0.965 2.5195,3.395 4.8398,7.258 l 1.2695,2.199 h 1.8125 l -6.4648,-18.793" /><path
         id="path18"
         style="fill:#231f20;fill-opacity:1;fill-rule:nonzero;stroke:none"
         d="m 271.191,70.9492 6.075,-53.3359 38.461,53.3008 16.164,-0.0118 v -1.8164 c -3.52,-0.2148 -5.586,-0.4453 -6.2,-0.6796 -1.082,-0.4141 -2.066,-1.2657 -2.953,-2.5313 -0.898,-1.2656 -1.867,-3.7148 -2.922,-7.332 L 307.535,16.5703 c -0.719,-2.4492 -1.074,-4.3633 -1.074,-5.7656 0,-1.26564 0.434,-2.23439 1.316,-2.88282 1.231,-0.9336 3.184,-1.41797 5.848,-1.42188 h 1.184 l -0.454,-1.80078 -27.878,0.02344 0.5,1.79687 h 1.316 c 2.469,0 4.352,0.36328 5.668,1.07813 1,0.51562 1.902,1.5 2.699,2.94924 0.801,1.4492 1.922,4.664 3.36,9.6445 l 10.964,38.3594 -38.66,-53.82033 -1.949,0.00391 -6.176,53.85152 -11.847,-40.9531 c -1.004,-3.4844 -1.504,-5.8164 -1.504,-7.0156 -0.004,-1.21876 0.429,-2.13673 1.312,-2.76954 0.867,-0.63282 3,-1.07032 6.399,-1.30469 l -0.551,-1.80078 -21.817,0.01953 0.536,1.79687 h 1.316 c 3.215,-0.0039 5.551,0.8125 6.984,2.44532 1.036,1.16409 2.137,3.71489 3.274,7.61329 l 14.453,49.3555 c -1.082,1.1015 -2.098,1.8515 -3.082,2.2539 -0.981,0.3828 -2.781,0.7031 -5.414,0.9179 l 0.484,1.8164 16.449,-0.0117" /><path
         id="path20"
         style="fill:none;stroke:#231f20;stroke-width:7.5005002;stroke-linecap:butt;stroke-linejoin:miter;stroke-miterlimit:2.61310005;stroke-dasharray:none;stroke-opacity:1"
         d="M 277.727,104.723 84.0273,544.613" /><path
         id="path22"
         style="fill:none;stroke:#231f20;stroke-width:7.5005002;stroke-linecap:butt;stroke-linejoin:miter;stroke-miterlimit:2.61310005;stroke-dasharray:none;stroke-opacity:1"
         d="M 482.871,231.051 C 411.215,108.805 253.93,67.8242 131.695,139.484 9.42969,211.176 -31.5508,368.449 40.0898,490.719 111.781,612.953 269.098,653.961 391.313,582.246 513.516,510.563 554.578,353.266 482.871,231.051 Z" /><path
         id="path24"
         style="fill:none;stroke:#231f20;stroke-width:7.5005002;stroke-linecap:butt;stroke-linejoin:miter;stroke-miterlimit:2.61310005;stroke-dasharray:none;stroke-opacity:1"
         d="M 489.648,469.18 84.1211,543.621" /><path
         id="path26"
         style="fill:none;stroke:#231f20;stroke-width:7.5005002;stroke-linecap:butt;stroke-linejoin:miter;stroke-miterlimit:2.61310005;stroke-dasharray:none;stroke-opacity:1"
         d="M 264.641,363.121 280.18,108.445" /><path
         id="path28"
         style="fill:none;stroke:#231f20;stroke-width:7.5005002;stroke-linecap:butt;stroke-linejoin:miter;stroke-miterlimit:2.61310005;stroke-dasharray:none;stroke-opacity:1"
         d="M 262.703,360.605 489.648,469.18" /><path
         id="path30"
         style="fill:#231f20;fill-opacity:1;fill-rule:nonzero;stroke:none"
         d="m 243.531,424.652 c 4.399,-0.004 8.282,-0.957 11.664,-2.859 3.383,-1.902 6.043,-4.723 7.961,-8.457 1.914,-3.715 2.875,-7.586 2.875,-11.602 -0.008,-7.082 -2.078,-14.531 -6.203,-22.328 -4.121,-7.797 -9.512,-13.742 -16.144,-17.836 -6.657,-4.097 -13.524,-6.14 -20.621,-6.136 -5.102,0.004 -9.387,1.14 -12.817,3.41 -3.43,2.269 -5.965,5.254 -7.609,8.957 -1.629,3.719 -2.461,7.32 -2.457,10.801 0.004,6.183 1.508,12.3 4.48,18.328 2.985,6.035 6.559,11.078 10.695,15.125 4.137,4.05 8.54,7.16 13.239,9.343 4.683,2.18 9.668,3.258 14.937,3.254 z m -1.672,-3.113 c -3.246,0 -6.429,-0.797 -9.535,-2.414 -3.113,-1.613 -6.199,-4.242 -9.254,-7.906 -3.07,-3.649 -5.824,-8.446 -8.277,-14.36 -2.988,-7.296 -4.496,-14.183 -4.5,-20.664 -0.004,-4.617 1.176,-8.718 3.555,-12.285 2.367,-3.555 6.015,-5.34 10.929,-5.344 2.969,-0.003 5.871,0.731 8.719,2.192 2.852,1.449 5.82,3.965 8.922,7.512 3.871,4.445 7.129,10.144 9.781,17.058 2.637,6.914 3.961,13.363 3.965,19.348 0.004,4.433 -1.176,8.351 -3.555,11.75 -2.382,3.406 -5.945,5.109 -10.75,5.113" /></g></g></svg>