<?xml version="1.0" encoding="UTF-8" standalone="no"?>
<svg
   xmlns:dc="http://purl.org/dc/elements/1.1/"
   xmlns:cc="http://creativecommons.org/ns#"
   xmlns:rdf="http://www.w3.org/1999/02/22-rdf-syntax-ns#"
   xmlns:svg="http://www.w3.org/2000/svg"
   xmlns="http://www.w3.org/2000/svg"
   viewBox="0 0 101.33333 88"
   height="88"
   width="101.33333"
   xml:space="preserve"
   id="svg2"
   version="1.1"><metadata
     id="metadata8"><rdf:RDF><cc:Work
         rdf:about=""><dc:format>image/svg+xml</dc:format><dc:type
           rdf:resource="http://purl.org/dc/dcmitype/StillImage" /></cc:Work></rdf:RDF></metadata><defs
     id="defs6" /><g
     transform="matrix(1.3333333,0,0,-1.3333333,0,88)"
     id="g10"><g
       transform="scale(0.1)"
       id="g12"><path
         id="path14"
         style="fill:none;stroke:#231f20;stroke-width:7.5005002;stroke-linecap:butt;stroke-linejoin:miter;stroke-miterlimit:2.61310005;stroke-dasharray:none;stroke-opacity:1"
         d="M 490.895,188.805 C 419.215,66.5547 261.941,25.5508 139.695,97.2344 17.4414,168.922 -23.5625,326.191 48.1172,448.438 119.797,570.684 277.074,611.688 399.324,540.004 521.57,468.32 562.578,311.051 490.895,188.805 Z" /><path
         id="path16"
         style="fill:#231f20;fill-opacity:1;fill-rule:nonzero;stroke:none"
         d="m 485.605,123.801 20.411,-51.9338 11.113,38.7778 c 0.922,3.179 1.371,5.648 1.371,7.414 0,1.199 -0.414,2.152 -1.262,2.836 -0.851,0.683 -2.418,1.015 -4.734,1.015 -0.383,0 -0.797,0.02 -1.215,0.055 l 0.535,1.816 21.281,-0.019 -0.585,-1.817 c -2.215,0.039 -3.848,-0.179 -4.934,-0.679 -1.531,-0.68 -2.668,-1.563 -3.418,-2.629 -1.035,-1.532 -2.102,-4.199 -3.172,-7.996 l -15.625,-54.5902 -1.75,0.0039 -21.988,55.8833 -11.801,-41.2583 c -0.867,-3.1172 -1.32,-5.5156 -1.324,-7.168 0,-1.25 0.398,-2.1836 1.199,-2.8125 0.801,-0.6367 2.699,-1.0742 5.68,-1.3086 l -0.481,-1.7968 -20.801,0.0156 0.684,1.7969 c 2.602,0.0664 4.352,0.2968 5.234,0.6796 1.336,0.6016 2.321,1.3477 2.969,2.2969 0.949,1.4336 2.004,4.1992 3.192,8.3008 l 13.168,46.0394 c -1.266,1.949 -2.633,3.3 -4.079,4.035 -1.453,0.719 -3.703,1.137 -6.769,1.238 l 0.555,1.817 16.546,-0.012" /><path
         id="path18"
         style="fill:#231f20;fill-opacity:1;fill-rule:nonzero;stroke:none"
         d="m 357.727,652.031 6.074,-53.336 38.461,53.301 16.164,-0.012 v -1.816 c -3.52,-0.215 -5.586,-0.445 -6.199,-0.68 -1.086,-0.414 -2.067,-1.265 -2.954,-2.531 -0.898,-1.266 -1.867,-3.715 -2.921,-7.332 L 394.07,597.652 c -0.718,-2.449 -1.074,-4.363 -1.074,-5.765 0,-1.266 0.434,-2.235 1.317,-2.883 1.23,-0.934 3.183,-1.418 5.847,-1.422 h 1.184 l -0.453,-1.801 -27.879,0.024 0.5,1.797 h 1.312 c 2.473,0 4.352,0.363 5.672,1.078 1,0.515 1.899,1.5 2.699,2.949 0.801,1.449 1.922,4.664 3.36,9.648 l 10.965,38.356 -38.661,-53.82 -1.949,0.003 -6.176,53.852 -11.847,-40.953 c -1.004,-3.485 -1.504,-5.817 -1.504,-7.016 -0.004,-1.219 0.43,-2.136 1.312,-2.769 0.868,-0.633 3,-1.071 6.399,-1.305 l -0.551,-1.801 -21.816,0.02 0.535,1.797 h 1.316 c 3.215,-0.004 5.551,0.812 6.985,2.445 1.035,1.164 2.136,3.715 3.273,7.613 l 14.453,49.356 c -1.082,1.101 -2.098,1.851 -3.082,2.254 -0.984,0.382 -2.781,0.703 -5.414,0.918 l 0.484,1.816 16.45,-0.012" /><path
         id="path20"
         style="fill:none;stroke:#231f20;stroke-width:7.5005002;stroke-linecap:butt;stroke-linejoin:miter;stroke-miterlimit:2.61310005;stroke-dasharray:none;stroke-opacity:1"
         d="M 449.43,135.523 271.141,319.73" /><path
         id="path22"
         style="fill:none;stroke:#231f20;stroke-width:7.5005002;stroke-linecap:butt;stroke-linejoin:miter;stroke-miterlimit:2.61310005;stroke-dasharray:none;stroke-opacity:1"
         d="M 342.453,566.156 268.84,319.129" /><path
         id="path24"
         style="fill:none;stroke:#231f20;stroke-width:7.5005002;stroke-linecap:butt;stroke-linejoin:miter;stroke-miterlimit:2.61310005;stroke-dasharray:none;stroke-opacity:1"
         d="M 121.992,634.598 755.004,446.66" /><path
         id="path26"
         style="fill:none;stroke:#231f20;stroke-width:7.5005002;stroke-linecap:butt;stroke-linejoin:miter;stroke-miterlimit:2.61310005;stroke-dasharray:none;stroke-opacity:1"
         d="M 329.734,7.01953 755.004,446.66" /><path
         id="path28"
         style="fill:#231f20;fill-opacity:1;fill-rule:nonzero;stroke:none"
         d="m 216.836,343.25 c 4.402,-0.004 8.281,-0.957 11.668,-2.859 3.383,-1.907 6.043,-4.723 7.961,-8.457 1.91,-3.719 2.875,-7.586 2.871,-11.606 -0.004,-7.078 -2.078,-14.531 -6.199,-22.324 -4.125,-7.797 -9.512,-13.742 -16.149,-17.836 -6.652,-4.098 -13.523,-6.141 -20.621,-6.137 -5.097,0.004 -9.383,1.141 -12.812,3.41 -3.434,2.27 -5.965,5.254 -7.61,8.957 -1.632,3.719 -2.461,7.317 -2.461,10.801 0.008,6.184 1.512,12.297 4.485,18.328 2.984,6.032 6.558,11.078 10.695,15.125 4.133,4.047 8.535,7.161 13.238,9.344 4.684,2.176 9.668,3.258 14.934,3.254 z m -1.668,-3.117 c -3.25,0.004 -6.434,-0.797 -9.535,-2.41 -3.117,-1.614 -6.203,-4.243 -9.254,-7.91 -3.07,-3.645 -5.824,-8.446 -8.277,-14.36 -2.993,-7.297 -4.497,-14.18 -4.5,-20.664 -0.004,-4.617 1.175,-8.715 3.554,-12.281 2.364,-3.555 6.016,-5.34 10.93,-5.344 2.969,-0.004 5.867,0.727 8.719,2.191 2.851,1.45 5.82,3.965 8.922,7.512 3.871,4.446 7.125,10.145 9.781,17.059 2.637,6.914 3.961,13.363 3.965,19.344 0.004,4.433 -1.176,8.355 -3.559,11.753 -2.379,3.403 -5.945,5.106 -10.746,5.11" /><path
         id="path30"
         style="fill:none;stroke:#231f20;stroke-width:7.5005002;stroke-linecap:butt;stroke-linejoin:miter;stroke-miterlimit:2.61310005;stroke-dasharray:none;stroke-opacity:1"
         d="M 342.453,566.156 449.43,135.523" /></g></g></svg>