<?xml version="1.0" encoding="UTF-8" standalone="no"?>
<svg
   xmlns:dc="http://purl.org/dc/elements/1.1/"
   xmlns:cc="http://creativecommons.org/ns#"
   xmlns:rdf="http://www.w3.org/1999/02/22-rdf-syntax-ns#"
   xmlns:svg="http://www.w3.org/2000/svg"
   xmlns="http://www.w3.org/2000/svg"
   viewBox="0 0 89.333336 80"
   height="80"
   width="89.333336"
   xml:space="preserve"
   id="svg2"
   version="1.1"><metadata
     id="metadata8"><rdf:RDF><cc:Work
         rdf:about=""><dc:format>image/svg+xml</dc:format><dc:type
           rdf:resource="http://purl.org/dc/dcmitype/StillImage" /></cc:Work></rdf:RDF></metadata><defs
     id="defs6" /><g
     transform="matrix(1.3333333,0,0,-1.3333333,0,80)"
     id="g10"><g
       transform="scale(0.1)"
       id="g12"><path
         id="path14"
         style="fill:none;stroke:#231f20;stroke-width:7.5005002;stroke-linecap:butt;stroke-linejoin:miter;stroke-miterlimit:2.61310005;stroke-dasharray:none;stroke-opacity:1"
         d="M 570.895,138.805 C 499.215,16.5547 341.941,-24.4492 219.695,47.2344 97.4414,118.922 56.4375,276.191 128.117,398.438 199.797,520.684 357.074,561.688 479.324,490.004 601.57,418.32 642.578,261.051 570.895,138.805 Z" /><path
         id="path16"
         style="fill:none;stroke:#231f20;stroke-width:7.5005002;stroke-linecap:butt;stroke-linejoin:miter;stroke-miterlimit:2.61310005;stroke-dasharray:none;stroke-opacity:1"
         d="M 511.953,69.8477 120.613,156.055" /><path
         id="path18"
         style="fill:none;stroke:#231f20;stroke-width:7.5005002;stroke-linecap:butt;stroke-linejoin:miter;stroke-miterlimit:2.61310005;stroke-dasharray:none;stroke-opacity:1"
         d="M 120.613,156.055 569.848,391.328" /><path
         id="path20"
         style="fill:#231f20;fill-opacity:1;fill-rule:nonzero;stroke:none"
         d="m 473.172,591.426 -5.078,-55.063 c -0.266,-2.582 -0.383,-4.265 -0.387,-5.082 0,-1.301 0.231,-2.301 0.734,-2.984 0.614,-0.934 1.446,-1.633 2.497,-2.102 1.066,-0.453 2.847,-0.687 5.347,-0.687 l -0.531,-1.801 -26.066,0.02 0.531,1.8 h 1.117 c 2.117,-0.004 3.855,0.465 5.187,1.364 0.934,0.632 1.668,1.648 2.2,3.082 0.351,1.015 0.703,3.379 1.023,7.129 l 0.789,8.402 -18.949,0.016 -6.742,-9.129 c -1.531,-2.051 -2.485,-3.532 -2.887,-4.414 -0.383,-0.903 -0.582,-1.735 -0.586,-2.516 0,-1.055 0.418,-1.934 1.266,-2.688 0.851,-0.746 2.25,-1.164 4.203,-1.234 l -0.535,-1.801 -19.586,0.016 0.535,1.801 c 2.418,0.097 4.535,0.91 6.387,2.41 1.832,1.515 4.57,4.746 8.222,9.695 l 39.59,53.766 z m -9.68,-16.242 -19.219,-26.102 16.649,-0.012 z" /><path
         id="path22"
         style="fill:#231f20;fill-opacity:1;fill-rule:nonzero;stroke:none"
         d="m 532.293,67.8398 0.684,1.8165 23.636,-0.0157 c 3.965,-0.0039 7.496,-0.625 10.614,-1.8789 3.097,-1.2344 5.429,-2.9492 6.98,-5.1679 1.547,-2.2188 2.313,-4.5704 2.309,-7.0391 -0.004,-3.8125 -1.387,-7.2461 -4.141,-10.3281 -2.754,-3.0664 -7.238,-5.3438 -13.453,-6.7891 4.016,-1.5039 6.945,-3.4883 8.844,-5.9727 1.879,-2.4687 2.828,-5.1835 2.824,-8.1523 0,-3.2852 -0.852,-6.4336 -2.555,-9.4336 -1.687,-2.9805 -3.871,-5.31249 -6.523,-6.95702 C 558.859,6.25391 555.66,5.03906 551.91,4.26172 549.242,3.71094 545.074,3.43359 539.406,3.4375 l -24.261,0.01953 0.632,1.79688 c 2.551,0.0664 4.266,0.3164 5.184,0.73047 1.301,0.5664 2.234,1.29687 2.785,2.19921 0.785,1.23047 1.82,4.06251 3.125,8.49611 l 11.895,40.0742 c 1.019,3.3828 1.523,5.7617 1.523,7.1328 0,1.1992 -0.445,2.1485 -1.332,2.8477 -0.898,0.7031 -2.598,1.0508 -5.113,1.0547 -0.551,0 -1.067,0.0195 -1.551,0.0507 z m 9.879,-27.4921 c 2.113,-0.0664 3.648,-0.1016 4.598,-0.1016 6.769,-0.0039 11.8,1.4609 15.121,4.4062 3.3,2.9454 4.957,6.629 4.961,11.0625 0,3.3477 -1.016,5.9649 -3.032,7.836 -2.011,1.8672 -5.23,2.8047 -9.664,2.8086 -1.164,0 -2.664,-0.1836 -4.48,-0.5821 z M 532.527,7.74219 c 3.52,-0.47266 6.27,-0.6875 8.254,-0.69141 5.082,-0.0039 9.582,1.52735 13.5,4.57422 3.938,3.0625 5.891,7.2109 5.895,12.4453 0.004,4 -1.196,7.1328 -3.625,9.3867 -2.418,2.25 -6.332,3.3711 -11.731,3.375 -1.05,0 -2.32,-0.0507 -3.82,-0.1484 L 532.527,7.74219" /><path
         id="path24"
         style="fill:none;stroke:#231f20;stroke-width:7.5005002;stroke-linecap:butt;stroke-linejoin:miter;stroke-miterlimit:2.61310005;stroke-dasharray:none;stroke-opacity:1"
         d="M 511.953,69.8477 454.02,503.035" /><path
         id="path26"
         style="fill:#231f20;fill-opacity:1;fill-rule:nonzero;stroke:none"
         d="m 615.688,457.379 20.406,-51.934 11.113,38.778 c 0.922,3.179 1.371,5.648 1.371,7.414 0.004,1.199 -0.414,2.152 -1.262,2.836 -0.847,0.683 -2.414,1.015 -4.73,1.015 -0.383,0 -0.801,0.02 -1.219,0.055 l 0.535,1.816 21.282,-0.015 -0.582,-1.821 c -2.219,0.04 -3.852,-0.179 -4.934,-0.675 -1.535,-0.684 -2.668,-1.567 -3.418,-2.633 -1.035,-1.531 -2.105,-4.199 -3.176,-7.996 l -15.625,-54.59 -1.75,0.004 -21.988,55.883 -11.797,-41.258 c -0.871,-3.117 -1.324,-5.516 -1.324,-7.168 0,-1.25 0.398,-2.18 1.195,-2.813 0.801,-0.636 2.699,-1.074 5.684,-1.308 l -0.485,-1.797 -20.8,0.016 0.683,1.796 c 2.602,0.067 4.352,0.301 5.235,0.68 1.336,0.602 2.32,1.348 2.968,2.297 0.953,1.434 2.008,4.199 3.192,8.301 l 13.168,46.039 c -1.266,1.949 -2.629,3.301 -4.078,4.035 -1.45,0.719 -3.704,1.137 -6.77,1.238 l 0.555,1.817 16.551,-0.012" /><path
         id="path28"
         style="fill:#231f20;fill-opacity:1;fill-rule:nonzero;stroke:none"
         d="m 42.1211,159.965 6.0742,-53.336 38.461,53.301 16.1637,-0.012 v -1.816 c -3.5192,-0.215 -5.5856,-0.446 -6.1989,-0.68 -1.0859,-0.414 -2.0703,-1.266 -2.9531,-2.531 -0.9024,-1.266 -1.8711,-3.715 -2.9219,-7.332 L 78.4648,105.586 c -0.7187,-2.449 -1.0742,-4.363 -1.0742,-5.7657 0,-1.2656 0.4297,-2.2344 1.3164,-2.8828 1.2305,-0.9336 3.1797,-1.418 5.8477,-1.4219 h 1.1836 l -0.4531,-1.8008 -27.8789,0.0235 0.5,1.7969 h 1.3125 c 2.4687,0 4.3515,0.3632 5.6718,1.0781 0.9961,0.5156 1.8985,1.5 2.6992,2.9492 0.8008,1.4495 1.9219,4.6645 3.3594,9.6485 L 81.9102,147.566 43.2539,93.75 h -1.9492 l -6.1758,53.855 -11.8476,-40.957 c -1.004,-3.484 -1.504,-5.816 -1.5079,-7.0152 0,-1.2187 0.4336,-2.1367 1.3164,-2.7695 0.8672,-0.6328 3,-1.0703 6.3985,-1.3047 l -0.5508,-1.8008 -21.81641,0.0195 0.53516,1.7969 h 1.31641 c 3.21484,0 5.55074,0.8125 6.98434,2.4453 1.0313,1.168 2.1368,3.7145 3.2735,7.6135 l 14.4531,49.355 c -1.082,1.102 -2.0977,1.852 -3.082,2.254 -0.9844,0.383 -2.7813,0.703 -5.4141,0.918 l 0.4844,1.817 16.4492,-0.012" /></g></g></svg>