<?xml version="1.0" encoding="UTF-8" standalone="no"?>
<svg
   xmlns:dc="http://purl.org/dc/elements/1.1/"
   xmlns:cc="http://creativecommons.org/ns#"
   xmlns:rdf="http://www.w3.org/1999/02/22-rdf-syntax-ns#"
   xmlns:svg="http://www.w3.org/2000/svg"
   xmlns="http://www.w3.org/2000/svg"
   viewBox="0 0 92 93.333336"
   height="93.333336"
   width="92"
   xml:space="preserve"
   id="svg2"
   version="1.1"><metadata
     id="metadata8"><rdf:RDF><cc:Work
         rdf:about=""><dc:format>image/svg+xml</dc:format><dc:type
           rdf:resource="http://purl.org/dc/dcmitype/StillImage" /></cc:Work></rdf:RDF></metadata><defs
     id="defs6" /><g
     transform="matrix(1.3333333,0,0,-1.3333333,0,93.333333)"
     id="g10"><g
       transform="scale(0.1)"
       id="g12"><path
         id="path14"
         style="fill:none;stroke:#231f20;stroke-width:7.5005002;stroke-linecap:butt;stroke-linejoin:miter;stroke-miterlimit:2.61310005;stroke-dasharray:none;stroke-opacity:1"
         d="M 510.895,228.805 C 439.215,106.555 281.941,65.5508 159.695,137.234 37.4414,208.922 -3.5625,366.191 68.1172,488.438 139.797,610.684 297.074,651.688 419.324,580.004 541.57,508.32 582.578,351.051 510.895,228.805 Z" /><path
         id="path16"
         style="fill:#231f20;fill-opacity:1;fill-rule:nonzero;stroke:none"
         d="m 210.516,684.445 -4.95,-21.425 h -1.769 l -0.176,5.382 c -0.168,1.95 -0.547,3.684 -1.133,5.219 -0.582,1.531 -1.465,2.852 -2.629,3.984 -1.168,1.118 -2.648,2 -4.449,2.637 -1.781,0.637 -3.765,0.953 -5.949,0.957 -5.832,0.004 -10.918,-1.594 -15.285,-4.773 -5.571,-4.063 -9.942,-9.809 -13.098,-17.223 -2.601,-6.113 -3.926,-12.312 -3.93,-18.598 -0.007,-6.417 1.872,-11.535 5.602,-15.371 3.746,-3.82 8.613,-5.738 14.598,-5.746 4.531,-0.004 8.566,1.012 12.086,3.024 3.535,2.015 6.82,5.113 9.855,9.312 l 2.285,-0.004 c -3.57,-5.695 -7.558,-9.879 -11.91,-12.554 -4.367,-2.684 -9.605,-4.028 -15.687,-4.024 -5.399,0.004 -10.18,1.145 -14.348,3.41 -4.164,2.27 -7.344,5.442 -9.508,9.559 -2.18,4.102 -3.277,8.504 -3.273,13.238 0.004,7.215 1.961,14.246 5.832,21.078 3.871,6.828 9.195,12.207 15.945,16.102 6.77,3.894 13.57,5.84 20.457,5.836 3.215,-0.004 6.832,-0.754 10.828,-2.293 1.754,-0.652 3.035,-0.984 3.801,-0.984 0.781,0 1.465,0.164 2.066,0.48 0.586,0.332 1.551,1.266 2.922,2.781 l 1.817,-0.004" /><path
         id="path18"
         style="fill:#231f20;fill-opacity:1;fill-rule:nonzero;stroke:none"
         d="m 289.535,65.6094 0.586,1.8164 21.149,-0.0156 c 8.949,-0.0079 15.582,-1.0469 19.882,-3.0977 4.313,-2.0547 7.762,-5.293 10.325,-9.6914 2.562,-4.418 3.859,-9.1523 3.855,-14.2031 -0.004,-4.3164 -0.758,-8.5352 -2.246,-12.6133 -1.484,-4.0859 -3.152,-7.3477 -5.039,-9.8125 -1.867,-2.4531 -4.738,-5.1641 -8.621,-8.12892 -3.871,-2.94531 -8.074,-5.14453 -12.59,-6.55469 -4.535,-1.41406 -10.184,-2.10937 -16.953,-2.10546 l -28.031,0.02343 0.636,1.79688 c 2.582,0.0664 4.297,0.29687 5.184,0.67969 1.297,0.5664 2.266,1.3164 2.883,2.25 0.933,1.36328 2.004,4.11327 3.175,8.24607 l 11.747,40.0391 c 0.918,3.1484 1.371,5.6328 1.371,7.418 0,1.2656 -0.414,2.25 -1.262,2.9335 -0.852,0.6836 -2.5,1.0196 -4.984,1.0196 z M 306.867,63.7461 292.48,14.1914 c -1.085,-3.6992 -1.625,-5.99609 -1.625,-6.88281 0,-0.51562 0.168,-1.01562 0.516,-1.51562 0.332,-0.48438 0.801,-0.80078 1.383,-0.96875 0.851,-0.30078 2.219,-0.44922 4.101,-0.45313 5.114,-0.0039 9.868,0.52735 14.231,1.58985 4.387,1.04687 7.973,2.61328 10.773,4.69136 3.985,3.0313 7.157,7.1954 9.543,12.4922 2.371,5.3164 3.559,11.3477 3.563,18.1172 0.008,7.6446 -1.805,13.3477 -5.453,17.0664 -3.629,3.7383 -8.961,5.6094 -15.961,5.6133 -1.719,0.0039 -3.953,-0.0625 -6.684,-0.1953" /><path
         id="path20"
         style="fill:none;stroke:#231f20;stroke-width:7.5005002;stroke-linecap:butt;stroke-linejoin:miter;stroke-miterlimit:2.61310005;stroke-dasharray:none;stroke-opacity:1"
         d="M 296.379,102.047 80.6836,209.344" /><path
         id="path22"
         style="fill:none;stroke:#231f20;stroke-width:7.5005002;stroke-linecap:butt;stroke-linejoin:miter;stroke-miterlimit:2.61310005;stroke-dasharray:none;stroke-opacity:1"
         d="M 85.0703,207.16 543.418,320.84" /><path
         id="path24"
         style="fill:#231f20;fill-opacity:1;fill-rule:nonzero;stroke:none"
         d="m 60.6953,202 -5.0781,-55.062 c -0.2656,-2.583 -0.3867,-4.27 -0.3867,-5.086 0,-1.297 0.2304,-2.297 0.7343,-2.981 0.6133,-0.933 1.4454,-1.633 2.4961,-2.101 1.0664,-0.454 2.8477,-0.688 5.3477,-0.688 l -0.5313,-1.801 -26.0703,0.02 0.5352,1.801 h 1.1172 c 2.1172,-0.004 3.8515,0.464 5.1875,1.359 0.9336,0.637 1.6679,1.648 2.1992,3.086 0.3516,1.016 0.7031,3.379 1.0234,7.129 l 0.7891,8.402 -18.9492,0.016 -6.7422,-9.129 c -1.5313,-2.051 -2.4844,-3.535 -2.8867,-4.414 -0.3828,-0.903 -0.5821,-1.735 -0.586,-2.516 0,-1.055 0.418,-1.933 1.2657,-2.687 0.8515,-0.75 2.25,-1.168 4.1992,-1.235 l -0.5313,-1.8 -19.58591,0.015 0.53515,1.801 c 2.41797,0.094 4.53516,0.91 6.38676,2.41 1.832,1.516 4.5703,4.746 8.2226,9.695 L 58.9766,202 Z M 51.0156,185.758 31.793,159.656 48.4453,159.645 Z" /><path
         id="path26"
         style="fill:#231f20;fill-opacity:1;fill-rule:nonzero;stroke:none"
         d="m 585.492,363.375 0.688,1.816 23.633,-0.015 c 3.964,-0.004 7.496,-0.625 10.613,-1.879 3.101,-1.234 5.433,-2.953 6.98,-5.168 1.547,-2.219 2.313,-4.57 2.313,-7.039 -0.004,-3.817 -1.391,-7.246 -4.141,-10.328 -2.754,-3.067 -7.238,-5.344 -13.457,-6.789 4.016,-1.504 6.949,-3.489 8.844,-5.977 1.883,-2.465 2.828,-5.183 2.828,-8.148 -0.004,-3.285 -0.852,-6.434 -2.555,-9.434 -1.687,-2.98 -3.871,-5.312 -6.523,-6.957 -2.652,-1.668 -5.852,-2.883 -9.606,-3.664 -2.668,-0.547 -6.832,-0.828 -12.5,-0.82 l -24.265,0.015 0.636,1.801 c 2.551,0.066 4.266,0.313 5.184,0.731 1.297,0.566 2.231,1.296 2.785,2.199 0.785,1.23 1.817,4.062 3.121,8.492 l 11.899,40.078 c 1.019,3.383 1.519,5.762 1.519,7.133 0.004,1.199 -0.445,2.148 -1.328,2.848 -0.898,0.703 -2.597,1.05 -5.117,1.054 -0.547,0 -1.066,0.016 -1.551,0.051 z m 9.883,-27.492 c 2.113,-0.067 3.648,-0.102 4.598,-0.102 6.769,-0.004 11.8,1.461 15.117,4.407 3.305,2.945 4.957,6.628 4.961,11.062 0.004,3.348 -1.012,5.965 -3.028,7.836 -2.015,1.867 -5.23,2.805 -9.664,2.809 -1.164,0 -2.664,-0.184 -4.484,-0.582 z m -9.645,-32.606 c 3.516,-0.472 6.266,-0.687 8.25,-0.691 5.083,-0.004 9.583,1.527 13.504,4.574 3.938,3.063 5.891,7.211 5.895,12.445 0,4 -1.199,7.133 -3.629,9.387 -2.414,2.25 -6.328,3.371 -11.73,3.375 -1.051,0 -2.317,-0.051 -3.817,-0.148 l -8.473,-28.942" /><path
         id="path28"
         style="fill:none;stroke:#231f20;stroke-width:7.5005002;stroke-linecap:butt;stroke-linejoin:miter;stroke-miterlimit:2.61310005;stroke-dasharray:none;stroke-opacity:1"
         d="M 543.418,320.84 192.949,593.031" /><path
         id="path30"
         style="fill:#231f20;fill-opacity:1;fill-rule:nonzero;stroke:none"
         d="m 397.953,693.074 6.078,-53.336 38.457,53.301 16.168,-0.012 -0.004,-1.816 c -3.515,-0.215 -5.582,-0.445 -6.199,-0.68 -1.082,-0.414 -2.066,-1.265 -2.953,-2.531 -0.898,-1.266 -1.867,-3.715 -2.922,-7.332 l -12.281,-41.973 c -0.719,-2.449 -1.07,-4.363 -1.074,-5.765 0,-1.266 0.433,-2.235 1.316,-2.883 1.234,-0.934 3.184,-1.418 5.852,-1.422 h 1.179 l -0.449,-1.801 -27.883,0.024 0.5,1.797 h 1.317 c 2.468,0 4.351,0.363 5.668,1.078 1,0.515 1.902,1.5 2.703,2.949 0.801,1.449 1.918,4.664 3.355,9.648 l 10.965,38.356 -38.656,-53.817 h -1.953 l -6.172,53.852 -11.852,-40.953 c -1.004,-3.485 -1.504,-5.817 -1.504,-7.016 0,-1.219 0.434,-2.137 1.313,-2.769 0.867,-0.633 3,-1.071 6.398,-1.305 l -0.55,-1.801 -21.813,0.02 0.531,1.797 h 1.317 c 3.218,-0.004 5.55,0.812 6.988,2.445 1.031,1.164 2.133,3.715 3.27,7.613 l 14.457,49.356 c -1.082,1.101 -2.102,1.851 -3.082,2.254 -0.985,0.382 -2.786,0.703 -5.415,0.918 l 0.481,1.816 16.449,-0.012" /><path
         id="path32"
         style="fill:none;stroke:#231f20;stroke-width:7.5005002;stroke-linecap:butt;stroke-linejoin:miter;stroke-miterlimit:2.61310005;stroke-dasharray:none;stroke-opacity:1"
         d="M 296.379,102.047 192.293,596.133" /><path
         id="path34"
         style="fill:none;stroke:#231f20;stroke-width:7.5005002;stroke-linecap:butt;stroke-linejoin:miter;stroke-miterlimit:2.61310005;stroke-dasharray:none;stroke-opacity:1"
         d="M 296.379,102.047 543.418,320.84" /></g></g></svg>