<?xml version="1.0" encoding="UTF-8" standalone="no"?>
<svg
   xmlns:dc="http://purl.org/dc/elements/1.1/"
   xmlns:cc="http://creativecommons.org/ns#"
   xmlns:rdf="http://www.w3.org/1999/02/22-rdf-syntax-ns#"
   xmlns:svg="http://www.w3.org/2000/svg"
   xmlns="http://www.w3.org/2000/svg"
   viewBox="0 0 80 88"
   height="88"
   width="80"
   xml:space="preserve"
   id="svg2"
   version="1.1"><metadata
     id="metadata8"><rdf:RDF><cc:Work
         rdf:about=""><dc:format>image/svg+xml</dc:format><dc:type
           rdf:resource="http://purl.org/dc/dcmitype/StillImage" /></cc:Work></rdf:RDF></metadata><defs
     id="defs6" /><g
     transform="matrix(1.3333333,0,0,-1.3333333,0,88)"
     id="g10"><g
       transform="scale(0.1)"
       id="g12"><path
         id="path14"
         style="fill:none;stroke:#231f20;stroke-width:7.5005002;stroke-linecap:butt;stroke-linejoin:miter;stroke-miterlimit:2.61310005;stroke-dasharray:none;stroke-opacity:1"
         d="M 85.3789,269.449 158.98,510.84" /><path
         id="path16"
         style="fill:none;stroke:#231f20;stroke-width:7.5005002;stroke-linecap:butt;stroke-linejoin:miter;stroke-miterlimit:2.61310005;stroke-dasharray:none;stroke-opacity:1"
         d="M 85.3789,269.449 416.57,81.2891" /><path
         id="path18"
         style="fill:none;stroke:#231f20;stroke-width:7.5005002;stroke-linecap:butt;stroke-linejoin:miter;stroke-miterlimit:2.61310005;stroke-dasharray:none;stroke-opacity:1"
         d="M 364.426,580.078 C 223.563,595.797 96.6289,494.285 80.9297,353.445 65.2539,212.602 166.723,85.6289 307.559,69.9688 448.418,54.2461 575.367,155.742 591.055,296.574 606.734,437.426 505.234,564.363 364.426,580.078 Z" /><path
         id="path20"
         style="fill:#231f20;fill-opacity:1;fill-rule:nonzero;stroke:none"
         d="m 471.355,656.52 -4.949,-21.43 -1.769,0.004 -0.176,5.383 c -0.168,1.949 -0.547,3.679 -1.133,5.214 -0.582,1.536 -1.465,2.852 -2.629,3.989 -1.168,1.113 -2.648,2 -4.449,2.636 -1.781,0.633 -3.766,0.954 -5.949,0.954 -5.832,0.003 -10.914,-1.594 -15.285,-4.774 -5.571,-4.058 -9.942,-9.808 -13.098,-17.219 -2.602,-6.117 -3.926,-12.316 -3.93,-18.597 -0.004,-6.418 1.871,-11.535 5.602,-15.371 3.75,-3.825 8.613,-5.743 14.598,-5.746 4.531,-0.004 8.566,1.011 12.085,3.023 3.536,2.016 6.821,5.109 9.86,9.309 h 2.281 c -3.57,-5.7 -7.559,-9.879 -11.91,-12.559 -4.367,-2.68 -9.606,-4.027 -15.688,-4.02 -5.398,0.004 -10.179,1.141 -14.343,3.411 -4.168,2.269 -7.348,5.437 -9.512,9.554 -2.18,4.106 -3.277,8.504 -3.273,13.239 0.003,7.218 1.96,14.246 5.832,21.078 3.871,6.828 9.195,12.207 15.945,16.101 6.769,3.899 13.57,5.844 20.457,5.836 3.215,0 6.832,-0.754 10.828,-2.289 1.754,-0.652 3.035,-0.988 3.801,-0.988 0.785,0 1.469,0.164 2.066,0.48 0.586,0.336 1.555,1.266 2.922,2.782 h 1.816" /><path
         id="path22"
         style="fill:#231f20;fill-opacity:1;fill-rule:nonzero;stroke:none"
         d="m 423.512,69.0039 0.586,1.8203 21.148,-0.0195 c 8.953,-0.0039 15.586,-1.0469 19.883,-3.0977 4.316,-2.0547 7.762,-5.289 10.324,-9.6914 2.567,-4.4179 3.86,-9.1523 3.856,-14.2031 -0.004,-4.3164 -0.754,-8.5312 -2.243,-12.6133 -1.484,-4.082 -3.156,-7.3476 -5.039,-9.8125 -1.871,-2.4492 -4.738,-5.164 -8.625,-8.1289 -3.867,-2.9453 -8.07,-5.14452 -12.586,-6.55467 -4.539,-1.41407 -10.187,-2.10938 -16.953,-2.10547 l -28.031,0.02343 0.633,1.79688 c 2.582,0.06641 4.301,0.30078 5.183,0.67969 1.301,0.5664 2.266,1.3164 2.887,2.25 0.934,1.36324 2,4.11324 3.172,8.24614 l 11.746,40.039 c 0.922,3.1485 1.371,5.6328 1.371,7.418 0.004,1.2656 -0.414,2.25 -1.261,2.9336 -0.848,0.6836 -2.5,1.0195 -4.981,1.0195 z m 17.332,-1.8633 -14.387,-49.5547 c -1.086,-3.6992 -1.621,-5.9961 -1.625,-6.8789 0,-0.5156 0.168,-1.0195 0.52,-1.5195 0.332,-0.48437 0.796,-0.80078 1.382,-0.96484 0.848,-0.30469 2.215,-0.45313 4.098,-0.45703 5.117,-0.00391 9.867,0.52734 14.234,1.59375 4.387,1.04292 7.969,2.60942 10.774,4.69142 3.984,3.0273 7.152,7.1914 9.539,12.4883 2.371,5.3164 3.559,11.3476 3.566,18.1172 0.004,7.6484 -1.808,13.3476 -5.453,17.0664 -3.633,3.7382 -8.965,5.6093 -15.965,5.6132 -1.714,0.0039 -3.949,-0.0625 -6.683,-0.1953" /><path
         id="path24"
         style="fill:#231f20;fill-opacity:1;fill-rule:nonzero;stroke:none"
         d="m 62.1641,262.336 -5.0743,-55.063 c -0.2695,-2.582 -0.3867,-4.265 -0.3867,-5.082 -0.0039,-1.3 0.2305,-2.3 0.7305,-2.984 0.6133,-0.934 1.4492,-1.633 2.5,-2.102 1.0625,-0.453 2.8477,-0.683 5.3477,-0.687 l -0.5352,-1.801 -26.0664,0.024 0.5351,1.797 h 1.1172 c 2.1172,0 3.8516,0.464 5.1836,1.363 0.9336,0.633 1.668,1.648 2.2032,3.082 0.3476,1.015 0.7031,3.379 1.0234,7.129 l 0.7891,8.402 -18.9493,0.016 -6.7422,-9.129 c -1.5351,-2.051 -2.4882,-3.531 -2.8867,-4.414 -0.3828,-0.903 -0.5859,-1.735 -0.5859,-2.516 0,-1.051 0.4141,-1.933 1.2656,-2.687 0.8477,-0.746 2.25,-1.164 4.1992,-1.235 l -0.5351,-1.801 -19.58596,0.016 0.53515,1.801 c 2.41797,0.098 4.53911,0.91 6.38671,2.41 1.836,1.516 4.5703,4.746 8.2266,9.695 l 39.5898,53.766 z M 52.4883,246.094 33.2656,219.992 49.9141,219.98 Z" /><path
         id="path26"
         style="fill:#231f20;fill-opacity:1;fill-rule:nonzero;stroke:none"
         d="m 121.301,583.855 0.687,1.817 23.633,-0.016 c 3.965,-0.004 7.496,-0.625 10.613,-1.879 3.102,-1.234 5.434,-2.949 6.981,-5.168 1.547,-2.218 2.312,-4.57 2.312,-7.039 -0.004,-3.812 -1.39,-7.246 -4.14,-10.328 -2.754,-3.066 -7.239,-5.344 -13.457,-6.789 4.015,-1.504 6.949,-3.488 8.847,-5.973 1.879,-2.468 2.825,-5.183 2.825,-8.152 -0.004,-3.285 -0.852,-6.433 -2.555,-9.433 -1.688,-2.981 -3.871,-5.313 -6.524,-6.957 -2.652,-1.668 -5.851,-2.883 -9.605,-3.661 -2.668,-0.55 -6.832,-0.828 -12.5,-0.824 l -24.262,0.02 0.633,1.797 c 2.551,0.066 4.266,0.316 5.184,0.73 1.3,0.566 2.23,1.297 2.785,2.199 0.785,1.231 1.816,4.063 3.121,8.496 l 11.898,40.075 c 1.02,3.382 1.52,5.761 1.52,7.132 0.004,1.2 -0.445,2.149 -1.328,2.848 -0.899,0.703 -2.598,1.051 -5.117,1.055 -0.547,0 -1.063,0.019 -1.551,0.05 z m 9.883,-27.492 c 2.113,-0.066 3.648,-0.101 4.597,-0.101 6.77,-0.004 11.801,1.461 15.121,4.406 3.301,2.945 4.957,6.629 4.957,11.062 0.004,3.348 -1.011,5.965 -3.027,7.836 -2.016,1.868 -5.23,2.805 -9.664,2.809 -1.164,0 -2.664,-0.184 -4.48,-0.582 z m -9.645,-32.605 c 3.52,-0.473 6.266,-0.688 8.25,-0.692 5.082,-0.003 9.582,1.528 13.504,4.575 3.937,3.062 5.891,7.211 5.895,12.445 0.003,4 -1.196,7.133 -3.629,9.387 -2.414,2.25 -6.329,3.371 -11.727,3.375 -1.055,0 -2.32,-0.051 -3.82,-0.149 l -8.473,-28.941" /><path
         id="path28"
         style="fill:none;stroke:#231f20;stroke-width:7.5005002;stroke-linecap:butt;stroke-linejoin:miter;stroke-miterlimit:2.61310005;stroke-dasharray:none;stroke-opacity:1"
         d="M 419.688,567.676 158.98,510.84" /><path
         id="path30"
         style="fill:none;stroke:#231f20;stroke-width:7.5005002;stroke-linecap:butt;stroke-linejoin:miter;stroke-miterlimit:2.61310005;stroke-dasharray:none;stroke-opacity:1"
         d="M 419.688,567.676 416.57,81.2891" /></g></g></svg>