<?xml version="1.0" encoding="UTF-8" standalone="no"?>
<svg
   xmlns:dc="http://purl.org/dc/elements/1.1/"
   xmlns:cc="http://creativecommons.org/ns#"
   xmlns:rdf="http://www.w3.org/1999/02/22-rdf-syntax-ns#"
   xmlns:svg="http://www.w3.org/2000/svg"
   xmlns="http://www.w3.org/2000/svg"
   viewBox="0 0 109.33333 70.666664"
   height="70.666664"
   width="109.33333"
   xml:space="preserve"
   id="svg2"
   version="1.1"><metadata
     id="metadata8"><rdf:RDF><cc:Work
         rdf:about=""><dc:format>image/svg+xml</dc:format><dc:type
           rdf:resource="http://purl.org/dc/dcmitype/StillImage" /></cc:Work></rdf:RDF></metadata><defs
     id="defs6" /><g
     transform="matrix(1.3333333,0,0,-1.3333333,0,70.666667)"
     id="g10"><g
       transform="scale(0.1)"
       id="g12"><path
         id="path14"
         style="fill:none;stroke:#231f20;stroke-width:7.5005002;stroke-linecap:butt;stroke-linejoin:miter;stroke-miterlimit:2.61310005;stroke-dasharray:none;stroke-opacity:1"
         d="M 620.895,138.805 C 549.215,16.5547 391.941,-24.4492 269.695,47.2344 147.441,118.922 106.438,276.191 178.117,398.438 249.797,520.684 407.074,561.688 529.324,490.004 651.57,418.32 692.578,261.051 620.895,138.805 Z" /><path
         id="path16"
         style="fill:#231f20;fill-opacity:1;fill-rule:nonzero;stroke:none"
         d="M 29.4805,74.5391 23.1133,52.5273 c 2.8398,5.1836 5.2422,9.0625 7.2422,11.6641 3.0898,4.0313 6.1054,6.957 9.0429,8.7891 1.7149,1.0351 3.5157,1.5508 5.418,1.5468 1.6172,0 2.9649,-0.5156 4.0469,-1.5507 1.0664,-1.0508 1.6172,-2.3868 1.6133,-4.0196 0,-1.582 -0.3828,-3.664 -1.1368,-6.25 L 45.8633,50.3125 c 5.3242,9.9258 10.3437,16.8906 15.0976,20.8867 2.6524,2.2149 5.2539,3.3125 7.8204,3.3086 1.5,0 2.7343,-0.5 3.6835,-1.5351 0.9649,-1.0196 1.4493,-2.6172 1.4454,-4.7696 0,-1.8828 -0.3008,-3.8789 -0.8868,-5.9961 L 67.6406,43.2109 c -1.1875,-4.1328 -1.7695,-6.4179 -1.7695,-6.8828 0,-0.4492 0.1445,-0.832 0.4453,-1.1679 0.1836,-0.2305 0.4492,-0.3321 0.7852,-0.3321 0.3164,0 0.8828,0.2969 1.6992,0.9141 1.8515,1.4336 3.6015,3.3164 5.2383,5.6641 l 1.5976,-1.0196 c -0.8164,-1.3125 -2.25,-3.0976 -4.3203,-5.3789 -2.0664,-2.2617 -3.8359,-3.8125 -5.3047,-4.6289 -1.4648,-0.8125 -2.8164,-1.2148 -4.0469,-1.2148 -1.1328,0 -2.1015,0.3867 -2.8515,1.1718 -0.7656,0.7813 -1.1485,1.7305 -1.1445,2.8829 0,1.5664 0.6679,4.6992 2.0039,9.414 l 4.4453,15.6797 c 1.0195,3.6172 1.5547,5.6133 1.6211,6 0.1015,0.6172 0.1523,1.2148 0.1523,1.8008 0,0.8164 -0.1797,1.4492 -0.5312,1.918 -0.3985,0.4492 -0.8321,0.6835 -1.3164,0.6835 -1.3672,0 -2.8165,-0.6992 -4.3516,-2.0976 -4.5039,-4.1289 -8.707,-9.9258 -12.6133,-17.3711 -2.5703,-4.918 -4.9922,-11.2148 -7.25,-18.8984 l -7.3633,0.0078 8.3711,29.5273 c 0.9219,3.1992 1.3711,5.3281 1.3711,6.3985 0,0.8828 -0.1797,1.5312 -0.5312,1.9492 -0.3672,0.4336 -0.8008,0.6523 -1.3164,0.6523 -1.0821,0 -2.2149,-0.3984 -3.418,-1.1836 C 35.2773,66.4336 32.7734,63.7227 29.6875,59.5547 26.6016,55.3906 24.2148,51.4102 22.5273,47.5977 21.707,45.8125 19.7695,40.0664 16.6992,30.3672 L 9.48047,30.3711 18.5391,62 l 1.1718,4.1133 c 0.2305,0.6172 0.3321,1.0664 0.3321,1.3672 0.0039,0.7187 -0.3164,1.3515 -0.9649,1.9179 -0.6484,0.5664 -1.4843,0.8672 -2.5,0.8672 -0.414,0 -1.582,-0.1992 -3.5156,-0.5976 l -0.4336,1.8164 16.8516,3.0547" /><path
         id="path18"
         style="fill:#231f20;fill-opacity:1;fill-rule:nonzero;stroke:none"
         d="m 477.977,299.395 c 4.402,-0.004 8.281,-0.957 11.664,-2.86 3.382,-1.902 6.047,-4.719 7.961,-8.457 1.914,-3.715 2.878,-7.586 2.875,-11.601 -0.004,-7.082 -2.079,-14.532 -6.204,-22.329 -4.121,-7.796 -9.507,-13.742 -16.144,-17.835 -6.652,-4.098 -13.524,-6.141 -20.621,-6.137 -5.098,0.004 -9.383,1.144 -12.817,3.41 -3.429,2.269 -5.961,5.254 -7.609,8.957 -1.629,3.719 -2.461,7.32 -2.457,10.801 0.004,6.183 1.508,12.301 4.48,18.328 2.989,6.035 6.559,11.078 10.696,15.129 4.137,4.047 8.539,7.156 13.242,9.34 4.684,2.179 9.668,3.257 14.934,3.254 z m -1.668,-3.114 c -3.25,0 -6.434,-0.797 -9.536,-2.41 -3.117,-1.613 -6.203,-4.246 -9.257,-7.91 -3.071,-3.648 -5.821,-8.445 -8.274,-14.359 -2.992,-7.297 -4.496,-14.184 -4.504,-20.664 -0.004,-4.618 1.176,-8.719 3.559,-12.286 2.363,-3.554 6.012,-5.339 10.93,-5.343 2.964,-0.004 5.867,0.73 8.714,2.191 2.856,1.449 5.821,3.965 8.926,7.512 3.871,4.445 7.125,10.144 9.778,17.058 2.64,6.914 3.96,13.364 3.968,19.348 0,4.434 -1.175,8.352 -3.558,11.75 -2.383,3.406 -5.946,5.109 -10.746,5.113" /><path
         id="path20"
         style="fill:#231f20;fill-opacity:1;fill-rule:nonzero;stroke:none"
         d="m 189.836,508.574 -5.078,-55.058 c -0.27,-2.586 -0.387,-4.27 -0.387,-5.086 0,-1.301 0.231,-2.301 0.731,-2.985 0.617,-0.933 1.449,-1.632 2.5,-2.101 1.066,-0.453 2.847,-0.684 5.347,-0.688 l -0.535,-1.801 -26.066,0.024 0.535,1.797 H 168 c 2.117,0 3.852,0.465 5.184,1.363 0.933,0.633 1.668,1.649 2.203,3.082 0.351,1.016 0.703,3.379 1.023,7.129 l 0.789,8.402 -18.949,0.016 -6.742,-9.129 c -1.531,-2.051 -2.485,-3.531 -2.887,-4.414 -0.383,-0.902 -0.586,-1.734 -0.586,-2.516 0,-1.05 0.414,-1.933 1.266,-2.687 0.851,-0.746 2.25,-1.164 4.199,-1.234 l -0.535,-1.801 -19.582,0.015 0.535,1.801 c 2.418,0.098 4.535,0.91 6.383,2.414 1.836,1.512 4.57,4.742 8.226,9.692 l 39.59,53.765 z m -9.68,-16.242 -19.222,-26.102 16.652,-0.011 z" /><path
         id="path22"
         style="fill:#231f20;fill-opacity:1;fill-rule:nonzero;stroke:none"
         d="m 640.457,491 0.684,1.816 23.636,-0.019 c 3.965,0 7.496,-0.621 10.614,-1.875 3.097,-1.234 5.429,-2.953 6.98,-5.168 1.547,-2.219 2.313,-4.57 2.309,-7.039 -0.004,-3.817 -1.387,-7.246 -4.141,-10.328 -2.754,-3.067 -7.238,-5.344 -13.453,-6.789 4.016,-1.504 6.945,-3.493 8.844,-5.977 1.879,-2.465 2.828,-5.183 2.824,-8.148 0,-3.285 -0.852,-6.434 -2.555,-9.434 -1.687,-2.98 -3.871,-5.312 -6.523,-6.961 -2.653,-1.664 -5.852,-2.879 -9.602,-3.66 -2.668,-0.547 -6.836,-0.828 -12.504,-0.824 l -24.261,0.019 0.632,1.801 c 2.551,0.066 4.266,0.313 5.184,0.731 1.301,0.566 2.234,1.296 2.785,2.195 0.785,1.234 1.82,4.066 3.125,8.496 l 11.895,40.074 c 1.019,3.387 1.523,5.766 1.523,7.137 0,1.199 -0.445,2.148 -1.332,2.848 -0.898,0.703 -2.598,1.05 -5.113,1.054 -0.551,0 -1.067,0.016 -1.551,0.051 z m 9.879,-27.492 c 2.113,-0.067 3.648,-0.102 4.598,-0.102 6.769,-0.008 11.8,1.457 15.121,4.403 3.3,2.949 4.957,6.629 4.961,11.062 0,3.352 -1.016,5.969 -3.032,7.84 -2.011,1.867 -5.23,2.805 -9.664,2.809 -1.164,0 -2.664,-0.184 -4.48,-0.582 z m -9.645,-32.606 c 3.52,-0.472 6.27,-0.687 8.254,-0.691 5.082,-0.004 9.582,1.527 13.5,4.574 3.938,3.063 5.891,7.211 5.895,12.445 0.004,4 -1.195,7.133 -3.625,9.383 -2.418,2.254 -6.332,3.375 -11.731,3.379 -1.05,0 -2.32,-0.051 -3.82,-0.148 l -8.473,-28.942" /><path
         id="path24"
         style="fill:#231f20;fill-opacity:1;fill-rule:evenodd;stroke:none"
         d="m 401.793,262.992 c 3.086,1.274 4.582,4.805 3.328,7.899 -1.242,3.101 -4.785,4.605 -7.883,3.336 -3.101,-1.254 -4.59,-4.793 -3.332,-7.887 1.242,-3.086 4.789,-4.578 7.887,-3.348" /><path
         id="path26"
         style="fill:none;stroke:#231f20;stroke-width:7.5005002;stroke-linecap:butt;stroke-linejoin:miter;stroke-miterlimit:2.61310005;stroke-dasharray:none;stroke-opacity:1"
         d="m 401.793,262.992 c 3.086,1.274 4.582,4.805 3.328,7.899 -1.242,3.101 -4.785,4.605 -7.883,3.336 -3.101,-1.254 -4.59,-4.793 -3.332,-7.887 1.242,-3.086 4.789,-4.578 7.887,-3.348 z" /><path
         id="path28"
         style="fill:none;stroke:#231f20;stroke-width:7.5005002;stroke-linecap:butt;stroke-linejoin:miter;stroke-miterlimit:2.61310005;stroke-dasharray:none;stroke-opacity:1"
         d="M 0.917969,12.043 H 814.543" /><path
         id="path30"
         style="fill:none;stroke:#231f20;stroke-width:7.5005002;stroke-linecap:butt;stroke-linejoin:miter;stroke-miterlimit:2.61310005;stroke-dasharray:none;stroke-opacity:1"
         d="M 398.168,12.043 V 437.816" /><path
         id="path32"
         style="fill:none;stroke:#231f20;stroke-width:7.5005002;stroke-linecap:butt;stroke-linejoin:miter;stroke-miterlimit:2.61310005;stroke-dasharray:none;stroke-opacity:1"
         d="M 595.375,437.816 H 204.793" /></g></g></svg>