<?xml version="1.0" encoding="UTF-8" standalone="no"?>
<svg
   xmlns:dc="http://purl.org/dc/elements/1.1/"
   xmlns:cc="http://creativecommons.org/ns#"
   xmlns:rdf="http://www.w3.org/1999/02/22-rdf-syntax-ns#"
   xmlns:svg="http://www.w3.org/2000/svg"
   xmlns="http://www.w3.org/2000/svg"
   viewBox="0 0 110.66667 81.333336"
   height="81.333336"
   width="110.66667"
   xml:space="preserve"
   id="svg2"
   version="1.1"><metadata
     id="metadata8"><rdf:RDF><cc:Work
         rdf:about=""><dc:format>image/svg+xml</dc:format><dc:type
           rdf:resource="http://purl.org/dc/dcmitype/StillImage" /></cc:Work></rdf:RDF></metadata><defs
     id="defs6" /><g
     transform="matrix(1.3333333,0,0,-1.3333333,0,81.333333)"
     id="g10"><g
       transform="scale(0.1)"
       id="g12"><path
         id="path14"
         style="fill:none;stroke:#231f20;stroke-width:7.5005002;stroke-linecap:butt;stroke-linejoin:miter;stroke-miterlimit:2.61310005;stroke-dasharray:none;stroke-opacity:1"
         d="M 620.895,218.805 C 549.215,96.5547 391.941,55.5508 269.695,127.234 147.441,198.922 106.438,356.191 178.117,478.438 249.797,600.684 407.074,641.688 529.324,570.004 651.57,498.32 692.578,341.051 620.895,218.805 Z" /><path
         id="path16"
         style="fill:#231f20;fill-opacity:1;fill-rule:nonzero;stroke:none"
         d="m 826.375,184.066 -4.949,-21.429 h -1.77 l -0.176,5.383 c -0.167,1.953 -0.546,3.683 -1.132,5.218 -0.582,1.532 -1.465,2.852 -2.629,3.989 -1.168,1.113 -2.649,2 -4.449,2.636 -1.782,0.633 -3.766,0.95 -5.95,0.953 -5.832,0.004 -10.914,-1.593 -15.285,-4.773 -5.57,-4.063 -9.941,-9.809 -13.097,-17.223 -2.602,-6.113 -3.926,-12.312 -3.93,-18.597 -0.008,-6.418 1.871,-11.535 5.601,-15.371 3.75,-3.821 8.614,-5.739 14.598,-5.743 4.531,-0.004 8.566,1.008 12.086,3.024 3.535,2.015 6.82,5.109 9.859,9.308 l 2.282,-0.003 c -3.571,-5.696 -7.559,-9.875 -11.911,-12.555 -4.367,-2.68 -9.605,-4.028 -15.687,-4.024 -5.398,0.004 -10.18,1.145 -14.348,3.411 -4.164,2.273 -7.343,5.441 -9.508,9.558 -2.179,4.102 -3.277,8.504 -3.273,13.238 0.004,7.215 1.961,14.247 5.832,21.079 3.871,6.828 9.195,12.207 15.945,16.101 6.77,3.895 13.571,5.84 20.457,5.836 3.215,-0.004 6.832,-0.754 10.829,-2.289 1.753,-0.656 3.035,-0.988 3.8,-0.988 0.782,0 1.465,0.164 2.067,0.48 0.586,0.332 1.551,1.266 2.922,2.781 h 1.816" /><path
         id="path18"
         style="fill:#231f20;fill-opacity:1;fill-rule:nonzero;stroke:none"
         d="m 743.672,386.723 -5.078,-55.063 c -0.27,-2.582 -0.387,-4.265 -0.387,-5.082 0,-1.301 0.231,-2.301 0.731,-2.984 0.617,-0.934 1.449,-1.633 2.5,-2.102 1.066,-0.453 2.847,-0.687 5.347,-0.687 l -0.535,-1.801 -26.066,0.019 0.535,1.801 h 1.117 c 2.117,-0.004 3.852,0.465 5.184,1.364 0.933,0.632 1.668,1.648 2.203,3.082 0.351,1.015 0.703,3.378 1.023,7.128 l 0.789,8.403 -18.949,0.015 -6.742,-9.128 c -1.531,-2.051 -2.485,-3.532 -2.887,-4.415 -0.383,-0.902 -0.586,-1.734 -0.586,-2.515 0,-1.055 0.414,-1.934 1.266,-2.688 0.851,-0.75 2.25,-1.164 4.199,-1.234 l -0.535,-1.801 -19.582,0.016 0.535,1.801 c 2.418,0.097 4.535,0.91 6.383,2.41 1.836,1.515 4.57,4.746 8.226,9.695 l 39.59,53.766 z m -9.68,-16.243 -19.222,-26.101 16.652,-0.012 z" /><path
         id="path20"
         style="fill:#231f20;fill-opacity:1;fill-rule:nonzero;stroke:none"
         d="m 378.836,69.6406 0.684,1.8164 23.636,-0.0156 c 3.965,-0.0039 7.496,-0.625 10.614,-1.8789 3.101,-1.2344 5.429,-2.9492 6.98,-5.168 1.547,-2.2187 2.313,-4.5703 2.309,-7.039 0,-3.8125 -1.387,-7.2461 -4.141,-10.3282 -2.754,-3.0625 -7.238,-5.3437 -13.453,-6.789 4.015,-1.5039 6.945,-3.4883 8.844,-5.9727 1.879,-2.4687 2.828,-5.1836 2.824,-8.1523 0,-3.2813 -0.852,-6.4297 -2.555,-9.4336 -1.687,-2.9805 -3.871,-5.3086 -6.523,-6.95704 -2.649,-1.66407 -5.852,-2.88282 -9.602,-3.66016 -2.668,-0.55078 -6.836,-0.82812 -12.5,-0.82422 l -24.265,0.01953 0.632,1.79688 c 2.551,0.0664 4.266,0.3164 5.184,0.73047 1.301,0.5664 2.234,1.29687 2.789,2.19922 0.781,1.23042 1.816,4.06252 3.121,8.49612 l 11.895,40.0742 c 1.019,3.3828 1.523,5.7656 1.523,7.1328 0,1.1992 -0.445,2.1484 -1.332,2.8516 -0.895,0.6992 -2.598,1.0507 -5.113,1.0507 -0.551,0 -1.067,0.0196 -1.551,0.0508 z m 9.879,-27.4922 c 2.113,-0.0664 3.648,-0.1015 4.598,-0.1015 6.769,-0.0039 11.8,1.4609 15.121,4.4062 3.3,2.9492 4.957,6.6289 4.961,11.0625 0.003,3.3477 -1.012,5.9649 -3.032,7.836 -2.011,1.8672 -5.23,2.8047 -9.664,2.8086 -1.164,0 -2.664,-0.1836 -4.48,-0.5821 z M 379.074,9.54297 c 3.516,-0.46875 6.266,-0.6875 8.25,-0.69141 5.082,-0.0039 9.582,1.52734 13.5,4.57424 3.938,3.0664 5.891,7.2148 5.895,12.4453 0.004,4 -1.196,7.1328 -3.625,9.3867 -2.418,2.25 -6.332,3.3711 -11.731,3.375 -1.05,0 -2.32,-0.0469 -3.82,-0.1484 L 379.074,9.54297" /><path
         id="path22"
         style="fill:#231f20;fill-opacity:1;fill-rule:evenodd;stroke:none"
         d="m 654.785,296.332 c 3.094,1.262 4.59,4.793 3.332,7.887 -1.254,3.097 -4.789,4.586 -7.887,3.332 -3.097,-1.258 -4.589,-4.793 -3.332,-7.887 1.254,-3.098 4.79,-4.586 7.887,-3.332" /><path
         id="path24"
         style="fill:none;stroke:#231f20;stroke-width:7.5005002;stroke-linecap:butt;stroke-linejoin:miter;stroke-miterlimit:2.61310005;stroke-dasharray:none;stroke-opacity:1"
         d="m 654.785,296.332 c 3.094,1.262 4.59,4.793 3.332,7.887 -1.254,3.097 -4.789,4.586 -7.887,3.332 -3.097,-1.258 -4.589,-4.793 -3.332,-7.887 1.254,-3.098 4.79,-4.586 7.887,-3.332 z" /><path
         id="path26"
         style="fill:none;stroke:#231f20;stroke-width:7.5005002;stroke-linecap:butt;stroke-linejoin:miter;stroke-miterlimit:2.61310005;stroke-dasharray:none;stroke-opacity:1"
         d="M 0.917969,92.043 H 814.543" /><path
         id="path28"
         style="fill:none;stroke:#231f20;stroke-width:7.5005002;stroke-linecap:butt;stroke-linejoin:miter;stroke-miterlimit:2.61310005;stroke-dasharray:none;stroke-opacity:1"
         d="M 398.168,92.043 651.539,299.844" /><path
         id="path30"
         style="fill:#231f20;fill-opacity:1;fill-rule:evenodd;stroke:none"
         d="m 401.277,84.8164 c 3.094,1.2578 4.59,4.7891 3.332,7.8828 -1.254,3.0977 -4.789,4.5899 -7.886,3.3321 -3.098,-1.254 -4.59,-4.7891 -3.332,-7.8868 1.254,-3.0937 4.789,-4.5859 7.886,-3.3281" /><path
         id="path32"
         style="fill:none;stroke:#231f20;stroke-width:7.5005002;stroke-linecap:butt;stroke-linejoin:miter;stroke-miterlimit:2.61310005;stroke-dasharray:none;stroke-opacity:1"
         d="m 401.277,84.8164 c 3.094,1.2578 4.59,4.7891 3.332,7.8828 -1.254,3.0977 -4.789,4.5899 -7.886,3.3321 -3.098,-1.254 -4.59,-4.7891 -3.332,-7.8868 1.254,-3.0937 4.789,-4.5859 7.886,-3.3281 z" /></g></g></svg>