<?xml version="1.0" encoding="UTF-8" standalone="no"?>
<svg
   xmlns:dc="http://purl.org/dc/elements/1.1/"
   xmlns:cc="http://creativecommons.org/ns#"
   xmlns:rdf="http://www.w3.org/1999/02/22-rdf-syntax-ns#"
   xmlns:svg="http://www.w3.org/2000/svg"
   xmlns="http://www.w3.org/2000/svg"
   viewBox="0 0 110.66667 81.333336"
   height="81.333336"
   width="110.66667"
   xml:space="preserve"
   id="svg2"
   version="1.1"><metadata
     id="metadata8"><rdf:RDF><cc:Work
         rdf:about=""><dc:format>image/svg+xml</dc:format><dc:type
           rdf:resource="http://purl.org/dc/dcmitype/StillImage" /></cc:Work></rdf:RDF></metadata><defs
     id="defs6" /><g
     transform="matrix(1.3333333,0,0,-1.3333333,0,81.333333)"
     id="g10"><g
       transform="scale(0.1)"
       id="g12"><path
         id="path14"
         style="fill:none;stroke:#231f20;stroke-width:7.5005002;stroke-linecap:butt;stroke-linejoin:miter;stroke-miterlimit:2.61310005;stroke-dasharray:none;stroke-opacity:1"
         d="M 629.918,395.113 C 558.238,517.359 400.965,558.363 278.719,486.684 156.465,414.996 115.461,257.727 187.141,135.48 258.82,13.2344 416.098,-27.7695 538.348,43.9141 660.594,115.594 701.602,272.867 629.918,395.113 Z" /><path
         id="path16"
         style="fill:#231f20;fill-opacity:1;fill-rule:nonzero;stroke:none"
         d="m 807.184,607.477 -4.95,-21.426 h -1.769 l -0.18,5.383 c -0.164,1.949 -0.547,3.683 -1.129,5.218 -0.582,1.532 -1.465,2.852 -2.629,3.985 -1.168,1.117 -2.648,2 -4.449,2.636 -1.781,0.633 -3.765,0.954 -5.949,0.957 -5.832,0.004 -10.918,-1.593 -15.289,-4.773 -5.57,-4.062 -9.938,-9.809 -13.094,-17.223 -2.605,-6.113 -3.926,-12.312 -3.93,-18.597 -0.007,-6.418 1.872,-11.535 5.602,-15.371 3.746,-3.821 8.613,-5.743 14.598,-5.746 4.531,-0.004 8.566,1.011 12.086,3.023 3.531,2.016 6.82,5.113 9.855,9.312 l 2.281,-0.003 c -3.57,-5.696 -7.554,-9.879 -11.906,-12.555 -4.367,-2.684 -9.605,-4.027 -15.687,-4.024 -5.403,0.004 -10.184,1.141 -14.348,3.411 -4.164,2.269 -7.344,5.441 -9.508,9.558 -2.184,4.102 -3.277,8.504 -3.273,13.235 0.004,7.218 1.961,14.25 5.832,21.082 3.871,6.828 9.191,12.207 15.945,16.101 6.77,3.895 13.57,5.84 20.457,5.836 3.215,-0.004 6.828,-0.754 10.828,-2.293 1.75,-0.652 3.035,-0.984 3.801,-0.984 0.781,0 1.465,0.164 2.066,0.48 0.586,0.332 1.551,1.266 2.918,2.781 l 1.821,-0.003" /><path
         id="path18"
         style="fill:#231f20;fill-opacity:1;fill-rule:nonzero;stroke:none"
         d="m 735.582,373.613 -5.078,-55.062 c -0.27,-2.586 -0.387,-4.27 -0.387,-5.086 0,-1.297 0.231,-2.297 0.735,-2.981 0.613,-0.933 1.445,-1.636 2.496,-2.105 1.066,-0.449 2.847,-0.684 5.347,-0.688 l -0.531,-1.796 -26.07,0.019 0.535,1.801 1.117,-0.004 c 2.117,0 3.852,0.465 5.188,1.363 0.929,0.637 1.668,1.649 2.199,3.082 0.351,1.02 0.703,3.383 1.023,7.133 l 0.789,8.399 -18.949,0.015 -6.742,-9.125 c -1.531,-2.055 -2.484,-3.535 -2.887,-4.414 -0.383,-0.902 -0.582,-1.734 -0.586,-2.519 0,-1.051 0.418,-1.934 1.266,-2.684 0.851,-0.75 2.25,-1.168 4.199,-1.238 l -0.531,-1.797 -19.586,0.015 0.535,1.797 c 2.418,0.098 4.535,0.914 6.383,2.414 1.836,1.516 4.57,4.743 8.226,9.692 l 39.59,53.769 z m -9.68,-16.246 -19.222,-26.097 16.652,-0.016 z" /><path
         id="path20"
         style="fill:#231f20;fill-opacity:1;fill-rule:nonzero;stroke:none"
         d="m 394.996,603.945 0.684,1.817 23.633,-0.02 c 3.968,-0.004 7.5,-0.625 10.617,-1.875 3.097,-1.238 5.429,-2.953 6.98,-5.172 1.543,-2.218 2.309,-4.566 2.309,-7.035 -0.004,-3.816 -1.391,-7.25 -4.141,-10.332 -2.754,-3.062 -7.238,-5.34 -13.457,-6.789 4.016,-1.5 6.949,-3.488 8.848,-5.973 1.879,-2.468 2.828,-5.183 2.824,-8.152 -0.004,-3.281 -0.852,-6.43 -2.555,-9.43 -1.687,-2.98 -3.871,-5.312 -6.523,-6.961 -2.652,-1.664 -5.852,-2.882 -9.602,-3.66 -2.668,-0.547 -6.836,-0.828 -12.504,-0.824 l -24.261,0.02 0.632,1.8 c 2.551,0.063 4.266,0.313 5.184,0.727 1.301,0.566 2.231,1.297 2.785,2.199 0.785,1.235 1.817,4.063 3.121,8.496 l 11.899,40.074 c 1.019,3.383 1.519,5.766 1.523,7.133 0,1.2 -0.449,2.149 -1.332,2.852 -0.898,0.699 -2.597,1.051 -5.117,1.051 -0.547,0 -1.063,0.019 -1.547,0.054 z m 9.879,-27.492 c 2.113,-0.066 3.648,-0.101 4.598,-0.105 6.769,-0.004 11.8,1.461 15.121,4.406 3.301,2.949 4.957,6.629 4.961,11.062 0,3.352 -1.016,5.969 -3.032,7.836 -2.015,1.868 -5.23,2.805 -9.664,2.809 -1.164,0 -2.664,-0.18 -4.48,-0.578 z m -9.645,-32.609 c 3.52,-0.469 6.266,-0.688 8.25,-0.688 5.086,-0.004 9.583,1.524 13.504,4.571 3.938,3.066 5.891,7.214 5.895,12.445 0.004,4 -1.195,7.133 -3.629,9.387 -2.414,2.254 -6.328,3.371 -11.727,3.375 -1.054,0.004 -2.32,-0.047 -3.82,-0.145 l -8.473,-28.945" /><path
         id="path22"
         style="fill:#231f20;fill-opacity:1;fill-rule:evenodd;stroke:none"
         d="m 663.809,317.582 c 3.093,-1.258 4.589,-4.789 3.332,-7.883 -1.254,-3.097 -4.789,-4.586 -7.887,-3.332 -3.098,1.254 -4.59,4.789 -3.332,7.887 1.258,3.094 4.789,4.586 7.887,3.328" /><path
         id="path24"
         style="fill:none;stroke:#231f20;stroke-width:7.5005002;stroke-linecap:butt;stroke-linejoin:miter;stroke-miterlimit:2.61310005;stroke-dasharray:none;stroke-opacity:1"
         d="m 663.809,317.582 c 3.093,-1.258 4.589,-4.789 3.332,-7.883 -1.254,-3.097 -4.789,-4.586 -7.887,-3.332 -3.098,1.254 -4.59,4.789 -3.332,7.887 1.258,3.094 4.789,4.586 7.887,3.328 z" /><path
         id="path26"
         style="fill:none;stroke:#231f20;stroke-width:7.5005002;stroke-linecap:butt;stroke-linejoin:miter;stroke-miterlimit:2.61310005;stroke-dasharray:none;stroke-opacity:1"
         d="M 9.94141,521.875 H 823.566" /><path
         id="path28"
         style="fill:none;stroke:#231f20;stroke-width:7.5005002;stroke-linecap:butt;stroke-linejoin:miter;stroke-miterlimit:2.61310005;stroke-dasharray:none;stroke-opacity:1"
         d="M 407.191,521.875 660.563,314.07" /><path
         id="path30"
         style="fill:#231f20;fill-opacity:1;fill-rule:evenodd;stroke:none"
         d="m 410.301,529.102 c 3.094,-1.258 4.59,-4.789 3.332,-7.887 -1.254,-3.094 -4.789,-4.586 -7.887,-3.328 -3.098,1.254 -4.59,4.789 -3.332,7.886 1.254,3.094 4.789,4.586 7.887,3.329" /><path
         id="path32"
         style="fill:none;stroke:#231f20;stroke-width:7.5005002;stroke-linecap:butt;stroke-linejoin:miter;stroke-miterlimit:2.61310005;stroke-dasharray:none;stroke-opacity:1"
         d="m 410.301,529.102 c 3.094,-1.258 4.59,-4.789 3.332,-7.887 -1.254,-3.094 -4.789,-4.586 -7.887,-3.328 -3.098,1.254 -4.59,4.789 -3.332,7.886 1.254,3.094 4.789,4.586 7.887,3.329 z" /></g></g></svg>