<?xml version="1.0" encoding="UTF-8" standalone="no"?>
<svg
   xmlns:dc="http://purl.org/dc/elements/1.1/"
   xmlns:cc="http://creativecommons.org/ns#"
   xmlns:rdf="http://www.w3.org/1999/02/22-rdf-syntax-ns#"
   xmlns:svg="http://www.w3.org/2000/svg"
   xmlns="http://www.w3.org/2000/svg"
   viewBox="0 0 109.33333 82.666664"
   height="82.666664"
   width="109.33333"
   xml:space="preserve"
   id="svg2"
   version="1.1"><metadata
     id="metadata8"><rdf:RDF><cc:Work
         rdf:about=""><dc:format>image/svg+xml</dc:format><dc:type
           rdf:resource="http://purl.org/dc/dcmitype/StillImage" /></cc:Work></rdf:RDF></metadata><defs
     id="defs6" /><g
     transform="matrix(1.3333333,0,0,-1.3333333,0,82.666667)"
     id="g10"><g
       transform="scale(0.1)"
       id="g12"><path
         id="path14"
         style="fill:#231f20;fill-opacity:1;fill-rule:nonzero;stroke:none"
         d="m 396.391,66.9961 26.066,-0.0195 c 6.836,-0.0078 11.953,-1.4922 15.332,-4.4297 3.383,-2.9531 5.078,-6.5547 5.074,-10.7696 0,-3.3671 -1.09,-6.6171 -3.242,-9.7656 -2.152,-3.164 -5.336,-5.7304 -9.57,-7.6914 -4.238,-1.9648 -8.805,-2.9453 -13.719,-2.9414 -3.066,0.0039 -6.949,0.5586 -11.668,1.6758 l -5.297,-18.0625 c -1.234,-4.2969 -1.851,-7.12892 -1.855,-8.49611 0,-1.05078 0.433,-1.90234 1.312,-2.58593 0.887,-0.70313 2.985,-1.13282 6.301,-1.33594 l -0.484,-1.800782 -26.332,0.019531 0.55,1.800781 c 3.45,-0.00391 5.852,0.59375 7.2,1.77734 1.355,1.19922 2.804,4.46485 4.375,9.84771 l 10.964,37.6718 c 1.305,4.5313 1.957,7.5664 1.957,9.0821 0,1.1523 -0.449,2.082 -1.382,2.8359 -0.93,0.75 -2.965,1.1992 -6.133,1.3711 z m 9.093,-30.875 c 3.684,-0.9492 6.649,-1.4219 8.899,-1.4219 3.535,-0.0039 6.765,0.7266 9.683,2.1914 2.918,1.4649 5.207,3.6641 6.84,6.5782 1.653,2.9296 2.473,5.9804 2.473,9.1328 0.004,3.3007 -0.996,5.8984 -3.008,7.8164 -2.035,1.9179 -5.082,2.8867 -9.183,2.8906 -2.215,0 -4.899,-0.2813 -8.067,-0.8281 l -7.637,-26.3594" /><path
         id="path16"
         style="fill:none;stroke:#231f20;stroke-width:7.5005002;stroke-linecap:butt;stroke-linejoin:miter;stroke-miterlimit:2.61310005;stroke-dasharray:none;stroke-opacity:1"
         d="M 620.895,228.805 C 549.215,106.555 391.941,65.5508 269.695,137.234 147.441,208.922 106.438,366.191 178.117,488.438 249.797,610.684 407.074,651.688 529.324,580.004 651.57,508.32 692.578,351.051 620.895,228.805 Z" /><path
         id="path18"
         style="fill:#231f20;fill-opacity:1;fill-rule:nonzero;stroke:none"
         d="m 715.238,339.668 -10.574,32.191 c -2.469,-0.031 -5,0.204 -7.617,0.739 l -5.715,-20.028 c -0.754,-2.601 -1.137,-4.8 -1.141,-6.582 0,-1.371 0.481,-2.453 1.418,-3.218 0.711,-0.602 2.664,-1.02 5.864,-1.29 l -0.45,-1.8 -25.632,0.019 0.55,1.801 c 2.399,0.098 4.032,0.348 4.883,0.73 1.332,0.567 2.301,1.297 2.918,2.247 1.051,1.531 2.137,4.234 3.289,8.097 l 11.598,39.992 c 0.785,2.664 1.172,4.731 1.172,6.196 0,1.504 -0.598,2.769 -1.832,3.804 -1.215,1.051 -2.965,1.551 -5.246,1.52 l 0.597,1.816 21.586,-0.015 c 7.219,-0.004 12.434,-1.375 15.614,-4.11 3.179,-2.738 4.777,-6.339 4.773,-10.808 -0.004,-4.266 -1.641,-8.164 -4.906,-11.696 -3.289,-3.515 -7.774,-5.757 -13.457,-6.687 l 6.418,-19.391 c 1.562,-4.765 3.129,-7.851 4.691,-9.285 1.551,-1.433 4.082,-2.254 7.566,-2.457 l -0.55,-1.797 z m -17.355,35.711 c 2.082,-0.301 3.949,-0.453 5.566,-0.453 5.598,-0.004 10.035,1.543 13.285,4.656 3.254,3.113 4.891,6.965 4.895,11.598 0,3.613 -1.012,6.383 -3.047,8.3 -2.031,1.918 -5.078,2.887 -9.144,2.891 -1.051,0 -2.286,-0.133 -3.719,-0.398 l -7.836,-26.594" /><path
         id="path20"
         style="fill:#231f20;fill-opacity:1;fill-rule:nonzero;stroke:none"
         d="m 375.934,416.465 c 4.402,-0.004 8.281,-0.957 11.664,-2.86 3.382,-1.902 6.043,-4.718 7.961,-8.453 1.914,-3.718 2.875,-7.589 2.875,-11.605 -0.008,-7.082 -2.079,-14.531 -6.204,-22.328 -4.121,-7.797 -9.511,-13.742 -16.144,-17.836 -6.656,-4.098 -13.523,-6.141 -20.621,-6.133 -5.102,0.004 -9.387,1.141 -12.817,3.406 -3.429,2.27 -5.964,5.254 -7.609,8.957 -1.629,3.719 -2.461,7.321 -2.457,10.805 0.004,6.18 1.508,12.297 4.481,18.328 2.988,6.031 6.558,11.078 10.695,15.125 4.137,4.047 8.539,7.156 13.238,9.34 4.684,2.18 9.668,3.258 14.938,3.254 z m -1.672,-3.113 c -3.246,0 -6.43,-0.797 -9.535,-2.411 -3.114,-1.613 -6.2,-4.246 -9.254,-7.91 -3.071,-3.648 -5.825,-8.445 -8.278,-14.359 -2.988,-7.297 -4.496,-14.18 -4.5,-20.664 -0.004,-4.617 1.176,-8.719 3.555,-12.285 2.367,-3.555 6.016,-5.34 10.93,-5.344 2.968,-0.004 5.871,0.73 8.718,2.191 2.852,1.45 5.821,3.965 8.926,7.512 3.867,4.449 7.125,10.145 9.778,17.059 2.636,6.914 3.961,13.363 3.964,19.347 0.004,4.434 -1.175,8.352 -3.554,11.75 -2.383,3.407 -5.946,5.11 -10.75,5.114" /><path
         id="path22"
         style="fill:none;stroke:#231f20;stroke-width:7.5005002;stroke-linecap:butt;stroke-linejoin:miter;stroke-miterlimit:2.61310005;stroke-dasharray:none;stroke-opacity:1"
         d="M 0.917969,102.043 H 814.543" /><path
         id="path24"
         style="fill:none;stroke:#231f20;stroke-width:7.5005002;stroke-linecap:butt;stroke-linejoin:miter;stroke-miterlimit:2.61310005;stroke-dasharray:none;stroke-opacity:1"
         d="M 398.172,102.043 V 359.215" /><path
         id="path26"
         style="fill:none;stroke:#231f20;stroke-width:7.5005002;stroke-linecap:butt;stroke-linejoin:miter;stroke-miterlimit:2.61310005;stroke-dasharray:none;stroke-opacity:1"
         d="M 655.344,359.215 H 398.172" /><path
         id="path28"
         style="fill:none;stroke:#231f20;stroke-width:5.00029993;stroke-linecap:butt;stroke-linejoin:miter;stroke-miterlimit:2.61310005;stroke-dasharray:none;stroke-opacity:1"
         d="m 453.16,156.191 c 16.254,-9.832 25.945,-27.851 29.031,-54.148" /><path
         id="path30"
         style="fill:none;stroke:#231f20;stroke-width:7.5005002;stroke-linecap:butt;stroke-linejoin:miter;stroke-miterlimit:2.61310005;stroke-dasharray:none;stroke-opacity:1"
         d="M 655.344,359.215 398.172,102.043" /></g></g></svg>