<?xml version="1.0" encoding="UTF-8" standalone="no"?>
<svg
   xmlns:dc="http://purl.org/dc/elements/1.1/"
   xmlns:cc="http://creativecommons.org/ns#"
   xmlns:rdf="http://www.w3.org/1999/02/22-rdf-syntax-ns#"
   xmlns:svg="http://www.w3.org/2000/svg"
   xmlns="http://www.w3.org/2000/svg"
   viewBox="0 0 117.33333 54.666668"
   height="54.666668"
   width="117.33333"
   xml:space="preserve"
   id="svg2"
   version="1.1"><metadata
     id="metadata8"><rdf:RDF><cc:Work
         rdf:about=""><dc:format>image/svg+xml</dc:format><dc:type
           rdf:resource="http://purl.org/dc/dcmitype/StillImage" /></cc:Work></rdf:RDF></metadata><defs
     id="defs6" /><g
     transform="matrix(1.3333333,0,0,-1.3333333,0,54.666667)"
     id="g10"><g
       transform="scale(0.1)"
       id="g12"><path
         id="path14"
         style="fill:#231f20;fill-opacity:1;fill-rule:nonzero;stroke:none"
         d="m 822.633,395.285 -4.949,-21.43 h -1.77 l -0.176,5.383 c -0.168,1.95 -0.547,3.684 -1.129,5.219 -0.586,1.531 -1.468,2.852 -2.632,3.984 -1.164,1.118 -2.649,2.004 -4.446,2.637 -1.785,0.637 -3.769,0.953 -5.949,0.957 -5.836,0.004 -10.918,-1.594 -15.289,-4.773 -5.57,-4.063 -9.941,-9.809 -13.094,-17.223 -2.605,-6.113 -3.929,-12.312 -3.933,-18.598 -0.004,-6.418 1.875,-11.535 5.601,-15.371 3.75,-3.82 8.613,-5.738 14.598,-5.746 4.535,-0.004 8.566,1.012 12.086,3.024 3.535,2.015 6.824,5.113 9.859,9.312 l 2.281,-0.004 c -3.57,-5.695 -7.554,-9.879 -11.91,-12.554 -4.367,-2.684 -9.601,-4.028 -15.687,-4.024 -5.399,0.004 -10.18,1.145 -14.344,3.41 -4.168,2.274 -7.348,5.442 -9.508,9.559 -2.183,4.101 -3.281,8.504 -3.277,13.238 0.008,7.215 1.961,14.246 5.832,21.078 3.875,6.828 9.195,12.207 15.945,16.102 6.77,3.894 13.574,5.84 20.457,5.836 3.215,-0.004 6.832,-0.754 10.832,-2.293 1.75,-0.653 3.035,-0.985 3.797,-0.985 0.785,0 1.469,0.165 2.07,0.481 0.582,0.332 1.551,1.266 2.918,2.781 h 1.817" /><path
         id="path16"
         style="fill:#231f20;fill-opacity:1;fill-rule:nonzero;stroke:none"
         d="m 822.848,72.1172 0.586,1.8164 21.148,-0.0156 c 8.949,-0.0078 15.582,-1.0469 19.883,-3.1016 4.312,-2.0508 7.762,-5.2891 10.324,-9.6875 2.563,-4.4219 3.859,-9.1562 3.856,-14.2031 -0.004,-4.3164 -0.758,-8.5352 -2.247,-12.6172 -1.484,-4.082 -3.152,-7.3477 -5.039,-9.8086 -1.867,-2.4531 -4.738,-5.1641 -8.621,-8.1289 -3.871,-2.9453 -8.074,-5.1445 -12.59,-6.5586 -4.535,-1.41016 -10.187,-2.10937 -16.953,-2.10156 l -28.031,0.01953 0.633,1.80078 c 2.586,0.06641 4.301,0.29688 5.187,0.67965 1.297,0.5664 2.266,1.3164 2.883,2.2461 0.934,1.3672 2.004,4.1172 3.172,8.2461 l 11.75,40.043 c 0.918,3.1484 1.367,5.6328 1.371,7.418 0,1.2617 -0.414,2.2461 -1.262,2.9297 -0.851,0.6835 -2.5,1.0195 -4.984,1.0234 z M 840.18,70.2539 825.793,20.6992 c -1.086,-3.6992 -1.625,-5.9961 -1.625,-6.8828 0,-0.5156 0.164,-1.0156 0.516,-1.5156 0.332,-0.4844 0.8,-0.8008 1.382,-0.9688 0.852,-0.3007 2.219,-0.4531 4.102,-0.4531 5.113,-0.0039 9.867,0.5234 14.23,1.5899 4.387,1.0468 7.973,2.6093 10.774,4.6914 3.984,3.0312 7.156,7.1953 9.543,12.4921 2.371,5.3125 3.558,11.3438 3.562,18.1133 0.008,7.6485 -1.804,13.3516 -5.453,17.0703 -3.629,3.7344 -8.961,5.6094 -15.961,5.6133 -1.718,0 -3.953,-0.0664 -6.683,-0.1953" /><path
         id="path18"
         style="fill:#231f20;fill-opacity:1;fill-rule:nonzero;stroke:none"
         d="M 59.5195,95.7344 54.4414,40.6719 c -0.2695,-2.5821 -0.3867,-4.2656 -0.3867,-5.0821 0,-1.3007 0.2305,-2.3007 0.7305,-2.9843 0.6171,-0.9336 1.4492,-1.6328 2.5,-2.1016 1.0664,-0.4531 2.8476,-0.6836 5.3476,-0.6875 l -0.5351,-1.8008 -26.0664,0.0235 0.5351,1.7968 h 1.1172 c 2.1172,0 3.8516,0.4649 5.1836,1.3633 0.9336,0.6328 1.668,1.6485 2.2031,3.0821 0.3516,1.0156 0.7031,3.3789 1.0235,7.1289 l 0.789,8.4023 -18.9492,0.0156 -6.7422,-9.1289 c -1.5312,-2.0508 -2.4844,-3.5312 -2.8867,-4.414 -0.3828,-0.9024 -0.5859,-1.7344 -0.5859,-2.5157 0,-1.0507 0.414,-1.9336 1.2656,-2.6875 0.8476,-0.7461 2.25,-1.164 4.1992,-1.2343 l -0.5352,-1.8008 -19.58199,0.0156 0.53515,1.8008 c 2.41797,0.0976 4.53516,0.9101 6.38282,2.4101 1.83592,1.5157 4.57032,4.7461 8.22652,9.6954 L 57.8008,95.7344 Z M 49.8398,79.4922 30.6172,53.3906 47.2695,53.3789 Z" /><path
         id="path20"
         style="fill:#231f20;fill-opacity:1;fill-rule:nonzero;stroke:none"
         d="m 101.555,404.418 0.687,1.816 23.633,-0.019 c 3.965,-0.004 7.5,-0.625 10.613,-1.875 3.102,-1.238 5.434,-2.953 6.981,-5.172 1.547,-2.219 2.312,-4.566 2.312,-7.035 -0.004,-3.817 -1.39,-7.25 -4.14,-10.332 -2.754,-3.063 -7.239,-5.34 -13.457,-6.789 4.015,-1.5 6.949,-3.489 8.847,-5.973 1.879,-2.469 2.824,-5.184 2.824,-8.152 -0.003,-3.282 -0.851,-6.43 -2.554,-9.43 -1.688,-2.98 -3.871,-5.312 -6.524,-6.961 -2.652,-1.664 -5.851,-2.879 -9.605,-3.66 -2.664,-0.547 -6.832,-0.828 -12.5,-0.824 l -24.2618,0.019 0.6328,1.801 c 2.5508,0.066 4.2656,0.313 5.1836,0.731 1.3007,0.562 2.2304,1.292 2.7851,2.195 0.7852,1.234 1.8164,4.062 3.1211,8.496 l 11.8982,40.074 c 1.02,3.383 1.52,5.766 1.524,7.133 0,1.199 -0.45,2.148 -1.332,2.852 -0.899,0.699 -2.598,1.05 -5.118,1.05 -0.546,0.004 -1.062,0.02 -1.55,0.055 z m 9.883,-27.492 c 2.113,-0.067 3.648,-0.102 4.597,-0.102 6.77,-0.008 11.801,1.457 15.121,4.403 3.301,2.949 4.957,6.628 4.957,11.062 0.004,3.352 -1.011,5.969 -3.027,7.836 -2.016,1.867 -5.231,2.805 -9.664,2.809 -1.164,0 -2.664,-0.18 -4.481,-0.579 z m -9.645,-32.61 c 3.52,-0.468 6.266,-0.687 8.25,-0.687 5.082,-0.004 9.582,1.523 13.504,4.574 3.937,3.063 5.891,7.211 5.894,12.442 0.004,4 -1.195,7.132 -3.628,9.386 -2.415,2.254 -6.329,3.371 -11.727,3.375 -1.055,0.004 -2.32,-0.047 -3.82,-0.144 l -8.473,-28.946" /><path
         id="path22"
         style="fill:none;stroke:#231f20;stroke-width:7.5005002;stroke-linecap:butt;stroke-linejoin:miter;stroke-miterlimit:2.61310005;stroke-dasharray:none;stroke-opacity:1"
         d="M 92.5313,61.1914 H 795.762" /><path
         id="path24"
         style="fill:none;stroke:#231f20;stroke-width:7.5005002;stroke-linecap:butt;stroke-linejoin:miter;stroke-miterlimit:2.61310005;stroke-dasharray:none;stroke-opacity:1"
         d="M 155.066,347.215 H 735.629" /><path
         id="path26"
         style="fill:none;stroke:#231f20;stroke-width:7.5005002;stroke-linecap:butt;stroke-linejoin:miter;stroke-miterlimit:2.61310005;stroke-dasharray:none;stroke-opacity:1"
         d="M 152.262,347.215 91.375,60.6914" /><path
         id="path28"
         style="fill:none;stroke:#231f20;stroke-width:7.5005002;stroke-linecap:butt;stroke-linejoin:miter;stroke-miterlimit:2.61310005;stroke-dasharray:none;stroke-opacity:1"
         d="M 93.2266,63.7344 731.527,345.621" /><path
         id="path30"
         style="fill:none;stroke:#231f20;stroke-width:7.5005002;stroke-linecap:butt;stroke-linejoin:miter;stroke-miterlimit:2.61310005;stroke-dasharray:none;stroke-opacity:1"
         d="M 793.012,60.4453 731.461,350.012" /></g></g></svg>