<?xml version="1.0" encoding="UTF-8" standalone="no"?>
<svg
   xmlns:dc="http://purl.org/dc/elements/1.1/"
   xmlns:cc="http://creativecommons.org/ns#"
   xmlns:rdf="http://www.w3.org/1999/02/22-rdf-syntax-ns#"
   xmlns:svg="http://www.w3.org/2000/svg"
   xmlns="http://www.w3.org/2000/svg"
   viewBox="0 0 112 61.333332"
   height="61.333332"
   width="112"
   xml:space="preserve"
   id="svg2"
   version="1.1"><metadata
     id="metadata8"><rdf:RDF><cc:Work
         rdf:about=""><dc:format>image/svg+xml</dc:format><dc:type
           rdf:resource="http://purl.org/dc/dcmitype/StillImage" /></cc:Work></rdf:RDF></metadata><defs
     id="defs6" /><g
     transform="matrix(1.3333333,0,0,-1.3333333,0,61.333333)"
     id="g10"><g
       transform="scale(0.1)"
       id="g12"><path
         id="path14"
         style="fill:#231f20;fill-opacity:1;fill-rule:nonzero;stroke:none"
         d="m 676.977,459.336 -4.95,-21.43 -1.769,0.004 -0.176,5.383 c -0.168,1.949 -0.547,3.684 -1.129,5.215 -0.586,1.535 -1.469,2.855 -2.633,3.988 -1.164,1.113 -2.648,2 -4.445,2.637 -1.785,0.633 -3.77,0.953 -5.949,0.953 -5.836,0.008 -10.918,-1.59 -15.289,-4.77 -5.571,-4.062 -9.942,-9.808 -13.094,-17.222 -2.605,-6.117 -3.93,-12.313 -3.934,-18.598 -0.004,-6.418 1.875,-11.535 5.602,-15.371 3.75,-3.82 8.613,-5.742 14.598,-5.746 4.531,-0.004 8.566,1.012 12.086,3.023 3.535,2.016 6.82,5.114 9.859,9.309 h 2.281 c -3.57,-5.699 -7.555,-9.879 -11.91,-12.559 -4.367,-2.679 -9.605,-4.023 -15.687,-4.019 -5.399,0.004 -10.18,1.14 -14.344,3.41 -4.168,2.27 -7.348,5.437 -9.512,9.555 -2.18,4.105 -3.277,8.504 -3.273,13.238 0.007,7.219 1.961,14.25 5.832,21.082 3.871,6.828 9.195,12.207 15.945,16.102 6.769,3.894 13.574,5.839 20.457,5.832 3.215,0 6.832,-0.754 10.832,-2.289 1.75,-0.653 3.031,-0.985 3.797,-0.985 0.785,-0.004 1.469,0.16 2.07,0.481 0.582,0.332 1.551,1.265 2.918,2.781 l 1.817,-0.004" /><path
         id="path16"
         style="fill:#231f20;fill-opacity:1;fill-rule:nonzero;stroke:none"
         d="m 783.266,73.3828 0.586,1.8164 L 805,75.1836 c 8.953,-0.0078 15.582,-1.0469 19.883,-3.0977 4.316,-2.0546 7.762,-5.2929 10.324,-9.6914 2.563,-4.4179 3.859,-9.1523 3.856,-14.2031 -0.004,-4.3164 -0.754,-8.5351 -2.243,-12.6133 -1.488,-4.0859 -3.156,-7.3476 -5.039,-9.8125 -1.871,-2.4531 -4.738,-5.164 -8.625,-8.1289 -3.867,-2.9453 -8.07,-5.1445 -12.59,-6.5547 C 806.031,9.66797 800.383,8.97266 793.617,8.97656 L 765.586,9 l 0.633,1.7969 c 2.582,0.0664 4.301,0.2969 5.183,0.6797 1.301,0.5664 2.266,1.3164 2.887,2.25 0.934,1.3632 2,4.1132 3.172,8.2461 l 11.746,40.039 c 0.922,3.1485 1.371,5.6328 1.371,7.418 0,1.2656 -0.414,2.25 -1.262,2.9336 -0.851,0.6836 -2.5,1.0195 -4.98,1.0195 z m 17.332,-1.8633 -14.387,-49.5547 c -1.086,-3.6992 -1.625,-5.996 -1.625,-6.8828 0,-0.5156 0.168,-1.0156 0.519,-1.5156 0.329,-0.4844 0.797,-0.8008 1.383,-0.9687 0.848,-0.3008 2.215,-0.4493 4.098,-0.4532 5.117,-0.0039 9.867,0.5274 14.234,1.5899 4.383,1.0469 7.969,2.6133 10.77,4.6914 3.984,3.0312 7.156,7.1953 9.543,12.4922 2.371,5.3164 3.558,11.3476 3.562,18.1172 0.008,7.6445 -1.804,13.3476 -5.449,17.0664 -3.633,3.7382 -8.965,5.6093 -15.965,5.6132 -1.718,0.004 -3.949,-0.0625 -6.683,-0.1953" /><path
         id="path18"
         style="fill:#231f20;fill-opacity:1;fill-rule:nonzero;stroke:none"
         d="M 63.7422,90.8477 58.668,35.7852 c -0.2696,-2.5821 -0.3867,-4.2657 -0.3867,-5.0821 -0.004,-1.3008 0.2304,-2.3008 0.7304,-2.9843 0.6133,-0.9336 1.4492,-1.6329 2.5,-2.1016 1.0625,-0.4531 2.8477,-0.6875 5.3477,-0.6875 l -0.5352,-1.8008 -26.0664,0.0195 0.5352,1.8008 h 1.1172 c 2.1171,-0.0039 3.8515,0.4649 5.1836,1.3633 0.9335,0.6328 1.6679,1.6484 2.2031,3.082 0.3476,1.0157 0.7031,3.3789 1.0234,7.1289 l 0.7891,8.4024 -18.9492,0.0156 -6.7422,-9.1289 c -1.5352,-2.0508 -2.4883,-3.5312 -2.8867,-4.4141 -0.3829,-0.9023 -0.586,-1.7343 -0.586,-2.5156 0,-1.0508 0.4141,-1.9336 1.2656,-2.6875 0.8477,-0.7461 2.25,-1.164 4.1993,-1.2344 L 26.875,23.1602 7.28906,23.1758 7.82422,24.9766 c 2.41798,0.0976 4.53908,0.9101 6.38668,2.4101 1.836,1.5156 4.5704,4.7461 8.2266,9.6953 L 62.0273,90.8477 Z M 54.0664,74.6055 34.8438,48.5039 51.4922,48.4922 Z" /><path
         id="path20"
         style="fill:#231f20;fill-opacity:1;fill-rule:nonzero;stroke:none"
         d="m 189.73,456.043 0.684,1.816 23.637,-0.019 c 3.965,0 7.496,-0.621 10.613,-1.875 3.102,-1.235 5.43,-2.953 6.981,-5.168 1.546,-2.219 2.312,-4.57 2.308,-7.039 0,-3.817 -1.387,-7.246 -4.14,-10.328 -2.754,-3.067 -7.239,-5.344 -13.454,-6.789 4.016,-1.504 6.946,-3.489 8.844,-5.977 1.879,-2.465 2.828,-5.184 2.824,-8.148 0,-3.286 -0.851,-6.434 -2.554,-9.434 -1.684,-2.98 -3.871,-5.312 -6.524,-6.961 -2.648,-1.664 -5.851,-2.879 -9.601,-3.66 -2.668,-0.547 -6.836,-0.828 -12.5,-0.82 l -24.266,0.015 0.633,1.801 c 2.551,0.066 4.265,0.313 5.187,0.731 1.297,0.566 2.231,1.296 2.786,2.199 0.781,1.23 1.816,4.062 3.121,8.492 l 11.894,40.078 c 1.024,3.383 1.524,5.762 1.524,7.133 0,1.199 -0.446,2.148 -1.329,2.848 -0.898,0.703 -2.601,1.05 -5.117,1.054 -0.551,0 -1.066,0.016 -1.551,0.051 z m 9.879,-27.492 c 2.118,-0.067 3.649,-0.102 4.598,-0.102 6.77,-0.004 11.801,1.457 15.121,4.403 3.301,2.949 4.957,6.632 4.961,11.062 0.004,3.352 -1.012,5.969 -3.031,7.84 -2.012,1.867 -5.231,2.805 -9.664,2.809 -1.164,0 -2.664,-0.184 -4.481,-0.583 z m -9.64,-32.606 c 3.515,-0.472 6.265,-0.687 8.25,-0.691 5.082,-0.004 9.582,1.527 13.5,4.574 3.937,3.063 5.89,7.211 5.894,12.445 0.004,4 -1.195,7.133 -3.625,9.383 -2.418,2.254 -6.332,3.375 -11.73,3.379 -1.051,0 -2.32,-0.051 -3.817,-0.148 l -8.472,-28.942" /><path
         id="path22"
         style="fill:none;stroke:#231f20;stroke-width:7.5005002;stroke-linecap:butt;stroke-linejoin:miter;stroke-miterlimit:2.61310005;stroke-dasharray:none;stroke-opacity:1"
         d="M 77.8516,44.9063 752.473,46.418" /><path
         id="path24"
         style="fill:none;stroke:#231f20;stroke-width:7.5005002;stroke-linecap:butt;stroke-linejoin:miter;stroke-miterlimit:2.61310005;stroke-dasharray:none;stroke-opacity:1"
         d="M 248.473,409.109 79.25,46.0703" /><path
         id="path26"
         style="fill:none;stroke:#231f20;stroke-width:7.5005002;stroke-linecap:butt;stroke-linejoin:miter;stroke-miterlimit:2.61310005;stroke-dasharray:none;stroke-opacity:1"
         d="M 752.473,46.0703 583.25,409.109" /><path
         id="path28"
         style="fill:none;stroke:#231f20;stroke-width:7.5005002;stroke-linecap:butt;stroke-linejoin:miter;stroke-miterlimit:2.61310005;stroke-dasharray:none;stroke-opacity:1"
         d="m 245.137,407.078 342.566,1.512" /><path
         id="path30"
         style="fill:none;stroke:#231f20;stroke-width:7.5005002;stroke-linecap:butt;stroke-linejoin:miter;stroke-miterlimit:2.61310005;stroke-dasharray:none;stroke-opacity:1"
         d="M 752.473,46.0703 246.363,407.535" /></g></g></svg>