<?xml version="1.0" encoding="UTF-8" standalone="no"?>
<svg
   xmlns:dc="http://purl.org/dc/elements/1.1/"
   xmlns:cc="http://creativecommons.org/ns#"
   xmlns:rdf="http://www.w3.org/1999/02/22-rdf-syntax-ns#"
   xmlns:svg="http://www.w3.org/2000/svg"
   xmlns="http://www.w3.org/2000/svg"
   viewBox="0 0 113.33333 62.666668"
   height="62.666668"
   width="113.33333"
   xml:space="preserve"
   id="svg2"
   version="1.1"><metadata
     id="metadata8"><rdf:RDF><cc:Work
         rdf:about=""><dc:format>image/svg+xml</dc:format><dc:type
           rdf:resource="http://purl.org/dc/dcmitype/StillImage" /></cc:Work></rdf:RDF></metadata><defs
     id="defs6" /><g
     transform="matrix(1.3333333,0,0,-1.3333333,0,62.666667)"
     id="g10"><g
       transform="scale(0.1)"
       id="g12"><path
         id="path14"
         style="fill:#231f20;fill-opacity:1;fill-rule:nonzero;stroke:none"
         d="m 619.34,66.418 0.586,1.8164 21.148,-0.0156 c 8.953,-0.0079 15.582,-1.0469 19.883,-3.1016 4.316,-2.0508 7.762,-5.2891 10.324,-9.6914 2.563,-4.418 3.86,-9.1524 3.856,-14.1992 -0.004,-4.3164 -0.754,-8.5352 -2.242,-12.6172 -1.489,-4.0821 -3.157,-7.3477 -5.04,-9.8125 -1.871,-2.4492 -4.738,-5.1602 -8.625,-8.125 -3.867,-2.94534 -8.07,-5.14456 -12.589,-6.55862 -4.536,-1.41406 -10.184,-2.10937 -16.95,-2.10156 l -28.031,0.01953 0.633,1.80078 c 2.582,0.06641 4.301,0.29688 5.184,0.67969 1.3,0.56641 2.265,1.31641 2.886,2.24609 0.934,1.36719 2,4.11719 3.172,8.24609 l 11.746,40.043 c 0.922,3.1484 1.371,5.6328 1.371,7.4179 0,1.2618 -0.414,2.2461 -1.261,2.9297 -0.852,0.6836 -2.5,1.0196 -4.981,1.0235 z M 636.672,64.5547 622.285,15 c -1.086,-3.6992 -1.625,-5.99609 -1.625,-6.88281 0,-0.51563 0.168,-1.01563 0.52,-1.51563 0.328,-0.48437 0.797,-0.80078 1.383,-0.96875 0.847,-0.30078 2.214,-0.45312 4.097,-0.45312 5.117,-0.00391 9.867,0.52344 14.235,1.58984 4.382,1.04688 7.968,2.60938 10.769,4.69137 3.984,3.0313 7.156,7.1954 9.543,12.4922 2.371,5.3125 3.559,11.3438 3.563,18.1133 0.007,7.6484 -1.805,13.3516 -5.45,17.0703 -3.632,3.7344 -8.965,5.6055 -15.965,5.6133 -1.718,0 -3.949,-0.0664 -6.683,-0.1953" /><path
         id="path16"
         style="fill:#231f20;fill-opacity:1;fill-rule:nonzero;stroke:none"
         d="m 841.516,448.051 -4.95,-21.43 -1.769,0.004 -0.176,5.383 c -0.168,1.949 -0.547,3.683 -1.129,5.215 -0.586,1.535 -1.469,2.855 -2.633,3.988 -1.168,1.113 -2.648,2 -4.449,2.637 -1.781,0.632 -3.765,0.953 -5.949,0.953 -5.832,0.004 -10.914,-1.594 -15.285,-4.774 -5.571,-4.058 -9.942,-9.808 -13.098,-17.218 -2.601,-6.118 -3.926,-12.313 -3.93,-18.598 -0.003,-6.418 1.872,-11.535 5.602,-15.371 3.75,-3.82 8.613,-5.742 14.598,-5.746 4.531,-0.004 8.566,1.011 12.086,3.023 3.535,2.016 6.82,5.11 9.859,9.309 h 2.281 c -3.57,-5.699 -7.558,-9.879 -11.91,-12.559 -4.367,-2.679 -9.605,-4.023 -15.687,-4.019 -5.399,0.004 -10.18,1.14 -14.344,3.41 -4.168,2.269 -7.348,5.437 -9.512,9.555 -2.18,4.105 -3.277,8.503 -3.273,13.238 0.004,7.219 1.961,14.25 5.832,21.078 3.871,6.832 9.195,12.207 15.945,16.105 6.77,3.895 13.574,5.84 20.457,5.832 3.215,0 6.832,-0.753 10.828,-2.289 1.754,-0.652 3.035,-0.984 3.801,-0.988 0.785,0 1.469,0.164 2.066,0.481 0.586,0.335 1.555,1.269 2.922,2.781 h 1.817" /><path
         id="path18"
         style="fill:#231f20;fill-opacity:1;fill-rule:nonzero;stroke:none"
         d="m 455.223,332.855 c 4.402,-0.003 8.281,-0.957 11.664,-2.859 3.383,-1.906 6.047,-4.723 7.961,-8.457 1.914,-3.715 2.879,-7.586 2.875,-11.601 -0.008,-7.083 -2.078,-14.532 -6.203,-22.329 -4.122,-7.796 -9.508,-13.742 -16.145,-17.836 -6.656,-4.097 -13.523,-6.14 -20.621,-6.136 -5.102,0.004 -9.387,1.14 -12.816,3.41 -3.43,2.269 -5.961,5.254 -7.61,8.957 -1.629,3.719 -2.461,7.316 -2.457,10.801 0.004,6.183 1.508,12.3 4.481,18.328 2.988,6.031 6.558,11.078 10.695,15.125 4.137,4.047 8.539,7.16 13.238,9.344 4.688,2.175 9.668,3.257 14.938,3.253 z m -1.672,-3.117 c -3.246,0.004 -6.43,-0.797 -9.531,-2.41 -3.118,-1.613 -6.204,-4.242 -9.258,-7.91 -3.071,-3.645 -5.824,-8.445 -8.278,-14.359 -2.988,-7.297 -4.496,-14.18 -4.5,-20.661 -0.004,-4.621 1.176,-8.718 3.559,-12.285 2.363,-3.554 6.012,-5.34 10.926,-5.343 2.969,-0.004 5.871,0.726 8.719,2.191 2.855,1.449 5.82,3.965 8.925,7.512 3.867,4.445 7.125,10.144 9.778,17.058 2.636,6.914 3.961,13.364 3.964,19.348 0.004,4.43 -1.175,8.351 -3.554,11.75 -2.383,3.402 -5.946,5.105 -10.75,5.109" /><path
         id="path20"
         style="fill:#231f20;fill-opacity:1;fill-rule:nonzero;stroke:none"
         d="M 64.332,89.7266 59.2539,34.668 c -0.2656,-2.586 -0.3828,-4.2696 -0.3867,-5.086 0,-1.3007 0.2305,-2.3007 0.7344,-2.9843 0.6132,-0.9336 1.4453,-1.6329 2.4961,-2.1016 1.0664,-0.4531 2.8476,-0.6836 5.3515,-0.6875 l -0.5351,-1.8008 -26.0664,0.0235 0.5312,1.7968 h 1.1172 c 2.1172,0 3.8555,0.4649 5.1875,1.3633 0.9336,0.6328 1.668,1.6484 2.2031,3.082 0.3477,1.0157 0.6992,3.3789 1.0196,7.1289 l 0.789,8.4024 -18.9492,0.0156 -6.7422,-9.1289 c -1.5312,-2.0508 -2.4844,-3.5312 -2.8828,-4.4141 -0.3867,-0.9023 -0.5859,-1.7343 -0.5859,-2.5156 -0.0039,-1.0508 0.414,-1.9336 1.2617,-2.6875 0.8515,-0.7461 2.25,-1.164 4.2031,-1.2344 l -0.5352,-1.8007 -19.58589,0.0156 0.53515,1.8008 c 2.41794,0.0976 4.53514,0.9101 6.38674,2.414 1.832,1.5118 4.5703,4.7422 8.2226,9.6914 L 62.6133,89.7266 Z M 54.6523,73.4844 35.4336,47.3828 52.082,47.3711 Z" /><path
         id="path22"
         style="fill:#231f20;fill-opacity:1;fill-rule:nonzero;stroke:none"
         d="m 192.594,461.188 0.683,1.816 23.633,-0.02 c 3.969,0 7.5,-0.621 10.617,-1.875 3.098,-1.234 5.43,-2.953 6.981,-5.168 1.543,-2.218 2.312,-4.57 2.308,-7.039 -0.003,-3.816 -1.386,-7.246 -4.14,-10.328 -2.754,-3.066 -7.238,-5.344 -13.457,-6.789 4.015,-1.504 6.949,-3.492 8.847,-5.976 1.879,-2.465 2.829,-5.184 2.825,-8.153 -0.004,-3.281 -0.852,-6.429 -2.555,-9.429 -1.688,-2.981 -3.871,-5.313 -6.523,-6.961 -2.653,-1.664 -5.852,-2.879 -9.602,-3.661 -2.668,-0.546 -6.836,-0.828 -12.504,-0.824 l -24.262,0.02 0.633,1.801 c 2.551,0.066 4.266,0.312 5.184,0.73 1.301,0.566 2.234,1.297 2.785,2.195 0.785,1.235 1.816,4.067 3.121,8.496 l 11.898,40.075 c 1.02,3.386 1.52,5.765 1.524,7.136 0,1.2 -0.449,2.149 -1.332,2.848 -0.899,0.703 -2.598,1.051 -5.113,1.055 -0.551,0 -1.067,0.015 -1.551,0.051 z m 9.879,-27.493 c 2.113,-0.066 3.648,-0.101 4.597,-0.101 6.77,-0.008 11.801,1.457 15.121,4.402 3.301,2.949 4.957,6.629 4.961,11.063 0,3.351 -1.015,5.968 -3.031,7.839 -2.016,1.868 -5.23,2.805 -9.664,2.809 -1.164,0 -2.664,-0.184 -4.48,-0.582 z m -9.645,-32.605 c 3.52,-0.473 6.27,-0.692 8.254,-0.692 5.082,-0.003 9.582,1.528 13.5,4.575 3.938,3.062 5.891,7.211 5.895,12.445 0.003,4 -1.196,7.133 -3.625,9.383 -2.418,2.254 -6.332,3.375 -11.731,3.379 -1.055,0 -2.32,-0.051 -3.82,-0.149 l -8.473,-28.941" /><path
         id="path24"
         style="fill:none;stroke:#231f20;stroke-width:7.5005002;stroke-linecap:butt;stroke-linejoin:miter;stroke-miterlimit:2.61310005;stroke-dasharray:none;stroke-opacity:1"
         d="M 83.8516,54.9063 591.523,56.418" /><path
         id="path26"
         style="fill:none;stroke:#231f20;stroke-width:7.5005002;stroke-linecap:butt;stroke-linejoin:miter;stroke-miterlimit:2.61310005;stroke-dasharray:none;stroke-opacity:1"
         d="M 254.473,419.109 85.25,56.0703" /><path
         id="path28"
         style="fill:none;stroke:#231f20;stroke-width:7.5005002;stroke-linecap:butt;stroke-linejoin:miter;stroke-miterlimit:2.61310005;stroke-dasharray:none;stroke-opacity:1"
         d="M 758.473,419.109 589.25,56.0703" /><path
         id="path30"
         style="fill:none;stroke:#231f20;stroke-width:7.5005002;stroke-linecap:butt;stroke-linejoin:miter;stroke-miterlimit:2.61310005;stroke-dasharray:none;stroke-opacity:1"
         d="m 251.137,417.078 506.476,1.512" /><path
         id="path32"
         style="fill:none;stroke:#231f20;stroke-width:7.5005002;stroke-linecap:butt;stroke-linejoin:miter;stroke-miterlimit:2.61310005;stroke-dasharray:none;stroke-opacity:1"
         d="M 589.586,56.4063 252.367,417.535" /><path
         id="path34"
         style="fill:none;stroke:#231f20;stroke-width:7.5005002;stroke-linecap:butt;stroke-linejoin:miter;stroke-miterlimit:2.61310005;stroke-dasharray:none;stroke-opacity:1"
         d="M 758.473,419.109 86.4063,54.9102" /><path
         id="path36"
         style="fill:none;stroke:#231f20;stroke-width:7.5005002;stroke-linecap:butt;stroke-linejoin:miter;stroke-miterlimit:2.61310005;stroke-dasharray:none;stroke-opacity:1"
         d="M 422.617,59.043 421.34,237.199" /><path
         id="path38"
         style="fill:none;stroke:#231f20;stroke-width:5.00029993;stroke-linecap:butt;stroke-linejoin:miter;stroke-miterlimit:2.61310005;stroke-dasharray:none;stroke-opacity:1"
         d="m 422.617,55.457 h -53.219 v 53.215 h 53.219 z" /></g></g></svg>