<?xml version="1.0" encoding="UTF-8" standalone="no"?>
<svg
   xmlns:dc="http://purl.org/dc/elements/1.1/"
   xmlns:cc="http://creativecommons.org/ns#"
   xmlns:rdf="http://www.w3.org/1999/02/22-rdf-syntax-ns#"
   xmlns:svg="http://www.w3.org/2000/svg"
   xmlns="http://www.w3.org/2000/svg"
   viewBox="0 0 136 54.666668"
   height="54.666668"
   width="136"
   xml:space="preserve"
   id="svg2"
   version="1.1"><metadata
     id="metadata8"><rdf:RDF><cc:Work
         rdf:about=""><dc:format>image/svg+xml</dc:format><dc:type
           rdf:resource="http://purl.org/dc/dcmitype/StillImage" /></cc:Work></rdf:RDF></metadata><defs
     id="defs6" /><g
     transform="matrix(1.3333333,0,0,-1.3333333,0,54.666667)"
     id="g10"><g
       transform="scale(0.1)"
       id="g12"><path
         id="path14"
         style="fill:#231f20;fill-opacity:1;fill-rule:nonzero;stroke:none"
         d="m 1018.24,388.152 -4.95,-21.429 -1.77,0.004 -0.18,5.382 c -0.16,1.95 -0.54,3.68 -1.13,5.215 -0.58,1.535 -1.46,2.852 -2.63,3.989 -1.17,1.113 -2.65,2 -4.45,2.636 -1.78,0.633 -3.763,0.953 -5.946,0.953 -5.832,0.004 -10.918,-1.593 -15.286,-4.773 -5.57,-4.059 -9.941,-9.809 -13.097,-17.219 -2.602,-6.117 -3.926,-12.316 -3.93,-18.597 -0.008,-6.418 1.871,-11.54 5.602,-15.372 3.746,-3.824 8.613,-5.742 14.597,-5.746 4.532,-0.004 8.567,1.012 12.086,3.024 3.534,2.015 6.824,5.109 9.854,9.308 h 2.29 c -3.57,-5.699 -7.56,-9.879 -11.913,-12.558 -4.367,-2.68 -9.606,-4.028 -15.688,-4.02 -5.398,0.004 -10.179,1.141 -14.347,3.41 -4.164,2.27 -7.344,5.438 -9.508,9.555 -2.18,4.106 -3.278,8.504 -3.274,13.238 0.004,7.215 1.961,14.246 5.832,21.078 3.871,6.829 9.196,12.208 15.946,16.102 6.769,3.898 13.57,5.844 20.457,5.836 3.215,-0.004 6.835,-0.754 10.825,-2.289 1.76,-0.652 3.04,-0.988 3.8,-0.988 0.78,0 1.47,0.164 2.07,0.48 0.59,0.336 1.55,1.266 2.92,2.781 h 1.82" /><path
         id="path16"
         style="fill:#231f20;fill-opacity:1;fill-rule:nonzero;stroke:none"
         d="m 292.641,402.984 0.687,1.817 23.633,-0.02 c 3.965,-0.004 7.496,-0.625 10.613,-1.875 3.102,-1.238 5.434,-2.953 6.981,-5.172 1.547,-2.218 2.312,-4.566 2.312,-7.035 -0.004,-3.816 -1.39,-7.25 -4.14,-10.332 -2.754,-3.062 -7.239,-5.34 -13.457,-6.789 4.015,-1.5 6.949,-3.488 8.847,-5.973 1.879,-2.468 2.824,-5.183 2.824,-8.152 -0.003,-3.281 -0.851,-6.43 -2.554,-9.43 -1.688,-2.98 -3.871,-5.312 -6.524,-6.96 -2.652,-1.665 -5.851,-2.879 -9.605,-3.661 -2.668,-0.547 -6.832,-0.828 -12.5,-0.824 l -24.266,0.02 0.637,1.8 c 2.551,0.067 4.266,0.313 5.184,0.731 1.3,0.562 2.23,1.293 2.785,2.195 0.785,1.235 1.816,4.063 3.121,8.496 l 11.898,40.075 c 1.02,3.382 1.52,5.765 1.52,7.132 0.004,1.2 -0.446,2.149 -1.328,2.852 -0.899,0.699 -2.598,1.051 -5.118,1.051 -0.546,0 -1.062,0.019 -1.55,0.054 z m 9.882,-27.492 c 2.114,-0.066 3.649,-0.101 4.598,-0.105 6.77,-0.004 11.801,1.461 15.121,4.406 3.301,2.949 4.957,6.629 4.957,11.062 0.004,3.352 -1.011,5.969 -3.027,7.836 -2.016,1.868 -5.231,2.805 -9.664,2.809 -1.164,0 -2.664,-0.18 -4.481,-0.578 z m -9.644,-32.609 c 3.519,-0.469 6.266,-0.688 8.25,-0.688 5.082,-0.004 9.582,1.524 13.504,4.571 3.937,3.066 5.89,7.214 5.894,12.445 0.004,4 -1.195,7.133 -3.629,9.387 -2.414,2.254 -6.328,3.371 -11.726,3.375 -1.055,0.004 -2.32,-0.047 -3.82,-0.145 l -8.473,-28.945" /><path
         id="path18"
         style="fill:#231f20;fill-opacity:1;fill-rule:nonzero;stroke:none"
         d="M 64.6719,99 59.5977,43.9375 c -0.2696,-2.5859 -0.3868,-4.2695 -0.3868,-5.0859 0,-1.2969 0.2305,-2.2969 0.7305,-2.9805 0.6133,-0.9336 1.4492,-1.6367 2.5,-2.1055 1.0664,-0.4492 2.8477,-0.6836 5.3477,-0.6836 l -0.5352,-1.8007 -26.0664,0.0195 0.5352,1.8008 1.1171,-0.0039 c 2.1172,0 3.8516,0.4648 5.1836,1.3632 0.9336,0.6368 1.668,1.6485 2.2032,3.0821 0.3476,1.0195 0.7031,3.3828 1.0234,7.1328 l 0.7891,8.4023 -18.9493,0.0117 -6.7421,-9.125 c -1.5313,-2.0507 -2.4883,-3.5351 -2.8868,-4.414 -0.3828,-0.9024 -0.5859,-1.7344 -0.5859,-2.5195 0,-1.0508 0.4141,-1.9336 1.2656,-2.6836 0.8477,-0.75 2.25,-1.168 4.1992,-1.2383 L 27.8047,31.3125 8.22266,31.3281 8.75391,33.125 c 2.41799,0.0977 4.53909,0.9141 6.38669,2.4141 1.836,1.5156 4.5703,4.7461 8.2266,9.6953 L 62.957,99 Z M 54.9961,82.7539 35.7734,56.6563 52.4219,56.6406 Z" /><path
         id="path20"
         style="fill:none;stroke:#231f20;stroke-width:7.5005002;stroke-linecap:butt;stroke-linejoin:miter;stroke-miterlimit:2.61310005;stroke-dasharray:none;stroke-opacity:1"
         d="M 85.8555,64.9063 659.414,66.418" /><path
         id="path22"
         style="fill:#231f20;fill-opacity:1;fill-rule:nonzero;stroke:none"
         d="m 687.879,68.5195 0.586,1.8164 21.148,-0.0195 c 8.953,-0.0039 15.586,-1.043 19.883,-3.0976 4.317,-2.0508 7.762,-5.2891 10.324,-9.6915 2.567,-4.4179 3.86,-9.1523 3.856,-14.1992 -0.004,-4.3203 -0.754,-8.5351 -2.242,-12.6172 -1.489,-4.082 -3.157,-7.3476 -5.039,-9.8125 -1.872,-2.4492 -4.739,-5.164 -8.625,-8.1289 C 723.902,9.82422 719.699,7.625 715.184,6.21484 710.645,4.80078 704.996,4.10547 698.23,4.10938 l -28.031,0.02343 0.633,1.80078 c 2.582,0.06641 4.301,0.29688 5.184,0.67579 1.3,0.5664 2.265,1.3164 2.886,2.25 0.934,1.36722 2,4.11332 3.172,8.24612 l 11.746,40.0429 c 0.922,3.1485 1.371,5.6289 1.371,7.4141 0.004,1.2656 -0.414,2.25 -1.261,2.9336 -0.848,0.6836 -2.5,1.0195 -4.981,1.0195 z m 17.332,-1.8672 -14.387,-49.5546 c -1.086,-3.6954 -1.621,-5.9961 -1.625,-6.8789 0,-0.51567 0.168,-1.01958 0.52,-1.51958 0.332,-0.48438 0.797,-0.79688 1.383,-0.96484 0.847,-0.30079 2.214,-0.45313 4.097,-0.45313 5.117,-0.00391 9.867,0.52344 14.235,1.58984 4.386,1.04297 7.968,2.60941 10.773,4.69141 3.984,3.0273 7.152,7.1914 9.539,12.4883 2.371,5.3164 3.559,11.3476 3.567,18.1172 0.003,7.6484 -1.809,13.3476 -5.454,17.0664 -3.632,3.7383 -8.964,5.6094 -15.964,5.6172 -1.715,0 -3.95,-0.0664 -6.684,-0.1993" /><path
         id="path24"
         style="fill:none;stroke:#231f20;stroke-width:7.5005002;stroke-linecap:butt;stroke-linejoin:miter;stroke-miterlimit:2.61310005;stroke-dasharray:none;stroke-opacity:1"
         d="M 88.9336,64.918 752.172,348.055" /><path
         id="path26"
         style="fill:none;stroke:#231f20;stroke-width:7.5005002;stroke-linecap:butt;stroke-linejoin:miter;stroke-miterlimit:2.61310005;stroke-dasharray:none;stroke-opacity:1"
         d="M 87.2813,65.1406 359.559,348.273" /><path
         id="path28"
         style="fill:none;stroke:#231f20;stroke-width:7.5005002;stroke-linecap:butt;stroke-linejoin:miter;stroke-miterlimit:2.61310005;stroke-dasharray:none;stroke-opacity:1"
         d="M 929.668,348.496 356.109,346.988" /><path
         id="path30"
         style="fill:none;stroke:#231f20;stroke-width:7.5005002;stroke-linecap:butt;stroke-linejoin:miter;stroke-miterlimit:2.61310005;stroke-dasharray:none;stroke-opacity:1"
         d="M 928.246,348.262 655.961,65.1406" /></g></g></svg>