<?xml version="1.0" encoding="UTF-8" standalone="no"?>
<svg
   xmlns:dc="http://purl.org/dc/elements/1.1/"
   xmlns:cc="http://creativecommons.org/ns#"
   xmlns:rdf="http://www.w3.org/1999/02/22-rdf-syntax-ns#"
   xmlns:svg="http://www.w3.org/2000/svg"
   xmlns="http://www.w3.org/2000/svg"
   viewBox="0 0 100 50.666668"
   height="50.666668"
   width="100"
   xml:space="preserve"
   id="svg2"
   version="1.1"><metadata
     id="metadata8"><rdf:RDF><cc:Work
         rdf:about=""><dc:format>image/svg+xml</dc:format><dc:type
           rdf:resource="http://purl.org/dc/dcmitype/StillImage" /></cc:Work></rdf:RDF></metadata><defs
     id="defs6" /><g
     transform="matrix(1.3333333,0,0,-1.3333333,0,50.666667)"
     id="g10"><g
       transform="scale(0.1)"
       id="g12"><path
         id="path14"
         style="fill:#231f20;fill-opacity:1;fill-rule:nonzero;stroke:none"
         d="m 746.359,362.504 -4.949,-21.43 h -1.769 l -0.176,5.383 c -0.164,1.953 -0.547,3.684 -1.129,5.219 -0.582,1.531 -1.469,2.851 -2.633,3.988 -1.164,1.113 -2.648,2 -4.445,2.637 -1.785,0.633 -3.77,0.949 -5.949,0.953 -5.836,0.004 -10.918,-1.594 -15.289,-4.774 -5.571,-4.062 -9.942,-9.808 -13.094,-17.222 -2.606,-6.113 -3.93,-12.313 -3.934,-18.598 -0.004,-6.418 1.875,-11.535 5.606,-15.371 3.746,-3.82 8.609,-5.738 14.593,-5.742 4.536,-0.004 8.567,1.008 12.086,3.023 3.536,2.016 6.825,5.11 9.86,9.309 l 2.281,-0.004 c -3.57,-5.695 -7.555,-9.875 -11.91,-12.555 -4.367,-2.679 -9.602,-4.027 -15.688,-4.023 -5.398,0.004 -10.179,1.144 -14.343,3.41 -4.168,2.273 -7.348,5.441 -9.508,9.559 -2.184,4.101 -3.281,8.504 -3.278,13.238 0.008,7.215 1.961,14.246 5.832,21.078 3.875,6.828 9.196,12.207 15.95,16.102 6.765,3.894 13.57,5.839 20.453,5.836 3.215,-0.004 6.832,-0.754 10.832,-2.29 1.75,-0.656 3.035,-0.988 3.801,-0.988 0.781,0 1.464,0.164 2.066,0.481 0.582,0.332 1.551,1.265 2.918,2.781 h 1.816" /><path
         id="path16"
         style="fill:#231f20;fill-opacity:1;fill-rule:nonzero;stroke:none"
         d="m 97.8164,376.941 0.6836,1.817 23.637,-0.02 c 3.965,-0.004 7.496,-0.625 10.613,-1.875 3.102,-1.238 5.434,-2.953 6.98,-5.172 1.547,-2.218 2.313,-4.566 2.313,-7.035 -0.004,-3.816 -1.391,-7.25 -4.145,-10.332 -2.753,-3.062 -7.234,-5.34 -13.453,-6.789 4.016,-1.5 6.946,-3.488 8.844,-5.972 1.883,-2.469 2.828,-5.184 2.824,-8.153 0,-3.281 -0.851,-6.43 -2.554,-9.43 -1.684,-2.98 -3.871,-5.312 -6.52,-6.96 -2.652,-1.665 -5.855,-2.883 -9.605,-3.661 -2.668,-0.546 -6.836,-0.828 -12.5,-0.824 l -24.266,0.02 0.6328,1.8 c 2.5508,0.063 4.2656,0.313 5.1875,0.727 1.2969,0.566 2.2305,1.297 2.7851,2.199 0.7813,1.235 1.8164,4.063 3.1211,8.496 l 11.8945,40.075 c 1.024,3.382 1.524,5.765 1.524,7.132 0,1.2 -0.446,2.149 -1.329,2.852 -0.898,0.699 -2.601,1.051 -5.1168,1.051 -0.5508,0 -1.0664,0.019 -1.5508,0.054 z m 9.8786,-27.492 c 2.118,-0.066 3.649,-0.101 4.598,-0.105 6.77,-0.004 11.805,1.461 15.121,4.406 3.301,2.949 4.957,6.629 4.961,11.063 0.004,3.351 -1.012,5.968 -3.031,7.835 -2.012,1.868 -5.231,2.805 -9.664,2.809 -1.164,0 -2.664,-0.18 -4.481,-0.578 z M 98.0547,316.84 c 3.5153,-0.469 6.2653,-0.688 8.2503,-0.688 5.082,-0.004 9.582,1.524 13.5,4.571 3.937,3.066 5.89,7.215 5.894,12.445 0.004,4 -1.195,7.133 -3.625,9.387 -2.418,2.254 -6.332,3.371 -11.73,3.375 -1.051,0.004 -2.317,-0.047 -3.817,-0.145 L 98.0547,316.84" /><path
         id="path18"
         style="fill:#231f20;fill-opacity:1;fill-rule:nonzero;stroke:none"
         d="M 64.75,91.0859 59.6719,36.0234 c -0.2696,-2.582 -0.3867,-4.2656 -0.3867,-5.082 0,-1.3008 0.2304,-2.3008 0.7343,-2.9844 0.6133,-0.9336 1.4453,-1.6328 2.4961,-2.1015 1.0664,-0.4532 2.8477,-0.6875 5.3477,-0.6875 l -0.5313,-1.8008 -26.0703,0.0195 0.5352,1.8008 h 1.1172 c 2.1172,-0.0039 3.8515,0.4648 5.1875,1.3633 0.9297,0.6328 1.6679,1.6484 2.1992,3.082 0.3515,1.0156 0.7031,3.3789 1.0234,7.1289 l 0.7891,8.4024 -18.9492,0.0156 -6.7422,-9.1289 C 24.8906,34 23.9375,32.5195 23.5352,31.6367 c -0.3829,-0.9023 -0.5821,-1.7344 -0.586,-2.5156 0,-1.0547 0.418,-1.9336 1.2656,-2.6875 0.8516,-0.75 2.25,-1.1641 4.1993,-1.2344 l -0.5313,-1.8008 -19.58592,0.0157 0.53515,1.8007 c 2.41797,0.0977 4.53517,0.9102 6.38277,2.4102 1.836,1.5156 4.5704,4.7461 8.2266,9.6953 L 63.0313,91.0859 Z M 55.0703,74.8438 35.8477,48.7422 52.5,48.7305 Z" /><path
         id="path20"
         style="fill:none;stroke:#231f20;stroke-width:7.5005002;stroke-linecap:butt;stroke-linejoin:miter;stroke-miterlimit:2.61310005;stroke-dasharray:none;stroke-opacity:1"
         d="M 85.7383,44.9063 579.414,46.418" /><path
         id="path22"
         style="fill:#231f20;fill-opacity:1;fill-rule:nonzero;stroke:none"
         d="m 610.902,68.1602 0.586,1.8164 21.149,-0.0157 c 8.949,-0.0078 15.582,-1.0468 19.883,-3.1015 4.312,-2.0508 7.761,-5.2891 10.324,-9.6914 2.562,-4.418 3.859,-9.1524 3.855,-14.1992 -0.004,-4.3204 -0.758,-8.5352 -2.246,-12.6172 -1.484,-4.0821 -3.152,-7.3477 -5.039,-9.8125 -1.867,-2.4493 -4.734,-5.1641 -8.621,-8.1289 -3.871,-2.94536 -8.07,-5.14457 -12.59,-6.55473 C 633.668,4.44141 628.02,3.74609 621.25,3.75 l -28.031,0.02344 0.636,1.80078 c 2.583,0.06641 4.297,0.29687 5.184,0.67969 1.297,0.5625 2.266,1.3164 2.883,2.24609 0.933,1.36719 2.004,4.1133 3.176,8.2461 l 11.746,40.043 c 0.918,3.1484 1.371,5.6289 1.371,7.414 0,1.2657 -0.414,2.25 -1.262,2.9336 -0.851,0.6836 -2.5,1.0196 -4.984,1.0235 z M 628.234,66.293 613.848,16.7383 c -1.086,-3.6953 -1.625,-5.9961 -1.625,-6.87892 0,-0.51563 0.168,-1.01954 0.515,-1.51563 0.332,-0.48828 0.801,-0.80078 1.383,-0.96875 0.852,-0.30078 2.219,-0.45312 4.102,-0.45312 5.113,-0.00391 9.867,0.52343 14.23,1.58984 4.387,1.04297 7.973,2.60938 10.774,4.69138 3.984,3.0274 7.156,7.1953 9.543,12.4883 2.371,5.3164 3.558,11.3477 3.562,18.1172 0.008,7.6484 -1.805,13.3516 -5.453,17.0703 -3.629,3.7344 -8.961,5.6055 -15.961,5.6133 -1.719,0 -3.953,-0.0664 -6.684,-0.1992" /><path
         id="path24"
         style="fill:none;stroke:#231f20;stroke-width:7.5005002;stroke-linecap:butt;stroke-linejoin:miter;stroke-miterlimit:2.61310005;stroke-dasharray:none;stroke-opacity:1"
         d="M 363.559,326.75 576.738,45.3789" /><path
         id="path26"
         style="fill:none;stroke:#231f20;stroke-width:7.5005002;stroke-linecap:butt;stroke-linejoin:miter;stroke-miterlimit:2.61310005;stroke-dasharray:none;stroke-opacity:1"
         d="M 655.355,328.074 574.879,44.5859" /><path
         id="path28"
         style="fill:none;stroke:#231f20;stroke-width:7.5005002;stroke-linecap:butt;stroke-linejoin:miter;stroke-miterlimit:2.61310005;stroke-dasharray:none;stroke-opacity:1"
         d="M 655.359,327.758 161.68,326.246" /><path
         id="path30"
         style="fill:none;stroke:#231f20;stroke-width:7.5005002;stroke-linecap:butt;stroke-linejoin:miter;stroke-miterlimit:2.61310005;stroke-dasharray:none;stroke-opacity:1"
         d="M 85.7383,44.5859 166.219,328.074" /></g></g></svg>