<?xml version="1.0" encoding="UTF-8" standalone="no"?>
<svg
   xmlns:dc="http://purl.org/dc/elements/1.1/"
   xmlns:cc="http://creativecommons.org/ns#"
   xmlns:rdf="http://www.w3.org/1999/02/22-rdf-syntax-ns#"
   xmlns:svg="http://www.w3.org/2000/svg"
   xmlns="http://www.w3.org/2000/svg"
   viewBox="0 0 96 97.333336"
   height="97.333336"
   width="96"
   xml:space="preserve"
   id="svg2"
   version="1.1"><metadata
     id="metadata8"><rdf:RDF><cc:Work
         rdf:about=""><dc:format>image/svg+xml</dc:format><dc:type
           rdf:resource="http://purl.org/dc/dcmitype/StillImage" /></cc:Work></rdf:RDF></metadata><defs
     id="defs6"><clipPath
       id="clipPath160"
       clipPathUnits="userSpaceOnUse"><path
         style="clip-rule:evenodd"
         id="path158"
         d="m 362.691,371.035 c 3.082,0 5.582,-2.515 5.582,-5.613 0,-3.102 -2.5,-5.613 -5.582,-5.613 -3.082,0 -5.582,2.511 -5.582,5.613 0,3.098 2.5,5.613 5.582,5.613 z" /></clipPath></defs><g
     transform="matrix(1.3333333,0,0,-1.3333333,0,97.333333)"
     id="g10"><g
       transform="scale(0.1)"
       id="g12"><path
         id="path14"
         style="fill:#231f20;fill-opacity:1;fill-rule:nonzero;stroke:none"
         d="m 98.9883,425.258 -5.0742,-55.059 c -0.2696,-2.586 -0.3868,-4.269 -0.3868,-5.086 -0.0039,-1.297 0.2305,-2.3 0.7305,-2.984 0.6133,-0.934 1.4492,-1.633 2.5,-2.102 1.0625,-0.449 2.8477,-0.683 5.3472,-0.687 l -0.535,-1.801 -26.0661,0.024 0.5352,1.796 h 1.1172 c 2.1171,0 3.8515,0.465 5.1835,1.364 0.9336,0.632 1.668,1.648 2.2032,3.082 0.3476,1.015 0.7031,3.383 1.0234,7.133 l 0.7891,8.398 -18.9492,0.016 -6.7422,-9.129 c -1.5352,-2.051 -2.4883,-3.532 -2.8868,-4.414 -0.3828,-0.899 -0.5859,-1.735 -0.5859,-2.516 0,-1.051 0.4141,-1.934 1.2656,-2.684 0.8477,-0.75 2.25,-1.168 4.1993,-1.238 l -0.5352,-1.801 -19.582,0.016 0.5312,1.801 c 2.418,0.097 4.5391,0.91 6.3867,2.414 1.836,1.512 4.5703,4.742 8.2266,9.691 l 39.5898,53.77 z m -9.6758,-16.242 -19.2227,-26.102 16.6485,-0.012 z" /><path
         id="path16"
         style="fill:#231f20;fill-opacity:1;fill-rule:nonzero;stroke:none"
         d="m 569.121,618.91 0.684,1.817 23.633,-0.016 c 3.968,-0.004 7.5,-0.625 10.617,-1.879 3.097,-1.234 5.429,-2.953 6.98,-5.168 1.543,-2.219 2.313,-4.57 2.309,-7.039 -0.004,-3.816 -1.391,-7.246 -4.141,-10.328 -2.754,-3.067 -7.238,-5.344 -13.457,-6.789 4.016,-1.504 6.949,-3.488 8.848,-5.973 1.879,-2.469 2.828,-5.187 2.824,-8.152 -0.004,-3.285 -0.852,-6.434 -2.555,-9.434 -1.687,-2.98 -3.871,-5.312 -6.523,-6.957 -2.652,-1.668 -5.852,-2.883 -9.602,-3.664 -2.668,-0.547 -6.836,-0.828 -12.504,-0.82 l -24.261,0.015 0.632,1.801 c 2.551,0.067 4.266,0.317 5.184,0.731 1.301,0.566 2.234,1.297 2.785,2.199 0.785,1.23 1.817,4.062 3.121,8.492 l 11.899,40.078 c 1.019,3.383 1.519,5.762 1.523,7.133 0,1.199 -0.449,2.148 -1.332,2.848 -0.898,0.703 -2.597,1.05 -5.113,1.054 -0.551,0 -1.067,0.016 -1.551,0.051 z M 579,591.418 c 2.113,-0.066 3.648,-0.102 4.598,-0.102 6.769,-0.003 11.8,1.461 15.121,4.407 3.301,2.945 4.957,6.629 4.961,11.062 0,3.348 -1.016,5.965 -3.032,7.836 -2.015,1.867 -5.23,2.805 -9.664,2.809 -1.164,0 -2.664,-0.184 -4.48,-0.582 z m -9.645,-32.605 c 3.52,-0.473 6.266,-0.688 8.25,-0.692 5.086,-0.004 9.583,1.527 13.504,4.574 3.938,3.063 5.891,7.211 5.895,12.446 0.004,4 -1.195,7.132 -3.629,9.386 -2.414,2.25 -6.328,3.371 -11.727,3.375 -1.054,0 -2.32,-0.05 -3.82,-0.148 l -8.473,-28.941" /><path
         id="path18"
         style="fill:#231f20;fill-opacity:1;fill-rule:nonzero;stroke:none"
         d="m 691.813,410.117 -4.95,-21.429 h -1.769 l -0.176,5.382 c -0.164,1.953 -0.547,3.684 -1.129,5.219 -0.582,1.535 -1.469,2.852 -2.633,3.988 -1.164,1.114 -2.648,2 -4.445,2.637 -1.785,0.633 -3.766,0.949 -5.949,0.953 -5.836,0.004 -10.918,-1.594 -15.289,-4.773 -5.571,-4.059 -9.942,-9.809 -13.094,-17.223 -2.606,-6.113 -3.93,-12.312 -3.934,-18.598 -0.004,-6.418 1.875,-11.535 5.606,-15.371 3.746,-3.82 8.609,-5.738 14.594,-5.742 4.535,-0.004 8.566,1.008 12.085,3.024 3.536,2.015 6.825,5.109 9.86,9.308 l 2.281,-0.004 c -3.57,-5.695 -7.555,-9.875 -11.91,-12.554 -4.367,-2.68 -9.602,-4.028 -15.688,-4.024 -5.398,0.008 -10.179,1.145 -14.343,3.41 -4.164,2.274 -7.348,5.442 -9.508,9.559 -2.184,4.101 -3.281,8.504 -3.277,13.238 0.007,7.215 1.96,14.246 5.835,21.078 3.872,6.828 9.192,12.207 15.946,16.102 6.769,3.894 13.57,5.84 20.453,5.836 3.215,-0.004 6.832,-0.754 10.832,-2.289 1.75,-0.656 3.035,-0.989 3.801,-0.989 0.781,0 1.465,0.165 2.066,0.481 0.582,0.336 1.551,1.266 2.918,2.781 h 1.817" /><path
         id="path20"
         style="fill:#231f20;fill-opacity:1;fill-rule:nonzero;stroke:none"
         d="m 409.145,439.438 c 4.398,-0.004 8.281,-0.958 11.664,-2.86 3.382,-1.902 6.043,-4.723 7.961,-8.457 1.914,-3.715 2.875,-7.586 2.875,-11.601 -0.008,-7.082 -2.079,-14.532 -6.204,-22.329 -4.121,-7.796 -9.511,-13.742 -16.144,-17.836 -6.656,-4.097 -13.524,-6.14 -20.621,-6.136 -5.102,0.004 -9.387,1.14 -12.817,3.41 -3.429,2.269 -5.964,5.254 -7.609,8.957 -1.629,3.719 -2.461,7.32 -2.457,10.801 0.004,6.183 1.508,12.301 4.48,18.328 2.985,6.035 6.559,11.078 10.696,15.125 4.136,4.051 8.539,7.16 13.238,9.344 4.684,2.179 9.668,3.257 14.938,3.254 z m -1.672,-3.114 c -3.246,0 -6.43,-0.797 -9.535,-2.414 -3.114,-1.613 -6.2,-4.242 -9.254,-7.906 -3.071,-3.649 -5.825,-8.445 -8.278,-14.359 -2.988,-7.297 -4.496,-14.184 -4.5,-20.665 -0.004,-4.617 1.176,-8.718 3.555,-12.285 2.367,-3.554 6.016,-5.34 10.93,-5.343 2.968,-0.004 5.867,0.73 8.718,2.191 2.852,1.449 5.821,3.965 8.922,7.512 3.871,4.445 7.129,10.144 9.782,17.058 2.636,6.914 3.96,13.364 3.964,19.348 0.004,4.434 -1.175,8.352 -3.554,11.75 -2.383,3.406 -5.95,5.109 -10.75,5.113" /><path
         id="path22"
         style="fill:none;stroke:#231f20;stroke-width:2.16000009;stroke-linecap:butt;stroke-linejoin:miter;stroke-miterlimit:2.61310005;stroke-dasharray:none;stroke-opacity:1"
         d="M 5.06641,723.438 H 94.2617 V 634.023 H 5.06641 Z" /><path
         id="path24"
         style="fill:none;stroke:#231f20;stroke-width:2.16000009;stroke-linecap:butt;stroke-linejoin:miter;stroke-miterlimit:2.61310005;stroke-dasharray:none;stroke-opacity:1"
         d="M 5.06641,634.023 H 94.2617 V 544.605 H 5.06641 Z" /><path
         id="path26"
         style="fill:none;stroke:#231f20;stroke-width:2.16000009;stroke-linecap:butt;stroke-linejoin:miter;stroke-miterlimit:2.61310005;stroke-dasharray:none;stroke-opacity:1"
         d="M 5.06641,544.605 H 94.2617 V 455.188 H 5.06641 Z" /><path
         id="path28"
         style="fill:none;stroke:#231f20;stroke-width:2.16000009;stroke-linecap:butt;stroke-linejoin:miter;stroke-miterlimit:2.61310005;stroke-dasharray:none;stroke-opacity:1"
         d="M 5.06641,455.188 H 94.2617 V 365.773 H 5.06641 Z" /><path
         id="path30"
         style="fill:none;stroke:#231f20;stroke-width:2.16000009;stroke-linecap:butt;stroke-linejoin:miter;stroke-miterlimit:2.61310005;stroke-dasharray:none;stroke-opacity:1"
         d="M 5.06641,365.773 H 94.2617 V 276.355 H 5.06641 Z" /><path
         id="path32"
         style="fill:none;stroke:#231f20;stroke-width:2.16000009;stroke-linecap:butt;stroke-linejoin:miter;stroke-miterlimit:2.61310005;stroke-dasharray:none;stroke-opacity:1"
         d="M 5.06641,276.355 H 94.2617 V 186.938 H 5.06641 Z" /><path
         id="path34"
         style="fill:none;stroke:#231f20;stroke-width:2.16000009;stroke-linecap:butt;stroke-linejoin:miter;stroke-miterlimit:2.61310005;stroke-dasharray:none;stroke-opacity:1"
         d="M 5.06641,186.938 H 94.2617 V 97.5195 H 5.06641 Z" /><path
         id="path36"
         style="fill:none;stroke:#231f20;stroke-width:2.16000009;stroke-linecap:butt;stroke-linejoin:miter;stroke-miterlimit:2.61310005;stroke-dasharray:none;stroke-opacity:1"
         d="M 5.06641,97.5195 H 94.2617 V 8.10547 H 5.06641 Z" /><path
         id="path38"
         style="fill:none;stroke:#231f20;stroke-width:2.16000009;stroke-linecap:butt;stroke-linejoin:miter;stroke-miterlimit:2.61310005;stroke-dasharray:none;stroke-opacity:1"
         d="M 94.2617,723.438 H 183.449 V 634.023 H 94.2617 Z" /><path
         id="path40"
         style="fill:none;stroke:#231f20;stroke-width:2.16000009;stroke-linecap:butt;stroke-linejoin:miter;stroke-miterlimit:2.61310005;stroke-dasharray:none;stroke-opacity:1"
         d="M 94.2617,634.023 H 183.449 V 544.605 H 94.2617 Z" /><path
         id="path42"
         style="fill:none;stroke:#231f20;stroke-width:2.16000009;stroke-linecap:butt;stroke-linejoin:miter;stroke-miterlimit:2.61310005;stroke-dasharray:none;stroke-opacity:1"
         d="M 94.2617,544.605 H 183.449 V 455.188 H 94.2617 Z" /><path
         id="path44"
         style="fill:none;stroke:#231f20;stroke-width:2.16000009;stroke-linecap:butt;stroke-linejoin:miter;stroke-miterlimit:2.61310005;stroke-dasharray:none;stroke-opacity:1"
         d="M 94.2617,455.188 H 183.449 V 365.773 H 94.2617 Z" /><path
         id="path46"
         style="fill:none;stroke:#231f20;stroke-width:2.16000009;stroke-linecap:butt;stroke-linejoin:miter;stroke-miterlimit:2.61310005;stroke-dasharray:none;stroke-opacity:1"
         d="M 94.2617,365.773 H 183.449 V 276.355 H 94.2617 Z" /><path
         id="path48"
         style="fill:none;stroke:#231f20;stroke-width:2.16000009;stroke-linecap:butt;stroke-linejoin:miter;stroke-miterlimit:2.61310005;stroke-dasharray:none;stroke-opacity:1"
         d="M 94.2617,276.355 H 183.449 V 186.938 H 94.2617 Z" /><path
         id="path50"
         style="fill:none;stroke:#231f20;stroke-width:2.16000009;stroke-linecap:butt;stroke-linejoin:miter;stroke-miterlimit:2.61310005;stroke-dasharray:none;stroke-opacity:1"
         d="M 94.2617,186.938 H 183.449 V 97.5195 H 94.2617 Z" /><path
         id="path52"
         style="fill:none;stroke:#231f20;stroke-width:2.16000009;stroke-linecap:butt;stroke-linejoin:miter;stroke-miterlimit:2.61310005;stroke-dasharray:none;stroke-opacity:1"
         d="M 94.2617,97.5195 H 183.449 V 8.10547 H 94.2617 Z" /><path
         id="path54"
         style="fill:none;stroke:#231f20;stroke-width:2.16000009;stroke-linecap:butt;stroke-linejoin:miter;stroke-miterlimit:2.61310005;stroke-dasharray:none;stroke-opacity:1"
         d="m 183.449,723.438 h 89.192 v -89.415 h -89.192 z" /><path
         id="path56"
         style="fill:none;stroke:#231f20;stroke-width:2.16000009;stroke-linecap:butt;stroke-linejoin:miter;stroke-miterlimit:2.61310005;stroke-dasharray:none;stroke-opacity:1"
         d="m 183.449,634.023 h 89.192 v -89.418 h -89.192 z" /><path
         id="path58"
         style="fill:none;stroke:#231f20;stroke-width:2.16000009;stroke-linecap:butt;stroke-linejoin:miter;stroke-miterlimit:2.61310005;stroke-dasharray:none;stroke-opacity:1"
         d="m 183.449,544.605 h 89.192 v -89.417 h -89.192 z" /><path
         id="path60"
         style="fill:none;stroke:#231f20;stroke-width:2.16000009;stroke-linecap:butt;stroke-linejoin:miter;stroke-miterlimit:2.61310005;stroke-dasharray:none;stroke-opacity:1"
         d="m 183.449,455.188 h 89.192 v -89.415 h -89.192 z" /><path
         id="path62"
         style="fill:none;stroke:#231f20;stroke-width:2.16000009;stroke-linecap:butt;stroke-linejoin:miter;stroke-miterlimit:2.61310005;stroke-dasharray:none;stroke-opacity:1"
         d="m 183.449,365.773 h 89.192 v -89.418 h -89.192 z" /><path
         id="path64"
         style="fill:none;stroke:#231f20;stroke-width:2.16000009;stroke-linecap:butt;stroke-linejoin:miter;stroke-miterlimit:2.61310005;stroke-dasharray:none;stroke-opacity:1"
         d="m 183.449,276.355 h 89.192 v -89.417 h -89.192 z" /><path
         id="path66"
         style="fill:none;stroke:#231f20;stroke-width:2.16000009;stroke-linecap:butt;stroke-linejoin:miter;stroke-miterlimit:2.61310005;stroke-dasharray:none;stroke-opacity:1"
         d="m 183.449,186.938 h 89.192 V 97.5195 h -89.192 z" /><path
         id="path68"
         style="fill:none;stroke:#231f20;stroke-width:2.16000009;stroke-linecap:butt;stroke-linejoin:miter;stroke-miterlimit:2.61310005;stroke-dasharray:none;stroke-opacity:1"
         d="m 183.449,97.5195 h 89.192 V 8.10547 h -89.192 z" /><path
         id="path70"
         style="fill:none;stroke:#231f20;stroke-width:2.16000009;stroke-linecap:butt;stroke-linejoin:miter;stroke-miterlimit:2.61310005;stroke-dasharray:none;stroke-opacity:1"
         d="m 272.641,723.438 h 89.191 v -89.415 h -89.191 z" /><path
         id="path72"
         style="fill:none;stroke:#231f20;stroke-width:2.16000009;stroke-linecap:butt;stroke-linejoin:miter;stroke-miterlimit:2.61310005;stroke-dasharray:none;stroke-opacity:1"
         d="m 272.641,634.023 h 89.191 v -89.418 h -89.191 z" /><path
         id="path74"
         style="fill:none;stroke:#231f20;stroke-width:2.16000009;stroke-linecap:butt;stroke-linejoin:miter;stroke-miterlimit:2.61310005;stroke-dasharray:none;stroke-opacity:1"
         d="m 272.641,544.605 h 89.191 v -89.417 h -89.191 z" /><path
         id="path76"
         style="fill:none;stroke:#231f20;stroke-width:2.16000009;stroke-linecap:butt;stroke-linejoin:miter;stroke-miterlimit:2.61310005;stroke-dasharray:none;stroke-opacity:1"
         d="m 272.641,455.188 h 89.191 v -89.415 h -89.191 z" /><path
         id="path78"
         style="fill:none;stroke:#231f20;stroke-width:2.16000009;stroke-linecap:butt;stroke-linejoin:miter;stroke-miterlimit:2.61310005;stroke-dasharray:none;stroke-opacity:1"
         d="m 272.641,365.773 h 89.191 v -89.418 h -89.191 z" /><path
         id="path80"
         style="fill:none;stroke:#231f20;stroke-width:2.16000009;stroke-linecap:butt;stroke-linejoin:miter;stroke-miterlimit:2.61310005;stroke-dasharray:none;stroke-opacity:1"
         d="m 272.641,276.355 h 89.191 v -89.417 h -89.191 z" /><path
         id="path82"
         style="fill:none;stroke:#231f20;stroke-width:2.16000009;stroke-linecap:butt;stroke-linejoin:miter;stroke-miterlimit:2.61310005;stroke-dasharray:none;stroke-opacity:1"
         d="m 272.641,186.938 h 89.191 V 97.5195 h -89.191 z" /><path
         id="path84"
         style="fill:none;stroke:#231f20;stroke-width:2.16000009;stroke-linecap:butt;stroke-linejoin:miter;stroke-miterlimit:2.61310005;stroke-dasharray:none;stroke-opacity:1"
         d="m 272.641,97.5195 h 89.191 V 8.10547 h -89.191 z" /><path
         id="path86"
         style="fill:none;stroke:#231f20;stroke-width:2.16000009;stroke-linecap:butt;stroke-linejoin:miter;stroke-miterlimit:2.61310005;stroke-dasharray:none;stroke-opacity:1"
         d="m 361.832,723.438 h 89.191 v -89.415 h -89.191 z" /><path
         id="path88"
         style="fill:none;stroke:#231f20;stroke-width:2.16000009;stroke-linecap:butt;stroke-linejoin:miter;stroke-miterlimit:2.61310005;stroke-dasharray:none;stroke-opacity:1"
         d="m 361.832,634.023 h 89.191 v -89.418 h -89.191 z" /><path
         id="path90"
         style="fill:none;stroke:#231f20;stroke-width:2.16000009;stroke-linecap:butt;stroke-linejoin:miter;stroke-miterlimit:2.61310005;stroke-dasharray:none;stroke-opacity:1"
         d="m 361.832,544.605 h 89.191 v -89.417 h -89.191 z" /><path
         id="path92"
         style="fill:none;stroke:#231f20;stroke-width:2.16000009;stroke-linecap:butt;stroke-linejoin:miter;stroke-miterlimit:2.61310005;stroke-dasharray:none;stroke-opacity:1"
         d="m 361.832,455.188 h 89.191 v -89.415 h -89.191 z" /><path
         id="path94"
         style="fill:none;stroke:#231f20;stroke-width:2.16000009;stroke-linecap:butt;stroke-linejoin:miter;stroke-miterlimit:2.61310005;stroke-dasharray:none;stroke-opacity:1"
         d="m 361.832,365.773 h 89.191 v -89.418 h -89.191 z" /><path
         id="path96"
         style="fill:none;stroke:#231f20;stroke-width:2.16000009;stroke-linecap:butt;stroke-linejoin:miter;stroke-miterlimit:2.61310005;stroke-dasharray:none;stroke-opacity:1"
         d="m 361.832,276.355 h 89.191 v -89.417 h -89.191 z" /><path
         id="path98"
         style="fill:none;stroke:#231f20;stroke-width:2.16000009;stroke-linecap:butt;stroke-linejoin:miter;stroke-miterlimit:2.61310005;stroke-dasharray:none;stroke-opacity:1"
         d="m 361.832,186.938 h 89.191 V 97.5195 h -89.191 z" /><path
         id="path100"
         style="fill:none;stroke:#231f20;stroke-width:2.16000009;stroke-linecap:butt;stroke-linejoin:miter;stroke-miterlimit:2.61310005;stroke-dasharray:none;stroke-opacity:1"
         d="m 361.832,97.5195 h 89.191 V 8.10547 h -89.191 z" /><path
         id="path102"
         style="fill:none;stroke:#231f20;stroke-width:2.16000009;stroke-linecap:butt;stroke-linejoin:miter;stroke-miterlimit:2.61310005;stroke-dasharray:none;stroke-opacity:1"
         d="m 451.023,723.438 h 89.192 v -89.415 h -89.192 z" /><path
         id="path104"
         style="fill:none;stroke:#231f20;stroke-width:2.16000009;stroke-linecap:butt;stroke-linejoin:miter;stroke-miterlimit:2.61310005;stroke-dasharray:none;stroke-opacity:1"
         d="m 451.023,634.023 h 89.192 v -89.418 h -89.192 z" /><path
         id="path106"
         style="fill:none;stroke:#231f20;stroke-width:2.16000009;stroke-linecap:butt;stroke-linejoin:miter;stroke-miterlimit:2.61310005;stroke-dasharray:none;stroke-opacity:1"
         d="m 451.023,544.605 h 89.192 v -89.417 h -89.192 z" /><path
         id="path108"
         style="fill:none;stroke:#231f20;stroke-width:2.16000009;stroke-linecap:butt;stroke-linejoin:miter;stroke-miterlimit:2.61310005;stroke-dasharray:none;stroke-opacity:1"
         d="m 451.023,455.188 h 89.192 v -89.415 h -89.192 z" /><path
         id="path110"
         style="fill:none;stroke:#231f20;stroke-width:2.16000009;stroke-linecap:butt;stroke-linejoin:miter;stroke-miterlimit:2.61310005;stroke-dasharray:none;stroke-opacity:1"
         d="m 451.023,365.773 h 89.192 v -89.418 h -89.192 z" /><path
         id="path112"
         style="fill:none;stroke:#231f20;stroke-width:2.16000009;stroke-linecap:butt;stroke-linejoin:miter;stroke-miterlimit:2.61310005;stroke-dasharray:none;stroke-opacity:1"
         d="m 451.023,276.355 h 89.192 v -89.417 h -89.192 z" /><path
         id="path114"
         style="fill:none;stroke:#231f20;stroke-width:2.16000009;stroke-linecap:butt;stroke-linejoin:miter;stroke-miterlimit:2.61310005;stroke-dasharray:none;stroke-opacity:1"
         d="m 451.023,186.938 h 89.192 V 97.5195 h -89.192 z" /><path
         id="path116"
         style="fill:none;stroke:#231f20;stroke-width:2.16000009;stroke-linecap:butt;stroke-linejoin:miter;stroke-miterlimit:2.61310005;stroke-dasharray:none;stroke-opacity:1"
         d="m 451.023,97.5195 h 89.192 V 8.10547 h -89.192 z" /><path
         id="path118"
         style="fill:none;stroke:#231f20;stroke-width:2.16000009;stroke-linecap:butt;stroke-linejoin:miter;stroke-miterlimit:2.61310005;stroke-dasharray:none;stroke-opacity:1"
         d="m 540.215,723.438 h 89.187 v -89.415 h -89.187 z" /><path
         id="path120"
         style="fill:none;stroke:#231f20;stroke-width:2.16000009;stroke-linecap:butt;stroke-linejoin:miter;stroke-miterlimit:2.61310005;stroke-dasharray:none;stroke-opacity:1"
         d="m 540.215,634.023 h 89.187 v -89.418 h -89.187 z" /><path
         id="path122"
         style="fill:none;stroke:#231f20;stroke-width:2.16000009;stroke-linecap:butt;stroke-linejoin:miter;stroke-miterlimit:2.61310005;stroke-dasharray:none;stroke-opacity:1"
         d="m 540.215,544.605 h 89.187 v -89.417 h -89.187 z" /><path
         id="path124"
         style="fill:none;stroke:#231f20;stroke-width:2.16000009;stroke-linecap:butt;stroke-linejoin:miter;stroke-miterlimit:2.61310005;stroke-dasharray:none;stroke-opacity:1"
         d="m 540.215,455.188 h 89.187 v -89.415 h -89.187 z" /><path
         id="path126"
         style="fill:none;stroke:#231f20;stroke-width:2.16000009;stroke-linecap:butt;stroke-linejoin:miter;stroke-miterlimit:2.61310005;stroke-dasharray:none;stroke-opacity:1"
         d="m 540.215,365.773 h 89.187 v -89.418 h -89.187 z" /><path
         id="path128"
         style="fill:none;stroke:#231f20;stroke-width:2.16000009;stroke-linecap:butt;stroke-linejoin:miter;stroke-miterlimit:2.61310005;stroke-dasharray:none;stroke-opacity:1"
         d="m 540.215,276.355 h 89.187 v -89.417 h -89.187 z" /><path
         id="path130"
         style="fill:none;stroke:#231f20;stroke-width:2.16000009;stroke-linecap:butt;stroke-linejoin:miter;stroke-miterlimit:2.61310005;stroke-dasharray:none;stroke-opacity:1"
         d="m 540.215,186.938 h 89.187 V 97.5195 h -89.187 z" /><path
         id="path132"
         style="fill:none;stroke:#231f20;stroke-width:2.16000009;stroke-linecap:butt;stroke-linejoin:miter;stroke-miterlimit:2.61310005;stroke-dasharray:none;stroke-opacity:1"
         d="m 540.215,97.5195 h 89.187 V 8.10547 h -89.187 z" /><path
         id="path134"
         style="fill:none;stroke:#231f20;stroke-width:2.16000009;stroke-linecap:butt;stroke-linejoin:miter;stroke-miterlimit:2.61310005;stroke-dasharray:none;stroke-opacity:1"
         d="m 629.402,723.438 h 89.196 v -89.415 h -89.196 z" /><path
         id="path136"
         style="fill:none;stroke:#231f20;stroke-width:2.16000009;stroke-linecap:butt;stroke-linejoin:miter;stroke-miterlimit:2.61310005;stroke-dasharray:none;stroke-opacity:1"
         d="m 629.402,634.023 h 89.196 v -89.418 h -89.196 z" /><path
         id="path138"
         style="fill:none;stroke:#231f20;stroke-width:2.16000009;stroke-linecap:butt;stroke-linejoin:miter;stroke-miterlimit:2.61310005;stroke-dasharray:none;stroke-opacity:1"
         d="m 629.402,544.605 h 89.196 v -89.417 h -89.196 z" /><path
         id="path140"
         style="fill:none;stroke:#231f20;stroke-width:2.16000009;stroke-linecap:butt;stroke-linejoin:miter;stroke-miterlimit:2.61310005;stroke-dasharray:none;stroke-opacity:1"
         d="m 629.402,455.188 h 89.196 v -89.415 h -89.196 z" /><path
         id="path142"
         style="fill:none;stroke:#231f20;stroke-width:2.16000009;stroke-linecap:butt;stroke-linejoin:miter;stroke-miterlimit:2.61310005;stroke-dasharray:none;stroke-opacity:1"
         d="m 629.402,365.773 h 89.196 v -89.418 h -89.196 z" /><path
         id="path144"
         style="fill:none;stroke:#231f20;stroke-width:2.16000009;stroke-linecap:butt;stroke-linejoin:miter;stroke-miterlimit:2.61310005;stroke-dasharray:none;stroke-opacity:1"
         d="m 629.402,276.355 h 89.196 v -89.417 h -89.196 z" /><path
         id="path146"
         style="fill:none;stroke:#231f20;stroke-width:2.16000009;stroke-linecap:butt;stroke-linejoin:miter;stroke-miterlimit:2.61310005;stroke-dasharray:none;stroke-opacity:1"
         d="m 629.402,186.938 h 89.196 V 97.5195 h -89.196 z" /><path
         id="path148"
         style="fill:none;stroke:#231f20;stroke-width:2.16000009;stroke-linecap:butt;stroke-linejoin:miter;stroke-miterlimit:2.61310005;stroke-dasharray:none;stroke-opacity:1"
         d="m 629.402,97.5195 h 89.196 V 8.10547 h -89.196 z" /><path
         id="path150"
         style="fill:none;stroke:#231f20;stroke-width:7.5005002;stroke-linecap:butt;stroke-linejoin:miter;stroke-miterlimit:2.61310005;stroke-dasharray:none;stroke-opacity:1"
         d="m 362.984,617.574 c 138.266,0 250.395,-112.785 250.395,-251.859 0,-139.078 -112.129,-251.86 -250.395,-251.86 -138.269,0 -250.394,112.782 -250.394,251.86 0,139.074 112.125,251.859 250.394,251.859 z" /><path
         id="path152"
         style="fill:none;stroke:#231f20;stroke-width:7.5005002;stroke-linecap:butt;stroke-linejoin:miter;stroke-miterlimit:2.61310005;stroke-dasharray:none;stroke-opacity:1"
         d="M 112.191,366.453 539.988,543.258 613.063,366.453" /><g
         id="g154"><g
           clip-path="url(#clipPath160)"
           id="g156"><path
             id="path162"
             style="fill:#231f20;fill-opacity:1;fill-rule:nonzero;stroke:none"
             d="M -11.6484,2320.84 807.867,564.98 -240.281,75.7773 -1059.8,1831.64 Z" /></g></g><path
         id="path164"
         style="fill:none;stroke:#231f20;stroke-width:7.5005002;stroke-linecap:butt;stroke-linejoin:miter;stroke-miterlimit:2.61310005;stroke-dasharray:none;stroke-opacity:1"
         d="m 362.691,371.035 c 3.082,0 5.582,-2.515 5.582,-5.613 0,-3.102 -2.5,-5.613 -5.582,-5.613 -3.082,0 -5.582,2.511 -5.582,5.613 0,3.098 2.5,5.613 5.582,5.613 z" /></g></g></svg>