<?xml version="1.0" encoding="UTF-8" standalone="no"?>
<svg
   xmlns:dc="http://purl.org/dc/elements/1.1/"
   xmlns:cc="http://creativecommons.org/ns#"
   xmlns:rdf="http://www.w3.org/1999/02/22-rdf-syntax-ns#"
   xmlns:svg="http://www.w3.org/2000/svg"
   xmlns="http://www.w3.org/2000/svg"
   viewBox="0 0 96 97.333336"
   height="97.333336"
   width="96"
   xml:space="preserve"
   id="svg2"
   version="1.1"><metadata
     id="metadata8"><rdf:RDF><cc:Work
         rdf:about=""><dc:format>image/svg+xml</dc:format><dc:type
           rdf:resource="http://purl.org/dc/dcmitype/StillImage" /></cc:Work></rdf:RDF></metadata><defs
     id="defs6" /><g
     transform="matrix(1.3333333,0,0,-1.3333333,0,97.333333)"
     id="g10"><g
       transform="scale(0.1)"
       id="g12"><path
         id="path14"
         style="fill:#231f20;fill-opacity:1;fill-rule:nonzero;stroke:none"
         d="m 387.199,106.906 -5.078,-55.0622 c -0.266,-2.586 -0.383,-4.2696 -0.387,-5.086 0,-1.2969 0.231,-2.2969 0.735,-2.9805 0.613,-0.9335 1.445,-1.6328 2.496,-2.1015 1.066,-0.4531 2.851,-0.6875 5.351,-0.6875 l -0.535,-1.8008 -26.066,0.0195 0.531,1.8008 h 1.117 c 2.117,-0.0039 3.856,0.4649 5.188,1.3594 0.933,0.6367 1.668,1.6484 2.203,3.0859 0.348,1.0157 0.699,3.3789 1.019,7.1289 l 0.79,8.4024 -18.95,0.0156 -6.742,-9.1289 c -1.531,-2.0508 -2.484,-3.5352 -2.883,-4.4141 -0.386,-0.9023 -0.586,-1.7343 -0.586,-2.5156 -0.004,-1.0547 0.414,-1.9336 1.262,-2.6875 0.852,-0.75 2.25,-1.168 4.203,-1.2344 l -0.535,-1.8007 -19.586,0.0156 0.535,1.7969 c 2.418,0.0976 4.535,0.914 6.387,2.414 1.832,1.5156 4.57,4.7461 8.223,9.6953 L 385.48,106.906 Z M 377.52,90.6641 358.301,64.5625 374.949,64.5508 Z" /><path
         id="path16"
         style="fill:#231f20;fill-opacity:1;fill-rule:nonzero;stroke:none"
         d="m 135.391,618.766 0.683,1.816 23.637,-0.016 c 3.965,-0.003 7.496,-0.625 10.613,-1.878 3.102,-1.235 5.43,-2.954 6.981,-5.168 1.547,-2.219 2.312,-4.571 2.308,-7.04 0,-3.816 -1.386,-7.246 -4.14,-10.328 -2.754,-3.066 -7.239,-5.343 -13.453,-6.789 4.015,-1.504 6.945,-3.488 8.843,-5.976 1.879,-2.465 2.828,-5.184 2.825,-8.149 0,-3.285 -0.852,-6.433 -2.555,-9.433 -1.688,-2.981 -3.871,-5.313 -6.524,-6.957 -2.648,-1.668 -5.851,-2.883 -9.601,-3.664 -2.668,-0.547 -6.836,-0.829 -12.5,-0.821 l -24.266,0.016 0.633,1.801 c 2.551,0.066 4.266,0.312 5.188,0.73 1.296,0.567 2.23,1.297 2.785,2.199 0.781,1.231 1.816,4.063 3.121,8.493 l 11.894,40.078 c 1.02,3.383 1.524,5.761 1.524,7.133 0,1.199 -0.446,2.148 -1.332,2.847 -0.895,0.703 -2.598,1.051 -5.114,1.055 -0.55,0 -1.066,0.015 -1.55,0.051 z m 9.879,-27.493 c 2.117,-0.066 3.648,-0.101 4.597,-0.101 6.77,-0.004 11.801,1.461 15.121,4.406 3.301,2.945 4.957,6.629 4.961,11.063 0.004,3.347 -1.011,5.964 -3.031,7.836 -2.012,1.867 -5.23,2.804 -9.664,2.808 -1.164,0 -2.664,-0.183 -4.481,-0.582 z m -9.641,-32.605 c 3.516,-0.473 6.266,-0.688 8.25,-0.691 5.082,-0.004 9.582,1.527 13.5,4.574 3.937,3.062 5.891,7.211 5.894,12.445 0.004,4 -1.195,7.133 -3.625,9.387 -2.418,2.25 -6.332,3.371 -11.73,3.375 -1.051,0 -2.32,-0.051 -3.82,-0.149 l -8.469,-28.941" /><path
         id="path18"
         style="fill:#231f20;fill-opacity:1;fill-rule:nonzero;stroke:none"
         d="m 693.391,414.289 -4.95,-21.43 h -1.769 l -0.176,5.387 c -0.168,1.949 -0.547,3.68 -1.133,5.215 -0.582,1.535 -1.465,2.852 -2.629,3.988 -1.168,1.114 -2.648,2 -4.449,2.637 -1.781,0.633 -3.765,0.953 -5.949,0.953 -5.832,0.004 -10.918,-1.594 -15.285,-4.773 -5.571,-4.059 -9.942,-9.809 -13.098,-17.223 -2.601,-6.113 -3.926,-12.313 -3.93,-18.594 -0.007,-6.418 1.872,-11.539 5.602,-15.371 3.746,-3.824 8.613,-5.742 14.598,-5.746 4.531,-0.004 8.566,1.012 12.086,3.023 3.535,2.016 6.82,5.11 9.855,9.309 h 2.285 c -3.57,-5.699 -7.558,-9.879 -11.91,-12.559 -4.367,-2.679 -9.605,-4.027 -15.687,-4.019 -5.399,0.004 -10.18,1.141 -14.348,3.41 -4.164,2.27 -7.344,5.438 -9.508,9.555 -2.18,4.105 -3.277,8.504 -3.273,13.238 0.004,7.215 1.961,14.246 5.832,21.078 3.871,6.828 9.195,12.207 15.945,16.102 6.77,3.898 13.57,5.84 20.457,5.836 3.215,-0.004 6.832,-0.754 10.828,-2.289 1.754,-0.653 3.035,-0.989 3.801,-0.989 0.781,0 1.465,0.164 2.066,0.481 0.586,0.336 1.551,1.265 2.922,2.781 h 1.817" /><path
         id="path20"
         style="fill:#231f20;fill-opacity:1;fill-rule:nonzero;stroke:none"
         d="m 409.145,439.438 c 4.398,-0.004 8.281,-0.958 11.664,-2.86 3.382,-1.902 6.043,-4.723 7.961,-8.457 1.914,-3.715 2.875,-7.586 2.875,-11.601 -0.008,-7.082 -2.079,-14.532 -6.204,-22.329 -4.121,-7.796 -9.511,-13.742 -16.144,-17.836 -6.656,-4.097 -13.524,-6.14 -20.621,-6.136 -5.102,0.004 -9.387,1.14 -12.817,3.41 -3.429,2.269 -5.964,5.254 -7.609,8.957 -1.629,3.719 -2.461,7.32 -2.457,10.801 0.004,6.183 1.508,12.301 4.48,18.328 2.985,6.035 6.559,11.078 10.696,15.125 4.136,4.051 8.539,7.16 13.238,9.344 4.684,2.179 9.668,3.257 14.938,3.254 z m -1.672,-3.114 c -3.246,0 -6.43,-0.797 -9.535,-2.414 -3.114,-1.613 -6.2,-4.242 -9.254,-7.906 -3.071,-3.649 -5.825,-8.445 -8.278,-14.359 -2.988,-7.297 -4.496,-14.184 -4.5,-20.665 -0.004,-4.617 1.176,-8.718 3.555,-12.285 2.367,-3.554 6.016,-5.34 10.93,-5.343 2.968,-0.004 5.867,0.73 8.718,2.191 2.852,1.449 5.821,3.965 8.922,7.512 3.871,4.445 7.129,10.144 9.782,17.058 2.636,6.914 3.96,13.364 3.964,19.348 0.004,4.434 -1.175,8.352 -3.554,11.75 -2.383,3.406 -5.95,5.109 -10.75,5.113" /><path
         id="path22"
         style="fill:none;stroke:#231f20;stroke-width:2.16000009;stroke-linecap:butt;stroke-linejoin:miter;stroke-miterlimit:2.61310005;stroke-dasharray:none;stroke-opacity:1"
         d="M 5.06641,723.438 H 94.2617 V 634.023 H 5.06641 Z" /><path
         id="path24"
         style="fill:none;stroke:#231f20;stroke-width:2.16000009;stroke-linecap:butt;stroke-linejoin:miter;stroke-miterlimit:2.61310005;stroke-dasharray:none;stroke-opacity:1"
         d="M 5.06641,634.023 H 94.2617 V 544.605 H 5.06641 Z" /><path
         id="path26"
         style="fill:none;stroke:#231f20;stroke-width:2.16000009;stroke-linecap:butt;stroke-linejoin:miter;stroke-miterlimit:2.61310005;stroke-dasharray:none;stroke-opacity:1"
         d="M 5.06641,544.605 H 94.2617 V 455.188 H 5.06641 Z" /><path
         id="path28"
         style="fill:none;stroke:#231f20;stroke-width:2.16000009;stroke-linecap:butt;stroke-linejoin:miter;stroke-miterlimit:2.61310005;stroke-dasharray:none;stroke-opacity:1"
         d="M 5.06641,455.188 H 94.2617 V 365.773 H 5.06641 Z" /><path
         id="path30"
         style="fill:none;stroke:#231f20;stroke-width:2.16000009;stroke-linecap:butt;stroke-linejoin:miter;stroke-miterlimit:2.61310005;stroke-dasharray:none;stroke-opacity:1"
         d="M 5.06641,365.773 H 94.2617 V 276.355 H 5.06641 Z" /><path
         id="path32"
         style="fill:none;stroke:#231f20;stroke-width:2.16000009;stroke-linecap:butt;stroke-linejoin:miter;stroke-miterlimit:2.61310005;stroke-dasharray:none;stroke-opacity:1"
         d="M 5.06641,276.355 H 94.2617 V 186.938 H 5.06641 Z" /><path
         id="path34"
         style="fill:none;stroke:#231f20;stroke-width:2.16000009;stroke-linecap:butt;stroke-linejoin:miter;stroke-miterlimit:2.61310005;stroke-dasharray:none;stroke-opacity:1"
         d="M 5.06641,186.938 H 94.2617 V 97.5195 H 5.06641 Z" /><path
         id="path36"
         style="fill:none;stroke:#231f20;stroke-width:2.16000009;stroke-linecap:butt;stroke-linejoin:miter;stroke-miterlimit:2.61310005;stroke-dasharray:none;stroke-opacity:1"
         d="M 5.06641,97.5195 H 94.2617 V 8.10547 H 5.06641 Z" /><path
         id="path38"
         style="fill:none;stroke:#231f20;stroke-width:2.16000009;stroke-linecap:butt;stroke-linejoin:miter;stroke-miterlimit:2.61310005;stroke-dasharray:none;stroke-opacity:1"
         d="M 94.2617,723.438 H 183.449 V 634.023 H 94.2617 Z" /><path
         id="path40"
         style="fill:none;stroke:#231f20;stroke-width:2.16000009;stroke-linecap:butt;stroke-linejoin:miter;stroke-miterlimit:2.61310005;stroke-dasharray:none;stroke-opacity:1"
         d="M 94.2617,634.023 H 183.449 V 544.605 H 94.2617 Z" /><path
         id="path42"
         style="fill:none;stroke:#231f20;stroke-width:2.16000009;stroke-linecap:butt;stroke-linejoin:miter;stroke-miterlimit:2.61310005;stroke-dasharray:none;stroke-opacity:1"
         d="M 94.2617,544.605 H 183.449 V 455.188 H 94.2617 Z" /><path
         id="path44"
         style="fill:none;stroke:#231f20;stroke-width:2.16000009;stroke-linecap:butt;stroke-linejoin:miter;stroke-miterlimit:2.61310005;stroke-dasharray:none;stroke-opacity:1"
         d="M 94.2617,455.188 H 183.449 V 365.773 H 94.2617 Z" /><path
         id="path46"
         style="fill:none;stroke:#231f20;stroke-width:2.16000009;stroke-linecap:butt;stroke-linejoin:miter;stroke-miterlimit:2.61310005;stroke-dasharray:none;stroke-opacity:1"
         d="M 94.2617,365.773 H 183.449 V 276.355 H 94.2617 Z" /><path
         id="path48"
         style="fill:none;stroke:#231f20;stroke-width:2.16000009;stroke-linecap:butt;stroke-linejoin:miter;stroke-miterlimit:2.61310005;stroke-dasharray:none;stroke-opacity:1"
         d="M 94.2617,276.355 H 183.449 V 186.938 H 94.2617 Z" /><path
         id="path50"
         style="fill:none;stroke:#231f20;stroke-width:2.16000009;stroke-linecap:butt;stroke-linejoin:miter;stroke-miterlimit:2.61310005;stroke-dasharray:none;stroke-opacity:1"
         d="M 94.2617,186.938 H 183.449 V 97.5195 H 94.2617 Z" /><path
         id="path52"
         style="fill:none;stroke:#231f20;stroke-width:2.16000009;stroke-linecap:butt;stroke-linejoin:miter;stroke-miterlimit:2.61310005;stroke-dasharray:none;stroke-opacity:1"
         d="M 94.2617,97.5195 H 183.449 V 8.10547 H 94.2617 Z" /><path
         id="path54"
         style="fill:none;stroke:#231f20;stroke-width:2.16000009;stroke-linecap:butt;stroke-linejoin:miter;stroke-miterlimit:2.61310005;stroke-dasharray:none;stroke-opacity:1"
         d="m 183.449,723.438 h 89.192 v -89.415 h -89.192 z" /><path
         id="path56"
         style="fill:none;stroke:#231f20;stroke-width:2.16000009;stroke-linecap:butt;stroke-linejoin:miter;stroke-miterlimit:2.61310005;stroke-dasharray:none;stroke-opacity:1"
         d="m 183.449,634.023 h 89.192 v -89.418 h -89.192 z" /><path
         id="path58"
         style="fill:none;stroke:#231f20;stroke-width:2.16000009;stroke-linecap:butt;stroke-linejoin:miter;stroke-miterlimit:2.61310005;stroke-dasharray:none;stroke-opacity:1"
         d="m 183.449,544.605 h 89.192 v -89.417 h -89.192 z" /><path
         id="path60"
         style="fill:none;stroke:#231f20;stroke-width:2.16000009;stroke-linecap:butt;stroke-linejoin:miter;stroke-miterlimit:2.61310005;stroke-dasharray:none;stroke-opacity:1"
         d="m 183.449,455.188 h 89.192 v -89.415 h -89.192 z" /><path
         id="path62"
         style="fill:none;stroke:#231f20;stroke-width:2.16000009;stroke-linecap:butt;stroke-linejoin:miter;stroke-miterlimit:2.61310005;stroke-dasharray:none;stroke-opacity:1"
         d="m 183.449,365.773 h 89.192 v -89.418 h -89.192 z" /><path
         id="path64"
         style="fill:none;stroke:#231f20;stroke-width:2.16000009;stroke-linecap:butt;stroke-linejoin:miter;stroke-miterlimit:2.61310005;stroke-dasharray:none;stroke-opacity:1"
         d="m 183.449,276.355 h 89.192 v -89.417 h -89.192 z" /><path
         id="path66"
         style="fill:none;stroke:#231f20;stroke-width:2.16000009;stroke-linecap:butt;stroke-linejoin:miter;stroke-miterlimit:2.61310005;stroke-dasharray:none;stroke-opacity:1"
         d="m 183.449,186.938 h 89.192 V 97.5195 h -89.192 z" /><path
         id="path68"
         style="fill:none;stroke:#231f20;stroke-width:2.16000009;stroke-linecap:butt;stroke-linejoin:miter;stroke-miterlimit:2.61310005;stroke-dasharray:none;stroke-opacity:1"
         d="m 183.449,97.5195 h 89.192 V 8.10547 h -89.192 z" /><path
         id="path70"
         style="fill:none;stroke:#231f20;stroke-width:2.16000009;stroke-linecap:butt;stroke-linejoin:miter;stroke-miterlimit:2.61310005;stroke-dasharray:none;stroke-opacity:1"
         d="m 272.641,723.438 h 89.191 v -89.415 h -89.191 z" /><path
         id="path72"
         style="fill:none;stroke:#231f20;stroke-width:2.16000009;stroke-linecap:butt;stroke-linejoin:miter;stroke-miterlimit:2.61310005;stroke-dasharray:none;stroke-opacity:1"
         d="m 272.641,634.023 h 89.191 v -89.418 h -89.191 z" /><path
         id="path74"
         style="fill:none;stroke:#231f20;stroke-width:2.16000009;stroke-linecap:butt;stroke-linejoin:miter;stroke-miterlimit:2.61310005;stroke-dasharray:none;stroke-opacity:1"
         d="m 272.641,544.605 h 89.191 v -89.417 h -89.191 z" /><path
         id="path76"
         style="fill:none;stroke:#231f20;stroke-width:2.16000009;stroke-linecap:butt;stroke-linejoin:miter;stroke-miterlimit:2.61310005;stroke-dasharray:none;stroke-opacity:1"
         d="m 272.641,455.188 h 89.191 v -89.415 h -89.191 z" /><path
         id="path78"
         style="fill:none;stroke:#231f20;stroke-width:2.16000009;stroke-linecap:butt;stroke-linejoin:miter;stroke-miterlimit:2.61310005;stroke-dasharray:none;stroke-opacity:1"
         d="m 272.641,365.773 h 89.191 v -89.418 h -89.191 z" /><path
         id="path80"
         style="fill:none;stroke:#231f20;stroke-width:2.16000009;stroke-linecap:butt;stroke-linejoin:miter;stroke-miterlimit:2.61310005;stroke-dasharray:none;stroke-opacity:1"
         d="m 272.641,276.355 h 89.191 v -89.417 h -89.191 z" /><path
         id="path82"
         style="fill:none;stroke:#231f20;stroke-width:2.16000009;stroke-linecap:butt;stroke-linejoin:miter;stroke-miterlimit:2.61310005;stroke-dasharray:none;stroke-opacity:1"
         d="m 272.641,186.938 h 89.191 V 97.5195 h -89.191 z" /><path
         id="path84"
         style="fill:none;stroke:#231f20;stroke-width:2.16000009;stroke-linecap:butt;stroke-linejoin:miter;stroke-miterlimit:2.61310005;stroke-dasharray:none;stroke-opacity:1"
         d="m 272.641,97.5195 h 89.191 V 8.10547 h -89.191 z" /><path
         id="path86"
         style="fill:none;stroke:#231f20;stroke-width:2.16000009;stroke-linecap:butt;stroke-linejoin:miter;stroke-miterlimit:2.61310005;stroke-dasharray:none;stroke-opacity:1"
         d="m 361.832,723.438 h 89.191 v -89.415 h -89.191 z" /><path
         id="path88"
         style="fill:none;stroke:#231f20;stroke-width:2.16000009;stroke-linecap:butt;stroke-linejoin:miter;stroke-miterlimit:2.61310005;stroke-dasharray:none;stroke-opacity:1"
         d="m 361.832,634.023 h 89.191 v -89.418 h -89.191 z" /><path
         id="path90"
         style="fill:none;stroke:#231f20;stroke-width:2.16000009;stroke-linecap:butt;stroke-linejoin:miter;stroke-miterlimit:2.61310005;stroke-dasharray:none;stroke-opacity:1"
         d="m 361.832,544.605 h 89.191 v -89.417 h -89.191 z" /><path
         id="path92"
         style="fill:none;stroke:#231f20;stroke-width:2.16000009;stroke-linecap:butt;stroke-linejoin:miter;stroke-miterlimit:2.61310005;stroke-dasharray:none;stroke-opacity:1"
         d="m 361.832,455.188 h 89.191 v -89.415 h -89.191 z" /><path
         id="path94"
         style="fill:none;stroke:#231f20;stroke-width:2.16000009;stroke-linecap:butt;stroke-linejoin:miter;stroke-miterlimit:2.61310005;stroke-dasharray:none;stroke-opacity:1"
         d="m 361.832,365.773 h 89.191 v -89.418 h -89.191 z" /><path
         id="path96"
         style="fill:none;stroke:#231f20;stroke-width:2.16000009;stroke-linecap:butt;stroke-linejoin:miter;stroke-miterlimit:2.61310005;stroke-dasharray:none;stroke-opacity:1"
         d="m 361.832,276.355 h 89.191 v -89.417 h -89.191 z" /><path
         id="path98"
         style="fill:none;stroke:#231f20;stroke-width:2.16000009;stroke-linecap:butt;stroke-linejoin:miter;stroke-miterlimit:2.61310005;stroke-dasharray:none;stroke-opacity:1"
         d="m 361.832,186.938 h 89.191 V 97.5195 h -89.191 z" /><path
         id="path100"
         style="fill:none;stroke:#231f20;stroke-width:2.16000009;stroke-linecap:butt;stroke-linejoin:miter;stroke-miterlimit:2.61310005;stroke-dasharray:none;stroke-opacity:1"
         d="m 361.832,97.5195 h 89.191 V 8.10547 h -89.191 z" /><path
         id="path102"
         style="fill:none;stroke:#231f20;stroke-width:2.16000009;stroke-linecap:butt;stroke-linejoin:miter;stroke-miterlimit:2.61310005;stroke-dasharray:none;stroke-opacity:1"
         d="m 451.023,723.438 h 89.192 v -89.415 h -89.192 z" /><path
         id="path104"
         style="fill:none;stroke:#231f20;stroke-width:2.16000009;stroke-linecap:butt;stroke-linejoin:miter;stroke-miterlimit:2.61310005;stroke-dasharray:none;stroke-opacity:1"
         d="m 451.023,634.023 h 89.192 v -89.418 h -89.192 z" /><path
         id="path106"
         style="fill:none;stroke:#231f20;stroke-width:2.16000009;stroke-linecap:butt;stroke-linejoin:miter;stroke-miterlimit:2.61310005;stroke-dasharray:none;stroke-opacity:1"
         d="m 451.023,544.605 h 89.192 v -89.417 h -89.192 z" /><path
         id="path108"
         style="fill:none;stroke:#231f20;stroke-width:2.16000009;stroke-linecap:butt;stroke-linejoin:miter;stroke-miterlimit:2.61310005;stroke-dasharray:none;stroke-opacity:1"
         d="m 451.023,455.188 h 89.192 v -89.415 h -89.192 z" /><path
         id="path110"
         style="fill:none;stroke:#231f20;stroke-width:2.16000009;stroke-linecap:butt;stroke-linejoin:miter;stroke-miterlimit:2.61310005;stroke-dasharray:none;stroke-opacity:1"
         d="m 451.023,365.773 h 89.192 v -89.418 h -89.192 z" /><path
         id="path112"
         style="fill:none;stroke:#231f20;stroke-width:2.16000009;stroke-linecap:butt;stroke-linejoin:miter;stroke-miterlimit:2.61310005;stroke-dasharray:none;stroke-opacity:1"
         d="m 451.023,276.355 h 89.192 v -89.417 h -89.192 z" /><path
         id="path114"
         style="fill:none;stroke:#231f20;stroke-width:2.16000009;stroke-linecap:butt;stroke-linejoin:miter;stroke-miterlimit:2.61310005;stroke-dasharray:none;stroke-opacity:1"
         d="m 451.023,186.938 h 89.192 V 97.5195 h -89.192 z" /><path
         id="path116"
         style="fill:none;stroke:#231f20;stroke-width:2.16000009;stroke-linecap:butt;stroke-linejoin:miter;stroke-miterlimit:2.61310005;stroke-dasharray:none;stroke-opacity:1"
         d="m 451.023,97.5195 h 89.192 V 8.10547 h -89.192 z" /><path
         id="path118"
         style="fill:none;stroke:#231f20;stroke-width:2.16000009;stroke-linecap:butt;stroke-linejoin:miter;stroke-miterlimit:2.61310005;stroke-dasharray:none;stroke-opacity:1"
         d="m 540.215,723.438 h 89.187 v -89.415 h -89.187 z" /><path
         id="path120"
         style="fill:none;stroke:#231f20;stroke-width:2.16000009;stroke-linecap:butt;stroke-linejoin:miter;stroke-miterlimit:2.61310005;stroke-dasharray:none;stroke-opacity:1"
         d="m 540.215,634.023 h 89.187 v -89.418 h -89.187 z" /><path
         id="path122"
         style="fill:none;stroke:#231f20;stroke-width:2.16000009;stroke-linecap:butt;stroke-linejoin:miter;stroke-miterlimit:2.61310005;stroke-dasharray:none;stroke-opacity:1"
         d="m 540.215,544.605 h 89.187 v -89.417 h -89.187 z" /><path
         id="path124"
         style="fill:none;stroke:#231f20;stroke-width:2.16000009;stroke-linecap:butt;stroke-linejoin:miter;stroke-miterlimit:2.61310005;stroke-dasharray:none;stroke-opacity:1"
         d="m 540.215,455.188 h 89.187 v -89.415 h -89.187 z" /><path
         id="path126"
         style="fill:none;stroke:#231f20;stroke-width:2.16000009;stroke-linecap:butt;stroke-linejoin:miter;stroke-miterlimit:2.61310005;stroke-dasharray:none;stroke-opacity:1"
         d="m 540.215,365.773 h 89.187 v -89.418 h -89.187 z" /><path
         id="path128"
         style="fill:none;stroke:#231f20;stroke-width:2.16000009;stroke-linecap:butt;stroke-linejoin:miter;stroke-miterlimit:2.61310005;stroke-dasharray:none;stroke-opacity:1"
         d="m 540.215,276.355 h 89.187 v -89.417 h -89.187 z" /><path
         id="path130"
         style="fill:none;stroke:#231f20;stroke-width:2.16000009;stroke-linecap:butt;stroke-linejoin:miter;stroke-miterlimit:2.61310005;stroke-dasharray:none;stroke-opacity:1"
         d="m 540.215,186.938 h 89.187 V 97.5195 h -89.187 z" /><path
         id="path132"
         style="fill:none;stroke:#231f20;stroke-width:2.16000009;stroke-linecap:butt;stroke-linejoin:miter;stroke-miterlimit:2.61310005;stroke-dasharray:none;stroke-opacity:1"
         d="m 540.215,97.5195 h 89.187 V 8.10547 h -89.187 z" /><path
         id="path134"
         style="fill:none;stroke:#231f20;stroke-width:2.16000009;stroke-linecap:butt;stroke-linejoin:miter;stroke-miterlimit:2.61310005;stroke-dasharray:none;stroke-opacity:1"
         d="m 629.402,723.438 h 89.196 v -89.415 h -89.196 z" /><path
         id="path136"
         style="fill:none;stroke:#231f20;stroke-width:2.16000009;stroke-linecap:butt;stroke-linejoin:miter;stroke-miterlimit:2.61310005;stroke-dasharray:none;stroke-opacity:1"
         d="m 629.402,634.023 h 89.196 v -89.418 h -89.196 z" /><path
         id="path138"
         style="fill:none;stroke:#231f20;stroke-width:2.16000009;stroke-linecap:butt;stroke-linejoin:miter;stroke-miterlimit:2.61310005;stroke-dasharray:none;stroke-opacity:1"
         d="m 629.402,544.605 h 89.196 v -89.417 h -89.196 z" /><path
         id="path140"
         style="fill:none;stroke:#231f20;stroke-width:2.16000009;stroke-linecap:butt;stroke-linejoin:miter;stroke-miterlimit:2.61310005;stroke-dasharray:none;stroke-opacity:1"
         d="m 629.402,455.188 h 89.196 v -89.415 h -89.196 z" /><path
         id="path142"
         style="fill:none;stroke:#231f20;stroke-width:2.16000009;stroke-linecap:butt;stroke-linejoin:miter;stroke-miterlimit:2.61310005;stroke-dasharray:none;stroke-opacity:1"
         d="m 629.402,365.773 h 89.196 v -89.418 h -89.196 z" /><path
         id="path144"
         style="fill:none;stroke:#231f20;stroke-width:2.16000009;stroke-linecap:butt;stroke-linejoin:miter;stroke-miterlimit:2.61310005;stroke-dasharray:none;stroke-opacity:1"
         d="m 629.402,276.355 h 89.196 v -89.417 h -89.196 z" /><path
         id="path146"
         style="fill:none;stroke:#231f20;stroke-width:2.16000009;stroke-linecap:butt;stroke-linejoin:miter;stroke-miterlimit:2.61310005;stroke-dasharray:none;stroke-opacity:1"
         d="m 629.402,186.938 h 89.196 V 97.5195 h -89.196 z" /><path
         id="path148"
         style="fill:none;stroke:#231f20;stroke-width:2.16000009;stroke-linecap:butt;stroke-linejoin:miter;stroke-miterlimit:2.61310005;stroke-dasharray:none;stroke-opacity:1"
         d="m 629.402,97.5195 h 89.196 V 8.10547 h -89.196 z" /><path
         id="path150"
         style="fill:none;stroke:#231f20;stroke-width:7.5005002;stroke-linecap:butt;stroke-linejoin:miter;stroke-miterlimit:2.61310005;stroke-dasharray:none;stroke-opacity:1"
         d="m 362.984,617.574 c 138.266,0 250.395,-112.785 250.395,-251.859 0,-139.078 -112.129,-251.86 -250.395,-251.86 -138.269,0 -250.394,112.782 -250.394,251.86 0,139.074 112.125,251.859 250.394,251.859 z" /><path
         id="path152"
         style="fill:none;stroke:#231f20;stroke-width:7.5005002;stroke-linecap:butt;stroke-linejoin:miter;stroke-miterlimit:2.61310005;stroke-dasharray:none;stroke-opacity:1"
         d="M 361.832,115.004 187.957,540.098 613.379,365.711" /><path
         id="path154"
         style="fill:#231f20;fill-opacity:1;fill-rule:evenodd;stroke:none"
         d="m 361.832,374.789 c 4.949,0 8.965,-4.035 8.965,-9.016 0,-4.98 -4.016,-9.019 -8.965,-9.019 -4.949,0 -8.965,4.039 -8.965,9.019 0,4.981 4.016,9.016 8.965,9.016" /><path
         id="path156"
         style="fill:none;stroke:#231f20;stroke-width:7.5005002;stroke-linecap:butt;stroke-linejoin:miter;stroke-miterlimit:2.61310005;stroke-dasharray:none;stroke-opacity:1"
         d="m 361.832,374.789 c 4.949,0 8.965,-4.035 8.965,-9.016 0,-4.98 -4.016,-9.019 -8.965,-9.019 -4.949,0 -8.965,4.039 -8.965,9.019 0,4.981 4.016,9.016 8.965,9.016 z" /></g></g></svg>