<?xml version="1.0" encoding="UTF-8" standalone="no"?>
<svg
   xmlns:dc="http://purl.org/dc/elements/1.1/"
   xmlns:cc="http://creativecommons.org/ns#"
   xmlns:rdf="http://www.w3.org/1999/02/22-rdf-syntax-ns#"
   xmlns:svg="http://www.w3.org/2000/svg"
   xmlns="http://www.w3.org/2000/svg"
   viewBox="0 0 96 97.333336"
   height="97.333336"
   width="96"
   xml:space="preserve"
   id="svg2"
   version="1.1"><metadata
     id="metadata8"><rdf:RDF><cc:Work
         rdf:about=""><dc:format>image/svg+xml</dc:format><dc:type
           rdf:resource="http://purl.org/dc/dcmitype/StillImage" /></cc:Work></rdf:RDF></metadata><defs
     id="defs6" /><g
     transform="matrix(1.3333333,0,0,-1.3333333,0,97.333333)"
     id="g10"><g
       transform="scale(0.1)"
       id="g12"><path
         id="path14"
         style="fill:#231f20;fill-opacity:1;fill-rule:nonzero;stroke:none"
         d="m 374.93,694.871 -5.078,-55.062 c -0.27,-2.582 -0.387,-4.27 -0.387,-5.086 0,-1.297 0.23,-2.297 0.73,-2.981 0.618,-0.933 1.45,-1.633 2.5,-2.101 1.067,-0.453 2.848,-0.688 5.348,-0.688 l -0.535,-1.801 -26.067,0.02 0.536,1.801 h 1.117 c 2.117,-0.004 3.851,0.465 5.183,1.363 0.934,0.633 1.668,1.644 2.203,3.082 0.352,1.016 0.704,3.379 1.024,7.129 l 0.789,8.402 -18.949,0.016 -6.742,-9.129 c -1.532,-2.051 -2.485,-3.535 -2.887,-4.414 -0.383,-0.902 -0.586,-1.734 -0.586,-2.516 0,-1.054 0.414,-1.933 1.266,-2.687 0.851,-0.75 2.25,-1.168 4.199,-1.235 l -0.535,-1.8 -19.582,0.015 0.535,1.801 c 2.418,0.094 4.535,0.91 6.383,2.41 1.835,1.516 4.57,4.746 8.226,9.695 l 39.59,53.766 z m -9.68,-16.242 -19.223,-26.102 16.653,-0.011 z" /><path
         id="path16"
         style="fill:#231f20;fill-opacity:1;fill-rule:nonzero;stroke:none"
         d="m 632.016,523.691 0.683,1.817 23.637,-0.02 c 3.965,-0.004 7.496,-0.625 10.613,-1.875 3.098,-1.238 5.43,-2.953 6.981,-5.172 1.547,-2.218 2.312,-4.57 2.308,-7.039 -0.004,-3.812 -1.386,-7.246 -4.14,-10.328 -2.754,-3.062 -7.239,-5.344 -13.453,-6.789 4.015,-1.504 6.945,-3.488 8.843,-5.972 1.879,-2.469 2.828,-5.184 2.825,-8.153 0,-3.281 -0.852,-6.43 -2.555,-9.433 -1.688,-2.981 -3.871,-5.309 -6.524,-6.957 -2.652,-1.665 -5.851,-2.883 -9.601,-3.661 -2.668,-0.55 -6.836,-0.828 -12.504,-0.824 l -24.262,0.02 0.633,1.797 c 2.551,0.066 4.266,0.316 5.184,0.73 1.3,0.566 2.234,1.297 2.785,2.199 0.785,1.231 1.82,4.063 3.125,8.496 l 11.894,40.075 c 1.02,3.382 1.524,5.765 1.524,7.132 0,1.2 -0.446,2.149 -1.332,2.852 -0.899,0.699 -2.598,1.051 -5.114,1.051 -0.55,0 -1.066,0.019 -1.55,0.054 z m 9.879,-27.492 c 2.113,-0.07 3.648,-0.105 4.597,-0.105 6.77,-0.004 11.801,1.461 15.121,4.406 3.301,2.949 4.957,6.629 4.961,11.063 0,3.351 -1.015,5.968 -3.031,7.835 -2.012,1.868 -5.23,2.805 -9.664,2.809 -1.164,0 -2.664,-0.184 -4.481,-0.582 z M 632.25,463.59 c 3.52,-0.469 6.27,-0.688 8.254,-0.688 5.082,-0.004 9.582,1.524 13.5,4.571 3.937,3.066 5.891,7.215 5.894,12.445 0.004,4 -1.195,7.133 -3.625,9.387 -2.418,2.25 -6.332,3.371 -11.73,3.375 -1.051,0 -2.32,-0.047 -3.82,-0.145 L 632.25,463.59" /><path
         id="path18"
         style="fill:#231f20;fill-opacity:1;fill-rule:nonzero;stroke:none"
         d="m 378.695,109.578 -4.949,-21.4296 -1.769,0.0039 -0.176,5.3829 c -0.168,1.9492 -0.547,3.6796 -1.129,5.2148 -0.582,1.535 -1.469,2.852 -2.633,3.988 -1.164,1.114 -2.648,2 -4.445,2.637 -1.785,0.633 -3.77,0.953 -5.949,0.953 -5.836,0.004 -10.918,-1.594 -15.29,-4.773 -5.57,-4.0589 -9.941,-9.8089 -13.093,-17.2191 -2.606,-6.1171 -3.93,-12.3125 -3.934,-18.5976 -0.004,-6.418 1.875,-11.5352 5.606,-15.3711 3.746,-3.8203 8.609,-5.7422 14.593,-5.7461 4.536,-0.0039 8.567,1.0117 12.086,3.0234 3.535,2.0157 6.825,5.1094 9.86,9.3086 h 2.281 c -3.57,-5.6992 -7.555,-9.8789 -11.91,-12.5586 -4.367,-2.6797 -9.602,-4.0234 -15.688,-4.0195 -5.398,0.0039 -10.179,1.1406 -14.343,3.4102 -4.168,2.2695 -7.348,5.4375 -9.508,9.5546 -2.184,4.1055 -3.282,8.504 -3.278,13.2383 0.008,7.2188 1.961,14.25 5.832,21.0782 3.875,6.8281 9.196,12.207 15.95,16.1057 6.765,3.894 13.57,5.84 20.453,5.832 3.215,0 6.832,-0.754 10.832,-2.289 1.75,-0.653 3.035,-0.985 3.801,-0.989 0.781,0 1.464,0.164 2.066,0.481 0.582,0.336 1.551,1.266 2.918,2.781 h 1.816" /><path
         id="path20"
         style="fill:#231f20;fill-opacity:1;fill-rule:nonzero;stroke:none"
         d="m 414.785,445.465 c 4.403,-0.004 8.281,-0.953 11.668,-2.856 3.383,-1.906 6.043,-4.722 7.961,-8.457 1.91,-3.718 2.875,-7.586 2.871,-11.605 -0.004,-7.078 -2.078,-14.531 -6.199,-22.324 -4.125,-7.797 -9.512,-13.743 -16.148,-17.836 -6.653,-4.098 -13.524,-6.141 -20.622,-6.137 -5.097,0.004 -9.382,1.141 -12.812,3.41 -3.434,2.27 -5.965,5.254 -7.609,8.957 -1.633,3.715 -2.461,7.317 -2.461,10.801 0.007,6.184 1.511,12.297 4.484,18.328 2.984,6.031 6.559,11.078 10.695,15.125 4.133,4.047 8.535,7.16 13.239,9.34 4.683,2.18 9.668,3.258 14.933,3.254 z m -1.668,-3.113 c -3.25,0.003 -6.433,-0.797 -9.535,-2.411 -3.117,-1.613 -6.203,-4.242 -9.254,-7.91 -3.07,-3.644 -5.824,-8.445 -8.277,-14.359 -2.992,-7.297 -4.496,-14.18 -4.5,-20.664 -0.004,-4.617 1.176,-8.715 3.554,-12.285 2.364,-3.551 6.016,-5.34 10.93,-5.344 2.969,0 5.867,0.73 8.719,2.195 2.851,1.449 5.82,3.965 8.922,7.512 3.871,4.445 7.125,10.144 9.781,17.059 2.637,6.914 3.961,13.359 3.965,19.343 0.004,4.434 -1.176,8.352 -3.559,11.754 -2.379,3.403 -5.945,5.106 -10.746,5.11" /><path
         id="path22"
         style="fill:none;stroke:#231f20;stroke-width:2.16000009;stroke-linecap:butt;stroke-linejoin:miter;stroke-miterlimit:2.61310005;stroke-dasharray:none;stroke-opacity:1"
         d="M 5.06641,723.438 H 94.2617 V 634.023 H 5.06641 Z" /><path
         id="path24"
         style="fill:none;stroke:#231f20;stroke-width:2.16000009;stroke-linecap:butt;stroke-linejoin:miter;stroke-miterlimit:2.61310005;stroke-dasharray:none;stroke-opacity:1"
         d="M 5.06641,634.023 H 94.2617 V 544.605 H 5.06641 Z" /><path
         id="path26"
         style="fill:none;stroke:#231f20;stroke-width:2.16000009;stroke-linecap:butt;stroke-linejoin:miter;stroke-miterlimit:2.61310005;stroke-dasharray:none;stroke-opacity:1"
         d="M 5.06641,544.605 H 94.2617 V 455.188 H 5.06641 Z" /><path
         id="path28"
         style="fill:none;stroke:#231f20;stroke-width:2.16000009;stroke-linecap:butt;stroke-linejoin:miter;stroke-miterlimit:2.61310005;stroke-dasharray:none;stroke-opacity:1"
         d="M 5.06641,455.188 H 94.2617 V 365.773 H 5.06641 Z" /><path
         id="path30"
         style="fill:none;stroke:#231f20;stroke-width:2.16000009;stroke-linecap:butt;stroke-linejoin:miter;stroke-miterlimit:2.61310005;stroke-dasharray:none;stroke-opacity:1"
         d="M 5.06641,365.773 H 94.2617 V 276.355 H 5.06641 Z" /><path
         id="path32"
         style="fill:none;stroke:#231f20;stroke-width:2.16000009;stroke-linecap:butt;stroke-linejoin:miter;stroke-miterlimit:2.61310005;stroke-dasharray:none;stroke-opacity:1"
         d="M 5.06641,276.355 H 94.2617 V 186.938 H 5.06641 Z" /><path
         id="path34"
         style="fill:none;stroke:#231f20;stroke-width:2.16000009;stroke-linecap:butt;stroke-linejoin:miter;stroke-miterlimit:2.61310005;stroke-dasharray:none;stroke-opacity:1"
         d="M 5.06641,186.938 H 94.2617 V 97.5195 H 5.06641 Z" /><path
         id="path36"
         style="fill:none;stroke:#231f20;stroke-width:2.16000009;stroke-linecap:butt;stroke-linejoin:miter;stroke-miterlimit:2.61310005;stroke-dasharray:none;stroke-opacity:1"
         d="M 5.06641,97.5195 H 94.2617 V 8.10547 H 5.06641 Z" /><path
         id="path38"
         style="fill:none;stroke:#231f20;stroke-width:2.16000009;stroke-linecap:butt;stroke-linejoin:miter;stroke-miterlimit:2.61310005;stroke-dasharray:none;stroke-opacity:1"
         d="M 94.2617,723.438 H 183.449 V 634.023 H 94.2617 Z" /><path
         id="path40"
         style="fill:none;stroke:#231f20;stroke-width:2.16000009;stroke-linecap:butt;stroke-linejoin:miter;stroke-miterlimit:2.61310005;stroke-dasharray:none;stroke-opacity:1"
         d="M 94.2617,634.023 H 183.449 V 544.605 H 94.2617 Z" /><path
         id="path42"
         style="fill:none;stroke:#231f20;stroke-width:2.16000009;stroke-linecap:butt;stroke-linejoin:miter;stroke-miterlimit:2.61310005;stroke-dasharray:none;stroke-opacity:1"
         d="M 94.2617,544.605 H 183.449 V 455.188 H 94.2617 Z" /><path
         id="path44"
         style="fill:none;stroke:#231f20;stroke-width:2.16000009;stroke-linecap:butt;stroke-linejoin:miter;stroke-miterlimit:2.61310005;stroke-dasharray:none;stroke-opacity:1"
         d="M 94.2617,455.188 H 183.449 V 365.773 H 94.2617 Z" /><path
         id="path46"
         style="fill:none;stroke:#231f20;stroke-width:2.16000009;stroke-linecap:butt;stroke-linejoin:miter;stroke-miterlimit:2.61310005;stroke-dasharray:none;stroke-opacity:1"
         d="M 94.2617,365.773 H 183.449 V 276.355 H 94.2617 Z" /><path
         id="path48"
         style="fill:none;stroke:#231f20;stroke-width:2.16000009;stroke-linecap:butt;stroke-linejoin:miter;stroke-miterlimit:2.61310005;stroke-dasharray:none;stroke-opacity:1"
         d="M 94.2617,276.355 H 183.449 V 186.938 H 94.2617 Z" /><path
         id="path50"
         style="fill:none;stroke:#231f20;stroke-width:2.16000009;stroke-linecap:butt;stroke-linejoin:miter;stroke-miterlimit:2.61310005;stroke-dasharray:none;stroke-opacity:1"
         d="M 94.2617,186.938 H 183.449 V 97.5195 H 94.2617 Z" /><path
         id="path52"
         style="fill:none;stroke:#231f20;stroke-width:2.16000009;stroke-linecap:butt;stroke-linejoin:miter;stroke-miterlimit:2.61310005;stroke-dasharray:none;stroke-opacity:1"
         d="M 94.2617,97.5195 H 183.449 V 8.10547 H 94.2617 Z" /><path
         id="path54"
         style="fill:none;stroke:#231f20;stroke-width:2.16000009;stroke-linecap:butt;stroke-linejoin:miter;stroke-miterlimit:2.61310005;stroke-dasharray:none;stroke-opacity:1"
         d="m 183.449,723.438 h 89.192 v -89.415 h -89.192 z" /><path
         id="path56"
         style="fill:none;stroke:#231f20;stroke-width:2.16000009;stroke-linecap:butt;stroke-linejoin:miter;stroke-miterlimit:2.61310005;stroke-dasharray:none;stroke-opacity:1"
         d="m 183.449,634.023 h 89.192 v -89.418 h -89.192 z" /><path
         id="path58"
         style="fill:none;stroke:#231f20;stroke-width:2.16000009;stroke-linecap:butt;stroke-linejoin:miter;stroke-miterlimit:2.61310005;stroke-dasharray:none;stroke-opacity:1"
         d="m 183.449,544.605 h 89.192 v -89.417 h -89.192 z" /><path
         id="path60"
         style="fill:none;stroke:#231f20;stroke-width:2.16000009;stroke-linecap:butt;stroke-linejoin:miter;stroke-miterlimit:2.61310005;stroke-dasharray:none;stroke-opacity:1"
         d="m 183.449,455.188 h 89.192 v -89.415 h -89.192 z" /><path
         id="path62"
         style="fill:none;stroke:#231f20;stroke-width:2.16000009;stroke-linecap:butt;stroke-linejoin:miter;stroke-miterlimit:2.61310005;stroke-dasharray:none;stroke-opacity:1"
         d="m 183.449,365.773 h 89.192 v -89.418 h -89.192 z" /><path
         id="path64"
         style="fill:none;stroke:#231f20;stroke-width:2.16000009;stroke-linecap:butt;stroke-linejoin:miter;stroke-miterlimit:2.61310005;stroke-dasharray:none;stroke-opacity:1"
         d="m 183.449,276.355 h 89.192 v -89.417 h -89.192 z" /><path
         id="path66"
         style="fill:none;stroke:#231f20;stroke-width:2.16000009;stroke-linecap:butt;stroke-linejoin:miter;stroke-miterlimit:2.61310005;stroke-dasharray:none;stroke-opacity:1"
         d="m 183.449,186.938 h 89.192 V 97.5195 h -89.192 z" /><path
         id="path68"
         style="fill:none;stroke:#231f20;stroke-width:2.16000009;stroke-linecap:butt;stroke-linejoin:miter;stroke-miterlimit:2.61310005;stroke-dasharray:none;stroke-opacity:1"
         d="m 183.449,97.5195 h 89.192 V 8.10547 h -89.192 z" /><path
         id="path70"
         style="fill:none;stroke:#231f20;stroke-width:2.16000009;stroke-linecap:butt;stroke-linejoin:miter;stroke-miterlimit:2.61310005;stroke-dasharray:none;stroke-opacity:1"
         d="m 272.641,723.438 h 89.191 v -89.415 h -89.191 z" /><path
         id="path72"
         style="fill:none;stroke:#231f20;stroke-width:2.16000009;stroke-linecap:butt;stroke-linejoin:miter;stroke-miterlimit:2.61310005;stroke-dasharray:none;stroke-opacity:1"
         d="m 272.641,634.023 h 89.191 v -89.418 h -89.191 z" /><path
         id="path74"
         style="fill:none;stroke:#231f20;stroke-width:2.16000009;stroke-linecap:butt;stroke-linejoin:miter;stroke-miterlimit:2.61310005;stroke-dasharray:none;stroke-opacity:1"
         d="m 272.641,544.605 h 89.191 v -89.417 h -89.191 z" /><path
         id="path76"
         style="fill:none;stroke:#231f20;stroke-width:2.16000009;stroke-linecap:butt;stroke-linejoin:miter;stroke-miterlimit:2.61310005;stroke-dasharray:none;stroke-opacity:1"
         d="m 272.641,455.188 h 89.191 v -89.415 h -89.191 z" /><path
         id="path78"
         style="fill:none;stroke:#231f20;stroke-width:2.16000009;stroke-linecap:butt;stroke-linejoin:miter;stroke-miterlimit:2.61310005;stroke-dasharray:none;stroke-opacity:1"
         d="m 272.641,365.773 h 89.191 v -89.418 h -89.191 z" /><path
         id="path80"
         style="fill:none;stroke:#231f20;stroke-width:2.16000009;stroke-linecap:butt;stroke-linejoin:miter;stroke-miterlimit:2.61310005;stroke-dasharray:none;stroke-opacity:1"
         d="m 272.641,276.355 h 89.191 v -89.417 h -89.191 z" /><path
         id="path82"
         style="fill:none;stroke:#231f20;stroke-width:2.16000009;stroke-linecap:butt;stroke-linejoin:miter;stroke-miterlimit:2.61310005;stroke-dasharray:none;stroke-opacity:1"
         d="m 272.641,186.938 h 89.191 V 97.5195 h -89.191 z" /><path
         id="path84"
         style="fill:none;stroke:#231f20;stroke-width:2.16000009;stroke-linecap:butt;stroke-linejoin:miter;stroke-miterlimit:2.61310005;stroke-dasharray:none;stroke-opacity:1"
         d="m 272.641,97.5195 h 89.191 V 8.10547 h -89.191 z" /><path
         id="path86"
         style="fill:none;stroke:#231f20;stroke-width:2.16000009;stroke-linecap:butt;stroke-linejoin:miter;stroke-miterlimit:2.61310005;stroke-dasharray:none;stroke-opacity:1"
         d="m 361.832,723.438 h 89.191 v -89.415 h -89.191 z" /><path
         id="path88"
         style="fill:none;stroke:#231f20;stroke-width:2.16000009;stroke-linecap:butt;stroke-linejoin:miter;stroke-miterlimit:2.61310005;stroke-dasharray:none;stroke-opacity:1"
         d="m 361.832,634.023 h 89.191 v -89.418 h -89.191 z" /><path
         id="path90"
         style="fill:none;stroke:#231f20;stroke-width:2.16000009;stroke-linecap:butt;stroke-linejoin:miter;stroke-miterlimit:2.61310005;stroke-dasharray:none;stroke-opacity:1"
         d="m 361.832,544.605 h 89.191 v -89.417 h -89.191 z" /><path
         id="path92"
         style="fill:none;stroke:#231f20;stroke-width:2.16000009;stroke-linecap:butt;stroke-linejoin:miter;stroke-miterlimit:2.61310005;stroke-dasharray:none;stroke-opacity:1"
         d="m 361.832,455.188 h 89.191 v -89.415 h -89.191 z" /><path
         id="path94"
         style="fill:none;stroke:#231f20;stroke-width:2.16000009;stroke-linecap:butt;stroke-linejoin:miter;stroke-miterlimit:2.61310005;stroke-dasharray:none;stroke-opacity:1"
         d="m 361.832,365.773 h 89.191 v -89.418 h -89.191 z" /><path
         id="path96"
         style="fill:none;stroke:#231f20;stroke-width:2.16000009;stroke-linecap:butt;stroke-linejoin:miter;stroke-miterlimit:2.61310005;stroke-dasharray:none;stroke-opacity:1"
         d="m 361.832,276.355 h 89.191 v -89.417 h -89.191 z" /><path
         id="path98"
         style="fill:none;stroke:#231f20;stroke-width:2.16000009;stroke-linecap:butt;stroke-linejoin:miter;stroke-miterlimit:2.61310005;stroke-dasharray:none;stroke-opacity:1"
         d="m 361.832,186.938 h 89.191 V 97.5195 h -89.191 z" /><path
         id="path100"
         style="fill:none;stroke:#231f20;stroke-width:2.16000009;stroke-linecap:butt;stroke-linejoin:miter;stroke-miterlimit:2.61310005;stroke-dasharray:none;stroke-opacity:1"
         d="m 361.832,97.5195 h 89.191 V 8.10547 h -89.191 z" /><path
         id="path102"
         style="fill:none;stroke:#231f20;stroke-width:2.16000009;stroke-linecap:butt;stroke-linejoin:miter;stroke-miterlimit:2.61310005;stroke-dasharray:none;stroke-opacity:1"
         d="m 451.023,723.438 h 89.192 v -89.415 h -89.192 z" /><path
         id="path104"
         style="fill:none;stroke:#231f20;stroke-width:2.16000009;stroke-linecap:butt;stroke-linejoin:miter;stroke-miterlimit:2.61310005;stroke-dasharray:none;stroke-opacity:1"
         d="m 451.023,634.023 h 89.192 v -89.418 h -89.192 z" /><path
         id="path106"
         style="fill:none;stroke:#231f20;stroke-width:2.16000009;stroke-linecap:butt;stroke-linejoin:miter;stroke-miterlimit:2.61310005;stroke-dasharray:none;stroke-opacity:1"
         d="m 451.023,544.605 h 89.192 v -89.417 h -89.192 z" /><path
         id="path108"
         style="fill:none;stroke:#231f20;stroke-width:2.16000009;stroke-linecap:butt;stroke-linejoin:miter;stroke-miterlimit:2.61310005;stroke-dasharray:none;stroke-opacity:1"
         d="m 451.023,455.188 h 89.192 v -89.415 h -89.192 z" /><path
         id="path110"
         style="fill:none;stroke:#231f20;stroke-width:2.16000009;stroke-linecap:butt;stroke-linejoin:miter;stroke-miterlimit:2.61310005;stroke-dasharray:none;stroke-opacity:1"
         d="m 451.023,365.773 h 89.192 v -89.418 h -89.192 z" /><path
         id="path112"
         style="fill:none;stroke:#231f20;stroke-width:2.16000009;stroke-linecap:butt;stroke-linejoin:miter;stroke-miterlimit:2.61310005;stroke-dasharray:none;stroke-opacity:1"
         d="m 451.023,276.355 h 89.192 v -89.417 h -89.192 z" /><path
         id="path114"
         style="fill:none;stroke:#231f20;stroke-width:2.16000009;stroke-linecap:butt;stroke-linejoin:miter;stroke-miterlimit:2.61310005;stroke-dasharray:none;stroke-opacity:1"
         d="m 451.023,186.938 h 89.192 V 97.5195 h -89.192 z" /><path
         id="path116"
         style="fill:none;stroke:#231f20;stroke-width:2.16000009;stroke-linecap:butt;stroke-linejoin:miter;stroke-miterlimit:2.61310005;stroke-dasharray:none;stroke-opacity:1"
         d="m 451.023,97.5195 h 89.192 V 8.10547 h -89.192 z" /><path
         id="path118"
         style="fill:none;stroke:#231f20;stroke-width:2.16000009;stroke-linecap:butt;stroke-linejoin:miter;stroke-miterlimit:2.61310005;stroke-dasharray:none;stroke-opacity:1"
         d="m 540.215,723.438 h 89.187 v -89.415 h -89.187 z" /><path
         id="path120"
         style="fill:none;stroke:#231f20;stroke-width:2.16000009;stroke-linecap:butt;stroke-linejoin:miter;stroke-miterlimit:2.61310005;stroke-dasharray:none;stroke-opacity:1"
         d="m 540.215,634.023 h 89.187 v -89.418 h -89.187 z" /><path
         id="path122"
         style="fill:none;stroke:#231f20;stroke-width:2.16000009;stroke-linecap:butt;stroke-linejoin:miter;stroke-miterlimit:2.61310005;stroke-dasharray:none;stroke-opacity:1"
         d="m 540.215,544.605 h 89.187 v -89.417 h -89.187 z" /><path
         id="path124"
         style="fill:none;stroke:#231f20;stroke-width:2.16000009;stroke-linecap:butt;stroke-linejoin:miter;stroke-miterlimit:2.61310005;stroke-dasharray:none;stroke-opacity:1"
         d="m 540.215,455.188 h 89.187 v -89.415 h -89.187 z" /><path
         id="path126"
         style="fill:none;stroke:#231f20;stroke-width:2.16000009;stroke-linecap:butt;stroke-linejoin:miter;stroke-miterlimit:2.61310005;stroke-dasharray:none;stroke-opacity:1"
         d="m 540.215,365.773 h 89.187 v -89.418 h -89.187 z" /><path
         id="path128"
         style="fill:none;stroke:#231f20;stroke-width:2.16000009;stroke-linecap:butt;stroke-linejoin:miter;stroke-miterlimit:2.61310005;stroke-dasharray:none;stroke-opacity:1"
         d="m 540.215,276.355 h 89.187 v -89.417 h -89.187 z" /><path
         id="path130"
         style="fill:none;stroke:#231f20;stroke-width:2.16000009;stroke-linecap:butt;stroke-linejoin:miter;stroke-miterlimit:2.61310005;stroke-dasharray:none;stroke-opacity:1"
         d="m 540.215,186.938 h 89.187 V 97.5195 h -89.187 z" /><path
         id="path132"
         style="fill:none;stroke:#231f20;stroke-width:2.16000009;stroke-linecap:butt;stroke-linejoin:miter;stroke-miterlimit:2.61310005;stroke-dasharray:none;stroke-opacity:1"
         d="m 540.215,97.5195 h 89.187 V 8.10547 h -89.187 z" /><path
         id="path134"
         style="fill:none;stroke:#231f20;stroke-width:2.16000009;stroke-linecap:butt;stroke-linejoin:miter;stroke-miterlimit:2.61310005;stroke-dasharray:none;stroke-opacity:1"
         d="m 629.402,723.438 h 89.196 v -89.415 h -89.196 z" /><path
         id="path136"
         style="fill:none;stroke:#231f20;stroke-width:2.16000009;stroke-linecap:butt;stroke-linejoin:miter;stroke-miterlimit:2.61310005;stroke-dasharray:none;stroke-opacity:1"
         d="m 629.402,634.023 h 89.196 v -89.418 h -89.196 z" /><path
         id="path138"
         style="fill:none;stroke:#231f20;stroke-width:2.16000009;stroke-linecap:butt;stroke-linejoin:miter;stroke-miterlimit:2.61310005;stroke-dasharray:none;stroke-opacity:1"
         d="m 629.402,544.605 h 89.196 v -89.417 h -89.196 z" /><path
         id="path140"
         style="fill:none;stroke:#231f20;stroke-width:2.16000009;stroke-linecap:butt;stroke-linejoin:miter;stroke-miterlimit:2.61310005;stroke-dasharray:none;stroke-opacity:1"
         d="m 629.402,455.188 h 89.196 v -89.415 h -89.196 z" /><path
         id="path142"
         style="fill:none;stroke:#231f20;stroke-width:2.16000009;stroke-linecap:butt;stroke-linejoin:miter;stroke-miterlimit:2.61310005;stroke-dasharray:none;stroke-opacity:1"
         d="m 629.402,365.773 h 89.196 v -89.418 h -89.196 z" /><path
         id="path144"
         style="fill:none;stroke:#231f20;stroke-width:2.16000009;stroke-linecap:butt;stroke-linejoin:miter;stroke-miterlimit:2.61310005;stroke-dasharray:none;stroke-opacity:1"
         d="m 629.402,276.355 h 89.196 v -89.417 h -89.196 z" /><path
         id="path146"
         style="fill:none;stroke:#231f20;stroke-width:2.16000009;stroke-linecap:butt;stroke-linejoin:miter;stroke-miterlimit:2.61310005;stroke-dasharray:none;stroke-opacity:1"
         d="m 629.402,186.938 h 89.196 V 97.5195 h -89.196 z" /><path
         id="path148"
         style="fill:none;stroke:#231f20;stroke-width:2.16000009;stroke-linecap:butt;stroke-linejoin:miter;stroke-miterlimit:2.61310005;stroke-dasharray:none;stroke-opacity:1"
         d="m 629.402,97.5195 h 89.196 V 8.10547 h -89.196 z" /><path
         id="path150"
         style="fill:none;stroke:#231f20;stroke-width:7.5005002;stroke-linecap:butt;stroke-linejoin:miter;stroke-miterlimit:2.61310005;stroke-dasharray:none;stroke-opacity:1"
         d="m 362.984,617.574 c 138.266,0 250.395,-112.785 250.395,-251.859 0,-139.078 -112.129,-251.86 -250.395,-251.86 -138.269,0 -250.394,112.782 -250.394,251.86 0,139.074 112.125,251.859 250.394,251.859 z" /><path
         id="path152"
         style="fill:none;stroke:#231f20;stroke-width:7.5005002;stroke-linecap:butt;stroke-linejoin:miter;stroke-miterlimit:2.61310005;stroke-dasharray:none;stroke-opacity:1"
         d="M 363.309,617.566 595.391,455.188 362.98,113.855" /><path
         id="path154"
         style="fill:#231f20;fill-opacity:1;fill-rule:evenodd;stroke:none"
         d="m 361.832,374.789 c 4.949,0 8.965,-4.035 8.965,-9.016 0,-4.98 -4.016,-9.019 -8.965,-9.019 -4.949,0 -8.965,4.039 -8.965,9.019 0,4.981 4.016,9.016 8.965,9.016" /><path
         id="path156"
         style="fill:none;stroke:#231f20;stroke-width:7.5005002;stroke-linecap:butt;stroke-linejoin:miter;stroke-miterlimit:2.61310005;stroke-dasharray:none;stroke-opacity:1"
         d="m 361.832,374.789 c 4.949,0 8.965,-4.035 8.965,-9.016 0,-4.98 -4.016,-9.019 -8.965,-9.019 -4.949,0 -8.965,4.039 -8.965,9.019 0,4.981 4.016,9.016 8.965,9.016 z" /></g></g></svg>