<?xml version="1.0" encoding="UTF-8" standalone="no"?>
<svg
   xmlns:dc="http://purl.org/dc/elements/1.1/"
   xmlns:cc="http://creativecommons.org/ns#"
   xmlns:rdf="http://www.w3.org/1999/02/22-rdf-syntax-ns#"
   xmlns:svg="http://www.w3.org/2000/svg"
   xmlns="http://www.w3.org/2000/svg"
   viewBox="0 0 120 86.666664"
   height="86.666664"
   width="120"
   xml:space="preserve"
   id="svg2"
   version="1.1"><metadata
     id="metadata8"><rdf:RDF><cc:Work
         rdf:about=""><dc:format>image/svg+xml</dc:format><dc:type
           rdf:resource="http://purl.org/dc/dcmitype/StillImage" /></cc:Work></rdf:RDF></metadata><defs
     id="defs6" /><g
     transform="matrix(1.3333333,0,0,-1.3333333,0,86.666667)"
     id="g10"><g
       transform="scale(0.1)"
       id="g12"><path
         id="path14"
         style="fill:none;stroke:#231f20;stroke-width:7.5005002;stroke-linecap:butt;stroke-linejoin:miter;stroke-miterlimit:2.61310005;stroke-dasharray:none;stroke-opacity:1"
         d="M 89.0313,95.5313 H 804.156" /><path
         id="path16"
         style="fill:none;stroke:#231f20;stroke-width:7.5005002;stroke-linecap:butt;stroke-linejoin:miter;stroke-miterlimit:2.61310005;stroke-dasharray:none;stroke-opacity:1"
         d="M 330.441,563.543 802.184,94.8047" /><path
         id="path18"
         style="fill:none;stroke:#231f20;stroke-width:7.5005002;stroke-linecap:butt;stroke-linejoin:miter;stroke-miterlimit:2.61310005;stroke-dasharray:none;stroke-opacity:1"
         d="M 330.441,563.543 89.0313,95.5313" /><path
         id="path20"
         style="fill:none;stroke:#231f20;stroke-width:7.5005002;stroke-linecap:butt;stroke-linejoin:miter;stroke-miterlimit:2.61310005;stroke-dasharray:none;stroke-opacity:1"
         d="M 566.773,325.961 448.5,96.6523" /><path
         id="path22"
         style="fill:#231f20;fill-opacity:1;fill-rule:nonzero;stroke:none"
         d="M 63.8164,140.656 58.7852,85.5938 c -0.2696,-2.586 -0.3829,-4.2696 -0.3829,-5.086 0,-1.3008 0.2305,-2.3008 0.7344,-2.9844 0.6133,-0.9296 1.4453,-1.6328 2.5,-2.0976 1.0664,-0.4531 2.8477,-0.6836 5.3477,-0.6836 L 66.4531,72.9414 H 40.3828 l 0.5352,1.8008 h 1.1172 c 2.1171,0 3.8515,0.4648 5.1836,1.3672 0.9335,0.6328 1.6679,1.6484 2.1992,3.082 0.3476,1.0195 0.6992,3.3828 1.0195,7.1328 l 0.7813,8.4024 H 32.2695 l -6.7343,-9.1328 c -1.5313,-2.0547 -2.4844,-3.5352 -2.8829,-4.418 -0.3828,-0.9024 -0.5859,-1.7344 -0.5859,-2.5156 0,-1.0547 0.418,-1.9336 1.2695,-2.6875 0.8477,-0.7461 2.25,-1.1641 4.1993,-1.2305 L 27.0039,72.9414 H 7.41797 l 0.53125,1.8008 c 2.41798,0.0976 4.53518,0.9141 6.38668,2.418 1.8321,1.5156 4.5664,4.7461 8.2149,9.6992 L 62.1016,140.656 Z M 54.1523,124.406 34.9492,98.293 h 16.6524 z" /><path
         id="path24"
         style="fill:#231f20;fill-opacity:1;fill-rule:nonzero;stroke:none"
         d="m 431.32,68.6016 h 26.067 c 6.832,0 11.949,-1.4844 15.332,-4.418 3.383,-2.9492 5.086,-6.5508 5.086,-10.7656 0,-3.3672 -1.086,-6.6172 -3.235,-9.7696 -2.152,-3.164 -5.336,-5.7343 -9.566,-7.6953 C 460.77,33.9844 456.203,33 451.285,33 c -3.066,0 -6.949,0.5508 -11.668,1.668 l -5.281,-18.0703 c -1.234,-4.2969 -1.848,-7.12895 -1.848,-8.49614 0,-1.05078 0.434,-1.90234 1.313,-2.58593 0.887,-0.69922 2.984,-1.12891 6.304,-1.33204 l -0.488,-1.80078 h -26.332 l 0.551,1.80078 c 3.449,0 5.852,0.60157 7.199,1.78516 1.352,1.19531 2.801,4.46485 4.367,9.84765 L 436.336,53.5 c 1.301,4.5313 1.949,7.5664 1.949,9.082 0,1.1524 -0.449,2.0821 -1.383,2.836 -0.933,0.7461 -2.968,1.1992 -6.132,1.3672 z m 9.114,-30.8672 c 3.687,-0.9492 6.652,-1.418 8.902,-1.418 3.535,0 6.766,0.7344 9.684,2.1992 2.918,1.4688 5.199,3.668 6.832,6.586 1.652,2.9297 2.468,5.9804 2.468,9.1328 0,3.3008 -1,5.8984 -3.015,7.8164 -2.035,1.914 -5.086,2.8828 -9.188,2.8828 -2.215,0 -4.898,-0.2852 -8.066,-0.8359 l -7.617,-26.3633" /><path
         id="path26"
         style="fill:#231f20;fill-opacity:1;fill-rule:nonzero;stroke:none"
         d="m 893.219,154.996 -4.934,-21.433 h -1.769 l -0.18,5.382 c -0.168,1.95 -0.551,3.684 -1.133,5.215 -0.586,1.535 -1.469,2.852 -2.633,3.985 -1.168,1.117 -2.652,2 -4.453,2.636 -1.781,0.629 -3.765,0.949 -5.949,0.949 -5.832,0 -10.914,-1.601 -15.285,-4.785 -5.567,-4.066 -9.93,-9.816 -13.082,-17.23 -2.598,-6.117 -3.914,-12.317 -3.914,-18.602 0,-6.418 1.879,-11.5349 5.613,-15.3669 3.75,-3.8164 8.617,-5.7344 14.602,-5.7344 4.531,0 8.566,1.0156 12.082,3.0313 3.535,2.0195 6.82,5.1172 9.851,9.32 h 2.281 c -3.566,-5.7028 -7.546,-9.8864 -11.898,-12.5661 -4.367,-2.6836 -9.602,-4.0352 -15.684,-4.0352 -5.402,0 -10.183,1.1328 -14.347,3.3985 -4.168,2.2695 -7.352,5.4336 -9.516,9.5507 -2.187,4.1021 -3.285,8.5001 -3.285,13.2341 0,7.219 1.949,14.25 5.816,21.086 3.864,6.828 9.184,12.211 15.93,16.114 6.77,3.898 13.566,5.851 20.453,5.851 3.215,0 6.832,-0.75 10.832,-2.281 1.75,-0.652 3.035,-0.985 3.801,-0.985 0.781,0 1.465,0.165 2.066,0.481 0.582,0.336 1.551,1.266 2.918,2.785 h 1.817" /><path
         id="path28"
         style="fill:#231f20;fill-opacity:1;fill-rule:nonzero;stroke:none"
         d="m 618.348,407.641 20.449,-51.914 11.086,38.781 c 0.918,3.183 1.363,5.648 1.363,7.414 0,1.203 -0.414,2.152 -1.262,2.836 -0.851,0.683 -2.418,1.015 -4.734,1.015 -0.383,0 -0.801,0.016 -1.219,0.051 l 0.535,1.817 h 21.282 l -0.582,-1.817 c -2.219,0.035 -3.852,-0.183 -4.934,-0.683 -1.535,-0.684 -2.668,-1.567 -3.414,-2.633 -1.035,-1.535 -2.102,-4.203 -3.172,-8 l -15.582,-54.602 h -1.746 l -22.035,55.867 -11.766,-41.265 c -0.867,-3.117 -1.32,-5.52 -1.32,-7.168 0,-1.25 0.402,-2.184 1.199,-2.813 0.805,-0.636 2.703,-1.07 5.684,-1.304 l -0.481,-1.797 h -20.801 l 0.684,1.797 c 2.598,0.07 4.352,0.3 5.234,0.683 1.332,0.602 2.317,1.352 2.965,2.301 0.949,1.434 2.004,4.199 3.184,8.301 l 13.133,46.051 c -1.266,1.949 -2.633,3.296 -4.082,4.031 -1.45,0.719 -3.7,1.137 -6.77,1.234 l 0.555,1.817 h 16.547" /><path
         id="path30"
         style="fill:#231f20;fill-opacity:1;fill-rule:nonzero;stroke:none"
         d="m 295.273,639.883 0.684,1.816 h 23.633 c 3.969,0 7.5,-0.621 10.617,-1.871 3.102,-1.23 5.434,-2.945 6.984,-5.164 1.547,-2.215 2.317,-4.566 2.317,-7.035 0,-3.816 -1.383,-7.246 -4.133,-10.332 -2.754,-3.067 -7.234,-5.348 -13.449,-6.801 4.015,-1.5 6.949,-3.48 8.847,-5.965 1.883,-2.465 2.832,-5.183 2.832,-8.148 0,-3.285 -0.847,-6.434 -2.546,-9.434 -1.684,-2.984 -3.868,-5.316 -6.52,-6.965 -2.648,-1.668 -5.848,-2.886 -9.598,-3.668 -2.668,-0.55 -6.836,-0.836 -12.503,-0.836 h -24.262 l 0.633,1.801 c 2.55,0.067 4.265,0.317 5.183,0.735 1.297,0.566 2.231,1.297 2.781,2.199 0.786,1.234 1.817,4.066 3.118,8.5 l 11.863,40.082 c 1.019,3.387 1.519,5.766 1.519,7.137 0,1.199 -0.449,2.148 -1.332,2.847 -0.898,0.699 -2.601,1.047 -5.117,1.047 -0.551,0 -1.066,0.02 -1.551,0.055 z m 9.903,-27.485 c 2.113,-0.066 3.648,-0.101 4.597,-0.101 6.77,0 11.801,1.469 15.118,4.418 3.297,2.949 4.949,6.633 4.949,11.066 0,3.348 -1.016,5.965 -3.035,7.832 -2.016,1.867 -5.231,2.801 -9.664,2.801 -1.168,0 -2.664,-0.184 -4.485,-0.582 z m -9.621,-32.617 c 3.519,-0.468 6.269,-0.683 8.254,-0.683 5.082,0 9.582,1.535 13.496,4.586 3.937,3.066 5.886,7.214 5.886,12.449 0,4 -1.203,7.129 -3.632,9.383 -2.418,2.25 -6.332,3.367 -11.735,3.367 -1.051,0 -2.316,-0.051 -3.816,-0.153 l -8.453,-28.949" /></g></g></svg>