<?xml version="1.0" encoding="UTF-8" standalone="no"?>
<svg
   xmlns:dc="http://purl.org/dc/elements/1.1/"
   xmlns:cc="http://creativecommons.org/ns#"
   xmlns:rdf="http://www.w3.org/1999/02/22-rdf-syntax-ns#"
   xmlns:svg="http://www.w3.org/2000/svg"
   xmlns="http://www.w3.org/2000/svg"
   viewBox="0 0 116 62.666668"
   height="62.666668"
   width="116"
   xml:space="preserve"
   id="svg2"
   version="1.1"><metadata
     id="metadata8"><rdf:RDF><cc:Work
         rdf:about=""><dc:format>image/svg+xml</dc:format><dc:type
           rdf:resource="http://purl.org/dc/dcmitype/StillImage" /></cc:Work></rdf:RDF></metadata><defs
     id="defs6" /><g
     transform="matrix(1.3333333,0,0,-1.3333333,0,62.666667)"
     id="g10"><g
       transform="scale(0.1)"
       id="g12"><path
         id="path14"
         style="fill:#231f20;fill-opacity:1;fill-rule:nonzero;stroke:none"
         d="M 65.3633,100.93 60.3281,45.8633 c -0.2656,-2.586 -0.3828,-4.2695 -0.3828,-5.086 0,-1.2968 0.2344,-2.2968 0.7344,-2.9804 0.6172,-0.9336 1.4492,-1.6328 2.5,-2.1016 1.0664,-0.4492 2.8516,-0.6836 5.3516,-0.6836 L 67.9961,33.2109 H 41.9297 l 0.5351,1.8008 h 1.1172 c 2.1172,0 3.8516,0.4688 5.1836,1.3672 0.9297,0.6328 1.6641,1.6484 2.1992,3.082 0.3477,1.0196 0.6993,3.3829 1.0157,7.1329 l 0.7851,8.4023 H 33.8164 l -6.7383,-9.1328 c -1.5273,-2.0508 -2.4804,-3.5352 -2.8828,-4.418 -0.3828,-0.8984 -0.582,-1.7344 -0.582,-2.5156 0,-1.0508 0.418,-1.9336 1.2656,-2.6836 0.8516,-0.75 2.2539,-1.1641 4.2031,-1.2344 L 28.5469,33.2109 H 8.96484 l 0.53125,1.8008 c 2.41801,0.1016 4.53521,0.918 6.38281,2.418 1.8359,1.5156 4.5664,4.75 8.2188,9.6992 L 63.6445,100.93 Z M 55.6992,84.6758 36.4961,58.5625 h 16.6523 z" /><path
         id="path16"
         style="fill:#231f20;fill-opacity:1;fill-rule:nonzero;stroke:none"
         d="m 868.652,444.734 -4.933,-21.433 h -1.77 l -0.179,5.383 c -0.168,1.949 -0.551,3.683 -1.133,5.214 -0.586,1.536 -1.469,2.852 -2.637,3.989 -1.168,1.113 -2.648,1.996 -4.449,2.633 -1.781,0.632 -3.766,0.949 -5.949,0.949 -5.832,0 -10.914,-1.602 -15.286,-4.785 -5.566,-4.067 -9.929,-9.817 -13.082,-17.231 -2.597,-6.117 -3.914,-12.316 -3.914,-18.601 0,-6.418 1.879,-11.536 5.614,-15.368 3.75,-3.816 8.617,-5.734 14.601,-5.734 4.531,0 8.567,1.02 12.082,3.035 3.535,2.016 6.821,5.113 9.852,9.317 h 2.281 c -3.566,-5.704 -7.547,-9.887 -11.898,-12.567 -4.368,-2.683 -9.602,-4.035 -15.684,-4.035 -5.402,0 -10.184,1.137 -14.348,3.398 -4.168,2.27 -7.351,5.434 -9.519,9.551 -2.184,4.102 -3.285,8.5 -3.285,13.235 0,7.218 1.953,14.25 5.82,21.086 3.863,6.832 9.184,12.214 15.93,16.113 6.769,3.902 13.566,5.851 20.453,5.851 3.215,0 6.832,-0.75 10.832,-2.281 1.75,-0.652 3.035,-0.984 3.801,-0.984 0.781,0 1.464,0.164 2.066,0.48 0.582,0.336 1.551,1.27 2.918,2.785 h 1.816" /><path
         id="path18"
         style="fill:#231f20;fill-opacity:1;fill-rule:nonzero;stroke:none"
         d="m 145.805,464.422 0.683,1.816 h 23.633 c 3.965,0 7.496,-0.617 10.617,-1.867 3.102,-1.234 5.434,-2.949 6.985,-5.168 1.547,-2.215 2.316,-4.566 2.316,-7.035 0,-3.813 -1.387,-7.246 -4.133,-10.332 -2.754,-3.066 -7.234,-5.348 -13.453,-6.797 4.02,-1.5 6.953,-3.484 8.852,-5.969 1.883,-2.465 2.832,-5.179 2.832,-8.148 0,-3.285 -0.848,-6.434 -2.551,-9.434 -1.684,-2.984 -3.863,-5.316 -6.516,-6.965 -2.648,-1.668 -5.851,-2.886 -9.601,-3.668 -2.668,-0.55 -6.832,-0.835 -12.5,-0.835 h -24.262 l 0.629,1.8 c 2.551,0.071 4.266,0.321 5.187,0.735 1.297,0.566 2.231,1.3 2.782,2.199 0.781,1.234 1.816,4.066 3.117,8.5 l 11.863,40.082 c 1.02,3.387 1.516,5.766 1.516,7.137 0,1.199 -0.446,2.148 -1.332,2.847 -0.899,0.7 -2.598,1.051 -5.114,1.051 -0.55,0 -1.066,0.016 -1.55,0.051 z m 9.898,-27.484 c 2.117,-0.067 3.649,-0.102 4.598,-0.102 6.769,0 11.801,1.469 15.117,4.418 3.301,2.949 4.953,6.633 4.953,11.066 0,3.352 -1.016,5.965 -3.035,7.836 -2.016,1.864 -5.234,2.801 -9.668,2.801 -1.164,0 -2.664,-0.187 -4.48,-0.586 z m -9.617,-32.618 c 3.519,-0.465 6.269,-0.683 8.254,-0.683 5.082,0 9.578,1.535 13.496,4.586 3.934,3.066 5.887,7.215 5.887,12.449 0,4 -1.203,7.133 -3.637,9.383 -2.418,2.25 -6.332,3.367 -11.731,3.367 -1.05,0 -2.32,-0.051 -3.82,-0.152 l -8.449,-28.95" /><path
         id="path20"
         style="fill:none;stroke:#231f20;stroke-width:7.5005002;stroke-linecap:butt;stroke-linejoin:miter;stroke-miterlimit:2.61310005;stroke-dasharray:none;stroke-opacity:1"
         d="M 202.652,399.957 H 780.613" /><path
         id="path22"
         style="fill:none;stroke:#231f20;stroke-width:7.5005002;stroke-linecap:butt;stroke-linejoin:miter;stroke-miterlimit:2.61310005;stroke-dasharray:none;stroke-opacity:1"
         d="M 202.652,399.957 87.0625,52.3047" /><path
         id="path24"
         style="fill:none;stroke:#231f20;stroke-width:7.5005002;stroke-linecap:butt;stroke-linejoin:miter;stroke-miterlimit:2.61310005;stroke-dasharray:none;stroke-opacity:1"
         d="M 780.613,399.957 665.02,52.3047" /><path
         id="path26"
         style="fill:none;stroke:#231f20;stroke-width:7.5005002;stroke-linecap:butt;stroke-linejoin:miter;stroke-miterlimit:2.61310005;stroke-dasharray:none;stroke-opacity:1"
         d="M 87.0625,52.3047 H 665.02" /><path
         id="path28"
         style="fill:none;stroke:#231f20;stroke-width:7.5005002;stroke-linecap:butt;stroke-linejoin:miter;stroke-miterlimit:2.61310005;stroke-dasharray:none;stroke-opacity:1"
         d="M 90.75,55.9805 723.465,224.301" /><path
         id="path30"
         style="fill:#231f20;fill-opacity:1;fill-rule:nonzero;stroke:none"
         d="m 696.598,72.6523 0.586,1.8165 h 21.148 c 8.949,0 15.582,-1.0352 19.883,-3.0821 4.316,-2.0508 7.765,-5.2851 10.332,-9.6836 2.57,-4.4179 3.867,-9.1523 3.867,-14.1992 0,-4.3164 -0.75,-8.5351 -2.234,-12.6172 -1.481,-4.0859 -3.149,-7.3515 -5.032,-9.8164 -1.867,-2.4531 -4.734,-5.168 -8.617,-8.1328 -3.867,-2.9492 -8.066,-5.1523 -12.582,-6.5664 -4.535,-1.41797 -10.183,-2.11719 -16.953,-2.11719 h -28.031 l 0.633,1.80079 c 2.582,0.0664 4.3,0.3008 5.183,0.6797 1.301,0.5703 2.266,1.3203 2.883,2.2539 0.934,1.3633 2,4.1133 3.168,8.2461 l 11.715,40.0508 c 0.918,3.1484 1.367,5.6328 1.367,7.4179 0,1.2657 -0.418,2.25 -1.266,2.9336 -0.847,0.6797 -2.5,1.0156 -4.98,1.0156 z M 713.93,70.8008 699.582,21.2344 c -1.082,-3.6992 -1.617,-5.9961 -1.617,-6.8828 0,-0.5157 0.168,-1.0157 0.519,-1.5157 0.329,-0.4843 0.797,-0.7968 1.383,-0.9648 0.848,-0.3008 2.215,-0.4531 4.098,-0.4531 5.117,0 9.867,0.5351 14.234,1.6015 4.383,1.0508 7.965,2.6172 10.766,4.7032 3.984,3.0312 7.148,7.1992 9.535,12.4961 2.367,5.3164 3.547,11.3476 3.547,18.1171 0,7.6485 -1.817,13.3477 -5.465,17.0664 -3.633,3.7305 -8.969,5.6016 -15.965,5.6016 -1.719,0 -3.953,-0.0703 -6.687,-0.2031" /><path
         id="path32"
         style="fill:#231f20;fill-opacity:1;fill-rule:nonzero;stroke:none"
         d="m 757.32,256.398 h 26.067 c 6.836,0 11.953,-1.484 15.336,-4.418 3.382,-2.949 5.082,-6.55 5.082,-10.765 0,-3.367 -1.086,-6.617 -3.235,-9.77 -2.148,-3.164 -5.332,-5.734 -9.566,-7.699 -4.234,-1.965 -8.801,-2.949 -13.715,-2.949 -3.066,0 -6.953,0.551 -11.668,1.668 l -5.285,-18.07 c -1.231,-4.297 -1.848,-7.129 -1.848,-8.497 0,-1.05 0.434,-1.902 1.317,-2.585 0.883,-0.7 2.984,-1.129 6.3,-1.333 l -0.484,-1.8 h -26.332 l 0.547,1.8 c 3.453,0 5.852,0.602 7.203,1.782 1.352,1.199 2.801,4.468 4.367,9.851 l 10.934,37.684 c 1.301,4.531 1.949,7.566 1.949,9.082 0,1.152 -0.449,2.082 -1.383,2.836 -0.933,0.746 -2.968,1.199 -6.136,1.363 z m 9.118,-30.867 c 3.683,-0.949 6.648,-1.418 8.902,-1.418 3.531,0 6.765,0.735 9.68,2.2 2.918,1.468 5.203,3.667 6.835,6.585 1.649,2.93 2.465,5.981 2.465,9.133 0,3.301 -1,5.899 -3.015,7.817 -2.035,1.914 -5.086,2.882 -9.184,2.882 -2.215,0 -4.902,-0.285 -8.066,-0.835 l -7.617,-26.364" /><path
         id="path34"
         style="fill:none;stroke:#231f20;stroke-width:7.5005002;stroke-linecap:butt;stroke-linejoin:miter;stroke-miterlimit:2.61310005;stroke-dasharray:none;stroke-opacity:1"
         d="M 202.652,399.953 723.465,224.301" /></g></g></svg>