<?xml version="1.0" encoding="UTF-8" standalone="no"?>
<svg
   xmlns:dc="http://purl.org/dc/elements/1.1/"
   xmlns:cc="http://creativecommons.org/ns#"
   xmlns:rdf="http://www.w3.org/1999/02/22-rdf-syntax-ns#"
   xmlns:svg="http://www.w3.org/2000/svg"
   xmlns="http://www.w3.org/2000/svg"
   viewBox="0 0 142.66667 133.33333"
   height="133.33333"
   width="142.66667"
   xml:space="preserve"
   id="svg2"
   version="1.1"><metadata
     id="metadata8"><rdf:RDF><cc:Work
         rdf:about=""><dc:format>image/svg+xml</dc:format><dc:type
           rdf:resource="http://purl.org/dc/dcmitype/StillImage" /></cc:Work></rdf:RDF></metadata><defs
     id="defs6"><clipPath
       id="clipPath26"
       clipPathUnits="userSpaceOnUse"><path
         style="clip-rule:evenodd"
         id="path24"
         d="M 22.2461,984.922 H 996.598 V 8.10547 H 22.2461 Z" /></clipPath></defs><g
     transform="matrix(1.3333333,0,0,-1.3333333,0,133.33333)"
     id="g10"><g
       transform="scale(0.1)"
       id="g12"><path
         id="path14"
         style="fill:#231f20;fill-opacity:1;fill-rule:nonzero;stroke:none"
         d="m 411.879,585.262 -4.633,-12.75 H 368.18 v 1.801 c 11.484,10.484 19.582,19.05 24.265,25.683 4.684,6.652 7.032,12.719 7.032,18.215 0,4.203 -1.282,7.652 -3.868,10.352 -2.562,2.699 -5.629,4.05 -9.214,4.05 -3.266,0 -6.18,-0.949 -8.766,-2.847 -2.582,-1.903 -4.5,-4.703 -5.731,-8.371 h -1.82 c 0.817,6.019 2.902,10.632 6.285,13.867 3.367,3.218 7.567,4.836 12.614,4.836 5.371,0 9.851,-1.735 13.453,-5.188 3.597,-3.449 5.398,-7.512 5.398,-12.195 0,-3.352 -0.781,-6.719 -2.351,-10.07 -2.399,-5.266 -6.313,-10.848 -11.715,-16.75 -8.102,-8.848 -13.164,-14.18 -15.184,-16.016 h 17.285 c 3.516,0 5.981,0.137 7.399,0.402 1.418,0.25 2.703,0.782 3.832,1.582 1.133,0.801 2.136,1.934 2.984,3.399 h 1.801" /><path
         id="path16"
         style="fill:#231f20;fill-opacity:1;fill-rule:nonzero;stroke:none"
         d="m 421.395,555.863 v 2.153 c 3.351,1.097 5.949,2.812 7.8,5.148 1.836,2.332 2.75,4.801 2.75,7.399 0,0.617 -0.152,1.132 -0.433,1.566 -0.235,0.285 -0.465,0.437 -0.684,0.437 -0.367,0 -1.152,-0.336 -2.351,-0.984 -0.582,-0.285 -1.2,-0.434 -1.848,-0.434 -1.602,0 -2.867,0.465 -3.816,1.418 -0.934,0.95 -1.418,2.247 -1.418,3.895 0,1.602 0.617,2.969 1.835,4.102 1.215,1.152 2.715,1.714 4.465,1.714 2.149,0 4.067,-0.929 5.731,-2.812 1.683,-1.867 2.519,-4.352 2.519,-7.438 0,-3.347 -1.164,-6.464 -3.484,-9.347 -2.332,-2.883 -6.016,-5.149 -11.066,-6.817" /><path
         id="path18"
         style="fill:#231f20;fill-opacity:1;fill-rule:nonzero;stroke:none"
         d="m 460.211,605.863 c -5.231,4.301 -8.613,7.75 -10.129,10.348 -1.504,2.602 -2.269,5.301 -2.269,8.102 0,4.3 1.667,8 4.984,11.117 3.316,3.097 7.73,4.668 13.234,4.668 5.332,0 9.633,-1.45 12.879,-4.352 3.27,-2.902 4.887,-6.199 4.887,-9.918 0,-2.465 -0.867,-5 -2.633,-7.562 -1.75,-2.571 -5.418,-5.602 -10.984,-9.086 5.734,-4.418 9.515,-7.903 11.383,-10.45 2.468,-3.316 3.703,-6.816 3.703,-10.5 0,-4.652 -1.77,-8.632 -5.321,-11.933 -3.547,-3.297 -8.199,-4.953 -13.965,-4.953 -6.285,0 -11.183,1.969 -14.699,5.902 -2.801,3.168 -4.203,6.617 -4.203,10.352 0,2.933 0.985,5.832 2.969,8.715 1.969,2.882 5.348,6.066 10.164,9.55 z m 7.668,5.219 c 3.918,3.516 6.383,6.297 7.434,8.328 1.035,2.035 1.55,4.336 1.55,6.918 0,3.418 -0.949,6.086 -2.867,8.02 -1.933,1.945 -4.551,2.918 -7.867,2.918 -3.316,0 -6.016,-0.973 -8.102,-2.887 -2.082,-1.918 -3.129,-4.168 -3.129,-6.734 0,-1.7 0.434,-3.383 1.297,-5.082 0.852,-1.7 2.082,-3.301 3.684,-4.833 z m -5.367,-7.066 c -2.699,-2.286 -4.699,-4.77 -6,-7.453 -1.297,-2.684 -1.949,-5.598 -1.949,-8.715 0,-4.2 1.132,-7.567 3.433,-10.086 2.301,-2.516 5.219,-3.782 8.766,-3.782 3.519,0 6.332,0.981 8.449,2.985 2.117,1.984 3.168,4.383 3.168,7.215 0,2.351 -0.617,4.453 -1.848,6.3 -2.32,3.45 -6.984,7.965 -14.019,13.536" /><g
         id="g20"><g
           clip-path="url(#clipPath26)"
           id="g22"><path
             id="path28"
             style="fill:none;stroke:#231f20;stroke-width:2.16000009;stroke-linecap:butt;stroke-linejoin:miter;stroke-miterlimit:2.61310005;stroke-dasharray:none;stroke-opacity:1"
             d="M 529.766,-459.516 -446.555,516.805" /><path
             id="path30"
             style="fill:none;stroke:#231f20;stroke-width:2.16000009;stroke-linecap:butt;stroke-linejoin:miter;stroke-miterlimit:2.61310005;stroke-dasharray:none;stroke-opacity:1"
             d="m 550.129,-439.152 -976.32,976.32" /><path
             id="path32"
             style="fill:none;stroke:#231f20;stroke-width:2.16000009;stroke-linecap:butt;stroke-linejoin:miter;stroke-miterlimit:2.61310005;stroke-dasharray:none;stroke-opacity:1"
             d="m 570.492,-418.785 -976.32,976.32" /><path
             id="path34"
             style="fill:none;stroke:#231f20;stroke-width:2.16000009;stroke-linecap:butt;stroke-linejoin:miter;stroke-miterlimit:2.61310005;stroke-dasharray:none;stroke-opacity:1"
             d="m 590.859,-398.422 -976.32,976.32" /><path
             id="path36"
             style="fill:none;stroke:#231f20;stroke-width:2.16000009;stroke-linecap:butt;stroke-linejoin:miter;stroke-miterlimit:2.61310005;stroke-dasharray:none;stroke-opacity:1"
             d="M 611.223,-378.059 -365.098,598.262" /><path
             id="path38"
             style="fill:none;stroke:#231f20;stroke-width:2.16000009;stroke-linecap:butt;stroke-linejoin:miter;stroke-miterlimit:2.61310005;stroke-dasharray:none;stroke-opacity:1"
             d="m 631.59,-357.691 -976.32,976.32" /><path
             id="path40"
             style="fill:none;stroke:#231f20;stroke-width:2.16000009;stroke-linecap:butt;stroke-linejoin:miter;stroke-miterlimit:2.61310005;stroke-dasharray:none;stroke-opacity:1"
             d="m 651.953,-337.328 -976.32,976.32" /><path
             id="path42"
             style="fill:none;stroke:#231f20;stroke-width:2.16000009;stroke-linecap:butt;stroke-linejoin:miter;stroke-miterlimit:2.61310005;stroke-dasharray:none;stroke-opacity:1"
             d="m 672.316,-316.965 -976.32,976.32" /><path
             id="path44"
             style="fill:none;stroke:#231f20;stroke-width:2.16000009;stroke-linecap:butt;stroke-linejoin:miter;stroke-miterlimit:2.61310005;stroke-dasharray:none;stroke-opacity:1"
             d="M 692.684,-296.598 -283.637,679.723" /><path
             id="path46"
             style="fill:none;stroke:#231f20;stroke-width:2.16000009;stroke-linecap:butt;stroke-linejoin:miter;stroke-miterlimit:2.61310005;stroke-dasharray:none;stroke-opacity:1"
             d="m 713.047,-276.234 -976.32,976.32" /><path
             id="path48"
             style="fill:none;stroke:#231f20;stroke-width:2.16000009;stroke-linecap:butt;stroke-linejoin:miter;stroke-miterlimit:2.61310005;stroke-dasharray:none;stroke-opacity:1"
             d="m 733.41,-255.867 -976.32,976.32" /><path
             id="path50"
             style="fill:none;stroke:#231f20;stroke-width:2.16000009;stroke-linecap:butt;stroke-linejoin:miter;stroke-miterlimit:2.61310005;stroke-dasharray:none;stroke-opacity:1"
             d="m 753.777,-235.504 -976.32,976.32" /><path
             id="path52"
             style="fill:none;stroke:#231f20;stroke-width:2.16000009;stroke-linecap:butt;stroke-linejoin:miter;stroke-miterlimit:2.61310005;stroke-dasharray:none;stroke-opacity:1"
             d="M 774.141,-215.141 -202.18,761.18" /><path
             id="path54"
             style="fill:none;stroke:#231f20;stroke-width:2.16000009;stroke-linecap:butt;stroke-linejoin:miter;stroke-miterlimit:2.61310005;stroke-dasharray:none;stroke-opacity:1"
             d="m 794.504,-194.773 -976.32,976.32" /><path
             id="path56"
             style="fill:none;stroke:#231f20;stroke-width:2.16000009;stroke-linecap:butt;stroke-linejoin:miter;stroke-miterlimit:2.61310005;stroke-dasharray:none;stroke-opacity:1"
             d="m 814.871,-174.41 -976.32,976.32" /><path
             id="path58"
             style="fill:none;stroke:#231f20;stroke-width:2.16000009;stroke-linecap:butt;stroke-linejoin:miter;stroke-miterlimit:2.61310005;stroke-dasharray:none;stroke-opacity:1"
             d="m 835.234,-154.047 -976.32,976.32" /><path
             id="path60"
             style="fill:none;stroke:#231f20;stroke-width:2.16000009;stroke-linecap:butt;stroke-linejoin:miter;stroke-miterlimit:2.61310005;stroke-dasharray:none;stroke-opacity:1"
             d="M 855.598,-133.68 -120.723,842.641" /><path
             id="path62"
             style="fill:none;stroke:#231f20;stroke-width:2.16000009;stroke-linecap:butt;stroke-linejoin:miter;stroke-miterlimit:2.61310005;stroke-dasharray:none;stroke-opacity:1"
             d="m 875.965,-113.316 -976.32,976.32" /><path
             id="path64"
             style="fill:none;stroke:#231f20;stroke-width:2.16000009;stroke-linecap:butt;stroke-linejoin:miter;stroke-miterlimit:2.61310005;stroke-dasharray:none;stroke-opacity:1"
             d="M 896.328,-92.9531 -79.9922,883.367" /><path
             id="path66"
             style="fill:none;stroke:#231f20;stroke-width:2.16000009;stroke-linecap:butt;stroke-linejoin:miter;stroke-miterlimit:2.61310005;stroke-dasharray:none;stroke-opacity:1"
             d="M 916.695,-72.5859 -59.625,903.734" /><path
             id="path68"
             style="fill:none;stroke:#231f20;stroke-width:2.16000009;stroke-linecap:butt;stroke-linejoin:miter;stroke-miterlimit:2.61310005;stroke-dasharray:none;stroke-opacity:1"
             d="M 937.059,-52.2227 -39.2617,924.098" /><path
             id="path70"
             style="fill:none;stroke:#231f20;stroke-width:2.16000009;stroke-linecap:butt;stroke-linejoin:miter;stroke-miterlimit:2.61310005;stroke-dasharray:none;stroke-opacity:1"
             d="M 957.422,-31.8594 -18.8984,944.461" /><path
             id="path72"
             style="fill:none;stroke:#231f20;stroke-width:2.16000009;stroke-linecap:butt;stroke-linejoin:miter;stroke-miterlimit:2.61310005;stroke-dasharray:none;stroke-opacity:1"
             d="M 977.789,-11.4922 1.46875,964.828" /><path
             id="path74"
             style="fill:none;stroke:#231f20;stroke-width:2.16000009;stroke-linecap:butt;stroke-linejoin:miter;stroke-miterlimit:2.61310005;stroke-dasharray:none;stroke-opacity:1"
             d="M 998.152,8.87109 21.832,985.191" /><path
             id="path76"
             style="fill:none;stroke:#231f20;stroke-width:2.16000009;stroke-linecap:butt;stroke-linejoin:miter;stroke-miterlimit:2.61310005;stroke-dasharray:none;stroke-opacity:1"
             d="M 1018.52,29.2383 42.1953,1005.56" /><path
             id="path78"
             style="fill:none;stroke:#231f20;stroke-width:2.16000009;stroke-linecap:butt;stroke-linejoin:miter;stroke-miterlimit:2.61310005;stroke-dasharray:none;stroke-opacity:1"
             d="M 1038.88,49.6016 62.5625,1025.92" /><path
             id="path80"
             style="fill:none;stroke:#231f20;stroke-width:2.16000009;stroke-linecap:butt;stroke-linejoin:miter;stroke-miterlimit:2.61310005;stroke-dasharray:none;stroke-opacity:1"
             d="M 1059.25,69.9648 82.9258,1046.29" /><path
             id="path82"
             style="fill:none;stroke:#231f20;stroke-width:2.16000009;stroke-linecap:butt;stroke-linejoin:miter;stroke-miterlimit:2.61310005;stroke-dasharray:none;stroke-opacity:1"
             d="M 1079.61,90.332 103.289,1066.65" /><path
             id="path84"
             style="fill:none;stroke:#231f20;stroke-width:2.16000009;stroke-linecap:butt;stroke-linejoin:miter;stroke-miterlimit:2.61310005;stroke-dasharray:none;stroke-opacity:1"
             d="M 1099.98,110.695 123.656,1087.02" /><path
             id="path86"
             style="fill:none;stroke:#231f20;stroke-width:2.16000009;stroke-linecap:butt;stroke-linejoin:miter;stroke-miterlimit:2.61310005;stroke-dasharray:none;stroke-opacity:1"
             d="M 1120.34,131.059 144.02,1107.38" /><path
             id="path88"
             style="fill:none;stroke:#231f20;stroke-width:2.16000009;stroke-linecap:butt;stroke-linejoin:miter;stroke-miterlimit:2.61310005;stroke-dasharray:none;stroke-opacity:1"
             d="M 1140.7,151.426 164.383,1127.75" /><path
             id="path90"
             style="fill:none;stroke:#231f20;stroke-width:2.16000009;stroke-linecap:butt;stroke-linejoin:miter;stroke-miterlimit:2.61310005;stroke-dasharray:none;stroke-opacity:1"
             d="M 1161.07,171.789 184.75,1148.11" /><path
             id="path92"
             style="fill:none;stroke:#231f20;stroke-width:2.16000009;stroke-linecap:butt;stroke-linejoin:miter;stroke-miterlimit:2.61310005;stroke-dasharray:none;stroke-opacity:1"
             d="M 1181.43,192.152 205.113,1168.47" /><path
             id="path94"
             style="fill:none;stroke:#231f20;stroke-width:2.16000009;stroke-linecap:butt;stroke-linejoin:miter;stroke-miterlimit:2.61310005;stroke-dasharray:none;stroke-opacity:1"
             d="M 1201.8,212.52 225.48,1188.84" /><path
             id="path96"
             style="fill:none;stroke:#231f20;stroke-width:2.16000009;stroke-linecap:butt;stroke-linejoin:miter;stroke-miterlimit:2.61310005;stroke-dasharray:none;stroke-opacity:1"
             d="M 1222.16,232.883 245.844,1209.2" /><path
             id="path98"
             style="fill:none;stroke:#231f20;stroke-width:2.16000009;stroke-linecap:butt;stroke-linejoin:miter;stroke-miterlimit:2.61310005;stroke-dasharray:none;stroke-opacity:1"
             d="M 1242.53,253.246 266.207,1229.57" /><path
             id="path100"
             style="fill:none;stroke:#231f20;stroke-width:2.16000009;stroke-linecap:butt;stroke-linejoin:miter;stroke-miterlimit:2.61310005;stroke-dasharray:none;stroke-opacity:1"
             d="M 1262.89,273.613 286.574,1249.93" /><path
             id="path102"
             style="fill:none;stroke:#231f20;stroke-width:2.16000009;stroke-linecap:butt;stroke-linejoin:miter;stroke-miterlimit:2.61310005;stroke-dasharray:none;stroke-opacity:1"
             d="M 1283.26,293.977 306.938,1270.3" /><path
             id="path104"
             style="fill:none;stroke:#231f20;stroke-width:2.16000009;stroke-linecap:butt;stroke-linejoin:miter;stroke-miterlimit:2.61310005;stroke-dasharray:none;stroke-opacity:1"
             d="M 1303.62,314.344 327.301,1290.66" /><path
             id="path106"
             style="fill:none;stroke:#231f20;stroke-width:2.16000009;stroke-linecap:butt;stroke-linejoin:miter;stroke-miterlimit:2.61310005;stroke-dasharray:none;stroke-opacity:1"
             d="M 1323.99,334.707 347.668,1311.03" /><path
             id="path108"
             style="fill:none;stroke:#231f20;stroke-width:2.16000009;stroke-linecap:butt;stroke-linejoin:miter;stroke-miterlimit:2.61310005;stroke-dasharray:none;stroke-opacity:1"
             d="M 1344.35,355.07 368.031,1331.39" /><path
             id="path110"
             style="fill:none;stroke:#231f20;stroke-width:2.16000009;stroke-linecap:butt;stroke-linejoin:miter;stroke-miterlimit:2.61310005;stroke-dasharray:none;stroke-opacity:1"
             d="M 1364.71,375.438 388.395,1351.76" /><path
             id="path112"
             style="fill:none;stroke:#231f20;stroke-width:2.16000009;stroke-linecap:butt;stroke-linejoin:miter;stroke-miterlimit:2.61310005;stroke-dasharray:none;stroke-opacity:1"
             d="M 1385.08,395.801 408.762,1372.12" /><path
             id="path114"
             style="fill:none;stroke:#231f20;stroke-width:2.16000009;stroke-linecap:butt;stroke-linejoin:miter;stroke-miterlimit:2.61310005;stroke-dasharray:none;stroke-opacity:1"
             d="M 1405.45,416.164 429.125,1392.48" /><path
             id="path116"
             style="fill:none;stroke:#231f20;stroke-width:2.16000009;stroke-linecap:butt;stroke-linejoin:miter;stroke-miterlimit:2.61310005;stroke-dasharray:none;stroke-opacity:1"
             d="M 1425.81,436.531 449.488,1412.85" /><path
             id="path118"
             style="fill:none;stroke:#231f20;stroke-width:2.16000009;stroke-linecap:butt;stroke-linejoin:miter;stroke-miterlimit:2.61310005;stroke-dasharray:none;stroke-opacity:1"
             d="M 1446.18,456.895 469.855,1433.21" /><path
             id="path120"
             style="fill:none;stroke:#231f20;stroke-width:2.16000009;stroke-linecap:butt;stroke-linejoin:miter;stroke-miterlimit:2.61310005;stroke-dasharray:none;stroke-opacity:1"
             d="M 1466.54,477.258 490.219,1453.58" /><path
             id="path122"
             style="fill:none;stroke:#231f20;stroke-width:2.16000009;stroke-linecap:butt;stroke-linejoin:miter;stroke-miterlimit:2.61310005;stroke-dasharray:none;stroke-opacity:1"
             d="M 1486.91,497.625 510.586,1473.95" /></g></g><path
         id="path124"
         style="fill:#ffffff;fill-opacity:1;fill-rule:evenodd;stroke:none"
         d="M 216.039,496.516 460.109,740.215 703.215,496.516 337.832,130.207 216.039,496.516" /><path
         id="path126"
         style="fill:none;stroke:#231f20;stroke-width:7.5005002;stroke-linecap:butt;stroke-linejoin:miter;stroke-miterlimit:2.61310005;stroke-dasharray:none;stroke-opacity:1"
         d="M 216.039,496.516 460.109,740.215 703.215,496.516 337.832,130.207 Z" /><path
         id="path128"
         style="fill:none;stroke:#231f20;stroke-width:5.00029993;stroke-linecap:butt;stroke-linejoin:miter;stroke-miterlimit:2.61310005;stroke-dasharray:25.0015, 15.0009;stroke-dashoffset:0;stroke-opacity:1"
         d="M 221.215,491.938 456.742,254.137" /><path
         id="path130"
         style="fill:#231f20;fill-opacity:1;fill-rule:nonzero;stroke:none"
         d="m 346.965,437.605 c 1.887,4.45 4.265,7.899 7.152,10.317 2.883,2.433 6.465,3.648 10.766,3.648 5.301,0 9.367,-1.73 12.199,-5.183 2.148,-2.567 3.234,-5.313 3.234,-8.25 0,-4.813 -3.035,-9.797 -9.082,-14.93 4.067,-1.602 7.133,-3.883 9.219,-6.852 2.082,-2.949 3.129,-6.433 3.129,-10.449 0,-5.718 -1.816,-10.683 -5.465,-14.883 -4.75,-5.464 -11.637,-8.203 -20.652,-8.203 -4.465,0 -7.496,0.551 -9.117,1.653 -1.598,1.117 -2.414,2.3 -2.414,3.566 0,0.949 0.382,1.785 1.148,2.5 0.77,0.719 1.684,1.066 2.766,1.066 0.804,0 1.636,-0.132 2.488,-0.382 0.551,-0.168 1.801,-0.77 3.762,-1.782 1.953,-1.035 3.304,-1.636 4.05,-1.836 1.2,-0.363 2.485,-0.531 3.852,-0.531 3.316,0 6.215,1.281 8.668,3.848 2.465,2.566 3.684,5.617 3.684,9.133 0,2.566 -0.571,5.082 -1.704,7.519 -0.847,1.817 -1.781,3.199 -2.781,4.149 -1.398,1.297 -3.32,2.484 -5.765,3.531 -2.434,1.07 -4.934,1.601 -7.469,1.601 h -1.567 v 1.465 c 2.567,0.321 5.149,1.25 7.735,2.785 2.601,1.516 4.48,3.368 5.648,5.516 1.168,2.152 1.75,4.5 1.75,7.067 0,3.367 -1.047,6.066 -3.148,8.132 -2.102,2.071 -4.699,3.102 -7.836,3.102 -5.047,0 -9.25,-2.699 -12.649,-8.098 l -1.601,0.781" /><path
         id="path132"
         style="fill:#ffffff;fill-opacity:1;fill-rule:evenodd;stroke:none"
         d="M 181.344,707.875 H 321.965 V 605.949 H 181.344 v 101.926" /><path
         id="path134"
         style="fill:#231f20;fill-opacity:1;fill-rule:nonzero;stroke:none"
         d="m 1041.3,484.602 c -5.24,4.3 -8.62,7.75 -10.14,10.347 -1.5,2.606 -2.26,5.301 -2.26,8.102 0,4.301 1.66,8 4.98,11.117 3.32,3.098 7.73,4.668 13.23,4.668 5.34,0 9.64,-1.449 12.89,-4.352 3.26,-2.898 4.88,-6.199 4.88,-9.914 0,-2.468 -0.87,-5.004 -2.63,-7.566 -1.75,-2.57 -5.42,-5.602 -10.98,-9.086 5.73,-4.418 9.51,-7.898 11.37,-10.449 2.47,-3.317 3.71,-6.817 3.71,-10.5 0,-4.649 -1.77,-8.633 -5.32,-11.934 -3.55,-3.297 -8.2,-4.949 -13.97,-4.949 -6.28,0 -11.18,1.965 -14.7,5.898 -2.8,3.168 -4.2,6.618 -4.2,10.352 0,2.934 0.98,5.832 2.97,8.715 1.97,2.883 5.35,6.066 10.17,9.551 z m 7.66,5.218 c 3.92,3.516 6.39,6.297 7.43,8.332 1.04,2.036 1.56,4.332 1.56,6.914 0,3.418 -0.95,6.086 -2.87,8.02 -1.93,1.949 -4.55,2.918 -7.87,2.918 -3.31,0 -6.01,-0.969 -8.1,-2.887 -2.08,-1.914 -3.13,-4.168 -3.13,-6.73 0,-1.703 0.43,-3.387 1.3,-5.082 0.85,-1.703 2.08,-3.305 3.68,-4.836 z m -5.36,-7.066 c -2.71,-2.285 -4.7,-4.77 -6,-7.453 -1.3,-2.68 -1.96,-5.598 -1.96,-8.715 0,-4.199 1.14,-7.566 3.44,-10.082 2.3,-2.52 5.22,-3.785 8.77,-3.785 3.51,0 6.33,0.984 8.45,2.984 2.11,1.985 3.16,4.383 3.16,7.215 0,2.352 -0.61,4.453 -1.85,6.301 -2.31,3.449 -6.98,7.969 -14.01,13.535" /><path
         id="path136"
         style="fill:#231f20;fill-opacity:1;fill-rule:nonzero;stroke:none"
         d="m 234.945,637.102 -4.632,-12.75 h -39.067 v 1.8 c 11.484,10.485 19.582,19.051 24.266,25.684 4.683,6.652 7.031,12.719 7.031,18.215 0,4.203 -1.281,7.652 -3.863,10.351 -2.567,2.7 -5.633,4.051 -9.215,4.051 -3.266,0 -6.184,-0.949 -8.77,-2.851 -2.582,-1.899 -4.5,-4.7 -5.73,-8.368 h -1.817 c 0.817,6.02 2.899,10.633 6.282,13.868 3.367,3.218 7.566,4.836 12.617,4.836 5.367,0 9.848,-1.735 13.449,-5.188 3.598,-3.449 5.399,-7.512 5.399,-12.195 0,-3.352 -0.782,-6.719 -2.348,-10.071 -2.402,-5.265 -6.317,-10.847 -11.715,-16.75 -8.102,-8.847 -13.168,-14.179 -15.187,-16.015 h 17.285 c 3.515,0 5.98,0.133 7.398,0.402 1.418,0.25 2.703,0.781 3.832,1.582 1.137,0.801 2.137,1.934 2.985,3.399 h 1.8" /><path
         id="path138"
         style="fill:#231f20;fill-opacity:1;fill-rule:nonzero;stroke:none"
         d="m 244.461,607.703 v 2.152 c 3.352,1.098 5.949,2.813 7.801,5.149 1.836,2.332 2.75,4.801 2.75,7.398 0,0.618 -0.149,1.133 -0.434,1.567 -0.23,0.285 -0.465,0.433 -0.683,0.433 -0.364,0 -1.149,-0.332 -2.348,-0.98 -0.586,-0.285 -1.199,-0.434 -1.852,-0.434 -1.597,0 -2.867,0.465 -3.816,1.414 -0.934,0.953 -1.418,2.25 -1.418,3.899 0,1.601 0.617,2.969 1.836,4.101 1.215,1.153 2.715,1.715 4.465,1.715 2.148,0 4.066,-0.929 5.734,-2.812 1.684,-1.871 2.516,-4.352 2.516,-7.438 0,-3.347 -1.164,-6.465 -3.485,-9.347 -2.332,-2.883 -6.015,-5.149 -11.066,-6.817" /><path
         id="path140"
         style="fill:#231f20;fill-opacity:1;fill-rule:nonzero;stroke:none"
         d="m 283.277,657.703 c -5.23,4.301 -8.613,7.75 -10.129,10.348 -1.503,2.601 -2.269,5.301 -2.269,8.101 0,4.301 1.668,8 4.984,11.118 3.317,3.097 7.735,4.668 13.235,4.668 5.332,0 9.632,-1.45 12.882,-4.352 3.266,-2.902 4.883,-6.199 4.883,-9.918 0,-2.465 -0.867,-5 -2.633,-7.566 -1.75,-2.567 -5.417,-5.598 -10.98,-9.082 5.73,-4.418 9.516,-7.903 11.379,-10.45 2.469,-3.316 3.703,-6.816 3.703,-10.5 0,-4.652 -1.769,-8.632 -5.32,-11.933 -3.547,-3.301 -8.199,-4.953 -13.965,-4.953 -6.285,0 -11.184,1.968 -14.699,5.902 -2.801,3.168 -4.203,6.617 -4.203,10.352 0,2.933 0.984,5.832 2.968,8.714 1.969,2.883 5.348,6.067 10.164,9.551 z m 7.668,5.219 c 3.918,3.512 6.383,6.297 7.434,8.328 1.035,2.035 1.551,4.336 1.551,6.918 0,3.418 -0.95,6.086 -2.867,8.02 -1.934,1.945 -4.547,2.917 -7.864,2.917 -3.316,0 -6.019,-0.972 -8.101,-2.886 -2.086,-1.918 -3.133,-4.168 -3.133,-6.735 0,-1.699 0.433,-3.382 1.297,-5.082 0.851,-1.699 2.082,-3.3 3.683,-4.832 z m -5.363,-7.067 c -2.703,-2.285 -4.703,-4.769 -6.004,-7.453 -1.297,-2.683 -1.949,-5.597 -1.949,-8.718 0,-4.196 1.133,-7.563 3.437,-10.082 2.297,-2.516 5.215,-3.782 8.762,-3.782 3.52,0 6.332,0.981 8.453,2.985 2.117,1.984 3.164,4.383 3.164,7.215 0,2.351 -0.613,4.449 -1.847,6.3 -2.321,3.45 -6.985,7.965 -14.016,13.535" /><path
         id="path142"
         style="fill:#ffffff;fill-opacity:1;fill-rule:evenodd;stroke:none"
         d="M 584.25,374.5 H 724.871 V 272.57 H 584.25 V 374.5" /><path
         id="path144"
         style="fill:#231f20;fill-opacity:1;fill-rule:nonzero;stroke:none"
         d="m 631.563,315.715 v -6.934 h -8.887 v -17.484 h -8.067 v 17.484 h -28.011 v 6.25 l 30.715,43.848 h 5.363 v -43.164 z m -16.954,0 v 32.863 l -23.23,-32.863 z" /><path
         id="path146"
         style="fill:#231f20;fill-opacity:1;fill-rule:nonzero;stroke:none"
         d="m 640.395,274.645 v 2.152 c 3.347,1.101 5.949,2.816 7.8,5.152 1.832,2.332 2.75,4.797 2.75,7.399 0,0.617 -0.152,1.132 -0.433,1.566 -0.235,0.281 -0.465,0.434 -0.684,0.434 -0.367,0 -1.152,-0.336 -2.351,-0.985 -0.582,-0.281 -1.2,-0.433 -1.852,-0.433 -1.598,0 -2.863,0.465 -3.812,1.418 -0.934,0.949 -1.418,2.246 -1.418,3.898 0,1.602 0.617,2.965 1.832,4.102 1.218,1.148 2.714,1.715 4.468,1.715 2.149,0 4.067,-0.934 5.731,-2.817 1.683,-1.867 2.519,-4.351 2.519,-7.433 0,-3.348 -1.168,-6.465 -3.484,-9.348 -2.332,-2.883 -6.016,-5.152 -11.066,-6.82" /><path
         id="path148"
         style="fill:#231f20;fill-opacity:1;fill-rule:nonzero;stroke:none"
         d="m 705.879,304.047 -4.637,-12.75 h -39.066 v 1.801 c 11.488,10.48 19.586,19.047 24.269,25.683 4.684,6.649 7.032,12.715 7.032,18.215 0,4.199 -1.282,7.649 -3.868,10.348 -2.562,2.703 -5.632,4.051 -9.214,4.051 -3.266,0 -6.18,-0.95 -8.766,-2.848 -2.582,-1.902 -4.5,-4.699 -5.731,-8.367 h -1.82 c 0.817,6.015 2.902,10.633 6.281,13.867 3.371,3.215 7.571,4.832 12.618,4.832 5.371,0 9.851,-1.731 13.453,-5.184 3.597,-3.449 5.398,-7.515 5.398,-12.199 0,-3.348 -0.781,-6.719 -2.351,-10.066 -2.399,-5.27 -6.313,-10.848 -11.715,-16.75 -8.102,-8.852 -13.164,-14.184 -15.184,-16.016 h 17.285 c 3.516,0 5.981,0.133 7.399,0.399 1.418,0.25 2.699,0.781 3.832,1.582 1.133,0.8 2.133,1.937 2.984,3.402 h 1.801" /><path
         id="path150"
         style="fill:none;stroke:#231f20;stroke-width:7.5005002;stroke-linecap:butt;stroke-linejoin:miter;stroke-miterlimit:2.61310005;stroke-dasharray:none;stroke-opacity:1"
         d="M 11.6133,995.555 H 996.598 V 8.10547 H 11.6133 Z" /></g></g></svg>