<?xml version="1.0" encoding="UTF-8" standalone="no"?>
<svg
   xmlns:dc="http://purl.org/dc/elements/1.1/"
   xmlns:cc="http://creativecommons.org/ns#"
   xmlns:rdf="http://www.w3.org/1999/02/22-rdf-syntax-ns#"
   xmlns:svg="http://www.w3.org/2000/svg"
   xmlns="http://www.w3.org/2000/svg"
   viewBox="0 0 141.33333 132"
   height="132"
   width="141.33333"
   xml:space="preserve"
   id="svg2"
   version="1.1"><metadata
     id="metadata8"><rdf:RDF><cc:Work
         rdf:about=""><dc:format>image/svg+xml</dc:format><dc:type
           rdf:resource="http://purl.org/dc/dcmitype/StillImage" /></cc:Work></rdf:RDF></metadata><defs
     id="defs6"><clipPath
       id="clipPath20"
       clipPathUnits="userSpaceOnUse"><path
         style="clip-rule:evenodd"
         id="path18"
         d="M 4.24609,984.922 H 978.598 V 8.10547 H 4.24609 Z" /></clipPath></defs><g
     transform="matrix(1.3333333,0,0,-1.3333333,0,132)"
     id="g10"><g
       transform="scale(0.1)"
       id="g12"><g
         id="g14"><g
           clip-path="url(#clipPath20)"
           id="g16"><path
             id="path22"
             style="fill:none;stroke:#231f20;stroke-width:2.16000009;stroke-linecap:butt;stroke-linejoin:miter;stroke-miterlimit:2.61310005;stroke-dasharray:none;stroke-opacity:1"
             d="M 511.766,-459.516 -464.555,516.805" /><path
             id="path24"
             style="fill:none;stroke:#231f20;stroke-width:2.16000009;stroke-linecap:butt;stroke-linejoin:miter;stroke-miterlimit:2.61310005;stroke-dasharray:none;stroke-opacity:1"
             d="m 532.129,-439.152 -976.32,976.32" /><path
             id="path26"
             style="fill:none;stroke:#231f20;stroke-width:2.16000009;stroke-linecap:butt;stroke-linejoin:miter;stroke-miterlimit:2.61310005;stroke-dasharray:none;stroke-opacity:1"
             d="m 552.492,-418.785 -976.32,976.32" /><path
             id="path28"
             style="fill:none;stroke:#231f20;stroke-width:2.16000009;stroke-linecap:butt;stroke-linejoin:miter;stroke-miterlimit:2.61310005;stroke-dasharray:none;stroke-opacity:1"
             d="m 572.859,-398.422 -976.32,976.32" /><path
             id="path30"
             style="fill:none;stroke:#231f20;stroke-width:2.16000009;stroke-linecap:butt;stroke-linejoin:miter;stroke-miterlimit:2.61310005;stroke-dasharray:none;stroke-opacity:1"
             d="M 593.223,-378.059 -383.098,598.262" /><path
             id="path32"
             style="fill:none;stroke:#231f20;stroke-width:2.16000009;stroke-linecap:butt;stroke-linejoin:miter;stroke-miterlimit:2.61310005;stroke-dasharray:none;stroke-opacity:1"
             d="m 613.59,-357.691 -976.32,976.32" /><path
             id="path34"
             style="fill:none;stroke:#231f20;stroke-width:2.16000009;stroke-linecap:butt;stroke-linejoin:miter;stroke-miterlimit:2.61310005;stroke-dasharray:none;stroke-opacity:1"
             d="m 633.953,-337.328 -976.32,976.32" /><path
             id="path36"
             style="fill:none;stroke:#231f20;stroke-width:2.16000009;stroke-linecap:butt;stroke-linejoin:miter;stroke-miterlimit:2.61310005;stroke-dasharray:none;stroke-opacity:1"
             d="m 654.316,-316.965 -976.32,976.32" /><path
             id="path38"
             style="fill:none;stroke:#231f20;stroke-width:2.16000009;stroke-linecap:butt;stroke-linejoin:miter;stroke-miterlimit:2.61310005;stroke-dasharray:none;stroke-opacity:1"
             d="M 674.684,-296.598 -301.637,679.723" /><path
             id="path40"
             style="fill:none;stroke:#231f20;stroke-width:2.16000009;stroke-linecap:butt;stroke-linejoin:miter;stroke-miterlimit:2.61310005;stroke-dasharray:none;stroke-opacity:1"
             d="m 695.047,-276.234 -976.32,976.32" /><path
             id="path42"
             style="fill:none;stroke:#231f20;stroke-width:2.16000009;stroke-linecap:butt;stroke-linejoin:miter;stroke-miterlimit:2.61310005;stroke-dasharray:none;stroke-opacity:1"
             d="m 715.41,-255.867 -976.32,976.32" /><path
             id="path44"
             style="fill:none;stroke:#231f20;stroke-width:2.16000009;stroke-linecap:butt;stroke-linejoin:miter;stroke-miterlimit:2.61310005;stroke-dasharray:none;stroke-opacity:1"
             d="m 735.777,-235.504 -976.32,976.32" /><path
             id="path46"
             style="fill:none;stroke:#231f20;stroke-width:2.16000009;stroke-linecap:butt;stroke-linejoin:miter;stroke-miterlimit:2.61310005;stroke-dasharray:none;stroke-opacity:1"
             d="M 756.141,-215.141 -220.18,761.18" /><path
             id="path48"
             style="fill:none;stroke:#231f20;stroke-width:2.16000009;stroke-linecap:butt;stroke-linejoin:miter;stroke-miterlimit:2.61310005;stroke-dasharray:none;stroke-opacity:1"
             d="m 776.504,-194.773 -976.32,976.32" /><path
             id="path50"
             style="fill:none;stroke:#231f20;stroke-width:2.16000009;stroke-linecap:butt;stroke-linejoin:miter;stroke-miterlimit:2.61310005;stroke-dasharray:none;stroke-opacity:1"
             d="m 796.871,-174.41 -976.32,976.32" /><path
             id="path52"
             style="fill:none;stroke:#231f20;stroke-width:2.16000009;stroke-linecap:butt;stroke-linejoin:miter;stroke-miterlimit:2.61310005;stroke-dasharray:none;stroke-opacity:1"
             d="m 817.234,-154.047 -976.32,976.32" /><path
             id="path54"
             style="fill:none;stroke:#231f20;stroke-width:2.16000009;stroke-linecap:butt;stroke-linejoin:miter;stroke-miterlimit:2.61310005;stroke-dasharray:none;stroke-opacity:1"
             d="M 837.598,-133.68 -138.723,842.641" /><path
             id="path56"
             style="fill:none;stroke:#231f20;stroke-width:2.16000009;stroke-linecap:butt;stroke-linejoin:miter;stroke-miterlimit:2.61310005;stroke-dasharray:none;stroke-opacity:1"
             d="m 857.965,-113.316 -976.32,976.32" /><path
             id="path58"
             style="fill:none;stroke:#231f20;stroke-width:2.16000009;stroke-linecap:butt;stroke-linejoin:miter;stroke-miterlimit:2.61310005;stroke-dasharray:none;stroke-opacity:1"
             d="M 878.328,-92.9531 -97.9922,883.367" /><path
             id="path60"
             style="fill:none;stroke:#231f20;stroke-width:2.16000009;stroke-linecap:butt;stroke-linejoin:miter;stroke-miterlimit:2.61310005;stroke-dasharray:none;stroke-opacity:1"
             d="M 898.695,-72.5859 -77.625,903.734" /><path
             id="path62"
             style="fill:none;stroke:#231f20;stroke-width:2.16000009;stroke-linecap:butt;stroke-linejoin:miter;stroke-miterlimit:2.61310005;stroke-dasharray:none;stroke-opacity:1"
             d="M 919.059,-52.2227 -57.2617,924.098" /><path
             id="path64"
             style="fill:none;stroke:#231f20;stroke-width:2.16000009;stroke-linecap:butt;stroke-linejoin:miter;stroke-miterlimit:2.61310005;stroke-dasharray:none;stroke-opacity:1"
             d="M 939.422,-31.8594 -36.8984,944.461" /><path
             id="path66"
             style="fill:none;stroke:#231f20;stroke-width:2.16000009;stroke-linecap:butt;stroke-linejoin:miter;stroke-miterlimit:2.61310005;stroke-dasharray:none;stroke-opacity:1"
             d="M 959.789,-11.4922 -16.5313,964.828" /><path
             id="path68"
             style="fill:none;stroke:#231f20;stroke-width:2.16000009;stroke-linecap:butt;stroke-linejoin:miter;stroke-miterlimit:2.61310005;stroke-dasharray:none;stroke-opacity:1"
             d="M 980.152,8.87109 3.83203,985.191" /><path
             id="path70"
             style="fill:none;stroke:#231f20;stroke-width:2.16000009;stroke-linecap:butt;stroke-linejoin:miter;stroke-miterlimit:2.61310005;stroke-dasharray:none;stroke-opacity:1"
             d="M 1000.52,29.2383 24.1953,1005.56" /><path
             id="path72"
             style="fill:none;stroke:#231f20;stroke-width:2.16000009;stroke-linecap:butt;stroke-linejoin:miter;stroke-miterlimit:2.61310005;stroke-dasharray:none;stroke-opacity:1"
             d="M 1020.88,49.6016 44.5625,1025.92" /><path
             id="path74"
             style="fill:none;stroke:#231f20;stroke-width:2.16000009;stroke-linecap:butt;stroke-linejoin:miter;stroke-miterlimit:2.61310005;stroke-dasharray:none;stroke-opacity:1"
             d="M 1041.25,69.9648 64.9258,1046.29" /><path
             id="path76"
             style="fill:none;stroke:#231f20;stroke-width:2.16000009;stroke-linecap:butt;stroke-linejoin:miter;stroke-miterlimit:2.61310005;stroke-dasharray:none;stroke-opacity:1"
             d="M 1061.61,90.332 85.2891,1066.65" /><path
             id="path78"
             style="fill:none;stroke:#231f20;stroke-width:2.16000009;stroke-linecap:butt;stroke-linejoin:miter;stroke-miterlimit:2.61310005;stroke-dasharray:none;stroke-opacity:1"
             d="M 1081.98,110.695 105.656,1087.02" /><path
             id="path80"
             style="fill:none;stroke:#231f20;stroke-width:2.16000009;stroke-linecap:butt;stroke-linejoin:miter;stroke-miterlimit:2.61310005;stroke-dasharray:none;stroke-opacity:1"
             d="M 1102.34,131.059 126.02,1107.38" /><path
             id="path82"
             style="fill:none;stroke:#231f20;stroke-width:2.16000009;stroke-linecap:butt;stroke-linejoin:miter;stroke-miterlimit:2.61310005;stroke-dasharray:none;stroke-opacity:1"
             d="M 1122.7,151.426 146.383,1127.75" /><path
             id="path84"
             style="fill:none;stroke:#231f20;stroke-width:2.16000009;stroke-linecap:butt;stroke-linejoin:miter;stroke-miterlimit:2.61310005;stroke-dasharray:none;stroke-opacity:1"
             d="M 1143.07,171.789 166.75,1148.11" /><path
             id="path86"
             style="fill:none;stroke:#231f20;stroke-width:2.16000009;stroke-linecap:butt;stroke-linejoin:miter;stroke-miterlimit:2.61310005;stroke-dasharray:none;stroke-opacity:1"
             d="M 1163.43,192.152 187.113,1168.47" /><path
             id="path88"
             style="fill:none;stroke:#231f20;stroke-width:2.16000009;stroke-linecap:butt;stroke-linejoin:miter;stroke-miterlimit:2.61310005;stroke-dasharray:none;stroke-opacity:1"
             d="M 1183.8,212.52 207.48,1188.84" /><path
             id="path90"
             style="fill:none;stroke:#231f20;stroke-width:2.16000009;stroke-linecap:butt;stroke-linejoin:miter;stroke-miterlimit:2.61310005;stroke-dasharray:none;stroke-opacity:1"
             d="M 1204.16,232.883 227.844,1209.2" /><path
             id="path92"
             style="fill:none;stroke:#231f20;stroke-width:2.16000009;stroke-linecap:butt;stroke-linejoin:miter;stroke-miterlimit:2.61310005;stroke-dasharray:none;stroke-opacity:1"
             d="M 1224.53,253.246 248.207,1229.57" /><path
             id="path94"
             style="fill:none;stroke:#231f20;stroke-width:2.16000009;stroke-linecap:butt;stroke-linejoin:miter;stroke-miterlimit:2.61310005;stroke-dasharray:none;stroke-opacity:1"
             d="M 1244.89,273.613 268.574,1249.93" /><path
             id="path96"
             style="fill:none;stroke:#231f20;stroke-width:2.16000009;stroke-linecap:butt;stroke-linejoin:miter;stroke-miterlimit:2.61310005;stroke-dasharray:none;stroke-opacity:1"
             d="M 1265.26,293.977 288.938,1270.3" /><path
             id="path98"
             style="fill:none;stroke:#231f20;stroke-width:2.16000009;stroke-linecap:butt;stroke-linejoin:miter;stroke-miterlimit:2.61310005;stroke-dasharray:none;stroke-opacity:1"
             d="M 1285.62,314.344 309.301,1290.66" /><path
             id="path100"
             style="fill:none;stroke:#231f20;stroke-width:2.16000009;stroke-linecap:butt;stroke-linejoin:miter;stroke-miterlimit:2.61310005;stroke-dasharray:none;stroke-opacity:1"
             d="M 1305.99,334.707 329.668,1311.03" /><path
             id="path102"
             style="fill:none;stroke:#231f20;stroke-width:2.16000009;stroke-linecap:butt;stroke-linejoin:miter;stroke-miterlimit:2.61310005;stroke-dasharray:none;stroke-opacity:1"
             d="M 1326.35,355.07 350.031,1331.39" /><path
             id="path104"
             style="fill:none;stroke:#231f20;stroke-width:2.16000009;stroke-linecap:butt;stroke-linejoin:miter;stroke-miterlimit:2.61310005;stroke-dasharray:none;stroke-opacity:1"
             d="M 1346.71,375.438 370.395,1351.76" /><path
             id="path106"
             style="fill:none;stroke:#231f20;stroke-width:2.16000009;stroke-linecap:butt;stroke-linejoin:miter;stroke-miterlimit:2.61310005;stroke-dasharray:none;stroke-opacity:1"
             d="M 1367.08,395.801 390.762,1372.12" /><path
             id="path108"
             style="fill:none;stroke:#231f20;stroke-width:2.16000009;stroke-linecap:butt;stroke-linejoin:miter;stroke-miterlimit:2.61310005;stroke-dasharray:none;stroke-opacity:1"
             d="M 1387.45,416.164 411.125,1392.48" /><path
             id="path110"
             style="fill:none;stroke:#231f20;stroke-width:2.16000009;stroke-linecap:butt;stroke-linejoin:miter;stroke-miterlimit:2.61310005;stroke-dasharray:none;stroke-opacity:1"
             d="M 1407.81,436.531 431.488,1412.85" /><path
             id="path112"
             style="fill:none;stroke:#231f20;stroke-width:2.16000009;stroke-linecap:butt;stroke-linejoin:miter;stroke-miterlimit:2.61310005;stroke-dasharray:none;stroke-opacity:1"
             d="M 1428.18,456.895 451.855,1433.21" /><path
             id="path114"
             style="fill:none;stroke:#231f20;stroke-width:2.16000009;stroke-linecap:butt;stroke-linejoin:miter;stroke-miterlimit:2.61310005;stroke-dasharray:none;stroke-opacity:1"
             d="M 1448.54,477.258 472.219,1453.58" /><path
             id="path116"
             style="fill:none;stroke:#231f20;stroke-width:2.16000009;stroke-linecap:butt;stroke-linejoin:miter;stroke-miterlimit:2.61310005;stroke-dasharray:none;stroke-opacity:1"
             d="M 1468.91,497.625 492.586,1473.95" /></g></g><path
         id="path118"
         style="fill:#ffffff;fill-opacity:1;fill-rule:evenodd;stroke:none"
         d="M 248.328,618.613 735.008,740.719 613.215,252.305 126.035,130.207 248.328,618.613" /><path
         id="path120"
         style="fill:none;stroke:#231f20;stroke-width:7.5005002;stroke-linecap:butt;stroke-linejoin:miter;stroke-miterlimit:2.61310005;stroke-dasharray:none;stroke-opacity:1"
         d="M 248.328,618.613 735.008,740.719 613.215,252.305 126.035,130.207 Z" /><path
         id="path122"
         style="fill:none;stroke:#231f20;stroke-width:5.00029993;stroke-linecap:butt;stroke-linejoin:miter;stroke-miterlimit:2.61310005;stroke-dasharray:25.0015, 15.0009;stroke-dashoffset:0;stroke-opacity:1"
         d="M 287.133,579.063 572.059,291.387" /><path
         id="path124"
         style="fill:#231f20;fill-opacity:1;fill-rule:evenodd;stroke:none"
         d="M 246.695,621.324 324.641,585.023 282.23,543.02 Z" /><path
         id="path126"
         style="fill:#231f20;fill-opacity:1;fill-rule:evenodd;stroke:none"
         d="m 613.93,250.551 -35.547,78.285 -42.41,-42.004 z" /><path
         id="path128"
         style="fill:none;stroke:#231f20;stroke-width:5.00029993;stroke-linecap:butt;stroke-linejoin:miter;stroke-miterlimit:2.61310005;stroke-dasharray:25.0015, 15.0009;stroke-dashoffset:0;stroke-opacity:1"
         d="M 167.754,172.984 692.473,697.547" /><path
         id="path130"
         style="fill:#231f20;fill-opacity:1;fill-rule:evenodd;stroke:none"
         d="m 125.68,132.352 35.937,78.113 42.199,-42.215 z" /><path
         id="path132"
         style="fill:#231f20;fill-opacity:1;fill-rule:evenodd;stroke:none"
         d="m 733.117,739.605 -78.121,-35.91 42.199,-42.215 z" /><path
         id="path134"
         style="fill:none;stroke:#231f20;stroke-width:5.00029993;stroke-linecap:butt;stroke-linejoin:miter;stroke-miterlimit:2.61310005;stroke-dasharray:none;stroke-opacity:1"
         d="m 429.871,434.73 28.168,28.168 27.672,-27.668 -28.172,-28.171 z" /><path
         id="path136"
         style="fill:#231f20;fill-opacity:1;fill-rule:nonzero;stroke:none"
         d="m 1029.61,521.289 c -5.23,4.301 -8.62,7.75 -10.13,10.348 -1.5,2.601 -2.27,5.301 -2.27,8.101 0,4.301 1.67,8 4.98,11.117 3.32,3.098 7.74,4.665 13.24,4.665 5.33,0 9.63,-1.446 12.88,-4.348 3.27,-2.902 4.88,-6.199 4.88,-9.918 0,-2.465 -0.87,-5 -2.63,-7.566 -1.75,-2.567 -5.42,-5.598 -10.98,-9.083 5.73,-4.417 9.51,-7.902 11.38,-10.449 2.47,-3.316 3.7,-6.816 3.7,-10.5 0,-4.652 -1.77,-8.633 -5.32,-11.933 -3.55,-3.301 -8.2,-4.953 -13.96,-4.953 -6.29,0 -11.18,1.968 -14.7,5.902 -2.8,3.168 -4.2,6.617 -4.2,10.351 0,2.934 0.98,5.832 2.96,8.715 1.97,2.883 5.35,6.067 10.17,9.551 z m 7.67,5.219 c 3.91,3.512 6.38,6.297 7.43,8.328 1.03,2.035 1.55,4.336 1.55,6.918 0,3.418 -0.95,6.086 -2.87,8.019 -1.93,1.946 -4.55,2.918 -7.86,2.918 -3.32,0 -6.02,-0.972 -8.1,-2.886 -2.09,-1.918 -3.14,-4.168 -3.14,-6.735 0,-1.699 0.44,-3.382 1.3,-5.082 0.85,-1.699 2.09,-3.3 3.69,-4.832 z m -5.37,-7.067 c -2.7,-2.285 -4.7,-4.769 -6,-7.453 -1.3,-2.683 -1.95,-5.597 -1.95,-8.718 0,-4.196 1.13,-7.563 3.43,-10.082 2.3,-2.516 5.22,-3.782 8.77,-3.782 3.52,0 6.33,0.981 8.45,2.985 2.12,1.984 3.16,4.379 3.16,7.214 0,2.352 -0.61,4.45 -1.84,6.301 -2.32,3.449 -6.99,7.965 -14.02,13.535" /><path
         id="path138"
         style="fill:#ffffff;fill-opacity:1;fill-rule:evenodd;stroke:none"
         d="m 277.613,300.25 h 16.559 v -27.125 h -16.559 v 27.125" /><path
         id="path140"
         style="fill:#ffffff;fill-opacity:1;fill-rule:evenodd;stroke:none"
         d="m 341.902,529.992 h 16.559 v -27.129 h -16.559 v 27.129" /><path
         id="path142"
         style="fill:none;stroke:#231f20;stroke-width:7.5005002;stroke-linecap:butt;stroke-linejoin:miter;stroke-miterlimit:2.61310005;stroke-dasharray:none;stroke-opacity:1"
         d="M 4.24609,984.922 H 978.598 V 8.10547 H 4.24609 Z" /><path
         id="path144"
         style="fill:#ffffff;fill-opacity:1;fill-rule:evenodd;stroke:none"
         d="m 296.305,545.578 20.539,21.832 98.742,-92.797 -20.531,-21.851 -98.75,92.816" /><path
         id="path146"
         style="fill:#231f20;fill-opacity:1;fill-rule:nonzero;stroke:none"
         d="m 350.152,511.793 v -6.934 h -8.882 v -17.48 h -8.071 v 17.48 h -28.011 v 6.254 l 30.714,43.848 h 5.368 v -43.168 z m -16.953,0 v 32.867 l -23.23,-32.867 z" /><path
         id="path148"
         style="fill:#231f20;fill-opacity:1;fill-rule:nonzero;stroke:none"
         d="m 358.984,470.727 v 2.152 c 3.352,1.098 5.95,2.812 7.801,5.148 1.832,2.336 2.75,4.801 2.75,7.399 0,0.621 -0.152,1.137 -0.433,1.57 -0.235,0.281 -0.465,0.434 -0.684,0.434 -0.367,0 -1.152,-0.336 -2.352,-0.985 -0.582,-0.285 -1.199,-0.433 -1.847,-0.433 -1.602,0 -2.867,0.465 -3.817,1.418 -0.933,0.949 -1.418,2.246 -1.418,3.894 0,1.602 0.618,2.969 1.832,4.102 1.219,1.152 2.719,1.715 4.469,1.715 2.149,0 4.067,-0.93 5.731,-2.813 1.683,-1.867 2.519,-4.351 2.519,-7.433 0,-3.348 -1.164,-6.469 -3.484,-9.352 -2.332,-2.883 -6.016,-5.148 -11.067,-6.816" /><path
         id="path150"
         style="fill:#231f20;fill-opacity:1;fill-rule:nonzero;stroke:none"
         d="m 424.469,500.129 -4.633,-12.75 H 380.77 v 1.797 c 11.484,10.484 19.582,19.051 24.265,25.687 4.684,6.649 7.031,12.715 7.031,18.215 0,4.199 -1.281,7.649 -3.863,10.348 -2.566,2.703 -5.633,4.051 -9.219,4.051 -3.265,0 -6.179,-0.95 -8.765,-2.848 -2.582,-1.902 -4.5,-4.699 -5.731,-8.367 h -1.816 c 0.816,6.015 2.898,10.633 6.281,13.863 3.367,3.219 7.567,4.836 12.617,4.836 5.368,0 9.848,-1.734 13.45,-5.184 3.597,-3.453 5.398,-7.515 5.398,-12.199 0,-3.351 -0.781,-6.719 -2.348,-10.07 -2.402,-5.266 -6.316,-10.848 -11.718,-16.746 -8.102,-8.852 -13.164,-14.184 -15.184,-16.016 h 17.285 c 3.516,0 5.981,0.133 7.399,0.399 1.418,0.25 2.703,0.781 3.832,1.582 1.132,0.8 2.136,1.933 2.984,3.402 h 1.801" /><path
         id="path152"
         style="fill:#ffffff;fill-opacity:1;fill-rule:evenodd;stroke:none"
         d="m 250.781,237.199 -17.398,17.66 79.863,78.7 17.399,-17.661 -79.864,-78.699" /><path
         id="path154"
         style="fill:#231f20;fill-opacity:1;fill-rule:nonzero;stroke:none"
         d="m 262.348,314.047 h 35.48 v -1.867 l -22.066,-65.715 h -5.465 l 19.781,59.613 h -18.215 c -3.683,0 -6.3,-0.43 -7.867,-1.316 -2.734,-1.5 -4.933,-3.801 -6.582,-6.934 l -1.418,0.535 6.352,15.684" /></g></g></svg>